<?xml version="1.0" encoding="UTF-8"?>
<svg id="Layer_2" data-name="Layer 2" xmlns="http://www.w3.org/2000/svg" viewBox="0 0 259.65 186.2">
  <defs>
    <style>
      .cls-1 {
        fill: #bcbec0;
      }

      .cls-2 {
        fill: #231f20;
      }

      .cls-3 {
        fill: #ed1c24;
      }

      .cls-4 {
        fill: #00aeef;
      }
    </style>
  </defs>
  <g id="Layer_1-2" data-name="Layer 1">
    <g id="unit_circle_and_friends" data-name="unit circle and friends">
      <g id="vertical_axis" data-name="vertical axis">
        <path class="cls-1" d="M35.54,44.29c2.07-3.65,4.13-7.3,6.2-10.95.2-.36.5-.74.65-1.12.01-.04.15-.15.14-.17-.01-.06-.37.03-.37.03,0,.06.25.38.29.44.49.82.94,1.66,1.4,2.5.66,1.21,1.29,2.44,1.89,3.68.72,1.5,1.42,3.01,2.2,4.49.6,1.14,2.33.13,1.73-1.01-1.52-2.87-2.81-5.85-4.38-8.69-.72-1.3-2.09-4.62-4.05-2.95-.78.66-1.22,1.79-1.72,2.67-.57,1.01-1.15,2.02-1.72,3.04-1.33,2.35-2.66,4.7-3.99,7.05-.64,1.12,1.09,2.13,1.73,1.01h0Z"/>
        <path class="cls-1" d="M42.28,32.16c-1.7,9.59-2.52,19.3-2.84,29.03s-.18,19.42-.05,29.13.27,19.74.4,29.62.27,19.83.4,29.74.27,19.74.4,29.62c.02,1.25.03,2.5.05,3.75s2.02,1.29,2,0c-.13-9.87-.27-19.74-.4-29.62s-.27-19.74-.4-29.62-.27-19.74-.4-29.62c-.13-9.7-.31-19.39-.11-29.09s.8-19.25,2.27-28.77c.19-1.22.39-2.43.61-3.64.09-.53-.14-1.08-.7-1.23-.48-.13-1.14.16-1.23.7h0Z"/>
        <path class="cls-1" d="M34.21,174.2c2.12,3.59,4.36,7.12,6.71,10.56.4.58,1.36.71,1.73,0,2.3-4.39,4.75-8.7,7.36-12.91.68-1.1-1.05-2.1-1.73-1.01-2.61,4.21-5.06,8.52-7.36,12.91h1.73c-2.35-3.45-4.59-6.97-6.71-10.56-.65-1.11-2.38-.1-1.73,1.01h0Z"/>
      </g>
      <g id="horizontal_axis" data-name="horizontal axis">
        <path class="cls-1" d="M22.75,156.5c-2.25,1.71-4.53,3.39-6.72,5.17-.6.48-1.26.98-1.55,1.72s0,1.75.7,2.16,1.61.68,2.37,1.03c1.77.81,3.51,1.71,5.2,2.68,1.12.64,2.13-1.08,1.01-1.73-2.51-1.45-5.12-2.7-7.8-3.81l.44.26c-.06-.07-.06.1-.07.1-.04.11-.03.12.01.03.02-.04.04-.07.07-.1.05-.05.09-.1.14-.15.14-.14.29-.27.45-.4.5-.43,1.03-.83,1.55-1.24,1.72-1.35,3.47-2.66,5.21-3.98.43-.33.65-.86.36-1.37-.25-.42-.94-.69-1.37-.36h0Z"/>
        <path class="cls-1" d="M15.77,165.32c9.91-1.19,19.87-1.99,29.84-2.33,6.83-.23,13.67-.25,20.51-.04s13.56.49,20.35.63c9.06.19,18.12.27,27.18.24,7.49-.02,14.98-.15,22.47-.36,6.67-.19,13.34-.47,20-.81,4.5-.23,9.01-.41,13.51-.52,6.08-.15,12.16-.21,18.24-.21,7.8,0,15.59.12,23.38.31,9.79.24,19.58.59,29.36,1.03,2.68.12,5.36.25,8.03.38,1.29.06,1.28-1.94,0-2-10.29-.5-20.59-.93-30.89-1.23-8.24-.24-16.49-.41-24.73-.47-6.47-.05-12.94-.02-19.41.1-4.95.09-9.91.24-14.86.48-5.45.26-10.9.54-16.36.74-8.33.3-16.67.49-25.01.55-7.66.06-15.31.02-22.97-.09-8.21-.11-16.41-.33-24.62-.64-6.1-.23-12.2-.34-18.31-.24-9.27.15-18.54.7-27.77,1.61-2.65.26-5.31.55-7.95.87-.54.06-1,.41-1,1,0,.49.46,1.06,1,1h0Z"/>
        <path class="cls-1" d="M243.09,158.1c1.26.65,2.4,1.46,3.49,2.36.43.36.87.7,1.32,1.03.26.2.52.41.73.66.05.06.18.21.21.29.04.15.01.15.04.09-.07.17-.62.35-.77.43-.34.17-.69.34-1.04.51-.81.4-1.63.78-2.46,1.15-1.59.71-3.21,1.37-4.84,1.98-.51.19-.85.68-.7,1.23.13.49.72.89,1.23.7,1.98-.74,3.93-1.55,5.85-2.42.88-.4,1.75-.82,2.62-1.25s1.84-.88,2.06-1.92c.21-.94-.36-1.81-1.01-2.44-.51-.49-1.08-.84-1.54-1.23-1.32-1.08-2.65-2.12-4.18-2.91-1.14-.59-2.15,1.14-1.01,1.73h0Z"/>
      </g>
    </g>
    <g>
      <path class="cls-3" d="M223.97,59.29c4.46-1.91,8.94-3.78,13.34-5.84.51-.24,1.2-.76,1.77-.8.33-.03.3,0,.45.31s.22.81.26,1.2c.19,1.93-.01,3.97-.31,5.88-.46,2.97-1.27,5.88-2.27,8.71-.43,1.22,1.5,1.74,1.93.53.98-2.76,1.77-5.59,2.23-8.48.35-2.17.62-4.45.42-6.65-.1-1.02-.28-2.18-1.06-2.92-.99-.94-2.28-.56-3.37-.02-1.64.81-3.31,1.54-4.99,2.28-3.13,1.38-6.27,2.72-9.41,4.07-.5.21-.61.94-.36,1.37.3.51.87.57,1.37.36h0Z"/>
      <path class="cls-3" d="M.04,144.21c-.14,4.69.14,9.38.81,14.03.13.92.2,1.94.96,2.58.91.78,1.86.18,2.55-.54,1.63-1.68,3.26-3.36,4.89-5.05,1.89-1.95,3.78-3.9,5.67-5.84.9-.92-.52-2.34-1.41-1.41-2.89,2.98-5.78,5.96-8.67,8.94-.34.35-.69.71-1.03,1.06-.17.18-.34.35-.52.53s-.5.4-.6.62l-.05.05c-.19.16-.03.2.48.13,0,0-.04-.04-.04-.05,0-.11-.1-.29-.12-.4-.11-.5-.16-1.02-.23-1.52-.28-2.01-.47-4.03-.59-6.05-.14-2.36-.17-4.72-.09-7.08.04-1.29-1.96-1.29-2,0H.04Z"/>
      <path class="cls-3" d="M3.03,160.4c4.18-9.14,8.91-18.03,14.44-26.43s11.63-16.02,18.72-22.91,14.33-12.36,22.6-16.95c4.12-2.29,8.41-4.28,12.85-5.89,4.9-1.79,10.03-3.27,15.27-3.41s10.16,1.32,14.82,3.56,9.01,5.05,13.26,7.96c8.49,5.82,16.59,12.33,25.81,17,8.83,4.47,18.81,7.37,28.75,5.93,9.82-1.42,18.08-7.4,25.42-13.71,7.8-6.71,14.95-14.14,21.68-21.92,6.76-7.81,13.11-15.96,19.37-24.17,1.51-1.97,3.01-3.95,4.51-5.93.33-.43.07-1.12-.36-1.37-.51-.3-1.04-.07-1.37.36-6.23,8.21-12.46,16.42-19.04,24.36s-13.47,15.57-21,22.59c-3.63,3.39-7.37,6.69-11.38,9.63-3.9,2.85-8.11,5.37-12.72,6.9-9.48,3.14-19.64,1.38-28.65-2.44-9.48-4.02-17.75-10.3-26.09-16.22-4.19-2.98-8.44-5.89-12.91-8.44s-9.2-4.78-14.28-5.67-10.7-.22-15.85,1.2c-4.72,1.3-9.31,3.11-13.73,5.2-8.56,4.06-16.46,9.43-23.6,15.64s-13.91,13.8-19.66,21.72-10.98,16.84-15.44,25.84c-1.07,2.17-2.11,4.36-3.12,6.56-.22.49-.14,1.08.36,1.37.43.25,1.14.13,1.37-.36h0Z"/>
    </g>
    <path class="cls-4" d="M165.49,120.33c.33-.31.67-.6,1.05-.84s.8-.42,1.2-.63c0,0,.03-.09-.03-.03l.09.02c-.1-.05-.09-.04,0,.02l-.06-.04.07.07c-.07-.18.05.1.06.11.15.25-.02-.08.04.08.03.08.04.16.07.24.07.27.02-.16.02.13,0,.11,0,.21,0,.32,0,0-.03.34,0,.15,0,.07-.02.14-.04.21-.04.17-.09.34-.14.51-.1.29.08-.12-.06.15-.03.06-.06.13-.1.19-.05.09-.1.18-.16.27,0,0-.18.26-.09.14-.46.58-.93.91-1.65,1,.15-.02-.03,0-.05,0-.11,0-.21,0-.32,0-.22-.01-.09-.01-.05,0-.1-.02-.21-.05-.31-.08-.22-.07-.61-.27-.77-.41-.14-.11-.26-.24-.38-.38-.06-.07-.12-.15-.21-.32-.13-.24-.22-.53-.23-.79s.08-.61.24-.9c.2-.38.4-.62.71-.92.54-.54,1.2-1.05,1.89-1.3.38-.13.64-.2,1.02-.14-.15-.02.22.07.19.06.33.11-.03-.03.14.06.21.11.25.15.41.33.4.43.7,1.28.74,1.87.03.4.04.61-.12.96.06-.14-.11.17-.1.15.04-.05.01-.06-.05.06-.09.17.1-.03-.06.06-.04.02-.27.12-.06.05-.08.03-.16.05-.24.07.04-.01.2,0,.02,0-.09,0-.17,0-.26,0-.19,0-.03,0,.01,0-.08-.02-.17-.04-.25-.06-.25-.06.1.06-.04-.01-.06-.03-.12-.07-.19-.1-.09-.06-.1-.06,0,0-.03-.03-.06-.05-.09-.08-.05-.05-.1-.1-.14-.15.14.18,0-.04-.03-.08.12.21-.05-.27-.02-.1-.04-.28.02-.05,0-.04-.19.08-.12.27-.42.27-.55,0-.22-.13-.16-.02-.05-.1.05.09.07.11.17.27.29.65.37,1.05.04.17.07.35.05.53,0,.04-.04.17-.06.2.07-.15-.1.15-.02.02l-.07.08c.07-.04.06-.03-.04.03.12-.07,0,.03-.04.01.22.08.08,0,.03-.06-.22-.2-.44-.64-.54-.89-.11-.27-.23-.71-.29-1.06-.04-.22-.05-.71-.03-1.07.02-.31.11-.74.25-1.15.11-.32.3-.69.55-1.05.16-.24.47-.49.66-.59.13-.07.11-.03.04-.02.12,0,.13,0,.02,0-.03,0-.06-.02-.09-.03-.01,0-.05-.05-.04-.05s.06.3.06.3c.05.52,0,1.06-.12,1.57-.1.42-.23.9-.46,1.2-.05.06-.11.11-.17.17-.05.05-.04.04-.08.05-.04.01-.25.07-.1.03-.12,0-.14,0-.04,0-.11-.03-.13-.04-.07-.02.04.03.08.08.12.11.04.12.04.12,0,.01.01.12.02.14.01.06,0-.14-.08.21.01-.02-.05.13-.12.23-.27.28l-.97-.26c.14.13-.05-.07-.05-.17s.18-.3.04-.18c-.41.35-.36,1.05,0,1.41.41.41,1,.35,1.41,0,.58-.49.71-1.43.33-2.08-.27-.46-.74-.79-1.3-.66-.38.09-.71.35-.92.67-.37.56-.39,1.35-.04,1.93.44.74,1.34.99,2.14.84,1.6-.3,2.24-2.15,2.43-3.56.1-.74.16-1.58-.09-2.3-.28-.8-.98-1.36-1.85-1.33-1.46.05-2.45,1.47-2.95,2.69s-.63,2.62-.35,3.94c.26,1.22,1.01,2.95,2.39,3.2.84.15,1.62-.27,2.1-.95s.5-1.5.35-2.28c-.14-.72-.41-1.48-.89-2.04-.52-.62-1.39-.92-2.12-.48s-.93,1.34-.74,2.11c.15.61.56,1.12,1.07,1.48.91.65,2.3.77,3.24.12,1.25-.87,1.43-2.49,1.11-3.87s-1.16-2.72-2.56-3.21-2.93.15-4.04.97-2.19,1.89-2.5,3.28.2,2.75,1.22,3.68,2.38,1.35,3.73,1.04c1.23-.28,2.29-1.19,2.89-2.29.63-1.15.85-2.6.31-3.82-.27-.6-.78-1.13-1.45-1.28-.84-.19-1.66.24-2.37.66-.65.38-1.25.85-1.79,1.37-.93.89.48,2.3,1.41,1.41h0Z"/>
    <g>
      <path class="cls-4" d="M170.7,120.08c1.19-.8,2.37-1.6,3.56-2.4.43-.29.66-.89.36-1.37-.28-.43-.9-.67-1.37-.36l-3.56,2.4c-.43.29-.66.89-.36,1.37.28.43.9.67,1.37.36h0Z"/>
      <path class="cls-4" d="M178.11,115.12l3.13-2.99c.38-.36.39-1.05,0-1.41s-1.01-.39-1.41,0l-3.13,2.99c-.38.36-.39,1.05,0,1.41s1.01.39,1.41,0h0Z"/>
      <path class="cls-4" d="M184.86,110.18l3.74-5.63c.29-.44.1-1.13-.36-1.37-.5-.27-1.06-.11-1.37.36l-3.74,5.63c-.29.44-.1,1.13.36,1.37.5.27,1.06.11,1.37-.36h0Z"/>
      <path class="cls-4" d="M192.7,99.8c.12-.47.26-.94.42-1.4.08-.23.17-.45.26-.67-.08.2.06-.14.08-.17.05-.11.1-.21.15-.32.2-.42.43-.83.67-1.22.12-.19.25-.38.38-.57.06-.09.13-.18.2-.27.07-.09.07-.09,0,0,.03-.04.07-.09.1-.13.33-.41.43-1.02,0-1.41-.36-.33-1.07-.44-1.41,0-1.33,1.66-2.25,3.58-2.77,5.64-.13.51.16,1.11.7,1.23s1.09-.16,1.23-.7h0Z"/>
      <path class="cls-4" d="M198.71,88.45c.8-1.89,1.6-3.77,2.4-5.66.2-.48.16-1.09-.36-1.37-.43-.23-1.15-.16-1.37.36l-2.4,5.66c-.2.48-.16,1.09.36,1.37.43.23,1.15.16,1.37-.36h0Z"/>
      <path class="cls-4" d="M203.17,77.73l2.08-6.28c.16-.5-.19-1.11-.7-1.23-.55-.13-1.05.17-1.23.7l-2.08,6.28c-.16.5.19,1.11.7,1.23.55.13,1.05-.17,1.23-.7h0Z"/>
      <path class="cls-4" d="M207.74,65.84l1.75-5.09c.17-.5-.19-1.12-.7-1.23-.56-.13-1.05.17-1.23.7l-1.75,5.09c-.17.5.19,1.12.7,1.23.56.13,1.05-.17,1.23-.7h0Z"/>
      <path class="cls-4" d="M211.05,56.52l1.15-5.64c.1-.51-.15-1.1-.7-1.23-.5-.11-1.12.15-1.23.7l-1.15,5.64c-.1.51.15,1.1.7,1.23.5.11,1.12-.15,1.23-.7h0Z"/>
      <path class="cls-4" d="M213.85,47.17l1.75-5.37c.16-.5-.19-1.11-.7-1.23-.55-.13-1.06.17-1.23.7l-1.75,5.37c-.16.5.19,1.11.7,1.23.55.13,1.06-.17,1.23-.7h0Z"/>
      <path class="cls-4" d="M216.97,37.01l1.67-8.23c.11-.53-.15-1.08-.7-1.23-.49-.14-1.12.17-1.23.7l-1.67,8.23c-.11.53.15,1.08.7,1.23.49.14,1.12-.17,1.23-.7h0Z"/>
      <path class="cls-4" d="M213.16,30.21c1.85-2.51,3.77-4.96,5.76-7.37.09-.11.24-.23.3-.36.28-.25.05-.29-.7-.12-.05-.06-.04-.03.03.08.02.2.13.48.18.71.19.82.38,1.65.58,2.47.37,1.59.74,3.18,1.11,4.76.29,1.25,2.22.72,1.93-.53-.44-1.88-.88-3.76-1.32-5.64-.19-.8-.31-1.66-.6-2.42-.34-.87-1.17-1.61-2.14-1.1-.38.2-.63.56-.9.88-.29.36-.59.72-.88,1.08-.55.68-1.09,1.36-1.63,2.04-1.17,1.49-2.32,3-3.45,4.52-.32.43-.07,1.12.36,1.37.51.3,1.05.08,1.37-.36h0Z"/>
      <path class="cls-4" d="M162.35,119.18l-3.7-2.4c-.44-.29-1.12-.1-1.37.36-.26.5-.11,1.06.36,1.37l3.7,2.4c.44.29,1.12.1,1.37-.36.26-.5.11-1.06-.36-1.37h0Z"/>
      <path class="cls-4" d="M155.06,114.53l-3.26-2.99c-.39-.35-1.04-.41-1.41,0-.35.39-.41,1.04,0,1.41l3.26,2.99c.39.35,1.04.41,1.41,0,.35-.39.41-1.04,0-1.41h0Z"/>
      <path class="cls-4" d="M148.35,109.99c-1.3-1.88-2.59-3.76-3.89-5.63-.3-.43-.89-.67-1.37-.36-.43.28-.68.91-.36,1.37,1.3,1.88,2.59,3.76,3.89,5.63.3.43.89.67,1.37.36.43-.28.68-.91.36-1.37h0Z"/>
      <path class="cls-4" d="M140.41,100.1c-.54-2.07-1.5-4-2.87-5.64-.34-.4-1.07-.37-1.41,0-.39.43-.36.98,0,1.41.07.09.14.17.21.26-.12-.15.06.08.1.13.13.18.26.37.39.56.26.4.5.82.71,1.24.11.21.21.42.3.64,0,.02.08.19.04.08s.03.07.03.09c.04.11.09.22.13.33.17.47.32.94.45,1.42.13.51.72.86,1.23.7s.84-.69.7-1.23h0Z"/>
      <path class="cls-4" d="M133.95,88.27l-2.5-5.66c-.21-.48-.95-.63-1.37-.36-.5.32-.59.85-.36,1.37l2.5,5.66c.21.48.95.63,1.37.36.5-.32.59-.85.36-1.37h0Z"/>
      <path class="cls-4" d="M129.52,78.03c-.72-2.09-1.44-4.19-2.16-6.28-.17-.49-.69-.87-1.23-.7-.49.16-.88.7-.7,1.23.72,2.09,1.44,4.19,2.16,6.28.17.49.69.87,1.23.7.49-.16.88-.7.7-1.23h0Z"/>
      <path class="cls-4" d="M124.77,66.14l-1.83-5.09c-.18-.49-.69-.87-1.23-.7-.48.16-.89.7-.7,1.23l1.83,5.09c.18.49.69.87,1.23.7.48-.16.89-.7.7-1.23h0Z"/>
      <path class="cls-4" d="M121.32,56.82l-1.19-5.64c-.11-.51-.74-.86-1.23-.7-.54.18-.81.68-.7,1.23l1.19,5.64c.11.51.74.86,1.23.7.54-.18.81-.68.7-1.23h0Z"/>
      <path class="cls-4" d="M118.41,47.47l-1.82-5.37c-.17-.49-.7-.87-1.23-.7-.49.16-.88.7-.7,1.23l1.82,5.37c.17.49.7.87,1.23.7.49-.16.88-.7.7-1.23h0Z"/>
      <path class="cls-4" d="M115.16,37.31c-.58-2.74-1.16-5.49-1.74-8.23-.11-.53-.73-.84-1.23-.7-.55.15-.81.7-.7,1.23l1.74,8.23c.11.53.73.84,1.23.7.55-.15.81-.7.7-1.23h0Z"/>
      <path class="cls-4" d="M118.92,30.02c-1.17-1.53-2.37-3.04-3.59-4.53-.58-.71-1.17-1.41-1.76-2.11-.31-.37-.63-.74-.95-1.11-.28-.32-.54-.64-.94-.81-2.03-.84-2.39,2.4-2.69,3.62-.45,1.87-.91,3.73-1.36,5.6-.3,1.25,1.62,1.78,1.93.53.38-1.57.76-3.13,1.14-4.7.19-.78.38-1.57.57-2.35.07-.3.17-.63.24-.9.07-.11.08-.14.05-.09-.16.21-.41.22-.77.04.05.13.26.29.36.4,2.08,2.42,4.1,4.9,6.04,7.43.33.43.86.66,1.37.36.42-.25.69-.94.36-1.37h0Z"/>
    </g>
    <g>
      <path class="cls-2" d="M165.83,154.66c-.25,3.9-.16,7.82.26,11.71.07.63,1.07.64,1,0-.42-3.89-.51-7.8-.26-11.71.04-.64-.96-.64-1,0h0Z"/>
      <path class="cls-2" d="M171.34,170.66c-1.82.4-3.57,1.1-5.16,2.06s-3.1,2.11-4.1,3.63c-.88,1.34-1.27,3.18-.02,4.43,1.18,1.17,3.22,1.37,4.77,1.62,2.1.34,4.29.4,6.22-.64.57-.3.06-1.17-.5-.86-1.47.79-3.14.83-4.76.63-.83-.1-1.65-.27-2.47-.44-.68-.14-1.38-.29-2-.62-1.51-.83-1.15-2.48-.32-3.68.87-1.28,2.24-2.3,3.55-3.11,1.57-.97,3.28-1.65,5.07-2.05.63-.14.36-1.1-.27-.96h0Z"/>
    </g>
    <g>
      <path class="cls-2" d="M32.75,120.12c3.95-.9,8.01-1.14,12.03-.73.64.07.64-.94,0-1-4.12-.42-8.27-.16-12.3.76-.63.14-.36,1.11.27.96h0Z"/>
      <path class="cls-2" d="M51.79,124.97c-.86-2.69-1.34-5.48-1.38-8.31-.01-.67,0-1.33.03-2,.03-.56.07-1.26.49-1.69,1.03-1.06,2.63.1,3.49.79.5.4,1.21-.31.71-.71-1.11-.88-2.43-1.81-3.92-1.36-1.4.42-1.71,1.81-1.77,3.1-.17,3.53.32,7.09,1.39,10.46.19.61,1.16.35.96-.27h0Z"/>
      <path class="cls-2" d="M46.81,118.72l6.95-.85c.27-.03.5-.21.5-.5,0-.24-.23-.53-.5-.5l-6.95.85c-.27.03-.5.21-.5.5,0,.24.23.53.5.5h0Z"/>
      <path class="cls-2" d="M60.85,111.72c-1.57,1.38-2.83,3.2-3.6,5.13-1.31,3.25-.83,6.86,1.23,9.7.37.52,1.24.02.86-.5-1.95-2.69-2.38-6.04-1.06-9.1.73-1.7,1.88-3.28,3.27-4.51.48-.43-.23-1.13-.71-.71h0Z"/>
      <path class="cls-2" d="M65.88,114.73c-2.55-.26-4.99,1.78-5.53,4.23-.28,1.27-.05,2.55.79,3.56.67.8,1.63,1.42,2.64,1.67,1.2.3,2.52.14,3.63-.38.58-.27.08-1.13-.5-.86-.02,0-.1.05-.05.02.04-.02-.1.04-.13.05-.19.07-.38.13-.57.17-.51.13-1.04.17-1.57.13-.88-.08-1.69-.48-2.33-1.08-.78-.72-1.13-1.66-.99-2.72s.68-1.96,1.43-2.66c.87-.81,2-1.26,3.19-1.13.64.07.63-.93,0-1h0Z"/>
      <path class="cls-2" d="M66.91,112.66c2.54,1.44,3.87,3.87,3.58,6.81-.25,2.47-1.4,5.05-2.93,6.99-.4.5.31,1.21.71.71,1.75-2.2,3.02-5.06,3.24-7.89.25-3.21-1.33-5.92-4.09-7.48-.56-.32-1.07.55-.5.86h0Z"/>
    </g>
    <g>
      <path class="cls-3" d="M233.86,47.25c-.15-1.81-.29-3.62-.44-5.43-.13-1.59-.27-3.24.06-4.82.29-1.4.97-2.65,2.2-3.42,1.05-.65,2.33-.86,3.41-.19.55.34,1.05-.52.5-.86-2.59-1.61-5.74.47-6.72,2.99-.68,1.72-.65,3.62-.53,5.44.14,2.1.34,4.2.51,6.29.05.64,1.05.64,1,0h0Z"/>
      <path class="cls-3" d="M230.47,40.9c2.55,0,5.09-.2,7.61-.61.63-.1.36-1.07-.27-.96-2.43.39-4.89.58-7.35.57-.64,0-.64,1,0,1h0Z"/>
      <path class="cls-3" d="M243.92,33.7c-2.99,3.91-2.74,9.75.47,13.46.42.49,1.13-.22.71-.71-2.93-3.39-3.02-8.7-.31-12.24.39-.51-.48-1.01-.86-.5h0Z"/>
      <path class="cls-3" d="M247.6,37.53c.95,1.63,1.94,3.23,2.97,4.8.48.73.95,1.48,1.48,2.17.44.57,1.05,1.1,1.82,1.02.63-.06.64-1.07,0-1s-1.05-.63-1.36-1.09c-.48-.69-.94-1.39-1.4-2.1-.92-1.41-1.8-2.85-2.65-4.3-.32-.56-1.19-.05-.86.5h0Z"/>
      <path class="cls-3" d="M252.51,36.88c-1.78,2.17-3.34,4.52-4.63,7.02-.3.57.57,1.08.86.5,1.25-2.42,2.75-4.71,4.48-6.82.41-.49-.3-1.21-.71-.71h0Z"/>
      <path class="cls-3" d="M255.95,33.71c1.43,2.33,2.36,4.96,2.62,7.68.12,1.28.17,2.66-.32,3.88s-1.65,2.22-2.99,2c-.63-.1-.9.86-.27.96,1.37.23,2.66-.37,3.52-1.44.96-1.21,1.17-2.82,1.13-4.32-.1-3.26-1.12-6.49-2.83-9.26-.34-.55-1.2-.05-.86.5h0Z"/>
    </g>
    <g>
      <path class="cls-4" d="M165.16,2.76c-1.4-.33-1.1,2.14-1.02,2.88.12,1.18.35,2.69,1.35,3.46s2.21.32,2.92-.55c.43-.52.66-1.16.91-1.78.31-.79.62-1.57.93-2.36l-.98-.13c.01,4.92-1.81,9.73-5.09,13.4-.43.48.28,1.19.71.71,3.46-3.86,5.4-8.92,5.39-14.1,0-.6-.78-.63-.98-.13-.35.89-.69,1.78-1.05,2.66-.29.71-.85,1.88-1.81,1.67-.77-.17-1.01-1.29-1.14-1.93-.1-.45-.16-.91-.18-1.37-.01-.2-.13-1.43.07-1.53l-.39.05.11.03c.63.15.89-.82.27-.96h0Z"/>
      <path class="cls-4" d="M173.72,9.36l3.6-1.21-.62-.62c-.04.14-.08.28-.12.42-.08.26.09.54.35.62s.54-.09.62-.35c.04-.14.08-.28.12-.42.1-.35-.25-.74-.62-.62l-3.6,1.21c-.26.09-.42.34-.35.62.07.25.36.44.62.35h0Z"/>
      <path class="cls-4" d="M173.59,13.14c1.45-.91,3.03-1.9,4.81-1.78.27.02.5-.24.5-.5,0-.29-.23-.48-.5-.5-1.96-.13-3.72.91-5.31,1.92-.54.34-.04,1.21.5.86h0Z"/>
      <path class="cls-4" d="M184.18,12.37c-.4-1.93-.5-4.05-.06-5.99.16-.69.45-1.52,1.13-1.86.49-.25,1.22-.24,1.52.29.32.56,1.19.05.86-.5-.45-.78-1.36-1.05-2.21-.88-.99.19-1.65.98-2.01,1.88-.43,1.06-.52,2.28-.55,3.41-.04,1.32.09,2.64.36,3.93.13.63,1.1.36.96-.27h0Z"/>
      <path class="cls-4" d="M182.11,8.97l4.36-.61c.27-.04.41-.38.35-.62-.08-.29-.35-.39-.62-.35l-4.36.61c-.27.04-.41.38-.35.62.08.29.35.39.62.35h0Z"/>
      <path class="cls-4" d="M191.02,2.83c-1.65,1.1-2.12,3.29-2.39,5.13-.3,2.08-.09,4.21,1.26,5.89.4.5,1.11-.21.71-.71-1.15-1.43-1.26-3.37-.98-5.11.23-1.47.56-3.45,1.9-4.34.53-.35.03-1.22-.5-.86h0Z"/>
      <path class="cls-4" d="M195.41,5.61c-.76.16-1.47.51-2.07,1s-1.17,1.19-1.32,1.97c-.17.86.21,1.62.92,2.1s1.6.52,2.43.53c.64.01.64-.99,0-1s-1.29,0-1.84-.34c-.46-.28-.65-.73-.49-1.25s.6-.98,1.02-1.32c.47-.37,1.03-.61,1.62-.73.26-.05.42-.37.35-.62-.08-.28-.35-.4-.62-.35h0Z"/>
      <path class="cls-4" d="M196.95,3.63c.98,1.64,1.9,3.38,2.17,5.3.13.93.12,1.95-.18,2.85-.14.44-.36.73-.78.94-.37.19-.72.33-1.04.6-.5.41.21,1.11.71.71.36-.3.85-.4,1.23-.68.35-.26.58-.62.74-1.01.39-.97.45-2.12.35-3.15-.22-2.2-1.21-4.18-2.33-6.05-.33-.55-1.2-.05-.86.5h0Z"/>
      <path class="cls-4" d="M203.65,9.3c1.5-.45,3.06-.63,4.62-.52.27.02.5-.24.5-.5,0-.29-.23-.48-.5-.5-1.65-.12-3.31.07-4.89.55-.61.19-.35,1.15.27.96h0Z"/>
      <path class="cls-4" d="M205.5,5.93c-.68,1.53-.91,3.17-.68,4.83.04.27.38.41.62.35.29-.08.39-.35.35-.62-.19-1.36.02-2.8.58-4.06.11-.25.07-.54-.18-.68-.21-.12-.57-.07-.68.18h0Z"/>
      <path class="cls-4" d="M214.48,2.35c-1.25,2.36-2,4.95-2.15,7.62-.07,1.3-.01,2.62.22,3.9.2,1.13.84,2.17,2.1,2.21.64.02.64-.98,0-1-1.22-.03-1.23-1.97-1.29-2.83-.08-1.04-.06-2.09.05-3.14.23-2.19.91-4.31,1.94-6.25.3-.57-.56-1.07-.86-.5h0Z"/>
      <path class="cls-4" d="M230.58,2.58c3.18,3.84,3.9,9.57.65,13.62-.4.5.3,1.21.71.71,1.88-2.33,2.74-5.27,2.35-8.25-.32-2.51-1.39-4.84-3-6.79-.41-.5-1.11.21-.71.71h0Z"/>
      <path class="cls-4" d="M236.76,5.84c1.98,2.35,3.77,4.84,5.39,7.46.34.55,1.2.05.86-.5-1.66-2.69-3.51-5.24-5.54-7.66-.41-.49-1.12.22-.71.71h0Z"/>
      <path class="cls-4" d="M241.97,5c-1.77,3.03-3.7,5.97-5.79,8.79-.38.52.48,1.02.86.5,2.09-2.83,4.02-5.76,5.79-8.79.33-.56-.54-1.06-.86-.5h0Z"/>
      <path class="cls-4" d="M243.6,1.3c.43-.23.91-.32,1.39-.3.38.02.91.12,1.16.44.45.58.19,1.59-.06,2.2-.51,1.26-1.69,2.11-2.88,2.49l.27.96c1.73-.66,3.59-.85,5.4-.44.63.14.89-.82.27-.96-1.98-.44-4.04-.28-5.93.44-.59.23-.36,1.16.27.96,1.23-.39,2.34-1.13,3.07-2.2.87-1.27,1.46-3.82-.34-4.62-1-.44-2.16-.35-3.12.15-.57.3-.07,1.16.5.86h0Z"/>
      <g>
        <path class="cls-4" d="M220.4,4.11c-.53.14-1.02.44-1.37.86-.18.21-.37.47-.43.75-.04.16-.02.32.06.47s.24.23.39.3c.3.13.63.2.96.18.14,0,.28-.03.42-.04.1,0,.2,0,.26.09.12.16.1.41.05.59-.06.22-.21.42-.38.57-.47.42-1.18.47-1.78.51-.13,0-.25.11-.25.25,0,.13.11.26.25.25.61-.04,1.25-.1,1.8-.41.49-.28.86-.78.9-1.35.02-.27-.06-.59-.25-.79-.22-.23-.54-.22-.83-.19-.31.03-.62.01-.91-.11-.06-.03-.19-.07-.21-.15-.02-.11.09-.25.14-.33.29-.48.78-.83,1.32-.97.31-.08.18-.56-.13-.48h0Z"/>
        <path class="cls-4" d="M222.07,7.37c0-.06,0-.12,0-.19,0-.02,0-.04,0-.06s.01-.05,0,.02c0-.01,0-.02,0-.03,0-.05.02-.11.04-.16,0,0,.01-.04.01-.04v.03s0-.02,0-.03c.01-.03.03-.05.04-.08.02-.03.04-.06.06-.09.03-.04-.03.04-.01.02,0-.01.02-.02.03-.03.02-.03.05-.05.07-.08.01-.01.03-.02.04-.04.05-.04-.05.03,0,0,.04-.03.08-.05.12-.07.03-.02-.02,0-.02,0,.01,0,.03,0,.04-.01.02,0,.04-.01.07-.02.01,0,.02,0,.03,0,.03,0-.07,0-.02,0,.03,0,.06,0,.09,0,.01,0,.03,0,.04,0,.04,0-.07-.01-.01,0,.02,0,.05.01.07.02.01,0,.03,0,.04.01.02,0,.01.02-.02,0,.02.02.06.03.08.04.02.01.04.03.06.04h.01s.02.02-.01,0c0,0,.02.02.02.02.04.04.08.08.12.12-.05-.05-.01-.01,0,0,0,0,.01.02.02.03.02.02.03.05.04.07s.03.05.04.08c0,.02.02.06,0,0,0,.02.01.03.02.05.04.11.07.23.09.35.01.06,0-.06,0-.02,0,0,0,.02,0,.02,0,.02,0,.04,0,.06,0,.01,0,.02,0,.03,0-.07,0-.04,0-.02,0,.03-.01.06-.02.09,0,.03-.02.06-.03.08-.01.04.03-.05,0,0,0,.02-.02.03-.02.05-.01.02-.02.04-.03.06,0,0-.01.02-.02.02,0,0-.04.06-.01.02s0,0,0,0c0,.01-.02.02-.03.03-.02.02-.03.04-.05.05s-.04.03-.06.05c0,0-.02.01-.02.02.03-.02.04-.03.01-.01,0,0-.02.01-.02.02-.04.03-.09.05-.13.08,0,0-.02,0-.03.01h.03s-.02,0-.03,0c-.03.01-.06.02-.09.03-.02,0-.05,0-.07.02.04-.02.05,0,.02,0-.02,0-.03,0-.05,0-.03,0-.05,0-.08,0,0,0-.06,0-.01,0s-.02,0-.03,0c-.02,0-.05-.01-.07-.02-.06-.02.05.02,0,0-.04-.02-.07-.04-.11-.07.07.05,0,0-.01-.01-.02-.02-.03-.03-.05-.05,0,0,0-.01-.01-.02-.04-.05.03.04,0,0-.01-.02-.03-.04-.04-.05-.02-.03-.04-.07-.06-.1,0,0,0-.02-.01-.03-.02-.04.02.06,0,.02,0-.02-.01-.04-.02-.06-.02-.07-.04-.13-.06-.2,0-.03,0-.05-.01-.08,0-.05,0,.05,0,.03,0,0,0-.01,0-.02,0-.07-.02-.13-.07-.18-.04-.04-.11-.08-.18-.07-.12,0-.27.11-.25.25.04.32.14.66.38.89.19.18.45.29.71.27.29-.02.56-.16.77-.36s.34-.48.36-.77c0-.12-.02-.25-.05-.37-.04-.15-.09-.29-.16-.42-.14-.26-.38-.47-.66-.56-.26-.08-.55-.04-.78.11-.4.26-.62.74-.57,1.21,0,.07.02.13.07.18.04.04.11.08.18.07.12,0,.26-.11.25-.25Z"/>
        <path class="cls-4" d="M224.02,5.78c-.04.7.01,1.4.13,2.09.02.12.16.19.27.18.12-.02.22-.12.22-.25,0-.22-.01-.44,0-.67,0-.11.01-.22.03-.33,0-.01,0-.02,0-.04-.02.06,0,.02,0,0,0-.03,0-.05.01-.08,0-.05.02-.11.03-.16.02-.11.05-.21.09-.31,0-.02.02-.05.03-.07,0-.01,0-.03.02-.04,0,0-.02.05,0,.01.01-.02.02-.05.03-.07,0,0,.04-.08.04-.08,0,0-.04.05,0,.02-.02.02-.04.03-.06.04l-.14-.02c-.06-.06-.07-.08-.06-.05,0,.01.01.02.02.03s0,.02.01.03c.01.03,0,.02,0,0,0,.02.02.06.03.08.04.11.07.22.09.33,0,.03.01.06.02.09,0,.01,0,.02,0,.04,0,.06,0-.05,0,0,0,.07.01.13.01.2,0,.06,0,.12,0,.18,0,.03,0,.06,0,.09,0,.01,0,.03,0,.04s-.01.09,0,.01c0,.07-.01.13.03.19.03.05.09.1.15.11.12.03.29-.04.31-.17.02-.1.04-.21.07-.31.01-.05.03-.1.05-.15,0-.02.02-.04.02-.07,0-.01,0-.02.01-.03,0-.01.03-.06,0,0,.05-.09.09-.19.14-.28s.11-.17.17-.26c0,0-.04.04,0,.01,0,0,.01-.02.02-.02.02-.02.03-.04.05-.05h0s.02-.02,0,0h-.01s.02,0,.03,0c0,0,.02-.01.03-.02.04-.02-.05.01,0,0,0,0,.02,0,.03,0,0,0-.06,0-.02,0s-.02,0-.02,0c.04,0-.01,0-.02-.01,0,0,.05.04,0,0-.03-.03,0,0,0,0,.02.02-.03-.06,0-.01,0,.01.01.02.02.03.02.03-.02-.06,0-.01,0,0,0,.02,0,.03,0,.02,0,.04.01.06,0,0,0,.02,0,.03-.02-.06,0-.03,0,0,0,.03,0,.06,0,.1,0,.12,0,.23,0,.35,0,.03,0,.06,0,.1,0,.01,0,.03,0,.04,0,.02,0,.01,0-.02,0,0,0,.02,0,.03,0,.06-.02.13-.03.19-.02.13-.05.26-.08.39s.04.28.17.31c.13.03.28-.04.31-.17.06-.28.12-.56.15-.84.02-.26.03-.56-.08-.8-.06-.14-.2-.25-.35-.27-.17-.02-.32.05-.44.16-.1.08-.17.19-.24.29-.07.1-.12.2-.18.3-.13.25-.22.52-.26.8l.48.13c.04-.29.04-.57-.01-.86-.02-.13-.05-.25-.1-.37-.05-.15-.11-.33-.25-.41-.2-.12-.41.04-.5.22-.06.12-.11.25-.15.39-.08.25-.12.51-.14.77-.02.28-.02.57,0,.85l.49-.07c-.01-.08-.03-.17-.04-.25,0-.02,0-.04,0-.06,0-.06,0,.04,0-.01,0-.04-.01-.08-.02-.13-.02-.17-.03-.33-.04-.5-.02-.34-.02-.67,0-1.01,0-.13-.12-.26-.25-.25-.14,0-.24.11-.25.25h0Z"/>
        <path class="cls-4" d="M227.14,7.04c.27.05.56.03.8-.11.23-.13.4-.34.49-.59s.08-.53-.04-.76-.37-.4-.63-.43-.48.02-.66.19-.24.46-.28.7c-.08.55,0,1.1.24,1.6.06.12.12.24.2.34.11.14.27.22.45.24.23.02.46-.07.66-.19.11-.07.16-.23.09-.34s-.22-.16-.34-.09c-.02.01-.04.02-.06.03-.01,0-.03.02-.04.02-.01,0-.07.03-.03.01.04-.02-.03,0-.03.01-.02,0-.04.01-.05.02-.02,0-.04.01-.06.02,0,0-.02,0-.03,0,.01,0,.05,0,.02,0-.02,0-.05,0-.07,0-.04,0,.05.01,0,0-.01,0-.02,0-.03,0-.03,0,.04.02.01,0,0,0-.02,0-.02-.01-.05-.03.03.03-.01,0,0,0-.01-.01-.02-.02-.01-.01-.03-.02,0,0,.02.01,0,0,0,0,0,0,0-.01-.01-.02-.02-.04-.05-.08-.07-.12-.03-.05-.05-.1-.08-.15-.01-.02-.02-.04-.03-.07-.02-.03.01.04,0,0,0-.02-.01-.03-.02-.05-.04-.1-.07-.2-.1-.3-.01-.05-.02-.1-.03-.15,0-.02,0-.05-.01-.07,0,0,0-.05,0-.02,0,.04,0-.02,0-.03-.01-.11-.02-.21-.01-.32,0-.05,0-.1,0-.15,0-.02,0-.05,0-.07,0,0,0-.05,0-.02,0,.04,0-.02,0-.03.02-.11.04-.21.07-.31,0,0,.02-.05,0-.02s0,0,0-.01c0-.02.02-.03.03-.05.01-.03.02,0-.01.01,0,0,.02-.02.02-.02.01-.01.03-.02.04-.03-.04.05-.03.02,0,0,.01,0,.02-.01.03-.02,0,0,.05-.03.02-.01-.03.02-.01,0,0,0,.01,0,.03,0,.04-.01.01,0,.02,0,.03,0,.03,0-.05,0-.02,0,.02,0,.04,0,.06,0,.01,0,.02,0,.03,0,.04,0-.02,0-.02,0,0,0,.06.01.07.01.01,0,.06.01.07.02,0,0-.06-.03-.01,0,0,0,.02,0,.02.01.02.01.04.02.06.04,0,0,.02.01.02.01-.03-.02-.03-.02-.02-.01,0,0,.01.01.02.02.01.01.03.03.04.04,0,0,.03.04,0,0s0,0,0,0c.01.02.02.04.04.06.02.03-.01,0,0-.01,0,0,0,.03.01.03,0,.02.01.05.02.07,0,.04,0-.01,0-.01,0,0,0,.04,0,.04,0,.02,0,.04,0,.06,0,.01,0,.02,0,.04,0,.03.01-.06,0,0,0,.05-.02.1-.04.15,0,.01,0,.02-.01.03-.01.03.03-.05,0,0-.01.02-.02.04-.03.06-.01.02-.03.04-.04.06,0,0-.03.03,0,0,.02-.03-.01.01-.02.02-.02.02-.04.04-.06.06,0,0-.02.02-.02.02.02-.02.03-.02.01-.01,0,0,0,0-.01.01-.02.02-.05.03-.07.04-.01,0-.02.01-.03.02,0,0-.05.03-.02.01.03-.01,0,0,0,0-.02,0-.03.01-.05.02-.02,0-.05.01-.07.02-.01,0-.02,0-.04,0-.05,0,.03,0,0,0-.03,0-.06,0-.09,0-.03,0-.05,0-.08,0-.05,0,0,0,0,0-.02,0-.04,0-.06-.01-.13-.03-.28.04-.31.17-.03.12.04.28.17.31h0Z"/>
      </g>
      <path class="cls-4" d="M216.34,10.99l-.14,3.22-.07,1.59c-.02.53-.06,1.06-.01,1.6.01.13.11.25.25.25.13,0,.26-.11.25-.25-.05-.52-.01-1.04.01-1.56l.07-1.63.14-3.22c.01-.32-.49-.32-.5,0h0Z"/>
      <path class="cls-4" d="M217.02,11.45s.01-.02.02-.03c.02-.03,0,.01,0,.01,0,0,.04-.04.04-.05.01-.01.03-.03.04-.04,0,0,.03-.03,0,0-.03.03,0,0,.01,0,.03-.02.07-.04.1-.06.06-.03-.05.02.01,0,.02,0,.04-.01.07-.02.04-.01.08-.02.11-.03,0,0,.02,0,.02,0,.04,0-.01,0-.02,0,.02,0,.05,0,.07,0,.08,0,.17,0,.25,0s.17,0,.26.02c.02,0,.04,0,.06,0,.05,0-.02,0-.02,0,0,0,.04,0,.03,0,.04,0,.09.02.13.03s.09.02.13.04c0,0,.02,0,.02,0h0s.02.01,0,0c-.03,0,0,0,0,0,.01,0,.02.01.04.02.04.02.07.04.11.06.05.04-.03-.03.02.01.02.02.04.03.06.05.01.01.03.03.04.05.02.02-.03-.04,0-.01,0,0,.01.02.02.03.03.04.05.08.07.12.03.06-.01-.04,0,.02,0,.02.01.04.02.06.01.05.02.1.03.14,0,.03,0-.05,0-.01,0,.01,0,.02,0,.04,0,.02,0,.04,0,.06,0,.05,0,.1,0,.15,0,0,0,.02,0,.03,0,.05,0,0,0-.01,0,.02,0,.05-.01.07,0,.05-.02.09-.04.14,0,.02-.01.05-.02.07,0,0,.02-.05,0-.01,0,.01,0,.02-.02.03-.02.04-.04.08-.07.12-.01.02-.03.04-.04.06,0,0-.02.02-.02.03,0,0,.03-.04.01-.02-.03.04-.06.07-.1.11-.03.03-.06.06-.09.08-.03.02.04-.03.01,0,0,0-.01.01-.02.01-.02.02-.05.03-.07.05-.03.02-.07.04-.1.06-.02,0-.04.02-.06.03-.04.02,0,0,0,0-.02,0-.03.01-.05.02-.06.02-.12.04-.18.05-.03,0-.06.01-.09.02-.01,0-.05.01,0,0-.01,0-.03,0-.04,0-.12.01-.25.01-.37,0-.03,0-.06,0-.09,0,0,0-.05,0-.02,0s-.02,0-.03,0c-.06,0-.12-.02-.18-.04-.06-.01-.11-.03-.17-.05-.01,0-.03,0-.04-.01-.02,0-.04-.01,0,0-.03-.01-.06-.03-.09-.04-.12-.06-.28-.03-.34.09-.06.11-.03.28.09.34.25.13.51.19.78.22.25.03.52.02.76-.04.44-.11.85-.42,1.04-.85s.21-.96-.07-1.35c-.14-.21-.34-.35-.58-.44-.2-.07-.42-.1-.63-.11s-.45,0-.66.05c-.25.07-.47.21-.62.43-.07.11-.03.28.09.34.12.07.27.03.34-.09h0Z"/>
      <path class="cls-4" d="M219.94,12.88s-.03-.05-.05-.08c-.03-.05.02.05,0,0,0-.01-.01-.03-.01-.04,0-.03-.02-.06-.02-.09,0-.02,0-.06,0,0,0-.02,0-.04,0-.06,0-.06,0-.12,0-.18,0-.01,0-.03,0-.04,0,.07,0,.03,0,0,0-.03.01-.06.02-.1.02-.09.05-.18.08-.27,0-.02.01-.03.02-.05.01-.04-.03.07-.01.03,0,0,0-.01,0-.02,0-.02.01-.03.02-.05.02-.05.05-.09.07-.14.02-.03.04-.06.06-.09.01-.02.06-.08,0,0,.02-.02.03-.04.05-.06.03-.04.07-.07.1-.1.02-.02.09-.06.02-.02.02-.02.05-.03.07-.05.02-.01.05-.03.07-.04.01,0,.02-.01.04-.02-.06.04-.03.01,0,0s.04-.01.07-.02c.01,0,.03,0,.04,0,0,0,.02,0,.03,0,.03,0,.02,0-.02,0,.05,0,.1,0,.15,0,.01,0,.02,0,.04,0-.08,0-.04,0-.02,0,.03,0,.06.01.09.02.03,0,.05.02.08.03.05.02-.06-.03,0,0,.01,0,.03.01.04.02.03.01.05.03.07.04.01,0,.02.02.04.02.02.02.02.01-.02-.01,0,0,.02.01.02.02.02.02.04.04.06.06,0,0,.02.02.03.03h0s.01.03-.01,0c0,0,.05.07.05.08,0,.01.02.03.02.04,0,.01.01.02.02.03-.01-.03-.01-.03,0,0,.01.04.02.07.03.11,0,.02,0,.04.01.05v.02s0,.02,0-.01c.01.02,0,.08,0,.11,0,.04,0,.08,0,.12,0,.02,0,.03,0,.05,0,.06.01-.06,0,0,0,.03,0,.06-.02.09-.01.05-.02.1-.04.14,0,.03-.02.06-.03.1,0,0,0,0,0,.01-.02.06.02-.04,0,.01-.02.04-.03.07-.05.11s-.06.07-.07.11l.02-.02s-.01.02-.02.03c-.01.01-.02.03-.03.04-.03.03-.05.05-.08.08-.01,0-.03.02-.04.03l.03-.02s-.02.01-.02.02c-.02.01-.04.03-.06.04-.02.01-.05.03-.07.04-.01,0-.02.01-.04.02-.04.02.06-.02,0,0-.05.02-.1.03-.15.05-.02,0-.04,0-.07.01s-.06,0,.03,0c-.01,0-.02,0-.03,0-.05,0-.09,0-.14,0-.02,0-.04,0-.06,0,0,0-.02,0-.03,0-.06,0,.06,0,.01,0-.06,0-.11-.02-.16-.04-.01,0-.02-.01-.04-.01.07.02.02,0,0,0-.03-.01-.06-.03-.08-.05-.04-.03.04.04,0,0-.01-.01-.03-.03-.04-.04-.01-.01-.02-.02-.03-.03-.02-.02-.01-.02,0,.01,0,0-.01-.02-.02-.03-.07-.11-.22-.17-.34-.09-.11.07-.17.23-.09.34.09.14.21.26.36.33.13.06.27.09.42.11s.3,0,.44-.03c.28-.06.54-.23.71-.45.15-.2.26-.43.31-.68.07-.35.05-.73-.16-1.03-.19-.27-.48-.43-.81-.47-.52-.06-.95.29-1.18.72-.07.13-.12.26-.16.4-.08.28-.12.59-.03.87.03.08.06.16.11.23.07.11.23.16.34.09.11-.07.16-.22.09-.34Z"/>
      <path class="cls-4" d="M222.97,10.01c-.28.17-.5.43-.63.73s-.27.76-.05,1.06c.1.14.25.23.42.28.06.02.13.04.19.05.03,0,.07.02.1.03.05.01.07.02.09.03.08.04.11.06.16.11.01.01.03.03.04.05,0-.01-.02-.03,0,.01,0,.01.02.03.03.04.03.05,0-.03.02.03,0,.03.02.07.02.1,0-.04,0,.08,0,.05,0-.02-.02.07-.02.07,0,.02-.04.07-.06.1-.03.04.04-.04-.02.02-.02.02-.03.04-.05.05-.03.04-.07.07-.1.1-.06.06-.13.12-.19.16-.07.05-.15.1-.23.14-.03.02-.09.04-.1.05-.02,0-.08.03-.12.04-.13.04-.21.17-.17.31.03.13.18.22.31.17.34-.11.64-.3.9-.55.13-.13.26-.28.32-.47s.05-.37-.02-.54c-.14-.36-.47-.53-.83-.62-.07-.02-.13-.03-.19-.06.04.02-.02-.02-.04-.02-.04-.02-.01,0,0,0-.01,0-.05-.05-.02-.01,0-.01-.02-.03-.02-.04.02.03,0-.02,0-.03,0,0,0-.06,0-.03,0-.02,0-.04,0-.06,0-.08,0-.12.03-.21.01-.04.02-.09.04-.13,0-.02.01-.04.02-.06s0,0,.01-.02c.04-.08.08-.15.13-.23.08-.11.2-.23.32-.3.11-.07.16-.22.09-.34s-.23-.16-.34-.09h0Z"/>
      <path class="cls-4" d="M224.85,13.36c-.01-.09-.03-.17-.04-.26,0-.04-.01-.08-.02-.12,0,0-.01-.08,0-.05s0-.03,0-.04c-.02-.17-.04-.34-.06-.51-.03-.34-.05-.68-.05-1.02,0-.13-.11-.26-.25-.25s-.25.11-.25.25c.01.71.08,1.42.2,2.13.02.13.19.21.31.17.14-.05.2-.17.17-.31h0Z"/>
      <path class="cls-4" d="M223.98,10.05s0,.02,0,.03v-.07s0,.03,0,.04v-.07s0,.03,0,.04l.03-.06s-.01.02-.02.03l.04-.05s0,0,0,0c-.02.02-.04.05-.05.08-.02.03-.02.06-.02.1,0,.03,0,.07.02.1.01.03.03.06.05.08l.05.04s.08.03.13.03h.07s.08-.04.11-.07c.02-.03.05-.05.06-.08.01-.02.02-.05.03-.08,0,0,0-.01,0-.02,0-.03.01-.07.01-.11s0-.07-.02-.11c0-.03-.02-.06-.04-.09-.02-.03-.04-.05-.07-.06-.03-.02-.06-.03-.09-.03-.03,0-.07,0-.1,0l-.06.03s-.07.05-.09.09l-.03.06s-.01.09,0,.13h0Z"/>
      <path class="cls-4" d="M225.26,10.85s0-.01.01-.02l-.04.05c.11-.14.23-.26.36-.36l-.05.04c.13-.1.27-.19.43-.25l-.06.03c.14-.06.29-.1.44-.12h-.07c.07,0,.14,0,.21,0,.13,0,.26-.11.25-.25s-.11-.25-.25-.25c-.51,0-.99.22-1.37.55-.11.1-.21.22-.3.34-.04.05-.04.14-.03.19.02.06.06.12.11.15.06.03.13.05.19.03l.06-.03s.07-.05.09-.09h0Z"/>
      <path class="cls-4" d="M225.61,8.82l-.12,2.15-.06,1.06c-.02.35-.05.71,0,1.06.02.13.1.25.25.25.12,0,.27-.12.25-.25-.04-.35-.01-.69,0-1.04l.06-1.09.12-2.15c0-.13-.12-.25-.25-.25-.14,0-.24.11-.25.25h0Z"/>
      <path class="cls-4" d="M227.66,13.19s0-.03,0,0c0-.01,0-.02,0-.03,0-.02,0-.05,0-.07,0-.05-.01-.1-.02-.15,0-.09-.02-.18-.02-.28-.01-.2-.02-.39-.02-.59s0-.38.02-.58c0-.1.02-.19.03-.29,0-.05.01-.09.02-.14,0-.02,0-.07,0-.02,0-.03,0-.06.01-.09.01-.07.01-.13-.03-.19-.03-.05-.09-.1-.15-.11-.12-.03-.29.04-.31.17-.12.83-.12,1.66,0,2.5,0,.06.07.12.11.15.05.03.13.04.19.03.14-.05.19-.17.17-.31h0Z"/>
      <path class="cls-4" d="M227.92,11.07c.1.68.25,1.36.47,2.02.03.1.13.19.24.18s.2-.08.24-.18c.14-.39.22-.8.3-1.2.04-.2.08-.41.12-.61.02-.1.04-.21.07-.31.01-.05.02-.1.04-.15,0-.02.01-.04.02-.06,0-.01,0-.03.01-.04,0,.04-.03.07-.07.09l-.13.03h-.04c.12.04.28-.06.31-.18.03-.14-.04-.26-.17-.31-.1-.04-.22,0-.29.08-.06.06-.09.14-.11.22-.03.11-.05.22-.08.33-.05.22-.09.44-.13.66-.08.45-.17.89-.32,1.32h.48c-.22-.66-.37-1.33-.47-2.02-.02-.13-.19-.21-.31-.17-.14.05-.19.17-.17.31h0Z"/>
      <path class="cls-4" d="M230.11,11.95c.47-.03.92-.26,1.21-.63.09-.12.16-.25.17-.4,0-.13-.04-.26-.1-.37-.13-.22-.37-.42-.64-.42-.52.01-.75.64-.86,1.06-.12.49-.12,1.03.01,1.52.14.54.51,1.07,1.11,1.12.13,0,.26-.12.25-.25,0-.14-.11-.24-.25-.25-.07,0,.04.01-.03,0-.02,0-.03,0-.05-.01-.02,0-.05-.01-.07-.02.04.02,0,0,0,0-.04-.02-.07-.04-.11-.06.04.03-.03-.02-.03-.02-.02-.02-.04-.04-.06-.05-.11-.11-.19-.27-.24-.42-.03-.09-.05-.18-.07-.27-.02-.1-.03-.18-.04-.27-.02-.2-.01-.4,0-.59,0,0,0-.05,0-.02,0-.03,0-.06.01-.08,0-.05.02-.09.03-.14.02-.1.05-.19.08-.28s.04-.12.08-.2c.02-.04.04-.07.06-.11,0,0,.05-.06.02-.03.02-.02.03-.04.05-.05,0,0,.06-.05.02-.02.01,0,.02-.02.04-.02.05-.03-.04,0,.02,0,.01,0,.03,0,.04,0-.07.01.04.01-.03,0,.02,0,.03,0,.05.01-.04-.02.03.02.03.02-.03-.02.03.03.03.03.03.03.06.06.08.09-.02-.03,0,.01.01.02.01.02.02.04.03.05-.02-.04,0,.01,0,.02.01.04,0-.06,0,.02,0,.07,0-.02,0,.02,0,.01,0,.02-.01.04,0-.02,0-.02,0,0,0,.01-.02.03-.03.04.02-.04-.03.04-.04.04-.03.04-.07.07-.1.1-.06.06-.11.1-.21.15-.04.03-.09.05-.13.07.04-.02-.01,0-.02,0-.03.01-.05.02-.08.03-.05.01-.09.03-.14.04-.02,0-.03,0-.05,0,.05,0-.05,0-.06,0-.13,0-.26.11-.25.25,0,.13.11.26.25.25h0Z"/>
      <path class="cls-4" d="M227.28,9.5s0,0,0,0l.06-.03s0,0,0,0h.07s0,0,0,0h.07s0,0,0,0l.06.03s0,0,0,0l.05.04s0,0,0,0l.04.05s0,0,0-.01l.03.06s0,0,0-.01v.07s0,0,0-.01v.07s0,0,0,0l-.03.06h0s.03-.06.03-.1c0-.03,0-.07,0-.1,0-.03-.02-.06-.04-.09-.02-.03-.04-.05-.07-.06l-.06-.03s-.09-.01-.13,0l-.06.03s-.07.05-.09.09c-.03.06-.03.07-.04.14,0,.03,0,.06,0,.08,0,0,0,0,0,0l.03.06s0,0,0,0c.01.02.03.04.05.06.03.04.08.06.13.08.01,0,.02,0,.04,0,.01,0,.02,0,.04,0,.02,0,.05,0,.07,0,.02,0,.05-.02.07-.03.03-.02.05-.04.07-.06.02-.02.04-.05.04-.09.01-.03.01-.07,0-.1,0-.03-.01-.06-.03-.09l-.04-.05s-.07-.05-.11-.06h-.07s-.09,0-.13.03h0Z"/>
    </g>
  </g>
</svg>