<svg xmlns="http://www.w3.org/2000/svg" viewBox="0 0 277.77 153.18">
  <defs>
    <style>
      .cls-1 {
        fill: #808285;
      }

      .cls-2 {
        fill: #231f20;
      }

      .cls-3 {
        fill: #ed1c24;
      }
    </style>
  </defs>
  <title>30-60-90-on-coordinate-plane</title>
  <g id="Layer_2" data-name="Layer 2">
    <g id="Layer_1-2" data-name="Layer 1">
      <g>
        <path class="cls-1" d="M119.11,24.17l5-7.53h-1.72a40.65,40.65,0,0,0,6.67,7.61c1,.85,2.38-.56,1.42-1.42a38.32,38.32,0,0,1-6.37-7.2,1,1,0,0,0-1.72,0l-5,7.53c-.71,1.08,1,2.08,1.73,1Z" transform="translate(-0.02)"/>
        <path class="cls-1" d="M115.19,145.37l3.25,4.86c.83,1.24,1.94,3.72,3.84,2.71a21,21,0,0,0,2.27-1.63l2.39-1.75c.75-.54,1.5-1.08,2.25-1.64a6.08,6.08,0,0,0,1.8-1.84c.62-1.12-1.1-2.13-1.73-1a4.27,4.27,0,0,1-1.33,1.31l-2,1.46-4,2.91c-.13.09-.26.2-.4.29a1.37,1.37,0,0,1-.2.13q-.23.12.21.06a7.08,7.08,0,0,0-.57-.8l-1.29-1.92-2.78-4.15c-.71-1.07-2.44-.07-1.72,1Z" transform="translate(-0.02)"/>
        <path class="cls-1" d="M122.38,17.44q.47,26.26.31,52.55-.18,26.13-1,52.27-.45,14.74-1.1,29.47c-.06,1.29,1.94,1.29,2,0q1.15-26.25,1.69-52.52t.41-52.28q-.06-14.74-.33-29.49a1,1,0,0,0-2,0Z" transform="translate(-0.02)"/>
      </g>
      <g>
        <path class="cls-1" d="M1.88,100.86a671.24,671.24,0,0,0,71.21.56c11.44-.48,22.82-.63,34.27-.25q25.62.85,51.27,1.2c7.19.09,14.39.11,21.59.15q31.91.21,63.81.51l8.4.08a1,1,0,0,0,0-2q-33.74-.31-67.46-.56c-8,0-16.05-.07-24.08-.16q-24.64-.26-49.27-1.07c-10.49-.36-20.94-.55-31.43-.18-10.93.39-21.84.94-32.78,1Q28,100.3,8.57,99.25q-3.35-.18-6.69-.39c-1.28-.08-1.28,1.92,0,2Z" transform="translate(-0.02)"/>
        <path class="cls-1" d="M244.75,96.54a21.09,21.09,0,0,1,5.15,2.7,20.75,20.75,0,0,1,2.23,1.84c.23.22.79.62.89.87a.28.28,0,0,0,0-.13l-.25.24c-.15.14-.31.26-.47.39-2.48,2-5.6,3.67-6.55,7a1,1,0,0,0,1.93.53,7.87,7.87,0,0,1,3.07-3.84c.71-.55,1.44-1.06,2.14-1.6s1.75-1.17,2-2.09c.35-1.18-.62-2-1.39-2.76a21.84,21.84,0,0,0-2.47-2,23,23,0,0,0-5.79-3c-1.22-.44-1.74,1.49-.54,1.92Z" transform="translate(-0.02)"/>
        <path class="cls-1" d="M10.43,90q-2.72,2-5.24,4.17c-.86.76-1.71,1.54-2.54,2.34A14.76,14.76,0,0,0,.51,98.78a2.14,2.14,0,0,0,0,2.67,4.07,4.07,0,0,0,1.3.77l1.68.79,6.47,3a1,1,0,0,0,1,0l.64-.48a1,1,0,0,0,.35-1.37,1,1,0,0,0-1.36-.36l-.64.48h1L5.35,101.7l-2.79-1.31c-.18-.09-.38-.16-.56-.27s-.09-.05,0,.06,0,0,.05-.06.2-.33.28-.43a6.33,6.33,0,0,1,.44-.46,69.43,69.43,0,0,1,8.67-7.49,1,1,0,0,0,.36-1.37A1,1,0,0,0,10.43,90Z" transform="translate(-0.02)"/>
      </g>
      <path class="cls-2" d="M228.21,86.48l-6.39,0-3.19,0a16.74,16.74,0,0,0-2.92.07A1.94,1.94,0,0,0,214,88a19,19,0,0,0-.33,3.1,22.42,22.42,0,0,0,.65,6.16c.3,1.25,2.23.72,1.93-.53a20.39,20.39,0,0,1-.59-5.16,19.78,19.78,0,0,1,.19-2.56,2.12,2.12,0,0,1,.11-.62c-.08.14-.1.06.17,0a7.09,7.09,0,0,1,1.13,0l10.93.08a1,1,0,0,0,0-2Z" transform="translate(-0.02)"/>
      <g>
        <path class="cls-2" d="M156.25,99.24C158,93.41,158.4,86.73,155,81.39c-.69-1.09-2.42-.09-1.73,1,3.1,4.9,2.64,11,1,16.31-.38,1.23,1.55,1.76,1.93.53Z" transform="translate(-0.02)"/>
        <g>
          <path class="cls-2" d="M164.83,80.58v8.81a.5.5,0,0,0,1,0V80.58a.5.5,0,0,0-1,0Z" transform="translate(-0.02)"/>
          <path class="cls-2" d="M168.46,80.05l.65,7.07c.06.64,1.06.64,1,0l-.65-7.07c-.06-.63-1.06-.64-1,0Z" transform="translate(-0.02)"/>
          <path class="cls-2" d="M162.23,81.37l5-.88c1.64-.29,3.29-.53,4.9-1a.5.5,0,0,0-.27-1c-1.6.42-3.26.66-4.89,1l-5,.89c-.63.11-.36,1.07.27,1Z" transform="translate(-0.02)"/>
          <path class="cls-2" d="M175.14,80q-3,6.66-6.6,13a.5.5,0,0,0,.86.51q3.61-6.34,6.6-13c.26-.59-.6-1.1-.86-.51Z" transform="translate(-0.02)"/>
          <path class="cls-2" d="M177.11,83.39a55,55,0,0,0-2.36,7.48c-.4,1.74-.48,4.25,1.6,4.95a4.44,4.44,0,0,0,4.73-1.8c.74-1,1.51-3,.46-4.12a2.55,2.55,0,0,0-2.31-.47,8.36,8.36,0,0,0-3.49,1.66c-.51.38,0,1.25.51.86a8.6,8.6,0,0,1,2.56-1.39,2.63,2.63,0,0,1,1.83-.09c1,.49.08,2.29-.3,2.87-.75,1.13-2.44,2.07-3.8,1.48-1.63-.69-1-3.15-.64-4.42a60.81,60.81,0,0,1,2.17-6.74c.24-.6-.73-.86-1-.27Z" transform="translate(-0.02)"/>
        </g>
      </g>
      <path class="cls-3" d="M125.51,100.53q19.59-11.75,39.64-22.71,20.79-11.37,42-21.87,11.38-5.62,22.89-11l-2.26-1.3c-.32,7.84-.5,15.69-.38,23.54.08,6,.37,12,.2,18.09q-.19,6.83-.88,13.62l1.5-1.5q-11.92,0-23.85,0-9.24.07-18.47.2l-22.19.3c-3.77,0-7.54.08-11.31.06-8.47,0-16.93-.13-25.4-.24l-2.29,0c-1.93,0-1.93,3,0,3q12.34.15,24.68.25c4.23,0,8.45,0,12.67,0l20.86-.28q9.64-.14,19.28-.22,11.25-.09,22.48-.06h3.54a1.54,1.54,0,0,0,1.5-1.5,186.79,186.79,0,0,0,.89-23.53c-.14-5.67-.29-11.32-.23-17q.09-7.37.4-14.73a1.51,1.51,0,0,0-2.26-1.29q-20.79,9.71-41.19,20.25-21,10.84-41.56,22.56-11,6.25-21.82,12.76A1.5,1.5,0,0,0,125.51,100.53Z" transform="translate(-0.02)"/>
      <path class="cls-2" d="M228.36,96.28a34.06,34.06,0,0,0-1.1,12.94,1,1,0,0,0,1,1,1,1,0,0,0,1-1,32.5,32.5,0,0,1,1-12.41,1,1,0,0,0-1.93-.53Z" transform="translate(-0.02)"/>
      <g>
        <path class="cls-2" d="M206.25,126.63c.79-.55,1.56-1.16,2.38-1.67s1.32.1,1.75.88l2.75,5a.51.51,0,0,0,.92-.12,32,32,0,0,0,.51-8.46c-.08-1.44-.21-2.88-.36-4.31-.07-.68-.15-1.36-.21-2-.05-.47.16-.57.58-.59l1.19,0a56.31,56.31,0,0,0,8.3-.88c1.4-.25,2.77-.61,4.15-.92.4-.09.78-.15.91.3a1.61,1.61,0,0,1,0,.69,12.37,12.37,0,0,1-.46,2.09c-.2.7-.42,1.39-.56,2.11a3.44,3.44,0,0,0-.08,1.8c.47,1.18,2,0,1.24-.63-.5-.39-1.21.31-.71.71l.08.06-.15-.35v.09l.15-.35.32,0v-.21a2.51,2.51,0,0,0,.08-.62c.05-.32.13-.63.21-1,.16-.63.36-1.26.53-1.89.25-.93.67-2.27.16-3.19-.61-1.1-1.94-.6-2.89-.36-1.38.34-2.78.62-4.18.85s-2.82.4-4.24.52-2.82.11-4.23.19a1.54,1.54,0,0,0-1.17.45c-.41.48-.23,1.17-.17,1.73.15,1.4.3,2.79.41,4.19a33.61,33.61,0,0,1-.38,9.76l.92-.12-1.76-3.2a17.76,17.76,0,0,0-1.56-2.72,1.71,1.71,0,0,0-2.07-.59,6.81,6.81,0,0,0-1.25.8l-1.61,1.13c-.52.36,0,1.23.5.86Z" transform="translate(-0.02)"/>
        <path class="cls-2" d="M219,119.48a20.53,20.53,0,0,1,3-.23c.5,0,1.59,0,1.76.64s-1.18,1.15-1.64,1.34l-3.06,1.24c-.48.19-.48,1,.13,1a5.6,5.6,0,0,1,3.59.81,2.23,2.23,0,0,1,.79,2.77,3.39,3.39,0,0,1-2.32,1.33c-1.21.28-2.47.4-3.69.58-.64.09-.37,1.05.26,1a26,26,0,0,0,4.39-.76,3.56,3.56,0,0,0,2.49-2.23,3.35,3.35,0,0,0-1.26-3.4,6.41,6.41,0,0,0-4.25-1.06l.14,1c1.3-.53,2.65-1,3.93-1.6.85-.39,1.74-1.15,1.47-2.2s-1.25-1.25-2.08-1.34a15,15,0,0,0-4,.23c-.63.1-.36,1.06.27,1Z" transform="translate(-0.02)"/>
        <path class="cls-2" d="M235.13,115.77a221.34,221.34,0,0,0-10.89,21.31c-.26.58.6,1.09.87.51A217.94,217.94,0,0,1,236,116.28a.5.5,0,0,0-.87-.51Z" transform="translate(-0.02)"/>
        <path class="cls-2" d="M235,125.19c1.44-.69,3.58-1.66,4.95-.31a3.53,3.53,0,0,1,.3,4.19,10.15,10.15,0,0,1-3.61,3.46,21.72,21.72,0,0,1-4.81,2.18c-.5.17-.46,1,.13,1l7.24-.75c1.67-.18,4.1-.75,5.36.73.42.49,1.12-.22.71-.71-1.31-1.54-3.54-1.28-5.34-1.1l-8,.83.14,1a21.89,21.89,0,0,0,5.84-2.82,8.86,8.86,0,0,0,3.67-4.48,4.2,4.2,0,0,0-1.3-4.5c-1.77-1.33-4.05-.4-5.81.45-.58.28-.08,1.14.5.86Z" transform="translate(-0.02)"/>
      </g>
      <path class="cls-2" d="M118.65,41a37,37,0,0,1,10.14-.45,1,1,0,0,0,0-2,39.35,39.35,0,0,0-10.67.52,1,1,0,0,0-.7,1.23,1,1,0,0,0,1.23.7Z" transform="translate(-0.02)"/>
      <g>
        <path class="cls-2" d="M98.35,32.41A44.78,44.78,0,0,0,98,39.06q0,.81.06,1.62A5.4,5.4,0,0,0,98.19,42c.24.71,1.34.89,1.54.06.16-.63-.81-.9-1-.27.28,0,.4-.09.34-.27v-.19c0-.22,0-.45,0-.67,0-.38,0-.76,0-1.14,0-.8,0-1.59,0-2.38a44.26,44.26,0,0,1,.36-4.75c.08-.64-.92-.63-1,0Z" transform="translate(-0.02)"/>
        <path class="cls-2" d="M107.1,31.32q-2.61,5.11-5,10.34-1.17,2.6-2.28,5.21c-.25.57-.79,1.44-.22,2a.78.78,0,0,0,1.22-.16.5.5,0,0,0-.86-.51l.41-.07a2.87,2.87,0,0,1,.15-.37c.08-.2.17-.4.25-.61s.29-.66.43-1l.87-2c.62-1.4,1.26-2.8,1.9-4.19q1.92-4.11,4-8.15c.29-.57-.57-1.08-.87-.5Z" transform="translate(-0.02)"/>
        <path class="cls-2" d="M108.72,37.84a1.6,1.6,0,0,1,2.43-.12,2.83,2.83,0,0,1,0,3.4,8.13,8.13,0,0,1-2.57,2.24,18.38,18.38,0,0,0-2.9,2.11.51.51,0,0,0,.35.86l9.38.49c.64,0,.64-1,0-1L106,45.33l.36.85c1.62-1.57,3.92-2.33,5.33-4.14a4.38,4.38,0,0,0,1-3.26,2.86,2.86,0,0,0-1.87-2.41,2.49,2.49,0,0,0-3,1c-.33.55.53,1,.87.5Z" transform="translate(-0.02)"/>
      </g>
      <g>
        <path class="cls-2" d="M240.67,18.32c-1.76.83-2.56,2.77-3.26,4.46a26.86,26.86,0,0,0-1.88,6.73,9.14,9.14,0,0,0,1,6,5.84,5.84,0,0,0,4.21,2.87c.63.08.63-.92,0-1a5,5,0,0,1-3.58-2.77,9.11,9.11,0,0,1-.54-5.74,29.48,29.48,0,0,1,1.62-5.53c.62-1.55,1.33-3.43,2.94-4.19.58-.27.07-1.14-.51-.86Z" transform="translate(-0.02)"/>
        <path class="cls-2" d="M242.42,25.21a6.13,6.13,0,0,1,1-.63c.24-.1,1-.47,1.29-.36s.29,1.05.34,1.26l.35,1.49c.13.58.93.4,1-.13l.44-5.06a6,6,0,0,1,.35-2.28c.35-.63,1.46-.56,2.08-.68a18.08,18.08,0,0,0,4.31-1.45c.11-.06.34-.07.26-.21,0,.07-.15.55-.16.61l-.32,1.13-.69,2.49a.5.5,0,0,0,1,.27l.89-3.17c.16-.6.6-1.52.08-2.07s-1.7.18-2.31.44a17.79,17.79,0,0,1-2.85.9,6.78,6.78,0,0,0-2.64.68,2.63,2.63,0,0,0-.83,1.88c-.24,2.16-.38,4.35-.57,6.52l1-.13-.5-2.18c-.11-.47-.15-1.06-.66-1.26a2.54,2.54,0,0,0-1.6.18,6.07,6.07,0,0,0-1.73.9c-.51.38,0,1.25.51.86Z" transform="translate(-0.02)"/>
        <path class="cls-2" d="M249,21c.44-.2,1.55-.62,1.62.19s-.93,1.26-1.55,1.55a.5.5,0,0,0-.23.56c.11.59.71.7,1.22.72h.31a.58.58,0,0,1,.17,0s.09.07,0,0,0,0,0,.06a.53.53,0,0,1,.06.21.87.87,0,0,1-.06.43.85.85,0,0,1-.36.34,3.22,3.22,0,0,1-1.66.18c-.64,0-.64,1,0,1A4.13,4.13,0,0,0,250.7,26a1.72,1.72,0,0,0,1-1.47,1.4,1.4,0,0,0-.7-1.38,2.13,2.13,0,0,0-.87-.15h-.29l-.11,0h0c-.07-.05-.05,0,.05.06s0,0,0,0l-.23.56a4.17,4.17,0,0,0,1.55-1,2,2,0,0,0,.46-1.72,1.49,1.49,0,0,0-1.27-1.12,3.35,3.35,0,0,0-1.81.41.49.49,0,0,0-.18.68A.51.51,0,0,0,249,21Z" transform="translate(-0.02)"/>
        <path class="cls-2" d="M244.76,30l10.71-3a.5.5,0,0,0-.27-1l-10.71,3a.5.5,0,0,0,.27,1Z" transform="translate(-0.02)"/>
        <path class="cls-2" d="M248.41,31.58c.7-.25,2.09-.75,2.5.24.17.42-.29.8-.56,1.06a7.47,7.47,0,0,1-1.17.93,8,8,0,0,1-1.33.7c-.45.17-1.07.23-1.31.71a.85.85,0,0,0,.6,1.13,4.68,4.68,0,0,0,1.67.14,17.47,17.47,0,0,0,4-.5c.62-.15.36-1.11-.27-1a16.65,16.65,0,0,1-3.52.46,5.78,5.78,0,0,1-1.56-.08s-.08,0-.07,0-.15.35,0,.36a1.6,1.6,0,0,0,.31-.1c.26-.09.52-.19.77-.3A8.74,8.74,0,0,0,251,33.62a2.71,2.71,0,0,0,.89-1.28,1.6,1.6,0,0,0-.4-1.41c-.88-1-2.27-.7-3.37-.31-.6.21-.34,1.18.27,1Z" transform="translate(-0.02)"/>
        <path class="cls-2" d="M260.39,29.38a11.9,11.9,0,0,1-2.47,5.8.52.52,0,0,0,0,.71.51.51,0,0,0,.71,0,13.21,13.21,0,0,0,2.76-6.51c0-.27-.25-.5-.5-.5a.51.51,0,0,0-.5.5Z" transform="translate(-0.02)"/>
        <path class="cls-2" d="M265.77,19.92a12.65,12.65,0,0,0,.23,4.42.5.5,0,0,0,.61.35.52.52,0,0,0,.35-.62,11.81,11.81,0,0,1-.19-4.15.5.5,0,0,0-.5-.5.51.51,0,0,0-.5.5Z" transform="translate(-0.02)"/>
        <path class="cls-2" d="M264.6,28.61a38.11,38.11,0,0,1,7.31-1.73.52.52,0,0,0,.5-.5c0-.24-.24-.54-.5-.5a39.28,39.28,0,0,0-7.57,1.77c-.61.21-.35,1.17.26,1Z" transform="translate(-0.02)"/>
        <path class="cls-2" d="M267.11,30.43c.68-.12,1.62-.3,2.15.29s-.11,1.21-.57,1.55c-1.11.8-2.55.95-3.68,1.72a.5.5,0,0,0,.25.93l6.84-.14c.64,0,.64-1,0-1l-6.84.14.26.93c1.41-1,3.35-1,4.45-2.45a1.78,1.78,0,0,0-.15-2.52,3.43,3.43,0,0,0-3-.42c-.63.12-.36,1.08.27,1Z" transform="translate(-0.02)"/>
        <path class="cls-2" d="M274,17.59a17.48,17.48,0,0,1,2.83,8.93,17.74,17.74,0,0,1-.45,4.65,17.26,17.26,0,0,1-.7,2.25c-.14.36-.29.71-.46,1.06-.05.12-.57,1.24-.8.83a.5.5,0,0,0-.87.5,1.19,1.19,0,0,0,1.83.25,6,6,0,0,0,1.27-2.37,17.87,17.87,0,0,0,1.16-5.6,18.36,18.36,0,0,0-2.95-11c-.35-.54-1.22,0-.86.5Z" transform="translate(-0.02)"/>
      </g>
      <path class="cls-2" d="M227.12,40.87c.26-.1.32-.13.18-.1l.39-.05h-.12l.4.05c-.22-.05.21.12.27.17a.52.52,0,0,1,.18.18c.09.13.1.14.05.05l-.54,2c.3-.21.59-.41.9-.59l.2-.1c.28-.15-.32.1,0,0a2.3,2.3,0,0,1,.5-.13l-.4.05a2.91,2.91,0,0,1,.59,0l-.4-.05.22,0c.06,0,.27.1,0,0s0,0,0,0l.09,0-.16-.12a.68.68,0,0,0,.12.12c.13.11-.23-.31-.08-.08s.06.1,0,0-.06-.13,0,0,0,.17.05.26l-.05-.4a3.72,3.72,0,0,1,0,.58l.05-.39c0,.13-.05.27-.08.4a1.27,1.27,0,0,0-.06.18c.05-.31.11-.25,0-.09s-.14.24-.22.36.24-.28.08-.09l-.16.16a.8.8,0,0,1-.13.13c-.21.19.06-.07.1-.06s-.33.21-.38.24-.27.12,0,0,0,0,0,0a2.16,2.16,0,0,1-.44.1l.4,0a3.64,3.64,0,0,1-.66,0l.4,0a2.59,2.59,0,0,1-.4-.09l-.17-.05c-.27-.08.33.16.08,0a2.43,2.43,0,0,1-.35-.2c-.23-.15.09,0,.1.08s-.15-.13-.17-.15-.16-.18-.25-.27c.27.26.14.2.06.07l-.11-.19c0-.06-.12-.27,0,0s0,0,0,0a3,3,0,0,1-.09-.43l0,.4a2.84,2.84,0,0,1,0-.65l-.05.4a2.17,2.17,0,0,1,.07-.35l.06-.21c.06-.19-.05.14-.07.16a1.23,1.23,0,0,0,.17-.32s.12-.16.12-.19-.25.31-.08.11a3.19,3.19,0,0,1,.26-.26c.11-.1.19-.07-.11.08l.15-.1.16-.09c.21-.12-.32.11-.12,0a2.25,2.25,0,0,1,.51-.13l-.4,0a2.55,2.55,0,0,1,.48,0l-.4-.06.19,0s.26.1,0,0,.1.07.09.07-.3-.25-.17-.12l.11.1s.14.18,0,0-.05-.06,0,0a1.51,1.51,0,0,1,.11.22c.12.21-.1-.3-.06-.16s0,.08,0,.12a3.27,3.27,0,0,1,.14.62l-.06-.4a5.14,5.14,0,0,1,0,1.3l.05-.4c0,.16-.05.31-.08.46s-.05.17-.07.24-.19.29,0-.05a1,1,0,0,0-.1.18c-.19.31.2-.21,0,0s.33-.21.11-.08-.07,0,.19-.08a.61.61,0,0,1-.13,0l.4-.05h-.22l.4.05-.14,0c.24.11.3.13.16.06s.23.24.07,0,.12.22,0,0-.1-.16-.14-.24-.12-.38,0,.08c0-.08-.05-.15-.07-.22a3.89,3.89,0,0,1-.12-.49l.06.4a2.89,2.89,0,0,1,0-.72l0,.4a1.94,1.94,0,0,1,.07-.33c.07-.24,0,.16-.07.17l.08-.15s-.28.33-.1.16-.13.11-.15.1l.15-.08-.24.1a.58.58,0,0,1,.14,0l-.39,0a1.41,1.41,0,0,1,.29,0l-.39-.05.22,0c.1,0,.09,0,0,0s-.14-.06,0,0l.1.06-.15-.12s.18.16.17.17-.23-.36-.06-.05l.05.07-.05-.12s.05.17.06.21,0,.2.06.3l-.06-.39a4,4,0,0,1,0,1l.05-.4c0,.17-.1.33-.13.5,0-.31.12-.25,0-.09a1.71,1.71,0,0,1-.13.23c-.18.27.23-.23,0,0a1,1,0,0,0-.15.14q.33-.24.15-.12l-.06,0c.27-.1.34-.13.2-.09l-.12,0,.4-.06h-.17l.4.06c-.32-.06.19.11.09,0s-.05,0,.15.13c-.08-.09-.07-.07,0,0s0-.06-.05-.11c-.13-.24.14.36,0,.05a6.49,6.49,0,0,1-.3-1.21l.05.4a6.11,6.11,0,0,1,0-1.54l-.05.4a2.49,2.49,0,0,1,.09-.46c.08-.27,0,.12-.06.12l.11-.2c.12-.21-.2.22-.08.09l.12-.12c.08-.08.07-.07,0,0s-.13.1,0,0c-.08.05-.38.13-.13.08l-.4.05h.12l-.4-.06.11,0a.92.92,0,0,1-.43-.24l-.13-.18c.07.14.06.09-.05-.14,0,.2.11.38.14.58l-.05-.4a4,4,0,0,1,0,.77l.05-.4c0,.11,0,.22-.07.33a1.21,1.21,0,0,0-.08.25c.1-.22.12-.27.07-.17l-.06.12a2.75,2.75,0,0,1-.17.29l2.35-.3s.19.26.09.1a1.86,1.86,0,0,1-.11-.19,1.09,1.09,0,0,1-.08-.15c-.06-.12-.06-.25,0,.09-.06-.25-.15-.49-.19-.74l.05.39a3.22,3.22,0,0,1,0-.76l-.05.4v-.09L228,42.48h.26l-.4,0c.34.07-.27-.16-.07,0s-.35-.24-.06,0q-.24-.33-.12-.15s.05.08.06.11c-.1-.26-.13-.32-.08-.17a.5.5,0,0,1,0,.12l-.05-.4v.19l.05-.4c0,.16-.14.35.06-.06l1.3-.74h-.11l.39.06c-.25,0,.09.05.16.08-.12-.08-.06,0,.17.14l.05.06c.23.31-.07-.22.08.14s0,0,0,0l.05.4a.81.81,0,0,1,0-.22l-.05.4c0-.16.1-.19-.09.15.11-.19-.28.3-.1.13h-2.12l.61.51a1.63,1.63,0,0,0,1.06.44,1.54,1.54,0,0,0,1.06-.44,1.52,1.52,0,0,0,0-2.13l-.61-.5a1.56,1.56,0,0,0-1.06-.44,1.61,1.61,0,0,0-1.06.44,2.27,2.27,0,0,0,1.56,3.82,1.52,1.52,0,0,0,1.29-.74A2.48,2.48,0,0,0,228,39.48a1.8,1.8,0,0,0-.91.33,1.31,1.31,0,0,0-.53.77,5,5,0,0,0,.07,2.07,4.87,4.87,0,0,0,.95,1.8,1.4,1.4,0,0,0,1.26.41,1.5,1.5,0,0,0,1.1-.71,4.3,4.3,0,0,0,.51-3.61,2.14,2.14,0,0,0-3.77-.89,4.64,4.64,0,0,0-.9,3.52,7.19,7.19,0,0,0,.39,1.84,2.87,2.87,0,0,0,1.31,1.7,2.29,2.29,0,0,0,2.2-.07,3.32,3.32,0,0,0,1.17-1.27,4.55,4.55,0,0,0,.26-3.56,3.25,3.25,0,0,0-1.34-1.69,2.71,2.71,0,0,0-2.13-.32,2.82,2.82,0,0,0-2,2.72,4.46,4.46,0,0,0,1.06,3,2.48,2.48,0,0,0,1.89.87,2.42,2.42,0,0,0,2-1.13,4.86,4.86,0,0,0,.71-2.76,4.58,4.58,0,0,0-.73-2.68A3.22,3.22,0,0,0,229,38.67a3.16,3.16,0,0,0-2.06,0,4.1,4.1,0,0,0-2.43,2.13,4.15,4.15,0,0,0-.13,3.38,4.35,4.35,0,0,0,2.46,2.34,4,4,0,0,0,3.31-.2,4.42,4.42,0,0,0,2.14-2.51,3.3,3.3,0,0,0-.76-3.57,3.56,3.56,0,0,0-3.86-.36,7.17,7.17,0,0,0-1.27.77,1.56,1.56,0,0,0-.54,2,1.93,1.93,0,0,0,1.2,1,2.09,2.09,0,0,0,1.55-.18,1.5,1.5,0,1,0-1.51-2.59Z" transform="translate(-0.02)"/>
      <g>
        <path class="cls-2" d="M170.28,57.6q1-2.31,2.17-4.52c.28-.51.67-1.5,1.32-1.65s.86.77.92,1.25c.18,1.61.12,3.28.18,4.9l.19,5.24c0,.64,1,.64,1,0l-.23-6.52c0-1.08-.06-2.17-.12-3.25a3.87,3.87,0,0,0-.47-1.89,1.55,1.55,0,0,0-1.58-.73A2.7,2.7,0,0,0,172,51.84a41.63,41.63,0,0,0-2.69,5.49c-.24.6.72.86,1,.27Z" transform="translate(-0.02)"/>
        <path class="cls-2" d="M172.26,67a15.31,15.31,0,0,1,8-6.41c.61-.2.35-1.17-.27-1a16.4,16.4,0,0,0-8.64,6.86c-.34.55.53,1.06.87.51Z" transform="translate(-0.02)"/>
      </g>
      <path class="cls-1" d="M120.89.23a4.6,4.6,0,0,0-.23,4.06c.41,1.21,1.07,2.8,2.29,3.39s2.44-.29,3.17-1.31a18.83,18.83,0,0,0,2.29-4.49l-1-.27a21.68,21.68,0,0,1-3,7.76A7.78,7.78,0,0,1,121.24,12a22.87,22.87,0,0,1-5.18,1.23c-.64.12-.37,1.08.26,1a23.45,23.45,0,0,0,5.43-1.34,8.75,8.75,0,0,0,3.38-2.74c1.81-2.39,2.6-5.41,3.28-8.28a.5.5,0,0,0-1-.27A19,19,0,0,1,125.83,5c-.48.78-1.38,2.39-2.52,1.75A5.15,5.15,0,0,1,121.62,4a3.65,3.65,0,0,1,.14-3.3c.35-.54-.51-1-.87-.5Z" transform="translate(-0.02)"/>
      <g>
        <path class="cls-1" d="M259.63,98l8,11.36a.48.48,0,0,0,.43.25.78.78,0,0,0,.2-1.52c-.59-.24-.85.73-.26,1l.06-.45.43.25-8-11.37c-.37-.52-1.24,0-.86.51Z" transform="translate(-0.02)"/>
        <path class="cls-1" d="M267.56,96.6l-8.29,11.11.69-.18h0c.13-.62-.83-.89-1-.26a1,1,0,0,0,.49,1.12.53.53,0,0,0,.69-.18l8.28-11.12c.38-.52-.48-1-.86-.5Z" transform="translate(-0.02)"/>
      </g>
    </g>
  </g>
</svg>
