<svg xmlns="http://www.w3.org/2000/svg" viewBox="0 0 272.98 180.81">
  <defs>
    <style>
      .cls-1 {
        fill: #808285;
      }

      .cls-2 {
        fill: #231f20;
      }

      .cls-3 {
        fill: #ed1c24;
      }
    </style>
  </defs>
  <title>45-45-90-on-coordinate-plane</title>
  <g id="Layer_2" data-name="Layer 2">
    <g id="Layer_1-2" data-name="Layer 1">
      <g>
        <path class="cls-1" d="M119.11,25.7l5-9.06h-1.72a47.27,47.27,0,0,0,6.67,9.11c.88.94,2.29-.47,1.42-1.41a45,45,0,0,1-6.37-8.71,1,1,0,0,0-1.72,0l-5,9.06c-.62,1.13,1.1,2.14,1.73,1Z" transform="translate(-0.02)"/>
        <path class="cls-1" d="M115.19,171.52l3.14,5.65c.49.89.93,1.84,1.5,2.68a1.81,1.81,0,0,0,2.3.79,12.14,12.14,0,0,0,2.31-1.93l2.45-2.14c.8-.71,1.61-1.41,2.4-2.12a6.56,6.56,0,0,0,1.7-2.07,1,1,0,0,0-.36-1.37,1,1,0,0,0-1.37.36,5.17,5.17,0,0,1-1.38,1.67c-.67.6-1.36,1.19-2,1.78l-4.13,3.63c-.09.08-.4.28-.41.36s0,.12.31.08l-.06,0c0-.12-.23-.39-.3-.51l-.36-.65-1.33-2.39-2.66-4.78c-.62-1.12-2.35-.11-1.72,1Z" transform="translate(-0.02)"/>
        <path class="cls-1" d="M122.38,17.71q.47,31.6.31,63.22-.18,31.44-1,62.89-.45,17.73-1.1,35.47c0,1.28,2,1.28,2,0q1.15-31.59,1.69-63.2.53-31.45.41-62.9-.06-17.74-.33-35.48a1,1,0,0,0-2,0Z" transform="translate(-0.02)"/>
      </g>
      <g>
        <path class="cls-1" d="M1.88,120.86a671.24,671.24,0,0,0,71.21.56c11.44-.48,22.82-.63,34.27-.25q25.62.85,51.27,1.2c7.19.09,14.39.11,21.59.15q31.91.21,63.81.51l8.4.08a1,1,0,0,0,0-2q-33.74-.31-67.46-.56c-8,0-16.05-.07-24.08-.16q-24.64-.26-49.27-1.07c-10.49-.36-20.94-.55-31.43-.18-10.93.39-21.84.94-32.78,1q-19.42.14-38.84-.91-3.35-.18-6.69-.39c-1.28-.08-1.28,1.92,0,2Z" transform="translate(-0.02)"/>
        <path class="cls-1" d="M244.75,116.54a21.09,21.09,0,0,1,5.15,2.7,20.75,20.75,0,0,1,2.23,1.84c.23.22.79.62.89.87a.28.28,0,0,0,0-.13l-.25.24c-.15.14-.31.26-.47.39-2.48,2-5.6,3.67-6.55,7a1,1,0,0,0,1.93.53,7.87,7.87,0,0,1,3.07-3.84c.71-.55,1.44-1.06,2.14-1.6s1.75-1.17,2-2.09c.35-1.18-.62-2-1.39-2.76a21.84,21.84,0,0,0-2.47-2,23,23,0,0,0-5.79-3c-1.22-.44-1.74,1.49-.54,1.92Z" transform="translate(-0.02)"/>
        <path class="cls-1" d="M10.43,110q-2.72,2-5.24,4.17c-.86.76-1.71,1.54-2.54,2.34a14.76,14.76,0,0,0-2.14,2.26,2.14,2.14,0,0,0,0,2.67,4.07,4.07,0,0,0,1.3.77l1.68.79,6.47,3a1,1,0,0,0,1,0l.64-.48a1,1,0,0,0,.35-1.37,1,1,0,0,0-1.36-.36l-.64.48h1L5.35,121.7l-2.79-1.31c-.18-.09-.38-.16-.56-.27s-.09-.05,0,.06,0,0,.05-.06.2-.33.28-.43a6.33,6.33,0,0,1,.44-.46,69.43,69.43,0,0,1,8.67-7.49,1,1,0,0,0,.36-1.37,1,1,0,0,0-1.36-.36Z" transform="translate(-0.02)"/>
      </g>
      <path class="cls-2" d="M213.67,118.08a34.11,34.11,0,0,0-1.09,13,1,1,0,0,0,2,0,32.55,32.55,0,0,1,1-12.42,1,1,0,0,0-1.93-.53Z" transform="translate(-0.02)"/>
      <path class="cls-2" d="M118.65,41a37,37,0,0,1,10.14-.45,1,1,0,0,0,0-2,39.35,39.35,0,0,0-10.67.52,1,1,0,0,0-.7,1.23,1,1,0,0,0,1.23.7Z" transform="translate(-0.02)"/>
      <path class="cls-1" d="M120.89.23a4.6,4.6,0,0,0-.23,4.06c.41,1.21,1.07,2.8,2.29,3.39s2.44-.29,3.17-1.31a18.83,18.83,0,0,0,2.29-4.49l-1-.27a21.68,21.68,0,0,1-3,7.76A7.78,7.78,0,0,1,121.24,12a22.87,22.87,0,0,1-5.18,1.23c-.64.12-.37,1.08.26,1a23.45,23.45,0,0,0,5.43-1.34,8.75,8.75,0,0,0,3.38-2.74c1.81-2.39,2.6-5.41,3.28-8.28a.5.5,0,0,0-1-.27A19,19,0,0,1,125.83,5c-.48.78-1.38,2.39-2.52,1.75A5.15,5.15,0,0,1,121.62,4a3.65,3.65,0,0,1,.14-3.3c.35-.54-.51-1-.87-.5Z" transform="translate(-0.02)"/>
      <g>
        <path class="cls-1" d="M258.25,118.57l8,11.37a.5.5,0,0,0,.43.24.78.78,0,0,0,.21-1.51c-.6-.25-.86.72-.27,1l.06-.45.43.25-8-11.36c-.37-.52-1.23,0-.86.5Z" transform="translate(-0.02)"/>
        <path class="cls-1" d="M266.18,117.15l-8.29,11.12.69-.18h0c.13-.63-.83-.9-1-.27a1,1,0,0,0,.49,1.12.52.52,0,0,0,.69-.18L267,117.65c.39-.51-.48-1-.86-.5Z" transform="translate(-0.02)"/>
      </g>
      <path class="cls-2" d="M139.07,107.59a8.86,8.86,0,0,1,5.69,4.2,26.1,26.1,0,0,1,1.77,3.55,8,8,0,0,1,.79,4.14,1,1,0,0,0,1,1,1,1,0,0,0,1-1,9.21,9.21,0,0,0-.86-4.67,27,27,0,0,0-2.09-4.21,10.83,10.83,0,0,0-6.77-4.94c-1.25-.26-1.79,1.66-.53,1.93Z" transform="translate(-0.02)"/>
      <g>
        <path class="cls-2" d="M149.92,103.9l1.15,7.75a.5.5,0,1,0,1-.27l-1.16-7.75a.49.49,0,0,0-.61-.34.5.5,0,0,0-.35.61Z" transform="translate(-0.02)"/>
        <path class="cls-2" d="M153.16,102.51a40.19,40.19,0,0,0,1.7,6.75c.21.61,1.18.35,1-.26a40.3,40.3,0,0,1-1.7-6.76.5.5,0,0,0-.62-.34.51.51,0,0,0-.35.61Z" transform="translate(-0.02)"/>
        <path class="cls-2" d="M147,105.87l9.54-5.7a.5.5,0,0,0-.51-.86L146.49,105a.5.5,0,0,0,.51.87Z" transform="translate(-0.02)"/>
        <path class="cls-2" d="M163.2,101q-3.51,6.33-7.33,12.46c-.34.55.52,1,.86.51q3.83-6.14,7.34-12.46a.5.5,0,0,0-.87-.51Z" transform="translate(-0.02)"/>
        <path class="cls-2" d="M165.44,105.64a29.15,29.15,0,0,1-2.53,5.43.51.51,0,0,0,.18.69c1.27.57,2.45-.29,3.57-.81a17.5,17.5,0,0,1,4-1.24c.63-.12.37-1.08-.26-1a17.9,17.9,0,0,0-3.66,1.08c-.55.24-1.08.51-1.61.77a1.94,1.94,0,0,1-1.54.29l.18.69a30.7,30.7,0,0,0,2.63-5.67c.21-.61-.75-.87-1-.27Z" transform="translate(-0.02)"/>
        <path class="cls-2" d="M168.78,104.23,167.2,116c-.09.63.87.9,1,.27l1.58-11.72c.09-.63-.88-.91-1-.27Z" transform="translate(-0.02)"/>
      </g>
      <path class="cls-2" d="M202.37,118.44l-.6-10.31-.73,1q5.57-.76,11.18-1c1.28-.06,1.29-2.06,0-2q-5.88.29-11.71,1.1a1,1,0,0,0-.74,1l.6,10.31c.08,1.27,2.08,1.28,2,0Z" transform="translate(-0.02)"/>
      <path class="cls-2" d="M203.07,47.9c1.5,5.38,6.38,9.16,11.55,10.75,1.23.38,1.76-1.55.53-1.93-4.49-1.39-8.84-4.65-10.15-9.35a1,1,0,0,0-1.93.53Z" transform="translate(-0.02)"/>
      <g>
        <path class="cls-2" d="M190.56,64.09a86.75,86.75,0,0,0-.29,9.12.5.5,0,0,0,1,0,86.75,86.75,0,0,1,.29-9.12c.05-.64-.95-.64-1,0Z" transform="translate(-0.02)"/>
        <path class="cls-2" d="M194.08,63.09l1.22,9.33c.08.63,1.08.63,1,0l-1.22-9.33c-.08-.63-1.08-.64-1,0Z" transform="translate(-0.02)"/>
        <path class="cls-2" d="M188.43,65.62c.41-1.83,2.77-2.58,4.35-3,1.91-.54,3.94-1,5.53-2.24.49-.4-.22-1.11-.71-.7-1.68,1.36-4,1.57-6,2.26-1.67.57-3.71,1.55-4.14,3.44-.14.63.82.9,1,.27Z" transform="translate(-0.02)"/>
        <path class="cls-2" d="M203.52,62.17a53.32,53.32,0,0,1-6.77,14.13c-.36.54.51,1,.87.51a54.35,54.35,0,0,0,6.86-14.38c.19-.61-.78-.88-1-.26Z" transform="translate(-0.02)"/>
        <path class="cls-2" d="M203.11,69.13l-1.26,4.22a.5.5,0,0,0,.61.62,18.3,18.3,0,0,1,7-.84c.64.05.64-.95,0-1a19.31,19.31,0,0,0-7.28.87l.62.62,1.26-4.22a.5.5,0,0,0-1-.27Z" transform="translate(-0.02)"/>
        <path class="cls-2" d="M206.26,69.64l-1.15,10.53c-.07.64.93.63,1,0l1.15-10.53c.07-.63-.93-.63-1,0Z" transform="translate(-0.02)"/>
      </g>
      <path class="cls-3" d="M125.72,120.69q7.77-8.22,15.76-16.23Q150,96,158.71,87.76q9.19-8.64,18.65-17,9.25-8.18,18.77-16.07,9-7.5,18.29-14.75l2.3-1.8-2.56-1.06c.46,10.68-1,21.29-2.06,31.89a298.2,298.2,0,0,0-.9,32.06q.11,9,.22,18.09l1.5-1.5c-12.07-.07-24.13.08-36.19.35-9.5.21-19,.6-28.51.54-7.85-.06-15.71-.23-23.56-.4-1.93,0-1.93,3,0,3,10.61.24,21.23.56,31.84.33,11.4-.24,22.81-.58,34.22-.74q11.1-.15,22.2-.08a1.52,1.52,0,0,0,1.5-1.5c-.13-10.72-.4-21.45-.28-32.17.07-5.35.31-10.69.78-16S216,60.33,216.51,55a133.89,133.89,0,0,0,.65-17.91A1.52,1.52,0,0,0,214.6,36q-9.27,7.22-18.33,14.68-9.48,7.81-18.73,15.91Q168,75,158.8,83.57q-8.84,8.25-17.42,16.76-8,8-15.86,16.21l-1.92,2C122.28,120,124.39,122.1,125.72,120.69Z" transform="translate(-0.02)"/>
      <g>
        <path class="cls-2" d="M205,130.36a37.45,37.45,0,0,1-1.23,13.33h1l-.15-.78c-.12-.64-1.08-.37-1,.26l.14.79a.51.51,0,0,0,1,0,38.3,38.3,0,0,0,1.26-13.6c-.06-.63-1.06-.64-1,0Z" transform="translate(-0.02)"/>
        <path class="cls-2" d="M203.09,152.65l9.9-10.51,4.95-5.26,1.19-1.26a7.56,7.56,0,0,0,1-1.11c.29-.5.2-1.42-.55-1.35s-.65,1.06,0,1c-.19-.34-.29-.4-.32-.16-.08.09-.16.19-.25.28l-.51.54L217.4,136l-2.05,2.17L211,142.79l-8.62,9.15c-.44.47.27,1.18.71.71Z" transform="translate(-0.02)"/>
        <path class="cls-2" d="M209.23,150.82c.75-.34,1.5-.69,2.26-1,.4-.17.65-.25.8.22a8.92,8.92,0,0,1,.2,1l.92,4.85a.51.51,0,0,0,.92.12c1.91-3,1.37-6.72,1.65-10.12.07-.88.09-2,1.1-2.22a23,23,0,0,1,3.11-.4l3.18-.39,1.59-.19c.37,0,1.18-.31,1.36.13a3.64,3.64,0,0,1-.15,1.53l-.24,1.67-.53,3.59c-.09.63.87.91,1,.27l.53-3.59a22.21,22.21,0,0,0,.45-3.23,1.34,1.34,0,0,0-1.35-1.48,31.52,31.52,0,0,0-3.6.42l-3.67.44c-.92.11-2.1.08-2.84.72a3.43,3.43,0,0,0-.87,2.42c-.1,1.06-.12,2.13-.14,3.19-.05,2.32-.14,4.71-1.41,6.73l.92.12-.65-3.39a13.85,13.85,0,0,0-.59-2.79,1.23,1.23,0,0,0-1.48-.79,20.17,20.17,0,0,0-2.94,1.29c-.59.27-.08,1.13.51.87Z" transform="translate(-0.02)"/>
        <path class="cls-2" d="M219.68,146.9a2.79,2.79,0,0,1,2.95.55,2.71,2.71,0,0,1,.47,3.07,4.15,4.15,0,0,1-2.56,1.81,8.93,8.93,0,0,0-3,1.49.5.5,0,0,0,.22.83,33.89,33.89,0,0,0,7.52.73.5.5,0,0,0,0-1,32.65,32.65,0,0,1-7.25-.69l.22.83c1.55-1.35,4-1.22,5.31-2.89a3.68,3.68,0,0,0-1-5.45,3.81,3.81,0,0,0-3.4-.14c-.59.26-.08,1.12.5.86Z" transform="translate(-0.02)"/>
      </g>
      <g>
        <path class="cls-2" d="M94.09,32a53.88,53.88,0,0,0,0,10.16c0,.63,1,.64,1,0a53.88,53.88,0,0,1,0-10.16c.06-.64-.94-.64-1,0Z" transform="translate(-0.02)"/>
        <path class="cls-2" d="M102.63,31.86,97.24,41.92l-2.7,5c-.51.95-1.33,2.41-.13,3.2.54.36,1-.5.5-.86s.22-1.32.38-1.62l1.17-2.18,2.34-4.38,4.69-8.75c.31-.57-.56-1.07-.86-.5Z" transform="translate(-0.02)"/>
        <path class="cls-2" d="M99.57,46.27c.27-.67,1.27-.61,1.75-.27a3.09,3.09,0,0,1,1,2.26c.07.62,1,.65,1,0,0-2.45,0-4.9,0-7.34a2.89,2.89,0,0,1,1.11-2.53A13.37,13.37,0,0,1,107.25,37c1.08-.45,2.18-.85,3.29-1.2.52-.17,1-.32,1.57-.47a5.69,5.69,0,0,1,.9-.24c.29,0,.47-.13.54.22a2.72,2.72,0,0,1-.08.8l-.13,1-.22,1.7-.48,3.66.93-.26-.17-.32c-.3-.57-1.16-.06-.86.51l.17.32c.26.49.87.19.93-.25.29-2.24.6-4.47.87-6.7.09-.68,0-1.53-.78-1.72a2.52,2.52,0,0,0-1.21.15c-.57.15-1.13.31-1.69.48A40.23,40.23,0,0,0,105,36.89a5.64,5.64,0,0,0-2,1.44,3.72,3.72,0,0,0-.74,2.27c-.09,2.55,0,5.11,0,7.66h1c-.13-1.29-.57-2.8-1.89-3.33A2.13,2.13,0,0,0,98.61,46c-.25.6.72.85,1,.27Z" transform="translate(-0.02)"/>
        <path class="cls-2" d="M106.67,38.76a2.24,2.24,0,0,1,2.28.43,2.63,2.63,0,0,1,.83,2.47c-.34,2.09-2.32,3.18-4.25,3.46-.58.08-.42,1,.13,1a30.37,30.37,0,0,1,6.65.86c.63.15.89-.81.27-1a31.11,31.11,0,0,0-6.92-.9l.13,1c2.47-.35,4.83-2,5-4.66a3.5,3.5,0,0,0-1.28-3,3.21,3.21,0,0,0-3.13-.59c-.59.23-.33,1.2.27,1Z" transform="translate(-0.02)"/>
      </g>
      <g>
        <path class="cls-2" d="M158.28,69.39a19.81,19.81,0,0,1,5-8.28h-.71c.71.75.46,1.93.29,2.84-.2,1.14-.41,2.27-.61,3.41l-1.27,7a.52.52,0,0,0,.48.64A1.6,1.6,0,0,0,163,73.89c.19-.62-.77-.88-1-.27a.57.57,0,0,1-.6.43l.49.63,1.44-8c.21-1.17.48-2.35.61-3.54a3.26,3.26,0,0,0-.72-2.7.5.5,0,0,0-.71,0,21,21,0,0,0-5.25,8.71.5.5,0,0,0,1,.27Z" transform="translate(-0.02)"/>
        <path class="cls-2" d="M157.77,77.87a51.45,51.45,0,0,1,9.94-6c.58-.27.08-1.13-.5-.87a52.08,52.08,0,0,0-10,6c-.5.38,0,1.25.51.86Z" transform="translate(-0.02)"/>
      </g>
      <path class="cls-2" d="M213.36,38.36a7.36,7.36,0,0,1,.62-.63l.18-.16c.2-.18-.16.11.05,0l.41-.26.2-.11c.22-.11-.19.05,0,0s.27-.12.36-.09h.09c.11,0,.09,0-.05,0,0,0,.13,0,.14,0l.14.05,0,0a.64.64,0,0,0,.14.08c-.15,0-.15-.13-.08,0l.11.11c.13.13-.12-.21,0,0a1,1,0,0,0,.08.14c0,.07,0,.12,0-.1a2.12,2.12,0,0,0,.1.36c-.07-.19,0-.2,0-.1a.86.86,0,0,1,0,.16v.17c0,.2.05-.25,0-.05a2.5,2.5,0,0,1-.07.26c-.05.19.12-.21,0,0l-.07.15a.6.6,0,0,0-.09.13c.1-.21.09-.12,0,0s-.09.07-.12.11c.12-.16.15-.1.07-.06l-.15.09.12-.06-.11.05-.18,0c-.18,0,.23,0,0,0H215c-.11,0-.08,0,.09,0a1.46,1.46,0,0,0-.3-.07s-.14-.07-.18-.06l.12.05-.11-.06-.11-.06-.1-.07c-.09-.06-.07,0,.05,0s-.2-.17-.23-.21l0,0,0,0-.1-.15a1.31,1.31,0,0,0-.09-.17s.08.24,0,.07l-.06-.19,0-.14c0,.16,0,.18,0,.07v-.34c0-.23-.05.23,0,0l0-.2,0-.13,0-.06c0-.11,0-.09,0,0a1.35,1.35,0,0,1,.21-.39.71.71,0,0,1,.1-.14l-.07.09.09-.1c.08-.09.16-.16.24-.24s-.18.11,0,0l.17-.12s.15-.1.18-.09l-.1,0,.15-.05a.9.9,0,0,1,.22-.06l-.11,0h.15s-.19-.06,0,0l-.1,0c.09.06.09,0,0,0l0,0c.08.08.07.07,0,0s.08.15.11.2.11.16,0,0a1.33,1.33,0,0,1,.1.28,2.59,2.59,0,0,1,.09.4c0,.08.09.19,0,0a.79.79,0,0,1,0,.22c0,.12,0,.25,0,.37s0,.15,0,.22,0,.1,0,0l0,.14c0,.12-.05.24-.08.36a1.72,1.72,0,0,0-.07.21l0,.07c0,.11,0,.1,0,0l-.17.33-.12.19s-.19.25-.09.14-.06.06-.07.07-.1.14-.16.16l.09-.07c.13,0,.14-.05,0,0a.86.86,0,0,1,.32,0c-.19,0,.21.13,0,0l.12.09-.08-.08c.13.06.11.16,0,0l0,0c0-.1,0-.08,0,.07,0,0-.1-.33-.11-.37-.05-.21,0,.2,0,0a1,1,0,0,0,0-.16,7,7,0,0,1,0-.79c0-.12,0-.24,0-.37s0,.26,0,0l0-.19.09-.3,0-.06c0-.1,0-.08,0,.07,0,0,.08-.17.11-.21s.14-.16,0-.05,0,0,0,0,.12-.09.12-.12l-.1.09.1-.07.1-.06c.19-.11-.21,0,0,0h.06c.11,0,.08,0-.09,0a.5.5,0,0,0,.21,0c.12,0-.25-.06-.06,0a2,2,0,0,0,.23.07l-.13-.06.11.06.08,0-.09-.07a1.42,1.42,0,0,0,.13.12c.07.08.06.06,0-.07l.06.1s0,.09.06.1c-.06-.15-.08-.17,0-.07s0,.07,0-.09a1,1,0,0,0,0,.17c0-.18,0-.21,0-.11v.06c0,.18.12-.2,0,0s.12-.1,0,0l-.1.1s0,0,.1-.07l-.1.06c-.12.07-.15,0,0,0a.61.61,0,0,0-.18,0c-.11.05.26,0,.08,0s.16.07,0,0,0-.06,0,0l-.05,0c-.09-.06-.06,0,.07.06l0,0q-.1-.11.06.09l-.05-.09c.07.17.08.2.05.1s0,.11,0,.12a1.34,1.34,0,0,0,0-.2c0,.24,0,.18,0,.07s0,0,0,0,.06-.1.08-.13-.17.2,0,0-.17.09-.07,0,.25-.11-.05,0c.09,0,.24,0-.08,0,.26,0-.18,0,0,0l-.7-.7c.05.16.1.32.14.48s0,.28,0,.13,0,.14,0,.17a3.38,3.38,0,0,1,0,.45c0,.26.05-.21,0,0a1.74,1.74,0,0,1,0,.22,3.19,3.19,0,0,1-.13.44c-.07.21.08-.14,0,0s-.07.16-.12.24l-.12.19c-.14.21.09-.07,0,.07l-.17.18.08-.06c-.1.06-.1.06,0,0a.48.48,0,0,1,.35.07c.11.09.14.11.08.05s0,0,.06.08c-.11-.16,0,.18,0,0a1.46,1.46,0,0,1-.05-.2c0,.15,0,.17,0,0a.37.37,0,0,0,0-.11v-.24a1.85,1.85,0,0,1,0-.23c0-.27,0,.12,0-.08a3.69,3.69,0,0,1,.11-.45.83.83,0,0,1,.08-.22c-.05.11-.05.13,0,.06a.47.47,0,0,1,.05-.1,2,2,0,0,1,.23-.4l.09-.13,0,.05c.07-.06.12-.14.19-.2a1,1,0,0,0-1.42-1.41,4.57,4.57,0,0,0-1.29,3.07,2.74,2.74,0,0,0,.45,1.72,1.55,1.55,0,0,0,2.1.35,4.08,4.08,0,0,0,1.58-3.09,4,4,0,0,0-.16-1.54,1.17,1.17,0,0,0-.87-.94,1.68,1.68,0,0,0-.89,0,2.13,2.13,0,0,0-1.32,2.53,1.81,1.81,0,0,0,1.21,1.21,2.14,2.14,0,0,0,1.55-.15,2.18,2.18,0,0,0,1-1,2.07,2.07,0,0,0,0-1.8,2.46,2.46,0,0,0-2.69-1.3,2.73,2.73,0,0,0-2,2.11,5.61,5.61,0,0,0,0,2.76,2.22,2.22,0,0,0,.94,1.34,1.63,1.63,0,0,0,1.95-.33,4.64,4.64,0,0,0,1.32-3,4.76,4.76,0,0,0-.12-1.55,3.11,3.11,0,0,0-.8-1.52c-1-.93-2.54-.42-3.44.45A3.63,3.63,0,0,0,212,37.49a3.12,3.12,0,0,0,1.6,2.51,3,3,0,0,0,2.92,0,2.75,2.75,0,0,0,1.28-2.38,2.57,2.57,0,0,0-1.31-2.31,3.16,3.16,0,0,0-3.31.49,8.33,8.33,0,0,0-1.2,1.1,1,1,0,0,0,1.42,1.41Z" transform="translate(-0.02)"/>
      <g>
        <path class="cls-2" d="M228.57,16.88a54.35,54.35,0,0,0-4.13,11.31,29.06,29.06,0,0,0-.7,5.87,12.12,12.12,0,0,0,.84,5.34,3.73,3.73,0,0,0,4.31,2.17c.61-.19.35-1.16-.27-1-2.32.74-3.5-2-3.74-3.79a23,23,0,0,1,.19-6.57,48.54,48.54,0,0,1,4.36-12.87c.28-.58-.58-1.09-.86-.5Z" transform="translate(-0.02)"/>
        <path class="cls-2" d="M233.58,18a35.57,35.57,0,0,0,.79,6.34c.14.63,1.1.36,1-.26a33.81,33.81,0,0,1-.76-6.08c0-.64-1-.65-1,0Z" transform="translate(-0.02)"/>
        <path class="cls-2" d="M228.49,29.83c2-1,4-2,5.94-3s4-1.9,6.22-1.6c.63.08.9-.88.27-1a11.28,11.28,0,0,0-6.37,1.4c-2.21,1.06-4.38,2.2-6.56,3.31-.58.29-.07,1.15.5.86Z" transform="translate(-0.02)"/>
        <path class="cls-2" d="M231.14,34.43a3.08,3.08,0,0,1,1.36-.82c.76-.14.85.68,1,1.24l.9,4.08c.1.46.89.49,1,0a88.83,88.83,0,0,0,.93-9.19l-.63.48a12.46,12.46,0,0,0,7.05-.9l-.75-.44a21,21,0,0,1-.75,5.29.5.5,0,0,0,1,.27,22.74,22.74,0,0,0,.78-5.56.51.51,0,0,0-.75-.43,11.13,11.13,0,0,1-6.29.8.51.51,0,0,0-.63.49,89.19,89.19,0,0,1-.89,8.92h1l-.63-2.86a7,7,0,0,0-.72-2.56c-.95-1.33-2.65-.33-3.55.49-.48.43.23,1.14.71.7Z" transform="translate(-0.02)"/>
        <path class="cls-2" d="M236.9,33.1a3.4,3.4,0,0,1,2.19.43,1.46,1.46,0,0,1,.63,1.45c-.13.54-.71.72-1.17.89A2.58,2.58,0,0,0,237,37a.5.5,0,0,0,.3.73,11,11,0,0,0,4.39.78.5.5,0,0,0,0-1,10.2,10.2,0,0,1-4.12-.74l.3.74c.27-.54,1.09-.66,1.63-.9a2,2,0,0,0,1.25-1.8,2.53,2.53,0,0,0-1.14-2.11,4.36,4.36,0,0,0-2.7-.56.51.51,0,0,0-.5.5.5.5,0,0,0,.5.5Z" transform="translate(-0.02)"/>
        <path class="cls-2" d="M248.1,31.27,245,39.72c-.22.61.74.87,1,.27l3.08-8.45c.22-.61-.75-.87-1-.27Z" transform="translate(-0.02)"/>
        <path class="cls-2" d="M257.37,18.6l0,4.06a1.37,1.37,0,0,0,.15.77.68.68,0,0,0,.87.27c.51-.27.48-1.27-.23-1.2a.51.51,0,0,0-.5.5.5.5,0,0,0,.5.5h-.07l-.22-.13c-.14-.12-.15-.53.11-.57h.26a.26.26,0,0,1,.15.16c0-.06,0-.08,0-.05a.74.74,0,0,0,0-.15c0-.2,0-.41,0-.61V21l0-2.38a.5.5,0,0,0-1,0Z" transform="translate(-0.02)"/>
        <path class="cls-2" d="M252.67,28.18a73.12,73.12,0,0,1,13-3c.18,0,.29-.2.35-.35a.79.79,0,0,0-.95-1c-.63.12-.36,1.08.27,1l-.28-.2.35-.35a73.2,73.2,0,0,0-13,3c-.6.2-.34,1.17.27,1Z" transform="translate(-0.02)"/>
        <path class="cls-2" d="M252.38,35.12c1.51-.41,3.56.62,3.52,2.34,0,.66.93.63,1,0l.69-6.15c.06-.52.11-1,.18-1.57a2.08,2.08,0,0,1,.33-1.07c.53-.63,1.72-.39,2.44-.4a16.37,16.37,0,0,0,5.46-.94c.21-.08.43-.15.63-.24s.28-.19.26.09a8.54,8.54,0,0,1-.37,1.49l-.79,3,.92-.12-.19-.29c-.35-.54-1.22,0-.87.5l.19.29a.51.51,0,0,0,.92-.12l1-3.74c.18-.7.58-1.89-.4-2.2-.52-.17-1.05.17-1.52.33s-1,.33-1.51.46a15.34,15.34,0,0,1-3.69.45,5.19,5.19,0,0,0-2.79.38,2.68,2.68,0,0,0-1,2.09c-.31,2.57-.58,5.15-.87,7.72h1c.05-2.38-2.66-3.89-4.79-3.31a.5.5,0,0,0,.27,1Z" transform="translate(-0.02)"/>
        <path class="cls-2" d="M261.18,31.46a1.17,1.17,0,0,1,2,.69A2.36,2.36,0,0,1,262,33.91c-.72.5-1.51.87-2.19,1.43a.5.5,0,0,0,.35.85,12.69,12.69,0,0,1,4.59,1,.5.5,0,0,0,.61-.35.52.52,0,0,0-.35-.62,13.42,13.42,0,0,0-4.85-1l.36.86c.62-.52,1.37-.84,2-1.3a3.89,3.89,0,0,0,1.5-1.85,2,2,0,0,0-.3-2,2.3,2.3,0,0,0-1.46-.78,2,2,0,0,0-1.82.62c-.42.48.28,1.19.71.7Z" transform="translate(-0.02)"/>
        <path class="cls-2" d="M269,16.35a19.69,19.69,0,0,1-2.2,23.83c-.43.47.28,1.18.71.7a20.73,20.73,0,0,0,2.35-25c-.33-.54-1.2,0-.86.51Z" transform="translate(-0.02)"/>
      </g>
    </g>
  </g>
</svg>
