<svg xmlns="http://www.w3.org/2000/svg" viewBox="0 0 390.14 55.32">
  <defs>
    <style>
      .cls-1 {
        fill: #231f20;
      }

      .cls-2 {
        fill: #00a651;
      }

      .cls-3 {
        fill: #ed1c24;
      }
    </style>
  </defs>
  <title>cos-unit-circle-definition</title>
  <g id="Layer_2" data-name="Layer 2">
    <g id="Layer_1-2" data-name="Layer 1">
      <path class="cls-1" d="M80.2,7.55a63,63,0,0,0-5.71,19.37A61.76,61.76,0,0,0,74.05,37a38.78,38.78,0,0,0,1.18,9,13,13,0,0,0,5.07,7.6c1.09.7,2.09-1,1-1.73-4.51-2.95-5-9.48-5.24-14.35a60.36,60.36,0,0,1,5.86-29c.56-1.15-1.17-2.17-1.73-1Z"/>
      <g>
        <path class="cls-2" d="M98,25.47V38.29h2a31.81,31.81,0,0,0-3.37-11.62,28.07,28.07,0,0,0-3.29-5.05c-1.21-1.46-3-2.75-5-2.34-1.76.37-2.85,2-3.46,3.53a13.38,13.38,0,0,0-.75,5.47,15.52,15.52,0,0,0,4.5,10.19,15.67,15.67,0,0,0,11.46,4.42c1.28,0,1.29-2,0-2a13.73,13.73,0,0,1-8.88-2.81,13.5,13.5,0,0,1-4.91-12.87c.24-1.28.65-2.85,1.77-3.66,1.33-.95,2.75.26,3.62,1.25a23.84,23.84,0,0,1,2.87,4.32A29.08,29.08,0,0,1,98,38.29a1,1,0,0,0,2,0V25.47a1,1,0,0,0-2,0Z"/>
        <path class="cls-2" d="M105.81,21.53l.81,18.89,2-.26a26.79,26.79,0,0,1,1.68-16.66,9.16,9.16,0,0,1,2-3.35c.23-.19.63-.51,1-.38.48.19.73,1.19.9,1.61A33.38,33.38,0,0,1,116,40c-.23,1.26,1.69,1.8,1.93.54a35.37,35.37,0,0,0-2-20.08c-.56-1.36-1.32-2.86-3-2.67-1.51.16-2.64,1.48-3.33,2.72a28,28,0,0,0-3.19,9.17,29.24,29.24,0,0,0,.3,11,1,1,0,0,0,2-.27l-.81-18.89c-.06-1.28-2.06-1.28-2,0Z"/>
        <path class="cls-2" d="M123.82,21.79a25.47,25.47,0,0,0-.43,8,25.92,25.92,0,0,0,.69,3.82,4.39,4.39,0,0,0,1.74,2.75c1.73,1.06,4,.06,5-1.58,1.26-2.14.3-4.82-.85-6.77a16.76,16.76,0,0,0-5.38-5.54l-.5,1.86A8.2,8.2,0,0,1,130,28.5a26.18,26.18,0,0,1,2.89,8.12,17.05,17.05,0,0,1,0,8.94,11.24,11.24,0,0,1-3.93,5.38,11.56,11.56,0,0,1-7.38,2.37c-1.28-.05-1.28,1.95,0,2a13.73,13.73,0,0,0,12.93-8.38,17.44,17.44,0,0,0,.57-9.71,29.65,29.65,0,0,0-3.1-9.36,10.4,10.4,0,0,0-7.87-5.55c-1-.09-1.28,1.37-.51,1.87a14.28,14.28,0,0,1,3.88,3.63c1,1.39,2.14,3.22,1.93,5-.13,1-1.33,2.47-2.5,1.83-.66-.37-.82-1.37-1-2a23.23,23.23,0,0,1-.54-3.09,23.65,23.65,0,0,1,.39-7.22c.26-1.25-1.67-1.79-1.93-.53Z"/>
        <path class="cls-2" d="M137.76,17q.41,12.87.23,25.74a1,1,0,0,0,1.87.51L141,41.75a1,1,0,0,0-.36-1.37,1,1,0,0,0-1.37.36l-1.12,1.51,1.86.5q.18-12.87-.23-25.74c0-1.28-2-1.28-2,0Z"/>
        <path class="cls-2" d="M146.22,31.56c2.26-1,4.93-2.51,4.75-5.36a3.45,3.45,0,0,0-1.58-2.84,3.14,3.14,0,0,0-3.42.31c-2.24,1.68-2.8,4.92-2.84,7.54a15.72,15.72,0,0,0,2.11,8.15,6.11,6.11,0,0,0,3,2.74,2.72,2.72,0,0,0,3.45-1c.71-1.08-1-2.09-1.72-1-.3.46-1,.14-1.39-.08a4.57,4.57,0,0,1-1.67-1.79,13.63,13.63,0,0,1-1.76-6,10.66,10.66,0,0,1,1.06-5.86c.35-.59.95-1.4,1.71-1.4.6,0,.94.51,1,1.06.36,2.11-2.21,3.13-3.74,3.8a1,1,0,0,0-.36,1.36,1,1,0,0,0,1.37.36Z"/>
      </g>
      <path class="cls-1" d="M151,10.27a79.17,79.17,0,0,1,9,26c.47,2.93.95,6.08.06,9-.77,2.52-3,4.85-5.78,4.68-1.29-.07-1.28,1.93,0,2A7.62,7.62,0,0,0,161,48c1.68-2.76,1.68-6.18,1.32-9.29a78.58,78.58,0,0,0-4.83-19.21A83.45,83.45,0,0,0,152.7,9.26c-.63-1.13-2.35-.12-1.73,1Z"/>
      <path class="cls-1" d="M175.43,28.3A34.76,34.76,0,0,0,188.07,26a1,1,0,0,0,.7-1.23,1,1,0,0,0-1.23-.7,33.24,33.24,0,0,1-12.11,2.27,1,1,0,0,0,0,2Z"/>
      <path class="cls-1" d="M177,37.59a29.32,29.32,0,0,1,14.19-3.37,1,1,0,0,0,0-2A31.42,31.42,0,0,0,176,35.87c-1.14.6-.13,2.33,1,1.72Z"/>
      <g>
        <path class="cls-3" d="M206.56,15.25,227,10a.5.5,0,0,0-.27-1L206.3,14.29a.5.5,0,0,0,.26,1Z"/>
        <path class="cls-3" d="M219.05,3.85q-1.45,11.49-2.24,23.07a.51.51,0,0,0,.76.43,1.64,1.64,0,0,0,1-1.48.5.5,0,0,0-1,0,.68.68,0,0,1-.46.62l.75.43q.78-11.57,2.24-23.07c.09-.64-.92-.63-1,0Z"/>
        <path class="cls-3" d="M228.46,3.84l-.66,21.07a.5.5,0,0,0,1,.14,36.16,36.16,0,0,1,1.69-4.18c.21-.43,1.79-3.89,2.28-3.63s.31,1.56.33,1.94c0,.76,0,1.51,0,2.27a24.53,24.53,0,0,1-.74,4.82.5.5,0,0,0,1,.26,26.22,26.22,0,0,0,.81-5.92,20,20,0,0,0-.13-2.89,1.71,1.71,0,0,0-1-1.47,1.37,1.37,0,0,0-1.56.75,24.54,24.54,0,0,0-1.39,2.45,36.63,36.63,0,0,0-2.24,5.33l1,.13.66-21.07c0-.64-1-.64-1,0Z"/>
        <path class="cls-3" d="M238,19.91a10.15,10.15,0,0,0,4.73-6.17,3.84,3.84,0,0,0-.7-3.45,2.84,2.84,0,0,0-2.76-.92c-1.18.34-1.67,1.54-2,2.59a24.69,24.69,0,0,0-1.19,4.62,9.12,9.12,0,0,0,1.76,7.15,5.85,5.85,0,0,0,3.22,2,9.8,9.8,0,0,0,5-.69c.61-.2.35-1.17-.26-1-2.18.72-4.55,1.34-6.5-.27A7.07,7.07,0,0,1,237,18.55a13.59,13.59,0,0,1,.48-3.75,20.81,20.81,0,0,1,1.06-3.3c.42-1,1.24-1.53,2.25-1a2.53,2.53,0,0,1,1.08,2.74,9,9,0,0,1-4.32,5.79c-.54.33,0,1.2.51.86Z"/>
        <path class="cls-3" d="M274.3,14.93a16.41,16.41,0,0,0,8.6-.25.5.5,0,0,0-.26-1,15.15,15.15,0,0,1-8.07.25c-.63-.15-.9.82-.27,1Z"/>
        <path class="cls-3" d="M294.22,4.93a16.2,16.2,0,0,0-7.59,10,7.64,7.64,0,0,0,1,6A7.23,7.23,0,0,0,292.31,24a7.55,7.55,0,0,0,6.26-1.76c.48-.43-.23-1.13-.71-.71a6.3,6.3,0,0,1-9.27-1.05c-2.37-3.35-.67-7.6,1.54-10.57a16,16,0,0,1,4.6-4.12.5.5,0,0,0-.51-.86Z"/>
        <path class="cls-3" d="M299.81,16.37A11.33,11.33,0,0,1,302,12.1a3.76,3.76,0,0,1,3.78-1.16,2.72,2.72,0,0,1,1.55,1.63,6.46,6.46,0,0,1,.56,2.62,3.26,3.26,0,0,1-2.74,3c-2,.47-4-.42-5.77-1.19-.59-.26-1.1.61-.51.86,2,.85,4.05,1.75,6.23,1.36a4.47,4.47,0,0,0,3.69-3.13,6,6,0,0,0-.32-3.25,4.63,4.63,0,0,0-1.56-2.4,4.28,4.28,0,0,0-4.71.23c-1.84,1.23-2.63,3.47-3.32,5.47-.21.61.76.87,1,.27Z"/>
        <path class="cls-3" d="M312.46,15.29a3.26,3.26,0,0,1,1.33-3.58,2.9,2.9,0,0,1,3.6,0,4,4,0,0,1,1.37,3.3,3.21,3.21,0,0,1-2.15,2.77,3.86,3.86,0,0,1-4.06-.82c-.45-.46-1.15.25-.71.71,2.36,2.45,7.22,1.42,7.85-2.09a5,5,0,0,0-1.36-4.36,3.86,3.86,0,0,0-4.64-.62,4.31,4.31,0,0,0-2.19,5c.21.61,1.17.35,1-.26Z"/>
        <path class="cls-3" d="M321.47,9.89c.28,4.34.65,8.68,1.08,13,.07.64,1.07.65,1,0a20.72,20.72,0,0,1,1.12-9.17A6.59,6.59,0,0,1,327,10.29a2.67,2.67,0,0,1,3.33.14.5.5,0,0,0,.71-.7,3.52,3.52,0,0,0-3.74-.7,5.78,5.78,0,0,0-3.05,3.17,20.76,20.76,0,0,0-1.66,10.69h1c-.43-4.32-.8-8.66-1.08-13-.05-.64-1.05-.64-1,0Z"/>
        <path class="cls-3" d="M338,1.61l-.36,15.77.5-.5c-1.21,0-2.06-1.35-3-2a2.39,2.39,0,0,0-3.21-.08,3.33,3.33,0,0,0-.59,3.52,4.58,4.58,0,0,0,8,.78c.38-.52-.49-1-.86-.5a3.64,3.64,0,0,1-4.46,1.2c-1.34-.64-2.41-2.21-1.8-3.71a1.25,1.25,0,0,1,1.37-.87,3.09,3.09,0,0,1,1.44.9c.89.81,1.75,1.74,3,1.79a.5.5,0,0,0,.5-.5L339,1.61a.5.5,0,0,0-1,0Z"/>
        <path class="cls-3" d="M343.64,19.27a62.5,62.5,0,0,1-.2-9.77c0-.65-1-.64-1,0a62.5,62.5,0,0,0,.2,9.77c.06.64,1.06.64,1,0Z"/>
        <path class="cls-3" d="M346.16,14.38l0,6.68h1a27.68,27.68,0,0,1,.08-6.17,28.61,28.61,0,0,1,.56-3c.19-.75.34-1.93,1-2.46,1.39-1.13,1.5,3.59,1.51,4.11a23.59,23.59,0,0,1-.8,6.31.5.5,0,0,0,1,.26,24.74,24.74,0,0,0,.83-5.87,25.35,25.35,0,0,0-.15-3,4.81,4.81,0,0,0-.55-2,1.65,1.65,0,0,0-2.91,0,7.3,7.3,0,0,0-.82,2.32,29,29,0,0,0-.57,2.92,27.83,27.83,0,0,0-.14,6.64.5.5,0,0,0,1,0l0-6.68a.5.5,0,0,0-1,0Z"/>
        <path class="cls-3" d="M359.3,12.26,360.51,17l.91-.38a23.28,23.28,0,0,0-3.3-5.39A7.17,7.17,0,0,0,356,9.15a1.89,1.89,0,0,0-2.16.52c-1.34,1.44-1.31,3.88-1,5.69s1.09,4.13,3.07,4.58c2.15.48,3.92-1.54,5-3.09.38-.53-.49-1-.86-.51-.79,1.1-2,2.64-3.51,2.67-1.73,0-2.41-2.13-2.69-3.48-.32-1.5-.43-3.55.47-4.89.41-.61,1-.86,1.59-.33a14.76,14.76,0,0,1,1.71,1.91,22.49,22.49,0,0,1,2.94,4.92c.23.54,1.05.15.91-.38L360.26,12a.5.5,0,0,0-1,.26Z"/>
        <path class="cls-3" d="M359.92,7.7a53.26,53.26,0,0,1,11.14-1.86c.64,0,.64-1,0-1a54.32,54.32,0,0,0-11.4,1.9.5.5,0,0,0,.26,1Z"/>
        <path class="cls-3" d="M365.72.36a113.35,113.35,0,0,0-2.36,20.36c0,.52.66.63.93.25l1.24-1.8c.37-.53-.5-1-.86-.5l-1.24,1.79.93.26A112.06,112.06,0,0,1,366.69.63c.13-.63-.83-.9-1-.27Z"/>
        <path class="cls-3" d="M372.09,14.09a16.63,16.63,0,0,0,6.05-6.27c.67-1.22,1.37-2.69,1-4.11a2.45,2.45,0,0,0-2.68-1.89A3.77,3.77,0,0,0,374,4.33a19.79,19.79,0,0,0-1.32,4.61,10.49,10.49,0,0,0,1.82,8.42c1.77,2.15,4.74,3.47,7.47,2.51.6-.21.34-1.17-.27-1A5.76,5.76,0,0,1,376,17.42a8.32,8.32,0,0,1-2.44-6.48A15.82,15.82,0,0,1,374.15,7a10.58,10.58,0,0,1,1.38-3.39,1.82,1.82,0,0,1,1.19-.84,1.43,1.43,0,0,1,1.38,1c.45,1.19-.3,2.58-.87,3.59a15.65,15.65,0,0,1-5.65,5.83.5.5,0,0,0,.51.86Z"/>
        <path class="cls-3" d="M205.71,46.24c1.15-2.17,2.46-4.53,4.54-5.94a5.66,5.66,0,0,1,7,.52c1.86,1.6,3.26,4.45,2.31,6.9-1.06,2.75-4.87,2.79-7.32,2.58a16.62,16.62,0,0,1-4.71-1.13,15.86,15.86,0,0,1-2.3-1.14c-.36-.22-.71-.44-1.05-.68a2.69,2.69,0,0,1-.33-.26,1,1,0,0,1-.14-.24c0-.18-.07-.17-.2,0,.64,0,.64-1,0-1a.79.79,0,0,0-.81,1,2.13,2.13,0,0,0,1.15,1.48,17,17,0,0,0,4.79,2.29,17.38,17.38,0,0,0,5.26.74,9.19,9.19,0,0,0,4.83-1.13c2.78-1.82,2.48-5.66.89-8.18s-4.77-4.42-7.89-3.56c-3.38.93-5.39,4.36-6.93,7.24-.3.57.56,1.08.87.51Z"/>
        <path class="cls-3" d="M223.62,38.5,224,53h1c-.2-3.75-.37-7.7.93-11.3a11.72,11.72,0,0,1,1.28-2.52c.4-.6,1.42-2.19,2.31-1.73s.89,1.78,1,2.51a22.71,22.71,0,0,1,.38,3.5,23.59,23.59,0,0,1-1,7.65.5.5,0,0,0,1,.26A24.79,24.79,0,0,0,232,43.6a25.25,25.25,0,0,0-.4-3.77,5.41,5.41,0,0,0-1.1-2.9c-1.74-1.73-3.7,1.06-4.48,2.4a16.15,16.15,0,0,0-1.88,6.13A43.49,43.49,0,0,0,224,53c0,.64,1,.65,1,0l-.42-14.53c0-.64-1-.64-1,0Z"/>
        <path class="cls-3" d="M245.1,39.77a40.48,40.48,0,0,0,12.14-1.55.5.5,0,0,0-.26-1,39.45,39.45,0,0,1-11.88,1.52.5.5,0,0,0,0,1Z"/>
        <path class="cls-3" d="M251.58,32.49q-.51,9.9-.63,19.82a.5.5,0,0,0,1,0l0-1.79a.5.5,0,0,0-1,0l0,1.79h1q.13-9.91.63-19.82c0-.64-1-.64-1,0Z"/>
        <path class="cls-3" d="M257.58,31.74q-.54,11-.59,22c0,.55.89.71,1,.14A29.57,29.57,0,0,1,262,43l-.92-.12a13.65,13.65,0,0,1,.74,6.76c-.11.73-.63,1.89,0,2.51a.9.9,0,0,0,1.48-.37.5.5,0,0,0-1-.26,14.85,14.85,0,0,0,.51-2.31A14.23,14.23,0,0,0,263,47a14.59,14.59,0,0,0-.89-4.34.51.51,0,0,0-.92-.12A30.33,30.33,0,0,0,257,53.58l1,.13q0-11,.59-22c0-.64-1-.64-1,0Z"/>
        <path class="cls-3" d="M267.22,46.93a7.44,7.44,0,0,0,3.47-5.22,2,2,0,0,0-1.32-2.18,2.42,2.42,0,0,0-2.56,1.17,8.13,8.13,0,0,0-1.07,3.22,11.07,11.07,0,0,0-.05,3.25,7.39,7.39,0,0,0,3.14,5.25,6,6,0,0,0,6.17.43.5.5,0,0,0-.5-.87c-2.88,1.6-6.37-.49-7.42-3.33a9.14,9.14,0,0,1-.25-5.13,6.15,6.15,0,0,1,.92-2.42c.57-.75,1.87-1,1.95.27a4.49,4.49,0,0,1-.87,2.53,6.94,6.94,0,0,1-2.12,2.16c-.53.36,0,1.22.51.87Z"/>
        <path class="cls-3" d="M286.14,39.49c0,4.11.18,9.41,4.34,11.62a5.55,5.55,0,0,0,5.12.06c1.89-1,2.39-3.1,2.64-5.07a21.84,21.84,0,0,0-.62-8.32.5.5,0,0,0-1,.27,21,21,0,0,1,.73,6.31c-.07,1.8-.18,4.23-1.63,5.51a4.36,4.36,0,0,1-4.53.5,6.75,6.75,0,0,1-3.29-3.84,19.19,19.19,0,0,1-.79-7,.5.5,0,0,0-1,0Z"/>
        <path class="cls-3" d="M303.17,37.88l0,12.7a.5.5,0,0,0,1,0,23.74,23.74,0,0,1,1.93-9.09c.3-.7.68-1.92,1.38-2.33,1.61-.93,1.44,3.62,1.43,4.23a26.73,26.73,0,0,1-.9,6.35.5.5,0,0,0,1,.27,28.94,28.94,0,0,0,.91-5.92c0-1,0-2,0-3a4.91,4.91,0,0,0-.49-2,1.74,1.74,0,0,0-3-.12,10.31,10.31,0,0,0-1.24,2.43,24.41,24.41,0,0,0-1,2.72,25,25,0,0,0-.95,6.5h1l0-12.7a.5.5,0,0,0-1,0Z"/>
        <path class="cls-3" d="M315.41,50.27a60.62,60.62,0,0,0-.33-10.52c-.07-.63-1.07-.64-1,0a60.62,60.62,0,0,1,.33,10.52c0,.64,1,.64,1,0Z"/>
        <path class="cls-3" d="M315.66,38.15a63.87,63.87,0,0,0,9.78.19c.64,0,.64-1,0-1a63.87,63.87,0,0,1-9.78-.19c-.64-.07-.63.93,0,1Z"/>
        <path class="cls-3" d="M321.39,30.73a161.71,161.71,0,0,0,0,18.42c0,.64,1,.65,1,0a161.71,161.71,0,0,1,0-18.42c0-.64-1-.64-1,0Z"/>
        <path class="cls-3" d="M348,37.07c-7.12.28-10.78,13.72-2.8,15.49a10,10,0,0,0,5.92-.7c.59-.25.33-1.22-.27-1-2.62,1.09-6.52,1.55-8.3-1.22s-.67-6.62,1.09-9A5.78,5.78,0,0,1,348,38.07c.64,0,.64-1,0-1Z"/>
        <path class="cls-3" d="M356.38,49.89a35.94,35.94,0,0,1,.26-7.76.52.52,0,0,0-.35-.62.5.5,0,0,0-.62.35,37.17,37.17,0,0,0-.29,8c0,.63,1,.64,1,0Z"/>
        <path class="cls-3" d="M358.8,40.49l1.26,10.16a.5.5,0,0,0,1,0c.15-2.47.2-5,.49-7.42a4.15,4.15,0,0,1,1.16-2.79A1.87,1.87,0,0,1,365,40.2c.49.42,1.2-.29.71-.7a2.65,2.65,0,0,0-2.88-.33,3.88,3.88,0,0,0-2.05,2.55,18.9,18.9,0,0,0-.46,4.11l-.3,4.82h1L359.8,40.49c-.08-.63-1.08-.63-1,0Z"/>
        <path class="cls-3" d="M371,38.16c-2.34,1.72-4.76,4.12-4.49,7.28a4.72,4.72,0,0,0,1.78,3.44,3.55,3.55,0,0,0,3.31.41,3.09,3.09,0,0,0,2.21-2.78.5.5,0,0,0-1,0,2.3,2.3,0,0,1-2.18,2,2.75,2.75,0,0,1-2.84-1.88c-1.23-3.15,1.38-5.89,3.71-7.61.52-.37,0-1.24-.5-.86Z"/>
        <path class="cls-3" d="M377.08,34.73a107.83,107.83,0,0,0-1.53,14.33.5.5,0,0,0,1,.14l.41-1.81c.15-.63-.82-.9-1-.27l-.41,1.81,1,.13A107.43,107.43,0,0,1,378,35c.11-.63-.85-.9-1-.26Z"/>
        <path class="cls-3" d="M380.26,42.77c1.74-1.45,4.53-1.66,5-4.29a2.17,2.17,0,0,0-.85-2.3,2.83,2.83,0,0,0-3.1.37c-4.48,3.24-1.78,10.34,1.06,13.74a8.11,8.11,0,0,0,7.41,3.08c.63-.11.36-1.07-.27-1-4.54.74-7.61-3.67-8.91-7.4-.71-2-1-4.38.12-6.33a3.55,3.55,0,0,1,2.17-1.77c1-.21,1.57.53,1.38,1.47a3.14,3.14,0,0,1-1.86,2.07,14.86,14.86,0,0,0-2.85,1.62c-.5.42.21,1.12.7.71Z"/>
        <path class="cls-3" d="M261.17,6.83A48.89,48.89,0,0,0,274.25,24c.49.41,1.2-.29.7-.7A48.43,48.43,0,0,1,262,6.32c-.27-.58-1.13-.07-.86.51Z"/>
        <path class="cls-3" d="M270.78,6.49,265.05,18l-2.84,5.7c-.31.62-.81,1.3-.37,2,.27.43.9.57,1.14,0s-.6-1.09-.86-.51l.08-.05.39-.05c.17,0,0,.07.15-.24.06-.15.15-.3.22-.45l.62-1.23,1.16-2.34L267,16.27,271.64,7c.29-.57-.58-1.08-.86-.5Z"/>
      </g>
      <path class="cls-1" d="M30.77,4.82c-5.35-2.47-11,.79-15.06,4.2A46.45,46.45,0,0,0,5.32,21.44a48.19,48.19,0,0,0-3.45,7.39A24.72,24.72,0,0,0,0,37.33a9.54,9.54,0,0,0,2.94,6.94A15.07,15.07,0,0,0,9.12,47.6c5.81,1.68,12.41.35,17.8,3.46a1,1,0,0,0,1-1.72c-4.75-2.75-10.23-2.22-15.45-3.05-4-.63-8.85-2.34-10.14-6.61-.81-2.67-.07-5.55.73-8.13a42.79,42.79,0,0,1,2.83-7,44.92,44.92,0,0,1,9-12.12,28.53,28.53,0,0,1,6.94-5.17c2.42-1.2,5.37-1.91,7.93-.72a1,1,0,0,0,1.37-.36,1,1,0,0,0-.36-1.37Z"/>
      <path class="cls-1" d="M32.38,43.33a10.58,10.58,0,0,1-.27-10.76,10.2,10.2,0,0,1,8.32-5.22,4.11,4.11,0,0,1,4,2.43,16.53,16.53,0,0,1,1.42,5.78c.21,3.45-1,6.74-4.09,8.49a8.67,8.67,0,0,1-9.1-.18c-1.06-.73-2.07,1-1,1.73a10.57,10.57,0,0,0,10.21.63A10.2,10.2,0,0,0,46,43a10.86,10.86,0,0,0,1.91-6.12,18.68,18.68,0,0,0-1.26-7,6.19,6.19,0,0,0-4.44-4.33c-4.13-.92-8.5,1.49-11,4.71a12.58,12.58,0,0,0-.61,14.09c.68,1.09,2.41.09,1.73-1Z"/>
      <path class="cls-1" d="M62.66,17.38A15.32,15.32,0,0,0,50.77,28.25a8.4,8.4,0,0,0-.39,3.65c.5,2.67,4.27,2.74,6.38,2.6s4.54-.73,6.78-.41c2.48.35,3.9,2.29,4.54,4.58a10.7,10.7,0,0,1-4.43,11.72C59.19,53.26,53.39,53,48.33,52.45a1,1,0,0,0-1,1,1,1,0,0,0,1,1c4.73.51,9.79.66,14.25-1.25a12.77,12.77,0,0,0,7.84-10.88,11.78,11.78,0,0,0-1.58-6.91A7.17,7.17,0,0,0,62.76,32c-2.39-.09-4.75.53-7.14.52a8.32,8.32,0,0,1-1.57-.13c-.49-.09-1.26-.19-1.59-.62s-.15-1-.09-1.45a11.24,11.24,0,0,1,.38-1.72A13.36,13.36,0,0,1,63.2,19.31a1,1,0,0,0,.69-1.23,1,1,0,0,0-1.23-.7Z"/>
    </g>
  </g>
</svg>
