<svg xmlns="http://www.w3.org/2000/svg" viewBox="0 0 401.69 168.54">
  <defs>
    <style>
      .cls-1 {
        fill: #00a651;
      }

      .cls-2 {
        fill: #231f20;
      }

      .cls-3 {
        fill: #ed1c24;
      }

      .cls-4 {
        fill: #662d91;
      }
    </style>
  </defs>
  <title>cos-function-and-inverse-right-triangle</title>
  <g id="Layer_2" data-name="Layer 2">
    <g id="Layer_1-2" data-name="Layer 1">
      <g>
        <path class="cls-1" d="M13.86,78.13V90.94h2a31.72,31.72,0,0,0-3.38-11.61,28.5,28.5,0,0,0-3.29-5.06c-1.21-1.46-3-2.75-4.95-2.33-1.76.36-2.86,2-3.47,3.52A13.55,13.55,0,0,0,0,80.93,15.31,15.31,0,0,0,16,95.55c1.28,0,1.29-2,0-2a13.7,13.7,0,0,1-8.87-2.82,13.29,13.29,0,0,1-4.88-8.11,12.86,12.86,0,0,1,0-4.75C2.43,76.59,2.84,75,4,74.2c1.34-1,2.75.26,3.62,1.26a23.72,23.72,0,0,1,2.88,4.32,29.39,29.39,0,0,1,3.4,11.16,1,1,0,0,0,2,0V78.13a1,1,0,0,0-2,0Z"/>
        <path class="cls-1" d="M21.66,74.19l.81,18.88,2-.26a26.69,26.69,0,0,1,1.67-16.65,9.16,9.16,0,0,1,2.05-3.35c.23-.2.64-.51,1-.38s.72,1.18.89,1.6a33.71,33.71,0,0,1,2.22,8.67,33.47,33.47,0,0,1-.35,9.94c-.23,1.26,1.7,1.79,1.93.53a35.46,35.46,0,0,0-2-20.08c-.57-1.36-1.33-2.85-3.06-2.67-1.51.16-2.64,1.48-3.33,2.73a28.2,28.2,0,0,0-3.19,9.17,29.19,29.19,0,0,0,.31,11,1,1,0,0,0,2-.27l-.81-18.88c-.05-1.28-2.05-1.29-2,0Z"/>
        <path class="cls-1" d="M39.67,74.45a25.41,25.41,0,0,0-.43,8,24.69,24.69,0,0,0,.7,3.82A4.4,4.4,0,0,0,41.67,89c1.73,1.06,4,0,5-1.59,1.25-2.14.29-4.82-.86-6.77a16.93,16.93,0,0,0-5.37-5.54L39.94,77c2.55.22,4.64,2.08,5.93,4.18a26.41,26.41,0,0,1,2.88,8.12,17,17,0,0,1,0,8.94,11.18,11.18,0,0,1-3.93,5.38A11.48,11.48,0,0,1,37.42,106c-1.29,0-1.29,2,0,2a13.72,13.72,0,0,0,12.92-8.37,17.35,17.35,0,0,0,.57-9.71,29.89,29.89,0,0,0-3.09-9.36A10.36,10.36,0,0,0,39.94,75c-1-.09-1.27,1.37-.5,1.86a14.45,14.45,0,0,1,3.88,3.64c1,1.39,2.13,3.21,1.92,5-.12,1-1.33,2.47-2.49,1.83-.67-.37-.83-1.36-1-2a21.72,21.72,0,0,1-.54-3.09A23.59,23.59,0,0,1,41.6,75c.26-1.26-1.66-1.79-1.93-.53Z"/>
        <path class="cls-1" d="M53.61,69.67q.41,12.87.24,25.74a1,1,0,0,0,1.86.5l1.12-1.51A1,1,0,0,0,56.48,93a1,1,0,0,0-1.37.36L54,94.9l1.87.51q.16-12.87-.24-25.74c0-1.29-2-1.29-2,0Z"/>
        <path class="cls-1" d="M62.07,84.22c2.26-1,4.93-2.51,4.75-5.37A3.4,3.4,0,0,0,65.24,76a3.1,3.1,0,0,0-3.42.31C59.58,78,59,81.25,59,83.87A15.75,15.75,0,0,0,61.09,92a6.17,6.17,0,0,0,3,2.73,2.72,2.72,0,0,0,3.46-1c.7-1.08-1-2.08-1.73-1-.3.46-1,.14-1.38-.08a4.37,4.37,0,0,1-1.67-1.79,13.61,13.61,0,0,1-1.77-6A10.79,10.79,0,0,1,62.06,79c.35-.6.95-1.4,1.71-1.41.61,0,.94.52,1,1.06.36,2.11-2.21,3.14-3.75,3.8a1,1,0,0,0-.36,1.37,1,1,0,0,0,1.37.36Z"/>
      </g>
      <g>
        <path class="cls-2" d="M88.76,158.8a43.56,43.56,0,0,1,4.77-18.2c.59-1.14-1.13-2.16-1.72-1a45.84,45.84,0,0,0-5,19.21c-.05,1.29,1.95,1.29,2,0Z"/>
        <path class="cls-2" d="M93.88,147.71l-3,12.56,2,.27a26.54,26.54,0,0,1,3.86-11.38,10.2,10.2,0,0,1,1.74-2.37c.65-.55.86,0,1,.67a19.43,19.43,0,0,1,.31,3.15c0,1.11.06,2.23,0,3.34a39.18,39.18,0,0,1-1.07,7.77c-.3,1.25,1.63,1.78,1.93.53a42.07,42.07,0,0,0,1.13-8.06c0-1.35,0-2.71,0-4.06a15.13,15.13,0,0,0-.45-3.61,2.58,2.58,0,0,0-2.22-2,3.49,3.49,0,0,0-2.82,1.77,27.69,27.69,0,0,0-3.47,6.25,28.81,28.81,0,0,0-1.92,8c-.11,1.12,1.71,1.35,2,.26l3-12.56c.3-1.25-1.63-1.79-1.93-.53Z"/>
        <path class="cls-2" d="M105,145.13a42.75,42.75,0,0,0,1.69,17.52,1,1,0,0,0,1.93,0l4.86-13.23c.44-1.21-1.49-1.73-1.93-.53l-4.86,13.23h1.93a41.22,41.22,0,0,1-1.62-17,1,1,0,0,0-1-1,1,1,0,0,0-1,1Z"/>
        <path class="cls-2" d="M117.89,156.84c1.36-2.18,4.29-3.1,4.61-5.93.25-2.24-1.46-4.86-3.94-3.71a8,8,0,0,0-3,3,10.78,10.78,0,0,0-1.47,3.6,10.33,10.33,0,0,0,1.39,7.72,10.78,10.78,0,0,0,7.33,4.8,1,1,0,0,0,1.23-.7,1,1,0,0,0-.69-1.23,8.66,8.66,0,0,1-7.49-8.6,8.8,8.8,0,0,1,2.27-5.68,4.75,4.75,0,0,1,1.17-1c.35-.19.54-.23.77,0a2.26,2.26,0,0,1,.45,1.66,3.92,3.92,0,0,1-1.66,2.34,12.94,12.94,0,0,0-2.69,2.79c-.69,1.1,1,2.11,1.72,1Z"/>
        <path class="cls-2" d="M124.23,151.53a108.21,108.21,0,0,0,1.6,14.36c.2,1.13,1.94.82,2-.27l.1-5.12a42.15,42.15,0,0,1,.17-4.64,4.08,4.08,0,0,1,1.59-3.11,1.9,1.9,0,0,1,2.5.16c.82,1,2.23-.43,1.41-1.41a3.65,3.65,0,0,0-4-.92,5.06,5.06,0,0,0-3.15,3.36,18.07,18.07,0,0,0-.54,5.34l-.12,6.34,2-.27a105.06,105.06,0,0,1-1.52-13.82c-.06-1.28-2.06-1.29-2,0Z"/>
        <path class="cls-2" d="M141.55,151.28c-1.77-1.05-4.19-1.5-6-.38-1.7,1-2,3-1.39,4.82a6.66,6.66,0,0,0,1.22,2.29,18,18,0,0,0,1.41,1.35,3.23,3.23,0,0,1,1.17,1.61,3.64,3.64,0,0,1,0,2.26,3.1,3.1,0,0,1-4.78,1.18,1,1,0,0,0-1.37.36,1,1,0,0,0,.36,1.37,5.14,5.14,0,0,0,5.57.26,4.93,4.93,0,0,0,2.33-5,5.56,5.56,0,0,0-.72-2.18,10.14,10.14,0,0,0-1.83-1.93,4.45,4.45,0,0,1-1.66-3.57c.22-2.23,3.47-1.47,4.7-.74a1,1,0,0,0,1-1.73Z"/>
        <path class="cls-2" d="M144.17,161.27A4.27,4.27,0,0,0,149,158.6a4.13,4.13,0,0,0-2.53-5.09,4.38,4.38,0,0,0-5.22,2.19,7.46,7.46,0,0,0-.09,6.52,17.29,17.29,0,0,0,4,6c.93.89,2.34-.52,1.41-1.42a15.27,15.27,0,0,1-3.33-4.8c-.78-1.75-1.3-4,0-5.67a2.49,2.49,0,0,1,2-1.12,2.25,2.25,0,0,1,1.86,1.37,2.09,2.09,0,0,1-2.38,2.72c-1.25-.27-1.79,1.66-.53,1.93Z"/>
      </g>
      <g>
        <path class="cls-2" d="M64.64,107.79a81.68,81.68,0,0,0,24.85,23.73A98.48,98.48,0,0,0,123,144.39a131.81,131.81,0,0,0,41.2.91,174.93,174.93,0,0,0,38.64-9.5A180.28,180.28,0,0,0,220.93,128c2.93-1.47,5.83-3,8.67-4.65,2.47-1.41,5.39-2.79,7.23-5a6.53,6.53,0,0,0,1.57-3.85c.13-1.92-2.88-1.92-3,0-.15,2.4-3.14,3.84-4.92,4.9q-4.11,2.43-8.33,4.64a173.44,173.44,0,0,1-17.4,7.91,174.16,174.16,0,0,1-37.14,9.95,133.15,133.15,0,0,1-39.56.4A98.34,98.34,0,0,1,94.59,131a79.92,79.92,0,0,1-25-21.38c-.83-1.1-1.63-2.24-2.4-3.39-1.07-1.59-3.67-.09-2.59,1.52Z"/>
        <path class="cls-2" d="M67.57,116.21a25.49,25.49,0,0,1-1.23-5.3,8.7,8.7,0,0,1-.11-2.38.85.85,0,0,1,.12-.36c0,.07.21-.14.05,0A.94.94,0,0,1,67,108a7.63,7.63,0,0,1,2,.29l2.9.64,5.9,1.29a1.54,1.54,0,0,0,1.85-1,1.53,1.53,0,0,0-1-1.85l-6.75-1.47c-1.9-.42-4.13-1.23-6.08-.67a3.41,3.41,0,0,0-2.23,2,6.71,6.71,0,0,0-.24,3.15A29.41,29.41,0,0,0,64.67,117a1.54,1.54,0,0,0,1.85,1,1.51,1.51,0,0,0,1-1.84Z"/>
      </g>
      <g>
        <path class="cls-2" d="M231.75,56.73a155,155,0,0,0-32-16.92,129.2,129.2,0,0,0-35.15-8.23,113.88,113.88,0,0,0-35.92,2.55,103.62,103.62,0,0,0-17.25,5.75,108.38,108.38,0,0,0-15.6,8.48,173,173,0,0,0-20.62,15.4c-.85.75-1.7,1.5-2.53,2.26-1.43,1.31.69,3.42,2.12,2.13a162.8,162.8,0,0,1,19.13-15,124.94,124.94,0,0,1,14.78-8.77,96.76,96.76,0,0,1,16.52-6.3,109.47,109.47,0,0,1,35-3.85,123.79,123.79,0,0,1,34.63,6.91,148.68,148.68,0,0,1,31.75,15.69q1.84,1.2,3.66,2.44c1.59,1.1,3.09-1.5,1.51-2.59Z"/>
        <path class="cls-2" d="M229.72,46.65l.41,7.39c.06,1.23.14,2.46.2,3.7,0,.14,0,.28,0,.42,0,.4.08.27.36-.39.1,0,.07,0-.12,0,.1,0,.08,0-.06,0-.61.09-1.23.14-1.84.2l-3.68.41c-1.28.14-2.58.21-3.84.43s-2.45,1.88-1.27,3a1.7,1.7,0,0,0,2.93-1.1,1.5,1.5,0,0,0-3,0v.08l.44-1.06,0,.05.67-.39.55,0,.66.38.12.18.21.75v-.09l-.21.76c-.23.46-.69.39,0,.32l.86-.1,1.47-.16,3.07-.34c1-.11,2-.21,3.07-.33a2.71,2.71,0,0,0,2.58-1.7,8.91,8.91,0,0,0,0-3l-.17-3.07-.35-6.41a1.54,1.54,0,0,0-1.5-1.5,1.51,1.51,0,0,0-1.5,1.5Z"/>
      </g>
      <g>
        <path class="cls-2" d="M133.6.06a26.32,26.32,0,0,0-13.23,10.56c-1.71,2.69-3.05,5.91-1.66,9,1.22,2.72,4,4.47,6.66,5.57a38.13,38.13,0,0,0,10.19,2.17,1,1,0,0,0,0-2,43.08,43.08,0,0,1-8.12-1.53c-2.4-.77-5-2.06-6.45-4.22-1.65-2.48-.61-5.19.8-7.52a24.06,24.06,0,0,1,5-5.83A23.79,23.79,0,0,1,134.13,2c1.2-.43.68-2.36-.53-1.93Z"/>
        <path class="cls-2" d="M141.57,23.54a6.11,6.11,0,0,1-3.16-4.35,4.29,4.29,0,0,1,2.08-4.33,3.59,3.59,0,0,1,4.62.61,8.17,8.17,0,0,1,2.28,6c-.16,1.93-2,3.87-4,3a1,1,0,0,0-1.23.7,1,1,0,0,0,.7,1.23c2.48,1,5.28-.78,6.18-3.11,1-2.72,0-6-1.67-8.28s-4.08-3.37-6.7-2.42a6.39,6.39,0,0,0-4.25,5.56,7.89,7.89,0,0,0,4.18,7.12c1.13.62,2.14-1.11,1-1.73Z"/>
        <path class="cls-2" d="M158,9.21a6.58,6.58,0,0,0-6.36.46c-2,1.33-3.14,3.78-2.09,6.05.89,2,2.94,3,4.68,4.06,1.31.8,3.86,3.07,2,4.62a5.59,5.59,0,0,1-2.9,1c-.5.06-2.07.3-2.29-.38-.41-1.21-2.34-.69-1.93.53.76,2.28,3.54,2,5.42,1.68,2.13-.39,4.43-1.7,4.32-4.17s-2.37-4.2-4.33-5.37c-1.48-.88-3.91-2.25-3.33-4.34.65-2.32,3.71-3.29,5.77-2.36a1,1,0,0,0,1.37-.36A1,1,0,0,0,158,9.21Z"/>
        <path class="cls-2" d="M162.81,25.86a57.55,57.55,0,0,1-.3-11.29c.1-1.28-1.9-1.27-2,0a57.55,57.55,0,0,0,.3,11.29,1,1,0,1,0,2,0Z"/>
        <path class="cls-2" d="M164.07,16.15l2.1,10.26c.22,1.09,2.08.87,2-.26a28.83,28.83,0,0,1,.15-6.63,22.39,22.39,0,0,1,.5-2.67,6.1,6.1,0,0,1,.34-1c.07-.14.14-.27.22-.4s.22-.23.16-.19c.12-.08,0,0,0,0a2.23,2.23,0,0,1,.45.25,3.79,3.79,0,0,1,.7.74,5,5,0,0,1,.9,2.06,11.56,11.56,0,0,1-.27,5c-.2.8-.43,1.6-.71,2.38-.1.3-.22.6-.33.9-.06.13-.11.26-.16.39l-.06.14c-.07.18.08-.19,0,0a1,1,0,0,0,.36,1.37,1,1,0,0,0,1.37-.36c1.36-3.2,2.51-7,1.69-10.44-.4-1.71-1.82-4.25-3.83-4.35-2.17-.11-2.79,2.78-3.08,4.4a30.87,30.87,0,0,0-.44,8.53l2-.27L166,15.62c-.26-1.26-2.19-.73-1.93.53Z"/>
        <path class="cls-2" d="M179.11,19.64c1.55-1.53,3.16-3.7,1.89-5.92a2.77,2.77,0,0,0-2.59-1.41A4.08,4.08,0,0,0,175.59,14a7.91,7.91,0,0,0-1.11,6.39,12,12,0,0,0,3.38,5.93,28.8,28.8,0,0,0,6.54,4.55c1.13.62,2.14-1.11,1-1.73-3.08-1.7-6.4-3.64-8.12-6.85a8,8,0,0,1-1-4.78,5,5,0,0,1,.83-2.24c.33-.46,1-1.08,1.61-1s.79,1,.67,1.57a5.45,5.45,0,0,1-1.71,2.35,1,1,0,0,0,1.41,1.41Z"/>
      </g>
      <g>
        <path class="cls-2" d="M169.78,150c-3.92-2.21-8.86.32-9.9,4.57a9.27,9.27,0,0,0,5.76,10.81,8.68,8.68,0,0,0,7.57-1.06c1-.72,0-2.46-1-1.73a6.61,6.61,0,0,1-9.36-1.82c-1.69-2.7-1.83-6.86,1.11-8.77a4.63,4.63,0,0,1,4.82-.27,1,1,0,0,0,1-1.73Z"/>
        <path class="cls-2" d="M177.43,159.9a9.78,9.78,0,0,1-1.66-5,8.15,8.15,0,0,1,1.19-5.06c.25-.33.44-.34.82-.21a5.05,5.05,0,0,1,1.22.69,6.59,6.59,0,0,1,1.73,1.84,5.66,5.66,0,0,1,.74,5c-.57,1.51-2.14,2.92-3.85,2.58-1.26-.25-1.8,1.67-.53,1.93a5.51,5.51,0,0,0,5.72-2.73,7.25,7.25,0,0,0,.13-6.9,8.81,8.81,0,0,0-2.1-2.78,6.07,6.07,0,0,0-3.3-1.69c-2.64-.18-3.5,3.64-3.72,5.61a11.72,11.72,0,0,0,1.89,7.77c.71,1.06,2.45.06,1.72-1Z"/>
        <path class="cls-2" d="M188.37,144.2a7.23,7.23,0,0,0-4.48,6.92,1,1,0,0,0,1.26,1c1.44-.24,3.07-.54,4.46.09a3.06,3.06,0,0,1,1.93,2.62,3.34,3.34,0,0,1-1.81,2.79,9.28,9.28,0,0,1-4.33.72,1,1,0,0,0,0,2c1.91,0,4-.1,5.64-1.17a5.28,5.28,0,0,0,2.49-4.53,5,5,0,0,0-2.84-4.12c-1.92-1-4-.67-6.07-.33l1.27,1a5.22,5.22,0,0,1,3-5,1,1,0,0,0-.53-1.93Z"/>
        <path class="cls-2" d="M197.46,157.2l-2.38-10.86c-.27-1.25-2.2-.72-1.93.54l2.38,10.86c.28,1.25,2.2.72,1.93-.54Z"/>
        <path class="cls-2" d="M197.55,146.39c.47,2.8.91,5.63,1.63,8.38a6.94,6.94,0,0,0,.54,1.59,1.15,1.15,0,0,0,1.82.41,3,3,0,0,0,.53-2.06c0-1,0-2,0-3s0-2.14.07-3.2l.06-.64c0-.31,0,.1,0-.13a2.74,2.74,0,0,1,.05-.28c0-.14.09-.28.11-.42s-.12.22,0,0-.18.17,0,0a.8.8,0,0,1-.73.19s-.26-.13-.13-.06-.17-.12-.07,0,.09.06.09.08-.11-.15,0,0,.15.23.22.36a13.51,13.51,0,0,1,.9,2c.8,2.13,1.45,4.32,2.09,6.5a1,1,0,0,0,1.93-.53c-.58-2-1.17-4-1.88-5.92A11.56,11.56,0,0,0,203,146a1.37,1.37,0,0,0-2.35.23,6.76,6.76,0,0,0-.46,2.6c-.12,2.05,0,4.12-.11,6.17l0,.48c0,.23.06-.22,0,0a.58.58,0,0,0,0,.19c0,.16,0,0,.05-.11a1.12,1.12,0,0,1,.64-.4.91.91,0,0,1,.73.23s.16.28.07.08-.07-.25,0,0c-.06-.23-.16-.45-.22-.67a78.59,78.59,0,0,1-1.76-8.87,1,1,0,0,0-1.23-.7,1,1,0,0,0-.7,1.23Z"/>
        <path class="cls-2" d="M209.59,152.66a5.38,5.38,0,0,0,1.69-5.73,5.45,5.45,0,0,0-1.54-2.69,3.29,3.29,0,0,0-3.58-.81c-1.3.68-1.32,2.33-1.12,3.59a13.88,13.88,0,0,0,1.2,3.71,15.23,15.23,0,0,0,4.9,5.81,12.24,12.24,0,0,0,7.67,2.36c1.28-.07,1.29-2.07,0-2a11.43,11.43,0,0,1-9.56-5,12.37,12.37,0,0,1-2.28-5.42c0-.28-.15-.94.05-1.19s.55-.08.8,0a2.88,2.88,0,0,1,1.3,1.45c.55,1.22.64,3.26-.54,4.17a1,1,0,0,0-.36,1.36,1,1,0,0,0,1.37.36Z"/>
      </g>
      <g>
        <path class="cls-3" d="M322.6,63.65a22.17,22.17,0,0,0-3.68,3.82c-.79,1.06-1.57,2.47-.34,3.53,1,.84,2.35.85,3.49,1.32a3.3,3.3,0,0,1,2.12,3.6c-.35,1.35-2.26,2.35-3.45,1.41-.5-.39-1.22.32-.71.71a3.14,3.14,0,0,0,3.67.08,3.33,3.33,0,0,0,1.46-3.62,4.62,4.62,0,0,0-3-3.22c-.85-.28-3.27-.46-3.25-1.71a3.06,3.06,0,0,1,.81-1.51c.34-.45.71-.89,1.08-1.32a22.48,22.48,0,0,1,2.5-2.38c.5-.41-.21-1.11-.7-.71Z"/>
        <path class="cls-3" d="M328.57,78.24l.87-9c.06-.64-.94-.64-1,0l-.87,9c-.06.64.94.64,1,0Z"/>
        <path class="cls-3" d="M335.05,62.3A38.4,38.4,0,0,1,335.4,73l.93-.25a2.82,2.82,0,0,0-3.06-1.19A2.88,2.88,0,0,0,331,74.08a3.77,3.77,0,0,0,1.55,3.47,5,5,0,0,0,4.36.58.5.5,0,0,0-.27-1c-2,.58-4.61-.21-4.67-2.61a2,2,0,0,1,1.33-2,1.84,1.84,0,0,1,2.14.67.51.51,0,0,0,.94-.25A39.19,39.19,0,0,0,336,62c-.11-.63-1.07-.36-1,.27Z"/>
        <path class="cls-3" d="M340.32,75.15c1.74-.53,3.79-1.78,4.08-3.76a2.83,2.83,0,0,0-3.77-2.81c-1.55.69-2,3-1.77,4.51a7.2,7.2,0,0,0,2.7,4.39,14.12,14.12,0,0,0,3.29,2.12c.58.27,1.09-.59.5-.86a10.76,10.76,0,0,1-5-4.17,4.74,4.74,0,0,1-.25-3.95c.26-.67.74-1.3,1.53-1.22a2,2,0,0,1,1.76,1.48,2.36,2.36,0,0,1-.72,1.72,5.81,5.81,0,0,1-2.66,1.59c-.61.19-.35,1.16.27,1Z"/>
        <path class="cls-3" d="M356.44,61.58A45.34,45.34,0,0,0,356.28,76c.09.64,1.05.37,1-.26a44.07,44.07,0,0,1,.16-13.85c.11-.63-.85-.9-1-.27Z"/>
        <path class="cls-3" d="M361.37,73c1.29-1.18,3-2.87,2.48-4.81-.37-1.46-2.23-2.83-3.63-1.74s-1.35,3.52-1.15,5a10.2,10.2,0,0,0,2,4.86,9.45,9.45,0,0,0,4.83,3.39.5.5,0,0,0,.26-1A9,9,0,0,1,360,70.84c-.07-1.15.27-5,2.22-3.42s-.35,3.77-1.56,4.87c-.47.43.24,1.14.71.71Z"/>
        <path class="cls-3" d="M366.28,65.66l0,10h1a27.29,27.29,0,0,1,.56-6.32,27.91,27.91,0,0,1,.75-2.82c.19-.57.62-1.85,1.46-1.39s1,1.49,1.15,2.18a18.2,18.2,0,0,1,.62,2.82,19.17,19.17,0,0,1-.16,6.14c-.12.63.85.9,1,.26a20,20,0,0,0,.28-5.57,17,17,0,0,0-1.21-5.26c-.52-1.17-1.83-2.3-3.06-1.26a3.77,3.77,0,0,0-1,1.71,26.77,26.77,0,0,0-.79,2.92,28.57,28.57,0,0,0-.59,6.59.5.5,0,0,0,1,0l0-10a.5.5,0,0,0-1,0Z"/>
        <path class="cls-3" d="M373.64,68.48a12.6,12.6,0,0,0,0,3.36,3.94,3.94,0,0,0,.9,2.31c1.3,1.28,2.69-.4,3.1-1.6a5.47,5.47,0,0,0-3.53-6.82.5.5,0,0,0-.49.83,18,18,0,0,1,4.47,10.17,7.43,7.43,0,0,1-1.3,5.25,4.56,4.56,0,0,1-4.32,1.83c-.63-.12-.9.85-.26,1a5.48,5.48,0,0,0,4.92-1.67,7.73,7.73,0,0,0,2-5.53,18.57,18.57,0,0,0-4.79-11.73l-.49.84a4.48,4.48,0,0,1,3,4.86c-.11.74-1.07,3-1.85,1.56a5.5,5.5,0,0,1-.47-2.12,11.71,11.71,0,0,1,.06-2.51c.07-.64-.93-.63-1,0Z"/>
        <path class="cls-3" d="M377.6,61.59a24.59,24.59,0,0,1,7.76-1.07.5.5,0,0,0,0-1,25.14,25.14,0,0,0-8,1.11c-.61.19-.35,1.15.27,1Z"/>
        <path class="cls-3" d="M380.34,53.84c0,7.33.28,14.67.88,22,0,.64,1.06.64,1,0-.6-7.31-.9-14.65-.88-22a.5.5,0,0,0-1,0Z"/>
        <path class="cls-3" d="M386.1,55.52q.28,9.56,1,19.07a.51.51,0,0,0,1,.13c.59-1.79,1.23-3.57,1.94-5.32a18,18,0,0,1,1.11-2.55c.53-.87,1.21-.36,1.62.3a7.24,7.24,0,0,1,.72,2.37,25.64,25.64,0,0,1,.42,2.9,27.89,27.89,0,0,1-.1,5.63c-.07.64.93.63,1,0a28.11,28.11,0,0,0-.06-7c-.23-1.69-.41-4-1.83-5.22a1.66,1.66,0,0,0-2-.17,4.74,4.74,0,0,0-1.35,2.31c-.91,2.14-1.72,4.32-2.45,6.53l1,.13q-.71-9.53-1-19.07c0-.64-1-.64-1,0Z"/>
        <path class="cls-3" d="M249.63,67.47l0,11.16h1a24.92,24.92,0,0,0-2.5-9.42c-.37-.74-.77-1.46-1.21-2.16a5.11,5.11,0,0,0-1.4-1.72c-1.26-.77-2.64.21-3.36,1.24-1.67,2.4-1.58,5.57-.68,8.24s2.6,5.64,5.15,6.91a4.16,4.16,0,0,0,4.19-.11,3.15,3.15,0,0,0,1.53-3.4c-.15-.63-1.12-.36-1,.26A2.29,2.29,0,0,1,250,81a3.34,3.34,0,0,1-3.23-.33,11.44,11.44,0,0,1-4.21-5.9,8.76,8.76,0,0,1,.08-6.92c.51-1,1.77-2.54,2.82-1.22a17.88,17.88,0,0,1,2,3.41,23.54,23.54,0,0,1,2.23,8.63.5.5,0,0,0,1,0l0-11.16a.5.5,0,0,0-1,0Z"/>
        <path class="cls-3" d="M259.47,59.47a63.21,63.21,0,0,0,.74,15.9l.84-.48a19.27,19.27,0,0,0-4.39-3.81,3.62,3.62,0,0,0-2.39-.8,2.4,2.4,0,0,0-1.64,1.22c-1.7,2.9.46,6.87,3.3,8a6.49,6.49,0,0,0,5.56-.3c.56-.31.06-1.17-.51-.87a5.36,5.36,0,0,1-7.87-4.16,3.42,3.42,0,0,1,.48-2.34c.63-.91,1.48-.58,2.29-.09a18.07,18.07,0,0,1,4.46,3.81c.35.42.91,0,.83-.48a62.55,62.55,0,0,1-.7-15.64c0-.64-1-.64-1,0Z"/>
        <path class="cls-3" d="M265.61,61a49.88,49.88,0,0,1,1.89,6.79c.24,1.19.44,2.38.59,3.59a10.05,10.05,0,0,1,0,3.46c-.33,1.38-1.85,3.5-3.38,2.32-1.37-1-1.83-3.09-1.93-4.71,0-.64-1-.64-1,0a8.52,8.52,0,0,0,1.55,4.71,2.78,2.78,0,0,0,3.06,1.24,4.82,4.82,0,0,0,2.78-4,20.63,20.63,0,0,0-.58-6.35,49.58,49.58,0,0,0-2-7.37c-.21-.6-1.18-.34-1,.27Z"/>
        <path class="cls-3" d="M277,72.2a21,21,0,0,1,.31,5.43l1-.13a25.55,25.55,0,0,0-1.4-5.52,8.36,8.36,0,0,0-3.34-4.24c-2-1.08-2.88,2.3-3,3.7a6.52,6.52,0,0,0,2.05,5.17,6.81,6.81,0,0,0,5.76,1.63c.63-.12.36-1.08-.27-1a5.58,5.58,0,0,1-6.54-5.09,6.12,6.12,0,0,1,.34-2.36,4.39,4.39,0,0,1,.52-1c.15-.22.27-.34.53-.24a2.43,2.43,0,0,1,.57.37,8.36,8.36,0,0,1,2.54,3.7,27.24,27.24,0,0,1,1.25,5.13c.09.58.94.39,1-.14a21.37,21.37,0,0,0-.35-5.7c-.12-.63-1.08-.36-1,.27Z"/>
        <path class="cls-3" d="M285.41,67.37a4.16,4.16,0,0,0-3.31,1.93,12.07,12.07,0,0,0-2.27,4.08,4.14,4.14,0,0,0,.77,4A5,5,0,0,0,284,78.89a8.94,8.94,0,0,0,5-1.6c.55-.34.05-1.2-.5-.86A8,8,0,0,1,284,77.89a3.55,3.55,0,0,1-3.21-2.29c-.48-1.62.5-3.3,1.37-4.61.74-1.14,1.76-2.69,3.29-2.62.65,0,.64-1,0-1Z"/>
        <path class="cls-3" d="M291,73.93c1.67-.63,3.83-1.48,4.34-3.41.37-1.4-.33-3.35-1.93-3.57-2-.28-2.95,2.07-3.23,3.67a8.56,8.56,0,0,0,1,6.28,5.92,5.92,0,0,0,5.7,2.71c.64-.09.37-1-.26-1A4.83,4.83,0,0,1,292.52,77,6.73,6.73,0,0,1,291,72.33c0-1.32.24-3.44,1.5-4.21s2,.83,1.93,1.87c-.21,1.7-2.34,2.46-3.7,3-.6.22-.34,1.19.27,1Z"/>
        <path class="cls-3" d="M298,70a42.07,42.07,0,0,0,.36,9.71c.08.56,1,.43,1-.13a45.44,45.44,0,0,1,0-6.6c.08-1.14.2-2.27.37-3.39a4.11,4.11,0,0,1,.94-2.52,1.07,1.07,0,0,1,1.87.47,18.15,18.15,0,0,1,.41,3.37,44.6,44.6,0,0,1,0,6.64c0,.64,1,.64,1,0a46.86,46.86,0,0,0,0-6.27c-.07-1-.18-2.08-.32-3.12a3,3,0,0,0-.87-2.09c-1.12-.89-2.71-.13-3.36,1a6.68,6.68,0,0,0-.68,2.4c-.14,1-.26,1.95-.34,2.93a45.67,45.67,0,0,0-.05,7.21l1-.13A41.51,41.51,0,0,1,299,70c0-.64-1-.64-1,0Z"/>
        <path class="cls-3" d="M304.48,66.93l6.83-3.1a.51.51,0,0,0,.18-.69.51.51,0,0,0-.68-.18L304,66.07a.49.49,0,0,0-.18.68.5.5,0,0,0,.68.18Z"/>
        <path class="cls-3" d="M308.13,59.39a53.31,53.31,0,0,0-1.74,19.87c.07.63,1.07.64,1,0a52.51,52.51,0,0,1,1.7-19.6.5.5,0,0,0-1-.27Z"/>
      </g>
      <g>
        <path class="cls-4" d="M240.88,86a124.21,124.21,0,0,0,1.21,19.46c.07.55,1,.43,1-.13a18.69,18.69,0,0,1,.46-6.62,18,18,0,0,1,1.14-3.18c.33-.72.92-2.22,1.92-2.15s1.16,1.32,1.33,2c.27,1.16.51,2.34.71,3.52a57,57,0,0,1,.77,7.37c0,.64,1,.65,1,0a60.34,60.34,0,0,0-.63-6.57q-.27-1.71-.63-3.42a10.37,10.37,0,0,0-.74-2.57,2,2,0,0,0-3.48-.53,8.87,8.87,0,0,0-1.39,2.45,18.36,18.36,0,0,0-1,2.82,19.43,19.43,0,0,0-.5,6.88l1-.14A123.1,123.1,0,0,1,241.88,86a.5.5,0,0,0-1,0Z"/>
        <path class="cls-4" d="M251.68,92.68a35.35,35.35,0,0,0-.61,5.71c0,1.23-.26,3,.61,4,1,1.2,2.85.53,3.93-.21a5.37,5.37,0,0,0,2.32-3.85,8.27,8.27,0,0,0-.23-3.28.5.5,0,0,0-1,.27c.75,3.92,1.68,8.41.12,12.26a9.71,9.71,0,0,1-5.2,5,18.89,18.89,0,0,1-1.95.71c-.61.2-.35,1.17.26,1a15.34,15.34,0,0,0,4.88-2.45c2.8-2.23,3.8-5.57,3.81-9.06a40.25,40.25,0,0,0-1-7.72l-1,.27c.75,2.62-.07,6-3.06,6.66-1.81.43-1.66-1.72-1.63-2.9a35.2,35.2,0,0,1,.59-6.15c.12-.63-.84-.9-1-.26Z"/>
        <path class="cls-4" d="M259.33,95.42v18a.5.5,0,0,0,1,0v-18a.5.5,0,0,0-1,0Z"/>
        <path class="cls-4" d="M260.72,95.17a2,2,0,0,1,2.25-1.6,4.31,4.31,0,0,1,2.84,2.13,6.54,6.54,0,0,1,1.13,2.64,2.71,2.71,0,0,1-1.39,2.77,5.21,5.21,0,0,1-4.18.33.5.5,0,0,0-.26,1,6.39,6.39,0,0,0,4.69-.29,3.8,3.8,0,0,0,2.17-3.4,6.77,6.77,0,0,0-1.32-3.55,5.22,5.22,0,0,0-3.68-2.6,3,3,0,0,0-3.25,2.6c0,.64,1,.64,1,0Z"/>
        <path class="cls-4" d="M272.29,102.18c-2.51-1.51-3-6.41.23-7.42a4.72,4.72,0,0,1,4.5,1.08,4.13,4.13,0,0,1,.77,4.85,4,4,0,0,1-5.5,1.49.5.5,0,0,0-.5.87,5,5,0,0,0,6.58-7.18,5.69,5.69,0,0,0-5.31-2.24,4.28,4.28,0,0,0-3.73,3.7,5.73,5.73,0,0,0,2.46,5.72A.5.5,0,0,0,272.29,102.18Z"/>
        <path class="cls-4" d="M278,92.28q5.23-1.47,10.35-3.31c.6-.21.34-1.18-.27-1q-5.1,1.84-10.34,3.3a.5.5,0,0,0,.26,1Z"/>
        <path class="cls-4" d="M283,86.4a130.89,130.89,0,0,0-1,16.91.5.5,0,0,0,1,0,130.89,130.89,0,0,1,1-16.91c.08-.64-.92-.63-1,0Z"/>
        <path class="cls-4" d="M288.85,99.56c1.85-1.25,4.15-2.9,4.17-5.38,0-1.92-1.47-4-3.59-3.51S286.36,94,286.29,96a10.19,10.19,0,0,0,1.88,6.12,9.68,9.68,0,0,0,5.89,4c.63.13.9-.84.26-1a9.14,9.14,0,0,1-6.89-7.23,7,7,0,0,1,.85-5.2,2.09,2.09,0,0,1,2.35-1A2.48,2.48,0,0,1,292,93.55c.46,2.36-2,4-3.63,5.15-.53.36,0,1.22.51.86Z"/>
        <path class="cls-4" d="M296.64,93.73a40.47,40.47,0,0,0,.66,9.89c.11.55,1.06.43,1-.13a24.87,24.87,0,0,1,0-6.45,24.31,24.31,0,0,1,.67-3.27,3.26,3.26,0,0,1,1.34-2.07c1-.47,1.34,1,1.57,1.66a20.18,20.18,0,0,1,.79,3,19.47,19.47,0,0,1,.12,6.28c-.09.63.88.9,1,.27a20.71,20.71,0,0,0,0-5.67,17,17,0,0,0-1.51-5.46A1.87,1.87,0,0,0,299,91.5c-1.15,1.34-1.41,3.37-1.65,5.06a25.53,25.53,0,0,0,0,6.93l1-.13a39.37,39.37,0,0,1-.63-9.63c0-.64-1-.64-1,0Z"/>
        <path class="cls-4" d="M305.34,93.71A20,20,0,0,0,306.77,99a18.47,18.47,0,0,0,1.34,2.62,7.6,7.6,0,0,0,1.59,2,2.49,2.49,0,0,0,2,.68,2.3,2.3,0,0,0,1.61-1.45,12.11,12.11,0,0,0,1.05-5.24,13,13,0,0,0-1.53-5.84c-.3-.57-1.16-.06-.86.51a11.84,11.84,0,0,1,1.39,5.53,11.67,11.67,0,0,1-.37,2.94c-.2.77-.47,2.09-1.23,2.48s-1.75-.61-2.18-1.21a17.31,17.31,0,0,1-1.49-2.53,18.89,18.89,0,0,1-1.75-5.83c-.08-.63-1.08-.64-1,0Z"/>
        <path class="cls-4" d="M326.74,98.63c1.14-1.32,3-2.17,3.32-4,.25-1.41-.6-3.11-2.27-2.8s-2.42,2.33-2.46,3.83a8.35,8.35,0,0,0,6,8,.5.5,0,0,0,.27-1,7.4,7.4,0,0,1-5.12-5.58,4.36,4.36,0,0,1,.67-3.81,1.14,1.14,0,0,1,1.57-.36,1.52,1.52,0,0,1,.38,1.43C328.82,96,327,96.8,326,97.92c-.42.48.28,1.19.71.71Z"/>
        <path class="cls-4" d="M339.71,86.29q-.37,7.36-.31,14.73c0,1.16,0,2.34.05,3.5.05.65.32,1.53,1.12,1.56,1.44,0,.62-2.5-.37-1.47-.45.46.26,1.17.71.7-1.08,1.11-.52-.22-.55-.1s.09.05.21-.2l-.06-.16c0-.33-.07-.65-.08-1l0-2.48c0-1.69,0-3.38,0-5.08q.06-5,.31-10c0-.64-1-.64-1,0Z"/>
        <path class="cls-4" d="M344.28,99.14c.78-.88,1.57-1.76,2.35-2.65a3.76,3.76,0,0,0,1.2-2.23,1.91,1.91,0,0,0-3.14-1.51,4.16,4.16,0,0,0-1.11,2.06,11,11,0,0,0-.49,3.07A7.75,7.75,0,0,0,345,103a8.07,8.07,0,0,0,5.12,2.64c.64.08.64-.92,0-1a7,7,0,0,1-4.41-2.35,6.89,6.89,0,0,1-1.53-5.22,9.63,9.63,0,0,1,.67-2.8c.3-.71,1.18-1.55,1.85-.66s-.31,1.66-.79,2.21l-2.29,2.57c-.43.48.28,1.19.71.71Z"/>
        <path class="cls-4" d="M350.51,93.49l0,10.42h1a20.35,20.35,0,0,1,3-11.22h-.87a18,18,0,0,1,1.25,9.67c-.09.63.87.9,1,.26a19.36,19.36,0,0,0-1.35-10.44c-.16-.36-.69-.28-.87,0a21.36,21.36,0,0,0-3.17,11.73.5.5,0,0,0,1,0l0-10.42a.5.5,0,0,0-1,0Z"/>
        <path class="cls-4" d="M357.42,95.54c.35.85-.08,1.67-.11,2.53a2.45,2.45,0,0,0,.47,1.52,1.94,1.94,0,0,0,3.15,0c1.64-2,.11-4.69-2.06-5.46a.5.5,0,0,0-.56.73c1.77,2.63,4.11,6,2.49,9.3s-5.9,3.11-9.09,2.85c-.64,0-.64,1,0,1,3.56.29,8.11.38,10-3.34s-.48-7.32-2.5-10.31l-.56.73c1.46.52,2.68,2.33,1.62,3.78-.69.93-1.8.48-1.91-.59a6.35,6.35,0,0,1,.21-1.55,2.74,2.74,0,0,0-.15-1.47c-.24-.58-1.21-.32-1,.27Z"/>
        <path class="cls-4" d="M360.58,92.32A46,46,0,0,0,370.35,91c.62-.16.35-1.12-.27-1a44.09,44.09,0,0,1-9.5,1.3c-.64,0-.64,1,0,1Z"/>
        <path class="cls-4" d="M365.16,86.92v16.89a.5.5,0,0,0,1,0V86.92a.5.5,0,0,0-1,0Z"/>
        <path class="cls-4" d="M371.38,88.05A52.63,52.63,0,0,0,373,104.63a.51.51,0,0,0,1,0,33.86,33.86,0,0,1,1.61-5c.27-.68,1.5-4.16,2.63-2.67a4.58,4.58,0,0,1,.62,1.91,25.91,25.91,0,0,1,.4,2.9,29.73,29.73,0,0,1-.08,5.42c-.07.64.93.64,1,0a29.35,29.35,0,0,0-.07-6.82c-.19-1.4-.28-3.81-1.72-4.59-1.67-.9-2.71,1.23-3.25,2.41a35.47,35.47,0,0,0-2.11,6.18h1a51.6,51.6,0,0,1-1.61-16.32c0-.64-1-.64-1,0Z"/>
        <path class="cls-4" d="M324.59,91.29A9.13,9.13,0,0,0,319.53,93a9.24,9.24,0,0,0-1.95,1.9,4.47,4.47,0,0,0-1.12,2.48c0,1.66,2.45,2,3.69,2.3s3.56.69,3.26,2.56c-.45,2.68-3.88,2.57-5.9,2.43-.64,0-.64,1,0,1,1.94.13,4.16.22,5.7-1.18a3.12,3.12,0,0,0,.56-4.31c-1-1.14-2.62-1.29-4-1.6-.65-.15-1.8-.33-2.21-.92s.85-2.28,1.32-2.79a8.22,8.22,0,0,1,5.69-2.59c.64,0,.65-1,0-1Z"/>
      </g>
      <path class="cls-2" d="M228.91,86.65c11.2-1.13,22.43-2,33.69-2.31s22.45.31,33.67,1.06,22.35,1.32,33.56,1.2,22.33-.66,33.49-.91a274.81,274.81,0,0,1,37.41,1.24c1.28.15,1.27-1.85,0-2-22.21-2.55-44.57-.82-66.84-.39-11.21.21-22.36-.14-33.55-.87s-22.41-1.52-33.65-1.4c-12.63.12-25.22,1.11-37.78,2.38-1.27.12-1.28,2.12,0,2Z"/>
    </g>
  </g>
</svg>
