<svg xmlns="http://www.w3.org/2000/svg" viewBox="0 0 363.8 60.96">
  <defs>
    <style>
      .cls-1 {
        fill: #231f20;
      }

      .cls-2 {
        fill: #00a651;
      }

      .cls-3 {
        fill: #ed1c24;
      }

      .cls-4 {
        fill: #662d91;
      }
    </style>
  </defs>
  <title>cos-right-triangle-definition</title>
  <g id="Layer_2" data-name="Layer 2">
    <g id="Layer_1-2" data-name="Layer 1">
      <path class="cls-1" d="M67.62,7.19a63,63,0,0,0-5.71,19.37,61.83,61.83,0,0,0-.44,10.09,38.85,38.85,0,0,0,1.18,9,13,13,0,0,0,5.07,7.59c1.08.71,2.09-1,1-1.73-4.51-2.95-5-9.48-5.24-14.34a60.63,60.63,0,0,1,2.1-19,59.85,59.85,0,0,1,3.76-10C69.9,7,68.18,6,67.62,7.19Z" transform="translate(-0.02)"/>
      <g>
        <path class="cls-2" d="M85.43,25.12V37.93h2a31.7,31.7,0,0,0-3.37-11.61,28.15,28.15,0,0,0-3.29-5.06c-1.21-1.46-3-2.75-5-2.33-1.76.36-2.85,1.95-3.46,3.52a13.38,13.38,0,0,0-.75,5.47,15.47,15.47,0,0,0,4.5,10.19,15.66,15.66,0,0,0,11.46,4.43c1.28,0,1.29-2,0-2a13.8,13.8,0,0,1-8.88-2.82,13.49,13.49,0,0,1-4.91-12.86c.24-1.28.65-2.86,1.77-3.67,1.33-1,2.75.26,3.62,1.26A23.17,23.17,0,0,1,82,26.77a29,29,0,0,1,3.4,11.16,1,1,0,0,0,2,0V25.12a1,1,0,0,0-2,0Z" transform="translate(-0.02)"/>
        <path class="cls-2" d="M93.23,21.18,94,40.06l2-.26a26.76,26.76,0,0,1,1.68-16.65,9.16,9.16,0,0,1,2-3.35c.23-.2.63-.51,1-.38.48.19.73,1.18.9,1.6a33.4,33.4,0,0,1,1.87,18.61c-.23,1.26,1.69,1.79,1.93.53a35.37,35.37,0,0,0-2-20.08c-.56-1.36-1.32-2.85-3-2.67-1.51.16-2.64,1.48-3.33,2.73a28,28,0,0,0-3.19,9.17,29,29,0,0,0,.3,11,1,1,0,0,0,2-.27l-.81-18.88c-.06-1.28-2.06-1.29-2,0Z" transform="translate(-0.02)"/>
        <path class="cls-2" d="M111.24,21.44a25.41,25.41,0,0,0-.43,8,25.92,25.92,0,0,0,.69,3.82A4.41,4.41,0,0,0,113.24,36c1.73,1.06,4,0,5-1.59,1.26-2.14.3-4.82-.85-6.77A16.86,16.86,0,0,0,112,22.09l-.5,1.87c2.54.22,4.64,2.08,5.92,4.18a26.18,26.18,0,0,1,2.89,8.12,17.05,17.05,0,0,1,0,8.94,11.24,11.24,0,0,1-3.93,5.38A11.5,11.5,0,0,1,109,53c-1.28-.05-1.28,1.95,0,2a13.74,13.74,0,0,0,12.93-8.37,17.44,17.44,0,0,0,.57-9.71,29.91,29.91,0,0,0-3.1-9.36A10.35,10.35,0,0,0,111.51,22c-1.05-.09-1.28,1.37-.51,1.86a14.16,14.16,0,0,1,3.88,3.64c1,1.39,2.14,3.21,1.93,5-.13,1-1.33,2.47-2.5,1.83-.66-.37-.82-1.36-1-2a23.23,23.23,0,0,1-.54-3.09,23.59,23.59,0,0,1,.39-7.21c.26-1.26-1.67-1.8-1.93-.53Z" transform="translate(-0.02)"/>
        <path class="cls-2" d="M125.18,16.66q.41,12.86.23,25.74a1,1,0,0,0,1.87.5l1.12-1.51A1,1,0,0,0,128,40a1,1,0,0,0-1.37.36l-1.12,1.51,1.86.51q.18-12.87-.23-25.74c0-1.29-2-1.29-2,0Z" transform="translate(-0.02)"/>
        <path class="cls-2" d="M133.63,31.21c2.27-1,4.94-2.51,4.76-5.37A3.42,3.42,0,0,0,136.81,23a3.1,3.1,0,0,0-3.42.31c-2.24,1.67-2.8,4.92-2.84,7.54A15.75,15.75,0,0,0,132.66,39a6.13,6.13,0,0,0,3,2.73,2.7,2.7,0,0,0,3.45-1c.71-1.08-1-2.08-1.72-1-.3.46-1,.14-1.39-.08a4.5,4.5,0,0,1-1.67-1.79,13.74,13.74,0,0,1-1.77-6A10.7,10.7,0,0,1,133.63,26c.35-.6,1-1.4,1.71-1.41.6,0,.94.52,1,1.06.36,2.11-2.21,3.14-3.74,3.8a1,1,0,0,0-.36,1.37,1,1,0,0,0,1.36.36Z" transform="translate(-0.02)"/>
      </g>
      <path class="cls-1" d="M138.39,9.91a79.87,79.87,0,0,1,9,26c.47,2.93,1,6.08.06,9-.77,2.53-3,4.86-5.78,4.69-1.29-.08-1.28,1.92,0,2a7.66,7.66,0,0,0,6.75-4c1.68-2.77,1.68-6.19,1.32-9.3a78.69,78.69,0,0,0-4.83-19.21A84.15,84.15,0,0,0,140.12,8.9a1,1,0,0,0-1.73,1Z" transform="translate(-0.02)"/>
      <path class="cls-1" d="M162.85,28a35,35,0,0,0,12.64-2.35,1,1,0,0,0,.7-1.23,1,1,0,0,0-1.23-.7A33.46,33.46,0,0,1,162.85,26a1,1,0,0,0,0,2Z" transform="translate(-0.02)"/>
      <path class="cls-1" d="M164.42,37.24a29.33,29.33,0,0,1,14.19-3.38,1,1,0,0,0,0-2,31.42,31.42,0,0,0-15.2,3.65c-1.14.6-.13,2.33,1,1.73Z" transform="translate(-0.02)"/>
      <g>
        <path class="cls-3" d="M284.72,10.3a22.13,22.13,0,0,0-3.67,3.82c-.79,1.05-1.57,2.47-.34,3.53,1,.83,2.35.85,3.49,1.31a3.33,3.33,0,0,1,2.12,3.61c-.35,1.34-2.26,2.35-3.46,1.41-.5-.39-1.21.31-.7.71a3.12,3.12,0,0,0,3.67.07,3.33,3.33,0,0,0,1.46-3.61,4.64,4.64,0,0,0-3-3.22c-.84-.29-3.27-.47-3.24-1.72a3,3,0,0,1,.81-1.5q.51-.69,1.08-1.32a22.57,22.57,0,0,1,2.5-2.39c.5-.4-.21-1.11-.71-.7Z" transform="translate(-0.02)"/>
        <path class="cls-3" d="M290.7,24.89l.86-9c.06-.64-.94-.64-1,0l-.86,9c-.06.64.94.63,1,0Z" transform="translate(-0.02)"/>
        <path class="cls-3" d="M297.18,8.94a38.47,38.47,0,0,1,.34,10.66l.94-.25a2.84,2.84,0,0,0-3.07-1.2,2.91,2.91,0,0,0-2.25,2.58,3.81,3.81,0,0,0,1.55,3.47,5.06,5.06,0,0,0,4.36.58.5.5,0,0,0-.26-1c-2,.58-4.61-.21-4.67-2.61a2,2,0,0,1,1.33-2,1.84,1.84,0,0,1,2.14.68.5.5,0,0,0,.93-.25,39.18,39.18,0,0,0-.38-10.92c-.11-.64-1.07-.37-1,.26Z" transform="translate(-0.02)"/>
        <path class="cls-3" d="M302.44,21.8c1.74-.54,3.8-1.79,4.09-3.77a2.84,2.84,0,0,0-3.77-2.81c-1.56.69-2,3-1.77,4.51a7.15,7.15,0,0,0,2.7,4.4A14.38,14.38,0,0,0,307,26.25c.58.27,1.09-.59.51-.86a10.74,10.74,0,0,1-5-4.17,4.74,4.74,0,0,1-.24-3.95c.25-.68.73-1.31,1.53-1.22a2,2,0,0,1,1.76,1.47,2.38,2.38,0,0,1-.72,1.73,5.9,5.9,0,0,1-2.66,1.59c-.62.19-.35,1.15.26,1Z" transform="translate(-0.02)"/>
        <path class="cls-3" d="M318.57,8.23a45.63,45.63,0,0,0-.17,14.38c.1.63,1.06.36,1-.27a44.07,44.07,0,0,1,.16-13.85c.11-.63-.85-.9-1-.26Z" transform="translate(-0.02)"/>
        <path class="cls-3" d="M323.5,19.64c1.29-1.17,3-2.86,2.48-4.8-.37-1.46-2.23-2.84-3.63-1.75s-1.35,3.52-1.16,5.05a10.22,10.22,0,0,0,2,4.86A9.5,9.5,0,0,0,328,26.39a.5.5,0,0,0,.27-1,9,9,0,0,1-6.17-7.93c-.07-1.16.26-5,2.21-3.42s-.34,3.76-1.55,4.86c-.48.44.23,1.15.71.71Z" transform="translate(-0.02)"/>
        <path class="cls-3" d="M328.41,12.31l0,10h1a27.38,27.38,0,0,1,.55-6.32,24.79,24.79,0,0,1,.76-2.81c.19-.58.62-1.86,1.46-1.4s.94,1.49,1.15,2.18a18.32,18.32,0,0,1,.62,2.83,19.11,19.11,0,0,1-.16,6.13c-.12.63.84.9,1,.27A20.08,20.08,0,0,0,335,17.6a16.87,16.87,0,0,0-1.21-5.25c-.52-1.18-1.83-2.3-3.06-1.26a3.67,3.67,0,0,0-1,1.71,26.17,26.17,0,0,0-.79,2.92,28,28,0,0,0-.59,6.58.5.5,0,0,0,1,0l0-10a.5.5,0,0,0-1,0Z" transform="translate(-0.02)"/>
        <path class="cls-3" d="M335.76,15.13a12.52,12.52,0,0,0,.05,3.35,4,4,0,0,0,.9,2.32c1.3,1.27,2.69-.4,3.1-1.61a5.48,5.48,0,0,0-3.53-6.82.51.51,0,0,0-.49.84,18,18,0,0,1,4.47,10.16,7.52,7.52,0,0,1-1.3,5.26,4.58,4.58,0,0,1-4.32,1.83c-.63-.12-.9.84-.27,1a5.45,5.45,0,0,0,4.93-1.67,7.8,7.8,0,0,0,2-5.53A18.62,18.62,0,0,0,336.5,12.5l-.49.84a4.49,4.49,0,0,1,3,4.86c-.11.74-1.07,3-1.85,1.56a5.54,5.54,0,0,1-.47-2.12,12.38,12.38,0,0,1,.05-2.51c.08-.64-.92-.64-1,0Z" transform="translate(-0.02)"/>
        <path class="cls-3" d="M339.72,8.24a24,24,0,0,1,7.77-1.07.5.5,0,0,0,0-1,25.06,25.06,0,0,0-8,1.1c-.62.19-.35,1.16.26,1Z" transform="translate(-0.02)"/>
        <path class="cls-3" d="M342.46.48q0,11,.89,22c0,.63,1,.64,1,0q-.92-11-.89-22a.5.5,0,0,0-1,0Z" transform="translate(-0.02)"/>
        <path class="cls-3" d="M348.23,2.17q.28,9.54,1,19.07a.5.5,0,0,0,1,.13c.59-1.79,1.24-3.57,2-5.32a17.07,17.07,0,0,1,1.11-2.56c.53-.87,1.21-.36,1.62.31a7.24,7.24,0,0,1,.72,2.37,25.44,25.44,0,0,1,.41,2.89,27.16,27.16,0,0,1-.09,5.63c-.08.64.92.64,1,0a28.51,28.51,0,0,0-.06-7c-.23-1.69-.41-4.05-1.84-5.22a1.63,1.63,0,0,0-2-.18,4.8,4.8,0,0,0-1.36,2.31c-.9,2.15-1.72,4.32-2.44,6.53l1,.14q-.72-9.52-1-19.07c0-.64-1-.65-1,0Z" transform="translate(-0.02)"/>
        <path class="cls-3" d="M211.76,14.11V25.28h1a25,25,0,0,0-2.5-9.43,23.94,23.94,0,0,0-1.2-2.15A5.05,5.05,0,0,0,207.66,12c-1.25-.77-2.63.22-3.35,1.25-1.68,2.4-1.58,5.56-.68,8.23s2.59,5.65,5.15,6.92a4.16,4.16,0,0,0,4.19-.11,3.16,3.16,0,0,0,1.53-3.41.5.5,0,0,0-1,.27,2.27,2.27,0,0,1-1.45,2.48,3.27,3.27,0,0,1-3.22-.33,11.37,11.37,0,0,1-4.21-5.89,8.8,8.8,0,0,1,.07-6.92c.52-1,1.78-2.54,2.82-1.23a18,18,0,0,1,2,3.42,23.53,23.53,0,0,1,2.22,8.63.5.5,0,0,0,1,0V14.11a.5.5,0,0,0-1,0Z" transform="translate(-0.02)"/>
        <path class="cls-3" d="M221.6,6.12a63.21,63.21,0,0,0,.74,15.9l.83-.49a18.93,18.93,0,0,0-4.38-3.8,3.52,3.52,0,0,0-2.39-.8,2.4,2.4,0,0,0-1.64,1.22c-1.7,2.89.46,6.86,3.3,8a6.51,6.51,0,0,0,5.55-.31c.57-.3.06-1.17-.5-.86a5.37,5.37,0,0,1-7.88-4.17,3.55,3.55,0,0,1,.48-2.34c.64-.9,1.49-.58,2.3-.09a18.33,18.33,0,0,1,4.46,3.82c.35.42.91,0,.83-.49a62.47,62.47,0,0,1-.7-15.63c.05-.65-.95-.64-1,0Z" transform="translate(-0.02)"/>
        <path class="cls-3" d="M227.73,7.67a50.05,50.05,0,0,1,1.9,6.8c.24,1.18.44,2.38.58,3.58a9.87,9.87,0,0,1,0,3.47c-.32,1.37-1.84,3.5-3.38,2.32-1.36-1.06-1.82-3.1-1.93-4.71,0-.64-1-.64-1,0a8.57,8.57,0,0,0,1.55,4.7,2.76,2.76,0,0,0,3.06,1.24,4.78,4.78,0,0,0,2.78-3.95,20.29,20.29,0,0,0-.58-6.34,49.22,49.22,0,0,0-2-7.37c-.22-.61-1.18-.35-1,.26Z" transform="translate(-0.02)"/>
        <path class="cls-3" d="M239.15,18.85a20.18,20.18,0,0,1,.31,5.43l1-.13a26.23,26.23,0,0,0-1.4-5.53,8.34,8.34,0,0,0-3.34-4.23c-2-1.09-2.89,2.29-3,3.69a6.48,6.48,0,0,0,2,5.17,6.78,6.78,0,0,0,5.76,1.63c.63-.11.36-1.08-.27-1a5.59,5.59,0,0,1-6.54-5.09,5.74,5.74,0,0,1,.34-2.36,4.56,4.56,0,0,1,.51-1c.16-.22.27-.34.54-.24a2.06,2.06,0,0,1,.57.37,8.52,8.52,0,0,1,2.54,3.7,27.31,27.31,0,0,1,1.24,5.12c.1.59,1,.4,1-.13a21.37,21.37,0,0,0-.34-5.7c-.12-.63-1.09-.36-1,.27Z" transform="translate(-0.02)"/>
        <path class="cls-3" d="M247.54,14A4.15,4.15,0,0,0,244.22,16,12.14,12.14,0,0,0,242,20a4.18,4.18,0,0,0,.78,3.95,5,5,0,0,0,3.43,1.56,9,9,0,0,0,5-1.61.5.5,0,0,0-.51-.86,7.94,7.94,0,0,1-4.6,1.47,3.55,3.55,0,0,1-3.21-2.29c-.48-1.63.5-3.3,1.36-4.62C245,16.5,246,15,247.54,15c.64,0,.64-1,0-1Z" transform="translate(-0.02)"/>
        <path class="cls-3" d="M253.1,20.57c1.67-.62,3.84-1.48,4.34-3.4.37-1.4-.33-3.35-1.92-3.58-2-.28-3,2.08-3.23,3.68a8.62,8.62,0,0,0,1,6.28A6,6,0,0,0,259,26.26c.64-.09.37-1.06-.26-1a4.8,4.8,0,0,1-4.12-1.65A6.73,6.73,0,0,1,253.11,19c0-1.31.24-3.43,1.49-4.21s2.06.84,1.93,1.88c-.2,1.7-2.33,2.46-3.69,3-.6.22-.34,1.19.26,1Z" transform="translate(-0.02)"/>
        <path class="cls-3" d="M260.1,16.64a42.65,42.65,0,0,0,.35,9.71c.09.55,1,.43,1-.14a46.89,46.89,0,0,1,0-6.6c.09-1.13.21-2.26.38-3.39a4.11,4.11,0,0,1,.94-2.51,1.07,1.07,0,0,1,1.87.47,19,19,0,0,1,.41,3.37,44.46,44.46,0,0,1,0,6.63c0,.65,1,.64,1,0a43.59,43.59,0,0,0,0-6.26c-.07-1.05-.18-2.09-.32-3.13a3,3,0,0,0-.86-2.08c-1.13-.89-2.72-.13-3.36,1a6.68,6.68,0,0,0-.68,2.4c-.15,1-.26,2-.35,2.92a46.9,46.9,0,0,0,0,7.21l1-.13a40.29,40.29,0,0,1-.32-9.44c0-.65-1-.64-1,0Z" transform="translate(-0.02)"/>
        <path class="cls-3" d="M266.61,13.58l6.83-3.11a.5.5,0,0,0-.5-.86l-6.84,3.1a.5.5,0,0,0,.51.87Z" transform="translate(-0.02)"/>
        <path class="cls-3" d="M270.26,6a53.26,53.26,0,0,0-1.74,19.86c.07.64,1.07.64,1,0a52.51,52.51,0,0,1,1.7-19.6.5.5,0,0,0-1-.26Z" transform="translate(-0.02)"/>
      </g>
      <g>
        <path class="cls-4" d="M203,32.66a125.55,125.55,0,0,0,1.2,19.47c.08.55,1,.42,1-.14a18.39,18.39,0,0,1,.46-6.61,18,18,0,0,1,1.13-3.18c.34-.72.93-2.22,1.93-2.15s1.16,1.31,1.32,2c.28,1.17.52,2.35.72,3.53a60.77,60.77,0,0,1,.77,7.37c0,.64,1,.64,1,0a57.75,57.75,0,0,0-.64-6.57c-.17-1.15-.38-2.29-.62-3.42a10.47,10.47,0,0,0-.75-2.58,2,2,0,0,0-3.47-.52,8.59,8.59,0,0,0-1.39,2.45,19.84,19.84,0,0,0-1,2.81A19.46,19.46,0,0,0,204.2,52l1-.13A122.09,122.09,0,0,1,204,32.66a.5.5,0,0,0-1,0Z" transform="translate(-0.02)"/>
        <path class="cls-4" d="M213.8,39.32a36.64,36.64,0,0,0-.61,5.72c0,1.23-.25,3,.61,4,1,1.21,2.86.53,3.94-.2A5.37,5.37,0,0,0,220.05,45a8.07,8.07,0,0,0-.22-3.28.5.5,0,0,0-1,.27c.75,3.92,1.68,8.41.13,12.26a9.75,9.75,0,0,1-5.2,5c-.64.28-1.3.49-2,.71s-.34,1.17.27,1A15.42,15.42,0,0,0,217,58.49c2.8-2.24,3.8-5.58,3.81-9.07a41,41,0,0,0-1-7.71l-1,.27c.76,2.62-.07,6-3.06,6.66-1.81.43-1.65-1.72-1.63-2.91a35.19,35.19,0,0,1,.6-6.14c.12-.63-.84-.9-1-.27Z" transform="translate(-0.02)"/>
        <path class="cls-4" d="M221.46,42.07v18a.5.5,0,0,0,1,0v-18a.5.5,0,0,0-1,0Z" transform="translate(-0.02)"/>
        <path class="cls-4" d="M222.84,41.81a2,2,0,0,1,2.26-1.6,4.29,4.29,0,0,1,2.83,2.13A6.46,6.46,0,0,1,229.07,45a2.74,2.74,0,0,1-1.39,2.77,5.25,5.25,0,0,1-4.18.33.5.5,0,0,0-.27,1,6.29,6.29,0,0,0,4.69-.29,3.77,3.77,0,0,0,2.18-3.4,6.88,6.88,0,0,0-1.32-3.55,5.27,5.27,0,0,0-3.68-2.6,3,3,0,0,0-3.26,2.6c0,.65,1,.64,1,0Z" transform="translate(-0.02)"/>
        <path class="cls-4" d="M234.42,48.83c-2.51-1.52-3-6.41.23-7.42a4.69,4.69,0,0,1,4.5,1.07,4.14,4.14,0,0,1,.77,4.86,4,4,0,0,1-5.5,1.49.5.5,0,0,0-.5.86,5,5,0,0,0,6.57-7.17,5.66,5.66,0,0,0-5.3-2.24A4.27,4.27,0,0,0,231.46,44a5.7,5.7,0,0,0,2.46,5.72A.5.5,0,0,0,234.42,48.83Z" transform="translate(-0.02)"/>
        <path class="cls-4" d="M240.17,38.92q5.24-1.45,10.35-3.3c.6-.22.34-1.18-.27-1Q245.14,36.5,239.9,38a.5.5,0,0,0,.27,1Z" transform="translate(-0.02)"/>
        <path class="cls-4" d="M245.12,33a132.8,132.8,0,0,0-1,16.91.5.5,0,0,0,1,0,132.8,132.8,0,0,1,1-16.91c.08-.63-.92-.63-1,0Z" transform="translate(-0.02)"/>
        <path class="cls-4" d="M251,46.21c1.84-1.26,4.15-2.9,4.17-5.39,0-1.92-1.47-4-3.59-3.51s-3.07,3.32-3.14,5.32a10.14,10.14,0,0,0,1.88,6.12,9.61,9.61,0,0,0,5.89,4c.62.13.89-.83.26-1a9.14,9.14,0,0,1-6.89-7.24,6.94,6.94,0,0,1,.85-5.19,2.07,2.07,0,0,1,2.35-1,2.43,2.43,0,0,1,1.33,1.86c.47,2.36-1.94,4-3.62,5.14-.53.36,0,1.23.51.87Z" transform="translate(-0.02)"/>
        <path class="cls-4" d="M258.77,40.38a40.51,40.51,0,0,0,.66,9.89c.11.54,1.06.43,1-.13a25.4,25.4,0,0,1,0-6.46,24.17,24.17,0,0,1,.67-3.26,3.22,3.22,0,0,1,1.33-2.07c1-.48,1.35,1,1.57,1.65a19.61,19.61,0,0,1,.92,9.25c-.09.63.87.9,1,.26a21,21,0,0,0,.06-5.66,17,17,0,0,0-1.51-5.46,1.87,1.87,0,0,0-3.28-.24c-1.15,1.34-1.41,3.37-1.65,5.05a26,26,0,0,0-.06,6.94l1-.14a38.8,38.8,0,0,1-.63-9.62c0-.64-1-.64-1,0Z" transform="translate(-0.02)"/>
        <path class="cls-4" d="M267.47,40.36a19.82,19.82,0,0,0,2.76,7.93,7.89,7.89,0,0,0,1.6,2,2.52,2.52,0,0,0,2,.68,2.34,2.34,0,0,0,1.61-1.45,12.1,12.1,0,0,0,1-5.24A13,13,0,0,0,275,38.47c-.3-.57-1.17-.07-.86.5a11.71,11.71,0,0,1,1.38,5.53,11.25,11.25,0,0,1-.36,3c-.2.76-.47,2.08-1.23,2.48s-1.75-.61-2.18-1.21a17,17,0,0,1-1.49-2.53,18.62,18.62,0,0,1-1.75-5.83c-.08-.63-1.09-.64-1,0Z" transform="translate(-0.02)"/>
        <path class="cls-4" d="M288.86,45.27c1.15-1.31,3-2.16,3.33-4,.25-1.42-.61-3.12-2.28-2.8s-2.41,2.33-2.45,3.82a8.37,8.37,0,0,0,6,8.06.5.5,0,0,0,.26-1,7.37,7.37,0,0,1-5.11-5.57,4.36,4.36,0,0,1,.67-3.81,1.14,1.14,0,0,1,1.57-.36,1.51,1.51,0,0,1,.38,1.43c-.27,1.59-2.09,2.41-3.06,3.53-.43.49.28,1.2.7.71Z" transform="translate(-0.02)"/>
        <path class="cls-4" d="M301.84,32.94q-.37,7.35-.32,14.72c0,1.16,0,2.35.06,3.5.05.65.32,1.54,1.12,1.57,1.44.05.62-2.5-.37-1.48-.45.46.25,1.17.7.71-1.08,1.11-.51-.23-.54-.1s.08,0,.21-.2l-.06-.16c0-.33-.07-.65-.08-1,0-.82,0-1.65,0-2.47,0-1.7,0-3.39,0-5.08q.06-5,.31-10c0-.65-1-.65-1,0Z" transform="translate(-0.02)"/>
        <path class="cls-4" d="M306.4,45.79l2.36-2.65A3.9,3.9,0,0,0,310,40.9a1.91,1.91,0,0,0-3.14-1.5,4.13,4.13,0,0,0-1.12,2.06,11.36,11.36,0,0,0-.48,3.06,7.71,7.71,0,0,0,1.86,5.16,8,8,0,0,0,5.12,2.64c.64.08.63-.92,0-1A7,7,0,0,1,307.79,49a6.81,6.81,0,0,1-1.53-5.21,9.38,9.38,0,0,1,.67-2.81c.3-.7,1.18-1.55,1.85-.65s-.31,1.66-.79,2.2l-2.29,2.58c-.43.48.27,1.19.7.71Z" transform="translate(-0.02)"/>
        <path class="cls-4" d="M312.64,40.14l0,10.41h1a20.38,20.38,0,0,1,3-11.22h-.86A18.1,18.1,0,0,1,317.09,49c-.09.63.87.91,1,.27a19.25,19.25,0,0,0-1.35-10.44c-.15-.37-.68-.29-.86,0a21.34,21.34,0,0,0-3.17,11.72.5.5,0,0,0,1,0l0-10.41a.5.5,0,0,0-1,0Z" transform="translate(-0.02)"/>
        <path class="cls-4" d="M319.54,42.19c.35.84-.07,1.66-.1,2.53a2.4,2.4,0,0,0,.47,1.51,2,2,0,0,0,3.15,0c1.64-2,.11-4.7-2.06-5.47a.51.51,0,0,0-.56.74c1.77,2.63,4.11,6,2.49,9.3s-5.91,3.1-9.09,2.85c-.64-.06-.64.95,0,1,3.56.28,8.1.38,10-3.35S323.32,44,321.3,41l-.57.74c1.47.52,2.69,2.33,1.62,3.78-.68.93-1.79.48-1.91-.59a7.41,7.41,0,0,1,.21-1.55,2.73,2.73,0,0,0-.14-1.47c-.25-.59-1.21-.33-1,.27Z" transform="translate(-0.02)"/>
        <path class="cls-4" d="M322.71,39a45.25,45.25,0,0,0,9.76-1.34c.63-.15.36-1.12-.26-1a44.81,44.81,0,0,1-9.5,1.3.5.5,0,0,0,0,1Z" transform="translate(-0.02)"/>
        <path class="cls-4" d="M327.28,33.57V50.46a.5.5,0,0,0,1,0V33.57a.5.5,0,0,0-1,0Z" transform="translate(-0.02)"/>
        <path class="cls-4" d="M333.51,34.7a52.66,52.66,0,0,0,1.64,16.58.51.51,0,0,0,1,0,34,34,0,0,1,1.6-5c.28-.67,1.5-4.15,2.64-2.67a4.58,4.58,0,0,1,.62,1.92,28.43,28.43,0,0,1,.39,2.9,28.86,28.86,0,0,1-.07,5.42c-.07.64.93.63,1,0a28.9,28.9,0,0,0-.08-6.83c-.18-1.4-.27-3.8-1.71-4.58-1.67-.9-2.72,1.22-3.25,2.41A34.56,34.56,0,0,0,335.15,51h1a51.25,51.25,0,0,1-1.61-16.31c0-.65-1-.65-1,0Z" transform="translate(-0.02)"/>
        <path class="cls-4" d="M286.72,37.94a9,9,0,0,0-5.06,1.71,9.25,9.25,0,0,0-2,1.9A4.48,4.48,0,0,0,278.58,44c0,1.66,2.46,2,3.69,2.29s3.57.7,3.26,2.57c-.44,2.68-3.87,2.57-5.89,2.43-.65,0-.64,1,0,1,1.93.13,4.16.22,5.7-1.18a3.12,3.12,0,0,0,.56-4.31c-1-1.14-2.62-1.3-4-1.6-.66-.15-1.8-.33-2.22-.92s.85-2.28,1.33-2.79a8.12,8.12,0,0,1,5.69-2.59c.64,0,.64-1,0-1Z" transform="translate(-0.02)"/>
      </g>
      <path class="cls-1" d="M191,33.29c11.2-1.13,22.43-2,33.68-2.31s22.46.32,33.68,1.07,22.34,1.32,33.56,1.19,22.32-.66,33.49-.9a273.26,273.26,0,0,1,37.41,1.24c1.28.14,1.27-1.86,0-2-22.21-2.55-44.57-.82-66.84-.4-11.21.22-22.37-.13-33.55-.86s-22.41-1.52-33.65-1.41C216.19,29,203.6,30,191,31.29c-1.27.13-1.28,2.13,0,2Z" transform="translate(-0.02)"/>
      <g>
        <path class="cls-1" d="M26.1,12.46c-8.42-2.87-18.11,2-23,9A16.75,16.75,0,0,0,.22,33.65c.72,4.5,3.66,8,7.51,10.19a28.24,28.24,0,0,0,15.54,3.68c1.28-.07,1.29-2.07,0-2A26.5,26.5,0,0,1,10.42,43c-3.61-1.74-6.8-4.34-7.93-8.33-2.23-7.85,3.3-15.26,10-18.78,4-2.11,8.75-3,13.11-1.5,1.22.42,1.74-1.52.53-1.93Z" transform="translate(-0.02)"/>
        <path class="cls-1" d="M26.57,43.21c-2.25-2-.73-5.65.29-7.86,1.24-2.69,3.14-5.45,6.4-5.55a6.56,6.56,0,0,1,6.38,4,7.54,7.54,0,0,1-1.88,7.93,8.42,8.42,0,0,1-9.54,1c-1.13-.62-2.14,1.11-1,1.73a10.57,10.57,0,0,0,10.84-.41,9.55,9.55,0,0,0,3.83-9.69,8.46,8.46,0,0,0-7.4-6.53,7.89,7.89,0,0,0-4.9,1,10.83,10.83,0,0,0-3.89,4.38c-1.69,3.18-3.87,8.52-.54,11.41,1,.84,2.39-.57,1.42-1.41Z" transform="translate(-0.02)"/>
        <path class="cls-1" d="M54.26,21.7a17.65,17.65,0,0,0-5.59,2.12,14.18,14.18,0,0,0-4.42,3.84,3.56,3.56,0,0,0,.19,4.51A8.06,8.06,0,0,0,48.17,34a9.65,9.65,0,0,1,3.72,1.51,5.67,5.67,0,0,1,1.77,3.23,7.07,7.07,0,0,1-2.77,7.17c-3.23,2.26-7.55,2.11-11.11.77a1,1,0,0,0-1.23.7,1,1,0,0,0,.7,1.23,14.69,14.69,0,0,0,10.62.11,9.13,9.13,0,0,0,5.8-7.08,8.25,8.25,0,0,0-2.9-8,12.78,12.78,0,0,0-4.06-1.61c-1-.28-2.64-.65-3.08-1.62-.71-1.58,1.87-3.42,3-4.22a16.05,16.05,0,0,1,6.14-2.59c1.26-.25.73-2.17-.53-1.93Z" transform="translate(-0.02)"/>
      </g>
    </g>
  </g>
</svg>
