<svg xmlns="http://www.w3.org/2000/svg" viewBox="0 0 383.78 170.5">
  <defs>
    <style>
      .cls-1 {
        fill: #808285;
      }

      .cls-2 {
        fill: #231f20;
      }

      .cls-3 {
        fill: #ed1c24;
      }

      .cls-4 {
        fill: #fff;
      }
    </style>
  </defs>
  <title>cos-truncated</title>
  <g id="Layer_2" data-name="Layer 2">
    <g id="Layer_1-2" data-name="Layer 1">
      <g>
        <path class="cls-1" d="M1.65,102.47c49.53,1.12,99.08,1.33,148.62,1.25,49.31-.08,98.62-.35,147.93-.55l83.47-.34a1,1,0,0,0,0-2l-148.73.6c-49.3.2-98.59.47-147.89.18q-41.7-.26-83.4-1.14a1,1,0,0,0,0,2Z" transform="translate(-0.01)"/>
        <path class="cls-1" d="M369.27,92.48a59.78,59.78,0,0,1,11.37,8.29,4.78,4.78,0,0,1,1.05,1.15c.22.43-.06.72-.35,1a33.19,33.19,0,0,1-2.46,2.28,57.53,57.53,0,0,1-5.75,4.44c-1.05.73-.05,2.46,1,1.73,1.74-1.19,3.42-2.45,5-3.8.81-.68,1.6-1.37,2.38-2.09a8,8,0,0,0,2-2.29c.91-2-1.16-3.58-2.49-4.77a61.38,61.38,0,0,0-4.8-3.86,62.84,62.84,0,0,0-6-3.85,1,1,0,0,0-1,1.73Z" transform="translate(-0.01)"/>
        <path class="cls-1" d="M12.54,91.51A49.78,49.78,0,0,0,2.13,99.1a6.92,6.92,0,0,0-2,2.47A2.93,2.93,0,0,0,1,104.48a31.27,31.27,0,0,0,4.75,4.15A39,39,0,0,0,12,112.39c1.15.57,2.17-1.16,1-1.72a38,38,0,0,1-9.38-6.41c-.33-.32-.66-.64-1-1s-.61-.58-.65-.91.34-.67.56-.9.7-.7,1.06-1A44.81,44.81,0,0,1,8,96.78a50.27,50.27,0,0,1,5.56-3.54c1.13-.62.12-2.35-1-1.73Z" transform="translate(-0.01)"/>
      </g>
      <g>
        <path class="cls-1" d="M185.28,37.18q-1.92,25.56-3,51.17T180.8,139.6q-.18,14.39-.11,28.77a1,1,0,0,0,2,0q-.12-25.63.55-51.26t2.14-51.22q.83-14.37,1.9-28.71c.1-1.29-1.9-1.28-2,0Z" transform="translate(-0.01)"/>
        <path class="cls-1" d="M179.94,48l3.4-5.46,1.7-2.73c.27-.42.52-.84.79-1.25.13-.21.36-.66.6-.74.49-.16,1.24,1,1.51,1.32l2.12,2.39,4.24,4.76c.85,1,2.26-.45,1.41-1.41L191,39.58c-.8-.9-1.58-1.82-2.41-2.7a2.62,2.62,0,0,0-2.56-1A3.76,3.76,0,0,0,184,37.78l-1.9,3L178.21,47c-.68,1.09,1,2.1,1.73,1Z" transform="translate(-0.01)"/>
        <path class="cls-1" d="M172.58,158.46a33.77,33.77,0,0,0,5.77,9.18c.59.66,1.2,1.3,1.84,1.92a2.5,2.5,0,0,0,2.39.87c1.61-.41,2.29-2.31,3.24-3.49a7.71,7.71,0,0,1,4.3-3c1.25-.27.72-2.2-.53-1.93a9.21,9.21,0,0,0-4.82,3.05,19.35,19.35,0,0,0-1.74,2.38c-.19.3-.48.86-.84,1s-.53-.25-.74-.45a32.47,32.47,0,0,1-7.15-10.55,1,1,0,0,0-1.36-.35,1,1,0,0,0-.36,1.36Z" transform="translate(-0.01)"/>
      </g>
      <path class="cls-2" d="M233.15,97.13c-.4,3.56-.65,7.12-.74,10.7,0,.64,1,.64,1,0,.09-3.58.34-7.14.74-10.7.08-.63-.92-.63-1,0Z" transform="translate(-0.01)"/>
      <g>
        <path class="cls-2" d="M227,112.91l-.66,6.74a.5.5,0,0,0,.5.5.51.51,0,0,0,.5-.5l.66-6.74a.5.5,0,0,0-.5-.5.51.51,0,0,0-.5.5Z" transform="translate(-0.01)"/>
        <path class="cls-2" d="M229.86,110.63l1,7.34a.51.51,0,0,0,.5.5c.24,0,.54-.23.5-.5l-1-7.34a.5.5,0,0,0-1,0Z" transform="translate(-0.01)"/>
        <path class="cls-2" d="M223.77,113.65a13.85,13.85,0,0,1,9.28-2.86c.64,0,.64-1,0-1a14.65,14.65,0,0,0-9.78,3c-.51.38,0,1.25.5.86Z" transform="translate(-0.01)"/>
        <path class="cls-2" d="M234.65,114.64l-6,11.5c-.3.57.57,1.08.86.51l6-11.51c.3-.57-.57-1.07-.86-.5Z" transform="translate(-0.01)"/>
        <path class="cls-2" d="M235.16,121.58a1.44,1.44,0,0,1,1.67-.31,1.84,1.84,0,0,1,1.1,1.78c0,2-1.81,3.26-3.32,4.22-.32.21-.33.85.12.92l4.7.69,1.14.17c.32,0,.73.19,1,0a.77.77,0,0,0-.25-1.36.5.5,0,0,0-.27,1c-.2-.11-.21-.25,0-.42l.39-.05-6.41-.95.12.92a10.81,10.81,0,0,0,2.86-2.39,4.27,4.27,0,0,0,.87-3.39,2.71,2.71,0,0,0-2-2.13,2.36,2.36,0,0,0-2.55.84c-.39.52.48,1,.86.51Z" transform="translate(-0.01)"/>
      </g>
      <path class="cls-2" d="M275.67,97.7l-.69,8.15c-.05.64.95.64,1,0l.69-8.15c.05-.65-.95-.64-1,0Z" transform="translate(-0.01)"/>
      <path class="cls-2" d="M144.2,100.11l-.06,4.75c0,1-.35,2.86.81,3.46.57.29,1.07-.57.5-.87-.4-.21-.34-.83-.33-1.22,0-.66,0-1.32,0-2l.06-4.13a.5.5,0,0,0-1,0Z" transform="translate(-0.01)"/>
      <g>
        <path class="cls-2" d="M137,117.45a10.2,10.2,0,0,0,4.11-.34.5.5,0,0,0-.27-1,9.58,9.58,0,0,1-3.84.3c-.27,0-.5.25-.5.5a.52.52,0,0,0,.5.5Z" transform="translate(-0.01)"/>
        <path class="cls-2" d="M142.56,112.89a30,30,0,0,1,.16,5.92c-.05.64.95.64,1,0a30,30,0,0,0-.16-5.92.5.5,0,1,0-1,0Z" transform="translate(-0.01)"/>
        <path class="cls-2" d="M145.17,112.89a19.22,19.22,0,0,1,.53,5.07.5.5,0,0,0,1,0,20.46,20.46,0,0,0-.56-5.34c-.15-.62-1.12-.36-1,.27Z" transform="translate(-0.01)"/>
        <path class="cls-2" d="M140.83,114.18l6.48-2c.61-.19.35-1.15-.27-1l-6.47,2a.5.5,0,0,0,.26,1Z" transform="translate(-0.01)"/>
        <path class="cls-2" d="M149.35,113.71a85.76,85.76,0,0,1-5,10.17.5.5,0,0,0,.87.5A87.33,87.33,0,0,0,150.31,114c.25-.59-.72-.85-1-.26Z" transform="translate(-0.01)"/>
        <path class="cls-2" d="M149.3,121.05c0-.68.94-1,1.44-.65a1.75,1.75,0,0,1,.09,2.38,3.78,3.78,0,0,1-1.25,1c-.43.24-1.1.38-1.37.82a.89.89,0,0,0,.45,1.28,3.62,3.62,0,0,0,1.57.18c1,0,2.31-.16,3.07.69.43.48,1.13-.23.7-.71a3.88,3.88,0,0,0-3.11-1h-.84a3.44,3.44,0,0,1-.85,0,.36.36,0,0,0-.11,0c-.27,0,0-.07,0,0v.18l.19-.1c.29-.13.57-.25.85-.41a3.79,3.79,0,0,0,2.14-2.79,2.26,2.26,0,0,0-1.53-2.57,1.9,1.9,0,0,0-2.39,1.74c0,.64,1,.64,1,0Z" transform="translate(-0.01)"/>
      </g>
      <path class="cls-2" d="M104.76,100.51a46.06,46.06,0,0,0,.2,7.61c.07.63,1.07.64,1,0a46.06,46.06,0,0,1-.2-7.61c0-.64-1-.64-1,0Z" transform="translate(-0.01)"/>
      <g>
        <path class="cls-2" d="M96.79,117l3.37-.35a.51.51,0,0,0,.5-.5.5.5,0,0,0-.5-.5l-3.37.35a.51.51,0,0,0-.5.5.5.5,0,0,0,.5.5Z" transform="translate(-0.01)"/>
        <path class="cls-2" d="M103.12,114.27a33.17,33.17,0,0,1,.5,4.67c0,.64,1,.64,1,0a34,34,0,0,0-.54-4.93.5.5,0,0,0-.62-.35.51.51,0,0,0-.34.61Z" transform="translate(-0.01)"/>
        <path class="cls-2" d="M106.52,112.85a10.42,10.42,0,0,1,1,5.68.5.5,0,0,0,.5.5.51.51,0,0,0,.5-.5,11.29,11.29,0,0,0-1.16-6.18c-.28-.58-1.15-.07-.86.5Z" transform="translate(-0.01)"/>
        <path class="cls-2" d="M101.5,114.93a23.31,23.31,0,0,1,9.1-2.79c.63,0,.64-1,0-1a24.65,24.65,0,0,0-9.61,2.93c-.56.31-.06,1.17.51.86Z" transform="translate(-0.01)"/>
      </g>
      <path class="cls-2" d="M69.87,98.26a34,34,0,0,0,.45,9.44c.11.63,1.08.36,1-.27a33.17,33.17,0,0,1-.41-9.17c.06-.64-.94-.63-1,0Z" transform="translate(-0.01)"/>
      <g>
        <path class="cls-2" d="M61.88,121.26a10.5,10.5,0,0,0,3.79-.25.51.51,0,0,0,.35-.62.51.51,0,0,0-.61-.35,9.55,9.55,0,0,1-3.53.22.5.5,0,0,0,0,1Z" transform="translate(-0.01)"/>
        <path class="cls-2" d="M67.39,114.47a.92.92,0,0,1,1.09-.13,1.23,1.23,0,0,1,.62,1.21c0,1.19-1.11,1.93-2.06,2.43-.49.27-.16,1.1.38.92a2.19,2.19,0,1,1,.37,4.19c-.64-.09-.63.91,0,1a3.18,3.18,0,1,0-.63-6.16l.38.92c1.46-.78,2.92-2.17,2.49-4a2,2,0,0,0-3.34-1.1c-.46.46.25,1.17.7.71Z" transform="translate(-0.01)"/>
        <path class="cls-2" d="M72.61,116.55l.33,5.93c0,.64,1,.64,1,0l-.33-5.93c0-.64-1-.64-1,0Z" transform="translate(-0.01)"/>
        <path class="cls-2" d="M75.09,114.72l1.19,6.46c.12.63,1.08.36,1-.27l-1.19-6.46c-.11-.63-1.08-.36-1,.27Z" transform="translate(-0.01)"/>
        <path class="cls-2" d="M70.58,118.37c2.81-.6,4.54-3.39,7.37-3.87.63-.11.37-1.08-.27-1-2.85.49-4.57,3.28-7.36,3.88-.63.13-.37,1.09.26,1Z" transform="translate(-0.01)"/>
        <path class="cls-2" d="M68.09,128.32a81,81,0,0,1,11.19-6.58c.58-.28.08-1.15-.5-.87a81.47,81.47,0,0,0-11.19,6.59c-.53.37,0,1.24.5.86Z" transform="translate(-0.01)"/>
        <path class="cls-2" d="M71.57,128a4.41,4.41,0,0,1,3,.14,2.17,2.17,0,0,1,1.22,2.06c-.11,1-1.35,1.52-2.13,2-1.08.61-2.18,1.19-3.29,1.73a.5.5,0,0,0,.25.93,24.53,24.53,0,0,1,8.27.78.5.5,0,0,0,.27-1,25.12,25.12,0,0,0-8.54-.82l.25.93c1.41-.68,2.79-1.41,4.13-2.21a2.92,2.92,0,0,0,1.79-2.67,3.24,3.24,0,0,0-1.71-2.59A5.52,5.52,0,0,0,71.3,127c-.62.15-.36,1.12.27,1Z" transform="translate(-0.01)"/>
      </g>
      <path class="cls-2" d="M316.91,97.54a35.14,35.14,0,0,0-.39,9.44c.06.64,1.06.64,1,0a34.44,34.44,0,0,1,.35-9.18c.11-.63-.85-.9-1-.26Z" transform="translate(-0.01)"/>
      <g>
        <path class="cls-2" d="M309.94,111.11a4.23,4.23,0,0,1,2-.62,1.16,1.16,0,0,1,1.17.8,1.33,1.33,0,0,1-.81,1.31,4.66,4.66,0,0,1-2.13.33.5.5,0,0,0-.14,1c1,.33,2.12.82,2.39,1.92a1.06,1.06,0,0,1-.29,1.11.79.79,0,0,1-.95.12c-.55-.34-1.05.52-.51.87a1.93,1.93,0,0,0,2.8-1.79c0-1.77-1.7-2.69-3.17-3.19l-.13,1a5,5,0,0,0,2.91-.64,2.25,2.25,0,0,0,1-2.25,2.11,2.11,0,0,0-1.76-1.51,4.7,4.7,0,0,0-2.86.72c-.58.29-.07,1.15.5.86Z" transform="translate(-0.01)"/>
        <path class="cls-2" d="M315.62,111.49v5.35a.5.5,0,0,0,1,0v-5.35a.5.5,0,0,0-1,0Z" transform="translate(-0.01)"/>
        <path class="cls-2" d="M317.34,110.49a17.83,17.83,0,0,1,1.13,4.66.51.51,0,0,0,.5.5.5.5,0,0,0,.5-.5,18.11,18.11,0,0,0-1.17-4.92.5.5,0,0,0-.61-.35.5.5,0,0,0-.35.61Z" transform="translate(-0.01)"/>
        <path class="cls-2" d="M315.18,112a10.68,10.68,0,0,1,5.27-2.66.5.5,0,0,0,.35-.61.5.5,0,0,0-.61-.35,11.42,11.42,0,0,0-5.71,2.92c-.48.44.23,1.14.7.7Z" transform="translate(-0.01)"/>
        <path class="cls-2" d="M308.82,120.54c3.74,1,6.9-2.08,10.54-2.16a.5.5,0,0,0,0-1,15.36,15.36,0,0,0-5.17,1.41c-1.62.64-3.36,1.27-5.11.78a.5.5,0,0,0-.26,1Z" transform="translate(-0.01)"/>
        <path class="cls-2" d="M314.65,122.39a.7.7,0,0,1,.88.06,1,1,0,0,1,.24,1.16c-.44,1.18-1.89,1.42-3,1.63-.53.1-.42.81,0,1l5.81,2.15a.5.5,0,1,0,.26-1l-5.81-2.15v1a6.45,6.45,0,0,0,2.53-.86,2.88,2.88,0,0,0,1.26-2,1.87,1.87,0,0,0-.94-1.83,1.67,1.67,0,0,0-2,.17c-.47.44.24,1.15.71.71Z" transform="translate(-0.01)"/>
      </g>
      <g>
        <path class="cls-2" d="M272.24,114a1.76,1.76,0,0,0-.79,1.48c-.11.87-.2,1.74-.31,2.6l-.62,5.2c-.08.64.92.64,1,0l.54-4.5.27-2.26c0-.34.07-.69.12-1s.07-.5.29-.61c.58-.29.07-1.16-.5-.87Z" transform="translate(-0.01)"/>
        <path class="cls-2" d="M275.37,114.59a43.54,43.54,0,0,1-.61,8.3c-.11.63.85.9,1,.27a44,44,0,0,0,.65-8.57.5.5,0,0,0-1,0Z" transform="translate(-0.01)"/>
        <path class="cls-2" d="M269.94,114.36l9.58.47c.64,0,.64-1,0-1l-9.58-.47c-.64,0-.64,1,0,1Z" transform="translate(-0.01)"/>
      </g>
      <g>
        <path class="cls-2" d="M202.48,3c-2.66,8-5.47,17-2.34,25.37A6.71,6.71,0,0,0,201.71,31a2.38,2.38,0,0,0,2.88.49,1,1,0,0,0-1-1.73c-.54.3-1.22-1.28-1.35-1.59a19.91,19.91,0,0,1-1-3.38,24.93,24.93,0,0,1-.35-6.9c.38-5,2-9.75,3.54-14.44.4-1.23-1.53-1.75-1.93-.53Z" transform="translate(-0.01)"/>
        <path class="cls-2" d="M209.85,5.17a29.06,29.06,0,0,0-2.63,10.44c-.17,3.12.51,6.61,3.34,8.39a5.61,5.61,0,0,0,4,.83A5.14,5.14,0,0,0,218,22a12.4,12.4,0,0,0,.7-9.52c-1.05-3.21-3.76-6.7-7.54-6-1.26.23-.73,2.15.53,1.93,2.41-.44,4.24,2.3,4.94,4.22a10.87,10.87,0,0,1,0,7.74,3.88,3.88,0,0,1-2.17,2.41,3.55,3.55,0,0,1-2.88-.53c-2.17-1.37-2.47-4.24-2.36-6.57a26.46,26.46,0,0,1,2.36-9.53,1,1,0,0,0-.36-1.37,1,1,0,0,0-1.36.36Z" transform="translate(-0.01)"/>
        <path class="cls-2" d="M209.7,17.75a4.93,4.93,0,0,0,2.41-.14c.69-.22,1.43-.59,2-.84.27-.1.55-.19.83-.27l.42-.09c-.1,0,0,0,.06,0l.21,0a1.64,1.64,0,0,1,.71.08.92.92,0,0,1,.45.28,1,1,0,0,0,1.41-1.41,4,4,0,0,0-4-.71c-.67.2-1.31.53-2,.79a3.67,3.67,0,0,1-2,.4,1,1,0,1,0-.53,1.93Z" transform="translate(-0.01)"/>
        <path class="cls-2" d="M221.09,3.56A29.91,29.91,0,0,1,225,13.9a25.76,25.76,0,0,1-.1,10.53,6.63,6.63,0,0,1-2.57,4.18c-1.08.69-.08,2.42,1,1.72,3.17-2,3.86-6,4.06-9.52a31.4,31.4,0,0,0-1.67-12,32.12,32.12,0,0,0-2.94-6.25c-.67-1.09-2.41-.09-1.73,1Z" transform="translate(-0.01)"/>
        <path class="cls-2" d="M172,0a26,26,0,0,0-15.84,11.13c-3.08,4.76-5,12.65.1,16.83,3.07,2.51,7.23,2.44,11,2.16,1.27-.09,1.28-2.09,0-2-2.91.22-6.22.45-8.84-1.09a7.25,7.25,0,0,1-3.28-6.57c.05-5.69,3.93-11,8.31-14.28A23.83,23.83,0,0,1,172.54,2c1.25-.29.72-2.22-.53-1.93Z" transform="translate(-0.01)"/>
        <path class="cls-2" d="M171.27,22.35a4.36,4.36,0,0,1,1.57-4.84,3.78,3.78,0,0,1,4.74-.2,5.25,5.25,0,0,1,2,4.32,4.25,4.25,0,0,1-2.77,3.7,5.29,5.29,0,0,1-5.45-.82c-.95-.87-2.37.54-1.42,1.42a7.29,7.29,0,0,0,6.78,1.53,6.4,6.4,0,0,0,4.76-4.87,7.2,7.2,0,0,0-2.26-6.49,5.77,5.77,0,0,0-7-.64c-2.42,1.5-4,4.64-2.95,7.42a1,1,0,0,0,1.23.7,1,1,0,0,0,.7-1.23Z" transform="translate(-0.01)"/>
        <path class="cls-2" d="M191.38,7.91a27.61,27.61,0,0,0-4.74,4.36,9.39,9.39,0,0,0-1.95,2.78,2.38,2.38,0,0,0,1,2.64c1.32,1,3,2,3.93,3.39a3.17,3.17,0,0,1-.85,4.35c-1.86,1.56-4.57,1.39-6.84,1.32-1.29,0-1.28,2,0,2,2.3.07,4.7.1,6.81-.93a6,6,0,0,0,3.43-4.59,5.81,5.81,0,0,0-2.3-4.82c-.72-.63-1.5-1.19-2.27-1.76a3.86,3.86,0,0,1-1-.78c-.21-.34.27-.77.48-1a24.75,24.75,0,0,1,5.24-5.18,1,1,0,0,0,.36-1.37,1,1,0,0,0-1.37-.36Z" transform="translate(-0.01)"/>
      </g>
      <path class="cls-2" d="M35.69,97.79l.43,9.39c0,.64,1,.64,1,0l-.43-9.39c0-.64-1-.64-1,0Z" transform="translate(-0.01)"/>
      <path class="cls-2" d="M23,115.84l6.16-.56a.5.5,0,0,0,0-1l-6.16.56a.52.52,0,0,0-.5.5.5.5,0,0,0,.5.5Z" transform="translate(-0.01)"/>
      <path class="cls-2" d="M29,110.36c1-.56,2.26.19,3,1a5.13,5.13,0,0,1,1.34,3.41c0,2.57-2.74,3.76-4.75,4.66-.47.2-.22.94.25.93l8.25-.27c.64,0,.64-1,0-1l-8.25.27.25.93c2.61-1.15,5.6-2.82,5.21-6.14a6.14,6.14,0,0,0-2-3.85,3.41,3.41,0,0,0-3.82-.76c-.57.31-.07,1.17.5.86Z" transform="translate(-0.01)"/>
      <path class="cls-2" d="M38.37,111.85v6.84a.5.5,0,0,0,1,0v-6.84a.5.5,0,0,0-1,0Z" transform="translate(-0.01)"/>
      <path class="cls-2" d="M41.11,110.74a26.91,26.91,0,0,1,.68,7.64c0,.64,1,.64,1,0a28,28,0,0,0-.71-7.9c-.15-.63-1.11-.36-1,.26Z" transform="translate(-0.01)"/>
      <path class="cls-2" d="M36.05,113.22a11,11,0,0,1,4.59-1.66l5.63-1c.63-.12.37-1.08-.26-1l-5.8,1.09a11.3,11.3,0,0,0-4.67,1.73c-.51.38,0,1.25.51.86Z" transform="translate(-0.01)"/>
      <path class="cls-2" d="M355.87,98.16l-.39,9c0,.65,1,.64,1,0l.39-9a.5.5,0,0,0-1,0Z" transform="translate(-0.01)"/>
      <g>
        <path class="cls-2" d="M347.17,112.61c1.63,0,3.77-.07,4.65,1.59a1.75,1.75,0,0,1-1.06,2.51c-1.88.83-4.48.66-5.66,2.66a.5.5,0,0,0,.3.73l9.8,1.66c.63.11.9-.86.27-1l-9.81-1.66.3.73a3.42,3.42,0,0,1,2.15-1.36c.94-.28,1.91-.43,2.82-.79a3.23,3.23,0,0,0,1.91-1.64,3,3,0,0,0-.9-3.32c-1.31-1.16-3.12-1.18-4.77-1.15a.5.5,0,0,0,0,1Z" transform="translate(-0.01)"/>
        <path class="cls-2" d="M356.77,113.56l-.83,6.37c0,.27.25.5.5.5a.51.51,0,0,0,.5-.5l.83-6.37c0-.27-.25-.5-.5-.5a.51.51,0,0,0-.5.5Z" transform="translate(-0.01)"/>
        <path class="cls-2" d="M358.36,111.79a14.74,14.74,0,0,1,.62,6.88.5.5,0,1,0,1,.26,15.92,15.92,0,0,0-.61-7.41c-.21-.61-1.17-.35-1,.27Z" transform="translate(-0.01)"/>
        <path class="cls-2" d="M355.2,113.88a9.89,9.89,0,0,1,7.51-1.14.5.5,0,0,0,.27-1,10.9,10.9,0,0,0-8.29,1.23c-.54.34,0,1.2.51.87Z" transform="translate(-0.01)"/>
      </g>
      <g>
        <path class="cls-3" d="M233.68,102.56a64.52,64.52,0,0,0-9.75-23.66A61.29,61.29,0,0,0,197.9,57a60,60,0,0,0-10.75-3.59,1.54,1.54,0,0,0-1.85,1,1.52,1.52,0,0,0,1,1.85,56.22,56.22,0,0,1,8.86,2.79c.86.34,1.75.74,2.76,1.22s2.13,1.05,3.17,1.62a57.77,57.77,0,0,1,19.11,16.9,62.44,62.44,0,0,1,7.38,13.57,63.29,63.29,0,0,1,3.15,10.94,1.5,1.5,0,1,0,2.9-.8Z" transform="translate(-0.01)"/>
        <g>
          <path class="cls-4" d="M229.21,102.47a3.25,3.25,0,0,1,1.3-3.29,2.78,2.78,0,0,1,3.55.6c1.43,1.63.82,4.81-1.08,5.65s-4.32-1-4.3-3.26" transform="translate(-0.01)"/>
          <path class="cls-3" d="M230.65,102.07c-.06-.32,0,.37,0,0a2.44,2.44,0,0,1,0-.27,1.77,1.77,0,0,1,0-.23c0-.22.09-.1,0,.08a2.74,2.74,0,0,0,.13-.53.85.85,0,0,0,.06-.17c-.1.41,0,.08,0,0s.1-.15.14-.23.12,0-.08.09a2.53,2.53,0,0,0,.36-.37c.18-.17-.07.08-.1.08s.18-.12.22-.14.31-.06,0,0l.25-.08c.07,0,.17,0,.25,0-.34.12-.24,0-.06,0H232c.19,0,.25.11-.06,0,.14.06.31.07.46.12s.09.12-.07,0a2.25,2.25,0,0,0,.31.16l.18.12c.17.11-.27-.26-.06,0,.06.07.13.12.19.19s.19.3,0-.07c.06.11.14.2.2.31a1.74,1.74,0,0,0,.1.19c.13.25-.12-.35,0-.09a3.06,3.06,0,0,1,.13.43c0,.14.05.56,0,0,0,.31,0,.6,0,.91s.07-.33,0-.14a1.29,1.29,0,0,0,0,.19,2.92,2.92,0,0,1-.1.4c0,.13-.09.26-.14.39.17-.49,0,0-.07.11s-.17.23-.24.36.25-.3.1-.14l-.14.16-.16.14c-.16.15.13-.1.14-.1s-.27.17-.42.25.14-.06.16-.06a.81.81,0,0,0-.22.07l-.22,0c.36-.11.29,0,.13,0s-.27,0-.41,0c.39,0,.27,0,.11,0l-.22,0-.22-.08c-.26-.08.34.19,0,0l-.44-.26c-.19-.12.1.08.12.09s-.17-.13-.24-.21-.21-.25-.33-.35c.27.22.14.19,0,0a2.61,2.61,0,0,1-.17-.28l-.07-.14c-.18-.36.06.23,0,0s-.1-.31-.14-.47v-.09c0-.16,0-.11,0,.15,0-.1,0-.23,0-.33a1.5,1.5,0,0,0-1.5-1.5,1.52,1.52,0,0,0-1.5,1.5,5.09,5.09,0,0,0,2.91,4.53A4.4,4.4,0,0,0,233,107a4.3,4.3,0,0,0,2.32-1.67,5.64,5.64,0,0,0,.79-4.85,4.46,4.46,0,0,0-4.57-3.19,4.21,4.21,0,0,0-3.18,2,5,5,0,0,0-.61,3.59,1.51,1.51,0,0,0,1.85,1,1.54,1.54,0,0,0,1-1.85Z" transform="translate(-0.01)"/>
        </g>
        <g>
          <path class="cls-4" d="M183.41,58.21a4.67,4.67,0,0,1,.58-6,3.46,3.46,0,0,1,5.19,1.32,3.35,3.35,0,0,1,.38,1.77,3.52,3.52,0,0,1-1.27,2.37,4.52,4.52,0,0,1-6.85-1.52" transform="translate(-0.01)"/>
          <path class="cls-3" d="M184.71,57.46a4,4,0,0,1-.29-.43c0-.08-.09-.18-.14-.27-.15-.29,0,.23,0,0s-.12-.34-.15-.5l-.06-.26c-.07-.32,0,.29,0,0s0-.35,0-.53,0-.21,0-.32.07-.36,0-.11,0-.09,0-.12l.06-.25c0-.13.07-.47.17-.55l-.07.17.09-.19a1.62,1.62,0,0,1,.1-.18l.16-.26c.16-.28-.18.16,0,0s.23-.24.34-.36,0-.09,0,0c0-.05.21-.13.26-.16s.24-.15.26-.13-.31.1-.08,0l.28-.08c.06,0,.34,0,.09,0h.34s.23,0,.24,0c-.24,0-.27,0-.11,0l.1,0c.17,0,.35.12.52.15s-.32-.17,0,0l.22.11.22.14c.28.16-.16-.17,0,0s.27.27.4.4-.16-.27,0,0c0,.08.1.15.14.23a1.71,1.71,0,0,1,.13.23c.19.36,0-.13,0,.1s.07.22.1.33.06.43,0,.22,0,.24,0,.23c0,.35.07-.17,0,.12,0,.12-.06.25-.1.37-.09.36.1-.14,0,.05s-.09.18-.15.27-.22.34-.09.16-.12.13-.12.13l-.21.22c-.06,0-.15.17-.22.19.17-.12.19-.14.06,0l-.12.08c-.14.09-.29.17-.44.25s0,0,0,0-.2.08-.23.09-.31.08-.47.12,0-.08.06,0a2.14,2.14,0,0,0-.34,0l-.54,0c-.34,0,.35.08,0,0l-.29-.06c-.19,0-.38-.11-.57-.17s.3.16,0,0l-.26-.14a1.79,1.79,0,0,1-.51-.33c.13.18.17.14.06,0l-.3-.28-.14-.15c0-.05-.09-.1-.13-.16.12.17.14.19,0,0a6,6,0,0,1-.33-.54,1.5,1.5,0,1,0-2.59,1.51,6.23,6.23,0,0,0,5.17,3.25,5.59,5.59,0,0,0,5.45-3.48,5,5,0,0,0-2.84-6.25A4.76,4.76,0,0,0,182,52.16a6.17,6.17,0,0,0,.08,6.81,1.54,1.54,0,0,0,2,.54,1.53,1.53,0,0,0,.54-2Z" transform="translate(-0.01)"/>
        </g>
      </g>
    </g>
  </g>
</svg>
