<svg xmlns="http://www.w3.org/2000/svg" viewBox="0 0 275.39 180.81">
  <defs>
    <style>
      .cls-1 {
        fill: #808285;
      }

      .cls-2 {
        fill: #231f20;
      }

      .cls-3 {
        fill: #ed1c24;
      }
    </style>
  </defs>
  <title>five-pi-over-six-angle-2</title>
  <g id="Layer_2" data-name="Layer 2">
    <g id="Layer_1-2" data-name="Layer 1">
      <g>
        <path class="cls-1" d="M125.11,25.7l5-9.06h-1.72a47.27,47.27,0,0,0,6.67,9.11c.88.94,2.29-.47,1.42-1.41a45,45,0,0,1-6.37-8.71,1,1,0,0,0-1.72,0l-5,9.06c-.62,1.13,1.1,2.14,1.73,1Z" transform="translate(-0.02)"/>
        <path class="cls-1" d="M121.19,171.52l3.14,5.65c.49.89.93,1.84,1.5,2.68a1.81,1.81,0,0,0,2.3.79,12.14,12.14,0,0,0,2.31-1.93l2.45-2.14c.8-.71,1.61-1.41,2.4-2.12a6.56,6.56,0,0,0,1.7-2.07,1,1,0,0,0-.36-1.37,1,1,0,0,0-1.37.36,5.17,5.17,0,0,1-1.38,1.67c-.67.6-1.36,1.19-2,1.78l-4.13,3.63c-.09.08-.4.28-.41.36s0,.12.31.08l-.06,0c0-.12-.23-.39-.3-.51l-.36-.65-1.33-2.39-2.66-4.78c-.62-1.12-2.35-.11-1.72,1Z" transform="translate(-0.02)"/>
        <path class="cls-1" d="M128.38,17.71q.47,31.6.31,63.22-.18,31.44-1,62.89-.45,17.73-1.1,35.47c0,1.28,2,1.28,2,0q1.15-31.59,1.69-63.2.52-31.45.41-62.9-.06-17.74-.33-35.48a1,1,0,0,0-2,0Z" transform="translate(-0.02)"/>
      </g>
      <g>
        <path class="cls-1" d="M2.29,123c24.71,1.15,49.42,1.1,74.14.19,11.91-.44,23.78-.6,35.69-.34q26.69.6,53.38.78c7.49,0,15,0,22.48,0q33.22,0,66.45.17l8.75,0a1,1,0,0,0,0-2q-35.13-.12-70.25-.19c-8.36,0-16.72,0-25.07,0q-25.67-.12-51.31-.69c-10.92-.24-21.81-.36-32.73,0-11.38.36-22.75.85-34.13,1q-20.22.18-40.44-.59-3.48-.14-7-.3c-1.29-.06-1.29,1.94,0,2Z" transform="translate(-0.02)"/>
        <path class="cls-1" d="M255.38,118.46a22,22,0,0,1,5.15,2.63,21.33,21.33,0,0,1,2.24,1.78,4.94,4.94,0,0,1,1,1c-.07-.15.11-.2-.15,0s-.31.27-.47.4c-2.54,2.06-5.76,3.66-6.74,7a1,1,0,0,0,1.93.53,7.82,7.82,0,0,1,3.14-3.84c.77-.58,1.56-1.13,2.32-1.71s1.69-1.14,1.94-2c.3-1.14-.69-2-1.43-2.68a25.4,25.4,0,0,0-2.63-2.12,23.74,23.74,0,0,0-5.79-2.94c-1.22-.43-1.74,1.5-.54,1.92Z" transform="translate(-0.02)"/>
        <path class="cls-1" d="M10.61,112c-1.86,1.33-3.67,2.74-5.41,4.24-.8.69-1.59,1.41-2.37,2.14a16.39,16.39,0,0,0-2.32,2.39,2.08,2.08,0,0,0,.08,2.78,5,5,0,0,0,1.3.7l1.55.72,6.66,3.07a1,1,0,0,0,1.37-.36,1,1,0,0,0-.36-1.37l-5.66-2.61-2.77-1.28a4.49,4.49,0,0,0-.67-.31c-.14,0,0,.1,0,0a9.47,9.47,0,0,1,.76-.94,69.54,69.54,0,0,1,8.84-7.5,1,1,0,0,0,.36-1.36,1,1,0,0,0-1.37-.36Z" transform="translate(-0.02)"/>
      </g>
      <path class="cls-1" d="M126.89.23a4.6,4.6,0,0,0-.23,4.06c.41,1.21,1.07,2.8,2.29,3.39s2.44-.29,3.17-1.31a18.83,18.83,0,0,0,2.29-4.49l-1-.27a21.68,21.68,0,0,1-3,7.76A7.78,7.78,0,0,1,127.24,12a22.87,22.87,0,0,1-5.18,1.23c-.64.12-.37,1.08.26,1a23.45,23.45,0,0,0,5.43-1.34,8.75,8.75,0,0,0,3.38-2.74c1.81-2.39,2.6-5.41,3.28-8.28a.5.5,0,0,0-1-.27A19,19,0,0,1,131.83,5c-.48.78-1.38,2.39-2.52,1.75A5.15,5.15,0,0,1,127.62,4a3.65,3.65,0,0,1,.14-3.3c.35-.54-.51-1-.87-.5Z" transform="translate(-0.02)"/>
      <path class="cls-2" d="M106.67,107.83c2.67-2.75,6.3-4.25,10-5.21a44.29,44.29,0,0,1,12.76-1.5c7.4.24,15.66,2.9,20,9.32,2.58,3.81,3.24,8.52,5.57,12.47a1,1,0,0,0,1.86-.5l.13-1.3a1,1,0,0,0-1-1,1,1,0,0,0-1,1l-.13,1.3,1.87-.51c-2.19-3.71-2.89-8.07-5.12-11.76a21.15,21.15,0,0,0-8.32-7.57c-7.9-4.19-17.4-4.16-25.93-2.18-4.39,1-8.85,2.73-12,6-.9.92.52,2.34,1.41,1.41Z" transform="translate(-0.02)"/>
      <g>
        <path class="cls-1" d="M266.25,118.57l8,11.37a.5.5,0,0,0,.43.24.78.78,0,0,0,.21-1.51c-.6-.25-.86.72-.27,1l.06-.45.43.25-8-11.36c-.37-.52-1.23,0-.86.5Z" transform="translate(-0.02)"/>
        <path class="cls-1" d="M274.18,117.15l-8.29,11.12.69-.18h0c.13-.63-.83-.9-1-.27a1,1,0,0,0,.49,1.12.52.52,0,0,0,.69-.18L275,117.65c.39-.51-.48-1-.86-.5Z" transform="translate(-0.02)"/>
      </g>
      <path class="cls-3" d="M235.6,114.86l6.29,3.33,3,1.6a10.78,10.78,0,0,1,2.41,1.42.72.72,0,0,1,.24.3c-.07-.13-.05.22,0,0a1.55,1.55,0,0,1-.57.7c-.8.74-1.69,1.4-2.54,2.09l-5.54,4.51a1.5,1.5,0,0,0,0,2.12,1.52,1.52,0,0,0,2.12,0l4.78-3.89,2.39-1.94a7.54,7.54,0,0,0,1.89-1.93c1.11-1.91,0-3.8-1.66-4.88s-3.44-1.86-5.15-2.76l-6.18-3.27a1.5,1.5,0,0,0-1.52,2.59Z" transform="translate(-0.02)"/>
      <g>
        <path class="cls-3" d="M6.1,56.85Q18.35,64.4,30.92,71.41q11.65,6.51,23.56,12.51c6.9,3.49,13.85,6.87,20.76,10.33Q87,100.13,98.63,106.42q12.66,6.9,25,14.3l3.38,2c1.66,1,3.17-1.59,1.52-2.59q-12.37-7.47-25-14.47Q91.6,99.1,79.42,93c-6.91-3.48-13.87-6.86-20.79-10.33q-11.57-5.8-22.91-12Q22.88,63.58,10.35,55.93L7.61,54.26c-1.64-1-3.15,1.58-1.51,2.59Z" transform="translate(-0.02)"/>
        <path class="cls-3" d="M127.86,122.93a244,244,0,0,1,24.93,1c2.37.22,4.73.49,7.11.64,3,.19,6,.24,9,.22,6.95-.06,13.89-.5,20.82-.85,8.87-.46,17.75-.81,26.63-.92q12.77-.16,25.52.23l3.92.14c1.93.07,1.92-2.93,0-3q-13.49-.51-27-.4c-8.7.08-17.41.37-26.1.8-7.17.35-14.33.82-21.51,1a138.29,138.29,0,0,1-16.66-.65c-8.12-.8-16.28-1.18-24.43-1.17l-2.3,0a1.5,1.5,0,0,0,0,3Z" transform="translate(-0.02)"/>
        <path class="cls-3" d="M18.44,51.73c-1.81.93-3.93.7-5.87.33-1.16-.22-2.31-.49-3.47-.72a9.5,9.5,0,0,0-3.63-.28,2.92,2.92,0,0,0-2.26,2.3,5.24,5.24,0,0,0,.58,3.17c.48,1,1.13,2,1.71,3s1.28,2.08,1.94,3.11c1.5,2.35,3.08,4.65,4.72,6.91a1.56,1.56,0,0,0,2.06.54A1.52,1.52,0,0,0,14.75,68q-4-5.47-7.44-11.33a8.66,8.66,0,0,1-1.15-2.35s0-.29,0-.09a1.77,1.77,0,0,1,0-.23c0-.19,0,0,0,0-.11-.33.12-.08,0,0s.09,0,0,0l.5,0c2,.15,4,.81,6,1.13A11.54,11.54,0,0,0,20,54.32a1.5,1.5,0,0,0-1.51-2.59Z" transform="translate(-0.02)"/>
      </g>
      <g>
        <path class="cls-2" d="M149.52,86.51,142.66,83a.5.5,0,0,0-.73.3,53.7,53.7,0,0,0-1.27,9.27.51.51,0,0,0,.63.49c2.06-.54,4.3-1.14,6.41-.54A4.21,4.21,0,0,1,150.75,96c.2,1.89-1.48,2.82-3.16,2.86a11.69,11.69,0,0,1-3-.37c-.52-.12-1-.26-1.55-.42-.29-.1-.58-.19-.87-.3l-.42-.16a.88.88,0,0,0-.86,0c.29.58,1.15.08.87-.5s-1.43-.3-1.4.42c0,1,1.61,1.27,2.31,1.5,2,.64,4.44,1.27,6.5.61a3.47,3.47,0,0,0,2.5-3.83,5.16,5.16,0,0,0-2.88-3.89c-2.47-1.14-5.31-.44-7.81.21l.63.48a52.52,52.52,0,0,1,1.23-9l-.73.3L149,87.38c.58.29,1.08-.57.51-.87Z" transform="translate(-0.02)"/>
        <path class="cls-2" d="M156,85.69l-.55,9.49a.51.51,0,0,0,.94.25l.24-.48c.29-.57-.58-1.07-.87-.5l-.24.47.93.26.55-9.49c0-.64-1-.64-1,0Z" transform="translate(-0.02)"/>
        <path class="cls-2" d="M159.15,84.17a28.09,28.09,0,0,1,1.34,9.28.5.5,0,0,0,1,0,29,29,0,0,0-1.38-9.55c-.19-.61-1.16-.34-1,.27Z" transform="translate(-0.02)"/>
        <path class="cls-2" d="M151.49,87.38l7.07-2.85,3.48-1.4c1-.39,2.26-1.07,3.32-.58.58.27,1.09-.59.51-.86a3.87,3.87,0,0,0-3,.06c-1.29.47-2.56,1-3.84,1.54l-7.77,3.13c-.59.24-.33,1.2.27,1Z" transform="translate(-0.02)"/>
        <path class="cls-2" d="M169.18,89.11l-17.39,16.15c-.47.44.24,1.15.71.71l17.39-16.16c.47-.43-.24-1.14-.71-.7Z" transform="translate(-0.02)"/>
        <path class="cls-2" d="M169.3,93.09a21.91,21.91,0,0,0-5,7,21.42,21.42,0,0,0-1.34,4,6,6,0,0,0,.09,3.67c1.12,2.53,4.3,2.09,6.31,1a11.09,11.09,0,0,0,3.24-2.58c.71-.82,1.91-2.19,1.09-3.31s-2.6-.7-3.72-.52a22.07,22.07,0,0,0-5.09,1.51c-.59.25-.08,1.11.51.86a19.61,19.61,0,0,1,3.74-1.19,7.32,7.32,0,0,1,3.34-.31c1.3.4-.56,2.27-1.06,2.78a10.34,10.34,0,0,1-2.74,2c-1.76.88-4.58,1.09-4.92-1.45a8.11,8.11,0,0,1,.43-3.2,20.61,20.61,0,0,1,1.24-3.31A21,21,0,0,1,170,93.8c.47-.45-.24-1.15-.71-.71Z" transform="translate(-0.02)"/>
      </g>
      <path class="cls-2" d="M26.38,68.48c.14-.24.28-.48.44-.71,0,0,.3-.37.11-.14l.18-.21a8.21,8.21,0,0,1,.58-.6c.1-.1.21-.19.32-.28.33-.29-.23.15.13-.11a11.77,11.77,0,0,1,1.33-.77c.4-.2-.27.08.15-.07l.4-.13a7.4,7.4,0,0,1,.81-.21c.4-.09-.28,0,.14,0,.14,0,.27,0,.41,0-.33,0,.06,0,.13,0-.1,0-.19-.14,0,0l-.09-.08c.12.12.12.11,0,0l.06.1c-.06-.18-.07-.19,0,0s0,.42,0,.08c0,.13,0,.25,0,.38,0-.37,0,0,0,.1s-.19.41,0,.11c-.1.19-.21.36-.32.54.18-.29,0,0-.07.08s-.17.18-.26.26-.36.29-.08.08a2.11,2.11,0,0,1-.31.21,5.25,5.25,0,0,1-.66.36c.28-.13,0,0-.05,0l-.3.11c-.25.07-.5.13-.76.18,0,0-.41.07-.18,0s-.27,0-.32,0a6.57,6.57,0,0,1-.77,0l-.32,0c-.08,0-.36-.06-.06,0l-.4-.09c-.32-.09.13.14-.11-.07,0,0,.19.27.13.12s-.05-.06,0,.09a2,2,0,0,1-.06-.23c.08.35,0,0,0-.1,0,.35,0,0,0-.12a2.58,2.58,0,0,0,.08-.26c.13-.38-.14.21.07-.14s.28-.48.44-.71l.18-.24c-.14.18.21-.24.24-.28a10.68,10.68,0,0,1,1.18-1.15s.39-.3.17-.14l.36-.26.25-.17.26-.16c.16-.08.18-.09.06,0-.28-.1-.18.06-.56-.23.12.12.12.11,0,0,.07.14.09.16,0,.06s.06.17.06.17a4.26,4.26,0,0,1,.1.49c-.05-.38,0,0,0,.1s0,.25,0,.37c0,.4.07-.3,0,.1,0,.16-.07.32-.11.48l-.12.36c.08-.25,0,0-.06.1l-.18.32c0,.07-.36.46-.14.21a5.11,5.11,0,0,1-.52.52c.25-.22-.05,0-.1.07s-.29.16-.44.24l1.82.23-.1-.09c.15.15,0-.06-.07-.11s-.17-.32-.07-.11,0-.07,0-.12a2.61,2.61,0,0,1-.06-.27c-.06-.16,0,.35,0,0,0-.13.07-.64,0-.25,0-.18.08-.36.13-.53s0,0,0,.05c0-.07.09-.16.13-.23s.11-.14,0,0l.18-.19c.13-.14.14-.11,0,0A2.61,2.61,0,0,1,30,65.4l-2.21-.9c0,.18,0,.19,0,0l0,.28c0,.13,0,.27,0,.41a6.11,6.11,0,0,1-.05,1c0-.34,0,.22-.05.28s-.06.26-.1.4-.1.35-.15.52a3.24,3.24,0,0,0-.12.33c0-.13-.13.28-.15.32l-.23.43c-.08.13-.16.27-.25.4s-.29.41-.2.3-.2.23-.23.27l-.33.35-.35.32-.21.18c.12-.1.11-.09,0,0l1.82.23a3.17,3.17,0,0,1-.34-.3L26.72,70c.1.13.1.13,0,0l-.19-.35c.15.27,0-.05,0-.13s-.12-.6-.08-.24a2.61,2.61,0,0,1,0-.4c0-.07.07-.43,0-.12,0-.15.08-.29.11-.44s0-.09,0,.05a1.71,1.71,0,0,1,.13-.23c0-.06.26-.36.06-.13l.27-.28.2-.17c-.11.08-.12.1,0,0l.41-.23c-.24.12,0,0,.13,0a2.34,2.34,0,0,1,.38-.09c-.36.06.18,0,.25,0L27,66.54a1.57,1.57,0,0,1,.15.72,1.51,1.51,0,0,1,0,.3c0-.14,0-.13,0,0s-.05.2-.08.3S27,68.1,27,68l1.69-.69a.92.92,0,0,1,.54,1.33,1.5,1.5,0,1,0-2.59-1.52,2.16,2.16,0,0,0,1.25,3.08,1.51,1.51,0,0,0,1.7-.69,5,5,0,0,0,0-4.46,1.47,1.47,0,0,0-1.3-.74,4.86,4.86,0,0,0-4.61,3.14,4.79,4.79,0,0,0,1.42,5.19,1.56,1.56,0,0,0,1.82.23,9.42,9.42,0,0,0,3.79-9.14,1.52,1.52,0,0,0-2.21-.9,4.35,4.35,0,0,0-.93,6.73,1.54,1.54,0,0,0,1.82.24,5.88,5.88,0,0,0,2.87-3.43,5,5,0,0,0-.61-4.67c-1.52-1.84-3.79-.2-5.12,1a8.77,8.77,0,0,0-2.79,4,3.14,3.14,0,0,0,2.44,4.09,8.21,8.21,0,0,0,4.42-.38A6.11,6.11,0,0,0,34,67.43c.79-1.59.68-3.81-1-4.77s-3.87-.22-5.44.63A9.43,9.43,0,0,0,23.79,67a1.5,1.5,0,0,0,2.59,1.51Z" transform="translate(-0.02)"/>
      <g>
        <path class="cls-2" d="M24.27,72.17a7.66,7.66,0,0,0-2.78,2.76,2.69,2.69,0,0,0,.75,3.31,8.82,8.82,0,0,0,1.39,1c.72.43,1.4.92,2.1,1.38,1.67,1.11,3.36,2.21,5.05,3.29Q41,90.44,51.48,96.49c1,.54,1.92,1.08,2.87,1.63a3.8,3.8,0,0,1,1.07.83,1.91,1.91,0,0,1,.22,1.63c-.48,2.28-1.22,4.53-1.83,6.78a.5.5,0,0,0,.73.56l9.72-4.38h-.51q11.46,6.79,22.76,13.81,3.93,2.43,8,4.57a86.81,86.81,0,0,0,14.4,6.11,20.67,20.67,0,0,0,8.44,1,15,15,0,0,0,7.23-3c.51-.39,0-1.26-.5-.87a13.93,13.93,0,0,1-7.37,2.92,21.8,21.8,0,0,1-8.64-1.37,95.29,95.29,0,0,1-15.4-6.9c-2.8-1.53-5.5-3.22-8.21-4.89q-6-3.72-12.06-7.36-2.12-1.28-4.24-2.54L66,103.68l-1-.62c-.3-.18-.66-.5-1-.43a4.64,4.64,0,0,0-1,.46l-1.36.61L59,104.82l-5,2.24.73.56q.82-3,1.63-6a4.66,4.66,0,0,0,.24-2.45,2.94,2.94,0,0,0-1.24-1.56c-.71-.5-1.5-.89-2.26-1.33l-2.72-1.56q-2.51-1.45-5-2.94-10.16-6.06-20-12.59c-.59-.39-1.18-.76-1.77-1.14a3,3,0,0,1-1.42-1.49c-.44-1.48,1.5-2.84,2.54-3.53.53-.35,0-1.22-.51-.86Z" transform="translate(-0.02)"/>
        <g>
          <path class="cls-2" d="M49.8,112.78a15.16,15.16,0,0,1,1.91-2.25l.5-.45a2.5,2.5,0,0,1,.43-.34s.06.26.07.32a4.53,4.53,0,0,1,0,.64,17.22,17.22,0,0,1-1.16,6c-.2.53.49.76.83.49l.41-.32c.51-.4-.21-1.11-.71-.71l-.4.32.83.49a17.47,17.47,0,0,0,1-3.69,18.33,18.33,0,0,0,.2-2,5.62,5.62,0,0,0-.06-1.69,1.12,1.12,0,0,0-.92-.91c-.56,0-1,.43-1.37.77a14.8,14.8,0,0,0-2.41,2.77c-.37.53.5,1,.86.5Z" transform="translate(-0.02)"/>
          <path class="cls-2" d="M49,117.61a40.22,40.22,0,0,0,5.91-.31.5.5,0,1,0,0-1,40.22,40.22,0,0,1-5.91.31c-.64,0-.64,1,0,1Z" transform="translate(-0.02)"/>
        </g>
      </g>
      <g>
        <path class="cls-2" d="M30.59,38.88a21.11,21.11,0,0,0-3.45,11.77,16.63,16.63,0,0,0,.95,5.9c.58,1.47,1.71,3.05,3.47,2.92.64,0,.64-1,0-1-1.67.12-2.48-1.85-2.82-3.19a19.54,19.54,0,0,1-.6-5.44,20.18,20.18,0,0,1,3.32-10.46c.35-.53-.51-1-.87-.5Z" transform="translate(-0.02)"/>
        <path class="cls-2" d="M37.88,44c-2.72-.29-4.88,2.33-5.79,4.6a5.28,5.28,0,0,0-.15,3.87,3.63,3.63,0,0,0,2.44,2.32,3.05,3.05,0,0,0,3.28-1.19c.36-.53-.51-1-.86-.5A2.14,2.14,0,0,1,34,53.6a3.34,3.34,0,0,1-1.36-3.31,7,7,0,0,1,1.84-3.7A4,4,0,0,1,37.88,45c.64.07.63-.93,0-1Z" transform="translate(-0.02)"/>
        <path class="cls-2" d="M38.64,51.39c0-1.68,2.1-3,3.41-1.82a2.41,2.41,0,0,1,.84,2,1.9,1.9,0,0,1-1.26,1.57,2.23,2.23,0,0,1-2.34-.37c-.47-.44-1.18.26-.71.71,1.62,1.54,4.77.82,5.25-1.48a3.4,3.4,0,0,0-.89-3,2.9,2.9,0,0,0-3.13-.7,3.3,3.3,0,0,0-2.17,3.06c0,.64,1,.65,1,0Z" transform="translate(-0.02)"/>
        <path class="cls-2" d="M46.64,47.35l-2.25,2.08a.52.52,0,0,0,.11.79,5.3,5.3,0,0,0,1.41.58,2.8,2.8,0,0,1,1.14.49.54.54,0,0,1,.18.44.89.89,0,0,1-.33.63,2.79,2.79,0,0,1-1.88.43.5.5,0,0,0,0,1,3.79,3.79,0,0,0,2.52-.67A1.77,1.77,0,0,0,48.06,51C47.49,49.86,46,50,45,49.35l.1.79,2.25-2.08c.47-.44-.24-1.15-.71-.71Z" transform="translate(-0.02)"/>
        <path class="cls-2" d="M49.94,42a17.5,17.5,0,0,0-1.49,7.81c.07,1.54.28,5.77,2.75,5.25.63-.14.37-1.1-.26-1-.92.2-1.17-1.72-1.27-2.27a15.92,15.92,0,0,1-.23-3.08,16.3,16.3,0,0,1,1.36-6.23c.26-.59-.61-1.1-.86-.51Z" transform="translate(-0.02)"/>
        <path class="cls-2" d="M57,43.7v4a.5.5,0,0,0,1,0v-4a.5.5,0,0,0-1,0Z" transform="translate(-0.02)"/>
        <path class="cls-2" d="M58.8,42.81A5.55,5.55,0,0,1,59.29,46a.5.5,0,0,0,1,0,6.53,6.53,0,0,0-.62-3.67.51.51,0,0,0-.69-.18.52.52,0,0,0-.18.68Z" transform="translate(-0.02)"/>
        <path class="cls-2" d="M56.23,44.41a7.76,7.76,0,0,1,2.35-1.27,7.5,7.5,0,0,1,1.32-.33,1,1,0,0,1,.46,0l.14.05s0,.07,0,0a.13.13,0,0,1,0-.15c0-.11,0-.13,0-.05a.5.5,0,0,0,.18.68.52.52,0,0,0,.69-.18c.39-.57-.15-1.13-.69-1.29a3.5,3.5,0,0,0-1.78.17,8.89,8.89,0,0,0-3.35,1.71.49.49,0,0,0,0,.7.5.5,0,0,0,.7,0Z" transform="translate(-0.02)"/>
        <path class="cls-2" d="M53.67,50.75a43.62,43.62,0,0,0,7.09-2.07c.6-.24.34-1.2-.26-1a41.56,41.56,0,0,1-7.1,2.07c-.63.13-.36,1.09.27,1Z" transform="translate(-0.02)"/>
        <path class="cls-2" d="M56.91,50.49a6.4,6.4,0,0,0-1.83,5.17.53.53,0,0,0,.36.48,3.87,3.87,0,0,0,3.86-.91,2.53,2.53,0,0,0,1-2.06c-.2-.88-1.3-.94-2-.83A3.47,3.47,0,0,0,56,53.74a.5.5,0,0,0,.87.51,2.35,2.35,0,0,1,1.71-1c.19,0,.63,0,.71.12,0-.05,0-.05,0,0s0,.11,0,.16a1.76,1.76,0,0,1-.09.2,2.65,2.65,0,0,1-.24.4,2.88,2.88,0,0,1-3.2,1l.37.48a5.49,5.49,0,0,1,1.53-4.46c.46-.46-.25-1.17-.7-.71Z" transform="translate(-0.02)"/>
        <path class="cls-2" d="M61.59,41.56a17.25,17.25,0,0,1,1.74,8.17,13.74,13.74,0,0,1-.63,4c-.31.92-1.06,2.33-2.22,2.11-.63-.12-.9.85-.27,1,3.09.58,3.85-3.83,4.05-6a18.22,18.22,0,0,0-1.81-9.74c-.28-.58-1.15-.07-.86.5Z" transform="translate(-0.02)"/>
        <path class="cls-2" d="M66.82,52.44l-1.77,4.25a.5.5,0,0,0,.35.61A.5.5,0,0,0,66,57l1.78-4.25a.51.51,0,0,0-.35-.61.52.52,0,0,0-.62.35Z" transform="translate(-0.02)"/>
        <path class="cls-2" d="M78.77,43.34c-1.38-.22-3.06-.2-4.07.95a2.39,2.39,0,0,0,0,3.33c.91.85,2.22.73,3.31,1.16a1.92,1.92,0,0,1,.77,2.82c-.82,1.47-2.83,1.56-4.29,1.25-.63-.14-.9.83-.27,1a5.79,5.79,0,0,0,4.19-.46,3.43,3.43,0,0,0,1.68-3,2.71,2.71,0,0,0-2-2.57c-.9-.28-2.67-.22-3-1.35a1.74,1.74,0,0,1,.9-1.82,4,4,0,0,1,2.59-.26c.62.1.9-.86.26-1Z" transform="translate(-0.02)"/>
        <path class="cls-2" d="M82.45,52.7A8.2,8.2,0,0,1,83.17,47c.3-.57-.56-1.07-.86-.5A9.2,9.2,0,0,0,81.49,53c.15.63,1.11.36,1-.26Z" transform="translate(-0.02)"/>
        <path class="cls-2" d="M84.66,48.26V53a.5.5,0,0,0,1,0,8.38,8.38,0,0,1,.66-3c.15-.34,1.06-2.34,1.59-2,.23.14.22.66.21.88,0,.59-.07,1.19-.1,1.78l-.22,3.62c0,.64,1,.64,1,0L89,50.83c0-.58.07-1.16.1-1.74A3.14,3.14,0,0,0,89,47.91a1.26,1.26,0,0,0-2-.7,5.73,5.73,0,0,0-1.62,2.44A9.1,9.1,0,0,0,84.66,53h1V48.26a.5.5,0,0,0-1,0Z" transform="translate(-0.02)"/>
        <path class="cls-2" d="M93,40.74a22.61,22.61,0,0,0-2.37,9.15c-.08,1.79-.23,6.21,2.57,6.13.64,0,.64-1,0-1-1,0-1.36-1.3-1.48-2.09a17.22,17.22,0,0,1,0-3.93,21.53,21.53,0,0,1,2.18-7.75c.29-.58-.58-1.09-.86-.51Z" transform="translate(-0.02)"/>
        <path class="cls-2" d="M97.71,41.88a10.55,10.55,0,0,1-2.5-.36.5.5,0,0,0-.56.23A7.62,7.62,0,0,0,94,45a.51.51,0,0,0,.63.48,3.53,3.53,0,0,1,1.74,0,1.6,1.6,0,0,1,.43.19l.1.1c0-.06,0,0,0,0s0,0,0,.09a1.35,1.35,0,0,1-.86,1,2.67,2.67,0,0,1-1,.16l-.48,0a2.46,2.46,0,0,0-.28,0c-.16,0,0-.18.06.1v.22l-.13.22,0,0-.22.13a.42.42,0,0,1-.25-.1l-.08-.61,0,.06a.5.5,0,0,0,.18.68.49.49,0,0,0,.68-.18l0-.05a.53.53,0,0,0-.07-.61.69.69,0,0,0-1,.05c-.33.43.07.94.5,1.07a4.1,4.1,0,0,0,1.26.08,3.61,3.61,0,0,0,1.3-.28,2.37,2.37,0,0,0,1.32-1.65,1.31,1.31,0,0,0-.86-1.42,4.28,4.28,0,0,0-2.67-.11L95,45a6.45,6.45,0,0,1,.49-2.75l-.56.23a12.25,12.25,0,0,0,2.76.39c.64,0,.64-1,0-1Z" transform="translate(-0.02)"/>
        <path class="cls-2" d="M99.75,42.85v3.38a.5.5,0,0,0,1,0V42.85a.5.5,0,1,0-1,0Z" transform="translate(-0.02)"/>
        <path class="cls-2" d="M102,42.56a6.94,6.94,0,0,1,.35,3.1.49.49,0,0,0,.5.5.51.51,0,0,0,.5-.5,7.75,7.75,0,0,0-.39-3.37.5.5,0,0,0-.61-.34.49.49,0,0,0-.35.61Z" transform="translate(-0.02)"/>
        <path class="cls-2" d="M98.84,44.19a8,8,0,0,1,5.43-1.29.51.51,0,0,0,.5-.5.51.51,0,0,0-.5-.5,8.85,8.85,0,0,0-5.94,1.43c-.53.35,0,1.22.51.86Z" transform="translate(-0.02)"/>
        <path class="cls-2" d="M94.15,50a34.76,34.76,0,0,1,9.54-2.21c.63-.06.64-1.06,0-1A35.79,35.79,0,0,0,93.89,49c-.6.23-.34,1.2.26,1Z" transform="translate(-0.02)"/>
        <path class="cls-2" d="M96.65,49.7a8.64,8.64,0,0,0-1,3.38A2.81,2.81,0,0,0,96,54.75a1.56,1.56,0,0,0,1.21.76c1.53.15,4.76-2.28,2.85-3.74a1.83,1.83,0,0,0-1.6-.3,4.2,4.2,0,0,0-1.62,1,.5.5,0,0,0,0,.71.51.51,0,0,0,.7,0,3.83,3.83,0,0,1,1-.68,1,1,0,0,1,.78,0c.23.1.36.25.33.45s-.42.62-.66.82a2.71,2.71,0,0,1-1.65.78.71.71,0,0,1-.25-.06.67.67,0,0,1-.24-.28A2.32,2.32,0,0,1,96.7,53a7.42,7.42,0,0,1,.81-2.84c.3-.57-.57-1.08-.86-.5Z" transform="translate(-0.02)"/>
        <path class="cls-2" d="M104.66,41.1a21,21,0,0,1,1.71,7.46,6.83,6.83,0,0,1-2.46,5.51c-.52.37,0,1.24.5.87a7.64,7.64,0,0,0,2.93-5.82c.23-2.86-.77-5.64-1.72-8.28-.21-.6-1.18-.34-1,.26Z" transform="translate(-0.02)"/>
        <path class="cls-2" d="M107.71,39.44a13,13,0,0,1,2.59,8.83,12.88,12.88,0,0,1-3.78,8,.5.5,0,0,0,.71.71,13.93,13.93,0,0,0,1.35-18.1c-.39-.51-1.25,0-.87.51Z" transform="translate(-0.02)"/>
        <path class="cls-2" d="M55.13,42.79a10.55,10.55,0,0,1-2.5-.36.5.5,0,0,0-.56.23,7.62,7.62,0,0,0-.63,3.26.51.51,0,0,0,.63.48,3.66,3.66,0,0,1,1.74,0,2,2,0,0,1,.43.19l.1.11c0-.06,0,0,0,0s0,0,0,.09a1.36,1.36,0,0,1-.85,1,3,3,0,0,1-1,.16l-.48,0a1.27,1.27,0,0,0-.28,0c-.16,0,0-.18.06.1v.22l-.13.22,0,0-.22.13a.49.49,0,0,1-.25-.1l-.08-.61,0,.06a.5.5,0,0,0,.18.68.49.49,0,0,0,.68-.18l0,0A.55.55,0,0,0,52,47.7a.69.69,0,0,0-1,0c-.33.43.07.94.5,1.07a4.1,4.1,0,0,0,1.26.08,3.61,3.61,0,0,0,1.3-.28A2.37,2.37,0,0,0,55.33,47a1.33,1.33,0,0,0-.86-1.43,4.43,4.43,0,0,0-2.67-.11l.64.49a6.45,6.45,0,0,1,.49-2.75l-.56.23a12.25,12.25,0,0,0,2.76.39c.64,0,.64-1,0-1Z" transform="translate(-0.02)"/>
      </g>
    </g>
  </g>
</svg>
