<svg xmlns="http://www.w3.org/2000/svg" viewBox="0 0 275.39 180.81">
  <defs>
    <style>
      .cls-1 {
        fill: #808285;
      }

      .cls-2 {
        fill: #231f20;
      }

      .cls-3 {
        fill: #ed1c24;
      }

      .cls-4 {
        fill: #00aeef;
      }
    </style>
  </defs>
  <title>five-pi-over-six-angle-4</title>
  <g id="Layer_2" data-name="Layer 2">
    <g id="Layer_1-2" data-name="Layer 1">
      <g>
        <path class="cls-1" d="M125.11,25.7l5-9.06h-1.72a47.27,47.27,0,0,0,6.67,9.11c.88.94,2.29-.47,1.42-1.41a45,45,0,0,1-6.37-8.71,1,1,0,0,0-1.72,0l-5,9.06c-.62,1.13,1.1,2.14,1.73,1Z" transform="translate(-0.02)"/>
        <path class="cls-1" d="M121.19,171.52l3.14,5.65c.49.89.93,1.84,1.5,2.68a1.81,1.81,0,0,0,2.3.79,12.14,12.14,0,0,0,2.31-1.93l2.45-2.14c.8-.71,1.61-1.41,2.4-2.12a6.56,6.56,0,0,0,1.7-2.07,1,1,0,0,0-.36-1.37,1,1,0,0,0-1.37.36,5.17,5.17,0,0,1-1.38,1.67c-.67.6-1.36,1.19-2,1.78l-4.13,3.63c-.09.08-.4.28-.41.36s0,.12.31.08l-.06,0c0-.12-.23-.39-.3-.51l-.36-.65-1.33-2.39-2.66-4.78c-.62-1.12-2.35-.11-1.72,1Z" transform="translate(-0.02)"/>
        <path class="cls-1" d="M128.38,17.71q.47,31.6.31,63.22-.18,31.44-1,62.89-.45,17.73-1.1,35.47c0,1.28,2,1.28,2,0q1.15-31.59,1.69-63.2.52-31.45.41-62.9-.06-17.74-.33-35.48a1,1,0,0,0-2,0Z" transform="translate(-0.02)"/>
      </g>
      <g>
        <path class="cls-1" d="M2.29,123c24.71,1.15,49.42,1.1,74.14.19,11.91-.44,23.78-.6,35.69-.34q26.69.6,53.38.78c7.49,0,15,0,22.48,0q33.22,0,66.45.17l8.75,0a1,1,0,0,0,0-2q-35.13-.12-70.25-.19c-8.36,0-16.72,0-25.07,0q-25.67-.12-51.31-.69c-10.92-.24-21.81-.36-32.73,0-11.38.36-22.75.85-34.13,1q-20.22.18-40.44-.59-3.48-.14-7-.3c-1.29-.06-1.29,1.94,0,2Z" transform="translate(-0.02)"/>
        <path class="cls-1" d="M255.38,118.46a22,22,0,0,1,5.15,2.63,21.33,21.33,0,0,1,2.24,1.78,4.94,4.94,0,0,1,1,1c-.07-.15.11-.2-.15,0s-.31.27-.47.4c-2.54,2.06-5.76,3.66-6.74,7a1,1,0,0,0,1.93.53,7.82,7.82,0,0,1,3.14-3.84c.77-.58,1.56-1.13,2.32-1.71s1.69-1.14,1.94-2c.3-1.14-.69-2-1.43-2.68a25.4,25.4,0,0,0-2.63-2.12,23.74,23.74,0,0,0-5.79-2.94c-1.22-.43-1.74,1.5-.54,1.92Z" transform="translate(-0.02)"/>
        <path class="cls-1" d="M10.61,112c-1.86,1.33-3.67,2.74-5.41,4.24-.8.69-1.59,1.41-2.37,2.14a16.39,16.39,0,0,0-2.32,2.39,2.08,2.08,0,0,0,.08,2.78,5,5,0,0,0,1.3.7l1.55.72,6.66,3.07a1,1,0,0,0,1.37-.36,1,1,0,0,0-.36-1.37l-5.66-2.61-2.77-1.28a4.49,4.49,0,0,0-.67-.31c-.14,0,0,.1,0,0a9.47,9.47,0,0,1,.76-.94,69.54,69.54,0,0,1,8.84-7.5,1,1,0,0,0,.36-1.36,1,1,0,0,0-1.37-.36Z" transform="translate(-0.02)"/>
      </g>
      <path class="cls-1" d="M126.89.23a4.6,4.6,0,0,0-.23,4.06c.41,1.21,1.07,2.8,2.29,3.39s2.44-.29,3.17-1.31a18.83,18.83,0,0,0,2.29-4.49l-1-.27a21.68,21.68,0,0,1-3,7.76A7.78,7.78,0,0,1,127.24,12a22.87,22.87,0,0,1-5.18,1.23c-.64.12-.37,1.08.26,1a23.45,23.45,0,0,0,5.43-1.34,8.75,8.75,0,0,0,3.38-2.74c1.81-2.39,2.6-5.41,3.28-8.28a.5.5,0,0,0-1-.27A19,19,0,0,1,131.83,5c-.48.78-1.38,2.39-2.52,1.75A5.15,5.15,0,0,1,127.62,4a3.65,3.65,0,0,1,.14-3.3c.35-.54-.51-1-.87-.5Z" transform="translate(-0.02)"/>
      <path class="cls-2" d="M106.67,107.83c2.67-2.75,6.3-4.25,10-5.21a44.29,44.29,0,0,1,12.76-1.5c7.4.24,15.66,2.9,20,9.32,2.58,3.81,3.24,8.52,5.57,12.47a1,1,0,0,0,1.86-.5l.13-1.3a1,1,0,0,0-1-1,1,1,0,0,0-1,1l-.13,1.3,1.87-.51c-2.19-3.71-2.89-8.07-5.12-11.76a21.15,21.15,0,0,0-8.32-7.57c-7.9-4.19-17.4-4.16-25.93-2.18-4.39,1-8.85,2.73-12,6-.9.92.52,2.34,1.41,1.41Z" transform="translate(-0.02)"/>
      <g>
        <path class="cls-1" d="M266.25,118.57l8,11.37a.5.5,0,0,0,.43.24.78.78,0,0,0,.21-1.51c-.6-.25-.86.72-.27,1l.06-.45.43.25-8-11.36c-.37-.52-1.23,0-.86.5Z" transform="translate(-0.02)"/>
        <path class="cls-1" d="M274.18,117.15l-8.29,11.12.69-.18h0c.13-.63-.83-.9-1-.27a1,1,0,0,0,.49,1.12.52.52,0,0,0,.69-.18L275,117.65c.39-.51-.48-1-.86-.5Z" transform="translate(-0.02)"/>
      </g>
      <path class="cls-3" d="M235.6,114.86l6.29,3.33,3,1.6a10.78,10.78,0,0,1,2.41,1.42.72.72,0,0,1,.24.3c-.07-.13-.05.22,0,0a1.55,1.55,0,0,1-.57.7c-.8.74-1.69,1.4-2.54,2.09l-5.54,4.51a1.5,1.5,0,0,0,0,2.12,1.52,1.52,0,0,0,2.12,0l4.78-3.89,2.39-1.94a7.54,7.54,0,0,0,1.89-1.93c1.11-1.91,0-3.8-1.66-4.88s-3.44-1.86-5.15-2.76l-6.18-3.27a1.5,1.5,0,0,0-1.52,2.59Z" transform="translate(-0.02)"/>
      <g>
        <path class="cls-3" d="M6.1,56.85Q18.35,64.4,30.92,71.41q11.65,6.51,23.56,12.51c6.9,3.49,13.85,6.87,20.76,10.33Q87,100.13,98.63,106.42q12.66,6.9,25,14.3l3.38,2c1.66,1,3.17-1.59,1.52-2.59q-12.37-7.47-25-14.47Q91.6,99.1,79.42,93c-6.91-3.48-13.87-6.86-20.79-10.33q-11.57-5.8-22.91-12Q22.88,63.58,10.35,55.93L7.61,54.26c-1.64-1-3.15,1.58-1.51,2.59Z" transform="translate(-0.02)"/>
        <path class="cls-3" d="M127.86,122.93a244,244,0,0,1,24.93,1c2.37.22,4.73.49,7.11.64,3,.19,6,.24,9,.22,6.95-.06,13.89-.5,20.82-.85,8.87-.46,17.75-.81,26.63-.92q12.77-.16,25.52.23l3.92.14c1.93.07,1.92-2.93,0-3q-13.49-.51-27-.4c-8.7.08-17.41.37-26.1.8-7.17.35-14.33.82-21.51,1a138.29,138.29,0,0,1-16.66-.65c-8.12-.8-16.28-1.18-24.43-1.17l-2.3,0a1.5,1.5,0,0,0,0,3Z" transform="translate(-0.02)"/>
        <path class="cls-3" d="M18.44,51.73c-1.81.93-3.93.7-5.87.33-1.16-.22-2.31-.49-3.47-.72a9.5,9.5,0,0,0-3.63-.28,2.92,2.92,0,0,0-2.26,2.3,5.24,5.24,0,0,0,.58,3.17c.48,1,1.13,2,1.71,3s1.28,2.08,1.94,3.11c1.5,2.35,3.08,4.65,4.72,6.91a1.56,1.56,0,0,0,2.06.54A1.52,1.52,0,0,0,14.75,68q-4-5.47-7.44-11.33a8.66,8.66,0,0,1-1.15-2.35s0-.29,0-.09a1.77,1.77,0,0,1,0-.23c0-.19,0,0,0,0-.11-.33.12-.08,0,0s.09,0,0,0l.5,0c2,.15,4,.81,6,1.13A11.54,11.54,0,0,0,20,54.32a1.5,1.5,0,0,0-1.51-2.59Z" transform="translate(-0.02)"/>
      </g>
      <g>
        <path class="cls-2" d="M149.52,86.51,142.66,83a.5.5,0,0,0-.73.3,53.7,53.7,0,0,0-1.27,9.27.51.51,0,0,0,.63.49c2.06-.54,4.3-1.14,6.41-.54A4.21,4.21,0,0,1,150.75,96c.2,1.89-1.48,2.82-3.16,2.86a11.69,11.69,0,0,1-3-.37c-.52-.12-1-.26-1.55-.42-.29-.1-.58-.19-.87-.3l-.42-.16a.88.88,0,0,0-.86,0c.29.58,1.15.08.87-.5s-1.43-.3-1.4.42c0,1,1.61,1.27,2.31,1.5,2,.64,4.44,1.27,6.5.61a3.47,3.47,0,0,0,2.5-3.83,5.16,5.16,0,0,0-2.88-3.89c-2.47-1.14-5.31-.44-7.81.21l.63.48a52.52,52.52,0,0,1,1.23-9l-.73.3L149,87.38c.58.29,1.08-.57.51-.87Z" transform="translate(-0.02)"/>
        <path class="cls-2" d="M156,85.69l-.55,9.49a.51.51,0,0,0,.94.25l.24-.48c.29-.57-.58-1.07-.87-.5l-.24.47.93.26.55-9.49c0-.64-1-.64-1,0Z" transform="translate(-0.02)"/>
        <path class="cls-2" d="M159.15,84.17a28.09,28.09,0,0,1,1.34,9.28.5.5,0,0,0,1,0,29,29,0,0,0-1.38-9.55c-.19-.61-1.16-.34-1,.27Z" transform="translate(-0.02)"/>
        <path class="cls-2" d="M151.49,87.38l7.07-2.85,3.48-1.4c1-.39,2.26-1.07,3.32-.58.58.27,1.09-.59.51-.86a3.87,3.87,0,0,0-3,.06c-1.29.47-2.56,1-3.84,1.54l-7.77,3.13c-.59.24-.33,1.2.27,1Z" transform="translate(-0.02)"/>
        <path class="cls-2" d="M169.18,89.11l-17.39,16.15c-.47.44.24,1.15.71.71l17.39-16.16c.47-.43-.24-1.14-.71-.7Z" transform="translate(-0.02)"/>
        <path class="cls-2" d="M169.3,93.09a21.91,21.91,0,0,0-5,7,21.42,21.42,0,0,0-1.34,4,6,6,0,0,0,.09,3.67c1.12,2.53,4.3,2.09,6.31,1a11.09,11.09,0,0,0,3.24-2.58c.71-.82,1.91-2.19,1.09-3.31s-2.6-.7-3.72-.52a22.07,22.07,0,0,0-5.09,1.51c-.59.25-.08,1.11.51.86a19.61,19.61,0,0,1,3.74-1.19,7.32,7.32,0,0,1,3.34-.31c1.3.4-.56,2.27-1.06,2.78a10.34,10.34,0,0,1-2.74,2c-1.76.88-4.58,1.09-4.92-1.45a8.11,8.11,0,0,1,.43-3.2,20.61,20.61,0,0,1,1.24-3.31A21,21,0,0,1,170,93.8c.47-.45-.24-1.15-.71-.71Z" transform="translate(-0.02)"/>
      </g>
      <path class="cls-2" d="M26.38,68.48c.14-.24.28-.48.44-.71,0,0,.3-.37.11-.14l.18-.21a8.21,8.21,0,0,1,.58-.6c.1-.1.21-.19.32-.28.33-.29-.23.15.13-.11a11.77,11.77,0,0,1,1.33-.77c.4-.2-.27.08.15-.07l.4-.13a7.4,7.4,0,0,1,.81-.21c.4-.09-.28,0,.14,0,.14,0,.27,0,.41,0-.33,0,.06,0,.13,0-.1,0-.19-.14,0,0l-.09-.08c.12.12.12.11,0,0l.06.1c-.06-.18-.07-.19,0,0s0,.42,0,.08c0,.13,0,.25,0,.38,0-.37,0,0,0,.1s-.19.41,0,.11c-.1.19-.21.36-.32.54.18-.29,0,0-.07.08s-.17.18-.26.26-.36.29-.08.08a2.11,2.11,0,0,1-.31.21,5.25,5.25,0,0,1-.66.36c.28-.13,0,0-.05,0l-.3.11c-.25.07-.5.13-.76.18,0,0-.41.07-.18,0s-.27,0-.32,0a6.57,6.57,0,0,1-.77,0l-.32,0c-.08,0-.36-.06-.06,0l-.4-.09c-.32-.09.13.14-.11-.07,0,0,.19.27.13.12s-.05-.06,0,.09a2,2,0,0,1-.06-.23c.08.35,0,0,0-.1,0,.35,0,0,0-.12a2.58,2.58,0,0,0,.08-.26c.13-.38-.14.21.07-.14s.28-.48.44-.71l.18-.24c-.14.18.21-.24.24-.28a10.68,10.68,0,0,1,1.18-1.15s.39-.3.17-.14l.36-.26.25-.17.26-.16c.16-.08.18-.09.06,0-.28-.1-.18.06-.56-.23.12.12.12.11,0,0,.07.14.09.16,0,.06s.06.17.06.17a4.26,4.26,0,0,1,.1.49c-.05-.38,0,0,0,.1s0,.25,0,.37c0,.4.07-.3,0,.1,0,.16-.07.32-.11.48l-.12.36c.08-.25,0,0-.06.1l-.18.32c0,.07-.36.46-.14.21a5.11,5.11,0,0,1-.52.52c.25-.22-.05,0-.1.07s-.29.16-.44.24l1.82.23-.1-.09c.15.15,0-.06-.07-.11s-.17-.32-.07-.11,0-.07,0-.12a2.61,2.61,0,0,1-.06-.27c-.06-.16,0,.35,0,0,0-.13.07-.64,0-.25,0-.18.08-.36.13-.53s0,0,0,.05c0-.07.09-.16.13-.23s.11-.14,0,0l.18-.19c.13-.14.14-.11,0,0A2.61,2.61,0,0,1,30,65.4l-2.21-.9c0,.18,0,.19,0,0l0,.28c0,.13,0,.27,0,.41a6.11,6.11,0,0,1-.05,1c0-.34,0,.22-.05.28s-.06.26-.1.4-.1.35-.15.52a3.24,3.24,0,0,0-.12.33c0-.13-.13.28-.15.32l-.23.43c-.08.13-.16.27-.25.4s-.29.41-.2.3-.2.23-.23.27l-.33.35-.35.32-.21.18c.12-.1.11-.09,0,0l1.82.23a3.17,3.17,0,0,1-.34-.3L26.72,70c.1.13.1.13,0,0l-.19-.35c.15.27,0-.05,0-.13s-.12-.6-.08-.24a2.61,2.61,0,0,1,0-.4c0-.07.07-.43,0-.12,0-.15.08-.29.11-.44s0-.09,0,.05a1.71,1.71,0,0,1,.13-.23c0-.06.26-.36.06-.13l.27-.28.2-.17c-.11.08-.12.1,0,0l.41-.23c-.24.12,0,0,.13,0a2.34,2.34,0,0,1,.38-.09c-.36.06.18,0,.25,0L27,66.54a1.57,1.57,0,0,1,.15.72,1.51,1.51,0,0,1,0,.3c0-.14,0-.13,0,0s-.05.2-.08.3S27,68.1,27,68l1.69-.69a.92.92,0,0,1,.54,1.33,1.5,1.5,0,1,0-2.59-1.52,2.16,2.16,0,0,0,1.25,3.08,1.51,1.51,0,0,0,1.7-.69,5,5,0,0,0,0-4.46,1.47,1.47,0,0,0-1.3-.74,4.86,4.86,0,0,0-4.61,3.14,4.79,4.79,0,0,0,1.42,5.19,1.56,1.56,0,0,0,1.82.23,9.42,9.42,0,0,0,3.79-9.14,1.52,1.52,0,0,0-2.21-.9,4.35,4.35,0,0,0-.93,6.73,1.54,1.54,0,0,0,1.82.24,5.88,5.88,0,0,0,2.87-3.43,5,5,0,0,0-.61-4.67c-1.52-1.84-3.79-.2-5.12,1a8.77,8.77,0,0,0-2.79,4,3.14,3.14,0,0,0,2.44,4.09,8.21,8.21,0,0,0,4.42-.38A6.11,6.11,0,0,0,34,67.43c.79-1.59.68-3.81-1-4.77s-3.87-.22-5.44.63A9.43,9.43,0,0,0,23.79,67a1.5,1.5,0,0,0,2.59,1.51Z" transform="translate(-0.02)"/>
      <g>
        <path class="cls-4" d="M28.15,114l3.37,0,1.62,0H34c.15,0,.36,0,.41.07a1.88,1.88,0,0,1,.08.63l.06.81c0,.55,0,1.09,0,1.64a22.32,22.32,0,0,1-.3,3.26c-.11.63.85.9,1,.26a23.61,23.61,0,0,0,.34-3.66c0-.63,0-1.27-.07-1.9a3.86,3.86,0,0,0-.27-1.59,1.41,1.41,0,0,0-1.3-.52L32,113l-3.87,0a.5.5,0,0,0,0,1Z" transform="translate(-0.02)"/>
        <g>
          <path class="cls-4" d="M27.19,81.17a15.78,15.78,0,0,0,12.29-5.06c.43-.48-.28-1.19-.71-.71a14.78,14.78,0,0,1-11.58,4.77c-.65,0-.64,1,0,1Z" transform="translate(-0.02)"/>
          <g>
            <path class="cls-4" d="M32,84l.21,9.39a.5.5,0,0,0,1,0L33,84a.5.5,0,0,0-1,0Z" transform="translate(-0.02)"/>
            <path class="cls-4" d="M35.62,83.17a52.37,52.37,0,0,0,.22,8.4c.07.63,1.07.64,1,0a52.37,52.37,0,0,1-.22-8.4c0-.65-1-.64-1,0Z" transform="translate(-0.02)"/>
            <path class="cls-4" d="M29.91,85c2.82-1.6,6.1-1.94,9.26-2.26.64-.06.64-1.06,0-1-3.34.33-6.79.7-9.76,2.4a.5.5,0,0,0,.5.86Z" transform="translate(-0.02)"/>
            <path class="cls-4" d="M42.56,82.16a97.21,97.21,0,0,1-5.62,13.75c-.29.57.57,1.08.86.5a96.51,96.51,0,0,0,5.72-14c.2-.62-.77-.88-1-.27Z" transform="translate(-0.02)"/>
            <path class="cls-4" d="M44.33,88.51a.74.74,0,0,1,1-.21.94.94,0,0,1,.5,1.08c-.21,1.29-1.64,1.8-2.7,2.19-.6.21-.35,1.16.26,1a3.36,3.36,0,0,1,2.55-.06,1.39,1.39,0,0,1,.76,1.59,1.59,1.59,0,0,1-.79.7c-.4.22-.81.42-1.23.61a17.15,17.15,0,0,1-2.69.94.5.5,0,0,0,.26,1A19.89,19.89,0,0,0,45.63,96c.92-.45,2-1,2.07-2.12a2.49,2.49,0,0,0-1.26-2.26,4.22,4.22,0,0,0-3.36-.06l.26,1c1.63-.59,3.77-1.63,3.43-3.74a1.86,1.86,0,0,0-1.42-1.51,1.67,1.67,0,0,0-1.89.73.5.5,0,0,0,.87.5Z" transform="translate(-0.02)"/>
          </g>
        </g>
        <g>
          <path class="cls-4" d="M105.12,110.36a18.46,18.46,0,0,0-3.78,10.82.5.5,0,0,0,1,0A17.6,17.6,0,0,1,106,110.86c.38-.52-.49-1-.87-.5Z" transform="translate(-0.02)"/>
          <g>
            <path class="cls-4" d="M80.35,105.88v7.17a.5.5,0,0,0,1,0v-7.17a.5.5,0,0,0-1,0Z" transform="translate(-0.02)"/>
            <path class="cls-4" d="M83.3,105.87l.52,5.76a.52.52,0,0,0,.5.5.5.5,0,0,0,.5-.5l-.52-5.76a.51.51,0,0,0-.5-.5.5.5,0,0,0-.5.5Z" transform="translate(-0.02)"/>
            <path class="cls-4" d="M78.36,106.61l4-.72c1.33-.23,2.67-.43,4-.77a.5.5,0,0,0-.27-1c-1.3.35-2.65.54-4,.78l-4,.72c-.63.11-.36,1.08.27,1Z" transform="translate(-0.02)"/>
            <path class="cls-4" d="M88.74,105.38q-2.43,5.41-5.37,10.58a.5.5,0,0,0,.87.51q2.94-5.16,5.36-10.59c.26-.58-.6-1.09-.86-.5Z" transform="translate(-0.02)"/>
            <path class="cls-4" d="M91.6,108.14a52.45,52.45,0,0,0-1.68,5.15c-.34,1.29-.78,2.84-.07,4.09a2.62,2.62,0,0,0,3.37.94,4.29,4.29,0,0,0,2.23-3.4.51.51,0,0,0-.23-.56,3.51,3.51,0,0,0-4.28,1.09c-.38.52.48,1,.87.51a2.46,2.46,0,0,1,2.9-.74l-.23-.57a3.37,3.37,0,0,1-1.71,2.78,1.58,1.58,0,0,1-2.28-1.29,9.7,9.7,0,0,1,.68-3.59c.4-1.4.87-2.78,1.39-4.14.23-.6-.73-.86-1-.27Z" transform="translate(-0.02)"/>
          </g>
        </g>
        <path class="cls-4" d="M123.36,119.83q-18-10.51-36.44-20.31-19-10.09-38.38-19.42-10.4-5-20.91-9.77a1,1,0,0,0-1.5.86c.3,7,.45,14,.35,21-.08,5.36-.34,10.72-.18,16.09q.16,6.06.8,12.1a1,1,0,0,0,1,1q10.93,0,21.86,0c5.63,0,11.26.11,16.88.18l20.31.26q5.2.07,10.39.06c7.73,0,15.46-.12,23.18-.21l2.14,0a1,1,0,0,0,0-2q-11.26.15-22.53.23c-3.88,0-7.76,0-11.64,0-6.36-.07-12.72-.17-19.07-.25-5.88-.07-11.76-.15-17.63-.19q-10.31-.09-20.59-.06H28.1l1,1a163.54,163.54,0,0,1-.82-20.88c.13-5,.27-10.07.21-15.11,0-4.41-.17-8.81-.36-13.22l-1.51.87Q45.7,80.73,64.43,90.14q19.18,9.64,38,20.06,10,5.56,20,11.36A1,1,0,0,0,123.36,119.83Z" transform="translate(-0.02)"/>
      </g>
      <g>
        <path class="cls-2" d="M34.56,39.52c-1.69-.16-2.52,2.19-3,3.42a20,20,0,0,0,.64,16.62c.3.57,1.16.07.87-.5a18.92,18.92,0,0,1-2-9.75,19.38,19.38,0,0,1,1-4.87,18.11,18.11,0,0,1,1-2.32c.3-.6.73-1.68,1.55-1.6.64.07.63-.94,0-1Z" transform="translate(-0.02)"/>
        <path class="cls-2" d="M34.54,47.62a35.65,35.65,0,0,0,5.27-.09.5.5,0,0,0,0-1,35.65,35.65,0,0,1-5.27.09c-.64,0-.64,1,0,1Z" transform="translate(-0.02)"/>
        <path class="cls-2" d="M41.42,48.85a4.93,4.93,0,0,1,3.09.2,3.5,3.5,0,0,1,1.33,2.24.51.51,0,0,0,1,0c.93-2.85-.45-5.81.3-8.67.11-.41.17-.66.64-.71A7.7,7.7,0,0,1,49.1,42l2.57.22c.21,0,.95,0,1.1.1s0,.77,0,1V46a.5.5,0,0,0,1,0c0-1.1,0-2.21,0-3.31,0-.69-.16-1.23-.92-1.37-1-.18-2.07-.19-3.09-.27L48.17,41A2.31,2.31,0,0,0,47,41c-.71.31-.89,1.23-1,1.92a11.3,11.3,0,0,0-.08,2.6c.13,1.83.49,3.69-.1,5.49h1a4.63,4.63,0,0,0-1.65-2.75,5.36,5.36,0,0,0-3.74-.43c-.63.09-.63,1.09,0,1Z" transform="translate(-0.02)"/>
        <path class="cls-2" d="M49,44.41a3,3,0,0,1,1.5.25,1.35,1.35,0,0,1,.45.33,1.34,1.34,0,0,0,.06.12s0,.07,0,0,0,0,0,0a.91.91,0,0,1-.24.28,2.59,2.59,0,0,1-.58.34,6.66,6.66,0,0,1-1.69.43c-.55.08-.43,1,.13,1a5.37,5.37,0,0,1,2.15.19,3.38,3.38,0,0,1,.8.36,1.57,1.57,0,0,1,.25.2s.11.17.1.13,0,.15,0,.06c0,.09,0,0,0,.07a.53.53,0,0,1-.09.16,1.91,1.91,0,0,1-.67.46,4.94,4.94,0,0,1-2.18.36c-.65,0-.64,1,0,1a5.65,5.65,0,0,0,2.83-.57c.62-.33,1.26-.94,1.08-1.71s-.91-1.13-1.55-1.38a6,6,0,0,0-2.73-.33l.14,1a6.19,6.19,0,0,0,2.18-.66A1.83,1.83,0,0,0,52,45.24a1.49,1.49,0,0,0-.86-1.37A3.8,3.8,0,0,0,49,43.41c-.64,0-.65,1,0,1Z" transform="translate(-0.02)"/>
        <path class="cls-2" d="M38.56,54.86l13.33-1.49c.64-.07.64-1.07,0-1L38.56,53.86c-.63.07-.64,1.07,0,1Z" transform="translate(-0.02)"/>
        <path class="cls-2" d="M44.16,55.72a4.55,4.55,0,0,1,2.47.62c.52.34.86.93.33,1.42a3.27,3.27,0,0,1-1.82.62,3.64,3.64,0,0,0-2.08.85.51.51,0,0,0,.22.84l4.81.71,1.13.17a2.77,2.77,0,0,0,1.07.07.73.73,0,0,0,.09-1.39c-.61-.23-.87.74-.27,1,.11-.38,0-.56-.19-.54l-.1,0L49.35,60l-.8-.11-1.67-.25-3.33-.5.22.84c.63-.61,1.62-.54,2.42-.72a2.7,2.7,0,0,0,1.94-1.42,1.93,1.93,0,0,0-1-2.29,5.29,5.29,0,0,0-3-.79.5.5,0,0,0,0,1Z" transform="translate(-0.02)"/>
        <path class="cls-2" d="M55.8,56.62,54,61.9c-.2.61.76.88,1,.27l1.77-5.28c.21-.61-.76-.88-1-.27Z" transform="translate(-0.02)"/>
        <path class="cls-2" d="M63.24,43.71a16.62,16.62,0,0,0,.09,5.54.5.5,0,0,0,.49.37,1,1,0,0,0,.91-1.3c-.2-.6-1.17-.34-1,.27,0,.09,0,.08,0,0s0,.07,0,.06-.23,0,0,0l.48.36a15,15,0,0,1-.1-5,.52.52,0,0,0-.35-.62.5.5,0,0,0-.61.35Z" transform="translate(-0.02)"/>
        <path class="cls-2" d="M59.69,52c1.07.8,2.48.46,3.65.15L68,50.94a.5.5,0,0,0-.27-1L63.54,51.1c-1,.28-2.38.8-3.34.08-.51-.39-1,.47-.51.86Z" transform="translate(-0.02)"/>
        <path class="cls-2" d="M61.62,55.31a8.67,8.67,0,0,0,2.1,0,.77.77,0,0,1,.65.22.56.56,0,0,1-.06.66,2.78,2.78,0,0,1-1.84.93,3.3,3.3,0,0,0-1.92,1.13A.5.5,0,0,0,61,59a12.41,12.41,0,0,1,5.85.74.5.5,0,0,0,.62-.35.5.5,0,0,0-.35-.61A13,13,0,0,0,61,58l.43.75c.47-.62,1.48-.67,2.16-.88a2.65,2.65,0,0,0,1.84-1.72,1.47,1.47,0,0,0-1.2-1.79c-.77-.14-1.57.15-2.33,0a.5.5,0,0,0-.26,1Z" transform="translate(-0.02)"/>
        <path class="cls-2" d="M69.41,40.41a36.12,36.12,0,0,1,2.13,11.13,34.79,34.79,0,0,1-.24,5.68,8,8,0,0,1-.65,2.59c-.36.7-1.16,1.47-2,1a.5.5,0,0,0-.5.86c1.71,1,3.22-.72,3.71-2.22a20.91,20.91,0,0,0,.69-6.31,37.27,37.27,0,0,0-2.18-13c-.22-.61-1.19-.35-1,.26Z" transform="translate(-0.02)"/>
      </g>
      <g>
        <path class="cls-2" d="M27.41,126.81c-.76,1.62.84,2.66,2.23,3a10.53,10.53,0,0,0,3.17.05l4-.3,16.56-1.22,9.33-.69-.43-.25L66,135a.5.5,0,0,0,.91-.12L68.66,127l-.48.37q12,1.32,24,2c7.9.47,15.83.83,23.74.83a8.35,8.35,0,0,0,5.24-1.3,4,4,0,0,0,1.59-4.14.5.5,0,0,0-1,.27,3.17,3.17,0,0,1-1.89,3.5c-1.56.79-3.43.68-5.13.66-3.77-.05-7.53-.14-11.3-.28q-11.3-.41-22.56-1.34-6.37-.52-12.74-1.23a.49.49,0,0,0-.48.37l-1.79,7.88.91-.12-3.71-7.57a.48.48,0,0,0-.43-.25l-29.87,2.21a8.45,8.45,0,0,1-3.21-.1c-.58-.18-1.7-.65-1.33-1.44.28-.58-.59-1.09-.86-.51Z" transform="translate(-0.02)"/>
        <g>
          <path class="cls-2" d="M55.51,146.67a2.89,2.89,0,0,1,3.38.15,9.19,9.19,0,0,1,2.4,3.05.51.51,0,0,0,.92-.39l-1.42-5.81-.36-1.45c-.11-.44-.43-1.14,0-1.47a4.08,4.08,0,0,1,1.24-.39l1.54-.44,2.86-.8a7.82,7.82,0,0,1,2.8-.6c1.62.16,1.43,2.3,1.24,3.45-.11.63.85.9,1,.26.24-1.43.39-3.41-1-4.34a3.49,3.49,0,0,0-3-.1c-1.23.33-2.46.69-3.69,1a21.37,21.37,0,0,0-3.34,1c-1,.49-.92,1.37-.69,2.32l1.86,7.62.92-.39a9.27,9.27,0,0,0-3.08-3.6,3.77,3.77,0,0,0-4.07.05c-.51.38,0,1.25.5.86Z" transform="translate(-0.02)"/>
          <path class="cls-2" d="M63.92,142.66c.34,0,3.28-.07,3.07.54-.15.41-.88.46-1.22.56a2,2,0,0,0-1.23.82.5.5,0,0,0,.56.73,1.84,1.84,0,0,1,2.22,1.54,1.81,1.81,0,0,1-2.1,1.78c-.63-.13-.9.83-.27,1a2.72,2.72,0,1,0-.11-5.25l.56.73c.29-.45,1.09-.43,1.54-.62a1.52,1.52,0,0,0,1-1.57c-.16-.72-.9-1-1.54-1.09a8,8,0,0,0-2.53-.14c-.63.06-.64,1.06,0,1Z" transform="translate(-0.02)"/>
          <path class="cls-2" d="M74,142.26q-3.27,4.43-6.32,9c-.49.73-1,1.47-1.46,2.22-.32.49-.87,1.19-.44,1.78.74,1,1.94-.76.82-1-.63-.15-.89.81-.27,1l.08,0-.3-.23,0,.06-.05-.39c.34.16.56.1.66-.16s.18-.27.26-.41.36-.54.53-.81l.94-1.41c.69-1,1.39-2.07,2.1-3.1q2.1-3,4.29-6c.38-.51-.49-1-.87-.5Z" transform="translate(-0.02)"/>
          <path class="cls-2" d="M73.25,148.48a6.41,6.41,0,0,1,3.16.3,2.37,2.37,0,0,1,1.19.7c.21.33,0,.67-.22.93A9.11,9.11,0,0,1,74.8,152l-3.23,1.69c-.47.24-.21.9.25.93a50.08,50.08,0,0,1,7.9,1.11c.62.14.89-.82.26-1a50.9,50.9,0,0,0-8.16-1.15l.26.93L76,152.45c1-.5,2.24-1,2.6-2.18s-.74-2-1.74-2.38a7.55,7.55,0,0,0-3.88-.38c-.64.1-.37,1.06.26,1Z" transform="translate(-0.02)"/>
        </g>
      </g>
      <g>
        <path class="cls-2" d="M21.79,73.77c-2.91.51-2,4.78-1.7,6.71l1.65,11.68.35-.62A7.72,7.72,0,0,0,17,95a.51.51,0,0,0,.3.74l1.55.38a9.3,9.3,0,0,1,1.67.43c.52.26.38.79.35,1.29l-.13,1.73-.5,6.93c-.16,2.25-.33,4.5-.48,6.76-.12,1.73-.19,3.72.91,5.19A3.41,3.41,0,0,0,25,119.65a.5.5,0,0,0-.5-.86c-1.53.91-3.16-.61-3.58-2-.55-1.87-.15-4,0-5.92q.48-6.54.94-13.1c.06-.85,0-1.64-.86-2a8.9,8.9,0,0,0-1.53-.43l-1.92-.48.3.74a6.72,6.72,0,0,1,4.48-3,.52.52,0,0,0,.35-.62L21.26,81.67a31.38,31.38,0,0,1-.54-4.42c0-1,.19-2.31,1.34-2.51.63-.11.36-1.08-.27-1Z" transform="translate(-0.02)"/>
        <g>
          <path class="cls-2" d="M3.9,87.83A14.85,14.85,0,0,0,5.46,94.2c.29.57,1.15.07.87-.51A13.58,13.58,0,0,1,4.9,87.83a.5.5,0,0,0-1,0Z" transform="translate(-0.02)"/>
          <path class="cls-2" d="M9.37,89.42a29.35,29.35,0,0,0-3.29,9.49c-.1.63.86.9,1,.27a28.38,28.38,0,0,1,3.18-9.25c.32-.57-.55-1.07-.86-.51Z" transform="translate(-0.02)"/>
          <path class="cls-2" d="M10.28,94a5.16,5.16,0,0,1,2.12.54,1.55,1.55,0,0,1,.81,1.42c-.09.63-.88,1-1.35,1.27L9.61,98.63a.51.51,0,0,0,0,.87,15.67,15.67,0,0,0,5.38,2c.63.11.9-.85.26-1a14.8,14.8,0,0,1-5.13-1.86v.87c.93-.6,1.87-1.2,2.79-1.81a2.27,2.27,0,0,0,1.3-2,2.62,2.62,0,0,0-1.14-2A6,6,0,0,0,10.28,93c-.64-.07-.63.93,0,1Z" transform="translate(-0.02)"/>
        </g>
      </g>
    </g>
  </g>
</svg>
