<svg xmlns="http://www.w3.org/2000/svg" viewBox="0 0 275.39 180.81">
  <defs>
    <style>
      .cls-1 {
        fill: #808285;
      }

      .cls-2 {
        fill: #231f20;
      }

      .cls-3 {
        fill: #ed1c24;
      }
    </style>
  </defs>
  <title>five-pi-over-six-angle-3</title>
  <g id="Layer_2" data-name="Layer 2">
    <g id="Layer_1-2" data-name="Layer 1">
      <g>
        <path class="cls-1" d="M125.11,25.7l5-9.06h-1.72a47.27,47.27,0,0,0,6.67,9.11c.88.94,2.29-.47,1.42-1.41a45,45,0,0,1-6.37-8.71,1,1,0,0,0-1.72,0l-5,9.06c-.62,1.13,1.1,2.14,1.73,1Z" transform="translate(-0.02)"/>
        <path class="cls-1" d="M121.19,171.52l3.14,5.65c.49.89.93,1.84,1.5,2.68a1.81,1.81,0,0,0,2.3.79,12.14,12.14,0,0,0,2.31-1.93l2.45-2.14c.8-.71,1.61-1.41,2.4-2.12a6.56,6.56,0,0,0,1.7-2.07,1,1,0,0,0-.36-1.37,1,1,0,0,0-1.37.36,5.17,5.17,0,0,1-1.38,1.67c-.67.6-1.36,1.19-2,1.78l-4.13,3.63c-.09.08-.4.28-.41.36s0,.12.31.08l-.06,0c0-.12-.23-.39-.3-.51l-.36-.65-1.33-2.39-2.66-4.78c-.62-1.12-2.35-.11-1.72,1Z" transform="translate(-0.02)"/>
        <path class="cls-1" d="M128.38,17.71q.47,31.6.31,63.22-.18,31.44-1,62.89-.45,17.73-1.1,35.47c0,1.28,2,1.28,2,0q1.15-31.59,1.69-63.2.52-31.45.41-62.9-.06-17.74-.33-35.48a1,1,0,0,0-2,0Z" transform="translate(-0.02)"/>
      </g>
      <g>
        <path class="cls-1" d="M2.29,123c24.71,1.15,49.42,1.1,74.14.19,11.91-.44,23.78-.6,35.69-.34q26.69.6,53.38.78c7.49,0,15,0,22.48,0q33.22,0,66.45.17l8.75,0a1,1,0,0,0,0-2q-35.13-.12-70.25-.19c-8.36,0-16.72,0-25.07,0q-25.67-.12-51.31-.69c-10.92-.24-21.81-.36-32.73,0-11.38.36-22.75.85-34.13,1q-20.22.18-40.44-.59-3.48-.14-7-.3c-1.29-.06-1.29,1.94,0,2Z" transform="translate(-0.02)"/>
        <path class="cls-1" d="M255.38,118.46a22,22,0,0,1,5.15,2.63,21.33,21.33,0,0,1,2.24,1.78,4.94,4.94,0,0,1,1,1c-.07-.15.11-.2-.15,0s-.31.27-.47.4c-2.54,2.06-5.76,3.66-6.74,7a1,1,0,0,0,1.93.53,7.82,7.82,0,0,1,3.14-3.84c.77-.58,1.56-1.13,2.32-1.71s1.69-1.14,1.94-2c.3-1.14-.69-2-1.43-2.68a25.4,25.4,0,0,0-2.63-2.12,23.74,23.74,0,0,0-5.79-2.94c-1.22-.43-1.74,1.5-.54,1.92Z" transform="translate(-0.02)"/>
        <path class="cls-1" d="M10.61,112c-1.86,1.33-3.67,2.74-5.41,4.24-.8.69-1.59,1.41-2.37,2.14a16.39,16.39,0,0,0-2.32,2.39,2.08,2.08,0,0,0,.08,2.78,5,5,0,0,0,1.3.7l1.55.72,6.66,3.07a1,1,0,0,0,1.37-.36,1,1,0,0,0-.36-1.37l-5.66-2.61-2.77-1.28a4.49,4.49,0,0,0-.67-.31c-.14,0,0,.1,0,0a9.47,9.47,0,0,1,.76-.94,69.54,69.54,0,0,1,8.84-7.5,1,1,0,0,0,.36-1.36,1,1,0,0,0-1.37-.36Z" transform="translate(-0.02)"/>
      </g>
      <path class="cls-1" d="M126.89.23a4.6,4.6,0,0,0-.23,4.06c.41,1.21,1.07,2.8,2.29,3.39s2.44-.29,3.17-1.31a18.83,18.83,0,0,0,2.29-4.49l-1-.27a21.68,21.68,0,0,1-3,7.76A7.78,7.78,0,0,1,127.24,12a22.87,22.87,0,0,1-5.18,1.23c-.64.12-.37,1.08.26,1a23.45,23.45,0,0,0,5.43-1.34,8.75,8.75,0,0,0,3.38-2.74c1.81-2.39,2.6-5.41,3.28-8.28a.5.5,0,0,0-1-.27A19,19,0,0,1,131.83,5c-.48.78-1.38,2.39-2.52,1.75A5.15,5.15,0,0,1,127.62,4a3.65,3.65,0,0,1,.14-3.3c.35-.54-.51-1-.87-.5Z" transform="translate(-0.02)"/>
      <path class="cls-2" d="M106.67,107.83c2.67-2.75,6.3-4.25,10-5.21a44.29,44.29,0,0,1,12.76-1.5c7.4.24,15.66,2.9,20,9.32,2.58,3.81,3.24,8.52,5.57,12.47a1,1,0,0,0,1.86-.5l.13-1.3a1,1,0,0,0-1-1,1,1,0,0,0-1,1l-.13,1.3,1.87-.51c-2.19-3.71-2.89-8.07-5.12-11.76a21.15,21.15,0,0,0-8.32-7.57c-7.9-4.19-17.4-4.16-25.93-2.18-4.39,1-8.85,2.73-12,6-.9.92.52,2.34,1.41,1.41Z" transform="translate(-0.02)"/>
      <g>
        <path class="cls-1" d="M266.25,118.57l8,11.37a.5.5,0,0,0,.43.24.78.78,0,0,0,.21-1.51c-.6-.25-.86.72-.27,1l.06-.45.43.25-8-11.36c-.37-.52-1.23,0-.86.5Z" transform="translate(-0.02)"/>
        <path class="cls-1" d="M274.18,117.15l-8.29,11.12.69-.18h0c.13-.63-.83-.9-1-.27a1,1,0,0,0,.49,1.12.52.52,0,0,0,.69-.18L275,117.65c.39-.51-.48-1-.86-.5Z" transform="translate(-0.02)"/>
      </g>
      <path class="cls-3" d="M235.6,114.86l6.29,3.33,3,1.6a10.78,10.78,0,0,1,2.41,1.42.72.72,0,0,1,.24.3c-.07-.13-.05.22,0,0a1.55,1.55,0,0,1-.57.7c-.8.74-1.69,1.4-2.54,2.09l-5.54,4.51a1.5,1.5,0,0,0,0,2.12,1.52,1.52,0,0,0,2.12,0l4.78-3.89,2.39-1.94a7.54,7.54,0,0,0,1.89-1.93c1.11-1.91,0-3.8-1.66-4.88s-3.44-1.86-5.15-2.76l-6.18-3.27a1.5,1.5,0,0,0-1.52,2.59Z" transform="translate(-0.02)"/>
      <g>
        <path class="cls-3" d="M6.1,56.85Q18.35,64.4,30.92,71.41q11.65,6.51,23.56,12.51c6.9,3.49,13.85,6.87,20.76,10.33Q87,100.13,98.63,106.42q12.66,6.9,25,14.3l3.38,2c1.66,1,3.17-1.59,1.52-2.59q-12.37-7.47-25-14.47Q91.6,99.1,79.42,93c-6.91-3.48-13.87-6.86-20.79-10.33q-11.57-5.8-22.91-12Q22.88,63.58,10.35,55.93L7.61,54.26c-1.64-1-3.15,1.58-1.51,2.59Z" transform="translate(-0.02)"/>
        <path class="cls-3" d="M127.86,122.93a244,244,0,0,1,24.93,1c2.37.22,4.73.49,7.11.64,3,.19,6,.24,9,.22,6.95-.06,13.89-.5,20.82-.85,8.87-.46,17.75-.81,26.63-.92q12.77-.16,25.52.23l3.92.14c1.93.07,1.92-2.93,0-3q-13.49-.51-27-.4c-8.7.08-17.41.37-26.1.8-7.17.35-14.33.82-21.51,1a138.29,138.29,0,0,1-16.66-.65c-8.12-.8-16.28-1.18-24.43-1.17l-2.3,0a1.5,1.5,0,0,0,0,3Z" transform="translate(-0.02)"/>
        <path class="cls-3" d="M18.44,51.73c-1.81.93-3.93.7-5.87.33-1.16-.22-2.31-.49-3.47-.72a9.5,9.5,0,0,0-3.63-.28,2.92,2.92,0,0,0-2.26,2.3,5.24,5.24,0,0,0,.58,3.17c.48,1,1.13,2,1.71,3s1.28,2.08,1.94,3.11c1.5,2.35,3.08,4.65,4.72,6.91a1.56,1.56,0,0,0,2.06.54A1.52,1.52,0,0,0,14.75,68q-4-5.47-7.44-11.33a8.66,8.66,0,0,1-1.15-2.35s0-.29,0-.09a1.77,1.77,0,0,1,0-.23c0-.19,0,0,0,0-.11-.33.12-.08,0,0s.09,0,0,0l.5,0c2,.15,4,.81,6,1.13A11.54,11.54,0,0,0,20,54.32a1.5,1.5,0,0,0-1.51-2.59Z" transform="translate(-0.02)"/>
      </g>
      <g>
        <path class="cls-2" d="M149.52,86.51,142.66,83a.5.5,0,0,0-.73.3,53.7,53.7,0,0,0-1.27,9.27.51.51,0,0,0,.63.49c2.06-.54,4.3-1.14,6.41-.54A4.21,4.21,0,0,1,150.75,96c.2,1.89-1.48,2.82-3.16,2.86a11.69,11.69,0,0,1-3-.37c-.52-.12-1-.26-1.55-.42-.29-.1-.58-.19-.87-.3l-.42-.16a.88.88,0,0,0-.86,0c.29.58,1.15.08.87-.5s-1.43-.3-1.4.42c0,1,1.61,1.27,2.31,1.5,2,.64,4.44,1.27,6.5.61a3.47,3.47,0,0,0,2.5-3.83,5.16,5.16,0,0,0-2.88-3.89c-2.47-1.14-5.31-.44-7.81.21l.63.48a52.52,52.52,0,0,1,1.23-9l-.73.3L149,87.38c.58.29,1.08-.57.51-.87Z" transform="translate(-0.02)"/>
        <path class="cls-2" d="M156,85.69l-.55,9.49a.51.51,0,0,0,.94.25l.24-.48c.29-.57-.58-1.07-.87-.5l-.24.47.93.26.55-9.49c0-.64-1-.64-1,0Z" transform="translate(-0.02)"/>
        <path class="cls-2" d="M159.15,84.17a28.09,28.09,0,0,1,1.34,9.28.5.5,0,0,0,1,0,29,29,0,0,0-1.38-9.55c-.19-.61-1.16-.34-1,.27Z" transform="translate(-0.02)"/>
        <path class="cls-2" d="M151.49,87.38l7.07-2.85,3.48-1.4c1-.39,2.26-1.07,3.32-.58.58.27,1.09-.59.51-.86a3.87,3.87,0,0,0-3,.06c-1.29.47-2.56,1-3.84,1.54l-7.77,3.13c-.59.24-.33,1.2.27,1Z" transform="translate(-0.02)"/>
        <path class="cls-2" d="M169.18,89.11l-17.39,16.15c-.47.44.24,1.15.71.71l17.39-16.16c.47-.43-.24-1.14-.71-.7Z" transform="translate(-0.02)"/>
        <path class="cls-2" d="M169.3,93.09a21.91,21.91,0,0,0-5,7,21.42,21.42,0,0,0-1.34,4,6,6,0,0,0,.09,3.67c1.12,2.53,4.3,2.09,6.31,1a11.09,11.09,0,0,0,3.24-2.58c.71-.82,1.91-2.19,1.09-3.31s-2.6-.7-3.72-.52a22.07,22.07,0,0,0-5.09,1.51c-.59.25-.08,1.11.51.86a19.61,19.61,0,0,1,3.74-1.19,7.32,7.32,0,0,1,3.34-.31c1.3.4-.56,2.27-1.06,2.78a10.34,10.34,0,0,1-2.74,2c-1.76.88-4.58,1.09-4.92-1.45a8.11,8.11,0,0,1,.43-3.2,20.61,20.61,0,0,1,1.24-3.31A21,21,0,0,1,170,93.8c.47-.45-.24-1.15-.71-.71Z" transform="translate(-0.02)"/>
      </g>
      <path class="cls-2" d="M26.38,68.48c.14-.24.28-.48.44-.71,0,0,.3-.37.11-.14l.18-.21a8.21,8.21,0,0,1,.58-.6c.1-.1.21-.19.32-.28.33-.29-.23.15.13-.11a11.77,11.77,0,0,1,1.33-.77c.4-.2-.27.08.15-.07l.4-.13a7.4,7.4,0,0,1,.81-.21c.4-.09-.28,0,.14,0,.14,0,.27,0,.41,0-.33,0,.06,0,.13,0-.1,0-.19-.14,0,0l-.09-.08c.12.12.12.11,0,0l.06.1c-.06-.18-.07-.19,0,0s0,.42,0,.08c0,.13,0,.25,0,.38,0-.37,0,0,0,.1s-.19.41,0,.11c-.1.19-.21.36-.32.54.18-.29,0,0-.07.08s-.17.18-.26.26-.36.29-.08.08a2.11,2.11,0,0,1-.31.21,5.25,5.25,0,0,1-.66.36c.28-.13,0,0-.05,0l-.3.11c-.25.07-.5.13-.76.18,0,0-.41.07-.18,0s-.27,0-.32,0a6.57,6.57,0,0,1-.77,0l-.32,0c-.08,0-.36-.06-.06,0l-.4-.09c-.32-.09.13.14-.11-.07,0,0,.19.27.13.12s-.05-.06,0,.09a2,2,0,0,1-.06-.23c.08.35,0,0,0-.1,0,.35,0,0,0-.12a2.58,2.58,0,0,0,.08-.26c.13-.38-.14.21.07-.14s.28-.48.44-.71l.18-.24c-.14.18.21-.24.24-.28a10.68,10.68,0,0,1,1.18-1.15s.39-.3.17-.14l.36-.26.25-.17.26-.16c.16-.08.18-.09.06,0-.28-.1-.18.06-.56-.23.12.12.12.11,0,0,.07.14.09.16,0,.06s.06.17.06.17a4.26,4.26,0,0,1,.1.49c-.05-.38,0,0,0,.1s0,.25,0,.37c0,.4.07-.3,0,.1,0,.16-.07.32-.11.48l-.12.36c.08-.25,0,0-.06.1l-.18.32c0,.07-.36.46-.14.21a5.11,5.11,0,0,1-.52.52c.25-.22-.05,0-.1.07s-.29.16-.44.24l1.82.23-.1-.09c.15.15,0-.06-.07-.11s-.17-.32-.07-.11,0-.07,0-.12a2.61,2.61,0,0,1-.06-.27c-.06-.16,0,.35,0,0,0-.13.07-.64,0-.25,0-.18.08-.36.13-.53s0,0,0,.05c0-.07.09-.16.13-.23s.11-.14,0,0l.18-.19c.13-.14.14-.11,0,0A2.61,2.61,0,0,1,30,65.4l-2.21-.9c0,.18,0,.19,0,0l0,.28c0,.13,0,.27,0,.41a6.11,6.11,0,0,1-.05,1c0-.34,0,.22-.05.28s-.06.26-.1.4-.1.35-.15.52a3.24,3.24,0,0,0-.12.33c0-.13-.13.28-.15.32l-.23.43c-.08.13-.16.27-.25.4s-.29.41-.2.3-.2.23-.23.27l-.33.35-.35.32-.21.18c.12-.1.11-.09,0,0l1.82.23a3.17,3.17,0,0,1-.34-.3L26.72,70c.1.13.1.13,0,0l-.19-.35c.15.27,0-.05,0-.13s-.12-.6-.08-.24a2.61,2.61,0,0,1,0-.4c0-.07.07-.43,0-.12,0-.15.08-.29.11-.44s0-.09,0,.05a1.71,1.71,0,0,1,.13-.23c0-.06.26-.36.06-.13l.27-.28.2-.17c-.11.08-.12.1,0,0l.41-.23c-.24.12,0,0,.13,0a2.34,2.34,0,0,1,.38-.09c-.36.06.18,0,.25,0L27,66.54a1.57,1.57,0,0,1,.15.72,1.51,1.51,0,0,1,0,.3c0-.14,0-.13,0,0s-.05.2-.08.3S27,68.1,27,68l1.69-.69a.92.92,0,0,1,.54,1.33,1.5,1.5,0,1,0-2.59-1.52,2.16,2.16,0,0,0,1.25,3.08,1.51,1.51,0,0,0,1.7-.69,5,5,0,0,0,0-4.46,1.47,1.47,0,0,0-1.3-.74,4.86,4.86,0,0,0-4.61,3.14,4.79,4.79,0,0,0,1.42,5.19,1.56,1.56,0,0,0,1.82.23,9.42,9.42,0,0,0,3.79-9.14,1.52,1.52,0,0,0-2.21-.9,4.35,4.35,0,0,0-.93,6.73,1.54,1.54,0,0,0,1.82.24,5.88,5.88,0,0,0,2.87-3.43,5,5,0,0,0-.61-4.67c-1.52-1.84-3.79-.2-5.12,1a8.77,8.77,0,0,0-2.79,4,3.14,3.14,0,0,0,2.44,4.09,8.21,8.21,0,0,0,4.42-.38A6.11,6.11,0,0,0,34,67.43c.79-1.59.68-3.81-1-4.77s-3.87-.22-5.44.63A9.43,9.43,0,0,0,23.79,67a1.5,1.5,0,0,0,2.59,1.51Z" transform="translate(-0.02)"/>
      <g>
        <path class="cls-2" d="M24.27,72.17a7.66,7.66,0,0,0-2.78,2.76,2.69,2.69,0,0,0,.75,3.31,8.82,8.82,0,0,0,1.39,1c.72.43,1.4.92,2.1,1.38,1.67,1.11,3.36,2.21,5.05,3.29Q41,90.44,51.48,96.49c1,.54,1.92,1.08,2.87,1.63a3.8,3.8,0,0,1,1.07.83,1.91,1.91,0,0,1,.22,1.63c-.48,2.28-1.22,4.53-1.83,6.78a.5.5,0,0,0,.73.56l9.72-4.38h-.51q11.46,6.79,22.76,13.81,3.93,2.43,8,4.57a86.81,86.81,0,0,0,14.4,6.11,20.67,20.67,0,0,0,8.44,1,15,15,0,0,0,7.23-3c.51-.39,0-1.26-.5-.87a13.93,13.93,0,0,1-7.37,2.92,21.8,21.8,0,0,1-8.64-1.37,95.29,95.29,0,0,1-15.4-6.9c-2.8-1.53-5.5-3.22-8.21-4.89q-6-3.72-12.06-7.36-2.12-1.28-4.24-2.54L66,103.68l-1-.62c-.3-.18-.66-.5-1-.43a4.64,4.64,0,0,0-1,.46l-1.36.61L59,104.82l-5,2.24.73.56q.82-3,1.63-6a4.66,4.66,0,0,0,.24-2.45,2.94,2.94,0,0,0-1.24-1.56c-.71-.5-1.5-.89-2.26-1.33l-2.72-1.56q-2.51-1.45-5-2.94-10.16-6.06-20-12.59c-.59-.39-1.18-.76-1.77-1.14a3,3,0,0,1-1.42-1.49c-.44-1.48,1.5-2.84,2.54-3.53.53-.35,0-1.22-.51-.86Z" transform="translate(-0.02)"/>
        <g>
          <path class="cls-2" d="M49.8,112.78a15.16,15.16,0,0,1,1.91-2.25l.5-.45a2.5,2.5,0,0,1,.43-.34s.06.26.07.32a4.53,4.53,0,0,1,0,.64,17.22,17.22,0,0,1-1.16,6c-.2.53.49.76.83.49l.41-.32c.51-.4-.21-1.11-.71-.71l-.4.32.83.49a17.47,17.47,0,0,0,1-3.69,18.33,18.33,0,0,0,.2-2,5.62,5.62,0,0,0-.06-1.69,1.12,1.12,0,0,0-.92-.91c-.56,0-1,.43-1.37.77a14.8,14.8,0,0,0-2.41,2.77c-.37.53.5,1,.86.5Z" transform="translate(-0.02)"/>
          <path class="cls-2" d="M49,117.61a40.22,40.22,0,0,0,5.91-.31.5.5,0,1,0,0-1,40.22,40.22,0,0,1-5.91.31c-.64,0-.64,1,0,1Z" transform="translate(-0.02)"/>
        </g>
      </g>
      <g>
        <path class="cls-2" d="M37.58,43.16a24.7,24.7,0,0,0-3.36,10.42,9.13,9.13,0,0,0,.69,5.09,4.53,4.53,0,0,0,3.52,2.5c.64.07.63-.93,0-1a3.74,3.74,0,0,1-3-2.72,11,11,0,0,1-.17-4.74,23.72,23.72,0,0,1,3.14-9.05c.33-.55-.54-1-.87-.5Z" transform="translate(-0.02)"/>
        <path class="cls-2" d="M40.37,48.12a4.41,4.41,0,0,1,3.44-.4,2.55,2.55,0,0,1,1.67,2.18c.09,2.1-2.75,2.35-4.26,2.39a.51.51,0,0,0-.43.76,12.28,12.28,0,0,0,.94,1.33c.34.43.67.91,1,1.32a.74.74,0,0,0,1.09.13.63.63,0,0,0-.32-1,.52.52,0,0,0-.49.12l0,0c-.46.45.25,1.16.71.71l0,0-.49.13L43,55.48l.15-.36,0,0,.35-.14c.1.07.11.07,0,0l-.12-.16c-.1-.11-.19-.23-.28-.34l-.5-.63a12.74,12.74,0,0,1-1-1.36l-.44.75c1.74,0,4.06-.29,5-2,1-1.91-.49-4.11-2.42-4.59a5.58,5.58,0,0,0-3.88.6c-.57.29-.07,1.16.5.86Z" transform="translate(-0.02)"/>
        <path class="cls-2" d="M43.65,58.26h0l.1.08a.52.52,0,0,1-.1-.11l.07.1a.54.54,0,0,1-.07-.13l0,.12a1,1,0,0,1,0-.16l0,.13v-.09l-.25.43.46-.34h-.49l-.1-.08.15.15-.08-.1a1.18,1.18,0,0,1,.11.19l-.05-.12a.83.83,0,0,1,.06.21l0-.13a.67.67,0,0,1,0,.2l0-.13a.75.75,0,0,1,0,.16l0-.12a.75.75,0,0,1-.07.12l.07-.1a.34.34,0,0,1-.08.09l.1-.08-.13.08.12-.05a.53.53,0,0,1-.17,0h.09l-.14,0,.12,0-.1-.06.1.07a.27.27,0,0,1-.08-.07l.08.1a.41.41,0,0,1-.05-.09l.05.12,0-.09,0,.14v0a.19.19,0,0,1,0-.1l0,.12a.24.24,0,0,1,.06-.11l-.08.1.1-.1-.1.08.12-.07-.12,0,.1,0-.13,0h.08l-.13,0,.08,0-.12,0,.06,0-.1-.08,0,0a.5.5,0,0,0,.71,0,.52.52,0,0,0,.14-.35.48.48,0,0,0-.14-.36.8.8,0,0,0-.35-.19.86.86,0,0,0-.39,0,1.08,1.08,0,0,0-.27.1,1.28,1.28,0,0,0-.22.17,1,1,0,0,0-.28.55,1,1,0,0,0,0,.35.94.94,0,0,0,.2.35.88.88,0,0,0,.47.28,1.18,1.18,0,0,0,.59,0,1.07,1.07,0,0,0,.49-.29,1,1,0,0,0,.28-.6,1.42,1.42,0,0,0,0-.41,1.21,1.21,0,0,0-.11-.32,1.08,1.08,0,0,0-.19-.3,1.16,1.16,0,0,0-.26-.23.43.43,0,0,0-.25-.07.45.45,0,0,0-.25.07l-.3.21-.15.11-.16.14a.54.54,0,0,0-.09.24.33.33,0,0,0,0,.14,1.1,1.1,0,0,0,.14.49,1.27,1.27,0,0,0,.35.38.53.53,0,0,0,.39,0,.56.56,0,0,0,.29-.23.49.49,0,0,0,.06-.39l-.06-.12a.58.58,0,0,0-.17-.18Z" transform="translate(-0.02)"/>
        <path class="cls-2" d="M48.86,46a2.27,2.27,0,0,1,3.24,2.15,2.74,2.74,0,0,1-3.55,2.43.52.52,0,0,0-.57.74,17.08,17.08,0,0,1,1.17,1.93,6.46,6.46,0,0,1,.41,1.06,3.62,3.62,0,0,0,.23.93.51.51,0,0,0,.68.18.65.65,0,0,0,.32-.54.5.5,0,0,0-.37-.49h0c-.63-.1-.9.86-.26,1h0l-.37-.48.18-.33.68.18a2.76,2.76,0,0,1-.09-.54,3.81,3.81,0,0,0-.13-.45,8.8,8.8,0,0,0-.42-1,19,19,0,0,0-1.16-1.93l-.57.74A3.75,3.75,0,0,0,53.1,48a3.27,3.27,0,0,0-4.75-2.87c-.57.29-.06,1.15.51.86Z" transform="translate(-0.02)"/>
        <path class="cls-2" d="M49.46,58.55l0,0,0-.12s0,0,0,0l0-.13v0l0-.14a.08.08,0,0,1,0,.05l0-.12a.08.08,0,0,1,0,.05l.07-.1a.08.08,0,0,1,0,0l.11-.08-.05,0,.12-.05h0l.14,0h0l.13,0h0l.12.05,0,0,.1.08,0,0,.08.1,0,0,.05.12s0,0,0,0l0,.13v0l0,.13a.14.14,0,0,1,0-.06l-.05.12,0,0-.08.1,0,0-.1.08,0,0-.12,0h0l-.14,0h0a.41.41,0,0,0,.19,0,.29.29,0,0,0,.16-.1.42.42,0,0,0,.11-.16.43.43,0,0,0,0-.19l0-.14a.42.42,0,0,0-.13-.22l-.1-.08a.51.51,0,0,0-.25-.06h0l-.14,0h0l-.13.06h0l-.1.08h0L49.2,58v0a.58.58,0,0,0,0,.14v0a.77.77,0,0,0,0,.15v0a.19.19,0,0,0,0,.08.25.25,0,0,0,0,.08v0a.69.69,0,0,0,.07.15h0a.76.76,0,0,0,.08.11h0l.06,0,.06,0h0l.13.06h0l.14,0h0l.14,0h0l.13,0h0l.12-.09,0,0h0a.44.44,0,0,0,.08-.11.6.6,0,0,0,.08-.16v0h0a.77.77,0,0,0,0-.15v0a.77.77,0,0,0,0-.15h0a.59.59,0,0,0-.06-.14v0a.58.58,0,0,0-.13-.14.56.56,0,0,0-.17-.09.46.46,0,0,0-.2,0,.6.6,0,0,0-.19.06l-.1.08a.61.61,0,0,0-.13.22l0,.13a.59.59,0,0,0,.07.26Z" transform="translate(-0.02)"/>
        <path class="cls-2" d="M55.89,45.43a2,2,0,0,1,1.94.09,2.2,2.2,0,0,1,1,2,3.44,3.44,0,0,1-3.12,3.08.5.5,0,0,0-.35.62,17.07,17.07,0,0,0,1.32,3.73c.28.58,1.14.08.86-.5a16.7,16.7,0,0,1-1.22-3.5l-.35.62c2.15-.39,4.09-2.16,3.84-4.49a3.05,3.05,0,0,0-4.4-2.49c-.57.31-.06,1.18.5.87Z" transform="translate(-0.02)"/>
        <path class="cls-2" d="M57.28,58.4a.65.65,0,0,0,.44-.18.62.62,0,0,0,.18-.3.57.57,0,0,0,0-.18.11.11,0,0,0,0-.05.71.71,0,0,0-.1-.35.67.67,0,0,0-.37-.29.63.63,0,0,0-.36,0,.63.63,0,0,0-.37.29.55.55,0,0,0-.1.22.71.71,0,0,0,0,.38.63.63,0,0,0,.15.26.58.58,0,0,0,.15.11.6.6,0,0,0,.19.06.46.46,0,0,0,.2,0,.56.56,0,0,0,.17-.09.41.41,0,0,0,.12-.14.45.45,0,0,0,0-.39.52.52,0,0,0-.23-.3h0l.1.07a.08.08,0,0,1,0,0l.07.1,0-.06.05.12,0-.09,0,.13v-.1l0,.13,0-.09-.05.12,0-.08-.07.1a.12.12,0,0,1,.05,0l-.1.07,0,0-.12,0h0a.46.46,0,0,0,.17-.09.35.35,0,0,0,.13-.14.33.33,0,0,0,.06-.19.46.46,0,0,0,0-.2.52.52,0,0,0-.23-.3l-.12,0a.57.57,0,0,0-.26,0,.67.67,0,0,0-.21.09.75.75,0,0,0-.17.14,1.13,1.13,0,0,0-.12.18.82.82,0,0,0-.1.44.85.85,0,0,0,0,.22.77.77,0,0,0,.07.16.71.71,0,0,0,.1.14.75.75,0,0,0,.17.14l.5-.87,0,0,.1.08,0,0,.08.1,0,0,0,.12a.09.09,0,0,1,0,0v.14a.13.13,0,0,1,0-.06l0,.13a.14.14,0,0,1,0-.06l-.06.12,0-.06-.08.1,0,0-.1.08,0,0-.12.05h0l-.13,0h0l-.13,0h0L57.09,58l0,0-.1-.08,0,0L57,57.83s0,0,0,0l-.05-.12a.09.09,0,0,1,0,0l0-.13a.09.09,0,0,1,0,.07l0-.13s0,0,0,.06l.05-.12,0,0,.08-.1,0,0,.1-.08,0,0,.12-.05h0l.13,0h0a.47.47,0,0,0-.35.15.34.34,0,0,0-.1.16.41.41,0,0,0,0,.19.51.51,0,0,0,.15.35.53.53,0,0,0,.35.15Z" transform="translate(-0.02)"/>
        <path class="cls-2" d="M61.76,55.26a36.74,36.74,0,0,1-1.1,5,.5.5,0,0,0,1,.27,33.78,33.78,0,0,0,1.1-5,.52.52,0,0,0-.35-.61.5.5,0,0,0-.61.35Z" transform="translate(-0.02)"/>
        <path class="cls-2" d="M67.56,47.11a4.16,4.16,0,0,1,4.16.6c.18.16.5.49.34.76s-.6.29-.85.34l-2.74.55a.5.5,0,0,0-.22.83,8.66,8.66,0,0,1,2.29,4.27c.14.62,1.1.36,1-.27A9.73,9.73,0,0,0,69,49.48l-.22.84L70.51,50a9.37,9.37,0,0,0,1.57-.35,1.4,1.4,0,0,0,.67-2.25,4.17,4.17,0,0,0-2.49-1.42,5.24,5.24,0,0,0-3,.21c-.6.23-.34,1.19.26,1Z" transform="translate(-0.02)"/>
        <path class="cls-2" d="M72.12,57.15a.57.57,0,0,0-.38-.39.56.56,0,0,0-.34,0A.65.65,0,0,0,71,57a.54.54,0,0,0-.05.45.59.59,0,0,0,.39.38.65.65,0,0,0,.34,0,.59.59,0,0,0,.35-.27.69.69,0,0,0,.08-.28s0-.14,0-.15a.64.64,0,0,0-.14-.22l.08.1s0,0,0,0l0,.12h0l0,.13h0l0,.13h0l0,.12h0l-.08.1h0l-.1.08h0l-.12,0h-.1l-.12,0,0,0-.1-.08,0,0-.08-.1v0l0-.12V57.3h0v-.1l0-.12,0,0,.08-.1,0,0,.1-.08,0,0,.12-.05-.07,0,.13,0h0a.42.42,0,0,1-.16,0l.12.05-.14-.08.11.08a.86.86,0,0,1-.14-.13l.08.1a.78.78,0,0,1-.11-.2l0,.12a.83.83,0,0,1-.06-.21l0,.13a.38.38,0,0,1,0-.15l0,.13a.44.44,0,0,1,0-.1l-.05.12.05-.07-.08.11a.12.12,0,0,1,0-.05l-.1.07.06,0-.12.05,0,0a.47.47,0,0,0,.3-.23.46.46,0,0,0,0-.38.5.5,0,0,0-.23-.3.5.5,0,0,0-.38-.05.83.83,0,0,0-.48.36.87.87,0,0,0-.07.17.14.14,0,0,0,0,.06,1.07,1.07,0,0,0,0,.25,1.25,1.25,0,0,0,.83,1.17.88.88,0,0,0,.28.06h.08a.63.63,0,0,0,.19,0,.7.7,0,0,0,.52-.63.59.59,0,0,0-.39-.55.69.69,0,0,0-.61,0,.52.52,0,0,0-.27.4.6.6,0,0,0,0,.23.64.64,0,0,0,.15.25l-.15-.35a0,0,0,0,1,0,0V57.2l0-.12h0l.08-.1,0,0,.1-.08h0l.12,0h0l.13,0h0l.13,0h0l.12,0h0l.11.08h0l.08.1h0l0,.12v0l0,.14v0l0,.13h0l0,.12v0l-.08.11,0,0-.11.08,0,0-.12.06h0l-.13,0a0,0,0,0,1,0,0l-.13,0h0l-.12,0h0l-.1-.08v0l-.08-.11v0l0-.12h0a.57.57,0,0,0,.23.3.53.53,0,0,0,.39.05.51.51,0,0,0,.29-.23.45.45,0,0,0,.05-.39Z" transform="translate(-0.02)"/>
        <path class="cls-2" d="M75.77,46.46a1.69,1.69,0,0,1,2.6,1.45A1.53,1.53,0,0,1,75.79,49a.51.51,0,0,0-.85.35,14.93,14.93,0,0,0,1,4.47.51.51,0,0,0,.55.36.5.5,0,0,0,.43-.5c0-.1,0-.16.05-.24.44-.47-.27-1.18-.71-.71a1.21,1.21,0,0,0-.34,1l1-.13a14.08,14.08,0,0,1-1-4.2l-.85.36a2.56,2.56,0,0,0,2.64.56A2.48,2.48,0,0,0,79.36,48a2.71,2.71,0,0,0-4.1-2.42.5.5,0,0,0,.51.87Z" transform="translate(-0.02)"/>
        <path class="cls-2" d="M76.54,56.67l-.1-.1.08.1a1,1,0,0,1-.1-.17l0,.12-.06-.22,0,.13a1.13,1.13,0,0,1,0-.26l0,.13a1.55,1.55,0,0,1,.07-.23l0,.12a1.14,1.14,0,0,1,.1-.19l-.07.1.13-.13-.1.07.06,0-.74-.3a2,2,0,0,1,.13.48v-.13a2.53,2.53,0,0,1,0,.55v-.13s0,.06,0,.09a.53.53,0,0,0,0,.39.53.53,0,0,0,.3.23.5.5,0,0,0,.38,0,.46.46,0,0,0,.23-.3,2.48,2.48,0,0,0-.11-1.4.61.61,0,0,0-.13-.22.39.39,0,0,0-.16-.1.51.51,0,0,0-.45,0,1.36,1.36,0,0,0-.61,1.08,1.29,1.29,0,0,0,.41,1.06.49.49,0,0,0,.35.15.51.51,0,0,0,.35-.15.5.5,0,0,0,0-.71Z" transform="translate(-0.02)"/>
        <path class="cls-2" d="M81.54,47A4.45,4.45,0,0,1,83.47,49c.18.61-.19,1.72-1,1.65a6.51,6.51,0,0,1-.66-.23,1,1,0,0,0-.72.08,1.11,1.11,0,0,0-.5,1A4.56,4.56,0,0,0,81,53l.74,1.9c.23.59,1.2.33,1-.27l-.76-2c-.1-.26-.22-.52-.3-.79a3,3,0,0,1-.06-.42,4.23,4.23,0,0,0,.67.25,1.54,1.54,0,0,0,.64,0A1.91,1.91,0,0,0,84,50.93a2.43,2.43,0,0,0,.27-2.61A6.06,6.06,0,0,0,82,46.12c-.53-.37-1,.5-.5.86Z" transform="translate(-0.02)"/>
        <path class="cls-2" d="M83,58l-.28-.62-.78.6,0,0-.08-.1s0,0,0,0l0-.12a.08.08,0,0,0,0,0l0-.14v0l0-.13s0,0,0,0l.05-.12,0,.06.08-.1,0,.05.1-.08,0,0,.12,0h0l.14,0h0l.13,0h0l.12,0,0,0,.1.08,0,0,.08.1v0l0,.12a0,0,0,0,1,0,0l0,.13a0,0,0,0,1,0-.05l0,.13a.43.43,0,0,0,0,0l0,.12,0-.06-.08.1,0,0-.1.08,0,0-.11.05h0l-.13,0h0l-.13,0h0L82,58h0a.3.3,0,0,0,.18.06.34.34,0,0,0,.2,0,.28.28,0,0,0,.17-.09.29.29,0,0,0,.13-.14.5.5,0,0,0,0-.38l0-.12a.39.39,0,0,0-.18-.18.51.51,0,0,0-.17-.07.54.54,0,0,0-.31,0,.63.63,0,0,0-.31.17.7.7,0,0,0-.15.19.86.86,0,0,0-.09.35.7.7,0,0,0,.08.29l0,0,.08.11h0a.94.94,0,0,0,.12.09h0a.45.45,0,0,0,.14.06l.14,0h0l.19,0,.13-.06,0,0a.81.81,0,0,0,.26-.26s0,0,0,0a.35.35,0,0,0,.06-.14.63.63,0,0,0,0-.19.66.66,0,0,0-.19-.45.39.39,0,0,0-.17-.11.41.41,0,0,0-.19,0l-.13,0a.28.28,0,0,0-.17.09.2.2,0,0,0-.09.09.35.35,0,0,0-.09.17l0,.13a.43.43,0,0,0,.07.25l.27.63a.57.57,0,0,0,.13.14.56.56,0,0,0,.17.09.34.34,0,0,0,.2,0,.41.41,0,0,0,.19-.05.57.57,0,0,0,.23-.3v-.14A.54.54,0,0,0,83,58Z" transform="translate(-0.02)"/>
        <path class="cls-2" d="M84.54,44.66c3.67,4.22,2.7,10.76-.29,15-.37.52.49,1,.86.5,3.27-4.68,4.1-11.7.14-16.24-.42-.49-1.13.22-.71.7Z" transform="translate(-0.02)"/>
      </g>
    </g>
  </g>
</svg>
