<svg xmlns="http://www.w3.org/2000/svg" viewBox="0 0 268.77 206.45">
  <defs>
    <style>
      .cls-1 {
        fill: #808285;
      }

      .cls-2 {
        fill: #231f20;
      }

      .cls-3 {
        fill: #ed1c24;
      }
    </style>
  </defs>
  <title>negative-pi-over-three-angle</title>
  <g id="Layer_2" data-name="Layer 2">
    <g id="Layer_1-2" data-name="Layer 1">
      <g>
        <path class="cls-1" d="M119.11,33.74l5-10.1h-1.72a52,52,0,0,0,6.67,10.13,1,1,0,0,0,1.42-1.42,50.11,50.11,0,0,1-6.37-9.72,1,1,0,0,0-1.72,0l-5,10.1c-.57,1.15,1.16,2.16,1.73,1Z" transform="translate(-0.02)"/>
        <path class="cls-1" d="M115.19,196.16l3,6.11c.5,1,1,2,1.5,3a1.82,1.82,0,0,0,2.39,1,5.25,5.25,0,0,0,1.16-1l1.24-1.21,2.48-2.43c1.47-1.44,3.27-2.81,4.08-4.75a1,1,0,1,0-1.93-.54,5.8,5.8,0,0,1-1.43,1.79l-2,2-4.17,4.08-.18.17c-.25.18-.15.22.28.12,0-.06-.21-.35-.24-.4l-.6-1.2-1.25-2.51-2.62-5.24c-.57-1.15-2.3-.14-1.72,1Z" transform="translate(-0.02)"/>
        <path class="cls-1" d="M122.38,24.88q.47,35.22.31,70.42-.18,35-1,70.06-.45,19.75-1.1,39.5c0,1.29,2,1.29,2,0q1.15-35.19,1.69-70.39.53-35,.41-70.07-.06-19.76-.33-39.52a1,1,0,0,0-2,0Z" transform="translate(-0.02)"/>
      </g>
      <path class="cls-2" d="M169.51,88.59l-.23,4.51-.12,2.33a2.19,2.19,0,0,0,.63,2,4.06,4.06,0,0,0,2.09.55q1.1.14,2.22.18a26.4,26.4,0,0,0,4.53-.21,1,1,0,0,0,0-2,27.52,27.52,0,0,1-4,.23c-.66,0-1.32,0-2-.11a10.55,10.55,0,0,1-1.73-.23.5.5,0,0,0,.17.15s0-.27,0-.32c0-.32,0-.65,0-1l.1-2,.21-4.09a1,1,0,0,0-2,0Z" transform="translate(-0.02)"/>
      <path class="cls-2" d="M179.78,81.24a34.11,34.11,0,0,0-1.1,13,1,1,0,0,0,1,1,1,1,0,0,0,1-1,32.74,32.74,0,0,1,1-12.42,1,1,0,0,0-1.93-.53Z" transform="translate(-0.02)"/>
      <path class="cls-2" d="M117.64,188.55a37.49,37.49,0,0,1,10.14-.46,1,1,0,0,0,1-1,1,1,0,0,0-1-1,39.37,39.37,0,0,0-10.67.53,1,1,0,0,0,.53,1.93Z" transform="translate(-0.02)"/>
      <g>
        <path class="cls-2" d="M173.06,63.94a43.6,43.6,0,0,0-.36,6.66q0,.81.06,1.62a5.5,5.5,0,0,0,.14,1.34c.24.71,1.34.88,1.54,0,.15-.62-.81-.89-1-.27.28,0,.4-.08.34-.27l0-.19c0-.22,0-.44,0-.66,0-.38,0-.77,0-1.15,0-.79,0-1.59,0-2.38a44.46,44.46,0,0,1,.36-4.75c.08-.64-.92-.63-1,0Z" transform="translate(-0.02)"/>
        <path class="cls-2" d="M181.81,62.85q-2.62,5.12-5,10.35-1.19,2.6-2.29,5.2c-.24.58-.78,1.45-.22,2a.79.79,0,0,0,1.23-.16.5.5,0,0,0-.87-.5l.42-.07c0-.13.09-.25.14-.37s.17-.41.26-.61.29-.67.43-1l.87-2c.62-1.4,1.25-2.8,1.9-4.18q1.91-4.12,4-8.15c.3-.58-.57-1.08-.86-.51Z" transform="translate(-0.02)"/>
        <path class="cls-2" d="M183.42,69.38a1.6,1.6,0,0,1,2.44-.12,2.82,2.82,0,0,1,0,3.4,8.11,8.11,0,0,1-2.56,2.24,17.77,17.77,0,0,0-2.9,2.11.5.5,0,0,0,.35.85l9.37.49c.65,0,.64-1,0-1l-9.37-.49.35.86c1.63-1.58,3.92-2.34,5.33-4.15a4.35,4.35,0,0,0,1-3.26,2.88,2.88,0,0,0-1.87-2.41,2.5,2.5,0,0,0-2.95,1,.5.5,0,0,0,.86.51Z" transform="translate(-0.02)"/>
      </g>
      <g>
        <path class="cls-2" d="M136.12,147.32a48,48,0,0,1,2.17-4.52c.28-.51.67-1.5,1.32-1.65s.86.77.91,1.25c.18,1.61.13,3.29.19,4.91l.18,5.23c0,.64,1,.65,1,0l-.23-6.51c0-1.09-.06-2.17-.11-3.26a3.8,3.8,0,0,0-.48-1.89,1.56,1.56,0,0,0-1.58-.73,2.68,2.68,0,0,0-1.65,1.41,41.15,41.15,0,0,0-2.69,5.5c-.25.59.72.85,1,.26Z" transform="translate(-0.02)"/>
        <path class="cls-2" d="M138.1,156.76a15.26,15.26,0,0,1,8-6.4c.6-.21.34-1.18-.27-1a16.46,16.46,0,0,0-8.64,6.87c-.34.55.53,1.05.87.5Z" transform="translate(-0.02)"/>
      </g>
      <path class="cls-1" d="M120.89.23a4.6,4.6,0,0,0-.23,4.06c.41,1.21,1.07,2.8,2.29,3.39s2.44-.29,3.17-1.31a18.83,18.83,0,0,0,2.29-4.49l-1-.27a21.68,21.68,0,0,1-3,7.76A7.78,7.78,0,0,1,121.24,12a22.87,22.87,0,0,1-5.18,1.23c-.64.12-.37,1.08.26,1a23.45,23.45,0,0,0,5.43-1.34,8.75,8.75,0,0,0,3.38-2.74c1.81-2.39,2.6-5.41,3.28-8.28a.5.5,0,0,0-1-.27A19,19,0,0,1,125.83,5c-.48.78-1.38,2.39-2.52,1.75A5.15,5.15,0,0,1,121.62,4a3.65,3.65,0,0,1,.14-3.3c.35-.54-.51-1-.87-.5Z" transform="translate(-0.02)"/>
      <g>
        <g>
          <path class="cls-1" d="M1.88,85.86a671.24,671.24,0,0,0,71.21.56c11.44-.48,22.82-.63,34.27-.25q25.62.85,51.27,1.2c7.19.09,14.39.11,21.59.15q31.91.21,63.81.51l8.4.08a1,1,0,0,0,0-2Q218.7,85.8,185,85.55c-8,0-16.05-.07-24.08-.16q-24.64-.26-49.27-1.07c-10.49-.36-20.94-.55-31.43-.18-10.93.39-21.84.94-32.78,1Q28,85.3,8.57,84.25q-3.35-.18-6.69-.39c-1.28-.08-1.28,1.92,0,2Z" transform="translate(-0.02)"/>
          <path class="cls-1" d="M244.75,81.54a21.09,21.09,0,0,1,5.15,2.7,20.75,20.75,0,0,1,2.23,1.84c.23.22.79.62.89.87a.28.28,0,0,0,0-.13l-.25.24c-.15.14-.31.26-.47.39-2.48,2-5.6,3.67-6.55,7a1,1,0,0,0,1.93.53,7.87,7.87,0,0,1,3.07-3.84c.71-.55,1.44-1.06,2.14-1.6s1.75-1.17,2-2.09c.35-1.18-.62-2-1.39-2.76a21.84,21.84,0,0,0-2.47-2,23,23,0,0,0-5.79-3c-1.22-.44-1.74,1.49-.54,1.92Z" transform="translate(-0.02)"/>
          <path class="cls-1" d="M10.43,75q-2.72,2-5.24,4.17c-.86.76-1.71,1.54-2.54,2.34A14.76,14.76,0,0,0,.51,83.78a2.14,2.14,0,0,0,0,2.67,4.07,4.07,0,0,0,1.3.77L3.45,88l6.47,3a1,1,0,0,0,1,0l.64-.48a1,1,0,0,0,.35-1.37,1,1,0,0,0-1.36-.36l-.64.48h1L5.35,86.7,2.56,85.39c-.18-.09-.38-.16-.56-.27s-.09-.05,0,.06,0,0,.05-.06.2-.33.28-.43a6.33,6.33,0,0,1,.44-.46,69.43,69.43,0,0,1,8.67-7.49,1,1,0,0,0,.36-1.37A1,1,0,0,0,10.43,75Z" transform="translate(-0.02)"/>
        </g>
        <g>
          <path class="cls-1" d="M259.63,83l8,11.36a.48.48,0,0,0,.43.25.78.78,0,0,0,.2-1.52c-.59-.24-.85.73-.26,1l.06-.45.43.25-8-11.37c-.37-.52-1.24,0-.86.51Z" transform="translate(-0.02)"/>
          <path class="cls-1" d="M267.56,81.6l-8.29,11.11.69-.18h0c.13-.62-.83-.89-1-.26a1,1,0,0,0,.49,1.12.53.53,0,0,0,.69-.18l8.28-11.12c.38-.52-.48-1-.86-.5Z" transform="translate(-0.02)"/>
        </g>
      </g>
      <path class="cls-2" d="M133.83,104.78c2.28.38,4.16-.84,5.84-2.23a26.94,26.94,0,0,0,4-4.12,28,28,0,0,0,5.15-10.54,1,1,0,0,0-1.93-.53,26.09,26.09,0,0,1-4.43,9.39,25.54,25.54,0,0,1-3.46,3.74c-1.19,1.06-2.9,2.66-4.64,2.37a1,1,0,0,0-1.23.69,1,1,0,0,0,.69,1.23Z" transform="translate(-0.02)"/>
      <g>
        <path class="cls-2" d="M145.08,105.54a9.43,9.43,0,0,1,5.69-1.25.51.51,0,0,0,.5-.5.51.51,0,0,0-.5-.5,10.39,10.39,0,0,0-6.19,1.39.5.5,0,0,0,.5.86Z" transform="translate(-0.02)"/>
        <path class="cls-2" d="M149.31,110.86a27.59,27.59,0,0,1,8.06-3.12c2.24-.53,4.59-1.21,5.94-3.22.36-.53-.51-1-.87-.5-1.32,2-3.89,2.42-6,2.93a26.25,26.25,0,0,0-7.6,3,.5.5,0,0,0,.5.87Z" transform="translate(-0.02)"/>
        <path class="cls-2" d="M156.24,112.61l2.6-.39c.25,0,1.56-.37,1.58.14,0,.24-.35.48-.52.59a6.89,6.89,0,0,1-1,.5l-2.37,1.09a.5.5,0,0,0-.1.78,10.13,10.13,0,0,0,2.1,1.07c.52.25,1.42.87,1.16,1.58a1.41,1.41,0,0,1-.76.66,7.8,7.8,0,0,1-1.2.5,8.69,8.69,0,0,1-2.72.43.5.5,0,0,0,0,1,9.61,9.61,0,0,0,3.27-.56c.86-.31,2-.73,2.33-1.65a2.16,2.16,0,0,0-.86-2.38c-.78-.62-1.84-.74-2.62-1.35l-.1.78c1-.47,2.08-.9,3.08-1.41.69-.35,1.53-1.07,1.29-1.94s-1.21-1-2-.92c-1.14.15-2.28.34-3.42.52-.64.09-.37,1,.26,1Z" transform="translate(-0.02)"/>
        <path class="cls-2" d="M155.31,99.68a12.59,12.59,0,0,0,0,5.53c.14.63,1.1.36,1-.27a11.36,11.36,0,0,1,0-5c.14-.63-.82-.9-1-.27Z" transform="translate(-0.02)"/>
        <path class="cls-2" d="M158.45,99a29.43,29.43,0,0,0-.14,4.5c0,.65,1,.65,1,0a29.43,29.43,0,0,1,.14-4.5.51.51,0,0,0-.5-.5.5.5,0,0,0-.5.5Z" transform="translate(-0.02)"/>
        <path class="cls-2" d="M153.78,100.07c2.77-.39,5.54-.84,8.29-1.33.63-.11.37-1.08-.26-1q-4.14.73-8.29,1.33a.5.5,0,0,0,.26,1Z" transform="translate(-0.02)"/>
      </g>
      <g>
        <path class="cls-2" d="M88.77,177.2l9.8-1.93c.64-.13.37-1.09-.26-1l-9.81,1.94c-.63.12-.36,1.08.27,1Z" transform="translate(-0.02)"/>
        <path class="cls-2" d="M95.79,183.73a8.24,8.24,0,0,0,2-.94,2.88,2.88,0,0,1,2-.52c.83.2.91,1.29,1.08,2l.67,2.63a.5.5,0,0,0,1,0,63,63,0,0,0,1-13.85c0-.6-.06-1.21-.1-1.82a2.53,2.53,0,0,1,0-.67c0-.19,0-.29.2-.3l.36,0a17.49,17.49,0,0,0,3.07,0,16.29,16.29,0,0,0,5.91-1.71l-.68-.18a11,11,0,0,1,.4,8c-.2.62.76.88,1,.27a12.11,12.11,0,0,0-.51-8.76.5.5,0,0,0-.68-.18,14.92,14.92,0,0,1-6.51,1.62,12.81,12.81,0,0,1-1.75-.07,2.15,2.15,0,0,0-1.18.09c-.91.45-.55,1.78-.5,2.57a62.68,62.68,0,0,1-.89,14.67h1c-.28-1.11-.55-2.23-.84-3.34a2.46,2.46,0,0,0-1.3-1.85c-1.81-.76-3.23.93-4.85,1.35-.62.15-.36,1.12.27,1Z" transform="translate(-0.02)"/>
        <path class="cls-2" d="M107.27,172.89c.75-.68,2.53-.18,2.43,1-.12,1.5-2.19,2.08-3.37,2.4a.5.5,0,0,0,0,1,9.77,9.77,0,0,1,2.31,1.09c.48.32,1.16.87,1.08,1.53s-.78,1-1.34,1.23a10.58,10.58,0,0,1-2.49.5c-.64.07-.64,1.07,0,1,1.65-.17,4.57-.5,4.82-2.63s-2.59-3.16-4.11-3.68v1c1.74-.47,4.52-1.57,4.06-3.88-.34-1.74-2.87-2.26-4.1-1.16-.48.43.23,1.14.71.71Z" transform="translate(-0.02)"/>
        <path class="cls-2" d="M93.24,192.86c6.82-3.08,13.69-6,20.59-8.93.58-.24.33-1.21-.27-1q-10.47,4.36-20.83,9c-.58.27-.07,1.13.51.87Z" transform="translate(-0.02)"/>
        <path class="cls-2" d="M104,192.61a4.25,4.25,0,0,1,3-.24,1.88,1.88,0,0,1,.56,2.7,7,7,0,0,1-2.65,2.31,13.15,13.15,0,0,1-3.62,1.43.51.51,0,0,0,0,1,12.34,12.34,0,0,0,4.49.42,8.58,8.58,0,0,1,4.4.65c.57.3,1.07-.56.51-.86-2.86-1.55-6.17-.12-9.13-1.18v1a14,14,0,0,0,4.33-1.82,6.27,6.27,0,0,0,2.85-3.12,2.76,2.76,0,0,0-1.18-3.31,4.94,4.94,0,0,0-3.79.11c-.61.21-.35,1.18.26,1Z" transform="translate(-0.02)"/>
      </g>
      <path class="cls-3" d="M181.78,190.68Q170,171.09,159.07,151q-11.37-20.79-21.87-42-5.62-11.39-11-22.89l-1.29,2.26c7.84.32,15.69.49,23.54.38,6-.09,12.05-.37,18.09-.2q6.83.2,13.61.88l-1.5-1.5q0,11.92,0,23.85c0,6.15.12,12.31.2,18.47q.13,11.1.3,22.18.08,5.67.06,11.32c0,8.46-.13,16.93-.24,25.4l0,2.29a1.5,1.5,0,0,0,3,0q.17-12.34.25-24.69,0-6.33,0-12.67-.14-10.43-.28-20.85-.13-9.64-.22-19.28-.09-11.25-.07-22.49c0-1.17,0-2.35,0-3.53a1.53,1.53,0,0,0-1.5-1.5,186.65,186.65,0,0,0-23.53-.89c-5.66.14-11.31.28-17,.22-4.91-.05-9.82-.19-14.73-.39a1.52,1.52,0,0,0-1.3,2.25q9.72,20.8,20.25,41.2,10.86,21,22.57,41.56,6.25,11,12.76,21.82A1.5,1.5,0,0,0,181.78,190.68Z" transform="translate(-0.02)"/>
      <g>
        <path class="cls-2" d="M191.4,180.71A24.47,24.47,0,0,0,186.52,191a23.66,23.66,0,0,0-.51,5.63,13.72,13.72,0,0,0,1.09,5.63,5.1,5.1,0,0,0,4.79,3.09c.64,0,.64-1,0-1-2.45.2-3.95-2-4.46-4.15a19.75,19.75,0,0,1-.31-6.64,23.51,23.51,0,0,1,5-12.18c.4-.5-.31-1.21-.71-.71Z" transform="translate(-0.02)"/>
        <path class="cls-2" d="M195.66,183.43a22.89,22.89,0,0,0,.9,5.93c.15.52,1.06.45,1-.13l-.09-.73a.52.52,0,0,0-.5-.5c-.25,0-.54.23-.5.5l.09.73,1-.13a21.82,21.82,0,0,1-.87-5.67.5.5,0,0,0-1,0Z" transform="translate(-0.02)"/>
        <path class="cls-2" d="M192.3,194.59l8.45-2.5a.5.5,0,0,0-.26-1l-8.46,2.5a.5.5,0,0,0,.27,1Z" transform="translate(-0.02)"/>
        <path class="cls-2" d="M193.89,197.08a5.06,5.06,0,0,0,2.56.35c.6,0,1.54,0,1.61.8s-.92,1.56-1.61,1.9a6,6,0,0,0-2.44,1.71.5.5,0,0,0,.3.73,16.1,16.1,0,0,0,4,.78c.89.07,2.21-.21,2.19-1.34a.5.5,0,0,0-1,0c0,.23-.34.3-.53.33a4.78,4.78,0,0,1-1.25,0,15.55,15.55,0,0,1-3.15-.69l.3.73a5,5,0,0,1,2-1.3,4.11,4.11,0,0,0,1.88-1.64,2,2,0,0,0-.14-2.29,2.5,2.5,0,0,0-1.92-.68,5,5,0,0,1-2.3-.21c-.56-.3-1.07.56-.5.86Z" transform="translate(-0.02)"/>
        <path class="cls-2" d="M205.53,197.11l-2.78,7.33c-.23.61.74.87,1,.27l2.78-7.33c.23-.61-.74-.87-1-.27Z" transform="translate(-0.02)"/>
        <path class="cls-2" d="M207.89,190.48l4.78-.62a.51.51,0,0,0,.5-.5.51.51,0,0,0-.5-.5l-4.78.62a.52.52,0,0,0-.5.5c0,.25.23.54.5.5Z" transform="translate(-0.02)"/>
        <path class="cls-2" d="M217.94,190.37a2,2,0,0,1,2.66,1.49c.11.56,1,.42,1-.14l0-5v-2.63a6.49,6.49,0,0,1,0-1.08c.08-.43.39-.49.77-.57,1.59-.32,3.19-.59,4.78-.89.24,0,.83-.27,1-.05s0,.85,0,1.1a13.38,13.38,0,0,1-.33,2.52c-.14.63.83.9,1,.27a16,16,0,0,0,.37-3c0-.68.07-1.61-.7-1.92a2,2,0,0,0-1.05,0l-1.67.31-3,.56c-.76.14-1.61.24-2,1a3,3,0,0,0-.17,1.26c0,.51,0,1,0,1.53l0,6.57,1-.13a3,3,0,0,0-4.12-2.08c-.59.25-.08,1.11.5.86Z" transform="translate(-0.02)"/>
        <path class="cls-2" d="M223.93,184.87a2.14,2.14,0,0,1,1.83,1l.08-.61A7.35,7.35,0,0,1,223.9,187a.5.5,0,0,0-.11.78,2.22,2.22,0,0,0,1.34.68l.72.15a1,1,0,0,1,.43.2c0,.05,0,0,.05.11a.26.26,0,0,1-.07.22,1.23,1.23,0,0,1-.74.4,3.5,3.5,0,0,0-1.93.74.5.5,0,0,0,.71.71,1.79,1.79,0,0,1,1-.4,3.3,3.3,0,0,0,1.07-.31,1.43,1.43,0,0,0,.82-1.86,1.78,1.78,0,0,0-1.35-.83c-.47-.1-1.05-.14-1.36-.51l-.1.78a7.93,7.93,0,0,0,2.14-1.9.52.52,0,0,0,.08-.61,3.18,3.18,0,0,0-2.69-1.46.5.5,0,0,0,0,1Z" transform="translate(-0.02)"/>
        <path class="cls-2" d="M214.16,195.78c.85.72,1.88.47,2.87.26l4.12-.88,8.23-1.74c.63-.13.36-1.1-.27-1L221.85,194l-3.63.77-1.7.35c-.5.11-1.2.33-1.65-.05s-1.19.29-.71.71Z" transform="translate(-0.02)"/>
        <path class="cls-2" d="M220.72,198.47c.71-.12,1.9-.31,2.38.41s-.4,1.79-1,2.16c-1,.57-2.38.8-3.1,1.75a1.08,1.08,0,0,0,.12,1.55,2.89,2.89,0,0,0,1.72.28,27,27,0,0,0,4.66-.39.49.49,0,0,0,.35-.61.51.51,0,0,0-.61-.35,27.69,27.69,0,0,1-4.16.35h-1c-.09,0-.38,0-.4-.09s.36-.4.46-.46a8,8,0,0,1,.82-.43,6,6,0,0,0,2.81-1.83,2.16,2.16,0,0,0-.12-2.83,3.73,3.73,0,0,0-3.19-.47.5.5,0,0,0-.35.61.51.51,0,0,0,.62.35Z" transform="translate(-0.02)"/>
        <path class="cls-2" d="M230.56,180.46a23,23,0,0,1,3.7,10.75,16.54,16.54,0,0,1-1.82,9.68,8.5,8.5,0,0,1-3.76,3.53c-.58.27-.07,1.13.51.86,3-1.41,4.82-4.47,5.6-7.61a22,22,0,0,0-.45-11.46,24.15,24.15,0,0,0-2.92-6.26c-.35-.53-1.21,0-.86.51Z" transform="translate(-0.02)"/>
      </g>
      <path class="cls-2" d="M178.71,190.87c.06-.18,0-.06,0,0a2.12,2.12,0,0,1,.11-.21l.1-.15c.09-.13-.09.09,0,0a2.87,2.87,0,0,1,.31-.29c-.05,0-.13.08,0,0l.25-.15.17-.08c-.05,0-.15,0,0,0s.24-.07.37-.09c-.18,0,.13,0,.2,0h.24c.1,0-.12,0,.06,0l.18,0c.28.06-.07,0,.08,0l.33.19c.15.09-.16-.15.06,0l.15.13.13.14c.13.14,0-.08.08.1l.2.33s.07.18,0,0a1.34,1.34,0,0,1,.07.18,2.62,2.62,0,0,1,.09.38c0-.18,0,0,0,.07a1.92,1.92,0,0,1,0,.24,1.21,1.21,0,0,1,0,.19c0-.17,0,0,0,0l-.06.24s-.08.21,0,.11,0,.08,0,.1l-.12.22-.11.16c.08-.11,0,0-.06.07s-.21.21-.32.31-.15.11,0,0l-.17.11a1.48,1.48,0,0,1-.67.28l-.19,0c.16,0,0,0,0,0a5.37,5.37,0,0,1-.57,0,4.3,4.3,0,0,1-1-.27,6.9,6.9,0,0,1-.87-.41,2.92,2.92,0,0,1-.7-.47l-.14-.15c.08.11,0,0,0,0-.09-.21,0,0,0,0s.05-.14,0,0a.69.69,0,0,0,0,.13c0,.09.14-.11,0,0a4.5,4.5,0,0,1,.43-.27,7,7,0,0,1,1.77-.88,1.83,1.83,0,0,1,.75-.1h.2c.17,0-.22-.06.07,0s.28.07.42.12-.18-.12.06,0l.16.09s.15.11,0,0l.13.13a1.59,1.59,0,0,1,.13.13c-.1-.13,0,0,0,0s0,.06,0,0a1.07,1.07,0,0,1,.08.27c0-.19,0,.11,0,.18,0-.25-.1.25-.05.15s0,.06-.05.09a.86.86,0,0,0-.1.16c-.09.13.15-.15,0,.05s-.11.12-.17.17.11-.07,0,0l-.2.13-.17.08c.06,0,.13,0,0,0l-.18,0c.17,0,0,0,0,0h-.19c.2,0-.07,0-.1,0l-.18-.05c.15.05,0,0,0,0a1.29,1.29,0,0,1-.16-.09s-.23-.17-.13-.08a1.81,1.81,0,0,1-.39-.47l-.09-.17s-.1-.23,0-.07c0-.12-.08-.24-.11-.36l0-.19c0,.17,0,0,0,0v-.2s0-.31,0-.12a2.74,2.74,0,0,1,.09-.39l.06-.2c-.05.15,0-.05.05-.08a4,4,0,0,1,.2-.35l.06-.09.16-.2a3.59,3.59,0,0,1,.54-.48,3.35,3.35,0,0,1,.36-.21l.18-.1c.26-.14-.13,0,.14-.06a2.78,2.78,0,0,1,.38-.12l.19,0c.3-.07-.1,0,.08,0a2.68,2.68,0,0,1,.4,0l.24,0c-.14,0,0,0,.07,0l.18.06c.16.05-.17-.12.07,0l.16.1s-.12-.12,0,0a.86.86,0,0,1,.14.13c-.09-.1,0,0,0,0s.06.1,0,0a2.45,2.45,0,0,1,.08.29c0-.16,0,0,0,0v.2c0,.2,0,.09,0,0l-.06.26a2.62,2.62,0,0,1-.35.79,6.7,6.7,0,0,1-1.13,1.47,4.17,4.17,0,0,1-.59.51,3.07,3.07,0,0,1-.43.26c-.15.07.11,0-.05,0l-.22.06h-.11c-.16,0,.12,0,0,0s-.11,0-.28-.12c.14.1-.18-.2-.08-.07A1.74,1.74,0,0,1,179,193s-.13-.27-.08-.14a2.75,2.75,0,0,1-.11-.41,1.29,1.29,0,0,1,0-.19c0,.17,0,0,0,0s0-.3,0-.44,0-.23,0-.12a1.87,1.87,0,0,1,0-.2,2.38,2.38,0,0,1,.11-.38s.08-.24,0-.09a1.42,1.42,0,0,1,.08-.18,3.79,3.79,0,0,1,.2-.34,1.63,1.63,0,0,1,.11-.17c.16-.23-.11.1.09-.11a2.41,2.41,0,0,1,1.2-.81.66.66,0,0,1,.49,0s.14.11,0,0l.13.13c-.11-.12,0,0,0,0a2,2,0,0,1,.14.25c-.07-.16,0,.16,0,.22a2.7,2.7,0,0,1,.08.39c0-.18,0,0,0,.08s0,.12,0,.19,0,.27,0,.41a3,3,0,0,1,0,.42c0,.16,0-.15,0,0s0,.16-.05.23a3.75,3.75,0,0,1-.23.81c.08-.19-.07.12-.09.16a3,3,0,0,1-.18.3c.11-.16-.1.11-.15.15s-.15.14-.05.06-.08.06-.11.07l-.18.1c-.13.07.14,0,0,0l-.17,0c-.15,0,.22,0-.08,0h-.19s.17.05,0,0l-.19,0c-.23-.06.08.07-.12-.05a1.34,1.34,0,0,1-.74-.95,2.15,2.15,0,0,1,0-.62,1.94,1.94,0,0,1,.31-.74,1.37,1.37,0,0,1,.37-.41c.26-.18.05,0,0,0s-.54-.06-.43-.15c0,0,0-.16,0,0s.06.19.07.28c0-.13,0,.1,0,.13a1.77,1.77,0,0,1,0,.23,1.67,1.67,0,0,1-.08.35,3.16,3.16,0,0,1-.38.84,6.6,6.6,0,0,1-.49.7l-.36.41-.16.17-.12.11,0,0c.05,0,.23,0,.3,0a1.57,1.57,0,0,1,.19.12c.08,0,0-.1,0,0s0-.08,0-.11,0,.25,0-.07v-.21s0-.19,0,0c0-.1,0-.2.07-.3s.05-.14.07-.2-.06.1,0-.05l.11-.18c-.07.11,0,0,0,0l.15-.14c-.1.08,0,0,0,0,.17-.16-.06,0,.06,0a.79.79,0,0,1,.22-.06c-.22,0,.27,0,.16,0s.29.09.18.05.12.08.12.07,0,0,0,0-.11-.14,0,0c-.09-.12,0,0,0,.07s0-.21,0,0,0,.15,0,0a.94.94,0,0,0,0,.16c0-.21,0,0,0,0s0,.06,0,0a.63.63,0,0,1-.11.12c.19-.19-.08,0,.06,0s-.23,0,.07,0a1,1,0,0,0-.7,1.71l0,.06-.26-.44.06-.51.36-.36.11,0h.53l.48.46v.54l-.05.11a1,1,0,0,0-.36-1.37,1,1,0,0,0-1.36.36,1.22,1.22,0,0,0,1.16,1.85,1.21,1.21,0,0,0,1-.84,1.27,1.27,0,0,0-.3-1.23l-.71,1.7a2.13,2.13,0,0,0,2-2,2.18,2.18,0,0,0-1.54-2.23,2.75,2.75,0,0,0-2.72.65,3.48,3.48,0,0,0-1,2.72,2.15,2.15,0,0,0,.62,1.44,1.54,1.54,0,0,0,1.81.21,3.82,3.82,0,0,0,1.09-1,7.54,7.54,0,0,0,.95-1.36,4.1,4.1,0,0,0,.45-3.17,1.74,1.74,0,0,0-1.18-1.23,2,2,0,0,0-1.79.6,3.69,3.69,0,0,0-.2,5.32,3,3,0,0,0,4.82-.72,5.71,5.71,0,0,0,.3-5.06,2.44,2.44,0,0,0-2.47-1.43,4.11,4.11,0,0,0-2.58,1.35,4.65,4.65,0,0,0-.82,5.29,2.6,2.6,0,0,0,2.75,1.3,4.67,4.67,0,0,0,2.46-1.55c1.26-1.34,2.69-3.54,1.59-5.38s-3.59-1.66-5.18-.69a4.43,4.43,0,0,0-2.2,4.78c.47,1.78,2.36,3.25,4.22,2.55s2.91-3.18,1.34-4.77a3.66,3.66,0,0,0-2.53-1,5.74,5.74,0,0,0-2.92.91c-.89.51-2,1.08-2,2.27a3,3,0,0,0,1.86,2.32,6.82,6.82,0,0,0,3.16,1,4.18,4.18,0,0,0,2.76-1,3.89,3.89,0,0,0,.77-5,3.66,3.66,0,0,0-4.86-1.31,3.59,3.59,0,0,0-1.73,2,1,1,0,0,0,.7,1.23,1,1,0,0,0,1.23-.7Z" transform="translate(-0.02)"/>
    </g>
  </g>
</svg>
