<svg xmlns="http://www.w3.org/2000/svg" viewBox="0 0 208.94 131.25">
  <defs>
    <style>
      .cls-1 {
        fill: #00a651;
      }

      .cls-2 {
        fill: #231f20;
      }

      .cls-3 {
        fill: #662d91;
      }

      .cls-4 {
        fill: #ed1c24;
      }

      .cls-5 {
        fill: #00aeef;
      }

      .cls-6 {
        fill: #00a14b;
      }
    </style>
  </defs>
  <title>right-triangle-trig-definitions</title>
  <g id="Layer_2" data-name="Layer 2">
    <g id="Layer_1-2" data-name="Layer 1">
      <path class="cls-1" d="M46,83.49c.73-.32,1.71.2,2.31.63a18.68,18.68,0,0,1,2.25,2.11,42.63,42.63,0,0,1,4.59,5.1,17.48,17.48,0,0,1,2.92,5.91,14,14,0,0,1-.18,6.62,1.55,1.55,0,0,0,1,1.85,1.51,1.51,0,0,0,1.84-1A18.48,18.48,0,0,0,61.3,98a17.08,17.08,0,0,0-2-5.8c-2-3.66-5.06-6.78-8.08-9.59-1.88-1.74-4.22-2.84-6.72-1.75A1.5,1.5,0,0,0,44,83a1.53,1.53,0,0,0,2.05.54Z"/>
      <path class="cls-2" d="M176.31,101.37a90.08,90.08,0,0,0-.9-17.52L174,85.75l8.44-1,4.17-.51,2.08-.26,1-.12.61-.07c.5-.06.11.09-.31-.31l-.38-.66,0,.09.15-1.16.11-.15.66-.39.23,0,1.29.75,0-.07a1.53,1.53,0,0,0-2-.54,1.51,1.51,0,0,0-.54,2,1.69,1.69,0,0,0,2.89,0,1.71,1.71,0,0,0-1.15-2.52,7.82,7.82,0,0,0-2.72.18l-2.93.36L174,82.75a1.53,1.53,0,0,0-1.45,1.89,85.94,85.94,0,0,1,.79,16.73,1.5,1.5,0,0,0,3,0Z"/>
      <path class="cls-3" d="M2.19,110c12-8.15,24-16.32,36.38-23.78S64,72.31,77,65.9c12.81-6.31,25.5-12.8,38-19.77S139.51,32,151.84,25s24.72-13.84,37.47-20c1.57-.76,3.14-1.5,4.72-2.24,1.74-.82.22-3.41-1.52-2.59-12.83,6-25.31,12.72-37.64,19.67S130.3,34,118,41,93,54.64,80.24,61c-13,6.42-26,12.72-38.59,20S17.07,96.3,5.09,104.45l-4.41,3c-1.59,1.08-.09,3.68,1.51,2.59Z"/>
      <path class="cls-4" d="M3.43,110.63c15.17-.7,30.34-1.44,45.52-2.11,13.73-.6,27.47-.89,41.21-1.27q17.84-.5,35.68-1c9.31-.25,18.64-.48,27.92-1.29,5.35-.46,10.67-1.09,16-1.31a164.5,164.5,0,0,1,18,.24c1.06.07,2.12.16,3.18.25a1.51,1.51,0,0,0,1.5-1.5,1.53,1.53,0,0,0-1.5-1.5c-5.31-.47-10.65-.67-16-.62-6.15.06-12.24.57-18.36,1.17-8.78.87-17.59,1.18-26.4,1.43-11.74.34-23.49.63-35.23,1-13.56.37-27.13.67-40.69,1.18-15.12.57-30.23,1.37-45.35,2.07l-5.57.26c-1.93.09-1.94,3.09,0,3Z"/>
      <path class="cls-5" d="M191.77,1.45q-.74,19.41-1.22,38.83T189.79,79q-.15,10.92-.23,21.85a1.5,1.5,0,0,0,3,0q.13-19.43.51-38.84t1-38.7q.34-10.93.75-21.85c.07-1.93-2.93-1.93-3,0Z"/>
      <g>
        <path class="cls-6" d="M68,101.65a48.43,48.43,0,0,1-2.23-22.31l-.91.12A189.09,189.09,0,0,1,76.21,97.53l.78-.61-.77-.65c-.49-.41-1.2.3-.71.71l.77.65a.5.5,0,0,0,.79-.6A189.24,189.24,0,0,0,65.69,79c-.21-.3-.85-.35-.91.12A49.39,49.39,0,0,0,67,101.92c.2.6,1.17.34,1-.27Z"/>
        <path class="cls-6" d="M66.87,91.7a2.36,2.36,0,0,1-1-.38v.86q3.9-1.87,7.84-3.68c.58-.26.08-1.12-.51-.86-2.62,1.2-5.23,2.42-7.83,3.68a.5.5,0,0,0,0,.86,2.88,2.88,0,0,0,1.19.48c.63.11.9-.85.27-1Z"/>
        <path class="cls-6" d="M79.26,95.62a23.3,23.3,0,0,1-3.41-11.86l-.93.25,3.93,6a10.28,10.28,0,0,0,1.82,2.5c.44.36,1.31.77,1.71.11a2,2,0,0,0,.05-1.2A12.91,12.91,0,0,0,82.16,90c-.25-1.16-.62-2.29-1-3.43l-2-6.85a.5.5,0,0,0-1,.27l1.69,5.67a44.1,44.1,0,0,1,1.49,5.52,6.58,6.58,0,0,0,.09.79l0,.24c.15-.15.12-.25-.07-.29s-.31-.27-.43-.41a5.86,5.86,0,0,1-.37-.5c-.54-.81-1.06-1.64-1.59-2.45l-3.24-5a.51.51,0,0,0-.94.25A24.33,24.33,0,0,0,78.4,96.13a.5.5,0,0,0,.86-.51Z"/>
        <path class="cls-6" d="M82.1,77.39a47.26,47.26,0,0,0,.67,7c.36,2.09.68,4.6,2,6.35a2.28,2.28,0,0,0,2.13,1.15,2.25,2.25,0,0,0,1.72-1.43c.75-2.06-1.19-3.64-2.67-4.64v.87a5,5,0,0,0,2.55-3.82c.08-.64-.92-.63-1,0a4,4,0,0,1-2.06,2.95.51.51,0,0,0,0,.87,6.5,6.5,0,0,1,1.86,1.6,1.86,1.86,0,0,1,.18,2.18c-1.4,1.67-2.63-1.61-2.9-2.58A43,43,0,0,1,83.1,77.39c0-.64-1-.64-1,0Z"/>
        <path class="cls-6" d="M88.09,77.44c.39,4,.91,7.92,1.68,11.82.1.54.32,1.22,1,1.28s1.13-.86,1.47-1.32c.58-.78,1.24-1.54,1.75-2.37.29-.48.4-1.15-.17-1.47s-1.08.56-.51.86c-.21-.11-2.12,2.73-2.37,3.07l-.16.21q.19.08.09-.06l-.09-.35-.18-1c-.13-.73-.25-1.46-.37-2.18-.47-2.83-.83-5.67-1.11-8.53-.06-.63-1.06-.64-1,0Z"/>
        <path class="cls-6" d="M93.31,73.28c.69,4.91,1.57,9.8,2.66,14.63a.51.51,0,0,0,.48.37,1.11,1.11,0,0,0,1.07-.72,4.47,4.47,0,0,1,.84-1.36A10.31,10.31,0,0,0,100.65,84a.5.5,0,0,0-.86-.51,7.32,7.32,0,0,1-1.9,1.78,4,4,0,0,0-.83.9c-.11.17-.39,1.11-.61,1.09l.48.37Q95.31,80.39,94.28,73c-.09-.64-1.06-.37-1,.26Z"/>
        <path class="cls-6" d="M95,82a7.78,7.78,0,0,0,4.29-2.46.5.5,0,0,0-.71-.71A6.87,6.87,0,0,1,94.71,81a.5.5,0,0,0-.35.62A.51.51,0,0,0,95,82Z"/>
        <path class="cls-6" d="M94.42,76.72a21.86,21.86,0,0,1,2.94-2.83.5.5,0,0,0,0-.71.52.52,0,0,0-.71,0A22.54,22.54,0,0,0,93.71,76a.5.5,0,0,0,0,.7.5.5,0,0,0,.71,0Z"/>
      </g>
      <g>
        <path class="cls-4" d="M80,130.89A45.84,45.84,0,0,1,83.72,118c.46-1,1-2,1.51-3a6.8,6.8,0,0,1,1.76-2.4c.13-.1.43-.33.58-.25s.18.44.21.6c.14.63.26,1.26.38,1.9.23,1.23.42,2.46.59,3.7a77.77,77.77,0,0,1,.61,8.21.5.5,0,0,0,.93.26l.45-.86c.3-.57-.56-1.08-.86-.51l-.45.86.93.25a77.77,77.77,0,0,0-.61-8.21c-.18-1.33-.38-2.65-.63-4-.12-.67-.25-1.35-.4-2a1.62,1.62,0,0,0-.6-1.1c-.82-.53-1.9.38-2.41,1a14.51,14.51,0,0,0-1.77,2.86,46.87,46.87,0,0,0-3,7A46,46,0,0,0,79,130.63c-.09.63.88.9,1,.26Z"/>
        <path class="cls-4" d="M82,121.94c2.53-.25,5.06-.56,7.57-.93a.5.5,0,0,0,.35-.61.5.5,0,0,0-.61-.35q-3.65.53-7.31.89c-.64.06-.64,1.06,0,1Z"/>
        <path class="cls-4" d="M94.16,124.25q-.36-2.72-.6-5.44c-.08-.91-.15-1.82-.22-2.73a10,10,0,0,1-.06-1.22c0-.52.42-.54.85-.53,3,.12,5.21,4.09,4.07,6.77a3.7,3.7,0,0,1-3.72,2.27c-.64-.08-.64.92,0,1a4.62,4.62,0,0,0,4.25-2.16A5.5,5.5,0,0,0,99,117.1a6.2,6.2,0,0,0-3.92-3.63,2.61,2.61,0,0,0-2.37.27c-.7.65-.39,1.91-.33,2.75q.28,3.89.79,7.76c.08.63,1.08.64,1,0Z"/>
        <path class="cls-4" d="M102.3,113.53a28.16,28.16,0,0,1,2.33,10.3c0,1.6-.64,3.21-2.42,3.42A3.48,3.48,0,0,1,98.75,125c-.27-.59-1.13-.08-.86.5a4.5,4.5,0,0,0,4,2.77,3.66,3.66,0,0,0,3.6-2.77c.49-1.83.06-3.94-.27-5.76a33.24,33.24,0,0,0-1.91-6.48c-.24-.59-1.21-.33-1,.27Z"/>
        <path class="cls-4" d="M108.61,126.81a50.37,50.37,0,0,1,.91-5.45c.2-.89.42-1.77.67-2.64.12-.44.25-.87.39-1.31s.21-1,.52-.35a23.1,23.1,0,0,1,1,2.56c.29.85.56,1.7.8,2.57.5,1.72.91,3.47,1.25,5.24a.5.5,0,0,0,.83.22,1.24,1.24,0,0,0,.36-1.41c-.23-.59-1.2-.34-1,.27a.32.32,0,0,1-.11.43l.84.22a57,57,0,0,0-1.6-6.43c-.31-1-.65-2-1-2.94-.27-.71-.54-1.88-1.41-2.09s-1.25.86-1.46,1.55c-.31,1-.59,2-.83,3a51.55,51.55,0,0,0-1.14,6.53c-.07.64.93.63,1,0Z"/>
        <path class="cls-4" d="M109.54,122.53l5.09-.68a.52.52,0,0,0,.5-.5c0-.25-.23-.54-.5-.5l-5.09.68a.52.52,0,0,0-.5.5c0,.24.23.54.5.5Z"/>
        <path class="cls-4" d="M123.11,115a12.8,12.8,0,0,0-5.63,7.76,3.39,3.39,0,0,0,.11,2.2,2.86,2.86,0,0,0,2,1.35,9.17,9.17,0,0,0,5.46-.2c.6-.22.34-1.18-.27-1a8.14,8.14,0,0,1-4.66.27c-.67-.16-1.46-.37-1.66-1.12a3.6,3.6,0,0,1,.25-2,12,12,0,0,1,5-6.41c.54-.34,0-1.21-.51-.86Z"/>
        <path class="cls-4" d="M128.21,115.25a79.12,79.12,0,0,0-2,9.77c-.07.54.1,1.14.74,1.2a2.2,2.2,0,0,0,.91-.21,11.77,11.77,0,0,1,1.16-.33,13.44,13.44,0,0,1,4.77-.24.51.51,0,0,0,.35-.86l-.88-.72c-.49-.41-1.2.3-.71.71l.89.72.35-.85a14.32,14.32,0,0,0-4,.07,13.73,13.73,0,0,0-2,.48,2,2,0,0,0-.53.18c-.14,0-.18,0-.1.11s.06.08,0-.07a7.71,7.71,0,0,0,.18-1.07c.48-2.9,1.1-5.78,1.83-8.63a.5.5,0,0,0-1-.26Z"/>
        <path class="cls-4" d="M127.59,121a20.83,20.83,0,0,0,3,.45c.46,0,1.1.12,1.37-.35a.73.73,0,0,0,0-.73.66.66,0,0,0-.72-.31.5.5,0,1,0,.26,1l-.06,0-.25-.07a.31.31,0,0,1-.12-.16.31.31,0,0,1,.11-.32s.13,0,0,0l-.48,0c-.33,0-.65,0-1-.09a17.51,17.51,0,0,1-1.92-.34.5.5,0,1,0-.27,1Z"/>
        <path class="cls-4" d="M128.74,115.88a26.12,26.12,0,0,0,5.45-.27.49.49,0,0,0,.35-.61.5.5,0,0,0-.61-.35,25.05,25.05,0,0,1-5.19.23c-.64,0-.64,1,0,1Z"/>
        <path class="cls-4" d="M137,125.28l.7-7.4-.93.26c1.49,2,.9,5.09,2.94,6.83a.51.51,0,0,0,.84-.22,28,28,0,0,0,.56-4.84c0-.81,0-1.62-.05-2.42,0-.18-.2-1.77,0-1.76.65,0,.65-1,0-1s-1,.55-1.05,1.12a6.51,6.51,0,0,0,.06,1.25c0,.48.06,1,.08,1.45a26.91,26.91,0,0,1-.52,5.94l.83-.22a5.57,5.57,0,0,1-1.51-3.2,9.36,9.36,0,0,0-1.28-3.44.5.5,0,0,0-.93.25l-.7,7.4c-.06.64.94.63,1,0Z"/>
        <path class="cls-4" d="M143.44,116l5.33-1.62a.5.5,0,0,0-.27-1L143.18,115a.5.5,0,0,0,.26,1Z"/>
        <path class="cls-4" d="M146.34,115q-.84,4.89-1.39,9.83c-.07.64.93.64,1,0q.54-4.8,1.35-9.56c.11-.63-.85-.9-1-.27Z"/>
      </g>
      <g>
        <path class="cls-5" d="M204,78.51a2.62,2.62,0,0,1-2.8-.58,5.71,5.71,0,0,1-1.66-2.17,4.79,4.79,0,0,1,.66-5.1,4.08,4.08,0,0,1,4.67-1.25A3.76,3.76,0,0,1,207,73.94a10.06,10.06,0,0,1-1.44,3,2.8,2.8,0,0,1-2.39,1.45c-.65,0-.64,1,0,1,2.41.16,3.78-2.53,4.53-4.43a4.65,4.65,0,0,0-1.79-6.1,5,5,0,0,0-6.05.67,5.73,5.73,0,0,0-1.45,6.18c.8,2.19,3.51,5.08,6,3.66a.5.5,0,0,0-.5-.87Z"/>
        <path class="cls-5" d="M208.47,64.84a44.06,44.06,0,0,1-5,.36c-.81,0-1.61,0-2.41,0l-1.3-.07c-.39,0-.57-.09-.45-.53a5.33,5.33,0,0,1,1-1.74,3.64,3.64,0,0,1,1.36-1.2,1.33,1.33,0,0,1,.85-.13c.29.11.3.46.35.72.15.86.28,1.72.43,2.58.1.63,1.07.36,1-.27-.14-.86-.28-1.72-.43-2.57a1.57,1.57,0,0,0-1-1.4c-1.21-.39-2.43.55-3.14,1.43s-1.85,2.35-1.28,3.46c.34.65,1.09.63,1.73.67.86.05,1.73.08,2.59.08a45.85,45.85,0,0,0,5.74-.37c.63-.08.63-1.08,0-1Z"/>
        <path class="cls-5" d="M207.52,57.22l-4.52.31-2.22.16-1.15.08-.62,0h-.18c-.17,0-.15,0,0,.06.13-.22.2-.51.32-.74a6.27,6.27,0,0,1,.53-.81A5.53,5.53,0,0,1,201,55.11c.2-.13.44-.34.66-.14a1.46,1.46,0,0,1,.29.74,5.59,5.59,0,0,1-.06,2.23c-.13.63.83.89,1,.26.25-1.17.4-2.91-.45-3.9s-2.27.11-3,.84a7.13,7.13,0,0,0-1.15,1.57,1.93,1.93,0,0,0-.33,1.65c.3.65,1.09.45,1.67.41L202,58.6l5.5-.38c.63,0,.64-1,0-1Z"/>
        <path class="cls-5" d="M206.34,53.29a8.19,8.19,0,0,1-4.06-1.36c-.92-.62-1.9-1.86-1.06-2.94a3.67,3.67,0,0,1,1.33-.94,7.46,7.46,0,0,1,1.77-.57,2,2,0,0,1,1.64.28,1.77,1.77,0,0,1,.56,1.36c0,1.54-1.14,2.83-1.66,4.21-.23.61.74.87,1,.27.58-1.52,1.76-2.81,1.7-4.53a2.76,2.76,0,0,0-.79-2,2.72,2.72,0,0,0-2.1-.67,7.44,7.44,0,0,0-2.21.58,5.29,5.29,0,0,0-1.82,1.16,2.53,2.53,0,0,0-.68,2,3.43,3.43,0,0,0,1.11,2,8.63,8.63,0,0,0,5.31,2.08c.64,0,.64-1,0-1Z"/>
        <path class="cls-5" d="M198.4,40.43a5.43,5.43,0,0,0,1.46,2.7,4.7,4.7,0,0,0,2.76,1.48c1.32.07,1.53-1.59,1.64-2.55.09-.75.41-2.42,1.55-1.89,1.39.64.72,2.52.34,3.57-.23.61.74.87,1,.27.43-1.16.86-2.53.22-3.7a2.11,2.11,0,0,0-2.64-1.07,3.05,3.05,0,0,0-1.41,2.61,8.85,8.85,0,0,1-.12.9c0,.24-.12.65-.33.8s-1.2-.31-1.49-.5a4.48,4.48,0,0,1-2-2.89c-.13-.63-1.1-.36-1,.27Z"/>
        <path class="cls-5" d="M206.6,35.91l-4.35,0h-3.14c-.2,0-.41,0-.61,0a.5.5,0,0,1-.17,0c-.14-.08-.17,0-.07.24.34-.55-.53-1.05-.87-.5s.21,1.14.78,1.25a7,7,0,0,0,1.29,0h1.48l5.66,0a.5.5,0,0,0,0-1Z"/>
        <path class="cls-5" d="M201.41,33a16.11,16.11,0,0,1-2.32-4.79.5.5,0,0,0-1,.26,16.71,16.71,0,0,0,2.42,5,.51.51,0,0,0,.68.18.49.49,0,0,0,.18-.68Z"/>
        <path class="cls-5" d="M199.7,31.67l7.51.3c.64,0,.64-1,0-1l-7.51-.3c-.64,0-.64,1,0,1Z"/>
        <path class="cls-5" d="M198.94,26.1l7.07,2a.51.51,0,0,0,.56-.74l-1.8-4.1a.51.51,0,0,0-.69-.18.52.52,0,0,0-.18.68l1.81,4.11.56-.74-7.07-2a.5.5,0,0,0-.26,1Z"/>
        <path class="cls-5" d="M201.55,27.22a10.49,10.49,0,0,1-.5-3.52.5.5,0,0,0-.5-.5.51.51,0,0,0-.5.5,11,11,0,0,0,.54,3.78.5.5,0,0,0,.61.35.5.5,0,0,0,.35-.61Z"/>
        <path class="cls-5" d="M198.5,25.54a6.92,6.92,0,0,0-.46-4.28.49.49,0,0,0-.68-.18.5.5,0,0,0-.18.68,5.82,5.82,0,0,1,.35,3.52.5.5,0,0,0,1,.26Z"/>
      </g>
      <g>
        <path class="cls-3" d="M50.94,53.76q3.14,6.83,6.45,13.56c.25.51,1.07.16.91-.38l-.51-1.73a.5.5,0,0,0-1,.26l.52,1.73.91-.38q-3.31-6.73-6.45-13.56c-.27-.58-1.13-.08-.86.5Z"/>
        <path class="cls-3" d="M54.48,61a14.52,14.52,0,0,0,6.09-4.4.53.53,0,0,0,.08-.6l-.43-.93a.5.5,0,0,0-.86.51l.42.92.08-.6A13.68,13.68,0,0,1,54.21,60a.5.5,0,1,0,.27,1Z"/>
        <path class="cls-3" d="M57,50q3,6.57,6.37,13c.22.42,1,.25.94-.25l-.2-1.57c-.08-.63-1.08-.64-1,0l.2,1.57.93-.26q-3.33-6.43-6.38-13c-.27-.58-1.13-.07-.86.51Z"/>
        <path class="cls-3" d="M60.5,50.31a8.85,8.85,0,0,0,4.72,3.52.51.51,0,0,0,.64-.48l-.15-3.44-.06-1.68,0-.81c0-.13,0-.27,0-.4a1.48,1.48,0,0,1,0-.21c0-.08,0,0-.1.11l-.25.07h.05L65,46.92l-.14-.24.14-.36,0,0,.35-.14h0a.51.51,0,0,0-.5.5.5.5,0,0,0,.5.5A.61.61,0,0,0,65.24,46c-.91.06-.63,1.4-.61,2l.23,5.39.63-.49a7.77,7.77,0,0,1-4.13-3c-.36-.54-1.22,0-.86.5Z"/>
        <path class="cls-3" d="M64.93,53.18a30.79,30.79,0,0,1,2.91,7.2l.92-.39-.43-.9c-.28-.58-1.15-.07-.87.51l.43.9c.26.52,1.06.15.92-.39a32.17,32.17,0,0,0-3-7.43.5.5,0,0,0-.87.5Z"/>
        <path class="cls-3" d="M73.33,57.47l-2.45-5.56-1.26-2.84L69,47.71l-.3-.69c-.11-.25-.21-.33,0-.52a4,4,0,0,1,1.11-.56,4.07,4.07,0,0,1,1.4-.39,2.21,2.21,0,0,1,2,1,2.06,2.06,0,0,1-1.9,3.17c-.65,0-.64,1,0,1a3.13,3.13,0,0,0,3.19-2.4,3.23,3.23,0,0,0-2-3.57,3.66,3.66,0,0,0-2.4,0,5.83,5.83,0,0,0-2.29,1.15c-.64.65-.06,1.53.24,2.2l1.3,2.95L72.47,58c.26.59,1.12.08.86-.5Z"/>
        <path class="cls-3" d="M78.37,54.34c-.91-1.48-1.93-3.11-1.87-4.92a3.1,3.1,0,0,1,2.32-3,2.88,2.88,0,0,1,2.1.84,8.39,8.39,0,0,1,1.75,1.77,2.42,2.42,0,0,1,.52,2A1.91,1.91,0,0,1,82,52.19c-1.26.55-2.74.62-3.72,1.69-.44.47.27,1.18.7.71,1-1.08,2.69-1,3.91-1.73a2.76,2.76,0,0,0,1.29-1.75,3.44,3.44,0,0,0-.59-2.44,8.93,8.93,0,0,0-2-2.09,4.23,4.23,0,0,0-2.58-1.14,3.86,3.86,0,0,0-3.41,3c-.61,2.27.73,4.53,1.87,6.38.33.55,1.2,0,.86-.5Z"/>
        <path class="cls-3" d="M80.82,43.65,85,38.79c.67-.78,1.37-1.53,2-2.34a2,2,0,0,0,.42-2.27.5.5,0,0,0-.86.5c.38.64-.69,1.57-1.06,2l-1.76,2.06L80.12,43c-.42.48.29,1.19.7.7Z"/>
        <path class="cls-3" d="M83.87,39.74a66.27,66.27,0,0,0,3.47,9.41c.27.59,1.13.08.86-.5a64.92,64.92,0,0,1-3.36-9.17.5.5,0,0,0-1,.26Z"/>
        <path class="cls-3" d="M89.7,34.84l2.87,10.81c.15.55.25,1.3.87,1.52s1.35-.44,1.85-.85l4.28-3.56a.51.51,0,0,0,0-.71A6.77,6.77,0,0,0,98,40.63c-.55-.35-1,.52-.51.87a5.6,5.6,0,0,1,1.4,1.26v-.71l-3.57,3-.89.74c-.13.11-.3.33-.46.37s-.16,0-.26-.17a14.7,14.7,0,0,1-.6-2.28l-2.41-9.11a.5.5,0,0,0-1,.27Z"/>
        <path class="cls-3" d="M92.07,39.33A2.91,2.91,0,0,0,96,38a.5.5,0,1,0-.86-.5,1.9,1.9,0,0,1-.23.39c0-.06,0,0,0,0l-.06.08-.16.15-.08.07c.08-.08,0,0,0,0l-.17.11-.2.11c-.05,0-.08,0,0,0l-.11,0a3.25,3.25,0,0,1-.42.11s-.08,0,0,0h-.45s-.13,0,0,0,0,0-.06,0l-.12,0a.7.7,0,0,1-.19-.06h0l-.12-.05a.5.5,0,0,0-.5.86Z"/>
        <path class="cls-3" d="M89.85,34.14l3.38-1.63a.49.49,0,0,0,.18-.68.5.5,0,0,0-.68-.18l-3.38,1.63a.49.49,0,0,0-.18.68.5.5,0,0,0,.68.18Z"/>
        <path class="cls-3" d="M103.28,41.51a59.5,59.5,0,0,1-4-8.91l-.84.48,7.85,7.35c.34.32,1,0,.83-.49L105,34.15l-1-2.78-.5-1.39a1.88,1.88,0,0,1-.19-.68.5.5,0,0,1,0-.24c.12-.18,0-.22-.24-.13.48.42,1.19-.28.7-.71-.66-.58-1.3,0-1.46.72a2.6,2.6,0,0,0,.24,1.42l.7,2,2.82,7.88.83-.49-7.84-7.34c-.34-.32-1,0-.84.48A62.86,62.86,0,0,0,102.42,42c.31.56,1.17.06.86-.51Z"/>
        <path class="cls-3" d="M106.81,28.07a11.44,11.44,0,0,0,2.26,4.69,8.53,8.53,0,0,0,4.11,3,2.42,2.42,0,0,0,2.2-.37,2.89,2.89,0,0,0,.8-2.21,18.39,18.39,0,0,0-.41-4.74A6.36,6.36,0,0,0,113,24.31a.5.5,0,0,0-.5.86c2.32,1.39,2.62,4.46,2.67,6.91a6.51,6.51,0,0,1-.1,2,1.21,1.21,0,0,1-1.62.73A7.47,7.47,0,0,1,110,32.29a10.43,10.43,0,0,1-2.21-4.48c-.14-.63-1.1-.37-1,.26Z"/>
        <path class="cls-3" d="M124.79,18.58c.38,1.36.79,2.71,1.22,4.05s.83,2.64,1.36,3.91a1.37,1.37,0,0,0,1.16.95,2.51,2.51,0,0,0,1.55-.63l3.49-2.55c.52-.37,0-1.24-.5-.86l-3,2.21c-.34.25-.92.84-1.39.84s-.57-.9-.68-1.21c-.82-2.3-1.55-4.63-2.22-7a.5.5,0,0,0-1,.27Z"/>
        <path class="cls-3" d="M126,22.56a9.41,9.41,0,0,0,4.88-2.75c.44-.47-.26-1.18-.71-.71a8.49,8.49,0,0,1-4.44,2.5.49.49,0,0,0-.35.61.51.51,0,0,0,.62.35Z"/>
        <path class="cls-3" d="M125.69,18.56a16.73,16.73,0,0,1,4.37-1.93.5.5,0,0,0-.26-1,18,18,0,0,0-4.61,2c-.55.34,0,1.21.5.86Z"/>
        <path class="cls-3" d="M119.35,19.46a6,6,0,0,0-3.52,3.41,3,3,0,0,0,1.51,3.91c1.74.81,3.52.27,5.33.14a3.47,3.47,0,0,1,2.78.76,1.5,1.5,0,0,1,.17,2.27,13.8,13.8,0,0,1-2.82,2,25.07,25.07,0,0,1-3.33,1.64c-.59.24-.34,1.21.26,1a27.1,27.1,0,0,0,5.47-3,4.41,4.41,0,0,0,1.74-1.79,2.3,2.3,0,0,0-.18-2c-.93-1.66-2.83-2-4.56-1.78s-3.83.78-5.15-.58c-.83-.85-.43-2.11.14-3a5,5,0,0,1,2.43-2c.59-.22.33-1.19-.27-1Z"/>
      </g>
    </g>
  </g>
</svg>
