<svg xmlns="http://www.w3.org/2000/svg" viewBox="0 0 403.6 166.61">
  <defs>
    <style>
      .cls-1 {
        fill: #00a651;
      }

      .cls-2 {
        fill: #00aeef;
      }

      .cls-3 {
        fill: #662d91;
      }

      .cls-4 {
        fill: #231f20;
      }
    </style>
  </defs>
  <title>sine-function-and-inverse-right-triangle</title>
  <g id="Layer_2" data-name="Layer 2">
    <g id="Layer_1-2" data-name="Layer 1">
      <g>
        <path class="cls-1" d="M13.86,76.19V89h2a31.71,31.71,0,0,0-3.38-11.62,28.07,28.07,0,0,0-3.29-5C8,70.88,6.23,69.59,4.24,70c-1.76.37-2.86,2-3.47,3.53A13.55,13.55,0,0,0,0,79,15.31,15.31,0,0,0,16,93.61c1.28,0,1.29-2,0-2a13.64,13.64,0,0,1-8.87-2.82,13.26,13.26,0,0,1-4.88-8.11,12.86,12.86,0,0,1,0-4.75c.23-1.28.64-2.86,1.76-3.66,1.34-1,2.75.25,3.62,1.25a23.72,23.72,0,0,1,2.88,4.32A29.43,29.43,0,0,1,13.86,89a1,1,0,0,0,2,0V76.19a1,1,0,0,0-2,0Z"/>
        <path class="cls-1" d="M21.66,72.25l.81,18.89,2-.27a26.69,26.69,0,0,1,1.67-16.65,9.16,9.16,0,0,1,2.05-3.35c.23-.19.64-.51,1-.38s.72,1.19.89,1.61a33.61,33.61,0,0,1,2.22,8.67,33.41,33.41,0,0,1-.35,9.93c-.23,1.26,1.7,1.8,1.93.53a35.46,35.46,0,0,0-2-20.08c-.57-1.36-1.33-2.85-3.06-2.66-1.51.16-2.64,1.48-3.33,2.72a28.2,28.2,0,0,0-3.19,9.17,29.19,29.19,0,0,0,.31,11,1,1,0,0,0,2-.26l-.81-18.89c-.05-1.28-2.05-1.29-2,0Z"/>
        <path class="cls-1" d="M39.67,72.51a25.46,25.46,0,0,0-.43,8,24.91,24.91,0,0,0,.7,3.82,4.4,4.4,0,0,0,1.73,2.75c1.73,1.06,4,.06,5-1.58,1.25-2.14.29-4.82-.86-6.78a16.8,16.8,0,0,0-5.37-5.53L39.94,75a8.21,8.21,0,0,1,5.93,4.18,26.51,26.51,0,0,1,2.88,8.12,17,17,0,0,1,0,9,11.23,11.23,0,0,1-3.93,5.38A11.47,11.47,0,0,1,37.42,104c-1.29,0-1.29,2,0,2a13.71,13.71,0,0,0,12.92-8.37,17.35,17.35,0,0,0,.57-9.71,29.89,29.89,0,0,0-3.09-9.36A10.39,10.39,0,0,0,39.94,73c-1-.09-1.27,1.37-.5,1.86a14.77,14.77,0,0,1,3.88,3.64c1,1.39,2.13,3.22,1.92,5-.12,1-1.33,2.48-2.49,1.84-.67-.37-.83-1.37-1-2a21.48,21.48,0,0,1-.54-3.09A23.59,23.59,0,0,1,41.6,73c.26-1.25-1.66-1.79-1.93-.53Z"/>
        <path class="cls-1" d="M53.61,67.73q.41,12.87.24,25.74a1,1,0,0,0,1.86.51l1.12-1.52a1,1,0,0,0-.35-1.37,1,1,0,0,0-1.37.36L54,93l1.87.5Q56,80.6,55.61,67.73c0-1.28-2-1.29-2,0Z"/>
        <path class="cls-1" d="M62.07,82.28c2.26-1,4.93-2.51,4.75-5.37a3.4,3.4,0,0,0-1.58-2.83,3.12,3.12,0,0,0-3.42.31C59.58,76.06,59,79.31,59,81.93a15.72,15.72,0,0,0,2.11,8.15,6.13,6.13,0,0,0,3,2.73,2.73,2.73,0,0,0,3.46-.94c.7-1.09-1-2.09-1.73-1-.3.46-1,.14-1.38-.09A4.37,4.37,0,0,1,62.77,89,13.6,13.6,0,0,1,61,83a10.82,10.82,0,0,1,1.06-5.86c.35-.59.95-1.4,1.71-1.41.61,0,.94.52,1,1.06.36,2.11-2.21,3.14-3.75,3.8a1,1,0,0,0-.36,1.37,1,1,0,0,0,1.37.36Z"/>
      </g>
      <g>
        <g>
          <path class="cls-2" d="M238.39,78.24a6.57,6.57,0,0,1-2.7-7.36c.81-2.79,2.73-7,6.11-7.17,2.56-.11,4.81,2.29,6.07,4.31a7.26,7.26,0,0,1,1.24,4.58,6.37,6.37,0,0,1-2,3.85c-2.16,2-5.9,3.29-8.68,1.79-.57-.31-1.07.56-.51.86,2.84,1.54,6.51.66,9-1.19a8.13,8.13,0,0,0,2.92-3.78,7.2,7.2,0,0,0-.39-5.37A12.08,12.08,0,0,0,247,65.29a8.15,8.15,0,0,0-3.9-2.46A5.5,5.5,0,0,0,238,64.59a14.52,14.52,0,0,0-2.82,4.84,8,8,0,0,0-.42,5.46,7.24,7.24,0,0,0,3.15,4.21A.5.5,0,0,0,238.39,78.24Z"/>
          <path class="cls-2" d="M252.13,70A151.91,151.91,0,0,0,251,94.78c0,.64,1,.64,1,0A151.91,151.91,0,0,1,253.13,70c.09-.63-.92-.63-1,0Z"/>
          <path class="cls-2" d="M252.87,70.61a2.07,2.07,0,0,1,2.38-2A4,4,0,0,1,258.11,71c1.05,2.22.47,5.47-2.16,6.19a3.18,3.18,0,0,1-3.36-.92c-.38-.5-1.25,0-.86.51a4.07,4.07,0,0,0,3.89,1.49,4.47,4.47,0,0,0,3.51-2.64,6.14,6.14,0,0,0,0-4.85,5.05,5.05,0,0,0-3.59-3.16c-1.76-.28-3.77,1-3.64,3,0,.63,1,.64,1,0Z"/>
          <path class="cls-2" d="M262.76,67.62a158.73,158.73,0,0,0-1.84,26.58.5.5,0,0,0,1,0,157.62,157.62,0,0,1,1.81-26.31c.1-.63-.87-.9-1-.27Z"/>
          <path class="cls-2" d="M263,68.83c0-1.44,1.65-2.22,2.89-1.89a5.15,5.15,0,0,1,3,2.76,7.54,7.54,0,0,1,1,3.28,3.82,3.82,0,0,1-2.06,3.54,6,6,0,0,1-5.12.12c-.6-.24-.86.73-.26,1a7.06,7.06,0,0,0,5.56,0,4.85,4.85,0,0,0,2.87-4.11,8.07,8.07,0,0,0-1.16-4.27,5.92,5.92,0,0,0-3.85-3.27c-1.8-.31-3.89,1-3.85,2.93a.5.5,0,0,0,1,0Z"/>
          <path class="cls-2" d="M273.73,73.77c-1.11-3.16,2.18-7.17,5.53-5.64A4.69,4.69,0,0,1,282,72.06a3.59,3.59,0,0,1-2.4,3.45,4.1,4.1,0,0,1-4.57-.88c-.42-.48-1.13.22-.7.71,2.56,2.9,8.11,1.35,8.63-2.54a5.55,5.55,0,0,0-2.55-5.2,4.76,4.76,0,0,0-5.64.31,5.67,5.67,0,0,0-2,6.13c.21.6,1.18.34,1-.27Z"/>
          <path class="cls-2" d="M288.18,62.8c-.72,1-1.4,2-2,3.07A17.94,17.94,0,0,0,284.54,69c-.68,2,1.31,3,3,3.16.94.08,2.24,0,2.85.87a2.16,2.16,0,0,1-.12,2.22c-1.19,2-4,1.54-6,1.18-.63-.12-.9.85-.26,1,1.78.33,3.72.66,5.43-.13a3.83,3.83,0,0,0,2.16-3.17,2.66,2.66,0,0,0-2.33-2.77c-1.1-.21-4.44,0-3.83-2a14.69,14.69,0,0,1,1.6-3.1c.61-1,1.26-2,2-3,.38-.52-.48-1-.86-.5Z"/>
          <path class="cls-2" d="M294.63,75.32a35.23,35.23,0,0,1-.43-9.45c.06-.64-.94-.64-1,0a35.53,35.53,0,0,0,.47,9.71c.12.63,1.08.37,1-.26Z"/>
          <path class="cls-2" d="M295.35,64.55l7.32-.54c.64-.05.64-1.05,0-1l-7.32.54c-.64.05-.65,1,0,1Z"/>
          <path class="cls-2" d="M299.38,60.1A59.32,59.32,0,0,0,298.26,76c0,.64,1,.64,1,0a58.63,58.63,0,0,1,1.08-15.64c.13-.62-.83-.89-1-.26Z"/>
          <path class="cls-2" d="M300.89,74.46c2.09.16,4.89-.77,5.35-3.11.38-1.89-1.8-4.64-3.73-3.19a5.56,5.56,0,0,0-1.7,2.82,8.51,8.51,0,0,0-.36,3.61,9,9,0,0,0,3.07,5.34,15.83,15.83,0,0,0,3.8,2.58c.58.28,1.09-.58.51-.86a12.59,12.59,0,0,1-5.61-4.89,6.87,6.87,0,0,1-.42-5.59,4.14,4.14,0,0,1,1.41-2.29c.84-.51,1.69.59,2,1.29a2.1,2.1,0,0,1-.81,2.36,4.72,4.72,0,0,1-3.47.93c-.64,0-.64,1,0,1Z"/>
          <path class="cls-2" d="M321.5,64.41a22.56,22.56,0,0,0-3.67,3.83c-.79,1.05-1.57,2.46-.34,3.52,1,.84,2.35.85,3.49,1.32a3.32,3.32,0,0,1,2.12,3.61c-.35,1.34-2.26,2.35-3.45,1.41-.51-.4-1.22.31-.71.7a3.12,3.12,0,0,0,3.67.08,3.33,3.33,0,0,0,1.46-3.62,4.6,4.6,0,0,0-3-3.21c-.84-.29-3.26-.47-3.24-1.72a3,3,0,0,1,.81-1.5q.51-.69,1.08-1.32a21.69,21.69,0,0,1,2.5-2.39c.5-.41-.21-1.11-.71-.71Z"/>
          <path class="cls-2" d="M327.48,79l.86-10.72c.06-.65-.94-.64-1,0L326.48,79c-.05.64.95.63,1,0Z"/>
          <path class="cls-2" d="M334,63.06a38.4,38.4,0,0,1,.34,10.65l.94-.25a2.82,2.82,0,0,0-3.06-1.19,2.91,2.91,0,0,0-2.26,2.57,3.81,3.81,0,0,0,1.56,3.48,5,5,0,0,0,4.36.58.5.5,0,0,0-.27-1c-2,.58-4.61-.21-4.67-2.61a2,2,0,0,1,1.33-2,1.83,1.83,0,0,1,2.14.68.5.5,0,0,0,.93-.26,39.19,39.19,0,0,0-.38-10.92c-.11-.63-1.07-.36-1,.27Z"/>
          <path class="cls-2" d="M339.22,75.92c1.74-.54,3.8-1.79,4.09-3.77a2.84,2.84,0,0,0-3.77-2.81c-1.55.69-2,3-1.77,4.51a7.2,7.2,0,0,0,2.7,4.4,14.57,14.57,0,0,0,3.29,2.12c.58.27,1.08-.6.5-.87a10.69,10.69,0,0,1-5-4.16,4.71,4.71,0,0,1-.25-4c.26-.68.73-1.31,1.53-1.23a2,2,0,0,1,1.76,1.48,2.34,2.34,0,0,1-.72,1.72A5.81,5.81,0,0,1,339,75c-.61.19-.35,1.16.26,1Z"/>
          <path class="cls-2" d="M358.35,62.35a45.57,45.57,0,0,0-.17,14.37c.1.64,1.06.37,1-.26a44.07,44.07,0,0,1,.16-13.85c.11-.63-.85-.9-1-.26Z"/>
          <path class="cls-2" d="M363.28,73.76c1.29-1.18,3-2.86,2.48-4.8-.37-1.47-2.23-2.84-3.63-1.75s-1.35,3.52-1.15,5a10.14,10.14,0,0,0,2,4.87,9.43,9.43,0,0,0,4.82,3.38.5.5,0,0,0,.27-1,9,9,0,0,1-6.17-7.93c-.07-1.16.26-5,2.22-3.42s-.35,3.76-1.56,4.86c-.47.44.24,1.14.71.71Z"/>
          <path class="cls-2" d="M368.19,66.43l0,10h1a27.38,27.38,0,0,1,.55-6.32,24.79,24.79,0,0,1,.76-2.81c.19-.58.62-1.86,1.46-1.4s.95,1.49,1.15,2.18a18.07,18.07,0,0,1,.62,2.83,19.11,19.11,0,0,1-.16,6.13c-.12.63.85.9,1,.27a20.46,20.46,0,0,0,.28-5.58,17,17,0,0,0-1.21-5.26c-.52-1.17-1.83-2.3-3.06-1.26a3.75,3.75,0,0,0-1,1.72,26.6,26.6,0,0,0-.79,2.91,28.08,28.08,0,0,0-.59,6.59.5.5,0,0,0,1,0l0-10a.5.5,0,0,0-1,0Z"/>
          <path class="cls-2" d="M375.54,69.24a12.6,12.6,0,0,0,0,3.36,4,4,0,0,0,.9,2.32c1.3,1.27,2.69-.4,3.1-1.61a5.48,5.48,0,0,0-3.53-6.82.5.5,0,0,0-.49.83A18,18,0,0,1,380,77.49a7.52,7.52,0,0,1-1.3,5.26,4.58,4.58,0,0,1-4.32,1.83c-.63-.13-.9.84-.27,1a5.48,5.48,0,0,0,4.93-1.67,7.78,7.78,0,0,0,2-5.53,18.6,18.6,0,0,0-4.79-11.72l-.49.83a4.48,4.48,0,0,1,3,4.86c-.11.75-1.07,3-1.85,1.56a5.46,5.46,0,0,1-.47-2.12,12.41,12.41,0,0,1,.05-2.51c.08-.63-.92-.63-1,0Z"/>
          <path class="cls-2" d="M379.5,62.35a24.36,24.36,0,0,1,7.77-1.06.5.5,0,0,0,0-1,25.1,25.1,0,0,0-8,1.1c-.61.19-.35,1.16.26,1Z"/>
          <path class="cls-2" d="M382.25,54.6q0,11,.88,22c.05.64,1.05.65,1,0q-.9-11-.88-22a.5.5,0,0,0-1,0Z"/>
          <path class="cls-2" d="M388,56.29q.28,9.54,1,19.06a.5.5,0,0,0,1,.14q.88-2.7,1.95-5.32a17.67,17.67,0,0,1,1.11-2.56c.53-.87,1.21-.36,1.62.31a7.24,7.24,0,0,1,.72,2.37,26.42,26.42,0,0,1,.32,8.52c-.08.64.92.63,1,0a28,28,0,0,0-.06-7c-.23-1.69-.41-4-1.84-5.23a1.64,1.64,0,0,0-2-.17,4.8,4.8,0,0,0-1.36,2.31q-1.35,3.21-2.44,6.53l1,.13q-.72-9.51-1-19.06a.5.5,0,0,0-1,0Z"/>
        </g>
        <g>
          <path class="cls-3" d="M242.79,86.78A124.14,124.14,0,0,0,244,106.24c.07.55,1,.43,1-.13a18.46,18.46,0,0,1,1.59-9.79c.34-.72.93-2.22,1.93-2.15s1.16,1.31,1.32,2c.28,1.17.52,2.34.72,3.52a57,57,0,0,1,.77,7.38c0,.64,1,.64,1,0a60.29,60.29,0,0,0-.63-6.58c-.18-1.14-.39-2.28-.63-3.41a10.45,10.45,0,0,0-.74-2.58,2,2,0,0,0-3.48-.52,8.67,8.67,0,0,0-1.39,2.44,19.4,19.4,0,0,0-1.46,9.7l1-.13a122.09,122.09,0,0,1-1.17-19.2.5.5,0,0,0-1,0Z"/>
          <path class="cls-3" d="M253.58,93.44a37.75,37.75,0,0,0-.61,5.72c0,1.22-.25,3,.61,4,1,1.21,2.86.53,3.94-.2a5.41,5.41,0,0,0,2.32-3.85,8.24,8.24,0,0,0-.23-3.28.5.5,0,0,0-1,.26c.74,3.93,1.68,8.41.12,12.27a9.78,9.78,0,0,1-5.2,5c-.64.28-1.29.49-1.95.71s-.35,1.16.26,1a15.24,15.24,0,0,0,4.88-2.45c2.8-2.23,3.8-5.57,3.81-9.06a40.85,40.85,0,0,0-1-7.71l-1,.26c.75,2.62-.08,6-3.06,6.67-1.81.42-1.66-1.72-1.64-2.91a36,36,0,0,1,.6-6.14c.12-.63-.84-.9-1-.27Z"/>
          <path class="cls-3" d="M261.24,96.18v18a.5.5,0,0,0,1,0v-18a.5.5,0,0,0-1,0Z"/>
          <path class="cls-3" d="M262.63,95.93a2,2,0,0,1,2.25-1.6,4.27,4.27,0,0,1,2.83,2.13,6.48,6.48,0,0,1,1.14,2.64,2.74,2.74,0,0,1-1.39,2.78,5.29,5.29,0,0,1-4.18.33.5.5,0,0,0-.26,1,6.37,6.37,0,0,0,4.68-.29,3.78,3.78,0,0,0,2.18-3.4,6.77,6.77,0,0,0-1.32-3.55,5.25,5.25,0,0,0-3.68-2.6,3,3,0,0,0-3.25,2.6c0,.64,1,.64,1,0Z"/>
          <path class="cls-3" d="M274.2,103c-2.51-1.52-3-6.42.23-7.42a4.69,4.69,0,0,1,4.5,1.07,4.13,4.13,0,0,1,.77,4.85,4.05,4.05,0,0,1-5.5,1.5.5.5,0,0,0-.5.86,5,5,0,0,0,6.57-7.18,5.69,5.69,0,0,0-5.3-2.24,4.29,4.29,0,0,0-3.73,3.7,5.71,5.71,0,0,0,2.46,5.72A.5.5,0,0,0,274.2,103Z"/>
          <path class="cls-3" d="M280,93q5.24-1.46,10.35-3.3c.6-.22.34-1.19-.27-1-3.4,1.23-6.86,2.33-10.34,3.3a.5.5,0,0,0,.26,1Z"/>
          <path class="cls-3" d="M284.9,87.16a132.8,132.8,0,0,0-1,16.91.5.5,0,0,0,1,0,132.8,132.8,0,0,1,1-16.91c.08-.64-.92-.63-1,0Z"/>
          <path class="cls-3" d="M290.76,100.32c1.84-1.25,4.15-2.9,4.17-5.38,0-1.92-1.47-4-3.59-3.51s-3.07,3.32-3.14,5.32a10.14,10.14,0,0,0,1.88,6.12,9.65,9.65,0,0,0,5.89,4c.63.13.89-.83.26-1a9.15,9.15,0,0,1-6.89-7.24,6.93,6.93,0,0,1,.85-5.19,2.08,2.08,0,0,1,2.35-1,2.44,2.44,0,0,1,1.33,1.87c.47,2.35-1.94,4-3.62,5.14-.53.36,0,1.23.51.86Z"/>
          <path class="cls-3" d="M298.55,94.5a40.51,40.51,0,0,0,.66,9.89c.11.54,1.06.42,1-.14a24.87,24.87,0,0,1,0-6.45,24.31,24.31,0,0,1,.67-3.27,3.2,3.2,0,0,1,1.33-2.06c1-.48,1.35,1,1.58,1.65a20.52,20.52,0,0,1,.79,3,19.47,19.47,0,0,1,.12,6.28c-.09.63.87.91,1,.27a21,21,0,0,0,.05-5.66,16.87,16.87,0,0,0-1.51-5.46,1.87,1.87,0,0,0-3.28-.25c-1.15,1.35-1.41,3.37-1.65,5.06a25.53,25.53,0,0,0-.05,6.93l1-.13a38.8,38.8,0,0,1-.63-9.62c0-.65-1-.65-1,0Z"/>
          <path class="cls-3" d="M307.25,94.47a20.24,20.24,0,0,0,2.76,7.94,7.89,7.89,0,0,0,1.6,2,2.51,2.51,0,0,0,2,.67,2.31,2.31,0,0,0,1.61-1.44,12,12,0,0,0,1-5.24,12.83,12.83,0,0,0-1.52-5.85c-.3-.56-1.17-.06-.86.51a11.78,11.78,0,0,1,1,8.48c-.2.76-.47,2.08-1.23,2.47s-1.75-.61-2.18-1.2a17.85,17.85,0,0,1-1.49-2.53,18.68,18.68,0,0,1-1.75-5.84c-.08-.63-1.08-.63-1,0Z"/>
          <path class="cls-3" d="M328.64,99.39c1.15-1.32,3-2.17,3.33-4,.25-1.42-.61-3.12-2.27-2.8s-2.42,2.33-2.46,3.82a8.35,8.35,0,0,0,6,8,.5.5,0,0,0,.26-1,7.4,7.4,0,0,1-5.11-5.58,4.37,4.37,0,0,1,.67-3.81c.39-.44,1-.79,1.57-.36a1.52,1.52,0,0,1,.38,1.43c-.27,1.6-2.08,2.42-3.06,3.54-.43.48.28,1.19.7.71Z"/>
          <path class="cls-3" d="M341.62,87.05q-.37,7.36-.32,14.73c0,1.16,0,2.34.06,3.5.05.65.32,1.54,1.12,1.57,1.44.05.62-2.5-.37-1.48-.45.46.25,1.17.7.71-1.07,1.11-.51-.23-.54-.1s.09,0,.21-.2l-.06-.16c0-.33-.07-.65-.08-1l0-2.48q0-2.54,0-5.07.06-5,.31-10c0-.64-1-.64-1,0Z"/>
          <path class="cls-3" d="M346.18,99.9c.79-.88,1.58-1.76,2.36-2.65a3.87,3.87,0,0,0,1.2-2.23,1.92,1.92,0,0,0-3.14-1.51,4.07,4.07,0,0,0-1.11,2.07,10.93,10.93,0,0,0-.49,3.06,7.71,7.71,0,0,0,1.86,5.16,8,8,0,0,0,5.12,2.64c.64.08.63-.92,0-1a7,7,0,0,1-4.41-2.35A6.86,6.86,0,0,1,346,97.87a9.39,9.39,0,0,1,.67-2.8c.3-.7,1.18-1.55,1.85-.65.57.75-.31,1.66-.79,2.2l-2.29,2.58c-.43.48.28,1.19.7.7Z"/>
          <path class="cls-3" d="M352.42,94.26l0,10.41h1a20.28,20.28,0,0,1,3-11.22h-.87a18.09,18.09,0,0,1,1.25,9.67c-.09.63.87.9,1,.27a19.48,19.48,0,0,0-1.35-10.45c-.16-.36-.69-.28-.87,0a21.38,21.38,0,0,0-3.17,11.73.5.5,0,0,0,1,0l0-10.41a.5.5,0,0,0-1,0Z"/>
          <path class="cls-3" d="M359.32,96.3c.35.85-.07,1.67-.1,2.53a2.45,2.45,0,0,0,.47,1.52,1.94,1.94,0,0,0,3.15,0c1.64-2,.11-4.69-2.06-5.46a.51.51,0,0,0-.56.74c1.77,2.63,4.11,6,2.49,9.29s-5.91,3.11-9.09,2.85c-.64,0-.64,1,0,1,3.56.29,8.11.39,10-3.34s-.48-7.31-2.5-10.31l-.56.74c1.46.51,2.68,2.32,1.61,3.77-.68.93-1.79.48-1.91-.58a6.82,6.82,0,0,1,.22-1.55,2.83,2.83,0,0,0-.15-1.47c-.24-.59-1.21-.33-1,.26Z"/>
          <path class="cls-3" d="M362.49,93.08a45.24,45.24,0,0,0,9.76-1.33.5.5,0,0,0-.26-1,43.47,43.47,0,0,1-9.5,1.3c-.64,0-.64,1,0,1Z"/>
          <path class="cls-3" d="M367.06,87.68v16.9a.5.5,0,0,0,1,0V87.68a.5.5,0,0,0-1,0Z"/>
          <path class="cls-3" d="M373.29,88.81a52.72,52.72,0,0,0,1.64,16.59.51.51,0,0,0,1,0,34.77,34.77,0,0,1,1.6-5c.28-.67,1.5-4.16,2.64-2.67a4.58,4.58,0,0,1,.62,1.91,28.27,28.27,0,0,1,.4,2.91,29.76,29.76,0,0,1-.08,5.42c-.07.63.93.63,1,0a29.44,29.44,0,0,0-.07-6.83c-.19-1.4-.28-3.81-1.72-4.59-1.67-.89-2.72,1.23-3.25,2.41a35.47,35.47,0,0,0-2.11,6.18h1a51.32,51.32,0,0,1-1.61-16.32c0-.64-1-.64-1,0Z"/>
          <path class="cls-3" d="M326.5,92.05a9.13,9.13,0,0,0-5.06,1.72,9.25,9.25,0,0,0-1.95,1.9,4.55,4.55,0,0,0-1.13,2.49c0,1.65,2.46,2,3.7,2.29s3.56.7,3.25,2.56c-.44,2.69-3.87,2.57-5.89,2.43-.64,0-.64,1,0,1,1.94.14,4.16.23,5.7-1.18a3.11,3.11,0,0,0,.56-4.3c-1-1.14-2.62-1.3-4-1.61-.65-.15-1.8-.32-2.22-.92s.85-2.27,1.33-2.78a8.17,8.17,0,0,1,5.69-2.6c.64,0,.65-1,0-1Z"/>
        </g>
        <path class="cls-4" d="M230.82,86.41c11.2-1.13,22.43-2,33.69-2.31s22.45.32,33.67,1.06,22.34,1.32,33.56,1.2,22.32-.66,33.49-.91a274.81,274.81,0,0,1,37.41,1.24c1.28.15,1.27-1.85,0-2-22.21-2.55-44.57-.81-66.84-.39-11.21.21-22.36-.13-33.55-.87S279.84,81.91,268.6,82c-12.63.13-25.22,1.11-37.78,2.38-1.27.13-1.28,2.13,0,2Z"/>
      </g>
      <g>
        <path class="cls-4" d="M143.32.11a30.87,30.87,0,0,0-9,6.75c-1.2,1.31-3,3.05-2.6,5,.36,1.72,2.2,2.36,3.75,2.42,3,.1,7.28-1.71,9.65.93a4.79,4.79,0,0,1,1,3.85,5.91,5.91,0,0,1-2.31,3.74c-3.64,2.83-8.63,2-12.82,1.3a1,1,0,0,0-1.23.69,1,1,0,0,0,.69,1.24c4.14.71,8.47,1.36,12.44-.39,3.13-1.38,5.56-4.38,5.26-7.93a6.33,6.33,0,0,0-2-4.25,7.35,7.35,0,0,0-5.06-1.64c-1.82,0-3.61.45-5.42.46a2.7,2.7,0,0,1-1.82-.48c-.62-.56.11-1.47.49-2a28.66,28.66,0,0,1,10-8c1.16-.57.15-2.29-1-1.73Z"/>
        <path class="cls-4" d="M152.86,25.73a46.53,46.53,0,0,1-.76-15,1,1,0,0,0-1-1,1,1,0,0,0-1,1,48.18,48.18,0,0,0,.83,15.52c.27,1.25,2.2.72,1.93-.54Z"/>
        <path class="cls-4" d="M155.07,15.25l0,10.42a1,1,0,0,0,2,0,33.45,33.45,0,0,1,1.76-10.56,6.1,6.1,0,0,1,1.32-2.67c.15-.13.18,0,.12-.09s.08.24.09.28a12.64,12.64,0,0,1,.37,1.75c.21,1.17.37,2.36.47,3.55a41.2,41.2,0,0,1,0,7.45,1,1,0,0,0,2,0,41.24,41.24,0,0,0,.08-6.85c-.08-1.17-.22-2.34-.4-3.5a17.07,17.07,0,0,0-.61-3.09,2.09,2.09,0,0,0-2.06-1.57A3,3,0,0,0,158,12a13.09,13.09,0,0,0-1.15,2.85c-.35,1.08-.65,2.18-.89,3.28a35.9,35.9,0,0,0-.86,7.59h2l0-10.42a1,1,0,0,0-2,0Z"/>
        <path class="cls-4" d="M170.27,17.49c.94-1.26,2.43-2,3.25-3.37a4,4,0,0,0,.33-3.46c-1.29-3.24-5.21-1.06-6.76.77a9.59,9.59,0,0,0-2.22,7.21A9.09,9.09,0,0,0,169,25.26,10.86,10.86,0,0,0,178,26.59a1,1,0,0,0-.54-1.93c-3.94,1.17-9-.73-10.29-4.89a7.54,7.54,0,0,1,.54-5.63,6.61,6.61,0,0,1,1.85-2.28c.48-.37,1.79-1.29,2.32-.75s.23,1.68-.19,2.24c-.88,1.17-2.21,1.94-3.1,3.13a1,1,0,0,0,1.73,1Z"/>
      </g>
      <g>
        <path class="cls-4" d="M88.76,156.87a43.65,43.65,0,0,1,4.77-18.21c.59-1.14-1.13-2.15-1.72-1a45.85,45.85,0,0,0-5,19.22c-.05,1.28,1.95,1.28,2,0Z"/>
        <path class="cls-4" d="M93.88,145.77l-3,12.56,2,.27a26.5,26.5,0,0,1,3.86-11.37,10.26,10.26,0,0,1,1.74-2.38c.65-.54.86,0,1,.67a19.55,19.55,0,0,1,.31,3.15c0,1.12.06,2.23,0,3.35a39.08,39.08,0,0,1-1.07,7.76c-.3,1.25,1.63,1.79,1.93.53a42.07,42.07,0,0,0,1.13-8.06c0-1.35,0-2.7,0-4.05a15,15,0,0,0-.45-3.61,2.6,2.6,0,0,0-2.22-2,3.51,3.51,0,0,0-2.82,1.77,27.69,27.69,0,0,0-3.47,6.25,28.9,28.9,0,0,0-1.92,8c-.11,1.13,1.71,1.35,2,.27l3-12.57c.3-1.25-1.63-1.78-1.93-.53Z"/>
        <path class="cls-4" d="M105,143.2a42.77,42.77,0,0,0,1.69,17.52,1,1,0,0,0,1.93,0l4.86-13.23c.44-1.21-1.49-1.74-1.93-.54l-4.86,13.24h1.93a41.24,41.24,0,0,1-1.62-17,1,1,0,0,0-1-1,1,1,0,0,0-1,1Z"/>
        <path class="cls-4" d="M117.89,154.91c1.36-2.19,4.29-3.1,4.61-5.94.25-2.23-1.46-4.86-3.94-3.7a7.92,7.92,0,0,0-3,3,10.74,10.74,0,0,0-1.47,3.61,10.3,10.3,0,0,0,1.39,7.71,10.78,10.78,0,0,0,7.33,4.8,1,1,0,0,0,1.23-.7,1,1,0,0,0-.69-1.23,8.65,8.65,0,0,1-7.49-8.6,8.75,8.75,0,0,1,2.27-5.67,5,5,0,0,1,1.17-1c.35-.19.54-.23.77,0a2.22,2.22,0,0,1,.45,1.65,3.94,3.94,0,0,1-1.66,2.35,12.71,12.71,0,0,0-2.69,2.79c-.69,1.09,1,2.1,1.72,1Z"/>
        <path class="cls-4" d="M124.23,149.6a108.25,108.25,0,0,0,1.6,14.35c.2,1.14,1.94.83,2-.27l.1-5.12a42.24,42.24,0,0,1,.17-4.64,4.08,4.08,0,0,1,1.59-3.11,1.9,1.9,0,0,1,2.5.16c.82,1,2.23-.43,1.41-1.41a3.62,3.62,0,0,0-4-.91,5,5,0,0,0-3.15,3.36,18,18,0,0,0-.54,5.33l-.12,6.34,2-.26a105.24,105.24,0,0,1-1.52-13.82c-.06-1.29-2.06-1.29-2,0Z"/>
        <path class="cls-4" d="M141.55,149.35c-1.77-1-4.19-1.5-6-.38-1.7,1-2,3.05-1.39,4.81a6.58,6.58,0,0,0,1.22,2.29,18.11,18.11,0,0,0,1.41,1.36,3.23,3.23,0,0,1,1.17,1.61,3.61,3.61,0,0,1,0,2.25,3.09,3.09,0,0,1-4.78,1.18,1,1,0,0,0-1,1.73,5.14,5.14,0,0,0,5.57.26,4.92,4.92,0,0,0,2.33-5,5.66,5.66,0,0,0-.72-2.19,10.39,10.39,0,0,0-1.83-1.92,4.48,4.48,0,0,1-1.66-3.58c.22-2.23,3.47-1.47,4.7-.74a1,1,0,0,0,1-1.72Z"/>
        <path class="cls-4" d="M144.17,159.33a4.27,4.27,0,0,0,4.85-2.66,4.14,4.14,0,0,0-2.53-5.1,4.38,4.38,0,0,0-5.22,2.19,7.46,7.46,0,0,0-.09,6.52,17.29,17.29,0,0,0,4,6c.93.9,2.34-.52,1.41-1.41a15.38,15.38,0,0,1-3.33-4.8c-.78-1.76-1.3-4,0-5.68a2.48,2.48,0,0,1,2-1.11,2.23,2.23,0,0,1,1.86,1.37,2.09,2.09,0,0,1-2.38,2.71c-1.25-.27-1.79,1.66-.53,1.93Z"/>
      </g>
      <g>
        <path class="cls-4" d="M171,146.46c-2.26-1-4.44-.06-6.12,1.58a13.67,13.67,0,0,0-2.19,2.82c-.64,1.08-1.17,2.29-.56,3.5a3.51,3.51,0,0,0,2.55,1.74,14.73,14.73,0,0,0,3.74-.29,3.73,3.73,0,0,1,4,3.45,3.68,3.68,0,0,1-4.2,3.55c-1.25-.24-1.79,1.69-.53,1.93a5.78,5.78,0,0,0,5.7-2.29,5.23,5.23,0,0,0,.1-6,5.94,5.94,0,0,0-2.45-2.13,6.07,6.07,0,0,0-3.5-.34c-1,.15-2.2.53-3.14-.05s-.2-1.61.26-2.34c1-1.58,3.17-4.32,5.38-3.35a1,1,0,0,0,1.36-.36,1,1,0,0,0-.36-1.37Z"/>
        <path class="cls-4" d="M179.48,160.69a45.31,45.31,0,0,1-4.17-12.17c-.25-1.27-2.17-.73-1.93.53a47,47,0,0,0,4.38,12.65c.58,1.14,2.31.13,1.72-1Z"/>
        <path class="cls-4" d="M180.16,149.61c1.24,3.27,2.41,6.58,3.85,9.76.29.63.68,1.46,1.55,1.22,1.12-.31.69-1.55.47-2.31-.74-2.48-1.56-4.93-2.16-7.45-.16-.64-.3-1.28-.41-1.92-.06-.35-.07-.45-.1-.69s-.05-.53-.05-.8a4.43,4.43,0,0,1,0-.63c0,.21,0,.07,0,0a.61.61,0,0,1,0-.11c0-.16-.13.18,0,.05s.15-.14,0,0c.16-.13-.13.06-.15.09-.17.19-.11-.08,0,0a2.63,2.63,0,0,0,.34.18,9.94,9.94,0,0,1,.83.62c2.85,2.32,4,6,4.16,9.48.05,1.29,2.05,1.29,2,0a17.82,17.82,0,0,0-1.41-6.4,12.21,12.21,0,0,0-2.51-3.76c-.95-.95-2.83-2.79-4.31-1.92s-.93,3.13-.72,4.42a53.63,53.63,0,0,0,1.56,6.11l.9,2.89c.09.31.19.62.27.94a1.53,1.53,0,0,0,.07.29c.06.17,0-.19,0-.13s.09-.37.13-.43l.36-.35.23-.1h.53c.18,0,.51.27.52.39,0,0-.06-.1-.07-.14s-.15-.28-.21-.42c-.33-.7-.41-.93-.7-1.65-1-2.57-2-5.16-3-7.76a1,1,0,0,0-1.23-.7,1,1,0,0,0-.7,1.23Z"/>
        <path class="cls-4" d="M192.64,150.4c2.5-.82,5.3-2.83,5.39-5.72.11-3.21-4.34-4.82-6.77-3.26-2.08,1.34-2.38,3.78-2,6a14.75,14.75,0,0,0,3.33,6.72,7.44,7.44,0,0,0,2.92,2.17,3.7,3.7,0,0,0,4.09-1.31c.84-1-.57-2.39-1.42-1.41a2.41,2.41,0,0,1-1.27.93,1.7,1.7,0,0,1-.45,0c.18,0-.29-.08-.37-.11a2.17,2.17,0,0,1-.32-.16,3.21,3.21,0,0,1-.46-.29,5.85,5.85,0,0,1-.9-.79,12.55,12.55,0,0,1-2.83-4.78c-.5-1.51-.81-3.31-.05-4.57a2.3,2.3,0,0,1,.62-.64,2.2,2.2,0,0,1,1.53-.4,2.64,2.64,0,0,1,2.28,1.49,1.54,1.54,0,0,1-.08,1,3.6,3.6,0,0,1-.63,1.15,6.61,6.61,0,0,1-3.18,2.08c-1.22.4-.7,2.33.53,1.93Z"/>
      </g>
      <g>
        <path class="cls-4" d="M64.64,105.85a81.44,81.44,0,0,0,24.85,23.73A98.27,98.27,0,0,0,123,142.45a131.81,131.81,0,0,0,41.2.91,174.37,174.37,0,0,0,38.64-9.5A178,178,0,0,0,220.93,126c2.93-1.47,5.83-3,8.67-4.64,2.47-1.42,5.39-2.8,7.23-5a6.53,6.53,0,0,0,1.57-3.84c.13-1.93-2.88-1.92-3,0-.15,2.39-3.14,3.83-4.92,4.89q-4.11,2.43-8.33,4.64a173.52,173.52,0,0,1-17.4,7.92,174.73,174.73,0,0,1-37.14,9.94,132.82,132.82,0,0,1-39.56.4,98.32,98.32,0,0,1-33.46-11.17,80.19,80.19,0,0,1-25-21.38q-1.25-1.67-2.4-3.39c-1.07-1.6-3.67-.1-2.59,1.51Z"/>
        <path class="cls-4" d="M67.57,114.27a25.2,25.2,0,0,1-1.23-5.3,8.7,8.7,0,0,1-.11-2.38.81.81,0,0,1,.12-.35c0,.06.21-.15.05,0a1,1,0,0,1,.57-.14,7.23,7.23,0,0,1,2,.29l2.9.63,5.9,1.29a1.54,1.54,0,0,0,1.85-1.05,1.51,1.51,0,0,0-1-1.84l-6.75-1.48c-1.9-.41-4.13-1.23-6.08-.66a3.37,3.37,0,0,0-2.23,2,6.73,6.73,0,0,0-.24,3.15,29.19,29.19,0,0,0,1.39,6.68,1.54,1.54,0,0,0,1.85,1.05,1.52,1.52,0,0,0,1-1.85Z"/>
      </g>
      <g>
        <path class="cls-4" d="M231.75,54.8a154.58,154.58,0,0,0-32-16.93,129.2,129.2,0,0,0-35.15-8.23,113.6,113.6,0,0,0-35.92,2.56,103.58,103.58,0,0,0-17.25,5.74,108.38,108.38,0,0,0-15.6,8.48A174.17,174.17,0,0,0,75.21,61.83c-.85.74-1.7,1.5-2.53,2.26-1.43,1.3.69,3.42,2.12,2.12A163.86,163.86,0,0,1,93.93,51.26a124.94,124.94,0,0,1,14.78-8.77,96.76,96.76,0,0,1,16.52-6.3,109.47,109.47,0,0,1,35-3.85,123.8,123.8,0,0,1,34.63,6.92A147.75,147.75,0,0,1,226.58,55c1.23.79,2.45,1.61,3.66,2.44,1.59,1.09,3.09-1.51,1.51-2.59Z"/>
        <path class="cls-4" d="M229.72,44.72l.41,7.38c.06,1.24.14,2.47.2,3.7,0,.14,0,.28,0,.43,0,.39.08.26.36-.39.1,0,.07,0-.12,0,.1,0,.08,0-.06,0-.61.09-1.23.14-1.84.21l-3.68.4c-1.28.14-2.58.21-3.84.43s-2.45,1.88-1.27,3a1.7,1.7,0,0,0,2.93-1.1,1.5,1.5,0,0,0-3,0v.08l.44-1.06,0,0,.67-.39.55,0,.66.39.12.17.21.76v-.09l-.21.75c-.23.46-.69.39,0,.32l.86-.09,1.47-.16,3.07-.34,3.07-.34a2.69,2.69,0,0,0,2.58-1.69,8.91,8.91,0,0,0,0-3l-.17-3.08-.35-6.4a1.54,1.54,0,0,0-1.5-1.5,1.5,1.5,0,0,0-1.5,1.5Z"/>
      </g>
    </g>
  </g>
</svg>
