<svg xmlns="http://www.w3.org/2000/svg" viewBox="0 0 355.74 60.96">
  <defs>
    <style>
      .cls-1 {
        fill: #231f20;
      }

      .cls-2 {
        fill: #00a651;
      }

      .cls-3 {
        fill: #00aeef;
      }

      .cls-4 {
        fill: #662d91;
      }
    </style>
  </defs>
  <title>sin-right-triangle-definition</title>
  <g id="Layer_2" data-name="Layer 2">
    <g id="Layer_1-2" data-name="Layer 1">
      <path class="cls-1" d="M22,3.34C16.19,1.6,10.39,4.86,6.61,9.1a52.33,52.33,0,0,0-5.26,7.27A5.91,5.91,0,0,0,.2,20.84a4.57,4.57,0,0,0,2.32,2.79,11.59,11.59,0,0,0,3.82,1.16c1.64.26,3.29.4,4.93.56,2.83.29,5.76.77,8.15,2.4a7.52,7.52,0,0,1,3.23,6.46,10.1,10.1,0,0,1-3,6.9c-4.83,5-12.24,5.25-18.72,5.46-1.28,0-1.28,2,0,2,6-.19,12.49-.48,17.66-4a13.93,13.93,0,0,0,5.16-6.08,11.07,11.07,0,0,0,.31-7.81,9.86,9.86,0,0,0-5.43-5.63,27.94,27.94,0,0,0-8.83-1.84,29.4,29.4,0,0,1-4.76-.71,4.34,4.34,0,0,1-2.74-1.67c-.69-1.26.25-2.69.93-3.74.78-1.22,1.58-2.44,2.43-3.62a23.06,23.06,0,0,1,6.89-6.81,11.35,11.35,0,0,1,8.88-1.39A1,1,0,0,0,22,3.34Z"/>
      <path class="cls-1" d="M30.11,45.39V26.8a1,1,0,0,0-2,0V45.39a1,1,0,0,0,2,0Z"/>
      <path class="cls-1" d="M35.43,31.31V45.1h2a24.8,24.8,0,0,1,2.89-14.18c.28-.51,1-2,1.81-1.75.35.11.54.62.65.92.24.62.41,1.27.6,1.91a45.85,45.85,0,0,1,1.49,7.71,46.48,46.48,0,0,1,0,9.06,1,1,0,0,0,2,0,47.72,47.72,0,0,0-1.8-18c-.36-1.19-.73-2.64-1.9-3.3a2.84,2.84,0,0,0-3.46.77,11.85,11.85,0,0,0-2,3.4,26.27,26.27,0,0,0-1.43,3.92,26.6,26.6,0,0,0-.86,9.52c.12,1.26,2,1.31,2,0V31.31a1,1,0,0,0-2,0Z"/>
      <path class="cls-1" d="M59.54,7.19a63,63,0,0,0-5.71,19.37,61.83,61.83,0,0,0-.44,10.09,38.86,38.86,0,0,0,1.19,9,12.87,12.87,0,0,0,5.07,7.59c1.08.71,2.08-1,1-1.73-4.52-2.95-5-9.48-5.25-14.34a60.36,60.36,0,0,1,5.86-29C61.83,7,60.1,6,59.54,7.19Z"/>
      <g>
        <path class="cls-2" d="M77.35,25.12V37.93h2A31.72,31.72,0,0,0,76,26.32a28.15,28.15,0,0,0-3.29-5.06c-1.21-1.46-3-2.75-5-2.33-1.76.36-2.86,1.95-3.47,3.52a13.55,13.55,0,0,0-.75,5.47A15.52,15.52,0,0,0,68,38.11a15.68,15.68,0,0,0,11.46,4.43c1.28,0,1.29-2,0-2a13.8,13.8,0,0,1-8.88-2.82,13.38,13.38,0,0,1-4.88-8.11,13.08,13.08,0,0,1,0-4.75c.23-1.28.64-2.86,1.76-3.67,1.34-1,2.75.26,3.62,1.26a23.17,23.17,0,0,1,2.87,4.32,29.23,29.23,0,0,1,3.41,11.16,1,1,0,0,0,2,0V25.12a1,1,0,0,0-2,0Z"/>
        <path class="cls-2" d="M85.15,21.18,86,40.06l2-.26A26.76,26.76,0,0,1,89.6,23.15a9.16,9.16,0,0,1,2.05-3.35c.23-.2.64-.51,1-.38.48.19.73,1.18.9,1.6a33.4,33.4,0,0,1,1.87,18.61c-.23,1.26,1.69,1.79,1.93.53a35.46,35.46,0,0,0-2-20.08c-.57-1.36-1.33-2.85-3.06-2.67-1.51.16-2.64,1.48-3.33,2.73a28,28,0,0,0-3.19,9.17,29.4,29.4,0,0,0,.3,11,1,1,0,0,0,2-.27l-.81-18.88c-.05-1.28-2.06-1.29-2,0Z"/>
        <path class="cls-2" d="M103.16,21.44a25.41,25.41,0,0,0-.43,8,24.69,24.69,0,0,0,.7,3.82A4.35,4.35,0,0,0,105.16,36c1.73,1.06,4,0,5-1.59,1.26-2.14.3-4.82-.85-6.77a16.86,16.86,0,0,0-5.38-5.54l-.5,1.87c2.55.22,4.64,2.08,5.92,4.18a26.18,26.18,0,0,1,2.89,8.12,17,17,0,0,1,0,8.94,11.24,11.24,0,0,1-3.93,5.38A11.5,11.5,0,0,1,100.9,53c-1.28-.05-1.28,1.95,0,2a13.74,13.74,0,0,0,12.93-8.37,17.35,17.35,0,0,0,.57-9.71,29.65,29.65,0,0,0-3.1-9.36A10.35,10.35,0,0,0,103.43,22c-1.05-.09-1.28,1.37-.51,1.86a14.35,14.35,0,0,1,3.89,3.64c1,1.39,2.13,3.21,1.92,5-.12,1-1.33,2.47-2.5,1.83-.66-.37-.82-1.36-1-2a23.23,23.23,0,0,1-.54-3.09,23.59,23.59,0,0,1,.39-7.21c.26-1.26-1.67-1.8-1.93-.53Z"/>
        <path class="cls-2" d="M117.1,16.66q.41,12.86.23,25.74a1,1,0,0,0,1.87.5l1.12-1.51a1,1,0,1,0-1.72-1l-1.13,1.51,1.86.51q.18-12.87-.23-25.74c0-1.29-2-1.29-2,0Z"/>
        <path class="cls-2" d="M125.56,31.21c2.26-1,4.93-2.51,4.75-5.37A3.4,3.4,0,0,0,128.73,23a3.1,3.1,0,0,0-3.42.31c-2.24,1.67-2.8,4.92-2.84,7.54A15.75,15.75,0,0,0,124.58,39a6.13,6.13,0,0,0,3,2.73,2.7,2.7,0,0,0,3.45-1c.71-1.08-1-2.08-1.72-1-.3.46-1,.14-1.39-.08a4.41,4.41,0,0,1-1.66-1.79,13.61,13.61,0,0,1-1.77-6A10.7,10.7,0,0,1,125.55,26c.35-.6,1-1.4,1.71-1.41.61,0,.94.52,1,1.06.36,2.11-2.21,3.14-3.74,3.8a1,1,0,0,0-.36,1.37,1,1,0,0,0,1.37.36Z"/>
      </g>
      <path class="cls-1" d="M130.31,9.91a79.17,79.17,0,0,1,9,26c.48,2.93.95,6.08.06,9-.77,2.53-3,4.86-5.78,4.69-1.29-.08-1.28,1.92,0,2a7.69,7.69,0,0,0,6.76-4c1.67-2.77,1.67-6.19,1.31-9.3a78.69,78.69,0,0,0-4.83-19.21A84.15,84.15,0,0,0,132,8.9c-.63-1.12-2.35-.11-1.73,1Z"/>
      <path class="cls-1" d="M154.77,28a35,35,0,0,0,12.64-2.35,1,1,0,0,0,.7-1.23,1,1,0,0,0-1.23-.7A33.46,33.46,0,0,1,154.77,26a1,1,0,0,0,0,2Z"/>
      <path class="cls-1" d="M156.34,37.24a29.35,29.35,0,0,1,14.19-3.38,1,1,0,0,0,0-2,31.44,31.44,0,0,0-15.2,3.65c-1.14.6-.13,2.33,1,1.73Z"/>
      <g>
        <path class="cls-3" d="M190.53,24.12a6.55,6.55,0,0,1-2.7-7.35c.81-2.8,2.73-7,6.11-7.18,2.56-.11,4.81,2.3,6.07,4.32a7.24,7.24,0,0,1,1.24,4.57,6.34,6.34,0,0,1-2,3.85c-2.16,2.05-5.9,3.3-8.68,1.79-.57-.3-1.07.56-.51.87,2.84,1.53,6.51.65,9-1.19A8.26,8.26,0,0,0,201.92,20a7.2,7.2,0,0,0-.39-5.37,12,12,0,0,0-2.41-3.46,8.09,8.09,0,0,0-3.9-2.47,5.53,5.53,0,0,0-5.11,1.76,14.62,14.62,0,0,0-2.82,4.84,8,8,0,0,0-.42,5.46A7.29,7.29,0,0,0,190,25,.5.5,0,0,0,190.53,24.12Z"/>
        <path class="cls-3" d="M204.27,15.9a151.79,151.79,0,0,0-1.12,24.76c0,.64,1,.65,1,0a151.79,151.79,0,0,1,1.12-24.76c.09-.64-.91-.63-1,0Z"/>
        <path class="cls-3" d="M205,16.49a2.06,2.06,0,0,1,2.38-2,4,4,0,0,1,2.86,2.41c1.05,2.22.47,5.48-2.16,6.19a3.17,3.17,0,0,1-3.35-.91c-.39-.51-1.26,0-.87.5a4.1,4.1,0,0,0,3.89,1.5,4.49,4.49,0,0,0,3.51-2.65,6.15,6.15,0,0,0,0-4.85,5.08,5.08,0,0,0-3.59-3.16c-1.76-.28-3.77,1.05-3.64,3,.05.64,1.05.64,1,0Z"/>
        <path class="cls-3" d="M214.9,13.5a158.85,158.85,0,0,0-1.84,26.59.5.5,0,0,0,1,0,157.67,157.67,0,0,1,1.81-26.32c.1-.63-.87-.9-1-.27Z"/>
        <path class="cls-3" d="M215.15,14.71c0-1.43,1.65-2.22,2.89-1.89a5.17,5.17,0,0,1,3,2.77,7.46,7.46,0,0,1,1,3.28A3.82,3.82,0,0,1,220,22.4a6,6,0,0,1-5.12.12c-.6-.23-.86.73-.26,1a7.11,7.11,0,0,0,5.56-.06,4.83,4.83,0,0,0,2.87-4.1,8,8,0,0,0-1.16-4.28A5.91,5.91,0,0,0,218,11.79c-1.8-.32-3.89,1-3.85,2.92a.5.5,0,0,0,1,0Z"/>
        <path class="cls-3" d="M225.88,19.66c-1.12-3.16,2.17-7.18,5.52-5.65a4.69,4.69,0,0,1,2.69,3.93,3.57,3.57,0,0,1-2.4,3.45,4.08,4.08,0,0,1-4.57-.88c-.42-.48-1.13.23-.7.71,2.56,2.9,8.11,1.35,8.63-2.54a5.56,5.56,0,0,0-2.55-5.2,4.78,4.78,0,0,0-5.64.31,5.67,5.67,0,0,0-2,6.13c.21.61,1.18.35,1-.26Z"/>
        <path class="cls-3" d="M240.32,8.68c-.72,1-1.4,2-2,3.07a17.24,17.24,0,0,0-1.61,3.14c-.69,2,1.3,3,3,3.17.94.07,2.24,0,2.85.86a2.16,2.16,0,0,1-.12,2.22c-1.19,2.05-4,1.55-6,1.18-.63-.11-.9.85-.26,1,1.78.33,3.72.66,5.43-.12A3.84,3.84,0,0,0,243.78,20a2.66,2.66,0,0,0-2.33-2.77c-1.1-.2-4.44.05-3.83-2a15.17,15.17,0,0,1,1.6-3.1c.61-1,1.26-2,2-3,.38-.52-.48-1-.86-.5Z"/>
        <path class="cls-3" d="M246.77,21.2a35.21,35.21,0,0,1-.43-9.45c.06-.64-.94-.64-1,0a35.6,35.6,0,0,0,.47,9.72c.12.63,1.08.36,1-.27Z"/>
        <path class="cls-3" d="M247.49,10.43l7.32-.54c.64,0,.64-1,0-1l-7.32.54c-.64.05-.65,1.05,0,1Z"/>
        <path class="cls-3" d="M251.52,6a59.35,59.35,0,0,0-1.12,15.9c0,.64,1,.64,1,0a58.56,58.56,0,0,1,1.08-15.63c.13-.63-.83-.9-1-.27Z"/>
        <path class="cls-3" d="M253,20.35c2.09.16,4.89-.77,5.35-3.11.38-1.9-1.8-4.65-3.73-3.2a5.54,5.54,0,0,0-1.7,2.83,8.48,8.48,0,0,0-.36,3.61,9.05,9.05,0,0,0,3.07,5.33,15.87,15.87,0,0,0,3.8,2.59c.58.27,1.09-.59.51-.87a12.59,12.59,0,0,1-5.61-4.89,6.9,6.9,0,0,1-.42-5.59,4.14,4.14,0,0,1,1.41-2.29c.84-.51,1.69.59,2,1.29a2.11,2.11,0,0,1-.81,2.37,4.81,4.81,0,0,1-3.47.93c-.64-.05-.64.95,0,1Z"/>
        <path class="cls-3" d="M273.64,10.3A22.13,22.13,0,0,0,270,14.12c-.79,1.05-1.57,2.47-.34,3.53,1,.83,2.35.85,3.49,1.31a3.31,3.31,0,0,1,2.12,3.61c-.35,1.34-2.26,2.35-3.45,1.41-.51-.39-1.22.31-.71.71a3.12,3.12,0,0,0,3.67.07,3.32,3.32,0,0,0,1.46-3.61,4.62,4.62,0,0,0-3-3.22c-.85-.29-3.27-.47-3.25-1.72a3,3,0,0,1,.81-1.5q.51-.69,1.08-1.32a22.57,22.57,0,0,1,2.5-2.39c.5-.4-.21-1.11-.71-.7Z"/>
        <path class="cls-3" d="M279.62,24.89l.86-10.72c.06-.64-.94-.64-1,0l-.86,10.72c-.05.64.95.64,1,0Z"/>
        <path class="cls-3" d="M286.1,8.94a38.86,38.86,0,0,1,.35,10.66l.93-.25a2.83,2.83,0,0,0-3.06-1.2,2.92,2.92,0,0,0-2.26,2.58,3.82,3.82,0,0,0,1.56,3.47,5,5,0,0,0,4.36.58.5.5,0,0,0-.27-1c-2,.58-4.61-.21-4.67-2.61a2,2,0,0,1,1.33-2,1.84,1.84,0,0,1,2.14.68.51.51,0,0,0,.94-.25,39.56,39.56,0,0,0-.39-10.92c-.11-.64-1.07-.37-1,.26Z"/>
        <path class="cls-3" d="M291.36,21.8c1.75-.54,3.8-1.79,4.09-3.77a2.84,2.84,0,0,0-3.77-2.81c-1.55.69-2,3-1.77,4.51a7.15,7.15,0,0,0,2.7,4.4,14.23,14.23,0,0,0,3.29,2.12c.58.27,1.08-.59.5-.86a10.76,10.76,0,0,1-5-4.17,4.71,4.71,0,0,1-.25-3.95c.26-.68.74-1.31,1.53-1.22a2,2,0,0,1,1.76,1.47,2.38,2.38,0,0,1-.72,1.73,5.9,5.9,0,0,1-2.66,1.59c-.61.19-.35,1.15.26,1Z"/>
        <path class="cls-3" d="M310.49,8.23a45.34,45.34,0,0,0-.16,14.38c.09.63,1.05.36,1-.27a44.07,44.07,0,0,1,.16-13.85c.11-.63-.85-.9-1-.26Z"/>
        <path class="cls-3" d="M315.42,19.64c1.29-1.17,3-2.86,2.48-4.8-.37-1.46-2.23-2.84-3.63-1.75s-1.35,3.52-1.15,5.05a10.2,10.2,0,0,0,2,4.86A9.49,9.49,0,0,0,320,26.39a.5.5,0,0,0,.26-1,9,9,0,0,1-6.17-7.93c-.07-1.16.26-5,2.22-3.42s-.35,3.76-1.56,4.86c-.47.44.24,1.15.71.71Z"/>
        <path class="cls-3" d="M320.33,12.31l0,10h1a26.85,26.85,0,0,1,.56-6.32,24.75,24.75,0,0,1,.75-2.81c.19-.58.62-1.86,1.46-1.4s.95,1.49,1.15,2.18a18.32,18.32,0,0,1,.62,2.83,19.11,19.11,0,0,1-.16,6.13c-.12.63.85.9,1,.27a20.46,20.46,0,0,0,.28-5.58,16.87,16.87,0,0,0-1.21-5.25c-.52-1.18-1.83-2.3-3.06-1.26a3.67,3.67,0,0,0-1,1.71,26.17,26.17,0,0,0-.79,2.92,28,28,0,0,0-.59,6.58.5.5,0,0,0,1,0l0-10a.5.5,0,0,0-1,0Z"/>
        <path class="cls-3" d="M327.68,15.13a12.52,12.52,0,0,0,.05,3.35,4,4,0,0,0,.9,2.32c1.3,1.27,2.69-.4,3.1-1.61a5.48,5.48,0,0,0-3.53-6.82.51.51,0,0,0-.49.84,18,18,0,0,1,4.47,10.16,7.52,7.52,0,0,1-1.3,5.26,4.58,4.58,0,0,1-4.32,1.83c-.63-.12-.9.84-.26,1a5.44,5.44,0,0,0,4.92-1.67,7.76,7.76,0,0,0,2-5.53,18.62,18.62,0,0,0-4.79-11.72l-.49.84a4.48,4.48,0,0,1,3,4.86c-.11.74-1.07,3-1.85,1.56a5.54,5.54,0,0,1-.47-2.12,12.38,12.38,0,0,1,.05-2.51c.08-.64-.92-.64-1,0Z"/>
        <path class="cls-3" d="M331.65,8.24a24,24,0,0,1,7.76-1.07.5.5,0,0,0,0-1,25.1,25.1,0,0,0-8,1.1c-.61.19-.35,1.16.27,1Z"/>
        <path class="cls-3" d="M334.39.48q0,11,.88,22c.05.63,1.05.64,1,0q-.9-11-.88-22a.5.5,0,0,0-1,0Z"/>
        <path class="cls-3" d="M340.15,2.17q.28,9.54,1,19.07a.5.5,0,0,0,1,.13c.59-1.79,1.24-3.57,1.95-5.32a18.16,18.16,0,0,1,1.11-2.56c.53-.87,1.21-.36,1.62.31a7.24,7.24,0,0,1,.72,2.37,27.93,27.93,0,0,1,.42,2.89,27.88,27.88,0,0,1-.1,5.63c-.08.64.93.64,1,0a28,28,0,0,0-.06-7c-.23-1.69-.41-4.05-1.84-5.22a1.63,1.63,0,0,0-2-.18,4.71,4.71,0,0,0-1.35,2.31c-.91,2.15-1.72,4.32-2.45,6.53l1,.14q-.7-9.52-1-19.07c0-.64-1-.65-1,0Z"/>
      </g>
      <g>
        <path class="cls-4" d="M194.93,32.66a124.34,124.34,0,0,0,1.21,19.47c.07.55,1,.42,1-.14a18.46,18.46,0,0,1,1.59-9.79c.34-.72.93-2.22,1.93-2.15s1.16,1.31,1.32,2c.28,1.17.52,2.35.72,3.53a57,57,0,0,1,.77,7.37c0,.64,1,.64,1,0a60.11,60.11,0,0,0-.63-6.57q-.27-1.73-.63-3.42a10.45,10.45,0,0,0-.74-2.58,2,2,0,0,0-3.48-.52,8.59,8.59,0,0,0-1.39,2.45,18.62,18.62,0,0,0-1,2.81,19.23,19.23,0,0,0-.5,6.88l1-.13a122.09,122.09,0,0,1-1.17-19.2.5.5,0,0,0-1,0Z"/>
        <path class="cls-4" d="M205.72,39.32a36.63,36.63,0,0,0-.6,5.72c-.05,1.23-.26,3,.6,4,1,1.21,2.86.53,3.94-.2A5.39,5.39,0,0,0,212,45a8.25,8.25,0,0,0-.23-3.28.5.5,0,0,0-1,.27c.74,3.92,1.68,8.41.12,12.26a9.75,9.75,0,0,1-5.2,5c-.63.28-1.29.49-2,.71s-.35,1.17.26,1a15.32,15.32,0,0,0,4.88-2.44c2.8-2.24,3.8-5.58,3.81-9.07a40.15,40.15,0,0,0-1-7.71l-1,.27c.75,2.62-.07,6-3.06,6.66-1.81.43-1.66-1.72-1.64-2.91a36.18,36.18,0,0,1,.6-6.14c.12-.63-.84-.9-1-.27Z"/>
        <path class="cls-4" d="M213.38,42.07v18a.5.5,0,0,0,1,0v-18a.5.5,0,0,0-1,0Z"/>
        <path class="cls-4" d="M214.77,41.81a2,2,0,0,1,2.25-1.6,4.27,4.27,0,0,1,2.83,2.13A6.46,6.46,0,0,1,221,45a2.72,2.72,0,0,1-1.39,2.77,5.25,5.25,0,0,1-4.18.33c-.61-.19-.88.78-.26,1a6.27,6.27,0,0,0,4.68-.29,3.77,3.77,0,0,0,2.18-3.4,6.8,6.8,0,0,0-1.32-3.55,5.27,5.27,0,0,0-3.68-2.6,3,3,0,0,0-3.25,2.6c0,.65,1,.64,1,0Z"/>
        <path class="cls-4" d="M226.34,48.83c-2.51-1.52-3-6.41.23-7.42a4.69,4.69,0,0,1,4.5,1.07,4.14,4.14,0,0,1,.77,4.86,4,4,0,0,1-5.5,1.49.5.5,0,0,0-.5.86,5,5,0,0,0,6.57-7.17,5.65,5.65,0,0,0-5.3-2.24A4.28,4.28,0,0,0,223.38,44a5.72,5.72,0,0,0,2.46,5.72A.5.5,0,0,0,226.34,48.83Z"/>
        <path class="cls-4" d="M232.09,38.92q5.24-1.45,10.35-3.3c.6-.22.34-1.18-.27-1-3.4,1.23-6.86,2.34-10.34,3.31a.5.5,0,0,0,.26,1Z"/>
        <path class="cls-4" d="M237.05,33A131,131,0,0,0,236,50a.5.5,0,0,0,1,0,131,131,0,0,1,1-16.91c.07-.63-.93-.63-1,0Z"/>
        <path class="cls-4" d="M242.9,46.21c1.84-1.26,4.15-2.9,4.17-5.39,0-1.92-1.47-4-3.59-3.51s-3.07,3.32-3.14,5.32a10.14,10.14,0,0,0,1.88,6.12,9.64,9.64,0,0,0,5.89,4c.63.13.89-.83.26-1a9.14,9.14,0,0,1-6.89-7.24,6.94,6.94,0,0,1,.85-5.19,2.07,2.07,0,0,1,2.35-1A2.46,2.46,0,0,1,246,40.2c.46,2.36-2,4-3.63,5.14-.53.36,0,1.23.51.87Z"/>
        <path class="cls-4" d="M250.69,40.38a40.51,40.51,0,0,0,.66,9.89c.11.54,1.06.43,1-.13a25,25,0,0,1,0-6.46,24.17,24.17,0,0,1,.67-3.26,3.23,3.23,0,0,1,1.34-2.07c1-.48,1.34,1,1.57,1.65a20.31,20.31,0,0,1,.79,3,19.46,19.46,0,0,1,.12,6.28c-.09.63.88.9,1,.26a21,21,0,0,0,.05-5.66,17,17,0,0,0-1.51-5.46,1.87,1.87,0,0,0-3.28-.24c-1.15,1.34-1.41,3.37-1.65,5.05a25.6,25.6,0,0,0,0,6.94l1-.14a39.29,39.29,0,0,1-.63-9.62c0-.64-1-.64-1,0Z"/>
        <path class="cls-4" d="M259.39,40.36a20.15,20.15,0,0,0,1.43,5.32,19.41,19.41,0,0,0,1.33,2.61,7.89,7.89,0,0,0,1.6,2,2.53,2.53,0,0,0,2,.68,2.32,2.32,0,0,0,1.61-1.45,12,12,0,0,0,1-5.24,12.82,12.82,0,0,0-1.52-5.84c-.3-.57-1.17-.07-.86.5a11.84,11.84,0,0,1,1.39,5.53,11.69,11.69,0,0,1-.37,3c-.2.76-.47,2.08-1.23,2.48s-1.75-.61-2.18-1.21a17.85,17.85,0,0,1-1.49-2.53,18.62,18.62,0,0,1-1.75-5.83c-.08-.63-1.08-.64-1,0Z"/>
        <path class="cls-4" d="M280.78,45.27c1.15-1.31,3-2.16,3.33-4,.25-1.42-.61-3.12-2.27-2.8s-2.42,2.33-2.46,3.82a8.37,8.37,0,0,0,6,8.06.5.5,0,0,0,.26-1,7.39,7.39,0,0,1-5.11-5.57,4.36,4.36,0,0,1,.67-3.81,1.14,1.14,0,0,1,1.57-.36,1.51,1.51,0,0,1,.38,1.43c-.27,1.59-2.08,2.41-3.06,3.53-.42.49.28,1.2.7.71Z"/>
        <path class="cls-4" d="M293.76,32.94q-.37,7.35-.31,14.72c0,1.16,0,2.35.05,3.5.05.65.32,1.54,1.12,1.57,1.44.05.62-2.5-.37-1.48-.45.46.25,1.17.7.71-1.07,1.11-.51-.23-.54-.1s.09,0,.21-.2l-.06-.16c0-.33-.07-.65-.08-1l0-2.47c0-1.7,0-3.39,0-5.08q.06-5,.31-10c0-.65-1-.65-1,0Z"/>
        <path class="cls-4" d="M298.32,45.79l2.36-2.65a3.9,3.9,0,0,0,1.2-2.24,1.91,1.91,0,0,0-3.14-1.5,4.12,4.12,0,0,0-1.11,2.06,11,11,0,0,0-.49,3.06A7.71,7.71,0,0,0,299,49.68a8,8,0,0,0,5.12,2.64c.64.08.63-.92,0-1A7,7,0,0,1,299.71,49a6.85,6.85,0,0,1-1.53-5.21,9.38,9.38,0,0,1,.67-2.81c.3-.7,1.18-1.55,1.85-.65s-.31,1.66-.79,2.2l-2.29,2.58c-.43.48.28,1.19.7.71Z"/>
        <path class="cls-4" d="M304.56,40.14l0,10.41h1a20.31,20.31,0,0,1,3-11.22h-.87A18.1,18.1,0,0,1,309,49c-.09.63.87.91,1,.27a19.44,19.44,0,0,0-1.35-10.44.51.51,0,0,0-.87,0,21.34,21.34,0,0,0-3.17,11.72.5.5,0,0,0,1,0l0-10.41a.5.5,0,0,0-1,0Z"/>
        <path class="cls-4" d="M311.46,42.19c.35.84-.07,1.66-.1,2.53a2.4,2.4,0,0,0,.47,1.51,2,2,0,0,0,3.15,0c1.64-2,.11-4.7-2.06-5.47a.51.51,0,0,0-.56.74c1.77,2.63,4.11,6,2.49,9.3s-5.91,3.1-9.09,2.85c-.64-.06-.64.95,0,1,3.56.28,8.11.38,10-3.35S315.24,44,313.22,41l-.56.74c1.46.52,2.68,2.33,1.61,3.78-.68.93-1.79.48-1.91-.59a6.82,6.82,0,0,1,.22-1.55,2.83,2.83,0,0,0-.15-1.47c-.24-.59-1.21-.33-1,.27Z"/>
        <path class="cls-4" d="M314.63,39a45.25,45.25,0,0,0,9.76-1.34c.63-.15.36-1.12-.26-1a44.72,44.72,0,0,1-9.5,1.3.5.5,0,0,0,0,1Z"/>
        <path class="cls-4" d="M319.2,33.57V50.46a.5.5,0,0,0,1,0V33.57a.5.5,0,0,0-1,0Z"/>
        <path class="cls-4" d="M325.43,34.7a52.66,52.66,0,0,0,1.64,16.58.51.51,0,0,0,1,0,35.17,35.17,0,0,1,1.6-5c.28-.67,1.5-4.15,2.64-2.67a4.58,4.58,0,0,1,.62,1.92,28.46,28.46,0,0,1,.4,2.9,29.73,29.73,0,0,1-.08,5.42c-.07.64.93.63,1,0a29.44,29.44,0,0,0-.07-6.83c-.19-1.4-.28-3.8-1.72-4.58-1.67-.9-2.72,1.22-3.25,2.41A35.37,35.37,0,0,0,327.07,51h1a51.54,51.54,0,0,1-1.61-16.31c0-.65-1-.65-1,0Z"/>
        <path class="cls-4" d="M278.64,37.94a9,9,0,0,0-5.06,1.71,9.49,9.49,0,0,0-1.95,1.9A4.55,4.55,0,0,0,270.5,44c0,1.66,2.46,2,3.7,2.29s3.56.7,3.25,2.57c-.44,2.68-3.87,2.57-5.89,2.43-.64,0-.64,1,0,1,1.94.13,4.16.22,5.7-1.18a3.12,3.12,0,0,0,.56-4.31c-1-1.14-2.62-1.3-4-1.6-.65-.15-1.8-.33-2.22-.92s.85-2.28,1.33-2.79a8.12,8.12,0,0,1,5.69-2.59c.64,0,.65-1,0-1Z"/>
      </g>
      <path class="cls-1" d="M183,32.29c11.2-1.13,22.43-2,33.69-2.31s22.45.32,33.67,1.07,22.35,1.32,33.56,1.19,22.32-.66,33.49-.9a273.21,273.21,0,0,1,37.41,1.24c1.28.14,1.27-1.86,0-2-22.21-2.55-44.57-.82-66.84-.4-11.21.22-22.36-.13-33.55-.86S232,27.8,220.74,27.91C208.11,28,195.52,29,183,30.29c-1.27.13-1.28,2.13,0,2Z"/>
    </g>
  </g>
</svg>
