<svg xmlns="http://www.w3.org/2000/svg" viewBox="0 0 369.48 55.32">
  <defs>
    <style>
      .cls-1 {
        fill: #231f20;
      }

      .cls-2 {
        fill: #00a651;
      }

      .cls-3 {
        fill: #ed1c24;
      }
    </style>
  </defs>
  <title>sine-unit-circle-definition</title>
  <g id="Layer_2" data-name="Layer 2">
    <g id="Layer_1-2" data-name="Layer 1">
      <path class="cls-1" d="M22,3.7C16.19,2,10.39,5.22,6.61,9.45a52.93,52.93,0,0,0-5.26,7.27A5.94,5.94,0,0,0,.2,21.2,4.59,4.59,0,0,0,2.52,24a11.84,11.84,0,0,0,3.82,1.16c1.64.26,3.29.39,4.93.56,2.83.29,5.76.77,8.15,2.4a7.51,7.51,0,0,1,3.23,6.45,10.08,10.08,0,0,1-3,6.9c-4.83,5-12.24,5.26-18.72,5.47-1.28,0-1.28,2,0,2,6-.2,12.49-.49,17.66-4a13.9,13.9,0,0,0,5.16-6.09,11,11,0,0,0,.31-7.8,9.87,9.87,0,0,0-5.43-5.64,27.66,27.66,0,0,0-8.83-1.83,28.35,28.35,0,0,1-4.76-.72,4.28,4.28,0,0,1-2.74-1.66c-.69-1.26.25-2.69.93-3.74C4,16.23,4.84,15,5.69,13.83A22.94,22.94,0,0,1,12.58,7a11.3,11.3,0,0,1,8.88-1.39A1,1,0,0,0,22,3.7Z"/>
      <path class="cls-1" d="M30.11,45.74V27.16a1,1,0,0,0-2,0V45.74a1,1,0,0,0,2,0Z"/>
      <path class="cls-1" d="M35.43,31.67V45.46h2a24.8,24.8,0,0,1,2.89-14.18c.28-.51,1-2,1.81-1.75.35.11.54.61.65.91.24.63.41,1.28.6,1.92a45.85,45.85,0,0,1,1.49,7.71,46.38,46.38,0,0,1,0,9,1,1,0,0,0,2,0,47.67,47.67,0,0,0-1.8-18c-.36-1.19-.73-2.64-1.9-3.3a2.82,2.82,0,0,0-3.46.77,11.85,11.85,0,0,0-2,3.4,25.87,25.87,0,0,0-1.43,3.92,26.58,26.58,0,0,0-.86,9.52c.12,1.26,2,1.31,2,0V31.67a1,1,0,0,0-2,0Z"/>
      <path class="cls-1" d="M59.54,7.55a63,63,0,0,0-5.71,19.37A61.76,61.76,0,0,0,53.39,37a38.79,38.79,0,0,0,1.19,9,12.86,12.86,0,0,0,5.07,7.6c1.08.7,2.08-1,1-1.73-4.52-2.95-5-9.48-5.25-14.35a60.36,60.36,0,0,1,5.86-29c.56-1.15-1.17-2.17-1.73-1Z"/>
      <g>
        <path class="cls-2" d="M77.35,25.47V38.29h2A31.83,31.83,0,0,0,76,26.67a28.07,28.07,0,0,0-3.29-5.05c-1.21-1.46-3-2.75-5-2.34-1.76.37-2.86,2-3.47,3.53a13.55,13.55,0,0,0-.75,5.47A15.52,15.52,0,0,0,68,38.47a15.67,15.67,0,0,0,11.46,4.42c1.28,0,1.29-2,0-2a13.73,13.73,0,0,1-8.88-2.81A13.41,13.41,0,0,1,65.71,30a13.13,13.13,0,0,1,0-4.76c.23-1.28.64-2.85,1.76-3.66,1.34-.95,2.75.26,3.62,1.25a23.84,23.84,0,0,1,2.87,4.32,29.27,29.27,0,0,1,3.41,11.17,1,1,0,0,0,2,0V25.47a1,1,0,0,0-2,0Z"/>
        <path class="cls-2" d="M85.15,21.53,86,40.42l2-.26A26.79,26.79,0,0,1,89.6,23.5a9.16,9.16,0,0,1,2.05-3.35c.23-.19.64-.51,1-.38.48.19.73,1.19.9,1.61A33.38,33.38,0,0,1,95.38,40c-.23,1.26,1.69,1.8,1.93.54a35.46,35.46,0,0,0-2-20.08c-.57-1.36-1.33-2.86-3.06-2.67-1.51.16-2.64,1.48-3.33,2.72a28,28,0,0,0-3.19,9.17,29.45,29.45,0,0,0,.3,11,1,1,0,0,0,2-.27l-.81-18.89c-.05-1.28-2.06-1.28-2,0Z"/>
        <path class="cls-2" d="M103.16,21.79a25.47,25.47,0,0,0-.43,8,24.69,24.69,0,0,0,.7,3.82,4.33,4.33,0,0,0,1.73,2.75c1.73,1.06,4,.06,5-1.58,1.26-2.14.3-4.82-.85-6.77a16.76,16.76,0,0,0-5.38-5.54l-.5,1.86a8.18,8.18,0,0,1,5.92,4.19,26.18,26.18,0,0,1,2.89,8.12,17,17,0,0,1,0,8.94,11.24,11.24,0,0,1-3.93,5.38,11.56,11.56,0,0,1-7.38,2.37c-1.28-.05-1.28,1.95,0,2a13.73,13.73,0,0,0,12.93-8.38,17.35,17.35,0,0,0,.57-9.71,29.65,29.65,0,0,0-3.1-9.36,10.4,10.4,0,0,0-7.87-5.55c-1.05-.09-1.28,1.37-.51,1.87a14.47,14.47,0,0,1,3.89,3.63c1,1.39,2.13,3.22,1.92,5-.12,1-1.33,2.47-2.5,1.83-.66-.37-.82-1.37-1-2a23.23,23.23,0,0,1-.54-3.09,23.65,23.65,0,0,1,.39-7.22c.26-1.25-1.67-1.79-1.93-.53Z"/>
        <path class="cls-2" d="M117.1,17q.41,12.87.23,25.74a1,1,0,0,0,1.87.51l1.12-1.51a1,1,0,1,0-1.72-1l-1.13,1.51,1.86.5q.18-12.87-.23-25.74c0-1.28-2-1.28-2,0Z"/>
        <path class="cls-2" d="M125.56,31.56c2.26-1,4.93-2.51,4.75-5.36a3.43,3.43,0,0,0-1.58-2.84,3.14,3.14,0,0,0-3.42.31c-2.24,1.68-2.8,4.92-2.84,7.54a15.72,15.72,0,0,0,2.11,8.15,6.11,6.11,0,0,0,3,2.74,2.71,2.71,0,0,0,3.45-1c.71-1.08-1-2.09-1.72-1-.3.46-1,.14-1.39-.08a4.47,4.47,0,0,1-1.66-1.79,13.64,13.64,0,0,1-1.77-6,10.75,10.75,0,0,1,1.06-5.86c.35-.59,1-1.4,1.71-1.4.61,0,.94.51,1,1.06.36,2.11-2.21,3.13-3.74,3.8a1,1,0,0,0-.36,1.36,1,1,0,0,0,1.37.36Z"/>
      </g>
      <path class="cls-1" d="M130.31,10.27a79.17,79.17,0,0,1,9,26c.48,2.93.95,6.08.06,9-.77,2.52-3,4.85-5.78,4.68-1.29-.07-1.28,1.93,0,2a7.65,7.65,0,0,0,6.76-4c1.67-2.76,1.67-6.18,1.31-9.29a78.58,78.58,0,0,0-4.83-19.21A83.45,83.45,0,0,0,132,9.26c-.63-1.13-2.35-.12-1.73,1Z"/>
      <path class="cls-1" d="M154.77,28.3A34.76,34.76,0,0,0,167.41,26a1,1,0,0,0,.7-1.23,1,1,0,0,0-1.23-.7,33.24,33.24,0,0,1-12.11,2.27,1,1,0,0,0,0,2Z"/>
      <path class="cls-1" d="M156.34,37.59a29.35,29.35,0,0,1,14.19-3.37,1,1,0,0,0,0-2,31.44,31.44,0,0,0-15.2,3.65c-1.14.6-.13,2.33,1,1.72Z"/>
      <g>
        <path class="cls-3" d="M185.9,15.25,206.37,10a.5.5,0,0,0-.27-1l-20.46,5.28a.5.5,0,0,0,.26,1Z"/>
        <path class="cls-3" d="M198.4,3.85q-1.47,11.49-2.25,23.07a.51.51,0,0,0,.76.43,1.64,1.64,0,0,0,1-1.48.5.5,0,0,0-1,0,.66.66,0,0,1-.46.62l.75.43q.78-11.57,2.25-23.07c.08-.64-.92-.63-1,0Z"/>
        <path class="cls-3" d="M207.8,3.84l-.66,21.07a.5.5,0,0,0,1,.14,36.16,36.16,0,0,1,1.69-4.18c.21-.43,1.79-3.89,2.28-3.63s.31,1.56.33,1.94c0,.76,0,1.51,0,2.27a24.53,24.53,0,0,1-.74,4.82.5.5,0,0,0,1,.26,25.14,25.14,0,0,0,.81-5.92,18.64,18.64,0,0,0-.13-2.89,1.69,1.69,0,0,0-1-1.47,1.35,1.35,0,0,0-1.55.75,24.62,24.62,0,0,0-1.4,2.45,37.77,37.77,0,0,0-2.24,5.33l1,.13.66-21.07c0-.64-1-.64-1,0Z"/>
        <path class="cls-3" d="M217.36,19.91a10.15,10.15,0,0,0,4.73-6.17,3.84,3.84,0,0,0-.7-3.45,2.82,2.82,0,0,0-2.75-.92c-1.19.34-1.68,1.54-2,2.59a23.92,23.92,0,0,0-1.18,4.62,9.08,9.08,0,0,0,1.75,7.15,5.85,5.85,0,0,0,3.22,2,9.85,9.85,0,0,0,5.05-.69c.6-.2.34-1.17-.27-1-2.18.72-4.55,1.34-6.5-.27a7.07,7.07,0,0,1-2.37-5.28,13.59,13.59,0,0,1,.48-3.75,20.81,20.81,0,0,1,1.06-3.3c.42-1,1.24-1.53,2.25-1a2.51,2.51,0,0,1,1.08,2.74,9,9,0,0,1-4.31,5.79c-.55.33-.05,1.2.5.86Z"/>
        <path class="cls-3" d="M252.64,14.93a16.41,16.41,0,0,0,8.6-.25.5.5,0,0,0-.26-1,15.15,15.15,0,0,1-8.07.25c-.63-.15-.89.82-.27,1Z"/>
        <path class="cls-3" d="M273.56,4.93A16.2,16.2,0,0,0,266,15a7.64,7.64,0,0,0,1,6A7.23,7.23,0,0,0,271.65,24a7.55,7.55,0,0,0,6.26-1.76c.48-.43-.23-1.13-.71-.71a6.3,6.3,0,0,1-9.27-1.05c-2.37-3.35-.67-7.6,1.54-10.57a16,16,0,0,1,4.6-4.12.5.5,0,0,0-.51-.86Z"/>
        <path class="cls-3" d="M279.15,16.37a11.48,11.48,0,0,1,2.15-4.27,3.76,3.76,0,0,1,3.78-1.16,2.72,2.72,0,0,1,1.55,1.63,6.64,6.64,0,0,1,.57,2.62,3.28,3.28,0,0,1-2.75,3c-2,.47-4-.42-5.77-1.19-.59-.26-1.1.61-.51.86,2,.85,4.05,1.75,6.23,1.36a4.45,4.45,0,0,0,3.69-3.13,6,6,0,0,0-.32-3.25,4.63,4.63,0,0,0-1.56-2.4,4.28,4.28,0,0,0-4.71.23c-1.84,1.23-2.63,3.47-3.32,5.47-.2.61.76.87,1,.27Z"/>
        <path class="cls-3" d="M291.81,15.29a3.26,3.26,0,0,1,1.32-3.58,2.9,2.9,0,0,1,3.6,0A4,4,0,0,1,298.1,15,3.21,3.21,0,0,1,296,17.77a3.86,3.86,0,0,1-4.06-.82c-.44-.46-1.15.25-.7.71,2.35,2.45,7.21,1.42,7.84-2.09a5,5,0,0,0-1.36-4.36,3.86,3.86,0,0,0-4.64-.62,4.33,4.33,0,0,0-2.19,5c.21.61,1.18.35,1-.26Z"/>
        <path class="cls-3" d="M300.81,9.89q.42,6.51,1.09,13c.06.64,1.06.65,1,0A20.57,20.57,0,0,1,304,13.72a6.59,6.59,0,0,1,2.29-3.43,2.67,2.67,0,0,1,3.33.14.5.5,0,0,0,.71-.7A3.52,3.52,0,0,0,306.6,9a5.81,5.81,0,0,0-3.05,3.17,20.65,20.65,0,0,0-1.65,10.69h1q-.66-6.48-1.09-13c0-.64-1.05-.64-1,0Z"/>
        <path class="cls-3" d="M317.39,1.61,317,17.38l.5-.5c-1.22,0-2.07-1.35-3-2a2.41,2.41,0,0,0-3.22-.08,3.33,3.33,0,0,0-.59,3.52A4.66,4.66,0,0,0,314.21,21a4.71,4.71,0,0,0,4.6-2c.37-.52-.5-1-.87-.5a3.64,3.64,0,0,1-4.46,1.2c-1.34-.64-2.41-2.21-1.8-3.71a1.25,1.25,0,0,1,1.37-.87,3,3,0,0,1,1.44.9c.89.81,1.75,1.74,3,1.79a.51.51,0,0,0,.5-.5l.36-15.77a.5.5,0,0,0-1,0Z"/>
        <path class="cls-3" d="M323,19.27a62.5,62.5,0,0,1-.2-9.77c0-.65-1-.64-1,0a62.5,62.5,0,0,0,.2,9.77c.06.64,1.06.64,1,0Z"/>
        <path class="cls-3" d="M325.5,14.38l0,6.68h1a27.68,27.68,0,0,1,.08-6.17,26.31,26.31,0,0,1,.57-3c.18-.75.33-1.93,1-2.46,1.39-1.13,1.5,3.59,1.51,4.11a23.19,23.19,0,0,1-.8,6.31.5.5,0,0,0,1,.26,24.74,24.74,0,0,0,.83-5.87,25.35,25.35,0,0,0-.15-3,4.81,4.81,0,0,0-.55-2,1.65,1.65,0,0,0-2.91,0,7.82,7.82,0,0,0-.82,2.32,29,29,0,0,0-.57,2.92,28.36,28.36,0,0,0-.14,6.64.5.5,0,0,0,1,0l0-6.68a.5.5,0,0,0-1,0Z"/>
        <path class="cls-3" d="M338.64,12.26,339.85,17l.91-.38a23.28,23.28,0,0,0-3.3-5.39,7.05,7.05,0,0,0-2.15-2.1,1.87,1.87,0,0,0-2.15.52c-1.35,1.44-1.32,3.88-1,5.69s1.09,4.13,3.07,4.58c2.15.48,3.93-1.54,5-3.09.38-.53-.49-1-.86-.51-.79,1.1-2,2.64-3.51,2.67-1.73,0-2.41-2.13-2.69-3.48-.32-1.5-.43-3.55.47-4.89.41-.61,1-.86,1.59-.33A14.06,14.06,0,0,1,337,12.22a22.49,22.49,0,0,1,2.94,4.92c.23.54,1.05.15.91-.38L339.6,12a.5.5,0,0,0-1,.26Z"/>
        <path class="cls-3" d="M339.26,7.7A53.26,53.26,0,0,1,350.4,5.84c.64,0,.64-1,0-1A54.32,54.32,0,0,0,339,6.74a.5.5,0,0,0,.26,1Z"/>
        <path class="cls-3" d="M345.07.36a113.36,113.36,0,0,0-2.37,20.36.5.5,0,0,0,.93.25l1.24-1.8c.37-.53-.5-1-.86-.5l-1.24,1.79.93.26A112.06,112.06,0,0,1,346,.63c.13-.63-.83-.9-1-.27Z"/>
        <path class="cls-3" d="M351.43,14.09a16.73,16.73,0,0,0,6.06-6.27c.66-1.22,1.36-2.69,1-4.11a2.44,2.44,0,0,0-2.68-1.89,3.8,3.8,0,0,0-2.42,2.51A19.79,19.79,0,0,0,352,8.94c-.45,2.93-.12,6.06,1.82,8.42,1.77,2.15,4.74,3.47,7.47,2.51.6-.21.34-1.17-.27-1a5.76,5.76,0,0,1-5.77-1.49,8.32,8.32,0,0,1-2.44-6.48A16.3,16.3,0,0,1,353.49,7a10.58,10.58,0,0,1,1.38-3.39,1.82,1.82,0,0,1,1.19-.84,1.43,1.43,0,0,1,1.38,1c.46,1.19-.3,2.58-.87,3.59a15.65,15.65,0,0,1-5.65,5.83.5.5,0,0,0,.51.86Z"/>
        <path class="cls-3" d="M185.05,46.24c1.15-2.17,2.46-4.53,4.54-5.94a5.66,5.66,0,0,1,7,.52c1.86,1.6,3.26,4.45,2.31,6.9-1.06,2.75-4.87,2.79-7.32,2.58a16.62,16.62,0,0,1-4.71-1.13,15.86,15.86,0,0,1-2.3-1.14c-.35-.22-.71-.44-1-.68a1.72,1.72,0,0,1-.33-.26.58.58,0,0,1-.14-.24q0-.27-.21,0c.64,0,.64-1,0-1a.79.79,0,0,0-.81,1,2.13,2.13,0,0,0,1.15,1.48A17,17,0,0,0,188,50.62a17.38,17.38,0,0,0,5.26.74,9.19,9.19,0,0,0,4.83-1.13c2.78-1.82,2.48-5.66.89-8.18s-4.77-4.42-7.89-3.56c-3.38.93-5.39,4.36-6.93,7.24-.3.57.56,1.08.87.51Z"/>
        <path class="cls-3" d="M203,38.5,203.38,53h1c-.2-3.75-.36-7.7.94-11.3a11.24,11.24,0,0,1,1.27-2.52c.4-.6,1.42-2.19,2.31-1.73s.89,1.78,1,2.51a21.54,21.54,0,0,1,.38,3.5,23.33,23.33,0,0,1-1,7.65.5.5,0,0,0,1,.26,24.79,24.79,0,0,0,1.06-7.8,25.25,25.25,0,0,0-.4-3.77,5.41,5.41,0,0,0-1.1-2.9c-1.73-1.73-3.69,1.06-4.48,2.4a16.15,16.15,0,0,0-1.88,6.13,43.49,43.49,0,0,0-.07,7.57c0,.64,1,.65,1,0L204,38.5c0-.64-1-.64-1,0Z"/>
        <path class="cls-3" d="M224.44,39.77a40.48,40.48,0,0,0,12.14-1.55.5.5,0,0,0-.26-1,39.45,39.45,0,0,1-11.88,1.52.5.5,0,0,0,0,1Z"/>
        <path class="cls-3" d="M230.92,32.49q-.49,9.9-.62,19.82a.5.5,0,0,0,1,0l0-1.79a.5.5,0,0,0-1,0l0,1.79h1q.12-9.91.62-19.82c0-.64-1-.64-1,0Z"/>
        <path class="cls-3" d="M236.92,31.74q-.54,11-.59,22c0,.55.89.71,1,.14A29.75,29.75,0,0,1,241.38,43l-.92-.12a13.54,13.54,0,0,1,.74,6.76c-.11.73-.63,1.89,0,2.51a.9.9,0,0,0,1.48-.37.5.5,0,0,0-1-.26,13.79,13.79,0,0,0,.51-2.31,14.23,14.23,0,0,0,.06-2.26,14.59,14.59,0,0,0-.89-4.34.51.51,0,0,0-.92-.12,30.33,30.33,0,0,0-4.16,11.09l1,.13q0-11,.59-22c0-.64-1-.64-1,0Z"/>
        <path class="cls-3" d="M246.56,46.93A7.44,7.44,0,0,0,250,41.71a2,2,0,0,0-1.32-2.18,2.42,2.42,0,0,0-2.56,1.17,8.29,8.29,0,0,0-1.07,3.22,11.07,11.07,0,0,0-.05,3.25,7.37,7.37,0,0,0,3.15,5.25,6,6,0,0,0,6.16.43.5.5,0,0,0-.5-.87c-2.88,1.6-6.36-.49-7.42-3.33a9.23,9.23,0,0,1-.25-5.13,6.15,6.15,0,0,1,.92-2.42c.58-.75,1.87-1,1.95.27a4.49,4.49,0,0,1-.87,2.53,6.94,6.94,0,0,1-2.12,2.16c-.53.36,0,1.22.51.87Z"/>
        <path class="cls-3" d="M265.49,39.49c-.05,4.11.17,9.41,4.33,11.62a5.55,5.55,0,0,0,5.12.06c1.89-1,2.39-3.1,2.64-5.07a21.84,21.84,0,0,0-.62-8.32.5.5,0,0,0-1,.27,21.33,21.33,0,0,1,.72,6.31c-.07,1.8-.18,4.23-1.63,5.51a4.36,4.36,0,0,1-4.53.5,6.79,6.79,0,0,1-3.29-3.84,19.19,19.19,0,0,1-.78-7,.5.5,0,0,0-1,0Z"/>
        <path class="cls-3" d="M282.51,37.88l0,12.7a.5.5,0,0,0,1,0,23.81,23.81,0,0,1,.88-6.12,25.51,25.51,0,0,1,1.05-3c.3-.7.68-1.92,1.38-2.33,1.61-.93,1.44,3.62,1.43,4.23a27.24,27.24,0,0,1-.89,6.35.5.5,0,0,0,1,.27,27.84,27.84,0,0,0,.88-9,4.76,4.76,0,0,0-.49-2,1.74,1.74,0,0,0-3.05-.12,10.7,10.7,0,0,0-1.24,2.43,26.61,26.61,0,0,0-1,2.72,25.47,25.47,0,0,0-.95,6.5h1l0-12.7a.5.5,0,0,0-1,0Z"/>
        <path class="cls-3" d="M294.75,50.27a60.61,60.61,0,0,0-.32-10.52c-.08-.63-1.08-.64-1,0a60.61,60.61,0,0,1,.32,10.52c0,.64,1,.64,1,0Z"/>
        <path class="cls-3" d="M295,38.15a63.72,63.72,0,0,0,9.77.19c.64,0,.64-1,0-1a63.72,63.72,0,0,1-9.77-.19c-.64-.07-.64.93,0,1Z"/>
        <path class="cls-3" d="M300.74,30.73a159.43,159.43,0,0,0,0,18.42c0,.64,1,.65,1,0a159.43,159.43,0,0,1,0-18.42c0-.64-1-.64-1,0Z"/>
        <path class="cls-3" d="M327.31,37.07c-7.12.28-10.78,13.72-2.8,15.49a10,10,0,0,0,5.92-.7c.59-.25.33-1.22-.26-1-2.63,1.09-6.53,1.55-8.31-1.22s-.67-6.62,1.09-9a5.78,5.78,0,0,1,4.36-2.59c.64,0,.64-1,0-1Z"/>
        <path class="cls-3" d="M335.72,49.89a35.94,35.94,0,0,1,.26-7.76.52.52,0,0,0-.35-.62.5.5,0,0,0-.62.35,37.17,37.17,0,0,0-.29,8c0,.63,1,.64,1,0Z"/>
        <path class="cls-3" d="M338.14,40.49l1.26,10.16a.5.5,0,0,0,1,0c.16-2.47.2-5,.49-7.42a4.15,4.15,0,0,1,1.16-2.79,1.87,1.87,0,0,1,2.33-.24c.49.42,1.2-.29.71-.7a2.64,2.64,0,0,0-2.87-.33,3.86,3.86,0,0,0-2.06,2.55,19.54,19.54,0,0,0-.46,4.11l-.3,4.82h1l-1.26-10.16c-.08-.63-1.08-.63-1,0Z"/>
        <path class="cls-3" d="M350.32,38.16c-2.34,1.72-4.76,4.12-4.49,7.28a4.72,4.72,0,0,0,1.78,3.44,3.55,3.55,0,0,0,3.31.41,3.09,3.09,0,0,0,2.21-2.78.5.5,0,0,0-1,0,2.3,2.3,0,0,1-2.18,2,2.75,2.75,0,0,1-2.84-1.88c-1.23-3.15,1.38-5.89,3.71-7.61.52-.37,0-1.24-.5-.86Z"/>
        <path class="cls-3" d="M356.42,34.73a107.83,107.83,0,0,0-1.53,14.33.51.51,0,0,0,1,.14l.41-1.81c.14-.63-.83-.9-1-.27l-.41,1.81,1,.13A107.43,107.43,0,0,1,357.38,35c.11-.63-.85-.9-1-.26Z"/>
        <path class="cls-3" d="M359.6,42.77c1.74-1.45,4.53-1.66,5-4.29a2.17,2.17,0,0,0-.85-2.3,2.81,2.81,0,0,0-3.09.37c-4.48,3.24-1.79,10.34,1,13.74a8.12,8.12,0,0,0,7.41,3.08c.63-.11.36-1.07-.27-1-4.53.74-7.6-3.67-8.9-7.4-.72-2-1-4.38.11-6.33a3.57,3.57,0,0,1,2.17-1.77c1-.21,1.57.53,1.38,1.47a3.14,3.14,0,0,1-1.86,2.07,14.86,14.86,0,0,0-2.85,1.62c-.5.42.21,1.12.7.71Z"/>
        <path class="cls-3" d="M238.83,8.05a5.67,5.67,0,0,0,.66,4.55,6.72,6.72,0,0,0,3.41,3.2,4.59,4.59,0,0,0,4.11-.88,7.36,7.36,0,0,0,2.47-4,12,12,0,0,0,.37-2.24c0-.25,0-.51,0-.77,0-.11.05-.39,0-.29l-.23.3h0l-.39,0c-.1,0-.38-.28-.33-.38s0,.09,0,.12a3.34,3.34,0,0,0,0,.45q0,.69,0,1.38c-.05,1.41-.17,2.82-.34,4.22a38,38,0,0,1-.87,4.95,14.59,14.59,0,0,1-1.53,4.1,5,5,0,0,1-5.47,2.48c-.63-.14-.89.83-.26,1,7.14,1.53,8.56-7.55,9.14-12.57a30.13,30.13,0,0,0,.34-6c0-.28-.08-.58-.4-.67-.49-.14-.64.34-.66.71a10.69,10.69,0,0,1-1,4.62c-1,1.88-3.39,3.45-5.43,2.08-1.85-1.23-3.35-3.94-2.63-6.15.2-.61-.76-.87-1-.26Z"/>
      </g>
    </g>
  </g>
</svg>
