<svg xmlns="http://www.w3.org/2000/svg" viewBox="0 0 383.78 169.83">
  <defs>
    <style>
      .cls-1 {
        fill: #808285;
      }

      .cls-2 {
        fill: #231f20;
      }

      .cls-3 {
        fill: #ed1c24;
      }

      .cls-4 {
        fill: #fff;
      }
    </style>
  </defs>
  <title>sine-truncated</title>
  <g id="Layer_2" data-name="Layer 2">
    <g id="Layer_1-2" data-name="Layer 1">
      <g>
        <path class="cls-1" d="M1.65,101.81c49.53,1.13,99.08,1.34,148.62,1.26,49.31-.08,98.62-.35,147.93-.55l83.47-.34a1,1,0,0,0,0-2l-148.73.6c-49.3.2-98.59.47-147.89.18q-41.7-.25-83.4-1.15a1,1,0,0,0,0,2Z" transform="translate(-0.01 -0.02)"/>
        <path class="cls-1" d="M369.27,91.83a59.78,59.78,0,0,1,11.37,8.29,4.78,4.78,0,0,1,1.05,1.15c.22.43-.06.72-.35,1a31.3,31.3,0,0,1-2.46,2.29,59.06,59.06,0,0,1-5.75,4.44c-1.05.73-.05,2.46,1,1.73,1.74-1.19,3.42-2.45,5-3.8.81-.68,1.6-1.38,2.38-2.09a8,8,0,0,0,2-2.29c.91-2-1.16-3.58-2.49-4.77a61.38,61.38,0,0,0-4.8-3.86,62.84,62.84,0,0,0-6-3.85,1,1,0,0,0-1,1.73Z" transform="translate(-0.01 -0.02)"/>
        <path class="cls-1" d="M12.54,90.86A49.78,49.78,0,0,0,2.13,98.45a6.83,6.83,0,0,0-2,2.47A2.93,2.93,0,0,0,1,103.83,31.27,31.27,0,0,0,5.77,108,39,39,0,0,0,12,111.74c1.15.57,2.17-1.16,1-1.72a38,38,0,0,1-9.38-6.41c-.33-.32-.66-.64-1-1s-.61-.57-.65-.9.34-.67.56-.9.7-.7,1.06-1A44.81,44.81,0,0,1,8,96.13a48.85,48.85,0,0,1,5.56-3.54c1.13-.62.12-2.35-1-1.73Z" transform="translate(-0.01 -0.02)"/>
      </g>
      <g>
        <path class="cls-1" d="M185.28,36.53q-1.92,25.56-3,51.17t-1.44,51.24q-.18,14.38-.11,28.78a1,1,0,0,0,2,0q-.12-25.64.55-51.27t2.14-51.22q.83-14.36,1.9-28.7c.1-1.29-1.9-1.28-2,0Z" transform="translate(-0.01 -0.02)"/>
        <path class="cls-1" d="M179.94,47.37l3.4-5.46,1.7-2.73c.27-.42.52-.84.79-1.26.13-.2.36-.65.6-.73.49-.17,1.24,1,1.51,1.32l2.12,2.39,4.24,4.76c.85,1,2.26-.45,1.41-1.41L191,38.93c-.8-.9-1.58-1.82-2.41-2.7a2.62,2.62,0,0,0-2.56-1,3.77,3.77,0,0,0-2.05,1.9l-1.9,3.05-3.86,6.19c-.68,1.09,1,2.1,1.73,1Z" transform="translate(-0.01 -0.02)"/>
        <path class="cls-1" d="M172.58,157.81a33.72,33.72,0,0,0,5.77,9.17c.59.67,1.2,1.31,1.84,1.93a2.5,2.5,0,0,0,2.39.87c1.61-.41,2.29-2.31,3.24-3.49a7.71,7.71,0,0,1,4.3-3c1.25-.27.72-2.2-.53-1.93a9.15,9.15,0,0,0-4.82,3.05,19.35,19.35,0,0,0-1.74,2.38c-.19.3-.48.86-.84,1s-.53-.25-.74-.46a32.33,32.33,0,0,1-7.15-10.54,1,1,0,0,0-1.36-.36,1,1,0,0,0-.36,1.37Z" transform="translate(-0.01 -0.02)"/>
      </g>
      <path class="cls-2" d="M233.15,96.48q-.6,5.33-.74,10.7c0,.64,1,.64,1,0q.14-5.37.74-10.7c.08-.64-.92-.63-1,0Z" transform="translate(-0.01 -0.02)"/>
      <g>
        <path class="cls-2" d="M227,112.25l-.66,6.75a.5.5,0,0,0,.5.5.51.51,0,0,0,.5-.5l.66-6.75a.51.51,0,0,0-.5-.5.52.52,0,0,0-.5.5Z" transform="translate(-0.01 -0.02)"/>
        <path class="cls-2" d="M229.86,110l1,7.34a.51.51,0,0,0,.5.5c.24,0,.54-.23.5-.5l-1-7.34a.5.5,0,0,0-1,0Z" transform="translate(-0.01 -0.02)"/>
        <path class="cls-2" d="M223.77,113a13.91,13.91,0,0,1,9.28-2.87c.64,0,.64-1,0-1a14.72,14.72,0,0,0-9.78,3c-.51.38,0,1.25.5.86Z" transform="translate(-0.01 -0.02)"/>
        <path class="cls-2" d="M234.65,114l-6,11.5c-.3.57.57,1.08.86.5l6-11.5c.3-.57-.57-1.07-.86-.5Z" transform="translate(-0.01 -0.02)"/>
        <path class="cls-2" d="M235.16,120.93a1.44,1.44,0,0,1,1.67-.31,1.84,1.84,0,0,1,1.1,1.78c0,2-1.81,3.26-3.32,4.22-.32.21-.33.85.12.92l4.7.69,1.14.17c.32,0,.73.19,1,0a.77.77,0,0,0-.25-1.36.5.5,0,0,0-.27,1c-.2-.11-.21-.25,0-.42l.39,0-6.41-1,.12.92A10.81,10.81,0,0,0,238,125.1a4.27,4.27,0,0,0,.87-3.39,2.71,2.71,0,0,0-2-2.13,2.36,2.36,0,0,0-2.55.84c-.39.52.48,1,.86.51Z" transform="translate(-0.01 -0.02)"/>
      </g>
      <path class="cls-2" d="M275.67,97.05,275,105.2c-.05.64.95.64,1,0l.69-8.15c.05-.65-.95-.64-1,0Z" transform="translate(-0.01 -0.02)"/>
      <path class="cls-2" d="M144.2,99.46l-.06,4.75c0,1.05-.35,2.86.81,3.46.57.29,1.07-.57.5-.87-.4-.21-.34-.83-.33-1.22,0-.66,0-1.32,0-2l.06-4.13a.5.5,0,0,0-1,0Z" transform="translate(-0.01 -0.02)"/>
      <g>
        <path class="cls-2" d="M137,116.8a10.2,10.2,0,0,0,4.11-.34.5.5,0,0,0-.27-1,9.58,9.58,0,0,1-3.84.3c-.27,0-.5.25-.5.5a.52.52,0,0,0,.5.5Z" transform="translate(-0.01 -0.02)"/>
        <path class="cls-2" d="M142.56,112.23a30.14,30.14,0,0,1,.16,5.93c-.05.64.95.64,1,0a30.14,30.14,0,0,0-.16-5.93.51.51,0,0,0-.5-.5.51.51,0,0,0-.5.5Z" transform="translate(-0.01 -0.02)"/>
        <path class="cls-2" d="M145.17,112.24a19.22,19.22,0,0,1,.53,5.07c0,.65,1,.64,1,0a20.46,20.46,0,0,0-.56-5.34c-.15-.62-1.12-.36-1,.27Z" transform="translate(-0.01 -0.02)"/>
        <path class="cls-2" d="M140.83,113.53l6.48-2a.5.5,0,0,0-.27-1l-6.47,2a.5.5,0,0,0,.26,1Z" transform="translate(-0.01 -0.02)"/>
        <path class="cls-2" d="M149.35,113.06a86.52,86.52,0,0,1-5,10.17.5.5,0,0,0,.87.5,87.33,87.33,0,0,0,5.12-10.41c.25-.59-.72-.85-1-.26Z" transform="translate(-0.01 -0.02)"/>
        <path class="cls-2" d="M149.3,120.4c0-.68.94-1,1.44-.65a1.75,1.75,0,0,1,.09,2.38,3.78,3.78,0,0,1-1.25,1c-.43.24-1.1.38-1.37.82a.89.89,0,0,0,.45,1.28,3.77,3.77,0,0,0,1.57.18c1,0,2.31-.16,3.07.69.43.48,1.13-.23.7-.71a3.88,3.88,0,0,0-3.11-1h-.84a3.44,3.44,0,0,1-.85,0,.36.36,0,0,0-.11,0c-.27,0,0-.07,0,0v.19l.19-.1c.29-.13.57-.25.85-.41a3.79,3.79,0,0,0,2.14-2.79,2.26,2.26,0,0,0-1.53-2.57,1.9,1.9,0,0,0-2.39,1.74c0,.64,1,.64,1,0Z" transform="translate(-0.01 -0.02)"/>
      </g>
      <path class="cls-2" d="M104.76,99.86a46.06,46.06,0,0,0,.2,7.61c.07.63,1.07.64,1,0a46.06,46.06,0,0,1-.2-7.61c0-.64-1-.64-1,0Z" transform="translate(-0.01 -0.02)"/>
      <g>
        <path class="cls-2" d="M96.79,116.39l3.37-.35a.51.51,0,0,0,.5-.5.5.5,0,0,0-.5-.5l-3.37.35a.51.51,0,0,0-.5.5.5.5,0,0,0,.5.5Z" transform="translate(-0.01 -0.02)"/>
        <path class="cls-2" d="M103.12,113.62a33.17,33.17,0,0,1,.5,4.67c0,.64,1,.64,1,0a33.8,33.8,0,0,0-.54-4.93.5.5,0,1,0-1,.26Z" transform="translate(-0.01 -0.02)"/>
        <path class="cls-2" d="M106.52,112.2a10.42,10.42,0,0,1,1,5.68.5.5,0,0,0,.5.5.51.51,0,0,0,.5-.5,11.29,11.29,0,0,0-1.16-6.18c-.28-.58-1.15-.07-.86.5Z" transform="translate(-0.01 -0.02)"/>
        <path class="cls-2" d="M101.5,114.28a23.31,23.31,0,0,1,9.1-2.79c.63,0,.64-1,0-1a24.65,24.65,0,0,0-9.61,2.93c-.56.31-.06,1.17.51.86Z" transform="translate(-0.01 -0.02)"/>
      </g>
      <path class="cls-2" d="M69.87,97.61a34,34,0,0,0,.45,9.44c.11.63,1.08.36,1-.27a33.17,33.17,0,0,1-.41-9.17c.06-.64-.94-.64-1,0Z" transform="translate(-0.01 -0.02)"/>
      <g>
        <path class="cls-2" d="M61.88,120.61a10.5,10.5,0,0,0,3.79-.25.51.51,0,0,0,.35-.62.51.51,0,0,0-.61-.35,9.77,9.77,0,0,1-3.53.22.5.5,0,0,0-.5.5.51.51,0,0,0,.5.5Z" transform="translate(-0.01 -0.02)"/>
        <path class="cls-2" d="M67.39,113.82a.92.92,0,0,1,1.09-.13,1.23,1.23,0,0,1,.62,1.21c0,1.19-1.11,1.93-2.06,2.43-.49.27-.16,1.1.38.92a2.19,2.19,0,1,1,.37,4.18c-.64-.08-.63.92,0,1a3.18,3.18,0,1,0-.63-6.15l.38.92c1.46-.78,2.92-2.17,2.49-4a2,2,0,0,0-3.34-1.1.5.5,0,0,0,.7.71Z" transform="translate(-0.01 -0.02)"/>
        <path class="cls-2" d="M72.61,115.9l.33,5.93c0,.64,1,.64,1,0l-.33-5.93c0-.64-1-.64-1,0Z" transform="translate(-0.01 -0.02)"/>
        <path class="cls-2" d="M75.09,114.06l1.19,6.47c.12.63,1.08.36,1-.27l-1.19-6.46c-.11-.63-1.08-.37-1,.26Z" transform="translate(-0.01 -0.02)"/>
        <path class="cls-2" d="M70.58,117.72c2.81-.6,4.54-3.39,7.37-3.88.63-.1.37-1.07-.27-1-2.85.49-4.57,3.28-7.36,3.87-.63.14-.37,1.1.26,1Z" transform="translate(-0.01 -0.02)"/>
        <path class="cls-2" d="M68.09,127.67a81,81,0,0,1,11.19-6.58c.58-.28.08-1.15-.5-.87a81.47,81.47,0,0,0-11.19,6.59c-.53.37,0,1.23.5.86Z" transform="translate(-0.01 -0.02)"/>
        <path class="cls-2" d="M71.57,127.32a4.36,4.36,0,0,1,3,.14,2.17,2.17,0,0,1,1.22,2.06c-.11,1-1.35,1.51-2.13,2-1.08.61-2.18,1.19-3.29,1.73a.5.5,0,0,0,.25.93,24.28,24.28,0,0,1,8.27.78.5.5,0,0,0,.27-1,25.12,25.12,0,0,0-8.54-.82l.25.93c1.41-.68,2.79-1.41,4.13-2.21a2.92,2.92,0,0,0,1.79-2.67,3.24,3.24,0,0,0-1.71-2.59,5.41,5.41,0,0,0-3.82-.25c-.62.15-.36,1.12.27,1Z" transform="translate(-0.01 -0.02)"/>
      </g>
      <path class="cls-2" d="M316.91,96.88a35.22,35.22,0,0,0-.39,9.45c.06.63,1.06.64,1,0a34.44,34.44,0,0,1,.35-9.18c.11-.63-.85-.9-1-.27Z" transform="translate(-0.01 -0.02)"/>
      <g>
        <path class="cls-2" d="M309.94,110.46a4.23,4.23,0,0,1,2-.62,1.16,1.16,0,0,1,1.17.8,1.34,1.34,0,0,1-.81,1.31,4.66,4.66,0,0,1-2.13.33.5.5,0,0,0-.14,1c1,.33,2.12.82,2.39,1.92a1.06,1.06,0,0,1-.29,1.11.79.79,0,0,1-.95.12c-.55-.34-1.05.52-.51.86a1.92,1.92,0,0,0,2.8-1.78c0-1.77-1.7-2.69-3.17-3.2l-.13,1a5,5,0,0,0,2.91-.64,2.25,2.25,0,0,0,1-2.25,2.09,2.09,0,0,0-1.76-1.51,4.7,4.7,0,0,0-2.86.72c-.58.28-.07,1.15.5.86Z" transform="translate(-0.01 -0.02)"/>
        <path class="cls-2" d="M315.62,110.84v5.35a.5.5,0,0,0,1,0v-5.35a.5.5,0,0,0-1,0Z" transform="translate(-0.01 -0.02)"/>
        <path class="cls-2" d="M317.34,109.84a17.74,17.74,0,0,1,1.13,4.66.51.51,0,0,0,.5.5.5.5,0,0,0,.5-.5,18.11,18.11,0,0,0-1.17-4.92.5.5,0,1,0-1,.26Z" transform="translate(-0.01 -0.02)"/>
        <path class="cls-2" d="M315.18,111.31a10.68,10.68,0,0,1,5.27-2.66.5.5,0,0,0,.35-.61.5.5,0,0,0-.61-.35,11.42,11.42,0,0,0-5.71,2.92c-.48.44.23,1.14.7.7Z" transform="translate(-0.01 -0.02)"/>
        <path class="cls-2" d="M308.82,119.89c3.74,1,6.9-2.09,10.54-2.16a.5.5,0,0,0,0-1,15.36,15.36,0,0,0-5.17,1.41c-1.62.64-3.36,1.27-5.11.78a.5.5,0,0,0-.26,1Z" transform="translate(-0.01 -0.02)"/>
        <path class="cls-2" d="M314.65,121.74a.7.7,0,0,1,.88.06,1,1,0,0,1,.24,1.16c-.44,1.18-1.89,1.42-3,1.63-.53.1-.42.81,0,1l5.81,2.15a.5.5,0,1,0,.26-1l-5.81-2.15v1a6.45,6.45,0,0,0,2.53-.86,2.88,2.88,0,0,0,1.26-2,1.86,1.86,0,0,0-.94-1.83,1.65,1.65,0,0,0-2,.17c-.47.44.24,1.15.71.71Z" transform="translate(-0.01 -0.02)"/>
      </g>
      <g>
        <path class="cls-2" d="M272.24,113.37a1.76,1.76,0,0,0-.79,1.48c-.11.87-.2,1.74-.31,2.6l-.62,5.2c-.08.64.92.64,1,0l.54-4.5.27-2.26c0-.34.07-.69.12-1s.07-.5.29-.61c.58-.29.07-1.16-.5-.87Z" transform="translate(-0.01 -0.02)"/>
        <path class="cls-2" d="M275.37,113.94a43.54,43.54,0,0,1-.61,8.3c-.11.63.85.9,1,.27a44,44,0,0,0,.65-8.57.5.5,0,0,0-1,0Z" transform="translate(-0.01 -0.02)"/>
        <path class="cls-2" d="M269.94,113.71l9.58.47c.64,0,.64-1,0-1l-9.58-.47c-.64,0-.64,1,0,1Z" transform="translate(-0.01 -0.02)"/>
      </g>
      <g>
        <path class="cls-2" d="M172.36.5c-3.51-1.5-6.83.77-8.72,3.66a20.81,20.81,0,0,0-1.24,2.21,5.42,5.42,0,0,0-.81,2.87c.15,1.73,1.56,2.83,3,3.53,3.08,1.47,6.92,1.79,9.29,4.47a4,4,0,0,1,1,3.62,5,5,0,0,1-2.47,2.78,15.83,15.83,0,0,1-5,1.64,34.82,34.82,0,0,1-6.6.64,1,1,0,0,0,0,2,38.35,38.35,0,0,0,6-.5,22.56,22.56,0,0,0,4.79-1.2c2.65-1,5.3-3,5.39-6.1s-2.7-5.69-5.42-6.86c-1.71-.73-3.51-1.19-5.23-1.88-1.26-.51-3.21-1.3-2.72-3A12.55,12.55,0,0,1,165,5.71a10.46,10.46,0,0,1,1.61-2.13c1.17-1.15,3.07-2,4.71-1.35a1,1,0,0,0,1.37-.36A1,1,0,0,0,172.36.5Z" transform="translate(-0.01 -0.02)"/>
        <path class="cls-2" d="M182.32,25.14a78.07,78.07,0,0,1-.74-13.23c0-1.29-2-1.29-2,0a82.4,82.4,0,0,0,.81,13.77,1,1,0,0,0,1.93-.54Z" transform="translate(-0.01 -0.02)"/>
        <path class="cls-2" d="M184.66,13.42l.45,10.35a1,1,0,0,0,2,0A23.1,23.1,0,0,1,190,12.83c.2-.36.44-.68.66-1s.09,0,0-.08a2,2,0,0,1,.16.24,11.74,11.74,0,0,1,.77,2.55,26.89,26.89,0,0,1,.74,5.93,27.25,27.25,0,0,1-.75,6.61c-.3,1.25,1.63,1.79,1.93.53a29.12,29.12,0,0,0-.13-14.16,7.54,7.54,0,0,0-1.17-2.94,1.92,1.92,0,0,0-2.67-.34,7,7,0,0,0-1.79,2.65A26.25,26.25,0,0,0,186.4,16a25.31,25.31,0,0,0-1.29,7.77h2l-.45-10.35c-.06-1.28-2.06-1.29-2,0Z" transform="translate(-0.01 -0.02)"/>
        <path class="cls-2" d="M202.48,2.31c-2.66,8-5.47,17-2.34,25.37a6.71,6.71,0,0,0,1.57,2.71,2.4,2.4,0,0,0,2.88.49,1,1,0,0,0-1-1.73c-.54.3-1.22-1.28-1.35-1.59a19.91,19.91,0,0,1-1-3.38,25,25,0,0,1-.35-6.91c.38-5,2-9.74,3.54-14.43.4-1.23-1.53-1.75-1.93-.53Z" transform="translate(-0.01 -0.02)"/>
        <path class="cls-2" d="M211.85,3.52A29.06,29.06,0,0,0,209.22,14c-.17,3.12.51,6.61,3.34,8.39a5.61,5.61,0,0,0,4,.83A5.14,5.14,0,0,0,220,20.39a12.42,12.42,0,0,0,.7-9.53c-1.05-3.2-3.76-6.69-7.54-6-1.26.23-.73,2.15.53,1.93,2.41-.44,4.24,2.3,4.94,4.22a10.87,10.87,0,0,1,0,7.74,3.9,3.9,0,0,1-2.17,2.41,3.52,3.52,0,0,1-2.88-.54c-2.17-1.37-2.47-4.23-2.36-6.56a26.41,26.41,0,0,1,2.36-9.53,1,1,0,0,0-.36-1.37,1,1,0,0,0-1.36.36Z" transform="translate(-0.01 -0.02)"/>
        <path class="cls-2" d="M211.7,15.1a4.81,4.81,0,0,0,2.41-.15c.69-.21,1.43-.58,2-.83a8,8,0,0,1,.83-.27l.42-.09c-.1,0,0,0,.06,0l.21,0a1.64,1.64,0,0,1,.71.08.92.92,0,0,1,.45.28,1,1,0,0,0,1.41-1.41,4,4,0,0,0-4-.71,20.57,20.57,0,0,0-2,.79,3.67,3.67,0,0,1-2,.4,1,1,0,1,0-.53,1.93Z" transform="translate(-0.01 -0.02)"/>
        <path class="cls-2" d="M221.09,2.91A29.91,29.91,0,0,1,225,13.25a25.76,25.76,0,0,1-.1,10.53A6.65,6.65,0,0,1,222.36,28c-1.08.69-.08,2.42,1,1.72,3.17-2,3.86-6,4.06-9.52a31.4,31.4,0,0,0-1.67-12,32.12,32.12,0,0,0-2.94-6.25c-.67-1.09-2.41-.09-1.73,1Z" transform="translate(-0.01 -0.02)"/>
      </g>
      <path class="cls-2" d="M35.69,97.14l.43,9.38c0,.64,1,.65,1,0l-.43-9.38c0-.64-1-.64-1,0Z" transform="translate(-0.01 -0.02)"/>
      <path class="cls-2" d="M23,115.19l6.16-.56a.5.5,0,0,0,0-1l-6.16.56a.52.52,0,0,0-.5.5.5.5,0,0,0,.5.5Z" transform="translate(-0.01 -0.02)"/>
      <path class="cls-2" d="M29,109.71c1-.56,2.26.19,3,1a5.13,5.13,0,0,1,1.34,3.41c0,2.57-2.74,3.76-4.75,4.65-.47.21-.22,1,.25.94l8.25-.27c.64,0,.64-1,0-1l-8.25.27.25.93c2.61-1.16,5.6-2.82,5.21-6.14a6.14,6.14,0,0,0-2-3.85,3.41,3.41,0,0,0-3.82-.76c-.57.3-.07,1.17.5.86Z" transform="translate(-0.01 -0.02)"/>
      <path class="cls-2" d="M38.37,111.2V118a.5.5,0,0,0,1,0V111.2a.5.5,0,0,0-1,0Z" transform="translate(-0.01 -0.02)"/>
      <path class="cls-2" d="M41.11,110.09a26.91,26.91,0,0,1,.68,7.64c0,.64,1,.64,1,0a28,28,0,0,0-.71-7.9c-.15-.63-1.11-.36-1,.26Z" transform="translate(-0.01 -0.02)"/>
      <path class="cls-2" d="M36.05,112.57a11,11,0,0,1,4.59-1.66l5.63-1c.63-.12.37-1.08-.26-1L40.21,110a11.3,11.3,0,0,0-4.67,1.73c-.51.38,0,1.25.51.86Z" transform="translate(-0.01 -0.02)"/>
      <path class="cls-2" d="M355.87,97.51l-.39,9c0,.64,1,.64,1,0l.39-9a.5.5,0,0,0-1,0Z" transform="translate(-0.01 -0.02)"/>
      <g>
        <path class="cls-2" d="M347.17,112c1.63,0,3.77-.07,4.65,1.59a1.75,1.75,0,0,1-1.06,2.51c-1.88.83-4.48.66-5.66,2.66a.5.5,0,0,0,.3.73l9.8,1.66c.63.11.9-.86.27-1l-9.81-1.66.3.73a3.42,3.42,0,0,1,2.15-1.36c.94-.28,1.91-.43,2.82-.79a3.23,3.23,0,0,0,1.91-1.64,3,3,0,0,0-.9-3.32c-1.31-1.16-3.12-1.18-4.77-1.15a.5.5,0,0,0,0,1Z" transform="translate(-0.01 -0.02)"/>
        <path class="cls-2" d="M356.77,112.9l-.83,6.38c0,.26.25.5.5.5a.52.52,0,0,0,.5-.5l.83-6.38c0-.26-.25-.5-.5-.5a.52.52,0,0,0-.5.5Z" transform="translate(-0.01 -0.02)"/>
        <path class="cls-2" d="M358.36,111.13A14.79,14.79,0,0,1,359,118a.5.5,0,1,0,1,.26,15.91,15.91,0,0,0-.61-7.41c-.21-.61-1.17-.35-1,.26Z" transform="translate(-0.01 -0.02)"/>
        <path class="cls-2" d="M355.2,113.23a9.85,9.85,0,0,1,7.51-1.14.5.5,0,0,0,.27-1,10.9,10.9,0,0,0-8.29,1.23c-.54.34,0,1.2.51.87Z" transform="translate(-0.01 -0.02)"/>
      </g>
      <g>
        <path class="cls-3" d="M232.07,51.08a65.66,65.66,0,0,0-51,50.07,1.53,1.53,0,0,0,1,1.84,1.5,1.5,0,0,0,1.84-1,62.59,62.59,0,0,1,10.16-23,61.42,61.42,0,0,1,13.26-13.62,62.9,62.9,0,0,1,7.42-4.78c1.17-.65,2.35-1.25,3.56-1.82s2.1-1,3.09-1.36A64.51,64.51,0,0,1,232.87,54a1.51,1.51,0,0,0,1-1.84,1.53,1.53,0,0,0-1.85-1.05Z" transform="translate(-0.01 -0.02)"/>
        <g>
          <path class="cls-4" d="M232,55.78a3.34,3.34,0,0,1-3.43-1.4,3.08,3.08,0,0,1,.63-3.82c1.69-1.54,5-.89,5.87,1.16s-1,4.65-3.39,4.63" transform="translate(-0.01 -0.02)"/>
          <path class="cls-3" d="M231.57,54.34c-.34.06.36,0,0,0H231c-.27,0,.11,0,.12,0a2.59,2.59,0,0,0-.55-.14c-.31-.09.3.16,0,0l-.25-.13-.23-.15c-.27-.17.24.23,0,0a2,2,0,0,0-.31-.33l.12.16-.1-.15c-.05-.08-.09-.16-.13-.24-.15-.27.08.26,0,.06s-.07-.2-.09-.3l0-.09c0-.16,0-.12,0,.13a1.27,1.27,0,0,0,0-.27,1.09,1.09,0,0,1,0-.18v-.09c0-.16,0-.12,0,.13a2.09,2.09,0,0,0,.14-.52c.05-.18.08,0,0,.1.07,0,.12-.25.17-.33s.16-.2.15-.23-.22.26,0,.05.24-.21.34-.33c-.24.27-.19.14-.06,0a.57.57,0,0,0,.13-.08l.2-.1c.35-.18-.26.08,0,0l.36-.12.23,0c.14,0,.33,0-.1,0,.31,0,.63,0,.93,0-.39,0-.26,0-.12,0l.19,0a3.74,3.74,0,0,1,.45.12l.14,0c.28.09-.33-.16-.07,0a4.31,4.31,0,0,1,.47.26l.12.08c.25.15-.28-.24-.06,0s.22.19.32.3a.52.52,0,0,0,.1.11c-.28-.23-.16-.2-.06-.07s.13.27.21.39c-.2-.3-.08-.23,0-.06l.06.23c0,.16,0,.3,0-.09,0,0,0,.11,0,.16s0,.31,0,.47c0-.41,0-.25,0-.09a1.89,1.89,0,0,1-.05.23l-.08.23c-.08.24.17-.35,0,0a3.5,3.5,0,0,1-.24.42c-.08.12-.24.22,0,0-.07.07-.13.15-.19.22a4.59,4.59,0,0,0-.39.37c.19-.25.19-.14,0,0l-.21.14-.22.12c-.36.18.23-.07,0,0l-.48.14h-.09l.15,0c-.1,0-.24,0-.34,0a1.5,1.5,0,0,0,0,3,5.22,5.22,0,0,0,4.63-3,4.77,4.77,0,0,0,.35-3.09,4.2,4.2,0,0,0-1.43-2.23A5.75,5.75,0,0,0,230,48.44a4.69,4.69,0,0,0-3.3,4.8,4.47,4.47,0,0,0,2,3.32,5,5,0,0,0,3.72.67,1.49,1.49,0,0,0,1-1.84,1.53,1.53,0,0,0-1.84-1Z" transform="translate(-0.01 -0.02)"/>
        </g>
        <g>
          <path class="cls-4" d="M185.34,104a3.11,3.11,0,0,1-4.29-.46,2.86,2.86,0,0,1,.94-4.07,2.29,2.29,0,0,1,1.25-.3,2.53,2.53,0,0,1,1.69,1,3.75,3.75,0,0,1-1.08,5.37" transform="translate(-0.01 -0.02)"/>
          <path class="cls-3" d="M184.27,103c-.23.2.31-.18,0,0l-.14.08-.18.09c-.15.11.38-.12.1,0l-.35.1-.2,0c.36-.11.24,0,.08,0a2.8,2.8,0,0,1-.41,0l-.17,0c.4,0,.25,0,.12,0l-.36-.1c-.15,0-.23-.17.06,0a1.51,1.51,0,0,0-.22-.11c-.07,0-.38-.27-.18-.1s-.1-.09-.15-.15-.12-.25,0,.06c0,0-.07-.09-.09-.13l-.09-.14s0-.09-.07-.14c.09.23.12.29.08.18s-.08-.23-.1-.34,0-.31,0,.09a.88.88,0,0,0,0-.16c0-.13,0-.26,0-.39s.08-.18,0,.16a2,2,0,0,0,.05-.24c0-.12.1-.25.12-.37-.05.28-.12.26-.06.14l.12-.22c0-.06.26-.4.1-.17s0,0,0,0l.17-.17c.2-.19-.25.15-.08.07l.17-.11s.17-.08.17-.1l-.16.07.15-.06s.23-.09.27-.07-.31,0-.08,0h.11q.27,0-.09,0s.25.07.27.08c.22,0-.11,0-.09-.05a1.3,1.3,0,0,0,.21.12c.12.08.16.2,0,0a.86.86,0,0,0,.14.13c.07.06.13.14.2.2s.09.2-.06-.09c.07.13.17.24.24.37l.09.18c.11.21,0-.12-.06-.14a3.43,3.43,0,0,0,.13.38c0,.14,0,.57,0,.06,0,.14,0,.27,0,.4a3.85,3.85,0,0,0,0,.48s.07-.4,0-.16c0,.08,0,.15,0,.23s-.09.31-.14.46.05-.11.07-.13-.07.14-.11.22a3.38,3.38,0,0,1-.24.41,1.47,1.47,0,0,0-.1.13c.22-.37.1-.13,0,0s-.24.2-.32.3c.14-.2.23-.16.11-.08l-.28.18a1.5,1.5,0,0,0,1.52,2.59,5.31,5.31,0,0,0,2.52-4.36,4.72,4.72,0,0,0-2.49-4.44,3.66,3.66,0,0,0-3.55.22,4.4,4.4,0,0,0-1.74,2.16,4.17,4.17,0,0,0,1.15,4.69,4.67,4.67,0,0,0,5.9-.05,1.52,1.52,0,0,0,0-2.13,1.57,1.57,0,0,0-2.13,0Z" transform="translate(-0.01 -0.02)"/>
        </g>
      </g>
    </g>
  </g>
</svg>
