<?xml version="1.0" encoding="utf-8"?>
<!-- Generator: Adobe Illustrator 23.1.1, SVG Export Plug-In . SVG Version: 6.00 Build 0)  -->
<svg version="1.1" id="Layer_1" xmlns="http://www.w3.org/2000/svg" xmlns:xlink="http://www.w3.org/1999/xlink" x="0px" y="0px"
	 viewBox="0 0 432 216" style="enable-background:new 0 0 432 216;" xml:space="preserve">
<style type="text/css">
	.st0{fill:#00A651;}
	.st1{fill:#00AEEF;}
	.st2{fill:#662D91;}
</style>
<g>
	<g>
		<path d="M54.47,25.02c-5.8-1.74-11.59,1.52-15.38,5.75c-1.99,2.23-3.69,4.74-5.26,7.27c-0.83,1.33-1.54,2.88-1.15,4.48
			c0.3,1.23,1.24,2.19,2.32,2.79c1.18,0.65,2.5,0.95,3.82,1.16c1.64,0.26,3.29,0.4,4.93,0.56c2.83,0.29,5.75,0.77,8.15,2.4
			c2.16,1.47,3.26,3.88,3.23,6.46c-0.03,2.61-1.16,5.04-2.97,6.9c-4.83,4.96-12.24,5.25-18.72,5.47c-1.28,0.04-1.29,2.04,0,2
			c6.04-0.2,12.49-0.49,17.65-4c2.24-1.52,4.12-3.56,5.16-6.09c1-2.43,1.21-5.31,0.32-7.81c-0.93-2.59-2.94-4.52-5.43-5.63
			c-2.8-1.25-5.81-1.54-8.83-1.83c-1.59-0.16-3.21-0.3-4.76-0.72c-0.99-0.27-2.21-0.71-2.74-1.67c-0.7-1.26,0.25-2.69,0.92-3.74
			c0.79-1.22,1.59-2.44,2.43-3.63c1.87-2.63,4.07-5.17,6.89-6.8c2.67-1.55,5.86-2.3,8.88-1.39C55.17,27.32,55.7,25.39,54.47,25.02
			L54.47,25.02z"/>
	</g>
</g>
<g>
	<g>
		<path d="M62.59,67.07c0-6.19,0-12.39,0-18.58c0-1.29-2-1.29-2,0c0,6.19,0,12.39,0,18.58C60.59,68.35,62.59,68.36,62.59,67.07
			L62.59,67.07z"/>
	</g>
</g>
<g>
	<g>
		<path d="M67.91,52.99c0.01,4.6,0.01,9.2,0.02,13.79c0.67,0,1.33,0,2,0c-0.46-4.89,0.51-9.87,2.88-14.18
			c0.28-0.51,1.03-1.99,1.81-1.75c0.35,0.11,0.53,0.61,0.65,0.91c0.24,0.62,0.41,1.27,0.59,1.91c0.72,2.52,1.23,5.1,1.49,7.71
			c0.31,3.01,0.32,6.04,0.05,9.06c-0.05,0.54,0.49,1,1,1c0.58,0,0.95-0.46,1-1c0.55-6.03-0.06-12.17-1.81-17.97
			c-0.36-1.19-0.73-2.64-1.89-3.3c-1.22-0.69-2.56-0.16-3.47,0.78c-0.91,0.95-1.49,2.22-2.03,3.4c-0.57,1.27-1.06,2.57-1.43,3.91
			c-0.86,3.09-1.15,6.34-0.85,9.53c0.12,1.26,2,1.31,2,0c-0.01-4.6-0.01-9.2-0.02-13.79C69.91,51.7,67.91,51.7,67.91,52.99
			L67.91,52.99z"/>
	</g>
</g>
<g>
	<g>
		<path d="M92.02,28.87c-2.94,6.11-4.85,12.65-5.71,19.37c-0.43,3.34-0.58,6.72-0.45,10.08c0.12,3.02,0.37,6.12,1.19,9.04
			c0.85,3.02,2.4,5.84,5.07,7.59c1.08,0.71,2.08-1.02,1.01-1.73c-4.52-2.95-5.01-9.48-5.24-14.34c-0.31-6.38,0.41-12.8,2.1-18.96
			c0.95-3.46,2.2-6.82,3.76-10.05C94.31,28.72,92.58,27.71,92.02,28.87L92.02,28.87z"/>
	</g>
</g>
<g>
	<g>
		<g>
			<path class="st0" d="M109.83,46.8c0,4.27,0,8.55-0.01,12.82c0.67,0,1.33,0,2,0c-0.38-4.06-1.51-7.99-3.38-11.62
				c-0.92-1.78-2.01-3.51-3.29-5.06c-1.21-1.46-2.96-2.75-4.95-2.34c-1.76,0.37-2.85,1.96-3.46,3.53c-0.66,1.7-0.85,3.66-0.75,5.47
				c0.2,3.8,1.77,7.51,4.5,10.19c3.01,2.95,7.24,4.59,11.46,4.43c1.28-0.05,1.29-2.05,0-2c-3.18,0.13-6.35-0.87-8.88-2.82
				c-2.59-1.99-4.28-4.92-4.88-8.11c-0.29-1.55-0.31-3.2-0.03-4.76c0.24-1.28,0.64-2.86,1.77-3.66c1.33-0.95,2.75,0.26,3.62,1.25
				c1.13,1.29,2.06,2.81,2.87,4.32c1.87,3.44,3.04,7.27,3.4,11.17c0.12,1.26,2,1.31,2,0c0-4.27,0-8.55,0.01-12.82
				C111.83,45.51,109.83,45.51,109.83,46.8L109.83,46.8z"/>
		</g>
	</g>
	<g>
		<g>
			<path class="st0" d="M117.63,42.86c0.27,6.3,0.54,12.59,0.81,18.89c0.65-0.09,1.31-0.18,1.96-0.27
				c-1.23-5.53-0.65-11.48,1.68-16.65c0.52-1.15,1.06-2.52,2.05-3.35c0.23-0.19,0.63-0.51,0.96-0.38c0.48,0.19,0.72,1.19,0.89,1.6
				c1.12,2.77,1.88,5.7,2.22,8.67c0.37,3.31,0.27,6.66-0.34,9.93c-0.24,1.26,1.69,1.8,1.93,0.53c1.26-6.72,0.59-13.76-2.05-20.08
				c-0.57-1.36-1.32-2.85-3.06-2.67c-1.51,0.16-2.64,1.48-3.33,2.72c-1.59,2.83-2.66,5.97-3.18,9.17c-0.6,3.67-0.51,7.4,0.3,11.02
				c0.24,1.09,2.01,0.86,1.96-0.27c-0.27-6.3-0.54-12.59-0.81-18.89C119.57,41.58,117.57,41.57,117.63,42.86L117.63,42.86z"/>
		</g>
	</g>
	<g>
		<g>
			<path class="st0" d="M135.64,43.12c-0.55,2.62-0.72,5.31-0.43,7.98c0.14,1.29,0.36,2.57,0.7,3.82c0.29,1.06,0.76,2.15,1.73,2.75
				c1.73,1.06,4.04,0.05,5-1.58c1.26-2.14,0.3-4.82-0.86-6.78c-1.32-2.24-3.19-4.13-5.37-5.53c-0.17,0.62-0.34,1.24-0.5,1.86
				c2.55,0.22,4.64,2.08,5.93,4.18c1.5,2.44,2.28,5.35,2.89,8.12c0.64,2.93,0.91,6.04-0.03,8.94c-0.7,2.14-2.14,4.03-3.93,5.38
				c-2.12,1.6-4.72,2.47-7.38,2.37c-1.29-0.05-1.28,1.95,0,2c5.52,0.22,10.83-3.3,12.92-8.38c1.27-3.07,1.16-6.5,0.57-9.71
				c-0.58-3.18-1.48-6.54-3.1-9.36c-1.67-2.92-4.43-5.24-7.87-5.55c-1.05-0.09-1.27,1.37-0.5,1.86c1.49,0.96,2.84,2.19,3.88,3.63
				c1.01,1.39,2.14,3.22,1.92,5.02c-0.12,1.03-1.33,2.47-2.49,1.83c-0.66-0.37-0.83-1.37-0.99-2.03c-0.25-1.02-0.44-2.05-0.54-3.09
				c-0.24-2.41-0.12-4.84,0.38-7.21C137.83,42.39,135.9,41.86,135.64,43.12L135.64,43.12z"/>
		</g>
	</g>
	<g>
		<g>
			<path class="st0" d="M149.58,38.34c0.27,8.58,0.35,17.16,0.24,25.74c-0.01,1.08,1.31,1.25,1.86,0.5c0.37-0.5,0.75-1.01,1.12-1.51
				c0.32-0.43,0.07-1.12-0.36-1.37c-0.51-0.3-1.05-0.08-1.37,0.36c-0.37,0.5-0.75,1.01-1.12,1.51c0.62,0.17,1.24,0.34,1.86,0.5
				c0.11-8.58,0.04-17.16-0.24-25.74C151.54,37.05,149.54,37.05,149.58,38.34L149.58,38.34z"/>
		</g>
	</g>
	<g>
		<g>
			<path class="st0" d="M158.04,52.89c2.27-0.98,4.93-2.51,4.76-5.37c-0.07-1.13-0.57-2.25-1.58-2.83c-1.1-0.63-2.43-0.43-3.42,0.31
				c-2.24,1.67-2.8,4.92-2.84,7.54c-0.04,2.83,0.69,5.7,2.11,8.15c0.71,1.21,1.68,2.2,3,2.73c1.29,0.52,2.67,0.26,3.45-0.95
				c0.7-1.08-1.03-2.09-1.73-1.01c-0.3,0.46-0.99,0.14-1.38-0.08c-0.76-0.43-1.24-1.05-1.67-1.79c-1.05-1.83-1.66-3.92-1.77-6.03
				c-0.1-1.91,0.07-4.17,1.06-5.86c0.35-0.59,0.95-1.4,1.71-1.41c0.6,0,0.94,0.52,1.03,1.06c0.36,2.11-2.21,3.14-3.75,3.8
				c-0.5,0.21-0.61,0.94-0.36,1.37C156.97,53.04,157.54,53.1,158.04,52.89L158.04,52.89z"/>
		</g>
	</g>
</g>
<g>
	<g>
		<path d="M162.79,31.59c2.98,5.38,5.34,11.09,7.01,17.01c0.83,2.96,1.5,5.98,1.99,9.02c0.47,2.93,0.94,6.08,0.06,8.98
			c-0.77,2.52-2.98,4.85-5.78,4.68c-1.29-0.08-1.28,1.92,0,2c2.82,0.17,5.34-1.64,6.76-3.97c1.67-2.77,1.68-6.18,1.31-9.29
			c-0.77-6.57-2.44-13.05-4.83-19.21c-1.36-3.51-2.96-6.93-4.78-10.23C163.89,29.46,162.17,30.47,162.79,31.59L162.79,31.59z"/>
	</g>
</g>
<g>
	<g>
		<path d="M187.25,49.63c4.32,0,8.62-0.78,12.65-2.35c0.5-0.2,0.85-0.67,0.7-1.23c-0.13-0.48-0.72-0.89-1.23-0.7
			c-3.87,1.5-7.96,2.28-12.11,2.28C185.96,47.63,185.96,49.63,187.25,49.63L187.25,49.63z"/>
	</g>
</g>
<g>
	<g>
		<path d="M188.82,58.92c4.37-2.31,9.25-3.46,14.19-3.38c1.29,0.02,1.29-1.98,0-2c-5.29-0.09-10.52,1.18-15.2,3.65
			C186.67,57.79,187.68,59.52,188.82,58.92L188.82,58.92z"/>
	</g>
</g>
<g>
	<g>
		<g>
			<path class="st1" d="M223.01,45.8c-2.47-1.44-3.47-4.7-2.7-7.36c0.81-2.8,2.73-7.02,6.11-7.17c2.55-0.12,4.81,2.29,6.07,4.31
				c0.85,1.36,1.42,2.95,1.24,4.58c-0.16,1.49-0.97,2.83-2.04,3.85C229.53,46.06,225.79,47.31,223.01,45.8
				c-0.57-0.31-1.07,0.56-0.5,0.86c2.84,1.53,6.5,0.65,8.98-1.19c1.3-0.97,2.37-2.25,2.91-3.79c0.63-1.77,0.37-3.68-0.38-5.37
				c-0.57-1.28-1.43-2.46-2.42-3.46c-1.08-1.1-2.36-2.14-3.9-2.47c-1.93-0.41-3.76,0.38-5.11,1.76c-1.34,1.37-2.11,3.1-2.83,4.84
				c-0.72,1.75-0.99,3.62-0.41,5.46c0.54,1.72,1.57,3.29,3.15,4.21C223.06,46.99,223.56,46.13,223.01,45.8z"/>
		</g>
	</g>
	<g>
		<g>
			<path class="st1" d="M236.75,37.58c-1.05,8.21-1.43,16.49-1.12,24.76c0.02,0.64,1.02,0.64,1,0c-0.3-8.27,0.07-16.56,1.12-24.76
				C237.83,36.94,236.83,36.95,236.75,37.58L236.75,37.58z"/>
		</g>
	</g>
	<g>
		<g>
			<path class="st1" d="M237.49,38.17c-0.09-1.25,1.22-2.14,2.38-1.99c1.31,0.16,2.32,1.28,2.86,2.42c1.05,2.22,0.47,5.47-2.16,6.19
				c-1.16,0.31-2.59,0.09-3.35-0.92c-0.38-0.51-1.25-0.01-0.86,0.5c0.92,1.21,2.4,1.7,3.89,1.49c1.56-0.22,2.88-1.2,3.52-2.65
				c0.67-1.53,0.61-3.32-0.03-4.85c-0.63-1.5-1.93-2.89-3.59-3.16c-1.75-0.28-3.77,1.05-3.64,2.96
				C236.53,38.81,237.53,38.81,237.49,38.17L237.49,38.17z"/>
		</g>
	</g>
	<g>
		<g>
			<path class="st1" d="M247.38,35.18c-1.36,8.79-1.98,17.69-1.85,26.58c0.01,0.64,1.01,0.64,1,0c-0.13-8.8,0.47-17.61,1.81-26.32
				C248.45,34.82,247.48,34.55,247.38,35.18L247.38,35.18z"/>
		</g>
	</g>
	<g>
		<g>
			<path class="st1" d="M247.63,36.39c-0.03-1.43,1.65-2.22,2.89-1.89c1.37,0.36,2.31,1.58,2.96,2.77c0.55,1.01,0.98,2.12,1.02,3.28
				c0.05,1.52-0.74,2.81-2.06,3.54c-1.58,0.87-3.48,0.77-5.12,0.12c-0.6-0.24-0.86,0.73-0.27,0.96c1.78,0.7,3.8,0.75,5.56-0.05
				c1.64-0.75,2.76-2.29,2.88-4.11c0.09-1.5-0.46-2.98-1.16-4.28c-0.82-1.49-2.09-2.96-3.85-3.26c-1.8-0.32-3.89,0.97-3.85,2.92
				C246.64,37.03,247.64,37.04,247.63,36.39L247.63,36.39z"/>
		</g>
	</g>
	<g>
		<g>
			<path class="st1" d="M258.35,41.34c-1.11-3.16,2.17-7.18,5.52-5.65c1.5,0.68,2.64,2.27,2.69,3.93c0.05,1.58-0.95,2.89-2.4,3.45
				c-1.55,0.6-3.43,0.41-4.57-0.88c-0.43-0.48-1.13,0.23-0.71,0.71c2.56,2.9,8.12,1.35,8.63-2.54c0.27-2.04-0.86-4.1-2.55-5.2
				c-1.77-1.16-4-0.99-5.64,0.31c-1.78,1.41-2.72,3.94-1.95,6.13C257.6,42.21,258.57,41.95,258.35,41.34L258.35,41.34z"/>
		</g>
	</g>
	<g>
		<g>
			<path class="st1" d="M272.8,30.36c-0.72,0.99-1.4,2.01-2.02,3.07c-0.58,0.99-1.24,2.05-1.61,3.14c-0.68,2.02,1.3,3.03,3,3.16
				c0.94,0.07,2.24-0.02,2.85,0.86c0.45,0.66,0.25,1.58-0.12,2.22c-1.19,2.05-4.02,1.55-5.95,1.18c-0.63-0.12-0.9,0.85-0.27,0.96
				c1.78,0.34,3.72,0.66,5.44-0.12c1.22-0.56,2.07-1.83,2.15-3.17c0.09-1.46-0.94-2.51-2.33-2.77c-1.1-0.21-4.44,0.05-3.83-1.96
				c0.33-1.08,1.03-2.14,1.6-3.1c0.61-1.02,1.26-2.01,1.96-2.97C274.04,30.34,273.18,29.84,272.8,30.36L272.8,30.36z"/>
		</g>
	</g>
	<g>
		<g>
			<path class="st1" d="M279.25,42.88c-0.58-3.12-0.72-6.3-0.43-9.45c0.06-0.64-0.94-0.64-1,0c-0.29,3.25-0.13,6.51,0.47,9.72
				C278.41,43.78,279.37,43.51,279.25,42.88L279.25,42.88z"/>
		</g>
	</g>
	<g>
		<g>
			<path class="st1" d="M279.97,32.11c2.44-0.18,4.88-0.36,7.32-0.54c0.64-0.05,0.64-1.05,0-1c-2.44,0.18-4.88,0.36-7.32,0.54
				C279.33,31.16,279.32,32.16,279.97,32.11L279.97,32.11z"/>
		</g>
	</g>
	<g>
		<g>
			<path class="st1" d="M284,27.66c-1.08,5.22-1.47,10.57-1.12,15.9c0.04,0.64,1.04,0.64,1,0c-0.34-5.24,0.02-10.49,1.09-15.63
				C285.09,27.3,284.13,27.03,284,27.66L284,27.66z"/>
		</g>
	</g>
	<g>
		<g>
			<path class="st1" d="M285.51,42.03c2.08,0.16,4.89-0.77,5.35-3.11c0.38-1.89-1.8-4.65-3.73-3.2c-0.88,0.66-1.38,1.8-1.7,2.83
				c-0.36,1.16-0.52,2.4-0.36,3.61c0.28,2.11,1.53,3.93,3.07,5.33c1.13,1.03,2.42,1.92,3.8,2.59c0.58,0.28,1.09-0.58,0.5-0.86
				c-2.22-1.06-4.4-2.72-5.61-4.89c-0.97-1.75-1.03-3.71-0.42-5.59c0.25-0.79,0.66-1.83,1.41-2.28c0.84-0.51,1.7,0.59,1.96,1.29
				c0.34,0.91-0.1,1.77-0.81,2.36c-0.97,0.81-2.25,1.02-3.47,0.93C284.87,40.98,284.87,41.98,285.51,42.03L285.51,42.03z"/>
		</g>
	</g>
	<g>
		<g>
			<path class="st1" d="M306.12,31.98c-1.38,1.12-2.6,2.4-3.67,3.82c-0.79,1.05-1.57,2.47-0.34,3.53c0.97,0.84,2.35,0.85,3.49,1.32
				c1.34,0.55,2.51,2.1,2.12,3.61c-0.35,1.34-2.26,2.35-3.45,1.41c-0.5-0.39-1.21,0.31-0.71,0.71c1.08,0.85,2.53,0.81,3.67,0.07
				c1.23-0.79,1.79-2.19,1.46-3.61c-0.35-1.5-1.57-2.73-3.01-3.22c-0.84-0.29-3.27-0.47-3.24-1.72c0.01-0.55,0.5-1.09,0.81-1.5
				c0.34-0.46,0.7-0.9,1.08-1.32c0.77-0.86,1.61-1.65,2.5-2.38C307.33,32.28,306.62,31.57,306.12,31.98L306.12,31.98z"/>
		</g>
	</g>
	<g>
		<g>
			<path class="st1" d="M312.1,46.57c0.29-3.57,0.58-7.15,0.87-10.72c0.05-0.64-0.95-0.64-1,0c-0.29,3.57-0.58,7.15-0.87,10.72
				C311.05,47.21,312.05,47.21,312.1,46.57L312.1,46.57z"/>
		</g>
	</g>
	<g>
		<g>
			<path class="st1" d="M318.58,30.62c0.62,3.52,0.72,7.1,0.35,10.66c0.31-0.08,0.62-0.17,0.93-0.25c-0.64-1.05-1.89-1.44-3.06-1.19
				c-1.25,0.27-2.11,1.32-2.25,2.57c-0.15,1.34,0.46,2.69,1.55,3.47c1.25,0.9,2.91,1.01,4.36,0.58c0.62-0.18,0.35-1.15-0.27-0.96
				c-1.96,0.58-4.61-0.21-4.67-2.61c-0.02-0.91,0.43-1.76,1.33-2.03c0.78-0.24,1.7-0.04,2.14,0.68c0.28,0.45,0.88,0.22,0.93-0.25
				c0.39-3.65,0.25-7.31-0.38-10.92C319.43,29.72,318.47,29.99,318.58,30.62L318.58,30.62z"/>
		</g>
	</g>
	<g>
		<g>
			<path class="st1" d="M323.84,43.48c1.74-0.54,3.8-1.79,4.09-3.77c0.28-1.89-2.03-3.58-3.77-2.81c-1.56,0.69-1.97,2.99-1.77,4.51
				c0.22,1.78,1.38,3.27,2.7,4.4c0.99,0.84,2.1,1.58,3.28,2.12c0.58,0.27,1.09-0.59,0.5-0.86c-1.92-0.89-3.92-2.28-4.96-4.17
				c-0.67-1.22-0.73-2.65-0.24-3.95c0.25-0.68,0.73-1.31,1.53-1.22c0.74,0.08,1.65,0.69,1.76,1.48c0.08,0.63-0.32,1.28-0.72,1.72
				c-0.71,0.79-1.66,1.28-2.66,1.59C322.97,42.71,323.23,43.67,323.84,43.48L323.84,43.48z"/>
		</g>
	</g>
	<g>
		<g>
			<path class="st1" d="M342.97,29.91c-0.82,4.76-0.87,9.6-0.16,14.38c0.09,0.63,1.06,0.36,0.96-0.27
				c-0.68-4.59-0.62-9.28,0.16-13.85C344.04,29.54,343.08,29.27,342.97,29.91L342.97,29.91z"/>
		</g>
	</g>
	<g>
		<g>
			<path class="st1" d="M347.9,41.32c1.29-1.18,2.98-2.86,2.48-4.8c-0.38-1.46-2.23-2.84-3.63-1.75c-1.34,1.04-1.35,3.52-1.15,5.04
				c0.23,1.76,0.94,3.45,2.01,4.86c1.22,1.6,2.88,2.81,4.82,3.39c0.62,0.18,0.88-0.78,0.27-0.96c-3.44-1.02-5.95-4.38-6.17-7.93
				c-0.07-1.15,0.26-5.02,2.21-3.42c1.88,1.55-0.35,3.77-1.55,4.87C346.72,41.05,347.42,41.76,347.9,41.32L347.9,41.32z"/>
		</g>
	</g>
	<g>
		<g>
			<path class="st1" d="M352.81,33.99c0,3.33-0.01,6.66-0.01,9.99c0.33,0,0.67,0,1,0c-0.06-2.12,0.11-4.24,0.55-6.32
				c0.2-0.95,0.45-1.89,0.75-2.81c0.19-0.58,0.62-1.86,1.46-1.4c0.7,0.38,0.95,1.49,1.15,2.18c0.28,0.92,0.48,1.87,0.62,2.83
				c0.28,2.04,0.22,4.12-0.16,6.14c-0.12,0.63,0.85,0.9,0.96,0.27c0.35-1.84,0.46-3.71,0.29-5.58c-0.16-1.76-0.49-3.63-1.22-5.26
				c-0.52-1.18-1.83-2.3-3.06-1.26c-0.51,0.44-0.78,1.09-0.98,1.71c-0.32,0.96-0.58,1.93-0.79,2.92c-0.46,2.16-0.65,4.38-0.59,6.59
				c0.02,0.64,1,0.65,1,0c0-3.33,0.01-6.66,0.01-9.99C353.81,33.35,352.81,33.34,352.81,33.99L352.81,33.99z"/>
		</g>
	</g>
	<g>
		<g>
			<path class="st1" d="M360.16,36.81c-0.14,1.12-0.12,2.24,0.05,3.36c0.12,0.8,0.29,1.72,0.9,2.31c1.3,1.27,2.69-0.4,3.1-1.61
				c0.94-2.73-0.76-6.04-3.54-6.82c-0.51-0.14-0.8,0.47-0.49,0.84c2.43,2.79,4.19,6.44,4.47,10.17c0.14,1.82-0.13,3.79-1.3,5.26
				c-1.02,1.28-2.66,2.15-4.32,1.83c-0.63-0.12-0.9,0.84-0.27,0.96c1.83,0.36,3.64-0.36,4.93-1.67c1.43-1.47,2-3.52,1.99-5.53
				c-0.01-4.28-2.03-8.55-4.79-11.72c-0.16,0.28-0.32,0.56-0.49,0.84c2.03,0.57,3.3,2.81,3.02,4.86c-0.1,0.74-1.06,2.98-1.85,1.56
				c-0.34-0.62-0.41-1.44-0.47-2.12c-0.07-0.84-0.05-1.68,0.05-2.51C361.24,36.17,360.24,36.17,360.16,36.81L360.16,36.81z"/>
		</g>
	</g>
	<g>
		<g>
			<path class="st1" d="M364.12,29.92c2.52-0.78,5.13-1.14,7.77-1.07c0.64,0.02,0.64-0.98,0-1c-2.72-0.07-5.43,0.31-8.03,1.11
				C363.25,29.14,363.51,30.11,364.12,29.92L364.12,29.92z"/>
		</g>
	</g>
	<g>
		<g>
			<path class="st1" d="M366.86,22.16c-0.01,7.34,0.28,14.67,0.89,21.98c0.05,0.64,1.05,0.64,1,0c-0.6-7.31-0.9-14.65-0.89-21.98
				C367.87,21.52,366.87,21.52,366.86,22.16L366.86,22.16z"/>
		</g>
	</g>
	<g>
		<g>
			<path class="st1" d="M372.63,23.85c0.19,6.36,0.53,12.72,1.01,19.07c0.04,0.56,0.8,0.68,0.98,0.13c0.59-1.79,1.23-3.57,1.94-5.32
				c0.34-0.84,0.64-1.78,1.11-2.56c0.53-0.87,1.21-0.36,1.62,0.31c0.43,0.71,0.57,1.57,0.73,2.37c0.19,0.96,0.33,1.92,0.41,2.89
				c0.16,1.88,0.12,3.76-0.1,5.63c-0.07,0.64,0.93,0.63,1,0c0.27-2.34,0.26-4.7-0.06-7.04c-0.23-1.69-0.41-4.05-1.84-5.22
				c-0.58-0.47-1.34-0.59-1.98-0.17c-0.75,0.49-1.03,1.53-1.36,2.31c-0.91,2.14-1.72,4.32-2.44,6.53c0.33,0.04,0.65,0.09,0.98,0.13
				c-0.48-6.35-0.81-12.71-1.01-19.07C373.61,23.21,372.61,23.2,372.63,23.85L372.63,23.85z"/>
		</g>
	</g>
</g>
<g>
	<g>
		<g>
			<path class="st2" d="M227.41,54.34c-0.11,6.51,0.3,13.01,1.21,19.46c0.08,0.55,1.04,0.43,0.98-0.13
				c-0.23-2.22-0.09-4.45,0.46-6.61c0.28-1.09,0.65-2.16,1.13-3.18c0.34-0.72,0.93-2.22,1.93-2.15c0.88,0.06,1.16,1.31,1.32,2
				c0.28,1.17,0.51,2.34,0.71,3.52c0.42,2.44,0.67,4.9,0.77,7.37c0.03,0.64,1.03,0.64,1,0c-0.09-2.2-0.3-4.39-0.63-6.57
				c-0.17-1.15-0.38-2.29-0.62-3.42c-0.19-0.87-0.34-1.78-0.75-2.57c-0.73-1.44-2.35-1.75-3.47-0.52c-0.63,0.69-1.03,1.59-1.39,2.45
				c-0.39,0.91-0.72,1.85-0.97,2.82c-0.57,2.24-0.74,4.58-0.5,6.88c0.33-0.04,0.65-0.09,0.98-0.13c-0.9-6.36-1.28-12.78-1.17-19.2
				C228.42,53.7,227.42,53.7,227.41,54.34L227.41,54.34z"/>
		</g>
	</g>
	<g>
		<g>
			<path class="st2" d="M238.2,61c-0.37,1.89-0.54,3.79-0.61,5.72c-0.05,1.23-0.25,2.98,0.61,4c1.01,1.21,2.85,0.53,3.94-0.2
				c1.33-0.9,2.11-2.27,2.31-3.85c0.14-1.08,0.07-2.23-0.23-3.28c-0.18-0.63-1.08-0.36-0.96,0.27c0.75,3.92,1.68,8.41,0.12,12.26
				c-0.95,2.34-2.95,4-5.2,5.02c-0.64,0.29-1.29,0.49-1.95,0.71c-0.61,0.2-0.35,1.17,0.27,0.96c1.76-0.58,3.41-1.28,4.88-2.45
				c2.8-2.24,3.8-5.57,3.81-9.06c0.01-2.6-0.48-5.17-0.96-7.71c-0.32,0.09-0.64,0.18-0.96,0.27c0.75,2.62-0.07,5.96-3.06,6.66
				c-1.81,0.42-1.66-1.72-1.63-2.91c0.04-2.06,0.2-4.12,0.59-6.14C239.29,60.64,238.33,60.37,238.2,61L238.2,61z"/>
		</g>
	</g>
	<g>
		<g>
			<path class="st2" d="M245.86,63.75c0,6.01,0,12.01,0,18.02c0,0.64,1,0.64,1,0c0-6.01,0-12.01,0-18.02
				C246.86,63.1,245.86,63.1,245.86,63.75L245.86,63.75z"/>
		</g>
	</g>
	<g>
		<g>
			<path class="st2" d="M247.25,63.49c0.05-1.07,1.28-1.71,2.25-1.6c1.23,0.14,2.19,1.15,2.84,2.13c0.53,0.8,1.01,1.68,1.14,2.65
				c0.16,1.17-0.4,2.18-1.39,2.77c-1.26,0.75-2.81,0.74-4.18,0.33c-0.62-0.19-0.88,0.78-0.27,0.96c1.54,0.46,3.23,0.44,4.69-0.29
				c1.3-0.66,2.2-1.92,2.17-3.4c-0.02-1.29-0.62-2.5-1.32-3.55c-0.85-1.28-2.09-2.45-3.69-2.6c-1.55-0.14-3.17,0.99-3.25,2.6
				C246.21,64.14,247.21,64.13,247.25,63.49L247.25,63.49z"/>
		</g>
	</g>
	<g>
		<g>
			<path class="st2" d="M258.82,70.51c-2.52-1.52-3-6.41,0.23-7.42c1.53-0.48,3.35-0.03,4.5,1.07c1.29,1.22,1.61,3.29,0.76,4.85
				C263.27,70.96,260.71,71.59,258.82,70.51c-0.56-0.32-1.06,0.54-0.5,0.86c1.98,1.13,4.67,0.79,6.21-0.93
				c1.51-1.69,1.68-4.39,0.37-6.24c-1.17-1.65-3.31-2.51-5.31-2.24c-1.98,0.26-3.43,1.72-3.73,3.7c-0.32,2.16,0.53,4.56,2.46,5.72
				C258.87,71.71,259.37,70.84,258.82,70.51z"/>
		</g>
	</g>
	<g>
		<g>
			<path class="st2" d="M264.57,60.6c3.49-0.97,6.94-2.07,10.35-3.3c0.6-0.22,0.34-1.18-0.27-0.96c-3.41,1.23-6.86,2.33-10.35,3.3
				C263.69,59.81,263.95,60.78,264.57,60.6L264.57,60.6z"/>
		</g>
	</g>
	<g>
		<g>
			<path class="st2" d="M269.52,54.72c-0.7,5.61-1.04,11.26-1.03,16.91c0,0.64,1,0.64,1,0c-0.02-5.65,0.32-11.3,1.03-16.91
				C270.6,54.09,269.6,54.09,269.52,54.72L269.52,54.72z"/>
		</g>
	</g>
	<g>
		<g>
			<path class="st2" d="M275.38,67.89c1.85-1.25,4.16-2.9,4.17-5.38c0.01-1.92-1.47-4.02-3.59-3.51c-2.23,0.53-3.07,3.32-3.14,5.32
				c-0.08,2.17,0.64,4.35,1.88,6.12c1.41,1.99,3.47,3.5,5.88,3.98c0.63,0.13,0.9-0.84,0.27-0.96c-3.53-0.71-6.21-3.76-6.89-7.24
				c-0.33-1.71-0.19-3.74,0.85-5.19c0.52-0.73,1.42-1.37,2.35-1c0.75,0.29,1.18,1.11,1.33,1.86c0.46,2.36-1.94,4.01-3.62,5.15
				C274.34,67.38,274.84,68.25,275.38,67.89L275.38,67.89z"/>
		</g>
	</g>
	<g>
		<g>
			<path class="st2" d="M283.17,62.06c-0.19,3.31,0.04,6.63,0.67,9.89c0.1,0.55,1.05,0.43,0.98-0.13c-0.28-2.14-0.29-4.31-0.01-6.45
				c0.15-1.1,0.37-2.2,0.67-3.26c0.21-0.74,0.6-1.7,1.34-2.07c0.97-0.48,1.34,1.01,1.57,1.66c0.34,0.96,0.6,1.96,0.79,2.96
				c0.38,2.07,0.42,4.2,0.13,6.28c-0.09,0.63,0.87,0.9,0.96,0.27c0.27-1.88,0.3-3.78,0.05-5.66c-0.24-1.83-0.66-3.8-1.51-5.46
				c-0.74-1.44-2.3-1.39-3.28-0.24c-1.15,1.34-1.41,3.37-1.65,5.06c-0.33,2.3-0.35,4.62-0.05,6.93c0.33-0.04,0.65-0.09,0.98-0.13
				c-0.61-3.17-0.81-6.4-0.63-9.62C284.2,61.42,283.2,61.42,283.17,62.06L283.17,62.06z"/>
		</g>
	</g>
	<g>
		<g>
			<path class="st2" d="M291.87,62.04c0.24,1.84,0.7,3.62,1.43,5.32c0.38,0.9,0.83,1.78,1.34,2.61c0.45,0.73,0.93,1.48,1.59,2.03
				c0.56,0.46,1.26,0.81,2,0.68c0.78-0.14,1.29-0.76,1.61-1.45c0.75-1.62,1.07-3.46,1.04-5.24c-0.04-2.04-0.56-4.04-1.52-5.84
				c-0.3-0.57-1.17-0.06-0.86,0.5c0.91,1.7,1.38,3.6,1.39,5.53c0,0.99-0.12,1.98-0.37,2.94c-0.2,0.77-0.47,2.08-1.23,2.48
				c-0.84,0.44-1.75-0.61-2.18-1.21c-0.57-0.79-1.06-1.65-1.49-2.53c-0.9-1.83-1.49-3.81-1.75-5.83
				C292.79,61.41,291.79,61.4,291.87,62.04L291.87,62.04z"/>
		</g>
	</g>
	<g>
		<g>
			<path class="st2" d="M313.26,66.95c1.15-1.32,3.01-2.17,3.33-4.04c0.24-1.42-0.61-3.11-2.28-2.8c-1.67,0.32-2.42,2.33-2.46,3.82
				c-0.04,1.67,0.5,3.35,1.44,4.73c1.09,1.6,2.68,2.81,4.54,3.32c0.62,0.17,0.89-0.79,0.27-0.96c-2.59-0.72-4.56-2.97-5.12-5.57
				c-0.27-1.27-0.24-2.79,0.67-3.81c0.39-0.45,1.03-0.79,1.57-0.36c0.41,0.33,0.46,0.95,0.38,1.43c-0.27,1.59-2.08,2.41-3.06,3.54
				C312.13,66.73,312.84,67.44,313.26,66.95L313.26,66.95z"/>
		</g>
	</g>
	<g>
		<g>
			<path class="st2" d="M326.24,54.62c-0.24,4.91-0.35,9.82-0.31,14.73c0.01,1.16-0.03,2.34,0.05,3.5c0.05,0.65,0.32,1.54,1.12,1.57
				c1.44,0.05,0.62-2.5-0.37-1.48c-0.45,0.46,0.26,1.17,0.71,0.71c-1.08,1.11-0.51-0.23-0.54-0.1c0.01,0.12,0.08,0.05,0.21-0.2
				c-0.02-0.05-0.04-0.11-0.06-0.16c-0.03-0.33-0.07-0.65-0.08-0.99c-0.02-0.83-0.03-1.65-0.03-2.48c-0.02-1.69-0.01-3.38,0-5.08
				c0.04-3.34,0.14-6.68,0.31-10.02C327.27,53.97,326.27,53.97,326.24,54.62L326.24,54.62z"/>
		</g>
	</g>
	<g>
		<g>
			<path class="st2" d="M330.8,67.47c0.79-0.88,1.58-1.76,2.36-2.65c0.55-0.63,1.16-1.35,1.2-2.23c0.07-1.64-1.92-2.54-3.14-1.51
				c-0.61,0.52-0.89,1.32-1.11,2.06c-0.3,0.99-0.48,2.03-0.48,3.06c-0.01,1.9,0.61,3.73,1.86,5.16c1.31,1.5,3.15,2.41,5.12,2.64
				c0.64,0.08,0.63-0.92,0-1c-1.71-0.21-3.28-1.06-4.41-2.35c-1.26-1.43-1.7-3.34-1.53-5.22c0.09-0.94,0.3-1.93,0.67-2.8
				c0.3-0.71,1.18-1.55,1.85-0.66c0.57,0.76-0.31,1.66-0.79,2.2c-0.76,0.86-1.53,1.72-2.29,2.58
				C329.67,67.24,330.37,67.95,330.8,67.47L330.8,67.47z"/>
		</g>
	</g>
	<g>
		<g>
			<path class="st2" d="M337.04,61.82c0.01,3.47,0.02,6.94,0.03,10.41c0.33,0,0.67,0,1,0c-0.1-3.96,0.95-7.85,3.03-11.22
				c-0.29,0-0.58,0-0.86,0c1.29,3.03,1.73,6.41,1.25,9.67c-0.09,0.63,0.87,0.9,0.96,0.27c0.52-3.56,0.06-7.13-1.35-10.44
				c-0.15-0.36-0.69-0.29-0.86,0c-2.17,3.51-3.28,7.6-3.17,11.73c0.02,0.64,1,0.65,1,0c-0.01-3.47-0.02-6.94-0.03-10.41
				C338.04,61.18,337.04,61.18,337.04,61.82L337.04,61.82z"/>
		</g>
	</g>
	<g>
		<g>
			<path class="st2" d="M343.94,63.87c0.35,0.85-0.07,1.67-0.1,2.53c-0.02,0.54,0.15,1.08,0.47,1.52c0.81,1.11,2.3,1.05,3.15,0.01
				c1.65-2.02,0.11-4.69-2.06-5.46c-0.4-0.14-0.8,0.38-0.56,0.73c1.77,2.63,4.11,6.04,2.5,9.3c-1.67,3.38-5.91,3.11-9.09,2.85
				c-0.64-0.05-0.64,0.95,0,1c3.56,0.29,8.1,0.38,9.96-3.35c1.81-3.64-0.48-7.31-2.5-10.31c-0.19,0.24-0.38,0.49-0.56,0.73
				c1.46,0.52,2.68,2.33,1.62,3.78c-0.68,0.93-1.8,0.48-1.91-0.59c-0.05-0.51,0.15-1.05,0.21-1.55c0.07-0.51,0.05-0.99-0.15-1.47
				C344.67,63.01,343.7,63.27,343.94,63.87L343.94,63.87z"/>
		</g>
	</g>
	<g>
		<g>
			<path class="st2" d="M347.11,60.65c3.29-0.09,6.57-0.54,9.76-1.33c0.62-0.16,0.36-1.12-0.27-0.96c-3.11,0.78-6.29,1.21-9.5,1.3
				C346.47,59.66,346.47,60.66,347.11,60.65L347.11,60.65z"/>
		</g>
	</g>
	<g>
		<g>
			<path class="st2" d="M351.68,55.25c0,5.63,0,11.26,0,16.89c0,0.64,1,0.64,1,0c0-5.63,0-11.26,0-16.89
				C352.68,54.6,351.68,54.6,351.68,55.25L351.68,55.25z"/>
		</g>
	</g>
	<g>
		<g>
			<path class="st2" d="M357.91,56.38c-0.34,5.58,0.22,11.18,1.64,16.58c0.12,0.47,0.85,0.48,0.96,0c0.41-1.71,0.94-3.38,1.61-5.01
				c0.28-0.67,1.5-4.16,2.64-2.67c0.4,0.53,0.5,1.28,0.62,1.91c0.18,0.96,0.32,1.93,0.4,2.91c0.15,1.81,0.11,3.62-0.08,5.42
				c-0.07,0.64,0.93,0.63,1,0c0.24-2.27,0.22-4.56-0.07-6.83c-0.18-1.4-0.27-3.81-1.72-4.59c-1.66-0.9-2.71,1.23-3.25,2.41
				c-0.9,1.99-1.6,4.06-2.11,6.18c0.32,0,0.64,0,0.96,0c-1.4-5.32-1.94-10.83-1.61-16.32C358.95,55.73,357.95,55.73,357.91,56.38
				L357.91,56.38z"/>
		</g>
	</g>
	<g>
		<g>
			<path class="st2" d="M311.12,59.62c-1.81,0.05-3.59,0.65-5.06,1.72c-0.74,0.54-1.39,1.17-1.95,1.9c-0.51,0.68-1.15,1.6-1.13,2.49
				c0.03,1.66,2.46,2.03,3.69,2.29c1.33,0.28,3.57,0.7,3.26,2.57c-0.44,2.68-3.87,2.57-5.9,2.43c-0.64-0.04-0.64,0.96,0,1
				c1.94,0.13,4.16,0.22,5.7-1.18c1.21-1.1,1.69-2.97,0.56-4.31c-0.96-1.14-2.61-1.3-3.98-1.6c-0.66-0.15-1.8-0.33-2.22-0.92
				c-0.52-0.73,0.85-2.28,1.32-2.79c1.47-1.58,3.54-2.53,5.69-2.59C311.76,60.6,311.76,59.6,311.12,59.62L311.12,59.62z"/>
		</g>
	</g>
</g>
<g>
	<g>
		<path d="M215.44,53.97c11.2-1.13,22.43-2.03,33.69-2.31c11.25-0.27,22.45,0.32,33.67,1.07c11.19,0.75,22.35,1.32,33.56,1.2
			c11.17-0.12,22.32-0.66,33.49-0.91c12.48-0.28,25-0.18,37.41,1.24c1.28,0.15,1.27-1.85,0-2c-22.21-2.55-44.57-0.82-66.84-0.4
			c-11.21,0.21-22.36-0.13-33.55-0.86c-11.21-0.73-22.41-1.52-33.66-1.41c-12.62,0.13-25.22,1.11-37.78,2.38
			C214.17,52.1,214.16,54.1,215.44,53.97L215.44,53.97z"/>
	</g>
</g>
</svg>
