<?xml version="1.0" encoding="utf-8"?>
<!-- Generator: Adobe Illustrator 23.1.1, SVG Export Plug-In . SVG Version: 6.00 Build 0)  -->
<svg version="1.1" id="Layer_1" xmlns="http://www.w3.org/2000/svg" xmlns:xlink="http://www.w3.org/1999/xlink" x="0px" y="0px"
	 viewBox="0 0 288 216" style="enable-background:new 0 0 288 216;" xml:space="preserve">
<style type="text/css">
	.st0{fill:#00A14B;}
	.st1{fill:#00AEEF;}
	.st2{fill:#662D91;}
	.st3{fill:#00A651;}
</style>
<g>
	<g>
		<g>
			<path class="st0" d="M21.16,114.53c0.12-5.87,1.63-11.65,4.38-16.83c-0.3-0.04-0.61-0.08-0.91-0.12
				c1.45,5.35,2.6,10.77,3.44,16.25c0.3-0.13,0.61-0.26,0.91-0.39c-0.13-0.23-0.26-0.45-0.39-0.68c-0.32-0.56-1.18-0.06-0.86,0.5
				c0.13,0.23,0.26,0.45,0.39,0.68c0.3,0.53,1,0.14,0.91-0.39c-0.84-5.48-1.99-10.91-3.44-16.25c-0.11-0.4-0.71-0.5-0.91-0.12
				c-2.84,5.34-4.39,11.29-4.52,17.33C20.14,115.17,21.14,115.17,21.16,114.53L21.16,114.53z"/>
		</g>
	</g>
	<g>
		<g>
			<path class="st0" d="M22.94,106.88c-0.19-0.11-0.36-0.24-0.49-0.42c-0.14,0.25-0.29,0.5-0.43,0.75c2.23-0.22,4.47-0.41,6.71-0.58
				c0.64-0.05,0.64-1.05,0-1c-2.24,0.17-4.48,0.36-6.71,0.58c-0.34,0.03-0.68,0.41-0.43,0.75c0.23,0.32,0.5,0.58,0.85,0.78
				C23,108.07,23.5,107.2,22.94,106.88L22.94,106.88z"/>
		</g>
	</g>
	<g>
		<g>
			<path class="st0" d="M31.01,113.13c-0.62-3.18-0.36-6.46,0.72-9.51c-0.32,0-0.64,0-0.96,0c0.42,1.86,0.84,3.72,1.26,5.58
				c0.17,0.76,0.26,1.63,0.7,2.29c0.28,0.43,0.88,0.88,1.36,0.44c0.47-0.42,0.49-1.49,0.57-2.07c0.11-0.84,0.16-1.68,0.21-2.52
				c0.12-1.95,0.25-3.9,0.37-5.85c0.04-0.64-0.96-0.64-1,0c-0.1,1.56-0.2,3.12-0.3,4.68c-0.09,1.45-0.11,2.94-0.41,4.37
				c-0.04,0.17-0.1,0.35-0.12,0.52c-0.02,0.07-0.04,0.14-0.06,0.21c0.08-0.1,0.16-0.19,0.24-0.29c0-0.08-0.17-0.34-0.21-0.43
				c-0.05-0.14-0.08-0.28-0.12-0.43c-0.18-0.74-0.34-1.48-0.5-2.22c-0.34-1.52-0.69-3.04-1.03-4.55c-0.12-0.51-0.81-0.43-0.96,0
				c-1.14,3.22-1.38,6.69-0.72,10.04C30.17,114.03,31.13,113.76,31.01,113.13L31.01,113.13z"/>
		</g>
	</g>
	<g>
		<g>
			<path class="st0" d="M37.77,100.65c-0.62,1.8-1.1,3.64-1.43,5.51c-0.29,1.65-0.74,3.62-0.15,5.25c0.22,0.59,0.61,1.1,1.25,1.23
				c0.63,0.13,1.32-0.14,1.74-0.62c1.12-1.31,0.18-3.03-0.65-4.18c-0.1,0.24-0.2,0.49-0.3,0.73c1.24-0.19,2.31-0.98,2.89-2.08
				c0.3-0.57-0.56-1.07-0.86-0.5c-0.48,0.9-1.29,1.47-2.3,1.62c-0.3,0.05-0.47,0.49-0.3,0.73c0.52,0.72,1.76,2.5,0.54,3.21
				c-1.34,0.77-1.3-1.91-1.24-2.59c0.22-2.74,0.89-5.47,1.78-8.06C38.94,100.31,37.98,100.05,37.77,100.65L37.77,100.65z"/>
		</g>
	</g>
	<g>
		<g>
			<path class="st0" d="M42.13,102.3c-0.78,2.96-1.45,5.95-1.94,8.97c-0.08,0.47-0.14,1.08,0.35,1.36c0.59,0.34,1.25-0.31,1.71-0.61
				c0.6-0.39,1.24-0.76,1.8-1.2c0.45-0.35,0.65-0.84,0.27-1.32c-0.4-0.5-1.11,0.21-0.71,0.71c0.02,0.03,0.04,0.05,0.07,0.08
				c-0.05-0.12-0.1-0.24-0.15-0.35c0.01,0.1-0.44,0.32-0.51,0.37c-0.24,0.16-0.48,0.32-0.72,0.47c-0.21,0.14-0.42,0.28-0.64,0.42
				c-0.09,0.06-0.72,0.39-0.72,0.47c0.06,0.05,0.12,0.09,0.18,0.14c0-0.04,0-0.08,0-0.12c0.05-0.09,0.04-0.26,0.06-0.36
				c0.05-0.28,0.1-0.57,0.15-0.85c0.1-0.53,0.2-1.07,0.3-1.6c0.42-2.13,0.9-4.24,1.46-6.34C43.26,101.95,42.3,101.68,42.13,102.3
				L42.13,102.3z"/>
		</g>
	</g>
	<g>
		<g>
			<path class="st0" d="M47.08,100.57c-0.83,3.81-1.5,7.66-2.01,11.53c-0.03,0.23,0.18,0.41,0.37,0.48
				c0.36,0.14,0.71,0.01,0.99-0.23c0.37-0.31,0.59-0.63,1.06-0.82c0.79-0.31,1.59-0.44,2.26-1c0.5-0.41-0.21-1.11-0.71-0.71
				c-0.53,0.44-1.27,0.52-1.89,0.77c-0.27,0.11-0.54,0.23-0.77,0.41c-0.16,0.12-0.6,0.64-0.68,0.61c0.12,0.16,0.24,0.32,0.37,0.48
				c0.5-3.78,1.17-7.54,1.98-11.26C48.18,100.21,47.22,99.94,47.08,100.57L47.08,100.57z"/>
		</g>
	</g>
	<g>
		<g>
			<path class="st0" d="M45.95,107.56c1.37,0.22,2.75,0,3.98-0.66c0.24-0.13,0.31-0.46,0.18-0.68c-0.14-0.24-0.45-0.31-0.68-0.18
				c-0.97,0.52-2.14,0.73-3.21,0.55c-0.27-0.04-0.54,0.07-0.62,0.35C45.54,107.19,45.68,107.52,45.95,107.56L45.95,107.56z"/>
		</g>
	</g>
	<g>
		<g>
			<path class="st0" d="M47.15,103.56c0.93-0.52,1.8-0.9,2.79-1.23c0.25-0.08,0.44-0.35,0.35-0.62c-0.08-0.25-0.35-0.44-0.62-0.35
				c-1.05,0.35-2.06,0.79-3.03,1.33c-0.23,0.13-0.32,0.46-0.18,0.68C46.61,103.61,46.9,103.69,47.15,103.56L47.15,103.56z"/>
		</g>
	</g>
</g>
<g>
	<g>
		<path class="st1" d="M187.89,97.86c-0.51-0.39-0.36-1.27-0.25-1.81c0.16-0.82,0.36-1.68,0.69-2.45c0.61-1.42,1.88-2.46,3.41-2.74
			c0.71-0.13,1.6-0.11,2.09,0.5c0.47,0.58,0.51,1.44,0.5,2.16c-0.01,1.47-0.47,3.08-1.65,4.05c-0.59,0.48-1.36,0.77-2.11,0.78
			c-0.39,0.01-0.79-0.05-1.15-0.2c-0.31-0.13-0.81-0.39-0.79-0.77c0.04-0.64-0.96-0.64-1,0c-0.06,1.02,1.08,1.66,1.94,1.86
			c0.89,0.21,1.83,0.1,2.66-0.26c1.88-0.8,2.84-2.72,3.05-4.67c0.11-0.95,0.09-2-0.28-2.89c-0.4-0.97-1.25-1.52-2.29-1.61
			c-1.96-0.17-3.95,1.03-4.94,2.68c-0.61,1.02-0.91,2.25-1.12,3.4c-0.19,1.04-0.18,2.14,0.73,2.83
			C187.9,99.11,188.4,98.25,187.89,97.86L187.89,97.86z"/>
	</g>
</g>
<g>
	<g>
		<path class="st1" d="M197.76,99.39c-0.73-0.91-1.06-2.07-1.19-3.21c-0.13-1.17-0.18-2.43-0.05-3.6c0.06-0.56,0.24-1.15,0.68-1.52
			c0.35-0.29,1.12-0.44,1.09,0.23c-0.04,1.01-1.28,2.23-2.31,2.08c-0.63-0.09-0.9,0.87-0.27,0.96c1.29,0.19,2.39-0.56,3.07-1.62
			c0.62-0.98,0.81-2.63-0.68-2.88c-1.26-0.21-2.21,0.94-2.48,2.06c-0.16,0.69-0.15,1.42-0.15,2.13c0,0.67,0.01,1.35,0.08,2.02
			c0.15,1.49,0.55,2.89,1.5,4.07C197.46,100.6,198.16,99.89,197.76,99.39L197.76,99.39z"/>
	</g>
</g>
<g>
	<g>
		<path class="st1" d="M200.74,99.49c-0.67-1.65-0.84-3.48-0.44-5.22c0.09-0.38,0.18-0.81,0.41-1.14c0.12-0.18,0.46-0.49,0.71-0.31
			c0.2,0.14,0.06,0.46-0.08,0.59c-0.27,0.24-0.73,0.21-1.06,0.14c-0.63-0.13-0.9,0.83-0.27,0.96c0.59,0.12,1.23,0.13,1.77-0.2
			c0.44-0.27,0.73-0.76,0.73-1.28c0.01-1.33-1.63-1.58-2.42-0.73c-0.42,0.45-0.6,1.05-0.74,1.63c-0.15,0.63-0.24,1.29-0.26,1.94
			c-0.04,1.32,0.19,2.65,0.68,3.88c0.1,0.25,0.33,0.42,0.62,0.35C200.63,100.04,200.84,99.74,200.74,99.49L200.74,99.49z"/>
	</g>
</g>
<g>
	<g>
		<path class="st1" d="M203.91,97.91c0.05-0.67,0.66-1.19,1.13-1.6c0.25-0.22,0.53-0.47,0.86-0.56c0.2-0.05,0.49-0.05,0.59,0.17
			c0.09,0.2-0.02,0.5-0.17,0.7c-0.17,0.24-0.41,0.41-0.67,0.54c-0.55,0.27-1.2,0.3-1.8,0.26c-0.35-0.03-0.75-0.06-1.06-0.22
			c-0.14-0.07-0.21-0.14-0.25-0.24c-0.02-0.06-0.02-0.07-0.01-0.15c-0.01,0.06,0.01-0.02,0.02-0.03c-0.01,0.02-0.01,0.03-0.03,0.04
			c0.22-0.16,0.33-0.43,0.18-0.68c-0.12-0.21-0.47-0.34-0.68-0.18c-0.44,0.33-0.59,0.86-0.39,1.38c0.22,0.54,0.75,0.83,1.29,0.95
			c0.91,0.2,1.95,0.24,2.83-0.09c0.92-0.33,1.86-1.16,1.77-2.23c-0.05-0.56-0.41-1.01-0.95-1.18c-0.54-0.16-1.12,0-1.57,0.3
			c-0.48,0.31-0.94,0.73-1.31,1.16c-0.42,0.48-0.72,1.02-0.77,1.67c-0.02,0.27,0.24,0.5,0.5,0.5
			C203.7,98.41,203.89,98.18,203.91,97.91L203.91,97.91z"/>
	</g>
</g>
<g>
	<g>
		<path class="st1" d="M210.46,90.79c-1.79,0.17-2.99,2.12-2.02,3.72c0.41,0.68,1.13,1.18,1.44,1.92c0.14,0.34,0.1,0.68-0.26,0.83
			c-0.36,0.15-0.76-0.08-0.98-0.36c-0.16-0.22-0.43-0.32-0.68-0.18c-0.21,0.12-0.34,0.47-0.18,0.68c0.59,0.79,1.66,1.22,2.54,0.61
			c0.92-0.64,0.71-1.79,0.13-2.59c-0.45-0.63-1.32-1.25-1.37-2.08c-0.05-0.76,0.65-1.49,1.39-1.56c0.27-0.03,0.5-0.21,0.5-0.5
			C210.96,91.04,210.73,90.76,210.46,90.79L210.46,90.79z"/>
	</g>
</g>
<g>
	<g>
		<path class="st1" d="M213.93,97.66c-0.63-1.67-0.94-3.43-0.93-5.21c0-0.64-1-0.64-1,0c-0.01,1.87,0.31,3.73,0.97,5.48
			c0.09,0.25,0.34,0.43,0.62,0.35C213.82,98.2,214.02,97.91,213.93,97.66L213.93,97.66z"/>
	</g>
</g>
<g>
	<g>
		<path class="st1" d="M213.18,93.34c0.91-1.09,2.08-1.95,3.38-2.44c0.25-0.09,0.43-0.34,0.35-0.62c-0.07-0.24-0.36-0.44-0.62-0.35
			c-1.48,0.56-2.81,1.47-3.82,2.7c-0.17,0.21-0.2,0.5,0,0.71C212.65,93.51,213.01,93.55,213.18,93.34L213.18,93.34z"/>
	</g>
</g>
<g>
	<g>
		<path class="st1" d="M214.92,90.48c-0.09,2.26,0,4.53,0.28,6.78c0.03,0.27,0.21,0.5,0.5,0.5c0.25,0,0.53-0.23,0.5-0.5
			c-0.27-2.25-0.37-4.51-0.28-6.78C215.94,89.84,214.94,89.84,214.92,90.48L214.92,90.48z"/>
	</g>
</g>
<g>
	<g>
		<path class="st1" d="M216.4,91.66c-0.18,1.58-0.36,3.16-0.54,4.74c-0.04,0.33,0.35,0.56,0.63,0.48c0.76-0.22,1.52-0.44,2.29-0.66
			c0.36-0.1,0.81-0.22,0.81-0.69c0-0.49-0.63-0.7-0.95-0.36c-0.15,0.16-0.19,0.41-0.08,0.61c0,0.01,0.01,0.01,0.01,0.02
			c0.32,0.56,1.19,0.05,0.86-0.5c0-0.01-0.01-0.01-0.01-0.02c-0.03,0.2-0.05,0.4-0.08,0.61c0.01-0.01,0.01-0.01,0.02-0.02
			c-0.07,0.04-0.15,0.09-0.22,0.13c0.01,0,0.02-0.01,0.03-0.01c-0.09,0-0.18,0-0.27,0c0.01,0,0.02,0,0.03,0.01
			c-0.1-0.08-0.2-0.15-0.3-0.23c0.01,0.01,0.01,0.02,0.02,0.03c-0.02-0.13-0.03-0.26-0.05-0.39c0,0.01-0.01,0.03-0.01,0.04
			c0.04-0.07,0.09-0.15,0.13-0.22c0.13-0.06,0.13-0.07,0.01-0.03c-0.06,0.02-0.12,0.03-0.18,0.05c-0.12,0.03-0.24,0.07-0.36,0.1
			c-0.21,0.06-0.42,0.12-0.63,0.18c-0.45,0.13-0.9,0.26-1.34,0.39c0.21,0.16,0.42,0.32,0.63,0.48c0.18-1.58,0.36-3.16,0.54-4.74
			c0.03-0.27-0.25-0.5-0.5-0.5C216.6,91.16,216.43,91.4,216.4,91.66L216.4,91.66z"/>
	</g>
</g>
<g>
	<g>
		<path class="st1" d="M216.58,93.71c0.69,0.14,1.39,0.19,2.09,0.13c0.26-0.02,0.51-0.21,0.5-0.5c-0.01-0.25-0.22-0.52-0.5-0.5
			c-0.32,0.03-0.64,0.03-0.96,0.01c-0.16-0.01-0.31-0.02-0.47-0.04c-0.13-0.02,0.11,0.02-0.02,0c-0.04-0.01-0.07-0.01-0.11-0.02
			c-0.09-0.01-0.17-0.03-0.26-0.05c-0.26-0.05-0.55,0.07-0.62,0.35C216.17,93.35,216.3,93.66,216.58,93.71L216.58,93.71z"/>
	</g>
</g>
<g>
	<g>
		<path class="st1" d="M217.1,91.86c0.82,0.19,1.66,0.21,2.49,0.08c0.26-0.04,0.43-0.38,0.35-0.62c-0.09-0.28-0.34-0.39-0.62-0.35
			c-0.03,0-0.06,0.01-0.08,0.01c0.06-0.01,0.07-0.01,0.03,0c-0.04,0-0.08,0.01-0.13,0.01c-0.09,0.01-0.18,0.02-0.27,0.02
			c-0.18,0.01-0.35,0.01-0.53,0.01c-0.17-0.01-0.35-0.01-0.53-0.04c0.12,0.02-0.02,0-0.03-0.01c-0.04-0.01-0.08-0.01-0.12-0.02
			c-0.1-0.02-0.19-0.04-0.29-0.06c-0.25-0.06-0.55,0.08-0.62,0.35C216.7,91.5,216.83,91.8,217.1,91.86L217.1,91.86z"/>
	</g>
</g>
<g>
	<g>
		<path class="st1" d="M227.57,89.91c-0.99-0.58-2.25-0.05-2.64,0.99c-0.42,1.1,0.14,2.13,0.9,2.91c0.66,0.68,1.47,1.38,1.09,2.43
			c-0.36,1-1.56,1.24-2.38,0.65c-0.52-0.38-1.02,0.49-0.5,0.86c0.9,0.65,2.2,0.61,3.06-0.08c0.8-0.65,1.14-1.84,0.78-2.81
			c-0.37-1-1.32-1.51-1.86-2.38c-0.25-0.41-0.34-0.95-0.09-1.38c0.23-0.39,0.74-0.56,1.13-0.32
			C227.62,91.1,228.13,90.24,227.57,89.91L227.57,89.91z"/>
	</g>
</g>
<g>
	<g>
		<path class="st1" d="M230.13,98.63c0.67-2.37,0.87-4.87,0.56-7.31c-0.03-0.27-0.21-0.5-0.5-0.5c-0.24,0-0.53,0.23-0.5,0.5
			c0.3,2.37,0.12,4.75-0.52,7.05C228.99,98.99,229.95,99.25,230.13,98.63L230.13,98.63z"/>
	</g>
</g>
<g>
	<g>
		<path class="st1" d="M233.19,98.17c-0.18-1.64-0.36-3.28-0.53-4.92c-0.08-0.75-0.2-1.52-0.23-2.27c-0.01-0.15-0.05-0.44,0.13-0.5
			c0.24-0.07,0.61,0.38,0.74,0.53c0.82,0.96,1.07,2.29,1.04,3.52c-0.02,0.58-0.09,1.23-0.46,1.71c-0.3,0.38-0.93,0.59-1.31,0.21
			c-0.45-0.46-1.16,0.24-0.71,0.71c0.91,0.94,2.42,0.43,3.01-0.6c0.64-1.13,0.56-2.69,0.29-3.91c-0.26-1.15-0.99-2.75-2.24-3.11
			c-0.63-0.18-1.25,0.17-1.43,0.8c-0.19,0.66,0.01,1.46,0.08,2.13c0.2,1.91,0.4,3.81,0.61,5.72
			C232.26,98.8,233.26,98.81,233.19,98.17L233.19,98.17z"/>
	</g>
</g>
<g>
	<g>
		<path class="st1" d="M235.49,92.51c0.04,0.99-0.01,1.98-0.17,2.95c-0.08,0.49-0.19,0.98-0.32,1.45c-0.12,0.44-0.35,0.91-0.38,1.37
			c-0.05,0.92,0.87,1.19,1.61,0.97c0.42-0.13,0.81-0.36,1.2-0.56c0.46-0.23,0.92-0.46,1.37-0.7c0.25-0.13,0.29-0.45,0.18-0.68
			c-0.2-0.39-0.55-0.58-0.97-0.62c-0.27-0.03-0.5,0.25-0.5,0.5c0,0.3,0.23,0.47,0.5,0.5c0.05,0.01,0.08,0.08,0.11,0.13
			c0.06-0.23,0.12-0.46,0.18-0.68c-0.72,0.37-1.44,0.8-2.2,1.11c-0.08,0.03-0.47,0.16-0.51,0.1c-0.01-0.01,0.08-0.26,0.09-0.29
			c0.07-0.2,0.13-0.4,0.19-0.6c0.47-1.6,0.67-3.28,0.6-4.94C236.46,91.87,235.46,91.86,235.49,92.51L235.49,92.51z"/>
	</g>
</g>
<g>
	<g>
		<path class="st1" d="M235.96,94.96c0.95-0.32,1.9-0.64,2.85-0.96c0.25-0.08,0.44-0.35,0.35-0.62c-0.08-0.25-0.35-0.44-0.62-0.35
			c-0.95,0.32-1.9,0.64-2.85,0.96c-0.25,0.08-0.44,0.35-0.35,0.62C235.43,94.85,235.7,95.05,235.96,94.96L235.96,94.96z"/>
	</g>
</g>
<g>
	<g>
		<path class="st1" d="M235.64,92.3c1.65-0.49,3.32-0.88,5.01-1.17c0.27-0.05,0.42-0.37,0.35-0.62c-0.08-0.28-0.35-0.39-0.62-0.35
			c-1.69,0.29-3.36,0.68-5.01,1.17C234.75,91.52,235.02,92.49,235.64,92.3L235.64,92.3z"/>
	</g>
</g>
<g>
	<g>
		<path class="st2" d="M188.44,106.21c-0.78,3.92-1.51,7.84-2.19,11.78c-0.11,0.63,0.85,0.9,0.96,0.27
			c0.68-3.94,1.41-7.86,2.19-11.78C189.53,105.85,188.57,105.58,188.44,106.21L188.44,106.21z"/>
	</g>
</g>
<g>
	<g>
		<path class="st2" d="M186.95,114.06c1.6-0.66,3.27-1.15,4.98-1.46c0.27-0.05,0.42-0.37,0.35-0.62c-0.08-0.28-0.35-0.4-0.62-0.35
			c-1.71,0.31-3.37,0.8-4.98,1.46c-0.25,0.1-0.43,0.33-0.35,0.62C186.4,113.95,186.7,114.16,186.95,114.06L186.95,114.06z"/>
	</g>
</g>
<g>
	<g>
		<path class="st2" d="M191.16,108.52c0.25,2.78,0.2,5.58-0.15,8.36c-0.08,0.64,0.92,0.63,1,0c0.34-2.77,0.39-5.57,0.15-8.36
			C192.1,107.88,191.1,107.88,191.16,108.52L191.16,108.52z"/>
	</g>
</g>
<g>
	<g>
		<path class="st2" d="M192.48,108.31c0.24,0.67,0.48,1.34,0.72,2.01c0.12,0.33,0.23,0.66,0.35,0.99c0.11,0.32,0.21,0.66,0.36,0.96
			c0.13,0.27,0.36,0.52,0.66,0.59c0.38,0.1,0.74-0.13,0.92-0.45c0.14-0.27,0.25-0.56,0.39-0.83c0.14-0.28,0.29-0.55,0.46-0.82
			c0.37-0.61,0.78-1.18,1.25-1.72c0.18-0.2,0.2-0.51,0-0.71c-0.18-0.18-0.53-0.2-0.71,0c-0.49,0.56-0.94,1.16-1.33,1.79
			c-0.19,0.3-0.36,0.6-0.52,0.91c-0.08,0.16-0.16,0.31-0.23,0.47c-0.03,0.07-0.06,0.14-0.09,0.21c-0.01,0.03-0.12,0.22-0.11,0.24
			c-0.06-0.15,0.28-0.04,0.28-0.04c-0.01,0-0.04-0.05-0.05-0.08c-0.07-0.12-0.1-0.25-0.16-0.41c-0.13-0.37-0.26-0.74-0.39-1.11
			c-0.27-0.76-0.54-1.53-0.82-2.29c-0.09-0.25-0.34-0.42-0.62-0.35C192.58,107.76,192.39,108.06,192.48,108.31L192.48,108.31z"/>
	</g>
</g>
<g>
	<g>
		<path class="st2" d="M195.54,110.44c-1.13,2.12-1.51,4.53-1.13,6.9c0.04,0.27,0.38,0.42,0.62,0.35c0.28-0.08,0.39-0.35,0.35-0.62
			c-0.34-2.09,0.04-4.27,1.03-6.13C196.71,110.37,195.84,109.87,195.54,110.44L195.54,110.44z"/>
	</g>
</g>
<g>
	<g>
		<path class="st2" d="M198.8,117.96c0.02-2.46,0.02-4.94,0.45-7.37c0.11-0.6,0.36-2.08,1.3-1.79c0.54,0.17,0.05,0.83-0.18,1.07
			c-0.36,0.38-0.81,0.63-1.32,0.76c-0.62,0.17-0.36,1.13,0.27,0.96c1.15-0.31,2.87-1.52,2.41-2.94c-0.38-1.17-1.98-1.07-2.68-0.29
			c-0.43,0.49-0.61,1.14-0.73,1.76c-0.16,0.82-0.26,1.66-0.34,2.49c-0.16,1.77-0.17,3.55-0.18,5.32
			C197.8,118.6,198.8,118.6,198.8,117.96L198.8,117.96z"/>
	</g>
</g>
<g>
	<g>
		<path class="st2" d="M202.96,113.61c0.16-0.81,0.39-1.6,0.69-2.37c0.12-0.3,0.24-0.68,0.46-0.93c0.12-0.14,0.12-0.05,0.04-0.12
			c0.09,0.09,0.14,0.22,0.19,0.34c0.24,0.69,0.08,1.43-0.15,2.1c-0.21,0.61-0.49,1.37-1.07,1.72c-0.24,0.15-0.59,0.25-0.85,0.08
			c-0.16-0.1-0.3-0.35-0.23-0.51c0.11-0.24,0.07-0.54-0.18-0.68c-0.22-0.13-0.57-0.07-0.68,0.18c-0.45,0.98,0.29,2.03,1.33,2.09
			c1.1,0.07,1.9-0.85,2.31-1.76c0.44-0.98,0.78-2.07,0.57-3.15c-0.09-0.48-0.33-1.08-0.8-1.3c-0.53-0.25-1.03,0.07-1.34,0.5
			c-0.35,0.48-0.55,1.12-0.75,1.68c-0.22,0.61-0.39,1.24-0.51,1.88c-0.05,0.26,0.07,0.54,0.35,0.62
			C202.59,114.03,202.91,113.88,202.96,113.61L202.96,113.61z"/>
	</g>
</g>
<g>
	<g>
		<path class="st2" d="M205.8,110.03c0.93-0.44,1.89-0.82,2.88-1.12c0.5-0.15,1-0.29,1.5-0.4c0.25-0.06,0.51-0.13,0.76-0.16
			c0.05-0.01,0.11-0.01,0.17-0.01c0.13-0.02,0.09,0.04,0.05-0.02c0.33,0.55,1.2,0.05,0.86-0.5c-0.3-0.49-0.84-0.52-1.34-0.43
			c-0.62,0.11-1.23,0.27-1.84,0.44c-1.22,0.35-2.4,0.8-3.54,1.35C204.72,109.44,205.23,110.3,205.8,110.03L205.8,110.03z"/>
	</g>
</g>
<g>
	<g>
		<path class="st2" d="M208.93,109.61c-0.15,1.8-0.31,3.61-0.46,5.41c-0.02,0.27,0.25,0.5,0.5,0.5c0.29,0,0.48-0.23,0.5-0.5
			c0.15-1.8,0.31-3.61,0.46-5.41c0.02-0.27-0.25-0.5-0.5-0.5C209.14,109.11,208.95,109.34,208.93,109.61L208.93,109.61z"/>
	</g>
</g>
<g>
	<g>
		<path class="st2" d="M211.63,109.45c0.06,2.46-0.45,4.9-1.52,7.11c-0.15,0.31,0.02,0.78,0.43,0.75c0.84-0.06,1.65-0.25,2.43-0.58
			c0.57-0.24,1.55-0.77,1.06-1.54c-0.35-0.54-1.21-0.04-0.86,0.5c0.05-0.19,0.04-0.25-0.02-0.18c-0.02,0.03-0.05,0.04-0.08,0.06
			c-0.12,0.04-0.24,0.13-0.35,0.18c-0.22,0.1-0.45,0.19-0.68,0.26c-0.48,0.15-0.98,0.25-1.49,0.29c0.14,0.25,0.29,0.5,0.43,0.75
			c1.15-2.37,1.73-4.98,1.66-7.62C212.62,108.81,211.62,108.8,211.63,109.45L211.63,109.45z"/>
	</g>
</g>
<g>
	<g>
		<path class="st2" d="M212.82,112.89c0.64,0,0.64-1,0-1C212.18,111.89,212.18,112.89,212.82,112.89L212.82,112.89z"/>
	</g>
</g>
<g>
	<g>
		<path class="st2" d="M212.36,110.1c0.77-0.05,1.55-0.1,2.32-0.16c0.26-0.02,0.51-0.22,0.5-0.5c-0.01-0.26-0.22-0.52-0.5-0.5
			c-0.77,0.05-1.55,0.1-2.32,0.16c-0.26,0.02-0.51,0.22-0.5,0.5C211.87,109.85,212.08,110.11,212.36,110.1L212.36,110.1z"/>
	</g>
</g>
<g>
	<g>
		<path class="st2" d="M216.15,116.24c0.47-2.14,0.95-4.28,1.42-6.42c-0.32,0-0.64,0-0.96,0c0.44,1.77,0.88,3.54,1.33,5.31
			c0.12,0.47,0.86,0.49,0.96,0c0.41-1.91,0.82-3.82,1.23-5.73c0.13-0.63-0.83-0.9-0.96-0.27c-0.41,1.91-0.82,3.82-1.23,5.73
			c0.32,0,0.64,0,0.96,0c-0.44-1.77-0.88-3.54-1.33-5.31c-0.12-0.47-0.86-0.49-0.96,0c-0.47,2.14-0.95,4.28-1.42,6.42
			C215.05,116.6,216.01,116.87,216.15,116.24L216.15,116.24z"/>
	</g>
</g>
<g>
	<g>
		<path class="st2" d="M220.72,110.22c0.06,0.76,0.36,1.47,0.86,2.04c0.46,0.53,1.36,1.21,2.08,0.77c0.35-0.22,0.5-0.61,0.65-0.97
			c0.16-0.39,0.3-0.78,0.42-1.18c0.24-0.82,0.38-1.67,0.43-2.52c0.02-0.27-0.24-0.5-0.5-0.5c-0.28,0-0.48,0.23-0.5,0.5
			c-0.04,0.66-0.14,1.31-0.31,1.95c-0.15,0.59-0.33,1.24-0.64,1.77c-0.02,0.04-0.04,0.07-0.06,0.09c-0.06,0.04,0.01,0.01,0,0.01
			c-0.09,0-0.19-0.08-0.26-0.12c-0.22-0.13-0.42-0.3-0.59-0.5c-0.32-0.37-0.53-0.87-0.57-1.34c-0.02-0.27-0.21-0.5-0.5-0.5
			C220.96,109.72,220.69,109.95,220.72,110.22L220.72,110.22z"/>
	</g>
</g>
<g>
	<g>
		<path class="st2" d="M226.5,107.51c-0.67,0.61-1.34,1.32-1.54,2.24c-0.19,0.89,0.09,1.66,0.71,2.29c0.45,0.46,1.19,0.96,0.81,1.69
			c-0.44,0.84-1.54,0.89-2.37,0.95c-0.64,0.04-0.64,1.04,0,1c0.96-0.06,1.99-0.16,2.74-0.83c0.68-0.61,0.96-1.58,0.51-2.41
			c-0.37-0.67-1.26-1.07-1.44-1.83c-0.23-0.98,0.63-1.81,1.28-2.4C227.69,107.78,226.98,107.07,226.5,107.51L226.5,107.51z"/>
	</g>
</g>
<g>
	<g>
		<path class="st2" d="M228.8,110.11c0.12-0.14,0.24-0.27,0.35-0.41c-0.28-0.16-0.56-0.32-0.84-0.49c-0.14,0.98-0.29,1.96-0.43,2.94
			c-0.07,0.48-0.14,0.96-0.21,1.44c-0.06,0.44-0.21,0.95-0.09,1.38c0.24,0.83,1.29,0.96,2.01,0.86c0.8-0.11,1.47-0.54,1.95-1.18
			c0.16-0.22,0.04-0.56-0.18-0.68c-0.25-0.15-0.52-0.04-0.68,0.18c-0.3,0.4-0.8,0.66-1.3,0.71c-0.23,0.02-0.53,0.02-0.74-0.08
			c-0.21-0.1-0.07-0.5-0.04-0.69c0.23-1.54,0.45-3.08,0.68-4.62c0.03-0.22-0.02-0.44-0.23-0.56c-0.18-0.11-0.46-0.09-0.61,0.08
			c-0.12,0.14-0.24,0.27-0.35,0.41C227.67,109.89,228.38,110.6,228.8,110.11L228.8,110.11z"/>
	</g>
</g>
<g>
	<g>
		<path class="st2" d="M228.92,112.32c0.93-0.1,1.86-0.2,2.78-0.3c0.26-0.03,0.51-0.21,0.5-0.5c-0.01-0.25-0.22-0.53-0.5-0.5
			c-0.93,0.1-1.86,0.2-2.78,0.3c-0.26,0.03-0.51,0.21-0.5,0.5C228.43,112.07,228.64,112.36,228.92,112.32L228.92,112.32z"/>
	</g>
</g>
<g>
	<g>
		<path class="st2" d="M228.57,109.89c1.6-0.25,3.2-0.5,4.8-0.74c0.27-0.04,0.41-0.38,0.35-0.62c-0.08-0.29-0.35-0.39-0.62-0.35
			c-1.6,0.25-3.2,0.5-4.8,0.74c-0.27,0.04-0.41,0.38-0.35,0.62C228.03,109.82,228.3,109.93,228.57,109.89L228.57,109.89z"/>
	</g>
</g>
<g>
	<g>
		<path class="st2" d="M242.09,107.32c-0.49,1.45-0.99,2.89-1.48,4.34c-0.24,0.71-0.48,1.42-0.73,2.13
			c-0.24,0.7-0.58,1.43-0.73,2.16c-0.12,0.55,0.22,1,0.79,1.03c0.57,0.02,1.22-0.25,1.75-0.44c1.27-0.45,2.46-1.08,3.54-1.89
			c0.51-0.38,0.01-1.25-0.5-0.86c-0.88,0.66-1.84,1.22-2.86,1.62c-0.53,0.21-1.08,0.39-1.63,0.52c-0.09,0.02-0.33,0.01-0.16,0.11
			c0.16,0.1,0.15-0.14,0.2-0.28c0.11-0.31,0.21-0.62,0.32-0.94c0.82-2.41,1.64-4.82,2.47-7.23
			C243.27,106.98,242.3,106.72,242.09,107.32L242.09,107.32z"/>
	</g>
</g>
<g>
	<g>
		<path class="st2" d="M246.93,108.72c-0.62,2.63-1.24,5.25-1.86,7.88c-0.07,0.3,0.15,0.65,0.48,0.63c1.58-0.08,3.11-0.53,4.48-1.33
			c0.56-0.32,0.05-1.19-0.5-0.86c-1.22,0.71-2.57,1.12-3.98,1.19c0.16,0.21,0.32,0.42,0.48,0.63c0.62-2.63,1.24-5.25,1.86-7.88
			C248.04,108.36,247.08,108.1,246.93,108.72L246.93,108.72z"/>
	</g>
</g>
<g>
	<g>
		<path class="st2" d="M246.41,113.02c0.46,0.06,0.91,0.06,1.37-0.04c0.41-0.09,0.82-0.25,1.18-0.48c0.22-0.14,0.33-0.45,0.18-0.68
			c-0.14-0.22-0.45-0.33-0.68-0.18c-0.08,0.05-0.17,0.1-0.25,0.14c-0.03,0.02-0.07,0.03-0.1,0.05c-0.02,0.01-0.04,0.02-0.07,0.03
			c0.06-0.03,0.07-0.03,0.02-0.01c-0.16,0.06-0.33,0.12-0.5,0.16c-0.04,0.01-0.08,0.02-0.12,0.03c-0.02,0-0.05,0.01-0.07,0.01
			c-0.06,0.01-0.05,0.01,0.02,0c-0.08-0.01-0.17,0.02-0.25,0.02c-0.08,0-0.17,0-0.25,0c-0.05,0-0.1,0-0.15-0.01
			c-0.03,0-0.19-0.02-0.05,0c-0.14-0.02-0.26-0.02-0.39,0.05c-0.1,0.06-0.2,0.18-0.23,0.3
			C246.01,112.64,246.13,112.98,246.41,113.02L246.41,113.02z"/>
	</g>
</g>
<g>
	<g>
		<path class="st2" d="M247.45,110.09c0.19-0.06,0.39-0.11,0.58-0.16c0.11-0.02,0.21-0.04,0.32-0.06c0.05-0.01,0.09-0.02,0.14-0.02
			c0.03,0,0.06-0.01,0.09-0.01c-0.05,0.01-0.05,0.01-0.02,0c0.41-0.04,0.82-0.06,1.23-0.04c0.26,0.01,0.51-0.24,0.5-0.5
			c-0.01-0.28-0.22-0.49-0.5-0.5c-0.88-0.05-1.77,0.07-2.61,0.33c-0.25,0.08-0.43,0.35-0.35,0.62
			C246.91,109.99,247.18,110.17,247.45,110.09L247.45,110.09z"/>
	</g>
</g>
<g>
	<g>
		<path class="st2" d="M251.87,116.88c0.12-1.76,0.34-3.51,0.67-5.25c-0.32,0-0.64,0-0.96,0c0.32,1.21,0.78,2.37,1.36,3.47
			c0.19,0.37,0.83,0.3,0.91-0.12c0.32-1.59,0.64-3.18,0.96-4.77c0.13-0.63-0.84-0.9-0.96-0.27c-0.32,1.59-0.64,3.18-0.96,4.77
			c0.3-0.04,0.61-0.08,0.91-0.12c-0.54-1.03-0.96-2.11-1.26-3.23c-0.12-0.45-0.87-0.5-0.96,0c-0.34,1.82-0.57,3.66-0.7,5.51
			C250.82,117.52,251.82,117.52,251.87,116.88L251.87,116.88z"/>
	</g>
</g>
<g>
	<g>
		<path class="st2" d="M255.41,107.94c-0.23,1.51-0.43,3.02-0.6,4.54c-0.08,0.76-0.16,1.53-0.23,2.3c-0.05,0.58-0.15,1.18,0.05,1.75
			c0.16,0.45,0.52,0.81,1.02,0.81c0.61,0,1.11-0.54,1.35-1.05c0.52-1.14,0.01-2.39-0.91-3.14c-0.07,0.28-0.15,0.56-0.22,0.84
			c1-0.3,1.83-0.91,2.42-1.77c0.37-0.53-0.5-1.03-0.86-0.5c-0.44,0.64-1.08,1.09-1.82,1.31c-0.33,0.1-0.52,0.59-0.22,0.84
			c0.62,0.51,1.13,1.38,0.63,2.16c-0.05,0.08-0.25,0.36-0.37,0.33c-0.07-0.02-0.11-0.27-0.12-0.32c-0.08-0.43,0.02-0.9,0.06-1.32
			c0.19-2.17,0.46-4.33,0.79-6.49C256.48,107.57,255.51,107.3,255.41,107.94L255.41,107.94z"/>
	</g>
</g>
<g>
	<g>
		<path class="st2" d="M258.07,109.71c1.58-0.76,3.28-1.26,5.01-1.48c0.27-0.03,0.5-0.21,0.5-0.5c0-0.24-0.23-0.53-0.5-0.5
			c-1.92,0.24-3.77,0.78-5.52,1.62c-0.24,0.12-0.31,0.46-0.18,0.68C257.54,109.78,257.83,109.82,258.07,109.71L258.07,109.71z"/>
	</g>
</g>
<g>
	<g>
		<path class="st2" d="M260.04,108.99c-0.53,2.32-1.01,4.65-1.44,6.98c-0.11,0.63,0.85,0.9,0.96,0.27c0.42-2.34,0.9-4.67,1.44-6.98
			C261.15,108.63,260.18,108.36,260.04,108.99L260.04,108.99z"/>
	</g>
</g>
<g>
	<g>
		<path class="st2" d="M263.4,109.62c-0.13-0.09-0.18-0.06-0.13,0.07c-0.01,0.06-0.02,0.12-0.04,0.18c-0.03,0.13-0.07,0.26-0.1,0.39
			c-0.08,0.29-0.15,0.57-0.23,0.86c-0.15,0.55-0.31,1.1-0.48,1.64c-0.34,1.11-0.7,2.22-1.09,3.32c-0.22,0.61,0.75,0.87,0.96,0.27
			c0.51-1.44,0.98-2.9,1.4-4.37c0.2-0.7,0.48-1.44,0.56-2.17c0.08-0.69-0.4-1.28-1.12-1.16C262.5,108.77,262.77,109.73,263.4,109.62
			L263.4,109.62z"/>
	</g>
</g>
<g>
	<g>
		<path class="st2" d="M263,113.69c0.83-0.68,2.02-0.91,3.05-0.64c0.62,0.17,0.89-0.8,0.27-0.96c-1.4-0.37-2.9-0.02-4.02,0.9
			c-0.21,0.17-0.18,0.53,0,0.71C262.5,113.9,262.79,113.86,263,113.69L263,113.69z"/>
	</g>
</g>
<g>
	<g>
		<path class="st2" d="M265.52,109.45c0.05,1.22,0.04,2.44-0.04,3.65c-0.05,0.75-0.07,1.81-0.76,2.28c-0.53,0.36-0.03,1.23,0.5,0.86
			c0.9-0.62,1.13-1.66,1.22-2.68c0.12-1.37,0.14-2.75,0.08-4.12C266.49,108.81,265.49,108.81,265.52,109.45L265.52,109.45z"/>
	</g>
</g>
<g>
	<g>
		<path d="M183.6,102.35c-0.55,0.29-0.34,0.88,0.15,1.06c0.31,0.11,0.68,0.14,1.01,0.18c1.39,0.17,2.79,0.25,4.18,0.32
			c5.22,0.28,10.45,0.35,15.67,0.33c13.21-0.04,26.38-1.04,39.55-1.9c3.78-0.25,7.56-0.53,11.34-0.79c1.86-0.13,3.73-0.23,5.6-0.21
			c0.97,0.01,1.94,0.06,2.91,0.15c0.51,0.05,1.07,0.05,1.56,0.19c0.32,0.09,0.53,0.27,0.8,0.46c0.53,0.37,1.03-0.5,0.5-0.86
			c-0.51-0.36-0.89-0.54-1.52-0.63c-0.77-0.1-1.54-0.18-2.31-0.23c-1.62-0.1-3.24-0.09-4.87-0.02c-3.32,0.14-6.63,0.45-9.94,0.67
			c-6.55,0.45-13.11,0.82-19.66,1.26c-11.97,0.81-23.95,1.14-35.94,0.74c-2.07-0.07-4.15-0.16-6.22-0.32
			c-0.56-0.04-1.2-0.1-1.72-0.17c-0.17-0.02-0.35-0.06-0.52-0.09c-0.04-0.01-0.13-0.05-0.17-0.05c-0.06,0.01,0.05,0,0.06,0.03
			c-0.05-0.12,0.17,0.19,0.17,0.25c-0.02,0.13-0.03,0.26-0.05,0.39c-0.03,0.04-0.06,0.08-0.09,0.11
			C184.67,102.91,184.17,102.05,183.6,102.35L183.6,102.35z"/>
	</g>
</g>
<g>
	<g>
		<path d="M106.67,49.46c-2.11,0.4-3.65,1.99-4.94,3.6c-0.78,0.98-1.52,1.99-2.22,3.03c-0.35,0.52-0.68,1.05-1,1.58
			c-0.25,0.43-0.53,0.87-0.5,1.39c0.05,0.85,0.85,1.27,1.6,1.39c1.08,0.18,2.25,0,3.35-0.04c0.64-0.02,1.28-0.05,1.91-0.07
			c0.21-0.01,0.66-0.09,0.85,0.04c0.24,0.15,0.33,0.61,0.4,0.86c0.26,0.98,0.21,2.14-0.41,2.98c-0.71,0.96-1.97,1.27-3.08,1.5
			c-0.35,0.07-0.71,0.16-1.07,0.19c-0.14,0.01-0.28,0.02-0.42,0.02c-0.2,0-0.43-0.12-0.6-0.11c-0.04-0.02-0.09-0.03-0.13-0.05
			c0.04,0.13,0.09,0.15,0.16,0.05c0.16-0.11,0.3-0.23,0.47-0.34c0.31-0.19,0.63-0.34,0.97-0.47c0.6-0.22,0.34-1.18-0.27-0.96
			c-0.72,0.26-2.5,0.96-2.31,1.97c0.21,1.16,2.1,0.92,2.89,0.77c2.15-0.39,4.45-1.18,4.87-3.62c0.17-1.01,0.06-2.24-0.47-3.14
			c-0.62-1.06-2.15-0.68-3.17-0.65c-0.72,0.03-1.43,0.05-2.15,0.08c-0.57,0.02-1.19,0.1-1.76-0.03c-0.21-0.05-0.54-0.13-0.62-0.38
			c-0.09-0.29,0.21-0.66,0.35-0.89c0.38-0.64,0.78-1.26,1.2-1.87c0.87-1.28,1.79-2.55,2.84-3.68c0.97-1.04,2.09-1.92,3.52-2.2
			C107.57,50.31,107.3,49.34,106.67,49.46L106.67,49.46z"/>
	</g>
</g>
<g>
	<g>
		<path d="M110.06,64.55c-0.09,0.1,0,0.04-0.04,0.01c-0.03-0.03-0.04-0.03-0.06-0.07c-0.11-0.16-0.08-0.43-0.08-0.61
			c-0.01-0.59-0.01-1.19-0.01-1.78c-0.01-1.19-0.01-2.38-0.02-3.57c0-0.64-1-0.64-1,0c0.01,1.57,0.01,3.14,0.02,4.72
			c0,0.63-0.09,1.42,0.35,1.93c0.38,0.44,1.14,0.55,1.54,0.08C111.18,64.77,110.48,64.06,110.06,64.55L110.06,64.55z"/>
	</g>
</g>
<g>
	<g>
		<path d="M111.27,59.43c0.03,1.59,0.15,3.18,0.37,4.76c0.03,0.25,0.16,0.46,0.43,0.49c0.24,0.03,0.49-0.11,0.55-0.36
			c0.46-1.85,0.97-3.87,2.53-5.13c-0.26-0.03-0.52-0.07-0.79-0.1c0.39,0.71,0.64,1.5,0.71,2.3c0.03,0.41,0.03,0.82-0.02,1.23
			c-0.02,0.2-0.06,0.39-0.11,0.59c-0.02,0.07-0.03,0.18-0.07,0.25c-0.11,0.23-0.1-0.08,0.2,0.07c-0.57-0.3-1.08,0.56-0.5,0.86
			c0.59,0.31,1.1-0.16,1.28-0.71c0.18-0.55,0.23-1.17,0.23-1.75c0-1.17-0.3-2.33-0.86-3.35c-0.17-0.31-0.54-0.3-0.79-0.1
			c-1.69,1.36-2.29,3.56-2.79,5.57c0.33,0.04,0.65,0.09,0.98,0.13c-0.21-1.58-0.33-3.17-0.37-4.76
			C112.26,58.79,111.26,58.79,111.27,59.43L111.27,59.43z"/>
	</g>
</g>
<g>
	<g>
		<path d="M122.86,46.66c-2.83,3.09-3.65,7.48-3.92,11.52c-0.14,2.03-0.06,4.15,0.6,6.1c0.55,1.63,1.77,4.16,3.87,3.8
			c0.63-0.11,0.36-1.07-0.27-0.96c-1,0.17-1.72-1.14-2.11-1.87c-0.42-0.81-0.7-1.68-0.89-2.57c-0.35-1.74-0.31-3.55-0.15-5.31
			c0.33-3.53,1.09-7.32,3.56-10.01C124,46.89,123.3,46.18,122.86,46.66L122.86,46.66z"/>
	</g>
</g>
<g>
	<g>
		<path class="st3" d="M128.54,55.24c0.19,2,0.39,3.99,0.58,5.99c0.31-0.08,0.62-0.17,0.93-0.25c-0.84-1.96-1.84-3.86-3.01-5.64
			c-0.46-0.7-0.97-1.73-1.77-2.08c-0.7-0.3-1.41,0.04-1.74,0.69c-0.38,0.75-0.3,1.61-0.23,2.41c0.1,1.05,0.28,2.09,0.55,3.11
			c0.26,0.98,0.55,2.02,1.03,2.92c0.45,0.85,1.22,1.3,2.14,1.49c1.6,0.34,3.7,0.01,4.46-1.63c0.27-0.58-0.59-1.09-0.86-0.5
			c-0.51,1.11-1.84,1.37-2.96,1.24c-0.75-0.09-1.49-0.33-1.87-1.02c-0.4-0.71-0.63-1.54-0.85-2.32c-0.23-0.8-0.41-1.62-0.53-2.44
			c-0.11-0.72-0.25-1.53-0.15-2.25c0.09-0.59,0.41-1.09,0.94-0.5c0.53,0.59,0.95,1.33,1.37,2c1.01,1.61,1.88,3.3,2.63,5.04
			c0.19,0.45,0.98,0.23,0.93-0.25c-0.19-2-0.39-3.99-0.58-5.99C129.48,54.6,128.48,54.6,128.54,55.24L128.54,55.24z"/>
	</g>
</g>
<g>
	<g>
		<path class="st3" d="M131.52,54.33c-0.17,2.64-0.05,5.28,0.33,7.9c0.08,0.56,1.01,0.43,0.98-0.13c-0.15-2.71,0.51-5.39,1.9-7.71
			c-0.26,0.03-0.52,0.07-0.79,0.1c0.77,0.6,0.69,1.73,0.66,2.61c-0.04,1.21-0.22,2.41-0.53,3.58c0.33,0.04,0.65,0.09,0.98,0.13
			c-0.01-0.27-0.02-0.55-0.03-0.82c-0.02-0.64-1.02-0.64-1,0c0.01,0.27,0.02,0.55,0.03,0.82c0.02,0.55,0.84,0.69,0.98,0.13
			c0.35-1.35,0.55-2.75,0.57-4.15c0.02-1.05-0.05-2.31-0.96-3.01c-0.25-0.2-0.6-0.2-0.79,0.1c-1.48,2.46-2.2,5.34-2.04,8.21
			c0.33-0.04,0.65-0.09,0.98-0.13c-0.37-2.52-0.47-5.09-0.3-7.63C132.56,53.68,131.56,53.69,131.52,54.33L131.52,54.33z"/>
	</g>
</g>
<g>
	<g>
		<path class="st3" d="M135.69,53.59c-0.11,0.99,0.06,1.99,0.49,2.9c0.3,0.62,0.99,1.68,1.77,1.01c0.65-0.55,0.36-1.56,0.13-2.24
			c-0.34-0.97-0.88-1.84-1.58-2.6c-0.24,0.24-0.47,0.47-0.71,0.71c2.17,1.91,3.98,5.09,3.44,8.08c-0.25,1.35-1.14,2.68-2.52,3.05
			c-1.19,0.32-2.59-0.32-2.94-1.54c-0.18-0.62-1.14-0.36-0.96,0.27c0.41,1.44,1.83,2.38,3.31,2.36c1.68-0.02,3.1-1.28,3.74-2.77
			c1.5-3.52-0.71-7.82-3.36-10.15c-0.48-0.42-1.14,0.23-0.71,0.71c0.41,0.45,0.76,0.94,1.03,1.48c0.27,0.54,0.34,1.11,0.53,1.66
			c0.05,0.15-0.07,0.1,0.09,0.17c-0.08-0.03-0.18-0.27-0.23-0.35c-0.16-0.27-0.28-0.56-0.38-0.85c-0.19-0.62-0.23-1.24-0.16-1.88
			C136.77,52.95,135.76,52.96,135.69,53.59L135.69,53.59z"/>
	</g>
</g>
<g>
	<g>
		<path class="st3" d="M142.45,49.94c-0.26,4.12-0.77,8.21-1.52,12.26c-0.12,0.63,0.85,0.9,0.96,0.27
			c0.77-4.14,1.29-8.33,1.56-12.53C143.5,49.3,142.5,49.3,142.45,49.94L142.45,49.94z"/>
	</g>
</g>
<g>
	<g>
		<path class="st3" d="M144.48,58.05c0.5-0.7,1-1.41,1.49-2.11c0.39-0.55,0.84-1.11,0.96-1.8c0.1-0.63-0.17-1.26-0.83-1.44
			c-0.65-0.17-1.36,0.21-1.78,0.68c-0.9,1-1.11,2.6-1.11,3.89c0,1.4,0.46,2.83,1.62,3.69c1.19,0.88,2.91,0.72,3.81-0.48
			c0.39-0.51-0.48-1.01-0.86-0.5c-0.52,0.7-1.59,0.68-2.27,0.25c-0.84-0.54-1.23-1.58-1.29-2.54c-0.06-0.99,0.05-2.14,0.47-3.05
			c0.17-0.36,0.41-0.72,0.78-0.89c0.53-0.24,0.54,0.13,0.39,0.51c-0.21,0.54-0.64,1.01-0.97,1.48c-0.43,0.6-0.85,1.21-1.28,1.81
			C143.24,58.07,144.11,58.57,144.48,58.05L144.48,58.05z"/>
	</g>
</g>
<g>
	<g>
		<path d="M148.58,44.86c2.22,3.11,3.25,6.83,3.68,10.59c0.22,1.89,0.3,3.79,0.33,5.69c0.03,1.64,0.16,3.55-0.72,5.01
			c-1.15,1.9-3.62,1.61-5.5,1.3c-0.63-0.1-0.9,0.86-0.27,0.96c1.81,0.3,3.92,0.58,5.52-0.56c1.51-1.07,1.89-2.97,1.96-4.71
			c0.09-2.07-0.02-4.19-0.19-6.25c-0.17-2.09-0.47-4.19-1.03-6.21c-0.62-2.26-1.57-4.42-2.93-6.33
			C149.07,43.84,148.2,44.34,148.58,44.86L148.58,44.86z"/>
	</g>
</g>
<g>
	<g>
		<path d="M182.15,121.67c-5.58,5.85-12.89,9.61-20.56,11.93c-8.61,2.61-17.69,3.59-26.65,3.8c-5,0.12-10-0.06-14.99-0.41
			c-4.9-0.34-9.8-0.73-14.68-1.24c-9.26-0.97-18.41-2.83-27.31-5.55c-4.46-1.36-8.85-2.94-13.15-4.72c-2.13-0.88-4.23-1.82-6.32-2.8
			c-1.75-0.83-3.66-1.62-5.09-2.96c-0.61-0.57-1.1-1.23-1.36-2.03c-0.35-1.05-1.95-0.9-1.96,0.27c-0.04,4.52,0.16,9.05,0.62,13.55
			c0.65-0.09,1.31-0.18,1.96-0.27c-1.03-4.48-1.44-9.06-1.24-13.66c-0.33,0.33-0.67,0.67-1,1c3.85-0.15,7.68,0.16,11.45,0.95
			c1.26,0.26,1.79-1.66,0.53-1.93c-3.94-0.83-7.96-1.18-11.98-1.02c-0.56,0.02-0.98,0.44-1,1c-0.21,4.76,0.24,9.54,1.31,14.19
			c0.25,1.08,2.08,0.87,1.96-0.27c-0.46-4.5-0.67-9.02-0.62-13.55c-0.65,0.09-1.31,0.18-1.96,0.27c0.62,1.89,2.04,3.25,3.7,4.29
			c1.85,1.16,3.9,2.02,5.88,2.92c4.36,1.97,8.82,3.74,13.35,5.28c9.03,3.07,18.34,5.25,27.79,6.51c4.93,0.66,9.89,1.04,14.85,1.44
			c5.11,0.41,10.22,0.75,15.35,0.77c9.48,0.04,19.12-0.74,28.33-3.13c8.01-2.08,15.82-5.53,22.03-11.09
			c0.76-0.68,1.49-1.39,2.19-2.13C184.45,122.16,183.04,120.74,182.15,121.67L182.15,121.67z"/>
	</g>
</g>
<g>
	<g>
		<path d="M103.92,149.57c-1.99-0.59-4,0.45-5.57,1.63c-1.47,1.1-3.13,2.69-3.72,4.49c-0.27,0.81-0.16,1.7,0.53,2.26
			c0.74,0.6,1.87,0.74,2.78,0.85c1.08,0.12,2.11-0.05,3.18-0.12c0.41-0.03,0.91-0.06,1.27,0.18c0.49,0.32,0.46,0.96,0.2,1.42
			c-0.55,0.98-2.01,1.32-3,1.62c-1.32,0.4-2.67,0.68-4.04,0.83c-0.64,0.07-0.64,0.93,0,1c0.26,0.03,0.52,0.06,0.79,0.09
			c0.64,0.07,0.63-0.93,0-1c-0.26-0.03-0.52-0.06-0.79-0.09c0,0.33,0,0.67,0,1c2.14-0.23,4.37-0.68,6.33-1.61
			c0.78-0.37,1.5-0.94,1.78-1.78c0.25-0.74,0.13-1.59-0.47-2.13c-0.61-0.55-1.47-0.59-2.24-0.52c-1.13,0.1-2.21,0.24-3.34,0.06
			c-0.97-0.15-2.42-0.4-2.04-1.71c0.28-0.96,1.07-1.85,1.74-2.57c1.49-1.6,4.01-3.63,6.35-2.94
			C104.27,150.72,104.53,149.75,103.92,149.57L103.92,149.57z"/>
	</g>
</g>
<g>
	<g>
		<path d="M106.1,162.67c-0.34-0.14-0.4-0.67-0.42-0.97c-0.04-0.56,0.02-1.13,0.05-1.7c0.06-1.38,0.13-2.75,0.19-4.13
			c0.03-0.64-0.97-0.64-1,0c-0.07,1.61-0.15,3.23-0.22,4.84c-0.05,1.1-0.06,2.44,1.14,2.92c0.25,0.1,0.55-0.11,0.62-0.35
			C106.53,163,106.35,162.77,106.1,162.67L106.1,162.67z"/>
	</g>
</g>
<g>
	<g>
		<path d="M106.79,157.94c0.07,1.22,0.15,2.45,0.22,3.67c0.03,0.55,0.82,0.69,0.98,0.13c0.38-1.28,0.81-2.54,1.3-3.77
			c0.24-0.61,0.47-1.24,0.77-1.82c0.1-0.19,0.25-0.45,0.45-0.54c0.11-0.05,0.06-0.07,0.12-0.01c0.06,0.06,0.07,0.22,0.08,0.3
			c0.51,2.39,0.1,4.99-0.98,7.17c-0.29,0.57,0.58,1.08,0.86,0.5c1.06-2.13,1.52-4.54,1.24-6.9c-0.1-0.85-0.3-2.47-1.58-2.05
			c-1.03,0.35-1.4,1.76-1.76,2.65c-0.56,1.38-1.05,2.78-1.47,4.2c0.33,0.04,0.65,0.09,0.98,0.13c-0.07-1.22-0.15-2.45-0.22-3.67
			C107.76,157.3,106.76,157.29,106.79,157.94L106.79,157.94z"/>
	</g>
</g>
<g>
	<g>
		<path d="M114.06,154.93c-0.36-2.21-0.44-4.47-0.25-6.7c0.05-0.64-0.95-0.64-1,0c-0.2,2.33-0.09,4.66,0.28,6.97
			C113.2,155.83,114.16,155.56,114.06,154.93L114.06,154.93z"/>
	</g>
</g>
<g>
	<g>
		<path d="M114.9,149.67c0.07,1.77,0.13,3.54,0.2,5.31c0.33-0.04,0.65-0.09,0.98-0.13c-0.27-1.86,0.13-3.81,1.1-5.41
			c0.11-0.18,0.22-0.39,0.38-0.53c0.05-0.04,0.11-0.11,0.18-0.11c-0.09,0-0.04-0.07,0,0.06c0.13,0.47,0.29,0.92,0.35,1.41
			c0.07,0.51,0.08,1.03,0.03,1.54c-0.02,0.23-0.05,0.47-0.1,0.7c-0.02,0.12-0.05,0.23-0.08,0.35c-0.02,0.08-0.04,0.15-0.06,0.23
			c-0.03,0.08,0.01,0.06,0.11-0.05c0.09,0,0.18,0,0.27,0c0.08,0.1,0.16,0.2,0.24,0.29c-0.02,0.08-0.05,0.17-0.07,0.25
			c0.01-0.01,0.02-0.02,0.02-0.03c-0.1,0.08-0.2,0.15-0.3,0.23c0.02,0,0.03-0.01,0.05-0.01c0.63-0.12,0.36-1.08-0.27-0.96
			c-0.59,0.11-0.54,0.95-0.06,1.16c0.62,0.27,0.93-0.44,1.04-0.91c0.29-1.2,0.29-2.45,0.02-3.65c-0.11-0.49-0.24-1.18-0.71-1.46
			c-0.5-0.31-1.07-0.07-1.44,0.33c-0.37,0.39-0.63,0.91-0.86,1.39c-0.24,0.5-0.44,1.03-0.59,1.57c-0.35,1.27-0.41,2.58-0.22,3.88
			c0.08,0.56,1,0.42,0.98-0.13c-0.07-1.77-0.13-3.54-0.2-5.31C115.87,149.03,114.87,149.02,114.9,149.67L114.9,149.67z"/>
	</g>
</g>
<g>
	<g>
		<path d="M128.24,146.91c-1.58,0.53-2.03,2.39-2.47,3.81c-0.63,2.02-1.09,4.09-1.38,6.18c-0.28,1.98-0.45,4-0.38,6
			c0.06,1.71,0.48,3.43,1.79,4.62c1.29,1.17,3.07,1.66,4.78,1.3c0.63-0.13,0.36-1.1-0.27-0.96c-1.73,0.37-3.64-0.42-4.56-1.94
			c-1.06-1.74-0.8-4.14-0.67-6.08c0.15-2.22,0.49-4.43,1.03-6.59c0.26-1.06,0.57-2.12,0.92-3.16c0.27-0.8,0.58-1.92,1.48-2.22
			C129.11,147.67,128.85,146.7,128.24,146.91L128.24,146.91z"/>
	</g>
</g>
<g>
	<g>
		<path class="st1" d="M133.62,151.19c-0.12-0.77-0.07-1.7,0.49-2.31c0.48-0.52,1.2-0.7,1.79-0.25c1.27,0.96,0.55,3.33-0.78,3.89
			c-0.57,0.24-1.44-0.06-1.39-0.76c0.02-0.27-0.24-0.5-0.5-0.5c-0.29,0-0.48,0.23-0.5,0.5c-0.07,1.08,1.03,1.93,2.06,1.85
			c1.18-0.08,2.04-1.08,2.47-2.11c0.46-1.12,0.42-2.45-0.42-3.37c-0.77-0.85-2.03-1.01-2.98-0.35c-1.2,0.84-1.41,2.31-1.21,3.67
			c0.04,0.27,0.38,0.41,0.62,0.35C133.56,151.73,133.67,151.46,133.62,151.19L133.62,151.19z"/>
	</g>
</g>
<g>
	<g>
		<path class="st1" d="M139.86,148.09c-0.54,3.51-1.09,7.03-1.63,10.54c-0.1,0.63,0.87,0.9,0.96,0.27
			c0.54-3.51,1.09-7.03,1.63-10.54C140.93,147.73,139.96,147.46,139.86,148.09L139.86,148.09z"/>
	</g>
</g>
<g>
	<g>
		<path class="st1" d="M140.48,149.1c0.66-0.17,1.11-0.64,1.65-1.03c0.21-0.15,0.46-0.28,0.72-0.31c0.15-0.02,0.33,0.01,0.42,0.11
			c0.31,0.37-0.28,1.02-0.56,1.28c-0.49,0.47-1.04,0.92-1.69,1.15c-0.64,0.22-1.34,0.2-1.89-0.22c-0.22-0.16-0.56-0.03-0.68,0.18
			c-0.15,0.26-0.04,0.52,0.18,0.68c0.68,0.51,1.61,0.6,2.41,0.39c0.87-0.22,1.61-0.77,2.26-1.37c0.59-0.54,1.19-1.34,1.01-2.19
			c-0.19-0.88-1.14-1.16-1.92-0.95c-0.44,0.12-0.79,0.37-1.14,0.65c-0.32,0.26-0.64,0.54-1.04,0.65
			C139.59,148.3,139.85,149.26,140.48,149.1L140.48,149.1z"/>
	</g>
</g>
<g>
	<g>
		<path class="st1" d="M143.86,147.1c0.87,2.92,0.71,6.04-0.44,8.87c-0.24,0.6,0.72,0.86,0.96,0.27c1.21-2.98,1.36-6.32,0.44-9.4
			C144.64,146.22,143.68,146.48,143.86,147.1L143.86,147.1z"/>
	</g>
</g>
<g>
	<g>
		<path class="st1" d="M145.6,148.1c0.28-0.51,0.66-1.07,1.21-1.3c0.21-0.09,0.44-0.11,0.66-0.02c0.05,0.02,0.15,0.08,0.2,0.12
			c0.1,0.09,0.15,0.16,0.21,0.26c0.24,0.4,0.24,0.87-0.02,1.3c-0.29,0.48-0.84,0.77-1.37,0.9c-0.87,0.22-1.8,0.02-2.67-0.14
			c-0.26-0.05-0.54,0.07-0.62,0.35c-0.07,0.24,0.08,0.56,0.35,0.62c1.03,0.2,2.09,0.39,3.13,0.16c0.8-0.18,1.57-0.64,2.01-1.34
			c0.89-1.4-0.12-3.56-1.91-3.22c-0.94,0.18-1.63,1.05-2.06,1.83C144.43,148.16,145.29,148.67,145.6,148.1L145.6,148.1z"/>
	</g>
</g>
<g>
	<g>
		<path d="M130.58,158.48c0.55,1.37,2.13,1.29,3.35,1.06c1.83-0.35,3.58-0.99,5.31-1.65c1.74-0.66,3.46-1.37,5.25-1.87
			c0.91-0.26,1.84-0.47,2.78-0.57c0.54-0.06,1.62-0.17,1.81,0.52c0.17,0.62,1.13,0.36,0.96-0.27c-0.39-1.45-2.15-1.35-3.33-1.18
			c-1.83,0.26-3.6,0.84-5.33,1.48c-1.75,0.65-3.47,1.37-5.24,1.93c-0.88,0.28-1.78,0.52-2.69,0.68c-0.53,0.09-1.65,0.26-1.91-0.4
			C131.3,157.62,130.34,157.88,130.58,158.48L130.58,158.48z"/>
	</g>
</g>
<g>
	<g>
		<path class="st2" d="M134.04,160.69c0.36,0.3,0.4,0.75,0.41,1.19c0.02,0.62,0.01,1.24,0.02,1.86c0.01,1.28,0.03,2.56,0.04,3.84
			c0.01,0.57,0.82,0.67,0.98,0.13c0.17-0.55,0.38-1.08,0.64-1.59c0.12-0.23,0.26-0.46,0.4-0.69c0.07-0.11,0.15-0.22,0.22-0.33
			c0.03-0.04,0.25-0.29,0.17-0.29c-0.07,0,0.01,0.05,0.05,0.12c0.06,0.11,0.08,0.25,0.1,0.37c0.06,0.28,0.08,0.56,0.09,0.84
			c0.02,0.62-0.07,1.22-0.24,1.81c0.32,0,0.64,0,0.96,0c-0.12-0.35-0.24-0.71-0.36-1.06c-0.2-0.61-1.17-0.35-0.96,0.27
			c0.12,0.35,0.24,0.71,0.36,1.06c0.15,0.46,0.82,0.49,0.96,0c0.24-0.83,0.33-1.71,0.24-2.57c-0.07-0.67-0.21-1.62-0.99-1.81
			c-0.79-0.2-1.29,0.77-1.62,1.32c-0.43,0.72-0.76,1.49-1.01,2.29c0.33,0.04,0.65,0.09,0.98,0.13c-0.01-1.43-0.03-2.87-0.04-4.3
			c-0.01-1.05,0.2-2.54-0.72-3.3C134.26,159.58,133.55,160.28,134.04,160.69L134.04,160.69z"/>
	</g>
</g>
<g>
	<g>
		<path class="st2" d="M138.87,162.75c0.3,0.69,0.37,1.48,0.84,2.1c0.36,0.48,0.94,0.86,1.57,0.84c0.7-0.03,1.1-0.54,1.42-1.1
			c0.4-0.69,0.74-1.41,1.04-2.14c-0.32-0.09-0.64-0.18-0.96-0.27c-0.25,1.6-0.62,3.18-1.12,4.73c-0.25,0.77-0.53,1.53-0.85,2.27
			c-0.15,0.35-0.31,0.7-0.47,1.05c-0.09,0.19-0.17,0.42-0.29,0.59c-0.03,0.06-0.07,0.12-0.13,0.16c-0.16,0.07-0.09,0.11,0.21,0.14
			c-0.33-0.55-1.19-0.05-0.86,0.5c0.46,0.78,1.37,0.22,1.69-0.38c0.48-0.91,0.87-1.88,1.24-2.84c0.73-1.93,1.25-3.93,1.56-5.97
			c0.1-0.64-0.72-0.87-0.96-0.27c-0.21,0.51-0.44,1-0.7,1.48c-0.18,0.34-0.45,1.05-0.91,1.02c-0.47-0.03-0.76-0.54-0.91-0.92
			c-0.19-0.5-0.31-1.02-0.52-1.52C139.48,161.65,138.61,162.16,138.87,162.75L138.87,162.75z"/>
	</g>
</g>
<g>
	<g>
		<path class="st2" d="M145.02,161.32c-0.42,2.89-0.85,5.78-1.27,8.67c-0.09,0.63,0.87,0.9,0.96,0.27c0.42-2.89,0.85-5.78,1.27-8.67
			C146.08,160.95,145.11,160.68,145.02,161.32L145.02,161.32z"/>
	</g>
</g>
<g>
	<g>
		<path class="st2" d="M145.75,161.12c0.04-0.04,0.08-0.08,0.11-0.12c0.01-0.02,0.07-0.06-0.01,0c0.02-0.02,0.04-0.03,0.07-0.05
			c0.04-0.03,0.08-0.05,0.12-0.07c0.06-0.03-0.08,0.03-0.01,0c0.03-0.01,0.06-0.02,0.09-0.03c0.04-0.01,0.09-0.02,0.14-0.03
			c0.07-0.02-0.08,0-0.01,0c0.03,0,0.05,0,0.08-0.01c0.05,0,0.1,0,0.14,0c0.03,0,0.05,0.01,0.08,0.01c-0.11,0-0.02,0,0.01,0
			c0.1,0.02,0.2,0.05,0.3,0.09c-0.1-0.04,0.04,0.02,0.07,0.04c0.05,0.03,0.11,0.06,0.16,0.1c0.05,0.03-0.01-0.01-0.02-0.02
			c0.02,0.02,0.04,0.04,0.06,0.05c0.04,0.04,0.08,0.08,0.11,0.12c0.02,0.02,0.05,0.07,0,0c0.02,0.02,0.03,0.05,0.05,0.07
			c0.03,0.05,0.06,0.1,0.08,0.16c-0.03-0.08,0.02,0.07,0.03,0.1c0.02,0.06,0.03,0.12,0.04,0.18c-0.01-0.09,0,0.04,0,0.07
			c0,0.07,0,0.14-0.01,0.21c0,0.02-0.02,0.1,0,0.01c-0.01,0.03-0.01,0.06-0.02,0.09c-0.01,0.05-0.03,0.11-0.04,0.16
			c-0.02,0.05-0.03,0.1-0.05,0.16c0.03-0.08,0,0-0.01,0.01c-0.02,0.04-0.03,0.07-0.05,0.11c-0.03,0.06-0.06,0.11-0.1,0.16
			c-0.01,0.02-0.1,0.13-0.05,0.07c-0.09,0.1-0.18,0.2-0.28,0.29c-0.06,0.05,0.05-0.04-0.01,0.01c-0.02,0.01-0.04,0.03-0.06,0.04
			c-0.06,0.04-0.12,0.07-0.18,0.11c-0.1,0.05-0.19,0.09-0.34,0.13c-0.56,0.15-1.2,0.05-1.73-0.21c-0.24-0.12-0.54-0.07-0.68,0.18
			c-0.13,0.22-0.06,0.56,0.18,0.68c1.36,0.67,3.18,0.55,4.05-0.83c0.36-0.57,0.5-1.33,0.28-1.97c-0.21-0.63-0.72-1.1-1.37-1.28
			c-0.67-0.19-1.47-0.05-1.93,0.51c-0.17,0.21-0.2,0.5,0,0.71C145.22,161.29,145.58,161.32,145.75,161.12L145.75,161.12z"/>
	</g>
</g>
<g>
	<g>
		<path d="M149.81,144.53c2.69,2.74,3.85,6.52,4.24,10.27c0.19,1.87,0.22,3.75,0.15,5.62c-0.08,2.11-0.27,4.32-1.33,6.19
			c-1.04,1.82-3.17,3.25-5.31,2.69c-0.62-0.16-0.89,0.8-0.27,0.96c1.97,0.51,3.96-0.31,5.35-1.72c1.58-1.6,2.18-3.83,2.42-6.01
			c0.24-2.17,0.24-4.41,0.09-6.58c-0.14-2.08-0.46-4.18-1.1-6.17c-0.73-2.23-1.87-4.29-3.52-5.97
			C150.07,143.37,149.36,144.07,149.81,144.53L149.81,144.53z"/>
	</g>
</g>
<g>
	<g>
		<path d="M48.08,96.19c5.1-6.59,12.14-11.28,19.76-14.51c8.96-3.8,18.71-5.8,28.34-6.9c4.95-0.57,9.92-0.85,14.9-0.97
			c5.07-0.13,10.15-0.22,15.22-0.17c9.72,0.1,19.41,1.14,28.93,3.14c4.77,1,9.48,2.23,14.13,3.69c2.3,0.72,4.59,1.5,6.85,2.34
			c1.75,0.64,3.64,1.27,5.09,2.47c0.69,0.57,1.2,1.23,1.55,2.05c0.39,0.9,1.95,0.45,1.86-0.5c-0.42-4.82-1.09-9.62-2.03-14.37
			c-0.64,0.18-1.29,0.35-1.93,0.53c1.51,4.59,2.42,9.34,2.67,14.16c0.24-0.32,0.49-0.64,0.73-0.96c-3.95,0.54-7.96,0.56-11.91,0.11
			c-0.54-0.06-0.99,0.5-1,1c-0.01,0.59,0.47,0.94,1,1c4.15,0.47,8.31,0.39,12.44-0.19c0.41-0.06,0.75-0.57,0.73-0.96
			c-0.26-5-1.18-9.94-2.74-14.69c-0.41-1.23-2.18-0.73-1.93,0.53c0.91,4.57,1.56,9.19,1.96,13.84c0.62-0.17,1.24-0.34,1.86-0.5
			c-0.77-1.78-2.35-3.01-4.03-3.87c-1.95-0.99-4.06-1.68-6.12-2.4c-4.68-1.64-9.44-3.04-14.25-4.21c-9.67-2.34-19.58-3.72-29.52-4.1
			c-5.17-0.2-10.35-0.1-15.52-0.01c-5.13,0.08-10.27,0.24-15.38,0.69c-10.01,0.89-20.11,2.68-29.56,6.2
			c-8,2.98-15.67,7.32-21.45,13.69c-0.72,0.79-1.41,1.62-2.06,2.46c-0.33,0.43-0.41,0.99,0,1.41C47,96.54,47.75,96.62,48.08,96.19
			L48.08,96.19z"/>
	</g>
</g>
<g>
	<g>
		<g>
			<path class="st1" d="M246.55,88.65c-0.44,1.28-0.87,2.55-1.31,3.83c-0.21,0.63-0.43,1.25-0.64,1.88
				c-0.21,0.62-0.51,1.26-0.65,1.9c-0.11,0.52,0.21,0.96,0.75,0.98c0.51,0.02,1.09-0.22,1.56-0.39c1.12-0.4,2.18-0.96,3.13-1.67
				c0.51-0.38,0.01-1.25-0.5-0.86c-0.77,0.58-1.61,1.07-2.51,1.43c-0.47,0.18-0.95,0.35-1.44,0.46c-0.13,0.03-0.26-0.01-0.1,0.13
				c0.18,0.15,0.15-0.05,0.2-0.21c0.09-0.28,0.19-0.55,0.28-0.83c0.73-2.13,1.45-4.25,2.18-6.38
				C247.72,88.31,246.75,88.05,246.55,88.65L246.55,88.65z"/>
		</g>
	</g>
	<g>
		<g>
			<path class="st1" d="M250.81,89.89c-0.55,2.32-1.1,4.63-1.64,6.95c-0.07,0.3,0.15,0.65,0.48,0.63c1.41-0.08,2.76-0.47,3.98-1.18
				c0.56-0.32,0.05-1.19-0.5-0.86c-1.06,0.62-2.25,0.98-3.48,1.05c0.16,0.21,0.32,0.42,0.48,0.63c0.55-2.32,1.1-4.63,1.64-6.95
				C251.93,89.53,250.96,89.26,250.81,89.89L250.81,89.89z"/>
		</g>
	</g>
	<g>
		<g>
			<path class="st1" d="M250.39,93.75c0.42,0.06,0.82,0.05,1.24-0.03c0.37-0.08,0.73-0.23,1.05-0.43c0.22-0.14,0.33-0.45,0.18-0.68
				c-0.14-0.22-0.45-0.33-0.68-0.18c-0.07,0.05-0.15,0.09-0.22,0.13c-0.03,0.01-0.06,0.03-0.09,0.04c-0.02,0.01-0.04,0.02-0.06,0.03
				c0.07-0.03,0.08-0.03,0.03-0.01c-0.15,0.06-0.29,0.1-0.44,0.14c-0.04,0.01-0.07,0.02-0.11,0.02c-0.04,0.01-0.18,0.02-0.03,0.01
				c-0.07,0-0.15,0.02-0.22,0.02c-0.07,0-0.15,0-0.22,0c-0.04,0-0.09,0-0.13-0.01c-0.03,0-0.19-0.02-0.03,0
				c-0.14-0.02-0.26-0.02-0.39,0.05c-0.1,0.06-0.2,0.18-0.23,0.3c-0.03,0.13-0.02,0.27,0.05,0.39
				C250.16,93.62,250.27,93.73,250.39,93.75L250.39,93.75z"/>
		</g>
	</g>
	<g>
		<g>
			<path class="st1" d="M251.34,91.16c0.17-0.05,0.34-0.1,0.51-0.14c0.09-0.02,0.19-0.04,0.28-0.06c0.04-0.01,0.08-0.01,0.12-0.02
				c0.03,0,0.05-0.01,0.08-0.01c-0.06,0.01-0.07,0.01-0.03,0c0.36-0.04,0.72-0.06,1.08-0.04c0.26,0.01,0.51-0.24,0.5-0.5
				c-0.01-0.28-0.22-0.49-0.5-0.5c-0.78-0.04-1.57,0.06-2.32,0.29c-0.25,0.08-0.43,0.35-0.35,0.62
				C250.81,91.06,251.08,91.25,251.34,91.16L251.34,91.16z"/>
		</g>
	</g>
	<g>
		<g>
			<path class="st1" d="M255.28,97.09c0.11-1.55,0.3-3.09,0.59-4.61c-0.32,0-0.64,0-0.96,0c0.28,1.07,0.69,2.1,1.2,3.08
				c0.19,0.37,0.83,0.3,0.91-0.12c0.28-1.4,0.57-2.8,0.85-4.21c0.13-0.63-0.84-0.9-0.96-0.27c-0.28,1.4-0.57,2.8-0.85,4.21
				c0.3-0.04,0.61-0.08,0.91-0.12c-0.48-0.9-0.84-1.85-1.1-2.84c-0.12-0.45-0.87-0.5-0.96,0c-0.3,1.61-0.51,3.24-0.62,4.88
				C254.24,97.74,255.24,97.73,255.28,97.09L255.28,97.09z"/>
		</g>
	</g>
	<g>
		<g>
			<path class="st1" d="M258.3,89.19c-0.2,1.34-0.38,2.68-0.53,4.02c-0.07,0.67-0.14,1.35-0.2,2.03c-0.05,0.52-0.13,1.05,0.05,1.56
				c0.15,0.42,0.49,0.76,0.96,0.76c0.56,0,1.02-0.48,1.24-0.96c0.47-1.02,0.02-2.16-0.81-2.84c-0.07,0.28-0.15,0.56-0.22,0.84
				c0.9-0.27,1.64-0.82,2.17-1.59c0.37-0.53-0.5-1.03-0.86-0.5c-0.38,0.55-0.94,0.94-1.57,1.13c-0.33,0.1-0.52,0.59-0.22,0.84
				c0.52,0.43,0.98,1.17,0.55,1.83c-0.04,0.06-0.21,0.27-0.26,0.26c0.02,0-0.05-0.17-0.06-0.23c-0.07-0.37,0.02-0.79,0.05-1.16
				c0.17-1.91,0.4-3.81,0.69-5.71c0.04-0.27-0.07-0.53-0.35-0.62C258.68,88.77,258.34,88.93,258.3,89.19L258.3,89.19z"/>
		</g>
	</g>
	<g>
		<g>
			<path class="st1" d="M260.73,90.82c1.38-0.66,2.87-1.11,4.39-1.3c0.27-0.03,0.5-0.21,0.5-0.5c0-0.24-0.23-0.53-0.5-0.5
				c-1.71,0.22-3.35,0.69-4.9,1.44c-0.24,0.12-0.31,0.46-0.18,0.68C260.19,90.89,260.49,90.94,260.73,90.82L260.73,90.82z"/>
		</g>
	</g>
	<g>
		<g>
			<path class="st1" d="M262.38,90.12c-0.47,2.04-0.89,4.1-1.27,6.16c-0.05,0.27,0.07,0.54,0.35,0.62c0.24,0.07,0.57-0.08,0.62-0.35
				c0.37-2.06,0.8-4.12,1.27-6.16C263.49,89.76,262.52,89.49,262.38,90.12L262.38,90.12z"/>
		</g>
	</g>
	<g>
		<g>
			<path class="st1" d="M265.41,90.75c-0.16-0.13-0.22-0.13-0.19,0.01c-0.01,0.05-0.02,0.1-0.03,0.14
				c-0.03,0.12-0.06,0.23-0.09,0.35c-0.07,0.25-0.13,0.51-0.2,0.76c-0.13,0.49-0.27,0.97-0.42,1.45c-0.3,0.98-0.62,1.96-0.96,2.93
				c-0.22,0.61,0.75,0.87,0.96,0.27c0.45-1.27,0.87-2.56,1.24-3.85c0.18-0.62,0.43-1.28,0.49-1.93c0.07-0.65-0.39-1.19-1.06-1.08
				c-0.27,0.05-0.42,0.37-0.35,0.62C264.87,90.69,265.14,90.8,265.41,90.75L265.41,90.75z"/>
		</g>
	</g>
	<g>
		<g>
			<path class="st1" d="M265.08,94.32c0.02-0.02,0.05-0.04,0.08-0.06c-0.04,0.03-0.03,0.03,0.02-0.01c0.05-0.04,0.11-0.07,0.16-0.11
				c0.11-0.07,0.22-0.13,0.34-0.19c0.03-0.01,0.06-0.03,0.09-0.04c-0.04,0.02-0.04,0.02,0.02-0.01c0.06-0.02,0.12-0.05,0.18-0.07
				c0.12-0.04,0.25-0.08,0.38-0.1c0.06-0.01,0.13-0.02,0.19-0.04c0.06-0.01,0.06-0.01,0.01,0c0.03,0,0.06-0.01,0.1-0.01
				c0.13-0.01,0.26-0.02,0.39-0.01c0.06,0,0.13,0,0.19,0.01c0.02,0,0.21,0.02,0.11,0.01c0.13,0.02,0.26,0.05,0.38,0.08
				c0.25,0.07,0.55-0.08,0.62-0.35c0.06-0.26-0.08-0.54-0.35-0.62c-1.26-0.34-2.6-0.02-3.6,0.8c-0.2,0.17-0.19,0.54,0,0.71
				C264.59,94.52,264.87,94.5,265.08,94.32L265.08,94.32z"/>
		</g>
	</g>
	<g>
		<g>
			<path class="st1" d="M267.21,90.54c0.05,1.07,0.04,2.15-0.04,3.22c-0.04,0.63-0.06,1.56-0.64,1.96c-0.53,0.36-0.03,1.23,0.5,0.86
				c0.81-0.56,1.02-1.49,1.11-2.42c0.11-1.21,0.12-2.42,0.07-3.63C268.18,89.9,267.18,89.9,267.21,90.54L267.21,90.54z"/>
		</g>
	</g>
</g>
<g>
	<g>
		<path d="M119.43,148.12c0.33,1.73,0.9,3.4,1.69,4.97c0.17,0.34,0.68,0.31,0.86,0c0.81-1.4,1.5-2.87,2.06-4.39
			c0.09-0.25-0.1-0.55-0.35-0.62c-0.28-0.08-0.52,0.09-0.62,0.35c-0.53,1.44-1.19,2.83-1.96,4.15c0.29,0,0.58,0,0.86,0
			c-0.75-1.5-1.28-3.09-1.59-4.74c-0.05-0.27-0.37-0.42-0.62-0.35C119.5,147.58,119.37,147.85,119.43,148.12L119.43,148.12z"/>
	</g>
</g>
</svg>
