<svg xmlns="http://www.w3.org/2000/svg" viewBox="0 0 500.16 165.76">
  <defs>
    <style>
      .cls-1 {
        fill: #808285;
      }

      .cls-2 {
        fill: #231f20;
      }
    </style>
  </defs>
  <title>special-right-triangles-unscaled</title>
  <g id="Layer_2" data-name="Layer 2">
    <g id="Layer_1-2" data-name="Layer 1">
      <path class="cls-1" d="M18.53,113c3.46.9,5.7,3.9,7.15,7a43.12,43.12,0,0,1,2.05,5.42,14.44,14.44,0,0,1,.84,6,1,1,0,0,0,1,1,1,1,0,0,0,1-1,16.14,16.14,0,0,0-.94-6.64,49.43,49.43,0,0,0-2.32-6c-1.67-3.48-4.38-6.71-8.25-7.72a1,1,0,0,0-.53,1.93Z" transform="translate(-1.42 -0.95)"/>
      <g>
        <path class="cls-1" d="M32.83,103.54l1.39,11.69a1,1,0,0,0,1,1,1,1,0,0,0,1-1l-1.39-11.69a1,1,0,0,0-1-1,1,1,0,0,0-1,1Z" transform="translate(-1.42 -0.95)"/>
        <path class="cls-1" d="M36.73,101.44A76.17,76.17,0,0,0,38.8,111.9a1,1,0,0,0,1.93-.54,72.61,72.61,0,0,1-2-9.92,1,1,0,0,0-1-1,1,1,0,0,0-1,1Z" transform="translate(-1.42 -0.95)"/>
        <path class="cls-1" d="M30,106.92,41.4,98.33A1,1,0,0,0,41.76,97a1,1,0,0,0-1.37-.36l-11.45,8.59a1,1,0,0,0-.36,1.37,1,1,0,0,0,1.37.36Z" transform="translate(-1.42 -0.95)"/>
        <path class="cls-1" d="M48.85,99.18q-4.18,9.5-8.8,18.81c-.57,1.15,1.15,2.16,1.73,1q4.61-9.31,8.8-18.81a1,1,0,0,0-.36-1.37,1,1,0,0,0-1.37.36Z" transform="translate(-1.42 -0.95)"/>
        <path class="cls-1" d="M51.5,106.31a50.18,50.18,0,0,1-3,8.13,1,1,0,0,0,.36,1.36c1.7,1,3.29-.4,4.72-1.22a17,17,0,0,1,4.68-1.84c1.25-.29.72-2.22-.54-1.93a19.61,19.61,0,0,0-4.49,1.68c-.66.34-1.28.75-1.91,1.14a4.06,4.06,0,0,1-.88.45c-.25.08-.36.12-.57,0l.36,1.37a52.07,52.07,0,0,0,3.19-8.61,1,1,0,0,0-1.92-.53Z" transform="translate(-1.42 -0.95)"/>
        <path class="cls-1" d="M55.47,104.44l-1.9,17.68a1,1,0,0,0,1,1,1,1,0,0,0,1-1l1.9-17.68a1,1,0,0,0-1-1,1,1,0,0,0-1,1Z" transform="translate(-1.42 -0.95)"/>
      </g>
      <path class="cls-1" d="M96,128.69l-.72-15.54-.74,1A122.11,122.11,0,0,1,108,112.54c1.28-.08,1.29-2.08,0-2a126.62,126.62,0,0,0-14,1.64,1,1,0,0,0-.73,1L94,128.69c.06,1.28,2.06,1.29,2,0Z" transform="translate(-1.42 -0.95)"/>
      <path class="cls-1" d="M97.24,22.13A22.48,22.48,0,0,0,111,38a1,1,0,0,0,.53-1.93A20.43,20.43,0,0,1,99.17,21.6c-.28-1.26-2.2-.73-1.93.53Z" transform="translate(-1.42 -0.95)"/>
      <g>
        <path class="cls-1" d="M81.63,43.67c-.31,4.58-.42,9.18-.35,13.77a1,1,0,0,0,2,0c-.07-4.59,0-9.19.35-13.77.08-1.29-1.92-1.28-2,0Z" transform="translate(-1.42 -0.95)"/>
        <path class="cls-1" d="M85.86,42.16l1.46,14.08a1,1,0,0,0,1,1,1,1,0,0,0,1-1L87.86,42.16a1,1,0,0,0-1-1,1,1,0,0,0-1,1Z" transform="translate(-1.42 -0.95)"/>
        <path class="cls-1" d="M79.86,46.05c.41-2.32,2.7-3.59,4.74-4.33,2.47-.9,5.12-1.57,7-3.51.9-.92-.51-2.34-1.41-1.41-1.91,2-4.77,2.37-7.18,3.41s-4.62,2.69-5.09,5.31a1,1,0,0,0,1.93.53Z" transform="translate(-1.42 -0.95)"/>
        <path class="cls-1" d="M97.2,40.71A90.48,90.48,0,0,1,89.12,62c-.61,1.14,1.12,2.15,1.73,1a92,92,0,0,0,8.27-21.75c.31-1.25-1.62-1.78-1.92-.53Z" transform="translate(-1.42 -0.95)"/>
        <path class="cls-1" d="M99.11,51.22l-1.52,6.36c-.16.67.48,1.54,1.23,1.23a17.63,17.63,0,0,1,8.31-1.25,1,1,0,0,0,1-1,1,1,0,0,0-1-1,19.06,19.06,0,0,0-8.84,1.32l1.23,1.23L101,51.75c.29-1.25-1.63-1.79-1.93-.53Z" transform="translate(-1.42 -0.95)"/>
        <path class="cls-1" d="M102.88,52.05l-1.39,15.88c-.11,1.28,1.89,1.28,2,0l1.39-15.88c.11-1.28-1.89-1.27-2,0Z" transform="translate(-1.42 -0.95)"/>
      </g>
      <path class="cls-2" d="M4.23,131.25q9.27-12.36,18.9-24.44Q33.24,94.11,43.74,81.7q11-13,22.42-25.66,11-12.24,22.42-24.12,10.82-11.28,22-22.26L113.21,7,110.65,6c.56,16.09-1.25,32.1-2.46,48.11q-.93,12.12-1.12,24.27c-.12,8,0,16.07,0,24.1q.12,13.65.26,27.31l1.5-1.5q-12.2-.09-24.4.08c-6.29.1-12.58.26-18.88.44-7.57.21-15.14.45-22.72.66-3.86.12-7.72.18-11.58.15-8.66-.08-17.31-.3-26-.53L2.94,129c-1.93-.05-1.93,2.95,0,3q12.62.36,25.25.56c4.33.06,8.65.06,13-.06,7.12-.19,14.24-.42,21.35-.62,6.57-.19,13.14-.38,19.71-.49q11.49-.19,23-.14l3.66,0a1.53,1.53,0,0,0,1.5-1.5c-.16-16.14-.48-32.29-.34-48.43.08-8.1.37-16.2.94-24.29s1.32-15.94,1.9-23.92A251,251,0,0,0,113.65,6a1.52,1.52,0,0,0-2.56-1.06Q99.95,15.82,89.12,27,77.71,38.85,66.67,51,55.2,63.63,44.14,76.61,33.46,89.12,23.17,102q-9.81,12.25-19.28,24.78l-2.25,3a1.52,1.52,0,0,0,.54,2A1.53,1.53,0,0,0,4.23,131.25Z" transform="translate(-1.42 -0.95)"/>
      <g>
        <g>
          <path class="cls-2" d="M12,58.07l4.91-4.81a5.79,5.79,0,0,1,2.2-1.67c.84-.24,1.49.41,2,1,2.24,2.86,3.45,6.46,5.19,9.63a21.3,21.3,0,0,0,3.69,5,1,1,0,0,0,1.71-.71l0-22.26V36.11c0-.6-.18-1.62.3-2.11A6,6,0,0,1,34,33.14l2.57-.89L42,30.38l11.68-4.06-1.26-1-.23,15a1,1,0,0,0,2,0l.23-15a1,1,0,0,0-1.27-1l-11,3.82-5.38,1.87c-1.73.6-3.55,1.1-5.23,1.85-1.84.82-1.91,2.53-1.9,4.3V66.58l1.71-.7c-2.87-2.8-4.34-6.6-6.11-10.11a20.13,20.13,0,0,0-3.17-5,3.65,3.65,0,0,0-2.8-1.22,4.82,4.82,0,0,0-2.79,1.34c-1,.86-1.92,1.84-2.87,2.77l-3.06,3c-.92.9.49,2.32,1.41,1.42Z" transform="translate(-1.42 -0.95)"/>
          <path class="cls-2" d="M37.08,40.52a4.64,4.64,0,0,1,4.3,0,5.93,5.93,0,0,1,3,3.7,8.9,8.9,0,0,1-3,9.6C39.7,55,37.94,56,36.69,57.61a1,1,0,0,0,1.13,1.47,23.71,23.71,0,0,1,12.46-1.57,1,1,0,0,0,1.23-.7,1,1,0,0,0-.7-1.23,25.74,25.74,0,0,0-13.53,1.57l1.13,1.47c1.2-1.56,3.16-2.39,4.67-3.6a9.91,9.91,0,0,0,3.26-5.32c1-4,0-8.9-4-10.88a6.73,6.73,0,0,0-6.32,0c-1.13.62-.12,2.35,1,1.73Z" transform="translate(-1.42 -0.95)"/>
        </g>
        <g>
          <path class="cls-2" d="M124.71,48.46a220.55,220.55,0,0,0,.91,26.34,1,1,0,0,0,1,1,1,1,0,0,0,1-1,220.55,220.55,0,0,1-.91-26.34,1,1,0,0,0-2,0Z" transform="translate(-1.42 -0.95)"/>
          <path class="cls-2" d="M120.41,57.44,126.74,48A1,1,0,0,0,125,47l-6.32,9.46a1,1,0,1,0,1.72,1Z" transform="translate(-1.42 -0.95)"/>
          <path class="cls-2" d="M121.76,78.44a42,42,0,0,1,10.82-1.25,1,1,0,0,0,0-2,43.88,43.88,0,0,0-11.35,1.32,1,1,0,0,0,.53,1.93Z" transform="translate(-1.42 -0.95)"/>
        </g>
        <g>
          <path class="cls-2" d="M58.88,138.31a178.06,178.06,0,0,0-2.1,23.61,1,1,0,0,0,2,0,174.79,174.79,0,0,1,2-23.07,1,1,0,0,0-1.93-.54Z" transform="translate(-1.42 -0.95)"/>
          <path class="cls-2" d="M52.1,144.94a1.39,1.39,0,0,0-2,1.59,1,1,0,0,0,1.82.24A39.09,39.09,0,0,1,59.84,139a1,1,0,0,0,.36-1.37,1,1,0,0,0-1.36-.36,41.84,41.84,0,0,0-8.65,8.47L52,146c0,.62-.29.84-.92.68,1.13.62,2.14-1.11,1-1.73Z" transform="translate(-1.42 -0.95)"/>
          <path class="cls-2" d="M50.79,165.73a27.23,27.23,0,0,1,8.47-1.66,30.47,30.47,0,0,1,4.16.17,6.45,6.45,0,0,0,3.92-.53c1.12-.62.12-2.35-1-1.73s-2.38.31-3.53.2a27.14,27.14,0,0,0-4.23-.08,29.13,29.13,0,0,0-8.31,1.7c-1.2.43-.68,2.37.53,1.93Z" transform="translate(-1.42 -0.95)"/>
        </g>
      </g>
      <path class="cls-1" d="M269.8,109.91l7.93-.08,4,0c.64,0,1.28,0,1.92,0,.28,0,.84,0,1,.19a1.48,1.48,0,0,1,.12.59c0,.32.07.65.11,1,.06.65.11,1.29.15,1.94.08,1.3.11,2.59.09,3.89a51.32,51.32,0,0,1-.72,7.73,1,1,0,0,0,.7,1.23,1,1,0,0,0,1.23-.69,53,53,0,0,0,.6-13.49,8.77,8.77,0,0,0-.48-3,2.61,2.61,0,0,0-2.29-1.32c-1.06-.09-2.15,0-3.21,0l-3.34,0-7.81.08a1,1,0,0,0,0,2Z" transform="translate(-1.42 -0.95)"/>
      <g>
        <path class="cls-1" d="M267.54,30.19a37.36,37.36,0,0,0,23.64-7.13,34.78,34.78,0,0,0,5.25-4.75c.86-.95-.55-2.37-1.41-1.41a35,35,0,0,1-20.68,11,34.35,34.35,0,0,1-6.8.33c-1.29-.06-1.28,1.94,0,2Z" transform="translate(-1.42 -0.95)"/>
        <g>
          <path class="cls-1" d="M279.13,37.13l.49,22.12a1,1,0,0,0,2,0l-.49-22.12a1,1,0,0,0-2,0Z" transform="translate(-1.42 -0.95)"/>
          <path class="cls-1" d="M287.62,35.07a123.3,123.3,0,0,0,.53,19.78,1,1,0,0,0,1,1,1,1,0,0,0,1-1,123.3,123.3,0,0,1-.53-19.78c.07-1.29-1.93-1.29-2,0Z" transform="translate(-1.42 -0.95)"/>
          <path class="cls-1" d="M273.88,39.33c6.66-3.81,14.46-4.61,21.95-5.34a1,1,0,0,0,1-1,1,1,0,0,0-1-1c-7.85.77-16,1.62-23,5.61a1,1,0,0,0,1,1.73Z" transform="translate(-1.42 -0.95)"/>
          <path class="cls-1" d="M304,32.75a220.83,220.83,0,0,1-9.88,25.37q-1.64,3.56-3.41,7.05c-.57,1.14,1.15,2.16,1.73,1a229.61,229.61,0,0,0,11-25.5q1.32-3.68,2.51-7.4c.4-1.23-1.53-1.76-1.93-.53Z" transform="translate(-1.42 -0.95)"/>
          <path class="cls-1" d="M307.85,47.57a1.85,1.85,0,0,1,2.33-.63,2.32,2.32,0,0,1,1.47,2.57c-.29,3.25-3.94,4.57-6.55,5.51-1.19.43-.7,2.34.54,1.92,1.92-.64,4.24-1.1,6.14-.12a3.57,3.57,0,0,1,2,3.63,2.89,2.89,0,0,1-1.5,1.77,31.12,31.12,0,0,1-3.15,1.61,41,41,0,0,1-6.7,2.37,1,1,0,0,0,.53,1.93,44.43,44.43,0,0,0,6.34-2.2c1-.42,2-.88,2.9-1.38a9.36,9.36,0,0,0,2.43-1.64,4.44,4.44,0,0,0,.89-4.66A5.94,5.94,0,0,0,312,54.74a10.39,10.39,0,0,0-6.89.28l.54,1.92a16.15,16.15,0,0,0,5.86-3.07,6.41,6.41,0,0,0,2.13-5.24,4.2,4.2,0,0,0-3.2-3.7,3.77,3.77,0,0,0-4.31,1.63c-.6,1.14,1.12,2.15,1.73,1Z" transform="translate(-1.42 -0.95)"/>
        </g>
      </g>
      <g>
        <path class="cls-1" d="M451.71,99.19a43,43,0,0,0-8.91,25.41,1,1,0,0,0,2,0,41.29,41.29,0,0,1,8.63-24.4,1,1,0,1,0-1.72-1Z" transform="translate(-1.42 -0.95)"/>
        <g>
          <path class="cls-1" d="M393.24,88.56v16.89a1,1,0,0,0,2,0V88.56a1,1,0,0,0-2,0Z" transform="translate(-1.42 -0.95)"/>
          <path class="cls-1" d="M400.2,88.54l1.24,13.56a1,1,0,0,0,1,1,1,1,0,0,0,1-1L402.2,88.54a1,1,0,0,0-1-1,1,1,0,0,0-1,1Z" transform="translate(-1.42 -0.95)"/>
          <path class="cls-1" d="M388.31,90.11l9.49-1.69c3.14-.56,6.32-1,9.39-1.83a1,1,0,0,0-.53-1.93c-3.08.82-6.26,1.27-9.39,1.83l-9.5,1.7a1,1,0,0,0-.69,1.23,1,1,0,0,0,1.23.69Z" transform="translate(-1.42 -0.95)"/>
          <path class="cls-1" d="M413,87.46q-5.72,12.77-12.67,24.94a1,1,0,0,0,1.73,1q6.94-12.14,12.67-24.93a1,1,0,0,0-.36-1.37,1,1,0,0,0-1.37.36Z" transform="translate(-1.42 -0.95)"/>
          <path class="cls-1" d="M419.79,93.94q-1.71,4.43-3.07,9a38.33,38.33,0,0,0-1.91,8.32c-.15,2.39.54,5,2.72,6.26a6.65,6.65,0,0,0,6.79-.31c2.5-1.61,3.76-4.54,4.21-7.39a1,1,0,0,0-.46-1.13,8.06,8.06,0,0,0-9.84,2.53,1,1,0,0,0,.35,1.36,1,1,0,0,0,1.37-.35,6,6,0,0,1,7.11-1.81l-.46-1.13a9.35,9.35,0,0,1-2.84,5.86,4.71,4.71,0,0,1-5.15.68c-1.8-1-1.95-3.29-1.75-5.13a42.45,42.45,0,0,1,1.82-7.35c.9-3,1.91-6,3-8.86a1,1,0,0,0-.7-1.23,1,1,0,0,0-1.23.7Z" transform="translate(-1.42 -0.95)"/>
        </g>
      </g>
      <path class="cls-2" d="M500.86,125q-21.48-12.87-43.21-25.33-22.41-12.86-45.08-25.25-23.35-12.77-47-25-23.28-12.1-46.8-23.74-22.62-11.17-45.45-21.9l-5.62-2.63a1.51,1.51,0,0,0-2.25,1.29c.72,17.49,1.1,35,.85,52.49-.19,13.55-.83,27.06-.44,40.62q.44,15.06,1.95,30.05a1.53,1.53,0,0,0,1.5,1.5q26.64-.09,53.28.09,20.69.15,41.37.44,24.67.31,49.34.66,12.63.18,25.26.14c18.82-.07,37.65-.3,56.48-.53l5-.06c1.93,0,1.93-3,0-3q-27.5.35-55,.56-14.11.09-28.21-.06-23.19-.28-46.37-.62c-14.39-.19-28.78-.38-43.18-.49q-25.12-.21-50.27-.15l-7.77,0,1.5,1.5a417.06,417.06,0,0,1-2-52.18c.31-12.71.64-25.39.51-38.1q-.18-16.44-.88-32.88l-2.26,1.3q22.84,10.67,45.49,21.79Q335.06,37,358.18,48.9q23.67,12.24,47.08,24.95,22.89,12.44,45.52,25.34,21.77,12.42,43.28,25.24l5.29,3.16A1.5,1.5,0,0,0,500.86,125Z" transform="translate(-1.42 -0.95)"/>
      <g>
        <path class="cls-2" d="M377.51,24.83c.73-1,2.23-1.14,3.37-1.18a40.7,40.7,0,0,1,4.94.12c2.95.26,6.2,1.21,7.94,3.79a5.88,5.88,0,0,1-.71,7.25,14.76,14.76,0,0,1-7.65,4.41c-3.65,1-7.46,1.59-10.77,3.54a1,1,0,0,0,.5,1.86,201.78,201.78,0,0,1,28.25,0c1.29.08,1.28-1.92,0-2a201.78,201.78,0,0,0-28.25,0l.51,1.86c3.24-1.9,7-2.4,10.6-3.42a16.06,16.06,0,0,0,8.57-5.26,7.82,7.82,0,0,0,.82-9c-1.92-3.09-5.43-4.47-8.91-4.9a34.61,34.61,0,0,0-6.19-.2,5.9,5.9,0,0,0-4.75,2.15,1,1,0,0,0,1.73,1Z" transform="translate(-1.42 -0.95)"/>
        <g>
          <path class="cls-2" d="M330.25,154.56a3.2,3.2,0,0,1,2.66-1.89A3,3,0,0,1,336,154.2a17.65,17.65,0,0,1,1.09,2.62l1.11,3,2.3,6.19a1,1,0,0,0,2-.26L343,141.8a6.57,6.57,0,0,1,.21-2.21c.27-.69,1-.86,1.7-1,1.77-.35,3.59-.56,5.38-.78q5.86-.7,11.76-1,6.63-.27,13.27,0l-1-1.27-2.89,15.67c-.23,1.26,1.69,1.8,1.93.53l2.88-15.66a1,1,0,0,0-1-1.27,148,148,0,0,0-24.54.89c-2,.24-4,.5-6,.84-1.7.28-3.23,1.09-3.58,2.92a16,16,0,0,0-.17,2.77l-.07,3.12-.15,6.23-.32,14.09,2-.27-2.64-7.11c-.44-1.19-.87-2.38-1.33-3.55a7.85,7.85,0,0,0-1.59-2.76,5.32,5.32,0,0,0-8.33,1.51,1,1,0,0,0,.36,1.36,1,1,0,0,0,1.37-.36Z" transform="translate(-1.42 -0.95)"/>
          <path class="cls-2" d="M351.36,145.13c2.22-1.19,5.52-1.61,7,1a2.24,2.24,0,0,1-.19,2.69,2,2,0,0,1-2.35.56l-.51,1.86c2.51.19,5.8,2.39,5.11,5.29-.85,3.59-5.33,4.13-8.34,4.42a1,1,0,0,0-1,1,1,1,0,0,0,1,1,17,17,0,0,0,6.78-1.61,6.86,6.86,0,0,0,3.56-4.64c.66-4.13-3.36-7.17-7.11-7.46a1,1,0,0,0-.5,1.86,3.9,3.9,0,0,0,4.55-.65,4.13,4.13,0,0,0,1.06-4.62,5.74,5.74,0,0,0-4-3.44,8.75,8.75,0,0,0-6,1.05c-1.14.61-.13,2.33,1,1.73Z" transform="translate(-1.42 -0.95)"/>
        </g>
        <g>
          <path class="cls-2" d="M251.75,44.13a220.55,220.55,0,0,0,.91,26.34,1,1,0,0,0,1,1,1,1,0,0,0,1-1,220.55,220.55,0,0,1-.91-26.34c0-1.29-2-1.29-2,0Z" transform="translate(-1.42 -0.95)"/>
          <path class="cls-2" d="M247.45,53.11l6.33-9.45a1,1,0,0,0-1.73-1l-6.32,9.45a1,1,0,1,0,1.72,1Z" transform="translate(-1.42 -0.95)"/>
          <path class="cls-2" d="M248.8,74.12a41.11,41.11,0,0,1,10.82-1.25,1,1,0,0,0,0-2,43.45,43.45,0,0,0-11.35,1.32,1,1,0,0,0,.53,1.93Z" transform="translate(-1.42 -0.95)"/>
        </g>
      </g>
    </g>
  </g>
</svg>
