<svg xmlns="http://www.w3.org/2000/svg" viewBox="0 0 383.78 173.3">
  <defs>
    <style>
      .cls-1 {
        fill: #808285;
      }

      .cls-2 {
        fill: #231f20;
      }

      .cls-3 {
        fill: #ed1c24;
      }

      .cls-4 {
        fill: #fff;
      }
    </style>
  </defs>
  <title>tan-truncated</title>
  <g id="Layer_2" data-name="Layer 2">
    <g id="Layer_1-2" data-name="Layer 1">
      <g>
        <path class="cls-1" d="M1.65,105.26c49.53,1.13,99.08,1.34,148.62,1.26,49.31-.08,98.62-.35,147.93-.55l83.47-.34a1,1,0,0,0,0-2l-148.73.6c-49.3.2-98.59.47-147.89.18q-41.7-.25-83.4-1.15a1,1,0,0,0,0,2Z" transform="translate(-0.01)"/>
        <path class="cls-1" d="M369.27,95.28a59.78,59.78,0,0,1,11.37,8.29,4.78,4.78,0,0,1,1.05,1.15c.22.43-.06.72-.35,1a31.3,31.3,0,0,1-2.46,2.29,59.06,59.06,0,0,1-5.75,4.44c-1.05.73-.05,2.46,1,1.73,1.74-1.19,3.42-2.45,5-3.8.81-.68,1.6-1.37,2.38-2.09a8,8,0,0,0,2-2.29c.91-2-1.16-3.58-2.49-4.77a61.38,61.38,0,0,0-4.8-3.86,62.84,62.84,0,0,0-6-3.85,1,1,0,0,0-1,1.73Z" transform="translate(-0.01)"/>
        <path class="cls-1" d="M12.54,94.31A49.78,49.78,0,0,0,2.13,101.9a6.92,6.92,0,0,0-2,2.47A2.93,2.93,0,0,0,1,107.28a31.27,31.27,0,0,0,4.75,4.15A39,39,0,0,0,12,115.19c1.15.57,2.17-1.16,1-1.72a38,38,0,0,1-9.38-6.41c-.33-.32-.66-.64-1-1s-.61-.57-.65-.9.34-.67.56-.9.7-.7,1.06-1.05A44.81,44.81,0,0,1,8,99.58,48.85,48.85,0,0,1,13.55,96c1.13-.62.12-2.35-1-1.73Z" transform="translate(-0.01)"/>
      </g>
      <g>
        <path class="cls-1" d="M185.28,40q-1.92,25.56-3,51.17T180.8,142.4q-.18,14.39-.11,28.77a1,1,0,0,0,2,0q-.12-25.63.55-51.27t2.14-51.22q.83-14.36,1.9-28.7c.1-1.29-1.9-1.28-2,0Z" transform="translate(-0.01)"/>
        <path class="cls-1" d="M179.94,50.82l3.4-5.46,1.7-2.73c.27-.42.52-.84.79-1.26.13-.2.36-.65.6-.73.49-.17,1.24,1,1.51,1.32l2.12,2.39,4.24,4.76c.85,1,2.26-.45,1.41-1.41L191,42.38c-.8-.9-1.58-1.82-2.41-2.7a2.62,2.62,0,0,0-2.56-1,3.77,3.77,0,0,0-2.05,1.9l-1.9,3-3.86,6.19c-.68,1.09,1,2.1,1.73,1Z" transform="translate(-0.01)"/>
        <path class="cls-1" d="M172.58,161.26a33.77,33.77,0,0,0,5.77,9.18c.59.66,1.2,1.3,1.84,1.92a2.5,2.5,0,0,0,2.39.87c1.61-.41,2.29-2.31,3.24-3.49a7.71,7.71,0,0,1,4.3-3c1.25-.27.72-2.2-.53-1.93a9.21,9.21,0,0,0-4.82,3,19.35,19.35,0,0,0-1.74,2.38c-.19.3-.48.86-.84,1s-.53-.25-.74-.46a32.33,32.33,0,0,1-7.15-10.54,1,1,0,0,0-1.36-.36,1,1,0,0,0-.36,1.37Z" transform="translate(-0.01)"/>
      </g>
      <path class="cls-2" d="M233.15,99.93q-.6,5.32-.74,10.7c0,.64,1,.64,1,0q.14-5.37.74-10.7c.08-.63-.92-.63-1,0Z" transform="translate(-0.01)"/>
      <g>
        <path class="cls-2" d="M227,115.7l-.66,6.75a.5.5,0,0,0,.5.5.51.51,0,0,0,.5-.5l.66-6.75a.51.51,0,0,0-.5-.5.52.52,0,0,0-.5.5Z" transform="translate(-0.01)"/>
        <path class="cls-2" d="M229.86,113.43l1,7.34a.51.51,0,0,0,.5.5c.24,0,.54-.23.5-.5l-1-7.34a.5.5,0,0,0-1,0Z" transform="translate(-0.01)"/>
        <path class="cls-2" d="M223.77,116.45a13.91,13.91,0,0,1,9.28-2.87c.64,0,.64-1,0-1a14.72,14.72,0,0,0-9.78,3c-.51.38,0,1.25.5.86Z" transform="translate(-0.01)"/>
        <path class="cls-2" d="M234.65,117.44l-6,11.5c-.3.57.57,1.08.86.5l6-11.5c.3-.57-.57-1.07-.86-.5Z" transform="translate(-0.01)"/>
        <path class="cls-2" d="M235.16,124.38a1.44,1.44,0,0,1,1.67-.31,1.84,1.84,0,0,1,1.1,1.78c0,2-1.81,3.26-3.32,4.22-.32.21-.33.85.12.92l4.7.69,1.14.17c.32.05.73.19,1,0a.77.77,0,0,0-.25-1.36.5.5,0,0,0-.27,1c-.2-.11-.21-.25,0-.42l.39-.05L235,130l.12.92a10.81,10.81,0,0,0,2.86-2.39,4.27,4.27,0,0,0,.87-3.39,2.71,2.71,0,0,0-2-2.13,2.36,2.36,0,0,0-2.55.84c-.39.52.48,1,.86.51Z" transform="translate(-0.01)"/>
      </g>
      <path class="cls-2" d="M275.67,100.5l-.69,8.15c-.05.64.95.64,1,0l.69-8.15c.05-.65-.95-.64-1,0Z" transform="translate(-0.01)"/>
      <path class="cls-2" d="M144.2,102.91l-.06,4.75c0,1-.35,2.86.81,3.46.57.29,1.07-.57.5-.87-.4-.21-.34-.83-.33-1.22,0-.66,0-1.32,0-2l.06-4.13a.5.5,0,0,0-1,0Z" transform="translate(-0.01)"/>
      <g>
        <path class="cls-2" d="M137,120.25a10.2,10.2,0,0,0,4.11-.34.5.5,0,0,0-.27-1,9.58,9.58,0,0,1-3.84.3c-.27,0-.5.25-.5.5a.52.52,0,0,0,.5.5Z" transform="translate(-0.01)"/>
        <path class="cls-2" d="M142.56,115.68a30.14,30.14,0,0,1,.16,5.93c-.05.64.95.64,1,0a30.14,30.14,0,0,0-.16-5.93.5.5,0,0,0-1,0Z" transform="translate(-0.01)"/>
        <path class="cls-2" d="M145.17,115.69a19.22,19.22,0,0,1,.53,5.07c0,.65,1,.64,1,0a20.46,20.46,0,0,0-.56-5.34c-.15-.62-1.12-.36-1,.27Z" transform="translate(-0.01)"/>
        <path class="cls-2" d="M140.83,117l6.48-2a.5.5,0,0,0-.27-1l-6.47,2a.5.5,0,0,0,.26,1Z" transform="translate(-0.01)"/>
        <path class="cls-2" d="M149.35,116.51a86.52,86.52,0,0,1-5,10.17.5.5,0,0,0,.87.5,87.33,87.33,0,0,0,5.12-10.41c.25-.59-.72-.85-1-.26Z" transform="translate(-0.01)"/>
        <path class="cls-2" d="M149.3,123.85c0-.68.94-1,1.44-.65a1.75,1.75,0,0,1,.09,2.38,3.78,3.78,0,0,1-1.25,1c-.43.24-1.1.38-1.37.82a.89.89,0,0,0,.45,1.28,3.77,3.77,0,0,0,1.57.18c1,0,2.31-.16,3.07.69.43.48,1.13-.23.7-.71a3.88,3.88,0,0,0-3.11-1h-.84a3.44,3.44,0,0,1-.85,0,.36.36,0,0,0-.11,0c-.27,0,0-.07,0,0V128l.19-.1c.29-.13.57-.25.85-.41a3.79,3.79,0,0,0,2.14-2.79,2.26,2.26,0,0,0-1.53-2.57,1.9,1.9,0,0,0-2.39,1.74c0,.64,1,.64,1,0Z" transform="translate(-0.01)"/>
      </g>
      <path class="cls-2" d="M104.76,103.31a46.06,46.06,0,0,0,.2,7.61c.07.63,1.07.64,1,0a46.06,46.06,0,0,1-.2-7.61c0-.64-1-.64-1,0Z" transform="translate(-0.01)"/>
      <g>
        <path class="cls-2" d="M96.79,119.84l3.37-.35a.51.51,0,0,0,.5-.5.5.5,0,0,0-.5-.5l-3.37.35a.51.51,0,0,0-.5.5.5.5,0,0,0,.5.5Z" transform="translate(-0.01)"/>
        <path class="cls-2" d="M103.12,117.07a33.17,33.17,0,0,1,.5,4.67c0,.64,1,.64,1,0a33.8,33.8,0,0,0-.54-4.93.5.5,0,1,0-1,.26Z" transform="translate(-0.01)"/>
        <path class="cls-2" d="M106.52,115.65a10.42,10.42,0,0,1,1,5.68.5.5,0,0,0,.5.5.51.51,0,0,0,.5-.5,11.29,11.29,0,0,0-1.16-6.18c-.28-.58-1.15-.07-.86.5Z" transform="translate(-0.01)"/>
        <path class="cls-2" d="M101.5,117.73a23.31,23.31,0,0,1,9.1-2.79c.63,0,.64-1,0-1a24.65,24.65,0,0,0-9.61,2.93c-.56.31-.06,1.17.51.86Z" transform="translate(-0.01)"/>
      </g>
      <path class="cls-2" d="M69.87,101.06a34,34,0,0,0,.45,9.44c.11.63,1.08.36,1-.27a33.17,33.17,0,0,1-.41-9.17c.06-.64-.94-.63-1,0Z" transform="translate(-0.01)"/>
      <g>
        <path class="cls-2" d="M61.88,124.06a10.5,10.5,0,0,0,3.79-.25.51.51,0,0,0,.35-.62.51.51,0,0,0-.61-.35,9.55,9.55,0,0,1-3.53.22.5.5,0,0,0-.5.5.51.51,0,0,0,.5.5Z" transform="translate(-0.01)"/>
        <path class="cls-2" d="M67.39,117.27a.92.92,0,0,1,1.09-.13,1.23,1.23,0,0,1,.62,1.21c0,1.19-1.11,1.93-2.06,2.43-.49.27-.16,1.1.38.92a2.19,2.19,0,1,1,.37,4.18c-.64-.08-.63.92,0,1a3.18,3.18,0,1,0-.63-6.15l.38.92c1.46-.78,2.92-2.17,2.49-4a2,2,0,0,0-3.34-1.1c-.46.46.25,1.17.7.71Z" transform="translate(-0.01)"/>
        <path class="cls-2" d="M72.61,119.35l.33,5.93c0,.64,1,.64,1,0l-.33-5.93c0-.64-1-.64-1,0Z" transform="translate(-0.01)"/>
        <path class="cls-2" d="M75.09,117.51,76.28,124c.12.63,1.08.36,1-.27l-1.19-6.46c-.11-.63-1.08-.37-1,.26Z" transform="translate(-0.01)"/>
        <path class="cls-2" d="M70.58,121.17c2.81-.6,4.54-3.39,7.37-3.87.63-.11.37-1.08-.27-1-2.85.49-4.57,3.28-7.36,3.87-.63.14-.37,1.1.26,1Z" transform="translate(-0.01)"/>
        <path class="cls-2" d="M68.09,131.12a81,81,0,0,1,11.19-6.58c.58-.28.08-1.15-.5-.87a81.47,81.47,0,0,0-11.19,6.59c-.53.37,0,1.23.5.86Z" transform="translate(-0.01)"/>
        <path class="cls-2" d="M71.57,130.77a4.41,4.41,0,0,1,3,.14A2.17,2.17,0,0,1,75.83,133c-.11,1-1.35,1.51-2.13,2-1.08.61-2.18,1.19-3.29,1.73a.5.5,0,0,0,.25.93,24.53,24.53,0,0,1,8.27.78.5.5,0,0,0,.27-1,25.12,25.12,0,0,0-8.54-.82l.25.93c1.41-.68,2.79-1.41,4.13-2.21a2.92,2.92,0,0,0,1.79-2.67,3.24,3.24,0,0,0-1.71-2.59,5.46,5.46,0,0,0-3.82-.25c-.62.15-.36,1.12.27,1Z" transform="translate(-0.01)"/>
      </g>
      <path class="cls-2" d="M316.91,100.33a35.22,35.22,0,0,0-.39,9.45c.06.63,1.06.64,1,0a34.44,34.44,0,0,1,.35-9.18c.11-.63-.85-.9-1-.27Z" transform="translate(-0.01)"/>
      <g>
        <path class="cls-2" d="M309.94,113.91a4.23,4.23,0,0,1,2-.62,1.16,1.16,0,0,1,1.17.8,1.33,1.33,0,0,1-.81,1.31,4.66,4.66,0,0,1-2.13.33.5.5,0,0,0-.14,1c1,.33,2.12.82,2.39,1.92a1.06,1.06,0,0,1-.29,1.11.79.79,0,0,1-.95.12c-.55-.34-1.05.52-.51.86a1.92,1.92,0,0,0,2.8-1.78c0-1.77-1.7-2.69-3.17-3.2l-.13,1a5,5,0,0,0,2.91-.64,2.25,2.25,0,0,0,1-2.25,2.09,2.09,0,0,0-1.76-1.51,4.7,4.7,0,0,0-2.86.72c-.58.28-.07,1.15.5.86Z" transform="translate(-0.01)"/>
        <path class="cls-2" d="M315.62,114.29v5.35a.5.5,0,0,0,1,0v-5.35a.5.5,0,0,0-1,0Z" transform="translate(-0.01)"/>
        <path class="cls-2" d="M317.34,113.29a17.74,17.74,0,0,1,1.13,4.66.51.51,0,0,0,.5.5.5.5,0,0,0,.5-.5A18.11,18.11,0,0,0,318.3,113a.5.5,0,0,0-.61-.35.5.5,0,0,0-.35.61Z" transform="translate(-0.01)"/>
        <path class="cls-2" d="M315.18,114.76a10.68,10.68,0,0,1,5.27-2.66.5.5,0,0,0,.35-.61.5.5,0,0,0-.61-.35,11.42,11.42,0,0,0-5.71,2.92c-.48.44.23,1.14.7.7Z" transform="translate(-0.01)"/>
        <path class="cls-2" d="M308.82,123.34c3.74,1,6.9-2.09,10.54-2.16a.5.5,0,0,0,0-1,15.36,15.36,0,0,0-5.17,1.41c-1.62.64-3.36,1.27-5.11.78a.5.5,0,0,0-.26,1Z" transform="translate(-0.01)"/>
        <path class="cls-2" d="M314.65,125.19a.7.7,0,0,1,.88.06,1,1,0,0,1,.24,1.16c-.44,1.18-1.89,1.42-3,1.63-.53.1-.42.81,0,1l5.81,2.15a.5.5,0,0,0,.26-1L313.06,128v1a6.45,6.45,0,0,0,2.53-.86,2.88,2.88,0,0,0,1.26-2,1.86,1.86,0,0,0-.94-1.83,1.65,1.65,0,0,0-2,.17c-.47.44.24,1.15.71.71Z" transform="translate(-0.01)"/>
      </g>
      <g>
        <path class="cls-2" d="M272.24,116.82a1.76,1.76,0,0,0-.79,1.48c-.11.87-.2,1.74-.31,2.6l-.62,5.2c-.08.64.92.64,1,0l.54-4.5.27-2.26c0-.34.07-.69.12-1s.07-.5.29-.61c.58-.29.07-1.16-.5-.87Z" transform="translate(-0.01)"/>
        <path class="cls-2" d="M275.37,117.39a43.54,43.54,0,0,1-.61,8.3c-.11.63.85.9,1,.27a44,44,0,0,0,.65-8.57.5.5,0,0,0-1,0Z" transform="translate(-0.01)"/>
        <path class="cls-2" d="M269.94,117.16l9.58.47c.64,0,.64-1,0-1l-9.58-.47c-.64,0-.64,1,0,1Z" transform="translate(-0.01)"/>
      </g>
      <path class="cls-2" d="M35.69,100.59l.43,9.38c0,.65,1,.65,1,0l-.43-9.38c0-.64-1-.64-1,0Z" transform="translate(-0.01)"/>
      <path class="cls-2" d="M23,118.64l6.16-.56a.5.5,0,1,0,0-1l-6.16.56a.52.52,0,0,0-.5.5.5.5,0,0,0,.5.5Z" transform="translate(-0.01)"/>
      <path class="cls-2" d="M29,113.16c1-.56,2.26.19,3,1a5.13,5.13,0,0,1,1.34,3.41c0,2.57-2.74,3.76-4.75,4.66-.47.2-.22.94.25.93l8.25-.27c.64,0,.64-1,0-1l-8.25.27.25.93c2.61-1.15,5.6-2.82,5.21-6.14a6.14,6.14,0,0,0-2-3.85,3.41,3.41,0,0,0-3.82-.76c-.57.3-.07,1.17.5.86Z" transform="translate(-0.01)"/>
      <path class="cls-2" d="M38.37,114.65v6.84a.5.5,0,0,0,1,0v-6.84a.5.5,0,0,0-1,0Z" transform="translate(-0.01)"/>
      <path class="cls-2" d="M41.11,113.54a26.91,26.91,0,0,1,.68,7.64c0,.64,1,.64,1,0a28,28,0,0,0-.71-7.9c-.15-.63-1.11-.36-1,.26Z" transform="translate(-0.01)"/>
      <path class="cls-2" d="M36.05,116a11,11,0,0,1,4.59-1.66l5.63-1c.63-.12.37-1.08-.26-1l-5.8,1.09a11.3,11.3,0,0,0-4.67,1.73c-.51.38,0,1.25.51.86Z" transform="translate(-0.01)"/>
      <path class="cls-2" d="M355.87,101l-.39,9c0,.64,1,.64,1,0l.39-9a.5.5,0,0,0-1,0Z" transform="translate(-0.01)"/>
      <g>
        <path class="cls-2" d="M347.17,115.41c1.63,0,3.77-.07,4.65,1.59a1.75,1.75,0,0,1-1.06,2.51c-1.88.83-4.48.66-5.66,2.66a.5.5,0,0,0,.3.73l9.8,1.66c.63.11.9-.86.27-1l-9.81-1.66.3.73a3.42,3.42,0,0,1,2.15-1.36c.94-.28,1.91-.43,2.82-.79a3.23,3.23,0,0,0,1.91-1.64,3,3,0,0,0-.9-3.32c-1.31-1.16-3.12-1.18-4.77-1.15a.5.5,0,0,0,0,1Z" transform="translate(-0.01)"/>
        <path class="cls-2" d="M356.77,116.35l-.83,6.38c0,.26.25.5.5.5a.51.51,0,0,0,.5-.5l.83-6.38c0-.26-.25-.5-.5-.5a.52.52,0,0,0-.5.5Z" transform="translate(-0.01)"/>
        <path class="cls-2" d="M358.36,114.58a14.79,14.79,0,0,1,.62,6.89.5.5,0,1,0,1,.26,15.91,15.91,0,0,0-.61-7.41c-.21-.61-1.17-.35-1,.26Z" transform="translate(-0.01)"/>
        <path class="cls-2" d="M355.2,116.68a9.85,9.85,0,0,1,7.51-1.14.5.5,0,0,0,.27-1,10.9,10.9,0,0,0-8.29,1.23c-.54.34,0,1.2.51.87Z" transform="translate(-0.01)"/>
      </g>
      <path class="cls-3" d="M183.73,105.82A91.2,91.2,0,0,0,200,96.05,78.33,78.33,0,0,0,217.92,77.2c4.56-6.83,7.61-14.49,10.06-22.3a129.65,129.65,0,0,0,4.7-22,161.47,161.47,0,0,0,1.13-27.63c-.06-1.42-.13-2.85-.23-4.27s-2.08-1.29-2,0A165.52,165.52,0,0,1,231,29.9a129.81,129.81,0,0,1-4.34,22.35A89.07,89.07,0,0,1,218.18,73a74.93,74.93,0,0,1-17.25,19.75,87.89,87.89,0,0,1-16.6,10.53l-1.61.77c-1.17.55-.15,2.27,1,1.73Z" transform="translate(-0.01)"/>
      <g>
        <path class="cls-3" d="M235.19,96.27V93.45a.51.51,0,0,0-.5-.5.51.51,0,0,0-.5.5v2.82a.51.51,0,0,0,.5.5.5.5,0,0,0,.5-.5Z" transform="translate(-0.01)"/>
        <path class="cls-3" d="M235.19,87.82V85a.5.5,0,1,0-1,0v2.81a.5.5,0,0,0,1,0Z" transform="translate(-0.01)"/>
        <path class="cls-3" d="M235.76,79.38V75.43a.5.5,0,0,0-1,0v3.95a.5.5,0,0,0,1,0Z" transform="translate(-0.01)"/>
        <path class="cls-3" d="M235.7,68.8a6.63,6.63,0,0,0-.49-4.36.52.52,0,0,0-.69-.18.51.51,0,0,0-.18.69,5.39,5.39,0,0,1,.39,3.58.52.52,0,0,0,.35.62.51.51,0,0,0,.62-.35Z" transform="translate(-0.01)"/>
        <path class="cls-3" d="M234.63,58.11l.62-3.37a.53.53,0,0,0-.35-.61.5.5,0,0,0-.62.35l-.61,3.37a.5.5,0,0,0,.35.61.49.49,0,0,0,.61-.35Z" transform="translate(-0.01)"/>
        <path class="cls-3" d="M235.76,47.84V44.46a.5.5,0,1,0-1,0v3.38a.5.5,0,1,0,1,0Z" transform="translate(-0.01)"/>
        <path class="cls-3" d="M235.76,36V31.51a.5.5,0,0,0-1,0V36a.5.5,0,0,0,1,0Z" transform="translate(-0.01)"/>
        <path class="cls-3" d="M235.76,27V23.63a.5.5,0,1,0-1,0V27a.5.5,0,0,0,1,0Z" transform="translate(-0.01)"/>
        <path class="cls-3" d="M235.42,18.58l.12-4c0-.64-1-.64-1,0l-.12,4c0,.64,1,.64,1,0Z" transform="translate(-0.01)"/>
        <path class="cls-3" d="M235.21,11.24V7.3a.5.5,0,0,0-1,0v3.94a.5.5,0,0,0,1,0Z" transform="translate(-0.01)"/>
        <path class="cls-3" d="M234.77,2.79V1.1a.5.5,0,1,0-1,0V2.79a.5.5,0,0,0,1,0Z" transform="translate(-0.01)"/>
      </g>
      <g>
        <path class="cls-2" d="M136.44,21.27a111.1,111.1,0,0,1,19.36-6.62c1.25-.3.72-2.23-.54-1.93a115,115,0,0,0-19.83,6.82,1,1,0,0,0-.35,1.37,1,1,0,0,0,1.36.36Z" transform="translate(-0.01)"/>
        <path class="cls-2" d="M145.05,5.41l-.69,29a1,1,0,0,0,1.27,1,2.22,2.22,0,0,0,1.73-1.62,1,1,0,0,0-1.92-.53c-.06.18-.16.19-.34.22l1.26,1,.69-29a1,1,0,0,0-2,0Z" transform="translate(-0.01)"/>
        <path class="cls-2" d="M160.89,20.91l-1,8.35,2-.27a26.5,26.5,0,0,0-4.08-7.54,9.36,9.36,0,0,0-2.92-2.89,2.54,2.54,0,0,0-3.4,1.09,13.25,13.25,0,0,0-1.38,4,15.38,15.38,0,0,0-.38,4.38,10,10,0,0,0,3.16,6.88,7.8,7.8,0,0,0,7.54,1.86c1.21-.41.69-2.34-.54-1.93a5.59,5.59,0,0,1-5-.9,7.53,7.53,0,0,1-3-4.89,13.73,13.73,0,0,1,.75-6.89c.18-.55.52-2.12,1.36-1.82a3.51,3.51,0,0,1,1.12,1c.41.45.8.91,1.17,1.39a24.2,24.2,0,0,1,3.7,6.83,1,1,0,0,0,2-.26l1-8.35a1,1,0,0,0-1-1,1,1,0,0,0-1,1Z" transform="translate(-0.01)"/>
        <path class="cls-2" d="M165.42,17.42a135.37,135.37,0,0,1-.32,16.85h2a38.86,38.86,0,0,1,2.61-14.74c.21-.56.44-1.12.69-1.66.07-.16.33-.86.48-.88s.41.55.46.66a4.78,4.78,0,0,1,.28,1.34,69.13,69.13,0,0,1-.22,17.17,1,1,0,0,0,.7,1.23,1,1,0,0,0,1.23-.7,72.13,72.13,0,0,0,.71-9.4,55.92,55.92,0,0,0-.53-9.24,4,4,0,0,0-1.57-2.75,2.15,2.15,0,0,0-3,1,26.32,26.32,0,0,0-1.62,4,39.71,39.71,0,0,0-1.19,4.17,41,41,0,0,0-1,9.81,1,1,0,0,0,2,0,135.37,135.37,0,0,0,.32-16.85c-.06-1.28-2.06-1.29-2,0Z" transform="translate(-0.01)"/>
        <path class="cls-2" d="M181.11,5.39c-4.22,9.38-7.4,20.27-3.56,30.33.26.68.55,1.36.86,2a7.1,7.1,0,0,0,1,1.75c.83.87,2.43,1.1,2.85-.29.38-1.24-1.55-1.76-1.93-.53v0l.36-.36c-.44.33.27-.06.27-.06s0-.05,0,0-.27-.4-.27-.4q-.39-.71-.72-1.44a20.26,20.26,0,0,1-1.09-3,26.3,26.3,0,0,1-1-6.41A38.38,38.38,0,0,1,180,13.65a75.18,75.18,0,0,1,2.85-7.25A1,1,0,0,0,182.48,5a1,1,0,0,0-1.37.36Z" transform="translate(-0.01)"/>
        <path class="cls-2" d="M188.13,12.4c-2.23,3.2-2.72,7.2-2.72,11,0,3.59-.11,8.71,3.73,10.51a4.53,4.53,0,0,0,4.81-.59,10,10,0,0,0,2.8-4.17c1.53-3.71,2.86-8.29,1.45-12.25-1.28-3.62-5.06-6.67-9-5.61a1,1,0,0,0,.53,1.93c2.73-.73,5.28,1.36,6.39,3.71,1.51,3.21.41,7.12-.71,10.26-.7,2-2.21,6-5,5.05-3.19-1.06-2.89-5.78-2.92-8.43,0-3.61.33-7.36,2.45-10.41.74-1.06-1-2.06-1.73-1Z" transform="translate(-0.01)"/>
        <path class="cls-2" d="M186.8,25.58a34.9,34.9,0,0,0,9.1-3.49,1,1,0,0,0-1-1.73,32.88,32.88,0,0,1-8.62,3.29c-1.25.28-.72,2.21.53,1.93Z" transform="translate(-0.01)"/>
        <path class="cls-2" d="M197,6a37.54,37.54,0,0,1,4.79,26.65,35.42,35.42,0,0,1-2.31,7.46,1,1,0,0,0,.36,1.37,1,1,0,0,0,1.37-.36,39.55,39.55,0,0,0,1.08-28.6A38.13,38.13,0,0,0,198.75,5c-.67-1.09-2.41-.09-1.73,1Z" transform="translate(-0.01)"/>
      </g>
      <g>
        <path class="cls-4" d="M183,107.65a2.9,2.9,0,0,1-2.55-3.05,3.16,3.16,0,0,1,3-2.76,3.45,3.45,0,0,1,3.3,2.46,2.87,2.87,0,0,1-.52,2.67,2,2,0,0,1-2.57.38" transform="translate(-0.01)"/>
        <path class="cls-3" d="M183,106.65c-.27,0,.12,0,0,0l-.17-.05a1.66,1.66,0,0,1-.21-.06h0l-.31-.18c-.23-.13.08.08,0,0l-.2-.17s-.28-.32-.16-.17a2.9,2.9,0,0,1-.19-.29l-.08-.16c-.14-.23,0,.11,0,0s-.09-.28-.12-.42,0-.25,0,0c0-.06,0-.12,0-.18s0-.39,0-.17a2.09,2.09,0,0,1,.11-.43.52.52,0,0,1,.06-.16c-.07.16,0,0,0-.08s.12-.2.19-.3,0,0,0,0l.15-.16a2.44,2.44,0,0,1,.29-.27s-.15.1,0,0a1.64,1.64,0,0,1,.22-.14,2.29,2.29,0,0,1,.31-.16c-.17.08,0,0,0,0l.21-.07c.08,0,.38,0,.17,0h.57l.09,0a2.66,2.66,0,0,1,.38.1c.17.06,0,0,0,0l.16.08a2.58,2.58,0,0,1,.42.25s.16.13.07,0l.1.09a2,2,0,0,1,.25.26l.12.13c-.12-.15,0,0,0,0s.15.25.22.38l0,0,.06.16c0,.12.06.24.09.36.07.29,0-.11,0,.07a1.93,1.93,0,0,1,0,.24v.19s-.05.31,0,.11a3.74,3.74,0,0,1-.12.45s.08-.15,0,0a2,2,0,0,1-.14.25c-.09.16,0,.06,0,0l-.18.19c-.13.13,0,0,0,0l-.22.14c-.15.09,0,0,0,0l-.24.09s-.28,0-.12,0-.1,0-.13,0h-.12c.13,0-.12,0-.15,0s-.2-.07-.08,0-.15-.1-.18-.12a1,1,0,0,0-1.37.36,1,1,0,0,0,.36,1.37,3.08,3.08,0,0,0,4.35-1.36,4.3,4.3,0,0,0-5.35-5.75,4.13,4.13,0,0,0-2.68,3.76,3.93,3.93,0,0,0,3.56,3.79,1,1,0,0,0,1-1,1,1,0,0,0-1-1Z" transform="translate(-0.01)"/>
      </g>
    </g>
  </g>
</svg>
