<svg xmlns="http://www.w3.org/2000/svg" viewBox="0 0 372.98 60.12">
  <defs>
    <style>
      .cls-1 {
        fill: #231f20;
      }

      .cls-2 {
        fill: #00a651;
      }

      .cls-3 {
        fill: #ed1c24;
      }

      .cls-4 {
        fill: #00aeef;
      }
    </style>
  </defs>
  <title>tan-right-triangle-definition</title>
  <g id="Layer_2" data-name="Layer 2">
    <g id="Layer_1-2" data-name="Layer 1">
      <path class="cls-1" d="M59.83,9.28a63,63,0,0,0-5.71,19.37,61.83,61.83,0,0,0-.44,10.09,38.86,38.86,0,0,0,1.19,9,12.87,12.87,0,0,0,5.07,7.59c1.08.7,2.08-1,1-1.73-4.51-3-5-9.48-5.24-14.34a60.63,60.63,0,0,1,2.1-19,59.85,59.85,0,0,1,3.76-10c.56-1.16-1.17-2.17-1.73-1Z"/>
      <g>
        <path class="cls-2" d="M77.64,27.2V40h2a31.72,31.72,0,0,0-3.38-11.61A28.15,28.15,0,0,0,73,23.35c-1.21-1.46-3-2.75-5-2.33-1.75.36-2.85,1.95-3.46,3.52A13.38,13.38,0,0,0,63.8,30,15.52,15.52,0,0,0,68.3,40.2a15.72,15.72,0,0,0,11.46,4.43c1.28-.05,1.29-2.05,0-2a13.8,13.8,0,0,1-8.88-2.82A13.38,13.38,0,0,1,66,31.7a13.13,13.13,0,0,1,0-4.76c.23-1.28.64-2.85,1.76-3.66,1.34-1,2.75.26,3.62,1.26a23.42,23.42,0,0,1,2.87,4.31A29.33,29.33,0,0,1,77.64,40a1,1,0,0,0,2,0V27.2a1,1,0,0,0-2,0Z"/>
        <path class="cls-2" d="M85.44,23.27l.81,18.88,2-.26a26.76,26.76,0,0,1,1.68-16.65,9.16,9.16,0,0,1,2-3.35c.23-.2.63-.51,1-.38s.73,1.18.9,1.6a33.4,33.4,0,0,1,1.87,18.61c-.23,1.25,1.69,1.79,1.93.53a35.46,35.46,0,0,0-2-20.08c-.57-1.36-1.33-2.85-3.06-2.67-1.51.16-2.64,1.48-3.33,2.72A28,28,0,0,0,86,31.39a29.45,29.45,0,0,0,.3,11,1,1,0,0,0,2-.27l-.81-18.88c-.06-1.29-2.06-1.29-2,0Z"/>
        <path class="cls-2" d="M103.45,23.52a25.49,25.49,0,0,0-.43,8,24.69,24.69,0,0,0,.7,3.82,4.35,4.35,0,0,0,1.73,2.76c1.73,1.06,4,.05,5-1.59,1.26-2.14.3-4.82-.85-6.77a16.76,16.76,0,0,0-5.38-5.54l-.5,1.87c2.54.22,4.64,2.08,5.92,4.18a26.18,26.18,0,0,1,2.89,8.12,17,17,0,0,1,0,8.94,11.24,11.24,0,0,1-3.93,5.38A11.5,11.5,0,0,1,101.19,55c-1.28,0-1.28,2,0,2a13.73,13.73,0,0,0,12.93-8.38,17.31,17.31,0,0,0,.57-9.7,29.8,29.8,0,0,0-3.1-9.37,10.36,10.36,0,0,0-7.87-5.54c-1-.1-1.28,1.37-.51,1.86a14.28,14.28,0,0,1,3.88,3.63c1,1.4,2.14,3.22,1.93,5-.12,1-1.33,2.47-2.5,1.83-.66-.37-.82-1.37-1-2a23.23,23.23,0,0,1-.54-3.09,23.59,23.59,0,0,1,.39-7.21c.26-1.26-1.67-1.8-1.93-.54Z"/>
        <path class="cls-2" d="M117.39,18.75q.4,12.86.23,25.74a1,1,0,0,0,1.87.5l1.12-1.51a1,1,0,0,0-.36-1.37,1,1,0,0,0-1.37.36L117.76,44l1.86.51q.18-12.87-.23-25.74c0-1.29-2-1.29-2,0Z"/>
        <path class="cls-2" d="M125.85,33.29c2.26-1,4.93-2.5,4.75-5.36A3.42,3.42,0,0,0,129,25.1a3.1,3.1,0,0,0-3.42.31c-2.24,1.67-2.8,4.91-2.84,7.54a15.77,15.77,0,0,0,2.11,8.15,6.13,6.13,0,0,0,3,2.73,2.72,2.72,0,0,0,3.45-.95c.71-1.08-1-2.08-1.72-1-.3.46-1,.14-1.39-.08A4.57,4.57,0,0,1,126.54,40a13.72,13.72,0,0,1-1.76-6,10.61,10.61,0,0,1,1.06-5.85c.35-.6,1-1.41,1.71-1.41.6,0,.94.52,1,1.06.36,2.11-2.21,3.14-3.74,3.8a1,1,0,0,0-.36,1.37,1,1,0,0,0,1.37.35Z"/>
      </g>
      <path class="cls-1" d="M130.6,12a79.17,79.17,0,0,1,9,26c.47,2.93.95,6.08.06,9-.77,2.52-3,4.86-5.78,4.69-1.29-.08-1.28,1.92,0,2a7.69,7.69,0,0,0,6.76-4c1.67-2.77,1.67-6.19,1.31-9.3a78.69,78.69,0,0,0-4.83-19.21A84.15,84.15,0,0,0,132.33,11a1,1,0,0,0-1.73,1Z"/>
      <path class="cls-1" d="M155.06,30a35,35,0,0,0,12.64-2.35,1,1,0,0,0,.7-1.23,1,1,0,0,0-1.23-.7A33.46,33.46,0,0,1,155.06,28a1,1,0,0,0,0,2Z"/>
      <path class="cls-1" d="M156.63,39.33A29.33,29.33,0,0,1,170.82,36a1,1,0,0,0,0-2,31.42,31.42,0,0,0-15.2,3.65c-1.14.6-.13,2.33,1,1.73Z"/>
      <g>
        <path class="cls-1" d="M1,24.12A86.11,86.11,0,0,0,28,18.61a1,1,0,0,0,.7-1.23,1,1,0,0,0-1.23-.7A84.55,84.55,0,0,1,1,22.12c-1.28.05-1.28,2.05,0,2Z"/>
        <path class="cls-1" d="M13.87,12.25,11.65,42.73,11,51.4c-.07,1.07,1.36,1.25,1.87.5l1.44-2.1c.73-1.06-1-2.06-1.73-1L11.15,50.9l1.86.5,2.22-30.48.64-8.67c.09-1.29-1.91-1.28-2,0Z"/>
        <path class="cls-1" d="M29.81,40.38l1.26,9.24,1.83-.77a46.63,46.63,0,0,0-5.62-9.34,21.72,21.72,0,0,0-3.4-3.82,3.1,3.1,0,0,0-4.3.24c-2,2.07-2,5.59-1.38,8.21a14.09,14.09,0,0,0,4.33,7.1,12.49,12.49,0,0,0,8.82,3.32c1.28-.05,1.29-2.06,0-2-4.74.23-9.13-3.17-10.78-7.52-.78-2-1.15-4.71-.18-6.77a2.66,2.66,0,0,1,1-1.26,1.18,1.18,0,0,1,1.36.35,24,24,0,0,1,2.95,3.4,45.3,45.3,0,0,1,5.44,9.1,1,1,0,0,0,1.25.4A1,1,0,0,0,33,49.08l-1.26-9.23a1,1,0,0,0-1.23-.7,1,1,0,0,0-.7,1.23Z"/>
        <path class="cls-1" d="M35.58,35.68a37.09,37.09,0,0,0,1.65,17.24,1,1,0,0,0,1.93-.53,50.54,50.54,0,0,1-1.54-11,51.12,51.12,0,0,1,.15-5.67,14,14,0,0,1,.78-4.1,4.31,4.31,0,0,1,1.94-2.48,2.23,2.23,0,0,1,2.64,1,11.56,11.56,0,0,1,1.62,4.11,53.64,53.64,0,0,1,1.11,5.3A54.45,54.45,0,0,1,46.35,52c-.09,1.28,1.91,1.27,2,0a55.86,55.86,0,0,0-.46-12.26,55.41,55.41,0,0,0-1.21-6,13.87,13.87,0,0,0-1.82-4.59,4.45,4.45,0,0,0-3.81-2.09,4.61,4.61,0,0,0-3.44,2.13,10,10,0,0,0-1.56,4,38.12,38.12,0,0,0-.44,5.85,52.89,52.89,0,0,0,1.62,13.84l1.93-.53a35,35,0,0,1-1.65-16.17,1,1,0,0,0-.7-1.24,1,1,0,0,0-1.23.7Z"/>
      </g>
      <g>
        <g>
          <path class="cls-3" d="M280.38,38.9a22.56,22.56,0,0,0-3.67,3.83c-.79,1.05-1.57,2.46-.34,3.52,1,.84,2.35.85,3.49,1.32A3.32,3.32,0,0,1,282,51.18c-.35,1.34-2.26,2.35-3.46,1.41-.5-.39-1.21.31-.7.71a3.14,3.14,0,0,0,3.67.07A3.33,3.33,0,0,0,283,49.76a4.64,4.64,0,0,0-3-3.22c-.84-.29-3.27-.47-3.24-1.72a3,3,0,0,1,.81-1.5q.51-.69,1.08-1.32a21.69,21.69,0,0,1,2.5-2.39c.5-.41-.21-1.11-.71-.71Z"/>
          <path class="cls-3" d="M286.36,53.5l.86-9c.06-.64-.94-.63-1,0l-.86,9c-.06.64.94.63,1,0Z"/>
          <path class="cls-3" d="M292.84,37.55a38.46,38.46,0,0,1,.34,10.66l.94-.26a2.85,2.85,0,0,0-3.07-1.19,2.9,2.9,0,0,0-2.25,2.57,3.82,3.82,0,0,0,1.55,3.48,5.06,5.06,0,0,0,4.36.58.5.5,0,0,0-.26-1c-2,.58-4.61-.21-4.67-2.61a2,2,0,0,1,1.33-2,1.83,1.83,0,0,1,2.14.68.5.5,0,0,0,.93-.25,39.25,39.25,0,0,0-.38-10.93c-.11-.63-1.07-.36-1,.27Z"/>
          <path class="cls-3" d="M298.1,50.41c1.74-.54,3.8-1.79,4.09-3.77a2.84,2.84,0,0,0-3.77-2.81c-1.56.69-2,3-1.77,4.51a7.15,7.15,0,0,0,2.7,4.4,14.73,14.73,0,0,0,3.28,2.12c.58.27,1.09-.6.51-.86a10.74,10.74,0,0,1-5-4.17,4.74,4.74,0,0,1-.24-3.95c.25-.68.73-1.31,1.53-1.22a2,2,0,0,1,1.76,1.47,2.34,2.34,0,0,1-.72,1.72,5.73,5.73,0,0,1-2.66,1.59c-.62.19-.35,1.16.26,1Z"/>
          <path class="cls-3" d="M314.23,36.84a45.63,45.63,0,0,0-.17,14.38c.1.63,1.06.36,1-.27a44.07,44.07,0,0,1,.16-13.85c.11-.63-.85-.9-1-.26Z"/>
          <path class="cls-3" d="M319.16,48.25c1.29-1.18,3-2.86,2.48-4.8-.37-1.46-2.23-2.84-3.63-1.75s-1.35,3.52-1.16,5a10.26,10.26,0,0,0,2,4.86A9.43,9.43,0,0,0,323.69,55a.5.5,0,0,0,.27-1,9,9,0,0,1-6.17-7.93c-.07-1.16.26-5,2.21-3.42s-.34,3.76-1.55,4.86c-.48.44.23,1.14.71.71Z"/>
          <path class="cls-3" d="M324.07,40.92l0,10h1a27.38,27.38,0,0,1,.55-6.32,24.79,24.79,0,0,1,.76-2.81c.19-.58.62-1.86,1.46-1.4s.94,1.49,1.15,2.18a18.07,18.07,0,0,1,.62,2.83,19.11,19.11,0,0,1-.16,6.13c-.12.63.84.9,1,.27a20.08,20.08,0,0,0,.29-5.58A16.87,16.87,0,0,0,329.47,41c-.52-1.18-1.83-2.31-3.06-1.26a3.67,3.67,0,0,0-1,1.71,26.6,26.6,0,0,0-.79,2.91,28.08,28.08,0,0,0-.59,6.59.5.5,0,0,0,1,0l0-10a.5.5,0,0,0-1,0Z"/>
          <path class="cls-3" d="M331.42,43.73a12.6,12.6,0,0,0,.05,3.36,4,4,0,0,0,.9,2.32c1.3,1.27,2.69-.4,3.1-1.61A5.48,5.48,0,0,0,331.94,41a.51.51,0,0,0-.49.84A18,18,0,0,1,335.92,52a7.52,7.52,0,0,1-1.3,5.26,4.58,4.58,0,0,1-4.32,1.83c-.63-.12-.9.84-.27,1A5.45,5.45,0,0,0,335,58.36a7.8,7.8,0,0,0,2-5.53,18.62,18.62,0,0,0-4.79-11.72l-.49.83a4.5,4.5,0,0,1,3,4.86c-.11.75-1.07,3-1.85,1.57a5.54,5.54,0,0,1-.47-2.12,12.49,12.49,0,0,1,.05-2.52c.08-.63-.92-.63-1,0Z"/>
          <path class="cls-3" d="M335.38,36.85a24,24,0,0,1,7.77-1.07.5.5,0,0,0,0-1,25.06,25.06,0,0,0-8,1.1c-.62.19-.35,1.16.26,1Z"/>
          <path class="cls-3" d="M338.12,29.09q0,11,.89,22c.05.64,1.05.65,1,0q-.92-11-.89-22a.5.5,0,0,0-1,0Z"/>
          <path class="cls-3" d="M343.89,30.78q.28,9.54,1,19.07a.5.5,0,0,0,1,.13q.88-2.7,1.95-5.32a17.07,17.07,0,0,1,1.11-2.56c.53-.87,1.21-.36,1.62.31a7.24,7.24,0,0,1,.72,2.37,25.44,25.44,0,0,1,.41,2.89,27.16,27.16,0,0,1-.09,5.63c-.08.64.92.64,1,0a28.51,28.51,0,0,0-.06-7c-.23-1.69-.41-4.05-1.84-5.23a1.64,1.64,0,0,0-2-.17,4.8,4.8,0,0,0-1.36,2.31c-.9,2.14-1.72,4.32-2.44,6.53l1,.14q-.72-9.52-1-19.07c0-.64-1-.65-1,0Z"/>
          <path class="cls-3" d="M207.42,42.72V53.89h1a25,25,0,0,0-2.5-9.43,21.46,21.46,0,0,0-1.2-2.15,5.05,5.05,0,0,0-1.41-1.73c-1.25-.77-2.63.22-3.35,1.25-1.68,2.39-1.58,5.56-.68,8.23s2.59,5.65,5.15,6.92a4.16,4.16,0,0,0,4.19-.11,3.16,3.16,0,0,0,1.53-3.41.5.5,0,0,0-1,.27,2.28,2.28,0,0,1-1.45,2.48,3.27,3.27,0,0,1-3.22-.33,11.36,11.36,0,0,1-4.21-5.9,8.8,8.8,0,0,1,.07-6.92c.52-1,1.78-2.53,2.82-1.22a18,18,0,0,1,2,3.42,23.48,23.48,0,0,1,2.22,8.63.5.5,0,0,0,1,0V42.72a.5.5,0,0,0-1,0Z"/>
          <path class="cls-3" d="M217.26,34.72A63.27,63.27,0,0,0,218,50.63l.83-.49a18.93,18.93,0,0,0-4.38-3.8,3.58,3.58,0,0,0-2.39-.81,2.44,2.44,0,0,0-1.64,1.23c-1.7,2.89.46,6.86,3.3,8a6.51,6.51,0,0,0,5.55-.31c.57-.31.06-1.17-.5-.86a5.37,5.37,0,0,1-7.88-4.17,3.54,3.54,0,0,1,.48-2.34c.64-.91,1.49-.58,2.3-.09a18.33,18.33,0,0,1,4.46,3.82c.35.42.91-.05.83-.49a62.55,62.55,0,0,1-.7-15.64c.05-.64-.95-.63-1,0Z"/>
          <path class="cls-3" d="M223.39,36.28a50.05,50.05,0,0,1,1.9,6.8c.24,1.18.44,2.38.58,3.58a9.87,9.87,0,0,1,0,3.47c-.32,1.37-1.84,3.5-3.38,2.31-1.36-1-1.82-3.09-1.93-4.7,0-.64-1-.65-1,0a8.57,8.57,0,0,0,1.55,4.7,2.78,2.78,0,0,0,3.06,1.24,4.78,4.78,0,0,0,2.78-4,20.27,20.27,0,0,0-.58-6.34,49.67,49.67,0,0,0-2-7.38c-.22-.6-1.18-.34-1,.27Z"/>
          <path class="cls-3" d="M234.81,47.45a20.27,20.27,0,0,1,.31,5.44l1-.14a26.14,26.14,0,0,0-1.4-5.52A8.34,8.34,0,0,0,231.37,43c-2-1.09-2.89,2.29-3,3.69a6.49,6.49,0,0,0,2,5.17,6.78,6.78,0,0,0,5.76,1.63c.63-.11.36-1.08-.27-1a5.59,5.59,0,0,1-6.54-5.09,5.72,5.72,0,0,1,.34-2.36,4.86,4.86,0,0,1,.51-1c.16-.21.27-.33.54-.23a2.28,2.28,0,0,1,.57.36,8.55,8.55,0,0,1,2.54,3.71A27.12,27.12,0,0,1,235.14,53c.1.59,1,.39,1-.13a21.37,21.37,0,0,0-.34-5.7c-.12-.63-1.09-.37-1,.26Z"/>
          <path class="cls-3" d="M243.2,42.63a4.14,4.14,0,0,0-3.32,1.92,12.28,12.28,0,0,0-2.27,4.09,4.18,4.18,0,0,0,.78,4,5,5,0,0,0,3.43,1.56,9,9,0,0,0,5-1.61.5.5,0,0,0-.51-.86,7.86,7.86,0,0,1-4.6,1.46,3.53,3.53,0,0,1-3.21-2.28c-.48-1.63.5-3.3,1.36-4.62.75-1.13,1.76-2.68,3.3-2.61.64,0,.64-1,0-1Z"/>
          <path class="cls-3" d="M248.76,49.18c1.67-.62,3.84-1.48,4.34-3.4.37-1.4-.33-3.36-1.92-3.58-2-.28-3,2.08-3.23,3.68a8.62,8.62,0,0,0,1,6.28,6,6,0,0,0,5.71,2.71c.64-.09.37-1.06-.26-1a4.81,4.81,0,0,1-4.12-1.66,6.69,6.69,0,0,1-1.54-4.66c0-1.31.24-3.43,1.49-4.21s2.06.83,1.93,1.88c-.2,1.69-2.33,2.46-3.69,3-.6.22-.34,1.19.26,1Z"/>
          <path class="cls-3" d="M255.76,45.24a42.72,42.72,0,0,0,.35,9.72c.09.55,1,.42,1-.14a46.89,46.89,0,0,1,0-6.6c.09-1.13.21-2.26.38-3.39a4.11,4.11,0,0,1,.94-2.51,1.06,1.06,0,0,1,1.87.47,19,19,0,0,1,.41,3.37,44.46,44.46,0,0,1,0,6.63c0,.64,1,.64,1,0a43.6,43.6,0,0,0,0-6.26c-.07-1.05-.18-2.09-.32-3.13a2.93,2.93,0,0,0-.86-2.08c-1.13-.89-2.72-.14-3.36,1a6.62,6.62,0,0,0-.68,2.4c-.15,1-.26,1.94-.35,2.92a46.9,46.9,0,0,0,0,7.21l1-.13a40.38,40.38,0,0,1-.32-9.45c.05-.64-.95-.63-1,0Z"/>
          <path class="cls-3" d="M262.27,42.18l6.83-3.1a.5.5,0,0,0-.5-.86l-6.84,3.1a.52.52,0,0,0-.18.69.51.51,0,0,0,.69.17Z"/>
          <path class="cls-3" d="M265.92,34.65a53.26,53.26,0,0,0-1.74,19.86c.07.63,1.07.64,1,0a52.51,52.51,0,0,1,1.7-19.6.5.5,0,0,0-1-.26Z"/>
        </g>
        <g>
          <path class="cls-4" d="M197.58,24.12a6.55,6.55,0,0,1-2.7-7.35c.81-2.8,2.73-7,6.12-7.18,2.55-.11,4.8,2.3,6.06,4.32a7.24,7.24,0,0,1,1.24,4.57,6.34,6.34,0,0,1-2,3.85c-2.16,2.05-5.9,3.3-8.68,1.79-.57-.3-1.07.56-.51.87,2.84,1.53,6.51.65,9-1.19A8.19,8.19,0,0,0,209,20a7.24,7.24,0,0,0-.38-5.37,12.06,12.06,0,0,0-2.42-3.46,8.09,8.09,0,0,0-3.9-2.47,5.5,5.5,0,0,0-5.1,1.76,14.48,14.48,0,0,0-2.83,4.84,7.92,7.92,0,0,0-.41,5.46A7.28,7.28,0,0,0,197.07,25,.5.5,0,0,0,197.58,24.12Z"/>
          <path class="cls-4" d="M211.33,15.9a151.79,151.79,0,0,0-1.13,24.76c0,.64,1,.65,1,0a151.79,151.79,0,0,1,1.13-24.76c.08-.64-.92-.63-1,0Z"/>
          <path class="cls-4" d="M212.06,16.49a2.07,2.07,0,0,1,2.38-2,4,4,0,0,1,2.86,2.41c1.06,2.22.48,5.48-2.16,6.19a3.17,3.17,0,0,1-3.35-.91c-.39-.51-1.26,0-.87.5a4.1,4.1,0,0,0,3.89,1.5,4.49,4.49,0,0,0,3.51-2.65,6.15,6.15,0,0,0,0-4.85,5.06,5.06,0,0,0-3.59-3.16c-1.75-.28-3.77,1.05-3.64,3,.05.64,1.05.64,1,0Z"/>
          <path class="cls-4" d="M222,13.5a158.86,158.86,0,0,0-1.85,26.59.5.5,0,0,0,1,0,157.67,157.67,0,0,1,1.81-26.32c.1-.63-.87-.9-1-.27Z"/>
          <path class="cls-4" d="M222.2,14.71c0-1.43,1.65-2.22,2.9-1.89a5.15,5.15,0,0,1,3,2.77,7.33,7.33,0,0,1,1,3.28A3.8,3.8,0,0,1,227,22.4a6,6,0,0,1-5.12.12c-.59-.23-.85.73-.26,1a7.11,7.11,0,0,0,5.56-.06,4.83,4.83,0,0,0,2.87-4.1,8,8,0,0,0-1.16-4.28,5.91,5.91,0,0,0-3.85-3.26c-1.8-.32-3.88,1-3.85,2.92a.5.5,0,0,0,1,0Z"/>
          <path class="cls-4" d="M232.93,19.66c-1.12-3.16,2.17-7.18,5.52-5.65a4.69,4.69,0,0,1,2.69,3.93,3.57,3.57,0,0,1-2.4,3.45,4.06,4.06,0,0,1-4.56-.88c-.43-.48-1.14.23-.71.71,2.56,2.9,8.11,1.35,8.63-2.54a5.56,5.56,0,0,0-2.55-5.2,4.78,4.78,0,0,0-5.64.31A5.67,5.67,0,0,0,232,19.92c.22.61,1.18.35,1-.26Z"/>
          <path class="cls-4" d="M247.37,8.68c-.72,1-1.4,2-2,3.07a17.9,17.9,0,0,0-1.61,3.14c-.68,2,1.3,3,3,3.17,1,.07,2.24,0,2.85.86a2.16,2.16,0,0,1-.12,2.22c-1.19,2.05-4,1.55-6,1.18-.63-.11-.9.85-.27,1,1.78.33,3.72.66,5.43-.12A3.82,3.82,0,0,0,250.83,20a2.66,2.66,0,0,0-2.33-2.77c-1.1-.2-4.44.05-3.83-2a15.17,15.17,0,0,1,1.6-3.1c.61-1,1.27-2,2-3,.38-.52-.49-1-.87-.5Z"/>
          <path class="cls-4" d="M253.83,21.2a34.81,34.81,0,0,1-.44-9.45c.06-.64-.94-.64-1,0a36,36,0,0,0,.47,9.72c.12.63,1.08.36,1-.27Z"/>
          <path class="cls-4" d="M254.54,10.43l7.32-.54c.64,0,.64-1,0-1l-7.32.54c-.64.05-.64,1.05,0,1Z"/>
          <path class="cls-4" d="M258.57,6a59.35,59.35,0,0,0-1.12,15.9c0,.64,1,.64,1,0a58.15,58.15,0,0,1,1.09-15.63c.13-.63-.84-.9-1-.27Z"/>
          <path class="cls-4" d="M260.08,20.35c2.09.16,4.89-.77,5.36-3.11.37-1.9-1.81-4.65-3.74-3.2a5.54,5.54,0,0,0-1.7,2.83,8.48,8.48,0,0,0-.36,3.61,9.05,9.05,0,0,0,3.07,5.33,15.93,15.93,0,0,0,3.81,2.59c.57.27,1.08-.59.5-.87a12.59,12.59,0,0,1-5.61-4.89,6.9,6.9,0,0,1-.42-5.59,4.25,4.25,0,0,1,1.41-2.29c.84-.51,1.7.59,2,1.29a2.11,2.11,0,0,1-.81,2.37,4.81,4.81,0,0,1-3.47.93c-.64-.05-.64.95,0,1Z"/>
          <path class="cls-4" d="M280.7,10.3A21.82,21.82,0,0,0,277,14.12c-.79,1.05-1.57,2.47-.34,3.53,1,.83,2.35.85,3.5,1.31a3.31,3.31,0,0,1,2.11,3.61c-.35,1.34-2.25,2.35-3.45,1.41-.5-.39-1.22.31-.71.71a3.12,3.12,0,0,0,3.67.07,3.32,3.32,0,0,0,1.46-3.61,4.6,4.6,0,0,0-3-3.22c-.85-.29-3.27-.47-3.25-1.72a3,3,0,0,1,.81-1.5c.34-.46.71-.9,1.08-1.32A22.57,22.57,0,0,1,281.4,11c.5-.4-.21-1.11-.7-.7Z"/>
          <path class="cls-4" d="M286.67,24.89l.87-10.72c0-.64-1-.64-1,0l-.87,10.72c-.05.64.95.64,1,0Z"/>
          <path class="cls-4" d="M293.15,8.94a38.47,38.47,0,0,1,.35,10.66l.93-.25a2.83,2.83,0,0,0-3.06-1.2,2.89,2.89,0,0,0-2.25,2.58,3.81,3.81,0,0,0,1.55,3.47,5,5,0,0,0,4.36.58.5.5,0,0,0-.27-1c-2,.58-4.61-.21-4.67-2.61a2,2,0,0,1,1.33-2,1.86,1.86,0,0,1,2.15.68.5.5,0,0,0,.93-.25,39.18,39.18,0,0,0-.39-10.92c-.11-.64-1.07-.37-1,.26Z"/>
          <path class="cls-4" d="M298.42,21.8c1.74-.54,3.79-1.79,4.08-3.77a2.84,2.84,0,0,0-3.76-2.81c-1.56.69-2,3-1.78,4.51a7.19,7.19,0,0,0,2.7,4.4A14.45,14.45,0,0,0,303,26.25c.58.27,1.09-.59.5-.86a10.76,10.76,0,0,1-5-4.17,4.71,4.71,0,0,1-.24-3.95c.25-.68.73-1.31,1.53-1.22a2,2,0,0,1,1.75,1.47,2.38,2.38,0,0,1-.72,1.73,5.9,5.9,0,0,1-2.66,1.59c-.61.19-.35,1.15.27,1Z"/>
          <path class="cls-4" d="M317.54,8.23a45.34,45.34,0,0,0-.16,14.38c.09.63,1.05.36,1-.27a43.78,43.78,0,0,1,.17-13.85c.1-.63-.86-.9-1-.26Z"/>
          <path class="cls-4" d="M322.47,19.64c1.29-1.17,3-2.86,2.49-4.8-.38-1.46-2.24-2.84-3.64-1.75s-1.35,3.52-1.15,5.05a10.2,10.2,0,0,0,2,4.86A9.57,9.57,0,0,0,327,26.39a.5.5,0,0,0,.26-1,9,9,0,0,1-6.17-7.93c-.07-1.16.27-5,2.22-3.42s-.35,3.76-1.55,4.86c-.48.44.23,1.15.7.71Z"/>
          <path class="cls-4" d="M327.38,12.31v10h1a26.63,26.63,0,0,1,1.3-9.13c.19-.58.62-1.86,1.46-1.4s.95,1.49,1.15,2.18a18.32,18.32,0,0,1,.62,2.83,18.83,18.83,0,0,1-.16,6.13c-.12.63.85.9,1,.27A20.47,20.47,0,0,0,334,17.6a17.17,17.17,0,0,0-1.22-5.25c-.52-1.18-1.83-2.3-3-1.26a3.6,3.6,0,0,0-1,1.71,26.17,26.17,0,0,0-.79,2.92,27.94,27.94,0,0,0-.58,6.58.5.5,0,0,0,1,0v-10a.5.5,0,0,0-1,0Z"/>
          <path class="cls-4" d="M334.74,15.13a12.52,12.52,0,0,0,0,3.35,4,4,0,0,0,.9,2.32c1.3,1.27,2.69-.4,3.1-1.61a5.47,5.47,0,0,0-3.53-6.82.51.51,0,0,0-.49.84,18,18,0,0,1,4.47,10.16,7.47,7.47,0,0,1-1.29,5.26,4.61,4.61,0,0,1-4.33,1.83c-.63-.12-.9.84-.26,1a5.42,5.42,0,0,0,4.92-1.67,7.72,7.72,0,0,0,2-5.53,18.56,18.56,0,0,0-4.79-11.72l-.49.84a4.48,4.48,0,0,1,3,4.86c-.1.74-1.07,3-1.85,1.56a5.54,5.54,0,0,1-.47-2.12,12.38,12.38,0,0,1,.06-2.51c.07-.64-.93-.64-1,0Z"/>
          <path class="cls-4" d="M338.7,8.24a24,24,0,0,1,7.76-1.07.5.5,0,0,0,0-1,25.14,25.14,0,0,0-8,1.1c-.61.19-.35,1.16.27,1Z"/>
          <path class="cls-4" d="M341.44.48q0,11,.88,22c.06.63,1.06.64,1,0q-.9-11-.88-22a.5.5,0,0,0-1,0Z"/>
          <path class="cls-4" d="M347.2,2.17q.29,9.54,1,19.07a.51.51,0,0,0,1,.13c.59-1.79,1.23-3.57,1.94-5.32a18.16,18.16,0,0,1,1.11-2.56c.53-.87,1.21-.36,1.62.31a7.26,7.26,0,0,1,.73,2.37,27,27,0,0,1,.31,8.52c-.07.64.93.64,1,0a27.57,27.57,0,0,0-.06-7c-.23-1.69-.41-4.05-1.83-5.22a1.64,1.64,0,0,0-2-.18,4.86,4.86,0,0,0-1.35,2.31c-.91,2.15-1.72,4.32-2.45,6.53l1,.14q-.7-9.52-1-19.07c0-.64-1-.65-1,0Z"/>
        </g>
        <path class="cls-1" d="M183.25,31.24c12.31-1.07,24.65-1.92,37-2.17s24.67.29,37,1,24.35,1.23,36.55,1.12,24.63-.61,36.95-.85A353.11,353.11,0,0,1,372,31.51c1.28.12,1.27-1.88,0-2-24.53-2.41-49.17-.76-73.74-.37-12.2.19-24.37-.14-36.56-.82s-24.63-1.43-37-1.32c-13.86.12-27.69,1.05-41.5,2.24-1.27.11-1.28,2.11,0,2Z"/>
      </g>
    </g>
  </g>
</svg>
