<svg xmlns="http://www.w3.org/2000/svg" viewBox="0 0 284.86 186.02">
  <defs>
    <style>
      .cls-1 {
        fill: #231f20;
      }

      .cls-2 {
        fill: #808285;
      }
    </style>
  </defs>
  <title>Asset 1</title>
  <g id="Layer_2" data-name="Layer 2">
    <g id="Layer_1-2" data-name="Layer 1">
      <path class="cls-1" d="M85.64,67a.5.5,0,0,0,0-1,.5.5,0,0,0,0,1Z" transform="translate(-0.01 -0.03)"/>
      <g>
        <g>
          <path class="cls-1" d="M107.62,98l10.8-5.22c.58-.28.08-1.14-.5-.86l-10.81,5.21c-.58.28-.07,1.15.51.87Z" transform="translate(-0.01 -0.03)"/>
          <path class="cls-1" d="M113.46,90.1c-.38,3.11-.66,6.24-.83,9.37-.09,1.54-.14,3.09-.17,4.63,0,.45,0,1.08.51,1.23a.64.64,0,0,0,.78-.66.47.47,0,0,0-.25-.44l-.06,0c-.58-.27-1.09.6-.51.87l.07,0-.25-.43v-.09l.3-.23-.09,0,.49.13c-.08-.07,0-.66,0-.76l0-1,.06-1.71q.08-1.83.21-3.66c.16-2.43.4-4.86.7-7.29.08-.64-.92-.63-1,0Z" transform="translate(-0.01 -0.03)"/>
          <path class="cls-1" d="M118.44,90.8q-.39,6.39-.25,12.8c0,.54.9.71,1,.14a14.19,14.19,0,0,1,.65-2.74c.1-.29,1-2.64,1.38-2.39s.23,1,.26,1.29q.08.81.09,1.62a17,17,0,0,1-.27,3.11c-.11.63.85.9,1,.27a17.34,17.34,0,0,0,.27-4.31c-.05-.9,0-2.62-1.05-3s-1.75,1.19-2.1,2a13.92,13.92,0,0,0-1.16,4l1,.13q-.14-6.41.25-12.8c0-.64-1-.64-1,0Z" transform="translate(-0.01 -0.03)"/>
          <path class="cls-1" d="M124.85,101.8a2.28,2.28,0,0,0,2-2.26,1.9,1.9,0,0,0-2.11-1.69c-1.11.18-1.47,1.39-1.51,2.36a6.06,6.06,0,0,0,.8,3.54,3.57,3.57,0,0,0,3.23,1.73.51.51,0,0,0,.5-.5.5.5,0,0,0-.5-.5c-2.39.23-3.25-2.68-3-4.56a1.27,1.27,0,0,1,.51-1,.75.75,0,0,1,.86.23c.69.73-.24,1.6-1,1.71a.5.5,0,0,0-.35.62.52.52,0,0,0,.61.35Z" transform="translate(-0.01 -0.03)"/>
        </g>
        <g>
          <path class="cls-1" d="M132,95.38a30.63,30.63,0,0,0,1.87,9.56l.92-.39a16,16,0,0,1-1.68-5.73A1.72,1.72,0,0,1,134.4,97a4.27,4.27,0,0,1,2.78.39c.6.24.86-.73.27-1a5,5,0,0,0-3.38-.36,2.72,2.72,0,0,0-1.9,2,8.57,8.57,0,0,0,.46,3.54,20.19,20.19,0,0,0,1.3,3.5c.25.5,1.11.14.92-.39A29.51,29.51,0,0,1,133,95.38c0-.64-1-.64-1,0Z" transform="translate(-0.01 -0.03)"/>
          <path class="cls-1" d="M139.71,104.08a8,8,0,0,1,0-5c.2-.61-.77-.88-1-.27a9,9,0,0,0,0,5.52c.2.61,1.17.35,1-.26Z" transform="translate(-0.01 -0.03)"/>
          <path class="cls-1" d="M141.67,98.63a5.4,5.4,0,0,0-1.32,3.29c0,1,.33,2.15,1.56,2a1.87,1.87,0,0,0,1.62-1.85,2.32,2.32,0,0,0-1.64-2.24l.35.61c-.06.2.16.47.24.64s.27.6.39.9a15,15,0,0,1,.5,1.47,7.46,7.46,0,0,1,.18,3.45,4.48,4.48,0,0,1-3.56,3.67c-.63.08-.64,1.08,0,1,2.81-.33,4.57-3,4.68-5.66a11.1,11.1,0,0,0-1-4.73c-.25-.56-.5-1.38-1.14-1.61a.91.91,0,0,0-1.2.61.5.5,0,0,0,.35.61,1.31,1.31,0,0,1,.9,1.21c0,.44-.35,1-.88.93s-.29-1.37-.2-1.73a4.32,4.32,0,0,1,.92-1.87c.42-.49-.29-1.2-.7-.71Z" transform="translate(-0.01 -0.03)"/>
          <path class="cls-1" d="M145.58,94.34a19.62,19.62,0,0,0,.54,9,.5.5,0,0,0,1,0l.48-2.35c.08-.4.13-.82.24-1.21a1.13,1.13,0,0,1,.14-.36c.12-.13.08-.15.16,0a7.09,7.09,0,0,1,.43,2.28,13.26,13.26,0,0,1,0,2.44c-.07.64.93.63,1,0a12.94,12.94,0,0,0-.06-3.29c-.11-.78-.19-2.22-1.09-2.53s-1.37.59-1.53,1.28c-.26,1.14-.46,2.3-.69,3.44h1a18.53,18.53,0,0,1-.54-8.47c.11-.63-.85-.9-1-.27Z" transform="translate(-0.01 -0.03)"/>
          <path class="cls-1" d="M150.14,97.39a16.09,16.09,0,0,0,5.26-1.49.49.49,0,0,0,.18-.68.5.5,0,0,0-.68-.18,15,15,0,0,1-4.76,1.35.51.51,0,0,0-.5.5.5.5,0,0,0,.5.5Z" transform="translate(-0.01 -0.03)"/>
          <path class="cls-1" d="M152.22,92.34a25.16,25.16,0,0,0,0,10.65c.13.63,1.1.37,1-.26a24,24,0,0,1,0-10.13c.13-.63-.83-.89-1-.26Z" transform="translate(-0.01 -0.03)"/>
          <path class="cls-1" d="M139.33,96.23h0l.13,0h-.07l.13,0-.08,0,.12.06-.08,0,.1.08-.08-.09.08.1a.41.41,0,0,1-.07-.11l.05.12a.27.27,0,0,1,0-.12l0,.13a.34.34,0,0,1,0-.1v.13a.24.24,0,0,1,0-.08l0,.12a.16.16,0,0,1,0-.07l-.08.1,0-.05-.83-.22.15.78a.56.56,0,0,0,.09.17.48.48,0,0,0,.53.18.51.51,0,0,0,.29-.23l.06-.12a.61.61,0,0,0,0-.27l-.16-.77a.48.48,0,0,0-.35-.35.39.39,0,0,0-.26,0,.45.45,0,0,0-.22.13.08.08,0,0,0,0,0,.41.41,0,0,0-.1.13.47.47,0,0,0-.05.1.49.49,0,0,0,0,.11.9.9,0,0,0,0,.46,1.89,1.89,0,0,0,.09.21.8.8,0,0,0,.13.19l.07.07a1,1,0,0,0,.18.13,1.15,1.15,0,0,0,.35.1.72.72,0,0,0,.25,0,.52.52,0,0,0,.3-.23.51.51,0,0,0,0-.38.53.53,0,0,0-.23-.3.48.48,0,0,0-.39,0Z" transform="translate(-0.01 -0.03)"/>
        </g>
        <g>
          <path class="cls-1" d="M110.4,108.72l.64,5.74.75-.43c-1.3-.66-2.77-1.35-4.25-.87a2.47,2.47,0,0,0-1.78,2.85,3,3,0,0,0,2.35,2.41,4.42,4.42,0,0,0,3.82-1.25c.47-.44-.24-1.15-.71-.71a3.45,3.45,0,0,1-2.78,1,2.05,2.05,0,0,1-1.7-1.62,1.53,1.53,0,0,1,1.32-1.8,5,5,0,0,1,3.22.85c.31.15.8,0,.76-.44l-.64-5.74c-.07-.63-1.07-.64-1,0Z" transform="translate(-0.01 -0.03)"/>
          <path class="cls-1" d="M114.12,116a3.33,3.33,0,0,0,2.07-2.85,1.68,1.68,0,0,0-.75-1.49,1.41,1.41,0,0,0-1.56,0,2.5,2.5,0,0,0-.73,1.71,7.92,7.92,0,0,0,0,2.12,4.86,4.86,0,0,0,1.53,3.34,1.89,1.89,0,0,0,3-.77.5.5,0,0,0-1-.26c-.17.58-1,.55-1.38.26a3.4,3.4,0,0,1-1.08-2.13,6.69,6.69,0,0,1,0-2.92c.07-.27.12-.65.48-.59a.63.63,0,0,1,.47.67,2.39,2.39,0,0,1-1.58,2,.5.5,0,1,0,.51.86Z" transform="translate(-0.01 -0.03)"/>
          <path class="cls-1" d="M120.16,118.11a12.45,12.45,0,0,1-1-6.14c.06-.7.27-1.76,1-2.07.44-.18,1.25,0,1.23.59s1,.64,1,0a1.72,1.72,0,0,0-1.82-1.65,2.38,2.38,0,0,0-2.19,1.86,9.09,9.09,0,0,0-.19,3.85,14.33,14.33,0,0,0,1.12,4.06c.26.59,1.12.08.87-.5Z" transform="translate(-0.01 -0.03)"/>
          <path class="cls-1" d="M116.76,115.15a8.82,8.82,0,0,0,4.6-.92.5.5,0,1,0-.5-.86,8,8,0,0,1-4.1.78.5.5,0,0,0-.5.5.51.51,0,0,0,.5.5Z" transform="translate(-0.01 -0.03)"/>
          <path class="cls-1" d="M124.29,117.48l-.26-4.29a.5.5,0,0,0-.5-.5.51.51,0,0,0-.5.5l.26,4.29a.51.51,0,0,0,.5.5.5.5,0,0,0,.5-.5Z" transform="translate(-0.01 -0.03)"/>
          <path class="cls-1" d="M124.85,114.45l.49,3.55,1-.27a8.39,8.39,0,0,1-.23-2.78,6.33,6.33,0,0,1,.23-1.37,1.37,1.37,0,0,1,.44-.75l.12-.06h0c.11,0,.13.2.16.31a9.16,9.16,0,0,1,.19,1.38,20.44,20.44,0,0,1,0,3c0,.64,1,.64,1,0a20.33,20.33,0,0,0,0-2.92c0-.49-.11-1-.18-1.47a1.69,1.69,0,0,0-.46-1c-.64-.6-1.44-.18-1.88.42a4.73,4.73,0,0,0-.66,2.42,9.52,9.52,0,0,0,.27,3.1.5.5,0,0,0,.61.35.52.52,0,0,0,.35-.62l-.48-3.54a.5.5,0,0,0-1,.26Z" transform="translate(-0.01 -0.03)"/>
          <path class="cls-1" d="M130.52,117.12l-.72-5a.5.5,0,0,0-.61-.35.51.51,0,0,0-.35.61l.72,5a.5.5,0,0,0,.61.35.52.52,0,0,0,.35-.62Z" transform="translate(-0.01 -0.03)"/>
          <path class="cls-1" d="M130.28,111.9a15.54,15.54,0,0,1,3.94.6.5.5,0,0,0,.26-1,16.12,16.12,0,0,0-4.2-.64.5.5,0,0,0,0,1Z" transform="translate(-0.01 -0.03)"/>
          <path class="cls-1" d="M132,109.45a20.77,20.77,0,0,0,.42,8.63.5.5,0,0,0,1-.27,19.55,19.55,0,0,1-.42-8.09c.1-.63-.86-.9-1-.27Z" transform="translate(-0.01 -0.03)"/>
          <path class="cls-1" d="M137.1,117.12a11.8,11.8,0,0,1-.23-3.25.5.5,0,0,0-.5-.5.51.51,0,0,0-.5.5,12.53,12.53,0,0,0,.26,3.51.51.51,0,0,0,.62.35.51.51,0,0,0,.35-.61Z" transform="translate(-0.01 -0.03)"/>
          <path class="cls-1" d="M138.78,115.32c0-.09,0,.11,0,0a.31.31,0,0,1,0-.1s0,0,0-.07,0,.07,0,.07a.17.17,0,0,1,0-.07c0-.05,0-.1.05-.16l0,.07s0,0,0,0l0-.09.05-.06c0-.07-.07.08,0,0a1.59,1.59,0,0,0,.13-.13s.11-.08,0,0,0,0,0,0a1.29,1.29,0,0,1,.16-.09l0,0s-.11,0-.06,0a.32.32,0,0,1,.09,0l.07,0h.15s.13,0,0,0,0,0,0,0l.08,0h0s-.1,0-.06,0l.14.08,0,0-.05,0,.06,0,0,.06,0,0s-.07-.1,0,0a1,1,0,0,1,.08.11.3.3,0,0,0,0,.08v0s0,.09,0,.14a.29.29,0,0,1,0,.09s0,.12,0,0,0,0,0,0v.24c0,.09,0-.12,0,0s0,0,0,.08a1.42,1.42,0,0,1,0,.16s0-.07,0-.07,0,0,0,0a.21.21,0,0,1,0,.06.25.25,0,0,1,0,.07l0,0c.06-.08,0,0,0,0l0,0-.06,0c.11-.1.05,0,0,0l-.06,0s-.11.05,0,0,0,0,0,0l-.09,0h-.08c-.05,0-.12,0,0,0h-.3c-.07,0,.05,0,.06,0a.53.53,0,0,1-.18,0l-.1,0,0,0c-.06,0,.05,0,.05,0a1.29,1.29,0,0,0-.16-.09l-.09-.06c-.08,0,.07.06,0,0l-.14-.12,0,0c-.06-.06.06.08,0,0l-.05-.07a.41.41,0,0,0,0-.09s0,0,0,0,.05.12,0,0a.53.53,0,0,0-.23-.3.5.5,0,0,0-.73.56,1.79,1.79,0,0,0,.66.85,1.94,1.94,0,0,0,.93.34,1.66,1.66,0,0,0,1.66-.8,1.9,1.9,0,0,0,0-1.85,1.53,1.53,0,0,0-1.8-.69,1.91,1.91,0,0,0-1,.73,1.5,1.5,0,0,0-.24,1.18.5.5,0,1,0,1-.26Z" transform="translate(-0.01 -0.03)"/>
          <path class="cls-1" d="M141.31,112.87a12.18,12.18,0,0,1,.42,4.29h1a9.08,9.08,0,0,1,.35-2.84,9.29,9.29,0,0,1,.5-1.33c.09-.17.35-.87.63-.87s.29.55.32.69a12.91,12.91,0,0,1,.27,1.51,14.7,14.7,0,0,1,0,3.18.5.5,0,0,0,.5.5.51.51,0,0,0,.5-.5,14.63,14.63,0,0,0,0-3c0-.5-.12-1-.22-1.51a4.42,4.42,0,0,0-.36-1.24,1.16,1.16,0,0,0-2-.19,6.31,6.31,0,0,0-1.14,2.41,10.17,10.17,0,0,0-.4,3.15.5.5,0,0,0,1,0,12.93,12.93,0,0,0-.46-4.55.5.5,0,0,0-1,.26Z" transform="translate(-0.01 -0.03)"/>
        </g>
        <g>
          <path class="cls-1" d="M153.71,114.31c-.09-.07.08.07,0,0s0,.1,0,0v0s0,0,0,0,0-.06,0-.08,0,.11,0,0a.28.28,0,0,0,0-.09c0-.11,0,.12,0,0l0-.13c0-.1-.05.1,0,0l0-.09.06-.09c.07-.1-.07.08,0,0l.15-.15c.09-.08-.09,0,0,0l.12-.07c.1-.06-.1,0,0,0l.1,0h0s0,0,0,0a.41.41,0,0,1,.11,0,.54.54,0,0,1,.18,0c-.11,0,0,0,0,0l.14,0,.1,0c-.12,0,0,0,0,0a1.18,1.18,0,0,1,.19.11s.11.09,0,0l.09.07.18.18c.08.1-.06-.08,0,0l.06.09.11.19s.06.14,0,0l0,.1a1.82,1.82,0,0,1,.07.25s0,.12,0,0,0,0,0,0a1.48,1.48,0,0,1,0,.21c0,.13,0-.11,0,0l0,.11,0,.1a.64.64,0,0,1,0,.07c0-.06,0-.07,0,0l-.1.18c-.06.1.07-.08,0,0l-.06.07a.46.46,0,0,1-.07.07c-.09.08,0,0,0,0s-.17.11-.19.12l-.09,0c-.1,0,.11,0,0,0l-.19,0s-.16,0-.16,0,.12,0,0,0h-.13a1.76,1.76,0,0,1-.23,0c-.13,0,0,0,0,0s-.12,0-.13,0a1,1,0,0,1-.23-.06c-.1,0,0,0,0,0s-.1,0-.12,0l-.19-.12c-.09-.07.08.07,0,0l-.09-.08-.07-.08c-.06-.06.06.09,0,0a2.12,2.12,0,0,1-.11-.21.51.51,0,0,0-.69-.18.52.52,0,0,0-.17.69,2.28,2.28,0,0,0,3.88.14,2.23,2.23,0,0,0-.32-2.46,2,2,0,0,0-2.35-.65,1.84,1.84,0,0,0-.9,1.07,1.17,1.17,0,0,0,.46,1.36.5.5,0,0,0,.68-.18.5.5,0,0,0-.18-.68Z" transform="translate(-0.01 -0.03)"/>
          <path class="cls-1" d="M160,117.13a17.51,17.51,0,0,1-.43-4.56c0-.37-.08-1.21.44-1.27a1.34,1.34,0,0,1,1.12.59c.37.52,1.23,0,.86-.51a2.51,2.51,0,0,0-1.77-1.08,1.45,1.45,0,0,0-1.57,1.26,12,12,0,0,0-.05,2.87,18.37,18.37,0,0,0,.43,3c.14.63,1.11.36,1-.26Z" transform="translate(-0.01 -0.03)"/>
          <path class="cls-1" d="M157.21,115.24a12.75,12.75,0,0,0,5,.06.5.5,0,0,0,.35-.61.51.51,0,0,0-.61-.35,11.64,11.64,0,0,1-4.48-.06.5.5,0,0,0-.61.34.51.51,0,0,0,.35.62Z" transform="translate(-0.01 -0.03)"/>
        </g>
        <g>
          <path class="cls-1" d="M171.36,112.53a12.25,12.25,0,0,1,5.82-1.33c.64,0,.64-1,0-1a13.39,13.39,0,0,0-6.33,1.47c-.57.29-.07,1.15.51.86Z" transform="translate(-0.01 -0.03)"/>
          <path class="cls-1" d="M172.94,109.12l.71,5.53a24.77,24.77,0,0,0,.33,2.59c.16.67.7,1.19,1.39.88s.08-1.12-.5-.86c.19,0,.24,0,.15-.08A.47.47,0,0,1,175,117a3.5,3.5,0,0,1-.07-.45l-.14-1.09-.26-2.1-.55-4.27c-.08-.63-1.08-.64-1,0Z" transform="translate(-0.01 -0.03)"/>
          <path class="cls-1" d="M177.94,108.91a33.25,33.25,0,0,0,1.18,7.74.5.5,0,0,0,1-.26,11,11,0,0,1,0-3.88,2.5,2.5,0,0,1,.64-1.45,1,1,0,0,1,1.18-.16c.54.36,1-.51.5-.86a1.87,1.87,0,0,0-1.86-.06,2.71,2.71,0,0,0-1.28,1.66,10.88,10.88,0,0,0-.14,5l1-.26a31.66,31.66,0,0,1-1.15-7.48.5.5,0,0,0-1,0Z" transform="translate(-0.01 -0.03)"/>
          <path class="cls-1" d="M184.89,115.68v-2.26a.5.5,0,0,0-1,0v2.26a.51.51,0,0,0,.5.5.51.51,0,0,0,.5-.5Z" transform="translate(-0.01 -0.03)"/>
          <path class="cls-1" d="M184.17,110.54a.5.5,0,0,0,0-1,.5.5,0,0,0,0,1Z" transform="translate(-0.01 -0.03)"/>
          <path class="cls-1" d="M186.39,112.52a4.38,4.38,0,0,0,1.29,3,.5.5,0,0,0,.83-.22,5.63,5.63,0,0,0-.17-3.58l-.91.39c1.27,1.84,2.36,4.14,1.94,6.44a4.62,4.62,0,0,1-3.61,3.9c-.63.08-.64,1.08,0,1a5.57,5.57,0,0,0,4.51-4.33c.64-2.65-.49-5.37-2-7.51-.3-.44-1.13-.18-.91.38a4.8,4.8,0,0,1,.17,3l.83-.22a3.3,3.3,0,0,1-1-2.32.5.5,0,0,0-1,0Z" transform="translate(-0.01 -0.03)"/>
        </g>
        <g>
          <path class="cls-1" d="M132.61,129.34a30.09,30.09,0,0,1-.24-3.55,5.68,5.68,0,0,1,.41-3,2,2,0,0,1,3.17-.06c.36.53,1.22,0,.86-.5a3,3,0,0,0-4.58-.35,4.58,4.58,0,0,0-.85,3.21,28.09,28.09,0,0,0,.23,4.2.52.52,0,0,0,.5.5c.25,0,.54-.23.5-.5Z" transform="translate(-0.01 -0.03)"/>
          <path class="cls-1" d="M130.55,126.88a28.23,28.23,0,0,0,5.2-.13.53.53,0,0,0,.5-.5c0-.25-.23-.54-.5-.5a28.23,28.23,0,0,1-5.2.13.5.5,0,0,0-.5.5.51.51,0,0,0,.5.5Z" transform="translate(-0.01 -0.03)"/>
          <path class="cls-1" d="M137.93,123.1a5.51,5.51,0,0,0,.72,4.73c.46.65,1.25,1.36,2.06.78s.72-1.45.81-2.21L142,123a.5.5,0,0,0-.5-.5.51.51,0,0,0-.5.5l-.41,3.2a6.3,6.3,0,0,1-.21,1.24c-.07.22-.17.46-.38.36s-.55-.6-.71-.89a4.4,4.4,0,0,1-.35-3.53c.19-.62-.77-.88-1-.27Z" transform="translate(-0.01 -0.03)"/>
          <path class="cls-1" d="M142.76,124.14l.61,4.94a.52.52,0,0,0,.5.5.5.5,0,0,0,.5-.5,19.37,19.37,0,0,1,0-2.85,13,13,0,0,1,.15-1.4c0-.25.09-.69.38-.79s.31.29.36.48a7.13,7.13,0,0,1,.3,1.31,8.5,8.5,0,0,1-.06,2.71.5.5,0,0,0,1,.27,9.78,9.78,0,0,0,.12-2.7,8.46,8.46,0,0,0-.22-1.32,4.42,4.42,0,0,0-.39-1.18,1.2,1.2,0,0,0-2-.12,4.32,4.32,0,0,0-.61,2.43,20.83,20.83,0,0,0,0,3.16h1l-.61-4.94a.52.52,0,0,0-.5-.5c-.25,0-.54.23-.5.5Z" transform="translate(-0.01 -0.03)"/>
          <path class="cls-1" d="M149.07,123.27c-.92,1.11-1.91,2.35-1.88,3.88a2.49,2.49,0,0,0,2.31,2.62,2,2,0,0,0,1.75-.89c.34-.55-.53-1-.87-.5a1,1,0,0,1-1.12.36,1.41,1.41,0,0,1-1-1.08c-.35-1.41.69-2.68,1.53-3.69a.51.51,0,0,0,0-.7.5.5,0,0,0-.71,0Z" transform="translate(-0.01 -0.03)"/>
          <path class="cls-1" d="M150.84,124.62a20.14,20.14,0,0,0,4.21-.84c.61-.2.35-1.16-.26-1a19.11,19.11,0,0,1-3.95.81.5.5,0,0,0,0,1Z" transform="translate(-0.01 -0.03)"/>
          <path class="cls-1" d="M152.82,121.76a17.1,17.1,0,0,0,.37,6.83.5.5,0,0,0,1-.26,15.81,15.81,0,0,1-.36-6.31.52.52,0,0,0-.35-.61.5.5,0,0,0-.62.35Z" transform="translate(-0.01 -0.03)"/>
          <path class="cls-1" d="M157.21,127.75l-.27-2.92a.5.5,0,1,0-1,0l.27,2.92a.5.5,0,0,0,.5.5.51.51,0,0,0,.5-.5Z" transform="translate(-0.01 -0.03)"/>
          <path class="cls-1" d="M158.89,127.49a7.85,7.85,0,0,1,0-1,1.23,1.23,0,0,1,0-.19c0,.09,0,0,0,0l0-.12a1.17,1.17,0,0,1,0-.2.56.56,0,0,1,0-.12c0-.13-.05.08,0,0a1.14,1.14,0,0,1,.1-.19l.05-.06c-.06.08,0,0,0,0a.8.8,0,0,1,.13-.13l.06,0c-.09.07,0,0,0,0l.16-.09.07,0c-.12,0,0,0,0,0l.15,0c.11,0-.08,0,0,0h.16a.41.41,0,0,1,.17,0c-.07-.06,0,0,0,0l.09.06s-.07-.07,0,0l.09.1c-.06-.08,0,0,0,0l.06.09s.08.17,0,.08a3.36,3.36,0,0,1,.14.45l0,.19c0-.1,0,0,0,0a.37.37,0,0,1,0,.11v.18s0,.08,0,.13,0,0,0,0a1.33,1.33,0,0,1-.05.19l0,.1s0-.08,0,0l-.11.19s-.06.06,0,0l-.07.08-.07.06,0,0-.05,0s-.12.1-.17.1.07,0,0,0l-.12,0-.09,0c-.1,0,.1,0,0,0h-.18c-.11,0,.08,0,0,0l-.11,0-.07,0c.06,0,.08,0,0,0l0,0s-.11-.07,0,0,0,0,0-.06a.52.52,0,0,0-.71,0,.5.5,0,0,0,0,.71,1.63,1.63,0,0,0,2,.17,2.08,2.08,0,0,0,.9-2,2.15,2.15,0,0,0-1.2-2,1.81,1.81,0,0,0-1.88.62,3.6,3.6,0,0,0-.56,2.6.51.51,0,0,0,.5.5.5.5,0,0,0,.5-.5Z" transform="translate(-0.01 -0.03)"/>
          <path class="cls-1" d="M161.85,123.92l0,4.47a.5.5,0,0,0,1,0,22.47,22.47,0,0,1,.77-5l-.92.12a7.79,7.79,0,0,1,.91,4.66.5.5,0,0,0,.5.5.51.51,0,0,0,.5-.5,8.78,8.78,0,0,0-1-5.17.51.51,0,0,0-.92.12,25.06,25.06,0,0,0-.8,5.24h1l0-4.47a.5.5,0,0,0-1,0Z" transform="translate(-0.01 -0.03)"/>
          <path class="cls-1" d="M166.58,122.34a2.46,2.46,0,0,0-1,2.24,1.35,1.35,0,0,0,.75.85c.33.16.72.18,1,.35.48.24.32.93,0,1.29-.53.6-1.57.57-2.3.58a.5.5,0,0,0,0,1,4.56,4.56,0,0,0,2.71-.62,2.13,2.13,0,0,0,.84-2.12A1.46,1.46,0,0,0,168,125a5.57,5.57,0,0,0-1.16-.42c-.76-.29.07-1.2.4-1.52s-.24-1.15-.7-.71Z" transform="translate(-0.01 -0.03)"/>
        </g>
        <g>
          <path class="cls-1" d="M160.19,97.45a21.28,21.28,0,0,0,6.68-1.56.52.52,0,0,0,.35-.62.5.5,0,0,0-.61-.35,20.29,20.29,0,0,1-6.42,1.53c-.64,0-.64,1,0,1Z" transform="translate(-0.01 -0.03)"/>
          <path class="cls-1" d="M162.08,92a32.21,32.21,0,0,0,.24,7.47,30.32,30.32,0,0,0,.76,3.65,2.09,2.09,0,0,0,.55,1.19.66.66,0,0,0,1,0c.4-.5-.3-1.21-.7-.7l-.06.08.35-.15c.1,0-.06-.37-.11-.53s-.14-.51-.2-.76c-.11-.44-.21-.88-.3-1.33a30.13,30.13,0,0,1-.45-3,32,32,0,0,1,0-5.87c.06-.64-.94-.64-1,0Z" transform="translate(-0.01 -0.03)"/>
          <path class="cls-1" d="M166.73,97.41a51.57,51.57,0,0,0,.85,6.8c.11.56,1,.42,1-.13a9.6,9.6,0,0,1,.7-4c.18-.41.47-.92.93-1s.77,0,.86.37c.15.63,1.12.36,1-.27A1.58,1.58,0,0,0,170.55,98a2.07,2.07,0,0,0-1.81,1,6.19,6.19,0,0,0-.87,2.24,11.76,11.76,0,0,0-.3,2.9l1-.14a47.57,47.57,0,0,1-.82-6.53c0-.64-1-.64-1,0Z" transform="translate(-0.01 -0.03)"/>
          <path class="cls-1" d="M173.7,103.8V97.94a.5.5,0,0,0-1,0v5.86a.5.5,0,0,0,1,0Z" transform="translate(-0.01 -0.03)"/>
          <path class="cls-1" d="M172.67,96.86h.22a.45.45,0,0,0,.2,0,.42.42,0,0,0,.16-.11.34.34,0,0,0,.1-.16.31.31,0,0,0,0-.19v-.13a.54.54,0,0,0-.13-.22l-.1-.08a.48.48,0,0,0-.26-.07h-.22a.45.45,0,0,0-.2,0,.42.42,0,0,0-.16.11.44.44,0,0,0-.1.16.31.31,0,0,0,0,.19l0,.13a.43.43,0,0,0,.12.22l.11.08a.43.43,0,0,0,.25.07Z" transform="translate(-0.01 -0.03)"/>
          <path class="cls-1" d="M178.48,99.52l0,2.18,1-.13a11.09,11.09,0,0,0-1.63-3.1,4.88,4.88,0,0,0-1.22-1.3,1.2,1.2,0,0,0-1.61.23,3.11,3.11,0,0,0-.49,1.51,4.27,4.27,0,0,0,.11,1.55,3.53,3.53,0,0,0,1.89,2.32,3.26,3.26,0,0,0,3.25-.23.54.54,0,0,0,.18-.69.52.52,0,0,0-.69-.18,2.18,2.18,0,0,1-2,.31,2.42,2.42,0,0,1-1.52-1.41,3.28,3.28,0,0,1-.06-2.27c0-.1.09-.28.19-.34s.24,0,.32.11a4.38,4.38,0,0,1,.86,1,10.43,10.43,0,0,1,1.48,2.8.5.5,0,0,0,1-.14l0-2.18a.5.5,0,0,0-1,0Z" transform="translate(-0.01 -0.03)"/>
          <path class="cls-1" d="M180.06,97.85l.52,5.88a.5.5,0,0,0,1,0,30.76,30.76,0,0,0-.05-3.84,3.94,3.94,0,0,1,.91-2.77l-.79-.1a10.4,10.4,0,0,1,.71,5.54.5.5,0,0,0,1,.27,11.64,11.64,0,0,0-.8-6.31.51.51,0,0,0-.79-.11c-1.94,2-.83,4.92-1.15,7.32h1l-.52-5.88c-.06-.64-1.06-.64-1,0Z" transform="translate(-0.01 -0.03)"/>
          <path class="cls-1" d="M184.66,98.33a6.19,6.19,0,0,0,.8,3.81.51.51,0,0,0,.86,0,4.11,4.11,0,0,0-.1-4.7c-.38-.49-1.21-.06-.86.5,1.21,2,2.08,4.42,1.45,6.73-.48,1.82-2.23,3.71-4.27,3.31-.63-.12-.9.84-.26,1,2.43.47,4.55-1.38,5.35-3.56,1-2.65,0-5.66-1.41-8l-.86.5a3.15,3.15,0,0,1,.1,3.69h.86a5.35,5.35,0,0,1-.66-3.3c.07-.64-.93-.64-1,0Z" transform="translate(-0.01 -0.03)"/>
          <path class="cls-1" d="M188,93c.23,3.1.55,6.2,1,9.28a.53.53,0,0,0,.37.49.79.79,0,0,0,1-.78c0-.64-1-.64-1,0l.26-.19.37.48c-.41-3.08-.73-6.18-1-9.28,0-.64-1-.64-1,0Z" transform="translate(-0.01 -0.03)"/>
          <path class="cls-1" d="M191.2,99.65a2.47,2.47,0,0,0,3.06-1.21,3,3,0,0,0,.22-1.85,2.2,2.2,0,0,0-1.1-1.58c-.69-.28-1.25.3-1.64.8a5.34,5.34,0,0,0-.9,1.76,5.45,5.45,0,0,0,.3,3.93,5,5,0,0,0,3.25,2.66c.62.15.89-.81.26-1a4.24,4.24,0,0,1-2.77-5.6,3.91,3.91,0,0,1,.93-1.5c.15-.15.18-.19.34,0a1.27,1.27,0,0,1,.18.27,1.82,1.82,0,0,1,.21.79,1.52,1.52,0,0,1-2.08,1.56c-.59-.24-.85.73-.26,1Z" transform="translate(-0.01 -0.03)"/>
        </g>
        <g>
          <path class="cls-2" d="M94.28,122.81a2.33,2.33,0,0,0-3-.17,1.51,1.51,0,0,0-.12,2.2c.56.62,1.43.88,2,1.51.84,1,.09,2.27-.86,2.78a5.61,5.61,0,0,1-4.35.14c-.3-.11-.43.37-.13.48,1.89.66,5.16.64,6-1.6a2.09,2.09,0,0,0-.61-2.41c-.58-.49-1.53-.8-1.89-1.51A1.07,1.07,0,0,1,92,122.8a2.09,2.09,0,0,1,2.06.44c.26.19.51-.24.25-.43Z" transform="translate(-0.01 -0.03)"/>
          <path class="cls-2" d="M94.49,131.44a3.18,3.18,0,0,1,.84-2.6c.23-.24-.13-.59-.35-.36a3.64,3.64,0,0,0-1,3,.25.25,0,0,0,.25.25.26.26,0,0,0,.25-.25Z" transform="translate(-0.01 -0.03)"/>
          <path class="cls-2" d="M96.07,129.3l-.43,2.35.48.14a5.86,5.86,0,0,1,2.53-4l-.37-.15a5.7,5.7,0,0,1-.61,4.87c-.17.27.26.52.43.25a6.2,6.2,0,0,0,.67-5.25.26.26,0,0,0-.37-.15,6.3,6.3,0,0,0-2.76,4.28c0,.31.42.46.48.14l.43-2.36c.06-.31-.42-.45-.48-.13Z" transform="translate(-0.01 -0.03)"/>
          <path class="cls-2" d="M102.86,125.35a39.66,39.66,0,0,0-2.29,6.13,4.16,4.16,0,0,0-.18,2.69,1.54,1.54,0,0,0,1.73,1c.31-.07.18-.55-.13-.48-1,.23-1.33-1-1.25-1.69a14.09,14.09,0,0,1,.67-2.53,40.4,40.4,0,0,1,1.88-4.82c.13-.28-.3-.54-.43-.25Z" transform="translate(-0.01 -0.03)"/>
          <path class="cls-2" d="M106.48,127.74a13.84,13.84,0,0,0-2.28,2.72c-.54.85-1.26,2-.72,3.06.76,1.43,3.44.56,2.82-1.1a1.65,1.65,0,0,0-2.27-.93.25.25,0,0,0,.26.43,1.14,1.14,0,0,1,1.53.63.88.88,0,0,1-.76,1.18,1,1,0,0,1-1.25-.78,3.89,3.89,0,0,1,1-2.48,13.23,13.23,0,0,1,2-2.38c.24-.22-.11-.57-.35-.35Z" transform="translate(-0.01 -0.03)"/>
          <path class="cls-2" d="M108,129.79c.93-.25,2.88,0,2.53,1.4-.18.75-.93,1.19-1.57,1.5a5.32,5.32,0,0,0-1.87,1.22.26.26,0,0,0,.11.42,16.46,16.46,0,0,0,3.49.4.25.25,0,0,0,0-.5,15.71,15.71,0,0,1-3.35-.38l.11.41a4.79,4.79,0,0,1,1.73-1.12,3.86,3.86,0,0,0,1.56-1.21,1.67,1.67,0,0,0,.15-1.71,1.93,1.93,0,0,0-1.16-.89,3.36,3.36,0,0,0-1.86,0,.25.25,0,0,0,.13.48Z" transform="translate(-0.01 -0.03)"/>
          <path class="cls-2" d="M113.83,128.69a4,4,0,0,0-1.22,1.59,1.91,1.91,0,0,0-.19,1,.67.67,0,0,0,.61.57,1.21,1.21,0,0,0,.79-.3,2.48,2.48,0,0,0,.62-.71c.32-.51.64-1.32.1-1.81s-1.2-.42-1.38.21a.25.25,0,0,0,.48.13c0-.07,0,0,0,0l0-.05s0,0,0,0h0a.29.29,0,0,1,.14,0,.53.53,0,0,1,.35.12l.08.08,0,.05a.72.72,0,0,1,0,.36,1.94,1.94,0,0,1-.32.72,2.38,2.38,0,0,1-.43.53l-.24.16a.9.9,0,0,1-.22.07H113l0,0a.36.36,0,0,1-.08-.25,2.12,2.12,0,0,1,.21-.69,3.68,3.68,0,0,1,1.07-1.34.25.25,0,0,0-.35-.35Z" transform="translate(-0.01 -0.03)"/>
          <path class="cls-2" d="M112.24,132.53l1.84-.07a.26.26,0,0,0,.25-.25.24.24,0,0,0-.25-.25l-1.84.07a.25.25,0,0,0-.25.25.26.26,0,0,0,.25.25Z" transform="translate(-0.01 -0.03)"/>
          <path class="cls-2" d="M115.56,128.68c.66,2,1.42,4.31.88,6.47a4.37,4.37,0,0,1-3.39,3.47c-.32,0-.18.53.13.48a4.81,4.81,0,0,0,3.67-3.53c.71-2.32-.09-4.8-.81-7-.1-.3-.58-.17-.48.13Z" transform="translate(-0.01 -0.03)"/>
        </g>
        <g>
          <path class="cls-2" d="M183.63,134.53a4.39,4.39,0,0,0-2.09,3.62,2.21,2.21,0,0,0,.79,1.91,2.44,2.44,0,0,0,1.9.34,5.78,5.78,0,0,0,2.36-1.36c.25-.21-.11-.56-.36-.36a4.69,4.69,0,0,1-2.28,1.26,1.61,1.61,0,0,1-1.79-.89,3.24,3.24,0,0,1,.2-2.33,3.83,3.83,0,0,1,1.52-1.76c.27-.17,0-.6-.25-.43Z" transform="translate(-0.01 -0.03)"/>
          <path class="cls-2" d="M187.46,136.46c-.58-.38-.22-1.43.4-1.55a1.13,1.13,0,0,1,1.13.6,1.22,1.22,0,0,1-.06,1.32,1.79,1.79,0,0,1-1.35.78c-.32,0-.32.52,0,.5a2.36,2.36,0,0,0,1.67-.87,1.76,1.76,0,0,0,.24-1.85,1.69,1.69,0,0,0-1.52-1,1.35,1.35,0,0,0-1.2,1,1.29,1.29,0,0,0,.44,1.54c.27.18.52-.25.25-.43Z" transform="translate(-0.01 -0.03)"/>
          <path class="cls-2" d="M190.71,132.39a1.45,1.45,0,0,0,.27,2.25,5.36,5.36,0,0,0,.78.23.51.51,0,0,1,.3.52c0,.59-.59.94-1,1.21-.27.16,0,.6.25.43a2.58,2.58,0,0,0,1.22-1.2,1.15,1.15,0,0,0-.37-1.33,3.91,3.91,0,0,0-.82-.26.8.8,0,0,1-.41-.42.92.92,0,0,1,.17-1.08c.24-.22-.11-.57-.35-.35Z" transform="translate(-0.01 -0.03)"/>
          <path class="cls-2" d="M192.57,129.29a11.25,11.25,0,0,0,.51,5.43c.53,1.37,1.75,2.6,3.34,2.29.31-.07.18-.55-.14-.49-1.56.32-2.56-1.23-2.92-2.53a12,12,0,0,1-.29-4.7c0-.32-.46-.31-.5,0Z" transform="translate(-0.01 -0.03)"/>
          <path class="cls-2" d="M194.74,130a6.57,6.57,0,0,0,1.53,3c.22.24.57-.11.36-.35a6.13,6.13,0,0,1-1.41-2.75c-.07-.31-.55-.18-.48.14Z" transform="translate(-0.01 -0.03)"/>
          <path class="cls-2" d="M195.6,129.22l1.11,2.17c.15.28.58,0,.43-.26L196,129c-.15-.29-.58,0-.43.25Z" transform="translate(-0.01 -0.03)"/>
          <path class="cls-2" d="M194.17,130.61a19.65,19.65,0,0,1,3.28-2.62c.27-.18,0-.61-.25-.44a21,21,0,0,0-3.39,2.7c-.23.23.13.58.36.36Z" transform="translate(-0.01 -0.03)"/>
          <path class="cls-2" d="M198.77,127.7a21.21,21.21,0,0,0-.12,6.06c0,.31.54.31.5,0a21,21,0,0,1,.1-5.93c.05-.32-.43-.45-.48-.13Z" transform="translate(-0.01 -0.03)"/>
          <path class="cls-2" d="M200.66,128.64a1.47,1.47,0,0,1,.82-.75.57.57,0,0,1,.64.45c.22.75-.52,1.32-1,1.73-.23.18.06.52.3.39a1.24,1.24,0,0,1,1.67.62,1.21,1.21,0,0,1-1.17,1.53.25.25,0,0,0,0,.5,1.65,1.65,0,1,0-.75-3.08l.3.39c.74-.59,1.6-1.5,1-2.5a1,1,0,0,0-1.1-.52,2,2,0,0,0-1.15,1,.25.25,0,0,0,.43.26Z" transform="translate(-0.01 -0.03)"/>
          <path class="cls-2" d="M200.76,124.28a12.64,12.64,0,0,1,3.59,4.74,4.92,4.92,0,0,1-.86,5.06c-.23.23.13.59.35.36a5.35,5.35,0,0,0,1.08-5.27c-.62-2.12-2.23-3.77-3.8-5.25-.24-.22-.59.13-.36.36Z" transform="translate(-0.01 -0.03)"/>
        </g>
        <g>
          <path class="cls-2" d="M124.11,74.15a18,18,0,0,1,5.81-1,.25.25,0,0,0,0-.5,18.49,18.49,0,0,0-5.94,1c-.3.11-.17.59.13.48Z" transform="translate(-0.01 -0.03)"/>
          <path class="cls-2" d="M128.07,69.78l-2.64,8.53c-.1.31.38.44.48.13l2.64-8.52a.25.25,0,0,0-.48-.14Z" transform="translate(-0.01 -0.03)"/>
          <path class="cls-2" d="M131.49,76.08,131.05,78l.5.07a6,6,0,0,0-.54-2.39,6.16,6.16,0,0,0-.62-1c-.22-.28-.51-.72-.93-.58s-.59.56-.74.86A3.08,3.08,0,0,0,128.4,76a2.51,2.51,0,0,0,.66,2,2.38,2.38,0,0,0,2.18.74c.32-.06.19-.54-.13-.48a2,2,0,0,1-2.23-2,2.54,2.54,0,0,1,.58-1.65c.13-.17.18-.17.32,0l.3.39a4.75,4.75,0,0,1,.48.85,5.25,5.25,0,0,1,.49,2.17.25.25,0,0,0,.49.06l.43-1.93c.07-.31-.41-.45-.48-.13Z" transform="translate(-0.01 -0.03)"/>
          <path class="cls-2" d="M132.8,74.49l-1,4.25a.25.25,0,0,0,.48.13c.59-1.41,1.26-3,2.64-3.75L134.6,75a8.16,8.16,0,0,1-.3,4.91c-.11.3.37.43.49.13a8.72,8.72,0,0,0,.29-5.18.26.26,0,0,0-.37-.15c-1.5.87-2.23,2.52-2.87,4.06l.48.13,1-4.25c.07-.31-.41-.45-.48-.13Z" transform="translate(-0.01 -0.03)"/>
          <path class="cls-2" d="M139.44,72.14c-2.12,3.16-4.24,6.75-2.9,10.66.1.31.59.18.48-.13-1.29-3.78.81-7.23,2.86-10.28.18-.26-.26-.51-.44-.25Z" transform="translate(-0.01 -0.03)"/>
          <path class="cls-2" d="M142.33,75.1a1.63,1.63,0,0,0-1.87,1.8,1.29,1.29,0,0,0,.94,1c.45.16,1,.21,1.2.71.43,1-.86,1.82-1.75,1.34-.71-.39.3-1,.66-1.23a8,8,0,0,0,1.41-.89,1.66,1.66,0,0,0,.62-1.48,1.18,1.18,0,0,0-.9-1c-.31-.05-.45.43-.13.49a.78.78,0,0,1,.51,1,2.21,2.21,0,0,1-1.15,1.12,5.48,5.48,0,0,0-1.43.95.87.87,0,0,0,0,1.38,1.79,1.79,0,0,0,2.58-.6,1.64,1.64,0,0,0,0-1.32,1.62,1.62,0,0,0-1.1-.82,1.74,1.74,0,0,1-.82-.36.86.86,0,0,1-.18-.71,1.23,1.23,0,0,1,1.39-.85c.32,0,.32-.48,0-.5Z" transform="translate(-0.01 -0.03)"/>
          <path class="cls-2" d="M146.07,76.45a1.27,1.27,0,0,0-.91.86,1.38,1.38,0,0,0,.34,1.27,6,6,0,0,1,1,1.29,1.15,1.15,0,0,1-.14,1.31c-.25.25-.7.42-1,.12a1,1,0,0,1,.09-1.15,3.84,3.84,0,0,1,1.29-.84,3.25,3.25,0,0,0,1.2-.9,1.34,1.34,0,0,0,.18-1.4A1,1,0,0,0,147,76.4c-.32.07-.18.55.13.48s.71.46.64.82-.6.83-1,1c-.84.46-1.88.84-2,1.92a1.07,1.07,0,0,0,1.53,1.17,1.61,1.61,0,0,0,.6-2.34,12.48,12.48,0,0,0-1.06-1.34.75.75,0,0,1,.4-1.23c.31-.07.18-.55-.14-.48Z" transform="translate(-0.01 -0.03)"/>
          <path class="cls-2" d="M148.05,81.79h0l0-.06a1.21,1.21,0,0,1,.05.18v-.06a.67.67,0,0,1,0,.2V82a.44.44,0,0,1,0,.1l.18-.18h0l-.07,0,.05,0-.07,0,.05,0-.07-.07,0,0a.47.47,0,0,1-.05-.1l0,.06,0-.11v0a.19.19,0,0,1,0-.07l0,.06,0-.06,0,0,0,0,0,0,.06,0-.06,0,.07,0h-.06a.22.22,0,0,1,.08,0h-.06l.1,0-.06,0,.1.06,0,0a.27.27,0,0,1,.07.08l0,0,0,.07,0-.06a.19.19,0,0,1,0,.07v-.06a.08.08,0,0,1,0,.07v0l.36-.15a.53.53,0,0,0-.66.1A.28.28,0,0,0,148,82a.23.23,0,0,0,.07.18.21.21,0,0,0,.18.07.22.22,0,0,0,.17-.07l0,0-.05,0,.06,0-.06,0,.08,0h-.06l.07,0-.06,0,0,0a.26.26,0,0,0,.37-.15.57.57,0,0,0-.17-.55.62.62,0,0,0-.69-.13.38.38,0,0,0-.13.09.45.45,0,0,0-.14.24.61.61,0,0,0,0,.3.69.69,0,0,0,0,.13.56.56,0,0,0,.05.08.55.55,0,0,0,.22.21.47.47,0,0,0,.15.06.81.81,0,0,0,.22,0,.26.26,0,0,0,.17-.18.91.91,0,0,0,0-.33l0-.18a1.07,1.07,0,0,0-.07-.19.22.22,0,0,0-.15-.11.25.25,0,0,0-.19,0,.27.27,0,0,0-.11.15v.07a.28.28,0,0,0,0,.13Z" transform="translate(-0.01 -0.03)"/>
          <path class="cls-2" d="M150.37,78.79c.43-.4.84-.83,1.28-1.21a1.65,1.65,0,0,1,.22-.16s0,.33,0,.39c0,.27-.1.54-.17.82a12.12,12.12,0,0,1-1.22,3.12.25.25,0,0,0,.43.25,12.83,12.83,0,0,0,1.42-3.94c.05-.27.17-.63,0-.89a.51.51,0,0,0-.69-.16,2.91,2.91,0,0,0-.76.64l-.83.79c-.23.22.12.57.35.35Z" transform="translate(-0.01 -0.03)"/>
          <path class="cls-2" d="M149.39,82.53a2.22,2.22,0,0,1,2.69,0,.25.25,0,0,0,.34-.09.26.26,0,0,0-.09-.34,2.7,2.7,0,0,0-3.29.1.25.25,0,1,0,.35.36Z" transform="translate(-0.01 -0.03)"/>
          <path class="cls-2" d="M154.44,77.32a2.07,2.07,0,0,0-.67,1,.93.93,0,0,0,.42,1,.85.85,0,0,0,1.07-.32,1.93,1.93,0,0,0,.44-1,1.87,1.87,0,0,0-.24-1.22A.25.25,0,0,0,155,77a1.43,1.43,0,0,1,0,1.44,1.34,1.34,0,0,1-.23.29.61.61,0,0,1-.16.12.23.23,0,0,1-.13,0l-.08,0a.35.35,0,0,1-.1-.11.53.53,0,0,1-.07-.31,1.56,1.56,0,0,1,.55-.76c.23-.23-.12-.58-.36-.36Z" transform="translate(-0.01 -0.03)"/>
          <path class="cls-2" d="M153.72,80.49a2.7,2.7,0,0,1,1.66.13.26.26,0,0,0,.34-.09.24.24,0,0,0-.09-.34,3.19,3.19,0,0,0-2-.18.26.26,0,0,0-.18.31.25.25,0,0,0,.31.17Z" transform="translate(-0.01 -0.03)"/>
          <path class="cls-2" d="M156.7,76.56a3.67,3.67,0,0,1,.44,2.88,22.44,22.44,0,0,1-.71,3c-.61,1.9-1.84,3.78-3.91,4.22-.31.07-.18.55.13.48,2.25-.48,3.6-2.51,4.26-4.57a18.81,18.81,0,0,0,.77-3.48,3.76,3.76,0,0,0-.63-2.9c-.2-.25-.55.1-.35.35Z" transform="translate(-0.01 -0.03)"/>
        </g>
        <path class="cls-1" d="M147,63.36a152.76,152.76,0,0,0-21.5.15,65.16,65.16,0,0,0-8.6.93,40.79,40.79,0,0,0-9.52,3.16C93.29,74.18,83.87,87.27,77,100.72c-3.61,7-7.18,14.62-6.07,22.74a23.88,23.88,0,0,0,3.91,10.24,27.94,27.94,0,0,0,8,7.51,55.91,55.91,0,0,0,9.68,4.8q5.7,2.28,11.6,4a160.33,160.33,0,0,0,23.77,5c16.21,2.2,32.6,2.42,48.94,2.19,13.43-.19,29.36-.08,39.45-10.46,4.84-5,7.88-11.72,9.3-18.46a46.79,46.79,0,0,0,0-19.22,46.24,46.24,0,0,0-7.66-17.57,52.45,52.45,0,0,0-15.91-14,57.63,57.63,0,0,0-19.75-7.73c-5.13-.84-10.23-1.84-15.33-2.86C161.9,65.9,157,64.73,152,64c-1.66-.26-3.34-.45-5-.59-1.28-.11-1.28,1.89,0,2A86.65,86.65,0,0,1,157.29,67c6.42,1.31,12.84,2.63,19.29,3.81,2.39.44,4.82.76,7.21,1.26A47.77,47.77,0,0,1,192,74.72a64.07,64.07,0,0,1,16.82,10,43.14,43.14,0,0,1,11.66,15.21c5.14,11.23,5.6,24.84.44,36.16a32.25,32.25,0,0,1-6,9.1,26.65,26.65,0,0,1-8.12,5.69c-6.09,2.82-13,3.65-19.6,4-7.49.4-15,.38-22.53.34-8,0-16-.27-24-.89-15.76-1.22-31.5-4-46.28-9.72-6.5-2.51-13.35-5.71-17.53-11.52a22.09,22.09,0,0,1-4-10.16,25.31,25.31,0,0,1,1.41-11.24A76.38,76.38,0,0,1,79.07,101a111.27,111.27,0,0,1,5.86-10.09,65.19,65.19,0,0,1,14.72-16.3,42.84,42.84,0,0,1,18.25-8.35,69.91,69.91,0,0,1,8.54-.82c3.18-.18,6.37-.37,9.55-.43a105.8,105.8,0,0,1,11,.33C148.25,65.46,148.24,63.46,147,63.36Z" transform="translate(-0.01 -0.03)"/>
      </g>
      <g>
        <path class="cls-1" d="M32.55,53.18,31.89,53l.3.73q2.14-4.12,4.6-8.09a37,37,0,0,1,2.3-3.5,3.55,3.55,0,0,1,3-1.67c.64.06.64-.94,0-1-2.81-.26-4.41,2.87-5.67,4.86q-2.74,4.35-5.11,8.9a.51.51,0,0,0,.3.73l.66.17a.5.5,0,0,0,.27-1Z" transform="translate(-0.01 -0.03)"/>
        <path class="cls-1" d="M34.2,39.09l3.92,10.53,1.94,5.2a25.05,25.05,0,0,0,2,4.66.53.53,0,0,0,.69.18,1.42,1.42,0,0,0,.66-1.21c0-.64-1-.64-1,0a.31.31,0,0,1-.17.34L43,59a23.58,23.58,0,0,1-2-4.64L39,49.12l-3.84-10.3c-.22-.59-1.19-.33-1,.27Z" transform="translate(-0.01 -0.03)"/>
        <path class="cls-1" d="M41.39,36.72Q44.84,45.94,49,54.87c.25.54,1,.14.91-.39a42.86,42.86,0,0,1-.77-5.42c-.07-.84-.1-1.68-.11-2.52,0-.44,0-.88,0-1.31,0-.26,0-.83.32-.69s.47.7.59.94.33.7.49,1.05c.36.81.69,1.64,1,2.47a40.81,40.81,0,0,1,1.44,4.88c.15.62,1.11.36,1-.27a40.66,40.66,0,0,0-1.95-6.18,28.56,28.56,0,0,0-1.27-2.82c-.31-.57-.83-1.26-1.57-1.16s-.94.83-1,1.44a20.25,20.25,0,0,0,0,3.21A43.7,43.7,0,0,0,49,54.75l.91-.39q-4.12-8.79-7.54-17.9c-.22-.6-1.19-.34-1,.26Z" transform="translate(-0.01 -0.03)"/>
        <path class="cls-1" d="M54.36,45.18a11.24,11.24,0,0,0,1.35-2.68,3.39,3.39,0,0,0,.09-2.77,2,2,0,0,0-3.29-.29c-1.15,1.45-.4,3.86.05,5.44a9.47,9.47,0,0,0,2.69,4.79c1.31,1.09,3.37,1.7,4.73.37.46-.45-.25-1.16-.71-.71-.88.87-2.25.41-3.13-.23a7.09,7.09,0,0,1-2.3-3.49,12,12,0,0,1-.89-4.4,1.53,1.53,0,0,1,.71-1.42,1,1,0,0,1,1.13.23c.55.6.18,1.56,0,2.21a10.61,10.61,0,0,1-1.25,2.44c-.36.53.5,1,.86.51Z" transform="translate(-0.01 -0.03)"/>
      </g>
      <g>
        <path class="cls-1" d="M62.11,26.19a16.64,16.64,0,0,0,.41,7,14.18,14.18,0,0,0,3.22,6.09,3.87,3.87,0,0,0,2.74,1.36A3.63,3.63,0,0,0,71,39.33c1.63-1.83,1.85-4.75,2.06-7.08a34.66,34.66,0,0,0-.48-9.43c-.12-.63-1.09-.37-1,.26a33.62,33.62,0,0,1,.57,7.15,21.91,21.91,0,0,1-1,6.83,3.83,3.83,0,0,1-2,2.37,2.44,2.44,0,0,1-2.63-.77,12.65,12.65,0,0,1-2.95-5.29,15.45,15.45,0,0,1-.55-6.92c.09-.63-.87-.9-1-.26Z" transform="translate(-0.01 -0.03)"/>
        <path class="cls-1" d="M73.83,23.72,76,35.32c.11.54,1.06.43,1-.14a50,50,0,0,1-.55-7.12,18.4,18.4,0,0,1,.4-3.71c.12-.56.46-2.84,1.34-2.66.42.09.67.65.83,1,.26.57.47,1.17.68,1.76.41,1.12.76,2.27,1.07,3.42A39.12,39.12,0,0,1,82,35.16c.05.64,1.05.65,1,0a38.37,38.37,0,0,0-3-12.83,2.59,2.59,0,0,0-1.49-1.61,1.61,1.61,0,0,0-1.77.88,9.2,9.2,0,0,0-.88,2.81,21.32,21.32,0,0,0-.35,3.19A48.06,48.06,0,0,0,76,35.18l1-.13-2.22-11.6c-.12-.63-1.08-.36-1,.27Z" transform="translate(-0.01 -0.03)"/>
        <path class="cls-1" d="M86.29,33.49a17.49,17.49,0,0,1-1.88-9.77c.06-.64-.94-.64-1,0a18.47,18.47,0,0,0,2,10.27c.3.57,1.16.07.86-.5Z" transform="translate(-0.01 -0.03)"/>
        <path class="cls-1" d="M87.07,23.79a50.8,50.8,0,0,0,6.6-3.3.5.5,0,0,0-.51-.86,50.31,50.31,0,0,1-6.35,3.2.51.51,0,0,0-.35.61.49.49,0,0,0,.61.35Z" transform="translate(-0.01 -0.03)"/>
        <path class="cls-1" d="M89.36,15.36q.36,4.91,1.09,9.77c.22,1.49.42,3,.76,4.46a6.24,6.24,0,0,0,1.71,3.29c.47.44,1.18-.26.7-.7A5.73,5.73,0,0,1,92.1,29c-.3-1.43-.51-2.88-.72-4.33-.46-3.07-.79-6.16-1-9.26,0-.64-1-.65-1,0Z" transform="translate(-0.01 -0.03)"/>
      </g>
      <g>
        <path class="cls-1" d="M115.14,10.61a21.48,21.48,0,0,0-4.91,3.94,12.46,12.46,0,0,0-3.13,5.16,5.23,5.23,0,0,0,1.18,5,7.77,7.77,0,0,0,4.59,2.14,13.23,13.23,0,0,0,7.11-1c.59-.26.08-1.12-.5-.87-3,1.32-7.36,1.69-10.06-.54-3.13-2.58-.75-6.66,1.38-9a20.9,20.9,0,0,1,4.84-3.94.5.5,0,0,0-.5-.86Z" transform="translate(-0.01 -0.03)"/>
        <path class="cls-1" d="M123.81,23.13a35.94,35.94,0,0,1-.31-8.67c0-.64-1-.64-1,0a36.68,36.68,0,0,0,.35,8.94c.1.63,1.06.36,1-.27Z" transform="translate(-0.01 -0.03)"/>
        <path class="cls-1" d="M125.88,15.37c.19,2.66.51,5.31,1,7.93.1.56,1,.42,1-.13,0-1.26,0-2.51.12-3.76a15,15,0,0,1,.51-3.52A1.82,1.82,0,0,1,130,14.58a2,2,0,0,1,1.85.77c.35.54,1.22,0,.86-.5a3,3,0,0,0-4.82-.14c-.76,1-.78,2.58-.91,3.82a39.92,39.92,0,0,0-.2,4.64l1-.13q-.64-3.81-.92-7.67c0-.64-1-.64-1,0Z" transform="translate(-0.01 -0.03)"/>
        <path class="cls-1" d="M136.82,11.33a6,6,0,0,0-4.07,5.08,4.55,4.55,0,0,0,3.68,4.88,4,4,0,0,0,3.43-1c.46-.44-.25-1.15-.71-.71a3.1,3.1,0,0,1-3.06.64,3.39,3.39,0,0,1-2.18-2.35,4.74,4.74,0,0,1,3.18-5.55c.6-.23.34-1.19-.27-1Z" transform="translate(-0.01 -0.03)"/>
        <path class="cls-1" d="M142,6.45a44,44,0,0,0-.09,15.15.49.49,0,0,0,.48.36,1.76,1.76,0,0,0,1.14-.27c.54-.34,0-1.21-.51-.87a.83.83,0,0,1-.63.14l.49.37a42.48,42.48,0,0,1,.08-14.62c.11-.63-.85-.9-1-.26Z" transform="translate(-0.01 -0.03)"/>
        <path class="cls-1" d="M146.57,13.82c.26-.78,1.05-1.22,1.58-1.8a2.62,2.62,0,0,0,.75-1.95,1.45,1.45,0,0,0-1.29-1.36,2.42,2.42,0,0,0-2,.87,5.17,5.17,0,0,0-.88,4.1,10.85,10.85,0,0,0,1.79,5,4.39,4.39,0,0,0,5,1.75c.59-.23.33-1.2-.27-1-1.8.73-3.52-.56-4.35-2.1a10.57,10.57,0,0,1-1.21-4.86,3.66,3.66,0,0,1,.51-2c.27-.42,1.32-1.27,1.71-.55s-.44,1.42-.85,1.79a4.33,4.33,0,0,0-1.4,1.83c-.2.61.77.87,1,.26Z" transform="translate(-0.01 -0.03)"/>
      </g>
      <g>
        <path class="cls-1" d="M174.1,6.07a43.51,43.51,0,0,0-3.51,13.46l1-.14c-.53-1.84-1.12-3.8-2.57-5.15a4.19,4.19,0,0,0-4.65-1,3,3,0,0,0-1.51,4c.78,1.7,2.69,3,4.29,3.85a7.68,7.68,0,0,0,6.13.74c.6-.21.34-1.18-.27-1a6.88,6.88,0,0,1-5.71-.84,12.68,12.68,0,0,1-2.37-1.74,3.35,3.35,0,0,1-1.38-2.52,2.21,2.21,0,0,1,1.6-1.8,3,3,0,0,1,2.53.43c1.78,1.13,2.39,3.31,3,5.21a.5.5,0,0,0,1-.13,41.91,41.91,0,0,1,3.38-13c.25-.58-.61-1.09-.87-.5Z" transform="translate(-0.01 -0.03)"/>
        <path class="cls-1" d="M175.87,14.73c1.58-.47,3.74-1.62,4-3.43s-1.76-2.54-3.07-1.64c-1.48,1-2,3.36-2.18,5a11.68,11.68,0,0,0,.76,6.08,3.52,3.52,0,0,0,1.92,2,2.3,2.3,0,0,0,2.46-.51c.44-.47-.27-1.18-.71-.71a1.46,1.46,0,0,1-2-.1A4.53,4.53,0,0,1,176,19.18a11.42,11.42,0,0,1-.06-5.63,7.63,7.63,0,0,1,.94-2.44c.37-.55,1.25-1.24,1.91-.66s-.26,1.63-.72,2a6.82,6.82,0,0,1-2.42,1.29.5.5,0,0,0,.27,1Z" transform="translate(-0.01 -0.03)"/>
        <path class="cls-1" d="M183.45,21.56a27.09,27.09,0,0,1,1.21-10.16c.38-1.09,1.11-2.47,2.4-2.62,1.47-.17,2.49,1.36,2.85,2.58a.5.5,0,0,0,1-.26,4.39,4.39,0,0,0-3.17-3.29,3.4,3.4,0,0,0-3.4,2A15.25,15.25,0,0,0,182.8,15a32.22,32.22,0,0,0-.35,6.58c0,.64,1,.64,1,0Z" transform="translate(-0.01 -0.03)"/>
        <path class="cls-1" d="M180.8,15.27a41.59,41.59,0,0,1,7,.34.51.51,0,0,0,.5-.5.51.51,0,0,0-.5-.5,41.59,41.59,0,0,0-7-.34c-.64,0-.65,1,0,1Z" transform="translate(-0.01 -0.03)"/>
        <path class="cls-1" d="M191.2,21.51a13.73,13.73,0,0,1,1.45-6.42c.29-.57-.57-1.08-.86-.51a14.87,14.87,0,0,0-1.59,6.93.5.5,0,0,0,1,0Z" transform="translate(-0.01 -0.03)"/>
        <path class="cls-1" d="M195,15.84a32.82,32.82,0,0,0-1.46,9.28.5.5,0,0,0,1,.13c.65-3.11,1.27-6.55,3.07-9.25.29-.44,1.06-1.2,1.17-.25a13,13,0,0,1,0,2.42,15,15,0,0,1-1.29,5c-.27.58.59,1.09.86.5a16.06,16.06,0,0,0,1.32-4.5,15.08,15.08,0,0,0,.16-2.32,4,4,0,0,0-.32-2c-.81-1.25-2.28-.09-2.81.77a18.76,18.76,0,0,0-1.86,4.23c-.53,1.7-.9,3.45-1.26,5.19l1,.13a31.64,31.64,0,0,1,1.42-9c.2-.62-.77-.88-1-.27Z" transform="translate(-0.01 -0.03)"/>
        <path class="cls-1" d="M203.11,25.5A40.81,40.81,0,0,1,205,15.65c.2-.61-.77-.87-1-.26a40.94,40.94,0,0,0-1.9,10.11c0,.64,1,.64,1,0Z" transform="translate(-0.01 -0.03)"/>
        <path class="cls-1" d="M207.08,15.63a8.36,8.36,0,0,1,6.62.94c.55.33,1.05-.53.51-.87a9.4,9.4,0,0,0-7.39-1,.5.5,0,0,0,.26,1Z" transform="translate(-0.01 -0.03)"/>
        <path class="cls-1" d="M209.44,11.92l-3,12.65c-.15.63.81.89,1,.27l3-12.66c.15-.62-.81-.89-1-.26Z" transform="translate(-0.01 -0.03)"/>
        <path class="cls-1" d="M214.69,25.19a13.78,13.78,0,0,1,2.5-8.29c.37-.53-.49-1-.86-.51a14.71,14.71,0,0,0-2.64,8.8c0,.64,1,.65,1,0Z" transform="translate(-0.01 -0.03)"/>
        <path class="cls-1" d="M220.15,18.25a9.82,9.82,0,0,0-2,3.72,5.76,5.76,0,0,0-.05,3.8,1.75,1.75,0,0,0,1.29,1,2.18,2.18,0,0,0,1.77-.64,7.87,7.87,0,0,0,1.28-1.64,7.32,7.32,0,0,0,.88-1.93,3.53,3.53,0,0,0-1.19-3.77c-.52-.38-1,.49-.51.86a2.44,2.44,0,0,1,.79,2.39A6.78,6.78,0,0,1,220.91,25a2,2,0,0,1-1.13.82.8.8,0,0,1-.81-.63,5.26,5.26,0,0,1,.15-2.91A8.66,8.66,0,0,1,220.86,19c.41-.49-.3-1.2-.71-.71Z" transform="translate(-0.01 -0.03)"/>
        <path class="cls-1" d="M226.71,18.38a28.31,28.31,0,0,0-2,8.94c0,.58.82.66,1,.13a37.4,37.4,0,0,1,1.76-4.7q.51-1.12,1.11-2.22a13.06,13.06,0,0,1,1.23-2.11c.28-.34.34-.13.41.22a7.63,7.63,0,0,1,.13,1.07c.08.9.11,1.8.11,2.7a28.93,28.93,0,0,1-.52,5.25c-.12.62.84.89,1,.26a30.15,30.15,0,0,0,.55-4.83c0-.84,0-1.68,0-2.52a11.39,11.39,0,0,0-.24-2.25,1.37,1.37,0,0,0-.9-1.08c-.63-.16-1.09.32-1.4.79a32.83,32.83,0,0,0-2.22,4.13,37.65,37.65,0,0,0-1.9,5l1,.13a27.06,27.06,0,0,1,2-8.68c.24-.59-.73-.85-1-.26Z" transform="translate(-0.01 -0.03)"/>
      </g>
      <g>
        <path class="cls-1" d="M136.21,39.76c-1.84,1.18-1.86,3.6-1.56,5.53a10,10,0,0,0,1.54,4.26,2.69,2.69,0,0,0,3,1.22,6.49,6.49,0,0,0,2.66-2.13c1.62-1.89,2.73-4.56,1.16-6.83-1.39-2-4.55-3.4-6.84-2.05a.5.5,0,0,0,.51.86c1.67-1,4,0,5.16,1.3,1.59,1.76.88,4-.45,5.72a9,9,0,0,1-1.88,1.87A1.72,1.72,0,0,1,137,49a9,9,0,0,1-1.25-3.29c-.33-1.58-.6-4,1-5C137.26,40.27,136.75,39.41,136.21,39.76Z" transform="translate(-0.01 -0.03)"/>
        <path class="cls-1" d="M147.82,50.73a37.6,37.6,0,0,1-.89-8A3.93,3.93,0,0,1,148,39.61a1.39,1.39,0,0,1,2.35.68c.1.63,1.06.36,1-.27a2.29,2.29,0,0,0-2.59-1.8,3.4,3.4,0,0,0-2.56,2.44,13.45,13.45,0,0,0-.14,5.1,44.14,44.14,0,0,0,.78,5.24c.13.63,1.1.36,1-.27Z" transform="translate(-0.01 -0.03)"/>
        <path class="cls-1" d="M145.71,46.87a36.38,36.38,0,0,1,5-1.21.5.5,0,1,0-.27-1,35,35,0,0,0-5.05,1.21c-.61.19-.35,1.16.27,1Z" transform="translate(-0.01 -0.03)"/>
      </g>
      <g>
        <path class="cls-1" d="M159.1,40.83a22.17,22.17,0,0,1,10.65-2.78.5.5,0,0,0,0-1A23.23,23.23,0,0,0,158.59,40c-.56.31-.06,1.17.51.86Z" transform="translate(-0.01 -0.03)"/>
        <path class="cls-1" d="M163.63,33.5A53.63,53.63,0,0,0,164.82,50c.15.63,1.11.37,1-.26a52.28,52.28,0,0,1-1.16-16.21c.05-.64-.95-.64-1,0Z" transform="translate(-0.01 -0.03)"/>
        <path class="cls-1" d="M169.27,38.59,170.08,49a.51.51,0,0,0,1,.13c.77-2.38,0-5,1-7.34A2.85,2.85,0,0,1,174.19,40a1.87,1.87,0,0,1,2.09.92c.23.59,1.2.33,1-.27-.9-2.29-4-2-5.38-.33-2,2.47-.85,5.8-1.76,8.6l1,.14-.81-10.43c-.05-.64-1.05-.64-1,0Z" transform="translate(-0.01 -0.03)"/>
        <path class="cls-1" d="M179.89,47.94a20.57,20.57,0,0,1,.35-6.64c.13-.62-.83-.89-1-.26a21.6,21.6,0,0,0-.38,6.9.51.51,0,0,0,.5.5.5.5,0,0,0,.5-.5Z" transform="translate(-0.01 -0.03)"/>
        <path class="cls-1" d="M179.71,38.3a.5.5,0,0,0,0-1,.5.5,0,0,0,0,1Z" transform="translate(-0.01 -0.03)"/>
        <path class="cls-1" d="M183.28,41.53A2.78,2.78,0,0,0,184,44.2a2,2,0,0,0,2.42.17,1.83,1.83,0,0,0,.48-2.41c-.54-1.11-1.76-1.52-2.47-2.47l-.79.61A7.7,7.7,0,0,1,186,47.94a5.6,5.6,0,0,1-1,2,3.72,3.72,0,0,1-2.24,1.23,12.09,12.09,0,0,1-5.7-.33c-.61-.19-.88.78-.26,1a12.78,12.78,0,0,0,6.41.29,5.05,5.05,0,0,0,3.67-3.6,8.67,8.67,0,0,0-2.5-9.14c-.4-.34-1.15.12-.78.61A6.8,6.8,0,0,0,185,41.32c.52.39,1.25,1,1.18,1.71s-.89.81-1.38.51a1.66,1.66,0,0,1-.55-1.75c.12-.62-.84-.89-1-.26Z" transform="translate(-0.01 -0.03)"/>
      </g>
      <g>
        <path class="cls-1" d="M196.38,47.48a23,23,0,0,1,.28-9.42A4,4,0,0,1,199,35c1.17-.39,2.76.47,2.33,1.85-.19.62.78.88,1,.27a2.61,2.61,0,0,0-2-3.19,3.83,3.83,0,0,0-3.81,2,12.39,12.39,0,0,0-1.31,5.36,26.13,26.13,0,0,0,.28,6.43c.1.63,1.06.36,1-.27Z" transform="translate(-0.01 -0.03)"/>
        <path class="cls-1" d="M193.61,40.56a15.5,15.5,0,0,0,7,.55.51.51,0,0,0,.35-.62.5.5,0,0,0-.61-.35,14.18,14.18,0,0,1-6.5-.55c-.62-.2-.88.77-.27,1Z" transform="translate(-0.01 -0.03)"/>
        <path class="cls-1" d="M202.76,39.44a17.61,17.61,0,0,0-.2,3.84,8.35,8.35,0,0,0,.73,3.38,1.78,1.78,0,0,0,2.25,1c1-.44,1.36-1.82,1.74-2.73a35.35,35.35,0,0,0,1.4-4.22.5.5,0,0,0-1-.27,35.17,35.17,0,0,1-1.27,3.88c-.24.6-.48,1.22-.78,1.8-.19.35-.51.85-1,.62a1.85,1.85,0,0,1-.74-1.08,8.72,8.72,0,0,1-.34-1.82,15.59,15.59,0,0,1,.12-4.15c.1-.63-.87-.9-1-.27Z" transform="translate(-0.01 -0.03)"/>
        <path class="cls-1" d="M210.25,41,210,48.23h1a19.29,19.29,0,0,1,.68-4.78A15.08,15.08,0,0,1,213.5,39c.21-.31.33-.27.51.06a3.64,3.64,0,0,1,.27.89,14.88,14.88,0,0,1,.37,2.57,15.59,15.59,0,0,1-.52,4.9.5.5,0,0,0,1,.27,16.47,16.47,0,0,0,.58-4.63,17.71,17.71,0,0,0-.21-2.3,7.4,7.4,0,0,0-.53-2.08,1.42,1.42,0,0,0-1.19-.93c-.63,0-1,.53-1.26,1a19.59,19.59,0,0,0-1.77,4.29,20.26,20.26,0,0,0-.74,5.14.5.5,0,0,0,1,0l.28-7.25c0-.64-1-.64-1,0Z" transform="translate(-0.01 -0.03)"/>
        <path class="cls-1" d="M221.85,38c-2.29-.08-4,1.71-5.07,3.59a4.9,4.9,0,0,0-.78,3.47,3.24,3.24,0,0,0,2.13,2.07,7.13,7.13,0,0,0,4.39-.34.5.5,0,0,0-.27-1c-1.26.37-2.72.84-4,.28a2.31,2.31,0,0,1-1.16-1,2.27,2.27,0,0,1,0-1.77c.68-2,2.39-4.4,4.75-4.32.64,0,.64-1,0-1Z" transform="translate(-0.01 -0.03)"/>
        <path class="cls-1" d="M225.25,40.77a19.24,19.24,0,0,1,6.81-.13.53.53,0,0,0,.62-.35.51.51,0,0,0-.35-.61,20.57,20.57,0,0,0-7.34.12c-.63.13-.36,1.09.26,1Z" transform="translate(-0.01 -0.03)"/>
        <path class="cls-1" d="M227.86,36.44a58.88,58.88,0,0,0-1,12.22.5.5,0,0,0,1,0,57.64,57.64,0,0,1,.91-11.95c.12-.63-.85-.9-1-.27Z" transform="translate(-0.01 -0.03)"/>
        <path class="cls-1" d="M233.88,47.75A15.23,15.23,0,0,1,235,40.82a.5.5,0,1,0-1-.27,16.13,16.13,0,0,0-1.15,7.2c.05.64,1.05.65,1,0Z" transform="translate(-0.01 -0.03)"/>
        <path class="cls-1" d="M239,45.83a9,9,0,0,1,1.26-3.23c.22-.35.56-.9,1-.92s.65.35.82.65a7,7,0,0,1,.53,1.41,8,8,0,0,1,.38,1.83,2.84,2.84,0,0,1-1,2.57,1.39,1.39,0,0,1-2.1-.61.5.5,0,0,0-1,.26,2.32,2.32,0,0,0,2.73,1.56,3.18,3.18,0,0,0,2.28-2.73,8.31,8.31,0,0,0-.82-4.43A2.63,2.63,0,0,0,242,40.84a1.66,1.66,0,0,0-1.77.23,5.68,5.68,0,0,0-1.39,2,10.57,10.57,0,0,0-.83,2.51c-.11.63.85.9,1,.26Z" transform="translate(-0.01 -0.03)"/>
        <path class="cls-1" d="M245.8,41.21l-.67,8.3h1a17.59,17.59,0,0,1,.76-5,18.12,18.12,0,0,1,.86-2.26A3.32,3.32,0,0,1,249,40.59c.69-.38.94.26,1,.87a16.41,16.41,0,0,1,.1,2.43,18.49,18.49,0,0,1-.88,5.16c-.19.62.78.88,1,.27a19.63,19.63,0,0,0,.88-4.74,17.91,17.91,0,0,0,0-2.43,4.43,4.43,0,0,0-.39-1.94c-.7-1.2-2.11-.74-2.89.08A5.57,5.57,0,0,0,246.75,42a17.38,17.38,0,0,0-.82,2.18,19.13,19.13,0,0,0-.8,5.31.5.5,0,0,0,1,0l.67-8.3c.06-.64-.94-.64-1,0Z" transform="translate(-0.01 -0.03)"/>
        <path class="cls-1" d="M258.36,40.66A5,5,0,0,0,253.61,43a.51.51,0,0,0,.08.61c.82.72,1.84.69,2.84.91a1.53,1.53,0,0,1,1.12.72,1.64,1.64,0,0,1,0,1.37c-.48,1.06-1.76,1.4-2.81,1.54a15.22,15.22,0,0,0-3.91.64.51.51,0,0,0-.34.62.5.5,0,0,0,.61.35c2-.86,4.55-.15,6.41-1.57,1.54-1.17,1.71-3.74-.31-4.5-.89-.33-2.1-.13-2.85-.79l.08.61a4,4,0,0,1,3.88-1.86c.64.07.64-.94,0-1Z" transform="translate(-0.01 -0.03)"/>
      </g>
      <g>
        <path class="cls-2" d="M33.21,138.67a5.66,5.66,0,0,0-3.89-.12,5.42,5.42,0,0,0-1.69.91c-.52.41-.62.84-.13,1.32s1.27.94,1.86,1.46a4.43,4.43,0,0,1,1.32,1.95,2.82,2.82,0,0,1-1.75,3.7A7,7,0,0,1,26,147.8a14.93,14.93,0,0,1-2.79-.83c-.3-.12-.43.36-.13.48a13.13,13.13,0,0,0,4.82,1.06,3.24,3.24,0,0,0,3.17-1.86,3.88,3.88,0,0,0-.42-3.7,6,6,0,0,0-1.45-1.49c-.33-.25-.67-.48-1-.75s-.39-.26-.38-.55.25-.41.49-.57a5.22,5.22,0,0,1,4.79-.44c.29.12.42-.36.13-.48Z" transform="translate(-0.01 -0.03)"/>
        <path class="cls-2" d="M31.79,151.62a13.7,13.7,0,0,1,2.09-4.46c.18-.26-.25-.51-.43-.25a13.91,13.91,0,0,0-2.14,4.58.25.25,0,0,0,.48.13Z" transform="translate(-0.01 -0.03)"/>
        <path class="cls-2" d="M34.32,148.92l-1.22,4.62c-.09.31.37.43.48.13a11.55,11.55,0,0,1,1.12-2.22,9.77,9.77,0,0,1,.76-1.06,5.19,5.19,0,0,1,.81-.88c.11-.08.35-.26.46-.12s.05.43,0,.57a10.56,10.56,0,0,1-.12,1.37,11.63,11.63,0,0,1-.73,2.64c-.12.29.36.42.48.13a11.56,11.56,0,0,0,.71-2.46c.06-.4.11-.81.14-1.22a2.83,2.83,0,0,0,0-1.16.62.62,0,0,0-.69-.41,1.5,1.5,0,0,0-.83.52,11,11,0,0,0-1.43,1.83,11.9,11.9,0,0,0-1.17,2.34l.48.13,1.22-4.62a.25.25,0,0,0-.48-.13Z" transform="translate(-0.01 -0.03)"/>
        <path class="cls-2" d="M44.23,144.54a19.69,19.69,0,0,0-4.7,7.08c-.85,2.29-.84,5.12,1.27,6.7.26.2.51-.24.26-.43-2.2-1.65-1.72-4.7-.74-6.89a20.31,20.31,0,0,1,4.26-6.11c.23-.22-.12-.58-.35-.35Z" transform="translate(-0.01 -0.03)"/>
        <path class="cls-2" d="M43.57,151.17c-.32.14-.26.52-.08.75a1.66,1.66,0,0,0,1,.48l2.68.77a.25.25,0,0,0,.13-.48l-2.08-.6-1-.29a.54.54,0,0,1-.29-.17s0-.07-.06-.09,0,0,0,0,0,.07,0,0a.25.25,0,0,0,.09-.34.26.26,0,0,0-.35-.09Z" transform="translate(-0.01 -0.03)"/>
        <path class="cls-2" d="M51.85,150.06a11.48,11.48,0,0,0-1.45,4.25c0,.14.13.25.25.25s.23-.11.25-.25a10.61,10.61,0,0,1,1.39-4,.25.25,0,0,0-.44-.25Z" transform="translate(-0.01 -0.03)"/>
        <path class="cls-2" d="M54.17,149.48a21.31,21.31,0,0,0-1,5.12c0,.32.48.32.5,0a20.56,20.56,0,0,1,1-5c.1-.31-.38-.44-.48-.14Z" transform="translate(-0.01 -0.03)"/>
        <path class="cls-2" d="M50.1,149.5a9.87,9.87,0,0,1,6.2.68c.29.13.54-.3.25-.43A10.43,10.43,0,0,0,50,149c-.32.07-.18.55.13.48Z" transform="translate(-0.01 -0.03)"/>
        <path class="cls-2" d="M58.61,152.77a39.83,39.83,0,0,1-6.64,5,.25.25,0,0,0,.26.43A40,40,0,0,0,59,153.12c.24-.22-.12-.57-.35-.35Z" transform="translate(-0.01 -0.03)"/>
        <path class="cls-2" d="M58.41,156l-2.85,2.61c-.19.17,0,.48.25.42a4.54,4.54,0,0,1,4.5,1.43c.21.25.56-.11.35-.35a5.06,5.06,0,0,0-5-1.57l.25.42,2.84-2.6c.24-.22-.11-.57-.35-.36Z" transform="translate(-0.01 -0.03)"/>
        <path class="cls-2" d="M59.49,157.25q-1.11,2-2.05,4c-.16.34-.31.68-.46,1s-.26.52-.11.76c.3.48,1-.18.5-.45-.28-.16-.54.27-.26.43l0,0-.12-.15,0-.17.2,0c.06,0,.26-.51.3-.6s.21-.46.31-.68c.21-.46.42-.91.64-1.35.44-.9.91-1.78,1.4-2.65a.25.25,0,0,0-.44-.25Z" transform="translate(-0.01 -0.03)"/>
        <path class="cls-2" d="M61.33,152.85a14.8,14.8,0,0,1,.28,8.24,6.68,6.68,0,0,1-1.42,3.29,2.49,2.49,0,0,1-3.35.44c-.24-.21-.59.14-.35.35a2.78,2.78,0,0,0,3.12.26,4.83,4.83,0,0,0,2.21-3.1,15.58,15.58,0,0,0,0-9.62c-.12-.29-.6-.16-.49.14Z" transform="translate(-0.01 -0.03)"/>
      </g>
      <g>
        <path class="cls-2" d="M190.7,161.34a4.51,4.51,0,0,0-2.32,2.83,6.81,6.81,0,0,0-.13,4.3,3.45,3.45,0,0,0,2.54,2.35,2.47,2.47,0,0,0,2.71-1.49c.11-.31-.37-.44-.49-.14a2,2,0,0,1-2.57,1,3.32,3.32,0,0,1-1.91-2.66c-.32-2,.38-4.88,2.42-5.78.3-.13,0-.56-.25-.43Z" transform="translate(-0.01 -0.03)"/>
        <path class="cls-2" d="M193.65,166.65a.81.81,0,0,1,1.21-1,1,1,0,0,1,.44,1,1.2,1.2,0,0,1-.77.9,1.46,1.46,0,0,1-1.44-.33c-.24-.21-.59.14-.36.36a2,2,0,0,0,1.8.49,1.72,1.72,0,0,0,1.23-1.2,1.46,1.46,0,0,0-.55-1.59,1.31,1.31,0,0,0-2,1.62c.15.29.58,0,.43-.25Z" transform="translate(-0.01 -0.03)"/>
        <path class="cls-2" d="M197.53,163.25c-.27.56-.93.94-.79,1.65a.74.74,0,0,0,.55.58c.3.08.64,0,.93.06.59.23.44,1,.12,1.4a1.88,1.88,0,0,1-1.86.7c-.3-.11-.43.37-.13.48a2.24,2.24,0,0,0,2.08-.57,1.65,1.65,0,0,0,.64-1.71,1.19,1.19,0,0,0-.53-.69,1.74,1.74,0,0,0-.93-.13c-.15,0-.33,0-.38-.2a.59.59,0,0,1,.07-.39c.16-.35.5-.58.66-.93s-.29-.55-.43-.25Z" transform="translate(-0.01 -0.03)"/>
        <path class="cls-2" d="M200.79,159.49a21.88,21.88,0,0,0-.26,7.13,4.16,4.16,0,0,0,1,2.5,2.12,2.12,0,0,0,2.25.56c.29-.12.16-.6-.14-.48a1.76,1.76,0,0,1-2.15-1,6.56,6.56,0,0,1-.54-2.66,21.5,21.5,0,0,1,.33-5.94c.06-.31-.42-.45-.48-.13Z" transform="translate(-0.01 -0.03)"/>
        <path class="cls-2" d="M202.26,164.21l3.66-2.26c.27-.17,0-.6-.25-.43L202,163.77a.26.26,0,0,0,.26.44Z" transform="translate(-0.01 -0.03)"/>
        <path class="cls-2" d="M203.48,161a22.65,22.65,0,0,0,1.18,5.46c.1.3.58.17.48-.13A22.07,22.07,0,0,1,204,161c0-.31-.53-.32-.5,0Z" transform="translate(-0.01 -0.03)"/>
        <path class="cls-2" d="M206.43,162.93a4.49,4.49,0,0,0,1.21,2.51.26.26,0,0,0,.42-.11l.44-1.26-.18.18c.23,0,.5.27.67.39a.79.79,0,0,0,.89.09,2,2,0,0,0,.6-1.19,5.29,5.29,0,0,0,.17-1.53c0-.32-.51-.33-.5,0a4.77,4.77,0,0,1-.14,1.36,4.52,4.52,0,0,1-.21.62c0,.12-.11.32-.25.35s-.43-.23-.57-.34a1,1,0,0,0-.79-.23.24.24,0,0,0-.18.17l-.43,1.26.41-.11a4.18,4.18,0,0,1-1.08-2.29.26.26,0,0,0-.31-.17.25.25,0,0,0-.17.3Z" transform="translate(-0.01 -0.03)"/>
        <path class="cls-2" d="M211.83,163.45a3.5,3.5,0,0,1-.06-.48,2.09,2.09,0,0,1,0-.25v-.07c0-.05,0,0,0,0l0-.14,0-.11v0s0,0,0,0l.06-.1s0,0,0,0l0-.06.05,0s0,0,0,0l.11-.06s0,0,0,0l.07,0h.07s.08,0,0,0h.05l.07,0,.1.05.05,0,0,0,.09.09,0,0s0,0,0,0l.06.1,0,.07v0l0,.11c0,.05,0-.06,0,0s0,0,0,.05a.22.22,0,0,1,0,.08h0a.61.61,0,0,1,0,.13.69.69,0,0,0,0,.08l-.07.11a1.06,1.06,0,0,1-.15.16,1.24,1.24,0,0,1-.45.25,1.4,1.4,0,0,1-.58.06.25.25,0,0,0-.25.25.25.25,0,0,0,.25.25c.88.07,2-.58,1.79-1.59a1.23,1.23,0,0,0-.86-.93,1,1,0,0,0-1.08.55,2.51,2.51,0,0,0-.08,1.46.26.26,0,0,0,.31.18.27.27,0,0,0,.18-.31Z" transform="translate(-0.01 -0.03)"/>
        <path class="cls-2" d="M215.76,162a6.29,6.29,0,0,1,.5,2c0,.31.5.32.5,0a12.55,12.55,0,0,0-.48-2.41,2.51,2.51,0,0,1,.26-2l-.39-.05a8.84,8.84,0,0,1,1.44,3.13.25.25,0,0,0,.49-.06,11.72,11.72,0,0,1,.17-2.37c.07-.38.32-1.52.92-1a1.62,1.62,0,0,1,.43.78,8.53,8.53,0,0,1,.3,1.1,9,9,0,0,1,.13,2.31c0,.32.47.32.5,0a9.17,9.17,0,0,0-.23-2.81c-.16-.66-.38-1.66-1.1-1.95s-1.21.46-1.36,1.08a11,11,0,0,0-.26,2.86l.49-.07a9.07,9.07,0,0,0-1.49-3.25.25.25,0,0,0-.39,0c-1.16,1.47.05,3.2.07,4.8h.5a7.12,7.12,0,0,0-.57-2.22c-.13-.29-.56,0-.43.26Z" transform="translate(-0.01 -0.03)"/>
        <path class="cls-2" d="M222.06,163.37a14.87,14.87,0,0,0-.65-3.1c-.1-.3-.59-.17-.49.13a13.68,13.68,0,0,1,.64,3,.27.27,0,0,0,.25.25c.13,0,.27-.12.25-.25Z" transform="translate(-0.01 -0.03)"/>
        <path class="cls-2" d="M220.64,159.12a.25.25,0,0,0,0-.5.25.25,0,0,0,0,.5Z" transform="translate(-0.01 -0.03)"/>
        <path class="cls-2" d="M222.56,158.29l.27,4.15c0,.32.52.32.5,0l-.27-4.15c0-.32-.52-.32-.5,0Z" transform="translate(-0.01 -0.03)"/>
        <path class="cls-2" d="M223.7,157.62a11.06,11.06,0,0,1,.52,4.91c0,.31.46.31.5,0a11.54,11.54,0,0,0-.53-5.05c-.11-.3-.59-.17-.49.14Z" transform="translate(-0.01 -0.03)"/>
        <path class="cls-2" d="M226.33,162.68a8.09,8.09,0,0,1-.33-2.49.25.25,0,0,0-.5,0,8.63,8.63,0,0,0,.35,2.62.25.25,0,0,0,.48-.13Z" transform="translate(-0.01 -0.03)"/>
        <path class="cls-2" d="M225.82,159.08l.1-.37a.25.25,0,0,0,0-.19.22.22,0,0,0-.15-.12.24.24,0,0,0-.19,0,.23.23,0,0,0-.12.15l-.11.36a.34.34,0,0,0,0,.2.24.24,0,0,0,.15.11.25.25,0,0,0,.19,0,.29.29,0,0,0,.12-.15Z" transform="translate(-0.01 -0.03)"/>
        <path class="cls-2" d="M227.83,160a.43.43,0,0,1,0-.37.73.73,0,0,1,.25-.33.56.56,0,0,1,.77.07,1,1,0,0,1,.3.86,1.1,1.1,0,0,1-.55.76,1.16,1.16,0,0,1-1,.1.25.25,0,0,0-.31.18.25.25,0,0,0,.18.3,1.7,1.7,0,0,0,2.2-1.21,1.51,1.51,0,0,0-.43-1.35,1.09,1.09,0,0,0-1.34-.16,1.06,1.06,0,0,0-.43,1.4.25.25,0,0,0,.43-.25Z" transform="translate(-0.01 -0.03)"/>
        <path class="cls-2" d="M229.92,158.56a17.2,17.2,0,0,1,.67,3.09l.46-.12a4.13,4.13,0,0,1-.22-2.57c0-.21.1-.55.29-.69.35-.26.67.49.73.72a10.06,10.06,0,0,1,.3,1.89c0,.32.52.33.5,0a13.33,13.33,0,0,0-.28-1.88,1.84,1.84,0,0,0-.72-1.17.78.78,0,0,0-1.12.43,4.1,4.1,0,0,0-.31,1.62,4.76,4.76,0,0,0,.4,1.9.25.25,0,0,0,.47-.13,18.05,18.05,0,0,0-.69-3.23c-.09-.3-.58-.17-.48.14Z" transform="translate(-0.01 -0.03)"/>
        <path class="cls-2" d="M231.12,154.72a19.54,19.54,0,0,1,2.63,4.67c.56,1.45.89,3.78-.95,4.5-.3.12-.17.6.13.49,1.73-.68,2-2.68,1.59-4.29a17.6,17.6,0,0,0-3-5.63c-.19-.25-.62,0-.43.26Z" transform="translate(-0.01 -0.03)"/>
      </g>
      <g>
        <path class="cls-2" d="M30.8,97.91A11.31,11.31,0,0,1,37.49,94c.32-.06.18-.54-.13-.48a11.84,11.84,0,0,0-6.92,4c-.2.25.15.6.36.36Z" transform="translate(-0.01 -0.03)"/>
        <path class="cls-2" d="M33.26,90.1a53.17,53.17,0,0,1,.43,6.18c0,1,0,2-.06,3a6.55,6.55,0,0,0,.13,2.79c.12.3.61.17.48-.13a7,7,0,0,1-.1-2.89c0-1,.06-2,0-3a53.75,53.75,0,0,0-.43-6c0-.31-.55-.32-.5,0Z" transform="translate(-0.01 -0.03)"/>
        <path class="cls-2" d="M38.82,97.19a14.75,14.75,0,0,1,.62,2.37l.45-.2a14.35,14.35,0,0,0-2.07-2.78,3.71,3.71,0,0,0-1.26-1,.84.84,0,0,0-1.12.46,3.32,3.32,0,0,0-.07,1.44A5.7,5.7,0,0,0,35.68,99a3.42,3.42,0,0,0,1.89,2.08,2.49,2.49,0,0,0,2.74-.48c.22-.23-.13-.58-.35-.35a1.94,1.94,0,0,1-2,.44,2.74,2.74,0,0,1-1.68-1.53,5.54,5.54,0,0,1-.45-2.54.88.88,0,0,1,.11-.5c.14-.18.36-.13.54,0a4.24,4.24,0,0,1,1,.91,13.85,13.85,0,0,1,1.94,2.63c.15.26.5.07.46-.2a14,14,0,0,0-.62-2.37c-.11-.3-.59-.17-.48.14Z" transform="translate(-0.01 -0.03)"/>
        <path class="cls-2" d="M40.06,96.36a16.32,16.32,0,0,1,.63,3.79.25.25,0,0,0,.5,0,11.85,11.85,0,0,1,.25-2.37q.12-.57.3-1.14c.06-.18.12-.36.19-.54s.14-.4.27-.39.19.35.22.43.11.33.15.5a8.18,8.18,0,0,1,.27,1.19,10.53,10.53,0,0,1,.11,2.38c0,.32.48.32.5,0a10.51,10.51,0,0,0-.63-4.41c-.09-.25-.22-.52-.51-.58a.69.69,0,0,0-.68.36,3.84,3.84,0,0,0-.38,1c-.11.35-.2.7-.28,1.06a12.05,12.05,0,0,0-.28,2.54h.5a17.27,17.27,0,0,0-.65-3.92.25.25,0,0,0-.48.13Z" transform="translate(-0.01 -0.03)"/>
        <path class="cls-2" d="M45.88,88.6a45.75,45.75,0,0,0-1.05,8.65c0,2,.2,4.78,2.69,5.08.31,0,.31-.46,0-.5-2.6-.31-2.24-4-2.15-5.8a44.8,44.8,0,0,1,1-7.3c.07-.31-.41-.45-.48-.13Z" transform="translate(-0.01 -0.03)"/>
        <path class="cls-2" d="M49.4,99.09c1-1.9,2.21-4.41.82-6.45-.25-.36-.63-.82-1.11-.84s-.8.56-1,1a2.76,2.76,0,0,0-.15,3,1.48,1.48,0,0,0,2.42,0c.18-.27-.26-.53-.43-.26a.92.92,0,0,1-1.11.3,1.32,1.32,0,0,1-.75-1.16,2.77,2.77,0,0,1,.42-1.6c.11-.18.27-.57.46-.69s.57.19.72.38c1.49,1.84.25,4.34-.7,6.1-.15.29.28.54.43.25Z" transform="translate(-0.01 -0.03)"/>
        <path class="cls-2" d="M52.25,94l2.15-2.75L54,91.13a21.78,21.78,0,0,1,.25,6c0,.32.47.32.5,0A22,22,0,0,0,54.47,91a.25.25,0,0,0-.42-.11L51.9,93.64c-.2.25.15.61.35.35Z" transform="translate(-0.01 -0.03)"/>
        <path class="cls-2" d="M52.5,98.89a4.67,4.67,0,0,1,4.26-1.75c.32,0,.45-.44.13-.48a5.14,5.14,0,0,0-4.74,1.88c-.2.25.16.6.35.35Z" transform="translate(-0.01 -0.03)"/>
        <path class="cls-2" d="M56.74,88.79a5.91,5.91,0,0,0-.21,1.87,1.14,1.14,0,0,0,.77,1.14,1.36,1.36,0,0,0,1.16-.29,1.28,1.28,0,0,0,.41-1.24,2,2,0,0,0-1-1.35c-.28-.15-.54.28-.25.44a1.56,1.56,0,0,1,.74.84.9.9,0,0,1,.05.51.65.65,0,0,1-.18.37,1,1,0,0,1-.34.21l-.1,0s-.1,0-.06,0h-.2l-.09,0,0,0c-.07,0,0,0,0,0a.44.44,0,0,1-.15-.12l0-.07L57.08,91a1.64,1.64,0,0,1,0-.32,5.27,5.27,0,0,1,.2-1.72.25.25,0,0,0-.49-.13Z" transform="translate(-0.01 -0.03)"/>
        <path class="cls-2" d="M57.48,93a3.55,3.55,0,0,1,1.74-.16.24.24,0,0,0,.3-.17.25.25,0,0,0-.17-.31,4,4,0,0,0-2,.16.25.25,0,0,0-.17.31.24.24,0,0,0,.3.17Z" transform="translate(-0.01 -0.03)"/>
        <path class="cls-2" d="M60,87.88a14,14,0,0,1,1,7.38,9.38,9.38,0,0,1-3.25,5.59c-.25.21.11.56.35.36a9.84,9.84,0,0,0,3.38-5.82,14.31,14.31,0,0,0-1-7.64c-.12-.3-.6-.17-.48.13Z" transform="translate(-0.01 -0.03)"/>
      </g>
      <path class="cls-1" d="M70.14,11.59a77,77,0,0,1,23.2-6.26c7.35-.71,14.75-.31,22.11,0,10.14.4,20.27.51,30.41-.08,7-.41,14-1.1,21-2,4.13-.54,8.27-1,12.44-1.13a108.19,108.19,0,0,1,42.63,6.65c12.84,4.85,25.37,11.64,34.71,21.87s15.26,23.56,19.63,36.72c4.43,13.31,7.24,27.39,6.51,41.48a66.06,66.06,0,0,1-13.11,36.88c-7.47,9.8-17.58,17.38-28.5,22.94C215,182,184.77,182.85,156,183.22l-47.77.57c-15.59.18-31.33.94-46.86-.63-13.52-1.37-27-4.94-38.34-12.69-10-6.81-17.32-16.79-19.88-28.67s-.44-24.4,2-36.17c1.43-6.85,3-13.68,4.65-20.48A152.22,152.22,0,0,1,15.32,66.7C22.6,47.66,36.07,32.13,53,20.93a112.76,112.76,0,0,1,17.18-9.34c1.18-.51.16-2.24-1-1.72C50.72,17.91,34,30.93,22.81,47.75c-7.71,11.6-12,24.67-15.24,38.12C4.41,99.07.89,112.53.12,126.13c-.65,11.63,1.59,23.26,8.36,32.93,7.21,10.29,18.28,17.23,30,21.32,14.35,5,29.81,5.69,44.87,5.67,16.32,0,32.65-.36,49-.55,16-.19,32-.1,48-1,15.29-.84,30.69-2.71,45.33-7.38,23.71-7.58,46.4-23.4,55.12-47.6,4.77-13.25,5-27.68,2.77-41.46A141.86,141.86,0,0,0,270.45,47.7,81.72,81.72,0,0,0,259,30.23,72.77,72.77,0,0,0,243.15,16.9a112.83,112.83,0,0,0-18.8-9.36A101.64,101.64,0,0,0,202,1.33a124,124,0,0,0-34.42-.2A286,286,0,0,1,129.1,3.67C113.19,3.57,97,1.26,81.4,5.48A89.17,89.17,0,0,0,69.13,9.87C68,10.37,69,12.1,70.14,11.59Z" transform="translate(-0.01 -0.03)"/>
      <g>
        <path class="cls-2" d="M239,73.89a2.41,2.41,0,0,0-2.5-.84c-.9.14-2.28.52-2.32,1.63s1.06,1.85,1.83,2.54a1.68,1.68,0,0,1,.71,1.6,2.19,2.19,0,0,1-1.29,1.49,9.54,9.54,0,0,1-5,.63l.13.46.61-.44c.26-.19,0-.62-.25-.43l-.61.44a.25.25,0,0,0,.12.47,11.67,11.67,0,0,0,4.08-.29,3.49,3.49,0,0,0,2.55-1.84,2.22,2.22,0,0,0-.92-2.59,5.65,5.65,0,0,1-1.2-1.14c-.37-.56-.45-1.24.22-1.6.92-.51,2.67-.87,3.36.16.18.27.62,0,.44-.25Z" transform="translate(-0.01 -0.03)"/>
        <path class="cls-2" d="M237.11,83.28a15.89,15.89,0,0,1,1.47-3.91c.15-.29-.28-.54-.43-.26a16.23,16.23,0,0,0-1.52,4c-.07.32.41.45.48.14Z" transform="translate(-0.01 -0.03)"/>
        <path class="cls-2" d="M239.46,80.55l-.62,2.9c-.06.31.41.45.49.13a9.12,9.12,0,0,1,2.49-4.32l-.42-.11a7.08,7.08,0,0,1-.65,5.37.25.25,0,0,0,.43.25,7.55,7.55,0,0,0,.7-5.75.26.26,0,0,0-.42-.11,9.73,9.73,0,0,0-2.62,4.54l.49.13.62-2.89c.06-.32-.42-.45-.49-.14Z" transform="translate(-0.01 -0.03)"/>
        <path class="cls-2" d="M247.53,76.25a26.05,26.05,0,0,0-3.76,6.48c-.76,1.9-1.19,4.62,1,5.81.28.15.54-.28.25-.43-2.23-1.24-1.22-4.16-.43-6a26,26,0,0,1,3.33-5.55c.2-.25-.15-.61-.35-.35Z" transform="translate(-0.01 -0.03)"/>
        <path class="cls-2" d="M246.92,82.21l3.62,1a.26.26,0,0,0,.14-.49l-3.63-1a.25.25,0,0,0-.13.48Z" transform="translate(-0.01 -0.03)"/>
        <path class="cls-2" d="M253.5,80.67c-.38.45-.8.89-1.14,1.37s0,.83.48.92,1.15.14,1.72.2l1.86.21c.32,0,.32-.46,0-.5l-3-.33a3.94,3.94,0,0,1-.6-.08s-.13,0-.14-.08.13-.16.16-.2l1-1.16c.21-.25-.15-.6-.35-.35Z" transform="translate(-0.01 -0.03)"/>
        <path class="cls-2" d="M255.59,79.52l-3.38,8c-.13.29.35.42.48.13l3.38-8c.12-.3-.36-.43-.48-.13Z" transform="translate(-0.01 -0.03)"/>
        <path class="cls-2" d="M258.4,82.45a11,11,0,0,0-1.88,2.62,5,5,0,0,0-.78,2.79,1.28,1.28,0,0,0,1.81,1,3.18,3.18,0,0,0,1.68-2.11,5.7,5.7,0,0,0-.08-3.58c-.11-.3-.59-.17-.48.14A5.31,5.31,0,0,1,258.9,86a3.41,3.41,0,0,1-1.16,2.19,1.23,1.23,0,0,1-.93.29.84.84,0,0,1-.59-.83,5,5,0,0,1,.75-2.39,10.13,10.13,0,0,1,1.79-2.47c.22-.24-.13-.59-.36-.36Z" transform="translate(-0.01 -0.03)"/>
        <path class="cls-2" d="M260.77,86a8.44,8.44,0,0,0-1.41,4.64.25.25,0,0,0,.25.25,3.06,3.06,0,0,0,1.74-5.56.24.24,0,0,0-.34.09l-.42.76c-.15.28.28.53.43.25l.42-.76-.35.09a2.56,2.56,0,0,1-1.48,4.63l.25.25a7.87,7.87,0,0,1,1.34-4.38c.18-.27-.25-.52-.43-.26Z" transform="translate(-0.01 -0.03)"/>
        <path class="cls-2" d="M264.49,85a1.23,1.23,0,0,0-.44,2,1.43,1.43,0,0,0,1.35.27,1.64,1.64,0,0,0,1.05-1,2.27,2.27,0,0,0-.1-1.77.25.25,0,0,0-.44.25,1.79,1.79,0,0,1,.13,1.16,1.13,1.13,0,0,1-.65.8,1,1,0,0,1-.88,0,.57.57,0,0,1-.27-.3v-.06l0-.11h0v0a.29.29,0,0,1,0-.13V86s0,0,0,0a.36.36,0,0,1,0-.11.14.14,0,0,0,0-.06l0,0,.06-.1s0,0,0,0,0,0,0,0a.08.08,0,0,1,0,0s.06-.05,0,0l.09-.06c.07,0,0,0,0,0l.08,0a.25.25,0,0,0-.13-.48Z" transform="translate(-0.01 -0.03)"/>
        <path class="cls-2" d="M264.6,88.63a1.85,1.85,0,0,1,1.6.19.25.25,0,0,0,.34-.09.26.26,0,0,0-.09-.35,2.38,2.38,0,0,0-2-.23.25.25,0,1,0,.13.48Z" transform="translate(-0.01 -0.03)"/>
        <path class="cls-2" d="M267,84.48a14.16,14.16,0,0,1,.27,6,4.45,4.45,0,0,1-1.07,2.35,2.21,2.21,0,0,1-2.43.57c-.29-.13-.54.3-.25.43a2.56,2.56,0,0,0,2.51-.23,4,4,0,0,0,1.55-2.27,13.65,13.65,0,0,0-.09-7,.25.25,0,0,0-.49.13Z" transform="translate(-0.01 -0.03)"/>
      </g>
    </g>
  </g>
</svg>
