<svg xmlns="http://www.w3.org/2000/svg" viewBox="0 0 275.39 255.67">
  <defs>
    <style>
      .cls-1 {
        fill: #808285;
      }

      .cls-2 {
        fill: #231f20;
      }

      .cls-3 {
        fill: #ed1c24;
      }

      .cls-4 {
        fill: #00a651;
      }
    </style>
  </defs>
  <title>unit-circle-1</title>
  <g id="Layer_2" data-name="Layer 2">
    <g id="Layer_1-2" data-name="Layer 1">
      <g>
        <path class="cls-1" d="M126.7,26.88l5-9.06H130a47.7,47.7,0,0,0,6.67,9.11c.89.94,2.3-.47,1.42-1.41a44.93,44.93,0,0,1-6.36-8.71,1,1,0,0,0-1.73,0l-5,9.06c-.62,1.13,1.11,2.14,1.73,1Z" transform="translate(-0.02)"/>
        <path class="cls-1" d="M122,246.38l3.15,5.65c.49.88.93,1.84,1.5,2.67a1.8,1.8,0,0,0,2.3.8,12.46,12.46,0,0,0,2.31-1.93l2.44-2.15,2.41-2.11a6.61,6.61,0,0,0,1.69-2.07,1,1,0,0,0-1.73-1,5.25,5.25,0,0,1-1.37,1.67l-2,1.78-4.13,3.63c-.09.07-.39.27-.41.36s0,.11.31.08l0-.06c0-.11-.24-.38-.3-.5l-.36-.65-1.33-2.39-2.66-4.78a1,1,0,0,0-1.73,1Z" transform="translate(-0.02)"/>
        <path class="cls-1" d="M130.23,19.32q.71,45.68.46,91.35-.25,45.44-1.44,90.87-.67,25.64-1.64,51.25c0,1.28,2,1.28,2,0q1.72-45.64,2.5-91.32.78-45.43.61-90.88-.09-25.64-.49-51.27a1,1,0,0,0-2,0Z" transform="translate(-0.02)"/>
      </g>
      <g>
        <path class="cls-1" d="M2.29,137.06c24.71,1.15,49.42,1.1,74.14.19,11.91-.44,23.78-.6,35.69-.34q26.69.6,53.38.78c7.49,0,15,0,22.48,0q33.22,0,66.45.17l8.75,0a1,1,0,0,0,0-2q-35.13-.12-70.25-.19c-8.36,0-16.72,0-25.07,0q-25.67-.12-51.31-.69c-10.92-.24-21.81-.37-32.73,0-11.38.36-22.75.85-34.13,1q-20.22.18-40.44-.59l-7-.3C1,135,1,137,2.29,137.06Z" transform="translate(-0.02)"/>
        <path class="cls-1" d="M255.38,132.57a22,22,0,0,1,5.15,2.63,21.33,21.33,0,0,1,2.24,1.78,4.94,4.94,0,0,1,1,1c-.07-.15.11-.2-.15,0a5.71,5.71,0,0,1-.47.39c-2.54,2.07-5.76,3.67-6.74,7a1,1,0,0,0,1.93.53,7.84,7.84,0,0,1,3.14-3.85c.77-.58,1.56-1.12,2.32-1.7s1.69-1.14,1.94-2.06c.3-1.14-.69-2-1.43-2.67a23.89,23.89,0,0,0-8.42-5.07c-1.22-.42-1.74,1.51-.54,1.93Z" transform="translate(-0.02)"/>
        <path class="cls-1" d="M10.61,126.11c-1.86,1.34-3.67,2.75-5.41,4.25-.8.69-1.59,1.41-2.37,2.14a16.39,16.39,0,0,0-2.32,2.39,2.08,2.08,0,0,0,.08,2.78,5,5,0,0,0,1.3.7l1.55.72,6.66,3.07a1,1,0,0,0,1.37-.36,1,1,0,0,0-.36-1.37l-5.66-2.61-2.77-1.28a4.49,4.49,0,0,0-.67-.31c-.14,0,0,.1,0,0a8.34,8.34,0,0,1,.76-.93,69.54,69.54,0,0,1,8.84-7.5,1,1,0,0,0-1-1.73Z" transform="translate(-0.02)"/>
      </g>
      <path class="cls-1" d="M129.06.23a4.57,4.57,0,0,0-.24,4.06c.41,1.21,1.07,2.8,2.29,3.39s2.45-.29,3.18-1.31a18.44,18.44,0,0,0,2.28-4.49l-1-.27a21.5,21.5,0,0,1-3,7.76A7.81,7.81,0,0,1,129.41,12a23.08,23.08,0,0,1-5.19,1.23c-.63.12-.37,1.08.26,1a23.45,23.45,0,0,0,5.43-1.34,8.75,8.75,0,0,0,3.38-2.74c1.81-2.39,2.6-5.41,3.28-8.28a.5.5,0,0,0-1-.27A18.37,18.37,0,0,1,134,5c-.47.78-1.38,2.39-2.52,1.75A5.15,5.15,0,0,1,129.78,4a3.72,3.72,0,0,1,.14-3.3c.35-.54-.51-1-.86-.5Z" transform="translate(-0.02)"/>
      <g>
        <path class="cls-1" d="M266.25,132.68l8,11.36a.48.48,0,0,0,.43.25.78.78,0,0,0,.21-1.51c-.6-.25-.86.72-.27,1l.06-.45.43.25-8-11.36c-.37-.53-1.23,0-.86.5Z" transform="translate(-0.02)"/>
        <path class="cls-1" d="M274.18,131.26l-8.29,11.12.69-.18h0c.13-.63-.83-.9-1-.27a1,1,0,0,0,.49,1.12.53.53,0,0,0,.69-.18L275,131.76c.39-.51-.48-1-.86-.5Z" transform="translate(-0.02)"/>
      </g>
      <path class="cls-2" d="M128,46.58A142.71,142.71,0,0,1,155,50.09,94.69,94.69,0,0,1,184.76,63a98.3,98.3,0,0,1,17.86,15.41,110.6,110.6,0,0,1,16.71,24,83.73,83.73,0,0,1,9.28,33.29,89.71,89.71,0,0,1-11.16,48.39,91.43,91.43,0,0,1-15.59,20.22,89.18,89.18,0,0,1-23.52,16.89,105.66,105.66,0,0,1-29.19,9.08,112.34,112.34,0,0,1-30.59.67,107.79,107.79,0,0,1-29.31-7.61,95.26,95.26,0,0,1-25.73-15.88A94.31,94.31,0,0,1,44,183.53,99.34,99.34,0,0,1,32.23,152.2a88.33,88.33,0,0,1,.51-35.59A87.14,87.14,0,0,1,46.16,86.08,91,91,0,0,1,66.3,65.28a98.9,98.9,0,0,1,23.19-13,83.46,83.46,0,0,1,22.25-5.6A107.89,107.89,0,0,1,128,46.58c1.29.06,1.28-1.94,0-2a105.19,105.19,0,0,0-16.84.19,80.48,80.48,0,0,0-11.22,2,99.86,99.86,0,0,0-46.32,27,88.77,88.77,0,0,0-25,61.37,95.51,95.51,0,0,0,6.47,34.49A102.24,102.24,0,0,0,51.53,198a92.89,92.89,0,0,0,23.22,20.16,103.75,103.75,0,0,0,28.52,12,113.38,113.38,0,0,0,31,3.51A111.94,111.94,0,0,0,165,228.57a93.5,93.5,0,0,0,28.39-14.37,97.24,97.24,0,0,0,20.42-20.79,85.65,85.65,0,0,0,8.67-14.87,92.93,92.93,0,0,0,7.44-25.64A86.1,86.1,0,0,0,227.07,116a99,99,0,0,0-12-24.77,106.23,106.23,0,0,0-21.79-24.4,92.55,92.55,0,0,0-21-13,108.71,108.71,0,0,0-32.53-8.47c-3.91-.42-7.83-.66-11.75-.86C126.74,44.51,126.74,46.51,128,46.58Z" transform="translate(-0.02)"/>
      <g>
        <path class="cls-3" d="M211.32,51.65c-11.4,9.71-22.61,19.68-33,30.44-5.21,5.36-10.21,10.92-14.93,16.72-4.87,6-9.19,12.46-14.25,18.3-5.62,6.49-12,12.24-18.39,18a1,1,0,0,0,.7,1.71q22.4-1.93,44.9-2.09,11.3-.08,22.6.31c7.26.24,14.51.76,21.77,1.06,7.85.32,15.86.14,23.4-2.29,1.22-.4.69-2.33-.54-1.93-6.66,2.15-13.69,2.49-20.65,2.3-7.21-.2-14.41-.79-21.63-1.06q-22.39-.84-44.81.09-12.54.53-25,1.61l.71,1.7c5.69-5.1,11.39-10.22,16.55-15.87s9.58-12.18,14.4-18.26a289.16,289.16,0,0,1,30.77-32.61C200,64,206.34,58.51,212.73,53.06c1-.83-.44-2.24-1.41-1.41Z" transform="translate(-0.02)"/>
        <path class="cls-3" d="M236.34,129.32c1.21.48,2.4,1,3.58,1.57.58.28,1.16.58,1.73.88l.94.51a5.86,5.86,0,0,0,.84.48c.18.07.19.26.14-.11s-.1-.14-.28,0l-.71.74-1.43,1.5-3,3.13c-.89.93.53,2.35,1.42,1.42l3.49-3.66c.6-.62,1.21-1.23,1.79-1.87a1.77,1.77,0,0,0,.42-2.19,4.85,4.85,0,0,0-1.84-1.31q-1-.57-2.07-1.08c-1.46-.73-3-1.39-4.49-2a1,1,0,0,0-1.23.7,1,1,0,0,0,.7,1.23Z" transform="translate(-0.02)"/>
        <path class="cls-3" d="M203.9,52.33c1.39-.08,2.78-.14,4.17-.15h2a3.13,3.13,0,0,1,1.33.16.16.16,0,0,1,.12.15,1.27,1.27,0,0,1-.08.6c-.17.61-.41,1.21-.62,1.82l-1.37,4a1,1,0,0,0,.7,1.23,1,1,0,0,0,1.23-.7L212.91,55c.48-1.36,1.16-3.08-.24-4.16-1.08-.84-2.73-.63-4-.63-1.58,0-3.17.06-4.75.16a1,1,0,0,0-1,1,1,1,0,0,0,1,1Z" transform="translate(-0.02)"/>
      </g>
      <path class="cls-4" d="M149,120.17a10.77,10.77,0,0,1,7,12.81.5.5,0,0,0,1,.26,11.79,11.79,0,0,0-7.66-14c-.62-.19-.88.78-.27,1Z" transform="translate(-0.02)"/>
      <g>
        <path class="cls-4" d="M161.46,115.51c-1.28,2.86-2.69,6.09-1.75,9.26.72,2.45,2.84,4.59,5.55,4.3s4.8-2.8,5.8-5.2c1.18-2.84,1.24-6.16-1.22-8.34a6.14,6.14,0,0,0-8.34.28c-.46.45.25,1.16.71.7a5.15,5.15,0,0,1,6.46-.63c2.33,1.6,2.59,4.4,1.74,6.9-.74,2.15-2.3,4.52-4.6,5.17s-4.29-1-5-3.11c-1.06-3,.33-6.11,1.54-8.82.26-.58-.6-1.09-.86-.51Z" transform="translate(-0.02)"/>
        <path class="cls-4" d="M161.64,123.25l5.07-3c.68-.4,4-2.9,4.29-1,.1.63,1.06.36,1-.27a1.79,1.79,0,0,0-1.64-1.41,5,5,0,0,0-2.92,1.11l-6.27,3.76a.5.5,0,0,0,.5.86Z" transform="translate(-0.02)"/>
      </g>
      <g>
        <g>
          <path class="cls-1" d="M17.92,110.76a8.58,8.58,0,0,0,1,7.55A6.88,6.88,0,0,0,22,120.93a3.21,3.21,0,0,0,3.59-1.31,15.47,15.47,0,0,0,2.43-4.81c.2-.62-.76-.88-1-.27a13.36,13.36,0,0,1-2.36,4.59,2.33,2.33,0,0,1-2,1,4,4,0,0,1-2-1.21A7.57,7.57,0,0,1,18.89,111c.21-.61-.76-.87-1-.26Z" transform="translate(-0.02)"/>
          <path class="cls-1" d="M28.89,111.15l-3.12-1.5-1.53-.74c-.26-.12-.53-.22-.77-.36l-.18-.14-.05-.07c.09.06.06.17-.1.3.57-.31.06-1.17-.5-.86s-.41,1,0,1.39a3.08,3.08,0,0,0,.84.49l1,.46L28.39,112a.5.5,0,1,0,.5-.86Z" transform="translate(-0.02)"/>
          <path class="cls-1" d="M23.29,105.66a46.78,46.78,0,0,0,6.57,1.65c.52.09.94-.66.39-.92a19,19,0,0,1-5.1-3.28,2.81,2.81,0,0,1-1.08-2.1c.05-.61.45-1.33,1.13-1.35a.5.5,0,0,0,0-1,2.24,2.24,0,0,0-2,1.65,3,3,0,0,0,.6,2.78,10.44,10.44,0,0,0,2.58,2.24,25.41,25.41,0,0,0,3.36,1.93l.39-.92a47.8,47.8,0,0,1-6.57-1.64c-.62-.2-.88.76-.27,1Z" transform="translate(-0.02)"/>
          <path class="cls-1" d="M26.05,95.55c.42,1.86,1,4.07,2.7,5.15a3.41,3.41,0,0,0,4.42-.53c.79-1,.46-2.4.06-3.53-.22-.6-1.18-.34-1,.27a3,3,0,0,1,.15,2.61,1.81,1.81,0,0,1-1.37.73,2.84,2.84,0,0,1-1.78-.41A4.06,4.06,0,0,1,27.84,98,13.71,13.71,0,0,1,27,95.28c-.14-.62-1.11-.36-1,.27Z" transform="translate(-0.02)"/>
          <path class="cls-1" d="M24,90.16A46.71,46.71,0,0,0,29.72,94a16.9,16.9,0,0,0,2.87,1.47c.74.25,1.62.09,1.72-.79.08-.64-.92-.63-1,0,.1-.1.1-.13,0-.1a1.2,1.2,0,0,1-.19,0,1.59,1.59,0,0,1-.45-.15c-.42-.2-.83-.41-1.24-.63-.77-.4-1.52-.82-2.27-1.27a47,47,0,0,1-4.47-3c-.51-.39-1.22.31-.71.71Z" transform="translate(-0.02)"/>
          <path class="cls-1" d="M33.08,91l-.78-2.31c-.2-.57-.32-1.43-.89-1.77a1.52,1.52,0,0,0-1.69.33,4.58,4.58,0,0,0-1.32,1.45,2,2,0,0,0-.06,1.78,2,2,0,0,0,1.54,1,8.75,8.75,0,0,0,3.81-.19,8.91,8.91,0,0,0,3.77-2.1c.48-.43-.23-1.14-.7-.7a7.9,7.9,0,0,1-6.74,2,1.09,1.09,0,0,1-.76-.37.94.94,0,0,1,0-.77,3.21,3.21,0,0,1,1.27-1.39.94.94,0,0,1,.32-.15c.15,0,.16.13.21.26.14.35.24.72.36,1.08l.73,2.16c.21.6,1.17.34,1-.27Z" transform="translate(-0.02)"/>
        </g>
        <g>
          <path class="cls-1" d="M34.53,79.19c1.31,1.81,2.92,3.9,5.28,4.27,1,.16,2.32-.06,2.2-1.33a9.4,9.4,0,0,0-.66-2l-.82-2.24-.35.61c.94-.3,1.89.33,2.86.21a1.75,1.75,0,0,0,1.6-1.2c.2-.87-.47-1.93-.83-2.68A24.3,24.3,0,0,0,42.19,72c-.36-.53-1.22,0-.87.51a19.47,19.47,0,0,1,1.28,2.16c.21.4.41.8.59,1.22a4.59,4.59,0,0,1,.46,1.18c.11.69-.83.73-1.3.65a4.9,4.9,0,0,0-2.43-.16.49.49,0,0,0-.35.61l1.17,3.23a2.43,2.43,0,0,1,.25.82c0,.25-.14.27-.38.3a3,3,0,0,1-1.28-.21c-1.71-.59-2.92-2.22-3.94-3.62-.37-.52-1.24,0-.86.5Z" transform="translate(-0.02)"/>
          <path class="cls-1" d="M48.7,74.8a31.93,31.93,0,0,1-4.38-4.92.5.5,0,0,0-.87.5A33,33,0,0,0,48,75.5c.47.44,1.18-.27.71-.7Z" transform="translate(-0.02)"/>
          <path class="cls-1" d="M44.82,68.81l3.4-4a.51.51,0,0,0,0-.7.5.5,0,0,0-.71,0l-3.39,4a.51.51,0,0,0,0,.71.49.49,0,0,0,.7,0Z" transform="translate(-0.02)"/>
          <path class="cls-1" d="M42.91,64.29a52.09,52.09,0,0,1,7.93,8.33c.39.51,1.26,0,.87-.5a54.06,54.06,0,0,0-8.09-8.54c-.49-.41-1.2.29-.71.71Z" transform="translate(-0.02)"/>
          <path class="cls-1" d="M46.19,61.1a59.81,59.81,0,0,0,7.84,9,.51.51,0,0,0,.79-.61,8.13,8.13,0,0,1-1.14-4.3,6.71,6.71,0,0,1,.21-1.84,1,1,0,0,1,.28-.53s0,0,.13,0c-.16,0,.2.07.12,0a1.14,1.14,0,0,1,.3.18,5.2,5.2,0,0,1,.89.8,27.14,27.14,0,0,1,2.8,3.84c.35.54,1.21,0,.86-.5a31.71,31.71,0,0,0-2.68-3.73A5.38,5.38,0,0,0,54.9,62c-2-.95-2.22,2.14-2.23,3.4A9.22,9.22,0,0,0,54,70l.79-.61a58.3,58.3,0,0,1-7.69-8.77c-.37-.52-1.24,0-.86.5Z" transform="translate(-0.02)"/>
        </g>
        <g>
          <path class="cls-1" d="M58.35,52.86a34.19,34.19,0,0,0,5.83,7,.5.5,0,0,0,.78-.61,18.25,18.25,0,0,1-2.22-5.08,6.31,6.31,0,0,1-.1-2.63A2.9,2.9,0,0,1,63,50.44a1,1,0,0,1,.33-.3c.15-.08.2,0,.15-.14.24.59,1.21.33,1-.27-.39-.95-1.43-.74-2-.13a4.45,4.45,0,0,0-.86,3.12c.05,2.54,1.32,4.91,2.55,7.07l.78-.61a32.87,32.87,0,0,1-5.66-6.83c-.34-.54-1.21,0-.87.51Z" transform="translate(-0.02)"/>
          <path class="cls-1" d="M69.25,53.11l2.09,2c.48.46,1.09-.22.71-.71a9,9,0,0,0-3.51-2.74c-1.08-.47-3.51-1.39-3.72.51a5.24,5.24,0,0,0,.35,2.14,6.32,6.32,0,0,0,1,1.9,4.19,4.19,0,0,0,3.41,1.68,3.46,3.46,0,0,0,3.21-2.16c.22-.61-.75-.87-1-.27a2.39,2.39,0,0,1-2,1.41,3.07,3.07,0,0,1-2.63-1,5.54,5.54,0,0,1-1.38-3.07,1.21,1.21,0,0,1,0-.68c.12-.22.45-.14.65-.1a7.26,7.26,0,0,1,1.69.55,8.35,8.35,0,0,1,3.16,2.52l.71-.71-2.09-2c-.46-.45-1.17.26-.71.7Z" transform="translate(-0.02)"/>
          <path class="cls-1" d="M70,42.7l5,6.91.08-.61c-.32.29-1.3-.35-1.66-.43a1.92,1.92,0,0,0-1.58.38,2.23,2.23,0,0,0-.5,3.06,2.88,2.88,0,0,0,3.09,1,4,4,0,0,0,2.51-2.55c.23-.61-.73-.87-1-.27A2.92,2.92,0,0,1,74,52.11,1.77,1.77,0,0,1,71.94,51a1.18,1.18,0,0,1,1.4-1.45c.83.26,1.65.83,2.42.12a.51.51,0,0,0,.08-.61l-5-6.91c-.37-.52-1.24,0-.86.51Z" transform="translate(-0.02)"/>
          <path class="cls-1" d="M80.82,49.25a14.88,14.88,0,0,0-3.15-5.37c-.43-.48-1.14.23-.71.71a13.78,13.78,0,0,1,2.9,4.92c.2.61,1.17.35,1-.26Z" transform="translate(-0.02)"/>
          <path class="cls-1" d="M79.36,44.65A11.59,11.59,0,0,0,82.05,47c.54.37,1.71,1.14,2.22.31a1.49,1.49,0,0,0,.1-1,8.69,8.69,0,0,0-.51-1.74c-.48-1.28-1.06-2.51-1.64-3.73-.28-.58-1.15-.08-.87.5a25.24,25.24,0,0,1,2,4.85,2.74,2.74,0,0,1,0,.28s0,.18,0,.08,0,0,0,.06v.19c0,.15,0-.11,0,0s.07-.12,0,0l.1-.1.1,0s-.08,0,0,0l-.24-.07a3.33,3.33,0,0,1-.61-.35A11,11,0,0,1,80.06,44a.49.49,0,0,0-.7,0,.5.5,0,0,0,0,.7Z" transform="translate(-0.02)"/>
          <path class="cls-1" d="M83.78,37.38c.15,1.68.53,3.71,2.35,4.33a3.47,3.47,0,0,1,1.36.52,1.54,1.54,0,0,1,.52,1,1.5,1.5,0,0,1-1.66,1.51c-.64-.05-.64.95,0,1a2.56,2.56,0,0,0,2.46-1.47,2.5,2.5,0,0,0-.61-2.79c-.78-.72-2-.53-2.65-1.41a5.4,5.4,0,0,1-.77-2.73c0-.64-1.06-.64-1,0Z" transform="translate(-0.02)"/>
        </g>
        <g>
          <path class="cls-1" d="M97.56,42.78a28.06,28.06,0,0,0,0-11.79.5.5,0,0,0-.91-.12l-2.71,4c-.36.54.51,1,.87.51l2.7-4-.91-.12a26.67,26.67,0,0,1-.06,11.25c-.14.63.83.9,1,.27Z" transform="translate(-0.02)"/>
          <path class="cls-1" d="M95.47,44.22a11,11,0,0,1,3.58-2.51.52.52,0,0,0,.35-.61.51.51,0,0,0-.62-.35,12.08,12.08,0,0,0-4,2.76c-.45.46.26,1.17.71.71Z" transform="translate(-0.02)"/>
        </g>
      </g>
      <g>
        <path class="cls-2" d="M151.61,86.66a3.08,3.08,0,0,1-.13-.34,2.1,2.1,0,0,1,.05-.61c.09-.52.18-1,.3-1.55a25.44,25.44,0,0,1,.75-2.72,27.52,27.52,0,0,1,1.14-2.81,8.28,8.28,0,0,1,1.43-2.42c1.38-1.29,2.71,1,3.15,2.05.76,1.88,1.27,3.9,1.89,5.83l2.24,7c.2.61,1.16.35,1-.26l-2.63-8.22-1.29-4a7.59,7.59,0,0,0-1.4-2.65,2.76,2.76,0,0,0-2.15-1.12,2.82,2.82,0,0,0-2.19,1.63,25.35,25.35,0,0,0-2.78,7c-.17.73-.32,1.47-.42,2.22a2.21,2.21,0,0,0,.11,1.39c.41.76,1.72.81,1.92-.13.14-.63-.83-.9-1-.27Z" transform="translate(-0.02)"/>
        <path class="cls-2" d="M156.19,98a95.55,95.55,0,0,1,14.29-12c.52-.36,0-1.23-.51-.86a97,97,0,0,0-14.49,12.19.5.5,0,0,0,.71.7Z" transform="translate(-0.02)"/>
      </g>
      <path class="cls-2" d="M192.9,68.83a1.18,1.18,0,0,1,0-.2l.07.53a2.67,2.67,0,0,1,0-.4l-.07.53a2.66,2.66,0,0,1,.1-.38l-.2.48a1.92,1.92,0,0,1,.27-.46l-.31.4a2.4,2.4,0,0,1,.4-.38l-.41.31a2.73,2.73,0,0,1,.55-.32l-.48.2a2.61,2.61,0,0,1,.61-.16l-.53.07a2.53,2.53,0,0,1,.55,0l-.53-.07a2,2,0,0,1,.4.11l-.48-.21a2.22,2.22,0,0,1,.42.25l-.4-.31a2.24,2.24,0,0,1,.34.35l-.31-.4a2.6,2.6,0,0,1,.28.49l-.2-.48a2.57,2.57,0,0,1,.16.62l-.07-.54a2.89,2.89,0,0,1,0,.72l.07-.53a2.61,2.61,0,0,1-.16.61l.2-.48a2.36,2.36,0,0,1-.29.48l.31-.4a2.06,2.06,0,0,1-.29.3l.4-.31a2.22,2.22,0,0,1-.42.25l.47-.2a2.39,2.39,0,0,1-.54.15l.54-.07a2.29,2.29,0,0,1-.64,0l.53.07a2.45,2.45,0,0,1-.69-.19l.48.21a3.08,3.08,0,0,1-.55-.33l.41.32a2.52,2.52,0,0,1-.4-.4l.31.4a2.22,2.22,0,0,1-.25-.42l.2.48a2.27,2.27,0,0,1-.14-.51l.07.53a2.62,2.62,0,0,1,0-.56l-.07.53a2.69,2.69,0,0,1,.16-.62l-.2.48a2.82,2.82,0,0,1,.37-.63l-.31.4a2.79,2.79,0,0,1,.46-.45l-.4.31a3.5,3.5,0,0,1,.49-.29l-.48.2a2.88,2.88,0,0,1,.64-.17l-.54.08a2.91,2.91,0,0,1,.66,0l-.53-.07a3,3,0,0,1,.72.21l-.48-.21a3.3,3.3,0,0,1,.65.39l-.41-.32a3,3,0,0,1,.53.54l-.31-.41a3,3,0,0,1,.33.58l-.2-.48a2.72,2.72,0,0,1,.13.49l-.07-.53a2.09,2.09,0,0,1,0,.5l.07-.53a2.81,2.81,0,0,1-.08.31l.2-.48a1.12,1.12,0,0,1-.16.28l.31-.4a1.21,1.21,0,0,1-.16.16l.41-.31a1.34,1.34,0,0,1-.23.13l.47-.2-.25.07.53-.07a1.93,1.93,0,0,1-.34,0l.53.07a1.68,1.68,0,0,1-.32-.09l.47.2a1.75,1.75,0,0,1-.29-.18l.4.31a1.7,1.7,0,0,1-.19-.19l.31.41a1.42,1.42,0,0,1-.14-.23l.2.47a1.31,1.31,0,0,1-.09-.28l.08.53a1.15,1.15,0,0,1,0-.32l-.07.53a1.64,1.64,0,0,1,.1-.38l-.2.48a1.51,1.51,0,0,1,.2-.35l-.31.4a1.92,1.92,0,0,1,.28-.29l-.4.31a1.51,1.51,0,0,1,.35-.2l-.48.2a1.58,1.58,0,0,1,.31-.09l-.53.07a1.7,1.7,0,0,1,.39,0l-.53-.07a1.83,1.83,0,0,1,.46.12l-.48-.2a1.87,1.87,0,0,1,.41.25l-.4-.31a1.77,1.77,0,0,1,.33.34l-.31-.4a2.33,2.33,0,0,1,.2.34l-.2-.48a1.78,1.78,0,0,1,.1.38l-.07-.53a1.34,1.34,0,0,1,0,.4l.07-.53a1.58,1.58,0,0,1-.11.37l.21-.48a1.81,1.81,0,0,1-.2.33l.31-.4a2.06,2.06,0,0,1-.33.33L195,69a3.26,3.26,0,0,1-.4.24l.48-.21a1.91,1.91,0,0,1-.45.13l.53-.07a1.61,1.61,0,0,1-.38,0l.53.07a1.54,1.54,0,0,1-.37-.09l.48.2a1.92,1.92,0,0,1-.31-.18l.4.31a1.7,1.7,0,0,1-.3-.3l.31.41a2.38,2.38,0,0,1-.25-.44l.2.48a2.17,2.17,0,0,1-.11-.42l.07.53a1.68,1.68,0,0,1,0-.5l-.08.53a1.91,1.91,0,0,1,.1-.34l-.2.47.09-.19-1.72,1h.07l-.53-.07a.79.79,0,0,1,.22,0l-.47-.2.12.07-.4-.31,0,0-.31-.4a.41.41,0,0,1,.07.11l-.21-.48,0,.07L192.2,69V69l.08-.54,0,0,.2-.47,0,0,.31-.41,0,0,.4-.31,0,0,.48-.21-.09,0,.53-.08a.11.11,0,0,1-.08,0l.53.07h0l.48.2h0l.4.31,0,0,.31.4v0l.27,1v0l-.07.53v0a2,2,0,0,0-3.86-1.07,2.12,2.12,0,0,0,1.46,2.61,2.34,2.34,0,0,0,2.23-.57,2.22,2.22,0,0,0,.27-2.72,2.68,2.68,0,0,0-2.2-1.17,2,2,0,0,0-1.73,1A3.7,3.7,0,0,0,195,73.08a3.8,3.8,0,0,0,3.2-1.86,3.36,3.36,0,0,0,.48-1.91,4,4,0,0,0-.9-2.18,3.68,3.68,0,0,0-3.54-1.22,3.51,3.51,0,0,0-2.64,2.68,3.1,3.1,0,0,0,1.87,3.6A3.07,3.07,0,0,0,197.32,71a3.8,3.8,0,0,0-.09-3.83A5.06,5.06,0,0,0,194.52,65a4.52,4.52,0,0,0-3.51.27,4.62,4.62,0,0,0-2.18,2.63,4,4,0,0,0,.36,3.37,4.49,4.49,0,0,0,2.53,1.91,4.32,4.32,0,0,0,3.23-.31,4,4,0,0,0,1.94-2.49A4.1,4.1,0,1,0,189,68.07a3.78,3.78,0,0,0,0,1.83,2,2,0,0,0,3.86-1.07Z" transform="translate(-0.02)"/>
    </g>
  </g>
</svg>
