<svg xmlns="http://www.w3.org/2000/svg" viewBox="0 0 236.79 210.94">
  <defs>
    <style>
      .cls-1 {
        fill: #808285;
      }

      .cls-2 {
        fill: #231f20;
      }

      .cls-3 {
        fill: #ed1c24;
      }

      .cls-4 {
        fill: #00aeef;
      }
    </style>
  </defs>
  <title>interchange-identities-3</title>
  <g id="Layer_2" data-name="Layer 2">
    <g id="Layer_1-2" data-name="Layer 1">
      <g>
        <path class="cls-1" d="M109,32.79a70.6,70.6,0,0,1,28.68,6.8,110.83,110.83,0,0,1,19.06,11.69A94.83,94.83,0,0,1,175.6,70a86.7,86.7,0,0,1,8.89,14.56,69.69,69.69,0,0,1,6.91,31,74.69,74.69,0,0,1-5.16,26.16,69.79,69.79,0,0,1-6.7,13.07,80,80,0,0,1-17.68,19.12,76,76,0,0,1-23.58,12.29,93.25,93.25,0,0,1-54.13.67,84,84,0,0,1-24.47-11.64,75.84,75.84,0,0,1-19.3-19.63A83,83,0,0,1,28.52,129,76.83,76.83,0,0,1,27,99a71.48,71.48,0,0,1,9.92-27.06,74.84,74.84,0,0,1,15.89-18A91.6,91.6,0,0,1,69.85,42.85,101.7,101.7,0,0,1,83.4,37.19a84.25,84.25,0,0,1,17.09-3.94,67.06,67.06,0,0,1,8.5-.46,1,1,0,0,0,0-2A76,76,0,0,0,86.82,34,104.33,104.33,0,0,0,59.68,46.39a83.62,83.62,0,0,0-17.44,15A73,73,0,0,0,28.7,84.2a75.41,75.41,0,0,0-4.36,31,84,84,0,0,0,7.52,29.27,81.48,81.48,0,0,0,16.41,23.74A80.32,80.32,0,0,0,71.05,184a91.77,91.77,0,0,0,26.81,7.69,95.78,95.78,0,0,0,27.93-.49,85.73,85.73,0,0,0,27-9,79.3,79.3,0,0,0,20.91-16.64,76.51,76.51,0,0,0,11.1-15.86,77.85,77.85,0,0,0,7-19.68,73,73,0,0,0-.43-32.26,78.9,78.9,0,0,0-10.62-23.88,89.59,89.59,0,0,0-11.26-14.06,113,113,0,0,0-21.14-16.65A82.37,82.37,0,0,0,124.53,32.8a70.19,70.19,0,0,0-15.54-2A1,1,0,0,0,109,32.79Z" transform="translate(-0.01)"/>
        <g>
          <g>
            <path class="cls-2" d="M106.31,19.43l4.19-7.59h-1.73a40.21,40.21,0,0,0,5.61,7.66c.88.94,2.29-.48,1.42-1.42a36.89,36.89,0,0,1-5.3-7.24,1,1,0,0,0-1.73,0l-4.19,7.58c-.62,1.12,1.11,2.13,1.73,1Z" transform="translate(-0.01)"/>
            <path class="cls-2" d="M102.08,203.07l2.67,4.79c.64,1.16,1.6,3.83,3.41,2.88a11.54,11.54,0,0,0,2-1.67l2-1.74c.67-.59,1.36-1.18,2-1.78a5.52,5.52,0,0,0,1.43-1.76,1,1,0,1,0-1.73-1c-.53,1.14-1.79,1.95-2.72,2.76l-3.36,3a2.43,2.43,0,0,0-.34.3c-.25.14-.23.2,0,.17s.25.07.19,0a5.62,5.62,0,0,0-.5-.88l-1.07-1.93-2.27-4.08c-.63-1.13-2.36-.12-1.73,1Z" transform="translate(-0.01)"/>
            <path class="cls-2" d="M109,13q.58,38.22.38,76.43-.21,38-1.2,76-.57,21.45-1.38,42.88c0,1.28,2,1.28,2,0q1.45-38.19,2.1-76.41.65-38,.51-76Q111.29,34.46,111,13a1,1,0,0,0-2,0Z" transform="translate(-0.01)"/>
          </g>
          <g>
            <path class="cls-2" d="M2.08,111.69c20.67,1,41.35.92,62,.15,10-.37,19.89-.5,29.86-.28q22.32.5,44.66.65c6.27,0,12.54,0,18.81,0q27.8,0,55.6.14l7.31,0a1,1,0,0,0,0-2q-29.39-.1-58.77-.16c-7,0-14,0-21,0q-21.46-.1-42.92-.57c-9.14-.21-18.25-.31-27.39,0-9.52.3-19,.71-28.55.8q-16.92.15-33.84-.5-2.91-.11-5.82-.24c-1.29-.06-1.29,1.94,0,2Z" transform="translate(-0.01)"/>
            <path class="cls-2" d="M213.79,107.93a18.45,18.45,0,0,1,4.35,2.23,17.84,17.84,0,0,1,1.8,1.45c.08.07.78.82.82.81.09-.34.07-.43,0-.27l-.13.12-.44.36c-2.14,1.71-4.76,3.07-5.58,5.88a1,1,0,0,0,1.93.53,6.49,6.49,0,0,1,2.63-3.18c.63-.47,1.27-.92,1.9-1.4s1.46-1,1.66-1.84c.24-1-.54-1.69-1.18-2.29a19.57,19.57,0,0,0-2.19-1.78,19.93,19.93,0,0,0-5-2.55c-1.21-.43-1.74,1.5-.53,1.93Z" transform="translate(-0.01)"/>
            <path class="cls-2" d="M9,102.22q-2.34,1.68-4.52,3.55c-.72.61-1.42,1.25-2.11,1.91a12.27,12.27,0,0,0-1.9,2,1.91,1.91,0,0,0,0,2.39,3.21,3.21,0,0,0,1.08.65l1.49.68,5.51,2.55a1,1,0,0,0,1.37-.36,1,1,0,0,0-.36-1.37l-4.67-2.15L2.54,111c-.12,0-.39-.25-.51-.23s-.14,0,0,.19a.2.2,0,0,1,0-.08c.07,0,.12-.18.18-.26a5.66,5.66,0,0,1,.42-.43A58.7,58.7,0,0,1,10,104a1,1,0,0,0-1-1.73Z" transform="translate(-0.01)"/>
          </g>
        </g>
        <path class="cls-2" d="M227.37,107.36a27.11,27.11,0,0,0,7.49,10.49c.49.42,1.2-.29.71-.71a26.11,26.11,0,0,1-7.24-10c-.24-.59-1.2-.33-1,.26Z" transform="translate(-0.01)"/>
      </g>
      <g>
        <path class="cls-2" d="M105.12,39.39a49.34,49.34,0,0,0,10.66-.14c.64-.08.64-1.08,0-1a49.34,49.34,0,0,1-10.66.14c-.64-.06-.63.94,0,1Z" transform="translate(-0.01)"/>
        <g>
          <path class="cls-2" d="M121.28,51.85a4.72,4.72,0,0,0-3.33.8,1.65,1.65,0,0,0-.19,2.56c.86.82,2.1.75,3.09,1.3a1.36,1.36,0,0,1,.79,1.14,1.79,1.79,0,0,1-.7,1.39A5.31,5.31,0,0,1,117,60c-.63-.08-.63.92,0,1,2,.23,5.25-.5,5.6-2.94a2.37,2.37,0,0,0-1.47-2.49,13.2,13.2,0,0,0-1.75-.56c-.4-.12-1-.34-1.15-.79s.49-.91.9-1.08a4.45,4.45,0,0,1,2.14-.26c.63.07.63-.93,0-1Z" transform="translate(-0.01)"/>
          <path class="cls-2" d="M124.44,60.44a25.4,25.4,0,0,0,.59-3.78.5.5,0,0,0-1,0,22.23,22.23,0,0,1-.56,3.52.51.51,0,0,0,.35.61.51.51,0,0,0,.62-.35Z" transform="translate(-0.01)"/>
          <path class="cls-2" d="M125.66,57.74l-.53,2.86A.5.5,0,0,0,126,61c.27-.63.43-1.29.65-1.94a3.07,3.07,0,0,1,.8-1.37l.11-.09.09-.06a.28.28,0,0,1-.3-.06s0,0,0,0,0,0,0,0a1.41,1.41,0,0,1,.06.22,4.58,4.58,0,0,1,.09.9,5.52,5.52,0,0,1-.28,1.89.49.49,0,0,0,.34.61.51.51,0,0,0,.62-.35,6.09,6.09,0,0,0,.32-1.85,5.43,5.43,0,0,0,0-.9,3,3,0,0,0-.21-.95.74.74,0,0,0-.8-.46,1.58,1.58,0,0,0-.79.5,4.26,4.26,0,0,0-.87,1.48c-.24.63-.37,1.31-.63,1.94l.91.38.53-2.85a.52.52,0,0,0-.35-.62.51.51,0,0,0-.61.35Z" transform="translate(-0.01)"/>
          <g>
            <path class="cls-2" d="M136.76,52.6c-2-.57-2.85,1.83-3.29,3.27a10.64,10.64,0,0,0-.48,2.86,3.56,3.56,0,0,0,.58,2.21,1.9,1.9,0,0,0,2,.68,4,4,0,0,0,2-1.51,7.81,7.81,0,0,0,1.76-4.94,3.1,3.1,0,0,0-3.61-2.94c-.63.1-.36,1.07.27,1A2.07,2.07,0,0,1,138.36,55a6.27,6.27,0,0,1-1,3.82c-.45.74-1.79,2.61-2.84,1.72a1.92,1.92,0,0,1-.5-1.38,7.78,7.78,0,0,1,.22-2.15,10.89,10.89,0,0,1,.76-2.3c.27-.58.77-1.31,1.52-1.1a.5.5,0,0,0,.26-1Z" transform="translate(-0.01)"/>
            <path class="cls-2" d="M134.38,58.64a9.42,9.42,0,0,1,4.48-1.12.5.5,0,0,0,0-1,10.58,10.58,0,0,0-5,1.25c-.56.31-.06,1.17.51.87Z" transform="translate(-0.01)"/>
            <path class="cls-2" d="M141.09,57a9.33,9.33,0,0,1,3.45-.82.51.51,0,0,0,.5-.5.5.5,0,0,0-.5-.5,10.42,10.42,0,0,0-3.95,1,.5.5,0,1,0,.5.86Z" transform="translate(-0.01)"/>
            <path class="cls-2" d="M142.15,53.35l0,2.83a3.92,3.92,0,0,0,.38,2.39.5.5,0,0,0,.68.18.49.49,0,0,0,.18-.68,1.38,1.38,0,0,1-.24-.84c0-.41,0-.83,0-1.25V53.35a.5.5,0,0,0-1,0Z" transform="translate(-0.01)"/>
            <path class="cls-2" d="M146.67,52.23v1.69c0,.31-.06.7.2.93a.6.6,0,0,0,.69.08.56.56,0,0,0,.28-.64.51.51,0,0,0-.62-.35.52.52,0,0,0-.35.62v-.25c.52-.28.78-.26.79,0V52.23a.5.5,0,0,0-.5-.5.51.51,0,0,0-.5.5Z" transform="translate(-0.01)"/>
            <path class="cls-2" d="M148.46,52.58V54a2,2,0,0,0,0,.42.58.58,0,0,0,.48.44.55.55,0,0,0,.59-.4.53.53,0,0,0-.37-.66.5.5,0,0,0-.26,1h0l-.22-.13h0l-.13-.22.3-.55h.27a.42.42,0,0,1,.3.37v-1.7a.5.5,0,0,0-1,0Z" transform="translate(-0.01)"/>
            <path class="cls-2" d="M145.84,53.07c.45-.87,1.7-.6,2.47-.49a2.9,2.9,0,0,0,2.78-.73.5.5,0,1,0-.71-.71c-.65.83-1.89.44-2.77.34A2.54,2.54,0,0,0,145,52.56c-.3.57.56,1.08.86.51Z" transform="translate(-0.01)"/>
            <path class="cls-2" d="M145.87,56.9a4.94,4.94,0,0,0,2.31-.29,9,9,0,0,1,2.25-.28.5.5,0,0,0,0-1,10.27,10.27,0,0,0-2.27.26,5.09,5.09,0,0,1-2,.35.5.5,0,0,0-.61.35.49.49,0,0,0,.35.61Z" transform="translate(-0.01)"/>
            <path class="cls-2" d="M147.34,58a2.88,2.88,0,0,1,.7-.1,1,1,0,0,1,.31,0s.17.06.08,0l.12.06s.12.09,0,0l.1.09c0,.05,0,.05,0,0a.1.1,0,0,1,0,0l0,.06h0s0,.15,0,0,0,.16,0,.09a.49.49,0,0,1-.05.16l0,.11c-.06.09-.12.19-.19.28l0,.06-.1.12a4,4,0,0,1-.46.46l-.12.1-.06,0a2.9,2.9,0,0,1-.29.19l-.26.15-.14.06h0l-.09,0a.5.5,0,0,0-.36.55.5.5,0,0,0,.49.43,10.2,10.2,0,0,0,3.07-.15.5.5,0,0,0-.26-1,9.42,9.42,0,0,1-2.81.11l.13,1a4.61,4.61,0,0,0,1.5-.91,3.77,3.77,0,0,0,1-1.43,1.36,1.36,0,0,0-.66-1.63,2.76,2.76,0,0,0-2-.12.5.5,0,0,0-.35.62.52.52,0,0,0,.62.35Z" transform="translate(-0.01)"/>
          </g>
          <path class="cls-2" d="M151.53,50a10.85,10.85,0,0,1,1.54,12.73.5.5,0,0,0,.87.51,11.9,11.9,0,0,0-1.7-14c-.45-.46-1.16.25-.71.71Z" transform="translate(-0.01)"/>
          <path class="cls-2" d="M134.56,49a18.08,18.08,0,0,0-4.21,7.76c-.68,2.69-.88,6.23,1.86,7.86.55.33,1-.54.5-.87-2.5-1.48-1.92-5-1.24-7.33a16.92,16.92,0,0,1,3.8-6.71c.43-.48-.27-1.19-.71-.71Z" transform="translate(-0.01)"/>
        </g>
        <path class="cls-2" d="M121.68,35.3c-.93.68-1.86,1.37-2.76,2.09-.47.37-1.19.83-1.36,1.45s.57,1.28,1,1.75l2.24,2.47c.43.48,1.14-.23.7-.71-.68-.75-1.36-1.51-2.05-2.26-.2-.22-.4-.44-.61-.65s-.33-.27-.3-.39.3-.31.4-.4.49-.41.75-.61c.81-.65,1.65-1.26,2.49-1.88.52-.37,0-1.24-.51-.86Z" transform="translate(-0.01)"/>
        <path class="cls-2" d="M119.12,39.43a11,11,0,0,1,7,2.23c2,1.63,1.93,4.12,1.8,6.46,0,.64,1,.64,1,0,.14-2.6.08-5.36-2.1-7.16a12,12,0,0,0-7.73-2.53.5.5,0,0,0,0,1Z" transform="translate(-0.01)"/>
      </g>
      <path class="cls-2" d="M122.8,103.55l-5.44-10.88a1,1,0,0,0-1.13-.46c-4.35,1.79-9,2.72-13.52,3.93a1,1,0,0,0,.53,1.93c4.53-1.22,9.17-2.14,13.52-3.93l-1.13-.46q2.72,5.43,5.44,10.88c.58,1.15,2.31.14,1.73-1Z" transform="translate(-0.01)"/>
      <g>
        <path class="cls-3" d="M138.64,100.05a3.54,3.54,0,0,1,4.08,3c.33,2.28-1.26,4.53-3.14,5.65a1,1,0,0,0,1,1.72c2.71-1.61,4.68-4.82,4-8A5.48,5.48,0,0,0,142.39,99a5.86,5.86,0,0,0-4.28-.86,1,1,0,0,0-.7,1.23,1,1,0,0,0,1.23.7Z" transform="translate(-0.01)"/>
        <path class="cls-3" d="M199.05,115.62l8.17-6.3a1,1,0,0,0,0-1.72q-4.6-2.52-9.05-5.27c-1.1-.68-2.1,1-1,1.72q4.46,2.76,9.05,5.27V107.6L198,113.9a1,1,0,0,0-.35,1.36,1,1,0,0,0,1.36.36Z" transform="translate(-0.01)"/>
        <g>
          <path class="cls-3" d="M111.09,108.48l33.22-11.34,18.52-6.32c12.73-4.34,25.49-8.7,37.83-14.06" transform="translate(-0.01)"/>
          <path class="cls-3" d="M111.36,109.45l35.56-12.14c11.68-4,23.41-7.87,35-12.09,6.48-2.36,12.91-4.85,19.23-7.59a1,1,0,0,0,.36-1.37,1,1,0,0,0-1.37-.36C189,80.74,177.51,84.75,166,88.68l-35.29,12-19.91,6.8c-1.21.41-.69,2.34.54,1.93Z" transform="translate(-0.01)"/>
        </g>
        <path class="cls-3" d="M197,85.13l6-8.41a1,1,0,0,0-.6-1.47q-5.13-1.05-10.19-2.39a1,1,0,0,0-.53,1.93q5.06,1.33,10.19,2.39l-.6-1.47-6,8.41a1,1,0,1,0,1.72,1Z" transform="translate(-0.01)"/>
        <path class="cls-3" d="M111,110.31q18.06.18,36.13.09,18.27-.11,36.53-.5,10-.23,20.08-.52c1.28,0,1.29-2,0-2q-18,.54-36,.81-18.3.27-36.58.24-10.08,0-20.14-.12a1,1,0,0,0,0,2Z" transform="translate(-0.01)"/>
        <g>
          <path class="cls-3" d="M149.39,98.72c-.88,2-1.82,4.17-1.14,6.34a4.06,4.06,0,0,0,4.17,3.12c2-.23,3.47-1.94,4.2-3.72.82-2,.78-4.33-.92-5.85a4.52,4.52,0,0,0-6.17.16c-.92.9.49,2.31,1.41,1.41a2.5,2.5,0,0,1,3.22-.27c1.15.85,1.16,2.28.69,3.61a4.14,4.14,0,0,1-2.35,2.63,1.64,1.64,0,0,1-1.4-.25,2.75,2.75,0,0,1-.87-1.2c-.58-1.62.19-3.41.89-5a1,1,0,0,0-.36-1.36,1,1,0,0,0-1.37.35Z" transform="translate(-0.01)"/>
          <path class="cls-3" d="M150.45,104.48l3.15-1.89c.5-.3,1-.63,1.52-.89a.53.53,0,0,1,.27-.09h0c.12,0,.11,0,0,0,.11,0,.11,0,0,0,.09.06.09.06,0,0s-.07-.11,0,0c-.05-.12-.06-.12,0,0a1,1,0,0,0,1.23.69,1,1,0,0,0,.7-1.23,1.82,1.82,0,0,0-1.68-1.38,3.7,3.7,0,0,0-2.17.79l-3.9,2.33a1,1,0,1,0,1,1.73Z" transform="translate(-0.01)"/>
        </g>
        <path class="cls-3" d="M184.78,81.9a1,1,0,0,1,0-.17l.07.53a1.22,1.22,0,0,1,0-.33l-.08.53a1.68,1.68,0,0,1,.09-.32l-.2.48a1.9,1.9,0,0,1,.23-.39l-.32.41a2,2,0,0,1,.33-.32l-.4.31a1.92,1.92,0,0,1,.46-.27l-.48.2a2.73,2.73,0,0,1,.51-.14l-.53.07a2.37,2.37,0,0,1,.46,0l-.53-.08a2,2,0,0,1,.33.09l-.48-.2a2.12,2.12,0,0,1,.36.21l-.41-.31a1.59,1.59,0,0,1,.29.29l-.31-.4a2.06,2.06,0,0,1,.23.41l-.2-.48a2.35,2.35,0,0,1,.14.52l-.07-.54a3,3,0,0,1,0,.6l.07-.53a2.13,2.13,0,0,1-.14.51l.2-.48a1.69,1.69,0,0,1-.24.41l.31-.41a1,1,0,0,1-.25.25l.41-.31a1.65,1.65,0,0,1-.36.22l.48-.2a1.76,1.76,0,0,1-.45.12l.53-.07a2.35,2.35,0,0,1-.53,0l.53.07a2.19,2.19,0,0,1-.57-.16l.47.21a3.14,3.14,0,0,1-.46-.28l.41.32a2.13,2.13,0,0,1-.34-.33l.32.4a1.8,1.8,0,0,1-.21-.35l.2.48a1.62,1.62,0,0,1-.12-.43l.07.53a1.85,1.85,0,0,1,0-.47l-.07.53a1.91,1.91,0,0,1,.14-.52l-.2.48a2.37,2.37,0,0,1,.31-.53l-.32.41a2.79,2.79,0,0,1,.39-.38l-.4.31a2.75,2.75,0,0,1,.41-.24l-.48.2a2,2,0,0,1,.53-.14l-.53.07a2,2,0,0,1,.55,0l-.53-.07a2.43,2.43,0,0,1,.6.17l-.48-.21a3.65,3.65,0,0,1,.54.32l-.4-.31a2.68,2.68,0,0,1,.44.45l-.31-.41a2.12,2.12,0,0,1,.27.49l-.2-.48a2.77,2.77,0,0,1,.12.41l-.08-.53a2,2,0,0,1,0,.42L185,82a2,2,0,0,1-.07.26l.2-.47A1.34,1.34,0,0,1,185,82l.31-.41a.86.86,0,0,1-.13.14l.4-.31a.72.72,0,0,1-.19.11l.48-.2a1.41,1.41,0,0,1-.22.06l.53-.08a1.31,1.31,0,0,1-.28,0l.54.07a1.29,1.29,0,0,1-.28-.08l.48.2a1.28,1.28,0,0,1-.25-.15l.4.32c-.05,0-.11-.1-.16-.16l.31.4-.12-.19.21.48a.73.73,0,0,1-.07-.24l.07.53a2.44,2.44,0,0,1,0-.27l-.07.53a1.87,1.87,0,0,1,.08-.32l-.2.48a2.75,2.75,0,0,1,.17-.29l-.31.4a1.36,1.36,0,0,1,.24-.24l-.41.31a1.78,1.78,0,0,1,.3-.17l-.48.2a1.11,1.11,0,0,1,.26-.07l-.53.07a1.22,1.22,0,0,1,.33,0l-.53-.07a1.78,1.78,0,0,1,.38.1l-.48-.2a2,2,0,0,1,.35.21l-.41-.31a1.48,1.48,0,0,1,.28.28l-.31-.4a1.35,1.35,0,0,1,.16.29l-.2-.48a1.68,1.68,0,0,1,.09.32l-.07-.53a1.82,1.82,0,0,1,0,.33l.07-.53a2.12,2.12,0,0,1-.09.31l.2-.48a1.56,1.56,0,0,1-.16.28l.31-.41a1.79,1.79,0,0,1-.27.28l.4-.31a2.33,2.33,0,0,1-.34.2l.48-.2a1.56,1.56,0,0,1-.37.1l.53-.07a1.71,1.71,0,0,1-.32,0l.53.07a1.09,1.09,0,0,1-.31-.08l.48.2-.26-.14.41.31a2.06,2.06,0,0,1-.26-.25l.31.4a1.88,1.88,0,0,1-.21-.37l.21.48a1.4,1.4,0,0,1-.1-.35l.07.53a1.48,1.48,0,0,1,0-.42l-.07.54a1,1,0,0,1,.08-.29l-.21.48.09-.17-1.73,1h.06l-.53-.07.19,0-.48-.2.11.06-.41-.31,0,0-.31-.41a.21.21,0,0,1,.06.1l-.2-.48v.06l-.07-.54v0l.07-.53,0,0,.21-.47,0,0,.32-.4,0,0,.4-.31h0l.48-.2-.07,0,.53-.07h-.07l.53.07h0l.47.2h0l.4.31,0,0,.31.4v0l.27,1v0l-.07.53v0a2,2,0,0,0-1.39-2.46,2,2,0,0,0-2.46,1.39,2.1,2.1,0,0,0,1.44,2.59,2.31,2.31,0,0,0,2.19-.56,2.2,2.2,0,0,0,.28-2.68,2.61,2.61,0,0,0-2.13-1.14,2,2,0,0,0-1.73,1,3.5,3.5,0,0,0,0,3.34,3.25,3.25,0,0,0,1.18,1.26,3.07,3.07,0,0,0,1.69.48,3.54,3.54,0,0,0,3-1.72,3,3,0,0,0,.44-1.76,2.91,2.91,0,0,0-.16-.88,3.7,3.7,0,0,0-.68-1.17,3.11,3.11,0,0,0-1.27-.91,3.33,3.33,0,0,0-2-.2,3.27,3.27,0,0,0-2.43,2.47,3.07,3.07,0,0,0,.32,2.18,3.11,3.11,0,0,0,1.44,1.22,2.89,2.89,0,0,0,3.63-1.1,3.49,3.49,0,0,0-.07-3.53,4.59,4.59,0,0,0-2.47-2,1.91,1.91,0,0,0-.47-.12,4,4,0,0,0-4.69,2.77,3.71,3.71,0,0,0,.33,3.07A4.08,4.08,0,0,0,183.39,86a3.93,3.93,0,0,0,3-.29,3.63,3.63,0,0,0,1.77-2.28,3.76,3.76,0,1,0-7.2-2.14,3.53,3.53,0,0,0,0,1.71,2,2,0,0,0,3.86-1.07Z" transform="translate(-0.01)"/>
      </g>
      <g>
        <path class="cls-4" d="M75.36,22.67Q81.74,42.3,88.21,61.9,90.6,69.18,93,76.47c1.5,4.65,3.12,9.25,5,13.75a128,128,0,0,0,9.72,18.51c.33.52.66,1,1,1.55a4.23,4.23,0,0,0,.51.74c.43.44,1.14.28,1.69.27,1.87-.06,3.74-.1,5.62-.13q4.77-.09,9.54-.1c6.36,0,12.73.06,19.09.33,4.61.19,9.2.56,13.8.71,10.71.33,21.45.09,32.16-.15l5.52-.13c1.29,0,1.29-2,0-2-11.79.31-23.61.57-35.41.34-3.64-.08-7.27-.28-10.91-.51-6.37-.4-12.76-.55-19.15-.58-7.08,0-14.17,0-21.25.24l.87.5A133.21,133.21,0,0,1,95.34,77.33Q90.23,61.56,85,45.84,81.15,34,77.29,22.14c-.4-1.22-2.33-.7-1.93.53Z" transform="translate(-0.01)"/>
        <path class="cls-4" d="M189.57,105.32c1.1,1,2.22,1.86,3.36,2.75.56.43,1.12.86,1.69,1.27l.86.62c.09.06.56.33.56.47a5.69,5.69,0,0,1-.52.65l-.66.89-1.32,1.78-2.8,3.76a1,1,0,0,0,.35,1.37,1,1,0,0,0,1.37-.36l3.1-4.16,1.54-2.07a2.91,2.91,0,0,0,.89-2.22,2.61,2.61,0,0,0-1.16-1.6c-.65-.48-1.31-.93-2-1.41-1.34-1-2.63-2.06-3.9-3.15-1-.84-2.39.57-1.41,1.41Z" transform="translate(-0.01)"/>
        <path class="cls-4" d="M72.86,34.58c.65-2,1.26-4.06,1.83-6.11s1-4.24,1.66-6.3a3.63,3.63,0,0,0,.22-.5q-.85-.06-.51.21l.21.22c.38.42.74.86,1.1,1.29l2.17,2.55L84,31.12c.83,1,2.24-.44,1.41-1.41l-5-5.85c-.85-1-1.7-2-2.57-3-.69-.78-1.77-1.45-2.68-.54a6.14,6.14,0,0,0-1.14,3c-.31,1.21-.62,2.42-1,3.62-.66,2.4-1.36,4.78-2.12,7.15-.4,1.22,1.53,1.75,1.93.53Z" transform="translate(-0.01)"/>
        <g>
          <path class="cls-4" d="M121.68,73.52c-1.72-1.67-4,.36-5.19,1.61a12.53,12.53,0,0,0-2,2.61,4.41,4.41,0,0,0-.74,2.9,2.21,2.21,0,0,0,1.85,1.78,4.86,4.86,0,0,0,2.78-.48,9.55,9.55,0,0,0,4.56-4.09,3.69,3.69,0,0,0,.2-3.22,3.62,3.62,0,0,0-2.22-2c-.61-.2-.88.76-.27,1a2.63,2.63,0,0,1,1.55,3.54,8,8,0,0,1-3.4,3.52c-.94.54-3.18,1.6-3.93.23a2.48,2.48,0,0,1,.28-2.22,11,11,0,0,1,1.43-2.1,14.5,14.5,0,0,1,2.09-2c.64-.49,1.65-1,2.34-.31.46.45,1.17-.26.7-.71Z" transform="translate(-0.01)"/>
          <path class="cls-4" d="M115.75,78.49a11.64,11.64,0,0,1,5.52,1.32c.56.3,1.07-.57.5-.87a12.74,12.74,0,0,0-6-1.45.5.5,0,0,0,0,1Z" transform="translate(-0.01)"/>
          <path class="cls-4" d="M123.9,80.52a11.25,11.25,0,0,1,4.24,1,.5.5,0,1,0,.51-.86,12.64,12.64,0,0,0-4.75-1.18.5.5,0,0,0-.5.5.51.51,0,0,0,.5.5Z" transform="translate(-0.01)"/>
          <path class="cls-4" d="M127.24,77.3l-1.55,2.93a4.86,4.86,0,0,0-1,3,.51.51,0,0,0,.61.35.52.52,0,0,0,.35-.62,2,2,0,0,1,.36-1.21c.22-.43.45-.86.68-1.29l1.4-2.63c.3-.57-.57-1.07-.87-.51Z" transform="translate(-0.01)"/>
          <path class="cls-4" d="M132.75,78.63l-.93,1.76c-.17.33-.46.71-.34,1.1a.6.6,0,0,0,.58.42.58.58,0,0,0,.56-.42.5.5,0,1,0-1-.27q.57-.68.78.15h0l.06-.13.16-.3.32-.6.63-1.2a.5.5,0,0,0-.86-.51Z" transform="translate(-0.01)"/>
          <path class="cls-4" d="M134.48,80l-.79,1.49c-.07.13-.14.26-.2.4a.63.63,0,0,0,.1.7.56.56,0,0,0,.78,0,.53.53,0,0,0,0-.77.49.49,0,1,0-.7.7v0l-.13-.22h0v-.27l.53-.3.22.13c0,.38.07.5.11.35,0,.08,0,.09,0,0a.47.47,0,0,0,.05-.1l.13-.24.25-.47.5-1a.5.5,0,0,0-.86-.5Z" transform="translate(-0.01)"/>
          <path class="cls-4" d="M131.2,79c1-.71,2.2.24,3,.82a3.47,3.47,0,0,0,3.46.75.5.5,0,0,0,.18-.69.52.52,0,0,0-.68-.18c-1.14.51-2.34-.7-3.2-1.26a3,3,0,0,0-3.28-.31c-.53.37,0,1.23.5.87Z" transform="translate(-0.01)"/>
          <path class="cls-4" d="M129.2,83.1a5.47,5.47,0,0,0,2.45.93,10.89,10.89,0,0,1,2.76,1c.57.29,1.08-.57.51-.87a12.2,12.2,0,0,0-2.73-1,5.57,5.57,0,0,1-2.28-.74.52.52,0,0,0-.71,0,.5.5,0,0,0,0,.71Z" transform="translate(-0.01)"/>
          <path class="cls-4" d="M130.13,85a2.75,2.75,0,0,1,1.31.62.63.63,0,0,1,0,.95,3.88,3.88,0,0,1-1.39.62,4.8,4.8,0,0,1-1.69.11.49.49,0,0,0-.48.36.52.52,0,0,0,.23.57,12.24,12.24,0,0,0,3.36,1.56.5.5,0,0,0,.27-1,11,11,0,0,1-3.13-1.46l-.25.94a5.64,5.64,0,0,0,2.2-.22A3.54,3.54,0,0,0,132.39,87a1.62,1.62,0,0,0-.18-2,3.49,3.49,0,0,0-1.81-1,.5.5,0,0,0-.27,1Z" transform="translate(-0.01)"/>
        </g>
        <path class="cls-4" d="M133.51,108.72c-.65-6.66-2.7-13.33-7.12-18.48-4.06-4.73-10.39-7.95-16.71-7.39-4,.36-7.61,2.13-11,4.22-1.09.68-.09,2.41,1,1.72a25.48,25.48,0,0,1,9-3.82,16,16,0,0,1,8.46,1c5.56,2.19,9.64,7,11.86,12.44a36.26,36.26,0,0,1,2.45,10.26,1,1,0,0,0,1,1,1,1,0,0,0,1-1Z" transform="translate(-0.01)"/>
        <path class="cls-4" d="M81,37.4a1.36,1.36,0,0,1,0-.17l.07.53a1.93,1.93,0,0,1,0-.34l-.07.53a1.58,1.58,0,0,1,.09-.31l-.2.47a1.48,1.48,0,0,1,.23-.38l-.32.4a2.5,2.5,0,0,1,.33-.32l-.4.31a2.28,2.28,0,0,1,.46-.26l-.48.2a2.13,2.13,0,0,1,.51-.14l-.54.07a1.85,1.85,0,0,1,.47,0l-.54-.07a1.89,1.89,0,0,1,.34.09l-.48-.2a1.31,1.31,0,0,1,.36.21l-.41-.31a1.59,1.59,0,0,1,.29.29l-.31-.41a2.38,2.38,0,0,1,.23.41l-.2-.48a2.35,2.35,0,0,1,.14.52l-.07-.53a3,3,0,0,1,0,.6l.07-.54a2.35,2.35,0,0,1-.14.52l.2-.48a2,2,0,0,1-.24.4l.31-.4a1.48,1.48,0,0,1-.25.25l.41-.31a2.12,2.12,0,0,1-.36.21l.48-.2a2.54,2.54,0,0,1-.45.13l.53-.07a2.35,2.35,0,0,1-.53,0l.53.07a2.19,2.19,0,0,1-.57-.16l.47.2a2.4,2.4,0,0,1-.46-.27l.41.31a1.77,1.77,0,0,1-.34-.33l.32.41a1.47,1.47,0,0,1-.21-.36l.2.48a1.66,1.66,0,0,1-.12-.42l.07.53a1.85,1.85,0,0,1,0-.47l-.07.53a1.91,1.91,0,0,1,.14-.52l-.21.48a3.07,3.07,0,0,1,.31-.53l-.31.4a3.5,3.5,0,0,1,.39-.38l-.4.32a1.69,1.69,0,0,1,.41-.24l-.48.2a2.46,2.46,0,0,1,.53-.15l-.53.08a2.53,2.53,0,0,1,.55,0l-.53-.07a2.56,2.56,0,0,1,.6.17l-.48-.2a3,3,0,0,1,.54.32l-.4-.31a3.05,3.05,0,0,1,.44.44l-.31-.4a2.27,2.27,0,0,1,.27.48l-.2-.48a2.08,2.08,0,0,1,.11.41L81,37.63a2,2,0,0,1,0,.42l.07-.53a2.5,2.5,0,0,1-.07.26l.2-.48a.86.86,0,0,1-.13.23l.31-.4-.13.14.4-.31a1.18,1.18,0,0,1-.19.11l.48-.2-.22.05.53-.07H82l.53.07-.27-.08.48.2a1.28,1.28,0,0,1-.25-.15l.4.31a1.21,1.21,0,0,1-.16-.16l.31.41-.12-.2.2.48a1.68,1.68,0,0,1-.07-.24l.08.53a1.13,1.13,0,0,1,0-.26l-.07.53a1.67,1.67,0,0,1,.08-.32l-.2.48a1.78,1.78,0,0,1,.17-.3l-.31.41a1.36,1.36,0,0,1,.24-.24l-.41.31a1.22,1.22,0,0,1,.29-.17l-.47.2a1.12,1.12,0,0,1,.26-.08l-.53.07h.33L82,38.57a1.74,1.74,0,0,1,.39.11l-.48-.2a1.75,1.75,0,0,1,.35.2l-.41-.31a1.53,1.53,0,0,1,.28.29l-.31-.41a2.09,2.09,0,0,1,.16.29l-.2-.47a1.58,1.58,0,0,1,.09.31l-.07-.53a1.82,1.82,0,0,1,0,.33l.07-.53a1.58,1.58,0,0,1-.09.31l.2-.48a2.54,2.54,0,0,1-.16.28l.31-.4a1.44,1.44,0,0,1-.28.27l.41-.31a1.68,1.68,0,0,1-.34.2l.48-.2a1.58,1.58,0,0,1-.37.11l.53-.08a1.15,1.15,0,0,1-.32,0l.53.07a1.57,1.57,0,0,1-.31-.08l.48.2a1.35,1.35,0,0,1-.26-.15l.41.31a1.23,1.23,0,0,1-.26-.25l.31.41a2.71,2.71,0,0,1-.21-.37l.2.48a2.25,2.25,0,0,1-.09-.35l.07.53a1.48,1.48,0,0,1,0-.42l-.07.53a1.53,1.53,0,0,1,.07-.29l-.2.48A1.29,1.29,0,0,1,83,38.3l-1.73,1h.06l-.53-.07.18.05-.47-.2a.21.21,0,0,1,.1.06l-.4-.32,0,0-.31-.4a.18.18,0,0,1,.06.09l-.2-.48v.06l-.07-.53v0l.07-.53v0l.2-.48,0,0,.32-.41,0,0,.4-.32,0,0,.48-.2-.08,0,.54-.08h-.08l.54.07h0l.48.21,0,0,.41.31,0,0,.31.41v0l.27,1v0l-.07.54v0a2,2,0,0,0-1.4-2.46,2,2,0,0,0-2.46,1.4,2.11,2.11,0,0,0,1.45,2.58,2.27,2.27,0,0,0,2.18-.56,2.17,2.17,0,0,0,.28-2.67,2.57,2.57,0,0,0-2.12-1.14,2,2,0,0,0-1.73,1,3.47,3.47,0,0,0,0,3.35,3.32,3.32,0,0,0,1.18,1.26,3.25,3.25,0,0,0,1.69.48,3.54,3.54,0,0,0,3-1.72,3.14,3.14,0,0,0,.44-1.77,3,3,0,0,0-.16-.88,3.82,3.82,0,0,0-.68-1.17,3.3,3.3,0,0,0-1.27-.91,3.48,3.48,0,0,0-2-.2,3.26,3.26,0,0,0-2.43,2.47,3,3,0,0,0,.32,2.18A3.06,3.06,0,0,0,81,40.59a2.9,2.9,0,0,0,3.63-1.09A3.48,3.48,0,0,0,84.53,36a4.58,4.58,0,0,0-2.46-2,3.59,3.59,0,0,0-.47-.12,6,6,0,0,0-.94-.09,4.52,4.52,0,0,0-1.77.47,4.21,4.21,0,0,0-2,2.4,3.72,3.72,0,0,0,.33,3.07,4.12,4.12,0,0,0,2.32,1.75,3.93,3.93,0,0,0,3-.29,3.7,3.7,0,0,0,1.77-2.28,3.76,3.76,0,1,0-7.2-2.14,3.38,3.38,0,0,0,0,1.7,2,2,0,0,0,2.46,1.4A2,2,0,0,0,81,37.4Z" transform="translate(-0.01)"/>
      </g>
      <g>
        <path class="cls-2" d="M182.44,107.22v6.6a1,1,0,0,0,2,0v-6.6a1,1,0,1,0-2,0Z" transform="translate(-0.01)"/>
        <g>
          <path class="cls-2" d="M163.85,131.25c-2.93.69-4.34,3.63-4.72,6.37a5.78,5.78,0,0,0,0,2.27,2.09,2.09,0,0,0,1.26,1.29,15.36,15.36,0,0,0,4.77,1.16c.64.07.64-.93,0-1a15.75,15.75,0,0,1-3.94-.9c-.61-.22-1.14-.45-1.18-1.18a7.94,7.94,0,0,1,.18-1.88c.38-2.24,1.54-4.6,3.94-5.17.62-.14.36-1.11-.27-1Z" transform="translate(-0.01)"/>
          <path class="cls-2" d="M167.32,139.34a1.65,1.65,0,0,1,0-1.14,2.53,2.53,0,0,1,.66-1.06,2,2,0,0,1,1-.53,1.59,1.59,0,0,1,1,.2,2.29,2.29,0,0,1,1,1.77,1.82,1.82,0,0,1-.21,1,1.9,1.9,0,0,1-1,.83,6.14,6.14,0,0,1-3.4,0,.52.52,0,0,0-.61.35.5.5,0,0,0,.35.62,7.34,7.34,0,0,0,3.89,0,2.86,2.86,0,0,0,1.95-2.62,3.31,3.31,0,0,0-1.37-2.76,2.68,2.68,0,0,0-3.2.23,3.07,3.07,0,0,0-1,3.58.5.5,0,0,0,.69.18.51.51,0,0,0,.18-.68Z" transform="translate(-0.01)"/>
          <path class="cls-2" d="M172.88,142.48a4.1,4.1,0,0,0,3.07-.62,2.21,2.21,0,0,0,.94-2.37,2.29,2.29,0,0,0-2.37-1.74c-.46,0-.92.16-1.3-.17a1.31,1.31,0,0,1-.43-1.13,1.33,1.33,0,0,1,.89-.92,2.68,2.68,0,0,1,1.83,0c.61.2.88-.76.27-1a3.45,3.45,0,0,0-3.15.43,2.09,2.09,0,0,0-.62,2.6,2.14,2.14,0,0,0,1.06,1.06,3.12,3.12,0,0,0,1.55.09,1.3,1.3,0,0,1,1.28,1.68c-.4,1-1.83,1.23-2.75,1.09a.52.52,0,0,0-.62.35.5.5,0,0,0,.35.62Z" transform="translate(-0.01)"/>
          <path class="cls-2" d="M180.28,131.31a3.39,3.39,0,0,0-1.86,2.2,8,8,0,0,0-.58,3.44,11.67,11.67,0,0,0,.4,2.35,6.51,6.51,0,0,0,1,2.27,1.66,1.66,0,0,0,2.11.53,4.35,4.35,0,0,0,1.88-2.21,9.16,9.16,0,0,0,.94-5.53c-.32-1.71-1.94-3.51-3.85-3.05-.63.15-.36,1.12.26,1,1.21-.29,2.26,1,2.54,2a7.32,7.32,0,0,1-.42,4.33c-.27.72-1.61,3.72-2.66,2.39a4.78,4.78,0,0,1-.73-1.74,11.43,11.43,0,0,1-.38-1.66,7.39,7.39,0,0,1,.16-2.81c.2-.8.62-2.19,1.49-2.5C181.15,132.06,180.89,131.1,180.28,131.31Z" transform="translate(-0.01)"/>
          <path class="cls-2" d="M179.06,137.34a19.65,19.65,0,0,0,4.31-.61.5.5,0,0,0-.27-1,17.82,17.82,0,0,1-4,.58.5.5,0,0,0,0,1Z" transform="translate(-0.01)"/>
          <path class="cls-2" d="M177.57,119.15l2.11-1.2c.7-.4,1.38-.86,2.1-1.2.15-.07.14-.08.23,0a3.6,3.6,0,0,1,.23.49l.52,1.14,1.06,2.32c.27.59,1.13.08.86-.5l-1.2-2.64c-.2-.42-.37-.86-.59-1.27a1.09,1.09,0,0,0-.9-.64,2.21,2.21,0,0,0-1.17.46l-1.23.7-2.52,1.44a.5.5,0,0,0,.5.86Z" transform="translate(-0.01)"/>
          <path class="cls-2" d="M181.46,117.25l-7,13.75c-.17.35.13.9.57.73a1,1,0,0,0,.66-.58c.25-.58-.62-1.09-.87-.5l-.06.12.57.73,7-13.74c.29-.58-.57-1.08-.86-.51Z" transform="translate(-0.01)"/>
        </g>
      </g>
      <path class="cls-2" d="M227.87,117.27a36.88,36.88,0,0,1,8.76-9.87c.5-.4-.21-1.11-.71-.71A37.65,37.65,0,0,0,227,116.77a.5.5,0,0,0,.86.5Z" transform="translate(-0.01)"/>
      <path class="cls-2" d="M105.92.25a6.27,6.27,0,0,0-.68,3.53c.11,1,.44,2.39,1.47,2.82a2.31,2.31,0,0,0,2.57-1c.67-.84.87-2.11,1.87-2.65l-.74-.3c.88,2.22-.44,4.66-2.31,5.92-2.29,1.56-5.24,1.66-7.91,1.77-.64,0-.65,1,0,1,3-.13,6.32-.28,8.79-2.17,2-1.54,3.38-4.29,2.4-6.79a.51.51,0,0,0-.74-.3,3.88,3.88,0,0,0-1.49,1.76c-.36.71-.77,1.66-1.64,1.84s-1.23-1.44-1.29-2.1a5.21,5.21,0,0,1,.57-2.85c.29-.57-.57-1.08-.87-.51Z" transform="translate(-0.01)"/>
    </g>
  </g>
</svg>
