<svg xmlns="http://www.w3.org/2000/svg" viewBox="0 0 222.71 202.2">
  <defs>
    <style>
      .cls-1 {
        fill: #808285;
      }

      .cls-2 {
        fill: #231f20;
      }

      .cls-3 {
        fill: #00aeef;
      }
    </style>
  </defs>
  <title>periodicity-identities-1</title>
  <g id="Layer_2" data-name="Layer 2">
    <g id="Layer_1-2" data-name="Layer 1">
      <path class="cls-1" d="M107.27,27.24a119.86,119.86,0,0,1,22.49,2.94A79.39,79.39,0,0,1,154.67,41a82.29,82.29,0,0,1,14.9,12.86,92.53,92.53,0,0,1,14,20,70.08,70.08,0,0,1,7.74,27.77A74.88,74.88,0,0,1,182,142a76.75,76.75,0,0,1-13,16.88A74,74,0,0,1,149.29,173a88.65,88.65,0,0,1-24.38,7.58,93.85,93.85,0,0,1-25.55.55,89.79,89.79,0,0,1-24.48-6.36,80,80,0,0,1-21.46-13.24,78.82,78.82,0,0,1-16.34-20,83,83,0,0,1-9.79-26.17,72.4,72.4,0,0,1,11.64-55.2A76.12,76.12,0,0,1,55.72,42.87,82.55,82.55,0,0,1,75.08,32a70.12,70.12,0,0,1,18.57-4.67,89.76,89.76,0,0,1,13.62-.12c1.29.07,1.29-1.93,0-2a88.38,88.38,0,0,0-14.09.17,66.67,66.67,0,0,0-9.42,1.71A83.49,83.49,0,0,0,44.93,49.77,74.4,74.4,0,0,0,24,101.23a80.24,80.24,0,0,0,5.42,28.9,85.82,85.82,0,0,0,13.76,23.72,77.87,77.87,0,0,0,19.46,16.9,87.26,87.26,0,0,0,23.9,10,95,95,0,0,0,26,2.94,93.73,93.73,0,0,0,25.74-4.22,78.84,78.84,0,0,0,23.79-12A81.55,81.55,0,0,0,179.19,150a71.24,71.24,0,0,0,7.25-12.44,77.87,77.87,0,0,0,6.25-21.49,72.23,72.23,0,0,0-2.39-30.93,82.86,82.86,0,0,0-10-20.77A89.19,89.19,0,0,0,162,43.93a77.56,77.56,0,0,0-17.6-10.85A90.86,90.86,0,0,0,117.1,26c-3.26-.36-6.54-.56-9.83-.73C106,25.17,106,27.17,107.27,27.24Z" transform="translate(-0.01)"/>
      <g>
        <path class="cls-2" d="M106.31,10.69l4.19-7.58h-1.73a40.46,40.46,0,0,0,5.61,7.65c.88.94,2.29-.47,1.42-1.41a37.26,37.26,0,0,1-5.3-7.25,1,1,0,0,0-1.73,0l-4.19,7.58c-.62,1.12,1.11,2.13,1.73,1Z" transform="translate(-0.01)"/>
        <path class="cls-2" d="M102.08,194.33l2.67,4.79c.64,1.16,1.6,3.83,3.41,2.88a11.54,11.54,0,0,0,2-1.67l2-1.74c.67-.59,1.36-1.18,2-1.78a5.52,5.52,0,0,0,1.43-1.76,1,1,0,1,0-1.73-1c-.53,1.14-1.79,2-2.72,2.76l-3.36,2.95a2.43,2.43,0,0,0-.34.3c-.25.14-.23.2,0,.17s.25.07.19,0a6.11,6.11,0,0,0-.5-.88l-1.07-1.93-2.27-4.08a1,1,0,0,0-1.73,1Z" transform="translate(-0.01)"/>
        <path class="cls-2" d="M109,4.27q.58,38.22.38,76.43-.21,38-1.2,76-.57,21.45-1.38,42.88c0,1.28,2,1.28,2,0q1.45-38.19,2.1-76.4.65-38,.51-76-.08-21.45-.41-42.9a1,1,0,0,0-2,0Z" transform="translate(-0.01)"/>
      </g>
      <g>
        <path class="cls-2" d="M2.08,103c20.67,1,41.35.92,62,.15,10-.36,19.89-.5,29.86-.28q22.32.51,44.66.65c6.27,0,12.54,0,18.81,0q27.8,0,55.6.14l7.31,0a1,1,0,0,0,0-2q-29.39-.09-58.77-.15c-7,0-14,0-21,0q-21.46-.11-42.92-.57c-9.14-.21-18.25-.31-27.39,0-9.52.3-19,.71-28.55.8q-16.92.15-33.84-.49L2.08,101c-1.29-.06-1.29,1.94,0,2Z" transform="translate(-0.01)"/>
        <path class="cls-2" d="M213.79,99.19a18.45,18.45,0,0,1,4.35,2.23,17.84,17.84,0,0,1,1.8,1.45c.08.07.78.82.82.81.09-.34.07-.43,0-.27l-.13.12c-.14.13-.29.25-.44.37-2.14,1.7-4.76,3.06-5.58,5.87a1,1,0,0,0,1.93.53,6.54,6.54,0,0,1,2.63-3.18c.63-.47,1.27-.92,1.9-1.4s1.46-1,1.66-1.84-.54-1.69-1.18-2.29a20.76,20.76,0,0,0-2.19-1.78,19.93,19.93,0,0,0-5-2.55c-1.21-.43-1.74,1.5-.53,1.93Z" transform="translate(-0.01)"/>
        <path class="cls-2" d="M9,93.49Q6.62,95.16,4.44,97c-.72.62-1.42,1.25-2.11,1.91a12.27,12.27,0,0,0-1.9,2,1.91,1.91,0,0,0,0,2.39,3.21,3.21,0,0,0,1.08.65l1.49.69,5.51,2.54a1,1,0,0,0,1.37-.36,1,1,0,0,0-.36-1.37l-4.67-2.15-2.33-1.08c-.12,0-.39-.25-.51-.23s-.14,0,0,.19a.3.3,0,0,1,0-.08c.07,0,.12-.18.18-.25a4.37,4.37,0,0,1,.42-.44A58.7,58.7,0,0,1,10,95.21a1,1,0,0,0,.36-1.37A1,1,0,0,0,9,93.49Z" transform="translate(-0.01)"/>
      </g>
      <g>
        <path class="cls-3" d="M111,100.73c4.95-4.93,9.79-10,14.38-15.24,2.89-3.32,5.68-6.73,8.25-10.3A111,111,0,0,1,144.51,62c1.69-1.72,3.57-3.24,5.3-4.93a85.54,85.54,0,0,0,6.64-7.34c1.78-2.2,3.5-4.45,5.37-6.59,2.39-2.73,4.93-5.34,7.56-7.84L170.75,34a1,1,0,0,0-1-1.67c-3,.72-6.06,1.5-9.06,2.32l.53,1.93A42.3,42.3,0,0,1,169.83,35l-1-1q-.39,3.38-.8,6.74a1,1,0,0,0,2,0q.41-3.36.8-6.74a1,1,0,0,0-1-1,44.71,44.71,0,0,0-9.11,1.6,1,1,0,0,0,.53,1.93q4.51-1.24,9.06-2.32l-1-1.67A120.51,120.51,0,0,0,156.28,46.7c-1.92,2.43-3.91,4.8-6.05,7-1.81,1.89-3.76,3.58-5.66,5.36a90.2,90.2,0,0,0-11.86,14c-2.33,3.29-4.75,6.34-7.38,9.42-4.28,5-8.83,9.85-13.48,14.55-.74.75-1.48,1.5-2.23,2.24a1,1,0,0,0,1.42,1.41Z" transform="translate(-0.01)"/>
        <path class="cls-3" d="M111.3,101.26c11.13-.2,22.26-.32,33.4-.45,6.21-.06,12.43-.2,18.63-.52,2.65-.13,5.27-.53,7.91-.77a55.43,55.43,0,0,1,8.45-.11c2.93.17,5.86.4,8.81.47q4.77.11,9.53-.12c1.28-.06,1.29-2.06,0-2a142.85,142.85,0,0,1-16.68-.25,65.55,65.55,0,0,0-8-.15c-2.7.16-5.37.56-8.06.8-3.19.28-6.4.34-9.59.44q-4.52.14-9,.19L132.23,99q-10.47.12-20.93.31a1,1,0,0,0,0,2Z" transform="translate(-0.01)"/>
        <path class="cls-3" d="M194.1,93l0-.07.1.78v0l-.46.6h0l-.5.13c.1,0-.65-.2-.42-.09s-.18-.15-.08-.07l.25.21.68.66c.65.64,1.28,1.28,1.91,1.93s1.25,1.29,1.89,1.92c.25.25.5.5.76.74l.26.23.12.1c.11.09.09.2.06,0v-.53c0-.12,0,0,0,0l-.12.13a5,5,0,0,0-.39.41c-.43.45-.84.9-1.26,1.36-1.42,1.56-2.82,3.14-4.23,4.72-.85,1,.56,2.38,1.42,1.41,1.5-1.68,3-3.37,4.52-5,.39-.44.79-.88,1.2-1.3s1-1,.84-1.74c-.13-.63-.63-1-1.07-1.38s-.89-.86-1.32-1.3c-1-1-2-2.11-3.08-3.14a9.36,9.36,0,0,0-1.24-1.11c-1-.65-2,.34-1.5,1.38a1,1,0,0,0,1.72-1Z" transform="translate(-0.01)"/>
        <path class="cls-3" d="M120.41,99.29a13.67,13.67,0,0,0-4.88-9.45,12.63,12.63,0,0,0-5.65-2.76,11.1,11.1,0,0,0-6.92,1,18.77,18.77,0,0,0-7.78,8.19,22.21,22.21,0,0,0-2,12.34c.44,4.2,1.24,8.49,4.13,11.76,3,3.43,7.53,4.82,12,5a44.28,44.28,0,0,0,4.61-.11,25.84,25.84,0,0,0,5.87-.92,13.18,13.18,0,0,0,6-3.59,15.53,15.53,0,0,0,3.41-6.62,25.82,25.82,0,0,0,.09-12.89,28.59,28.59,0,0,0-6.15-11.45q-.67-.77-1.38-1.5c-.9-.92-2.32.49-1.42,1.41a28.82,28.82,0,0,1,5.76,8.4,23,23,0,0,1,1.87,7.1,23.93,23.93,0,0,1,.07,3.49c0,.42,0,.83-.09,1.24s0,.39-.09.72c-.63,4-2,8.2-5.62,10.46-3,1.85-6.61,2.1-10.05,2.25s-7.22-.15-10.36-1.95a11.82,11.82,0,0,1-4.72-5,20.15,20.15,0,0,1-1.63-6l-.12-.9,0-.16c0,.21,0,.05,0,0s0-.32,0-.48c-.08-.72-.14-1.44-.16-2.16a21.14,21.14,0,0,1,.51-5.61,17.21,17.21,0,0,1,2.92-6.34l.28-.36.15-.19c.21-.27.43-.54.65-.8a19.67,19.67,0,0,1,1.62-1.67A11.08,11.08,0,0,1,106,89.1a9,9,0,0,1,6,.8,11.69,11.69,0,0,1,6.11,7.64,10.53,10.53,0,0,1,.3,1.75c.11,1.28,2.11,1.29,2,0Z" transform="translate(-0.01)"/>
      </g>
      <g>
        <path class="cls-3" d="M132.47,119a6.81,6.81,0,0,0,2-3.41c.37-1.24.9-3.1-.18-4.14a1.66,1.66,0,0,0-2-.18,2.9,2.9,0,0,0-1.14,1.33,3.32,3.32,0,0,0-.41,1.63,1.46,1.46,0,0,0,1.08,1.33,2.78,2.78,0,0,0,2.87-1.09.5.5,0,0,0-.17-.69.52.52,0,0,0-.69.18l-.05.06-.13.14a2.06,2.06,0,0,1-.5.33,1.86,1.86,0,0,1-.76.14c-.31,0-.62-.09-.66-.45a2.31,2.31,0,0,1,.27-1.05,2.27,2.27,0,0,1,.69-.93.66.66,0,0,1,1.07.27,2.76,2.76,0,0,1,0,1.61,10.77,10.77,0,0,1-.37,1.46,5.62,5.62,0,0,1-1.71,2.75c-.5.41.21,1.12.7.71Z" transform="translate(-0.01)"/>
        <path class="cls-3" d="M137.7,112.61a8.5,8.5,0,0,0,.06,4,.5.5,0,1,0,1-.27,7.31,7.31,0,0,1-.06-3.48.5.5,0,0,0-1-.26Z" transform="translate(-0.01)"/>
        <path class="cls-3" d="M139.86,112.94c-.16,0-.17-.24-.14-.07s0,.15,0,.22.05.31.07.47c0,.33.08.66.1,1a17.49,17.49,0,0,1,0,2c0,.64,1,.64,1,0a20,20,0,0,0-.08-2.45c0-.42-.1-.84-.16-1.25s-.17-.84-.62-.94a.51.51,0,0,0-.61.35.51.51,0,0,0,.35.62Z" transform="translate(-0.01)"/>
        <path class="cls-3" d="M137.19,113.37c0-.32.07-1,.51-1.08.24,0,.51.19.71.3a3.59,3.59,0,0,0,.85.37,1.62,1.62,0,0,0,1.6-.4,5.44,5.44,0,0,0,.39-.55.64.64,0,0,1,.13-.18c.08-.08,0,0,.06,0-.07,0,.07,0,.08,0a.5.5,0,1,0-.27-1c-.56.11-.77.63-1.07,1s-.88.13-1.27-.08c-.6-.33-1.26-.65-1.9-.22a2.32,2.32,0,0,0-.82,1.86.51.51,0,0,0,.5.5.51.51,0,0,0,.5-.5Z" transform="translate(-0.01)"/>
        <path class="cls-3" d="M132.65,122.37c4.54-1,8.33-4,12.89-4.91.63-.13.36-1.1-.27-1-4.56.93-8.35,3.93-12.88,4.92-.63.13-.37,1.1.26,1Z" transform="translate(-0.01)"/>
        <path class="cls-3" d="M138.45,121l-.88,2.72c-.12.37-.39.88-.27,1.27a.75.75,0,0,0,1,.42,23,23,0,0,0,2.34-1.14,3.81,3.81,0,0,1,2.36-.4c.63.14.89-.83.26-1a4.73,4.73,0,0,0-2.91.4c-.44.19-.88.42-1.31.65l-.65.33a3.92,3.92,0,0,0-.36.16l-.09,0c.09,0,.1,0,0,0l.22.13.05.07v.27a5.2,5.2,0,0,1,.26-.85l.3-.95.6-1.86c.2-.61-.76-.88-1-.27Z" transform="translate(-0.01)"/>
        <path class="cls-3" d="M141.05,120.15a39.58,39.58,0,0,0-1.08,6.68c0,.64,1,.64,1,0a37.69,37.69,0,0,1,1-6.42.5.5,0,0,0-1-.26Z" transform="translate(-0.01)"/>
      </g>
      <path class="cls-3" d="M159,42.76a4,4,0,0,0,.68-1.36c0-.06.11-.3,0-.13l.13-.23c-.11.19,0,0,0,0s-.14.08,0,0,0,0,0,0l.08,0c-.1,0-.12,0,0,0H160s-.15,0,0,0,.3.12.15,0c0,0,.23.15.12.07a1.59,1.59,0,0,1,.29.29c-.08-.1.06.09.08.13l.18.31.15.31s.06.15,0,.06,0,.09,0,.11a4.31,4.31,0,0,1,.19.61c0,.11.05.23.07.34a.68.68,0,0,1,0,.14c0-.1,0,0,0,0a5,5,0,0,1,0,.67c0,.06,0,.28,0,.11,0,.13-.05.25-.09.37a1.78,1.78,0,0,1-.45.79s-.25.21-.1.1l-.21.15-.27.14c-.1.06,0,0,0,0l-.17,0-.3.08-.13,0c.05,0,.2,0,0,0h-.26c-.07,0-.38,0-.17,0l-.26,0-.16-.05,0,0-.15-.08-.15-.09s-.16-.12-.08,0l-.16-.15-.17-.19c.11.13,0-.07-.08-.12s-.1-.18-.14-.27-.06-.17,0,0c0,0,0-.08,0-.13a1.82,1.82,0,0,1-.07-.25c0-.07,0-.31,0-.12,0-.12,0-.23,0-.35a2.28,2.28,0,0,1,0-.26c0,.2,0,0,0-.12s.08-.26,0-.17l0,0,.11-.19s.15-.22.1-.16,0-.05.06-.07l.09-.1.2-.18c-.13.12.11-.07.16-.1a1.51,1.51,0,0,1,.28-.15c.1-.06,0,0,0,0l.13,0,.3-.08.13,0c.14,0-.15,0,0,0h.44c.15,0-.13-.05,0,0a.58.58,0,0,0,.14,0l.07,0c-.1,0,0,0,0,0,.27.13-.06,0,.07,0s0,0,0,0,.07.13,0,0c0,.06,0,.13.05.19,0-.11,0-.06,0,0s0,.39,0,.23c0,.11,0,.23-.07.34s-.12.47-.2.7c0,.06-.13.29-.05.13-.05.1-.1.2-.16.3s-.09.13,0,0l-.08.09,0,0c.11-.08-.07,0-.07,0s0,0,.05,0c.58.59.83.73.75.4h0c0,.11,0,0,0-.05v-.19c0,.19.05-.12.07-.18s-.07.13,0,0a1.28,1.28,0,0,1,.11-.2s.1-.12,0,0,.07-.06.08-.07l0,0c-.07,0-.08,0,0,0s.06,0,0,0a.49.49,0,0,1-.27,0L159.8,44s-.09-.25-.1-.25a1,1,0,0,1,0,.24,2.17,2.17,0,0,1,0,.26s0,.33,0,.15c0,.1,0,.2-.07.3,0-.13,0,0-.05.08s.07-.14,0,0q.12-.09,0,0c-.06,0,0,0,.06,0s-.24,0-.11,0,.08,0,0,0h.11a.56.56,0,0,1,.23.16l0,.08c0-.11,0-.11,0,0V45c0,.09,0,.11,0,0s0-.15.07-.23.11-.3,0-.12l0-.08c.09-.15.05-.11-.13.12l-.5.14c-.45-.05-.67-.26-.64-.62s0-.34-.06-.19l.25-.45a.57.57,0,0,1,.71,0,1,1,0,0,0-1.41,0,1,1,0,0,0,0,1.42,1.5,1.5,0,0,0,1.74.33,1.3,1.3,0,0,0,.55-1.76,1.21,1.21,0,0,0-1.65-.55,2,2,0,0,0-.89,1.36,1.81,1.81,0,0,0,1.44,2.46A2.13,2.13,0,0,0,161.6,45c.22-1,.2-2.82-1.28-2.78a2.44,2.44,0,0,0-2,2,2.39,2.39,0,0,0,.13,1.58,1.37,1.37,0,0,0,1.89.5,3.09,3.09,0,0,0,1.48-2,3.5,3.5,0,0,0,0-2.82,2.75,2.75,0,0,0-2.62-1.18,3.82,3.82,0,1,0,3.52,5.75,5.56,5.56,0,0,0-.51-5.7,2.67,2.67,0,0,0-3-1.22,2.14,2.14,0,0,0-1.22,1.16c-.1.24-.19.49-.27.74,0,0-.11.3,0,.1,0,0-.21.33-.08.16A1,1,0,0,0,159,42.76Z" transform="translate(-0.01)"/>
      <g>
        <path class="cls-3" d="M148,.54a22.43,22.43,0,0,0-4.41,11.64,21,21,0,0,0,.38,6.23c.4,1.89,1.44,3.84,3.58,4,.64.05.63-.95,0-1-2.08-.17-2.57-2.75-2.82-4.4a21.11,21.11,0,0,1-.06-5.67A21.43,21.43,0,0,1,148.88,1c.39-.51-.48-1-.87-.5Z" transform="translate(-0.01)"/>
        <path class="cls-3" d="M183.55,4.26a12.73,12.73,0,0,0-3.92,3.53c-.41.58-1.14,1.45-1,2.22s.92,1.06,1.5,1.28c1.41.54,4.26.59,3.41,2.88a4.14,4.14,0,0,1-4.15,2.5c-.64,0-.64,1,0,1a5.18,5.18,0,0,0,4.33-1.87c1-1.24,1.47-3.15,0-4.27a5.34,5.34,0,0,0-2.17-.87,7,7,0,0,1-1.19-.33c-.18-.07-.62-.24-.71-.43s.11-.56.23-.76a11.55,11.55,0,0,1,4.11-4,.5.5,0,0,0-.5-.86Z" transform="translate(-0.01)"/>
        <path class="cls-3" d="M187.13,16.49a27.91,27.91,0,0,1,.16-5.78c0-.27-.25-.5-.5-.5a.51.51,0,0,0-.5.5,27.91,27.91,0,0,0-.16,5.78c0,.64,1.05.64,1,0Z" transform="translate(-0.01)"/>
        <path class="cls-3" d="M187.5,13.39l.32,3.3a.5.5,0,0,0,1,.14c.67-1.81.42-4,1.56-5.63a2,2,0,0,0,.19-.24c.06-.05,0-.06-.08,0s0,0,0,0,.09.19.1.25.07.27.1.41a13.13,13.13,0,0,1,.27,1.76,15.54,15.54,0,0,1-.1,3.67.52.52,0,0,0,.35.62.5.5,0,0,0,.62-.35,16.16,16.16,0,0,0,0-5.15,5.92,5.92,0,0,0-.37-1.56,1,1,0,0,0-1-.66c-.49,0-.8.5-1,.87a7.16,7.16,0,0,0-.9,2.62,17.35,17.35,0,0,1-.68,3.12l1,.13-.32-3.3c-.06-.63-1.06-.64-1,0Z" transform="translate(-0.01)"/>
        <path class="cls-3" d="M195.24,10.87A11.46,11.46,0,0,0,197,6.94a6.56,6.56,0,0,0,0-3.7,2.69,2.69,0,0,0-2.52-2c-1.43.12-1.66,1.93-1.45,3.06a3,3,0,0,0,3.08,2.49c.64,0,.64-1,0-1a2.12,2.12,0,0,1-2.15-2.39c0-.53.15-1.28.84-1.15a1.73,1.73,0,0,1,1.12,1A5.09,5.09,0,0,1,196,6.61a10.6,10.6,0,0,1-1.65,3.75c-.36.54.5,1,.87.51Z" transform="translate(-0.01)"/>
        <path class="cls-3" d="M198.66,5.66a11,11,0,0,0-.26,3.23.5.5,0,1,0,1,0,9.77,9.77,0,0,1,0-1.53,9,9,0,0,1,.23-1.43.5.5,0,0,0-1-.27Z" transform="translate(-0.01)"/>
        <path class="cls-3" d="M200.5,5.2a8.61,8.61,0,0,1,.38,3,.5.5,0,0,0,.5.5.51.51,0,0,0,.5-.5,9.69,9.69,0,0,0-.42-3.25.52.52,0,0,0-.62-.35.51.51,0,0,0-.34.62Z" transform="translate(-0.01)"/>
        <path class="cls-3" d="M198.49,6.21a9.76,9.76,0,0,1,.37-1.16,5,5,0,0,1,.21-.48,3.89,3.89,0,0,0,.25-.5l0-.08c-.21,0-.27,0-.17,0s.12.1.15.13.26.27.4.4a4.11,4.11,0,0,0,.84.71,1.85,1.85,0,0,0,2,0,3.16,3.16,0,0,0,1-1.66c.2-.62-.76-.88-1-.27-.15.43-.35,1.11-.86,1.22s-1.2-.56-1.59-1a1.56,1.56,0,0,0-1-.61,1,1,0,0,0-.87.65,10.56,10.56,0,0,0-.86,2.25c-.16.63.81.89,1,.27Z" transform="translate(-0.01)"/>
        <path class="cls-3" d="M194.33,13.85c1.55-.76,3.13-1.49,4.71-2.19a9.75,9.75,0,0,1,4.87-1.26c.64.06.64-.94,0-1a10,10,0,0,0-5,1.24q-2.56,1.13-5.07,2.35c-.58.28-.07,1.14.51.86Z" transform="translate(-0.01)"/>
        <path class="cls-3" d="M198.24,13.27l-.56,1.23a8.08,8.08,0,0,0-.53,1.21.89.89,0,0,0,.43,1.06,2,2,0,0,0,1.18,0A12.15,12.15,0,0,0,203.28,15c.53-.35,0-1.22-.5-.86a11.28,11.28,0,0,1-3.55,1.56,9.37,9.37,0,0,1-.92.19,2.09,2.09,0,0,0-.28,0c-.07.13.05.13.09.1a1.56,1.56,0,0,0,0-.16c.29-.69.63-1.37.94-2.05a.51.51,0,0,0-.18-.68.51.51,0,0,0-.69.18Z" transform="translate(-0.01)"/>
        <path class="cls-3" d="M200.16,12.26l-.65,6.63a.51.51,0,0,0,.5.5.5.5,0,0,0,.5-.5l.65-6.63a.51.51,0,0,0-.5-.5.5.5,0,0,0-.5.5Z" transform="translate(-0.01)"/>
        <path class="cls-3" d="M174.56,14.7a35.74,35.74,0,0,0-2,4.64.51.51,0,0,0,.35.62.52.52,0,0,0,.61-.35,35.61,35.61,0,0,1,1.88-4.41.51.51,0,0,0-.18-.68.5.5,0,0,0-.68.18Z" transform="translate(-0.01)"/>
        <path class="cls-3" d="M152.72,5.47a13.38,13.38,0,0,0-5.63,7.67,3.5,3.5,0,0,0,1.37,4.05,4.71,4.71,0,0,0,4.68-.07c.57-.29.07-1.15-.51-.86a3.55,3.55,0,0,1-3.94-.14c-1.17-1-.76-2.51-.29-3.78a12.41,12.41,0,0,1,4.83-6c.53-.35,0-1.21-.51-.86Z" transform="translate(-0.01)"/>
        <path class="cls-3" d="M154.76,14.4s0-.17,0-.08a.69.69,0,0,1,0-.13,2.21,2.21,0,0,1,.05-.25,3.58,3.58,0,0,1,.16-.56,4.09,4.09,0,0,1,.45-1l.14-.22.06-.08c.09-.13-.06.06,0-.06l.17-.17c-.06.06,0,0,0,0s.16-.07.08,0l.07,0h.07c.13,0-.06,0,.06,0l.09,0s.16.06.07,0l.09,0,.12.08c.12.08,0-.05,0,0a.93.93,0,0,1,.14.14s.1.12,0,0l0,.06.12.19a.36.36,0,0,0,0,.09c0-.11,0,0,0,0l.06.21a.3.3,0,0,1,0,.1s0,.13,0,.05,0,0,0,0a.49.49,0,0,1,0,.12c0,.08,0,.16,0,.24s0-.11,0,0a.43.43,0,0,0,0,.11l-.06.19,0,.08c.05-.12,0,0,0,0a2.39,2.39,0,0,1-.13.21c-.05.07,0,0,0,0l-.08.09-.15.14c.08-.07,0,0,0,0l-.08.06-.11.06h0l-.23.08-.1,0s-.18,0-.05,0a2.57,2.57,0,0,1-.48,0h0l-.16,0-.08,0s-.18-.07-.06,0l-.2-.1-.09-.06s0,0,0,0l-.06-.05a.51.51,0,0,0-.71,0,.5.5,0,0,0,0,.7,2.42,2.42,0,0,0,2.25.5A2.22,2.22,0,0,0,158,13.66a2.49,2.49,0,0,0-.56-2.22,1.93,1.93,0,0,0-1.24-.62,1.49,1.49,0,0,0-1.25.6,5.77,5.77,0,0,0-1.18,3,.5.5,0,0,0,.5.5.51.51,0,0,0,.5-.5Z" transform="translate(-0.01)"/>
        <path class="cls-3" d="M160.33,9.52A3.6,3.6,0,0,0,159,11.39a1.63,1.63,0,0,0,.66,2c.23.16.49.29.74.45.09,0,.48.3.44.42s-.4.26-.47.31l-.6.39-1.24.81c-.54.35,0,1.21.5.86.78-.51,1.6-1,2.34-1.53s.44-1.47-.23-2a7,7,0,0,0-.74-.46c-.18-.11-.41-.24-.48-.44a1.32,1.32,0,0,1,.24-1,2.42,2.42,0,0,1,.73-.83A.51.51,0,0,0,161,9.7a.49.49,0,0,0-.68-.18Z" transform="translate(-0.01)"/>
        <path class="cls-3" d="M164.33,9.77a7.94,7.94,0,0,0,1.45-3.31,4.05,4.05,0,0,0-.8-3.21,1.87,1.87,0,0,0-2.73-.34A2.08,2.08,0,0,0,162,5.39a3,3,0,0,0,3.12,1.09c.64-.11.37-1.08-.26-1s-1.92,0-2.12-.93c-.15-.66.31-1.4,1-1a2.56,2.56,0,0,1,1.07,2.58,6.82,6.82,0,0,1-1.35,3.15c-.37.53.5,1,.86.5Z" transform="translate(-0.01)"/>
        <path class="cls-3" d="M167.56,5a13,13,0,0,0,0,3.94.5.5,0,0,0,.61.35.52.52,0,0,0,.35-.62,11.4,11.4,0,0,1,0-3.4.52.52,0,0,0-.35-.62.5.5,0,0,0-.61.35Z" transform="translate(-0.01)"/>
        <path class="cls-3" d="M169.87,4.43l.35,2.94a.52.52,0,0,0,.5.5c.24,0,.53-.23.5-.5l-.35-2.94c0-.26-.21-.52-.5-.5s-.54.22-.5.5Z" transform="translate(-0.01)"/>
        <path class="cls-3" d="M167.24,5.93a10,10,0,0,1,1.21-2c.1-.13.07-.13.22,0a3.14,3.14,0,0,1,.39.24c.28.19.54.4.83.57a1.81,1.81,0,0,0,1.84.1,4.44,4.44,0,0,0,.75-.56c.13-.1.34-.3.52-.27a.52.52,0,0,0,.62-.35.5.5,0,0,0-.35-.61c-.77-.12-1.21.33-1.78.76a.87.87,0,0,1-.75.23,2.76,2.76,0,0,1-.87-.52c-.63-.45-1.46-1-2.11-.28a9.31,9.31,0,0,0-1.38,2.28.5.5,0,1,0,.86.51Z" transform="translate(-0.01)"/>
        <path class="cls-3" d="M163.57,12c3.29-.41,6.25-2.26,9.57-2.45.64,0,.65-1,0-1-3.34.19-6.27,2-9.57,2.45-.63.07-.64,1.07,0,1Z" transform="translate(-0.01)"/>
        <path class="cls-3" d="M166.48,12.44l-.29,1.22a6.88,6.88,0,0,0-.27,1.24.82.82,0,0,0,.68.83,3.75,3.75,0,0,0,1.2-.09l2.49-.35a3.27,3.27,0,0,0,1.16-.22.64.64,0,0,0,.19-1c-.47-.44-1.18.26-.71.7l0,0-.12-.23v-.23l.06-.1.05,0a.53.53,0,0,0-.22,0l-.43.06-.86.12-1.82.25c-.24,0-.49.09-.74.1h-.09a1.58,1.58,0,0,1,.12.15c.05,0,.09-.36.1-.41l.42-1.78c.15-.63-.82-.89-1-.27Z" transform="translate(-0.01)"/>
        <path class="cls-3" d="M168.58,12a23.59,23.59,0,0,0-.59,5.62.5.5,0,0,0,1,0,22,22,0,0,1,.56-5.36c.14-.62-.82-.89-1-.26Z" transform="translate(-0.01)"/>
        <path class="cls-3" d="M204.37.72A17.89,17.89,0,0,1,207.1,6.3a19.57,19.57,0,0,1,.6,6.24,16.56,16.56,0,0,1-.71,5.19,5.9,5.9,0,0,1-2.57,2.9c-.54.34,0,1.2.51.87a7.33,7.33,0,0,0,3.52-5.62,23.56,23.56,0,0,0-.6-10.53A19,19,0,0,0,205.24.22c-.38-.52-1.24,0-.87.5Z" transform="translate(-0.01)"/>
      </g>
    </g>
  </g>
</svg>
