<svg xmlns="http://www.w3.org/2000/svg" viewBox="0 0 228.75 206.02">
  <defs>
    <style>
      .cls-1 {
        fill: #808285;
      }

      .cls-2 {
        fill: #231f20;
      }

      .cls-3 {
        fill: #ed1c24;
      }
    </style>
  </defs>
  <title>pythagorean-identity-1</title>
  <g id="Layer_2" data-name="Layer 2">
    <g id="Layer_1-2" data-name="Layer 1">
      <g>
        <path class="cls-1" d="M109.17,10.35l4.3-7.79h-1.73a41.15,41.15,0,0,0,5.76,7.86c.88.94,2.29-.47,1.41-1.41a38.33,38.33,0,0,1-5.44-7.46,1,1,0,0,0-1.73,0l-4.3,7.79c-.62,1.13,1.1,2.14,1.73,1Z" transform="translate(-0.01 -1.07)"/>
        <path class="cls-1" d="M104.87,199l2.73,4.93c.66,1.17,1.64,3.91,3.47,2.94a11.74,11.74,0,0,0,2-1.7l2-1.79c.7-.61,1.4-1.22,2.09-1.84a5.55,5.55,0,0,0,1.47-1.8,1,1,0,0,0-.36-1.37,1,1,0,0,0-1.37.36c-.54,1.18-1.85,2-2.8,2.85l-3.45,3a1.73,1.73,0,0,0-.35.31c-.25.14-.24.19,0,.17s.23.06.17,0-.44-.79-.51-.91l-1.11-2L106.6,198a1,1,0,0,0-1.73,1Z" transform="translate(-0.01 -1.07)"/>
        <path class="cls-1" d="M111.94,3.78q.6,39.25.39,78.52-.21,39-1.24,78.1-.57,22-1.41,44c-.05,1.29,1.95,1.28,2,0q1.48-39.24,2.16-78.49.66-39.06.52-78.12-.08-22-.42-44.06a1,1,0,0,0-2,0Z" transform="translate(-0.01 -1.07)"/>
      </g>
      <g>
        <path class="cls-1" d="M2.1,105.12c21.25,1,42.49.95,63.74.16,10.23-.38,20.43-.52,30.67-.29q22.93.51,45.88.67c6.44,0,12.88,0,19.32,0q28.56,0,57.12.14l7.52,0a1,1,0,0,0,0-2q-30.19-.11-60.38-.17c-7.19,0-14.37,0-21.55,0q-22-.11-44.1-.59c-9.39-.21-18.75-.32-28.13,0-9.78.31-19.55.73-29.34.82q-17.38.16-34.76-.5l-6-.26c-1.28-.06-1.28,1.94,0,2Z" transform="translate(-0.01 -1.07)"/>
        <path class="cls-1" d="M219.61,101.26a18.62,18.62,0,0,1,4.48,2.3,16.52,16.52,0,0,1,1.85,1.49c.08.07.82.84.84.83.09-.32.08-.4-.05-.24l-.13.12c-.15.13-.3.26-.46.38-2.18,1.75-4.87,3.15-5.72,6a1,1,0,0,0,1.93.53,6.76,6.76,0,0,1,2.72-3.28c.64-.48,1.31-.94,2-1.44s1.49-1,1.7-1.87-.57-1.72-1.21-2.33a21,21,0,0,0-7.36-4.44c-1.22-.43-1.74,1.5-.54,1.93Z" transform="translate(-0.01 -1.07)"/>
        <path class="cls-1" d="M9.19,95.45q-2.4,1.71-4.64,3.63c-.73.64-1.46,1.29-2.17,2a12.85,12.85,0,0,0-1.94,2,1.93,1.93,0,0,0,0,2.42,3.4,3.4,0,0,0,1.11.67l1.52.7,5.67,2.61a1,1,0,0,0,1-1.73L5,105.54l-2.4-1.1c-.13-.06-.41-.26-.52-.24s-.14,0,0,.17a.25.25,0,0,1,0-.09c.07,0,.13-.2.19-.27a4.67,4.67,0,0,1,.44-.45,59.49,59.49,0,0,1,7.53-6.38c1-.75,0-2.48-1-1.73Z" transform="translate(-0.01 -1.07)"/>
      </g>
      <path class="cls-2" d="M110.18,27.35a122.32,122.32,0,0,1,23.11,3,81.69,81.69,0,0,1,25.59,11.09A84.76,84.76,0,0,1,174.2,54.67a95.2,95.2,0,0,1,14.34,20.57,71.81,71.81,0,0,1,8,28.54,76.82,76.82,0,0,1-9.58,41.53,78.77,78.77,0,0,1-13.37,17.35,76.08,76.08,0,0,1-20.2,14.49,90.93,90.93,0,0,1-25,7.8,96.57,96.57,0,0,1-26.25.56A92,92,0,0,1,76.89,179a81.82,81.82,0,0,1-22-13.61A80.82,80.82,0,0,1,38,144.85,85.33,85.33,0,0,1,28,118a74.49,74.49,0,0,1,12-56.73A78.11,78.11,0,0,1,57.2,43.4,84.9,84.9,0,0,1,77.1,32.27a71.86,71.86,0,0,1,19.08-4.81,92.15,92.15,0,0,1,14-.11c1.29.06,1.28-1.94,0-2a90.91,90.91,0,0,0-14.48.16A69.2,69.2,0,0,0,86,27.27,85.84,85.84,0,0,0,46.15,50.53a76.39,76.39,0,0,0-21.51,52.85,82.52,82.52,0,0,0,5.56,29.68,88.34,88.34,0,0,0,14.13,24.36,80.19,80.19,0,0,0,20,17.36A89.76,89.76,0,0,0,88.87,185.1a97.59,97.59,0,0,0,26.69,3A96.42,96.42,0,0,0,142,183.77a80.8,80.8,0,0,0,24.44-12.36A83.82,83.82,0,0,0,184,153.48a73.14,73.14,0,0,0,7.45-12.78,79.78,79.78,0,0,0,6.41-22.07,74,74,0,0,0-2.45-31.76,85.12,85.12,0,0,0-10.32-21.33,91.31,91.31,0,0,0-18.75-21,79.65,79.65,0,0,0-18.07-11.15,93.55,93.55,0,0,0-28-7.3c-3.36-.36-6.73-.57-10.1-.74C108.89,25.28,108.9,27.28,110.18,27.35Z" transform="translate(-0.01 -1.07)"/>
      <g>
        <path class="cls-3" d="M181.68,31.47c-9.8,8.34-19.42,16.9-28.38,26.13C148.83,62.21,144.53,67,140.48,72s-7.86,10.63-12.17,15.64a174.52,174.52,0,0,1-15.92,15.56,1,1,0,0,0,.7,1.71q19.26-1.66,38.59-1.79,9.66-.07,19.31.25c6.29.21,12.55.66,18.83.92,6.76.28,13.65.12,20.15-2,1.22-.39.7-2.32-.53-1.92-5.74,1.84-11.78,2.13-17.76,2-6.2-.17-12.38-.67-18.58-.9q-19.18-.72-38.38.07-10.83.45-21.63,1.39l.71,1.7c4.89-4.39,9.8-8.79,14.23-13.65s8.19-10.41,12.3-15.6a249.06,249.06,0,0,1,26.42-28c5.33-4.94,10.81-9.72,16.34-14.43,1-.83-.44-2.24-1.41-1.41Z" transform="translate(-0.01 -1.07)"/>
        <path class="cls-3" d="M203.24,98.46c1,.41,2,.85,3,1.34.5.24,1,.49,1.49.75l.8.44a4.44,4.44,0,0,0,.73.42c.18,0,.13.26.09-.22s0-.27-.24-.06l-.62.64-1.22,1.29-2.58,2.69c-.89.93.53,2.35,1.42,1.41l3-3.14c.51-.53,1-1,1.53-1.6a1.66,1.66,0,0,0,.39-2.06,4.22,4.22,0,0,0-1.64-1.17c-.58-.33-1.17-.64-1.77-.94-1.27-.63-2.57-1.2-3.9-1.72a1,1,0,0,0-1.23.7,1,1,0,0,0,.7,1.23Z" transform="translate(-0.01 -1.07)"/>
        <path class="cls-3" d="M175.4,32.29c1.19-.07,2.39-.12,3.58-.13h1.72l.69,0c.22,0,0,0,.14,0s.33.1.26.07l0,0c.05,0,0,0,0,0s0,0,0,0v.1s0,.25-.07.34c-.15.52-.36,1-.54,1.56L180,37.72a1,1,0,0,0,1.92.54l1.32-3.81c.43-1.23,1-2.75-.25-3.72-1-.75-2.4-.58-3.55-.57-1.36,0-2.72.05-4.08.13a1,1,0,0,0-1,1,1,1,0,0,0,1,1Z" transform="translate(-0.01 -1.07)"/>
      </g>
      <path class="cls-3" d="M128,91a8.69,8.69,0,0,1,5.59,10.31,1,1,0,0,0,1.93.53,10.72,10.72,0,0,0-7-12.77c-1.23-.38-1.76,1.55-.53,1.93Z" transform="translate(-0.01 -1.07)"/>
      <g>
        <path class="cls-3" d="M138.42,86.17c-1.16,2.62-2.44,5.57-1.54,8.47.73,2.35,2.8,4.34,5.4,4s4.49-2.58,5.44-4.87c1.08-2.62,1.07-5.69-1.17-7.71a5.85,5.85,0,0,0-8,.22c-.93.9.49,2.31,1.41,1.41a3.84,3.84,0,0,1,4.9-.43c1.8,1.31,1.83,3.48,1.14,5.41-.57,1.61-1.79,3.42-3.52,3.9s-3.06-.77-3.6-2.26c-.87-2.41.29-5,1.26-7.16a1,1,0,0,0-.36-1.37,1,1,0,0,0-1.37.36Z" transform="translate(-0.01 -1.07)"/>
        <path class="cls-3" d="M139.36,93.6,143.72,91c.69-.41,1.37-.88,2.09-1.23a1.6,1.6,0,0,1,.48-.16s.22,0,.1,0c.06,0,.19.07.16.05s0-.05,0,0c-.05-.06-.05,0,0,.08a1,1,0,1,0,1.93-.53,2.1,2.1,0,0,0-1.95-1.64,4.78,4.78,0,0,0-2.8,1l-5.4,3.22a1,1,0,0,0,1,1.73Z" transform="translate(-0.01 -1.07)"/>
      </g>
      <path class="cls-3" d="M166.22,46.26a1,1,0,0,1,0-.17l.07.53a2,2,0,0,1,0-.35l-.07.53a1.68,1.68,0,0,1,.09-.32l-.2.48a1.74,1.74,0,0,1,.23-.4L166,47a1.82,1.82,0,0,1,.34-.34l-.41.32a3.24,3.24,0,0,1,.47-.28l-.47.21a2.38,2.38,0,0,1,.52-.15l-.53.07a1.85,1.85,0,0,1,.47,0l-.53-.07a1.89,1.89,0,0,1,.34.09l-.47-.2a1.65,1.65,0,0,1,.36.22l-.4-.31a2.06,2.06,0,0,1,.29.3l-.31-.41a2.18,2.18,0,0,1,.24.42l-.2-.48a2.6,2.6,0,0,1,.14.53l-.07-.53a2.57,2.57,0,0,1,0,.62l.07-.54a2.3,2.3,0,0,1-.14.53l.2-.48a2.22,2.22,0,0,1-.25.42l.32-.41a2.13,2.13,0,0,1-.26.26l.4-.31a1.65,1.65,0,0,1-.36.22l.47-.2a2.42,2.42,0,0,1-.46.13l.53-.07a2.44,2.44,0,0,1-.54,0l.53.07a2.34,2.34,0,0,1-.59-.16l.48.2a2.87,2.87,0,0,1-.48-.28l.41.31a2.24,2.24,0,0,1-.35-.34l.32.41a2,2,0,0,1-.22-.37l.2.48a1.59,1.59,0,0,1-.12-.44L166,47a2,2,0,0,1,0-.49l-.07.54a2,2,0,0,1,.14-.54l-.2.48a2.08,2.08,0,0,1,.32-.54l-.31.4a3,3,0,0,1,.4-.39l-.41.31a1.76,1.76,0,0,1,.42-.24l-.47.2a2,2,0,0,1,.54-.15l-.53.07a2.72,2.72,0,0,1,.57,0l-.54-.07a2.58,2.58,0,0,1,.62.17l-.48-.2a3.16,3.16,0,0,1,.56.33l-.41-.31a2.79,2.79,0,0,1,.46.45l-.32-.4a2.5,2.5,0,0,1,.29.5l-.2-.48a2.17,2.17,0,0,1,.11.42l-.07-.53a2,2,0,0,1,0,.43l.07-.53a2.68,2.68,0,0,1-.07.27l.2-.48a1.49,1.49,0,0,1-.14.24l.32-.41a1.85,1.85,0,0,1-.14.14l.4-.31a1,1,0,0,1-.2.12l.48-.21a.79.79,0,0,1-.22.06l.53-.07a.94.94,0,0,1-.29,0l.54.08a1.61,1.61,0,0,1-.29-.09l.48.21-.25-.16.4.32a1.37,1.37,0,0,1-.17-.17l.32.41-.13-.2.2.48c0-.09-.05-.17-.07-.25l.07.53a1.22,1.22,0,0,1,0-.27l-.07.53a1.23,1.23,0,0,1,.08-.33l-.2.48a1.49,1.49,0,0,1,.18-.3l-.32.4.25-.25-.41.32a1.59,1.59,0,0,1,.3-.18l-.47.2a1.12,1.12,0,0,1,.26-.08l-.53.07h.34l-.53-.08a1.6,1.6,0,0,1,.39.11l-.47-.2a2.5,2.5,0,0,1,.35.21l-.4-.31a1.61,1.61,0,0,1,.28.3l-.31-.41a1.78,1.78,0,0,1,.17.3l-.2-.48a1.78,1.78,0,0,1,.09.33l-.07-.54a1.93,1.93,0,0,1,0,.34l.07-.53a1.68,1.68,0,0,1-.09.32l.2-.48a1.69,1.69,0,0,1-.17.29l.31-.41a1.53,1.53,0,0,1-.28.29l.4-.31a1.45,1.45,0,0,1-.34.2l.48-.2a1.74,1.74,0,0,1-.39.11l.53-.07a1.82,1.82,0,0,1-.33,0l.54.07a1.16,1.16,0,0,1-.32-.08l.48.2a1.43,1.43,0,0,1-.27-.15l.41.31a1.66,1.66,0,0,1-.27-.26l.32.41a1.79,1.79,0,0,1-.22-.38l.2.48a2.42,2.42,0,0,1-.1-.36l.07.53a2.06,2.06,0,0,1,0-.43l-.07.53a2.45,2.45,0,0,1,.08-.29l-.2.47a1.29,1.29,0,0,1,.09-.16l-1.73,1h.06l-.53-.07a.59.59,0,0,1,.19,0l-.48-.21a.41.41,0,0,1,.11.07l-.4-.32,0,0-.31-.4a.21.21,0,0,1,.06.1l-.2-.48V47l-.07-.53v0l.07-.53v0l.2-.48,0,0,.31-.41,0,0,.4-.31,0,0,.48-.2-.08,0,.54-.08h-.08l.53.07h0l.48.2h0l.4.31,0,0,.32.41,0,0,.28,1v0l-.08.53,0,0a2,2,0,0,0-3.86-1.07,2.1,2.1,0,0,0,1.45,2.59,2.29,2.29,0,0,0,2.19-.56,2.2,2.2,0,0,0,.28-2.68,2.58,2.58,0,0,0-2.14-1.14,2,2,0,0,0-1.73,1,3.53,3.53,0,0,0,0,3.38,3.3,3.3,0,0,0,2.9,1.76,3.6,3.6,0,0,0,3-1.74,3.17,3.17,0,0,0,.44-1.78,3.33,3.33,0,0,0-.16-.89,4.11,4.11,0,0,0-.69-1.18A3.42,3.42,0,0,0,167,43.55a3.32,3.32,0,0,0-2.47,2.5,3.06,3.06,0,0,0,.33,2.2,3.16,3.16,0,0,0,1.45,1.23,2.93,2.93,0,0,0,3.67-1.1,3.56,3.56,0,0,0-.08-3.58,4.67,4.67,0,0,0-2.5-2l-.48-.12a4.4,4.4,0,0,0-1-.09,4.3,4.3,0,0,0-1.79.48,4.21,4.21,0,0,0-2,2.42,3.76,3.76,0,0,0,.33,3.12,4.22,4.22,0,0,0,2.35,1.77,4,4,0,0,0,3-.3,3.7,3.7,0,0,0,1.79-2.3,3.81,3.81,0,1,0-7.29-2.18,3.49,3.49,0,0,0,0,1.73,2,2,0,0,0,2.46,1.39,2,2,0,0,0,1.4-2.46Z" transform="translate(-0.01 -1.07)"/>
      <g>
        <path class="cls-2" d="M161.76,35.43l2.52,3.29c.64.83,1.33,1.7,2.52,1.44a3.19,3.19,0,0,0,1.36-.8c.5-.43,1-.89,1.46-1.34,1-1,2-1.93,3-2.92.45-.46-.26-1.17-.71-.71-.79.81-1.6,1.61-2.42,2.4L168.21,38A7.47,7.47,0,0,1,167,39c-1.06.63-1.65-.52-2.2-1.24l-2.17-2.84c-.39-.5-1.26,0-.87.51Z" transform="translate(-0.01 -1.07)"/>
        <path class="cls-2" d="M166.46,39.26A108.66,108.66,0,0,1,167,21.77c.07-.64-.93-.64-1,0a108.66,108.66,0,0,0-.51,17.49c0,.64,1,.64,1,0Z" transform="translate(-0.01 -1.07)"/>
      </g>
      <g>
        <path class="cls-2" d="M146.79,6.47c-1.62,2.41-3.2,5.27-2.82,8.28a6.73,6.73,0,0,0,4.24,5.53c.6.23.86-.74.26-1a5.74,5.74,0,0,1-3.55-5c-.16-2.68,1.29-5.16,2.73-7.3.37-.53-.5-1-.86-.5Z" transform="translate(-0.01 -1.07)"/>
        <path class="cls-2" d="M150.78,9.16c-2.18.51-3.25,2.69-3.52,4.74a4.28,4.28,0,0,0,0,1.71,1.68,1.68,0,0,0,1,1,11.4,11.4,0,0,0,3.54.86c.64.06.64-.94,0-1a12.1,12.1,0,0,1-2.83-.65c-.38-.14-.73-.27-.76-.72a6,6,0,0,1,.13-1.34c.27-1.58,1.07-3.26,2.77-3.66.62-.15.36-1.11-.27-1Z" transform="translate(-0.01 -1.07)"/>
        <path class="cls-2" d="M153.46,15.1c0,.1,0,0,0,0l0-.13s0-.16,0,0c0,0,0-.06,0-.09a2.09,2.09,0,0,1,0-.25c0,.1,0,0,0,0a1,1,0,0,0,0-.17.56.56,0,0,0,0-.12v0a2.25,2.25,0,0,1,.12-.21,1.22,1.22,0,0,1,.12-.19c-.07.09,0,0,0,0l.13-.13a.27.27,0,0,1,.08-.07s.1-.08,0,0a1.64,1.64,0,0,1,.22-.14l.08,0c.12-.06-.09,0,0,0l.25-.07c.13,0-.1,0,0,0h.26l.22.06c.09,0,0,0,0,0l.13.07.1.06c.1.06,0,0,0,0a1.06,1.06,0,0,0,.15.15l.08.09h0l.15.23s.09.21.05.09c0,.07.05.15.08.22s0,.13,0,.2,0,.15,0,0a.49.49,0,0,0,0,.12,1.85,1.85,0,0,1,0,.23s0,.15,0,0l0,.08a.9.9,0,0,1-.06.22s0,.05,0,.07,0,0,0,0a.21.21,0,0,1-.06.1s-.07.11,0,0,0,0,0,0l-.1.1s-.13.1-.05.05l-.08,0a2.28,2.28,0,0,1-.3.17c.07,0,0,0,0,0l-.19.06-.29.07c-.16,0,.09,0-.07,0l-.2,0H154a7.72,7.72,0,0,1-1.28-.15.5.5,0,0,0-.61.35.5.5,0,0,0,.35.61,5.59,5.59,0,0,0,2.9,0,2.24,2.24,0,0,0,1.52-2,2.54,2.54,0,0,0-1.07-2.12,2.08,2.08,0,0,0-2.49.18,2.57,2.57,0,0,0-.83,1.22,2.21,2.21,0,0,0,.09,1.56.5.5,0,0,0,.87-.51Z" transform="translate(-0.01 -1.07)"/>
        <path class="cls-2" d="M157.35,17.58a3.13,3.13,0,0,0,2.33-.46,1.74,1.74,0,0,0,.75-1.88,1.8,1.8,0,0,0-1.86-1.36c-.29,0-.6.11-.84-.09a.8.8,0,0,1-.27-.72.87.87,0,0,1,.54-.54,1.77,1.77,0,0,1,1.26,0c.61.19.88-.77.27-1a2.65,2.65,0,0,0-2.41.34,1.66,1.66,0,0,0-.49,2.07,1.68,1.68,0,0,0,.84.82,2.47,2.47,0,0,0,1.18.08.77.77,0,0,1,.71.38,1.25,1.25,0,0,1,.13.35v.15s0,.18,0,.13c-.26.64-1.2.84-1.85.74A.51.51,0,0,0,157,17a.5.5,0,0,0,.35.61Z" transform="translate(-0.01 -1.07)"/>
        <path class="cls-2" d="M162.73,9.2a2.6,2.6,0,0,0-1.45,1.7,5.93,5.93,0,0,0-.43,2.53,8.66,8.66,0,0,0,.3,1.75,4.9,4.9,0,0,0,.71,1.68,1.35,1.35,0,0,0,1.71.44A3.24,3.24,0,0,0,165,15.64a6.86,6.86,0,0,0,.7-4.12c-.26-1.33-1.51-2.67-3-2.32a.5.5,0,0,0,.26,1c.81-.19,1.49.67,1.68,1.36a5.15,5.15,0,0,1-.31,3.07c-.15.42-1.05,2.48-1.68,1.7a3.2,3.2,0,0,1-.52-1.23,9,9,0,0,1-.27-1.17,5.25,5.25,0,0,1,.11-2c.13-.52.41-1.51,1-1.72S163.33,9,162.73,9.2Z" transform="translate(-0.01 -1.07)"/>
        <path class="cls-2" d="M161.87,13.85A14.09,14.09,0,0,0,165,13.4a.49.49,0,0,0,.35-.61.5.5,0,0,0-.61-.35,13,13,0,0,1-2.91.41.51.51,0,0,0-.5.5.51.51,0,0,0,.5.5Z" transform="translate(-0.01 -1.07)"/>
        <path class="cls-2" d="M167.54,14.51l-2,4.49a.53.53,0,0,0,.18.69.51.51,0,0,0,.69-.18l2-4.49a.52.52,0,0,0-.17-.69.51.51,0,0,0-.69.18Z" transform="translate(-0.01 -1.07)"/>
        <path class="cls-2" d="M174.09,9.24a2.76,2.76,0,0,0-2.54.19,2.53,2.53,0,0,0-1.28,2.21c.14,1.2,1.87.7,2.67.78a1,1,0,0,1,.92.54,1.29,1.29,0,0,1-.18,1.21,2.63,2.63,0,0,1-1.19.89,1.48,1.48,0,0,1-1.4,0,.52.52,0,0,0-.71,0,.51.51,0,0,0,0,.71c1.65,1.29,4.65-.39,4.56-2.46a2,2,0,0,0-.61-1.37,2.33,2.33,0,0,0-1.39-.52c-.5,0-1,0-1.51,0h-.22c.08,0,0,0,.07-.09a1.75,1.75,0,0,1,.22-.53,1.81,1.81,0,0,1,2.09-.71.5.5,0,0,0,.5-.87Z" transform="translate(-0.01 -1.07)"/>
        <path class="cls-2" d="M176.18,15.77a15.41,15.41,0,0,1,.09-3.46.5.5,0,0,0-1,0,15.41,15.41,0,0,0-.09,3.46.5.5,0,1,0,1,0Z" transform="translate(-0.01 -1.07)"/>
        <path class="cls-2" d="M176.78,12.53v3.39a.5.5,0,0,0,.5.5.51.51,0,0,0,.5-.5,6.7,6.7,0,0,1,.25-1.73,6.34,6.34,0,0,1,.29-.87,2.41,2.41,0,0,1,.15-.33l.06-.09s0,0,0,0l.08-.08c.07-.07,0,0,0,0s-.15,0-.12-.05.06.15,0,.06c0,.08,0,.16.08.23a7.32,7.32,0,0,1,.21.9,5.7,5.7,0,0,1,0,1.7.53.53,0,0,0,.35.61.51.51,0,0,0,.62-.35,7.47,7.47,0,0,0,0-1.83,5,5,0,0,0-.46-1.78.91.91,0,0,0-.76-.49,1.08,1.08,0,0,0-.79.42,3.2,3.2,0,0,0-.44.84,8,8,0,0,0-.57,2.86h1V12.53a.51.51,0,0,0-.5-.5.5.5,0,0,0-.5.5Z" transform="translate(-0.01 -1.07)"/>
        <path class="cls-2" d="M181.25,8.54a11.21,11.21,0,0,0-.44,4.94,2.62,2.62,0,0,0,1,1.65,2.14,2.14,0,0,0,1.94.16,3.33,3.33,0,0,0,1.8-3.46,4.93,4.93,0,0,0-1.67-3.32A2.94,2.94,0,0,0,182,7.64c-.68,0-1.32.44-1.16,1.19s1.1.36,1-.26c0,.15-.11.11.12.08a.75.75,0,0,1,.42,0,3.58,3.58,0,0,1,1.13.8,4,4,0,0,1,1.08,2.42,2.41,2.41,0,0,1-1.11,2.42,1.11,1.11,0,0,1-1.21-.15,1.93,1.93,0,0,1-.52-1.19,11.32,11.32,0,0,1,.48-4.2c.15-.62-.81-.89-1-.26Z" transform="translate(-0.01 -1.07)"/>
        <path class="cls-2" d="M181.39,13.17a9.82,9.82,0,0,1,3.59-.76.5.5,0,0,0,0-1,11,11,0,0,0-4.1.9.51.51,0,0,0-.18.68.53.53,0,0,0,.69.18Z" transform="translate(-0.01 -1.07)"/>
        <path class="cls-2" d="M184.35,5.85a7.69,7.69,0,0,1,4,5.42,6.4,6.4,0,0,1-.28,3.25c-.45,1.23-1.5,2.56-3,2.09-.62-.2-.88.76-.27,1a3.23,3.23,0,0,0,3.74-1.77,7.15,7.15,0,0,0,.83-4.06A8.64,8.64,0,0,0,184.85,5c-.56-.31-1.07.56-.5.86Z" transform="translate(-0.01 -1.07)"/>
      </g>
    </g>
  </g>
</svg>
