<svg xmlns="http://www.w3.org/2000/svg" viewBox="0 0 251.08 200.59">
  <defs>
    <style>
      .cls-1 {
        fill: #bcbec0;
      }

      .cls-2 {
        fill: #808285;
      }

      .cls-3 {
        fill: #231f20;
      }

      .cls-4 {
        fill: #ed1c24;
      }

      .cls-5 {
        fill: #00aeef;
      }
    </style>
  </defs>
  <title>symmetry-identities-2_1</title>
  <g id="Layer_2" data-name="Layer 2">
    <g id="Layer_1-2" data-name="Layer 1">
      <g>
        <path class="cls-1" d="M162.32,48a14.63,14.63,0,0,0,.08,6.35,1,1,0,1,0,1.93-.53,12.58,12.58,0,0,1-.08-5.29,1,1,0,0,0-.7-1.23,1,1,0,0,0-1.23.7Z" transform="translate(-0.01 -1.07)"/>
        <path class="cls-1" d="M162.81,58.55a31.89,31.89,0,0,0,.14,5.26,1,1,0,0,0,1,1,1,1,0,0,0,1-1,31.89,31.89,0,0,1-.14-5.26,1,1,0,0,0-1-1,1,1,0,0,0-1,1Z" transform="translate(-0.01 -1.07)"/>
        <path class="cls-1" d="M164.13,70.75a15.36,15.36,0,0,0,.14,3.65,1,1,0,0,0,1.23.7,1.06,1.06,0,0,0,.6-.46,1.2,1.2,0,0,0,.1-.77l0-.19,0,.26a14.16,14.16,0,0,1-.08-3.19,1,1,0,0,0-1-1,1,1,0,0,0-1,1Z" transform="translate(-0.01 -1.07)"/>
        <path class="cls-1" d="M164.43,78.45l.45,4.31a1.05,1.05,0,0,0,.29.71,1,1,0,0,0,.71.29,1,1,0,0,0,1-1l-.45-4.31a1.1,1.1,0,0,0-.29-.71,1.05,1.05,0,0,0-.71-.29,1,1,0,0,0-1,1Z" transform="translate(-0.01 -1.07)"/>
        <path class="cls-1" d="M164.57,87.27c0,1.06.05,2.13.13,3.19a1.06,1.06,0,0,0,.3.7,1,1,0,0,0,.7.3,1,1,0,0,0,1-1c-.08-1.06-.13-2.13-.13-3.19a1,1,0,1,0-2,0Z" transform="translate(-0.01 -1.07)"/>
        <path class="cls-1" d="M164.86,94v2.44a1,1,0,0,0,.29.7,1,1,0,0,0,1.71-.7V94a1,1,0,0,0-.29-.71,1,1,0,0,0-.71-.29,1,1,0,0,0-1,1Z" transform="translate(-0.01 -1.07)"/>
        <path class="cls-1" d="M166.42,105.72a1,1,0,0,0,0-2,1,1,0,0,0,0,2Z" transform="translate(-0.01 -1.07)"/>
        <path class="cls-1" d="M165.4,104.8a3.93,3.93,0,0,0-.3.62,2.13,2.13,0,0,0-.13.45,3.26,3.26,0,0,0,0,1.39,1,1,0,0,0,.46.6,1,1,0,0,0,.77.1,1,1,0,0,0,.7-1.23,1.55,1.55,0,0,1,0-.21l0,.26a2.26,2.26,0,0,1,0-.58l0,.27a2.44,2.44,0,0,1,.14-.53l-.1.24a2.64,2.64,0,0,1,.2-.37,1,1,0,0,0,.1-.77,1,1,0,0,0-.46-.59,1,1,0,0,0-.77-.11,1.15,1.15,0,0,0-.6.46Z" transform="translate(-0.01 -1.07)"/>
        <path class="cls-1" d="M165,112.85a5.87,5.87,0,0,0-.47,4.53,1,1,0,0,0,1.93-.54c-.05-.16-.09-.32-.13-.48l0-.18c0-.11,0-.09,0,.08,0,0,0-.09,0-.13a4.51,4.51,0,0,1,0-.9.38.38,0,0,1,0-.1c0-.11,0-.08,0,.08a1.72,1.72,0,0,0,0-.24,3.39,3.39,0,0,1,.11-.43c0-.08.05-.16.07-.23s.08-.13.07-.18l0,.07.06-.12c0-.07.07-.14.11-.22a1,1,0,0,0-1.72-1Z" transform="translate(-0.01 -1.07)"/>
        <path class="cls-1" d="M164.86,121.35a13.15,13.15,0,0,0,.3,5.58,1,1,0,0,0,1.23.7,1,1,0,0,0,.7-1.23,12.24,12.24,0,0,1-.27-1.2c0-.09,0-.18,0-.28s0-.12,0,0c0,0,0-.1,0-.14,0-.21,0-.41-.05-.61,0-.41,0-.82,0-1.23,0-.19,0-.38,0-.57l0-.28c0-.12,0-.12,0,0l0-.19a1,1,0,0,0-.7-1.23,1,1,0,0,0-1.23.7Z" transform="translate(-0.01 -1.07)"/>
        <path class="cls-1" d="M165.35,130.62a14.37,14.37,0,0,0,.17,4.39,1,1,0,0,0,1.23.7,1,1,0,0,0,.7-1.23c0-.17-.06-.34-.09-.51s0-.08,0-.12c0,.14,0,.15,0,0l0-.24q0-.49-.06-1a13.73,13.73,0,0,1,.09-2,1,1,0,0,0-.29-.71,1.05,1.05,0,0,0-.71-.29,1,1,0,0,0-.71.29,1.16,1.16,0,0,0-.29.71Z" transform="translate(-0.01 -1.07)"/>
        <path class="cls-1" d="M165.66,138.7l-.22,4.51a1,1,0,0,0,1,1,1,1,0,0,0,1-1l.22-4.51a1,1,0,0,0-2,0Z" transform="translate(-0.01 -1.07)"/>
        <path class="cls-1" d="M165.9,147.61a15.1,15.1,0,0,0-.26,4.45,1,1,0,0,0,.61.91,1,1,0,0,0,1.1-.21l.18-.2a1,1,0,0,0,0-1.41,1,1,0,0,0-1.42,0l-.18.2,1.71.71a14.21,14.21,0,0,1,0-2.06,8.42,8.42,0,0,1,.09-1c-.05.25,0,0,0-.06a2,2,0,0,1,0-.24c0-.18.06-.37.1-.55a1,1,0,0,0-1.93-.53Z" transform="translate(-0.01 -1.07)"/>
        <path class="cls-1" d="M166.36,154a40.52,40.52,0,0,0-.58,6.41,1,1,0,0,0,2,0l0-.51a1,1,0,0,0-1-1,1,1,0,0,0-1,1l0,.51h2c0-1,.06-2,.14-3s.2-1.87.37-2.85a1,1,0,0,0-.7-1.23,1,1,0,0,0-1.23.7Z" transform="translate(-0.01 -1.07)"/>
      </g>
      <path class="cls-2" d="M107.27,26.7a119.84,119.84,0,0,1,22.49,2.93,79.41,79.41,0,0,1,24.91,10.8,82.29,82.29,0,0,1,14.9,12.86,92,92,0,0,1,14,20,70,70,0,0,1,7.74,27.76A74.8,74.8,0,0,1,182,141.48a76.57,76.57,0,0,1-13,16.89,74,74,0,0,1-19.65,14.1,88.33,88.33,0,0,1-24.38,7.59,94.25,94.25,0,0,1-25.55.54,90.14,90.14,0,0,1-24.48-6.35A79.75,79.75,0,0,1,53.42,161a78.77,78.77,0,0,1-16.34-20,83,83,0,0,1-9.79-26.17,73.67,73.67,0,0,1,.42-29.69A72.86,72.86,0,0,1,38.93,59.67,75.92,75.92,0,0,1,55.72,42.33,82.55,82.55,0,0,1,75.08,31.49a69.76,69.76,0,0,1,18.57-4.68,91.07,91.07,0,0,1,13.62-.11c1.29.07,1.29-1.93,0-2a88.38,88.38,0,0,0-14.09.16,66.7,66.7,0,0,0-9.42,1.72A83.58,83.58,0,0,0,44.93,49.22,74.45,74.45,0,0,0,24,100.69a80.28,80.28,0,0,0,5.42,28.9,86,86,0,0,0,13.76,23.72A78,78,0,0,0,62.62,170.2a87,87,0,0,0,23.9,10.05A95.14,95.14,0,0,0,138.26,179a78.58,78.58,0,0,0,23.79-12,81.78,81.78,0,0,0,17.14-17.46A71.61,71.61,0,0,0,186.44,137a77.87,77.87,0,0,0,6.25-21.49A72.28,72.28,0,0,0,190.3,84.6a82.8,82.8,0,0,0-10-20.76A89,89,0,0,0,162,43.39a78,78,0,0,0-17.6-10.86,91.14,91.14,0,0,0-27.3-7.1c-3.26-.36-6.54-.56-9.83-.73C106,24.63,106,26.63,107.27,26.7Z" transform="translate(-0.01 -1.07)"/>
      <g>
        <path class="cls-3" d="M106.31,10.14l4.19-7.58h-1.73a40.21,40.21,0,0,0,5.61,7.66c.88.94,2.29-.48,1.42-1.42a37,37,0,0,1-5.3-7.25,1,1,0,0,0-1.73,0l-4.19,7.58c-.62,1.13,1.11,2.14,1.73,1Z" transform="translate(-0.01 -1.07)"/>
        <path class="cls-3" d="M102.08,193.79l2.67,4.79c.64,1.16,1.6,3.83,3.41,2.88a11.54,11.54,0,0,0,2-1.67l2-1.74,2-1.79a5.48,5.48,0,0,0,1.43-1.75,1,1,0,1,0-1.73-1c-.53,1.14-1.79,1.95-2.72,2.76l-3.36,3a2.43,2.43,0,0,0-.34.3c-.25.14-.23.2,0,.17s.25.07.19,0a5.62,5.62,0,0,0-.5-.88l-1.07-1.94-2.27-4.07c-.63-1.13-2.36-.12-1.73,1Z" transform="translate(-0.01 -1.07)"/>
        <path class="cls-3" d="M109,3.73q.58,38.22.38,76.43-.21,38-1.2,76-.57,21.44-1.38,42.87c0,1.29,2,1.29,2,0q1.45-38.17,2.1-76.4.65-38,.51-76-.08-21.43-.41-42.89a1,1,0,0,0-2,0Z" transform="translate(-0.01 -1.07)"/>
      </g>
      <g>
        <path class="cls-3" d="M2.08,102.41c20.67,1,41.35.92,62,.15,10-.37,19.89-.5,29.86-.28q22.32.5,44.66.65c6.27,0,12.54,0,18.81,0q27.8,0,55.6.14l7.31,0a1,1,0,0,0,0-2Q191,101,161.58,101c-7,0-14,0-21,0q-21.46-.1-42.92-.58c-9.14-.2-18.25-.3-27.39,0-9.52.3-19,.71-28.55.8q-16.92.15-33.84-.5-2.91-.11-5.82-.24c-1.29-.06-1.29,1.94,0,2Z" transform="translate(-0.01 -1.07)"/>
        <path class="cls-3" d="M213.79,98.64a18.48,18.48,0,0,1,4.35,2.24,16.55,16.55,0,0,1,1.8,1.45c.08.07.78.82.82.8.09-.33.07-.42,0-.26l-.13.11c-.14.13-.29.25-.44.37-2.14,1.7-4.76,3.07-5.58,5.87a1,1,0,0,0,1.93.54,6.49,6.49,0,0,1,2.63-3.18c.63-.47,1.27-.92,1.9-1.4s1.46-1,1.66-1.84c.24-1-.54-1.69-1.18-2.29a20.85,20.85,0,0,0-2.19-1.79,20.24,20.24,0,0,0-5-2.54c-1.21-.43-1.74,1.5-.53,1.92Z" transform="translate(-0.01 -1.07)"/>
        <path class="cls-3" d="M9,92.94c-1.56,1.12-3.07,2.29-4.52,3.54-.72.62-1.42,1.26-2.11,1.91a12.76,12.76,0,0,0-1.9,2,1.91,1.91,0,0,0,0,2.39,3.39,3.39,0,0,0,1.08.65L3,104.1l5.51,2.55a1,1,0,0,0,1.37-.36,1,1,0,0,0-.36-1.37l-4.67-2.15-2.33-1.08c-.12-.06-.39-.25-.51-.23s-.14,0,0,.18a.25.25,0,0,1,0-.07c.07,0,.12-.19.18-.26a5.66,5.66,0,0,1,.42-.43A57.86,57.86,0,0,1,10,94.67a1,1,0,0,0-1-1.73Z" transform="translate(-0.01 -1.07)"/>
      </g>
      <g>
        <path class="cls-4" d="M176.85,30.67c-9.55,8.12-18.93,16.47-27.66,25.48-4.3,4.43-8.44,9-12.35,13.83-4.1,5-7.72,10.45-12,15.37a168.45,168.45,0,0,1-15.47,15.11,1,1,0,0,0,.71,1.71q18.8-1.62,37.67-1.75,9.43-.06,18.86.26c6.08.21,12.14.64,18.22.89,6.56.27,13.25.1,19.56-1.93,1.22-.39.7-2.32-.53-1.93-5.59,1.8-11.46,2.08-17.28,1.92-6-.17-12-.65-18-.88q-18.72-.7-37.46.07-10.55.44-21,1.35l.71,1.7A186.9,186.9,0,0,0,124.74,88.5c4.4-4.83,8-10.24,12.1-15.35A243.27,243.27,0,0,1,162.46,46c5.16-4.77,10.45-9.39,15.8-14,1-.84-.43-2.24-1.41-1.41Z" transform="translate(-0.01 -1.07)"/>
        <path class="cls-4" d="M197.85,95.92c1,.4,2,.83,3,1.3.49.24,1,.48,1.45.74l.78.42a3.63,3.63,0,0,0,.71.41c.18,0,.12.27.09-.24s0-.29-.24-.07l-.6.62-1.19,1.25L199.3,103c-.89.93.53,2.35,1.42,1.42l2.92-3.06c.5-.52,1-1,1.49-1.56a1.65,1.65,0,0,0,.38-2,4.14,4.14,0,0,0-1.6-1.15c-.57-.32-1.14-.62-1.72-.91-1.24-.61-2.52-1.17-3.81-1.68a1,1,0,0,0-1.23.7,1,1,0,0,0,.7,1.23Z" transform="translate(-0.01 -1.07)"/>
        <path class="cls-4" d="M170.76,31.51c1.16-.07,2.32-.11,3.49-.12.55,0,1.11,0,1.67,0,.22,0,.45,0,.67,0s-.06,0,.13,0l.25.07c-.06,0-.05,0,0,0-.06-.06-.07-.06,0,0s0,0,0,0,0-.05,0,0,0,.09,0,.09,0,.25-.07.32c-.14.52-.34,1-.52,1.52l-1.14,3.31a1,1,0,0,0,.69,1.23,1,1,0,0,0,1.24-.7l1.28-3.7c.42-1.22,1-2.7-.26-3.65-.95-.74-2.35-.57-3.47-.57-1.32,0-2.65.05-4,.13a1,1,0,0,0-1,1,1,1,0,0,0,1,1Z" transform="translate(-0.01 -1.07)"/>
      </g>
      <path class="cls-4" d="M124.63,88.67a8.44,8.44,0,0,1,5.43,10,1,1,0,0,0,1.92.53,10.46,10.46,0,0,0-6.82-12.46c-1.23-.38-1.76,1.55-.53,1.93Z" transform="translate(-0.01 -1.07)"/>
      <path class="cls-4" d="M161.87,45.07l0-.17.07.53a1.82,1.82,0,0,1,0-.33l-.07.53a1.67,1.67,0,0,1,.08-.32l-.2.48a1.9,1.9,0,0,1,.23-.39l-.31.41a2,2,0,0,1,.33-.32l-.41.31a2.4,2.4,0,0,1,.46-.27l-.48.2a3.23,3.23,0,0,1,.51-.14l-.53.07a2.36,2.36,0,0,1,.46,0l-.53-.08a1.78,1.78,0,0,1,.33.09l-.47-.2a2,2,0,0,1,.35.21l-.4-.31a2,2,0,0,1,.29.29l-.32-.4a2.1,2.1,0,0,1,.24.41l-.21-.48a1.91,1.91,0,0,1,.14.52l-.07-.54a2,2,0,0,1,0,.6l.07-.53a1.75,1.75,0,0,1-.14.51l.2-.48a2.06,2.06,0,0,1-.23.41l.31-.41a1.48,1.48,0,0,1-.25.25l.4-.31a1.59,1.59,0,0,1-.35.22l.47-.21a1.37,1.37,0,0,1-.45.13l.54-.07a2.44,2.44,0,0,1-.54,0l.54.07a2.38,2.38,0,0,1-.58-.16l.48.21a2.35,2.35,0,0,1-.46-.28l.4.32a2.57,2.57,0,0,1-.33-.33l.31.4a2.5,2.5,0,0,1-.21-.35l.2.48a2.11,2.11,0,0,1-.12-.43l.07.53a3.69,3.69,0,0,1,0-.47l-.07.53a2.35,2.35,0,0,1,.14-.52l-.2.48a2.37,2.37,0,0,1,.31-.53l-.31.41a2,2,0,0,1,.39-.38l-.41.31a3.38,3.38,0,0,1,.41-.24l-.48.2a2.08,2.08,0,0,1,.53-.14l-.53.07a2,2,0,0,1,.55,0l-.53-.07a2.43,2.43,0,0,1,.6.17l-.47-.21a3.65,3.65,0,0,1,.54.32l-.41-.31a2.34,2.34,0,0,1,.44.45l-.31-.41a2.6,2.6,0,0,1,.28.49l-.2-.48a2.75,2.75,0,0,1,.11.41l-.07-.53a2,2,0,0,1,0,.42l.07-.54a1.1,1.1,0,0,1-.06.26l.2-.47a1.42,1.42,0,0,1-.14.23l.32-.41a1.85,1.85,0,0,1-.14.14l.41-.31a1,1,0,0,1-.2.11l.48-.2a1.66,1.66,0,0,1-.21.06l.53-.08H163l.53.07a1.29,1.29,0,0,1-.28-.08l.48.2a1.28,1.28,0,0,1-.25-.15l.41.32-.17-.16.32.4a.76.76,0,0,1-.12-.19l.2.48a1.09,1.09,0,0,1-.07-.24l.07.53a1.22,1.22,0,0,1,0-.27L164,46a1.92,1.92,0,0,1,.09-.32l-.2.48a1.22,1.22,0,0,1,.17-.29l-.32.4A1.81,1.81,0,0,1,164,46l-.4.31a1.38,1.38,0,0,1,.29-.17l-.48.2a1.25,1.25,0,0,1,.26-.07l-.53.07a1.22,1.22,0,0,1,.33,0l-.53-.07a1.64,1.64,0,0,1,.38.1l-.47-.2a2.39,2.39,0,0,1,.34.21l-.4-.31a2.47,2.47,0,0,1,.28.28l-.32-.4a1.38,1.38,0,0,1,.17.29l-.2-.48a1.68,1.68,0,0,1,.09.32l-.08-.53a.92.92,0,0,1,0,.33l.07-.53a1.14,1.14,0,0,1-.09.3l.21-.47a1.61,1.61,0,0,1-.17.28L163,45a2.37,2.37,0,0,1-.27.28l.4-.31a1.81,1.81,0,0,1-.33.2l.48-.2a2.66,2.66,0,0,1-.38.1l.53-.07h-.32l.53.07a1.11,1.11,0,0,1-.3-.08l.48.2a1.59,1.59,0,0,1-.26-.14l.4.31a2,2,0,0,1-.25-.25l.31.4a1.23,1.23,0,0,1-.21-.37l.2.48a1.4,1.4,0,0,1-.1-.35l.07.53a2,2,0,0,1,0-.42l-.07.54a1.38,1.38,0,0,1,.08-.29l-.2.48a1.3,1.3,0,0,1,.08-.17l-1.73,1h.07l-.54-.07.19,0-.48-.2.11.06-.41-.31,0,0-.32-.41a.21.21,0,0,1,.06.1l-.2-.48v.06l-.07-.54v0l.07-.53v0l.2-.47,0,0,.31-.4,0,0,.41-.31h0l.47-.2-.07,0,.53-.07h-.07l.53.07h0l.48.2h0l.4.31,0,0,.32.4v0l.27,1v0l-.07.53v0a2,2,0,0,0-3.86-1.07,2.08,2.08,0,0,0,1.45,2.58,2.27,2.27,0,0,0,2.18-.55,2.2,2.2,0,0,0,.28-2.68A2.58,2.58,0,0,0,162.17,43a2,2,0,0,0-1.72,1,3.48,3.48,0,0,0,0,3.34,3.28,3.28,0,0,0,1.19,1.26,3,3,0,0,0,1.68.48,3.55,3.55,0,0,0,3-1.72,3.21,3.21,0,0,0,.44-1.76,3.27,3.27,0,0,0-.17-.88,3.7,3.7,0,0,0-.68-1.17,3.08,3.08,0,0,0-1.26-.91,3.33,3.33,0,0,0-2-.2,3.27,3.27,0,0,0-2.44,2.47,3,3,0,0,0,.33,2.18,3.1,3.1,0,0,0,1.43,1.22,2.91,2.91,0,0,0,3.64-1.1,3.49,3.49,0,0,0-.08-3.53,4.53,4.53,0,0,0-2.46-2,2,2,0,0,0-.47-.12,4.37,4.37,0,0,0-.95-.09,4,4,0,0,0-3.74,2.86,3.68,3.68,0,0,0,.33,3.07,4.05,4.05,0,0,0,2.31,1.75,4,4,0,0,0,3-.29,3.7,3.7,0,0,0,1.77-2.28,3.76,3.76,0,1,0-7.2-2.14,3.31,3.31,0,0,0,0,1.71,2,2,0,0,0,2.46,1.39,2,2,0,0,0,1.39-2.46Z" transform="translate(-0.01 -1.07)"/>
      <g>
        <path class="cls-4" d="M157.47,34.55l2.46,3.2c.62.82,1.3,1.67,2.46,1.41a3.15,3.15,0,0,0,1.33-.78c.49-.42.95-.87,1.42-1.31,1-.93,2-1.87,2.89-2.84.45-.46-.25-1.17-.7-.71-.78.79-1.56,1.57-2.36,2.33L163.76,37a7.66,7.66,0,0,1-1.19,1c-1,.6-1.59-.51-2.12-1.21L158.34,34c-.39-.5-1.26,0-.87.51Z" transform="translate(-0.01 -1.07)"/>
        <path class="cls-4" d="M162.07,38.27a107.65,107.65,0,0,1,.49-17c.07-.64-.93-.63-1,0a107.65,107.65,0,0,0-.49,17c0,.64,1,.64,1,0Z" transform="translate(-0.01 -1.07)"/>
      </g>
      <g>
        <g>
          <path class="cls-5" d="M179.1,171.82c-9.55-8.11-18.93-16.44-27.66-25.43-4.3-4.43-8.44-9-12.35-13.8-4.1-5-7.72-10.44-12-15.35a170.76,170.76,0,0,0-15.47-15.08l-.7,1.71q11.47-.9,23-1,7.44-.07,14.88.2c4.22.17,8.43.44,12.65.71,7.09.45,14.18.91,21.27,1.34q10.22.62,20.45,1.16l1.77.09c1.29.07,1.29-1.93,0-2q-9.6-.51-19.2-1.07-11.16-.66-22.32-1.39c-4.41-.29-8.82-.58-13.23-.78q-7-.3-13.95-.28-11.09,0-22.15.8l-3.18.24a1,1,0,0,0-.71,1.71,188.54,188.54,0,0,1,13.92,13.34c4.4,4.82,8,10.23,12.1,15.32a242.89,242.89,0,0,0,25.62,27.08c5.16,4.76,10.45,9.37,15.8,13.92,1,.83,2.4-.58,1.42-1.42Z" transform="translate(-0.01 -1.07)"/>
          <path class="cls-5" d="M200.14,101.07l2.44,2.56,1.2,1.24.65.69c.06,0,.15.2.22.23a.87.87,0,0,0,0-.61s-.05,0-.11.06a4.13,4.13,0,0,0-.7.41l-.71.38c-.48.26-1,.51-1.45.74-1,.49-2,.93-3,1.33a1,1,0,0,0-.7,1.23,1,1,0,0,0,1.23.7c1.26-.49,2.51-1,3.73-1.64.6-.3,1.2-.61,1.8-.94a4,4,0,0,0,1.59-1.15,1.63,1.63,0,0,0-.37-2c-.47-.51-1-1-1.44-1.5l-3-3.11c-.89-.94-2.3.48-1.41,1.41Z" transform="translate(-0.01 -1.07)"/>
          <path class="cls-5" d="M171.6,174.39c1.29.08,2.6.12,3.9.13,1.14,0,2.57.18,3.53-.56,1.21-.94.7-2.39.28-3.58l-1.3-3.77a1,1,0,0,0-1.23-.7,1,1,0,0,0-.7,1.23l1.15,3.31c.17.5.37,1,.51,1.51a1.4,1.4,0,0,1,.08.34c0-.15,0,.17,0,0,0,.31-.05,0,0,0s-.08.09,0,0c-.1,0-.11.06,0,0l-.2.06-.14,0c.08,0,.09,0,0,0a5.94,5.94,0,0,1-.73,0c-.56,0-1.11,0-1.67,0q-1.74,0-3.48-.12a1,1,0,0,0-1,1,1,1,0,0,0,1,1Z" transform="translate(-0.01 -1.07)"/>
        </g>
        <path class="cls-5" d="M126.47,118.64c6.49-2.2,9.84-10,8.2-16.43a1,1,0,0,0-1.92.53c1.35,5.31-1.37,12.13-6.81,14-1.21.41-.69,2.35.53,1.93Z" transform="translate(-0.01 -1.07)"/>
      </g>
      <path class="cls-5" d="M165.93,161.52l0-.17.07.53a1.93,1.93,0,0,1,0-.34l-.07.54a1.68,1.68,0,0,1,.09-.32l-.2.47a2.08,2.08,0,0,1,.22-.38l-.31.41a2.57,2.57,0,0,1,.33-.33l-.4.32a2.07,2.07,0,0,1,.45-.27l-.47.2a2.19,2.19,0,0,1,.5-.14l-.53.07a1.77,1.77,0,0,1,.46,0l-.53-.07a1.89,1.89,0,0,1,.34.09l-.48-.2a1.88,1.88,0,0,1,.36.21l-.41-.31a2,2,0,0,1,.29.29l-.31-.4a2,2,0,0,1,.23.4l-.2-.47a2.73,2.73,0,0,1,.14.51l-.08-.53a2.41,2.41,0,0,1,0,.6l.07-.53a3.23,3.23,0,0,1-.14.51l.2-.48a2.23,2.23,0,0,1-.24.4l.31-.4a3,3,0,0,1-.25.25l.41-.31a2.6,2.6,0,0,1-.36.21l.48-.2a2.54,2.54,0,0,1-.45.13l.53-.07a2.35,2.35,0,0,1-.53,0l.53.07a2.38,2.38,0,0,1-.58-.16l.48.2a2.13,2.13,0,0,1-.46-.27l.4.31a1.72,1.72,0,0,1-.33-.33l.31.41a2.12,2.12,0,0,1-.21-.36l.2.48a2,2,0,0,1-.11-.42l.07.53a1.85,1.85,0,0,1,0-.47l-.08.53a3.07,3.07,0,0,1,.14-.52l-.2.48a2.54,2.54,0,0,1,.31-.53l-.31.41a2.4,2.4,0,0,1,.39-.39l-.41.32a1.91,1.91,0,0,1,.41-.24l-.47.2a1.88,1.88,0,0,1,.53-.14l-.53.07a2.53,2.53,0,0,1,.55,0l-.53-.07a3.38,3.38,0,0,1,.6.17l-.48-.2a3,3,0,0,1,.54.32l-.41-.31a2.68,2.68,0,0,1,.45.44l-.32-.4a2.31,2.31,0,0,1,.28.48l-.2-.48a2,2,0,0,1,.11.42l-.07-.54a1.48,1.48,0,0,1,0,.42l.08-.53a2,2,0,0,1-.07.26l.2-.48a1.83,1.83,0,0,1-.13.24l.31-.41a.93.93,0,0,1-.14.14l.41-.31a1.18,1.18,0,0,1-.19.11l.47-.2-.21,0,.53-.07H167l.53.07-.27-.08.47.2a1.2,1.2,0,0,1-.24-.15l.4.31a.81.81,0,0,1-.16-.16l.31.41a1,1,0,0,1-.12-.19l.2.47a1.68,1.68,0,0,1-.07-.24l.07.53a1.13,1.13,0,0,1,0-.26l-.07.53a1.25,1.25,0,0,1,.08-.32l-.2.48a1.38,1.38,0,0,1,.17-.29l-.31.4a1.75,1.75,0,0,1,.23-.24l-.4.31a1.22,1.22,0,0,1,.29-.17l-.48.2.26-.08-.53.07a1.82,1.82,0,0,1,.33,0l-.53-.07a1.72,1.72,0,0,1,.39.1l-.48-.2a1.73,1.73,0,0,1,.34.21l-.4-.32a2.57,2.57,0,0,1,.28.29l-.31-.4a2.54,2.54,0,0,1,.16.28l-.2-.47a1.5,1.5,0,0,1,.09.32l-.07-.54a1.82,1.82,0,0,1,0,.33l.07-.53a1.58,1.58,0,0,1-.09.31l.2-.48a1.61,1.61,0,0,1-.17.28l.32-.4a3.7,3.7,0,0,1-.28.28l.41-.32a1.68,1.68,0,0,1-.34.2l.48-.2a1.66,1.66,0,0,1-.38.11l.54-.07a1.82,1.82,0,0,1-.33,0l.54.07a1.57,1.57,0,0,1-.31-.08l.48.2a1.35,1.35,0,0,1-.26-.15l.4.32a2.06,2.06,0,0,1-.25-.26l.31.41a2,2,0,0,1-.21-.37l.2.48a3.57,3.57,0,0,1-.1-.35l.08.53a2,2,0,0,1,0-.42l-.07.53a2.29,2.29,0,0,1,.08-.28l-.2.47.08-.16-1.72,1h.06l-.53-.08.18,0-.48-.2a.24.24,0,0,1,.11.06l-.4-.32,0,0-.31-.4.06.09-.21-.47,0,.05-.08-.53v0l.07-.53v0l.2-.48,0,0,.31-.4,0,0,.4-.32,0,0,.48-.2-.08,0,.53-.07h-.07l.53.07h0l.48.2,0,0,.41.32,0,0,.31.4v0l.27,1v0l-.07.53v0a2,2,0,0,0-1.4-2.46,2.05,2.05,0,0,0-2.46,1.4,2.1,2.1,0,0,0,1.45,2.58,2.27,2.27,0,0,0,2.18-.56,2.17,2.17,0,0,0,.28-2.67,2.57,2.57,0,0,0-2.12-1.14,2,2,0,0,0-1.73,1,3.47,3.47,0,0,0,0,3.35,3.32,3.32,0,0,0,1.18,1.26,3.25,3.25,0,0,0,1.69.48,3.54,3.54,0,0,0,3-1.72,3.12,3.12,0,0,0,.44-1.76,3.78,3.78,0,0,0-.16-.89,4.42,4.42,0,0,0-.68-1.17,3.3,3.3,0,0,0-1.27-.91,3.41,3.41,0,0,0-2-.19,3.26,3.26,0,0,0-2.44,2.47,2.92,2.92,0,0,0,1.76,3.39,2.9,2.9,0,0,0,3.64-1.09,3.51,3.51,0,0,0-.08-3.54,4.62,4.62,0,0,0-2.46-2,2.47,2.47,0,0,0-.47-.11,4.31,4.31,0,0,0-1-.09,4,4,0,0,0-3.74,2.86,3.68,3.68,0,0,0,.33,3.07,4.09,4.09,0,0,0,2.31,1.75,4,4,0,0,0,3-.29,3.7,3.7,0,0,0,1.77-2.28,3.76,3.76,0,1,0-7.2-2.14,3.38,3.38,0,0,0,0,1.7,2,2,0,1,0,3.85-1.06Z" transform="translate(-0.01 -1.07)"/>
      <path class="cls-3" d="M165.17,98.56v6.6a1,1,0,0,0,2,0v-6.6a1,1,0,0,0-2,0Z" transform="translate(-0.01 -1.07)"/>
      <g>
        <path class="cls-4" d="M138.3,79.65c-1.33,3-2.79,6.34-1.8,9.65.78,2.64,3.1,5,6,4.66s5.19-2.93,6.29-5.57c1.24-3,1.24-6.52-1.35-8.82a6.64,6.64,0,0,0-9.05.28c-.92.9.5,2.31,1.42,1.41a4.63,4.63,0,0,1,5.85-.56c2.14,1.49,2.29,4.06,1.51,6.34-.68,2-2.12,4.22-4.25,4.82s-3.77-.92-4.42-2.76c-1-2.85.34-5.84,1.49-8.44a1,1,0,0,0-.36-1.36,1,1,0,0,0-1.36.35Z" transform="translate(-0.01 -1.07)"/>
        <path class="cls-4" d="M139.17,88.07l5.07-3c.8-.48,1.59-1,2.43-1.44.38-.18,1.05-.39,1.12.12a1,1,0,1,0,1.93-.53,2.29,2.29,0,0,0-2.12-1.78,5.5,5.5,0,0,0-3.17,1.18l-6.27,3.76a1,1,0,0,0,1,1.72Z" transform="translate(-0.01 -1.07)"/>
      </g>
      <g>
        <path class="cls-5" d="M145.43,111c-1,2.92-2,6-1.34,9.14.48,2.24,2.08,5,4.72,4.79s4.43-3.18,5.2-5.51c.91-2.73,1.07-5.92-.75-8.33a4.61,4.61,0,0,0-7.59-.14,1,1,0,0,0,0,1.41,1,1,0,0,0,1.41,0,3.13,3.13,0,0,1,2.33-1.34,2.82,2.82,0,0,1,2.17,1.14c1.46,1.8,1.25,4.25.63,6.33a9.57,9.57,0,0,1-1.39,2.92,3.37,3.37,0,0,1-2,1.51c-1.77.27-2.62-2.18-2.86-3.5-.5-2.66.52-5.42,1.37-7.89.42-1.21-1.51-1.74-1.93-.53Z" transform="translate(-0.01 -1.07)"/>
        <path class="cls-5" d="M146.52,119.12l3.89-3c.62-.47,1.22-1,1.87-1.42a1.46,1.46,0,0,1,.35-.18c.19,0-.07,0,.08,0s0,0,0,0,0,0,0,0,0,0,0,0,0,.14,0,0a1,1,0,0,0,1,1,1,1,0,0,0,1-1,2.16,2.16,0,0,0-1.64-2c-1.08-.23-2,.49-2.75,1.11l-4.85,3.74a1,1,0,1,0,1,1.72Z" transform="translate(-0.01 -1.07)"/>
      </g>
      <path class="cls-5" d="M134.58,117.86q3.43-.49,6.88-.81a1,1,0,0,0,1-1,1,1,0,0,0-1-1c-2.48.22-5,.52-7.41.88a1,1,0,0,0-.7,1.23,1,1,0,0,0,1.23.7Z" transform="translate(-0.01 -1.07)"/>
      <g>
        <path class="cls-4" d="M133.46,3.44c-2.12,3.14-4.19,6.89-3.69,10.82a8.69,8.69,0,0,0,5.46,7.13c.6.23.86-.74.27-1a7.69,7.69,0,0,1-4.78-6.66c-.27-3.6,1.67-6.95,3.61-9.83.36-.53-.51-1-.87-.5Z" transform="translate(-0.01 -1.07)"/>
        <path class="cls-4" d="M138.62,7.05c-2.81.66-4.17,3.48-4.53,6.12a5.52,5.52,0,0,0,0,2.18,2,2,0,0,0,1.21,1.25,15.07,15.07,0,0,0,4.58,1.12c.64.06.64-.94,0-1a15.66,15.66,0,0,1-3.76-.86c-.57-.21-1.08-.43-1.12-1.11a8.32,8.32,0,0,1,.17-1.8c.37-2.14,1.47-4.4,3.76-4.93.63-.15.36-1.12-.27-1Z" transform="translate(-0.01 -1.07)"/>
        <path class="cls-4" d="M142,14.81a1.57,1.57,0,0,1,0-1.07,2.34,2.34,0,0,1,.63-1,1.94,1.94,0,0,1,1-.51,1.49,1.49,0,0,1,.47,0,1.24,1.24,0,0,1,.5.18,2.18,2.18,0,0,1,1,1.68,1.82,1.82,0,0,1-.19,1,1.26,1.26,0,0,1-.33.4,2,2,0,0,1-.6.39,5.91,5.91,0,0,1-3.23,0,.53.53,0,0,0-.62.35.51.51,0,0,0,.35.62,7.08,7.08,0,0,0,3.74,0,2.76,2.76,0,0,0,1.88-2.53,3.18,3.18,0,0,0-1.32-2.66,2.59,2.59,0,0,0-3.09.22,3,3,0,0,0-1,3.46.5.5,0,0,0,.69.18.51.51,0,0,0,.18-.68Z" transform="translate(-0.01 -1.07)"/>
        <path class="cls-4" d="M147.27,17.84a4,4,0,0,0,2.95-.59,2.13,2.13,0,0,0,.92-2.29,2.23,2.23,0,0,0-2.3-1.69c-.43,0-.87.16-1.23-.15a1.24,1.24,0,0,1-.4-1.07,1.26,1.26,0,0,1,.83-.86,2.57,2.57,0,0,1,1.75,0c.61.2.87-.76.26-1a3.3,3.3,0,0,0-3,.42,2.11,2.11,0,0,0,.42,3.54,3.3,3.3,0,0,0,1.5.09,1.22,1.22,0,0,1,1.21,1.57c-.38.94-1.74,1.17-2.61,1a.52.52,0,0,0-.62.35.5.5,0,0,0,.35.61Z" transform="translate(-0.01 -1.07)"/>
        <path class="cls-4" d="M154.35,7.11a3.35,3.35,0,0,0-1.8,2.12,7.76,7.76,0,0,0-.55,3.3,10.71,10.71,0,0,0,.39,2.25A6.35,6.35,0,0,0,153.3,17a1.63,1.63,0,0,0,2.06.52,4.15,4.15,0,0,0,1.8-2.13,8.78,8.78,0,0,0,.91-5.3c-.32-1.66-1.88-3.39-3.72-2.94-.62.15-.36,1.12.27,1,1.14-.27,2.13.92,2.4,1.89a7,7,0,0,1-.4,4.13c-.25.68-1.52,3.53-2.51,2.28a4.65,4.65,0,0,1-.7-1.65,10.93,10.93,0,0,1-.36-1.58,7.16,7.16,0,0,1,.15-2.69c.19-.75.59-2.09,1.42-2.38C155.22,7.86,155,6.9,154.35,7.11Z" transform="translate(-0.01 -1.07)"/>
        <path class="cls-4" d="M153.19,12.92a18.61,18.61,0,0,0,4.13-.58.5.5,0,0,0-.27-1,16.72,16.72,0,0,1-3.86.55c-.64,0-.65,1,0,1Z" transform="translate(-0.01 -1.07)"/>
        <path class="cls-4" d="M160.79,14l-2.58,5.91a.52.52,0,0,0,.18.69.5.5,0,0,0,.68-.18l2.58-5.91a.52.52,0,0,0-.18-.69.5.5,0,0,0-.68.18Z" transform="translate(-0.01 -1.07)"/>
        <path class="cls-4" d="M169.19,7.15A3.42,3.42,0,0,0,166,7.4a3.13,3.13,0,0,0-1.61,2.75c.09.75.79.92,1.43.92s1.29-.09,1.93,0a1.5,1.5,0,0,1,1.36.83,1.81,1.81,0,0,1-.25,1.71,3.61,3.61,0,0,1-1.64,1.24,2.1,2.1,0,0,1-2,0,.51.51,0,0,0-.71,0,.5.5,0,0,0,0,.7,3.31,3.31,0,0,0,3.69,0,3.54,3.54,0,0,0,2-3.09A2.44,2.44,0,0,0,167.76,10c-.66-.06-1.32,0-2,0-.07,0-.32,0-.38,0s0-.23,0-.3a2.1,2.1,0,0,1,.31-.72,2.54,2.54,0,0,1,3-1c.58.26,1.09-.6.5-.86Z" transform="translate(-0.01 -1.07)"/>
        <path class="cls-4" d="M171.87,15.61a21.07,21.07,0,0,1,.11-4.56c0-.27-.25-.5-.5-.5a.51.51,0,0,0-.5.5,21.07,21.07,0,0,0-.11,4.56.51.51,0,0,0,.5.5.51.51,0,0,0,.5-.5Z" transform="translate(-0.01 -1.07)"/>
        <path class="cls-4" d="M173,11.34V15.8a.5.5,0,0,0,1,0,9.56,9.56,0,0,1,.34-2.32,9,9,0,0,1,.38-1.14,2.06,2.06,0,0,1,.45-.77c.13-.12,0,0,0,0a1.23,1.23,0,0,1,.16.43,8,8,0,0,1,.28,1.17,7.52,7.52,0,0,1,0,2.32.53.53,0,0,0,.35.62.51.51,0,0,0,.62-.35,9,9,0,0,0,0-2.38,6.78,6.78,0,0,0-.57-2.26,1.05,1.05,0,0,0-.88-.56,1.24,1.24,0,0,0-.92.51,3.89,3.89,0,0,0-.54,1c-.14.36-.26.72-.37,1.09A11.14,11.14,0,0,0,173,15.8h1V11.34a.5.5,0,0,0-1,0Z" transform="translate(-0.01 -1.07)"/>
        <path class="cls-4" d="M178.86,6.13c-.5,2.06-1.05,4.3-.59,6.43a3.31,3.31,0,0,0,1.26,2.06,2.65,2.65,0,0,0,2.43.2c1.72-.67,2.4-2.69,2.26-4.4a6.36,6.36,0,0,0-2.15-4.26,3.75,3.75,0,0,0-2.35-1.1c-.79,0-1.56.49-1.38,1.37.13.63,1.1.36,1-.27,0,0,0,0,0,0a.57.57,0,0,1,.25-.08,1.2,1.2,0,0,1,.65.09,4.57,4.57,0,0,1,1.52,1.09,5.28,5.28,0,0,1,1.47,3.29c.07,1.22-.31,2.77-1.54,3.32a1.63,1.63,0,0,1-1.79-.22,2.79,2.79,0,0,1-.72-1.66,15,15,0,0,1,.64-5.59c.15-.62-.81-.89-1-.26Z" transform="translate(-0.01 -1.07)"/>
        <path class="cls-4" d="M178.81,12.05a12.84,12.84,0,0,1,4.81-1c.64,0,.65-1,0-1a14.51,14.51,0,0,0-5.32,1.15.51.51,0,0,0-.18.69.53.53,0,0,0,.69.18Z" transform="translate(-0.01 -1.07)"/>
        <path class="cls-4" d="M182.86,2.41a10.24,10.24,0,0,1,5.32,7.18,8.64,8.64,0,0,1-.34,4.37c-.61,1.71-2.07,3.58-4.11,2.9-.62-.2-.88.76-.27,1,3.35,1.11,5.4-2.66,5.77-5.41a10.59,10.59,0,0,0-2.14-7.71,11.46,11.46,0,0,0-3.72-3.17c-.57-.3-1.08.56-.51.87Z" transform="translate(-0.01 -1.07)"/>
      </g>
      <g>
        <g>
          <path class="cls-5" d="M176.69,155.54a37.57,37.57,0,0,0-3.92,4.7.5.5,0,0,0,.08.61,5.1,5.1,0,0,0,2.48.84l3,.59c.63.12.89-.85.26-1l-2.77-.54-1.33-.26a2,2,0,0,1-.93-.37l.07.61a34.57,34.57,0,0,1,3.77-4.5.5.5,0,0,0-.71-.71Z" transform="translate(-0.01 -1.07)"/>
          <path class="cls-5" d="M174.67,160.68A18.45,18.45,0,0,1,185,157.23a.5.5,0,0,0,0-1,19.36,19.36,0,0,0-10.84,3.59c-.52.37,0,1.23.51.86Z" transform="translate(-0.01 -1.07)"/>
        </g>
        <g>
          <path class="cls-5" d="M192.83,146.25c-1.52.48-2.2,2.36-2.81,3.68a17.49,17.49,0,0,0-1.57,5.09,10.38,10.38,0,0,0,.46,4.79,7.06,7.06,0,0,0,1.08,2.05c.34.43,1,.67,1.34.09s-.55-1.07-.86-.51l-.05.09.3-.23c.08,0-.31-.61-.35-.69a7,7,0,0,1-.42-.87,8.15,8.15,0,0,1-.47-1.74,10.55,10.55,0,0,1,.12-3.84,17.92,17.92,0,0,1,1.33-3.83c.29-.61.59-1.21.92-1.8a2.38,2.38,0,0,1,1.24-1.31c.62-.2.36-1.16-.26-1Z" transform="translate(-0.01 -1.07)"/>
          <path class="cls-5" d="M197,150.56a9.62,9.62,0,0,0-4.72,5.09,2.42,2.42,0,0,0,.9,2.86,5.9,5.9,0,0,0,2.37.94,10.38,10.38,0,0,0,1.85.21.5.5,0,0,0,0-1,9.39,9.39,0,0,1-1.67-.19,3.92,3.92,0,0,1-2.37-1.15,1.76,1.76,0,0,1,.07-1.86,7.76,7.76,0,0,1,.94-1.53,10.3,10.3,0,0,1,3.14-2.5c.56-.31.06-1.17-.51-.87Z" transform="translate(-0.01 -1.07)"/>
          <path class="cls-5" d="M199,155.9l0-.08c0,.08,0,0,0,0l.09-.16a1,1,0,0,1,.11-.17c0-.06,0,.05,0,0l.08-.08.13-.13s.15-.12.07-.07a2.5,2.5,0,0,1,.35-.21c.09,0,0,0,0,0l.08,0,.17-.05.18,0h.28l.19,0c-.09,0,.12.08,0,0l.08.07,0,.05s.07.11.11.17,0,.09,0,0l0,.07a.94.94,0,0,1,0,.16s0,0,0,.08c0-.12,0,0,0,0a1.71,1.71,0,0,1,0,.32c0-.11,0,0,0,.06l-.06.2,0,.07s0-.09,0,0-.05.09-.08.14l-.09.13s-.05.08,0,0l-.06.08-.13.13s-.14.1-.05.05l-.14.08-.06,0s-.12,0-.05,0,0,0,0,0l-.09,0-.14,0h-.51a4.94,4.94,0,0,1-.52-.13l-.46-.18a.5.5,0,0,0-.68.18.49.49,0,0,0,.18.68,3.45,3.45,0,0,0,2.45.36,2.23,2.23,0,0,0,1.4-1.35,2.13,2.13,0,0,0-.12-1.89,1.75,1.75,0,0,0-2.12-.66,2.67,2.67,0,0,0-1.7,1.67.5.5,0,0,0,1,.26Z" transform="translate(-0.01 -1.07)"/>
          <path class="cls-5" d="M204.94,153a3,3,0,0,0-1.41,1.31c-.28.74.4,1.24.95,1.58.16.1.43.24.47.45a.09.09,0,0,1,0,.09.77.77,0,0,1-.28.19,7.2,7.2,0,0,1-1.86.7c-.62.15-.36,1.12.27,1a9.12,9.12,0,0,0,2-.75c.58-.31,1.09-.85.82-1.56a1.71,1.71,0,0,0-.64-.79,6.36,6.36,0,0,1-.69-.46s-.08-.1-.08-.09.2-.22.25-.27a3.25,3.25,0,0,1,.72-.51c.57-.3.07-1.16-.5-.86Z" transform="translate(-0.01 -1.07)"/>
          <path class="cls-5" d="M209.34,147.92a11.1,11.1,0,0,0-2.58,6,7.25,7.25,0,0,0,.26,3.49,1.94,1.94,0,0,0,2.25,1.47.5.5,0,0,0-.27-1c-.93.25-1.23-1.31-1.3-1.94a9.47,9.47,0,0,1,.17-2.76,9.75,9.75,0,0,1,2.18-4.62c.42-.48-.28-1.19-.71-.71Z" transform="translate(-0.01 -1.07)"/>
          <path class="cls-5" d="M210.29,153.91a2.49,2.49,0,0,1,.37-.09l-.13,0a2.71,2.71,0,0,1,.57,0l-.13,0a2.22,2.22,0,0,1,.37.09.51.51,0,0,0,.62-.35.51.51,0,0,0-.35-.61,2.62,2.62,0,0,0-1.59,0,.57.57,0,0,0-.3.23.59.59,0,0,0-.05.39.52.52,0,0,0,.62.35Z" transform="translate(-0.01 -1.07)"/>
          <path class="cls-5" d="M213.07,150.87a7.75,7.75,0,0,0-.52,2.78,4.27,4.27,0,0,0,.67,2.71,1.31,1.31,0,0,0,2.16-.14,4.78,4.78,0,0,0,.44-2.69,14.32,14.32,0,0,0-.75-3.31.49.49,0,0,0-.48-.37.81.81,0,0,0-.72.43c-.3.57.56,1.07.86.5l-.14.07-.48-.37a13.73,13.73,0,0,1,.69,2.88,5.31,5.31,0,0,1,0,1.49c0,.26-.11.88-.39,1s-.54-.33-.61-.55a5.14,5.14,0,0,1-.21-1.35,6.75,6.75,0,0,1,.48-2.84.5.5,0,0,0-.35-.61.51.51,0,0,0-.62.35Z" transform="translate(-0.01 -1.07)"/>
          <path class="cls-5" d="M213.86,154.47l.3-.05-.13,0a5.57,5.57,0,0,1,1.29,0,.51.51,0,0,0,.5-.5.51.51,0,0,0-.5-.5,6.68,6.68,0,0,0-1.73.09.5.5,0,0,0-.3.23.53.53,0,0,0,0,.39.52.52,0,0,0,.62.35Z" transform="translate(-0.01 -1.07)"/>
          <path class="cls-5" d="M215.94,148.6a9.4,9.4,0,0,1,1.89,4.65,10,10,0,0,1,0,2.45,11,11,0,0,1-.26,1.27c0,.13-.27,1-.37,1-.64,0-.64,1,0,1,1-.05,1.26-1.43,1.45-2.23a10.27,10.27,0,0,0,.22-3.13,10.7,10.7,0,0,0-2.22-5.75c-.4-.51-1.1.21-.71.71Z" transform="translate(-0.01 -1.07)"/>
          <path class="cls-5" d="M220.47,156a1.23,1.23,0,0,0,0,.2c0-.11,0,.09,0,.12a4.15,4.15,0,0,1-.11.48,4.71,4.71,0,0,1-.44,1.15,5.33,5.33,0,0,1-1.3,1.61.5.5,0,0,0,.71.7,6.35,6.35,0,0,0,2.18-4.26.5.5,0,0,0-1,0Z" transform="translate(-0.01 -1.07)"/>
          <path class="cls-5" d="M227.19,148.45a2.07,2.07,0,0,0-1.78.48,6.56,6.56,0,0,0-1.37,1.26,2.39,2.39,0,0,0-.08,3.12,3.1,3.1,0,0,0,1.56.71c.4.1,1.11.25,1.18.75a1.91,1.91,0,0,1-.82,1.44,2.28,2.28,0,0,1-1,.45,1.52,1.52,0,0,1-.21,0c-.08,0-.09,0,0,.07-.12-.63-1.08-.36-1,.27s.83.7,1.35.62a3.3,3.3,0,0,0,1.58-.74c.89-.73,1.62-2.22.64-3.17a3.28,3.28,0,0,0-1.56-.71c-.57-.14-1.18-.32-1.25-1a2.08,2.08,0,0,1,.78-1.62c.4-.38,1.12-1.15,1.73-1a.5.5,0,0,0,.27-1Z" transform="translate(-0.01 -1.07)"/>
          <path class="cls-5" d="M229.42,156.15a13.94,13.94,0,0,1,.57-3.25.5.5,0,0,0-1-.26,14.91,14.91,0,0,0-.6,3.51.51.51,0,0,0,.5.5.5.5,0,0,0,.5-.5Z" transform="translate(-0.01 -1.07)"/>
          <path class="cls-5" d="M231,153.34l-.17,3.18c0,.55.89.69,1,.13a10.12,10.12,0,0,1,.5-1.89,8.93,8.93,0,0,1,.35-.85c.07-.15.15-.29.22-.44s.07-.12.11-.17h0l0,0a.23.23,0,0,1-.27,0l0,0s.05.1.05.09a1.86,1.86,0,0,1,.1.37,3.38,3.38,0,0,1,0,.84c-.11.66-.27,1.32-.4,2a.51.51,0,0,0,.35.62.5.5,0,0,0,.61-.35c.13-.63.28-1.26.39-1.89a3.55,3.55,0,0,0-.06-1.83,1.15,1.15,0,0,0-.65-.77.86.86,0,0,0-.93.33,4.12,4.12,0,0,0-.43.77c-.14.3-.27.61-.39.92a11,11,0,0,0-.55,2l1,.14.17-3.18a.51.51,0,0,0-.5-.5.5.5,0,0,0-.5.5Z" transform="translate(-0.01 -1.07)"/>
          <path class="cls-5" d="M237.61,148.78a8,8,0,0,0-2.57,6,9.63,9.63,0,0,0,1.31,4.64.5.5,0,0,0,.87-.51,8.57,8.57,0,0,1-1.18-4,7.1,7.1,0,0,1,2.28-5.42c.46-.44-.24-1.15-.71-.7Z" transform="translate(-0.01 -1.07)"/>
          <path class="cls-5" d="M238.54,154.2a2.13,2.13,0,0,1,.43-.13.61.61,0,0,0,.13,0c-.08,0-.1,0,0,0h0l.24,0h.27c.06,0,0,0,0,0a.23.23,0,0,0,.11,0l.22.06.11,0s.17.07,0,0a.51.51,0,0,0,.38.05.5.5,0,0,0,.3-.23.5.5,0,0,0,0-.38.44.44,0,0,0-.23-.3,3.13,3.13,0,0,0-1.17-.27,2.84,2.84,0,0,0-1.08.2.58.58,0,0,0-.3.23.49.49,0,0,0,0,.39.5.5,0,0,0,.23.3.46.46,0,0,0,.38,0Z" transform="translate(-0.01 -1.07)"/>
          <path class="cls-5" d="M243.43,150.49c-1.08,0-1.69,1.39-2,2.26a3.66,3.66,0,0,0,.14,3.29c.59.87,2.13,1.73,3.1.92a1.88,1.88,0,0,0,.5-1.22,17.16,17.16,0,0,0,.13-1.9,4.42,4.42,0,0,0-.41-2.09,1.93,1.93,0,0,0-1.45-1.26.51.51,0,0,0-.5.5.5.5,0,0,0,.5.5c.26,0,.49.57.59.76a3.17,3.17,0,0,1,.27,1.33c0,.52,0,1-.07,1.56,0,.2,0,.4-.06.6a1.55,1.55,0,0,1,0,.23,1.31,1.31,0,0,0,0,.14.18.18,0,0,1,0,.07c0,.06,0-.05,0,0s0,0-.07,0a.71.71,0,0,1-.41,0,1.92,1.92,0,0,1-1.07-.64,2.43,2.43,0,0,1-.21-2.24,4.94,4.94,0,0,1,.47-1.11c.13-.23.4-.76.69-.77A.5.5,0,0,0,243.43,150.49Z" transform="translate(-0.01 -1.07)"/>
          <path class="cls-5" d="M242.23,154.43c-.14.06,0,0,0,0l.08,0,.22,0h.06s0,0,0,0a.14.14,0,0,0,.09,0h.47l.1,0,.22.06.1,0h0l.06,0a.5.5,0,0,0,.38,0,.5.5,0,0,0,.3-.23.5.5,0,0,0-.18-.68,2.69,2.69,0,0,0-1.18-.28,2.86,2.86,0,0,0-1.19.25.5.5,0,0,0-.23.3.57.57,0,0,0,0,.38.52.52,0,0,0,.3.23.59.59,0,0,0,.39,0Z" transform="translate(-0.01 -1.07)"/>
          <path class="cls-5" d="M244.66,149.71a5.81,5.81,0,0,1,1.59,3.9,10.39,10.39,0,0,1-.2,2.49c-.08.41-.18.82-.3,1.22-.05.2-.11.4-.17.6s-.18.58-.11.53h.5l-.05,0,.23.3v-.06l-.13.48,0,0c.44-.47-.26-1.18-.71-.71a.57.57,0,0,0,.14.91.5.5,0,0,0,.5,0,1.82,1.82,0,0,0,.55-1c.16-.51.3-1,.42-1.55a11.92,11.92,0,0,0,.32-3,6.83,6.83,0,0,0-1.9-4.68c-.46-.45-1.16.26-.7.7Z" transform="translate(-0.01 -1.07)"/>
          <path class="cls-5" d="M247,145.88c2.66,4.92,2,10.84-.76,15.56a.5.5,0,0,0,.86.51c3-5,3.59-11.34.76-16.57-.31-.57-1.17-.06-.86.5Z" transform="translate(-0.01 -1.07)"/>
        </g>
      </g>
      <g>
        <path class="cls-3" d="M106.13,47a43.57,43.57,0,0,1,5.77-1c1.45-.15,3.27-.38,4.4.74A.5.5,0,0,0,117,46c-1.24-1.23-3.06-1.22-4.69-1.07A46.84,46.84,0,0,0,105.86,46c-.62.15-.36,1.12.27,1Z" transform="translate(-0.01 -1.07)"/>
        <g>
          <path class="cls-3" d="M89,41.26a4.72,4.72,0,0,0-3.33.8,1.64,1.64,0,0,0-.19,2.56c.86.82,2.1.75,3.09,1.3a1.36,1.36,0,0,1,.79,1.14,1.79,1.79,0,0,1-.7,1.39,5.26,5.26,0,0,1-3.93.93c-.64-.08-.63.92,0,1,2,.24,5.25-.5,5.6-2.94A2.37,2.37,0,0,0,88.9,45a13.2,13.2,0,0,0-1.75-.56c-.4-.12-1-.34-1.15-.79s.49-.91.9-1.08A4.45,4.45,0,0,1,89,42.26c.63.07.63-.93,0-1Z" transform="translate(-0.01 -1.07)"/>
          <path class="cls-3" d="M92.2,49.85a25.4,25.4,0,0,0,.59-3.78.5.5,0,0,0-1,0,22.23,22.23,0,0,1-.56,3.52.51.51,0,0,0,.35.61.51.51,0,0,0,.62-.35Z" transform="translate(-0.01 -1.07)"/>
          <path class="cls-3" d="M93.41,47.15,92.89,50a.5.5,0,0,0,.29.59.49.49,0,0,0,.62-.21c.27-.63.43-1.29.65-1.94a3.07,3.07,0,0,1,.8-1.37l.1-.09.1-.06a.28.28,0,0,1-.3-.06s0,0,0,0,0,0,0,0a1.41,1.41,0,0,1,.06.22,4.58,4.58,0,0,1,.09.9A5.52,5.52,0,0,1,95,49.87a.49.49,0,0,0,.34.61.51.51,0,0,0,.62-.35,6.41,6.41,0,0,0,.32-1.85,5.43,5.43,0,0,0,0-.9,3,3,0,0,0-.21-1,.74.74,0,0,0-.8-.46,1.58,1.58,0,0,0-.79.5A4.26,4.26,0,0,0,93.57,48c-.24.63-.37,1.31-.63,1.94l.91.38.53-2.85A.52.52,0,0,0,94,46.8a.52.52,0,0,0-.62.35Z" transform="translate(-0.01 -1.07)"/>
          <path class="cls-3" d="M101,41.18a9.22,9.22,0,0,0-2,4.27,9,9,0,0,0-.11,2.38,5,5,0,0,0,.56,2.22,1.66,1.66,0,0,0,1.93.73,3,3,0,0,0,1.69-1.71,8.62,8.62,0,0,0,.62-5c-.11-.8-.23-1.88-1-2.35a1.16,1.16,0,0,0-1.75.6.5.5,0,0,0,1,.27c.06-.23.38.1.43.18a3.41,3.41,0,0,1,.28,1,9.2,9.2,0,0,1,.14,2.4,6.38,6.38,0,0,1-.57,2.31c-.26.55-.82,1.55-1.58,1.26-.58-.22-.66-1.27-.72-1.79a8,8,0,0,1,0-2.18,8.12,8.12,0,0,1,1.78-4c.41-.49-.3-1.2-.71-.71Z" transform="translate(-0.01 -1.07)"/>
          <path class="cls-3" d="M100.64,47.1a25.68,25.68,0,0,0,3,.33.51.51,0,0,0,.5-.5.51.51,0,0,0-.5-.5,20.93,20.93,0,0,1-2.78-.3.51.51,0,0,0-.61.35.51.51,0,0,0,.35.62Z" transform="translate(-0.01 -1.07)"/>
        </g>
      </g>
      <g>
        <path class="cls-3" d="M105.83,162.06c2.93-.41,6-.8,8.86.21.6.21.87-.76.26-1-3-1.06-6.28-.64-9.39-.2-.63.09-.36,1.05.27,1Z" transform="translate(-0.01 -1.07)"/>
        <g>
          <path class="cls-3" d="M79.72,162a3.5,3.5,0,0,1,1.55-.06l1.82.17a.5.5,0,0,0,.43-.25.5.5,0,0,0,0-.5l-.1-.24a.49.49,0,0,0-.68-.18.5.5,0,0,0-.18.68l.1.24.43-.75-1.88-.17a3.87,3.87,0,0,0-1.76.09.53.53,0,0,0-.35.62.51.51,0,0,0,.62.35Z" transform="translate(-0.01 -1.07)"/>
          <path class="cls-3" d="M93.06,165.45a23.35,23.35,0,0,1,.43-3.63.51.51,0,0,0-.35-.61.49.49,0,0,0-.61.35,24.17,24.17,0,0,0-.47,3.89.5.5,0,0,0,.5.5.51.51,0,0,0,.5-.5Z" transform="translate(-0.01 -1.07)"/>
          <path class="cls-3" d="M93.77,163.53l-.27,1.58a.52.52,0,0,0,.35.62.5.5,0,0,0,.61-.35,7.32,7.32,0,0,1,1.69-3.09l-.49.13s0,0,0,0a.13.13,0,0,1-.07-.06.22.22,0,0,1,.05.08h0a.36.36,0,0,0,0,.1s0,0,0,0a1.09,1.09,0,0,1,0,.18,5.34,5.34,0,0,1-.13.88,8.37,8.37,0,0,1-.62,1.89.5.5,0,0,0,.18.68.5.5,0,0,0,.68-.18,9.19,9.19,0,0,0,.79-2.46c.12-.73.25-1.77-.64-2.06a.52.52,0,0,0-.49.13,8.29,8.29,0,0,0-1.94,3.53l1,.27.27-1.58a.52.52,0,0,0-.35-.62.5.5,0,0,0-.61.35Z" transform="translate(-0.01 -1.07)"/>
          <path class="cls-3" d="M100.59,157.51a12.07,12.07,0,0,0-1.6,4.2c-.23,1.35-.34,2.89.61,4a2.33,2.33,0,0,0,3.49,0,5.32,5.32,0,0,0,1.09-4.14,19.22,19.22,0,0,0-.44-2.61,4.43,4.43,0,0,0-1-2.07.51.51,0,0,0-.6-.08,1.2,1.2,0,0,0-.47.48c-.31.57.55,1.07.86.51a.17.17,0,0,1,.11-.12l-.6-.08a4,4,0,0,1,.76,1.9,16,16,0,0,1,.36,2.39c.07,1.24-.18,3.5-1.82,3.62a1.47,1.47,0,0,1-1.35-1,4.44,4.44,0,0,1-.12-2.26,11.25,11.25,0,0,1,1.54-4.27c.34-.55-.53-1-.86-.5Z" transform="translate(-0.01 -1.07)"/>
          <path class="cls-3" d="M100.39,162.73a4.27,4.27,0,0,1,1.48-.13,3.29,3.29,0,0,1,.68.1,3.93,3.93,0,0,1,.76.23.5.5,0,0,0,.62-.35.52.52,0,0,0-.35-.61,5.77,5.77,0,0,0-3.46-.21.52.52,0,0,0-.35.62.52.52,0,0,0,.62.35Z" transform="translate(-0.01 -1.07)"/>
          <path class="cls-3" d="M89.93,157.1a4.6,4.6,0,0,0-3.32.8,1.63,1.63,0,0,0-.19,2.55c.86.82,2.1.75,3.09,1.31a1.33,1.33,0,0,1,.79,1.14,1.76,1.76,0,0,1-.7,1.38,5.26,5.26,0,0,1-3.93.93c-.64-.07-.63.93,0,1,2,.24,5.25-.5,5.6-2.94a2.37,2.37,0,0,0-1.47-2.49,13.2,13.2,0,0,0-1.75-.56c-.4-.12-1-.34-1.15-.79s.49-.91.9-1.07a4.31,4.31,0,0,1,2.13-.26c.64.07.64-.94,0-1Z" transform="translate(-0.01 -1.07)"/>
        </g>
      </g>
      <g>
        <path class="cls-3" d="M171.24,88a16,16,0,0,0-2.76,5.39,7.87,7.87,0,0,0-.36,1.8,1.52,1.52,0,0,0,.62,1.37,3,3,0,0,0,2,.07c.69-.13,1.35-.35,2-.54.31-.09.63-.17,1-.23a1.71,1.71,0,0,1,.95.06.5.5,0,0,0,.27-1,3.11,3.11,0,0,0-1.63,0c-.59.12-1.17.3-1.75.47a8.28,8.28,0,0,1-1.77.35c-.21,0-.5,0-.61-.16a1.15,1.15,0,0,1,0-.61,12,12,0,0,1,1-3.25,14.93,14.93,0,0,1,1.81-3c.39-.5-.31-1.21-.71-.71Z" transform="translate(-0.01 -1.07)"/>
        <path class="cls-3" d="M169.84,96.12c3.33-2.38,6.67-4.77,10.06-7.08a39.91,39.91,0,0,1,6.71-3.85A37.49,37.49,0,0,1,193.69,83c.63-.14.36-1.1-.26-1A36.46,36.46,0,0,0,183,85.88c-2.62,1.51-5.08,3.33-7.54,5.07-2,1.43-4.06,2.86-6.08,4.31-.52.37,0,1.24.5.86Z" transform="translate(-0.01 -1.07)"/>
      </g>
      <g>
        <path class="cls-3" d="M202.22,75.87c-2.66,1.46-5.58,3.3-6.37,6.46-.35,1.38-.22,2.94,1.11,3.73a8.63,8.63,0,0,0,4.86,1c.64,0,.64-1,0-1a8,8,0,0,1-4.13-.76c-1.31-.66-1.13-2.16-.69-3.35,1-2.54,3.47-4,5.72-5.24.56-.31.06-1.17-.5-.86Z" transform="translate(-0.01 -1.07)"/>
        <path class="cls-3" d="M204.86,84.22c-.21-.12,0-.51.13-.68a6.88,6.88,0,0,1,.78-1,2.17,2.17,0,0,1,2-.81c.77.19,1,1,1,1.74a1.5,1.5,0,0,1-.25,1.09,1.82,1.82,0,0,1-.89.54,3.55,3.55,0,0,1-2.75-.22c-.57-.3-1.08.56-.51.86a4.66,4.66,0,0,0,3.49.34,2.91,2.91,0,0,0,1.38-.84,2.38,2.38,0,0,0,.54-1.65,2.76,2.76,0,0,0-1.66-2.79,3,3,0,0,0-3,1A5.83,5.83,0,0,0,204,83.32a1.35,1.35,0,0,0,.39,1.77c.55.34,1.05-.53.51-.87Z" transform="translate(-0.01 -1.07)"/>
        <path class="cls-3" d="M215.49,80.25a1.55,1.55,0,0,0-2.08-.54,3.33,3.33,0,0,0-1,.85,2.62,2.62,0,0,0-.68,1.14c-.24,1.12.86,1.49,1.69,1.8.29.11.71.28.79.63a.82.82,0,0,1-.4.77,3.09,3.09,0,0,1-1.36.42,5.68,5.68,0,0,0-1.52.4.5.5,0,0,0-.18.69.51.51,0,0,0,.68.18c1-.44,2.08-.23,3-.88a1.68,1.68,0,0,0,.36-2.55,3.29,3.29,0,0,0-1.38-.73,2,2,0,0,1-.57-.26c-.18-.15-.11-.31,0-.49a3,3,0,0,1,1-1c.27-.17.68-.22.83.11.28.58,1.14.07.87-.51Z" transform="translate(-0.01 -1.07)"/>
        <path class="cls-3" d="M220.06,76.73a8.5,8.5,0,0,0-2.38,4.47c-.28,1.57-.12,3.44,1.33,4.4a2.36,2.36,0,0,0,3.68-1.2,9.64,9.64,0,0,0,.58-2.58,12.23,12.23,0,0,0,0-2.9c-.1-.87-.48-1.75-1.46-1.87a2.75,2.75,0,0,0-2.34,1.33c-.4.5.31,1.21.71.71s.82-1.09,1.45-1,.66,1,.69,1.47a11.56,11.56,0,0,1-.44,4.22,1.88,1.88,0,0,1-1,1.27,1.65,1.65,0,0,1-1.46-.32c-1-.77-1-2.3-.74-3.41a7.55,7.55,0,0,1,2.07-3.83.5.5,0,0,0-.7-.71Z" transform="translate(-0.01 -1.07)"/>
        <path class="cls-3" d="M218.9,82.68l.36-.1.18,0,.11,0q.36,0,.72,0l.35,0q.09,0,0,0l.1,0a.76.76,0,0,1,.16,0,3.49,3.49,0,0,1,.72.2.51.51,0,0,0,.62-.35.51.51,0,0,0-.35-.61,5.23,5.23,0,0,0-3.27-.11.5.5,0,0,0,.27,1Z" transform="translate(-0.01 -1.07)"/>
      </g>
      <g>
        <path class="cls-3" d="M202.42,166.7c-1.65,2.45-3.27,5.38-2.88,8.46a6.87,6.87,0,0,0,4.32,5.64c.6.23.86-.74.27-1a5.88,5.88,0,0,1-3.64-5.18c-.16-2.73,1.32-5.26,2.8-7.45.36-.53-.51-1-.87-.5Z" transform="translate(-0.01 -1.07)"/>
        <path class="cls-3" d="M206.49,169.45c-2.23.52-3.31,2.75-3.59,4.84a4.44,4.44,0,0,0,0,1.74,1.69,1.69,0,0,0,1,1,11.57,11.57,0,0,0,3.61.88c.64.06.64-.94,0-1a11.46,11.46,0,0,1-2.89-.67c-.4-.14-.76-.28-.79-.75a7,7,0,0,1,.13-1.37c.28-1.61,1.1-3.34,2.84-3.74.63-.15.36-1.11-.27-1Z" transform="translate(-0.01 -1.07)"/>
        <path class="cls-3" d="M209.22,175.52l0-.05,0-.13s0-.16,0,0a.28.28,0,0,1,0-.09,1.15,1.15,0,0,1,0-.26c0,.1,0,0,0,0a1,1,0,0,1,0-.17l0-.13c0-.13,0,0,0,0s.07-.14.12-.22l.12-.18c-.06.08,0,0,0,0a.8.8,0,0,1,.13-.13l.08-.08s.1-.07,0,0l.23-.14.08,0c.12-.07-.09,0,0,0l.26-.07c.13,0-.1,0,0,0h.27l.23.07c.09,0,0,0,0,0l.14.07.09.06c.11.07,0,0,0,0a.75.75,0,0,1,.16.15l.08.08c.06.07,0,0,0,0a1.14,1.14,0,0,1,.15.23s.1.21.06.1l.08.23c0,.06,0,.13,0,.2s0,.15,0,0c0,0,0,.08,0,.12v.24s0,.15,0,0c0,0,0,.06,0,.08a1,1,0,0,1-.06.23s0,0,0,.07,0,0,0,.06l-.06.1s-.08.11,0,.05,0,0,0,0l-.1.1-.06.05-.08.06a2.28,2.28,0,0,1-.3.17c.06,0,0,0,0,0l-.2.07-.29.06c-.17,0,.09,0-.08,0l-.21,0h-.32a7.2,7.2,0,0,1-1.31-.15.5.5,0,0,0-.61.35.5.5,0,0,0,.35.61,5.51,5.51,0,0,0,3,0,2.26,2.26,0,0,0,1.54-2.07,2.59,2.59,0,0,0-1.08-2.16,2.12,2.12,0,0,0-2.54.19,2.41,2.41,0,0,0-.75,2.82.52.52,0,0,0,.69.18.53.53,0,0,0,.18-.69Z" transform="translate(-0.01 -1.07)"/>
        <path class="cls-3" d="M213.2,178a3.15,3.15,0,0,0,2.38-.47,1.77,1.77,0,0,0,.76-1.91,1.82,1.82,0,0,0-1.88-1.38c-.3,0-.63.12-.88-.09a.88.88,0,0,1-.28-.75.93.93,0,0,1,.57-.56,1.9,1.9,0,0,1,1.29,0c.61.2.87-.76.26-1a2.68,2.68,0,0,0-2.45.35,1.69,1.69,0,0,0-.49,2.09,1.66,1.66,0,0,0,.85.84,2.44,2.44,0,0,0,1.2.08.78.78,0,0,1,.74.4.83.83,0,0,1,.1.65c-.27.66-1.24.86-1.9.76a.5.5,0,0,0-.27,1Z" transform="translate(-0.01 -1.07)"/>
        <path class="cls-3" d="M218.7,169.5a2.67,2.67,0,0,0-1.47,1.72,5.9,5.9,0,0,0-.43,2.59,8.18,8.18,0,0,0,.3,1.78,5.12,5.12,0,0,0,.72,1.72,1.36,1.36,0,0,0,1.73.44,3.23,3.23,0,0,0,1.46-1.69,7,7,0,0,0,.71-4.2c-.25-1.35-1.53-2.72-3-2.36-.62.15-.36,1.11.27,1,.83-.2,1.53.68,1.73,1.39a5.29,5.29,0,0,1-.32,3.14c-.16.44-1.08,2.56-1.74,1.75a3.42,3.42,0,0,1-.53-1.26,8,8,0,0,1-.27-1.2,5.5,5.5,0,0,1,.1-2.06c.14-.53.43-1.55,1-1.76S219.31,169.28,218.7,169.5Z" transform="translate(-0.01 -1.07)"/>
        <path class="cls-3" d="M217.83,174.23a14.63,14.63,0,0,0,3.23-.46.5.5,0,0,0,.35-.62.5.5,0,0,0-.61-.35,12.53,12.53,0,0,1-3,.43.5.5,0,0,0,0,1Z" transform="translate(-0.01 -1.07)"/>
        <path class="cls-3" d="M222.78,175.11a10.5,10.5,0,0,1-1.95,4.47.51.51,0,0,0,.18.69.51.51,0,0,0,.68-.18,11.06,11.06,0,0,0,2.05-4.71.5.5,0,1,0-1-.27Z" transform="translate(-0.01 -1.07)"/>
        <path class="cls-3" d="M235.42,171a2.78,2.78,0,0,0-2.58.19,2.56,2.56,0,0,0-1.31,2.25c.14,1.21,1.91.71,2.72.78a1.07,1.07,0,0,1,.95.56A1.33,1.33,0,0,1,235,176a2.68,2.68,0,0,1-1.22.91,1.52,1.52,0,0,1-1.45,0,.52.52,0,0,0-.71,0,.51.51,0,0,0,0,.71c1.69,1.31,4.74-.4,4.64-2.5a2,2,0,0,0-.62-1.4,2.31,2.31,0,0,0-1.41-.53c-.51,0-1,0-1.54,0h-.23c.07.05,0,0,.06-.1a1.52,1.52,0,0,1,.23-.54,1.87,1.87,0,0,1,2.15-.74.51.51,0,0,0,.68-.18.5.5,0,0,0-.18-.68Z" transform="translate(-0.01 -1.07)"/>
        <path class="cls-3" d="M237.55,177.64a16.11,16.11,0,0,1,.09-3.54.5.5,0,0,0-1,0,16.11,16.11,0,0,0-.09,3.54.5.5,0,0,0,1,0Z" transform="translate(-0.01 -1.07)"/>
        <path class="cls-3" d="M238.19,174.32v3.47a.5.5,0,1,0,1,0,7.49,7.49,0,0,1,.26-1.77,7.16,7.16,0,0,1,.3-.89,2.52,2.52,0,0,1,.15-.34.72.72,0,0,1,.07-.11l.08-.08c.07-.06,0,0,0,0s-.13,0-.11,0,.07.14,0,.06a2.25,2.25,0,0,1,.08.24,5.74,5.74,0,0,1,.22.91,6,6,0,0,1,0,1.74.53.53,0,0,0,.35.62.51.51,0,0,0,.62-.35,7.33,7.33,0,0,0,0-1.87,5.31,5.31,0,0,0-.46-1.81.94.94,0,0,0-.78-.5,1.06,1.06,0,0,0-.79.43,3.16,3.16,0,0,0-.45.85,8.51,8.51,0,0,0-.29.85,9,9,0,0,0-.3,2.07h1v-3.47a.5.5,0,0,0-1,0Z" transform="translate(-0.01 -1.07)"/>
        <path class="cls-3" d="M242.75,170.25a11.69,11.69,0,0,0-.45,5.05,2.66,2.66,0,0,0,1,1.67,2.18,2.18,0,0,0,2,.17,3.41,3.41,0,0,0,1.84-3.53,5.06,5.06,0,0,0-1.7-3.38,3,3,0,0,0-1.91-.89c-.69,0-1.33.45-1.17,1.2s1.09.37,1-.26c0,.15-.1.1.13.07a.8.8,0,0,1,.43.05,3.53,3.53,0,0,1,1.16.83,4,4,0,0,1,1.11,2.48,2.47,2.47,0,0,1-1.14,2.47,1.16,1.16,0,0,1-1.26-.15,2.09,2.09,0,0,1-.53-1.22,11.65,11.65,0,0,1,.5-4.3.5.5,0,0,0-1-.26Z" transform="translate(-0.01 -1.07)"/>
        <path class="cls-3" d="M242.88,175a10.11,10.11,0,0,1,3.68-.78.5.5,0,0,0,0-1,11.34,11.34,0,0,0-4.18.92.49.49,0,0,0-.18.68.5.5,0,0,0,.68.18Z" transform="translate(-0.01 -1.07)"/>
        <path class="cls-3" d="M245.92,167.49A7.86,7.86,0,0,1,250,173a6.62,6.62,0,0,1-.29,3.33c-.45,1.26-1.53,2.62-3,2.13-.61-.2-.87.77-.26,1a3.3,3.3,0,0,0,3.8-1.8,7.22,7.22,0,0,0,.85-4.15,8.79,8.79,0,0,0-4.64-6.89c-.57-.31-1.07.56-.5.86Z" transform="translate(-0.01 -1.07)"/>
        <path class="cls-3" d="M226.4,175a36.6,36.6,0,0,1,3.92,0,.5.5,0,0,0,.5-.5.51.51,0,0,0-.5-.5,36.6,36.6,0,0,0-3.92,0,.52.52,0,0,0-.5.5.5.5,0,0,0,.5.5Z" transform="translate(-0.01 -1.07)"/>
        <path class="cls-3" d="M189.75,173.34a20.33,20.33,0,0,1,5.93.32c.63.13.9-.84.27-1a21.16,21.16,0,0,0-6.2-.35.51.51,0,0,0-.5.5.5.5,0,0,0,.5.5Z" transform="translate(-0.01 -1.07)"/>
        <path class="cls-3" d="M190.32,177a15.57,15.57,0,0,1,4.66.43.5.5,0,0,0,.26-1,16.62,16.62,0,0,0-4.92-.47c-.64,0-.65,1,0,1Z" transform="translate(-0.01 -1.07)"/>
      </g>
    </g>
  </g>
</svg>
