<svg xmlns="http://www.w3.org/2000/svg" viewBox="0 0 251.68 218.48">
  <defs>
    <style>
      .cls-1 {
        fill: #a7a9ac;
      }

      .cls-2 {
        fill: none;
        stroke: #231f20;
        stroke-miterlimit: 10;
      }

      .cls-3 {
        fill: #ed1c24;
      }

      .cls-4 {
        fill: #231f20;
      }
    </style>
  </defs>
  <title>Asset 1</title>
  <g id="Layer_2" data-name="Layer 2">
    <g id="Layer_1-2" data-name="Layer 1">
      <g>
        <path class="cls-1" d="M216.36,152.59q5.89-5.21,11.44-10.79l1.35-1.36a3.84,3.84,0,0,0,1.1-1.46c.36-1.2-.69-1.93-1.57-2.51a32.34,32.34,0,0,0-5.25-2.49,11.64,11.64,0,0,1-5.1-3.5l-.36,1.37a.47.47,0,0,1,.68.06c.9.93,2.31-.49,1.41-1.41a2.45,2.45,0,0,0-3.1-.38,1,1,0,0,0-.36,1.37c2.28,3.14,5.9,4.08,9.23,5.68a12.59,12.59,0,0,1,2.35,1.38s.16.15.18.15l.06.06-.07-.38c-.07,0-.56.59-.62.65l-1.34,1.36c-1.74,1.75-3.5,3.47-5.3,5.17q-3,2.87-6.14,5.61c-1,.86.45,2.27,1.41,1.42Z" transform="translate(-0.02)"/>
        <path class="cls-1" d="M12.58,125.29a51.35,51.35,0,0,0-10,5.89A12.52,12.52,0,0,0,.42,133a1.88,1.88,0,0,0,.2,2.51c1.36,1.58,2.92,3,4.4,4.49,1.67,1.65,3.37,3.26,5.1,4.85,1,.87,2.37-.55,1.42-1.42Q8.9,141,6.35,138.47c-.85-.84-1.7-1.69-2.53-2.55l-1.25-1.29c-.11-.11-.4-.54-.53-.56s-.11-.1-.09.18a1.48,1.48,0,0,1,.26-.24,45.86,45.86,0,0,1,11.37-7,1,1,0,0,0,.36-1.37,1,1,0,0,0-1.36-.36Z" transform="translate(-0.02)"/>
        <path class="cls-1" d="M.89,135.6c13.93,3.8,28.45,3.76,42.77,3.61l45-.46,45-.46c14.93-.16,29.86-.38,44.8-.25A497.21,497.21,0,0,1,229,140.71a1,1,0,0,0,1-.73,2.77,2.77,0,0,0-2.63-3.42c-1.28,0-1.29,2,0,2a.73.73,0,0,1,.7.89l1-.74c-29.66-3.3-59.55-2.79-89.35-2.48l-90.09.92c-16.07.17-32.47.79-48.13-3.48a1,1,0,0,0-.53,1.93Z" transform="translate(-0.02)"/>
      </g>
      <g>
        <path class="cls-1" d="M105.81,61.56a110.28,110.28,0,0,1,5.93-14.31c.57-1.13,1.16-2.25,1.76-3.36.28-.51.55-1,.84-1.51,0,0,.26-.4.27-.39l-.29,0,.05.05a1.78,1.78,0,0,0,.25.36c1.45,2.32,2.83,4.68,4.25,7l4.89,8.08a1,1,0,0,0,1.73,0l1-2.17a1,1,0,0,0-.36-1.36,1,1,0,0,0-1.37.35l-1,2.17h1.73l-4.77-7.87-2.38-3.93c-.75-1.23-1.43-2.57-2.29-3.73a1.84,1.84,0,0,0-3-.24,10.12,10.12,0,0,0-1,1.64c-.35.63-.69,1.27-1,1.92q-2,3.72-3.64,7.59-1.93,4.5-3.5,9.14c-.41,1.22,1.52,1.75,1.93.53Z" transform="translate(-0.02)"/>
        <path class="cls-1" d="M107.22,204.76A61.69,61.69,0,0,0,113,215.59a16.25,16.25,0,0,0,1.73,2.38,1.66,1.66,0,0,0,2.52-.16c1.39-1.59,2.58-3.42,3.8-5.13q2.16-3,4.2-6.11c.71-1.08-1-2.08-1.72-1q-2.05,3.09-4.2,6.11c-.7,1-1.4,1.93-2.11,2.89-.33.45-.67.89-1,1.33-.05.07-.52.56-.5.63.42.13.54.12.35,0l-.26-.36a59.3,59.3,0,0,1-6.7-11.9,1,1,0,0,0-1.23-.7,1,1,0,0,0-.7,1.23Z" transform="translate(-0.02)"/>
        <path class="cls-1" d="M113.22,41.54q-.52,34.09-.43,68.18.09,33.93.83,67.85.42,19.13,1,38.26c0,1.28,2,1.29,2,0q-1.09-34.08-1.56-68.18-.46-33.93-.28-67.84.11-19.14.4-38.27a1,1,0,0,0-2,0Z" transform="translate(-0.02)"/>
      </g>
      <line class="cls-2" x1="251.32" y1="96.25" x2="250.95" y2="96.63"/>
      <g>
        <path class="cls-3" d="M12.74,206.27a160.71,160.71,0,0,0,27.89-2A91,91,0,0,0,63.47,197,152.52,152.52,0,0,0,87.12,183a72.67,72.67,0,0,0,10-8.35,56.84,56.84,0,0,0,6.94-9.1c4.76-7.47,8.81-16,10.17-24.79.65-4.26.4-8.58,1.07-12.84a47.56,47.56,0,0,1,3.31-11.63c3.35-7.7,8.78-14.22,14.94-19.84a46.81,46.81,0,0,1,11.26-7.89c4.41-2.13,9.07-3.66,13.65-5.38,18.82-7.08,37.76-13.89,57.56-17.72q4-.78,8.1-1.4c1.27-.2.73-2.12-.53-1.93-20.43,3.12-40.07,9.54-59.37,16.75-4.47,1.67-8.94,3.32-13.41,5a59.76,59.76,0,0,0-12.38,6,65.71,65.71,0,0,0-10.09,8.83,62.87,62.87,0,0,0-7.82,9.77,50.38,50.38,0,0,0-7.62,22.69c-.2,2.19-.16,4.39-.32,6.59a37.59,37.59,0,0,1-1.07,6.32,64.06,64.06,0,0,1-4.9,12.9c-3.62,7.24-8.14,14.12-14.3,19.43-7,6.05-15.07,11-23.19,15.38a97.84,97.84,0,0,1-23,9.26,119.34,119.34,0,0,1-25.75,3.08c-2.56.07-5.12.09-7.68.1a1,1,0,0,0,0,2Z" transform="translate(-0.02)"/>
        <path class="cls-3" d="M214.63,70.82c3.77-1.88,7.55-3.75,11.32-5.64.81-.41,1.57-1.07,1.22-2.06-.27-.8-1.21-1.2-1.92-1.52a42,42,0,0,0-4.39-1.49,9.14,9.14,0,0,1-4-2c-.89-.94-2.3.48-1.41,1.41A10.84,10.84,0,0,0,220.24,62c.93.29,1.87.56,2.8.87.4.14.81.28,1.2.45s1,.37,1.16.68l-.14-.51c.18-.29.16-.35,0-.18l-.38.19-.65.32-1.5.75-3,1.5-6,3c-1.15.57-.14,2.3,1,1.73Z" transform="translate(-0.02)"/>
        <path class="cls-3" d="M20.71,210.82l.8,1,1.22-1.57-6.09-2.79-2.93-1.34c-.21-.09-.42-.18-.63-.29l-.36-.19.11.31a12.25,12.25,0,0,0,.92-.95,26.44,26.44,0,0,1,9.18-5.43c1.2-.44.68-2.37-.53-1.93a27.72,27.72,0,0,0-10.71,6.6c-.77.81-1.33,2-.33,2.86a5.82,5.82,0,0,0,1.57.85l1.8.83,7,3.2a1,1,0,0,0,1.21-1.57l-.81-1a1,1,0,0,0-1.41,0,1,1,0,0,0,0,1.42Z" transform="translate(-0.02)"/>
      </g>
      <g>
        <path class="cls-4" d="M37.36,32.44l-.47,1.08.91.12a41.7,41.7,0,0,1-.11-15.59,28,28,0,0,1,2-7.07,5.58,5.58,0,0,1,4.45-3.47A5.49,5.49,0,0,1,49.36,10c.33.55,1.2.05.86-.5A6.43,6.43,0,0,0,40,8.66c-1.61,1.94-2.28,4.58-2.85,7A41.88,41.88,0,0,0,36,24.12a42.33,42.33,0,0,0,.8,9.79.5.5,0,0,0,.91.12l.47-1.09c.25-.58-.61-1.09-.86-.5Z" transform="translate(-0.02)"/>
        <path class="cls-4" d="M31,21.85c2.31,1.35,5,.63,7.49.48a23.44,23.44,0,0,1,8.64,1.13c.61.2.87-.77.26-1a24.32,24.32,0,0,0-8.21-1.19c-2.47.07-5.39,1-7.67-.31a.5.5,0,0,0-.51.86Z" transform="translate(-0.02)"/>
        <path class="cls-4" d="M56.91,9.33a44.41,44.41,0,0,0-3.88,12,53.52,53.52,0,0,0-.78,6.18,7.39,7.39,0,0,0,1.17,5.21A3.8,3.8,0,0,0,58,33.94c.57-.3.06-1.16-.51-.87a2.52,2.52,0,0,1-2.62-.31,4,4,0,0,1-1.53-2.44,11.6,11.6,0,0,1-.09-3.43c.1-1.17.24-2.33.41-3.48A45.06,45.06,0,0,1,57.77,9.83c.29-.57-.57-1.08-.86-.5Z" transform="translate(-0.02)"/>
        <path class="cls-4" d="M63.86,14.77a25.09,25.09,0,0,0,7.27,13c.46.44,1.17-.26.7-.7a24.22,24.22,0,0,1-7-12.55c-.13-.63-1.09-.36-1,.27Z" transform="translate(-0.02)"/>
        <path class="cls-4" d="M70.61,16.21A121.42,121.42,0,0,0,61.26,30.5c-.32.57.55,1.07.86.51a121.54,121.54,0,0,1,9.35-14.3c.39-.51-.48-1-.86-.5Z" transform="translate(-0.02)"/>
        <path class="cls-4" d="M72.3,10.18A17,17,0,0,1,77,19.27a38.49,38.49,0,0,1,.72,5.34,33.57,33.57,0,0,1,.11,5.49,3.79,3.79,0,0,1-1.38,2.83,2.06,2.06,0,0,1-2.46.12c-.51-.39-1,.48-.5.86,1.43,1.07,3.45.3,4.42-1,1.25-1.73,1-4.16.92-6.18A33.57,33.57,0,0,0,76.7,14.87,15.3,15.3,0,0,0,73,9.48c-.47-.44-1.18.26-.71.7Z" transform="translate(-0.02)"/>
        <path class="cls-4" d="M85.14,20.44l9.37-1.6c.63-.11.37-1.08-.27-1l-9.36,1.6c-.64.11-.37,1.07.26,1Z" transform="translate(-0.02)"/>
        <path class="cls-4" d="M86.48,26l6.79-.91a.52.52,0,0,0,.5-.5c0-.24-.23-.54-.5-.5L86.48,25a.5.5,0,0,0,0,1Z" transform="translate(-0.02)"/>
        <path class="cls-4" d="M111.11,9.49a2.48,2.48,0,0,0,1.53,1c.62.17,1.44.24,1.73.91a1.88,1.88,0,0,1-.6,2,6.21,6.21,0,0,1-2.36,1.16.51.51,0,0,0-.22.84,4.89,4.89,0,0,0,2.39,1c.73.17,1.91.3,2.1,1.18.29,1.3-1.65,2.24-2.6,2.6a8,8,0,0,1-4.08.41c-.63-.11-.9.86-.26,1a8.91,8.91,0,0,0,4.69-.44c1.31-.51,2.9-1.39,3.23-2.88a2.16,2.16,0,0,0-1.6-2.47c-1-.37-2.33-.33-3.16-1.1l-.22.84c1.74-.59,3.86-1.53,3.79-3.7a2.17,2.17,0,0,0-1.25-1.94c-.67-.31-1.83-.28-2.25-.95s-1.2,0-.86.51Z" transform="translate(-0.02)"/>
        <path class="cls-4" d="M103.41,21.65c6,.31,9.4,6.09,12,10.76a.5.5,0,0,0,.91-.12l5.58-27-.35.35a56.87,56.87,0,0,1,20.59-4.39L141.65.6a38.88,38.88,0,0,0-1.65,11,.5.5,0,0,0,1,0A37.71,37.71,0,0,1,142.62.87a.51.51,0,0,0-.48-.64,57.77,57.77,0,0,0-18.27,3.41q-1.09.39-2.16.84c-.24.09-.59.17-.73.4a4.23,4.23,0,0,0-.27,1.22l-1,5-2,9.74L115.36,32l.91-.12c-2.8-5-6.44-10.93-12.86-11.26-.64,0-.64,1,0,1Z" transform="translate(-0.02)"/>
        <path class="cls-4" d="M127.8,12.22a52.26,52.26,0,0,1,6.81,14.52.51.51,0,0,0,1,0,2.8,2.8,0,0,0-.26-2.56c-.35-.54-1.22,0-.87.5a1.85,1.85,0,0,1,.16,1.79h1a53.4,53.4,0,0,0-6.92-14.76c-.36-.53-1.23,0-.86.51Z" transform="translate(-0.02)"/>
        <path class="cls-4" d="M135.44,9,127,29.78c-.24.6.72.86,1,.27l8.4-20.82c.25-.59-.72-.85-1-.26Z" transform="translate(-0.02)"/>
        <path class="cls-4" d="M148.56,16A43.78,43.78,0,0,1,156,17c.62.15.89-.82.26-1A45.7,45.7,0,0,0,148.56,15c-.64,0-.64,1,0,1Z" transform="translate(-0.02)"/>
        <path class="cls-4" d="M147.61,20.93a17,17,0,0,0,10.52.36.5.5,0,0,0-.26-1,16.17,16.17,0,0,1-10-.36c-.61-.22-.87.74-.27,1Z" transform="translate(-0.02)"/>
        <path class="cls-4" d="M166,12.39q6,8.43,12.16,16.69c.38.51,1.25,0,.87-.51q-6.2-8.25-12.17-16.69c-.36-.52-1.23,0-.86.51Z" transform="translate(-0.02)"/>
        <path class="cls-4" d="M177.55,8.82l-6,11.83-3,5.86-1.46,2.87A6.51,6.51,0,0,0,166.2,32a.5.5,0,0,0,.5.5,1.76,1.76,0,0,0,1.68-1c.29-.57-.57-1.08-.86-.5a.8.8,0,0,1-.82.47l.5.5a7.35,7.35,0,0,1,1.11-2.78l1.46-2.87,2.86-5.64,5.78-11.39c.29-.57-.57-1.08-.86-.5Z" transform="translate(-0.02)"/>
        <path class="cls-4" d="M181.09.48l.81,7.91c.07.64,1.07.64,1,0L182.09.48c-.06-.64-1.06-.64-1,0Z" transform="translate(-0.02)"/>
        <path class="cls-4" d="M188.46.94Q186,6.58,184,12.37c-.22.61.75.87,1,.27q2-5.69,4.35-11.19c.26-.59-.61-1.1-.86-.51Z" transform="translate(-0.02)"/>
        <path class="cls-4" d="M189.62,5.08a3.75,3.75,0,0,0,1.6.09c.32,0,1-.19,1.24.07.43.45-.55,1-.85,1.16a3.31,3.31,0,0,0-1.53,1.17.5.5,0,0,0,.43.75c.89,0,1.36,1.16,1.06,1.9a2.44,2.44,0,0,1-2.75,1.11c-.63-.13-.9.83-.27,1,1.52.31,3.49-.22,4-1.86a2.38,2.38,0,0,0-2-3.11l.43.76c.39-.65,1.32-.79,1.88-1.26a1.6,1.6,0,0,0,.51-2.08c-.76-1.18-2.37-.24-3.44-.63-.61-.22-.87.75-.27,1Z" transform="translate(-0.02)"/>
      </g>
    </g>
  </g>
</svg>
