<svg xmlns="http://www.w3.org/2000/svg" viewBox="0 0 247.37 174.25">
  <defs>
    <style>
      .cls-1 {
        fill: #808285;
      }

      .cls-2 {
        fill: #ed1c24;
      }

      .cls-3 {
        fill: #231f20;
      }
    </style>
  </defs>
  <title>Asset 4</title>
  <g id="Layer_2" data-name="Layer 2">
    <g id="Layer_1-2" data-name="Layer 1">
      <g>
        <path class="cls-1" d="M10,72.18c-1.73,1.43-3.42,2.92-5,4.47Q3.72,77.81,2.54,79A12.32,12.32,0,0,0,.45,81.43c-1,1.85,0,3.6,1.75,4.43.86.4,1.77.68,2.65,1a28.5,28.5,0,0,1,2.78,1.35,32,32,0,0,1,5.79,4c1,.84,2.38-.57,1.41-1.42a35.12,35.12,0,0,0-9.83-6c-.79-.31-3.47-.88-2.91-2.21A8.23,8.23,0,0,1,4,80.43C4.66,79.71,5.37,79,6.1,78.3q2.56-2.44,5.3-4.7c1-.82-.42-2.23-1.41-1.42Z" transform="translate(-0.03 -0.01)"/>
        <path class="cls-1" d="M235.42,79.78l6.25,3.92c.92.57,1.86,1.12,2.75,1.74.72.51,1.29,1,.7,1.88A13.13,13.13,0,0,1,243,89.47a26.81,26.81,0,0,1-2.23,1.75,31.45,31.45,0,0,1-5.59,3.1,1,1,0,0,0-.36,1.37,1,1,0,0,0,1.37.35,30.62,30.62,0,0,0,9.12-6c1.27-1.21,2.77-2.83,1.78-4.68a5.55,5.55,0,0,0-1.9-1.83c-.86-.56-1.74-1.09-2.6-1.63l-6.15-3.85c-1.1-.69-2.1,1-1,1.72Z" transform="translate(-0.03 -0.01)"/>
        <path class="cls-1" d="M2.16,84.56q28.34.6,56.65,1.28c14.07.34,28.14.73,42.22,1q16,.31,31.93.23c18,0,36,.26,54.06,0,7.34-.11,14.68-.4,22-.47,9.13-.09,18.25.1,27.37.52,2.79.13,5.58.29,8.36.46,1.29.08,1.29-1.93,0-2-17.07-1-34.09-1-51.19-.64-18.62.44-37.24.08-55.86.14-11.07,0-22.14,0-33.21-.15-12.89-.22-25.78-.58-38.67-.89q-27.62-.67-55.24-1.28l-8.44-.18a1,1,0,0,0,0,2Z" transform="translate(-0.03 -0.01)"/>
      </g>
      <g>
        <path class="cls-1" d="M94.36,13.06a52.57,52.57,0,0,1,5.92-8.58c.6-.72,1.17-1.5,1.84-2.16.18-.18.34-.38.54-.24s.39.74.51,1c.68,1.51,1.5,3,2.27,4.42A41.69,41.69,0,0,1,108,12.92c.43,1.2,2.37.68,1.93-.53-1.33-3.68-3.53-6.95-5.11-10.51a2.66,2.66,0,0,0-2-1.86c-1.18-.11-2,.77-2.69,1.59-1.3,1.55-2.6,3.1-3.82,4.72a45.41,45.41,0,0,0-3.63,5.73c-.61,1.13,1.11,2.14,1.73,1Z" transform="translate(-0.03 -0.01)"/>
        <path class="cls-1" d="M91.5,158.49A44.66,44.66,0,0,0,100.36,174a1,1,0,0,0,1.67-.44,38.27,38.27,0,0,1,7.17-12.61c.84-1-.57-2.39-1.41-1.41A40.42,40.42,0,0,0,100.1,173l1.68-.44A42.24,42.24,0,0,1,93.43,158c-.4-1.22-2.33-.7-1.93.53Z" transform="translate(-0.03 -0.01)"/>
        <path class="cls-1" d="M101.52,2.11l-.93,66c-.31,22.08-.63,44.17-.79,66.26q-.14,18.62-.08,37.23a1,1,0,0,0,2,0c-.08-22.11.1-44.22.37-66.33s.6-44,.9-66l.53-37.08a1,1,0,0,0-2,0Z" transform="translate(-0.03 -0.01)"/>
      </g>
      <g>
        <g>
          <path class="cls-2" d="M28.57,127.7a174.92,174.92,0,0,0-11.41,23.79c-.44,1.12-.87,2.25-1.28,3.38-.22.59-.43,1.17-.64,1.76l-.31.88-.11.33c-.12.33-.13.24-.06.21l.51-.14,0,0,.6.46,0,.63-.36.36,0,0-.5.14h.05l-.71-.29.06.06c.88.94,2.29-.48,1.41-1.42s-2.22.17-1.89,1.26a1.17,1.17,0,0,0,1.36.8,1.7,1.7,0,0,0,1.24-1.22c1-2.5,1.8-5,2.79-7.52q2.92-7.36,6.53-14.44,2.05-4.05,4.34-8a1,1,0,0,0-1.73-1Z" transform="translate(-0.03 -0.01)"/>
          <path class="cls-2" d="M10,148.07a1.12,1.12,0,0,0,.73-1.94,1.19,1.19,0,0,0-2,1,3.55,3.55,0,0,0,.39,1.3l.63,1.6L11,153.08l1.23,3.08c.4,1,.74,2.05,1.22,3a2.51,2.51,0,0,0,2.16,1.47,6.17,6.17,0,0,0,2.81-.93l6.82-3.32c1.16-.57.15-2.29-1-1.73l-5.28,2.57c-.83.41-1.66.88-2.52,1.22-.25.1-.7.3-1,.14s-.35-.55-.45-.8c-.75-1.82-1.45-3.66-2.18-5.48l-1.09-2.75-.55-1.37-.27-.69-.14-.34c0-.18-.06-.18-.05,0l-.25.44.08-.1-.44.26.08,0H9.63l.07,0-.44-.25-.06-.06-.14-.51V147l.13-.51,0,.05.86-.49H10c-1.28.07-1.29,2.07,0,2Z" transform="translate(-0.03 -0.01)"/>
        </g>
        <g>
          <path class="cls-2" d="M221.53,127.13l-.09,0,.45.26-.06-.05.26.44,0,.42-.36.36-.07,0h-.53l.15,0-.44-.25c.32.25.45,1,.59,1.44s.36,1,.53,1.57c.35,1,.69,2.1,1,3.16q1,3.28,1.78,6.62a116.48,116.48,0,0,1,2.39,13.49,1,1,0,0,0,1,1,1,1,0,0,0,1-1,118,118,0,0,0-6-26c-.33-.93-.9-2.44-2.2-1.9-1,.41-1.11,2.16.1,2.35a1,1,0,0,0,1.23-.7,1,1,0,0,0-.7-1.23Z" transform="translate(-0.03 -0.01)"/>
          <path class="cls-2" d="M231.89,141.86l-2,7.72-1,3.86-.25,1c0,.13-.07.27-.11.4s0,.13.24-.06c0,0-1.23-.59-1.36-.67a17.39,17.39,0,0,1-4.88-4.2,3,3,0,0,0-1.19-1.11,1.26,1.26,0,0,0-1.52.45c-.55.85.18,2.32,1.29,1.88a1,1,0,0,0,.7-1.23,1,1,0,0,0-1.23-.69l-.08,0H221l-.07,0,.45.26-.06-.06.26.44-.07.41-.36.36.09,0-.51.13c-.16,0-.18,0-.06.09l.28.36c.17.22.35.43.52.63.32.36.64.71,1,1.05a21,21,0,0,0,2.22,1.88,17.86,17.86,0,0,0,2.6,1.61c.91.45,2,.74,2.76-.17a3.56,3.56,0,0,0,.57-1.43l.44-1.69.91-3.5,1.85-7.12a1,1,0,0,0-1.93-.53Z" transform="translate(-0.03 -0.01)"/>
        </g>
      </g>
      <g>
        <g>
          <path class="cls-3" d="M52.73,74.62l6.41-1a.5.5,0,0,0,.35-.61.52.52,0,0,0-.62-.35l-6.4,1a.49.49,0,0,0-.35.61.51.51,0,0,0,.61.35Z" transform="translate(-0.03 -0.01)"/>
          <path class="cls-3" d="M57.5,70l5.76-7.13-.84-.23a31.18,31.18,0,0,1,0,12.87c-.13.63.83.9,1,.27a32.53,32.53,0,0,0,0-13.4.5.5,0,0,0-.84-.22l-5.76,7.13c-.4.5.31,1.21.71.71Z" transform="translate(-0.03 -0.01)"/>
          <path class="cls-3" d="M58.67,78a44.12,44.12,0,0,0,9.06-3c.59-.26.08-1.13-.5-.86A44.17,44.17,0,0,1,58.41,77c-.63.13-.36,1.1.26,1Z" transform="translate(-0.03 -0.01)"/>
        </g>
        <g>
          <path class="cls-3" d="M142.1,74.93a11.45,11.45,0,0,0,7.05-2.29.5.5,0,1,0-.5-.86,10.6,10.6,0,0,1-6.55,2.15.5.5,0,0,0,0,1Z" transform="translate(-0.03 -0.01)"/>
          <path class="cls-3" d="M145.29,69.44l.18,8.87a.5.5,0,0,0,1,0l-.18-8.87c0-.64-1-.64-1,0Z" transform="translate(-0.03 -0.01)"/>
          <path class="cls-3" d="M150.29,70.4a25.14,25.14,0,0,1,3.57-6.11l-.84-.22a28.27,28.27,0,0,1,.79,11.39c-.08.64.92.63,1,0A28.83,28.83,0,0,0,154,63.81a.5.5,0,0,0-.83-.22,26.72,26.72,0,0,0-3.83,6.55c-.24.59.73.85,1,.26Z" transform="translate(-0.03 -0.01)"/>
          <path class="cls-3" d="M150.25,78.12a19.77,19.77,0,0,0,7.46-3.4c.51-.38,0-1.25-.51-.87a18.94,18.94,0,0,1-7.21,3.3c-.63.14-.36,1.11.26,1Z" transform="translate(-0.03 -0.01)"/>
        </g>
        <g>
          <path class="cls-3" d="M219.33,76a7.27,7.27,0,0,1,4.44-.43c.63.14.89-.82.26-1a8.3,8.3,0,0,0-5.2.53.49.49,0,0,0-.18.68.5.5,0,0,0,.68.18Z" transform="translate(-0.03 -0.01)"/>
          <path class="cls-3" d="M221.39,70.18a49.05,49.05,0,0,0-.86,8.8.5.5,0,0,0,.85.35l.72-.69c.46-.45-.24-1.15-.71-.71l-.71.69.85.36a47.77,47.77,0,0,1,.82-8.53c.12-.63-.85-.9-1-.27Z" transform="translate(-0.03 -0.01)"/>
          <path class="cls-3" d="M225,69.71a23.9,23.9,0,0,1,2.94.08c.85.23,1.2.95.62,1.67-1,1.22-3,1.42-3.34,3.2a.51.51,0,0,0,.49.63,1.71,1.71,0,0,1,1.63,2.27,1.75,1.75,0,0,1-2.47.67c-.54-.36-1,.51-.51.86a2.76,2.76,0,0,0,3.94-1.25,2.72,2.72,0,0,0-2.59-3.55l.48.63c.16-.93,1.11-1.35,1.85-1.78A3.33,3.33,0,0,0,229.81,71a1.89,1.89,0,0,0-1.23-2c-1.09-.48-2.22-.08-3.36-.24-.63-.08-.9.88-.26,1Z" transform="translate(-0.03 -0.01)"/>
        </g>
      </g>
      <g>
        <path class="cls-3" d="M63,80.31a54.27,54.27,0,0,0-.7,12.34c0,.64,1,.65,1,0a52.45,52.45,0,0,1,.67-12.07c.11-.63-.86-.9-1-.27Z" transform="translate(-0.03 -0.01)"/>
        <path class="cls-3" d="M191.72,82.93a41.21,41.21,0,0,0-1.17,6.79.51.51,0,0,0,.86.36l.8-1a.53.53,0,0,0,0-.71.51.51,0,0,0-.71,0l-.8,1,.85.35a40.08,40.08,0,0,1,1.14-6.52.5.5,0,0,0-1-.27Z" transform="translate(-0.03 -0.01)"/>
        <path class="cls-3" d="M219.57,80.42a42.41,42.41,0,0,0-1.68,11.42.5.5,0,0,0,1,0,41.73,41.73,0,0,1,1.64-11.16.5.5,0,0,0-1-.26Z" transform="translate(-0.03 -0.01)"/>
        <path class="cls-3" d="M153.87,80.7A46.8,46.8,0,0,0,152.31,91c0,.64,1,.64,1,0a46.33,46.33,0,0,1,1.52-10,.5.5,0,0,0-1-.26Z" transform="translate(-0.03 -0.01)"/>
      </g>
      <g>
        <path class="cls-2" d="M63.76,87.29c0-.06,0-.16-.07-.21s0,0,0,.11c0,0,0-.08,0-.12V87c0-.11,0-.09,0,.08a1.16,1.16,0,0,0,0-.18c.06-.23,0,0,0,0l.1-.2a.56.56,0,0,0,0-.08l0,0a1.79,1.79,0,0,0,.13-.14s.14-.13.15-.12-.14.1,0,0l0,0,.2-.1-.1,0,.12,0a.58.58,0,0,0,.18,0c-.14.08-.18,0,0,0s0,0,0,0,.4.16.06,0l-.5-.86c0,.25,0-.22,0,0,0,0,0,.09,0,.14a1.89,1.89,0,0,1-.11.36l.05-.1a.83.83,0,0,1-.07.13.54.54,0,0,1-.07.13,2,2,0,0,1-.11.2s-.16.24,0,0a1.6,1.6,0,0,1-.25.27l-.1.11-.06,0c-.09.07-.08.06,0,0S63,87,63,87l-.13.07c-.17.1.18-.06-.06,0a2.37,2.37,0,0,1-.36.09h0s-.14,0-.18,0h-.19c-.23,0,.16,0,0,0s-.39-.1-.39-.11l.1,0-.13-.06L61.51,87l-.19-.12c-.06,0-.13,0,0,0a1.11,1.11,0,0,1-.27-.26s-.17-.19-.07-.07-.07-.11-.09-.14l-.07-.12,0-.07c0-.1,0-.09,0,0a3,3,0,0,0-.09-.35c0-.14,0,0,0,0s0-.18,0-.22,0-.1,0-.14c0,.16,0,.18,0,.07a.29.29,0,0,0,0-.09.53.53,0,0,0,.05-.15s-.1.2,0,.07a2.4,2.4,0,0,1,.16-.27c.11-.19-.16.15,0,0l.08-.09.14-.13c.14-.13-.17.11,0,0l.28-.16,0,0h0l-.06,0,.12,0c.07,0,.25,0,.3-.08s-.2,0-.08,0H62c.12,0,0,.06-.08,0a.53.53,0,0,0,.18,0l.12,0s-.21-.12,0,0l.13.08c.2.12-.09-.1,0,0a.8.8,0,0,0,.13.13c.15.14-.08-.14,0,0l.11.19c.12.19,0-.19,0,0a1.54,1.54,0,0,1,0,.17l0,.11c0,.11,0,.1,0,0,0,0,0,.13,0,.15a.76.76,0,0,1,0,.15c0-.15,0-.16,0,0s0,.09,0,.14a.88.88,0,0,1-.05.15l0-.11s-.09.16-.11.2c-.11.2.13-.12,0,0s-.11.1-.16.16.15-.07,0,0l-.17.1c-.22.11.12,0-.07,0l-.15,0c-.11,0-.1,0,0,0h-.16l1,.74c0-.2-.1-.41-.14-.61s0-.21,0-.31,0,0,0,.05,0-.12,0-.18a2.5,2.5,0,0,1,0-.61c0,.21,0,0,0-.1l0-.13c0,.18,0,0,0,0a.41.41,0,0,1,0-.09c.07-.15,0,.06-.06.06s.14-.13.15-.14-.08.07-.09.07l.08,0,.1-.06c.09-.06-.18.06-.07,0l.19-.06.12,0s-.22,0-.12,0a.59.59,0,0,0,.19,0s-.22,0-.12,0l.13,0c.14,0-.19-.13,0,0s-.1-.09-.09-.08l.06,0c.07.1-.12-.18-.06-.08s0,.07,0,.07-.06-.23,0-.08,0-.08,0-.1V85s0-.25,0-.14a.19.19,0,0,1,0,.07c.09-.25.07-.16,0-.1s.18-.17,0,0l-.06.06c-.1.1,0-.06.07-.06a.75.75,0,0,0-.17.1c-.1.07.21-.06.09,0l-.08,0-.11,0s.21,0,.12,0-.29,0-.11,0,0,0-.08,0l.12,0s-.15-.07,0,0-.17-.1,0,0,0,0,0,0,.06.2,0,.08-.09-.3,0-.13,0,0,0,0a.53.53,0,0,0,0-.12c0-.13-.06.2,0,.08l0-.12s0-.08,0-.12-.09.16,0,.07a1.2,1.2,0,0,0,.13-.21c0-.1-.05.08-.06.07l.11-.11.07-.06s-.19.11,0,0l.08,0c.18-.12-.2.07,0,0a1,1,0,0,0-.53-1.93A2.62,2.62,0,0,0,61,85.22a2,2,0,0,0,2.67,1.52A2.15,2.15,0,0,0,65,85.59a1.74,1.74,0,0,0-.25-1.79,2.31,2.31,0,0,0-3.24-.12c-1.21,1-1,2.76-.63,4.09a1,1,0,0,0,1,.73,2.93,2.93,0,0,0,2.78-3.64,2.82,2.82,0,0,0-3.69-1.94,3.1,3.1,0,0,0-2.07,3.67,3.58,3.58,0,0,0,3.66,2.58A4.07,4.07,0,0,0,66,85.44a1,1,0,0,0-.49-.86,2.48,2.48,0,0,0-1.65-.2,2.84,2.84,0,0,0-1.3.72,2.59,2.59,0,0,0-.75,2.72,1,1,0,0,0,1.93-.53Z" transform="translate(-0.03 -0.01)"/>
        <path class="cls-2" d="M217.34,85.62a1.54,1.54,0,0,0,.12.13s-.12-.2-.05-.07a.56.56,0,0,0,.05.08s0,.07,0,.08-.07-.2-.05-.11l.06.2c0,.17,0-.24,0,0a1,1,0,0,1,0,.17c0,.1,0-.12,0-.12s0,.07,0,.09a.19.19,0,0,0,0,.08c0,.14,0-.07,0-.08s-.17.25,0,.1,0,0-.06,0-.06,0-.07.06.17-.1.09-.07-.27.14-.11.07,0,0-.08,0-.24,0-.07,0,0,0-.1,0-.13,0,0,0,0,0,0,0-.22-.08-.07,0,0,0-.07,0-.14-.1,0,0,0,0,0,0-.17-.2-.07-.07,0,0,0-.06a.25.25,0,0,0,0-.07c-.08-.14,0,.06,0,.08s0-.12-.05-.16,0-.27,0-.09,0-.06,0-.1,0-.12,0-.18-.05.21,0,0l.06-.2c.06-.22-.09.16,0,0a1,1,0,0,1,.1-.17.35.35,0,0,1,.05-.08c.05-.09-.05.07-.06.07s.12-.14.18-.19.12-.08.14-.13-.16.12-.07.06l.08-.06a3.18,3.18,0,0,1,.4-.23c.17-.08-.17.06,0,0l.19-.06.22-.06.11,0c.16,0,0,0,0,0a4.13,4.13,0,0,0,.49,0c.12,0-.08,0-.08,0l.11,0,.1,0c.16,0,0,0-.06,0s.12.06.16.08a.35.35,0,0,0,.09.07s-.16-.14-.09-.07a1.31,1.31,0,0,1,.12.11l.06.07c.1.09,0,0-.05-.07a2.8,2.8,0,0,0,.2.32l0,.08,0-.11c0,.08.05.15.07.23l0,.17c0,.11,0-.12,0-.12s0,.06,0,.09,0,.28,0,.42,0-.13,0-.13a.31.31,0,0,0,0,.09c0,.06,0,.11,0,.17l-.06.18c0,.16.1-.19,0,0l-.19.32c-.09.14.13-.16,0,0l-.14.15c-.07.09-.21.16-.27.25s.18-.12.09-.07l-.07,0-.17.11-.17.09-.08,0c-.09,0,.11,0,.11,0a2.65,2.65,0,0,0-.37.12l-.17,0c-.17,0,.22,0,.05,0a1.7,1.7,0,0,0-.39,0s.23,0,.13,0h-.09l-.16,0s-.26-.1-.09,0,0,0-.07,0L217,87l-.07,0c-.1-.06.18.15.09.07a2.5,2.5,0,0,1-.23-.23s0,0-.05,0,.08.11.08.1l-.1-.14c-.06-.09-.09-.2-.15-.29s.09.25,0,.1l0-.07s0-.1,0-.14a.83.83,0,0,1,0-.15s-.05-.29,0-.09,0,0,0,0,0-.1,0-.15a.76.76,0,0,1,0-.15.34.34,0,0,1,0-.1c0-.11,0,.23,0,.12s0-.19.07-.29a.14.14,0,0,1,0-.06c0-.15,0,.09-.05.1l.08-.15s0-.09.07-.13-.13.14,0,0l.1-.11s.19-.16.05,0,0,0,0,0L217,85l-.13.05.07,0,.16,0h.07c.15,0-.11,0-.12,0a.75.75,0,0,0,.15,0,.33.33,0,0,1,.14,0c.11,0,.27.07,0,0l.29.06.14,0c.07,0,.12.08-.1,0l.09,0,.25.14.06,0c.1.07-.17-.14-.08-.06l.12.11.11.1,0,0c.07.07-.08-.11-.08-.1s.12.18.17.28-.07-.22,0-.07,0,.11,0,.16,0,0,0,.07,0-.24,0-.15v.25c0,.11,0-.22,0-.09a1.36,1.36,0,0,0,0,.17.32.32,0,0,0,0,.09s.09-.19,0-.1l-.11.19s-.07.08-.07.1.14-.15.06-.09l-.12.13a.22.22,0,0,0-.07.06s.17-.11.08-.06l-.08,0s-.19.09,0,0,0,0-.08,0-.24,0-.07,0-.09,0-.11,0,.21,0,.12,0a.53.53,0,0,1-.12,0l-.09,0s.19.09.1,0l-.15-.1c-.12-.06.14.14.05,0l-.06-.06s0-.05-.07-.07.1.16,0,.06l-.1-.15c0-.08,0,.1,0,.1a.61.61,0,0,0,0-.11c-.06-.15,0,.2,0,0v-.09c0-.1,0,.19,0,.11s0-.06,0-.08.07,0-.05.09a.39.39,0,0,0,.08-.14s-.14.16-.07.1l.05-.06.06,0c.05-.08-.17.1-.08,0l.16-.09c.14-.09-.2.05,0,0l.15,0s-.22,0-.14,0a.29.29,0,0,0,.13,0s-.22,0-.14,0l.07,0s.12,0,0,0a.55.55,0,0,1-.19-.12.6.6,0,0,1-.14-.21c-.06-.13,0-.07,0,0-.07-.29,0-.21,0-.13s0-.12,0-.13,0,0,0,.07.07-.14.06-.13a.25.25,0,0,0,0,.07l.09-.11-.07.06s.19-.14.11-.09.15-.06.13-.06h.13a1,1,0,0,0,0,2,1.66,1.66,0,0,0,1.4-2.4,1.85,1.85,0,0,0-2.67-.37,2.11,2.11,0,0,0-.68,2.75,2.43,2.43,0,0,0,2.59,1.21,2.67,2.67,0,0,0,1.95-1.93,2.61,2.61,0,0,0-.59-2.36,3.08,3.08,0,0,0-4-.62,3.22,3.22,0,0,0-.75,4.17,3.05,3.05,0,0,0,1.77,1.44,3.44,3.44,0,0,0,2.48-.24,3.56,3.56,0,0,0,2-4.1,2.9,2.9,0,0,0-1.77-2,3.66,3.66,0,0,0-2.92.37,3.11,3.11,0,0,0-1.63,2.09,2.68,2.68,0,0,0,.76,2.53,2.43,2.43,0,0,0,2.79.26,2.37,2.37,0,0,0,1.09-2.58,2.34,2.34,0,0,0-.68-1.19,1,1,0,0,0-1.42,1.41Z" transform="translate(-0.03 -0.01)"/>
        <path class="cls-2" d="M153.06,86c0-.06,0-.18,0,0s0,0,0,0-.13.24,0,.09c0,0-.17.19-.06.08s-.2.15,0,0-.07,0-.1,0l.15,0c.18-.06-.2,0-.08,0H153c.12,0-.26-.07-.08,0l.1,0s-.24-.1-.09,0-.06-.05-.08-.06c.15.13,0-.05,0-.05a1.51,1.51,0,0,1,.1.17c-.08,0,0-.25,0,0s.08.1,0,0v-.06a.57.57,0,0,1,0,.13.66.66,0,0,0,0,.14s.05-.24,0-.07l0,.14s0,.11,0,.13c.06-.13.06-.15,0-.05l0,.06s-.12.21,0,.07,0,0-.05,0a3.07,3.07,0,0,1-.26.25c.16-.14-.05,0-.12.07l-.35.19-.19.09c-.13.06.15-.06,0,0l-.34.14a4.3,4.3,0,0,1-.75.23c.21,0,0,0,0,0s.15.05,0,0,.17.12,0,0c0,0-.07-.06-.09-.06s.19.17.09.06.06.08.05.09l-.05-.09c-.08-.16.06.23,0,.06l0-.1c0-.18,0,.2,0,.08a2.09,2.09,0,0,0,0-.25c0-.12.06,0,0,.09s0-.08,0-.11a2.45,2.45,0,0,1,.08-.29c.06-.17,0,.06,0,.07a.61.61,0,0,0,.07-.14,1.94,1.94,0,0,1,.15-.24s.07-.09.07-.1-.13.15,0,.06a2,2,0,0,1,.2-.21l.13-.11c-.17.14,0,0,.07,0l.35-.23.37-.19.11,0,.11,0a5.09,5.09,0,0,1,.85-.23H154l-.7-.29.09.09s-.12-.19-.05,0a.41.41,0,0,0,.07.11c.07.12-.07,0,0-.07a.84.84,0,0,0,.05.2c0,.12,0-.21,0-.08a.75.75,0,0,0,0,.15.45.45,0,0,0,0,.12c0-.06,0-.21,0-.07a2.33,2.33,0,0,1-.07.25s-.1.26,0,.13,0,0,0,0l-.08.15-.15.25-.08.11s.15-.18,0,0a5,5,0,0,1-.39.41l-.1.09c-.11.1,0,0,0,0s-.17.12-.2.14l-.18.09s-.16.06,0,0,0,0,0,0a4.12,4.12,0,0,1-.47.13c-.17,0,.24,0,0,0h-.26a.2.2,0,0,0-.11,0s.26.05.11,0l-.2,0c-.16,0,.23.1,0,0,0,0-.13-.09,0,0s0,0,0,0,.13.22,0,0c0,0,.08.24.05.09s0,0,0,.07,0-.12,0-.14-.06.11,0,0a1,1,0,0,0,.06-.18c0-.08.08-.18,0-.05a6.11,6.11,0,0,1,.61-1,1.25,1.25,0,0,1,.09-.12s-.13.16,0,0l.2-.23a5.81,5.81,0,0,1,.43-.43l.23-.2s.09-.12,0,0a.31.31,0,0,1,.09-.07,5,5,0,0,1,.54-.35c.17-.1.34-.18.51-.26s.18-.08,0,0l.06,0,.35-.11c.06,0,.17,0,0,0,.05,0,.12,0,.16,0s-.11,0-.21-.05.11.08,0,0,.05.11-.06-.06,0,0,0,0,0-.2,0-.09a.66.66,0,0,0,0,.15s0-.25,0-.08v.12s0,.13,0,.13,0-.2,0-.1a5.36,5.36,0,0,1-.14.54c0,.06-.12.33,0,.1,0,.09-.08.17-.11.25s-.2.39-.31.58l-.17.25s-.09.12,0,0,0,0,0,0l-.2.21-.11.1c-.09.09.19-.12,0,0l-.25.16c-.17.1.2-.05,0,0l-.11,0c-.06,0-.17,0,0,0h-.29c-.18,0,.16,0,0,0l-.26-.07c-.12,0,0,0,.07,0a.37.37,0,0,0-.11,0l-.1-.06c-.16-.09.15.15,0,0a.3.3,0,0,0-.08-.08c-.1-.1,0,0,0,.07l-.06-.1c-.1-.14.05.21,0,0a.24.24,0,0,0,0-.09c0-.08,0,.23,0,.06a.57.57,0,0,0,0-.13c0,.15,0,.19,0,.11a.29.29,0,0,1,0-.09l0-.08c0-.1-.11.18,0,0l.07-.11c.1-.16-.11.1,0,0a1.89,1.89,0,0,0,.2-.2l0,0s.11-.09.14-.1a4.77,4.77,0,0,1,.55-.29c.12-.06-.18.06-.05,0a.76.76,0,0,0,.16-.06l.32-.1-1-.26.08.08c.07.08.05.06-.05-.07,0,0,.07.1.09.14s0,0,0,0c0,.06.05.16.06.22v0c0,.11,0,.08,0-.09a1,1,0,0,0,0,.17,1.7,1.7,0,0,0,0,.22c0-.1,0-.22,0,0l0,.17a.49.49,0,0,1,0,.11c.07-.14.08-.18.05-.11a2,2,0,0,0-.19.31c.09-.21.08-.09,0,0l-.06.06c-.08.07-.05,0,.07,0,0,0-.11.07-.14.09s.23-.08,0,0a1,1,0,1,0,.53,1.92,2.8,2.8,0,0,0,1.1-4.55,1,1,0,0,0-1-.26A4.65,4.65,0,0,0,150.65,85a2.2,2.2,0,0,0-.24,2.72,2.66,2.66,0,0,0,2.35,1.08,3.4,3.4,0,0,0,2.5-1.58,5.89,5.89,0,0,0,.58-1.08,4.67,4.67,0,0,0,.41-1.21,2.53,2.53,0,0,0-.18-1.56,1.75,1.75,0,0,0-1.51-.9,3.6,3.6,0,0,0-1.62.46,6.49,6.49,0,0,0-1,.62,7.36,7.36,0,0,0-1.91,2c-.55.88-1.06,2-.48,3a2.23,2.23,0,0,0,2.19,1,3.88,3.88,0,0,0,2.32-1,4.19,4.19,0,0,0,1.31-2.23c.18-1-.22-2.59-1.52-2.58a6.16,6.16,0,0,0-2.94.79,4.14,4.14,0,0,0-1.88,2A2.44,2.44,0,0,0,149.2,89a2,2,0,0,0,1.45.74,3.61,3.61,0,0,0,1.55-.34,4.28,4.28,0,0,0,2.4-1.76,2.45,2.45,0,0,0-.31-2.92,2,2,0,0,0-2.71.06,1.62,1.62,0,0,0-.52,1.29,1,1,0,0,0,1,1c.5,0,1.07-.44,1-1Z" transform="translate(-0.03 -0.01)"/>
      </g>
    </g>
  </g>
</svg>
