<svg xmlns="http://www.w3.org/2000/svg" viewBox="0 0 204.25 189.35">
  <defs>
    <style>
      .cls-1 {
        fill: #808285;
      }

      .cls-2 {
        fill: #ed1c24;
      }

      .cls-3 {
        fill: #231f20;
      }
    </style>
  </defs>
  <title>Asset 1</title>
  <g id="Layer_2" data-name="Layer 2">
    <g id="Layer_1-2" data-name="Layer 1">
      <g>
        <path class="cls-1" d="M5.49,132.28c-1.24,1.48-2.41,3-3.51,4.58-.89,1.28-2.48,3-1.82,4.68.49,1.3,2.17,1.79,3.22,2.53a19.2,19.2,0,0,1,4,3.85c.4.5,1.1-.21.7-.71a20.33,20.33,0,0,0-3.36-3.39,17.6,17.6,0,0,0-1.84-1.26,6.2,6.2,0,0,1-1.54-1,1.77,1.77,0,0,1,.15-2.19c.44-.73.93-1.43,1.42-2.12C4,135.8,5,134.37,6.2,133c.41-.49-.3-1.21-.71-.71Z" transform="translate(0 -0.01)"/>
        <path class="cls-1" d="M120.56,138.77l4,2.27a9.18,9.18,0,0,1,1.78,1.08,1.58,1.58,0,0,1,.27,1.86A19.43,19.43,0,0,1,122,150.8a.5.5,0,0,0,.71.71,21.81,21.81,0,0,0,3-3.66,23,23,0,0,0,1.18-2,8.84,8.84,0,0,0,.88-2.16c.29-1.49-.65-2.32-1.83-3l-4.84-2.74a.5.5,0,0,0-.5.86Z" transform="translate(0 -0.01)"/>
        <path class="cls-1" d="M1.14,141.56a257.93,257.93,0,0,0,31.2,1.06c7.18-.23,14.3-1.13,21.48-1.37,8-.27,16-.32,24,.18,2.52.15,5,.62,7.5.79,4.28.28,8.58.29,12.86.3a60.72,60.72,0,0,1,6.74.33c1.45.16,2.9.3,4.35.4,4.36.3,8.74.36,13.11.33,1.5,0,3,0,4.48-.07a.5.5,0,0,0,0-1c-5,.12-10.05.13-15.07-.11-3.46-.17-6.9-.69-10.37-.84-4.33-.2-8.68,0-13-.19a56.24,56.24,0,0,1-5.65-.39c-1-.14-2-.32-3-.41-3.31-.29-6.64-.37-10-.43q-6.4-.12-12.81,0c-4,.09-7.93.23-11.88.58-3.34.3-6.68.61-10,.77a239.28,239.28,0,0,1-29.33-.57l-4.63-.38c-.64-.06-.64.94,0,1Z" transform="translate(0 -0.01)"/>
      </g>
      <g>
        <path class="cls-1" d="M53.75,111.86a31.23,31.23,0,0,1,3.29-4c.58-.59,1.19-1.17,1.8-1.74A11.72,11.72,0,0,1,61,104.26c.92-.49,1.29.62,1.68,1.23s.93,1.4,1.41,2.09a31.34,31.34,0,0,1,2.69,4.34c.27.59,1.13.08.86-.5a35.79,35.79,0,0,0-3.12-5c-.5-.72-1-1.45-1.44-2.21a1.81,1.81,0,0,0-1.91-1.08,5.37,5.37,0,0,0-2.36,1.67c-.75.7-1.5,1.39-2.23,2.11a34.66,34.66,0,0,0-3.7,4.42c-.37.53.5,1,.87.51Z" transform="translate(0 -0.01)"/>
        <path class="cls-1" d="M50.93,178.72a29.69,29.69,0,0,0,7.81,10.49.51.51,0,0,0,.79-.1,26.08,26.08,0,0,1,6.59-8.92c.48-.43-.23-1.13-.71-.7a26.76,26.76,0,0,0-6.75,9.12l.79-.1a29.14,29.14,0,0,1-7.65-10.29c-.26-.59-1.12-.08-.87.5Z" transform="translate(0 -0.01)"/>
        <path class="cls-1" d="M60.67,104.27l-.83,32.4c-.28,10.82-.57,21.64-.71,32.46q-.12,9.15-.07,18.31a.5.5,0,0,0,1,0c-.08-10.88.08-21.76.33-32.64s.53-21.52.81-32.28l.47-18.25c0-.64-1-.64-1,0Z" transform="translate(0 -0.01)"/>
      </g>
      <g>
        <path class="cls-2" d="M11.74,1c1,15.58,2.34,31.16,4.39,46.63C17.92,61.15,20.38,74.57,22.84,88c.92,5,1.76,10.11,2.85,15.12q1.85,8.43,4.44,16.68a129.36,129.36,0,0,0,8.87,22,40.92,40.92,0,0,0,7,9.83,39.79,39.79,0,0,0,8.42,6.89A7.91,7.91,0,0,0,60,159.52c3-.54,5.45-2.64,7.26-5A15.23,15.23,0,0,0,70,149.88c1-3.16,1.71-6.47,2.46-9.71a20.53,20.53,0,0,1,1.51-4.91c.73-1.39,2.19-3.11,3.93-3.1s2.86,1.74,3.57,3c.86,1.56,1.17,3.37,2,5,1.33,2.5,3.69,5.59,6.8,5.7,2.57.09,5-1.93,6.85-3.48a39.33,39.33,0,0,0,7.78-9.09,53,53,0,0,0,3.5-7.14c2.87-6.59,5.54-13.28,7.83-20.1,1.28-3.81,2.31-7.68,3.38-11.55Q122,85.72,124.44,77c.81-2.87,1.72-5.73,2.4-8.64a396.24,396.24,0,0,0,7.58-44.75q.79-7,1.35-14.07c.1-1.28-1.9-1.28-2,0a404.6,404.6,0,0,1-7.2,50.68c-.84,4.06-1.73,8.06-2.87,12-2.71,9.53-5.19,19.13-8,28.64-1.2,4.12-2.65,8.17-4.17,12.19q-2.16,5.67-4.57,11.25a62.79,62.79,0,0,1-3.49,7.37,38,38,0,0,1-7.37,8.86,15.79,15.79,0,0,1-4.3,2.94,3.27,3.27,0,0,1-1.82.33c.4,0-.24-.07-.34-.1a3.29,3.29,0,0,1-.86-.37,7.7,7.7,0,0,1-2.07-1.83,14.06,14.06,0,0,1-2.45-4.39,14.56,14.56,0,0,0-2.37-4.72,5.23,5.23,0,0,0-4.57-2.21c-3.76.43-5.65,4.42-6.44,7.64-.85,3.45-1.55,6.93-2.53,10.34a13.08,13.08,0,0,1-2,4.36c-1.56,2.22-3.73,4.33-6.45,5a5.88,5.88,0,0,1-1.73.17l-.33,0c.32,0-.13,0-.23,0a8.8,8.8,0,0,1-2.73-1.22,31.8,31.8,0,0,1-4.5-3.51c-1.26-1.13-2.51-2.27-3.67-3.5a42,42,0,0,1-6.65-9.95,111.47,111.47,0,0,1-4.74-10.8,170.22,170.22,0,0,1-8.37-29.39c-2.74-14.58-5.49-29.19-7.71-43.86s-3.7-29.74-4.82-44.68Q14,5.86,13.74,1c-.08-1.28-2.08-1.29-2,0Z" transform="translate(0 -0.01)"/>
        <path class="cls-2" d="M7.65,15.6a58.85,58.85,0,0,1,2.26-7q.67-1.7,1.47-3.33c.26-.55.54-1.1.82-1.64A6.9,6.9,0,0,1,13,2.19c.53-.61,1.22.77,1.43,1.16.61,1.17,1.18,2.36,1.77,3.54L19.78,14c.57,1.15,2.3.14,1.72-1l-3.16-6.3L16.79,3.56A10.23,10.23,0,0,0,15.16.9,2.55,2.55,0,0,0,12.7.08c-1,.25-1.47,1.15-1.91,2A59.39,59.39,0,0,0,8,8a58.37,58.37,0,0,0-2.31,7.07,1,1,0,0,0,1.93.53Z" transform="translate(0 -0.01)"/>
        <path class="cls-2" d="M127.68,20.29l3.79-6.1,1.83-2.94c.38-.6.88-1.76,1.64-2s1.64.8,2.11,1.32a22.08,22.08,0,0,1,1.81,2.28,23,23,0,0,1,2.75,5.42c.42,1.2,2.35.68,1.93-.54a25.14,25.14,0,0,0-2.37-5,20.78,20.78,0,0,0-3.43-4.32c-1.39-1.25-3.24-1.66-4.69-.27a11,11,0,0,0-1.54,2.17l-1.7,2.74L126,19.28c-.68,1.09,1,2.1,1.73,1Z" transform="translate(0 -0.01)"/>
      </g>
      <g>
        <path class="cls-3" d="M15.78,7.91A16.05,16.05,0,0,0,17,17.57c.27.59,1.13.08.87-.5a14.94,14.94,0,0,1-1.12-8.89c.11-.63-.85-.9-1-.27Z" transform="translate(0 -0.01)"/>
        <path class="cls-3" d="M17.77,23.66l1,6.16a.5.5,0,1,0,1-.27l-1-6.16a.49.49,0,0,0-.61-.35.52.52,0,0,0-.35.62Z" transform="translate(0 -0.01)"/>
        <path class="cls-3" d="M20.12,39a10.08,10.08,0,0,0,1,5.54A.5.5,0,0,0,22,44a9.12,9.12,0,0,1-.86-5,.5.5,0,0,0-.5-.5.51.51,0,0,0-.5.5Z" transform="translate(0 -0.01)"/>
        <path class="cls-3" d="M22,51.86a33.14,33.14,0,0,1,2.16,10c0,.64,1,.65,1,0A34,34,0,0,0,23,51.59c-.23-.59-1.2-.33-1,.27Z" transform="translate(0 -0.01)"/>
        <path class="cls-3" d="M26.56,70.71a34.64,34.64,0,0,0,2.49,9.05c.25.59,1.11.08.86-.51a33.31,33.31,0,0,1-2.35-8.54.5.5,0,0,0-1,0Z" transform="translate(0 -0.01)"/>
        <path class="cls-3" d="M30,85.49l3,7.87c.23.6,1.19.34,1-.26l-3-7.87c-.23-.6-1.2-.34-1,.26Z" transform="translate(0 -0.01)"/>
        <path class="cls-3" d="M34.54,99l2.78,6a.51.51,0,0,0,.69.18.51.51,0,0,0,.18-.68l-2.78-6a.51.51,0,0,0-.69-.18.51.51,0,0,0-.18.68Z" transform="translate(0 -0.01)"/>
        <path class="cls-3" d="M38.09,110.89l2.42,5.9a.5.5,0,1,0,1-.27l-2.43-5.9a.52.52,0,0,0-.61-.35.51.51,0,0,0-.35.62Z" transform="translate(0 -0.01)"/>
        <path class="cls-3" d="M41.75,121.84l3.5,6.32c.31.56,1.17.06.86-.5l-3.5-6.33c-.31-.56-1.18-.06-.86.51Z" transform="translate(0 -0.01)"/>
        <path class="cls-3" d="M47.07,132.7a7.72,7.72,0,0,0,5.23,3.81.5.5,0,0,0,.26-1,6.8,6.8,0,0,1-4.63-3.36c-.3-.57-1.17-.06-.86.51Z" transform="translate(0 -0.01)"/>
        <path class="cls-3" d="M57.08,138.82a4.38,4.38,0,0,0,2.14.44,4.55,4.55,0,0,0,2.19-.4.5.5,0,0,0-.5-.87l-.09,0c-.08,0,.06,0,0,0l-.2.06-.42.1H60l-.27,0a4.61,4.61,0,0,1-.53,0l-.53,0-.24,0c.1,0-.05,0-.05,0l-.12,0a3.39,3.39,0,0,1-.43-.11l-.09,0c-.06,0,0,0,0,0a1,1,0,0,1-.17-.1.5.5,0,0,0-.51.87Z" transform="translate(0 -0.01)"/>
        <path class="cls-3" d="M65.27,138.73a3.62,3.62,0,0,0,4.28.12.53.53,0,0,0,.18-.69A.52.52,0,0,0,69,138a2.37,2.37,0,0,1-.73.39,3.13,3.13,0,0,1-.44.1s-.07,0,0,0h-.71c-.09,0,.06,0,0,0l-.43-.1-.23-.08c-.08,0,.06,0,0,0l-.12-.06-.18-.1-.11-.07,0,0a.51.51,0,0,0-.71,0,.5.5,0,0,0,0,.7Z" transform="translate(0 -0.01)"/>
        <path class="cls-3" d="M76.42,137.2a5.93,5.93,0,0,0,4.71-2.67c.35-.54-.51-1.05-.86-.51a4.89,4.89,0,0,1-3.85,2.18.5.5,0,0,0,0,1Z" transform="translate(0 -0.01)"/>
        <path class="cls-3" d="M85.4,133.1a5.19,5.19,0,0,0,4.1-2.68.5.5,0,0,0-.17-.68.51.51,0,0,0-.69.18,4.22,4.22,0,0,1-3.24,2.18.51.51,0,0,0-.5.5.5.5,0,0,0,.5.5Z" transform="translate(0 -0.01)"/>
        <path class="cls-3" d="M93.54,126.69l3.58-4.78a.52.52,0,0,0-.18-.69.5.5,0,0,0-.68.18l-3.59,4.79a.5.5,0,0,0,.18.68.51.51,0,0,0,.69-.18Z" transform="translate(0 -0.01)"/>
        <path class="cls-3" d="M102.44,116.54l1.28-3.51a.52.52,0,0,0-.35-.62.53.53,0,0,0-.62.35l-1.28,3.52a.5.5,0,0,0,1,.26Z" transform="translate(0 -0.01)"/>
        <path class="cls-3" d="M107.8,106.12l2.31-5.35a.53.53,0,0,0-.18-.69.51.51,0,0,0-.69.18l-2.3,5.36a.51.51,0,0,0,.18.68.49.49,0,0,0,.68-.18Z" transform="translate(0 -0.01)"/>
        <path class="cls-3" d="M114.17,86.3a8.5,8.5,0,0,1-2.33,5.94c-.45.46.26,1.17.7.7a9.43,9.43,0,0,0,2.63-6.64.5.5,0,0,0-1,0Z" transform="translate(0 -0.01)"/>
        <path class="cls-3" d="M118.65,76.58,120,69c.12-.63-.84-.9-1-.27l-1.39,7.62c-.11.63.85.9,1,.27Z" transform="translate(0 -0.01)"/>
        <path class="cls-3" d="M123.75,61a36.09,36.09,0,0,0,1.88-9.37c0-.65-1-.64-1,0a35.13,35.13,0,0,1-1.85,9.11c-.21.61.76.87,1,.26Z" transform="translate(0 -0.01)"/>
        <path class="cls-3" d="M128.57,41.55a16.11,16.11,0,0,0,.41-6.77.5.5,0,0,0-1,.27,14.79,14.79,0,0,1-.4,6.24.5.5,0,0,0,1,.26Z" transform="translate(0 -0.01)"/>
        <path class="cls-3" d="M131.61,26.48V21.19a.5.5,0,0,0-1,0v5.29a.5.5,0,0,0,1,0Z" transform="translate(0 -0.01)"/>
        <path class="cls-3" d="M132.86,16.08a22.62,22.62,0,0,1,.59-7.51.5.5,0,0,0-1-.26,23.66,23.66,0,0,0-.62,7.77c.06.64,1.06.65,1,0Z" transform="translate(0 -0.01)"/>
        <path class="cls-3" d="M12.84,12.45a10.93,10.93,0,0,1,2.8-4c.2-.18.45-.46.74-.34s.51.57.66.85A10,10,0,0,1,18,11.44c.14.63,1.1.37,1-.26a10.58,10.58,0,0,0-1.19-3.06,2.16,2.16,0,0,0-.93-1,1.4,1.4,0,0,0-1.42.15,10,10,0,0,0-2.11,2.25,11.42,11.42,0,0,0-1.41,2.62.5.5,0,0,0,1,.27Z" transform="translate(0 -0.01)"/>
        <path class="cls-3" d="M128.13,12.81a14.26,14.26,0,0,1,3.74-3.61c.29-.19.83-.54,1.12-.19a4,4,0,0,1,.46,1.34,9.4,9.4,0,0,0,1,2.91c.37.52,1.24,0,.87-.51a1.93,1.93,0,0,1-.34-.59c-.09-.33-.18-.67-.28-1-.17-.62-.33-1.23-.52-1.85A2,2,0,0,0,133.35,8a1.72,1.72,0,0,0-1.59.08,10.16,10.16,0,0,0-2.6,2,19.46,19.46,0,0,0-1.89,2.17.51.51,0,0,0,.18.69.51.51,0,0,0,.68-.18Z" transform="translate(0 -0.01)"/>
      </g>
      <g>
        <path class="cls-3" d="M144.16,40.82l-2.22,19c-.08.64.92.63,1,0l2.22-19c.08-.63-.92-.63-1,0Z" transform="translate(0 -0.01)"/>
        <path class="cls-3" d="M145.21,43.48c-.13-1.25,1.25-1.77,2.27-1.47a4,4,0,0,1,2.44,2.26,3.53,3.53,0,0,1-1.84,4.91,3,3,0,0,1-2.93-.4c-.49-.41-1.21.29-.71.7A4.28,4.28,0,0,0,150.86,48,5.19,5.19,0,0,0,147.69,41a2.91,2.91,0,0,0-2.48.4,2.34,2.34,0,0,0-1,2.06c.06.64,1.06.64,1,0Z" transform="translate(0 -0.01)"/>
        <path class="cls-3" d="M158.49,44.78l-.22,3.79h1a9.3,9.3,0,0,0-3.82-7,.5.5,0,0,0-.61.08,7,7,0,0,0-1.35,6.79,4.77,4.77,0,0,0,4.76,2.94,3.75,3.75,0,0,0,2.79-1.5c.38-.51-.48-1-.86-.5a3.27,3.27,0,0,1-4,.6,4.12,4.12,0,0,1-2-4.54,7,7,0,0,1,1.37-3.09l-.61.08a8.21,8.21,0,0,1,3.33,6.1.5.5,0,0,0,1,0l.22-3.79c0-.64-1-.64-1,0Z" transform="translate(0 -0.01)"/>
        <path class="cls-3" d="M162.72,42.15a30.15,30.15,0,0,0,1.24,7.9.5.5,0,0,0,1,0c.65-2.19,0-4.51.54-6.7a3.16,3.16,0,0,1,1.64-2.19,1.92,1.92,0,0,1,2.2.27c.45.46,1.15-.24.71-.71-1.61-1.65-4.25-.48-5.13,1.33-1.19,2.45-.17,5.21-.92,7.74h1a29.56,29.56,0,0,1-1.2-7.64c0-.64-1-.64-1,0Z" transform="translate(0 -0.01)"/>
        <path class="cls-3" d="M172.49,45.81l.48,2.53c.1.56,1,.43,1-.13a14,14,0,0,0-.33-2.58,7.68,7.68,0,0,0-.79-2.29,1.94,1.94,0,0,0-1.55-1.09,1.63,1.63,0,0,0-1.44,1.31c-.78,2.41,0,5.81,2.93,6.18a2.91,2.91,0,0,0,3.1-1.51.5.5,0,0,0-.18-.68.49.49,0,0,0-.68.18,1.88,1.88,0,0,1-1.84,1,2.44,2.44,0,0,1-2.09-1.21,4.42,4.42,0,0,1-.46-3c.07-.37.14-1,.49-1.28s.71.28.86.54a6.91,6.91,0,0,1,.68,2,12.19,12.19,0,0,1,.3,2.32l1-.13-.47-2.54a.51.51,0,0,0-.62-.34.5.5,0,0,0-.35.61Z" transform="translate(0 -0.01)"/>
        <path class="cls-3" d="M177.69,35.54l.18,11.8a.5.5,0,0,0,1,0,1.79,1.79,0,0,1,1.8-1.57,1.54,1.54,0,0,1,1.39,1.54c.11,1.9-2.61,2.08-3,.37a.5.5,0,0,0-1,.27A2.7,2.7,0,0,0,181,49.86a2.42,2.42,0,0,0,2.08-2.7,2.5,2.5,0,0,0-2.54-2.38,2.8,2.8,0,0,0-2.64,2.56h1l-.18-11.8a.5.5,0,0,0-1,0Z" transform="translate(0 -0.01)"/>
        <path class="cls-3" d="M145.19,70.55a6.51,6.51,0,0,0,5.91-4.27,3.77,3.77,0,0,0-.56-3.72,2.68,2.68,0,0,0-3-.76,4.33,4.33,0,0,0-2,3,13.2,13.2,0,0,0-.44,4.51,11.53,11.53,0,0,0,3.14,7.51A4.16,4.16,0,0,0,151.84,78a3,3,0,0,0,2.47-2.23c.14-.63-.82-.9-1-.27a2.07,2.07,0,0,1-1.7,1.52,3,3,0,0,1-2.58-.79,9.91,9.91,0,0,1-2.83-5.7,11.73,11.73,0,0,1,.61-6.53c.4-.93,1.19-1.75,2.27-1.28a2.38,2.38,0,0,1,1.15,2.77,5.4,5.4,0,0,1-5.08,4,.5.5,0,0,0,0,1Z" transform="translate(0 -0.01)"/>
        <path class="cls-3" d="M156.06,64.65l.22,9.86a.5.5,0,0,0,1,0,21.31,21.31,0,0,1,1.24-5.79A15.12,15.12,0,0,1,159.76,66c.39-.63,1-1.41,1.84-1.34,1.65.14,2.2,2.81,2.38,4.08a10.62,10.62,0,0,1-.75,5.76c-.25.58.61,1.09.86.5a11.58,11.58,0,0,0,1-5.22,9.23,9.23,0,0,0-1.34-4.75,2.54,2.54,0,0,0-3.61-.92c-1.32.92-2,2.69-2.5,4.13a21.83,21.83,0,0,0-1.35,6.23h1l-.22-9.86a.5.5,0,0,0-1,0Z" transform="translate(0 -0.01)"/>
        <path class="cls-3" d="M172.73,58.47c.1,2.35.17,4.71.19,7.07,0,1.15,0,2.31,0,3.47a10.35,10.35,0,0,1,0,1.76c0,.26-.07.27-.32.19a2.41,2.41,0,0,1-.53-.32,3.4,3.4,0,0,0-1.92-.88,2.59,2.59,0,0,0-1.81.87,2.81,2.81,0,0,0,.43,4c1.73,1.54,4.1,1.16,6.15.56a.5.5,0,0,0-.27-1c-1.71.51-3.88,1-5.31-.42a1.87,1.87,0,0,1-.52-2.13,1.49,1.49,0,0,1,1.72-.86c.87.34,2.22,2,3.12.77.51-.69.29-1.91.29-2.71,0-1,0-2.07,0-3.11q0-3.66-.19-7.31c0-.65-1-.65-1,0Z" transform="translate(0 -0.01)"/>
        <path class="cls-3" d="M140.69,92l0,8.63,1-.14c-.84-2.48-1.8-4.93-2.86-7.33-.73-1.65-1.65-4.77-4-4.51a1.94,1.94,0,0,0-1.64,1.92,12.48,12.48,0,0,0,2.85,9.53c1.56,1.74,3.87,3,6.23,2.34a.5.5,0,0,0-.27-1c-3.83,1-6.69-3.33-7.52-6.47a11.36,11.36,0,0,1-.38-2.78c0-.73-.16-2.41.8-2.58s1.55.83,1.91,1.55c.46.91.88,1.85,1.29,2.79q1.45,3.33,2.62,6.77a.5.5,0,0,0,1-.13l0-8.63a.5.5,0,0,0-1,0Z" transform="translate(0 -0.01)"/>
        <path class="cls-3" d="M149.61,86.46a27.77,27.77,0,0,0-2.78,4.62c-.51,1.09-.77,2.39.34,3.19a7.52,7.52,0,0,0,2.83.86c1,.21,2.29.76,1.65,2a2.5,2.5,0,0,1-2.41,1.12c-.54,0-2.25,0-2.44-.62a.5.5,0,0,0-1,.26,1.76,1.76,0,0,0,1.53,1.17,8.45,8.45,0,0,0,2.7.14c1.46-.21,3-1.43,2.7-3.08-.24-1.23-1.46-1.73-2.56-2-.79-.17-2.44-.2-2.79-1.11-.22-.54.14-1.17.37-1.65s.5-1,.78-1.5a27.06,27.06,0,0,1,1.9-2.92c.39-.52-.48-1-.86-.51Z" transform="translate(0 -0.01)"/>
        <path class="cls-3" d="M155.69,90.66a10.89,10.89,0,0,0,.46,3.45A2.39,2.39,0,0,0,157.82,96a2.52,2.52,0,0,0,2.25-.8,5.44,5.44,0,0,0,1.08-2.88l-1-.13a24.06,24.06,0,0,1-9.42,17.11c-.51.38,0,1.25.5.87a25.2,25.2,0,0,0,9.92-18c0-.56-.89-.69-1-.14-.17,1.07-.63,3.44-2.26,3-.68-.21-.85-1.25-1-1.85a9.75,9.75,0,0,1-.25-2.53c0-.64-1-.64-1,0Z" transform="translate(0 -0.01)"/>
        <path class="cls-3" d="M163.87,101.39a19.14,19.14,0,0,1,.81-8.3l-.84.22,1.32,1.58a.5.5,0,0,0,.84-.22,3.77,3.77,0,0,1,1.46-2.27l-.68-.18a13.78,13.78,0,0,1,1.38,6.38.5.5,0,0,0,1,0,14.83,14.83,0,0,0-1.52-6.89.5.5,0,0,0-.68-.18A4.81,4.81,0,0,0,165,94.41l.83-.22-1.32-1.59a.51.51,0,0,0-.84.22,19.92,19.92,0,0,0-.84,8.57c.08.64,1.08.64,1,0Z" transform="translate(0 -0.01)"/>
        <path class="cls-3" d="M171.68,91.57a109.14,109.14,0,0,0-.24,18.08c.05.63,1.05.64,1,0a109.14,109.14,0,0,1,.24-18.08c.07-.64-.93-.64-1,0Z" transform="translate(0 -0.01)"/>
        <path class="cls-3" d="M171.47,91.8c1.5-.07,3.3.54,3.84,2.09A2.58,2.58,0,0,1,175.2,96a1.8,1.8,0,0,1-1.44.89,1.63,1.63,0,0,1-1.62-.8c-.3-.57-1.16-.06-.86.51a2.81,2.81,0,0,0,4.42.4,3.38,3.38,0,0,0,.72-2.8,3.86,3.86,0,0,0-1.61-2.47,5.34,5.34,0,0,0-3.34-.91c-.64,0-.64,1,0,1Z" transform="translate(0 -0.01)"/>
        <path class="cls-3" d="M176.9,89.69l5.77-.49c.64,0,.64-1,0-1l-5.77.49c-.63.06-.64,1.06,0,1Z" transform="translate(0 -0.01)"/>
        <path class="cls-3" d="M180,84.94a87.23,87.23,0,0,0-.45,13.23c0,.64,1,.64,1,0A87.23,87.23,0,0,1,181,84.94c.07-.64-.93-.63-1,0Z" transform="translate(0 -0.01)"/>
        <path class="cls-3" d="M185.25,95.74a10.31,10.31,0,0,0,.95-3.42c.18-.83.65-2,1.59-2.17s1.83.79,2.12,1.59a2.77,2.77,0,0,1-.35,2.68,2.93,2.93,0,0,1-2.82,1c-.63-.14-.9.83-.26,1a3.92,3.92,0,0,0,3.46-1,3.79,3.79,0,0,0-1.15-6.21,2.6,2.6,0,0,0-3.11,1.55c-.72,1.39-.46,3.1-1.3,4.43-.34.55.53,1.05.87.5Z" transform="translate(0 -0.01)"/>
        <path class="cls-3" d="M192.49,88.52l5.34-1.62c.61-.19.35-1.16-.27-1l-5.33,1.62c-.62.19-.36,1.16.26,1Z" transform="translate(0 -0.01)"/>
        <path class="cls-3" d="M195.31,82.13a45.45,45.45,0,0,0-2,14.28.5.5,0,0,0,1,0,44.33,44.33,0,0,1,2-14c.19-.62-.78-.88-1-.27Z" transform="translate(0 -0.01)"/>
        <path class="cls-3" d="M199.69,92c1.43-.89,3.12-2.12,2.79-4a2,2,0,0,0-3.4-1.28c-1.27,1.15-1.52,3.22-1.42,4.83a10.07,10.07,0,0,0,1.58,4.85,9.6,9.6,0,0,0,4.41,3.73c.6.24.85-.72.27-1a9,9,0,0,1-5.28-8,7,7,0,0,1,.39-2.53c.25-.67.92-1.77,1.79-1.42s.83,1.42.53,2.06a5.25,5.25,0,0,1-2.17,1.95c-.54.34,0,1.2.51.86Z" transform="translate(0 -0.01)"/>
        <path class="cls-3" d="M186.41,43a3.6,3.6,0,0,0-1.75,3.13,3.62,3.62,0,0,0,.55,2.68c1,1.09,2.59.29,3.6-.41a4.14,4.14,0,0,0,1.29-1.31,3,3,0,0,0,.32-2.15A2.85,2.85,0,0,0,189,43a2.92,2.92,0,0,0-2.58,0,.49.49,0,0,0-.18.68.5.5,0,0,0,.68.18l.06,0c-.11,0,0,0,.06,0a1.6,1.6,0,0,1,.39-.11,1.7,1.7,0,0,1,1,.09,1.85,1.85,0,0,1,1,1.21,2,2,0,0,1-.12,1.49,2.75,2.75,0,0,1-.43.57l-.26.25-.12.09-.07,0a7.39,7.39,0,0,1-1.09.69c-.41.18-1,.34-1.37,0l0,0c-.07-.07,0,.07,0,0l-.06-.11a.58.58,0,0,1-.05-.11,3.35,3.35,0,0,1-.11-.55,6.86,6.86,0,0,1,0-.91,4.08,4.08,0,0,1,.28-1.43,2,2,0,0,1,1-1.1C187.49,43.6,187,42.73,186.41,43Z" transform="translate(0 -0.01)"/>
        <path class="cls-3" d="M193,37.6l-.71,10.92c0,.64,1,.64,1,0L194,37.6c0-.64-1-.64-1,0Z" transform="translate(0 -0.01)"/>
        <path class="cls-3" d="M196.34,49a14.7,14.7,0,0,1,.52-4.76.5.5,0,0,0-1-.27,15.78,15.78,0,0,0-.55,5c0,.64,1,.64,1,0Z" transform="translate(0 -0.01)"/>
        <path class="cls-3" d="M202.2,42.77A3.76,3.76,0,0,0,198.78,45a3.28,3.28,0,0,0-.5,2.31,2,2,0,0,0,1.64,1.31,4.56,4.56,0,0,0,2.77-.73c.57-.3.07-1.17-.5-.87a3.24,3.24,0,0,1-2.24.58,1,1,0,0,1-.65-.42,1.36,1.36,0,0,1,.07-1.06c.42-1.19,1.44-2.46,2.83-2.34a.5.5,0,0,0,.5-.5.51.51,0,0,0-.5-.5Z" transform="translate(0 -0.01)"/>
        <path class="cls-3" d="M197,41.61v0l.08-.1,0,0,.1-.08,0,0,.12-.05h0l.14,0h0l.13,0-.05,0,.11,0-.05,0,.11.08s0,0,0,0l.07.1s0,0,0,0l0,.11s0,0,0,0l0,.13v0l0,.13a0,0,0,0,1,0,0l0,.12s0,0,0,0l-.08.1,0,0-.1.08,0,0-.12.05h-.13l-.12,0,.05,0-.1-.08,0,0L197,42l0,0-.05-.12v-.19l.05-.12h0a.41.41,0,0,0,0,.19.34.34,0,0,0,0,.2.56.56,0,0,0,.09.17.57.57,0,0,0,.14.13l.12.05a.61.61,0,0,0,.27,0l.12-.05a.77.77,0,0,0,.18-.18L198,42h0a.68.68,0,0,1,0-.14h0a.68.68,0,0,0,0-.15v0l0-.07,0-.06h0a.44.44,0,0,0-.08-.11.69.69,0,0,0-.13-.11l0,0-.16-.07h0l-.14,0h-.11l-.09,0-.13,0h0l-.11.08h0l-.09.12a.52.52,0,0,0-.06.16,1.39,1.39,0,0,0,0,.15h0a.78.78,0,0,0,0,.14h0a.75.75,0,0,0,.06.13v0a.45.45,0,0,0,.1.13l.11.09h0l0,0h0l.13.06h0a.63.63,0,0,0,.36,0h0l.12,0h0l.12-.09,0,0,.08-.1h0a.6.6,0,0,0,.06-.19.46.46,0,0,0,0-.2.56.56,0,0,0-.09-.17.58.58,0,0,0-.14-.13l-.12,0a.62.62,0,0,0-.27,0l-.12,0a.77.77,0,0,0-.18.18Z" transform="translate(0 -0.01)"/>
      </g>
    </g>
  </g>
</svg>
