<svg xmlns="http://www.w3.org/2000/svg" viewBox="0 0 247.37 151.5">
  <defs>
    <style>
      .cls-1 {
        fill: #808285;
      }

      .cls-2 {
        fill: #ed1c24;
      }

      .cls-3 {
        fill: #231f20;
      }
    </style>
  </defs>
  <title>Asset 2</title>
  <g id="Layer_2" data-name="Layer 2">
    <g id="Layer_1-2" data-name="Layer 1">
      <g>
        <path class="cls-1" d="M10,63.8c-1.73,1.43-3.42,2.92-5,4.47-.81.77-1.61,1.56-2.4,2.36A12.92,12.92,0,0,0,.45,73c-1,1.86,0,3.61,1.75,4.43.86.4,1.77.68,2.65,1s1.88.86,2.78,1.35a33,33,0,0,1,5.79,4c1,.85,2.38-.56,1.41-1.41a34.66,34.66,0,0,0-9.83-6c-.79-.32-3.47-.88-2.91-2.21A8.23,8.23,0,0,1,4,72.05c.71-.72,1.42-1.43,2.15-2.13q2.56-2.44,5.3-4.7C12.4,64.4,11,63,10,63.8Z" transform="translate(-0.03 -0.01)"/>
        <path class="cls-1" d="M235.42,71.4l6.25,3.92c.92.57,1.86,1.11,2.75,1.73.72.52,1.29,1,.7,1.89A12.68,12.68,0,0,1,243,81.08a26.93,26.93,0,0,1-2.23,1.76,31.4,31.4,0,0,1-5.59,3.09,1,1,0,0,0,1,1.73,30.62,30.62,0,0,0,9.12-6c1.27-1.21,2.77-2.83,1.78-4.68a5.46,5.46,0,0,0-1.9-1.83c-.86-.56-1.74-1.09-2.6-1.64l-6.15-3.85c-1.1-.68-2.1,1-1,1.73Z" transform="translate(-0.03 -0.01)"/>
        <path class="cls-1" d="M2.16,76.17c20,1.42,40.13,2.16,60.21,1.64,13.83-.36,27.6-1.74,41.44-2.11,15.42-.4,30.92-.48,46.33.28,5,.24,9.55.94,14.48,1.2,8.26.44,16.54.46,24.81.46,7.17,0,14.25.74,21.4,1.13,8.43.47,16.87.56,25.3.51q4.32,0,8.64-.11a1,1,0,0,0,0-2c-9.69.17-19.39.2-29.08-.17-6.68-.26-13.33-1-20-1.29-8.37-.31-16.76,0-25.14-.29-3.65-.11-7.31-.22-11-.61-1.9-.21-3.78-.48-5.69-.61-14.59-1-29.33-.88-43.94-.63-7.65.13-15.3.34-22.93.88-6.45.46-12.89.94-19.35,1.19-18.86.71-37.75.24-56.59-.88q-4.47-.27-8.94-.59c-1.28-.09-1.27,1.91,0,2Z" transform="translate(-0.03 -0.01)"/>
      </g>
      <g>
        <path class="cls-1" d="M98.48,13.06a52.57,52.57,0,0,1,5.92-8.58c.6-.72,1.17-1.5,1.84-2.16.18-.18.33-.38.54-.24s.39.74.51,1c.68,1.51,1.5,3,2.27,4.42a41.69,41.69,0,0,1,2.55,5.41c.43,1.2,2.37.68,1.93-.53-1.33-3.68-3.53-6.95-5.11-10.51a2.66,2.66,0,0,0-2-1.86c-1.18-.11-2,.77-2.69,1.59-1.3,1.55-2.6,3.1-3.82,4.72a45.41,45.41,0,0,0-3.63,5.73c-.61,1.13,1.11,2.14,1.73,1Z" transform="translate(-0.03 -0.01)"/>
        <path class="cls-1" d="M95.32,135.73a44.61,44.61,0,0,0,8.86,15.48,1,1,0,0,0,1.67-.44A38.07,38.07,0,0,1,113,138.16c.84-1-.57-2.39-1.41-1.42a40.62,40.62,0,0,0-7.69,13.49l1.68-.44a42.06,42.06,0,0,1-8.35-14.59c-.4-1.21-2.33-.69-1.93.53Z" transform="translate(-0.03 -0.01)"/>
        <path class="cls-1" d="M105.64,2.48l-.93,56.6c-.31,19-.63,37.91-.79,56.87q-.14,16-.08,32a1,1,0,0,0,2,0c-.08-19,.1-38,.37-56.93s.6-37.78.9-56.67l.53-31.82a1,1,0,0,0-2,0Z" transform="translate(-0.03 -0.01)"/>
      </g>
      <g>
        <path class="cls-2" d="M11.76,138.4c4-16.27,8.49-32.43,13.63-48.38A501.6,501.6,0,0,1,44.69,39c5.05-11.3,12-25.45,25.74-27.42,7.78-1.12,16.08,1.59,22.37,6.12a29.1,29.1,0,0,1,7,7.44A104.12,104.12,0,0,1,106,35.58c3.17,6.12,5.13,12.71,7.9,19a61.05,61.05,0,0,0,5.47,9.84,40,40,0,0,0,6.92,8.24,9.89,9.89,0,0,0,4.77,2.48,9.45,9.45,0,0,0,7.34-2.54,39,39,0,0,0,7.11-8.7,53.51,53.51,0,0,0,5.2-10.37,62.11,62.11,0,0,0,2.44-8c.63-2.74.95-5.88,2.74-8.17a10.6,10.6,0,0,1,7-4A10.17,10.17,0,0,1,171,36.48a14.12,14.12,0,0,1,3.48,6.79c1,3.82,1.92,7.68,2.91,11.51a62,62,0,0,0,1.91,6.68,40.81,40.81,0,0,0,2.54,5.29c2.91,5.19,7.34,10.26,13.6,11,1.69.18,3.39,0,5.09,0a11.62,11.62,0,0,1,5.32,1.54c3.44,1.91,5.86,5.41,7.85,8.72,3.14,5.24,4.62,10.93,6.24,16.76q3.1,11.13,6,22.32,1.68,6.52,3.27,13.06a1,1,0,0,0,1.93-.53Q228,126.75,224.53,114c-1.64-6.08-3.12-12.29-5.11-18.27a43.21,43.21,0,0,0-4.2-9c-2.05-3.35-4.53-6.84-8-8.89a13.94,13.94,0,0,0-4.94-1.88,31.41,31.41,0,0,0-5-.1,12.72,12.72,0,0,1-8.88-3.63c-8.73-8.18-9-20.55-12.55-31.28-1.71-5.25-6.41-9.77-12.25-9.62a12.38,12.38,0,0,0-8,3.45,13.26,13.26,0,0,0-3.62,7c-.67,2.88-1.27,5.75-2.19,8.56a55.16,55.16,0,0,1-4.36,10,46.56,46.56,0,0,1-7,9.66c-1.84,1.88-4.54,3.76-7.13,3.26a9.85,9.85,0,0,1-4.81-3.06,49.62,49.62,0,0,1-7.33-9.77C115.6,54.43,113.59,48,111,41.62a88.78,88.78,0,0,0-5.36-10.9,76.62,76.62,0,0,0-6.19-9.5c-4.67-5.78-11.71-9.6-18.91-11.17s-14.67-.62-20.76,3.69c-5.44,3.86-9.36,9.5-12.5,15.31A216,216,0,0,0,37.8,50q-5.31,12.9-9.86,26.08c-5.78,16.6-10.8,33.47-15.25,50.48q-1.47,5.63-2.86,11.28c-.3,1.25,1.63,1.78,1.93.53Z" transform="translate(-0.03 -0.01)"/>
        <path class="cls-2" d="M4.17,129.37l3.1,6.15c.51,1,1,2.06,1.55,3.08.44.86,1.25,1.6,2.26,1a19.16,19.16,0,0,0,2.46-2l2.64-2.22,5.29-4.44c1-.83-.44-2.24-1.42-1.41L15,133.78l-2.45,2.06L11.19,137l-.57.48-.38.32c-.2.18-.24.21-.14.1h.53c.11.13.14.14.07,0l-.16-.29-.33-.66-.55-1.1L8.39,133.3l-2.5-4.94c-.58-1.15-2.3-.14-1.72,1Z" transform="translate(-0.03 -0.01)"/>
        <path class="cls-2" d="M221.63,135.66l4.26,3.93,2.13,2c.63.58,1.29,1.38,2.23,1.38a2,2,0,0,0,1.75-1.42c.39-.88.78-1.76,1.16-2.64l2.38-5.39a1,1,0,0,0-.36-1.37,1,1,0,0,0-1.37.36l-2,4.62-1,2.2c-.16.36-.32.73-.49,1.1a4.3,4.3,0,0,0-.25.53c0,.18.23.07.24,0a5.62,5.62,0,0,0-.79-.71l-.89-.82-1.86-1.72L223,134.25c-.95-.87-2.36.54-1.41,1.41Z" transform="translate(-0.03 -0.01)"/>
      </g>
      <g>
        <g>
          <g>
            <path class="cls-3" d="M185.17,88l.05.05-.08-.6.22-.12.35.15-.07-.06.14.35c0-.23,1.06-.93,1.23-1.06l1.14-1,2.38-2,2.37-2,1.24-1c.32-.27.76-.69,1.22-.61.62.1.83,1,.93,1.47a15.27,15.27,0,0,1,.09,2.62l0,6.48a.5.5,0,0,0,.75.43l.93-.55a.5.5,0,0,0-.5-.86l-.93.55.75.43,0-6.73c0-1.4.18-3.31-1-4.38-1.38-1.3-3,.44-4,1.3l-5.14,4.24-1.52,1.26c-.34.28-.86.59-.94,1.06a.65.65,0,0,0,1.22.42.52.52,0,0,0-.08-.6l-.05-.06c-.41-.5-1.11.21-.71.71Z" transform="translate(-0.03 -0.01)"/>
            <path class="cls-3" d="M195.17,80.34l-6,12.08-3,5.92-1.51,3a28.32,28.32,0,0,0-1.42,2.87c-.19.56.19,1.5.92,1.1.52-.29.46-1.27-.25-1.19s-.64,1.08,0,1H184l-.36-.14,0,0-.15-.36.1-.19.38,0c.16.19.26.16.3-.1l.22-.45.34-.67.78-1.57,1.45-2.9,3-5.93,6-12c.28-.58-.58-1.08-.87-.51Z" transform="translate(-0.03 -0.01)"/>
          </g>
          <g>
            <path class="cls-3" d="M126.49,101.89a21.62,21.62,0,0,1,5.31-2.13c.87-.23,1.75-.36,2.63-.52a4.2,4.2,0,0,0,2.16-1c.47-.44-.24-1.15-.71-.71a4,4,0,0,1-2.18.8,24.27,24.27,0,0,0-2.69.58,22.59,22.59,0,0,0-5,2.1.5.5,0,0,0,.5.86Z" transform="translate(-0.03 -0.01)"/>
            <path class="cls-3" d="M131.43,94.73l-2,20.86c-.06.64.94.64,1,0l2-20.86c.06-.64-.94-.64-1,0Z" transform="translate(-0.03 -0.01)"/>
            <path class="cls-3" d="M134.25,101q-.74,6.85-.89,13.75c0,.55.87.69,1,.13a12.24,12.24,0,0,1,1.91-4.66c.2-.3.79-1.38,1.26-1.23s.45,1,.5,1.3a11.81,11.81,0,0,1,.14,1.88,12.49,12.49,0,0,1-.59,3.64c-.19.61.77.87,1,.26a13.21,13.21,0,0,0,.59-4.8c-.07-1-.13-2.89-1.35-3.25s-2.3,1.5-2.82,2.4a13.68,13.68,0,0,0-1.58,4.2l1,.13q.15-6.9.89-13.75c.07-.64-.93-.64-1,0Z" transform="translate(-0.03 -0.01)"/>
            <path class="cls-3" d="M141.24,106.45c-.06,1.51-.06,3,0,4.55,0,.76.06,1.52.12,2.28s.16,1.4.18,2.1l.93-.26c.11.16,0,.1,0,0s0-.22,0-.33a8.32,8.32,0,0,1-.1-1.11,10.55,10.55,0,0,1,.31-3.31,6.93,6.93,0,0,1,.75-1.8,2.12,2.12,0,0,1,.88-.92c.64-.27,1.36.37,1.75.86s1.09-.2.7-.7a2.9,2.9,0,0,0-2-1.21,2.19,2.19,0,0,0-1.87,1,9.5,9.5,0,0,0-1.49,6.31c0,.4.07.79.13,1.18a1.22,1.22,0,0,0,.13.53.5.5,0,0,0,.93-.25c0-.7-.13-1.41-.18-2.1s-.09-1.52-.12-2.28c0-1.52,0-3,0-4.55a.5.5,0,0,0-1,0Z" transform="translate(-0.03 -0.01)"/>
            <path class="cls-3" d="M145.94,113.77a3,3,0,0,1,1.61-2.63l-.68-.17a4.59,4.59,0,0,1,.84,2.08,5.07,5.07,0,0,1,0,1.1,2.1,2.1,0,0,1-.25.89c.08-.11-.13.1,0,0a.65.65,0,0,1-.38.11,1,1,0,0,1-.73-.28,1.27,1.27,0,0,1-.32-.63l0-.15s0-.06,0-.09h0c0-.1,0-.19,0-.28,0-.64-1-.65-1,0a3.2,3.2,0,0,0,.39,1.48,2,2,0,0,0,1.77,1,1.52,1.52,0,0,0,1.43-1,5,5,0,0,0,.16-2.3,5.41,5.41,0,0,0-1-2.4.51.51,0,0,0-.68-.18,4,4,0,0,0-2.11,3.49C145,114.41,146,114.41,145.94,113.77Z" transform="translate(-0.03 -0.01)"/>
            <path class="cls-3" d="M150,110a7.36,7.36,0,0,0-.28,2.91,4.91,4.91,0,0,0,.88,2.61,1.73,1.73,0,0,0,2.2.35,3,3,0,0,0,1.39-1.88,26,26,0,0,1,.44-3.17.5.5,0,0,0-1-.26,9,9,0,0,0-.33,2.36,2.67,2.67,0,0,1-.64,1.78c-.34.35-.87.62-1.28.24a2,2,0,0,1-.43-.83,6.59,6.59,0,0,1-.26-1.15,6.67,6.67,0,0,1,.24-2.7c.19-.61-.78-.88-1-.26Z" transform="translate(-0.03 -0.01)"/>
            <path class="cls-3" d="M155.73,109.58a7.39,7.39,0,0,0-.6,3.85,2,2,0,0,0,2.54,1.74c1-.21,1.18-1.93,1.21-2.74a5.43,5.43,0,0,0-1-3.35.5.5,0,0,0-.86.51,26.66,26.66,0,0,1,1.5,4.44,15.23,15.23,0,0,1,.56,4.29,1.67,1.67,0,0,1-.64,1.45,3.18,3.18,0,0,1-2.61-.1c-.6-.22-.86.74-.26,1a4.24,4.24,0,0,0,3.13.12,2.29,2.29,0,0,0,1.32-1.84,12.91,12.91,0,0,0-.43-4.66,27,27,0,0,0-1.71-5.17l-.86.51a4.54,4.54,0,0,1,.33,4.78l.3-.23a1.45,1.45,0,0,1-1.1,0c-.43-.24-.44-.82-.45-1.26a6.53,6.53,0,0,1,.51-2.79c.25-.59-.61-1.1-.87-.51Z" transform="translate(-0.03 -0.01)"/>
            <path class="cls-3" d="M160.61,104.16a92.17,92.17,0,0,1,.89,11.38c0,.46.71.72.93.25a17.49,17.49,0,0,0,1.11-3c.11-.39.18-.79.27-1.19.13-.58.32-.88.92-.52,1.71,1,.92,4,.19,5.35-.29.58.57,1.08.87.51,1-1.94,1.69-5.35-.56-6.72a1.68,1.68,0,0,0-1.59-.2,1.86,1.86,0,0,0-.8,1.32,18.43,18.43,0,0,1-1.28,3.93l.94.25a94.62,94.62,0,0,0-.93-11.65c-.09-.64-1-.37-1,.27Z" transform="translate(-0.03 -0.01)"/>
          </g>
          <path class="cls-3" d="M167.7,116.14a16.44,16.44,0,0,1-1,3.55.5.5,0,0,0,.86.5,16.75,16.75,0,0,0,1.15-3.79.5.5,0,0,0-.35-.61.5.5,0,0,0-.61.35Z" transform="translate(-0.03 -0.01)"/>
          <g>
            <path class="cls-3" d="M178.46,107.45l-.49,7.66a.5.5,0,0,0,.85.35,3.26,3.26,0,0,1,2.45-1.3,2,2,0,0,1,1.94,1.43,1.4,1.4,0,0,1-1.19,1.7c-1.1.06-2.17-.92-2.82-1.7-.41-.5-1.12.21-.71.71.91,1.08,2.41,2.23,3.92,2a2.42,2.42,0,0,0,1.8-2.67,2.88,2.88,0,0,0-2.52-2.38,4,4,0,0,0-3.58,1.56l.86.35.49-7.66c0-.64-1-.64-1,0Z" transform="translate(-0.03 -0.01)"/>
            <path class="cls-3" d="M186,111.81a8.09,8.09,0,0,0-.23,3.21,6.23,6.23,0,0,0,1,2.93,1.49,1.49,0,0,0,2.32.38,2.57,2.57,0,0,0,.57-1.17,14.11,14.11,0,0,0,.33-1.72,17.15,17.15,0,0,0,.08-4,.51.51,0,0,0-.5-.5.5.5,0,0,0-.5.5,16.59,16.59,0,0,1,0,3.66,13.58,13.58,0,0,1-.33,1.8c-.07.28-.2.87-.56.91s-.67-.51-.8-.78a6.22,6.22,0,0,1-.52-1.56,7,7,0,0,1,.13-3.35.5.5,0,0,0-1-.26Z" transform="translate(-0.03 -0.01)"/>
            <path class="cls-3" d="M190,110a34,34,0,0,1,6-.65.5.5,0,0,0,0-1,36.15,36.15,0,0,0-6.31.68c-.63.13-.36,1.09.27,1Z" transform="translate(-0.03 -0.01)"/>
            <path class="cls-3" d="M194.13,105.33a49.68,49.68,0,0,0-1.08,13.1c0,.64,1,.64,1,0a48.48,48.48,0,0,1,1-12.83c.14-.63-.83-.9-1-.27Z" transform="translate(-0.03 -0.01)"/>
          </g>
          <g>
            <path class="cls-3" d="M159.74,124.1a7.45,7.45,0,0,0-5,6.07,5.8,5.8,0,0,0,4,6.23,5.14,5.14,0,0,0,4.28-.68c.53-.37,0-1.23-.5-.86a4.27,4.27,0,0,1-4.11.37,4.59,4.59,0,0,1-2.58-3.18c-.75-3.05,1.32-5.93,4.12-7,.6-.23.34-1.19-.26-1Z" transform="translate(-0.03 -0.01)"/>
            <path class="cls-3" d="M164,127.9a10,10,0,0,0,.09,3.49,8.45,8.45,0,0,0,1.23,3.14,2.21,2.21,0,0,0,2.64,1,3.5,3.5,0,0,0,1.91-2.5c.4-1.41.72-2.86,1.08-4.28a.5.5,0,0,0-1-.27c-.34,1.35-.67,2.71-1,4.05a3.92,3.92,0,0,1-.71,1.6,1.32,1.32,0,0,1-1.34.5,2,2,0,0,1-1-1.07,8.16,8.16,0,0,1-.69-1.71,9.14,9.14,0,0,1-.26-3.68.52.52,0,0,0-.35-.62.5.5,0,0,0-.61.35Z" transform="translate(-0.03 -0.01)"/>
            <path class="cls-3" d="M171.36,127.33a42.93,42.93,0,0,0,2.27,8.1.5.5,0,0,0,1-.27,16.8,16.8,0,0,1-.09-5.79,2.71,2.71,0,0,1,.93-1.88,1,1,0,0,1,1.4.19.5.5,0,0,0,.86-.5,1.89,1.89,0,0,0-2.1-.82,2.7,2.7,0,0,0-1.85,1.91,11.13,11.13,0,0,0-.43,3.35,19.48,19.48,0,0,0,.32,3.81l1-.27a42.93,42.93,0,0,1-2.27-8.1c-.11-.63-1.07-.36-1,.27Z" transform="translate(-0.03 -0.01)"/>
            <path class="cls-3" d="M177.92,127.31a33.16,33.16,0,0,0,3.07,7.14.51.51,0,0,0,.87,0,22.72,22.72,0,0,0,1.78-6.67.5.5,0,0,0-.5-.5.52.52,0,0,0-.5.5,20.9,20.9,0,0,1-1.65,6.16h.87a31.67,31.67,0,0,1-3-6.9.5.5,0,0,0-1,.27Z" transform="translate(-0.03 -0.01)"/>
            <path class="cls-3" d="M184.6,127.75a10,10,0,0,0,.68,3.1c.25.61.65,1.26,1.36,1.36a1.61,1.61,0,0,0,1.58-1c.55-.95,1-2,1.43-3l-.91-.39a66.5,66.5,0,0,1-3.4,9.18c-.32.71-.66,1.41-1,2.1-.26.54-.85,1.27-.79,1.9.13,1.26,1.93.56,1.34-.31-.36-.53-1.23,0-.87.5l.05.08-.05-.39c.38.08.62,0,.71-.33l.21-.42.42-.83c.24-.49.48-1,.71-1.48q.7-1.54,1.35-3.12a67,67,0,0,0,2.29-6.61c.15-.53-.67-.91-.91-.39l-.91,1.92c-.18.39-.45,1.34-.88,1.54-.94.45-1.36-2.9-1.4-3.42s-1-.64-1,0Z" transform="translate(-0.03 -0.01)"/>
          </g>
        </g>
        <g>
          <g>
            <path class="cls-3" d="M133.07,5.52a110,110,0,0,0,1.26,13.19.51.51,0,0,0,.92.12,11.55,11.55,0,0,1,2.56-4.18,3.62,3.62,0,0,1,4-.66c1.6.88.94,2.73.06,3.89a5,5,0,0,1-3.86,2,8,8,0,0,1-2.88-.39c-.61-.2-.87.76-.27,1a6.88,6.88,0,0,0,7.87-2.07c1-1.4,1.67-3.45.22-4.8a4.24,4.24,0,0,0-4.58-.48c-2.07,1-3.1,3.25-4,5.21l.92.12a107.58,107.58,0,0,1-1.23-12.92c0-.64-1-.64-1,0Z" transform="translate(-0.03 -0.01)"/>
            <path class="cls-3" d="M146.71,16a3,3,0,0,1,1.07-2.72,2.63,2.63,0,0,1,3.58-.06,4.33,4.33,0,0,1,.94,2,1.92,1.92,0,0,1-.36,2,3.74,3.74,0,0,1-1.12.68,3.89,3.89,0,0,1-1.61.35,2.73,2.73,0,0,1-2.5-2.21c-.13-.63-1.1-.36-1,.27a3.76,3.76,0,0,0,2.72,2.84,4.92,4.92,0,0,0,4-1.07,2.57,2.57,0,0,0,.92-2.32,6,6,0,0,0-1-2.73,3.23,3.23,0,0,0-2.38-1.44,4.09,4.09,0,0,0-4.32,4.72C145.86,16.89,146.82,16.62,146.71,16Z" transform="translate(-0.03 -0.01)"/>
            <path class="cls-3" d="M154.76,11.69A6.47,6.47,0,0,0,156,18.18a2.87,2.87,0,0,0,3.87.36A6.05,6.05,0,0,0,162,15.23a9,9,0,0,0,.14-3.65.5.5,0,1,0-1,.27.59.59,0,0,0,0,.14c0-.13,0,.09,0,.13,0,.2,0,.4,0,.6a8.06,8.06,0,0,1-.08,1.55,5.53,5.53,0,0,1-1.5,3.1,2.3,2.3,0,0,1-1.39.78,1.94,1.94,0,0,1-1.49-.57,4.42,4.42,0,0,1-1.36-2.85,7.22,7.22,0,0,1,.28-2.77.5.5,0,0,0-1-.27Z" transform="translate(-0.03 -0.01)"/>
            <path class="cls-3" d="M164.31,13.28v5.41h1c0-2.21-.11-4.94,1.48-6.7.31-.34.87-.74,1.08-.11a8.71,8.71,0,0,1,.34,2,13.08,13.08,0,0,1-.35,4.27.5.5,0,0,0,1,.27,14.42,14.42,0,0,0,.42-4,15.38,15.38,0,0,0-.23-2,2.72,2.72,0,0,0-.62-1.57c-1-.91-2.15.12-2.72.92a7.44,7.44,0,0,0-1.17,3,21.68,21.68,0,0,0-.2,3.86.5.5,0,0,0,1,0V13.28a.5.5,0,0,0-1,0Z" transform="translate(-0.03 -0.01)"/>
            <path class="cls-3" d="M175.38,10c-2,.75-3.86,2.27-4.18,4.49a3.69,3.69,0,0,0,3,4.42,3.06,3.06,0,0,0,2.79-1,.52.52,0,0,0,0-.71.51.51,0,0,0-.71,0,2.14,2.14,0,0,1-2.32.68,2.49,2.49,0,0,1-1.75-2c-.45-2.29,1.49-4.1,3.45-4.85.59-.23.33-1.19-.27-1Z" transform="translate(-0.03 -0.01)"/>
            <path class="cls-3" d="M178.42,15.12a10,10,0,0,0,3.37-2.93,2.4,2.4,0,0,0,.63-1.93A1.13,1.13,0,0,0,181,9.5a2.48,2.48,0,0,0-1.31,1.35,13.75,13.75,0,0,0-.83,2.33,4.41,4.41,0,0,0,.8,4,2.64,2.64,0,0,0,3.79.14c.43-.48-.28-1.19-.71-.71a1.61,1.61,0,0,1-2.16.07A3,3,0,0,1,179.7,14a7.25,7.25,0,0,1,.48-1.77,4.82,4.82,0,0,1,.68-1.43c.1-.12.52-.59.6-.23s-.44,1-.67,1.29a9.09,9.09,0,0,1-2.87,2.4c-.57.3-.06,1.17.5.86Z" transform="translate(-0.03 -0.01)"/>
            <path class="cls-3" d="M189.19,9.42a4.1,4.1,0,0,0-3.24.2,2.1,2.1,0,0,0-.92,2.44,2.78,2.78,0,0,0,2.19,1.85,3.17,3.17,0,0,1,1.18.5,1.14,1.14,0,0,1,.17,1.34A2.31,2.31,0,0,1,185.72,17a.5.5,0,0,0-.27,1,3.53,3.53,0,0,0,3.13-.58,2.94,2.94,0,0,0,1.07-2.79c-.25-1.07-1.34-1.41-2.26-1.69a2.29,2.29,0,0,1-1.16-.61A1.48,1.48,0,0,1,186,11c.38-1.08,2.11-.88,2.94-.63.61.19.88-.78.26-1Z" transform="translate(-0.03 -0.01)"/>
            <path class="cls-3" d="M193.17,6.24a40.64,40.64,0,0,0,.58,9c.11.64,1.08.37,1-.26a39.53,39.53,0,0,1-.55-8.69c0-.64-1-.64-1,0Z" transform="translate(-0.03 -0.01)"/>
            <path class="cls-3" d="M194.34,17.1l-.27.92,1,.13-.08-.64a.34.34,0,0,0,0-.2.39.39,0,0,0-.1-.16.48.48,0,0,0-.36-.14.47.47,0,0,0-.35.14.53.53,0,0,0-.15.36l.08.64a.31.31,0,0,0,0,.19.37.37,0,0,0,.1.17.55.55,0,0,0,.29.13.44.44,0,0,0,.32-.06.53.53,0,0,0,.23-.3l.26-.92a.51.51,0,0,0-.05-.38.53.53,0,0,0-.3-.23.5.5,0,0,0-.38.05.5.5,0,0,0-.23.3Z" transform="translate(-0.03 -0.01)"/>
          </g>
          <g>
            <path class="cls-3" d="M142.85,24.19c-3.33,4.83-4.73,10.59-5.74,16.29-.51,2.91-.93,5.83-1.48,8.73-.62,3.27-1.47,6.49-2.27,9.72a68,68,0,0,0-2,11.06c-.05.64.95.64,1,0,.51-6.65,2.73-13,4-19.5,1.14-5.69,1.68-11.51,3.32-17.09a30.08,30.08,0,0,1,4-8.71c.36-.53-.5-1-.87-.5Z" transform="translate(-0.03 -0.01)"/>
            <path class="cls-3" d="M129.26,65.35h.05a.52.52,0,0,0,.36-.49.59.59,0,0,0-1.06-.37.82.82,0,0,0,0,.83c.16.37.33.74.49,1.12L131,70.91a.51.51,0,0,0,.86,0,2.06,2.06,0,0,1,.65-.56l.78-.58L135,68.55l3.26-2.44c.51-.38,0-1.25-.5-.86l-3.55,2.65-1.7,1.27A5,5,0,0,0,131,70.4h.86l-1.22-2.8-.59-1.36-.28-.64c0-.07-.29-.7-.34-.61l-.3.23h.06l-.39,0-.17-.31.37-.48,0,0c-.6.23-.34,1.19.26,1Z" transform="translate(-0.03 -0.01)"/>
          </g>
        </g>
        <g>
          <g>
            <path class="cls-3" d="M48.78,93.42a10.73,10.73,0,0,0-3.88,4.06c-.76,1.4-1.45,3.48-.09,4.76s3,.67,4.5,1c1.77.36,2.2,2.27,1.33,3.71a3.65,3.65,0,0,1-5.18.79c-.51-.39-1.22.32-.71.71a4.79,4.79,0,0,0,4.86.62,4,4,0,0,0,2.46-3.9,3.12,3.12,0,0,0-3-3c-1.57-.19-4.26.21-4-2.2a7.2,7.2,0,0,1,1.5-3.24,9.87,9.87,0,0,1,2.74-2.45.5.5,0,0,0-.51-.86Z" transform="translate(-0.03 -0.01)"/>
            <path class="cls-3" d="M51.87,100.54a18.6,18.6,0,0,1,6.51-1.61c.64,0,.65-1,0-1a19.77,19.77,0,0,0-7,1.75.5.5,0,1,0,.5.86Z" transform="translate(-0.03 -0.01)"/>
            <path class="cls-3" d="M54.52,96.75a39.14,39.14,0,0,0,1.06,11.41.5.5,0,0,0,1-.27,38,38,0,0,1-1-11.14c0-.65-1-.64-1,0Z" transform="translate(-0.03 -0.01)"/>
            <path class="cls-3" d="M59.63,99.15,61,107.84c.07.48.87.47,1,0A11.11,11.11,0,0,0,62,105a11.1,11.1,0,0,1,0-2.88c.26-1.21,1.25-2.86,2.7-2.58.63.12.9-.85.27-1-1.77-.34-3.13,1-3.73,2.59-.79,2.07.1,4.33-.3,6.45h1L60.6,98.89c-.1-.64-1.06-.37-1,.26Z" transform="translate(-0.03 -0.01)"/>
            <path class="cls-3" d="M67.32,102.82,68,105.2l1-.26a42.67,42.67,0,0,0-2.1-4.49.5.5,0,0,0-.68-.18,2.17,2.17,0,0,0-1.1,1.81,8.53,8.53,0,0,0,0,2.42,3.52,3.52,0,0,0,2.82,3.17,2.39,2.39,0,0,0,2.18-.73.52.52,0,0,0,0-.71.5.5,0,0,0-.71,0,1.47,1.47,0,0,1-1.58.4,2.23,2.23,0,0,1-1.46-1.35,5.62,5.62,0,0,1-.33-2.41c0-.6,0-1.46.66-1.74L66,101a42.08,42.08,0,0,1,2,4.25c.24.59,1.14.38,1-.26l-.63-2.39a.5.5,0,0,0-1,.27Z" transform="translate(-0.03 -0.01)"/>
            <path class="cls-3" d="M72.58,106.77l-1-6.17a.5.5,0,0,0-.62-.35.52.52,0,0,0-.35.61l1,6.17a.51.51,0,0,0,.62.35.52.52,0,0,0,.35-.61Z" transform="translate(-0.03 -0.01)"/>
            <path class="cls-3" d="M70.33,98.4a.5.5,0,0,0,0-1,.5.5,0,0,0,0,1Z" transform="translate(-0.03 -0.01)"/>
            <path class="cls-3" d="M74.16,102.17a2.75,2.75,0,0,0,.09,2.16c.3.59,1,1.2,1.66.91,1.51-.6.34-3.35-.17-4.27l-.86.51c1.69,2.27,3.07,5.24,2.35,8.13-.58,2.38-2.9,4.63-5.5,4.23-.62-.09-.9.87-.26,1,3,.45,5.64-1.69,6.58-4.42,1.11-3.25-.37-6.81-2.31-9.42a.5.5,0,0,0-.86.51,5.3,5.3,0,0,1,.73,2.42c0,.68-.49,0-.57-.3a1.88,1.88,0,0,1,.08-1.17c.23-.6-.74-.86-1-.26Z" transform="translate(-0.03 -0.01)"/>
            <path class="cls-3" d="M79,98c.67,2.88,1.2,5.8,1.59,8.73.07.51.85.74,1,.13a18.33,18.33,0,0,1,1.54-4.23h-.86a8.51,8.51,0,0,1,1.07,4.5h1l0-.78a.5.5,0,0,0-1,0l0,.78c0,.64,1,.64,1,0a9.39,9.39,0,0,0-1.21-5,.5.5,0,0,0-.86,0,19.18,19.18,0,0,0-1.64,4.47l1,.13q-.6-4.53-1.63-9c-.14-.62-1.1-.36-1,.27Z" transform="translate(-0.03 -0.01)"/>
            <path class="cls-3" d="M84,100.09l5.09-1.33a.5.5,0,0,0-.27-1l-5.09,1.33a.5.5,0,0,0,.27,1Z" transform="translate(-0.03 -0.01)"/>
            <path class="cls-3" d="M86.44,95.4a108.86,108.86,0,0,1-.55,13.51c-.06.64.94.64,1,0a108.86,108.86,0,0,0,.55-13.51.5.5,0,0,0-1,0Z" transform="translate(-0.03 -0.01)"/>
          </g>
          <g>
            <path class="cls-3" d="M44,120a9.18,9.18,0,0,1,4-1.52c1.63-.28,3.27-.47,4.9-.69.63-.09.36-1-.27-1-1.68.24-3.37.43-5,.72a9.67,9.67,0,0,0-4.12,1.59c-.51.39,0,1.25.5.87Z" transform="translate(-0.03 -0.01)"/>
            <path class="cls-3" d="M48,113.91a69.56,69.56,0,0,0,.87,14.2c.1.64,1.06.37,1-.26A69.23,69.23,0,0,1,49,113.91c0-.64-1-.64-1,0Z" transform="translate(-0.03 -0.01)"/>
            <path class="cls-3" d="M54,113.36q.26,6.23,1,12.42c.06.52.84.72,1,.13a13.28,13.28,0,0,1,.84-2.39c.17-.35.89-2.08,1.42-2,.3.08.41.9.46,1.14a8.44,8.44,0,0,1,.21,1.32,9.23,9.23,0,0,1-.24,2.77c-.15.63.81.89,1,.27a10,10,0,0,0,.19-3.78c-.12-.84-.28-2.41-1.29-2.68s-1.71.83-2.13,1.56A13.74,13.74,0,0,0,55,125.64l1,.14q-.74-6.19-1-12.42c0-.64-1-.64-1,0Z" transform="translate(-0.03 -0.01)"/>
            <path class="cls-3" d="M59.87,119.28A46.78,46.78,0,0,1,61,125.4a.51.51,0,0,0,.5.5.51.51,0,0,0,.5-.5,10.14,10.14,0,0,1,1.15-5.67l-.68.18.72.51a.5.5,0,0,0,.68-.18.5.5,0,0,0-.18-.68l-.72-.51a.5.5,0,0,0-.68.18A11.1,11.1,0,0,0,61,125.4h1A47.59,47.59,0,0,0,60.83,119a.5.5,0,0,0-1,.27Z" transform="translate(-0.03 -0.01)"/>
            <path class="cls-3" d="M65.11,123.29a1.72,1.72,0,0,1-.07-.21c0-.13,0,.06,0,0v-.2c0-.13,0,.09,0,0a1.66,1.66,0,0,1,.06-.21c0-.13,0,.08,0,0l0-.08.06-.1s.07-.1,0,0l.14-.16.08-.07c.1-.1-.07,0,0,0l.2-.12.08,0c-.1,0,0,0,0,0l.19-.05h.17s.15,0,.08,0,.08,0,.07,0a2,2,0,0,1,.23.06s.09,0,0,0l.11,0a1.64,1.64,0,0,1,.22.14c.13.08,0,0,0,0l.09.08.17.18h0l.07.1c0,.08.1.16.14.24s.06.13,0,.07,0,.08,0,.07a.79.79,0,0,1,.06.22,1.83,1.83,0,0,1,0,.49,1.86,1.86,0,0,1-.1.39l-.09.16c-.07.11.07-.06,0,0l-.08.08-.06,0c-.08.09.09,0,0,0l-.15.08-.09,0c.1,0,0,0,0,0l-.22.06-.07,0c.12,0,0,0,0,0h-.29c-.1,0,.09,0,0,0a1.17,1.17,0,0,1-.2-.06s-.13,0-.05,0l-.08,0-.16-.1c.1.07,0,0,0,0l-.08-.08,0-.06c.08.1,0,0,0-.05A.5.5,0,0,0,65,124a.5.5,0,0,0-.18.68,2,2,0,0,0,1.92.92,2,2,0,0,0,1.79-1.43,2.67,2.67,0,0,0-.8-2.6,2.19,2.19,0,0,0-2.51-.4,2.08,2.08,0,0,0-1,2.44.53.53,0,0,0,.62.35.51.51,0,0,0,.35-.62Z" transform="translate(-0.03 -0.01)"/>
            <path class="cls-3" d="M69.29,120a8.24,8.24,0,0,0-.33,3.12A5.92,5.92,0,0,0,69.8,126a1.39,1.39,0,0,0,2.26.11,6.1,6.1,0,0,0,1.1-2.78,12.47,12.47,0,0,0,.19-3.76.52.52,0,0,0-.5-.5.5.5,0,0,0-.5.5,12,12,0,0,1-.13,3.38,11.71,11.71,0,0,1-.45,1.64c-.12.35-.31.86-.66,1-.71.35-1-1.74-1.11-2.11a7.39,7.39,0,0,1,.26-3.24c.19-.62-.78-.88-1-.27Z" transform="translate(-0.03 -0.01)"/>
            <path class="cls-3" d="M74.76,119.28a19.89,19.89,0,0,0-.17,2.56,5.42,5.42,0,0,0,.24,2,1.62,1.62,0,0,0,1.08,1.08,1.69,1.69,0,0,0,1.58-.71A3.44,3.44,0,0,0,76.13,119c-.54-.22-.84.62-.38.91a6.48,6.48,0,0,1,3.15,5.82,2.94,2.94,0,0,1-2.12,2.44,8.94,8.94,0,0,1-4,.06c-.63-.09-.9.88-.27,1a9.59,9.59,0,0,0,4.76-.13,3.91,3.91,0,0,0,2.59-2.9c.5-2.79-1.28-5.67-3.59-7.11l-.38.91a2.45,2.45,0,0,1,1,3.5c-.16.23-.51.65-.82.46s-.36-.72-.39-1a16,16,0,0,1,.14-3.59c.08-.64-.92-.63-1,0Z" transform="translate(-0.03 -0.01)"/>
            <path class="cls-3" d="M79.42,118.05l1.6,7.69a.5.5,0,0,0,.83.22,2.2,2.2,0,0,0,.62-1.61c.07-.53.24-.95.84-.91,1.51.1,1.41,2,1.35,3.12,0,.64,1,.64,1,0,.1-1.59-.08-3.74-2-4.08a1.78,1.78,0,0,0-1.83.67,2.72,2.72,0,0,0-.33,1.14c0,.36,0,.73-.34,1l.84.22-1.59-7.69c-.13-.63-1.1-.36-1,.26Z" transform="translate(-0.03 -0.01)"/>
          </g>
          <path class="cls-3" d="M32.74,81.09A88.84,88.84,0,0,1,42.87,94.44c.34.54,1.2,0,.86-.51A90.14,90.14,0,0,0,33.44,80.39c-.43-.48-1.14.23-.7.7Z" transform="translate(-0.03 -0.01)"/>
          <path class="cls-3" d="M34.25,89.59l-.67-4.36-.34-2.18L33.07,82c0-.25-.2-.74,0-1s.49-.13.68-.13c.35,0,.7,0,1,0a18.66,18.66,0,0,1,2.11.24,20.51,20.51,0,0,1,4,1.13c.6.23.86-.74.27-1a20.52,20.52,0,0,0-4.69-1.23,21,21,0,0,0-2.38-.2,2.29,2.29,0,0,0-1.73.41c-.53.52-.36,1.29-.26,1.94l.39,2.54.78,5.09c.1.63,1.06.36,1-.27Z" transform="translate(-0.03 -0.01)"/>
        </g>
      </g>
    </g>
  </g>
</svg>
