<?xml version="1.0" encoding="utf-8"?>
<!-- Generator: Adobe Illustrator 23.1.1, SVG Export Plug-In . SVG Version: 6.00 Build 0)  -->
<svg version="1.1" id="Layer_1" xmlns="http://www.w3.org/2000/svg" xmlns:xlink="http://www.w3.org/1999/xlink" x="0px" y="0px"
	 viewBox="0 0 288 216" style="enable-background:new 0 0 288 216;" xml:space="preserve">
<style type="text/css">
	.st0{fill:#808285;}
	.st1{fill:none;stroke:#808285;stroke-width:2;stroke-miterlimit:10;}
	.st2{fill:#ED1C24;}
</style>
<g>
	<g>
		<g>
			<path class="st0" d="M59.23,101c-1.74,1.43-3.42,2.92-5.05,4.46c-0.81,0.77-1.61,1.56-2.4,2.37c-0.73,0.75-1.57,1.5-2.09,2.41
				c-1.05,1.85-0.03,3.61,1.74,4.43c0.86,0.4,1.78,0.68,2.65,1.05c0.95,0.4,1.88,0.86,2.79,1.35c2.07,1.12,4.01,2.47,5.78,4.01
				c0.97,0.84,2.39-0.57,1.41-1.41c-2.93-2.55-6.23-4.58-9.83-6.03c-0.79-0.32-3.47-0.88-2.91-2.21c0.35-0.84,1.24-1.54,1.87-2.18
				c0.7-0.72,1.42-1.43,2.15-2.13c1.71-1.64,3.48-3.2,5.3-4.71C61.64,101.59,60.22,100.19,59.23,101L59.23,101z"/>
		</g>
	</g>
	<g>
		<g>
			<path class="st0" d="M268.38,109.81c2.29,0.89,4.58,1.79,6.87,2.68c0.97,0.38,1.97,0.71,2.91,1.15c0.72,0.34,1.49,0.72,1.14,1.62
				c-0.35,0.89-1.05,1.73-1.63,2.48c-0.59,0.76-1.23,1.49-1.89,2.18c-1.47,1.53-3.1,2.89-4.85,4.08c-1.06,0.72-0.06,2.45,1.01,1.73
				c3.11-2.11,5.86-4.68,8.04-7.75c1.03-1.46,2.17-3.35,0.76-4.97c-0.54-0.61-1.28-0.98-2.02-1.3c-0.97-0.41-1.95-0.77-2.93-1.15
				c-2.29-0.89-4.58-1.79-6.87-2.68c-0.5-0.2-1.1,0.22-1.23,0.7C267.53,109.15,267.88,109.61,268.38,109.81L268.38,109.81z"/>
		</g>
	</g>
	<g>
		<g>
			<path class="st0" d="M51.41,113.24c18.85,1.16,37.76,1.76,56.64,1.33c13.01-0.29,25.97-1.42,38.98-1.72
				c14.52-0.33,29.08-0.4,43.59,0.22c4.56,0.19,9.07,0.78,13.62,0.98c7.77,0.36,15.56,0.37,23.34,0.37c6.74,0,13.41,0.6,20.14,0.92
				c7.93,0.38,15.87,0.45,23.8,0.41c2.71-0.01,5.42-0.04,8.13-0.09c1.29-0.02,1.29-2.02,0-2c-9.12,0.14-18.25,0.16-27.36-0.14
				c-6.28-0.21-12.54-0.86-18.82-1.05c-7.88-0.25-15.77-0.04-23.65-0.24c-3.43-0.09-6.88-0.17-10.3-0.5
				c-1.79-0.17-3.56-0.39-5.36-0.5c-13.74-0.85-27.59-0.72-41.34-0.51c-7.19,0.11-14.39,0.28-21.57,0.72
				c-6.07,0.37-12.13,0.77-18.21,0.97c-17.74,0.58-35.51,0.2-53.24-0.71c-2.8-0.15-5.61-0.31-8.41-0.48
				C50.12,111.16,50.13,113.16,51.41,113.24L51.41,113.24z"/>
		</g>
	</g>
	<path class="st1" d="M171.28,111.5"/>
</g>
<g>
	<g>
		<g>
			<path class="st0" d="M146.69,52.51c1.67-3.09,3.68-5.89,5.92-8.59c0.6-0.72,1.17-1.5,1.84-2.16c0.18-0.18,0.34-0.38,0.54-0.24
				c0.25,0.18,0.39,0.74,0.51,1.01c0.68,1.51,1.5,2.96,2.28,4.42c0.93,1.76,1.87,3.53,2.55,5.41c0.43,1.2,2.37,0.68,1.93-0.53
				c-1.32-3.68-3.53-6.94-5.11-10.5c-0.4-0.89-0.97-1.76-2.04-1.86c-1.17-0.11-1.99,0.77-2.68,1.59c-1.3,1.55-2.61,3.1-3.82,4.72
				c-1.36,1.81-2.56,3.73-3.63,5.73C144.35,52.64,146.07,53.65,146.69,52.51L146.69,52.51z"/>
		</g>
	</g>
	<g>
		<g>
			<path class="st0" d="M143.53,175.18c1.88,5.7,4.9,10.96,8.86,15.47c0.53,0.6,1.45,0.22,1.67-0.44c1.55-4.61,4-8.91,7.17-12.61
				c0.83-0.97-0.57-2.39-1.41-1.41c-3.41,3.97-6.02,8.53-7.68,13.49c0.56-0.15,1.11-0.29,1.67-0.44c-3.73-4.24-6.57-9.23-8.35-14.59
				C145.06,173.44,143.13,173.96,143.53,175.18L143.53,175.18z"/>
		</g>
	</g>
	<g>
		<g>
			<path class="st0" d="M153.85,41.93c-0.31,18.87-0.62,37.73-0.93,56.6c-0.31,18.96-0.63,37.91-0.79,56.87
				c-0.09,10.65-0.12,21.3-0.08,31.95c0.01,1.29,2.01,1.29,2,0c-0.08-18.98,0.1-37.95,0.36-56.93c0.27-18.89,0.6-37.78,0.91-56.67
				c0.17-10.61,0.35-21.22,0.52-31.82C155.87,40.64,153.87,40.64,153.85,41.93L153.85,41.93z"/>
		</g>
	</g>
</g>
<g>
	<g>
		<g>
			<path class="st2" d="M84.4,178.51c4.21-14.94,8.34-29.89,12.55-44.83c3.37-11.95,6.66-24.14,12.67-35.09
				c2.86-5.22,6.15-10.34,9.82-15.02c4.08-5.2,9.29-10.71,15.99-12.22c3.84-0.86,7.72,0.1,11.2,1.77c3.45,1.66,6.63,3.77,9.28,6.55
				c2.65,2.78,4.71,6.04,6.69,9.31c2.37,3.91,4.72,7.83,7.08,11.74c2.96,4.91,5.92,9.82,8.87,14.73c2.16,3.6,4.14,7.29,6.16,10.98
				c2.28,4.16,4.47,8.81,7.83,12.25c2.43,2.48,5.62,4.03,8.84,5.21c7.01,2.59,15.25,3.05,21.39-1.84c3.37-2.69,5.48-6.61,7.48-10.35
				c4.82-9.06,8.94-18.51,13.02-27.92c4.65-10.72,9.12-21.52,13.52-32.36c2.86-7.05,5.69-14.11,8.47-21.2
				c0.22-0.56,0.44-1.12,0.66-1.69c0.47-1.2-1.47-1.72-1.93-0.53c-2.09,5.37-4.23,10.72-6.37,16.07
				c-4.18,10.39-8.42,20.76-12.8,31.07c-4.34,10.21-8.75,20.42-13.65,30.38c-1.67,3.39-3.37,6.78-5.38,9.98
				c-1.52,2.42-3.36,4.59-5.83,6.09c-3.43,2.09-7.52,2.56-11.45,2.05c-4.37-0.57-8.98-2.16-12.61-4.73c-3-2.12-5.02-5.64-6.88-8.88
				c-2.59-4.54-4.92-9.23-7.6-13.72c-2.29-3.83-4.6-7.65-6.9-11.48c-2.07-3.44-4.15-6.88-6.22-10.33c-2.23-3.71-4.37-7.5-6.81-11.07
				c-4.33-6.35-10.45-11.49-17.93-13.68c-14.53-4.26-25.09,10.89-31.8,21.38c-2.86,4.47-5.43,9.09-7.53,13.96
				c-2.39,5.54-4.27,11.27-6.01,17.04c-4.89,16.21-9.2,32.6-13.78,48.9c-0.65,2.3-1.29,4.6-1.94,6.9
				C82.12,179.22,84.05,179.75,84.4,178.51L84.4,178.51z"/>
		</g>
	</g>
	<g>
		<g>
			<path class="st2" d="M252.97,57.24c3.45-2.99,7.17-5.67,11.11-7.99c0.31-0.18,0.9-0.69,1.28-0.68c0.36,0.01,0.64,0.46,0.82,0.74
				c0.53,0.8,0.9,1.67,1.15,2.6c0.53,1.95,0.55,3.99,0.61,5.99c0.03,1.11,0.07,2.23,0.19,3.33c0.14,1.23,1.54,2.31,2.45,1.01
				c0.74-1.06-0.99-2.06-1.73-1.01c-0.02,0.03-0.04,0.06-0.06,0.09c0.2-0.15,0.4-0.31,0.6-0.46c-0.03,0.01-0.06,0.01-0.09,0.02
				c0.18,0,0.35,0,0.53,0c-0.04-0.01-0.07-0.03-0.11-0.04c0.15,0.09,0.29,0.17,0.44,0.26c-0.21-0.16-0.08-0.05-0.04,0.03
				c-0.04-0.09-0.03-0.31-0.04-0.4c-0.02-0.23-0.04-0.47-0.05-0.7c-0.03-0.54-0.06-1.08-0.07-1.62c-0.03-1.02-0.05-2.04-0.12-3.05
				c-0.13-2.04-0.43-4.08-1.31-5.95c-0.42-0.89-0.99-1.86-1.82-2.42c-1.05-0.71-2.14-0.33-3.15,0.25c-1.97,1.14-3.88,2.37-5.73,3.68
				c-2.17,1.53-4.26,3.17-6.27,4.91C250.58,56.67,252,58.08,252.97,57.24L252.97,57.24z"/>
		</g>
	</g>
	<g>
		<g>
			<path class="st2" d="M75.29,167.62c1.88,3.84,3.75,7.68,5.63,11.52c0.36,0.74,0.82,1.45,1.69,1.61c0.97,0.18,1.71-0.5,2.36-1.12
				c1.55-1.49,3.11-2.99,4.66-4.48c1.76-1.7,3.53-3.39,5.29-5.09c0.93-0.89-0.49-2.31-1.41-1.41c-1.79,1.72-3.59,3.45-5.38,5.17
				c-0.9,0.86-1.79,1.72-2.69,2.59c-0.42,0.4-0.84,0.8-1.26,1.21c-0.38,0.36-0.86,0.72-1.19,1.11c-0.11,0.13,0.05,0.11,0.01,0.06
				c-0.15-0.19-0.24-0.44-0.35-0.65c-0.25-0.52-0.51-1.03-0.76-1.55c-0.54-1.11-1.08-2.21-1.63-3.32c-1.08-2.21-2.17-4.43-3.25-6.64
				C76.45,165.46,74.72,166.47,75.29,167.62L75.29,167.62z"/>
		</g>
	</g>
</g>
<g>
	<g>
		<g>
			<path d="M158.95,66.01c-1.26,3.14-2.37,6.33-3.34,9.56c-0.1,0.33,0.17,0.61,0.48,0.63c1.63,0.11,2.83-1.1,4.22-1.73
				c1.51-0.69,3.24-0.82,4.85-0.42c0.62,0.16,0.89-0.81,0.27-0.96c-1.62-0.4-3.34-0.34-4.91,0.23c-0.77,0.28-1.45,0.68-2.15,1.1
				c-0.71,0.43-1.43,0.84-2.28,0.78c0.16,0.21,0.32,0.42,0.48,0.63c0.97-3.24,2.09-6.43,3.34-9.56
				C160.16,65.68,159.19,65.42,158.95,66.01L158.95,66.01z"/>
		</g>
	</g>
	<g>
		<g>
			<path d="M157.43,75.68c5.24-6.22,10.95-12.04,17.1-17.37c1.74-1.51,3.52-2.98,5.33-4.42c0.5-0.4-0.21-1.1-0.71-0.71
				c-6.37,5.05-12.35,10.6-17.86,16.59c-1.56,1.7-3.08,3.43-4.57,5.2C156.31,75.47,157.02,76.18,157.43,75.68L157.43,75.68z"/>
		</g>
	</g>
</g>
<g>
	<g>
		<g>
			<path d="M181.75,42.61c-0.21,2.66,1.17,8.21,4.92,6.27c1.32-0.68,2.13-2.02,2.72-3.33c0.8-1.76,1.48-3.59,2.21-5.38
				c-0.33-0.04-0.65-0.09-0.98-0.13c-0.18,8.32-4.25,15.82-8.81,22.55c-0.65,0.96-1.31,1.91-1.97,2.85
				c-0.51,0.72-1.62,1.76-1.27,2.72c0.22,0.6,1.19,0.34,0.96-0.27c-0.14-0.39,0.57-1.11,0.77-1.39c0.29-0.41,0.58-0.82,0.87-1.23
				c0.6-0.85,1.19-1.71,1.77-2.57c1.12-1.66,2.19-3.35,3.18-5.09c1.97-3.44,3.62-7.09,4.59-10.94c0.55-2.17,0.86-4.4,0.91-6.64
				c0.01-0.61-0.78-0.62-0.98-0.13c-0.6,1.47-1.19,2.95-1.8,4.42c-0.47,1.13-1,2.33-1.92,3.17c-0.48,0.43-1.12,0.8-1.78,0.79
				c-0.7-0.01-1.14-0.59-1.45-1.15c-0.77-1.38-1.05-2.97-0.93-4.53C182.8,41.97,181.8,41.97,181.75,42.61L181.75,42.61z"/>
		</g>
	</g>
	<g>
		<g>
			<path d="M192.1,51.48c2.57-0.21,5.05-0.95,7.32-2.17c0.57-0.31,0.06-1.17-0.5-0.86c-2.1,1.14-4.43,1.84-6.81,2.04
				C191.46,50.54,191.46,51.54,192.1,51.48L192.1,51.48z"/>
		</g>
	</g>
	<g>
		<g>
			<path d="M202.06,57.25c-0.12-4.24,0.35-8.46,1.39-12.57c0.16-0.62-0.81-0.89-0.96-0.27c-1.06,4.19-1.54,8.51-1.42,12.83
				C201.07,57.9,202.07,57.9,202.06,57.25L202.06,57.25z"/>
		</g>
	</g>
	<g>
		<g>
			<path d="M204.55,49.37c-0.31,2.6-0.5,5.21-0.58,7.82c0.33,0,0.67,0,1,0c-0.14-1.79-0.05-3.6,0.3-5.36
				c0.17-0.84,0.39-1.66,0.67-2.47c0.26-0.76,0.53-1.69,1.01-2.35c0.11-0.16,0.2-0.32,0.39-0.19c0.12,0.08,0.16,0.37,0.19,0.5
				c0.12,0.42,0.23,0.85,0.32,1.28c0.19,0.89,0.31,1.78,0.36,2.69c0.12,1.85-0.04,3.71-0.45,5.52c-0.14,0.63,0.82,0.89,0.96,0.27
				c0.75-3.29,0.78-6.95-0.28-10.18c-0.17-0.53-0.48-1.06-1.09-1.13c-0.68-0.08-1.15,0.49-1.43,1.04c-0.75,1.46-1.27,3.08-1.6,4.68
				c-0.39,1.88-0.51,3.81-0.36,5.72c0.05,0.63,0.98,0.65,1,0c0.07-2.61,0.27-5.22,0.58-7.82C205.62,48.73,204.62,48.74,204.55,49.37
				L204.55,49.37z"/>
		</g>
	</g>
	<g>
		<g>
			<path d="M210.38,46.19c1.85,0.14,3.71-0.04,5.5-0.51c0.62-0.17,0.36-1.13-0.27-0.96c-1.71,0.46-3.47,0.61-5.23,0.48
				c-0.27-0.02-0.5,0.24-0.5,0.5C209.88,45.98,210.11,46.17,210.38,46.19L210.38,46.19z"/>
		</g>
	</g>
	<g>
		<g>
			<path d="M212.88,42.32c-0.52,4.96-0.77,9.95-0.73,14.93c0,0.64,1,0.64,1,0c-0.03-4.99,0.21-9.97,0.73-14.93
				C213.95,41.68,212.95,41.68,212.88,42.32L212.88,42.32z"/>
		</g>
	</g>
	<g>
		<g>
			<path d="M216.78,53.15c1.97-0.57,3.74-1.81,4.87-3.53c0.54-0.83,0.91-1.87,0.57-2.85c-0.28-0.83-1.03-1.48-1.93-1.45
				c-2.06,0.07-2.75,2.91-2.91,4.52c-0.22,2.07,0.27,4.4,1.54,6.08c0.59,0.78,1.47,1.44,2.5,1.33c0.95-0.1,1.7-0.74,1.82-1.7
				c0.08-0.64-0.92-0.63-1,0c-0.07,0.56-0.81,0.78-1.27,0.69c-0.7-0.14-1.21-0.8-1.55-1.38c-0.77-1.32-1.13-2.87-1.08-4.39
				c0.04-1.26,0.33-3.37,1.59-4.03c0.68-0.36,1.3,0.21,1.41,0.89c0.12,0.75-0.33,1.49-0.75,2.07c-1,1.35-2.46,2.32-4.07,2.79
				C215.9,52.36,216.16,53.33,216.78,53.15L216.78,53.15z"/>
		</g>
	</g>
	<g>
		<g>
			<path d="M224.27,45.71c-0.13,3.17-0.07,6.33,0.17,9.49c0.05,0.65,0.93,0.64,1,0c0.12-1.18,0.25-2.35,0.37-3.53
				c0.11-1.07,0.13-2.21,0.4-3.26c0.6-2.31,3.05-1.13,4.38-0.24c0.54,0.36,1.04-0.51,0.5-0.86c-1.59-1.07-4.37-2.22-5.55,0.04
				c-0.56,1.06-0.53,2.41-0.66,3.57c-0.15,1.42-0.3,2.85-0.45,4.27c0.33,0,0.67,0,1,0c-0.24-3.16-0.3-6.33-0.17-9.49
				C225.3,45.06,224.3,45.07,224.27,45.71L224.27,45.71z"/>
		</g>
	</g>
	<g>
		<g>
			<path d="M234.2,44.75c-1.15,1.21-1.89,2.69-2.46,4.25c-0.29,0.78-0.54,1.57-0.78,2.37c-0.28,0.91-0.55,1.87-0.46,2.84
				c0.11,1.32,1,2.8,2.45,2.89c1.29,0.08,2.51-1.13,2.17-2.44c-0.16-0.62-1.13-0.36-0.96,0.27c0.13,0.49-0.24,0.92-0.68,1.09
				c-0.49,0.2-0.99-0.01-1.34-0.38c-0.97-1-0.66-2.5-0.31-3.69c0.67-2.29,1.41-4.72,3.08-6.49
				C235.35,44.99,234.64,44.28,234.2,44.75L234.2,44.75z"/>
		</g>
	</g>
	<g>
		<g>
			<path d="M236.83,51.78c1.18-0.72,2.41-1.83,2.86-3.18c0.18-0.55,0.23-1.22-0.08-1.73c-0.32-0.54-1-0.78-1.59-0.6
				c-1.48,0.46-1.89,2.48-2.03,3.8c-0.16,1.52,0.05,3.31,0.88,4.63c0.84,1.33,2.68,2.09,3.98,0.91c0.48-0.43-0.23-1.14-0.71-0.71
				c-0.47,0.43-1.2,0.36-1.7,0.04c-0.55-0.35-0.89-0.97-1.1-1.57c-0.49-1.41-0.52-2.97-0.13-4.41c0.16-0.59,0.4-1.38,0.99-1.68
				c0.52-0.27,0.68,0.3,0.62,0.7c-0.18,1.25-1.49,2.33-2.49,2.94C235.78,51.26,236.28,52.12,236.83,51.78L236.83,51.78z"/>
		</g>
	</g>
	<g>
		<g>
			<path d="M242.6,46.27c-0.32,5.82-0.65,11.63-0.97,17.45c-0.04,0.64,0.96,0.64,1,0c0.32-5.82,0.65-11.63,0.97-17.45
				C243.64,45.63,242.64,45.63,242.6,46.27L242.6,46.27z"/>
		</g>
	</g>
	<g>
		<g>
			<path d="M242.98,47.7c-0.26-0.5,0.2-1.1,0.66-1.28c0.72-0.29,1.51,0.24,1.98,0.74c0.94,1.02,1.37,3,0.08,3.93
				c-0.57,0.41-1.32,0.53-1.92,0.14c-0.54-0.35-1.04,0.51-0.5,0.86c0.83,0.54,1.91,0.46,2.74-0.02c0.93-0.53,1.44-1.5,1.49-2.55
				c0.05-1.13-0.43-2.29-1.2-3.1c-0.73-0.77-1.92-1.35-2.98-0.94c-1.06,0.41-1.76,1.66-1.19,2.72
				C242.42,48.77,243.28,48.27,242.98,47.7L242.98,47.7z"/>
		</g>
	</g>
	<g>
		<g>
			<path d="M246.68,44.47c2.12-1.16,4.65-1.32,6.91-0.48c0.6,0.22,0.87-0.74,0.27-0.96c-2.5-0.93-5.34-0.69-7.68,0.58
				C245.61,43.91,246.12,44.77,246.68,44.47L246.68,44.47z"/>
		</g>
	</g>
	<g>
		<g>
			<path d="M250.5,37.7c-1.21,5.97-1.88,12.04-1.99,18.14c-0.01,0.64,0.99,0.64,1,0c0.11-6.01,0.76-11.99,1.95-17.87
				C251.6,37.34,250.63,37.07,250.5,37.7L250.5,37.7z"/>
		</g>
	</g>
</g>
</svg>
