<?xml version="1.0" encoding="utf-8" standalone="no"?>
<!DOCTYPE svg PUBLIC "-//W3C//DTD SVG 1.1//EN"
  "http://www.w3.org/Graphics/SVG/1.1/DTD/svg11.dtd">
<!-- Created with matplotlib (http://matplotlib.org/) -->
<svg height="280.8pt" version="1.1" viewBox="0 0 424.8 280.8" width="424.8pt" xmlns="http://www.w3.org/2000/svg" xmlns:xlink="http://www.w3.org/1999/xlink">
 <defs>
  <style type="text/css">
*{stroke-linecap:butt;stroke-linejoin:round;}
  </style>
 </defs>
 <g id="figure_1">
  <g id="patch_1">
   <path d="M 0 280.8 
L 424.8 280.8 
L 424.8 0 
L 0 0 
z
" style="fill:#ffffff;"/>
  </g>
  <g id="axes_1">
   <g id="patch_2">
    <path d="M 10.7 270.1 
L 414.1 270.1 
L 414.1 10.7 
L 10.7 10.7 
z
" style="fill:#ffffff;"/>
   </g>
   <g id="matplotlib.axis_1">
    <g id="xtick_1">
     <g id="line2d_1">
      <defs>
       <path d="M 0 0 
L 0 3.5 
" id="md3eeb6efa1" style="stroke:#808080;stroke-width:0.8;"/>
      </defs>
      <g>
       <use style="fill:#808080;stroke:#808080;stroke-width:0.8;" x="18.457692" xlink:href="#md3eeb6efa1" y="83.712937"/>
      </g>
     </g>
     <g id="text_1">
      <!-- -4 -->
      <defs>
       <path d="M 4.890625 31.390625 
L 31.203125 31.390625 
L 31.203125 23.390625 
L 4.890625 23.390625 
z
" id="DejaVuSans-2d"/>
       <path d="M 37.796875 64.3125 
L 12.890625 25.390625 
L 37.796875 25.390625 
z
M 35.203125 72.90625 
L 47.609375 72.90625 
L 47.609375 25.390625 
L 58.015625 25.390625 
L 58.015625 17.1875 
L 47.609375 17.1875 
L 47.609375 0 
L 37.796875 0 
L 37.796875 17.1875 
L 4.890625 17.1875 
L 4.890625 26.703125 
z
" id="DejaVuSans-34"/>
      </defs>
      <g transform="translate(9.484411 104.390125)scale(0.18 -0.18)">
       <use xlink:href="#DejaVuSans-2d"/>
       <use x="36.083984" xlink:href="#DejaVuSans-34"/>
      </g>
     </g>
    </g>
    <g id="xtick_2">
     <g id="line2d_2">
      <g>
       <use style="fill:#808080;stroke:#808080;stroke-width:0.8;" x="66.943269" xlink:href="#md3eeb6efa1" y="83.712937"/>
      </g>
     </g>
     <g id="text_2">
      <!-- -3 -->
      <defs>
       <path d="M 40.578125 39.3125 
Q 47.65625 37.796875 51.625 33 
Q 55.609375 28.21875 55.609375 21.1875 
Q 55.609375 10.40625 48.1875 4.484375 
Q 40.765625 -1.421875 27.09375 -1.421875 
Q 22.515625 -1.421875 17.65625 -0.515625 
Q 12.796875 0.390625 7.625 2.203125 
L 7.625 11.71875 
Q 11.71875 9.328125 16.59375 8.109375 
Q 21.484375 6.890625 26.8125 6.890625 
Q 36.078125 6.890625 40.9375 10.546875 
Q 45.796875 14.203125 45.796875 21.1875 
Q 45.796875 27.640625 41.28125 31.265625 
Q 36.765625 34.90625 28.71875 34.90625 
L 20.21875 34.90625 
L 20.21875 43.015625 
L 29.109375 43.015625 
Q 36.375 43.015625 40.234375 45.921875 
Q 44.09375 48.828125 44.09375 54.296875 
Q 44.09375 59.90625 40.109375 62.90625 
Q 36.140625 65.921875 28.71875 65.921875 
Q 24.65625 65.921875 20.015625 65.03125 
Q 15.375 64.15625 9.8125 62.3125 
L 9.8125 71.09375 
Q 15.4375 72.65625 20.34375 73.4375 
Q 25.25 74.21875 29.59375 74.21875 
Q 40.828125 74.21875 47.359375 69.109375 
Q 53.90625 64.015625 53.90625 55.328125 
Q 53.90625 49.265625 50.4375 45.09375 
Q 46.96875 40.921875 40.578125 39.3125 
z
" id="DejaVuSans-33"/>
      </defs>
      <g transform="translate(57.969988 104.390125)scale(0.18 -0.18)">
       <use xlink:href="#DejaVuSans-2d"/>
       <use x="36.083984" xlink:href="#DejaVuSans-33"/>
      </g>
     </g>
    </g>
    <g id="xtick_3">
     <g id="line2d_3">
      <g>
       <use style="fill:#808080;stroke:#808080;stroke-width:0.8;" x="115.428846" xlink:href="#md3eeb6efa1" y="83.712937"/>
      </g>
     </g>
     <g id="text_3">
      <!-- -2 -->
      <defs>
       <path d="M 19.1875 8.296875 
L 53.609375 8.296875 
L 53.609375 0 
L 7.328125 0 
L 7.328125 8.296875 
Q 12.9375 14.109375 22.625 23.890625 
Q 32.328125 33.6875 34.8125 36.53125 
Q 39.546875 41.84375 41.421875 45.53125 
Q 43.3125 49.21875 43.3125 52.78125 
Q 43.3125 58.59375 39.234375 62.25 
Q 35.15625 65.921875 28.609375 65.921875 
Q 23.96875 65.921875 18.8125 64.3125 
Q 13.671875 62.703125 7.8125 59.421875 
L 7.8125 69.390625 
Q 13.765625 71.78125 18.9375 73 
Q 24.125 74.21875 28.421875 74.21875 
Q 39.75 74.21875 46.484375 68.546875 
Q 53.21875 62.890625 53.21875 53.421875 
Q 53.21875 48.921875 51.53125 44.890625 
Q 49.859375 40.875 45.40625 35.40625 
Q 44.1875 33.984375 37.640625 27.21875 
Q 31.109375 20.453125 19.1875 8.296875 
z
" id="DejaVuSans-32"/>
      </defs>
      <g transform="translate(106.455565 104.390125)scale(0.18 -0.18)">
       <use xlink:href="#DejaVuSans-2d"/>
       <use x="36.083984" xlink:href="#DejaVuSans-32"/>
      </g>
     </g>
    </g>
    <g id="xtick_4">
     <g id="line2d_4">
      <g>
       <use style="fill:#808080;stroke:#808080;stroke-width:0.8;" x="163.914423" xlink:href="#md3eeb6efa1" y="83.712937"/>
      </g>
     </g>
     <g id="text_4">
      <!-- -1 -->
      <defs>
       <path d="M 12.40625 8.296875 
L 28.515625 8.296875 
L 28.515625 63.921875 
L 10.984375 60.40625 
L 10.984375 69.390625 
L 28.421875 72.90625 
L 38.28125 72.90625 
L 38.28125 8.296875 
L 54.390625 8.296875 
L 54.390625 0 
L 12.40625 0 
z
" id="DejaVuSans-31"/>
      </defs>
      <g transform="translate(154.941142 104.390125)scale(0.18 -0.18)">
       <use xlink:href="#DejaVuSans-2d"/>
       <use x="36.083984" xlink:href="#DejaVuSans-31"/>
      </g>
     </g>
    </g>
    <g id="xtick_5">
     <g id="line2d_5">
      <g>
       <use style="fill:#808080;stroke:#808080;stroke-width:0.8;" x="212.4" xlink:href="#md3eeb6efa1" y="83.712937"/>
      </g>
     </g>
    </g>
    <g id="xtick_6">
     <g id="line2d_6">
      <g>
       <use style="fill:#808080;stroke:#808080;stroke-width:0.8;" x="260.885577" xlink:href="#md3eeb6efa1" y="83.712937"/>
      </g>
     </g>
     <g id="text_5">
      <!-- 1 -->
      <g transform="translate(255.159327 104.390125)scale(0.18 -0.18)">
       <use xlink:href="#DejaVuSans-31"/>
      </g>
     </g>
    </g>
    <g id="xtick_7">
     <g id="line2d_7">
      <g>
       <use style="fill:#808080;stroke:#808080;stroke-width:0.8;" x="309.371154" xlink:href="#md3eeb6efa1" y="83.712937"/>
      </g>
     </g>
     <g id="text_6">
      <!-- 2 -->
      <g transform="translate(303.644904 104.390125)scale(0.18 -0.18)">
       <use xlink:href="#DejaVuSans-32"/>
      </g>
     </g>
    </g>
    <g id="xtick_8">
     <g id="line2d_8">
      <g>
       <use style="fill:#808080;stroke:#808080;stroke-width:0.8;" x="357.856731" xlink:href="#md3eeb6efa1" y="83.712937"/>
      </g>
     </g>
     <g id="text_7">
      <!-- 3 -->
      <g transform="translate(352.130481 104.390125)scale(0.18 -0.18)">
       <use xlink:href="#DejaVuSans-33"/>
      </g>
     </g>
    </g>
    <g id="xtick_9">
     <g id="line2d_9">
      <g>
       <use style="fill:#808080;stroke:#808080;stroke-width:0.8;" x="406.342308" xlink:href="#md3eeb6efa1" y="83.712937"/>
      </g>
     </g>
     <g id="text_8">
      <!-- 4 -->
      <g transform="translate(400.616058 104.390125)scale(0.18 -0.18)">
       <use xlink:href="#DejaVuSans-34"/>
      </g>
     </g>
    </g>
   </g>
   <g id="matplotlib.axis_2"/>
   <g id="patch_3">
    <path d="M 212.4 270.1 
L 212.4 10.7 
" style="fill:none;stroke:#808080;stroke-linecap:square;stroke-linejoin:miter;stroke-width:2;"/>
   </g>
   <g id="patch_4">
    <path d="M 10.7 83.712937 
L 414.1 83.712937 
" style="fill:none;stroke:#808080;stroke-linecap:square;stroke-linejoin:miter;stroke-width:2;"/>
   </g>
   <g id="line2d_10">
    <path clip-path="url(#p524dea168b)" d="M 109.605209 -1 
L 111.776448 33.284126 
L 114.024163 65.351605 
L 116.183285 93.062473 
L 118.274258 117.176581 
L 120.32851 138.408321 
L 122.388398 157.392607 
L 124.397178 173.812286 
L 126.282466 187.451758 
L 128.110525 199.134153 
L 129.892312 209.141787 
L 131.563255 217.359157 
L 133.179824 224.292831 
L 134.847486 230.45622 
L 136.405309 235.356289 
L 137.851858 239.205565 
L 139.262866 242.344794 
L 140.580255 244.755491 
L 141.740347 246.482949 
L 142.871473 247.827531 
L 144.1238 248.943417 
L 145.149903 249.579375 
L 146.255092 249.997203 
L 147.307893 250.149334 
L 148.328133 250.078549 
L 149.407707 249.780867 
L 150.656015 249.165821 
L 151.810676 248.352585 
L 153.157781 247.125179 
L 154.672236 245.411214 
L 156.303149 243.200986 
L 158.049618 240.452405 
L 160.112587 236.750024 
L 162.245752 232.465315 
L 164.874423 226.642188 
L 167.810885 219.558891 
L 171.509089 209.987173 
L 176.581108 196.125495 
L 188.855059 162.200863 
L 193.422175 150.357752 
L 197.166493 141.221339 
L 200.810556 132.915204 
L 204.036132 126.094183 
L 207.350214 119.638628 
L 210.417298 114.181436 
L 212.064868 111.458637 
L 212.064868 111.458637 
" style="fill:none;stroke:#ff0000;stroke-linecap:square;stroke-width:5;"/>
   </g>
   <g id="line2d_11">
    <path clip-path="url(#p524dea168b)" d="M 213.179416 109.699823 
L 216.099045 105.41 
L 218.909434 101.711079 
L 221.589345 98.569512 
L 224.068459 95.989215 
L 226.622038 93.647176 
L 229.003462 91.739492 
L 231.328333 90.121674 
L 233.779122 88.662786 
L 236.398048 87.364252 
L 239.060644 86.296994 
L 241.454322 85.534457 
L 244.390304 84.824456 
L 247.236203 84.340453 
L 250.637306 83.97702 
L 255.095215 83.760095 
L 259.544997 83.713515 
L 268.428385 83.613562 
L 272.504113 83.357068 
L 276.552156 82.860412 
L 279.570311 82.294283 
L 282.876002 81.453296 
L 285.991822 80.430034 
L 289.163023 79.145907 
L 292.262271 77.648868 
L 295.265918 75.971324 
L 298.754579 73.75454 
L 302.152967 71.341587 
L 305.934315 68.40836 
L 311.763156 63.541957 
L 319.743172 56.841124 
L 323.390433 54.089861 
L 326.18661 52.25686 
L 328.664635 50.90922 
L 330.786133 50.014449 
L 332.570427 49.481779 
L 334.312696 49.184638 
L 335.821924 49.127294 
L 337.431127 49.293538 
L 338.885826 49.665765 
L 340.349898 50.27301 
L 341.656007 51.028015 
L 343.073018 52.092525 
L 344.422172 53.360914 
L 345.859663 55.006037 
L 347.400211 57.130097 
L 348.901538 59.585764 
L 350.582475 62.820763 
L 352.226322 66.517161 
L 353.829638 70.666999 
L 355.485133 75.555897 
L 357.210425 81.349264 
L 358.988773 88.118782 
L 360.834481 96.061545 
L 362.728618 105.251968 
L 364.615265 115.525393 
L 366.61695 127.731594 
L 368.595872 141.211823 
L 370.680943 157.039804 
L 372.746555 174.475382 
L 374.788106 193.538943 
L 376.98528 216.223921 
L 379.254731 242.172094 
L 381.495688 270.471841 
L 382.335592 281.8 
L 382.335592 281.8 
" style="fill:none;stroke:#ff0000;stroke-linecap:square;stroke-width:5;"/>
   </g>
  </g>
 </g>
 <defs>
  <clipPath id="p524dea168b">
   <rect height="259.4" width="403.4" x="10.7" y="10.7"/>
  </clipPath>
 </defs>
</svg>
