<svg xmlns="http://www.w3.org/2000/svg" viewBox="0 0 111.25 153.69">
  <defs>
    <style>
      .cls-1 {
        fill: #808285;
      }

      .cls-2 {
        fill: #ed1c24;
      }
    </style>
  </defs>
  <title>Asset 1</title>
  <g id="Layer_2" data-name="Layer 2">
    <g id="Layer_1-2" data-name="Layer 1">
      <g>
        <path class="cls-1" d="M4.74,104c-1.06,1.28-2.07,2.59-3,4-.73,1-2.09,2.5-1.63,3.89.37,1.1,1.79,1.52,2.66,2.12a16.87,16.87,0,0,1,3.64,3.47c.2.25.55-.1.35-.35a17.27,17.27,0,0,0-2.95-3,13.6,13.6,0,0,0-1.46-1,6.4,6.4,0,0,1-1.49-1c-1.06-1.19.7-3.06,1.38-4q1.35-1.93,2.87-3.75c.21-.25-.14-.61-.35-.36Z" transform="translate(0 0)"/>
        <path class="cls-1" d="M105.22,109.42l3.46,2a9.59,9.59,0,0,1,1.57.94,1.67,1.67,0,0,1,.26,2.06,18.17,18.17,0,0,1-4,5.87c-.22.22.13.58.36.35a18.77,18.77,0,0,0,2.52-3.1,11.67,11.67,0,0,0,1.81-3.61c.27-1.26-.51-1.94-1.5-2.51l-4.22-2.4c-.28-.16-.54.28-.26.44Z" transform="translate(0 0)"/>
        <path class="cls-1" d="M.81,111.83a224.51,224.51,0,0,0,27.2.93c6.28-.2,12.53-1,18.81-1.2,7-.23,14-.28,20.95.15,2.18.14,4.33.54,6.51.69,3.73.25,7.48.26,11.23.27a52.78,52.78,0,0,1,5.89.28c1.28.14,2.55.27,3.84.36,3.8.26,7.61.32,11.42.29q2,0,4-.06c.32,0,.32-.51,0-.5-4.39.1-8.79.11-13.18-.1-3-.15-6-.6-9-.74-3.83-.17-7.68,0-11.52-.17a46.7,46.7,0,0,1-4.87-.35c-.87-.12-1.72-.27-2.59-.34A180.78,180.78,0,0,0,49.57,111c-3.44.08-6.89.2-10.32.51-2.91.25-5.81.53-8.73.67a208.12,208.12,0,0,1-25.59-.49l-4.12-.34c-.32,0-.32.47,0,.5Z" transform="translate(0 0)"/>
      </g>
      <g>
        <path class="cls-1" d="M48,85.91a28.89,28.89,0,0,1,2.87-3.47c.5-.51,1-1,1.54-1.5a11,11,0,0,1,2-1.75c1-.52,1.38.61,1.81,1.28s.78,1.15,1.17,1.72A27.23,27.23,0,0,1,59.68,86c.13.29.57,0,.43-.26a30.93,30.93,0,0,0-2.69-4.3c-.42-.61-.85-1.23-1.22-1.88s-.78-1.1-1.54-1-1.42.91-2,1.43-1.27,1.17-1.89,1.79a28.8,28.8,0,0,0-3.25,3.88c-.18.26.25.51.43.25Z" transform="translate(0 0)"/>
        <path class="cls-1" d="M45.84,144.47a26,26,0,0,0,6.79,9.15c.11.09.32.11.39-.05a23.24,23.24,0,0,1,5.79-7.85c.24-.22-.11-.57-.35-.35a23.25,23.25,0,0,0-5.87,7.95l.39,0a25.68,25.68,0,0,1-6.71-9.05c-.13-.3-.56,0-.43.25Z" transform="translate(0 0)"/>
        <path class="cls-1" d="M54.37,79.36l-.73,28.41c-.24,9.46-.49,18.91-.62,28.37-.07,5.35-.1,10.71-.06,16.06a.25.25,0,0,0,.5,0c-.06-9.5.08-19,.29-28.51s.47-18.87.71-28.3l.41-16c0-.32-.49-.32-.5,0Z" transform="translate(0 0)"/>
      </g>
      <g>
        <path class="cls-2" d="M9.64,2.81q1.21,8.55,2.71,17.06c1.7,9.88,3.63,19.73,5.94,29.48A231.64,231.64,0,0,0,27.8,80.28,187.94,187.94,0,0,0,38,101.69a41.78,41.78,0,0,0,2.94,4.21c1.61,2.24,3.27,4.46,4.82,6.74.32.47.58,1,.91,1.43a13.91,13.91,0,0,0,3,3,3.45,3.45,0,0,0,2,.79,3.87,3.87,0,0,0,2.85-1.46c1.21-1.41,1.43-3.19,1.85-5a2.07,2.07,0,0,1,.57-1.23c.14-.11.11-.1.17-.08s.35.45.4.56a14.57,14.57,0,0,0,.58,1.42,4,4,0,0,0,1.27,1.44c2,1.35,4.19-1.18,5.28-2.64a28.17,28.17,0,0,0,1.58-2.63c.5-.85,1.1-1.62,1.67-2.42a36.11,36.11,0,0,0,3.32-6.07c1-2.16,1.88-4.36,2.72-6.58,1.27-3.35,2.37-6.75,3.46-10.17,1.6-5,3.14-10,4.33-15.11,1.78-7.65,3.09-15.4,4.27-23.16,1.67-11.07,3-22.19,4.1-33.34Q90.54,6.72,91,2C91.06.72,89.06.73,89,2c-1,11.72-2.27,23.43-3.88,35.08-1.17,8.53-2.5,17.05-4.24,25.49a215.4,215.4,0,0,1-7,25,114.43,114.43,0,0,1-4.19,10.87,39.29,39.29,0,0,1-3.19,6c-.54.8-1.15,1.54-1.67,2.35s-1,1.81-1.55,2.67a6.86,6.86,0,0,1-2.49,2.42l-.15,0c-.19.08,0,0,.06,0h-.06c-.11,0-.07,0,.13,0-.07,0,0,0-.18,0a2.75,2.75,0,0,1-.83-1c-.49-1-.74-2.23-2-2.66a2.49,2.49,0,0,0-3,1.66,23.77,23.77,0,0,0-.94,3.55c0,.16-.08.31-.13.46s-.19.5-.08.26a4.21,4.21,0,0,1-.39.64,2.16,2.16,0,0,1-1.68,1c.31,0,0,0-.11,0,.15,0-.27-.14-.35-.19a10.24,10.24,0,0,1-1.45-1.18,12,12,0,0,1-2-2.58c-.14-.23-.31-.45-.46-.67-.75-1.07-1.52-2.13-2.28-3.19q-2.36-3.28-4.72-6.55a10.77,10.77,0,0,1-.71-1.24q-1.2-2.22-2.37-4.45c-2-3.9-4-7.83-5.67-11.88a216.48,216.48,0,0,1-9.55-28.52c-2.58-9.9-4.65-19.92-6.49-30Q13.45,15,11.89,4.49c-.11-.74-.22-1.47-.32-2.21a1,1,0,0,0-1.23-.7,1,1,0,0,0-.7,1.23Z" transform="translate(0 0)"/>
        <path class="cls-2" d="M6,16.07c.67-2.38,1.37-4.74,2.12-7.1.36-1.15.74-2.31,1.12-3.46.2-.57.39-1.15.59-1.72.08-.24.26-1.13.45-1.21l-.51.14c-.19,0,.12.24.21.33l.47.52.83,1c.58.67,1.14,1.36,1.68,2.05C14.07,8,15.08,9.41,16,10.89c.7,1.08,2.44.07,1.73-1a65.09,65.09,0,0,0-4.24-5.79c-.73-.9-1.48-1.78-2.27-2.62A1.78,1.78,0,0,0,9.79.72a1.56,1.56,0,0,0-1.22.81A7.74,7.74,0,0,0,8,3L7.37,4.86C7,6,6.61,7.17,6.25,8.33q-1.14,3.59-2.16,7.2A1,1,0,0,0,6,16.07Z" transform="translate(0 0)"/>
        <path class="cls-2" d="M82.1,13.48c1.2-2.09,2.43-4.17,3.69-6.22.63-1,1.26-2,1.9-3a6.24,6.24,0,0,1,1.71-2c.32-.2.54-.4.76-.09a6.83,6.83,0,0,1,.62,1.31,33.32,33.32,0,0,1,1.15,3.22,32.13,32.13,0,0,1,1.23,6.74c0,.69.84,1.34,1.5.86a1.75,1.75,0,0,0,.84-1.59c-.1-1.27-2.1-1.28-2,0l.15-.13,1.51.86a32.09,32.09,0,0,0-3.1-12A2.37,2.37,0,0,0,90,0a3.92,3.92,0,0,0-2.46,1.22,22.84,22.84,0,0,0-3.34,4.83c-1.31,2.11-2.58,4.26-3.82,6.42a1,1,0,0,0,1.73,1Z" transform="translate(0 0)"/>
      </g>
    </g>
  </g>
</svg>
