<?xml version="1.0" encoding="utf-8" standalone="no"?>
<!DOCTYPE svg PUBLIC "-//W3C//DTD SVG 1.1//EN"
  "http://www.w3.org/Graphics/SVG/1.1/DTD/svg11.dtd">
<!-- Created with matplotlib (http://matplotlib.org/) -->
<svg height="280.8pt" version="1.1" viewBox="0 0 424.8 280.8" width="424.8pt" xmlns="http://www.w3.org/2000/svg" xmlns:xlink="http://www.w3.org/1999/xlink">
 <defs>
  <style type="text/css">
*{stroke-linecap:butt;stroke-linejoin:round;}
  </style>
 </defs>
 <g id="figure_1">
  <g id="patch_1">
   <path d="M 0 280.8 
L 424.8 280.8 
L 424.8 0 
L 0 0 
z
" style="fill:#ffffff;"/>
  </g>
  <g id="axes_1">
   <g id="patch_2">
    <path d="M 10.7 270.1 
L 414.1 270.1 
L 414.1 10.7 
L 10.7 10.7 
z
" style="fill:#ffffff;"/>
   </g>
   <g id="matplotlib.axis_1">
    <g id="xtick_1">
     <g id="line2d_1">
      <defs>
       <path d="M 0 0 
L 0 3.5 
" id="ma9d891346f" style="stroke:#808080;stroke-width:0.8;"/>
      </defs>
      <g>
       <use style="fill:#808080;stroke:#808080;stroke-width:0.8;" x="18.457692" xlink:href="#ma9d891346f" y="209.684188"/>
      </g>
     </g>
     <g id="text_1">
      <!-- -3 -->
      <defs>
       <path d="M 4.890625 31.390625 
L 31.203125 31.390625 
L 31.203125 23.390625 
L 4.890625 23.390625 
z
" id="DejaVuSans-2d"/>
       <path d="M 40.578125 39.3125 
Q 47.65625 37.796875 51.625 33 
Q 55.609375 28.21875 55.609375 21.1875 
Q 55.609375 10.40625 48.1875 4.484375 
Q 40.765625 -1.421875 27.09375 -1.421875 
Q 22.515625 -1.421875 17.65625 -0.515625 
Q 12.796875 0.390625 7.625 2.203125 
L 7.625 11.71875 
Q 11.71875 9.328125 16.59375 8.109375 
Q 21.484375 6.890625 26.8125 6.890625 
Q 36.078125 6.890625 40.9375 10.546875 
Q 45.796875 14.203125 45.796875 21.1875 
Q 45.796875 27.640625 41.28125 31.265625 
Q 36.765625 34.90625 28.71875 34.90625 
L 20.21875 34.90625 
L 20.21875 43.015625 
L 29.109375 43.015625 
Q 36.375 43.015625 40.234375 45.921875 
Q 44.09375 48.828125 44.09375 54.296875 
Q 44.09375 59.90625 40.109375 62.90625 
Q 36.140625 65.921875 28.71875 65.921875 
Q 24.65625 65.921875 20.015625 65.03125 
Q 15.375 64.15625 9.8125 62.3125 
L 9.8125 71.09375 
Q 15.4375 72.65625 20.34375 73.4375 
Q 25.25 74.21875 29.59375 74.21875 
Q 40.828125 74.21875 47.359375 69.109375 
Q 53.90625 64.015625 53.90625 55.328125 
Q 53.90625 49.265625 50.4375 45.09375 
Q 46.96875 40.921875 40.578125 39.3125 
z
" id="DejaVuSans-33"/>
      </defs>
      <g transform="translate(9.484411 230.361376)scale(0.18 -0.18)">
       <use xlink:href="#DejaVuSans-2d"/>
       <use x="36.083984" xlink:href="#DejaVuSans-33"/>
      </g>
     </g>
    </g>
    <g id="xtick_2">
     <g id="line2d_2">
      <g>
       <use style="fill:#808080;stroke:#808080;stroke-width:0.8;" x="83.105128" xlink:href="#ma9d891346f" y="209.684188"/>
      </g>
     </g>
     <g id="text_2">
      <!-- -2 -->
      <defs>
       <path d="M 19.1875 8.296875 
L 53.609375 8.296875 
L 53.609375 0 
L 7.328125 0 
L 7.328125 8.296875 
Q 12.9375 14.109375 22.625 23.890625 
Q 32.328125 33.6875 34.8125 36.53125 
Q 39.546875 41.84375 41.421875 45.53125 
Q 43.3125 49.21875 43.3125 52.78125 
Q 43.3125 58.59375 39.234375 62.25 
Q 35.15625 65.921875 28.609375 65.921875 
Q 23.96875 65.921875 18.8125 64.3125 
Q 13.671875 62.703125 7.8125 59.421875 
L 7.8125 69.390625 
Q 13.765625 71.78125 18.9375 73 
Q 24.125 74.21875 28.421875 74.21875 
Q 39.75 74.21875 46.484375 68.546875 
Q 53.21875 62.890625 53.21875 53.421875 
Q 53.21875 48.921875 51.53125 44.890625 
Q 49.859375 40.875 45.40625 35.40625 
Q 44.1875 33.984375 37.640625 27.21875 
Q 31.109375 20.453125 19.1875 8.296875 
z
" id="DejaVuSans-32"/>
      </defs>
      <g transform="translate(74.131847 230.361376)scale(0.18 -0.18)">
       <use xlink:href="#DejaVuSans-2d"/>
       <use x="36.083984" xlink:href="#DejaVuSans-32"/>
      </g>
     </g>
    </g>
    <g id="xtick_3">
     <g id="line2d_3">
      <g>
       <use style="fill:#808080;stroke:#808080;stroke-width:0.8;" x="147.752564" xlink:href="#ma9d891346f" y="209.684188"/>
      </g>
     </g>
     <g id="text_3">
      <!-- -1 -->
      <defs>
       <path d="M 12.40625 8.296875 
L 28.515625 8.296875 
L 28.515625 63.921875 
L 10.984375 60.40625 
L 10.984375 69.390625 
L 28.421875 72.90625 
L 38.28125 72.90625 
L 38.28125 8.296875 
L 54.390625 8.296875 
L 54.390625 0 
L 12.40625 0 
z
" id="DejaVuSans-31"/>
      </defs>
      <g transform="translate(138.779283 230.361376)scale(0.18 -0.18)">
       <use xlink:href="#DejaVuSans-2d"/>
       <use x="36.083984" xlink:href="#DejaVuSans-31"/>
      </g>
     </g>
    </g>
    <g id="xtick_4">
     <g id="line2d_4">
      <g>
       <use style="fill:#808080;stroke:#808080;stroke-width:0.8;" x="212.4" xlink:href="#ma9d891346f" y="209.684188"/>
      </g>
     </g>
    </g>
    <g id="xtick_5">
     <g id="line2d_5">
      <g>
       <use style="fill:#808080;stroke:#808080;stroke-width:0.8;" x="277.047436" xlink:href="#ma9d891346f" y="209.684188"/>
      </g>
     </g>
     <g id="text_4">
      <!-- 1 -->
      <g transform="translate(271.321186 230.361376)scale(0.18 -0.18)">
       <use xlink:href="#DejaVuSans-31"/>
      </g>
     </g>
    </g>
    <g id="xtick_6">
     <g id="line2d_6">
      <g>
       <use style="fill:#808080;stroke:#808080;stroke-width:0.8;" x="341.694872" xlink:href="#ma9d891346f" y="209.684188"/>
      </g>
     </g>
     <g id="text_5">
      <!-- 2 -->
      <g transform="translate(335.968622 230.361376)scale(0.18 -0.18)">
       <use xlink:href="#DejaVuSans-32"/>
      </g>
     </g>
    </g>
    <g id="xtick_7">
     <g id="line2d_7">
      <g>
       <use style="fill:#808080;stroke:#808080;stroke-width:0.8;" x="406.342308" xlink:href="#ma9d891346f" y="209.684188"/>
      </g>
     </g>
     <g id="text_6">
      <!-- 3 -->
      <g transform="translate(400.616058 230.361376)scale(0.18 -0.18)">
       <use xlink:href="#DejaVuSans-33"/>
      </g>
     </g>
    </g>
   </g>
   <g id="matplotlib.axis_2"/>
   <g id="patch_3">
    <path d="M 212.4 270.1 
L 212.4 10.7 
" style="fill:none;stroke:#808080;stroke-linecap:square;stroke-linejoin:miter;stroke-width:2;"/>
   </g>
   <g id="patch_4">
    <path d="M 10.7 209.684188 
L 414.1 209.684188 
" style="fill:none;stroke:#808080;stroke-linecap:square;stroke-linejoin:miter;stroke-width:2;"/>
   </g>
   <g id="line2d_8">
    <path clip-path="url(#p2699a6813e)" d="M 80.003292 281.8 
L 81.643588 241.553715 
L 83.435951 202.966372 
L 85.134153 171.216629 
L 86.688254 145.958754 
L 88.25086 123.955446 
L 89.742185 105.901015 
L 91.291285 89.968347 
L 92.730959 77.547945 
L 94.102351 67.696312 
L 95.310266 60.505882 
L 96.47533 54.800271 
L 97.603022 50.352442 
L 98.542765 47.403217 
L 99.529055 45.003529 
L 100.467033 43.343726 
L 101.170518 42.475081 
L 101.881146 41.908408 
L 102.591775 41.63944 
L 103.065528 41.618428 
L 103.722353 41.789889 
L 104.379179 42.18461 
L 105.044729 42.801466 
L 106.043053 44.112802 
L 107.041378 45.856332 
L 108.289681 48.593234 
L 109.569563 51.980346 
L 111.0073 56.40742 
L 112.870244 62.987367 
L 114.934761 71.19669 
L 117.456853 82.228346 
L 120.829182 98.124192 
L 132.901313 156.278762 
L 135.950463 169.509942 
L 138.580792 180.079122 
L 141.526439 190.867372 
L 144.011665 199.044509 
L 146.072068 205.155855 
L 147.953366 210.197737 
L 149.865898 214.794506 
L 152.018084 219.333561 
L 153.843595 222.665541 
L 155.688096 225.560422 
L 157.08601 227.447009 
L 159.00884 229.623591 
L 160.444749 230.944542 
L 161.8198 231.975697 
L 163.192643 232.786512 
L 164.565485 233.388753 
L 165.872122 233.777749 
L 167.24826 234.00367 
L 168.624398 234.052178 
L 170.591297 233.836621 
L 172.516695 233.331062 
L 174.329791 232.618655 
L 176.402902 231.560004 
L 178.853458 230.028153 
L 181.965583 227.748128 
L 186.46115 224.054935 
L 193.493823 218.169015 
L 197.390121 215.261778 
L 200.328672 213.382018 
L 203.042858 211.94603 
L 205.461167 210.942938 
L 207.964174 210.203035 
L 210.199518 209.812438 
L 211.315816 209.715356 
L 211.315816 209.715356 
" style="fill:none;stroke:#ff0000;stroke-linecap:square;stroke-width:5;"/>
   </g>
   <g id="line2d_9">
    <path clip-path="url(#p2699a6813e)" d="M 213.316087 209.706442 
L 215.064488 209.872101 
L 217.080244 210.261402 
L 219.792969 211.110288 
L 222.338715 212.227212 
L 224.862707 213.614027 
L 227.421425 215.269755 
L 230.654463 217.656044 
L 235.156016 221.345016 
L 242.856462 227.765304 
L 246.182762 230.187287 
L 248.557315 231.650204 
L 250.864084 232.791441 
L 253.13306 233.587959 
L 254.61487 233.907188 
L 255.929138 234.04302 
L 257.460893 234.012216 
L 259.009236 233.758594 
L 260.204079 233.39982 
L 261.561536 232.809921 
L 263.189772 231.832938 
L 264.811783 230.552081 
L 266.156792 229.246193 
L 267.672934 227.498494 
L 269.375844 225.174751 
L 270.923787 222.720816 
L 272.453529 219.967724 
L 274.101839 216.628934 
L 276.199411 211.812977 
L 278.266469 206.440306 
L 280.561012 199.748788 
L 282.864486 192.272849 
L 285.111548 184.270931 
L 287.570449 174.754368 
L 290.554439 162.231274 
L 293.508491 148.929495 
L 297.578236 129.514366 
L 307.219584 82.791305 
L 310.065294 70.364872 
L 312.388222 61.288148 
L 314.277355 54.846604 
L 315.753197 50.529982 
L 317.124394 47.173041 
L 318.222437 44.994724 
L 319.38161 43.23948 
L 320.154391 42.405943 
L 320.927173 41.860989 
L 321.562562 41.641132 
L 322.309557 41.660141 
L 322.888463 41.890915 
L 323.46737 42.318839 
L 324.239244 43.209801 
L 325.011119 44.484606 
L 325.909253 46.477389 
L 326.793825 49.005485 
L 327.864584 52.86198 
L 328.935344 57.645341 
L 330.108761 64.023116 
L 331.243005 71.391986 
L 332.539284 81.36297 
L 333.833206 93.078569 
L 335.238771 107.945542 
L 336.746489 126.555291 
L 338.198254 147.273944 
L 339.733281 172.392683 
L 341.363062 202.946581 
L 343.069225 239.549787 
L 344.796669 281.8 
L 344.796669 281.8 
" style="fill:none;stroke:#ff0000;stroke-linecap:square;stroke-width:5;"/>
   </g>
  </g>
 </g>
 <defs>
  <clipPath id="p2699a6813e">
   <rect height="259.4" width="403.4" x="10.7" y="10.7"/>
  </clipPath>
 </defs>
</svg>
