<svg xmlns="http://www.w3.org/2000/svg" viewBox="0 0 247.37 160.23">
  <defs>
    <style>
      .cls-1 {
        fill: #808285;
      }

      .cls-2 {
        fill: #ed1c24;
      }

      .cls-3 {
        fill: #231f20;
      }
    </style>
  </defs>
  <title>Asset 1</title>
  <g id="Layer_2" data-name="Layer 2">
    <g id="Layer_1-2" data-name="Layer 1">
      <g>
        <path class="cls-1" d="M10,63.8c-1.73,1.43-3.42,2.92-5,4.47-.81.77-1.61,1.56-2.4,2.36A12.92,12.92,0,0,0,.45,73c-1,1.86,0,3.61,1.75,4.43.86.4,1.77.68,2.65,1s1.88.86,2.78,1.35a33,33,0,0,1,5.79,4c1,.85,2.38-.56,1.41-1.41a34.66,34.66,0,0,0-9.83-6c-.79-.32-3.47-.88-2.91-2.21A8.23,8.23,0,0,1,4,72.05c.71-.72,1.42-1.43,2.15-2.13q2.56-2.44,5.3-4.7C12.4,64.4,11,63,10,63.8Z" transform="translate(-0.03 -0.01)"/>
        <path class="cls-1" d="M235.42,71.4l6.25,3.92c.92.57,1.86,1.11,2.75,1.73.72.52,1.29,1,.7,1.89A12.68,12.68,0,0,1,243,81.08a26.93,26.93,0,0,1-2.23,1.76,31.4,31.4,0,0,1-5.59,3.09,1,1,0,0,0,1,1.73,30.62,30.62,0,0,0,9.12-6c1.27-1.21,2.77-2.83,1.78-4.68a5.46,5.46,0,0,0-1.9-1.83c-.86-.56-1.74-1.09-2.6-1.64l-6.15-3.85c-1.1-.68-2.1,1-1,1.73Z" transform="translate(-0.03 -0.01)"/>
        <path class="cls-1" d="M2.16,76.17c20,1.42,40.13,2.16,60.21,1.64,13.83-.36,27.6-1.74,41.44-2.11,15.42-.4,30.92-.48,46.33.28,5,.24,9.55.94,14.48,1.2,8.26.44,16.54.46,24.81.46,7.17,0,14.25.74,21.4,1.13,8.43.47,16.87.56,25.3.51q4.32,0,8.64-.11a1,1,0,0,0,0-2c-9.69.17-19.39.2-29.08-.17-6.68-.26-13.33-1-20-1.29-8.37-.31-16.76,0-25.14-.29-3.65-.11-7.31-.22-11-.61-1.9-.21-3.78-.48-5.69-.61-14.59-1-29.33-.88-43.94-.63-7.65.13-15.3.34-22.93.88-6.45.46-12.89.94-19.35,1.19-18.86.71-37.75.24-56.59-.88q-4.47-.27-8.94-.59c-1.28-.09-1.27,1.91,0,2Z" transform="translate(-0.03 -0.01)"/>
      </g>
      <g>
        <path class="cls-1" d="M98.48,13.06a52.57,52.57,0,0,1,5.92-8.58c.6-.72,1.17-1.5,1.84-2.16.18-.18.33-.38.54-.24s.39.74.51,1c.68,1.51,1.5,3,2.27,4.42a41.69,41.69,0,0,1,2.55,5.41c.43,1.2,2.37.68,1.93-.53-1.33-3.68-3.53-6.95-5.11-10.51a2.66,2.66,0,0,0-2-1.86c-1.18-.11-2,.77-2.69,1.59-1.3,1.55-2.6,3.1-3.82,4.72a45.41,45.41,0,0,0-3.63,5.73c-.61,1.13,1.11,2.14,1.73,1Z" transform="translate(-0.03 -0.01)"/>
        <path class="cls-1" d="M95.32,135.73a44.61,44.61,0,0,0,8.86,15.48,1,1,0,0,0,1.67-.44A38.07,38.07,0,0,1,113,138.16c.84-1-.57-2.39-1.41-1.42a40.62,40.62,0,0,0-7.69,13.49l1.68-.44a42.06,42.06,0,0,1-8.35-14.59c-.4-1.21-2.33-.69-1.93.53Z" transform="translate(-0.03 -0.01)"/>
        <path class="cls-1" d="M105.64,2.48l-.93,56.6c-.31,19-.63,37.91-.79,56.87q-.14,16-.08,32a1,1,0,0,0,2,0c-.08-19,.1-38,.37-56.93s.6-37.78.9-56.67l.53-31.82a1,1,0,0,0-2,0Z" transform="translate(-0.03 -0.01)"/>
      </g>
      <g>
        <path class="cls-2" d="M11.76,138.4c4-16.27,8.49-32.43,13.63-48.38A501.6,501.6,0,0,1,44.69,39c5.05-11.3,12-25.45,25.74-27.42,7.78-1.12,16.08,1.59,22.37,6.12a29.1,29.1,0,0,1,7,7.44A104.12,104.12,0,0,1,106,35.58c3.17,6.12,5.13,12.71,7.9,19a61.05,61.05,0,0,0,5.47,9.84,40,40,0,0,0,6.92,8.24,9.89,9.89,0,0,0,4.77,2.48,9.45,9.45,0,0,0,7.34-2.54,39,39,0,0,0,7.11-8.7,53.51,53.51,0,0,0,5.2-10.37,62.11,62.11,0,0,0,2.44-8c.63-2.74.95-5.88,2.74-8.17a10.6,10.6,0,0,1,7-4A10.17,10.17,0,0,1,171,36.48a14.12,14.12,0,0,1,3.48,6.79c1,3.82,1.92,7.68,2.91,11.51a62,62,0,0,0,1.91,6.68,40.81,40.81,0,0,0,2.54,5.29c2.91,5.19,7.34,10.26,13.6,11,1.69.18,3.39,0,5.09,0a11.62,11.62,0,0,1,5.32,1.54c3.44,1.91,5.86,5.41,7.85,8.72,3.14,5.24,4.62,10.93,6.24,16.76q3.1,11.13,6,22.32,1.68,6.52,3.27,13.06a1,1,0,0,0,1.93-.53Q228,126.75,224.53,114c-1.64-6.08-3.12-12.29-5.11-18.27a43.21,43.21,0,0,0-4.2-9c-2.05-3.35-4.53-6.84-8-8.89a13.94,13.94,0,0,0-4.94-1.88,31.41,31.41,0,0,0-5-.1,12.72,12.72,0,0,1-8.88-3.63c-8.73-8.18-9-20.55-12.55-31.28-1.71-5.25-6.41-9.77-12.25-9.62a12.38,12.38,0,0,0-8,3.45,13.26,13.26,0,0,0-3.62,7c-.67,2.88-1.27,5.75-2.19,8.56a55.16,55.16,0,0,1-4.36,10,46.56,46.56,0,0,1-7,9.66c-1.84,1.88-4.54,3.76-7.13,3.26a9.85,9.85,0,0,1-4.81-3.06,49.62,49.62,0,0,1-7.33-9.77C115.6,54.43,113.59,48,111,41.62a88.78,88.78,0,0,0-5.36-10.9,76.62,76.62,0,0,0-6.19-9.5c-4.67-5.78-11.71-9.6-18.91-11.17s-14.67-.62-20.76,3.69c-5.44,3.86-9.36,9.5-12.5,15.31A216,216,0,0,0,37.8,50q-5.31,12.9-9.86,26.08c-5.78,16.6-10.8,33.47-15.25,50.48q-1.47,5.63-2.86,11.28c-.3,1.25,1.63,1.78,1.93.53Z" transform="translate(-0.03 -0.01)"/>
        <path class="cls-2" d="M4.17,129.37l3.1,6.15c.51,1,1,2.06,1.55,3.08.44.86,1.25,1.6,2.26,1a19.16,19.16,0,0,0,2.46-2l2.64-2.22,5.29-4.44c1-.83-.44-2.24-1.42-1.41L15,133.78l-2.45,2.06L11.19,137l-.57.48-.38.32c-.2.18-.24.21-.14.1h.53c.11.13.14.14.07,0l-.16-.29-.33-.66-.55-1.1L8.39,133.3l-2.5-4.94c-.58-1.15-2.3-.14-1.72,1Z" transform="translate(-0.03 -0.01)"/>
        <path class="cls-2" d="M221.63,135.66l4.26,3.93,2.13,2c.63.58,1.29,1.38,2.23,1.38a2,2,0,0,0,1.75-1.42c.39-.88.78-1.76,1.16-2.64l2.38-5.39a1,1,0,0,0-.36-1.37,1,1,0,0,0-1.37.36l-2,4.62-1,2.2c-.16.36-.32.73-.49,1.1a4.3,4.3,0,0,0-.25.53c0,.18.23.07.24,0a5.62,5.62,0,0,0-.79-.71l-.89-.82-1.86-1.72L223,134.25c-.95-.87-2.36.54-1.41,1.41Z" transform="translate(-0.03 -0.01)"/>
      </g>
      <g>
        <g>
          <g>
            <path class="cls-3" d="M125.05,100.85l1.92,12c.08.55,1,.42,1-.14a23,23,0,0,1,.85-8.42,13,13,0,0,1,1.48-3.57c.55-.81,2.05-1.74,2.78-.58.34.54,1.21,0,.86-.51a2.4,2.4,0,0,0-3.09-.74c-1.31.64-1.91,2.13-2.4,3.41A23.54,23.54,0,0,0,127,112.73l1-.13-1.91-12c-.1-.64-1.07-.37-1,.26Z" transform="translate(-0.03 -0.01)"/>
            <path class="cls-3" d="M133.48,108.46a6.91,6.91,0,0,1,1-3.86,2.24,2.24,0,0,1,2.73-.87,2.93,2.93,0,0,1,1.14,2.9,2.59,2.59,0,0,1-1.79,2.24A2.16,2.16,0,0,1,134,107.8a.5.5,0,1,0-1,.27,3.06,3.06,0,0,0,3.06,1.85,3.36,3.36,0,0,0,3-2.45,4.23,4.23,0,0,0-.86-4.12,2.92,2.92,0,0,0-4,0c-1.49,1.22-1.65,3.31-1.75,5.09,0,.64,1,.64,1,0Z" transform="translate(-0.03 -0.01)"/>
            <path class="cls-3" d="M141.11,106.73a9.67,9.67,0,0,1,1.4-3.55,2.61,2.61,0,0,1,1.1-1,1.4,1.4,0,0,1,1.38.27c1.36,1,1.69,3.7-.21,4.35a2,2,0,0,1-2.31-.59c-.35-.53-1.22,0-.86.5a2.91,2.91,0,0,0,3,1.16,3,3,0,0,0,2.4-2.32,4,4,0,0,0-1-3.52,2.81,2.81,0,0,0-1.91-.94,2.62,2.62,0,0,0-1.8.79,6.4,6.4,0,0,0-1.31,2,11.82,11.82,0,0,0-.85,2.58c-.13.63.84.9,1,.27Z" transform="translate(-0.03 -0.01)"/>
            <path class="cls-3" d="M149,101.3a18.81,18.81,0,0,1,6.86-1c.64,0,.64-1,0-1a19.85,19.85,0,0,0-7.13,1c-.61.2-.35,1.17.27,1Z" transform="translate(-0.03 -0.01)"/>
            <path class="cls-3" d="M151.9,95.9l-.12,12.67a.5.5,0,0,0,1,0l.12-12.67a.5.5,0,0,0-1,0Z" transform="translate(-0.03 -0.01)"/>
            <path class="cls-3" d="M161.88,94.37,159,103.61l-1.4,4.5c-.25.79-.5,1.58-.74,2.37a2.89,2.89,0,0,0-.14,1.94c.22.59,1.19.34,1-.27s.17-1.47.37-2.11l.7-2.25,1.36-4.39,2.73-8.76c.19-.62-.77-.88-1-.27Z" transform="translate(-0.03 -0.01)"/>
          </g>
          <g>
            <path class="cls-3" d="M135.92,148.8a54.68,54.68,0,0,0,7.81,10.93c.44.47,1.14-.23.71-.71a53.06,53.06,0,0,1-7.66-10.73c-.3-.56-1.17-.06-.86.51Z" transform="translate(-0.03 -0.01)"/>
            <path class="cls-3" d="M142.13,147.76a64.6,64.6,0,0,0-5.06,11.86c-.2.62.77.88,1,.27a64.47,64.47,0,0,1,5-11.63c.31-.56-.55-1.07-.86-.5Z" transform="translate(-0.03 -0.01)"/>
            <path class="cls-3" d="M144.78,152.71h3.94a.5.5,0,0,0,0-1h-3.94a.5.5,0,0,0,0,1Z" transform="translate(-0.03 -0.01)"/>
            <path class="cls-3" d="M151.87,156.45A39.07,39.07,0,0,0,152,150c-.05-.64-1.05-.64-1,0a39.07,39.07,0,0,1-.15,6.49.5.5,0,0,0,.5.5.51.51,0,0,0,.5-.5Z" transform="translate(-0.03 -0.01)"/>
            <path class="cls-3" d="M153,152.35l.84,4.71c.1.56,1,.42,1-.13a18.9,18.9,0,0,1,.27-4.05c.11-.62.25-1.24.42-1.84.07-.25.23-1.25.6-1.28s.56.74.62,1a15.52,15.52,0,0,1,.38,1.92,17.78,17.78,0,0,1,.06,4.06c-.06.64.94.63,1,0a18.17,18.17,0,0,0,0-3.76c-.08-.62-.17-1.24-.3-1.85a5,5,0,0,0-.5-1.51,1.3,1.3,0,0,0-2.24-.28,4.93,4.93,0,0,0-.58,1.52c-.17.61-.31,1.22-.42,1.84a20.81,20.81,0,0,0-.29,4.25l1-.14-.85-4.71c-.11-.63-1.07-.36-1,.27Z" transform="translate(-0.03 -0.01)"/>
            <path class="cls-3" d="M158.27,150.39a15,15,0,0,1,5.09-1.36.52.52,0,0,0,.5-.5.5.5,0,0,0-.5-.5,16.28,16.28,0,0,0-5.6,1.5.5.5,0,0,0-.18.68.52.52,0,0,0,.69.18Z" transform="translate(-0.03 -0.01)"/>
            <path class="cls-3" d="M160.92,145.74a68.67,68.67,0,0,0,.24,10.14c.06.63,1.06.64,1,0a68.67,68.67,0,0,1-.24-10.14c0-.64-1-.64-1,0Z" transform="translate(-0.03 -0.01)"/>
            <path class="cls-3" d="M166.07,153a9.71,9.71,0,0,1,1.37-1.35,2.62,2.62,0,0,0,.79-1.49,1.69,1.69,0,0,0-.41-1.49,1.46,1.46,0,0,0-1.66-.23c-1.38.65-1.22,2.4-1.13,3.66a5.2,5.2,0,0,0,1.39,3.68,2.72,2.72,0,0,0,3.57.2c.48-.43-.23-1.14-.71-.71a1.67,1.67,0,0,1-2-.11,3.53,3.53,0,0,1-1.16-2.55c-.06-.52-.09-1.05-.1-1.58a2.22,2.22,0,0,1,.29-1.43c.18-.23.58-.47.85-.22a.85.85,0,0,1,.09.82,2.37,2.37,0,0,1-.82,1.06,6.31,6.31,0,0,0-1.18,1.24c-.35.54.52,1,.86.5Z" transform="translate(-0.03 -0.01)"/>
            <path class="cls-3" d="M169.66,149.25a56.33,56.33,0,0,0,1.4,5.55c.16.51,1.05.45,1-.13a10.52,10.52,0,0,1,.34-4.6c.16-.44.45-1,1-.95a1.42,1.42,0,0,1,.69.23l.27.18.09.08c.48.43,1.19-.28.71-.71a3,3,0,0,0-1.59-.77,1.88,1.88,0,0,0-1.84,1.08,6.84,6.84,0,0,0-.64,2.48,12.38,12.38,0,0,0,0,3l1-.14a52.43,52.43,0,0,1-1.41-5.55c-.13-.63-1.09-.36-1,.27Z" transform="translate(-0.03 -0.01)"/>
            <path class="cls-3" d="M177.25,148.32c-1.16,1.55-2.31,3.52-1.52,5.5a2.85,2.85,0,0,0,1.87,1.74A2.39,2.39,0,0,0,180,155a.5.5,0,0,0-.7-.7,1.48,1.48,0,0,1-1.56.26,1.9,1.9,0,0,1-1.15-1.42c-.39-1.6.64-3.09,1.56-4.3a.52.52,0,0,0-.18-.69.53.53,0,0,0-.69.18Z" transform="translate(-0.03 -0.01)"/>
            <path class="cls-3" d="M179.57,152.92c1.31,0,2.72-.09,3.56-1.24a1.77,1.77,0,0,0-.61-2.71,1.43,1.43,0,0,0-1.5.14,2.16,2.16,0,0,0-.65,1.66,5.08,5.08,0,0,0,1,3,5.15,5.15,0,0,0,3.07,2.08c.63.13.89-.83.26-1a4.27,4.27,0,0,1-3.19-3.15,3.88,3.88,0,0,1-.1-1.18c0-.28.1-.74.44-.79a.76.76,0,0,1,.6.32.81.81,0,0,1,0,.87c-.56,1-1.86.93-2.82.92a.5.5,0,0,0,0,1Z" transform="translate(-0.03 -0.01)"/>
            <path class="cls-3" d="M185.12,147.71a93,93,0,0,0,.79,11.55c.08.62,1.08.63,1,0a93,93,0,0,1-.79-11.55.5.5,0,0,0-1,0Z" transform="translate(-0.03 -0.01)"/>
            <path class="cls-3" d="M186.24,148l.1-.17,0,0,.07-.07a1.59,1.59,0,0,1,.13-.13c.06-.06-.05,0,0,0l.12-.08a1.5,1.5,0,0,1,.65-.23,2.13,2.13,0,0,1,.36,0s.1,0,0,0l.09,0,.23.07s.08,0,0,0l.09,0,.16.1c-.06,0,.06.06.08.08a.46.46,0,0,1,.07.07s.1.11.05,0a1.77,1.77,0,0,1,.19.33c0-.07,0,.11,0,.13a1.6,1.6,0,0,1,.05.21c0,.15,0-.05,0,0s0,.06,0,.1v.19a.34.34,0,0,1,0,.1c0,.09,0-.12,0,0a1.29,1.29,0,0,1-.05.21.81.81,0,0,1-.13.3s-.11.15-.06.1l-.18.19a1.42,1.42,0,0,1-.3.2,1.76,1.76,0,0,1-.37.17c-.71.23-1.46.26-2.17.43a.5.5,0,0,0-.35.61.5.5,0,0,0,.61.35,18.68,18.68,0,0,0,2.25-.46,2.42,2.42,0,0,0,1.35-3.7,2.25,2.25,0,0,0-1.92-1,2.47,2.47,0,0,0-2.08,1.22c-.31.57.56,1.07.86.51Z" transform="translate(-0.03 -0.01)"/>
            <path class="cls-3" d="M188.55,145.71a26.13,26.13,0,0,1,6.6-1.5c.63-.06.64-1.06,0-1a26.52,26.52,0,0,0-6.87,1.54c-.6.22-.34,1.19.27,1Z" transform="translate(-0.03 -0.01)"/>
            <path class="cls-3" d="M191.58,142.11q-.17,6.19.08,12.39c0,.64,1,.65,1,0q-.24-6.19-.08-12.39a.5.5,0,0,0-1,0Z" transform="translate(-0.03 -0.01)"/>
          </g>
          <g>
            <path class="cls-3" d="M131.47,116a8.2,8.2,0,0,0-2.38,3.44,3.39,3.39,0,0,0,.85,3.42,5.22,5.22,0,0,0,1.7.85,2.8,2.8,0,0,1,1.61,1c.45.71-.16,1.16-.82,1.36a3,3,0,0,1-2.18-.22c-.57-.29-1.08.57-.51.87a3.75,3.75,0,0,0,4.21-.38c1.05-1.05.15-2.58-.94-3.16-.65-.34-1.39-.46-2-.82a2,2,0,0,1-1-1.65c-.13-1.65,1.15-2.92,2.22-4a.5.5,0,0,0-.71-.71Z" transform="translate(-0.03 -0.01)"/>
            <path class="cls-3" d="M136.05,123.51a2.39,2.39,0,0,1,.13-1.11,2.51,2.51,0,0,1,.58-1,1.69,1.69,0,0,1,.37-.29s.12,0,0,0l.11,0,.12,0c-.11,0,0,0,0,0s.16,0,0,0l.09,0,.13,0c-.08,0,0,0,0,0a1.17,1.17,0,0,1,.37.28,2.08,2.08,0,0,1,.59,2,1.62,1.62,0,0,1-.6.79,1.43,1.43,0,0,1-.24.16l-.18.09-.27.08a.31.31,0,0,1-.13,0l-.11,0a.92.92,0,0,1-.84-.34,1.25,1.25,0,0,1-.21-.44,1.77,1.77,0,0,1-.08-.31.5.5,0,0,0-.62-.35.52.52,0,0,0-.35.61,2.1,2.1,0,0,0,1.79,1.82,2.81,2.81,0,0,0,2.62-1.46A2.93,2.93,0,0,0,139,121a2.27,2.27,0,0,0-1.18-.82,1.68,1.68,0,0,0-1.41.28,3.52,3.52,0,0,0-1.36,3.35.51.51,0,0,0,.62.35A.51.51,0,0,0,136.05,123.51Z" transform="translate(-0.03 -0.01)"/>
            <path class="cls-3" d="M141.09,116.73c.25,3.37.4,6.76.46,10.14a.5.5,0,0,0,1,0c-.06-3.38-.21-6.77-.46-10.14-.05-.64-1.05-.64-1,0Z" transform="translate(-0.03 -0.01)"/>
            <path class="cls-3" d="M144.51,117.74a17.23,17.23,0,0,0-.15,3.93,12.12,12.12,0,0,0,.56,3.16,1.91,1.91,0,0,0,2.26,1.44,2.64,2.64,0,0,0,2-1.78,16.63,16.63,0,0,0,.58-4.1c0-.64-1-.64-1,0a15.46,15.46,0,0,1-.54,3.83c-.22.68-1.38,1.57-2,.89a2.66,2.66,0,0,1-.52-1.33c-.12-.56-.21-1.14-.28-1.71a16.23,16.23,0,0,1,.09-4.06.5.5,0,1,0-1-.27Z" transform="translate(-0.03 -0.01)"/>
            <path class="cls-3" d="M150.61,120.29a13.84,13.84,0,0,1,5.66,0c.62.13.89-.84.26-1a15.19,15.19,0,0,0-6.19,0c-.63.13-.36,1.1.27,1Z" transform="translate(-0.03 -0.01)"/>
            <path class="cls-3" d="M153.21,116.76l.73,6.09c.12.93.18,1.88.35,2.8a1.69,1.69,0,0,0,1.12,1.46.5.5,0,0,0,.26-1c-.51-.14-.48-1.25-.53-1.65l-.31-2.61-.62-5.13c-.08-.64-1.08-.64-1,0Z" transform="translate(-0.03 -0.01)"/>
            <path class="cls-3" d="M160,126a15.2,15.2,0,0,0-.54-5.77.5.5,0,0,0-1,.27A14.19,14.19,0,0,1,159,126a.5.5,0,0,0,.5.5.51.51,0,0,0,.5-.5Z" transform="translate(-0.03 -0.01)"/>
            <path class="cls-3" d="M158.93,118.93a.5.5,0,0,0,0-1,.5.5,0,0,0,0,1Z" transform="translate(-0.03 -0.01)"/>
            <path class="cls-3" d="M161.82,124.36a1.15,1.15,0,0,1,.44-.83,2,2,0,0,1,1.06-.49,1.86,1.86,0,0,1,1.79.92,1.05,1.05,0,0,1,.12.31,1.21,1.21,0,0,1,.05.18s0,.06,0,.09,0,.09,0,.11a1.25,1.25,0,0,1-.07.47l-.09.14c0,.08.08-.08,0,0a.46.46,0,0,0-.07.07s-.11.09,0,0a2.08,2.08,0,0,1-1.87.19,2.91,2.91,0,0,1-.51-.22l-.22-.15,0,0c-.08,0,.07.07,0,0l-.2-.18a.46.46,0,0,0-.07-.07s-.09-.12-.05-.06a.9.9,0,0,1-.21-.51.5.5,0,0,0-1,0,2.56,2.56,0,0,0,1.76,2.09,3.18,3.18,0,0,0,2.85-.12,2.09,2.09,0,0,0,.68-2.59,2.81,2.81,0,0,0-2.66-1.7,2.64,2.64,0,0,0-2.63,2.32A.5.5,0,0,0,161.82,124.36Z" transform="translate(-0.03 -0.01)"/>
            <path class="cls-3" d="M167.28,121.27v5h1a12.61,12.61,0,0,1,.46-3.4,9.16,9.16,0,0,1,.54-1.52c.12-.22.44-.79.76-.73s.26.3.32.43a6,6,0,0,1,.32.73,11.64,11.64,0,0,1,.49,1.55,11.22,11.22,0,0,1,.27,3.32c0,.64,1,.64,1,0a12.17,12.17,0,0,0-1.21-6.11,1.55,1.55,0,0,0-.95-.89,1.39,1.39,0,0,0-1.2.35,5,5,0,0,0-1.3,2.6,13.37,13.37,0,0,0-.5,3.67.5.5,0,0,0,1,0v-5a.5.5,0,0,0-1,0Z" transform="translate(-0.03 -0.01)"/>
            <path class="cls-3" d="M179.23,113.91l-2.87,9.24L175,127.66c-.24.79-.49,1.58-.74,2.37a2.92,2.92,0,0,0-.14,1.93c.23.6,1.19.34,1-.26s.16-1.48.36-2.12l.7-2.25,1.37-4.38,2.73-8.77c.19-.62-.78-.88-1-.27Z" transform="translate(-0.03 -0.01)"/>
          </g>
          <g>
            <path class="cls-3" d="M134.62,133.71c1.37-.13,2.75-.3,4.13-.39a1.68,1.68,0,0,1,1.58.49,1.61,1.61,0,0,1,.16,1.35c-.32,1.15-1.51,2-2.39,2.73a25.35,25.35,0,0,1-3.4,2.3.5.5,0,0,0,.25.93l6.71-.22,1.63-.06a2.53,2.53,0,0,0,1.28-.17c.71-.46.1-1.61-.65-1.16a.5.5,0,0,0,.5.86l.07,0-.39,0c.09-.44,0-.62-.33-.55h-.19l-.57,0-1.15,0-2.3.08-4.61.15.26.93a26.37,26.37,0,0,0,4-2.79c1-.88,2.2-1.91,2.33-3.34a2.26,2.26,0,0,0-1.93-2.57,10.53,10.53,0,0,0-2.38.11l-2.62.25c-.64.06-.65,1.06,0,1Z" transform="translate(-0.03 -0.01)"/>
            <path class="cls-3" d="M146.6,138.13c1.41-.53,3.13-1.26,3.78-2.74a1.72,1.72,0,0,0-.21-1.89,1.87,1.87,0,0,0-2-.43c-1.42.53-1.94,2.35-1.85,3.73a5.12,5.12,0,0,0,2,3.84,5.17,5.17,0,0,0,4.77.67c.6-.23.34-1.19-.27-1a4.1,4.1,0,0,1-5.35-2.52,3.88,3.88,0,0,1,.28-3.16A1.28,1.28,0,0,1,149,134a.65.65,0,0,1,.49.91,2.75,2.75,0,0,1-1.12,1.29,10.4,10.4,0,0,1-2.07,1c-.59.23-.33,1.2.27,1Z" transform="translate(-0.03 -0.01)"/>
            <path class="cls-3" d="M152.74,133.19l1.67,5.84c.15.53,1,.45,1-.13a13.39,13.39,0,0,1,.33-4.27,6.29,6.29,0,0,1,.17-.62s.07-.18.08-.18-.22.14-.25-.08a.5.5,0,0,0,.61.35.52.52,0,0,0,.35-.62.83.83,0,0,0-1.34-.41,3,3,0,0,0-.68,1.73,14.46,14.46,0,0,0-.27,4.1l1-.13-1.67-5.84a.5.5,0,0,0-1,.26Z" transform="translate(-0.03 -0.01)"/>
            <path class="cls-3" d="M158.53,137.35s0-.08,0-.12.06-.14,0,0l.13-.27a3.47,3.47,0,0,1,.32-.49,2,2,0,0,1,.43-.4,1,1,0,0,1,.47-.16,1.18,1.18,0,0,1,.43.09,1.64,1.64,0,0,1,.49.42,2.66,2.66,0,0,1,.51,1.07,2.52,2.52,0,0,1,.07.93c0-.09,0,.09,0,.09s0,.11,0,.17a2,2,0,0,1-.1.26,1.72,1.72,0,0,1-.42.49,1.69,1.69,0,0,1-2.18-.07,2,2,0,0,1-.15-2,.5.5,0,0,0-1-.26,3.09,3.09,0,0,0,.18,2.64,2.6,2.6,0,0,0,3.37.66,2.67,2.67,0,0,0,1.29-2.9,3,3,0,0,0-2.05-2.59c-1.39-.26-2.38,1-2.79,2.19a.5.5,0,0,0,1,.26Z" transform="translate(-0.03 -0.01)"/>
            <path class="cls-3" d="M167.64,131l-2.08,5.94-1,3c-.28.78-.89,1.83-.57,2.66.22.6,1.19.34,1-.27-.16-.43.2-1.08.35-1.49l.44-1.27,1-2.75,1.93-5.51c.22-.61-.75-.87-1-.27Z" transform="translate(-0.03 -0.01)"/>
          </g>
        </g>
        <g>
          <path class="cls-3" d="M192.5,80.28a129.7,129.7,0,0,0-13.23,21c-1.06,2.09-2.05,4.21-3,6.35-.26.58.61,1.09.86.5A129.72,129.72,0,0,1,189,86.74c1.34-2,2.74-3.87,4.19-5.75.39-.5-.31-1.22-.7-.71Z" transform="translate(-0.03 -0.01)"/>
          <path class="cls-3" d="M186.78,82l3.82-1,1.9-.5c.24-.06.55-.17.71.06a1.31,1.31,0,0,1,.13.62c.17,2.68.27,5.36.4,8,0,.64,1,.65,1,0l-.23-4.66-.12-2.28a7.06,7.06,0,0,0-.19-2c-.51-1.43-2.12-.75-3.18-.47L186.52,81a.5.5,0,0,0,.26,1Z" transform="translate(-0.03 -0.01)"/>
        </g>
        <g>
          <path class="cls-3" d="M132.17,77.29A50.76,50.76,0,0,0,135.57,94c.23.6,1.19.34,1-.26a50,50,0,0,1-3.36-16.48c0-.64-1-.64-1,0Z" transform="translate(-0.03 -0.01)"/>
          <path class="cls-3" d="M129.84,84.43h.06l-.49-.13,0-.48.39,0c.1.16.15.17.13,0l0-.16c0-.15.06-.31.09-.46.06-.31.12-.63.19-.94.13-.62.28-1.23.47-1.84a10,10,0,0,1,.72-1.76,8.15,8.15,0,0,1,.49-.8,2.4,2.4,0,0,1,.28-.37c.14-.15.17-.17.33,0a15.88,15.88,0,0,1,1.35,1.37c.48.46,1,.89,1.48,1.31a26,26,0,0,0,3.3,2.3.5.5,0,0,0,.68-.18,1.27,1.27,0,0,0-.24-1.55c-.46-.45-1.17.26-.71.71a.25.25,0,0,1,.09.33l.68-.18a24.63,24.63,0,0,1-3.78-2.72c-.58-.51-1.14-1-1.67-1.61s-.87-1-1.54-.86-1,.82-1.33,1.32a10.85,10.85,0,0,0-.92,1.95,17.75,17.75,0,0,0-.6,2.13,11.65,11.65,0,0,0-.39,2.09c0,.58.59,1.26,1.14.74a.62.62,0,0,0-.52-1.09c-.63.11-.36,1.08.27,1Z" transform="translate(-0.03 -0.01)"/>
        </g>
        <g>
          <path class="cls-3" d="M31.53,79.28C42.7,82.92,54,86.12,65.3,89.35S87.86,95.87,99,99.71c6.26,2.16,12.46,4.5,18.55,7.1A.5.5,0,0,0,118,106l-.81-.62c-.51-.39-1,.47-.5.86l.8.62L118,106A338.94,338.94,0,0,0,84.9,94.08c-11.31-3.48-22.71-6.62-34.06-9.93-6.38-1.86-12.73-3.77-19.05-5.83-.61-.2-.87.77-.26,1Z" transform="translate(-0.03 -0.01)"/>
          <path class="cls-3" d="M35.1,83.92l-1.88-3-.92-1.45a5.41,5.41,0,0,0-.48-.76c0-.12-.06-.14-.08-.06s0,.06,0,0a1.77,1.77,0,0,0,.33-.08l6.84-1.4c.63-.13.37-1.1-.26-1l-3.93.81-2,.4a4.71,4.71,0,0,0-1.65.45A.94.94,0,0,0,31,79.24c.34.6.74,1.18,1.11,1.77l2.16,3.41c.35.54,1.21,0,.87-.5Z" transform="translate(-0.03 -0.01)"/>
        </g>
      </g>
    </g>
  </g>
</svg>
