<?xml version="1.0" encoding="utf-8" standalone="no"?>
<!DOCTYPE svg PUBLIC "-//W3C//DTD SVG 1.1//EN"
  "http://www.w3.org/Graphics/SVG/1.1/DTD/svg11.dtd">
<!-- Created with matplotlib (http://matplotlib.org/) -->
<svg height="280.8pt" version="1.1" viewBox="0 0 424.8 280.8" width="424.8pt" xmlns="http://www.w3.org/2000/svg" xmlns:xlink="http://www.w3.org/1999/xlink">
 <defs>
  <style type="text/css">
*{stroke-linecap:butt;stroke-linejoin:round;}
  </style>
 </defs>
 <g id="figure_1">
  <g id="patch_1">
   <path d="M 0 280.8 
L 424.8 280.8 
L 424.8 0 
L 0 0 
z
" style="fill:#ffffff;"/>
  </g>
  <g id="axes_1">
   <g id="patch_2">
    <path d="M 10.7 270.1 
L 414.1 270.1 
L 414.1 10.7 
L 10.7 10.7 
z
" style="fill:#ffffff;"/>
   </g>
   <g id="matplotlib.axis_1">
    <g id="xtick_1">
     <g id="line2d_1">
      <defs>
       <path d="M 0 0 
L 0 3.5 
" id="mdd6acc61c2" style="stroke:#808080;stroke-width:0.8;"/>
      </defs>
      <g>
       <use style="fill:#808080;stroke:#808080;stroke-width:0.8;" x="18.457692" xlink:href="#mdd6acc61c2" y="140.4"/>
      </g>
     </g>
     <g id="text_1">
      <!-- -4 -->
      <defs>
       <path d="M 4.890625 31.390625 
L 31.203125 31.390625 
L 31.203125 23.390625 
L 4.890625 23.390625 
z
" id="DejaVuSans-2d"/>
       <path d="M 37.796875 64.3125 
L 12.890625 25.390625 
L 37.796875 25.390625 
z
M 35.203125 72.90625 
L 47.609375 72.90625 
L 47.609375 25.390625 
L 58.015625 25.390625 
L 58.015625 17.1875 
L 47.609375 17.1875 
L 47.609375 0 
L 37.796875 0 
L 37.796875 17.1875 
L 4.890625 17.1875 
L 4.890625 26.703125 
z
" id="DejaVuSans-34"/>
      </defs>
      <g transform="translate(9.484411 161.077188)scale(0.18 -0.18)">
       <use xlink:href="#DejaVuSans-2d"/>
       <use x="36.083984" xlink:href="#DejaVuSans-34"/>
      </g>
     </g>
    </g>
    <g id="xtick_2">
     <g id="line2d_2">
      <g>
       <use style="fill:#808080;stroke:#808080;stroke-width:0.8;" x="73.86978" xlink:href="#mdd6acc61c2" y="140.4"/>
      </g>
     </g>
     <g id="text_2">
      <!-- -3 -->
      <defs>
       <path d="M 40.578125 39.3125 
Q 47.65625 37.796875 51.625 33 
Q 55.609375 28.21875 55.609375 21.1875 
Q 55.609375 10.40625 48.1875 4.484375 
Q 40.765625 -1.421875 27.09375 -1.421875 
Q 22.515625 -1.421875 17.65625 -0.515625 
Q 12.796875 0.390625 7.625 2.203125 
L 7.625 11.71875 
Q 11.71875 9.328125 16.59375 8.109375 
Q 21.484375 6.890625 26.8125 6.890625 
Q 36.078125 6.890625 40.9375 10.546875 
Q 45.796875 14.203125 45.796875 21.1875 
Q 45.796875 27.640625 41.28125 31.265625 
Q 36.765625 34.90625 28.71875 34.90625 
L 20.21875 34.90625 
L 20.21875 43.015625 
L 29.109375 43.015625 
Q 36.375 43.015625 40.234375 45.921875 
Q 44.09375 48.828125 44.09375 54.296875 
Q 44.09375 59.90625 40.109375 62.90625 
Q 36.140625 65.921875 28.71875 65.921875 
Q 24.65625 65.921875 20.015625 65.03125 
Q 15.375 64.15625 9.8125 62.3125 
L 9.8125 71.09375 
Q 15.4375 72.65625 20.34375 73.4375 
Q 25.25 74.21875 29.59375 74.21875 
Q 40.828125 74.21875 47.359375 69.109375 
Q 53.90625 64.015625 53.90625 55.328125 
Q 53.90625 49.265625 50.4375 45.09375 
Q 46.96875 40.921875 40.578125 39.3125 
z
" id="DejaVuSans-33"/>
      </defs>
      <g transform="translate(64.896499 161.077188)scale(0.18 -0.18)">
       <use xlink:href="#DejaVuSans-2d"/>
       <use x="36.083984" xlink:href="#DejaVuSans-33"/>
      </g>
     </g>
    </g>
    <g id="xtick_3">
     <g id="line2d_3">
      <g>
       <use style="fill:#808080;stroke:#808080;stroke-width:0.8;" x="129.281868" xlink:href="#mdd6acc61c2" y="140.4"/>
      </g>
     </g>
     <g id="text_3">
      <!-- -2 -->
      <defs>
       <path d="M 19.1875 8.296875 
L 53.609375 8.296875 
L 53.609375 0 
L 7.328125 0 
L 7.328125 8.296875 
Q 12.9375 14.109375 22.625 23.890625 
Q 32.328125 33.6875 34.8125 36.53125 
Q 39.546875 41.84375 41.421875 45.53125 
Q 43.3125 49.21875 43.3125 52.78125 
Q 43.3125 58.59375 39.234375 62.25 
Q 35.15625 65.921875 28.609375 65.921875 
Q 23.96875 65.921875 18.8125 64.3125 
Q 13.671875 62.703125 7.8125 59.421875 
L 7.8125 69.390625 
Q 13.765625 71.78125 18.9375 73 
Q 24.125 74.21875 28.421875 74.21875 
Q 39.75 74.21875 46.484375 68.546875 
Q 53.21875 62.890625 53.21875 53.421875 
Q 53.21875 48.921875 51.53125 44.890625 
Q 49.859375 40.875 45.40625 35.40625 
Q 44.1875 33.984375 37.640625 27.21875 
Q 31.109375 20.453125 19.1875 8.296875 
z
" id="DejaVuSans-32"/>
      </defs>
      <g transform="translate(120.308587 161.077188)scale(0.18 -0.18)">
       <use xlink:href="#DejaVuSans-2d"/>
       <use x="36.083984" xlink:href="#DejaVuSans-32"/>
      </g>
     </g>
    </g>
    <g id="xtick_4">
     <g id="line2d_4">
      <g>
       <use style="fill:#808080;stroke:#808080;stroke-width:0.8;" x="184.693956" xlink:href="#mdd6acc61c2" y="140.4"/>
      </g>
     </g>
     <g id="text_4">
      <!-- -1 -->
      <defs>
       <path d="M 12.40625 8.296875 
L 28.515625 8.296875 
L 28.515625 63.921875 
L 10.984375 60.40625 
L 10.984375 69.390625 
L 28.421875 72.90625 
L 38.28125 72.90625 
L 38.28125 8.296875 
L 54.390625 8.296875 
L 54.390625 0 
L 12.40625 0 
z
" id="DejaVuSans-31"/>
      </defs>
      <g transform="translate(175.720675 161.077188)scale(0.18 -0.18)">
       <use xlink:href="#DejaVuSans-2d"/>
       <use x="36.083984" xlink:href="#DejaVuSans-31"/>
      </g>
     </g>
    </g>
    <g id="xtick_5">
     <g id="line2d_5">
      <g>
       <use style="fill:#808080;stroke:#808080;stroke-width:0.8;" x="240.106044" xlink:href="#mdd6acc61c2" y="140.4"/>
      </g>
     </g>
    </g>
    <g id="xtick_6">
     <g id="line2d_6">
      <g>
       <use style="fill:#808080;stroke:#808080;stroke-width:0.8;" x="295.518132" xlink:href="#mdd6acc61c2" y="140.4"/>
      </g>
     </g>
     <g id="text_5">
      <!-- 1 -->
      <g transform="translate(289.791882 161.077188)scale(0.18 -0.18)">
       <use xlink:href="#DejaVuSans-31"/>
      </g>
     </g>
    </g>
    <g id="xtick_7">
     <g id="line2d_7">
      <g>
       <use style="fill:#808080;stroke:#808080;stroke-width:0.8;" x="350.93022" xlink:href="#mdd6acc61c2" y="140.4"/>
      </g>
     </g>
     <g id="text_6">
      <!-- 2 -->
      <g transform="translate(345.20397 161.077188)scale(0.18 -0.18)">
       <use xlink:href="#DejaVuSans-32"/>
      </g>
     </g>
    </g>
    <g id="xtick_8">
     <g id="line2d_8">
      <g>
       <use style="fill:#808080;stroke:#808080;stroke-width:0.8;" x="406.342308" xlink:href="#mdd6acc61c2" y="140.4"/>
      </g>
     </g>
     <g id="text_7">
      <!-- 3 -->
      <g transform="translate(400.616058 161.077188)scale(0.18 -0.18)">
       <use xlink:href="#DejaVuSans-33"/>
      </g>
     </g>
    </g>
   </g>
   <g id="matplotlib.axis_2"/>
   <g id="patch_3">
    <path d="M 240.106044 270.1 
L 240.106044 10.7 
" style="fill:none;stroke:#808080;stroke-linecap:square;stroke-linejoin:miter;stroke-width:2;"/>
   </g>
   <g id="patch_4">
    <path d="M 10.7 140.4 
L 414.1 140.4 
" style="fill:none;stroke:#808080;stroke-linecap:square;stroke-linejoin:miter;stroke-width:2;"/>
   </g>
   <g id="line2d_9">
    <path clip-path="url(#pd7bc9c09fe)" d="M 110.682385 281.8 
L 113.464756 254.948733 
L 115.990873 232.435869 
L 118.635646 210.687561 
L 121.068879 192.25701 
L 123.820332 173.158993 
L 126.449346 156.562169 
L 128.879202 142.592163 
L 131.328935 129.779681 
L 133.686989 118.599113 
L 136.007 108.652434 
L 138.364865 99.565203 
L 140.526905 92.096619 
L 142.501196 85.966401 
L 144.540764 80.294919 
L 146.486711 75.483365 
L 148.464644 71.166185 
L 150.527221 67.25193 
L 152.327115 64.303966 
L 154.129445 61.7689 
L 155.698191 59.887377 
L 157.525121 58.060536 
L 158.996005 56.862447 
L 160.500851 55.877562 
L 161.906644 55.168661 
L 163.614069 54.569924 
L 165.321495 54.245316 
L 167.019497 54.180362 
L 168.66468 54.349798 
L 170.450625 54.778301 
L 172.168309 55.416783 
L 174.27551 56.483445 
L 176.425907 57.870554 
L 178.559654 59.520741 
L 180.985584 61.698226 
L 183.180542 63.917809 
L 186.135968 67.236922 
L 189.519391 71.435593 
L 193.652797 77.029486 
L 197.826794 83.063375 
L 204.45796 93.118814 
L 215.675045 110.249087 
L 220.439236 117.166609 
L 225.177336 123.649256 
L 229.165809 128.721491 
L 232.628619 132.794876 
L 236.338179 136.781528 
L 238.957823 139.34501 
L 238.957823 139.34501 
" style="fill:none;stroke:#ff0000;stroke-linecap:square;stroke-width:5;"/>
   </g>
   <g id="line2d_10">
    <path clip-path="url(#pd7bc9c09fe)" d="M 241.722996 141.81288 
L 244.979315 144.393583 
L 247.875334 146.384068 
L 250.572887 147.974706 
L 253.146972 149.252804 
L 256.110033 150.432723 
L 258.588455 151.180565 
L 261.25223 151.743448 
L 263.90272 152.059302 
L 266.549056 152.13671 
L 268.637456 152.034241 
L 271.544573 151.659429 
L 274.409017 151.037041 
L 277.860063 149.973927 
L 281.100694 148.68836 
L 284.109263 147.270307 
L 287.584602 145.396404 
L 291.987302 142.723858 
L 296.318547 139.857082 
L 310.808592 129.984903 
L 315.189367 127.418481 
L 318.354076 125.841778 
L 321.264636 124.658124 
L 323.782529 123.880926 
L 326.11772 123.396579 
L 327.874862 123.199968 
L 329.934939 123.171689 
L 332.229125 123.421341 
L 334.067908 123.854514 
L 336.225486 124.649951 
L 338.185902 125.66223 
L 339.888003 126.78066 
L 341.888906 128.399019 
L 343.883589 130.359808 
L 345.661346 132.417946 
L 347.782833 135.280558 
L 349.680384 138.237502 
L 351.60079 141.633082 
L 353.463897 145.335304 
L 355.565827 150.020021 
L 357.600002 155.093356 
L 359.70769 160.939537 
L 362.013346 168.05834 
L 364.222647 175.626251 
L 366.352813 183.65044 
L 368.632513 193.068152 
L 370.989928 203.754169 
L 373.294001 215.174769 
L 375.655518 227.930092 
L 377.994772 241.662223 
L 380.743899 259.263833 
L 383.227108 276.587398 
L 383.937312 281.8 
L 383.937312 281.8 
" style="fill:none;stroke:#ff0000;stroke-linecap:square;stroke-width:5;"/>
   </g>
  </g>
 </g>
 <defs>
  <clipPath id="pd7bc9c09fe">
   <rect height="259.4" width="403.4" x="10.7" y="10.7"/>
  </clipPath>
 </defs>
</svg>
