<?xml version="1.0" encoding="utf-8" standalone="no"?>
<!DOCTYPE svg PUBLIC "-//W3C//DTD SVG 1.1//EN"
  "http://www.w3.org/Graphics/SVG/1.1/DTD/svg11.dtd">
<!-- Created with matplotlib (http://matplotlib.org/) -->
<svg height="280.8pt" version="1.1" viewBox="0 0 424.8 280.8" width="424.8pt" xmlns="http://www.w3.org/2000/svg" xmlns:xlink="http://www.w3.org/1999/xlink">
 <defs>
  <style type="text/css">
*{stroke-linecap:butt;stroke-linejoin:round;}
  </style>
 </defs>
 <g id="figure_1">
  <g id="patch_1">
   <path d="M 0 280.8 
L 424.8 280.8 
L 424.8 0 
L 0 0 
z
" style="fill:#ffffff;"/>
  </g>
  <g id="axes_1">
   <g id="patch_2">
    <path d="M 10.7 270.1 
L 414.1 270.1 
L 414.1 10.7 
L 10.7 10.7 
z
" style="fill:#ffffff;"/>
   </g>
   <g id="matplotlib.axis_1">
    <g id="xtick_1">
     <g id="line2d_1">
      <defs>
       <path d="M 0 0 
L 0 3.5 
" id="m08511b3308" style="stroke:#808080;stroke-width:0.8;"/>
      </defs>
      <g>
       <use style="fill:#808080;stroke:#808080;stroke-width:0.8;" x="18.457692" xlink:href="#m08511b3308" y="71.115812"/>
      </g>
     </g>
     <g id="text_1">
      <!-- -3 -->
      <defs>
       <path d="M 4.890625 31.390625 
L 31.203125 31.390625 
L 31.203125 23.390625 
L 4.890625 23.390625 
z
" id="DejaVuSans-2d"/>
       <path d="M 40.578125 39.3125 
Q 47.65625 37.796875 51.625 33 
Q 55.609375 28.21875 55.609375 21.1875 
Q 55.609375 10.40625 48.1875 4.484375 
Q 40.765625 -1.421875 27.09375 -1.421875 
Q 22.515625 -1.421875 17.65625 -0.515625 
Q 12.796875 0.390625 7.625 2.203125 
L 7.625 11.71875 
Q 11.71875 9.328125 16.59375 8.109375 
Q 21.484375 6.890625 26.8125 6.890625 
Q 36.078125 6.890625 40.9375 10.546875 
Q 45.796875 14.203125 45.796875 21.1875 
Q 45.796875 27.640625 41.28125 31.265625 
Q 36.765625 34.90625 28.71875 34.90625 
L 20.21875 34.90625 
L 20.21875 43.015625 
L 29.109375 43.015625 
Q 36.375 43.015625 40.234375 45.921875 
Q 44.09375 48.828125 44.09375 54.296875 
Q 44.09375 59.90625 40.109375 62.90625 
Q 36.140625 65.921875 28.71875 65.921875 
Q 24.65625 65.921875 20.015625 65.03125 
Q 15.375 64.15625 9.8125 62.3125 
L 9.8125 71.09375 
Q 15.4375 72.65625 20.34375 73.4375 
Q 25.25 74.21875 29.59375 74.21875 
Q 40.828125 74.21875 47.359375 69.109375 
Q 53.90625 64.015625 53.90625 55.328125 
Q 53.90625 49.265625 50.4375 45.09375 
Q 46.96875 40.921875 40.578125 39.3125 
z
" id="DejaVuSans-33"/>
      </defs>
      <g transform="translate(9.484411 91.792999)scale(0.18 -0.18)">
       <use xlink:href="#DejaVuSans-2d"/>
       <use x="36.083984" xlink:href="#DejaVuSans-33"/>
      </g>
     </g>
    </g>
    <g id="xtick_2">
     <g id="line2d_2">
      <g>
       <use style="fill:#808080;stroke:#808080;stroke-width:0.8;" x="83.105128" xlink:href="#m08511b3308" y="71.115812"/>
      </g>
     </g>
     <g id="text_2">
      <!-- -2 -->
      <defs>
       <path d="M 19.1875 8.296875 
L 53.609375 8.296875 
L 53.609375 0 
L 7.328125 0 
L 7.328125 8.296875 
Q 12.9375 14.109375 22.625 23.890625 
Q 32.328125 33.6875 34.8125 36.53125 
Q 39.546875 41.84375 41.421875 45.53125 
Q 43.3125 49.21875 43.3125 52.78125 
Q 43.3125 58.59375 39.234375 62.25 
Q 35.15625 65.921875 28.609375 65.921875 
Q 23.96875 65.921875 18.8125 64.3125 
Q 13.671875 62.703125 7.8125 59.421875 
L 7.8125 69.390625 
Q 13.765625 71.78125 18.9375 73 
Q 24.125 74.21875 28.421875 74.21875 
Q 39.75 74.21875 46.484375 68.546875 
Q 53.21875 62.890625 53.21875 53.421875 
Q 53.21875 48.921875 51.53125 44.890625 
Q 49.859375 40.875 45.40625 35.40625 
Q 44.1875 33.984375 37.640625 27.21875 
Q 31.109375 20.453125 19.1875 8.296875 
z
" id="DejaVuSans-32"/>
      </defs>
      <g transform="translate(74.131847 91.792999)scale(0.18 -0.18)">
       <use xlink:href="#DejaVuSans-2d"/>
       <use x="36.083984" xlink:href="#DejaVuSans-32"/>
      </g>
     </g>
    </g>
    <g id="xtick_3">
     <g id="line2d_3">
      <g>
       <use style="fill:#808080;stroke:#808080;stroke-width:0.8;" x="147.752564" xlink:href="#m08511b3308" y="71.115812"/>
      </g>
     </g>
     <g id="text_3">
      <!-- -1 -->
      <defs>
       <path d="M 12.40625 8.296875 
L 28.515625 8.296875 
L 28.515625 63.921875 
L 10.984375 60.40625 
L 10.984375 69.390625 
L 28.421875 72.90625 
L 38.28125 72.90625 
L 38.28125 8.296875 
L 54.390625 8.296875 
L 54.390625 0 
L 12.40625 0 
z
" id="DejaVuSans-31"/>
      </defs>
      <g transform="translate(138.779283 91.792999)scale(0.18 -0.18)">
       <use xlink:href="#DejaVuSans-2d"/>
       <use x="36.083984" xlink:href="#DejaVuSans-31"/>
      </g>
     </g>
    </g>
    <g id="xtick_4">
     <g id="line2d_4">
      <g>
       <use style="fill:#808080;stroke:#808080;stroke-width:0.8;" x="212.4" xlink:href="#m08511b3308" y="71.115812"/>
      </g>
     </g>
    </g>
    <g id="xtick_5">
     <g id="line2d_5">
      <g>
       <use style="fill:#808080;stroke:#808080;stroke-width:0.8;" x="277.047436" xlink:href="#m08511b3308" y="71.115812"/>
      </g>
     </g>
     <g id="text_4">
      <!-- 1 -->
      <g transform="translate(271.321186 91.792999)scale(0.18 -0.18)">
       <use xlink:href="#DejaVuSans-31"/>
      </g>
     </g>
    </g>
    <g id="xtick_6">
     <g id="line2d_6">
      <g>
       <use style="fill:#808080;stroke:#808080;stroke-width:0.8;" x="341.694872" xlink:href="#m08511b3308" y="71.115812"/>
      </g>
     </g>
     <g id="text_5">
      <!-- 2 -->
      <g transform="translate(335.968622 91.792999)scale(0.18 -0.18)">
       <use xlink:href="#DejaVuSans-32"/>
      </g>
     </g>
    </g>
    <g id="xtick_7">
     <g id="line2d_7">
      <g>
       <use style="fill:#808080;stroke:#808080;stroke-width:0.8;" x="406.342308" xlink:href="#m08511b3308" y="71.115812"/>
      </g>
     </g>
     <g id="text_6">
      <!-- 3 -->
      <g transform="translate(400.616058 91.792999)scale(0.18 -0.18)">
       <use xlink:href="#DejaVuSans-33"/>
      </g>
     </g>
    </g>
   </g>
   <g id="matplotlib.axis_2"/>
   <g id="patch_3">
    <path d="M 212.4 270.1 
L 212.4 10.7 
" style="fill:none;stroke:#808080;stroke-linecap:square;stroke-linejoin:miter;stroke-width:2;"/>
   </g>
   <g id="patch_4">
    <path d="M 10.7 71.115812 
L 414.1 71.115812 
" style="fill:none;stroke:#808080;stroke-linecap:square;stroke-linejoin:miter;stroke-width:2;"/>
   </g>
   <g id="line2d_8">
    <path clip-path="url(#pc4307f4e2d)" d="M 41.807691 -1 
L 43.695779 9.622352 
L 45.616684 19.200223 
L 47.520477 27.565721 
L 49.372248 34.713089 
L 51.136699 40.68949 
L 52.898597 45.912152 
L 54.604304 50.318111 
L 56.349795 54.221966 
L 58.038584 57.468507 
L 59.649628 60.123811 
L 61.233669 62.353112 
L 62.845771 64.27085 
L 64.596307 65.993979 
L 66.16533 67.255562 
L 67.907562 68.380869 
L 69.670566 69.262793 
L 71.467627 69.935076 
L 73.424171 70.450752 
L 75.739025 70.830363 
L 78.504662 71.048421 
L 82.389602 71.115569 
L 88.477502 71.211392 
L 91.637377 71.484532 
L 94.301925 71.92273 
L 96.741495 72.530734 
L 99.276206 73.402998 
L 101.507926 74.394394 
L 103.886734 75.698326 
L 106.146113 77.185018 
L 108.642665 79.119367 
L 111.051518 81.282659 
L 113.510169 83.794743 
L 116.081878 86.750967 
L 118.647419 90.031161 
L 121.46709 94.008935 
L 124.388508 98.527095 
L 127.331112 103.465709 
L 130.541222 109.267067 
L 134.156123 116.26984 
L 138.195661 124.609853 
L 142.829865 134.725628 
L 148.527418 147.739911 
L 168.548168 194.046143 
L 172.980166 203.477523 
L 176.699033 210.928946 
L 180.41912 217.87976 
L 183.647556 223.449436 
L 186.74382 228.345897 
L 189.584399 232.424905 
L 192.355966 236.000194 
L 194.87472 238.88581 
L 197.112058 241.147578 
L 199.500011 243.239111 
L 201.736092 244.888259 
L 203.895606 246.191203 
L 205.920458 247.150333 
L 207.895458 247.838263 
L 209.787797 248.266229 
L 211.627593 248.464344 
L 212.151002 248.48136 
L 212.151002 248.48136 
" style="fill:none;stroke:#ff0000;stroke-linecap:square;stroke-width:5;"/>
   </g>
   <g id="line2d_9">
    <path clip-path="url(#pc4307f4e2d)" d="M 212.660146 248.481179 
L 214.603241 248.328868 
L 216.545169 247.936983 
L 218.442119 247.323855 
L 220.440097 246.433706 
L 222.390049 245.32562 
L 224.356463 243.971853 
L 226.375963 242.338474 
L 228.55412 240.306176 
L 230.769419 237.958194 
L 233.280281 234.964795 
L 235.946163 231.415038 
L 238.627052 227.477527 
L 241.558823 222.773616 
L 244.773619 217.171847 
L 248.299703 210.542809 
L 252.015778 203.072386 
L 256.352301 193.82637 
L 261.150082 183.082199 
L 267.491948 168.354473 
L 280.372318 138.322357 
L 285.655202 126.638466 
L 289.815683 117.938224 
L 293.74599 110.231378 
L 297.312569 103.738477 
L 300.373616 98.588241 
L 303.487309 93.78123 
L 306.282631 89.857028 
L 309.012617 86.39549 
L 311.686133 83.369024 
L 314.208303 80.846995 
L 316.782615 78.605714 
L 319.243553 76.773146 
L 321.559588 75.318004 
L 323.781403 74.158274 
L 326.119572 73.174506 
L 328.456795 72.416664 
L 330.942607 71.834246 
L 333.788435 71.411412 
L 336.741988 71.191078 
L 340.25173 71.117752 
L 347.211644 70.998382 
L 350.004728 70.701611 
L 352.363978 70.215733 
L 354.344427 69.582361 
L 356.163655 68.774553 
L 357.885278 67.772972 
L 359.653336 66.465239 
L 361.301655 64.954681 
L 362.86351 63.230581 
L 364.384747 61.24626 
L 366.016374 58.747566 
L 367.609541 55.900168 
L 369.284034 52.429883 
L 370.985861 48.352983 
L 372.664207 43.738329 
L 374.343829 38.476462 
L 376.139235 32.077117 
L 377.974577 24.635732 
L 379.798171 16.263351 
L 381.563481 7.152528 
L 382.992305 -1 
L 382.992305 -1 
" style="fill:none;stroke:#ff0000;stroke-linecap:square;stroke-width:5;"/>
   </g>
  </g>
 </g>
 <defs>
  <clipPath id="pc4307f4e2d">
   <rect height="259.4" width="403.4" x="10.7" y="10.7"/>
  </clipPath>
 </defs>
</svg>
