<svg xmlns="http://www.w3.org/2000/svg" viewBox="0 0 232.12 178.81">
  <defs>
    <style>
      .cls-1 {
        fill: #808285;
      }

      .cls-2 {
        fill: #ed1c24;
      }
    </style>
  </defs>
  <title>Asset 1</title>
  <g id="Layer_2" data-name="Layer 2">
    <g id="Layer_1-2" data-name="Layer 1">
      <g>
        <path class="cls-1" d="M10,81.86c-1.73,1.43-3.42,2.92-5,4.46q-1.22,1.17-2.4,2.37A12.92,12.92,0,0,0,.45,91.1c-1,1.85,0,3.61,1.75,4.43.86.4,1.77.68,2.65,1s1.88.86,2.78,1.35a32.49,32.49,0,0,1,5.79,4c1,.84,2.38-.56,1.41-1.41A34.66,34.66,0,0,0,5,94.5c-.79-.32-3.47-.88-2.91-2.21A8.07,8.07,0,0,1,4,90.11c.71-.72,1.42-1.43,2.15-2.13,1.71-1.64,3.48-3.2,5.3-4.71,1-.81-.42-2.22-1.41-1.41Z" transform="translate(-0.03 -0.01)"/>
        <path class="cls-1" d="M219.14,90.67,226,93.36c1,.37,2,.71,2.91,1.15.72.34,1.49.72,1.14,1.62a11,11,0,0,1-1.63,2.48,26.12,26.12,0,0,1-1.89,2.18,30.48,30.48,0,0,1-4.85,4.08c-1.06.71-.06,2.45,1,1.72a31.3,31.3,0,0,0,8-7.75c1-1.45,2.17-3.35.76-5a5.28,5.28,0,0,0-2-1.3c-1-.41-1.95-.77-2.93-1.15l-6.87-2.69a1,1,0,0,0-.53,1.93Z" transform="translate(-0.03 -0.01)"/>
        <path class="cls-1" d="M2.16,94.1C21,95.26,39.92,95.86,58.81,95.43c13-.29,26-1.42,39-1.71,14.52-.34,29.08-.4,43.59.22,4.56.19,9.07.78,13.62,1,7.78.36,15.56.38,23.34.38,6.74,0,13.42.6,20.14.92,7.93.38,15.87.45,23.8.41q4.07,0,8.13-.08a1,1,0,0,0,0-2c-9.11.14-18.24.16-27.36-.15-6.28-.2-12.54-.85-18.82-1.05-7.87-.25-15.76,0-23.64-.24-3.44-.08-6.88-.17-10.31-.49-1.78-.17-3.56-.39-5.35-.5-13.74-.85-27.59-.72-41.34-.51-7.19.1-14.39.28-21.57.72-6.07.37-12.13.76-18.21,1-17.74.59-35.51.21-53.23-.71-2.81-.15-5.61-.31-8.42-.48C.88,92,.88,94,2.16,94.1Z" transform="translate(-0.03 -0.01)"/>
      </g>
      <g>
        <path class="cls-1" d="M97.73,13.06a52,52,0,0,1,5.92-8.58c.6-.72,1.17-1.5,1.84-2.16.18-.18.33-.38.54-.24s.38.74.51,1c.68,1.51,1.5,3,2.27,4.42a43.05,43.05,0,0,1,2.55,5.41c.43,1.2,2.37.68,1.93-.53-1.33-3.68-3.53-6.95-5.12-10.51a2.63,2.63,0,0,0-2-1.86c-1.18-.11-2,.77-2.69,1.59-1.3,1.55-2.6,3.1-3.82,4.72A44.31,44.31,0,0,0,96,12.06c-.61,1.13,1.11,2.14,1.73,1Z" transform="translate(-0.03 -0.01)"/>
        <path class="cls-1" d="M94.29,163.05a44.66,44.66,0,0,0,8.86,15.47,1,1,0,0,0,1.67-.44A37.9,37.9,0,0,1,112,165.47c.84-1-.57-2.39-1.41-1.42a40.57,40.57,0,0,0-7.69,13.5l1.67-.45a42.19,42.19,0,0,1-8.34-14.59c-.4-1.21-2.34-.69-1.93.54Z" transform="translate(-0.03 -0.01)"/>
        <path class="cls-1" d="M104.6,2l-.92,67.44c-.31,22.58-.64,45.17-.79,67.75q-.14,19-.08,38.07a1,1,0,0,0,2,0c-.09-22.61.1-45.22.36-67.83s.6-45,.91-67.51L106.6,2a1,1,0,0,0-2,0Z" transform="translate(-0.03 -0.01)"/>
      </g>
      <g>
        <path class="cls-2" d="M30.79,13.27q4,25,7.39,50.14c2.78,20.67,8.1,40.87,12.38,61.26.73,3.49,1.3,7,2.33,10.45a37.88,37.88,0,0,0,5.74,11.62,40.81,40.81,0,0,0,10.48,10c6.09,4,13.48,5.67,20.58,3.67,6.2-1.74,11.48-5.87,15.7-10.62a52.44,52.44,0,0,0,7.08-10c2-3.8,3-8.2,4.13-12.33,2.07-7.91,3.85-15.88,5.72-23.84,1.66-7,4.05-14.12,10.36-18.3,3.29-2.17,7.15-2.77,10.62-.63a20.67,20.67,0,0,1,6.38,7c1.67,2.76,2.46,6,3.63,9a103.65,103.65,0,0,0,4.95,11.46,14.49,14.49,0,0,0,5.54,6,17.9,17.9,0,0,0,11.14,2,14,14,0,0,0,9.55-6c2.36-3.32,3.6-7.34,4.67-11.22C192.06,92.48,193.94,81.7,196,71c3.27-17,6.49-33.91,10-50.82q1.52-7.36,3.09-14.71c.26-1.26-1.66-1.8-1.93-.54-3.87,18.13-7.44,36.32-10.94,54.53-2.32,12.11-4.5,24.27-7.27,36.29q-.68,2.92-1.45,5.84c-1.06,3.91-2.21,7.94-4.54,11.31a12.14,12.14,0,0,1-9.5,5.35,15,15,0,0,1-10.11-2.87c-2.17-1.77-3.45-4.44-4.59-6.93-1.8-3.95-3.4-8-4.84-12.09A28.3,28.3,0,0,0,150,88.65c-2-2.66-4.24-5.23-7.35-6.55-7.47-3.16-15,3.28-18.32,9.48a41.83,41.83,0,0,0-3.62,10c-1,4.21-2,8.44-3,12.66-1.49,6.32-2.92,12.69-4.86,18.89a34,34,0,0,1-3.91,8.54c-6.29,9.83-16.83,19.61-29.45,17.24-6.29-1.19-11.78-5-16.13-9.57a37.28,37.28,0,0,1-9-16c-1-3.68-1.6-7.48-2.4-11.21-1.07-5-2.21-10.07-3.34-15.1-2.27-10-4.55-20.11-6.4-30.25-1.48-8.13-2.52-16.32-3.66-24.5q-1.75-12.5-3.66-25Q33.89,20,32.72,12.74c-.21-1.27-2.13-.73-1.93.53Z" transform="translate(-0.03 -0.01)"/>
        <path class="cls-2" d="M25.56,24.07l0,.08.86-.5h-.06l.5.13-.07-.05.36.36C27,24,27,24,27.07,24v.53a7.72,7.72,0,0,1,.5-1.47l.54-1.46c.38-1,.77-2,1.17-3s.78-1.91,1.19-2.86a26.4,26.4,0,0,1,1.19-2.59,1.67,1.67,0,0,1,.56-.67c.29-.14.54.07.76.24a20,20,0,0,1,2.07,1.94,30.71,30.71,0,0,1,3.64,4.62c.69,1.08,2.42.07,1.72-1a31.91,31.91,0,0,0-3.72-4.78,27.59,27.59,0,0,0-2.14-2.05,3,3,0,0,0-2.69-.95C30,11,29.36,13.3,28.7,14.83q-1.31,3-2.48,6.12c-.21.56-.42,1.13-.62,1.69a5.21,5.21,0,0,0-.49,1.63c0,1.14,1.5,2,2.18.81a1,1,0,0,0-1.73-1Z" transform="translate(-0.03 -0.01)"/>
        <path class="cls-2" d="M198.81,13.91a71.48,71.48,0,0,1,8.77-9.14l.51-.44.35-.3c.16-.07.13-.12-.08-.14.17.32.38.74.55,1.11l1.44,3.09,1.43,3.09a5,5,0,0,0,.71,1.35,1.33,1.33,0,0,0,.59.36l.39.06q.27,0,0,0l-.36-.36,0,.1-.1-.77,0,.08.46-.6-.08,0,.51-.14h-.09l.51.14-.07,0,.5.86v-.07c-.05-1.28-2.05-1.29-2,0v.07a1,1,0,0,0,.49.87c.91.41,2.08-.28,1.67-1.36A1.31,1.31,0,0,0,214,11a1.24,1.24,0,0,0-.33,0h-.06c.3.18.39.17.27,0s-.27-.59-.36-.77l-2.77-6c-.38-.81-.72-1.83-1.64-2.16s-1.85.37-2.59,1q-2.32,2-4.46,4.18c-1.64,1.67-3.19,3.43-4.66,5.25a1,1,0,0,0,0,1.42,1,1,0,0,0,1.42,0Z" transform="translate(-0.03 -0.01)"/>
      </g>
    </g>
  </g>
</svg>
