<svg xmlns="http://www.w3.org/2000/svg" viewBox="0 0 506 117.34">
  <defs>
    <style>
      .cls-1 {
        fill: #a7a9ac;
      }

      .cls-2 {
        fill: #ed1c24;
      }

      .cls-3 {
        fill: #231f20;
      }

      .cls-4 {
        fill: none;
        stroke: #231f20;
        stroke-miterlimit: 10;
      }
    </style>
  </defs>
  <title>Asset 1</title>
  <g id="Layer_2" data-name="Layer 2">
    <g id="Layer_1-2" data-name="Layer 1">
      <g>
        <g>
          <path class="cls-1" d="M93.65,103.53c1-.92,2.08-1.87,3.09-2.84.51-.49,1-1,1.5-1.48s1.17-1,1.23-1.69c.1-1.29-1.72-1.9-2.68-2.3a5.25,5.25,0,0,1-2.25-1.37l-.35,1.37a.47.47,0,0,1-.45-.06c.93.88,2.35-.53,1.41-1.42a1.6,1.6,0,0,0-2-.24,1,1,0,0,0-.36,1.36,5.79,5.79,0,0,0,2.48,1.89c.48.2.89.36,1.32.56a3.62,3.62,0,0,1,1.13.69l-.26-.44,0,.1v-.54c.14-.17.14-.18,0,0l-.11.11-.34.35-.69.69L95,99.56c-.91.87-1.84,1.72-2.79,2.56a1,1,0,1,0,1.41,1.41Z"/>
          <path class="cls-1" d="M10.37,91.54A21.23,21.23,0,0,0,7.67,93c-.44.28-.86.58-1.27.89A4.2,4.2,0,0,0,5.14,95c-.4.71,0,1.36.51,1.87s.78.81,1.18,1.2c.79.8,1.6,1.57,2.43,2.33A1,1,0,1,0,10.67,99c-.69-.63-1.36-1.27-2-1.93-.32-.31-.63-.62-.94-.94l-.49-.5L7,95.34l-.1-.1c0,.07,0,.05,0-.06l.14.51c-.22.35-.27.47-.13.35L7,95.92l.21-.16.52-.39c.38-.27.78-.54,1.18-.79a20.2,20.2,0,0,1,2.48-1.31,1,1,0,0,0,.36-1.37,1,1,0,0,0-1.37-.36Z"/>
          <path class="cls-1" d="M5.78,96.8c5.67,1.55,11.59,1.55,17.42,1.49l18.21-.19c12.17-.12,24.35-.4,36.52-.29A201.8,201.8,0,0,1,98.35,98.9c.59.06.94-.52,1-1A1.69,1.69,0,0,0,97.68,96a1,1,0,0,0,0,2c-.23-.38-.34-.42-.33-.13l1-1c-12-1.33-24.07-1.14-36.11-1l-36.43.37c-6.51.07-13.15.34-19.5-1.39a1,1,0,0,0-.53,1.93Z"/>
        </g>
        <g>
          <path class="cls-1" d="M49.08,48.14c.46-1.36,1-2.7,1.56-4,.3-.65.61-1.29.93-1.93.16-.32.33-.64.5-1l.26-.47.15-.27c.13-.18.05-.14-.23.12h-.53c-.13,0-.25-.26-.07,0,.08.15.17.29.26.43l.43.71,1,1.64,1.94,3.2a1,1,0,0,0,1.72,0l.4-.88A1,1,0,0,0,57,44.4a1,1,0,0,0-1.37.36l-.4.88H57l-2.58-4.27c-.39-.65-.76-1.33-1.19-2a1.37,1.37,0,0,0-2.35-.09,15.14,15.14,0,0,0-1.06,1.94c-.33.63-.63,1.28-.93,1.94-.65,1.44-1.22,2.91-1.73,4.41a1,1,0,1,0,1.93.53Z"/>
          <path class="cls-1" d="M48.51,106.16A28.29,28.29,0,0,0,50,109.29c.26.44.53.88.82,1.3A4.09,4.09,0,0,0,52,112a1.25,1.25,0,0,0,1.23,0,2.47,2.47,0,0,0,.64-.69c.35-.45.68-.91,1-1.36.7-1,1.37-1.92,2-2.91a1,1,0,0,0-.35-1.36,1,1,0,0,0-1.37.35c-.52.79-1.06,1.57-1.61,2.35l-.81,1.12-.41.55-.23.3,0,0c-.09.09-.08.09,0,0l.5-.14c.31,0,.55.35.39.11l-.21-.29-.4-.58c-.27-.42-.53-.84-.77-1.27a22.29,22.29,0,0,1-1.25-2.49,1,1,0,0,0-1.23-.7,1,1,0,0,0-.69,1.23Z"/>
          <path class="cls-1" d="M50.92,39.87q-.22,13.79-.18,27.57t.34,27.45q.16,7.8.42,15.59c0,1.29,2,1.29,2,0q-.45-13.77-.63-27.57t-.12-27.44q0-7.8.17-15.6a1,1,0,0,0-2,0Z"/>
        </g>
        <g>
          <path class="cls-2" d="M3.26,44.8A74,74,0,0,0,9.78,68.26,55.36,55.36,0,0,0,30.1,91.57a44.08,44.08,0,0,0,8.69,4.13,50.91,50.91,0,0,0,8.88,2.08,33.89,33.89,0,0,0,6.52.37,33.14,33.14,0,0,0,9.73-1.69c5.18-1.85,9.76-5.21,13.79-8.88A64,64,0,0,0,86.91,77a94.06,94.06,0,0,0,13.24-28.72c.22-.75.42-1.51.62-2.27a1,1,0,0,0-1.93-.54A96.9,96.9,0,0,1,88,71.76c-5.11,8.38-12,16.24-20.69,21a30.35,30.35,0,0,1-15.61,3.42A42.1,42.1,0,0,1,44,95.09a40.55,40.55,0,0,1-9.33-3.27,45.81,45.81,0,0,1-11.89-8.64,55.21,55.21,0,0,1-9.43-12.33A65.72,65.72,0,0,1,7.53,56.44q-.83-3-1.41-6c-.16-.81-.3-1.63-.43-2.45-.06-.33-.11-.67-.16-1l-.06-.42,0-.25c0,.27,0,0,0-.08-.06-.47-.12-.95-.17-1.43a1,1,0,0,0-1-1,1,1,0,0,0-1,1Z"/>
          <path class="cls-2" d="M8.45,47.32a26.1,26.1,0,0,0-2.12-2.69c-.36-.4-.74-.79-1.12-1.17A4.4,4.4,0,0,0,3.9,42.41c-.81-.3-1.38.21-1.7.9-.25.54-.5,1.07-.73,1.6C1,46,.5,47.16.05,48.29a1,1,0,0,0,.7,1.23A1,1,0,0,0,2,48.83c.33-.84.66-1.64,1-2.44.18-.43.37-.85.56-1.27l.27-.57c.05-.11.1-.23.16-.34L4,44.1c.15-.25,0-.18-.51.22L3,44.18c.1,0,.1,0,0,0l.13.11.25.24L4,45c.34.34.68.69,1,1.05a22.22,22.22,0,0,1,1.76,2.24,1,1,0,0,0,1.37.36,1,1,0,0,0,.36-1.37Z"/>
          <path class="cls-2" d="M103.06,49.88a24.67,24.67,0,0,0-1-3.11c-.21-.51-.43-1-.66-1.51a4.64,4.64,0,0,0-.85-1.44,1.2,1.2,0,0,0-1.23-.25,2.29,2.29,0,0,0-.82.6c-.39.39-.78.79-1.16,1.19-.8.82-1.58,1.67-2.34,2.53a1,1,0,0,0,0,1.42,1,1,0,0,0,1.41,0c.62-.7,1.24-1.38,1.88-2.05.31-.33.62-.65.94-1,.15-.17.31-.33.47-.48l.26-.26.09-.09c.19-.16.09-.15-.28,0l-.5-.13c-.18-.23-.22-.27-.13-.12l.09.15a3,3,0,0,0,.16.31l.33.68c.2.43.36.79.52,1.2a23.41,23.41,0,0,1,.93,2.83,1,1,0,0,0,1.23.7,1,1,0,0,0,.7-1.23Z"/>
        </g>
        <g>
          <path class="cls-3" d="M19.89,30.14a34.74,34.74,0,0,1,.24-13.44A15.21,15.21,0,0,1,22.21,11c1.06-1.5,3.1-2.65,4.91-1.76s2.46,2.94,3,4.63c.2.61,1.17.35,1-.27a9.77,9.77,0,0,0-2.76-4.75,4.47,4.47,0,0,0-5.31,0c-1.86,1.24-2.74,3.38-3.34,5.45a35.81,35.81,0,0,0-1.28,7.48,36.25,36.25,0,0,0,.5,8.64c.12.63,1.08.36,1-.27Z"/>
          <path class="cls-3" d="M15.26,21.56a102.46,102.46,0,0,0,12-.26c.64-.06.64-1.06,0-1a102.46,102.46,0,0,1-12,.26c-.65,0-.65,1,0,1Z"/>
          <path class="cls-3" d="M37.52,9.24A35.28,35.28,0,0,0,33.2,19.41a33.84,33.84,0,0,0-.89,5.48,8.14,8.14,0,0,0,.9,5,4.34,4.34,0,0,0,4.29,2.14c.64-.11.37-1.07-.26-1-2.07.33-3.51-1.7-3.85-3.49a17.14,17.14,0,0,1,.42-6.29A34,34,0,0,1,38.39,9.75c.34-.55-.52-1.05-.87-.51Z"/>
          <path class="cls-3" d="M40.1,16.33l7.83,9.81c.4.5,1.1-.21.71-.71l-7.83-9.8c-.4-.51-1.1.2-.71.7Z"/>
          <path class="cls-3" d="M45.72,14.31,39.4,28.05c-.26.59.6,1.09.87.51l6.32-13.75c.26-.58-.6-1.09-.87-.5Z"/>
          <path class="cls-3" d="M48.3,9.47a22.38,22.38,0,0,1,2.94,13c-.31,3.91-1.67,8.51-5.42,10.43-.57.29-.07,1.16.51.86,3-1.52,4.59-4.66,5.36-7.78A23.26,23.26,0,0,0,49.17,9a.5.5,0,0,0-.87.5Z"/>
          <path class="cls-3" d="M58.44,19.46a5.7,5.7,0,0,1,6.91,1c.44.47,1.15-.24.71-.71a6.72,6.72,0,0,0-8.12-1.17.5.5,0,0,0,.5.86Z"/>
          <path class="cls-3" d="M56.85,24.47a19.42,19.42,0,0,1,8.85-.92c.64.08.63-.92,0-1a20,20,0,0,0-9.12,1c-.6.21-.34,1.17.27,1Z"/>
          <path class="cls-3" d="M69.74,16.09A140,140,0,0,0,80.87,29.63c.44.47,1.15-.24.71-.71a137.44,137.44,0,0,1-11-13.34c-.37-.52-1.24,0-.86.51Z"/>
          <path class="cls-3" d="M78.9,13.82l-8,17c-.23.49.38,1.06.79.61l.67-.74c.44-.48-.27-1.18-.7-.71l-.68.74.79.61,8-17c.28-.58-.59-1.08-.86-.5Z"/>
          <path class="cls-3" d="M83.05,7.29a2.58,2.58,0,0,1,2.86,1,3.52,3.52,0,0,1,.34,3.45c-1,2.66-3.79,3.95-6,5.37a.5.5,0,0,0,.12.91,33.78,33.78,0,0,0,10,.78c.64-.05.65-1.05,0-1a32.93,32.93,0,0,1-9.7-.74l.12.91c2.67-1.69,6.1-3.38,6.72-6.84a4.19,4.19,0,0,0-1.1-3.83,3.47,3.47,0,0,0-3.57-1c-.6.22-.34,1.19.27,1Z"/>
        </g>
      </g>
      <g>
        <g>
          <path class="cls-1" d="M217.41,107.17c1-.93,2.07-1.88,3.08-2.85.51-.48,1-1,1.5-1.47s1.18-1,1.23-1.7c.11-1.29-1.71-1.9-2.68-2.3a5.23,5.23,0,0,1-2.24-1.36l-.36,1.36a.47.47,0,0,1-.45-.06c.93.88,2.35-.53,1.41-1.41a1.6,1.6,0,0,0-2-.25,1,1,0,0,0-.36,1.37,5.83,5.83,0,0,0,2.48,1.88c.48.21.89.36,1.33.56a3.68,3.68,0,0,1,1.12.69l-.26-.44,0,.1v-.53c.13-.18.13-.18,0,0l-.11.11-.34.35-.69.69-1.33,1.3c-.92.87-1.85,1.72-2.8,2.56a1,1,0,1,0,1.42,1.42Z"/>
          <path class="cls-1" d="M134.12,95.17a21.23,21.23,0,0,0-2.7,1.45c-.43.28-.86.58-1.27.89a4,4,0,0,0-1.25,1.11c-.41.71,0,1.36.5,1.87s.78.81,1.18,1.2c.79.8,1.6,1.57,2.43,2.33a1,1,0,0,0,1.41-1.42c-.69-.63-1.36-1.27-2-1.92l-.94-1-.49-.5-.24-.26-.1-.1c0,.07,0,0,0-.06l.13.51c-.22.35-.26.47-.13.35l.13-.11.21-.17.52-.39c.38-.27.78-.54,1.18-.79a21.76,21.76,0,0,1,2.48-1.31,1,1,0,0,0,.36-1.37,1,1,0,0,0-1.37-.36Z"/>
          <path class="cls-1" d="M129.53,100.43c5.68,1.55,11.59,1.55,17.43,1.49l18.2-.19c12.17-.12,24.35-.39,36.52-.28a201.79,201.79,0,0,1,20.42,1.08c.59.06.94-.52,1-1a1.69,1.69,0,0,0-1.67-1.87,1,1,0,0,0,0,2c-.23-.38-.33-.42-.33-.13l1-1c-12-1.33-24.07-1.13-36.11-1l-36.43.37c-6.51.07-13.15.34-19.5-1.38a1,1,0,0,0-.53,1.92Z"/>
        </g>
        <g>
          <path class="cls-1" d="M172.83,51.77c.46-1.36,1-2.7,1.56-4,.3-.66.61-1.3.93-1.94.17-.32.33-.64.5-.95l.26-.47.15-.26c.13-.19.05-.15-.23.11h-.53c-.13,0-.25-.26-.07,0s.17.29.26.43l.43.71,1,1.64,1.94,3.2a1,1,0,0,0,1.73,0l.4-.88a1,1,0,0,0-.36-1.37,1,1,0,0,0-1.37.36l-.4.88h1.73L178.16,45c-.39-.65-.76-1.33-1.19-2a1.37,1.37,0,0,0-2.35-.1,15.14,15.14,0,0,0-1.06,1.94c-.32.64-.63,1.28-.93,1.94q-1,2.16-1.73,4.41a1,1,0,0,0,1.93.53Z"/>
          <path class="cls-1" d="M172.26,109.79a28.29,28.29,0,0,0,1.53,3.13c.26.44.53.88.82,1.3a4.2,4.2,0,0,0,1.16,1.41,1.23,1.23,0,0,0,1.23,0,2.35,2.35,0,0,0,.64-.69c.35-.45.68-.9,1-1.36.69-.95,1.36-1.92,2-2.9a1,1,0,0,0-1.73-1c-.52.79-1.06,1.57-1.61,2.34-.26.37-.54.75-.81,1.12l-.41.55-.23.3,0,0c-.08.08-.08.08,0,0l.5-.13c.31,0,.55.34.39.1l-.21-.29-.39-.58c-.28-.42-.53-.84-.78-1.27a24,24,0,0,1-1.24-2.49,1,1,0,0,0-1.23-.7,1,1,0,0,0-.7,1.23Z"/>
          <path class="cls-1" d="M174.67,43.5q-.22,13.78-.18,27.57t.34,27.45q.16,7.8.42,15.6c0,1.28,2,1.28,2,0q-.45-13.78-.63-27.57T176.5,59.1q0-7.8.17-15.6a1,1,0,0,0-2,0Z"/>
        </g>
        <g>
          <path class="cls-2" d="M139.41,50.43a65,65,0,0,0,2.43,23.51,48.38,48.38,0,0,0,7.08,14.3,33.37,33.37,0,0,0,9.78,9.45,27.83,27.83,0,0,0,15.94,3.67l.61,0,.32,0c-.16,0-.1,0,0,0,.5,0,1,.07,1.5.07,1.13,0,2.26,0,3.38-.14a31.58,31.58,0,0,0,13-4,26.36,26.36,0,0,0,5.64-4A30.83,30.83,0,0,0,205,84.7c4.7-9.38,6.94-20,8.09-30.34.18-1.56.32-3.12.44-4.68.1-1.28-1.9-1.27-2,0-.8,10.55-2.72,21.36-6.92,31.13a39,39,0,0,1-5.37,9.32,25.42,25.42,0,0,1-9.48,6.68l-.41.19c-.07,0-.47.19-.16.06l-.66.26a31.35,31.35,0,0,1-11.55,2H176c.2,0,0,0,0,0a8.28,8.28,0,0,0-1.49.05,26.12,26.12,0,0,1-3.19,0,25.66,25.66,0,0,1-8.25-1.78,27,27,0,0,1-11.11-8.67,46.52,46.52,0,0,1-7.18-12.61,61.19,61.19,0,0,1-3.45-24.22c0-.56.06-1.12.1-1.68.09-1.28-1.91-1.28-2,0Z"/>
          <path class="cls-2" d="M145.2,52a26.18,26.18,0,0,0-2.11-2.68c-.37-.41-.74-.8-1.13-1.18A4.4,4.4,0,0,0,140.65,47c-.81-.3-1.38.22-1.7.91-.25.53-.49,1.06-.73,1.6-.5,1.11-1,2.24-1.42,3.38a1,1,0,0,0,.7,1.23,1,1,0,0,0,1.23-.7c.33-.83.66-1.63,1-2.44.19-.43.37-.85.57-1.27.08-.19.17-.38.26-.57s.11-.22.16-.34l.05-.11c.15-.25,0-.18-.51.22l-.51-.13c.1,0,.11,0,0,0l.13.12.26.23.54.52c.34.34.68.69,1,1A23.06,23.06,0,0,1,143.47,53a1,1,0,0,0,1.37.36A1,1,0,0,0,145.2,52Z"/>
          <path class="cls-2" d="M216.81,53.51a25.22,25.22,0,0,0-1-3.11c-.2-.5-.42-1-.66-1.51a5,5,0,0,0-.84-1.44A1.23,1.23,0,0,0,213,47.2a2.06,2.06,0,0,0-.82.61c-.4.39-.78.78-1.17,1.18-.8.83-1.58,1.67-2.34,2.53a1,1,0,0,0,1.42,1.42c.61-.69,1.23-1.38,1.87-2,.31-.33.62-.65.94-1l.47-.48.26-.26.09-.09c.19-.16.1-.15-.27,0L213,49q-.27-.35-.12-.12c0,.05,0,.1.08.16l.16.3.33.68a12.11,12.11,0,0,1,.52,1.2,23,23,0,0,1,.93,2.84,1,1,0,0,0,1.93-.54Z"/>
        </g>
        <g>
          <path class="cls-3" d="M145,30.26a58.25,58.25,0,0,1-.05-11.66,22.2,22.2,0,0,1,1.42-5.55,16.71,16.71,0,0,1,1.34-2.59c.51-.81,1.15-1.68,2.21-1.68,2.4,0,3.13,2.88,3.55,4.72.14.63,1.1.37,1-.26-.44-1.94-1-4.15-3-5.09A3.17,3.17,0,0,0,148.86,8a4.8,4.8,0,0,0-2.16,2.16c-2.3,3.74-3,8.19-3,12.51,0,2.54.13,5.08.32,7.62.05.63,1.05.64,1,0Z"/>
          <path class="cls-3" d="M140.56,20.14a29.25,29.25,0,0,1,14-.1c.62.15.89-.81.26-1a30.18,30.18,0,0,0-14.51.1.5.5,0,0,0,.27,1Z"/>
          <path class="cls-3" d="M161.2,9.86A31.62,31.62,0,0,0,157,22.73c-.2,2-.46,4.37.52,6.21.81,1.51,2.82,2.47,4.39,1.49.54-.34,0-1.21-.51-.86a2,2,0,0,1-2.22-.21A3.42,3.42,0,0,1,157.92,27a18.82,18.82,0,0,1,.22-5.7,30.83,30.83,0,0,1,3.92-11,.5.5,0,0,0-.86-.5Z"/>
          <path class="cls-3" d="M164.57,16a79.37,79.37,0,0,0,8.51,14c.39.51,1.26,0,.87-.5a79.78,79.78,0,0,1-8.52-14c-.28-.59-1.14-.08-.86.5Z"/>
          <path class="cls-3" d="M172.57,13.67l-8.94,16c-.31.56.55,1.07.86.51l8.94-16c.31-.56-.55-1.07-.86-.5Z"/>
          <path class="cls-3" d="M176.88,8.51c2.39,3.44,3.37,7.66,3.87,11.77a10.69,10.69,0,0,1-.59,6.18,4.74,4.74,0,0,1-4.32,2.8c-.64,0-.64,1,0,1,3.31.19,5.55-2.91,6-5.88a19.23,19.23,0,0,0-.26-5.56,35.3,35.3,0,0,0-1.17-5.28A20.11,20.11,0,0,0,177.74,8c-.36-.53-1.23,0-.86.5Z"/>
          <path class="cls-3" d="M188.32,17.36a5.43,5.43,0,0,1,5.59,1.08c.47.44,1.18-.26.71-.71a6.45,6.45,0,0,0-6.56-1.34.51.51,0,0,0-.35.62.5.5,0,0,0,.61.35Z"/>
          <path class="cls-3" d="M188.13,22.12a21.46,21.46,0,0,1,5.88.29c.63.13.9-.84.27-1a22.26,22.26,0,0,0-6.15-.33c-.63.06-.64,1.06,0,1Z"/>
          <path class="cls-3" d="M199.74,10.9a209.92,209.92,0,0,0,11.81,18.17c.37.52,1.24,0,.86-.5A210.91,210.91,0,0,1,200.6,10.39a.5.5,0,0,0-.86.51Z"/>
          <path class="cls-3" d="M211.39,7.1l-6.83,13.07-3.35,6.42a13.63,13.63,0,0,0-.92,1.78.66.66,0,0,0,.22.79,1.1,1.1,0,0,0,1.63-.29.5.5,0,0,0-.86-.51c0,.06-.09.06-.13,0v.5l11.1-21.26c.3-.57-.57-1.08-.86-.51Z"/>
          <path class="cls-3" d="M217.76,1.8,216,6.28c-.36.9-1.47,2.81.14,3.16a4.88,4.88,0,0,0,1.82-.16l2.25-.39,4.68-.8c.63-.11.36-1.07-.27-1l-3.9.66c-1.29.23-2.59.51-3.89.67-.11,0-.48.08-.56,0s.17-.59.23-.73l.73-1.83,1.54-3.81c.24-.6-.73-.86-1-.27Z"/>
          <path class="cls-3" d="M222.38.34a54.56,54.56,0,0,0-3,16.24.5.5,0,0,0,1,0,53,53,0,0,1,3-16c.21-.61-.76-.87-1-.27Z"/>
        </g>
      </g>
      <g>
        <g>
          <path class="cls-1" d="M340,107.87c1.05-.92,2.08-1.87,3.09-2.84.51-.49,1-1,1.5-1.48s1.17-1,1.23-1.69c.1-1.29-1.72-1.9-2.68-2.3a5.25,5.25,0,0,1-2.25-1.37l-.35,1.37a.47.47,0,0,1-.45-.06c.93.88,2.35-.53,1.41-1.42a1.61,1.61,0,0,0-2-.25,1,1,0,0,0-.36,1.37,5.79,5.79,0,0,0,2.48,1.89c.48.2.89.36,1.32.56a3.62,3.62,0,0,1,1.13.69l-.26-.44,0,.09v-.53c.14-.17.14-.18,0,0l-.11.12-.35.35-.68.69c-.44.43-.89.87-1.34,1.29-.91.88-1.84,1.73-2.79,2.57a1,1,0,0,0,1.41,1.41Z"/>
          <path class="cls-1" d="M256.74,95.88a21.23,21.23,0,0,0-2.7,1.45c-.44.28-.86.57-1.28.88a4.47,4.47,0,0,0-1.25,1.12c-.4.71,0,1.36.51,1.87l1.18,1.2c.79.79,1.6,1.57,2.43,2.32a1,1,0,1,0,1.41-1.41c-.69-.63-1.37-1.27-2-1.93-.32-.31-.63-.62-.94-.94l-.49-.51-.24-.25-.1-.1c0,.07,0,0,0-.06l.14.5c-.22.36-.27.48-.13.35l.13-.11.21-.16.52-.39c.38-.28.77-.54,1.18-.79a20.2,20.2,0,0,1,2.48-1.31,1,1,0,0,0,.36-1.37,1,1,0,0,0-1.37-.36Z"/>
          <path class="cls-1" d="M252.15,101.14c5.67,1.54,11.59,1.55,17.42,1.49l18.21-.19c12.17-.12,24.35-.4,36.52-.29a201.8,201.8,0,0,1,20.42,1.09c.58.06.94-.52,1-1a1.7,1.7,0,0,0-1.67-1.88,1,1,0,0,0,0,2q-.35-.56-.33-.12l1-1c-12-1.34-24.07-1.14-36.11-1l-36.43.37c-6.51.07-13.16.34-19.5-1.39a1,1,0,0,0-.53,1.93Z"/>
        </g>
        <g>
          <path class="cls-1" d="M295.45,52.48c.46-1.36,1-2.7,1.56-4,.29-.65.6-1.3.93-1.93.16-.32.33-.64.5-.95s.17-.32.26-.47l.15-.27c.12-.18,0-.14-.23.12h-.53c-.13,0-.25-.26-.07,0l.26.43.43.71,1,1.63,1.94,3.2a1,1,0,0,0,1.72,0l.4-.87a1,1,0,0,0-.36-1.37,1,1,0,0,0-1.36.36l-.4.87h1.72l-2.58-4.26c-.39-.65-.76-1.33-1.19-2a1.37,1.37,0,0,0-2.35-.09,15.72,15.72,0,0,0-1.06,1.93c-.33.64-.64,1.29-.93,1.94C294.6,49,294,50.45,293.52,52a1,1,0,0,0,1.93.53Z"/>
          <path class="cls-1" d="M294.87,110.5a28.37,28.37,0,0,0,1.54,3.13c.26.44.53.88.82,1.3a4.18,4.18,0,0,0,1.15,1.41,1.25,1.25,0,0,0,1.24,0,2.44,2.44,0,0,0,.64-.68l1-1.36c.7-1,1.36-1.93,2-2.91a1,1,0,1,0-1.72-1c-.53.79-1.06,1.57-1.61,2.34l-.81,1.12-.42.56-.22.3,0,0h0l.5-.14c.31,0,.55.34.39.11l-.21-.29-.4-.58c-.27-.42-.53-.84-.77-1.27A23.18,23.18,0,0,1,296.8,110a1,1,0,0,0-1.23-.7,1,1,0,0,0-.7,1.23Z"/>
          <path class="cls-1" d="M297.29,44.21q-.23,13.78-.18,27.57t.34,27.45q.17,7.8.42,15.59c0,1.29,2,1.29,2,0q-.45-13.78-.63-27.57t-.12-27.45q0-7.78.17-15.59a1,1,0,0,0-2,0Z"/>
        </g>
        <g>
          <path class="cls-2" d="M267.83,46.93A117.86,117.86,0,0,0,271,78.52a62.86,62.86,0,0,0,4.1,12.5,18.59,18.59,0,0,0,4.06,5.67,17.13,17.13,0,0,0,7.13,3.89,21.57,21.57,0,0,0,6.88.68c1-.06,2.12.08,3.17.11,1.34,0,2.69.08,4,.08,3,0,5.95,0,8.92-.16a38.84,38.84,0,0,0,6.37-.63,14.62,14.62,0,0,0,9.84-7.79,62.15,62.15,0,0,0,4.27-11.26A183.31,183.31,0,0,0,336,52.86c.22-1.6.43-3.2.62-4.8a1,1,0,0,0-1-1,1,1,0,0,0-1,1,190.82,190.82,0,0,1-5.93,30.05c-1,3.39-2,6.76-3.3,10.06-1.56,4.07-4,8.37-8.17,10a18,18,0,0,1-4.87,1c-2.47.22-4.95.25-7.43.3-2.84.06-5.68.06-8.53,0-1,0-2.09-.15-3.13-.12a29,29,0,0,1-3,0,15.5,15.5,0,0,1-12.15-6.78c-2.4-3.67-3.59-8.07-4.71-12.26a113,113,0,0,1-3.71-28.7c0-1.53,0-3,.06-4.57,0-1.29-2-1.28-2,0Z"/>
          <path class="cls-2" d="M272.82,49.66A27.54,27.54,0,0,0,270.7,47c-.36-.4-.74-.79-1.12-1.17a4.6,4.6,0,0,0-1.31-1.06c-.81-.29-1.38.22-1.7.91-.25.53-.5,1.07-.73,1.6-.5,1.12-1,2.25-1.42,3.38a1,1,0,0,0,.7,1.23,1,1,0,0,0,1.23-.69c.33-.84.66-1.64,1-2.45.18-.42.37-.84.56-1.26l.27-.57c.05-.11.1-.23.16-.34l0-.11c.15-.26,0-.18-.52.22l-.5-.14c.1,0,.1,0,0,0l.13.11.25.24.55.52c.34.34.67.69,1,1a22.22,22.22,0,0,1,1.76,2.24,1,1,0,0,0,1.37.36,1,1,0,0,0,.36-1.37Z"/>
          <path class="cls-2" d="M339.43,52.22a24.15,24.15,0,0,0-1-3.11c-.21-.51-.43-1-.66-1.51a4.64,4.64,0,0,0-.85-1.44,1.2,1.2,0,0,0-1.23-.25,2.29,2.29,0,0,0-.82.6c-.39.39-.78.79-1.16,1.19-.8.82-1.58,1.67-2.34,2.53a1,1,0,0,0,0,1.42,1,1,0,0,0,1.41,0c.62-.7,1.24-1.38,1.88-2l.94-1,.47-.48c.09-.08.17-.17.26-.26l.09-.08c.19-.16.09-.15-.28,0l-.5-.13c-.18-.23-.22-.27-.13-.12l.09.15c.05.1.1.21.16.31l.33.67c.2.44.36.8.52,1.2a24.15,24.15,0,0,1,.93,2.84,1,1,0,0,0,1.23.7,1,1,0,0,0,.7-1.23Z"/>
        </g>
        <g>
          <path class="cls-3" d="M274.11,30.86a69.57,69.57,0,0,1,.21-12.16q.33-3.11,1-6.17c.29-1.4.92-3.33,2.74-2.84A4.65,4.65,0,0,1,281.2,14c0,.64,1,.64,1,0a5.78,5.78,0,0,0-2.4-4.51c-1.46-1.05-3.43-1.26-4.56.35a6.42,6.42,0,0,0-.89,2.28c-.25,1.15-.44,2.32-.62,3.48a70.35,70.35,0,0,0-.72,7.09,70,70,0,0,0,.1,8.19c.05.64,1.05.64,1,0Z"/>
          <path class="cls-3" d="M270.36,21.37a20.21,20.21,0,0,1,12.14-.43.5.5,0,0,0,.27-1,21.19,21.19,0,0,0-12.68.43c-.6.21-.34,1.17.27,1Z"/>
          <path class="cls-3" d="M289.34,10.61A20.59,20.59,0,0,0,284.16,22a7.71,7.71,0,0,0,1.34,5.7,4.82,4.82,0,0,0,4.72,1.82c.63-.14.36-1.1-.26-1a4,4,0,0,1-4.08-2.06,8,8,0,0,1-.59-5.42,19.94,19.94,0,0,1,4.76-9.77c.42-.48-.28-1.19-.71-.71Z"/>
          <path class="cls-3" d="M291.82,16.36a28.41,28.41,0,0,0,2.95,6A27.61,27.61,0,0,0,296.7,25c.62.74,1.51,1.52,2.54,1.16.6-.21.34-1.18-.27-1-.83.29-1.6-.93-2-1.48a26.27,26.27,0,0,1-1.66-2.4,26.33,26.33,0,0,1-2.49-5.22c-.21-.6-1.18-.34-1,.27Z"/>
          <path class="cls-3" d="M297.21,17.14l-6.76,9.42c-.33.46.42,1.05.78.61l.35-.43c.4-.49-.3-1.2-.71-.7l-.34.42.78.61,6.76-9.42c.38-.52-.49-1-.86-.51Z"/>
          <path class="cls-3" d="M300.75,9.31a16.4,16.4,0,0,1,4,10,16.71,16.71,0,0,1-.6,5.36,15.47,15.47,0,0,1-1,2.55,4.37,4.37,0,0,1-2,2.27l.61.35-.39-1c-.23-.6-1.2-.34-1,.26l.39,1c.09.23.34.46.61.35a6.07,6.07,0,0,0,2.95-3.57,16.81,16.81,0,0,0,1.22-4.52,18,18,0,0,0-1.3-9.26,16.74,16.74,0,0,0-2.86-4.51c-.43-.49-1.13.22-.71.7Z"/>
          <path class="cls-3" d="M310.48,16.75a8.6,8.6,0,0,1,5,.84c.57.29,1.08-.58.5-.86a9.69,9.69,0,0,0-5.73-.94.5.5,0,0,0-.35.61.52.52,0,0,0,.62.35Z"/>
          <path class="cls-3" d="M310,20.85h5.63a.5.5,0,0,0,0-1H310a.5.5,0,0,0,0,1Z"/>
          <path class="cls-3" d="M323,15.43a90.86,90.86,0,0,1,9.09,13.33.5.5,0,0,0,.86-.5,91.12,91.12,0,0,0-9.25-13.53c-.41-.5-1.11.21-.7.7Z"/>
          <path class="cls-3" d="M331.66,12.67l-9,15.31c-.24.41.27,1,.69.69l.74-.55c.51-.38,0-1.25-.51-.86l-.74.54.68.69,9-15.32a.5.5,0,0,0-.86-.5Z"/>
          <path class="cls-3" d="M336.72,5a34.41,34.41,0,0,0-2.15,5.9,27.69,27.69,0,0,0-.62,3,4,4,0,0,0,.26,2.33c.85,1.64,3,1.38,4.19.36a7.52,7.52,0,0,0,1.7-2.1,1.43,1.43,0,0,0-.24-1.95,2.36,2.36,0,0,0-2.27.12,17.23,17.23,0,0,0-3,1.79c-.51.38,0,1.25.5.87a17,17,0,0,1,2.36-1.49c.25-.13,1.87-1,1.91-.24,0,.37-.46.87-.67,1.15a6.15,6.15,0,0,1-.88,1,2,2,0,0,1-2.39.42c-.67-.49-.6-1.49-.5-2.22a24.44,24.44,0,0,1,.59-2.8,31.63,31.63,0,0,1,2-5.66c.27-.58-.59-1.09-.87-.51Z"/>
        </g>
      </g>
      <g>
        <g>
          <path class="cls-1" d="M500.18,108.72q1.57-1.39,3.09-2.85l1.5-1.47c.46-.47,1.17-1,1.22-1.69.11-1.3-1.71-1.9-2.68-2.31A5.19,5.19,0,0,1,501.07,99l-.36,1.37a.52.52,0,0,1-.45-.07c.94.89,2.35-.53,1.42-1.41a1.62,1.62,0,0,0-2-.25,1,1,0,0,0-.36,1.37,5.8,5.8,0,0,0,2.49,1.88c.47.21.88.36,1.32.56a3.76,3.76,0,0,1,1.12.69l-.25-.44,0,.1v-.53c.14-.18.13-.18,0,0l-.11.12-.34.34-.69.69-1.33,1.3c-.92.87-1.85,1.73-2.79,2.56a1,1,0,0,0,1.41,1.42Z"/>
          <path class="cls-1" d="M416.9,96.72a21.42,21.42,0,0,0-2.71,1.46c-.43.27-.86.57-1.27.88a4.32,4.32,0,0,0-1.25,1.12c-.4.7,0,1.35.5,1.86s.79.81,1.18,1.21c.79.79,1.61,1.56,2.43,2.32a1,1,0,1,0,1.42-1.42c-.69-.63-1.37-1.27-2-1.92-.32-.31-.64-.63-.95-1l-.49-.5-.24-.25-.1-.11c.05.07,0,0,0-.06l.14.51c-.23.36-.27.47-.14.35l.14-.11.2-.17.52-.38c.39-.28.78-.54,1.18-.79a20.35,20.35,0,0,1,2.48-1.32,1,1,0,0,0-1-1.73Z"/>
          <path class="cls-1" d="M412.3,102c5.68,1.54,11.59,1.54,17.43,1.48l18.2-.18c12.17-.13,24.35-.4,36.52-.29a202,202,0,0,1,20.43,1.08c.58.07.94-.51,1-1a1.7,1.7,0,0,0-1.68-1.87,1,1,0,0,0,0,2c-.22-.38-.33-.42-.32-.13l1-1c-12-1.33-24.07-1.13-36.11-1l-36.43.38c-6.52.06-13.16.33-19.51-1.39a1,1,0,0,0-.53,1.93Z"/>
        </g>
        <g>
          <path class="cls-1" d="M455.61,53.32a42.41,42.41,0,0,1,1.56-4c.29-.66.6-1.3.93-1.94.16-.32.32-.63.5-1l.25-.47.15-.26c.13-.19.05-.15-.22.11h-.54c-.12,0-.24-.26-.07,0,.09.14.18.28.26.42l.43.71,1,1.64,1.94,3.2a1,1,0,0,0,1.73,0l.4-.88a1,1,0,0,0-.36-1.37,1,1,0,0,0-1.37.36l-.4.88h1.73l-2.59-4.27c-.39-.65-.75-1.33-1.18-1.95a1.37,1.37,0,0,0-2.35-.1,15.91,15.91,0,0,0-1.07,1.94c-.32.64-.63,1.28-.92,1.94a46.33,46.33,0,0,0-1.73,4.41,1,1,0,0,0,.7,1.23,1,1,0,0,0,1.23-.7Z"/>
          <path class="cls-1" d="M455,111.34a25.94,25.94,0,0,0,1.54,3.13c.25.44.53.88.81,1.31a4.3,4.3,0,0,0,1.16,1.41,1.23,1.23,0,0,0,1.23,0,2.52,2.52,0,0,0,.65-.69c.34-.45.68-.9,1-1.36.69-1,1.36-1.92,2-2.9a1,1,0,0,0-1.73-1c-.52.79-1,1.57-1.6,2.34-.27.37-.54.75-.82,1.12l-.41.55-.23.3,0,0c-.08.08-.08.08,0,0l.51-.13c.3,0,.54.34.38.1l-.2-.28-.4-.59q-.41-.61-.78-1.26a25.2,25.2,0,0,1-1.24-2.5,1,1,0,0,0-1.23-.7,1,1,0,0,0-.7,1.23Z"/>
          <path class="cls-1" d="M457.44,45.06q-.21,13.78-.18,27.57t.34,27.44q.16,7.8.42,15.6c0,1.28,2,1.29,2,0q-.43-13.78-.63-27.57t-.11-27.45q0-7.8.16-15.59a1,1,0,0,0-2,0Z"/>
        </g>
        <g>
          <path class="cls-2" d="M416,50.38c1,10.23,3.21,20.5,8.06,29.64,4.41,8.32,11.2,15.49,19.79,19.52a33.45,33.45,0,0,0,13.28,3.28,38.17,38.17,0,0,0,6.46-.28,32.15,32.15,0,0,0,6.54-1.65,42.55,42.55,0,0,0,21.11-17.67c5.46-8.75,8.14-18.91,9.46-29q.24-1.87.42-3.75a1,1,0,0,0-1-1,1,1,0,0,0-1,1c-1,9.79-3.08,19.68-7.69,28.44a42.54,42.54,0,0,1-18.9,18.87,32.3,32.3,0,0,1-25,1.2c-8.4-3.07-15.38-9.41-20-16.94-5.2-8.43-7.82-18.21-9.08-28-.15-1.22-.29-2.43-.41-3.65a1,1,0,0,0-1-1,1,1,0,0,0-1,1Z"/>
          <path class="cls-2" d="M422,53.5a27.32,27.32,0,0,0-2.11-2.68c-.36-.41-.74-.8-1.13-1.17a4.25,4.25,0,0,0-1.3-1.06c-.81-.29-1.38.22-1.71.91-.25.53-.49,1.06-.73,1.6-.5,1.11-1,2.24-1.42,3.38a1,1,0,0,0,.7,1.23,1,1,0,0,0,1.23-.7c.33-.83.66-1.63,1-2.44.19-.42.38-.85.57-1.26.09-.2.17-.39.26-.58a3.54,3.54,0,0,0,.16-.34l.06-.11c.14-.25,0-.18-.52.22l-.5-.13c.09.05.1,0,0,0l.13.12.26.23.54.52c.35.34.68.69,1,1.05a23.18,23.18,0,0,1,1.77,2.24,1,1,0,1,0,1.72-1Z"/>
          <path class="cls-2" d="M503.59,55.07a25.79,25.79,0,0,0-1-3.11c-.21-.51-.43-1-.67-1.52A5,5,0,0,0,501,49a1.23,1.23,0,0,0-1.23-.25,2.06,2.06,0,0,0-.82.61c-.39.39-.78.78-1.16,1.18-.8.83-1.58,1.67-2.34,2.54a1,1,0,0,0,0,1.41,1,1,0,0,0,1.41,0c.61-.69,1.24-1.37,1.87-2.05l.94-1,.48-.48c.08-.09.17-.17.26-.26l.08-.09c.19-.16.1-.15-.27,0l-.51-.14c-.17-.23-.21-.26-.12-.11l.08.15.16.3c.12.23.23.45.33.68.21.43.37.8.53,1.2a25.47,25.47,0,0,1,.93,2.84,1,1,0,0,0,1.93-.53Z"/>
        </g>
        <g>
          <path class="cls-3" d="M418,32.83A26.38,26.38,0,0,1,418.3,22a18.73,18.73,0,0,1,1.77-5,1.61,1.61,0,0,1,2.14-.64,5.35,5.35,0,0,1,2,1.88c.39.51,1.25,0,.87-.51-1.06-1.39-2.6-3.1-4.57-2.39a3.13,3.13,0,0,0-1.68,2,25.89,25.89,0,0,0-1.08,2.94,27.47,27.47,0,0,0-.69,12.9c.11.63,1.07.36,1-.27Z"/>
          <path class="cls-3" d="M413.38,26.36l12-.88c.64-.05.65-1.05,0-1l-12,.88c-.64.05-.64,1.05,0,1Z"/>
          <path class="cls-3" d="M430.56,16.56a32.68,32.68,0,0,0-2.78,10.67,6,6,0,0,0,1,4.41,3,3,0,0,0,3.63.89c.57-.28.07-1.15-.51-.86-1.21.61-2.48-.49-2.87-1.6a9.26,9.26,0,0,1-.06-4.19,31.7,31.7,0,0,1,2.49-8.81c.26-.58-.6-1.09-.86-.51Z"/>
          <path class="cls-3" d="M434.14,22.21l6.08,8.47c.37.52,1.24,0,.86-.5L435,21.7c-.37-.52-1.24,0-.86.51Z"/>
          <path class="cls-3" d="M439.59,20.32l-6.87,12a.5.5,0,0,0,.87.51l6.86-12a.5.5,0,0,0-.86-.51Z"/>
          <path class="cls-3" d="M441.79,17.67a12.9,12.9,0,0,1,.72,14.85c-.36.54.51,1,.86.51A13.92,13.92,0,0,0,442.5,17c-.41-.5-1.11.21-.71.71Z"/>
          <path class="cls-3" d="M450.54,23.33h4.51a.5.5,0,0,0,0-1h-4.51a.5.5,0,0,0,0,1Z"/>
          <path class="cls-3" d="M449.42,26.74a13.85,13.85,0,0,1,4.76.24c.63.14.9-.83.27-1a14.93,14.93,0,0,0-5-.27.51.51,0,0,0-.5.5.5.5,0,0,0,.5.5Z"/>
          <path class="cls-3" d="M460.18,16.58a63.3,63.3,0,0,1,10.7,13.94.5.5,0,0,0,.86-.5,64.12,64.12,0,0,0-10.86-14.15.5.5,0,0,0-.7.71Z"/>
          <path class="cls-3" d="M471.6,14.23a112.19,112.19,0,0,0-11.35,15.86.5.5,0,0,0,.86.5,111.27,111.27,0,0,1,11.2-15.66c.41-.48-.29-1.19-.71-.7Z"/>
          <path class="cls-3" d="M475.48,11.11c1.8-.27,3.89-.74,4.71-2.59A2.41,2.41,0,0,0,478.31,5c-1.74-.09-2.75,2.28-3.17,3.64a6.43,6.43,0,0,0,.43,5.22,5,5,0,0,0,4.71,2.53c.63-.07.64-1.07,0-1a3.89,3.89,0,0,1-3.35-1.37,4.81,4.81,0,0,1-1.12-3.7,6.85,6.85,0,0,1,1.64-3.92,1,1,0,0,1,1.49-.11,1.42,1.42,0,0,1,.42,1.6c-.57,1.69-2.64,2-4.15,2.21-.63.1-.36,1.06.27,1Z"/>
          <path class="cls-3" d="M483.57,6.45A38,38,0,0,0,486,14.79a.5.5,0,0,0,1,0A58.68,58.68,0,0,1,489.44,8c.25-.58-.61-1.09-.86-.5A60.88,60.88,0,0,0,486,14.52h1a38.37,38.37,0,0,1-2.44-8.34c-.11-.63-1.07-.36-1,.27Z"/>
          <path class="cls-3" d="M491.44,12A18.4,18.4,0,0,0,496.3,8.5c.6-.62,1.57-1.45,1.53-2.4a1.52,1.52,0,0,0-1.72-1.29,3.5,3.5,0,0,0-2.17,1.54,8.06,8.06,0,0,0-1.36,2.47,5,5,0,0,0,.85,4.94,4,4,0,0,0,4.78,1.07c.57-.31.06-1.17-.5-.87a2.88,2.88,0,0,1-3.19-.53,3.73,3.73,0,0,1-1.18-3.53,6.48,6.48,0,0,1,2.17-3.76,1.26,1.26,0,0,1,.83-.34c.35,0,.56.27.43.6a3.44,3.44,0,0,1-.71.9c-.26.28-.52.55-.79.81a17.21,17.21,0,0,1-4.33,3.05c-.58.29-.07,1.16.5.87Z"/>
          <path class="cls-3" d="M500.52,7a34.12,34.12,0,0,0-.51,7.88.5.5,0,0,0,1,0,16.82,16.82,0,0,1,1-4.71A16.49,16.49,0,0,1,503,8c.2-.36.41-.72.63-1.07s.43-.69.77-.77c.65-.15.5,1.28.5,1.6,0,.87,0,1.74,0,2.61-.06,1.81-.17,3.62-.34,5.42-.05.64.95.64,1,0,.16-1.7.27-3.41.33-5.11,0-.84,0-1.68.05-2.52a6.46,6.46,0,0,0-.14-2,1.35,1.35,0,0,0-1.07-1,1.79,1.79,0,0,0-1.6.83,14,14,0,0,0-2,3.89,17.32,17.32,0,0,0-1,5h1a33.44,33.44,0,0,1,.47-7.61c.12-.63-.85-.9-1-.27Z"/>
        </g>
      </g>
      <g>
        <line class="cls-4" x1="376.87" y1="61.79" x2="376.49" y2="62.16"/>
        <path class="cls-3" d="M362.73,71.06c3.08-.22,4.65-3.18,5.5-5.81.92-2.81,2.1-7.47-1.49-8.93a2.87,2.87,0,0,0-3.69,1.52,21.93,21.93,0,0,0-2,5.55,18.23,18.23,0,0,0,.63,11.1,13.31,13.31,0,0,0,7.62,7.56c.61.22.87-.75.27-1a11.93,11.93,0,0,1-6.25-5.5,15.58,15.58,0,0,1-1.76-9.12,22.19,22.19,0,0,1,1.1-5.07,22.59,22.59,0,0,1,.92-2.36A3.31,3.31,0,0,1,365,57.2c1.21-.52,2.55.59,3,1.66.61,1.58.07,3.45-.35,5-.65,2.43-1.9,6-4.87,6.19-.64,0-.65,1,0,1Z"/>
        <path class="cls-3" d="M371,61.57a23.66,23.66,0,0,0,15.6-.66c.59-.24.33-1.21-.26-1a22.74,22.74,0,0,1-15.07.67c-.62-.19-.88.77-.27,1Z"/>
        <path class="cls-3" d="M379.73,55.58q-1.07,6.62-2.14,13.22l-1.07,6.61c-.16,1-.37,2-.48,3.06a16.34,16.34,0,0,0,.21,3.27c.06.63,1.06.64,1,0a16.36,16.36,0,0,1-.22-3.2c.12-1.12.36-2.24.54-3.35l1-6.37q1-6.48,2.09-13c.11-.63-.86-.9-1-.27Z"/>
        <path class="cls-3" d="M394,61.29c-7.35.83-12.85,14.08-4.35,17.28a5.15,5.15,0,0,0,5.09-.69c.5-.4-.21-1.11-.71-.71-2.25,1.8-5.7.28-7-2-1.76-3.16-.16-7.27,2-9.83a7.83,7.83,0,0,1,5-3.05c.63-.07.64-1.07,0-1Z"/>
        <path class="cls-3" d="M398.22,79.4h.84a.48.48,0,0,0,.5-.5.46.46,0,0,0-.14-.35.53.53,0,0,0-.36-.15h-.84a.51.51,0,0,0-.35.15.49.49,0,0,0-.15.35.49.49,0,0,0,.15.36.48.48,0,0,0,.35.14Z"/>
      </g>
    </g>
  </g>
</svg>
