<?xml version="1.0" standalone="no"?>
<!DOCTYPE svg PUBLIC "-//W3C//DTD SVG 20010904//EN"
 "http://www.w3.org/TR/2001/REC-SVG-20010904/DTD/svg10.dtd">
<svg version="1.0" xmlns="http://www.w3.org/2000/svg"
 width="400.000000pt" height="356.000000pt" viewBox="0 0 400.000000 356.000000"
 preserveAspectRatio="xMidYMid meet">
<g transform="translate(0.000000,356.000000) scale(0.100000,-0.100000)"
fill="#000000" stroke="none">
<path d="M1299 3443 c-6 -16 -15 -39 -19 -53 -5 -14 -35 -97 -68 -185 -50
-135 -212 -573 -312 -845 -15 -41 -51 -138 -79 -215 -29 -77 -79 -212 -111
-300 -32 -88 -86 -234 -120 -325 -34 -91 -65 -176 -70 -190 -5 -14 -36 -99
-70 -190 -34 -91 -79 -212 -100 -270 -21 -58 -61 -168 -90 -245 -28 -77 -67
-182 -86 -233 -19 -50 -50 -135 -69 -187 -19 -52 -35 -99 -35 -105 0 -7 142
-10 444 -10 l444 0 40 117 c22 65 104 305 182 533 78 228 177 519 220 645 43
127 128 376 190 555 61 179 134 393 163 477 28 84 55 149 58 145 6 -6 46 -120
253 -729 40 -117 75 -215 78 -218 3 -3 198 -4 434 -3 l430 3 -118 320 c-65
176 -139 376 -164 445 -54 145 -65 176 -212 575 -61 165 -128 347 -150 405
l-39 105 -507 3 -506 2 -11 -27z"/>
<path d="M1516 1137 c-44 -127 -81 -238 -84 -245 -3 -10 228 -12 1149 -10
l1154 3 12 35 c6 19 39 116 73 215 34 99 66 192 70 208 l9 27 -1152 0 -1152 0
-79 -233z"/>
<path d="M2470 646 c0 -4 174 -512 185 -538 7 -17 38 -18 461 -18 l453 0 -28
78 c-16 42 -52 140 -81 217 -28 77 -62 167 -75 200 l-23 60 -446 3 c-245 1
-446 0 -446 -2z"/>
</g>
</svg>
