<svg xmlns="http://www.w3.org/2000/svg" viewBox="0 0 242.36 202.18">
  <defs>
    <style>
      .cls-1 {
        fill: #a7a9ac;
      }

      .cls-2 {
        fill: #d1d3d4;
      }

      .cls-3 {
        fill: #231f20;
      }
    </style>
  </defs>
  <title>Asset 1</title>
  <g id="Layer_2" data-name="Layer 2">
    <g id="Layer_1-2" data-name="Layer 1">
      <g>
        <g>
          <path class="cls-1" d="M114.1,12.72,116.58,7l1.19-2.74c.16-.37.31-.74.49-1.09l.17-.29a.12.12,0,0,1-.1.08,1.29,1.29,0,0,0-.28,0c-.11-.05-.11-.05,0,0h0a2.74,2.74,0,0,1,.26.28,7.63,7.63,0,0,1,.62,1.07c.45.83.87,1.67,1.27,2.52q1.22,2.57,2.17,5.25c.34,1,1.74,1.62,2.51.66l.53-.66a1.54,1.54,0,0,0,0-2.12,1.5,1.5,0,0,0-2.12,0l-.53.66,2.5.66A64.2,64.2,0,0,0,122.6,5a30,30,0,0,0-1.55-3A3.91,3.91,0,0,0,118.7.07c-2.68-.58-3.55,2.76-4.34,4.59l-2.85,6.55a1.54,1.54,0,0,0,.53,2,1.52,1.52,0,0,0,2.06-.54Z" transform="translate(-0.01)"/>
          <path class="cls-1" d="M116.42,2.18l1.52,77q.75,38.3,1.51,76.59.42,21.58.85,43.18c0,1.93,3,1.94,3,0q-.75-38.47-1.52-76.95l-1.5-76.61-.86-43.22c0-1.92-3-1.93-3,0Z" transform="translate(-0.01)"/>
          <path class="cls-1" d="M113,191.74l7.74,10c.72.94,2.21.31,2.5-.66a16,16,0,0,1,2.79-5.38c1.29-1.62,3.63-3.18,3.33-5.53a1.56,1.56,0,0,0-1.5-1.5c-.73,0-1.61.69-1.5,1.5s-.48,1.27-1.06,1.88a24.32,24.32,0,0,0-2.14,2.5,19,19,0,0,0-2.81,5.73l2.51-.66-7.74-10a1.51,1.51,0,0,0-2.12,0,1.55,1.55,0,0,0,0,2.13Z" transform="translate(-0.01)"/>
        </g>
        <g>
          <path class="cls-1" d="M7.92,87.78l-4,6.92-2,3.46a17.07,17.07,0,0,0-1.75,3.33,3,3,0,0,0,1,3.46,16.78,16.78,0,0,0,2.84.9,9.37,9.37,0,0,1,4.14,3.59,1.5,1.5,0,1,0,2.59-1.51,12.84,12.84,0,0,0-4.42-4.28,10.63,10.63,0,0,0-2.72-1.07,3.17,3.17,0,0,0-.67-.13c-.31,0-.11-.08-.06,0,.12.35.16-.24.22-.39A26.92,26.92,0,0,1,4.89,99l1.88-3.24,3.74-6.48a1.5,1.5,0,0,0-2.59-1.52Z" transform="translate(-0.01)"/>
          <path class="cls-1" d="M228,113.11l6.6-4.41,3.3-2.21a33.36,33.36,0,0,0,3.13-2.15,3.7,3.7,0,0,0,1.3-3.44,9.47,9.47,0,0,0-1.51-3.33,49.66,49.66,0,0,0-4.12-5.85c-.79-1-1.61-1.89-2.47-2.77q-.66-.67-1.35-1.32L232.2,87l-.31-.28-.16-.13c-.24-.26-.25-.15,0,.31l-.21.76.05-.09-.89.69.08,0h-.8l-.19-.07-.69-.9,0,.08.15-1.16,0,.08a1.54,1.54,0,0,0,.54,2,1.5,1.5,0,0,0,2-.53,1.65,1.65,0,0,0-.56-2.24,1.67,1.67,0,0,0-2.27.52c-.94,1.51.68,2.65,1.65,3.55a40.79,40.79,0,0,1,4.8,5.29c.75,1,1.45,2,2.12,3a14.51,14.51,0,0,1,1.77,3.11c.31,1-.52,1.25-1.26,1.74l-3.51,2.34-8.05,5.38a1.54,1.54,0,0,0-.54,2,1.53,1.53,0,0,0,2.06.54Z" transform="translate(-0.01)"/>
          <path class="cls-1" d="M2.07,103.25c31.13-1,62.28-1.09,93.42-1.14,30.91-.06,61.82-.24,92.73-.11,17.36.07,34.72.33,52.06,1.08,1.93.08,1.92-2.92,0-3C209.22,98.73,178.12,99,147,99s-61.88,0-92.82.26c-17.38.14-34.77.41-52.15,1-1.92.06-1.93,3.06,0,3Z" transform="translate(-0.01)"/>
        </g>
      </g>
      <g id="unit_circle" data-name="unit circle">
        <path class="cls-2" d="M118.51,26.86A65.19,65.19,0,0,1,147.6,33a87.34,87.34,0,0,1,20.81,13.58,61.07,61.07,0,0,1,12.16,14.77c4.16,7.09,7,14.88,9.91,22.53a60,60,0,0,1,3.35,11.81c0,.3.1.59.14.89,0,.1,0-.21,0,.09s0,.3.05.45q.08.6.12,1.2c.1,1.12.21,2.23.27,3.36a54.23,54.23,0,0,1-4.82,25.64,60.72,60.72,0,0,1-6.76,10.87c-2.2,2.89-4.44,5.75-6.8,8.51a67.63,67.63,0,0,1-43.39,23.79,82,82,0,0,1-26.48-1,138.7,138.7,0,0,1-22.26-6.3,57.93,57.93,0,0,1-12.53-6.3A47.31,47.31,0,0,1,63,149.47a61.07,61.07,0,0,1-10.52-16.75c-.92-2.11-1.89-4.73-2.67-7.14-.59-1.79-1.11-3.6-1.61-5.42A82.63,82.63,0,0,1,45,99.56,64,64,0,0,1,60.8,55.15a78.25,78.25,0,0,1,6.57-6.81c1-.91,2-1.78,3-2.64.46-.38.92-.76,1.39-1.13l.64-.51.33-.26c-.23.18,0,0,.12-.08a82.14,82.14,0,0,1,13.56-8.44,81,81,0,0,1,27-7.8,89.24,89.24,0,0,1,9.8-.52,1.5,1.5,0,0,0,0-3,88.12,88.12,0,0,0-23.79,3.18A82.23,82.23,0,0,0,75.15,38.37,86.61,86.61,0,0,0,64.9,46.54,75.94,75.94,0,0,0,51.59,62.8a66.36,66.36,0,0,0-9,25.71,79.31,79.31,0,0,0,.18,21A98,98,0,0,0,47,126.87a75.58,75.58,0,0,0,7.59,16.46,54.07,54.07,0,0,0,15.8,16.53c7.62,5,16.6,7.81,25.33,10.24a103.45,103.45,0,0,0,23.62,4,75.29,75.29,0,0,0,30.16-4.83A69.85,69.85,0,0,0,170.05,157c6-5.2,11-11.52,15.8-17.88A58.13,58.13,0,0,0,192.56,128a56,56,0,0,0,4.27-14.67,60.39,60.39,0,0,0-.14-18.69,63.72,63.72,0,0,0-3.51-12.1c-1.65-4.31-3.29-8.62-5.11-12.85A74,74,0,0,0,175.89,49.8,75.63,75.63,0,0,0,161,37.11a77.4,77.4,0,0,0-27.54-11.92,68.72,68.72,0,0,0-14.94-1.33c-1.93,0-1.94,3,0,3Z" transform="translate(-0.01)"/>
      </g>
      <path class="cls-3" d="M117.61,24.86a1.47,1.47,0,0,1-.83-.42l.13.49a.5.5,0,0,1,.31-.29H117c.29.05.34.48.37.72a2.3,2.3,0,0,1-.1,1.16c-.19.52-.86,1-1.42.67s-.19-1,.18-1.18c.57-.36,1.22.27,1.35.81a1.66,1.66,0,0,1-1.21,1.74l.57.22a2.74,2.74,0,0,1,0-2.89,7.78,7.78,0,0,1,1-1.46c.14-.17.73-1,1-.89s.18.36.2.49a3.49,3.49,0,0,1,0,.79,4.7,4.7,0,0,1-.63,1.76c-.14.23-.66,1.14-1,.84a1.94,1.94,0,0,1-.38-.69,4.69,4.69,0,0,1-.28-.95c-.2-1.11.35-2.61,1.68-2.59l-.5-.5a6.31,6.31,0,0,1-1.4,3.59l.79.11c-.15-.24-.6-.85-.27-1.1.14-.11.44,0,.61,0,.87.43.29,1.79,0,2.42l.61-.35c-.52-.08-1.24-.25-1.49-.79-.1-.21,0-.9.35-.85a.52.52,0,0,0,.61-.35.5.5,0,0,0-.35-.61,1.51,1.51,0,0,0-1.64,1.79c.15,1.08,1.29,1.62,2.26,1.78a.52.52,0,0,0,.61-.35,4.1,4.1,0,0,0,.38-2.38,1.8,1.8,0,0,0-1.25-1.33,1.46,1.46,0,0,0-1.57.41,1.88,1.88,0,0,0,.23,2.17.51.51,0,0,0,.79.1,7.39,7.39,0,0,0,1.69-4.3.5.5,0,0,0-.5-.5,2.93,2.93,0,0,0-2.72,3.23,4.91,4.91,0,0,0,.75,2.39,1.34,1.34,0,0,0,1,.68,1.45,1.45,0,0,0,1.12-.47,5.29,5.29,0,0,0,1.28-2.21,4.16,4.16,0,0,0,.14-2.29,1.21,1.21,0,0,0-1.79-.81,3.25,3.25,0,0,0-.82.75,9.28,9.28,0,0,0-.81,1.06c-.94,1.37-1.6,3.27-.54,4.77a.52.52,0,0,0,.56.23,2.61,2.61,0,0,0,1.86-3.09,1.94,1.94,0,0,0-3.08-1.06,1.66,1.66,0,0,0,.46,2.83,2,2,0,0,0,1.76-.3,2.48,2.48,0,0,0,.94-1.82,2.7,2.7,0,0,0-.55-2.11c-.68-.69-1.55,0-1.83.69a.5.5,0,0,0,.13.49,2.26,2.26,0,0,0,1.26.67.5.5,0,1,0,.27-1Z" transform="translate(-0.01)"/>
      <g>
        <path class="cls-3" d="M109.48,32.68a55.26,55.26,0,0,1-.26-6.17c0-1,.06-2,.12-3l.12-1.45c0-.24.05-.48.07-.72s0-.32,0-.22c.14-.41,0-.26-.58.44h-.8l.12,0a1.55,1.55,0,0,0,1.85-1,1.52,1.52,0,0,0-1.05-1.85c-1.65-.28-2.37,1-2.54,2.41-.15,1.28-.24,2.57-.3,3.86a57.14,57.14,0,0,0,.22,7.74,1.5,1.5,0,0,0,3,0Z" transform="translate(-0.01)"/>
        <path class="cls-3" d="M107.12,13c0,.05,0,.09,0,.13l.15-.35a2,2,0,0,1-.24.4l.23-.3a1.72,1.72,0,0,1-.33.33l.3-.23-.17.12,2.2.89a1.05,1.05,0,0,1,0-.19l.06.4a1,1,0,0,1,0-.24l-.06.4a1,1,0,0,1,.07-.25l-.15.36a.8.8,0,0,1,.13-.22l-.24.3a1.37,1.37,0,0,1,.17-.17l-.3.24a.59.59,0,0,1,.17-.1l-.36.15h0l-1.84-1.85a.78.78,0,0,0,0,.14l.15-.36a1.65,1.65,0,0,1-.22.36l.24-.31a1.88,1.88,0,0,1-.31.32l.3-.24a1.28,1.28,0,0,1-.21.14l2.2.9a.83.83,0,0,1,0-.15l.06.4a.67.67,0,0,1,0-.2l-.06.4c0-.06,0-.12.06-.19l-.15.36a.6.6,0,0,1,.09-.15l-.24.31.09-.1-2.5-.66a1.16,1.16,0,0,1,0,.18l-.05-.39a.67.67,0,0,1,0,.2l.05-.39a1.05,1.05,0,0,1-.06.24l.15-.36a1.48,1.48,0,0,1-.13.21l.24-.3a1.29,1.29,0,0,1-.17.16l.31-.24a.87.87,0,0,1-.18.11l.35-.15-.14,0,1.69.69a.59.59,0,0,0,0-.08l.15.35a.47.47,0,0,1,0-.17l0,.4a.67.67,0,0,1,0-.2l0,.4a.86.86,0,0,1,.06-.23l-.15.36a1.59,1.59,0,0,1,.13-.22l-.23.3a1.37,1.37,0,0,1,.17-.17l-.3.23a.82.82,0,0,1,.2-.12l-.36.15.19-.05-.4.06h.18l-.39-.06h0l-.9-.69,0,.07-.16-.36a.9.9,0,0,1,.06.22l0-.4a1.13,1.13,0,0,1,0,.26l0-.4a.77.77,0,0,1-.08.27l.16-.35a1.58,1.58,0,0,1-.15.24l.24-.3a1.07,1.07,0,0,1-.19.18l.31-.23-.2.11.36-.15-.14,0,1.46.39-.06-.07.23.31a.61.61,0,0,1-.07-.14l.15.36a.42.42,0,0,1,0-.15l0,.4a.61.61,0,0,1,0-.19l-.06.4a1.05,1.05,0,0,1,0-.19l-.15.36a1.19,1.19,0,0,1,.09-.15l-.24.3.11-.11-.3.24.12-.07h-1.52l.07,0-.31-.23a.49.49,0,0,1,.13.12l-.24-.3a.67.67,0,0,1,.09.14l-.15-.35a1.17,1.17,0,0,1,0,.2l0-.4a.6.6,0,0,1,0,.19l.06-.39a1.21,1.21,0,0,1,0,.18l.15-.36-.06.1,2.8.76a2.19,2.19,0,0,1,0-.36l-.06.39a4.37,4.37,0,0,1,.26-.94l-2.74.36h0l-.15-.35a1,1,0,0,1,0,.18l-.06-.4a.38.38,0,0,1,0,.15l.06-.4,0,.1.15-.36a.3.3,0,0,1,0,.08l.23-.31s0,0,0,.05l.31-.24,0,0,.36-.15h-.05l.4,0h0l.39,0h0l.36.15h0l.3.23,0,0,.23.3a.16.16,0,0,1,0-.06l.15.36a.19.19,0,0,1,0-.08l.05.4v-.06l-.05.4s0,0,0,0l-.15.36v0l-.24.31s0,0,0,0l-.31.23h0l-.36.16h0l-.4.05h0l-.4-.06h0l-1-1.05a.29.29,0,0,1,0,.09l0-.39v.15l0-.4a.55.55,0,0,1,0,.17l.16-.36a1.3,1.3,0,0,1-.1.15l.24-.3-.13.12.31-.23-.15.08L107,13l-.13,0,.4,0h-.14l.4,0h0a1.22,1.22,0,0,0-.6,0,1.16,1.16,0,0,0-.56.18,1.12,1.12,0,0,0-.42.39,1.14,1.14,0,0,0-.27.51l-.05.39a1.43,1.43,0,0,0,.21.76l.23.31a1.57,1.57,0,0,0,.66.38,2.09,2.09,0,0,0,.56.06,2.16,2.16,0,0,0,.89-.25l.14-.08a2.49,2.49,0,0,0,.43-.36,2.61,2.61,0,0,0,.31-.43,2.28,2.28,0,0,0,.21-.51,2.09,2.09,0,0,0,.06-.56,3.47,3.47,0,0,0-.06-.45s0,0,0-.05v0a1.26,1.26,0,0,0-.27-.51l-.12-.15a1,1,0,0,0-.48-.31l-.2-.08-.41-.06h0a1.54,1.54,0,0,0-1.11.47l-.24.32h0a2.75,2.75,0,0,0-.15.36.75.75,0,0,0,0,.24,1.33,1.33,0,0,0,0,.68,1.77,1.77,0,0,0,.18.45l0,0a3.24,3.24,0,0,0,.24.31v0h0l.3.24a1.42,1.42,0,0,0,.4.17h0l.41.05a1.69,1.69,0,0,0,.85-.23,2,2,0,0,0,.64-.64,1.85,1.85,0,0,0,.24-.89,2.16,2.16,0,0,0-.26-1.11l-.23-.3-.31-.24-.35-.15a1.11,1.11,0,0,0-.6,0,.72.72,0,0,0-.38.1.69.69,0,0,0-.33.19.87.87,0,0,0-.27.27,1.26,1.26,0,0,0-.27.51,3.63,3.63,0,0,0-.21.66,6.15,6.15,0,0,0-.13,1l0,.4a1.26,1.26,0,0,0,.27.51.87.87,0,0,0,.27.27,1.14,1.14,0,0,0,.51.27l.4.05.4-.05a1.26,1.26,0,0,0,.51-.27,1.18,1.18,0,0,0,.38-.42,2.17,2.17,0,0,0,.31-1,.48.48,0,0,0,0-.17,2.61,2.61,0,0,0-.08-.55,2.72,2.72,0,0,0-.11-.25,1.36,1.36,0,0,0-.11-.25.21.21,0,0,0,0-.06,3.27,3.27,0,0,0-.28-.37l0-.05-.36-.28,0,0-.18-.08a1.27,1.27,0,0,0-.58-.13,1.7,1.7,0,0,0-.76.21l0,0a2,2,0,0,0-.74.72,2.12,2.12,0,0,0-.14.31,1.18,1.18,0,0,0-.12.33,2.42,2.42,0,0,0,0,1.07,2.17,2.17,0,0,0,.51.91l.05.05.3.23.36.16.4,0,.4,0a3.86,3.86,0,0,0,.51-.2,2.52,2.52,0,0,0,.56-.41,2.32,2.32,0,0,0,.43-.56,2.24,2.24,0,0,0,.27-.66,3.07,3.07,0,0,0,.07-.53.48.48,0,0,0,0-.17,3.55,3.55,0,0,0-.06-.47s0,0,0-.08a2.37,2.37,0,0,0-.2-.5.89.89,0,0,0-.13-.18l-.12-.15a1.14,1.14,0,0,0-.48-.31,1.48,1.48,0,0,0-.64-.14h-.16a2.49,2.49,0,0,0-1,.29,2.81,2.81,0,0,0-.44.33.86.86,0,0,0-.14.13,3.5,3.5,0,0,0-.33.43,3.82,3.82,0,0,0-.23.51,1.05,1.05,0,0,0,0,.19,3.55,3.55,0,0,0-.06.47.28.28,0,0,0,0,.09,2.61,2.61,0,0,0,.08.55c0,.09.07.18.1.26a2.06,2.06,0,0,0,.12.26l.23.31a1.21,1.21,0,0,0,.49.31.7.7,0,0,0,.38.1,1.08,1.08,0,0,0,.59,0l.11,0,.43-.18a2.09,2.09,0,0,0,.45-.33,1,1,0,0,0,.15-.14c.1-.11.19-.24.28-.36l.06-.09a3.38,3.38,0,0,0,.22-.52,2.8,2.8,0,0,0,.09-.58.61.61,0,0,0,0-.19,2.43,2.43,0,0,0-.1-.59,1.49,1.49,0,0,0-.39-.66,1.53,1.53,0,0,0-.66-.39,1.55,1.55,0,0,0-.8,0,1.59,1.59,0,0,0-.66.39,1.87,1.87,0,0,0-.37.47,3.43,3.43,0,0,0-.19.44.36.36,0,0,0,0,.11,2.11,2.11,0,0,0,0,1.22,1.57,1.57,0,0,0,.38.66,1.72,1.72,0,0,0,1.06.44,1.45,1.45,0,0,0,.76-.21,3.69,3.69,0,0,0,.55-.4,1.36,1.36,0,0,0,.24-.24,3.15,3.15,0,0,0,.41-.55,5.3,5.3,0,0,0,.28-.65,1.55,1.55,0,0,0,0-.8,1.49,1.49,0,0,0-.39-.66,1.57,1.57,0,0,0-.66-.38,1.55,1.55,0,0,0-.8,0,2.3,2.3,0,0,0-.51.23,3.17,3.17,0,0,0-.36.28l-.07.06a3.75,3.75,0,0,0-.35.44l-.09.17a3,3,0,0,0-.2.52,2.61,2.61,0,0,0-.08.56,2.76,2.76,0,0,0,.06.57,1.33,1.33,0,0,0,0,.19,1.49,1.49,0,0,0,.39.66,1,1,0,0,0,.48.31,1.06,1.06,0,0,0,.58.13,1.5,1.5,0,0,0,.75-.2,4.25,4.25,0,0,0,.57-.43,1.31,1.31,0,0,0,.23-.24,4.46,4.46,0,0,0,.41-.56,4.84,4.84,0,0,0,.28-.66,1.11,1.11,0,0,0,0-.6,1,1,0,0,0-.17-.56,1.31,1.31,0,0,0-.39-.42A1.14,1.14,0,0,0,109,12l-.4-.05a1.48,1.48,0,0,0-.76.21l-.3.23a1.59,1.59,0,0,0-.39.66Z" transform="translate(-0.01)"/>
      </g>
      <path class="cls-3" d="M122.52,173.26l.06-.1-.23.3.07-.07-.3.23.06,0-.36.15.14,0-.4.05h.15l-.4-.06a1.06,1.06,0,0,1,.19.06l-.36-.15a1,1,0,0,1,.23.13l-.31-.24a1.14,1.14,0,0,1,.19.19l-.23-.3a.78.78,0,0,1,.11.18l-.15-.36a1.66,1.66,0,0,1,.06.21L121,173a1.71,1.71,0,0,1,0,.32l0-.4a.72.72,0,0,1-.07.25l.16-.35a1.75,1.75,0,0,1-.18.29l.24-.3a1.44,1.44,0,0,1-.28.27l.31-.23a1.76,1.76,0,0,1-.42.24l.36-.15a2.46,2.46,0,0,1-.51.15l.4-.06a1.62,1.62,0,0,1-.49,0l.4.05a1.64,1.64,0,0,1-.38-.1l.36.15a1.51,1.51,0,0,1-.28-.15l.31.23a1.25,1.25,0,0,1-.23-.23l.23.31a2.07,2.07,0,0,1-.19-.32l.16.36a1.34,1.34,0,0,1-.11-.39l.05.4a1.62,1.62,0,0,1,0-.44l-.05.39a2,2,0,0,1,.14-.53l-.15.36a2.43,2.43,0,0,1,.3-.52l-.23.3a2.11,2.11,0,0,1,.4-.39l-.31.23a2.3,2.3,0,0,1,.4-.23l-.36.15a1.76,1.76,0,0,1,.45-.12l-.4.05h.14l-1.06-.44.06.07-.24-.3a1.27,1.27,0,0,1,.18.29l-.15-.35a1.68,1.68,0,0,1,.09.32l-.06-.4a1.55,1.55,0,0,1,0,.43l0-.4a1.57,1.57,0,0,1-.13.47l.16-.36a2.64,2.64,0,0,1-.27.46l.23-.3a2.19,2.19,0,0,1-.34.34l.3-.24a1.38,1.38,0,0,1-.33.2l.36-.15a1.61,1.61,0,0,1-.36.1l.39,0h-.3l.4,0-.13,0,.9.69,0-.1.15.36a1.88,1.88,0,0,1-.12-.45l0,.4a2.25,2.25,0,0,1,0-.58l0,.4a2.25,2.25,0,0,1,.13-.51l-.15.36a2,2,0,0,1,.23-.4l-.23.3a1.54,1.54,0,0,1,.28-.29l-.3.23a1.51,1.51,0,0,1,.35-.2l-.36.15a1.56,1.56,0,0,1,.37-.1l-.4,0a2.16,2.16,0,0,1,.44,0l-.4-.06a2.52,2.52,0,0,1,.47.13l-.36-.15a1.81,1.81,0,0,1,.33.2l-.3-.24a1.72,1.72,0,0,1,.27.27l-.24-.31a1.22,1.22,0,0,1,.17.29l-.15-.36a1.57,1.57,0,0,1,.08.29l0-.4a1.61,1.61,0,0,1,0,.31l0-.4a1.54,1.54,0,0,1-.1.35l.15-.36a1.92,1.92,0,0,1-.18.31l.24-.3a2.06,2.06,0,0,1-.3.29l.31-.23a1.92,1.92,0,0,1-.31.18l.36-.15-.29.08.4-.06h-.3l.4,0a1.11,1.11,0,0,1-.26-.07l.36.15a1.28,1.28,0,0,1-.25-.15l.3.24a2,2,0,0,1-.29-.29l.23.3a2.14,2.14,0,0,1-.17-.3l.15.36a1.89,1.89,0,0,1-.09-.34l.06.4a1,1,0,0,1,0-.35l0,.4a1.78,1.78,0,0,1,.1-.38l-.15.36a1.7,1.7,0,0,1,.26-.43l-.24.3a2,2,0,0,1,.33-.32l-.31.23a2.22,2.22,0,0,1,.39-.23l-.35.15a1.62,1.62,0,0,1,.43-.12l-.4.05a1.37,1.37,0,0,1,.35,0l-.4-.06a1.68,1.68,0,0,1,.32.09l-.35-.15a1.48,1.48,0,0,1,.34.21l-.3-.24a1.92,1.92,0,0,1,.28.29l-.23-.31a1.88,1.88,0,0,1,.24.44l-.15-.36a2.18,2.18,0,0,1,.14.48l-.06-.39a2,2,0,0,1,0,.54l0-.4a1.59,1.59,0,0,1-.12.44l.15-.36a1.51,1.51,0,0,1-.2.35l.23-.3a1.72,1.72,0,0,1-.27.27l.3-.24a1.72,1.72,0,0,1-.37.22l.36-.16a2.13,2.13,0,0,1-.51.14l.4-.06a2.35,2.35,0,0,1-.53,0l.4.06a2.56,2.56,0,0,1-.56-.15l.35.15a2.07,2.07,0,0,1-.45-.27l.3.24a1.52,1.52,0,0,1-.31-.31l.24.31a1.54,1.54,0,0,1-.23-.39l.15.36a1.89,1.89,0,0,1-.13-.48l0,.4a2,2,0,0,1,0-.6l0,.4a2.46,2.46,0,0,1,.16-.59l-.15.36a2.78,2.78,0,0,1,.3-.53l-.23.31a2.11,2.11,0,0,1,.39-.4l-.31.24a2.1,2.1,0,0,1,.41-.24l-.36.15a2.75,2.75,0,0,1,.49-.14l-.4.05a2.09,2.09,0,0,1,.5,0l-.4-.05a1.67,1.67,0,0,1,.3.08l-.36-.15a1.35,1.35,0,0,1,.29.16l-.3-.23a1.25,1.25,0,0,1,.23.23l-.23-.3a1.56,1.56,0,0,1,.16.28l-.15-.36a2.21,2.21,0,0,1,.12.42l-.06-.4a2.53,2.53,0,0,1,0,.55l0-.4a2.18,2.18,0,0,1-.15.54l.16-.36a1.9,1.9,0,0,1-.26.43l.24-.3a3.2,3.2,0,0,1-.53.51l.3-.23a4.81,4.81,0,0,1-1.09.6l.36-.15c-.27.11-.55.22-.83.31l1.84,1c0-.07,0-.15,0-.22l.06.4a2.57,2.57,0,0,1,0-.62l0,.4a2.86,2.86,0,0,1,.19-.71l-.15.36a3,3,0,0,1,.32-.54l-.24.3a2.62,2.62,0,0,1,.44-.44l-.31.24L122,173h-1.52a1.08,1.08,0,0,1,.26.14l-.3-.23a1.67,1.67,0,0,1,.23.23l-.23-.3a2.46,2.46,0,0,1,.19.32l-.16-.36a2.13,2.13,0,0,1,.13.45l-.06-.4a1.85,1.85,0,0,1,0,.47l.06-.4a1.82,1.82,0,0,1-.11.4l.15-.36a1.74,1.74,0,0,1-.18.33l.23-.31a1.25,1.25,0,0,1-.23.23l.3-.23a1.1,1.1,0,0,1-.26.15l.36-.16a.9.9,0,0,1-.27.07l.4-.05a1.82,1.82,0,0,1-.33,0l.4.05a1.61,1.61,0,0,1-.36-.1l.36.15a1.65,1.65,0,0,1-.36-.22l.3.23a2.13,2.13,0,0,1-.3-.3l.23.3a1.62,1.62,0,0,1-.21-.36l.15.35a1.4,1.4,0,0,1-.1-.35l.06.4a1.31,1.31,0,0,1,0-.28l-.06.4a1.38,1.38,0,0,1,.08-.27l-.16.36,0-.05a1.59,1.59,0,0,0,.15-1.15,1.49,1.49,0,0,0-.69-.9,1.53,1.53,0,0,0-2,.54,2.37,2.37,0,0,0,.08,2.59,2.88,2.88,0,0,0,2.29,1.3,2.3,2.3,0,0,0,2.25-1.74,2.76,2.76,0,0,0-.79-2.52,2.46,2.46,0,0,0-3-.46,1.59,1.59,0,0,0-.69.9,1.56,1.56,0,0,0,.15,1.16,1.53,1.53,0,0,0,2.06.53l.1,0-.35.15.22-.07-.4.06h.19l-.4-.06a1.12,1.12,0,0,1,.26.08l-.36-.16a1.24,1.24,0,0,1,.27.17l-.3-.24a1.66,1.66,0,0,1,.26.27l-.24-.31a1.5,1.5,0,0,1,.19.32l-.15-.36a1.09,1.09,0,0,1,.08.31l0-.4a.88.88,0,0,1,0,.23l0-.4a1,1,0,0,1-.06.22l.16-.36a.86.86,0,0,1-.1.16l.23-.3a.71.71,0,0,1-.15.15l.31-.24-.17.11.36-.16-.22.06.4-.05a1.76,1.76,0,0,1-.23,0l.4.05a1.58,1.58,0,0,1-.31-.09l.36.15a1.56,1.56,0,0,1-.28-.16l.31.23a1.64,1.64,0,0,1-.3-.29l.24.31a1.56,1.56,0,0,1-.16-.28l.15.36a1.11,1.11,0,0,1-.07-.26l.06.4a.61.61,0,0,1,0-.19l-.06.4a.79.79,0,0,1,.06-.22l-.15.36.08-.15-2.59-1.51a3.16,3.16,0,0,0-.3,1.16,2.5,2.5,0,0,0,.14.9,3.36,3.36,0,0,0,1.22,1.61,2.75,2.75,0,0,0,3.5-.21,3.1,3.1,0,0,0,.76-3.05,3,3,0,0,0-.85-1.39,2.22,2.22,0,0,0-1.15-.58,2,2,0,0,0-1.62.68,4,4,0,0,0-1.16,3.88,1.52,1.52,0,0,0,1.85,1.05,11.2,11.2,0,0,0,1.75-.74,4.65,4.65,0,0,0,1.62-1.43,3.51,3.51,0,0,0,.6-1.86A3,3,0,0,0,124,170a2.88,2.88,0,0,0-2.29-1.25,3.26,3.26,0,0,0-2.14.72,4,4,0,0,0-1.24,1.7,3.29,3.29,0,0,0-.21,1.58,3.87,3.87,0,0,0,.35,1.26,3,3,0,0,0,.54.78,3.41,3.41,0,0,0,1.61.93,3.71,3.71,0,0,0,1.9,0,3.32,3.32,0,0,0,1.78-1.27,3,3,0,0,0,.53-1.73,3.52,3.52,0,0,0-.44-1.77,3,3,0,0,0-1.27-1.25,2.88,2.88,0,0,0-2.23-.19,3.67,3.67,0,0,0-1.77,1.36,2.87,2.87,0,0,0-.5,1.84A2.92,2.92,0,0,0,119,174a3.1,3.1,0,0,0,1,1,2.57,2.57,0,0,0,2.57.11,3.08,3.08,0,0,0,1.48-1.71,2.66,2.66,0,0,0-.22-2.22,3.14,3.14,0,0,0-1.71-1.33,3,3,0,0,0-1.89,0,3.17,3.17,0,0,0-1.73,1.41,3.44,3.44,0,0,0-.45,1.94,3.65,3.65,0,0,0,.27,1.14,1.56,1.56,0,0,0,1,1,4.66,4.66,0,0,0,.64.08,3,3,0,0,0,1.93-.75,3.48,3.48,0,0,0,1-1.47,3.12,3.12,0,0,0,.11-1.79,2.41,2.41,0,0,0-.34-.81,2.34,2.34,0,0,0-.65-.68,1.83,1.83,0,0,0-1.32-.13,3.3,3.3,0,0,0-1.61.84,3.59,3.59,0,0,0-1.09,3.36,3,3,0,0,0,1.2,1.72,2.86,2.86,0,0,0,1.61.47,3.34,3.34,0,0,0,2.87-1.55,2.65,2.65,0,0,0,.29-2,2.51,2.51,0,0,0-1.67-1.68,2.11,2.11,0,0,0-1.17,0,1.84,1.84,0,0,0-1.14.92,1.64,1.64,0,0,0-.15,1.15,1.56,1.56,0,0,0,.69.9,1.52,1.52,0,0,0,1.16.15,1.44,1.44,0,0,0,.89-.69Z" transform="translate(-0.01)"/>
      <path class="cls-3" d="M188.89,73.83l.06-.11-.23.31.07-.08-.3.24.06,0-.36.15a.35.35,0,0,1,.14,0l-.4,0h.15l-.4,0,.19,0-.36-.15a1.71,1.71,0,0,1,.23.13l-.31-.23a1.09,1.09,0,0,1,.19.18l-.23-.3a1.18,1.18,0,0,1,.11.19l-.15-.36a.73.73,0,0,1,.05.2l-.05-.39a1.61,1.61,0,0,1,0,.31l.05-.4a.77.77,0,0,1-.07.26l.15-.36a1.28,1.28,0,0,1-.17.3l.24-.31a1.24,1.24,0,0,1-.28.28l.31-.24a2.22,2.22,0,0,1-.42.25l.36-.15a1.94,1.94,0,0,1-.51.14l.4,0a2.69,2.69,0,0,1-.49,0l.4.05a1.64,1.64,0,0,1-.38-.1l.36.15a1.12,1.12,0,0,1-.28-.16l.31.24a1,1,0,0,1-.23-.23l.23.3a2,2,0,0,1-.19-.31l.15.36a1.86,1.86,0,0,1-.1-.39l.05.4a1.7,1.7,0,0,1,0-.45l-.05.4a2,2,0,0,1,.14-.53l-.15.36a2.78,2.78,0,0,1,.3-.53l-.23.31a2.52,2.52,0,0,1,.4-.4l-.31.24a2.36,2.36,0,0,1,.4-.24l-.36.16a2.32,2.32,0,0,1,.45-.13l-.4.06h.14l-1.06-.44.06.07-.24-.31a1.14,1.14,0,0,1,.18.3l-.15-.36a1.78,1.78,0,0,1,.09.33l-.06-.4a1.55,1.55,0,0,1,0,.43l.05-.4a1.86,1.86,0,0,1-.13.46l.15-.36a2.68,2.68,0,0,1-.26.47l.23-.31a1.82,1.82,0,0,1-.34.34l.3-.23a1.81,1.81,0,0,1-.33.2l.36-.16a1.65,1.65,0,0,1-.36.11l.39-.06a1.5,1.5,0,0,1-.3,0l.4.06-.13,0,.9.69,0-.09.15.36a1.83,1.83,0,0,1-.12-.46l0,.4a1.88,1.88,0,0,1,0-.58l-.06.4a2.85,2.85,0,0,1,.14-.5l-.15.36a2.06,2.06,0,0,1,.23-.41l-.23.31a2,2,0,0,1,.28-.3l-.3.24a1.55,1.55,0,0,1,.35-.21l-.36.15a1.54,1.54,0,0,1,.37-.09l-.4,0a1.62,1.62,0,0,1,.44,0l-.4,0a1.93,1.93,0,0,1,.47.13l-.36-.15a1.35,1.35,0,0,1,.33.19l-.3-.23a1.66,1.66,0,0,1,.27.26l-.24-.3a1.38,1.38,0,0,1,.17.29l-.15-.36a1.38,1.38,0,0,1,.08.29l-.05-.4a1,1,0,0,1,0,.3l.06-.39a1.33,1.33,0,0,1-.1.34l.15-.36a2,2,0,0,1-.18.32l.24-.31a2.13,2.13,0,0,1-.3.3l.31-.24a1.39,1.39,0,0,1-.31.18l.36-.15a1.57,1.57,0,0,1-.29.08l.4,0h-.3l.4,0a1.12,1.12,0,0,1-.26-.08L188,73a1.3,1.3,0,0,1-.26-.14l.31.23a1.53,1.53,0,0,1-.29-.28l.23.3c-.06-.1-.12-.2-.17-.3l.15.35a1.89,1.89,0,0,1-.09-.34l.05.4a1.3,1.3,0,0,1,0-.34l-.06.4a2.38,2.38,0,0,1,.11-.38l-.15.36a2.38,2.38,0,0,1,.25-.44l-.23.31a2.57,2.57,0,0,1,.33-.33l-.31.24a2,2,0,0,1,.39-.24l-.35.15a2.09,2.09,0,0,1,.43-.11l-.4,0h.35l-.4,0a1.68,1.68,0,0,1,.32.09l-.35-.15a1.45,1.45,0,0,1,.34.2l-.3-.23a1.85,1.85,0,0,1,.28.28l-.23-.3a1.82,1.82,0,0,1,.24.43l-.15-.36a2.11,2.11,0,0,1,.14.49l-.06-.4a2,2,0,0,1,0,.55l0-.4a1.69,1.69,0,0,1-.12.44l.15-.36a1.75,1.75,0,0,1-.2.35l.23-.3a1.66,1.66,0,0,1-.27.26l.3-.23a2.22,2.22,0,0,1-.37.21l.36-.15a1.74,1.74,0,0,1-.51.13l.4,0a2.35,2.35,0,0,1-.53,0l.4,0a1.79,1.79,0,0,1-.56-.15l.35.16a2.4,2.4,0,0,1-.46-.27l.31.24a2.27,2.27,0,0,1-.31-.31l.24.3a1.48,1.48,0,0,1-.23-.38l.15.36a2.14,2.14,0,0,1-.13-.48l0,.4a2,2,0,0,1,0-.6l0,.39a2.38,2.38,0,0,1,.16-.58l-.15.36a2.5,2.5,0,0,1,.3-.53l-.23.3a2.4,2.4,0,0,1,.39-.39l-.31.24a1.69,1.69,0,0,1,.41-.24l-.36.15a2.11,2.11,0,0,1,.49-.14l-.4.05a2.09,2.09,0,0,1,.5,0l-.4-.06a1.71,1.71,0,0,1,.3.09l-.36-.16a1.38,1.38,0,0,1,.29.17l-.3-.24a1.31,1.31,0,0,1,.23.24l-.23-.31a1.64,1.64,0,0,1,.16.29l-.15-.36a1.86,1.86,0,0,1,.12.42l-.06-.4a2.44,2.44,0,0,1,0,.54l0-.39a2,2,0,0,1-.15.53l.16-.36a2,2,0,0,1-.26.44l.24-.31a2.9,2.9,0,0,1-.53.52l.3-.24a4.68,4.68,0,0,1-1.09.61l.36-.15-.83.31,1.84,1c0-.08,0-.15,0-.23l.06.4a2.56,2.56,0,0,1,0-.62l-.05.4a3,3,0,0,1,.19-.71l-.15.36a2.58,2.58,0,0,1,.32-.53l-.24.3a2.29,2.29,0,0,1,.44-.44l-.31.23.24-.16h-1.52a1.35,1.35,0,0,1,.26.15l-.3-.24a1.75,1.75,0,0,1,.23.24l-.23-.31a2,2,0,0,1,.18.32l-.15-.35a2.23,2.23,0,0,1,.13.44l-.06-.4a1.85,1.85,0,0,1,0,.47l.06-.4a1.91,1.91,0,0,1-.11.41l.15-.36a1.65,1.65,0,0,1-.18.32l.23-.3a1.67,1.67,0,0,1-.23.23l.3-.24a1.1,1.1,0,0,1-.26.15l.36-.15a1.34,1.34,0,0,1-.27.07l.4,0a1.22,1.22,0,0,1-.33,0l.4.06a1.65,1.65,0,0,1-.36-.11l.36.16a2.16,2.16,0,0,1-.36-.22l.3.23a1.77,1.77,0,0,1-.3-.31l.23.31a1.53,1.53,0,0,1-.21-.37l.15.36a1.48,1.48,0,0,1-.1-.36l.06.4a1.22,1.22,0,0,1,0-.27l-.06.4a2.29,2.29,0,0,1,.07-.28l-.15.36,0,0a1.61,1.61,0,0,0,.15-1.16,1.47,1.47,0,0,0-.69-.89,1.54,1.54,0,0,0-2,.53,2.37,2.37,0,0,0,.08,2.59,2.86,2.86,0,0,0,2.29,1.31,2.31,2.31,0,0,0,2.25-1.74,2.77,2.77,0,0,0-.79-2.53,2.47,2.47,0,0,0-3-.45,1.5,1.5,0,0,0-.54,2.05,1.52,1.52,0,0,0,2.05.54l.11-.06-.35.15a.79.79,0,0,1,.22-.06l-.4,0h.19l-.4,0a1.25,1.25,0,0,1,.26.07l-.36-.15a1.2,1.2,0,0,1,.27.16l-.3-.23a1.6,1.6,0,0,1,.26.26l-.24-.3a1.29,1.29,0,0,1,.19.32l-.15-.36a1.67,1.67,0,0,1,.08.3l-.05-.4a1.77,1.77,0,0,1,0,.23l.05-.4a.79.79,0,0,1-.06.22l.15-.36a.91.91,0,0,1-.09.17l.23-.3a.67.67,0,0,1-.15.14l.31-.23-.17.1.35-.15a.83.83,0,0,1-.21.06l.39-.06h-.22l.4.06a1.58,1.58,0,0,1-.31-.09l.36.15-.28-.16.31.23a2.06,2.06,0,0,1-.3-.29l.24.3a1.2,1.2,0,0,1-.16-.27l.15.36a1.25,1.25,0,0,1-.07-.26l.06.4a.6.6,0,0,1,0-.19l-.06.4a1,1,0,0,1,.06-.23L187,74a.64.64,0,0,1,.08-.14l-2.59-1.52a3.16,3.16,0,0,0-.3,1.17,2.48,2.48,0,0,0,.14.89A3.39,3.39,0,0,0,185.52,76a2.76,2.76,0,0,0,3.5-.21,3.14,3.14,0,0,0,.76-3,2.91,2.91,0,0,0-.85-1.39,2.31,2.31,0,0,0-1.15-.59,2,2,0,0,0-1.62.68A4.06,4.06,0,0,0,185,75.32a1.51,1.51,0,0,0,1.85,1,12.19,12.19,0,0,0,1.75-.73,4.65,4.65,0,0,0,1.62-1.43,3.51,3.51,0,0,0,.6-1.86,3,3,0,0,0-.49-1.81A2.86,2.86,0,0,0,188,69.27a3.32,3.32,0,0,0-2.14.72,4,4,0,0,0-1.24,1.7,3.31,3.31,0,0,0-.21,1.59,4,4,0,0,0,.35,1.26,3.15,3.15,0,0,0,.54.77,3.51,3.51,0,0,0,1.61.94,3.71,3.71,0,0,0,1.9,0A3.25,3.25,0,0,0,190.63,75a3.07,3.07,0,0,0,.53-1.74,3.55,3.55,0,0,0-.44-1.77,3,3,0,0,0-1.27-1.24,2.89,2.89,0,0,0-2.23-.2,3.63,3.63,0,0,0-1.77,1.37,2.91,2.91,0,0,0-.51,1.83,3,3,0,0,0,.39,1.28,3,3,0,0,0,1,1,2.48,2.48,0,0,0,1.29.4,2.53,2.53,0,0,0,1.27-.29,2.94,2.94,0,0,0,1.48-1.71,2.63,2.63,0,0,0-.21-2.22,3.19,3.19,0,0,0-1.71-1.33,3.05,3.05,0,0,0-1.89,0,3.11,3.11,0,0,0-1.73,1.4,3.49,3.49,0,0,0-.45,2,3.66,3.66,0,0,0,.27,1.13,1.54,1.54,0,0,0,1,1,2.8,2.8,0,0,0,.64.08,3,3,0,0,0,1.93-.75,3.51,3.51,0,0,0,1-1.46,3.12,3.12,0,0,0,.11-1.79,2.41,2.41,0,0,0-.34-.81,2.22,2.22,0,0,0-.65-.68,1.89,1.89,0,0,0-1.32-.14,3.3,3.3,0,0,0-1.61.84,3.61,3.61,0,0,0-1.09,3.37,2.92,2.92,0,0,0,1.2,1.71,2.87,2.87,0,0,0,1.61.48A3.37,3.37,0,0,0,190,75.09a2.67,2.67,0,0,0,.29-2,2.52,2.52,0,0,0-1.67-1.67,2.11,2.11,0,0,0-1.17,0,1.87,1.87,0,0,0-1.14.92,1.67,1.67,0,0,0-.15,1.16,1.59,1.59,0,0,0,.69.9,1.56,1.56,0,0,0,1.16.15,1.47,1.47,0,0,0,.89-.69Z" transform="translate(-0.01)"/>
      <path class="cls-3" d="M50.61,70.84l.06-.11-.24.31.08-.08-.3.24.06,0-.36.15.13,0-.39.06a.66.66,0,0,1,.14,0l-.4,0,.2,0-.36-.15.22.13-.3-.23a1.07,1.07,0,0,1,.19.18L49.1,71a.76.76,0,0,1,.12.19l-.15-.36a1.46,1.46,0,0,1,0,.2l0-.4a1.71,1.71,0,0,1,0,.32l0-.4a1.11,1.11,0,0,1-.07.26l.15-.36a1.28,1.28,0,0,1-.17.3l.24-.31a1.48,1.48,0,0,1-.28.28l.31-.24a2.22,2.22,0,0,1-.42.25l.36-.15a2.35,2.35,0,0,1-.52.14l.4-.05a1.93,1.93,0,0,1-.48,0l.4.06a1.64,1.64,0,0,1-.38-.1l.35.15a1.91,1.91,0,0,1-.27-.16l.3.24a2.5,2.5,0,0,1-.23-.23l.24.3a1.44,1.44,0,0,1-.19-.31l.15.35a1.64,1.64,0,0,1-.1-.38L49,71a1.69,1.69,0,0,1,0-.45l-.06.4a2.46,2.46,0,0,1,.15-.53l-.15.36a2.5,2.5,0,0,1,.3-.53l-.23.31a2.46,2.46,0,0,1,.39-.4l-.3.24a2.36,2.36,0,0,1,.4-.24l-.36.15a1.76,1.76,0,0,1,.45-.12l-.4.06.14,0-1.06-.43.06.06-.24-.3a1.49,1.49,0,0,1,.18.3l-.15-.36a1.23,1.23,0,0,1,.08.33l0-.4a2,2,0,0,1,0,.42l0-.39a1.86,1.86,0,0,1-.13.46l.15-.36a1.92,1.92,0,0,1-.27.46l.24-.3a1.82,1.82,0,0,1-.34.34l.3-.23a1.35,1.35,0,0,1-.33.19l.36-.15a1.58,1.58,0,0,1-.37.11l.4-.06h-.3l.4.06-.13,0,.89.69,0-.09.15.36A2.42,2.42,0,0,1,49,70.4l.06.4a1.88,1.88,0,0,1,0-.58l-.06.4a2.19,2.19,0,0,1,.14-.5l-.15.36a2.06,2.06,0,0,1,.23-.41l-.24.31a2.06,2.06,0,0,1,.29-.3l-.3.24a1.73,1.73,0,0,1,.34-.21l-.35.15a2.24,2.24,0,0,1,.37-.1l-.4.06a1.62,1.62,0,0,1,.44,0l-.4,0a1.65,1.65,0,0,1,.47.13l-.36-.15a1.57,1.57,0,0,1,.33.19l-.3-.23a1.33,1.33,0,0,1,.27.26l-.24-.3a1.61,1.61,0,0,1,.17.28L49.17,70a2,2,0,0,1,.08.29l-.06-.4a1.5,1.5,0,0,1,0,.3l.06-.4a1.4,1.4,0,0,1-.1.35l.15-.36a2,2,0,0,1-.18.32l.23-.31a1.64,1.64,0,0,1-.29.3l.31-.24a1.92,1.92,0,0,1-.31.18l.36-.15a1.57,1.57,0,0,1-.29.08l.4,0a1,1,0,0,1-.3,0l.4.06a1,1,0,0,1-.26-.08l.35.15a1.23,1.23,0,0,1-.25-.14l.31.23a1.54,1.54,0,0,1-.29-.28l.23.3a2.28,2.28,0,0,1-.17-.3l.15.35a1.31,1.31,0,0,1-.09-.34l0,.4a1.29,1.29,0,0,1,0-.34l-.06.4a1.66,1.66,0,0,1,.11-.38l-.15.35a2.09,2.09,0,0,1,.25-.43l-.23.3a2.42,2.42,0,0,1,.32-.32l-.3.24a1.58,1.58,0,0,1,.39-.24l-.36.15a2.2,2.2,0,0,1,.44-.12l-.4.06a2,2,0,0,1,.35,0l-.4,0A1.68,1.68,0,0,1,50,70l-.36-.15a1.51,1.51,0,0,1,.35.2l-.3-.23a2.47,2.47,0,0,1,.28.28l-.24-.3a1.86,1.86,0,0,1,.25.43l-.15-.36a2.09,2.09,0,0,1,.13.49l0-.4a2,2,0,0,1,0,.55l.06-.4a2.4,2.4,0,0,1-.12.44l.15-.36a1.8,1.8,0,0,1-.21.35l.24-.31a1.44,1.44,0,0,1-.28.27l.31-.23a2.71,2.71,0,0,1-.37.21l.36-.15a1.82,1.82,0,0,1-.51.13l.4,0a2.35,2.35,0,0,1-.53,0l.4,0a2.18,2.18,0,0,1-.57-.15l.36.15a2.09,2.09,0,0,1-.46-.26l.31.23a1.77,1.77,0,0,1-.31-.3l.23.3A1.79,1.79,0,0,1,49.1,70l.15.36a2.18,2.18,0,0,1-.14-.48l.06.4a2.08,2.08,0,0,1,0-.61l-.06.4a2.94,2.94,0,0,1,.16-.58l-.15.36a2.17,2.17,0,0,1,.31-.53l-.24.3a3.59,3.59,0,0,1,.39-.39l-.3.23a2.3,2.3,0,0,1,.4-.23l-.35.15a1.56,1.56,0,0,1,.48-.14l-.4,0a1.74,1.74,0,0,1,.51,0l-.4-.06.3.08-.36-.15a1.69,1.69,0,0,1,.29.17l-.3-.24a1.31,1.31,0,0,1,.23.24L49.45,69a1.64,1.64,0,0,1,.16.29L49.46,69a1.91,1.91,0,0,1,.11.41l0-.39a2.44,2.44,0,0,1,0,.54l0-.4a2.39,2.39,0,0,1-.15.54l.15-.36a1.67,1.67,0,0,1-.25.43l.24-.3A3.25,3.25,0,0,1,49,70l.3-.24a5.84,5.84,0,0,1-1.09.61l.35-.15-.82.31,1.84,1a1.85,1.85,0,0,1,0-.23l0,.4a3.21,3.21,0,0,1,0-.62l0,.4a2.58,2.58,0,0,1,.19-.71l-.15.36a2.9,2.9,0,0,1,.31-.54l-.23.31a2.56,2.56,0,0,1,.43-.44l-.3.23.23-.16H48.54a1.35,1.35,0,0,1,.26.15l-.31-.24a1.75,1.75,0,0,1,.24.23l-.24-.3a1.5,1.5,0,0,1,.19.32l-.15-.36a1.88,1.88,0,0,1,.12.45l0-.4a1.85,1.85,0,0,1,0,.47l0-.4a1.89,1.89,0,0,1-.1.41l.15-.36a2,2,0,0,1-.18.32l.23-.3a1.67,1.67,0,0,1-.23.23l.3-.24a1.35,1.35,0,0,1-.26.15l.36-.15a1.28,1.28,0,0,1-.28.07l.4,0a1.15,1.15,0,0,1-.32,0l.4.06a1.65,1.65,0,0,1-.36-.11l.36.15a2,2,0,0,1-.37-.21l.31.23a1.52,1.52,0,0,1-.31-.31l.24.31a2,2,0,0,1-.22-.37l.16.36a1.48,1.48,0,0,1-.1-.36l.05.4a2.44,2.44,0,0,1,0-.27l-.06.4a2.29,2.29,0,0,1,.07-.28l-.15.36,0,0a1.61,1.61,0,0,0,.15-1.16,1.47,1.47,0,0,0-.69-.89,1.53,1.53,0,0,0-2,.53,2.38,2.38,0,0,0,.07,2.59,2.88,2.88,0,0,0,2.3,1.31,2.31,2.31,0,0,0,2.24-1.75A2.76,2.76,0,0,0,50,69a2.48,2.48,0,0,0-3-.45,1.55,1.55,0,0,0-.69.9,1.5,1.5,0,0,0,.15,1.15,1.53,1.53,0,0,0,2.05.54l.11-.06-.36.15a1,1,0,0,1,.23-.06l-.4,0h.19l-.4,0a1.25,1.25,0,0,1,.26.07L47.8,71a1.2,1.2,0,0,1,.27.16l-.3-.23a1.6,1.6,0,0,1,.26.26l-.24-.3a2,2,0,0,1,.19.31l-.16-.35a1.32,1.32,0,0,1,.09.3l-.06-.4a1.77,1.77,0,0,1,0,.23l0-.4a.79.79,0,0,1-.06.22l.15-.36a1,1,0,0,1-.1.17l.24-.3-.15.14.3-.23a1,1,0,0,1-.17.1l.36-.15a.79.79,0,0,1-.22.06l.4-.06a.88.88,0,0,1-.23,0l.4.05a1.11,1.11,0,0,1-.3-.08l.36.15a1.61,1.61,0,0,1-.28-.17l.3.24a2,2,0,0,1-.29-.29l.24.3a.92.92,0,0,1-.16-.27l.15.35a.72.72,0,0,1-.07-.25l0,.39v-.18l0,.39a.9.9,0,0,1,.06-.22l-.15.36a.64.64,0,0,1,.08-.14l-2.59-1.52a3.16,3.16,0,0,0-.3,1.17,2.48,2.48,0,0,0,.14.89A3.39,3.39,0,0,0,47.24,73a2.76,2.76,0,0,0,3.49-.21,3.1,3.1,0,0,0,.76-3.06,2.83,2.83,0,0,0-.84-1.38,2.23,2.23,0,0,0-1.15-.59,2,2,0,0,0-1.63.68,4.06,4.06,0,0,0-1.15,3.88,1.51,1.51,0,0,0,1.84,1.05,12.31,12.31,0,0,0,1.76-.73,4.74,4.74,0,0,0,1.62-1.43,3.5,3.5,0,0,0,.59-1.86,3,3,0,0,0-.48-1.81,2.88,2.88,0,0,0-2.29-1.26,3.32,3.32,0,0,0-2.14.72,3.82,3.82,0,0,0-1.24,1.7,3.19,3.19,0,0,0-.21,1.59,3.54,3.54,0,0,0,.35,1.26,3.15,3.15,0,0,0,.54.77,3.51,3.51,0,0,0,1.61.94,3.71,3.71,0,0,0,1.9,0A3.27,3.27,0,0,0,52.35,72a3.1,3.1,0,0,0,.53-1.73,3.56,3.56,0,0,0-.45-1.77,3,3,0,0,0-1.26-1.25,2.93,2.93,0,0,0-2.23-.19,3.58,3.58,0,0,0-1.77,1.37,2.85,2.85,0,0,0-.51,1.83,3,3,0,0,0,.39,1.28,3,3,0,0,0,1,1,2.48,2.48,0,0,0,1.29.4,2.66,2.66,0,0,0,1.27-.29,2.94,2.94,0,0,0,1.48-1.71,2.63,2.63,0,0,0-.22-2.22,3.13,3.13,0,0,0-1.7-1.33,3.05,3.05,0,0,0-1.89,0,3.14,3.14,0,0,0-1.73,1.41,3.53,3.53,0,0,0-.19,3.08,1.55,1.55,0,0,0,1,1,2.8,2.8,0,0,0,.64.08,3,3,0,0,0,1.93-.75,3.49,3.49,0,0,0,1-1.46,3.15,3.15,0,0,0,.12-1.8,2.13,2.13,0,0,0-.35-.8,2.08,2.08,0,0,0-.64-.68,1.89,1.89,0,0,0-1.32-.14,3.3,3.3,0,0,0-1.61.84A3.61,3.61,0,0,0,46,71.46a2.87,2.87,0,0,0,2.81,2.19,3.35,3.35,0,0,0,2.87-1.56,2.63,2.63,0,0,0,.28-2,2.48,2.48,0,0,0-1.66-1.67,2.12,2.12,0,0,0-1.17,0,1.84,1.84,0,0,0-1.14.92,1.62,1.62,0,0,0-.15,1.16,1.47,1.47,0,0,0,.69.89,1.49,1.49,0,0,0,2-.53Z" transform="translate(-0.01)"/>
      <g>
        <path class="cls-3" d="M189.68,63.11a23.89,23.89,0,0,1,3-5,9,9,0,0,1,2-1.8c.45-.29,1.18-.82,1.58-.2a2.71,2.71,0,0,1,.27,1.34,22.55,22.55,0,0,1-.54,6.75c-.14.6-.31,1.19-.5,1.77a5.34,5.34,0,0,0-.32,1.17c0,.59.18,1.23.86,1.23a.38.38,0,0,0,0-.75c-.34,0,.07-1.1.12-1.23q.28-.87.51-1.77a24.43,24.43,0,0,0,.58-3.49,22.6,22.6,0,0,0,0-3.68,2.75,2.75,0,0,0-.75-2.15c-.73-.53-1.59,0-2.23.36a10.1,10.1,0,0,0-2.15,1.92A24.55,24.55,0,0,0,189,62.73c-.22.43.43.81.64.38Z" transform="translate(-0.01)"/>
        <path class="cls-3" d="M191.45,68.91a16.44,16.44,0,0,1,9.4-.24.38.38,0,0,0,.2-.73,17.09,17.09,0,0,0-9.79.25c-.46.15-.27.87.19.72Z" transform="translate(-0.01)"/>
        <path class="cls-3" d="M208.14,55A50,50,0,0,0,202,65.53a.39.39,0,0,0,.13.52c1.39.75,3,.07,4.46.12a8.11,8.11,0,0,1,4.63,1.66c.39.29.76-.36.38-.64a8.76,8.76,0,0,0-4.22-1.71,8.37,8.37,0,0,0-2.29,0,4.2,4.2,0,0,1-2.58-.11l.14.51a50,50,0,0,1,6.17-10.51c.3-.39-.35-.76-.64-.38Z" transform="translate(-0.01)"/>
        <path class="cls-3" d="M213.32,55.1l0,.06.33-.18.2.14-.1.37c.14-.17,1.23-.07,1.44-.08h1.4c.54,0,1.08,0,1.62,0s1.14.1.85.78a6.21,6.21,0,0,1-1.79,1.93A24.41,24.41,0,0,1,214.88,60a.38.38,0,0,0,.18.7,8.86,8.86,0,0,1,3.55.89,2.52,2.52,0,0,1-.38,4.83,7.12,7.12,0,0,1-4-.16l.27.37.19-.23c.48-.09.27-.81-.2-.72a.89.89,0,0,0-.74,1,.38.38,0,0,0,.28.36,7.6,7.6,0,0,0,4.67,0A3.5,3.5,0,0,0,221,64.37a3.54,3.54,0,0,0-1.6-3.2,8.83,8.83,0,0,0-4.3-1.23l.19.7a25.76,25.76,0,0,0,3.62-3c.63-.62,1.59-1.93.58-2.68a3.39,3.39,0,0,0-2-.31c-.85,0-1.7,0-2.55,0-.48,0-1.4-.16-1.74.29a.49.49,0,0,0,.43.77.38.38,0,0,0,.32-.19l0-.06c.21-.43-.44-.81-.65-.38Z" transform="translate(-0.01)"/>
        <path class="cls-3" d="M225.77,56.25c-2,.33-2.59,3-3.06,4.59-.53,1.83-1.3,5,.76,6.21,1.9,1.11,4-.22,5.12-1.77a7,7,0,0,0,1.22-6.16,2.93,2.93,0,0,0-2-2,2.23,2.23,0,0,0-2.43.85c-.28.4.37.77.64.37a1.56,1.56,0,0,1,1.84-.42,2.4,2.4,0,0,1,1.32,1.73,6.41,6.41,0,0,1-1,4.86c-.87,1.34-2.61,2.78-4.28,1.89a2.28,2.28,0,0,1-1-2.18,11.26,11.26,0,0,1,.45-2.94,17.16,17.16,0,0,1,.94-2.78A2.39,2.39,0,0,1,226,57c.47-.08.27-.8-.2-.72Z" transform="translate(-0.01)"/>
        <path class="cls-3" d="M232.15,54.91a3.9,3.9,0,0,0-1.1,1.5,3.79,3.79,0,0,0-.26.87,2.31,2.31,0,0,0,0,1,1,1,0,0,0,.65.67,1.28,1.28,0,0,0,.9-.11,2.57,2.57,0,0,0,1.15-1.32,3.5,3.5,0,0,0,.22-2.12.37.37,0,0,0-.46-.26.38.38,0,0,0-.26.46,2.69,2.69,0,0,1-.08,1.35,2.43,2.43,0,0,1-.68,1.08,1.48,1.48,0,0,1-.27.16l-.1,0-.06,0c-.12,0,0,0-.05,0h-.07l-.08,0h0l0,0a.22.22,0,0,1-.06-.13,1.54,1.54,0,0,1,0-.64,3.16,3.16,0,0,1,1.15-2,.37.37,0,1,0-.53-.53Z" transform="translate(-0.01)"/>
        <path class="cls-3" d="M231.11,60.52a2.42,2.42,0,0,1,3-.11.37.37,0,0,0,.51-.14.38.38,0,0,0-.13-.51,3.19,3.19,0,0,0-3.94.23c-.35.33.18.86.53.53Z" transform="translate(-0.01)"/>
      </g>
      <g>
        <path class="cls-3" d="M9.31,62.25a42.87,42.87,0,0,1,4-5.32l-.58-.08A3.77,3.77,0,0,1,13,59.08q-.15,1.32-.33,2.64c-.25,1.69-.53,3.38-.86,5.06l.73.1v-.56a.38.38,0,0,0-.75,0v.56c0,.41.66.53.74.1.37-1.87.68-3.76.94-5.65.12-.86.24-1.72.32-2.58a3.89,3.89,0,0,0-.36-2.28.38.38,0,0,0-.59-.07,44.36,44.36,0,0,0-4.17,5.47c-.26.4.39.78.65.38Z" transform="translate(-0.01)"/>
        <path class="cls-3" d="M24.66,56.54A45.35,45.35,0,0,0,19,66.6c-.14.35.29.54.55.43a12.62,12.62,0,0,1,7.6-.78c.47.1.67-.62.2-.72a13.43,13.43,0,0,0-8.18.85l.55.42a44.88,44.88,0,0,1,5.55-9.88c.29-.39-.36-.76-.65-.38Z" transform="translate(-0.01)"/>
        <path class="cls-3" d="M30.57,56a30.45,30.45,0,0,0-.46,11.53c.07.48.8.27.73-.2a29.58,29.58,0,0,1,.45-11.13c.11-.47-.61-.67-.72-.2Z" transform="translate(-0.01)"/>
        <path class="cls-3" d="M39.49,56.5c-.86-1.06-2.38-.43-3,.54a7.12,7.12,0,0,0-.74,2.15c-.22.92-.38,1.84-.51,2.77a.38.38,0,0,0,.46.46,4.09,4.09,0,0,1,2.52.14,1.6,1.6,0,0,1,.59,2.06c-.74,1.95-3.18,1.9-4.9,1.83l.1.74.62-.23c.44-.16.25-.89-.2-.72l-.62.22a.38.38,0,0,0,.1.74c2.19.08,5.16-.11,5.73-2.75A2.27,2.27,0,0,0,38.72,62a4.55,4.55,0,0,0-3.21-.29l.46.46a24.78,24.78,0,0,1,.79-3.81,2.54,2.54,0,0,1,.85-1.43A1,1,0,0,1,39,57c.3.37.83-.16.53-.53Z" transform="translate(-0.01)"/>
        <path class="cls-3" d="M43.51,57.16a16.77,16.77,0,0,0-2.18,5.66c-.26,1.45-.63,3.54.45,4.76,1.22,1.39,2.95.26,3.71-1a8.5,8.5,0,0,0,1-5.34c-.22-1.57-1.08-3.27-2.79-3.57-.47-.09-.67.64-.2.72a3,3,0,0,1,2.17,2.52,7.93,7.93,0,0,1-.5,4.51,3.68,3.68,0,0,1-1.29,1.77,1.19,1.19,0,0,1-1.74-.34c-.71-1.17-.32-3-.06-4.22a16.07,16.07,0,0,1,2-5.12c.26-.41-.39-.79-.64-.38Z" transform="translate(-0.01)"/>
        <path class="cls-3" d="M48.8,55.58a5.51,5.51,0,0,0-1.21,3,1.54,1.54,0,0,0,.16,1c.44.71,1.34.37,1.78-.15a3.19,3.19,0,0,0,.73-1.79,3.14,3.14,0,0,0-.52-2,.38.38,0,0,0-.51-.14.37.37,0,0,0-.14.51,2.47,2.47,0,0,1,.12,2.59,1.68,1.68,0,0,1-.4.52c-.1.07-.31.22-.41.1s-.07-.43-.06-.59a4.75,4.75,0,0,1,.16-.82,4.55,4.55,0,0,1,.83-1.66.4.4,0,0,0,0-.53.38.38,0,0,0-.53,0Z" transform="translate(-0.01)"/>
        <path class="cls-3" d="M47.91,61.55a4.11,4.11,0,0,1,3.49-.28.37.37,0,0,0,.2-.72,4.84,4.84,0,0,0-4.07.35.38.38,0,0,0,.38.65Z" transform="translate(-0.01)"/>
        <path class="cls-3" d="M9.37,67.19l6.43.07a.38.38,0,0,0,0-.75l-6.43-.07a.38.38,0,0,0,0,.75Z" transform="translate(-0.01)"/>
      </g>
      <g>
        <path class="cls-3" d="M124.52,182.9a27,27,0,0,1,3-3.94c.35-.4,1.46-1.74,2-.88a2.72,2.72,0,0,1,.16,1.1c0,.44,0,.88,0,1.31a36.41,36.41,0,0,1-1.23,10c-.09.33.38.66.63.36l.63-.78c.3-.37-.23-.9-.53-.53l-.63.78.63.36a37.75,37.75,0,0,0,1.08-6,28.13,28.13,0,0,0,.06-6.22,1.4,1.4,0,0,0-1-1.36,2.09,2.09,0,0,0-1.81.77,24.63,24.63,0,0,0-3.59,4.66c-.26.41.39.79.64.38Z" transform="translate(-0.01)"/>
        <path class="cls-3" d="M125.46,191.06a11.73,11.73,0,0,0,8.63-.61c.43-.2,0-.85-.38-.64a10.94,10.94,0,0,1-8.05.52c-.46-.14-.66.58-.2.73Z" transform="translate(-0.01)"/>
        <path class="cls-3" d="M162.53,178.8a14.67,14.67,0,0,1,4.35-.76c.33,0,.66,0,1,0s.55,0,.59.34a.84.84,0,0,1-.17.4,20.28,20.28,0,0,1-1.24,1.83l-5.12,7.47a.38.38,0,0,0,.42.55l1.09-.32a.38.38,0,0,0-.2-.73l-1.09.33.43.55c2.06-3,4.15-6,6.18-9a1.63,1.63,0,0,0,.35-1.61c-.32-.61-1.15-.54-1.73-.55a15.45,15.45,0,0,0-5,.78c-.46.16-.26.88.2.73Z" transform="translate(-0.01)"/>
        <path class="cls-3" d="M174.31,178.93c-1.89-1.46-3.32,2.52-3.81,3.66-.66,1.57-1.27,3.77.06,5.18s3.8.75,5-.6c1.38-1.51,2.52-3.88,2.12-6-.35-1.86-2.52-3.44-4.33-2.39a.38.38,0,0,0,.38.65c1.2-.7,2.72.31,3.12,1.5.56,1.7-.34,3.61-1.29,5s-2.46,2.47-4,1.66c-1.38-.71-1.15-2.54-.76-3.77.2-.64,1.88-5.21,2.95-4.39.37.29.91-.23.53-.53Z" transform="translate(-0.01)"/>
        <path class="cls-3" d="M181.31,176.7a1.9,1.9,0,0,0-1.61,1.09,1.7,1.7,0,0,0,.2,1.91,1.75,1.75,0,0,0,2.93-.77,2.82,2.82,0,0,0-1.24-2.45.39.39,0,0,0-.53,0,.38.38,0,0,0,0,.53,4.05,4.05,0,0,1,.68.7,2.73,2.73,0,0,1,.26.43s0,0,0,0,0,0,0,0,0,.07,0,.11l0,.11s0,.13,0,.07a1.62,1.62,0,0,1,0,.22s0,.11,0,.06l0,.13,0,.09s0,0,0,0l0,0a.64.64,0,0,1-.08.14s0,0,0,0l-.05,0-.06.05s.06,0,0,0l-.14.08-.07,0s0,0,0,0h0l-.16.05h-.11c-.05,0,.07,0,0,0s-.22,0-.33,0,.07,0,0,0l-.08,0-.17-.05h0l-.07,0-.15-.09,0,0,0,0-.06-.06-.05,0c-.06-.07,0,0,0,0l-.09-.15v0l0-.1s0-.05,0-.08a.09.09,0,0,0,0-.05s0,.07,0,0,0-.13,0-.19,0-.06,0-.09,0,0,0,0a1.29,1.29,0,0,1,0-.19.42.42,0,0,0,0-.1c0,.07,0,0,0,0a1.18,1.18,0,0,1,.11-.19s.07-.09,0,0l.07-.09.15-.14,0,0s0,0,0,0l.09-.06.09,0,.07,0,.07,0,.1,0s.11,0,0,0h.12a.39.39,0,0,0,.38-.38.38.38,0,0,0-.38-.37Z" transform="translate(-0.01)"/>
        <path class="cls-3" d="M179.45,182.05h3.38a.38.38,0,0,0,0-.75h-3.38a.38.38,0,0,0,0,.75Z" transform="translate(-0.01)"/>
        <path class="cls-3" d="M152,178.24a15.31,15.31,0,0,1,3.22-.64,4.46,4.46,0,0,1,2.91.52,4,4,0,0,1,1.24,4.35,7.7,7.7,0,0,1-3.57,4.06A17.73,17.73,0,0,1,150,189c-.44.09-.29.7.1.74l8.42.77,2,.18a8.76,8.76,0,0,0,1.9.16c.72-.11.6-1-.12-.93a.39.39,0,0,0-.27.36v.06c0,.48.71.47.75,0v-.06l-.28.36-.3-.17.09-.37c-.1.12-1.25-.11-1.4-.12l-1.49-.14-3.09-.28-6.19-.57.1.73a17.76,17.76,0,0,0,5.33-2.15,11.08,11.08,0,0,0,3.78-3.22c1.48-2.18,1.45-5.93-1.28-7.15-1.88-.84-4.34-.24-6.21.31a.38.38,0,0,0,.2.73Z" transform="translate(-0.01)"/>
        <path class="cls-3" d="M146.66,175.92q-5.17,6.59-10.18,13.31c-.17.24.07.56.33.57a44.46,44.46,0,0,1,5.76.49c.9.13,1.79.28,2.68.44l1.45.26c.28,0,1.1.07,1.29.29l-.1-.36,0,.09.26-.27-.08,0,.36.09,0-.05c-.31-.37-.84.16-.53.53l0,.05a.36.36,0,0,0,.37.1.5.5,0,0,0,.38-.58c-.08-.35-.47-.41-.75-.47-1.24-.27-2.51-.47-3.76-.67a48.41,48.41,0,0,0-7.3-.73l.32.56q5-6.65,10.07-13.16c.29-.38-.24-.91-.54-.53Z" transform="translate(-0.01)"/>
      </g>
    </g>
  </g>
</svg>
