<svg xmlns="http://www.w3.org/2000/svg" viewBox="0 0 242.36 202.18">
  <defs>
    <style>
      .cls-1 {
        fill: #d1d3d4;
      }

      .cls-2 {
        fill: #00aeef;
      }

      .cls-3 {
        fill: #231f20;
      }
    </style>
  </defs>
  <title>Asset 3</title>
  <g id="Layer_2" data-name="Layer 2">
    <g id="Layer_1-2" data-name="Layer 1">
      <g>
        <g>
          <path class="cls-1" d="M114.1,12.72,116.58,7l1.19-2.74c.16-.37.31-.74.49-1.09l.17-.29a.12.12,0,0,1-.1.08,1.29,1.29,0,0,0-.28,0c-.11-.05-.11-.05,0,0h0a2.74,2.74,0,0,1,.26.28,7.63,7.63,0,0,1,.62,1.07c.45.83.87,1.67,1.27,2.52q1.22,2.57,2.17,5.25c.34,1,1.74,1.62,2.51.66l.53-.66a1.54,1.54,0,0,0,0-2.12,1.5,1.5,0,0,0-2.12,0l-.53.66,2.5.66A64.2,64.2,0,0,0,122.6,5a30,30,0,0,0-1.55-3A3.91,3.91,0,0,0,118.7.07c-2.68-.58-3.55,2.76-4.34,4.59l-2.85,6.55a1.54,1.54,0,0,0,.53,2,1.52,1.52,0,0,0,2.06-.54Z" transform="translate(-0.01)"/>
          <path class="cls-1" d="M116.42,2.18l1.52,77q.75,38.3,1.51,76.59.42,21.58.85,43.18c0,1.93,3,1.94,3,0q-.75-38.47-1.52-76.95l-1.5-76.61-.86-43.22c0-1.92-3-1.93-3,0Z" transform="translate(-0.01)"/>
          <path class="cls-1" d="M113,191.74l7.74,10c.72.94,2.21.31,2.5-.66a16,16,0,0,1,2.79-5.38c1.29-1.62,3.63-3.18,3.33-5.53a1.56,1.56,0,0,0-1.5-1.5c-.73,0-1.61.69-1.5,1.5s-.48,1.27-1.06,1.88a24.32,24.32,0,0,0-2.14,2.5,19,19,0,0,0-2.81,5.73l2.51-.66-7.74-10a1.51,1.51,0,0,0-2.12,0,1.55,1.55,0,0,0,0,2.13Z" transform="translate(-0.01)"/>
        </g>
        <g>
          <path class="cls-1" d="M7.92,87.78l-4,6.92-2,3.46a17.07,17.07,0,0,0-1.75,3.33,3,3,0,0,0,1,3.46,16.78,16.78,0,0,0,2.84.9,9.37,9.37,0,0,1,4.14,3.59,1.5,1.5,0,1,0,2.59-1.51,12.84,12.84,0,0,0-4.42-4.28,10.63,10.63,0,0,0-2.72-1.07,3.17,3.17,0,0,0-.67-.13c-.31,0-.11-.08-.06,0,.12.35.16-.24.22-.39A26.92,26.92,0,0,1,4.89,99l1.88-3.24,3.74-6.48a1.5,1.5,0,0,0-2.59-1.52Z" transform="translate(-0.01)"/>
          <path class="cls-1" d="M228,113.11l6.6-4.41,3.3-2.21a33.36,33.36,0,0,0,3.13-2.15,3.7,3.7,0,0,0,1.3-3.44,9.47,9.47,0,0,0-1.51-3.33,49.66,49.66,0,0,0-4.12-5.85c-.79-1-1.61-1.89-2.47-2.77q-.66-.67-1.35-1.32L232.2,87l-.31-.28-.16-.13c-.24-.26-.25-.15,0,.31l-.21.76.05-.09-.89.69.08,0h-.8l-.19-.07-.69-.9,0,.08.15-1.16,0,.08a1.54,1.54,0,0,0,.54,2,1.5,1.5,0,0,0,2-.53,1.65,1.65,0,0,0-.56-2.24,1.67,1.67,0,0,0-2.27.52c-.94,1.51.68,2.65,1.65,3.55a40.79,40.79,0,0,1,4.8,5.29c.75,1,1.45,2,2.12,3a14.51,14.51,0,0,1,1.77,3.11c.31,1-.52,1.25-1.26,1.74l-3.51,2.34-8.05,5.38a1.54,1.54,0,0,0-.54,2,1.53,1.53,0,0,0,2.06.54Z" transform="translate(-0.01)"/>
          <path class="cls-1" d="M2.07,103.25c31.13-1,62.28-1.09,93.42-1.14,30.91-.06,61.82-.24,92.73-.11,17.36.07,34.72.33,52.06,1.08,1.93.08,1.92-2.92,0-3C209.22,98.73,178.12,99,147,99s-61.88,0-92.82.26c-17.38.14-34.77.41-52.15,1-1.92.06-1.93,3.06,0,3Z" transform="translate(-0.01)"/>
        </g>
      </g>
      <g>
        <g>
          <path class="cls-2" d="M84,30.55a1.44,1.44,0,0,1-.82-.44l.13.49a.51.51,0,0,1,.3-.31h-.26c.37.07.39.81.39,1.09a1.82,1.82,0,0,1-.44,1.38c-.5.47-1.55.33-1.3-.53a.84.84,0,0,1,.63-.63,1,1,0,0,1,1,.6,1.6,1.6,0,0,1-1.07,2.15l.57.23a3,3,0,0,1,0-3,8.27,8.27,0,0,1,1-1.48c.14-.18.74-1.06,1-.86s.18,1.1.13,1.42a5,5,0,0,1-.62,1.71c-.14.23-.67,1.2-1,.84a2.26,2.26,0,0,1-.38-.74,5,5,0,0,1-.27-1c-.17-1.1.35-2.65,1.68-2.64l-.5-.5A6.52,6.52,0,0,1,82.75,32l.78.1c-.14-.23-.6-.9-.25-1.15.15-.12.44,0,.61.06.86.45.27,1.84,0,2.5l.61-.35A1.89,1.89,0,0,1,83,32.34a.73.73,0,0,1,0-.61c0-.1.17-.3.31-.28A.52.52,0,0,0,84,31.1a.5.5,0,0,0-.35-.62A1.54,1.54,0,0,0,82,32.3a2.48,2.48,0,0,0,2.26,1.83.52.52,0,0,0,.62-.35,4.38,4.38,0,0,0,.38-2.44A1.82,1.82,0,0,0,84,30a1.43,1.43,0,0,0-1.61.46,2,2,0,0,0,.27,2.17.5.5,0,0,0,.78.1,7.73,7.73,0,0,0,1.69-4.43.51.51,0,0,0-.5-.5c-1.71,0-2.77,1.7-2.72,3.26a5.12,5.12,0,0,0,.76,2.52,1.22,1.22,0,0,0,2.09.2A5.36,5.36,0,0,0,86,31.61a4.28,4.28,0,0,0,.17-2.45,1.21,1.21,0,0,0-1.7-.88,3,3,0,0,0-.87.79,9.09,9.09,0,0,0-.8,1.05c-1,1.43-1.66,3.4-.59,5a.53.53,0,0,0,.57.23,2.68,2.68,0,0,0,1.86-3.17c-.4-1.25-2-2.11-3.06-1.1A1.71,1.71,0,0,0,82,34a2,2,0,0,0,1.77-.3,2.49,2.49,0,0,0,.94-1.81,2.89,2.89,0,0,0-.51-2.18c-.69-.74-1.58-.09-1.87.67a.52.52,0,0,0,.13.49,2.31,2.31,0,0,0,1.27.69c.63.12.9-.85.26-1Z" transform="translate(-0.01)"/>
          <g>
            <path class="cls-2" d="M191.73,99.25a100.14,100.14,0,0,0-4.5-25.17,83.83,83.83,0,0,0-18.45-31.95A76.67,76.67,0,0,0,150.73,27.8,62.91,62.91,0,0,0,90.6,26c-.69.34-1.36.69-2,1.06s-.06,1.17.51.86a63.27,63.27,0,0,1,27.26-7.65,62.37,62.37,0,0,1,31.76,7.21,74,74,0,0,1,17.07,12.37,81.78,81.78,0,0,1,20,31.09,97.51,97.51,0,0,1,5.48,26.16c.05.71.1,1.42.13,2.13s1,.64,1,0Z" transform="translate(-0.01)"/>
            <path class="cls-2" d="M90,20.35l-1.45,4.8-.73,2.4c-.18.59-.35,1.22.21,1.66a5.82,5.82,0,0,0,2,.67l2.5.72L97.26,32a.5.5,0,0,0,.26-1c-2.81-.8-5.62-1.59-8.43-2.41-.4-.11-.53-.13-.4-.56s.21-.7.32-1.05l.63-2.09,1.29-4.28c.19-.61-.77-.88-1-.26Z" transform="translate(-0.01)"/>
          </g>
          <path class="cls-2" d="M86.44,167.47a1.38,1.38,0,0,1-.82-.44l.13.49a.5.5,0,0,1,.3-.3h-.26c.37.06.39.8.39,1.09a1.76,1.76,0,0,1-.44,1.37c-.5.48-1.55.34-1.3-.52a.83.83,0,0,1,.63-.63,1,1,0,0,1,1,.6A1.6,1.6,0,0,1,85,171.28l.57.23a3,3,0,0,1,0-3.06,7.86,7.86,0,0,1,1-1.47c.14-.18.74-1.07,1-.86s.18,1.09.13,1.41a5,5,0,0,1-.62,1.71c-.14.24-.67,1.21-1,.85a2.41,2.41,0,0,1-.38-.75,4.84,4.84,0,0,1-.27-1c-.17-1.1.35-2.64,1.68-2.63l-.5-.5a6.57,6.57,0,0,1-1.39,3.72l.78.1c-.14-.24-.6-.91-.25-1.16.15-.11.44,0,.61.06.86.46.27,1.85,0,2.5l.61-.35a1.88,1.88,0,0,1-1.49-.82.72.72,0,0,1,0-.61c0-.1.17-.31.31-.29a.52.52,0,0,0,.62-.35.5.5,0,0,0-.35-.61,1.53,1.53,0,0,0-1.65,1.81,2.51,2.51,0,0,0,2.27,1.84.53.53,0,0,0,.61-.35,4.39,4.39,0,0,0,.38-2.44,1.8,1.8,0,0,0-1.25-1.36,1.43,1.43,0,0,0-1.61.46,2,2,0,0,0,.27,2.17.5.5,0,0,0,.78.1,7.67,7.67,0,0,0,1.69-4.42.5.5,0,0,0-.5-.5c-1.71,0-2.77,1.69-2.72,3.26a5.3,5.3,0,0,0,.76,2.51,1.23,1.23,0,0,0,2.09.21,5.5,5.5,0,0,0,1.24-2.16,4.31,4.31,0,0,0,.17-2.46,1.2,1.2,0,0,0-1.7-.87,3.09,3.09,0,0,0-.87.78,11.2,11.2,0,0,0-.8,1c-1,1.44-1.66,3.41-.59,5a.5.5,0,0,0,.57.23,2.67,2.67,0,0,0,1.86-3.16c-.4-1.25-2-2.11-3.06-1.11a1.72,1.72,0,0,0,.42,2.91,2,2,0,0,0,1.77-.3,2.51,2.51,0,0,0,.94-1.81,2.92,2.92,0,0,0-.51-2.19c-.69-.73-1.58-.09-1.87.68a.5.5,0,0,0,.13.48,2.33,2.33,0,0,0,1.27.7c.63.11.9-.85.26-1Z" transform="translate(-0.01)"/>
          <g>
            <path class="cls-2" d="M76.66,33.77A77.9,77.9,0,0,0,58.63,50a81.42,81.42,0,0,0-16.37,34.4,82.73,82.73,0,0,0-1.64,23.75,90.05,90.05,0,0,0,3.05,17.32A98.75,98.75,0,0,0,47,135a63.47,63.47,0,0,0,3.73,8,51.43,51.43,0,0,0,25.52,22.31c1.21.48,2.44.91,3.68,1.29a.5.5,0,0,0,.27-1,50.26,50.26,0,0,1-26.25-19.36,67.18,67.18,0,0,1-8-16.9,88.19,88.19,0,0,1-4-18.29A82.18,82.18,0,0,1,57,53.64a76.87,76.87,0,0,1,18.53-18l1.59-1.06c.54-.35,0-1.22-.5-.86Z" transform="translate(-0.01)"/>
            <path class="cls-2" d="M76.41,159a25.71,25.71,0,0,1,3.13,7.33l.35-.61a30.07,30.07,0,0,0-6.37,2.92c-.54.34,0,1.2.51.87a28.88,28.88,0,0,1,6.13-2.83.52.52,0,0,0,.35-.62,27.08,27.08,0,0,0-3.24-7.56c-.34-.55-1.21-.05-.86.5Z" transform="translate(-0.01)"/>
          </g>
          <g>
            <path class="cls-2" d="M91.48,171.42a150.76,150.76,0,0,0,29.8,1.3,101.87,101.87,0,0,0,28.8-5.77,74.15,74.15,0,0,0,23.33-13.62,66.42,66.42,0,0,0,15.72-20.11A52.82,52.82,0,0,0,195,109c0-1.06-.06-2.11-.14-3.17,0-.63-1-.64-1,0a50.65,50.65,0,0,1-4.33,24.3,64.41,64.41,0,0,1-14.55,20.46,70.94,70.94,0,0,1-22.12,14.23,97.29,97.29,0,0,1-28.18,6.66,143.09,143.09,0,0,1-29.26-.56c-1.22-.14-2.43-.29-3.64-.45-.63-.09-.9.87-.26,1Z" transform="translate(-0.01)"/>
            <path class="cls-2" d="M188.13,109.8l3.24-2.85c.83-.73,1.94-2.16,3.2-1.86s1.83,1.51,2.33,2.53c.61,1.24,1.21,2.48,1.82,3.73.28.58,1.15.07.86-.51-.69-1.41-1.34-2.85-2.08-4.24a4.44,4.44,0,0,0-2.83-2.51c-1.39-.26-2.37.71-3.33,1.56l-3.92,3.45c-.48.42.23,1.13.71.7Z" transform="translate(-0.01)"/>
          </g>
          <path class="cls-2" d="M191,97a1.4,1.4,0,0,1-.81-.43l.13.48a.5.5,0,0,1,.29-.3h-.26c.36.06.37.82.38,1.09a1.83,1.83,0,0,1-.43,1.37c-.51.5-1.5.32-1.26-.52a.82.82,0,0,1,.61-.63,1,1,0,0,1,.93.6,1.61,1.61,0,0,1-1,2.15l.56.23a3,3,0,0,1,0-3,8.81,8.81,0,0,1,1-1.52c.14-.18.69-1,1-.89s.17.35.18.46a2.89,2.89,0,0,1,0,.88,5.14,5.14,0,0,1-.59,1.77c-.12.2-.67,1.23-1,.91a2.2,2.2,0,0,1-.35-.66,5.74,5.74,0,0,1-.28-1c-.2-1.1.25-2.76,1.62-2.75l-.5-.5a6.62,6.62,0,0,1-1.37,3.72l.79.1c-.15-.25-.54-.81-.3-1.11s.42-.09.6,0c.88.43.3,1.86.06,2.51l.61-.35a1.8,1.8,0,0,1-1.45-.82.76.76,0,0,1,0-.61c0-.09.17-.31.3-.29a.5.5,0,1,0,.27-1A1.53,1.53,0,0,0,189,98.71a2.47,2.47,0,0,0,2.23,1.84.52.52,0,0,0,.61-.35,4.29,4.29,0,0,0,.35-2.54A1.8,1.8,0,0,0,191,96.39a1.38,1.38,0,0,0-1.55.47,2,2,0,0,0,.26,2.17.49.49,0,0,0,.78.1,7.83,7.83,0,0,0,1.66-4.42.5.5,0,0,0-.5-.5c-1.73,0-2.75,1.76-2.67,3.32a5.15,5.15,0,0,0,.78,2.53,1.28,1.28,0,0,0,.92.61,1.39,1.39,0,0,0,1.1-.48A5.37,5.37,0,0,0,193,97.93a4.41,4.41,0,0,0,.14-2.36,1.19,1.19,0,0,0-1.77-.82,3.25,3.25,0,0,0-.8.77,12.26,12.26,0,0,0-.76,1c-.94,1.44-1.63,3.4-.57,5a.5.5,0,0,0,.56.23,2.67,2.67,0,0,0,1.84-3.16c-.39-1.24-1.93-2.12-3-1.1a1.73,1.73,0,0,0,.41,2.9,2,2,0,0,0,1.75-.3,2.54,2.54,0,0,0,.93-1.81,2.94,2.94,0,0,0-.51-2.18c-.68-.74-1.57-.09-1.84.67a.48.48,0,0,0,.13.48,2.25,2.25,0,0,0,1.24.7c.63.12.9-.85.27-1Z" transform="translate(-0.01)"/>
          <g>
            <path class="cls-2" d="M197.38,97.65a69.33,69.33,0,0,0-5.28-36.41A79.7,79.7,0,0,0,174,35.29a101.07,101.07,0,0,0-9.16-7.62,89.92,89.92,0,0,0-11.51-7.52,65.3,65.3,0,0,0-36.18-7.59A57.75,57.75,0,0,0,89.44,22.87c-.73.51-1.45,1-2.16,1.57-.5.39,0,1.26.51.86a57.84,57.84,0,0,1,27-11.48,63.17,63.17,0,0,1,34.64,5.49,77.4,77.4,0,0,1,12.77,7.63c3,2.16,5.9,4.39,8.66,6.82a79.53,79.53,0,0,1,19,25,68.64,68.64,0,0,1,6.88,35c-.09,1.28-.22,2.55-.38,3.82-.08.64.92.63,1,0Z" transform="translate(-0.01)"/>
            <path class="cls-2" d="M87.51,17.61l-1.19,5.1c-.19.83-.42,1.66-.57,2.49a1,1,0,0,0,.69,1.25,11.31,11.31,0,0,0,2.26.19l2.62.16,5.22.31c.65,0,.64-1,0-1l-8.94-.54c-.17,0-.78.05-.89-.1a3.87,3.87,0,0,1,.24-1l.5-2.16,1-4.41c.15-.63-.81-.89-1-.27Z" transform="translate(-0.01)"/>
          </g>
          <path class="cls-2" d="M196.7,98.33a1.41,1.41,0,0,1-.81-.44l.13.49a.48.48,0,0,1,.29-.3h-.26c.36.06.37.81.38,1.09a1.84,1.84,0,0,1-.43,1.37c-.51.49-1.5.31-1.26-.53a.85.85,0,0,1,.61-.63,1,1,0,0,1,.93.6,1.61,1.61,0,0,1-1,2.15l.56.23a3,3,0,0,1,0-3,9.29,9.29,0,0,1,.95-1.53c.14-.17.69-1,1-.88.12,0,.17.35.18.45a2.88,2.88,0,0,1,0,.88,5,5,0,0,1-.59,1.77c-.12.21-.67,1.23-1,.91a2.2,2.2,0,0,1-.35-.66,5.26,5.26,0,0,1-.28-1c-.2-1.09.25-2.76,1.62-2.74l-.5-.5a6.62,6.62,0,0,1-1.37,3.71l.79.1c-.15-.24-.54-.81-.3-1.11s.42-.09.6,0c.88.44.3,1.86.06,2.52l.61-.35a1.83,1.83,0,0,1-1.45-.82.79.79,0,0,1,0-.62c.05-.09.17-.3.3-.28a.52.52,0,0,0,.62-.35.51.51,0,0,0-.35-.62,1.54,1.54,0,0,0-1.63,1.82,2.45,2.45,0,0,0,2.23,1.83.51.51,0,0,0,.61-.35,4.19,4.19,0,0,0,.35-2.53,1.79,1.79,0,0,0-1.24-1.27,1.39,1.39,0,0,0-1.55.47,2,2,0,0,0,.26,2.17.5.5,0,0,0,.78.1,7.83,7.83,0,0,0,1.66-4.42.5.5,0,0,0-.5-.5c-1.73,0-2.75,1.75-2.67,3.31a5.18,5.18,0,0,0,.78,2.54,1.31,1.31,0,0,0,.92.61,1.46,1.46,0,0,0,1.1-.48,5.4,5.4,0,0,0,1.25-2.27,4.38,4.38,0,0,0,.14-2.35,1.19,1.19,0,0,0-1.77-.83,3.29,3.29,0,0,0-.8.78,10.66,10.66,0,0,0-.76,1c-.94,1.44-1.63,3.4-.57,5a.51.51,0,0,0,.56.23,2.69,2.69,0,0,0,1.84-3.17c-.39-1.23-1.93-2.11-3-1.1a1.74,1.74,0,0,0,.41,2.91,2,2,0,0,0,1.75-.3,2.56,2.56,0,0,0,.93-1.82,3,3,0,0,0-.51-2.18c-.68-.74-1.57-.09-1.84.67a.49.49,0,0,0,.13.49,2.23,2.23,0,0,0,1.24.69c.63.12.9-.84.27-1Z" transform="translate(-0.01)"/>
        </g>
        <g>
          <path class="cls-2" d="M156.4,94a24.11,24.11,0,0,1,2.21-2.42,13.37,13.37,0,0,1,1.2-1.06c.15-.11.25-.19.31,0a1.55,1.55,0,0,1,.06.31,3.47,3.47,0,0,1,0,.72c-.13,1.93-1.33,3.64-1.22,5.61,0,.48.77.49.75,0-.12-2.28,1.55-4.29,1.18-6.59-.08-.49-.36-1-.94-.94s-1.06.66-1.46,1a23.33,23.33,0,0,0-2.63,2.81c-.29.38.23.91.53.53Z" transform="translate(-0.01)"/>
          <path class="cls-2" d="M156.76,98.21a10.27,10.27,0,0,1,5.16-.32c.47.09.67-.63.2-.73a11,11,0,0,0-5.56.33c-.46.15-.26.87.2.72Z" transform="translate(-0.01)"/>
          <path class="cls-2" d="M166.53,91.66a24,24,0,0,0-4,4.62.38.38,0,0,0,.33.56,17.5,17.5,0,0,1,4.27.38c.47.1.67-.62.2-.72a18.16,18.16,0,0,0-4.47-.41l.32.57a23.09,23.09,0,0,1,3.84-4.47c.36-.32-.17-.85-.53-.53Z" transform="translate(-0.01)"/>
          <path class="cls-2" d="M169,91.09a21.4,21.4,0,0,0,0,5.54.41.41,0,0,0,.38.38.38.38,0,0,0,.37-.38,21.4,21.4,0,0,1,0-5.54.39.39,0,0,0-.38-.38.38.38,0,0,0-.37.38Z" transform="translate(-0.01)"/>
          <path class="cls-2" d="M171.11,91.38a1.5,1.5,0,0,1,1.3.65,1.84,1.84,0,0,1,.23,1.61,2.44,2.44,0,0,1-1,1.29,3.43,3.43,0,0,0-1.25,1.17.38.38,0,0,0,.42.55,5.39,5.39,0,0,1,3.13-.1.37.37,0,0,0,.36-.1l.29-.35c.3-.37-.23-.9-.53-.53l-.29.35.37-.1a6.24,6.24,0,0,0-3.53.11l.42.55c.31-.59,1-.84,1.46-1.26a3,3,0,0,0,1-1.86,2.39,2.39,0,0,0-2.35-2.73c-.48,0-.48.78,0,.75Z" transform="translate(-0.01)"/>
          <path class="cls-2" d="M175.79,91.05a5.39,5.39,0,0,0-1.2,3.09,2.34,2.34,0,0,0,1.16,2.34,2,2,0,0,0,2.39-1.18,5.7,5.7,0,0,0,.26-3.37,2.27,2.27,0,0,0-.9-1.46,1.39,1.39,0,0,0-1.56,0c-.38.28,0,.93.38.65a.68.68,0,0,1,.83,0,1.6,1.6,0,0,1,.52,1,5.24,5.24,0,0,1-.09,2.55c-.18.59-.81,1.39-1.53,1.12s-.72-1-.71-1.58a4.53,4.53,0,0,1,1-2.64.37.37,0,1,0-.53-.53Z" transform="translate(-0.01)"/>
          <path class="cls-2" d="M179.88,89.26a3.5,3.5,0,0,0-.46,1.07,2.55,2.55,0,0,0-.09,1.13.77.77,0,0,0,.93.63,1,1,0,0,0,.7-1,4.85,4.85,0,0,0,0-.66c0-.25,0-.49,0-.74a.38.38,0,0,0-.38-.37.37.37,0,0,0-.37.37,11.39,11.39,0,0,1,.05,1.31s0,.15,0,.09,0,.07,0,.11l0,.07s0,0,0,0,0,0,0,0l0,0h0l0,0H180a.06.06,0,0,1,.07,0l-.05,0s.05,0,0,0,0,0,0,0a.08.08,0,0,1,0,0c0,.08,0,0,0,0a.09.09,0,0,0,0-.05s0,.05,0,0,0-.07,0-.11a1.93,1.93,0,0,1,.06-.49,2.94,2.94,0,0,1,.42-1,.38.38,0,0,0-.14-.51.38.38,0,0,0-.51.13Z" transform="translate(-0.01)"/>
          <path class="cls-2" d="M179.42,93.47l1.67-.21a.39.39,0,0,0,.27-.11.41.41,0,0,0,.11-.26c0-.18-.17-.4-.38-.38l-1.67.21a.38.38,0,0,0-.26.11.35.35,0,0,0-.11.27c0,.18.17.4.37.37Z" transform="translate(-0.01)"/>
          <path class="cls-2" d="M155.93,89a8.89,8.89,0,0,0,.09,11.35.38.38,0,0,0,.64-.26v-.34a.38.38,0,0,0-.75,0v.34l.64-.27a8.11,8.11,0,0,1-.09-10.29c.31-.37-.22-.91-.53-.53Z" transform="translate(-0.01)"/>
          <path class="cls-2" d="M180.91,88.48a9.9,9.9,0,0,1,1.35,2,4.67,4.67,0,0,1,.32,2.76,15.54,15.54,0,0,1-.69,2.51,5.55,5.55,0,0,1-1.12,2.17c-.34.35.19.88.53.53a5.93,5.93,0,0,0,1.24-2.27,16.34,16.34,0,0,0,.81-3.07,5.39,5.39,0,0,0-.35-2.81A10.43,10.43,0,0,0,181.44,88c-.3-.38-.83.16-.53.53Z" transform="translate(-0.01)"/>
          <path class="cls-2" d="M185.93,87.44c-.81,0-1.19.85-1.38,1.54a2.82,2.82,0,0,0-.1,1.41,1.82,1.82,0,0,0,.69,1,1.77,1.77,0,0,0,2.19,0,2.09,2.09,0,0,0,.72-2.12,2.36,2.36,0,0,0-.67-1.15A3,3,0,0,0,186,87.4a.37.37,0,0,0-.2.72,2.51,2.51,0,0,1,1,.37,1.63,1.63,0,0,1,.5.63,1.36,1.36,0,0,1-.19,1.43,1.06,1.06,0,0,1-1.28.33,1.14,1.14,0,0,1-.52-.5,1.24,1.24,0,0,1-.06-.85,4,4,0,0,1,.29-.91,1.29,1.29,0,0,1,.22-.32.49.49,0,0,1,.23-.11c.48,0,.49-.77,0-.75Z" transform="translate(-0.01)"/>
        </g>
        <g>
          <path class="cls-2" d="M118.59,47.81a5.85,5.85,0,0,1,3.13-.88l-.33-.57a23.19,23.19,0,0,1-3.47,4.3.38.38,0,0,0,.27.64.65.65,0,0,0,.65-.35c.23-.43-.41-.81-.64-.38,0,0,.11,0,0,0l.26.64A24.06,24.06,0,0,0,122,46.74a.38.38,0,0,0-.32-.56,6.66,6.66,0,0,0-3.51,1c-.41.26,0,.91.38.65Z" transform="translate(-0.01)"/>
          <path class="cls-2" d="M116.61,50.12a16.61,16.61,0,0,1,2.69,2,.39.39,0,0,0,.53,0,.37.37,0,0,0,0-.53A18.58,18.58,0,0,0,117,49.47c-.41-.25-.79.4-.38.65Z" transform="translate(-0.01)"/>
          <path class="cls-2" d="M92.51,34.27a21,21,0,0,1,3-.55c.49,0,1-.09,1.48-.1.11,0,.44-.07.53,0s-.07.34-.12.44c-.68,1.23-2,1.91-3.09,2.72a6.74,6.74,0,0,0-1.72,1.73c-.27.41.38.78.64.38.88-1.35,2.43-2,3.62-3A4.17,4.17,0,0,0,98.31,34a.84.84,0,0,0-.58-1.06,5.3,5.3,0,0,0-1.59,0,23.7,23.7,0,0,0-3.83.62.38.38,0,0,0,.2.73Z" transform="translate(-0.01)"/>
          <path class="cls-2" d="M90.29,37.91a10.53,10.53,0,0,1,4.38,3c.32.36.85-.17.53-.53a11.38,11.38,0,0,0-4.71-3.23c-.45-.16-.65.56-.2.73Z" transform="translate(-0.01)"/>
          <path class="cls-2" d="M102.16,38.79a23,23,0,0,0-6,1.22.39.39,0,0,0-.09.69,18.55,18.55,0,0,1,3.24,3c.31.37.84-.16.53-.53a19.41,19.41,0,0,0-3.39-3.14l-.09.69a22,22,0,0,1,5.78-1.2c.48,0,.48-.79,0-.75Z" transform="translate(-0.01)"/>
          <path class="cls-2" d="M104.45,39.82a21,21,0,0,0-3.37,4.58c-.23.42.42.8.65.37A20.4,20.4,0,0,1,105,40.35c.33-.35-.2-.88-.53-.53Z" transform="translate(-0.01)"/>
          <path class="cls-2" d="M106,41.47a1.75,1.75,0,0,1,0,2.68,2.22,2.22,0,0,1-1.54.52,4.28,4.28,0,0,0-2,.17c-.32.15-.19.59.08.69a5.6,5.6,0,0,1,2.54,1.85.41.41,0,0,0,.43.18l.44-.11c.47-.11.27-.83-.2-.72l-.44.1.42.17a6.48,6.48,0,0,0-3-2.19l.09.68a2.65,2.65,0,0,1,1.22-.09,3.77,3.77,0,0,0,1.06,0,2.83,2.83,0,0,0,1.72-1.07,2.47,2.47,0,0,0-.51-3.47c-.39-.28-.77.37-.37.65Z" transform="translate(-0.01)"/>
          <path class="cls-2" d="M109.93,44.17a5.12,5.12,0,0,0-2.78,1.74,2.29,2.29,0,0,0-.29,2.85,2.11,2.11,0,0,0,2.64.22,4.42,4.42,0,0,0,1.16-1.08,6.05,6.05,0,0,0,.92-1.47,2.27,2.27,0,0,0,.09-1.77,1.41,1.41,0,0,0-1.25-.91c-.48,0-.48.73,0,.75A.69.69,0,0,1,111,45a1.57,1.57,0,0,1-.13,1.14,6.06,6.06,0,0,1-.72,1.16,4.17,4.17,0,0,1-.85.88,1.49,1.49,0,0,1-1.84.11c-.55-.53-.13-1.42.24-1.92a4.43,4.43,0,0,1,2.42-1.51.37.37,0,0,0-.2-.72Z" transform="translate(-0.01)"/>
          <path class="cls-2" d="M114.41,45.28a3.66,3.66,0,0,0-1,.58,2.33,2.33,0,0,0-.75.84.92.92,0,0,0,0,.76.77.77,0,0,0,.49.39,1.06,1.06,0,0,0,1.07-.43,9.3,9.3,0,0,0,.8-1.17.36.36,0,0,0-.13-.51.37.37,0,0,0-.51.13c-.18.29-.37.58-.57.85l-.07.11,0,.05,0,0a.43.43,0,0,1-.09.1l0,0s0,0,0,0l-.08.05s-.06,0,0,0,0,0,0,0l0,0c-.06,0,.06,0,0,0s-.08,0-.08,0,.09,0,0,0h0s0,0,0,0,0,0,0,0,0-.08,0,0,0,0,0,0,0,0,0,0,0,0,0,0v0s0,0,0,0,0-.06,0,0,0,0,0,0v0c0-.08,0,0,0,0l0-.09,0-.05s0-.06,0,0,.1-.12.14-.17l.34-.31s.05,0,0,0,0,0,0,0l.1-.06.21-.14.22-.11.06,0s0,0,0,0a.29.29,0,0,1,.13-.05.39.39,0,0,0,.27-.46.38.38,0,0,0-.46-.27Z" transform="translate(-0.01)"/>
          <path class="cls-2" d="M111.51,48.43l1.47.89a.38.38,0,1,0,.38-.65l-1.47-.89a.38.38,0,1,0-.38.65Z" transform="translate(-0.01)"/>
          <path class="cls-2" d="M95,29.94a8.8,8.8,0,0,0-6.67,9.2.38.38,0,0,0,.7.19l.19-.28c.28-.39-.37-.77-.65-.38l-.19.28.7.19a8.07,8.07,0,0,1,6.12-8.48c.47-.1.27-.83-.2-.72Z" transform="translate(-0.01)"/>
          <path class="cls-2" d="M115.66,45.26a9.39,9.39,0,0,1-.15,2.8,4.76,4.76,0,0,1-1.29,2.12,12.82,12.82,0,0,1-1.88,1.49,5.83,5.83,0,0,1-2.46,1.2c-.48.07-.28.79.2.72a6.35,6.35,0,0,0,2.64-1.27,15,15,0,0,0,2.12-1.7,5.36,5.36,0,0,0,1.37-2.3,9.82,9.82,0,0,0,.2-3.06c0-.48-.77-.49-.75,0Z" transform="translate(-0.01)"/>
        </g>
        <g>
          <path class="cls-2" d="M120.05,148.24c.91.1,2.17.29,2.35,1.39s-1,1-1.63,1.1a2.36,2.36,0,0,0-1.39.57.38.38,0,0,0,.27.64l4,.38a.38.38,0,1,0,0-.75l-4-.38.26.64a2,2,0,0,1,1.22-.4,2.9,2.9,0,0,0,1.41-.42,1.81,1.81,0,0,0-.33-2.92,4.79,4.79,0,0,0-2.16-.6.38.38,0,0,0,0,.75Z" transform="translate(-0.01)"/>
          <path class="cls-2" d="M87.13,155.68a27.57,27.57,0,0,1,2.57-2.83,18.11,18.11,0,0,1,1.4-1.23c.2-.15.38-.23.47,0s.05.25.07.38a4.82,4.82,0,0,1,0,.85c-.15,2.25-1.55,4.23-1.42,6.53,0,.48.77.49.75,0-.15-2.65,1.8-5,1.37-7.66-.09-.54-.38-1.12-1-1.05s-1.22.77-1.66,1.17a25.76,25.76,0,0,0-3.07,3.28c-.29.37.23.91.53.53Z" transform="translate(-0.01)"/>
          <path class="cls-2" d="M87.57,160.53a12,12,0,0,1,6.05-.38c.47.1.67-.63.2-.72a12.72,12.72,0,0,0-6.45.38c-.45.14-.26.87.2.72Z" transform="translate(-0.01)"/>
          <path class="cls-2" d="M99,153a27.45,27.45,0,0,0-4.6,5.37.37.37,0,0,0,.32.56,21,21,0,0,1,5,.44c.47.11.67-.62.19-.72a21,21,0,0,0-5.19-.47l.33.57a26.6,26.6,0,0,1,4.48-5.22c.36-.32-.17-.85-.53-.53Z" transform="translate(-0.01)"/>
          <path class="cls-2" d="M101.86,152.29a24.51,24.51,0,0,0,0,6.46.38.38,0,0,0,.37.37c.19,0,.41-.17.38-.37a24.51,24.51,0,0,1,0-6.46c0-.2-.19-.37-.37-.37s-.35.17-.38.37Z" transform="translate(-0.01)"/>
          <path class="cls-2" d="M104.31,152.57a1.82,1.82,0,0,1,1.57.79,2.17,2.17,0,0,1,.27,1.92,2.93,2.93,0,0,1-1.21,1.54,4,4,0,0,0-1.43,1.34.38.38,0,0,0,.42.55,6.41,6.41,0,0,1,3.68-.12.35.35,0,0,0,.36-.1l.33-.4c.31-.38-.22-.91-.53-.53l-.33.4.37-.09a7.09,7.09,0,0,0-4.08.12l.42.55c.36-.69,1.14-1,1.71-1.48a3.4,3.4,0,0,0,1.12-2.13,2.71,2.71,0,0,0-2.67-3.11c-.48,0-.48.77,0,.75Z" transform="translate(-0.01)"/>
          <path class="cls-2" d="M109.81,152.29a6.18,6.18,0,0,0-1.39,3.56,2.66,2.66,0,0,0,1.31,2.66,2.23,2.23,0,0,0,2.71-1.34,6.59,6.59,0,0,0,.3-3.88,2.64,2.64,0,0,0-1-1.67,1.55,1.55,0,0,0-1.76,0c-.39.28,0,.93.38.65a.84.84,0,0,1,1,.06,2,2,0,0,1,.63,1.2,6.22,6.22,0,0,1-.1,3c-.23.72-1,1.67-1.86,1.35-.73-.27-.89-1.23-.88-1.91a5.35,5.35,0,0,1,1.17-3.11c.29-.38-.23-.91-.53-.53Z" transform="translate(-0.01)"/>
          <path class="cls-2" d="M114.58,150.2a4.45,4.45,0,0,0-.54,1.22,3,3,0,0,0-.09,1.29.82.82,0,0,0,1,.69,1.16,1.16,0,0,0,.77-1.09,6.77,6.77,0,0,0,0-.78c0-.28,0-.57,0-.85a.38.38,0,0,0-.37-.38.38.38,0,0,0-.38.38,12.79,12.79,0,0,1,.06,1.52,1,1,0,0,1,0,.24.35.35,0,0,1-.1.19c0,.05,0,0,0,0s0,0,0,0h-.07s0,0,0,0a0,0,0,0,1,.05,0l-.05,0s0,0,0,0,0,0,0,0l0-.06c0,.07,0-.05,0-.07a.64.64,0,0,0,0-.07s0,0,0,0a.53.53,0,0,1,0-.13,3,3,0,0,1,.07-.59,3.47,3.47,0,0,1,.5-1.19.38.38,0,1,0-.65-.38Z" transform="translate(-0.01)"/>
          <path class="cls-2" d="M114,155l2-.25a.38.38,0,0,0,.37-.37c0-.18-.17-.4-.37-.38l-2,.25a.38.38,0,0,0-.37.37c0,.18.16.4.37.38Z" transform="translate(-0.01)"/>
          <path class="cls-2" d="M86.67,149.92a10.29,10.29,0,0,0,.1,13.14.38.38,0,0,0,.64-.26v-.39a.38.38,0,0,0-.75,0v.39l.64-.27a9.53,9.53,0,0,1-.1-12.08c.31-.37-.22-.9-.53-.53Z" transform="translate(-0.01)"/>
          <path class="cls-2" d="M115.77,149.21a11.74,11.74,0,0,1,1.58,2.32,5.52,5.52,0,0,1,.38,3.26,18.27,18.27,0,0,1-.8,2.92,6.54,6.54,0,0,1-1.33,2.56c-.33.34.2.87.53.53a6.85,6.85,0,0,0,1.43-2.62,17.63,17.63,0,0,0,.94-3.56,6.12,6.12,0,0,0-.4-3.25,12.16,12.16,0,0,0-1.8-2.69c-.3-.38-.83.16-.53.53Z" transform="translate(-0.01)"/>
        </g>
        <g>
          <path class="cls-2" d="M232.53,87l1.39.17a4.94,4.94,0,0,1,1.21.2c.06,0,.21.1.23.16s0,0,0,0a.61.61,0,0,1-.2.09c-.44.13-.9.24-1.35.36a.4.4,0,0,0-.28.37,1.28,1.28,0,0,0,.55.91c.21.17.57.35.6.65a.77.77,0,0,1-.49.71,2.38,2.38,0,0,1-1.49-.09.38.38,0,0,0-.2.73,3.52,3.52,0,0,0,1.82.11,1.65,1.65,0,0,0,1.06-1A1.24,1.24,0,0,0,235,89c-.2-.18-.7-.43-.72-.69l-.27.36.89-.24a3.11,3.11,0,0,0,.78-.26.76.76,0,0,0,.16-1.24,2.29,2.29,0,0,0-1.41-.46l-1.9-.24c-.2,0-.37.19-.37.37a.38.38,0,0,0,.37.38Z" transform="translate(-0.01)"/>
          <path class="cls-2" d="M203.07,93.79a25,25,0,0,1,2.3-2.53,14.91,14.91,0,0,1,1.26-1.11c.15-.12.28-.2.35,0a3.23,3.23,0,0,1,.06.33,3.76,3.76,0,0,1,0,.75c-.13,2-1.39,3.8-1.28,5.86,0,.48.78.49.75,0-.12-2.38,1.62-4.47,1.23-6.88-.08-.5-.35-1-.95-1s-1.11.69-1.52,1.06a24.59,24.59,0,0,0-2.74,2.94c-.3.38.23.91.53.53Z" transform="translate(-0.01)"/>
          <path class="cls-2" d="M203.44,98.15a10.76,10.76,0,0,1,5.4-.34c.47.1.68-.63.2-.72a11.54,11.54,0,0,0-5.8.34c-.45.15-.26.87.2.72Z" transform="translate(-0.01)"/>
          <path class="cls-2" d="M213.67,91.34a24.38,24.38,0,0,0-4.13,4.82.37.37,0,0,0,.32.56,18.16,18.16,0,0,1,4.47.4c.47.1.67-.62.2-.73a19.3,19.3,0,0,0-4.67-.42l.33.57a23.86,23.86,0,0,1,4-4.67c.36-.33-.17-.85-.53-.53Z" transform="translate(-0.01)"/>
          <path class="cls-2" d="M216.21,90.73a22,22,0,0,0,0,5.79.39.39,0,0,0,.38.37c.18,0,.4-.17.37-.37a22,22,0,0,1,0-5.79c0-.2-.2-.37-.38-.38a.38.38,0,0,0-.37.38Z" transform="translate(-0.01)"/>
          <path class="cls-2" d="M218.44,91a1.59,1.59,0,0,1,1.37.68,1.93,1.93,0,0,1,.24,1.7A2.58,2.58,0,0,1,219,94.75,3.74,3.74,0,0,0,217.68,96a.38.38,0,0,0,.43.55,5.72,5.72,0,0,1,3.28-.11.34.34,0,0,0,.36-.09l.3-.37c.3-.37-.23-.9-.53-.53l-.3.37.37-.1a6.41,6.41,0,0,0-3.68.11l.42.55c.32-.61,1-.88,1.52-1.32a3,3,0,0,0,1-1.93,2.47,2.47,0,0,0-2.43-2.83c-.48,0-.48.77,0,.75Z" transform="translate(-0.01)"/>
          <path class="cls-2" d="M223.34,90.7a5.6,5.6,0,0,0-1.25,3.22,2.41,2.41,0,0,0,1.2,2.43,2.05,2.05,0,0,0,2.48-1.23,5.92,5.92,0,0,0,.26-3.51,2.3,2.3,0,0,0-.92-1.51,1.43,1.43,0,0,0-1.62,0c-.38.28,0,.93.38.65a.71.71,0,0,1,.88.05,1.7,1.7,0,0,1,.56,1,5.61,5.61,0,0,1-.1,2.67c-.2.63-.85,1.47-1.62,1.18s-.76-1.08-.75-1.67a4.74,4.74,0,0,1,1-2.76c.3-.38-.23-.91-.53-.53Z" transform="translate(-0.01)"/>
          <path class="cls-2" d="M227.61,88.83a4.06,4.06,0,0,0-.48,1.11,2.76,2.76,0,0,0-.09,1.18.78.78,0,0,0,1,.64,1.08,1.08,0,0,0,.72-1,5.3,5.3,0,0,0,0-.69c0-.26,0-.51-.05-.77a.38.38,0,0,0-.37-.37.38.38,0,0,0-.38.37,8.84,8.84,0,0,1,.05,1.36s0,.16,0,.1l0,.12a.25.25,0,0,1,0,.07s0,0,0,0h0a.12.12,0,0,1-.05,0s0,0,0,0h0s0,0,0,0h-.06c.05,0,.05,0,0,0a.07.07,0,0,1,.06,0s0,0-.05,0l0,0s0,0,0,0l0,0c0,.08,0,0,0,0s0,0,0-.06,0,0,0,0v-.12a2.64,2.64,0,0,1,0-.29v-.06l0-.16a3,3,0,0,1,.44-1.07.37.37,0,0,0-.13-.51.4.4,0,0,0-.52.13Z" transform="translate(-0.01)"/>
          <path class="cls-2" d="M227.12,93.2l1.74-.22a.39.39,0,0,0,.27-.11.41.41,0,0,0,.11-.26c0-.18-.17-.4-.38-.38l-1.74.22a.36.36,0,0,0-.26.11.35.35,0,0,0-.11.27c0,.18.16.4.37.37Z" transform="translate(-0.01)"/>
          <path class="cls-2" d="M202.6,88.58a9.25,9.25,0,0,0,.09,11.83.37.37,0,0,0,.64-.26V99.8a.38.38,0,0,0-.75,0v.35l.64-.27a8.47,8.47,0,0,1-.09-10.77c.3-.37-.23-.91-.53-.53Z" transform="translate(-0.01)"/>
          <path class="cls-2" d="M228.69,88a10.81,10.81,0,0,1,1.41,2.07,4.88,4.88,0,0,1,.33,2.9,17.21,17.21,0,0,1-.71,2.62,5.81,5.81,0,0,1-1.18,2.27c-.34.35.19.88.53.53A6.19,6.19,0,0,0,230.36,96a16,16,0,0,0,.84-3.2,5.53,5.53,0,0,0-.36-2.93,11,11,0,0,0-1.62-2.43c-.3-.37-.83.16-.53.53Z" transform="translate(-0.01)"/>
        </g>
        <g>
          <path class="cls-2" d="M84.55,44.74a21.09,21.09,0,0,1,3-.39c.5,0,1,0,1.51,0,.1,0,.44,0,.51,0s-.1.31-.15.39c-.71,1.19-2.06,1.8-3.16,2.55a6.55,6.55,0,0,0-1.75,1.61c-.29.39.36.77.64.38.92-1.28,2.49-1.87,3.69-2.81a3.86,3.86,0,0,0,1.45-1.84.82.82,0,0,0-.59-1,6,6,0,0,0-1.52,0,22.93,22.93,0,0,0-3.78.44c-.47.1-.27.82.2.73Z" transform="translate(-0.01)"/>
          <path class="cls-2" d="M82.22,48.2a10.44,10.44,0,0,1,4.14,3.18.37.37,0,0,0,.53-.53,11.17,11.17,0,0,0-4.47-3.37.37.37,0,0,0-.46.26.38.38,0,0,0,.26.46Z" transform="translate(-0.01)"/>
          <path class="cls-2" d="M93.76,49.59a22.78,22.78,0,0,0-5.91.93.38.38,0,0,0-.16.63,18.58,18.58,0,0,1,3,3.09.39.39,0,0,0,.51.14.38.38,0,0,0,.13-.52,18.63,18.63,0,0,0-3.16-3.24l-.17.63a21.68,21.68,0,0,1,5.71-.91.38.38,0,0,0,0-.75Z" transform="translate(-0.01)"/>
          <path class="cls-2" d="M96,50.73a20.47,20.47,0,0,0-3.49,4.32c-.25.41.4.79.65.38a19.63,19.63,0,0,1,3.37-4.17c.35-.34-.18-.86-.53-.53Z" transform="translate(-0.01)"/>
          <path class="cls-2" d="M97.36,52.36a1.69,1.69,0,0,1,0,2.61,2.07,2.07,0,0,1-1.49.49,4.33,4.33,0,0,0-1.93,0,.38.38,0,0,0,0,.72,5.59,5.59,0,0,1,2.39,1.94.38.38,0,0,0,.42.17l.43-.08c.48-.09.28-.81-.19-.72l-.44.08.42.17a6.38,6.38,0,0,0-2.83-2.28v.72c.71-.28,1.48.06,2.22,0a2.78,2.78,0,0,0,1.77-.93,2.43,2.43,0,0,0-.24-3.43.4.4,0,0,0-.53,0,.38.38,0,0,0,0,.53Z" transform="translate(-0.01)"/>
          <path class="cls-2" d="M101.12,55.22a5,5,0,0,0-2.83,1.63,2.21,2.21,0,0,0-.35,2.74,2.05,2.05,0,0,0,2.56.33,4.18,4.18,0,0,0,1.2-1,6.25,6.25,0,0,0,1-1.38,2.31,2.31,0,0,0,.17-1.71,1.41,1.41,0,0,0-1.22-1c-.48,0-.48.71,0,.75.3,0,.47.33.54.58a1.63,1.63,0,0,1-.19,1.08,6.13,6.13,0,0,1-.75,1.08,4.12,4.12,0,0,1-.89.83,1.41,1.41,0,0,1-1.77,0c-.5-.52-.08-1.37.31-1.83a4.33,4.33,0,0,1,2.45-1.39c.47-.09.27-.81-.2-.72Z" transform="translate(-0.01)"/>
          <path class="cls-2" d="M105.45,56.52a3.33,3.33,0,0,0-1,.49,2.33,2.33,0,0,0-.81.84.87.87,0,0,0-.07.67.76.76,0,0,0,.5.46,1.05,1.05,0,0,0,1.07-.38,11.28,11.28,0,0,0,.84-1.12.37.37,0,1,0-.65-.37l-.29.41-.14.19,0,0-.08.1a2.41,2.41,0,0,1-.3.33c-.07.06,0,0,0,0s-.07.06-.09,0,.08,0,0,0h0s-.06,0,0,0h-.06c-.05,0,0,0,0,0s-.11,0,0,0,0,0,0,0,.06,0,0,0,0,.06,0,0,0,.06,0,0,0,0,0,0v0s0,.09,0,0v0s0-.07,0,0,0,0,0,0a.56.56,0,0,1,0-.08s0-.06,0,0l0,0a1.21,1.21,0,0,1,.16-.16l.15-.15.08-.06h0l.06,0a2.5,2.5,0,0,1,.41-.25l.11-.06.06,0h0l.24-.09a.37.37,0,1,0-.2-.72Z" transform="translate(-0.01)"/>
          <path class="cls-2" d="M102.5,59.48l1.41.94a.38.38,0,0,0,.51-.14.38.38,0,0,0-.13-.51l-1.41-.94a.38.38,0,0,0-.51.14.38.38,0,0,0,.13.51Z" transform="translate(-0.01)"/>
          <path class="cls-2" d="M87.18,40.62a8.61,8.61,0,0,0-6.92,8.7.38.38,0,0,0,.7.19l.2-.26c.3-.38-.35-.75-.64-.38l-.21.27.7.18a7.86,7.86,0,0,1,6.37-8c.47-.08.27-.81-.2-.72Z" transform="translate(-0.01)"/>
          <path class="cls-2" d="M106.69,56.57a9.72,9.72,0,0,1-.26,2.69,4.58,4.58,0,0,1-1.34,2,13.47,13.47,0,0,1-1.9,1.37,5.59,5.59,0,0,1-2.4,1.07c-.48,0-.48.79,0,.75a6.17,6.17,0,0,0,2.64-1.08,15.41,15.41,0,0,0,2.19-1.58,5.31,5.31,0,0,0,1.47-2.17,9.6,9.6,0,0,0,.35-3.07.38.38,0,0,0-.75,0Z" transform="translate(-0.01)"/>
          <path class="cls-2" d="M110.28,56.62l-2.07,1.59a.38.38,0,0,0,.09.68,6.68,6.68,0,0,1,2,1.29c.29.27.57.66,1,.65a.65.65,0,0,0,.55-.94.38.38,0,0,0-.65.38s0-.15,0-.18.1,0,0,0L111,59.8a8.21,8.21,0,0,0-.77-.67,7.36,7.36,0,0,0-1.71-1l.09.69,2.07-1.59a.39.39,0,0,0,.14-.52.38.38,0,0,0-.51-.13Z" transform="translate(-0.01)"/>
          <path class="cls-2" d="M112.07,57.32a35.92,35.92,0,0,0-4.29,3.7.38.38,0,0,0,0,.53.68.68,0,0,0,.79.1c.43-.22.06-.87-.37-.65a.09.09,0,0,1,.11,0v.53A35.19,35.19,0,0,1,112.45,58a.38.38,0,1,0-.38-.65Z" transform="translate(-0.01)"/>
        </g>
        <g>
          <path class="cls-2" d="M146.7,40.93a72.71,72.71,0,0,0-1.07,9.54c0,.4.5.47.7.19l.64-.92c.28-.39-.37-.77-.64-.38l-.65.92.7.19a71.17,71.17,0,0,1,1-9.34c.08-.48-.64-.68-.72-.2Z" transform="translate(-0.01)"/>
          <path class="cls-2" d="M149.28,41.88A3.32,3.32,0,0,1,152,45.75a3.38,3.38,0,0,1-1.4,2.16,10.28,10.28,0,0,0-2.29,1.5.38.38,0,0,0,.46.59,6,6,0,0,1,4.81,0c.44.19.82-.45.38-.65a6.8,6.8,0,0,0-5.57,0l.45.59c.72-.81,1.85-1,2.64-1.77a4.21,4.21,0,0,0,1.31-2.67,4,4,0,0,0-3.33-4.34c-.47-.08-.67.65-.2.72Z" transform="translate(-0.01)"/>
          <path class="cls-2" d="M157.12,42a9.06,9.06,0,0,0-1.9,3.79c-.26,1.13-.45,2.62.27,3.63a1.62,1.62,0,0,0,1.4.71,2.45,2.45,0,0,0,1.68-1,5.53,5.53,0,0,0,1.11-3.79c-.1-1.27-.7-3.1-2.24-3.12a.38.38,0,0,0,0,.75c1,0,1.39,1.45,1.48,2.25a5,5,0,0,1-.71,3.12c-.47.75-1.64,1.6-2.21.47a4.4,4.4,0,0,1,0-2.89,8.21,8.21,0,0,1,1.69-3.39c.3-.37-.22-.9-.53-.53Z" transform="translate(-0.01)"/>
          <path class="cls-2" d="M161.56,40.58a3.51,3.51,0,0,0-1.12,1.74,1.63,1.63,0,0,0,.64,1.67,1.4,1.4,0,0,0,1.78-.46,2.26,2.26,0,0,0,.38-1.85,2.34,2.34,0,0,0-1.18-1.59c-.43-.23-.81.42-.38.64a1.68,1.68,0,0,1,.76,2.05,1,1,0,0,1-.41.5.51.51,0,0,1-.51.09.55.55,0,0,1-.15-.11c-.05,0,0,0-.06-.07l-.07-.13a1,1,0,0,1-.07-.58s0-.08,0-.11a1.59,1.59,0,0,1,.07-.2,2.77,2.77,0,0,1,.22-.37,6.68,6.68,0,0,1,.61-.69.38.38,0,0,0-.53-.53Z" transform="translate(-0.01)"/>
          <path class="cls-2" d="M161,45.39a8,8,0,0,1,2.25-.13.38.38,0,1,0,0-.75,8.41,8.41,0,0,0-2.45.16.38.38,0,0,0-.26.46.38.38,0,0,0,.46.26Z" transform="translate(-0.01)"/>
        </g>
        <g>
          <path class="cls-2" d="M21.45,81.76a82.88,82.88,0,0,0-1.21,10.78c0,.4.5.47.7.19l.73-1c.28-.4-.37-.77-.65-.38l-.73,1,.7.19A81.73,81.73,0,0,1,22.17,82c.08-.47-.64-.68-.72-.2Z" transform="translate(-0.01)"/>
          <path class="cls-2" d="M24.34,82.78a3.8,3.8,0,0,1,3.13,4.43,3.9,3.9,0,0,1-1.6,2.48,11.44,11.44,0,0,0-2.59,1.69.38.38,0,0,0,.46.59,6.8,6.8,0,0,1,5.5,0c.43.2.81-.45.37-.65a7.61,7.61,0,0,0-6.25,0l.45.59c.81-.92,2.09-1.19,3-2a4.71,4.71,0,0,0,1.46-3,4.52,4.52,0,0,0-3.72-4.86c-.48-.08-.68.65-.2.72Z" transform="translate(-0.01)"/>
          <path class="cls-2" d="M33.22,83a10.26,10.26,0,0,0-2.13,4.26c-.29,1.28-.51,2.94.31,4.08.93,1.31,2.54.72,3.39-.34A6.15,6.15,0,0,0,36,86.7c-.1-1.4-.76-3.45-2.47-3.47a.38.38,0,0,0,0,.75c1.18,0,1.62,1.66,1.71,2.59a5.6,5.6,0,0,1-.8,3.55,2.5,2.5,0,0,1-1.34,1.16,1,1,0,0,1-1.25-.62,5.07,5.07,0,0,1-.05-3.31,9.55,9.55,0,0,1,1.92-3.86c.31-.37-.22-.9-.53-.53Z" transform="translate(-0.01)"/>
          <path class="cls-2" d="M38.25,81.39a4,4,0,0,0-1.26,2,1.8,1.8,0,0,0,.71,1.83,1.53,1.53,0,0,0,1.95-.52,2.48,2.48,0,0,0,.42-2,2.66,2.66,0,0,0-1.31-1.78c-.43-.22-.81.42-.38.65a1.93,1.93,0,0,1,.88,2.37c-.16.4-.64.89-1.11.7a1,1,0,0,1-.43-1,3.23,3.23,0,0,1,1.07-1.59c.34-.34-.19-.87-.54-.53Z" transform="translate(-0.01)"/>
          <path class="cls-2" d="M37.56,86.75a9.15,9.15,0,0,1,2.56-.15.38.38,0,0,0,.37-.38.38.38,0,0,0-.37-.37,9.85,9.85,0,0,0-2.76.18.37.37,0,0,0-.26.46.38.38,0,0,0,.46.26Z" transform="translate(-0.01)"/>
        </g>
        <g>
          <path class="cls-2" d="M165.51,162a91.36,91.36,0,0,0-1.34,12c0,.4.5.47.7.19l.81-1.16c.28-.39-.37-.77-.65-.38l-.81,1.16.7.19a91.55,91.55,0,0,1,1.31-11.81c.09-.48-.63-.68-.72-.2Z" transform="translate(-0.01)"/>
          <path class="cls-2" d="M168.7,163.08a4.29,4.29,0,0,1,1.72,7.78,12.81,12.81,0,0,0-2.87,1.88.38.38,0,0,0,.45.59,7.68,7.68,0,0,1,6.18,0c.43.2.81-.45.37-.64a8.46,8.46,0,0,0-6.93,0l.46.59c.9-1,2.32-1.32,3.33-2.23a5.21,5.21,0,0,0,1.62-3.31,5,5,0,0,0-4.13-5.37c-.47-.08-.67.65-.2.72Z" transform="translate(-0.01)"/>
          <path class="cls-2" d="M178.63,163.36a11.12,11.12,0,0,0-2.36,4.73c-.33,1.41-.57,3.25.33,4.51,1,1.43,2.79.77,3.72-.39a6.81,6.81,0,0,0,1.37-4.72c-.12-1.53-.84-3.8-2.72-3.82a.38.38,0,0,0,0,.75c1.35,0,1.85,1.86,2,2.92a6.4,6.4,0,0,1-.9,4,2.89,2.89,0,0,1-1.52,1.32,1.25,1.25,0,0,1-1.45-.72,5.71,5.71,0,0,1-.05-3.72,10.41,10.41,0,0,1,2.15-4.32c.31-.37-.22-.9-.53-.53Z" transform="translate(-0.01)"/>
          <path class="cls-2" d="M184.24,161.61a4.28,4.28,0,0,0-1.4,2.15,2,2,0,0,0,.77,2,1.66,1.66,0,0,0,2.12-.57,2.72,2.72,0,0,0,.46-2.23,2.92,2.92,0,0,0-1.44-2c-.43-.22-.81.43-.38.65a2.2,2.2,0,0,1,1,2.71c-.18.46-.73,1-1.28.8a1.16,1.16,0,0,1-.51-1.21,3.56,3.56,0,0,1,1.2-1.8c.34-.35-.19-.88-.53-.53Z" transform="translate(-0.01)"/>
          <path class="cls-2" d="M183.42,167.51a10.65,10.65,0,0,1,2.87-.18.37.37,0,0,0,.37-.37.38.38,0,0,0-.37-.38,11.2,11.2,0,0,0-3.06.21.38.38,0,0,0-.27.46.39.39,0,0,0,.46.26Z" transform="translate(-0.01)"/>
        </g>
        <g>
          <path class="cls-2" d="M168.57,18.7a70.17,70.17,0,0,0-1,9.15c0,.4.5.47.7.19l.61-.88c.28-.39-.37-.77-.64-.38l-.62.88.7.19a70.81,70.81,0,0,1,1-9c.09-.47-.63-.68-.72-.2Z" transform="translate(-0.01)"/>
          <path class="cls-2" d="M171.06,19.63a3.15,3.15,0,0,1,2.61,3.69,3.2,3.2,0,0,1-1.33,2.06,9.82,9.82,0,0,0-2.2,1.44.38.38,0,0,0,.46.59,5.71,5.71,0,0,1,4.6,0c.43.2.82-.45.38-.65a6.55,6.55,0,0,0-5.36,0l.45.59c.69-.77,1.77-1,2.53-1.69a4,4,0,0,0,1.26-2.58,3.9,3.9,0,0,0-3.2-4.17c-.47-.07-.68.65-.2.72Z" transform="translate(-0.01)"/>
          <path class="cls-2" d="M178.56,19.69a8.81,8.81,0,0,0-1.82,3.64,4.48,4.48,0,0,0,.27,3.5,1.57,1.57,0,0,0,1.35.68,2.32,2.32,0,0,0,1.61-1A5.26,5.26,0,0,0,181,22.9c-.09-1.22-.67-3-2.15-3a.38.38,0,0,0,0,.75c1,0,1.32,1.38,1.39,2.14a4.72,4.72,0,0,1-.67,3c-.45.71-1.55,1.53-2.1.45a4.25,4.25,0,0,1,0-2.75,8,8,0,0,1,1.61-3.25c.31-.37-.22-.9-.53-.53Z" transform="translate(-0.01)"/>
          <path class="cls-2" d="M182.83,18.36A3.37,3.37,0,0,0,181.74,20a1.58,1.58,0,0,0,.63,1.62,1.35,1.35,0,0,0,1.72-.45,2.13,2.13,0,0,0,.37-1.78,2.28,2.28,0,0,0-1.14-1.54.39.39,0,0,0-.51.14.37.37,0,0,0,.13.51,1.46,1.46,0,0,1,.72.83,1.67,1.67,0,0,1,0,1.11,1.08,1.08,0,0,1-.39.48.62.62,0,0,1-.25.11h-.1l-.13,0-.07,0s0,0,0,0l-.06-.05,0-.06-.07-.13a1.76,1.76,0,0,1-.07-.27.62.62,0,0,0,0-.09,1.09,1.09,0,0,1,0-.18s0-.09,0-.11l.06-.19a2.5,2.5,0,0,1,.21-.35,5.25,5.25,0,0,1,.59-.66.38.38,0,0,0-.53-.53Z" transform="translate(-0.01)"/>
          <path class="cls-2" d="M182.3,23a7.67,7.67,0,0,1,2.15-.13.38.38,0,0,0,.37-.38.38.38,0,0,0-.37-.37,8.42,8.42,0,0,0-2.35.16.37.37,0,0,0-.27.46.4.4,0,0,0,.47.26Z" transform="translate(-0.01)"/>
        </g>
      </g>
      <g>
        <path class="cls-3" d="M29.28,5.69l-.42.45c-.56.61.17,1.66.91,1.18Q32,5.88,34.37,4.63c.76-.4,1.52-.79,2.29-1.16,0,0,.52-.22.52-.24C37,3,37,3,37,3.27v.2a4.54,4.54,0,0,1-.39,1.3c-1.31,3.2-3.54,6-5.49,8.84-.48.69.41,1.29,1,1l1-.46c.89-.39.12-1.68-.75-1.3l-1,.46,1,1c1.22-1.77,2.48-3.51,3.62-5.32a26.53,26.53,0,0,0,1.41-2.49,9.56,9.56,0,0,0,1-2.88c.11-.93-.19-2-1.33-1.95a3.28,3.28,0,0,0-1.25.44l-1.34.67c-1.9,1-3.75,2-5.55,3.19l.91,1.18.42-.45C31,6.05,30,5,29.28,5.69Z" transform="translate(-0.01)"/>
        <path class="cls-3" d="M26.24,13.26a33.75,33.75,0,0,1,8.23,2.44.78.78,0,0,0,1-.27.74.74,0,0,0-.27-1,34.48,34.48,0,0,0-8.59-2.59.79.79,0,0,0-.93.52.75.75,0,0,0,.53.92Z" transform="translate(-0.01)"/>
        <path class="cls-3" d="M48.09,5.66,42,10.27,39,12.51,37.45,13.7c-.35.27-.81.52-1,1-.44,1.12.8,1.77,1.63,2.16,1,.47,2.07.83,3.11,1.23a16,16,0,0,1,5.56,3.48c.69.67,1.75-.39,1.06-1.06A16.76,16.76,0,0,0,43,17.18c-.89-.39-1.8-.71-2.7-1.05-.5-.19-1-.38-1.48-.61-.24-.11-.48-.22-.71-.35L37.91,15c-.12.28-.08.33.1.13.19,0,.43-.32.59-.44l.79-.6,1.28-1,2.66-2L48.85,7c.76-.57,0-1.88-.76-1.29Z" transform="translate(-0.01)"/>
        <path class="cls-3" d="M53.68,10.29c-1.44,3.49-3.21,7-3.75,10.81a.76.76,0,0,0,.44.88.73.73,0,0,0,.93-.3l.42-.82c.43-.86-.86-1.62-1.3-.76l-.41.82,1.37.58c.53-3.78,2.31-7.32,3.74-10.81a.74.74,0,0,0-.52-.92.76.76,0,0,0-.92.52Z" transform="translate(-0.01)"/>
        <path class="cls-3" d="M56.42,11.68l-.06,0h.76l-.07-.05.37.65v-.09l-.37.65c-.22.12.06.1.18.13a3.89,3.89,0,0,1,.49.12,6.44,6.44,0,0,1,.93.33,3.45,3.45,0,0,1,1.49,1.18,3.22,3.22,0,0,1,0,3.5A5.11,5.11,0,0,1,57,20.28c-1.3.35-2.82.19-4,1a.76.76,0,0,0,.18,1.37,22.64,22.64,0,0,1,6.51,3.63c.75.6,1.82-.45,1.06-1.06a24.94,24.94,0,0,0-7.17-4l.18,1.37A5.18,5.18,0,0,1,56.24,22a9.25,9.25,0,0,0,2.67-.8A5.78,5.78,0,0,0,62,17.62a4.7,4.7,0,0,0-1.2-4.47,5.79,5.79,0,0,0-2.16-1.29c-.69-.25-1.69-.65-2.38-.28a.74.74,0,0,0-.38.65.92.92,0,0,0,.45.78.74.74,0,0,0,.76,0l.06,0c.79-.55,0-1.85-.76-1.3Z" transform="translate(-0.01)"/>
        <path class="cls-3" d="M69.12,16.36a12.52,12.52,0,0,0-5.05,3.15A9.18,9.18,0,0,0,61.29,25a3.06,3.06,0,0,0,4.12,3.18,9.71,9.71,0,0,0,2.66-1.83,10.51,10.51,0,0,0,2.1-2.51,7.29,7.29,0,0,0,1-3.52,9.57,9.57,0,0,0-1.1-3.88c-.39-.88-1.69-.12-1.3.75a8.47,8.47,0,0,1,.88,2.67,5.4,5.4,0,0,1-.44,2.57,9.45,9.45,0,0,1-3.36,3.79c-.63.44-1.46,1-2.22.55a2,2,0,0,1-.82-2,8,8,0,0,1,2.28-4.15,10.78,10.78,0,0,1,4.44-2.82c.91-.31.52-1.76-.4-1.45Z" transform="translate(-0.01)"/>
        <path class="cls-3" d="M75,17.77a2.36,2.36,0,0,0-1.44.95,3,3,0,0,0-.83,1.59,1.12,1.12,0,0,0,.33.9,1.15,1.15,0,0,0,1,.25,2.43,2.43,0,0,0,1.42-1.1,4.53,4.53,0,0,0,.79-1.86.5.5,0,0,0-.35-.61.5.5,0,0,0-.61.35,3.55,3.55,0,0,1-.19.69l0,.1s0,.1,0,0l0,0,0,.07-.18.34-.18.28-.07.09h0l-.12.15-.24.24s0,0,0,0,.08-.06,0,0l-.16.1-.07,0s.12,0,0,0l-.14,0c-.08,0,0,0,0,0s-.07,0-.06,0h0l0,0,0,0s0,0,0,0-.08,0,0,0,0-.05,0-.05.06.11,0,0l0-.06s0,.1,0,0,0,0,0,0v-.1s0-.05,0-.07,0,.11,0,0,0-.1,0-.15a.49.49,0,0,0,0-.07c0,.07,0,0,0,0L73.9,20c.06-.09.11-.18.17-.26l.11-.14,0,0,0,0a3,3,0,0,1,.53-.54c-.09.07,0,0,0,0l.08-.05A1,1,0,0,1,75,18.8s-.12,0,0,0l.11,0,.19,0a.52.52,0,0,0,.35-.62.52.52,0,0,0-.62-.35Z" transform="translate(-0.01)"/>
        <path class="cls-3" d="M71.36,23a14.5,14.5,0,0,0,3.4,1.09.77.77,0,0,0,.92-.53.76.76,0,0,0-.52-.92,14.7,14.7,0,0,1-1.62-.39L72.76,22l-.39-.16.07,0-.11,0-.22-.09A.75.75,0,0,0,71.36,23Z" transform="translate(-0.01)"/>
        <path class="cls-3" d="M77.22,27.88l-.67.68a2,2,0,0,0-.16,2.63A2,2,0,0,0,79,31.7a14.67,14.67,0,0,1,2.82-1.63h-2l.27.16c.26.15-.39-.36-.17-.13,0,.06.11.11.16.16.22.23-.3-.47-.11-.13l.13.23c.14.27-.18-.51-.09-.19a4.39,4.39,0,0,1,.13.52L80,30.16a4.07,4.07,0,0,1,0,.78l.07-.53a2.33,2.33,0,0,1-.08.38c0,.1-.18.5,0,.13s0,0-.08.11-.2.28,0,0,.06-.08,0,0a1.14,1.14,0,0,1-.11.11c-.19.21.34-.21.18-.14l-.33.2c-.26.16.38-.11.21-.08a1.17,1.17,0,0,0-.2.06,3.1,3.1,0,0,1-.42.08l.54-.07a3.3,3.3,0,0,1-.77,0l.53.07a3.63,3.63,0,0,1-.67-.15L78.74,31s.48.23.24.09l-.34-.19a1.1,1.1,0,0,0-.14-.09c-.18-.11.34.3.2.15a2.83,2.83,0,0,1-.25-.24l-.12-.13c-.14-.13.24.38.16.2l-.11-.16q-.07-.13,0,.09c.06.17.07.18,0,0l.07.54v-.12l-.08.54c0-.16,0-.14,0,0a.84.84,0,0,1-.25.37c.08-.06.15-.15.23-.22.24-.22-.32.21-.12.09l.27-.17a2.4,2.4,0,0,0,.23-.11c-.31.12-.39.15-.24.1l.15-.06a4.29,4.29,0,0,1,.6-.13l-.53.07a3.47,3.47,0,0,1,.72,0l-.53-.07a2.57,2.57,0,0,1,.4.08l.2.06c-.33-.14-.4-.17-.21-.08a3.37,3.37,0,0,0,.32.19c-.27-.22-.33-.26-.18-.13l.1.1a.94.94,0,0,1,.1.1c.13.16.09.1-.13-.18a2.14,2.14,0,0,0,.2.32c.09.19.06.11-.09-.22a.64.64,0,0,1,.06.18,2.21,2.21,0,0,1,.08.37l-.07-.53a2.1,2.1,0,0,1,0,.56l.08-.53c0,.1-.06.2-.08.3s.28-.48.06-.16l-.06.12c-.11.16-.06.1.16-.2a1.57,1.57,0,0,0-.18.19c-.11.1-.09.09.06,0l.07,0-.23.14c-.29.17.47-.15.16-.07l-.34.08.54-.07a1.74,1.74,0,0,1-.51,0l.53.07c-.12,0-.22-.06-.34-.09.47.11.4.19.2.07-.35-.21.23.22.14.11l-.17-.18c.42.42.24.33.15.16s-.1-.43,0,.15c0-.17-.1-.34-.13-.52l.08.53a3.43,3.43,0,0,1,0-1l-.07.53a5.56,5.56,0,0,1,.26-1c-.22.67-.06.15,0,0a2.39,2.39,0,0,0,.13-.21c.17-.27-.34.41-.08.11s.27-.31.43-.46a1.16,1.16,0,0,1,.24-.2l-.24.18.17-.12.27-.15c.07,0,.37-.17,0,0s0,0,.1,0l.35-.07L81,30.1a2,2,0,0,1,.6,0L81.1,30l.28.07c.14.05.12,0-.06,0s-.2-.08-.06,0l.2.13c.17.1-.4-.36-.11-.08a1.36,1.36,0,0,0,.17.17c-.3-.24-.24-.31-.11-.09s-.12-.48-.06-.15l.06.27-.07-.53a2.17,2.17,0,0,1,0,.36l.07-.53a1.16,1.16,0,0,1,0,.18c-.07.19,0,.1.12-.26l-.12.2c.19-.39.29-.34.12-.18s.28-.16.14-.1a1,1,0,0,0-.23.13c0-.07.55-.2.18-.09a2.66,2.66,0,0,1-.56.12l.53-.07a4.58,4.58,0,0,1-1.11,0l.53.07c-.19,0-.38-.06-.58-.11l1.47,1.93,0-.38-.07.54a3.43,3.43,0,0,1,.11-.46c0-.08.13-.36,0,0s0,.05,0,0,.15-.24.23-.36-.33.37-.11.15l.16-.17.18-.16c.19-.18-.15.13-.19.14s.32-.2.4-.25c.28-.16-.4.15-.18.07l.22-.08a3.73,3.73,0,0,1,.46-.09l-.53.07.28,0-1.73-1c.17.36-.15-.46,0-.09l.09.26a5.78,5.78,0,0,1,.12.57l-.07-.53a4.31,4.31,0,0,1,0,1l.07-.53a2.83,2.83,0,0,1-.08.4l-.06.2c-.08.2-.05.13.08-.19a1.27,1.27,0,0,0-.2.36c.22-.28.27-.35.14-.19a.94.94,0,0,1-.1.1l-.1.09c-.15.13-.09.09.19-.14l-.31.2c-.28.16.52-.18.05,0l-.35.08.53-.07a3.31,3.31,0,0,1-.63,0l.53.07-.26-.06c-.14-.05-.11,0,.07,0s.21.09.08,0-.13-.16.13.13l-.17-.16c.06,0,.33.49.13.15-.1-.17-.08-.37.07.19a2.3,2.3,0,0,1-.12-.45l.07.53a2.53,2.53,0,0,1,0-.55l-.07.53c0-.1,0-.19.07-.29.08-.3-.25.47-.08.2s-.36.37-.13.16-.38.25-.11.08h-2a1.54,1.54,0,0,1-.59-.7c-.13-.33,0-.14,0,0l-.07-.53v.15l.07-.54c0,.1-.1.31,0,0a1.37,1.37,0,0,1,.58-.7l2.42.31a6.91,6.91,0,0,1-1-1c-.13-.15.3.42,0,.06a3.23,3.23,0,0,1-.18-.28c-.13-.21-.24-.42-.35-.63a2,2,0,0,0-2.73-.72,2.05,2.05,0,0,0-.72,2.74,7.84,7.84,0,0,0,2.08,2.64,2.07,2.07,0,0,0,2.42.31,2.65,2.65,0,0,0,0-4.52,2,2,0,0,0-2,0A3.56,3.56,0,0,0,77,31.12a3.9,3.9,0,0,0,1.81,3.18,4.1,4.1,0,0,0,3.69.16A4.51,4.51,0,0,0,85,31.62a5.86,5.86,0,0,0-.44-4.27,2,2,0,0,0-1.73-1,5.21,5.21,0,0,0-5,5,2,2,0,0,0,1.47,1.93c1.94.48,4.52.22,5.57-1.73a3.37,3.37,0,0,0,.41-2.11,4,4,0,0,0-4.21-3.39,5.91,5.91,0,0,0-5,4.24c-.58,1.91-.13,4.35,1.76,5.36a4,4,0,0,0,5.77-3,4.56,4.56,0,0,0-4.52-5A5.5,5.5,0,0,0,75.62,29a2.93,2.93,0,0,0-1.11,2.23,3.5,3.5,0,0,0,1,2.23,5.21,5.21,0,0,0,5.55,1.43,4.39,4.39,0,0,0,2.44-2.12,5.16,5.16,0,0,0,.41-3.26A4.17,4.17,0,0,0,82.38,27a3.07,3.07,0,0,0-.56-.38,2.14,2.14,0,0,0-1.31-.26,3.33,3.33,0,0,0-1,.34,13,13,0,0,0-1.34.69c-.44.26-.85.54-1.26.84l2.42,3.14.68-.68a2,2,0,0,0-2.83-2.83Z" transform="translate(-0.01)"/>
      </g>
    </g>
  </g>
</svg>
