<svg xmlns="http://www.w3.org/2000/svg" viewBox="0 0 242.36 213.99">
  <defs>
    <style>
      .cls-1 {
        fill: #d1d3d4;
      }

      .cls-2 {
        fill: #ed1c24;
      }

      .cls-3 {
        fill: #231f20;
      }
    </style>
  </defs>
  <title>Asset 2</title>
  <g id="Layer_2" data-name="Layer 2">
    <g id="Layer_1-2" data-name="Layer 1">
      <g>
        <g>
          <path class="cls-1" d="M114.1,24.53l2.48-5.7,1.19-2.74c.16-.37.31-.74.49-1.09l.17-.29a.12.12,0,0,1-.1.08,1.29,1.29,0,0,0-.28,0c-.11-.05-.11-.05,0,0s.09.06,0,0a2.74,2.74,0,0,1,.26.28,7.2,7.2,0,0,1,.62,1.08c.45.82.87,1.66,1.27,2.51q1.22,2.57,2.17,5.25c.34.95,1.74,1.62,2.51.66l.53-.66a1.54,1.54,0,0,0,0-2.12,1.5,1.5,0,0,0-2.12,0l-.53.66,2.5.66a64.2,64.2,0,0,0-2.66-6.36,30,30,0,0,0-1.55-3,3.91,3.91,0,0,0-2.35-1.91c-2.68-.58-3.55,2.76-4.34,4.59L111.51,23a1.54,1.54,0,0,0,.53,2.05,1.52,1.52,0,0,0,2.06-.54Z" transform="translate(-0.01)"/>
          <path class="cls-1" d="M116.42,14l1.52,77q.75,38.3,1.51,76.59.42,21.58.85,43.18c0,1.93,3,1.94,3,0q-.75-38.47-1.52-77l-1.5-76.61L119.42,14c0-1.92-3-1.93-3,0Z" transform="translate(-0.01)"/>
          <path class="cls-1" d="M113,203.55l7.74,10c.72.94,2.21.31,2.5-.66a16,16,0,0,1,2.79-5.38c1.29-1.62,3.63-3.18,3.33-5.53a1.56,1.56,0,0,0-1.5-1.5c-.73,0-1.61.69-1.5,1.5s-.48,1.27-1.06,1.88a24.32,24.32,0,0,0-2.14,2.5,19,19,0,0,0-2.81,5.73l2.51-.66-7.74-10a1.51,1.51,0,0,0-2.12,0,1.55,1.55,0,0,0,0,2.13Z" transform="translate(-0.01)"/>
        </g>
        <g>
          <path class="cls-1" d="M7.92,99.59l-4,6.92-2,3.46A17.07,17.07,0,0,0,.18,113.3a3,3,0,0,0,1,3.46,16.78,16.78,0,0,0,2.84.9,9.37,9.37,0,0,1,4.14,3.59,1.5,1.5,0,1,0,2.59-1.51,12.84,12.84,0,0,0-4.42-4.28,10.63,10.63,0,0,0-2.72-1.07,4,4,0,0,0-.67-.13c-.31,0-.11-.08-.06.06.12.34.16-.25.22-.4a26.92,26.92,0,0,1,1.75-3.09l1.88-3.24,3.74-6.48a1.5,1.5,0,0,0-2.59-1.52Z" transform="translate(-0.01)"/>
          <path class="cls-1" d="M228,124.92l6.6-4.41,3.3-2.21a33.36,33.36,0,0,0,3.13-2.15,3.7,3.7,0,0,0,1.3-3.44,9.47,9.47,0,0,0-1.51-3.33,49.66,49.66,0,0,0-4.12-5.85c-.79-1-1.61-1.89-2.47-2.77q-.66-.67-1.35-1.32l-.68-.63-.31-.27-.16-.14c-.24-.26-.25-.15,0,.31l-.21.76.05-.09-.89.69.08,0h-.8l-.19-.07-.69-.9,0,.08.15-1.16,0,.08a1.56,1.56,0,0,0,.54,2.06,1.52,1.52,0,0,0,2-.54,1.65,1.65,0,0,0-.56-2.24,1.67,1.67,0,0,0-2.27.52c-.94,1.51.68,2.65,1.65,3.55a40.79,40.79,0,0,1,4.8,5.29c.75,1,1.45,2,2.12,3.05a15,15,0,0,1,1.77,3.11c.31,1-.52,1.25-1.26,1.74L234.53,117l-8.05,5.38a1.54,1.54,0,0,0-.54,2,1.53,1.53,0,0,0,2.06.54Z" transform="translate(-0.01)"/>
          <path class="cls-1" d="M2.07,115.06c31.13-1,62.28-1.09,93.42-1.14,30.91-.06,61.82-.24,92.73-.11,17.36.07,34.72.33,52.06,1.08,1.93.08,1.92-2.92,0-3-31.06-1.35-62.16-1.12-93.24-1.07s-61.88,0-92.82.26c-17.38.14-34.77.41-52.15,1-1.92.06-1.93,3.06,0,3Z" transform="translate(-0.01)"/>
        </g>
      </g>
      <g>
        <g>
          <path class="cls-2" d="M194.81,79.52a11.77,11.77,0,0,1,.51-2.51,4.13,4.13,0,0,1,.61-1.11c.12-.14.26-.34.43-.16a1.86,1.86,0,0,1,.27.57,10.69,10.69,0,0,1,.67,2.84c0,.22,0,.45,0,.68a2.81,2.81,0,0,0,0,.65c.07.28.29.58.62.46s.17-.59-.13-.48c0,0,0,0,0-.11a1.7,1.7,0,0,1,0-.22c0-.22,0-.43,0-.64a11.7,11.7,0,0,0-.13-1.19A10.58,10.58,0,0,0,197,76a1.39,1.39,0,0,0-.49-.71.67.67,0,0,0-.82.14,4.13,4.13,0,0,0-1,1.76,13.56,13.56,0,0,0-.44,2.37c0,.32.47.31.5,0Z" transform="translate(-0.01)"/>
          <path class="cls-2" d="M196.31,81.78a6.59,6.59,0,0,1,3.63-1.42c.32,0,.32-.52,0-.5a7.17,7.17,0,0,0-4,1.57c-.25.2.1.55.35.35Z" transform="translate(-0.01)"/>
          <path class="cls-2" d="M200.9,73.41a23.3,23.3,0,0,0-1,5.41.24.24,0,0,0,.18.24c.7.13,1.21-.38,1.83-.58a3.13,3.13,0,0,1,2.05,0c.3.1.43-.38.13-.48a3.63,3.63,0,0,0-2-.12,3.67,3.67,0,0,0-.91.33c-.31.16-.64.42-1,.35l.19.24a23.05,23.05,0,0,1,1-5.27c.1-.31-.39-.44-.48-.14Z" transform="translate(-0.01)"/>
          <path class="cls-2" d="M203,72.76v0l.18-.24h.07l.15.12,0,0,0,.2s.24-.06.27-.07l.29-.11.63-.23c.2-.07.4-.15.6-.2s.28,0,.24.23a3.5,3.5,0,0,1-.47,1,9.79,9.79,0,0,1-.67,1.08c-.14.19.08.42.28.37a3.23,3.23,0,0,1,1.6-.12,1.12,1.12,0,0,1,.85.86,1.24,1.24,0,0,1-.56,1.14,2.94,2.94,0,0,1-1.45.42l.24.19v0a.25.25,0,0,0-.25-.43.49.49,0,0,0-.22.6.25.25,0,0,0,.24.18,3.43,3.43,0,0,0,1.82-.57,1.76,1.76,0,0,0,.69-1.56,1.59,1.59,0,0,0-1-1.21,3.42,3.42,0,0,0-2.05.06l.28.37a11.25,11.25,0,0,0,1.07-1.88c.17-.38.28-1-.2-1.21a1.38,1.38,0,0,0-.93.15q-.54.18-1.08.39c-.21.08-.61.16-.66.43a.3.3,0,0,0,.39.34.26.26,0,0,0,.18-.24v0c0-.32-.46-.31-.5,0Z" transform="translate(-0.01)"/>
          <path class="cls-2" d="M208.16,71.33c-.79.45-.68,1.62-.64,2.39a5.91,5.91,0,0,0,.24,1.57,1.46,1.46,0,0,0,.84,1c1,.34,1.71-.51,2-1.31a3.43,3.43,0,0,0-.26-3,1.36,1.36,0,0,0-1.18-.64,1,1,0,0,0-.95.76.25.25,0,0,0,.48.13.57.57,0,0,1,.58-.4.93.93,0,0,1,.71.52,3,3,0,0,1,.2,2.28c-.17.58-.68,1.43-1.41,1.17-.35-.12-.47-.51-.56-.83A5.17,5.17,0,0,1,208,73.8a8,8,0,0,1,0-1.2,1,1,0,0,1,.4-.84.25.25,0,0,0-.26-.43Z" transform="translate(-0.01)"/>
          <path class="cls-2" d="M211.18,69.61a2.06,2.06,0,0,0-.26.84,2.27,2.27,0,0,0,0,.45,1.17,1.17,0,0,0,.13.4.51.51,0,0,0,.41.25.67.67,0,0,0,.42-.18,1.3,1.3,0,0,0,.33-.82,1.75,1.75,0,0,0-.21-1,.25.25,0,0,0-.44.25l0,.07s0,.06,0,0a1.09,1.09,0,0,1,0,.17l0,.15s0,0,0,0v.25s0,.07,0,0,0,.06,0,.09,0,.1-.05.15,0,.08,0,0a.25.25,0,0,1,0,.07l0,0h0s0,0,0,0l0,0,0,0s0,0,0,0-.06,0,0,0h0s0,0,0,0,0,0,0,0l0,0s0,0,0,0a.14.14,0,0,1,0-.06,1.36,1.36,0,0,1,0-.17s0,0,0,0,0,0,0-.07v-.17s0-.07,0-.1h0v0a1,1,0,0,1,0-.17,1.2,1.2,0,0,1,.13-.31.25.25,0,0,0-.09-.34.26.26,0,0,0-.34.09Z" transform="translate(-0.01)"/>
          <path class="cls-2" d="M211.92,73a.86.86,0,0,1,.1-.16h0l0,0,.06-.06,0,0,0,0h0l0,0a1,1,0,0,1,.18-.09h0l.09,0,.09,0s0,0,0,0h.21s0,0,0,0h0l.09,0a.25.25,0,0,0,.31-.18.26.26,0,0,0-.17-.31,1.41,1.41,0,0,0-1.65.7.25.25,0,0,0,.09.34.26.26,0,0,0,.34-.09Z" transform="translate(-0.01)"/>
          <path class="cls-2" d="M191.83,75.38a11.19,11.19,0,0,0,.33,6,5.35,5.35,0,0,0,1,2.44,1.55,1.55,0,0,0,1.93.33c.27-.17,0-.6-.25-.43-.79.5-1.51-.34-1.78-1a15.23,15.23,0,0,1-.63-2.22,9.47,9.47,0,0,1-.13-5c.09-.31-.39-.44-.49-.14Z" transform="translate(-0.01)"/>
          <path class="cls-2" d="M211.06,68.19a4.06,4.06,0,0,1,3.19,2.73c.59,1.79.05,3.76-.54,5.48-.1.3.38.43.48.13.65-1.86,1.2-4,.47-6a4.55,4.55,0,0,0-3.47-2.87c-.32-.06-.45.42-.13.48Z" transform="translate(-0.01)"/>
          <path class="cls-2" d="M214.11,66.88A22.85,22.85,0,0,1,215,64l-.41.11a10,10,0,0,1,2,4.46c.06.32.54.19.49-.13A10.63,10.63,0,0,0,215,63.73c-.13-.16-.36,0-.42.11a24.62,24.62,0,0,0-.93,2.91c-.07.31.41.45.49.13Z" transform="translate(-0.01)"/>
          <path class="cls-2" d="M215.21,69.85c1.21-.48,2.43-.94,3.66-1.37l-.3-.31-.14.34c-.12.3.37.43.48.14l.14-.35c.07-.17-.14-.36-.31-.3-1.23.43-2.45.89-3.67,1.36-.29.12-.16.6.14.49Z" transform="translate(-0.01)"/>
        </g>
        <g>
          <path class="cls-2" d="M195.14,109.55c.31-4.65-1.38-9.07-2.93-13.36l-2.49-6.89c-.42-1.17-.84-2.34-1.27-3.51-.26-.71-.56-1.56-1.39-1.73-.63-.14-.9.83-.27,1,.43.09.57.68.7,1,.2.54.39,1.09.59,1.63l1.1,3,2.32,6.43c1.44,4,2.93,8.08,2.64,12.39,0,.64,1,.64,1,0Z" transform="translate(-0.01)"/>
          <path class="cls-2" d="M186.9,85.51,186.27,92c-.06.57.85.68,1,.13a21.94,21.94,0,0,0,.52-7.4l-.5.5c1.39,0,2.46,1.17,3.43,2,.41.36,1.26,1.18,1.73.41s-.6-1.39-1-.68c-.33.55.54,1,.87.5l0,0-.3.23h0l-.39,0c.36-.31.43-.55.19-.7l-.13-.11-.25-.22-.56-.49a13.61,13.61,0,0,0-1.1-.91,4.27,4.27,0,0,0-2.52-.95.5.5,0,0,0-.5.5,21.45,21.45,0,0,1-.48,7.14l1,.13.63-6.52c.06-.64-.94-.63-1,0Z" transform="translate(-0.01)"/>
        </g>
        <g>
          <path class="cls-2" d="M185.7,79.05a52.07,52.07,0,0,0-6.58-13.94,80.85,80.85,0,0,0-10.18-11.84l-1.52-1.52a14.48,14.48,0,0,0-1.5-1.43c-.7-.5-1.81-.54-1.94.5-.08.64.92.63,1,0,0,.34-.09,0,.06.16a2.24,2.24,0,0,0,.27.13,3.3,3.3,0,0,1,.51.48l1.29,1.27c.83.82,1.66,1.65,2.48,2.48,1.61,1.64,3.19,3.32,4.68,5.07A53.74,53.74,0,0,1,181.89,72a51.62,51.62,0,0,1,2.85,7.36.5.5,0,0,0,1-.27Z" transform="translate(-0.01)"/>
          <path class="cls-2" d="M165.13,49.76c.05-.82-1.13-1-1.44-.28a1.67,1.67,0,0,0,.09,1.24c.18.53.35,1.06.53,1.59.7,2.13,1.43,4.25,2.17,6.37a.51.51,0,0,0,.61.35,1.25,1.25,0,0,0,.9-1.59c-.19-.61-1.15-.35-1,.26.05.18,0,.33-.2.36l.61.35c-.5-1.44-1-2.89-1.49-4.35-.25-.72-.49-1.45-.73-2.18-.11-.34-.23-.67-.34-1,0-.17-.11-.33-.16-.5l-.09-.29c0-.23-.19-.33-.5-.32,0,.65,1,.65,1,0Z" transform="translate(-0.01)"/>
          <path class="cls-2" d="M164.76,48.64s.21,0,.17.07l-.23.3a16.15,16.15,0,0,1,7.72-2.42c.64,0,.64-1,0-1a17.29,17.29,0,0,0-5.84,1.32c-.45.2-.9.41-1.34.64l-.68.38a1.44,1.44,0,0,0-.54.4c-.45.75.55,1.61,1.25,1.17.54-.34,0-1.2-.51-.86Z" transform="translate(-0.01)"/>
        </g>
        <path class="cls-2" d="M185.67,80.33l0,0s0,0,0,0v0s0,0,0,0-.1,0,0,0c-.08,0-.07,0,0,0s-.07,0,0,0l.08,0c.07,0-.08-.06,0,0s.12.09,0,0a1.59,1.59,0,0,1,.13.13c-.06-.07.08.17.05.07s0,.19,0,.1a.37.37,0,0,1,0,.11s0,.15,0,.08,0,.06,0,.06a.24.24,0,0,0,0,.08l0,.08c0-.09,0,0,0,0l-.1.18h0l-.08.09a.86.86,0,0,1-.14.13c-.06.06.1-.06,0,0a.18.18,0,0,1-.07,0l-.15.09s-.12.06,0,0-.07,0-.08,0l-.19,0-.08,0c-.13,0,.06,0,0,0h-.19s-.23,0-.12,0l-.18,0-.1,0s.09,0,0,0l-.16-.09c-.07,0,.08.08,0,0l-.09-.1h0l-.06-.08-.06-.11s-.06-.11,0,0a1.34,1.34,0,0,1-.07-.18.36.36,0,0,0,0-.1c0-.11,0,0,0,0a2.08,2.08,0,0,1,0-.25s0-.2,0-.11a2.85,2.85,0,0,1,.13-.48c0,.07.06-.12.08-.15a2.39,2.39,0,0,1,.13-.21,1.54,1.54,0,0,1,.31-.34s.07-.06,0,0l.12-.08.21-.11h0l.13,0,.12,0s0,0,0,0h.1l-.35-.15c.09.12,0,0,0,0l.06.1s.05.12,0,.06,0,.07,0,.07a1.42,1.42,0,0,1,0,.22c0-.1,0,.1,0,.14v.09s0,.13,0,.07v.07l0,.12a1.87,1.87,0,0,1-.07.22c0,.08.05-.1,0,0l-.05.11-.11.18-.05.06s0,0-.05,0a1.21,1.21,0,0,1-.16.16c-.07.06,0,0,0,0l-.09.06-.1.06h0a1.17,1.17,0,0,1-.2.06c-.05,0,0,0,0,0h-.21c.09,0,0,0-.05,0l.3.22a1.76,1.76,0,0,1,0-1.18,1.82,1.82,0,0,1,.25-.48l.11-.12.07-.06.15-.1.07,0h0a1.08,1.08,0,0,1,1,.13.86.86,0,0,1,.43.83,1.07,1.07,0,0,1-.23.51l-.17.18-.11.06s-.15.07-.09,0l-.15,0h-.07a.32.32,0,0,1-.22-.06.9.9,0,0,1-.44-.48s0-.19-.06-.21a1.49,1.49,0,0,1,0-.3c0,.07,0-.06,0-.08a1.21,1.21,0,0,1,.05-.18,2.63,2.63,0,0,1,.12-.24,1.6,1.6,0,0,1,.37-.41,1.18,1.18,0,0,1,.51-.22c.06,0,0,0,0,0h.22l.08,0,.16,0c-.08,0,0,0,.05,0l.11.07c.08,0,0,0,.05,0a1.14,1.14,0,0,0,.11.11s.1.13.06.07l.07.12a.75.75,0,0,1,.07.12.25.25,0,0,1,0,.07c0,.07,0-.07,0,0a1.52,1.52,0,0,1,.09.28l0,.14s0,0,0,.08,0,0,0,0,0,.21,0,.32,0,.05,0,.07,0-.07,0,0a1,1,0,0,1,0,.17,1.22,1.22,0,0,1-.19.43,1.14,1.14,0,0,1-.41.34l-.07,0s.06,0,0,0l-.14.05-.15,0-.07,0s0,0,0,0h-.3s-.15,0-.07,0l-.17,0a1.45,1.45,0,0,1-.53-.23l-.06,0h0l-.11-.1-.1-.11s0,0,0,0l-.06-.09a1.47,1.47,0,0,1-.23-.56s0-.15,0-.08a.92.92,0,0,1,0-.16,2,2,0,0,1,0-.35c0-.06,0,0,0,0s0,0,0-.08a.83.83,0,0,0,0-.15,1.93,1.93,0,0,1,.11-.34c0,.06,0-.08,0-.1a1,1,0,0,0,.08-.14,1.83,1.83,0,0,1,.16-.22,1.52,1.52,0,0,1,.44-.37,1.27,1.27,0,0,1,.68-.17,1,1,0,0,1,.29.06l.14.08.06,0s0,0,0,0a.52.52,0,0,1,.1.11l0,.06a.83.83,0,0,1,.07.13c0-.06,0,.09,0,.12a1.31,1.31,0,0,1,0,.57v.08h0l0,.16a1.93,1.93,0,0,1-.11.34l0,.08-.09.16a1.71,1.71,0,0,1-.21.26,4,4,0,0,1-1.32.86c-.23.1-.46.19-.7.27l.62.35a2.24,2.24,0,0,1,.9-2.28H185l.22.13c-.07,0,0,0,0,0s.1.11.08.08,0,0,0,.07a.75.75,0,0,1,.07.12l0,0s0-.07,0,0l0,.15,0,.13s0,.13,0,0a1.38,1.38,0,0,1,0,.29v.14c0,.06,0,0,0,0a.13.13,0,0,0,0,.06,2.29,2.29,0,0,1-.08.28c0-.08,0,0,0,0a.75.75,0,0,1-.07.12s-.07.1,0,0l-.1.11c-.08.08,0,0,0,0l-.11.07-.06,0-.12,0h-.17s.07,0,0,0l-.14,0-.07,0s0,0,0,0a1.14,1.14,0,0,1-.44-.34,1.37,1.37,0,0,1-.25-.48s0-.17,0-.09V80.5a.19.19,0,0,1,0-.08c0,.06,0,0,0,0a1.46,1.46,0,0,1,.07-.19.49.49,0,0,0-.29-.59.51.51,0,0,0-.63.2,1.74,1.74,0,0,0,1.52,2.49,1.31,1.31,0,0,0,1.27-1.06,1.84,1.84,0,0,0-.53-1.6,1.41,1.41,0,0,0-1.78-.31.51.51,0,0,0-.18.68.51.51,0,0,0,.69.18s.18-.07.07,0,.18,0,.06,0c0,0,.18,0,.06,0l.15,0c-.12,0,0,0,.06,0s.12.09,0,0l.12.11s.13.16.07.07l.09.15s.08.18,0,.08a.56.56,0,0,1,0,.12s0,.2,0,.08V81h0s0,.06,0,.08h0l0,.07-.05.07h0l0,0-.07,0s.06,0,0,0l-.07,0c.07,0,.07,0,0,0s-.19,0-.06,0l-.16,0c-.1,0,.06,0,0,0l-.14-.09c-.05,0-.05,0,0,0l-.06-.06-.13-.13h0l0-.07a.41.41,0,0,0-.07-.11h0a.31.31,0,0,1,0-.08s0-.2,0-.08v-.16c0,.12,0,0,0-.07s0-.06.05-.08l-.92-.39c-.68,1.69,1.71,3.65,3.07,2.2a2.31,2.31,0,0,0,.46-2.17,2,2,0,0,0-.58-1,1.13,1.13,0,0,0-.64-.33c-.27,0-.54.26-.73.44a3.31,3.31,0,0,0-.89,3,.51.51,0,0,0,.62.35A5.41,5.41,0,0,0,187,80.68a2.6,2.6,0,0,0,.07-2.76,2.06,2.06,0,0,0-3-.21,3,3,0,0,0-1,2.57,2.44,2.44,0,0,0,1.76,2.11,2.35,2.35,0,0,0,2.54-.82c1.08-1.48-.15-4.32-2.18-3.68a2.36,2.36,0,0,0-1.63,2.31A1.77,1.77,0,0,0,186,81.84a2,2,0,0,0,1-2.63,2.09,2.09,0,0,0-2.46-1A2.4,2.4,0,0,0,183,80.65a3,3,0,0,0,.14.74.81.81,0,0,0,.3.46,1.07,1.07,0,0,0,.47.1,1.79,1.79,0,0,0,1.14-.37,2.56,2.56,0,0,0,1-2.37c-.06-.46-.35-1.15-.9-1.1a2.3,2.3,0,0,0-1.26.54,2.77,2.77,0,0,0-.95,2.5,1.9,1.9,0,0,0,1.79,1.61,2.33,2.33,0,0,0,2.06-1.07,1.58,1.58,0,0,0-.75-2.32,1,1,0,0,0-1.2.45.5.5,0,0,0,.87.51Z" transform="translate(-0.01)"/>
        <g>
          <path class="cls-2" d="M127.92,25.83l-3.27,3.11c-.79.75-2,1.61-1.37,2.83a9.85,9.85,0,0,0,1.15,1.49L125.86,35l2.92,3.61c.41.5,1.11-.21.71-.71L124.69,32a3,3,0,0,1-.55-.73c-.14-.38.11-.57.35-.81.45-.44.92-.87,1.38-1.31l2.76-2.61c.46-.45-.25-1.15-.71-.71Z" transform="translate(-0.01)"/>
          <path class="cls-2" d="M124.26,31.86a61.74,61.74,0,0,1,27.62,9.49,63.88,63.88,0,0,1,5.9,4.29c.5.4,1.21-.3.71-.71a62.45,62.45,0,0,0-34.23-14.07c-.64-.06-.64.94,0,1Z" transform="translate(-0.01)"/>
        </g>
        <path class="cls-2" d="M158.63,45.79a.57.57,0,0,1,.14-.23.48.48,0,0,1,.1-.08l.12-.06a.63.63,0,0,1,.32-.06.46.46,0,0,1,.26.07c.36.18.32.76.05,1.07a.47.47,0,0,1-.25.19c.08,0-.15,0-.05,0a.39.39,0,0,1-.26,0,.65.65,0,0,1-.18-.64.9.9,0,0,1,.88-.66H160s.1,0,0,0H160l.19,0,.05,0,.07,0a.76.76,0,0,1,.42.44c0-.05,0,.1,0,.14s0,0,0,.15a.84.84,0,0,1-.08.36,1.39,1.39,0,0,1-.44.53,1,1,0,0,1-.71.21l-.1,0a.36.36,0,0,1-.13-.06.84.84,0,0,1-.26-.23,1.82,1.82,0,0,1-.13-1.66,1.89,1.89,0,0,1,1.16-1.27.65.65,0,0,1,.33,0,.35.35,0,0,1,.23.12,1.65,1.65,0,0,1,.16,1.05,2.54,2.54,0,0,1-.51,1.76.62.62,0,0,1-.64.16,1.26,1.26,0,0,1-.64-.47,1.76,1.76,0,0,1,0-1.94,4,4,0,0,1,.72-.91,4.24,4.24,0,0,1,.39-.33s.22-.15.26-.13,0,.32,0,.35a5.88,5.88,0,0,1,0,.73,6.39,6.39,0,0,1-.27,1.3,5,5,0,0,1-.51,1.16c-.12.18-.33.46-.57.34a.68.68,0,0,1-.27-.31,1.11,1.11,0,0,1-.09-.32,1.38,1.38,0,0,1,.13-.76c.25-.47.67-.77,1.17-.55a1.26,1.26,0,0,1,.71,1.4,1.12,1.12,0,0,1-1.09.76,1,1,0,0,1-.6-.22l.13.22a1.05,1.05,0,0,1,.53-1.16.76.76,0,0,1,.25-.06c.06,0,.07,0,0,0a.27.27,0,0,1,.06.17.68.68,0,0,1-.19.55.87.87,0,0,1-.57.3.7.7,0,0,1-.53-.25,1.36,1.36,0,0,1-.27-1.36,1.84,1.84,0,0,1,1.4-1.13l-.49-.13a.32.32,0,0,1,.08.09c0-.05,0,.08,0,0v.09a.25.25,0,0,1-.1.21s-.05,0,0,0-.05,0,0,0l-.08,0a.29.29,0,0,1-.11-.2.51.51,0,0,0-.35-.61.51.51,0,0,0-.62.35,1.26,1.26,0,0,0,1.22,1.5,1.22,1.22,0,0,0,1-1.49c-.06-.33-.32-.78-.7-.78a2.26,2.26,0,0,0-1,.38,2.67,2.67,0,0,0-1.25,1.67c-.29,1.3.7,3,2.2,2.63a1.87,1.87,0,0,0,1.36-1.44,1.52,1.52,0,0,0-.22-1.1,1.1,1.1,0,0,0-1.2-.38,2,2,0,0,0-1.39,1.36,2,2,0,0,0,0,1,1.18,1.18,0,0,0,.81.69,2.12,2.12,0,0,0,2.76-1.7,2.17,2.17,0,0,0-2.56-2.35A2.28,2.28,0,0,0,158,47.36a1.38,1.38,0,0,0,1.9.73,3.39,3.39,0,0,0,1.25-2,7.22,7.22,0,0,0,.38-2.4,1.49,1.49,0,0,0-.36-1.13,1,1,0,0,0-1.16-.15A4.07,4.07,0,0,0,158.33,44a3.24,3.24,0,0,0-.53,2.18c.19,1.29,1.73,2.53,3,1.69a2.49,2.49,0,0,0,1-1.67,5.17,5.17,0,0,0,0-2.11,1.46,1.46,0,0,0-1.69-1.05,2.56,2.56,0,0,0-1.62,1.12,3,3,0,0,0-.05,3.55,2,2,0,0,0,3.13-.51,1.84,1.84,0,0,0-1.12-2.77,2,2,0,0,0-2.52,1.62,1.43,1.43,0,0,0,1.2,1.63,1.54,1.54,0,0,0,1.54-.9,1.76,1.76,0,0,0-.07-1.79,1.59,1.59,0,0,0-1.63-.6,1.65,1.65,0,0,0-1.26,1.13c-.19.61.78.87,1,.26Z" transform="translate(-0.01)"/>
        <g>
          <path class="cls-2" d="M195.34,92.57c1.1-.07,2.65-.14,3,1.16a1,1,0,0,1-.42,1.2c-.44.28-.92.45-1.17.94a.39.39,0,0,0,.33.57,4.19,4.19,0,0,1,2.32.64,1.9,1.9,0,0,1,.64,1.86,1.62,1.62,0,0,1-1.28,1.36,1.73,1.73,0,0,1-1.77-.78c-.26-.41-.91,0-.65.38a2.5,2.5,0,0,0,2.42,1.16,2.33,2.33,0,0,0,1.95-1.72,2.71,2.71,0,0,0-.6-2.63,4.53,4.53,0,0,0-3-1l.32.56c.29-.56,1.09-.64,1.46-1.16a1.82,1.82,0,0,0,.13-1.75c-.6-1.53-2.29-1.62-3.7-1.52-.48,0-.48.79,0,.75Z" transform="translate(-0.01)"/>
          <path class="cls-2" d="M203.47,92.36a8.25,8.25,0,0,0-2.22,4c-.31,1.33-.34,3.17,1.15,3.8s2.39-1.19,2.82-2.35a10.42,10.42,0,0,0,.59-2.45,5.68,5.68,0,0,0-.06-2.25,1.65,1.65,0,0,0-1.38-1.31,1.23,1.23,0,0,0-1.35.94c-.08.47.64.67.72.2a.53.53,0,0,1,.76-.35c.45.18.58.79.62,1.22a9,9,0,0,1-.55,3.61c-.27.76-.89,2.65-2,2s-.78-2.18-.51-3.15A7.42,7.42,0,0,1,204,92.89a.38.38,0,0,0-.53-.53Z" transform="translate(-0.01)"/>
          <path class="cls-2" d="M207.08,91.17a12.07,12.07,0,0,1-.41,1.54,1.48,1.48,0,0,0,.4,1.24,1,1,0,0,0,1.39-.2,2.84,2.84,0,0,0,.58-1.5,3.07,3.07,0,0,0-.37-1.76c-.23-.42-.88,0-.65.38a2.3,2.3,0,0,1,0,2.19.76.76,0,0,1-.31.35l-.06,0s0,0,0,0h0l0,0h0l0,0s0,0,0,0,0,0,0,0l-.06-.1s0,0,0,0l0-.13s0,0,0-.06,0,0,0,0a.49.49,0,0,1,0-.12.47.47,0,0,1,0-.21,6.58,6.58,0,0,0,.39-1.51.38.38,0,0,0-.75,0Z" transform="translate(-0.01)"/>
          <path class="cls-2" d="M206.56,96l2.59-.69a.38.38,0,0,0-.2-.73l-2.59.7a.37.37,0,0,0,.2.72Z" transform="translate(-0.01)"/>
        </g>
        <g>
          <path class="cls-2" d="M138,23.45c1.1-.08,2.65-.15,3,1.16a1,1,0,0,1-.42,1.2c-.44.28-.92.45-1.17.94a.39.39,0,0,0,.33.57,4.19,4.19,0,0,1,2.32.64,1.89,1.89,0,0,1,.63,1.86,1.61,1.61,0,0,1-1.27,1.36,1.73,1.73,0,0,1-1.77-.78c-.26-.41-.91,0-.65.38a2.52,2.52,0,0,0,2.42,1.16,2.35,2.35,0,0,0,1.95-1.72,2.73,2.73,0,0,0-.6-2.64,4.57,4.57,0,0,0-3-1l.32.56c.28-.56,1.09-.64,1.46-1.17a1.85,1.85,0,0,0,.13-1.74c-.6-1.53-2.29-1.62-3.7-1.52-.48,0-.49.79,0,.75Z" transform="translate(-0.01)"/>
          <path class="cls-2" d="M146.12,23.24a8.17,8.17,0,0,0-2.22,4c-.31,1.33-.34,3.17,1.15,3.8s2.39-1.19,2.82-2.35a10.94,10.94,0,0,0,.59-2.45A5.68,5.68,0,0,0,148.4,24,1.65,1.65,0,0,0,147,22.67a1.22,1.22,0,0,0-1.35.94c-.08.47.65.67.73.2a.53.53,0,0,1,.76-.35c.45.17.58.79.62,1.22a9,9,0,0,1-.55,3.61c-.27.76-.89,2.65-2,2s-.77-2.18-.51-3.15a7.53,7.53,0,0,1,2-3.36.38.38,0,0,0-.53-.53Z" transform="translate(-0.01)"/>
          <path class="cls-2" d="M149.72,22.05a12,12,0,0,1-.4,1.54,1.48,1.48,0,0,0,.4,1.24,1,1,0,0,0,1.39-.2,2.83,2.83,0,0,0,.57-1.5,3.06,3.06,0,0,0-.36-1.76c-.23-.42-.88,0-.65.38a2.3,2.3,0,0,1,0,2.19.76.76,0,0,1-.31.35l-.07,0h0s.06,0,0,0l0,0h0l0,0s0,0,0,0,0,0,0,0a.31.31,0,0,1-.05-.1c0-.05,0,0,0-.05l0-.13a.13.13,0,0,0,0-.06h0v-.12a.68.68,0,0,1,0-.21,6.1,6.1,0,0,0,.39-1.51.38.38,0,0,0-.75,0Z" transform="translate(-0.01)"/>
          <path class="cls-2" d="M149.21,26.89l2.59-.7a.37.37,0,0,0-.2-.72l-2.59.7a.37.37,0,0,0,.2.72Z" transform="translate(-0.01)"/>
        </g>
        <g>
          <path class="cls-2" d="M179.63,56.37c1.1-.08,2.65-.15,3.05,1.16a1,1,0,0,1-.42,1.2c-.44.27-.92.44-1.17.94a.38.38,0,0,0,.33.56,4.19,4.19,0,0,1,2.32.64,1.9,1.9,0,0,1,.64,1.86,1.65,1.65,0,0,1-1.28,1.37,1.75,1.75,0,0,1-1.77-.79c-.26-.4-.91,0-.65.38a2.5,2.5,0,0,0,2.42,1.16,2.32,2.32,0,0,0,2-1.72,2.72,2.72,0,0,0-.6-2.63,4.58,4.58,0,0,0-3-1l.32.56c.29-.56,1.09-.64,1.46-1.16a1.84,1.84,0,0,0,.13-1.75c-.6-1.52-2.29-1.61-3.7-1.51-.48,0-.48.78,0,.75Z" transform="translate(-0.01)"/>
          <path class="cls-2" d="M187.76,56.15a8.29,8.29,0,0,0-2.22,4c-.31,1.33-.34,3.18,1.15,3.81s2.39-1.19,2.82-2.36a10.31,10.31,0,0,0,.59-2.45,5.68,5.68,0,0,0-.06-2.25,1.66,1.66,0,0,0-1.39-1.31,1.23,1.23,0,0,0-1.34.94c-.08.47.64.68.72.2a.54.54,0,0,1,.76-.35c.45.18.58.8.62,1.23a9.07,9.07,0,0,1-.55,3.61c-.27.76-.89,2.64-2,2s-.78-2.18-.51-3.14a7.4,7.4,0,0,1,1.95-3.37.38.38,0,0,0-.53-.53Z" transform="translate(-0.01)"/>
          <path class="cls-2" d="M191.37,55a12.67,12.67,0,0,1-.41,1.55,1.47,1.47,0,0,0,.4,1.23,1,1,0,0,0,1.39-.2,2.72,2.72,0,0,0,.57-1.5,3,3,0,0,0-.36-1.75c-.23-.42-.88,0-.65.38a2.28,2.28,0,0,1,0,2.18.84.84,0,0,1-.31.36s-.09,0-.06,0h-.07s.05,0,0,0l0,0s0,0,0,0,0,0,0,0l0-.09c0-.06,0,0,0,0l0-.14s0,0,0-.06,0,.05,0,0a.49.49,0,0,1,0-.12.59.59,0,0,1,0-.2,6.32,6.32,0,0,0,.4-1.52.38.38,0,0,0-.75,0Z" transform="translate(-0.01)"/>
          <path class="cls-2" d="M190.85,59.81l2.59-.7a.37.37,0,0,0-.2-.72l-2.59.69a.38.38,0,0,0,.2.73Z" transform="translate(-0.01)"/>
        </g>
        <g>
          <path class="cls-2" d="M119.54,23.45a13.79,13.79,0,0,1-.31-2.31,5.52,5.52,0,0,1,.08-1.15,4.39,4.39,0,0,1,.13-.52,1.32,1.32,0,0,1,.22-.5c.32-.35,1.28,1.18,1.44,1.43a10.89,10.89,0,0,1,1,2c.16.4.48,1.87,1.19,1.27.25-.2-.1-.56-.35-.35.08-.06.07.05,0,0l-.06-.07a1.07,1.07,0,0,1-.1-.22c-.06-.2-.13-.4-.2-.6-.14-.37-.3-.73-.47-1.09a12,12,0,0,0-1.25-2c-.35-.45-1.07-1.37-1.65-.68a2.48,2.48,0,0,0-.42,1,5.47,5.47,0,0,0-.14,1.14,13,13,0,0,0,.33,2.78c.06.32.54.18.48-.13Z" transform="translate(-0.01)"/>
          <path class="cls-2" d="M121.82,25.22a7.52,7.52,0,0,1,3.34-2.85.25.25,0,1,0-.26-.43,7.94,7.94,0,0,0-3.51,3c-.18.27.26.52.43.25Z" transform="translate(-0.01)"/>
          <path class="cls-2" d="M123.84,14.89a25.87,25.87,0,0,0,.71,5.94.26.26,0,0,0,.31.18c.71-.12,1.08-.83,1.6-1.25A3.55,3.55,0,0,1,128.6,19c.32,0,.32-.51,0-.5a4,4,0,0,0-2.14.64,5,5,0,0,0-.82.7,1.63,1.63,0,0,1-.92.67l.31.18a25.92,25.92,0,0,1-.69-5.81.25.25,0,0,0-.5,0Z" transform="translate(-0.01)"/>
          <path class="cls-2" d="M125.76,13.45v0l.11-.28h.06l.18.07,0,0,.07.25c0-.14.4-.38.5-.47l.51-.41.63-.5c.17-.12.29-.18.35.06a3,3,0,0,1-.11,1.25,14,14,0,0,1-.35,1.42.25.25,0,0,0,.36.28,3.7,3.7,0,0,1,1.62-.72,1.18,1.18,0,0,1,1.2.59,1.42,1.42,0,0,1-.23,1.41,3.63,3.63,0,0,1-1.4,1l.3,0h0c.21-.25-.15-.6-.36-.35a.52.52,0,0,0,0,.71.24.24,0,0,0,.3,0,3.68,3.68,0,0,0,1.66-1.27,1.92,1.92,0,0,0,.16-1.81,1.68,1.68,0,0,0-1.48-.84,3.83,3.83,0,0,0-2,.8l.37.28a13.61,13.61,0,0,0,.49-2.28c.05-.44,0-1.19-.61-1.21-.33,0-.6.28-.84.46s-.61.48-.9.73-.63.41-.64.72a.3.3,0,0,0,.47.25.29.29,0,0,0,.11-.29v0c-.06-.31-.54-.18-.48.14Z" transform="translate(-0.01)"/>
          <path class="cls-2" d="M130.64,10.09c-.68.78-.15,2,.17,2.81s.89,2.23,2,2.17,1.53-1.19,1.54-2.12a3.63,3.63,0,0,0-1.17-2.83,1.41,1.41,0,0,0-1.42-.31,1.16,1.16,0,0,0-.77,1.11c0,.32.52.32.5,0a.68.68,0,0,1,.52-.67,1,1,0,0,1,.92.32,3.16,3.16,0,0,1,.92,2.18c0,.68-.17,1.72-1,1.82a1,1,0,0,1-.89-.56,5.54,5.54,0,0,1-.6-1.16,11,11,0,0,1-.42-1.26,1.29,1.29,0,0,1,.1-1.15c.21-.24-.14-.59-.36-.35Z" transform="translate(-0.01)"/>
          <path class="cls-2" d="M133.18,7.2a2.16,2.16,0,0,0,0,1,1.44,1.44,0,0,0,.49.83.54.54,0,0,0,.78-.26,1.35,1.35,0,0,0,.07-.93,1.67,1.67,0,0,0-.51-.89.25.25,0,0,0-.35,0,.24.24,0,0,0,0,.35l.11.12.09.12a1.11,1.11,0,0,1,.13.27.88.88,0,0,1,.05.15.19.19,0,0,0,0,.08v.06a1.09,1.09,0,0,1,0,.18v.08s0,0,0,0,0,0,0,.05,0,0,0,.07,0,.06,0,0l0,.06,0,0h0l0,0s0,0,0,0,0,0,0,0h0l0,0,0,0s0,0,0,0l-.1-.15a2.85,2.85,0,0,1-.12-.31,1.59,1.59,0,0,1,0-.75.26.26,0,0,0-.18-.31.27.27,0,0,0-.31.18Z" transform="translate(-0.01)"/>
          <path class="cls-2" d="M135,10.41a1.6,1.6,0,0,1,.05-.21.14.14,0,0,0,0-.06c0-.05,0,0,0,0l0-.1.06-.08,0-.05v0s0-.06.07-.08l.08-.08,0,0s0,0,0,0,0,0,0,0l.05,0,.18-.09c-.06,0,0,0,0,0l.05,0,.09,0h.05c.07,0,0,0,0,0H136a.26.26,0,0,0,.25-.25A.25.25,0,0,0,136,9a1.55,1.55,0,0,0-1.46,1.28.26.26,0,0,0,.17.31c.12,0,.29,0,.31-.18Z" transform="translate(-0.01)"/>
          <path class="cls-2" d="M115.15,20.24a11.39,11.39,0,0,0,2.19,5.9,6.22,6.22,0,0,0,1.9,2.29,1.67,1.67,0,0,0,2.13-.3c.2-.25-.16-.6-.35-.35-.6.75-1.58.32-2.11-.26a13.31,13.31,0,0,1-1.5-2.22,10.07,10.07,0,0,1-1.76-5.06.25.25,0,0,0-.5,0Z" transform="translate(-0.01)"/>
          <path class="cls-2" d="M132.63,5.76A4.27,4.27,0,0,1,137,7.67,9.87,9.87,0,0,1,138,13.26c0,.32.49.32.5,0,0-2-.06-4.39-1.32-6.1a4.77,4.77,0,0,0-4.71-1.88c-.31.06-.18.54.14.48Z" transform="translate(-0.01)"/>
          <path class="cls-2" d="M133.45,2.2a4.18,4.18,0,0,0,1.13-1.09c.28-.32.79-.77,1.26-.57s.29,1,.08,1.31a5.51,5.51,0,0,0-.83,1.5.25.25,0,0,0,.41.24,2.82,2.82,0,0,1,1-.79.76.76,0,0,1,.95.27c.42.76-.34,1.53-.84,2-.24.22.12.57.35.35a3.53,3.53,0,0,0,1-1.31,1.53,1.53,0,0,0-.14-1.41,1.25,1.25,0,0,0-1.31-.43,2.94,2.94,0,0,0-1.38,1l.42.24c.16-.68.74-1.14,1-1.78a1.28,1.28,0,0,0-.4-1.57,1.44,1.44,0,0,0-1.56.28c-.51.41-.79,1.05-1.39,1.36-.28.15,0,.58.26.43Z" transform="translate(-0.01)"/>
        </g>
        <g>
          <path class="cls-2" d="M171.47,40.83a12.58,12.58,0,0,1-.53-2.07,4.82,4.82,0,0,1,0-1.07,3.12,3.12,0,0,1,.08-.52c0-.1.06-.33.18-.36s.56.36.69.49.45.47.66.71a10.05,10.05,0,0,1,1.07,1.59,4.85,4.85,0,0,0,.48.9.48.48,0,0,0,.73.1c.22-.23-.14-.59-.36-.35.06-.06.07,0,0,0s0-.05-.05-.06a.69.69,0,0,1-.1-.19c-.07-.15-.15-.3-.23-.45a8.71,8.71,0,0,0-.51-.88,10.11,10.11,0,0,0-1.27-1.58c-.35-.36-1-1.09-1.54-.58a1.67,1.67,0,0,0-.34.92,4.88,4.88,0,0,0,0,1.08A11.73,11.73,0,0,0,171,41c.09.3.58.17.48-.13Z" transform="translate(-0.01)"/>
          <path class="cls-2" d="M173.64,42.13a6.72,6.72,0,0,1,2.61-2.9c.27-.17,0-.6-.25-.43a7.25,7.25,0,0,0-2.8,3.08c-.13.29.3.54.44.25Z" transform="translate(-0.01)"/>
          <path class="cls-2" d="M174.28,32.73a23,23,0,0,0,1.24,5.16.26.26,0,0,0,.31.17c.65-.2.9-.87,1.34-1.32a3.16,3.16,0,0,1,1.8-.9c.32,0,.18-.52-.13-.48a3.59,3.59,0,0,0-1.79.82,3.94,3.94,0,0,0-.67.74c-.18.25-.37.56-.68.66l.3.17a22.17,22.17,0,0,1-1.22-5c0-.31-.54-.32-.5,0Z" transform="translate(-0.01)"/>
          <path class="cls-2" d="M175.81,31.25v0l.06-.24.05,0,.2,0,0,0,.12.22s.19-.2.23-.24l.18-.21.45-.47.39-.39c.11-.11.22-.27.3-.08a2.23,2.23,0,0,1,0,1,10.5,10.5,0,0,1-.16,1.36.25.25,0,0,0,.42.24,3.24,3.24,0,0,1,1.27-.79,1,1,0,0,1,1.11.32,1.22,1.22,0,0,1,0,1.24,3.13,3.13,0,0,1-1.11,1l.3,0h0c.18-.27-.25-.52-.43-.26a.49.49,0,0,0,.08.63.25.25,0,0,0,.3,0,3.44,3.44,0,0,0,1.35-1.35,1.69,1.69,0,0,0-.08-1.67,1.47,1.47,0,0,0-1.43-.53,3.49,3.49,0,0,0-1.7,1l.42.24a10.5,10.5,0,0,0,.2-2.17c0-.4-.18-1-.7-.95-.29,0-.49.3-.69.49s-.49.51-.73.77-.52.45-.5.73a.29.29,0,0,0,.51.16.27.27,0,0,0,.07-.24v0c-.1-.31-.59-.18-.48.13Z" transform="translate(-0.01)"/>
          <path class="cls-2" d="M179.74,27.74c-.52.77.12,1.84.49,2.53s1,1.77,1.93,1.63,1.28-1.28,1.18-2.12a3.26,3.26,0,0,0-1.28-2.3,1.29,1.29,0,0,0-1.36-.15,1.07,1.07,0,0,0-.57,1.13c.05.32.53.19.48-.13a.59.59,0,0,1,.44-.61,1,1,0,0,1,.87.28,2.86,2.86,0,0,1,.92,1.78c.08.57,0,1.51-.75,1.62-.33.06-.59-.21-.79-.43a4.48,4.48,0,0,1-.6-.89,8.26,8.26,0,0,1-.52-1.08,1.07,1.07,0,0,1,0-1c.18-.27-.25-.52-.43-.26Z" transform="translate(-0.01)"/>
          <path class="cls-2" d="M181.68,24.92a1.72,1.72,0,0,0,.12.84,1.21,1.21,0,0,0,.59.72c.31.12.57-.14.66-.42a1.19,1.19,0,0,0-.06-.79,1.54,1.54,0,0,0-.58-.75.24.24,0,0,0-.34.09.25.25,0,0,0,.09.34s.05,0,0,0l.06.05.1.11,0,0s0,0,0,0a.21.21,0,0,0,0,.06s.05.09.08.14l0,0s0,0,0,.05a.88.88,0,0,1,0,.15s0,.05,0,.07,0,0,0,0v.22s0,0,0,0,0,0,0,.07,0,0,0,0l0,.06c0,.06,0,0,0,0h0s0,0,0,0h0s.05,0,0,0,0,0,0,0h0l0,0,0,0-.06-.07s0,0,0,0l0,0-.07-.13a.2.2,0,0,1,0-.08s0-.07,0,0a1.26,1.26,0,0,1-.1-.69.26.26,0,0,0-.25-.25.25.25,0,0,0-.25.25Z" transform="translate(-0.01)"/>
          <path class="cls-2" d="M183.69,27.47s0-.07,0-.1,0,.05,0,0h0v-.05a1.27,1.27,0,0,1,.06-.18c0,.06,0,0,0,0l0,0,0-.09.06-.08h0l0,0a.8.8,0,0,1,.13-.13h0l0,0,.07-.05.09,0s0,0,0,0h0a.61.61,0,0,1,.18,0,.25.25,0,0,0,.18-.31.26.26,0,0,0-.31-.17,1.43,1.43,0,0,0-1.14,1.35.25.25,0,0,0,.5,0Z" transform="translate(-0.01)"/>
          <path class="cls-2" d="M167.2,38.47a9.83,9.83,0,0,0,2.49,4.89,5.77,5.77,0,0,0,2,1.87,1.52,1.52,0,0,0,1.92-.53.25.25,0,0,0-.43-.25c-.43.71-1.35.4-1.85,0a14.1,14.1,0,0,1-1.53-1.75,8.76,8.76,0,0,1-2.07-4.2c0-.31-.54-.32-.5,0Z" transform="translate(-0.01)"/>
          <path class="cls-2" d="M181.05,23.73a3.73,3.73,0,0,1,4,1.18,8.62,8.62,0,0,1,1.49,4.71c0,.32.53.32.5,0a9,9,0,0,0-1.7-5.13,4.21,4.21,0,0,0-4.46-1.24c-.3.1-.17.58.14.48Z" transform="translate(-0.01)"/>
          <path class="cls-2" d="M181.77,20.64a2,2,0,0,1,1-1,1.12,1.12,0,0,1,1.23.12c.37.42,0,1-.32,1.37a3.58,3.58,0,0,0-.83,1.28.26.26,0,0,0,.37.29l1.42-.76c.45-.25,1-.46,1.37-.75s.52-.55.31-.89a.47.47,0,0,0-.8-.06c-.18.27.26.52.44.26-.05,0-.08,0-.09,0s0,0,0,0,0,0,0,.06-.18.17-.26.21c-.29.17-.58.31-.87.47l-1.79.95.37.29c.17-.64.78-1,1.08-1.58a1.27,1.27,0,0,0-.19-1.68c-1-.78-2.46.15-2.91,1.13-.14.3.3.55.43.26Z" transform="translate(-0.01)"/>
        </g>
        <g>
          <path class="cls-2" d="M202,113.06a11.45,11.45,0,0,1,1.32-2.34,3.91,3.91,0,0,1,.92-.85c.19-.13.44-.3.55,0a2,2,0,0,1,.09.63,11.2,11.2,0,0,1-.27,3.11,7.76,7.76,0,0,0-.34,1.32c0,.31.1.65.46.65a.25.25,0,0,0,0-.5c.05.05.06.05,0,0a.33.33,0,0,1,0-.14,1.89,1.89,0,0,1,.09-.34c.09-.28.17-.56.24-.85a12.08,12.08,0,0,0,.25-1.58,11.48,11.48,0,0,0,0-1.66,1.64,1.64,0,0,0-.33-1.14c-.65-.61-1.7.55-2.08,1a11,11,0,0,0-1.4,2.44c-.14.29.29.54.43.25Z" transform="translate(-0.01)"/>
          <path class="cls-2" d="M202.72,115.81a6.85,6.85,0,0,1,4.13-.11.25.25,0,0,0,.13-.48,7.23,7.23,0,0,0-4.39.11c-.3.1-.17.59.13.48Z" transform="translate(-0.01)"/>
          <path class="cls-2" d="M210,109.19a23.83,23.83,0,0,0-2.76,5,.26.26,0,0,0,.11.28c.63.36,1.32.05,2,.07a3.29,3.29,0,0,1,2,.73c.25.2.61-.15.36-.35a3.8,3.8,0,0,0-1.9-.84,3.87,3.87,0,0,0-1,0,1.84,1.84,0,0,1-1.16,0l.11.28a23.93,23.93,0,0,1,2.71-4.87c.19-.26-.24-.51-.43-.25Z" transform="translate(-0.01)"/>
          <path class="cls-2" d="M212.32,109.23v0l.22-.13.06,0,.11.15v0l0,.19,0,0-.15.11a2.29,2.29,0,0,1,.69,0h.65l.71,0c.23,0,.34.06.23.3a3.11,3.11,0,0,1-.79.87c-.32.29-.65.56-1,.82a.25.25,0,0,0,.13.46,3.71,3.71,0,0,1,1.53.41,1.3,1.3,0,0,1,.67,1.19,1.2,1.2,0,0,1-.81.93,2.92,2.92,0,0,1-1.73-.07l.19.24,0,0c.32-.06.18-.54-.13-.48a.49.49,0,0,0-.39.51.26.26,0,0,0,.18.25,3.28,3.28,0,0,0,2.12,0,1.68,1.68,0,0,0,1-1.28,1.74,1.74,0,0,0-.74-1.58,3.85,3.85,0,0,0-2-.6l.12.47a11.5,11.5,0,0,0,1.59-1.37c.32-.34.78-1,.3-1.39a1.5,1.5,0,0,0-.91-.18h-1.19c-.25,0-.67-.06-.83.19a.3.3,0,0,0,.28.45.21.21,0,0,0,.21-.12v0c.13-.29-.3-.54-.43-.25Z" transform="translate(-0.01)"/>
          <path class="cls-2" d="M217.89,109.73c-.94.17-1.21,1.44-1.41,2.21s-.59,2.35.33,3,1.85,0,2.38-.77a3.52,3.52,0,0,0,.6-3,1.38,1.38,0,0,0-.93-1,1,1,0,0,0-1.19.42c-.17.27.26.52.43.25a.58.58,0,0,1,.73-.15,1.06,1.06,0,0,1,.53.79,3.12,3.12,0,0,1-.48,2.24c-.36.54-1.1,1.22-1.79.77a1.05,1.05,0,0,1-.36-1,5.33,5.33,0,0,1,.19-1.32,9.22,9.22,0,0,1,.4-1.26c.14-.32.33-.66.7-.73s.18-.53-.13-.48Z" transform="translate(-0.01)"/>
          <path class="cls-2" d="M221.44,109.13a2,2,0,0,0-.52.74,1.82,1.82,0,0,0-.11.4,1.4,1.4,0,0,0,0,.5.54.54,0,0,0,.35.37.7.7,0,0,0,.45-.06,1.27,1.27,0,0,0,.57-.7,1.7,1.7,0,0,0,.09-1,.27.27,0,0,0-.31-.18.25.25,0,0,0-.17.31v0h0s0,0,0,0v0a.86.86,0,0,1,0,.16.28.28,0,0,0,0,.09s0,0,0,0v0a.85.85,0,0,1,0,.17l0,.08v0s0,0,0,0a1.09,1.09,0,0,1-.08.15.43.43,0,0,1,0,.07l0,0h0l0,0-.06,0s0,0,0,0l-.06,0s0,0,0,0h-.07s0,0,0,0,0,0,0,0l0,0s0,0,0,0v-.24c0,.05,0,0,0,0a1.68,1.68,0,0,1,.09-.32s0-.05,0,0v0l.05-.09.09-.16,0,0h0l.06-.07a.93.93,0,0,1,.14-.14.25.25,0,1,0-.35-.35Z" transform="translate(-0.01)"/>
          <path class="cls-2" d="M221.1,112.66l.07-.06s0,0,0,0l0,0,.17-.09h.05l.09,0h0s.07,0,0,0,0,0,0,0h.24s0,0,0,0h0l.09,0,.1,0s0,0,0,0l0,0,.09,0,0,0s.06,0,0,0a.26.26,0,0,0,.36,0,.25.25,0,0,0,0-.35,1.41,1.41,0,0,0-1-.32,1.46,1.46,0,0,0-.94.4.25.25,0,0,0,0,.35.26.26,0,0,0,.36,0Z" transform="translate(-0.01)"/>
          <path class="cls-2" d="M200.4,107.88a10.92,10.92,0,0,0-1.59,5.73,6.68,6.68,0,0,0,.17,3,1.67,1.67,0,0,0,1.84,1.09c.31-.07.18-.56-.14-.49-1.12.25-1.44-1.23-1.44-2s.06-1.62.13-2.42a9.45,9.45,0,0,1,1.46-4.69c.19-.26-.24-.51-.43-.25Z" transform="translate(-0.01)"/>
          <path class="cls-2" d="M221.79,107.65a4.49,4.49,0,0,1,2.28,4,9.21,9.21,0,0,1-2.3,5.09c-.2.26.23.51.43.25,1.22-1.6,2.43-3.5,2.37-5.59a5,5,0,0,0-2.52-4.21.25.25,0,0,0-.26.43Z" transform="translate(-0.01)"/>
          <path class="cls-2" d="M226.26,106a3.38,3.38,0,0,0-1.54,2.06,2.81,2.81,0,0,0,.42,2.65,1.83,1.83,0,0,0,2.44-.18,2.7,2.7,0,0,0,.85-2.46,2.59,2.59,0,0,0-1.94-2c-.32-.07-.45.41-.14.48a2.07,2.07,0,0,1,1.51,1.38,2.18,2.18,0,0,1-.39,2,1.5,1.5,0,0,1-1.88.51,1.53,1.53,0,0,1-.49-1.05,3,3,0,0,1,.07-1.08,2.94,2.94,0,0,1,1.34-1.88.25.25,0,0,0-.25-.43Z" transform="translate(-0.01)"/>
        </g>
        <path class="cls-2" d="M194.94,111.07s-.1-.1-.05,0,0,0,0,0v0c0,.08,0,0,0-.08s0,0,0,0l0-.07.06-.09.08-.08h0l.08-.06a.23.23,0,0,1,.11,0,.43.43,0,0,1,.21.07,1.17,1.17,0,0,1,.43.45,2.66,2.66,0,0,1,.38,1.3,2.84,2.84,0,0,1,0,.61c0,.1,0,.2-.07.31a1.21,1.21,0,0,0,0,.14l0,0s0,0,0,0l-.08.13-.05.09-.06.07-.12.11c.09-.07-.19.08-.08,0l-.13,0s-.08,0,0,0,0,0,0,0a1,1,0,0,1-.61-.27,1.52,1.52,0,0,1-.35-.48,1.72,1.72,0,0,1-.09-.25c0-.09-.06-.26-.06-.3a2,2,0,0,1,0-.28c0-.06,0-.11,0-.16s0-.06,0-.08,0,0,0,0a2.81,2.81,0,0,1,.08-.31s0-.13,0-.06l.08-.16a.93.93,0,0,1,.31-.34l.13-.07.06,0s.14,0,.05,0h.21l.14,0,.07,0s-.07,0,0,0l.15.08.06,0,.11.1.1.1,0,.06c.05.06,0,0,0,0a1.35,1.35,0,0,1,.15.26s0,0,0,0l0,.06c0,.06,0,.11,0,.16s0,0,0,0v.12a.43.43,0,0,1,0,.09s0,0,0,.06,0,0,0,0-.07.12,0,.06-.14.19-.08.12l-.09.1c.06-.06,0,0-.07,0h0l-.06,0-.07,0s.08,0,0,0h-.13c-.11,0,0,0-.07,0l-.13,0c-.09,0,0,0-.05,0l-.11-.07c.07,0,0,0-.05-.06h0l0,0c0-.06,0,0,0,0l0-.06s0,0,0-.07,0,.07,0,0v-.08s0,0,0,0l0,0a.54.54,0,0,1,.07-.13c-.05.07,0,0,0,0l.05,0c.06,0-.05,0,0,0l.12-.07c.05,0,0,0,0,0l.07,0s.13,0,.09,0h.11c-.08,0,0,0,0,0s0,0,0,0,0,0,0,0,0,0,.05.09,0,0,0,0a.25.25,0,0,1,0,.07.24.24,0,0,1,0,.08s0-.07,0,0,0,.17,0,.09a1.09,1.09,0,0,1-.05.17.65.65,0,0,1-.1.21,1,1,0,0,1-.18.2.57.57,0,0,1-.2.13c.06,0-.05,0-.07,0l-.08,0c-.08,0,.07,0,0,0a1,1,0,0,1-.59-.17,2.23,2.23,0,0,1-.85-1.15,1,1,0,0,1-.08-.39s0-.06,0-.1,0-.07,0,0,0,0,0,0,0,0,0,0l0,0s0,0,0,0l0,0h0l.13,0h.16c-.09,0,0,0,0,0a.85.85,0,0,1,.17.06l0,0,.12.08c-.07,0,0,0,0,0l0,0c.05.06,0,0,0,0l.07.11s0,0,0,0l0,.08a1.27,1.27,0,0,1,0,.43,2.28,2.28,0,0,1-.22.86,7.16,7.16,0,0,1-.45.87l.57-.23a1.74,1.74,0,0,1-.85-2.28l-.3.23.1,0s0,0,0,0h.12l.16,0h0l.09,0a1.33,1.33,0,0,1,.46.42l.11.19s.06.14,0,.08a1.18,1.18,0,0,1,.07.2,1.11,1.11,0,0,0,0,.13.76.76,0,0,1,0,.15s0,.21,0,.13a.65.65,0,0,1-.12.32l.57-.23a.66.66,0,0,1-.53-.45v.27a.71.71,0,0,1,.53-.58l-.35-.14c0-.07,0,.06,0,.08l0,.06s0,0,0,0l0,.14c0-.1,0,0,0,.06a1.21,1.21,0,0,1,0,.19c0-.09,0,0,0,.06s0,.1,0,.15,0,.06,0,0l0,.07-.09.15,0,0a.52.52,0,0,1-.1.11l-.07.06s0,0,0,0l-.14.08c-.09,0,.06,0-.05,0s-.14,0,0,0h-.19l.26.07a1,1,0,0,1-.6-.79,1.18,1.18,0,0,1,0-.42.57.57,0,0,1,0-.14c0,.09,0,0,0,0s0,0,0-.05l.07-.07s0,0,0,0,.13-.07.07-.05.14,0,0,0h0c-.06,0,.08,0,.1,0s-.06,0,0,0l.12.06c.08.06-.05,0,0,0l.09.09c.09.11,0-.07,0,0a.41.41,0,0,1,.07.11c.06.1,0-.06,0,0l0,.12c0-.12,0,0,0,0s0,.06,0,0v0c0,.05,0,.05,0,0l0,.05h0l-.06.06.49-.13a.46.46,0,0,1-.39-.24.58.58,0,0,1-.08-.47l-.83.22a.85.85,0,0,1,.17.62.5.5,0,0,0,.35.61.49.49,0,0,0,.61-.34,1.87,1.87,0,0,0-.43-1.59.49.49,0,0,0-.83.22,1.6,1.6,0,0,0,.73,1.78,1.24,1.24,0,0,0,.5.17.66.66,0,0,0,.59-.34,1.18,1.18,0,0,0,.17-.82,1.7,1.7,0,0,0-.93-1.26,1.26,1.26,0,0,0-1.6.39,1.83,1.83,0,0,0-.23,1.68c.18.56.66,1.25,1.3,1.29a1.92,1.92,0,0,0,1.69-2.49,1.51,1.51,0,0,0-.25-.47.65.65,0,0,0-.74-.19,1.69,1.69,0,0,0-1,.73,1.75,1.75,0,0,0-.22.53,1,1,0,0,0,.21.7,1.66,1.66,0,0,0,1,.72.53.53,0,0,0,.57-.23,2.26,2.26,0,0,0-1.07-3.06,1.78,1.78,0,0,0-1-.13.59.59,0,0,0-.48.31,2.15,2.15,0,0,0-.18.48,2.87,2.87,0,0,0,.18,1.85,2.47,2.47,0,0,0,1.47,1.36.5.5,0,0,0,.56-.23,4.2,4.2,0,0,0,.78-2.66,1.69,1.69,0,0,0-1.26-1.39,1.33,1.33,0,0,0-1.57.58,2.36,2.36,0,0,0,.6,2.36,2.16,2.16,0,0,0,2,.9,1.87,1.87,0,0,0,1.38-1.41A1.35,1.35,0,0,0,196,111a1.57,1.57,0,0,0-1.67.83,1.35,1.35,0,0,0,.6,1.78,1.51,1.51,0,0,0,1.79-.22A1.66,1.66,0,0,0,197,113a1.44,1.44,0,0,0,.17-.45,1.68,1.68,0,0,0-.09-.94,2.2,2.2,0,0,0-1.38-1.32,1.66,1.66,0,0,0-1.75.52,2.53,2.53,0,0,0-.58,1.85,2.7,2.7,0,0,0,.8,1.8,1.74,1.74,0,0,0,2.14.32c1.11-.77,1.17-2.53.71-3.67a2.18,2.18,0,0,0-1.68-1.53,1.45,1.45,0,0,0-1.44,1.21,1.09,1.09,0,0,0,.33,1,.52.52,0,0,0,.71,0,.51.51,0,0,0,0-.71Z" transform="translate(-0.01)"/>
        <path class="cls-2" d="M117.43,32.76a.51.51,0,0,1,.14-.23.48.48,0,0,1,.1-.08l.12-.06a.63.63,0,0,1,.32-.06.46.46,0,0,1,.26.07c.36.18.32.76,0,1.07a.47.47,0,0,1-.25.19c.08,0-.15,0,0,0a.39.39,0,0,1-.26,0c-.18-.1-.22-.41-.18-.63a.89.89,0,0,1,.88-.66,1.21,1.21,0,0,1,.19,0h.09l.19,0,0,0,.07,0a.73.73,0,0,1,.42.44s0,.1,0,.14,0,0,0,.15a.84.84,0,0,1-.08.36,1.39,1.39,0,0,1-.44.53,1.06,1.06,0,0,1-.71.21l-.1,0-.13-.06a.84.84,0,0,1-.26-.23,1.82,1.82,0,0,1-.13-1.66A1.9,1.9,0,0,1,118.92,31a1,1,0,0,1,.33,0,.42.42,0,0,1,.23.13c.22.26.16.74.16,1.05a2.55,2.55,0,0,1-.51,1.76.62.62,0,0,1-.64.16,1.32,1.32,0,0,1-.64-.47,1.76,1.76,0,0,1,0-1.94,4,4,0,0,1,.72-.91,3.09,3.09,0,0,1,.39-.33s.22-.15.26-.13,0,.31,0,.35a5.93,5.93,0,0,1,0,.73,7,7,0,0,1-.27,1.29,5,5,0,0,1-.51,1.16c-.12.19-.33.47-.57.35a.68.68,0,0,1-.27-.31,1.11,1.11,0,0,1-.09-.32,1.36,1.36,0,0,1,.13-.76c.25-.47.66-.77,1.17-.55a1.26,1.26,0,0,1,.71,1.4,1.11,1.11,0,0,1-1.09.75.86.86,0,0,1-.6-.22l.13.22a1,1,0,0,1,.53-1.15,1.17,1.17,0,0,1,.25-.07c.06,0,.07,0,0,0a.3.3,0,0,1,.06.18.69.69,0,0,1-.19.55.87.87,0,0,1-.57.3.68.68,0,0,1-.53-.26,1.33,1.33,0,0,1-.27-1.35,1.84,1.84,0,0,1,1.4-1.14l-.49-.12a.15.15,0,0,1,.07.09c0-.05,0,.08,0,0v.1a.26.26,0,0,1-.1.21s0,0,0,0,0,0,0,0l-.08,0a.29.29,0,0,1-.11-.2.5.5,0,0,0-1-.27,1.26,1.26,0,0,0,1.22,1.51,1.23,1.23,0,0,0,1-1.5c-.07-.33-.32-.77-.7-.77a2.15,2.15,0,0,0-1,.38,2.67,2.67,0,0,0-1.25,1.67c-.29,1.3.7,3,2.2,2.63a1.87,1.87,0,0,0,1.36-1.44,1.52,1.52,0,0,0-.22-1.1,1.12,1.12,0,0,0-1.2-.39,2,2,0,0,0-1.39,1.37,2,2,0,0,0,0,1,1.18,1.18,0,0,0,.81.69,2.11,2.11,0,0,0,2.75-1.71A2.16,2.16,0,0,0,118,31.24a2.29,2.29,0,0,0-1.28,3.09,1.38,1.38,0,0,0,1.9.73,3.39,3.39,0,0,0,1.25-2,7.28,7.28,0,0,0,.38-2.41,1.48,1.48,0,0,0-.36-1.12,1,1,0,0,0-1.16-.15A4.07,4.07,0,0,0,117.13,31a3.23,3.23,0,0,0-.53,2.18c.19,1.29,1.72,2.53,3,1.69a2.49,2.49,0,0,0,1-1.67,5.17,5.17,0,0,0,0-2.11A1.46,1.46,0,0,0,118.86,30a2.56,2.56,0,0,0-1.62,1.12,3,3,0,0,0,0,3.55,2,2,0,0,0,3.13-.51,1.84,1.84,0,0,0-1.12-2.77A2,2,0,0,0,116.68,33a1.43,1.43,0,0,0,1.2,1.63,1.54,1.54,0,0,0,1.54-.9,1.76,1.76,0,0,0-.07-1.79,1.57,1.57,0,0,0-1.63-.6,1.65,1.65,0,0,0-1.26,1.12c-.19.62.78.88,1,.27Z" transform="translate(-0.01)"/>
        <g>
          <path class="cls-2" d="M89.89,40.75a36.92,36.92,0,0,1,22.37-8,29.87,29.87,0,0,1,5,.45c.63.11.9-.85.26-1A35,35,0,0,0,96,35.71,40.57,40.57,0,0,0,89.19,40c-.51.4.2,1.1.7.71Z" transform="translate(-0.01)"/>
          <path class="cls-2" d="M89.52,35.93a16.55,16.55,0,0,0-1.06,2.71c-.12.44-.23.89-.32,1.34s-.27,1,.08,1.38a2.07,2.07,0,0,0,1.26.39L91,42,94,42.5a.52.52,0,0,0,.62-.35.5.5,0,0,0-.35-.62l-2.84-.46-1.36-.22-.68-.12c-.12,0-.43,0-.5-.11l.13.22c-.06-.14,0-.34,0-.49s.07-.35.11-.52c.09-.4.19-.79.31-1.18a15.65,15.65,0,0,1,.88-2.21c.28-.58-.58-1.09-.86-.51Z" transform="translate(-0.01)"/>
        </g>
        <g>
          <path class="cls-2" d="M96.1,21.84c1.1-.07,2.65-.14,3.05,1.16a1,1,0,0,1-.42,1.2c-.44.28-.92.45-1.17.94a.39.39,0,0,0,.33.57,4.19,4.19,0,0,1,2.32.64,1.89,1.89,0,0,1,.63,1.86,1.61,1.61,0,0,1-1.27,1.36,1.73,1.73,0,0,1-1.77-.78c-.26-.41-.91,0-.65.38a2.5,2.5,0,0,0,2.42,1.16,2.35,2.35,0,0,0,2-1.72,2.71,2.71,0,0,0-.6-2.63,4.53,4.53,0,0,0-3-1l.32.56c.28-.56,1.09-.64,1.46-1.16a1.87,1.87,0,0,0,.13-1.75c-.6-1.53-2.29-1.62-3.7-1.52-.48,0-.49.79,0,.75Z" transform="translate(-0.01)"/>
          <path class="cls-2" d="M104.23,21.63a8.17,8.17,0,0,0-2.22,4c-.31,1.33-.34,3.17,1.15,3.8s2.39-1.19,2.82-2.35a10.42,10.42,0,0,0,.59-2.45,5.68,5.68,0,0,0-.06-2.25,1.65,1.65,0,0,0-1.39-1.31,1.22,1.22,0,0,0-1.34.94c-.09.47.64.67.72.2a.53.53,0,0,1,.76-.35c.45.18.58.8.62,1.22a9,9,0,0,1-.55,3.61c-.27.76-.89,2.65-2,2s-.77-2.18-.51-3.15a7.53,7.53,0,0,1,2-3.36.38.38,0,0,0-.53-.53Z" transform="translate(-0.01)"/>
          <path class="cls-2" d="M107.83,20.44a12,12,0,0,1-.4,1.54,1.48,1.48,0,0,0,.4,1.24,1,1,0,0,0,1.39-.2,2.75,2.75,0,0,0,.57-1.5,3,3,0,0,0-.36-1.75c-.23-.43-.88-.05-.65.37a2.3,2.3,0,0,1,0,2.19.76.76,0,0,1-.31.35l-.07,0h0s0,0,0,0l-.05,0h0l-.05,0s0,0,0,0,0,0,0,0a.93.93,0,0,1-.05-.1c0-.05,0,0,0-.05l0-.13a.13.13,0,0,0,0-.06h0v-.12a.68.68,0,0,1,0-.21,6.1,6.1,0,0,0,.39-1.51.38.38,0,0,0-.75,0Z" transform="translate(-0.01)"/>
          <path class="cls-2" d="M107.32,25.28l2.59-.69a.38.38,0,0,0-.2-.73l-2.59.7a.37.37,0,0,0,.2.72Z" transform="translate(-0.01)"/>
        </g>
      </g>
      <g>
        <path class="cls-3" d="M29.28,17.5l-.42.45c-.56.61.17,1.66.91,1.18,1.5-.95,3-1.86,4.6-2.69.76-.4,1.52-.79,2.29-1.16,0,0,.52-.22.52-.24-.17-.24-.22-.23-.17,0v.2a4.54,4.54,0,0,1-.39,1.3c-1.31,3.2-3.54,6-5.49,8.84-.48.69.41,1.3,1,1l1-.46c.89-.39.12-1.68-.75-1.3l-1,.46,1,1c1.22-1.77,2.48-3.51,3.62-5.32a26.53,26.53,0,0,0,1.41-2.49,9.56,9.56,0,0,0,1-2.88c.11-.93-.19-2-1.33-2A3.28,3.28,0,0,0,35.9,14l-1.34.67c-1.9,1-3.75,2-5.55,3.19L29.92,19l.42-.45c.66-.71-.39-1.77-1.06-1.07Z" transform="translate(-0.01)"/>
        <path class="cls-3" d="M26.24,25.07a33.75,33.75,0,0,1,8.23,2.44.77.77,0,0,0,1-.27.74.74,0,0,0-.27-1,34.9,34.9,0,0,0-8.59-2.59.79.79,0,0,0-.93.52.75.75,0,0,0,.53.92Z" transform="translate(-0.01)"/>
        <path class="cls-3" d="M48.09,17.47,42,22.09,39,24.32l-1.58,1.19c-.35.27-.81.52-1,1-.44,1.12.8,1.77,1.63,2.16,1,.47,2.07.83,3.11,1.23a16,16,0,0,1,5.56,3.48c.69.67,1.75-.39,1.06-1.06A16.76,16.76,0,0,0,43,29c-.89-.39-1.8-.71-2.7-1-.5-.19-1-.38-1.48-.61-.24-.11-.48-.22-.71-.35l-.24-.16c-.12.28-.08.33.1.13.19,0,.43-.32.59-.44l.79-.6,1.28-1,2.66-2,5.52-4.17c.76-.57,0-1.87-.76-1.29Z" transform="translate(-0.01)"/>
        <path class="cls-3" d="M53.68,22.1c-1.44,3.49-3.21,7-3.75,10.81a.76.76,0,0,0,.44.88.73.73,0,0,0,.93-.3l.42-.82c.43-.86-.86-1.62-1.3-.76l-.41.82,1.37.58c.53-3.78,2.31-7.32,3.74-10.81a.74.74,0,0,0-.52-.92.76.76,0,0,0-.92.52Z" transform="translate(-0.01)"/>
        <path class="cls-3" d="M56.42,23.49l-.06,0h.76l-.07-.05.37.65V24l-.37.65c-.22.12.06.1.18.13a3.89,3.89,0,0,1,.49.12,6.44,6.44,0,0,1,.93.33,3.45,3.45,0,0,1,1.49,1.18,3.22,3.22,0,0,1,0,3.5A5.11,5.11,0,0,1,57,32.09c-1.3.35-2.82.19-4,1a.76.76,0,0,0,.18,1.37,22.64,22.64,0,0,1,6.51,3.63c.75.6,1.82-.45,1.06-1.06a24.94,24.94,0,0,0-7.17-4l.18,1.37a5.18,5.18,0,0,1,2.43-.61,9.25,9.25,0,0,0,2.67-.8A5.78,5.78,0,0,0,62,29.43,4.7,4.7,0,0,0,60.83,25a5.79,5.79,0,0,0-2.16-1.29C58,23.42,57,23,56.29,23.39a.74.74,0,0,0-.38.65.91.91,0,0,0,.45.78.74.74,0,0,0,.76,0l.06,0c.79-.55,0-1.85-.76-1.3Z" transform="translate(-0.01)"/>
        <path class="cls-3" d="M69.12,28.17a12.43,12.43,0,0,0-5.05,3.16,9.12,9.12,0,0,0-2.78,5.45A3.06,3.06,0,0,0,65.41,40a9.71,9.71,0,0,0,2.66-1.83,10.51,10.51,0,0,0,2.1-2.51,7.29,7.29,0,0,0,1-3.52,9.57,9.57,0,0,0-1.1-3.88c-.39-.88-1.69-.12-1.3.75a8.47,8.47,0,0,1,.88,2.67,5.4,5.4,0,0,1-.44,2.57A9.45,9.45,0,0,1,65.84,38c-.63.44-1.46,1-2.22.55a2,2,0,0,1-.82-2,8,8,0,0,1,2.28-4.15,10.78,10.78,0,0,1,4.44-2.82c.91-.31.52-1.76-.4-1.45Z" transform="translate(-0.01)"/>
        <path class="cls-3" d="M75,29.58a2.36,2.36,0,0,0-1.44,1,3,3,0,0,0-.83,1.59,1.12,1.12,0,0,0,.33.9,1.15,1.15,0,0,0,1,.25,2.43,2.43,0,0,0,1.42-1.1,4.47,4.47,0,0,0,.79-1.86A.5.5,0,0,0,76,29.7a.5.5,0,0,0-.61.35,3.37,3.37,0,0,1-.19.69l0,.1s0,.1,0,0l0,0,0,.07-.18.34-.18.28-.07.09h0l-.12.15a1.81,1.81,0,0,1-.24.24s0,0,0,0,.08-.06,0,0l-.16.1-.07,0s.12,0,0,0l-.14,0c-.08,0,0,0,0,0s-.07,0-.06,0h0l0,0,0,0s0,0,0,0-.08,0,0,0,0,0,0,0,.06.11,0,0l0-.06s0,.11,0,0,0,0,0,0v-.1s0,0,0-.07,0,.11,0,0,0-.1,0-.15a.49.49,0,0,0,0-.07c0,.07,0,0,0,0l.09-.17c.06-.09.11-.18.17-.26l.11-.14s.06-.08,0,0l0,0a3,3,0,0,1,.53-.54c-.09.07,0,0,0,0l.08-.05a1,1,0,0,1,.17-.09s-.12,0,0,0l.11,0,.19,0a.51.51,0,0,0,.35-.62.52.52,0,0,0-.62-.35Z" transform="translate(-0.01)"/>
        <path class="cls-3" d="M71.36,34.79a14.5,14.5,0,0,0,3.4,1.09.77.77,0,0,0,.92-.53.76.76,0,0,0-.52-.92A14.7,14.7,0,0,1,73.54,34l-.78-.27-.39-.16.07,0-.11,0-.22-.09a.75.75,0,0,0-.75,1.29Z" transform="translate(-0.01)"/>
        <path class="cls-3" d="M77.22,39.69l-.67.68A2,2,0,0,0,76.39,43a2,2,0,0,0,2.58.51,14.67,14.67,0,0,1,2.82-1.63h-2L80,42c.26.15-.39-.36-.17-.13,0,.06.11.11.16.16.22.23-.3-.47-.11-.13l.13.23c.14.27-.18-.51-.09-.19a4.39,4.39,0,0,1,.13.52L80,42a4.07,4.07,0,0,1,0,.78l.07-.53a2.33,2.33,0,0,1-.08.38c0,.1-.18.51,0,.13s0,0-.08.11-.2.28,0,0,.06-.08,0,0a1.14,1.14,0,0,1-.11.11c-.19.21.34-.21.18-.13s-.22.13-.33.19.38-.11.21-.08a1.17,1.17,0,0,0-.2.06,3.1,3.1,0,0,1-.42.08l.54-.07a3.3,3.3,0,0,1-.77,0l.53.07a3.63,3.63,0,0,1-.67-.15l-.17-.06s.48.23.24.09l-.34-.19a1.1,1.1,0,0,0-.14-.09c-.18-.1.34.3.2.15a2.83,2.83,0,0,1-.25-.24l-.12-.13c-.14-.13.24.38.16.2l-.11-.16q-.07-.14,0,.09t0,0l.07.53V43l-.08.54c0-.16,0-.14,0,0a.84.84,0,0,1-.25.37c.08-.06.15-.15.23-.22.24-.22-.32.21-.12.09l.27-.16c.07,0,.16-.07.23-.12-.31.12-.39.15-.24.1l.15-.06a4.29,4.29,0,0,1,.6-.13l-.53.07a3.47,3.47,0,0,1,.72,0l-.53-.07a2.57,2.57,0,0,1,.4.08l.2.06c-.33-.14-.4-.17-.21-.08a3.37,3.37,0,0,0,.32.19c-.27-.22-.33-.26-.18-.13l.1.1a.94.94,0,0,1,.1.1c.13.16.09.1-.13-.18a2.14,2.14,0,0,0,.2.32c.09.19.06.12-.09-.22a.64.64,0,0,1,.06.18,2.45,2.45,0,0,1,.08.37l-.07-.53a2.1,2.1,0,0,1,0,.56l.08-.53c0,.1-.06.2-.08.3s.28-.48.06-.16l-.06.12c-.11.16-.06.1.16-.2a1.12,1.12,0,0,0-.18.2l.06,0,.07-.05-.23.14c-.29.17.47-.15.16-.07l-.34.08.54-.07a1.74,1.74,0,0,1-.51,0L80,44c-.12,0-.22-.07-.34-.09.47.1.4.18.2.06-.35-.21.23.22.14.11l-.17-.18c.42.42.24.33.15.17s-.1-.44,0,.14c0-.17-.1-.34-.13-.52l.08.54a3.5,3.5,0,0,1,0-1l-.07.53a5.56,5.56,0,0,1,.26-1c-.22.67-.06.15,0,0a2.39,2.39,0,0,0,.13-.21c.17-.27-.34.41-.08.11s.27-.31.43-.46a1.16,1.16,0,0,1,.24-.2l-.24.18.17-.12.27-.15c.07,0,.37-.17,0,0s0,0,.1,0l.35-.07-.54.08a2,2,0,0,1,.6,0l-.53-.08.28.07c.14.05.12,0-.06,0s-.2-.08-.06,0a1.37,1.37,0,0,0,.2.13c.17.1-.4-.36-.11-.08a1.36,1.36,0,0,0,.17.17c-.3-.24-.24-.31-.11-.09s-.12-.48-.06-.15l.06.27-.07-.53a2.17,2.17,0,0,1,0,.36l.07-.53a1.16,1.16,0,0,1,0,.18c-.07.19,0,.11.12-.26l-.12.2c.19-.39.29-.34.12-.18s.28-.16.14-.1a1,1,0,0,0-.23.13c0-.07.55-.2.18-.09a2.66,2.66,0,0,1-.56.12l.53-.07a4.58,4.58,0,0,1-1.11,0l.53.07c-.19,0-.38-.06-.58-.11l1.47,1.93,0-.38-.07.54a3.43,3.43,0,0,1,.11-.46c0-.08.13-.36,0,0s0,0,0,0,.15-.24.23-.36-.33.37-.11.15l.16-.17.18-.16c.19-.18-.15.13-.19.14s.32-.2.4-.25c.28-.16-.4.15-.18.07l.22-.07a2.52,2.52,0,0,1,.46-.1l-.53.07.28,0-1.73-1c.17.36-.15-.46,0-.08l.09.25a5.78,5.78,0,0,1,.12.57l-.07-.53a4.31,4.31,0,0,1,0,1l.07-.53a3.28,3.28,0,0,1-.08.41l-.06.19c-.08.2-.05.14.08-.18a1.1,1.1,0,0,0-.2.35c.22-.28.27-.35.14-.19a.94.94,0,0,1-.1.1l-.1.09c-.15.13-.09.09.19-.14l-.31.2c-.28.16.52-.18.05,0l-.35.08.53-.07a3.31,3.31,0,0,1-.63,0l.53.07-.26-.06c-.14-.05-.11,0,.07,0s.21.09.08,0-.13-.16.13.13l-.17-.16c.06,0,.33.49.13.15-.1-.17-.08-.37.07.19a2.3,2.3,0,0,1-.12-.45l.07.53a2.53,2.53,0,0,1,0-.55l-.07.53c0-.1,0-.19.07-.29.08-.29-.25.47-.08.2s-.36.37-.13.16-.38.25-.11.08h-2a1.54,1.54,0,0,1-.59-.7c-.13-.33,0-.14,0,0L77.94,42v.15l.07-.53c0,.09-.1.31,0,0a1.37,1.37,0,0,1,.58-.7l2.42.31a6.91,6.91,0,0,1-1-1c-.13-.15.3.42,0,.06a2.2,2.2,0,0,1-.18-.28c-.13-.21-.24-.42-.35-.63a2,2,0,0,0-2.73-.72,2.06,2.06,0,0,0-.72,2.74A7.84,7.84,0,0,0,78.23,44a2.07,2.07,0,0,0,2.42.31,2.65,2.65,0,0,0,0-4.52,2,2,0,0,0-2,0A3.56,3.56,0,0,0,77,42.93a3.9,3.9,0,0,0,1.81,3.18,4.1,4.1,0,0,0,3.69.16A4.51,4.51,0,0,0,85,43.43a5.86,5.86,0,0,0-.44-4.27,2,2,0,0,0-1.73-1,5.21,5.21,0,0,0-5,5,2,2,0,0,0,1.47,1.93c1.94.48,4.52.22,5.57-1.73a3.37,3.37,0,0,0,.41-2.11,3.9,3.9,0,0,0-.9-2,4,4,0,0,0-3.31-1.41,5.91,5.91,0,0,0-5,4.24c-.58,1.91-.13,4.35,1.76,5.36a4,4,0,0,0,5.77-3,4.54,4.54,0,0,0-4.52-5,5.4,5.4,0,0,0-3.52,1.34A2.89,2.89,0,0,0,74.51,43a3.55,3.55,0,0,0,1,2.24,5.23,5.23,0,0,0,5.55,1.42,4.39,4.39,0,0,0,2.44-2.12,5.15,5.15,0,0,0,.41-3.26,4.17,4.17,0,0,0-1.55-2.49,3.07,3.07,0,0,0-.56-.38,2.14,2.14,0,0,0-1.31-.26,3.33,3.33,0,0,0-1,.34,13,13,0,0,0-1.34.69c-.44.26-.85.54-1.26.84l2.42,3.14.68-.68a2,2,0,0,0-2.83-2.83Z" transform="translate(-0.01)"/>
      </g>
    </g>
  </g>
</svg>
