<svg xmlns="http://www.w3.org/2000/svg" viewBox="0 0 242.36 202.18">
  <defs>
    <style>
      .cls-1 {
        fill: #d1d3d4;
      }

      .cls-2 {
        fill: #ed1c24;
      }

      .cls-3 {
        fill: #231f20;
      }
    </style>
  </defs>
  <title>Asset 1</title>
  <g id="Layer_2" data-name="Layer 2">
    <g id="Layer_1-2" data-name="Layer 1">
      <g>
        <g>
          <path class="cls-1" d="M114.1,12.72,116.58,7l1.19-2.74c.16-.37.31-.74.49-1.09l.17-.29a.12.12,0,0,1-.1.08,1.29,1.29,0,0,0-.28,0c-.11-.05-.11-.05,0,0h0a2.74,2.74,0,0,1,.26.28,7.63,7.63,0,0,1,.62,1.07c.45.83.87,1.67,1.27,2.52q1.22,2.57,2.17,5.25c.34,1,1.74,1.62,2.51.66l.53-.66a1.54,1.54,0,0,0,0-2.12,1.5,1.5,0,0,0-2.12,0l-.53.66,2.5.66A64.2,64.2,0,0,0,122.6,5a30,30,0,0,0-1.55-3A3.91,3.91,0,0,0,118.7.07c-2.68-.58-3.55,2.76-4.34,4.59l-2.85,6.55a1.54,1.54,0,0,0,.53,2,1.52,1.52,0,0,0,2.06-.54Z" transform="translate(-0.01)"/>
          <path class="cls-1" d="M116.42,2.18l1.52,77q.75,38.3,1.51,76.59.42,21.58.85,43.18c0,1.93,3,1.94,3,0q-.75-38.47-1.52-76.95l-1.5-76.61-.86-43.22c0-1.92-3-1.93-3,0Z" transform="translate(-0.01)"/>
          <path class="cls-1" d="M113,191.74l7.74,10c.72.94,2.21.31,2.5-.66a16,16,0,0,1,2.79-5.38c1.29-1.62,3.63-3.18,3.33-5.53a1.56,1.56,0,0,0-1.5-1.5c-.73,0-1.61.69-1.5,1.5s-.48,1.27-1.06,1.88a24.32,24.32,0,0,0-2.14,2.5,19,19,0,0,0-2.81,5.73l2.51-.66-7.74-10a1.51,1.51,0,0,0-2.12,0,1.55,1.55,0,0,0,0,2.13Z" transform="translate(-0.01)"/>
        </g>
        <g>
          <path class="cls-1" d="M7.92,87.78l-4,6.92-2,3.46a17.07,17.07,0,0,0-1.75,3.33,3,3,0,0,0,1,3.46,16.78,16.78,0,0,0,2.84.9,9.37,9.37,0,0,1,4.14,3.59,1.5,1.5,0,1,0,2.59-1.51,12.84,12.84,0,0,0-4.42-4.28,10.63,10.63,0,0,0-2.72-1.07,3.17,3.17,0,0,0-.67-.13c-.31,0-.11-.08-.06,0,.12.35.16-.24.22-.39A26.92,26.92,0,0,1,4.89,99l1.88-3.24,3.74-6.48a1.5,1.5,0,0,0-2.59-1.52Z" transform="translate(-0.01)"/>
          <path class="cls-1" d="M228,113.11l6.6-4.41,3.3-2.21a33.36,33.36,0,0,0,3.13-2.15,3.7,3.7,0,0,0,1.3-3.44,9.47,9.47,0,0,0-1.51-3.33,49.66,49.66,0,0,0-4.12-5.85c-.79-1-1.61-1.89-2.47-2.77q-.66-.67-1.35-1.32L232.2,87l-.31-.28-.16-.13c-.24-.26-.25-.15,0,.31l-.21.76.05-.09-.89.69.08,0h-.8l-.19-.07-.69-.9,0,.08.15-1.16,0,.08a1.54,1.54,0,0,0,.54,2,1.5,1.5,0,0,0,2-.53,1.65,1.65,0,0,0-.56-2.24,1.67,1.67,0,0,0-2.27.52c-.94,1.51.68,2.65,1.65,3.55a40.79,40.79,0,0,1,4.8,5.29c.75,1,1.45,2,2.12,3a14.51,14.51,0,0,1,1.77,3.11c.31,1-.52,1.25-1.26,1.74l-3.51,2.34-8.05,5.38a1.54,1.54,0,0,0-.54,2,1.53,1.53,0,0,0,2.06.54Z" transform="translate(-0.01)"/>
          <path class="cls-1" d="M2.07,103.25c31.13-1,62.28-1.09,93.42-1.14,30.91-.06,61.82-.24,92.73-.11,17.36.07,34.72.33,52.06,1.08,1.93.08,1.92-2.92,0-3C209.22,98.73,178.12,99,147,99s-61.88,0-92.82.26c-17.38.14-34.77.41-52.15,1-1.92.06-1.93,3.06,0,3Z" transform="translate(-0.01)"/>
        </g>
      </g>
      <g id="unit_circle" data-name="unit circle">
        <path class="cls-2" d="M118.57,25.23a76.26,76.26,0,0,1,19.74,2.92A79.12,79.12,0,0,1,164.11,41a76.09,76.09,0,0,1,13.2,12.6l.79,1,.27.34.09.12c.18.23-.21-.28-.08-.1.4.53.81,1.07,1.2,1.61,1.31,1.82,2.52,3.7,3.66,5.62a80.54,80.54,0,0,1,8.33,19.44,71.82,71.82,0,0,1,2.16,27.6,59.22,59.22,0,0,1-5.83,19.58,76.65,76.65,0,0,1-10.84,16.08,88.8,88.8,0,0,1-14.75,13.59,67.66,67.66,0,0,1-24.88,11.39,72.63,72.63,0,0,1-28.22.38c-3.9-.68-7.75-1.6-11.56-2.65-4.22-1.17-8.44-2.42-12.56-3.9a63.49,63.49,0,0,1-13-6.22,53.39,53.39,0,0,1-9.59-8,54.9,54.9,0,0,1-12.63-21.31,67.27,67.27,0,0,1-2.51-13.27,124.92,124.92,0,0,1-.77-13.39,84.72,84.72,0,0,1,3.8-24.33c.68-2.26,1.45-4.48,2.34-6.67.34-.84.69-1.69,1-2.54L54,67.5l.36-.85c.25-.56.5-1.12.76-1.67a76.34,76.34,0,0,1,10-16.27A63.56,63.56,0,0,1,85,32.4a65.18,65.18,0,0,1,25.42-7c2.71-.19,5.42-.23,8.13-.19a1.5,1.5,0,0,0,0-3A80.58,80.58,0,0,0,97.41,24.5,65.57,65.57,0,0,0,71.31,38,70.22,70.22,0,0,0,56.49,55.87a101.67,101.67,0,0,0-6.66,13.88,86.91,86.91,0,0,0-5.22,19.54,81.73,81.73,0,0,0-1,12.69,130.89,130.89,0,0,0,.89,14,67.69,67.69,0,0,0,2.7,13.6,57.86,57.86,0,0,0,23.49,30.48C78.68,165.19,88,168,97,170.47A97.24,97.24,0,0,0,123,174.38a69.24,69.24,0,0,0,30-6.86,78.52,78.52,0,0,0,18.84-13.07,87.92,87.92,0,0,0,13.72-15.8,68.76,68.76,0,0,0,9.43-20,69.39,69.39,0,0,0,2-24.18,79.32,79.32,0,0,0-6.66-25.21,80.83,80.83,0,0,0-8.21-14.38,73.38,73.38,0,0,0-7.95-9.21,81.53,81.53,0,0,0-47.75-22.89,75.28,75.28,0,0,0-7.8-.51C116.64,22.2,116.64,25.2,118.57,25.23Z" transform="translate(-0.01)"/>
      </g>
      <g>
        <path class="cls-3" d="M29.28,5.69l-.42.45c-.56.61.17,1.66.91,1.18Q32,5.88,34.37,4.63c.76-.4,1.52-.79,2.29-1.16,0,0,.52-.22.52-.24C37,3,37,3,37,3.27v.2a4.54,4.54,0,0,1-.39,1.3c-1.31,3.2-3.54,6-5.49,8.84-.48.69.41,1.29,1,1l1-.46c.89-.39.12-1.68-.75-1.3l-1,.46,1,1c1.22-1.77,2.48-3.51,3.62-5.32a26.53,26.53,0,0,0,1.41-2.49,9.56,9.56,0,0,0,1-2.88c.11-.93-.19-2-1.33-1.95a3.28,3.28,0,0,0-1.25.44l-1.34.67c-1.9,1-3.75,2-5.55,3.19l.91,1.18.42-.45C31,6.05,30,5,29.28,5.69Z" transform="translate(-0.01)"/>
        <path class="cls-3" d="M26.24,13.26a33.75,33.75,0,0,1,8.23,2.44.78.78,0,0,0,1-.27.74.74,0,0,0-.27-1,34.48,34.48,0,0,0-8.59-2.59.79.79,0,0,0-.93.52.75.75,0,0,0,.53.92Z" transform="translate(-0.01)"/>
        <path class="cls-3" d="M48.09,5.66,42,10.27,39,12.51,37.45,13.7c-.35.27-.81.52-1,1-.44,1.12.8,1.77,1.63,2.16,1,.47,2.07.83,3.11,1.23a16,16,0,0,1,5.56,3.48c.69.67,1.75-.39,1.06-1.06A16.76,16.76,0,0,0,43,17.18c-.89-.39-1.8-.71-2.7-1.05-.5-.19-1-.38-1.48-.61-.24-.11-.48-.22-.71-.35L37.91,15c-.12.28-.08.33.1.13.19,0,.43-.32.59-.44l.79-.6,1.28-1,2.66-2L48.85,7c.76-.57,0-1.88-.76-1.29Z" transform="translate(-0.01)"/>
        <path class="cls-3" d="M53.68,10.29c-1.44,3.49-3.21,7-3.75,10.81a.76.76,0,0,0,.44.88.73.73,0,0,0,.93-.3l.42-.82c.43-.86-.86-1.62-1.3-.76l-.41.82,1.37.58c.53-3.78,2.31-7.32,3.74-10.81a.74.74,0,0,0-.52-.92.76.76,0,0,0-.92.52Z" transform="translate(-0.01)"/>
        <path class="cls-3" d="M56.42,11.68l-.06,0h.76l-.07-.05.37.65v-.09l-.37.65c-.22.12.06.1.18.13a3.89,3.89,0,0,1,.49.12,6.44,6.44,0,0,1,.93.33,3.45,3.45,0,0,1,1.49,1.18,3.22,3.22,0,0,1,0,3.5A5.11,5.11,0,0,1,57,20.28c-1.3.35-2.82.19-4,1a.76.76,0,0,0,.18,1.37,22.64,22.64,0,0,1,6.51,3.63c.75.6,1.82-.45,1.06-1.06a24.94,24.94,0,0,0-7.17-4l.18,1.37A5.18,5.18,0,0,1,56.24,22a9.25,9.25,0,0,0,2.67-.8A5.78,5.78,0,0,0,62,17.62a4.7,4.7,0,0,0-1.2-4.47,5.79,5.79,0,0,0-2.16-1.29c-.69-.25-1.69-.65-2.38-.28a.74.74,0,0,0-.38.65.92.92,0,0,0,.45.78.74.74,0,0,0,.76,0l.06,0c.79-.55,0-1.85-.76-1.3Z" transform="translate(-0.01)"/>
        <path class="cls-3" d="M69.12,16.36a12.52,12.52,0,0,0-5.05,3.15A9.18,9.18,0,0,0,61.29,25a3.06,3.06,0,0,0,4.12,3.18,9.71,9.71,0,0,0,2.66-1.83,10.51,10.51,0,0,0,2.1-2.51,7.29,7.29,0,0,0,1-3.52,9.57,9.57,0,0,0-1.1-3.88c-.39-.88-1.69-.12-1.3.75a8.47,8.47,0,0,1,.88,2.67,5.4,5.4,0,0,1-.44,2.57,9.45,9.45,0,0,1-3.36,3.79c-.63.44-1.46,1-2.22.55a2,2,0,0,1-.82-2,8,8,0,0,1,2.28-4.15,10.78,10.78,0,0,1,4.44-2.82c.91-.31.52-1.76-.4-1.45Z" transform="translate(-0.01)"/>
        <path class="cls-3" d="M75,17.77a2.36,2.36,0,0,0-1.44.95,3,3,0,0,0-.83,1.59,1.12,1.12,0,0,0,.33.9,1.15,1.15,0,0,0,1,.25,2.43,2.43,0,0,0,1.42-1.1,4.53,4.53,0,0,0,.79-1.86.5.5,0,0,0-.35-.61.5.5,0,0,0-.61.35,3.55,3.55,0,0,1-.19.69l0,.1s0,.1,0,0l0,0,0,.07-.18.34-.18.28-.07.09h0l-.12.15-.24.24s0,0,0,0,.08-.06,0,0l-.16.1-.07,0s.12,0,0,0l-.14,0c-.08,0,0,0,0,0s-.07,0-.06,0h0l0,0,0,0s0,0,0,0-.08,0,0,0,0-.05,0-.05.06.11,0,0l0-.06s0,.1,0,0,0,0,0,0v-.1s0-.05,0-.07,0,.11,0,0,0-.1,0-.15a.49.49,0,0,0,0-.07c0,.07,0,0,0,0L73.9,20c.06-.09.11-.18.17-.26l.11-.14,0,0,0,0a3,3,0,0,1,.53-.54c-.09.07,0,0,0,0l.08-.05A1,1,0,0,1,75,18.8s-.12,0,0,0l.11,0,.19,0a.52.52,0,0,0,.35-.62.52.52,0,0,0-.62-.35Z" transform="translate(-0.01)"/>
        <path class="cls-3" d="M71.36,23a14.5,14.5,0,0,0,3.4,1.09.77.77,0,0,0,.92-.53.76.76,0,0,0-.52-.92,14.7,14.7,0,0,1-1.62-.39L72.76,22l-.39-.16.07,0-.11,0-.22-.09A.75.75,0,0,0,71.36,23Z" transform="translate(-0.01)"/>
        <path class="cls-3" d="M77.22,27.88l-.67.68a2,2,0,0,0-.16,2.63A2,2,0,0,0,79,31.7a14.67,14.67,0,0,1,2.82-1.63h-2l.27.16c.26.15-.39-.36-.17-.13,0,.06.11.11.16.16.22.23-.3-.47-.11-.13l.13.23c.14.27-.18-.51-.09-.19a4.39,4.39,0,0,1,.13.52L80,30.16a4.07,4.07,0,0,1,0,.78l.07-.53a2.33,2.33,0,0,1-.08.38c0,.1-.18.5,0,.13s0,0-.08.11-.2.28,0,0,.06-.08,0,0a1.14,1.14,0,0,1-.11.11c-.19.21.34-.21.18-.14l-.33.2c-.26.16.38-.11.21-.08a1.17,1.17,0,0,0-.2.06,3.1,3.1,0,0,1-.42.08l.54-.07a3.3,3.3,0,0,1-.77,0l.53.07a3.63,3.63,0,0,1-.67-.15L78.74,31s.48.23.24.09l-.34-.19a1.1,1.1,0,0,0-.14-.09c-.18-.11.34.3.2.15a2.83,2.83,0,0,1-.25-.24l-.12-.13c-.14-.13.24.38.16.2l-.11-.16q-.07-.13,0,.09c.06.17.07.18,0,0l.07.54v-.12l-.08.54c0-.16,0-.14,0,0a.84.84,0,0,1-.25.37c.08-.06.15-.15.23-.22.24-.22-.32.21-.12.09l.27-.17a2.4,2.4,0,0,0,.23-.11c-.31.12-.39.15-.24.1l.15-.06a4.29,4.29,0,0,1,.6-.13l-.53.07a3.47,3.47,0,0,1,.72,0l-.53-.07a2.57,2.57,0,0,1,.4.08l.2.06c-.33-.14-.4-.17-.21-.08a3.37,3.37,0,0,0,.32.19c-.27-.22-.33-.26-.18-.13l.1.1a.94.94,0,0,1,.1.1c.13.16.09.1-.13-.18a2.14,2.14,0,0,0,.2.32c.09.19.06.11-.09-.22a.64.64,0,0,1,.06.18,2.21,2.21,0,0,1,.08.37l-.07-.53a2.1,2.1,0,0,1,0,.56l.08-.53c0,.1-.06.2-.08.3s.28-.48.06-.16l-.06.12c-.11.16-.06.1.16-.2a1.57,1.57,0,0,0-.18.19c-.11.1-.09.09.06,0l.07,0-.23.14c-.29.17.47-.15.16-.07l-.34.08.54-.07a1.74,1.74,0,0,1-.51,0l.53.07c-.12,0-.22-.06-.34-.09.47.11.4.19.2.07-.35-.21.23.22.14.11l-.17-.18c.42.42.24.33.15.16s-.1-.43,0,.15c0-.17-.1-.34-.13-.52l.08.53a3.43,3.43,0,0,1,0-1l-.07.53a5.56,5.56,0,0,1,.26-1c-.22.67-.06.15,0,0a2.39,2.39,0,0,0,.13-.21c.17-.27-.34.41-.08.11s.27-.31.43-.46a1.16,1.16,0,0,1,.24-.2l-.24.18.17-.12.27-.15c.07,0,.37-.17,0,0s0,0,.1,0l.35-.07L81,30.1a2,2,0,0,1,.6,0L81.1,30l.28.07c.14.05.12,0-.06,0s-.2-.08-.06,0l.2.13c.17.1-.4-.36-.11-.08a1.36,1.36,0,0,0,.17.17c-.3-.24-.24-.31-.11-.09s-.12-.48-.06-.15l.06.27-.07-.53a2.17,2.17,0,0,1,0,.36l.07-.53a1.16,1.16,0,0,1,0,.18c-.07.19,0,.1.12-.26l-.12.2c.19-.39.29-.34.12-.18s.28-.16.14-.1a1,1,0,0,0-.23.13c0-.07.55-.2.18-.09a2.66,2.66,0,0,1-.56.12l.53-.07a4.58,4.58,0,0,1-1.11,0l.53.07c-.19,0-.38-.06-.58-.11l1.47,1.93,0-.38-.07.54a3.43,3.43,0,0,1,.11-.46c0-.08.13-.36,0,0s0,.05,0,0,.15-.24.23-.36-.33.37-.11.15l.16-.17.18-.16c.19-.18-.15.13-.19.14s.32-.2.4-.25c.28-.16-.4.15-.18.07l.22-.08a3.73,3.73,0,0,1,.46-.09l-.53.07.28,0-1.73-1c.17.36-.15-.46,0-.09l.09.26a5.78,5.78,0,0,1,.12.57l-.07-.53a4.31,4.31,0,0,1,0,1l.07-.53a2.83,2.83,0,0,1-.08.4l-.06.2c-.08.2-.05.13.08-.19a1.27,1.27,0,0,0-.2.36c.22-.28.27-.35.14-.19a.94.94,0,0,1-.1.1l-.1.09c-.15.13-.09.09.19-.14l-.31.2c-.28.16.52-.18.05,0l-.35.08.53-.07a3.31,3.31,0,0,1-.63,0l.53.07-.26-.06c-.14-.05-.11,0,.07,0s.21.09.08,0-.13-.16.13.13l-.17-.16c.06,0,.33.49.13.15-.1-.17-.08-.37.07.19a2.3,2.3,0,0,1-.12-.45l.07.53a2.53,2.53,0,0,1,0-.55l-.07.53c0-.1,0-.19.07-.29.08-.3-.25.47-.08.2s-.36.37-.13.16-.38.25-.11.08h-2a1.54,1.54,0,0,1-.59-.7c-.13-.33,0-.14,0,0l-.07-.53v.15l.07-.54c0,.1-.1.31,0,0a1.37,1.37,0,0,1,.58-.7l2.42.31a6.91,6.91,0,0,1-1-1c-.13-.15.3.42,0,.06a3.23,3.23,0,0,1-.18-.28c-.13-.21-.24-.42-.35-.63a2,2,0,0,0-2.73-.72,2.05,2.05,0,0,0-.72,2.74,7.84,7.84,0,0,0,2.08,2.64,2.07,2.07,0,0,0,2.42.31,2.65,2.65,0,0,0,0-4.52,2,2,0,0,0-2,0A3.56,3.56,0,0,0,77,31.12a3.9,3.9,0,0,0,1.81,3.18,4.1,4.1,0,0,0,3.69.16A4.51,4.51,0,0,0,85,31.62a5.86,5.86,0,0,0-.44-4.27,2,2,0,0,0-1.73-1,5.21,5.21,0,0,0-5,5,2,2,0,0,0,1.47,1.93c1.94.48,4.52.22,5.57-1.73a3.37,3.37,0,0,0,.41-2.11,4,4,0,0,0-4.21-3.39,5.91,5.91,0,0,0-5,4.24c-.58,1.91-.13,4.35,1.76,5.36a4,4,0,0,0,5.77-3,4.56,4.56,0,0,0-4.52-5A5.5,5.5,0,0,0,75.62,29a2.93,2.93,0,0,0-1.11,2.23,3.5,3.5,0,0,0,1,2.23,5.21,5.21,0,0,0,5.55,1.43,4.39,4.39,0,0,0,2.44-2.12,5.16,5.16,0,0,0,.41-3.26A4.17,4.17,0,0,0,82.38,27a3.07,3.07,0,0,0-.56-.38,2.14,2.14,0,0,0-1.31-.26,3.33,3.33,0,0,0-1,.34,13,13,0,0,0-1.34.69c-.44.26-.85.54-1.26.84l2.42,3.14.68-.68a2,2,0,0,0-2.83-2.83Z" transform="translate(-0.01)"/>
      </g>
    </g>
  </g>
</svg>
