<svg id="Layer_1" data-name="Layer 1" xmlns="http://www.w3.org/2000/svg" viewBox="0 0 243.68 213.37">
  <defs>
    <style>
      .cls-1 {
        fill: #d1d3d4;
      }

      .cls-2 {
        fill: #231f20;
      }

      .cls-3 {
        fill: #00a651;
      }

      .cls-4 {
        fill: #ed1c24;
      }
    </style>
  </defs>
  <title>square-roots-of-i-rotating-1</title>
  <g>
    <g>
      <path class="cls-1" d="M127.62,26.06l2.48-5.7,1.2-2.74a10.66,10.66,0,0,1,.49-1.09,2.19,2.19,0,0,1,.17-.29.13.13,0,0,1-.11.08,1.31,1.31,0,0,0-.28,0c-.1,0-.11,0,0,0h0a2.74,2.74,0,0,1,.26.28,8.24,8.24,0,0,1,.63,1.08c.44.82.86,1.66,1.26,2.51a54.67,54.67,0,0,1,2.17,5.25c.34.95,1.74,1.62,2.51.66l.53-.66a1.54,1.54,0,0,0,0-2.12,1.5,1.5,0,0,0-2.12,0l-.53.66,2.51.66a66.69,66.69,0,0,0-2.66-6.36,32.42,32.42,0,0,0-1.56-3,3.91,3.91,0,0,0-2.35-1.91c-2.68-.58-3.54,2.76-4.34,4.59L125,24.55a1.54,1.54,0,0,0,.53,2.05,1.52,1.52,0,0,0,2.06-.54Z" transform="translate(-13.54 -2.15)"/>
      <path class="cls-1" d="M130,15.52l1.51,77q.76,38.29,1.51,76.59.43,21.58.85,43.18c0,1.93,3,1.94,3,0q-.75-38.48-1.51-77L133.8,58.74,133,15.52c0-1.92-3-1.93-3,0Z" transform="translate(-13.54 -2.15)"/>
      <path class="cls-1" d="M126.49,205.08l7.74,10c.73.94,2.22.31,2.51-.66a15.77,15.77,0,0,1,2.78-5.38c1.29-1.62,3.63-3.18,3.33-5.53a1.56,1.56,0,0,0-1.5-1.5c-.73,0-1.61.69-1.5,1.5s-.48,1.27-1.06,1.88a24.32,24.32,0,0,0-2.14,2.5,19,19,0,0,0-2.81,5.73l2.51-.66-7.74-10a1.51,1.51,0,0,0-2.12,0,1.55,1.55,0,0,0,0,2.13Z" transform="translate(-13.54 -2.15)"/>
    </g>
    <g>
      <path class="cls-1" d="M21.45,101.12l-4,6.92-2,3.46a16.51,16.51,0,0,0-1.74,3.33,2.94,2.94,0,0,0,1,3.46,16.78,16.78,0,0,0,2.84.9,9.37,9.37,0,0,1,4.14,3.59,1.53,1.53,0,0,0,2.05.54,1.51,1.51,0,0,0,.54-2A12.84,12.84,0,0,0,19.89,117a10.63,10.63,0,0,0-2.72-1.07,3.78,3.78,0,0,0-.67-.13c-.31,0-.11-.08-.06.06.13.34.16-.25.22-.4a26.92,26.92,0,0,1,1.75-3.09l1.88-3.24L24,102.64a1.5,1.5,0,0,0-2.59-1.52Z" transform="translate(-13.54 -2.15)"/>
      <path class="cls-1" d="M241.52,126.45l6.6-4.41,3.3-2.21a32.1,32.1,0,0,0,3.13-2.15,3.7,3.7,0,0,0,1.3-3.44,9.47,9.47,0,0,0-1.51-3.33,48.51,48.51,0,0,0-4.12-5.85c-.79-1-1.61-1.89-2.47-2.77-.44-.45-.89-.89-1.34-1.32l-.69-.63-.31-.27-.16-.14c-.24-.26-.24-.15,0,.31L245,101l.06-.09-.9.69.08,0h-.79l-.2-.07-.69-.9,0,.08.15-1.16,0,.08a1.55,1.55,0,0,0,.53,2.06,1.53,1.53,0,0,0,2.06-.54,1.66,1.66,0,0,0-2.83-1.72c-.94,1.51.67,2.65,1.64,3.55a40.09,40.09,0,0,1,4.8,5.29c.75,1,1.46,2,2.12,3.05a14.57,14.57,0,0,1,1.77,3.11c.31,1-.52,1.25-1.26,1.74l-3.51,2.34L240,123.86a1.53,1.53,0,0,0-.53,2,1.51,1.51,0,0,0,2.05.54Z" transform="translate(-13.54 -2.15)"/>
      <path class="cls-1" d="M15.6,116.59c31.12-1,62.27-1.09,93.41-1.14,30.91-.06,61.82-.24,92.74-.11,17.35.07,34.71.33,52.05,1.08,1.93.08,1.93-2.92,0-3-31.06-1.35-62.16-1.12-93.24-1.07s-61.88,0-92.81.26c-17.39.14-34.78.41-52.15,1-1.93.06-1.94,3.06,0,3Z" transform="translate(-13.54 -2.15)"/>
    </g>
  </g>
  <g>
    <path class="cls-2" d="M189.57,60.85a.1.1,0,0,1,0-.14h-.87A1.87,1.87,0,0,1,188,63c-.29.24-1.92,1.36-2.15.78s.42-1.27.84-1.58a4.31,4.31,0,0,1,1.25-.67,1.25,1.25,0,0,1,.56-.14c.15,0,.11.25.11.39a2.05,2.05,0,0,1-1.66,1.86l.56.23A2,2,0,0,1,188.84,61l-.48-.37a3.4,3.4,0,0,1-.13,2.18,1.37,1.37,0,0,1-.56.75c-.26.13-.31-.27-.35-.47-.23-1.35,1.19-2.5,2.23-3.05L189,60c.64.71-.42,1.94-.92,2.43-.25.25-.72.65-1.08.35a1.42,1.42,0,0,1-.36-1,3.45,3.45,0,0,1,.51-2.35.72.72,0,0,1,.78-.28,1,1,0,0,1,.57.76c.27,1.12-.92,2-1.7,2.52l.61.08a1.93,1.93,0,0,1,.07-2.87h-.71a3.85,3.85,0,0,1,.58,5.16l.78-.1a2.36,2.36,0,0,1,.7-3.31l-.68-.18a2.6,2.6,0,0,1-.62,3.57l.69.18a3,3,0,0,1-.29-3.23l-.44.24h.74l-.43-.24a1.92,1.92,0,0,1-.54,2.45h.71a1.51,1.51,0,0,1,.62-2.47l-.56-.23A1.25,1.25,0,0,1,188,63h.71a1.43,1.43,0,0,1-.54-.95.5.5,0,0,0-.61-.35.5.5,0,0,0-.35.61,2.16,2.16,0,0,0,.79,1.39.51.51,0,0,0,.71,0,2.23,2.23,0,0,0,.18-2.74.5.5,0,0,0-.56-.23,2.53,2.53,0,0,0-1.07,4.15.52.52,0,0,0,.71,0,2.92,2.92,0,0,0,.7-3.67.52.52,0,0,0-.44-.25h-.74a.52.52,0,0,0-.43.25,4,4,0,0,0,.29,4.25.53.53,0,0,0,.69.18,3.61,3.61,0,0,0,1-4.94.5.5,0,0,0-.68-.18,3.35,3.35,0,0,0-.91,4.87c.22.29.62.13.79-.1a4.81,4.81,0,0,0-.73-6.37.51.51,0,0,0-.71,0,3,3,0,0,0-.07,4.29.51.51,0,0,0,.61.08c1.15-.84,2.48-1.94,2.18-3.54a1.79,1.79,0,0,0-2.73-1.33,3.9,3.9,0,0,0-1.12,3.39,2.43,2.43,0,0,0,.69,1.69,1.6,1.6,0,0,0,2,0c1.18-.85,2.58-2.89,1.36-4.23a.5.5,0,0,0-.6-.08,5.84,5.84,0,0,0-2.29,2.09,2.79,2.79,0,0,0-.15,2.78,1.1,1.1,0,0,0,1.32.5,2,2,0,0,0,1-1,4.4,4.4,0,0,0,.37-3.22.53.53,0,0,0-.49-.37,3,3,0,0,0-2.23,4.37.53.53,0,0,0,.57.23,3.06,3.06,0,0,0,2.38-2.73c.06-.68-.21-1.39-1-1.47a3.6,3.6,0,0,0-2,.61c-1,.58-2,1.62-1.8,2.9a1.24,1.24,0,0,0,1.14,1,3.76,3.76,0,0,0,2-.75,4,4,0,0,0,1.61-1.68,2.52,2.52,0,0,0,0-2.3.51.51,0,0,0-.87,0,1.13,1.13,0,0,0,.39,1.51c.53.36,1-.51.5-.86Z" transform="translate(-13.54 -2.15)"/>
    <g>
      <g>
        <path class="cls-3" d="M140.16,30.2a116,116,0,0,0-8,9.19.51.51,0,0,0,.11.79,59.75,59.75,0,0,0,8.37,5.22c.57.29,1.08-.57.5-.87a59.69,59.69,0,0,1-8.37-5.21l.1.78a116,116,0,0,1,8-9.19c.44-.47-.26-1.18-.71-.71Z" transform="translate(-13.54 -2.15)"/>
        <path class="cls-3" d="M134,39.08a58.71,58.71,0,0,1,22,2.2,63.5,63.5,0,0,1,29.48,18.78c.43.48,1.14-.23.71-.71a65.08,65.08,0,0,0-18.07-14.2,62.92,62.92,0,0,0-21.37-6.83A57.55,57.55,0,0,0,134,38.08c-.63.05-.64,1.05,0,1Z" transform="translate(-13.54 -2.15)"/>
      </g>
      <g>
        <path class="cls-3" d="M163,34.5l-.72,2.87a2.45,2.45,0,0,0-.18,1.3.79.79,0,0,0,.82.45,6.88,6.88,0,0,0,1.27-.29l1.44-.38,2.95-.75a.38.38,0,0,0-.2-.73l-4.9,1.27a4.37,4.37,0,0,1-.52.12.42.42,0,0,1-.16,0s0,0,0,0,0,0,0,0a2.38,2.38,0,0,0,.14-.54l.15-.63.62-2.47a.37.37,0,0,0-.72-.2Z" transform="translate(-13.54 -2.15)"/>
        <path class="cls-3" d="M166,34.19a22.9,22.9,0,0,0-.33,8c.07.47.79.27.73-.2a21.59,21.59,0,0,1,.32-7.56c.11-.47-.62-.67-.72-.2Z" transform="translate(-13.54 -2.15)"/>
        <path class="cls-3" d="M172.43,34.43,171.37,34a1.93,1.93,0,0,0-.81-.23c-.62,0-.68.68-.72,1.16a20.32,20.32,0,0,0-.06,2.21c0,.52.06,1.07.65,1.22s1-.2,1.41,0a1.14,1.14,0,0,1,.58,1.42,2.6,2.6,0,0,1-2.95,1.52c-.47-.1-.67.63-.19.72a3.52,3.52,0,0,0,3.14-.89,2.19,2.19,0,0,0,.37-3,1.58,1.58,0,0,0-1.34-.59c-.22,0-.44.08-.66.09s-.17,0-.24-.07,0-.45,0-.57a18.13,18.13,0,0,1,.07-2.21c0-.07,0-.21.07-.24s.42.15.5.18l1.06.41c.45.17.64-.55.2-.72Z" transform="translate(-13.54 -2.15)"/>
        <path class="cls-3" d="M175.28,34.1a1.25,1.25,0,0,0-1.28.6,1.62,1.62,0,0,0-.05,1.47c.19.45.55,1.08,1.12,1.08s.86-.67,1-1.13a2.7,2.7,0,0,0-.06-1.64.39.39,0,0,0-.46-.27.38.38,0,0,0-.26.47,1.37,1.37,0,0,1,.07.24l0,.13v.06c0,.06,0,0,0,0a2.09,2.09,0,0,1,0,.25v.2s0,.1,0,.06a2.68,2.68,0,0,1-.13.48s0,.06,0,0,0,0,0,0l-.06.12-.06.1a.21.21,0,0,1,0,.06c0,.05,0,0,0,0l0,0h0c-.05,0,0,0,0,0l0,0s0,0,0,0l-.1-.09h0l0,0a2.33,2.33,0,0,1-.17-.26,1.17,1.17,0,0,1-.05-.11s0-.05,0,0,0,0,0,0a2.29,2.29,0,0,1-.07-.28s0,0,0,0a.13.13,0,0,1,0-.06v-.14s0-.11,0-.06l0-.14s0-.05,0,0,0,0,0,0l.06-.1s0,0,0,0l.06-.06s.09-.08,0,0l.12-.08s.05,0,0,0,0,0,0,0H175c.05,0-.05,0,0,0h.07s.09,0,0,0a.38.38,0,0,0,.46-.26.38.38,0,0,0-.27-.46Z" transform="translate(-13.54 -2.15)"/>
        <path class="cls-3" d="M174.46,38.21a5.08,5.08,0,0,1,2.45,0,.37.37,0,1,0,.2-.72,5.73,5.73,0,0,0-2.85,0A.37.37,0,0,0,174,38a.37.37,0,0,0,.46.26Z" transform="translate(-13.54 -2.15)"/>
      </g>
    </g>
    <g>
      <g>
        <path class="cls-4" d="M193.69,68.72c4.86,2.8,7.67,8,9.64,13,1.13,2.89,2,5.86,2.94,8.83q1.51,5,2.8,10.13,1.47,5.82,2.64,11.69c.12.63,1.09.37,1-.26q-2.13-10.68-5.23-21.13c-1.71-5.75-3.44-11.74-6.77-16.8a19.44,19.44,0,0,0-6.47-6.35.5.5,0,0,0-.51.86Z" transform="translate(-13.54 -2.15)"/>
        <path class="cls-4" d="M193.86,67.8c-1,.94-.49,2.47-.21,3.6.38,1.58.79,3.16,1.22,4.73a.5.5,0,0,0,1-.26c-.37-1.37-.73-2.75-1.07-4.13-.15-.62-.34-1.25-.44-1.88a1.49,1.49,0,0,1,.24-1.35c.47-.45-.24-1.15-.7-.71Z" transform="translate(-13.54 -2.15)"/>
        <path class="cls-4" d="M193.86,68.87a45.26,45.26,0,0,1,6.88-.28c.65,0,.65-1,0-1a45.26,45.26,0,0,0-6.88.28.53.53,0,0,0-.5.5c0,.25.24.54.5.5Z" transform="translate(-13.54 -2.15)"/>
        <path class="cls-4" d="M212.14,112.19l0,.16,0-.13a1.61,1.61,0,0,1,0,.31l0-.13a1.46,1.46,0,0,1-.1.34l.06-.12a2.26,2.26,0,0,1-.16.26l.08-.1a1,1,0,0,1-.18.17l.79.1,0,0,.05.12a.74.74,0,0,1,0-.14l0,.13a.54.54,0,0,1,0-.18l0,.14a1.17,1.17,0,0,1,0-.2l0,.12a.76.76,0,0,1,.12-.19l-.08.1a.62.62,0,0,1,.14-.14l-.1.08a.35.35,0,0,1,.13-.08l-.12,0a.42.42,0,0,1,.15,0l-.14,0h0l-.3-.23c.05.09.09.17.13.26l0-.12a1.66,1.66,0,0,1,.11.38l0-.13a1,1,0,0,1,0,.25l0-.13a1.33,1.33,0,0,1,0,.19l0-.12a.67.67,0,0,1-.09.14l.08-.1-.12.12.1-.08-.12.07.12-.05-.13,0,.13,0h-.11l.14,0-.09,0,.12,0-.09,0,.1.08-.06-.07.08.1a.19.19,0,0,1,0-.09l0,.12a.56.56,0,0,1,0-.12l0,.13v0a.33.33,0,0,1,0-.14l-.06.11a.83.83,0,0,1,.08-.12l-.08.1a.38.38,0,0,1,.09-.09l-.1.08.07,0-.12,0,.12,0-.13,0a.28.28,0,0,1,.13,0l-.14,0,.14,0-.12,0a.53.53,0,0,1,.15.08l-.1-.08a.8.8,0,0,1,.13.13l-.08-.1a.38.38,0,0,1,.09.15l-.05-.12s0,0,0,0l.48-.63h-.07l.14,0-.09,0,.12,0-.08,0,.11.08-.07-.07.08.1a.56.56,0,0,1-.05-.08l.05.12s0-.06,0-.09l0,.13v-.07l0,.14s0-.06,0-.08l-.05.11a.43.43,0,0,0,0-.07l-.08.1.08-.07-.1.08.06,0-.11,0,.09,0-.13,0h.06l-.14,0,.08,0a.49.49,0,0,0,.39,0,.53.53,0,0,0,.23-.3.51.51,0,0,0-.06-.38.55.55,0,0,0-.29-.23.8.8,0,0,0-.66.07.84.84,0,0,0-.19,1.29.82.82,0,0,0,.64.27.5.5,0,0,0,.39-.2.48.48,0,0,0,.09-.43,1.19,1.19,0,0,0-.61-.71,1,1,0,0,0-.51-.1,1.05,1.05,0,0,0-.56.22,1.11,1.11,0,0,0-.35.76.91.91,0,0,0,.42.83,1,1,0,0,0,1.49-.75,1.74,1.74,0,0,0-.17-1.1,1.42,1.42,0,0,0-.08-.18.56.56,0,0,0-.44-.3.84.84,0,0,0-.44,0,1.19,1.19,0,0,0-.69.63,1.39,1.39,0,0,0-.14.53,1.26,1.26,0,0,0,.13.54.49.49,0,0,0,.37.24.54.54,0,0,0,.42-.14,1.71,1.71,0,0,0,.52-1.73.5.5,0,1,0-1,.26Z" transform="translate(-13.54 -2.15)"/>
      </g>
      <g>
        <path class="cls-4" d="M208.44,79.89l-.72,2.87a2.44,2.44,0,0,0-.17,1.3.76.76,0,0,0,.81.45,6.4,6.4,0,0,0,1.28-.29l1.44-.37,2.94-.76a.37.37,0,0,0-.2-.72l-4.9,1.26c-.17,0-.34.1-.51.13h-.16c-.05,0-.05,0,0,0s0,0,0,0a2.25,2.25,0,0,0,.13-.54l.16-.63.62-2.47a.38.38,0,0,0-.73-.2Z" transform="translate(-13.54 -2.15)"/>
        <path class="cls-4" d="M211.42,79.58a22.66,22.66,0,0,0-.32,8c.06.47.78.27.72-.2a21.59,21.59,0,0,1,.33-7.56c.1-.47-.62-.67-.73-.2Z" transform="translate(-13.54 -2.15)"/>
        <path class="cls-4" d="M217.88,79.82l-1.06-.41a2.09,2.09,0,0,0-.81-.23c-.62,0-.68.68-.71,1.16-.06.73-.08,1.47-.07,2.21,0,.52.06,1.07.66,1.22s1-.19,1.41,0a1.12,1.12,0,0,1,.57,1.41,2.59,2.59,0,0,1-2.94,1.52c-.47-.09-.67.63-.2.72a3.54,3.54,0,0,0,3.14-.88,2.22,2.22,0,0,0,.38-3A1.58,1.58,0,0,0,216.9,83c-.22,0-.44.07-.66.08s-.17,0-.24-.06,0-.46,0-.58a20.41,20.41,0,0,1,.08-2.21c0-.06,0-.21.06-.24s.42.15.5.19l1.06.4c.45.17.65-.55.2-.72Z" transform="translate(-13.54 -2.15)"/>
        <path class="cls-4" d="M220.74,79.49a1.24,1.24,0,0,0-1.28.61,1.6,1.6,0,0,0-.06,1.46c.19.46.56,1.08,1.12,1.08s.86-.66,1-1.13a2.63,2.63,0,0,0-.06-1.64.37.37,0,0,0-.72.2,2.25,2.25,0,0,1,.08.24l0,.13v.06c0,.06,0,0,0,0a2.18,2.18,0,0,1,0,.25V81s0,.1,0,.06a2.59,2.59,0,0,1-.12.48s0,.06,0,0,0,0,0,0a.75.75,0,0,1-.07.12.54.54,0,0,1,0,.11.21.21,0,0,0,0,.06s0,0,0,0l0,0h0s.05,0,0,0,0,0,0,0,.06,0,0,0,0,0,0,0l-.05,0s0,0,0,0l-.09-.1s0,0,0,0l0,0-.16-.26-.06-.11s0-.06,0,0l0,0A1.38,1.38,0,0,1,220,81s0,0,0,0a.13.13,0,0,0,0-.06V80.8s0-.11,0-.06a.5.5,0,0,1,0-.13s0-.06,0,0,0,0,0,0l.06-.1s0,0,0,0l.06-.07s.09-.08,0,0a.41.41,0,0,1,.11-.07h0l0,0h.05s-.06,0,0,0,.05,0,.07,0,.09,0,0,0A.39.39,0,0,0,221,80a.39.39,0,0,0-.26-.46Z" transform="translate(-13.54 -2.15)"/>
        <path class="cls-4" d="M219.91,83.6a5.08,5.08,0,0,1,2.45,0,.37.37,0,0,0,.2-.72,5.73,5.73,0,0,0-2.85,0,.39.39,0,0,0-.26.46.38.38,0,0,0,.46.26Z" transform="translate(-13.54 -2.15)"/>
      </g>
    </g>
    <g>
      <g>
        <g>
          <g>
            <path class="cls-3" d="M135.46,24.88a18.14,18.14,0,0,1,.62-3.81,16.13,16.13,0,0,1,.59-1.78c.11-.28.21-.57.53-.32a1.94,1.94,0,0,1,.46.64,32.23,32.23,0,0,1,2.64,7,.37.37,0,0,0,.72-.2,32.45,32.45,0,0,0-1.39-4.32q-.44-1.07-.93-2.1a4.58,4.58,0,0,0-1-1.61,1,1,0,0,0-1.35,0,2.37,2.37,0,0,0-.45.86c-.14.38-.27.75-.39,1.14a19.65,19.65,0,0,0-.79,4.51c0,.48.72.48.75,0Z" transform="translate(-13.54 -2.15)"/>
            <path class="cls-3" d="M137.93,29.74,142,26.92l1-.69a3,3,0,0,0,.81-.65c.37-.54-.29-1.29-.81-.79-.35.33.18.86.53.53-.15-.21-.28-.25-.38-.11l-.15.1-.38.27-.67.46-1.48,1-2.91,2c-.39.27,0,.92.38.65Z" transform="translate(-13.54 -2.15)"/>
          </g>
          <path class="cls-3" d="M144.45,14.79l-.27,4.44c-.09,1.48-.26,3-.28,4.45s1.84.45,2.56.18l4.16-1.56c.45-.17.25-.89-.2-.72l-3.64,1.36-1.82.68c-.06,0-.31.17-.37.14.11.06.06-.1.07-.18,0-.34,0-.67.06-1l.48-7.78c0-.48-.72-.48-.75,0Z" transform="translate(-13.54 -2.15)"/>
          <path class="cls-3" d="M148.07,13.29a22.68,22.68,0,0,0,1.17,3.95.94.94,0,0,0,1.07.67c.56-.15.87-.7,1.23-1.09a8.07,8.07,0,0,1,2.73-2c.43-.19,1.16-.28,1.38-.74s-.18-1-.67-.85-.26.9.2.73c-.07-.19-.15-.26-.25-.19l-.13,0-.31.11-.55.23a9.85,9.85,0,0,0-1.11.59,9.31,9.31,0,0,0-1.9,1.64c-.15.17-.55.84-.82.81s-.22-.34-.27-.47-.18-.48-.26-.73a24.17,24.17,0,0,1-.78-2.89c-.1-.47-.82-.27-.73.2Z" transform="translate(-13.54 -2.15)"/>
          <path class="cls-3" d="M150.94,11.74l2.91,9a.38.38,0,0,0,.69.09l.27-.48c.23-.42-.42-.8-.65-.38l-.27.48.69.09-2.92-9c-.15-.46-.87-.26-.72.2Z" transform="translate(-13.54 -2.15)"/>
          <path class="cls-3" d="M157.31,9.46c0,.18-.43.16-.6.19a1.52,1.52,0,0,0-.65.25,1.51,1.51,0,0,0-.42,1.49c.11.81.28,1.64.45,2.45a1.06,1.06,0,0,0,1.09,1c.61,0,1.15-.38,1.77-.28a2.18,2.18,0,0,1,1.49,1,2,2,0,0,1-1.78,2.82.38.38,0,0,0,0,.75,2.71,2.71,0,0,0,2.17-4.32,2.81,2.81,0,0,0-2.64-1c-.25,0-.49.14-.74.2s-.56,0-.64-.37c-.14-.71-.27-1.42-.4-2.13a1.64,1.64,0,0,1,0-.88c.12-.23.42-.24.65-.28.43-.07.9-.19,1-.69s-.65-.67-.73-.2Z" transform="translate(-13.54 -2.15)"/>
          <path class="cls-3" d="M159.49,7.68a18.82,18.82,0,0,0,.13,2,2.43,2.43,0,0,0,.22.92,1,1,0,0,0,.62.48,1.28,1.28,0,0,0,1.35-.52,1.65,1.65,0,0,0,0-1.65,3.65,3.65,0,0,0-1.48-1.3.38.38,0,0,0-.38.65,3.73,3.73,0,0,1,1.07.81,1,1,0,0,1,.22,1s0,.06,0,.07l0,0s0,0,0,0-.11.09,0,.05l-.12.07h0l-.05,0-.11,0c-.07,0,0,0,0,0h-.13a.19.19,0,0,1-.1,0s0,0,0,0l0,0c-.06,0,0,0,0,0l-.05-.05h0a.47.47,0,0,1,0-.1,2.85,2.85,0,0,1-.11-.62c-.07-.61-.1-1.23-.11-1.85a.38.38,0,0,0-.75,0Z" transform="translate(-13.54 -2.15)"/>
          <path class="cls-3" d="M160.8,12.88l2.32-1.08a.37.37,0,0,0,.14-.51.38.38,0,0,0-.51-.13l-2.33,1.07a.39.39,0,0,0-.14.52.4.4,0,0,0,.52.13Z" transform="translate(-13.54 -2.15)"/>
        </g>
        <path class="cls-3" d="M130.77,19.84c-.32,5.24,1.33,11.21,6.64,13.35.45.18.64-.54.2-.72-5-2-6.39-7.77-6.09-12.63,0-.48-.72-.48-.75,0Z" transform="translate(-13.54 -2.15)"/>
        <path class="cls-3" d="M160.84,6.14A8.37,8.37,0,0,1,166,10.78a7.91,7.91,0,0,1,.63,3.36c-.05,1.31-.64,2.59-.33,3.91.11.47.83.27.72-.2a6.24,6.24,0,0,1,.23-2.5,9.09,9.09,0,0,0,.13-1.8,8.82,8.82,0,0,0-.88-3.49A9.15,9.15,0,0,0,161,5.42c-.46-.15-.66.58-.2.72Z" transform="translate(-13.54 -2.15)"/>
      </g>
      <path class="cls-3" d="M164.81,3.57a2.66,2.66,0,0,1,1.76-.66,1,1,0,0,1,.77.95c.13,1.25-1,2.17-1.65,3.11-.24.37.28.72.59.45a10.26,10.26,0,0,1,2.91-1.75A.37.37,0,0,0,169,5a11.12,11.12,0,0,0-3.24,1.94l.59.46a24,24,0,0,0,1.4-1.95A2.8,2.8,0,0,0,168,3.48a1.68,1.68,0,0,0-1.33-1.3,3.26,3.26,0,0,0-2.27.74c-.4.27,0,.92.38.65Z" transform="translate(-13.54 -2.15)"/>
    </g>
    <g>
      <g>
        <g>
          <path class="cls-2" d="M219.49,104.5a16.36,16.36,0,0,1,1.91-2.76c.35-.4.72-.8,1.11-1.17.07-.07.42-.49.54-.48s.15.21.17.29a5.49,5.49,0,0,1,.09,1.57c0,.64,0,1.27-.05,1.9a28.43,28.43,0,0,1-.5,3.8c-.12.63.84.9,1,.27a29,29,0,0,0,.55-4.54c0-.79,0-1.59,0-2.38a2.4,2.4,0,0,0-.44-1.54c-1-1.08-2.21.53-2.83,1.21a17.5,17.5,0,0,0-2.4,3.33.5.5,0,0,0,.87.5Z" transform="translate(-13.54 -2.15)"/>
          <path class="cls-2" d="M219.67,109.54l4.72-.79,1.13-.19a2.38,2.38,0,0,0,1-.26.68.68,0,0,0-.53-1.23c-.62.15-.36,1.12.27,1H226l-.16-.1-.07-.25q.3-.27.06-.18l-.16,0-.39.07-.87.14-1.66.28-3.38.57c-.63.11-.37,1.07.26,1Z" transform="translate(-13.54 -2.15)"/>
        </g>
        <path class="cls-2" d="M231.19,99.34l-2,3.6c-.67,1.2-1.4,2.38-2,3.6a.81.81,0,0,0,.43,1.26,11.21,11.21,0,0,0,1.92.15l4.23.31c.64,0,.64-1,0-1l-3.58-.26-1.79-.13a1.89,1.89,0,0,0-.4,0c-.15,0-.14,0,0,.21l.12-.21.44-.78,3.51-6.21c.32-.56-.55-1.07-.86-.51Z" transform="translate(-13.54 -2.15)"/>
        <path class="cls-2" d="M234.93,99.52a20.31,20.31,0,0,0-.59,3.8,1,1,0,0,0,.89,1.16,3,3,0,0,0,1.41-.44,8,8,0,0,1,3.35-.63c.5,0,1.16.22,1.54-.21a.69.69,0,0,0-.49-1.15c-.64,0-.64,1,0,1h.06l-.26-.07h0l-.12-.22c0,.08,0,.07,0,0l.13-.22s0,0-.09,0l-.31,0q-.3,0-.6,0a9.32,9.32,0,0,0-1.29.09,9.12,9.12,0,0,0-2.4.67c-.17.08-.64.4-.84.31,0,0,0,.07,0,0a2.45,2.45,0,0,0,0-.27c0-.24,0-.48.06-.72a20.63,20.63,0,0,1,.48-2.7c.15-.62-.81-.89-1-.26Z" transform="translate(-13.54 -2.15)"/>
        <path class="cls-2" d="M238,99.46l-1.09,8.65a.5.5,0,0,0,.75.43l.43-.29c.52-.37,0-1.24-.51-.87l-.42.3.75.43L239,99.46c.08-.64-.92-.63-1,0Z" transform="translate(-13.54 -2.15)"/>
        <path class="cls-2" d="M244.5,99.94c.09-.13.11,0,0-.1l-.31-.08a2.07,2.07,0,0,0-.7-.08,1.35,1.35,0,0,0-1,.78,8.1,8.1,0,0,0-.49,1.61,3.72,3.72,0,0,0-.31,1.73c.25,1,1.48.72,2.19,1.1a1.67,1.67,0,0,1,.82,2.07,1.86,1.86,0,0,1-2.32.84c-.59-.26-1.1.6-.51.86,1.84.82,4.31-.56,3.9-2.73a2.79,2.79,0,0,0-1.9-2.12,5.09,5.09,0,0,0-.66-.12c-.15,0-.48,0-.56-.16a3.1,3.1,0,0,1,.19-.74l.31-1.16a2.51,2.51,0,0,1,.28-.81c.14-.2.28-.16.5-.11.56.15,1.08.27,1.47-.27s-.49-1-.86-.51Z" transform="translate(-13.54 -2.15)"/>
        <path class="cls-2" d="M247.17,99.22a17.68,17.68,0,0,0-.72,1.74,2.19,2.19,0,0,0-.18.94,1.05,1.05,0,0,0,.46.79,1.41,1.41,0,0,0,1.44.08,1.62,1.62,0,0,0,.76-1.45,3.31,3.31,0,0,0-.77-1.8.52.52,0,0,0-.69-.18.52.52,0,0,0-.18.69,4.42,4.42,0,0,1,.39.57,2,2,0,0,1,.15.29c0,.07,0-.07,0,0a.64.64,0,0,0,0,.07l.06.19s0,.11,0,0a.66.66,0,0,1,0,.14v.14s0,.08,0,0,0,0,0,0a.56.56,0,0,1,0,.12s0,.08,0,0l0,.05-.07.12,0,0-.06.06,0,.06c-.05,0,0,0,0,0l0,0s-.05.06,0,0,0,0,0,0h-.12c-.05,0,.1,0,0,0h-.12c-.09,0,.1,0,0,0l-.09,0c-.07,0,0,0,0,0s0,0,0,0l0,0-.05,0c-.08-.05,0,0,0,0l-.07-.07s.06.09,0,0,0,0,0,0,0,0,0,0,0,0,0,0h0v-.08s0,.09,0,0,0-.1,0-.15.08-.25.13-.38.18-.52.28-.77l0-.07s0-.11,0-.06,0-.11.07-.17.12-.27.19-.41a.51.51,0,0,0-.18-.68.49.49,0,0,0-.68.18Z" transform="translate(-13.54 -2.15)"/>
        <path class="cls-2" d="M246.28,104.33h2.46a.51.51,0,0,0,.5-.5.5.5,0,0,0-.5-.5h-2.46a.5.5,0,0,0-.5.5.51.51,0,0,0,.5.5Z" transform="translate(-13.54 -2.15)"/>
      </g>
      <path class="cls-2" d="M217.22,98.27a15,15,0,0,0-2.19,7.51,9.4,9.4,0,0,0,2.58,6.4c.45.46,1.15-.25.7-.71-3.46-3.54-2.42-8.79-.22-12.69a.5.5,0,0,0-.87-.51Z" transform="translate(-13.54 -2.15)"/>
      <path class="cls-2" d="M249.5,98.65a7.2,7.2,0,0,1,2.05,5.24,6.85,6.85,0,0,1-.65,2.75,11.94,11.94,0,0,0-1.48,2.8c-.12.63.85.9,1,.27a4.66,4.66,0,0,1,.87-1.7,7.11,7.11,0,0,0,.74-1.42,8,8,0,0,0,.55-3,8.16,8.16,0,0,0-2.35-5.63.5.5,0,0,0-.7.71Z" transform="translate(-13.54 -2.15)"/>
      <path class="cls-2" d="M254.49,97.71a9.6,9.6,0,0,0-.83,2.78,1.41,1.41,0,0,0,.34,1.26,1.35,1.35,0,0,0,1,.35c1.64-.09,2.41-1.84,2.2-3.29A3.16,3.16,0,0,0,256,96.75a.51.51,0,0,0-.71,0,.5.5,0,0,0,0,.7,2.34,2.34,0,0,1,.84,1.23,2.31,2.31,0,0,1,.08.75,2.41,2.41,0,0,1-.14.71.45.45,0,0,1-.06.13.7.7,0,0,1-.09.17,1,1,0,0,1-.2.28.69.69,0,0,1-.23.19l-.15.08-.07,0c.07,0-.07,0-.07,0l-.17,0H255s-.2,0-.09,0c0,0-.18-.06-.09,0l-.07,0s.06,0,0,0l0,0,0,0a.66.66,0,0,1,0-.37,8.17,8.17,0,0,1,.72-2.41.51.51,0,0,0-.18-.68.51.51,0,0,0-.69.18Z" transform="translate(-13.54 -2.15)"/>
    </g>
    <g>
      <g>
        <g>
          <path class="cls-4" d="M195.81,57.59a17,17,0,0,1,.71-3.39,14.23,14.23,0,0,1,.59-1.58c.08-.19.17-.52.41-.39a1.29,1.29,0,0,1,.44.61,28.35,28.35,0,0,1,2.16,6.6c.1.47.82.27.73-.2a29.86,29.86,0,0,0-1.12-4c-.23-.64-.48-1.28-.75-1.91a3.87,3.87,0,0,0-1-1.62c-1.22-1-1.79,1.07-2.07,1.87a17.56,17.56,0,0,0-.89,4.05c0,.48.71.48.75,0Z" transform="translate(-13.54 -2.15)"/>
          <path class="cls-4" d="M197.88,62.18l3.81-2.4.91-.58a3.06,3.06,0,0,0,.8-.57c.44-.52-.19-1.27-.74-.82-.38.31.16.84.53.53-.16-.22-.29-.27-.4-.15l-.15.1-.37.23-.64.41-1.38.87-2.75,1.73c-.4.26,0,.91.38.65Z" transform="translate(-13.54 -2.15)"/>
        </g>
        <path class="cls-4" d="M204.4,48.73,204,52.8c-.14,1.34-.36,2.71-.43,4.06s1.71.5,2.39.28l3.88-1.26c.45-.15.26-.88-.2-.73l-3.39,1.11-1.7.55c-.08,0-.25.13-.34.11.14,0,.1,0,.12-.15,0-.31.06-.62.1-.93l.75-7.11c0-.48-.7-.47-.75,0Z" transform="translate(-13.54 -2.15)"/>
        <path class="cls-4" d="M207.78,47.51a20.12,20.12,0,0,0,.92,3.67.88.88,0,0,0,1,.66c.52-.13.83-.61,1.18-1a7.09,7.09,0,0,1,2.59-1.72c.4-.16,1.07-.21,1.3-.64a.58.58,0,0,0-.65-.83c-.46.15-.26.87.2.72-.06-.21-.15-.29-.27-.23l-.11,0-.29.09a4.6,4.6,0,0,0-.52.19,7.66,7.66,0,0,0-1,.5,8.1,8.1,0,0,0-1.81,1.43c-.13.13-.54.75-.76.7s-.17-.34-.2-.44l-.21-.68a20.35,20.35,0,0,1-.6-2.68c-.08-.47-.8-.27-.73.2Z" transform="translate(-13.54 -2.15)"/>
        <path class="cls-4" d="M210.47,46.2l2.32,8.38a.38.38,0,0,0,.68.09l.27-.43c.25-.41-.4-.79-.65-.38l-.26.43.68.09L211.19,46a.37.37,0,0,0-.72.2Z" transform="translate(-13.54 -2.15)"/>
        <path class="cls-4" d="M216.4,44.35c0,.11-.44.11-.55.12a1.31,1.31,0,0,0-.61.21,1.45,1.45,0,0,0-.45,1.4c.08.7.2,1.4.3,2.1s.32,1.06,1,1.09,1.11-.31,1.71-.17a2,2,0,0,1,1.26,1,1.78,1.78,0,0,1-1.73,2.47c-.48,0-.48.73,0,.75a2.61,2.61,0,0,0,2.61-2.09,2.52,2.52,0,0,0-1.72-2.76,3.26,3.26,0,0,0-1.78,0c-.12,0-.34.09-.46,0s-.12-.38-.14-.51l-.18-1.27a4.27,4.27,0,0,1-.1-1.07c0-.34.21-.4.52-.44s1-.11,1.08-.65-.63-.67-.73-.2Z" transform="translate(-13.54 -2.15)"/>
        <path class="cls-4" d="M218.47,42.82a16.15,16.15,0,0,0,0,1.84,2.34,2.34,0,0,0,.19.87.94.94,0,0,0,.58.45,1.22,1.22,0,0,0,1.28-.46,1.55,1.55,0,0,0,0-1.56,3.37,3.37,0,0,0-1.31-1.23.39.39,0,0,0-.52.13.4.4,0,0,0,.14.52,3.32,3.32,0,0,1,.91.74,1.12,1.12,0,0,1,.21.47.11.11,0,0,1,0,0s0,0,0,0v.14s0,.09,0,0,0,0,0,0a.83.83,0,0,1,0,.15l0,.08h0s0,0,0,0-.1.07,0,0l-.11.06h0l-.05,0-.1,0c.08,0,0,0,0,0h-.06c-.05,0,.07,0,0,0l-.07,0-.06,0c.08,0,0,0,0,0s0,0,0,0,0-.08,0-.06,0-.19,0-.2,0-.26,0-.38a16.5,16.5,0,0,1,0-1.72.37.37,0,0,0-.37-.38.39.39,0,0,0-.38.38Z" transform="translate(-13.54 -2.15)"/>
        <path class="cls-4" d="M219.43,47.68l2.18-.9a.37.37,0,0,0-.2-.72l-2.18.9a.38.38,0,0,0-.26.46.38.38,0,0,0,.46.26Z" transform="translate(-13.54 -2.15)"/>
      </g>
      <path class="cls-4" d="M191.66,52.82c-.5,4.74.75,10.32,5.5,12.49.43.2.81-.45.37-.65-4.52-2.06-5.6-7.35-5.12-11.84.05-.48-.7-.48-.75,0Z" transform="translate(-13.54 -2.15)"/>
      <path class="cls-4" d="M220.2,41.24a7.47,7.47,0,0,1,3.89,4.13,7.36,7.36,0,0,1,.5,2.78c0,1.1-.46,2.16-.23,3.26.1.47.82.27.72-.2a6.09,6.09,0,0,1,.17-2.08,6.74,6.74,0,0,0,.08-1.49,8.26,8.26,0,0,0-4.75-7c-.43-.19-.82.46-.38.65Z" transform="translate(-13.54 -2.15)"/>
      <path class="cls-4" d="M224.18,40.64a9.91,9.91,0,0,1,.72-3.12l-.68.09a15.58,15.58,0,0,1,1.58,3.48c.15.46.87.27.73-.19a16,16,0,0,0-1.67-3.67.38.38,0,0,0-.68.09,10.54,10.54,0,0,0-.75,3.32.38.38,0,0,0,.75,0Z" transform="translate(-13.54 -2.15)"/>
      <path class="cls-4" d="M225.61,42.07l2.06-1.73a.37.37,0,0,0-.53-.53l-2.06,1.73a.37.37,0,0,0,.53.53Z" transform="translate(-13.54 -2.15)"/>
    </g>
  </g>
  <path class="cls-2" d="M131.13,38.2a1.47,1.47,0,0,1-.83-.42l.13.49a.5.5,0,0,1,.31-.29h-.27c.29.05.34.48.37.72a2.41,2.41,0,0,1-.09,1.16c-.2.52-.87,1-1.43.67s-.19-1,.18-1.18c.57-.36,1.23.27,1.35.81a1.64,1.64,0,0,1-1.2,1.74l.56.23a2.76,2.76,0,0,1,0-2.9,7.78,7.78,0,0,1,.95-1.46c.14-.17.73-1,1-.89s.18.36.2.49a3.49,3.49,0,0,1,0,.79,4.7,4.7,0,0,1-.63,1.76c-.14.23-.66,1.14-1,.84a1.94,1.94,0,0,1-.38-.69,5.43,5.43,0,0,1-.28-1c-.2-1.11.35-2.61,1.68-2.59l-.5-.5a6.31,6.31,0,0,1-1.4,3.59l.79.11c-.15-.23-.59-.85-.26-1.1.13-.11.43,0,.6,0,.87.42.29,1.78,0,2.41l.62-.35a1.9,1.9,0,0,1-1.5-.79c-.1-.21,0-.9.35-.85a.5.5,0,0,0,.61-.35.5.5,0,0,0-.35-.61,1.52,1.52,0,0,0-1.64,1.79c.15,1.08,1.3,1.62,2.26,1.78a.52.52,0,0,0,.61-.35,4,4,0,0,0,.38-2.38,1.78,1.78,0,0,0-1.25-1.33,1.46,1.46,0,0,0-1.57.41,1.88,1.88,0,0,0,.23,2.17.51.51,0,0,0,.79.1,7.39,7.39,0,0,0,1.69-4.3.5.5,0,0,0-.5-.5,2.94,2.94,0,0,0-2.72,3.23,5,5,0,0,0,.75,2.4,1.37,1.37,0,0,0,1,.67,1.44,1.44,0,0,0,1.12-.47,5.19,5.19,0,0,0,1.28-2.21,4.16,4.16,0,0,0,.14-2.29,1.21,1.21,0,0,0-1.79-.81,3.64,3.64,0,0,0-.82.75,11.87,11.87,0,0,0-.81,1.06c-.94,1.37-1.6,3.27-.54,4.77a.52.52,0,0,0,.56.23,2.61,2.61,0,0,0,1.87-3.09,2,2,0,0,0-3.09-1.05,1.66,1.66,0,0,0,.46,2.82,2,2,0,0,0,1.76-.3,2.45,2.45,0,0,0,.94-1.82,2.73,2.73,0,0,0-.54-2.11c-.69-.69-1.56,0-1.84.69a.5.5,0,0,0,.13.49,2.37,2.37,0,0,0,1.26.68.53.53,0,0,0,.62-.35.51.51,0,0,0-.35-.62Z" transform="translate(-13.54 -2.15)"/>
  <path class="cls-2" d="M212.38,114.05l0,0s0-.05,0,0v0s0,0,0,0-.06,0,0,0-.09,0,0,0,.1,0,0,0l.07,0c.12,0,0,0,0,0l.13.08c-.08,0,0,0,.07.06s0,0,0,0l.06.1c-.06-.11,0,.13,0,.06s0,.05,0,.05,0,.08,0,.12,0,0,0,0l0,.11a.25.25,0,0,0,0,.07c0-.09,0,0,0,0l-.09.16c0,.08,0,0,0,0l-.08.09-.14.13c.08-.07-.07.05-.1.07l-.14.07s-.12.06,0,0l-.09,0-.16,0s-.24,0-.11,0a2.67,2.67,0,0,1-.4,0c.12,0-.07,0-.11,0l-.15,0c.12,0-.06,0-.09,0l-.06,0,0,0s-.13-.15-.08-.08l-.12-.19s0-.09,0,0l0-.08a.65.65,0,0,1,0-.13s0-.15,0,0a1.41,1.41,0,0,1,0-.2s0-.22,0-.12a2.2,2.2,0,0,1,.12-.44c0,.08,0,0,0,0l.06-.13c0-.07.09-.14.14-.21s0,0,0,0a1.47,1.47,0,0,1,.1-.13l.19-.17s.08-.06,0,0l.12-.08.1-.06s.16-.07.06,0a1.11,1.11,0,0,1,.22-.07l.12,0s0,0,0,0h.09l-.35-.15c.1.11,0,0,0,0l.06.09,0,.1c0,.05,0-.07,0,0a1.46,1.46,0,0,0,0,.2c0-.1,0,.08,0,.12s0,.23,0,.13a1.55,1.55,0,0,1,0,.21s0,.07,0,.11,0,.11,0,0a1.24,1.24,0,0,1-.1.2.76.76,0,0,1-.12.19h0l-.09.1-.16.15c.07-.06-.07,0-.1,0l-.09.06h0l-.2.06h-.23c.09,0,0,0,0,0l.3.23c0-.07,0,0,0-.07s0-.12-.05-.18,0-.13,0-.11,0,0,0,0a.41.41,0,0,0,0-.11,1.33,1.33,0,0,1,.09-.59s0-.13,0-.07l.08-.16.09-.14s0,0,0,0l.06-.08a1.3,1.3,0,0,1,.2-.17l.13-.08.06,0s0,0,0,0l.14,0,.09,0s-.07,0,0,0a1.71,1.71,0,0,1,.32,0c-.09,0,.05,0,.08,0l.14,0s.13.05.1,0l.11.06a.67.67,0,0,1,.19.14l.09.1h0l0,.07s.07.14.06.11a1.1,1.1,0,0,1,0,.11s0,0,0,.07,0-.06,0,0a1.09,1.09,0,0,1,0,.18c0-.09,0,.07,0,.09l0,.11-.05.1-.06.09a1.54,1.54,0,0,1-.2.22l-.1.06-.07,0,0,0h0l-.15,0s0,0,0,0h-.18l-.13,0a1,1,0,0,1-.42-.4,1,1,0,0,1-.08-.23s0,0,0-.08h0v-.19c0-.06,0,0,0,0a.64.64,0,0,1,0-.07.83.83,0,0,1,0-.15.19.19,0,0,1,0-.07s0,.06,0,0,.06-.12.09-.18a1.6,1.6,0,0,1,.34-.38,1,1,0,0,1,.52-.23l.08,0s-.07,0,0,0h.22c-.08,0,0,0,0,0l.16,0c.05,0,0,0,0,0l.06,0,.11.07s.13.1.06,0l.12.11.09.1s0,0,0,0l0,.06a1.51,1.51,0,0,1,.15.28s0,0,0,0,0,.05,0,.07a.65.65,0,0,1,0,.13.75.75,0,0,1,0,.16s0,.08,0,0,0,0,0,0a1.5,1.5,0,0,1,0,.3s0,.13,0,0l0,.16,0,.13s0,0,0,.06,0,0,0,0l-.06.12-.07.1-.07.07-.12.11-.06,0-.14.08-.07,0s.07,0,0,0l-.16.06-.14,0h-.45a1,1,0,0,1-.17,0,1.71,1.71,0,0,1-.3-.09l-.06,0-.15-.08-.14-.09c.06,0,0,0,0,0a.94.94,0,0,1-.1-.1l-.05-.05c-.05-.06,0,.05,0,0a1.12,1.12,0,0,1-.23-.51s0-.17,0-.09,0-.1,0-.15,0-.22,0-.33,0,.07,0,0,0,0,0-.08a.83.83,0,0,1,0-.15s0-.09,0-.14l0-.07c0-.09,0,.1,0,0s.09-.18.14-.27l.09-.12.08-.09a1.31,1.31,0,0,1,.46-.35,1.36,1.36,0,0,1,.66-.15,1,1,0,0,1,.29.06l.11.06.08,0s0,0,0,0l.1.1c.05.06,0,0,0,0l.07.12c.05.08,0,0,0,0l0,.09s0,.09,0,.14,0,.14,0,.06a1.36,1.36,0,0,1,0,.35s0,.14,0,.06a.4.4,0,0,1,0,.15c0,.06,0,.12,0,.17l0,.1a1.61,1.61,0,0,1-.36.52,3.77,3.77,0,0,1-1.25.78l-.77.29.61.35a2,2,0,0,1,.13-1.24,2.08,2.08,0,0,1,.78-.89h-.51l.22.12c-.07,0,0,0,0,0l.12.12c-.06-.06,0,0,0,0l.06.11s.05.11,0,0l0,.14,0,.12s0,.14,0,.08,0,.07,0,.09v.15s0,.16,0,.1,0,.06,0,.08l0,.12s-.06.15,0,.06a1.13,1.13,0,0,1-.12.21c0,.08.05,0,0,0a.47.47,0,0,1-.1.1c-.08.08,0,0-.05,0l-.11.06c-.07,0,0,0-.05,0l-.07,0h0s-.07,0-.09,0-.14,0-.1,0-.07,0-.09,0l-.15,0-.08,0-.12-.08-.06,0h0l-.12-.12s-.1-.11-.09-.09-.05-.08-.07-.11a1,1,0,0,1-.07-.15s0,0,0,0l0-.09a1.16,1.16,0,0,1,0-.18c0,.09,0,0,0-.07s0,0,0-.07,0,0,0,0,0-.17,0-.1a.5.5,0,1,0-.86-.51c-.7,1,.4,2.38,1.51,2.39a1.31,1.31,0,0,0,1.28-1,1.75,1.75,0,0,0-.53-1.54,1.45,1.45,0,0,0-1.78-.3c-.55.33,0,1.2.5.86l.08,0c-.06,0-.06,0,0,0s.18,0,.05,0c0,0,.19,0,.06,0l.15,0s0,0,0,0l.07,0,.13.09c-.1-.07,0,0,0,0l.11.12c-.07-.09,0,0,0,.07a1.09,1.09,0,0,1,.08.15c-.05-.12,0,0,0,.07s0,.19,0,.05a.92.92,0,0,1,0,.16c0-.14,0,0,0,0s0,0,0,0l0,.06s0,0,0,0l-.06.06c-.05,0,0,0,0,0l-.06,0c-.06,0-.05,0,0,0l-.07,0-.08,0c.07,0,.08,0,0,0s-.19,0-.05,0l-.16,0-.07,0c.06,0,.06,0,0,0l-.14-.08h0l-.06-.05-.12-.11,0-.07s0,0,0,0a.64.64,0,0,0-.08-.14c0-.05,0-.05,0,0l0-.07s0-.19,0-.06c0,0,0-.19,0,0a.66.66,0,0,1,0-.15c-.05.11,0,0,0-.06l-.86-.51a1.91,1.91,0,0,0,.7,2.31,1.78,1.78,0,0,0,2.28,0,2.1,2.1,0,0,0,.51-2.08,2,2,0,0,0-.59-1,1.37,1.37,0,0,0-.58-.31c-.29,0-.58.22-.78.41a3,3,0,0,0-.9,2.9.5.5,0,0,0,.61.35,5.43,5.43,0,0,0,2.78-1.7,2.37,2.37,0,0,0,.11-2.66,2.07,2.07,0,0,0-3-.26,2.81,2.81,0,0,0-1.06,2.5,2.36,2.36,0,1,0,4.41-1.29,2,2,0,0,0-2.37-1A2.29,2.29,0,0,0,210.3,114a1.75,1.75,0,0,0,2.4,1.5,1.86,1.86,0,0,0,.91-2.56,2.15,2.15,0,0,0-2.47-.89,2.32,2.32,0,0,0-1.45,2.39,2.74,2.74,0,0,0,.18.75.59.59,0,0,0,.39.39,2.32,2.32,0,0,0,.38,0,2,2,0,0,0,1.22-.46,2.38,2.38,0,0,0,.85-2.28,1.61,1.61,0,0,0-.24-.57,1,1,0,0,0-.29-.32.8.8,0,0,0-.55,0,2.29,2.29,0,0,0-1.17.59,2.58,2.58,0,0,0-.83,2.38,1.88,1.88,0,0,0,1.85,1.46,2.33,2.33,0,0,0,2-1.06,1.61,1.61,0,0,0,.19-1.23,1.51,1.51,0,0,0-1-1,1,1,0,0,0-1.18.44.52.52,0,0,0,.18.69.51.51,0,0,0,.68-.18Z" transform="translate(-13.54 -2.15)"/>
  <g>
    <path class="cls-2" d="M123,46a55.26,55.26,0,0,1-.26-6.17c0-1,.06-2,.13-3,0-.48.07-1,.11-1.45,0-.24,0-.48.08-.72s0-.32,0-.22c.14-.41,0-.26-.58.44h-.8l.13,0a1.54,1.54,0,0,0,1.84-1,1.51,1.51,0,0,0-1-1.85c-1.65-.28-2.37,1-2.54,2.41-.15,1.28-.24,2.57-.29,3.86A55.56,55.56,0,0,0,120,46a1.5,1.5,0,1,0,3,0Z" transform="translate(-13.54 -2.15)"/>
    <path class="cls-2" d="M120.65,26.38a1.12,1.12,0,0,0-.05.13l.15-.35a1.63,1.63,0,0,1-.24.4l.24-.3a1.77,1.77,0,0,1-.34.33l.31-.23-.18.12,2.2.89a1.05,1.05,0,0,1,0-.19l.06.4a1,1,0,0,1,0-.24l-.06.4a1.82,1.82,0,0,1,.07-.25l-.15.36a.8.8,0,0,1,.13-.22l-.23.3a.85.85,0,0,1,.16-.17l-.3.24a.59.59,0,0,1,.17-.1l-.36.15h0l-1.84-1.85a.78.78,0,0,0,0,.14l.15-.36a2.12,2.12,0,0,1-.21.36l.23-.3a1.82,1.82,0,0,1-.31.31l.3-.24a1.28,1.28,0,0,1-.21.14l2.2.9a.83.83,0,0,1,0-.15l.06.4a.61.61,0,0,1,0-.19l0,.39a.61.61,0,0,1,0-.18l-.15.35a.6.6,0,0,1,.09-.15l-.24.31.09-.1-2.5-.66a1.21,1.21,0,0,1,0,.18l-.06-.39a.67.67,0,0,1,0,.2l0-.39a1.05,1.05,0,0,1-.06.24l.15-.36a.92.92,0,0,1-.13.21l.24-.3a1.29,1.29,0,0,1-.17.16l.31-.23-.18.1.36-.15-.15,0,1.69.69,0-.08.15.35a.85.85,0,0,1,0-.17l0,.4a.67.67,0,0,1,0-.2l0,.4a1,1,0,0,1,.06-.23l-.15.36a1,1,0,0,1,.14-.22l-.24.3a1.37,1.37,0,0,1,.17-.17l-.3.23a.82.82,0,0,1,.2-.12l-.36.15.19-.05-.4.06a.6.6,0,0,1,.19,0l-.4-.06h0l-.89-.69,0,.07-.15-.35a1.29,1.29,0,0,1,0,.21l0-.4a1.13,1.13,0,0,1,0,.26l0-.4a1.28,1.28,0,0,1-.07.28l.15-.36a1.2,1.2,0,0,1-.15.24l.24-.3a1.07,1.07,0,0,1-.19.18l.31-.23-.2.11.36-.15-.14,0,1.46.39-.06-.07.23.31a.61.61,0,0,1-.07-.14l.15.36a.83.83,0,0,1,0-.15l0,.4a.61.61,0,0,1,0-.19l0,.4a.59.59,0,0,1,0-.19l-.16.36a1.19,1.19,0,0,1,.09-.15l-.24.3.11-.11-.3.24.12-.07h-1.51l.06,0-.3-.23.12.12-.24-.3a.42.42,0,0,1,.09.14l-.15-.35a1.17,1.17,0,0,1,.06.2l-.06-.4a.6.6,0,0,1,0,.19l.06-.39a1.21,1.21,0,0,1,0,.18l.15-.36-.06.1,2.8.76a2.19,2.19,0,0,1,0-.36l0,.4a3.8,3.8,0,0,1,.25-.95l-2.74.36h0l-.15-.35a1.21,1.21,0,0,1,.05.18l-.06-.4a.38.38,0,0,1,0,.15l.06-.4,0,.1.15-.36a.3.3,0,0,1,0,.08l.23-.31,0,0,.3-.24,0,0,.35-.15h0l.4-.05h0l.4.05h0l.35.15h0l.3.23,0,0,.23.3,0-.06.15.36a.19.19,0,0,1,0-.08l0,.4v-.06l0,.4s0,0,0,0l-.15.36v0l-.24.31,0,0-.3.23h0l-.36.16h0l-.4.06a0,0,0,0,1,0,0l-.4-.06h0l-1.05-1.05a.29.29,0,0,1,0,.09l-.05-.39a.38.38,0,0,1,0,.15l.05-.4a1,1,0,0,1,0,.17l.15-.36-.09.15.23-.3-.12.12.3-.23-.15.08.36-.15-.13,0,.4-.05h-.14l.4.05h0a1.22,1.22,0,0,0-.6,0,1.16,1.16,0,0,0-.56.18,1.12,1.12,0,0,0-.42.39,1,1,0,0,0-.26.51l-.06.4a1.42,1.42,0,0,0,.21.75l.23.31a1.57,1.57,0,0,0,.66.38,2.09,2.09,0,0,0,.56.06,2.12,2.12,0,0,0,.89-.25l.14-.08a2.49,2.49,0,0,0,.43-.36,2.13,2.13,0,0,0,.31-.43,2.28,2.28,0,0,0,.21-.51,1.75,1.75,0,0,0,.06-.56,3.47,3.47,0,0,0-.06-.45s0,0,0-.05v0a1.15,1.15,0,0,0-.27-.51l-.11-.15a1.11,1.11,0,0,0-.49-.31.91.91,0,0,0-.2-.08c-.06,0-.35-.05-.41-.06h0a1.49,1.49,0,0,0-1.11.46l-.24.32h0a2.75,2.75,0,0,0-.15.36,1.19,1.19,0,0,0,0,.24,1.33,1.33,0,0,0,0,.68,1.77,1.77,0,0,0,.18.45l0,0a2.34,2.34,0,0,0,.24.31v0h0l.3.24a1.42,1.42,0,0,0,.4.17h0l.41.05a1.69,1.69,0,0,0,.85-.23,1.77,1.77,0,0,0,.88-1.53,2.16,2.16,0,0,0-.26-1.11l-.23-.3-.3-.23-.36-.16a1.11,1.11,0,0,0-.6,0,.72.72,0,0,0-.38.1.78.78,0,0,0-.33.19.87.87,0,0,0-.27.27,1.26,1.26,0,0,0-.27.51,3.63,3.63,0,0,0-.21.66,6.15,6.15,0,0,0-.13,1.05l0,.4a1.26,1.26,0,0,0,.27.51.87.87,0,0,0,.27.27,1.14,1.14,0,0,0,.51.27l.4.05.4-.05a1.26,1.26,0,0,0,.51-.27,1.18,1.18,0,0,0,.38-.42,2.07,2.07,0,0,0,.31-1.05.48.48,0,0,0,0-.17,2.61,2.61,0,0,0-.08-.55l-.1-.25c0-.08-.07-.17-.11-.25l0-.06a3.27,3.27,0,0,0-.28-.37l0,0c-.11-.1-.24-.19-.36-.28l0,0-.18-.08a1.27,1.27,0,0,0-.58-.13,1.62,1.62,0,0,0-.75.21l0,0a1.85,1.85,0,0,0-.88,1,1.18,1.18,0,0,0-.12.33,2.42,2.42,0,0,0,0,1.07,2.17,2.17,0,0,0,.51.91s0,0,0,.05l.3.23.36.16.4,0,.4,0a3.86,3.86,0,0,0,.51-.2,2.47,2.47,0,0,0,1-1,2.24,2.24,0,0,0,.27-.66,3.07,3.07,0,0,0,.07-.53.48.48,0,0,0,0-.17,3.55,3.55,0,0,0-.06-.47.24.24,0,0,0,0-.08,2.37,2.37,0,0,0-.2-.5.89.89,0,0,0-.13-.18l-.12-.15a1.08,1.08,0,0,0-.48-.31,1.47,1.47,0,0,0-.63-.14h-.17a2.53,2.53,0,0,0-1,.29,3.61,3.61,0,0,0-.44.33.8.8,0,0,0-.13.13,3.57,3.57,0,0,0-.34.43c-.09.16-.16.35-.23.51a1.05,1.05,0,0,0,0,.19,3.55,3.55,0,0,0-.06.47.27.27,0,0,0,0,.09,2.08,2.08,0,0,0,.07.55c0,.09.07.18.1.26a2.06,2.06,0,0,0,.12.26l.24.31a1.11,1.11,0,0,0,.48.31.72.72,0,0,0,.38.1,1.12,1.12,0,0,0,.6,0l.1,0,.43-.18a2.43,2.43,0,0,0,.46-.33l.14-.14c.1-.11.19-.24.28-.36l.06-.09a3.38,3.38,0,0,0,.22-.52,2.82,2.82,0,0,0,.09-.57.67.67,0,0,0,0-.2,2.43,2.43,0,0,0-.1-.59,1.49,1.49,0,0,0-.39-.66,1.51,1.51,0,0,0-1.46-.38,1.47,1.47,0,0,0-.66.38,1.87,1.87,0,0,0-.37.47,3.43,3.43,0,0,0-.19.44.36.36,0,0,0,0,.11,2.11,2.11,0,0,0,0,1.22,1.57,1.57,0,0,0,.38.66,1.11,1.11,0,0,0,.49.31A1.14,1.14,0,0,0,121,29a1.43,1.43,0,0,0,.76-.21,4.39,4.39,0,0,0,.56-.4,2.72,2.72,0,0,0,.24-.24,3.69,3.69,0,0,0,.4-.55,4.11,4.11,0,0,0,.28-.65,1.55,1.55,0,0,0,0-.8,1.49,1.49,0,0,0-.39-.66,1.45,1.45,0,0,0-.66-.38,1.55,1.55,0,0,0-.8,0,2.5,2.5,0,0,0-.5.23,3.27,3.27,0,0,0-.37.28l-.07.06a3.75,3.75,0,0,0-.35.44l-.09.17a3,3,0,0,0-.2.52,2.61,2.61,0,0,0-.08.56,2.69,2.69,0,0,0,.06.57,1.33,1.33,0,0,0,0,.19,1.44,1.44,0,0,0,.39.66,1,1,0,0,0,.48.31,1.06,1.06,0,0,0,.58.13,1.5,1.5,0,0,0,.75-.2,5.13,5.13,0,0,0,.58-.43,1.7,1.7,0,0,0,.22-.24,4.46,4.46,0,0,0,.41-.56,4.84,4.84,0,0,0,.28-.66,1.22,1.22,0,0,0,0-.6,1.16,1.16,0,0,0-.18-.56,1.31,1.31,0,0,0-.39-.42,1.14,1.14,0,0,0-.51-.27l-.4,0a1.42,1.42,0,0,0-.75.21l-.31.23a1.57,1.57,0,0,0-.38.66Z" transform="translate(-13.54 -2.15)"/>
  </g>
</svg>
