<?xml version="1.0" encoding="utf-8"?>
<!-- Generator: Adobe Illustrator 23.1.1, SVG Export Plug-In . SVG Version: 6.00 Build 0)  -->
<svg version="1.1" id="Layer_1" xmlns="http://www.w3.org/2000/svg" xmlns:xlink="http://www.w3.org/1999/xlink" x="0px" y="0px"
	 viewBox="0 0 288 216" style="enable-background:new 0 0 288 216;" xml:space="preserve">
<style type="text/css">
	.st0{fill:#D1D3D4;}
	.st1{display:none;}
	.st2{display:inline;}
	.st3{fill:#ED1C24;}
	.st4{fill:#00A651;}
</style>
<g>
	<g>
		<g>
			<g>
				<path class="st0" d="M127.62,26.06c0.83-1.9,1.66-3.8,2.48-5.7c0.4-0.91,0.8-1.83,1.2-2.74c0.16-0.36,0.3-0.74,0.49-1.09
					c0.05-0.1,0.11-0.19,0.17-0.29c-0.02,0.04-0.05,0.07-0.1,0.08c-0.06-0.01-0.24,0-0.28,0.01c-0.1-0.05-0.11-0.05-0.02,0
					c0.08,0.05,0.09,0.05,0.02,0.01c0.12,0.13,0.21,0.21,0.26,0.28c0.25,0.33,0.43,0.71,0.62,1.08c0.44,0.83,0.86,1.67,1.27,2.51
					c0.81,1.71,1.53,3.47,2.17,5.25c0.34,0.95,1.74,1.62,2.51,0.66c0.18-0.22,0.36-0.44,0.53-0.66c0.51-0.63,0.62-1.5,0-2.12
					c-0.52-0.52-1.61-0.63-2.12,0c-0.18,0.22-0.36,0.44-0.53,0.66c0.84,0.22,1.67,0.44,2.51,0.66c-0.77-2.16-1.66-4.29-2.66-6.36
					c-0.48-1-0.97-2.04-1.56-2.98c-0.54-0.87-1.31-1.69-2.34-1.91c-2.69-0.58-3.55,2.76-4.35,4.6c-0.95,2.18-1.9,4.36-2.85,6.54
					c-0.32,0.74-0.22,1.61,0.54,2.05C126.2,26.97,127.29,26.81,127.62,26.06L127.62,26.06z"/>
			</g>
		</g>
		<g>
			<g>
				<path class="st0" d="M129.95,15.52c0.51,25.67,1.01,51.33,1.52,77c0.5,25.53,1.01,51.06,1.51,76.59
					c0.28,14.4,0.57,28.79,0.85,43.19c0.04,1.93,3.04,1.93,3,0c-0.51-25.65-1.01-51.3-1.52-76.96c-0.5-25.54-1.01-51.07-1.51-76.61
					c-0.28-14.4-0.57-28.81-0.85-43.21C132.91,13.6,129.91,13.59,129.95,15.52L129.95,15.52z"/>
			</g>
		</g>
		<g>
			<g>
				<path class="st0" d="M126.49,205.08c2.58,3.33,5.16,6.66,7.74,9.99c0.73,0.94,2.22,0.31,2.51-0.66
					c0.58-1.94,1.52-3.79,2.79-5.37c1.29-1.62,3.63-3.18,3.33-5.54c-0.1-0.8-0.62-1.5-1.5-1.5c-0.73,0-1.6,0.69-1.5,1.5
					c0.09,0.73-0.47,1.27-1.06,1.88c-0.77,0.79-1.48,1.61-2.14,2.51c-1.26,1.72-2.2,3.68-2.81,5.73c0.84-0.22,1.67-0.44,2.51-0.66
					c-2.58-3.33-5.16-6.66-7.74-9.99c-0.5-0.64-1.6-0.52-2.12,0C125.86,203.59,125.99,204.43,126.49,205.08L126.49,205.08z"/>
			</g>
		</g>
	</g>
	<g>
		<g>
			<g>
				<path class="st0" d="M21.45,101.12c-1.33,2.31-2.66,4.61-4,6.92c-0.67,1.15-1.33,2.31-2,3.46c-0.62,1.07-1.38,2.14-1.74,3.34
					c-0.38,1.25-0.15,2.73,1.03,3.46c0.84,0.52,1.92,0.52,2.84,0.89c1.65,0.67,3.14,2.04,4.14,3.59c0.44,0.68,1.33,0.96,2.05,0.54
					c0.68-0.4,0.98-1.37,0.54-2.05c-1.12-1.74-2.6-3.26-4.42-4.27c-0.85-0.47-1.77-0.85-2.72-1.07c-0.2-0.05-0.46-0.13-0.67-0.13
					c-0.3,0-0.11-0.08-0.06,0.06c0.12,0.35,0.16-0.25,0.22-0.4c0.43-1.07,1.18-2.09,1.76-3.09c0.62-1.08,1.25-2.16,1.87-3.24
					c1.25-2.16,2.5-4.32,3.75-6.48C25,100.96,22.41,99.45,21.45,101.12L21.45,101.12z"/>
			</g>
		</g>
		<g>
			<g>
				<path class="st0" d="M241.52,126.45c2.2-1.47,4.4-2.94,6.6-4.41c1.1-0.74,2.2-1.47,3.3-2.21c1.04-0.7,2.17-1.34,3.13-2.16
					c1.02-0.86,1.5-2.12,1.3-3.44c-0.19-1.21-0.88-2.29-1.5-3.33c-1.23-2.05-2.61-4-4.13-5.85c-0.78-0.96-1.61-1.89-2.47-2.77
					c-0.44-0.45-0.88-0.89-1.34-1.32c-0.23-0.21-0.46-0.42-0.69-0.63c-0.1-0.09-0.21-0.18-0.31-0.27c-0.05-0.05-0.1-0.09-0.16-0.14
					c-0.24-0.26-0.25-0.15-0.02,0.31c-0.07,0.25-0.14,0.5-0.2,0.76c0.02-0.03,0.03-0.06,0.05-0.09c-0.3,0.23-0.6,0.46-0.9,0.69
					c0.03-0.01,0.06-0.02,0.08-0.03c-0.27,0-0.53,0-0.8,0c-0.06-0.02-0.13-0.05-0.19-0.07c-0.23-0.3-0.46-0.6-0.69-0.9
					c0.01,0.03,0.02,0.05,0.03,0.08c0.05-0.39,0.1-0.77,0.15-1.16c-0.01,0.03-0.03,0.05-0.04,0.08c-0.34,0.73-0.2,1.62,0.54,2.05
					c0.65,0.38,1.71,0.2,2.05-0.54c0.38-0.82,0.26-1.74-0.57-2.24c-0.76-0.46-1.79-0.25-2.26,0.52c-0.94,1.52,0.68,2.65,1.65,3.55
					c1.74,1.62,3.36,3.39,4.8,5.29c0.75,0.99,1.46,2.01,2.12,3.06c0.62,0.96,1.41,2.01,1.77,3.11c0.31,0.96-0.52,1.25-1.26,1.74
					c-1.17,0.78-2.34,1.56-3.51,2.34c-2.68,1.79-5.36,3.58-8.05,5.37c-0.67,0.45-0.96,1.32-0.54,2.05
					C239.86,126.58,240.84,126.9,241.52,126.45L241.52,126.45z"/>
			</g>
		</g>
		<g>
			<g>
				<path class="st0" d="M15.6,116.59c31.13-1.01,62.27-1.08,93.41-1.14c30.91-0.06,61.83-0.24,92.74-0.11
					c17.36,0.07,34.71,0.33,52.05,1.08c1.93,0.08,1.93-2.92,0-3c-31.06-1.35-62.16-1.12-93.23-1.06
					c-30.94,0.06-61.88,0.01-92.82,0.26c-17.39,0.14-34.77,0.41-52.15,0.98C13.67,113.65,13.66,116.65,15.6,116.59L15.6,116.59z"/>
			</g>
		</g>
	</g>
</g>
<g id="unit_circle" class="st1">
	<g class="st2">
		<path class="st3" d="M132.03,40.2c9.4-0.2,18.86,1.6,27.47,5.39c7.5,3.3,14.61,7.7,20.88,12.98c4.52,3.81,8.54,8.16,11.82,13.09
			c4.11,6.18,6.97,13.06,9.65,19.95c1.35,3.47,2.78,6.94,3.85,10.51c1.24,4.12,1.98,8.36,2.24,12.66c0.25,4.23-0.58,8.15-2.3,12
			c-1.69,3.8-3.39,7.61-4.09,11.73c-0.41,2.43-0.66,4.85-1.47,7.2c-0.08,0.24-0.17,0.48-0.26,0.71c-0.02,0.06-0.05,0.13-0.08,0.19
			c-0.09,0.23,0.15-0.32,0.04-0.09c-0.08,0.17-0.15,0.34-0.23,0.51c-0.37,0.8-0.8,1.58-1.25,2.34c-3.64,6.04-9.12,10.89-14.47,15.54
			c-6.03,5.24-12.28,10.2-19.53,13.68c-8.45,4.06-17.84,6.05-27.19,6.15c-8.01,0.08-15.92-1.22-23.65-3.23
			c-8.14-2.12-16.45-4.5-23.92-8.45c-6.9-3.65-12.96-8.86-17.64-15.11c-4.71-6.3-8.1-13.54-9.76-21.23
			c-2.06-9.56-0.94-19.44-2.01-29.11c-0.49-4.42-1.25-9.27,0.55-13.5c1.56-3.67,4.63-6.53,6.72-9.9c1.78-2.88,3.36-5.88,4.89-8.9
			c1.05-2.06,1.96-4.21,3.04-6.25c3.23-6.08,8.74-10.74,14.39-14.51c4.83-3.22,10.05-6.03,15.39-8.34
			c7.52-3.24,15.64-5.18,23.8-5.75c2.59-0.18,5.19-0.23,7.78-0.14c1.93,0.06,1.93-2.94,0-3c-6.67-0.22-13.38,0.44-19.89,1.94
			c-7.47,1.72-14.52,4.68-21.26,8.31c-5.89,3.17-11.62,6.91-16.4,11.62c-2.57,2.53-4.9,5.4-6.55,8.61c-1.1,2.13-2.06,4.33-3.15,6.47
			c-1.56,3.06-3.17,6.12-5.02,9.02c-2.31,3.61-5.51,6.63-6.92,10.76c-1.56,4.59-0.81,9.52-0.3,14.22c0.56,5.21,0.5,10.45,0.64,15.68
			c0.12,4.77,0.48,9.55,1.55,14.22c0.92,4,2.3,7.88,4.06,11.58c3.47,7.31,8.53,13.93,14.7,19.17c3.15,2.67,6.58,5.01,10.24,6.92
			c4.39,2.28,9.05,4.01,13.76,5.5c7.29,2.32,14.71,4.38,22.29,5.48c9.23,1.34,18.61,1.24,27.72-0.87
			c8.84-2.04,17.06-5.92,24.37-11.27c3.33-2.44,6.49-5.1,9.6-7.81c3.31-2.88,6.58-5.8,9.52-9.08c2.98-3.32,5.88-7.05,7.34-11.32
			c0.84-2.45,1.06-4.98,1.52-7.51c0.74-4.1,2.5-7.8,4.13-11.6c1.8-4.19,2.6-8.52,2.28-13.09c-0.32-4.46-1.07-8.88-2.37-13.16
			c-1.13-3.7-2.61-7.29-4.02-10.89c-1.47-3.76-2.99-7.51-4.72-11.15c-3.08-6.47-7.02-12.47-11.97-17.67
			c-4.46-4.68-9.69-8.69-15.14-12.14c-8.13-5.15-17.02-9.11-26.51-10.89c-4.66-0.87-9.41-1.28-14.15-1.18
			C130.1,37.24,130.09,40.24,132.03,40.2L132.03,40.2z"/>
	</g>
</g>
<g class="st1">
	<g class="st2">
		<g>
			<path d="M189.57,60.85c-0.05-0.03-0.05-0.09-0.02-0.14c-0.29,0-0.58,0-0.86,0c0.47,0.82-0.08,1.76-0.73,2.29
				c-0.29,0.23-1.91,1.36-2.14,0.78c-0.23-0.58,0.42-1.27,0.84-1.58c0.38-0.28,0.8-0.52,1.25-0.67c0.14-0.05,0.41-0.18,0.56-0.14
				c0.15,0.04,0.11,0.25,0.11,0.39c-0.04,0.92-0.78,1.69-1.66,1.86c0.19,0.08,0.38,0.15,0.56,0.23c-0.62-1.05,0.11-2.72,1.37-2.86
				c-0.16-0.12-0.32-0.24-0.48-0.37c0.19,0.72,0.16,1.48-0.13,2.17c-0.11,0.27-0.28,0.62-0.56,0.75c-0.26,0.12-0.31-0.27-0.35-0.47
				c-0.23-1.35,1.19-2.5,2.23-3.06c-0.2-0.03-0.4-0.05-0.61-0.08c0.64,0.71-0.42,1.95-0.91,2.43c-0.26,0.25-0.72,0.65-1.09,0.36
				c-0.27-0.22-0.33-0.67-0.36-0.99c-0.06-0.75,0.02-1.74,0.51-2.35c0.19-0.23,0.48-0.38,0.78-0.28c0.32,0.11,0.5,0.45,0.57,0.76
				c0.27,1.12-0.92,1.96-1.7,2.52c0.2,0.03,0.4,0.05,0.61,0.08c-0.84-0.76-0.79-2.16,0.07-2.87c-0.24,0-0.47,0-0.71,0
				c1.5,1.26,1.75,3.6,0.58,5.16c0.26-0.03,0.52-0.07,0.79-0.1c-0.79-1.02-0.38-2.68,0.7-3.31c-0.23-0.06-0.46-0.12-0.68-0.18
				c0.78,1.11,0.53,2.8-0.61,3.57c0.23,0.06,0.46,0.12,0.68,0.18c-0.7-0.93-0.85-2.2-0.29-3.24c-0.14,0.08-0.29,0.17-0.43,0.25
				c0.25,0,0.49-0.01,0.74-0.01c-0.14-0.08-0.29-0.17-0.43-0.25c0.47,0.83,0.2,1.88-0.54,2.46c0.24,0,0.47,0,0.71,0
				c-0.78-0.71-0.41-2.23,0.62-2.48c-0.19-0.08-0.38-0.15-0.56-0.23c0.33,0.46,0.35,1.09-0.03,1.53c0.24,0,0.47,0,0.71,0
				c-0.31-0.25-0.48-0.55-0.54-0.95c-0.04-0.27-0.38-0.42-0.62-0.35c-0.29,0.08-0.39,0.35-0.35,0.62c0.08,0.54,0.37,1.04,0.79,1.39
				c0.2,0.16,0.52,0.22,0.71,0c0.66-0.76,0.78-1.9,0.19-2.74c-0.13-0.19-0.33-0.29-0.56-0.23c-1.74,0.42-2.4,2.94-1.06,4.15
				c0.22,0.2,0.48,0.17,0.71,0c1.1-0.85,1.37-2.48,0.7-3.67c-0.09-0.15-0.26-0.25-0.43-0.25c-0.25,0-0.49,0.01-0.74,0.01
				c-0.17,0-0.35,0.09-0.43,0.25c-0.71,1.33-0.63,3.03,0.29,4.25c0.15,0.21,0.44,0.34,0.68,0.18c1.57-1.05,2.08-3.37,0.97-4.94
				c-0.16-0.22-0.43-0.32-0.68-0.18c-1.7,0.97-2.08,3.36-0.9,4.88c0.22,0.28,0.62,0.12,0.79-0.1c1.43-1.89,1.08-4.85-0.73-6.37
				c-0.22-0.19-0.48-0.19-0.71,0c-1.26,1.05-1.28,3.19-0.07,4.29c0.15,0.14,0.42,0.21,0.61,0.08c1.16-0.84,2.49-1.93,2.18-3.53
				c-0.23-1.23-1.59-2.16-2.73-1.33c-0.99,0.72-1.23,2.25-1.13,3.39c0.05,0.61,0.21,1.27,0.69,1.69c0.59,0.51,1.4,0.42,2.01-0.01
				c1.19-0.84,2.58-2.88,1.37-4.22c-0.15-0.17-0.42-0.18-0.61-0.08c-0.91,0.48-1.76,1.19-2.28,2.09c-0.48,0.82-0.66,1.92-0.16,2.78
				c0.28,0.47,0.81,0.68,1.33,0.5c0.45-0.16,0.8-0.54,1.03-0.95c0.53-0.98,0.65-2.14,0.36-3.22c-0.05-0.19-0.27-0.39-0.48-0.37
				c-1.98,0.22-3.28,2.61-2.23,4.37c0.12,0.2,0.34,0.27,0.56,0.23c1.29-0.26,2.29-1.43,2.39-2.73c0.05-0.67-0.21-1.39-0.97-1.47
				c-0.66-0.07-1.41,0.29-1.96,0.61c-1.01,0.58-2.05,1.62-1.81,2.9c0.11,0.57,0.58,0.97,1.15,1.02c0.69,0.06,1.45-0.4,2.02-0.75
				c0.67-0.41,1.28-0.95,1.61-1.67c0.33-0.74,0.36-1.59-0.05-2.3c-0.18-0.32-0.68-0.33-0.86,0c-0.3,0.54-0.13,1.17,0.38,1.51
				C189.6,62.07,190.11,61.2,189.57,60.85L189.57,60.85z"/>
		</g>
	</g>
	<g class="st2">
		<g>
			<g>
				<g>
					<path class="st4" d="M140.16,30.2c-2.81,2.92-5.47,5.99-7.96,9.2c-0.21,0.27-0.18,0.58,0.1,0.79c2.64,1.97,5.44,3.71,8.37,5.22
						c0.57,0.29,1.08-0.57,0.5-0.86c-2.93-1.5-5.73-3.25-8.37-5.22c0.03,0.26,0.07,0.52,0.1,0.79c2.49-3.2,5.14-6.27,7.96-9.2
						C141.31,30.44,140.61,29.73,140.16,30.2L140.16,30.2z"/>
				</g>
			</g>
			<g>
				<g>
					<path class="st4" d="M134,39.08c7.39-0.67,14.85,0.11,21.96,2.2c7.18,2.11,13.95,5.54,19.95,10.01
						c3.47,2.59,6.66,5.54,9.53,8.77c0.43,0.48,1.13-0.23,0.71-0.71c-5.12-5.76-11.26-10.59-18.07-14.2
						c-6.65-3.52-13.9-5.87-21.37-6.83c-4.22-0.54-8.49-0.63-12.72-0.24C133.37,38.13,133.36,39.13,134,39.08L134,39.08z"/>
				</g>
			</g>
		</g>
		<g>
			<g>
				<g>
					<path class="st4" d="M162.99,34.5c-0.24,0.96-0.48,1.92-0.72,2.87c-0.1,0.39-0.32,0.9-0.18,1.3c0.13,0.34,0.47,0.47,0.81,0.45
						c0.43-0.02,0.86-0.19,1.28-0.29c0.48-0.12,0.96-0.25,1.44-0.37c0.98-0.25,1.96-0.51,2.94-0.76c0.47-0.12,0.27-0.84-0.2-0.72
						c-1.63,0.42-3.27,0.84-4.9,1.26c-0.17,0.04-0.34,0.1-0.51,0.13c-0.05,0.01-0.11,0.01-0.16,0.01c-0.04-0.02-0.05-0.01-0.02,0.01
						c0.03,0.04,0.04,0.03,0.03-0.04c0.08-0.13,0.1-0.39,0.13-0.54c0.05-0.21,0.11-0.42,0.16-0.63c0.21-0.82,0.41-1.65,0.62-2.47
						C163.83,34.23,163.11,34.03,162.99,34.5L162.99,34.5z"/>
				</g>
			</g>
			<g>
				<g>
					<path class="st4" d="M165.97,34.19c-0.58,2.62-0.68,5.3-0.32,7.95c0.06,0.48,0.79,0.27,0.72-0.2
						c-0.34-2.51-0.22-5.08,0.32-7.55C166.8,33.92,166.07,33.72,165.97,34.19L165.97,34.19z"/>
				</g>
			</g>
			<g>
				<g>
					<path class="st4" d="M172.43,34.43c-0.35-0.14-0.71-0.27-1.06-0.41c-0.25-0.1-0.53-0.25-0.81-0.23
						c-0.62,0.03-0.68,0.68-0.72,1.16c-0.06,0.74-0.08,1.48-0.06,2.21c0.01,0.52,0.06,1.07,0.65,1.22c0.47,0.12,0.96-0.19,1.41-0.02
						c0.56,0.21,0.74,0.89,0.57,1.42c-0.38,1.18-1.8,1.74-2.94,1.51c-0.47-0.09-0.67,0.63-0.2,0.72c1.12,0.22,2.31-0.08,3.14-0.88
						c0.79-0.77,1.15-2.06,0.37-2.98c-0.33-0.39-0.82-0.63-1.34-0.58c-0.22,0.02-0.44,0.08-0.66,0.09
						c-0.11,0.01-0.17,0.02-0.24-0.07c-0.07-0.09-0.02-0.46-0.02-0.57c-0.01-0.74,0.01-1.48,0.08-2.21
						c0.01-0.06-0.01-0.21,0.06-0.24c0.08-0.03,0.42,0.16,0.5,0.19c0.35,0.14,0.71,0.27,1.06,0.41
						C172.68,35.32,172.87,34.6,172.43,34.43L172.43,34.43z"/>
				</g>
			</g>
			<g>
				<g>
					<path class="st4" d="M175.28,34.1c-0.52-0.09-1,0.16-1.28,0.6c-0.28,0.44-0.25,1-0.06,1.47c0.19,0.45,0.56,1.08,1.12,1.08
						c0.56,0,0.86-0.66,0.99-1.12c0.15-0.53,0.14-1.13-0.06-1.65c-0.07-0.18-0.26-0.33-0.46-0.26c-0.18,0.06-0.33,0.26-0.26,0.46
						c0.03,0.08,0.06,0.16,0.08,0.24c0.01,0.04,0.02,0.09,0.03,0.13c0,0.02,0.01,0.04,0.01,0.06c0.01,0.06,0-0.05,0,0.02
						c0.01,0.08,0.01,0.17,0.01,0.25c0,0.05,0,0.09,0,0.14c0,0.02,0,0.04,0,0.06c0,0.01-0.01,0.1-0.01,0.07
						c-0.01,0.12-0.07,0.33-0.12,0.48c0,0-0.02,0.06-0.01,0.03c0.01-0.03-0.01,0.03-0.01,0.03c-0.02,0.04-0.04,0.08-0.06,0.12
						c-0.02,0.03-0.04,0.07-0.06,0.1c-0.01,0.02-0.03,0.04-0.04,0.06c-0.03,0.05,0.03-0.03-0.01,0.01
						c-0.01,0.01-0.02,0.03-0.04,0.04c-0.01,0.01-0.05,0.03-0.01,0.01c0.01,0,0.05-0.01,0.01,0c-0.05,0.01,0.01,0,0.01,0
						c0.01,0,0.06,0.02,0.01,0c-0.06-0.02,0.05,0.03-0.01,0c-0.02-0.01-0.03-0.02-0.05-0.03c0.03,0.02,0,0.01-0.01-0.01
						c-0.03-0.03-0.06-0.06-0.09-0.09c-0.03-0.03,0,0,0,0c-0.01-0.02-0.02-0.03-0.04-0.05c-0.06-0.08-0.11-0.17-0.16-0.26
						c-0.02-0.04-0.04-0.07-0.06-0.11c0,0-0.03-0.06-0.01-0.03c0.01,0.03-0.02-0.04-0.02-0.05c-0.03-0.09-0.06-0.18-0.08-0.27
						c-0.01-0.04,0-0.01,0,0c0-0.02,0-0.04-0.01-0.06c0-0.05,0-0.09,0-0.14c0-0.01,0.01-0.11,0-0.06c0.01-0.05,0.02-0.09,0.03-0.13
						c0,0,0.02-0.06,0.01-0.02c-0.01,0.04,0.03-0.05,0.03-0.05c0.02-0.04,0.04-0.07,0.06-0.1c0.02-0.04,0,0-0.01,0.01
						c0.02-0.02,0.04-0.04,0.06-0.06c0.01-0.01,0.09-0.08,0.04-0.04c0.04-0.03,0.08-0.05,0.11-0.07c0,0,0.05-0.03,0.02-0.01
						c-0.04,0.02,0.04-0.01,0.05-0.02c0.02,0,0.03-0.01,0.05-0.01c0.05-0.02-0.05,0,0,0c0.02,0,0.04,0,0.07,0
						c0.02,0,0.09,0.01,0.02,0c0.19,0.03,0.41-0.05,0.46-0.26C175.59,34.38,175.49,34.14,175.28,34.1L175.28,34.1z"/>
				</g>
			</g>
			<g>
				<g>
					<path class="st4" d="M174.46,38.21c0.8-0.21,1.64-0.22,2.45-0.03c0.2,0.05,0.41-0.06,0.46-0.26c0.05-0.19-0.06-0.41-0.26-0.46
						c-0.94-0.22-1.92-0.22-2.85,0.03c-0.2,0.05-0.32,0.27-0.26,0.46C174.05,38.15,174.26,38.26,174.46,38.21L174.46,38.21z"/>
				</g>
			</g>
		</g>
	</g>
	<g class="st2">
		<g>
			<g>
				<g>
					<path class="st3" d="M191.87,66.32c6.32,5.05,11.47,11.46,14.87,18.82c2.84,6.14,4.42,12.85,4.84,19.59
						c0.16,2.48,0.16,4.98,0.01,7.46c-0.04,0.64,0.96,0.64,1,0c0.3-5.24-0.05-10.51-1.1-15.66c-1.59-7.75-4.84-15.15-9.64-21.45
						c-2.69-3.53-5.81-6.7-9.28-9.48C192.08,65.22,191.36,65.92,191.87,66.32L191.87,66.32z"/>
				</g>
			</g>
			<g>
				<g>
					<path class="st3" d="M192.16,65.47c-1.04,0.95-0.53,2.52-0.23,3.68c0.43,1.69,0.88,3.38,1.35,5.05
						c0.17,0.62,1.14,0.36,0.96-0.27c-0.41-1.47-0.81-2.94-1.19-4.42c-0.17-0.66-0.38-1.32-0.48-1.99
						c-0.07-0.48-0.09-1.01,0.29-1.35C193.34,65.74,192.63,65.04,192.16,65.47L192.16,65.47z"/>
				</g>
			</g>
			<g>
				<g>
					<path class="st3" d="M192.13,66.56c2.49-0.29,4.99-0.39,7.49-0.3c0.64,0.02,0.64-0.98,0-1c-2.5-0.09-5.01,0.01-7.49,0.3
						c-0.27,0.03-0.5,0.21-0.5,0.5C191.63,66.3,191.86,66.59,192.13,66.56L192.13,66.56z"/>
				</g>
			</g>
			<g>
				<g>
					<path class="st3" d="M212.08,112.11c0.02,0.06,0.03,0.11,0.04,0.17c-0.01-0.04-0.01-0.09-0.02-0.13c0.01,0.11,0.01,0.21,0,0.32
						c0.01-0.04,0.01-0.09,0.02-0.13c-0.01,0.07-0.03,0.15-0.05,0.22c-0.01,0.02-0.05,0.14-0.02,0.06c0.04-0.09-0.02,0.03-0.03,0.05
						c-0.02,0.03-0.03,0.06-0.05,0.08c-0.01,0.02-0.02,0.03-0.04,0.05c-0.03,0.05,0.07-0.09,0.03-0.04
						c-0.03,0.03-0.05,0.06-0.07,0.08c-0.03,0.03-0.14,0.12-0.01,0.02c0.23,0.06,0.46,0.12,0.68,0.18
						c-0.03-0.06,0.03,0.06,0.02,0.06c0,0-0.02-0.05-0.02-0.05c-0.01-0.03-0.01-0.06-0.02-0.09c0.01,0.04,0.01,0.09,0.02,0.13
						c-0.01-0.06-0.01-0.11,0-0.17c-0.01,0.04-0.01,0.09-0.02,0.13c0.01-0.04,0.01-0.08,0.02-0.11c0-0.02,0.01-0.03,0.02-0.05
						c0.02-0.08-0.06,0.12-0.02,0.04c0.02-0.03,0.03-0.06,0.05-0.09c0,0,0.04-0.05,0.04-0.05c0.01,0-0.1,0.11-0.03,0.04
						c0.02-0.02,0.05-0.05,0.07-0.07c0.06-0.06-0.04,0.04-0.04,0.03c0,0,0.05-0.03,0.05-0.03c0.01-0.01,0.03-0.02,0.05-0.02
						c0.08-0.04-0.05,0.03-0.05,0.02c0.01,0.01,0.1-0.03,0.12-0.03c-0.04,0.01-0.09,0.01-0.13,0.02c0.05-0.01,0.11-0.01,0.16,0
						c-0.04-0.01-0.09-0.01-0.13-0.02c0.01,0,0.01,0,0.02,0c-0.1-0.08-0.2-0.15-0.3-0.23c0.03,0.05,0.06,0.1,0.09,0.15
						c0.01,0.03,0.03,0.05,0.04,0.08c0.05,0.1-0.04-0.11,0-0.01c0.04,0.11,0.07,0.22,0.09,0.34c-0.01-0.04-0.01-0.09-0.02-0.13
						c0.01,0.09,0.01,0.17,0,0.26c0.01-0.04,0.01-0.09,0.02-0.13c-0.01,0.04-0.01,0.08-0.03,0.12c0,0.01-0.01,0.03-0.01,0.04
						c-0.01,0.05,0.05-0.1,0.02-0.06c0,0-0.04,0.09-0.05,0.08c0,0,0.09-0.1,0.04-0.05c-0.01,0.01-0.02,0.03-0.04,0.04
						c-0.02,0.02-0.1,0.08-0.02,0.02c0.07-0.06-0.02,0.01-0.04,0.02c0,0-0.04,0.02-0.04,0.02c0-0.01,0.12-0.04,0.06-0.03
						c-0.03,0.01-0.07,0.02-0.1,0.02c0.04-0.01,0.09-0.01,0.13-0.02c-0.04,0-0.08,0-0.12,0c0.04,0.01,0.09,0.01,0.13,0.02
						c-0.02,0-0.04-0.01-0.06-0.01c-0.03-0.01-0.03-0.01,0.02,0.01c0.05,0.02,0.05,0.02,0.02,0.01c-0.05-0.03-0.04-0.05,0.03,0.03
						c0,0-0.04-0.04-0.04-0.04c0.02,0,0.08,0.12,0.03,0.04c-0.03-0.04-0.02-0.09,0.02,0.05c-0.01-0.04-0.02-0.07-0.03-0.11
						c0.01,0.04,0.01,0.09,0.02,0.13c-0.01-0.05,0-0.1,0-0.15c-0.01,0.04-0.01,0.09-0.02,0.13c0-0.03,0.01-0.05,0.02-0.08
						c0.01-0.05,0.06-0.11-0.02,0.03c0.01-0.02,0.02-0.04,0.03-0.05c0.03-0.05,0.08-0.07-0.02,0.02c0.01-0.01,0.05-0.04,0.05-0.05
						c0,0.02-0.12,0.08-0.04,0.03c0.1-0.06-0.11,0.03-0.03,0.01c0.03-0.01,0.06-0.01,0.09-0.02c-0.04,0.01-0.09,0.01-0.13,0.02
						c0.05-0.01,0.1-0.01,0.15,0c-0.04-0.01-0.09-0.01-0.13-0.02c0.03,0,0.06,0.01,0.09,0.02c0.1,0.03-0.02-0.02-0.04-0.02
						c0.01,0,0.07,0.04,0.08,0.04c0.01,0.01,0.03,0.02,0.04,0.03c-0.07-0.05-0.09-0.07-0.06-0.04c0.02,0.02,0.04,0.04,0.06,0.05
						c0.01,0.01,0.08,0.1,0.02,0.02c-0.06-0.08,0,0.01,0.01,0.03c0.06,0.11-0.03-0.09,0-0.01c0.16-0.21,0.32-0.42,0.48-0.63
						c-0.03,0-0.06,0-0.09,0c0.04,0.01,0.09,0.01,0.13,0.02c-0.02,0-0.03-0.01-0.04-0.01c0.08,0.04,0.1,0.05,0.06,0.02
						c-0.07-0.04,0.1,0.09,0.01,0.01c-0.03-0.04-0.02-0.02,0.03,0.05c-0.01-0.01-0.02-0.03-0.02-0.04c0.03,0.08,0.04,0.1,0.03,0.05
						c0-0.02-0.01-0.03-0.01-0.05c0.01,0.04,0.01,0.09,0.02,0.13c0-0.02,0-0.05,0-0.07c-0.01,0.04-0.01,0.09-0.02,0.13
						c0-0.01,0.01-0.03,0.01-0.04c0.01-0.08-0.04,0.09-0.02,0.05c0.01-0.02,0.04-0.06-0.01,0.01c-0.06,0.07-0.01,0.02,0,0
						c0.04-0.05-0.05,0.05-0.05,0.04c0,0,0.03-0.02,0.04-0.02c0.06-0.04-0.1,0.03-0.05,0.02c0.02,0,0.04-0.01,0.05-0.01
						c-0.04,0.01-0.09,0.01-0.13,0.02c0.03,0,0.05,0,0.08,0c-0.04-0.01-0.09-0.01-0.13-0.02c0.03,0,0.05,0.01,0.08,0.02
						c0.11,0.04,0.28,0.01,0.39-0.05c0.1-0.06,0.2-0.18,0.23-0.3c0.06-0.28-0.09-0.52-0.35-0.62c-0.44-0.17-0.99,0.16-1.08,0.61
						c-0.06,0.28,0.02,0.56,0.21,0.77c0.16,0.18,0.42,0.3,0.66,0.28c0.16-0.02,0.29-0.06,0.39-0.2c0.09-0.12,0.14-0.29,0.09-0.44
						c-0.13-0.34-0.36-0.6-0.69-0.74c-0.31-0.13-0.69-0.13-0.97,0.07c-0.56,0.39-0.65,1.33-0.02,1.7c0.61,0.37,1.43-0.13,1.55-0.79
						c0.07-0.4-0.01-0.77-0.18-1.13c-0.03-0.06-0.06-0.12-0.1-0.18c-0.03-0.05-0.07-0.11-0.11-0.15c-0.1-0.11-0.24-0.14-0.38-0.15
						c-0.13-0.01-0.28,0-0.4,0.05c-0.32,0.11-0.6,0.35-0.74,0.66c-0.16,0.36-0.18,0.74,0,1.09c0.11,0.22,0.48,0.34,0.68,0.18
						c0.17-0.13,0.29-0.25,0.42-0.42c0.1-0.14,0.17-0.29,0.22-0.45c0.11-0.32,0.11-0.68,0.02-1c-0.07-0.25-0.36-0.43-0.62-0.35
						C212.17,111.57,212,111.84,212.08,112.11L212.08,112.11z"/>
				</g>
			</g>
		</g>
		<g>
			<g>
				<g>
					<path class="st3" d="M210.23,77.11c-0.27,1.04-0.54,2.08-0.81,3.12c-0.1,0.4-0.35,0.94-0.13,1.34c0.18,0.32,0.56,0.4,0.89,0.37
						c0.48-0.05,0.96-0.22,1.43-0.33c0.5-0.12,1-0.25,1.51-0.37c1.05-0.26,2.09-0.52,3.14-0.78c0.47-0.12,0.27-0.84-0.2-0.72
						c-1.74,0.43-3.48,0.86-5.21,1.3c-0.14,0.03-0.82,0.28-0.9,0.15c-0.04-0.06,0.14-0.53,0.17-0.62c0.05-0.21,0.11-0.42,0.16-0.62
						c0.23-0.87,0.45-1.75,0.68-2.62C211.07,76.85,210.35,76.65,210.23,77.11L210.23,77.11z"/>
				</g>
			</g>
			<g>
				<g>
					<path class="st3" d="M213.47,76.79c-0.63,2.74-0.74,5.56-0.35,8.35c0.07,0.48,0.79,0.27,0.72-0.2
						c-0.37-2.65-0.25-5.35,0.35-7.95C214.3,76.52,213.58,76.32,213.47,76.79L213.47,76.79z"/>
				</g>
			</g>
			<g>
				<g>
					<path class="st3" d="M220.46,77.05c-0.38-0.14-0.77-0.28-1.15-0.43c-0.3-0.11-0.64-0.29-0.97-0.23
						c-0.63,0.12-0.62,0.84-0.66,1.34c-0.06,0.77-0.08,1.55-0.05,2.33c0.02,0.54,0.16,1.03,0.77,1.12c0.51,0.08,1.05-0.23,1.53,0
						c0.56,0.26,0.75,0.92,0.56,1.48c-0.42,1.28-2.02,1.84-3.24,1.61c-0.47-0.09-0.67,0.63-0.2,0.72c1.2,0.23,2.49-0.07,3.39-0.92
						c0.84-0.79,1.23-2.11,0.44-3.07c-0.34-0.41-0.84-0.66-1.37-0.65c-0.28,0.01-0.54,0.09-0.82,0.1c-0.37,0.02-0.31-0.21-0.32-0.54
						c-0.02-0.78,0-1.55,0.07-2.33c0.01-0.15-0.03-0.37,0.13-0.43c0.1-0.03,0.45,0.16,0.54,0.2c0.38,0.14,0.77,0.28,1.15,0.43
						C220.72,77.94,220.91,77.22,220.46,77.05L220.46,77.05z"/>
				</g>
			</g>
			<g>
				<g>
					<path class="st3" d="M223.58,76.71c-0.55-0.09-1.05,0.16-1.35,0.62c-0.3,0.46-0.27,1.05-0.06,1.54c0.2,0.48,0.6,1.11,1.18,1.11
						c0.59,0.01,0.91-0.69,1.05-1.17c0.16-0.56,0.15-1.18-0.06-1.72c-0.07-0.19-0.25-0.32-0.46-0.26c-0.18,0.05-0.34,0.27-0.26,0.46
						c0.13,0.35,0.18,0.67,0.13,1.01c-0.01,0.04-0.03,0.16-0.05,0.23c-0.02,0.09-0.05,0.18-0.09,0.27c0.02-0.04-0.01,0.02-0.01,0.02
						c-0.01,0.02-0.02,0.04-0.03,0.06c-0.02,0.04-0.04,0.09-0.07,0.13c-0.02,0.04-0.04,0.07-0.06,0.11
						c-0.01,0.02-0.02,0.03-0.03,0.05c-0.02,0.03,0.01-0.02-0.03,0.03c0,0-0.04,0.05-0.02,0.02c0.02-0.02-0.02,0.01-0.02,0.01
						c0.05-0.02,0,0.01-0.02,0c0.01,0,0.02-0.01,0.04,0c0.04,0.01-0.09-0.04-0.04-0.01c-0.04-0.02-0.06-0.04-0.07-0.05
						c-0.14-0.12-0.22-0.25-0.32-0.43c-0.09-0.16-0.14-0.29-0.18-0.49c-0.01-0.05-0.01-0.13-0.01-0.21c0-0.01,0.01-0.09,0-0.05
						c0,0.03,0.01-0.03,0.01-0.03c0.01-0.05,0.02-0.09,0.04-0.14c-0.02,0.06,0.02-0.04,0.03-0.06c0.01-0.02,0.02-0.03,0.03-0.05
						c0,0,0.06-0.08,0.03-0.05c-0.02,0.03,0.02-0.02,0.02-0.02c0.02-0.02,0.04-0.04,0.06-0.06c0.01-0.01,0.03-0.02,0.04-0.04
						c-0.03,0.03-0.01,0.01,0.01-0.01c0.04-0.03,0.08-0.05,0.12-0.07c0,0,0.06-0.02,0.02-0.01c-0.04,0.01,0.06-0.02,0.06-0.02
						c0.02,0,0.03-0.01,0.05-0.01c0.06-0.01-0.05,0,0.01,0c0.02,0,0.05,0,0.07,0c0.01,0,0.09,0.01,0.03,0
						c0.2,0.03,0.4-0.05,0.46-0.26C223.89,76.99,223.78,76.74,223.58,76.71L223.58,76.71z"/>
				</g>
			</g>
			<g>
				<g>
					<path class="st3" d="M222.68,80.99c0.88-0.22,1.8-0.24,2.69-0.03c0.2,0.05,0.41-0.06,0.46-0.26c0.05-0.19-0.06-0.42-0.26-0.46
						c-1.02-0.23-2.07-0.23-3.09,0.03C222.01,80.39,222.21,81.11,222.68,80.99L222.68,80.99z"/>
				</g>
			</g>
		</g>
	</g>
	<g class="st2">
		<g>
			<g>
				<g>
					<g>
						<g>
							<path class="st4" d="M135.46,24.88c0.07-1.29,0.28-2.56,0.62-3.81c0.16-0.6,0.35-1.2,0.59-1.78
								c0.12-0.29,0.22-0.57,0.53-0.32c0.21,0.17,0.34,0.41,0.46,0.64c1.16,2.22,2.03,4.59,2.64,7.02c0.12,0.47,0.84,0.27,0.72-0.2
								c-0.37-1.47-0.83-2.91-1.4-4.32c-0.29-0.71-0.59-1.41-0.93-2.1c-0.27-0.56-0.52-1.2-1.01-1.61c-0.4-0.33-0.96-0.43-1.35-0.04
								c-0.23,0.23-0.34,0.57-0.45,0.87c-0.14,0.37-0.27,0.75-0.39,1.13c-0.45,1.46-0.71,2.98-0.79,4.51
								C134.68,25.36,135.43,25.36,135.46,24.88L135.46,24.88z"/>
						</g>
					</g>
					<g>
						<g>
							<path class="st4" d="M137.93,29.74c1.35-0.94,2.7-1.88,4.05-2.82c0.33-0.23,0.67-0.46,1-0.7c0.27-0.19,0.62-0.36,0.81-0.64
								c0.37-0.54-0.29-1.29-0.81-0.8c-0.35,0.33,0.18,0.86,0.53,0.53c-0.15-0.2-0.28-0.24-0.38-0.11c-0.05,0.04-0.1,0.07-0.15,0.1
								c-0.13,0.09-0.25,0.18-0.38,0.26c-0.22,0.15-0.44,0.31-0.67,0.46c-0.49,0.34-0.99,0.68-1.48,1.03
								c-0.97,0.67-1.94,1.35-2.91,2.02C137.16,29.36,137.53,30.01,137.93,29.74L137.93,29.74z"/>
						</g>
					</g>
				</g>
				<g>
					<g>
						<path class="st4" d="M144.45,14.79c-0.09,1.48-0.18,2.96-0.28,4.44c-0.09,1.47-0.26,2.97-0.28,4.44
							c-0.02,1.51,1.84,0.45,2.56,0.18c1.39-0.52,2.77-1.04,4.16-1.56c0.45-0.17,0.25-0.89-0.2-0.72c-1.21,0.45-2.43,0.91-3.64,1.36
							c-0.61,0.23-1.21,0.45-1.82,0.68c-0.06,0.02-0.31,0.17-0.37,0.13c0.11,0.06,0.06-0.09,0.06-0.17
							c0.02-0.34,0.04-0.68,0.06-1.02c0.16-2.59,0.32-5.18,0.48-7.77C145.23,14.31,144.48,14.31,144.45,14.79L144.45,14.79z"/>
					</g>
				</g>
				<g>
					<g>
						<path class="st4" d="M148.07,13.29c0.28,1.34,0.65,2.68,1.17,3.95c0.18,0.44,0.55,0.8,1.07,0.67
							c0.55-0.14,0.87-0.69,1.22-1.09c0.76-0.85,1.7-1.54,2.74-2.01c0.42-0.19,1.15-0.28,1.38-0.73c0.21-0.43-0.18-1.03-0.68-0.85
							c-0.45,0.17-0.25,0.89,0.2,0.72c-0.06-0.19-0.15-0.25-0.25-0.19c-0.04,0.02-0.08,0.03-0.12,0.05
							c-0.1,0.04-0.21,0.07-0.31,0.11c-0.18,0.07-0.37,0.15-0.55,0.23c-0.39,0.17-0.76,0.37-1.11,0.6c-0.71,0.45-1.35,1-1.9,1.63
							c-0.15,0.17-0.55,0.85-0.82,0.81c-0.16-0.02-0.23-0.35-0.27-0.47c-0.09-0.24-0.18-0.49-0.26-0.74
							c-0.32-0.95-0.58-1.91-0.78-2.89C148.7,12.62,147.98,12.82,148.07,13.29L148.07,13.29z"/>
					</g>
				</g>
				<g>
					<g>
						<path class="st4" d="M150.94,11.74c0.97,3,1.95,6.01,2.92,9.01c0.1,0.3,0.52,0.38,0.69,0.09c0.09-0.16,0.18-0.32,0.27-0.48
							c0.24-0.42-0.41-0.8-0.65-0.38c-0.09,0.16-0.18,0.32-0.27,0.48c0.23,0.03,0.46,0.06,0.69,0.09c-0.97-3-1.95-6.01-2.92-9.01
							C151.51,11.08,150.79,11.28,150.94,11.74L150.94,11.74z"/>
					</g>
				</g>
				<g>
					<g>
						<path class="st4" d="M157.31,9.46c-0.03,0.17-0.44,0.16-0.6,0.19c-0.23,0.04-0.46,0.11-0.65,0.25
							c-0.46,0.35-0.49,0.96-0.42,1.49c0.11,0.82,0.28,1.64,0.45,2.45c0.12,0.57,0.46,0.99,1.09,0.97c0.61-0.02,1.15-0.37,1.78-0.27
							c0.61,0.1,1.18,0.49,1.48,1.03c0.72,1.26-0.41,2.81-1.77,2.81c-0.48,0-0.48,0.75,0,0.75c2.15-0.01,3.57-2.59,2.16-4.31
							c-0.63-0.76-1.66-1.19-2.64-1.01c-0.25,0.05-0.49,0.14-0.74,0.2c-0.38,0.09-0.56,0.03-0.64-0.37
							c-0.15-0.71-0.27-1.42-0.4-2.13c-0.05-0.26-0.13-0.62,0-0.87c0.12-0.24,0.42-0.24,0.65-0.28c0.43-0.07,0.89-0.19,0.97-0.69
							C158.11,9.19,157.39,8.99,157.31,9.46L157.31,9.46z"/>
					</g>
				</g>
				<g>
					<g>
						<path class="st4" d="M159.49,7.68c0.01,0.66,0.05,1.33,0.13,1.99c0.04,0.31,0.06,0.64,0.22,0.92
							c0.13,0.23,0.36,0.41,0.62,0.48c0.5,0.13,1.06-0.09,1.35-0.51c0.34-0.49,0.26-1.16-0.01-1.66c-0.32-0.59-0.92-0.96-1.48-1.29
							c-0.42-0.25-0.79,0.4-0.38,0.65c0.39,0.23,0.79,0.46,1.07,0.81c0.23,0.28,0.35,0.68,0.22,1c0.01-0.03-0.03,0.06-0.04,0.08
							c-0.01,0.01-0.05,0.07-0.02,0.03c0.02-0.03-0.01,0.01-0.01,0.01c-0.01,0.01-0.11,0.09-0.05,0.05
							c-0.04,0.03-0.08,0.05-0.11,0.07c-0.01,0.01-0.07,0.03,0,0c-0.02,0.01-0.03,0.01-0.05,0.02c-0.04,0.01-0.08,0.02-0.11,0.03
							c-0.07,0.02-0.02,0,0,0c-0.02,0-0.04,0-0.07,0c-0.03,0-0.14-0.02-0.06,0c-0.04-0.01-0.07-0.02-0.11-0.03
							c-0.05-0.02,0.05,0.03,0,0c-0.01-0.01-0.03-0.02-0.04-0.02c-0.06-0.03-0.01-0.01,0,0c-0.02-0.02-0.03-0.03-0.05-0.05
							c0.01,0.01,0.02,0.03,0,0c-0.02-0.03-0.04-0.06-0.05-0.1c-0.06-0.16-0.08-0.42-0.11-0.62c-0.07-0.61-0.11-1.23-0.11-1.85
							C160.24,7.2,159.49,7.2,159.49,7.68L159.49,7.68z"/>
					</g>
				</g>
				<g>
					<g>
						<path class="st4" d="M160.8,12.88c0.78-0.36,1.55-0.72,2.33-1.08c0.18-0.08,0.24-0.35,0.13-0.51
							c-0.12-0.18-0.32-0.22-0.51-0.13c-0.78,0.36-1.55,0.72-2.33,1.08c-0.18,0.08-0.24,0.35-0.13,0.51
							C160.4,12.93,160.61,12.97,160.8,12.88L160.8,12.88z"/>
					</g>
				</g>
			</g>
			<g>
				<g>
					<path class="st4" d="M130.77,19.84c-0.32,5.24,1.33,11.21,6.64,13.35c0.45,0.18,0.64-0.54,0.2-0.72
						c-4.98-2.01-6.39-7.77-6.09-12.63C131.55,19.36,130.8,19.36,130.77,19.84L130.77,19.84z"/>
				</g>
			</g>
			<g>
				<g>
					<path class="st4" d="M160.84,6.14c2.29,0.73,4.2,2.41,5.15,4.63c0.45,1.06,0.67,2.21,0.63,3.36c-0.05,1.31-0.64,2.59-0.33,3.91
						c0.11,0.47,0.83,0.27,0.72-0.2c-0.2-0.84,0.08-1.67,0.22-2.5c0.1-0.59,0.16-1.2,0.13-1.8c-0.05-1.21-0.35-2.4-0.88-3.48
						c-1.09-2.23-3.09-3.89-5.45-4.64C160.58,5.27,160.38,6,160.84,6.14L160.84,6.14z"/>
				</g>
			</g>
		</g>
		<g>
			<g>
				<path class="st4" d="M164.81,3.57c0.49-0.33,1.14-0.77,1.77-0.66c0.47,0.08,0.72,0.5,0.76,0.95c0.13,1.25-1.02,2.16-1.64,3.11
					c-0.25,0.37,0.28,0.72,0.59,0.45c0.86-0.74,1.85-1.34,2.91-1.75c0.19-0.07,0.32-0.25,0.26-0.46c-0.05-0.18-0.27-0.34-0.46-0.26
					c-1.19,0.46-2.27,1.11-3.24,1.94c0.2,0.15,0.39,0.3,0.59,0.45c0.44-0.67,1.03-1.24,1.41-1.95c0.31-0.59,0.44-1.26,0.28-1.92
					c-0.16-0.65-0.65-1.19-1.32-1.3c-0.83-0.14-1.61,0.3-2.28,0.74C164.03,3.19,164.4,3.84,164.81,3.57L164.81,3.57z"/>
			</g>
		</g>
	</g>
	<g class="st2">
		<g>
			<g>
				<g>
					<g>
						<path d="M219.49,104.5c0.55-0.98,1.18-1.91,1.91-2.76c0.35-0.41,0.72-0.8,1.11-1.17c0.07-0.07,0.42-0.49,0.54-0.48
							c0.1,0.01,0.14,0.21,0.17,0.29c0.15,0.48,0.09,1.07,0.09,1.57c0,0.63-0.01,1.27-0.05,1.9c-0.08,1.28-0.25,2.55-0.49,3.8
							c-0.12,0.63,0.84,0.9,0.96,0.27c0.3-1.5,0.49-3.02,0.55-4.54c0.03-0.79,0.04-1.59,0.01-2.38c-0.02-0.53-0.07-1.11-0.44-1.53
							c-0.96-1.09-2.21,0.52-2.83,1.2c-0.92,1.01-1.73,2.13-2.39,3.33C218.31,104.56,219.17,105.06,219.49,104.5L219.49,104.5z"/>
					</g>
				</g>
				<g>
					<g>
						<path d="M219.67,109.54c1.57-0.26,3.14-0.53,4.71-0.79c0.38-0.06,0.75-0.13,1.13-0.19c0.32-0.05,0.71-0.07,0.98-0.26
							c0.62-0.43,0.22-1.42-0.53-1.23c-0.62,0.15-0.36,1.12,0.27,0.96c0.02-0.01,0.04-0.01,0.06-0.02c-0.09,0-0.18,0-0.27,0
							c-0.05-0.03-0.1-0.06-0.16-0.1c-0.02-0.08-0.05-0.17-0.07-0.25c0.2-0.18,0.21-0.24,0.06-0.17c-0.05,0.01-0.1,0.02-0.16,0.03
							c-0.13,0.02-0.27,0.04-0.4,0.07c-0.29,0.05-0.58,0.1-0.86,0.14c-0.55,0.09-1.11,0.19-1.66,0.28
							c-1.13,0.19-2.26,0.38-3.39,0.57C218.78,108.69,219.04,109.65,219.67,109.54L219.67,109.54z"/>
					</g>
				</g>
			</g>
			<g>
				<g>
					<path d="M231.19,99.34c-0.68,1.2-1.36,2.4-2.03,3.6c-0.68,1.2-1.41,2.38-2.03,3.6c-0.25,0.5-0.18,1.09,0.43,1.25
						c0.6,0.16,1.31,0.12,1.92,0.16c1.41,0.1,2.82,0.2,4.22,0.3c0.64,0.05,0.64-0.95,0-1c-1.19-0.09-2.38-0.17-3.57-0.26
						c-0.6-0.04-1.19-0.09-1.79-0.13c-0.11-0.01-0.31-0.07-0.41-0.03c-0.15-0.03-0.13,0.04,0.05,0.2c0.04-0.07,0.08-0.14,0.12-0.21
						c0.15-0.26,0.29-0.52,0.44-0.78c1.17-2.07,2.34-4.14,3.51-6.21C232.37,99.29,231.5,98.78,231.19,99.34L231.19,99.34z"/>
				</g>
			</g>
			<g>
				<g>
					<path d="M234.93,99.52c-0.3,1.24-0.53,2.52-0.59,3.8c-0.03,0.59,0.26,1.11,0.89,1.16c0.51,0.04,0.96-0.24,1.41-0.44
						c1.05-0.45,2.21-0.66,3.35-0.63c0.5,0.02,1.16,0.22,1.54-0.22c0.39-0.44,0.08-1.13-0.49-1.15c-0.64-0.03-0.64,0.97,0,1
						c0.02,0,0.04,0,0.06,0c-0.08-0.02-0.17-0.05-0.25-0.07c-0.01,0-0.01-0.01-0.02-0.01c-0.04-0.07-0.09-0.15-0.13-0.22
						c0.03,0.08,0.03,0.07,0-0.04c0.04-0.07,0.09-0.15,0.13-0.22c0.03-0.04,0.02-0.01-0.09-0.02c-0.1-0.01-0.2-0.02-0.31-0.03
						c-0.2-0.02-0.4-0.03-0.61-0.03c-0.43,0-0.86,0.03-1.29,0.09c-0.83,0.11-1.63,0.34-2.39,0.68c-0.17,0.07-0.65,0.4-0.84,0.31
						c0.03,0.02,0.02,0.07,0.04-0.01c0.02-0.08,0.01-0.18,0.01-0.27c0.02-0.24,0.04-0.48,0.06-0.72c0.1-0.91,0.26-1.81,0.48-2.7
						C236.04,99.16,235.08,98.89,234.93,99.52L234.93,99.52z"/>
				</g>
			</g>
			<g>
				<g>
					<path d="M238.03,99.46c-0.36,2.88-0.73,5.77-1.09,8.65c-0.05,0.37,0.46,0.63,0.75,0.43c0.14-0.1,0.28-0.2,0.42-0.3
						c0.52-0.37,0.03-1.23-0.5-0.86c-0.14,0.1-0.28,0.2-0.42,0.3c0.25,0.14,0.5,0.29,0.75,0.43c0.36-2.88,0.73-5.77,1.09-8.65
						C239.11,98.82,238.11,98.83,238.03,99.46L238.03,99.46z"/>
				</g>
			</g>
			<g>
				<g>
					<path d="M244.5,99.94c0.09-0.13,0.12-0.04-0.04-0.1c-0.09-0.04-0.2-0.06-0.3-0.08c-0.23-0.06-0.46-0.1-0.7-0.08
						c-0.46,0.05-0.8,0.37-1,0.78c-0.25,0.5-0.35,1.07-0.49,1.61c-0.14,0.52-0.45,1.19-0.31,1.73c0.25,1.01,1.48,0.72,2.19,1.1
						c0.71,0.38,1.18,1.3,0.82,2.07c-0.38,0.81-1.52,1.2-2.33,0.84c-0.58-0.26-1.09,0.6-0.5,0.86c1.84,0.82,4.31-0.56,3.9-2.73
						c-0.18-0.98-0.95-1.84-1.91-2.12c-0.22-0.07-0.44-0.08-0.66-0.12c-0.14-0.02-0.48-0.03-0.56-0.17
						c-0.04-0.06,0.16-0.6,0.19-0.74c0.1-0.39,0.21-0.77,0.31-1.16c0.07-0.26,0.12-0.58,0.28-0.8c0.14-0.2,0.28-0.16,0.5-0.11
						c0.56,0.15,1.09,0.26,1.47-0.28C245.73,99.92,244.87,99.42,244.5,99.94L244.5,99.94z"/>
				</g>
			</g>
			<g>
				<g>
					<path d="M247.17,99.22c-0.27,0.57-0.51,1.15-0.71,1.74c-0.1,0.3-0.22,0.62-0.19,0.94c0.03,0.33,0.2,0.59,0.46,0.79
						c0.41,0.3,1.01,0.31,1.45,0.07c0.51-0.28,0.77-0.88,0.76-1.44c-0.01-0.68-0.39-1.26-0.77-1.8c-0.15-0.21-0.44-0.34-0.68-0.18
						c-0.21,0.14-0.34,0.46-0.18,0.68c0.14,0.19,0.27,0.38,0.39,0.58c0.05,0.09,0.1,0.19,0.15,0.28c0.03,0.08-0.02-0.06,0.01,0.02
						c0.01,0.02,0.02,0.05,0.02,0.07c0.02,0.06,0.04,0.12,0.05,0.19c0.01,0.05,0.02,0.11,0.01,0.02c0,0.05,0.01,0.09,0.01,0.14
						c0,0.05,0,0.09,0,0.14c0,0.01-0.01,0.08,0,0.01c0.01-0.08-0.01,0.05-0.01,0.05c-0.01,0.04-0.02,0.08-0.03,0.11
						c-0.01,0.02-0.04,0.09,0.01-0.01c-0.01,0.02-0.02,0.04-0.03,0.05c-0.02,0.04-0.05,0.08-0.07,0.12c0-0.01,0.06-0.06,0.02-0.02
						c-0.02,0.02-0.03,0.04-0.05,0.06c-0.02,0.02-0.04,0.04-0.06,0.05c-0.04,0.04,0.02-0.01,0.02-0.02
						c-0.01,0.01-0.03,0.02-0.04,0.03c-0.03,0.02-0.05,0.05-0.01,0.01c0.02-0.03,0.04-0.01,0,0c-0.02,0-0.03,0.01-0.05,0.01
						c-0.02,0.01-0.04,0.01-0.07,0.02c-0.06,0.02,0.09,0,0.03,0c-0.04,0-0.08,0-0.12,0c-0.09,0,0.1,0.03-0.02,0
						c-0.03-0.01-0.06-0.02-0.1-0.03c-0.07-0.02-0.02-0.02-0.02,0c0.03,0.02,0.04,0.02,0.02,0c-0.01,0-0.02-0.01-0.03-0.02
						c-0.01-0.01-0.03-0.02-0.04-0.02c-0.08-0.05,0.03,0.01,0.03,0.02c0,0-0.06-0.07-0.07-0.07c0.04-0.01,0.05,0.09,0.02,0.03
						c-0.02-0.04,0-0.02,0,0c-0.01,0.1,0.03-0.01,0,0c-0.01-0.04-0.01-0.04-0.01-0.02c0,0.02,0,0.02,0-0.01c0-0.03,0-0.05,0-0.08
						c0,0.02-0.02,0.09,0-0.02c0.01-0.05,0.02-0.1,0.04-0.15c0.04-0.13,0.08-0.25,0.12-0.38c0.09-0.26,0.19-0.52,0.29-0.77
						c0.01-0.02,0.02-0.05,0.03-0.07c0-0.01,0.05-0.11,0.02-0.05c0.02-0.06,0.05-0.11,0.07-0.17c0.06-0.14,0.12-0.28,0.19-0.41
						c0.11-0.24,0.07-0.55-0.18-0.68C247.63,98.92,247.28,98.96,247.17,99.22L247.17,99.22z"/>
				</g>
			</g>
			<g>
				<g>
					<path d="M246.28,104.33c0.82,0,1.64,0,2.46,0c0.26,0,0.51-0.23,0.5-0.5c-0.01-0.27-0.22-0.5-0.5-0.5c-0.82,0-1.64,0-2.46,0
						c-0.26,0-0.51,0.23-0.5,0.5C245.79,104.1,246,104.33,246.28,104.33L246.28,104.33z"/>
				</g>
			</g>
		</g>
		<g>
			<g>
				<path d="M217.22,98.27c-1.29,2.29-2.24,4.85-2.19,7.51c0.05,2.37,0.9,4.69,2.57,6.4c0.45,0.46,1.16-0.25,0.71-0.71
					c-3.47-3.54-2.43-8.79-0.23-12.7C218.4,98.21,217.54,97.71,217.22,98.27L217.22,98.27z"/>
			</g>
		</g>
		<g>
			<g>
				<path d="M249.5,98.65c1.38,1.39,2.1,3.29,2.05,5.24c-0.03,0.94-0.24,1.9-0.65,2.75c-0.46,0.95-1.27,1.73-1.47,2.8
					c-0.12,0.63,0.84,0.9,0.96,0.27c0.13-0.65,0.52-1.16,0.87-1.7c0.3-0.45,0.54-0.92,0.74-1.42c0.38-0.95,0.56-1.99,0.55-3.02
					c-0.03-2.1-0.86-4.14-2.35-5.63C249.75,97.49,249.04,98.19,249.5,98.65L249.5,98.65z"/>
			</g>
		</g>
		<g>
			<g>
				<path d="M254.49,97.71c-0.4,0.88-0.71,1.81-0.84,2.78c-0.06,0.45,0,0.94,0.35,1.27c0.26,0.25,0.62,0.36,0.98,0.34
					c1.64-0.09,2.41-1.84,2.2-3.28c-0.11-0.8-0.53-1.57-1.17-2.07c-0.21-0.17-0.5-0.21-0.71,0c-0.17,0.17-0.21,0.54,0,0.71
					c0.43,0.33,0.7,0.74,0.83,1.23c0.08,0.28,0.1,0.44,0.09,0.75c-0.01,0.24-0.05,0.44-0.14,0.71c-0.02,0.06-0.01,0.04-0.05,0.13
					c-0.03,0.06-0.06,0.11-0.09,0.17c-0.08,0.13-0.11,0.19-0.2,0.28c-0.11,0.12-0.1,0.11-0.23,0.19c-0.05,0.03-0.1,0.06-0.16,0.09
					c-0.02,0.01-0.05,0.02-0.07,0.03c0.08-0.03-0.07,0.02-0.07,0.02c-0.06,0.02-0.11,0.03-0.17,0.04c-0.06,0.01,0,0,0.01,0
					c-0.03,0-0.06,0.01-0.09,0.01c-0.04,0-0.19-0.02-0.09,0c-0.03-0.01-0.18-0.06-0.09-0.01c-0.03-0.01-0.05-0.03-0.07-0.04
					c0,0,0.06,0.05,0.02,0.01c-0.01-0.01-0.07-0.07-0.03-0.03c0.04,0.04-0.02-0.03-0.03-0.04c-0.05-0.12-0.04-0.24-0.03-0.37
					c0.09-0.82,0.38-1.66,0.72-2.41c0.11-0.25,0.07-0.54-0.18-0.68C254.96,97.4,254.61,97.46,254.49,97.71L254.49,97.71z"/>
			</g>
		</g>
	</g>
	<g class="st2">
		<g>
			<g>
				<g>
					<g>
						<path class="st3" d="M194.81,54.59c0.12-1.15,0.35-2.29,0.7-3.39c0.17-0.54,0.37-1.07,0.59-1.58
							c0.08-0.19,0.17-0.52,0.41-0.39c0.21,0.11,0.35,0.41,0.44,0.61c0.99,2.09,1.7,4.33,2.16,6.6c0.1,0.47,0.82,0.27,0.72-0.2
							c-0.28-1.37-0.65-2.72-1.12-4.04c-0.23-0.65-0.48-1.28-0.75-1.91c-0.24-0.56-0.46-1.22-0.96-1.62
							c-1.22-0.97-1.8,1.07-2.08,1.87c-0.46,1.31-0.74,2.67-0.88,4.05C194.02,55.07,194.77,55.07,194.81,54.59L194.81,54.59z"/>
					</g>
				</g>
				<g>
					<g>
						<path class="st3" d="M196.88,59.18c1.27-0.8,2.54-1.6,3.8-2.4c0.31-0.19,0.61-0.39,0.92-0.58c0.26-0.17,0.6-0.32,0.8-0.56
							c0.44-0.53-0.2-1.27-0.75-0.82c-0.37,0.31,0.16,0.83,0.53,0.53c-0.15-0.22-0.29-0.27-0.4-0.15c-0.05,0.03-0.1,0.07-0.15,0.1
							c-0.12,0.08-0.24,0.15-0.37,0.23c-0.21,0.14-0.43,0.27-0.64,0.41c-0.46,0.29-0.92,0.58-1.37,0.87
							c-0.92,0.58-1.83,1.16-2.75,1.74C196.1,58.79,196.47,59.44,196.88,59.18L196.88,59.18z"/>
					</g>
				</g>
			</g>
			<g>
				<g>
					<path class="st3" d="M203.4,45.73c-0.14,1.35-0.29,2.71-0.43,4.06c-0.14,1.35-0.36,2.71-0.43,4.06
						c-0.08,1.41,1.72,0.5,2.39,0.28c1.29-0.42,2.58-0.84,3.87-1.26c0.46-0.15,0.26-0.87-0.2-0.72c-1.13,0.37-2.26,0.74-3.39,1.11
						c-0.57,0.18-1.13,0.37-1.7,0.55c-0.09,0.03-0.25,0.13-0.34,0.11c0.14,0.04,0.1,0.01,0.12-0.14c0.03-0.31,0.07-0.62,0.1-0.93
						c0.25-2.37,0.5-4.74,0.76-7.11C204.2,45.25,203.45,45.26,203.4,45.73L203.4,45.73z"/>
				</g>
			</g>
			<g>
				<g>
					<path class="st3" d="M206.78,44.51c0.2,1.23,0.47,2.5,0.92,3.67c0.16,0.43,0.51,0.78,1,0.66c0.52-0.12,0.83-0.61,1.17-0.97
						c0.73-0.75,1.62-1.35,2.59-1.72c0.4-0.16,1.07-0.21,1.3-0.64c0.22-0.42-0.16-0.99-0.64-0.83c-0.46,0.15-0.26,0.87,0.2,0.72
						c-0.06-0.21-0.15-0.29-0.27-0.23c-0.04,0.01-0.07,0.02-0.11,0.03c-0.1,0.03-0.19,0.06-0.29,0.09
						c-0.18,0.06-0.35,0.12-0.52,0.19c-0.36,0.15-0.71,0.31-1.04,0.5c-0.67,0.39-1.28,0.87-1.81,1.43c-0.13,0.13-0.54,0.75-0.75,0.7
						c-0.12-0.03-0.17-0.34-0.2-0.43c-0.07-0.23-0.14-0.46-0.21-0.68c-0.26-0.88-0.45-1.77-0.6-2.68
						C207.43,43.84,206.71,44.04,206.78,44.51L206.78,44.51z"/>
				</g>
			</g>
			<g>
				<g>
					<path class="st3" d="M209.47,43.2c0.77,2.79,1.54,5.59,2.32,8.38c0.09,0.32,0.52,0.36,0.69,0.09c0.09-0.14,0.18-0.28,0.26-0.43
						c0.25-0.41-0.39-0.79-0.65-0.38c-0.09,0.14-0.18,0.28-0.26,0.43c0.23,0.03,0.46,0.06,0.69,0.09c-0.77-2.79-1.54-5.59-2.32-8.38
						C210.07,42.54,209.34,42.73,209.47,43.2L209.47,43.2z"/>
				</g>
			</g>
			<g>
				<g>
					<path class="st3" d="M215.4,41.35c-0.02,0.1-0.44,0.1-0.55,0.12c-0.22,0.03-0.43,0.08-0.61,0.21c-0.45,0.31-0.5,0.9-0.44,1.4
						c0.07,0.7,0.19,1.4,0.29,2.1c0.08,0.58,0.32,1.07,0.97,1.1c0.59,0.03,1.12-0.31,1.71-0.17c0.53,0.12,1.01,0.49,1.26,0.97
						c0.61,1.17-0.49,2.52-1.72,2.47c-0.48-0.02-0.48,0.73,0,0.75c1.23,0.05,2.38-0.88,2.61-2.09c0.23-1.22-0.6-2.36-1.73-2.75
						c-0.62-0.22-1.15-0.08-1.77,0.04c-0.12,0.02-0.35,0.09-0.46,0.01c-0.13-0.09-0.12-0.39-0.14-0.52
						c-0.06-0.42-0.12-0.84-0.18-1.26c-0.05-0.35-0.14-0.72-0.1-1.08c0.04-0.34,0.21-0.4,0.52-0.44c0.45-0.06,0.97-0.11,1.08-0.64
						C216.22,41.08,215.5,40.88,215.4,41.35L215.4,41.35z"/>
				</g>
			</g>
			<g>
				<g>
					<path class="st3" d="M217.47,39.82c-0.02,0.62-0.01,1.23,0.04,1.85c0.02,0.29,0.04,0.6,0.19,0.86
						c0.12,0.22,0.34,0.39,0.58,0.46c0.47,0.13,1-0.07,1.27-0.47c0.32-0.46,0.26-1.08,0.02-1.56c-0.27-0.55-0.81-0.91-1.31-1.23
						c-0.17-0.11-0.41-0.03-0.51,0.13c-0.11,0.18-0.04,0.4,0.13,0.51c0.34,0.22,0.68,0.43,0.91,0.75c0.11,0.15,0.17,0.28,0.21,0.47
						c0,0.02,0.01,0.04,0.01,0.06c-0.01-0.05,0,0.01,0,0.02c0,0.05,0,0.09,0,0.14c0,0.01-0.01,0.09,0,0.05c0-0.04,0,0.02,0,0.03
						c-0.01,0.05-0.02,0.1-0.04,0.15c0.02-0.04-0.04,0.07-0.05,0.08c0,0.01-0.03,0.05-0.01,0.01c0.03-0.04-0.01,0.01-0.02,0.02
						c-0.02,0.02-0.09,0.08-0.03,0.03c-0.04,0.02-0.07,0.04-0.11,0.06c-0.02,0.01-0.06,0.02,0,0c-0.01,0-0.03,0.01-0.04,0.01
						c-0.04,0.01-0.07,0.02-0.11,0.03c0.08-0.02-0.01,0-0.04,0c-0.02,0-0.04,0-0.06,0c-0.04,0,0.07,0.02-0.01,0
						c-0.02-0.01-0.11-0.04-0.07-0.02c0.04,0.02-0.04-0.03-0.06-0.04c0.08,0.05-0.03-0.04,0-0.01c0.03,0.03-0.01-0.01-0.01-0.02
						c0,0-0.04-0.08-0.04-0.06c-0.01-0.04-0.04-0.19-0.05-0.2c-0.02-0.13-0.02-0.26-0.03-0.39c-0.04-0.57-0.05-1.15-0.03-1.72
						c0.01-0.2-0.18-0.38-0.38-0.38C217.64,39.44,217.48,39.61,217.47,39.82L217.47,39.82z"/>
				</g>
			</g>
			<g>
				<g>
					<path class="st3" d="M218.43,44.68c0.73-0.3,1.45-0.6,2.18-0.89c0.18-0.07,0.33-0.25,0.26-0.46c-0.06-0.17-0.27-0.34-0.46-0.26
						c-0.73,0.3-1.45,0.6-2.18,0.89c-0.18,0.07-0.33,0.25-0.26,0.46C218.03,44.59,218.24,44.76,218.43,44.68L218.43,44.68z"/>
				</g>
			</g>
		</g>
		<g>
			<g>
				<path class="st3" d="M190.66,49.82c-0.5,4.74,0.75,10.33,5.5,12.49c0.44,0.2,0.82-0.45,0.38-0.65
					c-4.52-2.06-5.6-7.34-5.13-11.84C191.46,49.34,190.71,49.34,190.66,49.82L190.66,49.82z"/>
			</g>
		</g>
		<g>
			<g>
				<path class="st3" d="M219.2,38.24c1.79,0.8,3.19,2.31,3.89,4.13c0.34,0.89,0.52,1.83,0.5,2.78c-0.02,1.1-0.46,2.15-0.23,3.25
					c0.1,0.47,0.82,0.27,0.72-0.2c-0.15-0.7,0.07-1.38,0.17-2.07c0.07-0.49,0.11-0.99,0.08-1.49c-0.05-0.98-0.28-1.93-0.67-2.83
					c-0.79-1.85-2.24-3.4-4.09-4.22C219.15,37.4,218.76,38.05,219.2,38.24L219.2,38.24z"/>
			</g>
		</g>
		<g>
			<g>
				<path class="st3" d="M223.18,37.64c0.07-1.07,0.32-2.12,0.72-3.12c-0.23,0.03-0.46,0.06-0.69,0.09c0.67,1.09,1.2,2.26,1.59,3.48
					c0.14,0.46,0.87,0.26,0.72-0.2c-0.4-1.28-0.96-2.52-1.66-3.66c-0.18-0.3-0.57-0.2-0.69,0.09c-0.43,1.06-0.68,2.18-0.75,3.32
					c-0.01,0.2,0.18,0.38,0.38,0.38C223.02,38.01,223.17,37.84,223.18,37.64L223.18,37.64z"/>
			</g>
		</g>
		<g>
			<g>
				<path class="st3" d="M224.61,39.07c0.68-0.58,1.37-1.16,2.05-1.74c0.15-0.13,0.14-0.4,0-0.53c-0.16-0.15-0.37-0.14-0.53,0
					c-0.68,0.58-1.37,1.16-2.05,1.74c-0.15,0.13-0.14,0.4,0,0.53C224.24,39.22,224.45,39.21,224.61,39.07L224.61,39.07z"/>
			</g>
		</g>
	</g>
</g>
<g>
	<g>
		<g>
			<g>
				<path class="st3" d="M67.63,152.54c-4.65-8.21-7.71-17.25-9.08-26.58c-1.35-9.22-0.97-18.72,1.15-27.79
					c1.94-8.31,5.36-16.23,9.95-23.42c4.57-7.16,10.3-13.56,16.88-18.93c7.14-5.84,15.36-10.46,24.12-13.38
					c9.57-3.19,19.56-4.09,29.55-2.68c5.21,0.74,10.36,1.92,15.47,3.15c4.76,1.14,9.51,2.39,14.13,4.04
					c8.35,2.98,15.93,7.49,21.93,14.08c5.37,5.9,9.29,13.01,12.14,20.42c2.92,7.6,4.82,15.56,6.19,23.57
					c0.33,1.94,0.63,3.89,0.9,5.84c0.08,0.54,0.76,0.82,1.23,0.7c0.58-0.15,0.77-0.7,0.7-1.23c-1.16-8.26-2.76-16.48-5.33-24.43
					c-2.51-7.78-5.95-15.36-10.85-21.94c-5.21-7-11.93-12.56-19.84-16.27c-4.5-2.11-9.22-3.69-14-5.01
					c-4.96-1.37-9.98-2.56-15.01-3.6c-5.34-1.1-10.76-1.94-16.22-2.02c-5-0.08-10.02,0.49-14.89,1.59
					c-9.49,2.14-18.52,6.31-26.49,11.86c-7.18,5-13.52,11.12-18.78,18.11c-5.21,6.91-9.31,14.68-12,22.91
					c-2.92,8.95-4.11,18.46-3.58,27.85c0.54,9.61,2.86,19.09,6.81,27.87c0.97,2.15,2.04,4.24,3.19,6.29
					C66.53,154.67,68.26,153.67,67.63,152.54L67.63,152.54z"/>
			</g>
		</g>
		<g>
			<g>
				<path class="st3" d="M58,151.02c3.02,1.83,6.13,3.49,9.32,4.98c0.74,0.34,1.41-0.08,1.5-0.86c0.23-1.89,0.46-3.78,0.69-5.66
					c0.12-0.94,0.26-1.89,0.35-2.83c0.07-0.73-0.14-1.59-0.88-1.91c-0.49-0.22-1.07-0.14-1.37,0.36c-0.25,0.43-0.14,1.15,0.36,1.37
					c-0.02-0.01-0.1-0.19-0.1-0.19c0.01,0-0.01,0.33-0.02,0.38c-0.04,0.41-0.1,0.81-0.15,1.21c-0.1,0.81-0.2,1.62-0.3,2.43
					c-0.2,1.62-0.4,3.24-0.59,4.85c0.5-0.29,1-0.58,1.5-0.86c-3.19-1.49-6.31-3.15-9.32-4.98C57.91,148.63,56.9,150.36,58,151.02
					L58,151.02z"/>
			</g>
		</g>
	</g>
	<g>
		<g>
			<g>
				<path class="st4" d="M137.82,36.51c10.2,0.34,20.3,2.54,29.76,6.37c9.32,3.77,18.02,9.17,25.46,15.93
					c7.48,6.8,13.63,14.98,17.85,24.18c4.4,9.6,6.67,20.17,6.74,30.72c0.07,10.56-2.06,21.16-6.43,30.78
					c-4.13,9.09-10.21,17.17-17.62,23.84c-7.4,6.67-16.09,11.94-25.4,15.48c-9.55,3.63-19.72,5.44-29.94,5.14
					c-12.58-0.36-24.85-3.61-36.82-7.31c-1.49-0.46-2.99-0.93-4.48-1.41c-0.7-0.22-1.39-0.44-2.09-0.67
					c-0.37-0.12-0.74-0.24-1.11-0.36c-0.14-0.05-0.9-0.34-0.36-0.1c-0.79-0.36-1.55-0.79-2.31-1.19c-3.22-1.71-6.41-3.49-9.46-5.5
					c-1.15-0.76-2.33-1.55-3.3-2.53c-0.91-0.92-2.32,0.5-1.41,1.41c1.09,1.1,2.42,1.99,3.71,2.84c1.64,1.08,3.34,2.09,5.05,3.07
					c1.49,0.86,3,1.69,4.52,2.49c0.77,0.41,1.54,0.86,2.34,1.19c1.3,0.53,2.7,0.88,4.04,1.31c1.49,0.47,2.98,0.94,4.48,1.41
					c3.09,0.95,6.18,1.87,9.3,2.72c6.21,1.69,12.49,3.08,18.88,3.9c10.97,1.41,22.05,0.77,32.71-2.25
					c9.82-2.78,19.16-7.39,27.32-13.52c8.08-6.07,15.08-13.6,20.22-22.32c5.51-9.34,8.8-19.91,9.82-30.69
					c1.02-10.72-0.23-21.68-3.65-31.89c-3.37-10.03-8.84-19.22-15.99-27.02c-6.94-7.57-15.34-13.79-24.5-18.42
					c-9.29-4.7-19.36-7.77-29.69-9.04c-2.53-0.31-5.07-0.5-7.62-0.59C136.54,34.47,136.54,36.47,137.82,36.51L137.82,36.51z"/>
			</g>
		</g>
		<g>
			<g>
				<path class="st4" d="M145.89,25.98c-2.36,0.73-4.18,2.59-5.93,4.25c-1.92,1.82-3.74,3.74-5.47,5.74
					c-0.48,0.56-0.32,1.46,0.44,1.67c2.46,0.67,4.65,2.07,6.28,4.04c0.38,0.46,0.71,0.95,1.01,1.47c0.31,0.54,0.52,1.22,1.08,1.55
					c0.68,0.4,1.57,0.05,1.77-0.72c0.19-0.72-0.33-1.5-1.1-1.45c-1.28,0.08-1.29,2.08,0,2c0.03,0,0.06,0,0.08-0.01
					c-0.24-0.1-0.47-0.2-0.71-0.29c0.02,0.02,0.03,0.04,0.05,0.05c-0.09-0.15-0.17-0.29-0.26-0.44c0.01,0.03,0.01,0.06,0.02,0.09
					c0-0.18,0-0.35,0-0.53c0.01-0.02,0.02-0.04,0.03-0.07c0.2-0.15,0.4-0.31,0.6-0.46c-0.03,0.01-0.06,0.02-0.09,0.03
					c0.18,0,0.35,0,0.53,0c-0.05-0.01-0.1-0.02-0.15-0.04c0.15,0.09,0.29,0.17,0.44,0.26c-0.29-0.23-0.46-0.81-0.66-1.15
					c-0.25-0.42-0.54-0.83-0.84-1.22c-0.62-0.81-1.32-1.55-2.11-2.2c-1.6-1.32-3.44-2.29-5.45-2.84c0.15,0.56,0.29,1.11,0.44,1.67
					c1.63-1.88,3.34-3.69,5.13-5.42c1.56-1.5,3.25-3.41,5.38-4.06C147.65,27.53,147.13,25.6,145.89,25.98L145.89,25.98z"/>
			</g>
		</g>
	</g>
	<g>
		<g>
			<g>
				<path class="st4" d="M202.98,166.68c1.48-0.38,3.15,0.16,4.02,1.44c0.88,1.28,0.86,3.04-0.03,4.31
					c-0.76,1.08-2.01,1.71-3.18,2.26c-1.23,0.58-2.5,1.1-3.6,1.91c-0.47,0.34-0.18,1,0.39,0.91c2.85-0.44,5.75-0.34,8.57,0.27
					c0.63,0.14,0.9-0.83,0.27-0.96c-3-0.66-6.06-0.75-9.1-0.27c0.13,0.3,0.26,0.61,0.39,0.91c2.01-1.48,4.65-1.96,6.46-3.73
					c1.95-1.91,2.03-5.27-0.14-7.06c-1.2-0.99-2.8-1.34-4.3-0.96C202.09,165.87,202.36,166.84,202.98,166.68L202.98,166.68z"/>
			</g>
		</g>
		<g>
			<g>
				<path class="st4" d="M211.96,167.51c1.97,0.36,4.39,1.93,3.99,4.25c-0.47,2.69-3.57,3.54-5.81,4.12
					c-0.53,0.14-0.44,1.03,0.13,0.98c2.45-0.22,4.91,0.2,7.12,1.29c0.58,0.28,1.08-0.58,0.5-0.86c-2.37-1.16-5-1.66-7.63-1.42
					c0.04,0.33,0.09,0.65,0.13,0.98c2.7-0.7,6.16-1.87,6.56-5.12c0.33-2.74-2.3-4.73-4.73-5.18
					C211.6,166.43,211.33,167.4,211.96,167.51L211.96,167.51z"/>
			</g>
		</g>
		<g>
			<g>
				<path class="st4" d="M223.83,167.29c-0.74,0.22-1.51,0.22-2.25-0.04c-0.56-0.2-1.19-0.65-1.69-0.06
					c-0.42,0.51-0.44,1.47-0.53,2.09c-0.12,0.84-0.19,1.69-0.17,2.53c0.01,0.6,0.13,1.18,0.64,1.55c0.49,0.36,1.11,0.35,1.68,0.45
					c1.12,0.19,1.45,1.34,1,2.31c-0.66,1.41-2.63,1.44-3.94,1.28c0.12,0.28,0.24,0.57,0.35,0.85c0.28-0.22,0.56-0.45,0.84-0.67
					c0.5-0.4-0.21-1.11-0.71-0.71c-0.28,0.22-0.56,0.45-0.84,0.67c-0.38,0.31-0.02,0.81,0.35,0.85c1.3,0.16,2.75,0.08,3.85-0.71
					c0.92-0.66,1.4-1.74,1.24-2.87c-0.16-1.16-0.97-1.85-2.1-2.01c-0.3-0.04-0.61-0.05-0.9-0.15c-0.39-0.13-0.47-0.39-0.48-0.78
					c-0.03-0.88,0.04-1.77,0.18-2.64c0.04-0.23,0.08-0.46,0.12-0.69c0.03-0.13,0.05-0.56,0.14-0.65c0.12-0.1-0.04,0.01,0.09,0.05
					c0.1,0.03,0.21,0.1,0.31,0.14c0.2,0.08,0.4,0.16,0.6,0.21c0.81,0.21,1.66,0.18,2.45-0.06
					C224.71,168.07,224.45,167.1,223.83,167.29L223.83,167.29z"/>
			</g>
		</g>
		<g>
			<g>
				<path class="st4" d="M227.27,167.07c-1.01,1.06-1.21,2.76-0.49,4.04c0.37,0.65,1.23,1.4,1.99,0.83
					c0.34-0.26,0.44-0.68,0.51-1.08c0.07-0.41,0.1-0.83,0.08-1.25c-0.04-0.97-0.31-1.91-0.79-2.75c-0.32-0.56-1.18-0.06-0.86,0.5
					c0.61,1.06,0.84,2.39,0.54,3.58c-0.02,0.09-0.07,0.18-0.09,0.21c0.01-0.01,0.02-0.02,0.04-0.02c0.04,0-0.08-0.02-0.1-0.03
					c-0.2-0.09-0.33-0.29-0.44-0.48c-0.25-0.43-0.34-0.91-0.31-1.4c0.03-0.52,0.25-1.06,0.62-1.45
					C228.42,167.31,227.72,166.6,227.27,167.07L227.27,167.07z"/>
			</g>
		</g>
		<g>
			<g>
				<path class="st4" d="M226.18,174.35c1.13,0.03,2.25,0.05,3.38,0.08c0.27,0.01,0.5-0.23,0.5-0.5c0-0.28-0.23-0.49-0.5-0.5
					c-1.13-0.03-2.25-0.05-3.38-0.08c-0.27-0.01-0.5,0.23-0.5,0.5C225.68,174.12,225.91,174.34,226.18,174.35L226.18,174.35z"/>
			</g>
		</g>
	</g>
	<g>
		<g>
			<g>
				<path class="st3" d="M46.09,48.5c2.37-0.65,10.28-1.61,9.26,3c-0.44,1.97-2.45,3.18-4.04,4.18c-1.76,1.12-3.62,2.09-5.54,2.91
					c-0.4,0.17-0.27,0.82,0.12,0.91c4.06,0.96,8.24,0.74,12.34,0.18c0.63-0.09,0.36-1.05-0.27-0.96c-3.92,0.53-7.93,0.73-11.81-0.18
					c0.04,0.3,0.08,0.61,0.12,0.91c1.78-0.76,3.51-1.65,5.16-2.67c1.47-0.91,3.06-1.89,4.09-3.31c0.91-1.26,1.28-3.08,0.4-4.46
					c-0.81-1.26-2.34-1.75-3.74-1.94c-2.12-0.29-4.29-0.1-6.35,0.47C45.21,47.71,45.47,48.67,46.09,48.5L46.09,48.5z"/>
			</g>
		</g>
		<g>
			<g>
				<path class="st3" d="M60.34,48.26c1.39-0.05,2.78,0.22,4,0.9c1.02,0.57,2.04,1.54,1.88,2.81c-0.17,1.32-1.35,2.36-2.22,3.27
					c-1.02,1.07-2.07,2.12-3.14,3.14c-0.32,0.3-0.07,0.85,0.35,0.85c2.43,0.02,4.86,0.03,7.29,0.05c0.64,0,0.64-1,0-1
					c-2.43-0.02-4.86-0.03-7.29-0.05c0.12,0.28,0.24,0.57,0.35,0.85c1.29-1.24,2.56-2.51,3.78-3.82c0.97-1.04,2.02-2.32,1.88-3.84
					c-0.28-3.07-4.32-4.28-6.88-4.18C59.7,47.28,59.7,48.28,60.34,48.26L60.34,48.26z"/>
			</g>
		</g>
		<g>
			<g>
				<path class="st3" d="M75.54,46.45c-1.14,0-2.28-0.01-3.41-0.01c-0.74,0-1.69-0.12-2.27,0.46c-0.61,0.61-0.47,1.72-0.46,2.51
					c0.01,1.07,0.09,2.14,0.24,3.2c0.1,0.74,0.27,1.59,1.2,1.58c0.77,0,1.46-0.6,2.23-0.73c0.74-0.12,1.67,0.01,1.95,0.83
					c0.3,0.87-0.32,1.88-0.89,2.5c-1.43,1.57-3.51,2.48-5.62,2.57c-0.64,0.03-0.64,1.03,0,1c1.77-0.08,3.51-0.64,4.96-1.68
					c1.27-0.91,2.67-2.32,2.62-4.02c-0.05-1.6-1.53-2.38-2.97-2.21c-0.36,0.04-0.7,0.12-1.04,0.24c-0.28,0.1-0.83,0.51-1.11,0.48
					c-0.46-0.06-0.4-1.17-0.43-1.52c-0.06-0.59-0.1-1.18-0.11-1.77c-0.02-0.58-0.04-1.18,0.01-1.75c0.06-0.73,0.63-0.68,1.22-0.68
					c1.3,0,2.6,0.01,3.9,0.01C76.19,47.45,76.19,46.45,75.54,46.45L75.54,46.45z"/>
			</g>
		</g>
		<g>
			<g>
				<path class="st3" d="M79.12,47.01c-0.52,0.84-0.81,1.81-0.85,2.8c-0.03,0.84,0.11,1.8,0.79,2.38c0.33,0.28,0.76,0.41,1.19,0.28
					c0.46-0.14,0.8-0.55,1.02-0.95c0.39-0.69,0.49-1.5,0.37-2.27c-0.14-0.89-0.62-1.67-1.34-2.2c-0.22-0.16-0.56-0.04-0.68,0.18
					c-0.15,0.25-0.04,0.52,0.18,0.68c0.85,0.63,1.08,1.85,0.75,2.81c-0.07,0.21-0.21,0.46-0.39,0.64c-0.05,0.05-0.1,0.1-0.16,0.13
					c-0.05,0.03-0.06,0.02-0.08,0.02c-0.05,0-0.02,0,0,0.01c-0.03-0.01-0.07-0.01-0.1-0.03c0.05,0.02-0.08-0.05-0.07-0.05
					c-0.44-0.34-0.49-1.07-0.47-1.61c0.02-0.83,0.27-1.63,0.71-2.34C80.32,46.97,79.46,46.47,79.12,47.01L79.12,47.01z"/>
			</g>
		</g>
		<g>
			<g>
				<path class="st3" d="M79.17,54.97c0.46-0.24,0.96-0.41,1.5-0.5c0.43-0.07,1.06-0.06,1.5,0.01c0.27,0.05,0.54-0.07,0.62-0.35
					c0.07-0.24-0.08-0.57-0.35-0.62c-1.29-0.23-2.61-0.03-3.77,0.58c-0.24,0.13-0.31,0.46-0.18,0.68
					C78.62,55.03,78.93,55.09,79.17,54.97L79.17,54.97z"/>
			</g>
		</g>
	</g>
	<g>
		<g>
			<path d="M71.55,163.2c0.07,0.07,0.04,0.08,0.04,0c0.01,0.24,0.02-0.03,0.01-0.02c-0.05,0.05,0,0.11,0.02-0.01
				c-0.01,0.06-0.12,0.34-0.04,0.18c-0.03,0.06-0.06,0.11-0.09,0.16c-0.14,0.22,0.11-0.09-0.08,0.1c-0.05,0.05-0.09,0.09-0.14,0.13
				c0.03-0.03,0.13-0.09-0.03,0.02c-0.05,0.03-0.11,0.07-0.17,0.1c0.04-0.02,0.16-0.05-0.02,0.01c-0.06,0.02-0.12,0.03-0.18,0.04
				c0.07-0.02,0.14,0.01-0.01-0.02c0.05,0.01,0.17,0.05-0.01-0.01c-0.15-0.05,0.01,0.01-0.09-0.04c-0.15-0.08-0.1-0.04-0.21-0.16
				c-0.11-0.13,0.06,0.1-0.04-0.04c-0.04-0.06-0.07-0.12-0.11-0.18c-0.08-0.14-0.15-0.44-0.16-0.57c-0.03-0.55,0.07-0.99,0.43-1.46
				c0.41-0.54,0.99-0.92,1.57-1.24c0.32-0.18,0.66-0.34,0.99-0.5c0.34-0.16,0.71-0.38,1.09-0.41c0.07-0.01,0.05,0,0.15,0.02
				c-0.03-0.01-0.17-0.09,0.03,0.02c0.03,0.01,0.15,0.11,0.02,0.01c0.04,0.03,0.09,0.14,0.03,0.01c0.13,0.25,0.18,0.33,0.22,0.58
				c0.09,0.52,0,1.1-0.11,1.63c-0.13,0.59-0.29,1.29-0.63,1.73c-0.35,0.46-0.74,0.54-1.2,0.39c-1.2-0.39-1.29-1.92-0.81-3.04
				c0.12-0.29,0.29-0.6,0.49-0.84c0.09-0.11,0.19-0.16,0.28-0.23c-0.05,0.04,0.18-0.04,0.05-0.02c-0.12,0.02,0.11,0,0.14,0
				c-0.26-0.02-0.01-0.01-0.01,0.01c0-0.01-0.14-0.07,0,0c0.05,0.03,0.11,0.06,0.15,0.1c-0.13-0.1-0.01,0,0.01,0.02
				c0.15,0.16,0.28,0.35,0.42,0.66c0.05,0.12,0.05,0.11,0.11,0.29c0.05,0.15,0.09,0.3,0.13,0.45c0.04,0.15,0.07,0.3,0.09,0.45
				c0.02,0.12,0.02,0.12,0.03,0.34c0.03,0.61-0.02,1.03-0.25,1.61c0.05-0.12-0.02,0.04-0.03,0.05c-0.05,0.09-0.09,0.18-0.15,0.26
				c-0.04,0.06-0.07,0.1-0.11,0.13c0.09-0.07-0.05,0.03-0.08,0.04c-0.06,0.03-0.05,0.03,0.05-0.02c-0.03,0.01-0.05,0.01-0.08,0.02
				c0.29,0.13-0.02-0.09,0.01-0.02c0.1,0.02,0.11,0.01,0.03,0c-0.02,0-0.04,0-0.05-0.02c-0.54-0.48-0.92-1.16-1.21-1.83
				c-0.69-1.61-0.77-3.43-0.27-5.1c-0.41,0.23-0.82,0.47-1.23,0.7c1.18,0.21,1.88,1.4,1.84,2.58c-0.03,1.04-0.83,2.3-1.85,2.4
				c-0.24,0.02-0.43-0.02-0.59-0.09c-0.29-0.13-0.45-0.25-0.65-0.5c-0.12-0.15-0.23-0.35-0.29-0.58c-0.05-0.18-0.04-0.08-0.02-0.26
				c0.02-0.18-0.03,0.12,0.01-0.05c0.01-0.03,0.07-0.23,0.03-0.12c0.03-0.06,0.07-0.13,0.11-0.19c-0.08,0.11,0.02-0.02,0.03-0.03
				c0.04-0.05,0.09-0.09,0.14-0.13c-0.12,0.09,0.01,0,0.04-0.01c0.06-0.03,0.11-0.06,0.17-0.09c-0.15,0.06,0.01,0.01,0.04,0
				c0.06-0.02,0.13-0.03,0.19-0.05c-0.18,0.04,0.11-0.01,0.13-0.01c0.3-0.01,0.33-0.01,0.66,0.09c0.2,0.06,0.13,0.03,0.25,0.09
				c0.06,0.03,0.13,0.07,0.19,0.1c0,0,0.25,0.17,0.14,0.09c0.48,0.37,0.74,1.03,0.76,1.74c0.03,0.87-0.21,1.73-0.57,2.51
				c0.46-0.12,0.91-0.24,1.37-0.36c-1.13-0.5-1.88-1.62-1.76-2.84c0.11-1.14,1.08-2.1,2.21-2.36c-0.32-0.09-0.65-0.17-0.97-0.26
				c0.51,0.62,1.14,1.37,1.17,2.21c0.01,0.23-0.08,0.53-0.25,0.74c-0.2,0.26-0.31,0.27-0.59,0.24c0.24,0.1,0.47,0.2,0.71,0.29
				c-0.86-1-0.95-2.49-0.31-3.61c-0.58,0-1.15,0-1.73,0c0.65,0.99,0.64,2.19-0.02,3.17c0.2-0.15,0.4-0.31,0.6-0.46
				c-0.53,0.2-0.95,0.09-1.32-0.39c-0.34-0.42-1.06-0.35-1.41,0c-0.42,0.42-0.34,0.99,0,1.41c0.5,0.63,1.26,0.98,2.05,1.06
				c0.37,0.04,0.76,0,1.11-0.11c0.52-0.17,0.79-0.55,1.01-1.03c0.7-1.49,0.63-3.28-0.28-4.67c-0.4-0.61-1.34-0.68-1.73,0
				c-0.65,1.14-0.83,2.48-0.55,3.77c0.13,0.58,0.37,1.16,0.7,1.66c0.18,0.27,0.39,0.6,0.68,0.77c0.34,0.2,0.85,0.18,1.22,0.09
				c1.25-0.3,2.06-1.58,2.12-2.81c0.07-1.45-0.9-2.68-1.76-3.74c-0.23-0.28-0.65-0.33-0.97-0.26c-1.97,0.44-3.46,2.17-3.67,4.16
				c-0.2,1.91,0.98,3.92,2.74,4.69c0.45,0.2,1.12,0.18,1.37-0.36c0.91-2,1.43-4.82-0.35-6.53c-1.32-1.27-3.81-1.61-5.07-0.06
				c-1.46,1.8-0.12,4.38,1.93,4.97c2.16,0.63,4.14-1.2,4.68-3.17c0.62-2.27-0.66-5.19-3.14-5.63c-0.54-0.1-1.06,0.14-1.23,0.7
				c-0.68,2.25-0.45,4.68,0.55,6.8c0.47,1,1.2,2.27,2.34,2.59c1.01,0.29,1.93-0.21,2.49-1.06c1.04-1.59,0.84-3.83,0.07-5.47
				c-0.37-0.77-1-1.51-1.86-1.72c-1.22-0.3-2.25,0.5-2.85,1.49c-1.2,1.99-1.23,4.9,1,6.18c0.96,0.55,2.19,0.64,3.15,0.04
				c0.93-0.58,1.43-1.6,1.72-2.62c0.45-1.61,0.8-4.21-1.01-5.16c-1.21-0.63-2.48,0.05-3.58,0.6c-0.97,0.48-1.93,1.07-2.62,1.91
				c-0.77,0.95-1.12,2.1-0.92,3.32c0.17,1.07,0.87,2.05,1.92,2.41c2.14,0.73,4.56-2.27,2.75-3.99
				C72.03,160.9,70.62,162.31,71.55,163.2L71.55,163.2z"/>
		</g>
	</g>
	<g>
		<g>
			<g>
				<g>
					<path d="M26.15,178.07c0.29-0.46,0.58-0.93,0.87-1.39c0.26-0.42,0.5-0.91,0.84-1.28c0.76-0.84,1.36,0.88,1.52,1.44
						c0.49,1.77,0.21,3.65,0.67,5.43c0.12,0.47,0.84,0.27,0.72-0.2c-0.53-2.09-0.06-4.39-1.02-6.38c-0.4-0.83-1.24-1.75-2.18-1.03
						c-0.44,0.34-0.71,0.88-0.99,1.34c-0.35,0.57-0.71,1.13-1.06,1.7C25.24,178.1,25.89,178.48,26.15,178.07L26.15,178.07z"/>
				</g>
			</g>
			<g>
				<g>
					<path d="M27.71,183.85c1.82-0.99,3.73-1.79,5.71-2.4c0.46-0.14,0.26-0.87-0.2-0.72c-2.04,0.63-4.01,1.46-5.89,2.48
						C26.91,183.43,27.29,184.08,27.71,183.85L27.71,183.85z"/>
				</g>
			</g>
			<g>
				<g>
					<path d="M36.81,171.53c-0.69,1.38-1.27,2.82-1.72,4.3c-0.23,0.77-0.43,1.55-0.59,2.34c-0.08,0.39-0.15,0.79-0.22,1.19
						c-0.04,0.28-0.1,0.57,0.05,0.83c0.34,0.57,0.97,0.26,1.39-0.02c0.6-0.41,1.26-0.7,1.97-0.86c0.35-0.08,0.7-0.12,1.06-0.13
						c0.35-0.01,0.7,0.06,1.04,0.05c0.51-0.02,0.97-0.65,0.48-1.05c-0.37-0.3-0.9,0.22-0.53,0.53c0.03-0.18-0.03-0.27-0.17-0.25
						c-0.05,0-0.09-0.01-0.14-0.01c-0.14-0.01-0.27-0.02-0.41-0.02c-0.27-0.01-0.55,0.01-0.82,0.04c-0.51,0.06-1.01,0.17-1.5,0.36
						c-0.48,0.18-0.94,0.41-1.36,0.7c-0.1,0.07-0.19,0.15-0.3,0.2c-0.16,0.08-0.07,0.02-0.04-0.16c0.05-0.3,0.1-0.6,0.16-0.89
						c0.45-2.35,1.23-4.62,2.3-6.76C37.68,171.48,37.03,171.1,36.81,171.53L36.81,171.53z"/>
				</g>
			</g>
			<g>
				<g>
					<path d="M40.69,171.92c1-0.29,2.11-0.29,3.02,0.24c0.8,0.46,1.38,1.37,1.36,2.31c-0.02,0.89-0.63,1.55-1.28,2.08
						c-0.69,0.57-1.46,1.04-2.05,1.71c-0.23,0.26-0.01,0.75,0.36,0.63c2.04-0.68,4.08-1.36,6.12-2.04c0.46-0.15,0.26-0.88-0.2-0.72
						c-2.04,0.68-4.08,1.36-6.12,2.04c0.12,0.21,0.24,0.42,0.36,0.63c1.31-1.49,3.83-2.34,3.52-4.75c-0.14-1.07-0.81-2.04-1.75-2.56
						c-1.08-0.6-2.38-0.63-3.55-0.29C40.03,171.33,40.23,172.06,40.69,171.92L40.69,171.92z"/>
				</g>
			</g>
			<g>
				<g>
					<path d="M45.89,170.55c1.17-0.34,3.16-0.78,3.61,0.82c0.45,1.61-1.02,2.86-2.12,3.77c-0.31,0.26,0.03,0.69,0.36,0.63
						c0.98-0.18,1.95-0.37,2.93-0.55c0.49-0.09,2.07-0.21,1.71-1.1c-0.18-0.44-0.91-0.25-0.72,0.2c-0.04-0.1,0.12-0.07-0.06-0.04
						c-0.05,0.01-0.11,0.03-0.16,0.04c-0.18,0.04-0.36,0.07-0.54,0.1c-0.38,0.07-0.76,0.14-1.14,0.21
						c-0.74,0.14-1.47,0.28-2.21,0.42c0.12,0.21,0.24,0.42,0.36,0.63c1.34-1.11,2.97-2.73,2.26-4.66c-0.7-1.91-2.91-1.63-4.48-1.18
						C45.23,169.96,45.43,170.69,45.89,170.55L45.89,170.55z"/>
				</g>
			</g>
			<g>
				<g>
					<path d="M54.85,166.87c-0.4,0.03-0.81,0.06-1.21,0.09c-0.29,0.02-0.61,0.01-0.89,0.09c-0.63,0.18-0.69,0.76-0.72,1.32
						c-0.04,0.75-0.02,1.51,0.05,2.26c0.05,0.52,0.15,1.19,0.82,1.21c0.55,0.02,0.96-0.5,1.49-0.49c0.57,0.01,0.98,0.56,0.99,1.09
						c0.01,0.65-0.42,1.25-0.92,1.62c-0.25,0.19-0.53,0.34-0.81,0.47c-0.17,0.08-0.35,0.16-0.53,0.23c-0.08,0.03-0.17,0.07-0.25,0.1
						c-0.2,0.03-0.19,0.14,0.05,0.34c-0.07,0.06-0.15,0.11-0.22,0.17c0.02-0.01,0.04-0.01,0.06-0.02c0.45-0.16,0.26-0.89-0.2-0.72
						c-0.37,0.13-0.51,0.61-0.19,0.89c0.41,0.35,1.08-0.07,1.48-0.25c0.99-0.44,1.95-1.16,2.22-2.26c0.23-0.95-0.2-1.95-1.13-2.3
						c-0.44-0.16-0.86-0.11-1.27,0.08c-0.17,0.08-0.48,0.32-0.67,0.3c-0.2-0.02-0.17-0.71-0.19-0.9c-0.05-0.71-0.09-1.46,0.01-2.16
						c0.05-0.37,0.55-0.29,0.84-0.31c0.4-0.03,0.81-0.06,1.21-0.09C55.33,167.59,55.33,166.84,54.85,166.87L54.85,166.87z"/>
				</g>
			</g>
			<g>
				<g>
					<path d="M56.5,166.33c-0.2,0.65-0.36,1.36-0.04,2c0.26,0.52,0.86,0.87,1.44,0.68c0.56-0.18,0.91-0.74,0.97-1.31
						c0.07-0.62-0.26-1.21-0.6-1.7c-0.21-0.3-0.46-0.72-0.89-0.61c-0.18,0.05-0.31,0.21-0.35,0.38c-0.06,0.26,0.08,0.46,0.32,0.55
						c0.19,0.07,0.41-0.08,0.46-0.26c0.06-0.21-0.07-0.39-0.26-0.46c-0.01,0-0.02-0.01-0.02-0.01c0.06,0.03,0.11,0.06,0.17,0.1
						c0.01,0.04,0.02,0.09,0.03,0.13c0.05,0.07,0.05,0.13,0.01,0.18c-0.01,0.02-0.02,0.03-0.03,0.05c-0.09,0.02-0.18,0.04-0.27,0.06
						c-0.01,0.02-0.01-0.07,0,0.01c0,0.01,0.02,0.02,0.01,0c0.07,0.09,0.13,0.17,0.19,0.26c0.12,0.17,0.23,0.34,0.32,0.53
						c0.08,0.16,0.14,0.33,0.17,0.5c0.01,0.07,0.01,0.16,0.01,0.23c0,0.04,0,0.01,0,0c0,0.02-0.01,0.04-0.01,0.06
						c-0.01,0.05-0.02,0.09-0.04,0.14c-0.04,0.11-0.11,0.24-0.2,0.32c-0.01,0.01-0.09,0.08-0.05,0.05c-0.03,0.02-0.06,0.04-0.1,0.06
						c-0.05,0.03,0.01,0.01-0.05,0.02c-0.02,0-0.04,0.01-0.05,0.01c-0.06,0.02,0.05,0-0.01,0c-0.02,0-0.1,0-0.09,0
						c0.01,0-0.06-0.01-0.09-0.02c-0.04-0.01-0.01,0,0,0c-0.02-0.01-0.04-0.02-0.05-0.03c-0.02-0.01-0.1-0.06-0.07-0.04
						c-0.03-0.02-0.06-0.05-0.09-0.08c-0.01-0.01-0.06-0.08-0.04-0.05c-0.02-0.03-0.05-0.07-0.06-0.11
						c-0.01-0.02-0.02-0.04-0.03-0.06c-0.03-0.06,0.01,0.04-0.01-0.02c-0.17-0.44,0-0.94,0.13-1.38
						C57.36,166.07,56.64,165.87,56.5,166.33L56.5,166.33z"/>
				</g>
			</g>
			<g>
				<g>
					<path d="M57.17,170.42c0.82-0.69,1.9-1.02,2.97-0.96c0.2,0.01,0.38-0.18,0.38-0.38c0-0.21-0.17-0.36-0.38-0.38
						c-1.27-0.08-2.53,0.36-3.5,1.18c-0.16,0.13-0.13,0.4,0,0.53C56.79,170.58,57.01,170.55,57.17,170.42L57.17,170.42z"/>
				</g>
			</g>
			<g>
				<g>
					<path d="M24.73,173.12c-0.93,2.54-1.26,5.3-0.88,7.98c0.28,1.96,1.13,4.04,3.1,4.78c0.45,0.17,0.65-0.55,0.2-0.72
						c-1.89-0.72-2.47-3.02-2.64-4.83c-0.21-2.38,0.12-4.77,0.94-7.01C25.62,172.87,24.89,172.67,24.73,173.12L24.73,173.12z"/>
				</g>
			</g>
			<g>
				<g>
					<path d="M58.59,163.5c0.8,0.53,1.25,1.38,1.65,2.22c0.44,0.92,0.84,1.87,1.12,2.85c0.58,2,0.65,4.19-0.35,6.07
						c-0.23,0.43,0.42,0.81,0.65,0.38c1.09-2.06,1.06-4.45,0.42-6.65c-0.32-1.1-0.77-2.17-1.27-3.19c-0.45-0.91-0.99-1.76-1.85-2.33
						C58.56,162.59,58.19,163.24,58.59,163.5L58.59,163.5z"/>
				</g>
			</g>
		</g>
		<g>
			<g>
				<path d="M61.51,162.67c0.48-0.85,0.95-1.71,1.43-2.56c-0.22,0-0.43,0-0.65,0c0.52,1.04,0.7,2.2,0.55,3.35
					c-0.03,0.2,0.19,0.38,0.38,0.38c0.22,0,0.35-0.17,0.38-0.38c0.16-1.28-0.08-2.58-0.66-3.73c-0.13-0.25-0.52-0.24-0.65,0
					c-0.48,0.85-0.95,1.71-1.43,2.56C60.63,162.71,61.28,163.09,61.51,162.67L61.51,162.67z"/>
			</g>
		</g>
		<g>
			<g>
				<path d="M62.09,164.9c1.28-0.46,2.56-0.92,3.84-1.39c0.19-0.07,0.32-0.26,0.26-0.46c-0.05-0.18-0.27-0.33-0.46-0.26
					c-1.28,0.46-2.56,0.92-3.84,1.39c-0.19,0.07-0.32,0.26-0.26,0.46C61.68,164.82,61.89,164.97,62.09,164.9L62.09,164.9z"/>
			</g>
		</g>
	</g>
	<g>
		<g>
			<g>
				<g>
					<path d="M218.32,105.1c0.79-0.62,1.56-1.32,2.41-1.86c0.39-0.25,0.82-0.34,1.06,0.13c0.2,0.39,0.26,0.86,0.26,1.29
						c0.03,1.81-0.89,3.5-0.98,5.31c-0.02,0.48,0.73,0.48,0.75,0c0.1-2.13,1.39-4.18,0.84-6.34c-0.11-0.43-0.29-0.88-0.66-1.14
						c-0.4-0.29-0.89-0.27-1.33-0.07c-0.5,0.22-0.93,0.63-1.35,0.96c-0.51,0.4-1.02,0.79-1.53,1.19
						C217.41,104.87,217.94,105.4,218.32,105.1L218.32,105.1z"/>
				</g>
			</g>
			<g>
				<g>
					<path d="M218.17,110.79c2.18-0.41,4.38-0.62,6.6-0.64c0.48,0,0.48-0.75,0-0.75c-2.28,0.02-4.56,0.24-6.8,0.66
						C217.5,110.16,217.7,110.88,218.17,110.79L218.17,110.79z"/>
				</g>
			</g>
			<g>
				<g>
					<path d="M231.29,102.03c-1.71,1.61-3.21,3.44-4.42,5.45c-0.26,0.44-0.67,0.96-0.77,1.47c-0.09,0.49,0.32,0.8,0.77,0.8
						c0.55-0.01,1.09-0.27,1.64-0.34c0.59-0.07,1.19-0.07,1.78,0c0.34,0.05,0.68,0.12,1.01,0.22c0.28,0.08,0.56,0.24,0.86,0.25
						c0.54,0.03,0.93-0.51,0.55-0.96c-0.31-0.37-0.84,0.16-0.53,0.53c0.11-0.22,0.08-0.34-0.1-0.35c-0.08-0.03-0.15-0.06-0.23-0.08
						c-0.12-0.04-0.24-0.08-0.36-0.12c-0.28-0.08-0.57-0.15-0.86-0.19c-0.58-0.09-1.16-0.13-1.75-0.09
						c-0.59,0.04-1.15,0.16-1.71,0.31c-0.06,0.02-0.25,0.1-0.31,0.06c-0.06,0.01-0.06,0,0.01-0.01c0.04-0.07,0.08-0.14,0.12-0.22
						c0.14-0.25,0.28-0.5,0.43-0.75c1.2-2.02,2.69-3.84,4.4-5.45C232.17,102.23,231.64,101.7,231.29,102.03L231.29,102.03z"/>
				</g>
			</g>
			<g>
				<g>
					<path d="M235.15,103.46c1.04,0,2.15,0.26,2.96,0.96c0.69,0.6,1.1,1.58,0.8,2.48c-0.29,0.86-1.17,1.29-1.96,1.58
						c-0.89,0.32-1.82,0.55-2.66,1.02c-0.32,0.18-0.18,0.71,0.19,0.7c2.3-0.07,4.61-0.13,6.91-0.2c0.48-0.01,0.48-0.76,0-0.75
						c-2.3,0.07-4.61,0.13-6.91,0.2c0.06,0.23,0.13,0.47,0.19,0.7c1.41-0.79,3.34-0.84,4.45-2.13c1.23-1.44,0.54-3.49-0.92-4.46
						c-0.89-0.59-1.98-0.83-3.03-0.83C234.67,102.71,234.67,103.46,235.15,103.46L235.15,103.46z"/>
				</g>
			</g>
			<g>
				<g>
					<path d="M240.91,103.63c1.1,0.01,3.25,0.02,3.46,1.49c0.11,0.75-0.4,1.46-0.97,1.9c-0.67,0.52-1.49,0.82-2.28,1.12
						c-0.4,0.15-0.33,0.7,0.1,0.74c1.06,0.1,2.12,0.19,3.18,0.29c0.59,0.05,2.19,0.41,2.03-0.66c-0.03-0.2-0.28-0.31-0.46-0.26
						c-0.22,0.06-0.29,0.26-0.26,0.46c-0.05-0.33,0.16-0.19-0.03-0.19c-0.06,0-0.12,0-0.18,0c-0.18-0.01-0.37-0.03-0.55-0.05
						c-0.42-0.04-0.84-0.08-1.26-0.12c-0.82-0.08-1.65-0.15-2.47-0.23c0.03,0.25,0.07,0.49,0.1,0.74c1.4-0.53,3.03-1.15,3.63-2.66
						c0.26-0.65,0.25-1.42-0.16-2.01c-0.36-0.53-0.93-0.86-1.54-1.04c-0.76-0.23-1.57-0.26-2.35-0.27
						C240.43,102.88,240.42,103.63,240.91,103.63L240.91,103.63z"/>
				</g>
			</g>
			<g>
				<g>
					<path d="M251.21,102.67c-0.6-0.12-1.2-0.25-1.8-0.36c-0.44-0.08-0.9-0.07-1.2,0.31c-0.32,0.41-0.47,1.02-0.62,1.51
						c-0.17,0.54-0.36,1.12-0.42,1.68c-0.05,0.4,0.16,0.77,0.56,0.89c0.38,0.11,0.79-0.01,1.18-0.06c0.94-0.12,1.56,0.82,1,1.61
						c-0.34,0.47-0.88,0.74-1.43,0.9c-0.32,0.09-0.64,0.15-0.97,0.19c-0.17,0.02-0.34,0.04-0.52,0.05
						c-0.06,0.01-0.13,0.01-0.19,0.01c-0.04,0-0.08,0.01-0.11,0.01c-0.15-0.01-0.15,0.1-0.01,0.34c-0.09,0.04-0.18,0.07-0.27,0.11
						c0.02,0,0.04,0,0.07,0c0.48-0.03,0.48-0.78,0-0.75c-0.49,0.03-0.71,0.63-0.29,0.93c0.2,0.14,0.45,0.13,0.68,0.11
						c0.33-0.02,0.67-0.06,1-0.11c1.08-0.16,2.29-0.59,2.82-1.62c0.46-0.9,0.08-1.98-0.85-2.4c-0.47-0.21-0.91-0.13-1.4-0.06
						c-0.08,0.01-0.44,0.09-0.51,0.01c-0.1-0.11,0.13-0.75,0.17-0.9c0.09-0.36,0.2-0.71,0.32-1.06c0.06-0.16,0.12-0.33,0.18-0.49
						c0.05-0.12,0.12-0.42,0.25-0.49c0.22-0.13,0.72,0.07,0.95,0.12c0.4,0.08,0.81,0.16,1.21,0.24
						C251.48,103.49,251.69,102.76,251.21,102.67L251.21,102.67z"/>
				</g>
			</g>
			<g>
				<g>
					<path d="M253.1,102.64c-0.35,0.46-0.72,1-0.67,1.6c0.05,0.57,0.42,1.1,1.01,1.21c0.59,0.11,1.16-0.2,1.5-0.68
						c0.38-0.54,0.28-1.26,0.08-1.85c-0.11-0.33-0.23-0.79-0.61-0.9c-0.22-0.06-0.46,0.03-0.58,0.23c-0.14,0.23-0.06,0.48,0.15,0.63
						c0.17,0.11,0.42,0.03,0.51-0.13c0.11-0.19,0.03-0.4-0.13-0.51c-0.01-0.01-0.02-0.01-0.02-0.02c0.04,0.04,0.09,0.09,0.13,0.13
						c0.01,0.02,0.01,0.03,0.02,0.05c0,0.07,0,0.13,0,0.2c-0.01,0.06-0.16,0.14-0.16,0.14c-0.01,0-0.22-0.04-0.22-0.06
						c0.01-0.01-0.01,0,0.01,0.02c0.01,0.01,0.04,0.07,0.01,0.01c0.05,0.1,0.09,0.21,0.13,0.32c0.08,0.21,0.15,0.43,0.18,0.66
						c0.02,0.17,0.01,0.35-0.05,0.53c-0.02,0.06,0.02-0.02-0.02,0.04c-0.02,0.04-0.04,0.07-0.06,0.11
						c-0.01,0.02-0.02,0.03-0.03,0.04c0.01-0.01,0.04-0.04-0.01,0.01c-0.03,0.03-0.06,0.06-0.09,0.09c-0.1,0.09-0.21,0.16-0.35,0.19
						c-0.02,0.01-0.13,0.02-0.06,0.02c-0.04,0-0.08,0.01-0.13,0c-0.02,0-0.04,0-0.05,0c0.01,0,0.05,0.01,0.01,0
						c-0.02-0.01-0.05-0.01-0.07-0.02c-0.01,0-0.07-0.03-0.04-0.01c0.01,0.01-0.06-0.04-0.08-0.05c-0.05-0.03,0.01,0.02-0.03-0.03
						c-0.02-0.02-0.03-0.03-0.05-0.05c0,0-0.04-0.04-0.01-0.01c0.02,0.03-0.01-0.01-0.01-0.02c-0.02-0.02-0.03-0.05-0.04-0.07
						c-0.01-0.02-0.05-0.11-0.03-0.05c-0.01-0.03-0.02-0.06-0.03-0.1c-0.01-0.02-0.01-0.04-0.01-0.07c0-0.01-0.01-0.06,0-0.02
						c0,0.04,0-0.01,0-0.02c0-0.03,0-0.06,0-0.09c0-0.03,0.01-0.12,0-0.05c0.01-0.06,0.02-0.11,0.04-0.17
						c0.03-0.11,0.06-0.17,0.12-0.28c0.12-0.21,0.26-0.41,0.41-0.61c0.12-0.16,0.03-0.42-0.13-0.51
						C253.42,102.39,253.22,102.48,253.1,102.64L253.1,102.64z"/>
				</g>
			</g>
			<g>
				<g>
					<path d="M252.43,106.59c1.11-0.42,2.32-0.46,3.45-0.09c0.46,0.15,0.66-0.58,0.2-0.72c-1.24-0.4-2.63-0.37-3.85,0.09
						c-0.19,0.07-0.32,0.25-0.26,0.46C252.02,106.51,252.24,106.67,252.43,106.59L252.43,106.59z"/>
				</g>
			</g>
			<g>
				<g>
					<path d="M218.46,100.14c-1.66,1.98-2.89,4.34-3.36,6.9c-0.37,1.98-0.11,4.21,1.68,5.42c0.4,0.27,0.78-0.38,0.38-0.65
						c-1.68-1.13-1.63-3.38-1.22-5.14c0.52-2.21,1.59-4.26,3.05-5.99C219.29,100.3,218.77,99.77,218.46,100.14L218.46,100.14z"/>
				</g>
			</g>
			<g>
				<g>
					<path d="M256.12,100.66c0.64,0.68,0.86,1.57,1.02,2.46c0.19,1.05,0.31,2.11,0.27,3.18c-0.07,1.95-0.76,3.81-2.23,5.13
						c-0.36,0.32,0.17,0.85,0.53,0.53c1.61-1.45,2.37-3.52,2.45-5.66c0.04-1.19-0.11-2.38-0.33-3.54c-0.18-0.97-0.49-1.89-1.18-2.63
						C256.32,99.78,255.79,100.31,256.12,100.66L256.12,100.66z"/>
				</g>
			</g>
		</g>
		<g>
			<g>
				<path d="M260.12,98.48c-0.7,0.9-1.23,1.92-1.49,3.04c-0.12,0.51-0.25,1.1-0.06,1.6c0.17,0.46,0.58,0.75,1.05,0.85
					c1.07,0.21,1.95-0.45,2.47-1.33c0.54-0.91,0.94-2.12,0.41-3.13c-0.49-0.94-1.74-1.39-2.7-0.94c-0.44,0.21-0.06,0.86,0.38,0.65
					c0.55-0.26,1.28,0.06,1.6,0.54c0.47,0.7,0.13,1.65-0.23,2.32c-0.34,0.62-0.84,1.22-1.61,1.18c-0.29-0.01-0.6-0.14-0.69-0.44
					c-0.11-0.36,0.03-0.82,0.11-1.18c0.23-0.95,0.67-1.85,1.27-2.63c0.12-0.16,0.16-0.37,0-0.53
					C260.52,98.35,260.25,98.32,260.12,98.48L260.12,98.48z"/>
			</g>
		</g>
	</g>
	<g>
		<g>
			<g>
				<g>
					<path d="M131.79,28.33c0.05-0.5,0.09-0.99,0.14-1.49c0.03-0.34,0-0.81,0.17-1.12c0.29-0.52,1.28,0.53,1.48,0.76
						c0.92,1.07,1.39,2.45,2.33,3.52c0.32,0.36,0.85-0.17,0.53-0.53c-0.82-0.94-1.28-2.14-2.02-3.13c-0.38-0.5-0.82-0.96-1.37-1.27
						c-0.33-0.18-0.72-0.3-1.08-0.17c-0.32,0.12-0.51,0.4-0.62,0.71c-0.13,0.39-0.13,0.84-0.17,1.25c-0.05,0.5-0.09,0.99-0.14,1.49
						c-0.02,0.2,0.19,0.38,0.38,0.38C131.64,28.71,131.78,28.53,131.79,28.33L131.79,28.33z"/>
				</g>
			</g>
			<g>
				<g>
					<path d="M134.95,31.91c0.93-1.34,1.99-2.58,3.17-3.71c0.35-0.33-0.18-0.86-0.53-0.53c-1.22,1.17-2.32,2.47-3.29,3.86
						c-0.12,0.17-0.03,0.42,0.13,0.51C134.62,32.15,134.83,32.07,134.95,31.91L134.95,31.91z"/>
				</g>
			</g>
			<g>
				<g>
					<path d="M136.85,19.96c0,1.32,0.13,2.65,0.37,3.95c0.12,0.63,0.27,1.26,0.44,1.88c0.12,0.43,0.23,1.22,0.77,1.31
						c0.56,0.09,0.78-0.52,1.02-0.89c0.28-0.43,0.63-0.82,1.04-1.13c0.22-0.16,0.45-0.31,0.7-0.43c0.2-0.1,0.43-0.16,0.63-0.27
						c0.42-0.24,0.46-0.93-0.08-1.05c-0.47-0.1-0.67,0.62-0.2,0.72c0.03-0.27-0.01-0.37-0.13-0.31c-0.04,0.02-0.09,0.04-0.13,0.05
						c-0.09,0.04-0.19,0.08-0.28,0.12c-0.17,0.08-0.34,0.16-0.5,0.26c-0.33,0.2-0.65,0.44-0.93,0.71c-0.28,0.27-0.53,0.58-0.74,0.9
						c-0.09,0.15-0.22,0.32-0.28,0.48c-0.09,0.08-0.09,0.1,0,0.08c0.09,0.01,0.09-0.04,0.02-0.13c-0.01-0.11-0.08-0.26-0.11-0.37
						c-0.57-1.91-0.85-3.89-0.86-5.88C137.6,19.47,136.85,19.47,136.85,19.96L136.85,19.96z"/>
				</g>
			</g>
			<g>
				<g>
					<path d="M139.87,18.88c1.05-0.97,2.94-1.34,3.79,0.1c0.37,0.62,0.21,1.31-0.06,1.93c-0.3,0.68-0.69,1.31-0.88,2.03
						c-0.1,0.36,0.36,0.63,0.63,0.36c1.2-1.21,2.4-2.41,3.6-3.62c0.34-0.34-0.19-0.87-0.53-0.53c-1.2,1.21-2.4,2.41-3.6,3.62
						c0.21,0.12,0.42,0.24,0.63,0.36c0.23-0.88,0.78-1.62,1.05-2.48c0.26-0.83,0.14-1.7-0.42-2.38c-1.26-1.53-3.43-1.14-4.74,0.07
						C138.99,18.68,139.52,19.21,139.87,18.88L139.87,18.88z"/>
				</g>
			</g>
			<g>
				<g>
					<path d="M143.06,16.07c0.69-0.64,1.95-1.65,2.77-0.63c0.76,0.94,0.22,2.24-0.2,3.2c-0.07,0.16-0.07,0.33,0.06,0.45
						c0.11,0.11,0.32,0.16,0.45,0.06c0.65-0.49,1.29-0.99,1.94-1.48c0.39-0.3,1.42-0.92,0.8-1.5c-0.35-0.33-0.88,0.2-0.53,0.53
						c0-0.17-0.03-0.21-0.09-0.11c-0.05,0.05-0.11,0.09-0.16,0.13c-0.12,0.09-0.24,0.18-0.36,0.28c-0.21,0.16-0.42,0.32-0.63,0.48
						c-0.45,0.34-0.9,0.69-1.35,1.03c0.17,0.17,0.34,0.34,0.51,0.51c0.57-1.31,1.15-2.96,0.03-4.17c-0.47-0.51-1.16-0.69-1.82-0.54
						c-0.76,0.17-1.4,0.72-1.96,1.23C142.18,15.87,142.71,16.39,143.06,16.07L143.06,16.07z"/>
				</g>
			</g>
			<g>
				<g>
					<path d="M147.96,10.18c-0.28,0.16-0.55,0.33-0.83,0.49c-0.2,0.12-0.44,0.23-0.61,0.4c-0.44,0.42-0.19,0.93,0.02,1.4
						c0.25,0.54,0.53,1.07,0.86,1.57c0.24,0.37,0.61,0.7,1.07,0.46c0.36-0.19,0.47-0.63,0.8-0.83c0.34-0.21,0.8-0.01,1,0.3
						c0.26,0.41,0.19,0.96,0,1.38c-0.1,0.22-0.24,0.44-0.38,0.63c-0.09,0.12-0.18,0.23-0.28,0.34c-0.05,0.05-0.09,0.11-0.14,0.16
						c-0.16,0.13-0.09,0.24,0.23,0.33c-0.04,0.09-0.07,0.18-0.11,0.27c0.01-0.01,0.02-0.02,0.03-0.04c0.33-0.35-0.2-0.88-0.53-0.53
						c-0.25,0.27-0.14,0.74,0.24,0.82c0.46,0.1,0.81-0.46,1.05-0.77c0.55-0.7,0.96-1.54,0.75-2.45c-0.18-0.79-0.91-1.36-1.72-1.26
						c-0.38,0.05-0.67,0.24-0.91,0.54c-0.1,0.13-0.2,0.31-0.34,0.41c-0.02,0.01-0.06,0.02-0.02,0.03c0.05,0-0.02-0.05-0.03-0.07
						c-0.05-0.14-0.18-0.28-0.25-0.4c-0.3-0.49-0.58-1.01-0.79-1.54c-0.06-0.17-0.05-0.2,0.09-0.29c0.11-0.07,0.23-0.14,0.35-0.21
						c0.28-0.16,0.55-0.33,0.83-0.49C148.76,10.58,148.38,9.93,147.96,10.18L147.96,10.18z"/>
				</g>
			</g>
			<g>
				<g>
					<path d="M148.92,9.31c0.09,0.51,0.21,1.05,0.63,1.39c0.22,0.17,0.48,0.29,0.77,0.29c0.25,0,0.51-0.11,0.69-0.29
						c0.31-0.32,0.39-0.84,0.25-1.25c-0.16-0.48-0.56-0.81-0.99-1.05c-0.26-0.15-0.57-0.36-0.87-0.26
						c-0.23,0.08-0.36,0.32-0.31,0.56c0.04,0.19,0.23,0.37,0.44,0.35c0.19-0.02,0.38-0.16,0.38-0.38c-0.01-0.18-0.17-0.4-0.38-0.38
						c0.07-0.01,0.31,0.14,0.3,0.28c-0.03,0.04-0.07,0.09-0.1,0.13c-0.03,0.12-0.1,0.16-0.21,0.13c0,0,0.06,0.02,0.02,0
						c-0.04-0.01,0.02,0.01,0.03,0.02c0.08,0.04,0.15,0.08,0.23,0.12c0.14,0.08,0.28,0.16,0.41,0.25c0.05,0.03-0.04-0.04,0,0
						c0.02,0.01,0.03,0.03,0.05,0.04c0.03,0.02,0.05,0.05,0.08,0.07c0.03,0.03,0.05,0.05,0.08,0.08c0.01,0.01,0.05,0.06,0.02,0.02
						c-0.03-0.04,0.02,0.03,0.03,0.04c0.02,0.03,0.04,0.06,0.06,0.09c0.01,0.01,0.01,0.03,0.02,0.04c0.02,0.04-0.02-0.03-0.01-0.03
						c0.01,0.01,0.06,0.19,0.05,0.2c0,0-0.01-0.08,0-0.02c0,0.02,0,0.03,0,0.05c0,0.03,0,0.06,0,0.09c0,0.02,0,0.03,0,0.05
						c0,0.04,0-0.04,0.01-0.04c0,0-0.02,0.1-0.02,0.11c0,0.02-0.01,0.03-0.02,0.05c-0.01,0.04,0.01-0.03,0.02-0.03
						c0,0-0.04,0.08-0.04,0.09c-0.01,0.01-0.02,0.02-0.02,0.03c-0.02,0.04,0.05-0.05,0.02-0.02c-0.01,0.01-0.08,0.07-0.08,0.07
						c0-0.01,0.06-0.04,0.03-0.02c-0.01,0.01-0.03,0.02-0.04,0.02c0,0-0.03,0.02-0.03,0.02c-0.01-0.01,0.08-0.02,0.02-0.01
						c-0.02,0-0.04,0.01-0.06,0.01c0.01,0,0.08,0,0.01,0c-0.03,0-0.13-0.01-0.05,0.01c-0.03-0.01-0.07-0.01-0.1-0.02
						c-0.01,0-0.07-0.02-0.03-0.01c0.05,0.02-0.01-0.01-0.02-0.01c-0.03-0.02-0.06-0.04-0.09-0.05c-0.01-0.01-0.05-0.04,0,0
						c-0.02-0.01-0.03-0.03-0.05-0.04c-0.02-0.01-0.03-0.03-0.04-0.04c0,0-0.06-0.07-0.03-0.03c0.03,0.04-0.01-0.02-0.02-0.03
						c-0.02-0.02-0.03-0.05-0.05-0.07c-0.02-0.04-0.04-0.08-0.06-0.12c0.03,0.06,0,0,0-0.01c-0.01-0.03-0.02-0.06-0.03-0.08
						c-0.07-0.2-0.1-0.4-0.14-0.61c-0.03-0.19-0.28-0.32-0.46-0.26C148.97,8.91,148.88,9.1,148.92,9.31L148.92,9.31z"/>
				</g>
			</g>
			<g>
				<g>
					<path d="M150.96,12.02c0.09-0.2,0.19-0.4,0.32-0.59c0.03-0.05,0.07-0.1,0.1-0.14c0.06-0.08-0.05,0.06,0.01-0.02
						c0.02-0.02,0.04-0.05,0.06-0.07c0.07-0.09,0.15-0.17,0.23-0.25c0.08-0.08,0.16-0.15,0.25-0.23c0.02-0.02,0.05-0.04,0.07-0.05
						c0.06-0.05-0.05,0.04,0.02-0.01c0.04-0.03,0.09-0.06,0.13-0.09c0.19-0.13,0.39-0.24,0.6-0.33c0.18-0.08,0.23-0.36,0.13-0.51
						c-0.12-0.19-0.32-0.22-0.51-0.13c-0.9,0.39-1.66,1.14-2.04,2.04c-0.08,0.18-0.06,0.41,0.13,0.51
						C150.61,12.24,150.88,12.21,150.96,12.02L150.96,12.02z"/>
				</g>
			</g>
			<g>
				<g>
					<path d="M128.87,25.3c0.23,2,0.88,3.93,1.95,5.63c0.9,1.43,2.34,2.94,4.18,2.74c0.47-0.05,0.48-0.8,0-0.75
						c-1.68,0.18-2.9-1.32-3.68-2.61c-0.92-1.53-1.5-3.25-1.7-5.01C129.56,24.83,128.81,24.82,128.87,25.3L128.87,25.3z"/>
				</g>
			</g>
			<g>
				<g>
					<path d="M149.48,6.61c0.8,0.1,1.48,0.63,2.09,1.12c0.62,0.49,1.21,1.02,1.74,1.61c1.04,1.17,1.79,2.63,1.75,4.23
						c-0.01,0.48,0.74,0.48,0.75,0c0.04-1.8-0.8-3.45-1.97-4.76c-0.6-0.67-1.28-1.26-1.99-1.8c-0.72-0.55-1.45-1.03-2.37-1.14
						C149,5.8,149.01,6.55,149.48,6.61L149.48,6.61z"/>
				</g>
			</g>
		</g>
		<g>
			<g>
				<path d="M150.86,4.31c0.14-0.45,0.3-1.05,0.79-1.24c0.49-0.19,0.99,0.14,1.24,0.55c0.23,0.37,0.34,0.82,0.28,1.26
					c-0.09,0.6-0.4,1.15-0.55,1.73c-0.09,0.33,0.38,0.68,0.63,0.36c0.73-0.94,1.45-1.88,2.18-2.82c0.12-0.16,0.16-0.37,0-0.53
					c-0.13-0.13-0.41-0.16-0.53,0c-0.73,0.94-1.45,1.88-2.18,2.82c0.21,0.12,0.42,0.24,0.63,0.36c0.18-0.72,0.58-1.37,0.6-2.13
					c0.01-0.64-0.23-1.29-0.65-1.77c-0.48-0.55-1.26-0.8-1.95-0.52c-0.71,0.3-0.99,1.04-1.2,1.72
					C149.99,4.57,150.71,4.77,150.86,4.31L150.86,4.31z"/>
			</g>
		</g>
	</g>
</g>
<g>
	<g>
		<path d="M131.13,38.2c-0.33-0.06-0.59-0.18-0.82-0.42c0.04,0.16,0.09,0.32,0.13,0.49c0.05-0.14,0.17-0.24,0.31-0.28
			c-0.09,0-0.18,0-0.27,0c0.29,0.05,0.33,0.48,0.37,0.71c0.06,0.38,0.04,0.8-0.1,1.16c-0.19,0.52-0.87,1.01-1.42,0.67
			c-0.45-0.28-0.2-0.96,0.18-1.19c0.57-0.35,1.22,0.28,1.35,0.82c0.18,0.78-0.51,1.5-1.2,1.73c0.19,0.08,0.38,0.15,0.56,0.23
			c-0.63-0.9-0.44-1.97,0.03-2.9c0.26-0.52,0.58-1.01,0.95-1.46c0.14-0.18,0.74-1.03,1.01-0.89c0.14,0.07,0.18,0.36,0.2,0.49
			c0.03,0.26,0,0.54-0.03,0.8c-0.09,0.62-0.31,1.22-0.63,1.76c-0.14,0.23-0.66,1.13-0.98,0.84c-0.19-0.17-0.29-0.47-0.38-0.69
			c-0.13-0.3-0.22-0.62-0.28-0.95c-0.2-1.11,0.35-2.61,1.68-2.59c-0.17-0.17-0.33-0.33-0.5-0.5c-0.08,1.31-0.57,2.58-1.4,3.6
			c0.26,0.03,0.52,0.07,0.79,0.1c-0.15-0.23-0.59-0.85-0.26-1.1c0.14-0.11,0.43-0.04,0.61,0.05c0.87,0.43,0.29,1.78,0.04,2.42
			c0.21-0.12,0.41-0.23,0.62-0.35c-0.52-0.08-1.24-0.26-1.49-0.79c-0.1-0.22-0.02-0.9,0.34-0.85c0.27,0.04,0.54-0.07,0.62-0.35
			c0.06-0.24-0.08-0.58-0.35-0.62c-1.03-0.15-1.78,0.8-1.64,1.79c0.15,1.08,1.3,1.63,2.26,1.78c0.29,0.05,0.51-0.07,0.62-0.35
			c0.29-0.75,0.56-1.57,0.38-2.38c-0.15-0.65-0.62-1.14-1.25-1.33c-0.55-0.17-1.19-0.06-1.56,0.41c-0.54,0.68-0.17,1.53,0.23,2.17
			c0.16,0.25,0.57,0.36,0.79,0.1c1.01-1.23,1.6-2.71,1.69-4.31c0.02-0.27-0.24-0.5-0.5-0.5c-1.7-0.02-2.8,1.66-2.72,3.24
			c0.04,0.82,0.3,1.71,0.75,2.39c0.23,0.35,0.55,0.63,0.97,0.67c0.43,0.04,0.81-0.18,1.12-0.47c0.61-0.58,1.03-1.41,1.28-2.21
			c0.22-0.7,0.37-1.57,0.14-2.29c-0.25-0.78-1.01-1.26-1.79-0.81c-0.32,0.18-0.58,0.48-0.82,0.75c-0.29,0.33-0.57,0.69-0.82,1.06
			c-0.93,1.38-1.6,3.28-0.54,4.77c0.12,0.17,0.34,0.3,0.56,0.23c1.24-0.42,2.31-1.73,1.86-3.09c-0.42-1.26-2-2.06-3.09-1.05
			c-0.9,0.83-0.78,2.41,0.46,2.83c0.58,0.19,1.28,0.05,1.76-0.31c0.58-0.43,0.87-1.11,0.94-1.81c0.07-0.69-0.03-1.59-0.55-2.11
			c-0.69-0.69-1.56-0.05-1.84,0.69c-0.06,0.16,0.01,0.37,0.13,0.49c0.34,0.35,0.78,0.59,1.26,0.68c0.27,0.05,0.54-0.07,0.62-0.35
			C131.54,38.57,131.4,38.25,131.13,38.2L131.13,38.2z"/>
	</g>
</g>
<g>
	<g>
		<path d="M212.38,114.05c0.01-0.01,0.01-0.03,0.02-0.04c0.03-0.04,0.03-0.05,0-0.01c-0.01,0.01-0.01,0.01-0.02,0.02
			c0.04-0.04,0.03-0.03-0.02,0.01c-0.09,0.05-0.06,0.02-0.02,0.01c0.11-0.03-0.08,0.02-0.01,0c0.04-0.01,0.11,0.03,0,0
			c0.02,0.01,0.05,0.01,0.08,0.02c0.12,0.03-0.05-0.03,0.02,0c0.04,0.02,0.09,0.05,0.13,0.08c-0.08-0.05,0.04,0.04,0.07,0.07
			c0.1,0.09-0.02-0.04,0.02,0.02c0.02,0.03,0.04,0.06,0.06,0.09c-0.06-0.11,0.03,0.13,0.01,0.06c-0.01-0.08,0,0.05,0,0.06
			c0,0.04,0,0.08,0,0.12c0,0.09,0,0,0-0.02c-0.01,0.04-0.02,0.07-0.03,0.11c-0.01,0.02-0.02,0.05-0.02,0.07
			c0.03-0.1,0.02-0.04,0.01-0.02c-0.03,0.06-0.06,0.11-0.09,0.16c-0.04,0.07,0,0.01,0.01-0.01c-0.02,0.03-0.05,0.06-0.08,0.09
			c-0.05,0.05-0.09,0.09-0.14,0.13c0.09-0.08-0.06,0.04-0.09,0.06c-0.05,0.03-0.09,0.05-0.14,0.08c0,0-0.12,0.06-0.05,0.03
			c0.06-0.03-0.08,0.03-0.09,0.03c-0.05,0.02-0.1,0.03-0.16,0.05c-0.03,0.01-0.23,0.04-0.11,0.03c-0.14,0.02-0.27,0.01-0.4,0
			c0.13,0.01-0.07-0.02-0.1-0.02c-0.05-0.01-0.1-0.03-0.15-0.05c0.12,0.04-0.06-0.04-0.09-0.05c-0.02-0.01-0.04-0.03-0.07-0.04
			c0.1,0.06-0.02-0.02-0.04-0.04c-0.02-0.02-0.13-0.15-0.07-0.07c-0.05-0.06-0.08-0.13-0.12-0.2c-0.01-0.02-0.04-0.09-0.01,0
			c-0.01-0.03-0.02-0.06-0.03-0.08c-0.01-0.04-0.03-0.09-0.04-0.13c-0.01-0.02-0.02-0.15-0.01-0.04c-0.01-0.07-0.01-0.13-0.01-0.2
			c0-0.03,0.02-0.22,0-0.11c0.02-0.15,0.06-0.3,0.12-0.44c-0.03,0.08,0-0.01,0.01-0.03c0.02-0.04,0.04-0.08,0.06-0.12
			c0.04-0.08,0.09-0.15,0.14-0.22c0.05-0.08,0.02-0.03,0.01-0.01c0.03-0.04,0.07-0.08,0.11-0.12c0.06-0.06,0.12-0.12,0.19-0.18
			c0.01-0.01,0.08-0.05,0.01-0.01c0.04-0.03,0.08-0.05,0.12-0.08c0.03-0.02,0.07-0.04,0.1-0.06c0.02-0.01,0.16-0.07,0.07-0.04
			c0.07-0.03,0.15-0.05,0.22-0.07c0.04-0.01,0.08-0.02,0.11-0.02c0.04-0.01,0.03-0.01-0.02,0c0.03,0,0.06-0.01,0.09-0.01
			c-0.12-0.05-0.24-0.1-0.35-0.15c0.09,0.11-0.03-0.04,0.02,0.02c0.02,0.03,0.04,0.06,0.06,0.09c0.02,0.03,0.03,0.06,0.05,0.1
			c0.03,0.05-0.02-0.07,0.01,0.02c0.02,0.07,0.04,0.14,0.05,0.21c-0.02-0.11,0,0.08,0,0.12c0,0.04-0.02,0.23,0,0.12
			c-0.01,0.07-0.03,0.14-0.05,0.21c-0.01,0.04-0.02,0.07-0.03,0.11c-0.01,0.02-0.05,0.11-0.01,0.02c-0.03,0.07-0.06,0.13-0.1,0.2
			c-0.04,0.06-0.08,0.13-0.12,0.19c0.03-0.04,0.02-0.03,0,0c-0.03,0.03-0.06,0.07-0.09,0.1c-0.05,0.05-0.1,0.1-0.16,0.15
			c0.07-0.06-0.06,0.04-0.09,0.06c-0.03,0.02-0.06,0.03-0.09,0.05c-0.11,0.07,0.05-0.02-0.02,0.01c-0.07,0.02-0.13,0.04-0.2,0.06
			c-0.05,0.01-0.08,0.01-0.01,0c-0.04,0-0.07,0-0.11,0c-0.04,0-0.07,0-0.11,0c0.09,0-0.01,0-0.04-0.01c0.1,0.08,0.2,0.15,0.3,0.23
			c-0.03-0.07,0,0-0.03-0.07c-0.02-0.06-0.04-0.12-0.05-0.18c-0.01-0.03-0.03-0.13-0.03-0.11c0.01,0.05,0-0.04,0-0.04
			c0-0.03-0.01-0.07-0.01-0.11c-0.01-0.25,0-0.35,0.08-0.59c0.01-0.02,0.05-0.13,0.02-0.08c0.02-0.06,0.05-0.11,0.08-0.16
			c0.03-0.04,0.05-0.09,0.08-0.13c0.03-0.05,0.01-0.01,0,0c0.02-0.03,0.04-0.05,0.07-0.08c0.08-0.09,0.12-0.13,0.19-0.17
			c0.04-0.03,0.09-0.05,0.13-0.08c0.02-0.01,0.04-0.02,0.07-0.03c-0.05,0.02-0.01,0.01,0.02,0c0.05-0.01,0.09-0.03,0.14-0.04
			c0.03-0.01,0.06-0.01,0.1-0.02c-0.01,0-0.07,0.01-0.01,0c0.11-0.01,0.21-0.01,0.32,0c-0.09-0.01,0.06,0.01,0.08,0.02
			c0.05,0.01,0.09,0.02,0.14,0.04c0.02,0.01,0.13,0.05,0.1,0.04c-0.02-0.01,0.09,0.05,0.11,0.06c0.12,0.07,0.09,0.05,0.19,0.14
			c0.03,0.03,0.07,0.07,0.1,0.1c0.04,0.04,0,0-0.01-0.01c0.02,0.03,0.04,0.05,0.05,0.08c0.02,0.03,0.07,0.13,0.06,0.11
			c-0.01-0.03,0.02,0.08,0.03,0.1c0.01,0.02,0.01,0.05,0.02,0.08c0-0.01-0.01-0.06,0-0.01c0,0.06,0,0.12,0,0.18
			c0.01-0.08-0.02,0.07-0.02,0.09c-0.01,0.03-0.04,0.12-0.04,0.11c0.01-0.01-0.04,0.08-0.06,0.1c-0.01,0.02-0.09,0.14-0.05,0.09
			c-0.05,0.07-0.17,0.18-0.21,0.21c0.01-0.01-0.07,0.05-0.1,0.06c-0.02,0.01-0.04,0.03-0.07,0.04c-0.02,0.01-0.03,0.01-0.05,0.02
			c0.03-0.01,0.04-0.02,0,0c-0.05,0.02-0.1,0.03-0.14,0.04c-0.06,0.01,0,0,0.01,0c-0.02,0-0.05,0-0.07,0c-0.03,0-0.14-0.01-0.11,0
			c0.03,0-0.13-0.04-0.13-0.04c-0.17-0.07-0.32-0.23-0.41-0.4c-0.04-0.08-0.05-0.11-0.08-0.23c-0.01-0.02-0.01-0.05-0.01-0.07
			c0,0.01,0.01,0.07,0,0.01c0-0.07,0-0.13,0-0.2c0-0.06,0,0,0,0.01c0-0.02,0.01-0.05,0.01-0.07c0.01-0.05,0.02-0.1,0.04-0.14
			c0.01-0.02,0.02-0.05,0.02-0.07c0,0.01-0.03,0.06,0,0c0.03-0.06,0.06-0.12,0.1-0.18c0.08-0.14,0.24-0.31,0.34-0.38
			c0.2-0.15,0.29-0.19,0.52-0.24c0.02-0.01,0.05-0.01,0.07-0.01c-0.01,0-0.07,0.01-0.01,0c0.05,0,0.1,0,0.15,0
			c0.02,0,0.05,0,0.08,0.01c-0.08-0.01,0.01,0,0.02,0.01c0.05,0.02,0.11,0.03,0.16,0.05c0.05,0.02-0.01,0-0.01-0.01
			c0.02,0.01,0.04,0.02,0.06,0.03c0.04,0.02,0.08,0.04,0.12,0.07c0.02,0.02,0.13,0.1,0.06,0.04c0.04,0.03,0.08,0.07,0.11,0.11
			c0.03,0.03,0.06,0.07,0.09,0.1c0.04,0.04,0-0.01-0.01-0.01c0.01,0.02,0.03,0.04,0.04,0.06c0.06,0.09,0.11,0.18,0.15,0.28
			c0.02,0.05,0-0.01-0.01-0.01c0.01,0.02,0.02,0.04,0.02,0.06c0.01,0.04,0.03,0.09,0.04,0.13c0.01,0.05,0.02,0.1,0.04,0.16
			c0,0.01,0.02,0.08,0.01,0.02c-0.01-0.06,0,0.04,0,0.05c0.01,0.1,0.01,0.2,0,0.3c0,0.03-0.02,0.14,0,0.05
			c-0.01,0.05-0.02,0.1-0.03,0.16c-0.01,0.04-0.03,0.09-0.04,0.13c-0.01,0.02-0.01,0.04-0.02,0.06c0.03-0.08,0-0.01,0,0
			c-0.02,0.04-0.04,0.08-0.07,0.12c-0.02,0.03-0.09,0.12-0.07,0.1c0.02-0.03-0.05,0.06-0.07,0.07c-0.04,0.04-0.08,0.08-0.12,0.11
			c0.06-0.05-0.03,0.02-0.05,0.03c-0.05,0.03-0.1,0.06-0.14,0.08c-0.02,0.01-0.04,0.02-0.06,0.03c0.01,0,0.06-0.02,0.01-0.01
			c-0.05,0.02-0.1,0.04-0.16,0.05c-0.05,0.01-0.09,0.02-0.14,0.03c-0.02,0-0.05,0.01-0.07,0.01c-0.08,0.01,0.07,0-0.01,0
			c-0.11,0.01-0.21,0.01-0.31,0c-0.03,0-0.14-0.01-0.06,0c-0.06-0.01-0.11-0.02-0.17-0.03c-0.1-0.02-0.2-0.05-0.3-0.09
			c0.07,0.03-0.04-0.02-0.06-0.03c-0.05-0.03-0.1-0.05-0.15-0.08c-0.05-0.03-0.1-0.06-0.14-0.09c0.06,0.04-0.03-0.03-0.05-0.04
			c-0.04-0.03-0.07-0.07-0.1-0.1c-0.02-0.02-0.03-0.04-0.05-0.05c-0.05-0.06,0.04,0.05-0.01-0.01c-0.15-0.2-0.18-0.28-0.23-0.52
			c-0.01-0.02-0.03-0.17-0.02-0.09c-0.01-0.05-0.01-0.1-0.01-0.15c0-0.11,0-0.22,0.01-0.33c0.01-0.08-0.01,0.07,0-0.02
			c0-0.02,0.01-0.05,0.01-0.07c0.01-0.05,0.02-0.1,0.04-0.15c0.01-0.05,0.03-0.1,0.05-0.15c0.01-0.02,0.02-0.05,0.03-0.07
			c0.03-0.09-0.05,0.1,0.02-0.04c0.04-0.09,0.09-0.18,0.15-0.27c0.03-0.04,0.06-0.09,0.09-0.13c-0.04,0.05,0.07-0.08,0.08-0.09
			c0.17-0.18,0.24-0.24,0.46-0.35c0.2-0.1,0.43-0.15,0.65-0.14c0.11,0,0.18,0.02,0.3,0.06c0.02,0.01,0.08,0.04,0.11,0.05
			c0.03,0.02,0.06,0.03,0.08,0.05c-0.04-0.03-0.01-0.01,0.01,0.01c0.04,0.03,0.07,0.07,0.1,0.1c0.06,0.06-0.01-0.02,0.04,0.05
			c0.02,0.04,0.05,0.08,0.07,0.12c0.05,0.08,0.02,0.03,0.01,0.01c0.01,0.03,0.02,0.06,0.03,0.09c0.01,0.05,0.03,0.09,0.04,0.14
			c0.01,0.03,0.02,0.14,0.01,0.06c0.01,0.11,0.01,0.23,0.01,0.35c0,0.02-0.02,0.14-0.01,0.07c-0.01,0.05-0.02,0.1-0.03,0.15
			c-0.01,0.06-0.03,0.11-0.05,0.17c-0.01,0.02-0.06,0.16-0.03,0.09c-0.1,0.22-0.2,0.36-0.36,0.52c-0.35,0.35-0.8,0.6-1.26,0.78
			c-0.25,0.11-0.51,0.2-0.77,0.29c0.21,0.12,0.41,0.23,0.62,0.35c-0.09-0.39-0.06-0.81,0.13-1.23c0.15-0.34,0.44-0.68,0.78-0.89
			c-0.17,0-0.34,0-0.5,0c0.08,0.03,0.15,0.08,0.22,0.12c-0.07-0.05,0,0,0.03,0.03c0.04,0.04,0.08,0.08,0.11,0.12
			c-0.06-0.06,0,0,0.02,0.03c0.02,0.03,0.04,0.07,0.06,0.11c0.02,0.03,0.05,0.11,0.02,0.03c0.02,0.05,0.03,0.09,0.05,0.14
			c0.01,0.04,0.02,0.08,0.03,0.12c0,0.02,0.02,0.14,0.02,0.08c-0.01-0.06,0,0.06,0,0.08c0,0.05,0,0.1,0,0.15
			c0,0.02-0.01,0.16-0.01,0.1c0.01-0.06-0.01,0.06-0.02,0.08c-0.01,0.04-0.02,0.08-0.03,0.12c-0.01,0.03-0.05,0.15-0.01,0.06
			c-0.03,0.08-0.08,0.14-0.12,0.22c-0.05,0.08,0.04-0.04-0.02,0.03c-0.03,0.03-0.07,0.07-0.1,0.1c-0.08,0.08,0.02,0-0.05,0.03
			c-0.04,0.02-0.07,0.04-0.11,0.06c-0.07,0.03,0.03,0-0.05,0.02c-0.02,0-0.05,0.01-0.07,0.02c-0.01,0-0.1,0.02-0.05,0.01
			c0.05-0.01-0.07,0-0.09,0c-0.02,0-0.14-0.01-0.09,0c0.05,0.01-0.07-0.02-0.09-0.02c-0.05-0.01-0.11-0.03-0.16-0.05
			c0.08,0.03-0.05-0.03-0.07-0.04c-0.04-0.02-0.08-0.05-0.12-0.08c-0.02-0.01-0.04-0.03-0.06-0.04c0.01,0.01,0.05,0.04,0.01,0
			c-0.04-0.04-0.08-0.07-0.12-0.12c-0.02-0.02-0.1-0.11-0.09-0.09c0.01,0.02-0.05-0.08-0.07-0.11c-0.03-0.05-0.05-0.1-0.08-0.15
			c-0.03-0.05,0,0,0,0.01c-0.01-0.03-0.02-0.06-0.03-0.09c-0.02-0.06-0.03-0.12-0.04-0.18c0.01,0.09,0-0.04,0-0.07
			c0-0.02,0-0.05,0-0.07c0,0.05-0.01,0.04,0,0c0.01-0.03,0.05-0.18,0.02-0.11c0.11-0.25,0.07-0.54-0.18-0.68
			c-0.25-0.14-0.53-0.05-0.68,0.18c-0.7,1.03,0.4,2.38,1.51,2.39c0.59,0.01,1.16-0.42,1.28-1.01c0.12-0.57-0.12-1.15-0.53-1.55
			c-0.47-0.47-1.19-0.66-1.78-0.3c-0.55,0.33-0.05,1.2,0.5,0.86c0.02-0.02,0.05-0.03,0.07-0.04c-0.06,0.02-0.06,0.02-0.01,0
			c0.04-0.01,0.18-0.02,0.06-0.02c0.03,0,0.19,0.02,0.06-0.01c0.05,0.01,0.1,0.03,0.15,0.04c0.05,0.02,0.05,0.02-0.01-0.01
			c0.02,0.01,0.05,0.02,0.07,0.04c0.05,0.03,0.09,0.06,0.13,0.09c-0.1-0.07,0.04,0.04,0.05,0.05c0.04,0.04,0.08,0.08,0.11,0.12
			c-0.07-0.09,0.03,0.05,0.04,0.07c0.03,0.05,0.05,0.1,0.08,0.14c-0.05-0.11,0.01,0.04,0.02,0.07c0.01,0.03,0.02,0.19,0.02,0.06
			c0,0.05,0,0.1,0,0.15c0-0.13-0.01,0.02-0.02,0.05c-0.02,0.05-0.02,0.05,0.01-0.01c-0.01,0.02-0.02,0.05-0.04,0.07
			c-0.03,0.05-0.03,0.04,0.01,0c-0.02,0.02-0.04,0.04-0.06,0.06c-0.04,0.04-0.04,0.04,0,0c-0.02,0.02-0.04,0.03-0.07,0.04
			c-0.05,0.03-0.05,0.02,0.01,0c-0.02,0.01-0.05,0.02-0.07,0.02c-0.02,0.01-0.05,0.01-0.07,0.02c0.07-0.01,0.08-0.01,0.02-0.01
			c-0.03,0-0.19-0.03-0.06,0c-0.05-0.01-0.1-0.02-0.15-0.04c-0.03-0.01-0.05-0.02-0.07-0.03c0.06,0.02,0.06,0.02,0.01,0
			c-0.05-0.03-0.09-0.06-0.14-0.08c-0.05-0.03-0.05-0.03,0,0.01c-0.02-0.02-0.04-0.03-0.06-0.05c-0.04-0.04-0.08-0.08-0.12-0.12
			c-0.02-0.02-0.04-0.04-0.05-0.06c0.04,0.05,0.04,0.05,0.01,0c-0.03-0.05-0.05-0.09-0.08-0.14c-0.02-0.05-0.02-0.05,0,0.01
			c-0.01-0.02-0.02-0.05-0.02-0.07c-0.01-0.04-0.01-0.18-0.02-0.05c0-0.03,0.02-0.19-0.01-0.06c0.01-0.05,0.02-0.1,0.04-0.15
			c-0.04,0.12,0.03-0.04,0.05-0.06c-0.29-0.17-0.58-0.34-0.86-0.5c-0.37,0.86-0.03,1.75,0.7,2.3c0.68,0.52,1.64,0.55,2.28-0.05
			c0.55-0.51,0.7-1.38,0.5-2.08c-0.1-0.36-0.3-0.71-0.59-0.95c-0.16-0.13-0.36-0.28-0.58-0.31c-0.29-0.04-0.58,0.22-0.78,0.41
			c-0.8,0.72-1.14,1.87-0.9,2.91c0.06,0.25,0.37,0.44,0.62,0.35c1.03-0.37,2.11-0.78,2.78-1.7c0.53-0.73,0.66-1.9,0.11-2.66
			c-0.7-0.97-2.07-0.94-2.97-0.26c-0.75,0.58-1.17,1.56-1.05,2.5c0.12,0.98,0.81,1.76,1.77,2.01c0.93,0.24,1.96-0.02,2.55-0.81
			c0.53-0.71,0.5-1.74,0.09-2.49c-0.45-0.83-1.44-1.31-2.37-0.98c-0.89,0.32-1.65,1.25-1.54,2.24c0.12,1.16,1.3,2,2.41,1.51
			c0.95-0.42,1.44-1.64,0.9-2.56c-0.48-0.81-1.58-1.2-2.47-0.89c-0.97,0.34-1.54,1.39-1.45,2.39c0.02,0.26,0.08,0.51,0.18,0.75
			c0.08,0.19,0.18,0.33,0.39,0.39c0.12,0.03,0.25,0.04,0.37,0.04c0.45,0.01,0.87-0.18,1.22-0.45c0.66-0.53,1.03-1.45,0.85-2.29
			c-0.04-0.2-0.13-0.4-0.24-0.57c-0.08-0.11-0.17-0.25-0.29-0.32c-0.17-0.1-0.37-0.06-0.55-0.04c-0.44,0.07-0.84,0.29-1.17,0.58
			c-0.66,0.58-1.01,1.52-0.83,2.39c0.19,0.88,0.97,1.45,1.84,1.46c0.77,0.01,1.6-0.38,2.01-1.06c0.22-0.36,0.3-0.82,0.19-1.23
			c-0.12-0.46-0.52-0.83-0.97-0.97c-0.44-0.15-0.97,0-1.18,0.44c-0.11,0.24-0.07,0.54,0.18,0.68
			C211.92,114.35,212.27,114.29,212.38,114.05L212.38,114.05z"/>
	</g>
</g>
<g>
	<g>
		<g>
			<path d="M123,46.02c-0.19-2.05-0.28-4.11-0.26-6.17c0.01-1.01,0.05-2.02,0.12-3.02c0.03-0.48,0.07-0.97,0.12-1.45
				c0.02-0.24,0.05-0.48,0.07-0.72c0.03-0.25,0.03-0.32,0.02-0.22c0.14-0.4-0.05-0.26-0.58,0.45c-0.27,0-0.53,0-0.8,0
				c0.04,0.01,0.08,0.01,0.12,0.02c0.8,0.14,1.62-0.21,1.85-1.05c0.2-0.72-0.24-1.71-1.05-1.85c-1.65-0.28-2.37,0.97-2.54,2.41
				c-0.15,1.28-0.24,2.57-0.3,3.86c-0.11,2.58-0.03,5.17,0.21,7.74c0.08,0.81,0.63,1.5,1.5,1.5C122.25,47.52,123.07,46.83,123,46.02
				L123,46.02z"/>
		</g>
	</g>
	<g>
		<g>
			<path d="M120.65,26.38c-0.01,0.04-0.03,0.09-0.05,0.13c0.05-0.12,0.1-0.24,0.15-0.36c-0.06,0.15-0.14,0.28-0.24,0.41
				c0.08-0.1,0.16-0.2,0.23-0.3c-0.1,0.12-0.21,0.24-0.33,0.33c0.1-0.08,0.2-0.16,0.3-0.23c-0.06,0.04-0.12,0.08-0.18,0.12
				c0.73,0.3,1.47,0.6,2.2,0.9c-0.02-0.06-0.04-0.13-0.05-0.19c0.02,0.13,0.04,0.27,0.05,0.4c-0.01-0.08-0.01-0.16,0-0.24
				c-0.02,0.13-0.04,0.27-0.05,0.4c0.01-0.09,0.03-0.17,0.07-0.25c-0.05,0.12-0.1,0.24-0.15,0.36c0.03-0.08,0.08-0.15,0.13-0.22
				c-0.08,0.1-0.16,0.2-0.23,0.3c0.05-0.06,0.11-0.12,0.17-0.17c-0.1,0.08-0.2,0.16-0.3,0.23c0.05-0.04,0.11-0.07,0.17-0.1
				c-0.12,0.05-0.24,0.1-0.36,0.15c0.01,0,0.01-0.01,0.02-0.01c-0.62-0.62-1.23-1.23-1.85-1.85c-0.02,0.04-0.03,0.09-0.05,0.13
				c0.05-0.12,0.1-0.24,0.15-0.36c-0.06,0.13-0.13,0.25-0.21,0.36c0.08-0.1,0.16-0.2,0.23-0.3c-0.09,0.12-0.2,0.22-0.31,0.31
				c0.1-0.08,0.2-0.16,0.3-0.23c-0.07,0.05-0.14,0.1-0.21,0.14c0.73,0.3,1.47,0.6,2.2,0.9c-0.02-0.05-0.03-0.1-0.04-0.15
				c0.02,0.13,0.04,0.27,0.05,0.4c-0.01-0.07-0.01-0.13,0-0.2c-0.02,0.13-0.04,0.27-0.05,0.4c0.01-0.07,0.03-0.13,0.05-0.19
				c-0.05,0.12-0.1,0.24-0.15,0.36c0.02-0.05,0.05-0.1,0.09-0.15c-0.08,0.1-0.16,0.2-0.23,0.3c0.03-0.03,0.06-0.07,0.09-0.09
				c-0.84-0.22-1.67-0.44-2.51-0.66c0.02,0.06,0.04,0.12,0.05,0.18c-0.02-0.13-0.04-0.27-0.05-0.4c0.01,0.07,0.01,0.14,0,0.21
				c0.02-0.13,0.04-0.27,0.05-0.4c-0.01,0.08-0.03,0.16-0.07,0.24c0.05-0.12,0.1-0.24,0.15-0.36c-0.03,0.08-0.08,0.15-0.13,0.21
				c0.08-0.1,0.16-0.2,0.23-0.3c-0.05,0.06-0.1,0.11-0.16,0.16c0.1-0.08,0.2-0.16,0.3-0.23c-0.06,0.04-0.12,0.08-0.18,0.1
				c0.12-0.05,0.24-0.1,0.36-0.15c-0.05,0.02-0.1,0.03-0.15,0.04c0.56,0.23,1.13,0.46,1.69,0.69c-0.02-0.03-0.03-0.05-0.04-0.08
				c0.05,0.12,0.1,0.24,0.15,0.36c-0.02-0.06-0.04-0.11-0.05-0.17c0.02,0.13,0.04,0.27,0.05,0.4c-0.01-0.07-0.01-0.13,0-0.2
				c-0.02,0.13-0.04,0.27-0.05,0.4c0.01-0.08,0.03-0.15,0.06-0.23c-0.05,0.12-0.1,0.24-0.15,0.36c0.04-0.08,0.08-0.15,0.13-0.22
				c-0.08,0.1-0.16,0.2-0.23,0.3c0.05-0.06,0.11-0.12,0.17-0.17c-0.1,0.08-0.2,0.16-0.3,0.23c0.06-0.05,0.13-0.09,0.2-0.12
				c-0.12,0.05-0.24,0.1-0.36,0.15c0.06-0.02,0.12-0.04,0.19-0.05c-0.13,0.02-0.27,0.04-0.4,0.05c0.06-0.01,0.12-0.01,0.18,0
				c-0.13-0.02-0.27-0.04-0.4-0.05c0.02,0,0.04,0.01,0.06,0.01c-0.3-0.23-0.6-0.46-0.9-0.69c0.01,0.02,0.02,0.05,0.03,0.07
				c-0.05-0.12-0.1-0.24-0.15-0.36c0.03,0.07,0.05,0.14,0.06,0.22c-0.02-0.13-0.04-0.27-0.05-0.4c0.01,0.09,0.01,0.17,0,0.26
				c0.02-0.13,0.04-0.27,0.05-0.4c-0.01,0.09-0.04,0.18-0.08,0.27c0.05-0.12,0.1-0.24,0.15-0.36c-0.04,0.09-0.09,0.17-0.14,0.24
				c0.08-0.1,0.16-0.2,0.23-0.3c-0.05,0.07-0.12,0.13-0.19,0.18c0.1-0.08,0.2-0.16,0.3-0.23c-0.06,0.04-0.12,0.08-0.19,0.11
				c0.12-0.05,0.24-0.1,0.36-0.15c-0.05,0.02-0.09,0.03-0.14,0.05c0.49,0.13,0.97,0.26,1.46,0.39c-0.02-0.02-0.04-0.04-0.06-0.06
				c0.08,0.1,0.16,0.2,0.23,0.3c-0.03-0.04-0.06-0.09-0.08-0.13c0.05,0.12,0.1,0.24,0.15,0.36c-0.02-0.05-0.03-0.1-0.04-0.15
				c0.02,0.13,0.04,0.27,0.05,0.4c-0.01-0.06-0.01-0.13,0-0.19c-0.02,0.13-0.04,0.27-0.05,0.4c0.01-0.06,0.02-0.13,0.05-0.19
				c-0.05,0.12-0.1,0.24-0.15,0.36c0.02-0.05,0.05-0.1,0.09-0.15c-0.08,0.1-0.16,0.2-0.23,0.3c0.03-0.04,0.07-0.08,0.11-0.11
				c-0.1,0.08-0.2,0.16-0.3,0.23c0.04-0.03,0.08-0.05,0.12-0.07c-0.5,0-1.01,0-1.51,0c0.02,0.01,0.04,0.03,0.06,0.04
				c-0.1-0.08-0.2-0.16-0.3-0.23c0.05,0.04,0.09,0.08,0.12,0.12c-0.08-0.1-0.16-0.2-0.23-0.3c0.03,0.05,0.06,0.1,0.09,0.15
				c-0.05-0.12-0.1-0.24-0.15-0.36c0.03,0.07,0.05,0.13,0.06,0.2c-0.02-0.13-0.04-0.27-0.05-0.4c0.01,0.06,0.01,0.13,0,0.19
				c0.02-0.13,0.04-0.27,0.05-0.4c-0.01,0.06-0.02,0.12-0.05,0.18c0.05-0.12,0.1-0.24,0.15-0.36c-0.02,0.04-0.03,0.07-0.06,0.1
				c0.93,0.25,1.86,0.5,2.8,0.76c0-0.12,0.02-0.24,0.03-0.36c-0.02,0.13-0.04,0.27-0.05,0.4c0.05-0.33,0.13-0.64,0.26-0.95
				c-0.91,0.12-1.83,0.24-2.74,0.36c0,0.01,0,0.01,0.01,0.02c-0.05-0.12-0.1-0.24-0.15-0.36c0.02,0.06,0.04,0.12,0.05,0.18
				c-0.02-0.13-0.04-0.27-0.05-0.4c0.01,0.05,0.01,0.1,0,0.15c0.02-0.13,0.04-0.27,0.05-0.4c-0.01,0.04-0.01,0.07-0.03,0.1
				c0.05-0.12,0.1-0.24,0.15-0.36c-0.01,0.03-0.03,0.05-0.04,0.07c0.08-0.1,0.16-0.2,0.23-0.3c-0.01,0.02-0.03,0.03-0.05,0.05
				c0.1-0.08,0.2-0.16,0.3-0.23c-0.01,0.01-0.03,0.02-0.04,0.03c0.12-0.05,0.24-0.1,0.36-0.15c-0.02,0.01-0.03,0.01-0.05,0.02
				c0.13-0.02,0.27-0.04,0.4-0.05c-0.01,0-0.02,0-0.03,0c0.13,0.02,0.27,0.04,0.4,0.05c-0.01,0-0.02-0.01-0.03-0.01
				c0.12,0.05,0.24,0.1,0.36,0.15c-0.01-0.01-0.02-0.01-0.03-0.02c0.1,0.08,0.2,0.16,0.3,0.23c-0.01-0.01-0.02-0.02-0.03-0.03
				c0.08,0.1,0.16,0.2,0.23,0.3c-0.01-0.02-0.03-0.04-0.04-0.06c0.05,0.12,0.1,0.24,0.15,0.36c-0.01-0.03-0.02-0.05-0.02-0.08
				c0.02,0.13,0.04,0.27,0.05,0.4c0-0.02,0-0.04,0-0.06c-0.02,0.13-0.04,0.27-0.05,0.4c0-0.01,0.01-0.02,0.01-0.04
				c-0.05,0.12-0.1,0.24-0.15,0.36c0-0.01,0.01-0.01,0.01-0.02c-0.08,0.1-0.16,0.2-0.23,0.3c0.01-0.01,0.01-0.01,0.02-0.02
				c-0.1,0.08-0.2,0.16-0.3,0.23c0,0,0.01-0.01,0.01-0.01c-0.12,0.05-0.24,0.1-0.36,0.15c0.01,0,0.01,0,0.02,0
				c-0.13,0.02-0.27,0.04-0.4,0.05c0.01,0,0.02,0,0.03,0c-0.13-0.02-0.27-0.04-0.4-0.05c0.01,0,0.02,0,0.02,0.01
				c-0.35-0.35-0.7-0.7-1.05-1.05c0.01,0.03,0.02,0.06,0.02,0.09c-0.02-0.13-0.04-0.27-0.05-0.4c0.01,0.05,0.01,0.1,0,0.15
				c0.02-0.13,0.04-0.27,0.05-0.4c-0.01,0.06-0.02,0.11-0.05,0.17c0.05-0.12,0.1-0.24,0.15-0.36c-0.02,0.05-0.05,0.1-0.09,0.15
				c0.08-0.1,0.16-0.2,0.23-0.3c-0.04,0.05-0.08,0.09-0.12,0.12c0.1-0.08,0.2-0.16,0.3-0.23c-0.05,0.04-0.1,0.06-0.15,0.09
				c0.12-0.05,0.24-0.1,0.36-0.15c-0.04,0.02-0.08,0.03-0.13,0.04c0.13-0.02,0.27-0.04,0.4-0.05c-0.05,0.01-0.09,0.01-0.14,0
				c0.13,0.02,0.27,0.04,0.4,0.05c-0.01,0-0.01,0-0.02,0c-0.2-0.06-0.4-0.07-0.6-0.03c-0.2,0.01-0.39,0.07-0.56,0.18
				c-0.17,0.09-0.32,0.22-0.42,0.39c-0.13,0.14-0.22,0.31-0.27,0.51c-0.02,0.13-0.04,0.27-0.05,0.4c0,0.27,0.07,0.52,0.2,0.76
				c0.08,0.1,0.16,0.2,0.23,0.3c0.19,0.19,0.41,0.31,0.66,0.39c0.18,0.03,0.37,0.07,0.55,0.05c0.42-0.05,0.51-0.07,0.9-0.24
				c0.05-0.02,0.1-0.05,0.14-0.08c0.14-0.11,0.31-0.22,0.43-0.36c0.11-0.13,0.23-0.27,0.31-0.43c0.07-0.15,0.17-0.34,0.2-0.51
				c0.04-0.18,0.08-0.37,0.06-0.55c-0.01-0.15-0.03-0.31-0.06-0.46c0-0.02-0.01-0.03-0.01-0.05c0-0.01-0.01-0.02-0.01-0.03
				c-0.05-0.2-0.14-0.37-0.27-0.51c-0.04-0.05-0.08-0.1-0.12-0.15c-0.14-0.15-0.3-0.25-0.48-0.31c-0.12-0.05-0.13-0.06-0.2-0.08
				c-0.06-0.02-0.35-0.05-0.41-0.05c-0.01,0-0.01,0-0.02,0c-0.4-0.01-0.84,0.17-1.11,0.47c-0.05,0.05-0.2,0.25-0.24,0.31
				c0,0,0,0,0,0c-0.06,0.12-0.11,0.24-0.15,0.36c-0.02,0.08-0.02,0.12-0.04,0.24c-0.04,0.27-0.05,0.37,0.03,0.69
				c0.04,0.16,0.1,0.31,0.18,0.45c0,0.01,0.01,0.01,0.01,0.02c0.04,0.06,0.19,0.26,0.24,0.31c0.01,0.01,0.01,0.01,0.01,0.02
				c0.01,0.01,0.01,0.01,0.02,0.01c0.1,0.08,0.2,0.16,0.3,0.23c0.12,0.08,0.26,0.14,0.4,0.17c0.01,0,0.01,0,0.02,0.01
				c0.05,0.02,0.36,0.05,0.41,0.05c0.28,0.01,0.61-0.09,0.85-0.23c0.25-0.15,0.49-0.38,0.64-0.64c0.18-0.33,0.21-0.52,0.25-0.89
				c0.04-0.4-0.1-0.75-0.26-1.11c-0.08-0.1-0.16-0.2-0.23-0.3c-0.1-0.08-0.2-0.16-0.3-0.23c-0.12-0.05-0.24-0.1-0.36-0.15
				c-0.2-0.06-0.4-0.07-0.6-0.03c-0.14,0-0.26,0.03-0.38,0.1c-0.13,0.04-0.24,0.1-0.33,0.19c-0.11,0.07-0.2,0.16-0.27,0.27
				c-0.13,0.14-0.22,0.31-0.27,0.51c-0.09,0.21-0.16,0.43-0.21,0.66c-0.08,0.34-0.12,0.7-0.14,1.05c0.02,0.13,0.04,0.27,0.05,0.4
				c0.05,0.2,0.14,0.37,0.27,0.51c0.07,0.11,0.16,0.2,0.27,0.27c0.14,0.13,0.31,0.22,0.51,0.27c0.13,0.02,0.27,0.04,0.4,0.05
				c0.13-0.02,0.27-0.04,0.4-0.05c0.2-0.05,0.37-0.14,0.51-0.27c0.16-0.11,0.29-0.25,0.39-0.42c0.21-0.32,0.27-0.67,0.31-1.04
				c0.01-0.06,0.01-0.11,0-0.17c-0.02-0.17-0.03-0.38-0.09-0.55c-0.03-0.09-0.07-0.17-0.1-0.25c-0.03-0.08-0.07-0.17-0.11-0.25
				c-0.01-0.02-0.03-0.04-0.04-0.06c-0.09-0.12-0.18-0.25-0.28-0.36c-0.02-0.02-0.04-0.04-0.05-0.05c-0.11-0.1-0.23-0.19-0.36-0.28
				c-0.01-0.01-0.03-0.02-0.04-0.03c-0.06-0.03-0.12-0.05-0.18-0.08c-0.18-0.09-0.37-0.14-0.58-0.13c-0.29,0-0.5,0.09-0.76,0.2
				c-0.02,0.01-0.03,0.01-0.05,0.02c-0.32,0.17-0.54,0.43-0.74,0.72c-0.06,0.09-0.1,0.2-0.14,0.3c-0.05,0.11-0.1,0.21-0.12,0.33
				c-0.07,0.41-0.09,0.66,0.01,1.08c0.08,0.35,0.27,0.64,0.5,0.91c0.02,0.02,0.03,0.03,0.05,0.05c0.1,0.08,0.2,0.16,0.3,0.23
				c0.12,0.05,0.24,0.1,0.36,0.15c0.13,0.02,0.27,0.04,0.4,0.05c0.13-0.02,0.27-0.04,0.4-0.05c0.17-0.04,0.36-0.13,0.51-0.2
				c0.21-0.1,0.4-0.25,0.57-0.41c0.17-0.16,0.32-0.35,0.43-0.56c0.11-0.2,0.21-0.43,0.27-0.66c0.04-0.18,0.06-0.36,0.08-0.54
				c0-0.06,0-0.11,0-0.17c-0.01-0.16-0.04-0.32-0.06-0.47c0-0.02-0.01-0.05-0.02-0.07c-0.05-0.17-0.13-0.34-0.2-0.5
				c-0.03-0.07-0.07-0.1-0.13-0.19c-0.04-0.05-0.08-0.1-0.12-0.15c-0.14-0.15-0.3-0.25-0.48-0.31c-0.27-0.11-0.27-0.1-0.63-0.14
				c-0.06-0.01-0.11-0.01-0.16,0c-0.41,0.03-0.67,0.1-1.03,0.29c-0.16,0.08-0.3,0.21-0.44,0.32c-0.05,0.04-0.09,0.08-0.13,0.13
				c-0.12,0.14-0.24,0.28-0.33,0.44c-0.1,0.16-0.16,0.35-0.23,0.51c-0.02,0.06-0.04,0.12-0.05,0.18c-0.03,0.15-0.05,0.32-0.06,0.47
				c0,0.03,0,0.06,0,0.09c0.01,0.19,0.03,0.38,0.08,0.56c0.02,0.09,0.07,0.17,0.1,0.26c0.04,0.09,0.07,0.18,0.12,0.26
				c0.08,0.1,0.16,0.2,0.23,0.3c0.14,0.15,0.3,0.25,0.48,0.31c0.12,0.07,0.24,0.1,0.38,0.1c0.2,0.04,0.4,0.04,0.6-0.03
				c0.03-0.01,0.07-0.02,0.1-0.03c0.15-0.05,0.29-0.11,0.43-0.18c0.17-0.08,0.31-0.21,0.46-0.33c0.05-0.04,0.1-0.09,0.14-0.14
				c0.1-0.12,0.19-0.24,0.28-0.36c0.02-0.03,0.04-0.06,0.06-0.09c0.09-0.16,0.16-0.34,0.22-0.52c0.06-0.18,0.07-0.39,0.09-0.58
				c0.01-0.07,0.01-0.13,0-0.2c-0.02-0.17-0.03-0.41-0.1-0.58c-0.07-0.25-0.2-0.47-0.39-0.66c-0.19-0.19-0.41-0.31-0.66-0.39
				c-0.27-0.07-0.53-0.07-0.8,0c-0.25,0.07-0.47,0.2-0.66,0.39c-0.15,0.13-0.27,0.3-0.37,0.47c-0.08,0.14-0.13,0.29-0.19,0.44
				c-0.02,0.04-0.03,0.07-0.04,0.11c-0.1,0.38-0.11,0.84,0.02,1.22c0.07,0.25,0.2,0.47,0.39,0.66c0.14,0.15,0.3,0.25,0.48,0.31
				c0.18,0.09,0.37,0.14,0.58,0.13c0.27,0,0.52-0.07,0.76-0.2c0.2-0.11,0.38-0.26,0.55-0.4c0.09-0.07,0.17-0.15,0.24-0.24
				c0.14-0.17,0.29-0.36,0.41-0.55c0.11-0.2,0.2-0.42,0.28-0.65c0.07-0.27,0.07-0.53,0-0.8c-0.07-0.25-0.2-0.47-0.39-0.66
				c-0.19-0.19-0.41-0.31-0.66-0.39c-0.27-0.07-0.53-0.07-0.8,0c-0.16,0.07-0.36,0.13-0.51,0.23c-0.13,0.08-0.25,0.18-0.37,0.28
				c-0.02,0.02-0.05,0.04-0.07,0.06c-0.13,0.13-0.24,0.29-0.35,0.44c-0.04,0.05-0.07,0.11-0.09,0.17c-0.07,0.17-0.16,0.34-0.2,0.52
				c-0.04,0.18-0.07,0.38-0.08,0.57c-0.01,0.19,0.03,0.38,0.06,0.57c0.01,0.07,0.03,0.13,0.05,0.19c0.07,0.25,0.2,0.47,0.39,0.66
				c0.14,0.15,0.3,0.25,0.48,0.31c0.18,0.09,0.37,0.14,0.58,0.13c0.27,0,0.52-0.07,0.76-0.2c0.2-0.12,0.39-0.27,0.57-0.43
				c0.08-0.07,0.16-0.15,0.23-0.24c0.14-0.18,0.29-0.36,0.4-0.56c0.11-0.21,0.21-0.43,0.28-0.66c0.06-0.2,0.07-0.4,0.03-0.6
				c-0.01-0.2-0.07-0.39-0.18-0.56c-0.09-0.17-0.22-0.32-0.39-0.42c-0.14-0.13-0.31-0.22-0.51-0.27c-0.13-0.02-0.27-0.04-0.4-0.05
				c-0.27,0-0.52,0.07-0.76,0.2c-0.1,0.08-0.2,0.16-0.3,0.23C120.85,25.91,120.72,26.13,120.65,26.38L120.65,26.38z"/>
		</g>
	</g>
</g>
</svg>
