<svg id="Layer_1" data-name="Layer 1" xmlns="http://www.w3.org/2000/svg" viewBox="0 0 249.23 213.25">
  <defs>
    <style>
      .cls-1 {
        fill: #d1d3d4;
      }

      .cls-2 {
        fill: #ed1c24;
      }

      .cls-3 {
        fill: #00a651;
      }

      .cls-4 {
        fill: #231f20;
      }
    </style>
  </defs>
  <title>square-roots-of-i-rotating-2</title>
  <g>
    <g>
      <path class="cls-1" d="M127.62,26.06l2.48-5.7,1.2-2.74a10.66,10.66,0,0,1,.49-1.09,2.19,2.19,0,0,1,.17-.29.13.13,0,0,1-.11.08,1.31,1.31,0,0,0-.28,0c-.1,0-.11,0,0,0h0a2.74,2.74,0,0,1,.26.28,8.24,8.24,0,0,1,.63,1.08c.44.82.86,1.66,1.26,2.51a54.67,54.67,0,0,1,2.17,5.25c.34.95,1.74,1.62,2.51.66l.53-.66a1.54,1.54,0,0,0,0-2.12,1.5,1.5,0,0,0-2.12,0l-.53.66,2.51.66a66.69,66.69,0,0,0-2.66-6.36,32.42,32.42,0,0,0-1.56-3,3.91,3.91,0,0,0-2.35-1.91c-2.68-.58-3.54,2.76-4.34,4.59L125,24.55a1.54,1.54,0,0,0,.53,2.05,1.52,1.52,0,0,0,2.06-.54Z" transform="translate(-13.54 -2.27)"/>
      <path class="cls-1" d="M130,15.52l1.51,77q.76,38.29,1.51,76.59.43,21.58.85,43.18c0,1.93,3,1.94,3,0q-.75-38.48-1.51-77L133.8,58.74,133,15.52c0-1.92-3-1.93-3,0Z" transform="translate(-13.54 -2.27)"/>
      <path class="cls-1" d="M126.49,205.08l7.74,10c.73.94,2.22.31,2.51-.66a15.77,15.77,0,0,1,2.78-5.38c1.29-1.62,3.63-3.18,3.33-5.53a1.56,1.56,0,0,0-1.5-1.5c-.73,0-1.61.69-1.5,1.5s-.48,1.27-1.06,1.88a24.32,24.32,0,0,0-2.14,2.5,19,19,0,0,0-2.81,5.73l2.51-.66-7.74-10a1.51,1.51,0,0,0-2.12,0,1.55,1.55,0,0,0,0,2.13Z" transform="translate(-13.54 -2.27)"/>
    </g>
    <g>
      <path class="cls-1" d="M21.45,101.12l-4,6.92-2,3.46a16.51,16.51,0,0,0-1.74,3.33,2.94,2.94,0,0,0,1,3.46,16.78,16.78,0,0,0,2.84.9,9.37,9.37,0,0,1,4.14,3.59,1.53,1.53,0,0,0,2.05.54,1.51,1.51,0,0,0,.54-2A12.84,12.84,0,0,0,19.89,117a10.63,10.63,0,0,0-2.72-1.07,3.78,3.78,0,0,0-.67-.13c-.31,0-.11-.08-.06.06.13.34.16-.25.22-.4a26.92,26.92,0,0,1,1.75-3.09l1.88-3.24L24,102.64a1.5,1.5,0,0,0-2.59-1.52Z" transform="translate(-13.54 -2.27)"/>
      <path class="cls-1" d="M241.52,126.45l6.6-4.41,3.3-2.21a32.1,32.1,0,0,0,3.13-2.15,3.7,3.7,0,0,0,1.3-3.44,9.47,9.47,0,0,0-1.51-3.33,48.51,48.51,0,0,0-4.12-5.85c-.79-1-1.61-1.89-2.47-2.77-.44-.45-.89-.89-1.34-1.32l-.69-.63-.31-.27-.16-.14c-.24-.26-.24-.15,0,.31L245,101l.06-.09-.9.69.08,0h-.79l-.2-.07-.69-.9,0,.08.15-1.16,0,.08a1.55,1.55,0,0,0,.53,2.06,1.53,1.53,0,0,0,2.06-.54,1.66,1.66,0,0,0-2.83-1.72c-.94,1.51.67,2.65,1.64,3.55a40.09,40.09,0,0,1,4.8,5.29c.75,1,1.46,2,2.12,3.05a14.57,14.57,0,0,1,1.77,3.11c.31,1-.52,1.25-1.26,1.74l-3.51,2.34L240,123.86a1.53,1.53,0,0,0-.53,2,1.51,1.51,0,0,0,2.05.54Z" transform="translate(-13.54 -2.27)"/>
      <path class="cls-1" d="M15.6,116.59c31.12-1,62.27-1.09,93.41-1.14,30.91-.06,61.82-.24,92.74-.11,17.35.07,34.71.33,52.05,1.08,1.93.08,1.93-2.92,0-3-31.06-1.35-62.16-1.12-93.24-1.07s-61.88,0-92.81.26c-17.39.14-34.78.41-52.15,1-1.93.06-1.94,3.06,0,3Z" transform="translate(-13.54 -2.27)"/>
    </g>
  </g>
  <g>
    <g>
      <path class="cls-2" d="M67.63,152.54A76.25,76.25,0,0,1,58.55,126a74.3,74.3,0,0,1,11.1-51.21A80.79,80.79,0,0,1,86.53,55.82a76.88,76.88,0,0,1,24.12-13.38,64.39,64.39,0,0,1,29.55-2.67c5.21.73,10.35,1.91,15.47,3.14A138.8,138.8,0,0,1,169.8,47,53.37,53.37,0,0,1,191.73,61a64.59,64.59,0,0,1,12.14,20.42A122.3,122.3,0,0,1,210.06,105q.49,2.91.9,5.85a1,1,0,0,0,1.23.69,1,1,0,0,0,.7-1.23,143.55,143.55,0,0,0-5.33-24.42,75.35,75.35,0,0,0-10.85-22,52.33,52.33,0,0,0-19.84-16.26,88.41,88.41,0,0,0-14-5c-5-1.37-10-2.55-15-3.59a87.76,87.76,0,0,0-16.22-2,63.24,63.24,0,0,0-14.89,1.59A75.75,75.75,0,0,0,90.26,50.53a82.52,82.52,0,0,0-18.78,18.1,78.79,78.79,0,0,0-12,22.91,76,76,0,0,0-3.58,27.85,78.57,78.57,0,0,0,6.81,27.87c1,2.15,2,4.25,3.19,6.29a1,1,0,0,0,1.73-1Z" transform="translate(-13.54 -2.27)"/>
      <path class="cls-2" d="M58,151a98,98,0,0,0,9.32,5,1,1,0,0,0,1.51-.86l.69-5.66c.12-.95.26-1.89.35-2.83a1.81,1.81,0,0,0-.88-1.92,1,1,0,0,0-1.36.36,1,1,0,0,0,.35,1.37l-.1-.19a2.58,2.58,0,0,1,0,.38c0,.4-.1.81-.15,1.21l-.3,2.43-.59,4.85,1.5-.86a100.35,100.35,0,0,1-9.32-5A1,1,0,0,0,58,151Z" transform="translate(-13.54 -2.27)"/>
    </g>
    <g>
      <path class="cls-3" d="M137.82,36.51a87.45,87.45,0,0,1,29.76,6.37A85.92,85.92,0,0,1,193,58.81a73.77,73.77,0,0,1,24.59,54.9,73.64,73.64,0,0,1-6.44,30.78,72.67,72.67,0,0,1-17.62,23.85,81.08,81.08,0,0,1-25.39,15.48A77.94,77.94,0,0,1,138.24,189c-12.59-.36-24.85-3.61-36.82-7.31L97,180.24l-2.09-.66-1.12-.36c-.14-.05-.9-.34-.36-.1-.79-.36-1.55-.78-2.31-1.19-3.22-1.71-6.41-3.49-9.46-5.5a20.78,20.78,0,0,1-3.3-2.53c-.9-.92-2.32.49-1.41,1.41a23.35,23.35,0,0,0,3.7,2.85c1.65,1.08,3.34,2.09,5.05,3.06q2.23,1.29,4.52,2.5c.77.4,1.54.86,2.34,1.19,1.3.54,2.71.88,4,1.31l4.48,1.4c3.09,1,6.18,1.88,9.3,2.72a139.61,139.61,0,0,0,18.88,3.9A81.52,81.52,0,0,0,161.92,188a83.25,83.25,0,0,0,27.32-13.52,77.11,77.11,0,0,0,20.22-22.31,74.33,74.33,0,0,0,9.82-30.7,77.3,77.3,0,0,0-3.65-31.88,75.69,75.69,0,0,0-16-27,85.7,85.7,0,0,0-24.5-18.42,90.25,90.25,0,0,0-29.69-9c-2.54-.31-5.08-.5-7.63-.59-1.28,0-1.28,2,0,2Z" transform="translate(-13.54 -2.27)"/>
      <path class="cls-3" d="M145.89,26c-2.36.72-4.18,2.59-5.93,4.25-1.91,1.83-3.74,3.74-5.47,5.74a1,1,0,0,0,.44,1.68,12.35,12.35,0,0,1,6.28,4,10.36,10.36,0,0,1,1,1.47c.31.54.52,1.22,1.09,1.55a1.2,1.2,0,0,0,1.77-.72,1.13,1.13,0,0,0-1.1-1.45c-1.28.07-1.29,2.08,0,2h.08l-.71-.29.05.05-.25-.44V43.4l0-.07.6-.46-.1,0h.54l-.15,0,.44.26a4.32,4.32,0,0,1-.66-1.15,14.65,14.65,0,0,0-.84-1.22,13.31,13.31,0,0,0-2.11-2.2,14.6,14.6,0,0,0-5.45-2.84l.45,1.67c1.62-1.88,3.34-3.69,5.13-5.42,1.56-1.5,3.25-3.41,5.38-4.06,1.23-.38.71-2.31-.53-1.93Z" transform="translate(-13.54 -2.27)"/>
    </g>
    <g>
      <path class="cls-3" d="M203,166.68a3.7,3.7,0,0,1,4,5.74,7.72,7.72,0,0,1-3.18,2.27,21,21,0,0,0-3.6,1.91.5.5,0,0,0,.39.91,23.26,23.26,0,0,1,8.56.28c.63.13.9-.83.27-1a24.65,24.65,0,0,0-9.1-.27l.39.91c2-1.48,4.65-2,6.46-3.73a4.81,4.81,0,0,0-.14-7.06,4.9,4.9,0,0,0-4.31-1,.5.5,0,0,0,.27,1Z" transform="translate(-13.54 -2.27)"/>
      <path class="cls-3" d="M212,167.51c2,.36,4.39,1.93,4,4.25-.48,2.69-3.58,3.54-5.82,4.12-.53.13-.44,1,.14,1a13.28,13.28,0,0,1,7.12,1.29c.57.28,1.08-.59.5-.87a14.35,14.35,0,0,0-7.62-1.42l.13,1c2.7-.7,6.16-1.87,6.56-5.12.33-2.73-2.3-4.73-4.73-5.17-.63-.12-.9.85-.27,1Z" transform="translate(-13.54 -2.27)"/>
      <path class="cls-3" d="M223.83,167.29a3.61,3.61,0,0,1-2.25,0c-.56-.2-1.19-.65-1.68-.06a4.53,4.53,0,0,0-.53,2.09,15.42,15.42,0,0,0-.17,2.54,1.81,1.81,0,0,0,.64,1.55,3.73,3.73,0,0,0,1.68.45,1.53,1.53,0,0,1,1,2.31c-.66,1.41-2.63,1.44-3.94,1.28l.36.86.83-.68c.5-.4-.21-1.1-.7-.7l-.84.67c-.38.31,0,.81.35.85a5.47,5.47,0,0,0,3.86-.71,3,3,0,0,0,1.23-2.87,2.28,2.28,0,0,0-2.09-2,5.44,5.44,0,0,1-.9-.14c-.39-.13-.47-.39-.48-.79a14.65,14.65,0,0,1,.18-2.64q0-.34.12-.69a1.93,1.93,0,0,1,.14-.65c.12-.1,0,0,.09.05s.21.1.31.14a3.29,3.29,0,0,0,.6.21,4.53,4.53,0,0,0,2.45-.06.5.5,0,0,0-.26-1Z" transform="translate(-13.54 -2.27)"/>
      <path class="cls-3" d="M227.27,167.07a3.47,3.47,0,0,0-.48,4c.37.65,1.23,1.39,2,.83a1.62,1.62,0,0,0,.51-1.08,5.84,5.84,0,0,0,.08-1.25,6,6,0,0,0-.79-2.75.5.5,0,0,0-.87.5,4.9,4.9,0,0,1,.54,3.59c0,.08-.07.17-.08.21a0,0,0,0,1,0,0l-.09,0a1.08,1.08,0,0,1-.44-.48,2.46,2.46,0,0,1-.31-1.41,2.32,2.32,0,0,1,.62-1.44c.44-.47-.26-1.18-.71-.71Z" transform="translate(-13.54 -2.27)"/>
      <path class="cls-3" d="M226.18,174.35l3.38.08a.5.5,0,0,0,.5-.5.51.51,0,0,0-.5-.5l-3.38-.08a.5.5,0,0,0-.5.5.51.51,0,0,0,.5.5Z" transform="translate(-13.54 -2.27)"/>
    </g>
    <g>
      <path class="cls-2" d="M46.09,48.5c2.37-.65,10.28-1.61,9.26,3-.44,2-2.45,3.17-4,4.18a38.35,38.35,0,0,1-5.53,2.91c-.4.17-.27.82.12.91a33.9,33.9,0,0,0,12.34.19c.63-.09.36-1-.27-1a32.56,32.56,0,0,1-11.81-.18l.12.91a38.16,38.16,0,0,0,5.16-2.67,13.83,13.83,0,0,0,4.09-3.31A4.08,4.08,0,0,0,55.92,49a5.06,5.06,0,0,0-3.74-1.94,16,16,0,0,0-6.35.47.5.5,0,0,0,.26,1Z" transform="translate(-13.54 -2.27)"/>
      <path class="cls-2" d="M60.34,48.26a7.54,7.54,0,0,1,4,.9c1,.57,2,1.54,1.88,2.81S64.86,54.33,64,55.24q-1.53,1.6-3.14,3.14a.51.51,0,0,0,.36.85l7.29.05a.5.5,0,0,0,0-1l-7.29-.05.35.86c1.29-1.24,2.56-2.51,3.78-3.82,1-1,2-2.31,1.88-3.84-.28-3.07-4.32-4.27-6.88-4.17-.64,0-.64,1,0,1Z" transform="translate(-13.54 -2.27)"/>
      <path class="cls-2" d="M75.54,46.45H72.13c-.75,0-1.69-.12-2.27.45s-.47,1.72-.46,2.51a24.48,24.48,0,0,0,.24,3.2c.1.74.27,1.59,1.19,1.58.77,0,1.46-.6,2.23-.72a1.62,1.62,0,0,1,2,.82,2.78,2.78,0,0,1-.89,2.5,8.18,8.18,0,0,1-5.62,2.57c-.64,0-.65,1,0,1a9.22,9.22,0,0,0,5-1.68c1.27-.91,2.67-2.32,2.62-4a2.46,2.46,0,0,0-3-2.2,4.75,4.75,0,0,0-1,.24c-.28.09-.83.51-1.11.47-.45-.06-.39-1.17-.43-1.52-.06-.58-.09-1.18-.11-1.77a14.6,14.6,0,0,1,0-1.75c.06-.73.63-.69,1.22-.68h3.9a.5.5,0,0,0,0-1Z" transform="translate(-13.54 -2.27)"/>
      <path class="cls-2" d="M79.12,47a5.69,5.69,0,0,0-.84,2.81,2.89,2.89,0,0,0,.79,2.37,1.24,1.24,0,0,0,1.19.29,2,2,0,0,0,1-.95,3.53,3.53,0,0,0,.37-2.28,3.37,3.37,0,0,0-1.34-2.19.49.49,0,0,0-.68.18.5.5,0,0,0,.18.68,2.53,2.53,0,0,1,.74,2.81,1.84,1.84,0,0,1-.38.64.7.7,0,0,1-.16.14l-.09,0s0,0,0,0l-.1,0c.05,0-.08,0-.07,0-.45-.33-.49-1.07-.48-1.6A4.73,4.73,0,0,1,80,47.52c.33-.55-.53-1.05-.87-.51Z" transform="translate(-13.54 -2.27)"/>
      <path class="cls-2" d="M79.17,55a4.68,4.68,0,0,1,1.49-.5,5.38,5.38,0,0,1,1.5,0,.52.52,0,0,0,.62-.35.5.5,0,0,0-.35-.61,5.86,5.86,0,0,0-3.77.58.51.51,0,0,0-.18.69.52.52,0,0,0,.69.18Z" transform="translate(-13.54 -2.27)"/>
    </g>
    <path class="cls-4" d="M71.55,163.2c.07.07,0,.09,0,0,0,.25,0,0,0,0s0,.12,0,0c0,.06-.13.34-.05.18a1.4,1.4,0,0,1-.09.17c-.14.22.11-.1-.08.09a.86.86,0,0,1-.14.13s.14-.08,0,0a1,1,0,0,1-.17.1s.17-.05,0,0l-.18,0c.07,0,.14,0,0,0,0,0,.17.05,0,0s0,0-.08,0-.1,0-.21-.16.06.1,0,0a.77.77,0,0,1-.1-.18,1.75,1.75,0,0,1-.16-.57,2,2,0,0,1,.43-1.46,4.71,4.71,0,0,1,1.56-1.24c.33-.18.66-.34,1-.5a3.36,3.36,0,0,1,1.09-.41l.15,0s-.17-.09,0,0c0,0,.16.11,0,0,0,0,.1.14,0,0a1.52,1.52,0,0,1,.22.59,6.18,6.18,0,0,1-.74,3.36,1,1,0,0,1-1.2.39c-1.2-.4-1.29-1.93-.81-3a3.08,3.08,0,0,1,.49-.84,1.89,1.89,0,0,1,.28-.23s.17,0,0,0,.12,0,.14,0c-.26,0,0,0,0,0s-.14-.07,0,0l.15.1c-.14-.11,0,0,0,0a2.51,2.51,0,0,1,.42.66,2,2,0,0,1,.11.29c0,.14.09.29.13.44a3.58,3.58,0,0,1,.09.45,2.09,2.09,0,0,1,0,.34,3.43,3.43,0,0,1-.25,1.61c0-.12,0,0,0,.05a1.35,1.35,0,0,1-.15.26.34.34,0,0,1-.1.13c.09-.07-.05,0-.08.05l0,0-.09,0c.29.12,0-.1,0,0s.11,0,0,0l-.05,0A5.18,5.18,0,0,1,72,162.1a7.46,7.46,0,0,1-.27-5.1l-1.23.7a2.45,2.45,0,0,1,1.84,2.58,2.52,2.52,0,0,1-1.85,2.4,1.07,1.07,0,0,1-.59-.08,1.61,1.61,0,0,1-.66-.5,1.58,1.58,0,0,1-.29-.58.5.5,0,0,1,0-.27c0-.17,0,.12,0-.05s.07-.23,0-.12l.11-.19c-.08.11,0,0,0,0a.93.93,0,0,1,.14-.14c-.12.09,0,0,0,0a.91.91,0,0,1,.17-.09c-.15.06,0,0,0,0l.19-.05c-.18,0,.11,0,.13,0a1.43,1.43,0,0,1,.66.09.6.6,0,0,1,.25.1l.19.1s.25.16.15.08a2.25,2.25,0,0,1,.76,1.74,5.62,5.62,0,0,1-.57,2.51l1.37-.36a2.7,2.7,0,0,1,.45-5.19l-1-.26a4.15,4.15,0,0,1,1.17,2.21,1.23,1.23,0,0,1-.24.74.54.54,0,0,1-.6.24l.71.29a3.19,3.19,0,0,1-.31-3.61H71.14a2.8,2.8,0,0,1,0,3.17l.6-.46a1.06,1.06,0,0,1-1.33-.38,1,1,0,0,0-1.41,0A1,1,0,0,0,69,163,3,3,0,0,0,71,164a3,3,0,0,0,1.11-.11,1.74,1.74,0,0,0,1-1,4.85,4.85,0,0,0-.28-4.67,1,1,0,0,0-1.73,0,5.33,5.33,0,0,0-.55,3.77,4.92,4.92,0,0,0,.7,1.65,2.39,2.39,0,0,0,.68.77,1.76,1.76,0,0,0,1.22.09,3,3,0,0,0,2.12-2.81c.06-1.45-.9-2.68-1.76-3.74a1,1,0,0,0-1-.26,4.69,4.69,0,0,0-.93,8.85,1,1,0,0,0,1.37-.36c.92-2,1.43-4.81-.35-6.53-1.32-1.27-3.81-1.61-5.07-.07-1.47,1.8-.12,4.38,1.92,5s4.14-1.2,4.68-3.17c.62-2.27-.66-5.19-3.14-5.63a1,1,0,0,0-1.23.7,9.57,9.57,0,0,0,.54,6.8c.48,1,1.21,2.27,2.34,2.59a2.21,2.21,0,0,0,2.49-1.06,5.83,5.83,0,0,0,.07-5.46,3,3,0,0,0-1.87-1.72,2.67,2.67,0,0,0-2.84,1.49c-1.2,2-1.23,4.9,1,6.18a3.1,3.1,0,0,0,3.14,0,4.27,4.27,0,0,0,1.72-2.63c.45-1.61.81-4.21-1-5.15-1.22-.64-2.48,0-3.58.59a7.67,7.67,0,0,0-2.62,1.92,4.12,4.12,0,0,0-.92,3.32,3,3,0,0,0,1.91,2.4c2.14.73,4.56-2.27,2.75-4-.93-.89-2.34.52-1.41,1.41Z" transform="translate(-13.54 -2.27)"/>
    <g>
      <g>
        <path class="cls-4" d="M26.15,178.07l.87-1.39a8.56,8.56,0,0,1,.84-1.28c.76-.84,1.36.88,1.52,1.43.49,1.77.21,3.65.66,5.43a.38.38,0,0,0,.73-.2c-.54-2.09-.06-4.38-1-6.38-.4-.82-1.24-1.75-2.18-1a4.62,4.62,0,0,0-1,1.33l-1.07,1.7c-.26.41.39.79.65.38Z" transform="translate(-13.54 -2.27)"/>
        <path class="cls-4" d="M27.71,183.85a31.09,31.09,0,0,1,5.71-2.4c.46-.15.26-.87-.2-.73a32.38,32.38,0,0,0-5.89,2.48c-.42.23,0,.88.38.65Z" transform="translate(-13.54 -2.27)"/>
        <path class="cls-4" d="M36.81,171.53a27.84,27.84,0,0,0-1.72,4.29c-.23.78-.43,1.56-.59,2.35-.08.39-.16.79-.22,1.19a1.24,1.24,0,0,0,0,.83c.34.57,1,.26,1.39,0a5.88,5.88,0,0,1,2-.86,5.39,5.39,0,0,1,1.06-.13c.35,0,.7.06,1,.05.51,0,1-.66.49-1.05s-.91.22-.53.53c0-.19,0-.27-.18-.25h-.13l-.41,0a7.7,7.7,0,0,0-.83.05,6.34,6.34,0,0,0-1.49.35,6.84,6.84,0,0,0-1.37.71,2.9,2.9,0,0,1-.29.19c-.16.08-.07,0,0-.15s.1-.6.15-.9a26.4,26.4,0,0,1,2.3-6.75c.22-.43-.43-.81-.65-.38Z" transform="translate(-13.54 -2.27)"/>
        <path class="cls-4" d="M40.69,171.92a3.85,3.85,0,0,1,3,.25,2.69,2.69,0,0,1,1.35,2.31,2.88,2.88,0,0,1-1.28,2.07,16.82,16.82,0,0,0-2,1.72c-.23.26,0,.75.37.63l6.12-2.05c.45-.15.26-.87-.2-.72l-6.12,2,.36.63c1.31-1.49,3.83-2.34,3.52-4.75A3.48,3.48,0,0,0,44,171.49a4.66,4.66,0,0,0-3.55-.29.37.37,0,0,0,.2.72Z" transform="translate(-13.54 -2.27)"/>
        <path class="cls-4" d="M45.89,170.55c1.17-.33,3.17-.77,3.61.82s-1,2.86-2.12,3.77c-.31.26,0,.69.37.62l2.93-.55c.48-.09,2.07-.21,1.7-1.1-.18-.44-.9-.25-.72.2,0-.1.12-.07-.06,0l-.17,0-.53.1-1.14.21-2.21.42.37.63c1.33-1.12,3-2.73,2.25-4.66s-2.91-1.63-4.48-1.18a.37.37,0,0,0,.2.72Z" transform="translate(-13.54 -2.27)"/>
        <path class="cls-4" d="M54.85,166.87l-1.21.09a4.58,4.58,0,0,0-.9.09c-.63.18-.69.77-.71,1.33a15.37,15.37,0,0,0,0,2.25c.05.53.15,1.19.82,1.21s1-.5,1.49-.49a1.1,1.1,0,0,1,1,1.09,2.1,2.1,0,0,1-.93,1.63,5.25,5.25,0,0,1-.8.47l-.53.23-.25.1c-.21,0-.19.14,0,.34l-.22.17.06,0c.45-.16.25-.89-.2-.72a.51.51,0,0,0-.19.88c.41.36,1.08-.07,1.48-.25A3.59,3.59,0,0,0,56.06,173a1.92,1.92,0,0,0-1.14-2.3,1.57,1.57,0,0,0-1.27.07c-.16.08-.48.32-.67.3s-.17-.71-.19-.9a10.4,10.4,0,0,1,0-2.16c.05-.37.55-.29.84-.31l1.21-.09c.48,0,.48-.78,0-.75Z" transform="translate(-13.54 -2.27)"/>
        <path class="cls-4" d="M56.5,166.33a2.62,2.62,0,0,0,0,2,1.24,1.24,0,0,0,1.44.68,1.53,1.53,0,0,0,1-1.31,2.6,2.6,0,0,0-.6-1.7c-.21-.3-.46-.73-.89-.61a.52.52,0,0,0-.35.38.46.46,0,0,0,.32.55.38.38,0,0,0,.46-.26.39.39,0,0,0-.26-.46h0l.17.09,0,.13a.14.14,0,0,1,0,.18l0,0-.27.06s0-.07,0,0h0l.19.27a5.69,5.69,0,0,1,.33.52,1.91,1.91,0,0,1,.17.51.88.88,0,0,1,0,.23s0,0,0,0a.13.13,0,0,0,0,.06l0,.13a.86.86,0,0,1-.2.33l-.05.05-.1.06s0,0,0,0h0c-.06,0,0,0,0,0h-.09l-.08,0h0l0,0-.07,0-.09-.08,0,0-.06-.11,0,0c0-.06,0,0,0,0a2.17,2.17,0,0,1,.13-1.37.37.37,0,0,0-.72-.2Z" transform="translate(-13.54 -2.27)"/>
        <path class="cls-4" d="M57.17,170.42a4.2,4.2,0,0,1,3-.95.39.39,0,0,0,.38-.38.38.38,0,0,0-.38-.37,5,5,0,0,0-3.5,1.17.37.37,0,0,0,0,.53.38.38,0,0,0,.53,0Z" transform="translate(-13.54 -2.27)"/>
        <path class="cls-4" d="M24.73,173.12a16.6,16.6,0,0,0-.88,8c.27,1.95,1.12,4,3.1,4.78.45.17.64-.55.2-.72-1.9-.72-2.48-3-2.64-4.83a16.28,16.28,0,0,1,.94-7c.17-.45-.56-.65-.72-.2Z" transform="translate(-13.54 -2.27)"/>
        <path class="cls-4" d="M58.59,163.5a5.25,5.25,0,0,1,1.65,2.23,18.33,18.33,0,0,1,1.12,2.85,8.07,8.07,0,0,1-.35,6.07c-.22.43.42.81.65.38a8.85,8.85,0,0,0,.42-6.65,18.6,18.6,0,0,0-1.27-3.19A5.58,5.58,0,0,0,59,162.86c-.4-.27-.77.38-.37.64Z" transform="translate(-13.54 -2.27)"/>
      </g>
      <path class="cls-4" d="M61.51,162.67l1.43-2.56h-.65a5.86,5.86,0,0,1,.56,3.35c0,.2.19.37.37.37a.39.39,0,0,0,.38-.37,6.59,6.59,0,0,0-.66-3.73.38.38,0,0,0-.65,0l-1.43,2.56c-.23.42.42.8.65.38Z" transform="translate(-13.54 -2.27)"/>
      <path class="cls-4" d="M62.09,164.9l3.84-1.39a.37.37,0,1,0-.2-.72l-3.84,1.38a.4.4,0,0,0-.27.47.39.39,0,0,0,.47.26Z" transform="translate(-13.54 -2.27)"/>
    </g>
    <g>
      <g>
        <path class="cls-4" d="M218.32,105.1c.79-.61,1.56-1.32,2.41-1.86.39-.25.81-.34,1.05.13a3.06,3.06,0,0,1,.27,1.3c0,1.81-.9,3.49-1,5.3,0,.49.73.48.75,0,.1-2.13,1.39-4.17.84-6.34a2,2,0,0,0-.66-1.14,1.3,1.3,0,0,0-1.33-.07,6.64,6.64,0,0,0-1.35,1l-1.53,1.19c-.38.3.15.83.53.53Z" transform="translate(-13.54 -2.27)"/>
        <path class="cls-4" d="M218.17,110.79a36.52,36.52,0,0,1,6.6-.63.38.38,0,0,0,0-.75,38.78,38.78,0,0,0-6.8.66c-.47.09-.27.81.2.72Z" transform="translate(-13.54 -2.27)"/>
        <path class="cls-4" d="M231.29,102a25.75,25.75,0,0,0-4.42,5.45,5.3,5.3,0,0,0-.77,1.47.69.69,0,0,0,.77.79,15.4,15.4,0,0,0,1.64-.34,7.07,7.07,0,0,1,1.78,0,7.39,7.39,0,0,1,1,.21,3.78,3.78,0,0,0,.85.26c.54,0,.94-.51.56-1s-.85.16-.53.53c.11-.22.08-.34-.1-.35l-.23-.08-.36-.12a6.28,6.28,0,0,0-.86-.19,7.32,7.32,0,0,0-1.75-.09,8.3,8.3,0,0,0-1.71.31c-.06,0-.25.1-.31.06s-.06,0,0,0l.12-.22c.13-.25.28-.5.42-.74a25.17,25.17,0,0,1,4.4-5.46c.35-.33-.18-.86-.53-.53Z" transform="translate(-13.54 -2.27)"/>
        <path class="cls-4" d="M235.15,103.46a4.59,4.59,0,0,1,2.95,1,2.36,2.36,0,0,1,.8,2.48,2.89,2.89,0,0,1-2,1.57,18.5,18.5,0,0,0-2.66,1,.38.38,0,0,0,.19.7l6.91-.2a.38.38,0,0,0,0-.75l-6.91.2.19.7c1.41-.79,3.34-.84,4.44-2.13a3,3,0,0,0-.92-4.46,5.59,5.59,0,0,0-3-.84.38.38,0,0,0,0,.75Z" transform="translate(-13.54 -2.27)"/>
        <path class="cls-4" d="M240.91,103.63c1.09,0,3.25,0,3.46,1.48a2.15,2.15,0,0,1-1,1.9,8.34,8.34,0,0,1-2.28,1.12.38.38,0,0,0,.1.74l3.18.29c.59.06,2.19.41,2-.66a.38.38,0,0,0-.73.2c0-.33.17-.19,0-.19h-.18l-.55-.05-1.26-.11-2.47-.23.1.74c1.41-.53,3-1.15,3.63-2.66a2.17,2.17,0,0,0-.15-2,2.74,2.74,0,0,0-1.54-1,8.13,8.13,0,0,0-2.35-.27.38.38,0,0,0,0,.75Z" transform="translate(-13.54 -2.27)"/>
        <path class="cls-4" d="M251.21,102.67c-.6-.12-1.2-.25-1.8-.36a1.18,1.18,0,0,0-1.2.31,4.77,4.77,0,0,0-.62,1.51,8.27,8.27,0,0,0-.42,1.68.79.79,0,0,0,.56.89,2.89,2.89,0,0,0,1.17-.06,1,1,0,0,1,1,1.61,2.56,2.56,0,0,1-1.43.9,6.16,6.16,0,0,1-1,.19l-.51,0h-.31c-.14,0-.15.1,0,.34l-.26.11h.07c.48,0,.48-.78,0-.75a.51.51,0,0,0-.3.93,1.06,1.06,0,0,0,.68.11c.34,0,.67-.06,1-.11a3.62,3.62,0,0,0,2.82-1.62,1.75,1.75,0,0,0-.85-2.4,2.39,2.39,0,0,0-1.4-.06c-.08,0-.44.09-.51,0s.13-.75.17-.9c.09-.36.2-.71.32-1.06.06-.17.12-.33.19-.49s.12-.42.25-.49.72.07,1,.11l1.21.24c.47.1.68-.63.2-.72Z" transform="translate(-13.54 -2.27)"/>
        <path class="cls-4" d="M253.1,102.64a2.45,2.45,0,0,0-.67,1.6,1.29,1.29,0,0,0,1,1.21,1.52,1.52,0,0,0,1.5-.68,2,2,0,0,0,.08-1.84c-.11-.33-.23-.8-.61-.9a.51.51,0,0,0-.58.22.45.45,0,0,0,.15.63.36.36,0,0,0,.51-.13.37.37,0,0,0-.13-.51l0,0,.13.14,0,0v.2c0,.06-.16.15-.15.15a1.16,1.16,0,0,1-.22-.06s0,0,0,0,0,.06,0,0c.05.11.08.22.12.32a3.28,3.28,0,0,1,.19.66,1.39,1.39,0,0,1,0,.53c0,.06,0,0,0,0l-.06.11,0,0h0l-.1.09a.72.72,0,0,1-.34.19s-.13,0-.06,0a.56.56,0,0,1-.13,0h-.06s.06,0,0,0l-.07,0h0l-.08,0c-.06,0,0,0,0,0l-.05,0h0s0,0,0,0l-.05-.07s-.05-.11,0,0a.19.19,0,0,1,0-.1.64.64,0,0,1,0-.07s0-.06,0,0v0a.27.27,0,0,1,0-.09s0-.12,0-.05a1,1,0,0,1,0-.17,1.13,1.13,0,0,1,.12-.28,4,4,0,0,1,.41-.6.38.38,0,0,0-.65-.38Z" transform="translate(-13.54 -2.27)"/>
        <path class="cls-4" d="M252.43,106.59a5.23,5.23,0,0,1,3.45-.09c.46.15.66-.57.2-.72a5.91,5.91,0,0,0-3.85.09.38.38,0,0,0-.26.46.37.37,0,0,0,.46.26Z" transform="translate(-13.54 -2.27)"/>
        <path class="cls-4" d="M218.46,100.14a15.11,15.11,0,0,0-3.37,6.89c-.36,2-.11,4.21,1.69,5.42.4.27.77-.38.38-.65-1.69-1.13-1.63-3.38-1.22-5.14a14.29,14.29,0,0,1,3.05-6c.3-.37-.22-.9-.53-.53Z" transform="translate(-13.54 -2.27)"/>
        <path class="cls-4" d="M256.12,100.66a4.61,4.61,0,0,1,1,2.46,14.75,14.75,0,0,1,.27,3.18,7.08,7.08,0,0,1-2.23,5.13c-.36.32.18.85.53.53a7.89,7.89,0,0,0,2.45-5.66,16.15,16.15,0,0,0-.33-3.54,5,5,0,0,0-1.18-2.63c-.33-.35-.86.18-.53.53Z" transform="translate(-13.54 -2.27)"/>
      </g>
      <path class="cls-4" d="M260.12,98.48a7.91,7.91,0,0,0-1.48,3,2.85,2.85,0,0,0-.06,1.61,1.37,1.37,0,0,0,1.05.84,2.38,2.38,0,0,0,2.47-1.33,3.27,3.27,0,0,0,.41-3.13,2.12,2.12,0,0,0-2.7-.94c-.43.21-.05.86.38.65a1.37,1.37,0,0,1,1.6.54,2.34,2.34,0,0,1-.23,2.32,1.84,1.84,0,0,1-1.61,1.18.7.7,0,0,1-.69-.44,2.52,2.52,0,0,1,.12-1.18A7.06,7.06,0,0,1,260.65,99a.37.37,0,0,0-.53-.53Z" transform="translate(-13.54 -2.27)"/>
    </g>
    <g>
      <path class="cls-4" d="M131.79,28.33l.14-1.49a3,3,0,0,1,.18-1.12c.28-.52,1.27.52,1.48.76.92,1.07,1.39,2.45,2.32,3.52.32.36.85-.17.53-.53-.82-.95-1.27-2.14-2-3.14a4.61,4.61,0,0,0-1.37-1.27,1.26,1.26,0,0,0-1.08-.17,1.05,1.05,0,0,0-.62.71,5.79,5.79,0,0,0-.17,1.24L131,28.33a.39.39,0,0,0,.38.38.38.38,0,0,0,.37-.38Z" transform="translate(-13.54 -2.27)"/>
      <path class="cls-4" d="M135,31.91a24.37,24.37,0,0,1,3.17-3.71c.35-.34-.18-.87-.53-.53a25.81,25.81,0,0,0-3.29,3.86.38.38,0,0,0,.14.51.39.39,0,0,0,.51-.13Z" transform="translate(-13.54 -2.27)"/>
      <path class="cls-4" d="M136.85,20a20.86,20.86,0,0,0,.37,3.94c.12.64.26,1.26.44,1.89.12.43.23,1.21.77,1.3s.78-.52,1-.89a4.35,4.35,0,0,1,1.05-1.13,3.79,3.79,0,0,1,.69-.43c.2-.1.43-.16.63-.27a.56.56,0,0,0-.08-1.05c-.47-.11-.67.62-.2.72,0-.27,0-.37-.13-.3l-.13.05a2.36,2.36,0,0,0-.28.12,3.4,3.4,0,0,0-.5.26,5.32,5.32,0,0,0-.93.71,4.93,4.93,0,0,0-.74.9,2.52,2.52,0,0,0-.28.48c-.08.08-.08.1,0,.07s.1,0,0-.13a2.59,2.59,0,0,0-.11-.37A20.49,20.49,0,0,1,137.6,20a.38.38,0,0,0-.75,0Z" transform="translate(-13.54 -2.27)"/>
      <path class="cls-4" d="M139.87,18.88c1-1,2.94-1.33,3.79.1a2,2,0,0,1-.06,1.93,16.59,16.59,0,0,0-.88,2,.38.38,0,0,0,.63.37l3.6-3.62a.38.38,0,0,0-.53-.53l-3.6,3.62.63.36c.23-.87.78-1.62,1.05-2.48a2.49,2.49,0,0,0-.42-2.38c-1.25-1.53-3.42-1.14-4.74.07-.35.33.18.86.53.53Z" transform="translate(-13.54 -2.27)"/>
      <path class="cls-4" d="M143.06,16.07c.69-.64,1.95-1.65,2.78-.64s.22,2.24-.2,3.2a.39.39,0,0,0,.06.46.36.36,0,0,0,.45.06l1.94-1.48c.39-.3,1.42-.92.8-1.51-.35-.33-.88.2-.53.53,0-.16,0-.2-.08-.11l-.16.13-.37.27-.63.49-1.35,1,.52.51c.57-1.31,1.14-3,0-4.17a1.91,1.91,0,0,0-1.82-.54,4.53,4.53,0,0,0-2,1.24c-.35.33.18.85.53.53Z" transform="translate(-13.54 -2.27)"/>
      <path class="cls-4" d="M148,10.18l-.82.49a2.79,2.79,0,0,0-.61.4c-.44.42-.2.93,0,1.4A11.19,11.19,0,0,0,147.4,14c.24.38.61.71,1.07.46s.47-.62.8-.83a.78.78,0,0,1,1,.3,1.56,1.56,0,0,1,0,1.38,3.46,3.46,0,0,1-.39.63c-.09.12-.18.23-.28.34l-.14.16c-.16.13-.08.23.23.33l-.11.26,0,0c.33-.35-.19-.89-.53-.53a.5.5,0,0,0,.24.82c.47.09.81-.46,1.05-.77a2.92,2.92,0,0,0,.75-2.45,1.6,1.6,0,0,0-1.72-1.26,1.33,1.33,0,0,0-.9.55,2.25,2.25,0,0,1-.34.41s-.06,0,0,0,0-.05,0-.07a2,2,0,0,0-.25-.41,9.72,9.72,0,0,1-.79-1.54c-.06-.17,0-.19.1-.29l.34-.2.83-.5a.37.37,0,0,0-.38-.64Z" transform="translate(-13.54 -2.27)"/>
      <path class="cls-4" d="M148.92,9.31a2.14,2.14,0,0,0,.63,1.39,1.26,1.26,0,0,0,.77.29,1.05,1.05,0,0,0,.69-.29,1.33,1.33,0,0,0,.25-1.26,2.07,2.07,0,0,0-1-1c-.26-.15-.57-.36-.88-.26a.48.48,0,0,0-.3.57.42.42,0,0,0,.44.34.38.38,0,0,0,0-.75c.07,0,.3.15.29.29l-.1.13a.16.16,0,0,1-.21.14h.05l.23.12.41.26h0l.05,0,.08.07.07.08,0,0s0,0,0,0a.41.41,0,0,1,.05.09l0,.05,0,0a.47.47,0,0,1,.06.19s0-.08,0,0v.15l0,.11s0,0,0,.05,0,0,0,0l-.05.09,0,0s.05-.05,0,0l-.08.07s.07,0,0,0l0,0h0s.08,0,0,0l0,0h0l-.1,0h0l-.09-.06s-.06,0,0,0l-.05,0,0,0,0,0s0,0,0,0l0-.08-.06-.12s0,0,0,0l0-.08a4.47,4.47,0,0,1-.14-.61.37.37,0,0,0-.46-.26.37.37,0,0,0-.26.46Z" transform="translate(-13.54 -2.27)"/>
      <path class="cls-4" d="M151,12a4.19,4.19,0,0,1,.32-.59l.1-.14c.06-.08,0,.06,0,0l.06-.07.22-.24.25-.23.07-.05c.06,0-.05,0,0,0l.13-.09a3.37,3.37,0,0,1,.59-.32.38.38,0,0,0,.14-.52.39.39,0,0,0-.51-.13,4,4,0,0,0-2.05,2,.38.38,0,0,0,.14.51A.37.37,0,0,0,151,12Z" transform="translate(-13.54 -2.27)"/>
      <path class="cls-4" d="M128.87,25.3a13.43,13.43,0,0,0,1.95,5.63c.9,1.43,2.34,3,4.18,2.75.48,0,.48-.8,0-.75-1.68.18-2.9-1.32-3.68-2.61a12.63,12.63,0,0,1-1.7-5c-.06-.47-.81-.48-.75,0Z" transform="translate(-13.54 -2.27)"/>
      <path class="cls-4" d="M149.48,6.61a4.39,4.39,0,0,1,2.09,1.11,14,14,0,0,1,1.74,1.61,6.23,6.23,0,0,1,1.75,4.23.38.38,0,0,0,.75,0,7,7,0,0,0-2-4.76,14.71,14.71,0,0,0-2-1.8,4.78,4.78,0,0,0-2.37-1.14c-.48-.06-.47.69,0,.75Z" transform="translate(-13.54 -2.27)"/>
    </g>
    <path class="cls-4" d="M150.86,4.31c.14-.44.3-1,.78-1.24a1.07,1.07,0,0,1,1.24.55,1.91,1.91,0,0,1,.29,1.25,17.62,17.62,0,0,1-.56,1.74c-.08.33.39.67.63.36l2.18-2.82a.4.4,0,0,0,0-.53.39.39,0,0,0-.53,0l-2.18,2.82.62.36a8.82,8.82,0,0,0,.6-2.12,2.71,2.71,0,0,0-.64-1.77,1.73,1.73,0,0,0-1.95-.52,2.47,2.47,0,0,0-1.21,1.72c-.14.46.58.66.73.2Z" transform="translate(-13.54 -2.27)"/>
  </g>
  <path class="cls-4" d="M131.13,38.2a1.47,1.47,0,0,1-.83-.42l.13.49a.5.5,0,0,1,.31-.29h-.27c.29.05.34.48.37.72a2.41,2.41,0,0,1-.09,1.16c-.2.52-.87,1-1.43.67s-.19-1,.18-1.18c.57-.36,1.23.27,1.35.81a1.64,1.64,0,0,1-1.2,1.74l.56.23a2.76,2.76,0,0,1,0-2.9,7.78,7.78,0,0,1,.95-1.46c.14-.17.73-1,1-.89s.18.36.2.49a3.49,3.49,0,0,1,0,.79,4.7,4.7,0,0,1-.63,1.76c-.14.23-.66,1.14-1,.84a1.94,1.94,0,0,1-.38-.69,5.43,5.43,0,0,1-.28-1c-.2-1.11.35-2.61,1.68-2.59l-.5-.5a6.31,6.31,0,0,1-1.4,3.59l.79.11c-.15-.23-.59-.85-.26-1.1.13-.11.43,0,.6,0,.87.42.29,1.78,0,2.41l.62-.35a1.9,1.9,0,0,1-1.5-.79c-.1-.21,0-.9.35-.85a.5.5,0,0,0,.61-.35.5.5,0,0,0-.35-.61,1.52,1.52,0,0,0-1.64,1.79c.15,1.08,1.3,1.62,2.26,1.78a.52.52,0,0,0,.61-.35,4,4,0,0,0,.38-2.38,1.78,1.78,0,0,0-1.25-1.33,1.46,1.46,0,0,0-1.57.41,1.88,1.88,0,0,0,.23,2.17.51.51,0,0,0,.79.1,7.39,7.39,0,0,0,1.69-4.3.5.5,0,0,0-.5-.5,2.94,2.94,0,0,0-2.72,3.23,5,5,0,0,0,.75,2.4,1.37,1.37,0,0,0,1,.67,1.44,1.44,0,0,0,1.12-.47,5.19,5.19,0,0,0,1.28-2.21,4.16,4.16,0,0,0,.14-2.29,1.21,1.21,0,0,0-1.79-.81,3.64,3.64,0,0,0-.82.75,11.87,11.87,0,0,0-.81,1.06c-.94,1.37-1.6,3.27-.54,4.77a.52.52,0,0,0,.56.23,2.61,2.61,0,0,0,1.87-3.09,2,2,0,0,0-3.09-1.05,1.66,1.66,0,0,0,.46,2.82,2,2,0,0,0,1.76-.3,2.45,2.45,0,0,0,.94-1.82,2.73,2.73,0,0,0-.54-2.11c-.69-.69-1.56,0-1.84.69a.5.5,0,0,0,.13.49,2.37,2.37,0,0,0,1.26.68.53.53,0,0,0,.62-.35.51.51,0,0,0-.35-.62Z" transform="translate(-13.54 -2.27)"/>
  <path class="cls-4" d="M212.38,114.05l0,0s0-.05,0,0v0s0,0,0,0-.06,0,0,0-.09,0,0,0,.1,0,0,0l.07,0c.12,0,0,0,0,0l.13.08c-.08,0,0,0,.07.06s0,0,0,0l.06.1c-.06-.11,0,.13,0,.06s0,.05,0,.05,0,.08,0,.12,0,0,0,0l0,.11a.25.25,0,0,0,0,.07c0-.09,0,0,0,0l-.09.16c0,.08,0,0,0,0l-.08.09-.14.13c.08-.07-.07.05-.1.07l-.14.07s-.12.06,0,0l-.09,0-.16,0s-.24,0-.11,0a2.67,2.67,0,0,1-.4,0c.12,0-.07,0-.11,0l-.15,0c.12,0-.06,0-.09,0l-.06,0,0,0s-.13-.15-.08-.08l-.12-.19s0-.09,0,0l0-.08a.65.65,0,0,1,0-.13s0-.15,0,0a1.41,1.41,0,0,1,0-.2s0-.22,0-.12a2.2,2.2,0,0,1,.12-.44c0,.08,0,0,0,0l.06-.13c0-.07.09-.14.14-.21s0,0,0,0a1.47,1.47,0,0,1,.1-.13l.19-.17s.08-.06,0,0l.12-.08.1-.06s.16-.07.06,0a1.11,1.11,0,0,1,.22-.07l.12,0s0,0,0,0h.09l-.35-.15c.1.11,0,0,0,0l.06.09,0,.1c0,.05,0-.07,0,0a1.46,1.46,0,0,0,0,.2c0-.1,0,.08,0,.12s0,.23,0,.13a1.55,1.55,0,0,1,0,.21s0,.07,0,.11,0,.11,0,0a1.24,1.24,0,0,1-.1.2.76.76,0,0,1-.12.19h0l-.09.1-.16.15c.07-.06-.07,0-.1,0l-.09.06h0l-.2.06h-.23c.09,0,0,0,0,0l.3.23c0-.07,0,0,0-.07s0-.12-.05-.18,0-.13,0-.11,0,0,0,0a.41.41,0,0,0,0-.11,1.33,1.33,0,0,1,.09-.59s0-.13,0-.07l.08-.16.09-.14s0,0,0,0l.06-.08a1.3,1.3,0,0,1,.2-.17l.13-.08.06,0s0,0,0,0l.14,0,.09,0s-.07,0,0,0a1.71,1.71,0,0,1,.32,0c-.09,0,.05,0,.08,0l.14,0s.13.05.1,0l.11.06a.67.67,0,0,1,.19.14l.09.1h0l0,.07s.07.14.06.11a1.1,1.1,0,0,1,0,.11s0,0,0,.07,0-.06,0,0a1.09,1.09,0,0,1,0,.18c0-.09,0,.07,0,.09l0,.11-.05.1-.06.09a1.54,1.54,0,0,1-.2.22l-.1.06-.07,0,0,0h0l-.15,0s0,0,0,0h-.18l-.13,0a1,1,0,0,1-.42-.4,1,1,0,0,1-.08-.23s0,0,0-.08h0v-.19c0-.06,0,0,0,0a.64.64,0,0,1,0-.07.83.83,0,0,1,0-.15.19.19,0,0,1,0-.07s0,.06,0,0,.06-.12.09-.18a1.6,1.6,0,0,1,.34-.38,1,1,0,0,1,.52-.23l.08,0s-.07,0,0,0h.22c-.08,0,0,0,0,0l.16,0c.05,0,0,0,0,0l.06,0,.11.07s.13.1.06,0l.12.11.09.1s0,0,0,0l0,.06a1.51,1.51,0,0,1,.15.28s0,0,0,0,0,.05,0,.07a.65.65,0,0,1,0,.13.75.75,0,0,1,0,.16s0,.08,0,0,0,0,0,0a1.5,1.5,0,0,1,0,.3s0,.13,0,0l0,.16,0,.13s0,0,0,.06,0,0,0,0l-.06.12-.07.1-.07.07-.12.11-.06,0-.14.08-.07,0s.07,0,0,0l-.16.06-.14,0h-.45a1,1,0,0,1-.17,0,1.71,1.71,0,0,1-.3-.09l-.06,0-.15-.08-.14-.09c.06,0,0,0,0,0a.94.94,0,0,1-.1-.1l-.05-.05c-.05-.06,0,.05,0,0a1.12,1.12,0,0,1-.23-.51s0-.17,0-.09,0-.1,0-.15,0-.22,0-.33,0,.07,0,0,0,0,0-.08a.83.83,0,0,1,0-.15s0-.09,0-.14l0-.07c0-.09,0,.1,0,0s.09-.18.14-.27l.09-.12.08-.09a1.31,1.31,0,0,1,.46-.35,1.36,1.36,0,0,1,.66-.15,1,1,0,0,1,.29.06l.11.06.08,0s0,0,0,0l.1.1c.05.06,0,0,0,0l.07.12c.05.08,0,0,0,0l0,.09s0,.09,0,.14,0,.14,0,.06a1.36,1.36,0,0,1,0,.35s0,.14,0,.06a.4.4,0,0,1,0,.15c0,.06,0,.12,0,.17l0,.1a1.61,1.61,0,0,1-.36.52,3.77,3.77,0,0,1-1.25.78l-.77.29.61.35a2,2,0,0,1,.13-1.24,2.08,2.08,0,0,1,.78-.89h-.51l.22.12c-.07,0,0,0,0,0l.12.12c-.06-.06,0,0,0,0l.06.11s.05.11,0,0l0,.14,0,.12s0,.14,0,.08,0,.07,0,.09v.15s0,.16,0,.1,0,.06,0,.08l0,.12s-.06.15,0,.06a1.13,1.13,0,0,1-.12.21c0,.08.05,0,0,0a.47.47,0,0,1-.1.1c-.08.08,0,0-.05,0l-.11.06c-.07,0,0,0-.05,0l-.07,0h0s-.07,0-.09,0-.14,0-.1,0-.07,0-.09,0l-.15,0-.08,0-.12-.08-.06,0h0l-.12-.12s-.1-.11-.09-.09-.05-.08-.07-.11a1,1,0,0,1-.07-.15s0,0,0,0l0-.09a1.16,1.16,0,0,1,0-.18c0,.09,0,0,0-.07s0,0,0-.07,0,0,0,0,0-.17,0-.1a.5.5,0,1,0-.86-.51c-.7,1,.4,2.38,1.51,2.39a1.31,1.31,0,0,0,1.28-1,1.75,1.75,0,0,0-.53-1.54,1.45,1.45,0,0,0-1.78-.3c-.55.33,0,1.2.5.86l.08,0c-.06,0-.06,0,0,0s.18,0,.05,0c0,0,.19,0,.06,0l.15,0s0,0,0,0l.07,0,.13.09c-.1-.07,0,0,0,0l.11.12c-.07-.09,0,0,0,.07a1.09,1.09,0,0,1,.08.15c-.05-.12,0,0,0,.07s0,.19,0,.05a.92.92,0,0,1,0,.16c0-.14,0,0,0,0s0,0,0,0l0,.06s0,0,0,0l-.06.06c-.05,0,0,0,0,0l-.06,0c-.06,0-.05,0,0,0l-.07,0-.08,0c.07,0,.08,0,0,0s-.19,0-.05,0l-.16,0-.07,0c.06,0,.06,0,0,0l-.14-.08h0l-.06-.05-.12-.11,0-.07s0,0,0,0a.64.64,0,0,0-.08-.14c0-.05,0-.05,0,0l0-.07s0-.19,0-.06c0,0,0-.19,0,0a.66.66,0,0,1,0-.15c-.05.11,0,0,0-.06l-.86-.51a1.91,1.91,0,0,0,.7,2.31,1.78,1.78,0,0,0,2.28,0,2.1,2.1,0,0,0,.51-2.08,2,2,0,0,0-.59-1,1.37,1.37,0,0,0-.58-.31c-.29,0-.58.22-.78.41a3,3,0,0,0-.9,2.9.5.5,0,0,0,.61.35,5.43,5.43,0,0,0,2.78-1.7,2.37,2.37,0,0,0,.11-2.66,2.07,2.07,0,0,0-3-.26,2.81,2.81,0,0,0-1.06,2.5,2.36,2.36,0,1,0,4.41-1.29,2,2,0,0,0-2.37-1A2.29,2.29,0,0,0,210.3,114a1.75,1.75,0,0,0,2.4,1.5,1.86,1.86,0,0,0,.91-2.56,2.15,2.15,0,0,0-2.47-.89,2.32,2.32,0,0,0-1.45,2.39,2.74,2.74,0,0,0,.18.75.59.59,0,0,0,.39.39,2.32,2.32,0,0,0,.38,0,2,2,0,0,0,1.22-.46,2.38,2.38,0,0,0,.85-2.28,1.61,1.61,0,0,0-.24-.57,1,1,0,0,0-.29-.32.8.8,0,0,0-.55,0,2.29,2.29,0,0,0-1.17.59,2.58,2.58,0,0,0-.83,2.38,1.88,1.88,0,0,0,1.85,1.46,2.33,2.33,0,0,0,2-1.06,1.61,1.61,0,0,0,.19-1.23,1.51,1.51,0,0,0-1-1,1,1,0,0,0-1.18.44.52.52,0,0,0,.18.69.51.51,0,0,0,.68-.18Z" transform="translate(-13.54 -2.27)"/>
  <g>
    <path class="cls-4" d="M123,46a55.26,55.26,0,0,1-.26-6.17c0-1,.06-2,.13-3,0-.48.07-1,.11-1.45,0-.24,0-.48.08-.72s0-.32,0-.22c.14-.41,0-.26-.58.44h-.8l.13,0a1.54,1.54,0,0,0,1.84-1,1.51,1.51,0,0,0-1-1.85c-1.65-.28-2.37,1-2.54,2.41-.15,1.28-.24,2.57-.29,3.86A55.56,55.56,0,0,0,120,46a1.5,1.5,0,1,0,3,0Z" transform="translate(-13.54 -2.27)"/>
    <path class="cls-4" d="M120.65,26.38a1.12,1.12,0,0,0-.05.13l.15-.35a1.63,1.63,0,0,1-.24.4l.24-.3a1.77,1.77,0,0,1-.34.33l.31-.23-.18.12,2.2.89a1.05,1.05,0,0,1,0-.19l.06.4a1,1,0,0,1,0-.24l-.06.4a1.82,1.82,0,0,1,.07-.25l-.15.36a.8.8,0,0,1,.13-.22l-.23.3a.85.85,0,0,1,.16-.17l-.3.24a.59.59,0,0,1,.17-.1l-.36.15h0l-1.84-1.85a.78.78,0,0,0,0,.14l.15-.36a2.12,2.12,0,0,1-.21.36l.23-.3a1.82,1.82,0,0,1-.31.31l.3-.24a1.28,1.28,0,0,1-.21.14l2.2.9a.83.83,0,0,1,0-.15l.06.4a.61.61,0,0,1,0-.19l0,.39a.61.61,0,0,1,0-.18l-.15.35a.6.6,0,0,1,.09-.15l-.24.31.09-.1-2.5-.66a1.21,1.21,0,0,1,0,.18l-.06-.39a.67.67,0,0,1,0,.2l0-.39a1.05,1.05,0,0,1-.06.24l.15-.36a.92.92,0,0,1-.13.21l.24-.3a1.29,1.29,0,0,1-.17.16l.31-.23-.18.1.36-.15-.15,0,1.69.69,0-.08.15.35a.85.85,0,0,1,0-.17l0,.4a.67.67,0,0,1,0-.2l0,.4a1,1,0,0,1,.06-.23l-.15.36a1,1,0,0,1,.14-.22l-.24.3a1.37,1.37,0,0,1,.17-.17l-.3.23a.82.82,0,0,1,.2-.12l-.36.15.19-.05-.4.06a.6.6,0,0,1,.19,0l-.4-.06h0l-.89-.69,0,.07-.15-.35a1.29,1.29,0,0,1,0,.21l0-.4a1.13,1.13,0,0,1,0,.26l0-.4a1.28,1.28,0,0,1-.07.28l.15-.36a1.2,1.2,0,0,1-.15.24l.24-.3a1.07,1.07,0,0,1-.19.18l.31-.23-.2.11.36-.15-.14,0,1.46.39-.06-.07.23.31a.61.61,0,0,1-.07-.14l.15.36a.83.83,0,0,1,0-.15l0,.4a.61.61,0,0,1,0-.19l0,.4a.59.59,0,0,1,0-.19l-.16.36a1.19,1.19,0,0,1,.09-.15l-.24.3.11-.11-.3.24.12-.07h-1.51l.06,0-.3-.23.12.12-.24-.3a.42.42,0,0,1,.09.14l-.15-.35a1.17,1.17,0,0,1,.06.2l-.06-.4a.6.6,0,0,1,0,.19l.06-.39a1.21,1.21,0,0,1,0,.18l.15-.36-.06.1,2.8.76a2.19,2.19,0,0,1,0-.36l0,.4a3.8,3.8,0,0,1,.25-.95l-2.74.36h0l-.15-.35a1.21,1.21,0,0,1,.05.18l-.06-.4a.38.38,0,0,1,0,.15l.06-.4,0,.1.15-.36a.3.3,0,0,1,0,.08l.23-.31,0,0,.3-.24,0,0,.35-.15h0l.4-.05h0l.4.05h0l.35.15h0l.3.23,0,0,.23.3,0-.06.15.36a.19.19,0,0,1,0-.08l0,.4v-.06l0,.4s0,0,0,0l-.15.36v0l-.24.31,0,0-.3.23h0l-.36.16h0l-.4.06a0,0,0,0,1,0,0l-.4-.06h0l-1.05-1.05a.29.29,0,0,1,0,.09l-.05-.39a.38.38,0,0,1,0,.15l.05-.4a1,1,0,0,1,0,.17l.15-.36-.09.15.23-.3-.12.12.3-.23-.15.08.36-.15-.13,0,.4-.05h-.14l.4.05h0a1.22,1.22,0,0,0-.6,0,1.16,1.16,0,0,0-.56.18,1.12,1.12,0,0,0-.42.39,1,1,0,0,0-.26.51l-.06.4a1.42,1.42,0,0,0,.21.75l.23.31a1.57,1.57,0,0,0,.66.38,2.09,2.09,0,0,0,.56.06,2.12,2.12,0,0,0,.89-.25l.14-.08a2.49,2.49,0,0,0,.43-.36,2.13,2.13,0,0,0,.31-.43,2.28,2.28,0,0,0,.21-.51,1.75,1.75,0,0,0,.06-.56,3.47,3.47,0,0,0-.06-.45s0,0,0-.05v0a1.15,1.15,0,0,0-.27-.51l-.11-.15a1.11,1.11,0,0,0-.49-.31.91.91,0,0,0-.2-.08c-.06,0-.35-.05-.41-.06h0a1.49,1.49,0,0,0-1.11.46l-.24.32h0a2.75,2.75,0,0,0-.15.36,1.19,1.19,0,0,0,0,.24,1.33,1.33,0,0,0,0,.68,1.77,1.77,0,0,0,.18.45l0,0a2.34,2.34,0,0,0,.24.31v0h0l.3.24a1.42,1.42,0,0,0,.4.17h0l.41.05a1.69,1.69,0,0,0,.85-.23,1.77,1.77,0,0,0,.88-1.53,2.16,2.16,0,0,0-.26-1.11l-.23-.3-.3-.23-.36-.16a1.11,1.11,0,0,0-.6,0,.72.72,0,0,0-.38.1.78.78,0,0,0-.33.19.87.87,0,0,0-.27.27,1.26,1.26,0,0,0-.27.51,3.63,3.63,0,0,0-.21.66,6.15,6.15,0,0,0-.13,1.05l0,.4a1.26,1.26,0,0,0,.27.51.87.87,0,0,0,.27.27,1.14,1.14,0,0,0,.51.27l.4.05.4-.05a1.26,1.26,0,0,0,.51-.27,1.18,1.18,0,0,0,.38-.42,2.07,2.07,0,0,0,.31-1.05.48.48,0,0,0,0-.17,2.61,2.61,0,0,0-.08-.55l-.1-.25c0-.08-.07-.17-.11-.25l0-.06a3.27,3.27,0,0,0-.28-.37l0,0c-.11-.1-.24-.19-.36-.28l0,0-.18-.08a1.27,1.27,0,0,0-.58-.13,1.62,1.62,0,0,0-.75.21l0,0a1.85,1.85,0,0,0-.88,1,1.18,1.18,0,0,0-.12.33,2.42,2.42,0,0,0,0,1.07,2.17,2.17,0,0,0,.51.91s0,0,0,.05l.3.23.36.16.4,0,.4,0a3.86,3.86,0,0,0,.51-.2,2.47,2.47,0,0,0,1-1,2.24,2.24,0,0,0,.27-.66,3.07,3.07,0,0,0,.07-.53.48.48,0,0,0,0-.17,3.55,3.55,0,0,0-.06-.47.24.24,0,0,0,0-.08,2.37,2.37,0,0,0-.2-.5.89.89,0,0,0-.13-.18l-.12-.15a1.08,1.08,0,0,0-.48-.31,1.47,1.47,0,0,0-.63-.14h-.17a2.53,2.53,0,0,0-1,.29,3.61,3.61,0,0,0-.44.33.8.8,0,0,0-.13.13,3.57,3.57,0,0,0-.34.43c-.09.16-.16.35-.23.51a1.05,1.05,0,0,0,0,.19,3.55,3.55,0,0,0-.06.47.27.27,0,0,0,0,.09,2.08,2.08,0,0,0,.07.55c0,.09.07.18.1.26a2.06,2.06,0,0,0,.12.26l.24.31a1.11,1.11,0,0,0,.48.31.72.72,0,0,0,.38.1,1.12,1.12,0,0,0,.6,0l.1,0,.43-.18a2.43,2.43,0,0,0,.46-.33l.14-.14c.1-.11.19-.24.28-.36l.06-.09a3.38,3.38,0,0,0,.22-.52,2.82,2.82,0,0,0,.09-.57.67.67,0,0,0,0-.2,2.43,2.43,0,0,0-.1-.59,1.49,1.49,0,0,0-.39-.66,1.51,1.51,0,0,0-1.46-.38,1.47,1.47,0,0,0-.66.38,1.87,1.87,0,0,0-.37.47,3.43,3.43,0,0,0-.19.44.36.36,0,0,0,0,.11,2.11,2.11,0,0,0,0,1.22,1.57,1.57,0,0,0,.38.66,1.11,1.11,0,0,0,.49.31A1.14,1.14,0,0,0,121,29a1.43,1.43,0,0,0,.76-.21,4.39,4.39,0,0,0,.56-.4,2.72,2.72,0,0,0,.24-.24,3.69,3.69,0,0,0,.4-.55,4.11,4.11,0,0,0,.28-.65,1.55,1.55,0,0,0,0-.8,1.49,1.49,0,0,0-.39-.66,1.45,1.45,0,0,0-.66-.38,1.55,1.55,0,0,0-.8,0,2.5,2.5,0,0,0-.5.23,3.27,3.27,0,0,0-.37.28l-.07.06a3.75,3.75,0,0,0-.35.44l-.09.17a3,3,0,0,0-.2.52,2.61,2.61,0,0,0-.08.56,2.69,2.69,0,0,0,.06.57,1.33,1.33,0,0,0,0,.19,1.44,1.44,0,0,0,.39.66,1,1,0,0,0,.48.31,1.06,1.06,0,0,0,.58.13,1.5,1.5,0,0,0,.75-.2,5.13,5.13,0,0,0,.58-.43,1.7,1.7,0,0,0,.22-.24,4.46,4.46,0,0,0,.41-.56,4.84,4.84,0,0,0,.28-.66,1.22,1.22,0,0,0,0-.6,1.16,1.16,0,0,0-.18-.56,1.31,1.31,0,0,0-.39-.42,1.14,1.14,0,0,0-.51-.27l-.4,0a1.42,1.42,0,0,0-.75.21l-.31.23a1.57,1.57,0,0,0-.38.66Z" transform="translate(-13.54 -2.27)"/>
  </g>
</svg>
