<?xml version="1.0" encoding="UTF-8"?>
<svg id="Layer_2" data-name="Layer 2" xmlns="http://www.w3.org/2000/svg" viewBox="0 0 216.1 121.43">
  <defs>
    <style>
      .cls-1 {
        fill: #92278f;
      }
    </style>
  </defs>
  <g id="Layer_1-2" data-name="Layer 1">
    <path class="cls-1" d="M27.31,2.61c7.65,4.13,15.31,8.24,22.97,12.34,5.5,2.94,11.01,5.88,16.54,8.79,3.74,1.98,7.49,3.94,11.25,5.89,3.29,1.7,6.59,3.36,9.89,5.04,6.96,3.53,13.82,7.23,20.71,10.88,6.34,3.35,12.79,6.51,19.31,9.5,7.54,3.46,15.2,6.62,22.92,9.63s15.08,5.8,22.65,8.62c6.96,2.6,13.92,5.16,20.9,7.7,4.4,1.6,8.8,3.19,13.2,4.78.46.16.92.33,1.38.49l.27-1.96c-13.26-.73-26.55-1.03-39.83-.84-11.63.17-23.25.75-34.89.77-10.51.02-21.01-.46-31.52-.51-9.87-.05-19.73.21-29.6.37-12.7.21-25.41.26-38.12.19-1.94-.01-3.88-.02-5.82-.04l1,1c.13-5.35.12-10.71,0-16.06s-.43-10.5-.73-15.75c-.62-10.92.16-21.84-.09-32.76-.15-6.31-.44-12.61-.88-18.91-.09-1.28-2.09-1.29-2,0,.82,11.57,1.14,23.17.82,34.77-.14,5.07-.19,10.13.06,15.2s.6,9.93.75,14.91c.19,6.2.22,12.41.07,18.61-.01.54.47,1,1,1,13.07.11,26.15.09,39.22-.08,10.16-.13,20.31-.44,30.47-.45,5.88,0,11.75.06,17.63.22,4.31.12,8.62.27,12.93.29,11.98.08,23.93-.43,35.89-.69,12.59-.27,25.19-.1,37.77.47,1.95.09,3.91.19,5.86.29,1.19.07,1.27-1.6.27-1.96-3.48-1.25-6.95-2.5-10.42-3.76-6.5-2.36-12.99-4.74-19.48-7.14-7.61-2.82-15.2-5.67-22.77-8.58-7.35-2.83-14.69-5.71-21.91-8.86-7.07-3.09-14.03-6.4-20.9-9.9s-13.67-7.28-20.55-10.83c-4.13-2.13-8.28-4.19-12.41-6.32-3.39-1.74-6.78-3.51-10.16-5.29-5.06-2.66-10.12-5.34-15.16-8.03-7.08-3.78-14.15-7.57-21.22-11.38-2.09-1.12-4.17-2.25-6.26-3.37-1.13-.61-2.14,1.12-1.01,1.73Z"/>
    <path class="cls-1" d="M.48,44.44c7.66-.93,13.71-6.89,21.43-7.46.64-.05.64-1.05,0-1-7.76.58-13.78,6.53-21.43,7.46-.63.08-.64,1.08,0,1H.48Z"/>
    <path class="cls-1" d="M8.25,47.32c2.25-.41,4.86-.9,7.03.12,1.12.53,1.8,1.48,1.59,2.75-.16.98-.71,1.9-1.33,2.66-2.31,2.84-5.95,4.18-8.34,6.95-.26.31-.14.69.22.84,4.17,1.7,8.62-.5,12.88.42.46.1.87-.48.49-.84-.22-.21-.44-.41-.66-.62-.47-.44-1.18.27-.71.71.22.21.44.41.66.62l.49-.84c-4.25-.91-8.76,1.26-12.88-.42l.22.84c2.18-2.51,5.33-3.85,7.66-6.19,1.15-1.15,2.17-2.64,2.33-4.3.18-1.94-1.25-3.24-2.97-3.78-2.25-.71-4.66-.29-6.93.11-.63.11-.36,1.08.27.96h0Z"/>
    <path class="cls-1" d="M148.9,83.76c-1.78-.52-2.85-2.09-3.58-3.7-.88-1.96-1.47-4.17-1.71-6.3-.44-3.85.73-8.53,4.7-10.1.59-.23.33-1.2-.27-.96-3.12,1.24-5,4.33-5.42,7.57-.27,2.05-.02,4.13.46,6.12.41,1.7.94,3.44,1.78,4.98s2.06,2.85,3.77,3.35c.62.18.88-.78.27-.96h0Z"/>
    <path class="cls-1" d="M6.1,23.54c.91,4.18,2.12,8.29,3.61,12.3.22.6,1.19.34.96-.27-1.49-4.01-2.7-8.12-3.61-12.3-.14-.63-1.1-.36-.96.27h0Z"/>
    <path class="cls-1" d="M29.86,71.6l11.87-.99-.48-.63c-1.29,4.97-2.04,10.07-2.25,15.2-.03.65.95.64,1,0,.04-.5.07-.99.11-1.49.05-.64-.95-.64-1,0-.04.5-.07.99-.11,1.49h1c.21-5.04.95-10.04,2.21-14.93.08-.29-.15-.66-.48-.63l-11.87.99c-.64.05-.64,1.05,0,1h0Z"/>
    <path class="cls-1" d="M99.24,12.51c2.37-3.44,5.42-6.33,9.03-8.44l-.73-.56c-1.37,7.09-2.15,14.28-2.3,21.49-.01.64.99.64,1,0,.14-7.13.91-14.23,2.26-21.23.08-.41-.34-.8-.73-.56-3.76,2.2-6.92,5.22-9.39,8.8-.37.53.5,1.03.86.5h0Z"/>
    <path class="cls-1" d="M99.6,26.24c4.29-.51,8.57-1.01,12.86-1.52.63-.07.64-1.08,0-1-4.29.51-8.57,1.01-12.86,1.52-.63.07-.64,1.08,0,1h0Z"/>
    <path class="cls-1" d="M29.61,26.47c1.4.97,3.19.66,4.7.12s3.04-1.29,4.43-2.19c2.74-1.78,5.09-4.17,6.83-6.94.99-1.58,1.77-3.29,2.33-5.08.19-.62-.77-.88-.96-.27-1.16,3.71-3.37,7.03-6.29,9.59-1.45,1.28-3.09,2.35-4.83,3.18-1.64.78-4,1.88-5.69.71-.53-.37-1.03.5-.5.86h0Z"/>
    <g>
      <path class="cls-1" d="M46.56,24.03l.26,9.66c.02.64,1.02.64,1,0l-.26-9.66c-.02-.64-1.02-.64-1,0h0Z"/>
      <path class="cls-1" d="M52.46,25.95l-.09-.34c-.15-.59-.91-.39-.98.13-.32,2.46-.24,4.95.2,7.39.11.63,1.08.36.96-.27-.42-2.35-.47-4.75-.17-7.12l-.98.13.09.34c.16.62,1.12.36.96-.27h0Z"/>
      <path class="cls-1" d="M44.06,26.89c-.12.13-.24.25-.35.38l.79.61c.36-.8.78-1.57,1.28-2.3.42-.6.94-1.6,1.77-1.11.34.2.62.46.97.64.48.25,1.01.45,1.55.57,1.36.31,2.79.2,3.97-.58.85-.56,1.53-1.34,2.07-2.2.35-.54-.52-1.05-.86-.5-.54.85-1.25,1.64-2.17,2.1-1.21.61-2.79.38-3.97-.21-.89-.45-1.68-1.4-2.76-.81-.61.33-1.05,1.04-1.43,1.6-.5.72-.92,1.49-1.28,2.3-.21.48.37,1.05.79.61.12-.13.24-.25.35-.38.44-.47-.26-1.18-.71-.71h0Z"/>
      <path class="cls-1" d="M43.25,39.71c.48.21.81.07,1.26-.15.59-.29,1.16-.62,1.73-.95,1.2-.69,2.39-1.42,3.61-2.09,2.41-1.31,5.02-2.35,7.81-2.19.64.03.64-.97,0-1-2.52-.14-4.95.64-7.19,1.75-1.14.56-2.24,1.21-3.33,1.85-.56.33-1.13.67-1.7.99-.3.17-.61.34-.91.5-.09.05-.71.45-.77.42-.58-.26-1.09.61-.5.86h0Z"/>
      <path class="cls-1" d="M48.48,40.19c.77-.11,1.55-.13,2.33-.06.73.06,1.57.18,2.24.49.19.09.52.24.55.48.04.25-.28.41-.46.5-.7.37-1.46.66-2.19.98-.24.11-.32.48-.18.68.37.57.94.9,1.51,1.24.51.31,1.16.72.85,1.41-.34.77-1.34,1.26-2.07,1.56-.91.38-1.87.55-2.85.54-.64,0-.64,1,0,1,1.14,0,2.27-.21,3.32-.66.94-.4,1.99-.99,2.47-1.94.41-.8.2-1.69-.47-2.27-.58-.5-1.46-.74-1.89-1.39l-.18.68c.53-.24,1.07-.47,1.6-.71.4-.18.82-.34,1.13-.65.61-.59.51-1.47-.12-2-.7-.6-1.75-.76-2.63-.89-1.07-.15-2.14-.14-3.21.02-.63.09-.36,1.05.27.96h0Z"/>
    </g>
    <path class="cls-1" d="M121.65,60.98c-.29,2.79-.41,5.59-.37,8.39,0,.64,1.01.64,1,0-.04-2.8.08-5.6.37-8.39.07-.64-.93-.63-1,0h0Z"/>
    <path class="cls-1" d="M126.25,60.83c-.18,2.33-.22,4.68-.13,7.02.03.64,1.03.64,1,0-.09-2.34-.05-4.68.13-7.02.05-.64-.95-.64-1,0h0Z"/>
    <path class="cls-1" d="M119.33,62.64c.44-1.09,1.37-2.16,2.66-2.04.58.05,1.1.38,1.62.59s1.12.35,1.71.41c2.54.26,4.9-.89,7.09-2.01.57-.29.07-1.16-.5-.86-2.48,1.27-5.4,2.67-8.18,1.44-1.07-.47-2.04-.77-3.18-.29s-1.76,1.43-2.19,2.51c-.24.6.73.86.96.27h0Z"/>
    <path class="cls-1" d="M117.66,72.98c1.52-.2,2.92-.77,4.35-1.32s2.81-1.08,4.23-1.56c2.93-.98,5.93-1.73,9.03-1.86.64-.03.64-1.03,0-1-3.03.12-5.98.81-8.86,1.75-1.43.47-2.84,1-4.24,1.54s-2.94,1.24-4.51,1.45c-.63.08-.64,1.08,0,1h0Z"/>
    <path class="cls-1" d="M126.06,70.68c-1.97.43-3.29,2.51-4.18,4.16-.51.96-.9,1.99-.98,3.08-.07.99.1,2.15.88,2.83,1.44,1.27,3.85.34,5.3-.45.83-.45,1.66-1.12,2-2.03.37-.97-.26-1.85-1.21-2.11-1.13-.31-2.41.2-3.43.64-1.11.48-2.13,1.15-3.03,1.97-.48.44.23,1.14.71.71,1.2-1.1,2.68-1.9,4.26-2.29.52-.13,2.15-.24,1.76.76-.27.68-.94,1.15-1.56,1.49-1.03.56-3.08,1.49-4.14.55-.6-.53-.61-1.58-.51-2.31.11-.82.43-1.61.82-2.33.44-.82.96-1.62,1.56-2.33.54-.65,1.17-1.19,2.02-1.37.63-.14.36-1.1-.27-.96h0Z"/>
    <path class="cls-1" d="M87.34,101.02l2-.31c.35-.05.7-.11,1.06-.16.46-.07.42.24.54.65.41,1.38.82,2.76,1.22,4.14.16.54.98.44.98-.13.02-4.28.06-8.6,1.23-12.75l-.48.37c3.68-.09,6.96-1.95,10.56-2.4.63-.08,1.83-.32,2.39.11.37.28.19.97.15,1.37-.05.49-.1.99-.15,1.48-.23,2.18-.51,4.35-.83,6.51-.09.63.87.9.96.27.35-2.33.65-4.68.89-7.02.09-.89.47-2.24-.07-3.05-.4-.61-1.19-.74-1.86-.76-4.17-.09-7.89,2.39-12.04,2.49-.22,0-.42.15-.48.37-1.19,4.23-1.24,8.65-1.26,13.01l.98-.13c-.27-.91-.54-1.81-.8-2.72-.13-.43-.26-.87-.38-1.3-.11-.36-.17-.79-.38-1.11-.38-.59-1.08-.41-1.66-.32l-2.82.44c-.63.1-.36,1.06.27.96h0Z"/>
    <path class="cls-1" d="M96.79,94.71c1.18-.11,2.74-.3,3.58.75.34.42.52,1.02.2,1.49s-.94.67-1.44.85c-.38.14-.46.53-.22.84.51.65,1.27.94,1.9,1.45.68.55.84,1.4.51,2.2-.79,1.88-3.3,1.95-5.01,1.98-.64.01-.64,1.01,0,1,2.15-.05,4.96-.29,5.92-2.6.38-.91.35-2.02-.26-2.82s-1.72-1.11-2.35-1.92l-.22.84c.75-.26,1.53-.57,1.99-1.25s.43-1.48.08-2.18c-.88-1.77-2.97-1.79-4.68-1.63-.64.06-.64,1.06,0,1h0Z"/>
    <path class="cls-1" d="M87.43,110.32c2.01-.2,3.91-.85,5.81-1.53s3.98-1.32,6.04-1.77c4.17-.92,8.45-1.23,12.71-.95.64.04.64-.96,0-1-4.19-.27-8.41.03-12.52.89-2.06.43-4.08,1.02-6.07,1.72s-3.9,1.44-5.97,1.64c-.63.06-.64,1.06,0,1h0Z"/>
    <path class="cls-1" d="M95.87,109.85c1.47.11,3.14.22,4.34,1.17s1.61,2.49.56,3.7-2.4,2.07-3.63,2.96c-1.37,1-2.78,1.93-4.23,2.81-.42.25-.25.94.25.93,4.21-.08,8.42-2.63,12.61-1.22.61.21.87-.76.27-.96-4.34-1.46-8.55,1.1-12.88,1.18l.25.93c1.78-1.08,3.5-2.24,5.16-3.5,1.27-.96,3.05-2.03,3.64-3.59.55-1.46-.19-3.05-1.35-3.98-1.4-1.13-3.28-1.29-5-1.42-.64-.05-.64.95,0,1h0Z"/>
  </g>
</svg>