<?xml version="1.0" encoding="UTF-8"?>
<svg id="Layer_2" data-name="Layer 2" xmlns="http://www.w3.org/2000/svg" viewBox="0 0 267.28 194.71">
  <defs>
    <style>
      .cls-1 {
        fill: #231f20;
      }

      .cls-2 {
        fill: #bcbec0;
      }

      .cls-3 {
        fill: #ed1c24;
      }

      .cls-4 {
        fill: #939598;
      }
    </style>
  </defs>
  <g id="Layer_1-2" data-name="Layer 1">
    <g>
      <path class="cls-4" d="M10.8,85.27c-1.87,1.66-3.69,3.37-5.45,5.14-.88.88-1.75,1.78-2.6,2.69-.79.85-1.77,1.71-2.35,2.72-.63,1.1-.42,2.22.42,3.13s1.89,1.79,2.83,2.67c1.94,1.83,3.88,3.65,5.82,5.48.94.88,2.35-.53,1.41-1.41-1.76-1.65-3.52-3.31-5.27-4.96-.91-.86-1.82-1.71-2.73-2.57-.25-.23-.86-.62-.88-1-.02-.32.4-.71.58-.92,2.99-3.39,6.26-6.55,9.64-9.55.96-.86-.45-2.27-1.41-1.41h0Z"/>
      <path class="cls-4" d="M219.52,93.31c2.94,2.31,5.94,4.53,9.06,6.6.46.3,1.43.86,1.44,1.5,0,.59-.91,1.11-1.32,1.42-1.55,1.19-3.06,2.41-4.56,3.65-2.2,1.82-4.67,3.28-7.06,4.83-1.08.7-.07,2.43,1.01,1.73,2.3-1.49,4.74-2.88,6.85-4.63,1.63-1.36,3.28-2.71,4.97-4,.79-.61,1.63-1.21,1.98-2.19s-.05-2.04-.74-2.8c-.57-.63-1.32-1.09-2.02-1.55s-1.37-.92-2.05-1.4c-2.08-1.46-4.11-2.99-6.12-4.56-.42-.33-1-.41-1.41,0-.35.35-.43,1.08,0,1.41h0Z"/>
      <path class="cls-4" d="M1.81,97.82c4.92-.24,9.84-.48,14.75-.72,4.89-.24,9.78-.46,14.68-.4,9.83.11,19.54,1.71,29.32,2.4s19.67.61,29.5.38c8.1-.19,16.19-.41,24.28-.49,3.6-.03,7.19-.08,10.79-.11,4.43-.04,8.85-.05,13.28-.04,5.37.01,10.74.07,16.11.16,6.42.11,12.85.28,19.27.5,7.59.26,15.18.59,22.76.98,8.87.46,17.74,1,26.6,1.61,2.37.16,4.73.33,7.1.5,1.28.09,1.28-1.91,0-2-9.19-.67-18.38-1.26-27.58-1.78-7.89-.44-15.77-.82-23.67-1.12-6.69-.26-13.39-.46-20.09-.61-5.61-.12-11.23-.2-16.85-.23-4.65-.03-9.29-.02-13.94,0-3.79.02-7.58.06-11.37.1-6.5.07-13,.16-19.5.33-9.84.26-19.68.53-29.52.18-4.91-.18-9.81-.55-14.7-1.05s-9.75-1.09-14.65-1.43c-9.8-.68-19.61,0-29.4.48-2.4.12-4.8.23-7.19.35-1.28.06-1.29,2.06,0,2h0Z"/>
    </g>
    <g>
      <path class="cls-4" d="M106.14,13.14c1.42-3.51,3.57-6.72,6.24-9.39.6-.6,1.32-1.46,2.15-1.7.77-.22,1.32.75,1.67,1.29.9,1.38,1.43,2.95,2.02,4.48.7,1.82,1.48,3.6,2.82,5.06.87.95,2.29-.47,1.41-1.41-2.57-2.79-2.78-6.96-5.1-9.93-.62-.8-1.42-1.51-2.49-1.53-1.13-.02-2.1.67-2.91,1.4-1.6,1.43-3.02,3.08-4.27,4.82-1.42,1.98-2.56,4.13-3.48,6.39-.2.5.22,1.1.7,1.23.57.16,1.03-.2,1.23-.7h0Z"/>
      <path class="cls-4" d="M113.09,1c-.37,8.36-.53,16.72-.47,25.09s.36,16.81.87,25.2c.33,5.46.75,10.92,1,16.39.2,4.4.32,8.8.47,13.2.1,2.85.18,5.71.24,8.57.13,5.58.23,11.16.28,16.74.07,7.3.08,14.61,0,21.91-.08,7.88-.25,15.75-.55,23.62-.2,5.19-.35,10.38-.41,15.57-.09,7.28-.05,14.57.13,21.85.03,1.19.06,2.38.1,3.57.04,1.28,2.04,1.29,2,0-.21-6.56-.3-13.12-.28-19.68s.14-12.52.37-18.78c.24-6.75.46-13.49.56-20.25.12-7.62.15-15.25.11-22.87-.03-6.07-.11-12.14-.24-18.21-.08-3.62-.17-7.24-.28-10.86-.13-3.91-.26-7.82-.4-11.73-.17-4.43-.45-8.86-.74-13.28-.54-8.24-.98-16.49-1.16-24.75s-.13-16.73.14-25.09c.07-2.07.15-4.14.24-6.21.06-1.29-1.94-1.28-2,0h0Z"/>
      <path class="cls-4" d="M108,180.76c1.53,2.12,2.87,4.41,3.82,6.85.45,1.14.8,2.32,1.14,3.49.29.99.54,2.21,1.24,3.01.54.63,1.43.79,2.1.27.54-.42.83-1.12,1.14-1.71.58-1.1,1.2-2.19,1.9-3.22.48-.71.95-1.23,1.42-1.95,1.41-2.15,2.01-4.71,2.16-7.25.08-1.29-1.92-1.28-2,0-.12,1.98-.56,3.95-1.55,5.69-.36.63-.75,1.12-1.13,1.63-.68.89-1.27,1.85-1.83,2.82-.41.72-.76,1.48-1.19,2.19-.06.09-.12.18-.18.27.04-.07.13-.1.03-.05-.15.07.08-.05.08-.05-.02,0,.12-.06.24-.06-.57-.03.46.08.36.13-.03.02-.06-.07-.09-.12-.52-.83-.7-1.96-.97-2.89-.31-1.03-.64-2.05-1.05-3.05-1.01-2.5-2.32-4.84-3.9-7.03-.32-.44-.87-.65-1.37-.36-.43.25-.68.93-.36,1.37h0Z"/>
    </g>
    <path class="cls-2" d="M186.88,98.88c.41-9.18-.74-18.4-3.32-27.22-.82-2.82-1.8-5.6-2.86-8.34-1.41-3.66-2.86-7.32-4.71-10.79-2.31-4.35-5.23-8.36-8.72-11.83s-7.98-6.41-12.43-8.94c-5.76-3.27-11.68-6.2-17.94-8.38-9.07-3.14-18.69-4.73-28.29-4.41-4.21.14-8.41.67-12.57,1.28-4.91.72-9.71,1.88-14.17,4.12s-7.93,5.22-11.4,8.47-6.75,6.82-9.74,10.56c-4.67,5.86-8.73,12.21-11.99,18.96-1.55,3.19-3,6.49-4.03,9.89-2.27,7.46-3.23,15.47-3.12,23.25.1,6.9,1.28,13.77,3.36,20.34,2.66,8.41,6.78,16.36,12.04,23.45s11.03,12.79,17.86,17.74,14.49,8.62,22.67,10.85c5.95,1.63,12.15,2.78,18.32,3.14,9.35.54,18.65-.65,27.33-4.26,6.22-2.59,11.96-6.15,17.15-10.45,5.99-4.96,11.12-10.86,15.12-17.53,3.8-6.32,6.6-13.23,8.49-20.35,1.35-5.08,2.24-10.28,2.69-15.51.12-1.35.2-2.69.26-4.04s-1.94-1.28-2,0c-.17,3.63-.52,7.2-1.08,10.65-1.02,6.21-2.69,12.33-5.05,18.17-2.97,7.33-7.13,14.22-12.42,20.12-4.12,4.6-8.84,8.58-13.99,11.89-7.07,4.54-15.01,7.73-23.36,8.9-6.17.87-12.52.71-18.67-.16-8.49-1.2-16.98-3.31-24.67-7.18-7.08-3.56-13.49-8.36-19.09-13.95-5.95-5.95-10.98-12.81-14.82-20.3s-6.73-16.39-7.73-25.15c-.71-6.21-.49-12.57.42-18.75.68-4.65,1.71-9.25,3.4-13.64.83-2.16,1.7-4.11,2.75-6.28,1.43-2.94,3.02-5.81,4.73-8.6,4.59-7.44,10.15-14.28,16.52-20.27,3.4-3.2,6.98-6.19,11.18-8.29s9.11-3.22,13.91-3.91c4.07-.59,8.16-1.07,12.28-1.18,5-.13,10.02.25,14.94,1.14,7.68,1.38,15.13,3.92,22.14,7.35,2.67,1.31,5.29,2.74,7.88,4.21,4.34,2.48,8.54,5.22,12.07,8.8s6.13,7.34,8.34,11.6c1.7,3.29,3.06,6.73,4.38,10.18,2.5,6.54,4.4,13.29,5.34,20.24.64,4.77.84,9.61.62,14.42-.06,1.29,1.94,1.28,2,0Z"/>
    <path class="cls-3" d="M196.71,94.86c1.24.97,2.48,1.95,3.7,2.96.35.29.7.58,1.04.89.12.11.31.22.23.34s-.32.2-.45.27c-.75.41-1.46.93-2.16,1.42-1.35.94-2.67,1.91-4,2.88-.51.38-.02,1.24.5.86,1.89-1.38,3.76-2.82,5.75-4.06.61-.38,1.59-.75,1.38-1.66-.16-.67-1.1-1.24-1.59-1.65-1.22-1.01-2.46-1.98-3.7-2.96-.5-.39-1.21.31-.71.71h0Z"/>
    <path class="cls-3" d="M202.23,98.53c-5.94-.03-11.89-.2-17.82-.53-5.31-.3-10.62-.75-15.93-1.16s-10.6-.84-15.92-.92c-2.07-.03-4.14,0-6.2.14-2.56.18-5.07.68-7.61,1.04-1.86.26-3.72.38-5.59.23s-3.7-.45-5.56-.56c-3.71-.22-7.45.13-11.07,1.01l.27.96c5.33-2.09,11.11-1.56,16.67-.93,2.83.32,5.66.67,8.51.75s5.81-.27,8.72-.81c1.52-.28,3.04-.53,4.59-.54s3.17.19,4.75.36c1.02.11,2.04.18,3.06.23,3.92.2,7.85.27,11.78.36,6.25.13,12.5.22,18.74.26.64,0,.64-1,0-1-9.89-.06-19.8-.14-29.68-.58-3.72-.16-7.45-.94-11.16-.45-3.01.4-5.91,1.13-8.96,1.18-2.88.05-5.75-.25-8.61-.57-6.21-.7-12.7-1.58-18.68.77-.59.23-.37,1.12.27.96,3.22-.78,6.53-1.13,9.84-1.02s6.56.86,9.88.62c2.92-.21,5.77-.9,8.68-1.19,1.99-.19,3.99-.25,5.99-.25,10.55.02,21.06,1.36,31.58,2,6.48.39,12.97.6,19.46.63.64,0,.64-1,0-1h0Z"/>
    <path class="cls-3" d="M189.49,94.86l2.28,2.04,1.14,1.02c.17.15.45.32.56.52s-.05.24-.21.37c-1.57,1.29-3.15,2.57-4.72,3.86-.5.41.21,1.11.71.71.91-.74,1.81-1.48,2.72-2.22.47-.39.95-.77,1.42-1.16.37-.3.88-.6,1.08-1.05s.01-.87-.29-1.21c-.37-.42-.84-.77-1.26-1.14l-2.72-2.44c-.48-.43-1.19.28-.71.71h0Z"/>
    <path class="cls-1" d="M184.78,97.58s-.09.06-.13.02l.08.61c.23-.44.5-.92.94-1.19.31-.19.79-.28,1.08-.02.34.3.13.78-.06,1.1-.27.45-.68.83-1.1,1.14-.64.47-1.78.97-2.22-.02-.32-.73-.04-1.57.53-2.08.36-.33.83-.56,1.29-.72.49-.18,1.02-.34,1.54-.42.16-.02.18-.04.21.08.03.16-.05.39-.11.53-.19.44-.54.85-.89,1.16-.33.29-.78.52-1.23.39-.33-.1-.56-.38-.68-.69-.33-.86.16-1.66.9-2.1.41-.24.88-.4,1.35-.45.28-.03.87-.06.97.29.06.22-.04.51-.09.72-.07.25-.16.5-.28.73-.23.45-.54.86-.91,1.2-.17.16-.35.3-.55.42-.17.11-.35.29-.5.09-.31-.39-.51-.95-.58-1.44-.13-.91.25-1.83,1.19-2.08.79-.21,1.45.3,1.4,1.13-.06.92-.78,1.79-1.54,2.24-.41.24-.93.4-1.36.1-.37-.27-.57-.76-.64-1.2-.13-.81.16-1.75.82-2.27s1.49-.43,2.08.08c.26.22.46.52.49.87.04.51-.29,1.01-.66,1.34-.33.3-.84.53-1.28.35-.31-.12-.64-.48-.44-.82.15-.25.5-.36.63-.04s0,.74-.15,1.03c-.09.17-.22.4-.42.48-.08.03-.09.02-.15.01-.11-.01-.05-.12-.07.03.04-.27-.07-.54-.35-.62-.23-.06-.58.08-.62.35-.11.81.64,1.44,1.43,1.2.69-.2,1.15-.98,1.3-1.64s.04-1.42-.56-1.83c-.63-.43-1.47-.13-1.87.47-.44.64-.24,1.48.33,1.98.62.54,1.46.59,2.19.26,1.36-.61,2.21-2.43,1.25-3.72-.8-1.08-2.37-1.47-3.53-.72s-1.67,2.27-1.38,3.61c.15.71.58,1.44,1.25,1.77.77.38,1.64.17,2.33-.28,1.15-.75,2.17-2.22,1.86-3.66s-1.99-1.86-3.19-1.23c-1.42.75-1.62,2.54-1.07,3.91.28.7.77,1.62,1.68,1.41.7-.17,1.38-.8,1.82-1.34.76-.93,1.97-3.27.37-4.01-.66-.3-1.44-.2-2.11,0s-1.38.59-1.84,1.17c-.85,1.06-.81,2.74.34,3.58,1.4,1.01,2.98-.32,3.69-1.51.32-.53.56-1.32.2-1.89-.47-.74-1.43-.41-2.11-.23-1.36.36-2.86,1.05-3.28,2.52-.34,1.19.12,2.73,1.47,3.01.85.18,1.69-.22,2.35-.72.62-.47,1.22-1.03,1.54-1.76s.29-1.52-.32-2.04c-.57-.48-1.39-.5-2.04-.19-.69.32-1.14,1-1.49,1.65-.1.18-.09.46.08.61.39.33.89.4,1.35.14.55-.33.05-1.19-.5-.86h0Z"/>
    <g>
      <path class="cls-1" d="M208.91,64.79c-2.86,2.62-3.61,6.67-3.82,10.38s.23,7.92,2.73,11.01c.4.5,1.11-.21.71-.71-2.31-2.87-2.64-6.76-2.43-10.3s.87-7.23,3.53-9.67c.48-.44-.23-1.14-.71-.71h0Z"/>
      <path class="cls-1" d="M214.09,69.59c-2.47,1.32-4.53,3.52-4.84,6.4-.14,1.27.07,2.72,1.09,3.58.77.64,1.78.87,2.76.9.74.02,1.5-.06,2.22-.24.63-.15.36-1.12-.27-.96-1.53.37-4.09.48-4.69-1.38-.47-1.47,0-3.18.8-4.44s2.07-2.27,3.42-2.99c.57-.3.06-1.17-.5-.86h0Z"/>
      <path class="cls-1" d="M215.78,77.58c-.37-.64.39-1.27.86-1.59.65-.44,1.41-.77,2.19-.87.27-.04.59-.06.73.22.15.3.21.71.21,1.05,0,.74-.5,1.16-1.17,1.35-.97.27-2.02.12-3,0-.27-.03-.5.25-.5.5,0,.3.23.47.5.5,1.12.14,2.31.29,3.41-.07,1.03-.34,1.75-1.12,1.77-2.23,0-.51-.1-1.1-.33-1.56-.25-.51-.76-.75-1.31-.76-1.01-.02-2.11.43-2.93.98-.97.64-1.98,1.79-1.28,3,.32.56,1.19.05.86-.5h0Z"/>
      <path class="cls-1" d="M223.84,73.08c-.66.27-1.33.73-1.65,1.4-.38.82.19,1.47.82,1.92.26.18.5.37.54.7.03.23-.05.45-.2.62-.37.42-1.01.56-1.53.67-.63.14-.36,1.1.27.96s1.26-.33,1.77-.74c.54-.44.8-1.13.65-1.81-.08-.37-.29-.7-.57-.94-.25-.21-.58-.37-.78-.62-.36-.46.59-1.05.95-1.19.25-.1.43-.33.35-.62-.07-.24-.36-.45-.62-.35h0Z"/>
      <path class="cls-1" d="M227.23,70.39c-1.03,1.3-1.36,3.09-1.51,4.7-.12,1.34-.24,3.17.97,4.06.52.38,1.02-.49.5-.86-.38-.28-.47-.89-.51-1.32-.06-.67-.02-1.36.05-2.02.13-1.26.39-2.83,1.2-3.85.4-.5-.31-1.21-.71-.71h0Z"/>
      <path class="cls-1" d="M230.71,72.07c-1.01.09-1.61,1.03-1.94,1.89-.35.92-.43,1.98-.15,2.92.14.46.38.92.81,1.16.58.32,1.25.12,1.74-.27.88-.71,1.17-1.95,1.33-3.01.08-.58.14-1.17-.17-1.7-.32-.57-.96-1-1.62-.99s-.64,1.01,0,1c.33,0,.64.26.78.55.04.08.06.19.07.28.01.19,0,.39-.03.58-.1.77-.26,1.64-.74,2.27-.18.23-.53.57-.86.44-.2-.08-.3-.37-.36-.59-.19-.67-.15-1.39.05-2.06.11-.36.27-.73.49-1.02.08-.11.26-.28.31-.31.03-.02.21-.12.15-.09.04-.02.23-.05.14-.04.27-.02.5-.21.5-.5,0-.25-.23-.52-.5-.5Z"/>
      <path class="cls-1" d="M233.28,71.74c.38.43.47,1.03.56,1.58.11.66.16,1.32.16,1.99s-.07,1.33-.24,1.97c-.12.47-.34,1.13-.93,1.12-.64,0-.64.99,0,1,1.79.02,2.1-2.33,2.16-3.67.04-.85-.03-1.7-.16-2.54-.12-.79-.31-1.54-.84-2.16-.42-.49-1.13.22-.71.71h0Z"/>
      <path class="cls-1" d="M235.53,78.46c-.46.97-.97,1.91-1.52,2.83-.13.22-.06.56.18.68s.54.06.68-.18c.55-.92,1.06-1.86,1.52-2.83.11-.24.07-.55-.18-.68-.22-.12-.56-.07-.68.18h0Z"/>
      <path class="cls-1" d="M243.69,70.71c-1.01.61-2.37,1.45-2.78,2.63-.45,1.28.78,2.22,1.91,2.41.77.12,3.15.15,2.36,1.57-.32.57-.91.96-1.45,1.3-.59.38-1.22.69-1.88.95-.59.23-.34,1.2.27.96,1.22-.47,2.55-1.12,3.46-2.09.82-.88,1.09-2.19.02-3-.47-.36-1.04-.49-1.62-.56-.62-.07-1.38-.04-1.88-.48-1.07-.95,1.42-2.41,2.09-2.82.55-.33.05-1.2-.5-.86h0Z"/>
      <path class="cls-1" d="M247.73,79.2l.15-3.87c.01-.27-.24-.5-.5-.5-.28,0-.49.23-.5.5l-.15,3.87c-.01.27.24.5.5.5.28,0,.49-.23.5-.5h0Z"/>
      <path class="cls-1" d="M248.28,76.22c0,.69.08,1.38.23,2.05.11.48.85.47.96,0,.12-.51.25-1.02.43-1.51.08-.21.18-.43.31-.64.07-.12.14-.24.23-.35,0,.01.07-.08.07-.08-.01.05-.22,0-.26-.04-.04-.03-.07-.13-.05-.04.01.04.02.09.03.13-.01-.07.01.12.01.11,0,.08.01.16.02.24.02.29.02.59.01.88-.02.58-.11,1.15-.25,1.71-.07.26.09.54.35.62s.55-.09.62-.35c.29-1.11.4-2.33.21-3.47-.04-.26-.18-.52-.41-.66-.32-.2-.7-.09-.97.15-.39.36-.64.91-.83,1.38-.22.53-.35,1.1-.49,1.66h.96c-.13-.59-.19-1.18-.2-1.78,0-.27-.23-.5-.5-.5s-.5.23-.5.5h0Z"/>
      <path class="cls-1" d="M255.24,69.67c-1.05,1.71-1.94,3.7-2.38,5.67s-.25,4.24,1.82,5.22c.58.27,1.09-.59.5-.86-1.86-.88-1.7-2.93-1.22-4.64s1.22-3.38,2.14-4.88c.34-.55-.53-1.05-.86-.5h0Z"/>
      <path class="cls-1" d="M257.12,72.2c-1.11.39-1.24,1.78-1.36,2.78-.08.63-.22,1.34-.05,1.97s.66,1.08,1.26,1.32c1.13.45,2.32-.07,2.93-1.08.51-.85.63-1.91.26-2.84-.43-1.11-1.71-2.52-3.04-2.15-.62.17-.36,1.14.27.96.32-.09.69.13.96.35.34.28.62.63.81,1.03.14.3.25.78.21,1.18-.01.14-.05.28-.09.42-.01.05-.03.09-.05.14,0,.02-.02.05-.03.07-.05.12.05-.1-.01.03-.29.61-.78,1.15-1.54,1.04-.37-.05-.78-.25-.94-.61-.19-.42-.05-.97,0-1.4.05-.52.11-1.05.25-1.56.06-.21.1-.34.22-.52.02-.04.04-.05.11-.12.03-.02.06-.04.09-.05.25-.09.42-.34.35-.62-.07-.25-.36-.44-.62-.35Z"/>
      <path class="cls-1" d="M260.79,70.02c1.66,1.3,2.37,3.22,2.02,5.31-.32,1.91-1.3,3.7-2.76,4.99-.48.43.23,1.13.71.71,1.66-1.46,2.76-3.56,3.06-5.75.32-2.32-.47-4.51-2.32-5.96-.5-.39-1.21.31-.71.71h0Z"/>
      <path class="cls-1" d="M263.3,66.99c2.09,1.51,2.97,4.17,2.97,6.67,0,3.1-1.26,6.05-2.43,8.87-.25.59.72.85.96.27,1.28-3.06,2.63-6.3,2.46-9.68-.14-2.7-1.22-5.36-3.45-6.98-.52-.38-1.02.49-.5.86h0Z"/>
    </g>
    <g>
      <path class="cls-1" d="M121.07,90.61c3.22-4.15,7.48-7.45,12.33-9.47.59-.24.33-1.21-.27-.96-5.02,2.09-9.44,5.43-12.77,9.73-.39.5.31,1.22.71.71h0Z"/>
      <g>
        <path class="cls-1" d="M120.22,87.47c-.13.77-.26,1.55-.38,2.32-.06.36-.11.73,0,1.08s.37.67.73.8c.75.27,1.35-.37,1.9-.77.3-.22.6-.42.91-.61.15-.09.29-.18.44-.26.09-.05.17-.1.26-.14.04-.02.08-.04.12-.06-.14.05-.26,0-.36-.18v-.27l.02-.04c-.15.23-.05.55.18.68.24.14.54.05.68-.18.27-.42-.06-.96-.53-.99-.38-.02-.75.24-1.06.43-.63.37-1.2.8-1.78,1.24-.11.08-.23.15-.35.21-.08.03-.03.02-.08.01-.02,0-.05-.04-.04-.02-.06-.07-.09-.11-.1-.23-.02-.14,0-.29.02-.43.12-.77.25-1.55.38-2.32.04-.27-.07-.54-.35-.62-.24-.07-.57.08-.62.35h0Z"/>
        <path class="cls-1" d="M138.68,73.73c-1.34,1.05-2,2.71-2.37,4.33-.19.86-.34,1.8.12,2.62.42.75,1.27,1.21,2.07,1.46.87.28,1.77.21,2.51-.35.7-.53,1.24-1.28,1.72-2.01.52-.78.94-1.61,1.28-2.48.3-.76.64-1.65.49-2.49-.18-1.02-1.13-1.49-2.09-1.55-1.16-.07-2.38.38-3.5.65-.63.15-.36,1.11.27.96.81-.19,1.61-.42,2.43-.56.58-.1,1.62-.16,1.88.53.22.58-.14,1.39-.34,1.93-.25.69-.58,1.35-.95,1.99s-.8,1.23-1.29,1.76-1.01.88-1.75.74c-.62-.12-1.38-.43-1.76-.96-.43-.59-.24-1.4-.09-2.05.33-1.45.89-2.89,2.1-3.83.51-.4-.21-1.1-.71-.71h0Z"/>
        <path class="cls-1" d="M146.42,70.68c-.46.48-.94,1.01-1.09,1.68-.13.57.01,1.22.43,1.64.48.49,1.25.51,1.8.11s.88-.95,1.08-1.56c.23-.68.21-1.46-.3-2.01-.18-.19-.53-.19-.71,0-.19.21-.19.5,0,.71.02.02.04.04.06.06-.01-.02-.05-.08,0,0,0,.02.02.03.03.05,0,.01.05.09.02.03-.02-.05.02.07.03.09s.01.05.02.08c.02.09,0-.05,0,0,0,.11,0,.21,0,.31,0,0-.01.08,0,.02.01-.07,0,.02,0,.04-.01.06-.02.11-.04.17-.03.11-.07.21-.11.31.03-.09-.02.03-.03.06-.03.06-.06.12-.09.17-.05.09-.11.18-.17.27-.02.03-.04.05-.05.07.05-.07,0,0,0,0-.04.05-.08.09-.12.13s-.09.08-.13.12c.07-.06-.03.02-.06.04-.04.03-.09.05-.13.07.09-.04.02,0,0,0-.03,0-.07.02-.1.03-.07.02.08,0,0,0-.02,0-.04,0-.06,0-.09,0-.02,0,0,0-.02,0-.05,0-.07-.02-.02,0-.04-.01-.05-.02-.06,0,.06.05.02,0,0-.01-.03-.02-.05-.03-.04-.03-.08-.08-.01,0-.02-.03-.06-.07-.09-.09-.04-.03.02.02.02.03-.01-.02-.03-.04-.04-.06-.03-.04-.05-.09-.07-.13,0,0,.03.09.01.03,0-.03-.02-.06-.03-.09-.01-.04-.02-.09-.03-.13,0-.02-.01-.1,0-.03s0-.01,0-.03c0-.04,0-.09,0-.13,0-.03,0-.05,0-.08,0,.04-.02.08,0,.02.02-.07.03-.13.05-.2.01-.03.02-.06.03-.09.03-.08-.05.1.02-.04.06-.12.13-.24.21-.35.01-.02.03-.04.04-.06-.04.06.02-.02.03-.04.05-.06.1-.11.14-.17.1-.11.2-.22.3-.33.18-.19.2-.52,0-.71s-.51-.2-.71,0h0Z"/>
        <path class="cls-1" d="M146.89,76.48c.49-.16.98-.3,1.48-.4s.95-.17,1.44-.22c.26-.02.51-.21.5-.5-.01-.25-.22-.53-.5-.5-1.09.1-2.16.32-3.19.66-.25.08-.44.35-.35.62.08.25.35.44.62.35h0Z"/>
      </g>
    </g>
    <g>
      <path class="cls-1" d="M188.56,87.63c-.21.84-.37,1.7-.48,2.56-.05.42-.09.84-.12,1.26-.02.38-.07.78.02,1.16.19.84,1.07,1.04,1.8.78.09-.03.17-.07.25-.1s-.07.03.02,0,.19-.08.29-.11c.23-.09.46-.17.69-.26.78-.31,1.54-.67,2.28-1.08.56-.32.06-1.18-.5-.86-.68.38-1.37.72-2.1,1-.25.1-.51.19-.76.29-.24.09-.47.23-.73.26-.31.04-.29-.19-.29-.45,0-.46.05-.92.1-1.38.1-.94.27-1.86.5-2.78.16-.62-.81-.89-.96-.27h0Z"/>
      <path class="cls-1" d="M189.68,92.76c1.53-3.22,4.02-5.84,6.33-8.5,1.26-1.44,2.51-2.89,3.77-4.33,1.19-1.36,2.39-2.74,3.85-3.81.51-.38.02-1.24-.5-.86-1.45,1.06-2.66,2.37-3.84,3.72-1.33,1.53-2.66,3.06-3.99,4.58-2.37,2.72-4.93,5.41-6.49,8.7-.27.58.59,1.09.86.5h0Z"/>
    </g>
  </g>
</svg>