<?xml version="1.0" encoding="UTF-8"?>
<svg id="Layer_2" data-name="Layer 2" xmlns="http://www.w3.org/2000/svg" viewBox="0 0 269.14 194.71">
  <defs>
    <style>
      .cls-1 {
        fill: #231f20;
      }

      .cls-2 {
        fill: #bcbec0;
      }

      .cls-3 {
        fill: #ed1c24;
      }

      .cls-4 {
        fill: none;
        stroke: #231f20;
        stroke-miterlimit: 10;
        stroke-width: .75px;
      }

      .cls-5 {
        fill: #939598;
      }
    </style>
  </defs>
  <g id="Layer_1-2" data-name="Layer 1">
    <g>
      <path class="cls-5" d="M10.8,85.27c-1.87,1.66-3.69,3.37-5.45,5.14-.88.88-1.75,1.78-2.6,2.69-.79.85-1.77,1.71-2.35,2.72-.63,1.1-.42,2.22.42,3.13s1.89,1.79,2.83,2.67c1.94,1.83,3.88,3.65,5.82,5.48.94.88,2.35-.53,1.41-1.41-1.76-1.65-3.52-3.31-5.27-4.96-.91-.86-1.82-1.71-2.73-2.57-.25-.23-.86-.62-.88-1-.02-.32.4-.71.58-.92,2.99-3.39,6.26-6.55,9.64-9.55.96-.86-.45-2.27-1.41-1.41h0Z"/>
      <path class="cls-5" d="M219.52,93.31c2.94,2.31,5.94,4.53,9.06,6.6.46.3,1.43.86,1.44,1.5,0,.59-.91,1.11-1.32,1.42-1.55,1.19-3.06,2.41-4.56,3.65-2.2,1.82-4.67,3.28-7.06,4.83-1.08.7-.07,2.43,1.01,1.73,2.3-1.49,4.74-2.88,6.85-4.63,1.63-1.36,3.28-2.71,4.97-4,.79-.61,1.63-1.21,1.98-2.19s-.05-2.04-.74-2.8c-.57-.63-1.32-1.09-2.02-1.55s-1.37-.92-2.05-1.4c-2.08-1.46-4.11-2.99-6.12-4.56-.42-.33-1-.41-1.41,0-.35.35-.43,1.08,0,1.41h0Z"/>
      <path class="cls-5" d="M1.81,97.82c4.92-.24,9.84-.48,14.75-.72,4.89-.24,9.78-.46,14.68-.4,9.83.11,19.54,1.71,29.32,2.4s19.67.61,29.5.38c8.1-.19,16.19-.41,24.28-.49,3.6-.03,7.19-.08,10.79-.11,4.43-.04,8.85-.05,13.28-.04,5.37.01,10.74.07,16.11.16,6.42.11,12.85.28,19.27.5,7.59.26,15.18.59,22.76.98,8.87.46,17.74,1,26.6,1.61,2.37.16,4.73.33,7.1.5,1.28.09,1.28-1.91,0-2-9.19-.67-18.38-1.26-27.58-1.78-7.89-.44-15.77-.82-23.67-1.12-6.69-.26-13.39-.46-20.09-.61-5.61-.12-11.23-.2-16.85-.23-4.65-.03-9.29-.02-13.94,0-3.79.02-7.58.06-11.37.1-6.5.07-13,.16-19.5.33-9.84.26-19.68.53-29.52.18-4.91-.18-9.81-.55-14.7-1.05s-9.75-1.09-14.65-1.43c-9.8-.68-19.61,0-29.4.48-2.4.12-4.8.23-7.19.35-1.28.06-1.29,2.06,0,2h0Z"/>
    </g>
    <g>
      <path class="cls-5" d="M106.14,13.14c1.5-3.7,3.81-7.07,6.69-9.83.5-.48,1.47-1.61,2.26-1.24.72.34,1.28,1.44,1.69,2.08.47.75.9,1.53,1.29,2.33.15.31.3.62.43.93.12.27.16.36.23.54.65,1.6,1.38,3.16,2.15,4.71.57,1.15,2.3.14,1.73-1.01-.49-.99-.97-1.99-1.42-3-.09-.2-.17-.39-.26-.59-.02-.05-.24-.56-.13-.3-.06-.15-.12-.31-.19-.46-.68-1.65-1.48-3.27-2.49-4.75-.58-.84-1.24-1.84-2.19-2.3-1.13-.54-2.34-.15-3.29.56-1.83,1.36-3.37,3.23-4.72,5.05-1.53,2.08-2.76,4.34-3.73,6.73-.2.5.22,1.1.7,1.23.57.16,1.03-.2,1.23-.7h0Z"/>
      <path class="cls-5" d="M113.09,1c-.37,8.36-.53,16.72-.47,25.09s.36,16.81.87,25.2c.33,5.46.75,10.92,1,16.39.2,4.4.32,8.8.47,13.2.1,2.85.18,5.71.24,8.57.13,5.58.23,11.16.28,16.74.07,7.3.08,14.61,0,21.91-.08,7.88-.25,15.75-.55,23.62-.2,5.19-.35,10.38-.41,15.57-.09,7.28-.05,14.57.13,21.85.03,1.19.06,2.38.1,3.57.04,1.28,2.04,1.29,2,0-.21-6.56-.3-13.12-.28-19.68s.14-12.52.37-18.78c.24-6.75.46-13.49.56-20.25.12-7.62.15-15.25.11-22.87-.03-6.07-.11-12.14-.24-18.21-.08-3.62-.17-7.24-.28-10.86-.13-3.91-.26-7.82-.4-11.73-.17-4.43-.45-8.86-.74-13.28-.54-8.24-.98-16.49-1.16-24.75s-.13-16.73.14-25.09c.07-2.07.15-4.14.24-6.21.06-1.29-1.94-1.28-2,0h0Z"/>
      <path class="cls-5" d="M107.9,180.53c1.03,3.02,2.18,6,3.45,8.93.48,1.11.97,2.23,1.58,3.28.35.6.76,1.23,1.34,1.63.92.63,1.89.33,2.57-.47,1.53-1.79,2.66-4,3.77-6.05,1.25-2.31,2.37-4.7,3.5-7.07.55-1.16-1.18-2.17-1.73-1.01-1.92,4.07-3.86,8.18-6.38,11.92-.1.15-.2.3-.31.45-.07.09-.13.18-.2.27.02-.03.1-.12-.02.02-.08.09-.16.18-.24.27-.13.14-.26.12-.02.04-.11.04-.26.07.07,0-.18.04.11-.01.15,0-.18,0-.1-.05.05.03-.24-.13.09.14-.05,0-.19-.19.05.07-.05-.02-.08-.08-.16-.16-.24-.24-.04-.04-.07-.08-.1-.12.12.15.02.03,0,0-.12-.17-.23-.34-.33-.52-.51-.86-.93-1.78-1.33-2.69-1.33-2.99-2.49-6.05-3.55-9.14-.41-1.21-2.35-.69-1.93.53h0Z"/>
    </g>
    <path class="cls-2" d="M186.88,98.88c.41-9.18-.74-18.4-3.32-27.22-.82-2.82-1.8-5.6-2.86-8.34-1.41-3.66-2.86-7.32-4.71-10.79-2.31-4.35-5.23-8.36-8.72-11.83s-7.98-6.41-12.43-8.94c-5.76-3.27-11.68-6.2-17.94-8.38-9.07-3.14-18.69-4.73-28.29-4.41-4.21.14-8.41.67-12.57,1.28-4.91.72-9.71,1.88-14.17,4.12s-7.93,5.22-11.4,8.47-6.75,6.82-9.74,10.56c-4.67,5.86-8.73,12.21-11.99,18.96-1.55,3.19-3,6.49-4.03,9.89-2.27,7.46-3.23,15.47-3.12,23.25.1,6.9,1.28,13.77,3.36,20.34,2.66,8.41,6.78,16.36,12.04,23.45s11.03,12.79,17.86,17.74,14.49,8.62,22.67,10.85c5.95,1.63,12.15,2.78,18.32,3.14,9.35.54,18.65-.65,27.33-4.26,6.22-2.59,11.96-6.15,17.15-10.45,5.99-4.96,11.12-10.86,15.12-17.53,3.8-6.32,6.6-13.23,8.49-20.35,1.35-5.08,2.24-10.28,2.69-15.51.12-1.35.2-2.69.26-4.04s-1.94-1.28-2,0c-.17,3.63-.52,7.2-1.08,10.65-1.02,6.21-2.69,12.33-5.05,18.17-2.97,7.33-7.13,14.22-12.42,20.12-4.12,4.6-8.84,8.58-13.99,11.89-7.07,4.54-15.01,7.73-23.36,8.9-6.17.87-12.52.71-18.67-.16-8.49-1.2-16.98-3.31-24.67-7.18-7.08-3.56-13.49-8.36-19.09-13.95-5.95-5.95-10.98-12.81-14.82-20.3s-6.73-16.39-7.73-25.15c-.71-6.21-.49-12.57.42-18.75.68-4.65,1.71-9.25,3.4-13.64.83-2.16,1.7-4.11,2.75-6.28,1.43-2.94,3.02-5.81,4.73-8.6,4.59-7.44,10.15-14.28,16.52-20.27,3.4-3.2,6.98-6.19,11.18-8.29s9.11-3.22,13.91-3.91c4.07-.59,8.16-1.07,12.28-1.18,5-.13,10.02.25,14.94,1.14,7.68,1.38,15.13,3.92,22.14,7.35,2.67,1.31,5.29,2.74,7.88,4.21,4.34,2.48,8.54,5.22,12.07,8.8s6.13,7.34,8.34,11.6c1.7,3.29,3.06,6.73,4.38,10.18,2.5,6.54,4.4,13.29,5.34,20.24.64,4.77.84,9.61.62,14.42-.06,1.29,1.94,1.28,2,0Z"/>
    <g>
      <g>
        <path class="cls-3" d="M197.25,91.34c1.36,1.47,2.71,2.94,4.07,4.41.68.73,1.36,1.47,2.03,2.2.42.46.98,1.03.91,1.71s-.64,1.18-1.1,1.58c-.49.43-1.01.84-1.51,1.26-1.27,1.09-2.55,2.17-3.94,3.11-1.06.72-.06,2.46,1.01,1.73,1.62-1.11,3.11-2.37,4.6-3.65,1.2-1.02,2.63-2,2.89-3.68.31-2.08-1.55-3.58-2.81-4.95-1.58-1.71-3.16-3.43-4.75-5.14-.88-.95-2.29.47-1.41,1.41h0Z"/>
        <path class="cls-3" d="M204.89,97.57c-6-.28-12-.45-18.01-.5s-11.41-.12-17.11-.45c-6.47-.38-12.93-.59-19.41-.47-4.74.09-9.47.31-14.2.63-3.37.23-6.73.43-10.11.37s-6.52-.28-9.76-.67c-.97-.12-1.17,1.12-.71,1.71,2.15,2.72,5.02,4.7,7.89,6.6,1.42.94,2.86,1.87,4.22,2.9,1.47,1.12,2.79,2.41,4.05,3.76,1.37,1.47,2.67,3,4.09,4.42s2.85,2.66,4.36,3.89c3.01,2.44,6.18,4.69,9.13,7.2,6.08,5.16,11.36,11.18,16.52,17.24,3.68,4.32,7.33,8.66,11,12.99,2.58,3.05,5.17,6.11,7.75,9.16.11.13.22.26.33.39.83.98,2.24-.44,1.41-1.41-2.35-2.77-4.7-5.55-7.05-8.32-3.36-3.97-6.72-7.94-10.08-11.91-5.16-6.09-10.34-12.21-16.26-17.6-2.89-2.63-6-4.97-9.08-7.36s-6.07-4.97-8.73-7.9c-1.32-1.45-2.62-2.94-4.06-4.28-1.29-1.2-2.7-2.25-4.15-3.25-2.79-1.91-5.76-3.61-8.19-5.98-.62-.61-1.21-1.25-1.75-1.94l-.71,1.71c5.95.72,11.93.84,17.91.44,4.62-.31,9.24-.59,13.87-.72,6.69-.18,13.38-.11,20.06.31,5.74.36,11.48.51,17.23.54,6.51.04,13.02.21,19.53.51,1.29.06,1.28-1.94,0-2h0Z"/>
        <path class="cls-3" d="M172.74,163.24l13.03,4.89c.61.23,1.28-.36,1.27-.96-.14-4.86-.29-9.72-.43-14.58-.04-1.28-2.04-1.29-2,0,.14,4.86.29,9.72.43,14.58l1.27-.96-13.03-4.89c-.51-.19-1.1.21-1.23.7-.15.56.19,1.04.7,1.23h0Z"/>
        <path class="cls-3" d="M130.88,98.2c-.22-5.48-2.33-10.85-6.52-14.52-2.25-1.97-5.08-3.08-8.08-3.07s-5.81.93-8.19,2.57c-5.22,3.6-6.81,10.11-5.92,16.12.47,3.21,1.69,6.3,3.77,8.82,1.94,2.36,4.69,4.08,7.65,4.85,3.34.87,6.97.39,10.15-.9,1.79-.73,3.61-1.7,5.01-3.05.93-.9-.49-2.31-1.41-1.41-.12.12-.25.23-.38.34-.05.04-.36.29-.18.15-.15.11-.3.23-.46.33-.74.52-1.52.97-2.33,1.36-2.31,1.12-4.97,1.74-7.54,1.62-2.76-.14-5.51-1.31-7.58-3.14s-3.53-4.4-4.27-7.13c-1.39-5.14-.81-11.33,3.22-15.18,3.67-3.49,9.7-4.53,14.03-1.69,2.49,1.63,4.41,4.28,5.55,6.99.93,2.2,1.39,4.57,1.48,6.95.05,1.28,2.05,1.29,2,0h0Z"/>
      </g>
      <g>
        <path class="cls-3" d="M75.62,75.58l5.16-3.11c.27-.17.88-.7,1.24-.6.29.09.27.51.25.74-.07.89-.36,1.81-.61,2.67-.98,3.44-2.48,6.79-2.46,10.42,0,.41.56.69.85.35.14-.16.29-.32.43-.48.43-.48-.28-1.19-.71-.71-.14.16-.29.32-.43.48l.85.35c-.03-4.29,2.15-8.15,2.94-12.28.13-.69.27-1.48-.21-2.08s-1.25-.53-1.88-.2c-2.03,1.07-3.97,2.39-5.94,3.58-.55.33-.05,1.2.5.86h0Z"/>
        <path class="cls-3" d="M87.48,71.24c-.38,2.34-.54,4.7-.45,7.07.02.64,1.02.64,1,0-.08-2.28.05-4.55.41-6.8.1-.63-.86-.9-.96-.27h0Z"/>
        <path class="cls-3" d="M90.14,69.94c.19,2.13.22,4.27.12,6.41-.03.64.97.64,1,0,.11-2.14.07-4.28-.12-6.41-.06-.64-1.06-.64-1,0h0Z"/>
        <path class="cls-3" d="M84.95,73.3c3.19-2.07,6.52-3.91,9.96-5.52.58-.27.08-1.13-.5-.86-3.44,1.61-6.78,3.45-9.96,5.52-.54.35-.04,1.22.5.86h0Z"/>
        <path class="cls-3" d="M94.23,72.93c-3.66,5.75-8.82,10.49-11.89,16.63-.29.57.58,1.08.86.5,3.07-6.14,8.22-10.88,11.89-16.63.35-.54-.52-1.05-.86-.5h0Z"/>
        <path class="cls-3" d="M91.89,80.36l-2.59,4.1c-.11.17-.09.47.08.61.57.46,1.25.43,1.94.29.94-.19,1.88-.45,2.81-.68,1.87-.47,3.72-.97,5.57-1.51.62-.18.35-1.14-.27-.96-1.61.47-3.22.91-4.84,1.32-.8.2-1.59.4-2.39.6-.48.12-1.66.61-2.12.24l.08.61,2.59-4.1c.34-.55-.52-1.05-.86-.5h0Z"/>
        <path class="cls-3" d="M96.08,79.43c-1.36,3.61-1.73,7.49-1.06,11.29.11.63,1.08.36.96-.27-.64-3.62-.24-7.32,1.06-10.76.23-.6-.74-.86-.96-.27h0Z"/>
      </g>
    </g>
    <path class="cls-1" d="M168.82,146.67s-.09.06-.13.02l.08.61c.23-.44.5-.92.94-1.19.31-.19.79-.28,1.08-.02.34.3.13.78-.06,1.1-.27.45-.68.83-1.1,1.14-.64.47-1.78.97-2.22-.02-.32-.73-.04-1.57.53-2.08.36-.33.83-.56,1.29-.72.49-.18,1.02-.34,1.54-.42.16-.02.18-.04.21.08.03.16-.05.39-.11.53-.19.44-.54.85-.89,1.16-.33.29-.78.52-1.23.39-.33-.1-.56-.38-.68-.69-.33-.86.16-1.66.9-2.1.41-.24.88-.4,1.35-.45.28-.03.87-.06.97.29.06.22-.04.51-.09.72-.07.25-.16.5-.28.73-.23.45-.54.86-.91,1.2-.17.16-.35.3-.55.42-.17.11-.35.29-.5.09-.31-.39-.51-.95-.58-1.44-.13-.91.25-1.83,1.19-2.08.79-.21,1.45.3,1.4,1.13-.06.92-.78,1.79-1.54,2.24-.41.24-.93.4-1.36.1-.37-.27-.57-.76-.64-1.2-.13-.81.16-1.75.82-2.27s1.49-.43,2.08.08c.26.22.46.52.49.87.04.51-.29,1.01-.66,1.34-.33.3-.84.53-1.28.35-.31-.12-.64-.48-.44-.82.15-.25.5-.36.63-.04s0,.74-.15,1.03c-.09.17-.22.4-.42.48-.08.03-.09.02-.15.01-.11-.01-.05-.12-.07.03.04-.27-.07-.54-.35-.62-.23-.06-.58.08-.62.35-.11.81.64,1.44,1.43,1.2.69-.2,1.15-.98,1.3-1.64s.04-1.42-.56-1.83c-.63-.43-1.47-.13-1.87.47-.44.64-.24,1.48.33,1.98.62.54,1.46.59,2.19.26,1.36-.61,2.21-2.43,1.25-3.72-.8-1.08-2.37-1.47-3.53-.72s-1.67,2.27-1.38,3.61c.15.71.58,1.44,1.25,1.77.77.38,1.64.17,2.33-.28,1.15-.75,2.17-2.22,1.86-3.66s-1.99-1.86-3.19-1.23c-1.42.75-1.62,2.54-1.07,3.91.28.7.77,1.62,1.68,1.41.7-.17,1.38-.8,1.82-1.34.76-.93,1.97-3.27.37-4.01-.66-.3-1.44-.2-2.11,0s-1.38.59-1.84,1.17c-.85,1.06-.81,2.74.34,3.58,1.4,1.01,2.98-.32,3.69-1.51.32-.53.56-1.32.2-1.89-.47-.74-1.43-.41-2.11-.23-1.36.36-2.86,1.05-3.28,2.52-.34,1.19.12,2.73,1.47,3.01.85.18,1.69-.22,2.35-.72.62-.47,1.22-1.03,1.54-1.76s.29-1.52-.32-2.04c-.57-.48-1.39-.5-2.04-.19-.69.32-1.14,1-1.49,1.65-.1.18-.09.46.08.61.39.33.89.4,1.35.14.55-.33.05-1.19-.5-.86h0Z"/>
    <g>
      <path class="cls-1" d="M181.24,137.39c-1.33,1.18-2.61,2.43-3.82,3.74-.6.65-1.18,1.31-1.75,1.99-.2.24-.51.52-.41.88s.44.45.74.54c3.02.87,6.38.93,9.08,2.67.54.35,1.05-.52.5-.86-1.39-.89-2.98-1.37-4.58-1.73-.83-.19-1.67-.34-2.5-.51-.42-.09-.83-.17-1.25-.27-.21-.05-.41-.1-.61-.15-.04-.01-.54-.15-.48-.07l.05.39c.05-.2.47-.54.61-.71.23-.27.46-.53.7-.8.45-.51.91-1,1.39-1.49.97-1.01,1.98-1.97,3.02-2.9.48-.43-.23-1.13-.71-.71h0Z"/>
      <path class="cls-1" d="M176.98,144.29c6.81-3.64,14.22-6.06,21.85-7.25.63-.1.36-1.06-.27-.96-7.71,1.2-15.2,3.67-22.09,7.35-.57.3-.06,1.17.5.86h0Z"/>
      <g>
        <path class="cls-1" d="M207.43,121.48c-2.04,2.2-3.75,4.72-4.94,7.48-.58,1.35-1.07,2.76-1.37,4.2s-.35,3.04.37,4.39c.67,1.26,1.9,2.18,3.3,2.48.47.1.67-.62.2-.72-1.16-.25-2.17-.96-2.77-1.99-.72-1.24-.64-2.72-.35-4.07.57-2.65,1.7-5.17,3.15-7.45.86-1.35,1.85-2.61,2.94-3.79.33-.35-.2-.89-.53-.53h0Z"/>
        <path class="cls-1" d="M208.85,129.16c-.8.36-1.48.94-2.1,1.56-.58.58-1.13,1.21-1.46,1.97s-.38,1.66.01,2.45c.34.68.96,1.19,1.66,1.48.96.4,2.02.34,3.03.27.2-.01.38-.16.38-.38,0-.19-.17-.39-.38-.38-1.37.09-3.07.16-3.91-1.15s.16-2.68,1.07-3.6c.61-.62,1.28-1.2,2.08-1.57.18-.08.23-.35.13-.51-.11-.19-.33-.22-.51-.13h0Z"/>
        <path class="cls-1" d="M211.88,135.16c-.02-.17-.02-.35,0-.52,0-.02,0-.04,0-.06,0,.12,0,.04,0,.01,0-.04.02-.09.02-.13.02-.09.05-.19.08-.28.01-.04.03-.08.04-.12.03-.07-.04.08,0,0,0-.02.02-.04.03-.06.04-.08.08-.15.12-.22.02-.03.05-.07.07-.1-.05.09-.03.04,0,.01.01-.02.03-.03.04-.05.03-.03.05-.06.08-.09.01-.01.03-.03.04-.04.08-.06-.05.03,0,0,.03-.02.06-.04.1-.06s.15-.06.03-.02c.04-.01.07-.03.11-.04.02,0,.04-.01.06-.02.01,0,.03,0,.04,0-.06,0-.07,0-.03,0,.04,0,.07,0,.11,0,.02,0,.04,0,.06,0,.08,0-.09-.02-.02,0,.09.02.17.05.26.08-.1-.03-.04-.02-.01,0,.02,0,.04.02.06.03.04.02.07.04.11.06s.07.04.1.07c.02.01.03.02.05.04-.1-.07-.02-.01,0,0,.11.09.21.19.31.3.04.04.07.08.11.12.01.02.03.03.04.05,0,0,.01.01.02.02.04.05-.07-.09-.01-.01.07.09.13.19.19.28.03.05.06.1.08.15.01.03.02.05.04.08.02.04.02.03,0-.01,0,.02.01.04.02.05.04.1.06.2.08.3.02.09,0-.08,0,.01,0,.03,0,.06,0,.08s0,.06,0,.08c0,.02,0,.04,0,.06,0,.04,0,.04,0-.01,0,0-.03.12-.03.13,0,.02-.01.04-.02.06-.02.07.04-.08,0-.01-.02.04-.04.07-.06.11-.01.02-.02.03-.03.05-.06.08.04-.05,0,0-.05.06-.1.11-.16.16-.01.01-.03.02-.04.04.08-.08.04-.03.02-.01-.03.02-.06.04-.09.06-.06.04-.12.07-.18.1-.03.01-.06.03-.08.04-.01,0-.03.01-.04.02-.06.03.1-.04.03-.01-.17.07-.35.13-.54.16-.02,0-.03,0-.05,0-.1.02.08,0,0,0-.05,0-.09,0-.14.01-.05,0-.1,0-.14,0-.02,0-.04,0-.06,0-.11,0,.06.01,0,0-.05,0-.1-.02-.15-.03-.02,0-.04-.01-.07-.02-.01,0-.03-.01-.04-.02-.04-.01-.03-.01.03.01,0-.02-.11-.06-.13-.07s-.04-.03-.06-.04c-.03-.02-.03-.02.02.01-.01-.01-.03-.02-.04-.03-.05-.04-.09-.09-.13-.13-.06-.06.04.07,0,0-.02-.03-.04-.05-.05-.08-.03-.05-.05-.1-.08-.14-.02-.04-.01-.08,0,0,0-.03-.02-.05-.03-.08-.03-.08-.05-.17-.07-.25,0-.03-.01-.07-.02-.1s0-.09,0,.05c0-.01,0-.02,0-.04-.01-.1-.03-.19-.11-.27-.07-.07-.17-.11-.27-.11-.18,0-.4.17-.38.38.05.42.17.81.45,1.15.32.39.82.58,1.32.56.28,0,.55-.07.81-.16.32-.11.61-.26.86-.48.36-.32.55-.8.49-1.28-.06-.53-.33-.97-.65-1.38-.47-.59-1.26-1.16-2.05-.85-.85.33-1.23,1.32-1.23,2.17,0,.09,0,.18.02.28.01.1.03.19.11.27.07.07.17.11.27.11.18,0,.4-.17.38-.38Z"/>
        <path class="cls-1" d="M217.45,131.81c-.54.1-1.04.38-1.41.77-.4.42-.84,1.1-.54,1.69.15.28.44.45.69.62.24.16.53.34.73.5.1.08.16.15.22.25.03.05.05.17.05.24,0,.05,0,.1,0,.15,0-.06,0,.02,0,.03,0,.03-.01.06-.02.09-.01.05-.03.1-.05.15.02-.05-.01.02-.02.03-.02.03-.04.07-.06.1-.07.12-.11.16-.23.26-.08.07-.22.16-.34.22-.24.12-.55.2-.84.28-.2.05-.32.27-.26.46s.27.31.46.26c.56-.15,1.14-.33,1.57-.75.39-.38.6-.96.51-1.5-.1-.65-.69-.97-1.18-1.31-.13-.09-.26-.17-.38-.26-.02-.02-.04-.03-.07-.05-.1-.07.02.02-.04-.03-.03-.02-.05-.05-.07-.07.03.04-.03-.06-.03-.06.01.04,0-.06,0-.04,0,.04,0-.03,0-.03,0,.04,0-.05.01-.06,0-.04.02-.07.03-.11.04-.1.12-.22.18-.31.29-.42.75-.71,1.27-.81.2-.04.31-.28.26-.46-.06-.21-.26-.3-.46-.26h0Z"/>
        <path class="cls-1" d="M221.31,128.37c.84-.24,1.69-.48,2.54-.66l-.47-.36c0,.17-.02.35-.03.52,0,.09-.02.19-.03.28,0,.04,0,.07-.01.11,0,.02,0,.05,0,.07,0-.04,0-.03,0,.01-.06.43-.15.85-.26,1.27s-.24.79-.4,1.17c0,.02-.02.04-.03.07.01-.03.01-.03,0,0-.01.03-.03.06-.04.1-.04.08-.07.16-.11.25-.07.15-.15.3-.22.44-.09.17-.05.42.13.51.17.09.41.05.51-.13.77-1.44,1.2-3.05,1.26-4.68,0-.26-.25-.41-.47-.36-.86.18-1.7.42-2.54.66-.19.05-.32.27-.26.46s.26.32.46.26h0Z"/>
        <path class="cls-1" d="M225.59,127.84l-.35,3.12c-.02.2.19.38.38.38.22,0,.35-.17.38-.38l.35-3.12c.02-.2-.19-.38-.38-.38-.22,0-.35.17-.38.38h0Z"/>
        <path class="cls-1" d="M227.29,127.43c0,.67-.05,1.34-.13,2.01v-.1c-.01.2-.05.4-.08.61-.02.1-.02.2.04.29.05.08.13.15.22.17.18.04.42-.06.46-.26.16-.9.24-1.81.24-2.72,0-.2-.17-.38-.38-.38s-.37.16-.38.38h0Z"/>
        <path class="cls-1" d="M225.25,128.61c.32-.19.65-.37.99-.54.17-.08.34-.16.51-.23,0,0,.11-.04.05-.02.05-.02.09-.04.14-.06.09-.04.17-.07.26-.1.7-.26,1.42-.46,2.15-.6.19-.04.32-.28.26-.46-.07-.21-.25-.3-.46-.26-1.51.28-2.97.84-4.29,1.63-.17.1-.25.34-.13.51s.33.24.51.13h0Z"/>
        <path class="cls-1" d="M222.04,133.51c1.27-.49,2.61-.78,3.97-.83s2.7.04,3.97-.43c.19-.07.32-.25.26-.46-.05-.18-.27-.33-.46-.26-1.26.46-2.6.34-3.91.41-1.38.07-2.74.36-4.02.85-.19.07-.32.25-.26.46.05.18.27.33.46.26h0Z"/>
        <path class="cls-1" d="M224.81,133.29l-.6,1.15c-.11.2-.25.42-.29.65-.04.29.11.55.39.64.17.06.36.04.54,0,.21-.04.41-.09.62-.13.09-.02.19-.03.28-.04.08-.01.02,0,0,0,.02,0,.05,0,.07,0,.06,0,.12-.01.18-.02.21-.02.42-.04.63-.04.47-.02.95,0,1.42.06.2.02.38-.19.38-.38,0-.22-.17-.35-.38-.38-.76-.09-1.52-.08-2.28.01-.39.05-.77.13-1.15.21,0,0-.04,0-.05,0,.04-.03.07,0,.03,0-.01,0-.09,0-.09,0,0,0,.09.02.03,0-.03,0-.04-.02.03.02-.02,0-.03-.03,0,0,.01.01.07.1.04.04.01.02.03.05.03.08,0,.05-.02.02,0,0,0,0-.04.08,0,0,.01-.02.02-.04.03-.06.05-.09.09-.18.14-.26l.62-1.18c.09-.17.05-.42-.13-.51-.17-.09-.42-.05-.51.13h0Z"/>
        <path class="cls-1" d="M226.29,133.68c-.48,1.53-.76,3.13-.84,4.73-.01.2.18.38.38.38.21,0,.36-.16.38-.38.08-1.54.35-3.04.82-4.53.06-.19-.07-.42-.26-.46-.2-.05-.4.06-.46.26h0Z"/>
        <path class="cls-1" d="M229.74,125.56c1.96,3.89,1.96,8.67,0,12.56-.22.43.43.81.65.38,1.62-3.21,1.99-6.99,1.08-10.46-.26-.99-.63-1.94-1.09-2.85-.22-.43-.86-.05-.65.38h0Z"/>
        <path class="cls-1" d="M233.86,136.52l-1.43,3.21c-.08.18-.06.41.13.51.16.09.43.06.51-.13l1.43-3.21c.08-.18.06-.41-.13-.51-.16-.09-.43-.06-.51.13h0Z"/>
        <path class="cls-1" d="M239.26,128.84c-.99.02-1.96.61-2.33,1.54s.29,1.82,1.13,2.21c.74.35,1.78.4,2.26,1.14.4.61.38,1.46-.04,2.05-.51.71-1.49.99-2.32.8-.47-.11-.67.62-.2.72.87.2,1.82.04,2.54-.5s1.12-1.36,1.05-2.26-.57-1.68-1.41-2.06c-.43-.2-.89-.31-1.33-.47-.35-.13-.73-.34-.93-.67-.26-.42-.03-.89.28-1.21.34-.35.81-.54,1.29-.55s.48-.76,0-.75h0Z"/>
        <path class="cls-1" d="M242.68,135.99c0-.07.02-.14.03-.21,0-.02.01-.11,0-.02,0-.03,0-.06.01-.09.02-.13.04-.26.06-.39.04-.26.08-.51.13-.77.09-.52.19-1.03.31-1.54.04-.19-.06-.41-.26-.46-.19-.04-.42.06-.46.26-.24,1.07-.42,2.15-.56,3.23-.01.09.05.21.11.27.07.07.17.11.27.11s.2-.04.27-.11c.07-.08.1-.16.11-.27h0Z"/>
        <path class="cls-1" d="M243.63,132.46c-.05,1.27-.03,2.54.06,3.8.01.2.16.38.38.38s.36-.16.38-.38c0-.14.02-.28.03-.42,0-.04,0-.07.01-.1-.01.08,0-.03,0-.04.01-.07.02-.14.03-.21.05-.28.12-.55.2-.82.04-.12.08-.25.12-.37.02-.07.05-.13.08-.2,0,0,.05-.11.02-.04.02-.04.04-.09.06-.13.11-.25.24-.49.37-.72.07-.12.15-.24.22-.35.02-.03.04-.05.06-.08-.04.06,0,0,.01-.01.05-.05.1-.1.15-.15.07-.07-.06.03.03-.02.03-.02.05-.03.08-.05.08-.05-.07.01.02,0,.02,0,.05-.01.07-.02.05-.02-.09,0,0,0,.02,0,.07-.01.09,0h-.04s.04,0,.06,0c.04.01.04.01-.01,0,.02,0,.03.02.05.03-.07-.04,0,0,.01.02-.06-.05,0,0,0,.02,0,.02.02.03.03.05-.04-.08,0,0,0,.02.02.06.03.12.04.18,0,.01.02.11,0,.03,0,.05.01.1.02.15.03.29.05.58.05.88,0,.34-.02.69-.06,1.03,0,.04,0,.08-.01.11,0-.07-.01.08-.01.09-.01.08-.02.15-.04.23-.03.18-.07.35-.11.52-.05.19.06.42.26.46s.41-.06.46-.26c.16-.67.25-1.36.26-2.04,0-.34-.01-.67-.05-1.01s-.07-.7-.31-.97-.62-.33-.95-.23c-.34.1-.59.36-.79.64-.37.51-.65,1.1-.86,1.69-.24.68-.38,1.39-.42,2.11h.75c-.09-1.27-.11-2.54-.06-3.8,0-.2-.18-.38-.38-.38-.21,0-.37.16-.38.38h0Z"/>
        <path class="cls-1" d="M251.46,125.54c-1.2,1.74-2.24,3.61-2.83,5.65-.54,1.85-1.04,3.91-.33,5.79.38,1.01,1.05,1.85,1.9,2.5.16.12.42.02.51-.13.12-.19.03-.39-.13-.51-.67-.52-1.23-1.21-1.54-2-.34-.87-.39-1.8-.3-2.72s.34-1.76.58-2.62c.27-.94.63-1.85,1.07-2.73.5-.99,1.08-1.93,1.71-2.84.27-.4-.37-.77-.65-.38h0Z"/>
        <path class="cls-1" d="M251.97,128.38c1.08-.72,2.25-1.22,3.51-1.51l-.47-.36c-.17,1.69-.56,3.37-1.14,4.98-.07.19.08.41.26.46.21.06.39-.07.46-.26.6-1.67.98-3.41,1.16-5.18.03-.25-.26-.41-.47-.36-1.31.31-2.57.85-3.69,1.59-.17.11-.24.33-.13.51.1.17.34.25.51.13h0Z"/>
        <path class="cls-1" d="M257.53,127.13c-.2,1.1-.27,2.21-.19,3.32.01.2.16.38.38.38.19,0,.39-.17.38-.38-.04-.53-.04-1.07-.02-1.6.01-.26.04-.52.07-.78,0-.03,0-.06.01-.09,0-.01.02-.13,0-.07s0-.06.01-.07c0-.03,0-.06.01-.09.02-.13.04-.27.07-.4.04-.19-.05-.41-.26-.46-.18-.04-.42.06-.46.26h0Z"/>
        <path class="cls-1" d="M259.12,127.13c-.05.97-.03,1.95.05,2.92,0,.1.04.19.11.27.07.07.17.11.27.11.19,0,.39-.17.38-.38-.09-.97-.1-1.95-.05-2.92.01-.2-.18-.38-.38-.38-.21,0-.36.16-.38.38h0Z"/>
        <path class="cls-1" d="M256.84,127.88c1.29-.06,2.38-.77,3.59-1.12.16-.05.32-.09.49-.12.05,0,.09-.02.14-.02-.07,0,.04,0,.06,0,.09,0,.18-.01.27-.02.2,0,.38-.17.38-.38s-.16-.38-.38-.38c-1.29.03-2.39.74-3.59,1.1-.16.05-.32.09-.49.12-.05,0-.09.02-.14.03-.02,0-.04,0-.05,0-.06.01.05,0,0,0-.09,0-.18.02-.27.02-.2,0-.38.17-.38.38,0,.2.17.38.38.38h0Z"/>
        <path class="cls-1" d="M251.88,133.48c2.86-.48,5.72-.96,8.58-1.44.2-.03.31-.28.26-.46-.06-.21-.26-.3-.46-.26-2.86.48-5.72.96-8.58,1.44-.2.03-.31.28-.26.46.06.21.26.3.46.26h0Z"/>
        <path class="cls-1" d="M254.7,134.24c-.08.51-.24.91-.51,1.34-.11.17-.03.41.13.51.72.45,1.57.14,2.33-.02.43-.09.79-.14,1.23-.16s.87-.01,1.3.03c.2.02.38-.19.38-.38,0-.22-.17-.36-.38-.38-.85-.08-1.71-.03-2.55.12-.37.07-.74.18-1.11.24,0,0-.12.02-.05,0-.05,0-.1.01-.15.01-.09,0-.17,0-.26,0-.08,0,.04.01-.04,0-.04,0-.08-.02-.12-.03-.01,0-.12-.05-.06-.02-.04-.02-.09-.05-.13-.07l.13.51c.3-.46.5-.98.59-1.52.03-.19-.05-.41-.26-.46-.18-.04-.43.05-.46.26h0Z"/>
        <path class="cls-1" d="M256.94,133.52c-.21,1.7-.32,3.42-.35,5.14,0,.2.17.38.38.38s.37-.17.38-.38c.03-1.72.14-3.43.35-5.14.02-.2-.19-.38-.38-.38-.22,0-.35.17-.38.38h0Z"/>
        <path class="cls-1" d="M261.78,124.58c2.41,3.5,2.79,8.05.87,11.86-.53,1.04-1.2,2-2,2.86-.33.35.2.88.53.53,3.03-3.25,4.23-7.89,2.92-12.17-.38-1.23-.94-2.4-1.67-3.45-.27-.4-.92-.02-.65.38h0Z"/>
        <path class="cls-1" d="M221.73,138.23c-.82-1.51-1.35-3.1-1.68-4.78-.35-1.77-.42-3.55.17-5.28.3-.89.77-1.74,1.34-2.48.29-.38-.23-.91-.53-.53-1.19,1.53-1.9,3.35-2,5.29-.08,1.66.25,3.38.72,4.97.33,1.11.78,2.18,1.34,3.2.23.42.88.05.65-.38h0Z"/>
        <line class="cls-4" x1="219.87" y1="131.31" x2="219.87" y2="131.31"/>
        <path class="cls-1" d="M265.03,121.93c.71,1.3,1.42,2.6,2.13,3.9.33.61.66,1.23.89,1.89s.33,1.36.34,2.07c.05,2.59-.56,5.25-1.58,7.62-.58,1.35-1.31,2.63-2.17,3.82-.28.39.37.77.65.38,1.57-2.18,2.7-4.66,3.31-7.27.31-1.33.5-2.71.53-4.08.01-.73-.03-1.47-.21-2.19s-.46-1.33-.77-1.96c-.78-1.54-1.65-3.04-2.48-4.56-.23-.42-.88-.05-.65.38h0Z"/>
      </g>
    </g>
  </g>
</svg>