<?xml version="1.0" encoding="UTF-8"?>
<svg id="Layer_2" data-name="Layer 2" xmlns="http://www.w3.org/2000/svg" viewBox="0 0 232.01 194.71">
  <defs>
    <style>
      .cls-1 {
        fill: #bcbec0;
      }

      .cls-2 {
        fill: #ed1c24;
      }

      .cls-3 {
        fill: #939598;
      }
    </style>
  </defs>
  <g id="Layer_1-2" data-name="Layer 1">
    <g>
      <path class="cls-3" d="M10.8,85.27c-1.87,1.66-3.69,3.37-5.45,5.14-.88.88-1.75,1.78-2.6,2.69-.79.85-1.77,1.71-2.35,2.72-.63,1.1-.42,2.22.42,3.13s1.89,1.79,2.83,2.67c1.94,1.83,3.88,3.65,5.82,5.48.94.88,2.35-.53,1.41-1.41-1.76-1.65-3.52-3.31-5.27-4.96-.91-.86-1.82-1.71-2.73-2.57-.25-.23-.86-.62-.88-1-.02-.32.4-.71.58-.92,2.99-3.39,6.26-6.55,9.64-9.55.96-.86-.45-2.27-1.41-1.41h0Z"/>
      <path class="cls-3" d="M219.52,93.31c2.94,2.31,5.94,4.53,9.06,6.6.46.3,1.43.86,1.44,1.5,0,.59-.91,1.11-1.32,1.42-1.55,1.19-3.06,2.41-4.56,3.65-2.2,1.82-4.67,3.28-7.06,4.83-1.08.7-.07,2.43,1.01,1.73,2.3-1.49,4.74-2.88,6.85-4.63,1.63-1.36,3.28-2.71,4.97-4,.79-.61,1.63-1.21,1.98-2.19s-.05-2.04-.74-2.8c-.57-.63-1.32-1.09-2.02-1.55s-1.37-.92-2.05-1.4c-2.08-1.46-4.11-2.99-6.12-4.56-.42-.33-1-.41-1.41,0-.35.35-.43,1.08,0,1.41h0Z"/>
      <path class="cls-3" d="M1.81,97.82c4.92-.24,9.84-.48,14.75-.72,4.89-.24,9.78-.46,14.68-.4,9.83.11,19.54,1.71,29.32,2.4s19.67.61,29.5.38c8.1-.19,16.19-.41,24.28-.49,3.6-.03,7.19-.08,10.79-.11,4.43-.04,8.85-.05,13.28-.04,5.37.01,10.74.07,16.11.16,6.42.11,12.85.28,19.27.5,7.59.26,15.18.59,22.76.98,8.87.46,17.74,1,26.6,1.61,2.37.16,4.73.33,7.1.5,1.28.09,1.28-1.91,0-2-9.19-.67-18.38-1.26-27.58-1.78-7.89-.44-15.77-.82-23.67-1.12-6.69-.26-13.39-.46-20.09-.61-5.61-.12-11.23-.2-16.85-.23-4.65-.03-9.29-.02-13.94,0-3.79.02-7.58.06-11.37.1-6.5.07-13,.16-19.5.33-9.84.26-19.68.53-29.52.18-4.91-.18-9.81-.55-14.7-1.05s-9.75-1.09-14.65-1.43c-9.8-.68-19.61,0-29.4.48-2.4.12-4.8.23-7.19.35-1.28.06-1.29,2.06,0,2h0Z"/>
    </g>
    <g>
      <path class="cls-3" d="M106.14,13.14c1.5-3.7,3.81-7.07,6.69-9.83.5-.48,1.47-1.61,2.26-1.24.72.34,1.28,1.44,1.69,2.08.47.75.9,1.53,1.29,2.33.15.31.3.62.43.93.12.27.16.36.23.54.65,1.6,1.38,3.16,2.15,4.71.57,1.15,2.3.14,1.73-1.01-.49-.99-.97-1.99-1.42-3-.09-.2-.17-.39-.26-.59-.02-.05-.24-.56-.13-.3-.06-.15-.12-.31-.19-.46-.68-1.65-1.48-3.27-2.49-4.75-.58-.84-1.24-1.84-2.19-2.3-1.13-.54-2.34-.15-3.29.56-1.83,1.36-3.37,3.23-4.72,5.05-1.53,2.08-2.76,4.34-3.73,6.73-.2.5.22,1.1.7,1.23.57.16,1.03-.2,1.23-.7h0Z"/>
      <path class="cls-3" d="M113.09,1c-.37,8.36-.53,16.72-.47,25.09s.36,16.81.87,25.2c.33,5.46.75,10.92,1,16.39.2,4.4.32,8.8.47,13.2.1,2.85.18,5.71.24,8.57.13,5.58.23,11.16.28,16.74.07,7.3.08,14.61,0,21.91-.08,7.88-.25,15.75-.55,23.62-.2,5.19-.35,10.38-.41,15.57-.09,7.28-.05,14.57.13,21.85.03,1.19.06,2.38.1,3.57.04,1.28,2.04,1.29,2,0-.21-6.56-.3-13.12-.28-19.68s.14-12.52.37-18.78c.24-6.75.46-13.49.56-20.25.12-7.62.15-15.25.11-22.87-.03-6.07-.11-12.14-.24-18.21-.08-3.62-.17-7.24-.28-10.86-.13-3.91-.26-7.82-.4-11.73-.17-4.43-.45-8.86-.74-13.28-.54-8.24-.98-16.49-1.16-24.75s-.13-16.73.14-25.09c.07-2.07.15-4.14.24-6.21.06-1.29-1.94-1.28-2,0h0Z"/>
      <path class="cls-3" d="M107.9,180.53c1.03,3.02,2.18,6,3.45,8.93.48,1.11.97,2.23,1.58,3.28.35.6.76,1.23,1.34,1.63.92.63,1.89.33,2.57-.47,1.53-1.79,2.66-4,3.77-6.05,1.25-2.31,2.37-4.7,3.5-7.07.55-1.16-1.18-2.17-1.73-1.01-1.92,4.07-3.86,8.18-6.38,11.92-.1.15-.2.3-.31.45-.07.09-.13.18-.2.27.02-.03.1-.12-.02.02-.08.09-.16.18-.24.27-.13.14-.26.12-.02.04-.11.04-.26.07.07,0-.18.04.11-.01.15,0-.18,0-.1-.05.05.03-.24-.13.09.14-.05,0-.19-.19.05.07-.05-.02-.08-.08-.16-.16-.24-.24-.04-.04-.07-.08-.1-.12.12.15.02.03,0,0-.12-.17-.23-.34-.33-.52-.51-.86-.93-1.78-1.33-2.69-1.33-2.99-2.49-6.05-3.55-9.14-.41-1.21-2.35-.69-1.93.53h0Z"/>
    </g>
    <path class="cls-1" d="M186.88,98.88c.41-9.18-.74-18.4-3.32-27.22-.82-2.82-1.8-5.6-2.86-8.34-1.41-3.66-2.86-7.32-4.71-10.79-2.31-4.35-5.23-8.36-8.72-11.83s-7.98-6.41-12.43-8.94c-5.76-3.27-11.68-6.2-17.94-8.38-9.07-3.14-18.69-4.73-28.29-4.41-4.21.14-8.41.67-12.57,1.28-4.91.72-9.71,1.88-14.17,4.12s-7.93,5.22-11.4,8.47-6.75,6.82-9.74,10.56c-4.67,5.86-8.73,12.21-11.99,18.96-1.55,3.19-3,6.49-4.03,9.89-2.27,7.46-3.23,15.47-3.12,23.25.1,6.9,1.28,13.77,3.36,20.34,2.66,8.41,6.78,16.36,12.04,23.45s11.03,12.79,17.86,17.74,14.49,8.62,22.67,10.85c5.95,1.63,12.15,2.78,18.32,3.14,9.35.54,18.65-.65,27.33-4.26,6.22-2.59,11.96-6.15,17.15-10.45,5.99-4.96,11.12-10.86,15.12-17.53,3.8-6.32,6.6-13.23,8.49-20.35,1.35-5.08,2.24-10.28,2.69-15.51.12-1.35.2-2.69.26-4.04s-1.94-1.28-2,0c-.17,3.63-.52,7.2-1.08,10.65-1.02,6.21-2.69,12.33-5.05,18.17-2.97,7.33-7.13,14.22-12.42,20.12-4.12,4.6-8.84,8.58-13.99,11.89-7.07,4.54-15.01,7.73-23.36,8.9-6.17.87-12.52.71-18.67-.16-8.49-1.2-16.98-3.31-24.67-7.18-7.08-3.56-13.49-8.36-19.09-13.95-5.95-5.95-10.98-12.81-14.82-20.3s-6.73-16.39-7.73-25.15c-.71-6.21-.49-12.57.42-18.75.68-4.65,1.71-9.25,3.4-13.64.83-2.16,1.7-4.11,2.75-6.28,1.43-2.94,3.02-5.81,4.73-8.6,4.59-7.44,10.15-14.28,16.52-20.27,3.4-3.2,6.98-6.19,11.18-8.29s9.11-3.22,13.91-3.91c4.07-.59,8.16-1.07,12.28-1.18,5-.13,10.02.25,14.94,1.14,7.68,1.38,15.13,3.92,22.14,7.35,2.67,1.31,5.29,2.74,7.88,4.21,4.34,2.48,8.54,5.22,12.07,8.8s6.13,7.34,8.34,11.6c1.7,3.29,3.06,6.73,4.38,10.18,2.5,6.54,4.4,13.29,5.34,20.24.64,4.77.84,9.61.62,14.42-.06,1.29,1.94,1.28,2,0Z"/>
    <g>
      <path class="cls-2" d="M88.06,64.76c-2.22.02-4.44-.08-6.65-.31-.27-.03-.5.25-.5.5-.01,1.11.02,2.22.11,3.32s.15,2.17.4,3.2,1.07.82,1.85.55c.96-.33,2.03-.61,3.02-.23.89.34,1.34,1.17,1.26,2.1s-.71,1.7-1.47,2.2c-.85.55-1.86.8-2.86.92-.28.03-2.3.39-2.37-.14-.08-.63-1.08-.64-1,0,.21,1.63,2.33,1.27,3.48,1.13,1.68-.21,3.42-.75,4.48-2.16.88-1.17,1.06-2.92.09-4.1-1.18-1.44-3.22-1.26-4.79-.72-.15.05-.64.3-.72.22-.1-.11-.1-.58-.12-.74-.09-.62-.16-1.25-.22-1.87-.11-1.22-.15-2.45-.14-3.68l-.5.5c2.21.23,4.43.33,6.65.31.64,0,.64-1.01,0-1h0Z"/>
      <path class="cls-2" d="M89.99,67.61c-.11,2.68-.17,5.36-.17,8.05,0,.64,1,.64,1,0,0-2.68.06-5.37.17-8.05.03-.64-.97-.64-1,0h0Z"/>
      <path class="cls-2" d="M93.06,66.24c-.06,2.59-.25,5.18-.6,7.76-.04.27.06.53.35.62.23.07.58-.08.62-.35.36-2.66.58-5.34.63-8.02.01-.64-.99-.64-1,0h0Z"/>
      <path class="cls-2" d="M87.7,68.34c2.6-.67,5.2-1.35,7.81-2.02.62-.16.36-1.13-.27-.96-2.6.67-5.2,1.35-7.81,2.02-.62.16-.36,1.13.27.96h0Z"/>
      <path class="cls-2" d="M100.93,65.59c-4.74,6.3-9.93,12.26-15.51,17.82-.46.45.25,1.16.71.71,5.65-5.63,10.88-11.66,15.67-18.03.39-.51-.48-1.01-.86-.5h0Z"/>
      <path class="cls-2" d="M96.29,77.16c.87-.5,1.84-.84,2.84-.96.48-.05.98-.08,1.45-.02.5.06.77.29.54.8-.34.75-1.17,1.37-1.83,1.81-.77.52-1.62.9-2.52,1.14-.47.12-.49.85,0,.96.98.23,2.12.54,2.91,1.2.35.29.69.78.54,1.26s-.7.75-1.1.97c-1.73.96-3.8,1.21-5.72.74-.62-.16-.89.81-.27.96,2.41.6,5.27.21,7.27-1.34,1.03-.8,1.09-2.13.21-3.09s-2.36-1.38-3.56-1.66v.96c1.18-.32,2.29-.85,3.25-1.6.83-.64,1.95-1.58,1.93-2.73-.02-1.34-1.58-1.44-2.58-1.4-1.36.06-2.68.46-3.86,1.13-.56.32-.05,1.19.5.86h0Z"/>
      <g>
        <path class="cls-2" d="M199.81,94.16c1.67,1.12,3.26,2.35,4.75,3.71.37.34.74.69,1.1,1.05.15.15.31.31.46.46.11.11.34.49.46.55l.04.1c.08-.21.1-.27.04-.18-.03,0-.3.15-.21.12-.18.08-.36.14-.53.21-.77.34-1.47.81-2.16,1.28-1.43.99-2.79,2.07-4.14,3.17-.42.34-.35,1.06,0,1.41.41.41.99.34,1.41,0,1.38-1.12,2.77-2.23,4.25-3.2.41-.27.83-.53,1.27-.76.08-.04.16-.08.24-.12.25-.13-.13.04.02-.01.23-.08.47-.16.69-.28.96-.53,1.37-1.57.89-2.59-.45-.95-1.42-1.71-2.18-2.41-1.68-1.56-3.49-2.98-5.39-4.25-1.07-.72-2.08,1.02-1.01,1.73h0Z"/>
        <path class="cls-2" d="M205.56,98.57c-11.91.18-23.83-.03-35.72-.73-4.98-.29-9.97-.64-14.96-.86-5.53-.24-11.07-.29-16.61-.28-7.53.01-15.05.15-22.57.42-.91.03-1.26,1.05-.71,1.71,8.26,9.77,16.35,19.69,24.26,29.75,8.24,10.48,16.29,21.11,24.15,31.88,4.32,5.92,8.57,11.88,12.77,17.89.73,1.05,2.47.05,1.73-1.01-7.62-10.89-15.43-21.65-23.43-32.27-7.95-10.53-16.08-20.93-24.4-31.17-4.5-5.54-9.05-11.03-13.66-16.48l-.71,1.71c12.4-.44,24.86-.68,37.27-.22,10.85.4,21.66,1.35,32.52,1.6,6.69.16,13.38.17,20.07.07,1.29-.02,1.29-2.02,0-2h0Z"/>
        <path class="cls-2" d="M129.47,97.77c-.62-5.44-3.04-11.07-8.37-13.35-2.79-1.19-5.79-.97-8.63-.1s-5.7,2-7.9,3.92c-3.78,3.28-4.76,8.77-3.92,13.5s3.97,9.59,9,10.73,10.27-.75,13.66-4.44c.87-.95-.54-2.36-1.41-1.41-2.46,2.67-5.96,4.25-9.61,4.18-2.28-.04-4.47-.79-6.13-2.38-1.51-1.45-2.53-3.35-3.14-5.34-1.2-3.95-.92-8.78,1.7-12.12,1.5-1.92,3.72-2.99,5.94-3.87,2.47-.98,5.23-1.92,7.92-1.38,5.6,1.13,8.3,6.89,8.89,12.06.06.54.42,1,1,1,.49,0,1.06-.46,1-1h0Z"/>
        <path class="cls-2" d="M165.38,176.47c3.79.64,7.56,1.42,11.29,2.33.49.12,1.13-.15,1.23-.7.63-3.49,1.07-7.01,1.3-10.55.08-1.29-1.92-1.28-2,0-.22,3.36-.63,6.7-1.23,10.02l1.23-.7c-3.73-.91-7.5-1.69-11.29-2.33-.53-.09-1.08.14-1.23.7-.13.48.16,1.14.7,1.23h0Z"/>
      </g>
    </g>
  </g>
</svg>