<?xml version="1.0" encoding="UTF-8"?>
<svg id="Layer_2" data-name="Layer 2" xmlns="http://www.w3.org/2000/svg" viewBox="0 0 243.72 207.38">
  <defs>
    <style>
      .cls-1 {
        fill: #231f20;
      }

      .cls-2 {
        fill: #bcbec0;
      }

      .cls-3 {
        fill: #ed1c24;
      }

      .cls-4 {
        fill: #939598;
      }

      .cls-5 {
        fill: #92278f;
      }
    </style>
  </defs>
  <g id="Layer_1-2" data-name="Layer 1">
    <g>
      <path class="cls-4" d="M22.51,97.94c-1.87,1.66-3.69,3.37-5.45,5.14-.88.88-1.75,1.78-2.6,2.69-.79.85-1.77,1.71-2.35,2.72-.63,1.1-.42,2.22.42,3.13s1.89,1.79,2.83,2.67c1.94,1.83,3.88,3.65,5.82,5.48.94.88,2.35-.53,1.41-1.41-1.76-1.65-3.52-3.31-5.27-4.96-.91-.86-1.82-1.71-2.73-2.57-.25-.23-.86-.62-.88-1-.02-.32.4-.71.58-.92,2.99-3.39,6.26-6.55,9.64-9.55.96-.86-.45-2.27-1.41-1.41h0Z"/>
      <path class="cls-4" d="M231.24,105.97c2.94,2.31,5.94,4.53,9.06,6.6.46.3,1.43.86,1.44,1.5,0,.59-.91,1.11-1.32,1.42-1.55,1.19-3.06,2.41-4.56,3.65-2.2,1.82-4.67,3.28-7.06,4.83-1.08.7-.07,2.43,1.01,1.73,2.3-1.49,4.74-2.88,6.85-4.63,1.63-1.36,3.28-2.71,4.97-4,.79-.61,1.63-1.21,1.98-2.19s-.05-2.04-.74-2.8c-.57-.63-1.32-1.09-2.02-1.55s-1.37-.92-2.05-1.4c-2.08-1.46-4.11-2.99-6.12-4.56-.42-.33-1-.41-1.41,0-.35.35-.43,1.08,0,1.41h0Z"/>
      <path class="cls-4" d="M13.52,110.48c4.92-.24,9.84-.48,14.75-.72,4.89-.24,9.78-.46,14.68-.4,9.83.11,19.54,1.71,29.32,2.4s19.67.61,29.5.38c8.1-.19,16.19-.41,24.28-.49,3.6-.03,7.19-.08,10.79-.11,4.43-.04,8.85-.05,13.28-.04,5.37.01,10.74.07,16.11.16,6.42.11,12.85.28,19.27.5,7.59.26,15.18.59,22.76.98,8.87.46,17.74,1,26.6,1.61,2.37.16,4.73.33,7.1.5,1.28.09,1.28-1.91,0-2-9.19-.67-18.38-1.26-27.58-1.78-7.89-.44-15.77-.82-23.67-1.12-6.69-.26-13.39-.46-20.09-.61-5.61-.12-11.23-.2-16.85-.23-4.65-.03-9.29-.02-13.94,0-3.79.02-7.58.06-11.37.1-6.5.07-13,.16-19.5.33-9.84.26-19.68.53-29.52.18-4.91-.18-9.81-.55-14.7-1.05s-9.75-1.09-14.65-1.43c-9.8-.68-19.61,0-29.4.48-2.4.12-4.8.23-7.19.35-1.28.06-1.29,2.06,0,2h0Z"/>
    </g>
    <g>
      <path class="cls-4" d="M117.86,25.81c1.5-3.7,3.81-7.07,6.69-9.83.5-.48,1.47-1.61,2.26-1.24.72.34,1.28,1.44,1.69,2.08.47.75.9,1.53,1.29,2.33.15.31.3.62.43.93.12.27.16.36.23.54.65,1.6,1.38,3.16,2.15,4.71.57,1.15,2.3.14,1.73-1.01-.49-.99-.97-1.99-1.42-3-.09-.2-.17-.39-.26-.59-.02-.05-.24-.56-.13-.3-.06-.15-.12-.31-.19-.46-.68-1.65-1.48-3.27-2.49-4.75-.58-.84-1.24-1.84-2.19-2.3-1.13-.54-2.34-.15-3.29.56-1.83,1.36-3.37,3.23-4.72,5.05-1.53,2.08-2.76,4.34-3.73,6.73-.2.5.22,1.1.7,1.23.57.16,1.03-.2,1.23-.7h0Z"/>
      <path class="cls-4" d="M124.8,13.67c-.37,8.36-.53,16.72-.47,25.09s.36,16.81.87,25.2c.33,5.46.75,10.92,1,16.39.2,4.4.32,8.8.47,13.2.1,2.85.18,5.71.24,8.57.13,5.58.23,11.16.28,16.74.07,7.3.08,14.61,0,21.91-.08,7.88-.25,15.75-.55,23.62-.2,5.19-.35,10.38-.41,15.57-.09,7.28-.05,14.57.13,21.85.03,1.19.06,2.38.1,3.57.04,1.28,2.04,1.29,2,0-.21-6.56-.3-13.12-.28-19.68s.14-12.52.37-18.78c.24-6.75.46-13.49.56-20.25.12-7.62.15-15.25.11-22.87-.03-6.07-.11-12.14-.24-18.21-.08-3.62-.17-7.24-.28-10.86-.13-3.91-.26-7.82-.4-11.73-.17-4.43-.45-8.86-.74-13.28-.54-8.24-.98-16.49-1.16-24.75s-.13-16.73.14-25.09c.07-2.07.15-4.14.24-6.21.06-1.29-1.94-1.28-2,0h0Z"/>
      <path class="cls-4" d="M119.62,193.19c1.03,3.02,2.18,6,3.45,8.93.48,1.11.97,2.23,1.58,3.28.35.6.76,1.23,1.34,1.63.92.63,1.89.33,2.57-.47,1.53-1.79,2.66-4,3.77-6.05,1.25-2.31,2.37-4.7,3.5-7.07.55-1.16-1.18-2.17-1.73-1.01-1.92,4.07-3.86,8.18-6.38,11.92-.1.15-.2.3-.31.45-.07.09-.13.18-.2.27.02-.03.1-.12-.02.02-.08.09-.16.18-.24.27-.13.14-.26.12-.02.04-.11.04-.26.07.07,0-.18.04.11-.01.15,0-.18,0-.1-.05.05.03-.24-.13.09.14-.05,0-.19-.19.05.07-.05-.02-.08-.08-.16-.16-.24-.24-.04-.04-.07-.08-.1-.12.12.15.02.03,0,0-.12-.17-.23-.34-.33-.52-.51-.86-.93-1.78-1.33-2.69-1.33-2.99-2.49-6.05-3.55-9.14-.41-1.21-2.35-.69-1.93.53h0Z"/>
    </g>
    <path class="cls-2" d="M198.6,111.55c.41-9.18-.74-18.4-3.32-27.22-.82-2.82-1.8-5.6-2.86-8.34-1.41-3.66-2.86-7.32-4.71-10.79-2.31-4.35-5.23-8.36-8.72-11.83s-7.98-6.41-12.43-8.94c-5.76-3.27-11.68-6.2-17.94-8.38-9.07-3.14-18.69-4.73-28.29-4.41-4.21.14-8.41.67-12.57,1.28-4.91.72-9.71,1.88-14.17,4.12s-7.93,5.22-11.4,8.47-6.75,6.82-9.74,10.56c-4.67,5.86-8.73,12.21-11.99,18.96-1.55,3.19-3,6.49-4.03,9.89-2.27,7.46-3.23,15.47-3.12,23.25.1,6.9,1.28,13.77,3.36,20.34,2.66,8.41,6.78,16.36,12.04,23.45s11.03,12.79,17.86,17.74,14.49,8.62,22.67,10.85c5.95,1.63,12.15,2.78,18.32,3.14,9.35.54,18.65-.65,27.33-4.26,6.22-2.59,11.96-6.15,17.15-10.45,5.99-4.96,11.12-10.86,15.12-17.53,3.8-6.32,6.6-13.23,8.49-20.35,1.35-5.08,2.24-10.28,2.69-15.51.12-1.35.2-2.69.26-4.04s-1.94-1.28-2,0c-.17,3.63-.52,7.2-1.08,10.65-1.02,6.21-2.69,12.33-5.05,18.17-2.97,7.33-7.13,14.22-12.42,20.12-4.12,4.6-8.84,8.58-13.99,11.89-7.07,4.54-15.01,7.73-23.36,8.9-6.17.87-12.52.71-18.67-.16-8.49-1.2-16.98-3.31-24.67-7.18-7.08-3.56-13.49-8.36-19.09-13.95-5.95-5.95-10.98-12.81-14.82-20.3s-6.73-16.39-7.73-25.15c-.71-6.21-.49-12.57.42-18.75.68-4.65,1.71-9.25,3.4-13.64.83-2.16,1.7-4.11,2.75-6.28,1.43-2.94,3.02-5.81,4.73-8.6,4.59-7.44,10.15-14.28,16.52-20.27,3.4-3.2,6.98-6.19,11.18-8.29s9.11-3.22,13.91-3.91c4.07-.59,8.16-1.07,12.28-1.18,5-.13,10.02.25,14.94,1.14,7.68,1.38,15.13,3.92,22.14,7.35,2.67,1.31,5.29,2.74,7.88,4.21,4.34,2.48,8.54,5.22,12.07,8.8s6.13,7.34,8.34,11.6c1.7,3.29,3.06,6.73,4.38,10.18,2.5,6.54,4.4,13.29,5.34,20.24.64,4.77.84,9.61.62,14.42-.06,1.29,1.94,1.28,2,0Z"/>
    <g>
      <path class="cls-3" d="M211.48,105.94c1.69,1.19,3.37,2.38,5.09,3.53.26.17.52.34.78.51.09.06.41.19.45.28.1.27-.97,1.17-1.18,1.38-2.1,2.03-4.26,3.99-6.44,5.94-.96.86.46,2.27,1.41,1.41,1.82-1.63,3.63-3.28,5.41-4.96,1.02-.96,2.62-2.12,2.77-3.62s-1.29-2.06-2.3-2.74c-1.67-1.13-3.32-2.29-4.97-3.45-1.06-.74-2.06.99-1.01,1.73h0Z"/>
      <path class="cls-3" d="M36.13,65.19c6.5,3.84,13.01,7.68,19.51,11.53,3.25,1.92,6.5,3.84,9.76,5.76,2.14,1.26,4.27,2.43,6.53,3.47,2.48,1.14,4.97,2.24,7.41,3.45,2.99,1.48,5.92,3.1,8.79,4.81,1.75,1.04,3.47,2.14,5.26,3.11,1.9,1.04,3.88,1.95,5.88,2.78,4.11,1.7,8.43,2.9,12.64,4.33,2.68.91,5.35,1.86,8.01,2.84,1.59.59,3.18,1.18,4.77,1.79.8.31,1.65.76,2.48.96.4.1.85-.05,1.26-.11.56-.08,1.12-.15,1.67-.21,3.65-.4,7.33-.46,10.98-.16s7.37.9,11.08,1.15c7.44.51,14.93.32,22.38.31s15.07-.01,22.6-.03c6.13-.01,12.25.07,18.38.46,1.08.07,2.16.15,3.23.23,1.28.1,1.28-1.9,0-2-10.67-.83-21.35-.69-32.05-.68-6.42,0-12.83.02-19.25.03s-12.76.04-19.1-.66c-3.48-.38-6.95-.89-10.45-.98s-7.19.17-10.74.72h.53c-6.53-2.55-13.14-4.92-19.81-7.1-4.4-1.44-8.7-2.87-12.8-5.02-2.09-1.09-4.08-2.37-6.11-3.58-3.24-1.92-6.54-3.72-9.93-5.35-2.63-1.26-5.32-2.4-7.94-3.68-3.1-1.51-6.02-3.39-8.99-5.15-7.4-4.37-14.8-8.74-22.19-13.11-.93-.55-1.86-1.1-2.79-1.65-1.11-.66-2.12,1.07-1.01,1.73h0Z"/>
      <path class="cls-3" d="M40.97,75.59c-1.32-3.14-2.62-6.3-4.07-9.38-.19-.4-.42-.79-.59-1.2-.26-.65.37-.67.89-.69.93-.02,1.88.17,2.8.32,1.03.17,2.06.39,3.08.64,1.16.29,2.28.65,3.42,1.01.97.3,1.97.37,2.97.48.54.06,1-.5,1-1,0-.59-.46-.94-1-1-.96-.11-1.85-.21-2.77-.52-1.09-.36-2.19-.68-3.31-.95s-2.28-.5-3.43-.68c-.98-.15-2.01-.36-3.01-.29-.91.07-1.89.35-2.4,1.17s-.31,1.8.11,2.65c.56,1.13,1.08,2.27,1.59,3.43.96,2.17,1.88,4.35,2.8,6.54.21.5.66.85,1.23.7.47-.13.91-.73.7-1.23h0Z"/>
      <path class="cls-3" d="M116.19,104.51c.81-1.87,1.92-3.6,3.35-5.05,1.64-1.66,3.83-3.21,6.1-3.86,2.76-.8,5.32.1,7.69,1.52,1.89,1.13,3.62,2.44,5.12,4.06,1.74,1.86,2.99,4.25,3.71,6.82.35,1.24,2.28.71,1.93-.53-.7-2.47-1.81-4.79-3.43-6.79s-3.57-3.59-5.7-4.9c-2.65-1.63-5.43-2.83-8.61-2.37-2.67.39-5.17,1.97-7.2,3.69s-3.63,3.97-4.69,6.41c-.22.49-.15,1.07.36,1.37.42.25,1.15.14,1.37-.36h0Z"/>
    </g>
    <g>
      <path class="cls-3" d="M140.1,82.32c-1.25-.46-2.58-.67-3.91-.63-.33.01-.56.31-.48.63l.75,3.18.19.8c.06.24.1.51.33.66.43.27.93-.11,1.35-.23s.95-.25,1.36-.13c.34.1.26.51.13.76-.34.71-1.18,1.07-1.85,1.38-.58.27-.07,1.14.5.86,1.1-.52,2.57-1.36,2.44-2.79-.06-.75-.62-1.18-1.34-1.24-.38-.03-.77.02-1.14.1-.21.04-.41.1-.61.17-.08.03-.16.06-.24.09-.16.07-.32.06-.1.17l.23.3c-.13-.32-.18-.69-.26-1.02l-.26-1.13-.51-2.19-.48.63c1.25-.04,2.47.16,3.64.59.61.22.87-.74.27-.96h0Z"/>
      <path class="cls-3" d="M142.9,82.49c-.19,1.83-.28,3.67-.27,5.5,0,.64,1,.64,1,0,0-1.84.08-3.68.27-5.5.03-.27-.25-.5-.5-.5-.29,0-.47.23-.5.5h0Z"/>
      <path class="cls-3" d="M145.32,82.68c-.08,1.47-.12,2.93-.12,4.4,0,.64,1,.64,1,0,0-1.47.04-2.93.12-4.4.01-.27-.24-.5-.5-.5-.28,0-.49.23-.5.5h0Z"/>
      <path class="cls-3" d="M142.05,83.46c.16-.4.44-1.12.98-1.11.26,0,.51.22.72.34.28.16.58.29.89.38,1.12.31,2.49-.03,3.01-1.16.11-.25.07-.54-.18-.68-.22-.13-.57-.07-.68.18-.21.45-.63.73-1.12.78-.63.06-1.18-.22-1.71-.53-.57-.33-1.19-.43-1.77-.07s-.86.98-1.11,1.6c-.1.25.11.55.35.62.29.08.51-.1.62-.35h0Z"/>
      <path class="cls-3" d="M137.51,93.48c3.87-2.4,7.88-4.55,12.03-6.44.58-.27.08-1.13-.5-.86-4.14,1.89-8.16,4.04-12.03,6.44-.55.34-.04,1.2.5.86h0Z"/>
      <path class="cls-3" d="M144.4,90.13c-.98,1.08-1.66,2.4-2.21,3.74-.49,1.21-.95,2.91-.16,4.1.88,1.33,2.53.06,3.37-.66.48-.42.91-.9,1.27-1.43s.79-1.23.21-1.76c-.51-.47-1.34-.36-1.94-.17-.77.25-1.44.71-2.08,1.18-.51.38-.02,1.24.5.86s1.1-.81,1.73-1.04c.26-.09.56-.18.84-.16.07,0,.23,0,.28.07-.07-.1-.16.15-.2.22-.62,1.01-1.56,1.92-2.64,2.41-.29.13-.44.09-.57-.2s-.16-.64-.16-.95c0-.67.19-1.33.43-1.95.48-1.26,1.14-2.55,2.06-3.56.43-.47-.27-1.18-.71-.71h0Z"/>
    </g>
    <path class="cls-1" d="M59.57,78.22s-.09.06-.13.02l.08.61c.23-.44.5-.92.94-1.19.31-.19.79-.28,1.08-.02.34.3.13.78-.06,1.1-.27.45-.68.83-1.1,1.14-.64.47-1.78.97-2.22-.02-.32-.73-.04-1.57.53-2.08.36-.33.83-.56,1.29-.72.49-.18,1.02-.34,1.54-.42.16-.02.18-.04.21.08.03.16-.05.39-.11.53-.19.44-.54.85-.89,1.16-.33.29-.78.52-1.23.39-.33-.1-.56-.38-.68-.69-.33-.86.16-1.66.9-2.1.41-.24.88-.4,1.35-.45.28-.03.87-.06.97.29.06.22-.04.51-.09.72-.07.25-.16.5-.28.73-.23.45-.54.86-.91,1.2-.17.16-.35.3-.55.42-.17.11-.35.29-.5.09-.31-.39-.51-.95-.58-1.44-.13-.91.25-1.83,1.19-2.08.79-.21,1.45.3,1.4,1.13-.06.92-.78,1.79-1.54,2.24-.41.24-.93.4-1.36.1-.37-.27-.57-.76-.64-1.2-.13-.81.16-1.75.82-2.27s1.49-.43,2.08.08c.26.22.46.52.49.87.04.51-.29,1.01-.66,1.34-.33.3-.84.53-1.28.35-.31-.12-.64-.48-.44-.82.15-.25.5-.36.63-.04s0,.74-.15,1.03c-.09.17-.22.4-.42.48-.08.03-.09.02-.15.01-.11-.01-.05-.12-.07.03.04-.27-.07-.54-.35-.62-.23-.06-.58.08-.62.35-.11.81.64,1.44,1.43,1.2.69-.2,1.15-.98,1.3-1.64s.04-1.42-.56-1.83c-.63-.43-1.47-.13-1.87.47-.44.64-.24,1.48.33,1.98.62.54,1.46.59,2.19.26,1.36-.61,2.21-2.43,1.25-3.72-.8-1.08-2.37-1.47-3.53-.72s-1.67,2.27-1.38,3.61c.15.71.58,1.44,1.25,1.77.77.38,1.64.17,2.33-.28,1.15-.75,2.17-2.22,1.86-3.66s-1.99-1.86-3.19-1.23c-1.42.75-1.62,2.54-1.07,3.91.28.7.77,1.62,1.68,1.41.7-.17,1.38-.8,1.82-1.34.76-.93,1.97-3.27.37-4.01-.66-.3-1.44-.2-2.11,0s-1.38.59-1.84,1.17c-.85,1.06-.81,2.74.34,3.58,1.4,1.01,2.98-.32,3.69-1.51.32-.53.56-1.32.2-1.89-.47-.74-1.43-.41-2.11-.23-1.36.36-2.86,1.05-3.28,2.52-.34,1.19.12,2.73,1.47,3.01.85.18,1.69-.22,2.35-.72.62-.47,1.22-1.03,1.54-1.76s.29-1.52-.32-2.04c-.57-.48-1.39-.5-2.04-.19-.69.32-1.14,1-1.49,1.65-.1.18-.09.46.08.61.39.33.89.4,1.35.14.55-.33.05-1.19-.5-.86h0Z"/>
    <g>
      <path class="cls-1" d="M6.78,3.27C4.07,6.2,1.88,9.65.77,13.51c-1.02,3.55-1.36,7.75,1.26,10.71,1.36,1.53,3.23,2.52,5.19,3.02.62.16.89-.8.27-.96-3.4-.87-6.19-3.32-6.46-6.98s.95-7.09,2.62-10.08c1.06-1.9,2.37-3.65,3.84-5.24.44-.47-.27-1.18-.71-.71h0Z"/>
      <path class="cls-1" d="M11.08,8.38c-2.79,1.73-5.31,4.66-6.03,7.94-.35,1.59.04,3.28,1.62,4.02,1.71.81,3.52.16,5.15-.52.58-.24.33-1.21-.27-.96-1.36.57-3,1.28-4.45.59s-1.3-2.42-.83-3.74c.95-2.68,2.91-4.97,5.31-6.47.55-.34.04-1.2-.5-.86h0Z"/>
      <path class="cls-1" d="M12.99,17.46c.09.2.01.03,0-.02-.03-.07-.05-.14-.07-.21-.06-.2-.11-.4-.14-.6-.05-.37-.02-.88.25-1.22s.75-.49,1.18-.49c.25,0,.43.02.67.08.25.07.36.11.56.22.5.29.88.73,1.15,1.23.12.23.24.47.3.72,0,.02.02.12,0,.03,0,.07,0,.14,0,.21,0,.12-.01.34-.02.4-.07.47-.23,1-.56,1.35-.26.28-.58.31-.91.26-1.06-.17-2-1-2.43-1.98-.11-.25-.47-.3-.68-.18-.26.15-.29.44-.18.68.51,1.16,1.67,2.15,2.92,2.41.55.12,1.16.1,1.65-.21.59-.39.92-1.07,1.09-1.73.09-.34.13-.7.13-1.05s-.11-.68-.25-1.01c-.29-.69-.74-1.3-1.33-1.75-.99-.76-2.59-1.01-3.64-.23-1.14.85-1.05,2.39-.55,3.58.11.25.47.3.68.18.26-.15.29-.43.18-.68Z"/>
      <path class="cls-1" d="M21.34,12.73c-.7.65-1.3,1.43-1.7,2.3-.21.45-.3.88,0,1.32.27.4.77.64,1.2.82.61.26,1.85.59,1.85,1.45,0,.99-1.39,1.21-2.11,1.3-.27.04-.5.2-.5.5,0,.24.23.54.5.5,1.01-.14,2.07-.32,2.72-1.19.58-.78.47-1.79-.23-2.47-.33-.32-.73-.54-1.15-.72-.25-.11-.51-.2-.76-.32-.19-.09-.55-.22-.67-.4-.18-.26.36-.95.52-1.19.29-.44.65-.83,1.03-1.19.47-.44-.24-1.14-.71-.71h0Z"/>
      <path class="cls-1" d="M27.5,7.73l-1.92.02c-.51,0-1.21-.11-1.59.31s-.2,1.13-.13,1.64c.08.6.2,1.2.37,1.78.14.52.38.98.92,1.17.44.16.94.08,1.37-.07.41-.15.99-.56,1.43-.4.34.12.37.59.23.87-.22.47-.77.77-1.24.94-.6.22-1.22.27-1.86.19-.27-.04-.5.26-.5.5,0,.3.23.46.5.5,1.07.14,2.24-.1,3.13-.73.82-.58,1.37-1.62.83-2.59-.26-.45-.74-.71-1.25-.72-.56,0-1.03.27-1.54.46-.3.11-.8.27-.97-.11-.24-.53-.32-1.2-.41-1.77-.05-.3-.06-.61-.11-.92,0,.05,0-.12,0-.12.04.07-.17.03,0,.06.15.03.34,0,.49,0l2.24-.02c.64,0,.64-1.01,0-1h0Z"/>
      <path class="cls-1" d="M30.07,8.26l.2,4.67c.03.64,1.03.64,1,0l-.2-4.67c-.03-.64-1.03-.64-1,0h0Z"/>
      <path class="cls-1" d="M32.05,7.42c.24,1.55.33,3.13.31,4.7-.01.64.99.64,1,0,.03-1.66-.09-3.32-.34-4.97-.04-.27-.38-.41-.62-.35-.29.08-.39.35-.35.62h0Z"/>
      <path class="cls-1" d="M29.62,9.52c.23-.8.48-1.6.8-2.37.06-.15.11-.35.29-.28.27.1.51.41.74.58.58.43,1.37.45,2.03.2.71-.27,1.25-.8,1.76-1.33.45-.46-.26-1.17-.71-.71-.48.5-1.03,1.11-1.76,1.2s-1.02-.52-1.59-.81c-.32-.17-.69-.21-1.02-.04-.35.17-.54.51-.68.86-.32.8-.59,1.63-.83,2.45-.18.62.78.88.96.27h0Z"/>
      <path class="cls-1" d="M25.05,18.44c1.78-.66,3.33-1.74,4.91-2.76s3.21-1.97,5.09-2.13c.64-.05.64-1.05,0-1-3.98.33-6.67,3.6-10.27,4.93-.6.22-.34,1.19.27.96h0Z"/>
      <path class="cls-1" d="M31.52,15.49c-.66-.03-1.13.49-1.4,1.03-.34.68-.6,1.42-.82,2.15-.2.68-.38,1.39-.44,2.11-.05.59.04,1.24.47,1.68,1.03,1.07,2.62.11,3.37-.8.41-.5.72-1.08.88-1.7.18-.67-.13-1.33-.89-1.34-.69,0-1.37.45-1.88.88-.58.48-1.05,1.07-1.51,1.66-.17.21-.21.5,0,.71.17.17.54.21.71,0,.56-.72,1.15-1.5,1.95-1.97.17-.1.36-.2.56-.25.02,0,.17-.02.18-.02,0,0,.02,0,.02,0-.05-.13-.07-.15-.06-.09,0,.02,0,.05,0,.07-.08.19-.11.41-.2.6-.1.22-.22.43-.36.62-.25.35-.58.68-.95.89-.29.16-.74.34-1.04.1s-.26-.7-.23-1.03c.04-.51.18-1.02.31-1.5.16-.6.36-1.19.59-1.76.12-.29.34-1.05.75-1.03.64.03.64-.97,0-1h0Z"/>
      <path class="cls-1" d="M38.29,17.96c-.29,2.42-.98,4.8-2.01,7.01-.27.58.59,1.09.86.5,1.11-2.38,1.83-4.9,2.15-7.51.03-.27-.25-.5-.5-.5-.3,0-.47.23-.5.5h0Z"/>
      <path class="cls-1" d="M46.44,8.43c-1.46.53-2.71,1.57-3.43,2.95-.33.63-.75,1.54-.43,2.24.28.6.94.78,1.54.84.87.08,1.76.03,2.59.36.7.28,1.43,1,1.32,1.82s-1.21,1.25-1.88,1.55c-.88.4-1.81.7-2.76.91-.63.14-.36,1.11.27.96.91-.21,1.79-.49,2.65-.86.75-.32,1.59-.68,2.15-1.29,1.05-1.15.49-2.84-.69-3.66-.69-.48-1.53-.65-2.35-.73-.45-.04-.92-.02-1.37-.08s-.64-.17-.53-.66c.33-1.56,1.73-2.88,3.18-3.4.6-.22.34-1.18-.27-.96h0Z"/>
      <path class="cls-1" d="M51.45,18.01v-6.28c0-.64-1-.64-1,0v6.28c0,.64,1,.64,1,0h0Z"/>
      <path class="cls-1" d="M52.87,13.66v3.74c0,.65.94.63,1,0,.09-1.01.31-2.01.64-2.97.17-.49.36-.97.59-1.43.05-.09.17-.47.29-.5,0,0-.08,0,0,.02.05.02.12.15.14.18.21.38.24.89.31,1.31.08.52.12,1.04.15,1.56.05,1.09-.01,2.19-.19,3.27-.04.27.07.53.35.62.24.07.57-.08.62-.35.22-1.34.3-2.7.2-4.06-.05-.7-.15-1.4-.29-2.08-.1-.48-.3-1.01-.73-1.29-1.23-.81-1.87,1.15-2.19,1.96-.47,1.21-.74,2.47-.86,3.76h1v-3.74c0-.64-1-.64-1,0h0Z"/>
      <path class="cls-1" d="M62.13,6.58c-.57.12-1.14.18-1.71.17-.44,0-1.05-.19-1.46,0-.53.26-.47.9-.45,1.4.03.59.11,1.18.27,1.75.11.41.29.84.65,1.08.46.31.92.15,1.42.1.4-.04,1.62.1,1.4.77-.08.25-.35.47-.53.64-.22.21-.44.41-.69.59-.42.29-.87.52-1.35.68-.6.21-.34,1.18.27.96.94-.33,1.78-.83,2.49-1.53.34-.33.72-.72.82-1.2.09-.42-.05-.86-.32-1.18-.49-.6-1.38-.81-2.12-.74-.22.02-.51.14-.72.1-.17-.03-.23-.2-.29-.35-.19-.53-.27-1.12-.3-1.69,0-.15.03-.33,0-.48-.03-.12.08-.17-.09-.07s-.02.07.08.08c.31.03.62.06.93.06.67,0,1.33-.07,1.98-.21s.36-1.09-.27-.96h0Z"/>
      <path class="cls-1" d="M64.8,7.38c-.08,1.4-.05,2.8.07,4.19.02.27.21.5.5.5.25,0,.52-.23.5-.5-.12-1.39-.15-2.8-.07-4.19.01-.27-.24-.5-.5-.5-.28,0-.49.23-.5.5h0Z"/>
      <path class="cls-1" d="M67.39,7.22c.16,1.5.2,3.01.12,4.51-.01.27.24.5.5.5.28,0,.49-.23.5-.5.08-1.51.04-3.01-.12-4.51-.03-.27-.21-.5-.5-.5-.25,0-.53.23-.5.5h0Z"/>
      <path class="cls-1" d="M63.62,8c2-.85,4.17-1.28,6.34-1.28.64,0,.64-1,0-1-2.36,0-4.67.49-6.84,1.41-.25.11-.3.47-.18.68.15.26.44.28.68.18h0Z"/>
      <path class="cls-1" d="M58.83,18.44c4.1-1.62,7.51-5.38,12.11-5.57.64-.03.64-1.03,0-1-4.78.19-8.14,3.93-12.38,5.6-.59.23-.33,1.2.27.96h0Z"/>
      <path class="cls-1" d="M65.75,15.58c-1.11,1.25-1.96,2.76-2.36,4.39-.34,1.42-.2,3.22,1.32,3.89s3.03-.12,4.03-1.24c.53-.59,1.14-1.33,1.3-2.13.14-.69-.14-1.49-.83-1.77-.81-.32-1.86.22-2.55.63-.78.46-1.43,1.08-1.97,1.8-.38.52.48,1.02.86.5.69-.93,1.74-1.7,2.87-1.98.22-.06.45-.09.57.13s.08.47,0,.7c-.21.55-.65,1.07-1.05,1.49-.72.77-1.87,1.45-2.93.9s-.88-1.94-.63-2.88c.38-1.38,1.09-2.67,2.04-3.74.43-.48-.28-1.19-.71-.71h0Z"/>
      <path class="cls-1" d="M69.97.88c2.84,3.62,4.44,8.18,4.44,12.78s-1.58,9.17-4.42,12.79c-.39.5.31,1.21.71.71,4.75-6.06,6.04-14.3,3.17-21.47-.8-1.99-1.87-3.83-3.19-5.51-.4-.51-1.1.21-.71.71h0Z"/>
    </g>
    <g>
      <path class="cls-5" d="M57.97,80.17c7.27,3.92,14.53,7.88,21.9,11.6,4.51,2.27,8.91,4.75,13.45,6.95s9.34,4.2,14.14,6c5.55,2.09,11.18,3.98,16.83,5.77l.27-1.96c-8.58,1.1-17.18,1.5-25.83,1.49-8.32,0-16.63-.38-24.92-1.02-4.76-.37-9.52-.77-14.27-1.23l1,1c-.37-3.98-.68-7.97-.79-11.97-.1-3.76.14-7.51.03-11.27-.06-2.08-.16-4.15-.31-6.22-.09-1.28-2.09-1.29-2,0,.28,3.92.43,7.86.35,11.79-.07,3.41-.06,6.78.14,10.19.15,2.5.34,4.99.57,7.48.05.58.42.94,1,1,8.71.84,17.44,1.59,26.18,1.96,7.94.34,15.93.46,23.87.1,5-.23,10-.67,14.97-1.3,1.07-.14,1.42-1.6.27-1.96-9.72-3.07-19.45-6.37-28.69-10.71-4.74-2.22-9.29-4.79-13.96-7.16-2.51-1.28-5.02-2.56-7.52-3.88-5.24-2.76-10.46-5.57-15.68-8.38-1.13-.61-2.14,1.12-1.01,1.73Z"/>
      <path class="cls-5" d="M58.81,111.8c-.2,1.45.08,3.07,1.51,3.8.67.34,1.45.43,2.19.48,1.03.07,2.06.08,3.08.11,1.25.04,2.53.09,3.78-.05,1.34-.15,2.67-.28,4.02-.29,2.29-.02,4.58.19,6.84.54l-.35-.35c.4,1.93,1.14,3.76,2.16,5.44.25.41.95.26.93-.25-.04-1.33.29-2.58.98-3.72l-.43.25c3.25.05,6.5.12,9.75.04s6.62-.3,9.94-.45,6.53-.25,9.8-.13c2.58.09,5.23.58,7.81.34,1.08-.1,2.23-.33,3.05-1.09,1-.93.99-2.35.65-3.58-.17-.62-1.14-.36-.96.27.36,1.3.16,2.56-1.2,3.08-1.08.41-2.31.4-3.44.36-1.32-.04-2.63-.19-3.94-.28-1.75-.11-3.51-.16-5.26-.15-6.99.02-13.97.75-20.96.66-.96-.01-1.93-.03-2.89-.04-.47,0-.94-.01-1.41-.02-.34,0-.86-.12-1.17.06-.49.29-.81,1.39-.97,1.91-.25.81-.35,1.66-.33,2.5l.93-.25c-.99-1.61-1.68-3.35-2.06-5.2-.03-.15-.19-.32-.35-.35-3.24-.5-6.53-.75-9.8-.44-1.01.1-2,.23-3.02.24-1.66,0-3.32-.04-4.98-.14-.77-.04-1.71-.09-2.31-.64-.65-.59-.73-1.56-.62-2.38.09-.63-.88-.9-.96-.27h0Z"/>
      <path class="cls-5" d="M54.8,81.26c-.74-.2-1.51-.06-2.13.4-.71.53-.95,1.35-1,2.21-.15,2.26-.07,4.57-.03,6.83l.37-.48c-.86.29-1.69.66-2.47,1.13-.54.32-1.54.8-1.7,1.47-.2.84.82,1.01,1.4,1.17.98.28,1.97.55,2.95.83l-.35-.62c-1.11,3.18-1.16,6.58-1.12,9.91.02,1.35-.08,3.05.86,4.15.7.82,1.84.92,2.85.91.64,0,.64-1,0-1-.94,0-1.94-.05-2.36-1.03-.54-1.25-.36-2.84-.36-4.17,0-2.88.14-5.77,1.09-8.5.09-.26-.1-.55-.35-.62-.64-.18-1.29-.36-1.93-.54-.3-.08-.61-.17-.91-.25-.15-.04-.3-.08-.45-.13-.08-.02-.15-.04-.23-.06-.17-.06-.15-.04.04.07.24-.09.49-.35.71-.5.24-.16.49-.3.74-.44.59-.33,1.21-.59,1.85-.81.21-.07.37-.25.37-.48-.03-1.74-.03-3.48,0-5.23.01-.76-.08-1.65.18-2.37s1.01-1.06,1.73-.87c.62.16.89-.8.27-.96h0Z"/>
      <path class="cls-5" d="M77.65,129.51l.85-.28c.06-.02.32-.16.39-.13-.23-.1-.03.24,0,.3.21.56.42,1.12.62,1.68.18.5,1,.47.98-.13-.03-.95,0-1.9.12-2.85.06-.48.14-.96.24-1.43.05-.23.1-.46.16-.7.02-.1.04-.21.08-.31.07-.18-.07-.04.09-.16.15-.1.45-.13.62-.17.23-.06.47-.12.7-.17.46-.1.92-.17,1.39-.19.81-.04,1.63-.06,2.33-.53l-.75-.43c0,1.02.01,2.05.02,3.07,0,.64,1,.64,1,0,0-1.02-.01-2.05-.02-3.07,0-.36-.43-.65-.75-.43-.75.5-1.75.35-2.6.46-.53.07-1.05.19-1.57.33-.4.11-.91.17-1.18.52s-.34.93-.44,1.36c-.11.49-.19.98-.26,1.47-.15,1.07-.2,2.15-.16,3.23l.98-.13c-.15-.41-.3-.81-.45-1.22-.14-.38-.25-.87-.48-1.2-.2-.29-.53-.35-.86-.27-.44.11-.87.28-1.29.43-.61.2-.35,1.17.27.96h0Z"/>
      <path class="cls-5" d="M77.41,134.51c3.29-1.55,6.73-3.13,10.44-3.09.64,0,.64-.99,0-1-3.9-.03-7.49,1.61-10.95,3.23-.58.27-.08,1.14.5.86h0Z"/>
      <path class="cls-5" d="M81.64,133.99c.52,0,1.15-.04,1.59.29.4.31.38.73.08,1.11-.34.44-.83.76-1.29,1.05-.52.33-1.03.66-1.51,1.04-.21.17-.17.53,0,.71.32.33.77.4,1.22.38.49-.01.98-.09,1.46-.16.9-.14,1.83-.31,2.73-.11l.13-.98c-.11,0-.08.02.07.06-.48-.42-1.19.28-.71.71.18.16.4.27.64.23s.46-.16.49-.43c.03-.24-.11-.49-.36-.55-.9-.21-1.79-.12-2.7.02-.43.06-.86.14-1.29.18-.21.02-.43.04-.65.03-.13,0-.25,0-.34-.09v.71c.54-.44,1.16-.77,1.73-1.17.61-.43,1.25-.94,1.51-1.66s-.05-1.43-.63-1.87c-.63-.48-1.43-.51-2.19-.5-.64,0-.64,1.01,0,1h0Z"/>
      <path class="cls-5" d="M37.71,94.64c1.46-.18,2.78-.78,4.09-1.43s2.6-1.3,4.05-1.41c.64-.05.64-1.05,0-1-1.46.12-2.79.69-4.1,1.32s-2.6,1.33-4.04,1.51c-.63.08-.64,1.08,0,1h0Z"/>
      <path class="cls-5" d="M40.74,95.73c.78-.14,1.69-.33,2.44.02.3.14.5.36.45.7-.05.31-.23.62-.42.86-.86,1.09-2.26,1.59-3.17,2.64-.26.3-.14.69.22.84,1.6.65,3.27-.19,4.89.16.46.1.87-.48.49-.84-.08-.08-.17-.16-.25-.23-.47-.44-1.18.27-.71.71.08.08.17.16.25.23l.49-.84c-.84-.18-1.68-.09-2.52,0-.8.08-1.6.15-2.37-.16l.22.84c.84-.97,2.07-1.48,2.96-2.4.48-.5.89-1.14.93-1.85.05-.84-.58-1.43-1.32-1.68-.92-.31-1.91-.14-2.83.03-.27.05-.42.37-.35.62.08.28.35.4.62.35h0Z"/>
      <path class="cls-5" d="M92.34,102.62c-1.02.8-1.78,1.88-2.25,3.09-.23.61-.37,1.26-.43,1.91-.06.7-.02,1.41.67,1.78,1.1.58,2.43.11,3.26-.74.74-.76,1.38-2.33.3-3.11-.64-.46-1.48-.21-2.09.19-.66.43-1.2,1.01-1.61,1.68-.33.55.53,1.06.86.5.26-.43.59-.82.99-1.13.28-.22.75-.58,1.14-.49.32.08.3.47.23.73-.09.38-.32.7-.6.97-.29.29-.65.5-1.05.6-.3.07-.82.1-1.06-.16-.12-.13-.08-.39-.07-.55,0-.24.03-.47.07-.71.08-.46.21-.92.39-1.35.41-1,1.09-1.86,1.94-2.52.21-.17.17-.53,0-.71-.21-.21-.49-.17-.71,0h0Z"/>
      <path class="cls-5" d="M104.11,109.77c-.59-.18-.93-.73-1.17-1.26-.31-.71-.53-1.52-.61-2.29-.14-1.3.22-2.94,1.56-3.49.59-.24.33-1.21-.27-.96-1.77.72-2.49,2.64-2.3,4.45.17,1.62.75,3.97,2.52,4.52.62.19.88-.78.27-.96h0Z"/>
      <path class="cls-5" d="M82.25,126.85c.36.02.72.06,1.07.13.06.01.11.03.17.04.06.02.06.02.02,0,.03.01.06.03.09.05-.12.02-.05-.26-.05-.29h.01s-.06.04-.08.07c-.22.19-.53.28-.78.44-.38.24-.52.73-.17,1.05.12.11.3.16.39.21.12.06.16.09.26.19.16.16.22.35.22.54,0,.05-.03.15-.06.19-.02.03-.04.06-.05.09.02-.03.02-.03,0,0-.01.01-.13.12-.07.08-.05.04-.11.08-.17.1.08-.03-.07.02-.07.02-.06.02-.13.01-.22-.02-.26-.08-.55.1-.62.35-.07.27.09.53.35.62.8.26,1.73-.33,1.88-1.15.08-.43-.01-.88-.26-1.25-.14-.2-.3-.36-.49-.5-.07-.05-.14-.09-.22-.13-.06-.03-.13-.06-.2-.09l-.05-.02c.08.03.13.09.15.18v.27c-.02.07-.18.16-.04.11.04-.01.08-.04.11-.06.08-.04.15-.08.23-.12.15-.08.3-.16.43-.27.35-.27.64-.7.39-1.14-.18-.32-.53-.46-.88-.53-.43-.08-.86-.13-1.3-.16-.27-.02-.5.24-.5.5,0,.28.23.48.5.5h0Z"/>
      <path class="cls-5" d="M39.55,86.48c.35,1.59.81,3.15,1.37,4.67.09.25.34.43.62.35.24-.07.44-.36.35-.62-.57-1.52-1.02-3.08-1.37-4.67-.06-.26-.36-.42-.62-.35-.27.07-.41.35-.35.62h0Z"/>
      <path class="cls-5" d="M59.93,103.92l4.51-.38-.48-.63c-.49,1.91-.78,3.88-.87,5.86-.03.65.95.64,1,0,.01-.19.03-.38.04-.57.05-.64-.95-.64-1,0-.01.19-.03.38-.04.57h1c.08-1.89.36-3.76.83-5.59.08-.29-.15-.66-.48-.63l-4.51.38c-.64.05-.64,1.05,0,1h0Z"/>
      <path class="cls-5" d="M84.21,99.65c-.4,1.49-.24,3.06.43,4.45.12.24.46.31.68.18.25-.15.3-.44.18-.68-.55-1.14-.65-2.46-.32-3.67.17-.62-.8-.89-.96-.27h0Z"/>
      <path class="cls-5" d="M86.23,99.13c.07,1.24.22,2.47.45,3.69.05.27.37.42.62.35.28-.08.4-.35.35-.62-.22-1.13-.36-2.27-.42-3.42-.01-.27-.22-.5-.5-.5-.26,0-.51.23-.5.5h0Z"/>
      <path class="cls-5" d="M83.06,100.61c.66-.07,1.02-.5,1.43-.98.14-.16.3-.36.52-.42.33-.08.71.16,1.01.28.67.28,1.36.33,2.04.06s1.18-.79,1.45-1.47c.1-.25-.11-.55-.35-.62-.29-.08-.51.1-.62.35-.19.47-.66.79-1.14.89-.64.14-1.16-.26-1.75-.43-.64-.19-1.24,0-1.7.46-.23.24-.55.84-.89.87-.27.03-.5.21-.5.5,0,.25.23.53.5.5h0Z"/>
      <path class="cls-5" d="M90.56,99.46c-.37,1.66-1.4,3.02-2.45,4.32s-2.14,2.65-2.77,4.26c-.23.6.73.86.96.27,1.24-3.16,4.46-5.17,5.22-8.58.14-.63-.83-.89-.96-.27h0Z"/>
    </g>
    <g>
      <path class="cls-1" d="M78.13,12.09c2.26,1.25,4.42,2.67,6.44,4.28,1.83,1.45,3.71,3.04,4.83,5.13,1.19,2.23,1.54,4.89,1.82,7.37s.35,4.85.24,7.28c-.22,5-1.24,9.95-3.02,14.63s-4.58,9.29-7.51,13.53c-1.59,2.3-3.37,4.51-5.65,6.15s-4.82,2.73-7.35,3.83c-.59.26-.08,1.12.5.86,2.34-1.01,4.69-2.04,6.81-3.46s3.85-3.25,5.39-5.28,3.05-4.38,4.43-6.65,2.66-4.65,3.7-7.13c2-4.75,3.21-9.81,3.6-14.95.2-2.57.18-5.16-.04-7.72s-.53-5.1-1.4-7.46c-.96-2.61-2.85-4.54-4.96-6.28-2.29-1.89-4.75-3.57-7.34-5-.56-.31-1.07.55-.5.86h0Z"/>
      <path class="cls-1" d="M70.29,65.4c-.67,2.35-1.35,4.71-2.02,7.06-.17.59-.34,1.18-.5,1.77-.12.41-.31.88-.17,1.31.18.56.71.68,1.22.75,3.15.41,6.29.87,9.43,1.3.63.09.9-.88.27-.96-3.05-.42-6.11-.85-9.16-1.26-.17-.02-.7-.05-.75-.11-.2-.25.27-1.25.35-1.53.16-.55.32-1.1.47-1.66.61-2.13,1.22-4.27,1.83-6.4.18-.62-.79-.88-.96-.27h0Z"/>
    </g>
  </g>
</svg>