<?xml version="1.0" encoding="UTF-8"?>
<svg id="Layer_2" data-name="Layer 2" xmlns="http://www.w3.org/2000/svg" viewBox="0 0 269.14 194.71">
  <defs>
    <style>
      .cls-1 {
        fill: #231f20;
      }

      .cls-2 {
        fill: #bcbec0;
      }

      .cls-3 {
        fill: #ed1c24;
      }

      .cls-4 {
        fill: none;
        stroke: #231f20;
        stroke-miterlimit: 10;
        stroke-width: .75px;
      }

      .cls-5 {
        fill: #939598;
      }

      .cls-6 {
        fill: #92278f;
      }
    </style>
  </defs>
  <g id="Layer_1-2" data-name="Layer 1">
    <g>
      <path class="cls-5" d="M10.8,85.27c-1.87,1.66-3.69,3.37-5.45,5.14-.88.88-1.75,1.78-2.6,2.69-.79.85-1.77,1.71-2.35,2.72-.63,1.1-.42,2.22.42,3.13s1.89,1.79,2.83,2.67c1.94,1.83,3.88,3.65,5.82,5.48.94.88,2.35-.53,1.41-1.41-1.76-1.65-3.52-3.31-5.27-4.96-.91-.86-1.82-1.71-2.73-2.57-.25-.23-.86-.62-.88-1-.02-.32.4-.71.58-.92,2.99-3.39,6.26-6.55,9.64-9.55.96-.86-.45-2.27-1.41-1.41h0Z"/>
      <path class="cls-5" d="M219.52,93.31c2.94,2.31,5.94,4.53,9.06,6.6.46.3,1.43.86,1.44,1.5,0,.59-.91,1.11-1.32,1.42-1.55,1.19-3.06,2.41-4.56,3.65-2.2,1.82-4.67,3.28-7.06,4.83-1.08.7-.07,2.43,1.01,1.73,2.3-1.49,4.74-2.88,6.85-4.63,1.63-1.36,3.28-2.71,4.97-4,.79-.61,1.63-1.21,1.98-2.19s-.05-2.04-.74-2.8c-.57-.63-1.32-1.09-2.02-1.55s-1.37-.92-2.05-1.4c-2.08-1.46-4.11-2.99-6.12-4.56-.42-.33-1-.41-1.41,0-.35.35-.43,1.08,0,1.41h0Z"/>
      <path class="cls-5" d="M1.81,97.82c4.92-.24,9.84-.48,14.75-.72,4.89-.24,9.78-.46,14.68-.4,9.83.11,19.54,1.71,29.32,2.4s19.67.61,29.5.38c8.1-.19,16.19-.41,24.28-.49,3.6-.03,7.19-.08,10.79-.11,4.43-.04,8.85-.05,13.28-.04,5.37.01,10.74.07,16.11.16,6.42.11,12.85.28,19.27.5,7.59.26,15.18.59,22.76.98,8.87.46,17.74,1,26.6,1.61,2.37.16,4.73.33,7.1.5,1.28.09,1.28-1.91,0-2-9.19-.67-18.38-1.26-27.58-1.78-7.89-.44-15.77-.82-23.67-1.12-6.69-.26-13.39-.46-20.09-.61-5.61-.12-11.23-.2-16.85-.23-4.65-.03-9.29-.02-13.94,0-3.79.02-7.58.06-11.37.1-6.5.07-13,.16-19.5.33-9.84.26-19.68.53-29.52.18-4.91-.18-9.81-.55-14.7-1.05s-9.75-1.09-14.65-1.43c-9.8-.68-19.61,0-29.4.48-2.4.12-4.8.23-7.19.35-1.28.06-1.29,2.06,0,2h0Z"/>
    </g>
    <g>
      <path class="cls-5" d="M106.14,13.14c1.5-3.7,3.81-7.07,6.69-9.83.5-.48,1.47-1.61,2.26-1.24.72.34,1.28,1.44,1.69,2.08.47.75.9,1.53,1.29,2.33.15.31.3.62.43.93.12.27.16.36.23.54.65,1.6,1.38,3.16,2.15,4.71.57,1.15,2.3.14,1.73-1.01-.49-.99-.97-1.99-1.42-3-.09-.2-.17-.39-.26-.59-.02-.05-.24-.56-.13-.3-.06-.15-.12-.31-.19-.46-.68-1.65-1.48-3.27-2.49-4.75-.58-.84-1.24-1.84-2.19-2.3-1.13-.54-2.34-.15-3.29.56-1.83,1.36-3.37,3.23-4.72,5.05-1.53,2.08-2.76,4.34-3.73,6.73-.2.5.22,1.1.7,1.23.57.16,1.03-.2,1.23-.7h0Z"/>
      <path class="cls-5" d="M113.09,1c-.37,8.36-.53,16.72-.47,25.09s.36,16.81.87,25.2c.33,5.46.75,10.92,1,16.39.2,4.4.32,8.8.47,13.2.1,2.85.18,5.71.24,8.57.13,5.58.23,11.16.28,16.74.07,7.3.08,14.61,0,21.91-.08,7.88-.25,15.75-.55,23.62-.2,5.19-.35,10.38-.41,15.57-.09,7.28-.05,14.57.13,21.85.03,1.19.06,2.38.1,3.57.04,1.28,2.04,1.29,2,0-.21-6.56-.3-13.12-.28-19.68s.14-12.52.37-18.78c.24-6.75.46-13.49.56-20.25.12-7.62.15-15.25.11-22.87-.03-6.07-.11-12.14-.24-18.21-.08-3.62-.17-7.24-.28-10.86-.13-3.91-.26-7.82-.4-11.73-.17-4.43-.45-8.86-.74-13.28-.54-8.24-.98-16.49-1.16-24.75s-.13-16.73.14-25.09c.07-2.07.15-4.14.24-6.21.06-1.29-1.94-1.28-2,0h0Z"/>
      <path class="cls-5" d="M107.9,180.53c1.03,3.02,2.18,6,3.45,8.93.48,1.11.97,2.23,1.58,3.28.35.6.76,1.23,1.34,1.63.92.63,1.89.33,2.57-.47,1.53-1.79,2.66-4,3.77-6.05,1.25-2.31,2.37-4.7,3.5-7.07.55-1.16-1.18-2.17-1.73-1.01-1.92,4.07-3.86,8.18-6.38,11.92-.1.15-.2.3-.31.45-.07.09-.13.18-.2.27.02-.03.1-.12-.02.02-.08.09-.16.18-.24.27-.13.14-.26.12-.02.04-.11.04-.26.07.07,0-.18.04.11-.01.15,0-.18,0-.1-.05.05.03-.24-.13.09.14-.05,0-.19-.19.05.07-.05-.02-.08-.08-.16-.16-.24-.24-.04-.04-.07-.08-.1-.12.12.15.02.03,0,0-.12-.17-.23-.34-.33-.52-.51-.86-.93-1.78-1.33-2.69-1.33-2.99-2.49-6.05-3.55-9.14-.41-1.21-2.35-.69-1.93.53h0Z"/>
    </g>
    <path class="cls-2" d="M186.88,98.88c.41-9.18-.74-18.4-3.32-27.22-.82-2.82-1.8-5.6-2.86-8.34-1.41-3.66-2.86-7.32-4.71-10.79-2.31-4.35-5.23-8.36-8.72-11.83s-7.98-6.41-12.43-8.94c-5.76-3.27-11.68-6.2-17.94-8.38-9.07-3.14-18.69-4.73-28.29-4.41-4.21.14-8.41.67-12.57,1.28-4.91.72-9.71,1.88-14.17,4.12s-7.93,5.22-11.4,8.47-6.75,6.82-9.74,10.56c-4.67,5.86-8.73,12.21-11.99,18.96-1.55,3.19-3,6.49-4.03,9.89-2.27,7.46-3.23,15.47-3.12,23.25.1,6.9,1.28,13.77,3.36,20.34,2.66,8.41,6.78,16.36,12.04,23.45s11.03,12.79,17.86,17.74,14.49,8.62,22.67,10.85c5.95,1.63,12.15,2.78,18.32,3.14,9.35.54,18.65-.65,27.33-4.26,6.22-2.59,11.96-6.15,17.15-10.45,5.99-4.96,11.12-10.86,15.12-17.53,3.8-6.32,6.6-13.23,8.49-20.35,1.35-5.08,2.24-10.28,2.69-15.51.12-1.35.2-2.69.26-4.04s-1.94-1.28-2,0c-.17,3.63-.52,7.2-1.08,10.65-1.02,6.21-2.69,12.33-5.05,18.17-2.97,7.33-7.13,14.22-12.42,20.12-4.12,4.6-8.84,8.58-13.99,11.89-7.07,4.54-15.01,7.73-23.36,8.9-6.17.87-12.52.71-18.67-.16-8.49-1.2-16.98-3.31-24.67-7.18-7.08-3.56-13.49-8.36-19.09-13.95-5.95-5.95-10.98-12.81-14.82-20.3s-6.73-16.39-7.73-25.15c-.71-6.21-.49-12.57.42-18.75.68-4.65,1.71-9.25,3.4-13.64.83-2.16,1.7-4.11,2.75-6.28,1.43-2.94,3.02-5.81,4.73-8.6,4.59-7.44,10.15-14.28,16.52-20.27,3.4-3.2,6.98-6.19,11.18-8.29s9.11-3.22,13.91-3.91c4.07-.59,8.16-1.07,12.28-1.18,5-.13,10.02.25,14.94,1.14,7.68,1.38,15.13,3.92,22.14,7.35,2.67,1.31,5.29,2.74,7.88,4.21,4.34,2.48,8.54,5.22,12.07,8.8s6.13,7.34,8.34,11.6c1.7,3.29,3.06,6.73,4.38,10.18,2.5,6.54,4.4,13.29,5.34,20.24.64,4.77.84,9.61.62,14.42-.06,1.29,1.94,1.28,2,0Z"/>
    <g>
      <g>
        <path class="cls-3" d="M197.25,91.34c1.36,1.47,2.71,2.94,4.07,4.41.68.73,1.36,1.47,2.03,2.2.42.46.98,1.03.91,1.71s-.64,1.18-1.1,1.58c-.49.43-1.01.84-1.51,1.26-1.27,1.09-2.55,2.17-3.94,3.11-1.06.72-.06,2.46,1.01,1.73,1.62-1.11,3.11-2.37,4.6-3.65,1.2-1.02,2.63-2,2.89-3.68.31-2.08-1.55-3.58-2.81-4.95-1.58-1.71-3.16-3.43-4.75-5.14-.88-.95-2.29.47-1.41,1.41h0Z"/>
        <path class="cls-3" d="M204.89,97.57c-6-.28-12-.45-18.01-.5s-11.41-.12-17.11-.45c-6.47-.38-12.93-.59-19.41-.47-4.74.09-9.47.31-14.2.63-3.37.23-6.73.43-10.11.37s-6.52-.28-9.76-.67c-.97-.12-1.17,1.12-.71,1.71,2.15,2.72,5.02,4.7,7.89,6.6,1.42.94,2.86,1.87,4.22,2.9,1.47,1.12,2.79,2.41,4.05,3.76,1.37,1.47,2.67,3,4.09,4.42s2.85,2.66,4.36,3.89c3.01,2.44,6.18,4.69,9.13,7.2,6.08,5.16,11.36,11.18,16.52,17.24,3.68,4.32,7.33,8.66,11,12.99,2.58,3.05,5.17,6.11,7.75,9.16.11.13.22.26.33.39.83.98,2.24-.44,1.41-1.41-2.35-2.77-4.7-5.55-7.05-8.32-3.36-3.97-6.72-7.94-10.08-11.91-5.16-6.09-10.34-12.21-16.26-17.6-2.89-2.63-6-4.97-9.08-7.36s-6.07-4.97-8.73-7.9c-1.32-1.45-2.62-2.94-4.06-4.28-1.29-1.2-2.7-2.25-4.15-3.25-2.79-1.91-5.76-3.61-8.19-5.98-.62-.61-1.21-1.25-1.75-1.94l-.71,1.71c5.95.72,11.93.84,17.91.44,4.62-.31,9.24-.59,13.87-.72,6.69-.18,13.38-.11,20.06.31,5.74.36,11.48.51,17.23.54,6.51.04,13.02.21,19.53.51,1.29.06,1.28-1.94,0-2h0Z"/>
        <path class="cls-3" d="M172.74,163.24l13.03,4.89c.61.23,1.28-.36,1.27-.96-.14-4.86-.29-9.72-.43-14.58-.04-1.28-2.04-1.29-2,0,.14,4.86.29,9.72.43,14.58l1.27-.96-13.03-4.89c-.51-.19-1.1.21-1.23.7-.15.56.19,1.04.7,1.23h0Z"/>
        <path class="cls-3" d="M130.88,98.2c-.22-5.48-2.33-10.85-6.52-14.52-2.25-1.97-5.08-3.08-8.08-3.07s-5.81.93-8.19,2.57c-5.22,3.6-6.81,10.11-5.92,16.12.47,3.21,1.69,6.3,3.77,8.82,1.94,2.36,4.69,4.08,7.65,4.85,3.34.87,6.97.39,10.15-.9,1.79-.73,3.61-1.7,5.01-3.05.93-.9-.49-2.31-1.41-1.41-.12.12-.25.23-.38.34-.05.04-.36.29-.18.15-.15.11-.3.23-.46.33-.74.52-1.52.97-2.33,1.36-2.31,1.12-4.97,1.74-7.54,1.62-2.76-.14-5.51-1.31-7.58-3.14s-3.53-4.4-4.27-7.13c-1.39-5.14-.81-11.33,3.22-15.18,3.67-3.49,9.7-4.53,14.03-1.69,2.49,1.63,4.41,4.28,5.55,6.99.93,2.2,1.39,4.57,1.48,6.95.05,1.28,2.05,1.29,2,0h0Z"/>
      </g>
      <g>
        <path class="cls-3" d="M75.62,75.58l5.16-3.11c.27-.17.88-.7,1.24-.6.29.09.27.51.25.74-.07.89-.36,1.81-.61,2.67-.98,3.44-2.48,6.79-2.46,10.42,0,.41.56.69.85.35.14-.16.29-.32.43-.48.43-.48-.28-1.19-.71-.71-.14.16-.29.32-.43.48l.85.35c-.03-4.29,2.15-8.15,2.94-12.28.13-.69.27-1.48-.21-2.08s-1.25-.53-1.88-.2c-2.03,1.07-3.97,2.39-5.94,3.58-.55.33-.05,1.2.5.86h0Z"/>
        <path class="cls-3" d="M87.48,71.24c-.38,2.34-.54,4.7-.45,7.07.02.64,1.02.64,1,0-.08-2.28.05-4.55.41-6.8.1-.63-.86-.9-.96-.27h0Z"/>
        <path class="cls-3" d="M90.14,69.94c.19,2.13.22,4.27.12,6.41-.03.64.97.64,1,0,.11-2.14.07-4.28-.12-6.41-.06-.64-1.06-.64-1,0h0Z"/>
        <path class="cls-3" d="M84.95,73.3c3.19-2.07,6.52-3.91,9.96-5.52.58-.27.08-1.13-.5-.86-3.44,1.61-6.78,3.45-9.96,5.52-.54.35-.04,1.22.5.86h0Z"/>
        <path class="cls-3" d="M94.23,72.93c-3.66,5.75-8.82,10.49-11.89,16.63-.29.57.58,1.08.86.5,3.07-6.14,8.22-10.88,11.89-16.63.35-.54-.52-1.05-.86-.5h0Z"/>
        <path class="cls-3" d="M91.89,80.36l-2.59,4.1c-.11.17-.09.47.08.61.57.46,1.25.43,1.94.29.94-.19,1.88-.45,2.81-.68,1.87-.47,3.72-.97,5.57-1.51.62-.18.35-1.14-.27-.96-1.61.47-3.22.91-4.84,1.32-.8.2-1.59.4-2.39.6-.48.12-1.66.61-2.12.24l.08.61,2.59-4.1c.34-.55-.52-1.05-.86-.5h0Z"/>
        <path class="cls-3" d="M96.08,79.43c-1.36,3.61-1.73,7.49-1.06,11.29.11.63,1.08.36.96-.27-.64-3.62-.24-7.32,1.06-10.76.23-.6-.74-.86-.96-.27h0Z"/>
      </g>
    </g>
    <path class="cls-1" d="M168.82,146.67s-.09.06-.13.02l.08.61c.23-.44.5-.92.94-1.19.31-.19.79-.28,1.08-.02.34.3.13.78-.06,1.1-.27.45-.68.83-1.1,1.14-.64.47-1.78.97-2.22-.02-.32-.73-.04-1.57.53-2.08.36-.33.83-.56,1.29-.72.49-.18,1.02-.34,1.54-.42.16-.02.18-.04.21.08.03.16-.05.39-.11.53-.19.44-.54.85-.89,1.16-.33.29-.78.52-1.23.39-.33-.1-.56-.38-.68-.69-.33-.86.16-1.66.9-2.1.41-.24.88-.4,1.35-.45.28-.03.87-.06.97.29.06.22-.04.51-.09.72-.07.25-.16.5-.28.73-.23.45-.54.86-.91,1.2-.17.16-.35.3-.55.42-.17.11-.35.29-.5.09-.31-.39-.51-.95-.58-1.44-.13-.91.25-1.83,1.19-2.08.79-.21,1.45.3,1.4,1.13-.06.92-.78,1.79-1.54,2.24-.41.24-.93.4-1.36.1-.37-.27-.57-.76-.64-1.2-.13-.81.16-1.75.82-2.27s1.49-.43,2.08.08c.26.22.46.52.49.87.04.51-.29,1.01-.66,1.34-.33.3-.84.53-1.28.35-.31-.12-.64-.48-.44-.82.15-.25.5-.36.63-.04s0,.74-.15,1.03c-.09.17-.22.4-.42.48-.08.03-.09.02-.15.01-.11-.01-.05-.12-.07.03.04-.27-.07-.54-.35-.62-.23-.06-.58.08-.62.35-.11.81.64,1.44,1.43,1.2.69-.2,1.15-.98,1.3-1.64s.04-1.42-.56-1.83c-.63-.43-1.47-.13-1.87.47-.44.64-.24,1.48.33,1.98.62.54,1.46.59,2.19.26,1.36-.61,2.21-2.43,1.25-3.72-.8-1.08-2.37-1.47-3.53-.72s-1.67,2.27-1.38,3.61c.15.71.58,1.44,1.25,1.77.77.38,1.64.17,2.33-.28,1.15-.75,2.17-2.22,1.86-3.66s-1.99-1.86-3.19-1.23c-1.42.75-1.62,2.54-1.07,3.91.28.7.77,1.62,1.68,1.41.7-.17,1.38-.8,1.82-1.34.76-.93,1.97-3.27.37-4.01-.66-.3-1.44-.2-2.11,0s-1.38.59-1.84,1.17c-.85,1.06-.81,2.74.34,3.58,1.4,1.01,2.98-.32,3.69-1.51.32-.53.56-1.32.2-1.89-.47-.74-1.43-.41-2.11-.23-1.36.36-2.86,1.05-3.28,2.52-.34,1.19.12,2.73,1.47,3.01.85.18,1.69-.22,2.35-.72.62-.47,1.22-1.03,1.54-1.76s.29-1.52-.32-2.04c-.57-.48-1.39-.5-2.04-.19-.69.32-1.14,1-1.49,1.65-.1.18-.09.46.08.61.39.33.89.4,1.35.14.55-.33.05-1.19-.5-.86h0Z"/>
    <g>
      <path class="cls-1" d="M181.24,137.39c-1.33,1.18-2.61,2.43-3.82,3.74-.6.65-1.18,1.31-1.75,1.99-.2.24-.51.52-.41.88s.44.45.74.54c3.02.87,6.38.93,9.08,2.67.54.35,1.05-.52.5-.86-1.39-.89-2.98-1.37-4.58-1.73-.83-.19-1.67-.34-2.5-.51-.42-.09-.83-.17-1.25-.27-.21-.05-.41-.1-.61-.15-.04-.01-.54-.15-.48-.07l.05.39c.05-.2.47-.54.61-.71.23-.27.46-.53.7-.8.45-.51.91-1,1.39-1.49.97-1.01,1.98-1.97,3.02-2.9.48-.43-.23-1.13-.71-.71h0Z"/>
      <path class="cls-1" d="M176.98,144.29c6.81-3.64,14.22-6.06,21.85-7.25.63-.1.36-1.06-.27-.96-7.71,1.2-15.2,3.67-22.09,7.35-.57.3-.06,1.17.5.86h0Z"/>
      <g>
        <path class="cls-1" d="M207.43,121.48c-2.04,2.2-3.75,4.72-4.94,7.48-.58,1.35-1.07,2.76-1.37,4.2s-.35,3.04.37,4.39c.67,1.26,1.9,2.18,3.3,2.48.47.1.67-.62.2-.72-1.16-.25-2.17-.96-2.77-1.99-.72-1.24-.64-2.72-.35-4.07.57-2.65,1.7-5.17,3.15-7.45.86-1.35,1.85-2.61,2.94-3.79.33-.35-.2-.89-.53-.53h0Z"/>
        <path class="cls-1" d="M208.85,129.16c-.8.36-1.48.94-2.1,1.56-.58.58-1.13,1.21-1.46,1.97s-.38,1.66.01,2.45c.34.68.96,1.19,1.66,1.48.96.4,2.02.34,3.03.27.2-.01.38-.16.38-.38,0-.19-.17-.39-.38-.38-1.37.09-3.07.16-3.91-1.15s.16-2.68,1.07-3.6c.61-.62,1.28-1.2,2.08-1.57.18-.08.23-.35.13-.51-.11-.19-.33-.22-.51-.13h0Z"/>
        <path class="cls-1" d="M211.88,135.16c-.02-.17-.02-.35,0-.52,0-.02,0-.04,0-.06,0,.12,0,.04,0,.01,0-.04.02-.09.02-.13.02-.09.05-.19.08-.28.01-.04.03-.08.04-.12.03-.07-.04.08,0,0,0-.02.02-.04.03-.06.04-.08.08-.15.12-.22.02-.03.05-.07.07-.1-.05.09-.03.04,0,.01.01-.02.03-.03.04-.05.03-.03.05-.06.08-.09.01-.01.03-.03.04-.04.08-.06-.05.03,0,0,.03-.02.06-.04.1-.06s.15-.06.03-.02c.04-.01.07-.03.11-.04.02,0,.04-.01.06-.02.01,0,.03,0,.04,0-.06,0-.07,0-.03,0,.04,0,.07,0,.11,0,.02,0,.04,0,.06,0,.08,0-.09-.02-.02,0,.09.02.17.05.26.08-.1-.03-.04-.02-.01,0,.02,0,.04.02.06.03.04.02.07.04.11.06s.07.04.1.07c.02.01.03.02.05.04-.1-.07-.02-.01,0,0,.11.09.21.19.31.3.04.04.07.08.11.12.01.02.03.03.04.05,0,0,.01.01.02.02.04.05-.07-.09-.01-.01.07.09.13.19.19.28.03.05.06.1.08.15.01.03.02.05.04.08.02.04.02.03,0-.01,0,.02.01.04.02.05.04.1.06.2.08.3.02.09,0-.08,0,.01,0,.03,0,.06,0,.08s0,.06,0,.08c0,.02,0,.04,0,.06,0,.04,0,.04,0-.01,0,0-.03.12-.03.13,0,.02-.01.04-.02.06-.02.07.04-.08,0-.01-.02.04-.04.07-.06.11-.01.02-.02.03-.03.05-.06.08.04-.05,0,0-.05.06-.1.11-.16.16-.01.01-.03.02-.04.04.08-.08.04-.03.02-.01-.03.02-.06.04-.09.06-.06.04-.12.07-.18.1-.03.01-.06.03-.08.04-.01,0-.03.01-.04.02-.06.03.1-.04.03-.01-.17.07-.35.13-.54.16-.02,0-.03,0-.05,0-.1.02.08,0,0,0-.05,0-.09,0-.14.01-.05,0-.1,0-.14,0-.02,0-.04,0-.06,0-.11,0,.06.01,0,0-.05,0-.1-.02-.15-.03-.02,0-.04-.01-.07-.02-.01,0-.03-.01-.04-.02-.04-.01-.03-.01.03.01,0-.02-.11-.06-.13-.07s-.04-.03-.06-.04c-.03-.02-.03-.02.02.01-.01-.01-.03-.02-.04-.03-.05-.04-.09-.09-.13-.13-.06-.06.04.07,0,0-.02-.03-.04-.05-.05-.08-.03-.05-.05-.1-.08-.14-.02-.04-.01-.08,0,0,0-.03-.02-.05-.03-.08-.03-.08-.05-.17-.07-.25,0-.03-.01-.07-.02-.1s0-.09,0,.05c0-.01,0-.02,0-.04-.01-.1-.03-.19-.11-.27-.07-.07-.17-.11-.27-.11-.18,0-.4.17-.38.38.05.42.17.81.45,1.15.32.39.82.58,1.32.56.28,0,.55-.07.81-.16.32-.11.61-.26.86-.48.36-.32.55-.8.49-1.28-.06-.53-.33-.97-.65-1.38-.47-.59-1.26-1.16-2.05-.85-.85.33-1.23,1.32-1.23,2.17,0,.09,0,.18.02.28.01.1.03.19.11.27.07.07.17.11.27.11.18,0,.4-.17.38-.38Z"/>
        <path class="cls-1" d="M217.45,131.81c-.54.1-1.04.38-1.41.77-.4.42-.84,1.1-.54,1.69.15.28.44.45.69.62.24.16.53.34.73.5.1.08.16.15.22.25.03.05.05.17.05.24,0,.05,0,.1,0,.15,0-.06,0,.02,0,.03,0,.03-.01.06-.02.09-.01.05-.03.1-.05.15.02-.05-.01.02-.02.03-.02.03-.04.07-.06.1-.07.12-.11.16-.23.26-.08.07-.22.16-.34.22-.24.12-.55.2-.84.28-.2.05-.32.27-.26.46s.27.31.46.26c.56-.15,1.14-.33,1.57-.75.39-.38.6-.96.51-1.5-.1-.65-.69-.97-1.18-1.31-.13-.09-.26-.17-.38-.26-.02-.02-.04-.03-.07-.05-.1-.07.02.02-.04-.03-.03-.02-.05-.05-.07-.07.03.04-.03-.06-.03-.06.01.04,0-.06,0-.04,0,.04,0-.03,0-.03,0,.04,0-.05.01-.06,0-.04.02-.07.03-.11.04-.1.12-.22.18-.31.29-.42.75-.71,1.27-.81.2-.04.31-.28.26-.46-.06-.21-.26-.3-.46-.26h0Z"/>
        <path class="cls-1" d="M221.31,128.37c.84-.24,1.69-.48,2.54-.66l-.47-.36c0,.17-.02.35-.03.52,0,.09-.02.19-.03.28,0,.04,0,.07-.01.11,0,.02,0,.05,0,.07,0-.04,0-.03,0,.01-.06.43-.15.85-.26,1.27s-.24.79-.4,1.17c0,.02-.02.04-.03.07.01-.03.01-.03,0,0-.01.03-.03.06-.04.1-.04.08-.07.16-.11.25-.07.15-.15.3-.22.44-.09.17-.05.42.13.51.17.09.41.05.51-.13.77-1.44,1.2-3.05,1.26-4.68,0-.26-.25-.41-.47-.36-.86.18-1.7.42-2.54.66-.19.05-.32.27-.26.46s.26.32.46.26h0Z"/>
        <path class="cls-1" d="M225.59,127.84l-.35,3.12c-.02.2.19.38.38.38.22,0,.35-.17.38-.38l.35-3.12c.02-.2-.19-.38-.38-.38-.22,0-.35.17-.38.38h0Z"/>
        <path class="cls-1" d="M227.29,127.43c0,.67-.05,1.34-.13,2.01v-.1c-.01.2-.05.4-.08.61-.02.1-.02.2.04.29.05.08.13.15.22.17.18.04.42-.06.46-.26.16-.9.24-1.81.24-2.72,0-.2-.17-.38-.38-.38s-.37.16-.38.38h0Z"/>
        <path class="cls-1" d="M225.25,128.61c.32-.19.65-.37.99-.54.17-.08.34-.16.51-.23,0,0,.11-.04.05-.02.05-.02.09-.04.14-.06.09-.04.17-.07.26-.1.7-.26,1.42-.46,2.15-.6.19-.04.32-.28.26-.46-.07-.21-.25-.3-.46-.26-1.51.28-2.97.84-4.29,1.63-.17.1-.25.34-.13.51s.33.24.51.13h0Z"/>
        <path class="cls-1" d="M222.04,133.51c1.27-.49,2.61-.78,3.97-.83s2.7.04,3.97-.43c.19-.07.32-.25.26-.46-.05-.18-.27-.33-.46-.26-1.26.46-2.6.34-3.91.41-1.38.07-2.74.36-4.02.85-.19.07-.32.25-.26.46.05.18.27.33.46.26h0Z"/>
        <path class="cls-1" d="M224.81,133.29l-.6,1.15c-.11.2-.25.42-.29.65-.04.29.11.55.39.64.17.06.36.04.54,0,.21-.04.41-.09.62-.13.09-.02.19-.03.28-.04.08-.01.02,0,0,0,.02,0,.05,0,.07,0,.06,0,.12-.01.18-.02.21-.02.42-.04.63-.04.47-.02.95,0,1.42.06.2.02.38-.19.38-.38,0-.22-.17-.35-.38-.38-.76-.09-1.52-.08-2.28.01-.39.05-.77.13-1.15.21,0,0-.04,0-.05,0,.04-.03.07,0,.03,0-.01,0-.09,0-.09,0,0,0,.09.02.03,0-.03,0-.04-.02.03.02-.02,0-.03-.03,0,0,.01.01.07.1.04.04.01.02.03.05.03.08,0,.05-.02.02,0,0,0,0-.04.08,0,0,.01-.02.02-.04.03-.06.05-.09.09-.18.14-.26l.62-1.18c.09-.17.05-.42-.13-.51-.17-.09-.42-.05-.51.13h0Z"/>
        <path class="cls-1" d="M226.29,133.68c-.48,1.53-.76,3.13-.84,4.73-.01.2.18.38.38.38.21,0,.36-.16.38-.38.08-1.54.35-3.04.82-4.53.06-.19-.07-.42-.26-.46-.2-.05-.4.06-.46.26h0Z"/>
        <path class="cls-1" d="M229.74,125.56c1.96,3.89,1.96,8.67,0,12.56-.22.43.43.81.65.38,1.62-3.21,1.99-6.99,1.08-10.46-.26-.99-.63-1.94-1.09-2.85-.22-.43-.86-.05-.65.38h0Z"/>
        <path class="cls-1" d="M233.86,136.52l-1.43,3.21c-.08.18-.06.41.13.51.16.09.43.06.51-.13l1.43-3.21c.08-.18.06-.41-.13-.51-.16-.09-.43-.06-.51.13h0Z"/>
        <path class="cls-1" d="M239.26,128.84c-.99.02-1.96.61-2.33,1.54s.29,1.82,1.13,2.21c.74.35,1.78.4,2.26,1.14.4.61.38,1.46-.04,2.05-.51.71-1.49.99-2.32.8-.47-.11-.67.62-.2.72.87.2,1.82.04,2.54-.5s1.12-1.36,1.05-2.26-.57-1.68-1.41-2.06c-.43-.2-.89-.31-1.33-.47-.35-.13-.73-.34-.93-.67-.26-.42-.03-.89.28-1.21.34-.35.81-.54,1.29-.55s.48-.76,0-.75h0Z"/>
        <path class="cls-1" d="M242.68,135.99c0-.07.02-.14.03-.21,0-.02.01-.11,0-.02,0-.03,0-.06.01-.09.02-.13.04-.26.06-.39.04-.26.08-.51.13-.77.09-.52.19-1.03.31-1.54.04-.19-.06-.41-.26-.46-.19-.04-.42.06-.46.26-.24,1.07-.42,2.15-.56,3.23-.01.09.05.21.11.27.07.07.17.11.27.11s.2-.04.27-.11c.07-.08.1-.16.11-.27h0Z"/>
        <path class="cls-1" d="M243.63,132.46c-.05,1.27-.03,2.54.06,3.8.01.2.16.38.38.38s.36-.16.38-.38c0-.14.02-.28.03-.42,0-.04,0-.07.01-.1-.01.08,0-.03,0-.04.01-.07.02-.14.03-.21.05-.28.12-.55.2-.82.04-.12.08-.25.12-.37.02-.07.05-.13.08-.2,0,0,.05-.11.02-.04.02-.04.04-.09.06-.13.11-.25.24-.49.37-.72.07-.12.15-.24.22-.35.02-.03.04-.05.06-.08-.04.06,0,0,.01-.01.05-.05.1-.1.15-.15.07-.07-.06.03.03-.02.03-.02.05-.03.08-.05.08-.05-.07.01.02,0,.02,0,.05-.01.07-.02.05-.02-.09,0,0,0,.02,0,.07-.01.09,0h-.04s.04,0,.06,0c.04.01.04.01-.01,0,.02,0,.03.02.05.03-.07-.04,0,0,.01.02-.06-.05,0,0,0,.02,0,.02.02.03.03.05-.04-.08,0,0,0,.02.02.06.03.12.04.18,0,.01.02.11,0,.03,0,.05.01.1.02.15.03.29.05.58.05.88,0,.34-.02.69-.06,1.03,0,.04,0,.08-.01.11,0-.07-.01.08-.01.09-.01.08-.02.15-.04.23-.03.18-.07.35-.11.52-.05.19.06.42.26.46s.41-.06.46-.26c.16-.67.25-1.36.26-2.04,0-.34-.01-.67-.05-1.01s-.07-.7-.31-.97-.62-.33-.95-.23c-.34.1-.59.36-.79.64-.37.51-.65,1.1-.86,1.69-.24.68-.38,1.39-.42,2.11h.75c-.09-1.27-.11-2.54-.06-3.8,0-.2-.18-.38-.38-.38-.21,0-.37.16-.38.38h0Z"/>
        <path class="cls-1" d="M251.46,125.54c-1.2,1.74-2.24,3.61-2.83,5.65-.54,1.85-1.04,3.91-.33,5.79.38,1.01,1.05,1.85,1.9,2.5.16.12.42.02.51-.13.12-.19.03-.39-.13-.51-.67-.52-1.23-1.21-1.54-2-.34-.87-.39-1.8-.3-2.72s.34-1.76.58-2.62c.27-.94.63-1.85,1.07-2.73.5-.99,1.08-1.93,1.71-2.84.27-.4-.37-.77-.65-.38h0Z"/>
        <path class="cls-1" d="M251.97,128.38c1.08-.72,2.25-1.22,3.51-1.51l-.47-.36c-.17,1.69-.56,3.37-1.14,4.98-.07.19.08.41.26.46.21.06.39-.07.46-.26.6-1.67.98-3.41,1.16-5.18.03-.25-.26-.41-.47-.36-1.31.31-2.57.85-3.69,1.59-.17.11-.24.33-.13.51.1.17.34.25.51.13h0Z"/>
        <path class="cls-1" d="M257.53,127.13c-.2,1.1-.27,2.21-.19,3.32.01.2.16.38.38.38.19,0,.39-.17.38-.38-.04-.53-.04-1.07-.02-1.6.01-.26.04-.52.07-.78,0-.03,0-.06.01-.09,0-.01.02-.13,0-.07s0-.06.01-.07c0-.03,0-.06.01-.09.02-.13.04-.27.07-.4.04-.19-.05-.41-.26-.46-.18-.04-.42.06-.46.26h0Z"/>
        <path class="cls-1" d="M259.12,127.13c-.05.97-.03,1.95.05,2.92,0,.1.04.19.11.27.07.07.17.11.27.11.19,0,.39-.17.38-.38-.09-.97-.1-1.95-.05-2.92.01-.2-.18-.38-.38-.38-.21,0-.36.16-.38.38h0Z"/>
        <path class="cls-1" d="M256.84,127.88c1.29-.06,2.38-.77,3.59-1.12.16-.05.32-.09.49-.12.05,0,.09-.02.14-.02-.07,0,.04,0,.06,0,.09,0,.18-.01.27-.02.2,0,.38-.17.38-.38s-.16-.38-.38-.38c-1.29.03-2.39.74-3.59,1.1-.16.05-.32.09-.49.12-.05,0-.09.02-.14.03-.02,0-.04,0-.05,0-.06.01.05,0,0,0-.09,0-.18.02-.27.02-.2,0-.38.17-.38.38,0,.2.17.38.38.38h0Z"/>
        <path class="cls-1" d="M251.88,133.48c2.86-.48,5.72-.96,8.58-1.44.2-.03.31-.28.26-.46-.06-.21-.26-.3-.46-.26-2.86.48-5.72.96-8.58,1.44-.2.03-.31.28-.26.46.06.21.26.3.46.26h0Z"/>
        <path class="cls-1" d="M254.7,134.24c-.08.51-.24.91-.51,1.34-.11.17-.03.41.13.51.72.45,1.57.14,2.33-.02.43-.09.79-.14,1.23-.16s.87-.01,1.3.03c.2.02.38-.19.38-.38,0-.22-.17-.36-.38-.38-.85-.08-1.71-.03-2.55.12-.37.07-.74.18-1.11.24,0,0-.12.02-.05,0-.05,0-.1.01-.15.01-.09,0-.17,0-.26,0-.08,0,.04.01-.04,0-.04,0-.08-.02-.12-.03-.01,0-.12-.05-.06-.02-.04-.02-.09-.05-.13-.07l.13.51c.3-.46.5-.98.59-1.52.03-.19-.05-.41-.26-.46-.18-.04-.43.05-.46.26h0Z"/>
        <path class="cls-1" d="M256.94,133.52c-.21,1.7-.32,3.42-.35,5.14,0,.2.17.38.38.38s.37-.17.38-.38c.03-1.72.14-3.43.35-5.14.02-.2-.19-.38-.38-.38-.22,0-.35.17-.38.38h0Z"/>
        <path class="cls-1" d="M261.78,124.58c2.41,3.5,2.79,8.05.87,11.86-.53,1.04-1.2,2-2,2.86-.33.35.2.88.53.53,3.03-3.25,4.23-7.89,2.92-12.17-.38-1.23-.94-2.4-1.67-3.45-.27-.4-.92-.02-.65.38h0Z"/>
        <path class="cls-1" d="M221.73,138.23c-.82-1.51-1.35-3.1-1.68-4.78-.35-1.77-.42-3.55.17-5.28.3-.89.77-1.74,1.34-2.48.29-.38-.23-.91-.53-.53-1.19,1.53-1.9,3.35-2,5.29-.08,1.66.25,3.38.72,4.97.33,1.11.78,2.18,1.34,3.2.23.42.88.05.65-.38h0Z"/>
        <line class="cls-4" x1="219.87" y1="131.31" x2="219.87" y2="131.31"/>
        <path class="cls-1" d="M265.03,121.93c.71,1.3,1.42,2.6,2.13,3.9.33.61.66,1.23.89,1.89s.33,1.36.34,2.07c.05,2.59-.56,5.25-1.58,7.62-.58,1.35-1.31,2.63-2.17,3.82-.28.39.37.77.65.38,1.57-2.18,2.7-4.66,3.31-7.27.31-1.33.5-2.71.53-4.08.01-.73-.03-1.47-.21-2.19s-.46-1.33-.77-1.96c-.78-1.54-1.65-3.04-2.48-4.56-.23-.42-.88-.05-.65.38h0Z"/>
      </g>
    </g>
    <g>
      <path class="cls-1" d="M201.89,154.67c1.3-.3,2.57-.74,3.86-1.07s2.54-.54,3.82-.36c.2.03.4-.05.46-.26.05-.18-.06-.43-.26-.46-2.8-.4-5.41.81-8.08,1.43-.47.11-.27.83.2.72h0Z"/>
      <path class="cls-1" d="M202.15,159.03c1.41-.11,2.71-.64,4.02-1.13s2.57-.93,3.94-.79c.2.02.38-.19.38-.38,0-.22-.17-.36-.38-.38-2.83-.27-5.21,1.71-7.96,1.92-.2.02-.38.16-.38.38,0,.19.17.39.38.38h0Z"/>
      <path class="cls-1" d="M216.62,145.92c-1.92,1.7-2.45,4.25-2.75,6.7-.31,2.58-.02,5.25,1.51,7.42.81,1.14,1.86,2.07,3.07,2.77.42.24.8-.4.38-.65-1.89-1.1-3.38-2.83-3.98-4.95-.37-1.3-.41-2.66-.29-4,.11-1.19.3-2.4.64-3.55.36-1.24.98-2.34,1.95-3.2.36-.32-.17-.85-.53-.53h0Z"/>
      <path class="cls-1" d="M219.04,153.19c1.8-.15,3.62-.19,5.43-.14.2,0,.38-.18.38-.38,0-.21-.17-.37-.38-.38-1.81-.06-3.62-.01-5.43.14-.2.02-.38.16-.38.38,0,.19.17.39.38.38h0Z"/>
      <path class="cls-1" d="M230.54,147.11c-.11,1.4-.02,2.8.28,4.17.04.19.28.32.46.26.2-.07.31-.26.26-.46-.07-.33-.13-.67-.18-1.01-.02-.13,0,.07,0-.06,0-.04,0-.08-.01-.12-.01-.09-.02-.18-.03-.27-.02-.16-.03-.33-.04-.49-.04-.68-.04-1.35.02-2.03.02-.2-.18-.38-.38-.38-.22,0-.36.17-.38.38h0Z"/>
      <path class="cls-1" d="M226.73,154.7c3.28-.94,6.66-1.5,10.07-1.66.48-.02.48-.77,0-.75-3.47.16-6.93.72-10.27,1.68-.46.13-.27.86.2.72h0Z"/>
      <path class="cls-1" d="M226.92,160.15c.46-.16.93-.26,1.42-.28.2,0,.54-.05.72.05.13.07.17.24.21.38.25.88.64,1.65,1.25,2.34.22.24.65.05.64-.27-.07-2.23-.27-4.45-.58-6.66l-.46.46c.6.16,1.18.02,1.74-.21.59-.24,1.15-.51,1.76-.69,1.21-.36,2.46-.46,3.71-.33l-.38-.38c.04,1.18.15,2.36.33,3.54.03.2.28.31.46.26.21-.06.29-.26.26-.46-.17-1.1-.27-2.22-.3-3.34,0-.22-.17-.35-.38-.38-1.21-.13-2.45-.03-3.63.28-.58.15-1.14.37-1.69.61s-1.11.52-1.69.36c-.3-.08-.5.19-.46.46.3,2.14.48,4.3.55,6.47l.64-.27c-.34-.38-.62-.81-.82-1.27-.18-.42-.22-.92-.49-1.29-.32-.42-.87-.44-1.35-.43-.57.01-1.13.12-1.67.3-.45.16-.26.88.2.72h0Z"/>
      <path class="cls-1" d="M233.24,157.46c.1,0,.21,0,.31,0,.08,0,.03,0,.01,0,.03,0,.05,0,.08.01.06.01.13.03.19.04.22.06.32.11.52.21.09.05.18.11.27.16.04.03.09.06.13.09.02.02.04.03.06.05-.04-.03.05.04.05.04.15.12.3.26.42.41-.04-.04,0,0,0,.01.01.02.03.04.04.06.03.04.05.08.07.12.01.02.02.04.03.06-.03-.06,0,0,0,0,.02.06.03.11.05.17-.01-.07,0,.06,0,.08,0,.03-.01.15,0,.07,0,.04-.02.09-.03.13,0,.02-.01.04-.02.06-.02.07.01-.02,0,.02-.04.08-.08.15-.12.22-.01.02-.03.04-.04.06.04-.05,0,0,0,0-.04.04-.08.09-.12.13-.13.14-.28.27-.44.39-.05.04.04-.03,0,0-.02.02-.05.03-.07.05-.06.05-.12.09-.18.14-.11.08-.22.16-.33.25-.23.17-.46.35-.69.52-.12.09-.2.21-.18.37.02.13.12.29.27.31,1.3.19,2.6.31,3.91.35.2,0,.38-.18.38-.38,0-.21-.16-.37-.38-.38-1.24-.04-2.51-.15-3.71-.32l.09.69c.44-.33.88-.66,1.32-.99.37-.28.75-.6.95-1.03.23-.48.21-1.01-.07-1.46-.26-.42-.67-.76-1.09-1.02-.49-.31-1.07-.51-1.65-.48-.2.01-.38.16-.38.38,0,.19.17.39.38.38h0Z"/>
      <path class="cls-1" d="M241.11,156.37c-.22,1.72-.78,3.45-1.59,4.99-.09.18-.05.41.13.51.17.1.42.05.51-.13.88-1.68,1.45-3.49,1.7-5.37.03-.2-.19-.38-.38-.38-.22,0-.35.17-.38.38h0Z"/>
      <path class="cls-1" d="M244.73,152.77c1.41.23,2.84.3,4.27.19.2-.01.38-.16.38-.38,0-.19-.17-.39-.38-.38-.69.05-1.38.07-2.07.04-.34-.01-.68-.04-1.01-.07-.37-.04-.63-.07-.99-.13-.19-.03-.41.05-.46.26-.04.18.05.43.26.46h0Z"/>
      <path class="cls-1" d="M255.37,145.92c-.03,1.45.13,2.9.45,4.32.04.19.27.32.46.26.2-.06.31-.26.26-.46-.08-.35-.15-.69-.21-1.04-.01-.08-.03-.16-.04-.24,0-.05-.01-.09-.02-.14,0-.01-.02-.13-.01-.08-.02-.17-.04-.34-.06-.51-.07-.7-.1-1.4-.09-2.1,0-.2-.18-.38-.38-.38s-.37.16-.38.38h0Z"/>
      <path class="cls-1" d="M252.7,153.46l3.99-.67c.65-.11,1.31-.22,1.96-.33.61-.1,1.25-.18,1.87-.07.2.04.4-.05.46-.26.05-.18-.06-.43-.26-.46-.67-.12-1.33-.07-2.01.03s-1.38.23-2.07.35l-4.15.7c-.2.03-.31.28-.26.46.06.21.26.3.46.26h0Z"/>
      <path class="cls-1" d="M250.54,160.1c.55-.48,1.4-.32,1.96.06.71.49,1.12,1.31,1.5,2.05.17.33.72.18.7-.19-.09-1.8-.19-3.6-.28-5.39-.02-.32-.09-.71.04-1.02.14-.32.6-.4.9-.49.83-.26,1.66-.51,2.5-.75.97-.27,1.95-.52,2.93-.75l-.47-.36c-.05,1.33.07,2.66.32,3.97.09.47.82.27.72-.2-.25-1.24-.34-2.5-.3-3.77,0-.25-.25-.42-.47-.36-1.85.44-3.68.94-5.49,1.52-.37.12-.77.22-1.06.49s-.39.67-.41,1.05c-.02.43.03.88.05,1.31.02.48.05.96.07,1.44.06,1.1.11,2.21.17,3.31l.7-.19c-.48-.92-1.02-1.92-1.96-2.44-.85-.46-1.93-.49-2.68.17-.36.32.17.85.53.53h0Z"/>
      <path class="cls-1" d="M256.75,156.78c.08-.02.16-.04.24-.05-.06.01.02,0,.04,0,.05,0,.09,0,.14,0,.08,0,.16,0,.25.01-.06,0,.02,0,.04,0,.05,0,.09.02.14.03.08.02.16.05.23.08.06.02-.02-.01.04.02.04.02.08.04.13.06.07.04.14.09.21.13.06.04-.02-.02.03.03.04.03.07.06.1.09.06.06.11.12.17.18-.04-.05.02.04.03.05.02.03.04.07.07.11s.04.07.06.11c0,0,.03.08.02.04-.01-.04,0,.02,0,.02.03.08.05.16.07.24,0,.04.02.08.02.12.01.06,0-.05,0,0,0,.02,0,.04,0,.05,0,.09,0,.18,0,.27,0,.04,0,.07,0,.11,0,0-.01.08,0,.04,0-.04,0,.02,0,.02-.02.09-.04.18-.06.26-.01.03-.02.07-.04.1,0,0-.03.08-.01.04.02-.03,0,.02-.01.02-.04.08-.08.16-.13.24,0,.01-.07.1-.04.06-.02.03-.05.06-.07.08-.06.07-.13.14-.21.2s-.07.06-.16.12c-.08.06-.16.11-.25.16-.16.09-.32.18-.48.27s-.32.18-.47.29c-.21.15-.5.32-.47.6.04.45.5.61.89.65.51.05,1.03.06,1.55.09s1.07.06,1.6.09c.2.01.38-.18.38-.38,0-.21-.17-.36-.38-.38-.68-.04-1.35-.07-2.03-.11-.33-.02-.67-.04-1-.06-.04,0-.07,0-.11,0-.01,0-.1-.01-.04,0s-.03,0-.04-.01c-.02,0-.05-.02-.08-.02-.04,0,.05.03,0,0-.01,0-.08-.03-.03-.02.02.02.02.02,0,0l.03.03s.01.04,0-.02l-.1.36c.1-.09.14-.12.26-.21s.24-.15.37-.23c.24-.14.49-.26.72-.41.49-.32.86-.74,1.06-1.3.37-1.07-.08-2.28-1.08-2.81-.54-.29-1.19-.38-1.79-.21-.19.06-.32.26-.26.46s.27.32.46.26h0Z"/>
      <path class="cls-1" d="M261.11,144.73c3.12,4.29,4.21,9.93,3,15.09-.17.73-.38,1.44-.64,2.14-.12.34-.26.67-.4.99-.11.25-.25.76-.55.81-.48.07-.27.79.2.72.67-.1.93-.98,1.15-1.51.28-.66.52-1.33.72-2.01.39-1.34.62-2.73.71-4.12.18-2.81-.25-5.69-1.27-8.32-.58-1.48-1.33-2.89-2.27-4.18-.28-.39-.93-.01-.65.38h0Z"/>
      <path class="cls-1" d="M222.12,149.56c-.97,2.21-1.19,4.67-.59,7.01.16.62,1.12.36.96-.27-.53-2.06-.36-4.28.49-6.24.11-.25.07-.53-.18-.68-.21-.13-.58-.07-.68.18h0Z"/>
    </g>
    <g>
      <path class="cls-6" d="M172.62,146.14c-1.01-6.53-1.82-13.11-2.18-19.71-.24-4.5-.17-9-.07-13.5.11-4.8.28-9.6.43-14.4.02-.72-.65-1.05-1.27-.96-3.46.49-6.92.53-10.41.49-3.18-.04-6.35-.12-9.53-.26-2.79-.13-5.55-.46-8.33-.71-3.46-.31-6.93-.14-10.4,0-4.24.17-8.49.37-12.73.57-.94.05-1.42,1.37-.5,1.86,4.77,2.55,9.33,5.51,13.56,8.89,2.25,1.8,4.28,3.83,6.39,5.77,3.82,3.5,7.76,6.87,11.73,10.2,3.22,2.7,6.27,5.56,9.19,8.59,4.35,4.52,8.5,9.25,12.45,14.13.34.42,1.06.35,1.41,0,.42-.42.34-.99,0-1.41-3.5-4.32-7.15-8.52-10.96-12.57-3.08-3.28-6.28-6.44-9.72-9.34-3.85-3.26-7.72-6.51-11.46-9.89-2.31-2.09-4.5-4.32-6.89-6.3-4.54-3.75-9.5-7.02-14.69-9.79l-.5,1.86c3.76-.18,7.53-.36,11.29-.51s7.34-.39,11-.13c2.77.19,5.52.59,8.3.74,3.08.17,6.18.24,9.27.29,4.05.06,8.05.02,12.07-.55l-1.27-.96c-.22,7.17-.5,14.35-.53,21.52-.02,4.64.3,9.27.77,13.88.43,4.26,1,8.5,1.65,12.73.08.53.75.83,1.23.7.57-.16.78-.69.7-1.23Z"/>
      <path class="cls-6" d="M130.87,106.6c1.28-.2,2.24-1.22,2.91-2.26.74-1.13,1.24-2.44,1.45-3.78.12-.77.16-1.54.09-2.32-.02-.2-.16-.38-.38-.38-.19,0-.39.17-.38.38.1,1.25-.05,2.5-.45,3.69-.38,1.12-.98,2.24-1.84,3.07-.45.44-.99.76-1.62.87-.2.03-.31.28-.26.46.06.21.26.29.46.26h0Z"/>
      <g>
        <path class="cls-6" d="M138.68,102.16c.12,1.23.31,2.45.56,3.66.04.19.28.32.46.26.2-.07.31-.26.26-.46-.12-.58-.23-1.17-.32-1.76-.02-.14-.04-.29-.06-.43,0-.03,0-.07-.01-.1,0-.02,0-.05,0-.07,0,.04,0,.04,0,.01,0-.07-.02-.15-.03-.22-.04-.3-.07-.6-.1-.9-.02-.19-.16-.38-.38-.38-.19,0-.4.17-.38.38h0Z"/>
        <path class="cls-6" d="M140.59,101.96l.34,1.59.17.79.09.4c.04.18.06.38.23.49.28.16.58-.07.59-.36,0-.14-.07-.27-.19-.34-.15-.09-.35-.06-.47.07-.14.14-.15.39,0,.53s.38.15.53,0l-.06.05-.19.05h0c-.09-.04-.18-.07-.27-.11h0c-.03-.05-.06-.11-.1-.16-.02-.06-.02-.11,0-.17-.03.09.02.03.16-.2h.38,0s.09.09.13.13c.03.09.04.1.03.05v-.04s-.02-.07-.03-.1l-.04-.18-.08-.38-.16-.76-.33-1.53c-.04-.19-.28-.32-.46-.26-.2.07-.31.26-.26.46h0Z"/>
        <path class="cls-6" d="M137.67,103.68c.19-.38.46-.69.81-.9.4-.25.83-.35,1.32-.35.56,0,1.12.08,1.68.03.44-.04.88-.18,1.25-.44.43-.31.74-.74.75-1.29,0-.2-.18-.38-.38-.38s-.37.17-.38.38c0,.03,0,.05,0,.08,0-.02.01-.06,0,.01,0,.04-.02.08-.03.12,0,.02-.01.03-.02.05.02-.06,0,0,0,0-.02.04-.05.08-.07.12-.04.06-.02.03,0,.01-.01.02-.03.04-.05.06-.03.03-.06.06-.09.09s-.07.06-.1.09c.04-.03-.01,0-.02,0-.03.02-.05.04-.08.05-.18.11-.29.16-.49.21-.23.06-.37.07-.63.08-.54,0-1.09-.08-1.63-.03-.5.04-.99.18-1.42.45s-.82.69-1.06,1.16c-.09.18-.05.41.13.51.17.1.42.05.51-.13h0Z"/>
        <path class="cls-6" d="M138.47,107.93c2.49-1.05,5.04-1.96,7.63-2.71.46-.13.27-.86-.2-.72-2.66.77-5.26,1.7-7.81,2.78-.19.08-.23.35-.13.51.11.19.33.21.51.13h0Z"/>
        <path class="cls-6" d="M141.95,107.16l-.13,1.57c-.02.24-.07.5-.04.75.03.29.21.52.5.6.43.11.87-.12,1.28-.23.49-.13.9-.2,1.38-.23.27-.02.55-.02.82-.01.13,0,.26.01.39.03.16.01.24.02.37.04.19.03.41-.05.46-.26.04-.18-.05-.43-.26-.46-.95-.14-1.91-.13-2.86.06-.23.05-.46.1-.68.17-.19.05-.37.13-.56.17-.09.02.05,0-.04,0-.04,0-.07,0-.11,0-.05,0,.07,0,.02,0-.05,0-.01,0-.01,0h.02s-.03,0,0,.01c.02.02.02.02,0,0l.03.04s0,0,0,0c.02.03,0,.02,0-.01,0-.05,0-.11,0-.16.01-.13.02-.27.03-.4l.14-1.68c.02-.2-.18-.38-.38-.38-.22,0-.36.17-.38.38h0Z"/>
        <path class="cls-6" d="M144.65,107.06c-.49,2.09-.66,4.24-.48,6.38.02.2.16.38.38.38.19,0,.39-.17.38-.38-.17-2.07-.02-4.16.45-6.18.11-.47-.61-.67-.72-.2h0Z"/>
      </g>
      <path class="cls-6" d="M118.81,94.61c.22-2.8,3.2-4.45,5.7-4.8,1.88-.27,3.8-.03,5.68.11.95.07,1.91.13,2.87.1.36-.01.75-.01,1.01-.3.28-.31.34-.82.45-1.21.63-2.13,1.26-4.26,1.89-6.38h-.72c.56,1.46,1.13,2.91,1.69,4.37.28.73.56,1.46.85,2.18.21.55.39,1.24,1.05,1.37.29.06.58,0,.87-.05.38-.06.77-.12,1.15-.17.77-.1,1.53-.19,2.3-.25,1.51-.13,3.03-.19,4.55-.2,3.07-.03,6.13.14,9.19.33,1.53.1,3.06.2,4.58.3,1.38.09,2.8.11,4.14.47.35.1.69.22,1.02.38.17.08.34.18.5.28.03.02.07.04.1.07.06.04-.06-.05,0,0,.21.18.32.34.45.57.58,1,.63,2.23.53,3.35-.04.48.71.48.75,0,.09-1.09.03-2.22-.4-3.24-.21-.5-.51-1.01-.96-1.33-1.08-.76-2.46-1-3.74-1.12-1.48-.15-2.98-.21-4.47-.3-6.12-.4-12.3-.86-18.41-.06-.41.05-.83.11-1.24.18-.29.05-.76.22-.96-.08-.2-.32-.3-.74-.44-1.09-.16-.4-.31-.8-.47-1.21-.64-1.65-1.28-3.29-1.92-4.94-.13-.33-.61-.38-.72,0-.56,1.89-1.12,3.78-1.68,5.68-.14.47-.27.95-.42,1.42-.08.24-.17.23-.41.24s-.48.01-.72.01c-.96,0-1.92-.08-2.87-.15-1.84-.15-3.71-.32-5.53,0-1.38.24-2.72.81-3.82,1.67-1.21.94-2.06,2.26-2.18,3.81-.04.48.71.48.75,0h0Z"/>
      <path class="cls-6" d="M173.5,142.69c1.03-.02,2.12-.18,3-.74,1.11-.71,1.56-1.91,1.52-3.19-.02-.52-.07-1.03-.08-1.55-.01-.85-.03-1.7-.04-2.56-.04-1.7-.09-3.41-.15-5.11-.07-1.93-.16-3.86-.26-5.79l-.28.36c2.1-.84,4.2-1.68,6.3-2.52.34-.13.37-.6,0-.72-1.05-.34-2.1-.69-3.15-1.03-.51-.17-1.01-.33-1.52-.5-.19-.06-.4-.12-.45-.33-.06-.24-.01-.54,0-.78.05-2.21.04-4.41-.02-6.62s-.17-4.45-.34-6.67c-.07-.96-.16-1.91-.23-2.87-.06-.83-.34-1.61-.98-2.18-1.17-1.02-2.88-1.15-4.36-1.09-.48.02-.48.77,0,.75,1.24-.05,2.72,0,3.74.8.67.52.83,1.25.87,2.06.05,1.03.18,2.06.25,3.09.31,4.39.38,8.78.31,13.17,0,.51.11.97.58,1.23s1.04.37,1.55.54c1.19.39,2.38.78,3.56,1.17v-.72c-2.1.84-4.2,1.68-6.3,2.52-.15.06-.28.19-.28.36.17,3.24.3,6.48.38,9.72.02.79.04,1.58.05,2.37.01.7-.01,1.4.04,2.1.08,1.06.17,2.18-.64,3s-2,.99-3.07,1.01c-.48,0-.48.76,0,.75h0Z"/>
      <path class="cls-6" d="M136.28,76.85c.02-.22.39-.25.55-.21.31.08.51.4.66.66.43.74.8,1.53,1.18,2.3.17.33.71.17.7-.19-.07-2.28-.13-4.56-.2-6.85,0-.17-.09-.59.01-.74s.51-.24.67-.31c.5-.22,1.01-.42,1.53-.62,1-.37,2.02-.7,3.06-.92,1.19-.25,2.39-.36,3.6-.28l-.38-.38c-.13,1.97-.26,3.94-.38,5.91-.03.48.72.48.75,0,.13-1.97.26-3.94.38-5.91.01-.21-.18-.36-.38-.38-2.31-.16-4.6.38-6.76,1.18-.54.2-1.08.42-1.61.64-.43.18-1.05.33-1.22.82-.09.25-.05.52-.05.78,0,.32.02.64.03.96.02.62.04,1.24.05,1.86.04,1.4.08,2.8.12,4.2l.7-.19c-.29-.56-.57-1.13-.86-1.69-.24-.46-.47-.97-.88-1.31-.7-.58-1.94-.41-2.06.63-.05.48.7.48.75,0h0Z"/>
      <path class="cls-6" d="M142.04,73.8c.09-.07-.06.03.04-.03.03-.02.06-.04.09-.06.05-.03.1-.06.15-.08.1-.05-.06.02.04-.02.02,0,.04-.02.07-.02.08-.03.16-.05.24-.06.02,0,.05,0,.07-.01.11-.02-.07,0,.04,0,.06,0,.12,0,.18,0,.07,0,.13,0,.2,0,.03,0,.06,0,.09,0-.08-.01.06.01.08.02.12.02.23.06.34.1s-.06-.03.04.02c.03.02.06.03.1.05.06.03.13.07.18.11.17.11.35.3.48.5.03.05.06.11.09.17.02.03.03.07.05.1-.03-.06.02.05.02.05.05.13.09.27.11.41,0,0,.02.13,0,.05,0,.04,0,.08.01.12,0,.06,0,.13,0,.19s0,.13,0,.19c0,.04,0,.08-.01.12,0,.05,0,.05,0,.02,0,.02,0,.04,0,.06-.1.57-.36,1.01-.78,1.4-.22.21-.47.37-.78.52-.14.07-.23.1-.39.16s-.33.09-.5.13c-.18.03-.29.24-.27.41.03.2.18.3.37.33,1.5.16,3.01.32,4.51.49.2.02.38-.19.38-.38,0-.22-.17-.35-.38-.38-1.5-.16-3.01-.32-4.51-.49l.1.74c1.36-.25,2.66-1.23,2.96-2.64.15-.69.07-1.43-.28-2.06-.32-.59-.89-1.02-1.54-1.19-.74-.19-1.51-.05-2.1.44-.16.13-.13.4,0,.53.15.15.37.13.53,0h0Z"/>
      <path class="cls-6" d="M187.17,115.73l.19,8.38c.01.48.76.48.75,0l-.19-8.38c-.01-.48-.76-.48-.75,0h0Z"/>
      <path class="cls-6" d="M193.23,113.24c-1.27,4.78-2.73,9.51-4.37,14.17-.16.46.56.65.72.2,1.64-4.67,3.09-9.4,4.37-14.17.12-.47-.6-.67-.72-.2h0Z"/>
      <path class="cls-6" d="M193.77,121.45c.3-.17.66-.37,1.02-.37.38,0,.52.32.62.63.3.9.59,1.8.89,2.71.13.4.73.33.74-.1.03-1.53.06-3.06.09-4.59.02-.78.03-1.57.05-2.35l.02-1.09c0-.16-.01-.35.01-.52s.11-.18.25-.23c1.36-.54,2.8-.95,4.23-1.29.72-.17,1.44-.32,2.17-.45.2-.03.5-.1.69.01.25.15.17.66.17.9.02,1.72.04,3.45.06,5.17,0,.27.32.49.56.32.36-.25.42-.88-.05-1.08-.19-.08-.4-.05-.51.13-.09.16-.05.43.13.51-.03-.07-.02-.14.05-.22l.56.32c-.02-1.72-.04-3.45-.06-5.17,0-.67-.02-1.44-.8-1.65-.29-.08-.58-.05-.87,0-.43.06-.85.15-1.27.24-1.63.34-3.23.79-4.79,1.35-.29.1-.63.19-.88.36-.32.22-.38.57-.39.93-.03.84-.03,1.68-.05,2.52-.04,1.95-.08,3.9-.12,5.85l.74-.1c-.19-.57-.37-1.14-.56-1.71-.17-.51-.29-1.11-.57-1.57-.59-.95-1.71-.59-2.5-.14-.42.24-.04.89.38.65h0Z"/>
      <path class="cls-6" d="M199.63,117.72c.6-.08,1.24.03,1.73.42.45.36.71.92.65,1.48-.02.22-.1.41-.2.59-.13.23-.21.34-.39.53-.35.37-.75.69-1.13,1.02-.44.39-.86.84-1.1,1.39-.13.31.08.61.42.55.73-.13,1.45-.27,2.18-.4.32-.06.64-.15.97-.17.12,0,.24,0,.32.06.02.01.03.04.06.09,0,0-.02-.03,0-.04-.02.02,0,.05.01,0-.08.18-.05.4.13.51.16.09.43.05.51-.13.19-.41.03-.86-.36-1.09s-.88-.12-1.3-.04c-.9.17-1.81.34-2.71.5l.42.55c.1-.24.26-.49.39-.64.18-.21.38-.41.59-.59.41-.36.84-.7,1.2-1.11.4-.45.69-.98.74-1.59.06-.71-.28-1.46-.8-1.93-.63-.56-1.5-.8-2.33-.7-.2.03-.38.15-.38.38,0,.18.17.4.38.38h0Z"/>
      <path class="cls-6" d="M161.94,99.63c-.14,2.11-.22,4.22-.22,6.34,0,.26,0,.53,0,.79,0,.22,0,.46.1.66.28.51.89.3,1.34.22.93-.15,1.89-.16,2.83-.08,1.07.1,2.12.36,3.11.76.19.07.41-.08.46-.26.06-.21-.07-.39-.26-.46-1.7-.67-3.56-.95-5.38-.8-.47.04-.94.13-1.4.2,0,0-.1.02-.1.01,0,.03.07.03.06.04.01,0-.01-.24-.01-.25,0-.26,0-.53,0-.79,0-.99.02-1.99.05-2.98.04-1.13.09-2.26.17-3.39.03-.48-.72-.48-.75,0h0Z"/>
      <path class="cls-6" d="M135.69,67.44c-1.13,4.27-2.44,8.5-3.92,12.66-.16.46.56.65.72.2,1.48-4.16,2.79-8.39,3.92-12.66.12-.47-.6-.67-.72-.2h0Z"/>
      <path class="cls-6" d="M127.58,69.79c.17,1.33.4,2.66.7,3.96.15.64.31,1.27.49,1.9.09.3.14.68.36.92.25.27.63.29.84-.03.11-.17.03-.42-.13-.51-.19-.11-.4-.03-.51.13l-.02.03.13-.13c.1-.05.18-.04.25.01-.03-.03-.04-.04-.02-.03.02.07-.04-.12-.03-.11-.04-.14-.08-.28-.12-.43-.08-.26-.15-.53-.22-.79-.14-.54-.27-1.09-.39-1.63-.24-1.09-.43-2.19-.57-3.3-.03-.2-.15-.38-.38-.38-.18,0-.4.17-.38.38h0Z"/>
    </g>
  </g>
</svg>