<?xml version="1.0" encoding="UTF-8"?>
<svg id="Layer_2" data-name="Layer 2" xmlns="http://www.w3.org/2000/svg" viewBox="0 0 272.99 119.76">
  <defs>
    <style>
      .cls-1 {
        fill: #a7a9ac;
      }

      .cls-1, .cls-2 {
        stroke-width: 0px;
      }

      .cls-2 {
        fill: #231f20;
      }
    </style>
  </defs>
  <g id="Layer_1-2" data-name="Layer 1">
    <path class="cls-2" d="M272.51,72.79c.64,0,.64-1,0-1s-.64,1,0,1h0Z"/>
    <g>
      <path class="cls-1" d="M.97,82.22c28.99-.14,57.98-.3,86.98-.16,14.4.07,28.8.18,43.21.3s28.93.13,43.36,1.21c7.94.6,15.87,1.52,23.84,1.51,8.1-.01,16.16-.96,24.19-1.98,1.26-.16,1.28-2.16,0-2-7.17.91-14.36,1.77-21.59,1.95s-14.18-.45-21.24-1.05c-14.4-1.23-28.82-1.47-43.27-1.59-28.94-.24-57.88-.47-86.82-.4-16.22.04-32.43.14-48.65.22-1.29,0-1.29,2.01,0,2h0Z"/>
      <path class="cls-1" d="M208.29,76.38l13.8,6.62-.2-1.57c-3.45,3.13-6.89,6.27-10.34,9.4-.95.87.46,2.28,1.41,1.41,3.45-3.13,6.89-6.27,10.34-9.4.45-.41.37-1.3-.2-1.57l-13.8-6.62c-1.15-.55-2.17,1.17-1.01,1.73h0Z"/>
    </g>
    <g>
      <path class="cls-1" d="M32.07,1.98c.5,9.74.62,19.5.36,29.25-.16,6.06-.51,12.1-.92,18.14-.32,4.73-.57,9.46-.79,14.2-.32,6.95-.56,13.91-.77,20.87-.29,9.7-.5,19.41-.67,29.11-.02,1.39-.05,2.78-.07,4.17-.02,1.29,1.98,1.29,2,0,.17-10.07.37-20.15.66-30.22.2-7.26.45-14.53.76-21.78.22-4.98.47-9.95.79-14.92.35-5.41.72-10.81.91-16.23.35-10.01.31-20.03-.13-30.04-.04-.85-.08-1.7-.12-2.55-.07-1.28-2.07-1.29-2,0h0Z"/>
      <path class="cls-1" d="M25.11,13.83c2.22-4.39,5.28-8.24,8.91-11.55l-1.57-.2c2.38,4.19,5.3,8.07,8.59,11.58.88.94,2.29-.48,1.41-1.41-3.18-3.4-5.98-7.13-8.28-11.18-.33-.58-1.1-.63-1.57-.2-3.74,3.41-6.94,7.43-9.22,11.95-.58,1.15,1.15,2.16,1.73,1.01h0Z"/>
    </g>
    <path class="cls-2" d="M17.16,48.21c1.39-10.9,7.88-23.43,19.34-26.36,10.77-2.76,20.19,5.95,26.57,13.5,1.82,2.15,3.3,3.99,4.72,6.46,2.49,4.36,4.41,9.07,6.29,13.72,2.49,6.16,4.84,12.37,6.97,18.66,1.26,3.72,2.41,7.48,3.74,11.18,1.26,3.47,2.76,6.84,4.49,10.11,3.16,5.97,6.31,12.12,10.63,17.36,3.28,3.98,7.8,7.61,13.27,6.79,4.92-.74,8.92-4.58,11.93-8.28,3.22-3.97,5.86-8.45,7.97-13.1,1.69-3.72,2.81-7.62,4.08-11.49,1.98-6.07,4.32-12.11,7.15-17.85,2.68-5.44,7.33-10,12.37-13.27,3.82-2.47,8.31-4.49,12.96-3.71,3.81.64,7.31,2.55,10.35,4.88,8.65,6.64,14.26,16.91,17.35,27.2.95,3.16,1.67,6.39,2.2,9.65.2,1.27,2.13.73,1.93-.53-1.93-11.95-6.65-23.82-14.86-32.88-5.19-5.73-12.99-11.5-21.19-10.36-5.95.83-11.47,4.7-15.73,8.73-2.3,2.17-4.44,4.63-6.07,7.35s-2.68,5.49-3.87,8.27c-2.24,5.27-4.1,10.64-5.83,16.1-1.28,4.04-2.87,7.88-4.93,11.59-4.13,7.46-13.07,20.63-22.98,13.97-2.41-1.62-4.36-3.92-6.06-6.24-2.08-2.85-3.88-5.91-5.6-8.99-2.36-4.24-4.74-8.51-6.56-13.01-1.38-3.42-2.48-6.94-3.64-10.44-1.81-5.49-3.74-10.93-5.82-16.32-2.28-5.9-4.59-11.83-7.43-17.49-1.27-2.52-2.7-4.91-4.48-7.11-6.18-7.67-14.22-16.21-24.69-16.91-11.64-.78-20.58,9.41-24.32,19.41-1.14,3.04-1.85,6.21-2.26,9.43-.16,1.27,1.84,1.26,2,0h0Z"/>
    <g>
      <path class="cls-2" d="M42.29,52.66c5.56-.86,11.12-1.73,16.68-2.59.53-.08.83-.75.7-1.23-.16-.57-.69-.78-1.23-.7-5.56.86-11.12,1.73-16.68,2.59-.53.08-.83.75-.7,1.23.16.57.69.78,1.23.7h0Z"/>
      <path class="cls-2" d="M50.42,42.17c.46,5.66,1.07,11.3,1.82,16.93.07.54.41,1,1,1,.48,0,1.07-.46,1-1-.75-5.63-1.36-11.27-1.82-16.93-.1-1.27-2.1-1.29-2,0h0Z"/>
    </g>
    <path class="cls-2" d="M108.6,95.84c2.87-.51,5.77-.73,8.69-.69,1.29.02,1.29-1.98,0-2-3.09-.04-6.17.22-9.22.76-.53.09-.83.74-.7,1.23.15.56.7.79,1.23.7h0Z"/>
    <g>
      <path class="cls-2" d="M160.59,67.8c3.79-.42,7.6-.7,11.41-.82,1.28-.04,1.29-2.04,0-2-3.81.12-7.62.39-11.41.82-.54.06-1,.42-1,1,0,.49.46,1.06,1,1h0Z"/>
      <path class="cls-2" d="M164.81,60.47c-.12,2.82-.04,5.64.25,8.45.14,1.38.33,2.75.55,4.11.11.64.28,1.29,1,1.49.66.18,1.24-.24,1.46-.84.11-.31,0-.76-.26-.97l-.06-.05c-.98-.82-2.4.59-1.41,1.41l.06.05-.26-.97-.03.08.46-.6-.09.06.5-.14h-.11c.17.05.34.1.5.14l-.12-.07.36.36c-.18-.31-.18-1.08-.23-1.44-.07-.47-.14-.94-.19-1.42-.13-1.08-.23-2.17-.31-3.25-.14-2.13-.16-4.27-.08-6.4.05-1.29-1.95-1.28-2,0h0Z"/>
    </g>
  </g>
</svg>