<svg id="Layer_1" data-name="Layer 1" xmlns="http://www.w3.org/2000/svg" viewBox="0 0 231.74 212.44"><defs><style>.cls-1{fill:#231f20;}.cls-2{fill:#939598;}.cls-3{fill:#ed1c24;}</style></defs><title>completing-the-square-example-3-2</title><path class="cls-1" d="M42,32.31c1.19-2.29,2.37-4.58,3.7-6.78a32.1,32.1,0,0,1,4.5-6.11c1.53-1.54,3.82-2.84,6-1.85a4.73,4.73,0,0,1,2,2.49l1.89,3.8,4.28,8.59c.28.58,1.15.07.86-.51l-4.11-8.25c-.71-1.42-1.41-2.83-2.12-4.24a5.61,5.61,0,0,0-2-2.58,5.72,5.72,0,0,0-6.19.69,22.21,22.21,0,0,0-5,5.93,93.89,93.89,0,0,0-4.66,8.31c-.3.57.57,1.08.86.51Z" transform="translate(-19.66 -2.29)"/><path class="cls-1" d="M53.82,17.38c-.29,25.71,2.1,51.33,3.52,77,.7,12.7,1.14,25.42.92,38.14s-1,25.71-1.53,38.56c-.62,14.39-1,28.81,0,43.19l.85-.35A96.61,96.61,0,0,1,41.6,197l-.79.61c2.4,3,4.92,5.9,7.59,8.67q2,2.08,4.09,4.06a37.43,37.43,0,0,0,4,3.62c1.31.9,2.43.33,3.43-.7,1.46-1.48,2.86-3,4.29-4.52l8.56-9c.44-.46-.26-1.17-.71-.7l-7.76,8.2-4,4.24a9.58,9.58,0,0,1-1.87,1.84c-1,.55-1.94-.6-2.61-1.2a123.09,123.09,0,0,1-14.33-15.17c-.35-.44-1.12.15-.78.61a97.61,97.61,0,0,0,16.17,17.14c.3.25.88.12.85-.36-1.76-25.69.72-51.39,1.4-77.08s-1.38-51.1-2.95-76.62c-.88-14.38-1.56-28.77-1.39-43.17a.5.5,0,0,0-1,0Z" transform="translate(-19.66 -2.29)"/><path class="cls-2" d="M239.79,118.28a131.86,131.86,0,0,0,10.78,14.36c.42.49,1.12-.22.7-.71a131,131,0,0,1-10.62-14.16c-.35-.53-1.22,0-.86.51Z" transform="translate(-19.66 -2.29)"/><path class="cls-2" d="M240.09,132.79a62,62,0,0,1,4.63-7.37c.85-1.16,1.74-2.31,2.69-3.4a5.2,5.2,0,0,1,3.1-2.08c.63-.09.36-1-.27-1a5.62,5.62,0,0,0-3.21,2,43.1,43.1,0,0,0-2.77,3.42,61.2,61.2,0,0,0-5,7.92c-.31.57.56,1.07.86.5Z" transform="translate(-19.66 -2.29)"/><path class="cls-2" d="M52.73,3.83C52.8,5,52.51,6.28,53,7.4a2.25,2.25,0,0,0,2.25,1.46c1-.15,1.55-1.1,2-1.93L59.34,3l-.92-.38a53.67,53.67,0,0,1-5,12.67c-.31.56.55,1.07.86.5A54.81,54.81,0,0,0,59.39,2.92a.5.5,0,0,0-.92-.38L57,5.24a9.68,9.68,0,0,1-1.36,2.33c-.75.72-1.59,0-1.85-.81a11.47,11.47,0,0,1-.1-2.93c0-.64-1-.64-1,0Z" transform="translate(-19.66 -2.29)"/><path class="cls-1" d="M29.4,127.22q40.76,0,81.5-.49,40.54-.45,81.08-1.31,22.89-.48,45.78-1.1a.5.5,0,0,0,.43-.75,47,47,0,0,0-12.72-13.66c-.53-.38-1,.49-.51.87a72.42,72.42,0,0,1,14.27,14l.08-.6q-6.24,6.93-13.09,13.28c-.48.44.23,1.14.7.7q6.86-6.33,13.09-13.28a.48.48,0,0,0,.08-.6,74.17,74.17,0,0,0-14.62-14.35l-.51.87a45.64,45.64,0,0,1,12.37,13.3l.43-.76q-40.74,1.09-81.48,1.78-40.54.68-81.09.94-22.89.15-45.79.18a.5.5,0,0,0,0,1Z" transform="translate(-19.66 -2.29)"/><path class="cls-1" d="M43.75,110.36A104.27,104.27,0,0,0,32,122.65c-.86,1.06-1.76,2.13-2.54,3.27a2.3,2.3,0,0,0-.07,2.82,13.57,13.57,0,0,0,3,2.49l3.8,2.82,8.4,6.23c.45.33.87-.28.69-.68a3.6,3.6,0,0,1-.29-1.94c.07-.64-.93-.64-1,0a4.65,4.65,0,0,0,.42,2.44l.69-.68c-4.64-3.44-9.28-6.86-13.9-10.31a4,4,0,0,1-1.18-1.17c-.33-.61,0-1.17.38-1.68.76-1.05,1.59-2.07,2.41-3.08,1.67-2.06,3.43-4,5.25-6q3-3.21,6.37-6.15c.48-.43-.23-1.13-.71-.71Z" transform="translate(-19.66 -2.29)"/><path class="cls-3" d="M40.2,50.68a129.1,129.1,0,0,1,6-32.64q1.4-4.3,3.14-8.49h-2.9L52.79,25,56,32.7c.52,1.26,1,2.53,1.56,3.8S58.71,39,60.16,39a2.08,2.08,0,0,0,1.74-2.88,2,2,0,0,0-1.25-1.38,1.68,1.68,0,0,0-1.94.85,1.54,1.54,0,0,0,.54,2,1.51,1.51,0,0,0,2-.54l-.39.37-.76.21-.3,0-.66-.39c.08.07-.13-.25-.18-.33.1.16,0,.28,0,0,0,.06,0,.19,0,0,.18-.67,1.89-.13,1.65-.75a3.3,3.3,0,0,1-.2-.33c-.43-.82-.73-1.72-1.08-2.57l-2.46-6L52.14,15.55l-2.79-6.8a1.52,1.52,0,0,0-2.9,0A125.67,125.67,0,0,0,38.08,41q-.61,4.85-.88,9.7a1.5,1.5,0,0,0,3,0Z" transform="translate(-19.66 -2.29)"/><path class="cls-3" d="M44.92,18.23q2.82,23.51,7.74,46.71a411.78,411.78,0,0,0,11.41,43,224,224,0,0,0,16.31,38.34c6.3,11.38,14,22.3,23.83,30.91,9,7.87,19.93,14.15,31.88,15.91A41.94,41.94,0,0,0,168,185.2c9.38-6.87,16.32-16.59,21.8-26.73,6.29-11.64,10.92-24.14,14.87-36.74,4.45-14.21,8.15-28.68,11.49-43.19q5.26-22.9,9-46.14Q226.14,26.72,227,21a1.56,1.56,0,0,0-1.05-1.85,1.51,1.51,0,0,0-1.84,1.05q-3.36,23-8.17,45.76Q211.18,88.27,205,110.2c-3.59,12.67-7.65,25.28-13.09,37.29-4.83,10.69-10.77,21.25-19.09,29.64A49.64,49.64,0,0,1,160,186.6a38.12,38.12,0,0,1-15.63,4c-11.41.43-22.42-4-31.66-10.48-10.39-7.25-18.61-17.17-25.33-27.82A190.81,190.81,0,0,1,70.06,116,358,358,0,0,1,58,74.91q-5.32-22.53-8.59-45.48c-.54-3.73-1-7.46-1.47-11.2a1.54,1.54,0,0,0-1.5-1.5,1.5,1.5,0,0,0-1.5,1.5Z" transform="translate(-19.66 -2.29)"/><path class="cls-3" d="M208.75,53.62q5.7-13,12.49-25.6c1.11-2,2.24-4.08,3.41-6.1a6.36,6.36,0,0,1,.66-1c.09-.11.29-.26.3-.28s.11,0,0,0a1,1,0,0,0-.25,0c-.13,0,.11.11,0,0l.08.1a1.81,1.81,0,0,1,.29.41,7.56,7.56,0,0,1,.55,1.15,121,121,0,0,1,4.25,13.13A137.82,137.82,0,0,1,233.76,51a1.52,1.52,0,0,0,1.85,1,1.54,1.54,0,0,0,1-1.85,130.27,130.27,0,0,0-7.38-28.61c-.75-1.93-2.2-4.79-4.78-3.76a5.33,5.33,0,0,0-2.38,2.47c-.6,1-1.19,2.08-1.77,3.12q-3.63,6.51-7,13.19-3.81,7.65-7.22,15.48a1.54,1.54,0,0,0,.54,2,1.51,1.51,0,0,0,2.05-.54Z" transform="translate(-19.66 -2.29)"/><path class="cls-2" d="M202.45,115.68A51.34,51.34,0,0,0,202,132.5c.08.63,1.05.36,1-.27a50,50,0,0,1,.45-16.28c.12-.63-.84-.9-1-.27Z" transform="translate(-19.66 -2.29)"/><path class="cls-2" d="M186.36,99.17,183.9,99c-.59,0-1.17,0-1.39.63a11.81,11.81,0,0,0-.39,2.15c-.11.82-.18,1.65-.21,2.48a.38.38,0,0,0,.37.38l1.25-.17.7-.09a1.23,1.23,0,0,1,.6,0c.56.23.22,1.45,0,1.83a2.32,2.32,0,0,1-3.47.77c-.37-.29-.91.24-.53.53a3.06,3.06,0,0,0,4.69-1,2.54,2.54,0,0,0,0-2.53,1.29,1.29,0,0,0-1.29-.29l-1.95.26.38.37a24.53,24.53,0,0,1,.46-3.92c0-.27,0-.58.35-.61a5.32,5.32,0,0,1,.89,0l2,.12c.48,0,.48-.73,0-.75Z" transform="translate(-19.66 -2.29)"/><path class="cls-2" d="M188.69,104.42a18,18,0,0,0,4.64-.07c.35,0,.31-.52.09-.68l-.17-.12c-.39-.28-.77.37-.38.65l.17.11.09-.68a17.83,17.83,0,0,1-4.44,0,.38.38,0,0,0,0,.75Z" transform="translate(-19.66 -2.29)"/><path class="cls-2" d="M190.53,102.1l-.17,5.89h.75v-.57a.38.38,0,0,0-.75,0V108a.38.38,0,0,0,.75,0l.17-5.89c0-.48-.73-.48-.75,0Z" transform="translate(-19.66 -2.29)"/><path class="cls-2" d="M194.33,106.29c1.24-.45,1.79,1.11,2,2,.11.39.77.34.73-.1-.14-1.94-.24-3.88-.27-5.83q0-1.45,0-2.91c0-.64.39-.5.87-.46s.95.06,1.42.06a17.86,17.86,0,0,0,2.53-.21c.47-.08.93-.17,1.39-.29a6.52,6.52,0,0,1,1.32-.37c.81,0,.59,2,.57,2.52a13.74,13.74,0,0,1-.49,3l.68-.09-.44-.72a.38.38,0,0,0-.65.38l.44.72a.39.39,0,0,0,.69-.09,12.87,12.87,0,0,0,.44-5.2,1.28,1.28,0,0,0-.9-1.24,1.88,1.88,0,0,0-.88.11c-.45.14-.91.27-1.37.38a18.35,18.35,0,0,1-5.23.27c-.61,0-1.06.2-1.13.84a25.78,25.78,0,0,0,0,2.78q0,3.19.27,6.37l.74-.1c-.37-1.3-1.28-3.15-3-2.53-.45.16-.26.89.2.72Z" transform="translate(-19.66 -2.29)"/><path class="cls-2" d="M198.48,101.29l-.62,5.82a.38.38,0,0,0,.74.1l.43-1a.38.38,0,0,0-.73-.2l-.42,1.05.73.1.62-5.82c.05-.48-.7-.48-.75,0Z" transform="translate(-19.66 -2.29)"/><path class="cls-2" d="M201.71,100.93a.63.63,0,0,1,.71,0,.83.83,0,0,1,.37.84c-.07.8-.8,1.28-1.45,1.59a.38.38,0,0,0,.09.69,2.75,2.75,0,0,1,1.31.4.68.68,0,0,1,.22,1,1.51,1.51,0,0,1-1.06.47c-.52,0-1.05,0-1.57.09s-.28.8.2.72a15,15,0,0,0,2-.17,1.84,1.84,0,0,0,1.21-1,1.39,1.39,0,0,0-.39-1.5,3,3,0,0,0-1.74-.69l.09.69a2.65,2.65,0,0,0,1.8-2.69,1.46,1.46,0,0,0-2.33-.93c-.37.31.16.84.53.53Z" transform="translate(-19.66 -2.29)"/><path class="cls-2" d="M180.47,109.35a.6.6,0,0,0-.74.9.9.9,0,0,0,1,.24c.58-.13,1.13-.34,1.72-.45a36.94,36.94,0,0,1,7.21-.24,65.23,65.23,0,0,0,7.38-.53l7.92-.86c.48,0,.48-.8,0-.75-4.27.47-8.54,1.07-12.83,1.32-2,.12-4,0-6,0a24.37,24.37,0,0,0-3,.18c-.44.06-.89.13-1.32.23a6.36,6.36,0,0,0-.66.17,6.79,6.79,0,0,0-1,.41c.43.21.81-.44.37-.64Z" transform="translate(-19.66 -2.29)"/><path class="cls-2" d="M190.25,111.41a18.23,18.23,0,0,0-1.41,5.67c-.12,1.47.07,3.23,1.68,3.8A2.77,2.77,0,0,0,194,119a2.51,2.51,0,0,0-.18-2.17,1.8,1.8,0,0,0-1.79-.59,4.4,4.4,0,0,0-3.34,3.53c-.09.48.64.68.73.2a3.9,3.9,0,0,1,2.08-2.79,1.55,1.55,0,0,1,1.61,0c.46.4.32,1.25.13,1.76a2,2,0,0,1-2.87,1.08c-1.09-.73-.85-2.44-.72-3.55a18,18,0,0,1,1.32-4.82c.19-.44-.54-.64-.72-.2Z" transform="translate(-19.66 -2.29)"/><path class="cls-2" d="M72.16,116.59q-1,8.66-1.39,17.35c0,.64,1,.64,1,0q.41-8.7,1.39-17.35c.07-.64-.93-.63-1,0Z" transform="translate(-19.66 -2.29)"/><path class="cls-2" d="M75.67,100.91A11,11,0,0,0,72,99.65a.38.38,0,0,0-.48.36l-.48,8c0,.4.51.48.7.19a4,4,0,0,1,2.06-1.7,1.16,1.16,0,0,1,1.26.18,1.64,1.64,0,0,1,.21,1.4,2.24,2.24,0,0,1-3.84,1c-.33-.36-.86.17-.53.53a3,3,0,0,0,5.16-1.68,1.83,1.83,0,0,0-1.92-2.24,4.52,4.52,0,0,0-3,2.16l.7.19.48-8-.47.36a10.43,10.43,0,0,1,3.47,1.19.38.38,0,0,0,.38-.65Z" transform="translate(-19.66 -2.29)"/><path class="cls-2" d="M77.1,105.05a10.15,10.15,0,0,0,2.39.29.38.38,0,0,0,.38-.37.39.39,0,0,0-.38-.38,9.5,9.5,0,0,1-2.19-.26.37.37,0,1,0-.2.72Z" transform="translate(-19.66 -2.29)"/><path class="cls-2" d="M80.42,108.09c.1-.18.21-.43.4-.52s.33.15.43.36l.69,1.48c.16.35.71.17.7-.18l-.14-3.78-.06-1.79,0-1a2.87,2.87,0,0,1,0-1l-.17.23a3.63,3.63,0,0,1,1.2-.28l1.3-.22q1.4-.23,2.79-.36l1.32-.11c.2,0,.41-.08.51.14a1.79,1.79,0,0,1,0,.56c0,.21-.19,2.54-.2,2.54l.37.1,0,0c-.3-.38-.83.16-.53.53l0,.05a.37.37,0,0,0,.36.1.65.65,0,0,0,.48-.51,9.09,9.09,0,0,0,.14-1.38c0-.49.09-1,.14-1.47a1.41,1.41,0,0,0-.16-1c-.44-.58-1.5-.3-2.11-.25-1,.09-1.94.21-2.9.35-.5.08-1,.16-1.48.26a7.24,7.24,0,0,0-1.4.28.62.62,0,0,0-.4.53,8.69,8.69,0,0,0,0,1.44l.22,6,.7-.19-.65-1.41a1.52,1.52,0,0,0-.63-.82c-.67-.3-1.25.37-1.54.9s.42.8.65.38Z" transform="translate(-19.66 -2.29)"/><path class="cls-2" d="M84.22,103.42a39.8,39.8,0,0,1,.07,4.76c0,.48.73.48.75,0a39.8,39.8,0,0,0-.07-4.76c0-.47-.79-.48-.75,0Z" transform="translate(-19.66 -2.29)"/><path class="cls-2" d="M87.24,102.68a.38.38,0,0,1,.45,0,.57.57,0,0,1,.17.58c-.1.58-.65.94-1.09,1.24a.38.38,0,0,0,.19.7,2.75,2.75,0,0,1,1.26.46c.24.16.66.56.53.89-.07.16-.26.21-.41.26s-.47.11-.72.15a9.08,9.08,0,0,1-1.65.08c-.48,0-.48.73,0,.75a9.44,9.44,0,0,0,2.19-.17c.58-.12,1.23-.34,1.34-1a1.66,1.66,0,0,0-.73-1.48A3.42,3.42,0,0,0,87,104.5l.19.7c.76-.52,1.61-1.22,1.45-2.26a1.17,1.17,0,0,0-1.89-.79c-.37.31.16.83.53.53Z" transform="translate(-19.66 -2.29)"/><path class="cls-2" d="M70.41,112.63c6.17-.69,12.38-1.09,18.59-1.21a.38.38,0,0,0,0-.75c-6.21.12-12.42.52-18.59,1.21-.48.05-.48.8,0,.75Z" transform="translate(-19.66 -2.29)"/><path class="cls-2" d="M79.56,113.16a14.4,14.4,0,0,0-1.16,4.74c-.08,1.15-.21,3,.94,3.68S82,121,82.51,119.9c.25-.53.6-1.44.21-2s-1.18-.25-1.68,0a5.13,5.13,0,0,0-1.78,1.56c-.17.25-.25.64.06.83A.46.46,0,0,0,80,120a.38.38,0,0,0-.18-.42l0,0c-.43-.22-.81.42-.38.64l0,0-.18-.42,0-.07.36-.1h0l.26.26a7.64,7.64,0,0,1,.53-.58,4.06,4.06,0,0,1,.74-.57c.21-.13.57-.4.81-.39s.17,0,.18.22a1.77,1.77,0,0,1-.08.4,3.35,3.35,0,0,1-1,1.64c-.4.35-1,.65-1.49.21a2,2,0,0,1-.46-1.35,11.55,11.55,0,0,1,0-2,13.12,13.12,0,0,1,1-4c.19-.44-.45-.82-.65-.38Z" transform="translate(-19.66 -2.29)"/><path class="cls-2" d="M50.59,85.62l9.71-.28,2.33-.06a7.5,7.5,0,0,0,2.12-.14c.9-.29.93-1.84-.14-1.73-.63.07-.64,1.07,0,1a.5.5,0,0,0-.5-.18l-.5,0-.73,0-1.72,0-3.57.1-7,.2c-.64,0-.64,1,0,1Z" transform="translate(-19.66 -2.29)"/><path class="cls-2" d="M34.91,83A60.82,60.82,0,0,1,43,74.53l-.86-.35a71.45,71.45,0,0,1-.85,18.47l.92-.12L41.79,92c-.38-.51-1.25,0-.86.51l.4.54c.23.3.83.35.92-.12a72.66,72.66,0,0,0,.88-18.74.51.51,0,0,0-.85-.36,60.72,60.72,0,0,0-8.07,8.51c-.41.49.29,1.2.7.71Z" transform="translate(-19.66 -2.29)"/><path class="cls-2" d="M35.29,94a19.43,19.43,0,0,1,9.61-.29c.63.14.9-.83.27-1a20.52,20.52,0,0,0-10.15.3.5.5,0,0,0,.27,1Z" transform="translate(-19.66 -2.29)"/><path class="cls-2" d="M141.84,120.37a40.8,40.8,0,0,1-1.51,11.47l1,.13v-.82a.5.5,0,0,0-1,0V132a.5.5,0,0,0,1,.13,41.46,41.46,0,0,0,1.55-11.73.5.5,0,0,0-1,0Z" transform="translate(-19.66 -2.29)"/><path class="cls-2" d="M139.1,99.44a28,28,0,0,1-3.92-1.15.5.5,0,0,0-.61.35,17.54,17.54,0,0,0-.65,2.78,11.94,11.94,0,0,0-.22,2.73c.07.83.66,1.12,1.42,1.15l3,.09-.44-.76a4.47,4.47,0,0,1-4.63,2.63c-.64-.08-.63.92,0,1a5.42,5.42,0,0,0,5.5-3.12.51.51,0,0,0-.43-.75l-2.41-.07a2.75,2.75,0,0,1-.91,0c-.23-.11-.12-.66-.11-.89a18.51,18.51,0,0,1,.82-4.49l-.62.35a28.4,28.4,0,0,0,3.92,1.16c.63.14.9-.83.27-1Z" transform="translate(-19.66 -2.29)"/><path class="cls-2" d="M143,99.58q-1.11,2.76-2.23,5.5l-1.08,2.65c-.2.47-.39,1-.59,1.42l-.25.61c-.07.17-.36.58-.15.65l.3.23-.16.36-.38,0h.06a.5.5,0,0,0,.27-1c-1-.26-1,1.46,0,1.31.5-.08.69-.56.86-1l.89-2.13q1.74-4.22,3.43-8.46c.24-.59-.73-.85-1-.26Z" transform="translate(-19.66 -2.29)"/><path class="cls-2" d="M146,102.14a31,31,0,0,0-2.13,6,30.23,30.23,0,0,0-.58,3.13,6.56,6.56,0,0,0,0,2.72c.55,1.78,2.66,1.57,3.82.56.73-.65,2.61-3.09.68-3.56a4,4,0,0,0-2.6.75,6.32,6.32,0,0,0-2.11,2.13.5.5,0,0,0,.86.5,5.29,5.29,0,0,1,1.75-1.77,5.07,5.07,0,0,1,1.06-.48c.28-.09.84-.34.85.09s-.4.76-.59,1a4,4,0,0,1-1,.92c-.75.43-1.69.3-1.85-.66a9,9,0,0,1,.21-2.64c.14-.92.33-1.83.55-2.73a29.53,29.53,0,0,1,2-5.4c.27-.58-.59-1.09-.87-.51Z" transform="translate(-19.66 -2.29)"/><path class="cls-2" d="M143.43,192.08a.94.94,0,0,1,0-.66c.05-.11.22-.28.36-.21s.19.49.23.64.11.52.15.78c.13.86.14,2-.72,2.54a1.86,1.86,0,0,1-2.15-.36,2.3,2.3,0,0,1-.29-2.6c.32-.68,1.24-1.81,2.09-1.26a1.14,1.14,0,0,1,.18,1.83,1.41,1.41,0,0,1-2-.33,1.73,1.73,0,0,1,.51-2.28,2.2,2.2,0,0,1,2.58.19,2.93,2.93,0,0,1,.91,2.72,2,2,0,0,1-2,1.81c-1-.07-1.37-1-1.28-1.86a5.51,5.51,0,0,1,1.07-2.69c.73-.91,1.29.33,1.41,1a7.9,7.9,0,0,1-.33,3.83c-.26.76-.94,1.89-1.87,1.27a3,3,0,0,1-1.06-2.73,2.31,2.31,0,0,1,1.45-2.07,1.87,1.87,0,0,1,2.11.5,2.36,2.36,0,0,1-.54,2.91,5.83,5.83,0,0,1-1.31,1l.68.18c-.74-1.25-1.85-3.28-.37-4.45l-.35.14a1,1,0,0,1,.73,1.06.86.86,0,0,1-1.1.59,1.27,1.27,0,0,1-.31-.15.28.28,0,0,1-.1-.09c0,.07,0,0,0-.06s.26-.36.44-.33c.34.06.18.62-.08.69-.62.15-.36,1.12.27,1a1.37,1.37,0,0,0,0-2.62,1.47,1.47,0,0,0-1.59.94,1.19,1.19,0,0,0,.74,1.5,1.85,1.85,0,0,0,2.69-1.63,2,2,0,0,0-.93-1.6,1.36,1.36,0,0,0-.93-.24,1.75,1.75,0,0,0-.8.77c-1,1.66-.09,3.55.79,5a.5.5,0,0,0,.68.18,4.73,4.73,0,0,0,2.65-3.65,2.59,2.59,0,0,0-2.43-2.74,3.11,3.11,0,0,0-3.11,1.86,4.34,4.34,0,0,0,.45,4.14,2.34,2.34,0,0,0,1.8,1.09,2.14,2.14,0,0,0,1.74-1,5.69,5.69,0,0,0,.84-2.13,8.91,8.91,0,0,0,.16-2.72c-.11-1.17-.7-3.13-2.28-2.72a2.45,2.45,0,0,0-1.42,1.42,7.75,7.75,0,0,0-.74,2c-.28,1.35.08,2.86,1.53,3.34a2.87,2.87,0,0,0,3.49-1.88,3.93,3.93,0,0,0-.84-4.08,3.23,3.23,0,0,0-3.86-.56,2.75,2.75,0,0,0-1.06,3.53,2.4,2.4,0,0,0,3.26,1,2.07,2.07,0,0,0,.57-3.17,2,2,0,0,0-1.56-.78,2.73,2.73,0,0,0-1.9,1.05,3.67,3.67,0,0,0-.59,4,3,3,0,0,0,3.26,1.39,2.88,2.88,0,0,0,1.85-3.21,6.41,6.41,0,0,0-.44-2.17,1.2,1.2,0,0,0-1.75-.49,1.65,1.65,0,0,0-.54,1.94c.19.61,1.15.35,1-.27Z" transform="translate(-19.66 -2.29)"/><path class="cls-2" d="M155,193.3a48.05,48.05,0,0,0-1.26,6.71,31.1,31.1,0,0,0-.22,6.47c.17,1.7.69,3.74,2.19,4.76a2.1,2.1,0,0,0,2.18.2,1.69,1.69,0,0,0,.9-1.94.5.5,0,0,0-1,.27.71.71,0,0,1-.53.84,1.19,1.19,0,0,1-1.07-.24,3.92,3.92,0,0,1-1.28-1.93,12.36,12.36,0,0,1-.47-4.49A45.46,45.46,0,0,1,156,193.57a.5.5,0,0,0-1-.27Z" transform="translate(-19.66 -2.29)"/><path class="cls-2" d="M166.41,192l-2.37-.76a.5.5,0,0,0-.63.48c-.14,1.47-.32,2.93-.43,4.4a1.19,1.19,0,0,0,.65,1.32,6.49,6.49,0,0,0,1.6.19,1.94,1.94,0,0,1,1.38.78.92.92,0,0,1-.35,1.38,7,7,0,0,1-1.92.49,10.41,10.41,0,0,1-2.23.07l.43.76.49-.85a.5.5,0,0,0-.87-.5l-.48.84a.5.5,0,0,0,.43.75,9.8,9.8,0,0,0,4.52-.64,1.93,1.93,0,0,0,.7-3,2.81,2.81,0,0,0-1.56-1,4.61,4.61,0,0,0-1-.13c-.17,0-.7.07-.81-.08s0-.86.06-1.09l.12-1.23.24-2.47-.63.48,2.37.76c.61.2.88-.77.26-1Z" transform="translate(-19.66 -2.29)"/><path class="cls-2" d="M172.08,194.06q-3.44,6.3-6.57,12.78a.5.5,0,0,0,.78.6l.92-.78c.49-.42-.22-1.13-.71-.71l-.91.78.78.61q3.13-6.47,6.57-12.78c.31-.56-.55-1.07-.86-.5Z" transform="translate(-19.66 -2.29)"/><path class="cls-2" d="M173.56,198.84a27.88,27.88,0,0,0-1.92,5.09,25.78,25.78,0,0,0-.57,2.72,2.39,2.39,0,0,0,.33,2.1c1,1.16,2.71.48,3.54-.53a4.18,4.18,0,0,0,1.12-2.16,1.47,1.47,0,0,0-.91-1.41,2.37,2.37,0,0,0-2,.11c-.79.42-1.31,1.19-2.05,1.67-.54.34,0,1.21.5.86s1.09-1,1.67-1.41a1.43,1.43,0,0,1,1.59-.27c.6.39-.16,1.3-.45,1.7a1.92,1.92,0,0,1-1.71,1c-.87-.12-.71-1-.6-1.68s.31-1.6.51-2.38a27.07,27.07,0,0,1,1.84-4.93c.28-.58-.58-1.09-.86-.51Z" transform="translate(-19.66 -2.29)"/><path class="cls-2" d="M181.07,205.29l-2.19,5.35a.5.5,0,0,0,.35.61.52.52,0,0,0,.62-.35l2.19-5.35a.5.5,0,0,0-.35-.61.51.51,0,0,0-.62.35Z" transform="translate(-19.66 -2.29)"/><path class="cls-2" d="M189.11,191.33V199a.5.5,0,0,0,1,0,2.55,2.55,0,0,1,.54-1.47c.38-.52-.49-1-.87-.5a3.56,3.56,0,0,0-.67,2h1v-7.71a.5.5,0,0,0-1,0Z" transform="translate(-19.66 -2.29)"/><path class="cls-2" d="M195.16,190.09c.71-.11,2.19-.26,2.39.71.26,1.28-1.46,1.78-2.35,2-.38.11-.53.73-.12.91,1,.46,2.3,1.26,2.44,2.5.09.86-.88,2.11-1.8,1.57a.5.5,0,0,0-.51.86c1.45.85,3.11-.52,3.29-2,.23-1.79-1.46-3.14-2.92-3.79l-.12.91a5.46,5.46,0,0,0,2.31-1.08,2.35,2.35,0,0,0,.74-2.17c-.36-1.62-2.32-1.61-3.61-1.43-.64.09-.37,1.06.26,1Z" transform="translate(-19.66 -2.29)"/><path class="cls-2" d="M187.16,204.63a46.92,46.92,0,0,1,15.71-5.53.5.5,0,0,0,.36-.48,1.11,1.11,0,0,0-1.09-1.18c-.64-.05-.64,1,0,1l.09.18.37-.48a47.66,47.66,0,0,0-15.94,5.63.5.5,0,0,0,.5.86Z" transform="translate(-19.66 -2.29)"/><path class="cls-2" d="M195.1,203.91V211a.5.5,0,0,0,1,0v-.8a.5.5,0,0,0-1,0v.8a.5.5,0,0,0,1,0v-7.09a.5.5,0,0,0-1,0Z" transform="translate(-19.66 -2.29)"/><path class="cls-2" d="M198.92,204.2a4.41,4.41,0,0,1,2.35-.37,4.28,4.28,0,0,1,1.13.3,2.24,2.24,0,0,1,.95.6c.43.6-.92,1.45-1.3,1.74a18.39,18.39,0,0,1-2.33,1.49.5.5,0,0,0,.12.91,36.9,36.9,0,0,0,5.94.48.5.5,0,0,0,0-1,35.82,35.82,0,0,1-5.67-.44l.12.91a18.39,18.39,0,0,0,2.92-2c.77-.62,1.74-1.58,1.07-2.63a3.94,3.94,0,0,0-2.65-1.36,5.48,5.48,0,0,0-3.16.47c-.58.27-.07,1.13.51.86Z" transform="translate(-19.66 -2.29)"/><path class="cls-2" d="M206,189.08c1.89.75,2.89,3,3.68,4.71a39.55,39.55,0,0,1,2.18,6.37c.58,2.13,1.25,4.49.59,6.68-.51,1.71-2.19,3.38-4.1,3-.63-.12-.9.85-.26,1a4.42,4.42,0,0,0,4.19-1.64,6.77,6.77,0,0,0,1.4-5,28.47,28.47,0,0,0-1.35-6.05,35.1,35.1,0,0,0-2.18-5.67c-.88-1.77-2-3.58-3.88-4.35-.6-.24-.86.73-.27,1Z" transform="translate(-19.66 -2.29)"/><path class="cls-2" d="M182.9,197.48a4.81,4.81,0,0,0,2.68-.2.5.5,0,1,0-.27-1,5.58,5.58,0,0,1-.58.18l-.26.05h-.22a3.62,3.62,0,0,1-.57,0l-.31,0c.12,0,0,0,0,0l-.17,0a.51.51,0,0,0-.61.35.51.51,0,0,0,.35.62Z" transform="translate(-19.66 -2.29)"/><path class="cls-2" d="M53.09,190.09a24.41,24.41,0,0,1,12-2.37c.64,0,.64-1,0-1a25.49,25.49,0,0,0-12.48,2.51c-.58.28-.08,1.14.5.86Z" transform="translate(-19.66 -2.29)"/><path class="cls-2" d="M20.15,183.75h4.49a.5.5,0,0,0,0-1H20.15a.5.5,0,0,0,0,1Z" transform="translate(-19.66 -2.29)"/><path class="cls-2" d="M27.45,174.87a112.76,112.76,0,0,0,.3,12.19c.05.63,1,.65,1,0l0-.82c0-.64-1-.64-1,0l0,.82h1a112.76,112.76,0,0,1-.3-12.19.5.5,0,0,0-1,0Z" transform="translate(-19.66 -2.29)"/><path class="cls-2" d="M31.83,175.08c1.36-.14,3.57.28,3.89,1.9.37,1.85-2,2.88-3.35,3.4a.5.5,0,0,0,.13,1,5.23,5.23,0,0,1,2.48.39,1.52,1.52,0,0,1,.85,1.84,3.57,3.57,0,0,1-1.92,1.46,5.51,5.51,0,0,1-2.54.37c-.64,0-.63,1,0,1a6.39,6.39,0,0,0,3.33-.63,3.67,3.67,0,0,0,2.19-2.25,2.55,2.55,0,0,0-1.09-2.45,5.49,5.49,0,0,0-3.3-.73l.13,1c1.89-.71,4.5-2.05,4.08-4.49-.37-2.15-3-3-4.88-2.77-.64.07-.64,1.07,0,1Z" transform="translate(-19.66 -2.29)"/><path class="cls-2" d="M43.88,175.06a171.29,171.29,0,0,0-13,21.93c-.29.57.58,1.08.86.5a170.56,170.56,0,0,1,13-21.92c.37-.53-.5-1-.87-.51Z" transform="translate(-19.66 -2.29)"/><path class="cls-2" d="M41.59,181.93,40,193.2l1,.13,0-.8c0-.64-1-.64-1,0l0,.8c0,.56.9.7,1,.14l1.61-11.28c.09-.62-.87-.9-1-.26Z" transform="translate(-19.66 -2.29)"/><path class="cls-2" d="M45.15,182.92a2.27,2.27,0,0,1,2.79,1,2.33,2.33,0,0,1-.43,2.71c-1.29,1.33-3.24,1.71-4.32,3.3a.49.49,0,0,0,.3.73l3.71.77c1.17.24,2.36.56,3.54.72.63.09.9-.87.27-1-1.19-.16-2.37-.49-3.54-.73l-3.72-.76.3.73c1.24-1.81,3.92-2,4.87-4.11a3.23,3.23,0,0,0-4-4.37c-.6.22-.34,1.18.27,1Z" transform="translate(-19.66 -2.29)"/></svg>