<svg id="Layer_1" data-name="Layer 1" xmlns="http://www.w3.org/2000/svg" viewBox="0 0 222.49 212.44"><defs><style>.cls-1{fill:#231f20;}.cls-2{fill:#939598;}.cls-3{fill:#ed1c24;}</style></defs><title>completing-the-square-example-1-1</title><path class="cls-1" d="M42,32.31c1.19-2.29,2.37-4.58,3.7-6.78a32.1,32.1,0,0,1,4.5-6.11c1.53-1.54,3.82-2.84,6-1.85a4.73,4.73,0,0,1,2,2.49l1.89,3.8,4.28,8.59c.28.58,1.15.07.86-.51l-4.11-8.25c-.71-1.42-1.41-2.83-2.12-4.24a5.61,5.61,0,0,0-2-2.58,5.72,5.72,0,0,0-6.19.69,22.21,22.21,0,0,0-5,5.93,93.89,93.89,0,0,0-4.66,8.31c-.3.57.57,1.08.86.51Z" transform="translate(-28.92 -2.29)"/><path class="cls-1" d="M53.82,17.38c-.29,25.71,2.1,51.33,3.52,77,.7,12.7,1.14,25.42.92,38.14s-1,25.71-1.53,38.56c-.62,14.39-1,28.81,0,43.19l.85-.35A96.61,96.61,0,0,1,41.6,197l-.79.61c2.4,3,4.92,5.9,7.59,8.67q2,2.08,4.09,4.06a37.43,37.43,0,0,0,4,3.62c1.31.9,2.43.33,3.43-.7,1.46-1.48,2.86-3,4.29-4.52l8.56-9c.44-.46-.26-1.17-.71-.7l-7.76,8.2-4,4.24a9.58,9.58,0,0,1-1.87,1.84c-1,.55-1.94-.6-2.61-1.2a123.09,123.09,0,0,1-14.33-15.17c-.35-.44-1.12.15-.78.61a97.61,97.61,0,0,0,16.17,17.14c.3.25.88.12.85-.36-1.76-25.69.72-51.39,1.4-77.08s-1.38-51.1-2.95-76.62c-.88-14.38-1.56-28.77-1.39-43.17a.5.5,0,0,0-1,0Z" transform="translate(-28.92 -2.29)"/><path class="cls-2" d="M239.79,118.28a131.86,131.86,0,0,0,10.78,14.36c.42.49,1.12-.22.7-.71a131,131,0,0,1-10.62-14.16c-.35-.53-1.22,0-.86.51Z" transform="translate(-28.92 -2.29)"/><path class="cls-2" d="M240.09,132.79a62,62,0,0,1,4.63-7.37c.85-1.16,1.74-2.31,2.69-3.4a5.2,5.2,0,0,1,3.1-2.08c.63-.09.36-1-.27-1a5.62,5.62,0,0,0-3.21,2,43.1,43.1,0,0,0-2.77,3.42,61.2,61.2,0,0,0-5,7.92c-.31.57.56,1.07.86.5Z" transform="translate(-28.92 -2.29)"/><path class="cls-2" d="M52.73,3.83C52.8,5,52.51,6.28,53,7.4a2.25,2.25,0,0,0,2.25,1.46c1-.15,1.55-1.1,2-1.93L59.34,3l-.92-.38a53.67,53.67,0,0,1-5,12.67c-.31.56.55,1.07.86.5A54.81,54.81,0,0,0,59.39,2.92a.5.5,0,0,0-.92-.38L57,5.24a9.68,9.68,0,0,1-1.36,2.33c-.75.72-1.59,0-1.85-.81a11.47,11.47,0,0,1-.1-2.93c0-.64-1-.64-1,0Z" transform="translate(-28.92 -2.29)"/><path class="cls-1" d="M29.4,127.22q40.76,0,81.5-.49,40.54-.45,81.08-1.31,22.89-.48,45.78-1.1a.5.5,0,0,0,.43-.75,47,47,0,0,0-12.72-13.66c-.53-.38-1,.49-.51.87a72.42,72.42,0,0,1,14.27,14l.08-.6q-6.24,6.93-13.09,13.28c-.48.44.23,1.14.7.7q6.86-6.33,13.09-13.28a.48.48,0,0,0,.08-.6,74.17,74.17,0,0,0-14.62-14.35l-.51.87a45.64,45.64,0,0,1,12.37,13.3l.43-.76q-40.74,1.09-81.48,1.78-40.54.68-81.09.94-22.89.15-45.79.18a.5.5,0,0,0,0,1Z" transform="translate(-28.92 -2.29)"/><path class="cls-1" d="M43.75,110.36A104.27,104.27,0,0,0,32,122.65c-.86,1.06-1.76,2.13-2.54,3.27a2.3,2.3,0,0,0-.07,2.82,13.57,13.57,0,0,0,3,2.49l3.8,2.82,8.4,6.23c.45.33.87-.28.69-.68a3.6,3.6,0,0,1-.29-1.94c.07-.64-.93-.64-1,0a4.65,4.65,0,0,0,.42,2.44l.69-.68c-4.64-3.44-9.28-6.86-13.9-10.31a4,4,0,0,1-1.18-1.17c-.33-.61,0-1.17.38-1.68.76-1.05,1.59-2.07,2.41-3.08,1.67-2.06,3.43-4,5.25-6q3-3.21,6.37-6.15c.48-.43-.23-1.13-.71-.71Z" transform="translate(-28.92 -2.29)"/><path class="cls-3" d="M40.2,50.68a141.47,141.47,0,0,1,5.26-32.62c.82-2.85,1.74-5.68,2.77-8.47H45.34L51,25l2.89,7.79c.48,1.28.93,2.57,1.43,3.84s1.19,2.64,2.72,2.48,1.85-1.65,1.51-2.85a1.91,1.91,0,0,0-1.23-1.38,1.63,1.63,0,0,0-1.91.84A1.56,1.56,0,0,0,57,37.73a1.52,1.52,0,0,0,2-.54.39.39,0,0,1,.08-.14l-.54.54.05,0-.76.2-.31,0-.66-.38-.13-.18c.08.13-.09-.16-.07-.15s0,.33,0,0c0,.11,0,.13,0,0v-.1l1.74-.64s.08.29,0-.05a1.3,1.3,0,0,0-.14-.26c-.42-.91-.71-1.92-1.06-2.86L55.1,27.29,50.74,15.54,48.23,8.79a1.51,1.51,0,0,0-2.89,0A136.43,136.43,0,0,0,38,41q-.53,4.83-.75,9.68a1.5,1.5,0,0,0,3,0Z" transform="translate(-28.92 -2.29)"/><path class="cls-3" d="M44,18.26q2.57,23,6.95,45.8c2.77,14.34,6,28.61,10.18,42.63A245.18,245.18,0,0,0,75.7,145.21c5.57,11.37,12.37,22.44,21.34,31.46,8,8.06,18.18,14.93,29.59,16.81a35.37,35.37,0,0,0,15.55-.79A38.29,38.29,0,0,0,156,185.05c8.62-7.23,14.63-17.29,19.35-27.37,5.57-11.89,9.61-24.47,13.05-37.12,3.85-14.16,7.07-28.51,9.95-42.89q4.5-22.44,7.67-45.11c.53-3.73,1-7.46,1.5-11.19a1.51,1.51,0,0,0-1.5-1.5,1.53,1.53,0,0,0-1.5,1.5q-2.85,22.43-7,44.66-4.07,21.87-9.39,43.48a298.24,298.24,0,0,1-11.55,37.7c-4.18,10.6-9.34,21.24-16.86,29.9-6.58,7.58-15.26,13.41-25.54,13.87-10.74.47-21-4.47-29.17-11.09-9.66-7.81-17-18-22.95-28.84a208.19,208.19,0,0,1-15.39-36.38A402.43,402.43,0,0,1,56,73.81Q51.26,51.7,48.32,29.27c-.48-3.67-.92-7.33-1.33-11a1.55,1.55,0,0,0-1.5-1.5,1.51,1.51,0,0,0-1.5,1.5Z" transform="translate(-28.92 -2.29)"/><path class="cls-3" d="M191.43,53.93q5-12.94,11.07-25.44c1-2,2-4,3-6a5.54,5.54,0,0,1,.65-1.05c.17-.18.24-.11,0-.07-.05,0-.53,0-.47-.09a6.13,6.13,0,0,1,.53.8,11,11,0,0,1,.48,1.19c1.48,4.25,2.73,8.57,3.78,12.94a145.27,145.27,0,0,1,2.85,15.2,1.56,1.56,0,0,0,1.5,1.5c.73,0,1.61-.69,1.5-1.5a147.31,147.31,0,0,0-6.67-28.72c-.63-1.82-1.77-4.9-4.3-4.22A4.32,4.32,0,0,0,203,20.79c-.56,1-1.07,2.1-1.6,3.15q-3.27,6.57-6.26,13.3-3.49,7.86-6.6,15.89a1.5,1.5,0,0,0,1,1.84,1.54,1.54,0,0,0,1.85-1Z" transform="translate(-28.92 -2.29)"/><path class="cls-2" d="M72.16,118.59q-1,8.66-1.39,17.35c0,.64,1,.64,1,0q.41-8.7,1.39-17.35c.07-.64-.93-.63-1,0Z" transform="translate(-28.92 -2.29)"/><path class="cls-2" d="M69.19,105.22a6,6,0,0,1,4-.75,2.17,2.17,0,0,1,1.7,2.56,5.7,5.7,0,0,1-2.17,3,10.11,10.11,0,0,1-3.53,1.84c-.52.15-.45,1.06.13,1a10.09,10.09,0,0,1,6.79,1.52c.55.35,1.05-.52.51-.87a11,11,0,0,0-7.3-1.65l.13,1a11.13,11.13,0,0,0,4.23-2.3,5.74,5.74,0,0,0,2.27-3.93,3.2,3.2,0,0,0-2.43-3c-1.65-.5-3.33.14-4.82.82-.59.27-.08,1.13.5.87Z" transform="translate(-28.92 -2.29)"/><path class="cls-2" d="M181.86,116.48a47.42,47.42,0,0,0,1.46,12,48.25,48.25,0,0,0,1.85,5.72c.23.56.48,1.8,1.19,1.95s1.12-.7.59-1.12-1.22.31-.71.71l.07.06-.14-.36v-.06l.29-.23-.1,0,.39.05c-.28-.13-.41-.82-.53-1.1s-.31-.78-.45-1.18c-.29-.76-.55-1.53-.79-2.3-.47-1.51-.87-3-1.19-4.59a46.44,46.44,0,0,1-.93-9.63.5.5,0,0,0-1,0Z" transform="translate(-28.92 -2.29)"/><path class="cls-2" d="M175.82,99l-1.17,5.41c-.19.9-.41,1.8-.58,2.71a1.92,1.92,0,0,0,.21,1.67A1.52,1.52,0,0,0,176,109c.86-.24,1.71-.5,2.56-.77q2.53-.81,5-1.79c.68-.27,1.7-.49,2.15-1.11a1,1,0,0,0-.45-1.54c-.61-.22-.87.74-.27,1-.11,0-.68.32-.84.38l-1.23.49c-.77.3-1.54.59-2.31.86q-2.37.84-4.78,1.53c-.3.08-.71.29-.81-.11a2.54,2.54,0,0,1,.14-1l.54-2.5,1.13-5.21c.13-.62-.83-.89-1-.26Z" transform="translate(-28.92 -2.29)"/><path class="cls-2" d="M181.65,99a96.65,96.65,0,0,0-1.47,16.89.5.5,0,0,0,1,0,94.64,94.64,0,0,1,1.44-16.63c.11-.63-.85-.9-1-.26Z" transform="translate(-28.92 -2.29)"/><path class="cls-2" d="M48.59,82.62l9.71-.28,2.33-.06a7.5,7.5,0,0,0,2.12-.14c.9-.29.93-1.84-.14-1.73-.63.07-.64,1.07,0,1a.5.5,0,0,0-.5-.18l-.5,0-.73,0-1.72,0-3.57.1-7,.2c-.64,0-.64,1,0,1Z" transform="translate(-28.92 -2.29)"/><path class="cls-2" d="M65.13,73.64c-1.07,2.44,1.71,4.35,3,6a6.27,6.27,0,0,1,1.76,3.44,1.39,1.39,0,0,1-2,1.43,1.94,1.94,0,0,1-1.23-2.4,4,4,0,0,1,2.31-2.55,5.71,5.71,0,0,0,2.74-2.14,4.08,4.08,0,0,0,.31-3.08,3.89,3.89,0,0,0-5.67-2.06.5.5,0,0,0,.51.87,3,3,0,0,1,3.16.07,2.77,2.77,0,0,1,1.07,3.05c-.35,1.34-1.5,1.85-2.62,2.43A5.23,5.23,0,0,0,66.09,81c-.93,1.91-.11,4.28,2.16,4.59a2.33,2.33,0,0,0,2.32-1,3.38,3.38,0,0,0,0-3.08,12.79,12.79,0,0,0-2.65-3.67c-.84-.87-2.5-2.28-1.9-3.65.26-.58-.6-1.09-.86-.51Z" transform="translate(-28.92 -2.29)"/></svg>