<svg id="Layer_1" data-name="Layer 1" xmlns="http://www.w3.org/2000/svg" viewBox="0 0 239.27 212.86"><defs><style>.cls-1{fill:#231f20;}.cls-2{fill:#939598;}.cls-3{fill:#ed1c24;}</style></defs><title>completing-the-square-example-2-2</title><path class="cls-1" d="M42,32.31c1.19-2.29,2.37-4.58,3.7-6.78a32.1,32.1,0,0,1,4.5-6.11c1.53-1.54,3.82-2.84,6-1.85a4.73,4.73,0,0,1,2,2.49l1.89,3.8,4.28,8.59c.28.58,1.15.07.86-.51l-4.11-8.25c-.71-1.42-1.41-2.83-2.12-4.24a5.61,5.61,0,0,0-2-2.58,5.72,5.72,0,0,0-6.19.69,22.21,22.21,0,0,0-5,5.93,93.89,93.89,0,0,0-4.66,8.31c-.3.57.57,1.08.86.51Z" transform="translate(-12.13 -2.29)"/><path class="cls-1" d="M53.82,17.38c-.29,25.71,2.1,51.33,3.52,77,.7,12.7,1.14,25.42.92,38.14s-1,25.71-1.53,38.56c-.62,14.39-1,28.81,0,43.19l.85-.35A96.61,96.61,0,0,1,41.6,197l-.79.61c2.4,3,4.92,5.9,7.59,8.67q2,2.08,4.09,4.06a37.43,37.43,0,0,0,4,3.62c1.31.9,2.43.33,3.43-.7,1.46-1.48,2.86-3,4.29-4.52l8.56-9c.44-.46-.26-1.17-.71-.7l-7.76,8.2-4,4.24a9.58,9.58,0,0,1-1.87,1.84c-1,.55-1.94-.6-2.61-1.2a123.09,123.09,0,0,1-14.33-15.17c-.35-.44-1.12.15-.78.61a97.61,97.61,0,0,0,16.17,17.14c.3.25.88.12.85-.36-1.76-25.69.72-51.39,1.4-77.08s-1.38-51.1-2.95-76.62c-.88-14.38-1.56-28.77-1.39-43.17a.5.5,0,0,0-1,0Z" transform="translate(-12.13 -2.29)"/><path class="cls-2" d="M239.79,118.28a131.86,131.86,0,0,0,10.78,14.36c.42.49,1.12-.22.7-.71a131,131,0,0,1-10.62-14.16c-.35-.53-1.22,0-.86.51Z" transform="translate(-12.13 -2.29)"/><path class="cls-2" d="M240.09,132.79a62,62,0,0,1,4.63-7.37c.85-1.16,1.74-2.31,2.69-3.4a5.2,5.2,0,0,1,3.1-2.08c.63-.09.36-1-.27-1a5.62,5.62,0,0,0-3.21,2,43.1,43.1,0,0,0-2.77,3.42,61.2,61.2,0,0,0-5,7.92c-.31.57.56,1.07.86.5Z" transform="translate(-12.13 -2.29)"/><path class="cls-2" d="M52.73,3.83C52.8,5,52.51,6.28,53,7.4a2.25,2.25,0,0,0,2.25,1.46c1-.15,1.55-1.1,2-1.93L59.34,3l-.92-.38a53.67,53.67,0,0,1-5,12.67c-.31.56.55,1.07.86.5A54.81,54.81,0,0,0,59.39,2.92a.5.5,0,0,0-.92-.38L57,5.24a9.68,9.68,0,0,1-1.36,2.33c-.75.72-1.59,0-1.85-.81a11.47,11.47,0,0,1-.1-2.93c0-.64-1-.64-1,0Z" transform="translate(-12.13 -2.29)"/><path class="cls-1" d="M29.4,127.22q40.76,0,81.5-.49,40.54-.45,81.08-1.31,22.89-.48,45.78-1.1a.5.5,0,0,0,.43-.75,47,47,0,0,0-12.72-13.66c-.53-.38-1,.49-.51.87a72.42,72.42,0,0,1,14.27,14l.08-.6q-6.24,6.93-13.09,13.28c-.48.44.23,1.14.7.7q6.86-6.33,13.09-13.28a.48.48,0,0,0,.08-.6,74.17,74.17,0,0,0-14.62-14.35l-.51.87a45.64,45.64,0,0,1,12.37,13.3l.43-.76q-40.74,1.09-81.48,1.78-40.54.68-81.09.94-22.89.15-45.79.18a.5.5,0,0,0,0,1Z" transform="translate(-12.13 -2.29)"/><path class="cls-1" d="M43.75,110.36A104.27,104.27,0,0,0,32,122.65c-.86,1.06-1.76,2.13-2.54,3.27a2.3,2.3,0,0,0-.07,2.82,13.57,13.57,0,0,0,3,2.49l3.8,2.82,8.4,6.23c.45.33.87-.28.69-.68a3.6,3.6,0,0,1-.29-1.94c.07-.64-.93-.64-1,0a4.65,4.65,0,0,0,.42,2.44l.69-.68c-4.64-3.44-9.28-6.86-13.9-10.31a4,4,0,0,1-1.18-1.17c-.33-.61,0-1.17.38-1.68.76-1.05,1.59-2.07,2.41-3.08,1.67-2.06,3.43-4,5.25-6q3-3.21,6.37-6.15c.48-.43-.23-1.13-.71-.71Z" transform="translate(-12.13 -2.29)"/><path class="cls-3" d="M40.2,50.68a141.47,141.47,0,0,1,5.26-32.62c.82-2.85,1.74-5.68,2.77-8.47H45.34L51,25l2.89,7.79c.48,1.28.93,2.57,1.43,3.84s1.19,2.64,2.72,2.48,1.85-1.65,1.51-2.85a1.91,1.91,0,0,0-1.23-1.38,1.63,1.63,0,0,0-1.91.84A1.56,1.56,0,0,0,57,37.73a1.52,1.52,0,0,0,2-.54.39.39,0,0,1,.08-.14l-.54.54.05,0-.76.2-.31,0-.66-.38-.13-.18c.08.13-.09-.16-.07-.15s0,.33,0,0c0,.11,0,.13,0,0v-.1l1.74-.64s.08.29,0-.05a1.3,1.3,0,0,0-.14-.26c-.42-.91-.71-1.92-1.06-2.86L55.1,27.29,50.74,15.54,48.23,8.79a1.51,1.51,0,0,0-2.89,0A136.43,136.43,0,0,0,38,41q-.53,4.83-.75,9.68a1.5,1.5,0,0,0,3,0Z" transform="translate(-12.13 -2.29)"/><path class="cls-3" d="M44,18.26q2.57,23,6.95,45.8c2.77,14.34,6,28.61,10.18,42.63A245.18,245.18,0,0,0,75.7,145.21c5.57,11.37,12.37,22.44,21.34,31.46,8,8.06,18.18,14.93,29.59,16.81a35.37,35.37,0,0,0,15.55-.79A38.29,38.29,0,0,0,156,185.05c8.62-7.23,14.63-17.29,19.35-27.37,5.57-11.89,9.61-24.47,13.05-37.12,3.85-14.16,7.07-28.51,9.95-42.89q4.5-22.44,7.67-45.11c.53-3.73,1-7.46,1.5-11.19a1.51,1.51,0,0,0-1.5-1.5,1.53,1.53,0,0,0-1.5,1.5q-2.85,22.43-7,44.66-4.07,21.87-9.39,43.48a298.24,298.24,0,0,1-11.55,37.7c-4.18,10.6-9.34,21.24-16.86,29.9-6.58,7.58-15.26,13.41-25.54,13.87-10.74.47-21-4.47-29.17-11.09-9.66-7.81-17-18-22.95-28.84a208.19,208.19,0,0,1-15.39-36.38A402.43,402.43,0,0,1,56,73.81Q51.26,51.7,48.32,29.27c-.48-3.67-.92-7.33-1.33-11a1.55,1.55,0,0,0-1.5-1.5,1.51,1.51,0,0,0-1.5,1.5Z" transform="translate(-12.13 -2.29)"/><path class="cls-3" d="M191.43,53.93q5-12.94,11.07-25.44c1-2,2-4,3-6a5.54,5.54,0,0,1,.65-1.05c.17-.18.24-.11,0-.07-.05,0-.53,0-.47-.09a6.13,6.13,0,0,1,.53.8,11,11,0,0,1,.48,1.19c1.48,4.25,2.73,8.57,3.78,12.94a145.27,145.27,0,0,1,2.85,15.2,1.56,1.56,0,0,0,1.5,1.5c.73,0,1.61-.69,1.5-1.5a147.31,147.31,0,0,0-6.67-28.72c-.63-1.82-1.77-4.9-4.3-4.22A4.32,4.32,0,0,0,203,20.79c-.56,1-1.07,2.1-1.6,3.15q-3.27,6.57-6.26,13.3-3.49,7.86-6.6,15.89a1.5,1.5,0,0,0,1,1.84,1.54,1.54,0,0,0,1.85-1Z" transform="translate(-12.13 -2.29)"/><path class="cls-2" d="M181.86,116.48a47.42,47.42,0,0,0,1.46,12,48.25,48.25,0,0,0,1.85,5.72c.23.56.48,1.8,1.19,1.95s1.12-.7.59-1.12-1.22.31-.71.71l.07.06-.14-.36v-.06l.29-.23-.1,0,.39.05c-.28-.13-.41-.82-.53-1.1s-.31-.78-.45-1.18c-.29-.76-.55-1.53-.79-2.3-.47-1.51-.87-3-1.19-4.59a46.44,46.44,0,0,1-.93-9.63.5.5,0,0,0-1,0Z" transform="translate(-12.13 -2.29)"/><path class="cls-2" d="M179.43,96.79a12.61,12.61,0,0,0-4.21,7,42,42,0,0,0-.89,4.3,8.41,8.41,0,0,0,.15,4.82,3.55,3.55,0,0,0,3,2.23,5.56,5.56,0,0,0,3.79-2,8.69,8.69,0,0,0,2.11-3.58c.33-1.1.64-2.65-.13-3.64-1.17-1.5-2.86.22-3.72,1.13a19.54,19.54,0,0,0-3.15,4.44c-.3.57.57,1.08.86.5a18.72,18.72,0,0,1,2.15-3.28c.41-.49.84-1,1.3-1.41s1.1-1.24,1.65-.89c.82.51.24,2.38,0,3.06a7.63,7.63,0,0,1-1.79,3c-.8.83-2.08,1.87-3.31,1.67a2.94,2.94,0,0,1-2.12-2.56,12.46,12.46,0,0,1,.33-4.12c.19-1.1.41-2.21.71-3.3a11.64,11.64,0,0,1,3.77-6.44c.5-.39,0-1.26-.5-.87Z" transform="translate(-12.13 -2.29)"/><path class="cls-2" d="M48.59,82.62l9.71-.28,2.33-.06a7.5,7.5,0,0,0,2.12-.14c.9-.29.93-1.84-.14-1.73-.63.07-.64,1.07,0,1a.5.5,0,0,0-.5-.18l-.5,0-.73,0-1.72,0-3.57.1-7,.2c-.64,0-.64,1,0,1Z" transform="translate(-12.13 -2.29)"/><path class="cls-2" d="M71.59,70.55a12.66,12.66,0,0,0-4.21,7,39,39,0,0,0-.88,4.3,8.41,8.41,0,0,0,.15,4.82,3.53,3.53,0,0,0,3,2.23,5.62,5.62,0,0,0,3.8-2,8.78,8.78,0,0,0,2.1-3.58c.33-1.1.64-2.65-.13-3.65-1.17-1.49-2.86.23-3.72,1.14a19.54,19.54,0,0,0-3.15,4.44c-.29.57.57,1.07.87.5a18.67,18.67,0,0,1,2.14-3.28c.41-.49.84-1,1.3-1.41s1.1-1.24,1.65-.9c.82.52.24,2.39,0,3.07a7.63,7.63,0,0,1-1.79,3c-.8.83-2.07,1.87-3.31,1.67a3,3,0,0,1-2.12-2.56,12.73,12.73,0,0,1,.33-4.12c.2-1.11.42-2.21.71-3.3a11.72,11.72,0,0,1,3.77-6.44c.51-.39,0-1.26-.5-.87Z" transform="translate(-12.13 -2.29)"/><path class="cls-2" d="M132.85,192.51c.11-.8.28-1.88,1.14-2.21s1.32.9,1.5,1.61a6.15,6.15,0,0,1,0,2.83c-.17.74-.47,1.78-1.26,2.09-1.18.46-1.19-3.13-1.12-3.76a4.54,4.54,0,0,1,.67-2,2.87,2.87,0,0,1,.62-.68c.23-.17.75-.55,1.05-.41s.34.81.38,1.09a7.43,7.43,0,0,1,.08,1.63,4.49,4.49,0,0,1-.71,2.58,1.2,1.2,0,0,1-.78.54c-.39,0-.55-.39-.61-.71-.09-.52-.16-1.77.49-2s1.32.88,1.49,1.39a3.85,3.85,0,0,1,.17,2,1.52,1.52,0,0,1-1,1.31c-.74.19-1.38-.4-1.78-1a5.68,5.68,0,0,1-1-2.84,2.29,2.29,0,0,1,1.16-2.36c.49-.2.72,0,.87.48a6.37,6.37,0,0,1,.37,1.72c.05.9-.33,2.14-1.4,2.24l.48.37a6.65,6.65,0,0,1-.15-2.22,5.91,5.91,0,0,1,.23-1.11c.07-.23.17-.64.39-.79.52-.34.93.73,1,1.07a1.57,1.57,0,0,1-.44,1.45,1.26,1.26,0,0,1-1.28.17c-.57-.26-.58-1-.48-1.52a4,4,0,0,1,2.16-2.76l-.39.06c.61.12.53.93.4,1.39a2.35,2.35,0,0,1-1.59,1.56c-.64.13-1.65-.48-1.1-1.2s1.62-.28,2.13.3.67,1.33-.11,1.69a1.28,1.28,0,0,1-1.64-.45,2.67,2.67,0,0,1-.23-2.26c.19-.6.82-1.6,1.59-1.33a.87.87,0,0,1,.56.72c0,.18-.13.25-.24.38a.93.93,0,0,0-.29.6c0,1,1.72.74,1.23-.22-.3-.57-1.16-.07-.87.51l0,.05-.05-.39,0,0,.23-.29.44.4.18-.17a1.57,1.57,0,0,0,.19-.26,1.32,1.32,0,0,0,.16-.51,1.65,1.65,0,0,0-.36-1.15,1.78,1.78,0,0,0-2.21-.56c-1.7.78-2.17,3.33-1.26,4.85a2.27,2.27,0,0,0,2,1.17,2.23,2.23,0,0,0,1.94-1.09c.91-1.75-1.48-3.88-3.18-3.33a1.83,1.83,0,0,0-1.3,2.17,2.07,2.07,0,0,0,2,1.36,3.24,3.24,0,0,0,2.78-3.78c-.17-.7-.9-1.45-1.65-1.06a4.76,4.76,0,0,0-2.06,2.08,3.69,3.69,0,0,0-.39,2.81,2,2,0,0,0,2,1.29c2.26-.11,2.93-3.32,1.14-4.56a1.31,1.31,0,0,0-1.5-.08,2.3,2.3,0,0,0-.82,1.3,7.29,7.29,0,0,0-.1,3.93.5.5,0,0,0,.48.37,2.72,2.72,0,0,0,2.34-2.31,5.18,5.18,0,0,0-.14-2.18,3.31,3.31,0,0,0-.71-1.66c-.94-.93-2.38,0-3,.85a4.57,4.57,0,0,0-.19,3.91,5,5,0,0,0,1.93,2.79,2.23,2.23,0,0,0,2.8-.34c1.39-1.54.83-4.61-.81-5.74a1.63,1.63,0,0,0-2.54,1c-.28,1-.27,2.49.62,3.14s2.12-.06,2.67-.94a6.71,6.71,0,0,0,.69-4c-.1-1.14-.37-2.92-1.95-2.55a3.65,3.65,0,0,0-2.28,2,6.52,6.52,0,0,0-.59,3.11,5.61,5.61,0,0,0,.84,3.17c.87,1,2.17.35,2.82-.54a6.1,6.1,0,0,0,.88-3.85,6.69,6.69,0,0,0-.43-2,2.66,2.66,0,0,0-1.06-1.5,2.17,2.17,0,0,0-2.85,1.2,6.11,6.11,0,0,0-.47,1.88c-.08.64.92.63,1,0Z" transform="translate(-12.13 -2.29)"/><path class="cls-2" d="M146.91,194.33a16.83,16.83,0,0,0-2.93,9.5,11.13,11.13,0,0,0,3.65,8,.53.53,0,0,0,.61.08,2.46,2.46,0,0,0,1.11-1.29c.24-.59-.73-.85-1-.26a1.43,1.43,0,0,1-.64.69l.6.07a10.11,10.11,0,0,1-3.36-7.49,15.92,15.92,0,0,1,2.8-8.81c.35-.54-.52-1-.87-.5Z" transform="translate(-12.13 -2.29)"/><path class="cls-2" d="M149.89,198.59a6.5,6.5,0,0,1,2.35-.49,3.55,3.55,0,0,1,2.08.41,1.14,1.14,0,0,1-.06,1.75,4.51,4.51,0,0,1-1.87.93c-.36.12-.55.73-.12.92a20.39,20.39,0,0,1,3,1.57c.79.5,2,1.18,2.23,2.2.14.62-.44.82-.93,1s-1.17.38-1.75.57l-3.63,1.15a.51.51,0,0,0-.3.73,1.27,1.27,0,0,0,1.29.76c.63-.06.64-1.06,0-1a.36.36,0,0,1-.42-.26l-.3.73c1.54-.47,3.07-1,4.61-1.46,1-.34,2.49-.66,2.46-2,0-1.15-1-2-1.88-2.63a20.49,20.49,0,0,0-3.88-2.17l-.12.92a5.06,5.06,0,0,0,2.48-1.39,2.22,2.22,0,0,0,.33-2.49,3,3,0,0,0-2.37-1.15,7.35,7.35,0,0,0-3.47.5c-.59.23-.33,1.2.27,1Z" transform="translate(-12.13 -2.29)"/><path class="cls-2" d="M161.41,206.78a1.11,1.11,0,0,0-1.22.05,1.42,1.42,0,0,0-.65,1.08,1.08,1.08,0,0,0,.17.61,1.1,1.1,0,0,0,.6.44,1.39,1.39,0,0,0,1.22-.32,1.22,1.22,0,0,0,.38-.57,1,1,0,0,0,.06-.34,1.25,1.25,0,0,0-.12-.46.5.5,0,0,0-.3-.23.5.5,0,0,0-.38.05.46.46,0,0,0-.23.3l0,.13a.43.43,0,0,0,.07.25v0l-.05-.12a.57.57,0,0,1,0,.14l0-.14a.38.38,0,0,1,0,.15l0-.13a.88.88,0,0,1,0,.15l0-.12a.56.56,0,0,1-.09.17l.07-.1a.71.71,0,0,1-.15.15l.1-.08a1.09,1.09,0,0,1-.23.14l.12-.05a.86.86,0,0,1-.23.06l.14,0h-.18l.13,0-.15,0,.12.05-.12-.07.1.08a.52.52,0,0,1-.1-.11l.08.11a.75.75,0,0,1-.07-.12l0,.12a.57.57,0,0,1,0-.14l0,.13a.43.43,0,0,1,0-.16l0,.14a.66.66,0,0,1,.06-.2l-.05.12a.82.82,0,0,1,.12-.2l-.08.1a.77.77,0,0,1,.18-.18l-.11.08a1,1,0,0,1,.19-.12l-.11.05.18-.05-.14,0h.15l-.13,0,.14,0-.12,0,.1,0a.46.46,0,0,0,.38.05.5.5,0,0,0,.3-.23.51.51,0,0,0-.18-.68Z" transform="translate(-12.13 -2.29)"/><path class="cls-2" d="M171.06,195.83a15.49,15.49,0,0,1-4.35-.25.51.51,0,0,0-.62.35,15.07,15.07,0,0,0,.07,6.78.5.5,0,0,0,.61.35,5.1,5.1,0,0,1,2.91-.52,1.46,1.46,0,0,1,1.27,1.72c-.49,2.1-3.17,1.85-4.78,1.66-.56-.06-.69.91-.14,1l1.29.18c.63.08.9-.88.27-1l-1.29-.18-.13,1a7.3,7.3,0,0,0,4-.28,3.25,3.25,0,0,0,1.86-2.52,2.42,2.42,0,0,0-1.69-2.44,5.43,5.43,0,0,0-3.79.41l.61.35a13.7,13.7,0,0,1-.06-6.24l-.62.35a16.3,16.3,0,0,0,4.62.28c.64-.05.65-1.05,0-1Z" transform="translate(-12.13 -2.29)"/><path class="cls-2" d="M174.48,207.84a13.75,13.75,0,0,1-4.52,5.31.51.51,0,0,0-.18.68.5.5,0,0,0,.68.18,14.69,14.69,0,0,0,4.88-5.67.5.5,0,0,0-.18-.68.5.5,0,0,0-.68.18Z" transform="translate(-12.13 -2.29)"/><path class="cls-2" d="M179.13,203.21a10.18,10.18,0,0,0,5.35-1.24c.57-.31.06-1.18-.5-.87a9.12,9.12,0,0,1-4.85,1.11c-.64,0-.64,1,0,1Z" transform="translate(-12.13 -2.29)"/><path class="cls-2" d="M188.82,195.39c-.42,2.47-1.37,4.91-1.06,7.45a5.25,5.25,0,0,0,3.43,4.57,3.43,3.43,0,0,0,4.29-2.39,2.73,2.73,0,0,0-2.87-3.14,2.84,2.84,0,0,0-2,1.52c-.38.62-.78,1.8-1.61,1.89-.64.08-.64,1.08,0,1,1.35-.15,1.84-1.35,2.48-2.38.31-.51.73-1.06,1.39-1a1.82,1.82,0,0,1,1.55,1.11c.68,1.61-1.45,2.83-2.8,2.5-1.78-.42-2.74-2.25-2.89-3.94-.22-2.35.67-4.6,1.06-6.88.11-.63-.86-.9-1-.27Z" transform="translate(-12.13 -2.29)"/><path class="cls-2" d="M197.39,206.1h-.3a.45.45,0,0,0-.19.05.42.42,0,0,0-.26.26.41.41,0,0,0,0,.19l0,.14a.71.71,0,0,0,.13.22l.1.08a.54.54,0,0,0,.25.06h.3a.34.34,0,0,0,.2,0,.42.42,0,0,0,.26-.26.34.34,0,0,0,0-.2v-.13a.61.61,0,0,0-.13-.22l-.1-.08a.59.59,0,0,0-.26-.07Z" transform="translate(-12.13 -2.29)"/><path class="cls-2" d="M199.51,195.58A5.94,5.94,0,0,1,204,199a5.15,5.15,0,0,1,.42,1.33,1.28,1.28,0,0,1-.57,1.52c-1.12.69-2.34,1.28-3.5,1.91a.5.5,0,0,0,.12.91q2.67.91,5.4,1.61c.55.14,1.53.59,2,.11a.64.64,0,0,0-.48-1.09.52.52,0,0,0-.44.25l0,.06a.5.5,0,0,0,.86.51l0-.06-.43.24-.25-.12,0-.39c0-.27.27-.09,0-.24a2,2,0,0,0-.41-.1l-.83-.21c-.58-.15-1.17-.31-1.75-.48-1.12-.32-2.24-.67-3.34-1.05l.12.91,2.26-1.23a7,7,0,0,0,1.86-1.17c.87-.92.44-2.44,0-3.46a6.92,6.92,0,0,0-5.47-4.13c-.64-.08-.63.92,0,1Z" transform="translate(-12.13 -2.29)"/><path class="cls-2" d="M217,194.61l-3.86-.92a2.06,2.06,0,0,0-1.58,0,2,2,0,0,0-.74,1.08,26,26,0,0,0-1.62,7.37.51.51,0,0,0,.5.5,8.92,8.92,0,0,1,3.53.06,2.77,2.77,0,0,1,2,1.81.78.78,0,0,1-.08.7c-.17.16-.55.11-.76.1a10.28,10.28,0,0,1-1.75-.18,12.06,12.06,0,0,1-3.26-1.1c-.57-.29-1.08.57-.5.86a13.18,13.18,0,0,0,4.46,1.35c1.18.13,2.89.25,2.93-1.39a3.34,3.34,0,0,0-2-2.82,8.24,8.24,0,0,0-4.54-.39l.5.5a25.73,25.73,0,0,1,1.22-6.08,4.85,4.85,0,0,1,.52-1.36c.31-.39,1.18,0,1.6.11l3.19.75c.63.15.89-.81.27-1Z" transform="translate(-12.13 -2.29)"/><path class="cls-2" d="M217.47,190.11a11.48,11.48,0,0,1,2.46,4.52,44.52,44.52,0,0,1,1.3,5.33,14.16,14.16,0,0,1,0,6,11.22,11.22,0,0,1-2.42,4.44,36.28,36.28,0,0,1-4.12,3.91c-.49.41.22,1.12.71.7,2.69-2.28,5.53-4.76,6.64-8.23,1.23-3.88.08-8.27-1-12a12.77,12.77,0,0,0-2.84-5.35c-.44-.47-1.15.24-.7.7Z" transform="translate(-12.13 -2.29)"/><path class="cls-2" d="M129.56,123.67a17.58,17.58,0,0,0,.16,4.64.49.49,0,0,0,.61.35.51.51,0,0,0,.35-.61,16.91,16.91,0,0,1-.12-4.38.5.5,0,0,0-.5-.5.51.51,0,0,0-.5.5Z" transform="translate(-12.13 -2.29)"/><path class="cls-2" d="M121.19,108.94a29,29,0,0,1,3.32-.77c.55-.09,1.1-.18,1.66-.22.24,0,.41-.06.45.22a1.82,1.82,0,0,1-.12.65c-.52,1.57-2.36,2.41-3.75,3-.44.2-.23.77.12.91a12.87,12.87,0,0,1,2.1,1.13c.52.34,1.56.95,1.5,1.7s-1.06.87-1.58,1a7.06,7.06,0,0,1-2.71,0l-.14,1,.8,0c.64,0,.64-1,0-1l-.8,0a.5.5,0,0,0-.13,1,8.3,8.3,0,0,0,3.51,0,2.43,2.43,0,0,0,2-1.61c.21-1-.6-1.84-1.34-2.4a13.52,13.52,0,0,0-3-1.66l.12.91c1.84-.83,4.07-2,4.34-4.27a1.25,1.25,0,0,0-.6-1.39,3.33,3.33,0,0,0-1.8,0,28.37,28.37,0,0,0-4.26.92.5.5,0,0,0,.26,1Z" transform="translate(-12.13 -2.29)"/><path class="cls-2" d="M130,116.62l.1-.05-.12.05.14,0-.14,0h.15l-.13,0,.18,0-.12,0a.76.76,0,0,1,.19.12l-.1-.08a.77.77,0,0,1,.18.18l-.08-.1a1.37,1.37,0,0,1,.13.2l-.05-.12a1.17,1.17,0,0,1,.05.2l0-.13a.43.43,0,0,1,0,.16l0-.14a.83.83,0,0,1,0,.15l0-.12-.06.11.07-.1-.1.11.1-.08a.35.35,0,0,1-.12.07l.12-.05-.15,0,.13,0h-.18l.14,0a.86.86,0,0,1-.23-.06l.12,0a1.09,1.09,0,0,1-.23-.14l.1.08a1.21,1.21,0,0,1-.16-.16l.08.1a.86.86,0,0,1-.1-.16l.05.12a.75.75,0,0,1-.05-.16l0,.14v-.15l0,.13a.57.57,0,0,1,0-.14l0,.12h0a.59.59,0,0,0,.05-.39.5.5,0,0,0-.23-.3.53.53,0,0,0-.39,0,.5.5,0,0,0-.3.23,1.3,1.3,0,0,0-.11.43,1.12,1.12,0,0,0,0,.32,1.29,1.29,0,0,0,.33.55,1.52,1.52,0,0,0,.55.35.83.83,0,0,0,.21.06,1.15,1.15,0,0,0,.32,0,1.09,1.09,0,0,0,.68-.3,1.12,1.12,0,0,0,.31-.69,1.25,1.25,0,0,0-.14-.62,1.14,1.14,0,0,0-.15-.23,1.71,1.71,0,0,0-.18-.2,1.37,1.37,0,0,0-.62-.32,1.05,1.05,0,0,0-.79.14.51.51,0,0,0-.18.69.52.52,0,0,0,.69.17Z" transform="translate(-12.13 -2.29)"/><path class="cls-2" d="M137.51,106.43a7.91,7.91,0,0,1-2.23-.59.5.5,0,0,0-.56.23,12.28,12.28,0,0,0-1.05,4.5c0,.58.07,1.2.68,1.44s1.18-.09,1.75-.24a1.44,1.44,0,0,1,1.59.38,1.27,1.27,0,0,1-.09,1.29c-.68,1.21-2.37,1.1-3.56,1-.64,0-.64,1,0,1,1.36.06,3,.09,4-1a2.37,2.37,0,0,0,.29-3.12,2.25,2.25,0,0,0-1.76-.67,3.84,3.84,0,0,0-.88.14c-.23.07-.67.33-.91.26s-.13-.63-.12-.85a10.85,10.85,0,0,1,.16-1.26,11.8,11.8,0,0,1,.74-2.41l-.56.23a8.92,8.92,0,0,0,2.49.62c.64.07.63-.93,0-1Z" transform="translate(-12.13 -2.29)"/><path class="cls-2" d="M54.22,188.16a13.08,13.08,0,0,1,6.64-1.1c.64.05.64-.95,0-1a14.26,14.26,0,0,0-7.14,1.23.5.5,0,0,0,.5.87Z" transform="translate(-12.13 -2.29)"/><path class="cls-2" d="M12.38,188.83a9.38,9.38,0,0,0,4.42.66c1,0,2.58-.56,2.27-1.88-.15-.62-1.12-.36-1,.27,0,.11,0,.13-.06.21a1,1,0,0,1-.41.24,3.86,3.86,0,0,1-1.35.17,7.54,7.54,0,0,1-3.39-.54c-.58-.28-1.09.58-.51.87Z" transform="translate(-12.13 -2.29)"/><path class="cls-2" d="M23.89,179.83a29.36,29.36,0,0,0-1.4,7.12c-.11,1.61-.17,3.82,1.45,4.77s4.15,0,5.28-1.26,1-3.71-.94-4.19c-2.27-.56-3.72,1.49-4.65,3.21-.31.57.55,1.07.86.5a6.9,6.9,0,0,1,1.71-2.32,2,2,0,0,1,2.36-.16c.8.68.37,1.9-.29,2.5a4.69,4.69,0,0,1-2.68,1.06c-2.3.17-2.2-2.52-2.1-4.11a28.11,28.11,0,0,1,1.36-6.85c.2-.61-.76-.87-1-.27Z" transform="translate(-12.13 -2.29)"/><path class="cls-2" d="M32.82,188.94v.3a.41.41,0,0,0,0,.19.36.36,0,0,0,.11.16.34.34,0,0,0,.16.1.32.32,0,0,0,.19.05l.13,0a.45.45,0,0,0,.22-.13l.08-.1a.45.45,0,0,0,.07-.25v-.3a.41.41,0,0,0,0-.19.39.39,0,0,0-.11-.17.44.44,0,0,0-.16-.1.41.41,0,0,0-.19,0l-.13,0a.43.43,0,0,0-.22.12l-.08.11a.43.43,0,0,0-.07.25Z" transform="translate(-12.13 -2.29)"/><path class="cls-2" d="M35.13,181.23c1.51.2,3.43.72,4,2.35a2,2,0,0,1-.28,1.94,3.65,3.65,0,0,1-2.26.83.52.52,0,0,0-.36.49.53.53,0,0,0,.36.48,14.67,14.67,0,0,0,5.15,1,.5.5,0,0,0,0-1,13.84,13.84,0,0,1-4.88-1v1a4.21,4.21,0,0,0,2.79-1.2,2.93,2.93,0,0,0,.47-2.71c-.63-2.18-2.93-2.92-4.95-3.18-.27,0-.5.26-.5.5s.23.46.5.5Z" transform="translate(-12.13 -2.29)"/><path class="cls-2" d="M46.43,181.65a4.85,4.85,0,0,0-2.58-.64.54.54,0,0,0-.5.5,12.61,12.61,0,0,0,.35,4.62.49.49,0,0,0,.61.35,3.38,3.38,0,0,1,2.14-.24,1,1,0,0,1,.63,1c-.11.51-1,.38-1.34.38H43.2a.5.5,0,0,0,0,1c1.07,0,2.16.06,3.23,0a1.55,1.55,0,0,0,1.65-1.45A2,2,0,0,0,47,185.4a4,4,0,0,0-3,.12l.61.35a11.86,11.86,0,0,1-.31-4.36l-.5.5a3.75,3.75,0,0,1,2.07.51.5.5,0,0,0,.51-.87Z" transform="translate(-12.13 -2.29)"/><path class="cls-2" d="M72.16,118.59q-1,8.66-1.39,17.35c0,.64,1,.64,1,0q.41-8.7,1.39-17.35c.07-.64-.93-.63-1,0Z" transform="translate(-12.13 -2.29)"/><path class="cls-2" d="M70.22,107.05a9.79,9.79,0,0,1,4.21-5.2l-.75-.43A49.43,49.43,0,0,1,74,107.5c0,1,0,2-.12,2.92,0,.49-.08,1-.13,1.46,0,.28-.06.56-.1.84a3.79,3.79,0,0,1-.08.82l.39-.05.15.15-.13.48.06-.06c.49-.42-.22-1.12-.7-.7-.7.6.46,1.6,1,.77a4.23,4.23,0,0,0,.33-1.77c.08-.72.14-1.45.19-2.18a48.38,48.38,0,0,0-.2-8.76.51.51,0,0,0-.75-.43,10.83,10.83,0,0,0-4.67,5.79c-.21.61.75.88,1,.27Z" transform="translate(-12.13 -2.29)"/><path class="cls-2" d="M70.44,115.86a25.28,25.28,0,0,1,7.33-1,.5.5,0,0,0,0-1,26,26,0,0,0-7.59,1,.5.5,0,0,0,.26,1Z" transform="translate(-12.13 -2.29)"/></svg>