<?xml version="1.0" encoding="UTF-8"?>
<svg id="Layer_2" data-name="Layer 2" xmlns="http://www.w3.org/2000/svg" viewBox="0 0 238.48 109.94">
  <defs>
    <style>
      .cls-1 {
        fill: #231f20;
      }

      .cls-2 {
        fill: #ed1c24;
      }

      .cls-3 {
        fill: #00aeef;
      }
    </style>
  </defs>
  <g id="Layer_1-2" data-name="Layer 1">
    <path class="cls-2" d="M61.26,29.33c-9.6-1.75-19.65-.78-28.79,2.64-5.62,2.1-10.83,5.08-15.47,8.88-6.63,5.41-11.72,12.61-14.77,20.6-1.87,4.9-2.66,10.2-1.99,15.42.61,4.75,2.47,9.03,4.73,13.21,2.04,3.79,4.37,7.4,7.44,10.45,3.89,3.86,8.74,6.57,14.03,7.98,4.86,1.29,9.91,1.52,14.91,1.42s10.17-.42,15.17-1.45c4.52-.93,9.02-2.32,13.28-4.09,4.93-2.05,9.51-4.89,13.06-8.93,6.58-7.5,9.24-17.61,10.22-27.33.5-5.01.9-10.23-.58-15.11-1.37-4.53-3.87-8.74-7.15-12.15-5.56-5.8-13.17-9.16-20.91-10.9-1.06-.24-2.12-.44-3.19-.64-.63-.12-.9.85-.27.96,6.47,1.19,12.81,3.16,18.32,6.84,7.76,5.17,13.17,13.75,13.22,23.2.03,5.07-.54,10.25-1.57,15.21s-2.52,9.42-4.9,13.66-5.78,8.06-9.94,10.79c-4.57,2.99-9.78,4.8-14.99,6.3-4.07,1.17-8.22,1.95-12.44,2.31-4.87.41-9.87.55-14.75.15-5.15-.42-10.24-1.68-14.74-4.27s-8.07-6.3-10.86-10.59c-.95-1.47-1.8-2.99-2.62-4.53-.99-1.83-1.94-3.68-2.69-5.63-1.96-5.07-2.52-10.57-1.55-15.92.75-4.1,2.33-7.95,4.29-11.61,2.24-4.19,4.96-8.02,8.32-11.38,3.88-3.87,8.39-7.07,13.28-9.53,8.86-4.45,18.88-6.44,28.77-5.62,1.63.13,3.24.34,4.85.64.63.11.9-.85.27-.96Z"/>
    <path class="cls-3" d="M181.62,26.02c-7.19,1.23-14.21,3.71-20.36,7.66-8.79,5.65-15.49,14.35-18.36,24.43-1.33,4.67-1.81,9.6-1.15,14.41s2.69,9.61,5.68,13.69c2.38,3.25,5.2,6.14,8.13,8.9,3.63,3.43,7.68,6.4,12.21,8.53,5.52,2.61,11.54,3.94,17.62,4.23,4.94.23,9.87-.23,14.76-.95,5.27-.78,10.65-1.5,15.62-3.52s9.39-5.06,13-8.95c4.93-5.3,8.42-12.16,9.41-19.36.71-5.2.07-10.45-1.5-15.44-1.05-3.31-2.44-6.53-3.91-9.67-1.62-3.49-3.58-6.81-6-9.8-3.19-3.94-7.15-7.22-11.59-9.66-9.05-4.98-19.64-6.33-29.8-5.08-1.26.16-2.51.35-3.75.56-.63.11-.36,1.07.27.96,8.2-1.4,16.63-1.4,24.65,1.01,5.45,1.64,10.61,4.36,14.91,8.11,3.24,2.82,5.95,6.19,8.12,9.89,1.62,2.76,2.91,5.69,4.16,8.63,1.69,3.98,3.07,8.11,3.55,12.42.88,7.79-1.24,15.47-5.51,21.97-2.47,3.76-5.63,7.05-9.32,9.62-4.65,3.25-9.88,5.13-15.43,6.16-9.98,1.86-20.38,3.22-30.4.87-5.66-1.33-10.98-3.81-15.64-7.28-2.99-2.22-5.7-4.83-8.28-7.51-3.42-3.55-6.58-7.57-8.36-12.22-1.67-4.35-2.17-9.07-1.73-13.69.94-10.02,6.12-19.52,13.57-26.2,6.38-5.72,14.4-9.4,22.72-11.23.99-.22,1.99-.41,2.99-.58.63-.11.36-1.07-.27-.96Z"/>
    <g>
      <path class="cls-1" d="M116.39,19.53c1.71-.24,3.34-1,4.97-1.58,1.53-.54,3.07-1.08,4.56-1.73.59-.25.08-1.12-.5-.86-1.47.63-2.99,1.15-4.49,1.69s-3.14,1.29-4.8,1.52c-.63.09-.36,1.05.27.96h0Z"/>
      <path class="cls-1" d="M120.78,17.56c-.41,3.37-.76,6.74-1.05,10.12h1c0-.12.02-.24.03-.37.05-.64-.95-.64-1,0,0,.12-.02.24-.03.37-.05.64.94.64,1,0,.29-3.38.64-6.75,1.05-10.12.08-.64-.92-.63-1,0h0Z"/>
    </g>
    <path class="cls-2" d="M27,6.34c1.8,7.85,4.4,15.49,7.74,22.81.23.5.89.19.93-.25.33-3.54,1.35-6.96,2.57-10.29s2.68-6.8,4.05-10.19c.24-.6-.73-.86-.96-.27-2.7,6.69-5.97,13.48-6.65,20.75l.93-.25c-3.31-7.24-5.86-14.81-7.64-22.58-.14-.63-1.11-.36-.96.27h0Z"/>
    <path class="cls-3" d="M179.54.63c1.15,7.55,3.5,14.89,6.92,21.71.16.32.7.33.86,0,1.5-3.11,3-6.23,4.5-9.34.36-.75.72-1.5,1.08-2.25.11-.23.24-.63.5-.74.37-.16.63.33.79.61.78,1.44,1.33,3.06,1.98,4.57.32.75.64,1.49.96,2.24.23.54.48,1.1.93,1.5.89.8,1.99.37,2.65-.48.42-.54.72-1.16,1.05-1.75.42-.74.85-1.48,1.29-2.22.8-1.34,1.62-2.66,2.46-3.96.97-1.5,1.98-2.98,3.01-4.44.54-.76,1.09-1.52,1.65-2.26.48-.64,1.01-1.66,1.73-2.02.58-.29.07-1.15-.5-.86s-.92.83-1.31,1.35c-.49.65-.98,1.3-1.47,1.96-.96,1.32-1.9,2.66-2.81,4.01-1.82,2.71-3.54,5.49-5.14,8.34-.3.54-.62,1.35-1.2,1.66-.68.37-1.08-.48-1.31-.97-.7-1.52-1.33-3.09-1.99-4.63-.33-.77-.64-1.56-1-2.32-.24-.52-.6-1.08-1.16-1.3-1.37-.54-1.96,1.18-2.41,2.09-1.72,3.56-3.43,7.13-5.15,10.69h.86c-3.39-6.75-5.68-14.01-6.82-21.47-.1-.63-1.06-.36-.96.27h0Z"/>
    <g>
      <path class="cls-1" d="M90.12,43.35c5.97-5.04,13.22-8.68,20.92-10.31,3.81-.8,7.72-1.22,11.62-1.07,2.78.1,5.54.51,8.21,1.28,1.2.35,2.37.81,3.53,1.27,4.83,1.88,9.67,3.64,13.93,6.65,1.05.75,2.05-.99,1.01-1.73-4.02-2.85-8.53-4.54-13.08-6.33-1.38-.54-2.75-1.1-4.16-1.57-2.41-.8-4.96-1.22-7.48-1.44-8.95-.79-18.32,1.27-26.28,5.37-3.45,1.78-6.68,3.97-9.65,6.47-.98.83.44,2.24,1.41,1.41h0Z"/>
      <path class="cls-1" d="M144.65,31.86c.91,2.47,1.75,5.03,2.95,7.38.06.12.13.39.22.46.15.12-.09,0,.07-.05-.14.04-.28.11-.42.15-.87.28-1.74.54-2.62.77-1.83.48-3.69.84-5.56,1.1-1.11.15-.85,2.05.27,1.96.21-.02.42-.03.63-.05.54-.04,1-.43,1-1,0-.51-.46-1.04-1-1-.21.02-.42.03-.63.05l.27,1.96c2.08-.29,4.15-.71,6.17-1.27.92-.25,1.9-.47,2.76-.88.92-.44,1.28-1.4.97-2.35-.15-.48-.44-.93-.65-1.39-.22-.48-.39-.88-.58-1.36-.67-1.66-1.3-3.34-1.92-5.02-.19-.51-.68-.85-1.23-.7-.49.13-.89.72-.7,1.23h0Z"/>
    </g>
    <g>
      <path class="cls-1" d="M113.36,34.92c-.52.44-.82,1.04-1.03,1.67-.24.71-.46,1.46-.64,2.19-.3,1.21-.17,2.86,1.24,3.28.31.09.44-.39.13-.48-1.34-.41-1.05-2.14-.76-3.14.32-1.08.51-2.4,1.41-3.17.25-.21-.11-.56-.35-.35h0Z"/>
      <path class="cls-1" d="M114.33,36.28c-.11,1.43-.19,2.85-.22,4.28,0,.32.49.32.5,0,.03-1.43.11-2.86.22-4.28.03-.32-.47-.32-.5,0h0Z"/>
      <path class="cls-1" d="M116.46,40.32c-.02-.68.08-1.34.28-1.99.1-.31-.39-.44-.48-.13-.22.68-.32,1.41-.3,2.12,0,.32.51.32.5,0h0Z"/>
      <path class="cls-1" d="M116.64,36.45h-.04c-.32,0-.32.5,0,.5h.04c.32,0,.32-.5,0-.5h-.04c-.32,0-.32.5,0,.5h.04c.32,0,.32-.5,0-.5h0Z"/>
      <path class="cls-1" d="M117.35,37.48c-.03,1.01.1,2.03.38,3,.07.26.51.22.49-.07-.04-.55.04-1.05.18-1.58.08-.29.13-.74.38-.94.12-.09.34-.16.48-.09.13.07.15.28.17.41.05.36.03.73,0,1.09-.03.32-.06.6-.11.9-.02.13.03.27.17.31.12.03.29-.04.31-.17.12-.75.24-1.58.09-2.34-.05-.23-.15-.46-.34-.6-.23-.16-.54-.15-.79-.06-.46.17-.64.58-.76,1.02-.18.67-.33,1.34-.28,2.05l.49-.07c-.27-.93-.39-1.9-.36-2.87,0-.32-.49-.32-.5,0h0Z"/>
      <path class="cls-1" d="M121.02,39.31c.52-.12.97-.42,1.27-.86s.5-1.2-.08-1.54c-.61-.36-1.33.34-1.58.85-.3.61-.26,1.33,0,1.95.28.64.89,1.14,1.63.97.31-.07.18-.55-.13-.48-.43.1-.79-.21-.98-.57-.22-.4-.3-.91-.18-1.36.06-.23.18-.44.34-.61.13-.14.35-.36.56-.34.17.01.23.2.21.35-.02.19-.12.37-.22.52-.02.03-.05.07-.07.1-.03.04.03-.03,0,0-.1.12-.21.22-.33.31-.18.11-.37.19-.57.23-.31.07-.18.55.13.48h0Z"/>
      <path class="cls-1" d="M125,37.53c-.12.89-.24,1.78-.36,2.68l.49.07c0-.36-.03-.73-.07-1.09-.06-.49-.12-1.09-.42-1.51-.17-.24-.48-.41-.78-.37-.28.03-.5.23-.67.44-.43.53-.68,1.23-.38,1.89.36.8,1.34,1.12,2.14.87.31-.09.18-.58-.13-.48-.54.16-1.19,0-1.5-.5-.15-.25-.18-.54-.1-.82.04-.12.09-.24.15-.35.02-.04.05-.08.08-.13.01-.02.03-.04.05-.07,0,0,.06-.09.03-.04.11-.14.23-.28.4-.33,0,0,.02,0,.02,0,.04,0-.06-.02.01,0,.07.02.14.04.19.08.02.02.04.03.06.05.04.04-.03-.04,0,.01.02.02.03.05.05.07.09.15.14.34.19.54.05.23.09.46.11.67.04.35.06.7.07,1.04,0,.12.09.23.22.25.11.01.26-.05.27-.18.12-.89.24-1.78.36-2.68.02-.13-.03-.27-.17-.31-.12-.03-.29.04-.31.17h0Z"/>
      <path class="cls-1" d="M126.13,37.62c.05.7.11,1.41.17,2.11.02.25.02.51.08.76.05.21.34.3.47.09.07-.12.04-.31.04-.43.01-.57.07-1.15.27-1.68.06-.15.14-.3.23-.43.05-.06.1-.13.17-.17.02-.01.03-.02.05-.03-.02.01,0,0,0,0,0,0,.04,0,0,0-.04,0,0,0,0,0,0,0,.02,0,.03.01.01,0,.03.02.05.04.04.04.08.09.11.15.06.11.07.12.1.23.1.31.58.18.48-.13-.08-.26-.22-.54-.45-.7-.37-.25-.74.02-.97.32-.43.59-.54,1.39-.58,2.1,0,.14-.01.27-.01.41,0,.04,0,.09,0,.13,0,.07,0,.03,0,0l.06-.11h0c.08-.02.16-.04.24-.06h0s.07.04.11.06c.02.01.08.16.06.07-.02-.06,0,.07,0,.02,0-.02,0-.04,0-.06-.02-.15-.03-.29-.04-.44-.07-.75-.12-1.5-.18-2.24-.02-.32-.52-.32-.5,0h0Z"/>
      <path class="cls-1" d="M128.99,36.19c-.18.89-.25,1.8-.22,2.71,0,.22.27.32.43.18.04-.03.08-.07.11-.1.24-.22-.12-.57-.35-.35-.04.03-.08.07-.11.1l.43.18c-.03-.86.04-1.73.2-2.58.03-.13-.04-.27-.17-.31-.12-.03-.28.04-.31.17h0Z"/>
      <path class="cls-1" d="M129.09,39.85h0s.1.08.15.11h0c0,.06.02.13.03.19h0s-.04.07-.06.11c0,0,0,0,0,0l-.05.04h0s-.08.02-.13.03h0s-.04,0-.07,0h0s-.1-.07-.15-.11h0s-.02-.08-.03-.12h0s0-.04,0-.06h0s.04-.07.06-.1c0,0,0,0-.01.01l.05-.04h0s.04-.01.06-.02c0,0-.01,0-.02,0h.07s-.02,0-.03-.01h.07s-.02,0-.03,0l.06.03s-.02-.01-.04-.02l.05.04s-.02-.02-.03-.03l.04.05s-.02-.02-.02-.04l.03.06s0-.02,0-.03v.07s0-.03,0-.04v.07s0-.02,0-.03l-.03.06s.01-.02.02-.03l-.04.05s.02-.02.03-.03l-.05.04s.02-.01.03-.02l-.06.03s.03,0,.05-.01h-.07s.03,0,.04,0h-.07s.02,0,.04,0l-.06-.03s.02,0,.03.02l-.05-.04s.02.02.03.03l-.04-.05s.01.02.02.03l-.03-.06s.01.03.01.05v-.07s0,.04,0,.06v-.07s0,.04,0,.06l.03-.06s-.03.05-.04.07l.04-.05s-.06.06-.09.09l.05-.04s-.05.04-.08.06c-.07.05-.11.1-.12.18,0,.07,0,.16.07.21.02.01.03.03.05.05l-.04-.05s.03.04.04.07l-.03-.06s.02.06.02.09v-.07s0,.05,0,.08v-.07s0,.05-.01.07l.31-.17s-.03,0-.04-.01l.06.03s-.05-.02-.07-.04l.05.04s-.04-.04-.06-.06l.04.05s-.04-.06-.05-.09l.03.06s-.03-.08-.03-.12v.07s0-.08,0-.12v.07s0-.07.02-.1l-.03.06s.03-.05.05-.08l-.04.05s.03-.04.05-.05l-.05.04s.02-.02.04-.02c.11-.07.16-.23.09-.34s-.22-.16-.34-.09c-.45.26-.35,1.02.15,1.16.06.02.14,0,.19-.03.06-.04.09-.09.11-.15.08-.2,0-.46-.15-.59l-.05.39c.15-.1.3-.22.34-.41.05-.22-.05-.47-.28-.52s-.49.11-.5.36.24.48.48.41c.1-.03.18-.1.21-.2.04-.14-.05-.28-.18-.32-.13-.04-.26.04-.31.16-.06.14.02.31.17.35.13.03.28-.04.31-.17s-.04-.27-.17-.31h0Z"/>
      <path class="cls-1" d="M130.02,35.42c.34,1.02.52,2.08.51,3.15,0,.52-.04,1.04-.14,1.55-.05.23-.11.45-.2.66-.04.09-.26.55-.39.51-.31-.1-.44.38-.13.48.49.16.85-.49,1-.85.23-.54.3-1.14.34-1.72.09-1.32-.08-2.65-.5-3.91-.1-.3-.58-.17-.48.13h0Z"/>
    </g>
    <g>
      <g>
        <g>
          <path class="cls-1" d="M42.88,58.46c-.71-.34-1.56-.31-2.2.17-.55.41-1,1.14-.89,1.85.14.93,1.24.84,1.94.81.39-.02.8-.02,1.14.18.33.19.47.53.37.9-.28.98-1.67,1.07-2.5,1.15-.32.03-.32.53,0,.5.77-.08,1.69-.16,2.34-.63.56-.41.91-1.19.56-1.85s-1.14-.79-1.81-.77c-.41.02-.95.13-1.33-.07s-.22-.71-.09-1c.39-.83,1.36-1.23,2.21-.82.29.14.54-.29.25-.43h0Z"/>
          <path class="cls-1" d="M44.66,59.95c-.52.43-.67,1.14-.65,1.78.01.3.06.61.14.91.09.32.22.68.55.82.35.14.72-.06.99-.28.3-.24.52-.54.66-.9.12-.29.16-.6.19-.91s.03-.61-.02-.92c-.06-.38-.27-.75-.66-.86-.43-.12-.87.09-1.2.35-.11.08-.09.27,0,.35.1.11.25.08.35,0,.19-.15.5-.3.74-.22.21.07.27.32.29.52.06.43.02.93-.1,1.34-.08.28-.23.53-.44.73-.13.13-.39.37-.59.32-.18-.05-.24-.37-.29-.53-.06-.22-.1-.45-.11-.68-.03-.54.06-1.12.5-1.49.25-.21-.11-.56-.35-.35Z"/>
          <path class="cls-1" d="M47.09,60.14c-.02,1.09.12,2.19.41,3.24.08.32.54.18.48-.13-.07-.41-.12-.82-.13-1.24,0-.36-.02-.75.07-1.1.03-.13.09-.26.19-.35.07-.06.07-.06.1.02s.06.17.09.25c.13.38.22.78.25,1.19.02.26.43.36.49.07.08-.43.22-.86.43-1.25.13-.23.28-.45.46-.64.09-.1.18-.2.28-.28.07-.06.13-.06.02-.09.05.02-.03,0-.02-.03,0,0,.04.09.04.12.01.07.02.14.02.21,0,.21,0,.43-.02.64-.05.57-.15,1.13-.25,1.69-.06.31.42.45.48.13.1-.54.19-1.08.25-1.62.04-.39.09-.8,0-1.18-.07-.34-.36-.57-.7-.36-.22.13-.4.35-.56.54s-.31.4-.43.62c-.23.42-.39.89-.48,1.37l.49.07c-.05-.54-.16-1.07-.36-1.57-.09-.21-.22-.42-.48-.43-.24-.01-.45.15-.58.33-.28.38-.28.9-.29,1.35,0,.57.04,1.13.14,1.69l.48-.13c-.27-1.02-.4-2.06-.39-3.11,0-.32-.5-.32-.5,0h0Z"/>
          <path class="cls-1" d="M51.82,61.56c.48-.18,1.07-.43,1.24-.97.14-.43-.08-1.03-.56-1.14-.55-.12-.88.41-.97.87-.11.61-.08,1.31.14,1.88s.7,1.1,1.33,1.28c.31.09.44-.4.13-.48-.49-.14-.85-.55-1.01-1.01-.1-.3-.14-.6-.15-.91,0-.26,0-.52.08-.77.04-.14.13-.37.31-.36.15,0,.22.19.24.31.06.47-.57.7-.91.83-.3.11-.17.6.13.48h0Z"/>
          <path class="cls-1" d="M57.73,56.63c-.08,2.06,0,4.12.26,6.16.04.32.54.32.5,0-.25-2.04-.34-4.1-.26-6.16.01-.32-.49-.32-.5,0h0Z"/>
          <path class="cls-1" d="M60.32,62.42l.25-3.5c.02-.32-.48-.32-.5,0l-.25,3.5c-.02.32.48.32.5,0h0Z"/>
          <path class="cls-1" d="M61.37,58.93l.03,3.09c0,.33.46.31.5,0,.13-1.03.28-2.19.98-3.01.04-.05.08-.1.13-.14.03-.03.05-.05.08-.08-.08-.08-.1-.09-.07-.03,0,.14.07.3.09.44.05.32.08.64.08.96,0,.66-.11,1.3-.33,1.92-.1.31.38.44.48.13.2-.58.31-1.18.34-1.79.01-.31,0-.62-.03-.93s-.06-.61-.16-.89c-.09-.26-.35-.42-.61-.28-.22.12-.4.37-.54.57-.3.41-.49.89-.62,1.37-.16.57-.24,1.16-.31,1.75h.5l-.03-3.09c0-.32-.5-.32-.5,0h0Z"/>
          <path class="cls-1" d="M64.85,60.85c.76.09,1.98-.17,2.09-1.1.05-.4-.17-.79-.44-1.07-.25-.25-.61-.5-.98-.45-.61.07-.86.86-.96,1.36-.14.68-.14,1.46.16,2.1.39.82,1.44,1.08,2.24.77.3-.12.17-.6-.13-.48-.52.2-1.23.14-1.57-.36-.29-.42-.31-1.02-.27-1.51.03-.43.14-1.02.45-1.32.04-.04.09-.07.13-.08.1,0,.2.03.29.08.24.14.47.37.56.64.1.29-.06.52-.3.68-.37.24-.83.27-1.26.22-.14-.02-.25.13-.25.25,0,.15.12.23.25.25h0Z"/>
          <path class="cls-1" d="M69.84,59.5v2.44c.17-.02.33-.04.49-.07-.09-.62-.32-1.23-.66-1.77-.3-.47-.75-1.1-1.37-1.1-.34,0-.56.23-.66.53-.11.32-.18.68-.19,1.02-.02.64.25,1.23.77,1.6.58.42,1.39.41,1.99.04.27-.17.02-.6-.25-.43-.4.25-.91.29-1.33.06-.39-.22-.65-.62-.67-1.07-.02-.27.03-.54.09-.8.04-.15.06-.46.27-.45.19.01.36.16.49.29.17.18.33.39.46.6.3.49.5,1.04.59,1.61.04.28.49.21.49-.07v-2.44c0-.32-.5-.32-.5,0h0Z"/>
          <path class="cls-1" d="M71.13,58.12c-.05,1.33.04,2.65.24,3.97.04.29.48.2.49-.07.02-.4.03-.8.05-1.2.01-.33,0-.67.06-1,.04-.26.13-.56.37-.71.16-.1.46-.17.6,0,.19.25.63,0,.43-.25-.5-.66-1.44-.31-1.74.35-.17.39-.19.81-.21,1.23-.02.53-.04,1.05-.06,1.58l.49-.07c-.2-1.27-.27-2.55-.22-3.84.01-.32-.49-.32-.5,0h0Z"/>
          <path class="cls-1" d="M74.26,56.55l-.12,5.5c0,.29.41.33.49.07.04-.12.07-.23.11-.35.1-.31-.38-.44-.48-.13-.04.12-.07.23-.11.35l.49.07.12-5.5c0-.32-.49-.32-.5,0h0Z"/>
          <path class="cls-1" d="M75.94,59.36c-.15.62-.16,1.27-.01,1.89.11.48.36,1.09.95,1.09.47,0,.63-.42.8-.78.25-.52.53-1.03.81-1.54l-.47-.13c-.07,1.18-.45,2.24-1.09,3.23-.26.41-.57.83-1.02,1.04-.51.24-1.08.1-1.54-.17-.28-.17-.53.27-.25.43.53.31,1.16.47,1.76.29s1-.62,1.34-1.1c.78-1.11,1.24-2.36,1.31-3.71.01-.25-.35-.34-.47-.13-.22.4-.44.8-.64,1.2-.12.24-.21.55-.37.76-.35.46-.62-.56-.66-.76-.09-.49-.07-1,.04-1.49.07-.31-.41-.45-.48-.13h0Z"/>
          <path class="cls-1" d="M43.79,70.75c-.26,1.92-.28,3.87-.09,5.8.03.32.53.32.5,0-.2-1.93-.17-3.88.09-5.8.04-.32-.46-.31-.5,0h0Z"/>
          <path class="cls-1" d="M44.56,70.66s0-.03.01-.05c0,.02,0,.02,0,0-.03.04.05-.05.01-.02.06-.04.08-.05.16-.06-.03,0,.06,0,.07,0,.05,0,0,0,.04,0,.07.02.09.02.14.07.12.1.2.25.25.39.07.19.13.38.17.58.04.17.06.37-.03.52-.06.11-.14.18-.26.24-.26.13-.58.16-.88.17-.32.01-.32.51,0,.5.64-.02,1.51-.17,1.67-.91.09-.41-.05-.88-.2-1.26-.13-.34-.36-.69-.73-.77s-.82.07-.92.48c-.08.31.41.45.48.13h0Z"/>
          <path class="cls-1" d="M46.86,71.83c.56-.09,1.11-.45,1.28-1.01.15-.49-.04-1.11-.52-1.34-.29-.14-.65-.13-.87.12-.19.22-.2.54-.17.82.06.67.23,1.32.51,1.93.14.32.31.68.56.94s.6.33.82.03c.08-.11.02-.28-.09-.34-.13-.08-.26-.02-.34.09.09-.02.11-.04.06-.06-.02-.01-.05-.03-.06-.04-.05-.04-.08-.1-.12-.15-.08-.12-.15-.24-.22-.36-.13-.25-.25-.5-.34-.77-.1-.29-.17-.58-.22-.88-.04-.23-.09-.51-.05-.75s.27-.19.42-.06.21.35.19.54c-.04.48-.54.74-.96.81-.32.05-.18.54.13.48h0Z"/>
          <path class="cls-1" d="M48.7,70.04c.15.97.22,1.95.22,2.94,0,.32.49.32.5,0,0-.47.08-.94.2-1.4.06-.23.14-.45.23-.67.03-.06.17-.44.24-.42.04.01.07.15.08.18.03.12.06.24.09.35.06.24.1.49.14.74.07.5.09,1.01.08,1.52,0,.32.49.32.5,0,.02-.63-.02-1.25-.13-1.87-.05-.3-.11-.61-.2-.9-.08-.24-.22-.49-.5-.53s-.48.16-.61.39c-.14.25-.24.54-.33.81-.19.58-.28,1.18-.3,1.79h.5c0-1.03-.09-2.05-.24-3.07-.02-.13-.19-.21-.31-.17-.14.04-.19.17-.17.31h0Z"/>
          <path class="cls-1" d="M53.83,69.08c.14,1.41.15,2.83.01,4.24l.47-.13c-.38-.5-.76-1.01-1.27-1.38-.23-.17-.53-.34-.84-.28-.25.05-.44.24-.49.5-.09.52.31,1.09.67,1.43.42.39,1.04.57,1.56.25.27-.17.02-.6-.25-.43-.34.21-.74.04-1-.22-.2-.21-.53-.59-.49-.91.05-.38.72.2.84.31.32.29.58.64.84.99.15.2.44.13.47-.13.13-1.41.13-2.83-.01-4.24-.03-.32-.53-.32-.5,0h0Z"/>
          <path class="cls-1" d="M55.61,72.04c.35-.06.61-.3.84-.56s.46-.56.53-.9c.07-.32,0-.66-.24-.9s-.57-.32-.87-.16c-.27.14-.41.44-.49.72-.1.36-.14.75-.14,1.13s.04.78.13,1.16c.08.34.18.71.38.99s.52.51.9.44c.32-.06.59-.32.58-.65s-.51-.32-.5,0c0,.19-.28.19-.39.11-.23-.15-.32-.47-.4-.72-.2-.65-.25-1.35-.14-2.01.04-.22.08-.56.27-.7.2-.16.41.1.44.3.04.28-.18.57-.35.77-.19.22-.38.46-.68.51-.32.05-.18.53.13.48h0Z"/>
          <path class="cls-1" d="M57.42,69.88c.24,1.06.39,2.13.47,3.21h.5c-.05-.49-.05-.98.04-1.46.04-.23.1-.46.17-.69.03-.09.12-.44.22-.45-.02,0,0,0,0,0,.03.02.05.07.06.1.04.1.07.2.1.31.07.23.12.47.15.72.06.48.05.98-.02,1.46-.02.13.03.27.17.31.12.03.29-.04.31-.17.1-.62.1-1.23,0-1.85-.05-.3-.11-.6-.22-.88-.09-.25-.26-.49-.55-.5-.57-.01-.73.82-.83,1.23-.14.61-.18,1.24-.11,1.87.02.13.1.25.25.25.13,0,.26-.11.25-.25-.08-1.13-.24-2.24-.49-3.34-.07-.31-.55-.18-.48.13h0Z"/>
          <path class="cls-1" d="M59.76,70.23c.55-.17,1.11-.23,1.68-.16.13.02.25-.13.25-.25,0-.15-.12-.23-.25-.25-.61-.07-1.23,0-1.81.18-.13.04-.21.17-.17.31.03.13.18.22.31.17h0Z"/>
          <path class="cls-1" d="M60.45,68.34c-.1,1.65-.13,3.31-.08,4.97,0,.32.51.32.5,0-.05-1.66-.02-3.31.08-4.97.02-.32-.48-.32-.5,0h0Z"/>
          <path class="cls-1" d="M64.21,69.13c.5,1.45,1.14,2.85,1.91,4.18.14.24.44.1.47-.13.19-1.4.55-2.78,1.06-4.1.12-.3-.37-.43-.48-.13-.53,1.37-.89,2.78-1.08,4.24l.47-.13c-.75-1.29-1.37-2.65-1.86-4.06-.1-.3-.59-.17-.48.13h0Z"/>
          <path class="cls-1" d="M68.07,71.96c.51.18,1.16.01,1.42-.48.25-.46.13-1.11-.37-1.34s-1.08.02-1.24.56c-.09.29-.1.62-.11.93,0,.33.02.67.11.98.18.58.61,1.1,1.21,1.26.31.08.44-.4.13-.48-.46-.12-.76-.53-.88-.97-.08-.3-.09-.61-.08-.91.01-.25.01-.55.12-.77.08-.17.26-.23.44-.18s.29.21.29.4c0,.49-.52.67-.92.53-.3-.11-.44.38-.13.48h0Z"/>
          <path class="cls-1" d="M71.03,70.77c-.3.3-.55.64-.74,1.01s-.37.82-.28,1.25c.18.82,1.14.83,1.8.73.13-.02.21-.19.17-.31-.04-.14-.17-.2-.31-.17-.4.06-1.15.12-1.19-.43-.02-.32.15-.65.3-.92.16-.29.37-.56.61-.8s-.12-.58-.35-.35h0Z"/>
          <path class="cls-1" d="M75.95,73.79c.2-.74.28-1.52.26-2.28,0-.32-.51-.32-.5,0,.02.73-.06,1.45-.25,2.15-.08.31.4.44.48.13h0Z"/>
          <path class="cls-1" d="M75.46,70.14s-.01.08-.02.12c0,.02,0,.03,0,.05,0,.02,0,.06.01.09s.02.06.03.08c0,0,0,.01.01.02.02.02.03.05.06.07,0,0,.04.03.06.04,0,0,0,0,0,0,.01,0,.05.02.06.03.03,0,.06.01.08.01,0,0,0,0,0,0,.02,0,.05,0,.07,0,0,0,0,0,0,0,0,0,0,0,0,0,.02,0,.04-.02.06-.03,0,0,0,0,0,0,.03-.02.05-.04.08-.06.01-.02.03-.04.04-.06,0,0,0,0,0,0,0,0,0,0,0,0,0-.02.02-.04.03-.06,0,0,0,0,0,0,0-.03.01-.05.01-.08,0-.02,0-.05,0-.07,0,0,0,0,0,0,0,0,0,0,0,0l-.03-.06s-.01-.02-.02-.03c-.03-.04-.03-.04-.07-.07-.02-.01-.05-.03-.07-.03-.03-.01-.07-.01-.1,0-.03,0-.06.01-.09.03-.03.02-.05.04-.07.06-.02.02-.04.05-.04.09v.07s0,.09.03.13l.04.05s.07.05.11.06c0,0,0,0,0,0l-.06-.03s0,0,0,0l-.05-.04s0,0,0,0l-.04-.05s0,0,0,0l-.03-.06s0,0,0,0v-.07s0,0,0,0v-.07s0,.01,0,.02l.03-.06s0,.01-.01.02l.04-.05s0,.01-.02.02l.05-.04s-.01,0-.02.01l.06-.03s0,0-.01,0h.07s0,0-.01,0h.07s0,0-.01,0l.06.03s0,0-.01,0l.05.04s-.01-.01-.02-.02l.04.05s0-.02-.01-.02l.03.06s0-.02,0-.04v.07s0-.05.01-.08v.07s0-.01,0-.02c.01-.03.01-.07,0-.1,0-.03-.01-.06-.03-.09-.02-.03-.04-.05-.06-.07-.02-.02-.05-.04-.09-.04h-.07s-.09,0-.13.03l-.05.04s-.05.07-.06.11h0Z"/>
          <path class="cls-1" d="M77.23,72.17c.49-.18.89-.55,1.09-1.04.09-.21.13-.45.05-.67-.08-.25-.32-.41-.58-.36s-.44.3-.55.53c-.12.25-.21.51-.25.79-.09.55-.02,1.13.22,1.63.12.26.33.5.61.58.26.08.59.02.77-.21.08-.11.1-.25,0-.35-.09-.09-.27-.11-.35,0-.1.13-.27.11-.39.02-.16-.13-.24-.35-.3-.54-.14-.46-.13-.94.02-1.4.06-.18.14-.43.3-.54.03-.02.04,0,0-.02,0,0,.02.01.02.03,0,.07.02.13,0,.21-.09.39-.44.73-.8.87-.13.05-.21.17-.17.31.03.12.18.22.31.17h0Z"/>
          <path class="cls-1" d="M80.72,70.7c-.42.03-.89.14-1.17.49-.24.3-.31.77-.08,1.1.14.19.34.29.56.35.09.03.39.07.41.2.01.11-.28.23-.36.27-.2.1-.43.17-.65.19-.13.02-.25.1-.25.25,0,.12.12.27.25.25.45-.06.97-.21,1.32-.52.17-.15.25-.38.17-.6s-.28-.37-.49-.44c-.16-.06-.41-.06-.53-.2-.08-.09-.08-.23-.04-.35.1-.36.55-.45.87-.48.13-.01.25-.11.25-.25,0-.13-.11-.26-.25-.25h0Z"/>
          <path class="cls-1" d="M72.51,70.04c.05,1.18-.01,2.35-.19,3.52-.02.13.03.27.17.31.12.03.29-.04.31-.17.19-1.21.26-2.43.21-3.65-.01-.32-.51-.32-.5,0h0Z"/>
          <path class="cls-1" d="M73.49,71.97c.09-.11.19-.21.3-.3.01-.01.02-.02.04-.03,0,0,.05-.04.03-.02-.02.01.02-.01.02-.02.02-.01.03-.02.05-.03.06-.04.12-.08.18-.11.06-.03.12-.07.18-.1.03-.02.06-.03.1-.05,0,0,.06-.03.04-.02-.02,0,.02,0,.02,0,.14-.05.27-.09.42-.13.13-.03.21-.18.17-.31-.04-.13-.17-.2-.31-.17-.61.13-1.18.47-1.59.94-.09.1-.1.26,0,.35.09.09.26.11.35,0h0Z"/>
          <path class="cls-1" d="M72.93,71.8l1.28,2.21c.16.28.59.03.43-.25l-1.28-2.21c-.16-.28-.59-.03-.43.25h0Z"/>
          <path class="cls-1" d="M36.88,74.11l-.78-5.99-.25.25c1.48.15,2.54,1.28,2.87,2.69.16.71.08,1.39-.4,1.96-.42.5-1.01.84-1.6,1.09-.29.13-.04.56.25.43.7-.3,1.37-.72,1.83-1.33.51-.68.58-1.47.39-2.28-.38-1.64-1.65-2.88-3.35-3.06-.12-.01-.27.13-.25.25l.78,5.99c.04.31.54.32.5,0h0Z"/>
          <path class="cls-1" d="M39.45,68.67c.1,1.81.23,3.62.4,5.42.02.21.26.33.43.18.62-.58,1.43-.89,2.28-.88.32,0,.32-.5,0-.5-.98-.01-1.92.35-2.64,1.03l.43.18c-.17-1.81-.3-3.61-.4-5.42-.02-.32-.52-.32-.5,0h0Z"/>
          <path class="cls-1" d="M40.1,70.78l1-.29c.13-.04.22-.18.17-.31s-.17-.21-.31-.17l-1,.29c-.13.04-.22.18-.17.31s.17.21.31.17h0Z"/>
          <path class="cls-1" d="M39.92,68.95l2.35-1.09c.12-.06.15-.23.09-.34-.07-.13-.22-.15-.34-.09l-2.35,1.09c-.12.06-.15.23-.09.34.07.13.22.15.34.09h0Z"/>
        </g>
        <path class="cls-1" d="M55.54,53.05c-3.12.07-6.25.2-9.36.53-1.77.19-3.55.44-5.26.93-2.87.83-4.98,2.76-6.58,5.29-2.12,3.34-3.22,7.79-2.69,11.73.37,2.76,1.81,5.2,4.34,6.49s5.21,1.28,7.87,1.48c6.26.46,12.53.95,18.81,1.06,4.04.07,8.22.06,12.16-.92,2.73-.68,5.1-1.94,6.84-4.19,1.51-1.95,2.63-4.26,2.95-6.73.34-2.65-.37-5.26-1.83-7.48-1.95-2.95-5.1-5.46-8.37-6.83-1.76-.74-3.66-1.07-5.56-1.26-2.71-.26-5.44-.24-8.16-.2-1.72.02-3.43.06-5.15.1-.32,0-.32.51,0,.5,3.15-.07,6.3-.16,9.45-.1,2.17.04,4.37.15,6.5.59,3.16.66,6.02,2.4,8.38,4.58,1.77,1.63,3.27,3.64,3.95,5.97.81,2.78.28,5.7-1.05,8.23-1.4,2.67-3.39,4.72-6.24,5.77-3.3,1.22-6.94,1.41-10.42,1.47-5.4.09-10.8-.27-16.19-.63-3.12-.21-6.27-.36-9.38-.69-2.78-.3-5.61-1.26-7.17-3.74-2.16-3.43-1.46-8.34-.07-11.97,1.17-3.06,3.34-6.27,6.47-7.58,1.2-.5,2.5-.78,3.78-1.01,2.35-.41,4.74-.58,7.12-.71,1.63-.09,3.26-.15,4.89-.18.32,0,.32-.51,0-.5Z"/>
      </g>
      <g>
        <g>
          <path class="cls-1" d="M167.94,62.76c1.64-.47,3.61-.44,4.81.95.52.61.76,1.42.59,2.21-.2.91-.86,1.41-1.69,1.72s-1.64.56-2.47.83c-.38.13-1.19.22-1.07.81.05.26.26.42.43.6.28.29.52.6.71.95.4.73.57,1.54.52,2.37-.02.32.48.32.5,0,.05-.83-.11-1.65-.48-2.4-.16-.32-.35-.62-.57-.9-.14-.18-.3-.32-.46-.49-.28-.3-.04-.26.25-.36.95-.32,1.91-.6,2.84-.96.68-.26,1.3-.62,1.67-1.27.72-1.27.3-2.87-.77-3.8-1.38-1.2-3.27-1.22-4.95-.74-.31.09-.18.57.13.48h0Z"/>
          <path class="cls-1" d="M170.56,75.78s-.02-.08-.02-.11v.07c0-.08,0-.15.01-.23v.07c0-.08.02-.15.05-.22l-.03.06s.04-.08.06-.11l-.39.05s.02.02.03.04l-.04-.05s.04.06.06.1l-.03-.06s.03.09.04.13v-.07s0,.1,0,.15v-.07s0,.1-.03.14l.03-.06s-.04.08-.07.12l.04-.05s-.05.05-.07.08l.05-.04s-.02.01-.02.02h.25s-.03-.02-.04-.03l.05.04s-.02-.02-.03-.03l.04.05s-.02-.03-.02-.04l.03.06s-.01-.04-.02-.06v.07s0-.06,0-.09v.07s0-.06.02-.09l-.03.06s.03-.06.05-.08l-.04.05s.03-.04.05-.05l-.05.04s.03-.02.05-.03l-.06.03s.03-.01.05-.01h-.07s.03,0,.05,0h-.07s.03,0,.05,0l-.06-.03s.03.02.05.03l-.05-.04s.02.02.03.03l-.04-.05s.02.03.03.05l-.03-.06s.02.05.02.07v-.07s0,.06,0,.09v-.07s0,.06-.02.09l.03-.06s-.02.05-.04.07l.04-.05s-.03.03-.05.05l.05-.04s-.03.02-.05.03l.06-.03s-.03,0-.05.01h.07s-.04,0-.06,0c-.06,0-.14.03-.18.07-.04.04-.08.11-.07.18s.02.13.07.18l.05.04s.08.03.13.03c.13.02.27-.05.36-.14.09-.1.14-.23.15-.37.01-.11-.02-.24-.08-.33-.09-.13-.24-.21-.4-.2s-.28.1-.38.23c-.07.09-.1.22-.1.34,0,.16.07.3.21.39.04.03.08.05.13.05.1.01.18-.04.25-.1.05-.05.1-.1.13-.17.17-.29.14-.68-.1-.92-.11-.12-.31-.08-.39.05-.16.26-.2.58-.12.88.03.13.18.22.31.17s.21-.17.17-.31h0Z"/>
          <path class="cls-1" d="M176.63,61.98c1.04-.03,2.12-.07,3.13.24,1.12.34,1.93,1.16,2.32,2.26.16.46.25.95.27,1.44,0,.29,0,.56-.15.81-.21.35-.64.39-1.01.47-1.26.27-2.52.53-3.77.8-.12.03-.22.19-.17.31.3.74.56,1.5.77,2.28.1.37.19.74.26,1.12.05.23.31,1.06.16,1.27l.28-.11-.06-.02.17.17-.02-.07-.11.28.04-.03c.27-.18.02-.61-.25-.43l-.04.03c-.09.06-.15.17-.11.28.05.15.11.21.26.26.11.04.22-.03.28-.11.18-.25.08-.55.03-.83-.07-.48-.17-.96-.28-1.44-.23-.95-.53-1.88-.9-2.79l-.17.31c.81-.17,1.63-.34,2.44-.51.68-.14,1.5-.2,2.13-.5,1.05-.51.77-2.06.5-2.96-.34-1.11-1.08-2.07-2.16-2.56-1.19-.54-2.54-.52-3.82-.47-.32.01-.32.51,0,.5h0Z"/>
          <path class="cls-1" d="M177.93,74.41l.24.82.37-.28s-.04-.03.02.02c0,0-.01,0-.02-.01-.01-.01-.02-.02-.03-.04-.02-.03.04.05.02.03,0,0,0-.01-.01-.02,0-.01-.02-.03-.02-.05l.03.06s-.02-.06-.03-.1v.07s0-.08,0-.12v.07s0-.08.02-.12l-.03.06s.02-.05.04-.07c0-.01.04-.05,0-.01s0,0,0,0,.02-.02.03-.02c.04-.04-.05.03-.01,0,.02-.02.05-.03.08-.04l-.06.03s.06-.02.09-.03l-.32-.24s0,.04,0,.05v-.07c0,.09-.02.18-.05.26l.03-.06s-.02.05-.03.07c0,.01-.01.02-.02.03-.03.04.04-.04,0-.01,0,0-.01.02-.02.02,0,0-.01,0-.02.01-.02.02-.01,0,.02-.02-.02.01-.04.03-.07.04l.06-.03s-.04.01-.06.02h.07s-.05,0-.07,0h.07s-.06,0-.09-.01l.06.03s-.03-.02-.05-.02c0,0-.01,0-.02-.01-.03-.02.05.04.02.02,0,0-.02-.03-.03-.04,0,0,.04.06.02.03,0,0,0-.01-.01-.02l.03.06s0-.03-.01-.04v.07s0-.02,0-.03v.07s0-.02,0-.03l-.03.06s.01-.02.01-.03c-.03.04-.04.05-.02.03,0,0,0,0,.01-.01.1-.09.09-.27,0-.35-.11-.1-.25-.09-.35,0-.13.11-.15.31-.07.46.07.12.18.2.31.25.28.11.59-.06.71-.33.07-.15.09-.3.11-.46,0-.08-.04-.15-.1-.2-.07-.05-.14-.06-.22-.04-.25.05-.46.26-.52.51-.03.12-.03.25,0,.37.05.14.14.25.26.34.08.06.2.04.28-.02s.12-.17.09-.26l-.24-.82c-.04-.13-.18-.22-.31-.17s-.21.17-.17.31h0Z"/>
          <path class="cls-1" d="M186.05,61.93c.86.31,1.77.64,2.48,1.23.81.68,1.09,1.65,1.06,2.69-.03,1.2-.65,1.99-1.74,2.42-.97.39-2.02.58-3.05.66-.17.01-.33.21-.22.38.8,1.16,1.29,2.47,1.4,3.88.02.32.52.32.5,0-.12-1.5-.62-2.9-1.47-4.13l-.22.38c1.21-.1,2.48-.32,3.58-.85s1.62-1.4,1.7-2.55-.2-2.27-1.02-3.06-1.87-1.16-2.88-1.53c-.3-.11-.43.37-.13.48h0Z"/>
          <path class="cls-1" d="M186.6,75.26s-.01,0-.02,0c-.03,0,.03.01.03.01-.04-.02.04.04.02.02s.04.05.02.03c-.02-.04.02.06,0,.01s0,.07,0,0c0-.01,0-.04,0,0s0,.02,0,0c.02-.06-.02.04,0,0s-.05.05,0,.01c0,0-.06.04-.03.02.03-.02-.06.02-.02,0,0,0-.07,0-.02,0,.02,0,.04.01-.03,0,.03,0,0,.01-.02-.01,0,0,.02.01.02.01.04.02-.02,0-.02-.01,0,0,.02.02.02.02-.02,0-.03-.05-.01-.02,0,0,.02.04.02.04,0,0-.02-.06,0-.02,0,0,0,.02,0,.03-.01-.02,0-.05,0-.02,0,.04,0-.02,0-.02,0,0,0,.02,0,.03-.01.05.02-.04,0-.01,0,0-.01.02-.02.03-.01.03.04-.04,0,0,0,0-.02.01-.02.02-.03.03,0-.01.01,0,0,0-.05.03-.06.04-.05.03.04-.01-.01,0-.01,0-.03,0-.04.01-.01,0-.05,0-.01,0,.04,0-.03,0-.04,0-.01,0-.03,0-.04,0-.03,0,0-.01.02,0-.01,0-.04,0-.06-.01,0,0-.02,0-.03,0h-.01s-.02-.01.02,0c0,0-.05-.02-.06-.03-.02-.01-.03-.03-.05-.03.04.02.03.02.01.01,0,0-.02-.01-.02-.02-.02-.02-.03-.04-.05-.06,0,0,.03.05.01.01,0,0-.01-.02-.02-.03-.01-.02-.02-.04-.03-.05-.02-.04,0,.01,0,.02,0,0-.01-.03-.01-.04,0-.02,0-.05-.02-.07.02.03,0,.05,0,.02,0-.01,0-.02,0-.03,0-.01,0-.03,0-.04,0-.03-.01.06,0,.02,0-.02,0-.04.01-.05,0-.03.02-.03,0,.01,0,0,.01-.02.02-.03,0-.02.02-.03.03-.05.02-.03.02,0,0,.01,0,0,.01-.02.02-.02.01-.01.03-.03.04-.04,0,0,.02-.01.02-.02-.01.02-.04.03,0,0,.02-.01.03-.02.05-.03,0,0,.02,0,.03-.01.02-.01.02,0-.02,0,.02,0,.04-.01.05-.02,0,0,.02,0,.03,0,.03,0,.04,0-.01,0,.02,0,.04,0,.05,0,0,0,.02,0,.03,0,.04,0-.02,0-.03,0,.02,0,.04,0,.06.01.01,0,.04.02,0,0-.04-.02,0,0,0,0,.01,0,.06.04.03.01s0,.01.02.02c0,0,.01.01.02.02.02.02-.03-.05-.02-.02.01.02.02.03.03.05,0,0,0,.01.01.02.01.03-.02-.05-.01-.03,0,.02.01.04.02.05,0,.02,0,.03,0,.05,0,0,0-.07,0-.03,0,.01,0,.03,0,.04,0,.02,0,.03,0,.05,0,.04.01-.07,0,0,0,.02,0,.03-.01.05,0,0,0,.02,0,.02-.01.04.03-.05,0-.01,0,.01-.01.03-.02.04-.03.05.03-.03,0,0-.01.01-.03.03-.04.04-.02.02.05-.03.02-.02,0,0-.02.01-.03.02,0,0-.02.01-.02.01.03-.01.03-.01,0,0h-.02s0,0,.01,0c-.06,0,.04,0,0,0-.03,0,0-.02.03.01h-.01s-.01-.01.02.01c0,0-.01-.01-.02-.02-.03-.03.03.04.01.02,0,0,0-.01-.01-.02-.01-.02.02.06,0,.01,0,0,0-.02,0-.02-.01-.04,0,.01,0,.02,0-.02,0-.05,0-.06,0,.06,0,.05,0,.03,0-.01,0-.02.01-.04,0-.02.02-.01-.01.02,0,0,.01-.02.02-.03.01-.03,0,.01-.02.02,0,0,.02-.02.03-.03,0,0,.02-.01.02-.02.01-.01,0,0-.02.01,0,0,.01,0,.02-.01.02-.01.04-.02.06-.04.04-.02,0,0-.01,0,.01,0,.04-.01.05-.02.03,0,.05-.02.08-.02.05-.01.11-.02.17-.03l-.31-.17s0,.02,0,.03c0,.03,0,.02,0-.02,0,0,0,.05,0,.06,0,.02,0,.04,0,.06,0,.01-.01.05,0,.06,0-.04,0-.05,0-.02,0,.01,0,.02,0,.03,0,.02,0,.04-.01.06s-.01.04-.02.06c0,.01,0,.02-.01.03-.01.03,0,.02,0-.01,0,0-.05.1-.06.11-.01.02-.02.04-.04.05-.02.02-.01.02.01-.01,0,0-.01.02-.02.02-.03.03-.06.06-.09.09,0,0-.02.01-.02.02.03-.02.03-.03.01,0-.02.01-.04.02-.05.04h.25s.04.04.01,0c0,0-.02-.02-.03-.03s-.02-.02-.03-.03c-.03-.03.03.04.01.02-.01-.02-.03-.04-.04-.06,0-.01-.01-.02-.02-.03-.02-.04.02.06,0,.01,0-.02-.01-.04-.02-.07,0-.01,0-.02,0-.03,0-.04,0,0,0,.02,0-.05,0-.1,0-.15,0-.04,0,0,0,.02,0-.01,0-.03,0-.04,0-.02.01-.05.02-.07,0-.01,0-.02.01-.04,0-.03-.03.06,0,.02.01-.02.02-.04.04-.07,0-.01.01-.02.02-.03.02-.03-.03.04-.01.02.02-.02.03-.03.05-.05,0,0,.02-.02.03-.02-.05.05-.03.02-.01,0s.04-.03.07-.04l-.13.03s-.06-.01-.04,0c.02,0,0,0-.04-.02.01,0,.03.02,0,0-.02-.02-.02-.02-.01,0l-.03-.04s-.01.02-.01-.03c0,0,0,.02,0,.02,0,0,0-.08,0-.04,0,.06.02-.06,0,0,0,0,0,.01,0,.02,0,.03.03-.06.01-.03,0,0-.01.02-.01.02,0,0,.05-.06.02-.02-.02.02.05-.04.03-.02s.07-.02.03-.01c-.04,0,.07,0,.03,0,.01,0,.07.02.03,0-.12-.04-.28.05-.31.17-.03.14.04.26.17.31.22.08.43-.1.48-.31.02-.11.02-.22-.04-.32-.06-.11-.18-.18-.31-.18-.12,0-.24.09-.32.17-.06.06-.12.14-.16.22-.09.19-.11.38-.08.58.03.22.16.4.34.53.07.05.18.04.25,0,.42-.26.63-.76.53-1.24-.03-.14-.18-.2-.31-.17-.3.05-.62.17-.74.48s.07.69.42.69c.3,0,.56-.25.6-.54s-.04-.57-.28-.74-.55-.14-.79,0c-.27.16-.41.45-.37.76s.3.55.58.64c.3.1.69,0,.85-.29.1-.17.09-.39-.02-.55-.13-.18-.37-.28-.58-.17-.15.08-.23.24-.23.4,0,.17.12.36.3.39.07,0,.13.01.19-.03.05-.03.1-.09.11-.15.03-.12-.04-.29-.17-.31h0Z"/>
        </g>
        <path class="cls-1" d="M181.31,56.64c-2.11-.17-4.23-.38-6.35-.38-1.46,0-2.94.12-4.33.6-3.62,1.25-5.71,4.45-7.34,7.71-.9,1.79-1.84,3.6-2.21,5.59-.28,1.53-.23,3.09.08,4.61.68,3.4,2.74,6.48,6.06,7.74s7.44.78,11.01.4,7.85-.52,11.27-2.24c2.28-1.15,4.38-2.99,5.83-5.08,2.09-3,2.68-6.83,1.44-10.29-.82-2.28-2.34-4.39-4.24-5.91-2.22-1.78-5.09-2.18-7.84-2.46-1.13-.11-2.26-.21-3.39-.3-.32-.03-.32.47,0,.5,3.22.27,6.91.25,9.8,1.89,1.69.96,3.09,2.53,4.1,4.18,1.89,3.08,2.29,6.87.8,10.2-1.04,2.31-2.83,4.18-4.86,5.66-2.83,2.06-6.13,2.58-9.53,2.97-3.8.44-7.78,1.11-11.61.63-1.51-.19-2.99-.63-4.27-1.46-1.57-1.03-2.73-2.59-3.43-4.31-.51-1.26-.81-2.61-.9-3.97-.13-2.06.38-4.01,1.22-5.87,1.54-3.39,3.3-7.12,6.67-9.04,2.65-1.52,5.82-1.33,8.76-1.13,1.08.07,2.17.17,3.25.25.32.03.32-.47,0-.5Z"/>
      </g>
      <g>
        <path class="cls-1" d="M85.85,65.22c8.07-2.7,16.54-4.65,25.01-5.55,10.83-1.15,21.81-.3,32.32,2.56,5.12,1.39,10.11,3.24,14.91,5.5.58.27,1.09-.59.5-.86-9.22-4.33-19.1-7.17-29.24-8.23s-19.56-.25-29.16,1.74c-4.94,1.03-9.83,2.28-14.62,3.88-.61.2-.35,1.17.27.96h0Z"/>
        <path class="cls-1" d="M155.02,62.66c.54.84,1.29,1.48,1.97,2.21s1.17,1.55,1.09,2.53l.37-.48c-1.93.54-3.86,1.08-5.79,1.62-.62.17-.36,1.14.27.96,1.93-.54,3.86-1.08,5.79-1.62.23-.06.35-.26.37-.48.1-1.09-.42-2.09-1.09-2.91s-1.53-1.45-2.1-2.34c-.35-.54-1.21-.04-.86.5h0Z"/>
      </g>
    </g>
  </g>
</svg>