<?xml version="1.0" encoding="UTF-8"?>
<svg id="Layer_2" data-name="Layer 2" xmlns="http://www.w3.org/2000/svg" viewBox="0 0 238.48 109.94">
  <defs>
    <style>
      .cls-1 {
        fill: #231f20;
      }

      .cls-2 {
        fill: #ed1c24;
      }

      .cls-3 {
        fill: #00aeef;
      }
    </style>
  </defs>
  <g id="Layer_1-2" data-name="Layer 1">
    <path class="cls-2" d="M61.26,29.33c-9.6-1.75-19.65-.78-28.79,2.64-5.62,2.1-10.83,5.08-15.47,8.88-6.63,5.41-11.72,12.61-14.77,20.6-1.87,4.9-2.66,10.2-1.99,15.42.61,4.75,2.47,9.03,4.73,13.21,2.04,3.79,4.37,7.4,7.44,10.45,3.89,3.86,8.74,6.57,14.03,7.98,4.86,1.29,9.91,1.52,14.91,1.42,5.1-.1,10.17-.42,15.17-1.45,4.52-.93,9.02-2.32,13.28-4.09,4.93-2.05,9.51-4.89,13.06-8.93,6.58-7.5,9.24-17.61,10.22-27.33.5-5.01.9-10.23-.58-15.11-1.37-4.53-3.87-8.74-7.15-12.15-5.56-5.8-13.17-9.16-20.91-10.9-1.06-.24-2.12-.44-3.19-.64-.63-.12-.9.85-.27.96,6.47,1.19,12.81,3.16,18.32,6.84,7.76,5.17,13.17,13.75,13.22,23.2.03,5.07-.54,10.25-1.57,15.21s-2.52,9.42-4.9,13.66-5.78,8.06-9.94,10.79c-4.57,2.99-9.78,4.8-14.99,6.3-4.07,1.17-8.22,1.95-12.44,2.31-4.87.41-9.87.55-14.75.15-5.15-.42-10.24-1.68-14.74-4.27s-8.07-6.3-10.86-10.59c-.95-1.47-1.8-2.99-2.62-4.53-.99-1.83-1.94-3.68-2.69-5.63-1.96-5.07-2.52-10.57-1.55-15.92.75-4.1,2.33-7.95,4.29-11.61,2.24-4.19,4.96-8.02,8.32-11.38,3.88-3.87,8.39-7.07,13.28-9.53,8.86-4.45,18.88-6.44,28.77-5.62,1.63.13,3.24.34,4.85.64.63.11.9-.85.27-.96Z"/>
    <path class="cls-3" d="M181.62,26.02c-7.19,1.23-14.21,3.71-20.36,7.66-8.79,5.65-15.49,14.35-18.36,24.43-1.33,4.67-1.81,9.6-1.15,14.41s2.69,9.61,5.68,13.69c2.38,3.25,5.2,6.14,8.13,8.9,3.63,3.43,7.68,6.4,12.21,8.53,5.52,2.61,11.54,3.94,17.62,4.23,4.94.23,9.87-.23,14.76-.95,5.27-.78,10.65-1.5,15.62-3.52s9.39-5.06,13-8.95c4.93-5.3,8.42-12.16,9.41-19.36.71-5.2.07-10.45-1.5-15.44-1.05-3.31-2.44-6.53-3.91-9.67-1.62-3.49-3.58-6.81-6-9.8-3.19-3.94-7.15-7.22-11.59-9.66-9.05-4.98-19.64-6.33-29.8-5.08-1.26.16-2.51.35-3.75.56-.63.11-.36,1.07.27.96,8.2-1.4,16.63-1.4,24.65,1.01,5.45,1.64,10.61,4.36,14.91,8.11,3.24,2.82,5.95,6.19,8.12,9.89,1.62,2.76,2.91,5.69,4.16,8.63,1.69,3.98,3.07,8.11,3.55,12.42.88,7.79-1.24,15.47-5.51,21.97-2.47,3.76-5.63,7.05-9.32,9.62-4.65,3.25-9.88,5.13-15.43,6.16-9.98,1.86-20.38,3.22-30.4.87-5.66-1.33-10.98-3.81-15.64-7.28-2.99-2.22-5.7-4.83-8.28-7.51-3.42-3.55-6.58-7.57-8.36-12.22-1.67-4.35-2.17-9.07-1.73-13.69.94-10.02,6.12-19.52,13.57-26.2,6.38-5.72,14.4-9.4,22.72-11.23.99-.22,1.99-.41,2.99-.58.63-.11.36-1.07-.27-.96Z"/>
    <g>
      <path class="cls-1" d="M116.39,19.53c1.71-.24,3.34-1,4.97-1.58,1.53-.54,3.07-1.08,4.56-1.73.59-.25.08-1.12-.5-.86-1.47.63-2.99,1.15-4.49,1.69s-3.14,1.29-4.8,1.52c-.63.09-.36,1.05.27.96h0Z"/>
      <path class="cls-1" d="M120.78,17.56c-.41,3.37-.76,6.74-1.05,10.12h1c0-.12.02-.24.03-.37.05-.64-.95-.64-1,0,0,.12-.02.24-.03.37-.05.64.94.64,1,0,.29-3.38.64-6.75,1.05-10.12.08-.64-.92-.63-1,0h0Z"/>
    </g>
    <path class="cls-2" d="M27,6.34c1.8,7.85,4.4,15.49,7.74,22.81.23.5.89.19.93-.25.33-3.54,1.35-6.96,2.57-10.29s2.68-6.8,4.05-10.19c.24-.6-.73-.86-.96-.27-2.7,6.69-5.97,13.48-6.65,20.75l.93-.25c-3.31-7.24-5.86-14.81-7.64-22.58-.14-.63-1.11-.36-.96.27h0Z"/>
    <path class="cls-3" d="M179.54.63c1.15,7.55,3.5,14.89,6.92,21.71.16.32.7.33.86,0,1.5-3.11,3-6.23,4.5-9.34.36-.75.72-1.5,1.08-2.25.11-.23.24-.63.5-.74.37-.16.63.33.79.61.78,1.44,1.33,3.06,1.98,4.57.32.75.64,1.49.96,2.24.23.54.48,1.1.93,1.5.89.8,1.99.37,2.65-.48.42-.54.72-1.16,1.05-1.75.42-.74.85-1.48,1.29-2.22.8-1.34,1.62-2.66,2.46-3.96.97-1.5,1.98-2.98,3.01-4.44.54-.76,1.09-1.52,1.65-2.26.48-.64,1.01-1.66,1.73-2.02.58-.29.07-1.15-.5-.86s-.92.83-1.31,1.35c-.49.65-.98,1.3-1.47,1.96-.96,1.32-1.9,2.66-2.81,4.01-1.82,2.71-3.54,5.49-5.14,8.34-.3.54-.62,1.35-1.2,1.66-.68.37-1.08-.48-1.31-.97-.7-1.52-1.33-3.09-1.99-4.63-.33-.77-.64-1.56-1-2.32-.24-.52-.6-1.08-1.16-1.3-1.37-.54-1.96,1.18-2.41,2.09-1.72,3.56-3.43,7.13-5.15,10.69h.86c-3.39-6.75-5.68-14.01-6.82-21.47-.1-.63-1.06-.36-.96.27h0Z"/>
    <g>
      <path class="cls-1" d="M90.12,43.35c5.97-5.04,13.22-8.68,20.92-10.31,3.81-.8,7.72-1.22,11.62-1.07,2.78.1,5.54.51,8.21,1.28,1.2.35,2.37.81,3.53,1.27,4.83,1.88,9.67,3.64,13.93,6.65,1.05.75,2.05-.99,1.01-1.73-4.02-2.85-8.53-4.54-13.08-6.33-1.38-.54-2.75-1.1-4.16-1.57-2.41-.8-4.96-1.22-7.48-1.44-8.95-.79-18.32,1.27-26.28,5.37-3.45,1.78-6.68,3.97-9.65,6.47-.98.83.44,2.24,1.41,1.41h0Z"/>
      <path class="cls-1" d="M144.65,31.86c.91,2.47,1.75,5.03,2.95,7.38.06.12.13.39.22.46.15.12-.09,0,.07-.05-.14.04-.28.11-.42.15-.87.28-1.74.54-2.62.77-1.83.48-3.69.84-5.56,1.1-1.11.15-.85,2.05.27,1.96.21-.02.42-.03.63-.05.54-.04,1-.43,1-1,0-.51-.46-1.04-1-1-.21.02-.42.03-.63.05l.27,1.96c2.08-.29,4.15-.71,6.17-1.27.92-.25,1.9-.47,2.76-.88.92-.44,1.28-1.4.97-2.35-.15-.48-.44-.93-.65-1.39-.22-.48-.39-.88-.58-1.36-.67-1.66-1.3-3.34-1.92-5.02-.19-.51-.68-.85-1.23-.7-.49.13-.89.72-.7,1.23h0Z"/>
    </g>
    <g>
      <path class="cls-1" d="M113.36,34.92c-.52.44-.82,1.04-1.03,1.67-.24.71-.46,1.46-.64,2.19-.3,1.21-.17,2.86,1.24,3.28.31.09.44-.39.13-.48-1.34-.41-1.05-2.14-.76-3.14.32-1.08.51-2.4,1.41-3.17.25-.21-.11-.56-.35-.35h0Z"/>
      <path class="cls-1" d="M114.33,36.28c-.11,1.43-.19,2.85-.22,4.28,0,.32.49.32.5,0,.03-1.43.11-2.86.22-4.28.03-.32-.47-.32-.5,0h0Z"/>
      <path class="cls-1" d="M116.46,40.32c-.02-.68.08-1.34.28-1.99.1-.31-.39-.44-.48-.13-.22.68-.32,1.41-.3,2.12,0,.32.51.32.5,0h0Z"/>
      <path class="cls-1" d="M116.64,36.45h-.04c-.32,0-.32.5,0,.5h.04c.32,0,.32-.5,0-.5h-.04c-.32,0-.32.5,0,.5h.04c.32,0,.32-.5,0-.5h0Z"/>
      <path class="cls-1" d="M117.35,37.48c-.03,1.01.1,2.03.38,3,.07.26.51.22.49-.07-.04-.55.04-1.05.18-1.58.08-.29.13-.74.38-.94.12-.09.34-.16.48-.09.13.07.15.28.17.41.05.36.03.73,0,1.09-.03.32-.06.6-.11.9-.02.13.03.27.17.31.12.03.29-.04.31-.17.12-.75.24-1.58.09-2.34-.05-.23-.15-.46-.34-.6-.23-.16-.54-.15-.79-.06-.46.17-.64.58-.76,1.02-.18.67-.33,1.34-.28,2.05l.49-.07c-.27-.93-.39-1.9-.36-2.87,0-.32-.49-.32-.5,0h0Z"/>
      <path class="cls-1" d="M121.02,39.31c.52-.12.97-.42,1.27-.86s.5-1.2-.08-1.54c-.61-.36-1.33.34-1.58.85-.3.61-.26,1.33,0,1.95.28.64.89,1.14,1.63.97.31-.07.18-.55-.13-.48-.43.1-.79-.21-.98-.57-.22-.4-.3-.91-.18-1.36.06-.23.18-.44.34-.61.13-.14.35-.36.56-.34.17.01.23.2.21.35-.02.19-.12.37-.22.52-.02.03-.05.07-.07.1-.03.04.03-.03,0,0-.1.12-.21.22-.33.31-.18.11-.37.19-.57.23-.31.07-.18.55.13.48h0Z"/>
      <path class="cls-1" d="M125,37.53c-.12.89-.24,1.78-.36,2.68l.49.07c0-.36-.03-.73-.07-1.09-.06-.49-.12-1.09-.42-1.51-.17-.24-.48-.41-.78-.37-.28.03-.5.23-.67.44-.43.53-.68,1.23-.38,1.89.36.8,1.34,1.12,2.14.87.31-.09.18-.58-.13-.48-.54.16-1.19,0-1.5-.5-.15-.25-.18-.54-.1-.82.04-.12.09-.24.15-.35.02-.04.05-.08.08-.13.01-.02.03-.04.05-.07,0,0,.06-.09.03-.04.11-.14.23-.28.4-.33,0,0,.02,0,.02,0,.04,0-.06-.02.01,0,.07.02.14.04.19.08.02.02.04.03.06.05.04.04-.03-.04,0,.01.02.02.03.05.05.07.09.15.14.34.19.54.05.23.09.46.11.67.04.35.06.7.07,1.04,0,.12.09.23.22.25.11.01.26-.05.27-.18.12-.89.24-1.78.36-2.68.02-.13-.03-.27-.17-.31-.12-.03-.29.04-.31.17h0Z"/>
      <path class="cls-1" d="M126.13,37.62c.05.7.11,1.41.17,2.11.02.25.02.51.08.76.05.21.34.3.47.09.07-.12.04-.31.04-.43.01-.57.07-1.15.27-1.68.06-.15.14-.3.23-.43.05-.06.1-.13.17-.17.02-.01.03-.02.05-.03-.02.01,0,0,0,0,0,0,.04,0,0,0-.04,0,0,0,0,0,0,0,.02,0,.03.01.01,0,.03.02.05.04.04.04.08.09.11.15.06.11.07.12.1.23.1.31.58.18.48-.13-.08-.26-.22-.54-.45-.7-.37-.25-.74.02-.97.32-.43.59-.54,1.39-.58,2.1,0,.14-.01.27-.01.41,0,.04,0,.09,0,.13,0,.07,0,.03,0,0l.06-.11h0c.08-.02.16-.04.24-.06h0s.07.04.11.06c.02.01.08.16.06.07-.02-.06,0,.07,0,.02,0-.02,0-.04,0-.06-.02-.15-.03-.29-.04-.44-.07-.75-.12-1.5-.18-2.24-.02-.32-.52-.32-.5,0h0Z"/>
      <path class="cls-1" d="M128.99,36.19c-.18.89-.25,1.8-.22,2.71,0,.22.27.32.43.18.04-.03.08-.07.11-.1.24-.22-.12-.57-.35-.35-.04.03-.08.07-.11.1l.43.18c-.03-.86.04-1.73.2-2.58.03-.13-.04-.27-.17-.31-.12-.03-.28.04-.31.17h0Z"/>
      <path class="cls-1" d="M129.09,39.85h0s.1.08.15.11h0c0,.06.02.13.03.19h0s-.04.07-.06.11c0,0,0,0,0,0l-.05.04h0s-.08.02-.13.03h0s-.04,0-.07,0h0s-.1-.07-.15-.11h0s-.02-.08-.03-.12h0s0-.04,0-.06h0s.04-.07.06-.1c0,0,0,0-.01.01l.05-.04h0s.04-.01.06-.02c0,0-.01,0-.02,0h.07s-.02,0-.03-.01h.07s-.02,0-.03,0l.06.03s-.02-.01-.04-.02l.05.04s-.02-.02-.03-.03l.04.05s-.02-.02-.02-.04l.03.06s0-.02,0-.03v.07s0-.03,0-.04v.07s0-.02,0-.03l-.03.06s.01-.02.02-.03l-.04.05s.02-.02.03-.03l-.05.04s.02-.01.03-.02l-.06.03s.03,0,.05-.01h-.07s.03,0,.04,0h-.07s.02,0,.04,0l-.06-.03s.02,0,.03.02l-.05-.04s.02.02.03.03l-.04-.05s.01.02.02.03l-.03-.06s.01.03.01.05v-.07s0,.04,0,.06v-.07s0,.04,0,.06l.03-.06s-.03.05-.04.07l.04-.05s-.06.06-.09.09l.05-.04s-.05.04-.08.06c-.07.05-.11.1-.12.18,0,.07,0,.16.07.21.02.01.03.03.05.05l-.04-.05s.03.04.04.07l-.03-.06s.02.06.02.09v-.07s0,.05,0,.08v-.07s0,.05-.01.07l.31-.17s-.03,0-.04-.01l.06.03s-.05-.02-.07-.04l.05.04s-.04-.04-.06-.06l.04.05s-.04-.06-.05-.09l.03.06s-.03-.08-.03-.12v.07s0-.08,0-.12v.07s0-.07.02-.1l-.03.06s.03-.05.05-.08l-.04.05s.03-.04.05-.05l-.05.04s.02-.02.04-.02c.11-.07.16-.23.09-.34s-.22-.16-.34-.09c-.45.26-.35,1.02.15,1.16.06.02.14,0,.19-.03.06-.04.09-.09.11-.15.08-.2,0-.46-.15-.59l-.05.39c.15-.1.3-.22.34-.41.05-.22-.05-.47-.28-.52s-.49.11-.5.36.24.48.48.41c.1-.03.18-.1.21-.2.04-.14-.05-.28-.18-.32-.13-.04-.26.04-.31.16-.06.14.02.31.17.35.13.03.28-.04.31-.17s-.04-.27-.17-.31h0Z"/>
      <path class="cls-1" d="M130.02,35.42c.34,1.02.52,2.08.51,3.15,0,.52-.04,1.04-.14,1.55-.05.23-.11.45-.2.66-.04.09-.26.55-.39.51-.31-.1-.44.38-.13.48.49.16.85-.49,1-.85.23-.54.3-1.14.34-1.72.09-1.32-.08-2.65-.5-3.91-.1-.3-.58-.17-.48.13h0Z"/>
    </g>
    <g>
      <g>
        <g>
          <path class="cls-1" d="M34.01,53.93c-.84-.41-1.85-.36-2.61.21-.64.48-1.18,1.35-1.05,2.18.17,1.1,1.48.98,2.31.94.48-.02.98-.02,1.41.23s.61.68.47,1.15c-.35,1.21-2.05,1.33-3.08,1.43-.32.03-.32.53,0,.5.93-.09,2.03-.19,2.81-.75.66-.48,1.07-1.39.66-2.16s-1.36-.94-2.15-.91c-.5.02-1.17.15-1.63-.09s-.3-.9-.12-1.28c.49-1.03,1.7-1.52,2.75-1.02.29.14.54-.29.25-.43h0Z"/>
          <path class="cls-1" d="M36.23,55.72c-.61.51-.8,1.35-.77,2.12.01.37.07.73.17,1.09s.25.8.63.95c.41.17.83-.07,1.14-.32.35-.28.62-.64.79-1.06.14-.35.2-.72.22-1.09s.04-.73-.02-1.1c-.07-.44-.31-.87-.77-1-.5-.14-1.02.11-1.41.41-.25.2.1.55.35.35s.63-.38.95-.27c.28.1.36.42.39.68.07.52.03,1.14-.12,1.64-.1.35-.28.66-.54.91-.18.17-.5.47-.77.4-.25-.06-.33-.46-.39-.68-.07-.27-.12-.55-.14-.84-.04-.67.08-1.39.62-1.84.25-.21-.11-.56-.35-.35Z"/>
          <path class="cls-1" d="M39.2,55.92c-.02,1.32.15,2.64.49,3.92.08.32.54.18.48-.13-.09-.5-.14-1.01-.15-1.51,0-.44-.02-.92.09-1.35.04-.17.11-.34.25-.45.1-.08.15-.07.21.05.05.1.08.2.11.31.16.47.26.96.31,1.45.02.26.43.36.49.07.1-.53.27-1.05.53-1.52.16-.28.34-.55.56-.79.11-.12.22-.24.34-.34.03-.03.07-.06.1-.08.05-.02.04-.03-.01-.04,0,.03,0,0,0-.01,0,.03.05.12.06.16.02.09.02.18.03.27.01.26,0,.52-.03.78-.06.69-.18,1.38-.31,2.06-.06.31.42.45.48.13.12-.65.23-1.29.3-1.95.05-.46.11-.96,0-1.42-.08-.38-.39-.64-.77-.41-.26.16-.48.41-.67.64s-.37.48-.51.74c-.28.51-.47,1.07-.58,1.64l.49.07c-.06-.65-.2-1.29-.44-1.89-.1-.24-.24-.47-.53-.49-.27-.01-.51.17-.66.38-.33.45-.33,1.08-.34,1.61-.01.68.05,1.36.17,2.03l.48-.13c-.33-1.24-.49-2.51-.47-3.79,0-.32-.5-.32-.5,0h0Z"/>
          <path class="cls-1" d="M44.86,57.58c.57-.22,1.26-.5,1.47-1.14.16-.5-.09-1.19-.64-1.31-.63-.14-1.01.49-1.11,1.02-.14.73-.1,1.56.17,2.25s.83,1.3,1.57,1.51c.31.09.44-.4.13-.48-.61-.17-1.06-.68-1.26-1.27-.13-.36-.18-.74-.18-1.12,0-.32,0-.65.09-.95.06-.19.18-.48.42-.48.21,0,.32.25.34.42.08.61-.69.89-1.14,1.06-.3.11-.17.6.13.48h0Z"/>
          <path class="cls-1" d="M52.1,51.66c-.1,2.49,0,4.99.31,7.47.04.32.54.32.5,0-.3-2.48-.41-4.97-.31-7.47.01-.32-.49-.32-.5,0h0Z"/>
          <path class="cls-1" d="M55.13,58.68l.31-4.24c.02-.32-.48-.32-.5,0l-.31,4.24c-.02.32.48.32.5,0h0Z"/>
          <path class="cls-1" d="M56.51,54.45l.03,3.75c0,.33.46.31.5,0,.16-1.26.35-2.68,1.21-3.68.05-.06.1-.12.16-.17.03-.03.06-.06.1-.09-.03-.08-.02-.08,0-.01.05.17.08.35.11.53.07.39.09.78.09,1.17,0,.8-.14,1.59-.4,2.34-.1.31.38.44.48.13.24-.69.38-1.42.41-2.15.02-.38,0-.75-.04-1.12-.04-.35-.08-.73-.19-1.06-.1-.29-.37-.46-.66-.31-.26.14-.47.44-.64.67-.36.49-.59,1.07-.75,1.65-.19.69-.29,1.4-.38,2.11h.5l-.03-3.75c0-.32-.5-.32-.5,0h0Z"/>
          <path class="cls-1" d="M60.67,56.73c.89.11,2.35-.19,2.48-1.29.05-.47-.21-.92-.52-1.25-.29-.3-.72-.58-1.15-.53-.71.08-1,1.03-1.12,1.61-.16.81-.17,1.74.19,2.51.46.97,1.7,1.28,2.65.91.3-.12.17-.6-.13-.48-.65.25-1.54.17-1.96-.46-.35-.52-.38-1.25-.33-1.86.04-.53.16-1.26.57-1.64s1.14.4,1.28.81c.13.38-.08.68-.39.88-.46.29-1.02.33-1.55.27-.32-.04-.32.46,0,.5h0Z"/>
          <path class="cls-1" d="M66.77,55.13v2.96c.17-.02.33-.04.5-.07-.11-.75-.39-1.48-.8-2.13-.35-.55-.89-1.31-1.62-1.31-.38,0-.63.26-.74.61-.13.39-.21.81-.23,1.22-.03.75.29,1.45.91,1.9.69.5,1.65.49,2.35.04.27-.17.02-.6-.25-.43-.5.32-1.14.36-1.66.07-.49-.27-.81-.78-.84-1.34-.02-.33.04-.66.12-.99.05-.21.09-.6.38-.58.24.01.47.2.63.37.21.23.4.48.57.74.37.6.61,1.26.72,1.96.04.28.49.21.49-.07v-2.96c0-.32-.5-.32-.5,0h0Z"/>
          <path class="cls-1" d="M68.34,53.46c-.05,1.61.05,3.21.29,4.8.04.29.48.2.49-.07.02-.49.04-.97.05-1.46.02-.41,0-.83.08-1.23.06-.33.17-.71.48-.9.22-.14.61-.21.8.03s.63,0,.43-.25c-.58-.76-1.68-.33-2.02.43-.21.46-.22.97-.24,1.46-.02.64-.05,1.27-.07,1.91l.49-.07c-.24-1.54-.33-3.1-.27-4.66.01-.32-.49-.32-.5,0h0Z"/>
          <path class="cls-1" d="M72.13,51.57l-.15,6.66c0,.29.41.33.49.07.04-.14.09-.28.13-.42.1-.31-.38-.44-.48-.13-.04.14-.09.28-.13.42l.49.07.15-6.66c0-.32-.49-.32-.5,0h0Z"/>
          <path class="cls-1" d="M74.17,54.98c-.17.75-.19,1.52-.02,2.26.13.56.41,1.28,1.1,1.29.55,0,.73-.5.92-.92.3-.63.64-1.25.98-1.86l-.47-.13c-.08,1.43-.55,2.73-1.33,3.94-.32.5-.71,1.02-1.26,1.28-.64.3-1.34.14-1.93-.21-.28-.17-.53.27-.25.43.63.37,1.38.57,2.09.35s1.19-.74,1.59-1.31c.94-1.33,1.49-2.84,1.58-4.47.01-.25-.35-.34-.47-.13-.27.48-.53.97-.78,1.46-.15.29-.25.67-.45.93-.21.28-.5.1-.65-.13s-.2-.53-.25-.8c-.12-.61-.09-1.23.05-1.84.07-.31-.41-.45-.48-.13h0Z"/>
          <path class="cls-1" d="M35.2,68.77c-.31,2.33-.34,4.69-.1,7.03.03.32.53.32.5,0-.24-2.34-.2-4.7.1-7.03.04-.32-.46-.31-.5,0h0Z"/>
          <path class="cls-1" d="M36.02,68.65c.06-.25.44-.25.64-.1.16.12.25.32.32.5.08.23.15.46.2.7.05.22.07.47-.04.68-.08.14-.2.24-.34.31-.33.17-.73.2-1.09.21-.32.01-.32.51,0,.5.75-.03,1.78-.19,1.98-1.07.11-.49-.07-1.05-.24-1.5-.15-.39-.41-.8-.85-.9s-.94.08-1.05.54c-.08.31.41.45.48.13h0Z"/>
          <path class="cls-1" d="M38.85,70.03c.66-.11,1.31-.53,1.52-1.19.18-.57-.05-1.3-.6-1.57-.33-.16-.74-.15-.99.14-.22.26-.22.63-.2.95.07.8.27,1.58.61,2.31.2.44.95,1.99,1.58,1.18.2-.25-.24-.5-.43-.25.05-.03.05-.04,0-.05-.03-.02-.06-.04-.09-.06-.06-.06-.11-.13-.15-.2-.09-.14-.18-.29-.26-.44-.17-.3-.31-.62-.42-.94-.12-.35-.21-.7-.27-1.06-.05-.29-.12-.64-.06-.93.07-.32.39-.29.59-.1.19.17.27.45.25.7-.05.61-.67.95-1.21,1.04-.32.05-.18.54.13.48h0Z"/>
          <path class="cls-1" d="M41.15,67.91c.18,1.18.27,2.38.27,3.57,0,.32.49.32.5,0,.01-.58.09-1.15.25-1.71.05-.18.4-1.45.65-1.35.07.03.11.19.13.25.04.14.07.29.11.43.07.29.12.59.17.89.09.61.11,1.24.09,1.85,0,.32.49.32.5,0,.02-.75-.03-1.51-.15-2.25-.06-.36-.13-.73-.24-1.09-.09-.27-.25-.56-.56-.6s-.55.19-.68.44c-.17.3-.29.64-.4.97-.23.69-.34,1.42-.36,2.15h.5c0-1.24-.1-2.48-.29-3.7-.05-.32-.53-.18-.48.13h0Z"/>
          <path class="cls-1" d="M47.37,66.75c.17,1.71.18,3.43.02,5.14l.47-.13c-.45-.6-.91-1.21-1.52-1.66-.27-.2-.62-.4-.97-.33-.29.06-.5.28-.55.57-.11.62.38,1.29.8,1.68.49.45,1.22.67,1.82.3.27-.17.02-.6-.25-.43-.44.27-.94.06-1.27-.28-.27-.27-.65-.73-.61-1.14.05-.57.94.18,1.11.34.39.36.71.78,1.02,1.21.15.2.44.13.47-.13.16-1.71.15-3.43-.02-5.14-.03-.32-.53-.32-.5,0h0Z"/>
          <path class="cls-1" d="M49.46,70.29c.42-.07.73-.36.99-.67s.54-.66.63-1.07c.08-.37,0-.76-.28-1.04s-.65-.37-.99-.19c-.31.17-.48.51-.56.84-.12.44-.17.9-.17,1.36s.05.94.15,1.39c.09.4.22.85.46,1.19s.6.59,1.03.51c.36-.07.67-.36.66-.74,0-.32-.51-.32-.5,0,0,.28-.38.3-.56.18-.29-.19-.41-.59-.51-.9-.24-.79-.31-1.65-.16-2.47.05-.28.1-.69.34-.88.28-.22.57.12.61.39.05.36-.22.72-.44.98-.23.28-.48.57-.85.63-.32.05-.18.53.13.48h0Z"/>
          <path class="cls-1" d="M51.71,67.71c.29,1.29.48,2.59.57,3.91h.5c-.07-.6-.06-1.2.05-1.79.05-.28.12-.56.21-.83.04-.12.13-.56.3-.58.15-.03.24.45.27.54.08.29.14.58.18.88.07.59.07,1.2-.03,1.79-.05.31.43.45.48.13.12-.74.12-1.47,0-2.21-.06-.36-.14-.72-.26-1.07-.1-.28-.29-.56-.62-.57-.65-.02-.84.99-.95,1.45-.17.74-.22,1.5-.13,2.25.04.31.52.33.5,0-.1-1.36-.29-2.71-.59-4.04-.07-.31-.55-.18-.48.13h0Z"/>
          <path class="cls-1" d="M54.48,68.09c.67-.21,1.36-.28,2.05-.2.13.02.25-.13.25-.25,0-.15-.12-.23-.25-.25-.73-.08-1.48,0-2.19.22-.31.1-.18.58.13.48h0Z"/>
          <path class="cls-1" d="M55.38,65.85c-.12,2-.15,4.01-.1,6.02,0,.32.51.32.5,0-.06-2.01-.02-4.02.1-6.02.02-.32-.48-.32-.5,0h0Z"/>
          <path class="cls-1" d="M59.94,66.8c.61,1.75,1.38,3.45,2.31,5.05.14.24.44.1.47-.13.23-1.71.67-3.38,1.29-4.99.12-.3-.37-.43-.48-.13-.64,1.65-1.08,3.37-1.31,5.12l.47-.13c-.91-1.57-1.67-3.22-2.26-4.93-.1-.3-.59-.17-.48.13h0Z"/>
          <path class="cls-1" d="M64.59,70.2c.6.21,1.35.02,1.67-.56.29-.54.16-1.28-.43-1.55s-1.24.03-1.43.65c-.1.35-.12.75-.13,1.11-.01.39.02.8.14,1.18.21.69.72,1.3,1.43,1.49.31.08.44-.4.13-.48-.57-.15-.95-.66-1.1-1.21-.1-.36-.11-.74-.09-1.12.02-.31.02-.68.16-.96.11-.22.35-.31.59-.24s.39.28.39.53c0,.63-.67.87-1.19.69-.3-.11-.44.38-.13.48h0Z"/>
          <path class="cls-1" d="M68.2,68.84c-.36.36-.66.77-.89,1.21s-.44.96-.33,1.47c.21.97,1.35.96,2.12.84.13-.02.21-.19.17-.31-.04-.14-.17-.2-.31-.17-.51.08-1.46.15-1.51-.58-.03-.4.18-.8.37-1.14.2-.36.45-.69.74-.98.23-.23-.12-.58-.35-.35h0Z"/>
          <path class="cls-1" d="M74.07,72.45c.24-.9.34-1.83.32-2.75,0-.32-.51-.32-.5,0,.02.88-.07,1.77-.3,2.62-.08.31.4.44.48.13h0Z"/>
          <path class="cls-1" d="M73.58,68.05s-.01.08-.02.13c0,.02,0,.04,0,.06,0,.03,0,.06.01.09,0,0,0,0,0,.01,0,.02.02.05.03.07,0,0,0,.02.01.02.02.02.03.05.06.07.02.02.04.04.07.05,0,0,.05.02.07.03,0,0,0,0,0,0h.07s0,0,0,0c.03,0,.06,0,.08-.01,0,0,0,0,0,0,.02,0,.04-.02.06-.03,0,0,0,0,0,0,.03-.02.06-.04.08-.06.02-.02.04-.04.05-.07,0,0,0,0,0,0,0-.02.02-.04.03-.07.02-.07.01-.16-.03-.22,0,0,0,0,0,0,0,0,0,0,0,0l-.04-.05s-.04-.03-.06-.04c0,0,0,0,0,0-.01,0-.05-.02-.06-.03,0,0,0,0,0,0-.03-.01-.07-.01-.1,0-.03,0-.06.01-.09.03-.03.02-.05.04-.07.06-.02.02-.04.05-.04.09v.07s0,.09.03.13l.04.05s.07.05.11.06c0,0,0,0,0,0l-.06-.03s0,0,0,0l-.05-.04s0,0,0,0l-.04-.05s0,0,0,0l-.03-.06s0,0,0,0v-.07s0,0,0,.01v-.07s0,.01,0,.02l.03-.06s0,.02-.01.02l.04-.05s-.01.01-.02.02l.05-.04s-.01,0-.02.01l.06-.03s-.01,0-.02,0h.07s0,0-.01,0h.07s0,0-.01,0l.06.03s-.01,0-.02,0l.05.04s-.01-.01-.02-.02l.04.05s-.01-.02-.02-.03l.03.06s0-.03-.01-.04v.07s0-.07.01-.1v.07s0-.02,0-.02c.01-.03.01-.07,0-.1,0-.03-.01-.06-.03-.09-.02-.03-.04-.05-.06-.07-.02-.02-.05-.04-.09-.04h-.07s-.09,0-.13.03l-.05.04s-.05.07-.06.11h0Z"/>
          <path class="cls-1" d="M75.66,70.44c.58-.22,1.04-.65,1.28-1.22.1-.25.15-.52.06-.78s-.35-.45-.64-.4c-.31.06-.51.35-.64.61-.15.3-.25.61-.3.94-.1.65-.03,1.34.26,1.94.14.3.38.58.71.68.3.09.67.02.88-.24.08-.11.1-.25,0-.35-.09-.09-.27-.11-.35,0-.14.18-.38.16-.55.02-.2-.17-.3-.44-.38-.68-.17-.56-.15-1.16.03-1.72.06-.19.18-.6.39-.69.17-.07.14.24.12.33-.11.49-.55.91-1.01,1.09-.3.11-.17.6.13.48h0Z"/>
          <path class="cls-1" d="M79.9,68.77c-.5.04-1.05.17-1.38.58-.28.35-.36.89-.09,1.26.16.22.4.33.65.4.15.04.49.09.53.28.04.17-.35.33-.46.38-.25.12-.54.21-.82.24-.13.02-.25.1-.25.25,0,.12.12.27.25.25.53-.07,1.15-.24,1.56-.62.19-.17.28-.43.19-.68s-.32-.41-.56-.5c-.21-.08-.51-.08-.67-.26-.11-.13-.11-.32-.07-.47.13-.46.69-.59,1.1-.62.32-.02.32-.52,0-.5h0Z"/>
          <path class="cls-1" d="M70,67.91c.06,1.43-.02,2.86-.24,4.28-.05.31.43.45.48.13.22-1.46.31-2.93.25-4.41-.01-.32-.51-.32-.5,0h0Z"/>
          <path class="cls-1" d="M71.11,70.21c.45-.51,1.02-.85,1.68-.99.13-.03.21-.18.17-.31-.04-.14-.18-.2-.31-.17-.73.16-1.41.56-1.9,1.12-.09.1-.1.25,0,.35.09.09.26.1.35,0h0Z"/>
          <path class="cls-1" d="M70.51,70.03l1.55,2.68c.16.28.59.03.43-.25l-1.55-2.68c-.16-.28-.59-.03-.43.25h0Z"/>
          <path class="cls-1" d="M26.71,72.85l-.94-7.26-.25.25c1.82.19,3.12,1.56,3.52,3.3.2.88.1,1.73-.49,2.43-.52.61-1.23,1.02-1.95,1.33-.29.13-.04.56.25.43.84-.36,1.65-.86,2.21-1.6.61-.81.69-1.76.47-2.72-.45-1.97-1.97-3.45-4.01-3.66-.12-.01-.27.13-.25.25l.94,7.26c.04.31.54.32.5,0h0Z"/>
          <path class="cls-1" d="M29.94,66.26c.12,2.19.28,4.39.48,6.58.02.21.26.33.43.18.77-.72,1.76-1.09,2.81-1.08.32,0,.32-.5,0-.5-1.18-.01-2.3.42-3.16,1.23l.43.18c-.2-2.19-.37-4.38-.48-6.58-.02-.32-.52-.32-.5,0h0Z"/>
          <path class="cls-1" d="M30.65,68.76l1.22-.36c.13-.04.22-.18.17-.31s-.17-.21-.31-.17l-1.22.36c-.13.04-.22.18-.17.31s.17.21.31.17h0Z"/>
          <path class="cls-1" d="M30.42,66.55l2.85-1.32c.12-.06.15-.23.09-.34-.07-.13-.22-.15-.34-.09l-2.85,1.32c-.12.06-.15.23-.09.34.07.13.22.15.34.09h0Z"/>
        </g>
        <path class="cls-1" d="M49.38,47.38c-3.78.09-7.56.24-11.32.65-2.14.23-4.3.53-6.37,1.13-3.44,1-5.97,3.28-7.91,6.31-1.37,2.13-2.34,4.54-2.86,7.02s-.77,4.83-.45,7.24c.45,3.35,2.21,6.32,5.3,7.86s6.27,1.52,9.47,1.75c7.57.55,15.15,1.15,22.74,1.28,4.89.09,9.95.07,14.73-1.11,3.3-.82,6.18-2.33,8.28-5.05,1.82-2.35,3.18-5.13,3.57-8.1.43-3.27-.47-6.5-2.31-9.22-1.47-2.18-3.43-4-5.56-5.53-1.39-.99-2.88-1.92-4.46-2.59-2.15-.9-4.46-1.31-6.77-1.53-3.27-.31-6.56-.29-9.84-.24-2.08.03-4.17.08-6.25.12-.32,0-.32.51,0,.5,3.79-.09,7.59-.2,11.38-.13,2.67.05,5.37.17,7.98.72,3.83.81,7.3,2.92,10.16,5.56,2.11,1.95,3.91,4.34,4.75,7.12,1.03,3.39.42,6.98-1.19,10.08-.91,1.75-2.09,3.48-3.59,4.78-1.17,1.02-2.57,1.76-4.02,2.3-4.01,1.49-8.45,1.72-12.69,1.79-6.59.12-13.19-.33-19.76-.77-3.81-.26-7.65-.41-11.44-.85-3.3-.38-6.64-1.56-8.5-4.49-1.67-2.63-1.84-5.92-1.48-8.94.23-1.91.66-3.8,1.34-5.6,1.41-3.73,4.05-7.64,7.85-9.25,1.48-.63,3.07-.97,4.64-1.24,2.83-.49,5.7-.7,8.56-.86,2-.11,4-.18,6-.23.32,0,.32-.51,0-.5Z"/>
      </g>
      <g>
        <g>
          <path class="cls-1" d="M169.55,57.84c2.03-.58,4.47-.55,5.98,1.14,1.43,1.6,1.03,4.02-.97,4.88-1.01.44-2.11.74-3.16,1.09-.49.16-1.67.27-1.58,1,.04.31.31.52.51.73.35.35.65.74.89,1.17.52.92.74,1.96.68,3.01-.02.32.48.32.5,0,.09-1.52-.4-3.02-1.39-4.18-.15-.17-.31-.32-.47-.48-.25-.27-.21-.32.08-.46.46-.22,1-.33,1.48-.5.88-.3,1.79-.55,2.65-.92,1.3-.56,2.13-1.67,2.14-3.11s-.81-2.63-1.96-3.38c-1.65-1.07-3.7-1-5.52-.48-.31.09-.18.57.13.48h0Z"/>
          <path class="cls-1" d="M172.76,74.09s-.02-.07-.02-.11c0-.05,0,.06,0,0,0-.02,0-.03,0-.05,0-.03,0-.07,0-.1,0-.02,0-.04,0-.06,0-.02.02-.07,0,0,.02-.07.03-.14.05-.2,0,0,.02-.04.02-.04-.01.03-.02.04,0,.02,0,0,0-.01.01-.02.02-.03.03-.07.05-.1l-.39.05s.01.02.02.02c.03.03,0-.01-.01-.02.01,0,.02.04.03.05,0,.01.01.02.02.03,0,0,.02.04,0,0-.02-.04,0,.02.01.03,0,.02.01.04.01.06,0,0,0,.02,0,.03-.02-.07,0-.05,0-.02,0,.04,0,.08,0,.13s.01-.05,0-.02c0,0,0,.02,0,.03,0,.02,0,.04-.01.06s-.01.04-.02.06c.02-.06.02-.04,0-.02,0,0,0,.02-.01.03,0,.02-.02.03-.03.05,0,0-.01.02-.02.03,0,0,.04-.05.01-.02-.01.01-.03.03-.04.04,0,0-.02.02-.02.02l.03-.02s-.01,0-.02.01h.25s-.03-.01-.04-.02c-.03-.02.05.05.02.01,0,0,0-.01-.01-.02-.02-.02.04.05.02.03,0,0,0-.01-.01-.02-.01-.02,0-.04.01.03,0-.01,0-.02-.01-.03,0,0,0-.01,0-.02,0-.03,0,.08,0,.04,0-.01,0-.02,0-.04,0-.01,0-.08,0-.02s0,0,0-.01c0-.01,0-.02.01-.04,0,0,0-.01,0-.02,0-.03-.03.06-.01.03,0-.01.01-.03.02-.04,0-.01.02-.02.02-.03.02-.02-.05.05-.02.03,0,0,0,0,.01-.01,0,0,.02-.02.03-.02.03-.03-.05.03-.03.02,0,0,.01,0,.02-.01,0,0,.02,0,.02,0,0,0-.06.02-.04.02.01,0,.02,0,.04,0,.03,0-.07,0-.04,0,0,0,.01,0,.02,0,0,0,.01,0,.02,0-.07,0-.06-.01-.03,0,0,0,.02,0,.02,0,.03,0-.06-.03-.03-.02.01,0,.02.01.03.02.03.01-.03-.02-.03-.02,0,0,.01.01.01.01,0,0,0,.01.01.02,0,0-.04-.06-.02-.02,0,0,0,.02.02.03-.04-.05-.02-.06-.01-.03,0,0,0,.01,0,.02,0,.01,0,.02,0,.03,0,.03,0-.04,0-.04,0,0,0,.02,0,.03,0,.01,0,.03,0,.04,0,0,0,.01,0,.02,0,.03,0-.04,0-.04,0,0,0,.04,0,.04,0,.01,0,.03-.01.04,0,.02-.02.03.02-.03,0,0,0,.02-.01.02,0,.01-.01.03-.02.04,0,0-.03.03,0,0s0-.01,0,0c0,0-.03.02-.03.03,0,0,.06-.04.03-.02,0,0-.01,0-.02.01-.04.03.06-.02.01,0,0,0-.01,0-.02,0-.04.01.07,0,.03,0-.02,0-.04,0-.05,0-.06,0-.14.03-.18.07-.04.04-.08.11-.07.18s.02.13.07.18c.05.05.11.06.18.07.15.02.31-.05.4-.16.11-.12.16-.26.17-.41.03-.3-.2-.62-.53-.59s-.54.34-.53.65c0,.18.08.33.23.43.04.03.09.05.14.06.11.01.18-.04.26-.11.06-.05.12-.12.16-.19.2-.33.16-.79-.11-1.07-.11-.12-.31-.08-.39.05-.19.31-.24.69-.15,1.04.03.13.18.22.31.17s.21-.17.17-.31h0Z"/>
          <path class="cls-1" d="M180.37,56.87c1.34-.04,2.74-.09,4.03.35,1.36.46,2.35,1.5,2.81,2.85.2.6.32,1.24.32,1.87,0,.38-.02.84-.31,1.13s-.76.33-1.13.41c-1.58.33-3.15.66-4.73,1-.12.03-.22.19-.17.31.38.92.7,1.87.96,2.83.12.44.22.89.32,1.34.07.35.41,1.38.2,1.67l.28-.11.07.07-.11.28.05-.03c.27-.18.02-.61-.25-.43l-.05.03c-.09.06-.15.17-.11.28.05.17.11.23.28.28.11.04.22-.03.28-.11.23-.33.07-.78.01-1.15-.09-.57-.2-1.13-.34-1.69-.28-1.16-.65-2.29-1.1-3.39l-.17.31c1.02-.22,2.05-.43,3.07-.65.81-.17,1.72-.25,2.49-.57,1.38-.56,1.04-2.5.7-3.63-.43-1.4-1.35-2.58-2.71-3.18-1.46-.64-3.11-.61-4.67-.56-.32.01-.32.51,0,.5h0Z"/>
          <path class="cls-1" d="M182.04,72.35l.3,1.02.37-.28s.02.02,0,0c0,0-.02-.02-.03-.03,0,0-.02-.02-.02-.02-.02-.02-.02-.04.01.02-.01-.02-.02-.04-.04-.06-.03-.04.02.06,0,.02,0,0,0-.02-.01-.03,0-.02,0-.04-.01-.06.02.08,0,.04,0,.02,0-.01,0-.02,0-.04,0-.02,0-.04,0-.06,0,.09,0,.02,0-.01,0,0,.02-.07.02-.07s-.03.07,0,.02c0,0,0-.02.01-.03.01-.02.03-.04.04-.06,0-.02-.05.05,0,.01,0,0,.01-.02.02-.02s.02-.02.02-.02c.04-.03-.01,0-.02.01,0-.02.05-.03.07-.04.01,0,.02,0,.03-.02-.06.03-.04.02-.02,0,.03,0,.05-.02.08-.02l-.32-.24s0,.04,0,.05c0-.09,0-.02,0,0,0,.03-.01.06-.02.1s-.02.06-.02.09c0,.02-.01.03-.02.05-.01.04.03-.06,0,0-.01.03-.03.06-.05.08-.04.05.03-.03,0,0,0,0-.02.02-.03.03,0,0-.01.01-.02.02-.02.02-.01.01.02-.01-.02,0-.03.02-.05.03-.03.01-.05.01.01,0-.01,0-.03,0-.04.01-.04.01.07,0,.01,0-.01,0-.02,0-.03,0-.04,0,.07.01,0,0-.01,0-.03,0-.04-.01-.02,0-.05-.03.02,0-.01,0-.03-.01-.04-.02s-.03-.02-.04-.02c-.03-.02.05.04.02.01-.01,0-.02-.02-.03-.03-.04-.04.02.04,0,.01,0,0,0-.02-.01-.02.02.05.02.06.02.04,0,0,0-.01,0-.02-.01-.04,0,.07,0,.03,0-.02-.02.08,0,.03-.02.05-.03.06-.01.04,0,0,0-.01,0-.02-.03.04-.04.05-.02.03,0,0,.01,0,.02-.01.1-.09.09-.27,0-.35-.11-.1-.25-.09-.35,0-.14.12-.17.33-.08.49.07.14.21.23.35.28.33.13.67-.07.81-.38.08-.17.11-.35.13-.54,0-.08-.04-.15-.1-.2-.07-.05-.14-.06-.22-.04-.29.06-.53.3-.6.59-.03.14-.04.29.01.42.05.16.15.29.3.38.08.06.2.04.28-.02s.12-.17.09-.26l-.3-1.02c-.04-.13-.18-.22-.31-.17s-.21.17-.17.31h0Z"/>
          <path class="cls-1" d="M192.08,56.81c1.07.39,2.2.8,3.09,1.53,1.03.86,1.4,2.11,1.36,3.42s-.69,2.36-1.91,2.92-2.72.84-4.11.95c-.17.01-.33.21-.22.38,1.01,1.45,1.62,3.09,1.75,4.85.02.32.52.32.5,0-.14-1.85-.76-3.58-1.82-5.1l-.22.38c1.53-.13,3.15-.4,4.53-1.11,1.23-.62,1.88-1.71,1.97-3.07s-.24-2.76-1.23-3.73-2.32-1.45-3.58-1.9c-.3-.11-.43.37-.13.48h0Z"/>
          <path class="cls-1" d="M192.73,73.49s-.02,0-.03,0c-.03,0,.02,0,.03.01-.04-.02.04.04.02.01s.03.05.02.02c-.03-.04.02.06,0,0-.01-.04.01,0,0,.02,0,0,0-.02,0-.03,0-.05-.02.05,0,0,0,0,0-.02,0-.02,0-.03-.03.06,0,.02,0-.02.02-.03-.02.02,0,0,.01-.01.02-.02,0,0-.05.04-.02.02.04-.02-.06.01-.01,0,0,0-.06.01-.01,0,.01,0,.05,0-.02,0,.03,0,0-.01-.01,0,0,0,.03.02.03.02.05.02-.01,0,0,0,0,0,.02.02.03.03-.03-.02-.02-.03,0,0,0,.01.02.03.03.05,0,0-.01-.05,0,0,0,0,0,.03,0,.04v-.03s0,.01,0,.02v.02s0-.02,0-.03c0,0,0,.03-.01.04-.01.06.02-.02,0,0,0,0-.01.02-.02.03-.01.02.03-.03,0,0-.01.01-.06.06-.02.03-.02.02-.05.03-.08.05,0,0-.05.02-.02,0s0,0-.02,0c-.02,0-.03,0-.05.01,0,0-.06.01-.02,0,.03,0,0,0-.02,0-.01,0-.03,0-.04,0-.02,0-.03,0-.05,0-.02,0-.04,0,0,0-.02,0-.05-.01-.08-.02-.01,0-.02,0-.04-.01-.01,0-.07-.03-.01,0-.05-.02-.09-.05-.13-.08.05.03-.01-.01-.02-.02-.02-.02-.04-.05-.07-.07.04.04,0,0-.02-.03-.01-.02-.03-.04-.04-.07-.02-.04,0,0,0,0,0-.01-.01-.03-.02-.04,0-.02-.02-.06-.02-.08,0,.05,0,.03,0,0,0-.01,0-.03,0-.04,0-.02,0-.03,0-.05,0-.03-.01.05,0,.01,0-.02.01-.05.02-.07,0-.03,0-.04,0,0,0-.01.01-.03.02-.04.01-.02.02-.04.04-.06.02-.03,0-.03,0,0,0,0,.02-.02.02-.03.02-.02.03-.03.05-.05,0,0,.02-.02.03-.02l-.02.02s.02-.01.03-.02c.02-.01.04-.02.06-.04.01,0,.02-.01.03-.02.03-.02,0,0-.01,0,0-.01.05-.02.07-.02.01,0,.02,0,.03,0,0,0,.02,0,.03,0,.02,0,.01,0-.02,0,0,0,.06,0,.07,0,.01,0,.02,0,.03,0,.05,0-.02,0-.02,0,0,0,.07.02.07.02,0,0,.05.01.01,0s0,0,.02,0c.01,0,.07.05.04.02s.02.02.03.03.01.02.02.02c.02.02-.03-.04-.01-.01.01.02.03.04.04.07,0,0,0,.02.01.03.02.03-.01-.05,0-.02,0,.02.02.04.02.07,0,.02,0,.05.01.06,0,0,0-.06,0-.02,0,.02,0,.03,0,.05,0,.02,0,.04,0,.06,0,.02-.01.02,0-.02,0,0,0,.02,0,.03,0,.02,0,.04-.01.06,0,0,0,.02,0,.03-.02.05.03-.05,0,0,0,.02-.02.04-.03.05-.03.06.02-.02,0,0-.02.02-.03.03-.05.05-.02.02.04-.03.01-.01-.01,0-.02.01-.03.02,0,0-.02,0-.03.01.04-.02-.02,0-.03,0-.05.01-.01,0,0,0-.03,0-.03,0-.01,0,.02,0,.01,0,0,0-.03,0,.01,0,.02,0h-.01s-.02-.02.02,0c0,0-.02-.02-.02-.02-.03-.03.02.04,0,.01,0,0,0-.02-.01-.03-.01-.02.02.06,0,0,0,0,0-.02,0-.03-.01-.05,0,0,0,.01,0,0,0-.08,0-.08.01.02-.01.05,0,.02,0-.02,0-.03.01-.05,0-.04,0,.02,0,.02,0,0,.02-.04.02-.04.01-.03,0,0-.01.01,0-.01.03-.03.04-.04,0,0,.02-.02.03-.03.01-.01.01,0-.01,0,0,0,.02-.01.03-.02.03-.02.05-.03.08-.04.04-.02,0,0,0,0,.02,0,.04-.01.06-.02.03-.01.07-.02.1-.03.07-.02.14-.03.21-.04l-.31-.17s.01.1,0,.03c0,.03,0,.05,0,.08,0,.05,0,.11,0,.16,0-.07,0,.02,0,.03,0,.03-.01.05-.02.08s-.01.05-.02.08c0,.01-.04.09-.01.03-.02.05-.05.1-.07.14-.01.02-.03.04-.04.07-.02.02-.02.02,0,0,0,.01-.02.02-.03.03-.03.04-.07.08-.11.11-.01,0-.02.02-.03.03.02-.02.03-.02,0,0-.02.02-.04.03-.07.04h.25s.04.04,0,0c-.01-.01-.02-.02-.03-.03s-.02-.02-.03-.03c-.03-.03.02.03,0,0s-.03-.05-.05-.07c0-.01-.01-.03-.02-.04-.02-.05.02.05,0,0,0-.03-.02-.05-.02-.08,0-.01,0-.03,0-.04,0-.05,0-.02,0,0,0-.02,0-.07,0-.09,0-.03,0-.06,0-.09,0-.05,0,0,0,.01,0,0,0-.04,0-.05,0-.03.01-.06.02-.08,0-.01.01-.03.02-.04,0-.03-.02.05,0,0,.01-.03.03-.06.04-.08,0-.01.02-.03.03-.04.02-.04-.03.03,0,0s.04-.04.06-.06c0,0,.03-.03.03-.03-.03.02-.03.03-.02.02,0,0,.01,0,.02-.01.03-.02.05-.03.08-.05l-.13.03s-.06,0-.04,0c.02,0,0,0-.03-.02,0,0,.04.02,0,0-.02-.02-.02-.02-.01,0l-.03-.03s-.02,0,0-.02c0,0,0,.03,0,.03,0,0,0-.07,0-.03,0,.07.02-.05,0,0,0,0,0,.02,0,.03,0,.03.03-.05,0-.02,0,0-.02.03-.02.03,0-.01.05-.05.01-.02-.03.03.05-.03.02-.02s.06-.02.03-.01c-.04.01.07,0,.03,0,.02,0,.07.01.02,0-.12-.04-.28.05-.31.17-.03.14.04.26.17.31.24.09.47-.11.52-.34.05-.25-.08-.55-.37-.54-.13,0-.27.11-.36.2-.08.07-.14.17-.19.26-.1.22-.13.44-.09.68.04.26.18.48.39.62.07.05.18.04.25,0,.5-.31.74-.91.63-1.48-.03-.14-.18-.2-.31-.17-.35.06-.74.19-.87.55-.12.34.07.78.47.79.35,0,.64-.29.69-.62s-.05-.65-.32-.85-.64-.17-.91,0c-.31.19-.48.52-.43.88s.34.64.68.76c.35.12.8,0,.99-.34.11-.2.11-.44-.03-.63-.14-.2-.4-.31-.64-.19-.16.08-.26.27-.25.45s.13.4.33.42c.13.02.27-.03.31-.17.03-.12-.04-.29-.17-.31h0Z"/>
        </g>
        <path class="cls-1" d="M186.18,50.36c-2.61-.22-5.23-.47-7.86-.47-1.84,0-3.7.15-5.45.76-4.45,1.56-7.02,5.52-9.03,9.54-1.14,2.27-2.33,4.56-2.77,7.08-.33,1.88-.24,3.8.15,5.66.87,4.17,3.42,7.93,7.5,9.46,4.28,1.61,9.23.95,13.66.48,2.68-.29,5.38-.54,8.04-.98,2.07-.35,4.12-.87,6-1.84,2.78-1.43,5.35-3.68,7.13-6.24,2.63-3.78,3.33-8.6,1.7-12.93-1.04-2.75-2.9-5.31-5.21-7.14-2.77-2.2-6.35-2.68-9.77-3.02-1.37-.14-2.74-.25-4.11-.36-.32-.03-.32.47,0,.5,2.42.2,4.86.36,7.26.77,1.69.28,3.36.71,4.87,1.55,2.15,1.2,3.92,3.18,5.2,5.27,2.35,3.83,2.85,8.57.99,12.71-1.29,2.88-3.51,5.19-6.03,7.04-1.58,1.15-3.3,2.02-5.18,2.56-2.19.63-4.48.9-6.74,1.16-2.61.3-5.21.61-7.83.8-2.22.17-4.47.26-6.69-.03-1.88-.25-3.72-.81-5.31-1.86-1.89-1.26-3.3-3.16-4.17-5.25-.66-1.58-1.04-3.29-1.16-5-.17-2.51.43-4.91,1.45-7.19s2.06-4.38,3.33-6.4,2.92-3.8,5.01-5c3.32-1.91,7.28-1.68,10.97-1.43,1.34.09,2.68.2,4.02.32.32.03.32-.47,0-.5Z"/>
      </g>
      <g>
        <path class="cls-1" d="M85.83,65.28c8.07-2.7,16.54-4.65,25.01-5.55,10.83-1.15,21.81-.3,32.32,2.56,5.12,1.39,10.11,3.24,14.91,5.5.58.27,1.09-.59.5-.86-9.22-4.33-19.1-7.17-29.24-8.23s-19.56-.25-29.16,1.74c-4.94,1.03-9.83,2.28-14.62,3.88-.61.2-.35,1.17.27.96h0Z"/>
        <path class="cls-1" d="M155,62.72c.54.84,1.29,1.48,1.97,2.21s1.17,1.55,1.09,2.53l.37-.48c-1.93.54-3.86,1.08-5.79,1.62-.62.17-.36,1.14.27.96,1.93-.54,3.86-1.08,5.79-1.62.23-.06.35-.26.37-.48.1-1.09-.42-2.09-1.09-2.91s-1.53-1.45-2.1-2.34c-.35-.54-1.21-.04-.86.5h0Z"/>
      </g>
    </g>
  </g>
</svg>