<?xml version="1.0" encoding="UTF-8"?>
<svg id="Layer_2" data-name="Layer 2" xmlns="http://www.w3.org/2000/svg" viewBox="0 0 238.48 120.2">
  <defs>
    <style>
      .cls-1 {
        fill: #231f20;
      }

      .cls-2 {
        fill: #ed1c24;
      }

      .cls-3 {
        fill: #00aeef;
      }
    </style>
  </defs>
  <g id="Layer_1-2" data-name="Layer 1">
    <path class="cls-2" d="M61.26,39.59c-9.6-1.75-19.65-.78-28.79,2.64-5.62,2.1-10.83,5.08-15.47,8.88-6.63,5.41-11.72,12.61-14.77,20.6-1.87,4.9-2.66,10.2-1.99,15.42.61,4.75,2.47,9.03,4.73,13.21,2.04,3.79,4.37,7.4,7.44,10.45,3.89,3.86,8.74,6.57,14.03,7.98,4.86,1.29,9.91,1.52,14.91,1.42s10.17-.42,15.17-1.45c4.52-.93,9.02-2.32,13.28-4.09,4.93-2.05,9.51-4.89,13.06-8.93,6.58-7.5,9.24-17.61,10.22-27.33.5-5.01.9-10.23-.58-15.11-1.37-4.53-3.87-8.74-7.15-12.15-5.56-5.8-13.17-9.16-20.91-10.9-1.06-.24-2.12-.44-3.19-.64-.63-.12-.9.85-.27.96,6.47,1.19,12.81,3.16,18.32,6.84,7.76,5.17,13.17,13.75,13.22,23.2.03,5.07-.54,10.25-1.57,15.21s-2.52,9.42-4.9,13.66-5.78,8.06-9.94,10.79c-4.57,2.99-9.78,4.8-14.99,6.3-4.07,1.17-8.22,1.95-12.44,2.31-4.87.41-9.87.55-14.75.15-5.15-.42-10.24-1.68-14.74-4.27s-8.07-6.3-10.86-10.59c-.95-1.47-1.8-2.99-2.62-4.53-.99-1.83-1.94-3.68-2.69-5.63-1.96-5.07-2.52-10.57-1.55-15.92.75-4.1,2.33-7.95,4.29-11.61,2.24-4.19,4.96-8.02,8.32-11.38,3.88-3.87,8.39-7.07,13.28-9.53,8.86-4.45,18.88-6.44,28.77-5.62,1.63.13,3.24.34,4.85.64.63.11.9-.85.27-.96Z"/>
    <path class="cls-3" d="M181.62,36.28c-7.19,1.23-14.21,3.71-20.36,7.66-8.79,5.65-15.49,14.35-18.36,24.43-1.33,4.67-1.81,9.6-1.15,14.41s2.69,9.61,5.68,13.69c2.38,3.25,5.2,6.14,8.13,8.9,3.63,3.43,7.68,6.4,12.21,8.53,5.52,2.61,11.54,3.94,17.62,4.23,4.94.23,9.87-.23,14.76-.95,5.27-.78,10.65-1.5,15.62-3.52,4.92-1.99,9.39-5.06,13-8.95,4.93-5.3,8.42-12.16,9.41-19.36.71-5.2.07-10.45-1.5-15.44-1.05-3.31-2.44-6.53-3.91-9.67-1.62-3.49-3.58-6.81-6-9.8-3.19-3.94-7.15-7.22-11.59-9.66-9.05-4.98-19.64-6.33-29.8-5.08-1.26.16-2.51.35-3.75.56-.63.11-.36,1.07.27.96,8.2-1.4,16.63-1.4,24.65,1.01,5.45,1.64,10.61,4.36,14.91,8.11,3.24,2.82,5.95,6.19,8.12,9.89,1.62,2.76,2.91,5.69,4.16,8.63,1.69,3.98,3.07,8.11,3.55,12.42.88,7.79-1.24,15.47-5.51,21.97-2.47,3.76-5.63,7.05-9.32,9.62-4.65,3.25-9.88,5.13-15.43,6.16-9.98,1.86-20.38,3.22-30.4.87-5.66-1.33-10.98-3.81-15.64-7.28-2.99-2.22-5.7-4.83-8.28-7.51-3.42-3.55-6.58-7.57-8.36-12.22-1.67-4.35-2.17-9.07-1.73-13.69.94-10.02,6.12-19.52,13.57-26.2,6.38-5.72,14.4-9.4,22.72-11.23.99-.22,1.99-.41,2.99-.58.63-.11.36-1.07-.27-.96Z"/>
    <g>
      <path class="cls-1" d="M114.25,5.82c2.52-.35,4.92-1.47,7.3-2.31s4.61-1.62,6.86-2.59c.59-.25.08-1.12-.5-.86-2.24.96-4.55,1.76-6.84,2.57s-4.63,1.9-7.07,2.23c-.63.09-.36,1.05.27.96h0Z"/>
      <path class="cls-1" d="M121.11,3.1c-.61,5.02-1.13,10.05-1.57,15.09h1c.01-.18.03-.37.04-.55.05-.64-.95-.64-1,0-.01.18-.03.37-.04.55-.05.64.94.64,1,0,.44-5.04.96-10.07,1.57-15.09.08-.64-.92-.63-1,0h0Z"/>
    </g>
    <path class="cls-2" d="M27,16.61c1.8,7.85,4.4,15.49,7.74,22.81.23.5.89.19.93-.25.33-3.54,1.35-6.96,2.57-10.29s2.68-6.8,4.05-10.19c.24-.6-.73-.86-.96-.27-2.7,6.69-5.97,13.48-6.65,20.75l.93-.25c-3.31-7.24-5.86-14.81-7.64-22.58-.14-.63-1.11-.36-.96.27h0Z"/>
    <path class="cls-3" d="M179.54,10.89c1.15,7.55,3.5,14.89,6.92,21.71.16.32.7.33.86,0,1.5-3.11,3-6.23,4.5-9.34.36-.75.72-1.5,1.08-2.25.11-.23.24-.63.5-.74.37-.16.63.33.79.61.78,1.44,1.33,3.06,1.98,4.57.32.75.64,1.49.96,2.24.23.54.48,1.1.93,1.5.89.8,1.99.37,2.65-.48.42-.54.72-1.16,1.05-1.75.42-.74.85-1.48,1.29-2.22.8-1.34,1.62-2.66,2.46-3.96.97-1.5,1.98-2.98,3.01-4.44.54-.76,1.09-1.52,1.65-2.26.48-.64,1.01-1.66,1.73-2.02.58-.29.07-1.15-.5-.86s-.92.83-1.31,1.35c-.49.65-.98,1.3-1.47,1.96-.96,1.32-1.9,2.66-2.81,4.01-1.82,2.71-3.54,5.49-5.14,8.34-.3.54-.62,1.35-1.2,1.66-.68.37-1.08-.48-1.31-.97-.7-1.52-1.33-3.09-1.99-4.63-.33-.77-.64-1.56-1-2.32-.24-.52-.6-1.08-1.16-1.3-1.37-.54-1.96,1.18-2.41,2.09-1.72,3.56-3.43,7.13-5.15,10.69h.86c-3.39-6.75-5.68-14.01-6.82-21.47-.1-.63-1.06-.36-.96.27h0Z"/>
    <g>
      <path class="cls-1" d="M74.78,41.24c3.63-3.07,7.58-5.8,11.77-8.13,6.11-3.4,12.71-5.9,19.55-7.35,5.82-1.24,11.8-1.87,17.75-1.63,4.17.17,8.32.78,12.33,1.95,1.8.52,3.55,1.23,5.3,1.91,6.37,2.48,12.88,4.78,18.67,8.5.71.46,1.41.93,2.1,1.42.44.31,1.11.08,1.37-.36.29-.5.08-1.05-.36-1.37-3.04-2.16-6.3-4-9.71-5.5-3.12-1.37-6.33-2.57-9.5-3.83-2.09-.82-4.17-1.67-6.3-2.38-3.5-1.17-7.22-1.81-10.89-2.14-6.29-.58-12.62-.08-18.82,1.03-7.12,1.27-14,3.62-20.43,6.93-4.68,2.41-9.09,5.33-13.17,8.66-.35.29-.71.58-1.06.88-.98.83.44,2.24,1.41,1.41h0Z"/>
      <path class="cls-1" d="M156.96,24.32c1.19,3.21,2.36,6.45,3.74,9.58.19.42.38.84.58,1.25.16.31.63.94.42,1.27-.15.24-.79.33-1.03.41-.53.17-1.06.33-1.59.49-1.07.32-2.14.6-3.22.87-2.39.59-4.81,1.04-7.25,1.38-1.11.15-.85,2.05.27,1.96.31-.02.63-.05.94-.07,1.28-.09,1.29-2.09,0-2-.31.02-.63.05-.94.07l.27,1.96c2.36-.33,4.7-.76,7.02-1.32,1.16-.28,2.31-.59,3.45-.93.99-.29,2.16-.52,3.05-1.07s1.25-1.58.98-2.62c-.15-.59-.49-1.12-.75-1.66-.55-1.12-1.01-2.29-1.47-3.45-.88-2.21-1.71-4.44-2.53-6.67-.44-1.2-2.38-.68-1.93.53h0Z"/>
    </g>
    <g>
      <path class="cls-1" d="M109.89,29.1c-.75.64-1.19,1.51-1.51,2.43-.36,1.07-.68,2.18-.95,3.27-.43,1.73-.27,4.13,1.76,4.75.31.09.44-.39.13-.48-2.08-.63-1.68-3.26-1.22-4.83s.78-3.63,2.14-4.78c.25-.21-.11-.56-.35-.35h0Z"/>
      <path class="cls-1" d="M111.36,31.04c-.17,2.13-.28,4.26-.33,6.39,0,.32.49.32.5,0,.05-2.13.16-4.26.33-6.39.03-.32-.47-.32-.5,0h0Z"/>
      <path class="cls-1" d="M114.3,37.07c-.03-1.02.11-2.03.42-3,.1-.31-.39-.44-.48-.13-.32,1.01-.47,2.07-.44,3.14,0,.32.51.32.5,0h0Z"/>
      <path class="cls-1" d="M114.69,31.42h-.06c-.32,0-.32.5,0,.5h.06c.32,0,.32-.5,0-.5h-.06c-.32,0-.32.5,0,.5h.06c.32,0,.32-.5,0-.5h0Z"/>
      <path class="cls-1" d="M115.87,32.83c-.04,1.5.15,3,.56,4.44.07.26.51.22.49-.07-.06-.83.06-1.6.27-2.39.12-.47.2-1.16.63-1.48.21-.16.59-.27.83-.13.23.13.28.45.32.69.09.54.05,1.11,0,1.66-.04.46-.09.92-.16,1.38-.05.31.43.45.48.13.08-.48.14-.97.18-1.45.05-.65.09-1.33-.04-1.97-.06-.31-.19-.63-.46-.82-.32-.22-.74-.2-1.09-.07-.64.24-.88.83-1.04,1.44-.27,1-.49,1.98-.41,3.02l.49-.07c-.4-1.4-.58-2.85-.54-4.31,0-.32-.49-.32-.5,0h0Z"/>
      <path class="cls-1" d="M121.2,35.44c.75-.17,1.4-.59,1.82-1.23s.73-1.65-.07-2.13c-.84-.5-1.84.54-2.18,1.22-.43.86-.37,1.91.01,2.78s1.25,1.63,2.29,1.39c.31-.07.18-.55-.13-.48-.7.16-1.29-.32-1.6-.9-.34-.63-.47-1.42-.29-2.12.09-.37.28-.69.54-.97.22-.24.57-.57.92-.55.34.02.47.39.44.67s-.19.57-.35.81c-.34.51-.9.88-1.54,1.02-.31.07-.18.55.13.48h0Z"/>
      <path class="cls-1" d="M127.28,32.94c-.18,1.33-.36,2.66-.54,3.99l.49.07c0-.54-.05-1.09-.11-1.62-.09-.72-.18-1.59-.62-2.19-.23-.31-.64-.54-1.03-.5s-.69.33-.93.62c-.61.75-.97,1.75-.55,2.68.51,1.15,1.91,1.59,3.06,1.25.31-.09.18-.58-.13-.48-.86.26-1.89,0-2.38-.8-.45-.74-.17-1.6.32-2.24.16-.21.38-.49.65-.53.26-.04.52.17.65.38.32.55.4,1.26.47,1.87.06.52.1,1.04.1,1.56,0,.27.45.35.49.07.18-1.33.36-2.66.54-3.99.02-.13-.03-.27-.17-.31-.12-.03-.29.04-.31.17h0Z"/>
      <path class="cls-1" d="M128.98,33.04c.08,1.05.16,2.1.25,3.14.03.36.03.75.11,1.1.05.21.33.33.47.1.09-.15.04-.42.05-.59.02-.86.11-1.73.41-2.54.09-.24.21-.47.36-.67.1-.14.31-.38.47-.36.29.04.47.49.54.74.1.31.58.18.48-.13-.11-.36-.31-.75-.62-.97-.49-.34-.97.03-1.27.43-.64.86-.79,2.03-.85,3.06-.01.2-.02.41-.02.61,0,.07,0,.13,0,.2,0,.14,0-.03.07-.08l.24-.06c.08.02.16.15.17.16,0,0,0-.03,0-.04,0,0,0-.02,0-.03,0,.08,0,.05,0,.03,0-.03,0-.06-.01-.1-.02-.22-.04-.44-.06-.65-.1-1.12-.19-2.23-.27-3.35-.02-.32-.52-.32-.5,0h0Z"/>
      <path class="cls-1" d="M133.24,30.94c-.26,1.32-.37,2.66-.32,4.01,0,.22.27.32.43.18.06-.05.11-.1.17-.15.24-.22-.12-.57-.35-.35-.06.05-.11.1-.17.15l.43.18c-.05-1.3.05-2.6.31-3.88.06-.31-.42-.45-.48-.13h0Z"/>
      <path class="cls-1" d="M133.23,36.49h0s.1.07.15.11h0c0,.06.02.12.03.19h0s-.04.07-.06.1c.01-.02,0-.01-.03.02l-.13.03h-.05s-.1-.08-.15-.12h0s-.02-.08-.03-.12v-.04s.05-.07.07-.11c-.02.02,0,.02.03-.01.02-.02.05-.03.07-.03-.04,0,.04,0,.01,0-.03,0,.05.02,0,0-.05-.03.05.03,0,0-.04-.02.02.03,0,0-.02-.03,0-.02,0,0-.02-.05,0,.06,0,0,0-.05,0,.04,0,.01,0-.03-.03.05,0,.01.02-.05-.03.05,0,0,.02-.03-.03.03-.01,0,.04-.03,0,0-.01,0,0,0,.04-.01.04-.01-.01,0-.06,0-.02,0,.03,0-.06-.01-.02,0,.05.01-.05-.03,0,0-.02-.01-.04-.03-.01,0,.02.02-.03-.05,0,0,.02.04-.01-.05,0,0,0,.01,0,.05,0,.01s0,0,0,.01c0,0,0,.02,0,.02,0,.02,0,.01,0-.03,0,0,0,.03,0,.04,0,.04,0,0,0,0,0,0-.02.03-.03.05,0,0-.04.05-.01.02s-.01.01-.02.02c-.01.01-.03.03-.04.04-.01.01-.02.02-.04.03-.02.02.04-.03,0,0-.03.02-.06.04-.09.07-.07.05-.11.1-.12.18,0,.07,0,.16.07.21.02.01.03.03.05.04.02.02.02.02,0-.01,0,0,.01.02.02.03,0,0,.01.02.02.03.01.02.01.02,0-.01,0,0,.02.05.02.06,0,0,0,.02,0,.02,0,.03,0,.02,0-.02,0,0,0,.06,0,.07,0,.03,0,.02,0-.02,0,.01,0,.02,0,.03,0,.02-.01.04-.02.06l.31-.17s-.02,0-.04-.01c-.04-.01.05.03.01,0-.02-.01-.04-.02-.06-.04-.04-.02.04.04.01,0,0,0-.02-.02-.03-.03s-.02-.02-.03-.03c-.03-.03.03.05,0,.01-.01-.02-.03-.04-.04-.06,0-.01-.01-.02-.02-.03-.02-.04.02.05,0,.02,0-.02-.02-.05-.02-.07,0-.01,0-.02,0-.04,0-.01,0-.06,0-.01s0,0,0,0c0-.01,0-.03,0-.04,0-.03,0-.05,0-.08,0-.05-.01.06,0,.02,0-.01,0-.02,0-.04,0-.02.01-.05.02-.07.01-.04-.03.06,0,.01,0-.01.01-.02.02-.03s.01-.02.02-.03c.01-.02.04-.03,0,.01.02-.01.03-.03.05-.05.04-.04-.03.02-.01,0,.01,0,.03-.02.04-.02.11-.07.16-.23.09-.34s-.22-.16-.34-.09c-.58.34-.45,1.33.2,1.5.14.04.26-.05.31-.17.11-.26.02-.59-.2-.77l-.05.39c.2-.13.41-.29.46-.54s-.06-.56-.34-.63-.57.13-.59.42.28.57.57.49c.1-.03.2-.11.22-.22.04-.14-.05-.29-.19-.33-.13-.04-.27.04-.32.16-.06.14.02.31.17.35.13.03.28-.04.31-.17s-.04-.27-.17-.31h0Z"/>
      <path class="cls-1" d="M134.77,29.73c.51,1.53.77,3.12.76,4.74,0,.78-.06,1.57-.22,2.34-.07.35-.16.69-.31,1.02-.09.2-.43.91-.72.81-.31-.1-.44.38-.13.48.66.22,1.14-.72,1.35-1.2.34-.79.43-1.68.49-2.53.14-1.96-.12-3.93-.74-5.79-.1-.3-.58-.17-.48.13h0Z"/>
    </g>
    <g>
      <g>
        <g>
          <path class="cls-1" d="M166.43,67.4c1.95-.55,3.91-1.09,5.94-1.22.32-.02.32-.52,0-.5-2.08.14-4.08.68-6.08,1.24-.31.09-.18.57.13.48h0Z"/>
          <path class="cls-1" d="M169.7,63.78c-.26,1.71-.5,3.42-.7,5.13-.1.86-.19,1.73-.27,2.59-.07.76-.25,1.59.03,2.32.12.3.6.17.48-.13-.28-.73-.07-1.63,0-2.38.08-.8.16-1.6.25-2.4.19-1.67.42-3.34.68-5,.05-.31-.43-.45-.48-.13h0Z"/>
          <path class="cls-1" d="M173.51,65.21c-.19,1.52-.38,3.04-.55,4.57-.08.75-.16,1.5-.23,2.24-.06.6-.11,1.17.15,1.73.06.12.24.16.34.09.29-.19.35-.48.44-.81.11-.4.2-.81.31-1.21.23-.83.5-1.67.99-2.38.07-.1.31-.49.43-.52.17-.03.12.39.12.52,0,.53-.06,1.06-.17,1.57-.21,1.01-.56,1.99-.91,2.95-.11.3.37.43.48.13.42-1.16.84-2.33,1.02-3.56.06-.44.4-2.29-.51-2.19-.37.04-.65.5-.85.77-.27.38-.48.81-.66,1.24-.19.47-.33.95-.46,1.44-.07.27-.14.54-.21.81-.05.21-.09.65-.28.77l.34.09c-.27-.58-.1-1.31-.04-1.91.07-.72.15-1.44.23-2.16.16-1.41.33-2.82.51-4.22.04-.32-.46-.32-.5,0h0Z"/>
          <path class="cls-1" d="M176.9,70.43c.7.36,1.51.65,2.31.57.49-.05,1-.28,1.11-.8.13-.57-.21-1.21-.43-1.72-.24-.56-.49-1.33-1.06-1.65-.48-.27-1.09-.09-1.38.37-.17.28-.25.63-.33.94-.1.36-.18.72-.24,1.09-.05.32-.1.65-.11.98-.02.68-.04,1.43.14,2.1.33,1.23,1.7,1.68,2.85,1.65.32,0,.32-.51,0-.5-.81.02-1.83-.19-2.25-.96-.21-.38-.22-.85-.23-1.27-.01-.38-.03-.77,0-1.15s.09-.77.17-1.15c.07-.34.16-.67.26-1,.08-.26.16-.58.44-.68.4-.15.66.19.84.49.32.55.59,1.19.77,1.8.14.48.09.85-.46.96-.72.14-1.51-.16-2.14-.49-.29-.15-.54.28-.25.43h0Z"/>
          <path class="cls-1" d="M187.06,66.06c1.59-.42,3.22-.61,4.86-.54.22,0,.44.02.66.04.13.01.25.02.38.04.06.16.03.28-.1.37-.18.25-.46.47-.68.68-.51.47-1.05.9-1.61,1.31-2.16,1.57-4.56,2.86-6.33,4.91-.11.13-.09.39.11.42.76.12,1.59-.17,2.34-.32.9-.18,1.8-.36,2.7-.54.82-.16,1.72-.25,2.52-.51.4-.13.72-.6.33-.94-.24-.21-.6.14-.35.35.1.08-.47.19-.45.18-.12.02-.23.05-.35.07-.32.06-.64.13-.96.19-.61.12-1.22.24-1.83.37s-1.16.23-1.74.35c-.63.13-1.43.42-2.07.32l.11.42c1.63-1.89,3.82-3.13,5.83-4.55.98-.69,1.93-1.43,2.75-2.3.26-.28.61-.71.27-1.08-.14-.15-.33-.18-.53-.21-.38-.05-.77-.07-1.16-.08-1.63-.05-3.26.14-4.83.56-.31.08-.18.57.13.48h0Z"/>
          <path class="cls-1" d="M187.64,68.98c1.34.16,2.68.21,4.03.15.32-.02.32-.52,0-.5-1.34.07-2.69.02-4.03-.15-.32-.04-.32.46,0,.5h0Z"/>
          <path class="cls-1" d="M193.84,69.91c.85-.1,1.6-.56,2.07-1.27.35-.54.69-1.8-.29-1.92s-1.35,1.15-1.48,1.87c-.18.98-.32,2.05.19,2.96.47.85,1.58,1.34,2.46.76.27-.18.02-.61-.25-.43-.56.37-1.28.12-1.65-.39-.43-.6-.46-1.37-.37-2.07.05-.38.11-.77.21-1.15.08-.33.2-.7.48-.92.22-.18.55-.21.58.15.03.29-.12.59-.26.83-.36.59-.99,1.01-1.68,1.09-.32.04-.32.54,0,.5h0Z"/>
          <path class="cls-1" d="M197.07,67.19c.09,1.38.24,2.76.45,4.14.04.28.5.21.49-.07-.04-.9.1-1.8.42-2.64.15-.39.33-.79.57-1.13.1-.15.25-.31.43-.35.12-.02.3,0,.35.13.11.3.6.17.48-.13-.16-.43-.65-.61-1.07-.45-.49.19-.76.73-.98,1.17-.51,1.06-.75,2.23-.7,3.4l.49-.07c-.2-1.33-.35-2.66-.43-4-.02-.32-.52-.32-.5,0h0Z"/>
          <path class="cls-1" d="M202.28,66.98c-.53.08-.83.67-1.07,1.1-.3.54-.44,1.13-.5,1.74-.06.56-.16,1.18.01,1.73.15.48.5.8.97.97.9.33,1.95,0,2.38-.88.35-.73.37-1.65.19-2.43-.14-.57-.4-1.13-.77-1.59-.27-.34-.67-.68-1.14-.65-.32.02-.32.52,0,.5.3-.02.54.22.72.43.28.33.49.74.62,1.15.2.62.24,1.32.08,1.96-.19.74-.75,1.22-1.54,1.13-.35-.04-.73-.19-.93-.5-.25-.42-.17-.95-.13-1.41.05-.54.1-1.08.32-1.59.12-.27.27-.53.43-.77.12-.19.26-.37.49-.4.32-.05.18-.53-.13-.48Z"/>
          <path class="cls-1" d="M170.69,76.17c.58,2.45,1.44,4.81,2.56,7.07.09.18.33.14.43,0,.34-.48.5-1.04.65-1.6.18-.67.36-1.34.55-2.02.36-1.34.73-2.69,1.09-4.03.08-.31-.4-.44-.48-.13-.35,1.3-.7,2.59-1.05,3.89-.17.62-.34,1.25-.51,1.87s-.3,1.25-.68,1.77h.43c-1.1-2.21-1.94-4.54-2.51-6.95-.07-.31-.56-.18-.48.13h0Z"/>
          <path class="cls-1" d="M177.14,80.43c.5-.22.99-.48,1.44-.79s.91-.65,1.26-1.06c.32-.37.34-.81-.09-1.1-.41-.27-.93-.41-1.42-.34-.99.14-1.54,1.16-1.68,2.06-.16.95.05,1.98.71,2.71s1.78,1.1,2.76.81c.31-.09.18-.58-.13-.48-.67.2-1.4.04-1.95-.38-.62-.47-.93-1.23-.94-1.99,0-.7.21-1.57.8-2.02.33-.24.73-.27,1.11-.15.17.05.38.12.51.24.18.16-.12.38-.24.5-.7.66-1.51,1.18-2.4,1.56-.29.13-.04.56.25.43h0Z"/>
          <path class="cls-1" d="M184.15,77.32c-.69-.19-1.36.21-1.81.72s-.79,1.2-.9,1.9c-.11.66-.02,1.35.66,1.65s1.54.38,2.3.32c.32-.02.32-.52,0-.5-.63.05-1.25,0-1.85-.19-.26-.08-.51-.17-.61-.44-.08-.24-.06-.52-.01-.77.1-.57.35-1.11.72-1.56.32-.39.82-.78,1.36-.64.31.08.44-.4.13-.48h0Z"/>
          <path class="cls-1" d="M186.28,76.58c-.11.96-.2,1.93-.24,2.9-.02.48-.05.97-.04,1.45,0,.33.18.69.56.53.29-.13.04-.56-.25-.43l-.04.02.19-.03c.05.05.06.05.04,0,0-.05,0-.09,0-.14,0-.09,0-.18,0-.27,0-.2,0-.39.02-.59.01-.38.03-.76.06-1.13.05-.77.12-1.54.21-2.31.04-.32-.46-.32-.5,0h0Z"/>
          <path class="cls-1" d="M187.28,78.96c.22-.37.47-.72.75-1.05.14-.17.28-.33.43-.48.07-.08.15-.16.23-.23.02-.02-.03.01.01,0,0,0,.06-.03.03-.02-.02,0-.01,0,.01,0h-.03s.01,0,.02,0c-.07,0-.12-.04-.15-.11.05.12.17.21.31.17.12-.03.23-.18.17-.31-.06-.15-.17-.25-.35-.25-.13,0-.25.06-.35.13-.21.16-.39.38-.56.58-.36.41-.69.86-.98,1.33-.07.12-.03.27.09.34s.27.03.34-.09h0Z"/>
          <path class="cls-1" d="M186.65,78.93c.59.7,1.29,1.31,2.06,1.82.11.07.28.02.34-.09.07-.12.02-.27-.09-.34-.73-.48-1.39-1.07-1.96-1.74-.09-.1-.26-.09-.35,0-.1.1-.09.25,0,.35h0Z"/>
          <path class="cls-1" d="M190.36,76.59c-.25,1.41-.38,2.83-.41,4.26,0,.32.49.32.5,0,.03-1.38.16-2.76.39-4.12.05-.31-.43-.45-.48-.13h0Z"/>
          <path class="cls-1" d="M190.55,79.01l1.33-.82c.11-.07.16-.23.09-.34s-.22-.16-.34-.09l-1.33.82c-.11.07-.16.23-.09.34s.22.16.34.09h0Z"/>
          <path class="cls-1" d="M190.36,79.16c.53.57,1.08,1.12,1.65,1.66.1.09.26.1.35,0s.1-.26,0-.35c-.57-.53-1.12-1.09-1.65-1.66-.09-.1-.26-.09-.35,0-.1.1-.09.25,0,.35h0Z"/>
          <path class="cls-1" d="M194.42,80.2c.01-1.12.12-2.23.33-3.33.06-.31-.42-.45-.48-.13-.21,1.14-.33,2.3-.34,3.46,0,.32.5.32.5,0h0Z"/>
          <path class="cls-1" d="M195.93,78.78c.6-.06,1.21-.39,1.45-.97.2-.51-.12-1.23-.75-1.12-.7.12-.73.96-.78,1.52-.06.71-.1,1.46.09,2.15s.7,1.29,1.44,1.25c.32-.02.32-.52,0-.5-.59.03-.89-.52-.99-1.02-.13-.6-.09-1.23-.04-1.83.02-.26.02-.57.12-.81.08-.2.35-.4.47-.11.1.25-.12.51-.3.66-.2.16-.45.27-.7.29-.32.03-.32.53,0,.5h0Z"/>
          <path class="cls-1" d="M194.54,75.11s-.06.07-.08.1-.04.08-.05.11c0,.02-.02.04-.02.06,0,.04-.02.09-.02.13l.32-.24s-.02,0-.03,0l.06.03s-.03-.01-.04-.02l.05.04s-.02-.02-.03-.03l.04.05s-.02-.03-.03-.05l.03.06s-.01-.03-.01-.05v.07s0-.03,0-.04h-.5s0,.02,0,.03v-.07s0,.06-.02.09l.03-.06s-.03.06-.05.08l.04-.05s0,0-.01.01c-.02.02-.04.05-.05.08-.02.03-.02.06-.02.1,0,.03,0,.07.02.1.01.03.03.06.05.08.05.04.11.08.18.07.06,0,.13-.02.18-.07.03-.03.05-.06.07-.1s.04-.07.05-.11c.02-.06.03-.12.04-.18,0-.03,0-.07-.02-.1-.01-.03-.03-.06-.05-.08-.02-.02-.05-.04-.08-.05-.03-.02-.06-.02-.1-.02-.06,0-.13.02-.18.07l-.04.05s-.03.08-.03.13c0,.04,0,.09.01.14,0,.03.02.06.04.09,0,.01.01.02.02.03.02.03.04.05.06.07s.05.04.07.06c.01,0,.02.01.03.02.03.01.06.03.09.04.04.01.09.01.13,0,.03,0,.06-.02.09-.04.03-.02.05-.04.06-.07.02-.04.03-.08.03-.13,0-.01,0-.02,0-.04v.07s0-.06.02-.09l-.03.06s.03-.06.05-.08l-.04.05s.01-.01.02-.02c.02-.02.04-.05.05-.08.02-.03.02-.06.02-.1,0-.03,0-.07-.02-.1-.01-.03-.03-.06-.05-.08-.05-.04-.11-.08-.18-.07s-.13.02-.18.07h0Z"/>
        </g>
        <path class="cls-1" d="M167.61,63.46c4.91-1.97,10.19-2.18,15.41-1.96s10.36.65,15.52,1.09c2.49.21,5.07.35,7.5.98,1.02.26,1.9.66,2.57,1.48,2.81,3.4,2.51,8.65.88,12.49-.83,1.96-2.09,3.73-3.8,5-1.61,1.2-3.51,1.94-5.42,2.53-4.47,1.37-9.17,2.43-13.86,2.51-2.36.04-4.71-.15-7.05-.43-2.78-.34-5.59-.75-8.32-1.39s-5.29-1.66-7.37-3.53c-1.88-1.69-3.43-4-4-6.49-.98-4.26,1.84-8.67,5.3-10.93.83-.54,1.71-.98,2.63-1.36.29-.12.17-.6-.13-.48-3.69,1.51-6.85,4.37-8.05,8.26-1.55,4.99,1.62,10.2,5.83,12.81,2.39,1.48,5.16,2.16,7.9,2.66s5.61.93,8.43,1.19c2.43.22,4.88.28,7.31.07s4.83-.7,7.2-1.27c4.15-1,8.76-2.03,11.68-5.4s4.11-8.41,3.07-12.71c-.45-1.86-1.44-4.11-3.28-5.01-1.67-.81-3.71-.95-5.53-1.15-4.65-.52-9.33-.8-14-1.13-5.57-.39-11.3-.8-16.8.48-1.28.3-2.54.7-3.76,1.19-.29.12-.17.6.13.48Z"/>
      </g>
      <g>
        <g>
          <path class="cls-1" d="M55.54,83.2c-.53-.87-.33-1.97.05-2.86.42-.97,1.29-2.07,2.43-2.13s1.6,1.16,1.51,2.11c-.1,1.16-.75,2.35-1.64,3.1-.36.31-.9.66-1.41.55-.4-.09-.73-.44-.95-.78-.17-.27-.61-.02-.43.25.24.37.56.72.97.91.51.24,1.06.13,1.54-.13,1.23-.67,2.1-2.08,2.36-3.43.22-1.15-.08-2.64-1.36-3.01s-2.5.69-3.13,1.69c-.71,1.13-1.12,2.77-.37,3.98.17.27.6.02.43-.25Z"/>
          <path class="cls-1" d="M60.66,81.45c.86.08,1.71.28,2.52.58.13.05.27-.05.31-.17.04-.14-.05-.26-.17-.31-.85-.32-1.74-.52-2.65-.6-.13-.01-.25.12-.25.25,0,.15.12.24.25.25h0Z"/>
          <path class="cls-1" d="M63.98,79.56c-.58.09-.99.58-1.38.98-.46.47-.9.96-1.33,1.47-.84,1-1.61,2.06-2.29,3.17-.17.27.26.53.43.25.65-1.05,1.36-2.05,2.15-3,.38-.46.77-.9,1.18-1.33.37-.39.8-.97,1.36-1.06.32-.05.18-.53-.13-.48h0Z"/>
          <path class="cls-1" d="M64.86,80.67c-.82,1-1.6,2.02-2.34,3.08-.37.53-.73,1.07-1.07,1.61-.17.26-.36.52-.49.8-.08.17-.09.35.06.49.09.09.26.1.35,0,.56-.6,1.23-1.34,2.1-1.43.31-.03.07.29-.01.45-.09.18-.2.35-.31.51-.27.37-.61.68-.99.93-.27.18-.02.61.25.43.51-.33.95-.76,1.28-1.27.22-.34.76-1.14.26-1.46-.42-.27-1.11.03-1.5.25-.55.32-1.01.78-1.44,1.25h.35l-.04-.04.07.18c-.02-.18.28-.51.38-.67.15-.24.3-.48.46-.71.3-.45.61-.9.92-1.35.65-.92,1.34-1.81,2.06-2.69.2-.25-.15-.6-.35-.35h0Z"/>
          <path class="cls-1" d="M64.72,86.06c.44.4,1.11.59,1.62.18.42-.34.45-1.07-.05-1.36-.57-.33-1.17.19-1.48.63-.33.47-.51,1.05-.51,1.62,0,.53.2,1.68.98,1.35.12-.05.15-.24.09-.34-.08-.13-.22-.14-.34-.09.03,0,.03,0,0-.01-.02,0-.03-.02-.05-.04-.04-.04-.06-.12-.08-.17-.03-.11-.06-.22-.08-.33-.04-.22-.04-.46,0-.68.06-.46.27-.93.59-1.26.13-.14.37-.33.57-.26.16.05.21.25.16.39-.06.18-.27.28-.45.29-.24.01-.46-.11-.63-.27-.24-.22-.59.14-.35.35h0Z"/>
          <path class="cls-1" d="M67.66,85.27l-1.62,3.22c-.14.29.28.54.43.25.33-.64.67-1.3,1.21-1.79.24-.22.55-.42.88-.41.25,0,.53.19.53.45,0,.32.51.32.5,0-.01-.42-.3-.75-.68-.89-.42-.16-.89-.01-1.25.23-.77.51-1.21,1.36-1.63,2.16l.43.25,1.62-3.22c.14-.29-.29-.54-.43-.25h0Z"/>
          <path class="cls-1" d="M52.75,84.25c-.27.66-.53,1.32-.77,1.99-.23.63-.52,1.28-.48,1.96,0,.15.16.3.32.24.36-.12.61-.39.86-.66s.52-.56.79-.84c.51-.55,1.05-1.07,1.72-1.43.28-.15.03-.58-.25-.43-.64.35-1.19.84-1.69,1.37-.25.26-.49.53-.74.8-.23.25-.49.6-.82.71l.32.24c-.03-.65.27-1.29.49-1.9.24-.65.49-1.29.75-1.92.05-.13-.06-.27-.17-.31-.14-.04-.26.05-.31.17h0Z"/>
          <path class="cls-1" d="M53.77,87.77c.51.34,1.2.42,1.76.17.27-.12.52-.33.61-.62s0-.62-.24-.8c-.54-.4-1.17.02-1.61.37s-.85.84-.94,1.42.1,1.23.63,1.55c.28.17.53-.27.25-.43-.29-.18-.42-.52-.41-.85,0-.39.22-.74.48-1.02.15-.15.31-.29.48-.42s.36-.27.58-.28c.14,0,.31.05.32.21.01.19-.15.33-.31.41-.43.22-.96.13-1.35-.13-.27-.18-.52.25-.25.43h0Z"/>
          <path class="cls-1" d="M58.18,87.96c-1.2-.95-3.59.36-2.82,1.93.17.36.51.6.9.64.13.01.25-.12.25-.25,0-.15-.12-.24-.25-.25-.24-.02-.44-.26-.51-.51-.09-.29,0-.59.2-.82.23-.27.55-.44.89-.52.32-.08.72-.08.99.14.11.08.25.1.35,0,.09-.09.11-.27,0-.35h0Z"/>
          <path class="cls-1" d="M58.81,88.14c-.61.75-1.16,1.54-1.64,2.37-.16.28.27.53.43.25.46-.8.98-1.56,1.56-2.27.09-.1.1-.25,0-.35-.09-.09-.27-.11-.35,0h0Z"/>
          <path class="cls-1" d="M58.12,89.94c.05-.04.1-.07.16-.1.03-.02.06-.03.08-.04,0,0,.09-.04.05-.02.11-.05.22-.08.34-.1.03,0,.06-.01.09-.02-.05,0,.04,0,.05,0,.06,0,.11,0,.17,0,.06,0,.13,0,.19.01-.05,0,.04,0,.05,0,.03,0,.06.01.09.02.13.03.28-.04.31-.17s-.04-.27-.17-.31c-.57-.14-1.19-.03-1.66.31-.11.08-.17.22-.09.34.07.11.23.17.34.09h0Z"/>
          <path class="cls-1" d="M57.87,89.77c.3.55.45,1.17.45,1.8,0,.32.5.32.5,0,0-.72-.18-1.42-.52-2.05-.15-.28-.59-.03-.43.25h0Z"/>
          <path class="cls-1" d="M60.48,89.74c-.53.78-.99,1.59-1.38,2.45-.06.12-.03.27.09.34.11.06.29.03.34-.09.39-.85.85-1.67,1.38-2.45.08-.11.02-.28-.09-.34-.12-.07-.27-.02-.34.09h0Z"/>
          <path class="cls-1" d="M60.56,91.01c.46-.13.94-.13,1.39,0,.13.03.28-.04.31-.17s-.04-.27-.17-.31c-.54-.15-1.12-.14-1.66,0-.13.03-.22.18-.17.31s.17.21.31.17h0Z"/>
          <path class="cls-1" d="M60.28,91.02c.25.59.36,1.23.33,1.87,0,.14.12.25.25.25.14,0,.24-.11.25-.25.03-.73-.11-1.45-.4-2.12-.05-.12-.24-.15-.34-.09-.13.08-.14.22-.09.34h0Z"/>
          <path class="cls-1" d="M61.9,93.48c.32-.57.68-1.1,1.11-1.58l-.35-.35s-.05.06-.08.09c-.09.1-.1.25,0,.35.09.09.27.1.35,0,.03-.03.05-.06.08-.09.09-.1.1-.25,0-.35-.09-.09-.26-.1-.35,0-.46.52-.86,1.08-1.19,1.68-.07.12-.03.27.09.34s.28.03.34-.09h0Z"/>
          <path class="cls-1" d="M63,90.92s0,0,0,0l-.03-.06s0,.02,0,.03v-.07s0,.02,0,.04v-.07s0,.02,0,.04l.03-.06s-.01.02-.02.03l.04-.05s-.01.01-.02.02l.42.24s0-.02,0-.02l-.03.06s.04-.08.07-.11l-.04.05s.06-.06.09-.09l-.05.04s.02-.02.03-.02l-.19.03s0,0,0,0l-.06-.03s0,0,.01,0l-.05-.04s.01,0,.02.02l-.04-.05s0,.01.01.02l-.03-.06s0,.02,0,.03v-.07s0,.02,0,.03v-.07s0,.02,0,.02l.03-.06s0,.01,0,.02l.04-.05s0,0-.01.01l.05-.04s0,0,0,0h.25s-.02,0-.03-.02l.05.04s-.02-.01-.02-.02l.04.05s-.01-.02-.02-.03l.03.06s0-.02,0-.04v.07s0-.02,0-.04v.07s0-.02,0-.03l-.03.06s0,0,0-.01l-.28.11h0s-.04-.02-.06-.02c0,0,.01,0,.02.01l-.05-.04s.01,0,.02.02l-.04-.05s0,.01.01.02l-.03-.06s0,.02,0,.03v-.07s0,.02,0,.03v-.07s0,.01,0,.02l.03-.06s0,.01-.01.02c-.02.03-.03.06-.03.09,0,.03,0,.07,0,.1,0,.03.02.06.04.09.02.03.04.05.07.06.06.03.13.05.19.03l.06-.03s.07-.05.09-.09c.02-.02.03-.06.04-.08,0,0,0-.01,0-.02.01-.06.01-.11,0-.18s-.04-.1-.08-.15-.09-.07-.14-.09h-.07s-.07,0-.1.01c-.02,0-.04.02-.06.03-.03.02-.05.04-.06.07-.02.03-.03.06-.04.09s-.01.07-.01.1c0,.03,0,.05.01.08,0,0,0,.01,0,.02.01.03.02.06.04.09.04.05.08.11.14.14.05.02.08.04.13.04.04,0,.09-.01.13-.04.02-.01.04-.03.06-.05.02-.02.04-.05.06-.07.03-.06.03-.09.04-.15,0-.03,0-.07,0-.1-.01-.06-.05-.12-.09-.16-.01-.01-.02-.02-.04-.03-.01,0-.02-.02-.04-.03-.04-.02-.09-.04-.14-.04h-.07s-.04.03-.06.03c0,0,0,0-.01,0-.04.03-.08.06-.12.1-.04.04-.07.09-.1.13s-.05.1-.07.16v.07s0,.07.01.1c0,.02.02.04.03.06.02.03.04.05.07.06l.06.03h.07s.07,0,.1-.01c.03-.01.06-.03.08-.05,0,0,.01-.01.02-.02.02-.02.04-.04.05-.07.02-.03.03-.07.04-.1s.01-.07.01-.11c0-.03,0-.06-.01-.08s-.02-.05-.03-.08c-.02-.03-.04-.05-.06-.07-.02-.02-.05-.04-.09-.04-.03-.01-.07-.01-.1,0-.03,0-.06.01-.09.03-.05.03-.1.09-.11.15v.07s0,.09.03.13h0Z"/>
          <path class="cls-1" d="M63.11,92.86c.4.17.85.12,1.19-.15.3-.23.67-.8.33-1.16s-.94.21-1.16.48c-.27.33-.46.73-.54,1.15-.09.49-.03.97.18,1.42.06.12.23.15.34.09.13-.07.15-.22.09-.34-.3-.66-.14-1.5.34-2.04.06-.07.13-.13.2-.19s.15-.1.22-.15c.02,0,.03-.02.05-.03-.03-.03-.06-.06-.1-.06,0,0-.01.08,0,.07-.01.07-.05.14-.09.21-.16.23-.52.39-.8.27-.12-.05-.27-.04-.34.09-.06.11-.03.29.09.34h0Z"/>
          <path class="cls-1" d="M66.56,92.46c-.36-.09-.75-.08-1.11.03-.32.1-.74.3-.87.63-.16.39.19.73.43.99.11.11.22.22.3.35.04.05.07.11.09.17.01.03.01.07.03.09.02.04-.02,0,.01,0-.4.08-.86-.12-1.24-.25-.13-.05-.27.05-.31.17-.04.14.05.26.17.31.39.14.79.29,1.22.28.19,0,.4-.03.53-.18s.14-.38.06-.57c-.13-.33-.38-.57-.62-.83-.07-.07-.24-.22-.23-.33s.23-.21.31-.25c.33-.17.72-.22,1.08-.13.31.07.45-.41.13-.48h0Z"/>
        </g>
        <path class="cls-1" d="M30.1,62.31c1.02-.29,2.14-.37,3.18-.56,1.99-.36,3.97-.75,5.97-.99,2.88-.34,5.79-.45,8.69-.43s5.62.07,8.41.35c4.89.5,10.08,2.04,13.28,6.03,1.63,2.02,2.45,4.53,2.88,7.06s.62,5.36.57,8.03c-.09,5.02-1.55,10.54-5.94,13.5-2.11,1.42-4.6,2.1-7.06,2.63-2.78.6-5.58,1.06-8.41,1.34-5.64.57-11.39.46-16.94-.75-2.59-.56-5.17-1.41-7.17-3.21-1.76-1.58-3-3.68-3.76-5.9s-1.12-4.63-1.17-7.02.02-4.88.3-7.28.93-4.51,1.84-6.65c.71-1.67,1.57-3.35,2.87-4.65.7-.69,1.52-1.23,2.46-1.52.31-.09.18-.58-.13-.48-3.64,1.12-5.37,5.33-6.51,8.63-.85,2.47-1.14,5.04-1.25,7.64s-.2,5.02.16,7.51c.68,4.77,2.94,9.58,7.44,11.82,2.53,1.26,5.41,1.79,8.19,2.18s5.76.55,8.65.48,5.95-.36,8.9-.82c2.74-.42,5.54-.9,8.17-1.79,2.4-.81,4.59-2.09,6.21-4.06,1.52-1.85,2.51-4.09,3.05-6.42.66-2.82.69-5.75.52-8.63-.16-2.63-.42-5.32-1.26-7.83-1.59-4.71-5.5-7.8-10.15-9.25-2.77-.86-5.68-1.17-8.56-1.31-3.04-.15-6.09-.2-9.13-.09-2.67.09-5.34.34-7.97.79-1.96.34-3.91.74-5.87,1.05-.19.03-.39.05-.57.1-.31.09-.18.57.13.48Z"/>
      </g>
      <path class="cls-1" d="M73.46,65.56c5.26-1.25,10.57-2.28,15.91-3.06s11.16-1.48,16.76-1.78c6.18-.34,12.4-.16,18.55.52,4.82.53,9.58,1.41,14.32,2.41,6.66,1.4,13.23,3.22,19.66,5.47.4.14.81-.38.56-.73-1.62-2.38-3.23-4.76-4.85-7.14-.36-.53-1.23-.03-.86.5,1.62,2.38,3.23,4.76,4.85,7.14l.18-.68c-2.96,1.69-5.93,3.37-8.89,5.06-.56.32-.06,1.18.5.86,2.96-1.69,5.93-3.37,8.89-5.06.22-.13.33-.46.18-.68-1.62-2.38-3.23-4.76-4.85-7.14-.36-.53-1.23-.03-.86.5,1.62,2.38,3.23,4.76,4.85,7.14l.56-.73c-10.34-3.62-21.15-6.24-32.02-7.65-6.26-.81-12.58-1.11-18.89-.88-5.51.21-11.01.83-16.47,1.56-6.18.83-12.31,1.96-18.37,3.41-.63.15-.36,1.11.27.96h0Z"/>
      <g>
        <path class="cls-1" d="M25.01,74.97c1.28-1.05,2.59-2.09,4.07-2.85.29-.15.03-.58-.25-.43-1.52.78-2.85,1.85-4.17,2.93-.25.2.11.56.35.35h0Z"/>
        <path class="cls-1" d="M26.21,71.19c.37,1.42.77,2.83,1.19,4.23.21.68.42,1.35.64,2.02.18.56.33,1.19.76,1.62.23.23.58-.13.35-.35-.45-.45-.58-1.25-.77-1.84-.2-.63-.4-1.25-.59-1.88-.39-1.3-.76-2.62-1.11-3.94-.08-.31-.56-.18-.48.13h0Z"/>
        <path class="cls-1" d="M29.52,70.98c.35,1.2.71,2.41,1.08,3.6.18.58.36,1.16.55,1.73.16.48.3.98.69,1.32.13.11.3.09.39-.05.16-.23.1-.49.06-.75-.06-.38-.12-.75-.18-1.13-.11-.78-.17-1.61.09-2.37.02-.05.09-.17.05-.18-.04,0,.08.17.1.21.09.18.17.38.23.57.12.34.2.69.27,1.05.14.75.19,1.52.23,2.28.02.32.52.32.5,0-.05-.88-.11-1.77-.29-2.63-.09-.43-.22-.84-.39-1.25-.12-.28-.28-.71-.64-.74s-.49.39-.57.66c-.12.41-.17.85-.17,1.28,0,.46.06.92.13,1.37.04.24.07.48.11.71.03.18.14.5.04.66l.39-.05c-.41-.36-.52-.97-.68-1.47-.17-.53-.34-1.07-.5-1.61-.34-1.12-.67-2.24-1-3.36-.09-.31-.57-.18-.48.13h0Z"/>
        <path class="cls-1" d="M33.86,73.86c.6.04,1.23-.01,1.79-.26.36-.16.73-.47.74-.89.02-.46-.37-.84-.67-1.13-.4-.4-.85-.92-1.41-1.1-.38-.12-.82.03-1.03.37-.15.25-.15.55-.11.83.04.32.09.64.15.96.17.81.48,1.61.9,2.33.29.49.71.81,1.28.9s1.16-.05,1.69-.3c.29-.14.04-.57-.25-.43-.68.31-1.65.45-2.15-.22-.26-.35-.43-.78-.6-1.17,0-.01-.15-.37-.09-.2,0-.02-.02-.04-.02-.06-.04-.1-.07-.21-.1-.31-.12-.4-.2-.81-.26-1.21-.05-.33-.18-.96.27-1.02.35-.04.71.36.94.57.31.29.72.6.92.99.16.31-.11.51-.36.64-.49.25-1.08.27-1.61.23-.32-.02-.32.48,0,.5h0Z"/>
        <path class="cls-1" d="M40.1,67.23c1.01-.8,2.15-1.46,3.35-1.93.15-.06.69-.35.84-.29.18.06.09.14.04.28-.06.16-.12.32-.19.48-.22.54-.49,1.06-.78,1.56-1.13,1.96-2.57,3.76-3.26,5.95-.06.19.13.35.31.31.65-.17,1.22-.72,1.76-1.09.6-.42,1.2-.83,1.8-1.25.55-.38,1.18-.73,1.67-1.17.31-.28.31-.73-.11-.89-.3-.11-.43.37-.13.48-.1-.04-.54.36-.65.43-.21.14-.41.29-.62.43-.44.3-.88.61-1.31.91-.41.29-.83.58-1.24.86s-.83.68-1.3.8l.31.31c.82-2.63,2.79-4.67,3.9-7.17.18-.39.61-1.1.36-1.53-.28-.49-1.02-.09-1.39.05-1.34.51-2.58,1.22-3.71,2.11-.25.2.1.55.35.35h0Z"/>
        <path class="cls-1" d="M41.42,69.27c1.08-.32,2.13-.73,3.14-1.23.29-.14.04-.57-.25-.43-.97.48-1.98.87-3.02,1.18-.31.09-.18.57.13.48h0Z"/>
        <path class="cls-1" d="M46.45,67.93c.63-.37,1.06-1.02,1.15-1.74.04-.34.03-.72-.16-1.01s-.53-.42-.85-.27c-.78.36-.55,1.46-.4,2.11.19.78.48,1.58,1.17,2.06s1.63.38,2.08-.32c.18-.27-.26-.52-.43-.25-.28.43-.87.45-1.27.22-.5-.28-.77-.82-.93-1.35-.09-.3-.17-.61-.22-.92-.05-.28-.1-.62.03-.88.08-.15.25-.33.39-.14.14.17.12.46.1.67-.06.58-.41,1.11-.92,1.4-.28.16-.03.59.25.43h0Z"/>
        <path class="cls-1" d="M47.92,64.84c.51,1,1.06,1.97,1.66,2.92.17.28.57.04.43-.25-.31-.64-.5-1.35-.53-2.06-.02-.34-.02-.7.05-1.03.03-.16.23-.62.46-.39s.58-.13.35-.35c-.29-.29-.77-.23-1.03.07-.3.33-.32.82-.33,1.25-.03.96.18,1.92.6,2.78l.43-.25c-.6-.95-1.15-1.92-1.66-2.92-.15-.29-.58-.03-.43.25h0Z"/>
        <path class="cls-1" d="M51.81,62.89c-.4.25-.44.76-.49,1.19-.06.5.01.98.16,1.46.25.81.54,1.79,1.55,1.82.88.03,1.67-.63,1.69-1.53.02-.74-.34-1.51-.81-2.05s-1.37-1.27-2.1-.88c-.29.15-.03.58.25.43.14-.07.37,0,.54.06.27.12.52.3.73.51.42.41.72.93.84,1.51.07.3.07.64-.09.92s-.47.44-.78.51c-.29.06-.59.02-.81-.2-.25-.26-.34-.64-.45-.97-.13-.4-.26-.81-.25-1.24,0-.22.03-.45.07-.67.03-.15.06-.34.19-.43.27-.17.02-.6-.25-.43Z"/>
        <path class="cls-1" d="M30.98,80.15c1.24,1.65,2.65,3.16,4.23,4.5.13.11.38.09.42-.11.11-.51.04-1-.04-1.5-.08-.55-.16-1.1-.24-1.65-.17-1.14-.33-2.29-.5-3.43-.05-.32-.53-.18-.48.13.15,1.06.31,2.12.46,3.17.07.51.15,1.02.22,1.52s.21,1.09.09,1.62l.42-.11c-1.54-1.3-2.94-2.78-4.15-4.4-.19-.25-.62,0-.43.25h0Z"/>
        <path class="cls-1" d="M37.29,81.32c.61-.65,1.13-1.43,1.45-2.27.15-.41.02-.81-.44-.89-.4-.07-.85-.02-1.21.2-.73.44-.81,1.4-.63,2.16s.68,1.48,1.39,1.81c.8.38,1.78.29,2.46-.29.25-.21-.11-.56-.35-.35-.44.38-1.07.46-1.62.3-.58-.17-1.03-.64-1.27-1.19-.22-.52-.32-1.26,0-1.75.16-.24.45-.37.73-.4.11-.01.35-.04.46.02.09.05,0,.23-.04.31-.3.74-.75,1.42-1.3,2-.22.23.13.59.35.35h0Z"/>
        <path class="cls-1" d="M41.5,76.59c-.53.08-.88.53-1.07,1-.24.58-.27,1.27-.12,1.88.14.57.47,1.1,1.12,1.08s1.28-.23,1.85-.53c.28-.15.03-.58-.25-.43-.45.24-.94.4-1.44.45-.22.02-.42.02-.57-.16-.13-.17-.19-.4-.24-.6-.1-.48-.07-1,.1-1.46.13-.35.37-.68.76-.74.13-.02.21-.19.17-.31-.04-.14-.17-.19-.31-.17h0Z"/>
        <path class="cls-1" d="M42.85,75.37c.22.75.47,1.48.74,2.21.13.36.28.72.42,1.07.06.15.12.32.26.41s.31.08.43-.04c.22-.24-.13-.59-.35-.35.17.04.23.02.18-.06-.02-.04-.03-.08-.05-.12-.03-.06-.05-.13-.08-.19-.06-.15-.12-.29-.18-.44-.11-.28-.22-.57-.32-.85-.21-.58-.4-1.17-.58-1.77-.09-.31-.57-.18-.48.13h0Z"/>
        <path class="cls-1" d="M44.47,76.89c.05-.34.12-.68.21-1.02.05-.16.1-.33.16-.49.03-.08.06-.16.09-.24.01-.03.02-.05.03-.07-.01.01,0,0,.01-.01-.05.04-.12.03-.19-.02.1.09.25.1.35,0,.09-.09.1-.26,0-.35-.21-.18-.47-.08-.61.14-.06.09-.09.21-.13.31-.04.11-.08.22-.11.33-.14.42-.24.86-.3,1.3-.02.13.03.27.17.31.12.03.29-.04.31-.17h0Z"/>
        <path class="cls-1" d="M43.89,77.06c.68.34,1.4.58,2.15.71.13.02.27-.04.31-.17.03-.12-.04-.28-.17-.31-.71-.12-1.39-.34-2.03-.66-.12-.06-.27-.03-.34.09-.06.11-.03.28.09.34h0Z"/>
        <path class="cls-1" d="M45.93,74.1c.27,1.12.63,2.22,1.06,3.28.05.12.17.21.31.17.12-.03.23-.18.17-.31-.44-1.07-.79-2.16-1.06-3.28-.08-.31-.56-.18-.48.13h0Z"/>
        <path class="cls-1" d="M46.95,75.82l.73-1.05c.08-.11.02-.28-.09-.34-.13-.07-.26-.03-.34.09l-.73,1.05c-.08.11-.02.28.09.34.13.07.26.03.34-.09h0Z"/>
        <path class="cls-1" d="M46.76,76.02c.6.27,1.22.51,1.84.74.13.05.27-.05.31-.17.04-.14-.05-.26-.17-.31-.58-.21-1.15-.44-1.72-.69-.12-.05-.27-.04-.34.09-.06.11-.03.29.09.34h0Z"/>
        <path class="cls-1" d="M50.25,75.47c-.36-.86-.65-1.75-.86-2.66-.07-.31-.55-.18-.48.13.21.91.49,1.8.86,2.66.05.12.17.21.31.17.12-.03.23-.18.17-.31h0Z"/>
        <path class="cls-1" d="M50.92,73.91c.44-.24.8-.73.77-1.25s-.62-.96-1.07-.57-.16,1.07,0,1.53c.18.52.39,1.05.74,1.49.37.47.99.74,1.56.46.29-.14.03-.58-.25-.43-.41.21-.82-.17-1.03-.49-.27-.4-.44-.86-.59-1.32-.07-.21-.21-.49-.17-.72.02-.13.12-.22.24-.12.14.13.06.39-.01.54-.1.19-.25.34-.44.44-.28.16-.03.59.25.43h0Z"/>
        <path class="cls-1" d="M48.58,71.59s0,.04-.01.05c0,.04-.01.08-.01.12,0,.06,0,.12.03.17l.17-.31s0,0,0,0h.07s-.03,0-.04,0h.07s-.03,0-.04,0l.06.03s-.03-.01-.04-.02l.05.04s-.02-.02-.03-.03l.04.05s-.01-.02-.02-.03l.03.06s0,0,0-.01l-.48.13s.01.04.02.06v-.07s0,.05,0,.08v-.07s0,.03,0,.04c-.01.03-.01.07,0,.1,0,.03.01.06.03.09.02.03.04.05.06.07.02.02.05.04.09.04.06.01.14.01.19-.03s.1-.09.11-.15c.01-.04.01-.07.02-.11,0-.02,0-.03,0-.05,0-.04,0-.07-.01-.11,0-.02,0-.03-.01-.05,0-.03-.02-.06-.04-.09-.02-.03-.04-.05-.07-.06-.03-.02-.06-.03-.09-.03-.03,0-.07,0-.1,0-.06.02-.12.06-.15.11s-.04.13-.03.19c.03.1.09.18.18.24.03.02.07.04.11.05.07.01.12.01.19,0,.03,0,.06-.02.09-.04.03-.02.05-.04.06-.07l.03-.06s.01-.09,0-.13c0-.02-.01-.04-.02-.07v.07s0-.06,0-.09v.07s0-.04,0-.05c.01-.03.01-.07,0-.1,0-.03-.01-.06-.03-.09-.02-.03-.04-.05-.06-.07-.02-.02-.05-.04-.09-.04-.06-.01-.14-.01-.19.03l-.05.04s-.05.07-.06.11h0Z"/>
      </g>
    </g>
  </g>
</svg>