<?xml version="1.0" encoding="UTF-8"?>
<svg id="Layer_2" data-name="Layer 2" xmlns="http://www.w3.org/2000/svg" viewBox="0 0 238.48 109.94">
  <defs>
    <style>
      .cls-1 {
        fill: #231f20;
      }

      .cls-2 {
        fill: #ed1c24;
      }

      .cls-3 {
        fill: #00aeef;
      }
    </style>
  </defs>
  <g id="Layer_1-2" data-name="Layer 1">
    <path class="cls-2" d="M61.26,29.33c-9.6-1.75-19.65-.78-28.79,2.64-5.62,2.1-10.83,5.08-15.47,8.88-6.63,5.41-11.72,12.61-14.77,20.6-1.87,4.9-2.66,10.2-1.99,15.42.61,4.75,2.47,9.03,4.73,13.21,2.04,3.79,4.37,7.4,7.44,10.45,3.89,3.86,8.74,6.57,14.03,7.98,4.86,1.29,9.91,1.52,14.91,1.42,5.1-.1,10.17-.42,15.17-1.45,4.52-.93,9.02-2.32,13.28-4.09,4.93-2.05,9.51-4.89,13.06-8.93,6.58-7.5,9.24-17.61,10.22-27.33.5-5.01.9-10.23-.58-15.11-1.37-4.53-3.87-8.74-7.15-12.15-5.56-5.8-13.17-9.16-20.91-10.9-1.06-.24-2.12-.44-3.19-.64-.63-.12-.9.85-.27.96,6.47,1.19,12.81,3.16,18.32,6.84,7.76,5.17,13.17,13.75,13.22,23.2.03,5.07-.54,10.25-1.57,15.21s-2.52,9.42-4.9,13.66-5.78,8.06-9.94,10.79c-4.57,2.99-9.78,4.8-14.99,6.3-4.07,1.17-8.22,1.95-12.44,2.31-4.87.41-9.87.55-14.75.15-5.15-.42-10.24-1.68-14.74-4.27s-8.07-6.3-10.86-10.59c-.95-1.47-1.8-2.99-2.62-4.53-.99-1.83-1.94-3.68-2.69-5.63-1.96-5.07-2.52-10.57-1.55-15.92.75-4.1,2.33-7.95,4.29-11.61,2.24-4.19,4.96-8.02,8.32-11.38,3.88-3.87,8.39-7.07,13.28-9.53,8.86-4.45,18.88-6.44,28.77-5.62,1.63.13,3.24.34,4.85.64.63.11.9-.85.27-.96Z"/>
    <path class="cls-3" d="M181.62,26.02c-7.19,1.23-14.21,3.71-20.36,7.66-8.79,5.65-15.49,14.35-18.36,24.43-1.33,4.67-1.81,9.6-1.15,14.41s2.69,9.61,5.68,13.69c2.38,3.25,5.2,6.14,8.13,8.9,3.63,3.43,7.68,6.4,12.21,8.53,5.52,2.61,11.54,3.94,17.62,4.23,4.94.23,9.87-.23,14.76-.95,5.27-.78,10.65-1.5,15.62-3.52s9.39-5.06,13-8.95c4.93-5.3,8.42-12.16,9.41-19.36.71-5.2.07-10.45-1.5-15.44-1.05-3.31-2.44-6.53-3.91-9.67-1.62-3.49-3.58-6.81-6-9.8-3.19-3.94-7.15-7.22-11.59-9.66-9.05-4.98-19.64-6.33-29.8-5.08-1.26.16-2.51.35-3.75.56-.63.11-.36,1.07.27.96,8.2-1.4,16.63-1.4,24.65,1.01,5.45,1.64,10.61,4.36,14.91,8.11,3.24,2.82,5.95,6.19,8.12,9.89,1.62,2.76,2.91,5.69,4.16,8.63,1.69,3.98,3.07,8.11,3.55,12.42.88,7.79-1.24,15.47-5.51,21.97-2.47,3.76-5.63,7.05-9.32,9.62-4.65,3.25-9.88,5.13-15.43,6.16-9.98,1.86-20.38,3.22-30.4.87-5.66-1.33-10.98-3.81-15.64-7.28-2.99-2.22-5.7-4.83-8.28-7.51-3.42-3.55-6.58-7.57-8.36-12.22-1.67-4.35-2.17-9.07-1.73-13.69.94-10.02,6.12-19.52,13.57-26.2,6.38-5.72,14.4-9.4,22.72-11.23.99-.22,1.99-.41,2.99-.58.63-.11.36-1.07-.27-.96Z"/>
    <g>
      <path class="cls-1" d="M116.39,19.53c1.71-.24,3.34-1,4.97-1.58,1.53-.54,3.07-1.08,4.56-1.73.59-.25.08-1.12-.5-.86-1.47.63-2.99,1.15-4.49,1.69s-3.14,1.29-4.8,1.52c-.63.09-.36,1.05.27.96h0Z"/>
      <path class="cls-1" d="M120.78,17.56c-.41,3.37-.76,6.74-1.05,10.12h1c0-.12.02-.24.03-.37.05-.64-.95-.64-1,0,0,.12-.02.24-.03.37-.05.64.94.64,1,0,.29-3.38.64-6.75,1.05-10.12.08-.64-.92-.63-1,0h0Z"/>
    </g>
    <path class="cls-2" d="M27,6.34c1.8,7.85,4.4,15.49,7.74,22.81.23.5.89.19.93-.25.33-3.54,1.35-6.96,2.57-10.29s2.68-6.8,4.05-10.19c.24-.6-.73-.86-.96-.27-2.7,6.69-5.97,13.48-6.65,20.75l.93-.25c-3.31-7.24-5.86-14.81-7.64-22.58-.14-.63-1.11-.36-.96.27h0Z"/>
    <path class="cls-3" d="M179.54.63c1.15,7.55,3.5,14.89,6.92,21.71.16.32.7.33.86,0,1.5-3.11,3-6.23,4.5-9.34.36-.75.72-1.5,1.08-2.25.11-.23.24-.63.5-.74.37-.16.63.33.79.61.78,1.44,1.33,3.06,1.98,4.57.32.75.64,1.49.96,2.24.23.54.48,1.1.93,1.5.89.8,1.99.37,2.65-.48.42-.54.72-1.16,1.05-1.75.42-.74.85-1.48,1.29-2.22.8-1.34,1.62-2.66,2.46-3.96.97-1.5,1.98-2.98,3.01-4.44.54-.76,1.09-1.52,1.65-2.26.48-.64,1.01-1.66,1.73-2.02.58-.29.07-1.15-.5-.86s-.92.83-1.31,1.35c-.49.65-.98,1.3-1.47,1.96-.96,1.32-1.9,2.66-2.81,4.01-1.82,2.71-3.54,5.49-5.14,8.34-.3.54-.62,1.35-1.2,1.66-.68.37-1.08-.48-1.31-.97-.7-1.52-1.33-3.09-1.99-4.63-.33-.77-.64-1.56-1-2.32-.24-.52-.6-1.08-1.16-1.3-1.37-.54-1.96,1.18-2.41,2.09-1.72,3.56-3.43,7.13-5.15,10.69h.86c-3.39-6.75-5.68-14.01-6.82-21.47-.1-.63-1.06-.36-.96.27h0Z"/>
    <g>
      <path class="cls-1" d="M90.12,43.35c5.97-5.04,13.22-8.68,20.92-10.31,3.81-.8,7.72-1.22,11.62-1.07,2.78.1,5.54.51,8.21,1.28,1.2.35,2.37.81,3.53,1.27,4.83,1.88,9.67,3.64,13.93,6.65,1.05.75,2.05-.99,1.01-1.73-4.02-2.85-8.53-4.54-13.08-6.33-1.38-.54-2.75-1.1-4.16-1.57-2.41-.8-4.96-1.22-7.48-1.44-8.95-.79-18.32,1.27-26.28,5.37-3.45,1.78-6.68,3.97-9.65,6.47-.98.83.44,2.24,1.41,1.41h0Z"/>
      <path class="cls-1" d="M144.65,31.86c.91,2.47,1.75,5.03,2.95,7.38.06.12.13.39.22.46.15.12-.09,0,.07-.05-.14.04-.28.11-.42.15-.87.28-1.74.54-2.62.77-1.83.48-3.69.84-5.56,1.1-1.11.15-.85,2.05.27,1.96.21-.02.42-.03.63-.05.54-.04,1-.43,1-1,0-.51-.46-1.04-1-1-.21.02-.42.03-.63.05l.27,1.96c2.08-.29,4.15-.71,6.17-1.27.92-.25,1.9-.47,2.76-.88.92-.44,1.28-1.4.97-2.35-.15-.48-.44-.93-.65-1.39-.22-.48-.39-.88-.58-1.36-.67-1.66-1.3-3.34-1.92-5.02-.19-.51-.68-.85-1.23-.7-.49.13-.89.72-.7,1.23h0Z"/>
    </g>
    <g>
      <path class="cls-1" d="M113.36,34.92c-.52.44-.82,1.04-1.03,1.67-.24.71-.46,1.46-.64,2.19-.3,1.21-.17,2.86,1.24,3.28.31.09.44-.39.13-.48-1.34-.41-1.05-2.14-.76-3.14.32-1.08.51-2.4,1.41-3.17.25-.21-.11-.56-.35-.35h0Z"/>
      <path class="cls-1" d="M114.33,36.28c-.11,1.43-.19,2.85-.22,4.28,0,.32.49.32.5,0,.03-1.43.11-2.86.22-4.28.03-.32-.47-.32-.5,0h0Z"/>
      <path class="cls-1" d="M116.46,40.32c-.02-.68.08-1.34.28-1.99.1-.31-.39-.44-.48-.13-.22.68-.32,1.41-.3,2.12,0,.32.51.32.5,0h0Z"/>
      <path class="cls-1" d="M116.64,36.45h-.04c-.32,0-.32.5,0,.5h.04c.32,0,.32-.5,0-.5h-.04c-.32,0-.32.5,0,.5h.04c.32,0,.32-.5,0-.5h0Z"/>
      <path class="cls-1" d="M117.35,37.48c-.03,1.01.1,2.03.38,3,.07.26.51.22.49-.07-.04-.55.04-1.05.18-1.58.08-.29.13-.74.38-.94.12-.09.34-.16.48-.09.13.07.15.28.17.41.05.36.03.73,0,1.09-.03.32-.06.6-.11.9-.02.13.03.27.17.31.12.03.29-.04.31-.17.12-.75.24-1.58.09-2.34-.05-.23-.15-.46-.34-.6-.23-.16-.54-.15-.79-.06-.46.17-.64.58-.76,1.02-.18.67-.33,1.34-.28,2.05l.49-.07c-.27-.93-.39-1.9-.36-2.87,0-.32-.49-.32-.5,0h0Z"/>
      <path class="cls-1" d="M121.02,39.31c.52-.12.97-.42,1.27-.86s.5-1.2-.08-1.54c-.61-.36-1.33.34-1.58.85-.3.61-.26,1.33,0,1.95.28.64.89,1.14,1.63.97.31-.07.18-.55-.13-.48-.43.1-.79-.21-.98-.57-.22-.4-.3-.91-.18-1.36.06-.23.18-.44.34-.61.13-.14.35-.36.56-.34.17.01.23.2.21.35-.02.19-.12.37-.22.52-.02.03-.05.07-.07.1-.03.04.03-.03,0,0-.1.12-.21.22-.33.31-.18.11-.37.19-.57.23-.31.07-.18.55.13.48h0Z"/>
      <path class="cls-1" d="M125,37.53c-.12.89-.24,1.78-.36,2.68l.49.07c0-.36-.03-.73-.07-1.09-.06-.49-.12-1.09-.42-1.51-.17-.24-.48-.41-.78-.37-.28.03-.5.23-.67.44-.43.53-.68,1.23-.38,1.89.36.8,1.34,1.12,2.14.87.31-.09.18-.58-.13-.48-.54.16-1.19,0-1.5-.5-.15-.25-.18-.54-.1-.82.04-.12.09-.24.15-.35.02-.04.05-.08.08-.13.01-.02.03-.04.05-.07,0,0,.06-.09.03-.04.11-.14.23-.28.4-.33,0,0,.02,0,.02,0,.04,0-.06-.02.01,0,.07.02.14.04.19.08.02.02.04.03.06.05.04.04-.03-.04,0,.01.02.02.03.05.05.07.09.15.14.34.19.54.05.23.09.46.11.67.04.35.06.7.07,1.04,0,.12.09.23.22.25.11.01.26-.05.27-.18.12-.89.24-1.78.36-2.68.02-.13-.03-.27-.17-.31-.12-.03-.29.04-.31.17h0Z"/>
      <path class="cls-1" d="M126.13,37.62c.05.7.11,1.41.17,2.11.02.25.02.51.08.76.05.21.34.3.47.09.07-.12.04-.31.04-.43.01-.57.07-1.15.27-1.68.06-.15.14-.3.23-.43.05-.06.1-.13.17-.17.02-.01.03-.02.05-.03-.02.01,0,0,0,0,0,0,.04,0,0,0-.04,0,0,0,0,0,0,0,.02,0,.03.01.01,0,.03.02.05.04.04.04.08.09.11.15.06.11.07.12.1.23.1.31.58.18.48-.13-.08-.26-.22-.54-.45-.7-.37-.25-.74.02-.97.32-.43.59-.54,1.39-.58,2.1,0,.14-.01.27-.01.41,0,.04,0,.09,0,.13,0,.07,0,.03,0,0l.06-.11h0c.08-.02.16-.04.24-.06h0s.07.04.11.06c.02.01.08.16.06.07-.02-.06,0,.07,0,.02,0-.02,0-.04,0-.06-.02-.15-.03-.29-.04-.44-.07-.75-.12-1.5-.18-2.24-.02-.32-.52-.32-.5,0h0Z"/>
      <path class="cls-1" d="M128.99,36.19c-.18.89-.25,1.8-.22,2.71,0,.22.27.32.43.18.04-.03.08-.07.11-.1.24-.22-.12-.57-.35-.35-.04.03-.08.07-.11.1l.43.18c-.03-.86.04-1.73.2-2.58.03-.13-.04-.27-.17-.31-.12-.03-.28.04-.31.17h0Z"/>
      <path class="cls-1" d="M129.09,39.85h0s.1.08.15.11h0c0,.06.02.13.03.19h0s-.04.07-.06.11c0,0,0,0,0,0l-.05.04h0s-.08.02-.13.03h0s-.04,0-.07,0h0s-.1-.07-.15-.11h0s-.02-.08-.03-.12h0s0-.04,0-.06h0s.04-.07.06-.1c0,0,0,0-.01.01l.05-.04h0s.04-.01.06-.02c0,0-.01,0-.02,0h.07s-.02,0-.03-.01h.07s-.02,0-.03,0l.06.03s-.02-.01-.04-.02l.05.04s-.02-.02-.03-.03l.04.05s-.02-.02-.02-.04l.03.06s0-.02,0-.03v.07s0-.03,0-.04v.07s0-.02,0-.03l-.03.06s.01-.02.02-.03l-.04.05s.02-.02.03-.03l-.05.04s.02-.01.03-.02l-.06.03s.03,0,.05-.01h-.07s.03,0,.04,0h-.07s.02,0,.04,0l-.06-.03s.02,0,.03.02l-.05-.04s.02.02.03.03l-.04-.05s.01.02.02.03l-.03-.06s.01.03.01.05v-.07s0,.04,0,.06v-.07s0,.04,0,.06l.03-.06s-.03.05-.04.07l.04-.05s-.06.06-.09.09l.05-.04s-.05.04-.08.06c-.07.05-.11.1-.12.18,0,.07,0,.16.07.21.02.01.03.03.05.05l-.04-.05s.03.04.04.07l-.03-.06s.02.06.02.09v-.07s0,.05,0,.08v-.07s0,.05-.01.07l.31-.17s-.03,0-.04-.01l.06.03s-.05-.02-.07-.04l.05.04s-.04-.04-.06-.06l.04.05s-.04-.06-.05-.09l.03.06s-.03-.08-.03-.12v.07s0-.08,0-.12v.07s0-.07.02-.1l-.03.06s.03-.05.05-.08l-.04.05s.03-.04.05-.05l-.05.04s.02-.02.04-.02c.11-.07.16-.23.09-.34s-.22-.16-.34-.09c-.45.26-.35,1.02.15,1.16.06.02.14,0,.19-.03.06-.04.09-.09.11-.15.08-.2,0-.46-.15-.59l-.05.39c.15-.1.3-.22.34-.41.05-.22-.05-.47-.28-.52s-.49.11-.5.36.24.48.48.41c.1-.03.18-.1.21-.2.04-.14-.05-.28-.18-.32-.13-.04-.26.04-.31.16-.06.14.02.31.17.35.13.03.28-.04.31-.17s-.04-.27-.17-.31h0Z"/>
      <path class="cls-1" d="M130.02,35.42c.34,1.02.52,2.08.51,3.15,0,.52-.04,1.04-.14,1.55-.05.23-.11.45-.2.66-.04.09-.26.55-.39.51-.31-.1-.44.38-.13.48.49.16.85-.49,1-.85.23-.54.3-1.14.34-1.72.09-1.32-.08-2.65-.5-3.91-.1-.3-.58-.17-.48.13h0Z"/>
    </g>
    <g>
      <g>
        <g>
          <path class="cls-1" d="M32.53,52.6c-.8-.36-1.75-.33-2.48.18-.61.43-1.17,1.25-.99,2.03.23,1,1.56.8,2.32.77.71-.02,1.98.23,1.62,1.23-.18.49-.65.76-1.13.91-.57.17-1.17.24-1.76.3-.32.03-.32.53,0,.5.88-.08,1.92-.16,2.67-.67.61-.42,1.01-1.24.62-1.94s-1.29-.85-2.02-.82c-.48.02-1.03.11-1.5-.05-.49-.18-.36-.75-.18-1.12.48-.93,1.62-1.32,2.58-.89.29.13.55-.3.25-.43h0Z"/>
          <path class="cls-1" d="M34.6,54.2c-.58.45-.76,1.21-.73,1.92.01.33.07.67.17.99s.25.69.6.82c.38.15.8-.06,1.1-.29.32-.24.58-.55.74-.92.14-.32.2-.66.22-1,.02-.32.04-.64-.01-.95-.07-.4-.28-.78-.68-.91-.45-.15-.98.05-1.35.32-.26.19,0,.62.25.43.24-.17.56-.34.86-.29.27.04.38.3.42.54.08.45.03,1-.09,1.44-.09.31-.25.58-.49.8-.17.17-.47.43-.74.39-.22-.03-.3-.36-.36-.54-.07-.24-.12-.49-.14-.73-.04-.61.07-1.25.58-1.65.11-.08.09-.27,0-.35-.1-.11-.25-.08-.35,0Z"/>
          <path class="cls-1" d="M37.4,54.39c-.02,1.17.14,2.35.46,3.48.09.31.54.18.48-.13-.09-.44-.13-.88-.14-1.33,0-.39-.02-.81.09-1.19.04-.14.1-.28.22-.37.09-.07.12-.08.18,0s.08.2.12.29c.15.41.25.84.29,1.28.03.26.43.36.49.07.09-.46.25-.9.48-1.31.15-.25.32-.49.53-.7.1-.11.21-.21.33-.31.04-.03.22-.12.08-.12-.03,0,0-.01.01.03,0-.02.02.07.02.08.02.07.02.13.03.2.01.24,0,.49-.03.73-.06.61-.17,1.21-.29,1.81-.06.31.42.45.48.13.11-.57.22-1.15.28-1.73.05-.42.11-.88,0-1.3-.1-.36-.42-.55-.77-.33-.45.28-.84.77-1.11,1.23s-.44.95-.55,1.45l.49.07c-.06-.58-.19-1.14-.41-1.68-.1-.23-.24-.44-.51-.45s-.49.16-.64.36c-.3.39-.31.93-.32,1.39-.01.62.05,1.24.16,1.85l.48-.13c-.31-1.09-.46-2.21-.45-3.34,0-.32-.5-.32-.5,0h0Z"/>
          <path class="cls-1" d="M42.78,55.89c.53-.19,1.22-.45,1.4-1.05.14-.47-.12-1.08-.62-1.18-.59-.12-.96.42-1.06.93-.13.66-.08,1.41.18,2.03s.81,1.15,1.48,1.33c.31.08.44-.4.13-.48-.55-.14-.98-.57-1.18-1.1-.12-.32-.17-.65-.17-.99,0-.28,0-.57.09-.84.06-.17.17-.39.38-.39.18,0,.29.19.31.35.07.53-.69.77-1.07.91-.3.11-.17.59.13.48h0Z"/>
          <path class="cls-1" d="M49.59,50.62c-.09,2.21,0,4.42.29,6.61.04.31.54.32.5,0-.29-2.19-.39-4.4-.29-6.61.01-.32-.49-.32-.5,0h0Z"/>
          <path class="cls-1" d="M52.48,56.84l.29-3.75c.02-.32-.48-.32-.5,0l-.29,3.75c-.02.32.48.32.5,0h0Z"/>
          <path class="cls-1" d="M53.76,53.09l.03,3.32c0,.27.45.35.49.07.15-1.14.33-2.41,1.13-3.29.05-.06.11-.11.16-.17.03-.03.06-.05.09-.08.05-.03.04-.04-.03-.04,0,.13.08.29.1.41.07.34.1.69.1,1.04,0,.73-.13,1.44-.38,2.13-.11.3.37.43.48.13.23-.62.36-1.28.39-1.95.01-.33,0-.65-.04-.98s-.07-.65-.18-.94c-.1-.26-.35-.41-.62-.29-.23.11-.43.35-.58.55-.34.44-.58.94-.74,1.47-.19.61-.28,1.24-.37,1.87l.49.07-.03-3.32c0-.32-.5-.32-.5,0h0Z"/>
          <path class="cls-1" d="M57.7,55.13c.54.06,1.1,0,1.59-.24.33-.16.67-.45.75-.83.18-.79-.74-1.73-1.51-1.71-.69.02-1,.86-1.13,1.42-.17.74-.17,1.6.18,2.29.45.89,1.64,1.14,2.52.81.3-.11.17-.59-.13-.48-.59.22-1.43.16-1.84-.39-.35-.47-.37-1.15-.31-1.7.05-.44.17-1.09.55-1.38.05-.04.09-.06.17-.07.14-.01.29.06.41.13.27.16.55.44.62.75s-.18.53-.43.67c-.43.24-.95.27-1.43.22-.32-.04-.32.46,0,.5h0Z"/>
          <path class="cls-1" d="M63.46,53.7v2.62c.17-.02.33-.04.49-.07-.11-.68-.37-1.33-.76-1.89-.34-.51-.85-1.16-1.53-1.17-.36,0-.61.23-.72.56-.12.35-.21.74-.22,1.11-.02.69.32,1.32.89,1.69.66.43,1.54.42,2.21.02.28-.16.03-.6-.25-.43-.45.27-1.04.32-1.51.09s-.79-.65-.83-1.16c-.02-.3.03-.6.11-.89.05-.2.09-.53.37-.49.21.03.41.17.56.32.2.2.37.42.53.65.35.52.58,1.11.68,1.73.05.28.49.21.49-.07v-2.62c0-.32-.5-.32-.5,0h0Z"/>
          <path class="cls-1" d="M64.94,52.22c-.05,1.42.04,2.85.27,4.25.05.29.48.2.49-.07.02-.43.03-.86.05-1.29.02-.39,0-.8.09-1.18.07-.3.21-.6.52-.72.23-.1.51-.1.68.11.2.25.55-.11.35-.35-.52-.65-1.56-.24-1.88.4-.21.42-.23.88-.25,1.34-.02.56-.05,1.13-.07,1.69l.49-.07c-.22-1.36-.31-2.74-.26-4.12.01-.32-.49-.32-.5,0h0Z"/>
          <path class="cls-1" d="M68.52,50.54l-.14,5.89c0,.29.4.33.49.07.04-.12.08-.25.13-.37.1-.31-.38-.44-.48-.13-.04.12-.08.25-.13.37l.49.07.14-5.89c0-.32-.49-.32-.5,0h0Z"/>
          <path class="cls-1" d="M70.44,53.55c-.17.68-.18,1.39,0,2.07.14.53.44,1.13,1.08,1.11.51-.02.67-.48.87-.86.28-.55.6-1.08.91-1.61l-.47-.13c-.08,1.3-.54,2.46-1.29,3.52-.32.45-.71.91-1.25,1.11-.58.21-1.19.07-1.71-.23-.28-.16-.53.27-.25.43.59.33,1.28.49,1.94.32s1.13-.63,1.52-1.14c.9-1.18,1.44-2.53,1.53-4.01.02-.25-.35-.33-.47-.13-.24.42-.49.83-.72,1.25-.14.26-.25.59-.43.83-.16.22-.42.14-.57-.05s-.21-.46-.26-.69c-.12-.55-.1-1.11.04-1.66.08-.31-.4-.45-.48-.13h0Z"/>
          <path class="cls-1" d="M33.64,65.7c-.3,2.09-.34,4.19-.11,6.29.03.32.53.32.5,0-.22-2.05-.2-4.12.09-6.16.04-.31-.44-.45-.48-.13h0Z"/>
          <path class="cls-1" d="M34.43,65.66s0-.03.02-.05c0,.02,0,.02.01-.01-.03.04.06-.05.02-.02.06-.04.09-.06.17-.07.11-.02.24,0,.35.07.31.21.42.69.5,1.03.05.2.07.41-.03.6-.07.12-.19.21-.32.27-.31.15-.68.17-1.02.18-.32.01-.32.51,0,.5.69-.02,1.69-.15,1.88-.97.1-.44-.06-.94-.23-1.35-.15-.37-.41-.74-.83-.82s-.88.07-1,.5c-.08.31.4.45.48.13h0Z"/>
          <path class="cls-1" d="M37.09,66.91c.61-.1,1.24-.46,1.44-1.07.18-.53-.06-1.18-.57-1.42-.29-.14-.67-.15-.91.09-.21.21-.25.52-.23.81.04.73.25,1.46.56,2.12.17.35.36.73.63,1.02.21.23.63.41.87.11.2-.25-.15-.6-.35-.35-.02.03,0,.03.03.01-.02,0-.05-.01-.07-.03-.05-.04-.1-.07-.14-.12-.11-.12-.19-.28-.28-.42-.17-.28-.31-.56-.42-.86s-.2-.61-.26-.92c-.05-.27-.12-.59-.06-.86s.35-.22.53-.08c.16.13.25.36.24.57-.02.57-.65.85-1.13.93-.32.05-.18.53.13.48h0Z"/>
          <path class="cls-1" d="M39.25,65.01c.17,1.04.25,2.1.25,3.15,0,.32.49.32.5,0,.01-.53.09-1.06.25-1.57.07-.25.16-.49.27-.72.04-.08.17-.45.3-.4s.18.45.21.55c.06.26.12.52.16.79.09.55.11,1.11.09,1.67-.01.32.49.32.5,0,.02-.69-.03-1.38-.16-2.06-.06-.31-.12-.63-.23-.93-.09-.25-.25-.48-.53-.51-.61-.08-.87.8-1.02,1.24-.22.62-.33,1.28-.35,1.94h.5c0-1.1-.1-2.2-.27-3.29-.02-.13-.19-.21-.31-.17-.14.04-.2.17-.17.31h0Z"/>
          <path class="cls-1" d="M45.12,63.98c.16,1.51.17,3.03.02,4.55l.43-.18c-.43-.55-.88-1.09-1.48-1.47-.25-.16-.56-.31-.87-.25-.26.05-.46.24-.51.5-.12.55.33,1.13.7,1.48.48.45,1.2.67,1.79.32.28-.16.03-.59-.25-.43-.43.25-.92.03-1.24-.29-.18-.19-.64-.69-.51-1,.16-.36.91.28,1.05.41.36.32.66.7.96,1.08.15.19.41.01.43-.18.15-1.51.15-3.03-.02-4.55-.03-.32-.53-.32-.5,0h0Z"/>
          <path class="cls-1" d="M47.12,67.13c.39-.06.69-.32.94-.6s.53-.6.61-.99c.13-.67-.52-1.44-1.22-1.09-.3.15-.46.48-.55.79-.11.4-.16.84-.16,1.26s.06.84.16,1.24c.09.36.22.74.45,1.04s.58.48.96.41c.33-.06.64-.32.62-.68-.01-.32-.51-.32-.5,0,0,.23-.36.22-.5.14-.25-.14-.36-.45-.45-.71-.24-.7-.31-1.47-.19-2.21.04-.26.09-.61.31-.79.24-.19.52.05.57.3.06.31-.19.62-.38.84-.23.26-.47.52-.82.57-.32.05-.18.53.13.48h0Z"/>
          <path class="cls-1" d="M49.23,64.83c.27,1.13.45,2.29.54,3.45h.5c-.06-.51-.06-1.03.04-1.54.05-.25.11-.51.19-.75.04-.11.13-.51.28-.52.13-.01.2.35.23.42.08.25.14.51.17.77.08.53.07,1.08-.02,1.61-.05.31.43.45.48.13.12-.68.12-1.36,0-2.04-.06-.31-.13-.63-.25-.92-.1-.25-.29-.48-.58-.48-.61-.02-.81.87-.92,1.32-.16.65-.2,1.32-.12,1.99.02.14.1.25.25.25.13,0,.26-.12.25-.25-.09-1.21-.28-2.41-.56-3.58-.07-.31-.56-.18-.48.13h0Z"/>
          <path class="cls-1" d="M51.86,65.19c.63-.19,1.28-.24,1.94-.18.13.01.25-.13.25-.25,0-.15-.12-.24-.25-.25-.69-.07-1.4,0-2.07.19-.31.09-.18.57.13.48h0Z"/>
          <path class="cls-1" d="M52.7,63.18c-.11,1.77-.15,3.55-.09,5.33,0,.32.51.32.5,0-.05-1.78-.02-3.55.09-5.33.02-.32-.48-.32-.5,0h0Z"/>
          <path class="cls-1" d="M57,64.03c.58,1.56,1.31,3.06,2.19,4.48.1.16.42.17.46-.06.22-1.54.63-3.04,1.23-4.47.12-.3-.36-.43-.48-.13-.6,1.43-1.01,2.94-1.23,4.47l.46-.06c-.85-1.38-1.57-2.84-2.14-4.36-.11-.3-.59-.17-.48.13h0Z"/>
          <path class="cls-1" d="M61.41,67.05c.56.18,1.27.03,1.59-.5.29-.49.15-1.16-.38-1.41s-1.17-.04-1.37.53c-.11.31-.13.68-.14,1.01-.01.36.02.74.13,1.08.21.64.7,1.18,1.36,1.34.31.08.45-.41.13-.48-.41-.1-.72-.38-.91-.75-.23-.44-.24-.96-.2-1.44.03-.36.05-.89.52-.9.34,0,.59.28.49.62-.13.46-.69.55-1.08.42-.31-.1-.44.38-.13.48h0Z"/>
          <path class="cls-1" d="M64.81,65.8c-.35.32-.65.7-.87,1.12-.21.39-.41.87-.28,1.33.25.86,1.3.82,2.01.72.13-.02.21-.19.17-.31-.04-.14-.17-.19-.31-.17-.42.06-1.34.15-1.41-.46-.04-.34.16-.7.32-.98.19-.34.44-.63.72-.9.24-.22-.12-.57-.35-.35h0Z"/>
          <path class="cls-1" d="M70.38,69.03c.23-.79.32-1.62.3-2.44,0-.32-.51-.32-.5,0,.02.78-.07,1.56-.28,2.31-.09.31.39.44.48.13h0Z"/>
          <path class="cls-1" d="M69.89,65.12s-.01.08-.02.12c0,.02,0,.04,0,.05,0,.03,0,.06.01.09s.02.06.03.08c.01.02.04.05.05.07.01.01.03.03.04.04.01,0,.02.02.03.03,0,0,0,0,0,0,.01,0,.05.02.06.03.03,0,.06.01.08.01,0,0,0,0,0,0,.02,0,.05,0,.07,0,0,0,0,0,0,0,.03,0,.05-.02.08-.03,0,0,0,0,0,0,.02-.01.04-.03.06-.04,0,0,.01,0,.02-.01.04-.05.06-.08.08-.14,0-.03.01-.05.01-.08,0-.05-.01-.1-.04-.14,0,0,0,0,0,0,0,0,0,0,0,0l-.04-.05s-.04-.04-.06-.04c-.02-.01-.05-.03-.08-.03-.03-.01-.07-.01-.1,0-.03,0-.06.01-.09.03-.03.02-.05.04-.07.06-.02.02-.04.05-.04.09v.07s0,.09.03.13l.04.05s.07.05.11.06c0,0,0,0,.01,0l-.06-.03s0,0,0,0l-.05-.04s0,0,0,0l-.04-.05s0,0,0,0l-.03-.06s0,0,0,0v-.07s0,0,0,0v-.07s0,0,0,.01l.03-.06s0,.01-.01.02l.04-.05s-.01.01-.02.02l.05-.04s-.01,0-.02.01l.06-.03s-.01,0-.02,0h.07s-.01,0-.02,0h.07s0,0-.01,0l.06.03s-.01,0-.02,0l.05.04s-.01-.01-.02-.02l.04.05s-.01-.02-.01-.03l.03.06s0-.03-.01-.04v.07s0-.05.01-.08v.07s0-.02,0-.03c.01-.03.01-.07,0-.1,0-.03-.01-.06-.03-.09-.02-.03-.04-.05-.06-.07-.02-.02-.05-.04-.09-.04h-.07s-.09,0-.13.03l-.05.04s-.05.07-.06.11h0Z"/>
          <path class="cls-1" d="M71.87,67.27c.53-.19.99-.57,1.22-1.09.1-.22.15-.48.06-.72-.09-.26-.34-.42-.62-.37s-.48.29-.6.53c-.14.27-.25.56-.3.86-.1.59-.02,1.21.25,1.75.14.28.38.52.69.61.29.08.63.02.83-.22.09-.1.1-.25,0-.35-.09-.09-.27-.1-.35,0-.13.15-.35.13-.5.01-.18-.14-.28-.38-.35-.59-.16-.5-.14-1.04.03-1.53.05-.13.11-.26.18-.38.04-.06.11-.18.19-.2.12-.02.09.18.08.25-.09.45-.53.81-.95.96-.3.11-.17.59.13.48h0Z"/>
          <path class="cls-1" d="M75.87,65.74c-.47.03-.99.14-1.31.52-.27.32-.35.82-.08,1.17.15.19.36.28.59.34.11.03.24.05.34.09.05.02.16.08.18.14.03.13-.38.28-.46.32-.23.1-.48.17-.73.2-.13.02-.25.1-.25.25,0,.12.12.27.25.25.27-.03.53-.09.79-.18.24-.09.5-.2.7-.37s.28-.44.16-.69c-.11-.21-.33-.35-.55-.42-.18-.06-.44-.06-.58-.21-.1-.11-.1-.27-.06-.4.14-.4.66-.49,1.03-.51.32-.02.32-.52,0-.5h0Z"/>
          <path class="cls-1" d="M66.51,65c.05,1.26-.02,2.53-.22,3.78-.05.31.43.45.48.13.21-1.29.3-2.6.24-3.91-.01-.32-.51-.32-.5,0h0Z"/>
          <path class="cls-1" d="M67.58,67.06c.42-.45.96-.75,1.58-.87.13-.03.21-.18.17-.31-.04-.14-.17-.2-.31-.17-.68.14-1.32.49-1.8,1-.09.1-.1.26,0,.35s.26.1.35,0h0Z"/>
          <path class="cls-1" d="M66.99,66.89l1.47,2.37c.17.27.6.02.43-.25l-1.47-2.37c-.17-.27-.6-.02-.43.25h0Z"/>
          <path class="cls-1" d="M23.3,70.27h.04c-.08-.06-.16-.12-.24-.18l.02-.1.28-.11c.05.1.06.09.04-.03,0-.08-.02-.16-.02-.24-.02-.16-.03-.32-.05-.47-.04-.34-.07-.68-.11-1.03-.07-.66-.14-1.32-.22-1.97-.15-1.34-.32-2.68-.5-4.02l-.49.07c.05.17.1.35.15.52.09.31.57.18.48-.13-.05-.17-.1-.35-.15-.52-.08-.26-.53-.22-.49.07.2,1.52.39,3.04.56,4.57.08.74.16,1.47.24,2.21.04.34.05.7.1,1.04.03.21.09.38.32.42.11.02.23,0,.28-.11s.07-.18.03-.29-.12-.17-.24-.18h-.04c-.32-.03-.32.47,0,.5h0Z"/>
          <path class="cls-1" d="M25.25,69.79c-.2-2.03-.39-4.05-.59-6.08l-.43.18c.86.83,1.06,2.24,1.4,3.34s.55,2.29,1.32,3.13c.15.17.42.03.43-.18.02-1.39,0-2.77-.08-4.15-.04-.66-.08-1.33-.14-1.99-.06-.72-.17-1.45-.05-2.17.05-.31-.43-.45-.48-.13-.22,1.34.09,2.77.17,4.12.08,1.44.11,2.88.09,4.32l.43-.18c-.41-.45-.61-1.03-.79-1.6-.2-.64-.4-1.29-.59-1.94-.31-1.02-.54-2.17-1.34-2.93-.14-.14-.45-.05-.43.18.2,2.03.39,4.05.59,6.08.03.32.53.32.5,0h0Z"/>
          <path class="cls-1" d="M29.47,63.79c.05,1.57.22,3.14.51,4.68l.42-.24c-.28-.28-.54-.58-.83-.85-.18-.18-.41-.33-.67-.32-.6.04-.77.8-.76,1.28,0,.57.25,1.14.74,1.46.46.29,1.09.32,1.53-.01.26-.19,0-.62-.25-.43-.71.53-1.46-.19-1.51-.92-.02-.24.03-1.03.43-.81.17.09.3.28.43.42.18.19.36.37.54.56s.46-.01.42-.24c-.27-1.5-.44-3.02-.49-4.55-.01-.32-.51-.32-.5,0h0Z"/>
          <path class="cls-1" d="M31.46,67.74c.58-.24,1.03-.69,1.24-1.29s.03-1.43-.71-1.48c-.7-.05-.87.79-.92,1.32-.05.62.09,1.25.35,1.81.3.65.76,1.22,1.32,1.66.25.2.61-.15.35-.35-.91-.72-1.6-1.83-1.53-3.03.01-.26.05-.6.2-.82.19-.27.48.03.52.26.1.6-.44,1.22-.95,1.43-.29.12-.16.61.13.48h0Z"/>
        </g>
        <path class="cls-1" d="M46.39,46.37c-3.67.09-7.36.24-11.01.65-2.06.23-4.14.53-6.12,1.13-3.4,1.03-5.87,3.41-7.71,6.44-1.29,2.12-2.19,4.49-2.68,6.92s-.72,4.75-.41,7.13c.43,3.27,2.07,6.22,5.06,7.78,2.79,1.46,5.99,1.54,9.06,1.77,7.39.56,14.8,1.16,22.22,1.29,4.73.08,9.65.06,14.26-1.14,3.2-.84,5.93-2.39,7.93-5.06,1.76-2.36,3.05-5.13,3.41-8.07.4-3.22-.47-6.41-2.23-9.1-1.41-2.15-3.29-3.96-5.35-5.49-1.34-.99-2.79-1.93-4.33-2.6-2.04-.89-4.25-1.29-6.45-1.52-3.16-.32-6.36-.3-9.53-.25-2.04.03-4.08.08-6.12.13-.32,0-.32.51,0,.5,3.68-.09,7.36-.2,11.04-.12,2.58.05,5.2.18,7.73.73,3.72.82,7.06,2.96,9.79,5.57,2.02,1.94,3.72,4.29,4.53,7,.99,3.33.46,6.86-1.07,9.95-.86,1.75-2,3.5-3.45,4.83-1.12,1.03-2.46,1.79-3.87,2.33-3.86,1.51-8.18,1.74-12.28,1.82-6.36.12-12.73-.32-19.07-.76-3.7-.26-7.44-.42-11.12-.85-3.23-.38-6.45-1.59-8.23-4.49-1.6-2.6-1.77-5.83-1.43-8.79.21-1.87.61-3.74,1.25-5.51,1.33-3.71,3.84-7.68,7.58-9.35,1.4-.63,2.93-.97,4.43-1.24,2.73-.49,5.52-.71,8.29-.87,1.96-.11,3.92-.18,5.88-.23.32,0,.32-.51,0-.5Z"/>
      </g>
      <g>
        <path class="cls-1" d="M81.65,58.51c8.07-2.7,16.54-4.65,25.01-5.55,10.83-1.15,21.81-.3,32.32,2.56,5.12,1.39,10.11,3.24,14.91,5.5.58.27,1.09-.59.5-.86-9.22-4.33-19.1-7.17-29.24-8.23s-19.56-.25-29.16,1.74c-4.94,1.03-9.83,2.28-14.62,3.88-.61.2-.35,1.17.27.96h0Z"/>
        <path class="cls-1" d="M150.82,55.95c.54.84,1.29,1.48,1.97,2.21s1.17,1.55,1.09,2.53l.37-.48c-1.93.54-3.86,1.08-5.79,1.62-.62.17-.36,1.14.27.96,1.93-.54,3.86-1.08,5.79-1.62.23-.06.35-.26.37-.48.1-1.09-.42-2.09-1.09-2.91s-1.53-1.45-2.1-2.34c-.35-.54-1.21-.04-.86.5h0Z"/>
      </g>
      <g>
        <g>
          <path class="cls-1" d="M166.26,56.64c2.13-.61,4.68-.57,6.25,1.23,1.38,1.59,1.07,4.05-.89,4.97-1.09.51-2.3.81-3.43,1.2-.48.16-1.74.28-1.63,1.03.05.38.41.63.66.88.34.36.62.76.86,1.19.5.93.71,1.97.64,3.02-.02.32.48.32.5,0,.09-1.58-.42-3.14-1.45-4.35-.13-.15-.26-.28-.4-.42-.21-.22-.36-.32-.1-.52.19-.14.6-.2.83-.28.28-.09.55-.18.83-.28.92-.31,1.86-.57,2.75-.95,1.36-.59,2.23-1.77,2.22-3.28-.01-1.42-.84-2.66-2.01-3.43-1.71-1.12-3.85-1.05-5.74-.5-.31.09-.18.57.13.48h0Z"/>
          <path class="cls-1" d="M169.58,73.51s-.02-.08-.02-.11c0-.05,0,.06,0,0,0-.02,0-.03,0-.05,0-.04,0-.07,0-.11,0-.02,0-.04,0-.06s.02-.06,0,0c.02-.07.03-.14.05-.21,0-.01,0-.04.02-.05-.01.03-.02.04,0,.02,0,0,0-.02.01-.02.02-.04.04-.07.06-.1l-.39.05s.01.02.02.02c.03.03,0,0-.01-.02,0,.02.02.03.03.05,0,.01.01.02.02.03,0,0,.02.05,0,0-.02-.04,0,.02.01.03,0,.02.01.04.02.06,0,.01,0,.02,0,.03-.02-.07,0-.04,0-.02,0,.04,0,.09,0,.13s0-.05,0-.02c0,.01,0,.02,0,.03,0,.02,0,.04-.01.06s-.02.04-.02.06c.02-.06.02-.04,0-.02,0,0,0,.02-.01.03,0,.02-.02.04-.03.05,0,.01-.02.02-.02.03,0-.01.04-.05.01-.02-.01.02-.03.03-.04.04,0,0-.02.01-.02.02.01-.02.05-.03.01,0h.25s-.03-.02-.04-.02c-.03-.02.05.05.02.01,0,0,0-.01-.01-.02-.02-.02.04.05.02.03,0,0,0-.01-.01-.02-.01-.02,0-.04.01.03,0-.01,0-.02-.01-.03,0,0,0-.01,0-.02,0-.03,0,.07,0,.04,0-.01,0-.02,0-.04,0-.01,0-.08,0-.02s0,0,0-.01,0-.02.01-.04c0,0,0-.02,0-.02,0-.03-.03.06-.01.03,0-.01.01-.03.02-.04,0-.01.02-.02.02-.04.02-.02-.05.05-.02.03,0,0,0,0,.01-.01,0,0,.02-.02.03-.03.03-.03-.05.03-.03.02,0,0,.01,0,.02-.01,0,0,.02,0,.02-.01,0,0-.06.02-.04.02.01,0,.03,0,.04-.01.03,0-.07,0-.04,0,0,0,.01,0,.02,0,0,0,.01,0,.02,0-.07,0-.06-.01-.03,0,0,0,.02,0,.02,0,.03,0-.06-.03-.03-.01.01,0,.02.01.03.02.03.01-.03-.02-.03-.02,0,0,.01.01.02.01,0,0,.01.02.01.02,0,0-.04-.06-.02-.02,0,0,0,.02.02.03-.04-.05-.02-.06-.01-.03,0,0,0,.01,0,.02,0,.01,0,.02,0,.03,0,.03,0-.04,0-.04,0,0,0,.02,0,.03,0,.02,0,.03,0,.05,0,0,0,.01,0,.02,0,.03,0-.04,0-.04,0,0-.02.08-.02.09,0,.02-.02.03.01-.03,0,0,0,.02-.01.02,0,.01-.02.03-.02.04-.03.05.05-.05,0,0,0,0-.03.03-.03.03,0,0,.06-.04.03-.02,0,0-.02,0-.02.01-.04.03.06-.02.01,0,0,0-.01,0-.02,0-.04.01.07,0,.03,0-.02,0-.04,0-.06,0-.06,0-.14.03-.18.07-.04.04-.08.11-.07.18s.02.13.07.18c.05.05.11.06.18.07.15.02.31-.05.41-.16.11-.12.16-.26.18-.42.03-.31-.21-.64-.54-.6s-.55.34-.54.66c0,.18.08.34.23.44.04.03.09.05.14.06.11.01.18-.04.26-.11.06-.06.12-.13.16-.2.2-.34.16-.81-.11-1.1-.11-.12-.31-.08-.39.05-.19.32-.25.71-.15,1.07.03.13.18.22.31.17s.21-.17.17-.31h0Z"/>
          <path class="cls-1" d="M177.48,55.63c1.38-.05,2.81-.09,4.14.35,1.43.46,2.46,1.55,2.95,2.96.22.63.33,1.3.34,1.96,0,.4-.02.88-.33,1.18s-.79.34-1.17.42c-1.64.35-3.28.69-4.92,1.04-.12.03-.22.19-.17.31.39.96.73,1.94.99,2.94.13.48.24.97.34,1.45.05.26.41,1.46.24,1.63l.24-.06.07.06-.11.28.05-.03c.27-.18.02-.61-.25-.43l-.05.03c-.09.06-.15.17-.11.28.05.17.11.23.28.29.08.03.18,0,.24-.06.24-.24.15-.56.1-.87-.09-.64-.21-1.29-.36-1.92-.29-1.27-.7-2.51-1.19-3.72l-.17.31c1.01-.21,2.03-.43,3.04-.64.89-.19,1.89-.28,2.73-.62,1.43-.58,1.08-2.61.71-3.78-.46-1.46-1.43-2.68-2.85-3.29-1.5-.64-3.19-.61-4.78-.55-.32.01-.32.51,0,.5h0Z"/>
          <path class="cls-1" d="M179.22,71.7l.31,1.06.37-.28s.02.02,0,0c0,0-.02-.02-.03-.03,0,0-.02-.02-.02-.02-.02-.02-.02-.04.01.02-.01-.02-.03-.04-.04-.06-.03-.05.02.06,0,.01,0-.01,0-.02-.01-.03,0-.02,0-.04-.01-.06.02.08,0,.04,0,.02,0-.01,0-.03,0-.04,0-.02,0-.04,0-.07,0,.09,0,.01,0-.02,0,0,.01-.07.02-.07,0,0-.03.07,0,.02,0-.01.01-.02.02-.03.01-.02.03-.04.04-.06,0-.02-.04.05,0,.01,0,0,.02-.02.02-.03s.02-.02.02-.02c.03-.03,0,0-.02,0,.02-.01.04-.03.07-.04.01,0,.02,0,.03-.02-.06.03-.04.02-.02,0,.03,0,.06-.02.08-.02l-.32-.24s0,.04,0,.06c0-.08,0-.01,0,0,0,.03-.01.07-.02.1s-.02.07-.03.1c0,.02-.01.04-.02.05-.01.04.03-.06,0,0-.01.03-.03.06-.05.08,0,0-.01.02-.02.02.03-.03.03-.04.01-.02,0,0-.02.02-.03.03,0,0-.01.01-.02.02-.02.02-.01.01.02-.01-.02,0-.04.02-.05.03-.03.02-.05.01.01,0-.01,0-.03,0-.04.01-.04.01.07,0,0,0-.01,0-.02,0-.04,0-.04,0,.07.01,0,0-.02,0-.03,0-.05-.01-.02,0-.05-.03.02,0-.01,0-.03-.01-.04-.02s-.03-.02-.04-.02c-.03-.02.05.04.02.01-.01,0-.02-.02-.03-.03-.04-.04.02.04,0,.01,0,0,0-.02-.01-.03.02.05.02.06.01.03,0,0,0-.01,0-.02-.01-.04,0,.07,0,.03,0-.02-.02.08,0,.03-.02.05-.03.06-.01.04,0,0,0-.01.01-.02-.03.04-.04.05-.02.03,0,0,.01-.01.02-.01.1-.09.09-.27,0-.35-.11-.1-.25-.09-.35,0-.15.13-.17.34-.08.5.07.14.21.23.36.29.33.13.69-.08.83-.39.08-.18.11-.36.14-.55,0-.08-.04-.15-.1-.2-.07-.05-.14-.06-.22-.04-.3.06-.55.31-.62.61-.03.14-.04.3.01.44.06.16.16.29.3.39.08.06.2.04.28-.02s.12-.17.09-.26l-.31-1.06c-.04-.13-.18-.22-.31-.17s-.21.17-.17.31h0Z"/>
          <path class="cls-1" d="M189.64,55.56c1.13.41,2.32.84,3.25,1.63,1.04.88,1.4,2.15,1.37,3.48-.03,1.41-.7,2.48-1.99,3.08s-2.83.87-4.27.99c-.17.01-.33.21-.22.38,1.04,1.5,1.68,3.21,1.82,5.04.02.32.52.32.5,0-.14-1.91-.79-3.72-1.89-5.29l-.22.38c1.59-.13,3.27-.42,4.7-1.15,1.29-.65,1.96-1.8,2.05-3.23s-.25-2.79-1.25-3.78-2.42-1.52-3.74-2c-.3-.11-.43.37-.13.48h0Z"/>
          <path class="cls-1" d="M190.3,72.89s-.02,0-.03,0c-.04,0,.02,0,.02.01-.04-.02.04.03.02.01s.03.05.02.02c-.03-.04.01.05,0,0-.01-.04.01,0,0,.02,0,0,0-.03,0-.03,0-.05-.02.05,0,0,0,0,0-.02,0-.03,0-.03-.03.06,0,.02,0-.02.02-.03-.02.02,0,0,.01-.01.02-.02,0,0-.05.04-.02.02.04-.02-.06.01,0,0-.03,0-.03,0-.01,0,0,0,.07.01-.01,0,.02,0,.04.02,0,0,.01,0,.02.01.03.02.04.02,0,0,0,0,0,0,.02.02.03.03-.03-.02-.01-.02,0,0,0,.02.02.03.03.05-.02-.05,0,.01,0,.03v-.03s0,.01,0,.02c-.02.05.01,0,0-.01,0,0,0,.03-.01.04-.01.06.02-.02,0,0,0,0-.01.02-.02.03-.01.02.03-.03,0,0-.01.01-.07.06-.02.03-.02.02-.05.03-.08.05,0,0-.05.02-.02,0s-.01,0-.02,0c-.02,0-.03.01-.05.01,0,0-.06.01-.03,0,.03,0,0,0-.02,0-.01,0-.03,0-.04,0-.02,0-.1-.01-.04,0-.03,0-.05-.01-.08-.02-.01,0-.03,0-.04-.01s-.07-.03-.01,0c-.05-.02-.09-.05-.14-.08.05.03-.01-.01-.03-.02-.02-.02-.05-.05-.07-.07,0,0,.03.04,0,0,0-.01-.02-.02-.02-.03-.01-.02-.03-.05-.04-.07-.02-.04,0,0,0,0,0-.02-.01-.03-.02-.05,0-.03-.01-.06-.02-.09.01.06,0-.01,0-.03,0-.02,0-.03,0-.05,0-.03-.01.05,0,.01,0-.02.01-.05.02-.07,0-.02,0-.05,0,0,0-.01.01-.03.02-.04.01-.02.02-.04.04-.06,0-.01.04-.04,0,0,0,0,.02-.02.02-.03.02-.02.03-.03.05-.05,0,0,.02-.02.03-.02-.03.03-.02.01,0,0,.02-.01.04-.03.06-.04.02,0,.08-.03.02-.01.02,0,.04-.02.07-.02.01,0,.02,0,.03,0,0,0,.02,0,.03,0,.02,0,.01,0-.02,0,.01-.01.05,0,.07,0,.01,0,.02,0,.04,0,.05,0-.02,0-.01,0,.01,0,.07.02.08.02,0,0,.05.01.01,0-.04-.01.01,0,.02.01,0,0,.02.01.03.02h.01s.02.02,0,0c-.01,0-.02-.02,0,0,0,0,.02.01.02.02s.01.02.02.02c.02.02-.02-.04,0-.01.01.02.03.04.04.07,0,0,0,.02.01.03.02.03-.01-.05,0-.02,0,.02.02.05.02.07,0,.01,0,.06.01.06,0,0,0-.06,0-.02,0,.02,0,.03,0,.05,0,.02,0,.04,0,.06,0,.04.01-.05,0,.01,0,.02,0,.04-.02.06,0,.01,0,.02,0,.03-.02.05.03-.05,0,0,0,.02-.02.04-.03.05,0,0-.02.03-.02.03,0-.01.04-.04.01-.01-.02.02-.04.03-.05.05-.02.02.04-.02.01-.01-.01,0-.02.01-.03.02,0,0-.02.01-.03.02.04-.02-.02,0-.03,0-.05.01-.02,0,0,0-.05,0,.01,0-.02,0s.01,0,.02,0h-.01s-.02-.02.01,0c0,0-.02-.02-.02-.02-.03-.03.02.03,0,0,0,0,0-.02-.01-.03-.01-.01.01.05,0,0,0-.01,0-.02,0-.03-.01-.05,0,0,0,.01,0,0,0-.08,0-.08.01,0-.01.06,0,.02,0-.02,0-.03.01-.05,0-.04,0,.02,0,.01,0,0,.02-.04.02-.04.01-.02,0-.02-.01.01,0-.01.03-.03.04-.04.01,0,.02-.02.03-.03.01-.01.01,0,0,0,0,0,.02-.01.03-.02.03-.02.05-.03.08-.05.04-.02,0,0,0,0,.02,0,.04-.01.06-.02.03-.01.07-.02.1-.03.07-.02.14-.03.21-.04l-.31-.17s.01.1,0,.04c0,.03,0,.06,0,.08,0,.06,0,.11,0,.17,0-.06,0,.02,0,.04,0,.03-.01.05-.02.08s-.02.05-.02.08c0,.01-.04.09-.01.04-.02.05-.05.1-.08.15-.01.02-.03.05-.05.07-.02.02-.02.02,0,0,0,.01-.02.02-.03.03-.04.04-.07.08-.12.12-.01,0-.02.02-.03.03.02-.02.02-.02,0,0-.02.02-.05.03-.07.05h.25s.04.04,0,0c-.01-.01-.02-.02-.04-.03s-.02-.02-.03-.04c-.03-.03.02.03,0,0s-.03-.05-.05-.07c0-.01-.01-.03-.02-.04-.02-.05.02.05,0,0,0-.03-.02-.06-.03-.08,0-.01,0-.03,0-.04-.01-.06,0,0,0,0,0,0,0-.08,0-.1,0-.03,0-.06,0-.09,0-.05,0,0,0,0,0,0,0-.05,0-.05,0-.03.01-.06.02-.09,0-.02.01-.03.02-.05,0-.03-.02.05,0,0,.01-.03.03-.06.05-.09,0-.01.02-.03.03-.04.02-.04-.03.03,0,0s.04-.04.06-.06c0,0,.04-.03.04-.03,0,0-.05.03,0,0,.03-.02.06-.03.09-.05l-.13.03s-.06,0-.04,0c.02,0,0,0-.03-.02,0,0,.04.02,0,0-.02-.02-.02-.02-.01,0l-.03-.03s-.02,0,0-.02c0,0,0,.03,0,.03,0,0,0-.07,0-.03,0,.07.02-.05,0,.01,0,0,0,.02,0,.03,0,.03.03-.05,0-.02,0,0-.02.03-.02.03,0,0,.05-.05.01-.02-.03.03.05-.03.02-.02s.06-.02.03-.01c-.04.01.07,0,.02,0,.02,0,.06.01.02,0-.12-.04-.28.05-.31.17-.03.14.04.26.17.31.25.09.48-.11.53-.34.06-.25-.08-.56-.37-.55-.13,0-.27.11-.36.2-.08.08-.15.17-.19.27-.1.22-.13.45-.1.7.04.26.19.49.4.64.07.05.18.04.25,0,.51-.32.77-.93.65-1.52-.03-.14-.18-.2-.31-.17-.36.06-.76.19-.9.57-.12.35.07.8.48.8.36,0,.65-.3.71-.64s-.05-.67-.33-.87-.66-.17-.94,0c-.31.19-.49.53-.44.9s.35.66.69.78c.36.12.82,0,1.01-.35.11-.2.11-.45-.03-.64-.14-.2-.41-.32-.65-.2-.17.08-.26.27-.25.46s.13.4.33.43c.13.02.27-.03.31-.17.03-.12-.04-.29-.17-.31h0Z"/>
        </g>
        <path class="cls-1" d="M183.51,48.89c-2.68-.22-5.36-.48-8.05-.49-1.91,0-3.85.14-5.66.76-4.66,1.59-7.35,5.73-9.45,9.92-1.17,2.33-2.39,4.67-2.86,7.25-.36,1.97-.27,3.98.14,5.94.9,4.33,3.54,8.24,7.78,9.84,4.47,1.68,9.63.98,14.25.49,2.76-.29,5.53-.55,8.26-1.01,2.13-.36,4.23-.9,6.16-1.88,2.9-1.47,5.57-3.81,7.43-6.47,2.72-3.9,3.48-8.87,1.82-13.36-1.07-2.89-3.02-5.58-5.44-7.5-2.88-2.28-6.6-2.77-10.15-3.13-1.41-.14-2.82-.26-4.23-.37-.32-.03-.32.47,0,.5,2.52.21,5.07.38,7.57.8,1.76.3,3.5.75,5.07,1.63,2.2,1.24,4.01,3.27,5.33,5.41,2.47,4.01,2.99,8.96,1.02,13.29-1.35,2.96-3.63,5.34-6.23,7.24-1.64,1.2-3.44,2.1-5.4,2.67-2.25.65-4.6.92-6.92,1.19-2.72.31-5.44.64-8.17.84-2.29.17-4.61.26-6.89-.03-1.99-.25-3.94-.85-5.61-1.98-1.98-1.34-3.43-3.33-4.32-5.53-.65-1.61-1.04-3.35-1.15-5.09-.18-2.65.47-5.17,1.55-7.57,1.99-4.41,4.28-9.25,8.65-11.75,3.45-1.97,7.57-1.72,11.39-1.46,1.38.09,2.75.21,4.12.32.32.03.32-.47,0-.5Z"/>
      </g>
    </g>
  </g>
</svg>