<?xml version="1.0" encoding="UTF-8"?>
<svg id="Layer_2" data-name="Layer 2" xmlns="http://www.w3.org/2000/svg" viewBox="0 0 238.48 109.94">
  <defs>
    <style>
      .cls-1 {
        fill: #231f20;
      }

      .cls-2 {
        fill: #ed1c24;
      }

      .cls-3 {
        fill: #00aeef;
      }
    </style>
  </defs>
  <g id="Layer_1-2" data-name="Layer 1">
    <path class="cls-2" d="M61.26,29.33c-9.6-1.75-19.65-.78-28.79,2.64-5.62,2.1-10.83,5.08-15.47,8.88-6.63,5.41-11.72,12.61-14.77,20.6-1.87,4.9-2.66,10.2-1.99,15.42.61,4.75,2.47,9.03,4.73,13.21,2.04,3.79,4.37,7.4,7.44,10.45,3.89,3.86,8.74,6.57,14.03,7.98,4.86,1.29,9.91,1.52,14.91,1.42,5.1-.1,10.17-.42,15.17-1.45,4.52-.93,9.02-2.32,13.28-4.09,4.93-2.05,9.51-4.89,13.06-8.93,6.58-7.5,9.24-17.61,10.22-27.33.5-5.01.9-10.23-.58-15.11-1.37-4.53-3.87-8.74-7.15-12.15-5.56-5.8-13.17-9.16-20.91-10.9-1.06-.24-2.12-.44-3.19-.64-.63-.12-.9.85-.27.96,6.47,1.19,12.81,3.16,18.32,6.84,7.76,5.17,13.17,13.75,13.22,23.2.03,5.07-.54,10.25-1.57,15.21s-2.52,9.42-4.9,13.66-5.78,8.06-9.94,10.79c-4.57,2.99-9.78,4.8-14.99,6.3-4.07,1.17-8.22,1.95-12.44,2.31-4.87.41-9.87.55-14.75.15-5.15-.42-10.24-1.68-14.74-4.27s-8.07-6.3-10.86-10.59c-.95-1.47-1.8-2.99-2.62-4.53-.99-1.83-1.94-3.68-2.69-5.63-1.96-5.07-2.52-10.57-1.55-15.92.75-4.1,2.33-7.95,4.29-11.61,2.24-4.19,4.96-8.02,8.32-11.38,3.88-3.87,8.39-7.07,13.28-9.53,8.86-4.45,18.88-6.44,28.77-5.62,1.63.13,3.24.34,4.85.64.63.11.9-.85.27-.96Z"/>
    <path class="cls-3" d="M181.62,26.02c-7.19,1.23-14.21,3.71-20.36,7.66-8.79,5.65-15.49,14.35-18.36,24.43-1.33,4.67-1.81,9.6-1.15,14.41s2.69,9.61,5.68,13.69c2.38,3.25,5.2,6.14,8.13,8.9,3.63,3.43,7.68,6.4,12.21,8.53,5.52,2.61,11.54,3.94,17.62,4.23,4.94.23,9.87-.23,14.76-.95,5.27-.78,10.65-1.5,15.62-3.52s9.39-5.06,13-8.95c4.93-5.3,8.42-12.16,9.41-19.36.71-5.2.07-10.45-1.5-15.44-1.05-3.31-2.44-6.53-3.91-9.67-1.62-3.49-3.58-6.81-6-9.8-3.19-3.94-7.15-7.22-11.59-9.66-9.05-4.98-19.64-6.33-29.8-5.08-1.26.16-2.51.35-3.75.56-.63.11-.36,1.07.27.96,8.2-1.4,16.63-1.4,24.65,1.01,5.45,1.64,10.61,4.36,14.91,8.11,3.24,2.82,5.95,6.19,8.12,9.89,1.62,2.76,2.91,5.69,4.16,8.63,1.69,3.98,3.07,8.11,3.55,12.42.88,7.79-1.24,15.47-5.51,21.97-2.47,3.76-5.63,7.05-9.32,9.62-4.65,3.25-9.88,5.13-15.43,6.16-9.98,1.86-20.38,3.22-30.4.87-5.66-1.33-10.98-3.81-15.64-7.28-2.99-2.22-5.7-4.83-8.28-7.51-3.42-3.55-6.58-7.57-8.36-12.22-1.67-4.35-2.17-9.07-1.73-13.69.94-10.02,6.12-19.52,13.57-26.2,6.38-5.72,14.4-9.4,22.72-11.23.99-.22,1.99-.41,2.99-.58.63-.11.36-1.07-.27-.96Z"/>
    <g>
      <path class="cls-1" d="M116.39,19.53c1.71-.24,3.34-1,4.97-1.58,1.53-.54,3.07-1.08,4.56-1.73.59-.25.08-1.12-.5-.86-1.47.63-2.99,1.15-4.49,1.69s-3.14,1.29-4.8,1.52c-.63.09-.36,1.05.27.96h0Z"/>
      <path class="cls-1" d="M120.78,17.56c-.41,3.37-.76,6.74-1.05,10.12h1c0-.12.02-.24.03-.37.05-.64-.95-.64-1,0,0,.12-.02.24-.03.37-.05.64.94.64,1,0,.29-3.38.64-6.75,1.05-10.12.08-.64-.92-.63-1,0h0Z"/>
    </g>
    <path class="cls-2" d="M27,6.34c1.8,7.85,4.4,15.49,7.74,22.81.23.5.89.19.93-.25.33-3.54,1.35-6.96,2.57-10.29s2.68-6.8,4.05-10.19c.24-.6-.73-.86-.96-.27-2.7,6.69-5.97,13.48-6.65,20.75l.93-.25c-3.31-7.24-5.86-14.81-7.64-22.58-.14-.63-1.11-.36-.96.27h0Z"/>
    <path class="cls-3" d="M179.54.63c1.15,7.55,3.5,14.89,6.92,21.71.16.32.7.33.86,0,1.5-3.11,3-6.23,4.5-9.34.36-.75.72-1.5,1.08-2.25.11-.23.24-.63.5-.74.37-.16.63.33.79.61.78,1.44,1.33,3.06,1.98,4.57.32.75.64,1.49.96,2.24.23.54.48,1.1.93,1.5.89.8,1.99.37,2.65-.48.42-.54.72-1.16,1.05-1.75.42-.74.85-1.48,1.29-2.22.8-1.34,1.62-2.66,2.46-3.96.97-1.5,1.98-2.98,3.01-4.44.54-.76,1.09-1.52,1.65-2.26.48-.64,1.01-1.66,1.73-2.02.58-.29.07-1.15-.5-.86s-.92.83-1.31,1.35c-.49.65-.98,1.3-1.47,1.96-.96,1.32-1.9,2.66-2.81,4.01-1.82,2.71-3.54,5.49-5.14,8.34-.3.54-.62,1.35-1.2,1.66-.68.37-1.08-.48-1.31-.97-.7-1.52-1.33-3.09-1.99-4.63-.33-.77-.64-1.56-1-2.32-.24-.52-.6-1.08-1.16-1.3-1.37-.54-1.96,1.18-2.41,2.09-1.72,3.56-3.43,7.13-5.15,10.69h.86c-3.39-6.75-5.68-14.01-6.82-21.47-.1-.63-1.06-.36-.96.27h0Z"/>
    <g>
      <path class="cls-1" d="M90.12,43.35c5.97-5.04,13.22-8.68,20.92-10.31,3.81-.8,7.72-1.22,11.62-1.07,2.78.1,5.54.51,8.21,1.28,1.2.35,2.37.81,3.53,1.27,4.83,1.88,9.67,3.64,13.93,6.65,1.05.75,2.05-.99,1.01-1.73-4.02-2.85-8.53-4.54-13.08-6.33-1.38-.54-2.75-1.1-4.16-1.57-2.41-.8-4.96-1.22-7.48-1.44-8.95-.79-18.32,1.27-26.28,5.37-3.45,1.78-6.68,3.97-9.65,6.47-.98.83.44,2.24,1.41,1.41h0Z"/>
      <path class="cls-1" d="M144.65,31.86c.91,2.47,1.75,5.03,2.95,7.38.06.12.13.39.22.46.15.12-.09,0,.07-.05-.14.04-.28.11-.42.15-.87.28-1.74.54-2.62.77-1.83.48-3.69.84-5.56,1.1-1.11.15-.85,2.05.27,1.96.21-.02.42-.03.63-.05.54-.04,1-.43,1-1,0-.51-.46-1.04-1-1-.21.02-.42.03-.63.05l.27,1.96c2.08-.29,4.15-.71,6.17-1.27.92-.25,1.9-.47,2.76-.88.92-.44,1.28-1.4.97-2.35-.15-.48-.44-.93-.65-1.39-.22-.48-.39-.88-.58-1.36-.67-1.66-1.3-3.34-1.92-5.02-.19-.51-.68-.85-1.23-.7-.49.13-.89.72-.7,1.23h0Z"/>
    </g>
    <g>
      <path class="cls-1" d="M113.36,34.92c-.52.44-.82,1.04-1.03,1.67-.24.71-.46,1.46-.64,2.19-.3,1.21-.17,2.86,1.24,3.28.31.09.44-.39.13-.48-1.34-.41-1.05-2.14-.76-3.14.32-1.08.51-2.4,1.41-3.17.25-.21-.11-.56-.35-.35h0Z"/>
      <path class="cls-1" d="M114.33,36.28c-.11,1.43-.19,2.85-.22,4.28,0,.32.49.32.5,0,.03-1.43.11-2.86.22-4.28.03-.32-.47-.32-.5,0h0Z"/>
      <path class="cls-1" d="M116.46,40.32c-.02-.68.08-1.34.28-1.99.1-.31-.39-.44-.48-.13-.22.68-.32,1.41-.3,2.12,0,.32.51.32.5,0h0Z"/>
      <path class="cls-1" d="M116.64,36.45h-.04c-.32,0-.32.5,0,.5h.04c.32,0,.32-.5,0-.5h-.04c-.32,0-.32.5,0,.5h.04c.32,0,.32-.5,0-.5h0Z"/>
      <path class="cls-1" d="M117.35,37.48c-.03,1.01.1,2.03.38,3,.07.26.51.22.49-.07-.04-.55.04-1.05.18-1.58.08-.29.13-.74.38-.94.12-.09.34-.16.48-.09.13.07.15.28.17.41.05.36.03.73,0,1.09-.03.32-.06.6-.11.9-.02.13.03.27.17.31.12.03.29-.04.31-.17.12-.75.24-1.58.09-2.34-.05-.23-.15-.46-.34-.6-.23-.16-.54-.15-.79-.06-.46.17-.64.58-.76,1.02-.18.67-.33,1.34-.28,2.05l.49-.07c-.27-.93-.39-1.9-.36-2.87,0-.32-.49-.32-.5,0h0Z"/>
      <path class="cls-1" d="M121.02,39.31c.52-.12.97-.42,1.27-.86s.5-1.2-.08-1.54c-.61-.36-1.33.34-1.58.85-.3.61-.26,1.33,0,1.95.28.64.89,1.14,1.63.97.31-.07.18-.55-.13-.48-.43.1-.79-.21-.98-.57-.22-.4-.3-.91-.18-1.36.06-.23.18-.44.34-.61.13-.14.35-.36.56-.34.17.01.23.2.21.35-.02.19-.12.37-.22.52-.02.03-.05.07-.07.1-.03.04.03-.03,0,0-.1.12-.21.22-.33.31-.18.11-.37.19-.57.23-.31.07-.18.55.13.48h0Z"/>
      <path class="cls-1" d="M125,37.53c-.12.89-.24,1.78-.36,2.68l.49.07c0-.36-.03-.73-.07-1.09-.06-.49-.12-1.09-.42-1.51-.17-.24-.48-.41-.78-.37-.28.03-.5.23-.67.44-.43.53-.68,1.23-.38,1.89.36.8,1.34,1.12,2.14.87.31-.09.18-.58-.13-.48-.54.16-1.19,0-1.5-.5-.15-.25-.18-.54-.1-.82.04-.12.09-.24.15-.35.02-.04.05-.08.08-.13.01-.02.03-.04.05-.07,0,0,.06-.09.03-.04.11-.14.23-.28.4-.33,0,0,.02,0,.02,0,.04,0-.06-.02.01,0,.07.02.14.04.19.08.02.02.04.03.06.05.04.04-.03-.04,0,.01.02.02.03.05.05.07.09.15.14.34.19.54.05.23.09.46.11.67.04.35.06.7.07,1.04,0,.12.09.23.22.25.11.01.26-.05.27-.18.12-.89.24-1.78.36-2.68.02-.13-.03-.27-.17-.31-.12-.03-.29.04-.31.17h0Z"/>
      <path class="cls-1" d="M126.13,37.62c.05.7.11,1.41.17,2.11.02.25.02.51.08.76.05.21.34.3.47.09.07-.12.04-.31.04-.43.01-.57.07-1.15.27-1.68.06-.15.14-.3.23-.43.05-.06.1-.13.17-.17.02-.01.03-.02.05-.03-.02.01,0,0,0,0,0,0,.04,0,0,0-.04,0,0,0,0,0,0,0,.02,0,.03.01.01,0,.03.02.05.04.04.04.08.09.11.15.06.11.07.12.1.23.1.31.58.18.48-.13-.08-.26-.22-.54-.45-.7-.37-.25-.74.02-.97.32-.43.59-.54,1.39-.58,2.1,0,.14-.01.27-.01.41,0,.04,0,.09,0,.13,0,.07,0,.03,0,0l.06-.11h0c.08-.02.16-.04.24-.06h0s.07.04.11.06c.02.01.08.16.06.07-.02-.06,0,.07,0,.02,0-.02,0-.04,0-.06-.02-.15-.03-.29-.04-.44-.07-.75-.12-1.5-.18-2.24-.02-.32-.52-.32-.5,0h0Z"/>
      <path class="cls-1" d="M128.99,36.19c-.18.89-.25,1.8-.22,2.71,0,.22.27.32.43.18.04-.03.08-.07.11-.1.24-.22-.12-.57-.35-.35-.04.03-.08.07-.11.1l.43.18c-.03-.86.04-1.73.2-2.58.03-.13-.04-.27-.17-.31-.12-.03-.28.04-.31.17h0Z"/>
      <path class="cls-1" d="M129.09,39.85h0s.1.08.15.11h0c0,.06.02.13.03.19h0s-.04.07-.06.11c0,0,0,0,0,0l-.05.04h0s-.08.02-.13.03h0s-.04,0-.07,0h0s-.1-.07-.15-.11h0s-.02-.08-.03-.12h0s0-.04,0-.06h0s.04-.07.06-.1c0,0,0,0-.01.01l.05-.04h0s.04-.01.06-.02c0,0-.01,0-.02,0h.07s-.02,0-.03-.01h.07s-.02,0-.03,0l.06.03s-.02-.01-.04-.02l.05.04s-.02-.02-.03-.03l.04.05s-.02-.02-.02-.04l.03.06s0-.02,0-.03v.07s0-.03,0-.04v.07s0-.02,0-.03l-.03.06s.01-.02.02-.03l-.04.05s.02-.02.03-.03l-.05.04s.02-.01.03-.02l-.06.03s.03,0,.05-.01h-.07s.03,0,.04,0h-.07s.02,0,.04,0l-.06-.03s.02,0,.03.02l-.05-.04s.02.02.03.03l-.04-.05s.01.02.02.03l-.03-.06s.01.03.01.05v-.07s0,.04,0,.06v-.07s0,.04,0,.06l.03-.06s-.03.05-.04.07l.04-.05s-.06.06-.09.09l.05-.04s-.05.04-.08.06c-.07.05-.11.1-.12.18,0,.07,0,.16.07.21.02.01.03.03.05.05l-.04-.05s.03.04.04.07l-.03-.06s.02.06.02.09v-.07s0,.05,0,.08v-.07s0,.05-.01.07l.31-.17s-.03,0-.04-.01l.06.03s-.05-.02-.07-.04l.05.04s-.04-.04-.06-.06l.04.05s-.04-.06-.05-.09l.03.06s-.03-.08-.03-.12v.07s0-.08,0-.12v.07s0-.07.02-.1l-.03.06s.03-.05.05-.08l-.04.05s.03-.04.05-.05l-.05.04s.02-.02.04-.02c.11-.07.16-.23.09-.34s-.22-.16-.34-.09c-.45.26-.35,1.02.15,1.16.06.02.14,0,.19-.03.06-.04.09-.09.11-.15.08-.2,0-.46-.15-.59l-.05.39c.15-.1.3-.22.34-.41.05-.22-.05-.47-.28-.52s-.49.11-.5.36.24.48.48.41c.1-.03.18-.1.21-.2.04-.14-.05-.28-.18-.32-.13-.04-.26.04-.31.16-.06.14.02.31.17.35.13.03.28-.04.31-.17s-.04-.27-.17-.31h0Z"/>
      <path class="cls-1" d="M130.02,35.42c.34,1.02.52,2.08.51,3.15,0,.52-.04,1.04-.14,1.55-.05.23-.11.45-.2.66-.04.09-.26.55-.39.51-.31-.1-.44.38-.13.48.49.16.85-.49,1-.85.23-.54.3-1.14.34-1.72.09-1.32-.08-2.65-.5-3.91-.1-.3-.58-.17-.48.13h0Z"/>
    </g>
    <g>
      <g>
        <g>
          <path class="cls-1" d="M29.14,54.18c-.82-.4-1.79-.35-2.53.2-.62.46-1.15,1.31-1.02,2.11.16,1.07,1.43.95,2.24.92.46-.02.95-.02,1.36.22s.58.66.45,1.11c-.34,1.17-1.98,1.28-2.97,1.38-.32.03-.32.53,0,.5.9-.09,1.96-.18,2.72-.73.64-.46,1.04-1.36.64-2.1s-1.32-.91-2.08-.88c-.49.02-1.12.15-1.58-.08s-.29-.86-.12-1.23c.47-1,1.63-1.47,2.64-.98.29.14.54-.29.25-.43h0Z"/>
          <path class="cls-1" d="M31.27,55.92c-.6.5-.77,1.31-.75,2.06.01.35.07.71.16,1.05s.25.78.62.93c.4.16.81-.07,1.11-.31.34-.27.6-.62.77-1.03.14-.34.19-.7.22-1.06s.04-.71-.02-1.06c-.07-.43-.3-.85-.75-.97-.48-.13-.99.11-1.37.4-.25.2.1.55.35.35.23-.18.61-.37.91-.26.26.09.34.4.38.65.07.5.02,1.1-.12,1.59-.1.33-.27.63-.52.87-.17.16-.48.45-.74.39-.23-.06-.31-.45-.37-.65-.07-.26-.12-.53-.13-.81-.03-.64.08-1.34.6-1.78.25-.21-.11-.56-.35-.35Z"/>
          <path class="cls-1" d="M34.14,56.11c-.02,1.28.14,2.55.47,3.79.08.32.54.18.48-.13-.09-.48-.14-.97-.15-1.46,0-.43-.02-.89.09-1.3.04-.16.11-.33.24-.43.1-.08.14-.07.19.04.04.09.08.2.11.3.15.45.25.92.3,1.4.02.26.43.36.49.07.1-.51.26-1.01.51-1.47.15-.27.33-.53.54-.76.1-.11.21-.23.33-.33.03-.03.06-.05.1-.08.05-.02.04-.03-.02-.04.02.04,0-.02,0-.01,0,.02.05.12.05.16.02.08.02.17.03.25,0,.25,0,.5-.03.75-.06.67-.17,1.33-.3,1.99-.06.31.42.45.48.13.12-.63.22-1.25.29-1.89.05-.45.1-.93,0-1.37-.08-.37-.39-.63-.76-.4-.25.15-.47.4-.65.62s-.36.46-.5.72c-.27.49-.46,1.04-.56,1.59l.49.07c-.06-.63-.19-1.25-.42-1.83-.09-.23-.24-.46-.52-.48-.26-.01-.5.17-.64.37-.32.43-.32,1.04-.33,1.56-.01.66.05,1.32.17,1.97l.48-.13c-.32-1.19-.47-2.42-.46-3.66,0-.32-.5-.32-.5,0h0Z"/>
          <path class="cls-1" d="M39.63,57.73c.55-.21,1.23-.49,1.42-1.11.15-.48-.08-1.16-.62-1.28-.61-.14-.99.48-1.08.99-.13.7-.09,1.51.17,2.18s.8,1.27,1.53,1.47c.31.09.44-.4.13-.48-.59-.16-1.02-.66-1.22-1.22-.12-.35-.17-.71-.17-1.08,0-.3,0-.62.09-.92.05-.18.17-.46.4-.46.2,0,.3.24.32.4.07.58-.67.86-1.1,1.02-.3.11-.17.6.13.48h0Z"/>
          <path class="cls-1" d="M46.61,51.99c-.1,2.41,0,4.82.3,7.22.04.32.54.32.5,0-.29-2.4-.39-4.81-.3-7.22.01-.32-.49-.32-.5,0h0Z"/>
          <path class="cls-1" d="M49.55,58.78l.3-4.1c.02-.32-.48-.32-.5,0l-.3,4.1c-.02.32.48.32.5,0h0Z"/>
          <path class="cls-1" d="M50.87,54.69l.03,3.62c0,.33.46.31.5,0,.15-1.22.33-2.59,1.16-3.56.05-.06.1-.11.15-.16.03-.03.06-.06.09-.09-.04-.08-.04-.08-.01-.01.04.17.08.34.11.51.06.37.09.75.09,1.13,0,.77-.13,1.53-.38,2.26-.1.31.38.44.48.13.23-.67.36-1.37.4-2.08.02-.36,0-.73-.03-1.09-.04-.34-.07-.71-.19-1.03-.1-.28-.37-.45-.65-.3-.25.13-.46.43-.62.65-.34.48-.57,1.03-.73,1.59-.19.67-.28,1.35-.37,2.04h.5l-.03-3.62c0-.32-.5-.32-.5,0h0Z"/>
          <path class="cls-1" d="M54.9,56.9c.86.1,2.28-.18,2.41-1.25.05-.46-.2-.9-.51-1.21-.28-.29-.7-.57-1.12-.52-.69.08-.98,1-1.09,1.57-.16.79-.16,1.69.19,2.43.44.94,1.65,1.24,2.58.88.3-.12.17-.6-.13-.48-.62.24-1.48.16-1.89-.44-.34-.51-.37-1.2-.32-1.79.04-.51.15-1.21.54-1.58.15-.14.34-.12.54,0,.29.17.57.45.68.78.12.36-.07.65-.38.85-.44.28-.98.32-1.49.26-.32-.04-.32.46,0,.5h0Z"/>
          <path class="cls-1" d="M60.79,55.35v2.86c.17-.02.33-.04.49-.07-.11-.73-.37-1.44-.77-2.06-.34-.53-.86-1.27-1.57-1.27-.37,0-.62.26-.73.6-.12.38-.21.79-.22,1.18-.03.73.29,1.41.88,1.84.67.48,1.6.48,2.28.04.27-.17.02-.6-.25-.43-.48.3-1.1.35-1.6.07-.47-.26-.78-.75-.81-1.29-.02-.32.03-.64.11-.95.05-.2.08-.57.36-.56.23.01.45.19.6.35.21.22.39.46.55.72.36.58.59,1.22.69,1.89.04.28.49.21.49-.07v-2.86c0-.32-.5-.32-.5,0h0Z"/>
          <path class="cls-1" d="M62.31,53.74c-.05,1.55.04,3.1.28,4.64.04.29.48.2.49-.07.02-.47.04-.94.05-1.41.01-.39,0-.8.07-1.19.05-.32.17-.68.46-.86.21-.13.58-.21.76.02.19.25.63,0,.43-.25-.56-.74-1.63-.33-1.97.42-.2.44-.22.94-.24,1.42-.02.62-.05,1.23-.07,1.85l.49-.07c-.23-1.49-.31-3-.26-4.51.01-.32-.49-.32-.5,0h0Z"/>
          <path class="cls-1" d="M65.98,51.91l-.14,6.44c0,.29.41.33.49.07.04-.14.09-.27.13-.41.1-.31-.38-.44-.48-.13-.04.14-.09.27-.13.41l.49.07.14-6.44c0-.32-.49-.32-.5,0h0Z"/>
          <path class="cls-1" d="M67.94,55.2c-.17.72-.18,1.47-.01,2.19.13.55.4,1.24,1.07,1.25.54,0,.71-.49.9-.89.29-.61.62-1.21.95-1.8l-.47-.13c-.08,1.39-.53,2.64-1.28,3.8-.31.48-.68.98-1.22,1.23-.62.29-1.29.13-1.85-.2-.28-.17-.53.27-.25.43.61.36,1.34.55,2.03.34s1.15-.72,1.54-1.27c.91-1.29,1.44-2.75,1.53-4.33.01-.25-.35-.34-.47-.13-.26.47-.51.93-.75,1.41-.14.28-.25.64-.43.9-.45.6-.8-.63-.85-.9-.11-.59-.09-1.19.05-1.77.07-.31-.41-.45-.48-.13h0Z"/>
          <path class="cls-1" d="M30.28,68.54c-.3,2.26-.33,4.53-.1,6.8.03.32.53.32.5,0-.23-2.26-.2-4.54.1-6.8.04-.32-.46-.31-.5,0h0Z"/>
          <path class="cls-1" d="M31.08,68.42c.03-.11.12-.17.26-.19.11-.01.24.02.34.1.15.12.24.3.31.48.08.22.15.45.2.68.05.21.07.45-.04.65-.07.13-.19.23-.32.3-.32.16-.7.19-1.05.2-.32.01-.32.51,0,.5.73-.03,1.73-.18,1.92-1.04.1-.47-.06-1.01-.24-1.45-.15-.38-.4-.78-.83-.88s-.92.08-1.03.53c-.08.31.41.45.48.13h0Z"/>
          <path class="cls-1" d="M33.81,69.76c.64-.11,1.27-.51,1.47-1.15.17-.55-.05-1.26-.59-1.53-.32-.16-.72-.15-.97.14-.21.25-.22.61-.19.93.06.78.26,1.53.59,2.24.2.43.93,1.94,1.54,1.14.08-.11.02-.28-.09-.34-.13-.08-.26-.02-.34.09.06-.03.06-.04.01-.05-.03-.02-.06-.04-.08-.06-.06-.05-.1-.12-.15-.19-.09-.14-.17-.28-.25-.43-.16-.29-.29-.6-.4-.91-.12-.33-.2-.68-.26-1.03-.05-.28-.11-.61-.05-.9.06-.3.36-.27.56-.09.18.16.25.43.24.67-.04.58-.64.91-1.16.99-.32.05-.18.54.13.48h0Z"/>
          <path class="cls-1" d="M36.02,67.7c.17,1.14.26,2.3.26,3.45,0,.32.49.32.5,0,.01-.56.09-1.11.24-1.65.05-.17.38-1.39.62-1.3.07.02.1.19.12.24.04.14.07.28.1.41.07.28.12.57.16.86.08.59.11,1.19.09,1.79,0,.32.49.32.5,0,.02-.73-.03-1.46-.15-2.18-.06-.35-.13-.71-.23-1.05-.08-.27-.24-.55-.55-.59s-.53.19-.67.43c-.16.29-.28.62-.38.94-.22.67-.33,1.38-.35,2.08h.5c0-1.2-.1-2.4-.28-3.58-.02-.13-.19-.21-.31-.17-.14.04-.19.17-.17.31h0Z"/>
          <path class="cls-1" d="M42.04,66.58c.16,1.65.17,3.31.02,4.96l.47-.13c-.44-.59-.88-1.17-1.48-1.6-.27-.19-.61-.39-.95-.32-.28.06-.49.27-.54.55-.11.6.36,1.25.78,1.63.48.44,1.19.65,1.77.29.27-.17.02-.6-.25-.43-.42.26-.9.05-1.22-.27-.26-.26-.62-.7-.59-1.1.05-.53.9.19,1.06.33.37.35.68.76.99,1.16.15.2.44.13.47-.13.15-1.65.15-3.31-.02-4.96-.03-.32-.53-.32-.5,0h0Z"/>
          <path class="cls-1" d="M44.07,70.01c.4-.06.71-.35.96-.65s.53-.64.61-1.04c.08-.36,0-.74-.27-1.01s-.64-.36-.96-.18c-.3.16-.46.5-.55.82-.11.42-.16.88-.17,1.31s.05.91.15,1.35c.09.39.21.82.44,1.15s.59.57,1,.49c.35-.07.65-.35.64-.72,0-.32-.51-.32-.5,0,0,.26-.36.28-.52.17-.28-.18-.39-.57-.49-.87-.23-.77-.29-1.59-.16-2.38.05-.27.1-.67.33-.85.27-.21.54.12.58.37.05.35-.21.69-.42.94-.22.26-.46.55-.82.6-.32.05-.18.53.13.48h0Z"/>
          <path class="cls-1" d="M46.23,67.51c.28,1.24.46,2.5.55,3.77h.5c-.06-.57-.06-1.16.04-1.73.05-.27.11-.54.2-.8.03-.11.13-.53.29-.56.14-.02.23.43.25.51.08.28.14.56.17.85.07.57.06,1.16-.03,1.73-.05.31.43.45.48.13.11-.71.12-1.43,0-2.14-.05-.35-.13-.7-.25-1.03-.1-.27-.28-.54-.6-.55-.64-.02-.82.96-.93,1.41-.17.71-.21,1.45-.13,2.18.04.31.52.33.5,0-.09-1.31-.28-2.62-.57-3.91-.07-.31-.55-.18-.48.13h0Z"/>
          <path class="cls-1" d="M48.92,67.89c.64-.2,1.31-.27,1.98-.19.13.02.25-.13.25-.25,0-.15-.12-.23-.25-.25-.71-.08-1.43,0-2.11.21-.31.1-.18.58.13.48h0Z"/>
          <path class="cls-1" d="M49.79,65.71c-.12,1.94-.15,3.88-.09,5.82,0,.32.51.32.5,0-.05-1.94-.02-3.88.09-5.82.02-.32-.48-.32-.5,0h0Z"/>
          <path class="cls-1" d="M54.19,66.63c.59,1.7,1.34,3.33,2.24,4.89.14.24.44.1.47-.13.22-1.65.64-3.27,1.25-4.82.12-.3-.37-.43-.48-.13-.62,1.6-1.04,3.26-1.27,4.95l.47-.13c-.88-1.52-1.61-3.11-2.19-4.77-.1-.3-.59-.17-.48.13h0Z"/>
          <path class="cls-1" d="M58.69,69.92c.58.2,1.31.02,1.62-.55.28-.52.15-1.25-.42-1.51s-1.21.02-1.39.63c-.1.34-.12.72-.13,1.07-.01.38.02.77.13,1.14.2.67.7,1.26,1.39,1.45.31.08.44-.4.13-.48-.55-.14-.91-.63-1.06-1.16-.1-.35-.11-.72-.09-1.08.02-.3.02-.66.15-.93.11-.21.33-.29.56-.23s.37.27.37.5c0,.61-.64.83-1.14.66-.3-.11-.44.38-.13.48h0Z"/>
          <path class="cls-1" d="M62.17,68.59c-.35.34-.64.74-.87,1.18s-.43.94-.32,1.43c.2.94,1.31.93,2.06.82.13-.02.21-.19.17-.31-.04-.14-.17-.2-.31-.17-.48.07-1.4.14-1.45-.55-.02-.38.17-.77.35-1.1.19-.35.43-.66.72-.94.23-.23-.12-.58-.35-.35h0Z"/>
          <path class="cls-1" d="M67.86,72.1c.23-.87.33-1.77.31-2.66,0-.32-.51-.32-.5,0,.02.85-.07,1.7-.29,2.53-.08.31.4.44.48.13h0Z"/>
          <path class="cls-1" d="M67.38,67.84s-.01.08-.02.12c0,.02,0,.04,0,.06,0,.03,0,.06.01.09,0,0,0,0,0,.01,0,.02.02.05.03.07,0,0,0,.02.01.02.02.02.03.05.06.07.02.02.04.04.07.05,0,0,.05.02.07.03,0,0,0,0,0,0h.07s0,0,0,0c.03,0,.06,0,.08-.01,0,0,0,0,0,0,.02,0,.04-.02.06-.03,0,0,0,0,0,0,.03-.02.06-.04.08-.06.01-.02.04-.04.05-.06,0,0,0,0,0,0,0-.02.02-.04.03-.07.02-.07.01-.16-.03-.22,0,0,0,0,0,0,0,0,0,0,0,0l-.04-.05s-.04-.03-.06-.04c0,0,0,0,0,0-.01,0-.05-.02-.06-.03,0,0,0,0,0,0-.03-.01-.07-.01-.1,0-.03,0-.06.01-.09.03-.03.02-.05.04-.07.06-.02.02-.04.05-.04.09v.07s0,.09.03.13l.04.05s.07.05.11.06c0,0,0,0,0,0l-.06-.03s0,0,0,0l-.05-.04s0,0,0,0l-.04-.05s0,0,0,0l-.03-.06s0,0,0,0v-.07s0,0,0,.01v-.07s0,.01,0,.02l.03-.06s0,.02-.01.02l.04-.05s-.01.01-.02.02l.05-.04s-.01,0-.02.01l.06-.03s-.01,0-.02,0h.07s0,0-.01,0h.07s0,0-.01,0l.06.03s-.01,0-.02,0l.05.04s-.01-.01-.02-.02l.04.05s-.01-.02-.02-.03l.03.06s0-.03-.01-.04v.07s0-.07.01-.1v.07s0-.02,0-.02c.01-.03.01-.07,0-.1,0-.03-.01-.06-.03-.09-.02-.03-.04-.05-.06-.07-.02-.02-.05-.04-.09-.04h-.07s-.09,0-.13.03l-.05.04s-.05.07-.06.11h0Z"/>
          <path class="cls-1" d="M69.4,70.16c.56-.21,1.01-.63,1.24-1.19.1-.24.15-.51.06-.76-.09-.27-.34-.45-.63-.39-.3.06-.49.34-.62.6-.14.29-.24.59-.29.91-.1.63-.03,1.3.25,1.88.14.29.37.56.69.66.3.09.66.02.86-.23.08-.11.1-.25,0-.35-.09-.09-.27-.11-.35,0-.13.17-.36.15-.52.02-.19-.16-.29-.42-.36-.66-.16-.54-.15-1.12.03-1.66.06-.19.17-.56.37-.66.14-.07.12.22.1.31-.11.47-.53.88-.97,1.04-.3.11-.17.6.13.48h0Z"/>
          <path class="cls-1" d="M73.49,68.53c-.49.04-1.02.16-1.34.56-.27.34-.35.86-.09,1.23.15.22.39.32.64.39.14.04.47.08.51.27.04.16-.33.31-.44.36-.24.12-.52.2-.79.23-.13.02-.25.1-.25.25,0,.12.12.27.25.25.52-.07,1.12-.24,1.51-.6.18-.17.27-.42.18-.66s-.31-.4-.54-.49c-.2-.08-.49-.08-.64-.25-.11-.12-.1-.3-.06-.45.13-.44.66-.56,1.06-.59.32-.02.32-.52,0-.5h0Z"/>
          <path class="cls-1" d="M63.92,67.7c.05,1.38-.02,2.77-.23,4.13-.05.31.43.45.48.13.22-1.41.3-2.84.25-4.26-.01-.32-.51-.32-.5,0h0Z"/>
          <path class="cls-1" d="M65,69.93c.43-.49.98-.82,1.62-.96.13-.03.21-.18.17-.31-.04-.14-.18-.2-.31-.17-.71.16-1.36.54-1.84,1.09-.09.1-.1.25,0,.35.09.09.26.1.35,0h0Z"/>
          <path class="cls-1" d="M64.41,69.75l1.5,2.59c.16.28.59.03.43-.25l-1.5-2.59c-.16-.28-.59-.03-.43.25h0Z"/>
          <path class="cls-1" d="M22.09,72.48l-.91-7.02-.25.25c1.75.18,3.01,1.51,3.4,3.18.2.85.1,1.66-.47,2.34-.5.59-1.18.98-1.88,1.28-.29.13-.04.56.25.43.81-.35,1.6-.84,2.13-1.55.59-.78.67-1.7.45-2.64-.44-1.91-1.91-3.34-3.88-3.55-.12-.01-.27.13-.25.25l.91,7.02c.04.31.54.32.5,0h0Z"/>
          <path class="cls-1" d="M25.19,66.11c.11,2.12.27,4.24.47,6.36.02.21.26.33.43.18.74-.69,1.7-1.05,2.71-1.04.32,0,.32-.5,0-.5-1.14-.01-2.23.41-3.06,1.19l.43.18c-.2-2.12-.35-4.23-.47-6.36-.02-.32-.52-.32-.5,0h0Z"/>
          <path class="cls-1" d="M25.89,68.54l1.18-.34c.13-.04.22-.18.17-.31s-.17-.21-.31-.17l-1.18.34c-.13.04-.22.18-.17.31s.17.21.31.17h0Z"/>
          <path class="cls-1" d="M25.67,66.4l2.76-1.28c.12-.06.15-.23.09-.34-.07-.13-.22-.15-.34-.09l-2.76,1.28c-.12.06-.15.23-.09.34.07.13.22.15.34.09h0Z"/>
        </g>
        <path class="cls-1" d="M43.99,47.85c-3.65.09-7.31.23-10.94.62-2.07.22-4.16.51-6.16,1.09-3.35.97-5.82,3.21-7.69,6.16-2.48,3.91-3.77,9.11-3.15,13.73.44,3.25,2.15,6.12,5.14,7.61,2.82,1.4,6.03,1.46,9.11,1.69,7.33.54,14.67,1.11,22.03,1.24,4.72.08,9.6.07,14.2-1.07,3.17-.78,5.97-2.24,7.99-4.84,1.78-2.28,3.11-4.99,3.49-7.88.41-3.17-.46-6.29-2.23-8.92-1.44-2.12-3.34-3.89-5.42-5.38-1.34-.96-2.78-1.85-4.31-2.49-2.07-.87-4.31-1.25-6.54-1.46-3.12-.3-6.27-.27-9.39-.23-2.04.03-4.08.07-6.12.12-.32,0-.32.51,0,.5,3.65-.08,7.31-.19,10.96-.12,2.57.05,5.18.16,7.7.69,3.72.77,7.08,2.82,9.86,5.38,2.04,1.89,3.78,4.19,4.6,6.88,1,3.28.41,6.75-1.16,9.76-.88,1.69-2.02,3.35-3.46,4.61-1.14.99-2.5,1.71-3.91,2.23-3.87,1.43-8.15,1.65-12.23,1.72-6.34.11-12.69-.31-19.01-.74-3.68-.25-7.39-.41-11.05-.82-3.16-.35-6.39-1.45-8.23-4.24-1.68-2.55-1.86-5.77-1.51-8.72.22-1.84.63-3.67,1.28-5.4,1.36-3.61,3.9-7.4,7.57-8.97,1.42-.61,2.95-.94,4.46-1.2,2.75-.48,5.55-.69,8.33-.84,1.93-.11,3.86-.17,5.79-.22.32,0,.32-.51,0-.5Z"/>
      </g>
      <g>
        <path class="cls-1" d="M79.27,60c8.48-2.71,17.34-4.64,26.2-5.54,11.36-1.15,22.86-.32,33.91,2.55,5.37,1.39,10.62,3.24,15.68,5.51.58.26,1.09-.6.5-.86-9.73-4.35-20.1-7.19-30.71-8.24s-20.48-.24-30.54,1.75c-5.17,1.03-10.29,2.27-15.31,3.88-.61.2-.35,1.16.27.96h0Z"/>
        <path class="cls-1" d="M151.85,57.43c.57.85,1.36,1.49,2.06,2.21.66.69,1.23,1.53,1.14,2.53l.37-.48c-2.02.54-4.05,1.08-6.07,1.62-.62.17-.36,1.13.27.96,2.02-.54,4.05-1.08,6.07-1.62.23-.06.35-.26.37-.48.1-1.1-.45-2.11-1.14-2.92s-1.6-1.44-2.2-2.33c-.36-.53-1.22-.03-.86.5h0Z"/>
      </g>
      <g>
        <g>
          <path class="cls-1" d="M170.34,55.65c-.79-.38-1.72-.34-2.43.19-.6.45-1.1,1.26-.98,2.03.16,1.03,1.37.92,2.15.88.44-.02.9-.02,1.3.21s.55.62.42,1.04c-.32,1.11-1.88,1.21-2.83,1.31-.32.03-.32.53,0,.5.86-.09,1.88-.17,2.6-.7.62-.45,1-1.3.62-2.02s-1.26-.87-2-.85c-.46.02-1.07.14-1.5-.08s-.27-.81-.11-1.16c.45-.94,1.55-1.4,2.51-.93.29.14.54-.29.25-.43h0Z"/>
          <path class="cls-1" d="M172.36,57.31c-.57.48-.74,1.26-.72,1.97.01.34.06.68.16,1.01.1.34.24.75.6.89.38.15.78-.07,1.08-.3.33-.26.58-.6.73-.99.13-.32.18-.67.21-1.02s.04-.68-.02-1.02c-.07-.41-.29-.82-.72-.94-.47-.13-.96.1-1.32.39-.11.08-.09.27,0,.35.1.11.25.08.35,0,.22-.17.57-.35.85-.25.24.09.32.38.35.61.06.48.02,1.05-.11,1.51-.09.32-.26.6-.5.83-.16.15-.45.43-.69.37-.22-.05-.29-.42-.34-.61-.07-.25-.11-.51-.12-.77-.03-.61.07-1.28.57-1.69.25-.21-.11-.56-.35-.35Z"/>
          <path class="cls-1" d="M175.1,57.5c-.02,1.22.14,2.44.45,3.62.08.32.54.18.48-.13-.08-.46-.13-.93-.14-1.39,0-.41-.02-.85.08-1.24.04-.15.1-.31.23-.41.09-.07.12-.06.16.04.04.09.07.19.1.28.15.43.24.88.28,1.33.02.26.43.36.49.07.09-.49.25-.97.49-1.4.14-.26.31-.5.52-.72.1-.11.2-.22.32-.31.03-.03.06-.05.09-.07.04-.02.03-.03-.03-.04.03.03-.01-.01-.01-.02,0,.02.04.11.05.15.02.08.02.16.02.24,0,.24,0,.48-.03.72-.06.64-.17,1.27-.28,1.9-.06.31.42.45.48.13.11-.6.21-1.2.28-1.8.05-.43.1-.89,0-1.32-.08-.36-.38-.61-.74-.39-.24.15-.45.38-.63.6s-.34.44-.48.69c-.26.47-.44.99-.54,1.52l.49.07c-.05-.6-.18-1.19-.41-1.75-.09-.23-.24-.45-.51-.46-.25-.01-.48.16-.62.36-.31.42-.31,1-.32,1.5-.01.63.05,1.26.16,1.88l.48-.13c-.31-1.14-.45-2.31-.44-3.49,0-.32-.5-.32-.5,0h0Z"/>
          <path class="cls-1" d="M180.35,59.05c.53-.2,1.18-.47,1.37-1.07.15-.47-.08-1.12-.6-1.24-.59-.13-.95.46-1.05.95-.13.67-.09,1.45.16,2.09s.77,1.22,1.47,1.41c.31.09.44-.4.13-.48-.56-.15-.97-.62-1.15-1.16-.12-.33-.16-.68-.17-1.03,0-.29,0-.59.09-.87.05-.17.16-.43.37-.43.18,0,.28.22.3.38.07.55-.64.81-1.04.96-.3.11-.17.6.13.48h0Z"/>
          <path class="cls-1" d="M187.01,53.57c-.09,2.3,0,4.61.29,6.9.04.32.54.32.5,0-.28-2.29-.38-4.59-.29-6.9.01-.32-.49-.32-.5,0h0Z"/>
          <path class="cls-1" d="M189.84,60.05l.28-3.91c.02-.32-.48-.32-.5,0l-.28,3.91c-.02.32.48.32.5,0h0Z"/>
          <path class="cls-1" d="M191.08,56.14l.03,3.46c0,.33.46.31.5,0,.15-1.16.32-2.47,1.11-3.39.05-.05.09-.11.14-.16.03-.03.06-.06.09-.09-.05-.08-.06-.08-.03-.02.02.16.08.33.1.49.06.36.09.72.09,1.08,0,.74-.13,1.46-.37,2.16-.1.31.38.44.48.13.22-.64.35-1.31.38-1.99.02-.35,0-.69-.03-1.04-.04-.32-.07-.68-.18-.99-.1-.28-.36-.44-.64-.29-.24.13-.44.41-.6.63-.33.45-.55.99-.7,1.53-.18.64-.27,1.3-.35,1.95h.5l-.03-3.46c0-.32-.5-.32-.5,0h0Z"/>
          <path class="cls-1" d="M194.94,58.27c.83.1,2.19-.18,2.31-1.2.05-.44-.19-.86-.49-1.17-.27-.28-.67-.55-1.08-.5-.67.08-.94.95-1.05,1.5-.15.76-.16,1.62.18,2.33.43.9,1.59,1.19,2.47.85.3-.12.17-.6-.13-.48-.59.23-1.41.16-1.79-.41-.33-.48-.35-1.14-.31-1.7.04-.48.14-1.15.52-1.5.14-.13.3-.11.51,0,.28.16.54.43.64.74.12.34-.07.61-.35.79-.42.27-.94.31-1.42.25-.32-.04-.32.46,0,.5h0Z"/>
          <path class="cls-1" d="M200.56,56.78v2.73c.17-.02.33-.04.49-.07-.11-.7-.36-1.37-.74-1.97-.32-.51-.83-1.22-1.51-1.22-.36,0-.6.25-.71.58-.12.36-.2.75-.21,1.13-.03.7.28,1.35.85,1.77.64.46,1.53.46,2.19.04.27-.17.02-.6-.25-.43-.45.29-1.04.33-1.52.07-.45-.25-.74-.71-.77-1.22-.02-.31.03-.61.11-.91.04-.18.08-.54.33-.52.22.01.42.18.57.33.2.21.37.44.52.68.34.55.56,1.16.66,1.81.04.28.49.21.49-.07v-2.73c0-.32-.5-.32-.5,0h0Z"/>
          <path class="cls-1" d="M202,55.23c-.05,1.48.04,2.97.27,4.43.04.29.48.2.49-.07.02-.45.03-.9.05-1.34.01-.37,0-.76.07-1.13.05-.3.16-.64.43-.81.2-.12.54-.2.71.02.19.25.63,0,.43-.25-.54-.72-1.57-.32-1.9.4-.19.43-.21.9-.23,1.36-.02.59-.04,1.18-.07,1.76l.49-.07c-.22-1.42-.3-2.86-.25-4.3.01-.32-.49-.32-.5,0h0Z"/>
          <path class="cls-1" d="M205.51,53.48l-.13,6.15c0,.29.41.33.49.07.04-.13.08-.26.12-.39.1-.31-.38-.44-.48-.13-.04.13-.08.26-.12.39l.49.07.13-6.15c0-.32-.49-.32-.5,0h0Z"/>
          <path class="cls-1" d="M207.39,56.63c-.16.69-.17,1.41-.01,2.1.12.53.39,1.2,1.03,1.2.52,0,.68-.47.87-.86.28-.58.59-1.15.91-1.72l-.47-.13c-.07,1.32-.5,2.52-1.22,3.63-.3.46-.65.93-1.16,1.17-.59.27-1.23.12-1.76-.2-.28-.17-.53.27-.25.43.58.35,1.28.53,1.95.32s1.1-.69,1.48-1.22c.87-1.23,1.38-2.63,1.46-4.14.01-.25-.35-.34-.47-.13-.24.45-.49.89-.72,1.35-.14.27-.23.62-.41.85-.42.56-.75-.61-.79-.86-.11-.56-.08-1.13.05-1.69.07-.31-.41-.45-.48-.13h0Z"/>
          <path class="cls-1" d="M171.41,69.37c-.29,2.15-.32,4.33-.1,6.49.03.32.53.32.5,0-.22-2.16-.19-4.34.1-6.49.04-.32-.46-.31-.5,0h0Z"/>
          <path class="cls-1" d="M172.2,69.26c.01-.06.03-.08.05-.1.06-.04.11-.06.18-.07.1-.01.22.02.32.09.14.11.23.29.29.45.08.21.14.43.19.65.08.37.01.7-.34.89-.3.16-.67.18-1,.19s-.32.51,0,.5c.7-.02,1.66-.18,1.85-1,.1-.46-.06-.97-.23-1.4-.14-.37-.39-.75-.8-.85s-.89.08-1,.51c-.08.31.41.45.48.13h0Z"/>
          <path class="cls-1" d="M174.8,70.55c.61-.1,1.22-.49,1.41-1.11.17-.53-.05-1.21-.56-1.47-.31-.15-.7-.14-.94.13-.21.24-.21.59-.19.89.06.74.25,1.47.56,2.14.19.42.9,1.86,1.49,1.09.08-.11.02-.28-.09-.34-.13-.08-.26-.02-.34.09.07-.03.08-.04.03-.05-.03-.01-.05-.03-.08-.05-.06-.05-.1-.12-.14-.18-.09-.13-.17-.27-.24-.41-.15-.28-.28-.57-.38-.87-.11-.32-.19-.65-.25-.98-.04-.27-.11-.58-.05-.85s.34-.25.51-.08c.17.16.24.4.22.63-.04.55-.61.86-1.1.94-.32.05-.18.54.13.48h0Z"/>
          <path class="cls-1" d="M176.9,68.57c.16,1.09.24,2.19.25,3.29,0,.32.49.32.5,0,.01-.53.09-1.06.23-1.57.07-.26.16-.51.26-.75.03-.08.19-.53.31-.49.06.02.1.18.11.22.04.13.07.26.1.4.06.27.11.55.15.82.08.57.1,1.14.09,1.71,0,.32.49.32.5,0,.02-.7-.03-1.39-.14-2.08-.06-.33-.12-.68-.22-1-.08-.26-.24-.53-.53-.57s-.52.18-.65.42c-.15.28-.27.6-.37.9-.21.64-.32,1.32-.33,1.99h.5c0-1.15-.1-2.29-.27-3.43-.02-.13-.19-.21-.31-.17-.14.04-.19.17-.17.31h0Z"/>
          <path class="cls-1" d="M182.64,67.5c.16,1.58.16,3.16.02,4.74l.47-.13c-.42-.56-.84-1.12-1.41-1.54-.26-.18-.58-.38-.91-.31-.28.05-.47.26-.52.54-.1.58.35,1.2.74,1.57.46.43,1.14.63,1.7.28.27-.17.02-.6-.25-.43-.4.25-.85.05-1.15-.25-.24-.24-.6-.67-.56-1.04.06-.48.84.19.99.33.36.33.65.72.94,1.11.15.2.44.13.47-.13.15-1.58.14-3.17-.02-4.74-.03-.32-.53-.32-.5,0h0Z"/>
          <path class="cls-1" d="M184.6,70.79c.39-.06.68-.33.93-.62s.51-.61.59-1c.07-.35,0-.71-.26-.98s-.62-.35-.93-.18c-.29.16-.45.48-.53.79-.11.41-.16.84-.16,1.26s.05.87.14,1.29c.09.38.2.78.42,1.11s.57.55.97.48c.34-.06.63-.34.62-.7,0-.32-.51-.32-.5,0,0,.24-.33.25-.48.15-.26-.17-.37-.54-.46-.82-.22-.73-.28-1.52-.15-2.27.04-.25.09-.63.31-.8.25-.19.5.11.53.35.05.33-.2.66-.4.89-.21.25-.43.52-.78.57-.32.05-.18.53.13.48h0Z"/>
          <path class="cls-1" d="M186.65,68.39c.27,1.19.44,2.39.53,3.6h.5c-.06-.55-.05-1.1.04-1.65.05-.26.11-.52.19-.77.03-.09.13-.52.26-.53.12,0,.2.4.22.48.07.27.13.54.17.81.07.55.06,1.1-.03,1.65-.05.31.43.45.48.13.11-.68.11-1.37,0-2.05-.05-.33-.13-.67-.24-.98-.1-.26-.28-.53-.59-.54-.62-.02-.79.91-.9,1.36-.16.68-.2,1.39-.12,2.08.04.31.52.33.5,0-.09-1.26-.27-2.51-.55-3.74-.07-.31-.55-.18-.48.13h0Z"/>
          <path class="cls-1" d="M189.23,68.76c.61-.19,1.25-.25,1.89-.18.13.02.25-.13.25-.25,0-.15-.12-.23-.25-.25-.68-.08-1.37,0-2.02.2-.13.04-.21.17-.17.31.03.13.18.22.31.17h0Z"/>
          <path class="cls-1" d="M190.04,66.67c-.11,1.85-.14,3.7-.09,5.56,0,.32.51.32.5,0-.05-1.85-.02-3.71.09-5.56.02-.32-.48-.32-.5,0h0Z"/>
          <path class="cls-1" d="M194.25,67.56c.56,1.62,1.28,3.19,2.14,4.67.14.24.44.1.47-.13.21-1.58.62-3.12,1.19-4.6.12-.3-.37-.43-.48-.13-.59,1.53-1,3.11-1.21,4.73l.47-.13c-.84-1.45-1.54-2.97-2.09-4.55-.1-.3-.59-.17-.48.13h0Z"/>
          <path class="cls-1" d="M198.56,70.7c.56.2,1.27.02,1.56-.53.27-.51.15-1.2-.4-1.46s-1.17.02-1.35.61c-.1.32-.11.69-.12,1.03-.01.37.02.74.13,1.09.19.64.67,1.21,1.33,1.39.31.08.44-.4.13-.48-.52-.14-.86-.6-1-1.1-.09-.34-.1-.68-.09-1.03.01-.28.02-.62.14-.88.1-.2.31-.27.52-.21s.34.25.34.47c0,.57-.6.78-1.07.62-.3-.11-.44.38-.13.48h0Z"/>
          <path class="cls-1" d="M201.88,69.42c-.33.33-.62.71-.83,1.13s-.41.9-.31,1.37c.19.9,1.26.9,1.98.79.13-.02.21-.19.17-.31-.04-.14-.17-.2-.31-.17-.45.07-1.33.14-1.37-.51-.02-.36.16-.74.34-1.04.18-.33.41-.63.68-.9.23-.23-.12-.58-.35-.35h0Z"/>
          <path class="cls-1" d="M207.33,72.77c.22-.83.32-1.69.29-2.55,0-.32-.51-.32-.5,0,.02.81-.07,1.63-.28,2.41-.08.31.4.44.48.13h0Z"/>
          <path class="cls-1" d="M206.85,68.7s-.01.08-.02.12c0,.02,0,.04,0,.06,0,.03,0,.06.01.09,0,0,0,0,0,.01,0,.02.02.05.03.07,0,0,0,.01.01.02.02.02.03.05.06.07.02.02.04.04.07.05,0,0,.04.02.07.03,0,0,0,0,0,0h.07s0,0,0,0c.03,0,.06,0,.08-.01,0,0,0,0,0,0,.02,0,.04-.02.06-.03,0,0,0,0,0,0,.02-.01.05-.03.06-.05,0,0,.01,0,.01-.01.01-.02.04-.04.05-.06,0,0,0,0,0,0,0-.02.02-.04.03-.07.02-.07.01-.15-.03-.22,0,0,0,0,0,0,0,0,0,0,0,0l-.04-.05s-.04-.03-.06-.04c0,0,0,0,0,0-.01,0-.05-.02-.06-.03,0,0,0,0,0,0-.03-.01-.07-.01-.1,0-.03,0-.06.01-.09.03-.03.02-.05.04-.07.06-.02.02-.04.05-.04.09v.07s0,.09.03.13l.04.05s.07.05.11.06c0,0,0,0,0,0l-.06-.03s0,0,0,0l-.05-.04s0,0,0,0l-.04-.05s0,0,0,0l-.03-.06s0,0,0,0v-.07s0,0,0,.01v-.07s0,.01,0,.02l.03-.06s0,.02-.01.02l.04-.05s-.01.01-.02.02l.05-.04s-.01,0-.02.01l.06-.03s-.01,0-.02,0h.07s0,0-.01,0h.07s0,0-.01,0l.06.03s-.01,0-.02,0l.05.04s-.01-.01-.02-.02l.04.05s-.01-.02-.02-.03l.03.06s0-.03-.01-.04v.07s0-.06.01-.09v.07s0-.01,0-.02c.01-.03.01-.07,0-.1,0-.03-.01-.06-.03-.09-.02-.03-.04-.05-.06-.07-.02-.02-.05-.04-.09-.04h-.07s-.09,0-.13.03l-.05.04s-.05.07-.06.11h0Z"/>
          <path class="cls-1" d="M208.79,70.93c.54-.2.98-.6,1.2-1.14.09-.23.14-.49.06-.73-.09-.26-.34-.43-.61-.38-.29.06-.48.33-.6.58-.13.28-.23.57-.28.87-.09.61-.03,1.24.24,1.8.14.28.36.54.67.64.29.09.64.02.83-.22.08-.11.1-.25,0-.35-.09-.09-.27-.11-.35,0-.12.16-.33.14-.48.02-.18-.15-.28-.4-.34-.62-.15-.52-.14-1.07.02-1.58.06-.19.16-.52.35-.62.04-.02.05-.03.07.03.03.08.02.17,0,.25-.1.45-.5.83-.92.99-.3.11-.17.6.13.48h0Z"/>
          <path class="cls-1" d="M212.7,69.35c-.47.04-.98.16-1.28.54-.26.33-.34.83-.09,1.19.15.21.37.31.61.37.13.04.44.08.48.25.03.14-.32.28-.42.33-.23.11-.49.19-.75.22-.13.02-.25.1-.25.25,0,.12.12.27.25.25.5-.06,1.07-.23,1.45-.58.18-.16.26-.41.18-.64s-.3-.39-.53-.48c-.19-.07-.47-.08-.61-.24-.1-.11-.1-.28-.06-.42.12-.41.63-.53,1-.56.32-.02.32-.52,0-.5h0Z"/>
          <path class="cls-1" d="M203.54,68.57c.05,1.32-.02,2.64-.22,3.94-.05.31.43.45.48.13.21-1.35.29-2.71.24-4.08-.01-.32-.51-.32-.5,0h0Z"/>
          <path class="cls-1" d="M204.59,70.71c.1-.12.22-.23.34-.33.07-.06.08-.07.16-.12.06-.05.13-.09.2-.13.06-.04.13-.07.2-.11.04-.02.07-.03.11-.05,0,0,.06-.03.04-.02s.03-.01.03-.01c.15-.06.31-.11.47-.14.13-.03.21-.18.17-.31-.04-.14-.18-.2-.31-.17-.68.15-1.31.52-1.76,1.04-.09.1-.1.25,0,.35.09.09.26.1.35,0h0Z"/>
          <path class="cls-1" d="M204.01,70.54l1.44,2.47c.16.28.59.03.43-.25l-1.44-2.47c-.16-.28-.59-.03-.43.25h0Z"/>
          <path class="cls-1" d="M163.61,73.13c-.29-2.23-.58-4.47-.87-6.7l-.25.25c1.67.17,2.87,1.44,3.24,3.03.19.8.09,1.58-.45,2.22-.48.56-1.13.94-1.8,1.23-.29.13-.04.56.25.43.78-.33,1.53-.8,2.04-1.48.56-.75.64-1.63.44-2.53-.42-1.83-1.83-3.2-3.72-3.4-.12-.01-.27.13-.25.25.29,2.23.58,4.47.87,6.7.04.31.54.32.5,0h0Z"/>
          <path class="cls-1" d="M166.55,67.05c.11,2.03.26,4.05.45,6.07.02.21.26.33.43.18.7-.66,1.62-1,2.58-.99.32,0,.32-.5,0-.5-1.09-.01-2.13.39-2.93,1.14l.43.18c-.19-2.02-.34-4.04-.45-6.07-.02-.32-.52-.32-.5,0h0Z"/>
          <path class="cls-1" d="M167.23,69.38l1.12-.33c.13-.04.22-.18.17-.31s-.17-.21-.31-.17l-1.12.33c-.13.04-.22.18-.17.31s.17.21.31.17h0Z"/>
          <path class="cls-1" d="M167.03,67.34l2.64-1.22c.12-.06.15-.23.09-.34-.07-.13-.22-.15-.34-.09l-2.64,1.22c-.12.06-.15.23-.09.34.07.13.22.15.34.09h0Z"/>
        </g>
        <path class="cls-1" d="M184.52,49.6c-3.48.08-6.97.22-10.43.59-1.98.21-3.97.49-5.88,1.04-3.18.92-5.51,3.01-7.31,5.79-2.41,3.73-3.67,8.73-3.1,13.17.4,3.07,1.96,5.8,4.76,7.26s5.71,1.47,8.63,1.68c7.03.52,14.08,1.07,21.13,1.2,4.54.08,9.24.08,13.68-1.01,3.03-.74,5.71-2.12,7.66-4.6,1.72-2.2,3.01-4.81,3.37-7.6.39-3.01-.44-5.97-2.12-8.47-1.37-2.03-3.19-3.73-5.17-5.14-1.28-.91-2.66-1.77-4.11-2.38-1.98-.83-4.11-1.2-6.24-1.41-3.01-.29-6.05-.26-9.06-.22-1.93.03-3.86.07-5.8.12-.32,0-.32.51,0,.5,3.49-.08,6.98-.18,10.46-.12,2.48.05,4.98.16,7.41.67,3.52.74,6.71,2.69,9.35,5.11,1.97,1.82,3.64,4.04,4.42,6.63.94,3.15.35,6.48-1.17,9.35-.84,1.59-1.93,3.17-3.31,4.35-1.09.93-2.37,1.61-3.71,2.1-3.72,1.37-7.83,1.57-11.76,1.63-6.1.1-12.2-.31-18.28-.73-3.48-.24-7.01-.37-10.47-.78-3.05-.36-6.12-1.48-7.81-4.21-1.5-2.42-1.65-5.42-1.32-8.17.21-1.77.61-3.53,1.25-5.2,1.3-3.42,3.73-7.01,7.22-8.5,1.37-.58,2.85-.9,4.31-1.15,2.6-.44,5.24-.64,7.87-.79,1.85-.1,3.69-.17,5.54-.21.32,0,.32-.51,0-.5Z"/>
      </g>
    </g>
  </g>
</svg>