<?xml version="1.0" encoding="UTF-8"?>
<svg id="Layer_2" data-name="Layer 2" xmlns="http://www.w3.org/2000/svg" viewBox="0 0 238.48 109.94">
  <defs>
    <style>
      .cls-1 {
        fill: #231f20;
      }

      .cls-2 {
        fill: #ed1c24;
      }

      .cls-3 {
        fill: #00aeef;
      }
    </style>
  </defs>
  <g id="Layer_1-2" data-name="Layer 1">
    <path class="cls-2" d="M61.26,29.33c-9.6-1.75-19.65-.78-28.79,2.64-5.62,2.1-10.83,5.08-15.47,8.88-6.63,5.41-11.72,12.61-14.77,20.6-1.87,4.9-2.66,10.2-1.99,15.42.61,4.75,2.47,9.03,4.73,13.21,2.04,3.79,4.37,7.4,7.44,10.45,3.89,3.86,8.74,6.57,14.03,7.98,4.86,1.29,9.91,1.52,14.91,1.42,5.1-.1,10.17-.42,15.17-1.45,4.52-.93,9.02-2.32,13.28-4.09,4.93-2.05,9.51-4.89,13.06-8.93,6.58-7.5,9.24-17.61,10.22-27.33.5-5.01.9-10.23-.58-15.11-1.37-4.53-3.87-8.74-7.15-12.15-5.56-5.8-13.17-9.16-20.91-10.9-1.06-.24-2.12-.44-3.19-.64-.63-.12-.9.85-.27.96,6.47,1.19,12.81,3.16,18.32,6.84,7.76,5.17,13.17,13.75,13.22,23.2.03,5.07-.54,10.25-1.57,15.21s-2.52,9.42-4.9,13.66-5.78,8.06-9.94,10.79c-4.57,2.99-9.78,4.8-14.99,6.3-4.07,1.17-8.22,1.95-12.44,2.31-4.87.41-9.87.55-14.75.15-5.15-.42-10.24-1.68-14.74-4.27s-8.07-6.3-10.86-10.59c-.95-1.47-1.8-2.99-2.62-4.53-.99-1.83-1.94-3.68-2.69-5.63-1.96-5.07-2.52-10.57-1.55-15.92.75-4.1,2.33-7.95,4.29-11.61,2.24-4.19,4.96-8.02,8.32-11.38,3.88-3.87,8.39-7.07,13.28-9.53,8.86-4.45,18.88-6.44,28.77-5.62,1.63.13,3.24.34,4.85.64.63.11.9-.85.27-.96Z"/>
    <path class="cls-3" d="M181.62,26.02c-7.19,1.23-14.21,3.71-20.36,7.66-8.79,5.65-15.49,14.35-18.36,24.43-1.33,4.67-1.81,9.6-1.15,14.41s2.69,9.61,5.68,13.69c2.38,3.25,5.2,6.14,8.13,8.9,3.63,3.43,7.68,6.4,12.21,8.53,5.52,2.61,11.54,3.94,17.62,4.23,4.94.23,9.87-.23,14.76-.95,5.27-.78,10.65-1.5,15.62-3.52s9.39-5.06,13-8.95c4.93-5.3,8.42-12.16,9.41-19.36.71-5.2.07-10.45-1.5-15.44-1.05-3.31-2.44-6.53-3.91-9.67-1.62-3.49-3.58-6.81-6-9.8-3.19-3.94-7.15-7.22-11.59-9.66-9.05-4.98-19.64-6.33-29.8-5.08-1.26.16-2.51.35-3.75.56-.63.11-.36,1.07.27.96,8.2-1.4,16.63-1.4,24.65,1.01,5.45,1.64,10.61,4.36,14.91,8.11,3.24,2.82,5.95,6.19,8.12,9.89,1.62,2.76,2.91,5.69,4.16,8.63,1.69,3.98,3.07,8.11,3.55,12.42.88,7.79-1.24,15.47-5.51,21.97-2.47,3.76-5.63,7.05-9.32,9.62-4.65,3.25-9.88,5.13-15.43,6.16-9.98,1.86-20.38,3.22-30.4.87-5.66-1.33-10.98-3.81-15.64-7.28-2.99-2.22-5.7-4.83-8.28-7.51-3.42-3.55-6.58-7.57-8.36-12.22-1.67-4.35-2.17-9.07-1.73-13.69.94-10.02,6.12-19.52,13.57-26.2,6.38-5.72,14.4-9.4,22.72-11.23.99-.22,1.99-.41,2.99-.58.63-.11.36-1.07-.27-.96Z"/>
    <g>
      <path class="cls-1" d="M116.39,19.53c1.71-.24,3.34-1,4.97-1.58,1.53-.54,3.07-1.08,4.56-1.73.59-.25.08-1.12-.5-.86-1.47.63-2.99,1.15-4.49,1.69s-3.14,1.29-4.8,1.52c-.63.09-.36,1.05.27.96h0Z"/>
      <path class="cls-1" d="M120.78,17.56c-.41,3.37-.76,6.74-1.05,10.12h1c0-.12.02-.24.03-.37.05-.64-.95-.64-1,0,0,.12-.02.24-.03.37-.05.64.94.64,1,0,.29-3.38.64-6.75,1.05-10.12.08-.64-.92-.63-1,0h0Z"/>
    </g>
    <path class="cls-2" d="M27,6.34c1.8,7.85,4.4,15.49,7.74,22.81.23.5.89.19.93-.25.33-3.54,1.35-6.96,2.57-10.29s2.68-6.8,4.05-10.19c.24-.6-.73-.86-.96-.27-2.7,6.69-5.97,13.48-6.65,20.75l.93-.25c-3.31-7.24-5.86-14.81-7.64-22.58-.14-.63-1.11-.36-.96.27h0Z"/>
    <path class="cls-3" d="M179.54.63c1.15,7.55,3.5,14.89,6.92,21.71.16.32.7.33.86,0,1.5-3.11,3-6.23,4.5-9.34.36-.75.72-1.5,1.08-2.25.11-.23.24-.63.5-.74.37-.16.63.33.79.61.78,1.44,1.33,3.06,1.98,4.57.32.75.64,1.49.96,2.24.23.54.48,1.1.93,1.5.89.8,1.99.37,2.65-.48.42-.54.72-1.16,1.05-1.75.42-.74.85-1.48,1.29-2.22.8-1.34,1.62-2.66,2.46-3.96.97-1.5,1.98-2.98,3.01-4.44.54-.76,1.09-1.52,1.65-2.26.48-.64,1.01-1.66,1.73-2.02.58-.29.07-1.15-.5-.86s-.92.83-1.31,1.35c-.49.65-.98,1.3-1.47,1.96-.96,1.32-1.9,2.66-2.81,4.01-1.82,2.71-3.54,5.49-5.14,8.34-.3.54-.62,1.35-1.2,1.66-.68.37-1.08-.48-1.31-.97-.7-1.52-1.33-3.09-1.99-4.63-.33-.77-.64-1.56-1-2.32-.24-.52-.6-1.08-1.16-1.3-1.37-.54-1.96,1.18-2.41,2.09-1.72,3.56-3.43,7.13-5.15,10.69h.86c-3.39-6.75-5.68-14.01-6.82-21.47-.1-.63-1.06-.36-.96.27h0Z"/>
    <g>
      <path class="cls-1" d="M90.12,43.35c5.97-5.04,13.22-8.68,20.92-10.31,3.81-.8,7.72-1.22,11.62-1.07,2.78.1,5.54.51,8.21,1.28,1.2.35,2.37.81,3.53,1.27,4.83,1.88,9.67,3.64,13.93,6.65,1.05.75,2.05-.99,1.01-1.73-4.02-2.85-8.53-4.54-13.08-6.33-1.38-.54-2.75-1.1-4.16-1.57-2.41-.8-4.96-1.22-7.48-1.44-8.95-.79-18.32,1.27-26.28,5.37-3.45,1.78-6.68,3.97-9.65,6.47-.98.83.44,2.24,1.41,1.41h0Z"/>
      <path class="cls-1" d="M144.65,31.86c.91,2.47,1.75,5.03,2.95,7.38.06.12.13.39.22.46.15.12-.09,0,.07-.05-.14.04-.28.11-.42.15-.87.28-1.74.54-2.62.77-1.83.48-3.69.84-5.56,1.1-1.11.15-.85,2.05.27,1.96.21-.02.42-.03.63-.05.54-.04,1-.43,1-1,0-.51-.46-1.04-1-1-.21.02-.42.03-.63.05l.27,1.96c2.08-.29,4.15-.71,6.17-1.27.92-.25,1.9-.47,2.76-.88.92-.44,1.28-1.4.97-2.35-.15-.48-.44-.93-.65-1.39-.22-.48-.39-.88-.58-1.36-.67-1.66-1.3-3.34-1.92-5.02-.19-.51-.68-.85-1.23-.7-.49.13-.89.72-.7,1.23h0Z"/>
    </g>
    <g>
      <path class="cls-1" d="M113.36,34.92c-.52.44-.82,1.04-1.03,1.67-.24.71-.46,1.46-.64,2.19-.3,1.21-.17,2.86,1.24,3.28.31.09.44-.39.13-.48-1.34-.41-1.05-2.14-.76-3.14.32-1.08.51-2.4,1.41-3.17.25-.21-.11-.56-.35-.35h0Z"/>
      <path class="cls-1" d="M114.33,36.28c-.11,1.43-.19,2.85-.22,4.28,0,.32.49.32.5,0,.03-1.43.11-2.86.22-4.28.03-.32-.47-.32-.5,0h0Z"/>
      <path class="cls-1" d="M116.46,40.32c-.02-.68.08-1.34.28-1.99.1-.31-.39-.44-.48-.13-.22.68-.32,1.41-.3,2.12,0,.32.51.32.5,0h0Z"/>
      <path class="cls-1" d="M116.64,36.45h-.04c-.32,0-.32.5,0,.5h.04c.32,0,.32-.5,0-.5h-.04c-.32,0-.32.5,0,.5h.04c.32,0,.32-.5,0-.5h0Z"/>
      <path class="cls-1" d="M117.35,37.48c-.03,1.01.1,2.03.38,3,.07.26.51.22.49-.07-.04-.55.04-1.05.18-1.58.08-.29.13-.74.38-.94.12-.09.34-.16.48-.09.13.07.15.28.17.41.05.36.03.73,0,1.09-.03.32-.06.6-.11.9-.02.13.03.27.17.31.12.03.29-.04.31-.17.12-.75.24-1.58.09-2.34-.05-.23-.15-.46-.34-.6-.23-.16-.54-.15-.79-.06-.46.17-.64.58-.76,1.02-.18.67-.33,1.34-.28,2.05l.49-.07c-.27-.93-.39-1.9-.36-2.87,0-.32-.49-.32-.5,0h0Z"/>
      <path class="cls-1" d="M121.02,39.31c.52-.12.97-.42,1.27-.86s.5-1.2-.08-1.54c-.61-.36-1.33.34-1.58.85-.3.61-.26,1.33,0,1.95.28.64.89,1.14,1.63.97.31-.07.18-.55-.13-.48-.43.1-.79-.21-.98-.57-.22-.4-.3-.91-.18-1.36.06-.23.18-.44.34-.61.13-.14.35-.36.56-.34.17.01.23.2.21.35-.02.19-.12.37-.22.52-.02.03-.05.07-.07.1-.03.04.03-.03,0,0-.1.12-.21.22-.33.31-.18.11-.37.19-.57.23-.31.07-.18.55.13.48h0Z"/>
      <path class="cls-1" d="M125,37.53c-.12.89-.24,1.78-.36,2.68l.49.07c0-.36-.03-.73-.07-1.09-.06-.49-.12-1.09-.42-1.51-.17-.24-.48-.41-.78-.37-.28.03-.5.23-.67.44-.43.53-.68,1.23-.38,1.89.36.8,1.34,1.12,2.14.87.31-.09.18-.58-.13-.48-.54.16-1.19,0-1.5-.5-.15-.25-.18-.54-.1-.82.04-.12.09-.24.15-.35.02-.04.05-.08.08-.13.01-.02.03-.04.05-.07,0,0,.06-.09.03-.04.11-.14.23-.28.4-.33,0,0,.02,0,.02,0,.04,0-.06-.02.01,0,.07.02.14.04.19.08.02.02.04.03.06.05.04.04-.03-.04,0,.01.02.02.03.05.05.07.09.15.14.34.19.54.05.23.09.46.11.67.04.35.06.7.07,1.04,0,.12.09.23.22.25.11.01.26-.05.27-.18.12-.89.24-1.78.36-2.68.02-.13-.03-.27-.17-.31-.12-.03-.29.04-.31.17h0Z"/>
      <path class="cls-1" d="M126.13,37.62c.05.7.11,1.41.17,2.11.02.25.02.51.08.76.05.21.34.3.47.09.07-.12.04-.31.04-.43.01-.57.07-1.15.27-1.68.06-.15.14-.3.23-.43.05-.06.1-.13.17-.17.02-.01.03-.02.05-.03-.02.01,0,0,0,0,0,0,.04,0,0,0-.04,0,0,0,0,0,0,0,.02,0,.03.01.01,0,.03.02.05.04.04.04.08.09.11.15.06.11.07.12.1.23.1.31.58.18.48-.13-.08-.26-.22-.54-.45-.7-.37-.25-.74.02-.97.32-.43.59-.54,1.39-.58,2.1,0,.14-.01.27-.01.41,0,.04,0,.09,0,.13,0,.07,0,.03,0,0l.06-.11h0c.08-.02.16-.04.24-.06h0s.07.04.11.06c.02.01.08.16.06.07-.02-.06,0,.07,0,.02,0-.02,0-.04,0-.06-.02-.15-.03-.29-.04-.44-.07-.75-.12-1.5-.18-2.24-.02-.32-.52-.32-.5,0h0Z"/>
      <path class="cls-1" d="M128.99,36.19c-.18.89-.25,1.8-.22,2.71,0,.22.27.32.43.18.04-.03.08-.07.11-.1.24-.22-.12-.57-.35-.35-.04.03-.08.07-.11.1l.43.18c-.03-.86.04-1.73.2-2.58.03-.13-.04-.27-.17-.31-.12-.03-.28.04-.31.17h0Z"/>
      <path class="cls-1" d="M129.09,39.85h0s.1.08.15.11h0c0,.06.02.13.03.19h0s-.04.07-.06.11c0,0,0,0,0,0l-.05.04h0s-.08.02-.13.03h0s-.04,0-.07,0h0s-.1-.07-.15-.11h0s-.02-.08-.03-.12h0s0-.04,0-.06h0s.04-.07.06-.1c0,0,0,0-.01.01l.05-.04h0s.04-.01.06-.02c0,0-.01,0-.02,0h.07s-.02,0-.03-.01h.07s-.02,0-.03,0l.06.03s-.02-.01-.04-.02l.05.04s-.02-.02-.03-.03l.04.05s-.02-.02-.02-.04l.03.06s0-.02,0-.03v.07s0-.03,0-.04v.07s0-.02,0-.03l-.03.06s.01-.02.02-.03l-.04.05s.02-.02.03-.03l-.05.04s.02-.01.03-.02l-.06.03s.03,0,.05-.01h-.07s.03,0,.04,0h-.07s.02,0,.04,0l-.06-.03s.02,0,.03.02l-.05-.04s.02.02.03.03l-.04-.05s.01.02.02.03l-.03-.06s.01.03.01.05v-.07s0,.04,0,.06v-.07s0,.04,0,.06l.03-.06s-.03.05-.04.07l.04-.05s-.06.06-.09.09l.05-.04s-.05.04-.08.06c-.07.05-.11.1-.12.18,0,.07,0,.16.07.21.02.01.03.03.05.05l-.04-.05s.03.04.04.07l-.03-.06s.02.06.02.09v-.07s0,.05,0,.08v-.07s0,.05-.01.07l.31-.17s-.03,0-.04-.01l.06.03s-.05-.02-.07-.04l.05.04s-.04-.04-.06-.06l.04.05s-.04-.06-.05-.09l.03.06s-.03-.08-.03-.12v.07s0-.08,0-.12v.07s0-.07.02-.1l-.03.06s.03-.05.05-.08l-.04.05s.03-.04.05-.05l-.05.04s.02-.02.04-.02c.11-.07.16-.23.09-.34s-.22-.16-.34-.09c-.45.26-.35,1.02.15,1.16.06.02.14,0,.19-.03.06-.04.09-.09.11-.15.08-.2,0-.46-.15-.59l-.05.39c.15-.1.3-.22.34-.41.05-.22-.05-.47-.28-.52s-.49.11-.5.36.24.48.48.41c.1-.03.18-.1.21-.2.04-.14-.05-.28-.18-.32-.13-.04-.26.04-.31.16-.06.14.02.31.17.35.13.03.28-.04.31-.17s-.04-.27-.17-.31h0Z"/>
      <path class="cls-1" d="M130.02,35.42c.34,1.02.52,2.08.51,3.15,0,.52-.04,1.04-.14,1.55-.05.23-.11.45-.2.66-.04.09-.26.55-.39.51-.31-.1-.44.38-.13.48.49.16.85-.49,1-.85.23-.54.3-1.14.34-1.72.09-1.32-.08-2.65-.5-3.91-.1-.3-.58-.17-.48.13h0Z"/>
    </g>
    <g>
      <g>
        <g>
          <path class="cls-1" d="M45.83,53.2c2.13-.61,4.68-.57,6.25,1.23,1.38,1.59,1.07,4.05-.89,4.97-1.09.51-2.3.81-3.43,1.2-.48.16-1.74.28-1.63,1.03.05.38.41.63.66.88.34.36.62.76.86,1.19.5.93.71,1.97.64,3.02-.02.32.48.32.5,0,.09-1.58-.42-3.14-1.45-4.35-.13-.15-.26-.28-.4-.42-.21-.22-.36-.32-.1-.52.19-.14.6-.2.83-.28.28-.09.55-.18.83-.28.92-.31,1.86-.57,2.75-.95,1.36-.59,2.23-1.77,2.22-3.28-.01-1.42-.84-2.66-2.01-3.43-1.71-1.12-3.85-1.05-5.74-.5-.31.09-.18.57.13.48h0Z"/>
          <path class="cls-1" d="M49.15,70.07s-.02-.08-.02-.11c0-.05,0,.06,0,0,0-.02,0-.03,0-.05,0-.04,0-.07,0-.11,0-.02,0-.04,0-.06s.02-.06,0,0c.02-.07.03-.14.05-.21,0-.01,0-.04.02-.05-.01.03-.02.04,0,.02,0,0,0-.02.01-.02.02-.04.04-.07.06-.1l-.39.05s.01.02.02.02c.03.03,0,0-.01-.02,0,.02.02.03.03.05,0,.01.01.02.02.03,0,0,.02.05,0,0-.02-.04,0,.02.01.03,0,.02.01.04.02.06,0,.01,0,.02,0,.03-.02-.07,0-.04,0-.02,0,.04,0,.09,0,.13s0-.05,0-.02c0,.01,0,.02,0,.03,0,.02,0,.04-.01.06s-.02.04-.02.06c.02-.06.02-.04,0-.02,0,0,0,.02-.01.03,0,.02-.02.04-.03.05,0,.01-.02.02-.02.03,0-.01.04-.05.01-.02-.01.02-.03.03-.04.04,0,0-.02.01-.02.02.01-.02.05-.03.01,0h.25s-.03-.02-.04-.02c-.03-.02.05.05.02.01,0,0,0-.01-.01-.02-.02-.02.04.05.02.03,0,0,0-.01-.01-.02-.01-.02,0-.04.01.03,0-.01,0-.02-.01-.03,0,0,0-.01,0-.02,0-.03,0,.07,0,.04,0-.01,0-.02,0-.04,0-.01,0-.08,0-.02s0,0,0-.01,0-.02.01-.04c0,0,0-.02,0-.02,0-.03-.03.06-.01.03,0-.01.01-.03.02-.04,0-.01.02-.02.02-.04.02-.02-.05.05-.02.03,0,0,0,0,.01-.01,0,0,.02-.02.03-.03.03-.03-.05.03-.03.02,0,0,.01,0,.02-.01,0,0,.02,0,.02-.01,0,0-.06.02-.04.02.01,0,.03,0,.04-.01.03,0-.07,0-.04,0,0,0,.01,0,.02,0,0,0,.01,0,.02,0-.07,0-.06-.01-.03,0,0,0,.02,0,.02,0,.03,0-.06-.03-.03-.01.01,0,.02.01.03.02.03.01-.03-.02-.03-.02,0,0,.01.01.02.01,0,0,.01.02.01.02,0,0-.04-.06-.02-.02,0,0,0,.02.02.03-.04-.05-.02-.06-.01-.03,0,0,0,.01,0,.02,0,.01,0,.02,0,.03,0,.03,0-.04,0-.04,0,0,0,.02,0,.03,0,.02,0,.03,0,.05,0,0,0,.01,0,.02,0,.03,0-.04,0-.04,0,0-.02.08-.02.09,0,.02-.02.03.01-.03,0,0,0,.02-.01.02,0,.01-.02.03-.02.04-.03.05.05-.05,0,0,0,0-.03.03-.03.03,0,0,.06-.04.03-.02,0,0-.02,0-.02.01-.04.03.06-.02.01,0,0,0-.01,0-.02,0-.04.01.07,0,.03,0-.02,0-.04,0-.06,0-.06,0-.14.03-.18.07-.04.04-.08.11-.07.18s.02.13.07.18c.05.05.11.06.18.07.15.02.31-.05.41-.16.11-.12.16-.26.18-.42.03-.31-.21-.64-.54-.6s-.55.34-.54.66c0,.18.08.34.23.44.04.03.09.05.14.06.11.01.18-.04.26-.11.06-.06.12-.13.16-.2.2-.34.16-.81-.11-1.1-.11-.12-.31-.08-.39.05-.19.32-.25.71-.15,1.07.03.13.18.22.31.17s.21-.17.17-.31h0Z"/>
          <path class="cls-1" d="M57.05,52.2c1.38-.05,2.81-.09,4.14.35,1.43.46,2.46,1.55,2.95,2.96.22.63.33,1.3.34,1.96,0,.4-.02.88-.33,1.18s-.79.34-1.17.42c-1.64.35-3.28.69-4.92,1.04-.12.03-.22.19-.17.31.39.96.73,1.94.99,2.94.13.48.24.97.34,1.45.05.26.41,1.46.24,1.63l.24-.06.07.06-.11.28.05-.03c.27-.18.02-.61-.25-.43l-.05.03c-.09.06-.15.17-.11.28.05.17.11.23.28.29.08.03.18,0,.24-.06.24-.24.15-.56.1-.87-.09-.64-.21-1.29-.36-1.92-.29-1.27-.7-2.51-1.19-3.72l-.17.31c1.01-.21,2.03-.43,3.04-.64.89-.19,1.89-.28,2.73-.62,1.43-.58,1.08-2.61.71-3.78-.46-1.46-1.43-2.68-2.85-3.29-1.5-.64-3.19-.61-4.78-.55-.32.01-.32.51,0,.5h0Z"/>
          <path class="cls-1" d="M58.8,68.27l.31,1.06.37-.28s.02.02,0,0c0,0-.02-.02-.03-.03,0,0-.02-.02-.02-.02-.02-.02-.02-.04.01.02-.01-.02-.03-.04-.04-.06-.03-.05.02.06,0,.01,0-.01,0-.02-.01-.03,0-.02,0-.04-.01-.06.02.08,0,.04,0,.02,0-.01,0-.03,0-.04,0-.02,0-.04,0-.07,0,.09,0,.01,0-.02,0,0,.01-.07.02-.07,0,0-.03.07,0,.02,0-.01.01-.02.02-.03.01-.02.03-.04.04-.06,0-.02-.04.05,0,.01,0,0,.02-.02.02-.03s.02-.02.02-.02c.03-.03,0,0-.02,0,.02-.01.04-.03.07-.04.01,0,.02,0,.03-.02-.06.03-.04.02-.02,0,.03,0,.06-.02.08-.02l-.32-.24s0,.04,0,.06c0-.08,0-.01,0,0,0,.03-.01.07-.02.1s-.02.07-.03.1c0,.02-.01.04-.02.05-.01.04.03-.06,0,0-.01.03-.03.06-.05.08,0,0-.01.02-.02.02.03-.03.03-.04.01-.02,0,0-.02.02-.03.03,0,0-.01.01-.02.02-.02.02-.01.01.02-.01-.02,0-.04.02-.05.03-.03.02-.05.01.01,0-.01,0-.03,0-.04.01-.04.01.07,0,0,0-.01,0-.02,0-.04,0-.04,0,.07.01,0,0-.02,0-.03,0-.05-.01-.02,0-.05-.03.02,0-.01,0-.03-.01-.04-.02s-.03-.02-.04-.02c-.03-.02.05.04.02.01-.01,0-.02-.02-.03-.03-.04-.04.02.04,0,.01,0,0,0-.02-.01-.03.02.05.02.06.01.03,0,0,0-.01,0-.02-.01-.04,0,.07,0,.03,0-.02-.02.08,0,.03-.02.05-.03.06-.01.04,0,0,0-.01.01-.02-.03.04-.04.05-.02.03,0,0,.01-.01.02-.01.1-.09.09-.27,0-.35-.11-.1-.25-.09-.35,0-.15.13-.17.34-.08.5.07.14.21.23.36.29.33.13.69-.08.83-.39.08-.18.11-.36.14-.55,0-.08-.04-.15-.1-.2-.07-.05-.14-.06-.22-.04-.3.06-.55.31-.62.61-.03.14-.04.3.01.44.06.16.16.29.3.39.08.06.2.04.28-.02s.12-.17.09-.26l-.31-1.06c-.04-.13-.18-.22-.31-.17s-.21.17-.17.31h0Z"/>
          <path class="cls-1" d="M69.21,52.13c1.13.41,2.32.84,3.25,1.63,1.04.88,1.4,2.15,1.37,3.48-.03,1.41-.7,2.48-1.99,3.08s-2.83.87-4.27.99c-.17.01-.33.21-.22.38,1.04,1.5,1.68,3.21,1.82,5.04.02.32.52.32.5,0-.14-1.91-.79-3.72-1.89-5.29l-.22.38c1.59-.13,3.27-.42,4.7-1.15,1.29-.65,1.96-1.8,2.05-3.23s-.25-2.79-1.25-3.78-2.42-1.52-3.74-2c-.3-.11-.43.37-.13.48h0Z"/>
          <path class="cls-1" d="M69.88,69.45s-.02,0-.03,0c-.04,0,.02,0,.02.01-.04-.02.04.03.02.01s.03.05.02.02c-.03-.04.01.05,0,0-.01-.04.01,0,0,.02,0,0,0-.03,0-.03,0-.05-.02.05,0,0,0,0,0-.02,0-.03,0-.03-.03.06,0,.02,0-.02.02-.03-.02.02,0,0,.01-.01.02-.02,0,0-.05.04-.02.02.04-.02-.06.01,0,0-.03,0-.03,0-.01,0,0,0,.07.01-.01,0,.02,0,.04.02,0,0,.01,0,.02.01.03.02.04.02,0,0,0,0,0,0,.02.02.03.03-.03-.02-.01-.02,0,0,0,.02.02.03.03.05-.02-.05,0,.01,0,.03v-.03s0,.01,0,.02c-.02.05.01,0,0-.01,0,0,0,.03-.01.04-.01.06.02-.02,0,0,0,0-.01.02-.02.03-.01.02.03-.03,0,0-.01.01-.07.06-.02.03-.02.02-.05.03-.08.05,0,0-.05.02-.02,0s-.01,0-.02,0c-.02,0-.03.01-.05.01,0,0-.06.01-.03,0,.03,0,0,0-.02,0-.01,0-.03,0-.04,0-.02,0-.1-.01-.04,0-.03,0-.05-.01-.08-.02-.01,0-.03,0-.04-.01s-.07-.03-.01,0c-.05-.02-.09-.05-.14-.08.05.03-.01-.01-.03-.02-.02-.02-.05-.05-.07-.07,0,0,.03.04,0,0,0-.01-.02-.02-.02-.03-.01-.02-.03-.05-.04-.07-.02-.04,0,0,0,0,0-.02-.01-.03-.02-.05,0-.03-.01-.06-.02-.09.01.06,0-.01,0-.03,0-.02,0-.03,0-.05,0-.03-.01.05,0,.01,0-.02.01-.05.02-.07,0-.02,0-.05,0,0,0-.01.01-.03.02-.04.01-.02.02-.04.04-.06,0-.01.04-.04,0,0,0,0,.02-.02.02-.03.02-.02.03-.03.05-.05,0,0,.02-.02.03-.02-.03.03-.02.01,0,0,.02-.01.04-.03.06-.04.02,0,.08-.03.02-.01.02,0,.04-.02.07-.02.01,0,.02,0,.03,0,0,0,.02,0,.03,0,.02,0,.01,0-.02,0,.01-.01.05,0,.07,0,.01,0,.02,0,.04,0,.05,0-.02,0-.01,0,.01,0,.07.02.08.02,0,0,.05.01.01,0-.04-.01.01,0,.02.01,0,0,.02.01.03.02h.01s.02.02,0,0c-.01,0-.02-.02,0,0,0,0,.02.01.02.02s.01.02.02.02c.02.02-.02-.04,0-.01.01.02.03.04.04.07,0,0,0,.02.01.03.02.03-.01-.05,0-.02,0,.02.02.05.02.07,0,.01,0,.06.01.06,0,0,0-.06,0-.02,0,.02,0,.03,0,.05,0,.02,0,.04,0,.06,0,.04.01-.05,0,.01,0,.02,0,.04-.02.06,0,.01,0,.02,0,.03-.02.05.03-.05,0,0,0,.02-.02.04-.03.05,0,0-.02.03-.02.03,0-.01.04-.04.01-.01-.02.02-.04.03-.05.05-.02.02.04-.02.01-.01-.01,0-.02.01-.03.02,0,0-.02.01-.03.02.04-.02-.02,0-.03,0-.05.01-.02,0,0,0-.05,0,.01,0-.02,0s.01,0,.02,0h-.01s-.02-.02.01,0c0,0-.02-.02-.02-.02-.03-.03.02.03,0,0,0,0,0-.02-.01-.03-.01-.01.01.05,0,0,0-.01,0-.02,0-.03-.01-.05,0,0,0,.01,0,0,0-.08,0-.08.01,0-.01.06,0,.02,0-.02,0-.03.01-.05,0-.04,0,.02,0,.01,0,0,.02-.04.02-.04.01-.02,0-.02-.01.01,0-.01.03-.03.04-.04.01,0,.02-.02.03-.03.01-.01.01,0,0,0,0,0,.02-.01.03-.02.03-.02.05-.03.08-.05.04-.02,0,0,0,0,.02,0,.04-.01.06-.02.03-.01.07-.02.1-.03.07-.02.14-.03.21-.04l-.31-.17s.01.1,0,.04c0,.03,0,.06,0,.08,0,.06,0,.11,0,.17,0-.06,0,.02,0,.04,0,.03-.01.05-.02.08s-.02.05-.02.08c0,.01-.04.09-.01.04-.02.05-.05.1-.08.15-.01.02-.03.05-.05.07-.02.02-.02.02,0,0,0,.01-.02.02-.03.03-.04.04-.07.08-.12.12-.01,0-.02.02-.03.03.02-.02.02-.02,0,0-.02.02-.05.03-.07.05h.25s.04.04,0,0c-.01-.01-.02-.02-.04-.03s-.02-.02-.03-.04c-.03-.03.02.03,0,0s-.03-.05-.05-.07c0-.01-.01-.03-.02-.04-.02-.05.02.05,0,0,0-.03-.02-.06-.03-.08,0-.01,0-.03,0-.04-.01-.06,0,0,0,0,0,0,0-.08,0-.1,0-.03,0-.06,0-.09,0-.05,0,0,0,0,0,0,0-.05,0-.05,0-.03.01-.06.02-.09,0-.02.01-.03.02-.05,0-.03-.02.05,0,0,.01-.03.03-.06.05-.09,0-.01.02-.03.03-.04.02-.04-.03.03,0,0s.04-.04.06-.06c0,0,.04-.03.04-.03,0,0-.05.03,0,0,.03-.02.06-.03.09-.05l-.13.03s-.06,0-.04,0c.02,0,0,0-.03-.02,0,0,.04.02,0,0-.02-.02-.02-.02-.01,0l-.03-.03s-.02,0,0-.02c0,0,0,.03,0,.03,0,0,0-.07,0-.03,0,.07.02-.05,0,.01,0,0,0,.02,0,.03,0,.03.03-.05,0-.02,0,0-.02.03-.02.03,0,0,.05-.05.01-.02-.03.03.05-.03.02-.02s.06-.02.03-.01c-.04.01.07,0,.02,0,.02,0,.06.01.02,0-.12-.04-.28.05-.31.17-.03.14.04.26.17.31.25.09.48-.11.53-.34.06-.25-.08-.56-.37-.55-.13,0-.27.11-.36.2-.08.08-.15.17-.19.27-.1.22-.13.45-.1.7.04.26.19.49.4.64.07.05.18.04.25,0,.51-.32.77-.93.65-1.52-.03-.14-.18-.2-.31-.17-.36.06-.76.19-.9.57-.12.35.07.8.48.8.36,0,.65-.3.71-.64s-.05-.67-.33-.87-.66-.17-.94,0c-.31.19-.49.53-.44.9s.35.66.69.78c.36.12.82,0,1.01-.35.11-.2.11-.45-.03-.64-.14-.2-.41-.32-.65-.2-.17.08-.26.27-.25.46s.13.4.33.43c.13.02.27-.03.31-.17.03-.12-.04-.29-.17-.31h0Z"/>
        </g>
        <path class="cls-1" d="M63.09,45.46c-2.68-.22-5.36-.48-8.05-.49-1.91,0-3.85.14-5.66.76-4.66,1.59-7.35,5.73-9.45,9.92-1.17,2.33-2.39,4.67-2.86,7.25-.36,1.97-.27,3.98.14,5.94.9,4.33,3.54,8.24,7.78,9.84,4.47,1.68,9.63.98,14.25.49,2.76-.29,5.53-.55,8.26-1.01,2.13-.36,4.23-.9,6.16-1.88,2.9-1.47,5.57-3.81,7.43-6.47,2.72-3.9,3.48-8.87,1.82-13.36-1.07-2.89-3.02-5.58-5.44-7.5-2.88-2.28-6.6-2.77-10.15-3.13-1.41-.14-2.82-.26-4.23-.37-.32-.03-.32.47,0,.5,2.52.21,5.07.38,7.57.8,1.76.3,3.5.75,5.07,1.63,2.2,1.24,4.01,3.27,5.33,5.41,2.47,4.01,2.99,8.96,1.02,13.29-1.35,2.96-3.63,5.34-6.23,7.24-1.64,1.2-3.44,2.1-5.4,2.67-2.25.65-4.6.92-6.92,1.19-2.72.31-5.44.64-8.17.84-2.29.17-4.61.26-6.89-.03-1.99-.25-3.94-.85-5.61-1.98-1.98-1.34-3.43-3.33-4.32-5.53-.65-1.61-1.04-3.35-1.15-5.09-.18-2.65.47-5.17,1.55-7.57,1.99-4.41,4.28-9.25,8.65-11.75,3.45-1.97,7.57-1.72,11.39-1.46,1.38.09,2.75.21,4.12.32.32.03.32-.47,0-.5Z"/>
      </g>
      <g>
        <path class="cls-1" d="M89.03,59.36c8.07-2.7,16.54-4.65,25.01-5.55,10.83-1.15,21.81-.3,32.32,2.56,5.12,1.39,10.11,3.24,14.91,5.5.58.27,1.09-.59.5-.86-9.22-4.33-19.1-7.17-29.24-8.23s-19.56-.25-29.16,1.74c-4.94,1.03-9.83,2.28-14.62,3.88-.61.2-.35,1.17.27.96h0Z"/>
        <path class="cls-1" d="M158.2,56.8c.54.84,1.29,1.48,1.97,2.21s1.17,1.55,1.09,2.53l.37-.48c-1.93.54-3.86,1.08-5.79,1.62-.62.17-.36,1.14.27.96,1.93-.54,3.86-1.08,5.79-1.62.23-.06.35-.26.37-.48.1-1.09-.42-2.09-1.09-2.91s-1.53-1.45-2.1-2.34c-.35-.54-1.21-.04-.86.5h0Z"/>
      </g>
      <g>
        <path class="cls-1" d="M194.96,44.46c-3.13-.26-6.27-.57-9.42-.57-2.16,0-4.36.18-6.42.87-2.3.78-4.36,2.19-6.04,3.93-2.1,2.17-3.55,4.85-4.89,7.53s-2.77,5.41-3.31,8.42c-.41,2.27-.3,4.6.17,6.85,1.05,5.03,4.15,9.55,9.09,11.36,2.3.84,4.78,1.09,7.22,1.11,3.11.03,6.21-.29,9.3-.62s6.3-.63,9.42-1.16c2.43-.41,4.83-1.03,7.04-2.14,3.37-1.7,6.49-4.43,8.64-7.53,3.12-4.49,3.98-10.21,2.08-15.37-1.23-3.34-3.47-6.42-6.26-8.64-3.33-2.65-7.64-3.22-11.75-3.63-1.63-.16-3.26-.29-4.88-.43-.32-.03-.32.47,0,.5,2.92.24,5.86.44,8.75.92,2.03.34,4.05.87,5.86,1.88,2.57,1.44,4.69,3.82,6.23,6.32,2.83,4.61,3.43,10.3,1.2,15.29-1.55,3.48-4.24,6.27-7.28,8.49-1.89,1.38-3.96,2.42-6.21,3.07-2.61.75-5.33,1.08-8.02,1.39-3.16.36-6.33.74-9.5.98-2.63.2-5.29.3-7.91-.03-2.27-.29-4.51-.95-6.43-2.22-2.3-1.52-4.01-3.81-5.06-6.34-.79-1.9-1.25-3.95-1.39-5.99-.21-3.05.52-5.96,1.76-8.73s2.48-5.29,4.03-7.72,3.51-4.52,6-5.96c4-2.29,8.78-2.01,13.21-1.7,1.59.11,3.19.24,4.78.38.32.03.32-.47,0-.5Z"/>
        <g>
          <path class="cls-1" d="M197.31,54.78c.13,1.45.33,2.89.62,4.32.13.67.24,1.37.46,2.02.14.39.37.75.81.82.12.02.22-.01.28-.11.19-.31.39-.61.58-.92.12-.19.37-.77.59-.79.18-.02.2.17.27.32l.25.51c.15.3.3.61.45.91.2.38.49.74.96.73s.9-.37,1.23-.69c1.73-1.66,3.04-3.72,3.87-5.95.11-.3-.37-.43-.48-.13-.82,2.19-2.17,4.43-3.98,5.95-.34.28-.78.48-1.07.02-.17-.26-.29-.56-.42-.84-.16-.31-.31-.63-.47-.94-.08-.15-.15-.33-.29-.44-.34-.25-.67.03-.86.31-.38.55-.71,1.13-1.07,1.69l.28-.11c-.51-.07-.57-.87-.66-1.27-.13-.59-.26-1.18-.37-1.78-.22-1.2-.38-2.41-.49-3.62-.03-.32-.53-.32-.5,0h0Z"/>
          <path class="cls-1" d="M206.76,60.68c.48.11.93.29,1.35.54.18.11.41.23.53.41.14.2.1.46.03.68-.23.78-1.02,1.24-1.75,1.47-.28.09-.21.46.07.49,1.35.15,2.67.55,3.88,1.17.29.15.54-.28.25-.43-1.29-.67-2.69-1.09-4.14-1.24l.07.49c.93-.29,1.92-.93,2.13-1.95.06-.27.06-.55-.05-.8s-.32-.41-.53-.56c-.52-.35-1.11-.6-1.72-.75-.31-.07-.45.41-.13.48h0Z"/>
        </g>
        <g>
          <path class="cls-1" d="M180.92,66.5c-.17,1.4-.11,2.81.17,4.2.26,1.27.69,2.66,1.45,3.73.51.71,1.7,1.77,2.45.77.35-.46.48-1.11.67-1.64.27-.75.53-1.51.8-2.26h-.48c.19.79.43,1.67,1.06,2.24.24.22.63.5.98.4s.49-.54.61-.85c.84-2.06.8-4.41.93-6.6.02-.32-.48-.32-.5,0-.1,1.73-.11,3.51-.51,5.21-.1.4-.21.8-.37,1.18-.08.19-.15.57-.44.54-.15-.02-.34-.22-.44-.32-.5-.51-.68-1.26-.84-1.93-.06-.25-.4-.22-.48,0-.4,1.13-.74,2.31-1.21,3.42-.62,1.44-1.95-.56-2.28-1.24-1.01-2.11-1.34-4.52-1.07-6.84.04-.32-.46-.32-.5,0h0Z"/>
          <path class="cls-1" d="M190.54,71.81c-.11,1.42-.11,2.84,0,4.25.02.26.43.36.49.07.15-.73.36-1.44.62-2.13.13-.34.27-.68.42-1.01.05-.12.33-.8.44-.77.08.02.12.28.13.35.03.2.04.4.05.6.02.37.03.74.03,1.11-.02.78-.1,1.56-.26,2.32-.06.31.42.45.48.13.19-.93.29-1.88.28-2.83,0-.46-.03-.93-.09-1.39-.04-.3-.16-.66-.46-.78-.36-.14-.6.16-.75.44-.2.39-.39.78-.55,1.19-.35.85-.63,1.73-.82,2.63l.49.07c-.11-1.42-.11-2.84,0-4.25.03-.32-.47-.32-.5,0h0Z"/>
        </g>
        <g>
          <path class="cls-1" d="M175.4,53.21c.18,1.97.43,4.01,1.14,5.87.25.65.59,1.31,1.15,1.75.46.36,1.2.65,1.65.13.53-.61.78-1.54,1.02-2.3.07-.23.14-.46.21-.69.06-.2.11-.51.22-.68.08-.13-.03-.15.11-.09.03.01.14.24.15.25.12.21.23.43.35.64.37.71.76,1.46,1.37,2.01s1.02.09,1.31-.51c.46-.96.62-2.08.78-3.12.19-1.16.31-2.34.37-3.52.02-.32-.48-.32-.5,0-.09,1.81-.3,3.66-.75,5.42-.1.4-.23.8-.44,1.16-.13.23-.26.3-.47.16-.18-.12-.35-.38-.47-.55-.43-.59-.72-1.26-1.08-1.89-.18-.33-.6-.99-1.02-.51-.19.22-.25.59-.34.86-.12.38-.23.76-.36,1.15-.13.41-.27.81-.46,1.2-.2.42-.4.92-.95.7-.69-.27-1.09-1-1.35-1.65-.72-1.83-.97-3.86-1.14-5.8-.03-.32-.53-.32-.5,0h0Z"/>
          <path class="cls-1" d="M186.36,58.54c.27-.55.56-1.1.89-1.62.08-.14.17-.27.26-.41.03-.05.18-.33.25-.32.14.01.17.57.18.65.16,1.29.06,2.59-.27,3.85-.08.31.4.44.48.13.21-.78.33-1.59.35-2.4.01-.39,0-.79-.03-1.18-.03-.35-.04-.75-.16-1.08-.09-.25-.28-.49-.57-.48-.32,0-.5.3-.65.53-.44.66-.83,1.35-1.17,2.06-.14.29.29.54.43.25h0Z"/>
          <path class="cls-1" d="M186.04,61.68c1.22-.37,2.45-.68,3.69-.95.31-.07.18-.55-.13-.48-1.24.27-2.47.59-3.69.95-.31.09-.18.58.13.48h0Z"/>
        </g>
      </g>
    </g>
  </g>
</svg>