<?xml version="1.0" encoding="UTF-8"?>
<svg id="Layer_2" data-name="Layer 2" xmlns="http://www.w3.org/2000/svg" viewBox="0 0 238.48 109.94">
  <defs>
    <style>
      .cls-1 {
        fill: #231f20;
      }

      .cls-2 {
        fill: #ed1c24;
      }

      .cls-3 {
        fill: #00aeef;
      }
    </style>
  </defs>
  <g id="Layer_1-2" data-name="Layer 1">
    <path class="cls-2" d="M61.26,29.33c-9.6-1.75-19.65-.78-28.79,2.64-5.62,2.1-10.83,5.08-15.47,8.88-6.63,5.41-11.72,12.61-14.77,20.6-1.87,4.9-2.66,10.2-1.99,15.42.61,4.75,2.47,9.03,4.73,13.21,2.04,3.79,4.37,7.4,7.44,10.45,3.89,3.86,8.74,6.57,14.03,7.98,4.86,1.29,9.91,1.52,14.91,1.42,5.1-.1,10.17-.42,15.17-1.45,4.52-.93,9.02-2.32,13.28-4.09,4.93-2.05,9.51-4.89,13.06-8.93,6.58-7.5,9.24-17.61,10.22-27.33.5-5.01.9-10.23-.58-15.11-1.37-4.53-3.87-8.74-7.15-12.15-5.56-5.8-13.17-9.16-20.91-10.9-1.06-.24-2.12-.44-3.19-.64-.63-.12-.9.85-.27.96,6.47,1.19,12.81,3.16,18.32,6.84,7.76,5.17,13.17,13.75,13.22,23.2.03,5.07-.54,10.25-1.57,15.21s-2.52,9.42-4.9,13.66-5.78,8.06-9.94,10.79c-4.57,2.99-9.78,4.8-14.99,6.3-4.07,1.17-8.22,1.95-12.44,2.31-4.87.41-9.87.55-14.75.15-5.15-.42-10.24-1.68-14.74-4.27s-8.07-6.3-10.86-10.59c-.95-1.47-1.8-2.99-2.62-4.53-.99-1.83-1.94-3.68-2.69-5.63-1.96-5.07-2.52-10.57-1.55-15.92.75-4.1,2.33-7.95,4.29-11.61,2.24-4.19,4.96-8.02,8.32-11.38,3.88-3.87,8.39-7.07,13.28-9.53,8.86-4.45,18.88-6.44,28.77-5.62,1.63.13,3.24.34,4.85.64.63.11.9-.85.27-.96Z"/>
    <path class="cls-3" d="M181.62,26.02c-7.19,1.23-14.21,3.71-20.36,7.66-8.79,5.65-15.49,14.35-18.36,24.43-1.33,4.67-1.81,9.6-1.15,14.41s2.69,9.61,5.68,13.69c2.38,3.25,5.2,6.14,8.13,8.9,3.63,3.43,7.68,6.4,12.21,8.53,5.52,2.61,11.54,3.94,17.62,4.23,4.94.23,9.87-.23,14.76-.95,5.27-.78,10.65-1.5,15.62-3.52s9.39-5.06,13-8.95c4.93-5.3,8.42-12.16,9.41-19.36.71-5.2.07-10.45-1.5-15.44-1.05-3.31-2.44-6.53-3.91-9.67-1.62-3.49-3.58-6.81-6-9.8-3.19-3.94-7.15-7.22-11.59-9.66-9.05-4.98-19.64-6.33-29.8-5.08-1.26.16-2.51.35-3.75.56-.63.11-.36,1.07.27.96,8.2-1.4,16.63-1.4,24.65,1.01,5.45,1.64,10.61,4.36,14.91,8.11,3.24,2.82,5.95,6.19,8.12,9.89,1.62,2.76,2.91,5.69,4.16,8.63,1.69,3.98,3.07,8.11,3.55,12.42.88,7.79-1.24,15.47-5.51,21.97-2.47,3.76-5.63,7.05-9.32,9.62-4.65,3.25-9.88,5.13-15.43,6.16-9.98,1.86-20.38,3.22-30.4.87-5.66-1.33-10.98-3.81-15.64-7.28-2.99-2.22-5.7-4.83-8.28-7.51-3.42-3.55-6.58-7.57-8.36-12.22-1.67-4.35-2.17-9.07-1.73-13.69.94-10.02,6.12-19.52,13.57-26.2,6.38-5.72,14.4-9.4,22.72-11.23.99-.22,1.99-.41,2.99-.58.63-.11.36-1.07-.27-.96Z"/>
    <g>
      <path class="cls-1" d="M116.39,19.53c1.71-.24,3.34-1,4.97-1.58,1.53-.54,3.07-1.08,4.56-1.73.59-.25.08-1.12-.5-.86-1.47.63-2.99,1.15-4.49,1.69s-3.14,1.29-4.8,1.52c-.63.09-.36,1.05.27.96h0Z"/>
      <path class="cls-1" d="M120.78,17.56c-.41,3.37-.76,6.74-1.05,10.12h1c0-.12.02-.24.03-.37.05-.64-.95-.64-1,0,0,.12-.02.24-.03.37-.05.64.94.64,1,0,.29-3.38.64-6.75,1.05-10.12.08-.64-.92-.63-1,0h0Z"/>
    </g>
    <path class="cls-2" d="M27,6.34c1.8,7.85,4.4,15.49,7.74,22.81.23.5.89.19.93-.25.33-3.54,1.35-6.96,2.57-10.29s2.68-6.8,4.05-10.19c.24-.6-.73-.86-.96-.27-2.7,6.69-5.97,13.48-6.65,20.75l.93-.25c-3.31-7.24-5.86-14.81-7.64-22.58-.14-.63-1.11-.36-.96.27h0Z"/>
    <path class="cls-3" d="M179.54.63c1.15,7.55,3.5,14.89,6.92,21.71.16.32.7.33.86,0,1.5-3.11,3-6.23,4.5-9.34.36-.75.72-1.5,1.08-2.25.11-.23.24-.63.5-.74.37-.16.63.33.79.61.78,1.44,1.33,3.06,1.98,4.57.32.75.64,1.49.96,2.24.23.54.48,1.1.93,1.5.89.8,1.99.37,2.65-.48.42-.54.72-1.16,1.05-1.75.42-.74.85-1.48,1.29-2.22.8-1.34,1.62-2.66,2.46-3.96.97-1.5,1.98-2.98,3.01-4.44.54-.76,1.09-1.52,1.65-2.26.48-.64,1.01-1.66,1.73-2.02.58-.29.07-1.15-.5-.86s-.92.83-1.31,1.35c-.49.65-.98,1.3-1.47,1.96-.96,1.32-1.9,2.66-2.81,4.01-1.82,2.71-3.54,5.49-5.14,8.34-.3.54-.62,1.35-1.2,1.66-.68.37-1.08-.48-1.31-.97-.7-1.52-1.33-3.09-1.99-4.63-.33-.77-.64-1.56-1-2.32-.24-.52-.6-1.08-1.16-1.3-1.37-.54-1.96,1.18-2.41,2.09-1.72,3.56-3.43,7.13-5.15,10.69h.86c-3.39-6.75-5.68-14.01-6.82-21.47-.1-.63-1.06-.36-.96.27h0Z"/>
    <g>
      <path class="cls-1" d="M90.12,43.35c5.97-5.04,13.22-8.68,20.92-10.31,3.81-.8,7.72-1.22,11.62-1.07,2.78.1,5.54.51,8.21,1.28,1.2.35,2.37.81,3.53,1.27,4.83,1.88,9.67,3.64,13.93,6.65,1.05.75,2.05-.99,1.01-1.73-4.02-2.85-8.53-4.54-13.08-6.33-1.38-.54-2.75-1.1-4.16-1.57-2.41-.8-4.96-1.22-7.48-1.44-8.95-.79-18.32,1.27-26.28,5.37-3.45,1.78-6.68,3.97-9.65,6.47-.98.83.44,2.24,1.41,1.41h0Z"/>
      <path class="cls-1" d="M144.65,31.86c.91,2.47,1.75,5.03,2.95,7.38.06.12.13.39.22.46.15.12-.09,0,.07-.05-.14.04-.28.11-.42.15-.87.28-1.74.54-2.62.77-1.83.48-3.69.84-5.56,1.1-1.11.15-.85,2.05.27,1.96.21-.02.42-.03.63-.05.54-.04,1-.43,1-1,0-.51-.46-1.04-1-1-.21.02-.42.03-.63.05l.27,1.96c2.08-.29,4.15-.71,6.17-1.27.92-.25,1.9-.47,2.76-.88.92-.44,1.28-1.4.97-2.35-.15-.48-.44-.93-.65-1.39-.22-.48-.39-.88-.58-1.36-.67-1.66-1.3-3.34-1.92-5.02-.19-.51-.68-.85-1.23-.7-.49.13-.89.72-.7,1.23h0Z"/>
    </g>
    <g>
      <path class="cls-1" d="M113.36,34.92c-.52.44-.82,1.04-1.03,1.67-.24.71-.46,1.46-.64,2.19-.3,1.21-.17,2.86,1.24,3.28.31.09.44-.39.13-.48-1.34-.41-1.05-2.14-.76-3.14.32-1.08.51-2.4,1.41-3.17.25-.21-.11-.56-.35-.35h0Z"/>
      <path class="cls-1" d="M114.33,36.28c-.11,1.43-.19,2.85-.22,4.28,0,.32.49.32.5,0,.03-1.43.11-2.86.22-4.28.03-.32-.47-.32-.5,0h0Z"/>
      <path class="cls-1" d="M116.46,40.32c-.02-.68.08-1.34.28-1.99.1-.31-.39-.44-.48-.13-.22.68-.32,1.41-.3,2.12,0,.32.51.32.5,0h0Z"/>
      <path class="cls-1" d="M116.64,36.45h-.04c-.32,0-.32.5,0,.5h.04c.32,0,.32-.5,0-.5h-.04c-.32,0-.32.5,0,.5h.04c.32,0,.32-.5,0-.5h0Z"/>
      <path class="cls-1" d="M117.35,37.48c-.03,1.01.1,2.03.38,3,.07.26.51.22.49-.07-.04-.55.04-1.05.18-1.58.08-.29.13-.74.38-.94.12-.09.34-.16.48-.09.13.07.15.28.17.41.05.36.03.73,0,1.09-.03.32-.06.6-.11.9-.02.13.03.27.17.31.12.03.29-.04.31-.17.12-.75.24-1.58.09-2.34-.05-.23-.15-.46-.34-.6-.23-.16-.54-.15-.79-.06-.46.17-.64.58-.76,1.02-.18.67-.33,1.34-.28,2.05l.49-.07c-.27-.93-.39-1.9-.36-2.87,0-.32-.49-.32-.5,0h0Z"/>
      <path class="cls-1" d="M121.02,39.31c.52-.12.97-.42,1.27-.86s.5-1.2-.08-1.54c-.61-.36-1.33.34-1.58.85-.3.61-.26,1.33,0,1.95.28.64.89,1.14,1.63.97.31-.07.18-.55-.13-.48-.43.1-.79-.21-.98-.57-.22-.4-.3-.91-.18-1.36.06-.23.18-.44.34-.61.13-.14.35-.36.56-.34.17.01.23.2.21.35-.02.19-.12.37-.22.52-.02.03-.05.07-.07.1-.03.04.03-.03,0,0-.1.12-.21.22-.33.31-.18.11-.37.19-.57.23-.31.07-.18.55.13.48h0Z"/>
      <path class="cls-1" d="M125,37.53c-.12.89-.24,1.78-.36,2.68l.49.07c0-.36-.03-.73-.07-1.09-.06-.49-.12-1.09-.42-1.51-.17-.24-.48-.41-.78-.37-.28.03-.5.23-.67.44-.43.53-.68,1.23-.38,1.89.36.8,1.34,1.12,2.14.87.31-.09.18-.58-.13-.48-.54.16-1.19,0-1.5-.5-.15-.25-.18-.54-.1-.82.04-.12.09-.24.15-.35.02-.04.05-.08.08-.13.01-.02.03-.04.05-.07,0,0,.06-.09.03-.04.11-.14.23-.28.4-.33,0,0,.02,0,.02,0,.04,0-.06-.02.01,0,.07.02.14.04.19.08.02.02.04.03.06.05.04.04-.03-.04,0,.01.02.02.03.05.05.07.09.15.14.34.19.54.05.23.09.46.11.67.04.35.06.7.07,1.04,0,.12.09.23.22.25.11.01.26-.05.27-.18.12-.89.24-1.78.36-2.68.02-.13-.03-.27-.17-.31-.12-.03-.29.04-.31.17h0Z"/>
      <path class="cls-1" d="M126.13,37.62c.05.7.11,1.41.17,2.11.02.25.02.51.08.76.05.21.34.3.47.09.07-.12.04-.31.04-.43.01-.57.07-1.15.27-1.68.06-.15.14-.3.23-.43.05-.06.1-.13.17-.17.02-.01.03-.02.05-.03-.02.01,0,0,0,0,0,0,.04,0,0,0-.04,0,0,0,0,0,0,0,.02,0,.03.01.01,0,.03.02.05.04.04.04.08.09.11.15.06.11.07.12.1.23.1.31.58.18.48-.13-.08-.26-.22-.54-.45-.7-.37-.25-.74.02-.97.32-.43.59-.54,1.39-.58,2.1,0,.14-.01.27-.01.41,0,.04,0,.09,0,.13,0,.07,0,.03,0,0l.06-.11h0c.08-.02.16-.04.24-.06h0s.07.04.11.06c.02.01.08.16.06.07-.02-.06,0,.07,0,.02,0-.02,0-.04,0-.06-.02-.15-.03-.29-.04-.44-.07-.75-.12-1.5-.18-2.24-.02-.32-.52-.32-.5,0h0Z"/>
      <path class="cls-1" d="M128.99,36.19c-.18.89-.25,1.8-.22,2.71,0,.22.27.32.43.18.04-.03.08-.07.11-.1.24-.22-.12-.57-.35-.35-.04.03-.08.07-.11.1l.43.18c-.03-.86.04-1.73.2-2.58.03-.13-.04-.27-.17-.31-.12-.03-.28.04-.31.17h0Z"/>
      <path class="cls-1" d="M129.09,39.85h0s.1.08.15.11h0c0,.06.02.13.03.19h0s-.04.07-.06.11c0,0,0,0,0,0l-.05.04h0s-.08.02-.13.03h0s-.04,0-.07,0h0s-.1-.07-.15-.11h0s-.02-.08-.03-.12h0s0-.04,0-.06h0s.04-.07.06-.1c0,0,0,0-.01.01l.05-.04h0s.04-.01.06-.02c0,0-.01,0-.02,0h.07s-.02,0-.03-.01h.07s-.02,0-.03,0l.06.03s-.02-.01-.04-.02l.05.04s-.02-.02-.03-.03l.04.05s-.02-.02-.02-.04l.03.06s0-.02,0-.03v.07s0-.03,0-.04v.07s0-.02,0-.03l-.03.06s.01-.02.02-.03l-.04.05s.02-.02.03-.03l-.05.04s.02-.01.03-.02l-.06.03s.03,0,.05-.01h-.07s.03,0,.04,0h-.07s.02,0,.04,0l-.06-.03s.02,0,.03.02l-.05-.04s.02.02.03.03l-.04-.05s.01.02.02.03l-.03-.06s.01.03.01.05v-.07s0,.04,0,.06v-.07s0,.04,0,.06l.03-.06s-.03.05-.04.07l.04-.05s-.06.06-.09.09l.05-.04s-.05.04-.08.06c-.07.05-.11.1-.12.18,0,.07,0,.16.07.21.02.01.03.03.05.05l-.04-.05s.03.04.04.07l-.03-.06s.02.06.02.09v-.07s0,.05,0,.08v-.07s0,.05-.01.07l.31-.17s-.03,0-.04-.01l.06.03s-.05-.02-.07-.04l.05.04s-.04-.04-.06-.06l.04.05s-.04-.06-.05-.09l.03.06s-.03-.08-.03-.12v.07s0-.08,0-.12v.07s0-.07.02-.1l-.03.06s.03-.05.05-.08l-.04.05s.03-.04.05-.05l-.05.04s.02-.02.04-.02c.11-.07.16-.23.09-.34s-.22-.16-.34-.09c-.45.26-.35,1.02.15,1.16.06.02.14,0,.19-.03.06-.04.09-.09.11-.15.08-.2,0-.46-.15-.59l-.05.39c.15-.1.3-.22.34-.41.05-.22-.05-.47-.28-.52s-.49.11-.5.36.24.48.48.41c.1-.03.18-.1.21-.2.04-.14-.05-.28-.18-.32-.13-.04-.26.04-.31.16-.06.14.02.31.17.35.13.03.28-.04.31-.17s-.04-.27-.17-.31h0Z"/>
      <path class="cls-1" d="M130.02,35.42c.34,1.02.52,2.08.51,3.15,0,.52-.04,1.04-.14,1.55-.05.23-.11.45-.2.66-.04.09-.26.55-.39.51-.31-.1-.44.38-.13.48.49.16.85-.49,1-.85.23-.54.3-1.14.34-1.72.09-1.32-.08-2.65-.5-3.91-.1-.3-.58-.17-.48.13h0Z"/>
    </g>
    <g>
      <g>
        <g>
          <path class="cls-1" d="M33.61,59.87c-.8-.36-1.75-.33-2.48.18-.61.43-1.17,1.25-.99,2.03.23,1,1.56.8,2.32.77.71-.02,1.98.23,1.62,1.23-.18.49-.65.76-1.13.91-.57.17-1.17.24-1.76.3-.32.03-.32.53,0,.5.88-.08,1.92-.16,2.67-.67.61-.42,1.01-1.24.62-1.94s-1.29-.85-2.02-.82c-.48.02-1.03.11-1.5-.05-.49-.18-.36-.75-.18-1.12.48-.93,1.62-1.32,2.58-.89.29.13.55-.3.25-.43h0Z"/>
          <path class="cls-1" d="M35.69,61.47c-.58.45-.76,1.21-.73,1.92.01.33.07.67.17.99s.25.69.6.82c.38.15.8-.06,1.1-.29.32-.24.58-.55.74-.92.14-.32.2-.66.22-1,.02-.32.04-.64-.01-.95-.07-.4-.28-.78-.68-.91-.45-.15-.98.05-1.35.32-.26.19,0,.62.25.43.24-.17.56-.34.86-.29.27.04.38.3.42.54.08.45.03,1-.09,1.44-.09.31-.25.58-.49.8-.17.17-.47.43-.74.39-.22-.03-.3-.36-.36-.54-.07-.24-.12-.49-.14-.73-.04-.61.07-1.25.58-1.65.11-.08.09-.27,0-.35-.1-.11-.25-.08-.35,0Z"/>
          <path class="cls-1" d="M38.49,61.66c-.02,1.17.14,2.35.46,3.48.09.31.54.18.48-.13-.09-.44-.13-.88-.14-1.33,0-.39-.02-.81.09-1.19.04-.14.1-.28.22-.37.09-.07.12-.08.18,0s.08.2.12.29c.15.41.25.84.29,1.28.03.26.43.36.49.07.09-.46.25-.9.48-1.31.15-.25.32-.49.53-.7.1-.11.21-.21.33-.31.04-.03.22-.12.08-.12-.03,0,0-.01.01.03,0-.02.02.07.02.08.02.07.02.13.03.2.01.24,0,.49-.03.73-.06.61-.17,1.21-.29,1.81-.06.31.42.45.48.13.11-.57.22-1.15.28-1.73.05-.42.11-.88,0-1.3-.1-.36-.42-.55-.77-.33-.45.28-.84.77-1.11,1.23s-.44.95-.55,1.45l.49.07c-.06-.58-.19-1.14-.41-1.68-.1-.23-.24-.44-.51-.45s-.49.16-.64.36c-.3.39-.31.93-.32,1.39-.01.62.05,1.24.16,1.85l.48-.13c-.31-1.09-.46-2.21-.45-3.34,0-.32-.5-.32-.5,0h0Z"/>
          <path class="cls-1" d="M43.86,63.16c.53-.19,1.22-.45,1.4-1.05.14-.47-.12-1.08-.62-1.18-.59-.12-.96.42-1.06.93-.13.66-.08,1.41.18,2.03s.81,1.15,1.48,1.33c.31.08.44-.4.13-.48-.55-.14-.98-.57-1.18-1.1-.12-.32-.17-.65-.17-.99,0-.28,0-.57.09-.84.06-.17.17-.39.38-.39.18,0,.29.19.31.35.07.53-.69.77-1.07.91-.3.11-.17.59.13.48h0Z"/>
          <path class="cls-1" d="M50.68,57.89c-.09,2.21,0,4.42.29,6.61.04.31.54.32.5,0-.29-2.19-.39-4.4-.29-6.61.01-.32-.49-.32-.5,0h0Z"/>
          <path class="cls-1" d="M53.57,64.11l.29-3.75c.02-.32-.48-.32-.5,0l-.29,3.75c-.02.32.48.32.5,0h0Z"/>
          <path class="cls-1" d="M54.84,60.36l.03,3.32c0,.27.45.35.49.07.15-1.14.33-2.41,1.13-3.29.05-.06.11-.11.16-.17.03-.03.06-.05.09-.08.05-.03.04-.04-.03-.04,0,.13.08.29.1.41.07.34.1.69.1,1.04,0,.73-.13,1.44-.38,2.13-.11.3.37.43.48.13.23-.62.36-1.28.39-1.95.01-.33,0-.65-.04-.98s-.07-.65-.18-.94c-.1-.26-.35-.41-.62-.29-.23.11-.43.35-.58.55-.34.44-.58.94-.74,1.47-.19.61-.28,1.24-.37,1.87l.49.07-.03-3.32c0-.32-.5-.32-.5,0h0Z"/>
          <path class="cls-1" d="M58.79,62.4c.54.06,1.1,0,1.59-.24.33-.16.67-.45.75-.83.18-.79-.74-1.73-1.51-1.71-.69.02-1,.86-1.13,1.42-.17.74-.17,1.6.18,2.29.45.89,1.64,1.14,2.52.81.3-.11.17-.59-.13-.48-.59.22-1.43.16-1.84-.39-.35-.47-.37-1.15-.31-1.7.05-.44.17-1.09.55-1.38.05-.04.09-.06.17-.07.14-.01.29.06.41.13.27.16.55.44.62.75s-.18.53-.43.67c-.43.24-.95.27-1.43.22-.32-.04-.32.46,0,.5h0Z"/>
          <path class="cls-1" d="M64.54,60.97v2.62c.17-.02.33-.04.49-.07-.11-.68-.37-1.33-.76-1.89-.34-.51-.85-1.16-1.53-1.17-.36,0-.61.23-.72.56-.12.35-.21.74-.22,1.11-.02.69.32,1.32.89,1.69.66.43,1.54.42,2.21.02.28-.16.03-.6-.25-.43-.45.27-1.04.32-1.51.09s-.79-.65-.83-1.16c-.02-.3.03-.6.11-.89.05-.2.09-.53.37-.49.21.03.41.17.56.32.2.2.37.42.53.65.35.52.58,1.11.68,1.73.05.28.49.21.49-.07v-2.62c0-.32-.5-.32-.5,0h0Z"/>
          <path class="cls-1" d="M66.02,59.49c-.05,1.42.04,2.85.27,4.25.05.29.48.2.49-.07.02-.43.03-.86.05-1.29.02-.39,0-.8.09-1.18.07-.3.21-.6.52-.72.23-.1.51-.1.68.11.2.25.55-.11.35-.35-.52-.65-1.56-.24-1.88.4-.21.42-.23.88-.25,1.34-.02.56-.05,1.13-.07,1.69l.49-.07c-.22-1.36-.31-2.74-.26-4.12.01-.32-.49-.32-.5,0h0Z"/>
          <path class="cls-1" d="M69.61,57.81l-.14,5.89c0,.29.4.33.49.07.04-.12.08-.25.13-.37.1-.31-.38-.44-.48-.13-.04.12-.08.25-.13.37l.49.07.14-5.89c0-.32-.49-.32-.5,0h0Z"/>
          <path class="cls-1" d="M71.53,60.82c-.17.68-.18,1.39,0,2.07.14.53.44,1.13,1.08,1.11.51-.02.67-.48.87-.86.28-.55.6-1.08.91-1.61l-.47-.13c-.08,1.3-.54,2.46-1.29,3.52-.32.45-.71.91-1.25,1.11-.58.21-1.19.07-1.71-.23-.28-.16-.53.27-.25.43.59.33,1.28.49,1.94.32s1.13-.63,1.52-1.14c.9-1.18,1.44-2.53,1.53-4.01.02-.25-.35-.33-.47-.13-.24.42-.49.83-.72,1.25-.14.26-.25.59-.43.83-.16.22-.42.14-.57-.05s-.21-.46-.26-.69c-.12-.55-.1-1.11.04-1.66.08-.31-.4-.45-.48-.13h0Z"/>
          <path class="cls-1" d="M34.72,72.97c-.3,2.09-.34,4.19-.11,6.29.03.32.53.32.5,0-.22-2.05-.2-4.12.09-6.16.04-.31-.44-.45-.48-.13h0Z"/>
          <path class="cls-1" d="M35.51,72.93s0-.03.02-.05c0,.02,0,.02.01-.01-.03.04.06-.05.02-.02.06-.04.09-.06.17-.07.11-.02.24,0,.35.07.31.21.42.69.5,1.03.05.2.07.41-.03.6-.07.12-.19.21-.32.27-.31.15-.68.17-1.02.18-.32.01-.32.51,0,.5.69-.02,1.69-.15,1.88-.97.1-.44-.06-.94-.23-1.35-.15-.37-.41-.74-.83-.82s-.88.07-1,.5c-.08.31.4.45.48.13h0Z"/>
          <path class="cls-1" d="M38.18,74.18c.61-.1,1.24-.46,1.44-1.07.18-.53-.06-1.18-.57-1.42-.29-.14-.67-.15-.91.09-.21.21-.25.52-.23.81.04.73.25,1.46.56,2.12.17.35.36.73.63,1.02.21.23.63.41.87.11.2-.25-.15-.6-.35-.35-.02.03,0,.03.03.01-.02,0-.05-.01-.07-.03-.05-.04-.1-.07-.14-.12-.11-.12-.19-.28-.28-.42-.17-.28-.31-.56-.42-.86s-.2-.61-.26-.92c-.05-.27-.12-.59-.06-.86s.35-.22.53-.08c.16.13.25.36.24.57-.02.57-.65.85-1.13.93-.32.05-.18.53.13.48h0Z"/>
          <path class="cls-1" d="M40.33,72.27c.17,1.04.25,2.1.25,3.15,0,.32.49.32.5,0,.01-.53.09-1.06.25-1.57.07-.25.16-.49.27-.72.04-.08.17-.45.3-.4s.18.45.21.55c.06.26.12.52.16.79.09.55.11,1.11.09,1.67-.01.32.49.32.5,0,.02-.69-.03-1.38-.16-2.06-.06-.31-.12-.63-.23-.93-.09-.25-.25-.48-.53-.51-.61-.08-.87.8-1.02,1.24-.22.62-.33,1.28-.35,1.94h.5c0-1.1-.1-2.2-.27-3.29-.02-.13-.19-.21-.31-.17-.14.04-.2.17-.17.31h0Z"/>
          <path class="cls-1" d="M46.21,71.25c.16,1.51.17,3.03.02,4.55l.43-.18c-.43-.55-.88-1.09-1.48-1.47-.25-.16-.56-.31-.87-.25-.26.05-.46.24-.51.5-.12.55.33,1.13.7,1.48.48.45,1.2.67,1.79.32.28-.16.03-.59-.25-.43-.43.25-.92.03-1.24-.29-.18-.19-.64-.69-.51-1,.16-.36.91.28,1.05.41.36.32.66.7.96,1.08.15.19.41.01.43-.18.15-1.51.15-3.03-.02-4.55-.03-.32-.53-.32-.5,0h0Z"/>
          <path class="cls-1" d="M48.2,74.4c.39-.06.69-.32.94-.6s.53-.6.61-.99c.13-.67-.52-1.44-1.22-1.09-.3.15-.46.48-.55.79-.11.4-.16.84-.16,1.26s.06.84.16,1.24c.09.36.22.74.45,1.04s.58.48.96.41c.33-.06.64-.32.62-.68-.01-.32-.51-.32-.5,0,0,.23-.36.22-.5.14-.25-.14-.36-.45-.45-.71-.24-.7-.31-1.47-.19-2.21.04-.26.09-.61.31-.79.24-.19.52.05.57.3.06.31-.19.62-.38.84-.23.26-.47.52-.82.57-.32.05-.18.53.13.48h0Z"/>
          <path class="cls-1" d="M50.31,72.1c.27,1.13.45,2.29.54,3.45h.5c-.06-.51-.06-1.03.04-1.54.05-.25.11-.51.19-.75.04-.11.13-.51.28-.52.13-.01.2.35.23.42.08.25.14.51.17.77.08.53.07,1.08-.02,1.61-.05.31.43.45.48.13.12-.68.12-1.36,0-2.04-.06-.31-.13-.63-.25-.92-.1-.25-.29-.48-.58-.48-.61-.02-.81.87-.92,1.32-.16.65-.2,1.32-.12,1.99.02.14.1.25.25.25.13,0,.26-.12.25-.25-.09-1.21-.28-2.41-.56-3.58-.07-.31-.56-.18-.48.13h0Z"/>
          <path class="cls-1" d="M52.95,72.46c.63-.19,1.28-.24,1.94-.18.13.01.25-.13.25-.25,0-.15-.12-.24-.25-.25-.69-.07-1.4,0-2.07.19-.31.09-.18.57.13.48h0Z"/>
          <path class="cls-1" d="M53.78,70.45c-.11,1.77-.15,3.55-.09,5.33,0,.32.51.32.5,0-.05-1.78-.02-3.55.09-5.33.02-.32-.48-.32-.5,0h0Z"/>
          <path class="cls-1" d="M58.09,71.3c.58,1.56,1.31,3.06,2.19,4.48.1.16.42.17.46-.06.22-1.54.63-3.04,1.23-4.47.12-.3-.36-.43-.48-.13-.6,1.43-1.01,2.94-1.23,4.47l.46-.06c-.85-1.38-1.57-2.84-2.14-4.36-.11-.3-.59-.17-.48.13h0Z"/>
          <path class="cls-1" d="M62.49,74.32c.56.18,1.27.03,1.59-.5.29-.49.15-1.16-.38-1.41s-1.17-.04-1.37.53c-.11.31-.13.68-.14,1.01-.01.36.02.74.13,1.08.21.64.7,1.18,1.36,1.34.31.08.45-.41.13-.48-.41-.1-.72-.38-.91-.75-.23-.44-.24-.96-.2-1.44.03-.36.05-.89.52-.9.34,0,.59.28.49.62-.13.46-.69.55-1.08.42-.31-.1-.44.38-.13.48h0Z"/>
          <path class="cls-1" d="M65.89,73.07c-.35.32-.65.7-.87,1.12-.21.39-.41.87-.28,1.33.25.86,1.3.82,2.01.72.13-.02.21-.19.17-.31-.04-.14-.17-.19-.31-.17-.42.06-1.34.15-1.41-.46-.04-.34.16-.7.32-.98.19-.34.44-.63.72-.9.24-.22-.12-.57-.35-.35h0Z"/>
          <path class="cls-1" d="M71.46,76.3c.23-.79.32-1.62.3-2.44,0-.32-.51-.32-.5,0,.02.78-.07,1.56-.28,2.31-.09.31.39.44.48.13h0Z"/>
          <path class="cls-1" d="M70.98,72.39s-.01.08-.02.12c0,.02,0,.04,0,.05,0,.03,0,.06.01.09s.02.06.03.08c.01.02.04.05.05.07.01.01.03.03.04.04.01,0,.02.02.03.03,0,0,0,0,0,0,.01,0,.05.02.06.03.03,0,.06.01.08.01,0,0,0,0,0,0,.02,0,.05,0,.07,0,0,0,0,0,0,0,.03,0,.05-.02.08-.03,0,0,0,0,0,0,.02-.01.04-.03.06-.04,0,0,.01,0,.02-.01.04-.05.06-.08.08-.14,0-.03.01-.05.01-.08,0-.05-.01-.1-.04-.14,0,0,0,0,0,0,0,0,0,0,0,0l-.04-.05s-.04-.04-.06-.04c-.02-.01-.05-.03-.08-.03-.03-.01-.07-.01-.1,0-.03,0-.06.01-.09.03-.03.02-.05.04-.07.06-.02.02-.04.05-.04.09v.07s0,.09.03.13l.04.05s.07.05.11.06c0,0,0,0,.01,0l-.06-.03s0,0,0,0l-.05-.04s0,0,0,0l-.04-.05s0,0,0,0l-.03-.06s0,0,0,0v-.07s0,0,0,0v-.07s0,0,0,.01l.03-.06s0,.01-.01.02l.04-.05s-.01.01-.02.02l.05-.04s-.01,0-.02.01l.06-.03s-.01,0-.02,0h.07s-.01,0-.02,0h.07s0,0-.01,0l.06.03s-.01,0-.02,0l.05.04s-.01-.01-.02-.02l.04.05s-.01-.02-.01-.03l.03.06s0-.03-.01-.04v.07s0-.05.01-.08v.07s0-.02,0-.03c.01-.03.01-.07,0-.1,0-.03-.01-.06-.03-.09-.02-.03-.04-.05-.06-.07-.02-.02-.05-.04-.09-.04h-.07s-.09,0-.13.03l-.05.04s-.05.07-.06.11h0Z"/>
          <path class="cls-1" d="M72.96,74.54c.53-.19.99-.57,1.22-1.09.1-.22.15-.48.06-.72-.09-.26-.34-.42-.62-.37s-.48.29-.6.53c-.14.27-.25.56-.3.86-.1.59-.02,1.21.25,1.75.14.28.38.52.69.61.29.08.63.02.83-.22.09-.1.1-.25,0-.35-.09-.09-.27-.1-.35,0-.13.15-.35.13-.5.01-.18-.14-.28-.38-.35-.59-.16-.5-.14-1.04.03-1.53.05-.13.11-.26.18-.38.04-.06.11-.18.19-.2.12-.02.09.18.08.25-.09.45-.53.81-.95.96-.3.11-.17.59.13.48h0Z"/>
          <path class="cls-1" d="M76.96,73.01c-.47.03-.99.14-1.31.52-.27.32-.35.82-.08,1.17.15.19.36.28.59.34.11.03.24.05.34.09.05.02.16.08.18.14.03.13-.38.28-.46.32-.23.1-.48.17-.73.2-.13.02-.25.1-.25.25,0,.12.12.27.25.25.27-.03.53-.09.79-.18.24-.09.5-.2.7-.37s.28-.44.16-.69c-.11-.21-.33-.35-.55-.42-.18-.06-.44-.06-.58-.21-.1-.11-.1-.27-.06-.4.14-.4.66-.49,1.03-.51.32-.02.32-.52,0-.5h0Z"/>
          <path class="cls-1" d="M67.59,72.27c.05,1.26-.02,2.53-.22,3.78-.05.31.43.45.48.13.21-1.29.3-2.6.24-3.91-.01-.32-.51-.32-.5,0h0Z"/>
          <path class="cls-1" d="M68.66,74.33c.42-.45.96-.75,1.58-.87.13-.03.21-.18.17-.31-.04-.14-.17-.2-.31-.17-.68.14-1.32.49-1.8,1-.09.1-.1.26,0,.35s.26.1.35,0h0Z"/>
          <path class="cls-1" d="M68.08,74.16l1.47,2.37c.17.27.6.02.43-.25l-1.47-2.37c-.17-.27-.6-.02-.43.25h0Z"/>
          <path class="cls-1" d="M24.39,77.54h.04c-.08-.06-.16-.12-.24-.18l.02-.1.28-.11c.05.1.06.09.04-.03,0-.08-.02-.16-.02-.24-.02-.16-.03-.32-.05-.47-.04-.34-.07-.68-.11-1.03-.07-.66-.14-1.32-.22-1.97-.15-1.34-.32-2.68-.5-4.02l-.49.07c.05.17.1.35.15.52.09.31.57.18.48-.13-.05-.17-.1-.35-.15-.52-.08-.26-.53-.22-.49.07.2,1.52.39,3.04.56,4.57.08.74.16,1.47.24,2.21.04.34.05.7.1,1.04.03.21.09.38.32.42.11.02.23,0,.28-.11s.07-.18.03-.29-.12-.17-.24-.18h-.04c-.32-.03-.32.47,0,.5h0Z"/>
          <path class="cls-1" d="M26.34,77.06c-.2-2.03-.39-4.05-.59-6.08l-.43.18c.86.83,1.06,2.24,1.4,3.34s.55,2.29,1.32,3.13c.15.17.42.03.43-.18.02-1.39,0-2.77-.08-4.15-.04-.66-.08-1.33-.14-1.99-.06-.72-.17-1.45-.05-2.17.05-.31-.43-.45-.48-.13-.22,1.34.09,2.77.17,4.12.08,1.44.11,2.88.09,4.32l.43-.18c-.41-.45-.61-1.03-.79-1.6-.2-.64-.4-1.29-.59-1.94-.31-1.02-.54-2.17-1.34-2.93-.14-.14-.45-.05-.43.18.2,2.03.39,4.05.59,6.08.03.32.53.32.5,0h0Z"/>
          <path class="cls-1" d="M30.55,71.06c.05,1.57.22,3.14.51,4.68l.42-.24c-.28-.28-.54-.58-.83-.85-.18-.18-.41-.33-.67-.32-.6.04-.77.8-.76,1.28,0,.57.25,1.14.74,1.46.46.29,1.09.32,1.53-.01.26-.19,0-.62-.25-.43-.71.53-1.46-.19-1.51-.92-.02-.24.03-1.03.43-.81.17.09.3.28.43.42.18.19.36.37.54.56s.46-.01.42-.24c-.27-1.5-.44-3.02-.49-4.55-.01-.32-.51-.32-.5,0h0Z"/>
          <path class="cls-1" d="M32.54,75.01c.58-.24,1.03-.69,1.24-1.29s.03-1.43-.71-1.48c-.7-.05-.87.79-.92,1.32-.05.62.09,1.25.35,1.81.3.65.76,1.22,1.32,1.66.25.2.61-.15.35-.35-.91-.72-1.6-1.83-1.53-3.03.01-.26.05-.6.2-.82.19-.27.48.03.52.26.1.6-.44,1.22-.95,1.43-.29.12-.16.61.13.48h0Z"/>
        </g>
        <path class="cls-1" d="M47.47,53.63c-3.67.09-7.36.24-11.01.65-2.06.23-4.14.53-6.12,1.13-3.4,1.03-5.87,3.41-7.71,6.44-1.29,2.12-2.19,4.49-2.68,6.92s-.72,4.75-.41,7.13c.43,3.27,2.07,6.22,5.06,7.78,2.79,1.46,5.99,1.54,9.06,1.77,7.39.56,14.8,1.16,22.22,1.29,4.73.08,9.65.06,14.26-1.14,3.2-.84,5.93-2.39,7.93-5.06,1.76-2.36,3.05-5.13,3.41-8.07.4-3.22-.47-6.41-2.23-9.1-1.41-2.15-3.29-3.96-5.35-5.49-1.34-.99-2.79-1.93-4.33-2.6-2.04-.89-4.25-1.29-6.45-1.52-3.16-.32-6.36-.3-9.53-.25-2.04.03-4.08.08-6.12.13-.32,0-.32.51,0,.5,3.68-.09,7.36-.2,11.04-.12,2.58.05,5.2.18,7.73.73,3.72.82,7.06,2.96,9.79,5.57,2.02,1.94,3.72,4.29,4.53,7,.99,3.33.46,6.86-1.07,9.95-.86,1.75-2,3.5-3.45,4.83-1.12,1.03-2.46,1.79-3.87,2.33-3.86,1.51-8.18,1.74-12.28,1.82-6.36.12-12.73-.32-19.07-.76-3.7-.26-7.44-.42-11.12-.85-3.23-.38-6.45-1.59-8.23-4.49-1.6-2.6-1.77-5.83-1.43-8.79.21-1.87.61-3.74,1.25-5.51,1.33-3.71,3.84-7.68,7.58-9.35,1.4-.63,2.93-.97,4.43-1.24,2.73-.49,5.52-.71,8.29-.87,1.96-.11,3.92-.18,5.88-.23.32,0,.32-.51,0-.5Z"/>
      </g>
      <g>
        <g>
          <path class="cls-1" d="M175.11,52.77c-.73-.33-1.61-.31-2.28.17-.56.4-1.08,1.16-.91,1.88.21.92,1.44.74,2.13.72.63-.02,1.78.2,1.45,1.1-.16.44-.59.68-1.01.81-.52.16-1.06.22-1.6.27-.32.03-.32.53,0,.5.8-.08,1.76-.15,2.44-.62.57-.39.94-1.15.58-1.8s-1.19-.78-1.86-.76c-.44.01-.94.11-1.36-.05s-.31-.67-.15-.99c.43-.84,1.46-1.19,2.32-.8.29.13.55-.3.25-.43h0Z"/>
          <path class="cls-1" d="M176.98,54.23c-.53.41-.7,1.12-.67,1.76.01.31.06.62.16.91s.24.64.56.77c.36.14.74-.05,1.02-.27s.53-.51.68-.85c.13-.3.18-.61.21-.93.02-.29.03-.58-.01-.88-.06-.37-.26-.72-.64-.85-.42-.14-.9.04-1.24.29-.11.08-.16.22-.09.34.06.11.23.17.34.09.21-.16.5-.31.77-.26.24.04.33.27.37.48.04.23.03.47,0,.7-.01.21-.04.41-.09.61-.08.28-.23.52-.44.72-.15.15-.42.39-.66.35-.19-.03-.26-.32-.31-.48-.07-.22-.11-.44-.12-.66-.04-.55.06-1.13.52-1.49.11-.08.09-.27,0-.35-.1-.11-.25-.08-.35,0Z"/>
          <path class="cls-1" d="M179.52,54.42c-.02,1.07.13,2.14.42,3.17.09.31.54.18.48-.13-.08-.4-.12-.8-.13-1.21,0-.35-.02-.74.08-1.08.03-.12.09-.25.19-.33.07-.06.09-.07.13,0,.05.08.07.17.1.26.13.37.23.76.26,1.16.03.26.43.36.49.07.09-.42.22-.82.44-1.19.13-.23.29-.44.48-.63.09-.1.19-.2.3-.28.08-.07.18-.07.04-.11-.04-.01,0-.02,0,.02,0-.04.02.06.02.07.01.06.02.12.02.18.01.22,0,.45-.02.67-.05.55-.16,1.1-.26,1.65-.06.31.42.45.48.13.1-.53.2-1.05.26-1.58.04-.38.1-.81,0-1.19-.09-.35-.41-.52-.73-.32-.42.26-.77.71-1.02,1.13s-.41.87-.5,1.33l.49.07c-.05-.53-.17-1.05-.38-1.54-.09-.22-.23-.42-.49-.43-.24-.01-.46.15-.6.33-.27.36-.29.85-.3,1.28-.01.57.04,1.13.15,1.69l.48-.13c-.28-.99-.42-2.01-.41-3.04,0-.32-.5-.32-.5,0h0Z"/>
          <path class="cls-1" d="M184.45,55.8c.49-.18,1.12-.41,1.29-.97.13-.44-.11-1.01-.58-1.1-.55-.11-.9.39-1,.86-.12.61-.08,1.3.16,1.87s.74,1.06,1.37,1.22c.31.08.44-.4.13-.48-.5-.13-.88-.51-1.06-.99-.11-.29-.15-.59-.15-.89,0-.25,0-.52.08-.76.05-.15.15-.34.33-.34.15,0,.24.17.26.31.06.47-.63.68-.96.8-.3.11-.17.59.13.48h0Z"/>
          <path class="cls-1" d="M190.64,50.98c-.09,2.01,0,4.03.27,6.03.04.31.54.32.5,0-.26-2-.35-4.01-.27-6.03.01-.32-.49-.32-.5,0h0Z"/>
          <path class="cls-1" d="M193.32,56.65l.27-3.42c.02-.32-.48-.32-.5,0l-.27,3.42c-.02.32.48.32.5,0h0Z"/>
          <path class="cls-1" d="M194.44,53.23l.03,3.03c0,.27.45.35.49.07.14-1.03.3-2.19,1.03-2.99.05-.05.1-.1.15-.15.03-.02.05-.05.08-.07.05-.03.03-.04-.06-.04,0,0,.08.34.09.37.06.31.09.63.09.95,0,.66-.11,1.31-.34,1.93-.11.3.37.43.48.13.21-.57.33-1.17.36-1.78.01-.3,0-.6-.03-.89s-.07-.6-.17-.87c-.09-.25-.34-.4-.6-.28-.21.1-.39.32-.54.51-.32.4-.53.86-.68,1.35-.17.55-.26,1.13-.33,1.7l.49.07-.03-3.03c0-.32-.5-.32-.5,0h0Z"/>
          <path class="cls-1" d="M198.06,55.12c.5.06,1.01,0,1.46-.22.31-.15.62-.42.7-.77.17-.73-.68-1.6-1.4-1.59-.64.02-.94.79-1.05,1.31-.15.68-.16,1.47.16,2.1.41.82,1.51,1.05,2.32.75.3-.11.17-.59-.13-.48-.53.19-1.28.15-1.65-.34-.31-.42-.33-1.04-.28-1.54.04-.41.16-.98.49-1.24.03-.02.07-.05.14-.05.13-.01.25.06.36.12.24.14.49.39.55.68s-.16.47-.38.59c-.39.22-.85.25-1.29.2-.14-.02-.25.13-.25.25,0,.15.12.23.25.25h0Z"/>
          <path class="cls-1" d="M203.28,53.78v2.39c.17-.02.33-.04.49-.07-.1-.62-.34-1.21-.69-1.73-.32-.47-.79-1.07-1.41-1.08-.34,0-.57.22-.68.53-.11.32-.19.68-.2,1.02-.02.64.29,1.22.83,1.56.6.4,1.42.38,2.04.02.28-.16.03-.6-.25-.43-.4.24-.93.29-1.36.08s-.71-.58-.75-1.04c-.02-.27.03-.54.1-.81.05-.18.07-.46.31-.43.19.03.36.15.49.28.18.18.34.38.48.59.32.48.52,1.01.62,1.58.05.28.49.21.49-.07v-2.39c0-.32-.5-.32-.5,0h0Z"/>
          <path class="cls-1" d="M204.63,52.44c-.05,1.3.04,2.6.25,3.88.05.29.48.2.49-.07.02-.39.03-.78.05-1.18.01-.35,0-.72.08-1.07.06-.27.19-.53.46-.64.21-.09.45-.09.6.1.2.25.55-.11.35-.35-.49-.6-1.45-.23-1.75.37-.19.38-.21.81-.23,1.23-.02.51-.04,1.03-.06,1.54l.49-.07c-.2-1.24-.28-2.5-.23-3.75.01-.32-.49-.32-.5,0h0Z"/>
          <path class="cls-1" d="M207.9,50.91l-.13,5.38c0,.29.4.33.49.07.04-.11.08-.23.12-.34.1-.31-.38-.44-.48-.13-.04.11-.08.23-.12.34l.49.07.13-5.38c0-.32-.49-.32-.5,0h0Z"/>
          <path class="cls-1" d="M209.65,53.65c-.16.62-.16,1.27,0,1.9.13.49.41,1.05,1,1.03.47-.02.63-.44.81-.8.26-.5.54-.98.83-1.47l-.47-.13c-.07,1.18-.49,2.23-1.17,3.2-.29.41-.64.82-1.13,1-.52.19-1.07.06-1.54-.2-.28-.16-.53.27-.25.43.54.3,1.17.45,1.79.3s1.04-.58,1.4-1.05c.82-1.08,1.32-2.31,1.4-3.67.02-.25-.35-.33-.47-.13-.22.38-.44.76-.65,1.14-.13.24-.23.54-.39.76-.14.19-.36.12-.48-.05-.13-.17-.18-.41-.23-.62-.11-.5-.09-1.01.03-1.5.08-.31-.4-.45-.48-.13h0Z"/>
          <path class="cls-1" d="M176.09,64.72c-.27,1.91-.31,3.83-.1,5.74.03.32.53.32.5,0-.2-1.87-.18-3.75.08-5.61.04-.31-.44-.45-.48-.13h0Z"/>
          <path class="cls-1" d="M176.85,64.7s0-.03.01-.05c0,.02,0,.02,0,0-.04.05.06-.05.01-.01.06-.04.07-.05.15-.06-.03,0,.06,0,.07,0s.1,0,.07,0c.08.01.1.02.16.06.28.19.37.63.45.93.04.17.07.37-.03.53-.06.11-.16.18-.29.24-.27.13-.61.15-.92.16s-.32.51,0,.5c.64-.02,1.56-.14,1.74-.9.1-.41-.06-.87-.21-1.24-.14-.34-.38-.69-.77-.76s-.83.07-.93.47c-.08.31.4.45.48.13h0Z"/>
          <path class="cls-1" d="M179.26,65.85c.56-.09,1.14-.42,1.33-.99.16-.49-.06-1.1-.53-1.32-.27-.13-.63-.14-.86.09-.2.19-.24.49-.22.75.04.67.23,1.33.52,1.94.15.32.33.67.58.93.2.21.6.38.82.1.09-.11.1-.25,0-.35-.09-.09-.27-.1-.35,0,0,.03,0,.03.05,0-.02,0-.04,0-.06-.02-.05-.03-.09-.06-.12-.1-.1-.11-.17-.25-.25-.38-.15-.25-.28-.51-.38-.78s-.18-.55-.24-.84c-.05-.24-.11-.53-.06-.77.05-.23.3-.18.45-.06s.22.32.21.5c-.02.51-.59.76-1.02.82-.13.02-.21.19-.17.31.04.14.17.2.31.17h0Z"/>
          <path class="cls-1" d="M181.2,64.1c.15.95.23,1.91.23,2.87,0,.32.49.32.5,0,.01-.48.09-.96.23-1.42.07-.22.15-.44.25-.65.03-.07.17-.39.25-.36.11.05.15.4.18.49.06.24.11.48.14.72.08.5.1,1.01.09,1.51-.01.32.49.32.5,0,.02-.63-.03-1.27-.14-1.89-.05-.28-.11-.58-.21-.85-.08-.23-.24-.45-.5-.48-.57-.07-.81.74-.96,1.15-.2.57-.3,1.17-.32,1.78h.5c0-1.01-.09-2.01-.25-3-.02-.13-.19-.21-.31-.17-.14.04-.2.17-.17.31h0Z"/>
          <path class="cls-1" d="M186.56,63.16c.15,1.38.15,2.77.01,4.14l.43-.18c-.4-.5-.81-1-1.35-1.35-.23-.15-.53-.29-.81-.23-.24.05-.43.23-.48.47-.11.51.3,1.05.64,1.38.44.42,1.11.62,1.66.3.28-.16.03-.59-.25-.43-.38.22-.82.02-1.11-.27-.14-.14-.27-.3-.36-.47-.06-.1-.15-.29-.1-.41.14-.29.8.28.92.39.33.29.6.64.88.98.15.19.41.01.43-.18.14-1.38.13-2.77-.01-4.14-.03-.32-.53-.32-.5,0h0Z"/>
          <path class="cls-1" d="M188.41,66.06c.36-.05.63-.29.87-.55s.49-.56.56-.91c.12-.63-.49-1.35-1.15-1.02-.28.14-.43.44-.51.73-.1.37-.15.77-.14,1.15,0,.68.14,1.53.57,2.09.22.28.54.45.9.38.31-.06.6-.3.58-.64-.01-.32-.51-.32-.5,0,0,.19-.31.17-.42.11-.22-.13-.32-.41-.4-.63-.22-.64-.29-1.33-.17-2,.04-.23.08-.56.28-.71s.45.05.49.26c.05.28-.17.55-.34.74-.2.23-.42.47-.74.52-.13.02-.21.19-.17.31.04.14.17.19.31.17h0Z"/>
          <path class="cls-1" d="M190.3,63.94c.25,1.03.41,2.08.49,3.14h.5c-.06-.46-.05-.94.03-1.4.04-.23.1-.46.18-.68.03-.09.13-.46.24-.46.09,0,.16.31.18.37.07.23.12.47.16.71.07.48.06.98-.02,1.45-.05.31.43.45.48.13.11-.62.11-1.25,0-1.87-.08-.43-.21-1.28-.78-1.29s-.75.8-.86,1.22c-.15.59-.18,1.21-.11,1.82.02.13.1.25.25.25.13,0,.26-.11.25-.25-.08-1.1-.25-2.2-.51-3.27-.07-.31-.56-.18-.48.13h0Z"/>
          <path class="cls-1" d="M192.73,64.29c.57-.17,1.17-.22,1.76-.16.13.01.25-.13.25-.25,0-.15-.12-.24-.25-.25-.63-.07-1.28,0-1.89.18-.13.04-.21.18-.17.31s.18.21.31.17h0Z"/>
          <path class="cls-1" d="M193.47,62.43c-.1,1.62-.13,3.24-.08,4.86,0,.32.51.32.5,0-.05-1.62-.02-3.24.08-4.86.02-.32-.48-.32-.5,0h0Z"/>
          <path class="cls-1" d="M197.4,63.21c.53,1.43,1.2,2.8,2,4.09.1.16.42.17.46-.06.2-1.4.58-2.77,1.12-4.08.05-.13-.06-.27-.17-.31-.14-.04-.26.05-.31.17-.54,1.31-.92,2.68-1.12,4.08l.46-.06c-.78-1.26-1.43-2.58-1.95-3.97-.11-.3-.59-.17-.48.13h0Z"/>
          <path class="cls-1" d="M201.43,65.99c.52.17,1.18.03,1.47-.47.27-.45.14-1.09-.36-1.32s-1.09-.03-1.29.5c-.1.29-.12.62-.13.92-.01.33.02.68.12.99.19.59.65,1.09,1.26,1.24.31.08.45-.41.13-.48-.36-.09-.64-.34-.82-.67-.21-.4-.21-.87-.18-1.31.03-.31.04-.79.45-.8.3,0,.51.24.43.54-.11.41-.61.48-.96.37-.31-.1-.44.38-.13.48h0Z"/>
          <path class="cls-1" d="M204.52,64.81c-.32.3-.59.64-.8,1.03s-.38.81-.26,1.23c.23.8,1.2.77,1.86.68.13-.02.21-.19.17-.31-.04-.14-.17-.19-.31-.17-.39.06-1.2.13-1.26-.4-.03-.3.14-.62.29-.87.18-.31.4-.57.66-.81.24-.22-.12-.57-.35-.35h0Z"/>
          <path class="cls-1" d="M209.64,67.77c.21-.72.3-1.48.28-2.23,0-.32-.51-.32-.5,0,.02.71-.06,1.42-.26,2.1-.09.31.39.44.48.13h0Z"/>
          <path class="cls-1" d="M209.15,64.2s-.01.08-.02.11c0,.02,0,.03,0,.05,0,.02,0,.06.01.09s.02.05.03.08c0,0,0,0,0,.01.01.02.03.04.04.06.02.02.05.04.07.06,0,0,0,0,.01,0,0,0,0,0,0,0,.01,0,.05.02.06.03.03,0,.05.01.08.01,0,0,0,0,0,0,.02,0,.05,0,.07,0,0,0,0,0,0,0,.03,0,.05-.02.08-.03,0,0,0,0,0,0,.02-.01.04-.03.06-.04,0,0,0,0,.01-.01.04-.05.06-.08.08-.14.02-.07.01-.15-.03-.22s-.1-.11-.17-.13c-.03-.01-.07-.01-.1,0-.03,0-.06.01-.09.03-.03.02-.05.04-.07.06-.02.02-.04.05-.04.09v.07s0,.09.03.13l.04.05s.07.05.11.06c0,0,0,0,0,0l-.06-.03s0,0,0,0l-.05-.04s0,0,0,0l-.04-.05s0,0,0,0l-.03-.06s0,0,0,0v-.07s0,0,0,0v-.07s0,0,0,.01l.03-.06s0,.01,0,.02l.04-.05s-.01.01-.02.02l.05-.04s-.01,0-.02.01l.06-.03s-.01,0-.02,0h.07s0,0-.01,0h.07s0,0-.01,0l.06.03s-.01,0-.02,0l.05.04s-.01-.01-.02-.02l.04.05s0-.02-.01-.02l.03.06s0-.02,0-.03v.07s0-.05.01-.08v.07s0-.02,0-.02c.01-.03.01-.07,0-.1,0-.03-.01-.06-.03-.09-.02-.03-.04-.05-.06-.07-.02-.02-.05-.04-.09-.04h-.07s-.09,0-.13.03l-.05.04s-.05.07-.06.11h0Z"/>
          <path class="cls-1" d="M210.98,66.18c.49-.17.91-.52,1.12-1,.09-.21.14-.45.06-.67-.09-.25-.32-.4-.59-.36-.52.09-.76.84-.84,1.29-.09.54-.02,1.12.23,1.61.13.26.35.49.64.56.27.07.59.02.78-.21.09-.1.1-.25,0-.35-.09-.09-.27-.1-.35,0-.11.13-.3.11-.43,0-.16-.13-.25-.34-.31-.52-.14-.45-.13-.94.03-1.39.04-.12.1-.23.16-.34.03-.05.1-.17.17-.17s.05.14.04.2c-.08.4-.48.73-.85.86-.3.11-.17.59.13.48h0Z"/>
          <path class="cls-1" d="M214.63,64.74c-.43.03-.92.13-1.21.48-.25.3-.32.77-.07,1.1.14.18.34.26.55.32.1.03.22.04.31.09.03.02.14.07.15.11.01.1-.33.23-.41.27-.21.09-.43.15-.66.18-.13.02-.25.1-.25.25,0,.12.12.27.25.25.25-.03.49-.08.72-.17s.46-.19.64-.35.26-.42.15-.65c-.1-.2-.31-.33-.52-.39-.16-.05-.4-.06-.52-.18-.09-.09-.09-.23-.05-.34.12-.35.59-.43.92-.45.13,0,.25-.11.25-.25,0-.13-.11-.26-.25-.25h0Z"/>
          <path class="cls-1" d="M206.07,64.1c.05,1.15-.02,2.3-.2,3.44-.02.13.04.27.17.31.12.03.29-.04.31-.17.19-1.18.27-2.38.22-3.57-.01-.32-.51-.32-.5,0h0Z"/>
          <path class="cls-1" d="M207.08,65.99c.05-.05.1-.1.15-.15.03-.02.05-.05.08-.07.01-.01.03-.02.04-.03,0,0,.05-.04.03-.03-.02.01.02-.02.02-.02.02-.01.03-.02.05-.04.03-.02.05-.04.08-.06.06-.04.13-.08.19-.12.06-.03.12-.07.19-.1.08-.04.08-.03.16-.07.14-.05.29-.09.44-.12.13-.03.21-.18.17-.31-.04-.14-.17-.2-.31-.17-.63.13-1.21.45-1.65.92-.09.1-.1.26,0,.35s.26.1.35,0h0Z"/>
          <path class="cls-1" d="M206.51,65.83l1.34,2.16c.17.27.6.02.43-.25l-1.34-2.16c-.17-.27-.6-.02-.43.25h0Z"/>
          <path class="cls-1" d="M166.68,68.92h.04c-.08-.06-.16-.12-.24-.18l.02.05.03-.19-.02.04.28-.11c.05.11.07.11.06,0,0-.07-.01-.14-.02-.22-.01-.14-.03-.29-.04-.43-.03-.31-.06-.62-.1-.94-.06-.6-.13-1.2-.2-1.8-.14-1.22-.29-2.44-.46-3.66l-.49.07c.05.16.09.32.14.47.09.31.57.18.48-.13-.05-.16-.09-.32-.14-.47-.08-.26-.53-.22-.49.07.18,1.39.36,2.78.51,4.17.08.67.15,1.34.22,2.02.03.32.06.63.09.95.02.2.09.37.31.4.11.02.23,0,.28-.11.05-.1.07-.18.03-.28-.05-.11-.12-.17-.24-.18h-.04c-.32-.03-.32.47,0,.5h0Z"/>
          <path class="cls-1" d="M168.48,68.46c-.18-1.85-.36-3.7-.54-5.55l-.43.18c.79.75.97,2.04,1.27,3.03s.5,2.09,1.21,2.87c.15.17.42.03.43-.18.02-1.26,0-2.53-.08-3.79-.03-.61-.08-1.21-.13-1.81-.06-.65-.15-1.32-.05-1.97.05-.31-.43-.45-.48-.13-.2,1.23.08,2.53.15,3.77.08,1.31.1,2.63.09,3.94l.43-.18c-.37-.41-.55-.93-.71-1.45-.18-.59-.36-1.18-.54-1.77-.28-.94-.49-1.98-1.23-2.68-.14-.14-.45-.05-.43.18.18,1.85.36,3.7.54,5.55.03.32.53.32.5,0h0Z"/>
          <path class="cls-1" d="M172.28,62.99c.05,1.44.21,2.86.46,4.28l.42-.24c-.25-.26-.5-.53-.76-.78-.17-.16-.38-.31-.63-.29-.56.03-.72.74-.71,1.19,0,.53.23,1.06.68,1.35.42.27,1.01.29,1.42-.01.26-.19,0-.62-.25-.43-.63.47-1.3-.17-1.35-.82-.01-.2.02-.91.36-.72.15.08.27.26.39.38.16.17.33.34.49.51.19.19.46-.01.42-.24-.25-1.37-.4-2.75-.44-4.15-.01-.32-.51-.32-.5,0h0Z"/>
          <path class="cls-1" d="M174.13,66.61c.54-.22.95-.64,1.14-1.19s.02-1.33-.67-1.38c-.65-.04-.81.73-.86,1.23-.05.57.09,1.15.33,1.67.27.59.7,1.11,1.21,1.52.25.2.61-.15.35-.35-.82-.65-1.45-1.66-1.39-2.74.01-.23.04-.54.18-.73.16-.23.41.04.44.23.08.53-.4,1.09-.85,1.28-.13.05-.21.17-.17.31.03.12.18.23.31.17h0Z"/>
        </g>
        <path class="cls-1" d="M187.74,47.08c-3.35.08-6.71.22-10.04.59-1.89.21-3.8.48-5.62,1.04-3.13.95-5.4,3.17-7.07,5.96-2.2,3.67-3.32,8.46-2.77,12.72.39,2.96,1.86,5.64,4.55,7.08,2.52,1.35,5.42,1.43,8.21,1.64,6.75.51,13.52,1.06,20.29,1.18,4.34.08,8.85.07,13.09-1.03,2.91-.75,5.41-2.14,7.23-4.56,1.63-2.15,2.82-4.69,3.16-7.38.37-2.91-.38-5.8-1.96-8.26-1.28-1.99-3-3.67-4.9-5.08-1.22-.91-2.55-1.77-3.95-2.39-1.88-.82-3.9-1.2-5.93-1.41-2.89-.29-5.81-.27-8.71-.23-1.86.03-3.72.07-5.58.11-.32,0-.32.51,0,.5,3.41-.08,6.82-.18,10.23-.11,2.34.05,4.71.17,7,.69,3.37.76,6.42,2.74,8.88,5.12,1.85,1.79,3.39,3.97,4.1,6.48.86,3.05.31,6.25-1.1,9.04s-3.58,5.2-6.65,6.38c-3.52,1.35-7.45,1.56-11.18,1.63-5.8.11-11.62-.3-17.4-.7-3.35-.23-6.73-.38-10.07-.77-2.95-.35-5.88-1.45-7.5-4.1-1.45-2.38-1.6-5.32-1.29-8.02.19-1.7.56-3.39,1.13-5,1.21-3.38,3.5-6.99,6.91-8.51,1.29-.57,2.69-.89,4.07-1.14,2.49-.45,5.02-.64,7.55-.79,1.78-.1,3.55-.16,5.33-.21.32,0,.32-.51,0-.5Z"/>
      </g>
      <path class="cls-1" d="M83.04,64.37c8.27-3.08,16.86-5.27,25.6-6.47,11.78-1.62,23.82-1.42,35.53.61,5.49.95,10.91,2.3,16.22,4.01.61.2.88-.77.27-.96-10.43-3.37-21.32-5.3-32.28-5.66s-22.01.83-32.67,3.5c-4.38,1.1-8.69,2.44-12.92,4.02-.6.22-.34,1.19.27.96h0Z"/>
      <path class="cls-1" d="M156.74,56.2c.82,1.2,1.64,2.41,2.51,3.58.26.35.53.71.81,1.05.08.1.54.5.54.58,0,.1-.67.36-.81.42-.43.2-.87.4-1.3.6-1.41.64-2.82,1.28-4.23,1.91-.59.26-.08,1.13.5.86,1.95-.88,3.91-1.76,5.85-2.65.34-.16.68-.33.87-.66.27-.49.01-.97-.33-1.33-.4-.42-.75-.89-1.09-1.35-.84-1.15-1.65-2.32-2.45-3.5-.36-.53-1.23-.03-.86.5h0Z"/>
    </g>
  </g>
</svg>