<?xml version="1.0" encoding="UTF-8"?>
<svg id="Layer_2" data-name="Layer 2" xmlns="http://www.w3.org/2000/svg" viewBox="0 0 560.84 149.06">
  <defs>
    <style>
      .cls-1 {
        fill: #00a651;
      }

      .cls-2 {
        fill: #231f20;
      }

      .cls-3 {
        fill: #00aeef;
      }
    </style>
  </defs>
  <g id="Layer_1-2" data-name="Layer 1">
    <g>
      <path class="cls-3" d="M72.34,26.7l7.86,12.02,7.86,12.02,7.86,12.02c2.55,3.9,5.08,7.81,7.67,11.68s5.09,7.41,7.91,10.91c.36.44.72.89,1.09,1.33.21.25.56-.11.35-.35-2.9-3.48-5.55-7.16-8.09-10.91s-5.09-7.69-7.61-11.55l-7.83-11.97-7.83-11.97-7.86-12.02-.96-1.46c-.18-.27-.61-.02-.43.25h0Z"/>
      <path class="cls-3" d="M101.35,44.32c3.85,5.8,7.81,11.52,11.88,17.16s8.19,11.1,12.45,16.53c2.41,3.07,4.85,6.1,7.32,9.11.2.25.56-.11.35-.35-4.4-5.36-8.7-10.81-12.89-16.34s-8.19-11.05-12.12-16.7c-2.23-3.2-4.42-6.42-6.57-9.67-.18-.27-.61-.02-.43.25h0Z"/>
      <path class="cls-3" d="M125.16,46.46c3.76,5.9,7.77,11.64,12.03,17.19s8.8,10.98,13.55,16.17c2.68,2.93,5.42,5.79,8.23,8.59.23.23.58-.13.35-.35-4.99-4.97-9.78-10.15-14.33-15.52s-8.83-10.89-12.87-16.6c-2.26-3.19-4.43-6.43-6.53-9.73-.17-.27-.61-.02-.43.25h0Z"/>
      <path class="cls-3" d="M150.81,38.78c2.47,6.5,5.54,12.78,9.15,18.73,1.03,1.69,2.1,3.36,3.22,5,.18.26.61.01.43-.25-3.91-5.73-7.29-11.82-10.09-18.16-.79-1.79-1.53-3.61-2.23-5.44-.11-.3-.6-.17-.48.13h0Z"/>
      <path class="cls-3" d="M142.85,42.26c2.08,4.88,5.53,8.98,8.58,13.26s6.11,9.1,8.75,13.9c1.49,2.7,2.89,5.46,4.2,8.25.14.29.57.04.43-.25-2.33-4.97-4.95-9.81-7.84-14.48-1.45-2.33-2.96-4.63-4.54-6.87s-3.14-4.27-4.68-6.43c-1.71-2.4-3.31-4.9-4.47-7.63-.13-.3-.56-.04-.43.25h0Z"/>
      <path class="cls-3" d="M132.76,45.62c3.55,5.21,7.24,10.32,11.07,15.32s7.77,9.86,11.85,14.62c2.32,2.71,4.69,5.38,7.09,8.02.22.24.57-.12.35-.35-4.25-4.66-8.37-9.43-12.36-14.32s-7.8-9.83-11.5-14.91c-2.07-2.84-4.09-5.72-6.07-8.63-.18-.26-.61-.01-.43.25h0Z"/>
      <path class="cls-3" d="M115.02,45.62c3.32,5.76,6.71,11.48,10.16,17.17s6.97,11.33,10.56,16.94c2.01,3.15,4.04,6.28,6.1,9.4.18.27.61.02.43-.25-3.66-5.56-7.25-11.16-10.78-16.8s-6.99-11.32-10.38-17.04c-1.9-3.21-3.79-6.43-5.65-9.66-.16-.28-.59-.03-.43.25h0Z"/>
      <path class="cls-3" d="M86.1,36.56c1.61,3.55,3.36,7.03,5.23,10.45s3.89,6.82,5.97,10.15,4.26,6.59,6.48,9.83,4.52,6.45,6.84,9.63,4.67,6.35,7.02,9.51c.3.4.6.8.89,1.2.19.26.62,0,.43-.25-2.35-3.16-4.7-6.32-7.03-9.5s-4.65-6.41-6.91-9.66-4.43-6.49-6.54-9.8-4.12-6.65-6.02-10.06-3.69-6.87-5.33-10.4c-.21-.45-.41-.9-.62-1.35-.13-.29-.56-.04-.43.25h0Z"/>
      <path class="cls-3" d="M3.7,33.56c1.91,3.85,3.9,7.66,5.97,11.43s4.18,7.44,6.38,11.1,4.48,7.28,6.82,10.84,4.73,7.03,7.2,10.47,5,6.81,7.6,10.14c.33.42.65.83.98,1.25.2.25.55-.1.35-.35-2.63-3.32-5.18-6.7-7.67-10.13s-4.9-6.91-7.25-10.44-4.63-7.13-6.84-10.76-4.34-7.3-6.4-11.01-4.07-7.53-6-11.35c-.24-.48-.48-.96-.72-1.44-.14-.29-.57-.04-.43.25h0Z"/>
      <path class="cls-3" d="M2.27,47.23c2.78,5.66,5.75,11.23,8.91,16.69s6.51,10.82,10.03,16.06c1.99,2.96,4.04,5.88,6.14,8.76.19.26.62,0,.43-.25-3.72-5.1-7.27-10.33-10.64-15.67s-6.55-10.79-9.55-16.35c-1.69-3.13-3.32-6.3-4.89-9.5-.14-.29-.57-.04-.43.25h0Z"/>
      <path class="cls-3" d="M2.06,56.65c2.05,4.54,4.31,8.98,6.78,13.31s5.14,8.54,8.01,12.61c1.6,2.27,3.25,4.5,4.97,6.69.2.25.55-.1.35-.35-3.06-3.9-5.94-7.95-8.61-12.13s-5.15-8.45-7.42-12.84c-1.28-2.48-2.5-5-3.65-7.54-.13-.29-.56-.04-.43.25h0Z"/>
      <path class="cls-3" d="M4,70.05c-.07-.21-.26-.33-.47-.2-.19.12-.27.42-.23.63.07.34.27.69.4,1.01.15.37.31.74.47,1.11.63,1.47,1.31,2.93,2.03,4.37,1.43,2.86,3.02,5.64,4.76,8.32.97,1.49,1.99,2.94,3.06,4.36.09.12.28.18.39.05.36-.41.36-1.03-.03-1.43-.22-.23-.58.12-.35.35.18.19.2.52.03.72l.39.05c-3.44-4.58-6.38-9.53-8.8-14.72-.34-.74-.68-1.48-1-2.22-.17-.4-.34-.8-.51-1.2-.07-.18-.14-.35-.22-.53-.03-.08-.08-.18-.11-.26-.02-.04-.03-.08-.03-.12.04-.08.02-.1-.07-.05l-.18-.07-.03-.04c.1.31.58.18.48-.13h0Z"/>
      <path class="cls-3" d="M152.17,89.49c2.89-3.58,6-6.99,9.31-10.2.94-.92,1.91-1.81,2.88-2.7.24-.22-.12-.57-.35-.35-3.42,3.09-6.64,6.39-9.66,9.87-.86.99-1.71,2-2.53,3.03-.2.25.15.6.35.35h0Z"/>
      <path class="cls-3" d="M140.06,89.73c.62-2.01,2.49-3.35,3.99-4.69,1.73-1.55,3.43-3.13,5.1-4.74,3.33-3.21,6.54-6.54,9.63-9.98,1.74-1.94,3.45-3.92,5.11-5.94.2-.25-.15-.6-.35-.35-3,3.62-6.12,7.14-9.38,10.53s-6.6,6.64-10.08,9.78c-1.68,1.52-3.81,3-4.51,5.26-.1.31.39.44.48.13h0Z"/>
      <path class="cls-3" d="M132.33,87.22c1.04-2.54,2.81-4.68,4.75-6.59s4.19-3.77,6.27-5.66c4.54-4.13,8.87-8.48,12.97-13.05,2.3-2.56,4.53-5.18,6.69-7.87.2-.25-.15-.6-.35-.35-3.88,4.83-8,9.46-12.34,13.88-2.16,2.19-4.37,4.33-6.64,6.41-2.13,1.96-4.37,3.81-6.47,5.82s-4.2,4.44-5.36,7.27c-.12.3.36.43.48.13h0Z"/>
      <path class="cls-3" d="M120.25,86.52c5.69-5.21,11.31-10.51,16.85-15.88s11.01-10.83,16.4-16.36c3.03-3.11,6.04-6.25,9.02-9.41.22-.23-.13-.59-.35-.35-5.3,5.62-10.68,11.16-16.13,16.63s-10.99,10.85-16.6,16.15c-3.15,2.98-6.33,5.94-9.53,8.87-.24.22.12.57.35.35h0Z"/>
      <path class="cls-3" d="M104.52,87.48c3.63-3.12,7.26-6.25,10.87-9.39s7.19-6.26,10.77-9.4,7.19-6.32,10.77-9.5,7.12-6.33,10.67-9.51,7.12-6.4,10.66-9.61c.44-.4.88-.8,1.32-1.2.24-.22-.12-.57-.35-.35-3.54,3.21-7.09,6.42-10.65,9.61s-7.1,6.36-10.66,9.52-7.17,6.35-10.76,9.51-7.17,6.28-10.77,9.41-7.24,6.27-10.87,9.4c-.45.39-.9.78-1.36,1.17-.24.21.11.56.35.35h0Z"/>
      <path class="cls-3" d="M92.59,86.83c2.77-3.31,5.75-6.45,8.87-9.43s6.35-5.81,9.67-8.55,6.76-5.45,10.19-8.1,6.86-5.27,10.27-7.93c1.69-1.32,3.39-2.64,5.05-4s3.2-2.74,4.49-4.42c.31-.41.61-.83.88-1.27.17-.27-.26-.52-.43-.25-1.13,1.8-2.63,3.31-4.23,4.68s-3.31,2.7-4.99,4.02c-3.41,2.68-6.87,5.31-10.3,7.96s-6.78,5.25-10.1,7.97-6.6,5.53-9.74,8.48-6.14,6.02-8.95,9.27c-.35.4-.69.8-1.03,1.21-.21.25.15.6.35.35h0Z"/>
      <path class="cls-3" d="M73.45,87.68c3.08-2.97,6.29-5.79,9.58-8.51s6.67-5.34,10.08-7.92,6.84-5.1,10.26-7.64,6.84-5.1,10.21-7.72,6.69-5.33,9.9-8.16c.39-.34.78-.69,1.17-1.04.24-.22-.11-.57-.35-.35-3.19,2.85-6.48,5.58-9.84,8.23s-6.78,5.22-10.22,7.77-6.86,5.07-10.27,7.63-6.79,5.16-10.09,7.85-6.55,5.49-9.66,8.42c-.38.36-.76.72-1.13,1.08-.23.22.12.58.35.35h0Z"/>
      <path class="cls-3" d="M2.25,68.85c2.81-3.79,6.37-6.92,10.05-9.83s7.65-5.85,11.4-8.88,7.68-6.36,11.4-9.68,7.33-6.7,10.87-10.19,7-7.05,10.37-10.7c.42-.45.83-.9,1.24-1.36.22-.24-.14-.59-.35-.35-3.36,3.68-6.81,7.29-10.34,10.81s-7.16,6.95-10.86,10.29-7.49,6.59-11.35,9.75-7.68,6.03-11.54,9.03-7.33,5.89-10.3,9.53c-.35.44-.7.88-1.03,1.33-.19.26.24.51.43.25h0Z"/>
      <path class="cls-3" d="M5.12,53.66c2.9-2.74,5.99-5.28,9.17-7.68s6.5-4.73,9.8-7.02,6.58-4.54,9.81-6.9,6.33-4.77,9.3-7.4,5.73-5.41,8.21-8.46c.31-.38.62-.77.92-1.16.19-.25-.16-.61-.35-.35-2.41,3.11-5.13,5.98-8.04,8.63s-6.06,5.17-9.26,7.54-6.49,4.65-9.78,6.93-6.61,4.58-9.83,6.98-6.29,4.85-9.22,7.53c-.37.33-.73.67-1.09,1.01-.23.22.12.57.35.35h0Z"/>
      <path class="cls-3" d="M2.74,42.89c6.13-3.77,12.2-7.64,18.22-11.59s11.9-7.95,17.76-12.05c3.29-2.31,6.56-4.64,9.81-7,.26-.19,0-.62-.25-.43-5.82,4.23-11.7,8.36-17.65,12.41s-11.89,7.97-17.92,11.82c-3.39,2.16-6.8,4.3-10.22,6.41-.27.17-.02.6.25.43h0Z"/>
      <path class="cls-3" d="M4.68,29.65c1.25-1.87,3.24-3.03,5.2-4.03,2.28-1.16,4.58-2.28,6.86-3.45,4.73-2.45,9.39-5.02,13.98-7.71,2.58-1.51,5.14-3.06,7.67-4.64.27-.17.02-.6-.25-.43-4.56,2.85-9.2,5.59-13.9,8.2s-9.39,5-14.16,7.38c-2.2,1.1-4.43,2.35-5.83,4.44-.18.27.25.52.43.25h0Z"/>
      <path class="cls-3" d="M2.35,77.29c4.47-3.31,8.92-6.66,13.35-10.02s8.77-6.71,13.13-10.11,8.75-6.87,13.1-10.34,8.64-6.95,12.92-10.46,8.55-7.05,12.79-10.61c.53-.44,1.05-.88,1.58-1.33.25-.21-.11-.56-.35-.35-4.24,3.57-8.5,7.11-12.78,10.63s-8.58,7.01-12.91,10.48-8.64,6.88-12.99,10.29-8.75,6.8-13.16,10.16-8.84,6.7-13.28,10.01c-.55.41-1.1.82-1.66,1.23-.26.19,0,.62.25.43h0Z"/>
      <path class="cls-3" d="M5.25,83.84c4.67-3.48,9.34-6.96,14.01-10.45s9.31-6.94,13.96-10.41l13.96-10.41c4.65-3.47,9.31-6.94,13.96-10.41s8.87-6.57,13.61-9.4c.57-.34,1.15-.68,1.74-1.01.28-.16.03-.59-.25-.43-4.8,2.72-9.3,5.94-13.73,9.22s-9.22,6.87-13.82,10.3-9.31,6.94-13.96,10.41-9.34,6.96-14.01,10.45-9.34,6.96-14.01,10.45l-1.7,1.27c-.26.19,0,.62.25.43h0Z"/>
      <path class="cls-3" d="M10.62,87.94c4.67-3.67,9.35-7.32,14.06-10.93s9.4-7.19,14.14-10.74,9.45-7.05,14.21-10.54,9.53-6.95,14.32-10.38,9.64-6.86,14.49-10.25c.6-.42,1.2-.84,1.79-1.25.26-.18.01-.62-.25-.43-4.87,3.4-9.72,6.82-14.55,10.27s-9.61,6.9-14.39,10.4-9.57,7.04-14.32,10.6-9.45,7.12-14.15,10.72c-4.68,3.59-9.34,7.2-13.98,10.84-.57.45-1.15.9-1.72,1.35-.25.2.1.55.35.35h0Z"/>
      <path class="cls-3" d="M21.32,89.17c3.7-3.89,8.39-6.59,13-9.25,4.91-2.83,9.76-5.76,14.54-8.8s9.5-6.18,14.15-9.42,9.26-6.61,13.78-10.06,8.91-6.96,13.24-10.58c.53-.44,1.06-.89,1.59-1.34.25-.21-.11-.56-.35-.35-4.35,3.66-8.77,7.24-13.27,10.71s-9.08,6.85-13.73,10.12-9.34,6.43-14.11,9.49-9.64,6.04-14.56,8.9c-4.59,2.67-9.33,5.23-13.26,8.86-.48.44-.94.9-1.39,1.37-.22.23.13.59.35.35h0Z"/>
      <path class="cls-3" d="M35,87.25c4.47-2.9,8.95-5.8,13.42-8.7s8.95-5.8,13.42-8.7c4.29-2.78,8.58-5.55,12.85-8.35s8.31-5.54,12.37-8.45,7.96-5.89,11.74-9.08c.48-.4.95-.81,1.42-1.21.24-.21-.11-.56-.35-.35-3.78,3.26-7.71,6.32-11.74,9.26s-8.13,5.73-12.28,8.47-8.49,5.55-12.74,8.3l-13.37,8.67-13.31,8.63-1.68,1.09c-.27.17-.02.61.25.43h0Z"/>
      <path class="cls-3" d="M52.31,85.75c3.91-2.3,7.79-4.66,11.63-7.08s7.64-4.9,11.4-7.44,7.51-5.16,11.21-7.83,7.31-5.37,10.91-8.14,7.12-5.58,10.61-8.45c.43-.36.87-.72,1.3-1.07.25-.21-.11-.56-.35-.35-3.49,2.9-7.03,5.74-10.62,8.52s-7.21,5.51-10.87,8.18-7.35,5.26-11.08,7.8-7.54,5.05-11.37,7.49-7.66,4.79-11.55,7.1c-.48.29-.97.57-1.45.86-.28.16-.03.6.25.43h0Z"/>
      <path class="cls-3" d="M99.63,85.72c-3.13-4.04-5.98-8.28-8.58-12.67s-4.82-8.51-7.37-12.68c-1.27-2.09-2.6-4.15-4.03-6.13s-3.04-3.92-4.62-5.83-3.13-3.94-4.43-6.11-2.4-4.42-3.47-6.69c-2.27-4.83-4.5-9.68-6.75-14.53-.28-.6-.56-1.2-.84-1.8-.14-.29-.57-.04-.43.25,2.27,4.88,4.53,9.77,6.8,14.65,1.07,2.3,2.14,4.6,3.36,6.81s2.6,4.26,4.15,6.23,3.25,3.89,4.78,5.91,2.85,3.98,4.15,6.05c2.62,4.17,4.97,8.5,7.46,12.76s5.3,8.62,8.35,12.67c.37.49.74.98,1.12,1.46.2.25.55-.1.35-.35h0Z"/>
      <path class="cls-3" d="M85.98,85.17c-2.98-4.75-5.93-9.52-8.86-14.31s-5.81-9.6-8.67-14.42-5.67-9.63-8.45-14.47-5.56-9.74-8.3-14.63-5.44-9.8-8.11-14.73c-.33-.6-.66-1.21-.98-1.82-.15-.28-.58-.03-.43.25,2.66,4.93,5.36,9.85,8.08,14.75s5.48,9.78,8.27,14.64,5.59,9.68,8.43,14.49,5.73,9.64,8.65,14.43,5.86,9.57,8.83,14.33c.37.58.73,1.17,1.1,1.75.17.27.6.02.43-.25h0Z"/>
      <path class="cls-3" d="M74.58,84.13c-4.21-4-7.49-8.83-10.43-13.81-1.51-2.55-2.94-5.14-4.39-7.73-1.57-2.82-3.14-5.64-4.69-8.48-2.96-5.45-5.74-10.98-8.41-16.57-2.39-5.01-4.83-10.04-8.05-14.58-1.57-2.22-3.33-4.31-5.31-6.18-1.87-1.78-3.94-3.47-5.27-5.72-.32-.55-.59-1.12-.79-1.72-.1-.3-.59-.17-.48.13.84,2.47,2.67,4.36,4.53,6.11.98.92,1.97,1.81,2.9,2.78s1.87,2.06,2.73,3.15c3.44,4.41,6.01,9.41,8.43,14.43,1.24,2.58,2.45,5.17,3.72,7.74,1.44,2.91,2.94,5.79,4.48,8.65,2.98,5.56,6.03,11.08,9.18,16.54,2.87,4.98,5.98,9.88,9.96,14.07.5.53,1.02,1.04,1.54,1.54.23.22.59-.13.35-.35h0Z"/>
      <path class="cls-3" d="M18.88,11.16c1.14,5.4,3.61,10.4,6.63,14.99s6.74,9.04,10.33,13.38,7.37,9,10.45,13.95c3.28,5.26,6.03,10.83,8.9,16.33,2.88,5.51,5.9,10.98,9.68,15.93.45.59.91,1.17,1.38,1.74.2.25.56-.11.35-.35-3.94-4.81-7.07-10.19-9.98-15.67s-5.61-11.06-8.78-16.39c-1.52-2.56-3.15-5.04-4.92-7.43-1.67-2.26-3.43-4.45-5.22-6.63-3.6-4.39-7.32-8.7-10.57-13.36s-5.85-9.36-7.3-14.68c-.18-.65-.33-1.3-.47-1.95-.07-.31-.55-.18-.48.13h0Z"/>
      <path class="cls-3" d="M10.99,15.97c2.53,4.76,5.1,9.49,7.71,14.21s5.25,9.41,7.93,14.08,5.4,9.32,8.16,13.95,5.53,9.2,8.35,13.77,5.7,9.14,8.61,13.68c.36.56.72,1.12,1.08,1.67.17.27.61.02.43-.25-2.91-4.53-5.79-9.09-8.63-13.66s-5.65-9.18-8.41-13.8-5.5-9.27-8.19-13.94-5.33-9.32-7.93-14.01-5.19-9.44-7.73-14.19c-.31-.59-.62-1.17-.94-1.76-.15-.28-.58-.03-.43.25h0Z"/>
      <path class="cls-3" d="M6.27,21.71l7.54,14.5,7.57,14.55c2.28,4.38,4.54,8.78,6.92,13.11s4.73,8.36,7.39,12.35,5.55,7.8,8.78,11.32c.4.43.8.86,1.2,1.28.22.23.58-.12.35-.35-3.32-3.46-6.3-7.23-9.02-11.18s-5.16-8.05-7.48-12.22-4.61-8.58-6.85-12.89l-7.52-14.44-7.54-14.5-.92-1.77c-.15-.29-.58-.03-.43.25h0Z"/>
      <path class="cls-3" d="M162.25,32.79c-.97,15.45,3.05,30.64,3,46.06,0,2.17-.09,4.33-.29,6.49-.1,1.07-.22,2.14-.38,3.2-.07.5-.32,1.19-.18,1.68.09.31.31.49.54.69l-.29-.71c-.15,1.21,1.4,1.53,2.15.86.89-.79.36-2.14-.71-2.44-.51-.14-1.01-.06-1.52.01-.7.1-1.4.2-2.11.29-1.36.17-2.73.29-4.1.33-2.8.08-5.59-.12-8.38-.29s-5.55-.32-8.32-.46c-11.22-.56-22.46-.86-33.7-1.01-11.24-.15-22.48-.15-33.72-.11-11.23.04-22.46.11-33.69.17-11.18.06-22.35.12-33.53.17l-4.22.02.71,1.71c.35-.29.42-.62.44-1.07.02-.62,0-1.25.01-1.87l.02-3.49.04-7.11.09-14.22c.06-9.48.12-18.97.18-28.45l.05-7.86.02-3.99c0-.36,0-.46.14-.81l.25-.68-.26.44c3.95-3.63,8.47-6.72,13.51-8.63s10.92-2.68,16.53-2.14c11.74,1.12,22.47,7.01,32.16,13.37,9.72,6.38,19.06,13.55,29.81,18.17,10.01,4.3,21.01,6.01,31.86,5.04,10.85-.97,21.47-4.51,30.57-10.54,1.27-.84,2.51-1.73,3.73-2.65.43-.33.65-.86.36-1.37-.25-.42-.94-.69-1.37-.36-6.04,4.58-12.76,8.1-20.02,10.32s-14.3,3.08-21.6,2.82-14.56-1.77-21.34-4.5c-7.33-2.95-14.03-7.23-20.56-11.62s-13.15-9.15-20.2-12.93-14.64-6.75-22.63-7.66-15.37.52-22.21,4.1c-3.25,1.7-6.26,3.86-9.01,6.28-.57.5-1.09.91-1.36,1.63-.23.62-.35,1.05-.35,1.73l-.04,6.74c-.06,8.98-.11,17.97-.17,26.95s-.11,17.97-.17,26.95l-.04,6.61.29-.71-.14.12c-.69.57-.1,1.71.71,1.71,10.68-.06,21.36-.11,32.03-.17,10.61-.05,21.21-.11,31.82-.16,10.7-.05,21.4-.09,32.1-.01,10.66.07,21.31.26,31.97.64,5.35.19,10.69.43,16.03.73s10.48.81,15.71.16c.64-.08,1.28-.17,1.93-.26.26-.04.51-.08.77-.11.09,0,.21.01.29-.02.35-.12-.32.8-.2-.39l.14-.5c.07-.15.47-.23.57-.19l.44.26-.04-.05.26.44c.07.24,0-.1,0-.16-.05-.17-.15-.33-.27-.45-.08-.09-.18-.16-.27-.24l.26.97c2.51-14.94-.9-29.88-1.95-44.78-.3-4.21-.4-8.43-.13-12.64.08-1.29-1.92-1.28-2,0h0Z"/>
    </g>
    <g>
      <g>
        <path class="cls-1" d="M178.84,17c2.51.07,5.01.3,7.48.69.31.05.45-.43.13-.48-2.52-.4-5.06-.64-7.61-.71-.32,0-.32.49,0,.5h0Z"/>
        <path class="cls-1" d="M173.37,24.59c2.2-.37,4.43-.49,6.66-.37,1.12.06,2.24.19,3.34.38.54.09,1.09.2,1.63.33.36.08.85.38,1.2.15.29-.18.2-.54-.06-.71-.28-.18-.57.01-.5.33s.55.18.48-.13c-.28.09-.37.16-.25.22.06.06.04.02-.07-.14-.05-.05-.19-.07-.27-.09-.25-.08-.5-.13-.76-.19-.54-.12-1.08-.22-1.63-.31-1.09-.18-2.2-.29-3.3-.35-2.21-.11-4.43.03-6.62.4-.32.05-.18.54.13.48h0Z"/>
        <path class="cls-1" d="M166.97,31.48l14.3.64,4.1.18c.32.01.32-.49,0-.5l-14.3-.64-4.1-.18c-.32-.01-.32.49,0,.5h0Z"/>
        <path class="cls-1" d="M162.9,40.11c7.51-.07,15.01.06,22.51.41.35.02,1.92.29,1.89-.41-.02-.46-1.01-.52-.9.04.06.32.54.18.48-.13v-.03c-.01.06-.02.13-.03.19-.06.14-.18.05-.05.07h.02c.11.05.12-.03,0-.23-.08-.03-.31.04-.4.04-.42,0-.83-.04-1.25-.06-.79-.04-1.57-.07-2.36-.1-1.61-.06-3.23-.12-4.85-.16-3.19-.09-6.39-.14-9.58-.15-1.83,0-3.65,0-5.48.02-.32,0-.32.5,0,.5h0Z"/>
        <path class="cls-1" d="M162.78,45c1.5.39,3.06.33,4.6.31,1.62-.02,3.25-.03,4.87-.05,3.29-.03,6.58-.07,9.87-.1,1.87-.02,3.75-.04,5.62-.06.32,0,.32-.5,0-.5-6.54.07-13.08.13-19.62.2-1.73.02-3.53.16-5.21-.29-.31-.08-.44.4-.13.48h0Z"/>
        <path class="cls-1" d="M164.72,54.62c7.1.3,14.21.6,21.31.9.49.02.98.05,1.47.06.31,0,.65-.03.87-.27.35-.37.15-1.21-.45-1.09-.32.06-.18.55.13.48-.06.01-.03-.02-.01.05.01.05.02.11,0,.16-.05.12-.22.14-.33.15-.36.04-.76-.02-1.12-.04l-2.36-.1-4.72-.2-9.44-.4-5.34-.23c-.32-.01-.32.49,0,.5h0Z"/>
        <path class="cls-1" d="M165.1,62.04c6.05.28,12.11.34,18.17.19,1.7-.04,3.4-.1,5.1-.18.32-.01.32-.51,0-.5-6.05.27-12.11.33-18.17.17-1.7-.04-3.4-.11-5.1-.18-.32-.01-.32.49,0,.5h0Z"/>
        <path class="cls-1" d="M165.84,68.29c5.77.1,11.53.19,17.3.29l4.85.08c.32,0,.32-.49,0-.5-5.77-.1-11.53-.19-17.3-.29l-4.85-.08c-.32,0-.32.49,0,.5h0Z"/>
        <path class="cls-1" d="M165.34,74.15c5.89-.22,11.79-.29,17.69-.21,1.68.02,3.35.06,5.03.1l-.07-.49c-.29.08-.58.17-.87.25-.31.09-.18.57.13.48.29-.08.58-.17.87-.25.27-.08.22-.48-.07-.49-5.89-.16-11.79-.18-17.69-.04-1.68.04-3.35.09-5.02.15-.32.01-.32.51,0,.5h0Z"/>
        <path class="cls-1" d="M166.96,79.93c5.36-.24,10.72-.22,16.08.05,1.52.08,3.05.18,4.57.29.32.02.32-.48,0-.5-5.35-.41-10.71-.58-16.07-.48-1.53.03-3.05.07-4.58.14-.32.01-.32.51,0,.5h0Z"/>
        <path class="cls-1" d="M165.45,85.57c5.92.28,11.84.56,17.77.84l5.05.24v-.5c-.47.02-.93.04-1.4.06-.32.01-.32.51,0,.5.47-.02.93-.04,1.4-.06.32-.01.32-.48,0-.5-5.92-.28-11.84-.56-17.77-.84l-5.05-.24c-.32-.02-.32.48,0,.5h0Z"/>
        <path class="cls-1" d="M170.51,90.5c-.27-7.78-.53-15.56-.8-23.34l-.8-23.34-.45-13.11c-.01-.32-.51-.32-.5,0l.8,23.34.8,23.34.45,13.11c.01.32.51.32.5,0h0Z"/>
        <path class="cls-1" d="M173.9,24.24c.15,4.28.26,8.56.35,12.84s.14,8.51.17,12.77.06,8.55.09,12.83.06,8.56.08,12.83.06,8.51.08,12.77v1.62c.01.32.51.32.51,0-.03-4.28-.06-8.56-.08-12.83s-.06-8.51-.08-12.77-.06-8.55-.08-12.83-.07-8.55-.15-12.83-.19-8.52-.33-12.78c-.02-.54-.04-1.08-.05-1.62-.01-.32-.51-.32-.5,0h0Z"/>
        <path class="cls-1" d="M178.73,89.74c-.17-4.57-.25-9.15-.59-13.7-.17-2.28-.48-4.56-.68-6.84s-.26-4.57-.25-6.86c0-4.59.12-9.18.19-13.77s.14-9.21.2-13.81.14-9.21.2-13.81c0-.58.02-1.17.03-1.75,0-.32-.5-.32-.5,0-.07,4.6-.14,9.21-.2,13.81s-.14,9.25-.2,13.87-.15,9.19-.2,13.79c-.02,2.27-.02,4.54.12,6.8s.44,4.56.66,6.84c.44,4.54.5,9.12.67,13.68l.07,1.75c.01.32.51.32.5,0h0Z"/>
        <path class="cls-1" d="M181.47,14.47c.26-.18.17-.55-.13-.63-.49-.13-.42.57-.44.85-.08,1.25-.13,2.5-.17,3.76-.08,2.51-.07,5.01,0,7.52s.24,5.05.47,7.56.57,4.96.81,7.44.3,4.99.18,7.49-.39,5.01-.6,7.52c-.43,5.06-.37,10.11-.19,15.17s.35,10.11.53,15.17l.07,1.87c.01.32.51.32.5,0-.17-4.85-.34-9.7-.51-14.55s-.38-9.68-.12-14.51,1.01-9.64.87-14.49c-.06-2.39-.34-4.76-.61-7.14s-.52-4.77-.68-7.16c-.32-4.8-.36-9.61-.12-14.41.01-.29.03-.57.05-.86,0-.14.02-.29.03-.43,0-.06.01-.39,0-.37l-.18.07-.08-.16.11-.15-.03.02c-.26.18-.01.62.25.43h0Z"/>
        <path class="cls-1" d="M182.98,12.16c0,5.16.13,10.33.34,15.49s.49,10.28.76,15.42.55,10.27.75,15.42.33,10.31.31,15.47c-.01,2.56-.06,5.12-.15,7.67-.05,1.27-.11,2.53-.17,3.8-.05,1.11-.06,2.23.17,3.32.11.53.29,1.04.53,1.53.14.29.57.04.43-.25-1.03-2.11-.62-4.66-.52-6.92.11-2.56.17-5.11.2-7.67.05-5.12-.05-10.24-.24-15.35s-.45-10.24-.72-15.35-.56-10.24-.78-15.36-.38-10.2-.41-15.3c0-.64,0-1.28,0-1.92,0-.32-.5-.32-.5,0h0Z"/>
        <path class="cls-1" d="M164.53,50.86c2.9-.48,5.84-.13,8.75.02,1.43.08,2.87.11,4.3-.03s2.8-.47,4.19-.75c.82-.16,1.64-.3,2.48-.35.38-.02.77-.02,1.15,0,.21.01.42.04.62.07.1.02.19.03.29.05.05.01.55.15.47-.04l.03.19v-.03s-.07.1-.11.15l.04-.02c.27-.17.02-.6-.25-.43-.5.32.27.9.54.45.12-.19.02-.44-.14-.57-.26-.22-.7-.24-1.02-.28-1.71-.22-3.43.14-5.09.49s-3.46.64-5.24.64-3.54-.15-5.31-.25c-1.94-.11-3.89-.13-5.81.18-.32.05-.18.53.13.48h0Z"/>
      </g>
      <path class="cls-1" d="M162.84,32.12c.05,7.99.19,15.97.43,23.95s.5,15.24.59,22.86c.05,4.06.06,8.12.03,12.17,0,.55.46.98,1,1,8.03.26,16.05.52,24.08.78.63.02,1.16-.66.96-1.27-.46-1.39-.46-2.71-.52-4.25-.08-2.11-.06-4.23-.04-6.35s.08-4.14.09-6.21c0-1.42.02-2.86-.19-4.27-1.04-7-.92-14.09-1-21.14s-.15-14.23-.23-21.35c-.04-4-.09-7.99-.13-11.99-.02-2-.04-4-.06-5.99-.01-1-.02-2-.03-3,0-.75-.26-1.05-.75-1.53s-1.19-.31-1.57.2c-5.34,7.07-10.82,14.11-17.31,20.17-1.8,1.68-3.66,3.28-5.62,4.77-.43.33-.65.86-.36,1.37.25.42.94.69,1.37.36,7.24-5.52,13.29-12.34,18.89-19.47,1.61-2.05,3.19-4.12,4.75-6.19l-1.57.2.45.44-.29-.71c.15,13.98.3,27.97.45,41.95.07,6.9-.1,13.87.83,20.73.06.45.12.89.19,1.34.02.14.04.28.07.42.03.21-.02-.2,0-.05.03.27.05.53.06.8.04.73.05,1.46.05,2.18,0,1.96-.04,3.92-.07,5.88-.04,2.36-.07,4.72,0,7.08.06,1.68.07,3.51.6,5.12l.96-1.27c-8.03-.26-16.05-.52-24.08-.78l1,1c.05-7.81-.04-15.62-.25-23.42-.19-7.05-.47-14.1-.61-21.15-.1-4.8-.16-9.61-.19-14.41,0-1.29-2.01-1.29-2,0h0Z"/>
    </g>
    <g>
      <g>
        <path class="cls-3" d="M326.19,29.57l7.86,12.02,7.86,12.02c2.62,4.01,5.24,8.01,7.86,12.02s5.08,7.81,7.67,11.68,5.09,7.41,7.91,10.91c.36.44.72.89,1.09,1.33.21.25.56-.11.35-.35-2.9-3.48-5.55-7.16-8.09-10.91s-5.09-7.69-7.61-11.55c-2.61-3.99-5.22-7.98-7.83-11.97s-5.22-7.98-7.83-11.97-5.24-8.01-7.86-12.02l-.96-1.46c-.18-.27-.61-.02-.43.25h0Z"/>
        <path class="cls-3" d="M355.2,47.19c3.85,5.8,7.81,11.52,11.88,17.16s8.19,11.1,12.45,16.53c2.41,3.07,4.85,6.1,7.32,9.11.2.25.56-.11.35-.35-4.4-5.36-8.7-10.81-12.89-16.34s-8.19-11.05-12.12-16.7c-2.23-3.2-4.42-6.42-6.57-9.67-.18-.27-.61-.02-.43.25h0Z"/>
        <path class="cls-3" d="M379.01,49.34c3.76,5.9,7.77,11.64,12.03,17.19s8.8,10.98,13.55,16.17c2.68,2.93,5.42,5.79,8.23,8.59.23.23.58-.13.35-.35-4.99-4.97-9.78-10.15-14.33-15.52s-8.83-10.89-12.87-16.6c-2.26-3.19-4.43-6.43-6.53-9.73-.17-.27-.61-.02-.43.25h0Z"/>
        <path class="cls-3" d="M404.66,41.66c2.47,6.5,5.54,12.78,9.15,18.73,1.03,1.69,2.1,3.36,3.22,5,.18.26.61.01.43-.25-3.91-5.73-7.29-11.82-10.09-18.16-.79-1.79-1.53-3.61-2.23-5.44-.11-.3-.6-.17-.48.13h0Z"/>
        <path class="cls-3" d="M396.69,45.14c2.08,4.88,5.53,8.98,8.58,13.26s6.11,9.1,8.75,13.9c1.49,2.7,2.89,5.46,4.2,8.25.14.29.57.04.43-.25-2.33-4.97-4.95-9.81-7.84-14.48-1.45-2.33-2.96-4.63-4.54-6.87s-3.14-4.27-4.68-6.43c-1.71-2.4-3.31-4.9-4.47-7.63-.13-.3-.56-.04-.43.25h0Z"/>
        <path class="cls-3" d="M386.61,48.49c3.55,5.21,7.24,10.32,11.07,15.32s7.77,9.86,11.85,14.62c2.32,2.71,4.69,5.38,7.09,8.02.22.24.57-.12.35-.35-4.25-4.66-8.37-9.43-12.36-14.32-3.97-4.86-7.8-9.83-11.5-14.91-2.07-2.84-4.09-5.72-6.07-8.63-.18-.26-.61-.01-.43.25h0Z"/>
        <path class="cls-3" d="M368.87,48.49c3.32,5.76,6.71,11.48,10.16,17.17s6.97,11.33,10.56,16.94c2.01,3.15,4.04,6.28,6.1,9.4.18.27.61.02.43-.25-3.66-5.56-7.25-11.16-10.78-16.8s-6.99-11.32-10.38-17.04c-1.9-3.21-3.79-6.43-5.65-9.66-.16-.28-.59-.03-.43.25h0Z"/>
        <path class="cls-3" d="M339.95,39.44c1.61,3.55,3.36,7.03,5.23,10.45s3.89,6.82,5.97,10.15,4.26,6.59,6.48,9.83,4.52,6.45,6.84,9.63,4.67,6.35,7.02,9.51c.3.4.6.8.89,1.2.19.26.62,0,.43-.25-2.35-3.16-4.7-6.32-7.03-9.5-2.34-3.19-4.65-6.41-6.91-9.66s-4.43-6.49-6.54-9.8-4.12-6.65-6.02-10.06-3.69-6.87-5.33-10.4c-.21-.45-.41-.9-.62-1.35-.13-.29-.56-.04-.43.25h0Z"/>
        <path class="cls-3" d="M257.55,36.43c1.91,3.85,3.9,7.66,5.97,11.43s4.18,7.44,6.38,11.1,4.48,7.28,6.82,10.84,4.73,7.03,7.2,10.47,5,6.81,7.6,10.14c.33.42.65.83.98,1.25.2.25.55-.1.35-.35-2.63-3.32-5.18-6.7-7.67-10.13s-4.9-6.91-7.25-10.44-4.63-7.13-6.84-10.76-4.34-7.3-6.4-11.01-4.07-7.53-6-11.35c-.24-.48-.48-.96-.72-1.44-.14-.29-.57-.04-.43.25h0Z"/>
        <path class="cls-3" d="M256.11,50.1c2.78,5.66,5.75,11.23,8.91,16.69s6.51,10.82,10.03,16.06c1.99,2.96,4.04,5.88,6.14,8.76.19.26.62,0,.43-.25-3.72-5.1-7.27-10.33-10.64-15.67s-6.55-10.79-9.55-16.35c-1.69-3.13-3.32-6.3-4.89-9.5-.14-.29-.57-.04-.43.25h0Z"/>
        <path class="cls-3" d="M255.91,59.53c2.05,4.54,4.31,8.98,6.78,13.31s5.14,8.54,8.01,12.61c1.6,2.27,3.25,4.5,4.97,6.69.2.25.55-.1.35-.35-3.06-3.9-5.94-7.95-8.61-12.13s-5.15-8.45-7.42-12.84c-1.28-2.48-2.5-5-3.65-7.54-.13-.29-.56-.04-.43.25h0Z"/>
        <path class="cls-3" d="M257.84,72.92c-.07-.21-.26-.33-.47-.2-.19.12-.27.42-.23.63.07.34.27.69.4,1.01.15.37.31.74.47,1.11.63,1.47,1.31,2.93,2.03,4.37,1.43,2.86,3.02,5.64,4.76,8.32.97,1.49,1.99,2.94,3.06,4.36.09.12.28.18.39.05.36-.41.36-1.03-.03-1.43-.22-.23-.58.12-.35.35.18.19.2.52.03.72l.39.05c-3.44-4.58-6.38-9.53-8.8-14.72-.34-.74-.68-1.48-1-2.22-.17-.4-.34-.8-.51-1.2-.07-.18-.14-.35-.22-.53-.03-.08-.08-.18-.11-.26-.02-.04-.03-.08-.03-.12.04-.08.02-.1-.07-.05l-.18-.07-.03-.04c.1.31.58.18.48-.13h0Z"/>
        <path class="cls-3" d="M406.02,92.36c2.89-3.58,6-6.99,9.31-10.2.94-.92,1.91-1.81,2.88-2.7.24-.22-.12-.57-.35-.35-3.42,3.09-6.64,6.39-9.66,9.87-.86.99-1.71,2-2.53,3.03-.2.25.15.6.35.35h0Z"/>
        <path class="cls-3" d="M393.91,92.6c.62-2.01,2.49-3.35,3.99-4.69,1.73-1.55,3.43-3.13,5.1-4.74,3.33-3.21,6.54-6.54,9.63-9.98,1.74-1.94,3.45-3.92,5.11-5.94.2-.25-.15-.6-.35-.35-3,3.62-6.12,7.14-9.38,10.53s-6.6,6.64-10.08,9.78c-1.68,1.52-3.81,3-4.51,5.26-.1.31.39.44.48.13h0Z"/>
        <path class="cls-3" d="M386.18,90.09c1.04-2.54,2.81-4.68,4.75-6.59s4.19-3.77,6.27-5.66c4.54-4.13,8.87-8.48,12.97-13.05,2.3-2.56,4.53-5.18,6.69-7.87.2-.25-.15-.6-.35-.35-3.88,4.83-8,9.46-12.34,13.88-2.16,2.19-4.37,4.33-6.64,6.41-2.13,1.96-4.37,3.81-6.47,5.82s-4.2,4.44-5.36,7.27c-.12.3.36.43.48.13h0Z"/>
        <path class="cls-3" d="M374.1,89.4c5.69-5.21,11.31-10.51,16.85-15.88s11.01-10.83,16.4-16.36c3.03-3.11,6.04-6.25,9.02-9.41.22-.23-.13-.59-.35-.35-5.3,5.62-10.68,11.16-16.13,16.63s-10.99,10.85-16.6,16.15c-3.15,2.98-6.33,5.94-9.53,8.87-.24.22.12.57.35.35h0Z"/>
        <path class="cls-3" d="M358.36,90.36c3.63-3.12,7.26-6.25,10.87-9.39s7.19-6.26,10.77-9.4,7.19-6.32,10.77-9.5,7.12-6.33,10.67-9.51,7.12-6.4,10.66-9.61c.44-.4.88-.8,1.32-1.2.24-.22-.12-.57-.35-.35-3.54,3.21-7.09,6.42-10.65,9.61s-7.1,6.36-10.66,9.52-7.17,6.35-10.76,9.51-7.17,6.28-10.77,9.41-7.24,6.27-10.87,9.4c-.45.39-.9.78-1.36,1.17-.24.21.11.56.35.35h0Z"/>
        <path class="cls-3" d="M346.44,89.71c2.77-3.31,5.75-6.45,8.87-9.43s6.35-5.81,9.67-8.55,6.76-5.45,10.19-8.1,6.86-5.27,10.27-7.93c1.69-1.32,3.39-2.64,5.05-4s3.2-2.74,4.49-4.42c.31-.41.61-.83.88-1.27.17-.27-.26-.52-.43-.25-1.13,1.8-2.63,3.31-4.23,4.68s-3.31,2.7-4.99,4.02c-3.41,2.68-6.87,5.31-10.3,7.96s-6.78,5.25-10.1,7.97-6.6,5.53-9.74,8.48-6.14,6.02-8.95,9.27c-.35.4-.69.8-1.03,1.21-.21.25.15.6.35.35h0Z"/>
        <path class="cls-3" d="M327.3,90.56c3.08-2.97,6.29-5.79,9.58-8.51s6.67-5.34,10.08-7.92,6.84-5.1,10.26-7.64,6.84-5.1,10.21-7.72,6.69-5.33,9.9-8.16c.39-.34.78-.69,1.17-1.04.24-.22-.11-.57-.35-.35-3.19,2.85-6.48,5.58-9.84,8.23s-6.78,5.22-10.22,7.77-6.86,5.07-10.27,7.63-6.79,5.16-10.09,7.85-6.55,5.49-9.66,8.42c-.38.36-.76.72-1.13,1.08-.23.22.12.58.35.35h0Z"/>
        <path class="cls-3" d="M256.1,71.72c2.81-3.79,6.37-6.92,10.05-9.83s7.65-5.85,11.4-8.88,7.68-6.36,11.4-9.68,7.33-6.7,10.87-10.19,7-7.05,10.37-10.7c.42-.45.83-.9,1.24-1.36.22-.24-.14-.59-.35-.35-3.36,3.68-6.81,7.29-10.34,10.81s-7.16,6.95-10.86,10.29-7.49,6.59-11.35,9.75-7.68,6.03-11.54,9.03-7.33,5.89-10.3,9.53c-.35.44-.7.88-1.03,1.33-.19.26.24.51.43.25h0Z"/>
        <path class="cls-3" d="M258.96,56.53c2.9-2.74,5.99-5.28,9.17-7.68s6.5-4.73,9.8-7.02,6.58-4.54,9.81-6.9,6.33-4.77,9.3-7.4,5.73-5.41,8.21-8.46c.31-.38.62-.77.92-1.16.19-.25-.16-.61-.35-.35-2.41,3.11-5.13,5.98-8.04,8.63s-6.06,5.17-9.26,7.54-6.49,4.65-9.78,6.93-6.61,4.58-9.83,6.98-6.29,4.85-9.22,7.53c-.37.33-.73.67-1.09,1.01-.23.22.12.57.35.35h0Z"/>
        <path class="cls-3" d="M256.59,45.77c6.13-3.77,12.2-7.64,18.22-11.59s11.9-7.95,17.76-12.05c3.29-2.31,6.56-4.64,9.81-7,.26-.19,0-.62-.25-.43-5.82,4.23-11.7,8.36-17.65,12.41s-11.89,7.97-17.92,11.82c-3.39,2.16-6.8,4.3-10.22,6.41-.27.17-.02.6.25.43h0Z"/>
        <path class="cls-3" d="M258.53,32.53c1.25-1.87,3.24-3.03,5.2-4.03,2.28-1.16,4.58-2.28,6.86-3.45,4.73-2.45,9.39-5.02,13.98-7.71,2.58-1.51,5.14-3.06,7.67-4.64.27-.17.02-.6-.25-.43-4.56,2.85-9.2,5.59-13.9,8.2s-9.39,5-14.16,7.38c-2.2,1.1-4.43,2.35-5.83,4.44-.18.27.25.52.43.25h0Z"/>
        <path class="cls-3" d="M256.2,80.17c4.47-3.31,8.92-6.66,13.35-10.02s8.77-6.71,13.13-10.11,8.75-6.87,13.1-10.34,8.64-6.95,12.92-10.46,8.55-7.05,12.79-10.61c.53-.44,1.05-.88,1.58-1.33.25-.21-.11-.56-.35-.35-4.24,3.57-8.5,7.11-12.78,10.63s-8.58,7.01-12.91,10.48-8.64,6.88-12.99,10.29-8.75,6.8-13.16,10.16-8.84,6.7-13.28,10.01c-.55.41-1.1.82-1.66,1.23-.26.19,0,.62.25.43h0Z"/>
        <path class="cls-3" d="M259.09,86.72c4.67-3.48,9.34-6.96,14.01-10.45s9.31-6.94,13.96-10.41,9.31-6.94,13.96-10.41,9.31-6.94,13.96-10.41,8.87-6.57,13.61-9.4c.57-.34,1.15-.68,1.74-1.01.28-.16.03-.59-.25-.43-4.8,2.72-9.3,5.94-13.73,9.22s-9.22,6.87-13.82,10.3-9.31,6.94-13.96,10.41-9.34,6.96-14.01,10.45l-14.01,10.45-1.7,1.27c-.26.19,0,.62.25.43h0Z"/>
        <path class="cls-3" d="M264.47,90.81c4.67-3.67,9.35-7.32,14.06-10.93,4.69-3.61,9.4-7.19,14.14-10.74s9.45-7.05,14.21-10.54,9.53-6.95,14.32-10.38,9.64-6.86,14.49-10.25c.6-.42,1.2-.84,1.79-1.25.26-.18.01-.62-.25-.43-4.87,3.4-9.72,6.82-14.55,10.27s-9.61,6.9-14.39,10.4-9.57,7.04-14.32,10.6c-4.74,3.55-9.45,7.12-14.15,10.72s-9.34,7.2-13.98,10.84c-.57.45-1.15.9-1.72,1.35-.25.2.1.55.35.35h0Z"/>
        <path class="cls-3" d="M275.17,92.05c3.7-3.89,8.39-6.59,13-9.25,4.91-2.83,9.76-5.76,14.54-8.8,4.78-3.04,9.5-6.18,14.15-9.42s9.26-6.61,13.78-10.06,8.91-6.96,13.24-10.58c.53-.44,1.06-.89,1.59-1.34.25-.21-.11-.56-.35-.35-4.35,3.66-8.77,7.24-13.27,10.71s-9.08,6.85-13.73,10.12-9.34,6.43-14.11,9.49-9.64,6.04-14.56,8.9c-4.59,2.67-9.33,5.23-13.26,8.86-.48.44-.94.9-1.39,1.37-.22.23.13.59.35.35h0Z"/>
        <path class="cls-3" d="M288.84,90.13c4.47-2.9,8.95-5.8,13.42-8.7l13.42-8.7c4.29-2.78,8.58-5.55,12.85-8.35s8.31-5.54,12.37-8.45,7.96-5.89,11.74-9.08c.48-.4.95-.81,1.42-1.21.24-.21-.11-.56-.35-.35-3.78,3.26-7.71,6.32-11.74,9.26s-8.13,5.73-12.28,8.47-8.49,5.55-12.74,8.3-8.91,5.78-13.37,8.67l-13.31,8.63-1.68,1.09c-.27.17-.02.61.25.43h0Z"/>
        <path class="cls-3" d="M306.16,88.62c3.91-2.3,7.79-4.66,11.63-7.08,3.84-2.42,7.64-4.9,11.4-7.44s7.51-5.16,11.21-7.83,7.31-5.37,10.91-8.14,7.12-5.58,10.61-8.45c.43-.36.87-.72,1.3-1.07.25-.21-.11-.56-.35-.35-3.49,2.9-7.03,5.74-10.62,8.52s-7.21,5.51-10.87,8.18-7.35,5.26-11.08,7.8-7.54,5.05-11.37,7.49-7.66,4.79-11.55,7.1c-.48.29-.97.57-1.45.86-.28.16-.03.6.25.43h0Z"/>
        <path class="cls-3" d="M353.48,88.6c-3.13-4.04-5.98-8.28-8.58-12.67s-4.82-8.51-7.37-12.68c-1.27-2.09-2.6-4.15-4.03-6.13s-3.04-3.92-4.62-5.83-3.13-3.94-4.43-6.11-2.4-4.42-3.47-6.69c-2.27-4.83-4.5-9.68-6.75-14.53-.28-.6-.56-1.2-.84-1.8-.14-.29-.57-.04-.43.25,2.27,4.88,4.53,9.77,6.8,14.65,1.07,2.3,2.14,4.6,3.36,6.81s2.6,4.26,4.15,6.23,3.25,3.89,4.78,5.91,2.85,3.98,4.15,6.05c2.62,4.17,4.97,8.5,7.46,12.76s5.3,8.62,8.35,12.67c.37.49.74.98,1.12,1.46.2.25.55-.1.35-.35h0Z"/>
        <path class="cls-3" d="M339.82,88.04c-2.98-4.75-5.93-9.52-8.86-14.31s-5.81-9.6-8.67-14.42-5.67-9.63-8.45-14.47-5.56-9.74-8.3-14.63-5.44-9.8-8.11-14.73c-.33-.6-.66-1.21-.98-1.82-.15-.28-.58-.03-.43.25,2.66,4.93,5.36,9.85,8.08,14.75s5.48,9.78,8.27,14.64,5.59,9.68,8.43,14.49c2.85,4.83,5.73,9.64,8.65,14.43s5.86,9.57,8.83,14.33c.37.58.73,1.17,1.1,1.75.17.27.6.02.43-.25h0Z"/>
        <path class="cls-3" d="M328.43,87c-4.21-4-7.49-8.83-10.43-13.81-1.51-2.55-2.94-5.14-4.39-7.73-1.57-2.82-3.14-5.64-4.69-8.48-2.96-5.45-5.74-10.98-8.41-16.57-2.39-5.01-4.83-10.04-8.05-14.58-1.57-2.22-3.33-4.31-5.31-6.18-1.87-1.78-3.94-3.47-5.27-5.72-.32-.55-.59-1.12-.79-1.72-.1-.3-.59-.17-.48.13.84,2.47,2.67,4.36,4.53,6.11.98.92,1.97,1.81,2.9,2.78s1.87,2.06,2.73,3.15c3.44,4.41,6.01,9.41,8.43,14.43,1.24,2.58,2.45,5.17,3.72,7.74,1.44,2.91,2.94,5.79,4.48,8.65,2.98,5.56,6.03,11.08,9.18,16.54,2.87,4.98,5.98,9.88,9.96,14.07.5.53,1.02,1.04,1.54,1.54.23.22.59-.13.35-.35h0Z"/>
        <path class="cls-3" d="M272.73,14.04c1.14,5.4,3.61,10.4,6.63,14.99s6.74,9.04,10.33,13.38,7.37,9,10.45,13.95c3.28,5.26,6.03,10.83,8.9,16.33s5.9,10.98,9.68,15.93c.45.59.91,1.17,1.38,1.74.2.25.56-.11.35-.35-3.94-4.81-7.07-10.19-9.98-15.67s-5.61-11.06-8.78-16.39c-1.52-2.56-3.15-5.04-4.92-7.43-1.67-2.26-3.43-4.45-5.22-6.63-3.6-4.39-7.32-8.7-10.57-13.36s-5.85-9.36-7.3-14.68c-.18-.65-.33-1.3-.47-1.95-.07-.31-.55-.18-.48.13h0Z"/>
        <path class="cls-3" d="M264.84,18.84c2.53,4.76,5.1,9.49,7.71,14.21s5.25,9.41,7.93,14.08,5.4,9.32,8.16,13.95,5.53,9.2,8.35,13.77c2.83,4.58,5.7,9.14,8.61,13.68.36.56.72,1.12,1.08,1.67.17.27.61.02.43-.25-2.91-4.53-5.79-9.09-8.63-13.66s-5.65-9.18-8.41-13.8-5.5-9.27-8.19-13.94-5.33-9.32-7.93-14.01-5.19-9.44-7.73-14.19c-.31-.59-.62-1.17-.94-1.76-.15-.28-.58-.03-.43.25h0Z"/>
        <path class="cls-3" d="M260.11,24.59c2.51,4.83,5.03,9.66,7.54,14.5l7.57,14.55c2.28,4.38,4.54,8.78,6.92,13.11s4.73,8.36,7.39,12.35,5.55,7.8,8.78,11.32c.4.43.8.86,1.2,1.28.22.23.58-.12.35-.35-3.32-3.46-6.3-7.23-9.02-11.18s-5.16-8.05-7.48-12.22-4.61-8.58-6.85-12.89l-7.52-14.44-7.54-14.5-.92-1.77c-.15-.29-.58-.03-.43.25h0Z"/>
      </g>
      <path class="cls-3" d="M416.1,35.66c-.97,15.45,3.05,30.64,3,46.06,0,2.17-.09,4.33-.29,6.49-.1,1.07-.22,2.14-.38,3.2-.07.5-.32,1.19-.18,1.68.09.31.31.49.54.69l-.29-.71c-.15,1.21,1.4,1.53,2.15.86.89-.79.36-2.14-.71-2.44-.51-.14-1.01-.06-1.52.01-.7.1-1.4.2-2.11.29-1.36.17-2.73.29-4.1.33-2.8.08-5.59-.12-8.38-.29s-5.55-.32-8.32-.46c-11.22-.56-22.46-.86-33.7-1.01-11.24-.15-22.48-.15-33.72-.11-11.23.04-22.46.11-33.69.17s-22.35.12-33.53.17l-4.22.02.71,1.71c.35-.29.42-.62.44-1.07.02-.62,0-1.25.01-1.87l.02-3.49.04-7.11.09-14.22.18-28.45.05-7.86.02-3.99c0-.36,0-.46.14-.81l.25-.68-.26.44c3.95-3.63,8.47-6.72,13.51-8.63s10.92-2.68,16.53-2.14c11.74,1.12,22.47,7.01,32.16,13.37s19.06,13.55,29.81,18.17c10.01,4.3,21.01,6.01,31.86,5.04s21.47-4.51,30.57-10.54c1.27-.84,2.51-1.73,3.73-2.65.43-.33.65-.86.36-1.37-.25-.42-.94-.69-1.37-.36-6.04,4.58-12.76,8.1-20.02,10.32s-14.3,3.08-21.6,2.82-14.56-1.77-21.34-4.5c-7.33-2.95-14.03-7.23-20.56-11.62s-13.15-9.15-20.2-12.93-14.64-6.75-22.63-7.66-15.37.52-22.21,4.1c-3.25,1.7-6.26,3.86-9.01,6.28-.57.5-1.09.91-1.36,1.63-.23.62-.35,1.05-.35,1.73l-.04,6.74-.17,26.95c-.06,8.98-.11,17.97-.17,26.95l-.04,6.61.29-.71-.14.12c-.69.57-.1,1.71.71,1.71,10.68-.06,21.36-.11,32.03-.17,10.61-.05,21.21-.11,31.82-.16,10.7-.05,21.4-.09,32.1-.01,10.66.07,21.31.26,31.97.64,5.35.19,10.69.43,16.03.73s10.48.81,15.71.16c.64-.08,1.28-.17,1.93-.26.26-.04.51-.08.77-.11.09,0,.21.01.29-.02.35-.12-.32.8-.2-.39l.14-.5c.07-.15.47-.23.57-.19l.44.26-.04-.05.26.44c.07.24,0-.1,0-.16-.05-.17-.15-.33-.27-.45-.08-.09-.18-.16-.27-.24l.26.97c2.51-14.94-.9-29.88-1.95-44.78-.3-4.21-.4-8.43-.13-12.64.08-1.29-1.92-1.28-2,0h0Z"/>
    </g>
    <g>
      <g>
        <path class="cls-1" d="M520.21,12.26c2.51.07,5.01.3,7.48.69.31.05.45-.43.13-.48-2.52-.4-5.06-.64-7.61-.71-.32,0-.32.49,0,.5h0Z"/>
        <path class="cls-1" d="M514.74,19.85c2.2-.37,4.43-.49,6.66-.37,1.12.06,2.24.19,3.34.38.54.09,1.09.2,1.63.33.36.08.85.38,1.2.15.29-.18.2-.54-.06-.71-.28-.18-.57.01-.5.33s.55.18.48-.13c-.28.09-.37.16-.25.22.06.06.04.02-.07-.14-.05-.05-.19-.07-.27-.09-.25-.08-.5-.13-.76-.19-.54-.12-1.08-.22-1.63-.31-1.09-.18-2.2-.29-3.3-.35-2.21-.11-4.43.03-6.62.4-.32.05-.18.54.13.48h0Z"/>
        <path class="cls-1" d="M508.34,26.74c4.77.21,9.54.42,14.3.64l4.1.18c.32.01.32-.49,0-.5l-14.3-.64-4.1-.18c-.32-.01-.32.49,0,.5h0Z"/>
        <path class="cls-1" d="M504.28,35.37c7.51-.07,15.01.06,22.51.41.35.02,1.92.29,1.89-.41-.02-.46-1.01-.52-.9.04.06.32.54.18.48-.13v-.03c-.01.06-.02.13-.03.19-.06.14-.18.05-.05.07h.02c.11.05.12-.03,0-.23-.08-.03-.31.04-.4.04-.42,0-.83-.04-1.25-.06-.79-.04-1.57-.07-2.36-.1-1.61-.06-3.23-.12-4.85-.16-3.19-.09-6.39-.14-9.58-.15-1.83,0-3.65,0-5.48.02-.32,0-.32.5,0,.5h0Z"/>
        <path class="cls-1" d="M504.15,40.26c1.5.39,3.06.33,4.6.31,1.62-.02,3.25-.03,4.87-.05,3.29-.03,6.58-.07,9.87-.1,1.87-.02,3.75-.04,5.62-.06.32,0,.32-.5,0-.5-6.54.07-13.08.13-19.62.2-1.73.02-3.53.16-5.21-.29-.31-.08-.44.4-.13.48h0Z"/>
        <path class="cls-1" d="M506.1,49.88c7.1.3,14.21.6,21.31.9.49.02.98.05,1.47.06.31,0,.65-.03.87-.27.35-.37.15-1.21-.45-1.09-.32.06-.18.55.13.48-.06.01-.03-.02-.01.05.01.05.02.11,0,.16-.05.12-.22.14-.33.15-.36.04-.76-.02-1.12-.04l-2.36-.1-4.72-.2-9.44-.4-5.34-.23c-.32-.01-.32.49,0,.5h0Z"/>
        <path class="cls-1" d="M506.47,57.3c6.05.28,12.11.34,18.17.19,1.7-.04,3.4-.1,5.1-.18.32-.01.32-.51,0-.5-6.05.27-12.11.33-18.17.17-1.7-.04-3.4-.11-5.1-.18-.32-.01-.32.49,0,.5h0Z"/>
        <path class="cls-1" d="M507.22,63.55c5.77.1,11.53.19,17.3.29l4.85.08c.32,0,.32-.49,0-.5-5.77-.1-11.53-.19-17.3-.29l-4.85-.08c-.32,0-.32.49,0,.5h0Z"/>
        <path class="cls-1" d="M506.72,69.41c5.89-.22,11.79-.29,17.69-.21,1.68.02,3.35.06,5.03.1l-.07-.49c-.29.08-.58.17-.87.25-.31.09-.18.57.13.48.29-.08.58-.17.87-.25.27-.08.22-.48-.07-.49-5.89-.16-11.79-.18-17.69-.04-1.68.04-3.35.09-5.02.15-.32.01-.32.51,0,.5h0Z"/>
        <path class="cls-1" d="M508.34,75.19c5.36-.24,10.72-.22,16.08.05,1.52.08,3.05.18,4.57.29.32.02.32-.48,0-.5-5.35-.41-10.71-.58-16.07-.48-1.53.03-3.05.07-4.58.14-.32.01-.32.51,0,.5h0Z"/>
        <path class="cls-1" d="M506.83,80.83l17.77.84,5.05.24v-.5c-.47.02-.93.04-1.4.06-.32.01-.32.51,0,.5.47-.02.93-.04,1.4-.06.32-.01.32-.48,0-.5l-17.77-.84-5.05-.24c-.32-.02-.32.48,0,.5h0Z"/>
        <path class="cls-1" d="M511.88,85.76c-.27-7.78-.53-15.56-.8-23.34-.27-7.78-.53-15.56-.8-23.34-.15-4.37-.3-8.74-.45-13.11-.01-.32-.51-.32-.5,0,.27,7.78.53,15.56.8,23.34.27,7.78.53,15.56.8,23.34.15,4.37.3,8.74.45,13.11.01.32.51.32.5,0h0Z"/>
        <path class="cls-1" d="M515.28,19.5c.15,4.28.26,8.56.35,12.84s.14,8.51.17,12.77.06,8.55.09,12.83.06,8.56.08,12.83.06,8.51.08,12.77v1.62c.01.32.51.32.51,0-.03-4.28-.06-8.56-.08-12.83s-.06-8.51-.08-12.77-.06-8.55-.08-12.83-.07-8.55-.15-12.83-.19-8.52-.33-12.78c-.02-.54-.04-1.08-.05-1.62-.01-.32-.51-.32-.5,0h0Z"/>
        <path class="cls-1" d="M520.1,85c-.17-4.57-.25-9.15-.59-13.7-.17-2.28-.48-4.56-.68-6.84s-.26-4.57-.25-6.86c0-4.59.12-9.18.19-13.77s.14-9.21.2-13.81.14-9.21.2-13.81c0-.58.02-1.17.03-1.75,0-.32-.5-.32-.5,0-.07,4.6-.14,9.21-.2,13.81s-.14,9.25-.2,13.87-.15,9.19-.2,13.79c-.02,2.27-.02,4.54.12,6.8s.44,4.56.66,6.84c.44,4.54.5,9.12.67,13.68l.07,1.75c.01.32.51.32.5,0h0Z"/>
        <path class="cls-1" d="M522.84,9.73c.26-.18.17-.55-.13-.63-.49-.13-.42.57-.44.85-.08,1.25-.13,2.5-.17,3.76-.08,2.51-.07,5.01,0,7.52s.24,5.05.47,7.56.57,4.96.81,7.44.3,4.99.18,7.49-.39,5.01-.6,7.52c-.43,5.06-.37,10.11-.19,15.17s.35,10.11.53,15.17l.07,1.87c.01.32.51.32.5,0-.17-4.85-.34-9.7-.51-14.55s-.38-9.68-.12-14.51,1.01-9.64.87-14.49c-.06-2.39-.34-4.76-.61-7.14s-.52-4.77-.68-7.16c-.32-4.8-.36-9.61-.12-14.41.01-.29.03-.57.05-.86,0-.14.02-.29.03-.43,0-.06.01-.39,0-.37l-.18.07-.08-.16.11-.15-.03.02c-.26.18-.01.62.25.43h0Z"/>
        <path class="cls-1" d="M524.36,7.42c0,5.16.13,10.33.34,15.49s.49,10.28.76,15.42.55,10.27.75,15.42.33,10.31.31,15.47c-.01,2.56-.06,5.12-.15,7.67-.05,1.27-.11,2.53-.17,3.8-.05,1.11-.06,2.23.17,3.32.11.53.29,1.04.53,1.53.14.29.57.04.43-.25-1.03-2.11-.62-4.66-.52-6.92.11-2.56.17-5.11.2-7.67.05-5.12-.05-10.24-.24-15.35-.18-5.12-.45-10.24-.72-15.35s-.56-10.24-.78-15.36-.38-10.2-.41-15.3c0-.64,0-1.28,0-1.92,0-.32-.5-.32-.5,0h0Z"/>
        <path class="cls-1" d="M505.9,46.12c2.9-.48,5.84-.13,8.75.02,1.43.08,2.87.11,4.3-.03s2.8-.47,4.19-.75c.82-.16,1.64-.3,2.48-.35.38-.02.77-.02,1.15,0,.21.01.42.04.62.07.1.02.19.03.29.05.05.01.55.15.47-.04l.03.19v-.03s-.07.1-.11.15l.04-.02c.27-.17.02-.6-.25-.43-.5.32.27.9.54.45.12-.19.02-.44-.14-.57-.26-.22-.7-.24-1.02-.28-1.71-.22-3.43.14-5.09.49s-3.46.64-5.24.64-3.54-.15-5.31-.25c-1.94-.11-3.89-.13-5.81.18-.32.05-.18.53.13.48h0Z"/>
      </g>
      <path class="cls-1" d="M504.21,27.38c.05,7.99.19,15.97.43,23.95.23,7.62.5,15.24.59,22.86.05,4.06.06,8.12.03,12.17,0,.55.46.98,1,1,8.03.26,16.05.52,24.08.78.63.02,1.16-.66.96-1.27-.46-1.39-.46-2.71-.52-4.25-.08-2.11-.06-4.23-.04-6.35s.08-4.14.09-6.21c0-1.42.02-2.86-.19-4.27-1.04-7-.92-14.09-1-21.14s-.15-14.23-.23-21.35c-.04-4-.09-7.99-.13-11.99-.02-2-.04-4-.06-5.99-.01-1-.02-2-.03-3,0-.75-.26-1.05-.75-1.53s-1.19-.31-1.57.2c-5.34,7.07-10.82,14.11-17.31,20.17-1.8,1.68-3.66,3.28-5.62,4.77-.43.33-.65.86-.36,1.37.25.42.94.69,1.37.36,7.24-5.52,13.29-12.34,18.89-19.47,1.61-2.05,3.19-4.12,4.75-6.19l-1.57.2.45.44-.29-.71c.15,13.98.3,27.97.45,41.95.07,6.9-.1,13.87.83,20.73.06.45.12.89.19,1.34.02.14.04.28.07.42.03.21-.02-.2,0-.05.03.27.05.53.06.8.04.73.05,1.46.05,2.18,0,1.96-.04,3.92-.07,5.88-.04,2.36-.07,4.72,0,7.08.06,1.68.07,3.51.6,5.12l.96-1.27c-8.03-.26-16.05-.52-24.08-.78l1,1c.05-7.81-.04-15.62-.25-23.42-.19-7.05-.47-14.1-.61-21.15-.1-4.8-.16-9.61-.19-14.41,0-1.29-2.01-1.29-2,0h0Z"/>
    </g>
    <path class="cls-2" d="M211.1,53.88l8.48-.03h4.12c.7-.02,1.42.02,2.12-.02.24-.01.07.02-.07-.02.05.02.5.12.22.04-.11-.05-.12-.06-.02,0,.1.06.09.05-.02-.04-.32-.67-1.02.1-.22-1.72-.42.96-.31,2.19.72,2.74.86.46,2.29.31,2.74-.72s.47-1.99-.24-2.91c-.51-.66-1.31-1.07-2.11-1.25-.85-.19-1.75-.12-2.62-.11h-2.62c-3.49.02-6.99.03-10.48.04-1.05,0-2.05.92-2,2s.88,2,2,2h0Z"/>
    <path class="cls-2" d="M448.93,56.84c2.82-.47,5.39-.81,8.25-1.09,1.39-.13,2.78-.25,4.17-.34.72-.05,1.44-.11,2.15-.12.03,0,.38.01.39,0-.01.04-.26-.06-.28-.08-.82-.5-.49-1.48.19-1.96-.86.6-1.34,1.78-.72,2.74.55.85,1.82,1.36,2.74.72,2.02-1.41,1.51-4.47-.84-5.23-.89-.29-1.85-.18-2.77-.12s-1.88.12-2.82.19c-3.86.31-7.7.79-11.52,1.43-1.03.17-1.71,1.51-1.4,2.46.36,1.12,1.35,1.58,2.46,1.4h0Z"/>
    <path class="cls-2" d="M449.94,68.32c5.25-1.04,10.51-2.08,15.76-3.12,1.03-.2,1.71-1.48,1.4-2.46-.35-1.09-1.36-1.61-2.46-1.4-5.25,1.04-10.51,2.08-15.76,3.12-1.03.2-1.71,1.48-1.4,2.46.35,1.09,1.36,1.61,2.46,1.4h0Z"/>
    <g>
      <path class="cls-2" d="M46.85,137.97c2.51-9.62,5.98-18.98,10.38-27.89.56-1.14,1.14-2.27,1.73-3.39.47-.89.88-2.07,1.69-2.71.11-.08.25-.07.13-.13.15.07.28.49.35.63.25.51.48,1.03.71,1.56.44,1.03.84,2.08,1.22,3.14,1.55,4.39,2.59,8.93,3.76,13.43,1.32,5.03,2.84,10.05,5.34,14.65.62,1.13,2.34.12,1.73-1.01-4.68-8.61-5.7-18.55-8.93-27.7-.42-1.19-.88-2.36-1.38-3.52-.43-.99-.84-2.42-1.87-2.95-2.44-1.26-3.98,2.67-4.78,4.21-2.41,4.64-4.58,9.41-6.5,14.28-2.17,5.5-4,11.14-5.49,16.86-.33,1.25,1.6,1.78,1.93.53h0Z"/>
      <path class="cls-2" d="M51.54,122.66c6.09-1.43,12.45-1.68,18.64-.69.53.09,1.08-.14,1.23-.7.13-.48-.16-1.14-.7-1.23-6.55-1.05-13.23-.83-19.7.69-1.25.29-.72,2.22.53,1.93h0Z"/>
      <path class="cls-2" d="M84.62,100.93c-2.39,6.22-4.18,12.66-5.32,19.22-.57,3.26-1.17,6.63-1.02,9.95.14,3.06,1.09,6.01,2.95,8.45,1.98,2.59,4.91,4.64,8.28,4.62,1.29,0,1.29-2.01,0-2-2.66.02-5-1.64-6.59-3.67-1.72-2.19-2.57-4.87-2.66-7.64-.1-3.14.46-6.33,1-9.41s1.2-5.99,2-8.94c.92-3.4,2.02-6.76,3.28-10.05.19-.5-.21-1.1-.7-1.23-.56-.15-1.04.19-1.23.7h0Z"/>
      <path class="cls-2" d="M90.02,114.83c3.47,8.47,8.44,16.25,14.71,22.92.88.94,2.3-.48,1.41-1.41-6.02-6.41-10.86-13.91-14.2-22.04-.2-.5-.66-.85-1.23-.7-.47.13-.9.73-.7,1.23h0Z"/>
      <path class="cls-2" d="M103.05,113.83c-2.83,7.75-6.78,15.07-11.66,21.72-.32.44-.07,1.12.36,1.37.51.3,1.05.08,1.37-.36,4.99-6.79,8.97-14.28,11.87-22.19.44-1.21-1.49-1.73-1.93-.53h0Z"/>
      <path class="cls-2" d="M109.79,123.62c5.42-.66,10.88-.85,16.33-.55,1.29.07,1.28-1.93,0-2-5.45-.3-10.91-.12-16.33.55-.54.07-1,.41-1,1,0,.49.46,1.07,1,1h0Z"/>
      <path class="cls-2" d="M118.59,113.92c-1.2,5.95-1.17,12.07.11,18,.27,1.26,2.2.73,1.93-.53-1.2-5.57-1.24-11.36-.11-16.94.25-1.26-1.67-1.79-1.93-.53h0Z"/>
      <path class="cls-2" d="M131.42,104.59c-1.02,9.51-1.03,19.12-.04,28.64.11,1.06,1.65,1.43,1.96.27,1.11-4.09,2.48-8.11,4.15-12.01.24-.56.54-1.57,1.14-1.87.48-.24.65.58.74.92.51,1.99.79,4.08,1.04,6.12.3,2.43.46,4.88.51,7.34.02,1.07,1.29,1.26,1.86.5.18-.23.35-.46.53-.69.33-.43.07-1.12-.36-1.37-.51-.3-1.04-.07-1.37.36-.18.23-.35.46-.53.69l1.86.5c-.05-2.49-.22-4.98-.52-7.46-.15-1.25-.33-2.49-.55-3.73-.19-1.08-.32-2.24-.69-3.28-.32-.9-.91-1.7-1.88-1.92s-1.9.31-2.51,1.07c-.69.86-1.05,1.92-1.47,2.92-.47,1.14-.92,2.28-1.35,3.43-.97,2.61-1.81,5.25-2.53,7.94l1.96.27c-.99-9.52-.98-19.12.04-28.64.06-.54-.5-1-1-1-.59,0-.94.46-1,1h0Z"/>
      <path class="cls-2" d="M142.13,103.97c3.16,4.68,4.87,10.09,6.11,15.55.63,2.77,1.18,5.57,1.67,8.37s.89,5.91-.3,8.56c-.96,2.15-3.22,4.3-5.76,3.91-.53-.08-1.08.13-1.23.7-.13.47.16,1.15.7,1.23,2.78.42,5.3-.93,6.97-3.12,1.87-2.44,2.25-5.57,1.99-8.56-.27-3.16-.99-6.3-1.63-9.4s-1.35-6.05-2.34-8.99c-1.1-3.26-2.53-6.41-4.46-9.27-.72-1.06-2.45-.06-1.73,1.01h0Z"/>
    </g>
    <g>
      <path class="cls-2" d="M314.55,137.22c2.19-8.19,5.61-16.01,10.13-23.18.57-.9,1.16-1.8,1.76-2.68.55-.81,1.09-1.67,1.81-2.34.46-.43,1.14-.83,1.69-.33s.68,1.35.82,2.02c.97,4.58,1.76,9.21,2.49,13.83.83,5.24,1.54,10.5,2.13,15.77.06.54.42,1,1,1,.49,0,1.06-.46,1-1-1.12-10.07-2.62-20.13-4.68-30.05-.36-1.75-1.23-3.76-3.31-3.81-2.22-.06-3.6,2.32-4.69,3.9-2.56,3.74-4.83,7.68-6.76,11.78-2.21,4.68-4,9.55-5.34,14.55-.33,1.24,1.6,1.78,1.93.53h0Z"/>
      <path class="cls-2" d="M319.77,124.2c5.02.46,10,1.26,14.91,2.4,1.25.29,1.79-1.64.53-1.93-5.09-1.18-10.25-2-15.45-2.47-.54-.05-1,.49-1,1,0,.58.46.95,1,1h0Z"/>
      <path class="cls-2" d="M350.02,108.69c-2.73,5.05-5.55,10.25-6.57,15.97-.88,4.92-.41,10.34,2.36,14.62.75,1.16,1.7,2.55,3.05,3.04s2.98-.39,3.07-1.91c.07-1.29-1.93-1.28-2,0,0-.13.03-.01-.08.03-.15.05-.23.03-.38-.02-.48-.17-.87-.72-1.18-1.1-.63-.78-1.16-1.64-1.6-2.54-.91-1.86-1.42-3.94-1.58-6-.37-4.68.92-9.26,2.8-13.51,1.15-2.59,2.49-5.08,3.84-7.56.61-1.13-1.11-2.14-1.73-1.01h0Z"/>
      <path class="cls-2" d="M357.24,117.24c4.01,6.34,8.02,12.68,12.03,19.01.69,1.08,2.42.08,1.73-1.01-4.01-6.34-8.02-12.68-12.03-19.01-.69-1.08-2.42-.08-1.73,1.01h0Z"/>
      <path class="cls-2" d="M365.82,116.57c-3.4,6.56-6.79,13.12-10.19,19.68-.59,1.14,1.13,2.15,1.73,1.01,3.4-6.56,6.79-13.12,10.19-19.68.59-1.14-1.13-2.15-1.73-1.01h0Z"/>
      <path class="cls-2" d="M369.88,112.01c2.04,4.59,3.42,9.5,4.09,14.48.53,3.96.96,8.44-.59,12.24-.67,1.64-1.83,3.1-3.54,3.7-1.21.42-.69,2.35.53,1.93,4.01-1.39,5.53-5.58,5.93-9.47.24-2.33.07-4.7-.17-7.02-.29-2.72-.76-5.41-1.44-8.06-.77-3.02-1.82-5.95-3.08-8.8-.22-.49-.94-.61-1.37-.36-.51.3-.58.87-.36,1.37h0Z"/>
    </g>
    <path class="cls-2" d="M216.64,126.84c6.44-.04,12.88-.05,19.31-.05,1.05,0,2.05-.92,2-2s-.88-2-2-2c-6.44,0-12.88.01-19.31.05-1.05,0-2.05.92-2,2s.88,2.01,2,2h0Z"/>
    <g>
      <path class="cls-2" d="M490.23,121.79c.98-5.26,3-10.28,5.98-14.73.68-1.01,2.84-4.87,4.17-2.67.47.78.64,1.71.74,2.6.17,1.56.34,3.12.51,4.68.37,3.45.74,6.9,1.12,10.35.06.54.42,1,1,1,.53,0,1.02-.46,1-1-.03-.71-.06-1.41-.08-2.12-.05-1.28-2.05-1.29-2,0,.03.71.06,1.41.08,2.12h2c-.37-3.45-.74-6.9-1.12-10.35-.18-1.67-.34-3.34-.54-5-.13-1.13-.38-2.3-.98-3.29s-1.58-1.72-2.77-1.7c-1.52.04-2.56,1.23-3.41,2.35-1.79,2.34-3.31,4.88-4.54,7.56-1.42,3.09-2.46,6.33-3.08,9.67-.23,1.26,1.69,1.8,1.93.53h0Z"/>
      <path class="cls-2" d="M492.95,112.77c4.08.08,8.12.56,12.1,1.46,1.25.28,1.79-1.64.53-1.93-4.15-.94-8.38-1.46-12.63-1.54-1.29-.02-1.29,1.98,0,2h0Z"/>
      <path class="cls-2" d="M513.65,101.74c-2.39,3.03-4.09,6.56-4.86,10.36-.66,3.25-1.19,7.96,1.65,10.39,1.45,1.24,3.45,1.72,5.19.81,1.14-.59.13-2.32-1.01-1.73-1.41.73-3.01-.4-3.66-1.63-.9-1.69-.73-3.86-.51-5.69.48-4.01,2.11-7.92,4.61-11.09.33-.42.41-1,0-1.41-.35-.35-1.08-.43-1.41,0h0Z"/>
      <path class="cls-2" d="M518.45,106.39l5.03,9.04c.81,1.45,1.54,2.99,2.44,4.38.64.98,2.27,2.02,3.22.8.33-.42.41-1,0-1.41-.35-.35-1.08-.43-1.41,0-.05.08-.11.14-.19.19l.44-.26c-.22.09,0-.02.04.03-.05-.04-.11-.06-.15-.12-.14-.17-.26-.29-.37-.48-.35-.61-.69-1.23-1.03-1.85l-2.12-3.81-4.18-7.51c-.63-1.13-2.35-.12-1.73,1.01h0Z"/>
      <path class="cls-2" d="M526.21,106.97c-3.71,4.09-7.43,8.18-11.14,12.26l1.57,1.21c.29-.38.58-.75.86-1.13.33-.43.07-1.12-.36-1.37-.52-.3-1.04-.07-1.37.36-.29.38-.58.75-.86,1.13-.69.9.81,2.04,1.57,1.21,3.71-4.09,7.43-8.18,11.14-12.26.86-.95-.55-2.37-1.41-1.41h0Z"/>
      <path class="cls-2" d="M531.51,112.65c3.27.47,6.57.6,9.87.31.54-.05,1-.43,1-1,0-.51-.46-1.05-1-1-3.11.26-6.25.2-9.34-.24-.53-.08-1.07.13-1.23.7-.13.47.16,1.15.7,1.23h0Z"/>
      <path class="cls-2" d="M535.32,105.7v11.26c0,1.29,2,1.29,2,0v-11.26c0-1.29-2-1.29-2,0h0Z"/>
      <path class="cls-2" d="M557.23,101.43c1.16,4.3,1.71,8.74,1.6,13.2-.06,2.57-.15,7.16-3.29,7.99-1.24.33-.72,2.26.53,1.93,3.85-1.01,4.58-5.61,4.73-8.97.22-4.94-.35-9.91-1.64-14.67-.34-1.24-2.27-.71-1.93.53h0Z"/>
      <path class="cls-2" d="M514.91,147.54c1.56-4.53,3.29-9,5.2-13.39.48-1.1.96-2.2,1.47-3.28.12-.26.31-.88.61-1.01-.1.05-.1-.04,0,.07.13.15.22.33.31.51,1.03,2.06,1.82,4.28,2.56,6.46.86,2.52,1.57,5.08,2.15,7.68.15.65.93.89,1.47.6,1.27-.68,1.54-2.66.38-3.59-.42-.33-1-.41-1.41,0-.35.35-.43,1.08,0,1.41.17.13.25.32.03.45l1.47.6c-.58-2.6-1.29-5.16-2.15-7.68-.43-1.26-.89-2.51-1.39-3.74-.47-1.16-.89-2.43-1.53-3.5-.59-.99-1.71-1.6-2.82-1.02-1.03.54-1.43,1.86-1.88,2.84-1.1,2.45-2.15,4.92-3.15,7.41-1.15,2.86-2.22,5.74-3.22,8.65-.42,1.22,1.51,1.74,1.93.53h0Z"/>
      <path class="cls-2" d="M518.56,138.74c3.17.75,6.44.78,9.62.09.53-.11.84-.73.7-1.23-.15-.55-.7-.81-1.23-.7-2.82.61-5.75.57-8.56-.09-1.25-.3-1.79,1.63-.53,1.93h0Z"/>
      <path class="cls-2" d="M535.95,127.57c-2.36,3.91-3.84,8.37-4.24,12.92-.19,2.1-.04,4.46,1.2,6.24,1.13,1.62,3.03,2.7,5.03,2.19,1.25-.32.72-2.24-.53-1.93-1.42.36-2.7-.87-3.24-2.07-.75-1.69-.6-3.69-.35-5.47.54-3.84,1.85-7.55,3.85-10.87.67-1.11-1.06-2.11-1.73-1.01h0Z"/>
      <path class="cls-2" d="M541.11,133.69l6.25,6.66,1.56,1.67c.48.51.97,1.04,1.68,1.2s1.37-.15,1.74-.75.34-1.4-.22-1.85c-.42-.34-1-.41-1.41,0-.35.35-.42,1.08,0,1.41-.13-.1-.15-.52-.05-.64.05-.06.24-.09.26-.13.09-.15.06.08,0-.06-.03-.07-.17-.16-.22-.21-.39-.4-.76-.81-1.15-1.22l-2.34-2.5-4.68-5c-.88-.94-2.29.48-1.41,1.41h0Z"/>
      <path class="cls-2" d="M549.15,130.23c-3.32,4.79-6.64,9.58-9.96,14.37-.73,1.06,1,2.06,1.73,1.01,3.32-4.79,6.64-9.58,9.96-14.37.73-1.06-1-2.06-1.73-1.01h0Z"/>
      <path class="cls-2" d="M552.47,127.08c1.65,3.54,3.33,7.32,3.3,11.3-.02,3.06-1.15,6.37-3.74,8.19-1.05.73-.05,2.47,1.01,1.73,3.1-2.17,4.6-5.84,4.72-9.55.15-4.47-1.72-8.71-3.56-12.68-.23-.49-.93-.61-1.37-.36-.5.29-.59.88-.36,1.37h0Z"/>
      <path class="cls-2" d="M546.94,104.11c-.4,5.05-.47,10.11-.2,15.17.06,1.1,1.66,1.39,1.96.27s.7-2.17,1.24-3.19c.5-.94,1.1-2.06,1.9-2.78.06-.06.21-.12.25-.19.07-.11.04.01.03-.07l-.14-.08.05.18c0,.14.06.29.09.42.13.65.26,1.3.39,1.95.28,1.38.55,2.77.83,4.15.25,1.26,2.18.73,1.93-.53-.35-1.75-.7-3.5-1.05-5.25-.15-.73-.2-1.64-.72-2.23s-1.3-.73-2.02-.46c-1.33.5-2.23,2.06-2.91,3.23-.79,1.34-1.39,2.8-1.8,4.31l1.96.27c-.27-5.06-.2-10.12.2-15.17.1-1.28-1.9-1.28-2,0h0Z"/>
      <path class="cls-2" d="M494.33,139.05v.07c.16-.29.33-.58.49-.86l-.05.03.5-.14h.11c.15.1.29.18.44.27l-.06-.05.26.44-.02-.08-.1.77c-.27.18-.27.22,0,.13.1-.02.21-.04.31-.06.24-.05.49-.09.73-.13.4-.07.8-.12,1.21-.16.91-.09,1.83-.12,2.75-.1,1.83.05,3.62.33,5.38.83,1.24.35,1.77-1.58.53-1.93-2.8-.8-5.76-1.08-8.66-.8-.72.07-1.44.17-2.15.3-.62.12-1.42.2-1.78.81-.39.66-.09,1.51.66,1.72s1.38-.31,1.44-1.05c.1-1.28-1.9-1.28-2,0h0Z"/>
    </g>
    <path class="cls-2" d="M449.04,119.2c2.82-.48,5.4-.83,8.25-1.11,1.39-.14,2.78-.25,4.17-.34.72-.05,1.44-.11,2.15-.12.03,0,.38.01.39,0-.01.04-.26-.06-.28-.08-.82-.5-.48-1.46.19-1.94-.85.6-1.34,1.77-.72,2.74.54.84,1.82,1.37,2.74.72.96-.68,1.4-1.62,1.24-2.8s-.98-2.09-2.08-2.45c-.89-.29-1.85-.18-2.77-.12s-1.88.12-2.82.2c-3.86.31-7.7.8-11.52,1.45-1.03.18-1.71,1.5-1.4,2.46.36,1.12,1.35,1.58,2.46,1.4h0Z"/>
    <path class="cls-2" d="M450.05,130.83c5.25-1.05,10.51-2.11,15.76-3.16,1.03-.21,1.71-1.48,1.4-2.46-.35-1.09-1.36-1.62-2.46-1.4-5.25,1.05-10.51,2.11-15.76,3.16-1.03.21-1.71,1.48-1.4,2.46.35,1.09,1.36,1.62,2.46,1.4h0Z"/>
  </g>
</svg>