<?xml version="1.0" encoding="UTF-8"?>
<svg id="Layer_2" data-name="Layer 2" xmlns="http://www.w3.org/2000/svg" viewBox="0 0 282.88 184.87">
  <defs>
    <style>
      .cls-1 {
        fill: #010101;
      }

      .cls-2 {
        fill: #ed1c24;
      }

      .cls-3 {
        fill: #00aeef;
      }

      .cls-4 {
        fill: #fff;
      }

      .cls-5 {
        fill: #939598;
      }
    </style>
  </defs>
  <g id="Layer_1-2" data-name="Layer 1">
    <g>
      <path class="cls-5" d="M62.43,11.69c.77-1.42,1.64-2.8,2.61-4.09.47-.62.97-1.22,1.49-1.8.14-.16,1.61-1.57,1.59-1.62.06.15-.47-.02-.48-.01.03-.01.19.16.26.23.27.29.53.6.77.91.44.56.84,1.16,1.21,1.77.8,1.33,1.42,2.73,1.88,4.21.57,1.84,3.47,1.05,2.89-.8s-1.39-3.7-2.45-5.36c-.54-.84-1.14-1.65-1.79-2.42-.68-.8-1.48-1.51-2.6-1.48s-1.96.91-2.69,1.67c-.68.7-1.32,1.44-1.92,2.2-1.26,1.59-2.39,3.27-3.36,5.06s1.67,3.21,2.59,1.51h0Z"/>
      <path class="cls-5" d="M60.81,176.19c1.53,2.75,3.41,5.31,5.58,7.59.56.58,1.56.57,2.12,0,2.89-2.93,5.79-5.86,8.68-8.79,1.36-1.38-.76-3.5-2.12-2.12-2.89,2.93-5.79,5.86-8.68,8.79h2.12c-2-2.11-3.7-4.44-5.11-6.98-.94-1.69-3.53-.18-2.59,1.51h0Z"/>
      <path class="cls-5" d="M66.71,4.52c-1.46,11.95-1.43,24.02-.98,36.04.44,11.99,1.28,23.96,1.44,35.95s-.52,24.43-.73,36.64-.16,24.35,0,36.52c.08,6.11.2,12.22.32,18.33.06,2.99.12,5.98.19,8.97.02.75.03,1.5.05,2.24.01.69-.02,1.41.18,2.08.24.77.84,1.37,1.65,1.49.85.13,1.64-.41,1.9-1.22.44-1.42-.96-3.07-2.41-2.14-.68.44-.96,1.33-.54,2.05.4.68,1.37.98,2.05.54l.07-.04-.76.2h.06c-.25-.07-.5-.14-.76-.21l.05.03-.54-.54c-.24-.33-.1-.97.17-1.22l.66-.39,1.26.59-.04-.15c-.05.23,0-.13,0-.19,0-.33-.01-.66-.02-1-.02-.75-.03-1.5-.05-2.24-.03-1.45-.06-2.91-.09-4.36-.06-2.91-.12-5.82-.18-8.73-.11-5.73-.21-11.47-.28-17.2-.14-11.59-.16-23.19.06-34.78s.85-23.1.72-34.65-.89-22.9-1.36-34.35c-.46-11.36-.62-22.77.45-34.1.13-1.39.28-2.77.45-4.15.1-.81-.76-1.5-1.5-1.5-.89,0-1.4.69-1.5,1.5h0Z"/>
    </g>
    <path class="cls-5" d="M144.47,135.42c-.73,3.65-.46,7.46.93,10.92.3.75,1,1.28,1.85,1.05.71-.2,1.35-1.09,1.05-1.85-1.21-3.01-1.55-6.23-.93-9.33.16-.79-.23-1.62-1.05-1.85-.74-.2-1.68.25-1.85,1.05h0Z"/>
    <path class="cls-5" d="M182.43,136.92c-1.13,3.94-1.13,8.16-.01,12.1.53,1.85,3.42,1.07,2.89-.8-.98-3.45-.98-7.06.01-10.51.53-1.86-2.36-2.65-2.89-.8h0Z"/>
    <path class="cls-5" d="M109.42,135.44c-.32,3.4-.17,6.79.38,10.16.13.8,1.13,1.25,1.85,1.05.85-.23,1.18-1.04,1.05-1.85-.48-3.01-.56-6.25-.27-9.36.07-.78-.74-1.53-1.5-1.5-.88.04-1.42.66-1.5,1.5h0Z"/>
    <g>
      <path class="cls-2" d="M219.49,19.21c3.62-2.88,7.51-5.42,11.6-7.59.27-.14.73-.52,1.04-.4s.49.66.62.92c.54,1.11,1.05,2.23,1.58,3.34,1.08,2.29,2.16,4.58,3.24,6.87.55,1.16,2.27.15,1.73-1.01-.94-1.99-1.88-3.98-2.81-5.97-.46-.98-.92-1.95-1.38-2.93-.39-.83-.72-1.71-1.33-2.41-1.49-1.72-3.47-.29-5,.57-1.74.97-3.44,2.01-5.1,3.11-1.92,1.28-3.78,2.64-5.59,4.08-.42.34-.35,1.06,0,1.41.42.42.99.34,1.41,0h0Z"/>
      <path class="cls-2" d="M17.25,130.72l-1.08-5.79-.54-2.9c-.09-.46-.1-1.01-.27-1.45.01-.27-.03-.31-.12-.14-.11.1-.11.13-.02.08.02.01.55-.11.55-.11,3.75-.63,7.64-.57,11.37.09.53.09,1.08-.14,1.23-.7.13-.48-.16-1.14-.7-1.23-2.21-.39-4.45-.6-6.69-.59-1.12,0-2.23.07-3.34.18-1.01.1-2.15.13-3.11.48-1.15.42-1.3,1.38-1.1,2.47s.42,2.25.63,3.38l1.26,6.76c.24,1.26,2.16.73,1.93-.53h0Z"/>
    </g>
    <g>
      <g>
        <path class="cls-3" d="M217.56,40.26c-.43,1.46-.37,3.05.18,4.47.1.25.33.43.62.35.24-.07.45-.36.35-.62-.5-1.26-.57-2.63-.18-3.94.18-.62-.78-.88-.96-.27h0Z"/>
        <path class="cls-3" d="M218.09,47.92c-.34,1.71-.37,3.44-.13,5.16.04.27.38.41.62.35.29-.08.39-.35.35-.62-.22-1.53-.17-3.11.13-4.63.05-.26-.08-.54-.35-.62-.25-.07-.56.08-.62.35h0Z"/>
        <path class="cls-3" d="M218.24,58.46c-.33,1.78-.42,3.59-.23,5.39.03.27.21.5.5.5.25,0,.53-.23.5-.5-.17-1.71-.12-3.43.2-5.12.05-.27-.07-.54-.35-.62-.24-.07-.57.08-.62.35h0Z"/>
        <path class="cls-3" d="M218.64,69.08c-.09,1.63-.18,3.26-.27,4.89-.04.64.96.64,1,0,.09-1.63.18-3.26.27-4.89.04-.64-.96-.64-1,0h0Z"/>
        <path class="cls-3" d="M219.46,79.2c-.06,2.1-.27,4.19-.62,6.26-.11.63.86.9.96.27.37-2.16.59-4.34.65-6.52.02-.64-.98-.64-1,0h0Z"/>
        <path class="cls-3" d="M219.22,92.22c-.32,1.66-.4,3.35-.19,5.02.03.27.21.5.5.5.24,0,.53-.23.5-.5-.2-1.58-.15-3.19.15-4.76.05-.26-.08-.54-.35-.62-.25-.07-.56.08-.62.35h0Z"/>
        <path class="cls-3" d="M219.37,102.98c.52,1.75.54,3.6.05,5.36-.17.62.79.89.96.27.53-1.93.51-3.98-.05-5.9-.18-.62-1.15-.35-.96.27h0Z"/>
        <path class="cls-3" d="M219.04,114.03c-.56,2.13-.75,4.34-.56,6.53.06.64,1.06.64,1,0-.19-2.11-.01-4.22.52-6.26.16-.62-.8-.89-.96-.27h0Z"/>
        <path class="cls-3" d="M218,125.1l-.25,4.14c-.02.27.24.5.5.5.28,0,.48-.23.5-.5l.25-4.14c.02-.27-.24-.5-.5-.5-.28,0-.48.23-.5.5h0Z"/>
        <path class="cls-3" d="M218.03,133.88c-.5,1.08-.59,2.33-.16,3.45.09.24.34.44.62.35.24-.08.45-.35.35-.62-.09-.23-.15-.46-.2-.71,0-.03-.01-.07-.02-.1,0,.05,0,.04,0-.02,0-.05-.01-.1-.01-.16,0-.13-.01-.26,0-.39.01-.41.13-.93.3-1.29.11-.24.07-.55-.18-.68-.22-.12-.57-.07-.68.18h0Z"/>
      </g>
      <path class="cls-3" d="M211.22,48.1c2.23,2.83,4.13,5.91,5.7,9.15.28.58,1.14.07.86-.5-1.61-3.32-3.57-6.46-5.86-9.35-.4-.5-1.1.21-.71.71h0Z"/>
      <path class="cls-3" d="M207.38,55.26c1.84,3.41,3.69,6.83,5.53,10.24,1.65,3.05,3.16,6.31,5.6,8.82.45.46,1.16-.24.71-.71-2.43-2.5-3.92-5.8-5.56-8.84l-5.42-10.02c-.31-.57-1.17-.06-.86.5h0Z"/>
      <path class="cls-3" d="M198.97,65.08c5.26,7.13,10.52,14.26,15.78,21.4,1.51,2.04,3.01,4.08,4.52,6.13.38.51,1.25.01.86-.5-5.26-7.13-10.52-14.26-15.78-21.4l-4.52-6.13c-.38-.51-1.25-.01-.86.5h0Z"/>
      <path class="cls-3" d="M194.02,72.27c2.44,5.05,6.19,9.25,9.71,13.56,3.76,4.59,7.26,9.39,10.51,14.35,1.83,2.8,3.57,5.65,5.23,8.54.32.56,1.18.06.86-.5-2.95-5.14-6.16-10.14-9.63-14.95-1.71-2.38-3.49-4.71-5.33-6.99s-3.58-4.3-5.32-6.5c-1.97-2.51-3.79-5.14-5.18-8.01-.28-.58-1.14-.07-.86.5h0Z"/>
      <path class="cls-3" d="M185.9,80.51c8.82,10.81,17.2,21.98,25.09,33.49,2.22,3.24,4.4,6.5,6.55,9.79.35.54,1.22.04.86-.5-7.65-11.72-15.79-23.13-24.38-34.18-2.43-3.13-4.91-6.23-7.41-9.3-.41-.5-1.11.21-.71.71h0Z"/>
      <path class="cls-3" d="M180.22,88.36c4.36,6.82,8.88,13.54,13.56,20.14,4.65,6.58,9.46,13.05,14.41,19.4,2.82,3.61,5.68,7.19,8.59,10.72.41.5,1.11-.21.71-.71-5.14-6.25-10.13-12.62-14.98-19.1s-9.44-12.95-13.94-19.59c-2.55-3.76-5.04-7.55-7.49-11.38-.35-.54-1.21-.04-.86.5h0Z"/>
      <path class="cls-3" d="M171.5,95.17c6.82,12.5,14.42,24.57,22.75,36.11,2.34,3.25,4.75,6.45,7.2,9.62.39.51,1.1-.2.71-.71-8.7-11.21-16.69-22.96-23.91-35.17-2.02-3.42-3.98-6.87-5.88-10.36-.31-.57-1.17-.06-.86.5h0Z"/>
      <path class="cls-3" d="M162.66,100.59c1.47,2.85,3.34,5.46,5.26,8.02s3.76,5.01,5.53,7.59c3.56,5.2,6.8,10.63,9.67,16.24,1.62,3.16,3.13,6.39,4.52,9.66.25.59,1.11.08.86-.5-4.95-11.64-11.41-22.48-19.02-32.57-2.16-2.86-4.31-5.74-5.95-8.94-.3-.57-1.16-.07-.86.5h0Z"/>
      <path class="cls-3" d="M154.05,108.81c6.08,8.58,11.89,17.35,17.42,26.29,1.56,2.52,3.1,5.06,4.62,7.62.33.56,1.14.07.86-.5-.16-.33-.31-.66-.47-.99-.28-.58-1.14-.07-.86.5.16.33.31.66.47.99l.86-.5c-5.38-9.03-11.03-17.9-16.96-26.59-1.67-2.45-3.37-4.89-5.09-7.31-.37-.52-1.24-.02-.86.5h0Z"/>
      <path class="cls-3" d="M146.5,115.37c.67,1.75,1.64,3.34,2.67,4.9,1.12,1.71,2.26,3.41,3.39,5.12,2.3,3.48,4.61,6.96,6.91,10.44,1.32,2,2.65,4,3.97,6,.35.53,1.22.03.86-.5-2.92-4.41-5.84-8.82-8.76-13.24-1.46-2.21-2.92-4.41-4.38-6.62-1.35-2.04-2.82-4.07-3.7-6.37-.23-.6-1.19-.34-.96.27h0Z"/>
      <path class="cls-3" d="M138.13,118.44c-.27,1.99,1.04,3.68,2.07,5.25,1.18,1.8,2.36,3.6,3.55,5.4,2.41,3.67,4.82,7.34,7.23,11.01.35.54,1.22.04.86-.5-2.32-3.53-4.64-7.06-6.96-10.6-1.14-1.73-2.27-3.46-3.41-5.19-1.03-1.57-2.61-3.35-2.34-5.37.08-.64-.92-.63-1,0h0Z"/>
      <path class="cls-3" d="M128.38,124.54c3.11,5.66,6.68,11.05,10.65,16.13.4.51,1.1-.21.71-.71-3.92-5.02-7.43-10.35-10.5-15.93-.31-.56-1.17-.06-.86.5h0Z"/>
      <path class="cls-3" d="M119.39,129.38c1.19,2.27,2.73,4.38,4.74,5.99,1.89,1.5,3.55,3.03,4.2,5.46.17.62,1.13.36.96-.27-.66-2.47-2.29-4.21-4.25-5.74s-3.6-3.66-4.8-5.95c-.3-.57-1.16-.07-.86.5h0Z"/>
      <path class="cls-3" d="M112.57,132.94c1.71,2.61,3.79,4.96,6.19,6.95.31.26.87.11.85-.35-.01-.23-.02-.47-.03-.7-.03-.64-1.03-.64-1,0,.01.23.02.47.03.7l.85-.35c-2.34-1.94-4.37-4.21-6.04-6.75-.35-.54-1.22-.04-.86.5h0Z"/>
      <path class="cls-3" d="M103.5,135.75c1.14,1.62,2.27,3.25,3.41,4.87.15.22.44.32.68.18.22-.13.33-.46.18-.68-1.14-1.62-2.27-3.25-3.41-4.87-.15-.22-.44-.32-.68-.18-.22.13-.33.46-.18.68h0Z"/>
      <path class="cls-3" d="M94.97,137.98c.48.75.96,1.5,1.45,2.25.11.18.23.36.34.54.14.22.45.33.68.18.22-.14.33-.45.18-.68-.47-.73-.93-1.45-1.4-2.18-.13-.21-.26-.41-.39-.62-.14-.22-.45-.33-.68-.18-.22.14-.33.45-.18.68h0Z"/>
      <path class="cls-3" d="M84.37,138.59c.4,1.19,1.07,2.28,1.97,3.15.19.18.52.2.71,0s.2-.51,0-.71-.4-.41-.58-.62c-.02-.03-.04-.05-.06-.08,0-.01-.07-.1-.03-.03-.04-.05-.08-.1-.12-.16-.08-.12-.17-.24-.24-.36-.15-.23-.28-.47-.4-.72-.03-.07-.06-.13-.09-.2,0,0-.04-.09-.02-.05.02.05-.03-.06-.03-.08-.05-.14-.1-.27-.15-.41-.08-.25-.35-.44-.62-.35-.25.08-.44.35-.35.62h0Z"/>
    </g>
    <g>
      <path class="cls-5" d="M254.27,138.34c-10.32-2.01-20.75-.52-31.03.88-5.08.69-10.18,1.35-15.32,1.53-4.56.16-9.12.32-13.69.52-6.52.29-13.04.6-19.57.46-7.09-.16-14.14-.88-21.21-1.29-6.64-.39-13.29-.62-19.95-.83-6.25-.19-12.5-.37-18.75-.39-7.86-.02-15.73.35-23.58.71-4.3.2-8.61.51-12.92.55-5.21.04-10.42-.26-15.63-.42-4.64-.15-9.27-.02-13.9-.02s-8.88-.08-13.32-.11-8.54.1-12.81.14c-3.33.03-6.63-.11-9.95-.38-2.14-.18-4.28-.37-6.42-.55-.81-.07-1.5.74-1.5,1.5,0,.87.69,1.43,1.5,1.5,3.78.32,7.56.72,11.35.87s7.81-.01,11.71-.06c4.34-.06,8.67.01,13.01.06s8.52,0,12.78-.05c5.16-.07,10.31.22,15.46.39,4.85.17,9.67.13,14.51-.12,8.55-.43,17.1-.83,25.66-.97,5.8-.1,11.61.05,17.4.2,7,.18,14,.42,21,.75,6.74.32,13.45.99,20.18,1.33s12.99.25,19.49-.02c3.84-.16,7.69-.34,11.53-.49,5.03-.2,10.05-.28,15.06-.81,10.25-1.08,20.47-3.27,30.82-2.81,2.45.11,4.88.37,7.28.84.79.16,1.62-.22,1.85-1.05.2-.74-.25-1.69-1.05-1.85h0Z"/>
      <path class="cls-5" d="M244.32,132.87c.84-.11,1.5.25,2.18.79.91.71,1.73,1.56,2.58,2.34,1.82,1.67,3.63,3.34,5.45,5.02l.66-2.51c-4.19,1.44-8.02,3.75-11.21,6.84-1.39,1.35.73,3.47,2.12,2.12,2.81-2.72,6.19-4.8,9.88-6.07,1.01-.35,1.54-1.7.66-2.51-2-1.84-3.99-3.68-5.99-5.52-1.72-1.59-3.74-3.83-6.34-3.51-.8.1-1.5.62-1.5,1.5,0,.73.69,1.6,1.5,1.5h0Z"/>
      <path class="cls-5" d="M10.78,132.87c-3.1,1.8-6.2,3.6-9.3,5.4-.92.53-.88,1.61-.3,2.36,2.39,3.08,4.78,6.17,7.17,9.25.5.64,1.6.52,2.12,0,.63-.63.5-1.48,0-2.12-2.39-3.08-4.78-6.17-7.17-9.25l-.3,2.36c3.1-1.8,6.2-3.6,9.3-5.4,1.67-.97.16-3.56-1.51-2.59h0Z"/>
      <path class="cls-5" d="M217,136.52c-.54,3.89-.68,7.79-.35,11.71.07.81.64,1.5,1.5,1.5.76,0,1.57-.69,1.5-1.5-.31-3.63-.26-7.3.24-10.91.11-.8-.19-1.61-1.05-1.85-.7-.19-1.73.24-1.85,1.05h0Z"/>
    </g>
    <path class="cls-2" d="M15.24,120.84c5.11,5.82,11.82,10.05,18.9,13.06,7.91,3.36,16.34,5.3,24.87,6.2s17.92.67,26.79-.7c9.67-1.5,19.13-4.24,28.2-7.91,8.76-3.54,17.17-7.92,25.22-12.87,8.09-4.97,15.85-10.49,23.29-16.38s14.44-12.11,21.11-18.76c6.49-6.47,12.63-13.31,18.35-20.46,5.57-6.96,10.77-14.21,15.55-21.73s8.93-14.89,12.79-22.66c.93-1.88,1.84-3.77,2.72-5.67.23-.49.14-1.08-.36-1.37-.43-.25-1.14-.13-1.37.36-3.61,7.76-7.62,15.34-12.02,22.69s-9.42,14.8-14.71,21.8c-5.4,7.14-11.2,13.97-17.35,20.47s-13.12,13.1-20.21,19.08-14.88,11.83-22.8,17.07-15.65,9.68-23.99,13.56-17.73,7.24-27.05,9.35-18.05,2.98-27.21,2.64c-8.54-.31-17.07-1.68-25.2-4.34-7.36-2.41-14.54-5.93-20.38-11.08-1.33-1.17-2.58-2.42-3.75-3.75-.85-.97-2.26.45-1.41,1.41h0Z"/>
    <g>
      <path class="cls-2" d="M144.68,25.32c-.56.21-.73-2.38-.77-2.74-.14-1.12-.26-2.24-.34-3.37-.17-2.29-.2-4.63.18-6.9.62-3.7,2.48-7.49,5.89-9.37.84-.46,1.76-.78,2.72-.88.6-.06,2.49-.03,2.18,1.02-.18.62.79.88.96.27.28-.96-.39-1.73-1.24-2.08-.92-.38-2.01-.25-2.96-.04-2.1.49-3.94,1.85-5.29,3.49-3.43,4.15-3.83,9.67-3.41,14.84.13,1.59.33,3.17.53,4.75.11.87.64,2.42,1.82,1.97.6-.23.34-1.19-.27-.96h0Z"/>
      <path class="cls-2" d="M138.15,13.99c4.3-.25,8.59.36,12.65,1.8.61.22.87-.75.27-.96-4.13-1.47-8.53-2.09-12.91-1.84-.64.04-.64,1.04,0,1h0Z"/>
      <path class="cls-2" d="M159.12,5.35c-2.24,3.79-3.6,8.05-3.95,12.44-.15,1.91-.33,4.23.8,5.91.9,1.34,2.81,2.1,4.25,1.14.53-.36.03-1.22-.5-.86-1.53,1.03-3.06-.62-3.42-2.03-.45-1.74-.21-3.76.02-5.52.49-3.73,1.75-7.34,3.67-10.58.33-.55-.54-1.06-.86-.5h0Z"/>
      <path class="cls-2" d="M162.32,9.56c2.36,4.54,4.89,8.97,7.61,13.3.34.54,1.21.04.86-.5-2.72-4.33-5.25-8.77-7.61-13.3-.3-.57-1.16-.07-.86.5h0Z"/>
      <path class="cls-2" d="M168.97,10.58c-2.09,4.5-4.44,8.88-7.04,13.11-.34.55.53,1.05.86.5,2.6-4.23,4.95-8.6,7.04-13.11.27-.58-.59-1.09-.86-.5h0Z"/>
      <path class="cls-2" d="M171.68,6.57c1.45,3.18,2.49,6.54,3.09,9.98.29,1.66.58,3.4.53,5.09-.02.75-.18,1.6-.76,2.13-.51.46-1.23.65-1.83.24-.53-.37-1.03.5-.5.86,1.26.87,2.97.08,3.62-1.17.87-1.67.42-3.88.18-5.66-.56-4.14-1.73-8.17-3.46-11.97-.27-.58-1.13-.08-.86.5h0Z"/>
      <path class="cls-2" d="M182.55,12.83c2.43-.48,4.94-.36,7.32.34.62.18.88-.78.27-.96-2.55-.75-5.24-.86-7.85-.34-.63.13-.36,1.09.27.96h0Z"/>
      <path class="cls-2" d="M182.56,17.77c2.65-.38,5.35-.32,7.98.18.63.12.9-.85.27-.96-2.82-.53-5.68-.59-8.51-.18-.27.04-.41.38-.35.62.08.29.35.39.62.35h0Z"/>
      <path class="cls-2" d="M196.24,8.3c3.92,3.9,7.36,8.25,10.25,12.96.34.55,1.2.05.86-.5-2.93-4.78-6.43-9.21-10.41-13.16-.46-.45-1.16.25-.71.71h0Z"/>
      <path class="cls-2" d="M206.27,5.24c-4.01,5.64-7.65,11.55-10.88,17.68-.3.57.56,1.07.86.5,3.23-6.13,6.86-12.03,10.88-17.68.37-.53-.49-1.03-.86-.5h0Z"/>
      <path class="cls-2" d="M209.87,1.03c2.65-.3,5.02,2.48,4.45,5.07s-3.5,4.23-6.05,3.78c-.62-.11-.9.82-.27.96,2.92.68,5.82,1.43,8.71,2.23.62.17.89-.79.27-.96-2.89-.8-5.79-1.54-8.71-2.23l-.27.96c3.1.54,6.72-1.37,7.31-4.64s-2.17-6.55-5.45-6.18c-.63.07-.64,1.07,0,1h0Z"/>
    </g>
    <g>
      <g>
        <path class="cls-4" d="M205.78,104.17c.05-.11.09-.22.14-.33-.2.48-.4.96-.6,1.43,1.37-3.21,3.16-6.22,5.29-8.98-.31.4-.63.81-.94,1.21,2.38-3.06,5.15-5.8,8.21-8.19-.4.31-.81.63-1.21.94,3.34-2.58,7.01-4.72,10.89-6.38-.48.2-.96.4-1.43.6,2.36-.99,4.79-1.8,7.28-2.42,1.44-.36,2.84-1.49,3.59-2.76.75-1.29,1.07-3.18.6-4.62-1.02-3.16-4.12-5-7.38-4.19-6.04,1.5-11.94,4.09-17.1,7.59-5.44,3.69-10.08,8.18-13.89,13.54-2.07,2.92-3.63,6.06-5,9.36-.55,1.33-.09,3.44.6,4.62.73,1.24,2.16,2.43,3.59,2.76,1.54.35,3.26.27,4.62-.6.4-.31.81-.63,1.21-.94.73-.74,1.25-1.62,1.53-2.64h0Z"/>
        <g>
          <path class="cls-1" d="M200.25,92.32c-.15,1.66-.21,3.32-.16,4.98.02.85.07,1.69.15,2.54.06.7.11,1.42.38,2.07.25.61.7,1.15,1.35,1.35.77.24,1.55-.06,2.21-.45,1.06-.63,1.96-1.49,2.88-2.3.88-.77,1.88-1.56,3.09-1.58,1.29-.03,1.29-2.03,0-2-3.08.06-4.65,2.85-7.1,4.22-.15.09-.31.18-.49.21.1-.02.06.04-.03-.03.11.09-.08-.18-.08-.19-.04-.1-.07-.26-.1-.37-.17-.79-.19-1.74-.23-2.58-.1-1.95-.05-3.91.13-5.86.05-.54-.49-1-1-1-.59,0-.96.45-1,.99h0Z"/>
          <path class="cls-1" d="M202.44,101.4c3.51-5.04,7.33-9.97,11.65-14.34,3.95-3.98,8.69-7.01,14.07-8.67,1.47-.46,2.97-.81,4.49-1.07.74-.12,1.49-.22,2.23-.28.38-.03.77-.06,1.15-.08.14-.01.28-.02.42-.02.38-.01.24.07.15-.24v-.53s0-.02.02-.03c-.7,1.08,1.03,2.09,1.73,1.01.43-.66.15-1.45-.47-1.86s-1.34-.36-2.05-.32c-1.56.09-3.11.3-4.64.6-3.04.59-6,1.61-8.78,2.98-2.81,1.38-5.42,3.15-7.75,5.23-2.49,2.22-4.7,4.74-6.83,7.3-2.51,3-4.88,6.11-7.12,9.32-.73,1.05,1,2.05,1.73,1h0Z"/>
        </g>
      </g>
      <g>
        <path class="cls-1" d="M244.79,81.9c.27-2.38.82-4.72,1.63-6.97.39-1.07.83-2.12,1.34-3.14.26-.53.54-1.05.83-1.56.26-.45.51-1.02.93-1.36.61-.5.86.14,1.01.67.17.62.31,1.24.44,1.87.26,1.21.47,2.43.63,3.65.33,2.54.44,5.11.34,7.67h1v-1.65c0-.64-1-.64-1,0v1.65c0,.65.98.64,1,0,.08-2.32,0-4.64-.26-6.95-.25-2.24-.58-4.59-1.27-6.75-.23-.71-.71-1.4-1.53-1.37-.81.03-1.38.77-1.77,1.4-1.12,1.83-2.03,3.8-2.74,5.82-.8,2.27-1.32,4.63-1.59,7.03-.07.63.94.63,1.01-.01h0Z"/>
        <path class="cls-1" d="M245.35,76.94c2.24-.62,4.59-.72,6.88-.29.63.12.9-.84.27-.96-2.46-.47-4.99-.38-7.41.29-.62.16-.36,1.13.26.96h0Z"/>
        <path class="cls-1" d="M256.95,83.17c-.02-2.03-.03-4.06,0-6.09,0-.89,0-1.78.06-2.67.05-.7.16-1.51.66-2.05.99-1.07,2.65.05,2.81,1.27.21,1.59-1.48,2.71-2.83,2.96-.34.06-.43.47-.3.73.89,1.84,2.35,3.34,4.17,4.29.57.3,1.08-.57.5-.86-1.68-.87-2.99-2.23-3.81-3.93-.1.24-.2.49-.3.73,1.41-.26,2.77-1.16,3.33-2.51.53-1.28.13-2.68-.97-3.52-1.06-.8-2.51-.81-3.4.24-1,1.19-.87,2.96-.9,4.41-.03,2.33-.03,4.66,0,7,0,.64,1,.64.99,0h0Z"/>
        <path class="cls-1" d="M265.43,72.66c.08,2.98-.53,5.94-1.79,8.64-.17.36.04.72.43.75.82.07,1.64.12,2.46.14.41.01.82.01,1.23.01.28,0,.58.01.85-.1.49-.2.72-.86.23-1.2-.39-.27-1.07-.08-1.01.48.06.64,1.06.64,1,0,0-.02,0-.04-.01-.06-.05.12-.1.24-.15.35.42-.52-.57-.48-.74-.48h-.53c-.38,0-.76-.01-1.14-.02-.73-.02-1.46-.07-2.19-.13.14.25.29.5.43.75,1.34-2.86,2.01-5.99,1.93-9.15-.02-.63-1.02-.63-1,.02h0Z"/>
        <path class="cls-1" d="M264.98,76.4c1.37.4,2.74.8,4.11,1.2.62.18.88-.78.27-.96-1.37-.4-2.74-.8-4.11-1.2-.63-.18-.89.78-.27.96h0Z"/>
        <path class="cls-1" d="M266.31,73.27c.51-.38,1.06-.57,1.65-.58.61-.01,1.16.14,1.68.49.22.15.55.04.68-.18.14-.25.04-.53-.18-.68-1.27-.87-3.1-.84-4.34.09-.22.16-.33.43-.18.68.13.21.47.34.69.18h0Z"/>
        <path class="cls-1" d="M271.22,83.31c1.04-3.72,2.45-7.32,4.2-10.76-.23.06-.46.12-.68.18.64.32.83,1.01.94,1.67.14.91.16,1.84.23,2.75.16,2.02.31,4.03.47,6.05.05.64,1.05.64,1,0-.18-2.3-.35-4.61-.53-6.91-.11-1.48-.02-3.65-1.6-4.43-.23-.11-.55-.07-.68.18-1.79,3.51-3.24,7.2-4.3,10.99-.18.64.78.9.95.28h0Z"/>
        <path class="cls-1" d="M273.08,77.99c1-.35,2.09-.48,3.12-.33.27.04.54-.07.62-.35.06-.23-.08-.58-.35-.62-1.23-.18-2.48-.08-3.65.33-.25.09-.42.34-.35.62.06.25.36.44.61.35h0Z"/>
        <path class="cls-1" d="M240.4,94.33c2.7.7,5.56.65,8.24-.17.61-.19.35-1.15-.27-.96-2.51.76-5.17.82-7.7.17-.63-.17-.89.8-.27.96h0Z"/>
        <path class="cls-1" d="M241.28,99.38c2.26.11,4.52.23,6.78.34.64.03.64-.97,0-1-2.26-.11-4.52-.23-6.78-.34-.64-.03-.64.97,0,1h0Z"/>
        <path class="cls-1" d="M267.33,92.18v10.51c0,.64,1,.64,1,0v-10.51c0-.64-1-.64-1,0h0Z"/>
        <path class="cls-1" d="M272.59,102.23c-.08-.06.06.06.02.02-.02-.02-.04-.03-.05-.05-.02-.02-.03-.04-.05-.05-.04-.04.07.1.02.02-.02-.04-.04-.07-.06-.11-.03-.05.04.11.01.03-.01-.02-.02-.05-.02-.07-.01-.02-.01-.05-.02-.07-.02-.07.01.03,0,.05,0-.05-.01-.1,0-.14,0-.02.01-.11,0-.02-.01.09,0,0,.01-.02.01-.04.07-.18.01-.04-.14.08-.29.17-.43.25-.19-.02-.04,0,.01.01.1.03-.05-.02-.05-.02,0,0,.04.02.05.03.02.01.03.02.05.03-.11-.05-.08-.07-.04-.03.03.03.05.06.08.08-.1-.09-.06-.08-.03-.04.01.02.02.03.03.05.01.02.02.04.03.05.05.08-.01-.04-.02-.05.02.01.03.09.04.12.01.02.01.04.01.06.03.11-.01-.08,0-.04.01.08.01.16,0,.25,0,.05.03-.15.01-.05,0,.02-.01.04-.01.06-.01.03-.06.16-.02.06.04-.1-.02.03-.03.05-.01.02-.06.08,0,0s.01-.02-.01,0c-.01.01-.03.03-.04.04-.03.04.12-.08.04-.03-.02.01-.03.02-.05.03-.09.05.11-.04.03-.01.19.08.38.15.56.23-.03-.04-.06-.09-.09-.14-.01-.02-.02-.04-.03-.07-.03-.04.04.13.01.03-.02-.05-.03-.1-.04-.15,0-.02-.02-.05-.01-.07-.01.03.01.13.01.04-.01-.1,0-.2.01-.29-.01.18,0,.01.01-.04s.03-.1.05-.15c.01-.02.04-.11.01-.02-.04.09,0,0,.01-.02.02-.05.05-.1.08-.14.01-.02.03-.04.04-.06.02-.04.08-.08-.02.02.03-.03.06-.07.1-.11.03-.03.07-.06.11-.1-.11.1-.06.04-.02.02.02-.01.04-.03.06-.04s.04-.02.06-.04c.08-.04.01,0-.03.01.06-.01.11-.04.17-.05-.19-.08-.38-.15-.56-.23.01.02.02.04.03.06.03.05-.04-.1-.02-.04.01.04.03.08.04.12s.02.08.03.12c0,.02.01.04.01.06.01.06-.01-.12-.01-.03.01.09.01.17,0,.26v.06c-.01.09.02-.1,0-.03-.01.04-.02.08-.03.13-.01.04-.02.07-.03.11-.01.02-.02.05-.02.07-.01.02-.03.08,0,.01.03-.08,0,0-.01.02s-.02.03-.03.05c-.02.04-.04.08-.06.11-.02.04-.05.07-.07.11.02-.03.07-.08.02-.02-.01.01-.03.03-.04.04l-.09.09s-.03.02-.04.04c.08-.09.05-.04.01-.01.24.1.49.2.73.3-.1-.26-.19-.51-.29-.77-.09-.24-.34-.44-.62-.35-.24.08-.45.35-.35.62.1.26.19.51.29.77.06.15.14.26.29.32.14.06.32.06.45-.03.41-.29.71-.71.83-1.21s.07-1.01-.17-1.47c-.1-.2-.36-.28-.56-.23-1.16.28-1.79,1.86-1.07,2.84.12.17.35.31.56.23.29-.11.54-.3.67-.58.12-.25.17-.52.14-.8-.04-.32-.14-.6-.35-.84-.21-.25-.49-.36-.8-.4-.16-.02-.37.11-.43.25-.15.32-.19.67-.1,1.01.09.34.31.62.59.81.22.15.56.05.68-.18.12-.27.04-.54-.19-.7h0Z"/>
        <path class="cls-1" d="M276.25,93.84c.54-.58,1.29-.86,2.08-.81.65.04,1.94.56,1.7,1.43-.14.52-.93.63-1.36.76-.63.18-1.27.39-1.72.88-.25.27-.15.73.22.84,1.92.52,3.54,1.89,4.36,3.7.18.4.48,1.04.33,1.48-.15.46-.75.55-1.16.58-1.24.07-2.51-.25-3.6-.82-.57-.29-1.08.57-.5.86,1.32.68,2.89,1.11,4.38.93.57-.07,1.15-.25,1.53-.7.46-.53.43-1.25.25-1.89-.72-2.49-2.84-4.45-5.32-5.12.07.28.15.56.22.84.58-.63,1.58-.63,2.32-.97.86-.4,1.32-1.29.93-2.2-.9-2.11-3.98-1.96-5.36-.49-.45.46.26,1.17.7.7h0Z"/>
        <path class="cls-1" d="M274.33,90.52l7.01-.16c.64-.01.64-1.01,0-1l-7.01.16c-.64.01-.64,1.01,0,1h0Z"/>
        <path class="cls-1" d="M257.41,93.31c.87-.04,1.74-.04,2.61.02.36.02.87-.01,1.11.31.18.24.2.62.22.9.09,1.26-.13,2.52-.58,3.69-.92,2.4-2.89,4.4-5.31,5.27-.6.22-.37,1.13.27.96,3.32-.85,6.74-1.21,10.17-1.08.64.02.64-.98,0-1-3.51-.13-7.03.25-10.43,1.12l.27.96c2.92-1.05,5.2-3.48,6.17-6.42.44-1.33.75-3.09.3-4.46-.25-.76-.81-1.12-1.57-1.21-1.06-.13-2.15-.12-3.22-.07-.64.03-.64,1.03,0,1h0Z"/>
      </g>
    </g>
  </g>
</svg>