<?xml version="1.0" encoding="utf-8"?>
<!-- Generator: Adobe Illustrator 23.1.1, SVG Export Plug-In . SVG Version: 6.00 Build 0)  -->
<svg version="1.1" id="Layer_1" xmlns="http://www.w3.org/2000/svg" xmlns:xlink="http://www.w3.org/1999/xlink" x="0px" y="0px"
	 viewBox="0 0 576 216" style="enable-background:new 0 0 576 216;" xml:space="preserve">
<style type="text/css">
	.st0{fill:#6D6E71;}
	.st1{fill:#58595B;}
</style>
<g>
	<g>
		<g>
			<path class="st0" d="M79.84,71.42c5.25,8.03,10.51,16.06,15.76,24.09c5.18,7.91,10.28,15.87,15.55,23.72
				c2.81,4.18,5.73,8.29,8.95,12.17c0.21,0.25,0.56-0.11,0.35-0.35c-5.85-7.02-10.7-14.81-15.7-22.44
				c-5.23-7.99-10.46-15.99-15.69-23.98c-2.93-4.48-5.87-8.97-8.8-13.45C80.09,70.9,79.66,71.15,79.84,71.42L79.84,71.42z"/>
		</g>
	</g>
	<g>
		<g>
			<path class="st0" d="M108.85,89.04c7.66,11.55,15.78,22.79,24.34,33.69c2.41,3.07,4.85,6.1,7.32,9.11
				c0.2,0.25,0.56-0.11,0.35-0.35c-8.77-10.68-17.11-21.7-25.01-33.04c-2.23-3.2-4.41-6.42-6.57-9.67
				C109.1,88.52,108.67,88.77,108.85,89.04L108.85,89.04z"/>
		</g>
	</g>
	<g>
		<g>
			<path class="st0" d="M132.66,91.19c7.5,11.78,16.03,22.89,25.44,33.21c2.72,2.98,5.51,5.9,8.37,8.74
				c0.23,0.23,0.58-0.13,0.35-0.35c-9.96-9.92-19.1-20.67-27.22-32.15c-2.25-3.18-4.42-6.42-6.52-9.71
				C132.92,90.67,132.48,90.92,132.66,91.19L132.66,91.19z"/>
		</g>
	</g>
	<g>
		<g>
			<path class="st0" d="M158.31,83.51c3.18,8.36,7.34,16.33,12.37,23.72c0.18,0.26,0.61,0.01,0.43-0.25
				c-5.01-7.36-9.15-15.29-12.32-23.6C158.67,83.08,158.19,83.21,158.31,83.51L158.31,83.51z"/>
		</g>
	</g>
	<g>
		<g>
			<path class="st0" d="M150.34,86.99c2.08,4.87,5.5,8.94,8.55,13.21c3.18,4.44,6.09,9.07,8.73,13.85c1.51,2.74,2.93,5.52,4.25,8.35
				c0.14,0.29,0.57,0.04,0.43-0.25c-2.34-4.99-4.97-9.85-7.87-14.53c-2.83-4.57-6.05-8.84-9.17-13.21
				c-1.72-2.42-3.32-4.93-4.49-7.66C150.65,86.44,150.22,86.69,150.34,86.99L150.34,86.99z"/>
		</g>
	</g>
	<g>
		<g>
			<path class="st0" d="M140.26,90.34c7.06,10.37,14.69,20.34,22.86,29.87c2.34,2.73,4.73,5.43,7.15,8.09
				c0.22,0.24,0.57-0.12,0.35-0.35c-8.5-9.32-16.49-19.1-23.91-29.3c-2.05-2.82-4.06-5.68-6.02-8.56
				C140.51,89.83,140.08,90.08,140.26,90.34L140.26,90.34z"/>
		</g>
	</g>
	<g>
		<g>
			<path class="st0" d="M122.52,90.34c6.64,11.52,13.55,22.9,20.72,34.1c2.01,3.15,4.04,6.28,6.1,9.4c0.18,0.27,0.61,0.02,0.43-0.25
				c-7.31-11.12-14.37-22.4-21.16-33.84c-1.9-3.21-3.79-6.43-5.65-9.66C122.79,89.81,122.36,90.06,122.52,90.34L122.52,90.34z"/>
		</g>
	</g>
	<g>
		<g>
			<path class="st0" d="M93.6,81.29c3.22,7.11,7.03,13.94,11.17,20.55c4.18,6.66,8.69,13.1,13.32,19.46
				c2.62,3.6,5.29,7.18,7.95,10.76c0.19,0.26,0.62,0.01,0.43-0.25c-4.7-6.32-9.41-12.64-13.9-19.11
				c-4.47-6.43-8.74-13.01-12.56-19.86c-2.15-3.85-4.15-7.78-5.97-11.8C93.9,80.74,93.47,80.99,93.6,81.29L93.6,81.29z"/>
		</g>
	</g>
	<g>
		<g>
			<path class="st0" d="M11.2,78.28c3.82,7.69,7.95,15.23,12.38,22.58c4.4,7.31,9.09,14.44,14.06,21.36
				c2.75,3.83,5.59,7.59,8.51,11.29c0.2,0.25,0.55-0.1,0.35-0.35c-5.25-6.65-10.23-13.51-14.91-20.57
				c-4.71-7.09-9.14-14.38-13.27-21.82c-2.33-4.2-4.56-8.45-6.69-12.74C11.48,77.74,11.05,78,11.2,78.28L11.2,78.28z"/>
		</g>
	</g>
	<g>
		<g>
			<path class="st0" d="M9.76,91.95c5.57,11.33,11.9,22.28,18.94,32.76c1.99,2.96,4.04,5.88,6.14,8.76
				c0.19,0.26,0.62,0.01,0.43-0.25c-7.44-10.2-14.2-20.9-20.19-32.02c-1.69-3.13-3.32-6.3-4.89-9.5
				C10.05,91.41,9.62,91.66,9.76,91.95L9.76,91.95z"/>
		</g>
	</g>
	<g>
		<g>
			<path class="st0" d="M9.56,101.38c4.11,9.09,9.06,17.79,14.8,25.95c1.59,2.26,3.25,4.49,4.95,6.67c0.2,0.25,0.55-0.1,0.35-0.35
				c-6.11-7.81-11.49-16.18-16.04-24.99c-1.28-2.47-2.49-4.98-3.64-7.52C9.86,100.83,9.43,101.09,9.56,101.38L9.56,101.38z"/>
		</g>
	</g>
	<g>
		<g>
			<path class="st0" d="M11.47,114.71c-0.01-0.02-0.02-0.05-0.03-0.07c-0.05-0.11-0.18-0.13-0.28-0.11
				c-0.65,0.12-0.21,1.05-0.08,1.37c0.38,0.93,0.78,1.85,1.19,2.76c0.83,1.84,1.73,3.66,2.69,5.44c1.93,3.58,4.13,7.02,6.57,10.28
				c0.12,0.16,0.31,0.16,0.43,0c0.33-0.43,0.28-0.98-0.06-1.38c-0.21-0.24-0.56,0.11-0.35,0.35c0.21,0.25,0.16,0.55-0.01,0.77
				c0.14,0,0.29,0,0.43,0c-2.17-2.9-4.15-5.94-5.92-9.1c-0.88-1.57-1.7-3.16-2.48-4.78c-0.39-0.81-0.77-1.63-1.13-2.46
				c-0.1-0.23-1.12-2.78-1.13-2.78c-0.09-0.04-0.19-0.08-0.28-0.11c0.01,0.02,0.02,0.05,0.03,0.07
				C11.18,115.25,11.61,115,11.47,114.71L11.47,114.71z"/>
		</g>
	</g>
	<g>
		<g>
			<path class="st0" d="M159.67,134.21c3.73-4.61,7.8-8.92,12.19-12.9c0.24-0.22-0.12-0.57-0.35-0.35
				c-4.39,3.98-8.47,8.29-12.19,12.9C159.11,134.11,159.46,134.46,159.67,134.21L159.67,134.21z"/>
		</g>
	</g>
	<g>
		<g>
			<path class="st0" d="M147.56,134.45c0.65-2.05,2.55-3.4,4.08-4.77c1.7-1.53,3.37-3.08,5.01-4.67c3.32-3.2,6.52-6.51,9.59-9.94
				c1.76-1.96,3.48-3.95,5.15-5.98c0.2-0.25-0.15-0.6-0.35-0.35c-6.02,7.28-12.57,14.11-19.59,20.43c-1.66,1.49-3.67,2.93-4.38,5.15
				C146.98,134.63,147.46,134.76,147.56,134.45L147.56,134.45z"/>
		</g>
	</g>
	<g>
		<g>
			<path class="st0" d="M139.83,131.94c2.16-5.23,7.13-8.7,11.18-12.39c4.47-4.08,8.75-8.38,12.8-12.88
				c2.31-2.56,4.54-5.19,6.7-7.88c0.2-0.25-0.15-0.6-0.35-0.35c-3.89,4.84-8.02,9.49-12.37,13.91c-2.2,2.24-4.47,4.42-6.78,6.55
				c-2.11,1.93-4.31,3.76-6.37,5.73c-2.17,2.08-4.12,4.39-5.27,7.19C139.22,132.1,139.7,132.23,139.83,131.94L139.83,131.94z"/>
		</g>
	</g>
	<g>
		<g>
			<path class="st0" d="M127.75,131.25c11.39-10.43,22.47-21.18,33.25-32.24c3.03-3.11,6.04-6.25,9.02-9.41
				c0.22-0.23-0.13-0.59-0.35-0.35c-10.6,11.23-21.51,22.17-32.73,32.78c-3.15,2.98-6.33,5.94-9.53,8.87
				C127.16,131.11,127.51,131.46,127.75,131.25L127.75,131.25z"/>
		</g>
	</g>
	<g>
		<g>
			<path class="st0" d="M112.01,132.21c7.23-6.21,14.43-12.46,21.6-18.75c7.19-6.31,14.36-12.66,21.48-19.05
				c4.01-3.59,8-7.19,11.98-10.81c0.24-0.22-0.12-0.57-0.35-0.35c-7.06,6.4-14.15,12.77-21.27,19.09
				c-7.16,6.36-14.35,12.68-21.57,18.96c-4.06,3.53-8.14,7.05-12.22,10.56C111.41,132.06,111.77,132.41,112.01,132.21L112.01,132.21
				z"/>
		</g>
	</g>
	<g>
		<g>
			<path class="st0" d="M100.09,131.55c5.54-6.62,11.9-12.49,18.54-17.99c6.68-5.53,13.64-10.7,20.47-16.03
				c1.91-1.49,3.84-2.98,5.7-4.54c1.78-1.51,3.46-3.15,4.71-5.13c0.17-0.27-0.26-0.52-0.43-0.25c-2.29,3.62-5.98,6.17-9.3,8.77
				c-3.44,2.7-6.91,5.34-10.37,8.01c-6.75,5.2-13.45,10.49-19.67,16.32c-3.53,3.31-6.89,6.79-10,10.5
				C99.53,131.45,99.88,131.8,100.09,131.55L100.09,131.55z"/>
		</g>
	</g>
	<g>
		<g>
			<path class="st0" d="M80.95,132.41c6.17-5.95,12.87-11.3,19.71-16.46c6.79-5.13,13.72-10.09,20.43-15.32
				c3.78-2.95,7.5-5.99,11.07-9.19c0.24-0.22-0.11-0.57-0.35-0.35c-6.39,5.72-13.22,10.92-20.1,16.04
				c-6.83,5.07-13.72,10.07-20.32,15.44c-3.72,3.03-7.34,6.17-10.79,9.5C80.37,132.28,80.72,132.63,80.95,132.41L80.95,132.41z"/>
		</g>
	</g>
	<g>
		<g>
			<path class="st0" d="M9.75,113.57c2.82-3.79,6.39-6.93,10.08-9.85c3.77-2.98,7.63-5.84,11.37-8.86
				c7.73-6.24,15.15-12.86,22.24-19.83c3.99-3.93,7.88-7.96,11.65-12.1c0.22-0.24-0.14-0.59-0.35-0.35
				c-6.75,7.4-13.85,14.47-21.29,21.17c-3.7,3.34-7.49,6.59-11.35,9.74c-3.78,3.08-7.66,6.02-11.51,9
				c-4.12,3.2-8.13,6.6-11.26,10.82C9.13,113.58,9.56,113.83,9.75,113.57L9.75,113.57z"/>
		</g>
	</g>
	<g>
		<g>
			<path class="st0" d="M12.61,98.38c5.84-5.52,12.42-10.16,19.01-14.73c6.5-4.5,13.06-8.97,19-14.21c3.34-2.95,6.47-6.16,9.21-9.69
				c0.2-0.25-0.16-0.61-0.35-0.35c-4.88,6.29-10.97,11.48-17.33,16.21c-6.43,4.77-13.16,9.1-19.57,13.88
				c-3.58,2.67-7.06,5.47-10.31,8.54C12.02,98.25,12.38,98.6,12.61,98.38L12.61,98.38z"/>
		</g>
	</g>
	<g>
		<g>
			<path class="st0" d="M10.24,87.62c12.23-7.53,24.24-15.42,36-23.66c3.28-2.3,6.55-4.63,9.79-6.98c0.26-0.19,0.01-0.62-0.25-0.43
				c-11.62,8.43-23.49,16.52-35.59,24.25c-3.38,2.16-6.78,4.29-10.2,6.39C9.71,87.35,9.96,87.79,10.24,87.62L10.24,87.62z"/>
		</g>
	</g>
	<g>
		<g>
			<path class="st0" d="M12.18,74.38c1.29-1.9,3.3-3.07,5.31-4.09c2.29-1.16,4.61-2.29,6.89-3.47c4.65-2.41,9.25-4.95,13.77-7.6
				c2.6-1.52,5.18-3.09,7.74-4.69c0.27-0.17,0.02-0.6-0.25-0.43c-9.15,5.72-18.6,10.82-28.23,15.67c-2.15,1.08-4.28,2.33-5.66,4.35
				C11.57,74.39,12,74.64,12.18,74.38L12.18,74.38z"/>
		</g>
	</g>
	<g>
		<g>
			<path class="st0" d="M9.85,122.02c8.89-6.59,17.7-13.29,26.43-20.1c8.74-6.82,17.4-13.74,25.98-20.76
				c4.85-3.97,9.67-7.98,14.47-12.02c0.25-0.21-0.11-0.56-0.35-0.35c-8.45,7.11-16.98,14.13-25.59,21.04
				c-8.66,6.95-17.41,13.79-26.24,20.53c-4.96,3.78-9.94,7.53-14.94,11.24C9.34,121.77,9.59,122.21,9.85,122.02L9.85,122.02z"/>
		</g>
	</g>
	<g>
		<g>
			<path class="st0" d="M12.74,128.57c9.34-6.96,18.68-13.93,28.02-20.89c9.26-6.9,18.51-13.81,27.77-20.71
				c4.99-3.72,10.02-7.41,15.44-10.49c0.28-0.16,0.03-0.59-0.25-0.43c-4.8,2.73-9.3,5.93-13.73,9.22
				c-4.63,3.43-9.25,6.89-13.87,10.34c-9.27,6.91-18.54,13.83-27.82,20.74c-5.27,3.93-10.54,7.86-15.81,11.79
				C12.24,128.33,12.49,128.76,12.74,128.57L12.74,128.57z"/>
		</g>
	</g>
	<g>
		<g>
			<path class="st0" d="M18.11,132.66c9.35-7.35,18.78-14.6,28.29-21.74c9.4-7.06,18.88-14.01,28.43-20.85
				c5.4-3.87,10.83-7.71,16.28-11.51c0.26-0.18,0.01-0.62-0.25-0.43c-9.74,6.79-19.4,13.69-28.99,20.7
				c-9.55,6.99-19.03,14.08-28.42,21.28c-5.26,4.03-10.5,8.1-15.7,12.2C17.51,132.51,17.86,132.86,18.11,132.66L18.11,132.66z"/>
		</g>
	</g>
	<g>
		<g>
			<path class="st0" d="M28.82,133.9c3.73-3.91,8.45-6.63,13.09-9.31c4.88-2.82,9.71-5.73,14.47-8.76
				c9.59-6.09,18.91-12.59,27.93-19.48c5.03-3.85,9.97-7.81,14.81-11.9c0.25-0.21-0.11-0.56-0.35-0.35
				c-8.72,7.36-17.76,14.33-27.09,20.9c-9.28,6.54-18.85,12.67-28.67,18.37c-5.12,2.97-10.42,5.84-14.54,10.17
				C28.24,133.78,28.6,134.13,28.82,133.9L28.82,133.9z"/>
		</g>
	</g>
	<g>
		<g>
			<path class="st0" d="M42.49,131.97c8.95-5.8,17.9-11.61,26.86-17.41c8.46-5.49,16.99-10.9,25.19-16.79
				c4.53-3.25,8.95-6.66,13.18-10.3c0.24-0.21-0.11-0.56-0.35-0.35c-7.56,6.51-15.73,12.25-24.04,17.75
				c-8.63,5.71-17.35,11.29-26.03,16.92c-5.02,3.25-10.03,6.5-15.05,9.76C41.97,131.72,42.22,132.15,42.49,131.97L42.49,131.97z"/>
		</g>
	</g>
	<g>
		<g>
			<path class="st0" d="M59.81,130.47c7.84-4.61,15.54-9.47,23.08-14.56c7.54-5.09,14.92-10.43,22.12-15.99
				c4-3.09,7.95-6.25,11.84-9.47c0.25-0.21-0.11-0.56-0.35-0.35c-6.99,5.79-14.16,11.36-21.5,16.71
				c-7.29,5.31-14.75,10.39-22.37,15.23c-4.31,2.74-8.67,5.41-13.08,8C59.28,130.2,59.53,130.63,59.81,130.47L59.81,130.47z"/>
		</g>
	</g>
	<g>
		<g>
			<path class="st0" d="M107.13,130.45c-3.12-4.04-5.97-8.27-8.58-12.66c-2.52-4.24-4.86-8.57-7.43-12.78
				c-1.27-2.08-2.6-4.13-4.02-6.1c-1.43-1.98-2.99-3.85-4.54-5.73c-1.64-1.98-3.19-4.02-4.51-6.23c-1.27-2.14-2.37-4.38-3.43-6.63
				c-2.55-5.43-5.05-10.88-7.58-16.31c-0.14-0.29-0.57-0.04-0.43,0.25c2.27,4.88,4.53,9.76,6.8,14.65c2.11,4.53,4.3,8.96,7.4,12.91
				c1.61,2.05,3.35,4,4.92,6.09c1.47,1.94,2.83,3.97,4.13,6.03c2.62,4.17,4.97,8.5,7.45,12.75c2.86,4.9,5.98,9.63,9.46,14.12
				C106.97,131.05,107.32,130.7,107.13,130.45L107.13,130.45z"/>
		</g>
	</g>
	<g>
		<g>
			<path class="st0" d="M93.47,129.89c-5.95-9.49-11.79-19.05-17.5-28.69c-5.71-9.63-11.3-19.34-16.76-29.12
				c-3.08-5.5-6.11-11.03-9.11-16.58c-0.15-0.28-0.58-0.03-0.43,0.25C55,65.61,60.44,75.39,66.01,85.11
				c5.57,9.72,11.27,19.36,17.08,28.93c3.28,5.39,6.59,10.76,9.95,16.1C93.21,130.42,93.65,130.17,93.47,129.89L93.47,129.89z"/>
		</g>
	</g>
	<g>
		<g>
			<path class="st0" d="M82.08,128.85c-4.24-4.04-7.54-8.91-10.5-13.93c-3.11-5.27-6.05-10.66-8.97-16.04
				c-2.97-5.46-5.76-11-8.43-16.61c-2.38-4.99-4.81-10-8.01-14.53c-1.74-2.46-3.71-4.72-5.92-6.78c-2.15-2.01-4.51-4.04-5.5-6.91
				c-0.1-0.3-0.59-0.17-0.48,0.13c0.83,2.41,2.59,4.27,4.41,5.99c2.01,1.89,3.96,3.78,5.67,5.95c3.47,4.42,6.06,9.46,8.49,14.5
				c2.65,5.5,5.3,10.98,8.19,16.37c2.98,5.57,6.04,11.1,9.2,16.57c3.24,5.62,6.8,11.13,11.51,15.63
				C81.96,129.43,82.31,129.07,82.08,128.85L82.08,128.85z"/>
		</g>
	</g>
	<g>
		<g>
			<path class="st0" d="M26.38,55.89c2.35,11,9.86,19.81,16.85,28.24c3.72,4.5,7.4,9.03,10.5,13.99c3.31,5.29,6.07,10.89,8.96,16.42
				c3.22,6.17,6.64,12.27,11.06,17.67c0.2,0.25,0.56-0.11,0.35-0.35c-7.92-9.69-12.46-21.48-18.82-32.15
				c-2.95-4.95-6.42-9.5-10.07-13.94c-3.6-4.38-7.3-8.68-10.56-13.33c-3.54-5.07-6.5-10.59-7.8-16.67
				C26.79,55.44,26.31,55.57,26.38,55.89L26.38,55.89z"/>
		</g>
	</g>
	<g>
		<g>
			<path class="st0" d="M18.49,60.69c5.06,9.51,10.28,18.94,15.64,28.29c5.35,9.31,10.84,18.53,16.48,27.67
				c3.19,5.16,6.43,10.3,9.71,15.41c0.17,0.27,0.61,0.02,0.43-0.25c-5.83-9.06-11.51-18.22-17.05-27.46
				c-5.51-9.21-10.88-18.51-16.09-27.9c-2.95-5.31-5.85-10.64-8.7-16C18.77,60.16,18.33,60.41,18.49,60.69L18.49,60.69z"/>
		</g>
	</g>
	<g>
		<g>
			<path class="st0" d="M13.76,66.43c5.05,9.7,10.1,19.4,15.15,29.1c4.5,8.64,8.91,17.37,14.33,25.48
				c2.96,4.43,6.24,8.67,9.93,12.51c0.22,0.23,0.58-0.12,0.35-0.35c-6.67-6.95-11.88-15.1-16.54-23.48
				c-4.99-8.97-9.59-18.16-14.32-27.26c-2.82-5.42-5.64-10.85-8.47-16.27C14.04,65.9,13.61,66.15,13.76,66.43L13.76,66.43z"/>
		</g>
	</g>
</g>
<g>
	<g>
		<path d="M169.75,77.51c-0.96,15.51,3.08,30.77,3,46.25c-0.01,2.13-0.1,4.26-0.3,6.37c-0.1,1.12-0.24,2.25-0.41,3.36
			c-0.14,0.89-0.33,1.49,0.4,2.13c-0.1-0.24-0.2-0.47-0.29-0.71c-0.07,0.99,1.01,1.49,1.83,1.08c0.86-0.43,1.03-1.5,0.38-2.2
			c-0.77-0.83-2.01-0.48-2.98-0.35c-1.36,0.19-2.73,0.37-4.1,0.45c-5.59,0.36-11.27-0.34-16.85-0.63
			c-11.33-0.58-22.68-0.9-34.02-1.06c-11.29-0.16-22.59-0.17-33.88-0.13c-11.36,0.04-22.72,0.11-34.08,0.17
			c-11.31,0.06-22.62,0.12-33.93,0.18c-1.4,0.01-2.8,0.01-4.19,0.02c0.24,0.57,0.47,1.14,0.71,1.71c0.68-0.56,0.44-1.67,0.44-2.45
			c0.01-1.2,0.01-2.39,0.02-3.59c0.01-2.28,0.03-4.57,0.04-6.85c0.03-4.46,0.06-8.92,0.08-13.38c0.06-9.03,0.11-18.06,0.17-27.08
			c0.03-4.46,0.06-8.92,0.08-13.38c0-0.71-0.11-1.46,0.13-2.12c0.07-0.19,0.12-0.45,0.23-0.62c0.06-0.1-0.2,0.16,0.07,0.09
			c0.21-0.06,0.53-0.47,0.7-0.62c1.36-1.2,2.78-2.32,4.28-3.35c6.18-4.26,13.39-6.72,20.93-6.72c16.28,0.01,30.43,9.71,43.35,18.5
			c6.49,4.42,13.04,8.83,20.17,12.19c6.73,3.17,13.86,5.19,21.26,5.97c14.56,1.53,29.71-1.79,42.13-9.58
			c1.74-1.09,3.43-2.27,5.06-3.51c1.01-0.77,0.02-2.51-1.01-1.73c-12.03,9.12-26.87,13.74-41.95,13.13
			c-7.36-0.3-14.64-1.87-21.46-4.67c-7.32-3.01-14.03-7.34-20.58-11.75C72.1,63.8,58.63,54.01,42.45,52.31
			c-7.62-0.8-15.27,0.65-22.04,4.24c-3.18,1.69-6.12,3.81-8.82,6.18c-0.53,0.46-1.06,0.85-1.32,1.51c-0.21,0.54-0.37,0.97-0.39,1.55
			c-0.08,2.28-0.03,4.57-0.04,6.85c-0.11,18.06-0.23,36.11-0.34,54.17c-0.01,2.18-0.03,4.35-0.04,6.53c0.1-0.24,0.2-0.47,0.29-0.71
			c-0.05,0.04-0.09,0.08-0.14,0.12c-0.69,0.57-0.1,1.71,0.71,1.71c21.57-0.11,43.15-0.23,64.72-0.33
			c21.61-0.1,43.22-0.13,64.82,0.69c6.07,0.23,12.15,0.53,18.21,0.9c2.96,0.18,5.93,0.38,8.9,0.21c1.45-0.08,2.89-0.26,4.33-0.46
			c0.39-0.05,2.81-0.26,2.86-0.54c0.07-0.42-0.31-0.72-0.58-0.96c0.09,0.32,0.17,0.65,0.26,0.97c2.49-14.92-0.88-29.82-1.94-44.7
			c-0.3-4.24-0.4-8.49-0.14-12.73C171.83,76.22,169.83,76.23,169.75,77.51L169.75,77.51z"/>
	</g>
</g>
<g>
	<g>
		<g>
			<g>
				<path class="st1" d="M186.34,61.72c2.51,0.07,5.01,0.3,7.48,0.69c0.31,0.05,0.45-0.43,0.13-0.48c-2.52-0.4-5.06-0.64-7.61-0.71
					C186.01,61.21,186.02,61.71,186.34,61.72L186.34,61.72z"/>
			</g>
		</g>
		<g>
			<g>
				<path class="st1" d="M180.86,69.31c3.27-0.54,6.62-0.56,9.89-0.01c0.74,0.12,1.5,0.25,2.21,0.48c0.28,0.09,0.74,0.19,0.89-0.16
					c0.21-0.52-0.77-0.87-0.72-0.26c0.03,0.32,0.53,0.32,0.5,0c0,0.01-1.52-0.31-1.7-0.35c-0.54-0.11-1.09-0.21-1.63-0.29
					c-1.04-0.15-2.08-0.26-3.13-0.3c-2.16-0.1-4.31,0.05-6.44,0.4C180.41,68.88,180.55,69.36,180.86,69.31L180.86,69.31z"/>
			</g>
		</g>
		<g>
			<g>
				<path class="st1" d="M174.46,76.2c6.14,0.27,12.27,0.54,18.41,0.82c0.32,0.01,0.32-0.49,0-0.5c-6.14-0.27-12.27-0.54-18.41-0.82
					C174.14,75.69,174.14,76.19,174.46,76.2L174.46,76.2z"/>
			</g>
		</g>
		<g>
			<g>
				<path class="st1" d="M170.4,84.84c5.19-0.05,10.37,0,15.55,0.15c2.57,0.07,5.13,0.19,7.7,0.3c0.27,0.01,1.5-0.02,1.07-0.62
					c-0.21-0.29-0.82-0.27-0.84,0.14c-0.01,0.32,0.49,0.32,0.5,0c-0.17,0.12-0.18,0.19-0.01,0.21c-0.02-0.08-0.04-0.16-0.06-0.24
					c-0.03,0.13-2.52-0.08-2.76-0.09c-0.99-0.04-1.99-0.08-2.98-0.12c-2.03-0.07-4.06-0.13-6.09-0.17
					c-4.02-0.08-8.05-0.1-12.07-0.06C170.08,84.34,170.08,84.84,170.4,84.84L170.4,84.84z"/>
			</g>
		</g>
		<g>
			<g>
				<path class="st1" d="M170.28,89.72c1.9,0.48,3.91,0.32,5.84,0.3c2.12-0.02,4.25-0.04,6.37-0.06c4.25-0.04,8.5-0.08,12.75-0.13
					c0.32,0,0.32-0.5,0-0.5c-4.17,0.04-8.33,0.08-12.5,0.12c-2.08,0.02-4.17,0.04-6.25,0.06c-2.01,0.02-4.12,0.22-6.09-0.28
					C170.1,89.16,169.96,89.64,170.28,89.72L170.28,89.72z"/>
			</g>
		</g>
		<g>
			<g>
				<path class="st1" d="M172.22,99.35c4.78,0.2,9.56,0.4,14.34,0.6c2.39,0.1,4.78,0.2,7.17,0.3c0.6,0.03,1.8,0.33,2.22-0.3
					c0.25-0.38,0.06-1.04-0.45-1.01c-0.32,0.02-0.32,0.52,0,0.5c-0.11,0.29-0.29,0.41-0.53,0.36c-0.08,0-0.16-0.01-0.25-0.01
					c-0.25-0.01-0.49-0.02-0.74-0.03c-0.49-0.02-0.99-0.04-1.48-0.06c-0.95-0.04-1.89-0.08-2.84-0.12
					c-1.94-0.08-3.87-0.16-5.81-0.25c-3.87-0.16-7.74-0.33-11.62-0.49C171.9,98.83,171.9,99.33,172.22,99.35L172.22,99.35z"/>
			</g>
		</g>
		<g>
			<g>
				<path class="st1" d="M172.6,106.76c7.75,0.35,15.52,0.35,23.27,0.01c0.32-0.01,0.32-0.51,0-0.5
					c-7.75,0.34-15.52,0.34-23.27-0.01C172.28,106.25,172.28,106.75,172.6,106.76L172.6,106.76z"/>
			</g>
		</g>
		<g>
			<g>
				<path class="st1" d="M173.34,113.01c7.39,0.12,14.77,0.24,22.16,0.37c0.32,0.01,0.32-0.49,0-0.5
					c-7.39-0.12-14.77-0.24-22.16-0.37C173.02,112.51,173.02,113.01,173.34,113.01L173.34,113.01z"/>
			</g>
		</g>
		<g>
			<g>
				<path class="st1" d="M172.84,118.87c7.57-0.28,15.14-0.31,22.71-0.11c-0.02-0.16-0.04-0.33-0.07-0.49
					c-0.29,0.08-0.58,0.17-0.87,0.25c-0.31,0.09-0.18,0.57,0.13,0.48c0.29-0.08,0.58-0.17,0.87-0.25c0.27-0.08,0.22-0.48-0.07-0.49
					c-7.57-0.21-15.14-0.17-22.71,0.11C172.52,118.38,172.52,118.88,172.84,118.87L172.84,118.87z"/>
			</g>
		</g>
		<g>
			<g>
				<path class="st1" d="M174.46,124.65c6.88-0.3,13.78-0.19,20.65,0.34c0.32,0.02,0.32-0.48,0-0.5
					c-6.87-0.53-13.76-0.64-20.65-0.34C174.14,124.16,174.14,124.66,174.46,124.65L174.46,124.65z"/>
			</g>
		</g>
		<g>
			<g>
				<path class="st1" d="M172.95,130.29c7.61,0.36,15.21,0.72,22.82,1.08c0-0.17,0-0.33,0-0.5c-0.47,0.02-0.93,0.04-1.4,0.06
					c-0.32,0.01-0.32,0.51,0,0.5c0.47-0.02,0.93-0.04,1.4-0.06c0.32-0.01,0.32-0.48,0-0.5c-7.61-0.36-15.21-0.72-22.82-1.08
					C172.63,129.78,172.63,130.28,172.95,130.29L172.95,130.29z"/>
			</g>
		</g>
		<g>
			<g>
				<path class="st1" d="M178,135.22c-0.53-15.53-1.06-31.06-1.59-46.59c-0.15-4.4-0.3-8.8-0.45-13.2c-0.01-0.32-0.51-0.32-0.5,0
					c0.53,15.53,1.06,31.06,1.59,46.59c0.15,4.4,0.3,8.8,0.45,13.2C177.52,135.54,178.02,135.54,178,135.22L178,135.22z"/>
			</g>
		</g>
		<g>
			<g>
				<path class="st1" d="M181.4,68.96c0.29,8.53,0.46,17.07,0.52,25.61c0.06,8.51,0.11,17.02,0.17,25.52
					c0.03,4.84,0.06,9.69,0.1,14.53c0,0.32,0.5,0.32,0.5,0c-0.06-8.57-0.11-17.14-0.17-25.71c-0.06-8.48-0.08-16.97-0.24-25.45
					c-0.09-4.84-0.22-9.67-0.38-14.5C181.89,68.64,181.39,68.64,181.4,68.96L181.4,68.96z"/>
			</g>
		</g>
		<g>
			<g>
				<path class="st1" d="M186.22,134.46c-0.17-4.55-0.25-9.12-0.58-13.66c-0.17-2.26-0.47-4.51-0.68-6.77
					c-0.2-2.25-0.26-4.52-0.26-6.78c0-9.25,0.25-18.5,0.39-27.75c0.08-5.19,0.15-10.38,0.23-15.57c0-0.32-0.5-0.32-0.5,0
					c-0.14,9.22-0.27,18.44-0.41,27.66c-0.07,4.65-0.15,9.29-0.2,13.94c-0.02,2.27-0.01,4.54,0.12,6.8
					c0.14,2.27,0.44,4.53,0.66,6.79c0.49,5.1,0.54,10.24,0.73,15.36C185.74,134.78,186.24,134.78,186.22,134.46L186.22,134.46z"/>
			</g>
		</g>
		<g>
			<g>
				<path class="st1" d="M189.01,59.16c0.01-0.02,0.03-0.04,0.04-0.05c0.08-0.09,0.09-0.19,0.04-0.3c-0.08-0.17-0.21-0.22-0.39-0.25
					c-0.09-0.01-0.17,0.06-0.22,0.12c-0.19,0.31-0.11,0.82-0.13,1.17c-0.04,0.66-0.07,1.31-0.1,1.97c-0.05,1.23-0.08,2.46-0.1,3.7
					c-0.03,2.42,0.02,4.85,0.14,7.27c0.23,4.8,0.96,9.55,1.32,14.34c0.36,4.9-0.24,9.75-0.62,14.63c-0.37,4.87-0.26,9.75-0.09,14.62
					c0.19,5.51,0.39,11.03,0.58,16.54c0.01,0.32,0.51,0.32,0.5,0c-0.17-4.85-0.34-9.71-0.51-14.56c-0.17-4.83-0.38-9.67-0.12-14.5
					c0.26-4.81,1-9.6,0.88-14.43c-0.12-4.78-0.97-9.53-1.3-14.3c-0.18-2.66-0.27-5.33-0.28-8.01c0-1.36,0.02-2.71,0.06-4.07
					c0.02-0.66,0.05-1.31,0.08-1.97c0.02-0.37,0.04-0.74,0.06-1.11c0.01-0.12,0.01-0.25,0.02-0.37c0.01-0.12,0.01-0.25,0.02-0.37
					c0.05-0.16-0.03-0.22-0.24-0.18c0.01-0.1,0.03-0.2,0.04-0.3c-0.01,0.02-0.03,0.04-0.04,0.05
					C188.45,59.05,188.81,59.4,189.01,59.16L189.01,59.16z"/>
			</g>
		</g>
		<g>
			<g>
				<path class="st1" d="M190.48,56.88c-0.01,10.33,0.55,20.65,1.1,30.97c0.56,10.35,1.11,20.71,1.06,31.07
					c-0.01,2.89-0.08,5.78-0.2,8.66c-0.1,2.46-0.51,5.12,0.58,7.42c0.14,0.29,0.57,0.04,0.43-0.25c-1.03-2.16-0.61-4.73-0.52-7.04
					c0.11-2.56,0.17-5.11,0.19-7.67c0.05-5.12-0.06-10.24-0.24-15.35c-0.37-10.16-1.05-20.31-1.49-30.46
					c-0.25-5.78-0.42-11.56-0.42-17.34C190.98,56.56,190.48,56.56,190.48,56.88L190.48,56.88z"/>
			</g>
		</g>
		<g>
			<g>
				<path class="st1" d="M172.02,95.58c3.69-0.6,7.41,0.11,11.11,0.09c1.77-0.01,3.47-0.28,5.2-0.65c0.94-0.2,1.88-0.4,2.83-0.5
					c0.46-0.05,0.92-0.07,1.38-0.05c0.19,0.01,0.38,0.02,0.57,0.04c0.03,0,1.18,0.11,1.14,0.06c-0.01,0.1-0.03,0.2-0.04,0.3
					c0.02-0.02,0.03-0.03,0.05-0.05c0.22-0.24-0.14-0.59-0.35-0.35c-0.02,0.02-0.03,0.03-0.05,0.05c-0.07,0.07-0.11,0.21-0.04,0.3
					c0.23,0.3,0.75,0.28,0.72-0.18c-0.05-0.71-1.56-0.66-2.01-0.67c-2.29-0.07-4.5,0.71-6.75,1.02c-4.63,0.64-9.28-0.64-13.91,0.11
					C171.57,95.15,171.71,95.64,172.02,95.58L172.02,95.58z"/>
			</g>
		</g>
	</g>
	<g>
		<g>
			<path d="M170.34,76.84c0.05,7.99,0.19,15.97,0.43,23.95c0.23,7.62,0.5,15.24,0.59,22.86c0.05,4.06,0.06,8.12,0.03,12.17
				c0,0.55,0.46,0.98,1,1c8.03,0.26,16.05,0.52,24.08,0.78c0.63,0.02,1.16-0.66,0.96-1.27c-0.46-1.39-0.46-2.71-0.52-4.25
				c-0.08-2.11-0.06-4.23-0.04-6.35c0.03-2.07,0.08-4.14,0.09-6.21c0.01-1.42,0.02-2.86-0.19-4.27c-1.04-7-0.92-14.09-1-21.14
				c-0.08-7.12-0.15-14.23-0.23-21.35c-0.04-4-0.09-7.99-0.13-11.99c-0.02-2-0.04-4-0.06-5.99c-0.01-1-0.02-2-0.03-3
				c-0.01-0.75-0.26-1.05-0.75-1.53c-0.5-0.49-1.19-0.31-1.57,0.2c-5.34,7.07-10.82,14.11-17.31,20.17
				c-1.8,1.68-3.66,3.28-5.62,4.77c-0.43,0.33-0.65,0.86-0.36,1.37c0.25,0.42,0.94,0.69,1.37,0.36
				c7.24-5.52,13.29-12.34,18.89-19.47c1.61-2.05,3.19-4.12,4.75-6.19c-0.52,0.07-1.05,0.13-1.57,0.2c0.15,0.15,0.3,0.3,0.45,0.44
				c-0.1-0.24-0.2-0.47-0.29-0.71c0.15,13.98,0.3,27.97,0.45,41.95c0.07,6.9-0.1,13.87,0.83,20.73c0.06,0.45,0.12,0.89,0.19,1.34
				c0.02,0.14,0.04,0.28,0.07,0.42c0.03,0.21-0.02-0.2-0.01-0.05c0.03,0.27,0.05,0.53,0.06,0.8c0.04,0.73,0.05,1.46,0.05,2.18
				c0.01,1.96-0.04,3.92-0.07,5.88c-0.04,2.36-0.07,4.72,0.01,7.08c0.06,1.68,0.07,3.51,0.6,5.12c0.32-0.42,0.64-0.84,0.96-1.27
				c-8.03-0.26-16.05-0.52-24.08-0.78c0.33,0.33,0.67,0.67,1,1c0.05-7.81-0.04-15.62-0.25-23.42c-0.19-7.05-0.47-14.1-0.61-21.15
				c-0.1-4.8-0.16-9.61-0.19-14.41C172.33,75.56,170.33,75.55,170.34,76.84L170.34,76.84z"/>
		</g>
	</g>
</g>
<g>
	<g>
		<g>
			<g>
				<path class="st0" d="M333.68,74.3c5.25,8.03,10.51,16.06,15.76,24.09c5.18,7.91,10.28,15.87,15.55,23.72
					c2.81,4.18,5.73,8.29,8.95,12.17c0.21,0.25,0.56-0.11,0.35-0.35c-5.85-7.02-10.7-14.81-15.7-22.44
					c-5.23-7.99-10.46-15.99-15.69-23.98c-2.93-4.48-5.87-8.97-8.8-13.45C333.94,73.78,333.51,74.03,333.68,74.3L333.68,74.3z"/>
			</g>
		</g>
		<g>
			<g>
				<path class="st0" d="M362.69,91.92c7.66,11.55,15.78,22.79,24.34,33.69c2.41,3.07,4.85,6.1,7.32,9.11
					c0.2,0.25,0.56-0.11,0.35-0.35c-8.77-10.68-17.11-21.7-25.01-33.04c-2.23-3.2-4.41-6.42-6.57-9.67
					C362.95,91.4,362.52,91.65,362.69,91.92L362.69,91.92z"/>
			</g>
		</g>
		<g>
			<g>
				<path class="st0" d="M386.5,94.06c7.5,11.78,16.03,22.89,25.44,33.21c2.72,2.98,5.51,5.9,8.37,8.74
					c0.23,0.23,0.58-0.13,0.35-0.35c-9.96-9.92-19.1-20.67-27.22-32.15c-2.25-3.18-4.42-6.42-6.52-9.71
					C386.76,93.54,386.33,93.79,386.5,94.06L386.5,94.06z"/>
			</g>
		</g>
		<g>
			<g>
				<path class="st0" d="M412.15,86.38c3.18,8.36,7.34,16.33,12.37,23.72c0.18,0.26,0.61,0.01,0.43-0.25
					c-5.01-7.36-9.15-15.29-12.32-23.6C412.52,85.95,412.04,86.08,412.15,86.38L412.15,86.38z"/>
			</g>
		</g>
		<g>
			<g>
				<path class="st0" d="M404.19,89.86c2.08,4.87,5.5,8.94,8.55,13.21c3.18,4.44,6.09,9.07,8.73,13.85
					c1.51,2.74,2.93,5.52,4.25,8.35c0.14,0.29,0.57,0.04,0.43-0.25c-2.34-4.99-4.97-9.85-7.87-14.53
					c-2.83-4.57-6.05-8.84-9.17-13.21c-1.72-2.42-3.32-4.93-4.49-7.66C404.5,89.31,404.06,89.57,404.19,89.86L404.19,89.86z"/>
			</g>
		</g>
		<g>
			<g>
				<path class="st0" d="M394.11,93.22c7.06,10.37,14.69,20.34,22.86,29.87c2.34,2.73,4.73,5.43,7.15,8.09
					c0.22,0.24,0.57-0.12,0.35-0.35c-8.5-9.32-16.49-19.1-23.91-29.3c-2.05-2.82-4.06-5.68-6.02-8.56
					C394.36,92.7,393.92,92.95,394.11,93.22L394.11,93.22z"/>
			</g>
		</g>
		<g>
			<g>
				<path class="st0" d="M376.37,93.22c6.64,11.52,13.55,22.9,20.72,34.1c2.01,3.15,4.04,6.28,6.1,9.4
					c0.18,0.27,0.61,0.02,0.43-0.25c-7.31-11.12-14.37-22.4-21.16-33.84c-1.9-3.21-3.79-6.43-5.65-9.66
					C376.64,92.69,376.21,92.94,376.37,93.22L376.37,93.22z"/>
			</g>
		</g>
		<g>
			<g>
				<path class="st0" d="M347.45,84.16c3.22,7.11,7.03,13.94,11.17,20.55c4.18,6.66,8.69,13.1,13.32,19.46
					c2.62,3.6,5.29,7.18,7.95,10.76c0.19,0.26,0.62,0.01,0.43-0.25c-4.7-6.32-9.41-12.64-13.9-19.11
					c-4.47-6.43-8.74-13.01-12.56-19.86c-2.15-3.85-4.15-7.78-5.97-11.8C347.75,83.62,347.31,83.87,347.45,84.16L347.45,84.16z"/>
			</g>
		</g>
		<g>
			<g>
				<path class="st0" d="M265.04,81.16c3.82,7.69,7.95,15.23,12.38,22.58c4.4,7.31,9.09,14.44,14.06,21.36
					c2.75,3.83,5.59,7.59,8.51,11.29c0.2,0.25,0.55-0.1,0.35-0.35c-5.25-6.65-10.23-13.51-14.91-20.57
					c-4.71-7.09-9.14-14.38-13.27-21.82c-2.33-4.2-4.56-8.45-6.69-12.74C265.33,80.62,264.9,80.87,265.04,81.16L265.04,81.16z"/>
			</g>
		</g>
		<g>
			<g>
				<path class="st0" d="M263.61,94.83c5.57,11.33,11.9,22.28,18.94,32.76c1.99,2.96,4.04,5.88,6.14,8.76
					c0.19,0.26,0.62,0.01,0.43-0.25c-7.44-10.2-14.2-20.9-20.19-32.02c-1.69-3.13-3.32-6.3-4.89-9.5
					C263.9,94.29,263.47,94.54,263.61,94.83L263.61,94.83z"/>
			</g>
		</g>
		<g>
			<g>
				<path class="st0" d="M263.4,104.25c4.11,9.09,9.07,17.79,14.8,25.95c1.59,2.26,3.25,4.49,4.95,6.67c0.2,0.25,0.55-0.1,0.35-0.35
					c-6.11-7.81-11.49-16.18-16.04-24.99c-1.28-2.47-2.49-4.98-3.64-7.52C263.7,103.71,263.27,103.96,263.4,104.25L263.4,104.25z"/>
			</g>
		</g>
		<g>
			<g>
				<path class="st0" d="M265.32,117.58c-0.01-0.02-0.02-0.05-0.03-0.07c-0.05-0.11-0.18-0.13-0.28-0.11
					c-0.65,0.12-0.21,1.05-0.08,1.37c0.38,0.93,0.78,1.85,1.19,2.76c0.83,1.84,1.73,3.66,2.69,5.44c1.93,3.58,4.13,7.02,6.57,10.28
					c0.12,0.16,0.31,0.16,0.43,0c0.33-0.43,0.28-0.98-0.06-1.38c-0.21-0.24-0.56,0.11-0.35,0.35c0.21,0.25,0.16,0.55-0.01,0.77
					c0.14,0,0.29,0,0.43,0c-2.17-2.9-4.15-5.94-5.92-9.1c-0.88-1.57-1.7-3.16-2.48-4.78c-0.39-0.81-0.77-1.63-1.13-2.46
					c-0.1-0.23-1.12-2.78-1.13-2.78c-0.09-0.04-0.19-0.08-0.28-0.11c0.01,0.02,0.02,0.05,0.03,0.07
					C265.02,118.13,265.46,117.87,265.32,117.58L265.32,117.58z"/>
			</g>
		</g>
		<g>
			<g>
				<path class="st0" d="M413.51,137.09c3.73-4.61,7.8-8.92,12.19-12.9c0.24-0.22-0.12-0.57-0.35-0.35
					c-4.39,3.98-8.47,8.29-12.19,12.9C412.96,136.98,413.31,137.34,413.51,137.09L413.51,137.09z"/>
			</g>
		</g>
		<g>
			<g>
				<path class="st0" d="M401.4,137.33c0.65-2.05,2.55-3.4,4.08-4.77c1.7-1.53,3.37-3.08,5.01-4.67c3.32-3.2,6.52-6.51,9.59-9.94
					c1.76-1.96,3.48-3.95,5.15-5.98c0.2-0.25-0.15-0.6-0.35-0.35c-6.02,7.28-12.57,14.11-19.59,20.43
					c-1.66,1.49-3.67,2.93-4.38,5.15C400.82,137.5,401.31,137.63,401.4,137.33L401.4,137.33z"/>
			</g>
		</g>
		<g>
			<g>
				<path class="st0" d="M393.67,134.81c2.16-5.23,7.13-8.7,11.18-12.39c4.47-4.08,8.75-8.38,12.8-12.88
					c2.31-2.56,4.54-5.19,6.7-7.88c0.2-0.25-0.15-0.6-0.35-0.35c-3.89,4.84-8.02,9.49-12.37,13.91c-2.2,2.24-4.47,4.42-6.78,6.55
					c-2.11,1.93-4.31,3.76-6.37,5.73c-2.17,2.08-4.12,4.39-5.27,7.19C393.07,134.98,393.55,135.11,393.67,134.81L393.67,134.81z"/>
			</g>
		</g>
		<g>
			<g>
				<path class="st0" d="M381.6,134.12c11.39-10.43,22.47-21.18,33.25-32.24c3.03-3.11,6.04-6.25,9.02-9.41
					c0.22-0.23-0.13-0.59-0.35-0.35c-10.6,11.23-21.51,22.17-32.73,32.78c-3.15,2.98-6.33,5.94-9.53,8.87
					C381.01,133.99,381.36,134.34,381.6,134.12L381.6,134.12z"/>
			</g>
		</g>
		<g>
			<g>
				<path class="st0" d="M365.86,135.08c7.23-6.21,14.43-12.46,21.6-18.75c7.19-6.31,14.36-12.66,21.48-19.05
					c4.01-3.59,8-7.19,11.98-10.81c0.24-0.22-0.12-0.57-0.35-0.35c-7.06,6.4-14.15,12.77-21.27,19.09
					c-7.16,6.36-14.35,12.68-21.57,18.96c-4.06,3.53-8.14,7.05-12.22,10.56C365.26,134.94,365.62,135.29,365.86,135.08
					L365.86,135.08z"/>
			</g>
		</g>
		<g>
			<g>
				<path class="st0" d="M353.94,134.43c5.54-6.62,11.9-12.49,18.54-17.99c6.68-5.53,13.64-10.7,20.47-16.03
					c1.91-1.49,3.84-2.98,5.7-4.54c1.79-1.51,3.46-3.15,4.71-5.13c0.17-0.27-0.26-0.52-0.43-0.25c-2.29,3.62-5.98,6.17-9.3,8.77
					c-3.44,2.7-6.91,5.34-10.37,8.01c-6.75,5.2-13.45,10.49-19.67,16.32c-3.53,3.31-6.89,6.79-10,10.5
					C353.38,134.32,353.73,134.68,353.94,134.43L353.94,134.43z"/>
			</g>
		</g>
		<g>
			<g>
				<path class="st0" d="M334.8,135.28c6.17-5.95,12.87-11.3,19.71-16.46c6.79-5.13,13.72-10.09,20.43-15.32
					c3.78-2.95,7.5-5.99,11.07-9.19c0.24-0.22-0.11-0.57-0.35-0.35c-6.39,5.72-13.22,10.92-20.1,16.04
					c-6.83,5.07-13.72,10.07-20.32,15.44c-3.72,3.03-7.34,6.17-10.79,9.5C334.21,135.15,334.57,135.51,334.8,135.28L334.8,135.28z"
					/>
			</g>
		</g>
		<g>
			<g>
				<path class="st0" d="M263.6,116.45c2.82-3.79,6.39-6.93,10.08-9.85c3.77-2.98,7.63-5.84,11.37-8.86
					c7.73-6.24,15.15-12.86,22.24-19.83c3.99-3.93,7.88-7.96,11.65-12.1c0.22-0.24-0.14-0.59-0.35-0.35
					c-6.75,7.4-13.85,14.47-21.29,21.17c-3.7,3.34-7.49,6.59-11.35,9.74c-3.78,3.08-7.66,6.02-11.51,9
					c-4.12,3.2-8.13,6.6-11.26,10.82C262.97,116.45,263.41,116.7,263.6,116.45L263.6,116.45z"/>
			</g>
		</g>
		<g>
			<g>
				<path class="st0" d="M266.46,101.26c5.84-5.52,12.42-10.16,19.01-14.73c6.5-4.5,13.06-8.97,19-14.21
					c3.34-2.95,6.47-6.16,9.21-9.69c0.2-0.25-0.16-0.61-0.35-0.35c-4.88,6.29-10.97,11.48-17.33,16.21
					c-6.43,4.77-13.16,9.1-19.57,13.88c-3.58,2.67-7.06,5.47-10.31,8.54C265.87,101.12,266.23,101.48,266.46,101.26L266.46,101.26z"
					/>
			</g>
		</g>
		<g>
			<g>
				<path class="st0" d="M264.08,90.49c12.23-7.53,24.24-15.42,36-23.66c3.28-2.3,6.55-4.63,9.79-6.98
					c0.26-0.19,0.01-0.62-0.25-0.43c-11.62,8.43-23.49,16.52-35.59,24.25c-3.38,2.16-6.78,4.29-10.2,6.39
					C263.56,90.23,263.81,90.66,264.08,90.49L264.08,90.49z"/>
			</g>
		</g>
		<g>
			<g>
				<path class="st0" d="M266.03,77.25c1.29-1.9,3.3-3.07,5.31-4.09c2.29-1.16,4.61-2.29,6.89-3.47c4.65-2.41,9.25-4.95,13.77-7.6
					c2.6-1.52,5.18-3.09,7.74-4.69c0.27-0.17,0.02-0.6-0.25-0.43c-9.15,5.72-18.6,10.82-28.23,15.67c-2.15,1.08-4.28,2.33-5.66,4.35
					C265.41,77.26,265.85,77.51,266.03,77.25L266.03,77.25z"/>
			</g>
		</g>
		<g>
			<g>
				<path class="st0" d="M263.7,124.89c8.89-6.59,17.7-13.29,26.43-20.1c8.74-6.82,17.4-13.74,25.98-20.76
					c4.85-3.97,9.67-7.98,14.47-12.02c0.25-0.21-0.11-0.56-0.35-0.35c-8.45,7.11-16.98,14.13-25.59,21.04
					c-8.66,6.95-17.41,13.79-26.24,20.53c-4.96,3.78-9.94,7.53-14.94,11.24C263.19,124.65,263.44,125.08,263.7,124.89L263.7,124.89z
					"/>
			</g>
		</g>
		<g>
			<g>
				<path class="st0" d="M266.59,131.44c9.34-6.96,18.68-13.93,28.02-20.89c9.26-6.9,18.51-13.81,27.77-20.71
					c4.99-3.72,10.02-7.41,15.44-10.49c0.28-0.16,0.03-0.59-0.25-0.43c-4.8,2.73-9.3,5.93-13.73,9.22
					c-4.63,3.43-9.25,6.89-13.87,10.34c-9.27,6.91-18.54,13.83-27.82,20.74c-5.27,3.93-10.54,7.86-15.81,11.79
					C266.08,131.2,266.33,131.64,266.59,131.44L266.59,131.44z"/>
			</g>
		</g>
		<g>
			<g>
				<path class="st0" d="M271.96,135.54c9.35-7.35,18.78-14.6,28.29-21.74c9.4-7.06,18.88-14.01,28.43-20.85
					c5.4-3.87,10.83-7.71,16.28-11.51c0.26-0.18,0.01-0.62-0.25-0.43c-9.74,6.79-19.4,13.69-28.99,20.7
					c-9.55,6.99-19.03,14.08-28.42,21.28c-5.26,4.03-10.5,8.1-15.7,12.2C271.36,135.38,271.71,135.73,271.96,135.54L271.96,135.54z"
					/>
			</g>
		</g>
		<g>
			<g>
				<path class="st0" d="M282.67,136.77c3.73-3.91,8.45-6.63,13.09-9.31c4.88-2.82,9.71-5.73,14.47-8.76
					c9.59-6.09,18.91-12.59,27.93-19.48c5.03-3.85,9.97-7.81,14.81-11.9c0.25-0.21-0.11-0.56-0.35-0.35
					c-8.72,7.36-17.76,14.33-27.09,20.9c-9.28,6.54-18.85,12.67-28.67,18.37c-5.12,2.97-10.42,5.84-14.54,10.17
					C282.09,136.65,282.44,137,282.67,136.77L282.67,136.77z"/>
			</g>
		</g>
		<g>
			<g>
				<path class="st0" d="M296.34,134.85c8.95-5.8,17.9-11.61,26.86-17.41c8.46-5.49,16.99-10.9,25.19-16.79
					c4.53-3.25,8.95-6.66,13.18-10.3c0.24-0.21-0.11-0.56-0.35-0.35c-7.56,6.51-15.73,12.25-24.04,17.75
					c-8.63,5.71-17.35,11.29-26.03,16.92c-5.02,3.25-10.03,6.5-15.05,9.76C295.82,134.59,296.07,135.03,296.34,134.85L296.34,134.85
					z"/>
			</g>
		</g>
		<g>
			<g>
				<path class="st0" d="M313.65,133.35c7.84-4.61,15.54-9.47,23.08-14.56c7.54-5.09,14.92-10.43,22.12-15.99
					c4-3.09,7.95-6.25,11.84-9.47c0.25-0.21-0.11-0.56-0.35-0.35c-6.99,5.79-14.16,11.36-21.5,16.71
					c-7.29,5.31-14.75,10.39-22.37,15.23c-4.31,2.74-8.67,5.41-13.08,8C313.12,133.08,313.38,133.51,313.65,133.35L313.65,133.35z"
					/>
			</g>
		</g>
		<g>
			<g>
				<path class="st0" d="M360.98,133.32c-3.12-4.04-5.97-8.27-8.58-12.66c-2.52-4.24-4.86-8.57-7.43-12.78
					c-1.27-2.08-2.6-4.13-4.02-6.1c-1.43-1.98-2.99-3.85-4.54-5.73c-1.64-1.98-3.19-4.02-4.51-6.23c-1.27-2.14-2.37-4.38-3.43-6.63
					c-2.55-5.43-5.05-10.88-7.58-16.31c-0.14-0.29-0.57-0.04-0.43,0.25c2.27,4.88,4.53,9.76,6.8,14.65c2.11,4.53,4.3,8.96,7.4,12.91
					c1.61,2.05,3.35,4,4.92,6.09c1.47,1.94,2.83,3.97,4.13,6.03c2.62,4.17,4.97,8.5,7.45,12.75c2.86,4.9,5.98,9.63,9.46,14.12
					C360.82,133.93,361.17,133.57,360.98,133.32L360.98,133.32z"/>
			</g>
		</g>
		<g>
			<g>
				<path class="st0" d="M347.32,132.77c-5.95-9.49-11.79-19.05-17.5-28.69c-5.71-9.63-11.3-19.34-16.76-29.12
					c-3.08-5.5-6.11-11.03-9.11-16.58c-0.15-0.28-0.58-0.03-0.43,0.25c5.32,9.85,10.77,19.64,16.33,29.35
					c5.57,9.72,11.27,19.36,17.08,28.93c3.28,5.39,6.59,10.76,9.95,16.1C347.06,133.29,347.49,133.04,347.32,132.77L347.32,132.77z"
					/>
			</g>
		</g>
		<g>
			<g>
				<path class="st0" d="M335.93,131.73c-4.24-4.04-7.54-8.91-10.5-13.93c-3.11-5.27-6.05-10.66-8.97-16.04
					c-2.97-5.46-5.76-11-8.43-16.61c-2.38-4.99-4.81-10-8.01-14.53c-1.74-2.46-3.71-4.72-5.92-6.78c-2.15-2.01-4.51-4.04-5.5-6.91
					c-0.1-0.3-0.59-0.17-0.48,0.13c0.83,2.41,2.59,4.27,4.41,5.99c2.01,1.89,3.96,3.78,5.67,5.95c3.47,4.42,6.06,9.46,8.49,14.5
					c2.65,5.5,5.3,10.98,8.19,16.37c2.98,5.57,6.04,11.1,9.2,16.57c3.24,5.62,6.8,11.13,11.51,15.63
					C335.8,132.3,336.16,131.95,335.93,131.73L335.93,131.73z"/>
			</g>
		</g>
		<g>
			<g>
				<path class="st0" d="M280.22,58.76c2.35,11,9.86,19.81,16.85,28.24c3.72,4.5,7.4,9.03,10.5,13.99
					c3.31,5.29,6.07,10.89,8.96,16.42c3.22,6.17,6.64,12.27,11.06,17.67c0.2,0.25,0.56-0.11,0.35-0.35
					c-7.92-9.69-12.46-21.48-18.82-32.15c-2.95-4.95-6.42-9.5-10.07-13.94c-3.6-4.38-7.3-8.68-10.56-13.33
					c-3.54-5.07-6.5-10.59-7.8-16.67C280.64,58.31,280.16,58.45,280.22,58.76L280.22,58.76z"/>
			</g>
		</g>
		<g>
			<g>
				<path class="st0" d="M272.33,63.57c5.06,9.51,10.28,18.94,15.64,28.29c5.35,9.31,10.84,18.53,16.48,27.67
					c3.19,5.16,6.43,10.3,9.71,15.41c0.17,0.27,0.61,0.02,0.43-0.25c-5.83-9.06-11.51-18.22-17.05-27.46
					c-5.51-9.21-10.88-18.51-16.09-27.9c-2.95-5.31-5.85-10.64-8.7-16C272.61,63.03,272.18,63.28,272.33,63.57L272.33,63.57z"/>
			</g>
		</g>
		<g>
			<g>
				<path class="st0" d="M267.61,69.31c5.05,9.7,10.1,19.4,15.15,29.1c4.5,8.64,8.91,17.37,14.33,25.48
					c2.96,4.43,6.24,8.67,9.93,12.51c0.22,0.23,0.58-0.12,0.35-0.35c-6.67-6.95-11.88-15.1-16.54-23.48
					c-4.99-8.97-9.59-18.16-14.32-27.26c-2.82-5.42-5.64-10.85-8.47-16.27C267.89,68.77,267.46,69.02,267.61,69.31L267.61,69.31z"/>
			</g>
		</g>
	</g>
	<g>
		<g>
			<path d="M423.6,80.39c-0.96,15.51,3.08,30.77,3,46.25c-0.01,2.13-0.1,4.26-0.3,6.37c-0.1,1.12-0.24,2.25-0.41,3.36
				c-0.14,0.89-0.33,1.49,0.4,2.13c-0.1-0.24-0.2-0.47-0.29-0.71c-0.07,0.99,1.01,1.49,1.83,1.08c0.86-0.43,1.03-1.5,0.38-2.2
				c-0.77-0.83-2.01-0.48-2.98-0.35c-1.36,0.19-2.73,0.37-4.1,0.45c-5.59,0.36-11.27-0.34-16.85-0.63
				c-11.33-0.58-22.68-0.9-34.02-1.06c-11.29-0.16-22.59-0.17-33.88-0.13c-11.36,0.04-22.72,0.11-34.08,0.17
				c-11.31,0.06-22.62,0.12-33.93,0.18c-1.4,0.01-2.8,0.01-4.19,0.02c0.24,0.57,0.47,1.14,0.71,1.71c0.68-0.56,0.44-1.67,0.44-2.45
				c0.01-1.2,0.01-2.39,0.02-3.59c0.01-2.28,0.03-4.57,0.04-6.85c0.03-4.46,0.06-8.92,0.08-13.38c0.06-9.03,0.11-18.06,0.17-27.08
				c0.03-4.46,0.06-8.92,0.08-13.38c0-0.71-0.11-1.46,0.13-2.12c0.07-0.19,0.12-0.45,0.23-0.62c0.06-0.1-0.2,0.16,0.07,0.09
				c0.21-0.06,0.53-0.47,0.7-0.62c1.36-1.2,2.78-2.32,4.28-3.35c6.18-4.26,13.39-6.72,20.93-6.72c16.28,0.01,30.43,9.71,43.35,18.5
				c6.49,4.42,13.04,8.83,20.17,12.19c6.73,3.17,13.86,5.19,21.26,5.97c14.56,1.53,29.71-1.79,42.13-9.58
				c1.74-1.09,3.43-2.27,5.06-3.51c1.01-0.77,0.02-2.51-1.01-1.73c-12.03,9.12-26.87,13.74-41.95,13.13
				c-7.36-0.3-14.64-1.87-21.46-4.67c-7.32-3.01-14.03-7.34-20.58-11.75c-13.08-8.82-26.55-18.62-42.73-20.32
				c-7.62-0.8-15.27,0.65-22.04,4.24c-3.18,1.69-6.12,3.81-8.82,6.18c-0.53,0.46-1.06,0.85-1.32,1.51
				c-0.21,0.54-0.37,0.97-0.39,1.55c-0.08,2.28-0.03,4.57-0.04,6.85c-0.11,18.06-0.23,36.11-0.34,54.17
				c-0.01,2.18-0.03,4.35-0.04,6.53c0.1-0.24,0.2-0.47,0.29-0.71c-0.05,0.04-0.09,0.08-0.14,0.12c-0.69,0.57-0.1,1.71,0.71,1.71
				c21.57-0.11,43.15-0.23,64.72-0.33c21.61-0.1,43.22-0.13,64.82,0.69c6.07,0.23,12.15,0.53,18.21,0.9
				c2.96,0.18,5.93,0.38,8.9,0.21c1.45-0.08,2.89-0.26,4.33-0.46c0.39-0.05,2.81-0.26,2.86-0.54c0.07-0.42-0.31-0.72-0.58-0.96
				c0.09,0.32,0.17,0.65,0.26,0.97c2.49-14.92-0.88-29.82-1.94-44.7c-0.3-4.24-0.4-8.49-0.14-12.73
				C425.68,79.1,423.68,79.1,423.6,80.39L423.6,80.39z"/>
		</g>
	</g>
</g>
<g>
	<g>
		<g>
			<g>
				<path class="st1" d="M527.71,56.98c2.51,0.07,5.01,0.3,7.48,0.69c0.31,0.05,0.45-0.43,0.13-0.48c-2.52-0.4-5.06-0.64-7.61-0.71
					C527.39,56.47,527.39,56.97,527.71,56.98L527.71,56.98z"/>
			</g>
		</g>
		<g>
			<g>
				<path class="st1" d="M522.24,64.57c3.27-0.54,6.62-0.56,9.89-0.01c0.74,0.12,1.5,0.25,2.21,0.48c0.28,0.09,0.74,0.19,0.89-0.16
					c0.21-0.52-0.77-0.87-0.72-0.26c0.03,0.32,0.53,0.32,0.5,0c0,0.01-1.52-0.31-1.7-0.35c-0.54-0.11-1.09-0.21-1.63-0.29
					c-1.04-0.15-2.08-0.26-3.13-0.3c-2.16-0.1-4.31,0.05-6.44,0.4C521.79,64.14,521.92,64.62,522.24,64.57L522.24,64.57z"/>
			</g>
		</g>
		<g>
			<g>
				<path class="st1" d="M515.84,71.46c6.14,0.27,12.27,0.54,18.41,0.82c0.32,0.01,0.32-0.49,0-0.5
					c-6.14-0.27-12.27-0.54-18.41-0.82C515.52,70.95,515.52,71.45,515.84,71.46L515.84,71.46z"/>
			</g>
		</g>
		<g>
			<g>
				<path class="st1" d="M511.77,80.1c5.19-0.05,10.37,0,15.55,0.15c2.57,0.07,5.13,0.19,7.7,0.3c0.27,0.01,1.5-0.02,1.07-0.62
					c-0.21-0.29-0.82-0.27-0.84,0.14c-0.01,0.32,0.49,0.32,0.5,0c-0.17,0.12-0.18,0.19-0.01,0.21c-0.02-0.08-0.04-0.16-0.06-0.24
					c-0.03,0.13-2.52-0.08-2.76-0.09c-0.99-0.04-1.99-0.08-2.98-0.12c-2.03-0.07-4.06-0.13-6.09-0.17
					c-4.02-0.08-8.05-0.1-12.07-0.06C511.45,79.6,511.45,80.1,511.77,80.1L511.77,80.1z"/>
			</g>
		</g>
		<g>
			<g>
				<path class="st1" d="M511.65,84.98c1.9,0.48,3.91,0.32,5.84,0.3c2.12-0.02,4.25-0.04,6.37-0.06c4.25-0.04,8.5-0.08,12.75-0.13
					c0.32,0,0.32-0.5,0-0.5c-4.17,0.04-8.33,0.08-12.5,0.12c-2.08,0.02-4.17,0.04-6.25,0.06c-2.01,0.02-4.12,0.22-6.09-0.28
					C511.47,84.42,511.34,84.91,511.65,84.98L511.65,84.98z"/>
			</g>
		</g>
		<g>
			<g>
				<path class="st1" d="M513.59,94.61c4.78,0.2,9.56,0.4,14.34,0.6c2.39,0.1,4.78,0.2,7.17,0.3c0.6,0.03,1.8,0.33,2.22-0.3
					c0.25-0.38,0.06-1.04-0.45-1.01c-0.32,0.02-0.32,0.52,0,0.5c-0.11,0.29-0.29,0.41-0.53,0.36c-0.08,0-0.16-0.01-0.25-0.01
					c-0.25-0.01-0.49-0.02-0.74-0.03c-0.49-0.02-0.99-0.04-1.48-0.06c-0.95-0.04-1.89-0.08-2.84-0.12
					c-1.94-0.08-3.87-0.16-5.81-0.25c-3.87-0.16-7.74-0.33-11.62-0.49C513.27,94.09,513.27,94.59,513.59,94.61L513.59,94.61z"/>
			</g>
		</g>
		<g>
			<g>
				<path class="st1" d="M513.97,102.02c7.75,0.35,15.52,0.35,23.27,0.01c0.32-0.01,0.32-0.51,0-0.5
					c-7.75,0.34-15.52,0.34-23.27-0.01C513.65,101.51,513.65,102.01,513.97,102.02L513.97,102.02z"/>
			</g>
		</g>
		<g>
			<g>
				<path class="st1" d="M514.71,108.27c7.39,0.12,14.77,0.24,22.16,0.37c0.32,0.01,0.32-0.49,0-0.5
					c-7.39-0.12-14.77-0.24-22.16-0.37C514.39,107.77,514.39,108.27,514.71,108.27L514.71,108.27z"/>
			</g>
		</g>
		<g>
			<g>
				<path class="st1" d="M514.21,114.13c7.57-0.28,15.14-0.31,22.71-0.11c-0.02-0.16-0.04-0.33-0.07-0.49
					c-0.29,0.08-0.58,0.17-0.87,0.25c-0.31,0.09-0.18,0.57,0.13,0.48c0.29-0.08,0.58-0.17,0.87-0.25c0.27-0.08,0.22-0.48-0.07-0.49
					c-7.57-0.21-15.14-0.17-22.71,0.11C513.89,113.64,513.89,114.14,514.21,114.13L514.21,114.13z"/>
			</g>
		</g>
		<g>
			<g>
				<path class="st1" d="M515.83,119.91c6.88-0.3,13.78-0.19,20.65,0.34c0.32,0.02,0.32-0.48,0-0.5
					c-6.87-0.53-13.76-0.64-20.65-0.34C515.51,119.42,515.51,119.92,515.83,119.91L515.83,119.91z"/>
			</g>
		</g>
		<g>
			<g>
				<path class="st1" d="M514.32,125.55c7.61,0.36,15.21,0.72,22.82,1.08c0-0.17,0-0.33,0-0.5c-0.47,0.02-0.93,0.04-1.4,0.06
					c-0.32,0.01-0.32,0.51,0,0.5c0.47-0.02,0.93-0.04,1.4-0.06c0.32-0.01,0.32-0.48,0-0.5c-7.61-0.36-15.21-0.72-22.82-1.08
					C514,125.04,514,125.54,514.32,125.55L514.32,125.55z"/>
			</g>
		</g>
		<g>
			<g>
				<path class="st1" d="M519.38,130.48c-0.53-15.53-1.06-31.06-1.59-46.59c-0.15-4.4-0.3-8.8-0.45-13.2c-0.01-0.32-0.51-0.32-0.5,0
					c0.53,15.53,1.06,31.06,1.59,46.59c0.15,4.4,0.3,8.8,0.45,13.2C518.89,130.8,519.39,130.8,519.38,130.48L519.38,130.48z"/>
			</g>
		</g>
		<g>
			<g>
				<path class="st1" d="M522.77,64.22c0.29,8.53,0.46,17.07,0.52,25.61c0.06,8.51,0.11,17.02,0.17,25.52
					c0.03,4.84,0.06,9.69,0.1,14.53c0,0.32,0.5,0.32,0.5,0c-0.06-8.57-0.11-17.14-0.17-25.71c-0.06-8.48-0.08-16.97-0.24-25.45
					c-0.09-4.84-0.22-9.67-0.38-14.5C523.26,63.9,522.76,63.9,522.77,64.22L522.77,64.22z"/>
			</g>
		</g>
		<g>
			<g>
				<path class="st1" d="M527.6,129.72c-0.17-4.55-0.25-9.12-0.58-13.66c-0.17-2.26-0.47-4.51-0.68-6.77
					c-0.2-2.25-0.26-4.52-0.26-6.78c0-9.25,0.25-18.5,0.39-27.75c0.08-5.19,0.15-10.38,0.23-15.57c0-0.32-0.5-0.32-0.5,0
					c-0.14,9.22-0.27,18.44-0.41,27.66c-0.07,4.65-0.15,9.29-0.2,13.94c-0.02,2.27-0.01,4.54,0.12,6.8
					c0.14,2.27,0.44,4.53,0.66,6.79c0.49,5.1,0.54,10.24,0.73,15.36C527.11,130.04,527.61,130.04,527.6,129.72L527.6,129.72z"/>
			</g>
		</g>
		<g>
			<g>
				<path class="st1" d="M530.39,54.42c0.01-0.02,0.03-0.04,0.04-0.05c0.08-0.09,0.09-0.19,0.04-0.3c-0.08-0.17-0.21-0.22-0.39-0.25
					c-0.09-0.01-0.17,0.06-0.22,0.12c-0.19,0.31-0.11,0.82-0.13,1.17c-0.04,0.66-0.07,1.31-0.1,1.97c-0.05,1.23-0.08,2.46-0.1,3.7
					c-0.03,2.42,0.02,4.85,0.14,7.27c0.23,4.8,0.96,9.55,1.32,14.34c0.36,4.9-0.24,9.75-0.62,14.63c-0.37,4.87-0.26,9.75-0.09,14.62
					c0.19,5.51,0.39,11.03,0.58,16.54c0.01,0.32,0.51,0.32,0.5,0c-0.17-4.85-0.34-9.71-0.51-14.56c-0.17-4.83-0.38-9.67-0.12-14.5
					c0.26-4.81,1-9.6,0.88-14.43c-0.12-4.78-0.97-9.53-1.3-14.3c-0.18-2.66-0.27-5.33-0.28-8.01c0-1.36,0.02-2.71,0.06-4.07
					c0.02-0.66,0.05-1.31,0.08-1.97c0.02-0.37,0.04-0.74,0.06-1.11c0.01-0.12,0.01-0.25,0.02-0.37c0.01-0.12,0.01-0.25,0.02-0.37
					c0.05-0.16-0.03-0.22-0.24-0.18c0.01-0.1,0.03-0.2,0.04-0.3c-0.01,0.02-0.03,0.04-0.04,0.05
					C529.83,54.31,530.18,54.67,530.39,54.42L530.39,54.42z"/>
			</g>
		</g>
		<g>
			<g>
				<path class="st1" d="M531.85,52.14c-0.01,10.33,0.55,20.65,1.1,30.97c0.56,10.35,1.11,20.71,1.06,31.07
					c-0.01,2.89-0.08,5.78-0.2,8.66c-0.1,2.46-0.51,5.12,0.58,7.42c0.14,0.29,0.57,0.04,0.43-0.25c-1.03-2.16-0.61-4.73-0.52-7.04
					c0.11-2.56,0.17-5.11,0.19-7.67c0.05-5.12-0.06-10.24-0.24-15.35c-0.37-10.16-1.05-20.31-1.49-30.46
					c-0.25-5.78-0.42-11.56-0.42-17.34C532.35,51.82,531.85,51.82,531.85,52.14L531.85,52.14z"/>
			</g>
		</g>
		<g>
			<g>
				<path class="st1" d="M513.4,90.85c3.69-0.6,7.41,0.11,11.11,0.09c1.77-0.01,3.47-0.28,5.2-0.65c0.94-0.2,1.88-0.4,2.83-0.5
					c0.46-0.05,0.92-0.07,1.38-0.05c0.19,0.01,0.38,0.02,0.57,0.04c0.03,0,1.18,0.11,1.14,0.06c-0.01,0.1-0.03,0.2-0.04,0.3
					c0.02-0.02,0.03-0.03,0.05-0.05c0.22-0.24-0.14-0.59-0.35-0.35c-0.02,0.02-0.03,0.03-0.05,0.05c-0.07,0.07-0.11,0.21-0.04,0.3
					c0.23,0.3,0.75,0.28,0.72-0.18c-0.05-0.71-1.56-0.66-2.01-0.67c-2.29-0.07-4.5,0.71-6.75,1.02c-4.63,0.64-9.28-0.64-13.91,0.11
					C512.95,90.41,513.08,90.9,513.4,90.85L513.4,90.85z"/>
			</g>
		</g>
	</g>
	<g>
		<g>
			<path d="M511.71,72.1c0.05,7.99,0.19,15.97,0.43,23.95c0.23,7.62,0.5,15.24,0.59,22.86c0.05,4.06,0.06,8.12,0.03,12.17
				c0,0.55,0.46,0.98,1,1c8.03,0.26,16.05,0.52,24.08,0.78c0.63,0.02,1.16-0.66,0.96-1.27c-0.46-1.39-0.46-2.71-0.52-4.25
				c-0.08-2.11-0.06-4.23-0.04-6.35c0.03-2.07,0.08-4.14,0.09-6.21c0.01-1.42,0.02-2.86-0.19-4.27c-1.04-7-0.92-14.09-1-21.14
				c-0.08-7.12-0.15-14.23-0.23-21.35c-0.04-4-0.09-7.99-0.13-11.99c-0.02-2-0.04-4-0.06-5.99c-0.01-1-0.02-2-0.03-3
				c-0.01-0.75-0.26-1.05-0.75-1.53c-0.5-0.49-1.19-0.31-1.57,0.2c-5.34,7.07-10.82,14.11-17.31,20.17
				c-1.8,1.68-3.66,3.28-5.62,4.77c-0.43,0.33-0.65,0.86-0.36,1.37c0.25,0.42,0.94,0.69,1.37,0.36
				c7.24-5.52,13.29-12.34,18.89-19.47c1.61-2.05,3.19-4.12,4.75-6.19c-0.52,0.07-1.05,0.13-1.57,0.2c0.15,0.15,0.3,0.3,0.45,0.44
				c-0.1-0.24-0.2-0.47-0.29-0.71c0.15,13.98,0.3,27.97,0.45,41.95c0.07,6.9-0.1,13.87,0.83,20.73c0.06,0.45,0.12,0.89,0.19,1.34
				c0.02,0.14,0.04,0.28,0.07,0.42c0.03,0.21-0.02-0.2-0.01-0.05c0.03,0.27,0.05,0.53,0.06,0.8c0.04,0.73,0.05,1.46,0.05,2.18
				c0.01,1.96-0.04,3.92-0.07,5.88c-0.04,2.36-0.07,4.72,0.01,7.08c0.06,1.68,0.07,3.51,0.6,5.12c0.32-0.42,0.64-0.84,0.96-1.27
				c-8.03-0.26-16.05-0.52-24.08-0.78c0.33,0.33,0.67,0.67,1,1c0.05-7.81-0.04-15.62-0.25-23.42c-0.19-7.05-0.47-14.1-0.61-21.15
				c-0.1-4.8-0.16-9.61-0.19-14.41C513.7,70.82,511.7,70.81,511.71,72.1L511.71,72.1z"/>
		</g>
	</g>
</g>
<g>
	<g>
		<path d="M218.59,98.61c2.83-0.01,5.66-0.02,8.48-0.03c1.37,0,2.74-0.01,4.12-0.01c0.7,0,1.42,0.03,2.12-0.01
			c0.24-0.01,0.07,0.02-0.07-0.02c0.05,0.02,0.5,0.12,0.22,0.04c-0.11-0.05-0.12-0.06-0.02-0.01c0.1,0.06,0.09,0.05-0.02-0.04
			c-0.32-0.67-1.02,0.1-0.22-1.72c-0.42,0.96-0.31,2.19,0.72,2.74c0.86,0.46,2.29,0.31,2.74-0.72c0.45-1.03,0.47-1.99-0.24-2.91
			c-0.51-0.66-1.31-1.07-2.11-1.25c-0.85-0.19-1.75-0.12-2.62-0.11c-0.87,0-1.75,0.01-2.62,0.01c-3.49,0.01-6.99,0.02-10.48,0.03
			c-1.05,0-2.05,0.92-2,2C216.64,97.69,217.47,98.61,218.59,98.61L218.59,98.61z"/>
	</g>
</g>
<g>
	<g>
		<path d="M456.42,101.57c2.82-0.47,5.39-0.81,8.25-1.09c1.39-0.13,2.78-0.25,4.17-0.34c0.72-0.05,1.44-0.11,2.15-0.12
			c0.03,0,0.38,0.01,0.39,0c-0.01,0.04-0.26-0.06-0.28-0.08c-0.82-0.5-0.49-1.48,0.19-1.96c-0.86,0.6-1.34,1.78-0.72,2.74
			c0.55,0.85,1.82,1.36,2.74,0.72c2.02-1.41,1.51-4.47-0.84-5.23c-0.89-0.29-1.85-0.18-2.77-0.12c-0.94,0.05-1.88,0.12-2.82,0.19
			c-3.86,0.31-7.7,0.79-11.52,1.43c-1.03,0.17-1.71,1.51-1.4,2.46C454.32,101.29,455.31,101.75,456.42,101.57L456.42,101.57z"/>
	</g>
</g>
<g>
	<g>
		<path d="M457.44,113.04c5.25-1.04,10.51-2.08,15.76-3.12c1.03-0.2,1.71-1.48,1.4-2.46c-0.35-1.09-1.36-1.61-2.46-1.4
			c-5.25,1.04-10.51,2.08-15.76,3.12c-1.03,0.2-1.71,1.48-1.4,2.46C455.33,112.74,456.33,113.26,457.44,113.04L457.44,113.04z"/>
	</g>
</g>
<g>
	<g>
		<g>
			<path d="M54.34,182.7c2.51-9.62,5.98-18.98,10.38-27.89c0.56-1.14,1.14-2.27,1.73-3.39c0.47-0.89,0.88-2.07,1.69-2.71
				c0.11-0.08,0.25-0.07,0.13-0.13c0.15,0.07,0.28,0.49,0.35,0.63c0.25,0.51,0.48,1.03,0.71,1.56c0.44,1.03,0.84,2.08,1.22,3.14
				c1.55,4.39,2.59,8.93,3.76,13.43c1.32,5.03,2.84,10.05,5.34,14.65c0.62,1.13,2.34,0.12,1.73-1.01c-4.68-8.61-5.7-18.55-8.93-27.7
				c-0.42-1.19-0.88-2.36-1.38-3.52c-0.43-0.99-0.84-2.42-1.87-2.95c-2.44-1.26-3.98,2.67-4.78,4.21c-2.41,4.64-4.58,9.41-6.5,14.28
				c-2.17,5.5-4,11.14-5.49,16.86C52.09,183.41,54.02,183.94,54.34,182.7L54.34,182.7z"/>
		</g>
	</g>
	<g>
		<g>
			<path d="M59.03,167.38c6.09-1.43,12.45-1.68,18.64-0.69c0.53,0.09,1.08-0.14,1.23-0.7c0.13-0.48-0.16-1.14-0.7-1.23
				c-6.55-1.05-13.23-0.83-19.7,0.69C57.25,165.75,57.78,167.67,59.03,167.38L59.03,167.38z"/>
		</g>
	</g>
	<g>
		<g>
			<path d="M92.11,145.65c-2.39,6.22-4.18,12.66-5.32,19.22c-0.57,3.26-1.17,6.63-1.02,9.95c0.14,3.06,1.09,6.01,2.95,8.45
				c1.98,2.59,4.91,4.64,8.28,4.62c1.29-0.01,1.29-2.01,0-2c-2.66,0.02-5-1.64-6.59-3.67c-1.72-2.19-2.57-4.87-2.66-7.64
				c-0.1-3.14,0.46-6.33,1-9.41c0.53-3.01,1.2-5.99,2-8.94c0.92-3.4,2.02-6.76,3.28-10.05c0.19-0.5-0.21-1.1-0.7-1.23
				C92.78,144.8,92.31,145.15,92.11,145.65L92.11,145.65z"/>
		</g>
	</g>
	<g>
		<g>
			<path d="M97.51,159.56c3.47,8.47,8.44,16.25,14.71,22.92c0.88,0.94,2.3-0.48,1.41-1.41c-6.02-6.41-10.86-13.91-14.2-22.04
				c-0.2-0.5-0.66-0.85-1.23-0.7C97.74,158.46,97.31,159.06,97.51,159.56L97.51,159.56z"/>
		</g>
	</g>
	<g>
		<g>
			<path d="M110.55,158.55c-2.83,7.75-6.78,15.07-11.66,21.72c-0.32,0.44-0.07,1.12,0.36,1.37c0.51,0.3,1.05,0.08,1.37-0.36
				c4.99-6.79,8.97-14.28,11.87-22.19C112.92,157.88,110.99,157.35,110.55,158.55L110.55,158.55z"/>
		</g>
	</g>
	<g>
		<g>
			<path d="M117.28,168.34c5.42-0.66,10.88-0.85,16.33-0.55c1.29,0.07,1.28-1.93,0-2c-5.45-0.3-10.91-0.12-16.33,0.55
				c-0.54,0.07-1,0.41-1,1C116.28,167.83,116.74,168.41,117.28,168.34L117.28,168.34z"/>
		</g>
	</g>
	<g>
		<g>
			<path d="M126.09,158.65c-1.2,5.95-1.17,12.07,0.11,18c0.27,1.26,2.2,0.73,1.93-0.53c-1.2-5.57-1.24-11.36-0.11-16.94
				C128.27,157.92,126.35,157.38,126.09,158.65L126.09,158.65z"/>
		</g>
	</g>
	<g>
		<g>
			<path d="M138.91,149.31c-1.02,9.51-1.03,19.12-0.04,28.64c0.11,1.06,1.65,1.43,1.96,0.27c1.11-4.09,2.48-8.11,4.15-12.01
				c0.24-0.56,0.54-1.57,1.14-1.87c0.48-0.24,0.65,0.58,0.74,0.92c0.51,1.99,0.79,4.08,1.04,6.12c0.3,2.43,0.46,4.88,0.51,7.34
				c0.02,1.07,1.29,1.26,1.86,0.5c0.18-0.23,0.35-0.46,0.53-0.69c0.33-0.43,0.07-1.12-0.36-1.37c-0.51-0.3-1.04-0.07-1.37,0.36
				c-0.18,0.23-0.35,0.46-0.53,0.69c0.62,0.17,1.24,0.34,1.86,0.5c-0.05-2.49-0.22-4.98-0.52-7.46c-0.15-1.25-0.33-2.49-0.55-3.73
				c-0.19-1.08-0.32-2.24-0.69-3.28c-0.32-0.9-0.91-1.7-1.88-1.92c-0.99-0.22-1.9,0.31-2.51,1.07c-0.69,0.86-1.05,1.92-1.47,2.92
				c-0.47,1.14-0.92,2.28-1.35,3.43c-0.97,2.61-1.81,5.25-2.53,7.94c0.65,0.09,1.31,0.18,1.96,0.27
				c-0.99-9.52-0.98-19.12,0.04-28.64c0.06-0.54-0.5-1-1-1C139.32,148.31,138.97,148.77,138.91,149.31L138.91,149.31z"/>
		</g>
	</g>
	<g>
		<g>
			<path d="M149.63,148.69c3.16,4.68,4.87,10.09,6.11,15.55c0.63,2.77,1.18,5.57,1.67,8.37c0.48,2.76,0.89,5.91-0.3,8.56
				c-0.96,2.15-3.22,4.3-5.76,3.91c-0.53-0.08-1.08,0.13-1.23,0.7c-0.13,0.47,0.16,1.15,0.7,1.23c2.78,0.42,5.3-0.93,6.97-3.12
				c1.87-2.44,2.25-5.57,1.99-8.56c-0.27-3.16-0.99-6.3-1.63-9.4c-0.63-3.03-1.35-6.05-2.34-8.99c-1.1-3.26-2.53-6.41-4.46-9.27
				C150.64,146.62,148.9,147.62,149.63,148.69L149.63,148.69z"/>
		</g>
	</g>
</g>
<g>
	<g>
		<g>
			<path d="M322.05,181.95c2.19-8.19,5.61-16.01,10.13-23.18c0.57-0.9,1.16-1.8,1.76-2.68c0.55-0.81,1.09-1.67,1.81-2.34
				c0.46-0.43,1.14-0.83,1.69-0.33c0.53,0.48,0.68,1.35,0.82,2.02c0.97,4.58,1.76,9.21,2.49,13.83c0.83,5.24,1.54,10.5,2.13,15.77
				c0.06,0.55,0.41,0.99,1,1c1.64,0.03,2.61-1.75,1.92-3.16c-0.56-1.16-2.29-0.15-1.73,1.01c-0.07-0.14,0.01,0.15-0.19,0.15
				c0.33,0.33,0.67,0.67,1,1c-1.12-10.07-2.62-20.13-4.68-30.05c-0.36-1.75-1.23-3.76-3.31-3.81c-2.22-0.06-3.6,2.32-4.69,3.9
				c-2.56,3.74-4.83,7.68-6.76,11.78c-2.21,4.68-4,9.55-5.34,14.55C319.79,182.66,321.72,183.19,322.05,181.95L322.05,181.95z"/>
		</g>
	</g>
	<g>
		<g>
			<path d="M329.27,168.92c5.02,0.46,10,1.26,14.91,2.4c1.25,0.29,1.79-1.64,0.53-1.93c-5.09-1.18-10.25-2-15.45-2.47
				c-0.54-0.05-1,0.49-1,1C328.27,168.5,328.73,168.87,329.27,168.92L329.27,168.92z"/>
		</g>
	</g>
	<g>
		<g>
			<path d="M357.52,153.41c-2.73,5.05-5.55,10.25-6.57,15.97c-0.88,4.92-0.41,10.34,2.36,14.62c0.75,1.16,1.7,2.55,3.05,3.04
				c1.4,0.51,2.98-0.39,3.07-1.91c0.07-1.29-1.93-1.28-2,0c0.01-0.13,0.03-0.01-0.08,0.03c-0.15,0.05-0.23,0.03-0.38-0.02
				c-0.48-0.17-0.87-0.72-1.18-1.1c-0.63-0.78-1.16-1.64-1.6-2.54c-0.91-1.86-1.42-3.94-1.58-6c-0.37-4.68,0.92-9.26,2.8-13.51
				c1.15-2.59,2.49-5.08,3.84-7.56C359.86,153.29,358.13,152.28,357.52,153.41L357.52,153.41z"/>
		</g>
	</g>
	<g>
		<g>
			<path d="M364.74,161.96c4.01,6.34,8.02,12.68,12.03,19.01c0.69,1.08,2.42,0.08,1.73-1.01c-4.01-6.34-8.02-12.68-12.03-19.01
				C365.78,159.87,364.05,160.87,364.74,161.96L364.74,161.96z"/>
		</g>
	</g>
	<g>
		<g>
			<path d="M373.31,161.29c-3.4,6.56-6.79,13.12-10.19,19.68c-0.59,1.14,1.13,2.15,1.73,1.01c3.4-6.56,6.79-13.12,10.19-19.68
				C375.63,161.16,373.91,160.15,373.31,161.29L373.31,161.29z"/>
		</g>
	</g>
	<g>
		<g>
			<path d="M377.38,156.74c2.04,4.59,3.42,9.5,4.09,14.48c0.53,3.96,0.96,8.44-0.59,12.24c-0.67,1.64-1.83,3.1-3.54,3.7
				c-1.21,0.42-0.69,2.35,0.53,1.93c4.01-1.39,5.53-5.58,5.93-9.47c0.24-2.33,0.07-4.7-0.17-7.02c-0.29-2.72-0.76-5.41-1.44-8.06
				c-0.77-3.02-1.82-5.95-3.08-8.8c-0.22-0.49-0.94-0.61-1.37-0.36C377.23,155.67,377.16,156.24,377.38,156.74L377.38,156.74z"/>
		</g>
	</g>
</g>
<g>
	<g>
		<path d="M224.14,171.56c2.83-0.01,5.66-0.02,8.48-0.03c1.37,0,2.74-0.01,4.12-0.01c0.7,0,1.42,0.03,2.12-0.01
			c0.24-0.01,0.07,0.02-0.07-0.02c0.05,0.02,0.5,0.12,0.22,0.04c-0.11-0.05-0.12-0.06-0.02-0.01c0.1,0.06,0.09,0.05-0.02-0.04
			c-0.32-0.67-1.02,0.1-0.22-1.72c-0.42,0.96-0.31,2.19,0.72,2.74c0.86,0.46,2.29,0.31,2.74-0.72c0.45-1.03,0.47-1.99-0.24-2.91
			c-0.51-0.66-1.31-1.07-2.11-1.25c-0.85-0.19-1.75-0.12-2.62-0.11c-0.87,0-1.75,0.01-2.62,0.01c-3.49,0.01-6.99,0.02-10.48,0.03
			c-1.05,0-2.05,0.92-2,2C222.19,170.64,223.02,171.57,224.14,171.56L224.14,171.56z"/>
	</g>
</g>
<g>
	<g>
		<g>
			<path d="M497.73,166.51c0.98-5.26,3-10.28,5.98-14.73c0.68-1.01,2.84-4.87,4.17-2.67c0.47,0.78,0.64,1.71,0.74,2.6
				c0.17,1.56,0.34,3.12,0.51,4.68c0.37,3.45,0.74,6.9,1.12,10.35c0.06,0.54,0.42,1,1,1c0.53,0,1.02-0.46,1-1
				c-0.03-0.71-0.06-1.41-0.08-2.12c-0.05-1.28-2.05-1.29-2,0c0.03,0.71,0.06,1.41,0.08,2.12c0.67,0,1.33,0,2,0
				c-0.37-3.45-0.74-6.9-1.12-10.35c-0.18-1.67-0.34-3.34-0.54-5c-0.13-1.13-0.38-2.3-0.98-3.29c-0.6-0.99-1.58-1.72-2.77-1.7
				c-1.52,0.04-2.56,1.23-3.41,2.35c-1.79,2.34-3.31,4.88-4.54,7.56c-1.42,3.09-2.46,6.33-3.08,9.67
				C495.57,167.24,497.49,167.78,497.73,166.51L497.73,166.51z"/>
		</g>
	</g>
	<g>
		<g>
			<path d="M500.45,157.49c4.08,0.08,8.12,0.56,12.1,1.46c1.25,0.28,1.79-1.64,0.53-1.93c-4.15-0.94-8.38-1.46-12.63-1.54
				C499.16,155.47,499.16,157.47,500.45,157.49L500.45,157.49z"/>
		</g>
	</g>
	<g>
		<g>
			<path d="M521.14,146.47c-2.39,3.03-4.09,6.56-4.86,10.36c-0.66,3.25-1.19,7.96,1.65,10.39c1.45,1.24,3.45,1.72,5.19,0.81
				c1.14-0.59,0.13-2.32-1.01-1.73c-1.41,0.73-3.01-0.4-3.66-1.63c-0.9-1.69-0.73-3.86-0.51-5.69c0.48-4.01,2.11-7.92,4.61-11.09
				c0.33-0.42,0.41-1,0-1.41C522.21,146.12,521.48,146.04,521.14,146.47L521.14,146.47z"/>
		</g>
	</g>
	<g>
		<g>
			<path d="M525.95,151.12c1.68,3.01,3.35,6.02,5.03,9.04c0.81,1.45,1.54,2.99,2.44,4.38c0.64,0.98,2.27,2.02,3.22,0.8
				c0.33-0.42,0.41-1,0-1.41c-0.35-0.35-1.08-0.43-1.41,0c-0.05,0.08-0.11,0.14-0.19,0.19c0.15-0.09,0.29-0.17,0.44-0.26
				c-0.22,0.09-0.01-0.02,0.04,0.03c-0.05-0.04-0.11-0.06-0.15-0.12c-0.14-0.17-0.26-0.29-0.37-0.48c-0.35-0.61-0.69-1.23-1.03-1.85
				c-0.71-1.27-1.41-2.54-2.12-3.81c-1.39-2.5-2.79-5.01-4.18-7.51C527.05,148.98,525.32,149.99,525.95,151.12L525.95,151.12z"/>
		</g>
	</g>
	<g>
		<g>
			<path d="M533.71,151.69c-3.71,4.09-7.43,8.18-11.14,12.26c0.52,0.4,1.05,0.81,1.57,1.21c0.29-0.38,0.58-0.75,0.86-1.13
				c0.33-0.43,0.07-1.12-0.36-1.37c-0.52-0.3-1.04-0.07-1.37,0.36c-0.29,0.38-0.58,0.75-0.86,1.13c-0.69,0.9,0.81,2.04,1.57,1.21
				c3.71-4.09,7.43-8.18,11.14-12.26C535.99,152.15,534.58,150.73,533.71,151.69L533.71,151.69z"/>
		</g>
	</g>
	<g>
		<g>
			<path d="M539.01,157.38c3.27,0.47,6.57,0.6,9.87,0.31c0.54-0.05,1-0.43,1-1c0-0.51-0.46-1.05-1-1c-3.11,0.26-6.25,0.2-9.34-0.24
				c-0.53-0.08-1.07,0.13-1.23,0.7C538.18,156.62,538.47,157.3,539.01,157.38L539.01,157.38z"/>
		</g>
	</g>
	<g>
		<g>
			<path d="M542.82,150.43c0,3.75,0,7.51,0,11.26c0,1.29,2,1.29,2,0c0-3.75,0-7.51,0-11.26
				C544.82,149.14,542.82,149.14,542.82,150.43L542.82,150.43z"/>
		</g>
	</g>
	<g>
		<g>
			<path d="M564.72,146.16c1.16,4.3,1.71,8.74,1.6,13.2c-0.06,2.57-0.15,7.16-3.29,7.99c-1.24,0.33-0.72,2.26,0.53,1.93
				c3.85-1.01,4.58-5.61,4.73-8.97c0.22-4.94-0.35-9.91-1.64-14.67C566.32,144.39,564.39,144.91,564.72,146.16L564.72,146.16z"/>
		</g>
	</g>
	<g>
		<g>
			<path d="M522.41,192.26c1.56-4.53,3.29-9,5.2-13.39c0.48-1.1,0.96-2.2,1.47-3.28c0.12-0.26,0.31-0.88,0.61-1.01
				c-0.1,0.05-0.1-0.04-0.01,0.07c0.13,0.15,0.22,0.33,0.31,0.51c1.03,2.06,1.82,4.28,2.56,6.46c0.86,2.52,1.57,5.08,2.15,7.68
				c0.15,0.65,0.93,0.89,1.47,0.6c1.27-0.68,1.54-2.66,0.38-3.59c-0.42-0.33-1-0.41-1.41,0c-0.35,0.35-0.43,1.08,0,1.41
				c0.17,0.13,0.25,0.32,0.03,0.45c0.49,0.2,0.98,0.4,1.47,0.6c-0.58-2.6-1.29-5.16-2.15-7.68c-0.43-1.26-0.89-2.51-1.39-3.74
				c-0.47-1.16-0.89-2.43-1.53-3.5c-0.59-0.99-1.71-1.6-2.82-1.02c-1.03,0.54-1.43,1.86-1.88,2.84c-1.1,2.45-2.15,4.92-3.15,7.41
				c-1.15,2.86-2.22,5.74-3.22,8.65C520.06,192.95,521.99,193.47,522.41,192.26L522.41,192.26z"/>
		</g>
	</g>
	<g>
		<g>
			<path d="M526.06,183.46c3.17,0.75,6.44,0.78,9.62,0.09c0.53-0.11,0.84-0.73,0.7-1.23c-0.15-0.55-0.7-0.81-1.23-0.7
				c-2.82,0.61-5.75,0.57-8.56-0.09C525.34,181.24,524.81,183.17,526.06,183.46L526.06,183.46z"/>
		</g>
	</g>
	<g>
		<g>
			<path d="M543.45,172.29c-2.36,3.91-3.84,8.37-4.24,12.92c-0.19,2.1-0.04,4.46,1.2,6.24c1.13,1.62,3.03,2.7,5.03,2.19
				c1.25-0.32,0.72-2.24-0.53-1.93c-1.42,0.36-2.7-0.87-3.24-2.07c-0.75-1.69-0.6-3.69-0.35-5.47c0.54-3.84,1.85-7.55,3.85-10.87
				C545.84,172.19,544.11,171.19,543.45,172.29L543.45,172.29z"/>
		</g>
	</g>
	<g>
		<g>
			<path d="M548.61,178.42c2.08,2.22,4.16,4.44,6.25,6.66c0.52,0.56,1.04,1.11,1.56,1.67c0.48,0.51,0.97,1.04,1.68,1.2
				c0.69,0.15,1.37-0.15,1.74-0.75c0.35-0.57,0.34-1.4-0.22-1.85c-0.42-0.34-1-0.41-1.41,0c-0.35,0.35-0.42,1.08,0,1.41
				c-0.13-0.1-0.15-0.52-0.05-0.64c0.05-0.06,0.24-0.09,0.26-0.13c0.09-0.15,0.06,0.08,0-0.06c-0.03-0.07-0.17-0.16-0.22-0.21
				c-0.39-0.4-0.76-0.81-1.15-1.22c-0.78-0.83-1.56-1.67-2.34-2.5c-1.56-1.67-3.12-3.33-4.68-5
				C549.14,176.06,547.73,177.48,548.61,178.42L548.61,178.42z"/>
		</g>
	</g>
	<g>
		<g>
			<path d="M556.65,174.95c-3.32,4.79-6.64,9.58-9.96,14.37c-0.73,1.06,1,2.06,1.73,1.01c3.32-4.79,6.64-9.58,9.96-14.37
				C559.11,174.9,557.38,173.9,556.65,174.95L556.65,174.95z"/>
		</g>
	</g>
	<g>
		<g>
			<path d="M559.97,171.8c1.65,3.54,3.33,7.32,3.3,11.3c-0.02,3.06-1.15,6.37-3.74,8.19c-1.05,0.73-0.05,2.47,1.01,1.73
				c3.1-2.17,4.6-5.84,4.72-9.55c0.15-4.47-1.72-8.71-3.56-12.68c-0.23-0.49-0.93-0.61-1.37-0.36
				C559.83,170.73,559.74,171.31,559.97,171.8L559.97,171.8z"/>
		</g>
	</g>
	<g>
		<g>
			<path d="M554.44,148.84c-0.4,5.05-0.47,10.11-0.2,15.17c0.06,1.1,1.66,1.39,1.96,0.27c0.3-1.11,0.7-2.17,1.24-3.19
				c0.5-0.94,1.1-2.06,1.9-2.78c0.06-0.06,0.21-0.12,0.25-0.19c0.07-0.11,0.04,0.01,0.03-0.07c-0.05-0.03-0.09-0.06-0.14-0.08
				c0.02,0.06,0.03,0.12,0.05,0.18c0.01,0.14,0.06,0.29,0.09,0.42c0.13,0.65,0.26,1.3,0.39,1.95c0.28,1.38,0.55,2.77,0.83,4.15
				c0.25,1.26,2.18,0.73,1.93-0.53c-0.35-1.75-0.7-3.5-1.05-5.25c-0.15-0.73-0.2-1.64-0.72-2.23c-0.52-0.59-1.3-0.73-2.02-0.46
				c-1.33,0.5-2.23,2.06-2.91,3.23c-0.79,1.34-1.39,2.8-1.8,4.31c0.65,0.09,1.31,0.18,1.96,0.27c-0.27-5.06-0.2-10.12,0.2-15.17
				C556.54,147.55,554.54,147.56,554.44,148.84L554.44,148.84z"/>
		</g>
	</g>
	<g>
		<g>
			<path d="M501.83,183.77c0,0.02,0,0.04-0.01,0.07c0.17-0.29,0.33-0.58,0.5-0.86c-0.02,0.01-0.03,0.02-0.05,0.03
				c0.17-0.05,0.34-0.09,0.5-0.14c0.04,0,0.08,0.01,0.11,0.01c0.15,0.09,0.29,0.17,0.44,0.26c-0.02-0.02-0.04-0.03-0.06-0.05
				c0.09,0.15,0.17,0.29,0.26,0.44c-0.01-0.03-0.01-0.05-0.02-0.08c-0.03,0.26-0.07,0.51-0.1,0.77c-0.27,0.18-0.27,0.22,0.01,0.13
				c0.1-0.02,0.21-0.04,0.31-0.06c0.24-0.05,0.49-0.09,0.73-0.13c0.4-0.07,0.8-0.12,1.21-0.16c0.91-0.09,1.83-0.12,2.75-0.1
				c1.83,0.05,3.62,0.33,5.38,0.83c1.24,0.35,1.77-1.58,0.53-1.93c-2.8-0.8-5.76-1.08-8.66-0.8c-0.72,0.07-1.44,0.17-2.15,0.3
				c-0.62,0.12-1.42,0.2-1.78,0.81c-0.39,0.66-0.09,1.51,0.66,1.72c0.76,0.21,1.38-0.31,1.44-1.05
				C503.92,182.49,501.92,182.49,501.83,183.77L501.83,183.77z"/>
		</g>
	</g>
</g>
<g>
	<g>
		<path d="M456.53,163.92c2.82-0.48,5.4-0.83,8.25-1.11c1.39-0.14,2.78-0.25,4.17-0.34c0.72-0.05,1.44-0.11,2.15-0.12
			c0.03,0,0.38,0.01,0.39,0c-0.01,0.04-0.26-0.06-0.28-0.08c-0.82-0.5-0.48-1.46,0.19-1.94c-0.85,0.6-1.34,1.77-0.72,2.74
			c0.54,0.84,1.82,1.37,2.74,0.72c0.96-0.68,1.4-1.62,1.24-2.8c-0.16-1.16-0.98-2.09-2.08-2.45c-0.89-0.29-1.85-0.18-2.77-0.12
			c-0.94,0.05-1.88,0.12-2.82,0.2c-3.86,0.31-7.7,0.8-11.52,1.45c-1.03,0.18-1.71,1.5-1.4,2.46
			C454.43,163.64,455.43,164.11,456.53,163.92L456.53,163.92z"/>
	</g>
</g>
<g>
	<g>
		<path d="M457.55,175.56c5.25-1.05,10.51-2.11,15.76-3.16c1.03-0.21,1.71-1.48,1.4-2.46c-0.35-1.09-1.36-1.62-2.46-1.4
			c-5.25,1.05-10.51,2.11-15.76,3.16c-1.03,0.21-1.71,1.48-1.4,2.46C455.44,175.25,456.45,175.78,457.55,175.56L457.55,175.56z"/>
	</g>
</g>
</svg>
