<?xml version="1.0" encoding="UTF-8"?>
<svg id="Layer_2" data-name="Layer 2" xmlns="http://www.w3.org/2000/svg" viewBox="0 0 164.64 190.33">
  <defs>
    <style>
      .cls-1 {
        fill: #808285;
      }

      .cls-1, .cls-2 {
        stroke-width: 0px;
      }

      .cls-2 {
        fill: #231f20;
      }
    </style>
  </defs>
  <g id="Layer_1-2" data-name="Layer 1">
    <g>
      <path class="cls-2" d="M6.6,116.44l-2.84-30.09-.39-4.1-.2-2.11c-.07-.69-.22-1.45-.16-2.14l-.2.76-.03.02-.66.39c.48-.19,1.05-.21,1.55-.29s.99-.16,1.48-.24c1.07-.17,2.14-.34,3.2-.51,2.14-.34,4.27-.68,6.41-1.03,4.27-.68,8.54-1.37,12.82-2.05.8-.13,1.25-1.13,1.05-1.85-.23-.85-1.04-1.18-1.85-1.05-4.27.68-8.54,1.37-12.82,2.05-2.14.34-4.27.68-6.41,1.03-1.07.17-2.14.34-3.2.51-.96.15-2.03.21-2.96.5-1.43.45-1.42,1.8-1.31,3.03l.31,3.23.61,6.47,1.22,12.93c.46,4.85.92,9.7,1.37,14.55.08.81.63,1.5,1.5,1.5.75,0,1.58-.69,1.5-1.5h0Z"/>
      <path class="cls-2" d="M4.62,94.75l-1.67.98c-1.67.98-.19,3.48,1.51,2.59,3.53-1.84,7.44-2.92,11.42-3.16.81-.05,1.5-.65,1.5-1.5,0-.77-.69-1.55-1.5-1.5-4.52.27-8.91,1.48-12.93,3.57l1.51,2.59,1.67-.98c1.66-.98.16-3.57-1.51-2.59h0Z"/>
      <path class="cls-2" d="M21.86,91.45c-.38,3.53-.16,7.11.63,10.57.67,2.95,1.73,5.91,3.74,8.22s5.43,3.77,8.26,2.22c1.45-.8,2.22-2.32,2.66-3.86.46-1.63.77-3.31,1.04-4.98.68-4.12.95-8.29.8-12.46l-1.5,1.5c.3,0,.61,0,.91,0,1.93-.02,1.93-3.02,0-3-.3,0-.61,0-.91,0-.79,0-1.53.68-1.5,1.5.12,3.27-.01,6.54-.42,9.78-.2,1.59-.48,3.17-.81,4.73-.26,1.21-.45,2.62-1.13,3.61-1.24,1.8-3.94.27-5.04-.91-1.63-1.73-2.45-4.15-3.04-6.48-.86-3.42-1.06-6.95-.69-10.45.09-.81-.75-1.5-1.5-1.5-.88,0-1.41.69-1.5,1.5h0Z"/>
      <path class="cls-2" d="M50.59,110.72c-.03-5.29-.02-10.57.04-15.86l-1.5,1.5c.27,0,.22-.03-.14-.09.16.08.19.11.09.07.03.1.14.16.2.25.22.34.39.71.57,1.07.4.77.77,1.56,1.14,2.35.71,1.53,1.38,3.07,2.12,4.58,1.49,3.06,3.31,6.04,5.95,8.24,1.01.84,2.48.29,2.56-1.06.41-6.78.63-13.57.67-20.37.01-1.93-2.99-1.93-3,0-.04,6.79-.26,13.58-.67,20.37l2.56-1.06c-2.72-2.27-4.41-5.34-5.9-8.51-.77-1.64-1.49-3.3-2.28-4.93s-1.71-4.03-3.87-3.9c-.82.05-1.49.65-1.5,1.5-.05,5.29-.07,10.57-.04,15.86.01,1.93,3.01,1.93,3,0h0Z"/>
      <path class="cls-2" d="M79.18,85.3c-5.27,2.44-8.44,8.01-9.61,13.5-.7,3.29-.73,6.66,1.42,9.42,1.76,2.26,4.44,3.63,7.13,4.46,2.97.92,6.75,1.31,9.11-1.16,1.33-1.4-.78-3.52-2.12-2.12-.67.7-1.53.96-2.5.99-1.16.04-2.12-.15-3.25-.48-2.16-.62-4.28-1.59-5.78-3.27-.69-.77-1.17-1.73-1.37-2.82-.24-1.33-.04-2.74.23-4.05.49-2.39,1.31-4.65,2.59-6.72,1.38-2.25,3.26-4.06,5.68-5.17.74-.34.92-1.4.54-2.05-.44-.75-1.31-.88-2.05-.54h0Z"/>
      <path class="cls-2" d="M90.21,92.45c5.69-2.26,11.46-4.32,17.3-6.18.77-.25,1.27-1.04,1.05-1.85-.21-.76-1.07-1.29-1.85-1.05-5.84,1.86-11.61,3.92-17.3,6.18-.75.3-1.28,1-1.05,1.85.2.72,1.09,1.35,1.85,1.05h0Z"/>
      <path class="cls-2" d="M99.09,88.57c-.53,4.45-1.07,8.9-1.6,13.35l-.8,6.68c-.12,1-.43,2.14.12,3.06.34.56,1,.94,1.66.94.72,0,1.2-.36,1.62-.92.49-.65.1-1.68-.54-2.05-.77-.45-1.56-.11-2.05.54l-.08.1.54-.54-.11.06.76-.2c.59.99.89,1.24.89.75,0-.09,0-.17.02-.26.02-.25.06-.49.09-.74l.16-1.36.33-2.72.67-5.56c.45-3.71.89-7.42,1.34-11.13.1-.81-.76-1.5-1.5-1.5-.89,0-1.4.69-1.5,1.5h0Z"/>
      <path class="cls-2" d="M115.49,109.92c.18-7.69.91-15.35,2.23-22.93l-2.74.36c.23.41.46.81.7,1.22.96,1.68,3.55.17,2.59-1.51-.23-.41-.46-.81-.7-1.22-.6-1.04-2.51-.95-2.74.36-1.36,7.84-2.15,15.77-2.34,23.72-.04,1.93,2.96,1.93,3,0h0Z"/>
      <path class="cls-2" d="M128.72,105.45c-.5-.77-.83-1.59-.97-2.5-.04-.29-.06-.74-.06-1.1,0-.21.01-.42.03-.63,0-.09.01-.18.02-.26.02-.21,0-.08.02-.2.18-1.21.62-2.68,1.05-3.65.67-1.51,1.82-3,3.47-3.48,1.75-.5,2.99.56,4.13,1.86,1.23,1.4,2.35,3,2.91,4.8.1.31.18.62.24.94.02.11.04.22.06.33.03.17-.02-.13-.02-.13,0,.1.02.2.03.3.03.32.04.63.03.95,0,.15,0,.3-.02.45,0,.1-.02.21-.03.31-.03.26.03-.19-.01.08-.27,1.56-1.08,2.97-2.41,3.77-.64.38-1.06.54-1.85.71-.16.04-.33.06-.49.09-.18.03.03,0,.06,0-.09,0-.18.02-.26.03-.28.02-.56.04-.84.03-.26,0-.51-.01-.77-.03-.09,0-.19-.02-.28-.03-.24-.02.42.09.15.02s-.53-.12-.8-.2c-.13-.04-.26-.09-.39-.13-.05-.02-.11-.04-.16-.06-.21-.08.33.16-.05-.02-.33-.16-.65-.32-.95-.51-.7-.43-1.32-.98-1.84-1.73-.46-.67-1.32-.97-2.05-.54-.66.39-1,1.38-.54,2.05,1.61,2.35,4.22,3.97,7.08,4.16,3.97.27,7.75-1.85,9.03-5.72s-.51-8.08-3.02-11.21c-1.52-1.89-3.4-3.7-5.99-3.69s-4.72,1.58-6.15,3.59c-1.1,1.54-1.76,3.55-2.13,5.4-.51,2.58-.28,5.24,1.17,7.49.44.68,1.33.96,2.05.54.68-.4.98-1.37.54-2.05Z"/>
      <path class="cls-2" d="M150.6,109.22c-.78-6.17-.39-12.42,1.2-18.43l-2.2.9c1.01.56,1.39,2.37,1.82,3.5.65,1.71,1.29,3.42,1.94,5.12,1.18,3.11,2.22,6.44,4.21,9.15.99,1.34,2.61,2.56,4.26,1.43,1.33-.92,1.45-2.62,1.53-4.09.21-3.65.4-7.29.56-10.94.19-4.15.34-8.29.47-12.44l-2.56,1.06c.09.12.18.23.27.35.5.64,1.6.53,2.12,0,.63-.63.5-1.48,0-2.12-.09-.12-.18-.23-.27-.35-.36-.46-1.15-.52-1.64-.31-.56.24-.9.76-.92,1.37-.21,6.84-.49,13.69-.86,20.52-.04.79-.09,1.57-.13,2.36-.02.41-.04.83-.07,1.24,0,.01-.06.49-.02.21-.03.15-.06.31-.11.46-.13.47.05-.12-.04.13-.07.19-.19.12-.04.1,0,0,.47-.13.43-.09-.08.08-.99-1.3-1.05-1.39-1.6-2.58-2.53-5.55-3.6-8.38-.68-1.79-1.35-3.57-2.03-5.36-.6-1.58-1.19-3.26-2.76-4.13-.84-.46-1.95-.06-2.2.9-1.65,6.25-2.12,12.81-1.31,19.23.1.8.62,1.5,1.5,1.5.73,0,1.6-.69,1.5-1.5h0Z"/>
    </g>
    <g>
      <path class="cls-2" d="M43.6,161.75c-3.04,1.42-5.65,3.61-7.66,6.28-.49.65-.93,1.32-1.33,2.02-.44.77-1.01,1.66-1.06,2.56-.12,2.03,2.3,2.65,3.81,3.14,3.23,1.05,6.92,1.76,9.21,4.5.85,1.02,1.39,2.33,1.21,3.68-.16,1.16-.81,2.39-1.9,2.9-.82.39-1.88.37-2.77.49-1.14.15-2.27.31-3.41.46-.57.08-1.14.15-1.7.23-.28.04-.57.08-.85.11,0,0-.2.09-.2.09-.18-.01-.36-.14-.55-.16-.99-.08-1.75,1.27-.9,1.97.34.28.81.4,1.21.16l.05-.03c1.1-.67.09-2.4-1.01-1.73l-.05.03,1.21.16-.04-.03.26.44.02.12-.14.5.04-.07-.36.36.07-.03-.77.1c.46.1.78.17,1.27.11s.97-.13,1.46-.2c1.06-.14,2.11-.28,3.17-.43.97-.13,1.95-.26,2.92-.39.79-.11,1.5-.22,2.2-.61,2.46-1.36,3.38-4.73,2.4-7.27-1.2-3.11-4.15-4.92-7.15-6.01-1.73-.63-3.51-1.07-5.24-1.69-.37-.13-.75-.26-1.1-.45-.3-.16-.41-.22-.33-.54.18-.76.79-1.58,1.2-2.23,1.89-2.99,4.63-5.34,7.82-6.84.49-.23.61-.93.36-1.37-.29-.5-.88-.59-1.37-.36h0Z"/>
      <path class="cls-2" d="M55.54,168.65l-2.61,13.88c-.21,1.1-.54,2.25-.62,3.37-.07,1.01.68,1.72,1.65,1.79s1.94-.39,2.86-.59c1.05-.22,2.11-.34,3.18-.37,1.22-.04,2.41.07,3.61.22,1.08.14,2.11.06,2.96-.7.96-.86-.46-2.27-1.41-1.41-.28.25-.74.19-1.09.16-.55-.04-1.09-.14-1.64-.19-1.23-.11-2.47-.11-3.7,0-1.16.11-2.32.31-3.45.61-.08.02-1.17.24-1.19.29.1.07.17.17.22.28l.09-.49.18-.97,2.89-15.34c.24-1.26-1.69-1.8-1.93-.53h0Z"/>
      <path class="cls-2" d="M72.8,183.98c-1.87-1.83-2.8-4.75-1.51-7.17,1.17-2.19,3.76-3.58,6.2-2.79,2.72.88,4.1,3.6,4.63,6.22.14.67.23,1.34.27,2.02.04.56.07,1.21-.16,1.74-.4.89-1.52,1.05-2.38,1.24-2.46.54-5.1.54-7.06-1.27-.94-.87-2.36.54-1.41,1.41,2.35,2.17,5.42,2.48,8.45,1.9,1.38-.27,2.87-.59,3.78-1.76.99-1.26.86-2.93.67-4.42-.45-3.47-1.95-7.09-5.31-8.64s-6.79-.31-8.86,2.47c-2.42,3.25-1.52,7.74,1.27,10.46.92.9,2.34-.51,1.41-1.41Z"/>
      <path class="cls-2" d="M91.57,188.21c-.32-2.56-.63-5.13-.95-7.69s-.73-5.05-.9-7.58c-.04-.54-.05-1.08-.02-1.62.01-.3.04-.59.09-.89.06-.31,0-.35.29-.39.92-.11,1.82-.07,2.71.19s1.78.71,2.49,1.34c.62.55,1.46,1.38,1.42,2.28-.05.96-.92,1.71-1.76,2.02-1.22.44-2.59.29-3.85.19s-1.28,1.9,0,2c2.6.21,5.76.12,7.16-2.52s-.68-5.03-2.8-6.32c-1.06-.65-2.25-1.04-3.48-1.19-1.12-.14-2.78-.2-3.59.72-.47.54-.55,1.3-.62,1.98-.08.77-.07,1.55-.01,2.32.11,1.52.34,3.03.53,4.54.44,3.54.88,7.08,1.31,10.62.07.54.41,1,1,1,.49,0,1.07-.46,1-1h0Z"/>
      <path class="cls-2" d="M102.72,172.07c-1.1,4.77-1.75,9.63-1.95,14.52-.03.81.86,1.17,1.5.86,2.88-1.38,6.2-1.66,9.28-.85,1.25.33,1.78-1.6.53-1.93-3.63-.95-7.45-.56-10.82,1.06l1.5.86c.19-4.71.82-9.39,1.88-13.99.29-1.25-1.64-1.79-1.93-.53h0Z"/>
      <path class="cls-2" d="M103.45,177.17c1.31.3,2.64.51,3.97.64.62.06,1.24.09,1.87.11.67.01,1.32-.04,1.91-.39.46-.28.63-.9.36-1.37s-.9-.64-1.37-.36c-.12.07-.06.05-.22.09-.07.01-.07.02,0,.01-.07,0-.15.01-.22.01-.24,0-.49,0-.73,0-.58-.02-1.16-.06-1.73-.11-1.11-.11-2.22-.3-3.31-.55-.53-.12-1.08.16-1.23.7-.14.5.17,1.11.7,1.23h0Z"/>
      <path class="cls-2" d="M103.64,172.11c1.26-.59,2.87-.17,4.24.07,1.69.29,3.37.46,4.95-.34.48-.24.62-.92.36-1.37-.29-.49-.88-.6-1.37-.36-1.25.63-2.83.24-4.2,0-1.7-.3-3.37-.48-4.99.27-.49.23-.61.93-.36,1.37.29.5.88.59,1.37.36h0Z"/>
    </g>
    <g>
      <path class="cls-2" d="M32,24.27c1.54-6.18,3.19-12.42,6.15-18.1.36-.69.74-1.38,1.14-2.05.19-.32.39-.64.59-.96.12-.19.24-.38.37-.57.05-.08.39-.46.38-.57l.06-.07c-.11.07-.21.06-.3,0,.02-.04.17.22.18.24.16.3.2.67.28.99.22.89.44,1.78.65,2.67.87,3.54,1.73,7.09,2.6,10.63.4,1.61.84,3.23,1.66,4.68.38.67.91,1.67,1.78,1.72,1.05.06,1.56-1.15.84-1.89-.25-.25-.64-.36-.97-.26l-.07.02c-1.23.37-.71,2.3.53,1.93l.07-.02-.97-.26.05.06-.26-.44v.08c.1-.32.18-.65.27-.97l-.06.06.71-.29h-.14c.17.04.34.08.5.13-.16-.1-.43-.63-.56-.87-.17-.3-.33-.61-.46-.92-.29-.67-.5-1.38-.7-2.09-.45-1.66-.83-3.35-1.24-5.02s-.85-3.48-1.28-5.21-.72-3.46-1.26-5.11c-.45-1.36-2.05-2.48-3.29-1.24-.5.5-.86,1.2-1.23,1.8-.45.73-.88,1.47-1.29,2.23-1.53,2.82-2.74,5.81-3.77,8.85-1.14,3.39-2.03,6.85-2.9,10.32-.31,1.25,1.62,1.78,1.93.53h0Z"/>
      <path class="cls-2" d="M33.21,13.36c3.51.08,7.03-.25,10.47-.95.53-.11.83-.73.7-1.23-.15-.55-.7-.81-1.23-.7-3.27.67-6.6.95-9.94.88-1.29-.03-1.29,1.97,0,2h0Z"/>
      <path class="cls-2" d="M53.07,22.53c-.3-4.73-.6-9.45-.9-14.18-.07-1.04-.2-2.09-.17-3.13.02-.86.28-1.25,1.15-1.37,1.76-.26,3.61.22,5.09,1.17.72.46,1.58,1.12,1.92,1.93.3.71-.26,1.26-.81,1.64-1.46.99-3.14,1.71-4.71,2.52-.16.08-.32.16-.48.24.05-.03.36-.11.08-.04-.14.04-.28.09-.42.14-.24.08-.48.14-.72.21-.58.16-1.26.29-1.66.78-1.24,1.54,1.37,2.57,2.4,2.97,1.43.55,2.77,1.13,4.06,1.99,1.83,1.22,3.39,2.79,4.78,4.47.82.99,2.23-.43,1.41-1.41-2.34-2.82-5.18-5.21-8.62-6.56-.72-.28-1.46-.51-2.14-.88-.09-.05-.33-.18-.31-.19.1-.05,0,1.1.03.41v.35c-.27.22-.33.29-.21.22,0-.05.04.01-.05.01.05,0,.15-.05.2-.07.2-.06.41-.12.61-.17,1.49-.42,2.76-1.14,4.12-1.85,1.59-.83,3.82-1.66,4.39-3.56.64-2.13-1.43-3.99-3.05-4.98s-3.77-1.55-5.75-1.37c-1.03.1-2.07.33-2.71,1.21-.57.78-.66,1.78-.63,2.72.24,5.59.71,11.19,1.06,16.78.08,1.28,2.08,1.29,2,0h0Z"/>
      <path class="cls-2" d="M70.19,6.6c-1.37,4.62-2.41,9.33-3.12,14.1-.09.59.25,1.32.96,1.27,3.35-.24,6.72-.09,10.03.51.76.14,1.41-.44,1.23-1.23-.09-.4-.18-.79-.27-1.19-.28-1.26-2.21-.72-1.93.53.09.4.18.79.27,1.19l1.23-1.23c-3.49-.63-7.02-.84-10.56-.58l.96,1.27c.71-4.77,1.75-9.48,3.12-14.1.37-1.24-1.56-1.77-1.93-.53h0Z"/>
      <path class="cls-2" d="M70.58,14.96c1.07.27,2.14.53,3.21.8.51.13,1.03.28,1.55.36.59.09,1.18.08,1.77.08.52,0,1.02-.46,1-1s-.44-1-1-1c-.26,0-.53,0-.79,0-.12,0-.24,0-.35-.01,0,0-.28-.03-.21-.02-.52-.08-1.04-.25-1.55-.37-1.03-.26-2.06-.51-3.09-.77-.51-.13-1.11.16-1.23.7s.16,1.1.7,1.23h0Z"/>
      <path class="cls-2" d="M71.15,7.87c2.72-.22,5.44-.45,8.16-.67.54-.04,1-.43,1-1,0-.51-.46-1.04-1-1-2.72.22-5.44.45-8.16.67-.54.04-1,.43-1,1,0,.51.46,1.04,1,1h0Z"/>
      <path class="cls-2" d="M85.72,23.93c-.09-5.3.65-10.58,2.22-15.65.18-.6.38-1.19.59-1.78.16-.46.3-1,.62-1.38.2-.23.23-.22.4.02.35.48.55,1.12.77,1.67.97,2.41,1.72,4.9,2.24,7.45.57,2.77.8,5.6,2.11,8.15.59,1.14,2.32.13,1.73-1.01-1.27-2.47-1.41-5.34-1.98-8.02-.62-2.89-1.54-5.71-2.72-8.42-.48-1.09-1.29-2.2-2.64-2-1.24.19-1.87,1.39-2.27,2.45-1.01,2.74-1.76,5.59-2.27,8.46-.59,3.32-.86,6.68-.8,10.05.02,1.29,2.02,1.29,2,0h0Z"/>
      <path class="cls-2" d="M86.3,13.62l6.58.09c.52,0,1.02-.47,1-1s-.44-.99-1-1l-6.58-.09c-.52,0-1.02.47-1,1s.44.99,1,1h0Z"/>
    </g>
    <g>
      <path class="cls-2" d="M61.18,45.07c.73-4.2,1.91-8.37,3.76-12.22.39-.82.84-1.7,1.51-2.33.54-.51.91-.4,1.36.17.61.76,1.02,1.74,1.44,2.62.45.92.87,1.85,1.26,2.8.95,2.3,1.74,4.66,2.41,7.06.24.88,1.79,1.03,1.93,0,.08-.57.16-1.14.24-1.71.07-.53-.13-1.07-.7-1.23-.47-.13-1.16.16-1.23.7-.08.57-.16,1.14-.24,1.71h1.93c-.67-2.4-1.46-4.76-2.41-7.06-.46-1.11-.94-2.2-1.46-3.27s-1-2.13-1.76-3.02c-.66-.78-1.62-1.27-2.65-1.05s-1.74,1.02-2.31,1.81c-1.36,1.87-2.18,4.24-2.93,6.41-.92,2.64-1.6,5.35-2.08,8.11-.09.53.14,1.08.7,1.23.48.13,1.14-.16,1.23-.7h0Z"/>
      <path class="cls-2" d="M66.47,30.37c-.84,2.68-.71,5.56-.67,8.34.04,3.02.11,6.03.2,9.05.19,6.02.5,12.04.93,18.05.24,3.37.52,6.73.83,10.09.05.54.42,1,1,1,.5,0,1.05-.46,1-1-1.1-11.83-1.75-23.7-1.94-35.58-.05-3.1-.36-6.42.58-9.42.39-1.23-1.54-1.76-1.93-.53h0Z"/>
    </g>
    <g>
      <path class="cls-2" d="M69.4,123.89c-.06,8.92.22,17.84.86,26.73.18,2.55.4,5.09.64,7.64.05.54.42,1,1,1,.5,0,1.05-.46,1-1-.84-8.87-1.33-17.78-1.47-26.69-.04-2.56-.05-5.12-.03-7.68,0-1.29-1.99-1.29-2,0h0Z"/>
      <path class="cls-2" d="M64.23,147.87c2.09,4.31,4.47,8.48,7.18,12.43.51.74,1.52.58,1.83-.24,1.38-3.62,3.23-7.06,5.53-10.18.32-.43.07-1.12-.36-1.37-.51-.3-1.05-.08-1.37.36-2.41,3.26-4.29,6.87-5.73,10.66l1.83-.24c-2.71-3.95-5.1-8.12-7.18-12.43-.56-1.16-2.29-.15-1.73,1.01h0Z"/>
    </g>
    <g>
      <path class="cls-1" d="M83.36,141.44c-1.3-3.41-1.88-7.04-1.71-10.68l-.5.5c1.56-.06,2.62,1.75,3.35,2.89.79,1.23,1.22,2.52,1.5,3.94.23,1.13.32,2.24-.93,2.75-.68.28-1.48.32-2.21.23-.64-.07-.63.93,0,1,.97.11,2.06,0,2.92-.47,1.35-.72,1.49-2.07,1.24-3.44-.31-1.71-.85-3.28-1.81-4.73s-2.17-3.24-4.08-3.17c-.28,0-.49.22-.5.5-.18,3.72.42,7.46,1.75,10.95.23.6,1.19.34.96-.27Z"/>
      <path class="cls-1" d="M89.82,133.61c-.27,1.32-.54,2.65-.82,3.97-.14.66-.27,1.32-.41,1.99-.1.51-.31,1.12-.05,1.61s.8.56,1.32.57c.7,0,1.39,0,2.09.01.65,0,1.29,0,1.94.01.59,0,1.06-.11,1.63-.28.61-.19.35-1.16-.27-.96-.45.14-.82.25-1.29.25-.57,0-1.14,0-1.71-.01s-1.14,0-1.71-.01c-.27,0-.55,0-.82,0-.21,0-.31.02-.29-.22.03-.5.2-1.02.3-1.5.12-.59.24-1.18.36-1.77.23-1.13.46-2.26.69-3.38.13-.63-.83-.9-.96-.27h0Z"/>
      <path class="cls-1" d="M89.73,137.87c1.57-.12,3.15-.24,4.72-.36.27-.02.5-.22.5-.5,0-.25-.23-.52-.5-.5-1.57.12-3.15.24-4.72.36-.27.02-.5.22-.5.5,0,.25.23.52.5.5h0Z"/>
      <path class="cls-1" d="M90.3,134.25c1.25-.16,2.5-.33,3.75-.49.27-.03.5-.2.5-.5,0-.24-.23-.54-.5-.5-1.25.16-2.5.33-3.75.49-.27.03-.5.2-.5.5,0,.24.23.54.5.5h0Z"/>
      <path class="cls-1" d="M99.19,141.76c-.29-1.66-.58-3.33-.87-4.99-.14-.8-.28-1.6-.42-2.4-.07-.37-.41-1.48.04-1.75.36-.22,1.09.19,1.38.37.48.29.85.72,1.11,1.21.25.47.4,1.09-.13,1.41-.6.36-1.37.16-1.93-.17-.52-.3-.95.36-.61.79,1.41,1.71,2.81,3.43,4.22,5.14.41.5,1.11-.21.71-.71-1.41-1.71-2.81-3.43-4.22-5.14l-.61.79c1.05.61,2.76.79,3.53-.38.7-1.07-.08-2.51-.9-3.29-.72-.68-2.17-1.48-3.14-.84-.55.37-.66,1.1-.6,1.71.08.81.26,1.61.4,2.41.35,2.03.71,4.06,1.06,6.1.11.63,1.07.36.96-.27h0Z"/>
      <path class="cls-1" d="M104.52,140.97l-.61-9.03c-.04-.64-1.04-.64-1,0l.61,9.03c.04.64,1.04.64,1,0h0Z"/>
      <path class="cls-1" d="M104.62,131.53l3.51,9.69c.18.49,1.04.47.98-.13-.29-3.12,0-6.24.84-9.25.18-.62-.79-.89-.96-.27-.87,3.09-1.18,6.32-.88,9.52l.98-.13-3.51-9.69c-.22-.6-1.18-.34-.96.27h0Z"/>
      <path class="cls-1" d="M111.73,140.55c.16-3.32.63-6.61,1.41-9.84l-.91.12c1.74,2.82,2.43,6.09,3.1,9.29.13.63,1.1.36.96-.27-.69-3.29-1.42-6.63-3.2-9.53-.22-.35-.81-.31-.91.12-.8,3.32-1.28,6.7-1.45,10.11-.03.64.97.64,1,0h0Z"/>
      <path class="cls-1" d="M111.05,136.46c1.3.72,2.86.89,4.28.45.61-.19.35-1.16-.27-.96-1.17.36-2.43.25-3.51-.35-.56-.31-1.07.55-.5.86h0Z"/>
      <path class="cls-1" d="M115.32,133.38c1.95-.26,3.86-.78,5.68-1.53.25-.1.43-.33.35-.62-.06-.24-.36-.45-.62-.35-1.82.75-3.73,1.26-5.68,1.53-.27.04-.41.38-.35.62.08.29.35.39.62.35h0Z"/>
      <path class="cls-1" d="M118.3,131.97c-.11,2.7-.08,5.4.1,8.09.04.64,1.04.64,1,0-.18-2.69-.22-5.4-.1-8.09.03-.64-.97-.64-1,0h0Z"/>
      <path class="cls-1" d="M123.86,140.36v-8.66c0-.64-1-.64-1,0v8.66c0,.64,1,.64,1,0h0Z"/>
      <path class="cls-1" d="M125.31,131.97c.53,3.08,1.29,6.11,2.3,9.07.14.42.88.53.96,0,.5-3.1,1.13-6.17,1.89-9.22.16-.62-.81-.89-.96-.27-.76,3.04-1.39,6.12-1.89,9.22h.96c-1-2.96-1.76-5.99-2.3-9.07-.11-.63-1.07-.36-.96.27h0Z"/>
      <path class="cls-1" d="M131.33,133.47l-.38,7.36c-.02.4.43.6.75.43,1.32-.68,2.71-1.19,4.15-1.52.63-.15.36-1.11-.27-.96-1.53.35-3,.9-4.39,1.62l.75.43.38-7.36c.03-.64-.97-.64-1,0h0Z"/>
      <path class="cls-1" d="M131.41,136.24c1.34.42,2.79.29,4.06-.29.25-.11.31-.47.18-.68-.15-.25-.44-.29-.68-.18-1.03.47-2.21.52-3.29.19-.26-.08-.55.09-.62.35-.07.27.09.54.35.62h0Z"/>
      <path class="cls-1" d="M131.58,133.07h3.29c.26,0,.51-.23.5-.5s-.22-.5-.5-.5h-3.29c-.26,0-.51.23-.5.5s.22.5.5.5h0Z"/>
    </g>
    <g>
      <path class="cls-1" d="M78.72,61.47c.33-2,.73-3.98,1.22-5.95.24-.95.49-1.89.76-2.82.15-.5.3-1.01.46-1.51.1-.33.18-.94.46-1.15.63-.47,1.08,1.45,1.16,1.77.25.98.5,1.95.73,2.94.49,2.04.93,4.08,1.35,6.14.13.63,1.09.36.96-.27-.49-2.43-1.03-4.86-1.62-7.27-.26-1.05-.42-2.23-.91-3.2-.31-.62-.9-1.29-1.66-1.19-.88.11-1.14,1.02-1.37,1.74-.36,1.14-.7,2.3-1.01,3.46-.61,2.32-1.11,4.67-1.5,7.04-.1.63.86.9.96.27h0Z"/>
      <path class="cls-1" d="M79.39,56.33c2.3.33,4.63.16,6.85-.53.61-.19.35-1.16-.27-.96-2.04.64-4.2.83-6.32.53-.27-.04-.53.07-.62.35-.07.23.08.58.35.62h0Z"/>
      <path class="cls-1" d="M88.14,60.77c.05-2.61.22-5.21.52-7.8l-.85.35c2.07,1.81,2.03,4.97,3.96,6.92.27.27.73.14.84-.22.88-3.06,1.33-6.23,1.32-9.42,0-.64-1-.64-1,0,0,3.1-.43,6.17-1.29,9.15l.84-.22c-1.93-1.94-1.86-5.08-3.96-6.92-.35-.3-.8-.08-.85.35-.3,2.59-.47,5.2-.52,7.8-.01.64.99.64,1,0h0Z"/>
      <path class="cls-1" d="M95.3,52.58c2.14-.57,4.24-1.27,6.29-2.1.25-.1.43-.33.35-.62-.07-.24-.36-.45-.62-.35-2.05.83-4.15,1.53-6.29,2.1-.62.16-.36,1.13.27.96h0Z"/>
      <path class="cls-1" d="M98.28,51.36c-.46,3.02-.68,6.06-.64,9.11,0,.64,1.01.64,1,0-.04-2.96.16-5.92.61-8.85.1-.63-.87-.9-.96-.27h0Z"/>
      <path class="cls-1" d="M103.6,59.97c-.16-2.9-.11-5.8.15-8.7.06-.64-.94-.64-1,0-.25,2.89-.3,5.8-.15,8.7.03.64,1.03.64,1,0h0Z"/>
      <path class="cls-1" d="M107.61,60.23l-.36-5.13-.18-2.52-.09-1.21c-.02-.29-.18-.92-.03-1.19.07-.12,0-.1.13-.1.09,0,.22.1.29.15.26.18.45.44.63.69.42.57.79,1.18,1.1,1.81.62,1.26,1,2.76.75,4.16-.18.99-.91,2.96-2.25,2.78-.63-.09-.9.88-.27.96,1.52.21,2.59-1,3.13-2.3.68-1.65.54-3.5-.08-5.14-.32-.84-.74-1.64-1.24-2.38-.41-.61-.85-1.28-1.53-1.59-.63-.29-1.31-.11-1.58.57-.16.41-.11.86-.08,1.29l.12,1.71.52,7.44c.04.64,1.05.64,1,0h0Z"/>
      <path class="cls-1" d="M112.74,51.12c-.37,2.84-.73,5.68-1.1,8.52-.04.3.35.59.63.48,1.81-.73,3.63-1.47,5.44-2.2.59-.24.33-1.21-.27-.96-1.81.73-3.63,1.47-5.44,2.2l.63.48c.37-2.84.73-5.68,1.1-8.52.03-.27-.25-.5-.5-.5-.3,0-.47.23-.5.5h0Z"/>
      <path class="cls-1" d="M113.8,54.14c1.08-.38,2.22-.5,3.34-.28.26.05.54-.07.62-.35.07-.25-.08-.56-.35-.62-1.3-.25-2.63-.16-3.88.28-.25.09-.42.34-.35.62.07.25.36.44.62.35h0Z"/>
      <path class="cls-1" d="M113.09,51.21h4.49c.64,0,.64-1,0-1h-4.49c-.64,0-.64,1,0,1h0Z"/>
      <path class="cls-1" d="M121.17,59.97c-.8-1.52-.89-3.24-.78-4.92.05-.84.15-1.68.27-2.51.1-.66.23-1.53.83-1.93.49-.33,1.23-.21,1.63.21.45.48.09,1.05-.26,1.49-.73.92-1.75,1.54-2.93,1.67-.37.04-.74.56-.35.85,1.63,1.27,3.27,2.53,4.9,3.8.5.39,1.22-.31.71-.71-1.63-1.27-3.27-2.53-4.9-3.8l-.35.85c1.27-.14,2.39-.66,3.28-1.57s1.63-2.17.65-3.24c-.91-.99-2.58-.97-3.42.08-.47.58-.64,1.32-.75,2.04-.12.84-.22,1.68-.28,2.52-.15,1.95-.02,3.93.9,5.68.3.57,1.16.06.86-.5h0Z"/>
      <path class="cls-1" d="M127.06,58.67l-.39-8.1c-.03-.64-1.03-.64-1,0l.39,8.1c.03.64,1.03.64,1,0h0Z"/>
      <path class="cls-1" d="M127.75,52.05l2.3,7.05c.15.44.85.51.96,0,.54-2.36,1.08-4.72,1.63-7.09.14-.63-.82-.89-.96-.27-.54,2.36-1.08,4.72-1.63,7.09h.96l-2.3-7.05c-.2-.61-1.16-.35-.96.27h0Z"/>
      <path class="cls-1" d="M134.04,59.5c.02-3.07.8-6.09,2.28-8.78l-.91-.12c1.09,2.86,1.86,5.85,2.24,8.89.08.63,1.08.64,1,0-.39-3.14-1.14-6.21-2.27-9.16-.14-.38-.69-.53-.91-.12-1.56,2.84-2.4,6.04-2.42,9.28,0,.64,1,.64,1,0h0Z"/>
      <path class="cls-1" d="M133.95,54.84c.87,1.29,2.52,1.93,4.04,1.52.62-.17.36-1.13-.27-.96-.08.02-.16.04-.24.06-.03,0-.06.01-.1.02.07-.01,0,0-.04,0-.15.01-.3.02-.44,0-.04,0-.08,0-.12,0-.01,0-.14-.02-.08,0,.05,0-.05,0-.06,0-.04,0-.08-.01-.12-.02-.15-.03-.3-.08-.45-.13-.03-.01-.06-.02-.09-.04-.05-.02.04.02-.04-.02-.07-.03-.13-.06-.2-.1-.14-.07-.27-.16-.39-.25.04.03,0,0-.02-.01-.03-.03-.06-.05-.09-.08-.06-.05-.11-.1-.16-.15-.06-.06-.11-.12-.16-.18-.02-.02-.04-.06-.01-.02-.03-.04-.06-.08-.09-.12-.15-.22-.44-.32-.68-.18-.22.13-.33.46-.18.68h0Z"/>
      <path class="cls-1" d="M138.14,51.72l5.2-2.09c.25-.1.43-.33.35-.62-.07-.24-.36-.45-.62-.35l-5.2,2.09c-.25.1-.43.33-.35.62.07.24.36.45.62.35h0Z"/>
      <path class="cls-1" d="M140.46,50.69c-.13,2.97-.26,5.94-.39,8.9-.03.64.97.64,1,0,.13-2.97.26-5.94.39-8.9.03-.64-.97-.64-1,0h0Z"/>
      <path class="cls-1" d="M144.8,60.23c-.35-3-.11-6.04.74-8.94.18-.62-.78-.88-.96-.27-.87,2.98-1.13,6.12-.77,9.21.07.63,1.07.64,1,0h0Z"/>
      <path class="cls-1" d="M147.1,50.91c.58,3.03,1.5,5.97,2.75,8.79.15.33.71.32.86,0,1.41-3.04,2.46-6.24,3.12-9.53.13-.63-.84-.9-.96-.27-.64,3.2-1.64,6.33-3.02,9.29h.86c-1.21-2.74-2.09-5.61-2.65-8.55-.12-.63-1.08-.36-.96.27h0Z"/>
      <path class="cls-1" d="M154.51,50.99c.1,2.9-.12,5.8-.68,8.64-.08.4.23.67.62.62,1.76-.27,3.51-.54,5.27-.82.57-.09,1.45-.29,1.29-1.07-.13-.64-.94-.8-1.3-.28s.5,1.03.86.5l.04-.06-.3.23-.29-.38-.12.03c-.12,0-.26.04-.37.06-.26.04-.51.08-.77.12-.51.08-1.02.16-1.53.24-1.02.16-2.04.32-3.06.47l.62.62c.58-2.93.82-5.92.72-8.91-.02-.64-1.02-.64-1,0h0Z"/>
      <path class="cls-1" d="M154.32,54.51c1.62.58,3.41.61,5.06.13.62-.18.35-1.15-.27-.96-1.49.44-3.06.39-4.53-.13-.25-.09-.55.1-.62.35-.08.28.09.52.35.62h0Z"/>
      <path class="cls-1" d="M155.45,51.39l4.13.31c.27.02.5-.24.5-.5,0-.29-.23-.48-.5-.5l-4.13-.31c-.27-.02-.5.24-.5.5,0,.29.23.48.5.5h0Z"/>
    </g>
  </g>
</svg>