<?xml version="1.0" encoding="UTF-8"?>
<svg id="Layer_2" data-name="Layer 2" xmlns="http://www.w3.org/2000/svg" viewBox="0 0 273.39 184.87">
  <defs>
    <style>
      .cls-1 {
        fill: #939598;
      }

      .cls-1, .cls-2, .cls-3, .cls-4, .cls-5 {
        stroke-width: 0px;
      }

      .cls-2 {
        fill: #ed1c24;
      }

      .cls-3 {
        fill: #231f20;
      }

      .cls-4 {
        fill: #fff;
      }

      .cls-5 {
        fill: #00aeef;
      }
    </style>
  </defs>
  <g id="Layer_1-2" data-name="Layer 1">
    <g>
      <path class="cls-1" d="M62.43,11.69c.77-1.42,1.64-2.8,2.61-4.09.47-.62.97-1.22,1.49-1.8.14-.16,1.61-1.57,1.59-1.62.06.15-.47-.02-.48-.01.03-.01.19.16.26.23.27.29.53.6.77.91.44.56.84,1.16,1.21,1.77.8,1.33,1.42,2.73,1.88,4.21.57,1.84,3.47,1.05,2.89-.8s-1.39-3.7-2.45-5.36c-.54-.84-1.14-1.65-1.79-2.42-.68-.8-1.48-1.51-2.6-1.48s-1.96.91-2.69,1.67c-.68.7-1.32,1.44-1.92,2.2-1.26,1.59-2.39,3.27-3.36,5.06s1.67,3.21,2.59,1.51h0Z"/>
      <path class="cls-1" d="M60.81,176.19c1.53,2.75,3.41,5.31,5.58,7.59.56.58,1.56.57,2.12,0,2.89-2.93,5.79-5.86,8.68-8.79,1.36-1.38-.76-3.5-2.12-2.12-2.89,2.93-5.79,5.86-8.68,8.79h2.12c-2-2.11-3.7-4.44-5.11-6.98-.94-1.69-3.53-.18-2.59,1.51h0Z"/>
      <path class="cls-1" d="M66.71,4.52c-1.47,12.1-1.42,24.31-.97,36.47s1.31,24.29,1.43,36.46-.56,24.47-.76,36.71-.14,24.55.04,36.82c.09,6.17.21,12.33.33,18.5.06,3.05.13,6.11.2,9.16.03,1.28-.19,3.12,1.11,3.9,1.22.73,2.68-.11,2.73-1.52s-1.28-2.23-2.5-1.59c-1.71.9-.19,3.5,1.51,2.59l.1-.05-1.16.15.07.02-.9-.69v-.96c.17-.18.35-.36.53-.54l-.09.07.76-.2h-.12c.25.07.5.14.76.21.32.14.23.51.22-.16,0-.35-.02-.7-.02-1.06-.02-.7-.03-1.41-.05-2.11-.03-1.53-.07-3.05-.1-4.58-.06-2.94-.12-5.87-.18-8.81-.11-5.75-.21-11.51-.27-17.26-.13-11.51-.15-23.02.07-34.53s.84-22.83.71-34.24-.88-22.79-1.35-34.19c-.53-12.85-.67-25.77.88-38.56.1-.81-.76-1.5-1.5-1.5-.89,0-1.4.69-1.5,1.5h0Z"/>
    </g>
    <g>
      <path class="cls-2" d="M219.49,19.21c3.62-2.88,7.51-5.42,11.6-7.59.27-.14.73-.52,1.04-.4s.49.66.62.92c.54,1.11,1.05,2.23,1.58,3.34,1.08,2.29,2.16,4.58,3.24,6.87.55,1.16,2.27.15,1.73-1.01-.94-1.99-1.88-3.98-2.81-5.97-.46-.98-.92-1.95-1.38-2.93-.39-.83-.72-1.71-1.33-2.41-1.49-1.72-3.47-.29-5,.57-1.74.97-3.44,2.01-5.1,3.11-1.92,1.28-3.78,2.64-5.59,4.08-.42.34-.35,1.06,0,1.41.42.42.99.34,1.41,0h0Z"/>
      <path class="cls-2" d="M17.25,130.72l-1.08-5.79-.54-2.9c-.09-.46-.1-1.01-.27-1.45.01-.27-.03-.31-.12-.14-.11.1-.11.13-.02.08.02.01.55-.11.55-.11,3.75-.63,7.64-.57,11.37.09.53.09,1.08-.14,1.23-.7.13-.48-.16-1.14-.7-1.23-2.21-.39-4.45-.6-6.69-.59-1.12,0-2.23.07-3.34.18-1.01.1-2.15.13-3.11.48-1.15.42-1.3,1.38-1.1,2.47s.42,2.25.63,3.38l1.26,6.76c.24,1.26,2.16.73,1.93-.53h0Z"/>
      <path class="cls-2" d="M15.24,120.84c11.25,11.23,25.12,20.17,40.74,23.76,9.32,2.14,18.99,2.31,28.37.46,9.27-1.83,18.08-5.54,26.38-9.99,9.46-5.07,18.37-11.1,27.17-17.21,5.69-3.95,11.39-7.89,16.88-12.11,14.57-11.17,27.99-23.85,40.11-37.63,13.5-15.36,25.38-32.15,35.34-50,.95-1.71,1.89-3.43,2.81-5.16.6-1.14-1.12-2.15-1.73-1.01-9.04,16.99-19.77,33.08-32.02,47.93s-26.3,28.81-41.49,40.98c-4.16,3.33-8.44,6.51-12.8,9.58-9.03,6.35-18.05,12.75-27.51,18.46-8.22,4.96-16.82,9.43-26.01,12.28s-18.15,3.81-27.39,2.79c-16.87-1.86-32.24-10.33-44.55-21.75-.98-.91-1.95-1.85-2.9-2.79s-2.33.5-1.41,1.41h0Z"/>
    </g>
    <g>
      <path class="cls-2" d="M144.68,25.32c-.56.21-.73-2.38-.77-2.74-.14-1.12-.26-2.24-.34-3.37-.17-2.29-.2-4.63.18-6.9.62-3.7,2.48-7.49,5.89-9.37.84-.46,1.76-.78,2.72-.88.6-.06,2.49-.03,2.18,1.02-.18.62.79.88.96.27.28-.96-.39-1.73-1.24-2.08-.92-.38-2.01-.25-2.96-.04-2.1.49-3.94,1.85-5.29,3.49-3.43,4.15-3.83,9.67-3.41,14.84.13,1.59.33,3.17.53,4.75.11.87.64,2.42,1.82,1.97.6-.23.34-1.19-.27-.96h0Z"/>
      <path class="cls-2" d="M138.15,13.99c4.3-.25,8.59.36,12.65,1.8.61.22.87-.75.27-.96-4.13-1.47-8.53-2.09-12.91-1.84-.64.04-.64,1.04,0,1h0Z"/>
      <path class="cls-2" d="M159.12,5.35c-2.24,3.79-3.6,8.05-3.95,12.44-.15,1.91-.33,4.23.8,5.91.9,1.34,2.81,2.1,4.25,1.14.53-.36.03-1.22-.5-.86-1.53,1.03-3.06-.62-3.42-2.03-.45-1.74-.21-3.76.02-5.52.49-3.73,1.75-7.34,3.67-10.58.33-.55-.54-1.06-.86-.5h0Z"/>
      <path class="cls-2" d="M162.32,9.56c2.36,4.54,4.89,8.97,7.61,13.3.34.54,1.21.04.86-.5-2.72-4.33-5.25-8.77-7.61-13.3-.3-.57-1.16-.07-.86.5h0Z"/>
      <path class="cls-2" d="M168.97,10.58c-2.09,4.5-4.44,8.88-7.04,13.11-.34.55.53,1.05.86.5,2.6-4.23,4.95-8.6,7.04-13.11.27-.58-.59-1.09-.86-.5h0Z"/>
      <path class="cls-2" d="M171.68,6.57c1.45,3.18,2.49,6.54,3.09,9.98.29,1.66.58,3.4.53,5.09-.02.75-.18,1.6-.76,2.13-.51.46-1.23.65-1.83.24-.53-.37-1.03.5-.5.86,1.26.87,2.97.08,3.62-1.17.87-1.67.42-3.88.18-5.66-.56-4.14-1.73-8.17-3.46-11.97-.27-.58-1.13-.08-.86.5h0Z"/>
      <path class="cls-2" d="M182.55,12.83c2.43-.48,4.94-.36,7.32.34.62.18.88-.78.27-.96-2.55-.75-5.24-.86-7.85-.34-.63.13-.36,1.09.27.96h0Z"/>
      <path class="cls-2" d="M182.56,17.77c2.65-.38,5.35-.32,7.98.18.63.12.9-.85.27-.96-2.82-.53-5.68-.59-8.51-.18-.27.04-.41.38-.35.62.08.29.35.39.62.35h0Z"/>
      <path class="cls-2" d="M196.11,8.07c1.85,5.81,5.05,11.13,9.33,15.48.45.46,1.16-.25.71-.71-4.15-4.23-7.27-9.39-9.07-15.03-.19-.61-1.16-.35-.96.27h0Z"/>
      <path class="cls-2" d="M204.52,9.05c-1.61,2.26-3.29,4.47-4.86,6.75s-2.97,4.66-4.27,7.11c-.3.57.56,1.07.86.5,1.29-2.45,2.69-4.83,4.27-7.11s3.25-4.49,4.86-6.75c.37-.52-.49-1.02-.86-.5h0Z"/>
      <path class="cls-2" d="M209.87,1.03c2.65-.3,5.02,2.48,4.45,5.07s-3.5,4.23-6.05,3.78c-.62-.11-.9.82-.27.96,2.92.68,5.82,1.43,8.71,2.23.62.17.89-.79.27-.96-2.89-.8-5.79-1.54-8.71-2.23l-.27.96c3.1.54,6.72-1.37,7.31-4.64s-2.17-6.55-5.45-6.18c-.63.07-.64,1.07,0,1h0Z"/>
    </g>
    <g>
      <path class="cls-1" d="M254.27,144.34c-10.28-1.98-20.63-.54-30.88.86-5.25.72-10.52,1.39-15.82,1.56-4.52.15-9.04.32-13.56.52-6.49.29-12.98.59-19.49.44-7.1-.16-14.16-.89-21.25-1.3-12.85-.75-25.77-1.18-38.64-1.21-7.88-.02-15.76.35-23.63.72-4.34.2-8.68.52-13.02.54-5.17.03-10.33-.27-15.5-.43-4.6-.15-9.18-.02-13.78-.01-4.41,0-8.82-.08-13.23-.1-7.6-.05-15.17.38-22.75-.24-2.17-.18-4.33-.37-6.5-.55-1.92-.16-1.91,2.84,0,3,3.75.32,7.5.71,11.27.86s7.73,0,11.59-.06c8.58-.13,17.16.14,25.73.01,9.99-.15,19.93.8,29.92.29,8.52-.43,17.05-.83,25.58-.98,12.77-.23,25.6.32,38.36.93,6.67.32,13.32.97,19.99,1.32s13.16.3,19.75.03c3.79-.16,7.57-.34,11.36-.49,5.03-.2,10.07-.27,15.09-.78,10.28-1.05,20.52-3.27,30.91-2.88,2.59.1,5.16.37,7.71.86,1.89.36,2.69-2.53.8-2.89h0Z"/>
      <path class="cls-1" d="M243.92,138.82c2.32.85,4.53,2.11,6.43,3.69.84.7,1.63,1.46,2.36,2.26.31.34.61.69.91,1.05.05.06.4.51.27.34.14.18.27.37.41.55l.54-2.05c-3.51,2.15-7.03,4.3-10.54,6.45-1.64,1.01-.14,3.6,1.51,2.59,3.51-2.15,7.03-4.3,10.54-6.45.64-.39,1.02-1.38.54-2.05-3.08-4.25-7.23-7.46-12.17-9.27-.76-.28-1.64.31-1.85,1.05-.23.84.28,1.56,1.05,1.85h0Z"/>
      <path class="cls-1" d="M10.78,138.87c-3.1,1.8-6.2,3.6-9.3,5.4-.92.53-.88,1.61-.3,2.36,2.39,3.08,4.78,6.17,7.17,9.25.5.64,1.6.52,2.12,0,.63-.63.5-1.48,0-2.12-2.39-3.08-4.78-6.17-7.17-9.25l-.3,2.36c3.1-1.8,6.2-3.6,9.3-5.4,1.67-.97.16-3.56-1.51-2.59h0Z"/>
      <path class="cls-1" d="M217,142.52c-.54,3.89-.68,7.79-.35,11.71.07.81.64,1.5,1.5,1.5.76,0,1.57-.69,1.5-1.5-.31-3.63-.26-7.3.24-10.91.11-.8-.19-1.61-1.05-1.85-.7-.19-1.73.24-1.85,1.05h0Z"/>
      <path class="cls-1" d="M144.47,141.42c-.73,3.65-.46,7.46.93,10.92.3.75,1,1.28,1.85,1.05.71-.2,1.35-1.09,1.05-1.85-1.21-3.01-1.55-6.23-.93-9.33.16-.79-.23-1.62-1.05-1.85-.74-.2-1.68.25-1.85,1.05h0Z"/>
      <path class="cls-1" d="M182.43,142.92c-1.13,3.94-1.13,8.16-.01,12.1.53,1.85,3.42,1.07,2.89-.8-.98-3.45-.98-7.06.01-10.51.53-1.86-2.36-2.65-2.89-.8h0Z"/>
      <path class="cls-1" d="M109.42,141.44c-.32,3.4-.17,6.79.38,10.16.13.8,1.13,1.25,1.85,1.05.85-.23,1.18-1.04,1.05-1.85-.48-3.01-.56-6.25-.27-9.36.07-.78-.74-1.53-1.5-1.5-.88.04-1.42.66-1.5,1.5h0Z"/>
    </g>
    <g>
      <g>
        <path class="cls-5" d="M218.58,143.59c-.05-.09-.09-.18-.13-.28l.1.24c-.12-.29-.2-.59-.25-.89l.04.27c-.04-.31-.04-.62,0-.93l-.04.27c0-.05.02-.1.02-.15.05-.27.04-.53-.1-.77-.12-.21-.36-.41-.6-.46-.26-.06-.54-.05-.77.1-.21.13-.41.34-.46.6-.05.28-.09.56-.09.84s.03.55.07.83c.07.47.25.93.47,1.35.12.22.36.4.6.46s.56.04.77-.1c.47-.3.62-.87.36-1.37h0Z"/>
        <path class="cls-5" d="M217.99,138.09c.04-.85-.11-1.73-.44-2.51-.03-.13-.09-.24-.18-.34-.07-.11-.16-.19-.28-.26-.21-.13-.53-.18-.77-.1s-.48.23-.6.46-.2.53-.1.77c.18.42.3.85.36,1.3l-.04-.27c.04.31.06.63.04.94-.02.52.48,1.02,1,1,.56-.03.98-.44,1-1h0Z"/>
        <path class="cls-5" d="M217.29,132.07l-.48-3.74c-.04-.28-.09-.5-.29-.71-.17-.17-.46-.3-.71-.29s-.53.1-.71.29c-.17.18-.33.45-.29.71l.48,3.74c.04.28.09.5.29.71.17.17.46.3.71.29s.53-.1.71-.29c.17-.18.33-.45.29-.71h0Z"/>
        <path class="cls-5" d="M217.15,123.33c.23-1.57.18-3.14-.2-4.69-.12-.51-.73-.86-1.23-.7s-.83.69-.7,1.23c.08.33.15.67.2,1.01.04.26-.02-.22,0,.05,0,.08.02.16.03.24.02.17.03.34.04.51.02.33.02.66,0,.99,0,.16-.02.32-.03.47,0,.08-.01.16-.02.24,0,.05-.01.1-.02.16.02-.14.02-.15,0-.03-.04.28-.05.52.1.77.12.21.36.41.6.46.47.11,1.15-.14,1.23-.7h0Z"/>
        <path class="cls-5" d="M216.85,114.81v-3.38c0-.52-.46-1.02-1-1s-1,.44-1,1v3.38c0,.52.46,1.02,1,1s1-.44,1-1h0Z"/>
        <path class="cls-5" d="M216.53,107.33c-.12-1.65-.24-3.29-.37-4.94-.04-.52-.43-1.03-1-1-.51.02-1.04.44-1,1,.12,1.65.24,3.29.37,4.94.04.52.43,1.03,1,1,.51-.02,1.04-.44,1-1h0Z"/>
        <path class="cls-5" d="M215.76,98.39c-.35-1.74-.49-3.48-.42-5.35.02-.52-.47-1.02-1-1-.56.03-.98.44-1,1-.07,1.97.1,3.95.49,5.88.1.51.74.86,1.23.7.55-.18.81-.68.7-1.23h0Z"/>
        <path class="cls-5" d="M215.31,88.15c.2-1.98.11-3.96-.21-5.92-.08-.52-.75-.85-1.23-.7-.56.18-.79.68-.7,1.23.08.48.11.72.16,1.25.04.45.07.91.08,1.36.03.93,0,1.85-.1,2.78-.05.52.5,1.02,1,1,.59-.03.94-.44,1-1h0Z"/>
        <path class="cls-5" d="M214.98,76.52c.08-1.6-.09-3.21-.48-4.76-.13-.51-.72-.86-1.23-.7s-.83.69-.7,1.23c.09.36.17.72.23,1.09.01.08.03.17.04.25,0,.03.05.34.03.21s.02.18.02.21c0,.08.02.17.03.25.07.74.08,1.48.05,2.22-.03.52.48,1.02,1,1,.56-.03.97-.44,1-1h0Z"/>
        <path class="cls-5" d="M213.85,67.51v-4.5c0-.52-.46-1.02-1-1s-1,.44-1,1v4.5c0,.52.46,1.02,1,1s1-.44,1-1h0Z"/>
        <path class="cls-5" d="M213.13,56.72l-.78-3c-.13-.51-.72-.86-1.23-.7s-.84.69-.7,1.23l.78,3c.13.51.72.86,1.23.7s.84-.69.7-1.23h0Z"/>
        <path class="cls-5" d="M212.21,51.61s-.04-.09-.06-.13l.1.24c-.16-.38-.26-.77-.32-1.18l.04.27c-.05-.41-.05-.82,0-1.22l-.04.27s0-.06.01-.09c.04-.28.05-.52-.1-.77-.12-.21-.36-.41-.6-.46-.26-.06-.54-.05-.77.1-.2.13-.42.35-.46.6-.04.31-.09.61-.09.92s.03.62.08.92c.08.54.25,1.05.48,1.55.1.21.38.4.6.46.24.07.56.04.77-.1s.4-.34.46-.6l.04-.27c0-.18-.05-.35-.14-.5h0Z"/>
        <path class="cls-5" d="M207.48,53.12c-.63,1.11-1.26,2.22-1.9,3.33-.15.26-.3.52-.44.78-.26.45-.12,1.11.36,1.37s1.09.13,1.37-.36c.61-1.07,1.22-2.14,1.83-3.21.17-.3.34-.6.51-.9.26-.45.12-1.11-.36-1.37s-1.09-.13-1.37.36h0Z"/>
        <path class="cls-5" d="M202.58,60.1c-.04.11-.09.23-.13.34l.1-.24c-.27.64-.63,1.24-1.05,1.8l.16-.2c-.28.36-.59.69-.92.99-.39.35-.39,1.06,0,1.41.41.38,1,.38,1.41,0,1.07-.98,1.86-2.21,2.36-3.57.09-.23.02-.56-.1-.77s-.36-.41-.6-.46c-.26-.06-.54-.05-.77.1s-.37.34-.46.6h0Z"/>
        <path class="cls-5" d="M197.8,65.85c-.21.36-.43.7-.67,1.04-.12.17-.23.37-.38.51.07-.07.1-.13.01-.02-.03.03-.06.07-.08.1-.07.09-.14.17-.21.26-.54.64-1.13,1.23-1.77,1.78-.4.34-.38,1.07,0,1.41.43.39.99.36,1.41,0,1.35-1.15,2.51-2.55,3.41-4.08.27-.45.12-1.12-.36-1.37s-1.08-.12-1.37.36h0Z"/>
        <path class="cls-5" d="M191.87,71.91l-3.4,4.87c-.3.43-.09,1.13.36,1.37.51.27,1.05.1,1.37-.36l3.4-4.87c.3-.43.09-1.13-.36-1.37-.51-.27-1.05-.1-1.37.36h0Z"/>
        <path class="cls-5" d="M185.69,79.92c-1.14.86-2.28,1.71-3.43,2.57-.22.16-.38.33-.46.6-.07.24-.04.56.1.77s.34.4.6.46.56.06.77-.1c1.14-.86,2.28-1.71,3.43-2.57.22-.16.38-.33.46-.6.07-.24.04-.56-.1-.77s-.34-.4-.6-.46-.56-.06-.77.1h0Z"/>
        <path class="cls-5" d="M179.03,85.53l-2.96,3.27c-.35.39-.41,1.04,0,1.41.38.35,1.04.41,1.41,0l2.96-3.27c.35-.39.41-1.04,0-1.41-.38-.35-1.04-.41-1.41,0h0Z"/>
        <path class="cls-5" d="M172.9,90.81c-.92.82-1.84,1.64-2.76,2.46-.39.35-.38,1.06,0,1.41.42.38,1,.37,1.41,0,.92-.82,1.84-1.64,2.76-2.46.39-.35.38-1.06,0-1.41-.42-.38-1-.37-1.41,0h0Z"/>
        <path class="cls-5" d="M166.95,97.1c-1.54.89-2.93,2.06-4.06,3.43-.17.21-.29.43-.29.71,0,.25.11.54.29.71.37.34,1.06.43,1.41,0,.53-.64,1.12-1.24,1.76-1.79.15-.13.31-.24.46-.38-.18.17-.07.05-.02.02.04-.03.09-.07.13-.1.08-.06.16-.12.24-.17.35-.25.71-.48,1.08-.69.45-.26.65-.91.36-1.37s-.88-.64-1.37-.36h0Z"/>
        <path class="cls-5" d="M159.9,102.17c-1.04.72-2.08,1.45-3.12,2.17-.22.15-.39.34-.46.6-.07.24-.04.56.1.77.27.43.91.68,1.37.36,1.04-.72,2.08-1.45,3.12-2.17.22-.15.39-.34.46-.6.07-.24.04-.56-.1-.77-.27-.43-.91-.68-1.37-.36h0Z"/>
        <path class="cls-5" d="M151.34,108.12l-2.96,2.3c-.19.15-.29.48-.29.71,0,.25.11.54.29.71s.44.3.71.29l.27-.04c.17-.05.32-.13.44-.26l2.96-2.3c.19-.15.29-.48.29-.71,0-.25-.11-.54-.29-.71s-.44-.3-.71-.29l-.27.04c-.17.05-.32.13-.44.26h0Z"/>
        <path class="cls-5" d="M144.01,114.31l-3.74,2.27c-.45.27-.65.91-.36,1.37s.89.65,1.37.36l3.74-2.27c.45-.27.65-.91.36-1.37s-.89-.65-1.37-.36h0Z"/>
        <path class="cls-5" d="M136.5,118.81l-3.79,2.19c-.45.26-.65.92-.36,1.37s.88.64,1.37.36l3.79-2.19c.45-.26.65-.92.36-1.37s-.88-.64-1.37-.36h0Z"/>
        <path class="cls-5" d="M127.68,125.13c-.91.86-1.82,1.72-2.73,2.58-.38.36-.39,1.06,0,1.41s1.01.38,1.41,0c.91-.86,1.82-1.72,2.73-2.58.38-.36.39-1.06,0-1.41s-1.01-.38-1.41,0h0Z"/>
        <path class="cls-5" d="M120.37,130.09c-1.01.68-2.03,1.35-3.04,2.03-.23.15-.46.31-.69.46-.43.29-.66.9-.36,1.37.28.43.9.67,1.37.36.95-.63,1.9-1.27,2.86-1.9.29-.19.58-.39.88-.58.43-.29.66-.9.36-1.37-.28-.43-.9-.67-1.37-.36h0Z"/>
        <path class="cls-5" d="M113.23,134.59l-3.01,1.48c-.22.11-.4.37-.46.6-.07.24-.04.56.1.77.31.48.86.61,1.37.36l3.01-1.48c.22-.11.4-.37.46-.6.07-.24.04-.56-.1-.77-.31-.48-.86-.61-1.37-.36h0Z"/>
        <path class="cls-5" d="M109.36,139.22v1.5c0,.26.11.53.29.71s.46.3.71.29.53-.1.71-.29.29-.44.29-.71v-1.5c0-.26-.11-.53-.29-.71s-.46-.3-.71-.29-.53.1-.71.29-.29.44-.29.71h0Z"/>
        <path class="cls-5" d="M109.58,143.69c-.22.63-.37,1.33-.2,1.99.12.48.46.88.94,1.02.09.03.21.04.3.04.01,0,.03,0,.04,0,.1,0,.21-.02.3-.04.02,0,.03,0,.05-.01.1-.03.22-.08.31-.14.08-.05.16-.12.23-.18.01-.01.03-.02.04-.04.16-.17.31-.4.36-.63.02-.1.04-.21.04-.31,0-.02,0-.04,0-.07,0-.13-.02-.28-.07-.41-.03-.13-.09-.24-.18-.34-.07-.11-.16-.19-.28-.26-.21-.13-.53-.18-.77-.1s-.48.23-.6.46-.19.52-.1.77c.01.04.02.07.03.11l-.04-.27s0,.08,0,.12l.04-.27s-.02.07-.03.11l.1-.24s-.03.06-.05.09l.16-.2s-.04.05-.07.07l.2-.16s-.05.04-.08.05l.24-.1s-.05.02-.08.02l.27-.04s-.05,0-.08,0l.27.04s-.04,0-.06-.02l.24.1s-.04-.02-.06-.03l.2.16s-.04-.03-.05-.05l.16.2s-.04-.06-.05-.09l.1.24c-.04-.09-.06-.18-.07-.28l.04.27c-.02-.16-.01-.31,0-.47l-.04.27c.04-.29.13-.57.22-.84.04-.13.05-.27.02-.4,0-.13-.05-.26-.12-.37-.12-.21-.36-.41-.6-.46-.26-.06-.54-.05-.77.1l-.2.16c-.12.12-.21.27-.26.44h0Z"/>
        <path class="cls-5" d="M116.07,145.83h3.99c.52,0,1.02-.46,1-1s-.44-1-1-1h-3.99c-.52,0-1.02.46-1,1s.44,1,1,1h0Z"/>
        <path class="cls-5" d="M123.48,146.44l4.53-.46c.52-.05,1.03-.42,1-1-.02-.5-.44-1.06-1-1l-4.53.46c-.52.05-1.03.42-1,1,.02.5.44,1.06,1,1h0Z"/>
        <path class="cls-5" d="M132.89,146.22h5.26c.52,0,1.02-.46,1-1s-.44-1-1-1h-5.26c-.52,0-1.02.46-1,1s.44,1,1,1h0Z"/>
        <path class="cls-5" d="M143.27,145.97h4.5c.52,0,1.02-.46,1-1s-.44-1-1-1h-4.5c-.52,0-1.02.46-1,1s.44,1,1,1h0Z"/>
        <path class="cls-5" d="M150.91,146.47h4.13c.52,0,1.02-.46,1-1s-.44-1-1-1h-4.13c-.52,0-1.02.46-1,1s.44,1,1,1h0Z"/>
        <path class="cls-5" d="M158.16,146.15c2.44.46,4.92.62,7.39.43.54-.04,1-.43,1-1,0-.51-.46-1.04-1-1-2.29.17-4.6.07-6.86-.36-.53-.1-1.08.15-1.23.7-.13.49.17,1.13.7,1.23h0Z"/>
        <path class="cls-5" d="M171.48,147.68c.34-.11.69-.19,1.04-.26.11-.02.22-.04.33-.06.22-.04-.18.02.06,0,.18-.02.36-.04.54-.05.36-.02.72-.03,1.07,0,.18,0,.36.02.54.04.05,0,.11.01.16.02h-.1c.11,0,.22.02.33.04.51.09,1.1-.14,1.23-.7.11-.48-.15-1.14-.7-1.23-1.68-.29-3.39-.21-5.03.29-.5.15-.87.71-.7,1.23s.69.86,1.23.7h0Z"/>
        <path class="cls-5" d="M180.94,147.35h3.38c.52,0,1.02-.46,1-1s-.44-1-1-1h-3.38c-.52,0-1.02.46-1,1s.44,1,1,1h0Z"/>
        <path class="cls-5" d="M187.03,147.02c1.54.42,3.11.49,4.68.27.23-.03.49-.27.6-.46.13-.21.18-.53.1-.77s-.23-.48-.46-.6c-.25-.13-.49-.14-.77-.1.27-.04-.02,0-.08,0-.09,0-.18.02-.27.03-.15.01-.31.02-.46.03-.34.01-.67,0-1.01-.02-.15-.01-.31-.02-.46-.04-.05,0-.1-.01-.15-.02.12.02.15.02.07,0-.09-.01-.18-.03-.27-.04-.33-.06-.66-.13-.98-.22-.5-.14-1.11.17-1.23.7s.16,1.08.7,1.23h0Z"/>
        <path class="cls-5" d="M195.96,146.82c1.97.18,3.96.05,5.9-.35.51-.11.86-.74.7-1.23-.18-.54-.68-.81-1.23-.7-.23.05-.46.09-.7.13-.13.02-.25.04-.38.06-.03,0-.32.04-.17.02-.45.06-.9.1-1.36.12-.93.05-1.85.03-2.78-.05-.52-.05-1.02.49-1,1,.03.58.44.95,1,1h0Z"/>
        <path class="cls-5" d="M204.95,146.82c1.06,0,2.12,0,3.17.01.52,0,1.02-.46,1-1s-.44-1-1-1c-1.06,0-2.12,0-3.17-.01-.52,0-1.02.46-1,1s.44,1,1,1h0Z"/>
        <path class="cls-5" d="M211.66,145.67c1.63-.23,3.25-.45,4.88-.68.52-.07.85-.76.7-1.23-.18-.57-.67-.78-1.23-.7-1.63.23-3.25.45-4.88.68-.52.07-.85.76-.7,1.23.18.57.67.78,1.23.7h0Z"/>
      </g>
      <g>
        <path class="cls-5" d="M206.09,58.5c2.4,1.9,4.58,4.06,6.52,6.43.17.21.53.18.71,0,.21-.2.17-.5,0-.71-1.93-2.37-4.12-4.53-6.52-6.43-.21-.17-.5-.2-.71,0-.18.17-.21.54,0,.71h0Z"/>
        <path class="cls-5" d="M203.63,62.35c2.74,3.16,5.47,6.32,8.21,9.48.42.49,1.13-.22.71-.71-2.74-3.16-5.47-6.32-8.21-9.48-.42-.49-1.13.22-.71.71h0Z"/>
        <path class="cls-5" d="M199.07,68.98c4.77,5.15,9.53,10.29,14.3,15.44.44.47,1.14-.24.71-.71-4.77-5.15-9.53-10.29-14.3-15.44-.44-.47-1.14.24-.71.71h0Z"/>
        <path class="cls-5" d="M190.58,74.29c7.18,7.15,14.53,14.13,22.04,20.93.48.43,1.19-.27.71-.71-7.51-6.8-14.86-13.78-22.04-20.93-.46-.45-1.16.25-.71.71h0Z"/>
        <path class="cls-5" d="M185.54,82.16c3.93,3.67,7.86,7.34,11.79,11s7.73,7.1,11.49,10.75c1.99,1.93,3.87,3.98,5.38,6.32l.86-.5c-.21-.29-.41-.58-.62-.87-.37-.52-1.24-.02-.86.5.21.29.41.58.62.87.37.52,1.22.04.86-.5-2.7-4.18-6.52-7.47-10.14-10.84-3.99-3.72-7.98-7.45-11.97-11.17l-6.71-6.26c-.47-.44-1.18.27-.71.71h0Z"/>
        <path class="cls-5" d="M178.71,89.49c9.72,7.42,19.22,15.15,28.46,23.16,2.64,2.28,5.25,4.59,7.85,6.92.48.43,1.19-.28.71-.71-9.26-8.32-18.79-16.34-28.56-24.06-2.64-2.08-5.29-4.14-7.96-6.18-.51-.39-1.01.48-.5.86h0Z"/>
        <path class="cls-5" d="M170,95.7c4.54,5.58,10.27,9.97,15.97,14.28,6.4,4.84,12.8,9.68,19.2,14.53,3.64,2.75,7.27,5.5,10.91,8.25.51.39,1.01-.48.5-.86-6.41-4.85-12.83-9.71-19.24-14.56-3.17-2.4-6.35-4.8-9.52-7.2-2.9-2.2-5.82-4.38-8.61-6.72-3.07-2.57-5.98-5.32-8.5-8.43-.41-.5-1.11.21-.71.71h0Z"/>
        <path class="cls-5" d="M166.02,101.09c5.51,6.33,12.25,11.38,18.76,16.62,3.26,2.62,6.47,5.31,9.46,8.23s5.5,5.75,8.35,8.53c3.19,3.11,6.65,5.99,10.66,8,.57.29,1.08-.57.5-.86-7.17-3.6-12.31-9.86-17.87-15.44-5.89-5.91-12.66-10.81-19.05-16.14-3.58-2.98-7.04-6.13-10.11-9.65-.42-.49-1.13.22-.71.71h0Z"/>
        <path class="cls-5" d="M160.11,105.08c9.19,9.89,18.23,19.92,27.11,30.09,2.56,2.92,5.1,5.86,7.63,8.81.42.49,1.12-.22.71-.71-8.85-10.31-17.86-20.49-27.02-30.52-2.56-2.8-5.13-5.59-7.71-8.37-.44-.47-1.14.24-.71.71h0Z"/>
        <path class="cls-5" d="M153.51,108.54c7.65,9.24,15.14,18.6,22.5,28.07,2.06,2.65,4.12,5.31,6.17,7.97.39.5,1.26,0,.86-.5-7.47-9.7-15.01-19.35-22.74-28.84-2.02-2.47-4.05-4.94-6.08-7.4-.41-.5-1.11.21-.71.71h0Z"/>
        <path class="cls-5" d="M150.39,113.76c1.45,4.23,4.14,7.85,6.67,11.48,2.83,4.05,5.66,8.1,8.48,12.16,1.62,2.32,3.23,4.63,4.85,6.95.37.52,1.23.02.86-.5-2.8-4.02-5.61-8.04-8.41-12.05s-5.48-7.67-8.06-11.62c-1.37-2.1-2.62-4.29-3.43-6.67-.21-.61-1.17-.35-.96.27h0Z"/>
        <path class="cls-5" d="M144.72,117.33c5.28,9.06,10.57,18.13,15.85,27.19.32.56,1.19.05.86-.5-5.28-9.06-10.57-18.13-15.85-27.19-.32-.56-1.19-.05-.86.5h0Z"/>
        <path class="cls-5" d="M137.12,121.8c2.66,3.13,4.91,6.59,6.68,10.3.89,1.86,1.6,3.78,2.29,5.72s1.78,3.79,2.61,5.72c.25.59,1.11.08.86-.5-.87-2.02-1.98-3.92-2.69-6.01-.65-1.92-1.42-3.8-2.3-5.63-1.8-3.71-4.07-7.17-6.74-10.31-.42-.49-1.12.22-.71.71h0Z"/>
        <path class="cls-5" d="M130.13,127.01c3.99,6.01,7.98,12.02,11.98,18.03.35.53,1.22.03.86-.5-3.99-6.01-7.98-12.02-11.98-18.03-.35-.53-1.22-.03-.86.5h0Z"/>
        <path class="cls-5" d="M123.06,130.84c2.42,4.45,5.25,8.65,8.44,12.58.36.45,1.07-.13.79-.61-.16-.27-.32-.54-.47-.81-.33-.55-1.19-.05-.86.5.16.27.32.54.47.81l.79-.61c-3.14-3.86-5.91-8.01-8.28-12.37-.31-.57-1.17-.06-.86.5h0Z"/>
        <path class="cls-5" d="M116.67,134.9c2.35,3.36,4.58,6.8,6.71,10.3.33.55,1.2.05.86-.5-2.12-3.51-4.36-6.94-6.71-10.3-.37-.52-1.23-.02-.86.5h0Z"/>
      </g>
    </g>
    <g>
      <path class="cls-1" d="M108.12,162.12c.53-1.19,1.15-2.34,1.87-3.43.19-.29.39-.58.59-.86.1-.14.2-.32.33-.44.17-.16.12-.18.22,0,.15.27.11.78.14,1.08.04.37.08.74.12,1.11.26,2.85.23,5.71-.08,8.55-.07.64.93.63,1,0,.38-3.52.33-7.06-.15-10.57-.08-.6-.2-1.29-.92-1.38s-1.16.64-1.52,1.14c-.97,1.34-1.79,2.78-2.46,4.29-.26.58.6,1.09.86.5h0Z"/>
      <path class="cls-1" d="M107.97,170.61c1.84-1.97,4.95-2.51,7.46-1.69.61.2.88-.76.27-.96-2.83-.93-6.36-.27-8.43,1.94-.44.47.27,1.18.71.71h0Z"/>
    </g>
    <g>
      <path class="cls-1" d="M214.41,159.22c-.75,1.81-1.31,3.69-1.66,5.62-.05.28.13.67.48.63,2.95-.34,5.9-.69,8.85-1.03.63-.07.64-1.07,0-1-2.95.34-5.9.69-8.85,1.03l.48.63c.35-1.93.91-3.81,1.66-5.62.25-.59-.72-.85-.96-.27h0Z"/>
      <path class="cls-1" d="M218.36,159.36c-.47,3.64-.73,7.31-.77,10.98,0,.64.99.64,1,0,.05-3.67.31-7.34.77-10.98.08-.64-.92-.63-1,0h0Z"/>
    </g>
    <g>
      <g>
        <g>
          <path class="cls-3" d="M236.35,85.79c.83-5.36,1.76-10.76,3.1-16.01.3-1.18.64-2.48,1.31-3.52.29-.46.77-.84,1.21-.33.35.41.47,1.04.62,1.54.74,2.56,1.38,5.15,1.9,7.77.6,3,1.05,6.03,1.35,9.08.06.63,1.06.64,1,0-.59-5.96-1.66-11.97-3.46-17.69-.27-.85-.75-1.89-1.77-1.97-1.2-.09-1.82,1.17-2.22,2.09-1.13,2.62-1.57,5.57-2.14,8.35-.71,3.46-1.33,6.93-1.87,10.41-.1.63.87.9.96.27h0Z"/>
          <path class="cls-3" d="M237.92,77c2.11-.01,4.23-.02,6.34-.03.64,0,.64-1,0-1-2.11.01-4.23.02-6.34.03-.64,0-.64,1,0,1h0Z"/>
          <path class="cls-3" d="M250.28,82.93c-.15-2.41-.17-4.82-.03-7.23.06-1.15.07-2.39.36-3.51.26-1.01,1.24-2.09,2.28-1.23.77.64,1.08,1.83.72,2.76-.32.83-1.15,1.46-1.94,1.8-.55.24-1.35.31-1.77.78-.53.59-.07,1.31.41,1.75,1.45,1.29,2.73,2.65,3.9,4.21.38.51,1.25.01.86-.5-1.15-1.54-2.38-3.02-3.86-4.26-.15-.12-.33-.24-.43-.4-.14-.2-.18-.08.04-.22.35-.23.89-.29,1.27-.46.82-.35,1.59-.93,2.1-1.67,1.09-1.59.54-4.24-1.36-4.97-.92-.36-1.9.03-2.51.77-.72.85-.82,2.01-.92,3.08-.28,3.09-.31,6.2-.12,9.3.04.64,1.04.64,1,0h0Z"/>
          <path class="cls-3" d="M259.62,72.94c-.56,2.67-1.13,5.34-1.69,8.01-.05.24.07.57.35.62,1.59.23,3.2.56,4.81.7.55.05,1.22-.16,1.26-.8.04-.54-.42-1.04-.97-.87-.61.19-.35,1.16.27.96-.22,0-.32-.1-.3-.28-.08,0-.17,0-.25-.01-.22-.02-.44-.06-.66-.1-.42-.06-.84-.12-1.26-.18-.87-.13-1.74-.25-2.61-.38l.35.62c.56-2.67,1.13-5.34,1.69-8.01.13-.63-.83-.9-.96-.27h0Z"/>
          <path class="cls-3" d="M259.69,75.93c1.04.73,2.27,1.15,3.53,1.26.26.02.51-.25.5-.5-.01-.29-.22-.48-.5-.5s-.48-.05-.77-.12-.55-.14-.82-.24-.45-.18-.71-.32-.49-.28-.73-.45c-.22-.15-.56-.04-.68.18-.15.25-.04.53.18.68h0Z"/>
          <path class="cls-3" d="M259.95,73.99c1.45-.14,2.9-.28,4.35-.42.27-.03.5-.21.5-.5,0-.25-.23-.53-.5-.5-1.45.14-2.9.28-4.35.42-.27.03-.5.21-.5.5,0,.25.23.53.5.5h0Z"/>
          <path class="cls-3" d="M267.08,84.06c.17-4.03.62-8.4,3.23-11.66l-.84-.22c.72,3.7,1.44,7.41,2.16,11.11.12.63,1.09.36.96-.27-.72-3.7-1.44-7.41-2.16-11.11-.07-.35-.61-.51-.84-.22-2.8,3.5-3.34,8.04-3.53,12.37-.03.64.97.64,1,0h0Z"/>
          <path class="cls-3" d="M267.75,77.52h3.1c.26,0,.51-.23.5-.5s-.22-.5-.5-.5h-3.1c-.26,0-.51.23-.5.5s.22.5.5.5h0Z"/>
        </g>
        <path class="cls-3" d="M234.9,94.74l7.32.12c.64.01.64-.99,0-1l-7.32-.12c-.64-.01-.64.99,0,1h0Z"/>
        <path class="cls-3" d="M237.16,100.23c2.11-.06,4.22.12,6.3.54.63.13.9-.84.27-.96-2.16-.44-4.36-.63-6.56-.57-.64.02-.64,1.02,0,1h0Z"/>
        <path class="cls-3" d="M251.77,91.46c1.56-.67,3.48-.4,4.78.69s1.85,2.93,1.47,4.56c-.4,1.71-1.79,2.89-3.23,3.77-1.68,1.03-3.5,1.85-5.25,2.75-.44.22-.23.95.25.93,4.07-.18,8.14-.35,12.21-.53.64-.03.64-1.03,0-1-4.07.18-8.14.35-12.21.53l.25.93c1.67-.85,3.39-1.65,5.01-2.6,1.33-.78,2.62-1.77,3.39-3.14,1.47-2.64.48-6.24-2.25-7.62-1.55-.78-3.34-.82-4.93-.13-.59.25-.08,1.12.5.86h0Z"/>
        <path class="cls-3" d="M265.47,103.72c2.46-.91,4.99-1.62,7.56-2.12.63-.12.36-1.09-.27-.96-2.57.51-5.1,1.22-7.56,2.12-.6.22-.34,1.19.27.96h0Z"/>
        <path class="cls-3" d="M266.55,95.05c1.08-1.74,2.31-3.37,3.67-4.89l-.79-.1c.37.86.34,1.81.25,2.72-.09.97-.24,1.94-.37,2.91-.26,2.02-.52,4.04-.78,6.06-.08.64.92.63,1,0,.28-2.18.56-4.35.84-6.53.24-1.88.69-3.86-.08-5.67-.12-.29-.59-.32-.79-.1-1.42,1.59-2.7,3.29-3.83,5.09-.34.55.52,1.05.86.5h0Z"/>
      </g>
      <g>
        <path class="cls-4" d="M192.49,102.74l-.15-.05,1.43.6c-.09-.03-.17-.08-.24-.13l1.21.94c-.07-.05-.13-.1-.18-.17l.94,1.21c-.05-.06-.09-.13-.12-.2l.6,1.43c-.03-.07-.05-.15-.06-.22l.21,1.6c-.01-.13-.01-.24,0-.37l-.21,1.6c.03-.19.08-.36.14-.54l-.6,1.43c.14-.33.32-.63.54-.92l-.94,1.21c.72-.86,1.62-1.6,2.44-2.35.89-.82,1.8-1.62,2.73-2.42,1.86-1.6,3.77-3.14,5.7-4.64l-1.21.94c3.04-2.34,6.15-4.59,9.29-6.79,2.96-2.07,5.91-4.4,9.25-5.84l-1.43.6c1.03-.43,2.08-.75,3.19-.91l-1.6.21c.74-.09,1.47-.1,2.21,0l-1.6-.21c.48.08.93.19,1.39.35,1.42.49,3.36.13,4.62-.6s2.43-2.16,2.76-3.59c.35-1.54.27-3.26-.6-4.62s-2.05-2.23-3.59-2.76c-4.37-1.51-9.12-.15-13.03,1.95-2.98,1.6-5.73,3.72-8.49,5.66-6.01,4.23-11.94,8.64-17.4,13.57-1.56,1.4-3.36,2.85-4.4,4.69s-1.47,3.91-.94,5.94c.64,2.51,2.55,4.15,4.94,4.96,1.42.48,3.36.14,4.62-.6s2.43-2.16,2.76-3.59c.35-1.54.27-3.26-.6-4.62s-2.05-2.23-3.59-2.76h0Z"/>
        <path class="cls-4" d="M183.87,99.51c-.07.58-.06,1.15.01,1.73.13,1.08.23,2.12.62,3.13.73,1.9,1.7,3.78,3.32,5.09,1.35,1.09,2.17,1.59,3.81,2.22.72.27,1.48.4,2.24.53,1.61.27,3.21.54,4.82.81.8.25,1.6.29,2.39.11.8-.04,1.54-.27,2.23-.71,1.24-.73,2.43-2.16,2.76-3.59.35-1.54.27-3.26-.6-4.62-.8-1.24-2.07-2.5-3.59-2.76-1.24-.21-2.48-.42-3.71-.63-1.16-.2-2.38-.31-3.47-.77l1.43.6c-.35-.16-.67-.35-.97-.57l1.21.94c-.37-.29-.7-.62-.99-1l.94,1.21c-.32-.42-.58-.87-.79-1.36l.6,1.43c-.22-.54-.37-1.1-.46-1.67l.21,1.6c-.08-.58-.08-1.15-.01-1.73.17-1.42-.79-3.27-1.76-4.24-1.04-1.04-2.75-1.82-4.24-1.76s-3.16.58-4.24,1.76l-.94,1.21c-.54.94-.82,1.95-.82,3.03h0Z"/>
        <path class="cls-3" d="M188.83,99.23c-.09,1.8-.06,3.61.11,5.41.12,1.28.2,2.81,1.71,3.18,1.23.3,2.53-.28,3.64-.75,1.53-.66,3.17-1.08,4.82-1.26.63-.07.64-1.07,0-1-1.42.16-2.82.45-4.16.93-1.14.41-2.29,1.11-3.52,1.15-.55.02-1.07-.15-1.27-.72-.22-.65-.21-1.43-.26-2.11-.12-1.61-.14-3.22-.06-4.83.03-.64-.97-.64-1,0h0Z"/>
        <path class="cls-3" d="M190.54,106.31c5.5-10.42,15.96-17.65,27.06-21.05.93-.28,9.07-2.74,9.2-1.21.06.64,1.06.64,1,0-.11-1.3-1.61-1.53-2.67-1.48-1.58.08-3.22.52-4.75.89-3.21.78-6.35,1.86-9.36,3.22-5.79,2.61-11.16,6.29-15.49,10.95-2.28,2.46-4.27,5.2-5.84,8.17-.3.57.56,1.07.86.5h0Z"/>
      </g>
    </g>
  </g>
</svg>