<?xml version="1.0" encoding="utf-8"?>
<!-- Generator: Adobe Illustrator 23.1.1, SVG Export Plug-In . SVG Version: 6.00 Build 0)  -->
<svg version="1.1" id="Layer_1" xmlns="http://www.w3.org/2000/svg" xmlns:xlink="http://www.w3.org/1999/xlink" x="0px" y="0px"
	 viewBox="0 0 360 216" style="enable-background:new 0 0 360 216;" xml:space="preserve">
<style type="text/css">
	.st0{fill:#939598;}
	.st1{display:none;}
	.st2{display:inline;}
	.st3{fill:#6D6E71;}
	.st4{fill:#58595B;}
</style>
<g>
	<g>
		<g>
			<path class="st0" d="M43.47,47.04c0.75-1.16,1.59-2.25,2.52-3.27c0.49-0.54,1-1.06,1.54-1.55c0.46-0.43,1.1-0.84,1.48-1.27
				c-0.09,0.1-0.24-0.18-0.03,0.07c0.06,0.07,0.38,0.37,0.53,0.53c0.46,0.47,0.9,0.96,1.3,1.49c0.82,1.1,1.51,2.32,1.99,3.61
				c0.28,0.76,1.02,1.28,1.85,1.05c0.73-0.2,1.33-1.08,1.05-1.85c-0.63-1.71-1.48-3.28-2.6-4.73c-1.02-1.33-2.46-3.3-4.34-3.18
				c-1.04,0.07-1.83,0.79-2.58,1.44c-0.66,0.57-1.29,1.17-1.89,1.8c-1.27,1.33-2.42,2.79-3.42,4.34c-0.44,0.68-0.14,1.66,0.54,2.05
				C42.14,48.01,43.02,47.73,43.47,47.04L43.47,47.04z"/>
		</g>
	</g>
	<g>
		<g>
			<path class="st0" d="M41.85,184.49c1.57,2.37,3.45,4.51,5.58,6.39c0.65,0.57,1.47,0.55,2.12,0c2.89-2.45,5.79-4.89,8.68-7.34
				c0.62-0.52,0.54-1.58,0-2.12c-0.61-0.61-1.5-0.52-2.12,0c-2.89,2.45-5.79,4.89-8.68,7.34c0.71,0,1.41,0,2.12,0
				c-1.94-1.71-3.68-3.63-5.11-5.78c-0.45-0.67-1.32-0.96-2.05-0.54C41.71,182.83,41.39,183.81,41.85,184.49L41.85,184.49z"/>
		</g>
	</g>
	<g>
		<g>
			<path class="st0" d="M47.8,40.53c-1.47,10.13-1.48,20.37-1.03,30.58c0.45,10.2,1.31,20.39,1.44,30.61
				c0.13,10.27-0.56,20.54-0.76,30.81c-0.2,10.4-0.14,20.8,0.04,31.2c0.09,5.15,0.21,10.3,0.34,15.45c0.06,2.6,0.13,5.2,0.2,7.8
				c0.03,1.17,0.1,2.4,1.3,2.97c1.19,0.57,2.53-0.32,2.53-1.63c0-1.37-1.34-2.04-2.51-1.48c-0.73,0.35-0.92,1.4-0.54,2.05
				c0.44,0.75,1.32,0.89,2.05,0.54c0.03-0.01,0.06-0.03,0.09-0.04c-0.39,0.05-0.77,0.1-1.16,0.15c0.02,0,0.05,0.01,0.07,0.01
				c-0.22-0.13-0.44-0.26-0.66-0.39c0.02,0.02,0.03,0.03,0.05,0.05c-0.13-0.22-0.26-0.44-0.39-0.66c-0.01-0.15-0.02-0.29,0-0.44
				c0.13-0.22,0.26-0.44,0.39-0.66c0.05-0.04,0.11-0.08,0.16-0.12c0.25-0.07,0.5-0.14,0.76-0.2c0.05,0,0.09,0,0.14,0
				c0.22,0.13,0.44,0.26,0.66,0.39c0,0,0.09,0.19,0.08,0.2c0.08-0.09-0.02-0.75-0.02-0.88c-0.02-0.59-0.03-1.18-0.05-1.77
				c-0.03-1.28-0.07-2.55-0.1-3.83c-0.06-2.45-0.12-4.91-0.18-7.36c-0.11-4.81-0.21-9.62-0.28-14.42
				c-0.14-9.62-0.15-19.23,0.06-28.85c0.22-9.63,0.84-19.26,0.72-28.9c-0.12-9.49-0.87-18.96-1.34-28.43
				c-0.53-10.64-0.71-21.39,0.82-31.96c0.12-0.8-0.2-1.61-1.05-1.85C48.94,39.29,47.92,39.72,47.8,40.53L47.8,40.53z"/>
		</g>
	</g>
</g>
<g>
	<g>
		<g>
			<path class="st0" d="M24.73,162.02c15.76-3.04,31.67,1.29,47.36,2.66c16.04,1.4,32.15,0.19,48.14-1.28
				c16.22-1.5,32.46-3.29,48.77-2.89c7.96,0.19,15.89,0.8,23.84,1.19c8.11,0.41,16.24,0.64,24.36,0.86
				c9.13,0.24,18.25,0.49,27.38,0.73c9.13,0.24,18.28,0.38,27.4-0.37c1.91-0.16,1.93-3.16,0-3c-8.14,0.67-16.3,0.63-24.46,0.44
				c-8.15-0.19-16.31-0.43-24.46-0.64c-8.13-0.22-16.25-0.42-24.37-0.75c-8.12-0.33-16.22-0.92-24.33-1.27
				c-16.33-0.71-32.53,0.67-48.77,2.21c-16.16,1.52-32.4,3.04-48.64,2.13c-17.64-0.99-35.34-6.32-53.02-2.9
				C22.04,159.49,22.84,162.39,24.73,162.02L24.73,162.02z"/>
		</g>
	</g>
	<g>
		<g>
			<path class="st0" d="M33.89,150.66c-2.6-0.33-4.61,1.92-6.34,3.51c-2,1.84-3.99,3.68-5.99,5.52c-0.88,0.81-0.35,2.16,0.66,2.51
				c3.7,1.27,7.08,3.35,9.88,6.07c1.39,1.34,3.51-0.77,2.12-2.12c-3.19-3.09-7.01-5.4-11.21-6.84c0.22,0.84,0.44,1.67,0.66,2.51
				c1.82-1.67,3.63-3.34,5.45-5.02c0.85-0.78,1.67-1.63,2.58-2.34c0.68-0.54,1.34-0.89,2.18-0.79c0.81,0.1,1.5-0.76,1.5-1.5
				C35.39,151.27,34.69,150.76,33.89,150.66L33.89,150.66z"/>
		</g>
	</g>
	<g>
		<g>
			<path class="st0" d="M265.91,156.25c3.1,1.8,6.2,3.6,9.3,5.4c-0.1-0.79-0.2-1.57-0.3-2.36c-2.39,3.08-4.78,6.17-7.17,9.25
				c-0.5,0.64-0.62,1.5,0,2.12c0.52,0.52,1.62,0.64,2.12,0c2.39-3.08,4.78-6.17,7.17-9.25c0.58-0.75,0.62-1.82-0.3-2.36
				c-3.1-1.8-6.2-3.6-9.3-5.4C265.75,152.68,264.24,155.28,265.91,156.25L265.91,156.25z"/>
		</g>
	</g>
</g>
<g>
	<g>
		<g>
			<path d="M25.56,110.87c-0.27,4.97,0.77,9.87,2.88,14.36c0.3,0.64,1.11,0.56,1.57,0.2c2.46-1.95,4.94-3.88,7.48-5.74
				c1.74-1.27,3.61-2.36,5-4.04c0.82-0.98-0.59-2.4-1.41-1.41c-1.35,1.62-3.17,2.67-4.85,3.91c-2.58,1.9-5.11,3.87-7.63,5.86
				c0.52,0.07,1.05,0.13,1.57,0.2c-1.97-4.17-2.86-8.75-2.61-13.35C27.63,109.58,25.63,109.58,25.56,110.87L25.56,110.87z"/>
		</g>
	</g>
	<g>
		<g>
			<path d="M241.02,57.16c4.89-1.98,9.77-3.96,14.66-5.94c-0.41-0.23-0.82-0.47-1.23-0.7c1.45,5.01,1.36,10.33-0.24,15.29
				c-0.4,1.23,1.54,1.75,1.93,0.53c1.7-5.28,1.78-11.02,0.24-16.35c-0.14-0.47-0.72-0.9-1.23-0.7c-4.89,1.98-9.77,3.96-14.66,5.94
				c-0.5,0.2-0.85,0.67-0.7,1.23C239.92,56.93,240.52,57.36,241.02,57.16L241.02,57.16z"/>
		</g>
	</g>
	<g>
		<g>
			<path d="M30.87,123.24c3.78-7.48,7.77-14.89,12.63-21.74c4.67-6.59,10.26-12.77,17.24-16.97c7.76-4.67,16.77-6.21,25.69-4.66
				c10.14,1.76,19.39,6.71,27.95,12.25c8.44,5.47,16.49,11.58,25.41,16.25c8.36,4.38,17.37,7.11,26.8,7.76
				c9.18,0.63,18.53-0.64,27.2-3.73c8.58-3.06,16.26-7.94,23-14.04c13.35-12.1,22.62-27.8,34.23-41.42c1.45-1.7,2.94-3.37,4.47-4.99
				c0.88-0.94-0.53-2.35-1.41-1.41c-12.37,13.15-21.55,28.93-34.09,41.93c-6.34,6.57-13.56,12.25-21.9,16.06
				c-8.47,3.87-17.82,5.8-27.13,5.77c-9.62-0.03-19.06-2.22-27.72-6.4c-9.01-4.35-17.09-10.34-25.39-15.86
				c-8.48-5.64-17.46-10.85-27.43-13.34c-8.92-2.22-18.21-1.84-26.63,1.98c-15.02,6.81-24.4,22.09-31.82,36.09
				c-0.96,1.82-1.9,3.64-2.83,5.48C28.56,123.37,30.29,124.39,30.87,123.24L30.87,123.24z"/>
		</g>
	</g>
</g>
<g>
	<g>
		<g>
			<path d="M245.75,44.38c-0.51-2.56-0.8-5.16-0.87-7.78c-0.06-2.39-0.02-4.91,0.95-7.14c0.77-1.74,2.2-3.34,4.1-3.82
				c1.76-0.44,3.95,0.32,4.69,2.07c0.25,0.58,1.21,0.33,0.96-0.27c-0.62-1.47-1.92-2.48-3.48-2.8c-1.68-0.35-3.35,0.12-4.69,1.16
				c-3.36,2.59-3.64,7.14-3.53,11.04c0.08,2.62,0.39,5.23,0.9,7.8C244.91,45.28,245.88,45.01,245.75,44.38L245.75,44.38z"/>
		</g>
	</g>
	<g>
		<g>
			<path d="M240.87,37.05c3.24-0.3,6.46-0.75,9.66-1.33c0.63-0.12,0.36-1.08-0.27-0.96c-3.11,0.57-6.24,1-9.39,1.29
				C240.23,36.11,240.23,37.11,240.87,37.05L240.87,37.05z"/>
		</g>
	</g>
	<g>
		<g>
			<path d="M260.23,25.12c-2.05,4.12-3.33,8.6-3.73,13.19c-0.18,2.06-0.16,4.39,1.1,6.13c1.04,1.44,2.8,2.36,4.58,1.91
				c0.62-0.16,0.36-1.12-0.27-0.96c-1.78,0.45-3.43-0.95-4.04-2.53c-0.69-1.79-0.48-3.81-0.26-5.67c0.48-4.02,1.68-7.94,3.48-11.57
				C261.38,25.05,260.52,24.54,260.23,25.12L260.23,25.12z"/>
		</g>
	</g>
	<g>
		<g>
			<path d="M263.11,29.84c1.96,4.3,4.7,8.22,8.06,11.55c0.46,0.45,1.17-0.25,0.71-0.71c-3.31-3.27-5.98-7.11-7.9-11.34
				C263.71,28.75,262.85,29.26,263.11,29.84L263.11,29.84z"/>
		</g>
	</g>
	<g>
		<g>
			<path d="M268.28,30.03c-1.77,3.87-3.55,7.73-5.32,11.6c-0.22,0.47,0.39,1.07,0.79,0.61c0.27-0.31,0.54-0.63,0.81-0.94
				c0.42-0.49-0.29-1.2-0.71-0.71c-0.27,0.31-0.54,0.63-0.81,0.94c0.26,0.2,0.52,0.4,0.79,0.61c1.77-3.87,3.55-7.73,5.32-11.6
				C269.41,29.95,268.55,29.44,268.28,30.03L268.28,30.03z"/>
		</g>
	</g>
	<g>
		<g>
			<path d="M271.04,27.35c4.03,4.47,4.8,11.44,1.87,16.69c-0.31,0.56,0.55,1.07,0.86,0.5c3.16-5.65,2.31-13.1-2.03-17.9
				C271.32,26.16,270.61,26.87,271.04,27.35L271.04,27.35z"/>
		</g>
	</g>
</g>
<g class="st1">
	<g class="st2">
		<g>
			<path d="M84.47,139.39c-0.02,0.26-0.05,0.52-0.07,0.79c-0.06,0.64,0.94,0.64,1,0c0.66-7.05,2.63-13.98,5.78-20.31
				c0.76-1.52,1.57-3.02,2.47-4.46c0.13-0.2,0.53-0.94,0.85-0.85c0.31,0.08,0.36,0.76,0.42,1.01c0.24,0.99,0.44,1.99,0.61,3
				c0.61,3.68,0.78,7.42,0.93,11.14c0.18,4.14,0.35,8.28,1.02,12.37c0.08,0.49,0.86,0.46,0.96,0c0.15-0.67,0.3-1.33,0.45-2
				c0.14-0.63-0.82-0.89-0.96-0.27c-0.15,0.67-0.3,1.33-0.45,2c0.32,0,0.64,0,0.96,0c-1.32-8.01-0.62-16.21-2.08-24.2
				c-0.18-0.97-0.35-1.98-0.64-2.92c-0.19-0.61-0.6-1.16-1.3-1.12c-0.72,0.04-1.23,0.68-1.58,1.24c-0.51,0.81-0.99,1.65-1.45,2.49
				c-1.82,3.31-3.31,6.8-4.46,10.39c-1.3,4.06-2.14,8.25-2.54,12.49c0.33,0,0.67,0,1,0c0.02-0.26,0.05-0.52,0.07-0.79
				C85.52,138.75,84.52,138.75,84.47,139.39L84.47,139.39z"/>
		</g>
	</g>
	<g class="st2">
		<g>
			<path d="M87.95,129.11c-0.26,0.1-0.53,0.2-0.79,0.3c-0.48,0.18-0.47,1.05,0.13,0.98c3.35-0.37,6.71-0.46,10.07-0.29
				c0.64,0.03,0.64-0.97,0-1c-3.36-0.17-6.73-0.07-10.07,0.29c0.04,0.33,0.09,0.65,0.13,0.98c0.26-0.1,0.53-0.2,0.79-0.3
				C88.81,129.85,88.55,128.88,87.95,129.11L87.95,129.11z"/>
		</g>
	</g>
	<g class="st2">
		<g>
			<path d="M108.75,114.37c-1.55,0.59-2.19,2.1-2.75,3.55c-0.77,1.96-1.45,3.97-1.92,6.02c-0.84,3.68-0.95,7.6,0.42,11.18
				c0.7,1.84,1.76,3.51,3.2,4.86c0.2,0.19,0.5,0.19,0.71,0c0.28-0.26,0.57-0.53,0.85-0.79c0.47-0.44-0.24-1.14-0.71-0.71
				c-0.28,0.26-0.57,0.53-0.85,0.79c0.24,0,0.47,0,0.71,0c-3.1-2.9-4.19-7.26-3.92-11.39c0.16-2.44,0.77-4.84,1.55-7.15
				c0.37-1.08,0.75-2.17,1.2-3.22c0.37-0.85,0.86-1.81,1.78-2.16C109.61,115.11,109.35,114.14,108.75,114.37L108.75,114.37z"/>
		</g>
	</g>
	<g class="st2">
		<g>
			<path d="M112.48,120.95c1.89,4.96,4.23,9.73,7,14.26c0.34,0.55,1.2,0.05,0.86-0.5c-2.72-4.45-5.04-9.14-6.9-14.02
				C113.22,120.09,112.26,120.35,112.48,120.95L112.48,120.95z"/>
		</g>
	</g>
	<g class="st2">
		<g>
			<path d="M120.94,119.66c-2.23,3.44-4.44,6.89-6.6,10.37c-1.07,1.72-2.13,3.45-3.19,5.19c-0.3,0.49-0.88,1.28-0.31,1.81
				c0.38,0.35,1.13,0.21,1.21-0.35c0.09-0.63-0.88-0.9-0.96-0.27c0.3,0.16,0.49,0.14,0.57-0.08c0.03-0.07,0.07-0.13,0.11-0.19
				c0.1-0.18,0.21-0.35,0.32-0.52c0.21-0.35,0.42-0.69,0.63-1.04c0.42-0.69,0.85-1.38,1.27-2.08c0.85-1.38,1.71-2.76,2.57-4.14
				c1.73-2.75,3.47-5.49,5.24-8.21C122.15,119.62,121.29,119.12,120.94,119.66L120.94,119.66z"/>
		</g>
	</g>
	<g class="st2">
		<g>
			<path d="M122.34,114.62c2.67,3.49,4.16,7.8,4.11,12.2c-0.05,4.34-1.61,8.62-4.32,12c-0.35,0.44,0.08,1.05,0.61,0.79
				c0.35-0.18,0.71-0.36,1.06-0.53c0.58-0.29,0.07-1.15-0.5-0.86c-0.35,0.18-0.71,0.36-1.06,0.53c0.2,0.26,0.4,0.52,0.61,0.79
				c4.5-5.6,5.85-13.26,3.34-20.02c-0.72-1.94-1.72-3.75-2.97-5.4C122.81,113.61,121.95,114.11,122.34,114.62L122.34,114.62z"/>
		</g>
	</g>
</g>
<g>
	<g>
		<g>
			<path d="M210.84,104.33c-0.27,1.5-0.55,3.01-0.82,4.51c-0.05,0.27,0.07,0.54,0.35,0.62c0.24,0.07,0.57-0.08,0.62-0.35
				c0.27-1.5,0.55-3.01,0.82-4.51c0.05-0.27-0.07-0.54-0.35-0.62C211.22,103.91,210.89,104.06,210.84,104.33L210.84,104.33z"/>
		</g>
	</g>
	<g>
		<g>
			<path d="M211.2,113.92c-0.54,1.5-0.41,3.19,0.31,4.61c0.12,0.24,0.46,0.31,0.68,0.18c0.24-0.14,0.3-0.44,0.18-0.68
				c-0.61-1.19-0.66-2.59-0.21-3.84c0.09-0.25-0.1-0.55-0.35-0.62C211.53,113.49,211.29,113.66,211.2,113.92L211.2,113.92z"/>
		</g>
	</g>
	<g>
		<g>
			<path d="M212.93,121.81c-0.2,1.25-0.28,2.52-0.24,3.79c0.01,0.27,0.22,0.5,0.5,0.5c0.26,0,0.51-0.23,0.5-0.5
				c-0.04-1.18,0.02-2.36,0.2-3.52c0.04-0.27-0.07-0.54-0.35-0.62C213.31,121.39,212.97,121.54,212.93,121.81L212.93,121.81z"/>
		</g>
	</g>
	<g>
		<g>
			<path d="M213.7,129.53c0,1.69,0,3.38,0,5.07c0,0.64,1,0.64,1,0c0-1.69,0-3.38,0-5.07C214.7,128.89,213.7,128.89,213.7,129.53
				L213.7,129.53z"/>
		</g>
	</g>
	<g>
		<g>
			<path d="M214.37,138.71c-0.32,1.3-0.64,2.61-0.97,3.91c-0.15,0.62,0.81,0.89,0.96,0.27c0.32-1.3,0.64-2.61,0.97-3.91
				C215.49,138.35,214.52,138.09,214.37,138.71L214.37,138.71z"/>
		</g>
	</g>
	<g>
		<g>
			<path d="M214.27,146.71c0,1.03,0,2.06,0,3.1c0,0.26,0.23,0.51,0.5,0.5c0.27-0.01,0.5-0.22,0.5-0.5c0-1.03,0-2.06,0-3.1
				c0-0.26-0.23-0.51-0.5-0.5C214.5,146.22,214.27,146.43,214.27,146.71L214.27,146.71z"/>
		</g>
	</g>
	<g>
		<g>
			<path d="M214.61,152.75c-0.12,0.75-0.23,1.49-0.35,2.24c-0.02,0.14-0.02,0.26,0.05,0.39c0.06,0.1,0.18,0.2,0.3,0.23
				c0.24,0.05,0.57-0.07,0.62-0.35c0.12-0.75,0.23-1.49,0.35-2.24c0.02-0.14,0.02-0.26-0.05-0.39c-0.06-0.1-0.18-0.2-0.3-0.23
				C214.98,152.34,214.65,152.47,214.61,152.75L214.61,152.75z"/>
		</g>
	</g>
</g>
<g class="st1">
	<g class="st2">
		<g>
			<path class="st3" d="M122.03,96.66c5.25,8.03,10.51,16.06,15.76,24.09c5.18,7.91,10.28,15.87,15.55,23.72
				c2.81,4.18,5.73,8.29,8.95,12.17c0.21,0.25,0.56-0.11,0.35-0.35c-5.85-7.02-10.7-14.81-15.7-22.44
				c-5.23-7.99-10.46-15.99-15.69-23.98c-2.93-4.48-5.87-8.97-8.8-13.45C122.29,96.14,121.85,96.39,122.03,96.66L122.03,96.66z"/>
		</g>
	</g>
	<g class="st2">
		<g>
			<path class="st3" d="M151.04,114.28c7.66,11.55,15.78,22.79,24.34,33.69c2.41,3.07,4.85,6.1,7.32,9.11
				c0.2,0.25,0.56-0.11,0.35-0.35c-8.77-10.68-17.11-21.7-25.01-33.04c-2.23-3.2-4.41-6.42-6.57-9.67
				C151.3,113.76,150.86,114.01,151.04,114.28L151.04,114.28z"/>
		</g>
	</g>
	<g class="st2">
		<g>
			<path class="st3" d="M174.85,116.43c6.56,11.12,14.06,21.67,22.4,31.52c2.35,2.78,4.78,5.51,7.26,8.18
				c0.22,0.24,0.57-0.12,0.35-0.35c-8.77-9.43-16.75-19.58-23.82-30.35c-1.99-3.04-3.91-6.12-5.76-9.25
				C175.12,115.9,174.69,116.15,174.85,116.43L174.85,116.43z"/>
		</g>
	</g>
	<g class="st2">
		<g>
			<path class="st3" d="M200.5,108.74c3.18,8.36,7.34,16.33,12.37,23.72c0.18,0.26,0.61,0.01,0.43-0.25
				c-5.01-7.36-9.15-15.29-12.32-23.6C200.87,108.31,200.38,108.44,200.5,108.74L200.5,108.74z"/>
		</g>
	</g>
	<g class="st2">
		<g>
			<path class="st3" d="M192.54,112.22c1.9,4.41,5.03,8.09,7.8,11.96c2.85,3.97,5.47,8.1,7.85,12.38c1.36,2.44,2.63,4.93,3.83,7.46
				c0.14,0.29,0.57,0.04,0.43-0.25c-2.11-4.46-4.47-8.81-7.09-12.99c-2.56-4.11-5.46-7.94-8.29-11.87c-1.57-2.19-3.03-4.46-4.1-6.93
				C192.84,111.68,192.41,111.93,192.54,112.22L192.54,112.22z"/>
		</g>
	</g>
	<g class="st2">
		<g>
			<path class="st3" d="M182.45,115.58c7.06,10.37,14.69,20.34,22.86,29.87c2.34,2.73,4.73,5.43,7.15,8.09
				c0.22,0.24,0.57-0.12,0.35-0.35c-8.5-9.32-16.49-19.1-23.91-29.3c-2.05-2.82-4.06-5.68-6.02-8.56
				C182.7,115.06,182.27,115.31,182.45,115.58L182.45,115.58z"/>
		</g>
	</g>
	<g class="st2">
		<g>
			<path class="st3" d="M164.71,115.58c6.64,11.52,13.55,22.9,20.72,34.1c2.01,3.15,4.04,6.28,6.1,9.4
				c0.18,0.27,0.61,0.02,0.43-0.25c-7.31-11.12-14.37-22.4-21.16-33.84c-1.9-3.21-3.79-6.43-5.65-9.66
				C164.99,115.05,164.55,115.3,164.71,115.58L164.71,115.58z"/>
		</g>
	</g>
	<g class="st2">
		<g>
			<path class="st3" d="M140.61,111.49c5.49,12.85,13.01,24.68,20.9,36.16c2.22,3.23,4.47,6.43,6.72,9.63
				c0.18,0.26,0.62,0.01,0.43-0.25c-8.02-11.41-16.06-22.87-22.57-35.23c-1.82-3.45-3.51-6.97-5.05-10.56
				C140.92,110.94,140.49,111.2,140.61,111.49L140.61,111.49z"/>
		</g>
	</g>
	<g class="st2">
		<g>
			<path class="st3" d="M135.45,136.76c0.2-0.84-1.4-0.86-1.2,0.2c0.06,0.34,0.3,0.62,0.5,0.89c0.33,0.44,0.66,0.88,0.99,1.32
				c0.61,0.82,1.21,1.65,1.81,2.48c2.35,3.29,4.59,6.65,6.7,10.1c1.21,1.97,2.38,3.96,3.51,5.98c0.16,0.28,0.59,0.03,0.43-0.25
				c-2.03-3.62-4.19-7.18-6.48-10.64c-1.12-1.7-2.28-3.39-3.46-5.05c-0.59-0.83-1.19-1.66-1.8-2.48c-0.33-0.44-0.66-0.88-0.99-1.32
				c-0.14-0.19-0.29-0.37-0.43-0.56c-0.08-0.1-0.15-0.2-0.21-0.31c-0.13-0.36-0.09-0.52,0.13-0.47
				C134.89,136.94,135.37,137.07,135.45,136.76L135.45,136.76z"/>
		</g>
	</g>
	<g class="st2">
		<g>
			<path class="st3" d="M129,144.07c3.58,4.59,6.79,9.46,9.6,14.55c0.16,0.28,0.59,0.03,0.43-0.25c-2.83-5.13-6.08-10.03-9.68-14.66
				C129.15,143.46,128.8,143.82,129,144.07L129,144.07z"/>
		</g>
	</g>
	<g class="st2">
		<g>
			<path class="st3" d="M119.66,145.14c2.45,5.5,5.58,10.67,9.29,15.41c0.15,0.19,0.41,0.01,0.43-0.18
				c0.02-0.21,0.05-0.42,0.07-0.63c0.04-0.32-0.46-0.32-0.5,0c-0.02,0.21-0.05,0.42-0.07,0.63c0.14-0.06,0.28-0.12,0.43-0.18
				c-3.68-4.71-6.78-9.85-9.21-15.31C119.97,144.6,119.53,144.85,119.66,145.14L119.66,145.14z"/>
		</g>
	</g>
	<g class="st2">
		<g>
			<path class="st3" d="M110.79,146.48c3.52,4.12,6.54,8.63,9.02,13.44c0.14,0.26,0.51,0.07,0.46-0.19
				c-0.05-0.23-0.09-0.47-0.14-0.7c-0.06-0.32-0.55-0.18-0.48,0.13c0.05,0.23,0.09,0.47,0.14,0.7c0.15-0.06,0.3-0.13,0.46-0.19
				c-2.5-4.85-5.55-9.39-9.09-13.54C110.93,145.88,110.58,146.24,110.79,146.48L110.79,146.48z"/>
		</g>
	</g>
	<g class="st2">
		<g>
			<path class="st3" d="M103.84,146.23c2.19,5.2,5.38,9.93,9.4,13.89c0.23,0.23,0.58-0.13,0.35-0.35
				c-3.96-3.89-7.12-8.55-9.27-13.66C104.2,145.8,103.71,145.93,103.84,146.23L103.84,146.23z"/>
		</g>
	</g>
	<g class="st2">
		<g>
			<path class="st3" d="M95.95,149.32c1.84,4.86,4.34,9.45,7.45,13.61c0.11,0.15,0.41,0.17,0.46-0.06c0.07-0.39,0.15-0.79,0.22-1.18
				c0.06-0.31-0.42-0.45-0.48-0.13c-0.07,0.39-0.15,0.79-0.22,1.18c0.15-0.02,0.3-0.04,0.46-0.06c-3.08-4.13-5.58-8.67-7.4-13.5
				C96.32,148.89,95.83,149.02,95.95,149.32L95.95,149.32z"/>
		</g>
	</g>
	<g class="st2">
		<g>
			<path class="st3" d="M51.53,102.63c4.32,8.19,8.98,16.2,13.96,24.01c4.95,7.75,10.22,15.3,15.8,22.62
				c3.12,4.09,6.33,8.11,9.63,12.05c0.21,0.25,0.56-0.11,0.35-0.35c-5.91-7.05-11.53-14.35-16.83-21.87
				c-5.28-7.5-10.26-15.21-14.91-23.12c-2.63-4.47-5.15-9-7.57-13.59C51.81,102.09,51.38,102.34,51.53,102.63L51.53,102.63z"/>
		</g>
	</g>
	<g class="st2">
		<g>
			<path class="st3" d="M51.96,117.19c5.72,11.79,12.23,23.2,19.49,34.12c2.06,3.1,4.18,6.16,6.36,9.18
				c0.19,0.26,0.62,0.01,0.43-0.25c-7.66-10.64-14.61-21.78-20.78-33.35c-1.75-3.28-3.44-6.6-5.06-9.95
				C52.25,116.65,51.82,116.9,51.96,117.19L51.96,117.19z"/>
		</g>
	</g>
	<g class="st2">
		<g>
			<path class="st3" d="M52.75,129.61c4.11,9.09,9.06,17.79,14.8,25.95c1.59,2.26,3.25,4.49,4.95,6.67c0.2,0.25,0.55-0.1,0.35-0.35
				c-6.11-7.81-11.49-16.18-16.04-24.99c-1.28-2.47-2.49-4.98-3.64-7.52C53.05,129.07,52.62,129.32,52.75,129.61L52.75,129.61z"/>
		</g>
	</g>
	<g class="st2">
		<g>
			<path class="st3" d="M51.1,138.11c-0.17-0.36-0.54-0.17-0.67,0.12c-0.25,0.55,0.37,1.37,0.6,1.85c0.81,1.71,1.68,3.4,2.6,5.06
				c1.84,3.32,3.9,6.52,6.14,9.58c1.25,1.7,2.56,3.35,3.92,4.95c0.08,0.1,0.27,0.09,0.35,0c0.41-0.46,0.41-1.09-0.03-1.53
				c-0.23-0.23-0.58,0.13-0.35,0.35c0.24,0.24,0.26,0.57,0.03,0.83c0.12,0,0.24,0,0.35,0c-2.68-3.16-5.15-6.51-7.36-10.01
				c-1.07-1.7-2.09-3.43-3.05-5.2c-0.5-0.92-0.98-1.84-1.44-2.77c-0.23-0.47-0.46-0.93-0.68-1.41c-0.1-0.2-0.19-0.4-0.29-0.61
				c-0.06-0.13-0.13-0.27-0.19-0.41c-0.08-0.21-0.2-0.4-0.37-0.55C50.81,138.65,51.24,138.4,51.1,138.11L51.1,138.11z"/>
		</g>
	</g>
	<g class="st2">
		<g>
			<path class="st3" d="M105.06,88.16c2.32,3.42,4.8,6.78,6.9,10.34c1,1.7,1.79,3.48,2.55,5.29c0.71,1.69,1.46,3.36,2.55,4.84
				c0.19,0.25,0.61,0.02,0.43-0.25c-0.08-0.12-0.15-0.23-0.23-0.35c-0.17-0.27-0.61-0.02-0.43,0.25c0.08,0.12,0.15,0.23,0.23,0.35
				c0.14-0.08,0.29-0.17,0.43-0.25c-1.13-1.53-1.89-3.27-2.62-5.02c-0.74-1.75-1.51-3.47-2.48-5.11c-2.11-3.56-4.58-6.92-6.9-10.34
				C105.31,87.64,104.88,87.89,105.06,88.16L105.06,88.16z"/>
		</g>
	</g>
	<g class="st2">
		<g>
			<path class="st3" d="M86.44,79.82c2.73,4.19,5.46,8.38,8.19,12.57c2.55,3.92,5.17,7.76,6.89,12.14c0.76,1.93,1.58,3.88,3.26,5.19
				c0.25,0.2,0.61-0.16,0.35-0.35c-1.61-1.26-2.41-3.11-3.13-4.97c-0.77-1.97-1.67-3.85-2.74-5.67c-2.43-4.13-5.17-8.08-7.78-12.09
				c-1.53-2.36-3.07-4.71-4.6-7.07C86.7,79.3,86.26,79.55,86.44,79.82L86.44,79.82z"/>
		</g>
	</g>
	<g class="st2">
		<g>
			<path class="st3" d="M77.32,80.72c4.66,9.03,9.32,18.06,13.97,27.08c0.15,0.29,0.58,0.03,0.43-0.25
				c-4.66-9.03-9.32-18.06-13.97-27.08C77.6,80.19,77.17,80.44,77.32,80.72L77.32,80.72z"/>
		</g>
	</g>
	<g class="st2">
		<g>
			<path class="st3" d="M68.57,82.45c5.09,7.42,8.98,15.6,13.06,23.6c1.22,2.39,2.44,4.77,3.65,7.16c0.15,0.29,0.58,0.03,0.43-0.25
				c-2.14-4.19-4.27-8.37-6.41-12.56c-2.01-3.95-4.03-7.9-6.25-11.73c-1.28-2.2-2.62-4.37-4.06-6.47
				C68.82,81.93,68.39,82.18,68.57,82.45L68.57,82.45z"/>
		</g>
	</g>
	<g class="st2">
		<g>
			<path class="st3" d="M60.77,85.48c4.96,8.26,9.78,16.61,14.45,25.04c1.32,2.38,2.63,4.77,3.93,7.17
				c0.15,0.28,0.59,0.03,0.43-0.25c-4.59-8.47-9.32-16.87-14.2-25.18c-1.38-2.35-2.77-4.69-4.17-7.03
				C61.04,84.95,60.61,85.2,60.77,85.48L60.77,85.48z"/>
		</g>
	</g>
	<g class="st2">
		<g>
			<path class="st3" d="M53.47,90.54c4.53,9.59,9.57,18.94,15.1,27.98c1.56,2.55,3.15,5.07,4.79,7.57c0.18,0.27,0.61,0.02,0.43-0.25
				c-5.8-8.88-11.13-18.06-15.94-27.51c-1.36-2.66-2.67-5.34-3.94-8.04C53.76,89.99,53.33,90.25,53.47,90.54L53.47,90.54z"/>
		</g>
	</g>
	<g class="st2">
		<g>
			<path class="st3" d="M201.86,159.45c3.73-4.61,7.8-8.92,12.19-12.9c0.24-0.22-0.12-0.57-0.35-0.35
				c-4.39,3.98-8.47,8.29-12.19,12.9C201.3,159.34,201.66,159.7,201.86,159.45L201.86,159.45z"/>
		</g>
	</g>
	<g class="st2">
		<g>
			<path class="st3" d="M189.75,159.69c0.65-2.05,2.55-3.4,4.08-4.77c1.7-1.53,3.37-3.08,5.01-4.67c3.32-3.2,6.52-6.51,9.59-9.94
				c1.76-1.96,3.48-3.95,5.15-5.98c0.2-0.25-0.15-0.6-0.35-0.35c-6.02,7.28-12.57,14.11-19.59,20.43c-1.66,1.49-3.67,2.93-4.38,5.15
				C189.17,159.86,189.65,160,189.75,159.69L189.75,159.69z"/>
		</g>
	</g>
	<g class="st2">
		<g>
			<path class="st3" d="M182.02,157.18c2.16-5.23,7.13-8.7,11.18-12.39c4.47-4.08,8.75-8.38,12.8-12.88
				c2.31-2.56,4.54-5.19,6.7-7.88c0.2-0.25-0.15-0.6-0.35-0.35c-3.89,4.84-8.02,9.49-12.37,13.91c-2.2,2.24-4.47,4.42-6.78,6.55
				c-2.11,1.93-4.31,3.76-6.37,5.73c-2.17,2.08-4.12,4.39-5.27,7.19C181.41,157.34,181.9,157.47,182.02,157.18L182.02,157.18z"/>
		</g>
	</g>
	<g class="st2">
		<g>
			<path class="st3" d="M169.94,156.48c10.76-9.72,21.24-19.75,31.42-30.07c2.87-2.91,5.72-5.84,8.54-8.79
				c0.22-0.23-0.13-0.59-0.35-0.35c-10.02,10.48-20.33,20.68-30.93,30.58c-2.99,2.79-6,5.55-9.03,8.29
				C169.35,156.35,169.71,156.7,169.94,156.48L169.94,156.48z"/>
		</g>
	</g>
	<g class="st2">
		<g>
			<path class="st3" d="M160.61,153.9c6.41-5.78,12.79-11.59,19.14-17.43c6.35-5.84,12.67-11.72,18.95-17.64
				c3.53-3.32,7.05-6.66,10.57-10c0.23-0.22-0.12-0.58-0.35-0.35c-6.25,5.95-12.53,11.87-18.85,17.75
				c-6.31,5.88-12.66,11.73-19.04,17.55c-3.58,3.27-7.18,6.52-10.78,9.77C160.02,153.76,160.37,154.12,160.61,153.9L160.61,153.9z"
				/>
		</g>
	</g>
	<g class="st2">
		<g>
			<path class="st3" d="M142.28,156.79c5.54-6.62,11.9-12.49,18.54-17.99c6.68-5.53,13.64-10.7,20.47-16.03
				c1.91-1.49,3.84-2.98,5.7-4.54c1.78-1.51,3.46-3.15,4.71-5.13c0.17-0.27-0.26-0.52-0.43-0.25c-2.29,3.62-5.98,6.17-9.3,8.77
				c-3.44,2.7-6.91,5.34-10.37,8.01c-6.75,5.2-13.45,10.49-19.67,16.32c-3.53,3.31-6.89,6.79-10,10.5
				C141.73,156.68,142.08,157.04,142.28,156.79L142.28,156.79z"/>
		</g>
	</g>
	<g class="st2">
		<g>
			<path class="st3" d="M123.15,157.64c6.17-5.95,12.87-11.3,19.71-16.46c6.79-5.13,13.72-10.09,20.43-15.32
				c3.78-2.95,7.5-5.99,11.07-9.19c0.24-0.22-0.11-0.57-0.35-0.35c-6.39,5.72-13.22,10.92-20.1,16.04
				c-6.83,5.07-13.72,10.07-20.32,15.44c-3.72,3.03-7.34,6.17-10.79,9.5C122.56,157.51,122.91,157.87,123.15,157.64L123.15,157.64z"
				/>
		</g>
	</g>
	<g class="st2">
		<g>
			<path class="st3" d="M103.56,161.12c6.87-5.04,13.75-10.07,20.62-15.11c0.26-0.19,0.01-0.62-0.25-0.43
				c-6.87,5.04-13.75,10.07-20.62,15.11C103.05,160.88,103.3,161.31,103.56,161.12L103.56,161.12z"/>
		</g>
	</g>
	<g class="st2">
		<g>
			<path class="st3" d="M91.61,158.42c3.65-3.91,7.69-7.45,12.05-10.55c-0.1-0.13-0.2-0.26-0.3-0.39c-0.2,0.23-0.41,0.34-0.71,0.39
				c-0.32,0.05-0.18,0.53,0.13,0.48c0.38-0.06,0.68-0.23,0.93-0.52c0.17-0.2-0.06-0.57-0.3-0.39c-4.39,3.13-8.47,6.69-12.15,10.63
				C91.03,158.3,91.39,158.65,91.61,158.42L91.61,158.42z"/>
		</g>
	</g>
	<g class="st2">
		<g>
			<path class="st3" d="M75.01,159.2c1.77-2.91,4.68-4.76,7.36-6.73c1.27-0.94,2.52-1.92,3.61-3.07c0.3-0.32,1.19-1.06,1-1.59
				c-0.14-0.37-0.73-0.38-0.8,0.03c-0.05,0.31,0.43,0.45,0.48,0.13c0,0.01-0.48,0.44-0.58,0.56c-0.11,0.13-0.23,0.26-0.34,0.39
				c-0.23,0.25-0.48,0.5-0.72,0.74c-0.48,0.46-0.98,0.89-1.5,1.31c-1.09,0.88-2.25,1.69-3.38,2.52c-2.11,1.55-4.18,3.21-5.56,5.47
				C74.41,159.22,74.85,159.47,75.01,159.2L75.01,159.2z"/>
		</g>
	</g>
	<g class="st2">
		<g>
			<path class="st3" d="M58.08,159.52c3.11-2.83,6.34-5.53,9.69-8.08c1.62-1.23,3.27-2.44,4.94-3.6c0.85-0.59,1.71-1.18,2.57-1.75
				c0.42-0.28,0.83-0.55,1.25-0.82c0.36-0.23,0.78-0.44,1.07-0.76c0.29-0.32,0.41-1.04-0.19-1.07c-0.39-0.02-0.81,0.43-0.44,0.74
				c0.25,0.2,0.6-0.15,0.35-0.35c0.28,0.23-1.16,1.08-1.34,1.2c-0.45,0.29-0.9,0.59-1.35,0.89c-0.83,0.56-1.65,1.12-2.47,1.7
				c-1.7,1.19-3.37,2.42-5.02,3.68c-3.25,2.49-6.39,5.12-9.42,7.88C57.49,159.38,57.85,159.73,58.08,159.52L58.08,159.52z"/>
		</g>
	</g>
	<g class="st2">
		<g>
			<path class="st3" d="M51.79,152.12c5.27-5.94,12.09-10.14,17.89-15.5c0.42-0.39,0.83-0.78,1.24-1.18
				c0.25-0.25,0.71-0.56,0.78-0.93c0.1-0.49-0.53-0.72-0.74-0.27c-0.05,0.11-0.04,0.21,0.04,0.3c0.02,0.02,0.03,0.03,0.05,0.05
				c0.22,0.24,0.57-0.12,0.35-0.35c-0.02-0.02-0.03-0.03-0.05-0.05c0.01,0.1,0.03,0.2,0.04,0.3c-0.2-0.02-0.35,0.05-0.45,0.21
				c-0.1,0.1-0.2,0.2-0.3,0.3c-0.2,0.2-0.41,0.4-0.61,0.6c-0.41,0.4-0.83,0.78-1.26,1.17c-0.8,0.72-1.61,1.42-2.43,2.1
				c-1.68,1.4-3.4,2.74-5.12,4.1c-3.45,2.72-6.86,5.5-9.78,8.8C51.23,152.01,51.58,152.36,51.79,152.12L51.79,152.12z"/>
		</g>
	</g>
	<g class="st2">
		<g>
			<path class="st3" d="M49.08,140.59c2.84-3.82,6.42-6.98,10.14-9.91c3.82-3.02,7.74-5.92,11.54-8.99
				c7.79-6.3,15.27-12.97,22.41-19.99c4.02-3.96,7.93-8.02,11.73-12.19c0.22-0.24-0.14-0.59-0.35-0.35
				c-6.8,7.46-13.96,14.59-21.45,21.35c-3.73,3.37-7.55,6.64-11.44,9.82c-3.83,3.13-7.78,6.11-11.68,9.14
				c-4.14,3.22-8.17,6.65-11.32,10.88C48.45,140.6,48.89,140.85,49.08,140.59L49.08,140.59z"/>
		</g>
	</g>
	<g class="st2">
		<g>
			<path class="st3" d="M54.81,123.62c5.53-5.31,11.78-9.77,18.03-14.18c6.13-4.32,12.33-8.6,17.91-13.63
				c3.12-2.81,6.02-5.85,8.57-9.19c0.2-0.26-0.24-0.5-0.43-0.25c-4.61,6.02-10.38,11.01-16.41,15.54
				c-6.04,4.54-12.37,8.68-18.39,13.24c-3.35,2.53-6.6,5.2-9.63,8.11C54.22,123.49,54.57,123.84,54.81,123.62L54.81,123.62z"/>
		</g>
	</g>
	<g class="st2">
		<g>
			<path class="st3" d="M52.43,112.85c11.18-7.01,22.15-14.35,32.89-22.01c3.01-2.15,6.01-4.33,8.98-6.53
				c0.26-0.19,0.01-0.62-0.25-0.43c-10.61,7.84-21.45,15.37-32.52,22.57c-3.1,2.02-6.22,4.01-9.36,5.97
				C51.91,112.59,52.16,113.03,52.43,112.85L52.43,112.85z"/>
		</g>
	</g>
	<g class="st2">
		<g>
			<path class="st3" d="M54.37,99.61c1.1-1.63,2.8-2.65,4.52-3.53c1.94-1,3.9-1.97,5.83-2.99c3.97-2.09,7.88-4.28,11.74-6.58
				c2.22-1.32,4.41-2.67,6.59-4.06c0.27-0.17,0.02-0.6-0.25-0.43C75,86.99,66.94,91.4,58.72,95.61c-1.83,0.94-3.61,2.02-4.78,3.75
				C53.76,99.63,54.19,99.88,54.37,99.61L54.37,99.61z"/>
		</g>
	</g>
	<g class="st2">
		<g>
			<path class="st3" d="M140.59,134.76c7.88-6.86,15.76-13.71,23.64-20.57c0.24-0.21-0.11-0.56-0.35-0.35
				c-7.88,6.86-15.76,13.71-23.64,20.57C140,134.61,140.35,134.97,140.59,134.76L140.59,134.76z"/>
		</g>
	</g>
	<g class="st2">
		<g>
			<path class="st3" d="M138.27,120.04c3.77-3.43,8.24-6.02,13.08-7.61c0.22-0.07,0.25-0.43,0-0.48c-0.24-0.05-0.47-0.1-0.71-0.15
				c-0.31-0.07-0.45,0.41-0.13,0.48c0.24,0.05,0.47,0.1,0.71,0.15c0-0.16,0-0.32,0-0.48c-4.93,1.61-9.47,4.25-13.31,7.74
				C137.68,119.9,138.03,120.26,138.27,120.04L138.27,120.04z"/>
		</g>
	</g>
	<g class="st2">
		<g>
			<path class="st3" d="M129.86,112.85c3.1-1.5,6.11-3.2,9-5.08c0.27-0.17,0.02-0.61-0.25-0.43c-2.89,1.88-5.9,3.58-9,5.08
				C129.32,112.56,129.57,112.99,129.86,112.85L129.86,112.85z"/>
		</g>
	</g>
	<g class="st2">
		<g>
			<path class="st3" d="M102,106.86c5.1-4.42,10.62-8.33,16.47-11.68c0.28-0.16,0.03-0.59-0.25-0.43
				c-5.89,3.37-11.45,7.31-16.58,11.76C101.4,106.72,101.76,107.07,102,106.86L102,106.86z"/>
		</g>
	</g>
</g>
<g>
	<g>
		<path d="M213.97,157.98c-0.58,2.26-0.73,4.61-0.42,6.92c0.04,0.27,0.2,0.5,0.5,0.5c0.24,0,0.54-0.23,0.5-0.5
			c-0.29-2.23-0.17-4.48,0.39-6.66C215.09,157.63,214.13,157.36,213.97,157.98L213.97,157.98z"/>
	</g>
</g>
<g>
	<g>
		<g>
			<path d="M210.02,170.49c1.11,5.04,3.32,9.8,6.46,13.89c0.39,0.5,1.26,0.01,0.86-0.5c-3.1-4.03-5.27-8.69-6.36-13.65
				C210.85,169.6,209.88,169.86,210.02,170.49L210.02,170.49z"/>
		</g>
	</g>
	<g>
		<g>
			<path d="M217.43,170.62c-3.76,3.23-6.85,7.19-9.08,11.61c-0.29,0.57,0.57,1.08,0.86,0.5c2.2-4.36,5.23-8.23,8.93-11.41
				C218.63,170.9,217.92,170.2,217.43,170.62L217.43,170.62z"/>
		</g>
	</g>
</g>
<g>
	<g>
		<path d="M239.61,158.06c0,3.38,0,6.76,0,10.14c0,0.64,1,0.64,1,0c0-3.38,0-6.76,0-10.14
			C240.61,157.42,239.61,157.42,239.61,158.06L239.61,158.06z"/>
	</g>
</g>
<g>
	<g>
		<g>
			<path d="M230.62,171.15c2.22,3.93,4.48,7.83,6.78,11.72c0.25,0.43,0.93,0.24,0.93-0.25c0-0.34,0-0.69,0-1.03c0-0.64-1-0.64-1,0
				c0,0.34,0,0.69,0,1.03c0.31-0.08,0.62-0.17,0.93-0.25c-2.3-3.89-4.56-7.79-6.78-11.72C231.17,170.08,230.3,170.59,230.62,171.15
				L230.62,171.15z"/>
		</g>
	</g>
	<g>
		<g>
			<path d="M236.49,172.68c-2.59,2.95-4.84,6.18-6.72,9.63c-0.26,0.48,0.41,1.06,0.79,0.61c0.27-0.33,0.54-0.65,0.81-0.98
				c0.41-0.49-0.3-1.2-0.71-0.71c-0.27,0.33-0.54,0.65-0.81,0.98c0.26,0.2,0.52,0.4,0.79,0.61c1.84-3.37,4.03-6.54,6.57-9.43
				C237.62,172.9,236.91,172.19,236.49,172.68L236.49,172.68z"/>
		</g>
	</g>
	<g>
		<g>
			<path d="M239.54,176.83c2.16,0.04,4.31,0.08,6.47,0.11c0.64,0.01,0.64-0.99,0-1c-2.16-0.04-4.31-0.08-6.47-0.11
				C238.9,175.82,238.9,176.82,239.54,176.83L239.54,176.83z"/>
		</g>
	</g>
	<g>
		<g>
			<path d="M242.93,172.32c-0.36,2.96-0.43,5.95-0.2,8.92c0.04,0.46,0.68,0.72,0.93,0.25c0.19-0.36,0.37-0.71,0.56-1.07
				c0.3-0.57-0.56-1.08-0.86-0.5c-0.19,0.36-0.37,0.71-0.56,1.07c0.31,0.08,0.62,0.17,0.93,0.25c-0.23-2.97-0.17-5.96,0.2-8.92
				C244.01,171.68,243.01,171.69,242.93,172.32L242.93,172.32z"/>
		</g>
	</g>
	<g>
		<g>
			<path d="M247.86,171.02c-0.09,3.1-0.05,6.21,0.11,9.31c0.03,0.49,0.67,0.69,0.93,0.25c0.45-0.73,0.89-1.46,1.34-2.18
				c0.15-0.24,0.39-0.83,0.7-0.88c0.31-0.06,0.42,0.43,0.49,0.69c0.46,1.68,0.51,3.48,0.31,5.2c-0.08,0.64,0.93,0.63,1,0
				c0.15-1.24,0.15-2.49-0.02-3.73c-0.12-0.88-0.2-2.11-0.85-2.8c-0.62-0.67-1.47-0.41-1.99,0.24c-0.72,0.9-1.26,1.99-1.86,2.97
				c0.31,0.08,0.62,0.17,0.93,0.25c-0.16-3.1-0.19-6.21-0.11-9.31C248.88,170.37,247.88,170.37,247.86,171.02L247.86,171.02z"/>
		</g>
	</g>
</g>
<g>
	<g>
		<g>
			<path d="M239.88,153.04c-0.03-0.1-0.05-0.21-0.07-0.32c-0.01-0.03-0.01-0.06-0.01-0.09c0.01,0.06,0.01,0.06,0,0
				c0-0.05-0.01-0.09-0.01-0.14c-0.02-0.21-0.01-0.43,0.01-0.65c0-0.05,0.01-0.09,0.02-0.14c-0.01,0.11,0.01-0.08,0.02-0.1
				c0.02-0.11,0.04-0.21,0.07-0.31c0.03-0.1,0.06-0.21,0.1-0.31c0.02-0.04,0.03-0.09,0.05-0.13c-0.04,0.09,0.04-0.08,0.04-0.09
				c0.11-0.24,0.07-0.55-0.18-0.68c-0.22-0.12-0.56-0.07-0.68,0.18c-0.45,0.95-0.57,2.02-0.31,3.04c0.06,0.25,0.36,0.43,0.62,0.35
				C239.79,153.57,239.95,153.31,239.88,153.04L239.88,153.04z"/>
		</g>
	</g>
	<g>
		<g>
			<path d="M240.23,144.55c0-1.25,0-2.5,0-3.75c0-0.64-1-0.64-1,0c0,1.25,0,2.5,0,3.75C239.23,145.19,240.23,145.19,240.23,144.55
				L240.23,144.55z"/>
		</g>
	</g>
	<g>
		<g>
			<path d="M240.23,136.29c0-1.25,0-2.5,0-3.75c0-0.64-1-0.64-1,0c0,1.25,0,2.5,0,3.75C239.23,136.93,240.23,136.93,240.23,136.29
				L240.23,136.29z"/>
		</g>
	</g>
	<g>
		<g>
			<path d="M239.74,127.93c-0.34-1.26-0.43-2.59-0.25-3.89c0.04-0.27-0.07-0.54-0.35-0.62c-0.23-0.06-0.58,0.08-0.62,0.35
				c-0.21,1.48-0.14,2.97,0.25,4.42C238.94,128.81,239.9,128.55,239.74,127.93L239.74,127.93z"/>
		</g>
	</g>
	<g>
		<g>
			<path d="M239.48,120.4c0-1.13,0-2.25,0-3.38c0-0.27-0.23-0.5-0.5-0.5c-0.27,0-0.5,0.23-0.5,0.5c0,1.13,0,2.25,0,3.38
				c0,0.27,0.23,0.5,0.5,0.5C239.25,120.9,239.48,120.67,239.48,120.4L239.48,120.4z"/>
		</g>
	</g>
	<g>
		<g>
			<path d="M238.24,108.02c-0.35-1.57-0.42-3.17-0.23-4.77c0.03-0.27-0.25-0.5-0.5-0.5c-0.3,0-0.47,0.23-0.5,0.5
				c-0.2,1.68-0.1,3.38,0.27,5.03C237.41,108.92,238.38,108.65,238.24,108.02L238.24,108.02z"/>
		</g>
	</g>
	<g>
		<g>
			<path d="M237.6,98.37c0-1.5,0-3,0-4.5c0-0.64-1-0.64-1,0c0,1.5,0,3,0,4.5C236.6,99.02,237.6,99.02,237.6,98.37L237.6,98.37z"/>
		</g>
	</g>
	<g>
		<g>
			<path d="M236.83,88.24c0.01-1.2,0.25-2.4,0.72-3.5c0.11-0.25,0.07-0.54-0.18-0.68c-0.21-0.12-0.58-0.07-0.68,0.18
				c-0.55,1.27-0.84,2.62-0.85,4C235.82,88.88,236.82,88.88,236.83,88.24L236.83,88.24z"/>
		</g>
	</g>
	<g>
		<g>
			<path d="M236.48,79.98c0-1.25,0-2.5,0-3.75c0-0.64-1-0.64-1,0c0,1.25,0,2.5,0,3.75C235.48,80.62,236.48,80.62,236.48,79.98
				L236.48,79.98z"/>
		</g>
	</g>
</g>
<g>
	<g>
		<g>
			<path class="st4" d="M228.7,86.16c2.51,0.07,5.01,0.3,7.48,0.69c0.31,0.05,0.45-0.43,0.13-0.48c-2.52-0.4-5.06-0.64-7.61-0.71
				C228.38,85.65,228.38,86.15,228.7,86.16L228.7,86.16z"/>
		</g>
	</g>
	<g>
		<g>
			<path class="st4" d="M223.22,93.75c3.27-0.54,6.62-0.56,9.89-0.01c0.74,0.12,1.5,0.25,2.21,0.48c0.28,0.09,0.74,0.19,0.89-0.16
				c0.21-0.52-0.77-0.87-0.72-0.26c0.03,0.32,0.53,0.32,0.5,0c0,0.01-1.52-0.31-1.7-0.35c-0.54-0.11-1.09-0.21-1.63-0.29
				c-1.04-0.15-2.08-0.26-3.13-0.3c-2.16-0.1-4.31,0.05-6.44,0.4C222.77,93.32,222.91,93.8,223.22,93.75L223.22,93.75z"/>
		</g>
	</g>
	<g>
		<g>
			<path class="st4" d="M216.82,100.64c6.14,0.27,12.27,0.54,18.41,0.82c0.32,0.01,0.32-0.49,0-0.5
				c-6.14-0.27-12.27-0.54-18.41-0.82C216.5,100.13,216.5,100.63,216.82,100.64L216.82,100.64z"/>
		</g>
	</g>
	<g>
		<g>
			<path class="st4" d="M210.81,109.28c4.3-0.05,8.6-0.02,12.89,0.07c2.15,0.05,4.29,0.11,6.44,0.2c1.11,0.04,2.23,0.09,3.34,0.14
				c0.97,0.05,2.03,0.22,3,0.13c0.32-0.03,0.96-0.31,0.57-0.71c-0.25-0.25-0.82-0.22-0.83,0.19c-0.01,0.32,0.49,0.32,0.5,0
				c-0.07,0.2-0.17,0.21-0.31,0.03c-0.11,0-0.22,0-0.32,0c-0.25-0.01-0.49-0.03-0.74-0.04c-0.54-0.03-1.07-0.05-1.61-0.08
				c-1.11-0.05-2.23-0.1-3.34-0.15c-2.15-0.08-4.29-0.15-6.44-0.2c-4.38-0.1-8.76-0.12-13.14-0.08
				C210.49,108.78,210.49,109.28,210.81,109.28L210.81,109.28z"/>
		</g>
	</g>
	<g>
		<g>
			<path class="st4" d="M212.64,114.16c1.52,0.58,3.21,0.41,4.8,0.39c1.86-0.03,3.72-0.06,5.58-0.08c3.72-0.06,7.45-0.11,11.17-0.17
				c0.32,0,0.32-0.5,0-0.5c-3.64,0.05-7.28,0.11-10.92,0.16c-1.82,0.03-3.64,0.05-5.46,0.08c-1.66,0.02-3.46,0.23-5.04-0.37
				C212.47,113.57,212.34,114.05,212.64,114.16L212.64,114.16z"/>
		</g>
	</g>
	<g>
		<g>
			<path class="st4" d="M214.58,123.79c2.4,0.17,4.81,0.33,7.21,0.5c0.58,0.04,1.15,0.08,1.73,0.12c0.37,0.03,0.97,0.19,1.32,0.02
				c0.39-0.19,0.47-1.07-0.08-1.07c-0.32,0-0.32,0.5,0,0.5c-0.1-0.03-0.18,0.01-0.23,0.11c-0.1-0.01-0.2-0.01-0.3-0.02
				c-0.2-0.01-0.41-0.03-0.61-0.04c-0.44-0.03-0.88-0.06-1.32-0.09c-0.85-0.06-1.69-0.12-2.54-0.17c-1.73-0.12-3.45-0.24-5.18-0.36
				C214.26,123.26,214.26,123.76,214.58,123.79L214.58,123.79z"/>
		</g>
	</g>
	<g>
		<g>
			<path class="st4" d="M214.96,131.2c7.75,0.35,15.52,0.35,23.27,0.01c0.32-0.01,0.32-0.51,0-0.5c-7.75,0.34-15.52,0.34-23.27-0.01
				C214.64,130.69,214.64,131.19,214.96,131.2L214.96,131.2z"/>
		</g>
	</g>
	<g>
		<g>
			<path class="st4" d="M215.7,137.45c7.39,0.12,14.77,0.24,22.16,0.37c0.32,0.01,0.32-0.49,0-0.5c-7.39-0.12-14.77-0.24-22.16-0.37
				C215.38,136.95,215.38,137.45,215.7,137.45L215.7,137.45z"/>
		</g>
	</g>
	<g>
		<g>
			<path class="st4" d="M213.84,143.45c8.84-0.44,17.69-0.49,26.53-0.17c-0.02-0.16-0.04-0.33-0.07-0.49
				c-0.34,0.13-0.68,0.26-1.01,0.4c-0.3,0.12-0.17,0.6,0.13,0.48c0.34-0.13,0.68-0.26,1.01-0.4c0.25-0.1,0.23-0.48-0.07-0.49
				c-8.84-0.32-17.7-0.27-26.53,0.17C213.51,142.96,213.51,143.46,213.84,143.45L213.84,143.45z"/>
		</g>
	</g>
	<g>
		<g>
			<path class="st4" d="M216.82,149.09c6.88-0.3,13.78-0.19,20.65,0.34c0.32,0.02,0.32-0.48,0-0.5c-6.87-0.53-13.76-0.64-20.65-0.34
				C216.5,148.6,216.5,149.1,216.82,149.09L216.82,149.09z"/>
		</g>
	</g>
	<g>
		<g>
			<path class="st4" d="M216.81,153.79c7.61,0.36,15.21,0.72,22.82,1.08c0-0.17,0-0.33,0-0.5c-0.47,0.02-0.93,0.04-1.4,0.06
				c-0.32,0.01-0.32,0.51,0,0.5c0.47-0.02,0.93-0.04,1.4-0.06c0.32-0.01,0.32-0.48,0-0.5c-7.61-0.36-15.21-0.72-22.82-1.08
				C216.49,153.28,216.49,153.78,216.81,153.79L216.81,153.79z"/>
		</g>
	</g>
	<g>
		<g>
			<path class="st4" d="M220.37,159.66c-0.53-15.53-1.06-31.06-1.59-46.59c-0.15-4.4-0.3-8.8-0.45-13.2c-0.01-0.32-0.51-0.32-0.5,0
				c0.53,15.53,1.06,31.06,1.59,46.59c0.15,4.4,0.3,8.8,0.45,13.2C219.88,159.98,220.38,159.98,220.37,159.66L220.37,159.66z"/>
		</g>
	</g>
	<g>
		<g>
			<path class="st4" d="M226.08,113.77c0.35-7.88,0.31-15.77-0.13-23.64c-0.02-0.32-0.52-0.32-0.5,0
				c0.44,7.87,0.49,15.76,0.13,23.64C225.57,114.09,226.07,114.09,226.08,113.77L226.08,113.77z"/>
		</g>
	</g>
	<g>
		<g>
			<path class="st4" d="M233.06,111.12c0.43-4.81,0.42-9.65-0.05-14.45c-0.22-2.32-0.55-4.64-0.98-6.93
				c-0.47-2.5-0.97-4.87,0.11-7.29c0.13-0.29-0.3-0.55-0.43-0.25c-0.95,2.14-0.82,4.26-0.39,6.51c0.48,2.48,0.89,4.97,1.15,7.48
				c0.51,4.96,0.54,9.97,0.1,14.94C232.53,111.44,233.03,111.44,233.06,111.12L233.06,111.12z"/>
		</g>
	</g>
	<g>
		<g>
			<path class="st4" d="M225.96,159.94c0.92-8.22,1.14-16.51,0.66-24.77c-0.02-0.32-0.52-0.32-0.5,0
				c0.48,8.26,0.26,16.55-0.66,24.77C225.42,160.26,225.92,160.26,225.96,159.94L225.96,159.94z"/>
		</g>
	</g>
	<g>
		<g>
			<path class="st4" d="M232.72,160.43c2.22-7.72,0.83-15.82,0.57-23.69c-0.08-2.3-0.06-4.6,0.15-6.89c0.03-0.32-0.47-0.32-0.5,0
				c-0.73,7.93,0.93,15.85,0.41,23.79c-0.15,2.25-0.49,4.49-1.12,6.66C232.15,160.61,232.63,160.74,232.72,160.43L232.72,160.43z"/>
		</g>
	</g>
</g>
<g>
	<g>
		<g>
			<path d="M228.4,118.18c-0.07,1.48-0.06,2.97,0.05,4.45c0.05,0.74,0.13,1.48,0.23,2.22c0.07,0.55,0.13,1.16,0.5,1.6
				c0.94,1.14,2.38,0.04,3.28-0.54c1.25-0.8,2.51-1.59,3.76-2.39c0.54-0.34,0.04-1.21-0.5-0.86c-1.07,0.68-2.15,1.37-3.22,2.05
				c-0.52,0.33-1.03,0.68-1.56,0.99c-0.4,0.23-0.91,0.43-1.1-0.12c-0.19-0.52-0.2-1.13-0.26-1.68c-0.07-0.63-0.12-1.27-0.16-1.9
				c-0.07-1.27-0.07-2.55-0.01-3.82C229.43,117.53,228.43,117.53,228.4,118.18L228.4,118.18z"/>
		</g>
	</g>
	<g>
		<g>
			<path d="M229.43,125.64c0.45,0.58,1.09,0.46,1.55-0.05c0.55-0.6,0.72-1.58,1.05-2.31c0.78-1.68,1.82-3.24,3.07-4.6
				c2.42-2.63,5.79-4.83,9.42-5.15c1.97-0.18,3.98,0.23,5.43,1.65c0.46,0.45,1.17-0.26,0.71-0.71c-2.5-2.45-6.37-2.34-9.46-1.19
				c-3.35,1.25-6.26,3.67-8.33,6.56c-0.59,0.82-1.11,1.69-1.55,2.6c-0.23,0.46-0.43,0.94-0.62,1.42c-0.09,0.23-0.17,0.48-0.26,0.71
				c-0.03,0.08-0.06,0.16-0.11,0.24c-0.05,0.08-0.1,0.14-0.18,0.19c-0.12,0.07-0.08,0.12,0.13,0.14
				C229.91,124.63,229.04,125.13,229.43,125.64L229.43,125.64z"/>
		</g>
	</g>
</g>
<g class="st1">
	<g class="st2">
		<g>
			<path d="M253.73,106.57c1.49,0.08,3.91,0.2,4.39,1.98c0.15,0.56,0.11,1.33-0.35,1.75c-0.5,0.46-1.33,0.2-1.95,0.36
				c-0.74,0.18-1.15,0.79-1.03,1.55c0.16,1.07,0.65,2.16,0.98,3.19c0.18,0.55,0.33,1.11,0.53,1.65c0.12,0.33,0.31,0.64,0.68,0.7
				c0.69,0.11,1-0.88,0.37-1.17c-0.21-0.1-0.43-0.09-0.61,0.08c-0.01,0.01-0.03,0.03-0.04,0.04c-0.47,0.45,0.24,1.15,0.71,0.71
				c0.01-0.01,0.03-0.03,0.04-0.04c-0.2,0.03-0.4,0.05-0.61,0.08c-0.05-0.11-0.1-0.23-0.15-0.34c0.08-0.1,0.15-0.2,0.23-0.3
				c-0.02,0.01-0.04,0.02-0.06,0.03c0.13-0.02,0.26-0.03,0.39-0.05c-0.07-0.01-0.36-1.18-0.41-1.34c-0.15-0.48-0.31-0.96-0.46-1.45
				c-0.16-0.52-0.34-1.03-0.5-1.55c-0.12-0.39-0.22-0.75,0.27-0.84c0.63-0.11,1.26,0.03,1.86-0.27c0.49-0.25,0.84-0.7,1.02-1.21
				c0.4-1.1,0.07-2.46-0.8-3.24c-1.22-1.09-2.93-1.23-4.49-1.31C253.09,105.54,253.09,106.54,253.73,106.57L253.73,106.57z"/>
		</g>
	</g>
	<g class="st2">
		<g>
			<path d="M260.75,106.23c1.3,0.45,3,1,3.64,2.35c0.41,0.87,0.19,2.56-1,2.68c-0.67,0.07-1.33-0.24-1.98,0.06
				c-0.63,0.29-0.85,0.93-0.81,1.59c0.1,1.62,0.84,3.29,1.69,4.65c0.25,0.4,0.96,0.26,0.93-0.25c-0.01-0.27-0.03-0.54-0.04-0.82
				c-0.03-0.64-1.03-0.64-1,0c0.01,0.27,0.03,0.54,0.04,0.82c0.31-0.08,0.62-0.17,0.93-0.25c-0.4-0.64-2.48-4.66-1.1-4.87
				c0.7-0.1,1.34,0.21,2.03-0.08c0.52-0.21,0.93-0.64,1.17-1.14c0.55-1.12,0.4-2.47-0.36-3.45c-0.95-1.21-2.46-1.76-3.87-2.25
				C260.41,105.06,260.15,106.02,260.75,106.23L260.75,106.23z"/>
		</g>
	</g>
	<g class="st2">
		<g>
			<path d="M263.57,121.85c0,0,0.01-0.01,0.01-0.01c-0.03,0.03-0.07,0.05-0.1,0.08c0.01-0.01,0.02-0.01,0.03-0.02
				c-0.04,0.02-0.08,0.03-0.12,0.05c0.01,0,0.01,0,0.02-0.01c-0.04,0.01-0.09,0.01-0.13,0.02c0.01,0,0.01,0,0.02,0
				c-0.04-0.01-0.09-0.01-0.13-0.02c0.01,0,0.01,0,0.02,0c-0.04-0.02-0.08-0.03-0.12-0.05c0.01,0,0.01,0.01,0.01,0.01
				c-0.03-0.03-0.07-0.05-0.1-0.08c0.01,0.01,0.01,0.01,0.02,0.02c-0.03-0.03-0.05-0.07-0.08-0.1c0.01,0.01,0.01,0.02,0.02,0.04
				c-0.02-0.04-0.03-0.08-0.05-0.12c0.01,0.02,0.01,0.05,0.02,0.07c-0.01-0.04-0.01-0.09-0.02-0.13c0,0.03,0,0.06,0,0.08
				c0.01-0.04,0.01-0.09,0.02-0.13c0,0.02-0.01,0.04-0.02,0.06c0.02-0.04,0.03-0.08,0.05-0.12c-0.01,0.01-0.01,0.03-0.02,0.04
				c0.03-0.03,0.05-0.07,0.08-0.1c-0.01,0.01-0.01,0.01-0.02,0.02c0.03-0.03,0.07-0.05,0.1-0.08c-0.01,0.01-0.02,0.01-0.02,0.01
				c0.04-0.02,0.08-0.03,0.12-0.05c-0.01,0-0.02,0.01-0.03,0.01c0.04-0.01,0.09-0.01,0.13-0.02c-0.01,0-0.02,0-0.03,0
				c0.04,0.01,0.09,0.01,0.13,0.02c-0.02,0-0.04-0.01-0.06-0.02c0.04,0.02,0.08,0.03,0.12,0.05c-0.02-0.01-0.03-0.02-0.05-0.03
				c0.03,0.03,0.07,0.05,0.1,0.08c-0.02-0.01-0.03-0.03-0.05-0.05c0.03,0.03,0.05,0.07,0.08,0.1c-0.01-0.02-0.03-0.04-0.04-0.06
				c0.02,0.04,0.03,0.08,0.05,0.12c-0.01-0.04-0.02-0.07-0.03-0.11c0.01,0.04,0.01,0.09,0.02,0.13c0-0.04,0-0.09,0-0.13
				c-0.01,0.04-0.01,0.09-0.02,0.13c0.01-0.04,0.02-0.09,0.03-0.13c-0.02,0.04-0.03,0.08-0.05,0.12c0.02-0.04,0.04-0.08,0.07-0.12
				c-0.03,0.03-0.05,0.07-0.08,0.1c0.08-0.1,0.17-0.17,0.26-0.25c0.12-0.11,0.23-0.22,0.32-0.35c-0.29,0-0.58,0-0.86,0
				c0.09,0.12,0.18,0.25,0.24,0.39c-0.02-0.04-0.03-0.08-0.05-0.12c0.03,0.07,0.05,0.14,0.06,0.21c-0.01-0.04-0.01-0.09-0.02-0.13
				c0.01,0.05,0.01,0.09,0,0.14c0.01-0.04,0.01-0.09,0.02-0.13c-0.01,0.04-0.02,0.08-0.03,0.12c0.02-0.04,0.03-0.08,0.05-0.12
				c-0.01,0.03-0.03,0.05-0.04,0.08c0.03-0.03,0.05-0.07,0.08-0.1c-0.01,0.01-0.02,0.02-0.04,0.04c0.03-0.03,0.07-0.05,0.1-0.08
				c-0.02,0.01-0.03,0.02-0.05,0.03c0.04-0.02,0.08-0.03,0.12-0.05c-0.02,0.01-0.04,0.01-0.06,0.01c0.04-0.01,0.09-0.01,0.13-0.02
				c-0.03,0-0.06,0-0.09,0c0.04,0.01,0.09,0.01,0.13,0.02c-0.04-0.01-0.07-0.02-0.11-0.03c0.04,0.02,0.08,0.03,0.12,0.05
				c-0.03-0.02-0.07-0.03-0.1-0.06c0.03,0.03,0.07,0.05,0.1,0.08c-0.02-0.02-0.04-0.04-0.06-0.06c0.03,0.03,0.05,0.07,0.08,0.1
				c-0.01-0.01-0.02-0.03-0.03-0.04c0.02,0.04,0.03,0.08,0.05,0.12c0-0.01-0.01-0.02-0.01-0.04c0.01,0.04,0.01,0.09,0.02,0.13
				c0-0.01,0-0.02,0-0.03c-0.01,0.04-0.01,0.09-0.02,0.13c0-0.01,0-0.02,0.01-0.03c-0.02,0.04-0.03,0.08-0.05,0.12
				c0.01-0.01,0.01-0.02,0.02-0.04c-0.03,0.03-0.05,0.07-0.08,0.1c0.01-0.01,0.02-0.02,0.04-0.03c-0.03,0.03-0.07,0.05-0.1,0.08
				c0,0,0.01,0,0.01-0.01c0.11-0.08,0.19-0.17,0.23-0.3c0.03-0.12,0.02-0.28-0.05-0.39c-0.07-0.11-0.17-0.2-0.3-0.23
				c-0.12-0.03-0.28-0.03-0.39,0.05c-0.14,0.1-0.25,0.22-0.3,0.39c-0.04,0.16-0.02,0.33,0.06,0.48c0.11,0.2,0.3,0.32,0.51,0.39
				c0.24,0.08,0.51,0.04,0.7-0.12c0.14-0.11,0.22-0.25,0.27-0.41c0.05-0.16,0.04-0.33,0.01-0.5c-0.02-0.15-0.09-0.29-0.16-0.42
				c-0.06-0.1-0.12-0.2-0.19-0.29c-0.04-0.08-0.1-0.13-0.18-0.18c-0.08-0.05-0.16-0.07-0.25-0.07c-0.19,0-0.33,0.1-0.43,0.25
				c-0.01,0.01-0.02,0.03-0.03,0.04c0.03-0.03,0.05-0.07,0.08-0.1c-0.07,0.09-0.17,0.17-0.26,0.25c-0.12,0.1-0.21,0.2-0.31,0.33
				c-0.04,0.05-0.06,0.11-0.09,0.17c-0.03,0.06-0.05,0.12-0.06,0.19c-0.02,0.16-0.04,0.33,0.02,0.48c0.06,0.18,0.17,0.35,0.35,0.45
				c0.2,0.11,0.45,0.14,0.65,0.02c0.29-0.16,0.37-0.49,0.31-0.8c-0.03-0.17-0.14-0.33-0.29-0.41c-0.11-0.07-0.23-0.09-0.36-0.07
				c-0.14,0.02-0.24,0.08-0.35,0.17c-0.09,0.08-0.15,0.23-0.15,0.35c0,0.12,0.05,0.27,0.15,0.35c0.1,0.09,0.22,0.15,0.35,0.15
				C263.35,121.99,263.46,121.94,263.57,121.85L263.57,121.85z"/>
		</g>
	</g>
	<g class="st2">
		<g>
			<path d="M257.32,121.19c0,0,0.01-0.01,0.01-0.01c-0.03,0.03-0.07,0.05-0.1,0.08c0.01-0.01,0.02-0.01,0.03-0.02
				c-0.04,0.02-0.08,0.03-0.12,0.05c0.01,0,0.01,0,0.02-0.01c-0.04,0.01-0.09,0.01-0.13,0.02c0.01,0,0.01,0,0.02,0
				c-0.04-0.01-0.09-0.01-0.13-0.02c0.01,0,0.01,0,0.02,0c-0.04-0.02-0.08-0.03-0.12-0.05c0.01,0,0.01,0.01,0.01,0.01
				c-0.03-0.03-0.07-0.05-0.1-0.08c0.01,0.01,0.01,0.01,0.02,0.02c-0.03-0.03-0.05-0.07-0.08-0.1c0.01,0.01,0.01,0.02,0.02,0.04
				c-0.02-0.04-0.03-0.08-0.05-0.12c0.01,0.02,0.01,0.05,0.02,0.07c-0.01-0.04-0.01-0.09-0.02-0.13c0,0.03,0,0.06,0,0.08
				c0.01-0.04,0.01-0.09,0.02-0.13c0,0.02-0.01,0.04-0.02,0.06c0.02-0.04,0.03-0.08,0.05-0.12c-0.01,0.01-0.01,0.03-0.02,0.04
				c0.03-0.03,0.05-0.07,0.08-0.1c-0.01,0.01-0.01,0.01-0.02,0.02c0.03-0.03,0.07-0.05,0.1-0.08c-0.01,0.01-0.02,0.01-0.02,0.01
				c0.04-0.02,0.08-0.03,0.12-0.05c-0.01,0-0.02,0.01-0.03,0.01c0.04-0.01,0.09-0.01,0.13-0.02c-0.01,0-0.02,0-0.03,0
				c0.04,0.01,0.09,0.01,0.13,0.02c-0.02,0-0.04-0.01-0.06-0.02c0.04,0.02,0.08,0.03,0.12,0.05c-0.02-0.01-0.03-0.02-0.05-0.03
				c0.03,0.03,0.07,0.05,0.1,0.08c-0.02-0.01-0.03-0.03-0.05-0.05c0.03,0.03,0.05,0.07,0.08,0.1c-0.01-0.02-0.03-0.04-0.04-0.06
				c0.02,0.04,0.03,0.08,0.05,0.12c-0.01-0.04-0.02-0.07-0.03-0.11c0.01,0.04,0.01,0.09,0.02,0.13c0-0.04,0-0.09,0-0.13
				c-0.01,0.04-0.01,0.09-0.02,0.13c0.01-0.04,0.02-0.09,0.03-0.13c-0.02,0.04-0.03,0.08-0.05,0.12c0.02-0.04,0.04-0.08,0.07-0.12
				c-0.03,0.03-0.05,0.07-0.08,0.1c0.08-0.1,0.17-0.17,0.26-0.25c0.12-0.11,0.23-0.22,0.32-0.35c-0.29,0-0.58,0-0.86,0
				c0.09,0.12,0.18,0.25,0.24,0.39c-0.02-0.04-0.03-0.08-0.05-0.12c0.03,0.07,0.05,0.14,0.06,0.21c-0.01-0.04-0.01-0.09-0.02-0.13
				c0.01,0.05,0.01,0.09,0,0.14c0.01-0.04,0.01-0.09,0.02-0.13c-0.01,0.04-0.02,0.08-0.03,0.12c0.02-0.04,0.03-0.08,0.05-0.12
				c-0.01,0.03-0.03,0.05-0.04,0.08c0.03-0.03,0.05-0.07,0.08-0.1c-0.01,0.01-0.02,0.02-0.04,0.04c0.03-0.03,0.07-0.05,0.1-0.08
				c-0.02,0.01-0.03,0.02-0.05,0.03c0.04-0.02,0.08-0.03,0.12-0.05c-0.02,0.01-0.04,0.01-0.06,0.01c0.04-0.01,0.09-0.01,0.13-0.02
				c-0.03,0-0.06,0-0.09,0c0.04,0.01,0.09,0.01,0.13,0.02c-0.04-0.01-0.07-0.02-0.11-0.03c0.04,0.02,0.08,0.03,0.12,0.05
				c-0.03-0.02-0.07-0.03-0.1-0.06c0.03,0.03,0.07,0.05,0.1,0.08c-0.02-0.02-0.04-0.04-0.06-0.06c0.03,0.03,0.05,0.07,0.08,0.1
				c-0.01-0.01-0.02-0.03-0.03-0.04c0.02,0.04,0.03,0.08,0.05,0.12c0-0.01-0.01-0.02-0.01-0.04c0.01,0.04,0.01,0.09,0.02,0.13
				c0-0.01,0-0.02,0-0.03c-0.01,0.04-0.01,0.09-0.02,0.13c0-0.01,0-0.02,0.01-0.03c-0.02,0.04-0.03,0.08-0.05,0.12
				c0.01-0.01,0.01-0.02,0.02-0.04c-0.03,0.03-0.05,0.07-0.08,0.1c0.01-0.01,0.02-0.02,0.04-0.03c-0.03,0.03-0.07,0.05-0.1,0.08
				c0,0,0.01,0,0.01-0.01c0.11-0.08,0.19-0.17,0.23-0.3c0.03-0.12,0.02-0.28-0.05-0.39c-0.07-0.11-0.17-0.2-0.3-0.23
				c-0.12-0.03-0.28-0.03-0.39,0.05c-0.14,0.1-0.25,0.22-0.3,0.39c-0.04,0.16-0.02,0.33,0.06,0.48c0.11,0.2,0.3,0.32,0.51,0.39
				c0.24,0.08,0.51,0.04,0.7-0.12c0.14-0.11,0.22-0.25,0.27-0.41c0.05-0.16,0.04-0.33,0.01-0.5c-0.02-0.15-0.09-0.29-0.16-0.42
				c-0.06-0.1-0.12-0.2-0.19-0.29c-0.04-0.08-0.1-0.13-0.18-0.18c-0.08-0.05-0.16-0.07-0.25-0.07c-0.19,0-0.33,0.1-0.43,0.25
				c-0.01,0.01-0.02,0.03-0.03,0.04c0.03-0.03,0.05-0.07,0.08-0.1c-0.07,0.09-0.17,0.17-0.26,0.25c-0.12,0.1-0.21,0.2-0.31,0.33
				c-0.04,0.05-0.06,0.11-0.09,0.17c-0.03,0.06-0.05,0.12-0.06,0.19c-0.02,0.16-0.04,0.33,0.02,0.48c0.06,0.18,0.17,0.35,0.35,0.45
				c0.2,0.11,0.45,0.14,0.65,0.02c0.29-0.16,0.37-0.49,0.31-0.8c-0.03-0.17-0.14-0.33-0.29-0.41c-0.11-0.07-0.23-0.09-0.36-0.07
				c-0.14,0.02-0.24,0.08-0.35,0.17c-0.09,0.08-0.15,0.23-0.15,0.35c0,0.12,0.05,0.27,0.15,0.35c0.1,0.09,0.22,0.15,0.35,0.15
				C257.1,121.33,257.21,121.28,257.32,121.19L257.32,121.19z"/>
		</g>
	</g>
	<g class="st2">
		<g>
			<path d="M268.44,120.91c0,0,0.01-0.01,0.01-0.01c-0.03,0.03-0.07,0.05-0.1,0.08c0.01-0.01,0.02-0.01,0.03-0.02
				c-0.04,0.02-0.08,0.03-0.12,0.05c0.01,0,0.01,0,0.02-0.01c-0.04,0.01-0.09,0.01-0.13,0.02c0.01,0,0.01,0,0.02,0
				c-0.04-0.01-0.09-0.01-0.13-0.02c0.01,0,0.01,0,0.02,0c-0.04-0.02-0.08-0.03-0.12-0.05c0.01,0,0.01,0.01,0.01,0.01
				c-0.03-0.03-0.07-0.05-0.1-0.08c0.01,0.01,0.01,0.01,0.02,0.02c-0.03-0.03-0.05-0.07-0.08-0.1c0.01,0.01,0.01,0.02,0.02,0.04
				c-0.02-0.04-0.03-0.08-0.05-0.12c0.01,0.02,0.01,0.05,0.02,0.07c-0.01-0.04-0.01-0.09-0.02-0.13c0,0.03,0,0.06,0,0.08
				c0.01-0.04,0.01-0.09,0.02-0.13c0,0.02-0.01,0.04-0.02,0.06c0.02-0.04,0.03-0.08,0.05-0.12c-0.01,0.01-0.01,0.03-0.02,0.04
				c0.03-0.03,0.05-0.07,0.08-0.1c-0.01,0.01-0.01,0.01-0.02,0.02c0.03-0.03,0.07-0.05,0.1-0.08c-0.01,0.01-0.02,0.01-0.02,0.01
				c0.04-0.02,0.08-0.03,0.12-0.05c-0.01,0-0.02,0.01-0.03,0.01c0.04-0.01,0.09-0.01,0.13-0.02c-0.01,0-0.02,0-0.03,0
				c0.04,0.01,0.09,0.01,0.13,0.02c-0.02,0-0.04-0.01-0.06-0.02c0.04,0.02,0.08,0.03,0.12,0.05c-0.02-0.01-0.03-0.02-0.05-0.03
				c0.03,0.03,0.07,0.05,0.1,0.08c-0.02-0.01-0.03-0.03-0.05-0.05c0.03,0.03,0.05,0.07,0.08,0.1c-0.01-0.02-0.03-0.04-0.04-0.06
				c0.02,0.04,0.03,0.08,0.05,0.12c-0.01-0.04-0.02-0.07-0.03-0.11c0.01,0.04,0.01,0.09,0.02,0.13c0-0.04,0-0.09,0-0.13
				c-0.01,0.04-0.01,0.09-0.02,0.13c0.01-0.04,0.02-0.09,0.03-0.13c-0.02,0.04-0.03,0.08-0.05,0.12c0.02-0.04,0.04-0.08,0.07-0.12
				c-0.03,0.03-0.05,0.07-0.08,0.1c0.08-0.1,0.17-0.17,0.26-0.25c0.12-0.11,0.23-0.22,0.32-0.35c-0.29,0-0.58,0-0.86,0
				c0.09,0.12,0.18,0.25,0.24,0.39c-0.02-0.04-0.03-0.08-0.05-0.12c0.03,0.07,0.05,0.14,0.06,0.21c-0.01-0.04-0.01-0.09-0.02-0.13
				c0.01,0.05,0.01,0.09,0,0.14c0.01-0.04,0.01-0.09,0.02-0.13c-0.01,0.04-0.02,0.08-0.03,0.12c0.02-0.04,0.03-0.08,0.05-0.12
				c-0.01,0.03-0.03,0.05-0.04,0.08c0.03-0.03,0.05-0.07,0.08-0.1c-0.01,0.01-0.02,0.02-0.04,0.04c0.03-0.03,0.07-0.05,0.1-0.08
				c-0.02,0.01-0.03,0.02-0.05,0.03c0.04-0.02,0.08-0.03,0.12-0.05c-0.02,0.01-0.04,0.01-0.06,0.01c0.04-0.01,0.09-0.01,0.13-0.02
				c-0.03,0-0.06,0-0.09,0c0.04,0.01,0.09,0.01,0.13,0.02c-0.04-0.01-0.07-0.02-0.11-0.03c0.04,0.02,0.08,0.03,0.12,0.05
				c-0.03-0.02-0.07-0.03-0.1-0.06c0.03,0.03,0.07,0.05,0.1,0.08c-0.02-0.02-0.04-0.04-0.06-0.06c0.03,0.03,0.05,0.07,0.08,0.1
				c-0.01-0.01-0.02-0.03-0.03-0.04c0.02,0.04,0.03,0.08,0.05,0.12c0-0.01-0.01-0.02-0.01-0.04c0.01,0.04,0.01,0.09,0.02,0.13
				c0-0.01,0-0.02,0-0.03c-0.01,0.04-0.01,0.09-0.02,0.13c0-0.01,0-0.02,0.01-0.03c-0.02,0.04-0.03,0.08-0.05,0.12
				c0.01-0.01,0.01-0.02,0.02-0.04c-0.03,0.03-0.05,0.07-0.08,0.1c0.01-0.01,0.02-0.02,0.04-0.03c-0.03,0.03-0.07,0.05-0.1,0.08
				c0,0,0.01,0,0.01-0.01c0.11-0.08,0.19-0.17,0.23-0.3c0.03-0.12,0.02-0.28-0.05-0.39c-0.07-0.11-0.17-0.2-0.3-0.23
				c-0.12-0.03-0.28-0.03-0.39,0.05c-0.14,0.1-0.25,0.22-0.3,0.39c-0.04,0.16-0.02,0.33,0.06,0.48c0.11,0.2,0.3,0.32,0.51,0.39
				c0.24,0.08,0.51,0.04,0.7-0.12c0.14-0.11,0.22-0.25,0.27-0.41c0.05-0.16,0.04-0.33,0.01-0.5c-0.02-0.15-0.09-0.29-0.16-0.42
				c-0.06-0.1-0.12-0.2-0.19-0.29c-0.04-0.08-0.1-0.13-0.18-0.18c-0.08-0.05-0.16-0.07-0.25-0.07c-0.19,0-0.33,0.1-0.43,0.25
				c-0.01,0.01-0.02,0.03-0.03,0.04c0.03-0.03,0.05-0.07,0.08-0.1c-0.07,0.09-0.17,0.17-0.26,0.25c-0.12,0.1-0.21,0.2-0.31,0.33
				c-0.04,0.05-0.06,0.11-0.09,0.17c-0.03,0.06-0.05,0.12-0.06,0.19c-0.02,0.16-0.04,0.33,0.02,0.48c0.06,0.18,0.17,0.35,0.35,0.45
				c0.2,0.11,0.45,0.14,0.65,0.02c0.29-0.16,0.37-0.49,0.31-0.8c-0.03-0.17-0.14-0.33-0.29-0.41c-0.11-0.07-0.23-0.09-0.36-0.07
				c-0.14,0.02-0.24,0.08-0.35,0.17c-0.09,0.08-0.15,0.23-0.15,0.35c0,0.12,0.05,0.27,0.15,0.35c0.1,0.09,0.22,0.15,0.35,0.15
				C268.22,121.05,268.33,121,268.44,120.91L268.44,120.91z"/>
		</g>
	</g>
	<g class="st2">
		<g>
			<path d="M266.33,105.86c1.49,0.08,3.91,0.2,4.39,1.98c0.15,0.56,0.11,1.33-0.35,1.75c-0.5,0.46-1.33,0.2-1.95,0.36
				c-0.74,0.18-1.15,0.79-1.03,1.55c0.16,1.07,0.65,2.16,0.98,3.19c0.18,0.55,0.33,1.11,0.53,1.65c0.12,0.33,0.31,0.64,0.68,0.7
				c0.69,0.11,1-0.88,0.37-1.17c-0.21-0.1-0.43-0.09-0.61,0.08c-0.01,0.01-0.03,0.03-0.04,0.04c-0.47,0.45,0.24,1.15,0.71,0.71
				c0.01-0.01,0.03-0.03,0.04-0.04c-0.2,0.03-0.4,0.05-0.61,0.08c-0.05-0.11-0.1-0.23-0.15-0.34c0.08-0.1,0.15-0.2,0.23-0.3
				c-0.02,0.01-0.04,0.02-0.06,0.03c0.13-0.02,0.26-0.03,0.39-0.05c-0.07-0.01-0.36-1.18-0.41-1.34c-0.15-0.48-0.31-0.96-0.46-1.45
				c-0.16-0.52-0.34-1.03-0.5-1.55c-0.12-0.39-0.22-0.75,0.27-0.84c0.63-0.11,1.26,0.03,1.86-0.27c0.49-0.25,0.84-0.7,1.02-1.21
				c0.4-1.1,0.07-2.46-0.8-3.24c-1.22-1.09-2.93-1.23-4.49-1.31C265.69,104.83,265.69,105.83,266.33,105.86L266.33,105.86z"/>
		</g>
	</g>
</g>
<g class="st1">
	<g class="st2">
		<g>
			<path class="st3" d="M212.37,185.83c-0.68,0.83-0.64,1.93-0.06,2.82c0.68,1.04,1.9,1.4,3.07,1.54c3.01,0.35,6.25,0.43,9.21-0.23
				c-0.19-0.08-0.38-0.15-0.56-0.23c0.65,1.46,1.31,2.92,1.96,4.38c0.19,0.42,0.79,0.25,0.91-0.12c0.32-0.99,0.64-1.98,0.96-2.96
				c0.1-0.3,0.17-0.62,0.29-0.91c0.11-0.27,0.1-0.36,0.41-0.4c0.44-0.06,1,0.1,1.43,0.16c2.12,0.27,4.17,0.77,6.25,1.21
				c1.56,0.33,3.34,0.38,4.47-0.95c0.9-1.05,1.09-2.53,0.51-3.78c-0.27-0.58-1.13-0.08-0.86,0.5c0.61,1.31-0.17,2.96-1.56,3.33
				c-0.93,0.25-1.92,0.02-2.84-0.2c-0.92-0.22-1.84-0.44-2.77-0.62c-0.91-0.18-1.82-0.32-2.74-0.45c-0.48-0.06-0.95-0.12-1.43-0.17
				c-0.39-0.04-0.79-0.12-1.16,0.04c-0.67,0.3-0.79,1.33-0.99,1.95c-0.32,0.99-0.64,1.98-0.96,2.96c0.3-0.04,0.61-0.08,0.91-0.12
				c-0.65-1.46-1.31-2.92-1.96-4.38c-0.09-0.21-0.37-0.27-0.56-0.23c-2.37,0.53-4.8,0.45-7.21,0.32c-1.06-0.06-2.26-0.03-3.22-0.54
				c-0.73-0.39-1.45-1.46-0.82-2.24C213.48,186.04,212.77,185.33,212.37,185.83L212.37,185.83z"/>
		</g>
	</g>
	<g class="st2">
		<g>
			<path class="st3" d="M223.91,196.52c-0.03-0.5-0.05-1.01-0.08-1.51c-0.33,0-0.67,0-1,0c0.17,2.64,0.53,5.27,1.1,7.86
				c0.13,0.6,0.92,0.38,0.98-0.13c0.09-0.68,0.31-1.35,0.64-1.96c0.15-0.28,0.33-0.56,0.53-0.81c0.11-0.14,0.23-0.28,0.36-0.41
				c0.06-0.07,0.13-0.13,0.2-0.19c-0.08-0.07-0.11-0.07-0.06-0.01c0.2,0.16,0.29,0.74,0.35,0.98c0.08,0.34,0.13,0.68,0.14,1.03
				c0.02,0.75-0.13,1.47-0.41,2.16c0.33,0.04,0.65,0.09,0.98,0.13c0-0.13,0.01-0.26,0.01-0.39c0.02-0.64-0.98-0.64-1,0
				c0,0.13-0.01,0.26-0.01,0.39c-0.02,0.61,0.78,0.62,0.98,0.13c0.39-0.95,0.52-1.99,0.4-3.02c-0.06-0.51-0.18-1-0.38-1.48
				c-0.15-0.38-0.34-0.8-0.77-0.92c-0.87-0.25-1.64,0.99-2.02,1.6c-0.52,0.84-0.82,1.78-0.95,2.76c0.33-0.04,0.65-0.09,0.98-0.13
				c-0.55-2.5-0.9-5.04-1.06-7.6c-0.04-0.64-1.03-0.65-1,0c0.03,0.5,0.05,1.01,0.08,1.51C222.94,197.16,223.94,197.16,223.91,196.52
				L223.91,196.52z"/>
		</g>
	</g>
</g>
<g class="st1">
	<g class="st2">
		<g>
			<path class="st3" d="M241.39,103c0.9-0.01,1.83,0.39,2.16,1.29c0.31,0.84,0.2,1.89,0.24,2.78c0.08,2.07,0.16,4.15,0.24,6.22
				c0.16,4.15,0.32,8.29,0.48,12.44c0.01,0.29,0.22,0.47,0.5,0.5c2.19,0.24,4.34,0.75,6.4,1.54c-0.04-0.3-0.08-0.61-0.12-0.91
				c-1.89,0.88-3.87,1.52-5.9,1.98c-0.34,0.08-0.43,0.46-0.3,0.73c1.98,4.1,0.34,8.78,0.38,13.1c0.02,2.39,0.36,4.77,0.78,7.12
				c0.21,1.16,0.44,2.32,0.68,3.48c0.21,1.05,0.55,2.16,0.53,3.24c-0.02,1.07-0.64,1.82-1.64,2.13c-0.76,0.24-1.85,0.37-2.51-0.19
				c-0.49-0.41-1.2,0.29-0.71,0.71c1.25,1.06,3.4,0.8,4.66-0.13c1.89-1.4,1.04-4,0.65-5.9c-0.56-2.74-1.12-5.49-1.35-8.29
				c-0.21-2.59,0.04-5.11,0.3-7.69c0.29-2.77,0.31-5.53-0.93-8.09c-0.1,0.24-0.2,0.49-0.3,0.73c2.12-0.48,4.17-1.17,6.14-2.08
				c0.43-0.2,0.24-0.78-0.12-0.91c-2.15-0.82-4.38-1.32-6.66-1.57c0.17,0.17,0.33,0.33,0.5,0.5c-0.18-4.64-0.36-9.28-0.54-13.93
				c-0.09-2.27-0.06-4.57-0.28-6.83c-0.18-1.79-1.49-2.98-3.3-2.96C240.75,102.01,240.74,103.01,241.39,103L241.39,103z"/>
		</g>
	</g>
	<g class="st2">
		<g>
			<g>
				<path class="st3" d="M257.69,133.2c-1.09-2.57-1.19-5.52-0.27-8.15c0.34-0.99,0.96-2.44,2.17-2.55c1.45-0.13,2.15,1.5,2.43,2.64
					c0.15,0.62,1.12,0.36,0.96-0.27c-0.36-1.45-1.16-3-2.77-3.33c-1.52-0.31-2.69,0.84-3.3,2.11c-1.52,3.12-1.43,6.89-0.09,10.05
					C257.08,134.3,257.94,133.79,257.69,133.2L257.69,133.2z"/>
			</g>
		</g>
		<g>
			<g>
				<path class="st3" d="M254.76,127.68c2.23-0.5,4.52-0.62,6.8-0.38c0.27,0.03,0.5-0.25,0.5-0.5c0-0.29-0.23-0.47-0.5-0.5
					c-2.36-0.25-4.74-0.1-7.06,0.41C253.87,126.86,254.13,127.82,254.76,127.68L254.76,127.68z"/>
			</g>
		</g>
		<g>
			<g>
				<path class="st3" d="M265.84,123.55c-1.3,1.66-1.9,3.88-2.19,5.94c-0.15,1.05-0.01,2.04,0.48,2.99
					c0.49,0.94,1.21,1.75,1.92,2.53c0.43,0.48,1.14-0.23,0.71-0.71c-0.61-0.68-1.23-1.37-1.68-2.18c-0.49-0.88-0.57-1.79-0.39-2.77
					c0.32-1.74,0.75-3.67,1.87-5.09C266.94,123.75,266.24,123.04,265.84,123.55L265.84,123.55z"/>
			</g>
		</g>
		<g>
			<g>
				<path class="st3" d="M266.27,125.82c1.26,1.89,2.48,3.81,3.77,5.68c0.49,0.71,1.03,1.38,1.77,1.84c0.33,0.2,0.87,0.54,1.26,0.35
					c0.4-0.21,0.54-0.72,0.3-1.09c-0.35-0.54-1.21-0.04-0.86,0.5c0.02-0.09,0.04-0.18,0.06-0.28c0.13-0.02,0.26-0.03,0.39-0.05
					c-1.37-0.46-2.1-1.86-2.85-2.99c-0.99-1.49-1.98-2.98-2.96-4.47C266.78,124.78,265.91,125.28,266.27,125.82L266.27,125.82z"/>
			</g>
		</g>
		<g>
			<g>
				<path class="st3" d="M271.84,125.56c-1.8,2.33-3.76,4.53-5.85,6.6c-0.4,0.4,0.11,1.08,0.61,0.79c0.55-0.33,1-0.74,1.38-1.25
					c0.16-0.22,0.03-0.56-0.18-0.68c-0.25-0.15-0.52-0.04-0.68,0.18c-0.28,0.37-0.63,0.65-1.02,0.89c0.2,0.26,0.4,0.52,0.61,0.79
					c2.09-2.07,4.05-4.27,5.85-6.6c0.17-0.22,0.21-0.5,0-0.71C272.38,125.39,272.01,125.35,271.84,125.56L271.84,125.56z"/>
			</g>
		</g>
		<g>
			<g>
				<path class="st3" d="M273.26,123.11c1.05,2.02,1.69,4.2,2.02,6.45c0.15,1,0.36,2.17-0.03,3.15c-0.39,0.98-1.42,1.51-2.44,1.37
					c-0.64-0.08-0.63,0.92,0,1c1.12,0.15,2.26-0.37,2.94-1.26c0.74-0.96,0.76-2.21,0.64-3.36c-0.29-2.74-1-5.41-2.28-7.85
					C273.83,122.04,272.96,122.54,273.26,123.11L273.26,123.11z"/>
			</g>
		</g>
	</g>
</g>
<g class="st1">
	<g class="st2">
		<g>
			<path class="st4" d="M228.76,86.29c2.51,0.07,5.01,0.3,7.48,0.69c0.31,0.05,0.45-0.43,0.13-0.48c-2.52-0.4-5.06-0.64-7.61-0.71
				C228.44,85.78,228.44,86.28,228.76,86.29L228.76,86.29z"/>
		</g>
	</g>
	<g class="st2">
		<g>
			<path class="st4" d="M223.29,93.88c3.27-0.54,6.62-0.56,9.89-0.01c0.74,0.12,1.5,0.25,2.21,0.48c0.28,0.09,0.74,0.19,0.89-0.16
				c0.21-0.52-0.77-0.87-0.72-0.26c0.03,0.32,0.53,0.32,0.5,0c0,0.01-1.52-0.31-1.7-0.35c-0.54-0.11-1.09-0.21-1.63-0.29
				c-1.04-0.15-2.08-0.26-3.13-0.3c-2.16-0.1-4.31,0.05-6.44,0.4C222.84,93.45,222.97,93.93,223.29,93.88L223.29,93.88z"/>
		</g>
	</g>
	<g class="st2">
		<g>
			<path class="st4" d="M216.89,100.77c6.14,0.27,12.27,0.54,18.41,0.82c0.32,0.01,0.32-0.49,0-0.5
				c-6.14-0.27-12.27-0.54-18.41-0.82C216.57,100.25,216.57,100.75,216.89,100.77L216.89,100.77z"/>
		</g>
	</g>
	<g class="st2">
		<g>
			<path class="st4" d="M210.87,109.41c4.3-0.05,8.6-0.02,12.89,0.07c2.15,0.05,4.29,0.11,6.44,0.2c1.11,0.04,2.23,0.09,3.34,0.14
				c0.97,0.05,2.03,0.22,3,0.13c0.32-0.03,0.96-0.31,0.57-0.71c-0.25-0.25-0.82-0.22-0.83,0.19c-0.01,0.32,0.49,0.32,0.5,0
				c-0.07,0.2-0.17,0.21-0.31,0.03c-0.11,0-0.22,0-0.32,0c-0.25-0.01-0.49-0.03-0.74-0.04c-0.54-0.03-1.07-0.05-1.61-0.08
				c-1.11-0.05-2.23-0.1-3.34-0.15c-2.15-0.08-4.29-0.15-6.44-0.2c-4.38-0.1-8.76-0.12-13.14-0.08
				C210.55,108.91,210.55,109.41,210.87,109.41L210.87,109.41z"/>
		</g>
	</g>
	<g class="st2">
		<g>
			<path class="st4" d="M212.7,114.29c1.9,0.48,3.91,0.32,5.84,0.3c2.12-0.02,4.25-0.04,6.37-0.06c4.25-0.04,8.5-0.08,12.75-0.13
				c0.32,0,0.32-0.5,0-0.5c-4.17,0.04-8.33,0.08-12.5,0.12c-2.08,0.02-4.17,0.04-6.25,0.06c-2.01,0.02-4.12,0.22-6.09-0.28
				C212.52,113.73,212.39,114.21,212.7,114.29L212.7,114.29z"/>
		</g>
	</g>
	<g class="st2">
		<g>
			<path class="st4" d="M214.65,123.91c4.78,0.2,9.56,0.4,14.34,0.6c2.39,0.1,4.78,0.2,7.17,0.3c0.6,0.03,1.8,0.33,2.22-0.3
				c0.25-0.38,0.06-1.04-0.45-1.01c-0.32,0.02-0.32,0.52,0,0.5c-0.11,0.29-0.29,0.41-0.53,0.36c-0.08,0-0.16-0.01-0.25-0.01
				c-0.25-0.01-0.49-0.02-0.74-0.03c-0.49-0.02-0.99-0.04-1.48-0.06c-0.95-0.04-1.89-0.08-2.84-0.12c-1.94-0.08-3.87-0.16-5.81-0.25
				c-3.87-0.16-7.74-0.33-11.62-0.49C214.32,123.4,214.32,123.9,214.65,123.91L214.65,123.91z"/>
		</g>
	</g>
	<g class="st2">
		<g>
			<path class="st4" d="M215.02,131.33c7.75,0.35,15.52,0.35,23.27,0.01c0.32-0.01,0.32-0.51,0-0.5
				c-7.75,0.34-15.52,0.34-23.27-0.01C214.7,130.81,214.7,131.31,215.02,131.33L215.02,131.33z"/>
		</g>
	</g>
	<g class="st2">
		<g>
			<path class="st4" d="M215.77,137.58c7.39,0.12,14.77,0.24,22.16,0.37c0.32,0.01,0.32-0.49,0-0.5
				c-7.39-0.12-14.77-0.24-22.16-0.37C215.44,137.07,215.44,137.57,215.77,137.58L215.77,137.58z"/>
		</g>
	</g>
	<g class="st2">
		<g>
			<path class="st4" d="M213.9,143.57c8.84-0.44,17.69-0.49,26.53-0.17c-0.02-0.16-0.04-0.33-0.07-0.49
				c-0.34,0.13-0.68,0.26-1.01,0.4c-0.3,0.12-0.17,0.6,0.13,0.48c0.34-0.13,0.68-0.26,1.01-0.4c0.25-0.1,0.23-0.48-0.07-0.49
				c-8.84-0.32-17.7-0.27-26.53,0.17C213.58,143.09,213.58,143.59,213.9,143.57L213.9,143.57z"/>
		</g>
	</g>
	<g class="st2">
		<g>
			<path class="st4" d="M216.89,149.22c6.88-0.3,13.78-0.19,20.65,0.34c0.32,0.02,0.32-0.48,0-0.5c-6.87-0.53-13.76-0.64-20.65-0.34
				C216.56,148.73,216.56,149.23,216.89,149.22L216.89,149.22z"/>
		</g>
	</g>
	<g class="st2">
		<g>
			<path class="st4" d="M215.38,154.86c7.61,0.36,15.21,0.72,22.82,1.08c0-0.17,0-0.33,0-0.5c-0.47,0.02-0.93,0.04-1.4,0.06
				c-0.32,0.01-0.32,0.51,0,0.5c0.47-0.02,0.93-0.04,1.4-0.06c0.32-0.01,0.32-0.48,0-0.5c-7.61-0.36-15.21-0.72-22.82-1.08
				C215.05,154.34,215.05,154.84,215.38,154.86L215.38,154.86z"/>
		</g>
	</g>
	<g class="st2">
		<g>
			<path class="st4" d="M220.43,159.79c-0.53-15.53-1.06-31.06-1.59-46.59c-0.15-4.4-0.3-8.8-0.45-13.2c-0.01-0.32-0.51-0.32-0.5,0
				c0.53,15.53,1.06,31.06,1.59,46.59c0.15,4.4,0.3,8.8,0.45,13.2C219.94,160.11,220.44,160.11,220.43,159.79L220.43,159.79z"/>
		</g>
	</g>
	<g class="st2">
		<g>
			<path class="st4" d="M223.83,93.53c0.29,8.53,0.46,17.07,0.52,25.61c0.06,8.51,0.11,17.02,0.17,25.52
				c0.03,4.84,0.06,9.69,0.1,14.53c0,0.32,0.5,0.32,0.5,0c-0.06-8.57-0.11-17.14-0.17-25.71c-0.06-8.48-0.08-16.97-0.24-25.45
				c-0.09-4.84-0.22-9.67-0.38-14.5C224.31,93.21,223.81,93.21,223.83,93.53L223.83,93.53z"/>
		</g>
	</g>
	<g class="st2">
		<g>
			<path class="st4" d="M228.65,159.03c-0.17-4.55-0.25-9.12-0.58-13.66c-0.17-2.26-0.47-4.51-0.68-6.77
				c-0.2-2.25-0.26-4.52-0.26-6.78c0-9.25,0.25-18.5,0.39-27.75c0.08-5.19,0.15-10.38,0.23-15.57c0-0.32-0.5-0.32-0.5,0
				c-0.14,9.22-0.27,18.44-0.41,27.66c-0.07,4.65-0.15,9.29-0.2,13.94c-0.02,2.27-0.01,4.54,0.12,6.8c0.14,2.27,0.44,4.53,0.66,6.79
				c0.49,5.1,0.54,10.24,0.73,15.36C228.16,159.35,228.66,159.35,228.65,159.03L228.65,159.03z"/>
		</g>
	</g>
	<g class="st2">
		<g>
			<path class="st4" d="M231.44,83.72c0.01-0.02,0.03-0.04,0.04-0.05c0.08-0.09,0.09-0.19,0.04-0.3c-0.08-0.17-0.21-0.22-0.39-0.25
				c-0.09-0.01-0.17,0.06-0.22,0.12c-0.19,0.31-0.11,0.82-0.13,1.17c-0.04,0.66-0.07,1.31-0.1,1.97c-0.05,1.23-0.08,2.46-0.1,3.7
				c-0.03,2.42,0.02,4.85,0.14,7.27c0.23,4.8,0.96,9.55,1.32,14.34c0.36,4.9-0.24,9.75-0.62,14.63c-0.37,4.87-0.26,9.75-0.09,14.62
				c0.19,5.51,0.39,11.03,0.58,16.54c0.01,0.32,0.51,0.32,0.5,0c-0.17-4.85-0.34-9.71-0.51-14.56c-0.17-4.83-0.38-9.67-0.12-14.5
				c0.26-4.81,1-9.6,0.88-14.43c-0.12-4.78-0.97-9.53-1.3-14.3c-0.18-2.66-0.27-5.33-0.28-8.01c0-1.36,0.02-2.71,0.06-4.07
				c0.02-0.66,0.05-1.31,0.08-1.97c0.02-0.37,0.04-0.74,0.06-1.11c0.01-0.12,0.01-0.25,0.02-0.37c0.01-0.12,0.01-0.25,0.02-0.37
				c0.05-0.16-0.03-0.22-0.24-0.18c0.01-0.1,0.03-0.2,0.04-0.3c-0.01,0.02-0.03,0.04-0.04,0.05
				C230.88,83.62,231.23,83.97,231.44,83.72L231.44,83.72z"/>
		</g>
	</g>
	<g class="st2">
		<g>
			<path class="st4" d="M232.9,81.45c-0.01,10.33,0.55,20.65,1.1,30.97c0.56,10.35,1.11,20.71,1.06,31.07
				c-0.01,2.89-0.08,5.78-0.2,8.66c-0.1,2.46-0.51,5.12,0.58,7.42c0.14,0.29,0.57,0.04,0.43-0.25c-1.03-2.16-0.61-4.73-0.52-7.04
				c0.11-2.56,0.17-5.11,0.19-7.67c0.05-5.12-0.06-10.24-0.24-15.35c-0.37-10.16-1.05-20.31-1.49-30.46
				c-0.25-5.78-0.42-11.56-0.42-17.34C233.4,81.13,232.9,81.12,232.9,81.45L232.9,81.45z"/>
		</g>
	</g>
	<g class="st2">
		<g>
			<path class="st4" d="M214.45,120.15c3.69-0.6,7.41,0.11,11.11,0.09c1.77-0.01,3.47-0.28,5.2-0.65c0.94-0.2,1.88-0.4,2.83-0.5
				c0.46-0.05,0.92-0.07,1.38-0.05c0.19,0.01,0.38,0.02,0.57,0.04c0.03,0,1.18,0.11,1.14,0.06c-0.01,0.1-0.03,0.2-0.04,0.3
				c0.02-0.02,0.03-0.03,0.05-0.05c0.22-0.24-0.14-0.59-0.35-0.35c-0.02,0.02-0.03,0.03-0.05,0.05c-0.07,0.07-0.11,0.21-0.04,0.3
				c0.23,0.3,0.75,0.28,0.72-0.18c-0.05-0.71-1.56-0.66-2.01-0.67c-2.29-0.07-4.5,0.71-6.75,1.02c-4.63,0.64-9.28-0.64-13.91,0.11
				C214,119.72,214.13,120.2,214.45,120.15L214.45,120.15z"/>
		</g>
	</g>
</g>
<g class="st1">
	<g class="st2">
		<g>
			<path d="M213.69,103.04c0.75-0.1,1.51-0.1,2.27,0c-0.09-0.01-0.18-0.02-0.27-0.04c0.22,0.03,0.44,0.07,0.66,0.11
				c0.26,0.06,0.53,0.04,0.77-0.1c0.21-0.12,0.41-0.36,0.46-0.6c0.11-0.5-0.15-1.11-0.7-1.23c-1.05-0.22-2.13-0.29-3.19-0.15
				c-0.28,0.04-0.5,0.09-0.71,0.29c-0.17,0.17-0.3,0.46-0.29,0.71c0.01,0.26,0.1,0.53,0.29,0.71
				C213.17,102.91,213.44,103.07,213.69,103.04L213.69,103.04z"/>
		</g>
	</g>
	<g class="st2">
		<g>
			<path d="M219.83,102.79c0.23,0.01,0.45,0.03,0.67,0.06c-0.09-0.01-0.18-0.02-0.27-0.04c0.61,0.09,1.2,0.25,1.77,0.49
				c-0.08-0.03-0.16-0.07-0.24-0.1c0.07,0.03,0.15,0.06,0.22,0.1c0.25,0.12,0.5,0.18,0.77,0.1c0.23-0.06,0.48-0.24,0.6-0.46
				c0.12-0.23,0.18-0.51,0.1-0.77c-0.08-0.23-0.23-0.49-0.46-0.6c-1.01-0.46-2.06-0.73-3.17-0.78c-0.52-0.02-1.02,0.48-1,1
				C218.86,102.35,219.27,102.77,219.83,102.79L219.83,102.79z"/>
		</g>
	</g>
	<g class="st2">
		<g>
			<path d="M226.21,103.02c0.61-0.03,1.23-0.04,1.84-0.01c0.29,0.01,0.59,0.03,0.88,0.06c0.15,0.01,0.29,0.03,0.44,0.04
				c0.09,0.01,0.17,0.02,0.26,0.03c0.27,0.03-0.15-0.02,0.06,0.01c0.28,0.04,0.52,0.05,0.77-0.1c0.21-0.12,0.41-0.36,0.46-0.6
				c0.06-0.26,0.05-0.54-0.1-0.77c-0.13-0.2-0.35-0.42-0.6-0.46c-1.34-0.19-2.67-0.27-4.02-0.2c-0.52,0.03-1.03,0.44-1,1
				C225.23,102.54,225.65,103.05,226.21,103.02L226.21,103.02z"/>
		</g>
	</g>
	<g class="st2">
		<g>
			<path d="M232.85,102.49c0.87-0.26,1.75-0.52,2.62-0.77c0.24-0.07,0.47-0.24,0.6-0.46c0.13-0.21,0.18-0.53,0.1-0.77
				c-0.16-0.51-0.69-0.86-1.23-0.7c-0.87,0.26-1.75,0.52-2.62,0.77c-0.24,0.07-0.47,0.24-0.6,0.46c-0.13,0.21-0.18,0.53-0.1,0.77
				C231.79,102.3,232.32,102.65,232.85,102.49L232.85,102.49z"/>
		</g>
	</g>
	<g class="st2">
		<g>
			<path d="M237.25,101.78c0.09,0.33,0.15,0.66,0.2,1c-0.01-0.09-0.02-0.18-0.04-0.27c0.09,0.72,0.09,1.45,0,2.17
				c0.01-0.09,0.02-0.18,0.04-0.27c-0.01,0.08-0.02,0.17-0.04,0.25c-0.05,0.27-0.04,0.52,0.1,0.77c0.12,0.21,0.36,0.41,0.6,0.46
				c0.48,0.11,1.14-0.15,1.23-0.7c0.22-1.32,0.18-2.65-0.16-3.95c-0.13-0.51-0.72-0.86-1.23-0.7
				C237.43,100.72,237.11,101.24,237.25,101.78L237.25,101.78z"/>
		</g>
	</g>
	<g class="st2">
		<g>
			<path d="M238,107.39c-0.1,1.16-0.04,2.31,0.14,3.47c0.04,0.23,0.27,0.48,0.46,0.6c0.21,0.13,0.53,0.18,0.77,0.1
				c0.24-0.08,0.48-0.23,0.6-0.46c0.13-0.25,0.14-0.49,0.1-0.77c-0.02-0.1-0.03-0.2-0.04-0.31c0.01,0.09,0.02,0.18,0.04,0.27
				c-0.13-0.96-0.14-1.93-0.06-2.89c0.02-0.24-0.13-0.54-0.29-0.71c-0.17-0.17-0.46-0.3-0.71-0.29c-0.26,0.01-0.53,0.1-0.71,0.29
				C238.1,106.88,238.02,107.11,238,107.39L238,107.39z"/>
		</g>
	</g>
	<g class="st2">
		<g>
			<path d="M238.56,113.39c-0.09,1.25-0.06,2.51,0.1,3.76c0.03,0.28,0.09,0.5,0.29,0.71c0.17,0.17,0.46,0.3,0.71,0.29
				c0.26-0.01,0.53-0.1,0.71-0.29c0.17-0.18,0.33-0.45,0.29-0.71c-0.16-1.25-0.19-2.51-0.1-3.76c0.04-0.52-0.49-1.02-1-1
				C238.99,112.42,238.6,112.83,238.56,113.39L238.56,113.39z"/>
		</g>
	</g>
	<g class="st2">
		<g>
			<path d="M238.75,120.15c-0.1,1.22-0.04,2.44,0.14,3.65c0.03,0.23,0.27,0.49,0.46,0.6c0.21,0.13,0.53,0.18,0.77,0.1
				c0.24-0.08,0.48-0.23,0.6-0.46c0.13-0.25,0.14-0.49,0.1-0.77c-0.01-0.06-0.02-0.13-0.03-0.19c0.01,0.09,0.02,0.18,0.04,0.27
				c-0.14-1.06-0.17-2.13-0.08-3.19c0.04-0.52-0.49-1.02-1-1C239.17,119.18,238.8,119.59,238.75,120.15L238.75,120.15z"/>
		</g>
	</g>
	<g class="st2">
		<g>
			<path d="M239.11,126.34c0,0.94,0,1.88,0,2.82c0,0.52,0.46,1.02,1,1c0.54-0.02,1-0.44,1-1c0-0.94,0-1.88,0-2.82
				c0-0.52-0.46-1.02-1-1C239.56,125.37,239.11,125.78,239.11,126.34L239.11,126.34z"/>
		</g>
	</g>
	<g class="st2">
		<g>
			<path d="M239.36,131.15c-0.07,0.41-0.12,0.83-0.09,1.25c0.03,0.42,0.1,0.85,0.23,1.25c0.08,0.25,0.23,0.47,0.46,0.6
				c0.21,0.13,0.53,0.18,0.77,0.1c0.24-0.08,0.48-0.23,0.6-0.46c0.12-0.23,0.18-0.51,0.1-0.77c-0.08-0.24-0.13-0.48-0.17-0.73
				c0.01,0.09,0.02,0.18,0.04,0.27c-0.05-0.35-0.05-0.71,0-1.06c-0.01,0.09-0.02,0.18-0.04,0.27c0.01-0.06,0.02-0.12,0.03-0.18
				c0.05-0.27,0.04-0.53-0.1-0.77c-0.12-0.21-0.36-0.41-0.6-0.46c-0.26-0.06-0.54-0.05-0.77,0.1
				C239.61,130.68,239.4,130.89,239.36,131.15L239.36,131.15z"/>
		</g>
	</g>
	<g class="st2">
		<g>
			<path d="M240.05,136.29c0,0.81,0,1.63,0,2.44c0,0.26,0.11,0.53,0.29,0.71c0.17,0.17,0.46,0.3,0.71,0.29c0.54-0.02,1-0.44,1-1
				c0-0.81,0-1.63,0-2.44c0-0.26-0.11-0.53-0.29-0.71c-0.17-0.17-0.46-0.3-0.71-0.29C240.5,135.31,240.05,135.73,240.05,136.29
				L240.05,136.29z"/>
		</g>
	</g>
	<g class="st2">
		<g>
			<path d="M240.57,142.11c0.07,0.69,0.14,1.37,0.21,2.06c-0.01,0.14,0.02,0.27,0.09,0.39c0.04,0.12,0.11,0.23,0.21,0.32
				c0.17,0.17,0.46,0.3,0.71,0.29c0.26-0.01,0.53-0.1,0.71-0.29c0.17-0.18,0.32-0.45,0.29-0.71c-0.07-0.69-0.14-1.37-0.21-2.06
				c0.01-0.14-0.02-0.27-0.09-0.39c-0.04-0.12-0.11-0.23-0.21-0.32c-0.17-0.17-0.46-0.3-0.71-0.29c-0.26,0.01-0.53,0.1-0.71,0.29
				C240.7,141.59,240.54,141.85,240.57,142.11L240.57,142.11z"/>
		</g>
	</g>
	<g class="st2">
		<g>
			<path d="M240.78,146.71c-0.2,1.02-0.27,2.06-0.16,3.09c0.03,0.27,0.09,0.51,0.29,0.71c0.17,0.17,0.46,0.3,0.71,0.29
				c0.26-0.01,0.53-0.1,0.71-0.29c0.17-0.18,0.32-0.45,0.29-0.71c-0.08-0.76-0.07-1.53,0.03-2.29c-0.01,0.09-0.02,0.18-0.04,0.27
				c0.03-0.18,0.05-0.36,0.09-0.54c0.05-0.27,0.04-0.53-0.1-0.77c-0.12-0.21-0.36-0.41-0.6-0.46
				C241.52,145.9,240.89,146.16,240.78,146.71L240.78,146.71z"/>
		</g>
	</g>
	<g class="st2">
		<g>
			<path d="M240.44,151.97c-0.13,0.32-0.19,0.66-0.23,1.01c-0.04,0.35,0,0.69,0.06,1.03c0.03,0.13,0.09,0.24,0.18,0.34
				c0.07,0.11,0.16,0.19,0.28,0.26c0.11,0.07,0.24,0.11,0.37,0.12c0.13,0.03,0.27,0.02,0.4-0.02c0.24-0.08,0.48-0.23,0.6-0.46
				c0.03-0.08,0.07-0.16,0.1-0.24c0.05-0.18,0.05-0.35,0-0.53c-0.01-0.04-0.01-0.07-0.02-0.11c0.01,0.09,0.02,0.18,0.04,0.27
				c-0.03-0.24-0.03-0.48,0-0.73c-0.01,0.09-0.02,0.18-0.04,0.27c0.03-0.23,0.09-0.46,0.18-0.67c0.04-0.13,0.05-0.27,0.02-0.4
				c-0.01-0.13-0.05-0.26-0.12-0.37c-0.12-0.21-0.36-0.41-0.6-0.46c-0.26-0.06-0.54-0.05-0.77,0.1c-0.07,0.05-0.13,0.1-0.2,0.16
				C240.58,151.66,240.49,151.8,240.44,151.97L240.44,151.97z"/>
		</g>
	</g>
	<g class="st2">
		<g>
			<path d="M240.01,156c-0.09,0.74-0.18,1.47-0.27,2.21c0.57-0.24,1.14-0.47,1.71-0.71c-0.08-0.1-0.16-0.21-0.25-0.31
				c-0.15-0.19-0.48-0.29-0.71-0.29c-0.25,0-0.54,0.11-0.71,0.29c-0.17,0.19-0.3,0.44-0.29,0.71c0.01,0.09,0.02,0.18,0.04,0.27
				c0.05,0.17,0.13,0.32,0.26,0.44c0.08,0.1,0.16,0.21,0.25,0.31c0.07,0.05,0.13,0.1,0.2,0.16c0.08,0.03,0.16,0.07,0.24,0.1
				c0.22,0.06,0.45,0.04,0.65-0.05c0.16-0.07,0.29-0.17,0.4-0.31c0.06-0.06,0.1-0.14,0.13-0.22c0.06-0.12,0.09-0.25,0.09-0.39
				c0.09-0.74,0.18-1.47,0.27-2.21c0.03-0.24-0.13-0.55-0.29-0.71c-0.17-0.17-0.46-0.3-0.71-0.29c-0.26,0.01-0.53,0.1-0.71,0.29
				c-0.05,0.07-0.1,0.13-0.16,0.2C240.06,155.65,240.01,155.82,240.01,156L240.01,156z"/>
		</g>
	</g>
	<g class="st2">
		<g>
			<path d="M239.66,160.51c0.05,0.49,0.05,0.98-0.02,1.47c0.01-0.09,0.02-0.18,0.04-0.27c-0.03,0.25-0.08,0.5-0.15,0.74
				c0.64,0,1.29,0,1.93,0c-0.07-0.17-0.13-0.35-0.2-0.52c-0.1-0.25-0.22-0.46-0.46-0.6c-0.21-0.13-0.53-0.18-0.77-0.1
				c-0.24,0.08-0.48,0.23-0.6,0.46c-0.12,0.22-0.2,0.52-0.1,0.77c0.07,0.17,0.13,0.35,0.2,0.52c0.03,0.08,0.07,0.16,0.1,0.24
				c0.06,0.12,0.15,0.21,0.26,0.28c0.17,0.13,0.39,0.22,0.61,0.21c0.44-0.02,0.85-0.3,0.96-0.73c0.21-0.8,0.29-1.65,0.2-2.47
				c-0.03-0.27-0.09-0.51-0.29-0.71c-0.17-0.17-0.46-0.3-0.71-0.29c-0.26,0.01-0.53,0.1-0.71,0.29
				C239.78,159.98,239.63,160.25,239.66,160.51L239.66,160.51z"/>
		</g>
	</g>
	<g class="st2">
		<g>
			<path d="M239.17,160.26c-0.84-0.08-1.69-0.02-2.52,0.15c-0.24,0.05-0.48,0.26-0.6,0.46c-0.13,0.21-0.18,0.53-0.1,0.77
				c0.08,0.24,0.23,0.48,0.46,0.6c0.25,0.13,0.5,0.16,0.77,0.1c0.16-0.03,0.31-0.06,0.47-0.08c-0.09,0.01-0.18,0.02-0.27,0.04
				c0.59-0.08,1.19-0.09,1.78-0.03c0.24,0.02,0.54-0.13,0.71-0.29c0.17-0.17,0.3-0.46,0.29-0.71c-0.01-0.26-0.1-0.53-0.29-0.71
				c-0.07-0.05-0.13-0.1-0.2-0.16C239.52,160.3,239.35,160.26,239.17,160.26L239.17,160.26z"/>
		</g>
	</g>
	<g class="st2">
		<g>
			<path d="M234.94,160.33c-0.48-0.44-1.07-0.5-1.69-0.4c-0.42,0.06-0.79,0.24-1.17,0.41c0.08-0.03,0.16-0.07,0.24-0.1
				c-0.22,0.09-0.44,0.16-0.68,0.19c0.09-0.01,0.18-0.02,0.27-0.04c-0.13,0.02-0.26,0.02-0.39,0.01c0.09,0.01,0.18,0.02,0.27,0.04
				c-0.07-0.01-0.13-0.03-0.19-0.05c0.08,0.03,0.16,0.07,0.24,0.1c-0.04-0.02-0.07-0.04-0.1-0.06c0.07,0.05,0.13,0.1,0.2,0.16
				c-0.02-0.02-0.04-0.04-0.06-0.06c-0.16-0.19-0.47-0.29-0.71-0.29c-0.25,0-0.54,0.11-0.71,0.29c-0.17,0.19-0.3,0.44-0.29,0.71
				c0.01,0.28,0.11,0.49,0.29,0.71c0.34,0.41,0.95,0.52,1.45,0.46c0.26-0.03,0.51-0.07,0.76-0.15c0.23-0.08,0.45-0.19,0.67-0.28
				c-0.08,0.03-0.16,0.07-0.24,0.1c0.23-0.09,0.46-0.17,0.7-0.2c-0.09,0.01-0.18,0.02-0.27,0.04c0.12-0.01,0.24-0.02,0.36,0
				c-0.09-0.01-0.18-0.02-0.27-0.04c0.06,0.01,0.12,0.02,0.17,0.04c-0.08-0.03-0.16-0.07-0.24-0.1c0.04,0.02,0.08,0.04,0.12,0.06
				c-0.07-0.05-0.13-0.1-0.2-0.16c0.02,0.01,0.03,0.03,0.05,0.04c0.38,0.36,1.04,0.41,1.41,0
				C235.3,161.36,235.35,160.71,234.94,160.33L234.94,160.33z"/>
		</g>
	</g>
	<g class="st2">
		<g>
			<path d="M228.06,160.03c-0.78,0.1-1.56,0.19-2.35,0.29c-0.14-0.01-0.27,0.02-0.39,0.09c-0.12,0.04-0.23,0.11-0.32,0.21
				c-0.17,0.17-0.3,0.46-0.29,0.71c0.01,0.26,0.1,0.53,0.29,0.71c0.18,0.17,0.45,0.32,0.71,0.29c0.78-0.1,1.56-0.19,2.35-0.29
				c0.14,0.01,0.27-0.02,0.39-0.09c0.12-0.04,0.23-0.11,0.32-0.21c0.17-0.17,0.3-0.46,0.29-0.71c-0.01-0.26-0.1-0.53-0.29-0.71
				C228.59,160.15,228.32,160,228.06,160.03L228.06,160.03z"/>
		</g>
	</g>
	<g class="st2">
		<g>
			<path d="M223.13,160c-0.3-0.14-0.6-0.25-0.92-0.3c-0.2-0.03-0.4-0.06-0.6-0.06c-0.2,0-0.4,0.03-0.6,0.06
				c-0.65,0.1-1.24,0.41-1.73,0.83c-0.19,0.16-0.29,0.47-0.29,0.71c0,0.25,0.11,0.54,0.29,0.71c0.19,0.17,0.44,0.3,0.71,0.29
				c0.28-0.01,0.5-0.11,0.71-0.29c0.04-0.03,0.08-0.07,0.12-0.1c-0.07,0.05-0.13,0.1-0.2,0.16c0.16-0.12,0.33-0.22,0.51-0.3
				c-0.08,0.03-0.16,0.07-0.24,0.1c0.21-0.09,0.43-0.15,0.65-0.18c-0.09,0.01-0.18,0.02-0.27,0.04c0.22-0.03,0.45-0.03,0.67,0
				c-0.09-0.01-0.18-0.02-0.27-0.04c0.21,0.03,0.42,0.08,0.61,0.16c-0.08-0.03-0.16-0.07-0.24-0.1c0.02,0.01,0.05,0.02,0.07,0.03
				c0.25,0.11,0.49,0.18,0.77,0.1c0.23-0.06,0.48-0.24,0.6-0.46c0.12-0.23,0.18-0.51,0.1-0.77
				C223.52,160.36,223.36,160.1,223.13,160L223.13,160z"/>
		</g>
	</g>
	<g class="st2">
		<g>
			<path d="M217.32,159.49c-0.92,0.13-1.84,0.27-2.76,0.4c0.09-0.01,0.18-0.02,0.27-0.04c-0.13,0.02-0.25,0.02-0.39,0.01
				c0.09,0.01,0.18,0.02,0.27,0.04c-0.04-0.01-0.07-0.01-0.11-0.03c0.08,0.02,0.15,0.06,0.21,0.11c0.07,0.05,0.13,0.11,0.17,0.19
				c-0.05-0.09-0.03-0.04,0.06,0.14c0.01,0.09,0.02,0.18,0.04,0.27c0-0.02,0-0.04,0-0.06c-0.01,0.09-0.02,0.18-0.04,0.27
				c-0.13,0.17-0.25,0.34-0.38,0.51c0.47-0.24,0.64-0.93,0.36-1.37c-0.31-0.47-0.87-0.62-1.37-0.36c-0.73,0.38-0.73,1.41-0.15,1.92
				c0.3,0.26,0.64,0.37,1.03,0.39c0.25,0.02,0.51-0.04,0.76-0.08c0.86-0.12,1.71-0.25,2.57-0.37c0.23-0.03,0.49-0.27,0.6-0.46
				c0.13-0.21,0.18-0.53,0.1-0.77c-0.08-0.24-0.23-0.48-0.46-0.6C217.84,159.45,217.6,159.45,217.32,159.49L217.32,159.49z"/>
		</g>
	</g>
	<g class="st2">
		<g>
			<path d="M215.22,158.75c-0.24-0.79-0.41-1.59-0.52-2.41c0.01,0.09,0.02,0.18,0.04,0.27c0-0.02,0-0.03-0.01-0.05
				c0.01-0.14-0.02-0.27-0.09-0.39c-0.04-0.12-0.11-0.23-0.21-0.32c-0.17-0.17-0.46-0.3-0.71-0.29c-0.26,0.01-0.53,0.1-0.71,0.29
				c-0.17,0.18-0.33,0.45-0.29,0.71c0.12,0.92,0.3,1.83,0.56,2.72c0.07,0.24,0.24,0.47,0.46,0.6c0.21,0.13,0.53,0.18,0.77,0.1
				C215.03,159.82,215.38,159.29,215.22,158.75L215.22,158.75z"/>
		</g>
	</g>
	<g class="st2">
		<g>
			<path d="M214.78,154.23c-0.05-0.23-0.09-0.46-0.12-0.7c0.01,0.09,0.02,0.18,0.04,0.27c-0.09-0.7-0.11-1.41-0.05-2.12
				c0.02-0.24-0.13-0.54-0.29-0.71c-0.17-0.17-0.46-0.3-0.71-0.29c-0.26,0.01-0.53,0.1-0.71,0.29c-0.19,0.2-0.27,0.43-0.29,0.71
				c-0.08,1.03,0,2.07,0.21,3.08c0.11,0.51,0.74,0.86,1.23,0.7C214.63,155.29,214.9,154.78,214.78,154.23L214.78,154.23z"/>
		</g>
	</g>
	<g class="st2">
		<g>
			<path d="M214.45,149.62c0-0.88,0-1.75,0-2.63c0-0.52-0.46-1.02-1-1c-0.54,0.02-1,0.44-1,1c0,0.88,0,1.75,0,2.63
				c0,0.52,0.46,1.02,1,1C213.99,150.59,214.45,150.18,214.45,149.62L214.45,149.62z"/>
		</g>
	</g>
	<g class="st2">
		<g>
			<path d="M214.22,142.79c-0.08-0.25-0.13-0.5-0.17-0.76c0.01,0.09,0.02,0.18,0.04,0.27c-0.06-0.45-0.06-0.9,0-1.35
				c-0.01,0.09-0.02,0.18-0.04,0.27c0.03-0.24,0.08-0.48,0.15-0.71c0.14-0.5-0.17-1.11-0.7-1.23c-0.53-0.12-1.08,0.16-1.23,0.7
				c-0.31,1.09-0.3,2.28,0.02,3.36c0.15,0.5,0.71,0.87,1.23,0.7C214.02,143.85,214.38,143.32,214.22,142.79L214.22,142.79z"/>
		</g>
	</g>
	<g class="st2">
		<g>
			<path d="M214.4,137.16c-0.07-0.25-0.13-0.49-0.16-0.75c0.01,0.09,0.02,0.18,0.04,0.27c-0.06-0.42-0.06-0.85,0-1.28
				c-0.01,0.09-0.02,0.18-0.04,0.27c0.04-0.27,0.1-0.54,0.18-0.8c0.16-0.5-0.18-1.11-0.7-1.23c-0.54-0.12-1.06,0.16-1.23,0.7
				c-0.34,1.08-0.34,2.27-0.01,3.35c0.15,0.5,0.71,0.87,1.23,0.7C214.21,138.22,214.56,137.69,214.4,137.16L214.4,137.16z"/>
		</g>
	</g>
	<g class="st2">
		<g>
			<path d="M214.45,131.41c0-0.75,0-1.5,0-2.25c0-0.26-0.11-0.53-0.29-0.71c-0.17-0.17-0.46-0.3-0.71-0.29c-0.54,0.02-1,0.44-1,1
				c0,0.75,0,1.5,0,2.25c0,0.26,0.11,0.53,0.29,0.71c0.17,0.17,0.46,0.3,0.71,0.29C213.99,132.39,214.45,131.97,214.45,131.41
				L214.45,131.41z"/>
		</g>
	</g>
	<g class="st2">
		<g>
			<path d="M214.05,127.09c0.08-0.75,0.16-1.5,0.23-2.25c0.02-0.24-0.13-0.54-0.29-0.71c-0.17-0.17-0.46-0.3-0.71-0.29
				c-0.26,0.01-0.53,0.1-0.71,0.29c-0.05,0.07-0.1,0.13-0.16,0.2c-0.09,0.16-0.14,0.32-0.14,0.5c-0.08,0.75-0.16,1.5-0.23,2.25
				c-0.02,0.24,0.13,0.54,0.29,0.71c0.17,0.17,0.46,0.3,0.71,0.29c0.26-0.01,0.53-0.1,0.71-0.29c0.05-0.07,0.1-0.13,0.16-0.2
				C214,127.44,214.05,127.27,214.05,127.09L214.05,127.09z"/>
		</g>
	</g>
	<g class="st2">
		<g>
			<path d="M214.45,120.9c0.07-1.03-0.03-2.07-0.25-3.08c-0.11-0.51-0.74-0.86-1.23-0.7c-0.54,0.17-0.82,0.68-0.7,1.23
				c0.06,0.27,0.11,0.53,0.14,0.8c-0.01-0.09-0.02-0.18-0.04-0.27c0.09,0.67,0.11,1.34,0.07,2.01c-0.03,0.52,0.48,1.02,1,1
				C214.02,121.87,214.41,121.46,214.45,120.9L214.45,120.9z"/>
		</g>
	</g>
	<g class="st2">
		<g>
			<path d="M213.66,114.82c-0.05-0.23-0.09-0.47-0.12-0.7c0.01,0.09,0.02,0.18,0.04,0.27c-0.08-0.64-0.1-1.29-0.05-1.93
				c0.02-0.24-0.13-0.54-0.29-0.71c-0.17-0.17-0.46-0.3-0.71-0.29c-0.26,0.01-0.53,0.1-0.71,0.29c-0.19,0.2-0.27,0.43-0.29,0.71
				c-0.08,0.97,0,1.95,0.21,2.9c0.11,0.51,0.74,0.86,1.23,0.7C213.5,115.87,213.77,115.36,213.66,114.82L213.66,114.82z"/>
		</g>
	</g>
	<g class="st2">
		<g>
			<path d="M213.33,109.07c0-0.63,0-1.25,0-1.88c0-0.26-0.11-0.53-0.29-0.71c-0.17-0.17-0.46-0.3-0.71-0.29
				c-0.26,0.01-0.53,0.1-0.71,0.29c-0.18,0.2-0.29,0.44-0.29,0.71c0,0.63,0,1.25,0,1.88c0,0.26,0.11,0.53,0.29,0.71
				c0.17,0.17,0.46,0.3,0.71,0.29c0.26-0.01,0.53-0.1,0.71-0.29C213.21,109.58,213.33,109.34,213.33,109.07L213.33,109.07z"/>
		</g>
	</g>
	<g class="st2">
		<g>
			<path d="M213.51,104.94c0-0.44,0-0.88,0-1.31c0-0.26-0.11-0.53-0.29-0.71c-0.09-0.1-0.2-0.17-0.32-0.21
				c-0.12-0.06-0.25-0.09-0.39-0.09c-0.26,0.01-0.53,0.1-0.71,0.29c-0.18,0.2-0.29,0.44-0.29,0.71c0,0.44,0,0.88,0,1.31
				c0,0.26,0.11,0.53,0.29,0.71c0.09,0.1,0.2,0.17,0.32,0.21c0.12,0.06,0.25,0.09,0.39,0.09c0.26-0.01,0.53-0.1,0.71-0.29
				C213.4,105.45,213.51,105.21,213.51,104.94L213.51,104.94z"/>
		</g>
	</g>
</g>
<g>
	<g>
		<g>
			<path d="M212.38,96.75c0.46,0.13,0.72,0.57,0.8,1.02c0.11,0.66-0.15,1.34-0.39,1.95c-0.2,0.52-0.44,1.08-0.87,1.45
				c-0.35,0.3-0.94,0.49-1.33,0.16c-0.37-0.32-0.47-0.91-0.46-1.38c0.02-0.49,0.19-0.98,0.48-1.37c0.29-0.38,0.73-0.67,1.22-0.7
				c0.6-0.03,0.83,0.44,0.96,0.95c0.28,1.06,0.06,2.39-0.69,3.22c-0.39,0.43-0.67,0.22-0.86-0.24c-0.21-0.5-0.36-1.18-0.28-1.71
				c0.06-0.4,0.35-0.92,0.83-0.82c0.47,0.1,0.77,0.64,0.77,1.08c0.01,0.64-0.33,1.24-0.65,1.78c-0.09,0.15-0.22,0.45-0.39,0.53
				c-0.18,0.09-0.26-0.2-0.33-0.35c-0.5-1.11-0.63-2.79,0.6-3.49c0.05-0.03,0.26-0.15,0.31-0.13c0.04,0.02,0.06,0.24,0.07,0.3
				c0.03,0.29,0.01,0.6-0.07,0.88c-0.15,0.57-0.49,1.09-0.97,1.44c0.24,0.1,0.49,0.2,0.73,0.3c-0.4-1.04-0.36-2.17,0.18-3.15
				c-0.23,0.06-0.46,0.12-0.68,0.18c0.58,0.44,0.23,1.34-0.45,1.37c0.12,0.05,0.24,0.1,0.35,0.15c-0.57-0.73-0.28-1.93,0.49-2.38
				c-0.2-0.03-0.4-0.05-0.61-0.08c0.28,0.33,0.21,0.84-0.09,1.13c0.12-0.05,0.24-0.1,0.35-0.15c-0.07-0.01-0.13-0.05-0.16-0.11
				c-0.02,0.13-0.03,0.26-0.05,0.39c0.06-0.13,0.02-0.05,0.01-0.05c0.02,0,0.07-0.03,0.1-0.02c0.09,0.01,0.15,0.02,0.22,0.09
				c0.22,0.21,0.17,0.64,0.16,0.91c0.21-0.16,0.42-0.32,0.63-0.48c-0.07-0.02-0.06,0-0.08-0.07c-0.17-0.62-1.14-0.36-0.96,0.27
				c0.11,0.39,0.39,0.67,0.78,0.76c0.33,0.08,0.61-0.15,0.63-0.48c0.05-0.75-0.14-1.64-0.93-1.92c-0.6-0.21-1.73,0.15-1.44,0.97
				c0.13,0.37,0.48,0.65,0.86,0.73c0.45,0.1,0.74-0.22,0.93-0.59c0.35-0.69,0.22-1.49-0.26-2.08c-0.14-0.17-0.43-0.18-0.61-0.08
				c-1.26,0.74-1.7,2.58-0.83,3.79c0.58,0.8,1.78-0.07,2.08-0.73c0.36-0.8,0.04-1.68-0.64-2.19c-0.21-0.16-0.57-0.04-0.68,0.18
				c-0.65,1.2-0.77,2.64-0.28,3.92c0.11,0.27,0.45,0.5,0.73,0.3c0.7-0.49,1.21-1.2,1.43-2.03c0.19-0.71,0.27-1.96-0.53-2.35
				c-0.81-0.39-1.74,0.41-2.17,1.03c-0.5,0.73-0.63,1.65-0.5,2.51c0.07,0.49,0.23,0.97,0.43,1.42c0.17,0.38,0.41,0.76,0.83,0.9
				c0.94,0.3,1.52-0.78,1.88-1.45c0.44-0.82,0.75-1.81,0.36-2.71c-0.31-0.71-1.02-1.3-1.82-1.24c-2.02,0.16-1.83,3.07-1.04,4.31
				c0.47,0.73,1.34,0.96,2.05,0.4c0.67-0.53,1.08-1.46,1.24-2.28c0.31-1.59-0.17-4.15-2.3-3.79c-1.68,0.28-2.6,2.13-2.33,3.71
				c0.16,0.95,0.8,1.83,1.83,1.87c0.99,0.04,1.8-0.65,2.27-1.47c0.52-0.92,1-2.13,0.9-3.2c-0.08-0.91-0.63-1.78-1.54-2.04
				C212.03,95.61,211.76,96.58,212.38,96.75L212.38,96.75z"/>
		</g>
	</g>
	<g>
		<g>
			<g>
				<path d="M184.38,81.88c-3.04,2.62-5.23,6.25-5.77,10.27c-0.13,0.99-0.26,2.08,0.08,3.04c0.29,0.83,0.91,1.47,1.59,1.99
					c0.41,0.32,0.85,0.61,1.3,0.88c0.35,0.21,0.73,0.45,1.16,0.4c0.76-0.1,1.04-0.99,0.41-1.44c-0.53-0.37-1.03,0.49-0.5,0.86
					c0.03,0.02,0.06,0.04,0.09,0.07c-0.08-0.1-0.15-0.2-0.23-0.3c-0.15-0.39-0.58-0.54-0.92-0.77c-0.29-0.19-0.58-0.39-0.85-0.61
					c-0.56-0.47-1.05-1.03-1.2-1.77c-0.28-1.43,0.15-3.14,0.57-4.51c0.9-2.9,2.69-5.44,4.98-7.41
					C185.57,82.16,184.86,81.46,184.38,81.88L184.38,81.88z"/>
			</g>
		</g>
		<g>
			<g>
				<path d="M183.47,86.36c1.51,2.99,3.43,5.75,5.7,8.21c0.44,0.47,1.14-0.23,0.71-0.71c-2.21-2.4-4.07-5.1-5.54-8.01
					C184.05,85.28,183.18,85.79,183.47,86.36L183.47,86.36z"/>
			</g>
		</g>
		<g>
			<g>
				<path d="M188.84,86.41c-1.73,2.47-3.29,5.05-4.66,7.73c-0.15,0.29-0.02,0.64,0.3,0.73c0.48,0.15,1.01,0.01,1.33-0.39
					c0.4-0.5-0.31-1.21-0.71-0.71c-0.11,0.14-0.19,0.18-0.36,0.13c0.1,0.24,0.2,0.49,0.3,0.73c1.37-2.68,2.93-5.27,4.66-7.73
					C190.08,86.39,189.21,85.89,188.84,86.41L188.84,86.41z"/>
			</g>
		</g>
		<g>
			<g>
				<path d="M191,92.69c-0.48,1.66-1.15,3.26-2.01,4.76c-0.32,0.56,0.55,1.06,0.86,0.5c0.9-1.58,1.6-3.26,2.11-5
					C192.14,92.34,191.18,92.08,191,92.69L191,92.69z"/>
			</g>
		</g>
		<g>
			<g>
				<path d="M194.85,94.7c-0.07-1.98-0.14-3.95-0.21-5.93c-0.03-0.79-0.14-1.76,0.72-2.15c0.69-0.31,1.42,0.15,1.6,0.85
					c0.16,0.62,1.12,0.36,0.96-0.27c-0.23-0.91-1.02-1.61-1.97-1.68c-0.99-0.07-1.93,0.62-2.22,1.55c-0.17,0.54-0.12,1.13-0.1,1.69
					c0.02,0.68,0.05,1.35,0.07,2.03c0.05,1.3,0.09,2.6,0.14,3.89C193.87,95.35,194.87,95.35,194.85,94.7L194.85,94.7z"/>
			</g>
		</g>
		<g>
			<g>
				<path d="M192.42,90.85c1.43-0.19,2.88-0.23,4.32-0.14c0.27,0.02,0.5-0.24,0.5-0.5c0-0.29-0.23-0.48-0.5-0.5
					c-1.44-0.09-2.89-0.05-4.32,0.14c-0.27,0.03-0.5,0.2-0.5,0.5C191.92,90.6,192.15,90.89,192.42,90.85L192.42,90.85z"/>
			</g>
		</g>
		<g>
			<g>
				<path d="M199.61,86.26c-1,1.68-1.58,3.6-1.66,5.56c-0.03,0.84-0.07,1.84,0.48,2.54c0.5,0.63,1.48,0.81,2.07,0.2
					c0.45-0.46-0.26-1.17-0.71-0.71c-0.44,0.45-0.79-0.53-0.82-0.81c-0.09-0.71-0.03-1.46,0.06-2.16c0.19-1.45,0.69-2.85,1.44-4.11
					C200.8,86.21,199.94,85.7,199.61,86.26L199.61,86.26z"/>
			</g>
		</g>
		<g>
			<g>
				<path d="M200.84,88.18c0.81,1.29,1.62,2.59,2.43,3.88c0.19,0.31,0.39,0.62,0.58,0.92c0.18,0.28,0.34,0.68,0.64,0.85
					c0.33,0.19,0.77,0.05,0.87-0.33c0.09-0.34-0.16-0.77-0.54-0.73c-0.27,0.03-0.5,0.21-0.5,0.5c0,0.25,0.23,0.53,0.5,0.5
					c0.01,0,0.02,0,0.03,0c-0.12-0.05-0.24-0.1-0.35-0.15c0.01,0.01,0.01,0.01,0.02,0.02c-0.04-0.07-0.09-0.15-0.13-0.22
					c0-0.02-0.01-0.04-0.01-0.06c0.02-0.08,0.05-0.17,0.07-0.25c-0.01,0.01-0.01,0.02-0.02,0.03c0.06-0.06,0.12-0.12,0.18-0.18
					c-0.01,0.01-0.02,0.01-0.03,0.02c0.08-0.02,0.17-0.05,0.25-0.07c-0.02,0-0.04,0-0.06-0.01c0.08,0.02,0.17,0.05,0.25,0.07
					c0.06,0.07,0.06,0.05-0.02-0.05c-0.04-0.06-0.08-0.12-0.12-0.18c-0.08-0.12-0.15-0.25-0.23-0.37c-0.14-0.22-0.27-0.43-0.41-0.65
					c-0.28-0.45-0.56-0.89-0.84-1.34c-0.57-0.91-1.14-1.82-1.71-2.73C201.36,87.14,200.5,87.64,200.84,88.18L200.84,88.18z"/>
			</g>
		</g>
		<g>
			<g>
				<path d="M203.64,88.08c-1.12,1.69-2.1,3.47-2.93,5.33c-0.2,0.44,0.22,0.94,0.68,0.68c0.16-0.09,0.32-0.18,0.48-0.27
					c0.56-0.31,0.06-1.17-0.5-0.86c-0.16,0.09-0.32,0.18-0.48,0.27c0.23,0.23,0.46,0.46,0.68,0.68c0.83-1.85,1.81-3.64,2.93-5.33
					C204.86,88.04,203.99,87.54,203.64,88.08L203.64,88.08z"/>
			</g>
		</g>
		<g>
			<g>
				<path d="M204.21,86.54c0.94,2.43,2.04,5.34,0.58,7.8c-0.33,0.56,0.54,1.06,0.86,0.5c1.61-2.72,0.56-5.87-0.48-8.57
					C204.94,85.68,203.97,85.94,204.21,86.54L204.21,86.54z"/>
			</g>
		</g>
		<g>
			<g>
				<path d="M206.53,83.34c1.75,1.97,2.53,4.47,2.59,7.08c0.03,1.29-0.04,2.61-0.43,3.85c-0.43,1.34-1.31,2.44-2.43,3.28
					c-0.51,0.38-0.01,1.25,0.5,0.86c1.15-0.86,2.11-1.92,2.66-3.27c0.59-1.42,0.71-3,0.7-4.53c-0.03-2.94-0.91-5.76-2.89-7.98
					C206.81,82.15,206.1,82.86,206.53,83.34L206.53,83.34z"/>
			</g>
		</g>
	</g>
</g>
<g class="st1">
	<g class="st2">
		<g>
			<path d="M252.41,122.63c0.87-4.43,2.17-8.78,3.89-12.96c0.13-0.31,0.36-1.32,0.76-1.42c0.53-0.14,0.72,0.72,0.78,1.06
				c0.22,1.09,0.39,2.2,0.56,3.3c0.37,2.36,0.67,4.73,0.91,7.1c0.06,0.63,1.07,0.64,1,0c-0.21-2.1-0.47-4.2-0.78-6.29
				c-0.16-1.08-0.33-2.16-0.52-3.24c-0.14-0.8-0.18-1.81-0.78-2.43c-0.45-0.47-1.19-0.68-1.77-0.32c-0.66,0.41-0.9,1.41-1.17,2.08
				c-0.79,1.93-1.49,3.89-2.1,5.89c-0.7,2.29-1.28,4.61-1.74,6.96C251.33,122.99,252.29,123.26,252.41,122.63L252.41,122.63z"/>
		</g>
	</g>
	<g class="st2">
		<g>
			<path d="M254.61,116.01c1.71-0.31,3.47-0.19,5.13,0.3c0.62,0.18,0.88-0.78,0.27-0.96c-1.84-0.55-3.77-0.64-5.66-0.3
				c-0.27,0.05-0.42,0.37-0.35,0.62C254.07,115.94,254.35,116.06,254.61,116.01L254.61,116.01z"/>
		</g>
	</g>
	<g class="st2">
		<g>
			<path d="M266.85,109.15c-2.04,2.82-3.49,6.16-3.88,9.64c-0.14,1.31-0.03,2.76,0.74,3.88c0.56,0.81,2.15,2.12,3.07,1.05
				c0.42-0.49-0.29-1.2-0.71-0.71c-0.34,0.39-1.18-0.45-1.38-0.69c-0.35-0.42-0.55-0.92-0.67-1.45c-0.25-1.15-0.06-2.38,0.18-3.52
				c0.59-2.8,1.82-5.39,3.5-7.7C268.09,109.13,267.22,108.63,266.85,109.15L266.85,109.15z"/>
		</g>
	</g>
	<g class="st2">
		<g>
			<path d="M268.93,113.04c1.17,2.98,2.58,5.85,4.22,8.6c0.33,0.55,1.19,0.05,0.86-0.5c-1.6-2.67-2.98-5.46-4.12-8.36
				C269.66,112.19,268.69,112.44,268.93,113.04L268.93,113.04z"/>
		</g>
	</g>
	<g class="st2">
		<g>
			<path d="M273.49,113.25c-1.92,2.87-3.96,5.65-6.11,8.35c-0.1,0.13-0.2,0.31-0.13,0.49c0.18,0.44,0.44,0.71,0.89,0.88
				c0.6,0.23,0.86-0.74,0.27-0.96c-0.09-0.03-0.15-0.09-0.19-0.18c-0.04,0.16-0.09,0.32-0.13,0.49c2.21-2.76,4.3-5.61,6.27-8.55
				C274.71,113.22,273.85,112.72,273.49,113.25L273.49,113.25z"/>
		</g>
	</g>
	<g class="st2">
		<g>
			<path d="M276.15,115.8c1.13,0,2.25,0,3.38,0c0.27,0,0.5-0.23,0.5-0.5c0-0.27-0.23-0.5-0.5-0.5c-1.13,0-2.25,0-3.38,0
				c-0.27,0-0.5,0.23-0.5,0.5C275.65,115.57,275.88,115.8,276.15,115.8L276.15,115.8z"/>
		</g>
	</g>
	<g class="st2">
		<g>
			<path d="M277.62,113.2c0,1.6,0,3.19,0,4.79c0,0.64,1,0.64,1,0c0-1.6,0-3.19,0-4.79C278.62,112.56,277.62,112.56,277.62,113.2
				L277.62,113.2z"/>
		</g>
	</g>
	<g class="st2">
		<g>
			<path d="M281.71,111.51c-0.01,2.75-0.01,5.5-0.02,8.25c0,0.51,0.67,0.66,0.93,0.25c0.27-0.42,0.55-0.84,0.82-1.25
				c0.1-0.16,0.24-0.49,0.4-0.6c0.05-0.12,0.11-0.14,0.16-0.04c0.04,0.1,0.07,0.2,0.1,0.31c0.26,0.93,0.24,1.91,0.01,2.84
				c-0.16,0.62,0.81,0.89,0.96,0.27c0.19-0.78,0.26-1.58,0.17-2.38c-0.07-0.59-0.16-1.41-0.61-1.85c-0.46-0.45-1.1-0.28-1.5,0.16
				c-0.54,0.59-0.93,1.38-1.37,2.05c0.31,0.08,0.62,0.17,0.93,0.25c0.01-2.75,0.01-5.5,0.02-8.25
				C282.72,110.87,281.72,110.87,281.71,111.51L281.71,111.51z"/>
		</g>
	</g>
	<g class="st2">
		<g>
			<path d="M285.67,109.34c1.16,2.44,1.55,5.16,1.72,7.83c0.08,1.31,0.16,2.64,0.13,3.96c-0.01,0.68-0.07,1.4-0.38,2.01
				c-0.26,0.51-0.79,1.11-1.42,1.01c-0.63-0.09-0.9,0.87-0.27,0.96c1.36,0.2,2.38-0.83,2.79-2.05c0.5-1.5,0.27-3.25,0.21-4.8
				c-0.14-3.23-0.51-6.49-1.92-9.44C286.25,108.25,285.39,108.76,285.67,109.34L285.67,109.34z"/>
		</g>
	</g>
	<g class="st2">
		<g>
			<path d="M293.04,116.52c1.13,0,2.25,0,3.38,0c0.27,0,0.5-0.23,0.5-0.5c0-0.27-0.23-0.5-0.5-0.5c-1.13,0-2.25,0-3.38,0
				c-0.27,0-0.5,0.23-0.5,0.5C292.54,116.29,292.77,116.52,293.04,116.52L293.04,116.52z"/>
		</g>
	</g>
	<g class="st2">
		<g>
			<path d="M299.5,120.95c1.01-4.01,2.52-7.86,4.51-11.48c-0.23,0.06-0.46,0.12-0.68,0.18c0.65,0.33,0.8,1.09,0.93,1.76
				c0.2,1.03,0.35,2.07,0.47,3.11c0.22,1.99,0.3,3.99,0.25,5.99c-0.02,0.64,0.98,0.64,1,0c0.05-2.3-0.06-4.61-0.36-6.89
				c-0.13-1-0.25-2.04-0.51-3.02c-0.2-0.75-0.56-1.45-1.27-1.82c-0.24-0.12-0.55-0.07-0.68,0.18c-2.03,3.7-3.58,7.64-4.61,11.72
				C298.38,121.31,299.34,121.58,299.5,120.95L299.5,120.95z"/>
		</g>
	</g>
	<g class="st2">
		<g>
			<path d="M301.37,115.3c1.44,0.27,2.9,0.36,4.36,0.25c0.27-0.02,0.5-0.22,0.5-0.5c0-0.26-0.23-0.52-0.5-0.5
				c-1.37,0.1-2.74,0.04-4.09-0.21c-0.27-0.05-0.54,0.07-0.62,0.35C300.95,114.93,301.1,115.25,301.37,115.3L301.37,115.3z"/>
		</g>
	</g>
	<g class="st2">
		<g>
			<path d="M310.4,109.59c-1.11,2.37-1.8,4.9-2,7.52c-0.09,1.17-0.11,2.43,0.44,3.49c0.48,0.92,1.37,1.56,2.41,1.61
				c0.64,0.03,0.64-0.97,0-1c-2.3-0.12-1.96-3.44-1.77-4.97c0.25-2.13,0.87-4.21,1.78-6.15
				C311.54,109.52,310.68,109.01,310.4,109.59L310.4,109.59z"/>
		</g>
	</g>
	<g class="st2">
		<g>
			<path d="M313.36,112.58c1.2,1.89,2.4,3.78,3.6,5.67c0.34,0.54,1.21,0.04,0.86-0.5c-1.2-1.89-2.4-3.78-3.6-5.67
				C313.88,111.54,313.02,112.04,313.36,112.58L313.36,112.58z"/>
		</g>
	</g>
	<g class="st2">
		<g>
			<path d="M316.36,111.1c-0.64,1.52-1.28,3.05-2.03,4.52c-0.36,0.72-0.75,1.42-1.17,2.1c-0.21,0.33-0.42,0.66-0.65,0.98
				c-0.22,0.32-0.48,0.56-0.39,0.98c0.04,0.17,0.19,0.31,0.35,0.35c0.01,0,0.01,0,0.02,0c0.17,0.04,0.36,0,0.49-0.13
				c0.12-0.12,0.17-0.31,0.28-0.42c0.45-0.46-0.25-1.17-0.71-0.71c-0.08,0.08-0.14,0.17-0.2,0.26c-0.02,0.03-0.16,0.24-0.08,0.16
				c0.16-0.04,0.32-0.09,0.49-0.13c-0.01,0-0.01,0-0.02,0c0.12,0.12,0.23,0.23,0.35,0.35c0,0.19,0.04,0.2,0.12,0.03
				c0.06-0.08,0.11-0.16,0.17-0.24c0.11-0.16,0.22-0.32,0.33-0.49c0.21-0.32,0.42-0.66,0.62-0.99c0.39-0.67,0.76-1.36,1.1-2.06
				c0.69-1.41,1.29-2.86,1.9-4.3c0.11-0.25-0.11-0.55-0.35-0.62C316.69,110.67,316.47,110.85,316.36,111.1L316.36,111.1z"/>
		</g>
	</g>
	<g class="st2">
		<g>
			<path d="M318.55,109.43c0.95,1.68,1.81,3.48,2,5.42c0.18,1.88-0.23,3.76-1.14,5.4c0.31,0.08,0.62,0.17,0.93,0.25
				c-0.02-0.18-0.04-0.36-0.06-0.54c-0.07-0.63-1.07-0.64-1,0c0.02,0.18,0.04,0.36,0.06,0.54c0.05,0.46,0.67,0.72,0.93,0.25
				c1-1.79,1.47-3.86,1.28-5.91c-0.2-2.13-1.09-4.09-2.13-5.93C319.09,108.37,318.23,108.87,318.55,109.43L318.55,109.43z"/>
		</g>
	</g>
</g>
<g>
	<g>
		<g>
			<path d="M258.1,125.34c-1.25-4.78-1.45-9.91-0.36-14.74c0.39-1.73,1.14-4.02,3-4.68c1.32-0.48,3.48,0.14,3.49,1.8
				c0.01,0.64,1.01,0.64,1,0c-0.01-1.45-1.14-2.48-2.48-2.82c-1.52-0.38-3,0.13-4.05,1.28c-1.24,1.35-1.75,3.2-2.08,4.96
				c-0.42,2.22-0.61,4.48-0.57,6.74c0.05,2.61,0.43,5.21,1.09,7.73C257.29,126.23,258.26,125.97,258.1,125.34L258.1,125.34z"/>
		</g>
	</g>
	<g>
		<g>
			<path d="M254.73,113.69c3.35-0.3,6.72-0.08,10,0.66c0.63,0.14,0.89-0.82,0.27-0.96c-3.37-0.76-6.83-1-10.26-0.69
				C254.09,112.75,254.09,113.75,254.73,113.69L254.73,113.69z"/>
		</g>
	</g>
	<g>
		<g>
			<path d="M273.89,103.77c-1.88,3.36-3.29,6.97-4.15,10.72c-0.69,2.98-1.8,7.45,0.79,9.86c1.17,1.09,2.89,1.57,4.34,0.75
				c0.56-0.31,0.06-1.18-0.5-0.86c-1.59,0.89-3.45-0.44-4.04-1.95c-0.75-1.92-0.3-4.16,0.08-6.11c0.8-4.17,2.28-8.19,4.35-11.9
				C275.07,103.71,274.21,103.21,273.89,103.77L273.89,103.77z"/>
		</g>
	</g>
	<g>
		<g>
			<path d="M282.79,103.91c2.06,3.75,3.51,7.82,4.27,12.03c0.38,2.09,0.68,4.28,0.54,6.4c-0.13,1.96-0.96,4.15-2.92,4.94
				c-0.59,0.24-0.33,1.21,0.27,0.96c4.48-1.82,3.85-7.61,3.26-11.47c-0.71-4.68-2.27-9.22-4.55-13.37
				C283.35,102.85,282.48,103.35,282.79,103.91L282.79,103.91z"/>
		</g>
	</g>
	<g>
		<g>
			<path d="M291.07,114.41c0.04,0.06,0.07,0.12,0.1,0.18c0.02,0.04,0.04,0.07,0.06,0.11c0.01,0.01,0.05,0.12,0.02,0.05
				c-0.03-0.06,0.02,0.04,0.02,0.06c0.01,0.03,0.02,0.06,0.03,0.1c0.02,0.07,0.04,0.14,0.06,0.22c0.01,0.03,0.01,0.07,0.02,0.1
				c0.01,0.05,0.02,0.08,0,0.01c0.02,0.06,0.01,0.14,0.02,0.2c0,0.08,0,0.15,0,0.23c0,0.03-0.01,0.07-0.01,0.1
				c-0.01,0.11,0.02-0.09,0,0.03c0.12-0.12,0.23-0.23,0.35-0.35c-0.04,0.01-0.07,0.03-0.11,0.04c-0.02,0.01-0.14,0.03-0.04,0.01
				c0.1-0.01-0.03,0-0.05,0c-0.02,0-0.03,0-0.05,0c-0.08,0,0.13,0.03,0.04,0c-0.03-0.01-0.06-0.01-0.09-0.02
				c-0.01,0-0.03-0.01-0.04-0.02c-0.07-0.02,0.05,0.02,0.05,0.02c-0.01-0.02-0.17-0.1-0.19-0.11c0.09,0.03,0.08,0.06,0.03,0.02
				c-0.01-0.01-0.03-0.02-0.04-0.03c-0.03-0.03-0.05-0.05-0.08-0.08c-0.02-0.02-0.04-0.05-0.07-0.08c0,0,0.07,0.1,0.03,0.04
				c-0.01-0.02-0.03-0.04-0.04-0.06c-0.04-0.06-0.07-0.12-0.1-0.18c-0.04-0.08,0.04,0.1,0.01,0.04c-0.01-0.02-0.01-0.03-0.02-0.05
				c-0.01-0.04-0.03-0.08-0.04-0.12c-0.01-0.03-0.01-0.07-0.02-0.1c-0.02-0.11,0.01,0.13,0,0c0-0.03,0-0.07,0-0.1
				c0-0.02,0-0.03,0-0.05c0-0.09,0.03-0.01-0.01,0.04c0.02-0.03,0.04-0.15,0.05-0.18c-0.02,0.11-0.04,0.09-0.02,0.04
				c0.01-0.01,0.02-0.03,0.02-0.04c0.01-0.01,0.03-0.04,0.03-0.05c0,0.02-0.08,0.1-0.02,0.03c0.03-0.03,0.05-0.05,0.08-0.08
				c0.06-0.05-0.1,0.07,0.01,0c0.03-0.02,0.06-0.03,0.09-0.05c-0.09,0.07-0.09,0.03-0.05,0.02c0.02-0.01,0.05-0.02,0.07-0.02
				c0.02,0,0.03-0.01,0.05-0.01c0.07-0.02-0.05,0.01-0.06,0.01c0.02,0.01,0.09,0,0.11,0c0.02,0,0.03,0,0.05,0
				c0.06,0-0.12-0.02-0.06-0.01c0.04,0.01,0.08,0.02,0.12,0.03c0.01,0,0.09,0.04,0.1,0.04c-0.01,0-0.12-0.06-0.05-0.02
				c0.01,0.01,0.03,0.01,0.04,0.02c0.03,0.02,0.06,0.03,0.09,0.05c0.01,0.01,0.03,0.02,0.04,0.03c0.07,0.05,0.01,0.02-0.02-0.02
				c0.05,0.05,0.11,0.1,0.16,0.15c0.03,0.03,0.05,0.06,0.08,0.09c0,0-0.07-0.1-0.03-0.04c0.01,0.02,0.02,0.04,0.04,0.05
				c0.04,0.06,0.07,0.12,0.11,0.19c0.03,0.07-0.02-0.05-0.02-0.05c0,0.01,0.01,0.03,0.02,0.05c0.01,0.04,0.02,0.08,0.03,0.12
				c0,0.02,0.01,0.03,0.01,0.05c0.02,0.09-0.01-0.11-0.01-0.05c0,0.03,0,0.06,0,0.1c0,0.02,0,0.04,0,0.06
				c0,0.05-0.03,0.04,0.01-0.06c-0.01,0.03-0.02,0.08-0.03,0.12c0,0.01-0.02,0.04-0.02,0.05c0-0.01,0.06-0.12,0.02-0.05
				c-0.02,0.03-0.03,0.06-0.05,0.09c-0.04,0.06,0.03-0.03,0.03-0.04c-0.02,0.01-0.03,0.04-0.05,0.05c-0.02,0.02-0.04,0.03-0.05,0.05
				c-0.03,0.04,0.07-0.04,0,0c-0.02,0.01-0.11,0.04-0.04,0.03c0.06-0.01,0,0-0.02,0c-0.06,0.01,0.11,0,0.05-0.01
				c-0.01,0-0.05,0-0.06,0c0.01,0,0.12,0.03,0.06,0c-0.01,0-0.04-0.02-0.05-0.02c0.01,0,0.11,0.06,0.05,0.02
				c-0.01-0.01-0.02-0.01-0.03-0.02c-0.03-0.02-0.02-0.01,0.05,0.04c-0.02-0.03-0.05-0.05-0.08-0.07c-0.05-0.06,0.03,0.03,0.03,0.04
				c0-0.01-0.02-0.04-0.03-0.05c-0.01-0.02-0.02-0.03-0.03-0.05c-0.05-0.08,0.03,0.09,0.01,0.03c0-0.02-0.01-0.04-0.02-0.05
				c-0.01-0.02-0.02-0.12-0.01-0.03c0.01,0.1,0-0.04,0-0.06c0-0.11-0.02,0.12,0.01-0.01c0.02-0.08-0.05,0.11,0,0
				c0.03-0.07-0.01,0.03-0.03,0.03c0,0,0.06-0.06,0.06-0.06c0.05-0.05,0.01,0.03-0.03,0.02c0.01,0,0.07-0.04,0.07-0.04
				c0.05-0.03,0.01,0.03-0.04,0.02c0.02,0,0.07-0.02,0.08-0.02c0.01,0,0.05,0,0.06-0.01c-0.03,0.02-0.12,0.01-0.03,0.01
				c0.02,0,0.05,0,0.07,0c0.02,0,0.11,0.01,0.02,0c-0.09-0.01,0.01,0,0.02,0.01c0.02,0.01,0.05,0.01,0.07,0.02
				c0.02,0.01,0.04,0.01,0.06,0.02c0.04,0.01-0.1-0.06-0.01,0c0.02,0.01,0.1,0.07,0.12,0.07c-0.05,0-0.08-0.07-0.02-0.01
				c0.02,0.02,0.04,0.04,0.05,0.05c0.07,0.06-0.03-0.03-0.02-0.03c0.02,0,0.05,0.08,0.06,0.09c0,0.01,0.03,0.05,0.03,0.07
				c-0.02-0.06-0.03-0.07-0.02-0.03c0.01,0.02,0.01,0.03,0.02,0.05c0.01,0.02,0.01,0.05,0.02,0.07c0.01,0.03,0.05,0.13,0.01,0.01
				c0.02,0.05,0.01,0.13,0.01,0.19c0,0.03,0,0.05,0,0.07c-0.01,0.12,0.02-0.11,0,0.02c-0.01,0.06-0.03,0.12-0.04,0.18
				c-0.01,0.02-0.02,0.05-0.02,0.07c-0.03,0.09,0.03-0.05,0,0c-0.03,0.06-0.06,0.12-0.1,0.18c0.19-0.08,0.38-0.15,0.56-0.23
				c-0.05-0.01-0.11-0.03-0.16-0.05c-0.03-0.01-0.07-0.02-0.09-0.03c0.01,0.01,0.1,0.05,0.02,0.01c-0.1-0.05-0.2-0.1-0.29-0.16
				c0,0-0.1-0.07-0.04-0.03c0.06,0.04-0.01-0.01-0.02-0.02c-0.04-0.04-0.08-0.07-0.12-0.11c-0.02-0.02-0.03-0.04-0.05-0.05
				c-0.07-0.07,0.01,0.01,0.01,0.02c0.01-0.01-0.09-0.14-0.1-0.15c-0.01-0.03-0.03-0.05-0.04-0.08c-0.03-0.06,0.02,0.08,0.01,0.02
				c-0.01-0.05-0.03-0.09-0.04-0.14c0-0.01-0.01-0.06-0.01-0.06c0.03,0.03,0.01,0.11,0.01,0.04c0-0.05,0-0.11,0-0.16
				c0-0.01,0-0.12,0-0.03c0,0.08,0,0.01,0-0.01c0.01-0.05,0.02-0.09,0.04-0.14c0-0.01,0.02-0.05,0.02-0.06
				c0.01,0.04-0.05,0.09-0.01,0.03c0.01-0.02,0.09-0.12,0.08-0.13c0.01,0.03-0.08,0.08-0.01,0.02c0.01-0.01,0.03-0.03,0.04-0.04
				c0.06-0.06,0.03,0.01-0.02,0.01c0.01,0,0.05-0.03,0.05-0.03c0.02-0.01,0.04-0.02,0.05-0.03c0.08-0.05-0.02,0.02-0.03,0.01
				c0,0,0.05-0.02,0.06-0.02c0.11-0.03,0.01,0.02-0.01,0c-0.01,0,0.19,0.02,0.09,0c-0.09-0.02,0.06,0.02,0.08,0.02
				c0.06,0.02-0.01,0.03-0.03-0.02c0,0.01,0.05,0.02,0.06,0.03c0.02,0.01,0.04,0.02,0.05,0.03c0.1,0.06,0,0.01,0-0.01
				c0,0.01,0.09,0.09,0.1,0.1c0.05,0.04-0.06-0.1-0.02-0.02c0.01,0.02,0.02,0.04,0.03,0.05c0.03,0.05-0.02,0.02-0.01-0.04
				c0,0.01,0.01,0.04,0.02,0.06c0,0.01,0.01,0.04,0.01,0.06c-0.01-0.08-0.01-0.1-0.01-0.05c0,0.01,0,0.02,0,0.03
				c0,0.08,0-0.04,0.01-0.04c0,0-0.02,0.05-0.02,0.06c-0.01,0.06,0.05-0.13,0.02-0.05c0,0.01-0.03,0.03-0.02,0.04
				c0,0.01,0.07-0.12,0.03-0.05c0,0.01-0.03,0.02-0.03,0.03c0.01-0.06,0.1-0.06,0.05-0.04c-0.02,0.01-0.04,0.02-0.06,0.03
				c-0.06,0.04,0.05-0.02,0.06-0.02c-0.02,0-0.05,0.02-0.07,0.02c-0.02,0-0.04,0.01-0.06,0.01c-0.06,0.02,0.13-0.01,0.05-0.01
				c-0.03,0-0.09-0.01-0.12,0c0.1-0.02,0.11,0.02,0.05,0.01c-0.02,0-0.04-0.01-0.06-0.01c-0.02,0-0.09-0.04,0,0
				c0.09,0.04,0.01,0-0.01-0.01c-0.11-0.07,0.07,0.07,0,0c-0.06-0.06,0.08,0.11,0,0c-0.03-0.05,0.04,0.11,0.03,0.06
				c-0.03-0.1,0.01,0.12,0,0.03c-0.02-0.26-0.22-0.51-0.5-0.5c-0.26,0.01-0.52,0.22-0.5,0.5c0.05,0.68,0.7,1.02,1.33,0.9
				c0.27-0.06,0.53-0.22,0.68-0.46c0.2-0.31,0.18-0.71,0.01-1.03c-0.32-0.63-1.14-0.88-1.75-0.56c-0.61,0.32-0.85,1.09-0.71,1.74
				c0.17,0.76,0.9,1.28,1.61,1.48c0.22,0.06,0.45-0.04,0.56-0.23c0.39-0.65,0.44-1.54-0.07-2.14c-0.42-0.49-1.26-0.64-1.8-0.27
				c-0.3,0.21-0.51,0.56-0.48,0.94c0.02,0.32,0.15,0.64,0.39,0.86c0.27,0.25,0.65,0.36,1,0.23c0.36-0.13,0.64-0.43,0.77-0.79
				c0.39-1.01-0.62-2.24-1.66-2.22c-0.59,0.01-1.13,0.42-1.27,1c-0.12,0.5,0.02,1.06,0.33,1.47c0.37,0.5,0.99,0.86,1.63,0.65
				c0.19-0.06,0.37-0.17,0.42-0.38c0.03-0.11,0.03-0.23,0.04-0.34c0.02-0.22,0-0.44-0.03-0.67c-0.06-0.41-0.21-0.81-0.43-1.15
				c-0.14-0.22-0.45-0.33-0.68-0.18C291.03,113.87,290.92,114.18,291.07,114.41L291.07,114.41z"/>
		</g>
	</g>
	<g>
		<g>
			<path d="M296.18,102.88c0.16,6.72,0.32,13.45,0.48,20.17c0.01,0.56,0.82,0.68,0.98,0.13c0.48-1.66,1.18-3.23,2.1-4.69
				c0.6-0.95,2.55-3.34,3.68-1.66c0.41,0.61,0.46,1.47,0.53,2.18c0.09,0.92,0.14,1.84,0.14,2.75c0,0.92-0.05,1.84-0.14,2.75
				c-0.05,0.51-0.12,1.02-0.2,1.53c-0.03,0.2-0.07,0.39-0.1,0.59c-0.02,0.12-0.04,0.24-0.07,0.35c-0.14,0.31,0.02,0.5,0.47,0.56
				c-0.05,0.12-0.1,0.24-0.15,0.35c0.01-0.02,0.03-0.03,0.04-0.05c-0.12,0.05-0.24,0.1-0.35,0.15c0.02,0,0.05,0,0.07,0
				c0.64,0.03,0.64-0.97,0-1c-0.6-0.03-0.81,0.76-0.4,1.14c0.66,0.6,1.17-0.35,1.28-0.88c0.45-2.11,0.61-4.3,0.54-6.46
				c-0.04-1.02-0.11-2.06-0.29-3.07c-0.13-0.74-0.4-1.49-1.01-1.98c-1.42-1.14-3.21,0.03-4.17,1.2c-1.39,1.7-2.32,3.87-2.93,5.96
				c0.33,0.04,0.65,0.09,0.98,0.13c-0.16-6.72-0.32-13.45-0.48-20.17C297.17,102.24,296.17,102.24,296.18,102.88L296.18,102.88z"/>
		</g>
	</g>
	<g>
		<g>
			<path d="M275.06,110.08c1.81,2.52,3.63,5.02,5.48,7.51c0.45,0.6,0.89,1.2,1.34,1.8c0.33,0.44,0.73,1.26,1.31,1.41
				c1.25,0.3,0.95-1.78-0.07-1.21c-0.56,0.31-0.06,1.18,0.5,0.86c0.02-0.01,0.04-0.02,0.06-0.03c-0.13,0.02-0.26,0.03-0.39,0.05
				c-0.09-0.11-0.17-0.22-0.26-0.33c0.08-0.1,0.15-0.2,0.23-0.3c0.22,0,0.23-0.07,0.02-0.22c-0.08-0.11-0.16-0.22-0.25-0.33
				c-0.16-0.22-0.33-0.44-0.49-0.65c-0.33-0.44-0.65-0.87-0.98-1.31c-0.63-0.85-1.26-1.69-1.88-2.55c-1.27-1.73-2.53-3.46-3.78-5.21
				C275.55,109.06,274.68,109.55,275.06,110.08L275.06,110.08z"/>
		</g>
	</g>
	<g>
		<g>
			<path d="M281.34,109.38c-2.54,3.93-4.66,8.11-6.35,12.47c-0.14,0.36,0.27,0.72,0.62,0.62c0.74-0.23,1.31-0.66,1.73-1.31
				c0.35-0.54-0.51-1.04-0.86-0.5c-0.28,0.42-0.65,0.7-1.13,0.85c0.21,0.21,0.41,0.41,0.62,0.62c1.66-4.28,3.76-8.38,6.25-12.23
				C282.55,109.34,281.68,108.84,281.34,109.38L281.34,109.38z"/>
		</g>
	</g>
</g>
</svg>
