<?xml version="1.0" encoding="utf-8"?>
<!-- Generator: Adobe Illustrator 23.1.1, SVG Export Plug-In . SVG Version: 6.00 Build 0)  -->
<svg version="1.1" id="Layer_1" xmlns="http://www.w3.org/2000/svg" xmlns:xlink="http://www.w3.org/1999/xlink" x="0px" y="0px"
	 viewBox="0 0 361.89 287.8" style="enable-background:new 0 0 361.89 287.8;" xml:space="preserve">
<style type="text/css">
	.st0{fill:#939598;}
	.st1{fill:#ED1C24;}
</style>
<g>
	<g>
		<g>
			<path class="st0" d="M60.34,32.45c0.77-1.42,1.64-2.8,2.61-4.09c0.47-0.62,0.97-1.22,1.49-1.8c0.14-0.16,1.61-1.57,1.59-1.62
				c0.06,0.15-0.47-0.02-0.48-0.01c0.03-0.01,0.19,0.16,0.26,0.23c0.27,0.29,0.53,0.6,0.77,0.91c0.44,0.56,0.84,1.16,1.21,1.77
				c0.8,1.33,1.42,2.73,1.88,4.21c0.57,1.84,3.47,1.05,2.89-0.8c-0.58-1.88-1.39-3.7-2.45-5.36c-0.54-0.84-1.14-1.65-1.79-2.42
				c-0.68-0.8-1.48-1.51-2.6-1.48c-1.14,0.03-1.96,0.91-2.69,1.67c-0.68,0.7-1.32,1.44-1.92,2.2c-1.26,1.59-2.39,3.27-3.36,5.06
				C56.83,32.64,59.42,34.15,60.34,32.45L60.34,32.45z"/>
		</g>
	</g>
	<g>
		<g>
			<path class="st0" d="M58.72,196.95c1.53,2.75,3.41,5.31,5.58,7.59c0.56,0.58,1.56,0.57,2.12,0c2.89-2.93,5.79-5.86,8.68-8.79
				c1.36-1.38-0.76-3.5-2.12-2.12c-2.89,2.93-5.79,5.86-8.68,8.79c0.71,0,1.41,0,2.12,0c-2-2.11-3.7-4.44-5.11-6.98
				C60.38,193.75,57.78,195.26,58.72,196.95L58.72,196.95z"/>
		</g>
	</g>
	<g>
		<g>
			<path class="st0" d="M64.62,25.28c-1.47,12.1-1.42,24.31-0.97,36.47c0.46,12.15,1.31,24.29,1.43,36.46
				c0.12,12.24-0.56,24.47-0.76,36.71c-0.2,12.27-0.14,24.55,0.04,36.82c0.09,6.17,0.21,12.33,0.33,18.5
				c0.06,3.05,0.13,6.11,0.2,9.16c0.03,1.28-0.19,3.12,1.11,3.9c1.22,0.73,2.68-0.11,2.73-1.52c0.04-1.36-1.28-2.23-2.5-1.59
				c-1.71,0.9-0.19,3.5,1.51,2.59c0.03-0.02,0.06-0.03,0.1-0.05c-0.39,0.05-0.77,0.1-1.16,0.15c0.02,0.01,0.05,0.02,0.07,0.02
				c-0.3-0.23-0.6-0.46-0.9-0.69c0-0.32-0.01-0.64-0.01-0.96c0.18-0.18,0.36-0.36,0.54-0.54c-0.03,0.02-0.06,0.04-0.09,0.07
				c0.25-0.07,0.5-0.14,0.76-0.2c-0.04,0-0.08,0-0.12,0.01c0.25,0.07,0.5,0.14,0.76,0.2c0.32,0.14,0.23,0.51,0.22-0.16
				c0-0.35-0.02-0.7-0.02-1.06c-0.02-0.7-0.03-1.41-0.05-2.11c-0.03-1.53-0.07-3.05-0.1-4.58c-0.06-2.94-0.12-5.87-0.18-8.81
				c-0.11-5.75-0.21-11.51-0.27-17.26c-0.13-11.51-0.15-23.02,0.07-34.53c0.22-11.41,0.84-22.83,0.71-34.24
				c-0.12-11.41-0.88-22.79-1.35-34.19c-0.53-12.85-0.67-25.77,0.88-38.56c0.1-0.81-0.76-1.5-1.5-1.5
				C65.23,23.78,64.72,24.48,64.62,25.28L64.62,25.28z"/>
		</g>
	</g>
</g>
<g>
	<g>
		<g>
			<path class="st0" d="M336.71,158.58c-13.05-2-26.15-0.49-39.18,0.91c-6.55,0.71-13.11,1.35-19.71,1.51
				c-5.65,0.14-11.3,0.32-16.94,0.52c-8.21,0.29-16.43,0.59-24.65,0.43c-8.84-0.17-17.64-0.9-26.46-1.3
				c-16.15-0.74-32.36-1.18-48.53-1.2c-9.94-0.01-19.88,0.36-29.81,0.72c-5.37,0.2-10.74,0.51-16.12,0.53
				c-6.49,0.03-12.98-0.27-19.47-0.43c-11.38-0.29-22.79-0.06-34.18-0.12c-9.46-0.05-18.89,0.37-28.34-0.24
				c-2.72-0.18-5.44-0.37-8.16-0.55c-1.93-0.13-1.92,2.87,0,3c4.71,0.32,9.43,0.71,14.15,0.86c4.86,0.16,9.71,0,14.56-0.06
				c10.68-0.13,21.36,0.16,32.05,0.01c12.56-0.17,25.09,0.8,37.66,0.29c10.71-0.43,21.42-0.83,32.13-0.99
				c16.07-0.23,32.18,0.31,48.24,0.92c8.36,0.31,16.71,0.96,25.07,1.31c8.22,0.35,16.44,0.32,24.66,0.05
				c11.02-0.36,22.11-0.37,33.1-1.24c13.07-1.03,26.09-3.3,39.23-2.93c3.31,0.09,6.62,0.36,9.89,0.86
				C337.8,161.76,338.61,158.87,336.71,158.58L336.71,158.58z"/>
		</g>
	</g>
	<g>
		<g>
			<path class="st0" d="M324.3,153.11c1.14-0.12,2.08,0.25,3.03,0.84c1.16,0.71,2.23,1.57,3.33,2.38c2.35,1.72,4.7,3.44,7.04,5.16
				c0.12-0.91,0.24-1.83,0.36-2.74c-4.89,1.33-9.59,3.5-13.61,6.61c-0.64,0.49-0.98,1.29-0.54,2.05c0.37,0.63,1.41,1.04,2.05,0.54
				c3.83-2.96,8.23-5.03,12.89-6.3c1.34-0.37,1.35-2.01,0.36-2.74c-2.48-1.82-4.96-3.64-7.44-5.45c-2.19-1.61-4.56-3.64-7.48-3.34
				c-0.81,0.08-1.5,0.63-1.5,1.5C322.8,152.36,323.49,153.2,324.3,153.11L324.3,153.11z"/>
		</g>
	</g>
	<g>
		<g>
			<path class="st0" d="M31.07,153.11c-3.9,1.8-7.79,3.6-11.69,5.4c-0.9,0.42-0.92,1.72-0.3,2.36c3,3.08,6.01,6.17,9.01,9.25
				c1.35,1.39,3.47-0.74,2.12-2.12c-3-3.08-6.01-6.17-9.01-9.25c-0.1,0.79-0.2,1.57-0.3,2.36c3.9-1.8,7.79-3.6,11.69-5.4
				c0.74-0.34,0.92-1.4,0.54-2.05C32.68,152.89,31.81,152.77,31.07,153.11L31.07,153.11z"/>
		</g>
	</g>
</g>
<g>
	<g>
		<g>
			<path class="st1" d="M309.58,46.44c4.6-0.53,9.27-0.51,13.86,0.13c0.73,0.1,1.82,0.13,2.27,0.81c0.42,0.62,0.29,1.57,0.18,2.27
				c-0.35,2.23-0.87,4.46-1.38,6.66c-0.6,2.56-1.28,5.09-2.04,7.61c-0.27,0.89,0.72,1.5,1.47,1.13c0.4-0.19,0.79-0.39,1.19-0.58
				c1.16-0.57,0.14-2.29-1.01-1.73c-0.4,0.19-0.79,0.39-1.19,0.58c0.49,0.38,0.98,0.75,1.47,1.13c0.73-2.44,1.39-4.9,1.98-7.37
				c0.57-2.39,1.15-4.82,1.49-7.26c0.29-2.06-0.15-4.17-2.36-4.88c-1.11-0.36-2.36-0.42-3.51-0.54c-1.25-0.14-2.51-0.23-3.77-0.28
				c-2.89-0.12-5.78,0-8.65,0.33c-0.54,0.06-1,0.42-1,1C308.58,45.93,309.04,46.5,309.58,46.44L309.58,46.44z"/>
		</g>
	</g>
	<g>
		<g>
			<path class="st1" d="M30.09,107.05c-0.21,4.91-0.42,9.82-0.63,14.74c-0.04,1,0.02,2.07,0.79,2.8c0.66,0.63,1.59,0.84,2.48,0.7
				c0.98-0.15,1.78-0.75,2.5-1.39c0.76-0.67,1.5-1.32,2.38-1.84c1.95-1.15,4.18-1.65,6.44-1.48c1.28,0.1,1.28-1.9,0-2
				c-1.85-0.14-3.74,0.14-5.47,0.81c-1.83,0.72-3.29,1.8-4.76,3.09c-0.48,0.42-1.11,0.96-1.8,0.83c-0.8-0.15-0.58-1.18-0.55-1.78
				c0.1-2.27,0.19-4.54,0.29-6.81c0.11-2.56,0.22-5.12,0.33-7.68C32.14,105.77,30.14,105.77,30.09,107.05L30.09,107.05z"/>
		</g>
	</g>
	<g>
		<g>
			<path class="st1" d="M32.6,122.55c4.27-5.62,8.54-11.23,13.13-16.59c3.92-4.57,8.06-9.26,12.75-13.06
				c2.05-1.66,4.77-3.31,7.17-4.73c4.61-2.74,9.42-5.16,14.39-7.15c9.91-3.97,20.51-6.24,31.22-5.51c8.53,0.58,16.75,3.1,24.62,6.33
				c8.1,3.32,15.89,7.34,23.92,10.81c8.79,3.8,17.86,6.95,27.31,8.64c11.72,2.09,23.74,2,35.47,0.06
				c12.45-2.06,24.36-6.32,35.89-11.36c11.92-5.22,23.7-10.84,34.85-17.55c9.58-5.77,18.74-12.25,27.39-19.34
				c1.73-1.42,3.44-2.87,5.14-4.34c0.97-0.85-0.45-2.25-1.41-1.41c-7.99,6.94-16.44,13.32-25.31,19.09
				c-11,7.16-22.61,13.1-34.52,18.6c-11.47,5.3-23.19,10.15-35.54,12.99c-12.17,2.8-24.84,3.62-37.24,1.98
				c-9.77-1.29-19.23-4.19-28.32-7.95c-8.16-3.37-16.02-7.4-24.12-10.9c-7.78-3.36-15.81-6.17-24.24-7.27
				c-9.98-1.3-20.07-0.05-29.63,3.02c-9.33,3-18.37,7.47-26.42,13.07c-3.29,2.29-6.13,5.17-8.9,8.05
				c-4.75,4.93-9.1,10.24-13.3,15.64c-2.03,2.61-4.03,5.23-6.03,7.86C30.1,122.56,31.83,123.56,32.6,122.55L32.6,122.55z"/>
		</g>
	</g>
</g>
<g>
	<g>
		<g>
			<path class="st1" d="M308.21,36.3c-0.26,0.38-0.51,0.76-0.77,1.14c0.61,0.08,1.22,0.16,1.83,0.24c-0.53-2.46-0.93-4.94-1.18-7.44
				c-0.23-2.29-0.35-4.69,0.47-6.88c0.62-1.67,1.9-3.22,3.66-3.72c2.25-0.64,4.65,0.33,6.73,1.13c0.5,0.19,1.1-0.21,1.23-0.7
				c0.15-0.56-0.19-1.04-0.7-1.23c-1.94-0.74-4-1.48-6.11-1.39c-1.85,0.09-3.57,0.85-4.84,2.21c-2.79,2.99-2.81,7.22-2.39,11.04
				c0.27,2.52,0.68,5.02,1.21,7.5c0.19,0.9,1.38,0.9,1.83,0.24c0.26-0.38,0.51-0.76,0.77-1.14
				C310.66,36.24,308.93,35.24,308.21,36.3L308.21,36.3z"/>
		</g>
	</g>
	<g>
		<g>
			<path class="st1" d="M303.81,29.75c3.76-0.23,7.51-0.46,11.27-0.69c1.28-0.08,1.29-2.08,0-2c-3.76,0.23-7.51,0.46-11.27,0.69
				C302.53,27.83,302.52,29.83,303.81,29.75L303.81,29.75z"/>
		</g>
	</g>
	<g>
		<g>
			<path class="st1" d="M322.61,18.34c-1.89,3.91-3,8.16-3.19,12.5c-0.08,1.95,0.05,4.1,1.21,5.75c1.11,1.59,2.92,2.53,4.86,2.17
				c1.26-0.23,0.73-2.16-0.53-1.93c-1.35,0.25-2.56-0.91-3.06-2.05c-0.68-1.56-0.54-3.42-0.4-5.07c0.29-3.58,1.28-7.12,2.85-10.36
				C324.9,18.2,323.18,17.18,322.61,18.34L322.61,18.34z"/>
		</g>
	</g>
	<g>
		<g>
			<path class="st1" d="M327.01,25.65c2.16,3.04,4.53,5.93,7.1,8.63c0.89,0.93,2.3-0.48,1.41-1.41c-2.45-2.58-4.73-5.32-6.79-8.23
				c-0.31-0.44-0.87-0.65-1.37-0.36C326.94,24.54,326.7,25.21,327.01,25.65L327.01,25.65z"/>
		</g>
	</g>
	<g>
		<g>
			<path class="st1" d="M333.97,21.8c-2.67,4.27-5.34,8.55-8.01,12.82c-0.68,1.09,1.05,2.1,1.73,1.01
				c2.67-4.27,5.34-8.55,8.01-12.82C336.38,21.72,334.65,20.71,333.97,21.8L333.97,21.8z"/>
		</g>
	</g>
	<g>
		<g>
			<path class="st1" d="M336.76,18.54c1.85,3.01,3,6.43,3.27,9.96c0.11,1.45,0.39,9.49-2.65,8.25c-0.5-0.2-1.1,0.22-1.23,0.7
				c-0.16,0.57,0.2,1.02,0.7,1.23c2.13,0.87,3.98-1.04,4.57-2.9c0.62-1.95,0.73-4.19,0.66-6.22c-0.14-4.24-1.38-8.42-3.6-12.03
				C337.81,16.43,336.08,17.44,336.76,18.54L336.76,18.54z"/>
		</g>
	</g>
</g>
<g>
	<g>
		<g>
			<g>
				<path d="M116.6,77.58c-0.58,1.39-0.58,3.03,0,4.43c0.1,0.25,0.33,0.43,0.62,0.35c0.23-0.06,0.45-0.36,0.35-0.62
					c-0.53-1.26-0.53-2.64,0-3.89c0.1-0.25-0.11-0.55-0.35-0.62C116.93,77.15,116.71,77.33,116.6,77.58L116.6,77.58z"/>
			</g>
		</g>
		<g>
			<g>
				<path d="M117.34,87.86c0.15,1.75,0.31,3.5,0.46,5.25c0.02,0.27,0.21,0.5,0.5,0.5c0.25,0,0.52-0.23,0.5-0.5
					c-0.15-1.75-0.31-3.5-0.46-5.25c-0.02-0.27-0.21-0.5-0.5-0.5C117.59,87.36,117.32,87.59,117.34,87.86L117.34,87.86z"/>
			</g>
		</g>
		<g>
			<g>
				<path d="M116.99,99.88c0,2,0,4,0,6.01c0,0.64,1,0.64,1,0c0-2,0-4,0-6.01C117.99,99.23,116.99,99.23,116.99,99.88L116.99,99.88z"
					/>
			</g>
		</g>
		<g>
			<g>
				<path d="M117.4,112.51c-0.77,2-0.94,4.19-0.52,6.29c0.13,0.63,1.09,0.36,0.96-0.27c-0.39-1.93-0.19-3.93,0.52-5.76
					c0.1-0.25-0.11-0.55-0.35-0.62C117.73,112.08,117.5,112.26,117.4,112.51L117.4,112.51z"/>
			</g>
		</g>
		<g>
			<g>
				<path d="M116.26,128.03c-0.17,1.93-0.05,3.87,0.34,5.77c0.13,0.63,1.09,0.36,0.96-0.27c-0.37-1.81-0.46-3.66-0.3-5.5
					c0.02-0.27-0.25-0.5-0.5-0.5C116.47,127.53,116.29,127.76,116.26,128.03L116.26,128.03z"/>
			</g>
		</g>
		<g>
			<g>
				<path d="M117.04,140.43c-0.26,2.13-0.53,4.25-0.79,6.38c-0.03,0.27,0.25,0.5,0.5,0.5c0.3,0,0.47-0.23,0.5-0.5
					c0.26-2.13,0.53-4.25,0.79-6.38c0.03-0.27-0.25-0.5-0.5-0.5C117.24,139.93,117.08,140.16,117.04,140.43L117.04,140.43z"/>
			</g>
		</g>
		<g>
			<g>
				<path d="M116.65,153.43c-0.48,2.42-0.56,4.87-0.4,7.33c0.02,0.28,0.21,0.49,0.5,0.5c0.35,0.01,0.7,0.02,1.05,0.03
					c0.64,0.02,0.64-0.98,0-1c-0.35-0.01-0.7-0.02-1.05-0.03c0.17,0.17,0.33,0.33,0.5,0.5c-0.16-2.37-0.1-4.73,0.36-7.06
					C117.74,153.07,116.77,152.8,116.65,153.43L116.65,153.43z"/>
			</g>
		</g>
	</g>
	<g>
		<g>
			<g>
				<path d="M273.31,84.25c-0.71,1.73-1,3.63-0.85,5.49c0.02,0.27,0.21,0.5,0.5,0.5c0.25,0,0.52-0.23,0.5-0.5
					c-0.14-1.79,0.14-3.56,0.82-5.22c0.1-0.25-0.11-0.55-0.35-0.62C273.63,83.82,273.41,83.99,273.31,84.25L273.31,84.25z"/>
			</g>
		</g>
		<g>
			<g>
				<path d="M272.79,97.25c0,1.88,0,3.75,0,5.63c0,0.64,1,0.64,1,0c0-1.88,0-3.75,0-5.63C273.79,96.6,272.79,96.6,272.79,97.25
					L272.79,97.25z"/>
			</g>
		</g>
		<g>
			<g>
				<path d="M273.53,109.26c0.13,1.59,0.02,3.19-0.35,4.75c-0.15,0.63,0.81,0.89,0.96,0.27c0.39-1.64,0.53-3.33,0.39-5.01
					c-0.02-0.27-0.21-0.5-0.5-0.5C273.78,108.76,273.51,108.99,273.53,109.26L273.53,109.26z"/>
			</g>
		</g>
		<g>
			<g>
				<path d="M273.51,121.5c-0.55,2.26-0.79,4.58-0.72,6.9c0.02,0.64,1.02,0.64,1,0c-0.07-2.24,0.15-4.46,0.68-6.64
					C274.62,121.14,273.66,120.88,273.51,121.5L273.51,121.5z"/>
			</g>
		</g>
		<g>
			<g>
				<path d="M273.54,133.29c0.1,1.84-0.03,3.68-0.39,5.49c-0.12,0.63,0.84,0.9,0.96,0.27c0.38-1.9,0.52-3.83,0.42-5.76
					C274.51,132.65,273.51,132.64,273.54,133.29L273.54,133.29z"/>
			</g>
		</g>
		<g>
			<g>
				<path d="M273.17,145.3c0,1.75,0,3.5,0,5.26c0,0.64,1,0.64,1,0c0-1.75,0-3.5,0-5.26C274.17,144.66,273.17,144.66,273.17,145.3
					L273.17,145.3z"/>
			</g>
		</g>
		<g>
			<g>
				<path d="M272.42,155.68c-0.28,2-0.55,4-0.83,6c-0.04,0.27,0.06,0.54,0.35,0.62c0.23,0.06,0.58-0.08,0.62-0.35
					c0.28-2,0.55-4,0.83-6c0.04-0.27-0.06-0.54-0.35-0.62C272.8,155.26,272.46,155.41,272.42,155.68L272.42,155.68z"/>
			</g>
		</g>
	</g>
	<g>
		<g>
			<g>
				<path d="M117.75,152.05c2.31,3.34,4.83,6.54,7.54,9.57c0.28,0.31,0.71,0.1,0.84-0.22c0.32-0.8,0.13-1.64-0.39-2.3
					c-0.4-0.5-1.1,0.21-0.71,0.71c0.31,0.39,0.31,0.88,0.14,1.32c0.28-0.07,0.56-0.15,0.84-0.22c-2.65-2.97-5.12-6.1-7.38-9.37
					C118.25,151.02,117.38,151.51,117.75,152.05L117.75,152.05z"/>
			</g>
		</g>
		<g>
			<g>
				<path d="M118.33,142.98c5.19,6.23,10.56,12.31,16.1,18.23c0.32,0.35,0.81,0.05,0.85-0.35c0.05-0.42,0.09-0.83,0.14-1.25
					c0.07-0.64-0.93-0.63-1,0c-0.05,0.42-0.09,0.83-0.14,1.25c0.28-0.12,0.57-0.24,0.85-0.35c-5.54-5.92-10.91-12-16.1-18.23
					C118.62,141.78,117.92,142.49,118.33,142.98L118.33,142.98z"/>
			</g>
		</g>
		<g>
			<g>
				<path d="M118.31,128.58c5.56,8.51,12.13,16.36,19.55,23.32c1.04,0.97,2.1,1.93,3.17,2.87c0.55,0.48,1.1,0.96,1.66,1.43
					c0.25,0.21,0.5,0.42,0.76,0.63c0.14,0.12,0.28,0.23,0.42,0.35c0.06,0.05,0.11,0.09,0.17,0.14c0.13,0.23,0.22,0.21,0.28-0.07
					c0.13-0.02,0.26-0.03,0.39-0.05c-0.02-0.01-0.03-0.01-0.05-0.02c0.1,0.08,0.2,0.15,0.3,0.23c0,0.05,0.01,0.09,0.01,0.14
					c-0.12,0.12-0.23,0.23-0.35,0.35c0.01,0,0.02-0.01,0.03-0.01c-0.19-0.08-0.38-0.15-0.56-0.23c0.01,0.02,0.03,0.04,0.04,0.05
					c0.39,0.5,1.26,0,0.86-0.5c-0.01-0.02-0.03-0.04-0.04-0.05c-0.14-0.18-0.33-0.3-0.56-0.23c-0.87,0.25-0.18,1.73,0.56,1.11
					c1.06-0.87-1.1-2.18-1.62-2.62c-2.26-1.91-4.45-3.91-6.57-5.97c-4.18-4.08-8.09-8.46-11.67-13.08c-2.08-2.68-4.04-5.45-5.9-8.29
					C118.83,127.54,117.96,128.04,118.31,128.58L118.31,128.58z"/>
			</g>
		</g>
		<g>
			<g>
				<path d="M118.85,112.8c5.53,5.86,10.96,11.82,16.28,17.87c5.32,6.05,10.54,12.2,15.64,18.43c2.88,3.52,5.73,7.07,8.54,10.64
					c0.4,0.51,1.1-0.21,0.71-0.71c-4.98-6.33-10.07-12.58-15.27-18.74c-5.2-6.16-10.51-12.22-15.92-18.19
					c-3.06-3.37-6.15-6.71-9.27-10.01C119.11,111.62,118.41,112.33,118.85,112.8L118.85,112.8z"/>
			</g>
		</g>
		<g>
			<g>
				<path d="M120.84,98.08c6.84,8.02,13.69,16.04,20.54,24.05c6.88,8.04,13.77,16.08,20.66,24.12c3.86,4.51,7.73,9.01,11.6,13.51
					c0.42,0.49,1.12-0.22,0.71-0.71c-6.87-8-13.73-16-20.59-24.01c-6.89-8.04-13.77-16.08-20.64-24.13
					c-3.86-4.51-7.71-9.03-11.56-13.54C121.13,96.88,120.42,97.59,120.84,98.08L120.84,98.08z"/>
			</g>
		</g>
		<g>
			<g>
				<path d="M121.86,81.05c7.81,10.49,15.73,20.9,23.78,31.21c8.07,10.34,16.25,20.59,24.56,30.75c4.66,5.7,9.37,11.38,14.1,17.02
					c0.41,0.49,1.12-0.22,0.71-0.71c-8.38-9.98-16.65-20.06-24.8-30.24c-8.18-10.2-16.23-20.5-24.17-30.89
					c-4.47-5.85-8.91-11.74-13.31-17.65C122.34,80.03,121.47,80.53,121.86,81.05L121.86,81.05z"/>
			</g>
		</g>
		<g>
			<g>
				<path d="M138.84,86.71c7.22,9.76,14.57,19.44,22.03,29.02c7.51,9.64,15.15,19.19,22.9,28.64c4.03,4.91,8.06,9.9,13.11,13.82
					c0.5,0.39,1.22-0.31,0.71-0.71c-4.45-3.45-8.11-7.75-11.67-12.07c-3.84-4.66-7.64-9.34-11.41-14.04
					c-7.62-9.5-15.13-19.1-22.51-28.79c-4.13-5.43-8.23-10.88-12.29-16.37C139.32,85.69,138.45,86.19,138.84,86.71L138.84,86.71z"/>
			</g>
		</g>
		<g>
			<g>
				<path d="M169.25,98.25c2.57,4.51,5.97,8.45,9.43,12.28c3.81,4.22,7.63,8.42,11.45,12.63c7.74,8.54,15.49,17.07,23.23,25.61
					c4.36,4.81,8.72,9.62,13.08,14.42c0.43,0.48,1.14-0.23,0.71-0.71c-7.71-8.51-15.43-17.01-23.14-25.52
					c-7.69-8.48-15.37-16.95-23.06-25.43c-3.93-4.33-7.92-8.68-10.83-13.8C169.79,97.19,168.93,97.69,169.25,98.25L169.25,98.25z"/>
			</g>
		</g>
		<g>
			<g>
				<path d="M197.51,102.94c6.59,7.59,13.07,15.28,19.44,23.05c6.41,7.83,12.71,15.75,18.9,23.77c3.46,4.48,6.88,8.99,10.27,13.53
					c0.38,0.51,1.25,0.01,0.86-0.5c-6.03-8.08-12.18-16.08-18.43-23.98c-6.29-7.94-12.69-15.79-19.2-23.55
					c-3.67-4.37-7.38-8.72-11.12-13.03C197.79,101.74,197.09,102.45,197.51,102.94L197.51,102.94z"/>
			</g>
		</g>
		<g>
			<g>
				<path d="M213.26,104.94c6.33,6.69,11.41,14.42,16.28,22.21c4.85,7.75,9.54,15.63,15.2,22.83c3.17,4.03,6.65,7.82,10.55,11.15
					c0.49,0.42,1.2-0.29,0.71-0.71c-6.96-5.96-12.49-13.3-17.5-20.93c-5.05-7.69-9.62-15.7-14.89-23.25
					c-2.94-4.21-6.1-8.28-9.64-12.02C213.52,103.76,212.82,104.47,213.26,104.94L213.26,104.94z"/>
			</g>
		</g>
		<g>
			<g>
				<path d="M228.89,100.16c4.67,7.83,9.54,15.53,14.62,23.1c5.08,7.57,10.36,15,15.84,22.28c3.08,4.1,6.22,8.15,9.43,12.16
					c0.4,0.5,1.11-0.21,0.71-0.71c-5.69-7.12-11.19-14.38-16.49-21.79c-5.26-7.35-10.32-14.84-15.17-22.46
					c-2.76-4.32-5.44-8.68-8.07-13.08C229.42,99.1,228.56,99.6,228.89,100.16L228.89,100.16z"/>
			</g>
		</g>
		<g>
			<g>
				<path d="M238.96,97.55c3.44,4.95,8.25,8.73,12.02,13.41c2,2.48,3.81,5.12,5.65,7.72c1.96,2.77,3.92,5.54,5.88,8.31
					c2.2,3.11,4.4,6.21,6.6,9.32c0.37,0.52,1.24,0.02,0.86-0.5c-3.92-5.54-7.84-11.08-11.76-16.61c-1.84-2.59-3.64-5.22-5.58-7.74
					c-1.86-2.42-3.92-4.63-6.07-6.8c-2.38-2.41-4.8-4.82-6.74-7.61C239.46,96.52,238.59,97.02,238.96,97.55L238.96,97.55z"/>
			</g>
		</g>
		<g>
			<g>
				<path d="M250.65,95.29c4.76,6.7,9.97,13.08,15.6,19.07c1.6,1.71,3.24,3.38,4.91,5.02c0.16-0.28,0.32-0.56,0.49-0.84
					c-0.39-0.06-0.68-0.2-0.9-0.54c-0.35-0.54-1.21-0.04-0.86,0.5c0.35,0.54,0.85,0.9,1.5,1c0.46,0.07,0.88-0.45,0.49-0.84
					c-5.82-5.74-11.26-11.86-16.24-18.34c-1.4-1.83-2.77-3.68-4.11-5.55C251.14,94.27,250.27,94.77,250.65,95.29L250.65,95.29z"/>
			</g>
		</g>
		<g>
			<g>
				<path d="M259.75,91.35c3.42,5.01,7.07,9.85,10.95,14.51c0.24-0.24,0.47-0.47,0.71-0.71c-0.13-0.12-0.26-0.25-0.39-0.37
					c-0.46-0.45-1.17,0.26-0.71,0.71c0.13,0.12,0.26,0.25,0.39,0.37c0.47,0.45,1.11-0.22,0.71-0.71c-3.83-4.59-7.43-9.37-10.8-14.31
					C260.25,90.32,259.38,90.82,259.75,91.35L259.75,91.35z"/>
			</g>
		</g>
		<g>
			<g>
				<path d="M153.2,91.77c6.13,9.91,12.8,19.48,19.96,28.67c7.21,9.25,14.93,18.11,23.1,26.53c4.6,4.74,9.35,9.34,14.23,13.8
					c0.47,0.43,1.18-0.27,0.71-0.71c-8.66-7.9-16.9-16.27-24.66-25.05c-7.7-8.72-14.93-17.85-21.64-27.35
					c-3.78-5.35-7.4-10.82-10.85-16.4C153.72,90.72,152.86,91.23,153.2,91.77L153.2,91.77z"/>
			</g>
		</g>
		<g>
			<g>
				<path d="M186.09,103.31c7.09,7.26,14.29,14.43,21.22,21.84c3.38,3.61,6.61,7.35,9.58,11.3c2.89,3.83,5.57,7.81,8.14,11.85
					c2.9,4.56,5.65,9.22,8.4,13.87c0.33,0.55,1.19,0.05,0.86-0.5c-4.92-8.31-9.85-16.63-15.57-24.42
					c-5.89-8-12.82-15.05-19.74-22.15c-4.06-4.16-8.13-8.33-12.19-12.49C186.35,102.14,185.64,102.85,186.09,103.31L186.09,103.31z"
					/>
			</g>
		</g>
	</g>
</g>
<g>
	<g>
		<path class="st0" d="M119.09,174.83c0.01,1.93,0.02,3.85,0.03,5.78c0.33-0.04,0.65-0.09,0.98-0.13c-0.65-1.94-1.48-3.82-2.5-5.59
			c-0.49-0.85-1-1.74-1.63-2.5c-0.5-0.6-1.32-1.11-2.1-0.68c-0.71,0.39-0.97,1.33-1.1,2.07c-0.16,0.91-0.11,1.84,0.08,2.74
			c0.39,1.83,1.39,3.59,2.68,4.94c1.39,1.45,3.28,2.49,5.34,2.08c0.63-0.12,0.36-1.09-0.27-0.96c-1.93,0.38-3.68-0.94-4.83-2.36
			c-1.22-1.5-2.13-3.47-2.09-5.43c0.01-0.52,0.16-2.56,1.07-2.17c0.43,0.18,0.73,0.76,0.97,1.13c0.29,0.43,0.56,0.87,0.83,1.31
			c1.07,1.8,1.93,3.71,2.59,5.69c0.17,0.52,0.98,0.45,0.98-0.13c-0.01-1.93-0.02-3.85-0.03-5.78
			C120.09,174.19,119.09,174.19,119.09,174.83L119.09,174.83z"/>
	</g>
</g>
<g>
	<g>
		<path class="st0" d="M270.2,157.83c-0.31,1.94-0.56,3.9-0.76,5.85c-0.1,1.04-0.37,2.47,0.78,3.07c0.69,0.37,1.56,0.28,2.11-0.31
			c0.62-0.66,0.63-1.66-0.01-2.32c-0.55-0.56-1.58-0.59-2.12,0c-0.56,0.61-0.58,1.52,0,2.12c0.01,0.01,0.03,0.03,0.04,0.04
			c-0.13-0.22-0.26-0.44-0.39-0.66c0,0.02,0.01,0.03,0.01,0.05c0-0.27,0-0.53,0-0.8c0.5-0.29,1.01-0.58,1.51-0.87
			c0.22,0.13,0.44,0.26,0.66,0.39c0.18,0.2,0.27,0.42,0.28,0.67c0-0.03,0-0.06,0-0.09c0.03-0.14,0.02-0.3,0.04-0.45
			c0.03-0.28,0.05-0.57,0.08-0.85c0.06-0.59,0.12-1.18,0.19-1.78c0.03-0.28,0.07-0.57,0.11-0.85c0.02-0.14,0.04-0.28,0.06-0.43
			c-0.04,0.31,0.01-0.1,0.02-0.17c0.09-0.61,0.18-1.23,0.27-1.84c0.12-0.77-0.2-1.65-1.05-1.85
			C271.32,156.62,270.33,157,270.2,157.83L270.2,157.83z"/>
	</g>
</g>
<g>
	<g>
		<path class="st0" d="M269.84,170.63c-0.22,2.7-0.45,5.39-0.67,8.09c-0.05,0.58,0.83,0.66,0.98,0.13c0.3-1.03,1.27-1.79,2.34-1.87
			c1.07-0.08,2.02,0.63,2.42,1.61c0.19,0.46,0.26,0.99,0.14,1.48c-0.18,0.74-0.71,0.88-1.41,0.79c-1.2-0.15-2.22-0.96-2.72-2.04
			c-0.27-0.58-1.14-0.08-0.86,0.5c0.54,1.16,1.6,2.05,2.84,2.39c1.26,0.35,2.64,0.16,3.08-1.24c0.75-2.41-1.53-4.9-3.97-4.44
			c-1.33,0.25-2.44,1.25-2.82,2.54c0.33,0.04,0.65,0.09,0.98,0.13c0.22-2.7,0.45-5.39,0.67-8.09
			C270.9,169.99,269.9,169.99,269.84,170.63L269.84,170.63z"/>
	</g>
</g>
<g>
	<g>
		<path class="st0" d="M117.44,156.24c-1.2-0.37-2.2,0.46-2.58,1.54c-0.31,0.89-0.09,1.84,0.02,2.75c0.27,2.11,0.56,4.22,0.88,6.33
			c0.12,0.78,1.14,1.28,1.85,1.05c0.85-0.27,1.17-1.01,1.05-1.85c-0.12-0.8-0.24-1.6-0.35-2.4c-0.11-0.78-0.2-1.43-0.29-2.09
			c-0.1-0.77-0.2-1.55-0.29-2.32c-0.01-0.13-0.03-0.25-0.03-0.38c0-0.07,0-0.14,0.01-0.21c-0.03,0.22-0.03,0.25,0,0.08
			c0.19-0.3-0.2,0.26,0-0.02c-0.23,0.31-0.67,0.54-1.06,0.42c0.75,0.23,1.67-0.28,1.85-1.05
			C118.68,157.27,118.25,156.49,117.44,156.24L117.44,156.24z"/>
	</g>
</g>
<g>
	<g>
		<g>
			<path d="M96.89,207.67c-5.95,4.41-9.47,11.55-9.73,18.92c-0.13,3.87,0.74,7.56,2.35,11.06c0.96,2.08,2.05,4.11,2.58,6.35
				c0.52,2.23,0.49,4.61-0.12,6.82c-0.53,1.92-1.54,3.72-2.94,5.14c-0.71,0.72-1.51,1.32-2.41,1.78c-0.42,0.22-0.86,0.39-1.31,0.52
				c-0.23,0.07-0.46,0.13-0.69,0.17c-0.02,0-0.32,0.03-0.35,0.07c-0.14,0.13-0.12-0.37,0.09,0.12c0.05,0.17,0.09,0.34,0.14,0.5
				c-0.13,0.16-0.25,0.32-0.38,0.48c-0.18,0-0.35,0-0.53,0c0.03,0.01,0.06,0.01,0.09,0.02c-0.15-0.09-0.29-0.17-0.44-0.26
				c0.03,0.02,0.05,0.05,0.08,0.07c0.95,0.87,2.37-0.54,1.41-1.41c-0.89-0.82-2.28-0.09-2.23,1.1c0.06,1.39,1.65,1.45,2.66,1.23
				c1.98-0.41,3.8-1.51,5.23-2.93c3.3-3.28,4.54-8.08,3.89-12.61c-0.37-2.59-1.49-4.92-2.6-7.26c-0.93-1.96-1.73-3.94-2.15-6.08
				c-0.75-3.83-0.38-7.85,0.86-11.54c1.39-4.14,3.99-7.93,7.51-10.54c0.43-0.32,0.65-0.87,0.36-1.37
				C98.01,207.6,97.33,207.35,96.89,207.67L96.89,207.67z"/>
		</g>
	</g>
	<g>
		<g>
			<path d="M106.13,252.42c0.01,2.26,0.02,4.52,0.04,6.79c0.65-0.09,1.31-0.18,1.96-0.27c-0.46-3.11-1.42-6.13-2.84-8.95
				c-0.64-1.27-1.37-2.76-2.84-3.2c-1.36-0.41-2.85,0.16-3.8,1.16c-0.95,1-1.47,2.36-1.87,3.66c-0.41,1.35-0.65,2.77-0.64,4.18
				c0.02,2.71,1.07,5.35,3.35,6.9c2.23,1.52,5.2,1.7,7.37,0c0.43-0.33,0.35-1.06,0-1.41c-0.42-0.42-0.99-0.33-1.41,0
				c-1.3,1.02-3.2,0.72-4.53-0.05c-1.74-1-2.61-2.87-2.75-4.83c-0.15-2.14,0.34-4.63,1.47-6.46c0.44-0.72,1.27-1.48,2.19-1.24
				c0.96,0.25,1.5,1.82,1.88,2.61c1.26,2.57,2.07,5.34,2.49,8.17c0.17,1.13,1.97,0.84,1.96-0.27c-0.01-2.26-0.02-4.52-0.04-6.79
				C108.12,251.14,106.12,251.14,106.13,252.42L106.13,252.42z"/>
		</g>
	</g>
	<g>
		<g>
			<path d="M99.66,208.21c-0.19,4.49-0.11,8.98,0.24,13.46c0.08,0.97,1.32,1.39,1.86,0.5c0.74-1.21,1.86-2.97,3.4-3.2
				c1.49-0.23,2.18,1.3,2.47,2.49c0.18,0.74,0.26,1.5,0.29,2.26c0.03,0.72,0,1.36-0.76,1.62c-0.73,0.25-1.5,0.03-2.2-0.21
				c-1.02-0.36-1.96-0.75-3.03-0.89c-0.54-0.07-1,0.51-1,1c0,0.6,0.46,0.93,1,1c0.98,0.13,1.88,0.63,2.81,0.92
				c0.83,0.26,1.7,0.35,2.56,0.2c0.84-0.15,1.63-0.6,2.1-1.31c0.54-0.81,0.55-1.78,0.48-2.71c-0.11-1.55-0.34-3.25-1.23-4.57
				c-0.96-1.42-2.67-2.17-4.36-1.65c-1.93,0.6-3.27,2.39-4.28,4.04c0.62,0.17,1.24,0.34,1.86,0.5c-0.35-4.48-0.43-8.98-0.24-13.46
				C101.72,206.92,99.72,206.93,99.66,208.21L99.66,208.21z"/>
		</g>
	</g>
	<g>
		<g>
			<path d="M122.09,251.36c-1.68-4.59-1.97-9.61-0.83-14.36c0.57-2.37,1.47-4.65,2.71-6.75c1.01-1.7,2.68-3.98,4.93-3.75
				c2.27,0.23,3.46,2.87,4.05,4.77c0.38,1.23,2.31,0.7,1.93-0.53c-0.69-2.24-1.94-4.76-4.19-5.78c-2.6-1.18-5.22,0.13-6.95,2.16
				c-1.75,2.06-2.95,4.64-3.79,7.19c-0.89,2.67-1.35,5.49-1.37,8.3c-0.03,3.15,0.5,6.32,1.58,9.28
				C120.6,253.09,122.54,252.58,122.09,251.36L122.09,251.36z"/>
		</g>
	</g>
	<g>
		<g>
			<path d="M118.87,238.63c4.46-0.75,9.05-0.55,13.43,0.54c1.25,0.31,1.78-1.62,0.53-1.93c-4.75-1.18-9.67-1.36-14.49-0.54
				c-0.53,0.09-0.83,0.75-0.7,1.23C117.8,238.5,118.34,238.72,118.87,238.63L118.87,238.63z"/>
		</g>
	</g>
	<g>
		<g>
			<path d="M144.06,224.38c-2.53,4.45-4.53,9.22-5.91,14.15c-0.67,2.4-1.33,4.91-1.45,7.41c-0.11,2.29,0.4,4.73,2.13,6.34
				c1.64,1.54,4.07,2.22,6.12,1.09c1.13-0.62,0.12-2.35-1.01-1.73c-1.35,0.75-2.96,0.02-3.94-1.02c-1.36-1.43-1.43-3.61-1.24-5.46
				c0.23-2.21,0.83-4.42,1.44-6.54c0.62-2.15,1.35-4.26,2.2-6.33c0.97-2.37,2.12-4.68,3.39-6.91
				C146.42,224.27,144.7,223.26,144.06,224.38L144.06,224.38z"/>
		</g>
	</g>
	<g>
		<g>
			<path d="M147.61,233.66c2.72,5.94,6.4,11.41,10.83,16.21c0.88,0.95,2.29-0.47,1.41-1.41c-4.32-4.67-7.86-10.02-10.52-15.8
				c-0.23-0.49-0.93-0.61-1.37-0.36C147.47,232.59,147.39,233.17,147.61,233.66L147.61,233.66z"/>
		</g>
	</g>
	<g>
		<g>
			<path d="M155.82,232.23c-2.84,4.94-5.38,10.04-7.63,15.27c-0.21,0.5-0.15,1.07,0.36,1.37c0.42,0.25,1.15,0.14,1.37-0.36
				c2.24-5.24,4.79-10.34,7.63-15.27C158.19,232.12,156.46,231.11,155.82,232.23L155.82,232.23z"/>
		</g>
	</g>
	<g>
		<g>
			<path d="M162.71,225.9c2.17,2.78,3.2,6.24,3.72,9.68c0.26,1.75,0.38,3.53,0.45,5.3c0.07,1.84,0.2,3.74,0.01,5.58
				c-0.18,1.77-1.04,3.72-2.98,4.03c-0.53,0.08-0.83,0.75-0.7,1.23c0.16,0.57,0.69,0.78,1.23,0.7c1.92-0.3,3.33-1.9,3.97-3.66
				c0.74-2,0.56-4.27,0.51-6.36c-0.1-4-0.37-8.1-1.63-11.92c-0.72-2.18-1.76-4.19-3.17-6c-0.33-0.43-1.07-0.35-1.41,0
				C162.29,224.91,162.38,225.48,162.71,225.9L162.71,225.9z"/>
		</g>
	</g>
	<g>
		<g>
			<path d="M184.7,225.3c-0.29,6.27-0.05,12.55,0.73,18.77c0.65-0.09,1.31-0.18,1.96-0.27c-0.86-2.17-2.07-4.47-4.26-5.54
				c-2.07-1.01-4.69-0.87-6.21,1.02c-1.37,1.7-1.71,4.22-1.65,6.34c0.04,1.21,0.33,2.4,1.13,3.34c0.81,0.95,2.03,1.49,3.21,1.83
				c2.77,0.79,5.78,0.42,8.31-0.91c1.14-0.6,0.13-2.33-1.01-1.73c-1.69,0.89-3.65,1.24-5.54,0.98c-1.75-0.24-3.76-0.93-4.06-2.89
				c-0.13-0.85-0.04-1.77,0.07-2.62c0.1-0.76,0.25-1.55,0.57-2.24c0.71-1.55,2.21-2.08,3.8-1.53c1.93,0.67,3,2.72,3.71,4.5
				c0.18,0.46,0.57,0.8,1.1,0.72c0.44-0.07,0.93-0.48,0.87-0.98c-0.78-6.22-1.02-12.51-0.73-18.77
				C186.76,224.02,184.76,224.02,184.7,225.3L184.7,225.3z"/>
		</g>
	</g>
	<g>
		<g>
			<path d="M193,233.76c1.92,3.12,3.84,6.24,5.76,9.36c0.87,1.42,1.66,3,2.77,4.25c1.01,1.14,2.41,1.81,3.87,1.11
				c1.16-0.56,0.15-2.28-1.01-1.73c-0.83,0.4-1.83-1.28-2.16-1.81c-0.84-1.37-1.68-2.73-2.53-4.1c-1.66-2.7-3.32-5.4-4.99-8.1
				C194.06,231.66,192.33,232.66,193,233.76L193,233.76z"/>
		</g>
	</g>
	<g>
		<g>
			<path d="M204.3,231.09c-2.57,3.84-5.14,7.68-7.71,11.52c-1.28,1.92-2.57,3.84-3.85,5.76c-0.73,1.09-3.17,4.01-0.71,4.77
				c1.23,0.38,1.76-1.55,0.53-1.93c0.01,0,0.02,0,0.03,0c0.12,0.12,0.24,0.24,0.36,0.36c0.19,0.27-0.1,0.18,0.05,0.02
				c0.12-0.12,0.2-0.32,0.29-0.46c0.28-0.41,0.55-0.82,0.83-1.23c0.57-0.86,1.15-1.71,1.72-2.57c1.12-1.68,2.25-3.36,3.37-5.04
				c2.27-3.4,4.54-6.79,6.81-10.19C206.74,231.02,205.01,230.02,204.3,231.09L204.3,231.09z"/>
		</g>
	</g>
	<g>
		<g>
			<path d="M219.4,237.92c3.51,0.15,7.03,0.29,10.54,0.44c1.29,0.05,1.28-1.95,0-2c-3.51-0.15-7.03-0.29-10.54-0.44
				C218.11,235.87,218.11,237.87,219.4,237.92L219.4,237.92z"/>
		</g>
	</g>
	<g>
		<g>
			<path d="M218.33,247.2c4.1-0.94,8.27-1.4,12.47-1.4c1.29,0,1.29-2,0-2c-4.37,0-8.74,0.49-13,1.47
				C216.55,245.56,217.08,247.49,218.33,247.2L218.33,247.2z"/>
		</g>
	</g>
	<g>
		<g>
			<g>
				<path d="M246.4,221.79c-0.15,1.31-0.3,2.63-0.45,3.94c-0.03,0.24,0.13,0.55,0.29,0.71c0.17,0.17,0.46,0.3,0.71,0.29
					c0.59-0.03,0.94-0.44,1-1c0.15-1.31,0.3-2.63,0.45-3.94c0.03-0.24-0.13-0.55-0.29-0.71c-0.17-0.17-0.46-0.3-0.71-0.29
					C246.81,220.82,246.47,221.23,246.4,221.79L246.4,221.79z"/>
			</g>
		</g>
		<g>
			<g>
				<path d="M246.54,231.01c-0.18,1.31-0.35,2.62-0.53,3.93c-0.03,0.23,0.13,0.55,0.29,0.71c0.17,0.17,0.46,0.3,0.71,0.29
					c0.26-0.01,0.53-0.1,0.71-0.29c0.19-0.21,0.26-0.43,0.29-0.71c0.18-1.31,0.35-2.62,0.53-3.93c0.03-0.23-0.13-0.55-0.29-0.71
					c-0.17-0.17-0.46-0.3-0.71-0.29c-0.26,0.01-0.53,0.1-0.71,0.29C246.64,230.51,246.57,230.73,246.54,231.01L246.54,231.01z"/>
			</g>
		</g>
		<g>
			<g>
				<path d="M246.02,241.08c0,0.88,0,1.75,0,2.63c0,0.52,0.46,1.02,1,1c0.54-0.02,1-0.44,1-1c0-0.88,0-1.75,0-2.63
					c0-0.52-0.46-1.02-1-1C246.48,240.11,246.02,240.52,246.02,241.08L246.02,241.08z"/>
			</g>
		</g>
		<g>
			<g>
				<path d="M245.24,249.86c-0.16,1.75-0.33,3.5-0.49,5.25c-0.05,0.52,0.5,1.02,1,1c0.58-0.03,0.95-0.44,1-1
					c0.16-1.75,0.33-3.5,0.49-5.25c0.05-0.52-0.5-1.02-1-1C245.65,248.88,245.29,249.3,245.24,249.86L245.24,249.86z"/>
			</g>
		</g>
		<g>
			<g>
				<path d="M246.87,260.65c0.44-0.43,0.89-0.87,1.33-1.3c0.18-0.18,0.29-0.45,0.29-0.71c0.01-0.14-0.02-0.27-0.09-0.39
					c-0.04-0.12-0.11-0.23-0.21-0.32c-0.19-0.17-0.44-0.3-0.71-0.29c-0.27,0.01-0.51,0.1-0.71,0.29c-0.44,0.43-0.89,0.87-1.33,1.3
					c-0.18,0.18-0.29,0.45-0.29,0.71c-0.01,0.14,0.02,0.27,0.09,0.39c0.04,0.12,0.11,0.23,0.21,0.32c0.19,0.17,0.44,0.3,0.71,0.29
					C246.43,260.93,246.67,260.84,246.87,260.65L246.87,260.65z"/>
			</g>
		</g>
		<g>
			<g>
				<path d="M249.89,260.34c1.46,0.85,3.2,1.24,4.88,1.02c0.28-0.04,0.5-0.09,0.71-0.29c0.17-0.17,0.3-0.46,0.29-0.71
					c-0.02-0.48-0.44-1.07-1-1c-0.38,0.05-0.75,0.07-1.13,0.06c-0.18-0.01-0.35-0.02-0.53-0.04c-0.23-0.02,0.18,0.03-0.03,0
					c-0.1-0.02-0.2-0.03-0.3-0.05c-0.35-0.07-0.69-0.17-1.02-0.29c-0.05-0.02-0.37-0.13-0.11-0.04c-0.07-0.02-0.14-0.06-0.21-0.09
					c-0.18-0.09-0.36-0.18-0.54-0.28c-0.45-0.26-1.12-0.12-1.37,0.36C249.27,259.45,249.4,260.06,249.89,260.34L249.89,260.34z"/>
			</g>
		</g>
		<g>
			<g>
				<path d="M259.46,261.52c0.36,0.32,0.79,0.58,1.27,0.69c0.48,0.11,0.98,0.11,1.46-0.02c0.24-0.07,0.47-0.24,0.6-0.46
					c0.13-0.21,0.18-0.53,0.1-0.77c-0.08-0.24-0.23-0.48-0.46-0.6c-0.24-0.13-0.51-0.17-0.77-0.1c-0.09,0.02-0.17,0.04-0.26,0.05
					c0.09-0.01,0.18-0.02,0.27-0.04c-0.16,0.02-0.32,0.02-0.48,0c0.09,0.01,0.18,0.02,0.27,0.04c-0.17-0.02-0.33-0.07-0.49-0.13
					c0.08,0.03,0.16,0.07,0.24,0.1c-0.15-0.06-0.29-0.14-0.42-0.24c0.07,0.05,0.13,0.1,0.2,0.16c-0.04-0.03-0.07-0.06-0.1-0.09
					c-0.2-0.18-0.44-0.29-0.71-0.29c-0.25,0-0.54,0.11-0.71,0.29c-0.17,0.19-0.3,0.44-0.29,0.71
					C259.18,261.07,259.26,261.35,259.46,261.52L259.46,261.52z"/>
			</g>
		</g>
		<g>
			<g>
				<path d="M267.03,262.29c1.02-0.15,2.04-0.3,3.07-0.46c0.23-0.03,0.49-0.27,0.6-0.46c0.13-0.21,0.18-0.53,0.1-0.77
					c-0.08-0.24-0.23-0.48-0.46-0.6c-0.25-0.13-0.49-0.14-0.77-0.1c-1.02,0.15-2.04,0.3-3.07,0.46c-0.23,0.03-0.49,0.27-0.6,0.46
					c-0.13,0.21-0.18,0.53-0.1,0.77c0.08,0.24,0.23,0.48,0.46,0.6C266.51,262.32,266.74,262.33,267.03,262.29L267.03,262.29z"/>
			</g>
		</g>
		<g>
			<g>
				<path d="M272.61,261.08c0.25,0.19,0.5,0.38,0.77,0.53c0.28,0.15,0.58,0.28,0.89,0.38c0.53,0.18,1.12,0.26,1.68,0.25
					c0.26-0.01,0.52-0.11,0.71-0.29c0.17-0.17,0.3-0.46,0.29-0.71c-0.02-0.53-0.44-1.01-1-1c-0.22,0.01-0.44-0.01-0.66-0.04
					c0.09,0.01,0.18,0.02,0.27,0.04c-0.35-0.05-0.69-0.14-1.02-0.28c0.08,0.03,0.16,0.07,0.24,0.1c-0.33-0.14-0.63-0.32-0.92-0.53
					c0.07,0.05,0.13,0.1,0.2,0.16c-0.01-0.01-0.02-0.02-0.03-0.03c-0.22-0.17-0.42-0.29-0.71-0.29c-0.25,0-0.54,0.11-0.71,0.29
					c-0.17,0.19-0.3,0.44-0.29,0.71C272.33,260.62,272.41,260.92,272.61,261.08L272.61,261.08z"/>
			</g>
		</g>
		<g>
			<g>
				<path d="M278.58,261.81c1.02,0,2.05,0,3.07,0c0.52,0,1.02-0.46,1-1c-0.02-0.54-0.44-1-1-1c-1.02,0-2.05,0-3.07,0
					c-0.52,0-1.02,0.46-1,1C277.61,261.35,278.02,261.81,278.58,261.81L278.58,261.81z"/>
			</g>
		</g>
		<g>
			<g>
				<path d="M284.97,260.54c0.64,1.22,2.37,1.67,3.53,0.94c0.22-0.14,0.39-0.35,0.46-0.6c0.07-0.24,0.04-0.56-0.1-0.77
					c-0.14-0.21-0.34-0.4-0.6-0.46c-0.26-0.06-0.54-0.04-0.77,0.1c-0.07,0.04-0.14,0.08-0.22,0.11c0.08-0.03,0.16-0.07,0.24-0.1
					c-0.12,0.05-0.24,0.08-0.36,0.09c0.09-0.01,0.18-0.02,0.27-0.04c-0.14,0.02-0.27,0.01-0.41,0c0.09,0.01,0.18,0.02,0.27,0.04
					c-0.14-0.02-0.28-0.06-0.42-0.11c0.08,0.03,0.16,0.07,0.24,0.1c-0.13-0.06-0.26-0.13-0.37-0.22c0.07,0.05,0.13,0.1,0.2,0.16
					c-0.09-0.07-0.17-0.16-0.25-0.25c0.05,0.07,0.1,0.13,0.16,0.2c-0.05-0.07-0.09-0.13-0.13-0.21c-0.11-0.22-0.37-0.4-0.6-0.46
					c-0.24-0.07-0.56-0.04-0.77,0.1C284.86,259.47,284.71,260.04,284.97,260.54L284.97,260.54z"/>
			</g>
		</g>
		<g>
			<g>
				<path d="M289.08,257.93c-0.35-1.63-0.7-3.25-1.06-4.88c-0.11-0.51-0.74-0.86-1.23-0.7c-0.54,0.17-0.82,0.68-0.7,1.23
					c0.35,1.63,0.7,3.25,1.06,4.88c0.11,0.51,0.74,0.86,1.23,0.7C288.92,258.99,289.2,258.48,289.08,257.93L289.08,257.93z"/>
			</g>
		</g>
		<g>
			<g>
				<path d="M287.17,248.27c-0.03-0.03-0.06-0.07-0.09-0.1c0.05,0.07,0.1,0.13,0.16,0.2c-0.1-0.13-0.18-0.27-0.24-0.42
					c0.03,0.08,0.07,0.16,0.1,0.24c-0.07-0.16-0.11-0.32-0.13-0.49c0.01,0.09,0.02,0.18,0.04,0.27c-0.02-0.16-0.02-0.32,0-0.48
					c-0.01,0.09-0.02,0.18-0.04,0.27c0.01-0.09,0.03-0.18,0.05-0.26c0.07-0.25,0.03-0.55-0.1-0.77c-0.12-0.21-0.36-0.41-0.6-0.46
					c-0.26-0.06-0.54-0.05-0.77,0.1c-0.22,0.14-0.39,0.34-0.46,0.6c-0.13,0.48-0.13,0.98-0.02,1.46c0.11,0.48,0.36,0.91,0.69,1.27
					c0.17,0.18,0.46,0.29,0.71,0.29c0.25,0,0.54-0.11,0.71-0.29c0.17-0.19,0.3-0.44,0.29-0.71
					C287.45,248.71,287.36,248.48,287.17,248.27L287.17,248.27z"/>
			</g>
		</g>
		<g>
			<g>
				<path d="M286.46,241.72c-0.21-0.9-0.42-1.79-0.63-2.69c-0.12-0.51-0.73-0.86-1.23-0.7c-0.53,0.17-0.83,0.68-0.7,1.23
					c0.21,0.9,0.42,1.79,0.63,2.69c0.12,0.51,0.73,0.86,1.23,0.7C286.29,242.78,286.58,242.26,286.46,241.72L286.46,241.72z"/>
			</g>
		</g>
		<g>
			<g>
				<path d="M285.72,236.26c0-0.88,0-1.75,0-2.63c0-0.52-0.46-1.02-1-1c-0.54,0.02-1,0.44-1,1c0,0.88,0,1.75,0,2.63
					c0,0.52,0.46,1.02,1,1C285.26,237.24,285.72,236.82,285.72,236.26L285.72,236.26z"/>
			</g>
		</g>
		<g>
			<g>
				<path d="M285.64,229.06c0.28-1.17,0.55-2.34,0.83-3.52c0.12-0.51-0.16-1.11-0.7-1.23c-0.51-0.12-1.1,0.15-1.23,0.7
					c-0.28,1.17-0.55,2.34-0.83,3.52c-0.12,0.51,0.16,1.11,0.7,1.23C284.92,229.88,285.51,229.61,285.64,229.06L285.64,229.06z"/>
			</g>
		</g>
		<g>
			<g>
				<path d="M286.58,223.27c-0.29-0.73-0.57-1.47-0.86-2.2c-0.1-0.25-0.22-0.46-0.46-0.6c-0.21-0.13-0.53-0.18-0.77-0.1
					c-0.24,0.08-0.48,0.23-0.6,0.46c-0.12,0.22-0.2,0.52-0.1,0.77c0.29,0.73,0.57,1.47,0.86,2.2c0.1,0.25,0.22,0.46,0.46,0.6
					c0.21,0.13,0.53,0.18,0.77,0.1c0.24-0.08,0.48-0.23,0.6-0.46C286.6,223.82,286.68,223.52,286.58,223.27L286.58,223.27z"/>
			</g>
		</g>
		<g>
			<g>
				<path d="M284.11,219.9c0-0.15,0-0.29,0-0.44c0.01-0.14-0.02-0.27-0.09-0.39c-0.04-0.12-0.11-0.23-0.21-0.32
					c-0.09-0.1-0.2-0.17-0.32-0.21c-0.12-0.06-0.25-0.09-0.39-0.09c-0.09,0.01-0.18,0.02-0.27,0.04c-0.17,0.05-0.32,0.13-0.44,0.26
					c-0.05,0.07-0.1,0.13-0.16,0.2c-0.09,0.16-0.14,0.32-0.14,0.5c0,0.15,0,0.29,0,0.44c-0.01,0.14,0.02,0.27,0.09,0.39
					c0.04,0.12,0.11,0.23,0.21,0.32c0.09,0.1,0.2,0.17,0.32,0.21c0.12,0.06,0.25,0.09,0.39,0.09c0.09-0.01,0.18-0.02,0.27-0.04
					c0.17-0.05,0.32-0.13,0.44-0.26c0.05-0.07,0.1-0.13,0.16-0.2C284.07,220.24,284.11,220.08,284.11,219.9L284.11,219.9z"/>
			</g>
		</g>
		<g>
			<g>
				<path d="M280.34,218.6c-0.88,0-1.75,0-2.63,0c-0.52,0-1.02,0.46-1,1c0.02,0.54,0.44,1,1,1c0.88,0,1.75,0,2.63,0
					c0.52,0,1.02-0.46,1-1C281.31,219.06,280.9,218.6,280.34,218.6L280.34,218.6z"/>
			</g>
		</g>
		<g>
			<g>
				<path d="M272.01,219.04c-0.88,0-1.75,0-2.63,0c-0.52,0-1.02,0.46-1,1c0.02,0.54,0.44,1,1,1c0.88,0,1.75,0,2.63,0
					c0.52,0,1.02-0.46,1-1C272.98,219.5,272.57,219.04,272.01,219.04L272.01,219.04z"/>
			</g>
		</g>
		<g>
			<g>
				<path d="M262.74,220.06c-0.1,0.05-0.19,0.09-0.29,0.14c0.08-0.03,0.16-0.07,0.24-0.1c-0.35,0.15-0.72,0.25-1.1,0.3
					c0.09-0.01,0.18-0.02,0.27-0.04c-0.37,0.05-0.73,0.05-1.1,0c0.09,0.01,0.18,0.02,0.27,0.04c-0.05-0.01-0.09-0.01-0.14-0.02
					c-0.27-0.04-0.52-0.04-0.77,0.1c-0.21,0.12-0.41,0.36-0.46,0.6c-0.06,0.26-0.05,0.54,0.1,0.77c0.13,0.2,0.35,0.42,0.6,0.46
					c0.32,0.05,0.63,0.09,0.95,0.09c0.3,0,0.61-0.04,0.91-0.09c0.54-0.08,1.06-0.28,1.54-0.53c0.47-0.24,0.64-0.93,0.36-1.37
					C263.8,219.94,263.24,219.81,262.74,220.06L262.74,220.06z"/>
			</g>
		</g>
		<g>
			<g>
				<path d="M254.65,219.54c-0.88,0.15-1.75,0.29-2.63,0.44c-0.23,0.04-0.48,0.26-0.6,0.46c-0.13,0.21-0.18,0.53-0.1,0.77
					c0.08,0.24,0.23,0.48,0.46,0.6c0.25,0.13,0.49,0.15,0.77,0.1c0.88-0.15,1.75-0.29,2.63-0.44c0.23-0.04,0.48-0.26,0.6-0.46
					c0.13-0.21,0.18-0.53,0.1-0.77c-0.08-0.24-0.23-0.48-0.46-0.6C255.17,219.51,254.93,219.49,254.65,219.54L254.65,219.54z"/>
			</g>
		</g>
		<g>
			<g>
				<path d="M249.36,219.04c-0.15,0-0.29,0-0.44,0c-0.14-0.01-0.27,0.02-0.39,0.09c-0.12,0.04-0.23,0.11-0.32,0.21
					c-0.1,0.09-0.17,0.2-0.21,0.32c-0.06,0.12-0.09,0.25-0.09,0.39c0.01,0.09,0.02,0.18,0.04,0.27c0.05,0.17,0.13,0.32,0.26,0.44
					c0.07,0.05,0.13,0.1,0.2,0.16c0.16,0.09,0.32,0.14,0.5,0.14c0.15,0,0.29,0,0.44,0c0.14,0.01,0.27-0.02,0.39-0.09
					c0.12-0.04,0.23-0.11,0.32-0.21c0.1-0.09,0.17-0.2,0.21-0.32c0.06-0.12,0.09-0.25,0.09-0.39c-0.01-0.09-0.02-0.18-0.04-0.27
					c-0.05-0.17-0.13-0.32-0.26-0.44c-0.07-0.05-0.13-0.1-0.2-0.16C249.71,219.09,249.54,219.04,249.36,219.04L249.36,219.04z"/>
			</g>
		</g>
		<g>
			<g>
				<path d="M245.95,250.93c2.49,2.92,4.97,5.85,7.46,8.77c0.21,0.25,0.67,0.38,0.97,0.26c0.93-0.36,1.42-1.39,0.88-2.3
					c-0.65-1.11-2.38-0.1-1.73,1.01c-0.16-0.27,0.08-0.55,0.31-0.64c0.32,0.09,0.65,0.17,0.97,0.26c-2.49-2.92-4.97-5.85-7.46-8.77
					c-0.35-0.41-1.05-0.36-1.41,0C245.54,249.93,245.6,250.52,245.95,250.93L245.95,250.93z"/>
			</g>
		</g>
		<g>
			<g>
				<path d="M247.83,241.54c5.68,7.09,12.07,13.6,19.04,19.43c0.58,0.48,1.43,0.32,1.67-0.44c0.23-0.72,0.23-1.43,0.09-2.16
					c-0.26-1.26-2.18-0.73-1.93,0.53c0.08,0.38,0.03,0.72-0.09,1.09c0.56-0.15,1.11-0.29,1.67-0.44
					c-6.97-5.83-13.35-12.34-19.04-19.43c-0.34-0.42-1.06-0.35-1.41,0C247.41,240.54,247.49,241.11,247.83,241.54L247.83,241.54z"/>
			</g>
		</g>
		<g>
			<g>
				<path d="M248.95,229.37c6.38,8.57,13.12,16.87,20.21,24.86c2.01,2.26,4.04,4.49,6.11,6.7c0.47,0.5,1.22,0.3,1.57-0.2
					c0.77-1.1,0.76-2.69-0.03-3.77c-0.32-0.43-0.87-0.65-1.37-0.36c-0.43,0.25-0.68,0.93-0.36,1.37c0.41,0.56,0.43,1.18,0.03,1.75
					c0.52-0.07,1.05-0.13,1.57-0.2c-7.19-7.7-14.06-15.72-20.56-24.02c-1.85-2.36-3.66-4.74-5.45-7.14
					c-0.32-0.43-0.87-0.65-1.37-0.36C248.89,228.25,248.63,228.93,248.95,229.37L248.95,229.37z"/>
			</g>
		</g>
		<g>
			<g>
				<path d="M254.8,221.49c4.53,5.34,8.21,11.32,11.9,17.25c3.69,5.94,7.42,11.9,12,17.21c1.26,1.46,2.57,2.86,3.96,4.19
					c0.64,0.61,1.5,1.47,2.32,0.58c0.71-0.78,0.25-2.01-0.81-2.06c-1.29-0.06-1.28,1.94,0,2c0.03,0,0.06,0,0.08,0
					c-0.17-0.05-0.34-0.09-0.5-0.14c0.02,0.01,0.03,0.03,0.05,0.04c-0.15-0.2-0.31-0.4-0.46-0.6c0.11-0.24,0.21-0.48,0.32-0.72
					c0.17-0.05,0.34-0.09,0.5-0.14c-0.02,0-0.04,0-0.07,0c0.17,0.05,0.34,0.09,0.5,0.14c-0.58-0.42-1.11-1.07-1.62-1.59
					c-0.57-0.58-1.13-1.16-1.67-1.76c-1.04-1.15-2.04-2.33-3.01-3.54c-1.93-2.42-3.69-4.97-5.39-7.55
					c-3.49-5.3-6.67-10.78-10.2-16.05c-2.02-3-4.15-5.93-6.49-8.69C255.38,219.09,253.97,220.51,254.8,221.49L254.8,221.49z"/>
			</g>
		</g>
		<g>
			<g>
				<path d="M266.17,223.63c6.01,7.27,11.1,15.3,15.17,23.81c0.48,1.01,1.05,2.38,2.36,2.46c1.21,0.07,2.16-0.97,1.9-2.16
					c-0.28-1.26-2.2-0.72-1.93,0.53c-0.04-0.17,0.21-0.43,0.21-0.36c0,0.01-0.1-0.12-0.16-0.2c-0.28-0.37-0.45-0.87-0.65-1.29
					c-0.44-0.92-0.89-1.83-1.35-2.74c-0.96-1.88-1.97-3.73-3.02-5.55c-2.07-3.56-4.32-7.02-6.76-10.34
					c-1.39-1.9-2.85-3.77-4.35-5.58C266.77,221.23,265.36,222.65,266.17,223.63L266.17,223.63z"/>
			</g>
		</g>
		<g>
			<g>
				<path d="M275.89,222.49c1.65,4.12,4.08,7.86,7.21,11c0.91,0.91,2.32-0.5,1.41-1.41c-2.88-2.88-5.18-6.33-6.7-10.12
					c-0.2-0.5-0.67-0.85-1.23-0.7C276.12,221.39,275.69,221.98,275.89,222.49L275.89,222.49z"/>
			</g>
		</g>
	</g>
</g>
</svg>
