<?xml version="1.0" encoding="utf-8"?>
<!-- Generator: Adobe Illustrator 23.1.1, SVG Export Plug-In . SVG Version: 6.00 Build 0)  -->
<svg version="1.1" id="Layer_1" xmlns="http://www.w3.org/2000/svg" xmlns:xlink="http://www.w3.org/1999/xlink" x="0px" y="0px"
	 viewBox="0 0 288 216" style="enable-background:new 0 0 288 216;" xml:space="preserve">
<style type="text/css">
	.st0{fill:#939598;}
	.st1{fill:#6D6E71;}
	.st2{display:none;}
	.st3{display:inline;}
	.st4{fill:#58595B;}
</style>
<g>
	<g>
		<g>
			<path class="st0" d="M31.96,47.04c0.75-1.16,1.59-2.25,2.52-3.27c0.49-0.54,1-1.06,1.54-1.55c0.46-0.43,1.1-0.84,1.48-1.27
				c-0.09,0.1-0.24-0.18-0.03,0.07c0.06,0.07,0.38,0.37,0.53,0.53c0.46,0.47,0.9,0.96,1.3,1.49c0.82,1.1,1.51,2.32,1.99,3.61
				c0.28,0.76,1.02,1.28,1.85,1.05c0.73-0.2,1.33-1.08,1.05-1.85c-0.63-1.71-1.48-3.28-2.6-4.73c-1.02-1.33-2.46-3.3-4.34-3.18
				c-1.04,0.07-1.83,0.79-2.58,1.44c-0.66,0.57-1.29,1.17-1.89,1.8c-1.27,1.33-2.42,2.79-3.42,4.34c-0.44,0.68-0.14,1.66,0.54,2.05
				C30.64,48.01,31.52,47.73,31.96,47.04L31.96,47.04z"/>
		</g>
	</g>
	<g>
		<g>
			<path class="st0" d="M30.34,184.49c1.57,2.37,3.45,4.51,5.58,6.39c0.65,0.57,1.47,0.55,2.12,0c2.89-2.45,5.79-4.89,8.68-7.34
				c0.62-0.52,0.54-1.58,0-2.12c-0.61-0.61-1.5-0.52-2.12,0c-2.89,2.45-5.79,4.89-8.68,7.34c0.71,0,1.41,0,2.12,0
				c-1.94-1.71-3.68-3.63-5.11-5.78c-0.45-0.67-1.32-0.96-2.05-0.54C30.21,182.83,29.89,183.81,30.34,184.49L30.34,184.49z"/>
		</g>
	</g>
	<g>
		<g>
			<path class="st0" d="M36.3,40.53c-1.47,10.13-1.48,20.37-1.03,30.58c0.45,10.2,1.31,20.39,1.44,30.61
				c0.13,10.27-0.56,20.54-0.76,30.81c-0.2,10.4-0.14,20.8,0.04,31.2c0.09,5.15,0.21,10.3,0.34,15.45c0.06,2.6,0.13,5.2,0.2,7.8
				c0.03,1.17,0.1,2.4,1.3,2.97c1.19,0.57,2.53-0.32,2.53-1.63c0-1.37-1.34-2.04-2.51-1.48c-0.73,0.35-0.92,1.4-0.54,2.05
				c0.44,0.75,1.32,0.89,2.05,0.54c0.03-0.01,0.06-0.03,0.09-0.04c-0.39,0.05-0.77,0.1-1.16,0.15c0.02,0,0.05,0.01,0.07,0.01
				c-0.22-0.13-0.44-0.26-0.66-0.39c0.02,0.02,0.03,0.03,0.05,0.05c-0.13-0.22-0.26-0.44-0.39-0.66c-0.01-0.15-0.02-0.29,0-0.44
				c0.13-0.22,0.26-0.44,0.39-0.66c0.05-0.04,0.11-0.08,0.16-0.12c0.25-0.07,0.5-0.14,0.76-0.2c0.05,0,0.09,0,0.14,0
				c0.22,0.13,0.44,0.26,0.66,0.39c0,0,0.09,0.19,0.08,0.2c0.08-0.09-0.02-0.75-0.02-0.88c-0.02-0.59-0.03-1.18-0.05-1.77
				c-0.03-1.28-0.07-2.55-0.1-3.83c-0.06-2.45-0.12-4.91-0.18-7.36c-0.11-4.81-0.21-9.62-0.28-14.42
				c-0.14-9.62-0.15-19.23,0.06-28.85c0.22-9.63,0.84-19.26,0.72-28.9c-0.12-9.49-0.87-18.96-1.34-28.43
				c-0.53-10.64-0.71-21.39,0.82-31.96c0.12-0.8-0.2-1.61-1.05-1.85C37.44,39.29,36.41,39.72,36.3,40.53L36.3,40.53z"/>
		</g>
	</g>
</g>
<g>
	<g>
		<g>
			<path class="st0" d="M13.23,162.02c15.76-3.04,31.67,1.29,47.36,2.66c16.04,1.4,32.15,0.19,48.14-1.28
				c16.22-1.5,32.46-3.29,48.77-2.89c7.96,0.19,15.89,0.8,23.84,1.19c8.11,0.41,16.24,0.64,24.36,0.86
				c9.13,0.24,18.25,0.49,27.38,0.73c9.13,0.24,18.28,0.38,27.4-0.37c1.91-0.16,1.93-3.16,0-3c-8.14,0.67-16.3,0.63-24.46,0.44
				c-8.15-0.19-16.31-0.43-24.46-0.64c-8.13-0.22-16.25-0.42-24.37-0.75c-8.12-0.33-16.22-0.92-24.33-1.27
				c-16.33-0.71-32.53,0.67-48.77,2.21c-16.16,1.52-32.4,3.04-48.64,2.13c-17.64-0.99-35.34-6.32-53.02-2.9
				C10.53,159.49,11.34,162.39,13.23,162.02L13.23,162.02z"/>
		</g>
	</g>
	<g>
		<g>
			<path class="st0" d="M22.38,150.66c-2.6-0.33-4.61,1.92-6.34,3.51c-2,1.84-3.99,3.68-5.99,5.52c-0.88,0.81-0.35,2.16,0.66,2.51
				c3.7,1.27,7.08,3.35,9.88,6.07c1.39,1.34,3.51-0.77,2.12-2.12c-3.19-3.09-7.01-5.4-11.21-6.84c0.22,0.84,0.44,1.67,0.66,2.51
				c1.82-1.67,3.63-3.34,5.45-5.02c0.85-0.78,1.67-1.63,2.58-2.34c0.68-0.54,1.34-0.89,2.18-0.79c0.81,0.1,1.5-0.76,1.5-1.5
				C23.88,151.27,23.19,150.76,22.38,150.66L22.38,150.66z"/>
		</g>
	</g>
	<g>
		<g>
			<path class="st0" d="M254.41,156.25c3.1,1.8,6.2,3.6,9.3,5.4c-0.1-0.79-0.2-1.57-0.3-2.36c-2.39,3.08-4.78,6.17-7.17,9.25
				c-0.5,0.64-0.62,1.5,0,2.12c0.52,0.52,1.62,0.64,2.12,0c2.39-3.08,4.78-6.17,7.17-9.25c0.58-0.75,0.62-1.82-0.3-2.36
				c-3.1-1.8-6.2-3.6-9.3-5.4C254.25,152.68,252.74,155.28,254.41,156.25L254.41,156.25z"/>
		</g>
	</g>
</g>
<g>
	<g>
		<g>
			<path d="M14.06,110.87c-0.27,4.97,0.77,9.87,2.88,14.36c0.3,0.64,1.11,0.56,1.57,0.2c2.46-1.95,4.94-3.88,7.48-5.74
				c1.74-1.27,3.61-2.36,5-4.04c0.82-0.98-0.59-2.4-1.41-1.41c-1.35,1.62-3.17,2.67-4.85,3.91c-2.58,1.9-5.11,3.87-7.63,5.86
				c0.52,0.07,1.05,0.13,1.57,0.2c-1.97-4.17-2.86-8.75-2.61-13.35C16.13,109.58,14.13,109.58,14.06,110.87L14.06,110.87z"/>
		</g>
	</g>
	<g>
		<g>
			<path d="M229.52,57.16c4.89-1.98,9.77-3.96,14.66-5.94c-0.41-0.23-0.82-0.47-1.23-0.7c1.45,5.01,1.36,10.33-0.24,15.29
				c-0.4,1.23,1.54,1.75,1.93,0.53c1.7-5.28,1.78-11.02,0.24-16.35c-0.14-0.47-0.72-0.9-1.23-0.7c-4.89,1.98-9.77,3.96-14.66,5.94
				c-0.5,0.2-0.85,0.67-0.7,1.23C228.42,56.93,229.02,57.36,229.52,57.16L229.52,57.16z"/>
		</g>
	</g>
	<g>
		<g>
			<path d="M19.36,123.24c3.78-7.48,7.77-14.89,12.63-21.74c4.67-6.59,10.26-12.77,17.24-16.97c7.76-4.67,16.77-6.21,25.69-4.66
				c10.14,1.76,19.39,6.71,27.95,12.25c8.44,5.47,16.49,11.58,25.41,16.25c8.36,4.38,17.37,7.11,26.8,7.76
				c9.18,0.63,18.53-0.64,27.2-3.73c8.58-3.06,16.26-7.94,23-14.04c13.35-12.1,22.62-27.8,34.23-41.42c1.45-1.7,2.94-3.37,4.47-4.99
				c0.88-0.94-0.53-2.35-1.41-1.41c-12.37,13.15-21.55,28.93-34.09,41.93c-6.34,6.57-13.56,12.25-21.9,16.06
				c-8.47,3.87-17.82,5.8-27.13,5.77c-9.62-0.03-19.06-2.22-27.72-6.4c-9.01-4.35-17.09-10.34-25.39-15.86
				c-8.48-5.64-17.46-10.85-27.43-13.34c-8.92-2.22-18.21-1.84-26.63,1.98c-15.02,6.81-24.4,22.09-31.82,36.09
				c-0.96,1.82-1.9,3.64-2.83,5.48C17.06,123.37,18.78,124.39,19.36,123.24L19.36,123.24z"/>
		</g>
	</g>
</g>
<g>
	<g>
		<g>
			<path d="M234.25,44.38c-0.51-2.56-0.8-5.16-0.87-7.78c-0.06-2.39-0.02-4.91,0.95-7.14c0.77-1.74,2.2-3.34,4.1-3.82
				c1.76-0.44,3.95,0.32,4.69,2.07c0.25,0.58,1.21,0.33,0.96-0.27c-0.62-1.47-1.92-2.48-3.48-2.8c-1.68-0.35-3.35,0.12-4.69,1.16
				c-3.36,2.59-3.64,7.14-3.53,11.04c0.08,2.62,0.39,5.23,0.9,7.8C233.41,45.28,234.37,45.01,234.25,44.38L234.25,44.38z"/>
		</g>
	</g>
	<g>
		<g>
			<path d="M229.36,37.05c3.24-0.3,6.46-0.75,9.66-1.33c0.63-0.12,0.36-1.08-0.27-0.96c-3.11,0.57-6.24,1-9.39,1.29
				C228.73,36.11,228.72,37.11,229.36,37.05L229.36,37.05z"/>
		</g>
	</g>
	<g>
		<g>
			<path d="M248.73,25.12c-2.05,4.12-3.33,8.6-3.73,13.19c-0.18,2.06-0.16,4.39,1.1,6.13c1.04,1.44,2.8,2.36,4.58,1.91
				c0.62-0.16,0.36-1.12-0.27-0.96c-1.78,0.45-3.43-0.95-4.04-2.53c-0.69-1.79-0.48-3.81-0.26-5.67c0.48-4.02,1.68-7.94,3.48-11.57
				C249.88,25.05,249.02,24.54,248.73,25.12L248.73,25.12z"/>
		</g>
	</g>
	<g>
		<g>
			<path d="M251.61,29.84c1.96,4.3,4.7,8.22,8.06,11.55c0.46,0.45,1.17-0.25,0.71-0.71c-3.31-3.27-5.98-7.11-7.9-11.34
				C252.21,28.75,251.34,29.26,251.61,29.84L251.61,29.84z"/>
		</g>
	</g>
	<g>
		<g>
			<path d="M256.77,30.03c-1.77,3.87-3.55,7.73-5.32,11.6c-0.22,0.47,0.39,1.07,0.79,0.61c0.27-0.31,0.54-0.63,0.81-0.94
				c0.42-0.49-0.29-1.2-0.71-0.71c-0.27,0.31-0.54,0.63-0.81,0.94c0.26,0.2,0.52,0.4,0.79,0.61c1.77-3.87,3.55-7.73,5.32-11.6
				C257.9,29.95,257.04,29.44,256.77,30.03L256.77,30.03z"/>
		</g>
	</g>
	<g>
		<g>
			<path d="M259.54,27.35c4.03,4.47,4.8,11.44,1.87,16.69c-0.31,0.56,0.55,1.07,0.86,0.5c3.16-5.65,2.31-13.1-2.03-17.9
				C259.81,26.16,259.11,26.87,259.54,27.35L259.54,27.35z"/>
		</g>
	</g>
</g>
<g>
	<g>
		<g>
			<path d="M72.96,139.39c-0.02,0.26-0.05,0.52-0.07,0.79c-0.06,0.64,0.94,0.64,1,0c0.66-7.05,2.63-13.98,5.78-20.31
				c0.76-1.52,1.57-3.02,2.47-4.46c0.13-0.2,0.53-0.94,0.85-0.85c0.31,0.08,0.36,0.76,0.42,1.01c0.24,0.99,0.44,1.99,0.61,3
				c0.61,3.68,0.78,7.42,0.93,11.14c0.18,4.14,0.35,8.28,1.02,12.37c0.08,0.49,0.86,0.46,0.96,0c0.15-0.67,0.3-1.33,0.45-2
				c0.14-0.63-0.82-0.89-0.96-0.27c-0.15,0.67-0.3,1.33-0.45,2c0.32,0,0.64,0,0.96,0c-1.32-8.01-0.62-16.21-2.08-24.2
				c-0.18-0.97-0.35-1.98-0.64-2.92c-0.19-0.61-0.6-1.16-1.3-1.12c-0.72,0.04-1.23,0.68-1.58,1.24c-0.51,0.81-0.99,1.65-1.45,2.49
				c-1.82,3.31-3.31,6.8-4.46,10.39c-1.3,4.06-2.14,8.25-2.54,12.49c0.33,0,0.67,0,1,0c0.02-0.26,0.05-0.52,0.07-0.79
				C74.02,138.75,73.02,138.75,72.96,139.39L72.96,139.39z"/>
		</g>
	</g>
	<g>
		<g>
			<path d="M76.45,129.11c-0.26,0.1-0.53,0.2-0.79,0.3c-0.48,0.18-0.47,1.05,0.13,0.98c3.35-0.37,6.71-0.46,10.07-0.29
				c0.64,0.03,0.64-0.97,0-1c-3.36-0.17-6.73-0.07-10.07,0.29c0.04,0.33,0.09,0.65,0.13,0.98c0.26-0.1,0.53-0.2,0.79-0.3
				C77.31,129.85,77.05,128.88,76.45,129.11L76.45,129.11z"/>
		</g>
	</g>
	<g>
		<g>
			<path d="M97.24,114.37c-1.55,0.59-2.19,2.1-2.75,3.55c-0.77,1.96-1.45,3.97-1.92,6.02c-0.84,3.68-0.95,7.6,0.42,11.18
				c0.7,1.84,1.76,3.51,3.2,4.86c0.2,0.19,0.5,0.19,0.71,0c0.28-0.26,0.57-0.53,0.85-0.79c0.47-0.44-0.24-1.14-0.71-0.71
				c-0.28,0.26-0.57,0.53-0.85,0.79c0.24,0,0.47,0,0.71,0c-3.1-2.9-4.19-7.26-3.92-11.39c0.16-2.44,0.77-4.84,1.55-7.15
				c0.37-1.08,0.75-2.17,1.2-3.22c0.37-0.85,0.86-1.81,1.78-2.16C98.1,115.11,97.85,114.14,97.24,114.37L97.24,114.37z"/>
		</g>
	</g>
	<g>
		<g>
			<path d="M100.98,120.95c1.89,4.96,4.23,9.73,7,14.26c0.34,0.55,1.2,0.05,0.86-0.5c-2.72-4.45-5.04-9.14-6.9-14.02
				C101.72,120.09,100.75,120.35,100.98,120.95L100.98,120.95z"/>
		</g>
	</g>
	<g>
		<g>
			<path d="M109.43,119.66c-2.23,3.44-4.44,6.89-6.6,10.37c-1.07,1.72-2.13,3.45-3.19,5.19c-0.3,0.49-0.88,1.28-0.31,1.81
				c0.38,0.35,1.13,0.21,1.21-0.35c0.09-0.63-0.88-0.9-0.96-0.27c0.3,0.16,0.49,0.14,0.57-0.08c0.03-0.07,0.07-0.13,0.11-0.19
				c0.1-0.18,0.21-0.35,0.32-0.52c0.21-0.35,0.42-0.69,0.63-1.04c0.42-0.69,0.85-1.38,1.27-2.08c0.85-1.38,1.71-2.76,2.57-4.14
				c1.73-2.75,3.47-5.49,5.24-8.21C110.65,119.62,109.78,119.12,109.43,119.66L109.43,119.66z"/>
		</g>
	</g>
	<g>
		<g>
			<path d="M110.83,114.62c2.67,3.49,4.16,7.8,4.11,12.2c-0.05,4.34-1.61,8.62-4.32,12c-0.35,0.44,0.08,1.05,0.61,0.79
				c0.35-0.18,0.71-0.36,1.06-0.53c0.58-0.29,0.07-1.15-0.5-0.86c-0.35,0.18-0.71,0.36-1.06,0.53c0.2,0.26,0.4,0.52,0.61,0.79
				c4.5-5.6,5.85-13.26,3.34-20.02c-0.72-1.94-1.72-3.75-2.97-5.4C111.31,113.61,110.44,114.11,110.83,114.62L110.83,114.62z"/>
		</g>
	</g>
</g>
<g>
	<g>
		<g>
			<path d="M199.34,104.33c-0.27,1.5-0.55,3.01-0.82,4.51c-0.05,0.27,0.07,0.54,0.35,0.62c0.24,0.07,0.57-0.08,0.62-0.35
				c0.27-1.5,0.55-3.01,0.82-4.51c0.05-0.27-0.07-0.54-0.35-0.62C199.71,103.91,199.39,104.06,199.34,104.33L199.34,104.33z"/>
		</g>
	</g>
	<g>
		<g>
			<path d="M199.69,113.92c-0.54,1.5-0.41,3.19,0.31,4.61c0.12,0.24,0.46,0.31,0.68,0.18c0.24-0.14,0.3-0.44,0.18-0.68
				c-0.61-1.19-0.66-2.59-0.21-3.84c0.09-0.25-0.1-0.55-0.35-0.62C200.03,113.49,199.78,113.66,199.69,113.92L199.69,113.92z"/>
		</g>
	</g>
	<g>
		<g>
			<path d="M201.43,121.81c-0.2,1.25-0.28,2.52-0.24,3.79c0.01,0.27,0.22,0.5,0.5,0.5c0.26,0,0.51-0.23,0.5-0.5
				c-0.04-1.18,0.02-2.36,0.2-3.52c0.04-0.27-0.07-0.54-0.35-0.62C201.81,121.39,201.47,121.54,201.43,121.81L201.43,121.81z"/>
		</g>
	</g>
	<g>
		<g>
			<path d="M202.2,129.53c0,1.69,0,3.38,0,5.07c0,0.64,1,0.64,1,0c0-1.69,0-3.38,0-5.07C203.2,128.89,202.2,128.89,202.2,129.53
				L202.2,129.53z"/>
		</g>
	</g>
	<g>
		<g>
			<path d="M202.87,138.71c-0.32,1.3-0.64,2.61-0.97,3.91c-0.15,0.62,0.81,0.89,0.96,0.27c0.32-1.3,0.64-2.61,0.97-3.91
				C203.98,138.35,203.02,138.09,202.87,138.71L202.87,138.71z"/>
		</g>
	</g>
	<g>
		<g>
			<path d="M202.76,146.71c0,1.03,0,2.06,0,3.1c0,0.26,0.23,0.51,0.5,0.5c0.27-0.01,0.5-0.22,0.5-0.5c0-1.03,0-2.06,0-3.1
				c0-0.26-0.23-0.51-0.5-0.5C202.99,146.22,202.76,146.43,202.76,146.71L202.76,146.71z"/>
		</g>
	</g>
	<g>
		<g>
			<path d="M203.1,152.75c-0.12,0.75-0.23,1.49-0.35,2.24c-0.02,0.14-0.02,0.26,0.05,0.39c0.06,0.1,0.18,0.2,0.3,0.23
				c0.24,0.05,0.57-0.07,0.62-0.35c0.12-0.75,0.23-1.49,0.35-2.24c0.02-0.14,0.02-0.26-0.05-0.39c-0.06-0.1-0.18-0.2-0.3-0.23
				C203.48,152.34,203.14,152.47,203.1,152.75L203.1,152.75z"/>
		</g>
	</g>
</g>
<g>
	<g>
		<g>
			<path class="st1" d="M110.53,96.66c5.25,8.03,10.51,16.06,15.76,24.09c5.18,7.91,10.28,15.87,15.55,23.72
				c2.81,4.18,5.73,8.29,8.95,12.17c0.21,0.25,0.56-0.11,0.35-0.35c-5.85-7.02-10.7-14.81-15.7-22.44
				c-5.23-7.99-10.46-15.99-15.69-23.98c-2.93-4.48-5.87-8.97-8.8-13.45C110.78,96.14,110.35,96.39,110.53,96.66L110.53,96.66z"/>
		</g>
	</g>
	<g>
		<g>
			<path class="st1" d="M139.54,114.28c7.66,11.55,15.78,22.79,24.34,33.69c2.41,3.07,4.85,6.1,7.32,9.11
				c0.2,0.25,0.56-0.11,0.35-0.35c-8.77-10.68-17.11-21.7-25.01-33.04c-2.23-3.2-4.41-6.42-6.57-9.67
				C139.79,113.76,139.36,114.01,139.54,114.28L139.54,114.28z"/>
		</g>
	</g>
	<g>
		<g>
			<path class="st1" d="M163.35,116.43c6.56,11.12,14.06,21.67,22.4,31.52c2.35,2.78,4.78,5.51,7.26,8.18
				c0.22,0.24,0.57-0.12,0.35-0.35c-8.77-9.43-16.75-19.58-23.82-30.35c-1.99-3.04-3.91-6.12-5.76-9.25
				C163.61,115.9,163.18,116.15,163.35,116.43L163.35,116.43z"/>
		</g>
	</g>
	<g>
		<g>
			<path class="st1" d="M188.99,108.74c3.18,8.36,7.34,16.33,12.37,23.72c0.18,0.26,0.61,0.01,0.43-0.25
				c-5.01-7.36-9.15-15.29-12.32-23.6C189.36,108.31,188.88,108.44,188.99,108.74L188.99,108.74z"/>
		</g>
	</g>
	<g>
		<g>
			<path class="st1" d="M181.03,112.22c1.9,4.41,5.03,8.09,7.8,11.96c2.85,3.97,5.47,8.1,7.85,12.38c1.36,2.44,2.63,4.93,3.83,7.46
				c0.14,0.29,0.57,0.04,0.43-0.25c-2.11-4.46-4.47-8.81-7.09-12.99c-2.56-4.11-5.46-7.94-8.29-11.87c-1.57-2.19-3.03-4.46-4.1-6.93
				C181.34,111.68,180.91,111.93,181.03,112.22L181.03,112.22z"/>
		</g>
	</g>
	<g>
		<g>
			<path class="st1" d="M170.95,115.58c7.06,10.37,14.69,20.34,22.86,29.87c2.34,2.73,4.73,5.43,7.15,8.09
				c0.22,0.24,0.57-0.12,0.35-0.35c-8.5-9.32-16.49-19.1-23.91-29.3c-2.05-2.82-4.06-5.68-6.02-8.56
				C171.2,115.06,170.77,115.31,170.95,115.58L170.95,115.58z"/>
		</g>
	</g>
	<g>
		<g>
			<path class="st1" d="M153.21,115.58c6.64,11.52,13.55,22.9,20.72,34.1c2.01,3.15,4.04,6.28,6.1,9.4
				c0.18,0.27,0.61,0.02,0.43-0.25c-7.31-11.12-14.37-22.4-21.16-33.84c-1.9-3.21-3.79-6.43-5.65-9.66
				C153.48,115.05,153.05,115.3,153.21,115.58L153.21,115.58z"/>
		</g>
	</g>
	<g>
		<g>
			<path class="st1" d="M129.11,111.49c5.49,12.85,13.01,24.68,20.9,36.16c2.22,3.23,4.47,6.43,6.72,9.63
				c0.18,0.26,0.62,0.01,0.43-0.25c-8.02-11.41-16.06-22.87-22.57-35.23c-1.82-3.45-3.51-6.97-5.05-10.56
				C129.41,110.94,128.98,111.2,129.11,111.49L129.11,111.49z"/>
		</g>
	</g>
	<g>
		<g>
			<path class="st1" d="M123.94,136.76c0.2-0.84-1.4-0.86-1.2,0.2c0.06,0.34,0.3,0.62,0.5,0.89c0.33,0.44,0.66,0.88,0.99,1.32
				c0.61,0.82,1.21,1.65,1.81,2.48c2.35,3.29,4.59,6.65,6.7,10.1c1.21,1.97,2.38,3.96,3.51,5.98c0.16,0.28,0.59,0.03,0.43-0.25
				c-2.03-3.62-4.19-7.18-6.48-10.64c-1.12-1.7-2.28-3.39-3.46-5.05c-0.59-0.83-1.19-1.66-1.8-2.48c-0.33-0.44-0.66-0.88-0.99-1.32
				c-0.14-0.19-0.29-0.37-0.43-0.56c-0.08-0.1-0.15-0.2-0.21-0.31c-0.13-0.36-0.09-0.52,0.13-0.47
				C123.39,136.94,123.87,137.07,123.94,136.76L123.94,136.76z"/>
		</g>
	</g>
	<g>
		<g>
			<path class="st1" d="M117.49,144.07c3.58,4.59,6.79,9.46,9.6,14.55c0.16,0.28,0.59,0.03,0.43-0.25
				c-2.83-5.13-6.08-10.03-9.68-14.66C117.65,143.46,117.3,143.82,117.49,144.07L117.49,144.07z"/>
		</g>
	</g>
	<g>
		<g>
			<path class="st1" d="M108.16,145.14c2.45,5.5,5.58,10.67,9.29,15.41c0.15,0.19,0.41,0.01,0.43-0.18
				c0.02-0.21,0.05-0.42,0.07-0.63c0.04-0.32-0.46-0.32-0.5,0c-0.02,0.21-0.05,0.42-0.07,0.63c0.14-0.06,0.28-0.12,0.43-0.18
				c-3.68-4.71-6.78-9.85-9.21-15.31C108.46,144.6,108.03,144.85,108.16,145.14L108.16,145.14z"/>
		</g>
	</g>
	<g>
		<g>
			<path class="st1" d="M99.29,146.48c3.52,4.12,6.54,8.63,9.02,13.44c0.14,0.26,0.51,0.07,0.46-0.19c-0.05-0.23-0.09-0.47-0.14-0.7
				c-0.06-0.32-0.55-0.18-0.48,0.13c0.05,0.23,0.09,0.47,0.14,0.7c0.15-0.06,0.3-0.13,0.46-0.19c-2.5-4.85-5.55-9.39-9.09-13.54
				C99.43,145.88,99.08,146.24,99.29,146.48L99.29,146.48z"/>
		</g>
	</g>
	<g>
		<g>
			<path class="st1" d="M92.33,146.23c2.19,5.2,5.38,9.93,9.4,13.89c0.23,0.23,0.58-0.13,0.35-0.35c-3.96-3.89-7.12-8.55-9.27-13.66
				C92.69,145.8,92.21,145.93,92.33,146.23L92.33,146.23z"/>
		</g>
	</g>
	<g>
		<g>
			<path class="st1" d="M84.44,149.32c1.84,4.86,4.34,9.45,7.45,13.61c0.11,0.15,0.41,0.17,0.46-0.06c0.07-0.39,0.15-0.79,0.22-1.18
				c0.06-0.31-0.42-0.45-0.48-0.13c-0.07,0.39-0.15,0.79-0.22,1.18c0.15-0.02,0.3-0.04,0.46-0.06c-3.08-4.13-5.58-8.67-7.4-13.5
				C84.81,148.89,84.33,149.02,84.44,149.32L84.44,149.32z"/>
		</g>
	</g>
	<g>
		<g>
			<path class="st1" d="M40.02,102.63c4.32,8.19,8.98,16.2,13.96,24.01c4.95,7.75,10.22,15.3,15.8,22.62
				c3.12,4.09,6.33,8.11,9.63,12.05c0.21,0.25,0.56-0.11,0.35-0.35c-5.91-7.05-11.53-14.35-16.83-21.87
				c-5.28-7.5-10.26-15.21-14.91-23.12c-2.63-4.47-5.15-9-7.57-13.59C40.3,102.09,39.87,102.34,40.02,102.63L40.02,102.63z"/>
		</g>
	</g>
	<g>
		<g>
			<path class="st1" d="M40.45,117.19c5.72,11.79,12.23,23.2,19.49,34.12c2.06,3.1,4.18,6.16,6.36,9.18
				c0.19,0.26,0.62,0.01,0.43-0.25c-7.66-10.64-14.61-21.78-20.78-33.35c-1.75-3.28-3.44-6.6-5.06-9.95
				C40.74,116.65,40.31,116.9,40.45,117.19L40.45,117.19z"/>
		</g>
	</g>
	<g>
		<g>
			<path class="st1" d="M41.25,129.61c4.11,9.09,9.06,17.79,14.8,25.95c1.59,2.26,3.25,4.49,4.95,6.67c0.2,0.25,0.55-0.1,0.35-0.35
				c-6.11-7.81-11.49-16.18-16.04-24.99c-1.28-2.47-2.49-4.98-3.64-7.52C41.55,129.07,41.12,129.32,41.25,129.61L41.25,129.61z"/>
		</g>
	</g>
	<g>
		<g>
			<path class="st1" d="M39.6,138.11c-0.17-0.36-0.54-0.17-0.67,0.12c-0.25,0.55,0.37,1.37,0.6,1.85c0.81,1.71,1.68,3.4,2.6,5.06
				c1.84,3.32,3.9,6.52,6.14,9.58c1.25,1.7,2.56,3.35,3.92,4.95c0.08,0.1,0.27,0.09,0.35,0c0.41-0.46,0.41-1.09-0.03-1.53
				c-0.23-0.23-0.58,0.13-0.35,0.35c0.24,0.24,0.26,0.57,0.03,0.83c0.12,0,0.24,0,0.35,0c-2.68-3.16-5.15-6.51-7.36-10.01
				c-1.07-1.7-2.09-3.43-3.05-5.2c-0.5-0.92-0.98-1.84-1.44-2.77c-0.23-0.47-0.46-0.93-0.68-1.41c-0.1-0.2-0.19-0.4-0.29-0.61
				c-0.06-0.13-0.13-0.27-0.19-0.41c-0.08-0.21-0.2-0.4-0.37-0.55C39.31,138.65,39.74,138.4,39.6,138.11L39.6,138.11z"/>
		</g>
	</g>
	<g>
		<g>
			<path class="st1" d="M93.56,88.16c2.32,3.42,4.8,6.78,6.9,10.34c1,1.7,1.79,3.48,2.55,5.29c0.71,1.69,1.46,3.36,2.55,4.84
				c0.19,0.25,0.61,0.02,0.43-0.25c-0.08-0.12-0.15-0.23-0.23-0.35c-0.17-0.27-0.61-0.02-0.43,0.25c0.08,0.12,0.15,0.23,0.23,0.35
				c0.14-0.08,0.29-0.17,0.43-0.25c-1.13-1.53-1.89-3.27-2.62-5.02c-0.74-1.75-1.51-3.47-2.48-5.11c-2.11-3.56-4.58-6.92-6.9-10.34
				C93.81,87.64,93.38,87.89,93.56,88.16L93.56,88.16z"/>
		</g>
	</g>
	<g>
		<g>
			<path class="st1" d="M74.94,79.82c2.73,4.19,5.46,8.38,8.19,12.57c2.55,3.92,5.17,7.76,6.89,12.14c0.76,1.93,1.58,3.88,3.26,5.19
				c0.25,0.2,0.61-0.16,0.35-0.35c-1.61-1.26-2.41-3.11-3.13-4.97c-0.77-1.97-1.67-3.85-2.74-5.67c-2.43-4.13-5.17-8.08-7.78-12.09
				c-1.53-2.36-3.07-4.71-4.6-7.07C75.19,79.3,74.76,79.55,74.94,79.82L74.94,79.82z"/>
		</g>
	</g>
	<g>
		<g>
			<path class="st1" d="M65.82,80.72c4.66,9.03,9.32,18.06,13.97,27.08c0.15,0.29,0.58,0.03,0.43-0.25
				c-4.66-9.03-9.32-18.06-13.97-27.08C66.1,80.19,65.67,80.44,65.82,80.72L65.82,80.72z"/>
		</g>
	</g>
	<g>
		<g>
			<path class="st1" d="M57.06,82.45c5.09,7.42,8.98,15.6,13.06,23.6c1.22,2.39,2.44,4.77,3.65,7.16c0.15,0.29,0.58,0.03,0.43-0.25
				c-2.14-4.19-4.27-8.37-6.41-12.56c-2.01-3.95-4.03-7.9-6.25-11.73c-1.28-2.2-2.62-4.37-4.06-6.47
				C57.31,81.93,56.88,82.18,57.06,82.45L57.06,82.45z"/>
		</g>
	</g>
	<g>
		<g>
			<path class="st1" d="M49.27,85.48c4.96,8.26,9.78,16.61,14.45,25.04c1.32,2.38,2.63,4.77,3.93,7.17
				c0.15,0.28,0.59,0.03,0.43-0.25c-4.59-8.47-9.32-16.87-14.2-25.18c-1.38-2.35-2.77-4.69-4.17-7.03
				C49.54,84.95,49.1,85.2,49.27,85.48L49.27,85.48z"/>
		</g>
	</g>
	<g>
		<g>
			<path class="st1" d="M41.96,90.54c4.53,9.59,9.57,18.94,15.1,27.98c1.56,2.55,3.15,5.07,4.79,7.57c0.18,0.27,0.61,0.02,0.43-0.25
				c-5.8-8.88-11.13-18.06-15.94-27.51c-1.36-2.66-2.67-5.34-3.94-8.04C42.26,89.99,41.83,90.25,41.96,90.54L41.96,90.54z"/>
		</g>
	</g>
	<g>
		<g>
			<path class="st1" d="M190.35,159.45c3.73-4.61,7.8-8.92,12.19-12.9c0.24-0.22-0.12-0.57-0.35-0.35
				c-4.39,3.98-8.47,8.29-12.19,12.9C189.8,159.34,190.15,159.7,190.35,159.45L190.35,159.45z"/>
		</g>
	</g>
	<g>
		<g>
			<path class="st1" d="M178.25,159.69c0.65-2.05,2.55-3.4,4.08-4.77c1.7-1.53,3.37-3.08,5.01-4.67c3.32-3.2,6.52-6.51,9.59-9.94
				c1.76-1.96,3.48-3.95,5.15-5.98c0.2-0.25-0.15-0.6-0.35-0.35c-6.02,7.28-12.57,14.11-19.59,20.43c-1.66,1.49-3.67,2.93-4.38,5.15
				C177.67,159.86,178.15,160,178.25,159.69L178.25,159.69z"/>
		</g>
	</g>
	<g>
		<g>
			<path class="st1" d="M170.52,157.18c2.16-5.23,7.13-8.7,11.18-12.39c4.47-4.08,8.75-8.38,12.8-12.88
				c2.31-2.56,4.54-5.19,6.7-7.88c0.2-0.25-0.15-0.6-0.35-0.35c-3.89,4.84-8.02,9.49-12.37,13.91c-2.2,2.24-4.47,4.42-6.78,6.55
				c-2.11,1.93-4.31,3.76-6.37,5.73c-2.17,2.08-4.12,4.39-5.27,7.19C169.91,157.34,170.39,157.47,170.52,157.18L170.52,157.18z"/>
		</g>
	</g>
	<g>
		<g>
			<path class="st1" d="M158.44,156.48c10.76-9.72,21.24-19.75,31.42-30.07c2.87-2.91,5.72-5.84,8.54-8.79
				c0.22-0.23-0.13-0.59-0.35-0.35c-10.02,10.48-20.33,20.68-30.93,30.58c-2.99,2.79-6,5.55-9.03,8.29
				C157.85,156.35,158.2,156.7,158.44,156.48L158.44,156.48z"/>
		</g>
	</g>
	<g>
		<g>
			<path class="st1" d="M149.1,153.9c6.41-5.78,12.79-11.59,19.14-17.43c6.35-5.84,12.67-11.72,18.95-17.64
				c3.53-3.32,7.05-6.66,10.57-10c0.23-0.22-0.12-0.58-0.35-0.35c-6.25,5.95-12.53,11.87-18.85,17.75
				c-6.31,5.88-12.66,11.73-19.04,17.55c-3.58,3.27-7.18,6.52-10.78,9.77C148.51,153.76,148.87,154.12,149.1,153.9L149.1,153.9z"/>
		</g>
	</g>
	<g>
		<g>
			<path class="st1" d="M130.78,156.79c5.54-6.62,11.9-12.49,18.54-17.99c6.68-5.53,13.64-10.7,20.47-16.03
				c1.91-1.49,3.84-2.98,5.7-4.54c1.78-1.51,3.46-3.15,4.71-5.13c0.17-0.27-0.26-0.52-0.43-0.25c-2.29,3.62-5.98,6.17-9.3,8.77
				c-3.44,2.7-6.91,5.34-10.37,8.01c-6.75,5.2-13.45,10.49-19.67,16.32c-3.53,3.31-6.89,6.79-10,10.5
				C130.22,156.68,130.57,157.04,130.78,156.79L130.78,156.79z"/>
		</g>
	</g>
	<g>
		<g>
			<path class="st1" d="M111.64,157.64c6.17-5.95,12.87-11.3,19.71-16.46c6.79-5.13,13.72-10.09,20.43-15.32
				c3.78-2.95,7.5-5.99,11.07-9.19c0.24-0.22-0.11-0.57-0.35-0.35c-6.39,5.72-13.22,10.92-20.1,16.04
				c-6.83,5.07-13.72,10.07-20.32,15.44c-3.72,3.03-7.34,6.17-10.79,9.5C111.06,157.51,111.41,157.87,111.64,157.64L111.64,157.64z"
				/>
		</g>
	</g>
	<g>
		<g>
			<path class="st1" d="M92.05,161.12c6.87-5.04,13.75-10.07,20.62-15.11c0.26-0.19,0.01-0.62-0.25-0.43
				c-6.87,5.04-13.75,10.07-20.62,15.11C91.55,160.88,91.79,161.31,92.05,161.12L92.05,161.12z"/>
		</g>
	</g>
	<g>
		<g>
			<path class="st1" d="M80.1,158.42c3.65-3.91,7.69-7.45,12.05-10.55c-0.1-0.13-0.2-0.26-0.3-0.39c-0.2,0.23-0.41,0.34-0.71,0.39
				c-0.32,0.05-0.18,0.53,0.13,0.48c0.38-0.06,0.68-0.23,0.93-0.52c0.17-0.2-0.06-0.57-0.3-0.39c-4.39,3.13-8.47,6.69-12.15,10.63
				C79.53,158.3,79.88,158.65,80.1,158.42L80.1,158.42z"/>
		</g>
	</g>
	<g>
		<g>
			<path class="st1" d="M63.51,159.2c1.77-2.91,4.68-4.76,7.36-6.73c1.27-0.94,2.52-1.92,3.61-3.07c0.3-0.32,1.19-1.06,1-1.59
				c-0.14-0.37-0.73-0.38-0.8,0.03c-0.05,0.31,0.43,0.45,0.48,0.13c0,0.01-0.48,0.44-0.58,0.56c-0.11,0.13-0.23,0.26-0.34,0.39
				c-0.23,0.25-0.48,0.5-0.72,0.74c-0.48,0.46-0.98,0.89-1.5,1.31c-1.09,0.88-2.25,1.69-3.38,2.52c-2.11,1.55-4.18,3.21-5.56,5.47
				C62.91,159.22,63.34,159.47,63.51,159.2L63.51,159.2z"/>
		</g>
	</g>
	<g>
		<g>
			<path class="st1" d="M46.58,159.52c3.11-2.83,6.34-5.53,9.69-8.08c1.62-1.23,3.27-2.44,4.94-3.6c0.85-0.59,1.71-1.18,2.57-1.75
				c0.42-0.28,0.83-0.55,1.25-0.82c0.36-0.23,0.78-0.44,1.07-0.76c0.29-0.32,0.41-1.04-0.19-1.07c-0.39-0.02-0.81,0.43-0.44,0.74
				c0.25,0.2,0.6-0.15,0.35-0.35c0.28,0.23-1.16,1.08-1.34,1.2c-0.45,0.29-0.9,0.59-1.35,0.89c-0.83,0.56-1.65,1.12-2.47,1.7
				c-1.7,1.19-3.37,2.42-5.02,3.68c-3.25,2.49-6.39,5.12-9.42,7.88C45.99,159.38,46.34,159.73,46.58,159.52L46.58,159.52z"/>
		</g>
	</g>
	<g>
		<g>
			<path class="st1" d="M40.29,152.12c5.27-5.94,12.09-10.14,17.89-15.5c0.42-0.39,0.83-0.78,1.24-1.18
				c0.25-0.25,0.71-0.56,0.78-0.93c0.1-0.49-0.53-0.72-0.74-0.27c-0.05,0.11-0.04,0.21,0.04,0.3c0.02,0.02,0.03,0.03,0.05,0.05
				c0.22,0.24,0.57-0.12,0.35-0.35c-0.02-0.02-0.03-0.03-0.05-0.05c0.01,0.1,0.03,0.2,0.04,0.3c-0.2-0.02-0.35,0.05-0.45,0.21
				c-0.1,0.1-0.2,0.2-0.3,0.3c-0.2,0.2-0.41,0.4-0.61,0.6c-0.41,0.4-0.83,0.78-1.26,1.17c-0.8,0.72-1.61,1.42-2.43,2.1
				c-1.68,1.4-3.4,2.74-5.12,4.1c-3.45,2.72-6.86,5.5-9.78,8.8C39.72,152.01,40.08,152.36,40.29,152.12L40.29,152.12z"/>
		</g>
	</g>
	<g>
		<g>
			<path class="st1" d="M37.57,140.59c2.84-3.82,6.42-6.98,10.14-9.91c3.82-3.02,7.74-5.92,11.54-8.99
				c7.79-6.3,15.27-12.97,22.41-19.99c4.02-3.96,7.93-8.02,11.73-12.19c0.22-0.24-0.14-0.59-0.35-0.35
				c-6.8,7.46-13.96,14.59-21.45,21.35c-3.73,3.37-7.55,6.64-11.44,9.82c-3.83,3.13-7.78,6.11-11.68,9.14
				c-4.14,3.22-8.17,6.65-11.32,10.88C36.95,140.6,37.38,140.85,37.57,140.59L37.57,140.59z"/>
		</g>
	</g>
	<g>
		<g>
			<path class="st1" d="M43.3,123.62c5.53-5.31,11.78-9.77,18.03-14.18c6.13-4.32,12.33-8.6,17.91-13.63
				c3.12-2.81,6.02-5.85,8.57-9.19c0.2-0.26-0.24-0.5-0.43-0.25c-4.61,6.02-10.38,11.01-16.41,15.54
				c-6.04,4.54-12.37,8.68-18.39,13.24c-3.35,2.53-6.6,5.2-9.63,8.11C42.72,123.49,43.07,123.84,43.3,123.62L43.3,123.62z"/>
		</g>
	</g>
	<g>
		<g>
			<path class="st1" d="M40.93,112.85c11.18-7.01,22.15-14.35,32.89-22.01c3.01-2.15,6.01-4.33,8.98-6.53
				c0.26-0.19,0.01-0.62-0.25-0.43c-10.61,7.84-21.45,15.37-32.52,22.57c-3.1,2.02-6.22,4.01-9.36,5.97
				C40.4,112.59,40.65,113.03,40.93,112.85L40.93,112.85z"/>
		</g>
	</g>
	<g>
		<g>
			<path class="st1" d="M42.87,99.61c1.1-1.63,2.8-2.65,4.52-3.53c1.94-1,3.9-1.97,5.83-2.99c3.97-2.09,7.88-4.28,11.74-6.58
				c2.22-1.32,4.41-2.67,6.59-4.06c0.27-0.17,0.02-0.6-0.25-0.43c-7.8,4.95-15.86,9.36-24.07,13.57c-1.83,0.94-3.61,2.02-4.78,3.75
				C42.26,99.63,42.69,99.88,42.87,99.61L42.87,99.61z"/>
		</g>
	</g>
	<g>
		<g>
			<path class="st1" d="M129.09,134.76c7.88-6.86,15.76-13.71,23.64-20.57c0.24-0.21-0.11-0.56-0.35-0.35
				c-7.88,6.86-15.76,13.71-23.64,20.57C128.49,134.61,128.85,134.97,129.09,134.76L129.09,134.76z"/>
		</g>
	</g>
	<g>
		<g>
			<path class="st1" d="M126.77,120.04c3.77-3.43,8.24-6.02,13.08-7.61c0.22-0.07,0.25-0.43,0-0.48c-0.24-0.05-0.47-0.1-0.71-0.15
				c-0.31-0.07-0.45,0.41-0.13,0.48c0.24,0.05,0.47,0.1,0.71,0.15c0-0.16,0-0.32,0-0.48c-4.93,1.61-9.47,4.25-13.31,7.74
				C126.17,119.9,126.53,120.26,126.77,120.04L126.77,120.04z"/>
		</g>
	</g>
	<g>
		<g>
			<path class="st1" d="M118.36,112.85c3.1-1.5,6.11-3.2,9-5.08c0.27-0.17,0.02-0.61-0.25-0.43c-2.89,1.88-5.9,3.58-9,5.08
				C117.81,112.56,118.07,112.99,118.36,112.85L118.36,112.85z"/>
		</g>
	</g>
	<g>
		<g>
			<path class="st1" d="M90.5,106.86c5.1-4.42,10.62-8.33,16.47-11.68c0.28-0.16,0.03-0.59-0.25-0.43
				c-5.89,3.37-11.45,7.31-16.58,11.76C89.9,106.72,90.25,107.07,90.5,106.86L90.5,106.86z"/>
		</g>
	</g>
</g>
<g>
	<g>
		<path d="M202.46,157.98c-0.58,2.26-0.73,4.61-0.42,6.92c0.04,0.27,0.2,0.5,0.5,0.5c0.24,0,0.54-0.23,0.5-0.5
			c-0.29-2.23-0.17-4.48,0.39-6.66C203.59,157.63,202.62,157.36,202.46,157.98L202.46,157.98z"/>
	</g>
</g>
<g>
	<g>
		<g>
			<path d="M198.52,170.49c1.11,5.04,3.32,9.8,6.46,13.89c0.39,0.5,1.26,0.01,0.86-0.5c-3.1-4.03-5.27-8.69-6.36-13.65
				C199.34,169.6,198.38,169.86,198.52,170.49L198.52,170.49z"/>
		</g>
	</g>
	<g>
		<g>
			<path d="M205.93,170.62c-3.76,3.23-6.85,7.19-9.08,11.61c-0.29,0.57,0.57,1.08,0.86,0.5c2.2-4.36,5.23-8.23,8.93-11.41
				C207.12,170.9,206.41,170.2,205.93,170.62L205.93,170.62z"/>
		</g>
	</g>
</g>
<g class="st2">
	<g class="st3">
		<path d="M228.1,158.06c0,3.38,0,6.76,0,10.14c0,0.64,1,0.64,1,0c0-3.38,0-6.76,0-10.14C229.1,157.42,228.1,157.42,228.1,158.06
			L228.1,158.06z"/>
	</g>
</g>
<g class="st2">
	<g class="st3">
		<g>
			<path d="M219.12,171.15c2.22,3.93,4.48,7.83,6.78,11.72c0.25,0.43,0.93,0.24,0.93-0.25c0-0.34,0-0.69,0-1.03c0-0.64-1-0.64-1,0
				c0,0.34,0,0.69,0,1.03c0.31-0.08,0.62-0.17,0.93-0.25c-2.3-3.89-4.56-7.79-6.78-11.72C219.66,170.08,218.8,170.59,219.12,171.15
				L219.12,171.15z"/>
		</g>
	</g>
	<g class="st3">
		<g>
			<path d="M224.98,172.68c-2.59,2.95-4.84,6.18-6.72,9.63c-0.26,0.48,0.41,1.06,0.79,0.61c0.27-0.33,0.54-0.65,0.81-0.98
				c0.41-0.49-0.3-1.2-0.71-0.71c-0.27,0.33-0.54,0.65-0.81,0.98c0.26,0.2,0.52,0.4,0.79,0.61c1.84-3.37,4.03-6.54,6.57-9.43
				C226.11,172.9,225.41,172.19,224.98,172.68L224.98,172.68z"/>
		</g>
	</g>
	<g class="st3">
		<g>
			<path d="M228.04,176.83c2.16,0.04,4.31,0.08,6.47,0.11c0.64,0.01,0.64-0.99,0-1c-2.16-0.04-4.31-0.08-6.47-0.11
				C227.39,175.82,227.39,176.82,228.04,176.83L228.04,176.83z"/>
		</g>
	</g>
	<g class="st3">
		<g>
			<path d="M231.43,172.32c-0.36,2.96-0.43,5.95-0.2,8.92c0.04,0.46,0.68,0.72,0.93,0.25c0.19-0.36,0.37-0.71,0.56-1.07
				c0.3-0.57-0.56-1.08-0.86-0.5c-0.19,0.36-0.37,0.71-0.56,1.07c0.31,0.08,0.62,0.17,0.93,0.25c-0.23-2.97-0.17-5.96,0.2-8.92
				C232.51,171.68,231.51,171.69,231.43,172.32L231.43,172.32z"/>
		</g>
	</g>
	<g class="st3">
		<g>
			<path d="M236.36,171.02c-0.09,3.1-0.05,6.21,0.11,9.31c0.03,0.49,0.67,0.69,0.93,0.25c0.45-0.73,0.89-1.46,1.34-2.18
				c0.15-0.24,0.39-0.83,0.7-0.88c0.31-0.06,0.42,0.43,0.49,0.69c0.46,1.68,0.51,3.48,0.31,5.2c-0.08,0.64,0.93,0.63,1,0
				c0.15-1.24,0.15-2.49-0.02-3.73c-0.12-0.88-0.2-2.11-0.85-2.8c-0.62-0.67-1.47-0.41-1.99,0.24c-0.72,0.9-1.26,1.99-1.86,2.97
				c0.31,0.08,0.62,0.17,0.93,0.25c-0.16-3.1-0.19-6.21-0.11-9.31C237.38,170.37,236.38,170.37,236.36,171.02L236.36,171.02z"/>
		</g>
	</g>
</g>
<g class="st2">
	<g class="st3">
		<g>
			<path d="M228.37,153.04c-0.03-0.1-0.05-0.21-0.07-0.32c-0.01-0.03-0.01-0.06-0.01-0.09c0.01,0.06,0.01,0.06,0,0
				c0-0.05-0.01-0.09-0.01-0.14c-0.02-0.21-0.01-0.43,0.01-0.65c0-0.05,0.01-0.09,0.02-0.14c-0.01,0.11,0.01-0.08,0.02-0.1
				c0.02-0.11,0.04-0.21,0.07-0.31c0.03-0.1,0.06-0.21,0.1-0.31c0.02-0.04,0.03-0.09,0.05-0.13c-0.04,0.09,0.04-0.08,0.04-0.09
				c0.11-0.24,0.07-0.55-0.18-0.68c-0.22-0.12-0.56-0.07-0.68,0.18c-0.45,0.95-0.57,2.02-0.31,3.04c0.06,0.25,0.36,0.43,0.62,0.35
				C228.28,153.57,228.44,153.31,228.37,153.04L228.37,153.04z"/>
		</g>
	</g>
	<g class="st3">
		<g>
			<path d="M228.73,144.55c0-1.25,0-2.5,0-3.75c0-0.64-1-0.64-1,0c0,1.25,0,2.5,0,3.75C227.73,145.19,228.73,145.19,228.73,144.55
				L228.73,144.55z"/>
		</g>
	</g>
	<g class="st3">
		<g>
			<path d="M228.73,136.29c0-1.25,0-2.5,0-3.75c0-0.64-1-0.64-1,0c0,1.25,0,2.5,0,3.75C227.73,136.93,228.73,136.93,228.73,136.29
				L228.73,136.29z"/>
		</g>
	</g>
	<g class="st3">
		<g>
			<path d="M228.23,127.93c-0.34-1.26-0.43-2.59-0.25-3.89c0.04-0.27-0.07-0.54-0.35-0.62c-0.23-0.06-0.58,0.08-0.62,0.35
				c-0.21,1.48-0.14,2.97,0.25,4.42C227.44,128.81,228.4,128.55,228.23,127.93L228.23,127.93z"/>
		</g>
	</g>
	<g class="st3">
		<g>
			<path d="M227.98,120.4c0-1.13,0-2.25,0-3.38c0-0.27-0.23-0.5-0.5-0.5c-0.27,0-0.5,0.23-0.5,0.5c0,1.13,0,2.25,0,3.38
				c0,0.27,0.23,0.5,0.5,0.5C227.75,120.9,227.98,120.67,227.98,120.4L227.98,120.4z"/>
		</g>
	</g>
	<g class="st3">
		<g>
			<path d="M226.73,108.02c-0.35-1.57-0.42-3.17-0.23-4.77c0.03-0.27-0.25-0.5-0.5-0.5c-0.3,0-0.47,0.23-0.5,0.5
				c-0.2,1.68-0.1,3.38,0.27,5.03C225.91,108.92,226.87,108.65,226.73,108.02L226.73,108.02z"/>
		</g>
	</g>
	<g class="st3">
		<g>
			<path d="M226.1,98.37c0-1.5,0-3,0-4.5c0-0.64-1-0.64-1,0c0,1.5,0,3,0,4.5C225.1,99.02,226.1,99.02,226.1,98.37L226.1,98.37z"/>
		</g>
	</g>
	<g class="st3">
		<g>
			<path d="M225.32,88.24c0.01-1.2,0.25-2.4,0.72-3.5c0.11-0.25,0.07-0.54-0.18-0.68c-0.21-0.12-0.58-0.07-0.68,0.18
				c-0.55,1.27-0.84,2.62-0.85,4C224.32,88.88,225.32,88.88,225.32,88.24L225.32,88.24z"/>
		</g>
	</g>
	<g class="st3">
		<g>
			<path d="M224.97,79.98c0-1.25,0-2.5,0-3.75c0-0.64-1-0.64-1,0c0,1.25,0,2.5,0,3.75C223.97,80.62,224.97,80.62,224.97,79.98
				L224.97,79.98z"/>
		</g>
	</g>
</g>
<g class="st2">
	<g class="st3">
		<g>
			<path class="st4" d="M217.19,86.16c2.51,0.07,5.01,0.3,7.48,0.69c0.31,0.05,0.45-0.43,0.13-0.48c-2.52-0.4-5.06-0.64-7.61-0.71
				C216.87,85.65,216.87,86.15,217.19,86.16L217.19,86.16z"/>
		</g>
	</g>
	<g class="st3">
		<g>
			<path class="st4" d="M211.72,93.75c3.27-0.54,6.62-0.56,9.89-0.01c0.74,0.12,1.5,0.25,2.21,0.48c0.28,0.09,0.74,0.19,0.89-0.16
				c0.21-0.52-0.77-0.87-0.72-0.26c0.03,0.32,0.53,0.32,0.5,0c0,0.01-1.52-0.31-1.7-0.35c-0.54-0.11-1.09-0.21-1.63-0.29
				c-1.04-0.15-2.08-0.26-3.13-0.3c-2.16-0.1-4.31,0.05-6.44,0.4C211.27,93.32,211.4,93.8,211.72,93.75L211.72,93.75z"/>
		</g>
	</g>
	<g class="st3">
		<g>
			<path class="st4" d="M205.32,100.64c6.14,0.27,12.27,0.54,18.41,0.82c0.32,0.01,0.32-0.49,0-0.5
				c-6.14-0.27-12.27-0.54-18.41-0.82C205,100.13,205,100.63,205.32,100.64L205.32,100.64z"/>
		</g>
	</g>
	<g class="st3">
		<g>
			<path class="st4" d="M199.31,109.28c4.3-0.05,8.6-0.02,12.89,0.07c2.15,0.05,4.29,0.11,6.44,0.2c1.11,0.04,2.23,0.09,3.34,0.14
				c0.97,0.05,2.03,0.22,3,0.13c0.32-0.03,0.96-0.31,0.57-0.71c-0.25-0.25-0.82-0.22-0.83,0.19c-0.01,0.32,0.49,0.32,0.5,0
				c-0.07,0.2-0.17,0.21-0.31,0.03c-0.11,0-0.22,0-0.32,0c-0.25-0.01-0.49-0.03-0.74-0.04c-0.54-0.03-1.07-0.05-1.61-0.08
				c-1.11-0.05-2.23-0.1-3.34-0.15c-2.15-0.08-4.29-0.15-6.44-0.2c-4.38-0.1-8.76-0.12-13.14-0.08
				C198.98,108.78,198.98,109.28,199.31,109.28L199.31,109.28z"/>
		</g>
	</g>
	<g class="st3">
		<g>
			<path class="st4" d="M201.13,114.16c1.52,0.58,3.21,0.41,4.8,0.39c1.86-0.03,3.72-0.06,5.58-0.08c3.72-0.06,7.45-0.11,11.17-0.17
				c0.32,0,0.32-0.5,0-0.5c-3.64,0.05-7.28,0.11-10.92,0.16c-1.82,0.03-3.64,0.05-5.46,0.08c-1.66,0.02-3.46,0.23-5.04-0.37
				C200.96,113.57,200.83,114.05,201.13,114.16L201.13,114.16z"/>
		</g>
	</g>
	<g class="st3">
		<g>
			<path class="st4" d="M203.08,123.79c2.4,0.17,4.81,0.33,7.21,0.5c0.58,0.04,1.15,0.08,1.73,0.12c0.37,0.03,0.97,0.19,1.32,0.02
				c0.39-0.19,0.47-1.07-0.08-1.07c-0.32,0-0.32,0.5,0,0.5c-0.1-0.03-0.18,0.01-0.23,0.11c-0.1-0.01-0.2-0.01-0.3-0.02
				c-0.2-0.01-0.41-0.03-0.61-0.04c-0.44-0.03-0.88-0.06-1.32-0.09c-0.85-0.06-1.69-0.12-2.54-0.17c-1.73-0.12-3.45-0.24-5.18-0.36
				C202.76,123.26,202.76,123.76,203.08,123.79L203.08,123.79z"/>
		</g>
	</g>
	<g class="st3">
		<g>
			<path class="st4" d="M203.45,131.2c7.75,0.35,15.52,0.35,23.27,0.01c0.32-0.01,0.32-0.51,0-0.5c-7.75,0.34-15.52,0.34-23.27-0.01
				C203.13,130.69,203.13,131.19,203.45,131.2L203.45,131.2z"/>
		</g>
	</g>
	<g class="st3">
		<g>
			<path class="st4" d="M204.2,137.45c7.39,0.12,14.77,0.24,22.16,0.37c0.32,0.01,0.32-0.49,0-0.5c-7.39-0.12-14.77-0.24-22.16-0.37
				C203.88,136.95,203.88,137.45,204.2,137.45L204.2,137.45z"/>
		</g>
	</g>
	<g class="st3">
		<g>
			<path class="st4" d="M202.33,143.45c8.84-0.44,17.69-0.49,26.53-0.17c-0.02-0.16-0.04-0.33-0.07-0.49
				c-0.34,0.13-0.68,0.26-1.01,0.4c-0.3,0.12-0.17,0.6,0.13,0.48c0.34-0.13,0.68-0.26,1.01-0.4c0.25-0.1,0.23-0.48-0.07-0.49
				c-8.84-0.32-17.7-0.27-26.53,0.17C202.01,142.96,202.01,143.46,202.33,143.45L202.33,143.45z"/>
		</g>
	</g>
	<g class="st3">
		<g>
			<path class="st4" d="M205.32,149.09c6.88-0.3,13.78-0.19,20.65,0.34c0.32,0.02,0.32-0.48,0-0.5c-6.87-0.53-13.76-0.64-20.65-0.34
				C205,148.6,204.99,149.1,205.32,149.09L205.32,149.09z"/>
		</g>
	</g>
	<g class="st3">
		<g>
			<path class="st4" d="M205.31,153.79c7.61,0.36,15.21,0.72,22.82,1.08c0-0.17,0-0.33,0-0.5c-0.47,0.02-0.93,0.04-1.4,0.06
				c-0.32,0.01-0.32,0.51,0,0.5c0.47-0.02,0.93-0.04,1.4-0.06c0.32-0.01,0.32-0.48,0-0.5c-7.61-0.36-15.21-0.72-22.82-1.08
				C204.99,153.28,204.99,153.78,205.31,153.79L205.31,153.79z"/>
		</g>
	</g>
	<g class="st3">
		<g>
			<path class="st4" d="M208.86,159.66c-0.53-15.53-1.06-31.06-1.59-46.59c-0.15-4.4-0.3-8.8-0.45-13.2c-0.01-0.32-0.51-0.32-0.5,0
				c0.53,15.53,1.06,31.06,1.59,46.59c0.15,4.4,0.3,8.8,0.45,13.2C208.37,159.98,208.87,159.98,208.86,159.66L208.86,159.66z"/>
		</g>
	</g>
	<g class="st3">
		<g>
			<path class="st4" d="M214.58,113.77c0.35-7.88,0.31-15.77-0.13-23.64c-0.02-0.32-0.52-0.32-0.5,0
				c0.44,7.87,0.49,15.76,0.13,23.64C214.06,114.09,214.56,114.09,214.58,113.77L214.58,113.77z"/>
		</g>
	</g>
	<g class="st3">
		<g>
			<path class="st4" d="M221.55,111.12c0.43-4.81,0.42-9.65-0.05-14.45c-0.22-2.32-0.55-4.64-0.98-6.93
				c-0.47-2.5-0.97-4.87,0.11-7.29c0.13-0.29-0.3-0.55-0.43-0.25c-0.95,2.14-0.82,4.26-0.39,6.51c0.48,2.48,0.89,4.97,1.15,7.48
				c0.51,4.96,0.54,9.97,0.1,14.94C221.03,111.44,221.53,111.44,221.55,111.12L221.55,111.12z"/>
		</g>
	</g>
	<g class="st3">
		<g>
			<path class="st4" d="M214.45,159.94c0.92-8.22,1.14-16.51,0.66-24.77c-0.02-0.32-0.52-0.32-0.5,0
				c0.48,8.26,0.26,16.55-0.66,24.77C213.92,160.26,214.42,160.26,214.45,159.94L214.45,159.94z"/>
		</g>
	</g>
	<g class="st3">
		<g>
			<path class="st4" d="M221.22,160.43c2.22-7.72,0.83-15.82,0.57-23.69c-0.08-2.3-0.06-4.6,0.15-6.89c0.03-0.32-0.47-0.32-0.5,0
				c-0.73,7.93,0.93,15.85,0.41,23.79c-0.15,2.25-0.49,4.49-1.12,6.66C220.65,160.61,221.13,160.74,221.22,160.43L221.22,160.43z"/>
		</g>
	</g>
</g>
<g class="st2">
	<g class="st3">
		<g>
			<g>
				<path d="M216.89,118.18c-0.07,1.48-0.06,2.97,0.05,4.45c0.05,0.74,0.13,1.48,0.23,2.22c0.07,0.55,0.13,1.16,0.5,1.6
					c0.94,1.14,2.38,0.04,3.28-0.54c1.25-0.8,2.51-1.59,3.76-2.39c0.54-0.34,0.04-1.21-0.5-0.86c-1.07,0.68-2.15,1.37-3.22,2.05
					c-0.52,0.33-1.03,0.68-1.56,0.99c-0.4,0.23-0.91,0.43-1.1-0.12c-0.19-0.52-0.2-1.13-0.26-1.68c-0.07-0.63-0.12-1.27-0.16-1.9
					c-0.07-1.27-0.07-2.55-0.01-3.82C217.92,117.53,216.92,117.53,216.89,118.18L216.89,118.18z"/>
			</g>
		</g>
		<g>
			<g>
				<path d="M217.93,125.64c0.45,0.58,1.09,0.46,1.55-0.05c0.55-0.6,0.72-1.58,1.05-2.31c0.78-1.68,1.82-3.24,3.07-4.6
					c2.42-2.63,5.79-4.83,9.42-5.15c1.97-0.18,3.98,0.23,5.43,1.65c0.46,0.45,1.17-0.26,0.71-0.71c-2.5-2.45-6.37-2.34-9.46-1.19
					c-3.35,1.25-6.26,3.67-8.33,6.56c-0.59,0.82-1.11,1.69-1.55,2.6c-0.23,0.46-0.43,0.94-0.62,1.42c-0.09,0.23-0.17,0.48-0.26,0.71
					c-0.03,0.08-0.06,0.16-0.11,0.24c-0.05,0.08-0.1,0.14-0.18,0.19c-0.12,0.07-0.08,0.12,0.13,0.14
					C218.41,124.63,217.54,125.13,217.93,125.64L217.93,125.64z"/>
			</g>
		</g>
	</g>
	<g class="st3">
		<g>
			<g>
				<path d="M242.23,106.57c1.49,0.08,3.91,0.2,4.39,1.98c0.15,0.56,0.11,1.33-0.35,1.75c-0.5,0.46-1.33,0.2-1.95,0.36
					c-0.74,0.18-1.15,0.79-1.03,1.55c0.16,1.07,0.65,2.16,0.98,3.19c0.18,0.55,0.33,1.11,0.53,1.65c0.12,0.33,0.31,0.64,0.68,0.7
					c0.69,0.11,1-0.88,0.37-1.17c-0.21-0.1-0.43-0.09-0.61,0.08c-0.01,0.01-0.03,0.03-0.04,0.04c-0.47,0.45,0.24,1.15,0.71,0.71
					c0.01-0.01,0.03-0.03,0.04-0.04c-0.2,0.03-0.4,0.05-0.61,0.08c-0.05-0.11-0.1-0.23-0.15-0.34c0.08-0.1,0.15-0.2,0.23-0.3
					c-0.02,0.01-0.04,0.02-0.06,0.03c0.13-0.02,0.26-0.03,0.39-0.05c-0.07-0.01-0.36-1.18-0.41-1.34c-0.15-0.48-0.31-0.96-0.46-1.45
					c-0.16-0.52-0.34-1.03-0.5-1.55c-0.12-0.39-0.22-0.75,0.27-0.84c0.63-0.11,1.26,0.03,1.86-0.27c0.49-0.25,0.84-0.7,1.02-1.21
					c0.4-1.1,0.07-2.46-0.8-3.24c-1.22-1.09-2.93-1.23-4.49-1.31C241.58,105.54,241.59,106.54,242.23,106.57L242.23,106.57z"/>
			</g>
		</g>
		<g>
			<g>
				<path d="M249.25,106.23c1.3,0.45,3,1,3.64,2.35c0.41,0.87,0.19,2.56-1,2.68c-0.67,0.07-1.33-0.24-1.98,0.06
					c-0.63,0.29-0.85,0.93-0.81,1.59c0.1,1.62,0.84,3.29,1.69,4.65c0.25,0.4,0.96,0.26,0.93-0.25c-0.01-0.27-0.03-0.54-0.04-0.82
					c-0.03-0.64-1.03-0.64-1,0c0.01,0.27,0.03,0.54,0.04,0.82c0.31-0.08,0.62-0.17,0.93-0.25c-0.4-0.64-2.48-4.66-1.1-4.87
					c0.7-0.1,1.34,0.21,2.03-0.08c0.52-0.21,0.93-0.64,1.17-1.14c0.55-1.12,0.4-2.47-0.36-3.45c-0.95-1.21-2.46-1.76-3.87-2.25
					C248.9,105.06,248.64,106.02,249.25,106.23L249.25,106.23z"/>
			</g>
		</g>
		<g>
			<g>
				<path d="M252.06,121.85c0,0,0.01-0.01,0.01-0.01c-0.03,0.03-0.07,0.05-0.1,0.08c0.01-0.01,0.02-0.01,0.03-0.02
					c-0.04,0.02-0.08,0.03-0.12,0.05c0.01,0,0.01,0,0.02-0.01c-0.04,0.01-0.09,0.01-0.13,0.02c0.01,0,0.01,0,0.02,0
					c-0.04-0.01-0.09-0.01-0.13-0.02c0.01,0,0.01,0,0.02,0c-0.04-0.02-0.08-0.03-0.12-0.05c0.01,0,0.01,0.01,0.01,0.01
					c-0.03-0.03-0.07-0.05-0.1-0.08c0.01,0.01,0.01,0.01,0.02,0.02c-0.03-0.03-0.05-0.07-0.08-0.1c0.01,0.01,0.01,0.02,0.02,0.04
					c-0.02-0.04-0.03-0.08-0.05-0.12c0.01,0.02,0.01,0.05,0.02,0.07c-0.01-0.04-0.01-0.09-0.02-0.13c0,0.03,0,0.06,0,0.08
					c0.01-0.04,0.01-0.09,0.02-0.13c0,0.02-0.01,0.04-0.02,0.06c0.02-0.04,0.03-0.08,0.05-0.12c-0.01,0.01-0.01,0.03-0.02,0.04
					c0.03-0.03,0.05-0.07,0.08-0.1c-0.01,0.01-0.01,0.01-0.02,0.02c0.03-0.03,0.07-0.05,0.1-0.08c-0.01,0.01-0.02,0.01-0.02,0.01
					c0.04-0.02,0.08-0.03,0.12-0.05c-0.01,0-0.02,0.01-0.03,0.01c0.04-0.01,0.09-0.01,0.13-0.02c-0.01,0-0.02,0-0.03,0
					c0.04,0.01,0.09,0.01,0.13,0.02c-0.02,0-0.04-0.01-0.06-0.02c0.04,0.02,0.08,0.03,0.12,0.05c-0.02-0.01-0.03-0.02-0.05-0.03
					c0.03,0.03,0.07,0.05,0.1,0.08c-0.02-0.01-0.03-0.03-0.05-0.05c0.03,0.03,0.05,0.07,0.08,0.1c-0.01-0.02-0.03-0.04-0.04-0.06
					c0.02,0.04,0.03,0.08,0.05,0.12c-0.01-0.04-0.02-0.07-0.03-0.11c0.01,0.04,0.01,0.09,0.02,0.13c0-0.04,0-0.09,0-0.13
					c-0.01,0.04-0.01,0.09-0.02,0.13c0.01-0.04,0.02-0.09,0.03-0.13c-0.02,0.04-0.03,0.08-0.05,0.12c0.02-0.04,0.04-0.08,0.07-0.12
					c-0.03,0.03-0.05,0.07-0.08,0.1c0.08-0.1,0.17-0.17,0.26-0.25c0.12-0.11,0.23-0.22,0.32-0.35c-0.29,0-0.58,0-0.86,0
					c0.09,0.12,0.18,0.25,0.24,0.39c-0.02-0.04-0.03-0.08-0.05-0.12c0.03,0.07,0.05,0.14,0.06,0.21c-0.01-0.04-0.01-0.09-0.02-0.13
					c0.01,0.05,0.01,0.09,0,0.14c0.01-0.04,0.01-0.09,0.02-0.13c-0.01,0.04-0.02,0.08-0.03,0.12c0.02-0.04,0.03-0.08,0.05-0.12
					c-0.01,0.03-0.03,0.05-0.04,0.08c0.03-0.03,0.05-0.07,0.08-0.1c-0.01,0.01-0.02,0.02-0.04,0.04c0.03-0.03,0.07-0.05,0.1-0.08
					c-0.02,0.01-0.03,0.02-0.05,0.03c0.04-0.02,0.08-0.03,0.12-0.05c-0.02,0.01-0.04,0.01-0.06,0.01c0.04-0.01,0.09-0.01,0.13-0.02
					c-0.03,0-0.06,0-0.09,0c0.04,0.01,0.09,0.01,0.13,0.02c-0.04-0.01-0.07-0.02-0.11-0.03c0.04,0.02,0.08,0.03,0.12,0.05
					c-0.03-0.02-0.07-0.03-0.1-0.06c0.03,0.03,0.07,0.05,0.1,0.08c-0.02-0.02-0.04-0.04-0.06-0.06c0.03,0.03,0.05,0.07,0.08,0.1
					c-0.01-0.01-0.02-0.03-0.03-0.04c0.02,0.04,0.03,0.08,0.05,0.12c0-0.01-0.01-0.02-0.01-0.04c0.01,0.04,0.01,0.09,0.02,0.13
					c0-0.01,0-0.02,0-0.03c-0.01,0.04-0.01,0.09-0.02,0.13c0-0.01,0-0.02,0.01-0.03c-0.02,0.04-0.03,0.08-0.05,0.12
					c0.01-0.01,0.01-0.02,0.02-0.04c-0.03,0.03-0.05,0.07-0.08,0.1c0.01-0.01,0.02-0.02,0.04-0.03c-0.03,0.03-0.07,0.05-0.1,0.08
					c0,0,0.01,0,0.01-0.01c0.11-0.08,0.19-0.17,0.23-0.3c0.03-0.12,0.02-0.28-0.05-0.39c-0.07-0.11-0.17-0.2-0.3-0.23
					c-0.12-0.03-0.28-0.03-0.39,0.05c-0.14,0.1-0.25,0.22-0.3,0.39c-0.04,0.16-0.02,0.33,0.06,0.48c0.11,0.2,0.3,0.32,0.51,0.39
					c0.24,0.08,0.51,0.04,0.7-0.12c0.14-0.11,0.22-0.25,0.27-0.41c0.05-0.16,0.04-0.33,0.01-0.5c-0.02-0.15-0.09-0.29-0.16-0.42
					c-0.06-0.1-0.12-0.2-0.19-0.29c-0.04-0.08-0.1-0.13-0.18-0.18c-0.08-0.05-0.16-0.07-0.25-0.07c-0.19,0-0.33,0.1-0.43,0.25
					c-0.01,0.01-0.02,0.03-0.03,0.04c0.03-0.03,0.05-0.07,0.08-0.1c-0.07,0.09-0.17,0.17-0.26,0.25c-0.12,0.1-0.21,0.2-0.31,0.33
					c-0.04,0.05-0.06,0.11-0.09,0.17c-0.03,0.06-0.05,0.12-0.06,0.19c-0.02,0.16-0.04,0.33,0.02,0.48c0.06,0.18,0.17,0.35,0.35,0.45
					c0.2,0.11,0.45,0.14,0.65,0.02c0.29-0.16,0.37-0.49,0.31-0.8c-0.03-0.17-0.14-0.33-0.29-0.41c-0.11-0.07-0.23-0.09-0.36-0.07
					c-0.14,0.02-0.24,0.08-0.35,0.17c-0.09,0.08-0.15,0.23-0.15,0.35c0,0.12,0.05,0.27,0.15,0.35c0.1,0.09,0.22,0.15,0.35,0.15
					C251.85,121.99,251.96,121.94,252.06,121.85L252.06,121.85z"/>
			</g>
		</g>
		<g>
			<g>
				<path d="M245.81,121.19c0,0,0.01-0.01,0.01-0.01c-0.03,0.03-0.07,0.05-0.1,0.08c0.01-0.01,0.02-0.01,0.03-0.02
					c-0.04,0.02-0.08,0.03-0.12,0.05c0.01,0,0.01,0,0.02-0.01c-0.04,0.01-0.09,0.01-0.13,0.02c0.01,0,0.01,0,0.02,0
					c-0.04-0.01-0.09-0.01-0.13-0.02c0.01,0,0.01,0,0.02,0c-0.04-0.02-0.08-0.03-0.12-0.05c0.01,0,0.01,0.01,0.01,0.01
					c-0.03-0.03-0.07-0.05-0.1-0.08c0.01,0.01,0.01,0.01,0.02,0.02c-0.03-0.03-0.05-0.07-0.08-0.1c0.01,0.01,0.01,0.02,0.02,0.04
					c-0.02-0.04-0.03-0.08-0.05-0.12c0.01,0.02,0.01,0.05,0.02,0.07c-0.01-0.04-0.01-0.09-0.02-0.13c0,0.03,0,0.06,0,0.08
					c0.01-0.04,0.01-0.09,0.02-0.13c0,0.02-0.01,0.04-0.02,0.06c0.02-0.04,0.03-0.08,0.05-0.12c-0.01,0.01-0.01,0.03-0.02,0.04
					c0.03-0.03,0.05-0.07,0.08-0.1c-0.01,0.01-0.01,0.01-0.02,0.02c0.03-0.03,0.07-0.05,0.1-0.08c-0.01,0.01-0.02,0.01-0.02,0.01
					c0.04-0.02,0.08-0.03,0.12-0.05c-0.01,0-0.02,0.01-0.03,0.01c0.04-0.01,0.09-0.01,0.13-0.02c-0.01,0-0.02,0-0.03,0
					c0.04,0.01,0.09,0.01,0.13,0.02c-0.02,0-0.04-0.01-0.06-0.02c0.04,0.02,0.08,0.03,0.12,0.05c-0.02-0.01-0.03-0.02-0.05-0.03
					c0.03,0.03,0.07,0.05,0.1,0.08c-0.02-0.01-0.03-0.03-0.05-0.05c0.03,0.03,0.05,0.07,0.08,0.1c-0.01-0.02-0.03-0.04-0.04-0.06
					c0.02,0.04,0.03,0.08,0.05,0.12c-0.01-0.04-0.02-0.07-0.03-0.11c0.01,0.04,0.01,0.09,0.02,0.13c0-0.04,0-0.09,0-0.13
					c-0.01,0.04-0.01,0.09-0.02,0.13c0.01-0.04,0.02-0.09,0.03-0.13c-0.02,0.04-0.03,0.08-0.05,0.12c0.02-0.04,0.04-0.08,0.07-0.12
					c-0.03,0.03-0.05,0.07-0.08,0.1c0.08-0.1,0.17-0.17,0.26-0.25c0.12-0.11,0.23-0.22,0.32-0.35c-0.29,0-0.58,0-0.86,0
					c0.09,0.12,0.18,0.25,0.24,0.39c-0.02-0.04-0.03-0.08-0.05-0.12c0.03,0.07,0.05,0.14,0.06,0.21c-0.01-0.04-0.01-0.09-0.02-0.13
					c0.01,0.05,0.01,0.09,0,0.14c0.01-0.04,0.01-0.09,0.02-0.13c-0.01,0.04-0.02,0.08-0.03,0.12c0.02-0.04,0.03-0.08,0.05-0.12
					c-0.01,0.03-0.03,0.05-0.04,0.08c0.03-0.03,0.05-0.07,0.08-0.1c-0.01,0.01-0.02,0.02-0.04,0.04c0.03-0.03,0.07-0.05,0.1-0.08
					c-0.02,0.01-0.03,0.02-0.05,0.03c0.04-0.02,0.08-0.03,0.12-0.05c-0.02,0.01-0.04,0.01-0.06,0.01c0.04-0.01,0.09-0.01,0.13-0.02
					c-0.03,0-0.06,0-0.09,0c0.04,0.01,0.09,0.01,0.13,0.02c-0.04-0.01-0.07-0.02-0.11-0.03c0.04,0.02,0.08,0.03,0.12,0.05
					c-0.03-0.02-0.07-0.03-0.1-0.06c0.03,0.03,0.07,0.05,0.1,0.08c-0.02-0.02-0.04-0.04-0.06-0.06c0.03,0.03,0.05,0.07,0.08,0.1
					c-0.01-0.01-0.02-0.03-0.03-0.04c0.02,0.04,0.03,0.08,0.05,0.12c0-0.01-0.01-0.02-0.01-0.04c0.01,0.04,0.01,0.09,0.02,0.13
					c0-0.01,0-0.02,0-0.03c-0.01,0.04-0.01,0.09-0.02,0.13c0-0.01,0-0.02,0.01-0.03c-0.02,0.04-0.03,0.08-0.05,0.12
					c0.01-0.01,0.01-0.02,0.02-0.04c-0.03,0.03-0.05,0.07-0.08,0.1c0.01-0.01,0.02-0.02,0.04-0.03c-0.03,0.03-0.07,0.05-0.1,0.08
					c0,0,0.01,0,0.01-0.01c0.11-0.08,0.19-0.17,0.23-0.3c0.03-0.12,0.02-0.28-0.05-0.39c-0.07-0.11-0.17-0.2-0.3-0.23
					c-0.12-0.03-0.28-0.03-0.39,0.05c-0.14,0.1-0.25,0.22-0.3,0.39c-0.04,0.16-0.02,0.33,0.06,0.48c0.11,0.2,0.3,0.32,0.51,0.39
					c0.24,0.08,0.51,0.04,0.7-0.12c0.14-0.11,0.22-0.25,0.27-0.41c0.05-0.16,0.04-0.33,0.01-0.5c-0.02-0.15-0.09-0.29-0.16-0.42
					c-0.06-0.1-0.12-0.2-0.19-0.29c-0.04-0.08-0.1-0.13-0.18-0.18c-0.08-0.05-0.16-0.07-0.25-0.07c-0.19,0-0.33,0.1-0.43,0.25
					c-0.01,0.01-0.02,0.03-0.03,0.04c0.03-0.03,0.05-0.07,0.08-0.1c-0.07,0.09-0.17,0.17-0.26,0.25c-0.12,0.1-0.21,0.2-0.31,0.33
					c-0.04,0.05-0.06,0.11-0.09,0.17c-0.03,0.06-0.05,0.12-0.06,0.19c-0.02,0.16-0.04,0.33,0.02,0.48c0.06,0.18,0.17,0.35,0.35,0.45
					c0.2,0.11,0.45,0.14,0.65,0.02c0.29-0.16,0.37-0.49,0.31-0.8c-0.03-0.17-0.14-0.33-0.29-0.41c-0.11-0.07-0.23-0.09-0.36-0.07
					c-0.14,0.02-0.24,0.08-0.35,0.17c-0.09,0.08-0.15,0.23-0.15,0.35c0,0.12,0.05,0.27,0.15,0.35c0.1,0.09,0.22,0.15,0.35,0.15
					C245.6,121.33,245.71,121.28,245.81,121.19L245.81,121.19z"/>
			</g>
		</g>
		<g>
			<g>
				<path d="M256.93,120.91c0,0,0.01-0.01,0.01-0.01c-0.03,0.03-0.07,0.05-0.1,0.08c0.01-0.01,0.02-0.01,0.03-0.02
					c-0.04,0.02-0.08,0.03-0.12,0.05c0.01,0,0.01,0,0.02-0.01c-0.04,0.01-0.09,0.01-0.13,0.02c0.01,0,0.01,0,0.02,0
					c-0.04-0.01-0.09-0.01-0.13-0.02c0.01,0,0.01,0,0.02,0c-0.04-0.02-0.08-0.03-0.12-0.05c0.01,0,0.01,0.01,0.01,0.01
					c-0.03-0.03-0.07-0.05-0.1-0.08c0.01,0.01,0.01,0.01,0.02,0.02c-0.03-0.03-0.05-0.07-0.08-0.1c0.01,0.01,0.01,0.02,0.02,0.04
					c-0.02-0.04-0.03-0.08-0.05-0.12c0.01,0.02,0.01,0.05,0.02,0.07c-0.01-0.04-0.01-0.09-0.02-0.13c0,0.03,0,0.06,0,0.08
					c0.01-0.04,0.01-0.09,0.02-0.13c0,0.02-0.01,0.04-0.02,0.06c0.02-0.04,0.03-0.08,0.05-0.12c-0.01,0.01-0.01,0.03-0.02,0.04
					c0.03-0.03,0.05-0.07,0.08-0.1c-0.01,0.01-0.01,0.01-0.02,0.02c0.03-0.03,0.07-0.05,0.1-0.08c-0.01,0.01-0.02,0.01-0.02,0.01
					c0.04-0.02,0.08-0.03,0.12-0.05c-0.01,0-0.02,0.01-0.03,0.01c0.04-0.01,0.09-0.01,0.13-0.02c-0.01,0-0.02,0-0.03,0
					c0.04,0.01,0.09,0.01,0.13,0.02c-0.02,0-0.04-0.01-0.06-0.02c0.04,0.02,0.08,0.03,0.12,0.05c-0.02-0.01-0.03-0.02-0.05-0.03
					c0.03,0.03,0.07,0.05,0.1,0.08c-0.02-0.01-0.03-0.03-0.05-0.05c0.03,0.03,0.05,0.07,0.08,0.1c-0.01-0.02-0.03-0.04-0.04-0.06
					c0.02,0.04,0.03,0.08,0.05,0.12c-0.01-0.04-0.02-0.07-0.03-0.11c0.01,0.04,0.01,0.09,0.02,0.13c0-0.04,0-0.09,0-0.13
					c-0.01,0.04-0.01,0.09-0.02,0.13c0.01-0.04,0.02-0.09,0.03-0.13c-0.02,0.04-0.03,0.08-0.05,0.12c0.02-0.04,0.04-0.08,0.07-0.12
					c-0.03,0.03-0.05,0.07-0.08,0.1c0.08-0.1,0.17-0.17,0.26-0.25c0.12-0.11,0.23-0.22,0.32-0.35c-0.29,0-0.58,0-0.86,0
					c0.09,0.12,0.18,0.25,0.24,0.39c-0.02-0.04-0.03-0.08-0.05-0.12c0.03,0.07,0.05,0.14,0.06,0.21c-0.01-0.04-0.01-0.09-0.02-0.13
					c0.01,0.05,0.01,0.09,0,0.14c0.01-0.04,0.01-0.09,0.02-0.13c-0.01,0.04-0.02,0.08-0.03,0.12c0.02-0.04,0.03-0.08,0.05-0.12
					c-0.01,0.03-0.03,0.05-0.04,0.08c0.03-0.03,0.05-0.07,0.08-0.1c-0.01,0.01-0.02,0.02-0.04,0.04c0.03-0.03,0.07-0.05,0.1-0.08
					c-0.02,0.01-0.03,0.02-0.05,0.03c0.04-0.02,0.08-0.03,0.12-0.05c-0.02,0.01-0.04,0.01-0.06,0.01c0.04-0.01,0.09-0.01,0.13-0.02
					c-0.03,0-0.06,0-0.09,0c0.04,0.01,0.09,0.01,0.13,0.02c-0.04-0.01-0.07-0.02-0.11-0.03c0.04,0.02,0.08,0.03,0.12,0.05
					c-0.03-0.02-0.07-0.03-0.1-0.06c0.03,0.03,0.07,0.05,0.1,0.08c-0.02-0.02-0.04-0.04-0.06-0.06c0.03,0.03,0.05,0.07,0.08,0.1
					c-0.01-0.01-0.02-0.03-0.03-0.04c0.02,0.04,0.03,0.08,0.05,0.12c0-0.01-0.01-0.02-0.01-0.04c0.01,0.04,0.01,0.09,0.02,0.13
					c0-0.01,0-0.02,0-0.03c-0.01,0.04-0.01,0.09-0.02,0.13c0-0.01,0-0.02,0.01-0.03c-0.02,0.04-0.03,0.08-0.05,0.12
					c0.01-0.01,0.01-0.02,0.02-0.04c-0.03,0.03-0.05,0.07-0.08,0.1c0.01-0.01,0.02-0.02,0.04-0.03c-0.03,0.03-0.07,0.05-0.1,0.08
					c0,0,0.01,0,0.01-0.01c0.11-0.08,0.19-0.17,0.23-0.3c0.03-0.12,0.02-0.28-0.05-0.39c-0.07-0.11-0.17-0.2-0.3-0.23
					c-0.12-0.03-0.28-0.03-0.39,0.05c-0.14,0.1-0.25,0.22-0.3,0.39c-0.04,0.16-0.02,0.33,0.06,0.48c0.11,0.2,0.3,0.32,0.51,0.39
					c0.24,0.08,0.51,0.04,0.7-0.12c0.14-0.11,0.22-0.25,0.27-0.41c0.05-0.16,0.04-0.33,0.01-0.5c-0.02-0.15-0.09-0.29-0.16-0.42
					c-0.06-0.1-0.12-0.2-0.19-0.29c-0.04-0.08-0.1-0.13-0.18-0.18c-0.08-0.05-0.16-0.07-0.25-0.07c-0.19,0-0.33,0.1-0.43,0.25
					c-0.01,0.01-0.02,0.03-0.03,0.04c0.03-0.03,0.05-0.07,0.08-0.1c-0.07,0.09-0.17,0.17-0.26,0.25c-0.12,0.1-0.21,0.2-0.31,0.33
					c-0.04,0.05-0.06,0.11-0.09,0.17c-0.03,0.06-0.05,0.12-0.06,0.19c-0.02,0.16-0.04,0.33,0.02,0.48c0.06,0.18,0.17,0.35,0.35,0.45
					c0.2,0.11,0.45,0.14,0.65,0.02c0.29-0.16,0.37-0.49,0.31-0.8c-0.03-0.17-0.14-0.33-0.29-0.41c-0.11-0.07-0.23-0.09-0.36-0.07
					c-0.14,0.02-0.24,0.08-0.35,0.17c-0.09,0.08-0.15,0.23-0.15,0.35c0,0.12,0.05,0.27,0.15,0.35c0.1,0.09,0.22,0.15,0.35,0.15
					C256.72,121.05,256.83,121,256.93,120.91L256.93,120.91z"/>
			</g>
		</g>
		<g>
			<g>
				<path d="M254.83,105.86c1.49,0.08,3.91,0.2,4.39,1.98c0.15,0.56,0.11,1.33-0.35,1.75c-0.5,0.46-1.33,0.2-1.95,0.36
					c-0.74,0.18-1.15,0.79-1.03,1.55c0.16,1.07,0.65,2.16,0.98,3.19c0.18,0.55,0.33,1.11,0.53,1.65c0.12,0.33,0.31,0.64,0.68,0.7
					c0.69,0.11,1-0.88,0.37-1.17c-0.21-0.1-0.43-0.09-0.61,0.08c-0.01,0.01-0.03,0.03-0.04,0.04c-0.47,0.45,0.24,1.15,0.71,0.71
					c0.01-0.01,0.03-0.03,0.04-0.04c-0.2,0.03-0.4,0.05-0.61,0.08c-0.05-0.11-0.1-0.23-0.15-0.34c0.08-0.1,0.15-0.2,0.23-0.3
					c-0.02,0.01-0.04,0.02-0.06,0.03c0.13-0.02,0.26-0.03,0.39-0.05c-0.07-0.01-0.36-1.18-0.41-1.34c-0.15-0.48-0.31-0.96-0.46-1.45
					c-0.16-0.52-0.34-1.03-0.5-1.55c-0.12-0.39-0.22-0.75,0.27-0.84c0.63-0.11,1.26,0.03,1.86-0.27c0.49-0.25,0.84-0.7,1.02-1.21
					c0.4-1.1,0.07-2.46-0.8-3.24c-1.22-1.09-2.93-1.23-4.49-1.31C254.19,104.83,254.19,105.83,254.83,105.86L254.83,105.86z"/>
			</g>
		</g>
	</g>
</g>
<g class="st2">
	<g class="st3">
		<path class="st1" d="M200.86,185.83c-0.68,0.83-0.64,1.93-0.06,2.82c0.68,1.04,1.9,1.4,3.07,1.54c3.01,0.35,6.25,0.43,9.21-0.23
			c-0.19-0.08-0.38-0.15-0.56-0.23c0.65,1.46,1.31,2.92,1.96,4.38c0.19,0.42,0.79,0.25,0.91-0.12c0.32-0.99,0.64-1.98,0.96-2.96
			c0.1-0.3,0.17-0.62,0.29-0.91c0.11-0.27,0.1-0.36,0.41-0.4c0.44-0.06,1,0.1,1.43,0.16c2.12,0.27,4.17,0.77,6.25,1.21
			c1.56,0.33,3.34,0.38,4.47-0.95c0.9-1.05,1.09-2.53,0.51-3.78c-0.27-0.58-1.13-0.08-0.86,0.5c0.61,1.31-0.17,2.96-1.56,3.33
			c-0.93,0.25-1.92,0.02-2.84-0.2c-0.92-0.22-1.84-0.44-2.77-0.62c-0.91-0.18-1.82-0.32-2.74-0.45c-0.48-0.06-0.95-0.12-1.43-0.17
			c-0.39-0.04-0.79-0.12-1.16,0.04c-0.67,0.3-0.79,1.33-0.99,1.95c-0.32,0.99-0.64,1.98-0.96,2.96c0.3-0.04,0.61-0.08,0.91-0.12
			c-0.65-1.46-1.31-2.92-1.96-4.38c-0.09-0.21-0.37-0.27-0.56-0.23c-2.37,0.53-4.8,0.45-7.21,0.32c-1.06-0.06-2.26-0.03-3.22-0.54
			c-0.73-0.39-1.45-1.46-0.82-2.24C201.97,186.04,201.27,185.33,200.86,185.83L200.86,185.83z"/>
	</g>
</g>
<g class="st2">
	<g class="st3">
		<path class="st1" d="M212.4,196.52c-0.03-0.5-0.05-1.01-0.08-1.51c-0.33,0-0.67,0-1,0c0.17,2.64,0.53,5.27,1.1,7.86
			c0.13,0.6,0.92,0.38,0.98-0.13c0.09-0.68,0.31-1.35,0.64-1.96c0.15-0.28,0.33-0.56,0.53-0.81c0.11-0.14,0.23-0.28,0.36-0.41
			c0.06-0.07,0.13-0.13,0.2-0.19c-0.08-0.07-0.11-0.07-0.06-0.01c0.2,0.16,0.29,0.74,0.35,0.98c0.08,0.34,0.13,0.68,0.14,1.03
			c0.02,0.75-0.13,1.47-0.41,2.16c0.33,0.04,0.65,0.09,0.98,0.13c0-0.13,0.01-0.26,0.01-0.39c0.02-0.64-0.98-0.64-1,0
			c0,0.13-0.01,0.26-0.01,0.39c-0.02,0.61,0.78,0.62,0.98,0.13c0.39-0.95,0.52-1.99,0.4-3.02c-0.06-0.51-0.18-1-0.38-1.48
			c-0.15-0.38-0.34-0.8-0.77-0.92c-0.87-0.25-1.64,0.99-2.02,1.6c-0.52,0.84-0.82,1.78-0.95,2.76c0.33-0.04,0.65-0.09,0.98-0.13
			c-0.55-2.5-0.9-5.04-1.06-7.6c-0.04-0.64-1.03-0.65-1,0c0.03,0.5,0.05,1.01,0.08,1.51C211.44,197.16,212.44,197.16,212.4,196.52
			L212.4,196.52z"/>
	</g>
</g>
<g class="st2">
	<g class="st3">
		<g>
			<path class="st1" d="M229.88,103c0.9-0.01,1.83,0.39,2.16,1.29c0.31,0.84,0.2,1.89,0.24,2.78c0.08,2.07,0.16,4.15,0.24,6.22
				c0.16,4.15,0.32,8.29,0.48,12.44c0.01,0.29,0.22,0.47,0.5,0.5c2.19,0.24,4.34,0.75,6.4,1.54c-0.04-0.3-0.08-0.61-0.12-0.91
				c-1.89,0.88-3.87,1.52-5.9,1.98c-0.34,0.08-0.43,0.46-0.3,0.73c1.98,4.1,0.34,8.78,0.38,13.1c0.02,2.39,0.36,4.77,0.78,7.12
				c0.21,1.16,0.44,2.32,0.68,3.48c0.21,1.05,0.55,2.16,0.53,3.24c-0.02,1.07-0.64,1.82-1.64,2.13c-0.76,0.24-1.85,0.37-2.51-0.19
				c-0.49-0.41-1.2,0.29-0.71,0.71c1.25,1.06,3.4,0.8,4.66-0.13c1.89-1.4,1.04-4,0.65-5.9c-0.56-2.74-1.12-5.49-1.35-8.29
				c-0.21-2.59,0.04-5.11,0.3-7.69c0.29-2.77,0.31-5.53-0.93-8.09c-0.1,0.24-0.2,0.49-0.3,0.73c2.12-0.48,4.17-1.17,6.14-2.08
				c0.43-0.2,0.24-0.78-0.12-0.91c-2.15-0.82-4.38-1.32-6.66-1.57c0.17,0.17,0.33,0.33,0.5,0.5c-0.18-4.64-0.36-9.28-0.54-13.93
				c-0.09-2.27-0.06-4.57-0.28-6.83c-0.18-1.79-1.49-2.98-3.3-2.96C229.24,102.01,229.24,103.01,229.88,103L229.88,103z"/>
		</g>
	</g>
	<g class="st3">
		<g>
			<g>
				<path class="st1" d="M246.19,133.2c-1.09-2.57-1.19-5.52-0.27-8.15c0.34-0.99,0.96-2.44,2.17-2.55c1.45-0.13,2.15,1.5,2.43,2.64
					c0.15,0.62,1.12,0.36,0.96-0.27c-0.36-1.45-1.16-3-2.77-3.33c-1.52-0.31-2.69,0.84-3.3,2.11c-1.52,3.12-1.43,6.89-0.09,10.05
					C245.58,134.3,246.44,133.79,246.19,133.2L246.19,133.2z"/>
			</g>
		</g>
		<g>
			<g>
				<path class="st1" d="M243.25,127.68c2.23-0.5,4.52-0.62,6.8-0.38c0.27,0.03,0.5-0.25,0.5-0.5c0-0.29-0.23-0.47-0.5-0.5
					c-2.36-0.25-4.74-0.1-7.06,0.41C242.36,126.86,242.63,127.82,243.25,127.68L243.25,127.68z"/>
			</g>
		</g>
		<g>
			<g>
				<path class="st1" d="M254.33,123.55c-1.3,1.66-1.9,3.88-2.19,5.94c-0.15,1.05-0.01,2.04,0.48,2.99
					c0.49,0.94,1.21,1.75,1.92,2.53c0.43,0.48,1.14-0.23,0.71-0.71c-0.61-0.68-1.23-1.37-1.68-2.18c-0.49-0.88-0.57-1.79-0.39-2.77
					c0.32-1.74,0.75-3.67,1.87-5.09C255.43,123.75,254.73,123.04,254.33,123.55L254.33,123.55z"/>
			</g>
		</g>
		<g>
			<g>
				<path class="st1" d="M254.77,125.82c1.26,1.89,2.48,3.81,3.77,5.68c0.49,0.71,1.03,1.38,1.77,1.84c0.33,0.2,0.87,0.54,1.26,0.35
					c0.4-0.21,0.54-0.72,0.3-1.09c-0.35-0.54-1.21-0.04-0.86,0.5c0.02-0.09,0.04-0.18,0.06-0.28c0.13-0.02,0.26-0.03,0.39-0.05
					c-1.37-0.46-2.1-1.86-2.85-2.99c-0.99-1.49-1.98-2.98-2.96-4.47C255.28,124.78,254.41,125.28,254.77,125.82L254.77,125.82z"/>
			</g>
		</g>
		<g>
			<g>
				<path class="st1" d="M260.34,125.56c-1.8,2.33-3.76,4.53-5.85,6.6c-0.4,0.4,0.11,1.08,0.61,0.79c0.55-0.33,1-0.74,1.38-1.25
					c0.16-0.22,0.03-0.56-0.18-0.68c-0.25-0.15-0.52-0.04-0.68,0.18c-0.28,0.37-0.63,0.65-1.02,0.89c0.2,0.26,0.4,0.52,0.61,0.79
					c2.09-2.07,4.05-4.27,5.85-6.6c0.17-0.22,0.21-0.5,0-0.71C260.87,125.39,260.5,125.35,260.34,125.56L260.34,125.56z"/>
			</g>
		</g>
		<g>
			<g>
				<path class="st1" d="M261.76,123.11c1.05,2.02,1.69,4.2,2.02,6.45c0.15,1,0.36,2.17-0.03,3.15c-0.39,0.98-1.42,1.51-2.44,1.37
					c-0.64-0.08-0.63,0.92,0,1c1.12,0.15,2.26-0.37,2.94-1.26c0.74-0.96,0.76-2.21,0.64-3.36c-0.29-2.74-1-5.41-2.28-7.85
					C262.32,122.04,261.46,122.54,261.76,123.11L261.76,123.11z"/>
			</g>
		</g>
	</g>
</g>
<g class="st2">
	<g class="st3">
		<g>
			<path class="st4" d="M217.26,86.29c2.51,0.07,5.01,0.3,7.48,0.69c0.31,0.05,0.45-0.43,0.13-0.48c-2.52-0.4-5.06-0.64-7.61-0.71
				C216.94,85.78,216.94,86.28,217.26,86.29L217.26,86.29z"/>
		</g>
	</g>
	<g class="st3">
		<g>
			<path class="st4" d="M211.78,93.88c3.27-0.54,6.62-0.56,9.89-0.01c0.74,0.12,1.5,0.25,2.21,0.48c0.28,0.09,0.74,0.19,0.89-0.16
				c0.21-0.52-0.77-0.87-0.72-0.26c0.03,0.32,0.53,0.32,0.5,0c0,0.01-1.52-0.31-1.7-0.35c-0.54-0.11-1.09-0.21-1.63-0.29
				c-1.04-0.15-2.08-0.26-3.13-0.3c-2.16-0.1-4.31,0.05-6.44,0.4C211.33,93.45,211.47,93.93,211.78,93.88L211.78,93.88z"/>
		</g>
	</g>
	<g class="st3">
		<g>
			<path class="st4" d="M205.38,100.77c6.14,0.27,12.27,0.54,18.41,0.82c0.32,0.01,0.32-0.49,0-0.5
				c-6.14-0.27-12.27-0.54-18.41-0.82C205.06,100.25,205.06,100.75,205.38,100.77L205.38,100.77z"/>
		</g>
	</g>
	<g class="st3">
		<g>
			<path class="st4" d="M199.37,109.41c4.3-0.05,8.6-0.02,12.89,0.07c2.15,0.05,4.29,0.11,6.44,0.2c1.11,0.04,2.23,0.09,3.34,0.14
				c0.97,0.05,2.03,0.22,3,0.13c0.32-0.03,0.96-0.31,0.57-0.71c-0.25-0.25-0.82-0.22-0.83,0.19c-0.01,0.32,0.49,0.32,0.5,0
				c-0.07,0.2-0.17,0.21-0.31,0.03c-0.11,0-0.22,0-0.32,0c-0.25-0.01-0.49-0.03-0.74-0.04c-0.54-0.03-1.07-0.05-1.61-0.08
				c-1.11-0.05-2.23-0.1-3.34-0.15c-2.15-0.08-4.29-0.15-6.44-0.2c-4.38-0.1-8.76-0.12-13.14-0.08
				C199.05,108.91,199.05,109.41,199.37,109.41L199.37,109.41z"/>
		</g>
	</g>
	<g class="st3">
		<g>
			<path class="st4" d="M201.2,114.29c1.9,0.48,3.91,0.32,5.84,0.3c2.12-0.02,4.25-0.04,6.37-0.06c4.25-0.04,8.5-0.08,12.75-0.13
				c0.32,0,0.32-0.5,0-0.5c-4.17,0.04-8.33,0.08-12.5,0.12c-2.08,0.02-4.17,0.04-6.25,0.06c-2.01,0.02-4.12,0.22-6.09-0.28
				C201.02,113.73,200.88,114.21,201.2,114.29L201.2,114.29z"/>
		</g>
	</g>
	<g class="st3">
		<g>
			<path class="st4" d="M203.14,123.91c4.78,0.2,9.56,0.4,14.34,0.6c2.39,0.1,4.78,0.2,7.17,0.3c0.6,0.03,1.8,0.33,2.22-0.3
				c0.25-0.38,0.06-1.04-0.45-1.01c-0.32,0.02-0.32,0.52,0,0.5c-0.11,0.29-0.29,0.41-0.53,0.36c-0.08,0-0.16-0.01-0.25-0.01
				c-0.25-0.01-0.49-0.02-0.74-0.03c-0.49-0.02-0.99-0.04-1.48-0.06c-0.95-0.04-1.89-0.08-2.84-0.12c-1.94-0.08-3.87-0.16-5.81-0.25
				c-3.87-0.16-7.74-0.33-11.62-0.49C202.82,123.4,202.82,123.9,203.14,123.91L203.14,123.91z"/>
		</g>
	</g>
	<g class="st3">
		<g>
			<path class="st4" d="M203.52,131.33c7.75,0.35,15.52,0.35,23.27,0.01c0.32-0.01,0.32-0.51,0-0.5
				c-7.75,0.34-15.52,0.34-23.27-0.01C203.2,130.81,203.2,131.31,203.52,131.33L203.52,131.33z"/>
		</g>
	</g>
	<g class="st3">
		<g>
			<path class="st4" d="M204.26,137.58c7.39,0.12,14.77,0.24,22.16,0.37c0.32,0.01,0.32-0.49,0-0.5
				c-7.39-0.12-14.77-0.24-22.16-0.37C203.94,137.07,203.94,137.57,204.26,137.58L204.26,137.58z"/>
		</g>
	</g>
	<g class="st3">
		<g>
			<path class="st4" d="M202.39,143.57c8.84-0.44,17.69-0.49,26.53-0.17c-0.02-0.16-0.04-0.33-0.07-0.49
				c-0.34,0.13-0.68,0.26-1.01,0.4c-0.3,0.12-0.17,0.6,0.13,0.48c0.34-0.13,0.68-0.26,1.01-0.4c0.25-0.1,0.23-0.48-0.07-0.49
				c-8.84-0.32-17.7-0.27-26.53,0.17C202.07,143.09,202.07,143.59,202.39,143.57L202.39,143.57z"/>
		</g>
	</g>
	<g class="st3">
		<g>
			<path class="st4" d="M205.38,149.22c6.88-0.3,13.78-0.19,20.65,0.34c0.32,0.02,0.32-0.48,0-0.5c-6.87-0.53-13.76-0.64-20.65-0.34
				C205.06,148.73,205.06,149.23,205.38,149.22L205.38,149.22z"/>
		</g>
	</g>
	<g class="st3">
		<g>
			<path class="st4" d="M203.87,154.86c7.61,0.36,15.21,0.72,22.82,1.08c0-0.17,0-0.33,0-0.5c-0.47,0.02-0.93,0.04-1.4,0.06
				c-0.32,0.01-0.32,0.51,0,0.5c0.47-0.02,0.93-0.04,1.4-0.06c0.32-0.01,0.32-0.48,0-0.5c-7.61-0.36-15.21-0.72-22.82-1.08
				C203.55,154.34,203.55,154.84,203.87,154.86L203.87,154.86z"/>
		</g>
	</g>
	<g class="st3">
		<g>
			<path class="st4" d="M208.93,159.79c-0.53-15.53-1.06-31.06-1.59-46.59c-0.15-4.4-0.3-8.8-0.45-13.2c-0.01-0.32-0.51-0.32-0.5,0
				c0.53,15.53,1.06,31.06,1.59,46.59c0.15,4.4,0.3,8.8,0.45,13.2C208.44,160.11,208.94,160.11,208.93,159.79L208.93,159.79z"/>
		</g>
	</g>
	<g class="st3">
		<g>
			<path class="st4" d="M212.32,93.53c0.29,8.53,0.46,17.07,0.52,25.61c0.06,8.51,0.11,17.02,0.17,25.52
				c0.03,4.84,0.06,9.69,0.1,14.53c0,0.32,0.5,0.32,0.5,0c-0.06-8.57-0.11-17.14-0.17-25.71c-0.06-8.48-0.08-16.97-0.24-25.45
				c-0.09-4.84-0.22-9.67-0.38-14.5C212.81,93.21,212.31,93.21,212.32,93.53L212.32,93.53z"/>
		</g>
	</g>
	<g class="st3">
		<g>
			<path class="st4" d="M217.14,159.03c-0.17-4.55-0.25-9.12-0.58-13.66c-0.17-2.26-0.47-4.51-0.68-6.77
				c-0.2-2.25-0.26-4.52-0.26-6.78c0-9.25,0.25-18.5,0.39-27.75c0.08-5.19,0.15-10.38,0.23-15.57c0-0.32-0.5-0.32-0.5,0
				c-0.14,9.22-0.27,18.44-0.41,27.66c-0.07,4.65-0.15,9.29-0.2,13.94c-0.02,2.27-0.01,4.54,0.12,6.8c0.14,2.27,0.44,4.53,0.66,6.79
				c0.49,5.1,0.54,10.24,0.73,15.36C216.66,159.35,217.16,159.35,217.14,159.03L217.14,159.03z"/>
		</g>
	</g>
	<g class="st3">
		<g>
			<path class="st4" d="M219.93,83.72c0.01-0.02,0.03-0.04,0.04-0.05c0.08-0.09,0.09-0.19,0.04-0.3c-0.08-0.17-0.21-0.22-0.39-0.25
				c-0.09-0.01-0.17,0.06-0.22,0.12c-0.19,0.31-0.11,0.82-0.13,1.17c-0.04,0.66-0.07,1.31-0.1,1.97c-0.05,1.23-0.08,2.46-0.1,3.7
				c-0.03,2.42,0.02,4.85,0.14,7.27c0.23,4.8,0.96,9.55,1.32,14.34c0.36,4.9-0.24,9.75-0.62,14.63c-0.37,4.87-0.26,9.75-0.09,14.62
				c0.19,5.51,0.39,11.03,0.58,16.54c0.01,0.32,0.51,0.32,0.5,0c-0.17-4.85-0.34-9.71-0.51-14.56c-0.17-4.83-0.38-9.67-0.12-14.5
				c0.26-4.81,1-9.6,0.88-14.43c-0.12-4.78-0.97-9.53-1.3-14.3c-0.18-2.66-0.27-5.33-0.28-8.01c0-1.36,0.02-2.71,0.06-4.07
				c0.02-0.66,0.05-1.31,0.08-1.97c0.02-0.37,0.04-0.74,0.06-1.11c0.01-0.12,0.01-0.25,0.02-0.37c0.01-0.12,0.01-0.25,0.02-0.37
				c0.05-0.16-0.03-0.22-0.24-0.18c0.01-0.1,0.03-0.2,0.04-0.3c-0.01,0.02-0.03,0.04-0.04,0.05
				C219.38,83.62,219.73,83.97,219.93,83.72L219.93,83.72z"/>
		</g>
	</g>
	<g class="st3">
		<g>
			<path class="st4" d="M221.4,81.45c-0.01,10.33,0.55,20.65,1.1,30.97c0.56,10.35,1.11,20.71,1.06,31.07
				c-0.01,2.89-0.08,5.78-0.2,8.66c-0.1,2.46-0.51,5.12,0.58,7.42c0.14,0.29,0.57,0.04,0.43-0.25c-1.03-2.16-0.61-4.73-0.52-7.04
				c0.11-2.56,0.17-5.11,0.19-7.67c0.05-5.12-0.06-10.24-0.24-15.35c-0.37-10.16-1.05-20.31-1.49-30.46
				c-0.25-5.78-0.42-11.56-0.42-17.34C221.9,81.13,221.4,81.12,221.4,81.45L221.4,81.45z"/>
		</g>
	</g>
	<g class="st3">
		<g>
			<path class="st4" d="M202.94,120.15c3.69-0.6,7.41,0.11,11.11,0.09c1.77-0.01,3.47-0.28,5.2-0.65c0.94-0.2,1.88-0.4,2.83-0.5
				c0.46-0.05,0.92-0.07,1.38-0.05c0.19,0.01,0.38,0.02,0.57,0.04c0.03,0,1.18,0.11,1.14,0.06c-0.01,0.1-0.03,0.2-0.04,0.3
				c0.02-0.02,0.03-0.03,0.05-0.05c0.22-0.24-0.14-0.59-0.35-0.35c-0.02,0.02-0.03,0.03-0.05,0.05c-0.07,0.07-0.11,0.21-0.04,0.3
				c0.23,0.3,0.75,0.28,0.72-0.18c-0.05-0.71-1.56-0.66-2.01-0.67c-2.29-0.07-4.5,0.71-6.75,1.02c-4.63,0.64-9.28-0.64-13.91,0.11
				C202.5,119.72,202.63,120.2,202.94,120.15L202.94,120.15z"/>
		</g>
	</g>
</g>
<g class="st2">
	<g class="st3">
		<g>
			<path d="M202.19,103.04c0.75-0.1,1.51-0.1,2.27,0c-0.09-0.01-0.18-0.02-0.27-0.04c0.22,0.03,0.44,0.07,0.66,0.11
				c0.26,0.06,0.53,0.04,0.77-0.1c0.21-0.12,0.41-0.36,0.46-0.6c0.11-0.5-0.15-1.11-0.7-1.23c-1.05-0.22-2.13-0.29-3.19-0.15
				c-0.28,0.04-0.5,0.09-0.71,0.29c-0.17,0.17-0.3,0.46-0.29,0.71c0.01,0.26,0.1,0.53,0.29,0.71
				C201.66,102.91,201.93,103.07,202.19,103.04L202.19,103.04z"/>
		</g>
	</g>
	<g class="st3">
		<g>
			<path d="M208.33,102.79c0.23,0.01,0.45,0.03,0.67,0.06c-0.09-0.01-0.18-0.02-0.27-0.04c0.61,0.09,1.2,0.25,1.77,0.49
				c-0.08-0.03-0.16-0.07-0.24-0.1c0.07,0.03,0.15,0.06,0.22,0.1c0.25,0.12,0.5,0.18,0.77,0.1c0.23-0.06,0.48-0.24,0.6-0.46
				c0.12-0.23,0.18-0.51,0.1-0.77c-0.08-0.23-0.23-0.49-0.46-0.6c-1.01-0.46-2.06-0.73-3.17-0.78c-0.52-0.02-1.02,0.48-1,1
				C207.35,102.35,207.77,102.77,208.33,102.79L208.33,102.79z"/>
		</g>
	</g>
	<g class="st3">
		<g>
			<path d="M214.71,103.02c0.61-0.03,1.23-0.04,1.84-0.01c0.29,0.01,0.59,0.03,0.88,0.06c0.15,0.01,0.29,0.03,0.44,0.04
				c0.09,0.01,0.17,0.02,0.26,0.03c0.27,0.03-0.15-0.02,0.06,0.01c0.28,0.04,0.52,0.05,0.77-0.1c0.21-0.12,0.41-0.36,0.46-0.6
				c0.06-0.26,0.05-0.54-0.1-0.77c-0.13-0.2-0.35-0.42-0.6-0.46c-1.34-0.19-2.67-0.27-4.02-0.2c-0.52,0.03-1.03,0.44-1,1
				C213.73,102.54,214.15,103.05,214.71,103.02L214.71,103.02z"/>
		</g>
	</g>
	<g class="st3">
		<g>
			<path d="M221.35,102.49c0.87-0.26,1.75-0.52,2.62-0.77c0.24-0.07,0.47-0.24,0.6-0.46c0.13-0.21,0.18-0.53,0.1-0.77
				c-0.16-0.51-0.69-0.86-1.23-0.7c-0.87,0.26-1.75,0.52-2.62,0.77c-0.24,0.07-0.47,0.24-0.6,0.46c-0.13,0.21-0.18,0.53-0.1,0.77
				C220.28,102.3,220.81,102.65,221.35,102.49L221.35,102.49z"/>
		</g>
	</g>
	<g class="st3">
		<g>
			<path d="M225.75,101.78c0.09,0.33,0.15,0.66,0.2,1c-0.01-0.09-0.02-0.18-0.04-0.27c0.09,0.72,0.09,1.45,0,2.17
				c0.01-0.09,0.02-0.18,0.04-0.27c-0.01,0.08-0.02,0.17-0.04,0.25c-0.05,0.27-0.04,0.52,0.1,0.77c0.12,0.21,0.36,0.41,0.6,0.46
				c0.48,0.11,1.14-0.15,1.23-0.7c0.22-1.32,0.18-2.65-0.16-3.95c-0.13-0.51-0.72-0.86-1.23-0.7
				C225.93,100.72,225.6,101.24,225.75,101.78L225.75,101.78z"/>
		</g>
	</g>
	<g class="st3">
		<g>
			<path d="M226.49,107.39c-0.1,1.16-0.04,2.31,0.14,3.47c0.04,0.23,0.27,0.48,0.46,0.6c0.21,0.13,0.53,0.18,0.77,0.1
				c0.24-0.08,0.48-0.23,0.6-0.46c0.13-0.25,0.14-0.49,0.1-0.77c-0.02-0.1-0.03-0.2-0.04-0.31c0.01,0.09,0.02,0.18,0.04,0.27
				c-0.13-0.96-0.14-1.93-0.06-2.89c0.02-0.24-0.13-0.54-0.29-0.71c-0.17-0.17-0.46-0.3-0.71-0.29c-0.26,0.01-0.53,0.1-0.71,0.29
				C226.6,106.88,226.52,107.11,226.49,107.39L226.49,107.39z"/>
		</g>
	</g>
	<g class="st3">
		<g>
			<path d="M227.06,113.39c-0.09,1.25-0.06,2.51,0.1,3.76c0.03,0.28,0.09,0.5,0.29,0.71c0.17,0.17,0.46,0.3,0.71,0.29
				c0.26-0.01,0.53-0.1,0.71-0.29c0.17-0.18,0.33-0.45,0.29-0.71c-0.16-1.25-0.19-2.51-0.1-3.76c0.04-0.52-0.49-1.02-1-1
				C227.48,112.42,227.1,112.83,227.06,113.39L227.06,113.39z"/>
		</g>
	</g>
	<g class="st3">
		<g>
			<path d="M227.24,120.15c-0.1,1.22-0.04,2.44,0.14,3.65c0.03,0.23,0.27,0.49,0.46,0.6c0.21,0.13,0.53,0.18,0.77,0.1
				c0.24-0.08,0.48-0.23,0.6-0.46c0.13-0.25,0.14-0.49,0.1-0.77c-0.01-0.06-0.02-0.13-0.03-0.19c0.01,0.09,0.02,0.18,0.04,0.27
				c-0.14-1.06-0.17-2.13-0.08-3.19c0.04-0.52-0.49-1.02-1-1C227.67,119.18,227.29,119.59,227.24,120.15L227.24,120.15z"/>
		</g>
	</g>
	<g class="st3">
		<g>
			<path d="M227.6,126.34c0,0.94,0,1.88,0,2.82c0,0.52,0.46,1.02,1,1c0.54-0.02,1-0.44,1-1c0-0.94,0-1.88,0-2.82
				c0-0.52-0.46-1.02-1-1C228.06,125.37,227.6,125.78,227.6,126.34L227.6,126.34z"/>
		</g>
	</g>
	<g class="st3">
		<g>
			<path d="M227.85,131.15c-0.07,0.41-0.12,0.83-0.09,1.25c0.03,0.42,0.1,0.85,0.23,1.25c0.08,0.25,0.23,0.47,0.46,0.6
				c0.21,0.13,0.53,0.18,0.77,0.1c0.24-0.08,0.48-0.23,0.6-0.46c0.12-0.23,0.18-0.51,0.1-0.77c-0.08-0.24-0.13-0.48-0.17-0.73
				c0.01,0.09,0.02,0.18,0.04,0.27c-0.05-0.35-0.05-0.71,0-1.06c-0.01,0.09-0.02,0.18-0.04,0.27c0.01-0.06,0.02-0.12,0.03-0.18
				c0.05-0.27,0.04-0.53-0.1-0.77c-0.12-0.21-0.36-0.41-0.6-0.46c-0.26-0.06-0.54-0.05-0.77,0.1
				C228.11,130.68,227.9,130.89,227.85,131.15L227.85,131.15z"/>
		</g>
	</g>
	<g class="st3">
		<g>
			<path d="M228.54,136.29c0,0.81,0,1.63,0,2.44c0,0.26,0.11,0.53,0.29,0.71c0.17,0.17,0.46,0.3,0.71,0.29c0.54-0.02,1-0.44,1-1
				c0-0.81,0-1.63,0-2.44c0-0.26-0.11-0.53-0.29-0.71c-0.17-0.17-0.46-0.3-0.71-0.29C229,135.31,228.54,135.73,228.54,136.29
				L228.54,136.29z"/>
		</g>
	</g>
	<g class="st3">
		<g>
			<path d="M229.07,142.11c0.07,0.69,0.14,1.37,0.21,2.06c-0.01,0.14,0.02,0.27,0.09,0.39c0.04,0.12,0.11,0.23,0.21,0.32
				c0.17,0.17,0.46,0.3,0.71,0.29c0.26-0.01,0.53-0.1,0.71-0.29c0.17-0.18,0.32-0.45,0.29-0.71c-0.07-0.69-0.14-1.37-0.21-2.06
				c0.01-0.14-0.02-0.27-0.09-0.39c-0.04-0.12-0.11-0.23-0.21-0.32c-0.17-0.17-0.46-0.3-0.71-0.29c-0.26,0.01-0.53,0.1-0.71,0.29
				C229.19,141.59,229.04,141.85,229.07,142.11L229.07,142.11z"/>
		</g>
	</g>
	<g class="st3">
		<g>
			<path d="M229.28,146.71c-0.2,1.02-0.27,2.06-0.16,3.09c0.03,0.27,0.09,0.51,0.29,0.71c0.17,0.17,0.46,0.3,0.71,0.29
				c0.26-0.01,0.53-0.1,0.71-0.29c0.17-0.18,0.32-0.45,0.29-0.71c-0.08-0.76-0.07-1.53,0.03-2.29c-0.01,0.09-0.02,0.18-0.04,0.27
				c0.03-0.18,0.05-0.36,0.09-0.54c0.05-0.27,0.04-0.53-0.1-0.77c-0.12-0.21-0.36-0.41-0.6-0.46
				C230.01,145.9,229.38,146.16,229.28,146.71L229.28,146.71z"/>
		</g>
	</g>
	<g class="st3">
		<g>
			<path d="M228.94,151.97c-0.13,0.32-0.19,0.66-0.23,1.01c-0.04,0.35,0,0.69,0.06,1.03c0.03,0.13,0.09,0.24,0.18,0.34
				c0.07,0.11,0.16,0.19,0.28,0.26c0.11,0.07,0.24,0.11,0.37,0.12c0.13,0.03,0.27,0.02,0.4-0.02c0.24-0.08,0.48-0.23,0.6-0.46
				c0.03-0.08,0.07-0.16,0.1-0.24c0.05-0.18,0.05-0.35,0-0.53c-0.01-0.04-0.01-0.07-0.02-0.11c0.01,0.09,0.02,0.18,0.04,0.27
				c-0.03-0.24-0.03-0.48,0-0.73c-0.01,0.09-0.02,0.18-0.04,0.27c0.03-0.23,0.09-0.46,0.18-0.67c0.04-0.13,0.05-0.27,0.02-0.4
				c-0.01-0.13-0.05-0.26-0.12-0.37c-0.12-0.21-0.36-0.41-0.6-0.46c-0.26-0.06-0.54-0.05-0.77,0.1c-0.07,0.05-0.13,0.1-0.2,0.16
				C229.07,151.66,228.99,151.8,228.94,151.97L228.94,151.97z"/>
		</g>
	</g>
	<g class="st3">
		<g>
			<path d="M228.51,156c-0.09,0.74-0.18,1.47-0.27,2.21c0.57-0.24,1.14-0.47,1.71-0.71c-0.08-0.1-0.16-0.21-0.25-0.31
				c-0.15-0.19-0.48-0.29-0.71-0.29c-0.25,0-0.54,0.11-0.71,0.29c-0.17,0.19-0.3,0.44-0.29,0.71c0.01,0.09,0.02,0.18,0.04,0.27
				c0.05,0.17,0.13,0.32,0.26,0.44c0.08,0.1,0.16,0.21,0.25,0.31c0.07,0.05,0.13,0.1,0.2,0.16c0.08,0.03,0.16,0.07,0.24,0.1
				c0.22,0.06,0.45,0.04,0.65-0.05c0.16-0.07,0.29-0.17,0.4-0.31c0.06-0.06,0.1-0.14,0.13-0.22c0.06-0.12,0.09-0.25,0.09-0.39
				c0.09-0.74,0.18-1.47,0.27-2.21c0.03-0.24-0.13-0.55-0.29-0.71c-0.17-0.17-0.46-0.3-0.71-0.29c-0.26,0.01-0.53,0.1-0.71,0.29
				c-0.05,0.07-0.1,0.13-0.16,0.2C228.55,155.65,228.51,155.82,228.51,156L228.51,156z"/>
		</g>
	</g>
	<g class="st3">
		<g>
			<path d="M228.16,160.51c0.05,0.49,0.05,0.98-0.02,1.47c0.01-0.09,0.02-0.18,0.04-0.27c-0.03,0.25-0.08,0.5-0.15,0.74
				c0.64,0,1.29,0,1.93,0c-0.07-0.17-0.13-0.35-0.2-0.52c-0.1-0.25-0.22-0.46-0.46-0.6c-0.21-0.13-0.53-0.18-0.77-0.1
				c-0.24,0.08-0.48,0.23-0.6,0.46c-0.12,0.22-0.2,0.52-0.1,0.77c0.07,0.17,0.13,0.35,0.2,0.52c0.03,0.08,0.07,0.16,0.1,0.24
				c0.06,0.12,0.15,0.21,0.26,0.28c0.17,0.13,0.39,0.22,0.61,0.21c0.44-0.02,0.85-0.3,0.96-0.73c0.21-0.8,0.29-1.65,0.2-2.47
				c-0.03-0.27-0.09-0.51-0.29-0.71c-0.17-0.17-0.46-0.3-0.71-0.29c-0.26,0.01-0.53,0.1-0.71,0.29
				C228.28,159.98,228.13,160.25,228.16,160.51L228.16,160.51z"/>
		</g>
	</g>
	<g class="st3">
		<g>
			<path d="M227.66,160.26c-0.84-0.08-1.69-0.02-2.52,0.15c-0.24,0.05-0.48,0.26-0.6,0.46c-0.13,0.21-0.18,0.53-0.1,0.77
				c0.08,0.24,0.23,0.48,0.46,0.6c0.25,0.13,0.5,0.16,0.77,0.1c0.16-0.03,0.31-0.06,0.47-0.08c-0.09,0.01-0.18,0.02-0.27,0.04
				c0.59-0.08,1.19-0.09,1.78-0.03c0.24,0.02,0.54-0.13,0.71-0.29c0.17-0.17,0.3-0.46,0.29-0.71c-0.01-0.26-0.1-0.53-0.29-0.71
				c-0.07-0.05-0.13-0.1-0.2-0.16C228.01,160.3,227.84,160.26,227.66,160.26L227.66,160.26z"/>
		</g>
	</g>
	<g class="st3">
		<g>
			<path d="M223.44,160.33c-0.48-0.44-1.07-0.5-1.69-0.4c-0.42,0.06-0.79,0.24-1.17,0.41c0.08-0.03,0.16-0.07,0.24-0.1
				c-0.22,0.09-0.44,0.16-0.68,0.19c0.09-0.01,0.18-0.02,0.27-0.04c-0.13,0.02-0.26,0.02-0.39,0.01c0.09,0.01,0.18,0.02,0.27,0.04
				c-0.07-0.01-0.13-0.03-0.19-0.05c0.08,0.03,0.16,0.07,0.24,0.1c-0.04-0.02-0.07-0.04-0.1-0.06c0.07,0.05,0.13,0.1,0.2,0.16
				c-0.02-0.02-0.04-0.04-0.06-0.06c-0.16-0.19-0.47-0.29-0.71-0.29c-0.25,0-0.54,0.11-0.71,0.29c-0.17,0.19-0.3,0.44-0.29,0.71
				c0.01,0.28,0.11,0.49,0.29,0.71c0.34,0.41,0.95,0.52,1.45,0.46c0.26-0.03,0.51-0.07,0.76-0.15c0.23-0.08,0.45-0.19,0.67-0.28
				c-0.08,0.03-0.16,0.07-0.24,0.1c0.23-0.09,0.46-0.17,0.7-0.2c-0.09,0.01-0.18,0.02-0.27,0.04c0.12-0.01,0.24-0.02,0.36,0
				c-0.09-0.01-0.18-0.02-0.27-0.04c0.06,0.01,0.12,0.02,0.17,0.04c-0.08-0.03-0.16-0.07-0.24-0.1c0.04,0.02,0.08,0.04,0.12,0.06
				c-0.07-0.05-0.13-0.1-0.2-0.16c0.02,0.01,0.03,0.03,0.05,0.04c0.38,0.36,1.04,0.41,1.41,0
				C223.79,161.36,223.85,160.71,223.44,160.33L223.44,160.33z"/>
		</g>
	</g>
	<g class="st3">
		<g>
			<path d="M216.56,160.03c-0.78,0.1-1.56,0.19-2.35,0.29c-0.14-0.01-0.27,0.02-0.39,0.09c-0.12,0.04-0.23,0.11-0.32,0.21
				c-0.17,0.17-0.3,0.46-0.29,0.71c0.01,0.26,0.1,0.53,0.29,0.71c0.18,0.17,0.45,0.32,0.71,0.29c0.78-0.1,1.56-0.19,2.35-0.29
				c0.14,0.01,0.27-0.02,0.39-0.09c0.12-0.04,0.23-0.11,0.32-0.21c0.17-0.17,0.3-0.46,0.29-0.71c-0.01-0.26-0.1-0.53-0.29-0.71
				C217.08,160.15,216.81,160,216.56,160.03L216.56,160.03z"/>
		</g>
	</g>
	<g class="st3">
		<g>
			<path d="M211.63,160c-0.3-0.14-0.6-0.25-0.92-0.3c-0.2-0.03-0.4-0.06-0.6-0.06c-0.2,0-0.4,0.03-0.6,0.06
				c-0.65,0.1-1.24,0.41-1.73,0.83c-0.19,0.16-0.29,0.47-0.29,0.71c0,0.25,0.11,0.54,0.29,0.71c0.19,0.17,0.44,0.3,0.71,0.29
				c0.28-0.01,0.5-0.11,0.71-0.29c0.04-0.03,0.08-0.07,0.12-0.1c-0.07,0.05-0.13,0.1-0.2,0.16c0.16-0.12,0.33-0.22,0.51-0.3
				c-0.08,0.03-0.16,0.07-0.24,0.1c0.21-0.09,0.43-0.15,0.65-0.18c-0.09,0.01-0.18,0.02-0.27,0.04c0.22-0.03,0.45-0.03,0.67,0
				c-0.09-0.01-0.18-0.02-0.27-0.04c0.21,0.03,0.42,0.08,0.61,0.16c-0.08-0.03-0.16-0.07-0.24-0.1c0.02,0.01,0.05,0.02,0.07,0.03
				c0.25,0.11,0.49,0.18,0.77,0.1c0.23-0.06,0.48-0.24,0.6-0.46c0.12-0.23,0.18-0.51,0.1-0.77
				C212.01,160.36,211.86,160.1,211.63,160L211.63,160z"/>
		</g>
	</g>
	<g class="st3">
		<g>
			<path d="M205.82,159.49c-0.92,0.13-1.84,0.27-2.76,0.4c0.09-0.01,0.18-0.02,0.27-0.04c-0.13,0.02-0.25,0.02-0.39,0.01
				c0.09,0.01,0.18,0.02,0.27,0.04c-0.04-0.01-0.07-0.01-0.11-0.03c0.08,0.02,0.15,0.06,0.21,0.11c0.07,0.05,0.13,0.11,0.17,0.19
				c-0.05-0.09-0.03-0.04,0.06,0.14c0.01,0.09,0.02,0.18,0.04,0.27c0-0.02,0-0.04,0-0.06c-0.01,0.09-0.02,0.18-0.04,0.27
				c-0.13,0.17-0.25,0.34-0.38,0.51c0.47-0.24,0.64-0.93,0.36-1.37c-0.31-0.47-0.87-0.62-1.37-0.36c-0.73,0.38-0.73,1.41-0.15,1.92
				c0.3,0.26,0.64,0.37,1.03,0.39c0.25,0.02,0.51-0.04,0.76-0.08c0.86-0.12,1.71-0.25,2.57-0.37c0.23-0.03,0.49-0.27,0.6-0.46
				c0.13-0.21,0.18-0.53,0.1-0.77c-0.08-0.24-0.23-0.48-0.46-0.6C206.33,159.45,206.1,159.45,205.82,159.49L205.82,159.49z"/>
		</g>
	</g>
	<g class="st3">
		<g>
			<path d="M203.72,158.75c-0.24-0.79-0.41-1.59-0.52-2.41c0.01,0.09,0.02,0.18,0.04,0.27c0-0.02,0-0.03-0.01-0.05
				c0.01-0.14-0.02-0.27-0.09-0.39c-0.04-0.12-0.11-0.23-0.21-0.32c-0.17-0.17-0.46-0.3-0.71-0.29c-0.26,0.01-0.53,0.1-0.71,0.29
				c-0.17,0.18-0.33,0.45-0.29,0.71c0.12,0.92,0.3,1.83,0.56,2.72c0.07,0.24,0.24,0.47,0.46,0.6c0.21,0.13,0.53,0.18,0.77,0.1
				C203.52,159.82,203.88,159.29,203.72,158.75L203.72,158.75z"/>
		</g>
	</g>
	<g class="st3">
		<g>
			<path d="M203.28,154.23c-0.05-0.23-0.09-0.46-0.12-0.7c0.01,0.09,0.02,0.18,0.04,0.27c-0.09-0.7-0.11-1.41-0.05-2.12
				c0.02-0.24-0.13-0.54-0.29-0.71c-0.17-0.17-0.46-0.3-0.71-0.29c-0.26,0.01-0.53,0.1-0.71,0.29c-0.19,0.2-0.27,0.43-0.29,0.71
				c-0.08,1.03,0,2.07,0.21,3.08c0.11,0.51,0.74,0.86,1.23,0.7C203.12,155.29,203.39,154.78,203.28,154.23L203.28,154.23z"/>
		</g>
	</g>
	<g class="st3">
		<g>
			<path d="M202.95,149.62c0-0.88,0-1.75,0-2.63c0-0.52-0.46-1.02-1-1c-0.54,0.02-1,0.44-1,1c0,0.88,0,1.75,0,2.63
				c0,0.52,0.46,1.02,1,1C202.49,150.59,202.95,150.18,202.95,149.62L202.95,149.62z"/>
		</g>
	</g>
	<g class="st3">
		<g>
			<path d="M202.71,142.79c-0.08-0.25-0.13-0.5-0.17-0.76c0.01,0.09,0.02,0.18,0.04,0.27c-0.06-0.45-0.06-0.9,0-1.35
				c-0.01,0.09-0.02,0.18-0.04,0.27c0.03-0.24,0.08-0.48,0.15-0.71c0.14-0.5-0.17-1.11-0.7-1.23c-0.53-0.12-1.08,0.16-1.23,0.7
				c-0.31,1.09-0.3,2.28,0.02,3.36c0.15,0.5,0.71,0.87,1.23,0.7C202.52,143.85,202.87,143.32,202.71,142.79L202.71,142.79z"/>
		</g>
	</g>
	<g class="st3">
		<g>
			<path d="M202.9,137.16c-0.07-0.25-0.13-0.49-0.16-0.75c0.01,0.09,0.02,0.18,0.04,0.27c-0.06-0.42-0.06-0.85,0-1.28
				c-0.01,0.09-0.02,0.18-0.04,0.27c0.04-0.27,0.1-0.54,0.18-0.8c0.16-0.5-0.18-1.11-0.7-1.23c-0.54-0.12-1.06,0.16-1.23,0.7
				c-0.34,1.08-0.34,2.27-0.01,3.35c0.15,0.5,0.71,0.87,1.23,0.7C202.7,138.22,203.06,137.69,202.9,137.16L202.9,137.16z"/>
		</g>
	</g>
	<g class="st3">
		<g>
			<path d="M202.95,131.41c0-0.75,0-1.5,0-2.25c0-0.26-0.11-0.53-0.29-0.71c-0.17-0.17-0.46-0.3-0.71-0.29c-0.54,0.02-1,0.44-1,1
				c0,0.75,0,1.5,0,2.25c0,0.26,0.11,0.53,0.29,0.71c0.17,0.17,0.46,0.3,0.71,0.29C202.49,132.39,202.95,131.97,202.95,131.41
				L202.95,131.41z"/>
		</g>
	</g>
	<g class="st3">
		<g>
			<path d="M202.54,127.09c0.08-0.75,0.16-1.5,0.23-2.25c0.02-0.24-0.13-0.54-0.29-0.71c-0.17-0.17-0.46-0.3-0.71-0.29
				c-0.26,0.01-0.53,0.1-0.71,0.29c-0.05,0.07-0.1,0.13-0.16,0.2c-0.09,0.16-0.14,0.32-0.14,0.5c-0.08,0.75-0.16,1.5-0.23,2.25
				c-0.02,0.24,0.13,0.54,0.29,0.71c0.17,0.17,0.46,0.3,0.71,0.29c0.26-0.01,0.53-0.1,0.71-0.29c0.05-0.07,0.1-0.13,0.16-0.2
				C202.5,127.44,202.54,127.27,202.54,127.09L202.54,127.09z"/>
		</g>
	</g>
	<g class="st3">
		<g>
			<path d="M202.95,120.9c0.07-1.03-0.03-2.07-0.25-3.08c-0.11-0.51-0.74-0.86-1.23-0.7c-0.54,0.17-0.82,0.68-0.7,1.23
				c0.06,0.27,0.11,0.53,0.14,0.8c-0.01-0.09-0.02-0.18-0.04-0.27c0.09,0.67,0.11,1.34,0.07,2.01c-0.03,0.52,0.48,1.02,1,1
				C202.52,121.87,202.91,121.46,202.95,120.9L202.95,120.9z"/>
		</g>
	</g>
	<g class="st3">
		<g>
			<path d="M202.15,114.82c-0.05-0.23-0.09-0.47-0.12-0.7c0.01,0.09,0.02,0.18,0.04,0.27c-0.08-0.64-0.1-1.29-0.05-1.93
				c0.02-0.24-0.13-0.54-0.29-0.71c-0.17-0.17-0.46-0.3-0.71-0.29c-0.26,0.01-0.53,0.1-0.71,0.29c-0.19,0.2-0.27,0.43-0.29,0.71
				c-0.08,0.97,0,1.95,0.21,2.9c0.11,0.51,0.74,0.86,1.23,0.7C201.99,115.87,202.27,115.36,202.15,114.82L202.15,114.82z"/>
		</g>
	</g>
	<g class="st3">
		<g>
			<path d="M201.82,109.07c0-0.63,0-1.25,0-1.88c0-0.26-0.11-0.53-0.29-0.71c-0.17-0.17-0.46-0.3-0.71-0.29
				c-0.26,0.01-0.53,0.1-0.71,0.29c-0.18,0.2-0.29,0.44-0.29,0.71c0,0.63,0,1.25,0,1.88c0,0.26,0.11,0.53,0.29,0.71
				c0.17,0.17,0.46,0.3,0.71,0.29c0.26-0.01,0.53-0.1,0.71-0.29C201.71,109.58,201.82,109.34,201.82,109.07L201.82,109.07z"/>
		</g>
	</g>
	<g class="st3">
		<g>
			<path d="M202.01,104.94c0-0.44,0-0.88,0-1.31c0-0.26-0.11-0.53-0.29-0.71c-0.09-0.1-0.2-0.17-0.32-0.21
				c-0.12-0.06-0.25-0.09-0.39-0.09c-0.26,0.01-0.53,0.1-0.71,0.29c-0.18,0.2-0.29,0.44-0.29,0.71c0,0.44,0,0.88,0,1.31
				c0,0.26,0.11,0.53,0.29,0.71c0.09,0.1,0.2,0.17,0.32,0.21c0.12,0.06,0.25,0.09,0.39,0.09c0.26-0.01,0.53-0.1,0.71-0.29
				C201.9,105.45,202.01,105.21,202.01,104.94L202.01,104.94z"/>
		</g>
	</g>
</g>
<g class="st2">
	<g class="st3">
		<g>
			<path d="M200.88,96.75c0.46,0.13,0.72,0.57,0.8,1.02c0.11,0.66-0.15,1.34-0.39,1.95c-0.2,0.52-0.44,1.08-0.87,1.45
				c-0.35,0.3-0.94,0.49-1.33,0.16c-0.37-0.32-0.47-0.91-0.46-1.38c0.02-0.49,0.19-0.98,0.48-1.37c0.29-0.38,0.73-0.67,1.22-0.7
				c0.6-0.03,0.83,0.44,0.96,0.95c0.28,1.06,0.06,2.39-0.69,3.22c-0.39,0.43-0.67,0.22-0.86-0.24c-0.21-0.5-0.36-1.18-0.28-1.71
				c0.06-0.4,0.35-0.92,0.83-0.82c0.47,0.1,0.77,0.64,0.77,1.08c0.01,0.64-0.33,1.24-0.65,1.78c-0.09,0.15-0.22,0.45-0.39,0.53
				c-0.18,0.09-0.26-0.2-0.33-0.35c-0.5-1.11-0.63-2.79,0.6-3.49c0.05-0.03,0.26-0.15,0.31-0.13c0.04,0.02,0.06,0.24,0.07,0.3
				c0.03,0.29,0.01,0.6-0.07,0.88c-0.15,0.57-0.49,1.09-0.97,1.44c0.24,0.1,0.49,0.2,0.73,0.3c-0.4-1.04-0.36-2.17,0.18-3.15
				c-0.23,0.06-0.46,0.12-0.68,0.18c0.58,0.44,0.23,1.34-0.45,1.37c0.12,0.05,0.24,0.1,0.35,0.15c-0.57-0.73-0.28-1.93,0.49-2.38
				c-0.2-0.03-0.4-0.05-0.61-0.08c0.28,0.33,0.21,0.84-0.09,1.13c0.12-0.05,0.24-0.1,0.35-0.15c-0.07-0.01-0.13-0.05-0.16-0.11
				c-0.02,0.13-0.03,0.26-0.05,0.39c0.06-0.13,0.02-0.05,0.01-0.05c0.02,0,0.07-0.03,0.1-0.02c0.09,0.01,0.15,0.02,0.22,0.09
				c0.22,0.21,0.17,0.64,0.16,0.91c0.21-0.16,0.42-0.32,0.63-0.48c-0.07-0.02-0.06,0-0.08-0.07c-0.17-0.62-1.14-0.36-0.96,0.27
				c0.11,0.39,0.39,0.67,0.78,0.76c0.33,0.08,0.61-0.15,0.63-0.48c0.05-0.75-0.14-1.64-0.93-1.92c-0.6-0.21-1.73,0.15-1.44,0.97
				c0.13,0.37,0.48,0.65,0.86,0.73c0.45,0.1,0.74-0.22,0.93-0.59c0.35-0.69,0.22-1.49-0.26-2.08c-0.14-0.17-0.43-0.18-0.61-0.08
				c-1.26,0.74-1.7,2.58-0.83,3.79c0.58,0.8,1.78-0.07,2.08-0.73c0.36-0.8,0.04-1.68-0.64-2.19c-0.21-0.16-0.57-0.04-0.68,0.18
				c-0.65,1.2-0.77,2.64-0.28,3.92c0.11,0.27,0.45,0.5,0.73,0.3c0.7-0.49,1.21-1.2,1.43-2.03c0.19-0.71,0.27-1.96-0.53-2.35
				c-0.81-0.39-1.74,0.41-2.17,1.03c-0.5,0.73-0.63,1.65-0.5,2.51c0.07,0.49,0.23,0.97,0.43,1.42c0.17,0.38,0.41,0.76,0.83,0.9
				c0.94,0.3,1.52-0.78,1.88-1.45c0.44-0.82,0.75-1.81,0.36-2.71c-0.31-0.71-1.02-1.3-1.82-1.24c-2.02,0.16-1.83,3.07-1.04,4.31
				c0.47,0.73,1.34,0.96,2.05,0.4c0.67-0.53,1.08-1.46,1.24-2.28c0.31-1.59-0.17-4.15-2.3-3.79c-1.68,0.28-2.6,2.13-2.33,3.71
				c0.16,0.95,0.8,1.83,1.83,1.87c0.99,0.04,1.8-0.65,2.27-1.47c0.52-0.92,1-2.13,0.9-3.2c-0.08-0.91-0.63-1.78-1.54-2.04
				C200.52,95.61,200.26,96.58,200.88,96.75L200.88,96.75z"/>
		</g>
	</g>
	<g class="st3">
		<g>
			<g>
				<path d="M172.88,81.88c-3.04,2.62-5.23,6.25-5.77,10.27c-0.13,0.99-0.26,2.08,0.08,3.04c0.29,0.83,0.91,1.47,1.59,1.99
					c0.41,0.32,0.85,0.61,1.3,0.88c0.35,0.21,0.73,0.45,1.16,0.4c0.76-0.1,1.04-0.99,0.41-1.44c-0.53-0.37-1.03,0.49-0.5,0.86
					c0.03,0.02,0.06,0.04,0.09,0.07c-0.08-0.1-0.15-0.2-0.23-0.3c-0.15-0.39-0.58-0.54-0.92-0.77c-0.29-0.19-0.58-0.39-0.85-0.61
					c-0.56-0.47-1.05-1.03-1.2-1.77c-0.28-1.43,0.15-3.14,0.57-4.51c0.9-2.9,2.69-5.44,4.98-7.41
					C174.07,82.16,173.36,81.46,172.88,81.88L172.88,81.88z"/>
			</g>
		</g>
		<g>
			<g>
				<path d="M171.97,86.36c1.51,2.99,3.43,5.75,5.7,8.21c0.44,0.47,1.14-0.23,0.71-0.71c-2.21-2.4-4.07-5.1-5.54-8.01
					C172.54,85.28,171.68,85.79,171.97,86.36L171.97,86.36z"/>
			</g>
		</g>
		<g>
			<g>
				<path d="M177.34,86.41c-1.73,2.47-3.29,5.05-4.66,7.73c-0.15,0.29-0.02,0.64,0.3,0.73c0.48,0.15,1.01,0.01,1.33-0.39
					c0.4-0.5-0.31-1.21-0.71-0.71c-0.11,0.14-0.19,0.18-0.36,0.13c0.1,0.24,0.2,0.49,0.3,0.73c1.37-2.68,2.93-5.27,4.66-7.73
					C178.57,86.39,177.71,85.89,177.34,86.41L177.34,86.41z"/>
			</g>
		</g>
		<g>
			<g>
				<path d="M179.49,92.69c-0.48,1.66-1.15,3.26-2.01,4.76c-0.32,0.56,0.55,1.06,0.86,0.5c0.9-1.58,1.6-3.26,2.11-5
					C180.64,92.34,179.67,92.08,179.49,92.69L179.49,92.69z"/>
			</g>
		</g>
		<g>
			<g>
				<path d="M183.34,94.7c-0.07-1.98-0.14-3.95-0.21-5.93c-0.03-0.79-0.14-1.76,0.72-2.15c0.69-0.31,1.42,0.15,1.6,0.85
					c0.16,0.62,1.12,0.36,0.96-0.27c-0.23-0.91-1.02-1.61-1.97-1.68c-0.99-0.07-1.93,0.62-2.22,1.55c-0.17,0.54-0.12,1.13-0.1,1.69
					c0.02,0.68,0.05,1.35,0.07,2.03c0.05,1.3,0.09,2.6,0.14,3.89C182.37,95.35,183.37,95.35,183.34,94.7L183.34,94.7z"/>
			</g>
		</g>
		<g>
			<g>
				<path d="M180.92,90.85c1.43-0.19,2.88-0.23,4.32-0.14c0.27,0.02,0.5-0.24,0.5-0.5c0-0.29-0.23-0.48-0.5-0.5
					c-1.44-0.09-2.89-0.05-4.32,0.14c-0.27,0.03-0.5,0.2-0.5,0.5C180.42,90.6,180.65,90.89,180.92,90.85L180.92,90.85z"/>
			</g>
		</g>
		<g>
			<g>
				<path d="M188.11,86.26c-1,1.68-1.58,3.6-1.66,5.56c-0.03,0.84-0.07,1.84,0.48,2.54c0.5,0.63,1.48,0.81,2.07,0.2
					c0.45-0.46-0.26-1.17-0.71-0.71c-0.44,0.45-0.79-0.53-0.82-0.81c-0.09-0.71-0.03-1.46,0.06-2.16c0.19-1.45,0.69-2.85,1.44-4.11
					C189.3,86.21,188.44,85.7,188.11,86.26L188.11,86.26z"/>
			</g>
		</g>
		<g>
			<g>
				<path d="M189.34,88.18c0.81,1.29,1.62,2.59,2.43,3.88c0.19,0.31,0.39,0.62,0.58,0.92c0.18,0.28,0.34,0.68,0.64,0.85
					c0.33,0.19,0.77,0.05,0.87-0.33c0.09-0.34-0.16-0.77-0.54-0.73c-0.27,0.03-0.5,0.21-0.5,0.5c0,0.25,0.23,0.53,0.5,0.5
					c0.01,0,0.02,0,0.03,0c-0.12-0.05-0.24-0.1-0.35-0.15c0.01,0.01,0.01,0.01,0.02,0.02c-0.04-0.07-0.09-0.15-0.13-0.22
					c0-0.02-0.01-0.04-0.01-0.06c0.02-0.08,0.05-0.17,0.07-0.25c-0.01,0.01-0.01,0.02-0.02,0.03c0.06-0.06,0.12-0.12,0.18-0.18
					c-0.01,0.01-0.02,0.01-0.03,0.02c0.08-0.02,0.17-0.05,0.25-0.07c-0.02,0-0.04,0-0.06-0.01c0.08,0.02,0.17,0.05,0.25,0.07
					c0.06,0.07,0.06,0.05-0.02-0.05c-0.04-0.06-0.08-0.12-0.12-0.18c-0.08-0.12-0.15-0.25-0.23-0.37c-0.14-0.22-0.27-0.43-0.41-0.65
					c-0.28-0.45-0.56-0.89-0.84-1.34c-0.57-0.91-1.14-1.82-1.71-2.73C189.86,87.14,188.99,87.64,189.34,88.18L189.34,88.18z"/>
			</g>
		</g>
		<g>
			<g>
				<path d="M192.14,88.08c-1.12,1.69-2.1,3.47-2.93,5.33c-0.2,0.44,0.22,0.94,0.68,0.68c0.16-0.09,0.32-0.18,0.48-0.27
					c0.56-0.31,0.06-1.17-0.5-0.86c-0.16,0.09-0.32,0.18-0.48,0.27c0.23,0.23,0.46,0.46,0.68,0.68c0.83-1.85,1.81-3.64,2.93-5.33
					C193.36,88.04,192.49,87.54,192.14,88.08L192.14,88.08z"/>
			</g>
		</g>
		<g>
			<g>
				<path d="M192.7,86.54c0.94,2.43,2.04,5.34,0.58,7.8c-0.33,0.56,0.54,1.06,0.86,0.5c1.61-2.72,0.56-5.87-0.48-8.57
					C193.44,85.68,192.47,85.94,192.7,86.54L192.7,86.54z"/>
			</g>
		</g>
		<g>
			<g>
				<path d="M195.02,83.34c1.75,1.97,2.53,4.47,2.59,7.08c0.03,1.29-0.04,2.61-0.43,3.85c-0.43,1.34-1.31,2.44-2.43,3.28
					c-0.51,0.38-0.01,1.25,0.5,0.86c1.15-0.86,2.11-1.92,2.66-3.27c0.59-1.42,0.71-3,0.7-4.53c-0.03-2.94-0.91-5.76-2.89-7.98
					C195.3,82.15,194.6,82.86,195.02,83.34L195.02,83.34z"/>
			</g>
		</g>
	</g>
</g>
</svg>
