<?xml version="1.0" encoding="UTF-8"?>
<svg id="Layer_2" data-name="Layer 2" xmlns="http://www.w3.org/2000/svg" viewBox="0 0 258.73 167.27">
  <defs>
    <style>
      .cls-1 {
        fill: #231f20;
      }

      .cls-2 {
        fill: #ed1c24;
      }

      .cls-3 {
        fill: #939598;
      }
    </style>
  </defs>
  <g id="Layer_1-2" data-name="Layer 1">
    <g>
      <path class="cls-3" d="M23.72,22.52c.75-1.16,1.59-2.25,2.52-3.27.49-.54,1-1.06,1.54-1.55.46-.43,1.1-.84,1.48-1.27-.09.1-.24-.18-.03.07.06.07.38.37.53.53.46.47.9.96,1.3,1.49.82,1.1,1.51,2.32,1.99,3.61.28.76,1.02,1.28,1.85,1.05.73-.2,1.33-1.08,1.05-1.85-.63-1.71-1.48-3.28-2.6-4.73-1.02-1.33-2.46-3.3-4.34-3.18-1.04.07-1.83.79-2.58,1.44-.66.57-1.29,1.17-1.89,1.8-1.27,1.33-2.42,2.79-3.42,4.34-.44.68-.14,1.66.54,2.05.73.43,1.61.14,2.05-.54h0Z"/>
      <path class="cls-3" d="M22.11,159.97c1.57,2.37,3.45,4.51,5.58,6.39.65.57,1.47.55,2.12,0,2.89-2.45,5.79-4.89,8.68-7.34.62-.52.54-1.58,0-2.12-.61-.61-1.5-.52-2.12,0-2.89,2.45-5.79,4.89-8.68,7.34h2.12c-1.94-1.71-3.68-3.63-5.11-5.78-.45-.67-1.32-.96-2.05-.54-.67.39-.99,1.37-.54,2.05h0Z"/>
      <path class="cls-3" d="M28.06,16.01c-1.47,10.07-1.49,20.25-1.04,30.4s1.3,20.24,1.45,30.38-.54,20.46-.74,30.69-.15,20.57.02,30.85c.09,5.1.2,10.2.33,15.3.06,2.57.13,5.14.2,7.71.03,1.15-.19,2.71.66,3.62.96,1.04,2.74.79,3.13-.66s-1.08-2.65-2.44-1.97c-.73.36-.93,1.39-.54,2.05.43.74,1.32.9,2.05.54l.08-.04-.76.2h.07c-.25-.06-.5-.13-.76-.2l.05.04-.54-.54.4-1.56.76-.2c.1,0,.95.59.9.72.02-.04-.01-.23-.01-.27-.01-.29-.02-.58-.02-.87-.02-.62-.03-1.24-.05-1.87-.03-1.2-.06-2.4-.09-3.61-.06-2.45-.12-4.89-.18-7.34-.11-4.81-.21-9.62-.28-14.43-.14-9.66-.15-19.33.07-28.99s.84-19.21.72-28.83-.88-19.03-1.35-28.54-.64-18.99.4-28.44c.12-1.12.27-2.25.43-3.37.12-.8-.2-1.61-1.05-1.85-.71-.19-1.73.24-1.85,1.05h0Z"/>
    </g>
    <g>
      <path class="cls-3" d="M4.99,137.5c15.59-3.05,31.37,1.21,46.89,2.62,16.19,1.47,32.45.25,48.59-1.24,16.16-1.49,32.35-3.28,48.61-2.9,8.11.19,16.2.81,24.3,1.21,8.09.4,16.19.63,24.29.85s16.32.43,24.48.65,16.13.44,24.18.08c1.97-.09,3.94-.21,5.91-.38.81-.07,1.5-.64,1.5-1.5,0-.76-.69-1.57-1.5-1.5-8.12.68-16.28.63-24.42.44s-16.31-.43-24.47-.64-16.19-.41-24.28-.74c-8.18-.33-16.36-.92-24.54-1.28s-16.16-.27-24.23.19-16.28,1.25-24.4,2.01c-16.14,1.52-32.37,3.04-48.6,2.14-7.94-.44-15.78-1.67-23.65-2.7-7.82-1.03-15.75-1.82-23.63-1.05-1.96.19-3.9.47-5.83.85-.8.16-1.25,1.11-1.05,1.85.23.83,1.05,1.2,1.85,1.05h0Z"/>
      <path class="cls-3" d="M14.15,126.14c-2.6-.33-4.61,1.92-6.34,3.51-2,1.84-3.99,3.68-5.99,5.52-.88.81-.35,2.16.66,2.51,3.7,1.27,7.08,3.35,9.88,6.07,1.39,1.34,3.51-.77,2.12-2.12-3.19-3.09-7.01-5.4-11.21-6.84l.66,2.51c1.82-1.67,3.63-3.34,5.45-5.02.85-.78,1.67-1.63,2.58-2.34.68-.54,1.34-.89,2.18-.79s1.5-.76,1.5-1.5c0-.9-.69-1.4-1.5-1.5h0Z"/>
      <path class="cls-3" d="M246.17,131.72c3.1,1.8,6.2,3.6,9.3,5.4l-.3-2.36c-2.39,3.08-4.78,6.17-7.17,9.25-.5.64-.62,1.5,0,2.12.52.52,1.62.64,2.12,0,2.39-3.08,4.78-6.17,7.17-9.25.58-.75.62-1.82-.3-2.36l-9.3-5.4c-1.67-.97-3.18,1.62-1.51,2.59h0Z"/>
    </g>
    <g>
      <path class="cls-2" d="M5.82,86.35c-.27,4.97.77,9.87,2.88,14.36.3.64,1.11.56,1.57.2,2.46-1.95,4.94-3.88,7.48-5.74,1.74-1.27,3.61-2.36,5-4.04.82-.98-.59-2.4-1.41-1.41-1.35,1.62-3.17,2.67-4.85,3.91-2.58,1.9-5.11,3.87-7.63,5.86l1.57.2c-1.97-4.17-2.86-8.75-2.61-13.35.07-1.29-1.93-1.28-2,0h0Z"/>
      <path class="cls-2" d="M221.28,32.64c4.89-1.98,9.77-3.96,14.66-5.94l-1.23-.7c1.45,5.01,1.36,10.33-.24,15.29-.4,1.23,1.54,1.75,1.93.53,1.7-5.28,1.78-11.02.24-16.35-.14-.47-.72-.9-1.23-.7-4.89,1.98-9.77,3.96-14.66,5.94-.5.2-.85.67-.7,1.23.13.47.73.9,1.23.7h0Z"/>
      <path class="cls-2" d="M11.13,98.72c3.78-7.47,7.76-14.88,12.61-21.72s10.16-12.67,17.05-16.87c3.35-2.04,6.98-3.58,10.8-4.48,4.7-1.11,9.62-1.18,14.38-.43,10.1,1.6,19.36,6.4,27.87,11.86s16.49,11.54,25.36,16.31c4.3,2.31,8.79,4.28,13.47,5.67s9.08,2.15,13.72,2.5c9.26.7,18.71-.54,27.47-3.64s16.42-7.97,23.21-14.13c6.65-6.03,12.31-13.04,17.74-20.16s10.7-14.49,16.55-21.33c1.42-1.67,2.88-3.3,4.39-4.9.88-.94-.53-2.35-1.41-1.41-6.22,6.6-11.65,13.87-17.08,21.11-5.38,7.17-10.78,14.36-17.01,20.82s-13.33,12.08-21.5,15.87-17.7,5.9-26.96,5.95-18.73-1.95-27.27-5.92c-9.13-4.25-17.27-10.23-25.61-15.81s-17.35-10.95-27.26-13.62c-4.82-1.3-9.86-1.95-14.84-1.56-4.35.33-8.58,1.43-12.56,3.21-7.32,3.27-13.43,8.8-18.45,14.96-5.34,6.55-9.66,13.86-13.61,21.31-.95,1.79-1.87,3.58-2.78,5.39-.58,1.15,1.15,2.16,1.73,1.01h0Z"/>
    </g>
    <g>
      <path class="cls-1" d="M226.01,19.86c-.51-2.56-.8-5.16-.87-7.78-.06-2.39-.02-4.91.95-7.14.77-1.74,2.2-3.34,4.1-3.82,1.76-.44,3.95.32,4.69,2.07.25.58,1.21.33.96-.27-.62-1.47-1.92-2.48-3.48-2.8-1.68-.35-3.35.12-4.69,1.16-3.36,2.59-3.64,7.14-3.53,11.04.08,2.62.39,5.23.9,7.8.13.63,1.09.36.96-.27h0Z"/>
      <path class="cls-1" d="M221.13,12.53c3.24-.3,6.46-.75,9.66-1.33.63-.12.36-1.08-.27-.96-3.11.57-6.24,1-9.39,1.29-.64.06-.64,1.06,0,1h0Z"/>
      <path class="cls-1" d="M240.49.59c-2.05,4.12-3.33,8.6-3.73,13.19-.18,2.06-.16,4.39,1.1,6.13,1.04,1.44,2.8,2.36,4.58,1.91.62-.16.36-1.12-.27-.96-1.78.45-3.43-.95-4.04-2.53-.69-1.79-.48-3.81-.26-5.67.48-4.02,1.68-7.94,3.48-11.57.29-.57-.58-1.08-.86-.5h0Z"/>
      <path class="cls-1" d="M244.26,4.92c1.96,4.3,4.7,8.22,8.06,11.55.46.45,1.17-.25.71-.71-3.31-3.27-5.98-7.11-7.9-11.34-.27-.58-1.13-.08-.86.5h0Z"/>
      <path class="cls-1" d="M250.7,4.41c-2.33,4.74-4.66,9.48-6.99,14.21-.28.58.58,1.08.86.5,2.33-4.74,4.66-9.48,6.99-14.21.28-.58-.58-1.08-.86-.5h0Z"/>
      <path class="cls-1" d="M254.09,2.86c4.03,4.47,4.8,11.44,1.87,16.69-.31.56.55,1.07.86.5,3.16-5.65,2.31-13.1-2.03-17.9-.43-.48-1.14.23-.71.71h0Z"/>
    </g>
  </g>
</svg>