<?xml version="1.0" encoding="UTF-8"?>
<svg id="Layer_2" data-name="Layer 2" xmlns="http://www.w3.org/2000/svg" viewBox="0 0 274.63 167.27">
  <defs>
    <style>
      .cls-1 {
        fill: #00a651;
      }

      .cls-2 {
        fill: #231f20;
      }

      .cls-3 {
        fill: #ed1c24;
      }

      .cls-4 {
        fill: #00aeef;
      }

      .cls-5 {
        fill: #939598;
      }
    </style>
  </defs>
  <g id="Layer_1-2" data-name="Layer 1">
    <g>
      <g>
        <path class="cls-4" d="M64.73,114.87c-.02.26-.05.52-.07.79-.06.64.94.64,1,0,.66-7.05,2.63-13.98,5.78-20.31.76-1.52,1.57-3.02,2.47-4.46.13-.2.53-.94.85-.85.31.08.36.76.42,1.01.24.99.44,1.99.61,3,.61,3.68.78,7.42.93,11.14.18,4.14.35,8.28,1.02,12.37.1.63,1.07.36.96-.27-1.32-8.01-.62-16.21-2.08-24.2-.18-.97-.35-1.98-.64-2.92-.19-.61-.6-1.16-1.3-1.12s-1.23.68-1.58,1.24c-.51.81-.99,1.65-1.45,2.49-1.82,3.31-3.31,6.8-4.46,10.39-1.3,4.06-2.14,8.25-2.54,12.49h1c.02-.26.05-.52.07-.79.06-.64-.94-.64-1,0h0Z"/>
        <path class="cls-4" d="M68.21,104.59l-.79.3c-.48.18-.47,1.05.13.98,3.35-.37,6.71-.46,10.07-.29.64.03.64-.97,0-1-3.36-.17-6.73-.07-10.07.29l.13.98.79-.3c.6-.23.34-1.19-.27-.96h0Z"/>
        <path class="cls-4" d="M89.01,89.85c-1.55.59-2.19,2.1-2.75,3.55-.77,1.96-1.45,3.97-1.92,6.02-.84,3.68-.95,7.6.42,11.18.7,1.84,1.76,3.51,3.2,4.86.47.44,1.18-.27.71-.71-3.1-2.9-4.19-7.26-3.92-11.39.16-2.44.77-4.84,1.55-7.15.37-1.08.75-2.17,1.2-3.22.37-.85.86-1.81,1.78-2.16.59-.23.34-1.19-.27-.96h0Z"/>
        <path class="cls-4" d="M92.74,96.43c1.89,4.96,4.23,9.73,7,14.26.34.55,1.2.05.86-.5-2.72-4.45-5.04-9.14-6.9-14.02-.23-.6-1.19-.34-.96.27h0Z"/>
        <path class="cls-4" d="M101.2,95.14c-1.81,2.79-3.61,5.59-5.37,8.41-.86,1.38-1.72,2.75-2.57,4.14-.45.73-.89,1.45-1.33,2.18-.41.67-.89,1.29-1.01,2.07-.09.63.87.9.96.27.12-.79.69-1.47,1.1-2.15s.85-1.38,1.27-2.08c.85-1.38,1.71-2.76,2.57-4.14,1.73-2.75,3.47-5.49,5.24-8.21.35-.54-.51-1.04-.86-.5h0Z"/>
        <path class="cls-4" d="M102.6,90.1c2.67,3.49,4.16,7.8,4.11,12.2s-1.61,8.62-4.32,12c-.4.5.3,1.21.71.71,4.5-5.6,5.85-13.26,3.34-20.02-.72-1.94-1.72-3.75-2.97-5.4-.39-.5-1.26,0-.86.5h0Z"/>
      </g>
      <g>
        <path class="cls-4" d="M191.1,79.81l-.82,4.51c-.05.27.07.54.35.62.24.07.57-.08.62-.35l.82-4.51c.05-.27-.07-.54-.35-.62-.24-.07-.57.08-.62.35h0Z"/>
        <path class="cls-4" d="M191.46,89.4c-.54,1.5-.41,3.19.31,4.61.12.24.46.31.68.18.24-.14.3-.44.18-.68-.61-1.19-.66-2.59-.21-3.84.09-.25-.1-.55-.35-.62-.28-.08-.52.09-.62.35h0Z"/>
        <path class="cls-4" d="M193.19,97.29c-.2,1.25-.28,2.52-.24,3.79,0,.27.22.5.5.5s.51-.23.5-.5c-.04-1.18.02-2.36.2-3.52.04-.27-.07-.54-.35-.62-.24-.07-.57.08-.62.35h0Z"/>
        <path class="cls-4" d="M193.96,105.01v5.07c0,.64,1,.64,1,0v-5.07c0-.64-1-.64-1,0h0Z"/>
        <path class="cls-4" d="M193.84,114.42l.62,3.98c.04.27.38.41.62.35.28-.08.39-.35.35-.62l-.62-3.98c-.04-.27-.38-.41-.62-.35-.28.08-.39.35-.35.62h0Z"/>
        <path class="cls-4" d="M194.53,122.19v3.1c0,.26.23.51.5.5s.5-.22.5-.5v-3.1c0-.26-.23-.51-.5-.5s-.5.22-.5.5h0Z"/>
        <path class="cls-4" d="M194.87,128.23l-.35,2.24c-.02.14-.02.26.05.39.06.1.18.2.3.23.24.05.57-.07.62-.35l.35-2.24c.02-.14.02-.26-.05-.39-.06-.1-.18-.2-.3-.23-.24-.05-.57.07-.62.35h0Z"/>
      </g>
      <g>
        <path class="cls-4" d="M102.29,72.14l7.86,12.02c2.62,4.01,5.24,8.01,7.86,12.02s5.24,8.01,7.86,12.02,5.08,7.81,7.67,11.68,5.09,7.41,7.91,10.91c.36.44.72.89,1.09,1.33.21.25.56-.11.35-.35-2.9-3.48-5.55-7.16-8.09-10.91s-5.09-7.69-7.61-11.55-5.22-7.98-7.83-11.97l-7.83-11.97-7.86-12.02-.96-1.46c-.18-.27-.61-.02-.43.25h0Z"/>
        <path class="cls-4" d="M131.3,89.76c3.85,5.8,7.81,11.52,11.88,17.16s8.19,11.1,12.45,16.53c2.41,3.07,4.85,6.1,7.32,9.11.2.25.56-.11.35-.35-4.4-5.36-8.7-10.81-12.89-16.34-4.15-5.49-8.19-11.05-12.12-16.7-2.23-3.2-4.42-6.42-6.57-9.67-.18-.27-.61-.02-.43.25h0Z"/>
        <path class="cls-4" d="M155.11,91.9c3.29,5.58,6.82,11.01,10.57,16.29,3.73,5.24,7.67,10.32,11.83,15.23,2.35,2.78,4.78,5.51,7.26,8.18.22.24.57-.12.35-.35-4.4-4.72-8.6-9.63-12.58-14.71-3.98-5.07-7.74-10.3-11.27-15.69-1.98-3.02-3.89-6.09-5.73-9.21-.16-.28-.6-.03-.43.25h0Z"/>
        <path class="cls-4" d="M180.76,84.22c2.47,6.5,5.54,12.78,9.15,18.73,1.03,1.69,2.1,3.36,3.22,5,.18.26.61.01.43-.25-3.91-5.73-7.29-11.82-10.09-18.16-.79-1.79-1.53-3.61-2.23-5.44-.11-.3-.6-.17-.48.13h0Z"/>
        <path class="cls-4" d="M172.8,87.7c1.88,4.4,5.01,8.07,7.77,11.92,2.87,3.99,5.5,8.14,7.89,12.43,1.35,2.44,2.63,4.92,3.82,7.45.14.29.57.04.43-.25-2.11-4.47-4.48-8.81-7.09-13-1.3-2.08-2.66-4.13-4.08-6.13s-2.84-3.84-4.24-5.77c-1.56-2.17-3.02-4.43-4.07-6.89-.13-.29-.56-.04-.43.25h0Z"/>
        <path class="cls-4" d="M162.71,91.06c3.55,5.21,7.24,10.32,11.07,15.32s7.77,9.86,11.85,14.62c2.32,2.71,4.69,5.38,7.09,8.02.22.24.57-.12.35-.35-4.25-4.66-8.37-9.43-12.36-14.32s-7.8-9.83-11.5-14.91c-2.07-2.84-4.09-5.72-6.07-8.63-.18-.26-.61-.01-.43.25h0Z"/>
        <path class="cls-4" d="M144.97,91.06c3.32,5.76,6.71,11.48,10.16,17.17,3.45,5.69,6.97,11.33,10.56,16.94,2.01,3.15,4.04,6.28,6.1,9.4.18.27.61.02.43-.25-3.66-5.56-7.25-11.16-10.78-16.8s-6.99-11.32-10.38-17.04c-1.9-3.21-3.79-6.43-5.65-9.66-.16-.28-.59-.03-.43.25h0Z"/>
        <path class="cls-4" d="M120.87,86.97c2.74,6.41,5.99,12.58,9.53,18.57s7.41,11.84,11.37,17.59c2.22,3.23,4.47,6.43,6.72,9.63.18.26.62.01.43-.25-4.02-5.72-8.03-11.44-11.86-17.28s-7.46-11.78-10.71-17.95c-1.82-3.45-3.51-6.97-5.05-10.56-.13-.3-.56-.04-.43.25h0Z"/>
        <path class="cls-4" d="M115.25,112.3c2.88,5.77,6.14,11.34,9.77,16.66.97,1.43,1.97,2.84,3,4.24.19.26.62,0,.43-.25-3.82-5.2-7.29-10.65-10.38-16.31-.82-1.51-1.62-3.04-2.39-4.58-.14-.29-.58-.03-.43.25h0Z"/>
        <path class="cls-4" d="M109.25,119.55c2.79,3.58,5.36,7.33,7.69,11.23.66,1.1,1.29,2.21,1.91,3.33.16.28.59.03.43-.25-2.21-4-4.66-7.86-7.35-11.56-.76-1.05-1.54-2.08-2.33-3.1-.2-.25-.55.1-.35.35h0Z"/>
        <path class="cls-4" d="M99.92,120.62c1.9,4.29,4.22,8.38,6.92,12.22.76,1.09,1.55,2.15,2.37,3.19.15.19.41,0,.43-.18.02-.21.05-.42.07-.63.04-.32-.46-.32-.5,0-.02.21-.05.42-.07.63l.43-.18c-2.87-3.66-5.39-7.6-7.51-11.75-.6-1.17-1.16-2.36-1.7-3.56-.13-.29-.56-.04-.43.25h0Z"/>
        <path class="cls-4" d="M91.05,121.96c2.74,3.21,5.19,6.66,7.31,10.31.6,1.03,1.16,2.07,1.71,3.13.14.26.51.07.46-.19-.05-.23-.09-.47-.14-.7-.06-.32-.55-.18-.48.13.05.23.09.47.14.7l.46-.19c-1.95-3.79-4.24-7.4-6.84-10.77-.73-.94-1.48-1.87-2.25-2.77-.21-.24-.56.11-.35.35h0Z"/>
        <path class="cls-4" d="M84.1,121.71c1.69,4.05,4,7.82,6.85,11.16.81.95,1.66,1.86,2.55,2.73.23.23.58-.13.35-.35-3.08-3.03-5.69-6.52-7.7-10.35-.57-1.08-1.09-2.19-1.57-3.32-.12-.29-.61-.16-.48.13h0Z"/>
        <path class="cls-4" d="M76.21,124.8c1.42,3.77,3.24,7.39,5.45,10.76.64.97,1.3,1.92,2,2.85.11.15.41.17.46-.06.07-.39.15-.79.22-1.18.06-.31-.42-.45-.48-.13-.07.39-.15.79-.22,1.18l.46-.06c-2.39-3.2-4.43-6.65-6.07-10.28-.48-1.06-.92-2.13-1.33-3.21-.11-.3-.6-.17-.48.13h0Z"/>
        <path class="cls-4" d="M31.79,78.11c2.15,4.08,4.39,8.12,6.71,12.11s4.73,7.95,7.22,11.85,5.03,7.71,7.67,11.48,5.36,7.51,8.16,11.18,5.62,7.22,8.54,10.74c.36.44.73.87,1.09,1.31.21.25.56-.11.35-.35-2.96-3.53-5.84-7.12-8.65-10.77s-5.5-7.31-8.14-11.05-5.23-7.58-7.72-11.44-4.89-7.76-7.22-11.72-4.6-8-6.77-12.07c-.27-.5-.54-1.01-.8-1.52-.15-.28-.58-.03-.43.25h0Z"/>
        <path class="cls-4" d="M32.22,92.67c2.87,5.91,5.94,11.73,9.2,17.44s6.71,11.3,10.35,16.78c2.04,3.07,4.14,6.1,6.29,9.09.19.26.62,0,.43-.25-3.84-5.33-7.51-10.79-10.98-16.37-3.47-5.58-6.76-11.28-9.85-17.08-1.73-3.25-3.4-6.54-5.01-9.85-.14-.29-.57-.04-.43.25h0Z"/>
        <path class="cls-4" d="M31.64,100.27c2.18,5.18,4.58,10.25,7.21,15.21s5.48,9.77,8.54,14.46c1.71,2.62,3.49,5.19,5.33,7.71.19.26.62,0,.43-.25-3.27-4.48-6.34-9.1-9.18-13.86s-5.51-9.7-7.94-14.72c-1.38-2.86-2.69-5.76-3.92-8.69-.12-.29-.61-.16-.48.13h0Z"/>
        <path class="cls-4" d="M31.39,113.65c-.07-.23-.29-.34-.5-.2s-.3.48-.23.73c.11.36.33.73.49,1.07.21.44.41.87.63,1.31.79,1.6,1.62,3.18,2.5,4.74,1.78,3.14,3.75,6.17,5.89,9.07,1.21,1.63,2.47,3.22,3.78,4.77.09.1.26.09.35,0,.42-.42.41-1.13-.03-1.53-.24-.22-.59.14-.35.35s.27.59.03.83h.35c-4.23-4.98-7.9-10.41-10.94-16.19-.42-.79-.82-1.59-1.21-2.39-.2-.4-.39-.8-.58-1.21-.09-.2-.19-.4-.28-.61-.04-.1-.11-.2-.14-.3-.04-.05-.05-.1-.02-.16.07-.11,0-.16-.23-.15.1.3.58.17.48-.13h0Z"/>
        <path class="cls-4" d="M85.32,63.64c2.02,2.94,4.07,5.85,6.04,8.82.93,1.39,1.81,2.81,2.58,4.3.72,1.4,1.3,2.86,1.92,4.3.7,1.62,1.47,3.22,2.53,4.64.19.25.61.02.43-.25-.08-.13-.16-.25-.25-.38-.17-.27-.61-.02-.43.25.08.13.16.25.25.38l.43-.25c-1.9-2.54-2.81-5.61-4.19-8.42-1.49-3.05-3.5-5.81-5.42-8.6l-3.46-5.05c-.18-.26-.61-.01-.43.25h0Z"/>
        <path class="cls-4" d="M66.7,55.3c2.73,4.19,5.45,8.37,8.18,12.56,1.31,2.01,2.64,4,3.88,6.05,1.16,1.93,2.16,3.91,2.98,6.01.78,1.98,1.61,3.98,3.35,5.32.25.2.5-.24.25-.43-1.55-1.19-2.34-3.03-3.03-4.79-.79-2.01-1.7-3.94-2.79-5.8-1.2-2.03-2.51-4-3.8-5.98l-4.02-6.17-4.57-7.01c-.17-.27-.61-.02-.43.25h0Z"/>
        <path class="cls-4" d="M57.58,56.2c3.63,7.03,7.25,14.06,10.88,21.09l3.09,5.99c.15.29.58.03.43-.25-3.63-7.03-7.25-14.06-10.88-21.09l-3.09-5.99c-.15-.29-.58-.03-.43.25h0Z"/>
        <path class="cls-4" d="M48.83,57.93c2.52,3.67,4.73,7.53,6.82,11.46s4.19,8.12,6.27,12.19c1.21,2.37,2.42,4.74,3.63,7.11.15.29.58.03.43-.25-2.14-4.2-4.29-8.41-6.43-12.61-2.02-3.96-4.05-7.93-6.28-11.78-1.26-2.17-2.58-4.3-4-6.37-.18-.26-.61-.01-.43.25h0Z"/>
        <path class="cls-4" d="M41.03,60.96c2.48,4.13,4.92,8.27,7.33,12.44s4.8,8.4,7.14,12.62c1.31,2.37,2.62,4.75,3.91,7.14.15.28.59.03.43-.25-2.29-4.23-4.62-8.45-6.98-12.64s-4.79-8.4-7.24-12.57c-1.37-2.34-2.76-4.67-4.16-7-.17-.28-.6-.02-.43.25h0Z"/>
        <path class="cls-4" d="M33.73,66.02c2.27,4.81,4.67,9.56,7.19,14.24s5.14,9.22,7.89,13.73c1.56,2.55,3.16,5.08,4.8,7.59.18.27.61.02.43-.25-2.91-4.45-5.7-8.98-8.37-13.58s-5.17-9.21-7.56-13.91c-1.36-2.67-2.68-5.36-3.95-8.06-.14-.29-.57-.04-.43.25h0Z"/>
        <path class="cls-4" d="M182.12,134.93c2.89-3.58,6-6.99,9.31-10.2.94-.92,1.91-1.81,2.88-2.7.24-.22-.12-.57-.35-.35-3.42,3.09-6.64,6.39-9.66,9.87-.86.99-1.71,2-2.53,3.03-.2.25.15.6.35.35h0Z"/>
        <path class="cls-4" d="M170.01,135.17c.62-2.01,2.49-3.35,3.99-4.69,1.73-1.55,3.43-3.13,5.1-4.74,3.33-3.21,6.54-6.54,9.63-9.98,1.74-1.94,3.45-3.92,5.11-5.94.2-.25-.15-.6-.35-.35-3,3.62-6.12,7.14-9.38,10.53s-6.6,6.64-10.08,9.78c-1.68,1.52-3.81,3-4.51,5.26-.1.31.39.44.48.13h0Z"/>
        <path class="cls-4" d="M162.28,132.66c1.04-2.54,2.81-4.68,4.75-6.59s4.19-3.77,6.27-5.66c4.54-4.13,8.87-8.48,12.97-13.05,2.3-2.56,4.53-5.18,6.69-7.87.2-.25-.15-.6-.35-.35-3.88,4.83-8,9.46-12.34,13.88-2.16,2.19-4.37,4.33-6.64,6.41-2.13,1.96-4.37,3.81-6.47,5.82s-4.2,4.44-5.36,7.27c-.12.3.36.43.48.13h0Z"/>
        <path class="cls-4" d="M150.2,131.96c5.39-4.87,10.71-9.82,15.96-14.84s10.37-10.07,15.44-15.21c2.88-2.91,5.73-5.85,8.56-8.81.22-.23-.13-.59-.35-.35-5.02,5.25-10.11,10.44-15.28,15.54s-10.35,10.09-15.63,15.02c-2.99,2.79-6.01,5.56-9.05,8.31-.24.22.12.57.35.35h0Z"/>
        <path class="cls-4" d="M140.87,129.38c3.21-2.89,6.4-5.79,9.59-8.69s6.37-5.82,9.55-8.74,6.34-5.85,9.5-8.79,6.31-5.89,9.45-8.84,6.28-5.92,9.41-8.89c.39-.37.77-.74,1.16-1.1.23-.22-.12-.58-.35-.35-3.13,2.98-6.26,5.94-9.4,8.9s-6.29,5.91-9.45,8.85-6.32,5.87-9.49,8.8-6.35,5.84-9.54,8.75-6.38,5.81-9.59,8.7c-.4.36-.79.72-1.19,1.07-.24.22.11.57.35.35h0Z"/>
        <path class="cls-4" d="M122.54,132.27c2.77-3.31,5.75-6.45,8.87-9.43s6.35-5.81,9.67-8.55,6.76-5.45,10.19-8.1,6.86-5.27,10.27-7.93c1.69-1.32,3.39-2.64,5.05-4s3.2-2.74,4.49-4.42c.31-.41.61-.83.88-1.27.17-.27-.26-.52-.43-.25-1.13,1.8-2.63,3.31-4.23,4.68s-3.31,2.7-4.99,4.02c-3.41,2.68-6.87,5.31-10.3,7.96s-6.78,5.25-10.1,7.97-6.6,5.53-9.74,8.48-6.14,6.02-8.95,9.27c-.35.4-.69.8-1.03,1.21-.21.25.15.6.35.35h0Z"/>
        <path class="cls-4" d="M103.4,133.12c3.08-2.97,6.29-5.79,9.58-8.51s6.67-5.34,10.08-7.92,6.84-5.1,10.26-7.64,6.84-5.1,10.21-7.72,6.69-5.33,9.9-8.16c.39-.34.78-.69,1.17-1.04.24-.22-.11-.57-.35-.35-3.19,2.85-6.48,5.58-9.84,8.23s-6.78,5.22-10.22,7.77-6.86,5.07-10.27,7.63-6.79,5.16-10.09,7.85-6.55,5.49-9.66,8.42c-.38.36-.76.72-1.13,1.08-.23.22.12.58.35.35h0Z"/>
        <path class="cls-4" d="M83.82,136.6c5.36-3.93,10.73-7.86,16.09-11.79l4.53-3.32c.26-.19,0-.62-.25-.43-5.36,3.93-10.73,7.86-16.09,11.79l-4.53,3.32c-.26.19,0,.62.25.43h0Z"/>
        <path class="cls-4" d="M67.73,137.71c3.8-4.13,7.93-7.97,12.33-11.46,1.26-1,2.55-1.97,3.85-2.91l-.3-.39c-.23.3-.55.5-.93.54-.32.03-.32.54,0,.5.51-.06.96-.28,1.28-.69.16-.2-.05-.57-.3-.39-4.6,3.31-8.95,6.99-12.97,10.99-1.13,1.12-2.24,2.28-3.32,3.45-.22.24.14.59.35.35h0Z"/>
        <path class="cls-4" d="M55.27,134.68c2.53-4.21,7.37-6.15,10.73-9.55.24-.25.48-.5.7-.76.19-.22.46-.48.54-.76.18-.65-.82-.81-.81-.22,0,.32.5.32.5,0l-.1.12c-.06-.05-.09-.05-.1.02-.06.04-.11.16-.16.22-.07.09-.15.18-.22.27-.18.21-.36.41-.55.61-.37.39-.76.75-1.16,1.11-.82.72-1.69,1.38-2.56,2.02-1.7,1.25-3.46,2.44-4.98,3.91-.86.83-1.63,1.75-2.24,2.77-.17.28.27.53.43.25h0Z"/>
        <path class="cls-4" d="M38.34,135c2.88-2.62,5.86-5.12,8.93-7.5s6.25-4.63,9.51-6.76c.38-.25.87-.48,1.15-.85.18-.24.29-.66.01-.88-.44-.35-1.23.32-.66.68.27.17.52-.26.25-.43-.22-.14.09.33.1.15,0-.03-.04.07-.05.09-.08.16-.23.27-.38.37-.35.24-.71.46-1.07.69-.68.44-1.35.9-2.02,1.35-1.37.93-2.73,1.89-4.07,2.87-2.67,1.95-5.27,3.99-7.79,6.12-1.45,1.22-2.87,2.46-4.27,3.74-.24.22.12.57.35.35h0Z"/>
        <path class="cls-4" d="M32.05,127.6c2.57-2.91,5.54-5.41,8.56-7.83s6.14-4.77,9.01-7.38c.4-.36.79-.73,1.17-1.1.35-.33.81-.68,1.07-1.09.18-.29.11-.8-.33-.73-.33.06-.47.44-.18.64.27.18.52-.25.25-.43l-.04-.03.11.15c-.02-.07-.58.48-.64.53-.15.15-.3.3-.46.45-.31.3-.62.59-.93.89-.63.58-1.27,1.15-1.92,1.71-1.3,1.12-2.64,2.2-3.99,3.27-2.69,2.13-5.42,4.22-7.98,6.52-1.43,1.29-2.81,2.64-4.09,4.08-.21.24.14.6.35.35h0Z"/>
        <path class="cls-4" d="M29.34,116.07c2.82-3.81,6.41-6.96,10.11-9.89s7.73-5.92,11.52-8.98,7.74-6.41,11.49-9.76,7.39-6.76,10.96-10.27,7.08-7.14,10.49-10.83c.42-.45.83-.9,1.24-1.36.22-.24-.14-.59-.35-.35-3.39,3.72-6.86,7.35-10.42,10.89s-7.24,7.03-10.99,10.41-7.55,6.64-11.44,9.83-7.73,6.08-11.62,9.09-7.4,5.95-10.4,9.63c-.35.44-.7.88-1.03,1.33-.19.26.24.51.43.25h0Z"/>
        <path class="cls-4" d="M31.06,103.54c2.98-2.94,6.16-5.66,9.44-8.26s6.68-5.07,10.07-7.52,6.77-4.88,10.09-7.41,6.52-5.13,9.57-7.95,5.89-5.82,8.44-9.09c.31-.4.61-.8.92-1.2.19-.26-.24-.51-.43-.25-2.48,3.34-5.29,6.42-8.3,9.28s-6.16,5.48-9.42,8-6.7,5.01-10.09,7.46-6.73,4.87-10.01,7.41-6.5,5.22-9.52,8.1c-.37.36-.74.71-1.11,1.08-.23.23.12.58.35.35h0Z"/>
        <path class="cls-4" d="M32.69,88.33c5.59-3.5,11.13-7.09,16.61-10.76s10.91-7.42,16.28-11.25c3.01-2.15,6.01-4.33,8.98-6.53.26-.19,0-.62-.25-.43-5.31,3.92-10.67,7.77-16.09,11.53s-10.9,7.44-16.43,11.04c-3.1,2.02-6.22,4.01-9.36,5.97-.27.17-.02.6.25.43h0Z"/>
        <path class="cls-4" d="M31.1,78.11c1.22-1.93,3.17-3.19,5.13-4.26,2.28-1.24,4.58-2.42,6.86-3.67,4.76-2.62,9.46-5.37,14.07-8.24,2.61-1.62,5.19-3.29,7.75-4.99.27-.18.02-.61-.25-.43-4.58,3.05-9.25,5.97-13.99,8.77s-9.43,5.33-14.22,7.88c-2.21,1.18-4.42,2.53-5.79,4.7-.17.27.26.52.43.25h0Z"/>
        <path class="cls-4" d="M120.85,110.23l18.46-16.06,5.18-4.51c.24-.21-.11-.56-.35-.35-6.15,5.35-12.31,10.71-18.46,16.06l-5.18,4.51c-.24.21.11.56.35.35h0Z"/>
        <path class="cls-4" d="M118.53,95.52c2.92-2.66,6.28-4.83,9.9-6.41,1.04-.45,2.11-.85,3.19-1.2.22-.07.25-.43,0-.48-.24-.05-.47-.1-.71-.15-.31-.07-.45.41-.13.48.24.05.47.1.71.15v-.48c-3.83,1.25-7.45,3.12-10.67,5.55-.91.69-1.79,1.42-2.64,2.19-.24.22.12.57.35.35h0Z"/>
        <path class="cls-4" d="M110.12,88.33c3.1-1.5,6.11-3.2,9-5.08.27-.18.02-.61-.25-.43-2.89,1.88-5.9,3.58-9,5.08-.29.14-.04.57.25.43h0Z"/>
        <path class="cls-4" d="M82.26,82.34c3.97-3.44,8.19-6.58,12.64-9.38,1.26-.79,2.54-1.56,3.84-2.3.28-.16.03-.59-.25-.43-4.6,2.62-8.99,5.6-13.14,8.9-1.17.93-2.31,1.88-3.44,2.86-.24.21.11.56.35.35h0Z"/>
      </g>
    </g>
    <g>
      <path class="cls-5" d="M23.72,22.52c.75-1.16,1.59-2.25,2.52-3.27.49-.54,1-1.06,1.54-1.55.46-.43,1.1-.84,1.48-1.27-.09.1-.24-.18-.03.07.06.07.38.37.53.53.46.47.9.96,1.3,1.49.82,1.1,1.51,2.32,1.99,3.61.28.76,1.02,1.28,1.85,1.05.73-.2,1.33-1.08,1.05-1.85-.63-1.71-1.48-3.28-2.6-4.73-1.02-1.33-2.46-3.3-4.34-3.18-1.04.07-1.83.79-2.58,1.44-.66.57-1.29,1.17-1.89,1.8-1.27,1.33-2.42,2.79-3.42,4.34-.44.68-.14,1.66.54,2.05.73.43,1.61.14,2.05-.54h0Z"/>
      <path class="cls-5" d="M22.11,159.97c1.57,2.37,3.45,4.51,5.58,6.39.65.57,1.47.55,2.12,0,2.89-2.45,5.79-4.89,8.68-7.34.62-.52.54-1.58,0-2.12-.61-.61-1.5-.52-2.12,0-2.89,2.45-5.79,4.89-8.68,7.34h2.12c-1.94-1.71-3.68-3.63-5.11-5.78-.45-.67-1.32-.96-2.05-.54-.67.39-.99,1.37-.54,2.05h0Z"/>
      <path class="cls-5" d="M28.06,16.01c-1.47,10.07-1.49,20.25-1.04,30.4s1.3,20.24,1.45,30.38-.54,20.46-.74,30.69-.15,20.57.02,30.85c.09,5.1.2,10.2.33,15.3.06,2.57.13,5.14.2,7.71.03,1.15-.19,2.71.66,3.62.96,1.04,2.74.79,3.13-.66s-1.08-2.65-2.44-1.97c-.73.36-.93,1.39-.54,2.05.43.74,1.32.9,2.05.54l.08-.04-.76.2h.07c-.25-.06-.5-.13-.76-.2l.05.04-.54-.54.4-1.56.76-.2c.1,0,.95.59.9.72.02-.04-.01-.23-.01-.27-.01-.29-.02-.58-.02-.87-.02-.62-.03-1.24-.05-1.87-.03-1.2-.06-2.4-.09-3.61-.06-2.45-.12-4.89-.18-7.34-.11-4.81-.21-9.62-.28-14.43-.14-9.66-.15-19.33.07-28.99s.84-19.21.72-28.83-.88-19.03-1.35-28.54-.64-18.99.4-28.44c.12-1.12.27-2.25.43-3.37.12-.8-.2-1.61-1.05-1.85-.71-.19-1.73.24-1.85,1.05h0Z"/>
    </g>
    <g>
      <path class="cls-5" d="M4.99,137.5c15.59-3.05,31.37,1.21,46.89,2.62,16.19,1.47,32.45.25,48.59-1.24,16.16-1.49,32.35-3.28,48.61-2.9,8.11.19,16.2.81,24.3,1.21,8.09.4,16.19.63,24.29.85s16.32.43,24.48.65,16.13.44,24.18.08c1.97-.09,3.94-.21,5.91-.38.81-.07,1.5-.64,1.5-1.5,0-.76-.69-1.57-1.5-1.5-8.12.68-16.28.63-24.42.44s-16.31-.43-24.47-.64-16.19-.41-24.28-.74c-8.18-.33-16.36-.92-24.54-1.28s-16.16-.27-24.23.19-16.28,1.25-24.4,2.01c-16.14,1.52-32.37,3.04-48.6,2.14-7.94-.44-15.78-1.67-23.65-2.7-7.82-1.03-15.75-1.82-23.63-1.05-1.96.19-3.9.47-5.83.85-.8.16-1.25,1.11-1.05,1.85.23.83,1.05,1.2,1.85,1.05h0Z"/>
      <path class="cls-5" d="M14.15,126.14c-2.6-.33-4.61,1.92-6.34,3.51-2,1.84-3.99,3.68-5.99,5.52-.88.81-.35,2.16.66,2.51,3.7,1.27,7.08,3.35,9.88,6.07,1.39,1.34,3.51-.77,2.12-2.12-3.19-3.09-7.01-5.4-11.21-6.84l.66,2.51c1.82-1.67,3.63-3.34,5.45-5.02.85-.78,1.67-1.63,2.58-2.34.68-.54,1.34-.89,2.18-.79s1.5-.76,1.5-1.5c0-.9-.69-1.4-1.5-1.5h0Z"/>
      <path class="cls-5" d="M246.17,131.72c3.1,1.8,6.2,3.6,9.3,5.4l-.3-2.36c-2.39,3.08-4.78,6.17-7.17,9.25-.5.64-.62,1.5,0,2.12.52.52,1.62.64,2.12,0,2.39-3.08,4.78-6.17,7.17-9.25.58-.75.62-1.82-.3-2.36l-9.3-5.4c-1.67-.97-3.18,1.62-1.51,2.59h0Z"/>
    </g>
    <g>
      <path class="cls-3" d="M5.82,86.35c-.27,4.97.77,9.87,2.88,14.36.3.64,1.11.56,1.57.2,2.46-1.95,4.94-3.88,7.48-5.74,1.74-1.27,3.61-2.36,5-4.04.82-.98-.59-2.4-1.41-1.41-1.35,1.62-3.17,2.67-4.85,3.91-2.58,1.9-5.11,3.87-7.63,5.86l1.57.2c-1.97-4.17-2.86-8.75-2.61-13.35.07-1.29-1.93-1.28-2,0h0Z"/>
      <path class="cls-3" d="M221.28,32.64c4.89-1.98,9.77-3.96,14.66-5.94l-1.23-.7c1.45,5.01,1.36,10.33-.24,15.29-.4,1.23,1.54,1.75,1.93.53,1.7-5.28,1.78-11.02.24-16.35-.14-.47-.72-.9-1.23-.7-4.89,1.98-9.77,3.96-14.66,5.94-.5.2-.85.67-.7,1.23.13.47.73.9,1.23.7h0Z"/>
      <path class="cls-3" d="M11.13,98.72c3.78-7.47,7.76-14.88,12.61-21.72s10.16-12.67,17.05-16.87c3.35-2.04,6.98-3.58,10.8-4.48,4.7-1.11,9.62-1.18,14.38-.43,10.1,1.6,19.36,6.4,27.87,11.86s16.49,11.54,25.36,16.31c4.3,2.31,8.79,4.28,13.47,5.67s9.08,2.15,13.72,2.5c9.26.7,18.71-.54,27.47-3.64s16.42-7.97,23.21-14.13c6.65-6.03,12.31-13.04,17.74-20.16s10.7-14.49,16.55-21.33c1.42-1.67,2.88-3.3,4.39-4.9.88-.94-.53-2.35-1.41-1.41-6.22,6.6-11.65,13.87-17.08,21.11-5.38,7.17-10.78,14.36-17.01,20.82s-13.33,12.08-21.5,15.87-17.7,5.9-26.96,5.95-18.73-1.95-27.27-5.92c-9.13-4.25-17.27-10.23-25.61-15.81s-17.35-10.95-27.26-13.62c-4.82-1.3-9.86-1.95-14.84-1.56-4.35.33-8.58,1.43-12.56,3.21-7.32,3.27-13.43,8.8-18.45,14.96-5.34,6.55-9.66,13.86-13.61,21.31-.95,1.79-1.87,3.58-2.78,5.39-.58,1.15,1.15,2.16,1.73,1.01h0Z"/>
    </g>
    <g>
      <path class="cls-2" d="M226.01,19.86c-.51-2.56-.8-5.16-.87-7.78-.06-2.39-.02-4.91.95-7.14.77-1.74,2.2-3.34,4.1-3.82,1.76-.44,3.95.32,4.69,2.07.25.58,1.21.33.96-.27-.62-1.47-1.92-2.48-3.48-2.8-1.68-.35-3.35.12-4.69,1.16-3.36,2.59-3.64,7.14-3.53,11.04.08,2.62.39,5.23.9,7.8.13.63,1.09.36.96-.27h0Z"/>
      <path class="cls-2" d="M221.13,12.53c3.24-.3,6.46-.75,9.66-1.33.63-.12.36-1.08-.27-.96-3.11.57-6.24,1-9.39,1.29-.64.06-.64,1.06,0,1h0Z"/>
      <path class="cls-2" d="M240.49.59c-2.05,4.12-3.33,8.6-3.73,13.19-.18,2.06-.16,4.39,1.1,6.13,1.04,1.44,2.8,2.36,4.58,1.91.62-.16.36-1.12-.27-.96-1.78.45-3.43-.95-4.04-2.53-.69-1.79-.48-3.81-.26-5.67.48-4.02,1.68-7.94,3.48-11.57.29-.57-.58-1.08-.86-.5h0Z"/>
      <path class="cls-2" d="M244.26,4.92c1.96,4.3,4.7,8.22,8.06,11.55.46.45,1.17-.25.71-.71-3.31-3.27-5.98-7.11-7.9-11.34-.27-.58-1.13-.08-.86.5h0Z"/>
      <path class="cls-2" d="M250.7,4.41c-2.33,4.74-4.66,9.48-6.99,14.21-.28.58.58,1.08.86.5,2.33-4.74,4.66-9.48,6.99-14.21.28-.58-.58-1.08-.86-.5h0Z"/>
      <path class="cls-2" d="M254.09,2.86c4.03,4.47,4.8,11.44,1.87,16.69-.31.56.55,1.07.86.5,3.16-5.65,2.31-13.1-2.03-17.9-.43-.48-1.14.23-.71.71h0Z"/>
    </g>
    <g>
      <path class="cls-2" d="M194.22,133.46c-.58,2.26-.73,4.61-.42,6.92.04.27.2.5.5.5.24,0,.54-.23.5-.5-.29-2.23-.17-4.48.39-6.66.16-.62-.8-.89-.96-.27h0Z"/>
      <g>
        <path class="cls-2" d="M190.28,145.97c1.11,5.04,3.32,9.8,6.46,13.89.39.5,1.26,0,.86-.5-3.1-4.03-5.27-8.69-6.36-13.65-.14-.63-1.1-.36-.96.27h0Z"/>
        <path class="cls-2" d="M197.69,146.09c-3.76,3.23-6.85,7.19-9.08,11.61-.29.57.57,1.08.86.5,2.2-4.36,5.23-8.23,8.93-11.41.49-.42-.22-1.12-.71-.71h0Z"/>
      </g>
    </g>
    <g>
      <g>
        <path class="cls-1" d="M220.14,128.52c-.03-.1-.05-.21-.07-.32,0-.03,0-.06-.01-.09,0,.06,0,.06,0,0,0-.05,0-.09-.01-.14-.02-.21-.01-.43,0-.65,0-.05,0-.09.02-.14-.01.11.01-.08.02-.1.02-.11.04-.21.07-.31s.06-.21.1-.31c.02-.04.03-.09.05-.13-.04.09.04-.08.04-.09.11-.24.07-.55-.18-.68-.22-.12-.56-.07-.68.18-.45.95-.57,2.02-.31,3.04.06.25.36.43.62.35s.42-.34.35-.62h0Z"/>
        <path class="cls-1" d="M220.49,120.03v-3.75c0-.64-1-.64-1,0v3.75c0,.64,1,.64,1,0h0Z"/>
        <path class="cls-1" d="M220.49,111.77v-3.75c0-.64-1-.64-1,0v3.75c0,.64,1,.64,1,0h0Z"/>
        <path class="cls-1" d="M220,103.4c-.34-1.26-.43-2.59-.25-3.89.04-.27-.07-.54-.35-.62-.23-.06-.58.08-.62.35-.21,1.48-.14,2.97.25,4.42.17.62,1.13.36.96-.27h0Z"/>
        <path class="cls-1" d="M219.74,95.88v-3.38c0-.27-.23-.5-.5-.5s-.5.23-.5.5v3.38c0,.27.23.5.5.5s.5-.23.5-.5h0Z"/>
        <path class="cls-1" d="M218.5,83.5c-.35-1.57-.42-3.17-.23-4.77.03-.27-.25-.5-.5-.5-.3,0-.47.23-.5.5-.2,1.68-.1,3.38.27,5.03.14.63,1.1.36.96-.27h0Z"/>
        <path class="cls-1" d="M217.86,73.85v-4.5c0-.64-1-.64-1,0v4.5c0,.64,1,.64,1,0h0Z"/>
        <path class="cls-1" d="M217.09,63.72c0-1.2.25-2.4.72-3.5.11-.25.07-.54-.18-.68-.21-.12-.58-.07-.68.18-.55,1.27-.84,2.62-.85,4,0,.64.99.64,1,0h0Z"/>
        <path class="cls-1" d="M216.74,55.46v-3.75c0-.64-1-.64-1,0v3.75c0,.64,1,.64,1,0h0Z"/>
      </g>
      <g>
        <path class="cls-1" d="M208.96,61.64c2.51.07,5.01.3,7.48.69.31.05.45-.43.13-.48-2.52-.4-5.06-.64-7.61-.71-.32,0-.32.49,0,.5h0Z"/>
        <path class="cls-1" d="M203.48,69.23c2.2-.37,4.43-.49,6.66-.37,1.12.06,2.24.19,3.34.38.54.09,1.09.2,1.63.33.36.08.85.38,1.2.15.29-.18.2-.54-.06-.71-.28-.18-.57.01-.5.33s.55.18.48-.13c-.28.09-.37.16-.25.22.06.06.04.02-.07-.14-.05-.05-.19-.07-.27-.09-.25-.08-.5-.13-.76-.19-.54-.12-1.08-.22-1.63-.31-1.09-.18-2.2-.29-3.3-.35-2.21-.11-4.43.03-6.62.4-.32.05-.18.54.13.48h0Z"/>
        <path class="cls-1" d="M197.08,76.12l14.3.64,4.1.18c.32.01.32-.49,0-.5l-14.3-.64-4.1-.18c-.32-.01-.32.49,0,.5h0Z"/>
        <path class="cls-1" d="M191.07,84.76c8.05-.09,16.11.07,24.15.48.51.03,1.05.11,1.56.05.25-.03.63-.14.65-.45.02-.51-1.06-.6-.94,0,.06.32.54.18.48-.13-.03-.13-.21.36,0,.25l-.03-.21s-.1.04-.15.05c-.08.02-.16.02-.24.02-.4,0-.81-.04-1.21-.06-.87-.04-1.74-.09-2.61-.13-1.74-.08-3.48-.14-5.22-.2-3.51-.11-7.01-.17-10.52-.19-1.97,0-3.95,0-5.92.02-.32,0-.32.5,0,.5h0Z"/>
        <path class="cls-1" d="M192.9,89.64c1.19.47,2.49.43,3.75.41,1.44-.02,2.87-.04,4.31-.06,2.87-.04,5.75-.09,8.62-.13,1.62-.02,3.25-.05,4.87-.07.32,0,.32-.5,0-.5-5.69.08-11.37.17-17.06.25-1.45.02-2.99.16-4.36-.38-.3-.12-.43.37-.13.48h0Z"/>
        <path class="cls-1" d="M194.84,99.27c3.32.23,6.63.46,9.95.68.32.02.32-.48,0-.5-3.32-.23-6.63-.46-9.95-.68-.32-.02-.32.48,0,.5h0Z"/>
        <path class="cls-1" d="M195.22,106.68c6.05.28,12.11.34,18.17.19,1.7-.04,3.4-.1,5.1-.18.32-.01.32-.51,0-.5-6.05.27-12.11.33-18.17.17-1.7-.04-3.4-.11-5.1-.18-.32-.01-.32.49,0,.5h0Z"/>
        <path class="cls-1" d="M195.96,112.93c5.77.1,11.53.19,17.3.29l4.85.08c.32,0,.32-.49,0-.5-5.77-.1-11.53-.19-17.3-.29l-4.85-.08c-.32,0-.32.49,0,.5h0Z"/>
        <path class="cls-1" d="M194.09,118.93c6.89-.34,13.78-.45,20.68-.33,1.95.03,3.9.09,5.85.16l-.07-.49c-.34.13-.68.26-1.01.4-.3.12-.17.6.13.48.34-.13.68-.26,1.01-.4.25-.1.23-.48-.07-.49-6.89-.25-13.79-.28-20.68-.07-1.95.06-3.9.14-5.85.23-.32.02-.32.52,0,.5h0Z"/>
        <path class="cls-1" d="M197.08,124.57c5.36-.24,10.72-.22,16.08.05,1.52.08,3.05.18,4.57.29.32.02.32-.48,0-.5-5.35-.41-10.71-.58-16.07-.48-1.53.03-3.05.07-4.58.14-.32.01-.32.51,0,.5h0Z"/>
        <path class="cls-1" d="M197.07,129.27c5.92.28,11.84.56,17.77.84l5.05.24v-.5c-.47.02-.93.04-1.4.06-.32.01-.32.51,0,.5.47-.02.93-.04,1.4-.06.32-.01.32-.48,0-.5-5.92-.28-11.84-.56-17.77-.84l-5.05-.24c-.32-.02-.32.48,0,.5h0Z"/>
        <path class="cls-1" d="M200.63,135.14c-.27-7.78-.53-15.56-.8-23.34s-.53-15.56-.8-23.34l-.45-13.11c-.01-.32-.51-.32-.5,0,.27,7.78.53,15.56.8,23.34s.53,15.56.8,23.34l.45,13.11c.01.32.51.32.5,0h0Z"/>
        <path class="cls-1" d="M206.34,89.24c.28-6.14.31-12.28.1-18.42-.06-1.74-.14-3.48-.24-5.22-.02-.32-.52-.32-.5,0,.34,6.13.45,12.28.31,18.42-.04,1.74-.1,3.48-.18,5.23-.01.32.49.32.5,0h0Z"/>
        <path class="cls-1" d="M213.32,86.6c.67-7.52.21-15.05-1.24-22.45-.2-1.04-.4-2.09-.38-3.16s.26-2.1.7-3.06c.13-.29-.3-.55-.43-.25-.77,1.7-.88,3.47-.61,5.3s.71,3.73.98,5.62c.55,3.83.81,7.7.79,11.57-.01,2.15-.12,4.3-.31,6.44-.03.32.47.32.5,0h0Z"/>
        <path class="cls-1" d="M206.22,135.42c.72-6.41,1.01-12.86.87-19.31-.04-1.82-.11-3.64-.22-5.46-.02-.32-.52-.32-.5,0,.38,6.44.33,12.91-.15,19.34-.13,1.81-.3,3.62-.51,5.43-.04.32.46.32.5,0h0Z"/>
        <path class="cls-1" d="M212.98,135.91c1.1-3.79,1.31-7.75,1.21-11.68s-.51-8.08-.64-12.13c-.07-2.26-.05-4.53.16-6.78.03-.32-.47-.32-.5,0-.37,3.99-.14,8,.12,11.99s.55,7.94.28,11.91c-.15,2.22-.49,4.41-1.11,6.55-.09.31.39.44.48.13h0Z"/>
      </g>
    </g>
    <g>
      <path class="cls-2" d="M219.87,133.54v10.14c0,.64,1,.64,1,0v-10.14c0-.64-1-.64-1,0h0Z"/>
      <g>
        <path class="cls-2" d="M210.88,146.63c2.22,3.93,4.48,7.83,6.78,11.72.33.55,1.19.05.86-.5-2.3-3.89-4.56-7.79-6.78-11.72-.32-.56-1.18-.06-.86.5h0Z"/>
        <path class="cls-2" d="M217.74,146.62c-2.97,3.43-5.56,7.18-7.71,11.17-.31.57.56,1.07.86.5,2.11-3.92,4.64-7.6,7.56-10.97.42-.48-.28-1.19-.71-.71h0Z"/>
        <path class="cls-2" d="M219.8,152.31l6.47.11c.64.01.64-.99,0-1l-6.47-.11c-.64-.01-.64.99,0,1h0Z"/>
        <path class="cls-2" d="M223.19,147.8c-.36,2.96-.43,5.95-.2,8.92.05.64,1.05.64,1,0-.23-2.97-.17-5.96.2-8.92.08-.64-.92-.63-1,0h0Z"/>
        <path class="cls-2" d="M228.12,146.5c.03,3.65-.09,7.3-.37,10.95-.05.59.81.64.98.13.31-.88.66-1.74,1.09-2.57.4-.77,1.03-2.28,2.11-2.1.78.13,1.25.65,1.41,1.42.25,1.17-.12,2.45-.57,3.52-.25.59.61,1.1.86.5.86-2.03,1.54-5.54-1.27-6.36-1.41-.41-2.29.61-2.95,1.69s-1.21,2.38-1.65,3.63l.98.13c.28-3.64.41-7.29.37-10.95,0-.64-1.01-.64-1,0h0Z"/>
      </g>
    </g>
    <g>
      <path class="cls-2" d="M192.13,73.2c.21-.19.7-.12,1,.02.16.08.31.18.39.34.01.02.03.1.02.07.01.11,0,.14-.02.22-.11.56-.37,1.13-.6,1.66s-.53,1.1-1.08,1.36c-1.27.59-1.62-1.12-1.36-2.01.14-.48.44-.96.87-1.23.37-.23.96-.4,1.32-.06.4.36.48,1.11.48,1.61.01.62-.13,1.25-.41,1.8-.14.27-.58,1.1-.98.77-.38-.31-.48-1.07-.54-1.51-.07-.48-.01-1.34.61-1.45.44-.08.83.4.94.78.18.64-.16,1.32-.47,1.86-.14.24-.28.55-.49.73-.04.03-.15.08-.09.09-.08-.02-.14-.15-.18-.21-.62-1.11-.78-2.95.49-3.68.09-.05.24-.15.35-.12-.02,0-.06-.04-.03,0,.04.06.05.16.06.22.04.29.03.59-.04.87-.14.6-.48,1.16-.99,1.52l.73.3c-.4-1.03-.36-2.17.18-3.15l-.68.18c.59.43.24,1.34-.45,1.37l.35.15c-.57-.73-.28-1.93.49-2.38l-.61-.08c.28.33.21.85-.09,1.13l.35-.15c-.06,0-.14-.05-.16-.11l-.05.39c.05-.11.2-.1.31,0,.24.2.2.67.18.93l.75-.43c-.29-.22-.5-.56-.61-.9-.08-.25-.19-.64.01-.85.44-.47-.27-1.18-.71-.71-.93,1-.12,2.64.8,3.33.33.24.73-.09.75-.43.05-.75-.14-1.66-.95-1.93-.61-.21-1.76.2-1.4,1.02.15.35.48.62.86.69.45.08.73-.22.91-.6.34-.69.23-1.49-.27-2.07-.14-.17-.43-.18-.61-.08-1.25.73-1.69,2.57-.84,3.77.15.22.31.34.58.33.23,0,.45-.08.66-.17.37-.17.68-.48.85-.85.37-.81.06-1.7-.63-2.21-.21-.16-.57-.04-.68.18-.65,1.2-.77,2.65-.28,3.92.11.27.45.5.73.3.71-.5,1.23-1.23,1.44-2.08.18-.73.25-2.06-.65-2.35s-1.78.57-2.17,1.26c-.47.83-.53,1.81-.31,2.72.18.77.61,2.1,1.63,1.96.46-.06.78-.42,1.02-.78.28-.42.52-.86.71-1.32.36-.89.36-1.86-.26-2.63-.56-.69-1.55-.95-2.29-.39-.86.64-.88,1.75-.69,2.71.15.76.45,1.72,1.28,1.97.98.3,1.73-.68,2.09-1.46.39-.83.55-1.76.43-2.67s-.46-1.87-1.38-2.17c-.82-.26-1.74.08-2.34.65s-.96,1.43-1,2.27.27,1.9,1.05,2.36,1.82.18,2.47-.41c.69-.64,1-1.59,1.33-2.45.23-.61.49-1.34.07-1.93s-1.19-.91-1.9-.86c-.38.03-.71.15-.99.4-.48.43.23,1.14.71.71Z"/>
      <g>
        <path class="cls-2" d="M158.88,56.27c-2.15,1.91-3.62,4.47-4.15,7.3-.65,3.51.36,7.03,2.91,9.55.46.45,1.17-.25.71-.71-2.38-2.36-3.29-5.68-2.58-8.94.55-2.54,1.87-4.77,3.82-6.5.48-.43-.23-1.13-.71-.71h0Z"/>
        <path class="cls-2" d="M160.21,60.97c1.51,2.99,3.43,5.75,5.7,8.21.44.47,1.14-.23.71-.71-2.21-2.4-4.07-5.1-5.54-8.01-.29-.57-1.15-.07-.86.5h0Z"/>
        <path class="cls-2" d="M165.59,61.02c-1.89,2.8-3.68,5.67-5.37,8.6-.32.56.54,1.06.86.5,1.69-2.93,3.48-5.8,5.37-8.6.36-.53-.5-1.04-.86-.5h0Z"/>
        <path class="cls-2" d="M168.77,68.05c-.48,1.66-1.15,3.26-2.01,4.76-.32.56.55,1.06.86.5.9-1.58,1.6-3.26,2.11-5,.18-.62-.79-.88-.96-.27h0Z"/>
        <path class="cls-2" d="M173.69,68.51l-.21-5.93c-.03-.79-.14-1.76.72-2.15.69-.31,1.42.15,1.6.85.16.62,1.12.36.96-.27-.23-.91-1.02-1.61-1.97-1.68s-1.93.62-2.22,1.55c-.17.54-.12,1.13-.1,1.69l.07,2.03.14,3.89c.02.64,1.02.64,1,0h0Z"/>
        <path class="cls-2" d="M171.26,64.66c1.43-.19,2.88-.23,4.32-.14.27.02.5-.24.5-.5,0-.29-.23-.48-.5-.5-1.44-.09-2.89-.05-4.32.14-.27.03-.5.2-.5.5,0,.24.23.54.5.5h0Z"/>
        <path class="cls-2" d="M178.53,59.96c-2.09,2.7-2.32,6.48-.45,9.37.35.54,1.21.04.86-.5-1.62-2.51-1.46-5.89.3-8.15.39-.5-.31-1.22-.71-.71h0Z"/>
        <path class="cls-2" d="M179.82,62.48l3.36,5.36c.34.54,1.21.04.86-.5l-3.36-5.36c-.34-.54-1.21-.04-.86.5h0Z"/>
        <path class="cls-2" d="M182.62,62.38c-1.12,1.69-2.1,3.47-2.93,5.33-.11.25-.07.54.18.68.21.12.57.07.68-.18.83-1.85,1.81-3.64,2.93-5.33.36-.54-.51-1.04-.86-.5h0Z"/>
        <path class="cls-2" d="M183.97,60.84c.94,2.43,2.04,5.34.58,7.8-.33.56.54,1.06.86.5,1.61-2.72.56-5.87-.48-8.57-.23-.59-1.2-.34-.96.27h0Z"/>
        <path class="cls-2" d="M187.15,58.65c1.75,1.97,2.53,4.47,2.59,7.08.03,1.29-.04,2.61-.43,3.85-.43,1.34-1.31,2.44-2.43,3.28-.51.38-.01,1.25.5.86,1.15-.86,2.11-1.92,2.66-3.27.59-1.42.71-3,.7-4.53-.03-2.94-.91-5.76-2.89-7.98-.43-.48-1.13.23-.71.71h0Z"/>
      </g>
    </g>
    <g>
      <g>
        <path class="cls-1" d="M237.51,94.63c-.3-1.54-.48-3.1-.53-4.67-.04-1.45-.03-2.99.54-4.35.44-1.06,1.3-2.06,2.45-2.35,1.09-.27,2.27.23,2.72,1.27.26.59,1.12.08.86-.5-.52-1.19-1.82-1.87-3.09-1.83-1.42.04-2.63.96-3.38,2.11-.93,1.43-1.11,3.19-1.11,4.86,0,1.93.2,3.85.58,5.74.12.63,1.09.36.96-.27h0Z"/>
        <path class="cls-1" d="M234.3,90.33c2.02-.19,4.04-.47,6.03-.83.27-.05.42-.37.35-.62-.08-.28-.35-.4-.62-.35-1.91.35-3.83.61-5.77.8-.27.03-.5.21-.5.5,0,.25.23.53.5.5h0Z"/>
        <path class="cls-1" d="M246.13,82.65c-1.32,2.68-2.16,5.6-2.36,8.58-.08,1.27.01,2.66.82,3.7.71.91,1.82,1.42,2.97,1.16.63-.15.36-1.11-.27-.96-1.1.26-2.03-.67-2.34-1.65-.35-1.08-.21-2.29-.06-3.39.31-2.41,1.04-4.75,2.11-6.93.28-.57-.58-1.08-.86-.5h0Z"/>
        <path class="cls-1" d="M248.46,85.52c1.22,2.68,2.93,5.12,5.02,7.19.46.45,1.17-.25.71-.71-2.04-2.02-3.68-4.38-4.87-6.99-.27-.58-1.13-.08-.86.5h0Z"/>
        <path class="cls-1" d="M252.45,85.01c-1.44,2.94-2.89,5.87-4.33,8.81-.28.58.58,1.08.86.5,1.44-2.94,2.89-5.87,4.33-8.81.28-.58-.58-1.08-.86-.5h0Z"/>
        <path class="cls-1" d="M254.58,84.28c2.44,2.72,2.9,6.92,1.13,10.11-.31.56.55,1.07.86.5,2-3.59,1.46-8.26-1.28-11.32-.43-.48-1.14.23-.71.71h0Z"/>
      </g>
      <path class="cls-1" d="M268.34,83.48c.03,3.65-.09,7.3-.37,10.95-.05.59.81.64.98.13.31-.88.66-1.74,1.09-2.57.4-.77,1.03-2.28,2.11-2.1.78.13,1.25.65,1.41,1.42.25,1.17-.12,2.45-.57,3.52-.25.59.61,1.1.86.5.86-2.03,1.54-5.54-1.27-6.36-1.41-.41-2.29.61-2.95,1.69s-1.21,2.38-1.65,3.63l.98.13c.28-3.64.41-7.29.37-10.95,0-.64-1.01-.64-1,0h0Z"/>
      <path class="cls-1" d="M263.76,89.63c.02-.18.06-.35.11-.53.02-.09.09-.18.15-.23l-.05.02c.06-.01.05-.02-.02,0,.03,0,.05,0,.08,0-.1,0-.03-.01,0,0,.06.02-.07-.08,0,0s0-.02,0-.01c.04.11-.03-.1.01,0-.02-.04-.03-.07-.03-.12,0-.09.06-.1,0-.05.06-.05-.08.06-.07.06.02-.01.05-.04-.04.03-.08.06-.17.12-.26.17-.17.11-.36.21-.54.3-.34.16-.74.27-1.12.34-.16.03-.35.04-.55.05-.04,0-.07,0-.11,0-.02,0-.16-.03-.06,0-.01,0-.09-.02-.09-.03.03,0,.05.02.07.04l.06.11s0,.07,0,.1c0,.03-.07.07.01,0,.04-.03.07-.05.16-.1.2-.11.4-.2.6-.29.39-.17.8-.3,1.2-.42.21-.06.43-.11.65-.16.04,0,.09-.02.13-.03.19-.04-.04-.01.04,0h.02c-.06,0-.06,0,0,0-.05-.02-.05-.03-.02,0,.18.11.19-.08,0-.58-.09.03-.19.1-.28.14-.08.03-.16.06-.24.09-.21.07-.42.12-.63.16-.19.03-.38.05-.58.05-.1,0-.2,0-.29,0-.05,0-.1,0-.14-.01.11.01-.05-.01-.05-.02-.04,0-.08-.02-.12-.03-.02,0-.11-.05-.04-.01-.03-.01-.05-.03-.08-.04-.11-.05.04.05-.04-.03-.05-.05,0-.02,0,0l-.02-.04s.02.04.02.07v.03c0-.06,0-.06,0,0,.01-.05.02-.06,0-.02-.01.03,0,.03.01-.02l-.02.04s.04-.04.02-.02c-.06.02.06-.03.06-.04.07-.05.04-.02.01,0,.04-.02.09-.03.14-.05.19-.06.39-.08.59-.12.24-.04.47-.09.71-.13.05,0,.09-.02.14-.03-.04,0,.18-.03.1-.02-.07.01.08,0,.08,0,.05,0,.1,0,.15,0,.15,0-.06,0,.03,0h.02c.06.02.06.02,0,0l.04.02-.03-.03.03.03s-.03-.03-.04-.06c0-.09,0-.07-.04,0-.03.05-.11.12-.18.18-.27.22-.63.41-.96.53-.1.03-.2.06-.3.09-.04.01-.08.02-.12.03-.08.02-.03-.01-.06,0h-.03c.07,0,.13.03.17.11,0,0,.02.06,0-.01-.05-.12,0,.06-.01-.06,0-.07-.01-.13-.02-.2-.02-.21-.04-.43-.04-.64,0-.04,0-.08,0-.12,0-.02.02-.18,0-.08.01-.07.03-.15.06-.22-.04.1.02-.02.03-.03l-.03.04s.04-.04,0,0c0,0,.07-.03,0,0,.05-.02.06-.02.12-.01.13.03.28.12.38.22.08.08.2.27.22.35,0,.03.02.07.03.1.01.06.01.07,0,.02,0,.03,0,.05,0,.08,0,.04,0,.09,0,.13,0,.12.02-.04-.01.07-.05.15-.09.28-.18.38-.03.04-.07.07-.11.11-.06.06.02,0-.06.05-.03.02-.06.04-.09.05-.03.02-.06.03-.09.05.04-.02.03-.01-.03,0-.26.09-.42.34-.35.62.07.25.36.44.62.35,1.17-.4,1.7-1.84.93-2.86-.4-.53-1.16-.94-1.81-.61-.51.26-.65.88-.63,1.41,0,.28.04.56.07.84.04.37.2.75.6.85.32.09.68-.01.98-.12s.58-.23.85-.38c.54-.31,1.25-.85,1.06-1.57s-.94-.75-1.52-.64c-.33.06-.66.12-.99.18-.29.05-.57.1-.84.23-.59.28-.83,1-.39,1.53.37.45,1.02.52,1.56.51.67-.01,1.32-.17,1.92-.44.34-.15.68-.38.61-.81-.05-.35-.38-.55-.71-.6s-.65.06-.96.14-.6.17-.9.27c-.32.11-.64.24-.96.39-.28.13-.58.26-.81.47-.25.23-.37.58-.25.91.13.37.48.53.85.57.57.06,1.22-.07,1.76-.25.6-.2,1.16-.5,1.66-.9.27-.22.44-.55.36-.9-.06-.26-.25-.48-.48-.59-.59-.29-1.23-.03-1.51.56-.12.26-.18.52-.21.8s.06.54.35.62c.23.06.58-.08.62-.35h0Z"/>
      <g>
        <path class="cls-1" d="M207.7,93.11c-.07,1.48-.06,2.97.05,4.45.05.74.13,1.48.23,2.22.07.55.13,1.16.5,1.6.94,1.14,2.38.04,3.28-.54,1.25-.8,2.51-1.59,3.76-2.39.54-.34.04-1.21-.5-.86-1.07.68-2.15,1.37-3.22,2.05-.52.33-1.03.68-1.56.99-.4.23-.91.43-1.1-.12-.19-.52-.2-1.13-.26-1.68-.07-.63-.12-1.27-.16-1.9-.07-1.27-.07-2.55-.01-3.82.03-.64-.97-.64-1,0h0Z"/>
        <path class="cls-1" d="M208.74,100.57c.45.58,1.09.46,1.55-.05.55-.6.72-1.58,1.05-2.31.78-1.68,1.82-3.24,3.07-4.6,2.42-2.63,5.79-4.83,9.42-5.15,1.97-.18,3.98.23,5.43,1.65.46.45,1.17-.26.71-.71-2.5-2.45-6.37-2.34-9.46-1.19-3.35,1.25-6.26,3.67-8.33,6.56-.59.82-1.11,1.69-1.55,2.6-.23.46-.43.94-.62,1.42-.09.23-.17.48-.26.71-.03.08-.06.16-.11.24-.05.08-.1.14-.18.19-.12.07-.08.12.13.14-.38-.51-1.25,0-.86.5h0Z"/>
      </g>
    </g>
  </g>
</svg>