<?xml version="1.0" encoding="UTF-8"?>
<svg id="Layer_2" data-name="Layer 2" xmlns="http://www.w3.org/2000/svg" viewBox="0 0 395.88 106.23">
  <defs>
    <style>
      .cls-1 {
        fill: #00adee;
      }

      .cls-1, .cls-2, .cls-3 {
        stroke-width: 0px;
      }

      .cls-2 {
        fill: #00a551;
      }

      .cls-3 {
        fill: #231f20;
      }
    </style>
  </defs>
  <g id="Layer_1-2" data-name="Layer 1">
    <g>
      <path class="cls-2" d="M39.07,94.42c-.13.35-.18.75-.15,1.12.01.13.05.26.15.35.09.09.23.15.35.15s.26-.05.35-.15.16-.22.15-.35c-.01-.17,0-.34.01-.51l-.02.13c.02-.16.06-.32.12-.48.04-.12.01-.28-.05-.39s-.18-.2-.3-.23c-.13-.03-.27-.02-.39.05s-.18.17-.23.3h0Z"/>
      <path class="cls-2" d="M38.99,97.08l-.15,1.55c-.01.12.06.27.15.35.09.09.23.15.35.15s.26-.05.35-.15c.09-.1.13-.21.15-.35l.15-1.55c.01-.12-.06-.27-.15-.35-.09-.09-.23-.15-.35-.15s-.26.05-.35.15c-.09.1-.13.21-.15.35h0Z"/>
      <path class="cls-2" d="M38.71,100.32c-.07.37-.1.75-.06,1.12,0,.07.01.13.04.19.02.06.05.12.1.16.09.09.23.15.35.15s.26-.05.35-.15c.08-.09.16-.22.15-.35-.03-.27-.03-.53,0-.8l-.02.13c0-.06.02-.13.03-.19.03-.13.02-.26-.05-.39-.06-.1-.18-.2-.3-.23-.13-.03-.27-.02-.39.05-.1.07-.21.17-.23.3h0Z"/>
      <path class="cls-2" d="M38.51,103.05h0s-.01-.08-.02-.12c.02.17.02.34,0,.51l.02-.13c0,.06-.02.12-.03.19-.03.13-.02.27.05.39.03.06.07.11.13.14.05.04.1.07.17.09.13.03.27.02.39-.05.11-.07.2-.17.23-.3.04-.16.06-.32.07-.49s-.01-.33-.04-.49c-.02-.07-.05-.12-.09-.17-.04-.05-.08-.1-.14-.13-.06-.04-.12-.06-.19-.06-.07-.01-.13-.01-.2,0-.12.04-.24.11-.3.23l-.05.12c-.02.09-.02.18,0,.27h0Z"/>
      <path class="cls-2" d="M37.58,103.73c-.66-.2-1.34-.22-2.02-.11-.12.02-.24.13-.3.23-.06.11-.09.27-.05.39s.11.24.23.3c.13.07.25.07.39.05.04,0,.09-.01.13-.02l-.13.02c.34-.04.68-.04,1.02,0l-.13-.02c.21.03.41.07.61.13.25.07.56-.09.62-.35s-.08-.53-.35-.62h0Z"/>
      <path class="cls-2" d="M34.41,103.83c-.2-.12-.45-.17-.68-.15-.21.02-.41.07-.61.09l.13-.02c-.09.01-.18.01-.27,0l.13.02c-.07-.01-.13-.03-.2-.05l.12.05s-.05-.02-.07-.03c-.09-.05.06.06.03.03-.01-.02-.03-.03-.04-.05.1.1.06.08.03.02l.05.12s-.02-.06-.03-.09c-.02-.12-.13-.24-.23-.3-.11-.06-.27-.09-.39-.05s-.24.11-.3.23c-.07.13-.08.25-.05.39.06.36.4.62.74.69.14.03.3.05.44.03.19-.02.37-.06.55-.09l-.13.02c.1-.01.19-.02.29,0l-.13-.02c.05,0,.1.02.15.04l-.12-.05s.05.02.07.04c.23.13.56.06.68-.18s.06-.54-.18-.68h0Z"/>
      <path class="cls-2" d="M31.05,103.85l-1.48-.14c-.12-.01-.27.06-.35.15-.09.09-.15.23-.15.35s.05.26.15.35.21.13.35.15l1.48.14c.12.01.27-.06.35-.15.09-.09.15-.23.15-.35s-.05-.26-.15-.35-.21-.13-.35-.15h0Z"/>
      <path class="cls-2" d="M.5,105.54c.77-.03,1.55,0,2.32.07.26.03.51-.25.5-.5-.01-.29-.22-.47-.5-.5-.77-.08-1.55-.11-2.32-.07-.26.01-.51.22-.5.5.01.26.22.51.5.5h0Z"/>
      <path class="cls-2" d="M4.65,105.6c.82-.03,1.65-.09,2.47-.18.26-.03.51-.21.5-.5-.01-.25-.22-.53-.5-.5-.82.09-1.64.15-2.47.18-.26,0-.51.22-.5.5.01.26.22.51.5.5h0Z"/>
      <path class="cls-2" d="M9.92,105.62c.21-.05.42-.09.63-.12,0,0,.16-.02.06,0,.05,0,.1-.01.15-.02.11-.01.21-.02.32-.03.42-.03.83-.03,1.25,0,.26.02.51-.24.5-.5-.01-.29-.22-.48-.5-.5-.89-.06-1.79.02-2.67.21-.26.06-.43.37-.35.62.09.27.34.41.62.35h0Z"/>
      <path class="cls-2" d="M14.51,105.28l2.26-.16c.26-.02.51-.22.5-.5-.01-.26-.22-.52-.5-.5l-2.26.16c-.26.02-.51.22-.5.5.01.26.22.52.5.5h0Z"/>
      <path class="cls-2" d="M19.93,105.03c.52.01,1.04.03,1.56.03.46,0,.99-.12,1.22-.57.12-.23.07-.55-.18-.68-.23-.12-.56-.07-.68.18,0,.02-.02.04-.03.05.05-.06.06-.07.03-.03-.06.06.11-.06-.01,0-.02,0-.03.02-.05.03.07-.03.09-.04.05-.02-.03,0-.07.02-.1.03-.02,0-.04,0-.06.01.08,0,.09-.01.04,0-.04,0-.08,0-.13,0-.08,0-.17,0-.25,0l-1.41-.03c-.26,0-.51.23-.5.5s.22.49.5.5h0Z"/>
      <path class="cls-2" d="M24.99,104.72c.37-.02.74-.02,1.11.01.09,0,.17.02.26.03.03,0,.06,0,.08.01-.06,0-.06,0-.03,0,.05,0,.1.01.15.02.18.03.36.07.55.11.25.06.55-.08.62-.35s-.08-.55-.35-.62c-.78-.19-1.59-.26-2.38-.21-.26.02-.51.22-.5.5.01.26.22.52.5.5h0Z"/>
      <path class="cls-2" d="M.72,104.58c.8.12,1.61.09,2.39-.13.25-.07.43-.36.35-.62s-.35-.43-.62-.35c-.17.05-.33.09-.5.12-.04,0-.08.01-.12.02-.06,0-.05,0,.01,0-.02,0-.04,0-.06,0-.09,0-.17.02-.26.02-.17.01-.34.01-.52,0-.08,0-.16,0-.24-.02-.04,0-.08,0-.12-.01-.06,0-.05,0,.01,0-.03,0-.05,0-.08-.01-.14-.02-.26-.02-.39.05-.1.06-.2.18-.23.3-.05.24.07.57.35.62h0Z"/>
      <path class="cls-2" d="M5.77,104.28c.05,0,.1-.02.15-.02.04,0,.03,0-.02,0,.02,0,.04,0,.07,0,.1-.01.19-.02.29-.03.19-.02.37-.03.56-.03.38,0,.76.01,1.14.06.26.03.51-.25.5-.5-.01-.3-.22-.47-.5-.5-.82-.1-1.64-.06-2.45.07-.26.04-.43.38-.35.62.09.28.34.39.62.35h0Z"/>
      <path class="cls-2" d="M14.29,103.91c.73-.3,1.48-.52,2.26-.66.26-.05.43-.37.35-.62-.09-.28-.34-.4-.62-.35-.77.14-1.53.36-2.26.66-.13.05-.23.11-.3.23-.06.11-.09.27-.05.39.08.23.36.46.62.35h0Z"/>
      <path class="cls-2" d="M19.14,102.26c.98-.18,1.94-.44,2.87-.79.24-.09.44-.34.35-.62-.08-.24-.35-.45-.62-.35-.93.35-1.89.62-2.87.79-.26.05-.43.37-.35.62.09.28.34.4.62.35h0Z"/>
      <path class="cls-2" d="M23.52,101.19c1.02-.1,2-.44,2.83-1.05.21-.15.34-.44.18-.68-.13-.21-.46-.34-.68-.18-.18.13-.36.25-.56.36-.1.06-.21.11-.32.16-.02,0-.19.08-.08.04-.05.02-.1.04-.14.06-.21.08-.42.14-.63.2-.11.03-.22.05-.33.07-.02,0-.21.03-.09.01-.06,0-.12.01-.18.02-.26.02-.51.21-.5.5.01.25.22.53.5.5h0Z"/>
      <path class="cls-2" d="M28.44,99.6c.88-.11,1.73-.38,2.49-.84.22-.14.33-.45.18-.68s-.44-.32-.68-.18c-.17.1-.35.2-.53.28-.04.02-.07.03-.11.05-.02.01-.05.02-.07.03.06-.02.06-.03,0,0-.09.03-.17.07-.26.1-.18.06-.35.11-.54.16-.09.02-.18.04-.27.06-.05,0-.1.02-.16.03-.03,0-.05,0-.08.01.07,0,.07,0,.01,0-.14.02-.25.04-.35.15-.09.09-.15.23-.15.35.01.24.22.53.5.5h0Z"/>
      <path class="cls-2" d="M32.46,98c.77-.09,1.51-.34,2.15-.78.21-.15.33-.44.18-.68-.14-.21-.45-.34-.68-.18-.14.09-.28.18-.42.26-.08.04-.16.08-.24.12h-.03s-.04.03.03,0c-.02.02-.09.04-.12.05-.15.06-.31.11-.47.15-.07.02-.15.03-.23.05-.04,0-.09.01-.13.02-.06,0-.04,0,.03,0-.02,0-.04,0-.07,0-.14.02-.25.05-.35.15-.09.09-.15.23-.15.35.01.25.22.53.5.5h0Z"/>
      <path class="cls-2" d="M36.38,96.47l1.67-.81c.24-.11.32-.47.18-.68-.16-.24-.43-.3-.68-.18l-1.67.81c-.24.11-.32.47-.18.68.16.24.43.3.68.18h0Z"/>
      <path class="cls-2" d="M10.21,103.97c.57.04,1.15-.02,1.69-.18.25-.07.43-.36.35-.62s-.35-.43-.62-.35c-.21.06-.43.11-.66.14l.13-.02c-.3.04-.6.05-.9.03-.26-.02-.51.24-.5.5.01.29.22.48.5.5h0Z"/>
      <path class="cls-2" d="M36.57,96.57c.43.82.98,1.57,1.6,2.25.18.19.53.19.71,0,.19-.21.19-.5,0-.71-.15-.16-.29-.32-.43-.49-.03-.04-.06-.08-.1-.12-.04-.05-.02-.02,0,.01-.02-.02-.04-.05-.06-.08-.07-.09-.13-.17-.19-.26-.25-.36-.48-.73-.68-1.11-.12-.23-.46-.32-.68-.18-.23.15-.31.44-.18.68h0Z"/>
      <path class="cls-2" d="M34.87,97.77l2.18,3.83c.32.56,1.18.06.86-.5l-2.18-3.83c-.32-.56-1.18-.06-.86.5h0Z"/>
      <path class="cls-2" d="M32.98,98.54c.73,1.62,1.46,3.23,2.19,4.85.11.25.47.31.68.18.25-.15.29-.44.18-.68l-2.19-4.85c-.11-.25-.47-.31-.68-.18-.25.15-.29.44-.18.68h0Z"/>
      <path class="cls-2" d="M30.15,99.81s.05.06.08.09c.05.07-.06-.09.02.03.04.06.08.12.12.18.08.12.14.25.2.38.02.04.03.07.05.11.04.08,0-.01.02.04.03.07.06.14.08.21.06.15.11.29.16.44.23.63.48,1.24.91,1.76.17.21.53.18.71,0,.21-.21.17-.5,0-.71-.05-.07,0,0-.03-.03-.02-.03-.05-.07-.07-.1-.04-.06-.08-.12-.11-.18-.07-.13-.14-.26-.2-.39-.02-.04-.03-.07-.05-.11.03.06,0-.01-.02-.04-.03-.07-.05-.14-.08-.21-.06-.15-.11-.29-.16-.44-.23-.63-.49-1.23-.93-1.74-.18-.2-.53-.18-.71,0-.2.2-.18.5,0,.71h0Z"/>
      <path class="cls-2" d="M27.17,99.93c.55,1.25,1.14,2.48,1.77,3.69.11.22.41.3.62.2.25-.11.33-.34.29-.59-.04-.29-.09-.58-.13-.87-.04-.27-.38-.41-.62-.35-.29.08-.39.35-.35.62.04.29.09.58.13.87l.91-.39c-.63-1.21-1.22-2.44-1.77-3.69-.11-.25-.47-.3-.68-.18-.25.15-.29.44-.18.68h0Z"/>
      <path class="cls-2" d="M24.5,101.3c.21.97.67,1.87,1.32,2.63.17.2.53.19.71,0,.2-.21.18-.49,0-.71-.04-.04-.07-.08-.1-.12-.02-.02-.03-.04-.05-.06.03.03.04.05,0,0-.06-.09-.13-.17-.19-.27-.12-.19-.23-.38-.33-.58-.02-.05-.05-.1-.07-.15-.01-.02-.02-.05-.03-.07,0-.01-.04-.09-.01-.03s0-.02-.01-.03c0-.03-.02-.05-.03-.08-.02-.05-.04-.1-.06-.15-.07-.21-.13-.43-.18-.64-.06-.26-.37-.43-.62-.35-.27.09-.41.34-.35.62h0Z"/>
      <path class="cls-2" d="M22.11,101.55c.47.77.99,1.51,1.54,2.22.07.09.24.15.35.15.12,0,.27-.05.35-.15s.15-.22.15-.35c0-.14-.06-.24-.15-.35-.01-.02-.12-.15-.04-.06-.03-.04-.06-.08-.1-.13-.06-.08-.13-.17-.19-.25-.13-.17-.25-.34-.37-.52-.24-.35-.47-.7-.69-1.07-.14-.22-.45-.33-.68-.18s-.32.44-.18.68h0Z"/>
      <path class="cls-2" d="M19.8,102.84c.14.66.49,1.29.99,1.75.19.18.52.2.71,0,.18-.19.21-.52,0-.71-.12-.11-.22-.22-.32-.35l.08.1c-.15-.2-.28-.41-.38-.64l.05.12c-.07-.18-.13-.36-.17-.54-.05-.26-.37-.43-.62-.35-.27.09-.41.34-.35.62h0Z"/>
      <path class="cls-2" d="M17.13,102.63c.1.31.24.62.43.89.22.3.47.55.77.77.1.07.27.08.39.05s.24-.12.3-.23c.06-.12.09-.26.05-.39s-.12-.22-.23-.3c-.02-.02-.05-.03-.07-.05l.1.08c-.18-.14-.33-.29-.47-.47l.08.1c-.14-.18-.25-.37-.34-.57l.05.12c-.04-.09-.07-.17-.1-.26-.04-.12-.12-.23-.23-.3s-.27-.09-.39-.05c-.25.08-.43.35-.35.62h0Z"/>
    </g>
    <g>
      <g>
        <path class="cls-1" d="M147.84,101.3c-.05-.09-.09-.18-.13-.28l.1.24c-.12-.29-.2-.59-.25-.89l.04.27c-.04-.31-.04-.62,0-.93l-.04.27c0-.05.02-.1.02-.15.05-.27.04-.53-.1-.77-.12-.21-.36-.41-.6-.46-.26-.06-.54-.05-.77.1-.21.13-.41.34-.46.6-.05.28-.09.56-.09.84s.03.55.07.83c.07.47.25.93.47,1.35.12.22.36.4.6.46s.56.04.77-.1c.47-.3.62-.87.36-1.37h0Z"/>
        <path class="cls-1" d="M147.24,95.79c.04-.85-.11-1.73-.44-2.51-.03-.13-.09-.24-.18-.34-.07-.11-.16-.19-.28-.26-.21-.13-.53-.18-.77-.1s-.48.23-.6.46-.2.53-.1.77c.18.42.3.85.36,1.3l-.04-.27c.04.31.06.63.04.94-.02.52.48,1.02,1,1,.56-.03.98-.44,1-1h0Z"/>
        <path class="cls-1" d="M146.54,89.78l-.48-3.74c-.04-.28-.09-.5-.29-.71-.17-.17-.46-.3-.71-.29s-.53.1-.71.29c-.17.18-.33.45-.29.71l.48,3.74c.04.28.09.5.29.71.17.17.46.3.71.29s.53-.1.71-.29c.17-.18.33-.45.29-.71h0Z"/>
        <path class="cls-1" d="M146.41,81.03c.23-1.57.18-3.14-.2-4.69-.12-.51-.73-.86-1.23-.7s-.83.69-.7,1.23c.08.33.15.67.2,1.01.04.26-.02-.22,0,.05,0,.08.02.16.03.24.02.17.03.34.04.51.02.33.02.66,0,.99,0,.16-.02.32-.03.47,0,.08-.01.16-.02.24,0,.05-.01.1-.02.16.02-.14.02-.15,0-.03-.04.28-.05.52.1.77.12.21.36.41.6.46.47.11,1.15-.14,1.23-.7h0Z"/>
        <path class="cls-1" d="M146.11,72.52v-3.38c0-.52-.46-1.02-1-1s-1,.44-1,1v3.38c0,.52.46,1.02,1,1s1-.44,1-1h0Z"/>
        <path class="cls-1" d="M145.78,65.03c-.12-1.65-.24-3.29-.37-4.94-.04-.52-.43-1.03-1-1-.51.02-1.04.44-1,1,.12,1.65.24,3.29.37,4.94.04.52.43,1.03,1,1,.51-.02,1.04-.44,1-1h0Z"/>
        <path class="cls-1" d="M145.01,56.09c-.35-1.74-.49-3.48-.42-5.35.02-.52-.47-1.02-1-1-.56.03-.98.44-1,1-.07,1.97.1,3.95.49,5.88.1.51.74.86,1.23.7.55-.18.81-.68.7-1.23h0Z"/>
        <path class="cls-1" d="M144.57,45.86c.2-1.98.11-3.96-.21-5.92-.08-.52-.75-.85-1.23-.7-.56.18-.79.68-.7,1.23.08.48.11.72.16,1.25.04.45.07.91.08,1.36.03.93,0,1.85-.1,2.78-.05.52.5,1.02,1,1,.59-.03.94-.44,1-1h0Z"/>
        <path class="cls-1" d="M144.23,34.22c.08-1.6-.09-3.21-.48-4.76-.13-.51-.72-.86-1.23-.7s-.83.69-.7,1.23c.09.36.17.72.23,1.09.01.08.03.17.04.25,0,.03.05.34.03.21s.02.18.02.21c0,.08.02.17.03.25.07.74.08,1.48.05,2.22-.03.52.48,1.02,1,1,.56-.03.97-.44,1-1h0Z"/>
        <path class="cls-1" d="M143.1,25.21v-4.5c0-.52-.46-1.02-1-1s-1,.44-1,1v4.5c0,.52.46,1.02,1,1s1-.44,1-1h0Z"/>
        <path class="cls-1" d="M142.38,14.42l-.78-3c-.13-.51-.72-.86-1.23-.7s-.84.69-.7,1.23l.78,3c.13.51.72.86,1.23.7s.84-.69.7-1.23h0Z"/>
        <path class="cls-1" d="M141.47,9.32s-.04-.09-.06-.13l.1.24c-.16-.38-.26-.77-.32-1.18l.04.27c-.05-.41-.05-.82,0-1.22l-.04.27s0-.06.01-.09c.04-.28.05-.52-.1-.77-.12-.21-.36-.41-.6-.46-.26-.06-.54-.05-.77.1-.2.13-.42.35-.46.6-.04.31-.09.61-.09.92s.03.62.08.92c.08.54.25,1.05.48,1.55.1.21.38.4.6.46.24.07.56.04.77-.1s.4-.34.46-.6l.04-.27c0-.18-.05-.35-.14-.5h0Z"/>
        <path class="cls-1" d="M136.74,10.82c-.63,1.11-1.26,2.22-1.9,3.33-.15.26-.3.52-.44.78-.26.45-.12,1.11.36,1.37s1.09.13,1.37-.36c.61-1.07,1.22-2.14,1.83-3.21.17-.3.34-.6.51-.9.26-.45.12-1.11-.36-1.37s-1.09-.13-1.37.36h0Z"/>
        <path class="cls-1" d="M131.83,17.8c-.04.11-.09.23-.13.34l.1-.24c-.27.64-.63,1.24-1.05,1.8l.16-.2c-.28.36-.59.69-.92.99-.39.35-.39,1.06,0,1.41.41.38,1,.38,1.41,0,1.07-.98,1.86-2.21,2.36-3.57.09-.23.02-.56-.1-.77s-.36-.41-.6-.46c-.26-.06-.54-.05-.77.1s-.37.34-.46.6h0Z"/>
        <path class="cls-1" d="M127.05,23.56c-.21.36-.43.7-.67,1.04-.12.17-.23.37-.38.51.07-.07.1-.13.01-.02-.03.03-.06.07-.08.1-.07.09-.14.17-.21.26-.54.64-1.13,1.23-1.77,1.78-.4.34-.38,1.07,0,1.41.43.39.99.36,1.41,0,1.35-1.15,2.51-2.55,3.41-4.08.27-.45.12-1.12-.36-1.37s-1.08-.12-1.37.36h0Z"/>
        <path class="cls-1" d="M121.13,29.61l-3.4,4.87c-.3.43-.09,1.13.36,1.37.51.27,1.05.1,1.37-.36l3.4-4.87c.3-.43.09-1.13-.36-1.37-.51-.27-1.05-.1-1.37.36h0Z"/>
        <path class="cls-1" d="M114.95,37.62c-1.14.86-2.28,1.71-3.43,2.57-.22.16-.38.33-.46.6-.07.24-.04.56.1.77s.34.4.6.46.56.06.77-.1c1.14-.86,2.28-1.71,3.43-2.57.22-.16.38-.33.46-.6.07-.24.04-.56-.1-.77s-.34-.4-.6-.46-.56-.06-.77.1h0Z"/>
        <path class="cls-1" d="M108.29,43.23l-2.96,3.27c-.35.39-.41,1.04,0,1.41.38.35,1.04.41,1.41,0l2.96-3.27c.35-.39.41-1.04,0-1.41-.38-.35-1.04-.41-1.41,0h0Z"/>
        <path class="cls-1" d="M102.15,48.52c-.92.82-1.84,1.64-2.76,2.46-.39.35-.38,1.06,0,1.41.42.38,1,.37,1.41,0,.92-.82,1.84-1.64,2.76-2.46.39-.35.38-1.06,0-1.41-.42-.38-1-.37-1.41,0h0Z"/>
        <path class="cls-1" d="M96.2,54.81c-1.54.89-2.93,2.06-4.06,3.43-.17.21-.29.43-.29.71,0,.25.11.54.29.71.37.34,1.06.43,1.41,0,.53-.64,1.12-1.24,1.76-1.79.15-.13.31-.24.46-.38-.18.17-.07.05-.02.02.04-.03.09-.07.13-.1.08-.06.16-.12.24-.17.35-.25.71-.48,1.08-.69.45-.26.65-.91.36-1.37s-.88-.64-1.37-.36h0Z"/>
        <path class="cls-1" d="M89.16,59.87c-1.04.72-2.08,1.45-3.12,2.17-.22.15-.39.34-.46.6-.07.24-.04.56.1.77.27.43.91.68,1.37.36,1.04-.72,2.08-1.45,3.12-2.17.22-.15.39-.34.46-.6.07-.24.04-.56-.1-.77-.27-.43-.91-.68-1.37-.36h0Z"/>
        <path class="cls-1" d="M80.6,65.82l-2.96,2.3c-.19.15-.29.48-.29.71,0,.25.11.54.29.71s.44.3.71.29l.27-.04c.17-.05.32-.13.44-.26l2.96-2.3c.19-.15.29-.48.29-.71,0-.25-.11-.54-.29-.71s-.44-.3-.71-.29l-.27.04c-.17.05-.32.13-.44.26h0Z"/>
        <path class="cls-1" d="M73.27,72.02l-3.74,2.27c-.45.27-.65.91-.36,1.37s.89.65,1.37.36l3.74-2.27c.45-.27.65-.91.36-1.37s-.89-.65-1.37-.36h0Z"/>
        <path class="cls-1" d="M65.75,76.51l-3.79,2.19c-.45.26-.65.92-.36,1.37s.88.64,1.37.36l3.79-2.19c.45-.26.65-.92.36-1.37s-.88-.64-1.37-.36h0Z"/>
        <path class="cls-1" d="M56.93,82.83c-.91.86-1.82,1.72-2.73,2.58-.38.36-.39,1.06,0,1.41s1.01.38,1.41,0c.91-.86,1.82-1.72,2.73-2.58.38-.36.39-1.06,0-1.41s-1.01-.38-1.41,0h0Z"/>
        <path class="cls-1" d="M49.63,87.8c-1.01.68-2.03,1.35-3.04,2.03-.23.15-.46.31-.69.46-.43.29-.66.9-.36,1.37.28.43.9.67,1.37.36.95-.63,1.9-1.27,2.86-1.9.29-.19.58-.39.88-.58.43-.29.66-.9.36-1.37-.28-.43-.9-.67-1.37-.36h0Z"/>
        <path class="cls-1" d="M42.48,92.29l-3.01,1.48c-.22.11-.4.37-.46.6-.07.24-.04.56.1.77.31.48.86.61,1.37.36l3.01-1.48c.22-.11.4-.37.46-.6.07-.24.04-.56-.1-.77-.31-.48-.86-.61-1.37-.36h0Z"/>
        <path class="cls-1" d="M38.62,96.92v1.5c0,.26.11.53.29.71s.46.3.71.29.53-.1.71-.29.29-.44.29-.71v-1.5c0-.26-.11-.53-.29-.71s-.46-.3-.71-.29-.53.1-.71.29-.29.44-.29.71h0Z"/>
        <path class="cls-1" d="M38.84,101.39c-.22.63-.37,1.33-.2,1.99.12.48.46.88.94,1.02.09.03.21.04.3.04.01,0,.03,0,.04,0,.1,0,.21-.02.3-.04.02,0,.03,0,.05-.01.1-.03.22-.08.31-.14.08-.05.16-.12.23-.18.01-.01.03-.02.04-.04.16-.17.31-.4.36-.63.02-.1.04-.21.04-.31,0-.02,0-.04,0-.07,0-.13-.02-.28-.07-.41-.03-.13-.09-.24-.18-.34-.07-.11-.16-.19-.28-.26-.21-.13-.53-.18-.77-.1s-.48.23-.6.46-.19.52-.1.77c.01.04.02.07.03.11l-.04-.27s0,.08,0,.12l.04-.27s-.02.07-.03.11l.1-.24s-.03.06-.05.09l.16-.2s-.04.05-.07.07l.2-.16s-.05.04-.08.05l.24-.1s-.05.02-.08.02l.27-.04s-.05,0-.08,0l.27.04s-.04,0-.06-.02l.24.1s-.04-.02-.06-.03l.2.16s-.04-.03-.05-.05l.16.2s-.04-.06-.05-.09l.1.24c-.04-.09-.06-.18-.07-.28l.04.27c-.02-.16-.01-.31,0-.47l-.04.27c.04-.29.13-.57.22-.84.04-.13.05-.27.02-.4,0-.13-.05-.26-.12-.37-.12-.21-.36-.41-.6-.46-.26-.06-.54-.05-.77.1l-.2.16c-.12.12-.21.27-.26.44h0Z"/>
        <path class="cls-1" d="M45.33,103.53h3.99c.52,0,1.02-.46,1-1s-.44-1-1-1h-3.99c-.52,0-1.02.46-1,1s.44,1,1,1h0Z"/>
        <path class="cls-1" d="M52.74,104.14l4.53-.46c.52-.05,1.03-.42,1-1-.02-.5-.44-1.06-1-1l-4.53.46c-.52.05-1.03.42-1,1,.02.5.44,1.06,1,1h0Z"/>
        <path class="cls-1" d="M62.14,103.92c1.75,0,3.5,0,5.26,0,.52,0,1.02-.46,1-1s-.44-1-1-1c-1.75,0-3.5,0-5.26,0-.52,0-1.02.46-1,1s.44,1,1,1h0Z"/>
        <path class="cls-1" d="M72.53,103.67h4.5c.52,0,1.02-.46,1-1s-.44-1-1-1h-4.5c-.52,0-1.02.46-1,1s.44,1,1,1h0Z"/>
        <path class="cls-1" d="M80.16,104.17c1.38,0,2.75,0,4.13,0,.52,0,1.02-.46,1-1s-.44-1-1-1c-1.38,0-2.75,0-4.13,0-.52,0-1.02.46-1,1s.44,1,1,1h0Z"/>
        <path class="cls-1" d="M87.41,103.85c2.44.46,4.92.62,7.39.43.54-.04,1-.43,1-1,0-.51-.46-1.04-1-1-2.29.17-4.6.07-6.86-.36-.53-.1-1.08.15-1.23.7-.13.49.17,1.13.7,1.23h0Z"/>
        <path class="cls-1" d="M100.74,105.39c.34-.11.69-.19,1.04-.26.11-.02.22-.04.33-.06.22-.04-.18.02.06,0,.18-.02.36-.04.54-.05.36-.02.72-.03,1.07,0,.18,0,.36.02.54.04.05,0,.11.01.16.02h-.1c.11,0,.22.02.33.04.51.09,1.1-.14,1.23-.7.11-.48-.15-1.14-.7-1.23-1.68-.29-3.39-.21-5.03.29-.5.15-.87.71-.7,1.23s.69.86,1.23.7h0Z"/>
        <path class="cls-1" d="M110.19,105.05h3.38c.52,0,1.02-.46,1-1s-.44-1-1-1h-3.38c-.52,0-1.02.46-1,1s.44,1,1,1h0Z"/>
        <path class="cls-1" d="M116.29,104.72c1.54.42,3.11.49,4.68.27.23-.03.49-.27.6-.46.13-.21.18-.53.1-.77s-.23-.48-.46-.6c-.25-.13-.49-.14-.77-.1.27-.04-.02,0-.08,0-.09,0-.18.02-.27.03-.15.01-.31.02-.46.03-.34.01-.67,0-1.01-.02-.15-.01-.31-.02-.46-.04-.05,0-.1-.01-.15-.02.12.02.15.02.07,0-.09-.01-.18-.03-.27-.04-.33-.06-.66-.13-.98-.22-.5-.14-1.11.17-1.23.7s.16,1.08.7,1.23h0Z"/>
        <path class="cls-1" d="M125.21,104.53c1.97.18,3.96.05,5.9-.35.51-.11.86-.74.7-1.23-.18-.54-.68-.81-1.23-.7-.23.05-.46.09-.7.13-.13.02-.25.04-.38.06-.03,0-.32.04-.17.02-.45.06-.9.1-1.36.12-.93.05-1.85.03-2.78-.05-.52-.05-1.02.49-1,1,.03.58.44.95,1,1h0Z"/>
        <path class="cls-1" d="M134.21,104.52c1.06,0,2.12,0,3.17.01.52,0,1.02-.46,1-1s-.44-1-1-1c-1.06,0-2.12,0-3.17-.01-.52,0-1.02.46-1,1s.44,1,1,1h0Z"/>
        <path class="cls-1" d="M140.91,103.37c1.63-.23,3.25-.45,4.88-.68.52-.07.85-.76.7-1.23-.18-.57-.67-.78-1.23-.7-1.63.23-3.25.45-4.88.68-.52.07-.85.76-.7,1.23.18.57.67.78,1.23.7h0Z"/>
      </g>
      <g>
        <path class="cls-1" d="M135.35,16.21c2.4,1.9,4.58,4.06,6.52,6.43.17.21.53.18.71,0,.21-.2.17-.5,0-.71-1.93-2.37-4.12-4.53-6.52-6.43-.21-.17-.5-.2-.71,0-.18.17-.21.54,0,.71h0Z"/>
        <path class="cls-1" d="M132.88,20.05c2.74,3.16,5.47,6.32,8.21,9.48.42.49,1.13-.22.71-.71-2.74-3.16-5.47-6.32-8.21-9.48-.42-.49-1.13.22-.71.71h0Z"/>
        <path class="cls-1" d="M128.33,26.68c4.77,5.15,9.53,10.29,14.3,15.44.44.47,1.14-.24.71-.71-4.77-5.15-9.53-10.29-14.3-15.44-.44-.47-1.14.24-.71.71h0Z"/>
        <path class="cls-1" d="M119.83,32c7.18,7.15,14.53,14.13,22.04,20.93.48.43,1.19-.27.71-.71-7.51-6.8-14.86-13.78-22.04-20.93-.46-.45-1.16.25-.71.71h0Z"/>
        <path class="cls-1" d="M114.79,39.86c3.93,3.67,7.86,7.34,11.79,11s7.73,7.1,11.49,10.75c1.99,1.93,3.87,3.98,5.38,6.32l.86-.5c-.21-.29-.41-.58-.62-.87-.37-.52-1.24-.02-.86.5.21.29.41.58.62.87.37.52,1.22.04.86-.5-2.7-4.18-6.52-7.47-10.14-10.84-3.99-3.72-7.98-7.45-11.97-11.17l-6.71-6.26c-.47-.44-1.18.27-.71.71h0Z"/>
        <path class="cls-1" d="M107.97,47.19c9.72,7.42,19.22,15.15,28.46,23.16,2.64,2.28,5.25,4.59,7.85,6.92.48.43,1.19-.28.71-.71-9.26-8.32-18.79-16.34-28.56-24.06-2.64-2.08-5.29-4.14-7.96-6.18-.51-.39-1.01.48-.5.86h0Z"/>
        <path class="cls-1" d="M99.25,53.4c4.54,5.58,10.27,9.97,15.97,14.28,6.4,4.84,12.8,9.68,19.2,14.53,3.64,2.75,7.27,5.5,10.91,8.25.51.39,1.01-.48.5-.86-6.41-4.85-12.83-9.71-19.24-14.56-3.17-2.4-6.35-4.8-9.52-7.2-2.9-2.2-5.82-4.38-8.61-6.72-3.07-2.57-5.98-5.32-8.5-8.43-.41-.5-1.11.21-.71.71h0Z"/>
        <path class="cls-1" d="M95.28,58.79c5.51,6.33,12.25,11.38,18.76,16.62,3.26,2.62,6.47,5.31,9.46,8.23s5.5,5.75,8.35,8.53c3.19,3.11,6.65,5.99,10.66,8,.57.29,1.08-.57.5-.86-7.17-3.6-12.31-9.86-17.87-15.44-5.89-5.91-12.66-10.81-19.05-16.14-3.58-2.98-7.04-6.13-10.11-9.65-.42-.49-1.13.22-.71.71h0Z"/>
        <path class="cls-1" d="M89.37,62.78c9.19,9.89,18.23,19.92,27.11,30.09,2.56,2.92,5.1,5.86,7.63,8.81.42.49,1.12-.22.71-.71-8.85-10.31-17.86-20.49-27.02-30.52-2.56-2.8-5.13-5.59-7.71-8.37-.44-.47-1.14.24-.71.71h0Z"/>
        <path class="cls-1" d="M82.77,66.24c7.65,9.24,15.14,18.6,22.5,28.07,2.06,2.65,4.12,5.31,6.17,7.97.39.5,1.26,0,.86-.5-7.47-9.7-15.01-19.35-22.74-28.84-2.02-2.47-4.05-4.94-6.08-7.4-.41-.5-1.11.21-.71.71h0Z"/>
        <path class="cls-1" d="M79.65,71.46c1.45,4.23,4.14,7.85,6.67,11.48,2.83,4.05,5.66,8.1,8.48,12.16,1.62,2.32,3.23,4.63,4.85,6.95.37.52,1.23.02.86-.5-2.8-4.02-5.61-8.04-8.41-12.05s-5.48-7.67-8.06-11.62c-1.37-2.1-2.62-4.29-3.43-6.67-.21-.61-1.17-.35-.96.27h0Z"/>
        <path class="cls-1" d="M73.98,75.03c5.28,9.06,10.57,18.13,15.85,27.19.32.56,1.19.05.86-.5-5.28-9.06-10.57-18.13-15.85-27.19-.32-.56-1.19-.05-.86.5h0Z"/>
        <path class="cls-1" d="M66.38,79.51c2.66,3.13,4.91,6.59,6.68,10.3.89,1.86,1.6,3.78,2.29,5.72s1.78,3.79,2.61,5.72c.25.59,1.11.08.86-.5-.87-2.02-1.98-3.92-2.69-6.01-.65-1.92-1.42-3.8-2.3-5.63-1.8-3.71-4.07-7.17-6.74-10.31-.42-.49-1.12.22-.71.71h0Z"/>
        <path class="cls-1" d="M59.38,84.71c3.99,6.01,7.98,12.02,11.98,18.03.35.53,1.22.03.86-.5-3.99-6.01-7.98-12.02-11.98-18.03-.35-.53-1.22-.03-.86.5h0Z"/>
        <path class="cls-1" d="M52.32,88.55c2.42,4.45,5.25,8.65,8.44,12.58.36.45,1.07-.13.79-.61-.16-.27-.32-.54-.47-.81-.33-.55-1.19-.05-.86.5.16.27.32.54.47.81l.79-.61c-3.14-3.86-5.91-8.01-8.28-12.37-.31-.57-1.17-.06-.86.5h0Z"/>
        <path class="cls-1" d="M45.92,92.6c2.35,3.36,4.58,6.8,6.71,10.3.33.55,1.2.05.86-.5-2.12-3.51-4.36-6.94-6.71-10.3-.37-.52-1.23-.02-.86.5h0Z"/>
      </g>
    </g>
    <g>
      <path class="cls-2" d="M245.56,75.34c-.13.35-.18.75-.15,1.12.01.13.05.26.15.35.09.09.23.15.35.15s.26-.05.35-.15.16-.22.15-.35c-.01-.17,0-.34.01-.51l-.02.13c.02-.16.06-.32.12-.48.04-.12.01-.28-.05-.39s-.18-.2-.3-.23c-.13-.03-.27-.02-.39.05s-.18.17-.23.3h0Z"/>
      <path class="cls-2" d="M245.48,78l-.15,1.55c-.01.12.06.27.15.35.09.09.23.15.35.15s.26-.05.35-.15c.09-.1.13-.21.15-.35l.15-1.55c.01-.12-.06-.27-.15-.35-.09-.09-.23-.15-.35-.15s-.26.05-.35.15c-.09.1-.13.21-.15.35h0Z"/>
      <path class="cls-2" d="M245.19,81.24c-.07.37-.1.75-.06,1.12,0,.07.01.13.04.19.02.06.05.12.1.16.09.09.23.15.35.15s.26-.05.35-.15c.08-.09.16-.22.15-.35-.03-.27-.03-.53,0-.8l-.02.13c0-.06.02-.13.03-.19.03-.13.02-.26-.05-.39-.06-.1-.18-.2-.3-.23-.13-.03-.27-.02-.39.05-.1.07-.21.17-.23.3h0Z"/>
      <path class="cls-2" d="M245,83.97h0s-.01-.08-.02-.12c.02.17.02.34,0,.51l.02-.13c0,.06-.02.12-.03.19-.03.13-.02.27.05.39.03.06.07.11.13.14.05.04.1.07.17.09.13.03.27.02.39-.05.11-.07.2-.17.23-.3.04-.16.06-.32.07-.49s-.01-.33-.04-.49c-.02-.07-.05-.12-.09-.17-.04-.05-.08-.1-.14-.13-.06-.04-.12-.06-.19-.06-.07-.01-.13-.01-.2,0-.12.04-.24.11-.3.23l-.05.12c-.02.09-.02.18,0,.27h0Z"/>
      <path class="cls-2" d="M244.06,84.65c-.66-.2-1.34-.22-2.02-.11-.12.02-.24.13-.3.23-.06.11-.09.27-.05.39s.11.24.23.3c.13.07.25.07.39.05.04,0,.09-.01.13-.02l-.13.02c.34-.04.68-.04,1.02,0l-.13-.02c.21.03.41.07.61.13.25.07.56-.09.62-.35s-.08-.53-.35-.62h0Z"/>
      <path class="cls-2" d="M240.89,84.75c-.2-.12-.45-.17-.68-.15-.21.02-.41.07-.61.09l.13-.02c-.09.01-.18.01-.27,0l.13.02c-.07-.01-.13-.03-.2-.05l.12.05s-.05-.02-.07-.03c-.09-.05.06.06.03.03-.01-.02-.03-.03-.04-.05.1.1.06.08.03.02l.05.12s-.02-.06-.03-.09c-.02-.12-.13-.24-.23-.3-.11-.06-.27-.09-.39-.05s-.24.11-.3.23c-.07.13-.08.25-.05.39.06.36.4.62.74.69.14.03.3.05.44.03.19-.02.37-.06.55-.09l-.13.02c.1-.01.19-.02.29,0l-.13-.02c.05,0,.1.02.15.04l-.12-.05s.05.02.07.04c.23.13.56.06.68-.18s.06-.54-.18-.68h0Z"/>
      <path class="cls-2" d="M237.53,84.77l-1.48-.14c-.12-.01-.27.06-.35.15-.09.09-.15.23-.15.35s.05.26.15.35.21.13.35.15l1.48.14c.12.01.27-.06.35-.15.09-.09.15-.23.15-.35s-.05-.26-.15-.35-.21-.13-.35-.15h0Z"/>
      <path class="cls-2" d="M206.98,86.46c.77-.03,1.55,0,2.32.07.26.03.51-.25.5-.5-.01-.29-.22-.47-.5-.5-.77-.08-1.55-.11-2.32-.07-.26.01-.51.22-.5.5.01.26.22.51.5.5h0Z"/>
      <path class="cls-2" d="M211.13,86.52c.82-.03,1.65-.09,2.47-.18.26-.03.51-.21.5-.5-.01-.25-.22-.53-.5-.5-.82.09-1.64.15-2.47.18-.26,0-.51.22-.5.5.01.26.22.51.5.5h0Z"/>
      <path class="cls-2" d="M216.4,86.54c.21-.05.42-.09.63-.12,0,0,.16-.02.06,0,.05,0,.1-.01.15-.02.11-.01.21-.02.32-.03.42-.03.83-.03,1.25,0,.26.02.51-.24.5-.5-.01-.29-.22-.48-.5-.5-.89-.06-1.79.02-2.67.21-.26.06-.43.37-.35.62.09.27.34.41.62.35h0Z"/>
      <path class="cls-2" d="M220.99,86.2l2.26-.16c.26-.02.51-.22.5-.5-.01-.26-.22-.52-.5-.5l-2.26.16c-.26.02-.51.22-.5.5.01.26.22.52.5.5h0Z"/>
      <path class="cls-2" d="M226.41,85.95c.52.01,1.04.03,1.56.03.46,0,.99-.12,1.22-.57.12-.23.07-.55-.18-.68-.23-.12-.56-.07-.68.18,0,.02-.02.04-.03.05.05-.06.06-.07.03-.03-.06.06.11-.06-.01,0-.02,0-.03.02-.05.03.07-.03.09-.04.05-.02-.03,0-.07.02-.1.03-.02,0-.04,0-.06.01.08,0,.09-.01.04,0-.04,0-.08,0-.13,0-.08,0-.17,0-.25,0l-1.41-.03c-.26,0-.51.23-.5.5s.22.49.5.5h0Z"/>
      <path class="cls-2" d="M231.47,85.64c.37-.02.74-.02,1.11.01.09,0,.17.02.26.03.03,0,.06,0,.08.01-.06,0-.06,0-.03,0,.05,0,.1.01.15.02.18.03.36.07.55.11.25.06.55-.08.62-.35s-.08-.55-.35-.62c-.78-.19-1.59-.26-2.38-.21-.26.02-.51.22-.5.5.01.26.22.52.5.5h0Z"/>
      <path class="cls-2" d="M207.2,85.5c.8.12,1.61.09,2.39-.13.25-.07.43-.36.35-.62s-.35-.43-.62-.35c-.17.05-.33.09-.5.12-.04,0-.08.01-.12.02-.06,0-.05,0,.01,0-.02,0-.04,0-.06,0-.09,0-.17.02-.26.02-.17.01-.34.01-.52,0-.08,0-.16,0-.24-.02-.04,0-.08,0-.12-.01-.06,0-.05,0,.01,0-.03,0-.05,0-.08-.01-.14-.02-.26-.02-.39.05-.1.06-.2.18-.23.3-.05.24.07.57.35.62h0Z"/>
      <path class="cls-2" d="M212.25,85.2c.05,0,.1-.02.15-.02.04,0,.03,0-.02,0,.02,0,.04,0,.07,0,.1-.01.19-.02.29-.03.19-.02.37-.03.56-.03.38,0,.76.01,1.14.06.26.03.51-.25.5-.5-.01-.3-.22-.47-.5-.5-.82-.1-1.64-.06-2.45.07-.26.04-.43.38-.35.62.09.28.34.39.62.35h0Z"/>
      <path class="cls-2" d="M220.77,84.83c.73-.3,1.48-.52,2.26-.66.26-.05.43-.37.35-.62-.09-.28-.34-.4-.62-.35-.77.14-1.53.36-2.26.66-.13.05-.23.11-.3.23-.06.11-.09.27-.05.39.08.23.36.46.62.35h0Z"/>
      <path class="cls-2" d="M225.62,83.18c.98-.18,1.94-.44,2.87-.79.24-.09.44-.34.35-.62-.08-.24-.35-.45-.62-.35-.93.35-1.89.62-2.87.79-.26.05-.43.37-.35.62.09.28.34.4.62.35h0Z"/>
      <path class="cls-2" d="M230,82.11c1.02-.1,2-.44,2.83-1.05.21-.15.34-.44.18-.68-.13-.21-.46-.34-.68-.18-.18.13-.36.25-.56.36-.1.06-.21.11-.32.16-.02,0-.19.08-.08.04-.05.02-.1.04-.14.06-.21.08-.42.14-.63.2-.11.03-.22.05-.33.07-.02,0-.21.03-.09.01-.06,0-.12.01-.18.02-.26.02-.51.21-.5.5.01.25.22.53.5.5h0Z"/>
      <path class="cls-2" d="M234.92,80.52c.88-.11,1.73-.38,2.49-.84.22-.14.33-.45.18-.68s-.44-.32-.68-.18c-.17.1-.35.2-.53.28-.04.02-.07.03-.11.05-.02.01-.05.02-.07.03.06-.02.06-.03,0,0-.09.03-.17.07-.26.1-.18.06-.35.11-.54.16-.09.02-.18.04-.27.06-.05,0-.1.02-.16.03-.03,0-.05,0-.08.01.07,0,.07,0,.01,0-.14.02-.25.04-.35.15-.09.09-.15.23-.15.35.01.24.22.53.5.5h0Z"/>
      <path class="cls-2" d="M238.94,78.92c.77-.09,1.51-.34,2.15-.78.21-.15.33-.44.18-.68-.14-.21-.45-.34-.68-.18-.14.09-.28.18-.42.26-.08.04-.16.08-.24.12h-.03s-.04.03.03,0c-.02.02-.09.04-.12.05-.15.06-.31.11-.47.15-.07.02-.15.03-.23.05-.04,0-.09.01-.13.02-.06,0-.04,0,.03,0-.02,0-.04,0-.07,0-.14.02-.25.05-.35.15-.09.09-.15.23-.15.35.01.25.22.53.5.5h0Z"/>
      <path class="cls-2" d="M242.86,77.39l1.67-.81c.24-.11.32-.47.18-.68-.16-.24-.43-.3-.68-.18l-1.67.81c-.24.11-.32.47-.18.68.16.24.43.3.68.18h0Z"/>
      <path class="cls-2" d="M216.7,84.89c.57.04,1.15-.02,1.69-.18.25-.07.43-.36.35-.62s-.35-.43-.62-.35c-.21.06-.43.11-.66.14l.13-.02c-.3.04-.6.05-.9.03-.26-.02-.51.24-.5.5.01.29.22.48.5.5h0Z"/>
      <path class="cls-2" d="M243.05,77.49c.43.82.98,1.57,1.6,2.25.18.19.53.19.71,0,.19-.21.19-.5,0-.71-.15-.16-.29-.32-.43-.49-.03-.04-.06-.08-.1-.12-.04-.05-.02-.02,0,.01-.02-.02-.04-.05-.06-.08-.07-.09-.13-.17-.19-.26-.25-.36-.48-.73-.68-1.11-.12-.23-.46-.32-.68-.18-.23.15-.31.44-.18.68h0Z"/>
      <path class="cls-2" d="M241.35,78.7l2.18,3.83c.32.56,1.18.06.86-.5l-2.18-3.83c-.32-.56-1.18-.06-.86.5h0Z"/>
      <path class="cls-2" d="M239.46,79.46c.73,1.62,1.46,3.23,2.19,4.85.11.25.47.31.68.18.25-.15.29-.44.18-.68l-2.19-4.85c-.11-.25-.47-.31-.68-.18-.25.15-.29.44-.18.68h0Z"/>
      <path class="cls-2" d="M236.63,80.73s.05.06.08.09c.05.07-.06-.09.02.03.04.06.08.12.12.18.08.12.14.25.2.38.02.04.03.07.05.11.04.08,0-.01.02.04.03.07.06.14.08.21.06.15.11.29.16.44.23.63.48,1.24.91,1.76.17.21.53.18.71,0,.21-.21.17-.5,0-.71-.05-.07,0,0-.03-.03-.02-.03-.05-.07-.07-.1-.04-.06-.08-.12-.11-.18-.07-.13-.14-.26-.2-.39-.02-.04-.03-.07-.05-.11.03.06,0-.01-.02-.04-.03-.07-.05-.14-.08-.21-.06-.15-.11-.29-.16-.44-.23-.63-.49-1.23-.93-1.74-.18-.2-.53-.18-.71,0-.2.2-.18.5,0,.71h0Z"/>
      <path class="cls-2" d="M233.65,80.85c.55,1.25,1.14,2.48,1.77,3.69.11.22.41.3.62.2.25-.11.33-.34.29-.59-.04-.29-.09-.58-.13-.87-.04-.27-.38-.41-.62-.35-.29.08-.39.35-.35.62.04.29.09.58.13.87l.91-.39c-.63-1.21-1.22-2.44-1.77-3.69-.11-.25-.47-.3-.68-.18-.25.15-.29.44-.18.68h0Z"/>
      <path class="cls-2" d="M230.98,82.22c.21.97.67,1.87,1.32,2.63.17.2.53.19.71,0,.2-.21.18-.49,0-.71-.04-.04-.07-.08-.1-.12-.02-.02-.03-.04-.05-.06.03.03.04.05,0,0-.06-.09-.13-.17-.19-.27-.12-.19-.23-.38-.33-.58-.02-.05-.05-.1-.07-.15-.01-.02-.02-.05-.03-.07,0-.01-.04-.09-.01-.03s0-.02-.01-.03c0-.03-.02-.05-.03-.08-.02-.05-.04-.1-.06-.15-.07-.21-.13-.43-.18-.64-.06-.26-.37-.43-.62-.35-.27.09-.41.34-.35.62h0Z"/>
      <path class="cls-2" d="M228.59,82.47c.47.77.99,1.51,1.54,2.22.07.09.24.15.35.15.12,0,.27-.05.35-.15s.15-.22.15-.35c0-.14-.06-.24-.15-.35-.01-.02-.12-.15-.04-.06-.03-.04-.06-.08-.1-.13-.06-.08-.13-.17-.19-.25-.13-.17-.25-.34-.37-.52-.24-.35-.47-.7-.69-1.07-.14-.22-.45-.33-.68-.18s-.32.44-.18.68h0Z"/>
      <path class="cls-2" d="M226.28,83.76c.14.66.49,1.29.99,1.75.19.18.52.2.71,0,.18-.19.21-.52,0-.71-.12-.11-.22-.22-.32-.35l.08.1c-.15-.2-.28-.41-.38-.64l.05.12c-.07-.18-.13-.36-.17-.54-.05-.26-.37-.43-.62-.35-.27.09-.41.34-.35.62h0Z"/>
      <path class="cls-2" d="M223.61,83.55c.1.31.24.62.43.89.22.3.47.55.77.77.1.07.27.08.39.05s.24-.12.3-.23c.06-.12.09-.26.05-.39s-.12-.22-.23-.3c-.02-.02-.05-.03-.07-.05l.1.08c-.18-.14-.33-.29-.47-.47l.08.1c-.14-.18-.25-.37-.34-.57l.05.12c-.04-.09-.07-.17-.1-.26-.04-.12-.12-.23-.23-.3s-.27-.09-.39-.05c-.25.08-.43.35-.35.62h0Z"/>
    </g>
    <g>
      <g>
        <path class="cls-1" d="M395.75,95.1c-.05-.09-.09-.18-.13-.28l.1.24c-.12-.29-.2-.59-.25-.89l.04.27c-.04-.31-.04-.62,0-.93l-.04.27c0-.05.02-.1.02-.15.05-.27.04-.53-.1-.77-.12-.21-.36-.41-.6-.46-.26-.06-.54-.05-.77.1-.21.13-.41.34-.46.6-.05.28-.09.56-.09.84s.03.55.07.83c.07.47.25.93.47,1.35.12.22.36.4.6.46s.56.04.77-.1c.47-.3.62-.87.36-1.37h0Z"/>
        <path class="cls-1" d="M395.15,89.59c.04-.85-.11-1.73-.44-2.51-.03-.13-.09-.24-.18-.34-.07-.11-.16-.19-.28-.26-.21-.13-.53-.18-.77-.1s-.48.23-.6.46-.2.53-.1.77c.18.42.3.85.36,1.3l-.04-.27c.04.31.06.63.04.94-.02.52.48,1.02,1,1,.56-.03.98-.44,1-1h0Z"/>
        <path class="cls-1" d="M394.45,83.58l-.48-3.74c-.04-.28-.09-.5-.29-.71-.17-.17-.46-.3-.71-.29s-.53.1-.71.29c-.17.18-.33.45-.29.71l.48,3.74c.04.28.09.5.29.71.17.17.46.3.71.29s.53-.1.71-.29c.17-.18.33-.45.29-.71h0Z"/>
        <path class="cls-1" d="M394.32,74.84c.23-1.57.18-3.14-.2-4.69-.12-.51-.73-.86-1.23-.7s-.83.69-.7,1.23c.08.33.15.67.2,1.01.04.26-.02-.22,0,.05,0,.08.02.16.03.24.02.17.03.34.04.51.02.33.02.66,0,.99,0,.16-.02.32-.03.47,0,.08-.01.16-.02.24,0,.05-.01.1-.02.16.02-.14.02-.15,0-.03-.04.28-.05.52.1.77.12.21.36.41.6.46.47.11,1.15-.14,1.23-.7h0Z"/>
        <path class="cls-1" d="M394.01,66.32v-3.38c0-.52-.46-1.02-1-1s-1,.44-1,1v3.38c0,.52.46,1.02,1,1s1-.44,1-1h0Z"/>
        <path class="cls-1" d="M393.69,58.83c-.12-1.65-.24-3.29-.37-4.94-.04-.52-.43-1.03-1-1-.51.02-1.04.44-1,1,.12,1.65.24,3.29.37,4.94.04.52.43,1.03,1,1,.51-.02,1.04-.44,1-1h0Z"/>
        <path class="cls-1" d="M392.92,49.89c-.35-1.74-.49-3.48-.42-5.35.02-.52-.47-1.02-1-1-.56.03-.98.44-1,1-.07,1.97.1,3.95.49,5.88.1.51.74.86,1.23.7.55-.18.81-.68.7-1.23h0Z"/>
        <path class="cls-1" d="M392.47,39.66c.2-1.98.11-3.96-.21-5.92-.08-.52-.75-.85-1.23-.7-.56.18-.79.68-.7,1.23.08.48.11.72.16,1.25.04.45.07.91.08,1.36.03.93,0,1.85-.1,2.78-.05.52.5,1.02,1,1,.59-.03.94-.44,1-1h0Z"/>
        <path class="cls-1" d="M392.14,28.02c.08-1.6-.09-3.21-.48-4.76-.13-.51-.72-.86-1.23-.7s-.83.69-.7,1.23c.09.36.17.72.23,1.09.01.08.03.17.04.25,0,.03.05.34.03.21s.02.18.02.21c0,.08.02.17.03.25.07.74.08,1.48.05,2.22-.03.52.48,1.02,1,1,.56-.03.97-.44,1-1h0Z"/>
        <path class="cls-1" d="M391.01,19.01v-4.5c0-.52-.46-1.02-1-1s-1,.44-1,1v4.5c0,.52.46,1.02,1,1s1-.44,1-1h0Z"/>
        <path class="cls-1" d="M390.29,8.22l-.78-3c-.13-.51-.72-.86-1.23-.7s-.84.69-.7,1.23l.78,3c.13.51.72.86,1.23.7s.84-.69.7-1.23h0Z"/>
        <path class="cls-1" d="M389.38,3.12s-.04-.09-.06-.13l.1.24c-.16-.38-.26-.77-.32-1.18l.04.27c-.05-.41-.05-.82,0-1.22l-.04.27s0-.06.01-.09c.04-.28.05-.52-.1-.77-.12-.21-.36-.41-.6-.46-.26-.06-.54-.05-.77.1-.2.13-.42.35-.46.6-.04.31-.09.61-.09.92s.03.62.08.92c.08.54.25,1.05.48,1.55.1.21.38.4.6.46.24.07.56.04.77-.1s.4-.34.46-.6l.04-.27c0-.18-.05-.35-.14-.5h0Z"/>
        <path class="cls-1" d="M384.65,4.63c-.63,1.11-1.26,2.22-1.9,3.33-.15.26-.3.52-.44.78-.26.45-.12,1.11.36,1.37s1.09.13,1.37-.36c.61-1.07,1.22-2.14,1.83-3.21.17-.3.34-.6.51-.9.26-.45.12-1.11-.36-1.37s-1.09-.13-1.37.36h0Z"/>
        <path class="cls-1" d="M379.74,11.6c-.04.11-.09.23-.13.34l.1-.24c-.27.64-.63,1.24-1.05,1.8l.16-.2c-.28.36-.59.69-.92.99-.39.35-.39,1.06,0,1.41.41.38,1,.38,1.41,0,1.07-.98,1.86-2.21,2.36-3.57.09-.23.02-.56-.1-.77s-.36-.41-.6-.46c-.26-.06-.54-.05-.77.1s-.37.34-.46.6h0Z"/>
        <path class="cls-1" d="M374.96,17.36c-.21.36-.43.7-.67,1.04-.12.17-.23.37-.38.51.07-.07.1-.13.01-.02-.03.03-.06.07-.08.1-.07.09-.14.17-.21.26-.54.64-1.13,1.23-1.77,1.78-.4.34-.38,1.07,0,1.41.43.39.99.36,1.41,0,1.35-1.15,2.51-2.55,3.41-4.08.27-.45.12-1.12-.36-1.37s-1.08-.12-1.37.36h0Z"/>
        <path class="cls-1" d="M369.04,23.41l-3.4,4.87c-.3.43-.09,1.13.36,1.37.51.27,1.05.1,1.37-.36l3.4-4.87c.3-.43.09-1.13-.36-1.37-.51-.27-1.05-.1-1.37.36h0Z"/>
        <path class="cls-1" d="M362.86,31.42c-1.14.86-2.28,1.71-3.43,2.57-.22.16-.38.33-.46.6-.07.24-.04.56.1.77s.34.4.6.46.56.06.77-.1c1.14-.86,2.28-1.71,3.43-2.57.22-.16.38-.33.46-.6.07-.24.04-.56-.1-.77s-.34-.4-.6-.46-.56-.06-.77.1h0Z"/>
        <path class="cls-1" d="M356.19,37.03l-2.96,3.27c-.35.39-.41,1.04,0,1.41.38.35,1.04.41,1.41,0l2.96-3.27c.35-.39.41-1.04,0-1.41-.38-.35-1.04-.41-1.41,0h0Z"/>
        <path class="cls-1" d="M350.06,42.32c-.92.82-1.84,1.64-2.76,2.46-.39.35-.38,1.06,0,1.41.42.38,1,.37,1.41,0,.92-.82,1.84-1.64,2.76-2.46.39-.35.38-1.06,0-1.41-.42-.38-1-.37-1.41,0h0Z"/>
        <path class="cls-1" d="M344.11,48.61c-1.54.89-2.93,2.06-4.06,3.43-.17.21-.29.43-.29.71,0,.25.11.54.29.71.37.34,1.06.43,1.41,0,.53-.64,1.12-1.24,1.76-1.79.15-.13.31-.24.46-.38-.18.17-.07.05-.02.02.04-.03.09-.07.13-.1.08-.06.16-.12.24-.17.35-.25.71-.48,1.08-.69.45-.26.65-.91.36-1.37s-.88-.64-1.37-.36h0Z"/>
        <path class="cls-1" d="M337.07,53.67c-1.04.72-2.08,1.45-3.12,2.17-.22.15-.39.34-.46.6-.07.24-.04.56.1.77.27.43.91.68,1.37.36,1.04-.72,2.08-1.45,3.12-2.17.22-.15.39-.34.46-.6.07-.24.04-.56-.1-.77-.27-.43-.91-.68-1.37-.36h0Z"/>
        <path class="cls-1" d="M328.5,59.62l-2.96,2.3c-.19.15-.29.48-.29.71,0,.25.11.54.29.71s.44.3.71.29l.27-.04c.17-.05.32-.13.44-.26l2.96-2.3c.19-.15.29-.48.29-.71,0-.25-.11-.54-.29-.71s-.44-.3-.71-.29l-.27.04c-.17.05-.32.13-.44.26h0Z"/>
        <path class="cls-1" d="M321.17,65.82l-3.74,2.27c-.45.27-.65.91-.36,1.37s.89.65,1.37.36l3.74-2.27c.45-.27.65-.91.36-1.37s-.89-.65-1.37-.36h0Z"/>
        <path class="cls-1" d="M313.66,70.31c-1.26.73-2.53,1.46-3.79,2.19-.45.26-.65.92-.36,1.37s.88.64,1.37.36l3.79-2.19c.45-.26.65-.92.36-1.37s-.88-.64-1.37-.36h0Z"/>
        <path class="cls-1" d="M304.84,76.63c-.91.86-1.82,1.72-2.73,2.58-.38.36-.39,1.06,0,1.41s1.01.38,1.41,0c.91-.86,1.82-1.72,2.73-2.58.38-.36.39-1.06,0-1.41s-1.01-.38-1.41,0h0Z"/>
        <path class="cls-1" d="M297.53,81.6c-1.01.68-2.03,1.35-3.04,2.03-.23.15-.46.31-.69.46-.43.29-.66.9-.36,1.37.28.43.9.67,1.37.36.95-.63,1.9-1.27,2.86-1.9.29-.19.58-.39.88-.58.43-.29.66-.9.36-1.37-.28-.43-.9-.67-1.37-.36h0Z"/>
        <path class="cls-1" d="M290.39,86.09l-3.01,1.48c-.22.11-.4.37-.46.6-.07.24-.04.56.1.77.31.48.86.61,1.37.36l3.01-1.48c.22-.11.4-.37.46-.6.07-.24.04-.56-.1-.77-.31-.48-.86-.61-1.37-.36h0Z"/>
        <path class="cls-1" d="M286.52,90.72v1.5c0,.26.11.53.29.71s.46.3.71.29.53-.1.71-.29.29-.44.29-.71v-1.5c0-.26-.11-.53-.29-.71s-.46-.3-.71-.29-.53.1-.71.29-.29.44-.29.71h0Z"/>
        <path class="cls-1" d="M286.74,95.19c-.22.63-.37,1.33-.2,1.99.12.48.46.88.94,1.02.09.03.21.04.3.04.01,0,.03,0,.04,0,.1,0,.21-.02.3-.04.02,0,.03,0,.05-.01.1-.03.22-.08.31-.14.08-.05.16-.12.23-.18.01-.01.03-.02.04-.04.16-.17.31-.4.36-.63.02-.1.04-.21.04-.31,0-.02,0-.04,0-.07,0-.13-.02-.28-.07-.41-.03-.13-.09-.24-.18-.34-.07-.11-.16-.19-.28-.26-.21-.13-.53-.18-.77-.1s-.48.23-.6.46-.19.52-.1.77c.01.04.02.07.03.11l-.04-.27s0,.08,0,.12l.04-.27s-.02.07-.03.11l.1-.24s-.03.06-.05.09l.16-.2s-.04.05-.07.07l.2-.16s-.05.04-.08.05l.24-.1s-.05.02-.08.02l.27-.04s-.05,0-.08,0l.27.04s-.04,0-.06-.02l.24.1s-.04-.02-.06-.03l.2.16s-.04-.03-.05-.05l.16.2s-.04-.06-.05-.09l.1.24c-.04-.09-.06-.18-.07-.28l.04.27c-.02-.16-.01-.31,0-.47l-.04.27c.04-.29.13-.57.22-.84.04-.13.05-.27.02-.4,0-.13-.05-.26-.12-.37-.12-.21-.36-.41-.6-.46-.26-.06-.54-.05-.77.1l-.2.16c-.12.12-.21.27-.26.44h0Z"/>
        <path class="cls-1" d="M293.24,97.33h3.99c.52,0,1.02-.46,1-1s-.44-1-1-1h-3.99c-.52,0-1.02.46-1,1s.44,1,1,1h0Z"/>
        <path class="cls-1" d="M300.65,97.94l4.53-.46c.52-.05,1.03-.42,1-1-.02-.5-.44-1.06-1-1l-4.53.46c-.52.05-1.03.42-1,1,.02.5.44,1.06,1,1h0Z"/>
        <path class="cls-1" d="M310.05,97.73c1.75,0,3.5,0,5.26,0,.52,0,1.02-.46,1-1s-.44-1-1-1c-1.75,0-3.5,0-5.26,0-.52,0-1.02.46-1,1s.44,1,1,1h0Z"/>
        <path class="cls-1" d="M320.43,97.48h4.5c.52,0,1.02-.46,1-1s-.44-1-1-1h-4.5c-.52,0-1.02.46-1,1s.44,1,1,1h0Z"/>
        <path class="cls-1" d="M328.07,97.97c1.38,0,2.75,0,4.13,0,.52,0,1.02-.46,1-1s-.44-1-1-1c-1.38,0-2.75,0-4.13,0-.52,0-1.02.46-1,1s.44,1,1,1h0Z"/>
        <path class="cls-1" d="M335.32,97.65c2.44.46,4.92.62,7.39.43.54-.04,1-.43,1-1,0-.51-.46-1.04-1-1-2.29.17-4.6.07-6.86-.36-.53-.1-1.08.15-1.23.7-.13.49.17,1.13.7,1.23h0Z"/>
        <path class="cls-1" d="M348.64,99.19c.34-.11.69-.19,1.04-.26.11-.02.22-.04.33-.06.22-.04-.18.02.06,0,.18-.02.36-.04.54-.05.36-.02.72-.03,1.07,0,.18,0,.36.02.54.04.05,0,.11.01.16.02h-.1c.11,0,.22.02.33.04.51.09,1.1-.14,1.23-.7.11-.48-.15-1.14-.7-1.23-1.68-.29-3.39-.21-5.03.29-.5.15-.87.71-.7,1.23s.69.86,1.23.7h0Z"/>
        <path class="cls-1" d="M358.1,98.85h3.38c.52,0,1.02-.46,1-1s-.44-1-1-1h-3.38c-.52,0-1.02.46-1,1s.44,1,1,1h0Z"/>
        <path class="cls-1" d="M364.2,98.52c1.54.42,3.11.49,4.68.27.23-.03.49-.27.6-.46.13-.21.18-.53.1-.77s-.23-.48-.46-.6c-.25-.13-.49-.14-.77-.1.27-.04-.02,0-.08,0-.09,0-.18.02-.27.03-.15.01-.31.02-.46.03-.34.01-.67,0-1.01-.02-.15-.01-.31-.02-.46-.04-.05,0-.1-.01-.15-.02.12.02.15.02.07,0-.09-.01-.18-.03-.27-.04-.33-.06-.66-.13-.98-.22-.5-.14-1.11.17-1.23.7s.16,1.08.7,1.23h0Z"/>
        <path class="cls-1" d="M373.12,98.33c1.97.18,3.96.05,5.9-.35.51-.11.86-.74.7-1.23-.18-.54-.68-.81-1.23-.7-.23.05-.46.09-.7.13-.13.02-.25.04-.38.06-.03,0-.32.04-.17.02-.45.06-.9.1-1.36.12-.93.05-1.85.03-2.78-.05-.52-.05-1.02.49-1,1,.03.58.44.95,1,1h0Z"/>
        <path class="cls-1" d="M382.12,98.32c1.06,0,2.12,0,3.17.01.52,0,1.02-.46,1-1s-.44-1-1-1c-1.06,0-2.12,0-3.17-.01-.52,0-1.02.46-1,1s.44,1,1,1h0Z"/>
        <path class="cls-1" d="M388.82,97.18c1.63-.23,3.25-.45,4.88-.68.52-.07.85-.76.7-1.23-.18-.57-.67-.78-1.23-.7-1.63.23-3.25.45-4.88.68-.52.07-.85.76-.7,1.23.18.57.67.78,1.23.7h0Z"/>
      </g>
      <g>
        <path class="cls-1" d="M383.26,10.01c2.4,1.9,4.58,4.06,6.52,6.43.17.21.53.18.71,0,.21-.2.17-.5,0-.71-1.93-2.37-4.12-4.53-6.52-6.43-.21-.17-.5-.2-.71,0-.18.17-.21.54,0,.71h0Z"/>
        <path class="cls-1" d="M380.79,13.85c2.74,3.16,5.47,6.32,8.21,9.48.42.49,1.13-.22.71-.71-2.74-3.16-5.47-6.32-8.21-9.48-.42-.49-1.13.22-.71.71h0Z"/>
        <path class="cls-1" d="M376.23,20.48c4.77,5.15,9.53,10.29,14.3,15.44.44.47,1.14-.24.71-.71-4.77-5.15-9.53-10.29-14.3-15.44-.44-.47-1.14.24-.71.71h0Z"/>
        <path class="cls-1" d="M367.74,25.8c7.18,7.15,14.53,14.13,22.04,20.93.48.43,1.19-.27.71-.71-7.51-6.8-14.86-13.78-22.04-20.93-.46-.45-1.16.25-.71.71h0Z"/>
        <path class="cls-1" d="M362.7,33.66c3.93,3.67,7.86,7.34,11.79,11s7.73,7.1,11.49,10.75c1.99,1.93,3.87,3.98,5.38,6.32l.86-.5c-.21-.29-.41-.58-.62-.87-.37-.52-1.24-.02-.86.5.21.29.41.58.62.87.37.52,1.22.04.86-.5-2.7-4.18-6.52-7.47-10.14-10.84-3.99-3.72-7.98-7.45-11.97-11.17l-6.71-6.26c-.47-.44-1.18.27-.71.71h0Z"/>
        <path class="cls-1" d="M355.87,40.99c9.72,7.42,19.22,15.15,28.46,23.16,2.64,2.28,5.25,4.59,7.85,6.92.48.43,1.19-.28.71-.71-9.26-8.32-18.79-16.34-28.56-24.06-2.64-2.08-5.29-4.14-7.96-6.18-.51-.39-1.01.48-.5.86h0Z"/>
        <path class="cls-1" d="M347.16,47.2c4.54,5.58,10.27,9.97,15.97,14.28,6.4,4.84,12.8,9.68,19.2,14.53,3.64,2.75,7.27,5.5,10.91,8.25.51.39,1.01-.48.5-.86-6.41-4.85-12.83-9.71-19.24-14.56-3.17-2.4-6.35-4.8-9.52-7.2-2.9-2.2-5.82-4.38-8.61-6.72-3.07-2.57-5.98-5.32-8.5-8.43-.41-.5-1.11.21-.71.71h0Z"/>
        <path class="cls-1" d="M343.19,52.59c5.51,6.33,12.25,11.38,18.76,16.62,3.26,2.62,6.47,5.31,9.46,8.23s5.5,5.75,8.35,8.53c3.19,3.11,6.65,5.99,10.66,8,.57.29,1.08-.57.5-.86-7.17-3.6-12.31-9.86-17.87-15.44-5.89-5.91-12.66-10.81-19.05-16.14-3.58-2.98-7.04-6.13-10.11-9.65-.42-.49-1.13.22-.71.71h0Z"/>
        <path class="cls-1" d="M337.27,56.58c9.19,9.89,18.23,19.92,27.11,30.09,2.56,2.92,5.1,5.86,7.63,8.81.42.49,1.12-.22.71-.71-8.85-10.31-17.86-20.49-27.02-30.52-2.56-2.8-5.13-5.59-7.71-8.37-.44-.47-1.14.24-.71.71h0Z"/>
        <path class="cls-1" d="M330.67,60.04c7.65,9.24,15.14,18.6,22.5,28.07,2.06,2.65,4.12,5.31,6.17,7.97.39.5,1.26,0,.86-.5-7.47-9.7-15.01-19.35-22.74-28.84-2.02-2.47-4.05-4.94-6.08-7.4-.41-.5-1.11.21-.71.71h0Z"/>
        <path class="cls-1" d="M327.55,65.26c1.45,4.23,4.14,7.85,6.67,11.48,2.83,4.05,5.66,8.1,8.48,12.16,1.62,2.32,3.23,4.63,4.85,6.95.37.52,1.23.02.86-.5-2.8-4.02-5.61-8.04-8.41-12.05s-5.48-7.67-8.06-11.62c-1.37-2.1-2.62-4.29-3.43-6.67-.21-.61-1.17-.35-.96.27h0Z"/>
        <path class="cls-1" d="M321.89,68.83c5.28,9.06,10.57,18.13,15.85,27.19.32.56,1.19.05.86-.5-5.28-9.06-10.57-18.13-15.85-27.19-.32-.56-1.19-.05-.86.5h0Z"/>
        <path class="cls-1" d="M314.28,73.31c2.66,3.13,4.91,6.59,6.68,10.3.89,1.86,1.6,3.78,2.29,5.72s1.78,3.79,2.61,5.72c.25.59,1.11.08.86-.5-.87-2.02-1.98-3.92-2.69-6.01-.65-1.92-1.42-3.8-2.3-5.63-1.8-3.71-4.07-7.17-6.74-10.31-.42-.49-1.12.22-.71.71h0Z"/>
        <path class="cls-1" d="M307.29,78.51l11.98,18.03c.35.53,1.22.03.86-.5l-11.98-18.03c-.35-.53-1.22-.03-.86.5h0Z"/>
        <path class="cls-1" d="M300.23,82.35c2.42,4.45,5.25,8.65,8.44,12.58.36.45,1.07-.13.79-.61-.16-.27-.32-.54-.47-.81-.33-.55-1.19-.05-.86.5.16.27.32.54.47.81l.79-.61c-3.14-3.86-5.91-8.01-8.28-12.37-.31-.57-1.17-.06-.86.5h0Z"/>
        <path class="cls-1" d="M293.83,86.4c2.35,3.36,4.58,6.8,6.71,10.3.33.55,1.2.05.86-.5-2.12-3.51-4.36-6.94-6.71-10.3-.37-.52-1.23-.02-.86.5h0Z"/>
      </g>
    </g>
    <g>
      <path class="cls-3" d="M165.78,53.62l14.92.84"/>
      <path class="cls-3" d="M165.78,55.12l14.92.84c.81.05,1.5-.72,1.5-1.5,0-.85-.69-1.45-1.5-1.5l-14.92-.84c-.81-.05-1.5.72-1.5,1.5,0,.85.69,1.45,1.5,1.5h0Z"/>
    </g>
    <g>
      <path class="cls-3" d="M167.03,62.96l14.21.8"/>
      <path class="cls-3" d="M167.03,64.46l14.21.8c.81.05,1.5-.72,1.5-1.5,0-.85-.69-1.45-1.5-1.5l-14.21-.8c-.81-.05-1.5.72-1.5,1.5,0,.85.69,1.45,1.5,1.5h0Z"/>
    </g>
    <g>
      <path class="cls-3" d="M260.96,62.02c6.99,0,13.98,0,20.97,0"/>
      <path class="cls-3" d="M260.96,63.52c6.99,0,13.98,0,20.97,0,1.93,0,1.93-3,0-3-6.99,0-13.98,0-20.97,0-1.93,0-1.93,3,0,3h0Z"/>
    </g>
    <g>
      <path class="cls-3" d="M270.88,51.45c.21,7.32.13,14.65-.26,21.96"/>
      <path class="cls-3" d="M269.38,51.45c.21,7.32.12,14.65-.26,21.96-.04.81.72,1.5,1.5,1.5.85,0,1.46-.69,1.5-1.5.39-7.31.47-14.64.26-21.96-.06-1.93-3.06-1.93-3,0h0Z"/>
    </g>
  </g>
</svg>