<?xml version="1.0" encoding="utf-8"?>
<!-- Generator: Adobe Illustrator 23.1.1, SVG Export Plug-In . SVG Version: 6.00 Build 0)  -->
<svg version="1.1" id="Layer_1" xmlns="http://www.w3.org/2000/svg" xmlns:xlink="http://www.w3.org/1999/xlink" x="0px" y="0px"
	 viewBox="0 0 504 216" style="enable-background:new 0 0 504 216;" xml:space="preserve">
<style type="text/css">
	.st0{fill:#00AEEF;}
	.st1{fill:#00A651;}
	.st2{display:none;}
	.st3{display:inline;}
</style>
<g>
	<g>
		<g>
			<g>
				<path class="st0" d="M371.28,148.71c-0.05-0.09-0.09-0.18-0.13-0.28c0.03,0.08,0.07,0.16,0.1,0.24
					c-0.12-0.29-0.2-0.59-0.25-0.89c0.01,0.09,0.02,0.18,0.04,0.27c-0.04-0.31-0.04-0.62,0-0.93c-0.01,0.09-0.02,0.18-0.04,0.27
					c0.01-0.05,0.02-0.1,0.02-0.15c0.05-0.27,0.04-0.53-0.1-0.77c-0.12-0.21-0.36-0.41-0.6-0.46c-0.26-0.06-0.54-0.05-0.77,0.1
					c-0.21,0.13-0.41,0.34-0.46,0.6c-0.05,0.28-0.09,0.56-0.09,0.84c0,0.28,0.03,0.55,0.07,0.83c0.07,0.47,0.25,0.93,0.47,1.35
					c0.12,0.22,0.36,0.4,0.6,0.46c0.24,0.07,0.56,0.04,0.77-0.1C371.39,149.78,371.54,149.21,371.28,148.71L371.28,148.71z"/>
			</g>
		</g>
		<g>
			<g>
				<path class="st0" d="M370.68,143.21c0.04-0.85-0.11-1.73-0.44-2.51c-0.03-0.13-0.09-0.24-0.18-0.34
					c-0.07-0.11-0.16-0.19-0.28-0.26c-0.21-0.13-0.53-0.18-0.77-0.1c-0.24,0.08-0.48,0.23-0.6,0.46c-0.12,0.22-0.2,0.53-0.1,0.77
					c0.18,0.42,0.3,0.85,0.36,1.3c-0.01-0.09-0.02-0.18-0.04-0.27c0.04,0.31,0.06,0.63,0.04,0.94c-0.02,0.52,0.48,1.02,1,1
					C370.24,144.18,370.66,143.77,370.68,143.21L370.68,143.21z"/>
			</g>
		</g>
		<g>
			<g>
				<path class="st0" d="M369.98,137.19c-0.16-1.25-0.32-2.49-0.48-3.74c-0.04-0.28-0.09-0.5-0.29-0.71
					c-0.17-0.17-0.46-0.3-0.71-0.29c-0.26,0.01-0.53,0.1-0.71,0.29c-0.17,0.18-0.33,0.45-0.29,0.71c0.16,1.25,0.32,2.49,0.48,3.74
					c0.04,0.28,0.09,0.5,0.29,0.71c0.17,0.17,0.46,0.3,0.71,0.29c0.26-0.01,0.53-0.1,0.71-0.29
					C369.86,137.72,370.02,137.45,369.98,137.19L369.98,137.19z"/>
			</g>
		</g>
		<g>
			<g>
				<path class="st0" d="M369.85,128.45c0.23-1.57,0.18-3.14-0.2-4.69c-0.12-0.51-0.73-0.86-1.23-0.7c-0.53,0.17-0.83,0.69-0.7,1.23
					c0.08,0.33,0.15,0.67,0.2,1.01c0.04,0.26-0.02-0.22,0.01,0.05c0.01,0.08,0.02,0.16,0.03,0.24c0.02,0.17,0.03,0.34,0.04,0.51
					c0.02,0.33,0.02,0.66,0,0.99c-0.01,0.16-0.02,0.32-0.03,0.47c-0.01,0.08-0.01,0.16-0.02,0.24c-0.01,0.05-0.01,0.1-0.02,0.16
					c0.02-0.14,0.02-0.15,0-0.03c-0.04,0.28-0.05,0.52,0.1,0.77c0.12,0.21,0.36,0.41,0.6,0.46
					C369.09,129.26,369.77,129,369.85,128.45L369.85,128.45z"/>
			</g>
		</g>
		<g>
			<g>
				<path class="st0" d="M369.55,119.93c0-1.13,0-2.25,0-3.38c0-0.52-0.46-1.02-1-1c-0.54,0.02-1,0.44-1,1c0,1.13,0,2.25,0,3.38
					c0,0.52,0.46,1.02,1,1C369.09,120.91,369.55,120.49,369.55,119.93L369.55,119.93z"/>
			</g>
		</g>
		<g>
			<g>
				<path class="st0" d="M369.18,112.71c0.76-1.83,0.55-4.02-0.47-5.71c-0.27-0.45-0.91-0.65-1.37-0.36
					c-0.45,0.29-0.65,0.89-0.36,1.37c0.11,0.18,0.21,0.37,0.3,0.57c0.05,0.1,0.04,0.1-0.01-0.02c0.02,0.05,0.04,0.1,0.06,0.15
					c0.03,0.08,0.05,0.15,0.08,0.23c0.06,0.2,0.12,0.41,0.16,0.62c0.01,0.05,0.09,0.39,0.03,0.13c0.02,0.09,0.02,0.19,0.03,0.28
					c0.01,0.2,0.02,0.4,0.01,0.6c0,0.11-0.02,0.21-0.02,0.32c-0.01,0.21,0.03-0.17-0.01,0.09c-0.07,0.41-0.19,0.81-0.35,1.19
					c-0.2,0.48,0.22,1.12,0.7,1.23C368.54,113.54,368.97,113.23,369.18,112.71L369.18,112.71z"/>
			</g>
		</g>
		<g>
			<g>
				<path class="st0" d="M368.45,103.51c-0.35-1.74-0.49-3.48-0.42-5.35c0.02-0.52-0.47-1.02-1-1c-0.56,0.03-0.98,0.44-1,1
					c-0.07,1.97,0.1,3.95,0.49,5.88c0.1,0.51,0.74,0.86,1.23,0.7C368.3,104.56,368.56,104.06,368.45,103.51L368.45,103.51z"/>
			</g>
		</g>
		<g>
			<g>
				<path class="st0" d="M368.01,93.27c0.2-1.98,0.11-3.96-0.21-5.92c-0.08-0.52-0.75-0.85-1.23-0.7c-0.56,0.18-0.79,0.68-0.7,1.23
					c0.08,0.48,0.11,0.72,0.16,1.25c0.04,0.45,0.07,0.91,0.08,1.36c0.03,0.93-0.01,1.85-0.1,2.78c-0.05,0.52,0.5,1.02,1,1
					C367.59,94.25,367.95,93.83,368.01,93.27L368.01,93.27z"/>
			</g>
		</g>
		<g>
			<g>
				<path class="st0" d="M367.67,81.64c0.08-1.6-0.09-3.21-0.48-4.76c-0.13-0.51-0.72-0.86-1.23-0.7c-0.53,0.17-0.83,0.69-0.7,1.23
					c0.09,0.36,0.17,0.72,0.23,1.09c0.01,0.08,0.03,0.17,0.04,0.25c0,0.03,0.05,0.34,0.03,0.21c-0.02-0.13,0.02,0.18,0.02,0.21
					c0.01,0.08,0.02,0.17,0.03,0.25c0.07,0.74,0.08,1.48,0.05,2.22c-0.03,0.52,0.48,1.02,1,1C367.24,82.61,367.65,82.2,367.67,81.64
					L367.67,81.64z"/>
			</g>
		</g>
		<g>
			<g>
				<path class="st0" d="M366.54,72.63c0-1.5,0-3,0-4.5c0-0.52-0.46-1.02-1-1c-0.54,0.02-1,0.44-1,1c0,1.5,0,3,0,4.5
					c0,0.52,0.46,1.02,1,1C366.08,73.6,366.54,73.19,366.54,72.63L366.54,72.63z"/>
			</g>
		</g>
		<g>
			<g>
				<path class="st0" d="M365.82,61.83c-0.26-1-0.52-2-0.78-3c-0.13-0.51-0.72-0.86-1.23-0.7c-0.52,0.17-0.84,0.69-0.7,1.23
					c0.26,1,0.52,2,0.78,3c0.13,0.51,0.72,0.86,1.23,0.7C365.65,62.9,365.96,62.38,365.82,61.83L365.82,61.83z"/>
			</g>
		</g>
		<g>
			<g>
				<path class="st0" d="M364.91,56.73c-0.02-0.04-0.04-0.09-0.06-0.13c0.03,0.08,0.07,0.16,0.1,0.24
					c-0.16-0.38-0.26-0.77-0.32-1.18c0.01,0.09,0.02,0.18,0.04,0.27c-0.05-0.41-0.05-0.82,0-1.22c-0.01,0.09-0.02,0.18-0.04,0.27
					c0-0.03,0.01-0.06,0.01-0.09c0.04-0.28,0.05-0.52-0.1-0.77c-0.12-0.21-0.36-0.41-0.6-0.46c-0.26-0.06-0.54-0.05-0.77,0.1
					c-0.2,0.13-0.42,0.35-0.46,0.6c-0.04,0.31-0.09,0.61-0.09,0.92c0,0.31,0.03,0.62,0.08,0.92c0.08,0.54,0.25,1.05,0.48,1.55
					c0.1,0.21,0.38,0.4,0.6,0.46c0.24,0.07,0.56,0.04,0.77-0.1c0.21-0.14,0.4-0.34,0.46-0.6c0.01-0.09,0.02-0.18,0.04-0.27
					C365.04,57.05,365,56.89,364.91,56.73L364.91,56.73z"/>
			</g>
		</g>
		<g>
			<g>
				<path class="st0" d="M360.34,58.04c-1.31,1.19-2.24,2.82-2.6,4.55c-0.11,0.51,0.15,1.1,0.7,1.23c0.5,0.11,1.12-0.15,1.23-0.7
					c0.08-0.38,0.18-0.76,0.32-1.12c0.03-0.07,0.16-0.35,0.04-0.1c0.04-0.08,0.07-0.16,0.11-0.24c0.09-0.18,0.18-0.36,0.28-0.53
					c0.09-0.16,0.19-0.33,0.3-0.48c0.06-0.08,0.11-0.17,0.17-0.25c0.03-0.03,0.06-0.07,0.08-0.11c-0.03,0.05-0.12,0.14-0.03,0.04
					c0.26-0.31,0.53-0.6,0.82-0.87c0.39-0.35,0.39-1.06,0-1.41C361.34,57.66,360.75,57.66,360.34,58.04L360.34,58.04z"/>
			</g>
		</g>
		<g>
			<g>
				<path class="st0" d="M355.27,65.21c-0.04,0.11-0.09,0.23-0.13,0.34c0.03-0.08,0.07-0.16,0.1-0.24c-0.27,0.64-0.63,1.24-1.05,1.8
					c0.05-0.07,0.1-0.13,0.16-0.2c-0.28,0.36-0.59,0.69-0.92,0.99c-0.39,0.35-0.39,1.06,0,1.41c0.41,0.38,1,0.38,1.41,0
					c1.07-0.98,1.86-2.21,2.36-3.57c0.09-0.23,0.02-0.56-0.1-0.77c-0.12-0.21-0.36-0.41-0.6-0.46c-0.26-0.06-0.54-0.05-0.77,0.1
					C355.5,64.76,355.37,64.96,355.27,65.21L355.27,65.21z"/>
			</g>
		</g>
		<g>
			<g>
				<path class="st0" d="M350.49,70.97c-0.21,0.36-0.43,0.7-0.67,1.04c-0.12,0.17-0.23,0.37-0.38,0.51c0.07-0.07,0.1-0.13,0.01-0.02
					c-0.03,0.03-0.06,0.07-0.08,0.1c-0.07,0.09-0.14,0.17-0.21,0.26c-0.54,0.64-1.13,1.23-1.77,1.78c-0.4,0.34-0.38,1.07,0,1.41
					c0.42,0.39,0.99,0.36,1.41,0c1.35-1.15,2.51-2.55,3.41-4.08c0.27-0.45,0.12-1.12-0.36-1.37
					C351.38,70.36,350.78,70.49,350.49,70.97L350.49,70.97z"/>
			</g>
		</g>
		<g>
			<g>
				<path class="st0" d="M344.57,77.03c-1.13,1.62-2.27,3.24-3.4,4.87c-0.3,0.43-0.09,1.13,0.36,1.37c0.51,0.27,1.05,0.1,1.37-0.36
					c1.13-1.62,2.27-3.24,3.4-4.87c0.3-0.43,0.09-1.13-0.36-1.37C345.42,76.4,344.89,76.57,344.57,77.03L344.57,77.03z"/>
			</g>
		</g>
		<g>
			<g>
				<path class="st0" d="M338.39,85.04c-1.14,0.86-2.28,1.71-3.43,2.57c-0.22,0.16-0.38,0.33-0.46,0.6
					c-0.07,0.24-0.04,0.56,0.1,0.77c0.14,0.21,0.34,0.4,0.6,0.46c0.25,0.06,0.56,0.06,0.77-0.1c1.14-0.86,2.28-1.71,3.43-2.57
					c0.22-0.16,0.38-0.33,0.46-0.6c0.07-0.24,0.04-0.56-0.1-0.77c-0.14-0.21-0.34-0.4-0.6-0.46
					C338.91,84.88,338.6,84.88,338.39,85.04L338.39,85.04z"/>
			</g>
		</g>
		<g>
			<g>
				<path class="st0" d="M330.64,91.66c-0.62,0.75-1.25,1.51-1.87,2.26c-0.17,0.21-0.29,0.43-0.29,0.71c0,0.25,0.11,0.54,0.29,0.71
					c0.19,0.17,0.44,0.3,0.71,0.29c0.25-0.01,0.54-0.09,0.71-0.29c0.62-0.75,1.25-1.51,1.87-2.26c0.17-0.21,0.29-0.43,0.29-0.71
					c0-0.25-0.11-0.54-0.29-0.71c-0.19-0.17-0.44-0.3-0.71-0.29C331.09,91.38,330.8,91.46,330.64,91.66L330.64,91.66z"/>
			</g>
		</g>
		<g>
			<g>
				<path class="st0" d="M324.34,96.37c-0.02,0.1-0.06,0.2-0.1,0.29c0.03-0.08,0.07-0.16,0.1-0.24c-0.07,0.17-0.16,0.32-0.27,0.47
					c0.05-0.07,0.1-0.13,0.16-0.2c-0.12,0.15-0.25,0.28-0.4,0.4c0.07-0.05,0.13-0.1,0.2-0.16c-0.14,0.11-0.3,0.2-0.46,0.27
					c0.08-0.03,0.16-0.07,0.24-0.1c-0.17,0.07-0.34,0.12-0.52,0.14c0.09-0.01,0.18-0.02,0.27-0.04c-0.02,0-0.03,0-0.05,0.01
					c-0.14-0.01-0.27,0.02-0.39,0.09c-0.12,0.04-0.23,0.11-0.32,0.21c-0.17,0.17-0.3,0.46-0.29,0.71c0.01,0.26,0.1,0.53,0.29,0.71
					c0.18,0.17,0.45,0.32,0.71,0.29c0.19-0.02,0.38-0.04,0.57-0.09c0.18-0.05,0.36-0.13,0.53-0.2c0.27-0.12,0.52-0.3,0.74-0.5
					c0.22-0.19,0.42-0.44,0.57-0.69c0.06-0.09,0.11-0.19,0.15-0.3c0.08-0.18,0.15-0.35,0.2-0.53c0.06-0.26,0.03-0.54-0.1-0.77
					c-0.12-0.21-0.36-0.41-0.6-0.46c-0.26-0.06-0.54-0.05-0.77,0.1C324.58,95.91,324.4,96.12,324.34,96.37L324.34,96.37z"/>
			</g>
		</g>
		<g>
			<g>
				<path class="st0" d="M319.64,102.22c-1.54,0.89-2.93,2.06-4.06,3.43c-0.17,0.21-0.29,0.43-0.29,0.71c0,0.25,0.11,0.54,0.29,0.71
					c0.37,0.34,1.06,0.43,1.41,0c0.53-0.64,1.12-1.24,1.76-1.79c0.15-0.13,0.31-0.24,0.46-0.38c-0.18,0.17-0.07,0.05-0.02,0.02
					c0.04-0.03,0.09-0.07,0.13-0.1c0.08-0.06,0.16-0.12,0.24-0.17c0.35-0.25,0.71-0.48,1.08-0.69c0.45-0.26,0.65-0.91,0.36-1.37
					C320.71,102.12,320.12,101.94,319.64,102.22L319.64,102.22z"/>
			</g>
		</g>
		<g>
			<g>
				<path class="st0" d="M312.35,108.6c-0.88,0.25-1.75,0.5-2.63,0.75c-0.24,0.07-0.47,0.24-0.6,0.46c-0.13,0.21-0.18,0.53-0.1,0.77
					c0.17,0.51,0.69,0.85,1.23,0.7c0.88-0.25,1.75-0.5,2.63-0.75c0.24-0.07,0.47-0.24,0.6-0.46c0.13-0.21,0.18-0.53,0.1-0.77
					C313.41,108.79,312.89,108.45,312.35,108.6L312.35,108.6z"/>
			</g>
		</g>
		<g>
			<g>
				<path class="st0" d="M304.03,113.24c-0.99,0.77-1.98,1.54-2.96,2.3c-0.19,0.15-0.29,0.48-0.29,0.71c0,0.25,0.11,0.54,0.29,0.71
					c0.19,0.17,0.44,0.3,0.71,0.29c0.09-0.01,0.18-0.02,0.27-0.04c0.17-0.05,0.32-0.13,0.44-0.26c0.99-0.77,1.98-1.54,2.96-2.3
					c0.19-0.15,0.29-0.48,0.29-0.71c0-0.25-0.11-0.54-0.29-0.71c-0.19-0.17-0.44-0.3-0.71-0.29c-0.09,0.01-0.18,0.02-0.27,0.04
					C304.31,113.03,304.16,113.11,304.03,113.24L304.03,113.24z"/>
			</g>
		</g>
		<g>
			<g>
				<path class="st0" d="M296.71,119.43c-1.25,0.76-2.5,1.51-3.74,2.27c-0.45,0.27-0.65,0.91-0.36,1.37
					c0.29,0.45,0.89,0.65,1.37,0.36c1.25-0.76,2.5-1.51,3.74-2.27c0.45-0.27,0.65-0.91,0.36-1.37
					C297.78,119.34,297.18,119.14,296.71,119.43L296.71,119.43z"/>
			</g>
		</g>
		<g>
			<g>
				<path class="st0" d="M289.19,123.93c-1.26,0.73-2.53,1.46-3.79,2.19c-0.45,0.26-0.65,0.92-0.36,1.37
					c0.29,0.46,0.88,0.64,1.37,0.36c1.26-0.73,2.53-1.46,3.79-2.19c0.45-0.26,0.65-0.92,0.36-1.37
					C290.27,123.83,289.68,123.65,289.19,123.93L289.19,123.93z"/>
			</g>
		</g>
		<g>
			<g>
				<path class="st0" d="M280.37,130.24c-0.91,0.86-1.82,1.72-2.73,2.58c0.47,0,0.94,0,1.41,0c-0.22-0.24-0.43-0.47-0.65-0.71
					c-0.36-0.39-1.06-0.39-1.41,0c-0.38,0.41-0.38,1,0,1.41c0.22,0.24,0.43,0.47,0.65,0.71c0.37,0.41,1.03,0.36,1.41,0
					c0.91-0.86,1.82-1.72,2.73-2.58c0.38-0.36,0.39-1.06,0-1.41C281.38,129.87,280.78,129.86,280.37,130.24L280.37,130.24z"/>
			</g>
		</g>
		<g>
			<g>
				<path class="st0" d="M272.71,135.57c-0.09,0.16-0.18,0.31-0.28,0.46c-0.02,0.03-0.13,0.16-0.02,0.03
					c0.11-0.14-0.01,0.01-0.02,0.03c-0.06,0.07-0.12,0.14-0.18,0.21c-0.12,0.13-0.25,0.25-0.38,0.36c-0.04,0.03-0.07,0.06-0.11,0.09
					c-0.13,0.11,0.15-0.11,0.05-0.04c-0.08,0.05-0.15,0.11-0.23,0.16c-0.15,0.1-0.3,0.19-0.46,0.27c-0.08,0.04-0.17,0.09-0.26,0.13
					c-0.04,0.02-0.2,0.09-0.04,0.02c0.16-0.07-0.02,0-0.04,0.01c-0.18,0.07-0.36,0.13-0.55,0.17c-0.08,0.02-0.17,0.04-0.25,0.06
					c-0.08,0.02-0.45,0.07-0.1,0.03c-0.28,0.04-0.5,0.09-0.71,0.29c-0.17,0.17-0.3,0.46-0.29,0.71c0.01,0.26,0.1,0.53,0.29,0.71
					c0.18,0.17,0.45,0.33,0.71,0.29c0.96-0.13,1.89-0.42,2.71-0.96c0.78-0.52,1.45-1.2,1.89-2.02c0.25-0.46,0.13-1.11-0.36-1.37
					C273.61,134.97,272.97,135.08,272.71,135.57L272.71,135.57z"/>
			</g>
		</g>
		<g>
			<g>
				<path class="st0" d="M265.92,139.7c-1,0.49-2.01,0.99-3.01,1.48c-0.22,0.11-0.4,0.37-0.46,0.6c-0.07,0.24-0.04,0.56,0.1,0.77
					c0.31,0.48,0.86,0.61,1.37,0.36c1-0.49,2.01-0.99,3.01-1.48c0.22-0.11,0.4-0.37,0.46-0.6c0.07-0.24,0.04-0.56-0.1-0.77
					C266.98,139.58,266.43,139.46,265.92,139.7L265.92,139.7z"/>
			</g>
		</g>
		<g>
			<g>
				<path class="st0" d="M262.05,144.33c0,0.5,0,1,0,1.5c0,0.26,0.11,0.53,0.29,0.71c0.17,0.17,0.46,0.3,0.71,0.29
					c0.26-0.01,0.53-0.1,0.71-0.29c0.18-0.2,0.29-0.44,0.29-0.71c0-0.5,0-1,0-1.5c0-0.26-0.11-0.53-0.29-0.71
					c-0.17-0.17-0.46-0.3-0.71-0.29c-0.26,0.01-0.53,0.1-0.71,0.29C262.17,143.82,262.05,144.06,262.05,144.33L262.05,144.33z"/>
			</g>
		</g>
		<g>
			<g>
				<path class="st0" d="M262.38,149.26c-0.05,0.09-0.1,0.18-0.14,0.27c-0.07,0.16-0.15,0.33-0.19,0.51
					c-0.02,0.1-0.03,0.21-0.04,0.31c0,0.02-0.01,0.05-0.01,0.07c0,0.02,0,0.05,0,0.07c0.01,0.11,0.02,0.22,0.04,0.33
					c0.02,0.12,0.09,0.25,0.13,0.35c0.05,0.11,0.13,0.2,0.21,0.29c0.15,0.17,0.35,0.27,0.56,0.34c0.13,0.05,0.28,0.06,0.42,0.06
					c0.01,0,0.02,0,0.04,0c0.1-0.01,0.2-0.02,0.3-0.04c0.03-0.01,0.05-0.01,0.08-0.02c0.24-0.09,0.37-0.16,0.56-0.33
					c0.15-0.13,0.28-0.36,0.33-0.55c0.07-0.31,0.03-0.63-0.13-0.91c-0.06-0.12-0.15-0.21-0.26-0.28c-0.1-0.09-0.21-0.15-0.34-0.18
					c-0.13-0.04-0.27-0.05-0.4-0.02c-0.13,0.01-0.26,0.05-0.37,0.12c-0.07,0.05-0.13,0.1-0.2,0.16c-0.12,0.12-0.21,0.27-0.26,0.44
					c-0.01,0.09-0.02,0.18-0.04,0.27c0,0.18,0.05,0.35,0.14,0.5c0.01,0.01,0.01,0.02,0.02,0.03c-0.03-0.08-0.07-0.16-0.1-0.24
					c0.01,0.02,0.01,0.03,0.01,0.05c-0.01-0.09-0.02-0.18-0.04-0.27c0,0.01,0,0.02,0,0.04c0.01-0.09,0.02-0.18,0.04-0.27
					c0,0.02-0.01,0.03-0.01,0.05c0.03-0.08,0.07-0.16,0.1-0.24c-0.01,0.02-0.02,0.03-0.03,0.04c0.05-0.07,0.1-0.13,0.16-0.2
					c-0.01,0.02-0.03,0.03-0.05,0.05c0.07-0.05,0.13-0.1,0.2-0.16c-0.03,0.02-0.05,0.03-0.08,0.05c0.08-0.03,0.16-0.07,0.24-0.1
					c-0.04,0.02-0.08,0.03-0.12,0.03c0.09-0.01,0.18-0.02,0.27-0.04c-0.04,0.01-0.08,0.01-0.13,0c0.09,0.01,0.18,0.02,0.27,0.04
					c-0.03,0-0.06-0.01-0.09-0.02c0.08,0.03,0.16,0.07,0.24,0.1c-0.02-0.01-0.05-0.02-0.07-0.04c0.07,0.05,0.13,0.1,0.2,0.16
					c-0.02-0.01-0.03-0.03-0.04-0.04c0.05,0.07,0.1,0.13,0.16,0.2c-0.02-0.03-0.04-0.06-0.05-0.09c0.03,0.08,0.07,0.16,0.1,0.24
					c-0.02-0.04-0.03-0.09-0.04-0.13c0.01,0.09,0.02,0.18,0.04,0.27c-0.01-0.06-0.01-0.12,0-0.18c-0.01,0.09-0.02,0.18-0.04,0.27
					c0.01-0.1,0.04-0.19,0.08-0.28c-0.03,0.08-0.07,0.16-0.1,0.24c0.04-0.11,0.1-0.21,0.16-0.31c0.07-0.11,0.11-0.24,0.12-0.37
					c0.03-0.13,0.02-0.27-0.02-0.4c-0.03-0.13-0.09-0.24-0.18-0.34c-0.07-0.11-0.16-0.19-0.28-0.26c-0.08-0.03-0.16-0.07-0.24-0.1
					c-0.18-0.05-0.35-0.05-0.53,0C262.73,148.88,262.51,149.03,262.38,149.26L262.38,149.26z"/>
			</g>
		</g>
		<g>
			<g>
				<path class="st0" d="M266.41,151.52c1.73,0.93,3.81,1.15,5.68,0.53c0.5-0.16,0.87-0.7,0.7-1.23c-0.16-0.49-0.7-0.87-1.23-0.7
					c-0.21,0.07-0.42,0.13-0.63,0.18c-0.08,0.02-0.16,0.03-0.24,0.05c-0.05,0.01-0.11,0.02-0.16,0.03c0.13-0.02,0.14-0.02,0.02,0
					c-0.4,0.03-0.79,0.05-1.18,0.02c-0.09-0.01-0.19-0.01-0.28-0.03c0.26,0.04-0.09-0.02-0.14-0.03c-0.19-0.04-0.37-0.08-0.56-0.13
					c-0.18-0.05-0.36-0.12-0.54-0.18c-0.11-0.04-0.1-0.04,0.01,0.01c-0.05-0.02-0.1-0.04-0.15-0.07c-0.1-0.05-0.2-0.1-0.29-0.15
					c-0.46-0.25-1.11-0.13-1.37,0.36C265.81,150.62,265.92,151.26,266.41,151.52L266.41,151.52z"/>
			</g>
		</g>
		<g>
			<g>
				<path class="st0" d="M276.18,151.56c1.51-0.15,3.02-0.31,4.53-0.46c0.52-0.05,1.03-0.42,1-1c-0.02-0.5-0.44-1.06-1-1
					c-1.51,0.15-3.02,0.31-4.53,0.46c-0.52,0.05-1.03,0.42-1,1C275.2,151.05,275.62,151.61,276.18,151.56L276.18,151.56z"/>
			</g>
		</g>
		<g>
			<g>
				<path class="st0" d="M285.58,151.34c1.75,0,3.5,0,5.26,0c0.52,0,1.02-0.46,1-1c-0.02-0.54-0.44-1-1-1c-1.75,0-3.5,0-5.26,0
					c-0.52,0-1.02,0.46-1,1C284.6,150.88,285.02,151.34,285.58,151.34L285.58,151.34z"/>
			</g>
		</g>
		<g>
			<g>
				<path class="st0" d="M294.96,152.09c1.5,0,3,0,4.5,0c0.52,0,1.02-0.46,1-1c-0.02-0.54-0.44-1-1-1c-1.5,0-3,0-4.5,0
					c-0.52,0-1.02,0.46-1,1C293.99,151.63,294.4,152.09,294.96,152.09L294.96,152.09z"/>
			</g>
		</g>
		<g>
			<g>
				<path class="st0" d="M303.6,150.59c1.38,0,2.75,0,4.13,0c0.52,0,1.02-0.46,1-1c-0.02-0.54-0.44-1-1-1c-1.38,0-2.75,0-4.13,0
					c-0.52,0-1.02,0.46-1,1C302.62,150.13,303.04,150.59,303.6,150.59L303.6,150.59z"/>
			</g>
		</g>
		<g>
			<g>
				<path class="st0" d="M310.85,151.26c2.44,0.46,4.92,0.62,7.39,0.43c0.54-0.04,1-0.43,1-1c0-0.51-0.46-1.04-1-1
					c-2.29,0.17-4.6,0.07-6.86-0.36c-0.53-0.1-1.08,0.15-1.23,0.7C310.02,150.52,310.32,151.16,310.85,151.26L310.85,151.26z"/>
			</g>
		</g>
		<g>
			<g>
				<path class="st0" d="M324.18,151.8c0.34-0.11,0.69-0.19,1.04-0.26c0.11-0.02,0.22-0.04,0.33-0.06c0.22-0.04-0.18,0.02,0.06-0.01
					c0.18-0.02,0.36-0.04,0.54-0.05c0.36-0.02,0.72-0.03,1.07-0.01c0.18,0.01,0.36,0.02,0.54,0.04c0.05,0.01,0.11,0.01,0.16,0.02
					c-0.03,0-0.07-0.01-0.1-0.01c0.11,0.01,0.22,0.03,0.33,0.05c0.51,0.09,1.1-0.14,1.23-0.7c0.11-0.48-0.15-1.14-0.7-1.23
					c-1.68-0.29-3.39-0.21-5.03,0.29c-0.5,0.15-0.87,0.71-0.7,1.23C323.11,151.61,323.64,151.97,324.18,151.8L324.18,151.8z"/>
			</g>
		</g>
		<g>
			<g>
				<path class="st0" d="M333.63,152.47c1.13,0,2.25,0,3.38,0c0.52,0,1.02-0.46,1-1c-0.02-0.54-0.44-1-1-1c-1.13,0-2.25,0-3.38,0
					c-0.52,0-1.02,0.46-1,1C332.66,152.01,333.07,152.47,333.63,152.47L333.63,152.47z"/>
			</g>
		</g>
		<g>
			<g>
				<path class="st0" d="M339.73,152.13c1.54,0.42,3.11,0.49,4.68,0.27c0.23-0.03,0.49-0.27,0.6-0.46c0.13-0.21,0.18-0.53,0.1-0.77
					c-0.08-0.24-0.23-0.48-0.46-0.6c-0.25-0.13-0.49-0.14-0.77-0.1c0.27-0.04-0.02,0-0.08,0.01c-0.09,0.01-0.18,0.02-0.27,0.03
					c-0.15,0.01-0.31,0.02-0.46,0.03c-0.34,0.01-0.67,0.01-1.01-0.02c-0.15-0.01-0.31-0.02-0.46-0.04c-0.05-0.01-0.1-0.01-0.15-0.02
					c0.12,0.02,0.15,0.02,0.07,0.01c-0.09-0.01-0.18-0.03-0.27-0.04c-0.33-0.06-0.66-0.13-0.98-0.22c-0.5-0.14-1.11,0.17-1.23,0.7
					C338.91,151.43,339.19,151.98,339.73,152.13L339.73,152.13z"/>
			</g>
		</g>
		<g>
			<g>
				<path class="st0" d="M348.65,150.94c1.97,0.18,3.96,0.05,5.9-0.35c0.51-0.11,0.86-0.74,0.7-1.23c-0.18-0.54-0.68-0.81-1.23-0.7
					c-0.23,0.05-0.46,0.09-0.7,0.13c-0.13,0.02-0.25,0.04-0.38,0.06c-0.03,0-0.32,0.04-0.17,0.02c-0.45,0.06-0.9,0.1-1.36,0.12
					c-0.93,0.05-1.85,0.03-2.78-0.05c-0.52-0.05-1.02,0.49-1,1C347.68,150.52,348.09,150.89,348.65,150.94L348.65,150.94z"/>
			</g>
		</g>
		<g>
			<g>
				<path class="st0" d="M357.91,150.9c1-0.37,2.01-0.74,3.01-1.11c0.25-0.09,0.46-0.22,0.6-0.46c0.13-0.21,0.18-0.53,0.1-0.77
					c-0.16-0.48-0.7-0.89-1.23-0.7c-1,0.37-2.01,0.74-3.01,1.11c-0.25,0.09-0.46,0.22-0.6,0.46c-0.13,0.21-0.18,0.53-0.1,0.77
					C356.84,150.68,357.39,151.09,357.91,150.9L357.91,150.9z"/>
			</g>
		</g>
		<g>
			<g>
				<path class="st0" d="M366.25,150.3c0.05-0.05,0.11-0.1,0.16-0.15c0.03-0.02,0.13-0.1-0.01,0c-0.14,0.11-0.02,0.02,0.02-0.01
					c0.12-0.08,0.25-0.15,0.38-0.22c0.03-0.01,0.07-0.02,0.09-0.04c-0.01,0.01-0.23,0.09-0.1,0.05c0.07-0.02,0.14-0.05,0.21-0.07
					c0.15-0.04,0.3-0.07,0.45-0.1c-0.09,0.01-0.18,0.02-0.27,0.04c0.26-0.03,0.52-0.03,0.78,0c-0.09-0.01-0.18-0.02-0.27-0.04
					c0.17,0.02,0.33,0.06,0.5,0.11c0.04,0.01,0.08,0.03,0.11,0.04c0.15,0.05-0.19-0.09-0.08-0.04c0.08,0.04,0.16,0.08,0.24,0.12
					c0.45,0.26,1.11,0.12,1.37-0.36c0.25-0.48,0.13-1.09-0.36-1.37c-1.47-0.84-3.42-0.59-4.63,0.61c-0.37,0.37-0.4,1.05,0,1.41
					C365.24,150.67,365.86,150.69,366.25,150.3L366.25,150.3z"/>
			</g>
		</g>
	</g>
	<g>
		<g>
			<g>
				<path class="st0" d="M358.79,63.62c2.4,1.9,4.58,4.06,6.52,6.43c0.17,0.21,0.53,0.18,0.71,0c0.21-0.2,0.17-0.5,0-0.71
					c-1.93-2.37-4.12-4.53-6.52-6.43c-0.21-0.17-0.5-0.2-0.71,0C358.61,63.09,358.58,63.45,358.79,63.62L358.79,63.62z"/>
			</g>
		</g>
		<g>
			<g>
				<path class="st0" d="M356.32,67.47c2.17,1.9,4.17,4,5.94,6.29c0.86,1.11,1.63,2.28,2.42,3.44c0.65,0.95,1.43,1.82,2.64,1.9
					c0.64,0.05,0.64-0.95,0-1c-1.2-0.09-1.87-1.56-2.46-2.43c-0.72-1.07-1.49-2.11-2.3-3.12c-1.67-2.09-3.53-4.02-5.54-5.78
					C356.55,66.34,355.84,67.04,356.32,67.47L356.32,67.47z"/>
			</g>
		</g>
		<g>
			<g>
				<path class="st0" d="M351.69,73.49c-0.33,0.66-0.05,1.28,0.46,1.77c0.65,0.62,1.46,1.11,2.16,1.68c1.49,1.19,2.93,2.46,4.3,3.79
					c2.74,2.66,5.21,5.58,7.38,8.71c0.3,0.44,1.11,0.19,0.91-0.39c-0.17-0.48-0.34-0.96-0.5-1.45c-0.21-0.6-1.18-0.34-0.96,0.27
					c0.17,0.48,0.34,0.96,0.5,1.45c0.3-0.13,0.61-0.26,0.91-0.39c-1.97-2.85-4.18-5.53-6.62-8c-1.21-1.23-2.48-2.41-3.8-3.53
					c-0.66-0.56-1.33-1.11-2.01-1.64c-0.31-0.24-2.1-1.31-1.87-1.76C352.84,73.42,351.98,72.92,351.69,73.49L351.69,73.49z"/>
			</g>
		</g>
		<g>
			<g>
				<path class="st0" d="M343.27,79.41c7.18,7.15,14.53,14.13,22.04,20.93c0.29,0.27,0.89,0.11,0.85-0.35
					c-0.05-0.63-0.32-1.1-0.85-1.44c-0.54-0.35-1.04,0.52-0.5,0.86c0.21,0.14,0.34,0.32,0.36,0.58c0.28-0.12,0.57-0.24,0.85-0.35
					c-7.51-6.8-14.86-13.78-22.04-20.93C343.52,78.25,342.82,78.96,343.27,79.41L343.27,79.41z"/>
			</g>
		</g>
		<g>
			<g>
				<path class="st0" d="M338.23,87.27c4.25,3.81,8.5,7.62,12.75,11.44c4.08,3.66,8.23,7.25,12.23,11c2.12,1.98,4.13,4.07,5.75,6.49
					c0.29-0.17,0.58-0.34,0.86-0.5c-0.22-0.3-0.44-0.6-0.66-0.89c-0.38-0.51-1.25-0.01-0.86,0.5c0.22,0.3,0.44,0.6,0.66,0.89
					c0.37,0.51,1.23,0.04,0.86-0.5c-2.91-4.33-6.99-7.69-10.84-11.14c-4.28-3.84-8.56-7.68-12.85-11.52
					c-2.4-2.15-4.81-4.31-7.21-6.46C338.46,86.14,337.75,86.84,338.23,87.27L338.23,87.27z"/>
			</g>
		</g>
		<g>
			<g>
				<path class="st0" d="M331.3,94.53c9.52,7.53,19.04,15.06,28.57,22.59c2.21,1.75,4.91,3.44,6.1,6.1c0.26,0.59,1.12,0.08,0.86-0.5
					c-1.04-2.32-3.15-3.85-5.08-5.38c-2.41-1.91-4.83-3.82-7.24-5.72c-4.76-3.77-9.52-7.53-14.28-11.3
					c-2.74-2.17-5.48-4.33-8.22-6.5C331.51,93.43,330.8,94.13,331.3,94.53L331.3,94.53z"/>
			</g>
		</g>
		<g>
			<g>
				<path class="st0" d="M322.69,100.81c4.54,5.58,10.27,9.97,15.97,14.28c6.4,4.84,12.8,9.68,19.2,14.53
					c3.64,2.75,7.27,5.5,10.91,8.25c0.41,0.31,0.94-0.28,0.68-0.68c-0.28-0.43-0.56-0.86-0.83-1.29c-0.35-0.54-1.21-0.04-0.86,0.5
					c0.28,0.43,0.56,0.86,0.83,1.29c0.23-0.23,0.46-0.46,0.68-0.68c-6.41-4.85-12.83-9.71-19.24-14.56c-3.17-2.4-6.35-4.8-9.52-7.2
					c-2.9-2.2-5.82-4.38-8.61-6.72c-3.07-2.57-5.98-5.32-8.5-8.43C322.99,99.61,322.29,100.32,322.69,100.81L322.69,100.81z"/>
			</g>
		</g>
		<g>
			<g>
				<path class="st0" d="M318.72,106.2c5.51,6.33,12.25,11.38,18.76,16.62c3.26,2.62,6.47,5.31,9.46,8.23
					c2.85,2.78,5.5,5.75,8.35,8.53c3.19,3.11,6.65,5.99,10.66,8c0.57,0.29,1.08-0.57,0.5-0.86c-7.17-3.6-12.31-9.86-17.87-15.44
					c-5.89-5.91-12.66-10.81-19.05-16.14c-3.58-2.98-7.04-6.13-10.11-9.65C319,105.01,318.3,105.72,318.72,106.2L318.72,106.2z"/>
			</g>
		</g>
		<g>
			<g>
				<path class="st0" d="M312.8,110.2c4.94,5.47,9.87,10.94,14.81,16.42c2.44,2.71,4.88,5.41,7.32,8.12
					c2.24,2.48,4.43,5.02,6.76,7.42c1.2,1.23,2.45,2.42,3.8,3.48c0.64,0.5,1.29,0.98,1.97,1.42c0.36,0.23,0.72,0.45,1.09,0.67
					c0.37,0.21,0.91,0.38,1.23,0.63c0.5,0.39,1.21-0.31,0.71-0.71c-0.52-0.41-1.23-0.66-1.8-1c-0.69-0.42-1.36-0.87-2.01-1.35
					c-1.24-0.92-2.39-1.96-3.49-3.04c-2.35-2.32-4.51-4.84-6.72-7.3c-4.88-5.41-9.76-10.82-14.64-16.23
					c-2.77-3.07-5.55-6.15-8.32-9.22C313.08,109.01,312.37,109.72,312.8,110.2L312.8,110.2z"/>
			</g>
		</g>
		<g>
			<g>
				<path class="st0" d="M306.21,113.65c4.34,5.35,8.67,10.7,13.01,16.05c2.05,2.53,4.16,5.03,6.1,7.65
					c1.76,2.37,3.17,4.86,4.52,7.47c1.14,2.21,2.66,4.7,5.34,5.1c0.63,0.09,0.9-0.87,0.27-0.96c-2.42-0.36-3.72-2.65-4.74-4.64
					c-1.31-2.54-2.68-4.97-4.39-7.29c-1.88-2.55-3.92-4.99-5.92-7.46c-2.09-2.58-4.18-5.16-6.27-7.74c-2.4-2.97-4.81-5.93-7.21-8.9
					C306.51,112.45,305.8,113.16,306.21,113.65L306.21,113.65z"/>
			</g>
		</g>
		<g>
			<g>
				<path class="st0" d="M303.08,118.88c1.45,4.23,4.14,7.85,6.67,11.48c2.83,4.05,5.66,8.1,8.48,12.16
					c1.62,2.32,3.23,4.63,4.85,6.95c0.37,0.52,1.23,0.02,0.86-0.5c-2.8-4.02-5.61-8.04-8.41-12.05c-2.7-3.86-5.48-7.67-8.06-11.62
					c-1.37-2.1-2.62-4.29-3.43-6.67C303.84,118.01,302.87,118.27,303.08,118.88L303.08,118.88z"/>
			</g>
		</g>
		<g>
			<g>
				<path class="st0" d="M297.42,122.45c5.28,9.06,10.57,18.13,15.85,27.19c0.32,0.56,1.19,0.05,0.86-0.5
					c-5.28-9.06-10.57-18.13-15.85-27.19C297.96,121.39,297.09,121.89,297.42,122.45L297.42,122.45z"/>
			</g>
		</g>
		<g>
			<g>
				<path class="st0" d="M289.82,126.92c2.59,3.04,4.79,6.41,6.54,10.01c0.88,1.81,1.64,3.68,2.28,5.59
					c0.59,1.75,1.08,3.57,2.05,5.16c0.34,0.56,0.97,1.73,1.79,1.5c0.64-0.18,0.71-1.25,0-1.37c-0.63-0.1-0.9,0.86-0.27,0.96
					c0.19-0.3,0.18-0.54-0.03-0.71c-0.1-0.12-0.2-0.25-0.29-0.38c-0.16-0.22-0.3-0.45-0.44-0.68c-0.24-0.41-0.45-0.84-0.63-1.27
					c-0.41-0.97-0.72-1.98-1.05-2.98c-0.65-1.99-1.42-3.94-2.31-5.83c-1.82-3.86-4.17-7.45-6.93-10.7
					C290.1,125.72,289.4,126.43,289.82,126.92L289.82,126.92z"/>
			</g>
		</g>
		<g>
			<g>
				<path class="st0" d="M282.82,132.12c3.99,6.01,7.98,12.02,11.98,18.03c0.24,0.37,1,0.28,0.93-0.25
					c-0.12-0.89-0.4-1.69-0.91-2.43c-0.36-0.53-1.23-0.03-0.86,0.5c0.4,0.58,0.68,1.22,0.77,1.93c0.31-0.08,0.62-0.17,0.93-0.25
					c-3.99-6.01-7.98-12.02-11.98-18.03C283.33,131.08,282.46,131.58,282.82,132.12L282.82,132.12z"/>
			</g>
		</g>
		<g>
			<g>
				<path class="st0" d="M275.76,135.96c2.42,4.45,5.25,8.65,8.44,12.58c0.36,0.45,1.07-0.13,0.79-0.61
					c-0.16-0.27-0.32-0.54-0.47-0.81c-0.33-0.55-1.19-0.05-0.86,0.5c0.16,0.27,0.32,0.54,0.47,0.81c0.26-0.2,0.52-0.4,0.79-0.61
					c-3.14-3.86-5.91-8.01-8.28-12.37C276.31,134.89,275.45,135.39,275.76,135.96L275.76,135.96z"/>
			</g>
		</g>
		<g>
			<g>
				<path class="st0" d="M269.36,140.01c1.38,2.1,2.78,4.19,4.19,6.27c1.06,1.57,2.2,3.21,4.08,3.83c0.61,0.2,0.88-0.76,0.27-0.96
					c-1.79-0.58-2.82-2.39-3.81-3.86c-1.3-1.92-2.59-3.85-3.86-5.79C269.87,138.97,269.01,139.47,269.36,140.01L269.36,140.01z"/>
			</g>
		</g>
	</g>
</g>
<g>
	<g>
		<g>
			<path class="st1" d="M261.25,141.82c-0.13,0.35-0.18,0.75-0.15,1.12c0.01,0.13,0.05,0.26,0.15,0.35
				c0.09,0.09,0.23,0.15,0.35,0.15c0.13-0.01,0.26-0.05,0.35-0.15c0.09-0.09,0.16-0.22,0.15-0.35c-0.01-0.17-0.01-0.34,0.01-0.51
				c-0.01,0.04-0.01,0.09-0.02,0.13c0.02-0.16,0.06-0.32,0.12-0.48c0.04-0.12,0.01-0.28-0.05-0.39c-0.06-0.1-0.18-0.2-0.3-0.23
				c-0.13-0.03-0.27-0.02-0.39,0.05C261.36,141.59,261.29,141.69,261.25,141.82L261.25,141.82z"/>
		</g>
	</g>
	<g>
		<g>
			<path class="st1" d="M261.17,144.47c-0.05,0.52-0.1,1.03-0.15,1.55c-0.01,0.12,0.06,0.27,0.15,0.35
				c0.09,0.09,0.23,0.15,0.35,0.15c0.13-0.01,0.26-0.05,0.35-0.15c0.09-0.1,0.13-0.21,0.15-0.35c0.05-0.52,0.1-1.03,0.15-1.55
				c0.01-0.12-0.06-0.27-0.15-0.35c-0.09-0.09-0.23-0.15-0.35-0.15c-0.13,0.01-0.26,0.05-0.35,0.15
				C261.22,144.22,261.18,144.33,261.17,144.47L261.17,144.47z"/>
		</g>
	</g>
	<g>
		<g>
			<path class="st1" d="M260.88,147.71c-0.07,0.37-0.1,0.75-0.06,1.12c0,0.07,0.01,0.13,0.04,0.19c0.02,0.06,0.05,0.12,0.1,0.16
				c0.09,0.09,0.23,0.15,0.35,0.15c0.13-0.01,0.26-0.05,0.35-0.15c0.08-0.09,0.16-0.22,0.15-0.35c-0.03-0.27-0.03-0.53,0.01-0.8
				c-0.01,0.04-0.01,0.09-0.02,0.13c0.01-0.06,0.02-0.13,0.03-0.19c0.03-0.13,0.02-0.26-0.05-0.39c-0.06-0.1-0.18-0.2-0.3-0.23
				c-0.13-0.03-0.27-0.02-0.39,0.05C261.01,147.48,260.91,147.59,260.88,147.71L260.88,147.71z"/>
		</g>
	</g>
	<g>
		<g>
			<path class="st1" d="M260.69,150.45c0,0,0,0.01,0,0.01c-0.01-0.04-0.01-0.09-0.02-0.13c0.02,0.17,0.02,0.34,0,0.51
				c0.01-0.04,0.01-0.09,0.02-0.13c-0.01,0.06-0.02,0.12-0.03,0.19c-0.03,0.13-0.02,0.27,0.05,0.39c0.03,0.06,0.07,0.11,0.13,0.14
				c0.05,0.04,0.1,0.07,0.17,0.09c0.13,0.03,0.27,0.02,0.39-0.05c0.11-0.07,0.2-0.17,0.23-0.3c0.04-0.16,0.06-0.32,0.07-0.49
				c0.01-0.17-0.01-0.33-0.04-0.49c-0.02-0.07-0.05-0.12-0.09-0.17c-0.04-0.05-0.08-0.1-0.14-0.13c-0.06-0.04-0.12-0.06-0.19-0.06
				c-0.07-0.01-0.13-0.01-0.2,0.01c-0.12,0.04-0.24,0.11-0.3,0.23c-0.02,0.04-0.03,0.08-0.05,0.12
				C260.67,150.27,260.67,150.36,260.69,150.45L260.69,150.45z"/>
		</g>
	</g>
	<g>
		<g>
			<path class="st1" d="M259.75,151.13c-0.66-0.2-1.34-0.22-2.02-0.11c-0.12,0.02-0.24,0.13-0.3,0.23
				c-0.06,0.11-0.09,0.27-0.05,0.39c0.04,0.12,0.11,0.24,0.23,0.3c0.13,0.07,0.25,0.07,0.39,0.05c0.04-0.01,0.09-0.01,0.13-0.02
				c-0.04,0.01-0.09,0.01-0.13,0.02c0.34-0.04,0.68-0.04,1.02,0c-0.04-0.01-0.09-0.01-0.13-0.02c0.21,0.03,0.41,0.07,0.61,0.13
				c0.25,0.07,0.56-0.09,0.62-0.35C260.16,151.47,260.02,151.21,259.75,151.13L259.75,151.13z"/>
		</g>
	</g>
	<g>
		<g>
			<path class="st1" d="M256.58,151.22c-0.2-0.12-0.45-0.17-0.68-0.15c-0.21,0.02-0.41,0.07-0.61,0.09
				c0.04-0.01,0.09-0.01,0.13-0.02c-0.09,0.01-0.18,0.01-0.27,0c0.04,0.01,0.09,0.01,0.13,0.02c-0.07-0.01-0.13-0.03-0.2-0.05
				c0.04,0.02,0.08,0.03,0.12,0.05c-0.02-0.01-0.05-0.02-0.07-0.03c-0.09-0.05,0.06,0.06,0.03,0.03c-0.01-0.02-0.03-0.03-0.04-0.05
				c0.1,0.1,0.06,0.08,0.03,0.02c0.02,0.04,0.03,0.08,0.05,0.12c-0.01-0.03-0.02-0.06-0.03-0.09c-0.02-0.12-0.13-0.24-0.23-0.3
				c-0.11-0.06-0.27-0.09-0.39-0.05c-0.12,0.04-0.24,0.11-0.3,0.23c-0.07,0.13-0.08,0.25-0.05,0.39c0.06,0.36,0.4,0.62,0.74,0.69
				c0.14,0.03,0.3,0.05,0.44,0.03c0.19-0.02,0.37-0.06,0.55-0.09c-0.04,0.01-0.09,0.01-0.13,0.02c0.1-0.01,0.19-0.02,0.29,0
				c-0.04-0.01-0.09-0.01-0.13-0.02c0.05,0.01,0.1,0.02,0.15,0.04c-0.04-0.02-0.08-0.03-0.12-0.05c0.02,0.01,0.05,0.02,0.07,0.04
				c0.23,0.13,0.56,0.06,0.68-0.18C256.89,151.67,256.82,151.36,256.58,151.22L256.58,151.22z"/>
		</g>
	</g>
	<g>
		<g>
			<path class="st1" d="M253.22,151.24c-0.49-0.05-0.99-0.09-1.48-0.14c-0.12-0.01-0.27,0.06-0.35,0.15
				c-0.09,0.09-0.15,0.23-0.15,0.35c0.01,0.13,0.05,0.26,0.15,0.35c0.1,0.09,0.21,0.13,0.35,0.15c0.49,0.05,0.99,0.09,1.48,0.14
				c0.12,0.01,0.27-0.06,0.35-0.15c0.09-0.09,0.15-0.23,0.15-0.35c-0.01-0.13-0.05-0.26-0.15-0.35
				C253.47,151.3,253.36,151.26,253.22,151.24L253.22,151.24z"/>
		</g>
	</g>
	<g>
		<g>
			<path class="st1" d="M222.67,152.93c0.77-0.03,1.55-0.01,2.32,0.07c0.26,0.03,0.51-0.25,0.5-0.5c-0.01-0.29-0.22-0.47-0.5-0.5
				c-0.77-0.08-1.55-0.11-2.32-0.07c-0.26,0.01-0.51,0.22-0.5,0.5C222.19,152.69,222.39,152.94,222.67,152.93L222.67,152.93z"/>
		</g>
	</g>
	<g>
		<g>
			<path class="st1" d="M226.83,153c0.82-0.03,1.65-0.09,2.47-0.18c0.26-0.03,0.51-0.21,0.5-0.5c-0.01-0.25-0.22-0.53-0.5-0.5
				c-0.82,0.09-1.64,0.15-2.47,0.18c-0.26,0.01-0.51,0.22-0.5,0.5C226.34,152.76,226.55,153.01,226.83,153L226.83,153z"/>
		</g>
	</g>
	<g>
		<g>
			<path class="st1" d="M232.09,153.02c0.21-0.05,0.42-0.09,0.63-0.12c0,0,0.16-0.02,0.06-0.01c0.05-0.01,0.1-0.01,0.15-0.02
				c0.11-0.01,0.21-0.02,0.32-0.03c0.42-0.03,0.83-0.03,1.25,0c0.26,0.02,0.51-0.24,0.5-0.5c-0.01-0.29-0.22-0.48-0.5-0.5
				c-0.89-0.06-1.79,0.02-2.67,0.21c-0.26,0.06-0.43,0.37-0.35,0.62C231.56,152.94,231.82,153.08,232.09,153.02L232.09,153.02z"/>
		</g>
	</g>
	<g>
		<g>
			<path class="st1" d="M236.68,152.68c0.75-0.05,1.5-0.1,2.26-0.16c0.26-0.02,0.51-0.22,0.5-0.5c-0.01-0.26-0.22-0.52-0.5-0.5
				c-0.75,0.05-1.5,0.1-2.26,0.16c-0.26,0.02-0.51,0.22-0.5,0.5C236.19,152.43,236.4,152.7,236.68,152.68L236.68,152.68z"/>
		</g>
	</g>
	<g>
		<g>
			<path class="st1" d="M242.1,152.43c0.52,0.01,1.04,0.03,1.56,0.03c0.46,0,0.99-0.12,1.22-0.57c0.12-0.23,0.07-0.55-0.18-0.68
				c-0.23-0.12-0.56-0.07-0.68,0.18c-0.01,0.02-0.02,0.04-0.03,0.05c0.05-0.06,0.06-0.07,0.03-0.03c-0.06,0.06,0.11-0.06-0.01,0.01
				c-0.02,0.01-0.03,0.02-0.05,0.03c0.07-0.03,0.09-0.04,0.05-0.02c-0.03,0-0.07,0.02-0.1,0.03c-0.02,0-0.04,0.01-0.06,0.01
				c0.08-0.01,0.09-0.01,0.04-0.01c-0.04,0-0.08,0.01-0.13,0.01c-0.08,0-0.17,0-0.25,0c-0.47-0.01-0.94-0.02-1.41-0.03
				c-0.26-0.01-0.51,0.23-0.5,0.5C241.61,152.2,241.82,152.42,242.1,152.43L242.1,152.43z"/>
		</g>
	</g>
	<g>
		<g>
			<path class="st1" d="M247.17,152.12c0.37-0.02,0.74-0.02,1.11,0.01c0.09,0.01,0.17,0.02,0.26,0.03c0.03,0,0.06,0.01,0.08,0.01
				c-0.06-0.01-0.06-0.01-0.03,0c0.05,0.01,0.1,0.01,0.15,0.02c0.18,0.03,0.36,0.07,0.55,0.11c0.25,0.06,0.55-0.08,0.62-0.35
				c0.06-0.26-0.08-0.55-0.35-0.62c-0.78-0.19-1.59-0.26-2.38-0.21c-0.26,0.02-0.51,0.22-0.5,0.5
				C246.68,151.87,246.89,152.13,247.17,152.12L247.17,152.12z"/>
		</g>
	</g>
	<g>
		<g>
			<path class="st1" d="M222.9,151.97c0.8,0.12,1.61,0.09,2.39-0.13c0.25-0.07,0.43-0.36,0.35-0.62c-0.08-0.26-0.35-0.43-0.62-0.35
				c-0.17,0.05-0.33,0.09-0.5,0.12c-0.04,0.01-0.08,0.01-0.12,0.02c-0.06,0.01-0.05,0.01,0.01,0c-0.02,0-0.04,0-0.06,0.01
				c-0.09,0.01-0.17,0.02-0.26,0.02c-0.17,0.01-0.34,0.01-0.52,0c-0.08,0-0.16-0.01-0.24-0.02c-0.04,0-0.08-0.01-0.12-0.01
				c-0.06-0.01-0.05-0.01,0.01,0c-0.03,0-0.05-0.01-0.08-0.01c-0.14-0.02-0.26-0.02-0.39,0.05c-0.1,0.06-0.2,0.18-0.23,0.3
				C222.49,151.6,222.62,151.93,222.9,151.97L222.9,151.97z"/>
		</g>
	</g>
	<g>
		<g>
			<path class="st1" d="M227.94,151.68c0.05-0.01,0.1-0.02,0.15-0.02c0.04-0.01,0.03,0-0.02,0c0.02,0,0.04-0.01,0.07-0.01
				c0.1-0.01,0.19-0.02,0.29-0.03c0.19-0.02,0.37-0.03,0.56-0.03c0.38-0.01,0.76,0.01,1.14,0.06c0.26,0.03,0.51-0.25,0.5-0.5
				c-0.01-0.3-0.22-0.47-0.5-0.5c-0.82-0.1-1.64-0.06-2.45,0.07c-0.26,0.04-0.43,0.38-0.35,0.62
				C227.42,151.61,227.66,151.72,227.94,151.68L227.94,151.68z"/>
		</g>
	</g>
	<g>
		<g>
			<path class="st1" d="M236.47,151.3c0.73-0.3,1.48-0.52,2.26-0.66c0.26-0.05,0.43-0.37,0.35-0.62c-0.09-0.28-0.34-0.4-0.62-0.35
				c-0.77,0.14-1.53,0.36-2.26,0.66c-0.13,0.05-0.23,0.11-0.3,0.23c-0.06,0.11-0.09,0.27-0.05,0.39
				C235.93,151.19,236.21,151.41,236.47,151.3L236.47,151.3z"/>
		</g>
	</g>
	<g>
		<g>
			<path class="st1" d="M241.32,149.65c0.98-0.18,1.94-0.44,2.87-0.79c0.24-0.09,0.44-0.34,0.35-0.62
				c-0.08-0.24-0.35-0.45-0.62-0.35c-0.93,0.35-1.89,0.62-2.87,0.79c-0.26,0.05-0.43,0.37-0.35,0.62
				C240.79,149.58,241.04,149.7,241.32,149.65L241.32,149.65z"/>
		</g>
	</g>
	<g>
		<g>
			<path class="st1" d="M245.69,148.59c1.02-0.1,2-0.44,2.83-1.05c0.21-0.15,0.34-0.44,0.18-0.68c-0.13-0.21-0.46-0.34-0.68-0.18
				c-0.18,0.13-0.36,0.25-0.56,0.36c-0.1,0.06-0.21,0.11-0.32,0.16c-0.02,0.01-0.19,0.08-0.08,0.04c-0.05,0.02-0.1,0.04-0.14,0.06
				c-0.21,0.08-0.42,0.14-0.63,0.2c-0.11,0.03-0.22,0.05-0.33,0.07c-0.02,0-0.21,0.03-0.09,0.01c-0.06,0.01-0.12,0.01-0.18,0.02
				c-0.26,0.02-0.51,0.21-0.5,0.5C245.21,148.34,245.42,148.62,245.69,148.59L245.69,148.59z"/>
		</g>
	</g>
	<g>
		<g>
			<path class="st1" d="M250.62,146.99c0.88-0.11,1.73-0.38,2.49-0.84c0.22-0.14,0.33-0.45,0.18-0.68
				c-0.14-0.22-0.44-0.32-0.68-0.18c-0.17,0.1-0.35,0.2-0.53,0.28c-0.04,0.02-0.07,0.03-0.11,0.05c-0.02,0.01-0.05,0.02-0.07,0.03
				c0.06-0.02,0.06-0.03,0.01,0c-0.09,0.03-0.17,0.07-0.26,0.1c-0.18,0.06-0.35,0.11-0.54,0.16c-0.09,0.02-0.18,0.04-0.27,0.06
				c-0.05,0.01-0.1,0.02-0.16,0.03c-0.03,0-0.05,0.01-0.08,0.01c0.07-0.01,0.07-0.01,0.01,0c-0.14,0.02-0.25,0.04-0.35,0.15
				c-0.09,0.09-0.15,0.23-0.15,0.35C250.13,146.74,250.34,147.03,250.62,146.99L250.62,146.99z"/>
		</g>
	</g>
	<g>
		<g>
			<path class="st1" d="M254.63,145.4c0.77-0.09,1.51-0.34,2.15-0.78c0.21-0.15,0.33-0.44,0.18-0.68c-0.14-0.21-0.45-0.34-0.68-0.18
				c-0.14,0.09-0.28,0.18-0.42,0.26c-0.08,0.04-0.16,0.08-0.24,0.12c-0.01,0-0.02,0.01-0.03,0.01c-0.05,0.02-0.04,0.02,0.03-0.01
				c-0.02,0.02-0.09,0.04-0.12,0.05c-0.15,0.06-0.31,0.11-0.47,0.15c-0.07,0.02-0.15,0.03-0.23,0.05c-0.04,0.01-0.09,0.01-0.13,0.02
				c-0.06,0.01-0.04,0.01,0.03,0c-0.02,0-0.04,0.01-0.07,0.01c-0.14,0.02-0.25,0.05-0.35,0.15c-0.09,0.09-0.15,0.23-0.15,0.35
				C254.14,145.14,254.35,145.43,254.63,145.4L254.63,145.4z"/>
		</g>
	</g>
	<g>
		<g>
			<path class="st1" d="M258.55,143.86c0.56-0.27,1.11-0.54,1.67-0.81c0.24-0.11,0.32-0.47,0.18-0.68c-0.16-0.24-0.43-0.3-0.68-0.18
				c-0.56,0.27-1.11,0.54-1.67,0.81c-0.24,0.11-0.32,0.47-0.18,0.68C258.02,143.93,258.3,143.98,258.55,143.86L258.55,143.86z"/>
		</g>
	</g>
	<g>
		<g>
			<path class="st1" d="M232.39,151.37c0.57,0.04,1.15-0.02,1.69-0.18c0.25-0.07,0.43-0.36,0.35-0.62
				c-0.08-0.25-0.35-0.43-0.62-0.35c-0.21,0.06-0.43,0.11-0.66,0.14c0.04-0.01,0.09-0.01,0.13-0.02c-0.3,0.04-0.6,0.05-0.9,0.03
				c-0.26-0.02-0.51,0.24-0.5,0.5C231.9,151.16,232.11,151.35,232.39,151.37L232.39,151.37z"/>
		</g>
	</g>
	<g>
		<g>
			<path class="st1" d="M258.74,143.97c0.43,0.82,0.98,1.57,1.6,2.25c0.18,0.19,0.53,0.19,0.71,0c0.19-0.21,0.19-0.5,0-0.71
				c-0.15-0.16-0.29-0.32-0.43-0.49c-0.03-0.04-0.06-0.08-0.1-0.12c-0.04-0.05-0.02-0.02,0.01,0.01c-0.02-0.02-0.04-0.05-0.06-0.08
				c-0.07-0.09-0.13-0.17-0.19-0.26c-0.25-0.36-0.48-0.73-0.68-1.11c-0.12-0.23-0.46-0.32-0.68-0.18
				C258.69,143.44,258.61,143.72,258.74,143.97L258.74,143.97z"/>
		</g>
	</g>
	<g>
		<g>
			<path class="st1" d="M257.05,145.17c0.73,1.28,1.45,2.56,2.18,3.83c0.32,0.56,1.18,0.06,0.86-0.5c-0.73-1.28-1.45-2.56-2.18-3.83
				C257.59,144.11,256.73,144.61,257.05,145.17L257.05,145.17z"/>
		</g>
	</g>
	<g>
		<g>
			<path class="st1" d="M255.16,145.93c0.73,1.62,1.46,3.23,2.19,4.85c0.11,0.25,0.47,0.31,0.68,0.18c0.25-0.15,0.29-0.44,0.18-0.68
				c-0.73-1.62-1.46-3.23-2.19-4.85c-0.11-0.25-0.47-0.31-0.68-0.18C255.08,145.4,255.05,145.69,255.16,145.93L255.16,145.93z"/>
		</g>
	</g>
	<g>
		<g>
			<path class="st1" d="M252.32,147.2c0.03,0.03,0.05,0.06,0.08,0.09c0.05,0.07-0.06-0.09,0.02,0.03c0.04,0.06,0.08,0.12,0.12,0.18
				c0.08,0.12,0.14,0.25,0.2,0.38c0.02,0.04,0.03,0.07,0.05,0.11c0.04,0.08,0-0.01,0.02,0.04c0.03,0.07,0.06,0.14,0.08,0.21
				c0.06,0.15,0.11,0.29,0.16,0.44c0.23,0.63,0.48,1.24,0.91,1.76c0.17,0.21,0.53,0.18,0.71,0c0.21-0.21,0.17-0.5,0-0.71
				c-0.05-0.07,0,0.01-0.03-0.03c-0.02-0.03-0.05-0.07-0.07-0.1c-0.04-0.06-0.08-0.12-0.11-0.18c-0.07-0.13-0.14-0.26-0.2-0.39
				c-0.02-0.04-0.03-0.07-0.05-0.11c0.03,0.06-0.01-0.01-0.02-0.04c-0.03-0.07-0.05-0.14-0.08-0.21c-0.06-0.15-0.11-0.29-0.16-0.44
				c-0.23-0.63-0.49-1.23-0.93-1.74c-0.18-0.2-0.53-0.18-0.71,0C252.12,146.7,252.14,147,252.32,147.2L252.32,147.2z"/>
		</g>
	</g>
	<g>
		<g>
			<path class="st1" d="M249.35,147.33c0.55,1.25,1.14,2.48,1.77,3.69c0.11,0.22,0.41,0.3,0.62,0.2c0.25-0.11,0.33-0.34,0.29-0.59
				c-0.04-0.29-0.09-0.58-0.13-0.87c-0.04-0.27-0.38-0.41-0.62-0.35c-0.29,0.08-0.39,0.35-0.35,0.62c0.04,0.29,0.09,0.58,0.13,0.87
				c0.3-0.13,0.61-0.26,0.91-0.39c-0.63-1.21-1.22-2.44-1.77-3.69c-0.11-0.25-0.47-0.3-0.68-0.18
				C249.27,146.79,249.24,147.08,249.35,147.33L249.35,147.33z"/>
		</g>
	</g>
	<g>
		<g>
			<path class="st1" d="M246.68,148.69c0.21,0.97,0.67,1.87,1.32,2.63c0.17,0.2,0.53,0.19,0.71,0c0.2-0.21,0.18-0.49,0-0.71
				c-0.04-0.04-0.07-0.08-0.1-0.12c-0.02-0.02-0.03-0.04-0.05-0.06c0.03,0.03,0.04,0.05,0,0c-0.06-0.09-0.13-0.17-0.19-0.27
				c-0.12-0.19-0.23-0.38-0.33-0.58c-0.02-0.05-0.05-0.1-0.07-0.15c-0.01-0.02-0.02-0.05-0.03-0.07c0-0.01-0.04-0.09-0.01-0.03
				c0.02,0.06-0.01-0.02-0.01-0.03c-0.01-0.03-0.02-0.05-0.03-0.08c-0.02-0.05-0.04-0.1-0.06-0.15c-0.07-0.21-0.13-0.43-0.18-0.64
				c-0.06-0.26-0.37-0.43-0.62-0.35C246.76,148.16,246.62,148.42,246.68,148.69L246.68,148.69z"/>
		</g>
	</g>
	<g>
		<g>
			<path class="st1" d="M244.28,148.95c0.47,0.77,0.99,1.51,1.54,2.22c0.07,0.09,0.24,0.15,0.35,0.15c0.12,0,0.27-0.05,0.35-0.15
				c0.09-0.1,0.15-0.22,0.15-0.35c-0.01-0.14-0.06-0.24-0.15-0.35c-0.01-0.02-0.12-0.15-0.04-0.06c-0.03-0.04-0.06-0.08-0.1-0.13
				c-0.06-0.08-0.13-0.17-0.19-0.25c-0.13-0.17-0.25-0.34-0.37-0.52c-0.24-0.35-0.47-0.7-0.69-1.07c-0.14-0.22-0.45-0.33-0.68-0.18
				C244.24,148.41,244.14,148.71,244.28,148.95L244.28,148.95z"/>
		</g>
	</g>
	<g>
		<g>
			<path class="st1" d="M241.98,150.24c0.14,0.66,0.49,1.29,0.99,1.75c0.19,0.18,0.52,0.2,0.71,0c0.18-0.19,0.21-0.52,0-0.71
				c-0.12-0.11-0.22-0.22-0.32-0.35c0.03,0.03,0.05,0.07,0.08,0.1c-0.15-0.2-0.28-0.41-0.38-0.64c0.02,0.04,0.03,0.08,0.05,0.12
				c-0.07-0.18-0.13-0.36-0.17-0.54c-0.05-0.26-0.37-0.43-0.62-0.35C242.05,149.71,241.92,149.96,241.98,150.24L241.98,150.24z"/>
		</g>
	</g>
	<g>
		<g>
			<path class="st1" d="M239.3,150.02c0.1,0.31,0.24,0.62,0.43,0.89c0.22,0.3,0.47,0.55,0.77,0.77c0.1,0.07,0.27,0.08,0.39,0.05
				c0.12-0.03,0.24-0.12,0.3-0.23c0.06-0.12,0.09-0.26,0.05-0.39c-0.04-0.13-0.12-0.22-0.23-0.3c-0.02-0.02-0.05-0.03-0.07-0.05
				c0.03,0.03,0.07,0.05,0.1,0.08c-0.18-0.14-0.33-0.29-0.47-0.47c0.03,0.03,0.05,0.07,0.08,0.1c-0.14-0.18-0.25-0.37-0.34-0.57
				c0.02,0.04,0.03,0.08,0.05,0.12c-0.04-0.09-0.07-0.17-0.1-0.26c-0.04-0.12-0.12-0.23-0.23-0.3c-0.11-0.06-0.27-0.09-0.39-0.05
				C239.4,149.49,239.22,149.76,239.3,150.02L239.3,150.02z"/>
		</g>
	</g>
</g>
<g class="st2">
	<g class="st3">
		<g>
			<path class="st1" d="M481.75,130.17c-0.18,0.52-0.26,1.1-0.22,1.65c0.01,0.13,0.05,0.26,0.15,0.35c0.09,0.09,0.23,0.15,0.35,0.15
				c0.25-0.01,0.52-0.22,0.5-0.5c-0.02-0.26-0.01-0.52,0.02-0.78c-0.01,0.04-0.01,0.09-0.02,0.13c0.03-0.25,0.09-0.5,0.18-0.73
				c0.09-0.25-0.1-0.56-0.35-0.62C482.08,129.76,481.84,129.9,481.75,130.17L481.75,130.17z"/>
		</g>
	</g>
	<g class="st3">
		<g>
			<path class="st1" d="M481.63,134.17c-0.08,0.79-0.16,1.58-0.24,2.37c-0.03,0.26,0.25,0.51,0.5,0.5c0.29-0.01,0.47-0.22,0.5-0.5
				c0.08-0.79,0.16-1.58,0.24-2.37c0.03-0.26-0.25-0.51-0.5-0.5C481.84,133.69,481.66,133.89,481.63,134.17L481.63,134.17z"/>
		</g>
	</g>
	<g class="st3">
		<g>
			<path class="st1" d="M481.18,139.22c-0.1,0.54-0.14,1.1-0.08,1.65c0.01,0.14,0.05,0.25,0.15,0.35c0.09,0.09,0.23,0.15,0.35,0.15
				c0.13-0.01,0.26-0.05,0.35-0.15c0.08-0.09,0.16-0.22,0.15-0.35c-0.04-0.41-0.04-0.82,0.01-1.23c-0.01,0.04-0.01,0.09-0.02,0.13
				c0.01-0.1,0.03-0.19,0.05-0.29c0.03-0.13,0.02-0.26-0.05-0.39c-0.06-0.1-0.18-0.2-0.3-0.23
				C481.55,138.81,481.24,138.94,481.18,139.22L481.18,139.22z"/>
		</g>
	</g>
	<g class="st3">
		<g>
			<path class="st1" d="M480.89,143.27c0,0.01,0,0.01,0,0.02c-0.01-0.04-0.01-0.09-0.02-0.13c0.03,0.26,0.04,0.52,0,0.78
				c0.01-0.04,0.01-0.09,0.02-0.13c-0.01,0.1-0.03,0.19-0.05,0.29c-0.03,0.13-0.02,0.27,0.05,0.39c0.06,0.1,0.18,0.2,0.3,0.23
				c0.13,0.03,0.27,0.02,0.39-0.05c0.11-0.07,0.2-0.17,0.23-0.3c0.05-0.22,0.08-0.45,0.09-0.68c0.01-0.23-0.01-0.45-0.04-0.68
				c-0.02-0.11-0.13-0.24-0.23-0.3c-0.11-0.06-0.27-0.09-0.39-0.05c-0.12,0.04-0.24,0.11-0.3,0.23c-0.02,0.04-0.03,0.08-0.05,0.12
				C480.86,143.09,480.86,143.18,480.89,143.27L480.89,143.27z"/>
		</g>
	</g>
	<g class="st3">
		<g>
			<path class="st1" d="M479.12,144.64c-0.96-0.29-1.97-0.34-2.96-0.17c-0.26,0.04-0.43,0.38-0.35,0.62
				c0.09,0.28,0.34,0.39,0.62,0.35c0.03-0.01,0.07-0.01,0.1-0.02c0.06-0.01,0.07-0.01,0.03,0c-0.03,0-0.02,0,0.03,0
				c0.03,0,0.07-0.01,0.1-0.01c0.1-0.01,0.2-0.02,0.3-0.02c0.22-0.01,0.44-0.01,0.65,0.01c0.1,0.01,0.2,0.02,0.3,0.03
				c0.06,0.01,0.07,0.01,0.02,0c0.02,0,0.05,0.01,0.07,0.01c0.06,0.01,0.12,0.02,0.17,0.03c0.21,0.04,0.43,0.09,0.64,0.15
				c0.25,0.07,0.56-0.09,0.62-0.35C479.53,144.99,479.39,144.72,479.12,144.64L479.12,144.64z"/>
		</g>
	</g>
	<g class="st3">
		<g>
			<path class="st1" d="M474.19,144.76c-0.28-0.16-0.6-0.22-0.91-0.19c-0.17,0.01-0.34,0.04-0.51,0.07
				c-0.06,0.01-0.13,0.02-0.19,0.03c-0.03,0.01-0.07,0.01-0.1,0.02c-0.11,0.02,0.07,0,0.02,0c-0.1,0-0.2,0.01-0.3,0
				c-0.08,0,0.03-0.01,0.04,0.01c-0.01-0.01-0.07-0.01-0.08-0.01c-0.05-0.01-0.1-0.03-0.15-0.04c-0.05-0.01,0.11,0.06,0.02,0.01
				c-0.02-0.01-0.03-0.02-0.05-0.03c-0.02-0.01-0.08-0.06-0.02-0.01c0.06,0.06,0,0-0.01-0.02c-0.01-0.01-0.07-0.07-0.02-0.01
				c0.08,0.08-0.02-0.02-0.01-0.02c0.01,0.01,0.03,0.11,0.02,0.04c-0.01-0.03-0.02-0.06-0.02-0.09c-0.05-0.26-0.37-0.43-0.62-0.35
				c-0.28,0.09-0.4,0.34-0.35,0.62c0.11,0.62,0.76,0.89,1.32,0.91c0.29,0.01,0.57-0.06,0.85-0.11c0.03-0.01,0.07-0.01,0.1-0.02
				c0.06-0.01-0.09,0.01,0.01,0c0.07-0.01,0.14-0.01,0.21-0.01c0.02,0,0.1,0,0.12,0.01c-0.02,0-0.04,0-0.05-0.01
				c0.02,0,0.04,0.01,0.06,0.01c0.03,0.01,0.06,0.02,0.09,0.03c-0.08-0.03-0.02,0,0.03,0.02c0.23,0.13,0.56,0.06,0.68-0.18
				C474.5,145.2,474.43,144.9,474.19,144.76L474.19,144.76z"/>
		</g>
	</g>
	<g class="st3">
		<g>
			<path class="st1" d="M469.17,144.83c-0.76-0.07-1.51-0.14-2.27-0.21c-0.26-0.02-0.51,0.25-0.5,0.5c0.01,0.29,0.22,0.47,0.5,0.5
				c0.76,0.07,1.51,0.14,2.27,0.21c0.26,0.02,0.51-0.25,0.5-0.5C469.66,145.04,469.45,144.86,469.17,144.83L469.17,144.83z"/>
		</g>
	</g>
	<g class="st3">
		<g>
			<path class="st1" d="M422.3,146.88c1.19-0.05,2.38-0.01,3.56,0.11c0.27,0.03,0.5-0.25,0.5-0.5c0-0.29-0.23-0.47-0.5-0.5
				c-1.18-0.13-2.37-0.16-3.56-0.11c-0.27,0.01-0.5,0.22-0.5,0.5C421.8,146.65,422.03,146.9,422.3,146.88L422.3,146.88z"/>
		</g>
	</g>
	<g class="st3">
		<g>
			<path class="st1" d="M428.68,146.98c1.26-0.05,2.53-0.14,3.78-0.28c0.27-0.03,0.5-0.21,0.5-0.5c0-0.25-0.23-0.53-0.5-0.5
				c-1.26,0.14-2.52,0.23-3.78,0.28c-0.27,0.01-0.5,0.22-0.5,0.5C428.18,146.75,428.4,146.99,428.68,146.98L428.68,146.98z"/>
		</g>
	</g>
	<g class="st3">
		<g>
			<path class="st1" d="M436.68,147.03c1.23-0.27,2.5-0.36,3.76-0.28c0.27,0.02,0.5-0.24,0.5-0.5c0-0.29-0.23-0.48-0.5-0.5
				c-1.35-0.09-2.71,0.02-4.02,0.31c-0.26,0.06-0.42,0.36-0.35,0.62C436.14,146.95,436.42,147.09,436.68,147.03L436.68,147.03z"/>
		</g>
	</g>
	<g class="st3">
		<g>
			<path class="st1" d="M443.79,146.5c1.15-0.08,2.31-0.16,3.46-0.24c0.27-0.02,0.5-0.22,0.5-0.5c0-0.26-0.23-0.52-0.5-0.5
				c-1.15,0.08-2.31,0.16-3.46,0.24c-0.27,0.02-0.5,0.22-0.5,0.5C443.29,146.25,443.52,146.51,443.79,146.5L443.79,146.5z"/>
		</g>
	</g>
	<g class="st3">
		<g>
			<path class="st1" d="M452.11,146.11c0.8,0.02,1.6,0.05,2.4,0.05c0.62,0,1.33-0.14,1.64-0.74c0.12-0.24,0.06-0.54-0.18-0.68
				c-0.22-0.13-0.56-0.06-0.68,0.18c-0.01,0.03-0.03,0.05-0.04,0.08c0.04-0.04,0.03-0.04,0,0c-0.04,0.04-0.04,0.04,0,0.01
				c-0.02,0.02-0.05,0.03-0.07,0.05c-0.03,0.01-0.05,0.03-0.08,0.04c0.04-0.02,0.05-0.02,0.01-0.01c-0.05,0.02-0.1,0.03-0.16,0.04
				c-0.03,0.01-0.06,0.01-0.09,0.02c0.05-0.01,0.05-0.01-0.01,0c-0.06,0.01-0.13,0.01-0.19,0.01c-0.13,0-0.25,0-0.38,0
				c-0.72-0.01-1.44-0.03-2.16-0.04c-0.27-0.01-0.5,0.23-0.5,0.5C451.61,145.88,451.84,146.1,452.11,146.11L452.11,146.11z"/>
		</g>
	</g>
	<g class="st3">
		<g>
			<path class="st1" d="M459.88,145.63c1.12-0.07,2.23,0.02,3.32,0.28c0.26,0.06,0.54-0.08,0.62-0.35c0.07-0.25-0.09-0.55-0.35-0.62
				c-1.17-0.28-2.38-0.39-3.59-0.32c-0.27,0.02-0.5,0.22-0.5,0.5C459.38,145.39,459.61,145.65,459.88,145.63L459.88,145.63z"/>
		</g>
	</g>
	<g class="st3">
		<g>
			<path class="st1" d="M422.72,145.42c1.18,0.18,2.37,0.12,3.53-0.2c0.26-0.07,0.42-0.35,0.35-0.62c-0.07-0.26-0.35-0.42-0.62-0.35
				c-0.97,0.27-2.02,0.35-2.99,0.2c-0.26-0.04-0.55,0.06-0.62,0.35C422.31,145.04,422.44,145.38,422.72,145.42L422.72,145.42z"/>
		</g>
	</g>
	<g class="st3">
		<g>
			<path class="st1" d="M430.31,144.97c1.13-0.18,2.29-0.19,3.43-0.06c0.27,0.03,0.5-0.25,0.5-0.5c0-0.3-0.23-0.47-0.5-0.5
				c-1.23-0.14-2.47-0.1-3.69,0.09c-0.27,0.04-0.42,0.38-0.35,0.62C429.78,144.91,430.04,145.01,430.31,144.97L430.31,144.97z"/>
		</g>
	</g>
	<g class="st3">
		<g>
			<path class="st1" d="M443.4,144.39c1.12-0.46,2.28-0.8,3.46-1.02c0.27-0.05,0.42-0.37,0.35-0.62c-0.08-0.28-0.35-0.4-0.62-0.35
				c-1.19,0.22-2.35,0.56-3.46,1.02c-0.25,0.1-0.43,0.33-0.35,0.62C442.85,144.28,443.14,144.5,443.4,144.39L443.4,144.39z"/>
		</g>
	</g>
	<g class="st3">
		<g>
			<path class="st1" d="M450.83,141.86c1.5-0.27,2.98-0.68,4.41-1.22c0.25-0.1,0.43-0.34,0.35-0.62c-0.07-0.24-0.36-0.44-0.62-0.35
				c-1.43,0.54-2.91,0.95-4.41,1.22c-0.27,0.05-0.42,0.37-0.35,0.62C450.3,141.79,450.57,141.91,450.83,141.86L450.83,141.86z"/>
		</g>
	</g>
	<g class="st3">
		<g>
			<path class="st1" d="M457.62,140.22c1.51-0.14,2.97-0.67,4.2-1.57c0.22-0.16,0.33-0.43,0.18-0.68c-0.13-0.21-0.47-0.34-0.68-0.18
				c-1.08,0.79-2.36,1.31-3.7,1.43c-0.27,0.03-0.5,0.21-0.5,0.5C457.12,139.97,457.35,140.25,457.62,140.22L457.62,140.22z"/>
		</g>
	</g>
	<g class="st3">
		<g>
			<path class="st1" d="M465.18,137.77c1.31-0.16,2.56-0.57,3.69-1.26c0.23-0.14,0.32-0.45,0.18-0.68
				c-0.14-0.23-0.45-0.32-0.68-0.18c-0.97,0.59-2.09,0.99-3.19,1.12c-0.27,0.03-0.5,0.21-0.5,0.5
				C464.68,137.52,464.91,137.81,465.18,137.77L465.18,137.77z"/>
		</g>
	</g>
	<g class="st3">
		<g>
			<path class="st1" d="M471.33,135.32c1.13-0.13,2.22-0.51,3.16-1.16c0.21-0.15,0.33-0.44,0.18-0.68
				c-0.14-0.21-0.45-0.34-0.68-0.18c-0.21,0.14-0.42,0.28-0.65,0.4c-0.12,0.06-0.24,0.12-0.36,0.18c-0.01,0.01-0.14,0.06-0.07,0.03
				c-0.06,0.03-0.13,0.05-0.19,0.07c-0.24,0.09-0.48,0.16-0.72,0.22c-0.11,0.03-0.23,0.05-0.35,0.07c-0.07,0.01-0.13,0.02-0.2,0.03
				c-0.06,0.01-0.07,0.01-0.02,0c-0.03,0-0.07,0.01-0.1,0.01c-0.26,0.03-0.51,0.21-0.5,0.5
				C470.85,135.07,471.06,135.36,471.33,135.32L471.33,135.32z"/>
		</g>
	</g>
	<g class="st3">
		<g>
			<path class="st1" d="M477.21,133.01c0.86-0.41,1.71-0.83,2.57-1.24c0.24-0.11,0.32-0.47,0.18-0.68c-0.16-0.24-0.43-0.3-0.68-0.18
				c-0.86,0.41-1.71,0.83-2.57,1.24c-0.24,0.11-0.32,0.47-0.18,0.68C476.68,133.07,476.96,133.13,477.21,133.01L477.21,133.01z"/>
		</g>
	</g>
	<g class="st3">
		<g>
			<path class="st1" d="M437.21,144.49c0.85,0.06,1.71-0.03,2.52-0.27c0.25-0.07,0.43-0.36,0.35-0.62
				c-0.08-0.25-0.35-0.43-0.62-0.35c-0.19,0.05-0.37,0.1-0.56,0.14c-0.1,0.02-0.21,0.04-0.31,0.06c-0.01,0-0.16,0.02-0.04,0.01
				c-0.05,0.01-0.1,0.01-0.16,0.02c-0.39,0.04-0.79,0.05-1.18,0.02c-0.26-0.02-0.51,0.24-0.5,0.5
				C436.72,144.27,436.93,144.47,437.21,144.49L437.21,144.49z"/>
		</g>
	</g>
	<g class="st3">
		<g>
			<path class="st1" d="M477.87,133.26c0.66,1.23,1.47,2.38,2.41,3.41c0.18,0.2,0.52,0.18,0.71,0c0.2-0.2,0.18-0.51,0-0.71
				c-0.89-0.97-1.63-2.03-2.26-3.2c-0.13-0.24-0.46-0.31-0.68-0.18C477.81,132.72,477.75,133.02,477.87,133.26L477.87,133.26z"/>
		</g>
	</g>
	<g class="st3">
		<g>
			<path class="st1" d="M475.27,135.11c1.11,1.96,2.23,3.92,3.34,5.88c0.32,0.56,1.18,0.06,0.86-0.5c-1.11-1.96-2.23-3.92-3.34-5.88
				C475.82,134.04,474.95,134.55,475.27,135.11L475.27,135.11z"/>
		</g>
	</g>
	<g class="st3">
		<g>
			<path class="st1" d="M472.37,136.28c1.12,2.48,2.24,4.96,3.37,7.44c0.26,0.59,1.13,0.08,0.86-0.5c-1.12-2.48-2.24-4.96-3.37-7.44
				C472.97,135.19,472.11,135.7,472.37,136.28L472.37,136.28z"/>
		</g>
	</g>
	<g class="st3">
		<g>
			<path class="st1" d="M467.98,138.17c0.59,0.68,0.89,1.56,1.2,2.4c0.34,0.92,0.7,1.82,1.32,2.58c0.17,0.21,0.53,0.18,0.71,0
				c0.21-0.21,0.17-0.5,0-0.71c-0.57-0.7-0.86-1.59-1.17-2.42c-0.34-0.91-0.71-1.81-1.35-2.55c-0.18-0.2-0.53-0.18-0.71,0
				C467.78,137.66,467.8,137.96,467.98,138.17L467.98,138.17z"/>
		</g>
	</g>
	<g class="st3">
		<g>
			<path class="st1" d="M463.45,138.42c0.84,1.91,1.75,3.8,2.71,5.66c0.11,0.22,0.41,0.3,0.62,0.2c0.25-0.11,0.33-0.34,0.29-0.59
				c-0.07-0.45-0.13-0.89-0.2-1.34c-0.04-0.27-0.38-0.41-0.62-0.35c-0.29,0.08-0.39,0.35-0.35,0.62c0.07,0.45,0.13,0.89,0.2,1.34
				c0.3-0.13,0.61-0.26,0.91-0.39c-0.96-1.86-1.87-3.74-2.71-5.66c-0.11-0.25-0.47-0.3-0.68-0.18
				C463.38,137.89,463.35,138.17,463.45,138.42L463.45,138.42z"/>
		</g>
	</g>
	<g class="st3">
		<g>
			<path class="st1" d="M459.39,140.57c0.31,1.45,0.99,2.79,1.96,3.91c0.18,0.21,0.53,0.18,0.71,0c0.2-0.2,0.18-0.5,0-0.71
				c-0.85-0.99-1.42-2.19-1.7-3.47c-0.06-0.26-0.37-0.42-0.62-0.35C459.46,140.03,459.33,140.31,459.39,140.57L459.39,140.57z"/>
		</g>
	</g>
	<g class="st3">
		<g>
			<path class="st1" d="M455.68,140.9c0.71,1.17,1.49,2.28,2.33,3.36c0.17,0.21,0.53,0.17,0.71,0c0.21-0.21,0.17-0.49,0-0.71
				c-0.77-0.99-1.51-2.06-2.17-3.15c-0.14-0.23-0.45-0.32-0.68-0.18C455.63,140.35,455.54,140.67,455.68,140.9L455.68,140.9z"/>
		</g>
	</g>
	<g class="st3">
		<g>
			<path class="st1" d="M452.18,142.94c0.2,0.98,0.72,1.89,1.45,2.57c0.19,0.18,0.52,0.2,0.71,0c0.18-0.19,0.21-0.52,0-0.71
				c-0.16-0.15-0.31-0.32-0.45-0.49c-0.05-0.05,0.05,0.07,0.01,0.01c-0.02-0.03-0.04-0.05-0.06-0.08c-0.03-0.04-0.06-0.08-0.09-0.12
				c-0.06-0.09-0.12-0.19-0.18-0.29c-0.05-0.09-0.1-0.19-0.15-0.29c-0.01-0.02-0.02-0.05-0.03-0.07c-0.02-0.04-0.06-0.08,0,0
				c-0.03-0.03-0.04-0.1-0.06-0.14c-0.08-0.21-0.14-0.43-0.19-0.66c-0.05-0.26-0.37-0.43-0.62-0.35
				C452.26,142.42,452.12,142.67,452.18,142.94L452.18,142.94z"/>
		</g>
	</g>
	<g class="st3">
		<g>
			<path class="st1" d="M448.07,142.62c0.3,0.97,0.9,1.79,1.72,2.38c0.21,0.15,0.57,0.04,0.68-0.18c0.14-0.26,0.05-0.52-0.18-0.68
				c-0.02-0.02-0.04-0.03-0.07-0.05c-0.05-0.04,0.1,0.08,0.01,0.01c-0.04-0.03-0.08-0.06-0.11-0.09c-0.08-0.07-0.16-0.14-0.23-0.21
				c-0.07-0.07-0.14-0.15-0.21-0.23c-0.03-0.04-0.06-0.08-0.09-0.11c0.03,0.04,0.05,0.07,0.01,0.01c-0.02-0.02-0.03-0.04-0.05-0.07
				c-0.12-0.17-0.22-0.34-0.31-0.52c-0.02-0.05-0.05-0.1-0.07-0.15c-0.01-0.03-0.04-0.11,0,0.01c-0.01-0.02-0.02-0.04-0.02-0.06
				c-0.04-0.1-0.08-0.21-0.11-0.31c-0.08-0.25-0.35-0.43-0.62-0.35C448.17,142.09,447.99,142.35,448.07,142.62L448.07,142.62z"/>
		</g>
	</g>
</g>
<g class="st2">
	<g class="st3">
		<g>
			<g>
				<path class="st0" d="M152.13,155.34c-0.05-0.09-0.09-0.18-0.13-0.28c0.03,0.08,0.07,0.16,0.1,0.24
					c-0.12-0.29-0.2-0.59-0.25-0.89c0.01,0.09,0.02,0.18,0.04,0.27c-0.04-0.31-0.04-0.62,0-0.93c-0.01,0.09-0.02,0.18-0.04,0.27
					c0.01-0.05,0.02-0.1,0.02-0.15c0.05-0.27,0.04-0.53-0.1-0.77c-0.12-0.21-0.36-0.41-0.6-0.46c-0.26-0.06-0.54-0.05-0.77,0.1
					c-0.21,0.13-0.41,0.34-0.46,0.6c-0.05,0.28-0.09,0.56-0.09,0.84c0,0.28,0.03,0.55,0.07,0.83c0.07,0.47,0.25,0.93,0.47,1.35
					c0.12,0.22,0.36,0.4,0.6,0.46c0.24,0.07,0.56,0.04,0.77-0.1C152.24,156.41,152.4,155.84,152.13,155.34L152.13,155.34z"/>
			</g>
		</g>
		<g>
			<g>
				<path class="st0" d="M151.53,149.84c0.04-0.85-0.11-1.73-0.44-2.51c-0.03-0.13-0.09-0.24-0.18-0.34
					c-0.07-0.11-0.16-0.19-0.28-0.26c-0.21-0.13-0.53-0.18-0.77-0.1c-0.24,0.08-0.48,0.23-0.6,0.46c-0.12,0.22-0.2,0.53-0.1,0.77
					c0.18,0.42,0.3,0.85,0.36,1.3c-0.01-0.09-0.02-0.18-0.04-0.27c0.04,0.31,0.06,0.63,0.04,0.94c-0.02,0.52,0.48,1.02,1,1
					C151.09,150.81,151.51,150.4,151.53,149.84L151.53,149.84z"/>
			</g>
		</g>
		<g>
			<g>
				<path class="st0" d="M150.84,143.82c-0.16-1.25-0.32-2.49-0.48-3.74c-0.04-0.28-0.09-0.5-0.29-0.71
					c-0.17-0.17-0.46-0.3-0.71-0.29c-0.26,0.01-0.53,0.1-0.71,0.29c-0.17,0.18-0.33,0.45-0.29,0.71c0.16,1.25,0.32,2.49,0.48,3.74
					c0.04,0.28,0.09,0.5,0.29,0.71c0.17,0.17,0.46,0.3,0.71,0.29c0.26-0.01,0.53-0.1,0.71-0.29
					C150.71,144.35,150.87,144.08,150.84,143.82L150.84,143.82z"/>
			</g>
		</g>
		<g>
			<g>
				<path class="st0" d="M150.7,135.08c0.23-1.57,0.18-3.14-0.2-4.69c-0.12-0.51-0.73-0.86-1.23-0.7c-0.53,0.17-0.83,0.69-0.7,1.23
					c0.08,0.33,0.15,0.67,0.2,1.01c0.04,0.26-0.02-0.22,0.01,0.05c0.01,0.08,0.02,0.16,0.03,0.24c0.02,0.17,0.03,0.34,0.04,0.51
					c0.02,0.33,0.02,0.66,0,0.99c-0.01,0.16-0.02,0.32-0.03,0.47c-0.01,0.08-0.01,0.16-0.02,0.24c-0.01,0.05-0.01,0.1-0.02,0.16
					c0.02-0.14,0.02-0.15,0-0.03c-0.04,0.28-0.05,0.52,0.1,0.77c0.12,0.21,0.36,0.41,0.6,0.46
					C149.94,135.89,150.62,135.64,150.7,135.08L150.7,135.08z"/>
			</g>
		</g>
		<g>
			<g>
				<path class="st0" d="M150.4,126.56c0-1.13,0-2.25,0-3.38c0-0.52-0.46-1.02-1-1c-0.54,0.02-1,0.44-1,1c0,1.13,0,2.25,0,3.38
					c0,0.52,0.46,1.02,1,1C149.94,127.54,150.4,127.12,150.4,126.56L150.4,126.56z"/>
			</g>
		</g>
		<g>
			<g>
				<path class="st0" d="M150.04,119.34c0.76-1.83,0.55-4.02-0.47-5.71c-0.27-0.45-0.91-0.65-1.37-0.36
					c-0.45,0.29-0.65,0.89-0.36,1.37c0.11,0.18,0.21,0.37,0.3,0.57c0.05,0.1,0.04,0.1-0.01-0.02c0.02,0.05,0.04,0.1,0.06,0.15
					c0.03,0.08,0.05,0.15,0.08,0.23c0.06,0.2,0.12,0.41,0.16,0.62c0.01,0.05,0.09,0.39,0.03,0.13c0.02,0.09,0.02,0.19,0.03,0.28
					c0.01,0.2,0.02,0.4,0.01,0.6c0,0.11-0.02,0.21-0.02,0.32c-0.01,0.21,0.03-0.17-0.01,0.09c-0.07,0.41-0.19,0.81-0.35,1.19
					c-0.2,0.48,0.22,1.12,0.7,1.23C149.39,120.17,149.82,119.86,150.04,119.34L150.04,119.34z"/>
			</g>
		</g>
		<g>
			<g>
				<path class="st0" d="M149.31,110.14c-0.35-1.74-0.49-3.48-0.42-5.35c0.02-0.52-0.47-1.02-1-1c-0.56,0.03-0.98,0.44-1,1
					c-0.07,1.97,0.1,3.95,0.49,5.88c0.1,0.51,0.74,0.86,1.23,0.7C149.15,111.19,149.42,110.69,149.31,110.14L149.31,110.14z"/>
			</g>
		</g>
		<g>
			<g>
				<path class="st0" d="M148.86,99.9c0.2-1.98,0.11-3.96-0.21-5.92c-0.08-0.52-0.75-0.85-1.23-0.7c-0.56,0.18-0.79,0.68-0.7,1.23
					c0.08,0.48,0.11,0.72,0.16,1.25c0.04,0.45,0.07,0.91,0.08,1.36c0.03,0.93-0.01,1.85-0.1,2.78c-0.05,0.52,0.5,1.02,1,1
					C148.44,100.88,148.8,100.46,148.86,99.9L148.86,99.9z"/>
			</g>
		</g>
		<g>
			<g>
				<path class="st0" d="M148.53,88.27c0.08-1.6-0.09-3.21-0.48-4.76c-0.13-0.51-0.72-0.86-1.23-0.7c-0.53,0.17-0.83,0.69-0.7,1.23
					c0.09,0.36,0.17,0.72,0.23,1.09c0.01,0.08,0.03,0.17,0.04,0.25c0,0.03,0.05,0.34,0.03,0.21c-0.02-0.13,0.02,0.18,0.02,0.21
					c0.01,0.08,0.02,0.17,0.03,0.25c0.07,0.74,0.08,1.48,0.05,2.22c-0.03,0.52,0.48,1.02,1,1C148.09,89.25,148.5,88.83,148.53,88.27
					L148.53,88.27z"/>
			</g>
		</g>
		<g>
			<g>
				<path class="st0" d="M147.4,79.26c0-1.5,0-3,0-4.5c0-0.52-0.46-1.02-1-1c-0.54,0.02-1,0.44-1,1c0,1.5,0,3,0,4.5
					c0,0.52,0.46,1.02,1,1C146.94,80.24,147.4,79.82,147.4,79.26L147.4,79.26z"/>
			</g>
		</g>
		<g>
			<g>
				<path class="st0" d="M146.68,68.47c-0.26-1-0.52-2-0.78-3c-0.13-0.51-0.72-0.86-1.23-0.7c-0.52,0.17-0.84,0.69-0.7,1.23
					c0.26,1,0.52,2,0.78,3c0.13,0.51,0.72,0.86,1.23,0.7C146.5,69.53,146.82,69.01,146.68,68.47L146.68,68.47z"/>
			</g>
		</g>
		<g>
			<g>
				<path class="st0" d="M145.76,63.36c-0.02-0.04-0.04-0.09-0.06-0.13c0.03,0.08,0.07,0.16,0.1,0.24
					c-0.16-0.38-0.26-0.77-0.32-1.18c0.01,0.09,0.02,0.18,0.04,0.27c-0.05-0.41-0.05-0.82,0-1.22c-0.01,0.09-0.02,0.18-0.04,0.27
					c0-0.03,0.01-0.06,0.01-0.09c0.04-0.28,0.05-0.52-0.1-0.77c-0.12-0.21-0.36-0.41-0.6-0.46c-0.26-0.06-0.54-0.05-0.77,0.1
					c-0.2,0.13-0.42,0.35-0.46,0.6c-0.04,0.31-0.09,0.61-0.09,0.92c0,0.31,0.03,0.62,0.08,0.92c0.08,0.54,0.25,1.05,0.48,1.55
					c0.1,0.21,0.38,0.4,0.6,0.46c0.24,0.07,0.56,0.04,0.77-0.1c0.21-0.14,0.4-0.34,0.46-0.6c0.01-0.09,0.02-0.18,0.04-0.27
					C145.9,63.69,145.85,63.52,145.76,63.36L145.76,63.36z"/>
			</g>
		</g>
		<g>
			<g>
				<path class="st0" d="M141.19,64.67c-1.31,1.19-2.24,2.82-2.6,4.55c-0.11,0.51,0.15,1.1,0.7,1.23c0.5,0.11,1.12-0.15,1.23-0.7
					c0.08-0.38,0.18-0.76,0.32-1.12c0.03-0.07,0.16-0.35,0.04-0.1c0.04-0.08,0.07-0.16,0.11-0.24c0.09-0.18,0.18-0.36,0.28-0.53
					c0.09-0.16,0.19-0.33,0.3-0.48c0.06-0.08,0.11-0.17,0.17-0.25c0.03-0.03,0.06-0.07,0.08-0.11c-0.03,0.05-0.12,0.14-0.03,0.04
					c0.26-0.31,0.53-0.6,0.82-0.87c0.39-0.35,0.39-1.06,0-1.41C142.19,64.29,141.6,64.29,141.19,64.67L141.19,64.67z"/>
			</g>
		</g>
		<g>
			<g>
				<path class="st0" d="M136.13,71.85c-0.04,0.11-0.09,0.23-0.13,0.34c0.03-0.08,0.07-0.16,0.1-0.24c-0.27,0.64-0.63,1.24-1.05,1.8
					c0.05-0.07,0.1-0.13,0.16-0.2c-0.28,0.36-0.59,0.69-0.92,0.99c-0.39,0.35-0.39,1.06,0,1.41c0.41,0.38,1,0.38,1.41,0
					c1.07-0.98,1.86-2.21,2.36-3.57c0.09-0.23,0.02-0.56-0.1-0.77c-0.12-0.21-0.36-0.41-0.6-0.46c-0.26-0.06-0.54-0.05-0.77,0.1
					C136.36,71.4,136.22,71.59,136.13,71.85L136.13,71.85z"/>
			</g>
		</g>
		<g>
			<g>
				<path class="st0" d="M131.35,77.6c-0.21,0.36-0.43,0.7-0.67,1.04c-0.12,0.17-0.23,0.37-0.38,0.51c0.07-0.07,0.1-0.13,0.01-0.02
					c-0.03,0.03-0.06,0.07-0.08,0.1c-0.07,0.09-0.14,0.17-0.21,0.26c-0.54,0.64-1.13,1.23-1.77,1.78c-0.4,0.34-0.38,1.07,0,1.41
					c0.43,0.39,0.99,0.36,1.41,0c1.35-1.15,2.51-2.55,3.41-4.08c0.27-0.45,0.12-1.12-0.36-1.37
					C132.23,76.99,131.63,77.12,131.35,77.6L131.35,77.6z"/>
			</g>
		</g>
		<g>
			<g>
				<path class="st0" d="M125.42,83.66c-1.13,1.62-2.27,3.24-3.4,4.87c-0.3,0.43-0.09,1.13,0.36,1.37c0.51,0.27,1.05,0.1,1.37-0.36
					c1.13-1.62,2.27-3.24,3.4-4.87c0.3-0.43,0.09-1.13-0.36-1.37C126.28,83.03,125.74,83.2,125.42,83.66L125.42,83.66z"/>
			</g>
		</g>
		<g>
			<g>
				<path class="st0" d="M119.24,91.67c-1.14,0.86-2.28,1.71-3.43,2.57c-0.22,0.16-0.38,0.33-0.46,0.6
					c-0.07,0.24-0.04,0.56,0.1,0.77c0.14,0.21,0.34,0.4,0.6,0.46c0.25,0.06,0.56,0.06,0.77-0.1c1.14-0.86,2.28-1.71,3.43-2.57
					c0.22-0.16,0.38-0.33,0.46-0.6c0.07-0.24,0.04-0.56-0.1-0.77c-0.14-0.21-0.34-0.4-0.6-0.46
					C119.77,91.51,119.45,91.51,119.24,91.67L119.24,91.67z"/>
			</g>
		</g>
		<g>
			<g>
				<path class="st0" d="M111.49,98.3c-0.62,0.75-1.25,1.51-1.87,2.26c-0.17,0.21-0.29,0.43-0.29,0.71c0,0.25,0.11,0.54,0.29,0.71
					c0.19,0.17,0.44,0.3,0.71,0.29c0.25-0.01,0.54-0.09,0.71-0.29c0.62-0.75,1.25-1.51,1.87-2.26c0.17-0.21,0.29-0.43,0.29-0.71
					c0-0.25-0.11-0.54-0.29-0.71c-0.19-0.17-0.44-0.3-0.71-0.29C111.95,98.02,111.66,98.1,111.49,98.3L111.49,98.3z"/>
			</g>
		</g>
		<g>
			<g>
				<path class="st0" d="M105.19,103c-0.02,0.1-0.06,0.2-0.09,0.29c0.03-0.08,0.07-0.16,0.1-0.24c-0.07,0.17-0.16,0.32-0.27,0.47
					c0.05-0.07,0.1-0.13,0.16-0.2c-0.12,0.15-0.25,0.28-0.4,0.4c0.07-0.05,0.13-0.1,0.2-0.16c-0.14,0.11-0.3,0.2-0.46,0.27
					c0.08-0.03,0.16-0.07,0.24-0.1c-0.17,0.07-0.34,0.12-0.52,0.14c0.09-0.01,0.18-0.02,0.27-0.04c-0.02,0-0.03,0-0.05,0.01
					c-0.14-0.01-0.27,0.02-0.39,0.09c-0.12,0.04-0.23,0.11-0.32,0.21c-0.17,0.17-0.3,0.46-0.29,0.71c0.01,0.26,0.1,0.53,0.29,0.71
					c0.18,0.17,0.45,0.32,0.71,0.29c0.19-0.02,0.38-0.04,0.57-0.09c0.18-0.05,0.36-0.13,0.53-0.2c0.27-0.12,0.52-0.3,0.74-0.5
					c0.22-0.19,0.42-0.44,0.57-0.69c0.06-0.09,0.11-0.19,0.15-0.3c0.08-0.18,0.15-0.35,0.2-0.53c0.06-0.26,0.03-0.54-0.1-0.77
					c-0.12-0.21-0.36-0.41-0.6-0.46c-0.26-0.06-0.54-0.05-0.77,0.1C105.43,102.55,105.25,102.75,105.19,103L105.19,103z"/>
			</g>
		</g>
		<g>
			<g>
				<path class="st0" d="M100.49,108.85c-1.54,0.89-2.93,2.06-4.06,3.43c-0.17,0.21-0.29,0.43-0.29,0.71c0,0.25,0.11,0.54,0.29,0.71
					c0.37,0.34,1.06,0.43,1.41,0c0.53-0.64,1.12-1.24,1.76-1.79c0.15-0.13,0.31-0.24,0.46-0.38c-0.18,0.17-0.07,0.05-0.02,0.02
					c0.04-0.03,0.09-0.07,0.13-0.1c0.08-0.06,0.16-0.12,0.24-0.17c0.35-0.25,0.71-0.48,1.08-0.69c0.45-0.26,0.65-0.91,0.36-1.37
					C101.57,108.76,100.98,108.57,100.49,108.85L100.49,108.85z"/>
			</g>
		</g>
		<g>
			<g>
				<path class="st0" d="M93.2,115.23c-0.88,0.25-1.75,0.5-2.63,0.75c-0.24,0.07-0.47,0.24-0.6,0.46c-0.13,0.21-0.18,0.53-0.1,0.77
					c0.17,0.51,0.69,0.85,1.23,0.7c0.88-0.25,1.75-0.5,2.63-0.75c0.24-0.07,0.47-0.24,0.6-0.46c0.13-0.21,0.18-0.53,0.1-0.77
					C94.27,115.42,93.74,115.08,93.2,115.23L93.2,115.23z"/>
			</g>
		</g>
		<g>
			<g>
				<path class="st0" d="M84.89,119.87c-0.99,0.77-1.98,1.54-2.96,2.3c-0.19,0.15-0.29,0.48-0.29,0.71c0,0.25,0.11,0.54,0.29,0.71
					c0.19,0.17,0.44,0.3,0.71,0.29c0.09-0.01,0.18-0.02,0.27-0.04c0.17-0.05,0.32-0.13,0.44-0.26c0.99-0.77,1.98-1.54,2.96-2.3
					c0.19-0.15,0.29-0.48,0.29-0.71c0-0.25-0.11-0.54-0.29-0.71c-0.19-0.17-0.44-0.3-0.71-0.29c-0.09,0.01-0.18,0.02-0.27,0.04
					C85.16,119.66,85.01,119.75,84.89,119.87L84.89,119.87z"/>
			</g>
		</g>
		<g>
			<g>
				<path class="st0" d="M77.56,126.06c-1.25,0.76-2.5,1.51-3.74,2.27c-0.45,0.27-0.65,0.91-0.36,1.37
					c0.29,0.45,0.89,0.65,1.37,0.36c1.25-0.76,2.5-1.51,3.74-2.27c0.45-0.27,0.65-0.91,0.36-1.37
					C78.64,125.97,78.04,125.77,77.56,126.06L77.56,126.06z"/>
			</g>
		</g>
		<g>
			<g>
				<path class="st0" d="M70.05,130.56c-1.26,0.73-2.53,1.46-3.79,2.19c-0.45,0.26-0.65,0.92-0.36,1.37
					c0.29,0.46,0.88,0.64,1.37,0.36c1.26-0.73,2.53-1.46,3.79-2.19c0.45-0.26,0.65-0.92,0.36-1.37
					C71.12,130.46,70.53,130.28,70.05,130.56L70.05,130.56z"/>
			</g>
		</g>
		<g>
			<g>
				<path class="st0" d="M61.23,136.88c-0.91,0.86-1.82,1.72-2.73,2.58c0.47,0,0.94,0,1.41,0c-0.22-0.24-0.43-0.47-0.65-0.71
					c-0.36-0.39-1.06-0.39-1.41,0c-0.38,0.41-0.38,1,0,1.41c0.22,0.24,0.43,0.47,0.65,0.71c0.37,0.41,1.03,0.36,1.41,0
					c0.91-0.86,1.82-1.72,2.73-2.58c0.38-0.36,0.39-1.06,0-1.41C62.23,136.5,61.63,136.49,61.23,136.88L61.23,136.88z"/>
			</g>
		</g>
		<g>
			<g>
				<path class="st0" d="M53.56,142.2c-0.09,0.16-0.18,0.31-0.28,0.46c-0.02,0.03-0.13,0.16-0.02,0.03
					c0.11-0.14-0.01,0.01-0.02,0.03c-0.06,0.07-0.12,0.14-0.18,0.21c-0.12,0.13-0.25,0.25-0.38,0.36c-0.04,0.03-0.07,0.06-0.11,0.09
					c-0.13,0.11,0.15-0.11,0.05-0.04c-0.08,0.05-0.15,0.11-0.23,0.16c-0.15,0.1-0.3,0.19-0.46,0.27c-0.08,0.04-0.17,0.09-0.26,0.13
					c-0.04,0.02-0.2,0.09-0.04,0.02c0.16-0.07-0.02,0-0.04,0.01c-0.18,0.07-0.36,0.13-0.55,0.17c-0.08,0.02-0.17,0.04-0.25,0.06
					c-0.08,0.02-0.45,0.07-0.1,0.03c-0.28,0.04-0.5,0.09-0.71,0.29c-0.17,0.17-0.3,0.46-0.29,0.71c0.01,0.26,0.1,0.53,0.29,0.71
					c0.18,0.17,0.45,0.33,0.71,0.29c0.96-0.13,1.89-0.42,2.71-0.96c0.78-0.52,1.45-1.2,1.89-2.02c0.25-0.46,0.13-1.11-0.36-1.37
					C54.46,141.6,53.82,141.71,53.56,142.2L53.56,142.2z"/>
			</g>
		</g>
		<g>
			<g>
				<path class="st0" d="M46.78,146.34c-1,0.49-2.01,0.99-3.01,1.48c-0.22,0.11-0.4,0.37-0.46,0.6c-0.07,0.24-0.04,0.56,0.1,0.77
					c0.31,0.48,0.86,0.61,1.37,0.36c1-0.49,2.01-0.99,3.01-1.48c0.22-0.11,0.4-0.37,0.46-0.6c0.07-0.24,0.04-0.56-0.1-0.77
					C47.83,146.21,47.28,146.09,46.78,146.34L46.78,146.34z"/>
			</g>
		</g>
		<g>
			<g>
				<path class="st0" d="M42.91,150.96c0,0.5,0,1,0,1.5c0,0.26,0.11,0.53,0.29,0.71c0.17,0.17,0.46,0.3,0.71,0.29
					c0.26-0.01,0.53-0.1,0.71-0.29c0.18-0.2,0.29-0.44,0.29-0.71c0-0.5,0-1,0-1.5c0-0.26-0.11-0.53-0.29-0.71
					c-0.17-0.17-0.46-0.3-0.71-0.29c-0.26,0.01-0.53,0.1-0.71,0.29C43.02,150.45,42.91,150.69,42.91,150.96L42.91,150.96z"/>
			</g>
		</g>
		<g>
			<g>
				<path class="st0" d="M43.23,155.89c-0.05,0.09-0.1,0.18-0.14,0.27c-0.07,0.16-0.15,0.33-0.19,0.51
					c-0.02,0.1-0.03,0.21-0.04,0.31c0,0.02-0.01,0.05-0.01,0.07c0,0.02,0,0.05,0,0.07c0.01,0.11,0.02,0.22,0.04,0.33
					c0.02,0.12,0.09,0.25,0.13,0.35c0.05,0.11,0.13,0.2,0.21,0.29c0.15,0.17,0.35,0.27,0.56,0.34c0.13,0.05,0.28,0.06,0.42,0.06
					c0.01,0,0.02,0,0.04,0c0.1-0.01,0.2-0.02,0.3-0.04c0.03-0.01,0.05-0.01,0.08-0.02c0.24-0.09,0.37-0.16,0.56-0.33
					c0.15-0.13,0.28-0.36,0.33-0.55c0.07-0.31,0.03-0.63-0.13-0.91c-0.06-0.12-0.15-0.21-0.26-0.28c-0.1-0.09-0.21-0.15-0.34-0.18
					c-0.13-0.04-0.27-0.05-0.4-0.02c-0.13,0.01-0.26,0.05-0.37,0.12c-0.07,0.05-0.13,0.1-0.2,0.16c-0.12,0.12-0.21,0.27-0.26,0.44
					c-0.01,0.09-0.02,0.18-0.04,0.27c0,0.18,0.05,0.35,0.14,0.5c0.01,0.01,0.01,0.02,0.02,0.03c-0.03-0.08-0.07-0.16-0.1-0.24
					c0.01,0.02,0.01,0.03,0.01,0.05c-0.01-0.09-0.02-0.18-0.04-0.27c0,0.01,0,0.02,0,0.04c0.01-0.09,0.02-0.18,0.04-0.27
					c0,0.02-0.01,0.03-0.01,0.05c0.03-0.08,0.07-0.16,0.1-0.24c-0.01,0.02-0.02,0.03-0.03,0.04c0.05-0.07,0.1-0.13,0.16-0.2
					c-0.01,0.02-0.03,0.03-0.05,0.05c0.07-0.05,0.13-0.1,0.2-0.16c-0.03,0.02-0.05,0.03-0.08,0.05c0.08-0.03,0.16-0.07,0.24-0.1
					c-0.04,0.02-0.08,0.03-0.12,0.03c0.09-0.01,0.18-0.02,0.27-0.04c-0.04,0.01-0.08,0.01-0.13,0c0.09,0.01,0.18,0.02,0.27,0.04
					c-0.03,0-0.06-0.01-0.09-0.02c0.08,0.03,0.16,0.07,0.24,0.1c-0.02-0.01-0.05-0.02-0.07-0.04c0.07,0.05,0.13,0.1,0.2,0.16
					c-0.02-0.01-0.03-0.03-0.04-0.04c0.05,0.07,0.1,0.13,0.16,0.2c-0.02-0.03-0.04-0.06-0.05-0.09c0.03,0.08,0.07,0.16,0.1,0.24
					c-0.02-0.04-0.03-0.09-0.04-0.13c0.01,0.09,0.02,0.18,0.04,0.27c-0.01-0.06-0.01-0.12,0-0.18c-0.01,0.09-0.02,0.18-0.04,0.27
					c0.01-0.1,0.04-0.19,0.08-0.28c-0.03,0.08-0.07,0.16-0.1,0.24c0.04-0.11,0.1-0.21,0.16-0.31c0.07-0.11,0.11-0.24,0.12-0.37
					c0.03-0.13,0.02-0.27-0.02-0.4c-0.03-0.13-0.09-0.24-0.18-0.34c-0.07-0.11-0.16-0.19-0.28-0.26c-0.08-0.03-0.16-0.07-0.24-0.1
					c-0.18-0.05-0.35-0.05-0.53,0C43.58,155.51,43.36,155.66,43.23,155.89L43.23,155.89z"/>
			</g>
		</g>
		<g>
			<g>
				<path class="st0" d="M47.27,158.15c1.73,0.93,3.81,1.15,5.68,0.53c0.5-0.16,0.87-0.7,0.7-1.23c-0.16-0.49-0.7-0.87-1.23-0.7
					c-0.21,0.07-0.42,0.13-0.63,0.18c-0.08,0.02-0.16,0.03-0.24,0.05c-0.05,0.01-0.11,0.02-0.16,0.03c0.13-0.02,0.14-0.02,0.02,0
					c-0.4,0.03-0.79,0.05-1.18,0.02c-0.09-0.01-0.19-0.01-0.28-0.03c0.26,0.04-0.09-0.02-0.14-0.03c-0.19-0.04-0.37-0.08-0.56-0.13
					c-0.18-0.05-0.36-0.12-0.54-0.18c-0.11-0.04-0.1-0.04,0.01,0.01c-0.05-0.02-0.1-0.04-0.15-0.07c-0.1-0.05-0.2-0.1-0.29-0.15
					c-0.46-0.25-1.11-0.13-1.37,0.36C46.66,157.25,46.78,157.89,47.27,158.15L47.27,158.15z"/>
			</g>
		</g>
		<g>
			<g>
				<path class="st0" d="M57.03,158.19c1.51-0.15,3.02-0.31,4.53-0.46c0.52-0.05,1.03-0.42,1-1c-0.02-0.5-0.44-1.06-1-1
					c-1.51,0.15-3.02,0.31-4.53,0.46c-0.52,0.05-1.03,0.42-1,1C56.05,157.69,56.47,158.25,57.03,158.19L57.03,158.19z"/>
			</g>
		</g>
		<g>
			<g>
				<path class="st0" d="M66.43,157.97c1.75,0,3.5,0,5.26,0c0.52,0,1.02-0.46,1-1c-0.02-0.54-0.44-1-1-1c-1.75,0-3.5,0-5.26,0
					c-0.52,0-1.02,0.46-1,1C65.46,157.51,65.87,157.97,66.43,157.97L66.43,157.97z"/>
			</g>
		</g>
		<g>
			<g>
				<path class="st0" d="M75.82,158.72c1.5,0,3,0,4.5,0c0.52,0,1.02-0.46,1-1c-0.02-0.54-0.44-1-1-1c-1.5,0-3,0-4.5,0
					c-0.52,0-1.02,0.46-1,1C74.84,158.26,75.26,158.72,75.82,158.72L75.82,158.72z"/>
			</g>
		</g>
		<g>
			<g>
				<path class="st0" d="M84.45,157.22c1.38,0,2.75,0,4.13,0c0.52,0,1.02-0.46,1-1c-0.02-0.54-0.44-1-1-1c-1.38,0-2.75,0-4.13,0
					c-0.52,0-1.02,0.46-1,1C83.48,156.76,83.89,157.22,84.45,157.22L84.45,157.22z"/>
			</g>
		</g>
		<g>
			<g>
				<path class="st0" d="M91.7,157.9c2.44,0.46,4.92,0.62,7.39,0.43c0.54-0.04,1-0.43,1-1c0-0.51-0.46-1.04-1-1
					c-2.29,0.17-4.6,0.07-6.86-0.36c-0.53-0.1-1.08,0.15-1.23,0.7C90.87,157.15,91.17,157.79,91.7,157.9L91.7,157.9z"/>
			</g>
		</g>
		<g>
			<g>
				<path class="st0" d="M105.03,158.43c0.34-0.11,0.69-0.19,1.04-0.26c0.11-0.02,0.22-0.04,0.33-0.06
					c0.22-0.04-0.18,0.02,0.06-0.01c0.18-0.02,0.36-0.04,0.54-0.05c0.36-0.02,0.72-0.03,1.07-0.01c0.18,0.01,0.36,0.02,0.54,0.04
					c0.05,0.01,0.11,0.01,0.16,0.02c-0.03,0-0.07-0.01-0.1-0.01c0.11,0.01,0.22,0.03,0.33,0.05c0.51,0.09,1.1-0.14,1.23-0.7
					c0.11-0.48-0.15-1.14-0.7-1.23c-1.68-0.29-3.39-0.21-5.03,0.29c-0.5,0.15-0.87,0.71-0.7,1.23
					C103.96,158.24,104.49,158.6,105.03,158.43L105.03,158.43z"/>
			</g>
		</g>
		<g>
			<g>
				<path class="st0" d="M114.49,159.1c1.13,0,2.25,0,3.38,0c0.52,0,1.02-0.46,1-1c-0.02-0.54-0.44-1-1-1c-1.13,0-2.25,0-3.38,0
					c-0.52,0-1.02,0.46-1,1C113.51,158.64,113.93,159.1,114.49,159.1L114.49,159.1z"/>
			</g>
		</g>
		<g>
			<g>
				<path class="st0" d="M120.58,158.77c1.54,0.42,3.11,0.49,4.68,0.27c0.23-0.03,0.49-0.27,0.6-0.46c0.13-0.21,0.18-0.53,0.1-0.77
					c-0.08-0.24-0.23-0.48-0.46-0.6c-0.25-0.13-0.49-0.14-0.77-0.1c0.27-0.04-0.02,0-0.08,0.01c-0.09,0.01-0.18,0.02-0.27,0.03
					c-0.15,0.01-0.31,0.02-0.46,0.03c-0.34,0.01-0.67,0.01-1.01-0.02c-0.15-0.01-0.31-0.02-0.46-0.04c-0.05-0.01-0.1-0.01-0.15-0.02
					c0.12,0.02,0.15,0.02,0.07,0.01c-0.09-0.01-0.18-0.03-0.27-0.04c-0.33-0.06-0.66-0.13-0.98-0.22c-0.5-0.14-1.11,0.17-1.23,0.7
					C119.76,158.06,120.04,158.62,120.58,158.77L120.58,158.77z"/>
			</g>
		</g>
		<g>
			<g>
				<path class="st0" d="M129.5,157.57c1.97,0.18,3.96,0.05,5.9-0.35c0.51-0.11,0.86-0.74,0.7-1.23c-0.18-0.54-0.68-0.81-1.23-0.7
					c-0.23,0.05-0.46,0.09-0.7,0.13c-0.13,0.02-0.25,0.04-0.38,0.06c-0.03,0-0.32,0.04-0.17,0.02c-0.45,0.06-0.9,0.1-1.36,0.12
					c-0.93,0.05-1.85,0.03-2.78-0.05c-0.52-0.05-1.02,0.49-1,1C128.53,157.16,128.95,157.52,129.5,157.57L129.5,157.57z"/>
			</g>
		</g>
		<g>
			<g>
				<path class="st0" d="M138.77,157.53c1-0.37,2.01-0.74,3.01-1.11c0.25-0.09,0.46-0.22,0.6-0.46c0.13-0.21,0.18-0.53,0.1-0.77
					c-0.16-0.48-0.7-0.89-1.23-0.7c-1,0.37-2.01,0.74-3.01,1.11c-0.25,0.09-0.46,0.22-0.6,0.46c-0.13,0.21-0.18,0.53-0.1,0.77
					C137.69,157.31,138.24,157.72,138.77,157.53L138.77,157.53z"/>
			</g>
		</g>
		<g>
			<g>
				<path class="st0" d="M147.11,156.93c0.05-0.05,0.11-0.1,0.16-0.15c0.03-0.02,0.13-0.1-0.01,0c-0.14,0.11-0.02,0.02,0.02-0.01
					c0.12-0.08,0.25-0.16,0.38-0.22c0.03-0.01,0.07-0.02,0.09-0.04c-0.01,0.01-0.23,0.09-0.1,0.05c0.07-0.02,0.14-0.05,0.21-0.07
					c0.15-0.04,0.3-0.07,0.45-0.1c-0.09,0.01-0.18,0.02-0.27,0.04c0.26-0.03,0.52-0.03,0.78,0c-0.09-0.01-0.18-0.02-0.27-0.04
					c0.17,0.02,0.33,0.06,0.5,0.11c0.04,0.01,0.08,0.03,0.11,0.04c0.15,0.05-0.19-0.09-0.08-0.04c0.08,0.04,0.16,0.08,0.24,0.12
					c0.45,0.26,1.11,0.12,1.37-0.36c0.25-0.48,0.13-1.09-0.36-1.37c-1.47-0.84-3.42-0.59-4.63,0.61c-0.37,0.37-0.4,1.05,0,1.41
					C146.09,157.3,146.71,157.33,147.11,156.93L147.11,156.93z"/>
			</g>
		</g>
	</g>
	<g class="st3">
		<g>
			<g>
				<path class="st0" d="M139.64,70.25c2.4,1.9,4.58,4.06,6.52,6.43c0.17,0.21,0.53,0.18,0.71,0c0.21-0.2,0.17-0.5,0-0.71
					c-1.93-2.37-4.12-4.53-6.52-6.43c-0.21-0.17-0.5-0.2-0.71,0C139.46,69.72,139.43,70.09,139.64,70.25L139.64,70.25z"/>
			</g>
		</g>
		<g>
			<g>
				<path class="st0" d="M137.18,74.1c2.17,1.9,4.17,4,5.94,6.29c0.86,1.11,1.63,2.28,2.42,3.44c0.65,0.95,1.43,1.82,2.64,1.9
					c0.64,0.05,0.64-0.95,0-1c-1.2-0.09-1.87-1.56-2.46-2.43c-0.72-1.07-1.49-2.11-2.3-3.12c-1.67-2.09-3.53-4.02-5.54-5.78
					C137.4,72.97,136.69,73.67,137.18,74.1L137.18,74.1z"/>
			</g>
		</g>
		<g>
			<g>
				<path class="st0" d="M132.54,80.12c-0.33,0.66-0.05,1.28,0.46,1.77c0.65,0.62,1.46,1.11,2.16,1.68c1.49,1.19,2.93,2.46,4.3,3.79
					c2.74,2.66,5.21,5.58,7.38,8.71c0.3,0.44,1.11,0.19,0.91-0.39c-0.17-0.48-0.34-0.96-0.5-1.45c-0.21-0.6-1.18-0.34-0.96,0.27
					c0.17,0.48,0.34,0.96,0.5,1.45c0.3-0.13,0.61-0.26,0.91-0.39c-1.97-2.85-4.18-5.53-6.62-8c-1.21-1.23-2.48-2.41-3.8-3.53
					c-0.66-0.56-1.33-1.11-2.01-1.64c-0.31-0.24-2.1-1.31-1.87-1.76C133.69,80.05,132.83,79.55,132.54,80.12L132.54,80.12z"/>
			</g>
		</g>
		<g>
			<g>
				<path class="st0" d="M124.13,86.04c7.18,7.15,14.53,14.13,22.04,20.93c0.29,0.27,0.89,0.11,0.85-0.35
					c-0.05-0.63-0.32-1.1-0.85-1.44c-0.54-0.35-1.04,0.52-0.5,0.86c0.21,0.14,0.34,0.32,0.36,0.58c0.28-0.12,0.57-0.24,0.85-0.35
					c-7.51-6.8-14.86-13.78-22.04-20.93C124.38,84.88,123.67,85.59,124.13,86.04L124.13,86.04z"/>
			</g>
		</g>
		<g>
			<g>
				<path class="st0" d="M119.08,93.91c4.25,3.81,8.5,7.62,12.75,11.44c4.08,3.66,8.23,7.25,12.23,11c2.12,1.98,4.13,4.07,5.75,6.49
					c0.29-0.17,0.58-0.34,0.86-0.5c-0.22-0.3-0.44-0.6-0.66-0.89c-0.38-0.51-1.25-0.01-0.86,0.5c0.22,0.3,0.44,0.6,0.66,0.89
					c0.37,0.51,1.23,0.04,0.86-0.5c-2.91-4.33-6.99-7.69-10.84-11.14c-4.28-3.84-8.56-7.68-12.85-11.52
					c-2.4-2.15-4.81-4.31-7.21-6.46C119.31,92.77,118.6,93.48,119.08,93.91L119.08,93.91z"/>
			</g>
		</g>
		<g>
			<g>
				<path class="st0" d="M112.16,101.16c9.52,7.53,19.04,15.06,28.57,22.59c2.21,1.75,4.91,3.44,6.1,6.1
					c0.26,0.59,1.12,0.08,0.86-0.5c-1.04-2.32-3.15-3.85-5.08-5.38c-2.41-1.91-4.83-3.82-7.24-5.72c-4.76-3.77-9.52-7.53-14.28-11.3
					c-2.74-2.17-5.48-4.33-8.22-6.5C112.36,100.06,111.65,100.76,112.16,101.16L112.16,101.16z"/>
			</g>
		</g>
		<g>
			<g>
				<path class="st0" d="M103.55,107.45c4.54,5.58,10.27,9.97,15.97,14.28c6.4,4.84,12.8,9.68,19.2,14.53
					c3.64,2.75,7.27,5.5,10.91,8.25c0.41,0.31,0.94-0.28,0.68-0.68c-0.28-0.43-0.56-0.86-0.83-1.29c-0.35-0.54-1.21-0.04-0.86,0.5
					c0.28,0.43,0.56,0.86,0.83,1.29c0.23-0.23,0.46-0.46,0.68-0.68c-6.41-4.85-12.83-9.71-19.24-14.56c-3.17-2.4-6.35-4.8-9.52-7.2
					c-2.9-2.2-5.82-4.38-8.61-6.72c-3.07-2.57-5.98-5.32-8.5-8.43C103.85,106.24,103.14,106.95,103.55,107.45L103.55,107.45z"/>
			</g>
		</g>
		<g>
			<g>
				<path class="st0" d="M99.57,112.83c5.51,6.33,12.25,11.38,18.76,16.62c3.26,2.62,6.47,5.31,9.46,8.23
					c2.85,2.78,5.5,5.75,8.35,8.53c3.19,3.11,6.65,5.99,10.66,8c0.57,0.29,1.08-0.57,0.5-0.86c-7.17-3.6-12.31-9.86-17.87-15.44
					c-5.89-5.91-12.66-10.81-19.05-16.14c-3.58-2.98-7.04-6.13-10.11-9.65C99.86,111.64,99.15,112.35,99.57,112.83L99.57,112.83z"/>
			</g>
		</g>
		<g>
			<g>
				<path class="st0" d="M93.66,116.83c4.94,5.47,9.87,10.94,14.81,16.42c2.44,2.71,4.88,5.41,7.32,8.12
					c2.24,2.48,4.43,5.02,6.76,7.42c1.2,1.23,2.45,2.42,3.8,3.48c0.64,0.5,1.29,0.98,1.97,1.42c0.36,0.23,0.72,0.45,1.09,0.67
					c0.37,0.21,0.91,0.38,1.23,0.63c0.5,0.39,1.21-0.31,0.71-0.71c-0.52-0.41-1.23-0.66-1.8-1c-0.69-0.42-1.36-0.87-2.01-1.35
					c-1.24-0.92-2.39-1.96-3.49-3.04c-2.35-2.32-4.51-4.84-6.72-7.3c-4.88-5.41-9.76-10.82-14.64-16.23
					c-2.77-3.07-5.55-6.15-8.32-9.22C93.93,115.64,93.23,116.35,93.66,116.83L93.66,116.83z"/>
			</g>
		</g>
		<g>
			<g>
				<path class="st0" d="M87.06,120.29c4.34,5.35,8.67,10.7,13.01,16.05c2.05,2.53,4.16,5.03,6.1,7.65
					c1.76,2.37,3.17,4.86,4.52,7.47c1.14,2.21,2.66,4.7,5.34,5.1c0.63,0.09,0.9-0.87,0.27-0.96c-2.42-0.36-3.72-2.65-4.74-4.64
					c-1.31-2.54-2.68-4.97-4.39-7.29c-1.88-2.55-3.92-4.99-5.92-7.46c-2.09-2.58-4.18-5.16-6.27-7.74c-2.4-2.97-4.81-5.93-7.21-8.9
					C87.36,119.08,86.66,119.79,87.06,120.29L87.06,120.29z"/>
			</g>
		</g>
		<g>
			<g>
				<path class="st0" d="M83.94,125.51c1.45,4.23,4.14,7.85,6.67,11.48c2.83,4.05,5.66,8.1,8.48,12.16
					c1.62,2.32,3.23,4.63,4.85,6.95c0.37,0.52,1.23,0.02,0.86-0.5c-2.8-4.02-5.61-8.04-8.41-12.05c-2.7-3.86-5.48-7.67-8.06-11.62
					c-1.37-2.1-2.62-4.29-3.43-6.67C84.69,124.64,83.73,124.9,83.94,125.51L83.94,125.51z"/>
			</g>
		</g>
		<g>
			<g>
				<path class="st0" d="M78.27,129.08c5.28,9.06,10.57,18.13,15.85,27.19c0.32,0.56,1.19,0.05,0.86-0.5
					c-5.28-9.06-10.57-18.13-15.85-27.19C78.81,128.02,77.95,128.52,78.27,129.08L78.27,129.08z"/>
			</g>
		</g>
		<g>
			<g>
				<path class="st0" d="M70.67,133.55c2.59,3.04,4.79,6.41,6.54,10.01c0.88,1.81,1.64,3.68,2.28,5.59
					c0.59,1.75,1.08,3.57,2.05,5.16c0.34,0.56,0.97,1.73,1.79,1.5c0.64-0.18,0.71-1.25,0-1.37c-0.63-0.1-0.9,0.86-0.27,0.96
					c0.19-0.3,0.18-0.54-0.03-0.71c-0.1-0.12-0.2-0.25-0.29-0.38c-0.16-0.22-0.3-0.45-0.44-0.68c-0.24-0.41-0.45-0.84-0.63-1.27
					c-0.41-0.97-0.72-1.98-1.05-2.98c-0.65-1.99-1.42-3.94-2.31-5.83c-1.82-3.86-4.17-7.45-6.93-10.7
					C70.96,132.36,70.25,133.07,70.67,133.55L70.67,133.55z"/>
			</g>
		</g>
		<g>
			<g>
				<path class="st0" d="M63.67,138.75c3.99,6.01,7.98,12.02,11.98,18.03c0.24,0.37,1,0.28,0.93-0.25c-0.12-0.89-0.4-1.69-0.91-2.43
					c-0.36-0.53-1.23-0.03-0.86,0.5c0.4,0.58,0.68,1.22,0.77,1.93c0.31-0.08,0.62-0.17,0.93-0.25c-3.99-6.01-7.98-12.02-11.98-18.03
					C64.18,137.72,63.32,138.22,63.67,138.75L63.67,138.75z"/>
			</g>
		</g>
		<g>
			<g>
				<path class="st0" d="M56.61,142.59c2.42,4.45,5.25,8.65,8.44,12.58c0.36,0.45,1.07-0.13,0.79-0.61
					c-0.16-0.27-0.32-0.54-0.47-0.81c-0.33-0.55-1.19-0.05-0.86,0.5c0.16,0.27,0.32,0.54,0.47,0.81c0.26-0.2,0.52-0.4,0.79-0.61
					c-3.14-3.86-5.91-8.01-8.28-12.37C57.17,141.52,56.3,142.03,56.61,142.59L56.61,142.59z"/>
			</g>
		</g>
		<g>
			<g>
				<path class="st0" d="M50.22,146.65c1.38,2.1,2.78,4.19,4.19,6.27c1.06,1.57,2.2,3.21,4.08,3.83c0.61,0.2,0.88-0.76,0.27-0.96
					c-1.79-0.58-2.82-2.39-3.81-3.86c-1.3-1.92-2.59-3.85-3.86-5.79C50.73,145.61,49.86,146.11,50.22,146.65L50.22,146.65z"/>
			</g>
		</g>
	</g>
</g>
<g class="st2">
	<g class="st3">
		<path d="M391.39,127.12c5.25,1.27,10.66,1.9,16.06,1.85c1.93-0.02,1.93-3.02,0-3c-5.15,0.05-10.26-0.53-15.27-1.74
			C390.31,123.77,389.51,126.66,391.39,127.12L391.39,127.12z"/>
	</g>
</g>
<g class="st2">
	<g class="st3">
		<g>
			<path d="M180,129.35c4.35-0.22,8.71-0.08,13.04,0.43c0.81,0.09,1.5-0.76,1.5-1.5c0-0.89-0.69-1.41-1.5-1.5
				c-4.33-0.51-8.69-0.65-13.04-0.43c-0.81,0.04-1.5,0.66-1.5,1.5C178.5,128.63,179.18,129.39,180,129.35L180,129.35z"/>
		</g>
	</g>
	<g class="st3">
		<g>
			<path d="M182.02,136.86c2-0.87,4.19-1.38,6.36-1.51c1.13-0.07,2.27-0.04,3.4,0.08c0.52,0.06,1.04,0.14,1.55,0.25
				c0.14,0.03,0.29,0.06,0.43,0.09c0.17,0.05,0.2,0.06,0.1,0.03c0.16,0.1,0.19,0.12,0.1,0.06c-0.2-0.27-0.24-0.6-0.1-0.99
				c-0.49,0.65-0.1,1.68,0.54,2.05c0.77,0.45,1.57,0.11,2.05-0.54c1.18-1.58-0.65-3.22-2.1-3.55c-1.52-0.34-3.09-0.51-4.65-0.52
				c-3.18-0.01-6.28,0.69-9.19,1.95c-0.74,0.32-0.91,1.41-0.54,2.05C180.42,137.09,181.27,137.18,182.02,136.86L182.02,136.86z"/>
		</g>
	</g>
</g>
<g class="st2">
	<g class="st3">
		<g>
			<path d="M344.24,136.85c5.16-1.21,10.42-1.76,15.72-1.66c1.93,0.03,1.93-2.97,0-3c-5.55-0.1-11.11,0.5-16.52,1.77
				c-0.79,0.18-1.26,1.09-1.05,1.85C342.62,136.61,343.45,137.03,344.24,136.85L344.24,136.85z"/>
		</g>
	</g>
	<g class="st3">
		<g>
			<path d="M349.41,123.04c0.63,6.78,1.26,13.55,1.89,20.33c0.07,0.81,0.64,1.5,1.5,1.5c0.75,0,1.58-0.69,1.5-1.5
				c-0.63-6.78-1.26-13.55-1.89-20.33c-0.07-0.81-0.64-1.5-1.5-1.5C350.16,121.54,349.33,122.22,349.41,123.04L349.41,123.04z"/>
		</g>
	</g>
</g>
</svg>
