<?xml version="1.0" encoding="UTF-8"?>
<svg id="Layer_2" data-name="Layer 2" xmlns="http://www.w3.org/2000/svg" viewBox="0 0 262.24 171.07">
  <defs>
    <style>
      .cls-1 {
        fill: #00aeef;
      }

      .cls-1, .cls-2, .cls-3 {
        stroke-width: 0px;
      }

      .cls-2 {
        fill: #939598;
      }

      .cls-3 {
        fill: #231f20;
      }
    </style>
  </defs>
  <g id="Layer_1-2" data-name="Layer 1">
    <g>
      <g>
        <path class="cls-2" d="M37.67,157.51c-.15,1.54-.22,3.09-.22,4.64,0,.36,0,.73.02,1.09,0,.34-.02.73.07,1.07.14.54.8,1.03,1.27.52.44-.47-.27-1.18-.71-.71.39.11.52.1.41-.04-.02-.03-.03-.06-.02-.09.01-.13-.01-.28-.02-.41-.01-.3-.02-.59-.02-.89,0-.57,0-1.14,0-1.71.02-1.16.1-2.32.21-3.48.06-.64-.94-.64-1,0h0Z"/>
        <path class="cls-2" d="M67.36,159.31c.79.22,1.61.52,2.21,1.1.54.52.92,1.34.67,2.09-.21.64-.85.98-1.42,1.26-.64.32-1.29.62-1.81,1.13-.25.25-.15.6.1.79,1.65,1.23,3.83,1.61,5.8,1.06.62-.17.36-1.14-.27-.96-1.74.49-3.59.12-5.03-.96l.1.79c.58-.57,1.39-.82,2.08-1.23.77-.46,1.38-1.12,1.49-2.04s-.3-1.92-.97-2.58c-.74-.73-1.72-1.12-2.69-1.4-.62-.18-.89.79-.27.96h0Z"/>
        <path class="cls-2" d="M92.4,160.49c.58-.01,1.75-.11,2.07.52.19.37.02.9-.09,1.28-.15.53-.51.97-.94,1.29-.18.13-.37.25-.56.35-.07.04-.14.07-.21.1.09-.04-.01,0-.05.02-.59.22-.37,1.12.27.96.38-.09.77-.18,1.15-.28.1-.02.19-.05.29-.07-.14-.05-.16-.05-.05,0,.1.07.22.11.33.19.32.22.54.53.7.88.21.49.27,1.07-.1,1.5-.42.49-1.11.54-1.7.35-.61-.2-.88.77-.27.96.88.28,1.85.14,2.55-.49s.82-1.55.55-2.39c-.2-.61-.54-1.15-1.05-1.55-.25-.19-.62-.45-.95-.47-.26-.01-.59.13-.85.19-.29.07-.57.14-.86.21l.27.96c1.21-.46,2.2-1.38,2.52-2.65.17-.66.26-1.42-.17-2.01-.62-.86-1.88-.87-2.83-.86-.64.01-.64,1.01,0,1h0Z"/>
        <path class="cls-2" d="M119.71,160.05l-.5,3.01c-.08.5-.17,1-.25,1.51-.07.45-.11.95.33,1.23.37.24.94.19,1.36.2.5.02.99.01,1.49-.01,1-.05,2-.18,2.98-.39.63-.13.36-1.09-.27-.96-.83.17-1.66.29-2.5.34-.42.03-.85.04-1.28.03-.21,0-.43,0-.64-.02-.18,0-.38-.05-.55-.03l-.08-.02c.07.12.1.15.09.09,0,0,.03-.24.02-.21.03-.22.07-.43.11-.65l.21-1.29.43-2.58c.04-.27-.07-.54-.35-.62-.24-.07-.57.08-.62.35h0Z"/>
        <path class="cls-2" d="M122.42,160.26c-.7,3.23-1.07,6.52-1.1,9.82,0,.64.99.64,1,0,.03-3.22.38-6.41,1.06-9.56.14-.63-.83-.9-.96-.27h0Z"/>
        <path class="cls-2" d="M151.4,162.43l-2.09-.56c-.52-.14-1.24-.45-1.72-.03-.45.4-.37,1.17-.42,1.71-.06.7-.12,1.41-.19,2.11-.05.57-.14,1.19.32,1.63.36.34.87.37,1.33.36.36,0,.87-.09,1.12.23.21.26.21.66.13.97-.3,1.21-1.96,1.23-2.94,1.21-.64-.01-.64.99,0,1,1.08.02,2.25-.06,3.13-.76.7-.55,1.01-1.5.78-2.37-.25-.97-1.08-1.3-2.01-1.29-.22,0-.46.03-.68,0-.28-.05-.26-.24-.24-.5.05-.7.12-1.4.18-2.1.03-.38.07-.76.1-1.14,0-.07.04-.18.02-.24-.04-.15.07-.04-.06-.03.17,0,.37.08.53.12l2.42.64c.62.17.89-.8.27-.96h0Z"/>
      </g>
      <g>
        <path class="cls-2" d="M36.94,146.43c.07,2.25.14,4.51.2,6.76.02.54.45,1,1,1s1.02-.46,1-1c-.07-2.25-.14-4.51-.2-6.76-.02-.54-.45-1-1-1s-1.02.46-1,1h0Z"/>
        <path class="cls-2" d="M68.39,145.03c.28,3.21.56,6.41.84,9.62.05.54.43,1,1,1,.5,0,1.05-.46,1-1-.28-3.21-.56-6.41-.84-9.62-.05-.54-.43-1-1-1-.5,0-1.05.46-1,1h0Z"/>
        <path class="cls-2" d="M94.97,147.09c-.68,2.53-.9,5.18-.61,7.78.06.54.42,1,1,1,.5,0,1.06-.46,1-1-.27-2.44-.09-4.88.54-7.25.33-1.24-1.6-1.78-1.93-.53h0Z"/>
        <path class="cls-2" d="M123.12,149.77c-.17,2.01-.21,4.03-.1,6.05.03.52.44,1.03,1,1,.52-.02,1.03-.44,1-1-.11-2.02-.08-4.04.1-6.05.05-.52-.49-1.02-1-1-.58.03-.95.44-1,1h0Z"/>
        <path class="cls-2" d="M149.48,150.02c-.24,2.34-.26,4.69-.05,7.03.05.54.43,1,1,1,.5,0,1.05-.46,1-1-.21-2.34-.19-4.69.05-7.03.06-.54-.5-1-1-1-.59,0-.94.46-1,1h0Z"/>
        <path class="cls-2" d="M176.37,151.72l.52,6.04c.04.52.43,1.03,1,1,.5-.02,1.05-.44,1-1l-.52-6.04c-.04-.52-.43-1.03-1-1-.5.02-1.05.44-1,1h0Z"/>
      </g>
      <g>
        <path class="cls-2" d="M202.88,164.17c1.51.16,3.65-.29,4.44-1.76s-.58-3.09-2.15-2.94c-1.76.17-2.66,1.88-2.85,3.46-.17,1.44-.03,3.23,1.13,4.26,1.03.92,3.03.92,3.68-.47.27-.58-.59-1.09-.86-.5-.35.74-1.36.77-1.98.36-.89-.59-1.04-1.87-1.02-2.84.02-1.15.29-2.49,1.4-3.08.43-.23.94-.26,1.36,0s.66.73.46,1.2c-.23.54-.87.88-1.39,1.07-.72.26-1.46.34-2.22.25-.27-.03-.5.25-.5.5,0,.29.23.47.5.5h0Z"/>
        <path class="cls-2" d="M208.62,161c1.44-.08,2.88-.23,4.31-.45.27-.04.41-.38.35-.62-.08-.29-.35-.39-.62-.35-1.34.2-2.69.33-4.04.41-.27.02-.5.22-.5.5,0,.26.23.52.5.5h0Z"/>
        <path class="cls-2" d="M210.15,157.8c-.69,2.71-1.01,5.5-.95,8.29.01.64,1.01.64,1,0-.06-2.71.25-5.4.92-8.02.16-.62-.81-.89-.96-.27h0Z"/>
        <path class="cls-2" d="M216.96,159.93c-1.65,1.02-3.49,2.33-3.53,4.48-.02.92.39,1.77,1.16,2.29.7.48,1.64.58,2.39.14.56-.32.05-1.19-.5-.86-.48.28-1.06.13-1.47-.21-.5-.41-.65-1.07-.54-1.69.27-1.58,1.75-2.5,3.01-3.28.55-.34.04-1.2-.5-.86h0Z"/>
        <path class="cls-2" d="M219.45,166.24s-.04-.08-.06-.13l.05.12c-.03-.07-.05-.13-.06-.2l.02.13s0-.07,0-.1l-.02.13s.01-.06.02-.08l-.05.12s.02-.04.03-.06l-.08.1s.02-.02.03-.03l-.1.08s.02-.02.04-.02l-.12.05s.03,0,.05-.01l-.13.02s.04,0,.06,0l-.13-.02s.05,0,.07.02l-.12-.05s.04.02.06.03l-.1-.08s.02.02.03.03l-.08-.1s.01.02.02.03l-.05-.12s0,.02,0,.02l-.02-.13s0,.02,0,.03l.02-.13s0,.02,0,.03l.05-.12s0,.02-.02.03l.08-.1s0,0,0,0c-.05.05-.08.1-.1.16-.03.06-.05.12-.04.19,0,.07.01.13.04.19.02.06.05.12.1.16.1.09.22.15.35.15s.26-.05.35-.15c.03-.04.07-.08.09-.12,0,0,0-.01,0-.02,0-.01.04-.09.06-.13,0,0,0,0,0-.01,0-.04.02-.1.02-.14,0-.06,0-.11-.02-.17,0,0,0,0,0-.01-.01-.03-.04-.09-.05-.12,0,0,0-.01-.01-.02-.03-.04-.06-.08-.09-.11,0,0-.01-.01-.02-.02-.04-.03-.07-.06-.11-.09,0,0-.02-.01-.02-.02-.05-.03-.1-.05-.16-.07-.02,0-.03-.01-.05-.02-.13-.03-.22-.03-.35,0,0,0-.02,0-.02,0-.05.01-.09.04-.14.06-.05.02-.1.07-.14.1,0,0-.01.01-.02.02-.03.04-.07.08-.09.12-.04.06-.06.12-.08.19s-.03.14-.03.2c0,.03,0,.05,0,.08,0,.11.02.21.06.31s.08.2.13.29c.03.06.07.11.13.14.05.04.1.07.17.09.07.02.13.02.2,0,.07,0,.13-.02.19-.06.11-.07.2-.17.23-.3l.02-.13c0-.09-.02-.17-.07-.25h0Z"/>
      </g>
    </g>
    <g>
      <g>
        <path class="cls-2" d="M2.43,78.83c.08,1.77.33,3.53.74,5.25.15.63,1.11.36.96-.27-.39-1.64-.63-3.3-.7-4.98-.03-.64-1.03-.64-1,0h0Z"/>
        <path class="cls-2" d="M7.62,77.86c-1.39,3.26-2.82,6.5-4.31,9.71-.27.58.59,1.09.86.5,1.48-3.21,2.92-6.45,4.31-9.71.25-.59-.61-1.1-.86-.5h0Z"/>
        <path class="cls-2" d="M7.72,80.97c-.29.66-.54,1.33-.72,2.03-.17.62-.54,1.6.19,1.99.28.15.62.12.92.04.33-.09.65-.21.98-.32.6-.19,1.22-.37,1.84-.2s.89-.79.27-.96-1.24-.11-1.84.04c-.29.07-.57.17-.86.26-.15.05-.3.1-.46.15-.06.02-.13.04-.19.06-.02,0-.16.04-.12.03.06,0-.13.01-.13,0,0-.02.1.05.11.05.05.06.01.16.04.05,0,0,.02-.11.03-.15.06-.3.13-.59.21-.88.16-.57.36-1.14.6-1.69.11-.25.07-.54-.18-.68-.21-.12-.58-.07-.68.18h0Z"/>
        <path class="cls-2" d="M9.99,80.83l-1.2,6.87c-.11.63.85.9.96.27l1.2-6.87c.11-.63-.85-.9-.96-.27h0Z"/>
      </g>
      <g>
        <path class="cls-2" d="M5.42,105.93c-.07,1.52-.04,3.05.08,4.57.02.27.21.5.5.5.25,0,.52-.23.5-.5-.13-1.52-.15-3.05-.08-4.57.03-.64-.97-.64-1,0h0Z"/>
        <path class="cls-2" d="M10.14,103.59c-1.75,3.46-3.21,7.05-4.36,10.75-.19.62.77.88.96.27,1.13-3.62,2.55-7.13,4.26-10.51.29-.57-.57-1.08-.86-.5h0Z"/>
        <path class="cls-2" d="M10.87,114.31c.49-1.01.86-2.08,1.07-3.19.1-.56.17-1.12.21-1.68.03-.48.06-.99-.05-1.46-.09-.41-.31-.82-.7-1-.43-.2-.91-.05-1.21.29s-.48.86-.6,1.31c-.14.51-.18,1.1.08,1.58.42.77,1.74,1.03,2.2.15.3-.57-.57-1.08-.86-.5-.07.13-.28.06-.39-.04-.25-.23-.13-.7-.05-.98.07-.24.19-.76.41-.9-.01,0,.07,0,.02,0-.04-.01.04.06.06.1.06.11.09.26.1.39.1.89-.04,1.87-.22,2.74-.2.94-.5,1.85-.92,2.72-.28.58.58,1.08.86.5h0Z"/>
      </g>
      <g>
        <path class="cls-2" d="M3.6,122.72c-.23,2.16-.32,4.33-.28,6.5.01.64,1.01.64,1,0-.04-2.17.06-4.34.28-6.5.03-.27-.25-.5-.5-.5-.29,0-.47.23-.5.5h0Z"/>
        <path class="cls-2" d="M8.75,122.59c-1.39,3.69-2.87,7.34-4.43,10.96-.25.58.61,1.09.86.5,1.59-3.7,3.11-7.43,4.53-11.2.23-.6-.74-.86-.96-.27h0Z"/>
        <path class="cls-2" d="M8.02,128.51l-.17,5.4c-.02.64.98.64,1,0l.17-5.4c.02-.64-.98-.64-1,0h0Z"/>
        <path class="cls-2" d="M10.9,127.81c-.25,1.26-.44,2.53-.54,3.81-.09,1.07-.19,2.3.5,3.21.55.71,1.66,1.09,2.46.58s1.18-2.13.25-2.74c-.45-.3-1.06-.29-1.53-.05-.53.27-.87.8-1.14,1.31-.3.57.56,1.08.86.5.18-.34.4-.8.78-.95.32-.13.61,0,.57.36-.03.33-.18.75-.56.8-.33.04-.7-.15-.9-.4-.57-.72-.36-1.91-.29-2.75.1-1.15.27-2.29.5-3.41.13-.63-.84-.9-.96-.27h0Z"/>
      </g>
      <path class="cls-2" d="M7.69,26.64v9.18c0,.64,1,.64,1,0v-9.18c0-.64-1-.64-1,0h0Z"/>
      <path class="cls-2" d="M15.76,31.32c3.6.08,7.2.06,10.79-.06.64-.02.64-1.02,0-1-3.6.12-7.2.14-10.79.06-.64-.01-.64.99,0,1h0Z"/>
      <g>
        <path class="cls-2" d="M14.79,83.8c1.07.13,2.24,0,3.32,0,1.2-.01,2.4-.03,3.61-.05,2.36-.04,4.73-.11,7.09-.19.64-.02.64-1.02,0-1-2.36.08-4.72.15-7.09.19-1.16.02-2.32.04-3.48.05s-2.34.14-3.45,0c-.64-.08-.63.92,0,1h0Z"/>
        <path class="cls-2" d="M16.1,110.15c3.39.48,6.78.97,10.17,1.45.63.09.9-.87.27-.96-3.39-.48-6.78-.97-10.17-1.45-.63-.09-.9.87-.27.96h0Z"/>
        <path class="cls-2" d="M16.52,128.71l-.96-.07c-.64-.05-.64.94,0,1,3.6.32,7.22.42,10.84.29.64-.02.64-1.02,0-1-3.62.13-7.24.04-10.84-.29v1l.96.07c.64.05.64-.95,0-1h0Z"/>
      </g>
    </g>
    <g>
      <path class="cls-3" d="M11.64,14.35c3.25-4.03,6.45-8.11,9.59-12.23l-1.57.2c2.8,3.39,5.6,6.78,8.4,10.17.82.99,2.23-.43,1.41-1.41-2.8-3.39-5.6-6.78-8.4-10.17-.45-.55-1.22-.26-1.57.2-3.04,3.98-6.13,7.93-9.28,11.83-.34.42-.41,1,0,1.41.35.35,1.07.42,1.41,0h0Z"/>
      <path class="cls-3" d="M19.88,3.52c.45,10.71.42,21.44.31,32.16s-.25,21.48-.38,32.22c-.26,21.46-.51,42.92-.77,64.38-.14,11.97-.29,23.94-.43,35.91-.02,1.29,1.98,1.29,2,0,.26-21.4.51-42.81.77-64.21.26-21.45.52-42.9.77-64.36.14-12.03.23-24.07-.27-36.1-.05-1.28-2.05-1.29-2,0h0Z"/>
    </g>
    <g>
      <g>
        <path class="cls-1" d="M37.74,150.27c-.7-10.62-1.47-26.71-1.21-46.63.09-6.9.26-10.93.53-20.44.35-12.3.77-29.95.98-51.83,4.82-.57,9.88-1.05,15.16-1.42,5.19-.36,10.19-.56,14.98-.66.03,3.74.1,9.42.25,16.36.19,9.08.36,12.2.48,17.88.15,6.7.08,9.32-.07,27.49-.14,16.59-.21,24.88-.17,29.04.07,6.68.28,16.67.97,28.99"/>
        <path class="cls-3" d="M38.24,150.27c-.44-6.64-.76-13.28-.97-19.92-.28-8.96-.36-17.92-.24-26.89.09-7.09.36-14.17.56-21.26s.36-13.69.5-20.54c.18-8.86.32-17.73.41-26.6.01-1.23.03-2.47.04-3.7l-.5.5c10.01-1.18,20.07-1.87,30.14-2.07l-.5-.5c.08,9.35.27,18.7.56,28.05.16,5.03.27,10.05.25,15.08-.03,8.79-.15,17.58-.22,26.37-.06,6.68-.14,13.37-.11,20.06.04,8.62.32,17.25.75,25.86.07,1.45.15,2.91.23,4.36.04.64,1.04.64,1,0-.54-9.66-.87-19.32-.97-28.99-.06-5.9.03-11.81.07-17.71.08-9.34.18-18.69.24-28.03.03-4.85-.03-9.69-.17-14.54-.27-9.28-.51-18.55-.61-27.83,0-.89-.02-1.78-.03-2.67,0-.27-.23-.51-.5-.5-10.07.2-20.13.89-30.14,2.07-.27.03-.5.2-.5.5-.09,9.1-.21,18.2-.39,27.31-.14,7.11-.3,14.22-.5,21.33s-.45,13.94-.58,20.91c-.16,8.81-.12,17.63.11,26.44.18,6.96.49,13.92.92,20.87.04.68.09,1.37.13,2.05.04.64,1.04.64,1,0h0Z"/>
      </g>
      <g>
        <path class="cls-1" d="M69.64,149.06c-.24-22.5-.48-44.99-.72-67.49,4.36-.49,9.25-.81,14.57-.8,4.87,0,9.36.29,13.41.73-.6,3.63-1.04,7.29-1.31,10.97-.68,9.37-.38,19.05-.38,19.05.26,8.14.33,20.6.25,37.99"/>
        <path class="cls-3" d="M70.14,149.06c-.09-8.79-.19-17.58-.28-26.37s-.19-17.5-.28-26.25c-.05-4.96-.11-9.92-.16-14.87l-.5.5c9.29-1.03,18.68-1.06,27.98-.08l-.48-.63c-1.61,9.73-1.95,19.64-1.73,29.5.16,6.8.27,13.61.29,20.41.02,6.07,0,12.15-.02,18.22,0,.64,1,.64,1,0,.05-9.73.07-19.46-.06-29.2-.09-6.39-.34-12.78-.2-19.17s.62-13.05,1.69-19.5c.06-.34-.14-.6-.48-.63-9.3-.98-18.69-.96-27.98.08-.27.03-.5.21-.5.5.09,8.79.19,17.58.28,26.37s.19,17.5.28,26.25c.05,4.96.11,9.92.16,14.87,0,.64,1.01.64,1,0h0Z"/>
      </g>
      <g>
        <path class="cls-1" d="M95.45,149.5c-.08-12.66-.16-25.32-.25-37.99,4.7-.44,9.67-.76,14.88-.95,4.95-.17,9.69-.19,14.2-.1-.03,14.17-.07,28.34-.1,42.5"/>
        <path class="cls-3" d="M95.95,149.5c-.06-9.87-.13-19.74-.19-29.61-.02-2.79-.04-5.58-.05-8.37l-.5.5c9.67-.89,19.38-1.24,29.08-1.05l-.5-.5c-.03,11.02-.05,22.04-.08,33.06,0,3.15-.01,6.3-.02,9.45,0,.64,1,.64,1,0,.03-11.02.05-22.04.08-33.06,0-3.15.01-6.3.02-9.45,0-.27-.23-.49-.5-.5-9.71-.19-19.42.16-29.08,1.05-.27.02-.5.21-.5.5.06,9.87.13,19.74.19,29.61.02,2.79.04,5.58.05,8.37,0,.64,1,.64,1,0h0Z"/>
      </g>
      <g>
        <path class="cls-1" d="M124.19,152.96c.04-7.05.09-14.09.13-21.14,14.2-.31,24.39-.54,25.03-.6.07,0,.39-.05.58.14.22.22.14.63.13.71-.11.69-.13,8.71-.11,20.36"/>
        <path class="cls-3" d="M124.69,152.96c.04-7.05.09-14.09.13-21.14l-.5.5c7.48-.16,14.97-.31,22.45-.52.71-.02,1.42-.04,2.13-.07.14,0,.29-.03.43-.02.35.02.22.27.2.55-.15,1.94-.08,3.92-.09,5.86-.02,4.76-.02,9.53,0,14.29,0,.64,1,.64,1,0,0-4.45-.01-8.9,0-13.35,0-2.22-.04-4.46.08-6.67,0-.09.01-.17.02-.26.01-.12-.02.14,0,.02.02-.19.05-.36.02-.55-.1-.68-.63-.92-1.26-.9-.5.01-1,.04-1.5.06-2.7.08-5.39.14-8.09.2-5.13.12-10.26.23-15.39.34-.27,0-.5.22-.5.5-.04,7.05-.09,14.09-.13,21.14,0,.64,1,.64,1,0h0Z"/>
      </g>
      <g>
        <path class="cls-1" d="M149.94,152.43c.05-3.43.1-6.86.15-10.29,3.57.11,7.17.2,10.79.28,5.4.12,10.74.2,16.03.24.09.53.16,1.07.22,1.62.41,3.76.08,7.18-.54,10.08"/>
        <path class="cls-3" d="M150.44,152.43c.05-3.43.1-6.86.15-10.29l-.5.5c8.94.27,17.88.45,26.82.52l-.48-.37c.61,3.8.47,7.67-.32,11.43-.13.63.83.9.96.27.83-3.95.96-7.98.32-11.97-.03-.21-.28-.37-.48-.37-8.94-.08-17.88-.25-26.82-.52-.27,0-.5.24-.5.5-.05,3.43-.1,6.86-.15,10.29,0,.64.99.64,1,0h0Z"/>
      </g>
      <g>
        <path class="cls-1" d="M178.12,153.41c-.27-1.77-.54-3.54-.81-5.32,1.43.05,3.64.13,6.36.24,4.95.21,6.26.31,8.49.28,1.71-.02,4.28-.12,7.46-.52.29,1.84.57,3.69.86,5.53"/>
        <path class="cls-3" d="M178.6,153.28c-.27-1.77-.54-3.54-.81-5.32l-.48.63c3.35.11,6.69.25,10.04.4,2.07.09,4.14.16,6.22.09s4.04-.24,6.05-.49l-.48-.37c.29,1.84.57,3.69.86,5.53.1.63,1.06.36.96-.27-.29-1.84-.57-3.69-.86-5.53-.03-.19-.28-.39-.48-.37-2.91.36-5.84.56-8.77.52-2.68-.03-5.35-.21-8.02-.32-1.84-.08-3.68-.14-5.52-.21-.36-.01-.53.33-.48.63.27,1.77.54,3.54.81,5.32.1.63,1.06.36.96-.27h0Z"/>
      </g>
    </g>
    <g>
      <path class="cls-3" d="M66.65,28.93s-.07.03-.08.04c.08-.03-.13.03-.07.02.02,0-.1,0-.12,0-.04,0-.04,0,0,0-.04,0-.07-.02-.1-.03l.35.35c.02.11,0-.09,0-.12,0-.02.02-.15,0-.03,0-.03.01-.05.02-.08s.08-.22.03-.11c.03-.07.07-.14.11-.2.02-.03.04-.06.06-.09-.06.08,0,0,.02-.01.04-.05.09-.09.13-.14.03-.03.06-.06.1-.08-.02.01-.07.05,0,0s.15-.09.22-.13c.03-.01.05-.03.08-.04-.1.05.03,0,.04-.01.06-.02.12-.04.19-.06.04,0,.07-.01.11-.02.13-.03-.07,0,.02,0,.08,0,.16,0,.23,0,0,0,.14.02.06,0s.06.01.06.01c.07.02.14.04.2.06-.1-.04.08.05.11.07.02.02.05.03.07.05-.09-.06.01.01.03.03.05.05.1.1.15.15.09.1-.05-.08.02.03.02.02.03.05.05.07.04.06.07.12.1.18.06.12-.02-.06,0,.02.02.05.03.09.05.14.02.06.03.12.05.19,0,.04.01.07.02.11-.02-.11,0-.01,0,.02.01.15.01.3,0,.45.01-.11-.02.09-.03.12-.02.07-.04.14-.06.21,0,.03-.02.05-.03.08.03-.09,0,0,0,.02-.04.07-.07.14-.11.21-.02.04-.05.07-.07.11.01-.02.06-.07,0,0-.05.05-.1.11-.16.16-.02.02-.05.04-.08.06.07-.06-.06.04-.06.04-.07.05-.15.09-.23.13-.02,0-.11.05-.04.02-.03.01-.06.02-.09.03-.08.03-.16.05-.24.07-.05.01-.1.02-.14.03-.01,0-.1.01-.01,0-.1.01-.2.02-.3.02-.08,0-.17,0-.25-.01-.01,0-.1-.01-.02,0-.04,0-.08-.01-.12-.02-.07-.01-.15-.03-.22-.05-.05-.01-.1-.03-.14-.05,0,0-.15-.06-.07-.02-.16-.06-.3-.15-.44-.24,0,0-.08-.05-.02-.01-.04-.03-.08-.06-.11-.1-.07-.06-.11-.1-.14-.15.03.05,0-.07,0-.02,0,.03-.01.01.02-.05.03-.06.09-.15.13-.21.11-.16.18-.25.32-.4.1-.1.27-.27.34-.32.15-.12.32-.21.44-.24.03,0,.06-.02.1-.02.13-.03-.07-.01.06,0,.03,0,.07,0,.1,0-.09,0,.01,0,.04,0,.04,0,.08.02.12.04-.06-.03.02.02.04.02.02.01.1.07.02,0,.03.03.06.06.09.09.09.09-.03-.05.01.02.02.03.04.06.05.09.07.11-.02-.05.01.02.01.03.02.07.03.1,0,.03.01.06.02.09.04.13,0-.09,0,.04,0,.08,0,.15,0,.22,0,.14.03-.09,0,.05,0,.03-.01.06-.02.09-.01.04-.03.09-.04.13,0-.02.04-.08,0,0-.09.17-.14.22-.29.36-.22.2-.58.32-.93.39-.11.02-.11.02-.24.03-.11,0-.21.01-.31,0-.05,0-.1-.02-.11-.02-.04-.02.02.06-.03-.03.02.04.04.09.03.02,0,0,0,.15,0,.08,0-.02.01-.04.02-.06-.02.05-.02.05,0,0,0,0,.07-.08,0-.01.02-.02.11-.11.09-.09.03-.02.11-.07.14-.07.04-.01.08-.02.12-.03.03,0,.03,0,0,0,.04,0,.08,0,.11-.01.48-.03.98-.02,1.4-.29l-.61-.79s.02-.02-.03.02c-.03.02-.06.04-.09.05-.01,0-.14.06-.08.04-.05.02-.1.03-.15.05-.03,0-.07.02-.11.02.04,0,.03,0,0,0-.06,0-.13,0-.19,0-.02,0-.16-.01-.08,0-.05,0-.11-.02-.16-.04-.03,0-.07-.02-.1-.03.04.02.03.01-.03-.01-.24-.12-.54-.07-.68.18-.13.22-.07.57.18.68.75.36,1.58.25,2.23-.25.19-.15.18-.48.04-.66-.15-.19-.43-.27-.65-.13-.05.03-.09.06-.15.08.05-.02-.07.02-.09.02-.11.03-.15.03-.29.03-.27.01-.55.01-.81.08-.47.12-.96.52-1.04,1.02-.05.3.03.6.25.83s.51.3.81.32c.47.04.99-.07,1.42-.24.48-.19.92-.5,1.2-.95.25-.41.31-.9.23-1.36-.08-.43-.35-.85-.73-1.06-.49-.27-1.04-.23-1.54,0-.45.21-.83.58-1.13.97-.38.48-.75,1.09-.34,1.68.55.77,1.65,1.15,2.57,1.08s1.8-.55,2.19-1.41c.35-.77.35-1.71-.09-2.45-.46-.79-1.34-1.16-2.23-.97-.8.17-1.57.82-1.73,1.65-.05.24-.04.46,0,.71.03.17.2.3.35.35.48.16.97.02,1.35-.28.21-.17.18-.53,0-.71-.21-.21-.5-.17-.71,0h0Z"/>
      <path class="cls-3" d="M95.07,81.58c.06-.29.31-.47.61-.48.31,0,.65.21.86.51.45.64.46,1.5.12,2.15-.18.34-.41.59-.75.77-.08.04-.27.1-.43.13-.16.03.09,0-.08,0-.04,0-.09,0-.13,0s-.09,0-.13,0c-.02,0-.21-.02-.13,0-.36-.05-.68-.18-.89-.38-.24-.22-.4-.49-.42-.75-.03-.36.06-.64.26-.94.16-.25.41-.45.72-.52.23-.05.66-.02.72.35.07.42.03.94-.1,1.34-.06.17-.14.32-.27.45-.06.06.09-.06-.04.03-.04.03-.09.05-.13.07.06-.03,0,0-.02,0-.06.02-.13.04-.2.05.09-.01-.02,0-.04,0-.04,0-.08,0-.12,0-.13,0,.06.03-.06-.01-.03-.01-.06-.02-.09-.03.09.04-.04-.02-.05-.03.08.05-.03-.03-.04-.04.02.02.04.07,0-.01-.02-.04-.04-.06-.04-.12-.05-.4.27-.89.54-1.15.12-.12.26-.22.41-.28.17-.07.36-.08.5-.06.18.04.35.12.42.22.02.03.04.06.06.09.03.05.03.06,0,.02.01.03.02.06.03.1-.02-.08,0,.02,0,.04,0,.02-.02.18,0,.09,0,.05-.02.1-.04.14.03-.08-.03.05-.03.06-.03.04-.05.07-.09.1-.09.06.05,0-.06.03-.05,0-.08.01-.13,0-.12-.01-.23-.07-.34-.13-.21-.11-.41-.26-.55-.45-.07-.09-.11-.17-.13-.28,0,.05,0-.07,0-.08,0-.01.01-.07-.01,0,0-.02.08-.13.01-.04.03-.03.06-.06.09-.09-.09.07.03-.01.04-.02.1-.06-.07.01.04-.01.13-.03-.1-.01.03,0,.07,0,.09.03.02,0,.11.05-.08-.07.02,0-.07-.06-.08-.1-.03,0,.12.24.46.31.68.18.25-.15.3-.44.18-.68-.28-.58-1.04-.62-1.53-.3-.62.4-.7,1.18-.32,1.79s1.17,1.16,1.9,1.12,1.2-.64,1.24-1.33-.43-1.25-1.06-1.47c-.67-.24-1.39-.03-1.93.41s-.98,1.21-.98,1.91.55,1.25,1.26,1.31c.65.05,1.25-.3,1.58-.84.36-.59.42-1.36.37-2.03-.03-.4-.14-.79-.46-1.06-.29-.25-.67-.37-1.05-.38-.59-.02-1.18.28-1.57.72-.81.93-.88,2.36.08,3.22.88.78,2.31.92,3.28.22,1.03-.75,1.45-2.17,1.07-3.37-.2-.63-.63-1.26-1.24-1.55s-1.37-.25-1.92.2c-.25.2-.43.49-.49.81-.05.26.07.54.35.62.25.07.56-.08.62-.35h0Z"/>
      <path class="cls-3" d="M122.25,110.58c.07-.11.17-.16.3-.17.09.02.11.02.05,0l.07.03s-.03-.02.03.03c-.07-.06.05.09,0,.01.06.12.06.29-.04.39.13-.12.18-.32.13-.49,0-.03-.01-.08-.03-.11-.03-.06,0,.1,0-.02,0-.06,0-.12,0-.17-.02.12.01-.02.01-.04,0-.03.02-.06.03-.08.03-.09,0-.02,0,0,.02-.04.04-.08.06-.12.02-.03.04-.06.06-.09.05-.07-.08.08.02-.02.04-.04.08-.08.13-.13.1-.1-.05.03.02-.02.03-.02.06-.04.09-.06.03-.02.05-.03.08-.04.09-.06-.05,0,.04-.02.04,0,.07-.02.11-.03.03,0,.12-.02.02,0,.06,0,.12,0,.18,0,.14,0-.05-.01.03,0,.04,0,.07.02.11.03.03,0,.06.02.09.03.12.04-.06-.04.05.02.24.14.36.24.5.5.01.03.03.06.04.08.06.13-.02-.08.02.05.02.06.04.12.05.18,0,0,.02.14.01.07s0,.08,0,.07c0,.03,0,.06,0,.1,0,0-.02.16,0,.06-.01.07-.03.14-.05.21-.01.04-.02.08-.04.11-.03.09-.01.03,0,.01-.03.07-.07.14-.12.21-.02.03-.04.05-.05.08-.08.12.06-.06-.04.05-.05.05-.1.11-.15.16-.03.03-.06.05-.09.08,0,0-.07.06-.01.01-.06.05-.13.09-.2.13-.03.02-.06.03-.09.05,0,0-.14.06-.06.03-.06.03-.13.05-.2.07-.03,0-.21.04-.11.03-.07,0-.13.01-.2.01-.04,0-.07,0-.11,0-.13,0,.09.03-.04,0-.06-.02-.13-.03-.19-.05-.07-.03.09.06-.02,0-.02-.01-.05-.03-.07-.04-.08-.04-.02-.01,0,0-.03-.02-.05-.05-.07-.07-.05-.05.05.1-.01-.02,0-.02-.07-.13-.03-.05-.01-.03-.02-.06-.03-.09-.05-.12,0,.05,0-.02,0-.04,0-.07,0-.11,0,.02-.02.1,0,0,0-.03.01-.06.02-.09,0,0,.05-.14.02-.07s.04-.08.04-.07c.02-.04.05-.09.08-.13.02-.03.04-.06.06-.08-.04.06.02-.03.03-.04.05-.06.1-.12.16-.17.14-.14.21-.19.34-.28.06-.04.12-.08.18-.11.04-.02.08-.05.13-.07.01,0,.12-.05.06-.03.04-.01.07-.02.11-.03.14-.04-.02,0,.06-.01.04,0,.14.02.04,0,.03,0,.14.05.04,0,.03.02.15.1.07.04.03.02.05.05.08.07.02.02.07.09.02.02.04.06.07.11.1.17.01.02.04.11.01.03.02.04.03.09.04.13.02.06.03.12.04.18-.02-.1,0,0,0,.03,0,.04,0,.08,0,.13,0,.07,0,.14,0,.2,0,.15.02-.08,0,.07-.01.05-.02.1-.03.15,0,.03-.07.18-.04.12-.02.04-.04.07-.06.11,0,.02-.07.1-.02.04-.04.05-.09.1-.13.14.07-.06,0,0-.02,0-.02.01-.04.02-.06.03.05-.02.05-.02.02,0-.06.02-.12.04-.19.05.11-.02-.09,0-.12-.01.11.01-.03-.02-.07-.03.1.04,0,0,0-.01-.03-.02-.02-.01.02.02-.02-.01-.03-.03-.04-.04-.03-.07.07.08,0-.01l.02.05s-.02-.05-.02-.07c.03.07,0,.07,0,.02,0-.07.02-.09,0-.02,0-.03.02-.07.02-.09.01-.03,0-.02-.01.03,0-.02.02-.03.03-.05.02-.03.07-.08,0,0,.03-.03.11-.08,0-.02.02-.01.04-.02.06-.04-.06.02-.07.03-.04.02.04,0,.02,0-.05,0,.13,0-.16,0,.04,0,.07.01.13.01.2,0,.05-.01.05-.02.01,0-.03,0-.13.02-.05,0l-.05-.02s.04.03,0,0c0,0,.06.09,0,0,.01.02.02.04.03.05.02.03.01.02,0-.02.08.03-.04.05,0,0,0,.06,0,.06,0,0v.04s0-.03,0-.04c-.03.04-.03.05,0,.02.07-.05-.13.1-.01.02-.02.02-.05.03-.07.04-.09.05.06,0-.04.01-.03,0-.06.01-.09.02.11-.02-.02,0-.05,0,0,0-.14-.01-.07,0,.06,0-.08-.02-.1-.03-.01,0-.12-.05-.06-.02-.05-.02-.1-.05-.14-.08-.19-.11-.26-.18-.43-.32-.21-.17-.51-.2-.71,0-.18.18-.21.53,0,.71.34.29.7.59,1.15.7.41.1.86.03,1.19-.23.39-.3.51-.8.31-1.24-.19-.41-.65-.68-1.1-.54h.27c-.44-.07-.84.1-1.07.49-.21.33-.25.8-.05,1.15.44.76,1.55.73,2.12.15s.65-1.61.33-2.36c-.16-.37-.45-.69-.83-.83-.45-.17-.92,0-1.31.23-.68.41-1.39,1.1-1.4,1.95s.79,1.43,1.6,1.43c1.65-.01,2.95-1.9,2.11-3.4-.43-.77-1.38-1.27-2.25-.95s-1.45,1.24-1.18,2.14l.13-.49c-.31.29-.24.77.06,1.03.34.3.83.27,1.09-.12.15-.22.04-.55-.18-.68-.24-.14-.53-.05-.68.18h0Z"/>
      <path class="cls-3" d="M148.71,132.46c.07-.1-.07.05.02-.02.02-.02.12-.08.02-.02.03-.02.07-.04.1-.06.1-.06-.09.02.02,0,.04,0,.08-.02.11-.03.12-.03-.1,0,.02,0,.04,0,.08,0,.12,0,.03,0,.05,0,.08,0-.07,0-.07,0-.01,0,.04.01.08.02.12.03.02,0,.14.06.03,0,.07.03.14.08.21.12-.1-.06,0,0,.02.02.03.03.06.06.08.09-.08-.09,0,0,.01.03.01.02.03.05.04.07-.02-.06-.02-.06,0,0,.01.04.03.09.03.13-.01-.09,0,.07,0,.07,0,.13.02-.05,0,.07-.01.05-.03.1-.04.15,0,.01-.04.08,0,.02-.02.05-.05.09-.08.14-.08.13.05-.05-.05.07-.05.05-.1.1-.15.15-.11.1-.26.16-.44.2-.13.03.06.01-.08,0-.05,0-.11,0-.16,0,.09.01-.08-.02-.08-.02-.02,0-.19-.06-.13-.04-.21-.09-.3-.17-.44-.33-.1-.12-.22-.33-.27-.47-.11-.36-.08-.74.09-1.07.2-.4.49-.71.86-.93.18-.11.3-.14.53-.2.15-.04-.07,0,.08-.01.03,0,.07,0,.1,0,.16,0,.12,0,.27.04.11.03.25.16.28.26.04.15.03.12.03.28,0,.14.03-.06-.01.08,0,.02-.06.19-.03.13-.17.41-.66.6-1.08.63l.43.75c.03-.05.09-.12.17-.19-.04.04.04-.03.05-.04.03-.02.12-.07.11-.06.05-.02.17-.06.25-.07-.08.01.08,0,.08,0,.02,0,.16.02.08,0l-.3-.73s-.11.15-.05.09c-.02.02-.11.08-.04.04-.03.02-.05.03-.08.05.05-.02.04-.02-.01,0-.03,0-.06.02-.09.02.05,0,.05,0,.02,0-.03,0-.17-.02-.07,0-.12-.03-.07-.04.01.07.29.38-.44.55-.44.17,0,.64,1,.64,1,0,0-.49-.48-.88-.96-.74s-.67.77-.38,1.17c.24.33.74.38,1.11.29s.69-.33.85-.66c.12-.26.05-.68-.3-.73-.75-.13-1.47.17-1.88.82-.2.31.06.78.43.75.72-.05,1.44-.34,1.85-.96.38-.59.36-1.41-.1-1.95s-1.22-.59-1.84-.4-1.21.65-1.6,1.2-.57,1.27-.45,1.95c.11.64.53,1.23,1.09,1.56.6.35,1.34.36,1.93-.01s.98-1,.91-1.68c-.15-1.38-2.08-1.94-2.89-.78-.15.22-.04.56.18.68.25.15.53.04.68-.18h0Z"/>
      <path class="cls-3" d="M176.37,142.6s-.01-.04-.02-.06c-.01-.04.02-.09,0,.08,0-.01,0-.03,0-.05,0-.06.04-.05-.01.07,0-.02.04-.12,0-.02s.02,0,.03-.03c-.04.1-.08.09-.04.05.01-.01.02-.02.03-.03.08-.08-.1.06-.02.01.03-.02.05-.03.08-.04.05-.03.08,0-.05.02.02,0,.04-.01.06-.02.03,0,.06-.02.09-.02.13-.03-.09,0-.02,0,.03,0,.07,0,.1,0,.01,0,.03,0,.04,0-.12.02-.11-.02-.04,0,.03,0,.06.02.09.03-.11,0-.1-.05-.05-.02.01,0,.02.01.03.02.01,0,.02.02.03.02-.1-.04-.08-.07-.04-.03,0,0,.02.02.03.03-.11-.1-.05-.07-.02-.02.01.02.03.05.04.07.03.05-.01.03-.02-.05,0,.04.03.09.04.13.01.04-.01.06,0-.05,0,.02,0,.04,0,.07,0,.05,0,.1,0,.15,0-.11.02-.1,0-.05,0,.03-.01.05-.02.08-.01.04-.02.08-.04.12s-.05.09.01-.03c0,.02-.02.03-.02.05-.03.05-.05.1-.08.15-.01.02-.09.14-.04.07s-.04.04-.05.06c-.03.03-.07.07-.1.1,0,0-.03.02-.04.04.06-.05.08-.06.03-.03-.01,0-.03.02-.04.03-.04.03-.08.05-.12.07-.02.01-.13.05-.14.07.02-.03.1-.04.03-.01-.03.01-.06.02-.09.03-.05.02-.1.03-.15.04-.03,0-.05,0-.08.01-.07.01.13-.01.03,0-.05,0-.1,0-.15,0-.02,0-.04,0-.06,0-.11,0,.1.02.03,0-.05-.01-.11-.02-.16-.04,0,0-.04-.02-.06-.02l.06.03s-.04-.02-.05-.03c-.03-.01-.14-.1-.07-.04s-.02-.02-.04-.04c-.01-.01-.03-.03-.04-.04-.02-.02.08.11.02.01-.02-.03-.03-.06-.05-.09-.03-.05.05.13.02.04,0-.02-.01-.03-.02-.05-.01-.04-.02-.08-.03-.12-.02-.08.01.07,0,.06-.01-.01,0-.07,0-.08,0-.04,0-.07,0-.11,0,.13-.02.1,0,.05,0-.02,0-.04.01-.06,0-.01,0-.03.01-.04.02-.09-.06.11-.02.04.02-.03.04-.06.06-.1-.06.11-.06.07-.03.04.01-.01.03-.03.04-.04.06-.05-.05.04-.05.04,0-.01.05-.03.06-.04.07-.04-.12.05-.02.01.08-.03-.14,0-.05,0,.02,0,.04,0,.06,0-.12,0-.11-.02-.07,0,.02,0,.04,0,.06.02.11.03-.08-.05-.02,0,.03.02.06.04.09.06-.11-.06-.08-.06-.04-.03.02.02.04.03.06.05.08.08-.05-.08,0-.02.02.03.04.06.05.09.04.07-.03-.11-.02-.05,0,.02,0,.03.01.05.03.07-.02-.08,0-.07,0,0,0,.05,0,.06.01.08.03-.14,0-.06,0,0-.01.03-.01.04,0-.06.06-.12.02-.06-.04.07.04-.03.04-.04,0,.02-.08.1-.09.12.02-.02-.04.12-.06.15-.04.05.07-.12.02-.06s.08-.1.03-.04.1-.06.05-.04c0,0-.02.01-.03.01-.04.02-.02.01.06-.03,0,0-.03.01-.04.01-.06.01-.06-.01.05,0-.02,0-.04,0-.05,0-.1,0,.12.03.04,0-.01,0-.03,0-.04-.01-.1-.03.04,0,.04.02,0,0-.04-.02-.05-.03-.03-.01.11.09.03.02-.04-.03.01-.04.04.05,0-.01-.02-.03-.02-.04l.03.07s-.02-.07-.02-.08c.02.03,0,.13,0,.02,0-.02,0-.04,0-.06,0,.14-.01.07,0,.02,0-.02.03-.06.03-.08l-.03.07s.02-.03.03-.05c0-.02.02-.03.03-.05.05-.08-.07.07,0,0,.02-.02.04-.04.06-.06.06-.07-.1.06,0,0,.05-.03.1-.06.16-.09.09-.04-.01,0-.01,0,0,0,.09-.03.09-.03.06-.02.12-.03.18-.05.13-.03.25-.05.38-.07l-.62-.35s.01.05.02.08c.03.09,0-.13,0-.02,0,.02,0,.05,0,.08,0,.04.03-.13,0-.03,0,.03-.02.06-.03.09-.03.08.06-.1,0-.02-.01.02-.03.05-.04.07v.02s-.03.03.02-.04c-.03.03-.09.08-.11.11.05-.07.08-.05.02-.02-.02.01-.05.03-.07.04-.08.05.11-.03.02-.01-.02,0-.05.01-.07.02-.09.02.13,0,.02,0-.03,0-.06,0-.09,0-.26-.03-.51.25-.5.5.01.29.22.47.5.5.82.09,1.54-.85,1.27-1.62-.04-.12-.12-.24-.23-.3-.13-.07-.24-.07-.39-.05-.38.06-.77.14-1.08.37-.39.29-.62.75-.53,1.24.08.44.46.72.89.75.4.03.81-.22.9-.63l-.13.22c.31-.35.33-.85.05-1.22s-.72-.6-1.19-.49-.73.53-.79.97.08.86.38,1.17c.36.38.9.47,1.4.4.43-.06.86-.29,1.16-.6s.52-.76.55-1.22-.18-.93-.58-1.14-.86-.18-1.24.03c-.4.22-.66.69-.5,1.14.09.25.34.44.62.35.24-.08.44-.35.35-.62h0Z"/>
      <path class="cls-3" d="M199.33,147.06c-.02-.09,0,.1,0,.01,0,0,0-.05,0-.06,0,0-.03.1,0,.06,0-.02.03-.12,0-.03-.02.07,0,.02,0,0,.01-.02.05-.06,0,0-.06.06.01-.01.03-.03s.03-.03.04-.04c.03-.04-.04.03-.04.03,0,0,.07-.04.08-.05,0,0,.05-.03.05-.03,0,.01-.11.04-.03.01.03,0,.06-.02.09-.03.01,0,.06,0,.06-.01,0,0-.11,0-.06,0,.03,0,.06,0,.09,0,.11,0-.09-.03.02,0,.02,0,.12.04.04,0-.09-.04.05.02.05.03,0,0-.07-.07-.03-.03.01.01.03.02.04.03s.02.02.04.04c.07.07,0-.01,0,0,0,0,.05.08.05.09,0,.01.01.03.02.05.03.05-.02-.09-.01-.03,0,.03.02.07.03.1,0,.02,0,.03.01.05.02.09,0-.07,0-.01,0,.08,0,.15,0,.23,0,.1.02-.09,0,0-.01.05-.02.09-.03.14,0,.03-.02.08-.04.1,0,0,.05-.08.01-.04,0,.01-.02.03-.02.05-.02.04-.04.07-.06.1-.01.02-.02.03-.03.05.03-.03.04-.05,0,0-.06.06-.12.12-.19.18-.04.04.02-.01.02-.02-.02.02-.04.03-.07.05-.04.03-.08.05-.12.07-.08.04-.16.08-.24.12.09-.04-.02,0-.05.02-.05.02-.09.03-.14.05-.08.03-.17.05-.26.07-.05.01-.09.02-.14.03-.02,0-.04,0-.06.01-.01,0-.1.01-.04,0s-.01,0-.02,0c-.03,0-.06,0-.09,0-.04,0-.09,0-.13,0-.02,0-.04,0-.06,0-.06,0,.02,0,.03,0-.02,0-.06-.01-.08-.02-.05-.01-.04-.01,0,0,0,0-.1-.05-.1-.06,0-.02.08.08.03.02,0-.01-.02-.02-.03-.03,0,0-.02-.03-.03-.03,0,0,.05.09.04.04,0-.02-.07-.13-.03-.05.04.07,0-.01,0-.04,0-.02,0-.04-.01-.06-.02-.05,0,.06,0,.06,0-.02,0-.06,0-.09,0-.02,0-.04,0-.06,0-.07,0,.03,0,.04.01-.02.01-.06.02-.09,0-.03.05-.12.01-.05s.01-.02.02-.03c0-.01.02-.02.02-.04.04-.07-.06.06-.02.02.02-.02.04-.04.06-.06.03-.04-.04.03-.04.03,0,0,.05-.03.05-.03.01,0,.03-.01.04-.02.04-.03-.04.03-.04.02,0,0,.04-.01.05-.01.09-.03,0,.02-.02,0,0,0,.09,0,.1,0,.02,0,.03,0,.05,0,.06,0-.05,0-.05,0,0,0,.1.03.11.03,0,0,.05.01.05.02,0,0-.1-.05-.03,0,.01,0,.12.05.11.07,0,0-.07-.07-.03-.03.02.02.04.04.06.06.01.01.02.02.03.04.02.02.03.07.01.01s0-.01,0,0c.01.02.03.05.04.07.04.05-.03-.05-.02-.04,0,0,.02.06.02.06,0,.01,0,.03.01.05.02.05,0-.11,0-.02,0,.02,0,.15,0,.08,0-.07,0,0,0,0,0,.03-.02.06-.02.09-.01.06,0-.04.02-.03,0,0-.03.06-.03.07-.01.02-.03.04-.04.06-.03.05-.01.02.01-.01-.03.03-.06.07-.09.1-.01.01-.07.07-.02.02.05-.04-.01,0-.03.02-.04.02-.07.04-.11.07-.09.05.02-.01.02,0,0,0-.07.02-.07.02-.02,0-.04,0-.05.01-.09.02,0-.01,0,0,0,0-.14,0-.15,0l.48.63c.02-.11.04-.23.07-.34.02-.06.03-.11.05-.16-.04.11.03-.05.04-.07.01-.02.11-.16.04-.07.03-.03.06-.06.09-.09.04-.04.04-.03-.02,0,.02-.01.04-.03.06-.04.02-.01.04-.02.07-.03-.06.03-.07.03-.02,0,.02,0,.05-.01.07-.02.06-.01.05,0-.02,0,.02,0,.05,0,.07,0,.06,0,.05,0-.03,0,.02,0,.03,0,.05.01.04.01.02,0-.04-.02.02,0,.04.02.06.03-.05-.04-.06-.05-.02-.01.04.04.03.03-.02-.03.01.02.02.03.03.05-.03-.08-.04-.09-.02-.04.01.05,0,.04,0-.05,0,.02,0,.04,0,.06,0,.05,0,.04,0-.05-.01.02-.02.08-.03.1-.01.04,0,.02.02-.05,0,.02-.02.04-.03.05-.01.02-.02.04-.03.05.05-.06.06-.07.02-.03-.01.01-.09.08-.09.09.06-.05.07-.05.03-.02-.02.01-.03.02-.05.03-.07.04.11-.04-.02,0-.09.03.11,0,.01,0-.05,0-.04,0,.04,0-.02,0-.04,0-.07-.02-.02,0-.04-.01-.06-.02.07.03.08.03.03,0-.02-.01-.04-.02-.06-.04.06.05.06.05.02.02-.02-.02-.09-.07-.09-.1.04.06.05.06.02.02l-.02-.03s-.06-.09-.07-.12c.03.07.03.07.01.02,0-.02-.01-.04-.02-.07,0-.02-.01-.05-.02-.07,0-.06,0-.05,0,.03-.02-.02,0-.12,0-.14,0-.02,0-.05,0-.07-.01.08-.01.08,0,.03.05-.26-.07-.55-.35-.62-.25-.06-.56.07-.62.35-.1.51.03,1.06.41,1.44s.98.49,1.44.19c.41-.27.68-.8.53-1.29-.18-.58-.85-.82-1.4-.63-.65.23-.94.85-1.05,1.48-.06.34.14.61.48.63.56.04,1.14-.3,1.4-.79.28-.53.2-1.16-.23-1.58-.4-.4-1-.54-1.52-.3-.44.2-.7.7-.7,1.17,0,.56.35,1.05.9,1.19s1.14,0,1.64-.21.99-.53,1.23-1.04.26-1.07,0-1.57c-.28-.54-.91-.8-1.49-.61s-1.01.73-.87,1.37c.05.26.37.43.62.35.27-.09.41-.34.35-.62h0Z"/>
    </g>
    <g>
      <path class="cls-3" d="M.96,151.02c9.36.47,18.74.5,28.1.05,8.93-.43,17.79-1.35,26.75-1.05,4.7.16,9.39.53,14.09.78,5.16.27,10.32.23,15.48.37,11.53.3,23.04,1.14,34.56,1.72,11.15.56,22.32.82,33.48,1.15,13.28.4,26.57.71,39.85.92,19,.3,38,.42,57.01.41,2.86,0,5.72,0,8.58-.02,1.29,0,1.29-2,0-2-19.87.06-39.75-.02-59.62-.3-13.93-.19-27.85-.49-41.78-.89-9.71-.28-19.43-.57-29.14-.91-11.44-.4-22.87-1.26-34.3-1.77-10.44-.47-20.87-.48-31.31-1.12-4.93-.3-9.86-.51-14.8-.4-4.21.09-8.41.44-12.61.73-9.62.67-19.27.85-28.9.55-1.82-.06-3.63-.13-5.45-.22-1.29-.06-1.28,1.94,0,2h0Z"/>
      <path class="cls-3" d="M250.96,162.18c4.03-.96,6.57-4.52,10.07-6.47.54-.3.68-1.14.2-1.57-1.33-1.2-2.68-2.38-3.99-3.6-1.2-1.12-2.29-2.36-3.37-3.59-.85-.97-2.26.45-1.41,1.41,1.08,1.24,2.17,2.47,3.37,3.59,1.31,1.22,2.66,2.4,3.99,3.6l.2-1.57c-3.3,1.84-5.8,5.36-9.59,6.27-1.25.3-.72,2.23.53,1.93h0Z"/>
    </g>
    <g>
      <g>
        <path class="cls-3" d="M111.49,25.86l1.15-8.04c.06-.43-.32-.78-.73-.56-7.21,3.71-14.09,8.04-20.56,12.95-.29.22-.36.85.12.91,4.9.69,9.79,1.39,14.69,2.08l-.12-.91c-4.24,3.01-8.58,5.89-13,8.63-.32.2-.32.66,0,.86,1.29.81,2.8.98,4.3.95,1.77-.03,3.53-.22,5.29-.37,3.61-.32,7.27-.6,10.86.12.46.09.74-.33.56-.73-.66-1.56-.98-3.24-.97-4.93,0-.64-.99-.64-1,0-.02,1.88.37,3.7,1.1,5.44l.56-.73c-3.44-.7-6.93-.52-10.4-.22-1.76.15-3.52.33-5.29.41-1.55.07-3.16.06-4.52-.79v.86c4.42-2.74,8.76-5.61,13-8.63.3-.22.35-.85-.12-.91-4.9-.69-9.79-1.39-14.69-2.08l.12.91c6.46-4.9,13.34-9.24,20.56-12.95l-.73-.56-1.15,8.04c-.09.63.87.9.96.27h0Z"/>
        <path class="cls-3" d="M103.57,46.41h2.61c.32,0,.32-.5,0-.5h-2.61c-.32,0-.32.5,0,.5h0Z"/>
        <g>
          <path class="cls-3" d="M97.21,44.98l-.08,5.2.49-.07c-.17-1.04-.08-2.1.16-3.11.16-.68.46-2.22,1.45-2.08.82.11,1.02,1.45,1.11,2.09.08.51.1,1.02.07,1.54-.01.25-.04.49-.08.73-.02.13-.05.26-.08.39-.02.11-.11.24,0,.3-.28-.16-.53.27-.25.43.83.47.9-1.56.91-1.96.04-.97-.07-2.04-.46-2.94-.3-.71-.96-1.32-1.77-1-.88.35-1.15,1.39-1.36,2.22-.29,1.16-.39,2.35-.2,3.53.05.28.49.21.49-.07l.08-5.2c0-.32-.5-.32-.5,0h0Z"/>
          <path class="cls-3" d="M103.57,48.52c.9.02,1.81-.06,2.69-.24.31-.06.18-.55-.13-.48-.84.17-1.7.25-2.56.22-.32,0-.32.49,0,.5h0Z"/>
          <path class="cls-3" d="M108.77,45.94c.26-.51.57-.99.94-1.42.06-.07.15-.21.23-.17.08.03.16.25.2.32.1.23.14.48.15.72.05,1.11-.26,2.28-.62,3.33-.1.31.38.44.48.13.24-.71.42-1.43.53-2.17.1-.64.18-1.31,0-1.94-.14-.5-.58-1.24-1.16-.76-.25.21-.44.5-.63.76-.21.3-.4.61-.56.94-.15.29.29.54.43.25h0Z"/>
          <path class="cls-3" d="M108.19,50.32c.97-1.11,2.45-1.68,3.92-1.5.32.04.32-.46,0-.5-1.58-.19-3.23.45-4.27,1.65-.21.24.14.6.35.35h0Z"/>
          <path class="cls-3" d="M92.55,21.4c-.04,1.84.11,3.68.43,5.5.05.29.48.2.49-.07.09-1.99-.46-4.17.22-6.09.11-.31.42-.87.83-.61.32.2.39.7.45,1.04.2,1.1.33,2.21.4,3.32.02.32.52.32.5,0-.05-.68-.11-1.36-.2-2.04-.08-.6-.14-1.23-.3-1.82-.1-.37-.28-.76-.63-.96s-.8-.09-1.08.19c-.35.35-.49.87-.59,1.34-.12.57-.17,1.15-.17,1.73-.02,1.31.15,2.61.09,3.91l.49-.07c-.32-1.77-.45-3.57-.41-5.36,0-.32-.49-.32-.5,0h0Z"/>
          <path class="cls-3" d="M96.82,20.79c.81-.51,1.66-.93,2.55-1.27.13-.05.21-.17.17-.31-.03-.12-.18-.22-.31-.17-.93.35-1.82.79-2.67,1.32-.27.17-.02.6.25.43h0Z"/>
          <path class="cls-3" d="M96.84,22.14l3.37-1.27c.3-.11.17-.6-.13-.48l-3.37,1.27c-.3.11-.17.6.13.48h0Z"/>
          <path class="cls-3" d="M106.5,16.63c-.92,1.19-1.81,3.67-3.68,3.54-.96-.07-1.64-.92-1.16-1.84.45-.86,1.46-1.37,2.37-1.56,1.92-.41,3.74.74,5.66.47.62-.09,1.31-.48,1.31-1.19,0-.63-.57-.96-1.13-1.03-1.63-.21-3.29.95-4.02,2.35-.15.29.28.54.43.25.38-.75.98-1.35,1.73-1.73.57-.29,1.85-.73,2.37-.14.49.55-.44.96-.85,1.01-.49.06-1.01,0-1.49-.09-.91-.16-1.79-.42-2.71-.49-1.53-.11-3.49.52-4.18,2.02-.6,1.33.55,2.55,1.9,2.46,1.98-.13,2.76-2.35,3.79-3.69.19-.25-.16-.61-.35-.35h0Z"/>
        </g>
        <path class="cls-3" d="M121.59,18.68c-.29,2.26-.24,4.53.12,6.78.04.27.38.42.62.35.28-.08.39-.35.35-.62-.35-2.15-.37-4.35-.09-6.51.04-.27-.25-.5-.5-.5-.3,0-.46.23-.5.5h0Z"/>
        <path class="cls-3" d="M115.41,29.08c4.15-.45,8.12-2.07,12.32-2.07.64,0,.64-1,0-1-4.21,0-8.17,1.62-12.32,2.07-.63.07-.64,1.07,0,1h0Z"/>
        <path class="cls-3" d="M117.86,32.3c.14,2.82.29,5.66.9,8.43.14.64,1.07.36.96-.27-.24-1.38-.26-2.81-.05-4.2.18-1.17.47-2.55,1.33-3.42.19-.19.41-.35.69-.26s.44.36.54.61c.23.58.27,1.28.33,1.9.15,1.43.17,2.88.17,4.32,0,.64,1,.64,1,0,0-1.76-.04-3.53-.29-5.27-.1-.72-.22-1.5-.75-2.05-.49-.5-1.23-.7-1.87-.37-1.3.69-1.81,2.54-2.06,3.87-.31,1.71-.31,3.43-.02,5.14l.96-.27c-.59-2.68-.73-5.43-.86-8.16-.03-.64-1.03-.64-1,0h0Z"/>
        <path class="cls-3" d="M124.26,29.18c.27-.26.7-.3,1.04-.15.4.16.65.57.76.97.06.21.1.48.01.69-.08.19-.3.34-.46.45-.47.33-.98.56-1.53.7l.27.96c1.48-.48,3.06-.56,4.58-.2.63.15.89-.82.27-.96-1.69-.39-3.46-.33-5.11.2-.61.2-.36,1.13.27.96.77-.2,1.49-.56,2.11-1.06.67-.54.79-1.37.52-2.16-.23-.7-.73-1.29-1.44-1.53s-1.46-.07-1.98.42c-.47.44.24,1.15.71.71h0Z"/>
      </g>
      <g>
        <path class="cls-3" d="M50.72,52.02l-.67,16.59c-.01.35.45.66.75.43,4.48-3.33,9.37-6.12,14.6-8.1.6-.23.34-1.19-.27-.96-5.31,2.01-10.28,4.82-14.83,8.2l.75.43.67-16.59c.03-.64-.97-.64-1,0h0Z"/>
        <path class="cls-3" d="M51,67.92c6.72-11.37,16.89-20.11,28.4-26.39,3.12-1.7,6.32-3.23,9.59-4.61.59-.25.08-1.11-.5-.86-5.9,2.5-11.61,5.48-16.92,9.07s-10.44,7.98-14.72,12.95c-2.5,2.91-4.75,6.04-6.7,9.35-.33.56.54,1.06.86.5h0Z"/>
      </g>
    </g>
  </g>
</svg>