<?xml version="1.0" encoding="UTF-8"?>
<svg id="Layer_2" data-name="Layer 2" xmlns="http://www.w3.org/2000/svg" viewBox="0 0 262.24 173.79">
  <defs>
    <style>
      .cls-1 {
        fill: #00aeef;
      }

      .cls-1, .cls-2, .cls-3, .cls-4 {
        stroke-width: 0px;
      }

      .cls-2 {
        fill: #ed1c24;
      }

      .cls-3 {
        fill: #939598;
      }

      .cls-4 {
        fill: #231f20;
      }
    </style>
  </defs>
  <g id="Layer_1-2" data-name="Layer 1">
    <g>
      <g>
        <path class="cls-3" d="M37.67,160.23c-.15,1.54-.22,3.09-.22,4.64,0,.36,0,.73.02,1.09,0,.34-.02.73.07,1.07.14.54.8,1.03,1.27.52.44-.47-.27-1.18-.71-.71.39.11.52.1.41-.04-.02-.03-.03-.06-.02-.09.01-.13-.01-.28-.02-.41-.01-.3-.02-.59-.02-.89,0-.57,0-1.14,0-1.71.02-1.16.1-2.32.21-3.48.06-.64-.94-.64-1,0h0Z"/>
        <path class="cls-3" d="M67.36,162.03c.79.22,1.61.52,2.21,1.1.54.52.92,1.34.67,2.09-.21.64-.85.98-1.42,1.26-.64.32-1.29.62-1.81,1.13-.25.25-.15.6.1.79,1.65,1.23,3.83,1.61,5.8,1.06.62-.17.36-1.14-.27-.96-1.74.49-3.59.12-5.03-.96l.1.79c.58-.57,1.39-.82,2.08-1.23.77-.46,1.38-1.12,1.49-2.04s-.3-1.92-.97-2.58c-.74-.73-1.72-1.12-2.69-1.4-.62-.18-.89.79-.27.96h0Z"/>
        <path class="cls-3" d="M92.4,163.2c.58-.01,1.75-.11,2.07.52.19.37.02.9-.09,1.28-.15.53-.51.97-.94,1.29-.18.13-.37.25-.56.35-.07.04-.14.07-.21.1.09-.04-.01,0-.05.02-.59.22-.37,1.12.27.96.38-.09.77-.18,1.15-.28.1-.02.19-.05.29-.07-.14-.05-.16-.05-.05,0,.1.07.22.11.33.19.32.22.54.53.7.88.21.49.27,1.07-.1,1.5-.42.49-1.11.54-1.7.35-.61-.2-.88.77-.27.96.88.28,1.85.14,2.55-.49s.82-1.55.55-2.39c-.2-.61-.54-1.15-1.05-1.55-.25-.19-.62-.45-.95-.47-.26-.01-.59.13-.85.19-.29.07-.57.14-.86.21l.27.96c1.21-.46,2.2-1.38,2.52-2.65.17-.66.26-1.42-.17-2.01-.62-.86-1.88-.87-2.83-.86-.64.01-.64,1.01,0,1h0Z"/>
        <path class="cls-3" d="M119.71,162.77l-.5,3.01c-.08.5-.17,1-.25,1.51-.07.45-.11.95.33,1.23.37.24.94.19,1.36.2.5.02.99.01,1.49-.01,1-.05,2-.18,2.98-.39.63-.13.36-1.09-.27-.96-.83.17-1.66.29-2.5.34-.42.03-.85.04-1.28.03-.21,0-.43,0-.64-.02-.18,0-.38-.05-.55-.03l-.08-.02c.07.12.1.15.09.09,0,0,.03-.24.02-.21.03-.22.07-.43.11-.65l.21-1.29.43-2.58c.04-.27-.07-.54-.35-.62-.24-.07-.57.08-.62.35h0Z"/>
        <path class="cls-3" d="M122.42,162.97c-.7,3.23-1.07,6.52-1.1,9.82,0,.64.99.64,1,0,.03-3.22.38-6.41,1.06-9.56.14-.63-.83-.9-.96-.27h0Z"/>
        <path class="cls-3" d="M151.4,165.15l-2.09-.56c-.52-.14-1.24-.45-1.72-.03-.45.4-.37,1.17-.42,1.71-.06.7-.12,1.41-.19,2.11-.05.57-.14,1.19.32,1.63.36.34.87.37,1.33.36.36,0,.87-.09,1.12.23.21.26.21.66.13.97-.3,1.21-1.96,1.23-2.94,1.21-.64-.01-.64.99,0,1,1.08.02,2.25-.06,3.13-.76.7-.55,1.01-1.5.78-2.37-.25-.97-1.08-1.3-2.01-1.29-.22,0-.46.03-.68,0-.28-.05-.26-.24-.24-.5.05-.7.12-1.4.18-2.1.03-.38.07-.76.1-1.14,0-.07.04-.18.02-.24-.04-.15.07-.04-.06-.03.17,0,.37.08.53.12l2.42.64c.62.17.89-.8.27-.96h0Z"/>
      </g>
      <g>
        <path class="cls-3" d="M36.94,149.14c.07,2.25.14,4.51.2,6.76.02.54.45,1,1,1s1.02-.46,1-1c-.07-2.25-.14-4.51-.2-6.76-.02-.54-.45-1-1-1s-1.02.46-1,1h0Z"/>
        <path class="cls-3" d="M68.39,147.75c.28,3.21.56,6.41.84,9.62.05.54.43,1,1,1,.5,0,1.05-.46,1-1-.28-3.21-.56-6.41-.84-9.62-.05-.54-.43-1-1-1-.5,0-1.05.46-1,1h0Z"/>
        <path class="cls-3" d="M94.97,149.81c-.68,2.53-.9,5.18-.61,7.78.06.54.42,1,1,1,.5,0,1.06-.46,1-1-.27-2.44-.09-4.88.54-7.25.33-1.24-1.6-1.78-1.93-.53h0Z"/>
        <path class="cls-3" d="M123.12,152.49c-.17,2.01-.21,4.03-.1,6.05.03.52.44,1.03,1,1,.52-.02,1.03-.44,1-1-.11-2.02-.08-4.04.1-6.05.05-.52-.49-1.02-1-1-.58.03-.95.44-1,1h0Z"/>
        <path class="cls-3" d="M149.48,152.73c-.24,2.34-.26,4.69-.05,7.03.05.54.43,1,1,1,.5,0,1.05-.46,1-1-.21-2.34-.19-4.69.05-7.03.06-.54-.5-1-1-1-.59,0-.94.46-1,1h0Z"/>
        <path class="cls-3" d="M176.37,154.43l.52,6.04c.04.52.43,1.03,1,1,.5-.02,1.05-.44,1-1l-.52-6.04c-.04-.52-.43-1.03-1-1-.5.02-1.05.44-1,1h0Z"/>
      </g>
      <g>
        <path class="cls-3" d="M202.88,166.88c1.51.16,3.65-.29,4.44-1.76s-.58-3.09-2.15-2.94c-1.76.17-2.66,1.88-2.85,3.46-.17,1.44-.03,3.23,1.13,4.26,1.03.92,3.03.92,3.68-.47.27-.58-.59-1.09-.86-.5-.35.74-1.36.77-1.98.36-.89-.59-1.04-1.87-1.02-2.84.02-1.15.29-2.49,1.4-3.08.43-.23.94-.26,1.36,0s.66.73.46,1.2c-.23.54-.87.88-1.39,1.07-.72.26-1.46.34-2.22.25-.27-.03-.5.25-.5.5,0,.29.23.47.5.5h0Z"/>
        <path class="cls-3" d="M208.62,163.72c1.44-.08,2.88-.23,4.31-.45.27-.04.41-.38.35-.62-.08-.29-.35-.39-.62-.35-1.34.2-2.69.33-4.04.41-.27.02-.5.22-.5.5,0,.26.23.52.5.5h0Z"/>
        <path class="cls-3" d="M210.15,160.51c-.69,2.71-1.01,5.5-.95,8.29.01.64,1.01.64,1,0-.06-2.71.25-5.4.92-8.02.16-.62-.81-.89-.96-.27h0Z"/>
        <path class="cls-3" d="M216.96,162.64c-1.65,1.02-3.49,2.33-3.53,4.48-.02.92.39,1.77,1.16,2.29.7.48,1.64.58,2.39.14.56-.32.05-1.19-.5-.86-.48.28-1.06.13-1.47-.21-.5-.41-.65-1.07-.54-1.69.27-1.58,1.75-2.5,3.01-3.28.55-.34.04-1.2-.5-.86h0Z"/>
        <path class="cls-3" d="M219.45,168.95s-.04-.08-.06-.13l.05.12c-.03-.07-.05-.13-.06-.2l.02.13s0-.07,0-.1l-.02.13s.01-.06.02-.08l-.05.12s.02-.04.03-.06l-.08.1s.02-.02.03-.03l-.1.08s.02-.02.04-.02l-.12.05s.03,0,.05-.01l-.13.02s.04,0,.06,0l-.13-.02s.05,0,.07.02l-.12-.05s.04.02.06.03l-.1-.08s.02.02.03.03l-.08-.1s.01.02.02.03l-.05-.12s0,.02,0,.02l-.02-.13s0,.02,0,.03l.02-.13s0,.02,0,.03l.05-.12s0,.02-.02.03l.08-.1s0,0,0,0c-.05.05-.08.1-.1.16-.03.06-.05.12-.04.19,0,.07.01.13.04.19.02.06.05.12.1.16.1.09.22.15.35.15s.26-.05.35-.15c.03-.04.07-.08.09-.12,0,0,0-.01,0-.02,0-.01.04-.09.06-.13,0,0,0,0,0-.01,0-.04.02-.1.02-.14,0-.06,0-.11-.02-.17,0,0,0,0,0-.01-.01-.03-.04-.09-.05-.12,0,0,0-.01-.01-.02-.03-.04-.06-.08-.09-.11,0,0-.01-.01-.02-.02-.04-.03-.07-.06-.11-.09,0,0-.02-.01-.02-.02-.05-.03-.1-.05-.16-.07-.02,0-.03-.01-.05-.02-.13-.03-.22-.03-.35,0,0,0-.02,0-.02,0-.05.01-.09.04-.14.06-.05.02-.1.07-.14.1,0,0-.01.01-.02.02-.03.04-.07.08-.09.12-.04.06-.06.12-.08.19s-.03.14-.03.2c0,.03,0,.05,0,.08,0,.11.02.21.06.31s.08.2.13.29c.03.06.07.11.13.14.05.04.1.07.17.09.07.02.13.02.2,0,.07,0,.13-.02.19-.06.11-.07.2-.17.23-.3l.02-.13c0-.09-.02-.17-.07-.25h0Z"/>
      </g>
    </g>
    <g>
      <g>
        <path class="cls-3" d="M2.43,81.54c.08,1.77.33,3.53.74,5.25.15.63,1.11.36.96-.27-.39-1.64-.63-3.3-.7-4.98-.03-.64-1.03-.64-1,0h0Z"/>
        <path class="cls-3" d="M7.62,80.57c-1.39,3.26-2.82,6.5-4.31,9.71-.27.58.59,1.09.86.5,1.48-3.21,2.92-6.45,4.31-9.71.25-.59-.61-1.1-.86-.5h0Z"/>
        <path class="cls-3" d="M7.72,83.68c-.29.66-.54,1.33-.72,2.03-.17.62-.54,1.6.19,1.99.28.15.62.12.92.04.33-.09.65-.21.98-.32.6-.19,1.22-.37,1.84-.2s.89-.79.27-.96-1.24-.11-1.84.04c-.29.07-.57.17-.86.26-.15.05-.3.1-.46.15-.06.02-.13.04-.19.06-.02,0-.16.04-.12.03.06,0-.13.01-.13,0,0-.02.1.05.11.05.05.06.01.16.04.05,0,0,.02-.11.03-.15.06-.3.13-.59.21-.88.16-.57.36-1.14.6-1.69.11-.25.07-.54-.18-.68-.21-.12-.58-.07-.68.18h0Z"/>
        <path class="cls-3" d="M9.99,83.54l-1.2,6.87c-.11.63.85.9.96.27l1.2-6.87c.11-.63-.85-.9-.96-.27h0Z"/>
      </g>
      <g>
        <path class="cls-3" d="M5.42,108.65c-.07,1.52-.04,3.05.08,4.57.02.27.21.5.5.5.25,0,.52-.23.5-.5-.13-1.52-.15-3.05-.08-4.57.03-.64-.97-.64-1,0h0Z"/>
        <path class="cls-3" d="M10.14,106.3c-1.75,3.46-3.21,7.05-4.36,10.75-.19.62.77.88.96.27,1.13-3.62,2.55-7.13,4.26-10.51.29-.57-.57-1.08-.86-.5h0Z"/>
        <path class="cls-3" d="M10.87,117.02c.49-1.01.86-2.08,1.07-3.19.1-.56.17-1.12.21-1.68.03-.48.06-.99-.05-1.46-.09-.41-.31-.82-.7-1-.43-.2-.91-.05-1.21.29s-.48.86-.6,1.31c-.14.51-.18,1.1.08,1.58.42.77,1.74,1.03,2.2.15.3-.57-.57-1.08-.86-.5-.07.13-.28.06-.39-.04-.25-.23-.13-.7-.05-.98.07-.24.19-.76.41-.9-.01,0,.07,0,.02,0-.04-.01.04.06.06.1.06.11.09.26.1.39.1.89-.04,1.87-.22,2.74-.2.94-.5,1.85-.92,2.72-.28.58.58,1.08.86.5h0Z"/>
      </g>
      <g>
        <path class="cls-3" d="M3.6,125.43c-.23,2.16-.32,4.33-.28,6.5.01.64,1.01.64,1,0-.04-2.17.06-4.34.28-6.5.03-.27-.25-.5-.5-.5-.29,0-.47.23-.5.5h0Z"/>
        <path class="cls-3" d="M8.75,125.3c-1.39,3.69-2.87,7.34-4.43,10.96-.25.58.61,1.09.86.5,1.59-3.7,3.11-7.43,4.53-11.2.23-.6-.74-.86-.96-.27h0Z"/>
        <path class="cls-3" d="M8.02,131.22l-.17,5.4c-.02.64.98.64,1,0l.17-5.4c.02-.64-.98-.64-1,0h0Z"/>
        <path class="cls-3" d="M10.9,130.52c-.25,1.26-.44,2.53-.54,3.81-.09,1.07-.19,2.3.5,3.21.55.71,1.66,1.09,2.46.58s1.18-2.13.25-2.74c-.45-.3-1.06-.29-1.53-.05-.53.27-.87.8-1.14,1.31-.3.57.56,1.08.86.5.18-.34.4-.8.78-.95.32-.13.61,0,.57.36-.03.33-.18.75-.56.8-.33.04-.7-.15-.9-.4-.57-.72-.36-1.91-.29-2.75.1-1.15.27-2.29.5-3.41.13-.63-.84-.9-.96-.27h0Z"/>
      </g>
      <path class="cls-3" d="M7.69,29.36v9.18c0,.64,1,.64,1,0v-9.18c0-.64-1-.64-1,0h0Z"/>
      <path class="cls-3" d="M15.76,34.03c3.6.08,7.2.06,10.79-.06.64-.02.64-1.02,0-1-3.6.12-7.2.14-10.79.06-.64-.01-.64.99,0,1h0Z"/>
      <g>
        <path class="cls-3" d="M14.79,86.51c1.07.13,2.24,0,3.32,0,1.2-.01,2.4-.03,3.61-.05,2.36-.04,4.73-.11,7.09-.19.64-.02.64-1.02,0-1-2.36.08-4.72.15-7.09.19-1.16.02-2.32.04-3.48.05s-2.34.14-3.45,0c-.64-.08-.63.92,0,1h0Z"/>
        <path class="cls-3" d="M16.1,112.86c3.39.48,6.78.97,10.17,1.45.63.09.9-.87.27-.96-3.39-.48-6.78-.97-10.17-1.45-.63-.09-.9.87-.27.96h0Z"/>
        <path class="cls-3" d="M16.52,131.42l-.96-.07c-.64-.05-.64.94,0,1,3.6.32,7.22.42,10.84.29.64-.02.64-1.02,0-1-3.62.13-7.24.04-10.84-.29v1l.96.07c.64.05.64-.95,0-1h0Z"/>
      </g>
    </g>
    <g>
      <path class="cls-4" d="M11.64,17.06c3.25-4.03,6.45-8.11,9.59-12.23l-1.57.2c2.8,3.39,5.6,6.78,8.4,10.17.82.99,2.23-.43,1.41-1.41-2.8-3.39-5.6-6.78-8.4-10.17-.45-.55-1.22-.26-1.57.2-3.04,3.98-6.13,7.93-9.28,11.83-.34.42-.41,1,0,1.41.35.35,1.07.42,1.41,0h0Z"/>
      <path class="cls-4" d="M19.88,6.24c.45,10.71.42,21.44.31,32.16s-.25,21.48-.38,32.22c-.26,21.46-.51,42.92-.77,64.38-.14,11.97-.29,23.94-.43,35.91-.02,1.29,1.98,1.29,2,0,.26-21.4.51-42.81.77-64.21.26-21.45.52-42.9.77-64.36.14-12.03.23-24.07-.27-36.1-.05-1.28-2.05-1.29-2,0h0Z"/>
    </g>
    <g>
      <g>
        <path class="cls-1" d="M37.74,152.98c-.7-10.62-1.47-26.71-1.21-46.63.09-6.9.26-10.93.53-20.44.35-12.3.77-29.95.98-51.83,4.82-.57,9.88-1.05,15.16-1.42,5.19-.36,10.19-.56,14.98-.66.03,3.74.1,9.42.25,16.36.19,9.08.36,12.2.48,17.88.15,6.7.08,9.32-.07,27.49-.14,16.59-.21,24.88-.17,29.04.07,6.68.28,16.67.97,28.99"/>
        <path class="cls-4" d="M38.24,152.98c-.44-6.64-.76-13.28-.97-19.92-.28-8.96-.36-17.92-.24-26.89.09-7.09.36-14.17.56-21.26s.36-13.69.5-20.54c.18-8.86.32-17.73.41-26.6.01-1.23.03-2.47.04-3.7l-.5.5c10.01-1.18,20.07-1.87,30.14-2.07l-.5-.5c.08,9.35.27,18.7.56,28.05.16,5.03.27,10.05.25,15.08-.03,8.79-.15,17.58-.22,26.37-.06,6.68-.14,13.37-.11,20.06.04,8.62.32,17.25.75,25.86.07,1.45.15,2.91.23,4.36.04.64,1.04.64,1,0-.54-9.66-.87-19.32-.97-28.99-.06-5.9.03-11.81.07-17.71.08-9.34.18-18.69.24-28.03.03-4.85-.03-9.69-.17-14.54-.27-9.28-.51-18.55-.61-27.83,0-.89-.02-1.78-.03-2.67,0-.27-.23-.51-.5-.5-10.07.2-20.13.89-30.14,2.07-.27.03-.5.2-.5.5-.09,9.1-.21,18.2-.39,27.31-.14,7.11-.3,14.22-.5,21.33s-.45,13.94-.58,20.91c-.16,8.81-.12,17.63.11,26.44.18,6.96.49,13.92.92,20.87.04.68.09,1.37.13,2.05.04.64,1.04.64,1,0h0Z"/>
      </g>
      <g>
        <path class="cls-1" d="M69.64,151.77c-.24-22.5-.48-44.99-.72-67.49,4.36-.49,9.25-.81,14.57-.8,4.87,0,9.36.29,13.41.73-.6,3.63-1.04,7.29-1.31,10.97-.68,9.37-.38,19.05-.38,19.05.26,8.14.33,20.6.25,37.99"/>
        <path class="cls-4" d="M70.14,151.77c-.09-8.79-.19-17.58-.28-26.37s-.19-17.5-.28-26.25c-.05-4.96-.11-9.92-.16-14.87l-.5.5c9.29-1.03,18.68-1.06,27.98-.08l-.48-.63c-1.61,9.73-1.95,19.64-1.73,29.5.16,6.8.27,13.61.29,20.41.02,6.07,0,12.15-.02,18.22,0,.64,1,.64,1,0,.05-9.73.07-19.46-.06-29.2-.09-6.39-.34-12.78-.2-19.17s.62-13.05,1.69-19.5c.06-.34-.14-.6-.48-.63-9.3-.98-18.69-.96-27.98.08-.27.03-.5.21-.5.5.09,8.79.19,17.58.28,26.37s.19,17.5.28,26.25c.05,4.96.11,9.92.16,14.87,0,.64,1.01.64,1,0h0Z"/>
      </g>
      <g>
        <path class="cls-1" d="M95.45,152.21c-.08-12.66-.16-25.32-.25-37.99,4.7-.44,9.67-.76,14.88-.95,4.95-.17,9.69-.19,14.2-.1-.03,14.17-.07,28.34-.1,42.5"/>
        <path class="cls-4" d="M95.95,152.21c-.06-9.87-.13-19.74-.19-29.61-.02-2.79-.04-5.58-.05-8.37l-.5.5c9.67-.89,19.38-1.24,29.08-1.05l-.5-.5c-.03,11.02-.05,22.04-.08,33.06,0,3.15-.01,6.3-.02,9.45,0,.64,1,.64,1,0,.03-11.02.05-22.04.08-33.06,0-3.15.01-6.3.02-9.45,0-.27-.23-.49-.5-.5-9.71-.19-19.42.16-29.08,1.05-.27.02-.5.21-.5.5.06,9.87.13,19.74.19,29.61.02,2.79.04,5.58.05,8.37,0,.64,1,.64,1,0h0Z"/>
      </g>
      <g>
        <path class="cls-1" d="M124.19,155.68c.04-7.05.09-14.09.13-21.14,14.2-.31,24.39-.54,25.03-.6.07,0,.39-.05.58.14.22.22.14.63.13.71-.11.69-.13,8.71-.11,20.36"/>
        <path class="cls-4" d="M124.69,155.68c.04-7.05.09-14.09.13-21.14l-.5.5c7.48-.16,14.97-.31,22.45-.52.71-.02,1.42-.04,2.13-.07.14,0,.29-.03.43-.02.35.02.22.27.2.55-.15,1.94-.08,3.92-.09,5.86-.02,4.76-.02,9.53,0,14.29,0,.64,1,.64,1,0,0-4.45-.01-8.9,0-13.35,0-2.22-.04-4.46.08-6.67,0-.09.01-.17.02-.26.01-.12-.02.14,0,.02.02-.19.05-.36.02-.55-.1-.68-.63-.92-1.26-.9-.5.01-1,.04-1.5.06-2.7.08-5.39.14-8.09.2-5.13.12-10.26.23-15.39.34-.27,0-.5.22-.5.5-.04,7.05-.09,14.09-.13,21.14,0,.64,1,.64,1,0h0Z"/>
      </g>
      <g>
        <path class="cls-1" d="M149.94,155.14c.05-3.43.1-6.86.15-10.29,3.57.11,7.17.2,10.79.28,5.4.12,10.74.2,16.03.24.09.53.16,1.07.22,1.62.41,3.76.08,7.18-.54,10.08"/>
        <path class="cls-4" d="M150.44,155.14c.05-3.43.1-6.86.15-10.29l-.5.5c8.94.27,17.88.45,26.82.52l-.48-.37c.61,3.8.47,7.67-.32,11.43-.13.63.83.9.96.27.83-3.95.96-7.98.32-11.97-.03-.21-.28-.37-.48-.37-8.94-.08-17.88-.25-26.82-.52-.27,0-.5.24-.5.5-.05,3.43-.1,6.86-.15,10.29,0,.64.99.64,1,0h0Z"/>
      </g>
      <g>
        <path class="cls-1" d="M178.12,156.12c-.27-1.77-.54-3.54-.81-5.32,1.43.05,3.64.13,6.36.24,4.95.21,6.26.31,8.49.28,1.71-.02,4.28-.12,7.46-.52.29,1.84.57,3.69.86,5.53"/>
        <path class="cls-4" d="M178.6,155.99c-.27-1.77-.54-3.54-.81-5.32l-.48.63c3.35.11,6.69.25,10.04.4,2.07.09,4.14.16,6.22.09s4.04-.24,6.05-.49l-.48-.37c.29,1.84.57,3.69.86,5.53.1.63,1.06.36.96-.27-.29-1.84-.57-3.69-.86-5.53-.03-.19-.28-.39-.48-.37-2.91.36-5.84.56-8.77.52-2.68-.03-5.35-.21-8.02-.32-1.84-.08-3.68-.14-5.52-.21-.36-.01-.53.33-.48.63.27,1.77.54,3.54.81,5.32.1.63,1.06.36.96-.27h0Z"/>
      </g>
    </g>
    <g>
      <path class="cls-4" d="M.96,153.74c9.36.47,18.74.5,28.1.05,8.93-.43,17.79-1.35,26.75-1.05,4.7.16,9.39.53,14.09.78,5.16.27,10.32.23,15.48.37,11.53.3,23.04,1.14,34.56,1.72,11.15.56,22.32.82,33.48,1.15,13.28.4,26.57.71,39.85.92,19,.3,38,.42,57.01.41,2.86,0,5.72,0,8.58-.02,1.29,0,1.29-2,0-2-19.87.06-39.75-.02-59.62-.3-13.93-.19-27.85-.49-41.78-.89-9.71-.28-19.43-.57-29.14-.91-11.44-.4-22.87-1.26-34.3-1.77-10.44-.47-20.87-.48-31.31-1.12-4.93-.3-9.86-.51-14.8-.4-4.21.09-8.41.44-12.61.73-9.62.67-19.27.85-28.9.55-1.82-.06-3.63-.13-5.45-.22-1.29-.06-1.28,1.94,0,2h0Z"/>
      <path class="cls-4" d="M250.96,164.89c4.03-.96,6.57-4.52,10.07-6.47.54-.3.68-1.14.2-1.57-1.33-1.2-2.68-2.38-3.99-3.6-1.2-1.12-2.29-2.36-3.37-3.59-.85-.97-2.26.45-1.41,1.41,1.08,1.24,2.17,2.47,3.37,3.59,1.31,1.22,2.66,2.4,3.99,3.6l.2-1.57c-3.3,1.84-5.8,5.36-9.59,6.27-1.25.3-.72,2.23.53,1.93h0Z"/>
    </g>
    <path class="cls-2" d="M29.29,1.89c1.23,9.05,3.12,18.01,5.74,26.76,3.08,10.3,7.14,20.32,12.17,29.83,2.64,4.99,5.57,9.77,8.74,14.43,4.78,7.04,9.96,13.84,15.6,20.21s12.08,12.11,18.55,17.76,12.53,11.06,18.94,16.41c5.58,4.66,11.95,8.37,18.62,11.25,8.29,3.59,16.96,6.3,25.73,8.42s17.91,3.72,26.97,4.94c6.07.82,12.17,1.5,18.28,1.98.69.05,1.38.11,2.08.16,1.93.14,1.92-2.86,0-3-4.82-.35-9.63-.82-14.43-1.38-8.42-1-16.82-2.31-25.12-4.03-9.05-1.88-17.93-4.32-26.6-7.53-4.16-1.54-8.24-3.3-12.15-5.42-2.38-1.29-4.69-2.71-6.92-4.24-.91-.63-1.81-1.27-2.69-1.94-.08-.06-.15-.12-.23-.18-.27-.2.31.25-.03-.02-5.24-4.18-10.2-8.72-15.26-13.12-6.33-5.51-12.85-10.9-18.72-16.91-6.31-6.46-11.99-13.51-17.23-20.86-2.63-3.69-5.19-7.44-7.52-11.33-5.59-9.3-10.16-19.21-13.71-29.46-3.09-8.95-5.41-18.16-7-27.49-.34-2.01-.64-4.02-.92-6.03-.11-.8-1.14-1.24-1.85-1.05-.87.24-1.16,1.04-1.05,1.85h0Z"/>
    <g>
      <path class="cls-2" d="M44.31,53.16c-1.51,1.22-2.98,2.48-4.41,3.78-.69.64-1.38,1.28-2.05,1.94-.29.29-.59.58-.9.85-.09.08-.19.16-.28.24-.06.05-.18.13-.05.04-.21.15-.42.29-.65.41-.68.39-.97,1.38-.54,2.05s1.32.95,2.05.54c1.68-.96,2.99-2.54,4.41-3.84s2.98-2.64,4.52-3.89c.61-.49.55-1.61,0-2.12-.65-.6-1.47-.53-2.12,0h0Z"/>
      <path class="cls-2" d="M50.63,66.04c-4.24,4.61-8.84,8.87-13.73,12.79-1.32,1.05.44,3.36,1.82,2.36.15-.11.29-.21.44-.32.65-.48.98-1.3.54-2.05-.38-.64-1.4-1.02-2.05-.54-.15.11-.29.21-.44.32l1.82,2.36c4.89-3.92,9.49-8.18,13.73-12.79.55-.6.59-1.53,0-2.12-.56-.56-1.57-.6-2.12,0h0Z"/>
      <path class="cls-2" d="M56.61,76.51c-2.9,2.48-5.8,4.95-8.71,7.41s-6.05,4.97-8.87,7.67c-1.39,1.33-2.69,2.74-3.93,4.21-.52.62-.61,1.51,0,2.12.54.54,1.6.62,2.12,0,2.2-2.61,4.64-4.94,7.23-7.15,3.18-2.72,6.38-5.41,9.57-8.12,1.57-1.34,3.14-2.67,4.71-4.02.62-.53.54-1.58,0-2.12-.61-.61-1.5-.53-2.12,0h0Z"/>
      <path class="cls-2" d="M37.56,110.57c3.36-3.69,7.09-7.02,10.89-10.24s7.97-6.67,11.96-10c2.28-1.9,4.56-3.81,6.84-5.71.62-.52.54-1.58,0-2.12-.62-.62-1.5-.52-2.12,0-4.06,3.38-8.11,6.77-12.17,10.15s-7.83,6.46-11.58,9.88c-2.07,1.89-4.07,3.85-5.95,5.92-.55.6-.59,1.53,0,2.12.55.55,1.57.6,2.12,0h0Z"/>
      <path class="cls-2" d="M39.26,121.63c1.32-2.14,3.1-3.93,4.96-5.6,2.08-1.87,4.24-3.65,6.36-5.46,4.5-3.84,8.99-7.67,13.49-11.51,2.57-2.19,5.13-4.38,7.7-6.56.62-.53.54-1.58,0-2.12-.61-.61-1.5-.53-2.12,0-4.56,3.89-9.12,7.78-13.68,11.67s-8.98,7.56-13.38,11.43c-2.23,1.97-4.35,4.09-5.92,6.64-1.01,1.65,1.58,3.16,2.59,1.51h0Z"/>
      <path class="cls-2" d="M39.04,136.5c4.46-5.08,9.54-9.56,14.54-14.11,5.29-4.82,10.59-9.64,15.88-14.46,3.02-2.75,6.03-5.49,9.05-8.24.6-.55.55-1.57,0-2.12-.6-.6-1.52-.55-2.12,0-5.29,4.82-10.59,9.64-15.88,14.46s-10.43,9.41-15.57,14.2c-2.79,2.6-5.51,5.28-8.02,8.15-.53.61-.6,1.52,0,2.12.54.54,1.58.61,2.12,0h0Z"/>
      <path class="cls-2" d="M39.79,147.54c1.92-2.94,5-4.94,7.86-6.85,3.42-2.29,6.79-4.65,10.08-7.11,6.56-4.91,12.86-10.15,19.05-15.51,3.46-3,6.89-6.04,10.32-9.08.61-.54.55-1.57,0-2.12-.6-.6-1.51-.54-2.12,0-6.12,5.42-12.24,10.84-18.54,16.05s-12.86,10.21-19.68,14.77c-3.52,2.35-7.19,4.74-9.56,8.35-.44.68-.14,1.66.54,2.05.73.43,1.61.14,2.05-.54h0Z"/>
      <path class="cls-2" d="M66.32,149.84c1.28-2.34,3.31-4.13,5.37-5.75,2.29-1.8,4.68-3.48,6.98-5.27,4.84-3.74,9.53-7.68,14.05-11.81,2.53-2.32,5.01-4.7,7.43-7.14,1.36-1.37-.76-3.5-2.12-2.12-4.32,4.36-8.82,8.52-13.5,12.49-2.37,2.01-4.78,3.98-7.24,5.89s-4.84,3.61-7.22,5.45-4.84,4-6.35,6.75c-.93,1.69,1.66,3.21,2.59,1.51h0Z"/>
      <path class="cls-2" d="M90.53,153.02c6.33-6.01,12.86-11.81,19.57-17.4,1.9-1.59,3.82-3.15,5.76-4.7.63-.51.53-1.59,0-2.12-.62-.62-1.49-.51-2.12,0-6.83,5.48-13.49,11.18-19.95,17.09-1.81,1.65-3.6,3.32-5.38,5.01-1.4,1.33.72,3.45,2.12,2.12h0Z"/>
      <path class="cls-2" d="M107.24,153.89c4.78-6.46,10.52-12.25,16.89-17.15.64-.49.98-1.29.54-2.05-.37-.63-1.41-1.04-2.05-.54-6.8,5.24-12.85,11.33-17.96,18.23-.48.65-.11,1.67.54,2.05.76.45,1.57.11,2.05-.54h0Z"/>
      <path class="cls-2" d="M124.83,153.7c1.39-2.21,2.98-4.28,4.79-6.17.9-.94,1.85-1.84,2.84-2.69.44-.38.9-.75,1.36-1.11.26-.2.52-.39.78-.58.13-.09.26-.19.39-.28l.16-.11c.36-.2.18-.23-.51-.07l-.66-.39.05.06-.23-1.82-.03.07c-.35.73-.2,1.62.54,2.05.66.38,1.7.19,2.05-.54l.03-.07c.32-.67.21-1.26-.23-1.82-.71-.89-1.9-.5-2.67.03-.66.46-1.3.95-1.94,1.45-1.2.94-2.35,1.96-3.43,3.04-2.23,2.23-4.2,4.73-5.87,7.4-1.03,1.64,1.57,3.15,2.59,1.51h0Z"/>
      <path class="cls-2" d="M135.87,155.92c3.61-3.56,7.64-6.63,11.97-9.27,1.65-1,.14-3.6-1.51-2.59-4.54,2.76-8.79,6.01-12.58,9.74-1.38,1.36.74,3.48,2.12,2.12h0Z"/>
      <path class="cls-2" d="M149.58,155.63c1.21-1.24,2.47-2.43,3.78-3.57.66-.57,1.32-1.13,2-1.67.18-.14.35-.28.53-.42.08-.06.16-.12.24-.19.2-.15-.15.11.05-.04.38-.29.76-.58,1.15-.86.63-.46,1.01-1.32.54-2.05-.4-.62-1.38-1.04-2.05-.54-2.97,2.19-5.78,4.58-8.36,7.22-.55.56-.6,1.57,0,2.12s1.54.6,2.12,0h0Z"/>
      <path class="cls-2" d="M159.65,153l-.61.43,1.82,2.36c.75-.8,1.51-1.6,2.26-2.4.37-.39.73-.78,1.1-1.17s.72-.82,1.12-1.19l-.3.23s.07-.05.11-.07l-.36.15.06-.02-.4.05h.07c-.13-.02-.27-.04-.4-.06h.05c-.12-.04-.24-.09-.36-.14l.04.02-.3-.23.03.03-.23-.3.02.04-.15-.36v.04c0-.27,0-.53,0-.8v.03c.12-.22.25-.44.38-.66l-.02.03.66-.39-.04.02c-.37.13-.69.34-.9.69-.19.32-.27.8-.15,1.16.24.73,1.05,1.33,1.85,1.05.51-.18.98-.53,1.12-1.09.1-.43.06-.89-.17-1.27-.48-.78-1.55-1.04-2.34-.56-.37.23-.65.56-.94.87-.27.28-.53.57-.8.85-1.04,1.11-2.08,2.22-3.12,3.32-.51.55-.58,1.37-.12,1.97.42.55,1.32.82,1.94.39l.61-.43c.33-.23.58-.5.69-.9.1-.36.05-.84-.15-1.16-.41-.64-1.37-1.02-2.05-.54h0Z"/>
      <path class="cls-2" d="M170.95,156.29l2.17-2.15,1.05-1.04c.18-.18.35-.36.54-.53.27-.25-.24.13-.02.02.09-.05.17-.1.26-.13l-.36.15c.09-.03.17-.06.26-.07l-.4.05c.06,0,.12,0,.18,0l-.4-.05s.08.02.11.04l-.36-.15c.13.07.07.03-.16-.12.55.56,1.57.6,2.12,0s.59-1.53,0-2.12c-.74-.75-1.85-.72-2.71-.22-.6.35-1.08.92-1.57,1.41l-2.83,2.81c-.56.55-.6,1.57,0,2.12s1.53.59,2.12,0h0Z"/>
      <path class="cls-2" d="M184.37,156.37c.14-.22.3-.43.45-.63l-.23.3c.54-.69,1.15-1.31,1.84-1.85.15-.14.25-.3.31-.48.09-.18.14-.37.13-.58,0-.37-.16-.81-.44-1.06s-.66-.46-1.06-.44l-.4.05c-.25.07-.47.2-.66.39-.99.78-1.83,1.74-2.53,2.78-.21.31-.25.8-.15,1.16s.36.73.69.9c.35.18.77.28,1.16.15s.67-.35.9-.69h0Z"/>
      <path class="cls-2" d="M48.94,150.87c11.57-9.62,23.14-19.24,34.71-28.86,3.26-2.71,6.52-5.42,9.78-8.13.62-.52.54-1.59,0-2.12-.62-.62-1.5-.52-2.12,0-11.57,9.62-23.14,19.24-34.71,28.86-3.26,2.71-6.52,5.42-9.78,8.13-.62.52-.54,1.59,0,2.12.62.62,1.5.52,2.12,0h0Z"/>
      <path class="cls-2" d="M73.88,153.48c9.11-7.19,18.25-14.39,26.55-22.52,2.27-2.22,4.46-4.51,6.57-6.88.54-.61.6-1.52,0-2.12-.55-.55-1.58-.61-2.12,0-7.65,8.61-16.47,16.08-25.43,23.28-2.55,2.05-5.13,4.08-7.7,6.11-.64.5-.53,1.6,0,2.12.63.63,1.48.5,2.12,0h0Z"/>
    </g>
    <g>
      <g>
        <path class="cls-2" d="M80.48,86.94c.36,3.67,1.33,7.2,2.9,10.53.26.55,1.18.68,1.57.2,2.06-2.55,4.12-5.1,6.19-7.65.34-.42.41-1,0-1.41-.35-.35-1.07-.42-1.41,0-2.06,2.55-4.12,5.1-6.19,7.65l1.57.2c-1.41-2.99-2.31-6.23-2.63-9.52-.05-.54-.42-1-1-1-.5,0-1.05.46-1,1h0Z"/>
        <path class="cls-2" d="M85.26,95.28c1.67-8.29,6.51-15.53,12.48-21.37,6.66-6.51,14.67-11.37,22.57-16.18,4.59-2.8,9.21-5.49,14.49-6.74,1.25-.3.72-2.22-.53-1.93-4.83,1.14-9.18,3.45-13.4,5.99s-8.15,4.93-12.1,7.58c-7.6,5.1-14.79,11.05-19.84,18.79-2.65,4.06-4.65,8.57-5.61,13.34-.25,1.26,1.67,1.79,1.93.53h0Z"/>
      </g>
      <g>
        <path class="cls-2" d="M143.22,38.37c.56-1.06,1.19-2.08,1.88-3.05.19-.26.38-.52.57-.77.08-.1.16-.2.24-.31.04-.05.08-.1.13-.15-.09-.09-.11-.1-.06-.05.14.16.15.43.19.62.06.33.11.66.15,1,.12,1.25.08,2.52.06,3.77-.01,1.04-.11,2.2.63,3.04.43.48,1.13-.23.71-.71s-.34-1.19-.34-1.75c0-.74.02-1.48.02-2.22s-.01-1.42-.08-2.13c-.06-.62-.11-1.32-.36-1.9-.19-.44-.6-.81-1.11-.69-.55.13-.93.83-1.24,1.25-.84,1.12-1.59,2.31-2.25,3.55-.3.57.56,1.07.86.5h0Z"/>
        <path class="cls-2" d="M143.28,43.77l7.62-1.17c.27-.04.41-.38.35-.62-.08-.29-.35-.39-.62-.35l-7.62,1.17c-.27.04-.41.38-.35.62.08.29.35.39.62.35h0Z"/>
        <path class="cls-2" d="M139.94,48.31c5.47-1.27,10.98-2.53,16.63-2.46.64,0,.64-.99,0-1-5.73-.06-11.34,1.21-16.89,2.5-.63.15-.36,1.11.27.96h0Z"/>
        <path class="cls-2" d="M145.9,48.98c-.2,2.98-.05,5.96.44,8.9.1.6.93.39.98-.13.14-1.49-.13-2.97-.06-4.46.03-.63.12-1.26.35-1.85.2-.51.6-1.29,1.2-1.41s.77.82.89,1.23c.2.7.35,1.42.45,2.14.21,1.49.21,3.02,0,4.52-.09.63.88.9.96.27.19-1.41.24-2.83.09-4.25-.14-1.3-.33-2.74-.9-3.93s-1.79-1.23-2.69-.41-1.23,2.1-1.34,3.26c-.16,1.63.19,3.26.03,4.89l.98-.13c-.47-2.85-.6-5.75-.4-8.63.04-.64-.96-.64-1,0h0Z"/>
        <path class="cls-2" d="M151.47,47.94c.58-.15,3.22-.5,2.68.8-.22.52-.73.8-1.19,1.06-.57.32-1.1.64-1.5,1.17-.29.39.18.8.56.73,1.46-.26,2.93-.4,4.41-.43.64-.01.64-1.01,0-1-1.57.02-3.13.18-4.68.46l.56.73c.41-.56,1.17-.78,1.73-1.17.61-.41,1.13-1.07,1.17-1.83.03-.81-.59-1.39-1.33-1.58-.86-.23-1.83-.14-2.68.08-.62.16-.36,1.13.27.96h0Z"/>
      </g>
    </g>
  </g>
</svg>