<svg xmlns="http://www.w3.org/2000/svg" viewBox="0 0 225.7 141.46">
  <defs>
    <style>
      .cls-1 {
        fill: #808285;
      }

      .cls-2 {
        fill: #231f20;
      }

      .cls-3 {
        fill: #00aeef;
      }

      .cls-4 {
        fill: #ed2024;
        stroke: #231f20;
        stroke-miterlimit: 10;
      }
    </style>
  </defs>
  <title>2d-integral-1</title>
  <g id="Layer_2" data-name="Layer 2">
    <g id="Layer_1-2" data-name="Layer 1">
      <g>
        <path class="cls-1" d="M12,16.74A47.94,47.94,0,0,1,16.7,8.4,30.35,30.35,0,0,1,22,2.34c1.24-1,2.67-1.72,4.25-1.07a8,8,0,0,1,2.84,2.41Q30.92,5.78,32.67,8c2.41,3,4.73,6,7,9.12.38.52,1.24,0,.87-.5q-3.1-4.27-6.4-8.41-1.89-2.36-3.84-4.64a12.43,12.43,0,0,0-3-2.87,4.56,4.56,0,0,0-4.95.21,23.61,23.61,0,0,0-5.6,5.81,47.16,47.16,0,0,0-5.54,9.55c-.26.59.6,1.1.86.51Z" transform="translate(0 -0.03)"/>
        <path class="cls-1" d="M25.16.75a275.09,275.09,0,0,0,1.53,29c.92,9.7,2,19.38,2.62,29.1.3,4.84.47,9.69.44,14.54s-.24,9.85-.44,14.77c-.39,9.59-.54,19.15,0,28.74.41,7.33,1.15,14.64,2.06,21.93.08.68.17,1.35.25,2s1.09.64,1,0C31.74,134,31,127.06,30.5,120.13a265.65,265.65,0,0,1-.33-28.36c.37-9.8.81-19.58.34-29.39s-1.51-19.32-2.46-29S26.24,14,26.15,4.31c0-1.19,0-2.37,0-3.56a.5.5,0,0,0-1,0Z" transform="translate(0 -0.03)"/>
      </g>
      <g>
        <path class="cls-1" d="M.48,107.93c9.77.56,19.56.93,29.35.9,7.52,0,15-.32,22.55-.51,7.33-.18,14.66-.46,22-.46,7.9,0,15.79.21,23.69.45,12.62.39,25.23,1,37.85,1.53,9.83.45,19.69,1.07,29.54,1.13,17,.1,34-.7,50.88-2q3.6-.27,7.2-.59c.63,0,.64-1,0-1C205,109,186.27,109.93,167.61,110c-8.6,0-17.21-.47-25.81-.86-12.79-.59-25.59-1.19-38.39-1.63-7.87-.26-15.73-.48-23.6-.58-7-.08-13.89.12-20.84.27-8.13.19-16.25.46-24.37.61-8.46.16-16.92,0-25.37-.41-2.92-.12-5.83-.27-8.75-.44-.64,0-.64,1,0,1Z" transform="translate(0 -0.03)"/>
        <path class="cls-1" d="M207.56,96.7a40.91,40.91,0,0,1,12.35,7.14c.9.75,1.76,1.54,2.59,2.36.35.36,1.09.9,1.22,1.4s-.66,1.23-1,1.63c-1.69,2.09-3.42,4.13-5.19,6.14q-3,3.38-6.09,6.59c-.45.47.26,1.17.71.71q6.08-6.28,11.58-13.1c.68-.84,1.45-1.7.68-2.77a17.48,17.48,0,0,0-2.68-2.69,43,43,0,0,0-6.08-4.58,41.37,41.37,0,0,0-7.84-3.79c-.6-.22-.86.74-.26,1Z" transform="translate(0 -0.03)"/>
      </g>
      <path class="cls-2" d="M103.26,106q-.3-13-.51-26.06t-.37-26.06c-.06-4.9-.1-9.81-.15-14.71a.5.5,0,0,0-1,0q.12,13,.29,26.06T102,91.29q.15,7.36.31,14.71a.5.5,0,0,0,1,0Z" transform="translate(0 -0.03)"/>
      <path class="cls-2" d="M119.58,29.42q.26,15.09.61,30.18T121,89.79q.27,8.47.57,16.95a.5.5,0,0,0,1,0q-.54-15.08-1-30.17t-.73-30.19q-.17-8.48-.31-17a.5.5,0,0,0-1,0Z" transform="translate(0 -0.03)"/>
      <path class="cls-2" d="M102.43,110.33a10.91,10.91,0,0,0-.05,3.65,6.91,6.91,0,0,0,1.21,3.23c.75.94,1.85.93,3,1,1.44,0,2.88-.06,4.31-.19l-.48-.37a24.65,24.65,0,0,0,2.94,5.47.5.5,0,0,0,.91-.12c.41-1.84.71-3.75,1.23-5.56.16-.57.71-.25,1.1-.12a8.68,8.68,0,0,0,1.21.33,8.16,8.16,0,0,0,2.51.17,2.35,2.35,0,0,0,2.1-2.45c.08-1.23-.38-2.69.24-3.83.31-.57-.55-1.07-.86-.51-.62,1.15-.4,2.46-.37,3.71a2.49,2.49,0,0,1-.37,1.71c-.59.67-2,.41-2.76.28-1.21-.21-3.18-1.45-3.74.35-.27.88-.41,1.83-.61,2.73l-.64,2.93.91-.12a23.68,23.68,0,0,1-2.83-5.24.52.52,0,0,0-.49-.36c-1.11.1-2.23.17-3.35.18-.93,0-2.39.26-3.08-.5a5.72,5.72,0,0,1-1.06-2.83,9.17,9.17,0,0,1,0-3.22c.11-.63-.85-.9-1-.27Z" transform="translate(0 -0.03)"/>
      <path class="cls-2" d="M100,42.77a6.3,6.3,0,0,0-4.48,2.93,13.54,13.54,0,0,0-1.31,5.09,137.63,137.63,0,0,0-1.07,14.63c-.06,3.12,0,6.24.06,9.36l.37-.49a17.11,17.11,0,0,0-8.49,5.8.51.51,0,0,0,.23.84l4.46,1c.63.15,1.29.25,1.91.46a1.41,1.41,0,0,1,1,1.41,10.16,10.16,0,0,1-.08,1.23c-.07.8-.1,1.6-.11,2.41,0,1.45,0,2.9.11,4.36s.14,2.9.16,4.36-.06,2.72,0,4.07-.06,2.86.67,4c1.13,1.76,3.47,2,5.36,1.73.63-.07.64-1.08,0-1-1.55.2-3.77.18-4.61-1.42a4.3,4.3,0,0,1-.37-1.58,29.43,29.43,0,0,1,0-3c.06-2.89-.08-5.75-.19-8.64,0-1.45-.08-2.9,0-4.35a9,9,0,0,0,0-3c-.41-1.36-1.7-1.59-2.91-1.87L85.54,80l.22.84a16.18,16.18,0,0,1,8-5.54.5.5,0,0,0,.36-.48C94,70,94,65.14,94.31,60.34c.16-2.46.39-4.92.63-7.38a23.14,23.14,0,0,1,1-6,5.3,5.3,0,0,1,4.26-3.27c.63-.11.36-1.07-.27-1Z" transform="translate(0 -0.03)"/>
      <g>
        <path class="cls-2" d="M108.43,124.2l.26,14.06,1-.14a8,8,0,0,0-3.48-4.46c-1.66-.87-3.49-.41-3.92,1.56a9,9,0,0,0,0,3.23,3.23,3.23,0,0,0,1.11,2.4,4.07,4.07,0,0,0,2.69.33,9.38,9.38,0,0,0,3.14-1c.58-.29.07-1.16-.5-.87a8.1,8.1,0,0,1-2.33.78,4.47,4.47,0,0,1-2.24,0c-.69-.27-.79-1.17-.89-1.81a8.29,8.29,0,0,1,0-2.63c.11-.67.39-1.37,1.14-1.47a2.67,2.67,0,0,1,1.82.6,7.46,7.46,0,0,1,2.54,3.58.5.5,0,0,0,1-.13l-.26-14.06a.5.5,0,0,0-1,0Z" transform="translate(0 -0.03)"/>
        <path class="cls-2" d="M112.12,130.62c2.5,3.54,6.14,6.41,7.77,10.53.23.59,1.2.33,1-.27-1.68-4.23-5.3-7.13-7.87-10.77-.37-.52-1.24,0-.86.51Z" transform="translate(0 -0.03)"/>
        <path class="cls-2" d="M120.14,130.05q-2.06,2.72-4,5.52c-.63.91-1.24,1.82-1.85,2.74l-.93,1.43c-.26.4-.59.75-.52,1.25a.5.5,0,0,0,.49.37.64.64,0,0,0,.35-.12c.52-.37,0-1.24-.5-.86l.15,0,.48.37,0-.1,0,.39a21.26,21.26,0,0,1,1.69-2.62c.59-.89,1.19-1.78,1.8-2.66q1.84-2.62,3.79-5.18c.39-.52-.48-1-.87-.51Z" transform="translate(0 -0.03)"/>
      </g>
      <g>
        <path class="cls-2" d="M59.23,87.32a41.62,41.62,0,0,1-1-10.49c.06-1.4.38-3.53,1.92-4.11s2.48,1.09,3,2.17c.27.58,1.14.07.86-.51-.64-1.34-1.8-2.86-3.47-2.76S57.77,73.45,57.43,75a20.78,20.78,0,0,0-.12,6.1,47.81,47.81,0,0,0,1,6.53c.13.63,1.1.36,1-.26Z" transform="translate(0 -0.03)"/>
        <path class="cls-2" d="M56.17,81.86a12.19,12.19,0,0,1,5.24-.16.5.5,0,0,0,.61-.35.5.5,0,0,0-.35-.61,13.37,13.37,0,0,0-5.77.15.5.5,0,0,0,.27,1Z" transform="translate(0 -0.03)"/>
        <path class="cls-2" d="M67.81,73.1a16.18,16.18,0,0,0-2,9c.19,2.41,1.1,5.12,3.45,6.21.58.27,1.08-.59.5-.86-2.17-1-2.87-3.58-3-5.78a15.29,15.29,0,0,1,1.86-8.11c.3-.56-.56-1.07-.87-.5Z" transform="translate(0 -0.03)"/>
        <path class="cls-2" d="M69.88,76.69,75,85.21c.33.55,1.2.05.87-.5l-5.09-8.52c-.33-.55-1.2,0-.87.5Z" transform="translate(0 -0.03)"/>
        <path class="cls-2" d="M74.15,76.34c-.85,1.28-1.68,2.58-2.46,3.9-.39.65-.77,1.31-1.14,2a4.58,4.58,0,0,0-.86,2,.5.5,0,0,0,1,0,2.42,2.42,0,0,1,.44-1l.5-.9c.35-.62.71-1.23,1.07-1.84.74-1.23,1.51-2.45,2.32-3.65.35-.54-.51-1-.87-.5Z" transform="translate(0 -0.03)"/>
        <path class="cls-2" d="M77.82,88.09A7.13,7.13,0,0,0,80,83.8a13.45,13.45,0,0,0,0-4.94,16,16,0,0,0-2.35-6c-.36-.53-1.23,0-.86.5a15.39,15.39,0,0,1,2.14,5.2,12.55,12.55,0,0,1,.21,4.53,6.6,6.6,0,0,1-2,4.27c-.5.41.21,1.12.7.71Z" transform="translate(0 -0.03)"/>
      </g>
      <path class="cls-3" d="M4.15,43.79Q14,48.4,24.22,52.07c3.66,1.31,7.33,2.61,11,3.81a59.63,59.63,0,0,0,7.3,2c13.75,2.59,27.31-2.08,39.63-7.75,5-2.28,9.75-5,14.55-7.58q8.11-4.39,16.13-9c7.51-4.27,15-8.58,22.87-12.23a81.3,81.3,0,0,1,21.84-7.09C170,12.37,182.28,15.53,193,21.88c1.85,1.09,3.64,2.27,5.4,3.51,1,.74,2-1,1-1.73-10.3-7.27-22.45-12.2-35.19-12-15.89.29-30.55,8-44.12,15.49C108.44,33.67,96.9,40.45,85,46.53c-11.41,5.83-24,10.64-37,9.95-5.77-.3-11.14-2.11-16.56-4-7.55-2.61-15-5.37-22.34-8.62-1.32-.59-2.64-1.2-4-1.81C4,41.52,3,43.24,4.15,43.79Z" transform="translate(0 -0.03)"/>
      <polygon class="cls-4" points="102.08 39.28 119.81 29.15 122.07 108.41 102.78 107.7 102.08 39.28"/>
      <g>
        <path class="cls-3" d="M204.75,41.88a41.62,41.62,0,0,1-1-10.49c.06-1.4.38-3.53,1.92-4.11s2.48,1.09,3,2.17c.28.58,1.14.07.87-.51-.65-1.34-1.8-2.86-3.47-2.76s-2.73,1.83-3.08,3.33a20.78,20.78,0,0,0-.11,6.1,47.79,47.79,0,0,0,.95,6.53c.14.63,1.1.36,1-.26Z" transform="translate(0 -0.03)"/>
        <path class="cls-3" d="M201.69,36.42a12.15,12.15,0,0,1,5.23-.16.52.52,0,0,0,.62-.35.5.5,0,0,0-.35-.61,13.37,13.37,0,0,0-5.77.15.5.5,0,0,0,.27,1Z" transform="translate(0 -0.03)"/>
        <path class="cls-3" d="M213.33,27.66a16.27,16.27,0,0,0-2,9c.2,2.41,1.1,5.12,3.45,6.21.58.27,1.09-.59.51-.86-2.17-1-2.87-3.58-3-5.78a15.28,15.28,0,0,1,1.85-8.11c.31-.56-.55-1.07-.86-.5Z" transform="translate(0 -0.03)"/>
        <path class="cls-3" d="M215.4,31.25l5.09,8.52c.33.55,1.2,0,.87-.5l-5.09-8.52c-.33-.55-1.2-.05-.87.5Z" transform="translate(0 -0.03)"/>
        <path class="cls-3" d="M219.67,30.9q-1.29,1.92-2.46,3.9c-.39.65-.77,1.31-1.14,2a4.58,4.58,0,0,0-.86,2,.5.5,0,0,0,1,0,2.42,2.42,0,0,1,.44-1l.5-.9c.35-.62.71-1.23,1.07-1.84.74-1.23,1.51-2.45,2.31-3.65.36-.54-.5-1-.86-.5Z" transform="translate(0 -0.03)"/>
        <path class="cls-3" d="M223.34,42.65a7.13,7.13,0,0,0,2.15-4.29,13.45,13.45,0,0,0,0-4.94,16,16,0,0,0-2.35-6c-.36-.53-1.23,0-.87.5a15.21,15.21,0,0,1,2.15,5.2,12.78,12.78,0,0,1,.21,4.53,6.66,6.66,0,0,1-2,4.27c-.49.41.22,1.12.71.71Z" transform="translate(0 -0.03)"/>
      </g>
    </g>
  </g>
</svg>
