<svg xmlns="http://www.w3.org/2000/svg" viewBox="0 0 174.33 134.44">
  <defs>
    <style>
      .cls-1 {
        fill: #a7a9ac;
      }

      .cls-2 {
        fill: #00aeef;
      }

      .cls-3 {
        fill: #808285;
      }

      .cls-4 {
        fill: #fff;
      }

      .cls-5 {
        fill: #009444;
      }

      .cls-6 {
        fill: #231f20;
      }

      .cls-7 {
        fill: #006838;
      }

      .cls-8 {
        opacity: 0.82;
      }

      .cls-9 {
        fill: #39b54a;
      }
    </style>
  </defs>
  <title>3d-integral-1-2</title>
  <g id="Layer_2" data-name="Layer 2">
    <g id="Layer_1-2" data-name="Layer 1">
      <g>
        <g>
          <path class="cls-1" d="M.94,19.07c1.48-2.35,3-4.69,4.56-7A33.81,33.81,0,0,1,8.37,8.34a3.53,3.53,0,0,1,1.25-1c.77-.26,1.33.34,1.77.88a13.08,13.08,0,0,1,1.89,3.36c1,2.61,1.57,5.38,2.78,7.93.28.58,1.14.07.87-.51-1.18-2.46-1.69-5.16-2.69-7.68A14.4,14.4,0,0,0,12.3,7.81c-.74-1-1.74-1.83-3-1.36C7.7,7,6.54,9,5.6,10.24c-1.17,1.61-2.28,3.27-3.36,4.94Q1.15,16.86.08,18.57c-.34.54.52,1,.86.5Z"/>
          <path class="cls-1" d="M9,7.22A206.78,206.78,0,0,0,6.08,43.48c0,6.23.29,12.46.47,18.68L7.1,80.6l.62,20.94c0,.64,1,.64,1,0l-1.1-37c-.36-12.21-.91-24.43-.07-36.64A202.89,202.89,0,0,1,10,7.48c.1-.63-.86-.9-1-.26Z"/>
        </g>
        <path class="cls-1" d="M8,102.34,47.71,111c13.09,2.85,26.18,5.71,39.33,8.32,7.35,1.46,14.72,2.84,22.12,4.08a.5.5,0,0,0,.56-.73,41.14,41.14,0,0,0-11.47-12.11l-.51.86a36.06,36.06,0,0,1,9.05,8.19q1,1.22,1.8,2.52a1.8,1.8,0,0,1,.43,1.46,4,4,0,0,1-1,1.34,49,49,0,0,1-10.81,8.6.5.5,0,0,0,.51.86,50.83,50.83,0,0,0,11.09-8.83,3.27,3.27,0,0,0,1.29-2.56,6.9,6.9,0,0,0-1.54-2.75,36.94,36.94,0,0,0-10.26-9.69c-.55-.35-1,.5-.51.86a40.19,40.19,0,0,1,11.12,11.75l.56-.73c-13.2-2.23-26.33-4.87-39.43-7.65s-26.32-5.69-39.48-8.56L8.29,101.37c-.63-.13-.9.83-.27,1Z"/>
        <g>
          <path class="cls-1" d="M8.79,102.29Q30.42,95.56,51.92,88.4q21.35-7.09,42.53-14.61A229.23,229.23,0,0,1,118,66.4c.63-.15.36-1.11-.27-1a206.3,206.3,0,0,0-20.88,6.44c-7,2.48-14,5-21.06,7.38Q54.45,86.63,33,93.57q-12.19,3.95-24.44,7.76c-.61.19-.35,1.16.26,1Z"/>
          <path class="cls-1" d="M117.24,66a49.83,49.83,0,0,0-7.12,9.53.5.5,0,0,0,.86.5,49.2,49.2,0,0,1,7-9.32c.45-.47-.26-1.18-.7-.71Z"/>
          <path class="cls-1" d="M118.05,65.25q-6.17.41-12.34.52a.5.5,0,0,0,0,1q6.18-.12,12.34-.52c.64,0,.65-1,0-1Z"/>
        </g>
      </g>
      <g>
        <path class="cls-2" d="M156.2,7.26a14.16,14.16,0,0,1-.54-2.57,7.71,7.71,0,0,1,0-2.49A1.64,1.64,0,0,1,157.08.84,1.4,1.4,0,0,1,158.54,2c.06.32.54.18.49-.13A1.92,1.92,0,0,0,157.48.36a2.07,2.07,0,0,0-2,1,4.62,4.62,0,0,0-.34,2.87,15.36,15.36,0,0,0,.6,3.22c.1.3.58.17.49-.14Z"/>
        <path class="cls-2" d="M154.52,4.61a7.66,7.66,0,0,0,1.9-.23,6.11,6.11,0,0,1,1-.09,1.24,1.24,0,0,0,.81-.09c.26-.19,0-.62-.26-.43a.47.47,0,0,1-.31,0l-.43,0a6.76,6.76,0,0,0-.89.11,7.08,7.08,0,0,1-1.77.21c-.32,0-.32.48,0,.5Z"/>
        <path class="cls-2" d="M159.93.17a11.63,11.63,0,0,0-.73,4.55c.1,1.15.49,2.55,1.65,3.05.29.12.55-.31.25-.43-1.12-.48-1.39-1.93-1.42-3a12,12,0,0,1,.73-4c.1-.31-.38-.44-.48-.14Z"/>
        <path class="cls-2" d="M161.48,2c.3.74.63,1.46,1,2.18.17.34.35.69.54,1a4.19,4.19,0,0,0,.61,1c.23.23.58-.13.35-.36a2,2,0,0,1-.29-.45c-.09-.17-.19-.33-.28-.51s-.34-.63-.5-1c-.33-.67-.65-1.35-.94-2a.26.26,0,0,0-.31-.17.23.23,0,0,0-.17.3Z"/>
        <path class="cls-2" d="M163.87,2a16.27,16.27,0,0,0-1.29,1.9L161.28,6c-.17.28.27.53.44.26l1.25-2a16.91,16.91,0,0,1,1.25-1.87c.21-.25-.14-.6-.35-.35Z"/>
        <path class="cls-2" d="M165,5.54a4,4,0,0,1-.36,1.06,2,2,0,0,1-.14.25l-.06.11,0,0s0,0,0,0a.27.27,0,0,1-.07.08s0,0,0,0l0,0a.22.22,0,0,1-.16,0,.25.25,0,0,0-.25.25.26.26,0,0,0,.25.25.91.91,0,0,0,.57-.23,1.76,1.76,0,0,0,.33-.49,4.5,4.5,0,0,0,.46-1.27.26.26,0,0,0-.17-.31.25.25,0,0,0-.31.18Z"/>
        <path class="cls-2" d="M169.53.48a7.91,7.91,0,0,1,1.34,3.81c.08,1.23,0,3.09-1.41,3.56-.3.09-.17.58.13.48,1.52-.5,1.83-2.24,1.79-3.64A8.3,8.3,0,0,0,170,.22c-.17-.26-.61,0-.43.26Z"/>
        <path class="cls-2" d="M166.22,2.83a3.22,3.22,0,0,0,.09,2.1,1.62,1.62,0,0,0,1.21,1.16c.62.07,1-.44,1-1a16.2,16.2,0,0,0,.1-2.41l-.49.06a8.39,8.39,0,0,1,.06,3.89c-.25,1.08-.87,2.72-2.27,2.52-.32-.05-.45.43-.14.48,1.5.22,2.4-1.12,2.77-2.39a9,9,0,0,0,.07-4.63.26.26,0,0,0-.5.07c0,.56,0,1.12,0,1.69,0,.36,0,1.22-.51,1.23s-.8-.67-.91-1.07a2.71,2.71,0,0,1,0-1.57.25.25,0,0,0-.48-.13Z"/>
      </g>
      <g>
        <g>
          <path class="cls-3" d="M101.26,45.57a7.59,7.59,0,0,0-.1-2.18.26.26,0,0,0-.31-.18.25.25,0,0,0-.17.31,7,7,0,0,1,.08,2c0,.13.12.25.25.25a.27.27,0,0,0,.25-.25Z"/>
          <path class="cls-3" d="M101.12,41.56l-.27-1.67a.25.25,0,1,0-.48.13l.27,1.68a.25.25,0,0,0,.3.17.26.26,0,0,0,.18-.31Z"/>
          <path class="cls-3" d="M100.78,35.69a3.88,3.88,0,0,1,.08-1.48.25.25,0,0,0-.48-.14,4.5,4.5,0,0,0-.08,1.75.25.25,0,0,0,.31.18.26.26,0,0,0,.17-.31Z"/>
          <path class="cls-3" d="M100.49,33v-2a.25.25,0,0,0-.5,0v2a.25.25,0,0,0,.5,0Z"/>
          <path class="cls-3" d="M100.69,38.51V37.38a.25.25,0,0,0-.25-.25.26.26,0,0,0-.25.25v1.13a.26.26,0,0,0,.25.25.25.25,0,0,0,.25-.25Z"/>
        </g>
        <g>
          <path class="cls-3" d="M82.63,46l-.11-1.4a.25.25,0,0,0-.5,0l.11,1.4a.25.25,0,0,0,.25.25.25.25,0,0,0,.25-.25Z"/>
          <path class="cls-3" d="M82.33,43.69V42.56a.25.25,0,0,0-.25-.25.26.26,0,0,0-.25.25v1.13a.25.25,0,0,0,.5,0Z"/>
        </g>
        <g>
          <path class="cls-3" d="M79.71,43.32V41.91a.25.25,0,0,0-.5,0v1.41a.25.25,0,0,0,.25.25.26.26,0,0,0,.25-.25Z"/>
          <path class="cls-3" d="M79.79,46.12V44.71a.26.26,0,0,0-.25-.25.25.25,0,0,0-.25.25v1.41a.25.25,0,0,0,.25.25.25.25,0,0,0,.25-.25Z"/>
        </g>
        <g>
          <path class="cls-3" d="M59.9,40.54a7.4,7.4,0,0,0-.11-2.1.25.25,0,0,0-.49.13,6.51,6.51,0,0,1,.1,2,.25.25,0,0,0,.25.25.25.25,0,0,0,.25-.25Z"/>
          <path class="cls-3" d="M60.1,37V35.55a.25.25,0,0,0-.5,0V37a.25.25,0,0,0,.25.25A.26.26,0,0,0,60.1,37Z"/>
        </g>
      </g>
      <g>
        <g>
          <path class="cls-4" d="M60.48,20.36a8.56,8.56,0,0,1,5-3,9.58,9.58,0,0,1,3.61.26,19.91,19.91,0,0,1,5.58,1.63,7,7,0,0,0-5.34-.07,16.9,16.9,0,0,0-4.75,2.69c-1.46,1-3.66,2.58-6.49,4.47A10.08,10.08,0,0,1,60.48,20.36Z"/>
          <path d="M60.65,20.54a8.11,8.11,0,0,1,5.31-3,14.09,14.09,0,0,1,3.92.48,17.4,17.4,0,0,1,4.63,1.43l.25-.43c-2.81-1.3-6-.24-8.43,1.32-2.86,1.82-5.57,3.89-8.4,5.78l.38.21a9.94,9.94,0,0,1,2.34-5.8c.21-.24-.14-.6-.35-.35a10.49,10.49,0,0,0-2.49,6.15.25.25,0,0,0,.38.22c2.63-1.76,5.18-3.63,7.81-5.39,2.44-1.64,5.62-3.05,8.51-1.71.29.14.54-.28.25-.43A18.23,18.23,0,0,0,70,17.54a14.54,14.54,0,0,0-4.2-.48,8.63,8.63,0,0,0-5.51,3.13C60.09,20.43,60.44,20.78,60.65,20.54Z"/>
        </g>
        <path d="M85.2,23.22a11.52,11.52,0,0,1,4.65-.69,10.87,10.87,0,0,1,3.8,1.15,21.31,21.31,0,0,0,8.29,2.12c.32,0,.32-.48,0-.5a20.65,20.65,0,0,1-4.81-.78,30.51,30.51,0,0,1-4-1.63,10.85,10.85,0,0,0-8.08-.16c-.31.11-.18.59.13.49Z"/>
        <g>
          <path class="cls-4" d="M149,23.66c.1,0,.21-.1.91-.51a6.11,6.11,0,0,1,.8-.38,6.44,6.44,0,0,1,1.94-.4,10.17,10.17,0,0,1,.16-2.32,9.85,9.85,0,0,1,3.36-5.56,8.13,8.13,0,0,0-4.7,2.17C148.76,19.27,148.54,23.46,149,23.66Z"/>
          <path d="M148.89,23.9c.34.11.85-.39,1.1-.53a6,6,0,0,1,2.62-.75.25.25,0,0,0,.25-.25,9.48,9.48,0,0,1,3.45-7.7.26.26,0,0,0-.18-.43,8.31,8.31,0,0,0-5.47,2.89,9.85,9.85,0,0,0-2.1,5.31c0,.38-.13,1.19.27,1.43a.25.25,0,0,0,.26-.43c.07,0,0,0,0-.11s0-.25,0-.38a7.08,7.08,0,0,1,.1-1.13,9.66,9.66,0,0,1,1.05-3.09,7.77,7.77,0,0,1,5.94-4l-.18-.42a10,10,0,0,0-3.59,8.05l.25-.25a6.82,6.82,0,0,0-2.22.5,6.2,6.2,0,0,0-1,.54,3.28,3.28,0,0,0-.31.2c-.1.06-.12,0,0,.06C148.72,23.32,148.59,23.8,148.89,23.9Z"/>
        </g>
        <g>
          <path class="cls-4" d="M99.87,37.12c.19.27,1-.3,2.88-.18a9.28,9.28,0,0,1,2.88.66c-.35-1.22.67-2.39,1.63-3.23a57,57,0,0,1,8-5.86,11.74,11.74,0,0,0-1.71-.16C105.64,28.24,99.26,36.23,99.87,37.12Z"/>
          <path d="M99.69,37.29c.35.39,1.34,0,1.75-.08a8.8,8.8,0,0,1,4.12.63c.19.08.35-.14.31-.3-.27-1.17.63-2.14,1.42-2.87s1.61-1.38,2.44-2a56.84,56.84,0,0,1,5.61-3.91c.17-.1.17-.42,0-.46a14,14,0,0,0-9.35,2.06,18.33,18.33,0,0,0-5.72,5.19c-.26.4-.87,1.22-.57,1.73a.25.25,0,0,0,.44-.25c-.14-.23.44-1,.59-1.26a15.27,15.27,0,0,1,2-2.31,17.8,17.8,0,0,1,7.17-4.3,12.08,12.08,0,0,1,5.28-.37l-.06-.46a60.28,60.28,0,0,0-6.25,4.42c-1.43,1.15-4,2.79-3.45,5l.31-.31a9.62,9.62,0,0,0-3.51-.69,8.32,8.32,0,0,0-1.41.14c-.11,0-.67.2-.73.13C99.83,36.7,99.48,37.05,99.69,37.29Z"/>
        </g>
      </g>
      <g>
        <g>
          <g>
            <path class="cls-5" d="M59.74,34.68c.36,18.26.06,29.44-.37,36.6a165,165,0,0,0,.16,24.33c.12,1.54.25,2.8.33,3.65q7,1.8,14.82,3.27c2.63.49,5.22.92,7.74,1.29Q81.93,90,81.54,75.93q-.45-16.38-.76-32.54c-.21-.1-.55-.26-1-.43a24.63,24.63,0,0,0-6.54-1.39,36.78,36.78,0,0,1-4.73-1.14A20.6,20.6,0,0,1,59.74,34.68Z"/>
            <path class="cls-6" d="M59.49,34.68c.19,9.48.26,19,0,28.44-.18,6.15-.69,12.28-.73,18.43a166.27,166.27,0,0,0,.86,17.71.27.27,0,0,0,.19.24,221.73,221.73,0,0,0,22.55,4.56c.16,0,.33-.06.32-.24q-.83-23.58-1.36-47.17Q81.16,50,81,43.39a.22.22,0,0,0-.12-.21A17.07,17.07,0,0,0,76,41.69c-1.12-.17-2.24-.27-3.35-.49a23.94,23.94,0,0,1-7.88-2.75,24.18,24.18,0,0,1-4.84-4c-.22-.23-.58.12-.35.35a23.71,23.71,0,0,0,5.73,4.48,23.2,23.2,0,0,0,5.54,2c1.66.4,3.32.6,5,.85a16.37,16.37,0,0,1,3.77,1c.15.05.8.22.91.39s0,.75,0,.94c0,.78,0,1.55,0,2.33q.36,18.28.91,36.55.3,10.23.66,20.45l.32-.24A224.68,224.68,0,0,1,59.93,99l.18.24a167.18,167.18,0,0,1-.55-26.85c.38-6.57.55-13.15.58-19.74,0-6,0-12-.15-18A.25.25,0,0,0,59.49,34.68Z"/>
          </g>
          <g>
            <path class="cls-7" d="M81.27,43.23a16.86,16.86,0,0,0,7.34-3.35c2.58-2.08,3.22-4,6.48-6.9a27.92,27.92,0,0,1,4.65-3.32c.24,4.39.53,10.73.7,18.39s0,6.53.13,12.58c.28,11.62-.35,23.25,0,34.86a1.46,1.46,0,0,1-.08.63,1.37,1.37,0,0,1-.86.58,159.42,159.42,0,0,0-17.06,7.18Q82,88.79,81.66,73.27,81.35,58.06,81.27,43.23Z"/>
            <path class="cls-6" d="M81.33,43.48A17.52,17.52,0,0,0,89,39.88a21.35,21.35,0,0,0,2.82-3,30.1,30.1,0,0,1,3.36-3.6,27.82,27.82,0,0,1,4.69-3.36l-.38-.22c.5,9.1.72,18.2.78,27.31,0,5.79.15,11.57.07,17.36-.08,6.56-.23,13.11-.1,19.67,0,.46,0,.91,0,1.37,0,.76-.37.95-1,1.17-.82.3-1.64.59-2.45.9-1.64.61-3.26,1.24-4.87,1.91q-4.86,2-9.58,4.32l.38.21q-.86-23.72-1.15-47.44-.07-6.6-.11-13.21a.25.25,0,0,0-.5,0q.14,23.78.83,47.53.2,6.57.43,13.12a.26.26,0,0,0,.38.22q4.44-2.19,9-4.09c1.46-.61,2.93-1.19,4.41-1.76l2.11-.78a10.57,10.57,0,0,0,2-.77,1.25,1.25,0,0,0,.57-1.21c0-.82,0-1.66,0-2.48,0-1.66,0-3.32,0-5,0-3.41,0-6.81.1-10.21q.15-9.6,0-19.17c0-3.62,0-7.24-.1-10.85q-.2-9.07-.69-18.14a.26.26,0,0,0-.38-.21,27.65,27.65,0,0,0-7.46,6.2c-.87,1.05-1.69,2.15-2.66,3.12a14.49,14.49,0,0,1-3,2.25,18.38,18.38,0,0,1-5.31,2C80.89,43.06,81,43.54,81.33,43.48Z"/>
          </g>
        </g>
        <g>
          <g>
            <path class="cls-6" d="M94.52,86.66,88.2,74.91l-.56.73a8.46,8.46,0,0,0,5.24.23c1.57-.37,3.13-.79,4.69-1.19a.5.5,0,0,0-.26-1q-2.11.56-4.23,1.08a8.06,8.06,0,0,1-5.18-.11c-.43-.18-.75.39-.56.73l6.32,11.75c.3.57,1.16.07.86-.5Z"/>
            <path class="cls-6" d="M88.45,76A61.39,61.39,0,0,0,107.27,86.7a56.38,56.38,0,0,0,5.85,1.64c.62.14.89-.82.26-1A58.35,58.35,0,0,1,89.16,75.32c-.5-.4-1.21.3-.71.71Z"/>
          </g>
          <g>
            <path class="cls-6" d="M120.77,94.12a13.87,13.87,0,0,1,.22-8.07,5.12,5.12,0,0,1,1.79-2.73c1.19-.78,2.49-.1,3.51.65.52.39,1-.48.51-.86a4.11,4.11,0,0,0-4-.9A5,5,0,0,0,120.34,85a14.47,14.47,0,0,0-.53,9.41.5.5,0,0,0,1-.26Z"/>
            <path class="cls-6" d="M118.24,88a13.68,13.68,0,0,1,6.36.9.5.5,0,0,0,.61-.35.51.51,0,0,0-.35-.61,14.36,14.36,0,0,0-6.62-.94.51.51,0,0,0-.5.5.5.5,0,0,0,.5.5Z"/>
            <path class="cls-6" d="M129.27,82.31c-2.26,1.86-3,5.1-3.31,7.89a6.36,6.36,0,0,0,.93,4.44,3.81,3.81,0,0,0,3.32,1.68c.64,0,.65-1,0-1a3,3,0,0,1-2.8-1.73,6.63,6.63,0,0,1-.35-4.15c.38-2.33,1-4.86,2.91-6.42.5-.41-.21-1.11-.7-.71Z"/>
            <path class="cls-6" d="M130.29,85.92l4,6.18c.35.54,1.21,0,.87-.5l-4-6.19c-.35-.54-1.22,0-.87.51Z"/>
            <path class="cls-6" d="M134.7,85.53l-2.63,3.58a10.62,10.62,0,0,0-2.1,3.44.5.5,0,0,0,1,.26,5.39,5.39,0,0,1,.87-1.66c.39-.56.8-1.1,1.21-1.65L135.56,86a.49.49,0,0,0-.18-.68.5.5,0,0,0-.68.17Z"/>
            <path class="cls-6" d="M136.88,91a20.85,20.85,0,0,1-.41,2.49c-.09.41-.19.82-.31,1.22a4,4,0,0,1-.18.59,2.87,2.87,0,0,1-.28.48.5.5,0,0,0,.87.51,5.35,5.35,0,0,0,.52-1.17c.13-.45.25-.91.35-1.36a25.57,25.57,0,0,0,.44-2.76.51.51,0,0,0-.5-.5.5.5,0,0,0-.5.5Z"/>
            <path class="cls-6" d="M139.59,86.78a5.66,5.66,0,0,0,0,3.36,1.3,1.3,0,0,0,2.07.41,4,4,0,0,0,1.5-4.26l-.92.38a7,7,0,0,1,.73,3.51,5.7,5.7,0,0,1-2.38,4.26c-.51.37,0,1.24.51.86a6.79,6.79,0,0,0,2.85-4.83,8.11,8.11,0,0,0-.84-4.3c-.27-.53-1-.15-.92.38a3.07,3.07,0,0,1-.79,3c-.17.14-.47.41-.71.4s-.19-.16-.24-.31a5.29,5.29,0,0,1,.12-2.56c.13-.63-.83-.89-1-.26Z"/>
            <path class="cls-6" d="M142.68,83.3a10.32,10.32,0,0,1,3,6.12,9.46,9.46,0,0,1,0,3.71,2.7,2.7,0,0,1-2.58,2.25c-.64,0-.64,1,0,1a3.45,3.45,0,0,0,3.11-1.88,7.5,7.5,0,0,0,.54-4.44,11.63,11.63,0,0,0-3.42-7.46c-.48-.43-1.19.27-.71.7Z"/>
            <path class="cls-6" d="M151.86,88.74a.25.25,0,0,0,0-.09c0-.06,0,.07,0,0s0-.06,0,0,0-.06,0-.08-.06,0,0,0,0,0,0,0l0,0,.07,0c-.06,0-.07,0,0,0H152l-.62-.35s0,0,0,.08,0,0,0,0,0,.11,0,.17a1.82,1.82,0,0,1,0,.33c0,.1,0,0,0,0s0,.06,0,.09a.88.88,0,0,1-.05.15s0,.07,0,0,0,0,0,0a.25.25,0,0,1,0,.07s-.05.06,0,0-.09.1-.09.09.1-.06,0,0l-.05,0,0,0s.1,0,0,0l-.13,0c-.07,0,0,0,0,0H151s-.13,0-.06,0l-.07,0c-.1,0,.1,0,0,0s0,0,0,0l-.05,0s.07.1,0,0l0-.05s.05.09,0,0v0h0s0,.06,0,0,0,.12,0,0a.21.21,0,0,0,0-.06s-.06.11,0,0l0,0s.06-.06,0,0l0,0,0,0s0,0,0,0l.09,0s-.12,0,0,0l.07,0s-.11,0-.05,0H151c.07,0-.08,0,0,0l.08,0,.05,0c-.06,0-.07,0,0,0l0,0,.06,0s-.06-.06,0,0a.12.12,0,0,0,.05.05s.07.08,0,0l0,0,0,0a.43.43,0,0,0,0,.07c.06.11,0-.09,0,0s0,.1,0,.15,0,0,0,0a.49.49,0,0,1,0,.12s0,.05,0,.07,0-.08,0,0a1.33,1.33,0,0,1-.05.19l0,.08v0a3,3,0,0,1-.21.35s.05-.07,0,0l-.09.1.79.1c-.11-.19-.21-.38-.31-.58s0,.06,0,0l0-.07,0-.14c0-.05,0-.1,0-.16s0,0,0-.07,0,0,0,0v-.25c0-.09,0,.08,0,0l0-.15a.17.17,0,0,0,0,0v0a.23.23,0,0,1,.06-.12s.07-.1,0,0l0,0,.05,0s0,0,0,0l.07,0s0,0,0,0h-.07a.5.5,0,0,1-.24-.12s-.06-.12,0-.07l0,.05s0-.11,0,0a2.62,2.62,0,0,1,0,.28.43.43,0,0,1,0,.16v.07c0,.08,0-.1,0,0l0,.13v0l0,0c0,.05,0,0,0,0a106150861208.78,106150861208.78,0,0,1-.08.08c.06-.06,0,0,0,0l0,0h0c-.13,0,.06,0,0,0h0s0,0,0,0l-.06,0s.08.07,0,0,.06.08,0,0,0,0,0,0l0,0s0-.15,0-.07,0-.13,0,0,0,0,0,0l0-.07c0,.1,0,0,0-.07s0-.06,0,0,0,0,0,0l.26-.23-.79-.1c.07.1,0,0,0,0s.05.12,0,0,0,0,0,0h0c0,.08,0-.06,0,0l0,.07s.05-.07,0,0l0,0,0,0s0,0,0,0a.5.5,0,0,0,.26,1,1.06,1.06,0,0,0,.65-.67,1,1,0,0,0-.09-.85.51.51,0,0,0-.37-.23.5.5,0,0,0-.42.13,1.79,1.79,0,0,0-.61.78,1.15,1.15,0,0,0,.07,1,1,1,0,0,0,.88.48,1.17,1.17,0,0,0,.89-.56,1.73,1.73,0,0,0,.22-1,1.08,1.08,0,0,0-.38-1,.9.9,0,0,0-1.08.25,1.58,1.58,0,0,0-.42.77,3,3,0,0,0,.53,2.13.51.51,0,0,0,.79.1,2.17,2.17,0,0,0,.63-2,1.4,1.4,0,0,0-1.65-1.05,1.19,1.19,0,0,0-.73,1.72,1.29,1.29,0,0,0,1.71.28,2,2,0,0,0,.65-2.15.52.52,0,0,0-.62-.35,1.08,1.08,0,0,0-.84,1.14.51.51,0,0,0,.5.5c.24,0,.54-.22.5-.5Z"/>
            <path class="cls-6" d="M157.15,83.68a67.11,67.11,0,0,1,0,8.39l.93-.25c-.51-1.06-1.57-2.43-2.92-1.73A2.82,2.82,0,0,0,154.05,93a2.6,2.6,0,0,0,2,2.29A2.11,2.11,0,0,0,158.45,94c.2-.62-.76-.88-1-.27a1.13,1.13,0,0,1-1.28.63A1.61,1.61,0,0,1,155,92.91a2,2,0,0,1,.46-1.84c.8-.63,1.46.69,1.73,1.25s.9.21.93-.25a67.11,67.11,0,0,0,0-8.39c0-.64-1-.64-1,0Z"/>
            <path class="cls-6" d="M160.19,94.1a42.47,42.47,0,0,1,1.09-5.81c.24-.9.51-1.8.8-2.68.15-.44.31-.88.47-1.31s.38-1.43.7-1.58l-.39,0c.25,0,.48,1,.56,1.27.16.49.31,1,.43,1.48a23.37,23.37,0,0,1,.52,3.23,61,61,0,0,1,.13,6.34.5.5,0,0,0,1,0,52.74,52.74,0,0,0-.21-7.11,22.65,22.65,0,0,0-.65-3.36,14.23,14.23,0,0,0-.56-1.67,2.08,2.08,0,0,0-.63-1c-1-.59-1.37.83-1.62,1.46-.45,1.15-.85,2.33-1.2,3.52a42.9,42.9,0,0,0-1.44,7.2c-.07.64.93.63,1,0Z"/>
            <path class="cls-6" d="M160.08,89.85l4.78-.49a.5.5,0,0,0,0-1l-4.78.49a.51.51,0,0,0-.5.5.5.5,0,0,0,.5.5Z"/>
          </g>
        </g>
      </g>
      <g class="cls-8">
        <path class="cls-2" d="M91.71,16.92,99,13a37,37,0,0,1,8.64-3.76,14.22,14.22,0,0,1,9.17.91c1.43.7,1.38,1,3.69,2.56a36.41,36.41,0,0,0,7.38,3.8c4.43,1.53,8.5.78,11.91.11,9.9-1.94,11.33-6,17.83-6.94,3.53-.49,9-.1,16.42,5l-10,9c-2.95,2.65-6,5.35-9.58,7s-8,2-11.47.12c-1.72-1-3.21-2.47-5.15-2.82a8.17,8.17,0,0,0-3.9.52A31.56,31.56,0,0,0,116.46,43h0c-8.29,4.42-18.1,4.64-27.49,4.5-10.66-.15-21.83-.78-31-6.28-7.62-4.58-13.66-12.45-22.42-14s-17,3.61-24.33,8.54l-.46.47a31.53,31.53,0,0,0,25.91-1.5c6.39-3.4,11.37-8.89,16.86-13.61s12.11-8.89,19.35-8.72c8.07.2,14.57,2.38,18,4.36"/>
        <path d="M91.84,17.13c3.39-1.83,6.76-3.75,10.21-5.48a20.15,20.15,0,0,1,8.87-2.59,13.6,13.6,0,0,1,5,.91,10.75,10.75,0,0,1,2.79,1.7,34.75,34.75,0,0,0,8.16,4.66,18.88,18.88,0,0,0,9.76,1,37.21,37.21,0,0,0,9-2.2c3.94-1.56,7.31-4.47,11.56-5.21,6-1.06,11.92,1.54,16.81,4.86l-.05-.39C170,18,166.11,21.54,162.15,25c-3.63,3.18-7.76,6.25-12.73,6.66a10.86,10.86,0,0,1-6.66-1.47c-1.78-1.09-3.39-2.6-5.59-2.66s-4.29.91-6.19,1.76a31.07,31.07,0,0,0-5.53,3.2,31.86,31.86,0,0,0-9.2,10.33.25.25,0,0,0,.15.37h0l-.06-.45C109.19,46.54,101,47.22,93,47.25c-7.79,0-15.77-.08-23.39-1.82a39.51,39.51,0,0,1-10.73-4,62.63,62.63,0,0,1-8.44-6.13c-5.16-4.17-10.68-8.48-17.62-8.63a26.42,26.42,0,0,0-12,3A60.7,60.7,0,0,0,15,33a24.58,24.58,0,0,0-4.38,3,.25.25,0,0,0,.11.42A31.87,31.87,0,0,0,27.8,38a34.32,34.32,0,0,0,15.43-7.4c9.08-7.29,17.47-18.47,30.34-18,5.84.22,12.11,1.37,17.24,4.31a.25.25,0,0,0,.25-.43,36.32,36.32,0,0,0-13.88-4.11,26.93,26.93,0,0,0-9.09.22,27.55,27.55,0,0,0-7.88,3.29C55.09,19,50.88,23.22,46.47,27.18,41.89,31.29,37,35,31,36.75a31.46,31.46,0,0,1-20.1-.82l.11.42a23.65,23.65,0,0,1,4-2.8c1.68-1.06,3.39-2.08,5.16-3a28.1,28.1,0,0,1,11.38-3.41c7.42-.31,13.24,4.21,18.71,8.63a62.73,62.73,0,0,0,8.11,5.91,39.07,39.07,0,0,0,10.28,4c7.37,1.82,15.06,2,22.61,2,8.62,0,17.56-.46,25.33-4.56a.25.25,0,0,0-.06-.46h0l.15.37a31.33,31.33,0,0,1,8.41-9.7,31.83,31.83,0,0,1,5.35-3.28c2-1,4.57-2.18,6.88-2.05s4.07,2.1,6.1,3.09a11.66,11.66,0,0,0,6.13,1c4.47-.41,8.3-2.87,11.66-5.68,4.47-3.75,8.72-7.8,13-11.71a.25.25,0,0,0,0-.39c-4.45-3-9.69-5.45-15.19-5.15a16.23,16.23,0,0,0-5.81,1.44c-1.87.87-3.58,2-5.42,3a32.63,32.63,0,0,1-8.74,2.83c-3.53.67-7.12,1-10.61-.11a31.19,31.19,0,0,1-9-4.8A15.88,15.88,0,0,0,117.14,10a13,13,0,0,0-4.59-1.32,17.64,17.64,0,0,0-9.29,1.86c-4,1.82-7.81,4.1-11.67,6.19-.29.15,0,.58.25.43Z"/>
      </g>
      <path class="cls-6" d="M99.94,29.49a48.41,48.41,0,0,1-8.67-1.73,30.23,30.23,0,0,0-7.59-1.56,22.15,22.15,0,0,0-4.15.26c-.54.09-.69.45-1,.87a18.06,18.06,0,0,1-1.18,1.44A16.88,16.88,0,0,1,70,33.63a16.57,16.57,0,0,1-5.83.41c-1-.06-1.95-.25-2.92-.26a1.72,1.72,0,0,0-1.51.53.51.51,0,0,0,.1.79,44.08,44.08,0,0,0,16.33,7.4c1.58.39,3.18.71,4.79,1a5.13,5.13,0,0,0,1.09.16,3.35,3.35,0,0,0,.95-.37c.75-.33,1.49-.69,2.22-1.07A31.81,31.81,0,0,0,93,36.83c1.12-1.12,2-2.44,3.09-3.58a12.74,12.74,0,0,1,4.14-2.82c.59-.26.08-1.13-.5-.87a13.61,13.61,0,0,0-4.46,3.1c-1.17,1.27-2.13,2.7-3.4,3.88a29.42,29.42,0,0,1-4.55,3.29,39.58,39.58,0,0,1-5.52,2.87l.38-.05c-7.81-1.14-15.49-3.6-21.84-8.42l.1.79c.07-.07.14-.19.22-.23s.32,0,.48,0a15.83,15.83,0,0,1,1.69.15,32.32,32.32,0,0,0,3.41.19,14,14,0,0,0,5.88-1.24,19.22,19.22,0,0,0,7.74-6.64l-.3.23a21.83,21.83,0,0,1,10,.8,54.73,54.73,0,0,0,10.43,2.22C100.58,30.56,100.57,29.56,99.94,29.49Z"/>
      <g>
        <path class="cls-9" d="M99.4,30.18a45.72,45.72,0,0,1-6.11-1c-4-.95-5.51-1.81-8.62-2.15a21.28,21.28,0,0,0-5.82.18,17.83,17.83,0,0,1-5.43,5.27,13.27,13.27,0,0,1-5.56,2.21,24.83,24.83,0,0,1-6.09-.09,5.87,5.87,0,0,0-2,0l-.3.31a38.38,38.38,0,0,0,5.85,3.68,42.93,42.93,0,0,0,8.55,3.19,60.61,60.61,0,0,0,7.56,1.6,38.27,38.27,0,0,0,5.73-3,24.56,24.56,0,0,0,5.16-3.94c1.81-1.9,2.28-3.15,4.41-4.69A13.66,13.66,0,0,1,99.4,30.18Z"/>
        <path class="cls-6" d="M99.4,29.93a48.05,48.05,0,0,1-8.73-1.75,30.29,30.29,0,0,0-7.53-1.55,22.32,22.32,0,0,0-4.08.26c-.48.07-.57.37-.84.75A17.58,17.58,0,0,1,77,29.13a17.19,17.19,0,0,1-7.51,4.93,17,17,0,0,1-5.9.42c-1-.07-1.94-.25-2.92-.26a1.47,1.47,0,0,0-1.33.45.26.26,0,0,0,0,.4,38.75,38.75,0,0,0,8.26,4.81,53.33,53.33,0,0,0,8,2.56c1.58.39,3.18.71,4.79,1a4.42,4.42,0,0,0,1,.16,3,3,0,0,0,.82-.34c.76-.33,1.5-.69,2.23-1.08a31.54,31.54,0,0,0,7.73-5.31c1.12-1.12,2-2.44,3.09-3.59a13.12,13.12,0,0,1,4.19-2.86c.29-.13,0-.56-.26-.43a14.13,14.13,0,0,0-3.64,2.31,25.22,25.22,0,0,0-2.5,2.86,26.68,26.68,0,0,1-7.28,5.72q-1.06.61-2.16,1.17l-1,.49a5.64,5.64,0,0,1-1.15.52,3.58,3.58,0,0,1-1.17-.14l-1.25-.22c-.8-.15-1.59-.31-2.38-.49a58.57,58.57,0,0,1-7.79-2.32,38.13,38.13,0,0,1-9.29-5.23l0,.4c.2-.22.23-.29.55-.3a6.65,6.65,0,0,1,1.09,0c.88.08,1.75.19,2.63.24A17.83,17.83,0,0,0,69,34.7a16.83,16.83,0,0,0,7.3-4.15,18.56,18.56,0,0,0,2.38-2.71c.17-.24.23-.39.5-.47a5.18,5.18,0,0,1,.88-.12,20.75,20.75,0,0,1,2.09-.13A25.82,25.82,0,0,1,90,28.51a51,51,0,0,0,9.39,1.92C99.72,30.46,99.72,30,99.4,29.93Z"/>
      </g>
    </g>
  </g>
</svg>
