<svg xmlns="http://www.w3.org/2000/svg" viewBox="0 0 174.33 134.44">
  <defs>
    <style>
      .cls-1 {
        fill: #a7a9ac;
      }

      .cls-2 {
        fill: #231f20;
      }

      .cls-3 {
        fill: #ed1c24;
      }

      .cls-4 {
        fill: #00aeef;
      }

      .cls-5 {
        fill: #808285;
      }

      .cls-6 {
        fill: #fff;
      }

      .cls-7 {
        opacity: 0.82;
      }
    </style>
  </defs>
  <title>3d-integral-1-1</title>
  <g id="Layer_2" data-name="Layer 2">
    <g id="Layer_1-2" data-name="Layer 1">
      <g>
        <g>
          <path class="cls-1" d="M.94,19.07c1.48-2.35,3-4.69,4.56-7A33.81,33.81,0,0,1,8.37,8.34a3.53,3.53,0,0,1,1.25-1c.77-.26,1.33.34,1.77.88a13.08,13.08,0,0,1,1.89,3.36c1,2.61,1.57,5.38,2.78,7.93.28.58,1.14.07.87-.51-1.18-2.46-1.69-5.16-2.69-7.68A14.4,14.4,0,0,0,12.3,7.81c-.74-1-1.74-1.83-3-1.36C7.7,7,6.54,9,5.6,10.24c-1.17,1.61-2.28,3.27-3.36,4.94Q1.15,16.86.08,18.57c-.34.54.52,1,.86.5Z"/>
          <path class="cls-1" d="M9,7.22A206.78,206.78,0,0,0,6.08,43.48c0,6.23.29,12.46.47,18.68L7.1,80.6l.62,20.94c0,.64,1,.64,1,0l-1.1-37c-.36-12.21-.91-24.43-.07-36.64A202.89,202.89,0,0,1,10,7.48c.1-.63-.86-.9-1-.26Z"/>
        </g>
        <path class="cls-1" d="M8,102.34,47.71,111c13.09,2.85,26.18,5.71,39.33,8.32,7.35,1.46,14.72,2.84,22.12,4.08a.5.5,0,0,0,.56-.73,41.14,41.14,0,0,0-11.47-12.11l-.51.86a36.06,36.06,0,0,1,9.05,8.19q1,1.22,1.8,2.52a1.8,1.8,0,0,1,.43,1.46,4,4,0,0,1-1,1.34,49,49,0,0,1-10.81,8.6.5.5,0,0,0,.51.86,50.83,50.83,0,0,0,11.09-8.83,3.27,3.27,0,0,0,1.29-2.56,6.9,6.9,0,0,0-1.54-2.75,36.94,36.94,0,0,0-10.26-9.69c-.55-.35-1,.5-.51.86a40.19,40.19,0,0,1,11.12,11.75l.56-.73c-13.2-2.23-26.33-4.87-39.43-7.65s-26.32-5.69-39.48-8.56L8.29,101.37c-.63-.13-.9.83-.27,1Z"/>
        <g>
          <path class="cls-1" d="M8.79,102.29Q30.42,95.56,51.92,88.4q21.35-7.09,42.53-14.61A229.23,229.23,0,0,1,118,66.4c.63-.15.36-1.11-.27-1a206.3,206.3,0,0,0-20.88,6.44c-7,2.48-14,5-21.06,7.38Q54.45,86.63,33,93.57q-12.19,3.95-24.44,7.76c-.61.19-.35,1.16.26,1Z"/>
          <path class="cls-1" d="M117.24,66a49.83,49.83,0,0,0-7.12,9.53.5.5,0,0,0,.86.5,49.2,49.2,0,0,1,7-9.32c.45-.47-.26-1.18-.7-.71Z"/>
          <path class="cls-1" d="M118.05,65.25q-6.17.41-12.34.52a.5.5,0,0,0,0,1q6.18-.12,12.34-.52c.64,0,.65-1,0-1Z"/>
        </g>
      </g>
      <g>
        <path class="cls-2" d="M58.2,35.05c-2.16,0-2.91,2.22-3,4-.13,2.53-.14,5.07-.21,7.6L54.58,62.1l.25-.43a45.81,45.81,0,0,0-6.55,5.23.5.5,0,0,0,.22.83l3.92.89.83.19c.38.09.37,0,.37.41,0,.7,0,1.41.05,2.11q.07,4,0,8c0,2.68-.08,5.36-.18,8,0,1.37-.11,2.73-.17,4.09-.06,1.21-.2,2.43-.16,3.64a4.6,4.6,0,0,0,1,3.06,3.66,3.66,0,0,0,2.91,1.14c.64,0,.65-1,0-1A2.66,2.66,0,0,1,54.62,97a6.2,6.2,0,0,1-.37-3.28c.14-2.63.26-5.27.34-7.92q.24-7.92,0-15.85a3.3,3.3,0,0,0-.2-1.65c-.28-.4-.83-.44-1.28-.54l-4.39-1,.22.83a44.34,44.34,0,0,1,5.3-4.36,4.77,4.77,0,0,0,1.18-.84c.26-.38.13-1.1.14-1.55l.1-3.73.39-14.56c0-1.3,0-2.62.13-3.92.1-1.12.61-2.59,2-2.59a.5.5,0,0,0,0-1Z"/>
        <g>
          <path class="cls-2" d="M19.56,74a23.16,23.16,0,0,1-.49-8.33c.19-1.15.48-2.5,1.59-3.1a3.5,3.5,0,0,1,3.59.49c.53.36,1-.5.5-.86a4.58,4.58,0,0,0-4-.76,3.82,3.82,0,0,0-2.45,2.86c-.89,3.26-.38,6.71.26,10,.12.63,1.09.36,1-.27Z"/>
          <path class="cls-2" d="M16.27,69.55a10.55,10.55,0,0,1,3.49-.38,8.8,8.8,0,0,0,3.43,0c.61-.21.35-1.17-.26-1-1.1.37-2.31,0-3.43-.07a11.41,11.41,0,0,0-3.49.43.5.5,0,0,0,.26,1Z"/>
          <path class="cls-2" d="M27.57,59.9A27.23,27.23,0,0,0,26,69.36c0,2.36,1.07,5.91,4.11,5.5.63-.09.36-1-.27-1-1.3.18-2.21-1.2-2.53-2.27A10.71,10.71,0,0,1,27,68.05a26.85,26.85,0,0,1,1.52-7.88c.21-.61-.76-.88-1-.27Z"/>
          <path class="cls-2" d="M29.65,63.68A18.38,18.38,0,0,0,34.33,70c.49.42,1.2-.28.71-.71a17.48,17.48,0,0,1-4.52-6.14.5.5,0,0,0-.69-.18.51.51,0,0,0-.18.68Z"/>
          <path class="cls-2" d="M33,62.47q-1.1,2.19-2,4.45c-.31.75-.6,1.5-.88,2.26-.2.56-.25,1.24.43,1.48s.87-.75.26-1c.31.1.1.25.18,0l.12-.34.35-.93q.36-.95.75-1.86c.52-1.23,1.09-2.43,1.69-3.61.29-.58-.57-1.08-.87-.51Z"/>
          <path class="cls-2" d="M36.77,67.94a11.51,11.51,0,0,1-2.24,4.86.5.5,0,0,0,.71.71,12.65,12.65,0,0,0,2.5-5.3.5.5,0,1,0-1-.27Z"/>
          <path class="cls-2" d="M38.23,64.52A10.9,10.9,0,0,0,39.08,68c.28.59.81,1.34,1.56,1.15s1.08-.94,1.33-1.53A12.28,12.28,0,0,0,42.85,64l-1,.13c1.17,3.21.66,7-2.15,9.17-.51.39.2,1.09.71.7,3.06-2.37,3.68-6.63,2.41-10.13a.51.51,0,0,0-1,.13,12,12,0,0,1-.63,2.79,2.89,2.89,0,0,1-.82,1.35s0,0,0,0a.91.91,0,0,1-.12-.11,3.3,3.3,0,0,1-.42-.73,10.34,10.34,0,0,1-.64-2.81c-.07-.63-1.07-.64-1,0Z"/>
          <path class="cls-2" d="M43.65,60.38c1.69,1.75,2,4.68,2.24,7a11.46,11.46,0,0,1-.17,4.09c-.28,1.06-.87,2.35-2,2.7-.62.19-.35,1.16.26,1,2.85-.88,3.15-4.85,3-7.29-.21-2.72-.59-6.11-2.57-8.17-.45-.46-1.15.24-.71.71Z"/>
        </g>
      </g>
      <g>
        <path class="cls-3" d="M59.44,99.58C70,95,77.64,91.73,79.12,91.11a5.2,5.2,0,0,1,2-.45,5.36,5.36,0,0,1,2.24.42c1.94.77,2.82.38,8.89,2,2.46.67,5.6,1.62,9.21,3-1.34.54-3.37,1.39-5.83,2.51-2.74,1.24-4,1.89-6.9,3.24-1.43.65-3.5,1.59-6,2.66q-2.81-.45-5.67-1C70.86,102.37,65,101,59.44,99.58Z"/>
        <path d="M59.69,100q9.07-3.94,18.17-7.84c.57-.24,1.13-.5,1.61-.68a5.64,5.64,0,0,1,4.08.18,46.33,46.33,0,0,0,5.36,1.11,93.83,93.83,0,0,1,12.4,3.78v-1c-6.39,2.61-12.53,5.77-18.9,8.46l.39,0C75,102.74,67.23,101.1,59.57,99.1a.5.5,0,0,0-.26,1q9.28,2.42,18.75,4.14,1.18.23,2.37.42l1.17.2a4,4,0,0,0,1.13.16,3,3,0,0,0,.85-.34l1.06-.45,2.08-.91c2.23-1,4.43-2,6.64-3.09,2.7-1.29,5.45-2.5,8.22-3.63a.5.5,0,0,0,0-1,97.48,97.48,0,0,0-11.35-3.54c-1.29-.31-2.59-.58-3.9-.8a18.06,18.06,0,0,1-2.19-.44,8.07,8.07,0,0,0-3.73-.61A10,10,0,0,0,78,91l-6.38,2.74L59.19,99.15C58.6,99.41,59.11,100.27,59.69,100Z"/>
      </g>
      <g>
        <path class="cls-4" d="M156.2,7.26a14.16,14.16,0,0,1-.54-2.57,7.71,7.71,0,0,1,0-2.49A1.64,1.64,0,0,1,157.08.84,1.4,1.4,0,0,1,158.54,2c.06.32.54.18.49-.13A1.92,1.92,0,0,0,157.48.36a2.07,2.07,0,0,0-2,1,4.62,4.62,0,0,0-.34,2.87,15.36,15.36,0,0,0,.6,3.22c.1.3.58.17.49-.14Z"/>
        <path class="cls-4" d="M154.52,4.61a7.66,7.66,0,0,0,1.9-.23,6.11,6.11,0,0,1,1-.09,1.24,1.24,0,0,0,.81-.09c.26-.19,0-.62-.26-.43a.47.47,0,0,1-.31,0l-.43,0a6.76,6.76,0,0,0-.89.11,7.08,7.08,0,0,1-1.77.21c-.32,0-.32.48,0,.5Z"/>
        <path class="cls-4" d="M159.93.17a11.63,11.63,0,0,0-.73,4.55c.1,1.15.49,2.55,1.65,3.05.29.12.55-.31.25-.43-1.12-.48-1.39-1.93-1.42-3a12,12,0,0,1,.73-4c.1-.31-.38-.44-.48-.14Z"/>
        <path class="cls-4" d="M161.48,2c.3.74.63,1.46,1,2.18.17.34.35.69.54,1a4.19,4.19,0,0,0,.61,1c.23.23.58-.13.35-.36a2,2,0,0,1-.29-.45c-.09-.17-.19-.33-.28-.51s-.34-.63-.5-1c-.33-.67-.65-1.35-.94-2a.26.26,0,0,0-.31-.17.23.23,0,0,0-.17.3Z"/>
        <path class="cls-4" d="M163.87,2a16.27,16.27,0,0,0-1.29,1.9L161.28,6c-.17.28.27.53.44.26l1.25-2a16.91,16.91,0,0,1,1.25-1.87c.21-.25-.14-.6-.35-.35Z"/>
        <path class="cls-4" d="M165,5.54a4,4,0,0,1-.36,1.06,2,2,0,0,1-.14.25l-.06.11,0,0s0,0,0,0a.27.27,0,0,1-.07.08s0,0,0,0l0,0a.22.22,0,0,1-.16,0,.25.25,0,0,0-.25.25.26.26,0,0,0,.25.25.91.91,0,0,0,.57-.23,1.76,1.76,0,0,0,.33-.49,4.5,4.5,0,0,0,.46-1.27.26.26,0,0,0-.17-.31.25.25,0,0,0-.31.18Z"/>
        <path class="cls-4" d="M169.53.48a7.91,7.91,0,0,1,1.34,3.81c.08,1.23,0,3.09-1.41,3.56-.3.09-.17.58.13.48,1.52-.5,1.83-2.24,1.79-3.64A8.3,8.3,0,0,0,170,.22c-.17-.26-.61,0-.43.26Z"/>
        <path class="cls-4" d="M166.22,2.83a3.22,3.22,0,0,0,.09,2.1,1.62,1.62,0,0,0,1.21,1.16c.62.07,1-.44,1-1a16.2,16.2,0,0,0,.1-2.41l-.49.06a8.39,8.39,0,0,1,.06,3.89c-.25,1.08-.87,2.72-2.27,2.52-.32-.05-.45.43-.14.48,1.5.22,2.4-1.12,2.77-2.39a9,9,0,0,0,.07-4.63.26.26,0,0,0-.5.07c0,.56,0,1.12,0,1.69,0,.36,0,1.22-.51,1.23s-.8-.67-.91-1.07a2.71,2.71,0,0,1,0-1.57.25.25,0,0,0-.48-.13Z"/>
      </g>
      <g>
        <g>
          <path class="cls-5" d="M101.26,45.57a7.59,7.59,0,0,0-.1-2.18.26.26,0,0,0-.31-.18.25.25,0,0,0-.17.31,7,7,0,0,1,.08,2c0,.13.12.25.25.25a.27.27,0,0,0,.25-.25Z"/>
          <path class="cls-5" d="M101.12,41.56l-.27-1.67a.25.25,0,1,0-.48.13l.27,1.68a.25.25,0,0,0,.3.17.26.26,0,0,0,.18-.31Z"/>
          <path class="cls-5" d="M100.78,35.69a3.88,3.88,0,0,1,.08-1.48.25.25,0,0,0-.48-.14,4.5,4.5,0,0,0-.08,1.75.25.25,0,0,0,.31.18.26.26,0,0,0,.17-.31Z"/>
          <path class="cls-5" d="M100.49,33v-2a.25.25,0,0,0-.5,0v2a.25.25,0,0,0,.5,0Z"/>
          <path class="cls-5" d="M100.69,38.51V37.38a.25.25,0,0,0-.25-.25.26.26,0,0,0-.25.25v1.13a.26.26,0,0,0,.25.25.25.25,0,0,0,.25-.25Z"/>
        </g>
        <g>
          <path class="cls-5" d="M82.63,46l-.11-1.4a.25.25,0,0,0-.5,0l.11,1.4a.25.25,0,0,0,.25.25.25.25,0,0,0,.25-.25Z"/>
          <path class="cls-5" d="M82.33,43.69V42.56a.25.25,0,0,0-.25-.25.26.26,0,0,0-.25.25v1.13a.25.25,0,0,0,.5,0Z"/>
        </g>
        <g>
          <path class="cls-5" d="M79.71,43.32V41.91a.25.25,0,0,0-.5,0v1.41a.25.25,0,0,0,.25.25.26.26,0,0,0,.25-.25Z"/>
          <path class="cls-5" d="M79.79,46.12V44.71a.26.26,0,0,0-.25-.25.25.25,0,0,0-.25.25v1.41a.25.25,0,0,0,.25.25.25.25,0,0,0,.25-.25Z"/>
        </g>
        <g>
          <path class="cls-5" d="M59.9,40.54a7.4,7.4,0,0,0-.11-2.1.25.25,0,0,0-.49.13,6.51,6.51,0,0,1,.1,2,.25.25,0,0,0,.25.25.25.25,0,0,0,.25-.25Z"/>
          <path class="cls-5" d="M60.1,37V35.55a.25.25,0,0,0-.5,0V37a.25.25,0,0,0,.25.25A.26.26,0,0,0,60.1,37Z"/>
        </g>
      </g>
      <g>
        <g>
          <path d="M116.4,80.06a55.1,55.1,0,0,0,.36,9.08l.86-.36c-1-1-2.38-2-3.9-1.66a3.39,3.39,0,0,0-2.33,3c-.1,1.52,1.22,2.28,2.55,2.5,1.15.19,3.3.47,3.86-.87.25-.6-.72-.85-1-.27-.14.31-1.08.26-1.37.26a6.71,6.71,0,0,1-1.67-.16c-1-.23-1.66-.8-1.33-1.88a2.19,2.19,0,0,1,2-1.66,4.23,4.23,0,0,1,2.49,1.45c.28.26.91.11.85-.35a55.1,55.1,0,0,1-.36-9.08c0-.64-1-.64-1,0Z"/>
          <path d="M119.88,92.17a32.38,32.38,0,0,1,1.2-6.63,31.4,31.4,0,0,1,1.13-3.26,12.56,12.56,0,0,1,.66-1.51c.16-.26.34-.65.65-.31a2.55,2.55,0,0,1,.33.73c1.75,4.14,2.37,8.65,3,13.07.08.56,1,.43,1-.13v-.41c0-.64-1-.65-1,0v.41l1-.13a55.93,55.93,0,0,0-2.58-12.08,6,6,0,0,0-1.16-2.39,1.21,1.21,0,0,0-1.76.33,9,9,0,0,0-1.18,2.48c-.38,1-.71,1.94-1,2.93a34.31,34.31,0,0,0-1.23,6.9c0,.64,1,.64,1,0Z"/>
          <path d="M120.67,87.85a19.81,19.81,0,0,1,5.92-1,.5.5,0,0,0,0-1,20.71,20.71,0,0,0-6.19,1c-.61.2-.35,1.17.27,1Z"/>
        </g>
        <g>
          <path d="M86,93.22a30.83,30.83,0,0,0-.58,6.5.51.51,0,0,0,.76.44l5.5-3.77c.53-.37,0-1.23-.5-.87L85.7,99.29l.75.43A29,29,0,0,1,87,93.49c.12-.63-.84-.9-1-.27Z"/>
          <path d="M86.44,99.86a18,18,0,0,1,6.28-9.4,30.56,30.56,0,0,1,10.68-5.74,12.4,12.4,0,0,1,7.55,0c.61.21.87-.75.27-1-4.6-1.59-9.45.17-13.54,2.33a27.2,27.2,0,0,0-9.21,7.37,17.25,17.25,0,0,0-3,6.18.5.5,0,0,0,1,.27Z"/>
        </g>
      </g>
      <g>
        <g>
          <path class="cls-5" d="M82.43,99.1l.21-3.32c0-.32-.48-.32-.5,0l-.21,3.32c0,.32.48.32.5,0Z"/>
          <path class="cls-5" d="M82.64,90.43V88.32a.25.25,0,0,0-.5,0v2.11a.25.25,0,0,0,.5,0Z"/>
          <path class="cls-5" d="M82.78,84.8V82.69a.25.25,0,0,0-.5,0V84.8a.25.25,0,0,0,.5,0Z"/>
          <path class="cls-5" d="M82.32,78.89l.18-3.1c0-.32-.49-.32-.5,0l-.18,3.1c0,.32.49.32.5,0Z"/>
          <path class="cls-5" d="M82.63,72.49a6.57,6.57,0,0,1-.27-2.33.26.26,0,0,0-.25-.25.25.25,0,0,0-.25.25,6.82,6.82,0,0,0,.29,2.46c.09.31.58.17.48-.13Z"/>
          <path class="cls-5" d="M82.5,66.5v-2a.25.25,0,0,0-.5,0v2a.25.25,0,0,0,.5,0Z"/>
          <path class="cls-5" d="M82.64,61.71V59.88a.25.25,0,0,0-.5,0v1.83a.25.25,0,0,0,.5,0Z"/>
          <path class="cls-5" d="M82.5,57.77a4.41,4.41,0,0,1,.11-1.62.24.24,0,0,0-.17-.31.25.25,0,0,0-.31.17A4.74,4.74,0,0,0,82,57.77a.26.26,0,0,0,.25.25.24.24,0,0,0,.25-.25Z"/>
          <path class="cls-5" d="M82.78,54.25V52.14a.25.25,0,0,0-.5,0v2.11a.25.25,0,0,0,.5,0Z"/>
          <path class="cls-5" d="M82.78,50.87V49a.25.25,0,0,0-.5,0v1.83a.25.25,0,0,0,.5,0Z"/>
          <path class="cls-5" d="M82.63,103.59a8.59,8.59,0,0,1,.07-2.32.25.25,0,1,0-.48-.13,9.14,9.14,0,0,0-.09,2.45.25.25,0,0,0,.5,0Z"/>
          <path class="cls-5" d="M82.47,93.82a6.44,6.44,0,0,1,0-1.91.26.26,0,0,0-.18-.31.25.25,0,0,0-.3.17A7.24,7.24,0,0,0,82,94a.25.25,0,1,0,.48-.13Z"/>
        </g>
        <g>
          <path class="cls-5" d="M59.69,98.25l-.33-1.54a.25.25,0,0,0-.48.13l.33,1.54a.25.25,0,0,0,.48-.13Z"/>
          <path class="cls-5" d="M59.68,93.67a6.36,6.36,0,0,0-.1-2,.26.26,0,0,0-.31-.18.27.27,0,0,0-.18.31,5.84,5.84,0,0,1,.09,1.91c0,.13.12.25.25.25a.27.27,0,0,0,.25-.25Z"/>
          <path class="cls-5" d="M59.83,87.76V85.93a.25.25,0,0,0-.5,0v1.83a.25.25,0,0,0,.5,0Z"/>
          <path class="cls-5" d="M59.9,82.78l-.5-2.27a.25.25,0,0,0-.31-.17.25.25,0,0,0-.17.3l.5,2.27a.25.25,0,0,0,.3.18.26.26,0,0,0,.18-.31Z"/>
          <path class="cls-5" d="M59.52,78.25a5.5,5.5,0,0,0,0-2.52c-.07-.31-.55-.18-.48.13a4.89,4.89,0,0,1,0,2.25c-.07.32.41.45.49.14Z"/>
          <path class="cls-5" d="M59.92,71.59l0-.09s0,0,0,0a.85.85,0,0,1-.06-.17,2,2,0,0,1-.09-.33,1.39,1.39,0,0,1,0-.3,2.16,2.16,0,0,1,0-.36.25.25,0,0,0-.25-.25.26.26,0,0,0-.25.25,3,3,0,0,0,.3,1.54.25.25,0,0,0,.34.09.26.26,0,0,0,.09-.34Z"/>
          <path class="cls-5" d="M59.94,66.79a3.09,3.09,0,0,1-.16-1.92c.08-.31-.4-.45-.48-.14a3.77,3.77,0,0,0,.21,2.32.25.25,0,1,0,.43-.26Z"/>
          <path class="cls-5" d="M59.94,61.16,59.88,61s0,0,0,0V61l0-.06-.09-.3,0-.16v-.06s0,0,0,0,0-.21,0-.32a.25.25,0,0,0-.25-.25.27.27,0,0,0-.25.25,3,3,0,0,0,.33,1.39.25.25,0,0,0,.34.09.24.24,0,0,0,.09-.34Z"/>
          <path class="cls-5" d="M60.19,56A3.73,3.73,0,0,1,60,53.9a.25.25,0,0,0-.17-.3.25.25,0,0,0-.31.17,4.19,4.19,0,0,0,.2,2.4.26.26,0,0,0,.3.18.26.26,0,0,0,.18-.31Z"/>
          <path class="cls-5" d="M59.83,50.94a9.27,9.27,0,0,1-.16-2c0-.32-.49-.32-.5,0a10,10,0,0,0,.18,2.18.26.26,0,0,0,.31.17.25.25,0,0,0,.17-.31Z"/>
          <path class="cls-5" d="M59.85,47.21l-.17-1.41a.26.26,0,0,0-.25-.25c-.12,0-.26.12-.25.25l.17,1.41a.25.25,0,0,0,.25.25.26.26,0,0,0,.25-.25Z"/>
          <path class="cls-5" d="M59.8,44l0-.06v0s0,0,0,0a.56.56,0,0,1,0-.12.7.7,0,0,1,0-.14s0,0,0,0v-.27h0s0,0,0-.06a.61.61,0,0,1,0-.13v0s0,0,0,0a.15.15,0,0,1,0-.07.25.25,0,1,0-.43-.25,1.45,1.45,0,0,0,0,1.37.25.25,0,0,0,.35.09A.26.26,0,0,0,59.8,44Z"/>
        </g>
        <g>
          <path class="cls-5" d="M101.86,95a19.07,19.07,0,0,1-.26-3.46.25.25,0,0,0-.5,0,19.72,19.72,0,0,0,.28,3.6c.05.31.53.18.48-.14Z"/>
          <path class="cls-5" d="M101.64,89.16a9.28,9.28,0,0,0-.25-3.44.25.25,0,0,0-.48.13,9,9,0,0,1,.23,3.31.24.24,0,0,0,.25.25.25.25,0,0,0,.25-.25Z"/>
          <path class="cls-5" d="M101.4,83,101,79.45a.26.26,0,0,0-.25-.25.24.24,0,0,0-.25.25L100.9,83a.25.25,0,0,0,.5,0Z"/>
          <path class="cls-5" d="M101.06,76.84a10.4,10.4,0,0,0,.08-3.52.25.25,0,0,0-.3-.17.25.25,0,0,0-.18.31,9.86,9.86,0,0,1-.08,3.25c-.06.31.42.45.48.13Z"/>
          <path class="cls-5" d="M101.38,71a9.26,9.26,0,0,0-.44-2.6c-.09-.3-.58-.17-.48.14a8.94,8.94,0,0,1,.42,2.46.25.25,0,0,0,.5,0Z"/>
          <path class="cls-5" d="M101.28,66.56,100.92,64a.25.25,0,0,0-.3-.17.25.25,0,0,0-.18.31l.35,2.52a.26.26,0,0,0,.31.18.27.27,0,0,0,.18-.31Z"/>
          <path class="cls-5" d="M101.19,61.81a4.55,4.55,0,0,1-.07-2.26c.07-.31-.41-.45-.48-.13a5,5,0,0,0,.07,2.52.25.25,0,0,0,.48-.13Z"/>
          <path class="cls-5" d="M101,57.48a7.28,7.28,0,0,0,.17-2,.24.24,0,0,0-.25-.25.26.26,0,0,0-.25.25,6.75,6.75,0,0,1-.15,1.9.25.25,0,1,0,.48.13Z"/>
          <path class="cls-5" d="M101.22,53.9a14.45,14.45,0,0,0,.06-2.46c0-.32-.51-.32-.5,0a14.45,14.45,0,0,1-.06,2.46c0,.13.12.25.25.25a.25.25,0,0,0,.25-.25Z"/>
          <path class="cls-5" d="M101.06,50a11.73,11.73,0,0,1,0-2.9.26.26,0,0,0-.17-.31.25.25,0,0,0-.31.18,11.82,11.82,0,0,0,0,3,.25.25,0,0,0,.25.25.25.25,0,0,0,.25-.25Z"/>
        </g>
        <g>
          <path class="cls-5" d="M80.53,89.73v-2a.25.25,0,0,0-.5,0v2a.25.25,0,0,0,.5,0Z"/>
          <path class="cls-5" d="M80.49,85.44l-.33-2a.26.26,0,0,0-.31-.18.27.27,0,0,0-.18.31l.34,2a.26.26,0,0,0,.31.17.25.25,0,0,0,.17-.31Z"/>
          <path class="cls-5" d="M80.2,80.74A13.3,13.3,0,0,1,80.29,77c0-.31-.43-.45-.48-.13a13.48,13.48,0,0,0-.11,3.91A.26.26,0,0,0,80,81c.12,0,.27-.12.25-.25Z"/>
          <path class="cls-5" d="M80.22,74.68,80,71.44c0-.32-.52-.32-.5,0l.25,3.24c0,.32.52.32.5,0Z"/>
          <path class="cls-5" d="M80.12,68.92V66.11a.25.25,0,0,0-.5,0v2.81a.25.25,0,0,0,.5,0Z"/>
          <path class="cls-5" d="M80,63.29V60.34a.25.25,0,0,0-.5,0v2.95a.25.25,0,0,0,.5,0Z"/>
          <path class="cls-5" d="M79.81,58.22,80,55.55a.25.25,0,0,0-.25-.25.25.25,0,0,0-.25.25l-.18,2.67a.25.25,0,0,0,.25.25.25.25,0,0,0,.25-.25Z"/>
          <path class="cls-5" d="M80,54.24l-.17-3.1c0-.32-.52-.32-.5,0l.17,3.1c0,.32.51.32.5,0Z"/>
          <path class="cls-5" d="M79.84,49.57V47.31a.25.25,0,0,0-.5,0v2.26a.25.25,0,0,0,.5,0Z"/>
        </g>
        <g>
          <path class="cls-5" d="M79.87,40.22A4.21,4.21,0,0,1,80,38.6a.25.25,0,0,0-.18-.31.24.24,0,0,0-.3.17,4.54,4.54,0,0,0-.13,1.76.25.25,0,0,0,.25.25.25.25,0,0,0,.25-.25Z"/>
          <path class="cls-5" d="M79.92,36.65a2.53,2.53,0,0,1,0-.55h0V36l0-.13a2.76,2.76,0,0,1,.08-.27.25.25,0,0,0-.18-.31.25.25,0,0,0-.3.17,3,3,0,0,0-.15,1.19.24.24,0,0,0,.25.25.25.25,0,0,0,.25-.25Z"/>
          <path class="cls-5" d="M79.75,33.47l.17-1.62a.25.25,0,0,0-.5,0l-.17,1.62a.24.24,0,0,0,.25.25.26.26,0,0,0,.25-.25Z"/>
          <path class="cls-5" d="M79.92,30.06V29a.25.25,0,0,0-.25-.25.25.25,0,0,0-.25.25v1a.25.25,0,0,0,.25.25.25.25,0,0,0,.25-.25Z"/>
        </g>
      </g>
      <g>
        <g>
          <path class="cls-6" d="M60.48,20.36a8.56,8.56,0,0,1,5-3,9.58,9.58,0,0,1,3.61.26,19.91,19.91,0,0,1,5.58,1.63,7,7,0,0,0-5.34-.07,16.9,16.9,0,0,0-4.75,2.69c-1.46,1-3.66,2.58-6.49,4.47A10.08,10.08,0,0,1,60.48,20.36Z"/>
          <path d="M60.65,20.54a8.11,8.11,0,0,1,5.31-3,14.09,14.09,0,0,1,3.92.48,17.4,17.4,0,0,1,4.63,1.43l.25-.43c-2.81-1.3-6-.24-8.43,1.32-2.86,1.82-5.57,3.89-8.4,5.78l.38.21a9.94,9.94,0,0,1,2.34-5.8c.21-.24-.14-.6-.35-.35a10.49,10.49,0,0,0-2.49,6.15.25.25,0,0,0,.38.22c2.63-1.76,5.18-3.63,7.81-5.39,2.44-1.64,5.62-3.05,8.51-1.71.29.14.54-.28.25-.43A18.23,18.23,0,0,0,70,17.54a14.54,14.54,0,0,0-4.2-.48,8.63,8.63,0,0,0-5.51,3.13C60.09,20.43,60.44,20.78,60.65,20.54Z"/>
        </g>
        <path d="M85.2,23.22a11.52,11.52,0,0,1,4.65-.69,10.87,10.87,0,0,1,3.8,1.15,21.31,21.31,0,0,0,8.29,2.12c.32,0,.32-.48,0-.5a20.65,20.65,0,0,1-4.81-.78,30.51,30.51,0,0,1-4-1.63,10.85,10.85,0,0,0-8.08-.16c-.31.11-.18.59.13.49Z"/>
        <g>
          <path class="cls-6" d="M149,23.66c.1,0,.21-.1.91-.51a6.11,6.11,0,0,1,.8-.38,6.44,6.44,0,0,1,1.94-.4,10.17,10.17,0,0,1,.16-2.32,9.85,9.85,0,0,1,3.36-5.56,8.13,8.13,0,0,0-4.7,2.17C148.76,19.27,148.54,23.46,149,23.66Z"/>
          <path d="M148.89,23.9c.34.11.85-.39,1.1-.53a6,6,0,0,1,2.62-.75.25.25,0,0,0,.25-.25,9.48,9.48,0,0,1,3.45-7.7.26.26,0,0,0-.18-.43,8.31,8.31,0,0,0-5.47,2.89,9.85,9.85,0,0,0-2.1,5.31c0,.38-.13,1.19.27,1.43a.25.25,0,0,0,.26-.43c.07,0,0,0,0-.11s0-.25,0-.38a7.08,7.08,0,0,1,.1-1.13,9.66,9.66,0,0,1,1.05-3.09,7.77,7.77,0,0,1,5.94-4l-.18-.42a10,10,0,0,0-3.59,8.05l.25-.25a6.82,6.82,0,0,0-2.22.5,6.2,6.2,0,0,0-1,.54,3.28,3.28,0,0,0-.31.2c-.1.06-.12,0,0,.06C148.72,23.32,148.59,23.8,148.89,23.9Z"/>
        </g>
        <g>
          <path class="cls-6" d="M99.87,37.12c.19.27,1-.3,2.88-.18a9.28,9.28,0,0,1,2.88.66c-.35-1.22.67-2.39,1.63-3.23a57,57,0,0,1,8-5.86,11.74,11.74,0,0,0-1.71-.16C105.64,28.24,99.26,36.23,99.87,37.12Z"/>
          <path d="M99.69,37.29c.35.39,1.34,0,1.75-.08a8.8,8.8,0,0,1,4.12.63c.19.08.35-.14.31-.3-.27-1.17.63-2.14,1.42-2.87s1.61-1.38,2.44-2a56.84,56.84,0,0,1,5.61-3.91c.17-.1.17-.42,0-.46a14,14,0,0,0-9.35,2.06,18.33,18.33,0,0,0-5.72,5.19c-.26.4-.87,1.22-.57,1.73a.25.25,0,0,0,.44-.25c-.14-.23.44-1,.59-1.26a15.27,15.27,0,0,1,2-2.31,17.8,17.8,0,0,1,7.17-4.3,12.08,12.08,0,0,1,5.28-.37l-.06-.46a60.28,60.28,0,0,0-6.25,4.42c-1.43,1.15-4,2.79-3.45,5l.31-.31a9.62,9.62,0,0,0-3.51-.69,8.32,8.32,0,0,0-1.41.14c-.11,0-.67.2-.73.13C99.83,36.7,99.48,37.05,99.69,37.29Z"/>
        </g>
      </g>
      <g class="cls-7">
        <path class="cls-4" d="M91.71,16.92,99,13a37,37,0,0,1,8.64-3.76,14.22,14.22,0,0,1,9.17.91c1.43.7,1.38,1,3.69,2.56a36.41,36.41,0,0,0,7.38,3.8c4.43,1.53,8.5.78,11.91.11,9.9-1.94,11.33-6,17.83-6.94,3.53-.49,9-.1,16.42,5l-10,9c-2.95,2.65-6,5.35-9.58,7s-8,2-11.47.12c-1.72-1-3.21-2.47-5.15-2.82a8.17,8.17,0,0,0-3.9.52A31.56,31.56,0,0,0,116.46,43h0c-8.29,4.42-18.1,4.64-27.49,4.5-10.66-.15-21.83-.78-31-6.28-7.62-4.58-13.66-12.45-22.42-14s-17,3.61-24.33,8.54l-.46.47a31.53,31.53,0,0,0,25.91-1.5c6.39-3.4,11.37-8.89,16.86-13.61s12.11-8.89,19.35-8.72c8.07.2,14.57,2.38,18,4.36"/>
        <path d="M91.84,17.13c3.39-1.83,6.76-3.75,10.21-5.48a20.15,20.15,0,0,1,8.87-2.59,13.6,13.6,0,0,1,5,.91,10.75,10.75,0,0,1,2.79,1.7,34.75,34.75,0,0,0,8.16,4.66,18.88,18.88,0,0,0,9.76,1,37.21,37.21,0,0,0,9-2.2c3.94-1.56,7.31-4.47,11.56-5.21,6-1.06,11.92,1.54,16.81,4.86l-.05-.39C170,18,166.11,21.54,162.15,25c-3.63,3.18-7.76,6.25-12.73,6.66a10.86,10.86,0,0,1-6.66-1.47c-1.78-1.09-3.39-2.6-5.59-2.66s-4.29.91-6.19,1.76a31.07,31.07,0,0,0-5.53,3.2,31.86,31.86,0,0,0-9.2,10.33.25.25,0,0,0,.15.37h0l-.06-.45C109.19,46.54,101,47.22,93,47.25c-7.79,0-15.77-.08-23.39-1.82a39.51,39.51,0,0,1-10.73-4,62.63,62.63,0,0,1-8.44-6.13c-5.16-4.17-10.68-8.48-17.62-8.63a26.42,26.42,0,0,0-12,3A60.7,60.7,0,0,0,15,33a24.58,24.58,0,0,0-4.38,3,.25.25,0,0,0,.11.42A31.87,31.87,0,0,0,27.8,38a34.32,34.32,0,0,0,15.43-7.4c9.08-7.29,17.47-18.47,30.34-18,5.84.22,12.11,1.37,17.24,4.31a.25.25,0,0,0,.25-.43,36.32,36.32,0,0,0-13.88-4.11,26.93,26.93,0,0,0-9.09.22,27.55,27.55,0,0,0-7.88,3.29C55.09,19,50.88,23.22,46.47,27.18,41.89,31.29,37,35,31,36.75a31.46,31.46,0,0,1-20.1-.82l.11.42a23.65,23.65,0,0,1,4-2.8c1.68-1.06,3.39-2.08,5.16-3a28.1,28.1,0,0,1,11.38-3.41c7.42-.31,13.24,4.21,18.71,8.63a62.73,62.73,0,0,0,8.11,5.91,39.07,39.07,0,0,0,10.28,4c7.37,1.82,15.06,2,22.61,2,8.62,0,17.56-.46,25.33-4.56a.25.25,0,0,0-.06-.46h0l.15.37a31.33,31.33,0,0,1,8.41-9.7,31.83,31.83,0,0,1,5.35-3.28c2-1,4.57-2.18,6.88-2.05s4.07,2.1,6.1,3.09a11.66,11.66,0,0,0,6.13,1c4.47-.41,8.3-2.87,11.66-5.68,4.47-3.75,8.72-7.8,13-11.71a.25.25,0,0,0,0-.39c-4.45-3-9.69-5.45-15.19-5.15a16.23,16.23,0,0,0-5.81,1.44c-1.87.87-3.58,2-5.42,3a32.63,32.63,0,0,1-8.74,2.83c-3.53.67-7.12,1-10.61-.11a31.19,31.19,0,0,1-9-4.8A15.88,15.88,0,0,0,117.14,10a13,13,0,0,0-4.59-1.32,17.64,17.64,0,0,0-9.29,1.86c-4,1.82-7.81,4.1-11.67,6.19-.29.15,0,.58.25.43Z"/>
      </g>
      <path class="cls-2" d="M99.94,29.49a48.41,48.41,0,0,1-8.67-1.73,30.23,30.23,0,0,0-7.59-1.56,22.15,22.15,0,0,0-4.15.26c-.54.09-.69.45-1,.87a18.06,18.06,0,0,1-1.18,1.44A16.88,16.88,0,0,1,70,33.63a16.57,16.57,0,0,1-5.83.41c-1-.06-1.95-.25-2.92-.26a1.72,1.72,0,0,0-1.51.53.51.51,0,0,0,.1.79,44.08,44.08,0,0,0,16.33,7.4c1.58.39,3.18.71,4.79,1a5.13,5.13,0,0,0,1.09.16,3.35,3.35,0,0,0,.95-.37c.75-.33,1.49-.69,2.22-1.07A31.81,31.81,0,0,0,93,36.83c1.12-1.12,2-2.44,3.09-3.58a12.74,12.74,0,0,1,4.14-2.82c.59-.26.08-1.13-.5-.87a13.61,13.61,0,0,0-4.46,3.1c-1.17,1.27-2.13,2.7-3.4,3.88a29.42,29.42,0,0,1-4.55,3.29,39.58,39.58,0,0,1-5.52,2.87l.38-.05c-7.81-1.14-15.49-3.6-21.84-8.42l.1.79c.07-.07.14-.19.22-.23s.32,0,.48,0a15.83,15.83,0,0,1,1.69.15,32.32,32.32,0,0,0,3.41.19,14,14,0,0,0,5.88-1.24,19.22,19.22,0,0,0,7.74-6.64l-.3.23a21.83,21.83,0,0,1,10,.8,54.73,54.73,0,0,0,10.43,2.22C100.58,30.56,100.57,29.56,99.94,29.49Z"/>
    </g>
  </g>
</svg>
