<svg xmlns="http://www.w3.org/2000/svg" viewBox="0 0 174.33 134.11">
  <defs>
    <style>
      .cls-1 {
        fill: #a7a9ac;
      }

      .cls-2 {
        fill: #00aeef;
      }

      .cls-3 {
        fill: #fff;
      }

      .cls-4 {
        fill: #00a651;
      }

      .cls-5 {
        fill: #231f20;
      }

      .cls-6 {
        fill: #006838;
      }

      .cls-7 {
        opacity: 0.82;
      }

      .cls-8 {
        fill: #39b54a;
      }
    </style>
  </defs>
  <title>3d-integral-2-2</title>
  <g id="Layer_2" data-name="Layer 2">
    <g id="Layer_1-2" data-name="Layer 1">
      <g>
        <g>
          <path class="cls-1" d="M.94,18.73c1.48-2.35,3-4.69,4.56-7A33,33,0,0,1,8.37,8a3.39,3.39,0,0,1,1.25-1c.77-.26,1.33.33,1.77.87a13,13,0,0,1,1.89,3.37c1,2.6,1.57,5.38,2.78,7.92.28.58,1.14.07.87-.5-1.18-2.46-1.69-5.16-2.69-7.69A14.34,14.34,0,0,0,12.3,7.48c-.74-1-1.74-1.84-3-1.36C7.7,6.69,6.54,8.61,5.6,9.9c-1.17,1.61-2.28,3.27-3.36,4.94C1.51,16,.79,17.1.08,18.23c-.34.55.52,1.05.86.5Z" transform="translate(0 0)"/>
          <path class="cls-1" d="M9,6.88A206.78,206.78,0,0,0,6.08,43.14c0,6.23.29,12.46.47,18.69L7.1,80.27l.62,20.93c0,.64,1,.64,1,0l-1.1-37C7.26,52,6.71,39.77,7.55,27.56A202.89,202.89,0,0,1,10,7.15c.1-.63-.86-.9-1-.27Z" transform="translate(0 0)"/>
        </g>
        <path class="cls-1" d="M8,102l39.69,8.64C60.8,113.49,73.89,116.36,87,119c7.35,1.46,14.72,2.84,22.12,4.09a.51.51,0,0,0,.56-.74,41.23,41.23,0,0,0-11.47-12.1l-.51.86a35.83,35.83,0,0,1,9.05,8.18c.64.81,1.24,1.66,1.8,2.53a1.77,1.77,0,0,1,.43,1.45,4.15,4.15,0,0,1-1,1.35,49.33,49.33,0,0,1-10.81,8.59.5.5,0,0,0,.51.86,50.83,50.83,0,0,0,11.09-8.83,3.26,3.26,0,0,0,1.29-2.55,6.83,6.83,0,0,0-1.54-2.75,36.56,36.56,0,0,0-10.26-9.69c-.55-.35-1,.5-.51.86a39.94,39.94,0,0,1,11.12,11.75l.56-.74c-13.2-2.23-26.33-4.87-39.43-7.65s-26.32-5.69-39.48-8.55L8.29,101c-.63-.14-.9.82-.27,1Z" transform="translate(0 0)"/>
        <g>
          <path class="cls-1" d="M8.79,102q21.63-6.73,43.13-13.89Q73.27,81,94.45,73.45A226.73,226.73,0,0,1,118,66.07c.63-.15.36-1.12-.27-1a203.84,203.84,0,0,0-20.88,6.45c-7,2.47-14,5-21.06,7.38Q54.45,86.28,33,93.23,20.78,97.18,8.53,101c-.61.2-.35,1.16.26,1Z" transform="translate(0 0)"/>
          <path class="cls-1" d="M117.24,65.62a50.15,50.15,0,0,0-7.12,9.53.5.5,0,0,0,.86.5,49.52,49.52,0,0,1,7-9.32c.45-.47-.26-1.17-.7-.71Z" transform="translate(0 0)"/>
          <path class="cls-1" d="M118.05,64.91q-6.17.41-12.34.52a.5.5,0,0,0,0,1q6.18-.12,12.34-.52c.64,0,.65-1,0-1Z" transform="translate(0 0)"/>
        </g>
      </g>
      <g>
        <path class="cls-2" d="M156.2,6.93a14.08,14.08,0,0,1-.54-2.58,7.65,7.65,0,0,1,0-2.48A1.67,1.67,0,0,1,157.08.5a1.4,1.4,0,0,1,1.46,1.19c.06.32.54.18.49-.13A1.92,1.92,0,0,0,157.48,0a2,2,0,0,0-2,1,4.58,4.58,0,0,0-.34,2.86,15.36,15.36,0,0,0,.6,3.22c.1.31.58.18.49-.13Z" transform="translate(0 0)"/>
        <path class="cls-2" d="M154.52,4.27a7.65,7.65,0,0,0,1.9-.22,4.37,4.37,0,0,1,1-.09,1.31,1.31,0,0,0,.81-.1c.26-.18,0-.62-.26-.43a.41.41,0,0,1-.31,0,3.05,3.05,0,0,0-.43,0,5.41,5.41,0,0,0-.89.11,7.57,7.57,0,0,1-1.77.2c-.32,0-.32.48,0,.5Z" transform="translate(0 0)"/>
      </g>
      <g>
        <g>
          <path class="cls-3" d="M60.48,20a8.51,8.51,0,0,1,5-3,9.75,9.75,0,0,1,3.61.25,19.91,19.91,0,0,1,5.58,1.63,7,7,0,0,0-5.34-.07,17.16,17.16,0,0,0-4.75,2.69c-1.46,1-3.66,2.59-6.49,4.48A10.06,10.06,0,0,1,60.48,20Z" transform="translate(0 0)"/>
          <path d="M60.65,20.2a8.15,8.15,0,0,1,5.31-3,14.47,14.47,0,0,1,3.92.48,17.42,17.42,0,0,1,4.63,1.44l.25-.43c-2.81-1.31-6-.25-8.43,1.31-2.86,1.82-5.57,3.89-8.4,5.78l.38.22a9.94,9.94,0,0,1,2.34-5.81c.21-.24-.14-.6-.35-.35A10.49,10.49,0,0,0,57.81,26a.25.25,0,0,0,.38.21c2.63-1.76,5.18-3.63,7.81-5.39,2.44-1.63,5.62-3,8.51-1.7.29.13.54-.29.25-.43A17.86,17.86,0,0,0,70,17.21a14.2,14.2,0,0,0-4.2-.48,8.66,8.66,0,0,0-5.51,3.12C60.09,20.09,60.44,20.45,60.65,20.2Z" transform="translate(0 0)"/>
        </g>
        <path d="M85.2,22.88a11.69,11.69,0,0,1,4.65-.68,10.65,10.65,0,0,1,3.8,1.14,21.32,21.32,0,0,0,8.29,2.13c.32,0,.32-.49,0-.5a21.19,21.19,0,0,1-4.81-.78,32,32,0,0,1-4-1.63,10.85,10.85,0,0,0-8.08-.16c-.31.1-.18.58.13.48Z" transform="translate(0 0)"/>
        <g>
          <path class="cls-3" d="M149,23.32c.1.05.21-.1.91-.51a6.11,6.11,0,0,1,.8-.38,6.76,6.76,0,0,1,1.94-.4,10.09,10.09,0,0,1,.16-2.31,9.85,9.85,0,0,1,3.36-5.56,8.11,8.11,0,0,0-4.7,2.16C148.76,18.94,148.54,23.12,149,23.32Z" transform="translate(0 0)"/>
          <path d="M148.89,23.56c.34.11.85-.39,1.1-.53a6.14,6.14,0,0,1,2.62-.75.25.25,0,0,0,.25-.25,9.49,9.49,0,0,1,3.45-7.7c.15-.13,0-.45-.18-.42a8.25,8.25,0,0,0-5.47,2.88,9.85,9.85,0,0,0-2.1,5.32c0,.38-.13,1.18.27,1.43a.25.25,0,0,0,.26-.43c.07,0,0,0,0-.12s0-.25,0-.38a7.08,7.08,0,0,1,.1-1.13,9.66,9.66,0,0,1,1.05-3.09,7.76,7.76,0,0,1,5.94-4L156,14A10,10,0,0,0,152.36,22l.25-.25a6.82,6.82,0,0,0-2.22.5,7.07,7.07,0,0,0-1,.54l-.31.2c-.1.06-.12,0,0,.06C148.72,23,148.59,23.46,148.89,23.56Z" transform="translate(0 0)"/>
        </g>
        <g>
          <path class="cls-3" d="M99.87,36.78c.19.28,1-.3,2.88-.18a9.26,9.26,0,0,1,2.88.67c-.35-1.23.67-2.39,1.63-3.24a57,57,0,0,1,8-5.86,12.11,12.11,0,0,0-1.71-.15C105.64,27.9,99.26,35.89,99.87,36.78Z" transform="translate(0 0)"/>
          <path d="M99.69,37c.35.38,1.34,0,1.75-.08a8.55,8.55,0,0,1,4.12.63c.19.07.35-.14.31-.31-.27-1.16.63-2.14,1.42-2.86s1.61-1.39,2.44-2.05a58.49,58.49,0,0,1,5.61-3.9c.17-.11.17-.43,0-.46A14,14,0,0,0,105.94,30a18.21,18.21,0,0,0-5.72,5.19c-.26.39-.87,1.21-.57,1.73a.26.26,0,0,0,.44-.26c-.14-.23.44-1,.59-1.26a14.73,14.73,0,0,1,2-2.3,17.82,17.82,0,0,1,7.17-4.31,12.08,12.08,0,0,1,5.28-.37l-.06-.46a60.28,60.28,0,0,0-6.25,4.42c-1.43,1.16-4,2.8-3.45,5l.31-.3a9.42,9.42,0,0,0-3.51-.69,8.31,8.31,0,0,0-1.41.13c-.11,0-.67.2-.73.13C99.83,36.36,99.48,36.72,99.69,37Z" transform="translate(0 0)"/>
        </g>
      </g>
      <g>
        <g>
          <path class="cls-4" d="M62.39,37.83c.08,1.89,2.17,3.12,4.06,3.14s3.67-.77,5.52-1.16a13.17,13.17,0,0,1,5.86.07,1.76,1.76,0,0,1,.92.44,1.83,1.83,0,0,1,.34,1,88.75,88.75,0,0,1,.5,12.94c-.11,3-.37,6-.38,9s.21,5.86.39,8.79c.59,9.5.71,19,.35,28.56-5.26-.37-10.34,4.21-15.36,2.58a4.27,4.27,0,0,1-2.65-2.15,6.19,6.19,0,0,1-.37-2.38q-.63-30.47.72-60.92" transform="translate(0 0)"/>
          <path class="cls-5" d="M62.14,37.83a3.86,3.86,0,0,0,3.23,3.26c2.26.51,4.5-.58,6.67-1A13,13,0,0,1,76,39.82a9.93,9.93,0,0,1,2,.34c.94.29.91,1.1,1,1.93.27,2.64.43,5.29.46,7.94.07,5.34-.57,10.67-.37,16s.65,10.84.79,16.27q.24,9.2-.1,18.39l.25-.25c-4.47-.26-8.28,2.72-12.66,2.93-2.44.11-5.16-.9-5.42-3.64-.13-1.35-.08-2.74-.11-4.1L61.7,91.3q-.23-17.1.18-34.2.24-9.63.66-19.26c0-.32-.48-.32-.5,0q-.78,17.7-.9,35.43-.06,8.88,0,17.78c0,1.45,0,2.9.07,4.35s0,2.84.1,4.24a4.06,4.06,0,0,0,1.28,2.84,5.73,5.73,0,0,0,2.78,1.28c5.06.94,9.49-3.1,14.53-2.8a.26.26,0,0,0,.25-.25q.3-8.19.15-16.4c-.11-5.4-.45-10.79-.75-16.19a77.39,77.39,0,0,1,0-8.06c.12-2.65.31-5.3.34-8s-.07-5.39-.29-8.07q-.07-1-.18-1.95a5.4,5.4,0,0,0-.25-1.55c-.39-.91-1.58-1-2.43-1.13a13.84,13.84,0,0,0-3.91,0c-1.44.21-2.81.71-4.22,1a6.34,6.34,0,0,1-3.76,0,3.16,3.16,0,0,1-2.21-2.58c0-.32-.53-.32-.5,0Z" transform="translate(0 0)"/>
        </g>
        <g>
          <path class="cls-6" d="M79.6,40.92A6.61,6.61,0,0,0,86,43.39a13.71,13.71,0,0,0,6.44-3.17c2.24-1.8,4.32-4.13,4.63-7a29.72,29.72,0,0,1,.24,6.93q-1.12,27.46-.2,55a16.78,16.78,0,0,1-.21,4.25,8.57,8.57,0,0,1-11.1,5.77,15.79,15.79,0,0,1-5-3.84,3.8,3.8,0,0,1-.87-1.13,4.23,4.23,0,0,1-.25-1.7l-.13-56.87" transform="translate(0 0)"/>
          <path class="cls-5" d="M79.38,41.05c1.69,2.41,4.88,3.09,7.63,2.4a13.48,13.48,0,0,0,4.59-2.26,19,19,0,0,0,3.6-3.27,9.08,9.08,0,0,0,2.15-4.68l-.49.06a33,33,0,0,1,.21,7.37q-.15,3.72-.26,7.46-.23,7.45-.3,14.92-.15,15,.32,30c.07,2.28.41,4.79-.34,7a7.85,7.85,0,0,1-3.09,3.91,8.65,8.65,0,0,1-4.69,1.51,8.33,8.33,0,0,1-5.3-2.05,25.44,25.44,0,0,1-2.4-2.24,3.25,3.25,0,0,1-1-1.43,8.2,8.2,0,0,1-.1-2V90.25l0-15-.07-29.93V41.61a.25.25,0,0,0-.5,0l.08,31.3,0,15.59,0,7.86a14.46,14.46,0,0,0,.12,3.48,5.4,5.4,0,0,0,1.75,2.33,12.7,12.7,0,0,0,5,3.43,8.14,8.14,0,0,0,4.69,0,8.63,8.63,0,0,0,6.25-6.89,46.19,46.19,0,0,0,0-7.53q-.1-3.91-.18-7.83Q97,75.55,97,67.77T97.2,52.1q.09-3.84.23-7.7c.09-2.57.28-5.14.24-7.71a20.77,20.77,0,0,0-.33-3.52c-.06-.3-.46-.19-.49.07-.46,3.77-4,6.76-7.08,8.54a9.61,9.61,0,0,1-5.34,1.42,6.08,6.08,0,0,1-4.62-2.4c-.18-.27-.62,0-.43.25Z" transform="translate(0 0)"/>
        </g>
      </g>
      <g class="cls-7">
        <path class="cls-2" d="M91.71,16.58l7.33-4a37,37,0,0,1,8.64-3.77,14.25,14.25,0,0,1,9.17.92c1.43.69,1.38,1,3.69,2.56a36.3,36.3,0,0,0,7.38,3.79c4.43,1.53,8.5.78,11.91.11,9.9-1.94,11.33-6,17.83-6.94,3.53-.49,9-.1,16.42,5l-10,9c-2.95,2.66-6,5.36-9.58,7s-8,2.05-11.47.12c-1.72-1-3.21-2.48-5.15-2.82a8,8,0,0,0-3.9.52,31.52,31.52,0,0,0-17.57,14.57h0c-8.29,4.42-18.1,4.64-27.49,4.5-10.66-.16-21.83-.79-31-6.28-7.62-4.59-13.66-12.45-22.42-14s-17,3.61-24.33,8.55l-.46.46a31.49,31.49,0,0,0,25.91-1.5c6.39-3.4,11.37-8.88,16.86-13.61S65.7,11.84,72.94,12c8.07.19,14.57,2.37,18,4.36" transform="translate(0 0)"/>
        <path d="M91.84,16.8C95.23,15,98.6,13,102.05,11.31a20,20,0,0,1,8.87-2.58,13.39,13.39,0,0,1,5,.9,11,11,0,0,1,2.79,1.7A34.4,34.4,0,0,0,126.88,16a19,19,0,0,0,9.76,1,38.17,38.17,0,0,0,9-2.2c3.94-1.56,7.31-4.47,11.56-5.22,6-1.06,11.92,1.55,16.81,4.87l-.05-.4c-3.92,3.54-7.8,7.11-11.76,10.59-3.63,3.19-7.76,6.25-12.73,6.66a10.85,10.85,0,0,1-6.66-1.46c-1.78-1.09-3.39-2.61-5.59-2.66s-4.29.91-6.19,1.76a31,31,0,0,0-5.53,3.19,31.86,31.86,0,0,0-9.2,10.33.25.25,0,0,0,.15.37h0l-.06-.46C109.19,46.2,101,46.88,93,46.91c-7.79,0-15.77-.07-23.39-1.81a39.53,39.53,0,0,1-10.73-4,62.56,62.56,0,0,1-8.44-6.12c-5.16-4.18-10.68-8.48-17.62-8.63a26.41,26.41,0,0,0-12,3A62.92,62.92,0,0,0,15,32.63a25.67,25.67,0,0,0-4.38,3,.25.25,0,0,0,.11.42,31.87,31.87,0,0,0,17.05,1.6,34.44,34.44,0,0,0,15.43-7.41c9.08-7.28,17.47-18.46,30.34-18,5.84.21,12.11,1.36,17.24,4.3a.25.25,0,0,0,.25-.43,36.31,36.31,0,0,0-13.88-4.1,26.93,26.93,0,0,0-9.09.21,27.57,27.57,0,0,0-7.88,3.3c-5.12,3.06-9.33,7.31-13.74,11.27C41.89,31,37,34.65,31,36.41a31.46,31.46,0,0,1-20.1-.81L11,36a23.65,23.65,0,0,1,4-2.8c1.68-1.07,3.39-2.08,5.16-3a27.79,27.79,0,0,1,11.38-3.41C39,26.5,44.81,31,50.28,35.45a63.68,63.68,0,0,0,8.11,5.91,39.42,39.42,0,0,0,10.28,4c7.37,1.81,15.06,2,22.61,2,8.62.05,17.56-.46,25.33-4.56a.25.25,0,0,0-.06-.46h0l.15.36a31.44,31.44,0,0,1,8.41-9.7,31.78,31.78,0,0,1,5.35-3.27c2-1,4.57-2.19,6.88-2.06s4.07,2.11,6.1,3.1a11.65,11.65,0,0,0,6.13,1c4.47-.41,8.3-2.87,11.66-5.68,4.47-3.74,8.72-7.79,13-11.7a.26.26,0,0,0,0-.4c-4.45-3-9.69-5.45-15.19-5.14a15.83,15.83,0,0,0-5.81,1.44c-1.87.86-3.58,2-5.42,3a32.63,32.63,0,0,1-8.74,2.83c-3.53.68-7.12,1-10.61-.1a31.22,31.22,0,0,1-9-4.81,16.73,16.73,0,0,0-2.26-1.59,13.16,13.16,0,0,0-4.59-1.32,17.65,17.65,0,0,0-9.29,1.87c-4,1.82-7.81,4.09-11.67,6.18-.29.16,0,.59.25.44Z" transform="translate(0 0)"/>
      </g>
      <path class="cls-5" d="M81.38,27.21c-2.81-.47-5.86-.25-8.15,1.58C72,29.81,70.8,31,69.52,32a42.86,42.86,0,0,1-4.26,2.93c-1.29.79-3.42,1.7-3.22,3.54.18,1.59,1.68,2.81,3.08,3.35a4.11,4.11,0,0,0,3.12,0c1.15-.45,2.23-1,3.41-1.41a9.91,9.91,0,0,1,4.79-.5c1.67.35,3,1.55,4.44,2.41A10.46,10.46,0,0,0,85.61,44c2.9.13,5.52-1.8,7.48-3.74a34,34,0,0,0,2.56-2.81A6.82,6.82,0,0,0,97.56,33c-.2-3-3.56-5.35-6.46-5.14-1.33.1-2.38,1-3.71,1.07a7.68,7.68,0,0,1-3.65-1,11.41,11.41,0,0,0-2.36-.69c-.63-.11-.9.86-.27,1a18.35,18.35,0,0,1,3.75,1.32,5.81,5.81,0,0,0,3.77.19c1.13-.34,2-1,3.23-.86a5.93,5.93,0,0,1,3.84,2.08c2.27,2.82-.58,5.77-2.48,7.81-1.62,1.75-3.54,3.5-5.91,4.13-3.21.84-5.9-1.53-8.46-3.08s-5.65-1.1-8.32-.08c-1,.38-1.91.92-2.91,1.24a3.45,3.45,0,0,1-3.08-.53c-.77-.52-2-1.72-1.37-2.74a4.29,4.29,0,0,1,1.59-1.26c1.27-.79,2.55-1.55,3.77-2.42a49,49,0,0,0,4.32-3.54,8.37,8.37,0,0,1,3.16-2,11.28,11.28,0,0,1,5.1-.23C81.74,28.28,82,27.32,81.38,27.21Z" transform="translate(0 0)"/>
      <g>
        <path class="cls-8" d="M81.24,27.7a12.14,12.14,0,0,0-5.21.18c-2.29.65-2.86,1.78-5.77,4.15-5,4.08-7.76,4.34-7.73,6.2,0,1.44,1.71,2.92,3.37,3.3,2.3.53,3.48-1.57,8-2.17a7.19,7.19,0,0,1,2.54,0c1.64.31,2.49,1.13,4,2.06a13.85,13.85,0,0,0,4.46,2c4.09.72,7.86-3.52,8.92-4.67,1.71-1.85,3.77-4.09,3.09-6.59-.6-2.18-3.08-3.74-5.23-3.88s-2.29,1.06-4.63,1.09S84.32,28.22,81.24,27.7Z" transform="translate(0 0)"/>
        <path class="cls-5" d="M81.38,27.21c-2.81-.47-5.86-.25-8.15,1.58C72,29.81,70.8,31,69.52,32a42.86,42.86,0,0,1-4.26,2.93c-1.29.79-3.42,1.7-3.22,3.54.18,1.59,1.68,2.81,3.08,3.35a4.11,4.11,0,0,0,3.12,0c1.15-.45,2.23-1,3.41-1.41a9.91,9.91,0,0,1,4.79-.5c1.67.35,3,1.55,4.44,2.41A10.46,10.46,0,0,0,85.61,44c2.9.13,5.52-1.8,7.48-3.74a34,34,0,0,0,2.56-2.81A6.82,6.82,0,0,0,97.56,33c-.2-3-3.56-5.35-6.46-5.14-1.33.1-2.38,1-3.71,1.07a7.68,7.68,0,0,1-3.65-1,11.41,11.41,0,0,0-2.36-.69c-.63-.11-.9.86-.27,1a18.35,18.35,0,0,1,3.75,1.32,5.81,5.81,0,0,0,3.77.19c1.13-.34,2-1,3.23-.86a5.93,5.93,0,0,1,3.84,2.08c2.27,2.82-.58,5.77-2.48,7.81-1.62,1.75-3.54,3.5-5.91,4.13-3.21.84-5.9-1.53-8.46-3.08s-5.65-1.1-8.32-.08c-1,.38-1.91.92-2.91,1.24a3.45,3.45,0,0,1-3.08-.53c-.77-.52-2-1.72-1.37-2.74a4.29,4.29,0,0,1,1.59-1.26c1.27-.79,2.55-1.55,3.77-2.42a49,49,0,0,0,4.32-3.54,8.37,8.37,0,0,1,3.16-2,11.28,11.28,0,0,1,5.1-.23C81.74,28.28,82,27.32,81.38,27.21Z" transform="translate(0 0)"/>
      </g>
      <g>
        <g>
          <path class="cls-5" d="M91.45,79.92A103.48,103.48,0,0,0,84.78,89a.5.5,0,0,0,.3.73,45.45,45.45,0,0,1,8.08,2.88c.58.28,1.08-.59.5-.86a45.49,45.49,0,0,0-8.31-3l.3.73a98.31,98.31,0,0,1,6.51-8.86c.4-.49-.3-1.2-.71-.7Z" transform="translate(0 0)"/>
          <path class="cls-5" d="M86.67,89.21a52.18,52.18,0,0,1,24.74-8.42c2.73-.19,5.46-.18,8.17-.56.64-.08.37-1-.26-1-2.51.34-5,.33-7.56.5a52.77,52.77,0,0,0-19,4.9,52.37,52.37,0,0,0-6.58,3.68c-.53.35,0,1.21.51.86Z" transform="translate(0 0)"/>
        </g>
        <g>
          <path class="cls-5" d="M125.25,87.44a25.1,25.1,0,0,1-.59-10.8c.28-1.52.92-3.14,2.46-3.76,1.72-.7,2.84.58,3.53,2,.29.57,1.15.07.87-.51-.76-1.54-2-2.93-3.87-2.67A4.67,4.67,0,0,0,124.06,75a17.57,17.57,0,0,0-.7,6.13,28.14,28.14,0,0,0,.92,6.58.5.5,0,0,0,1-.26Z" transform="translate(0 0)"/>
          <path class="cls-5" d="M122.53,81.64a9,9,0,0,1,7.33-.79c.61.2.88-.76.27-1a10,10,0,0,0-8.1.89.5.5,0,0,0,.5.86Z" transform="translate(0 0)"/>
          <path class="cls-5" d="M135.07,81.59v0l0,.13a1.21,1.21,0,0,1,0-.18l0,.12.1-.17-.08.1a1.14,1.14,0,0,1,.16-.15l-.1.08a.71.71,0,0,1,.22-.13l-.12,0,.23-.07-.13,0a1,1,0,0,1,.24,0l-.13,0,.17.05-.12-.05a.51.51,0,0,1,.16.09l-.1-.08a.49.49,0,0,1,.12.13l-.07-.1a1.29,1.29,0,0,1,.09.16l-.05-.11a.88.88,0,0,1,.07.23l0-.13a1,1,0,0,1,0,.25l0-.13a2.17,2.17,0,0,1-.07.24l.05-.12a1.14,1.14,0,0,1-.1.19l.07-.11a.58.58,0,0,1-.13.14l.1-.08-.11.07.39,0h0l.12,0a.51.51,0,0,1-.16-.09l.1.07a.93.93,0,0,1-.14-.14l.07.1-.12-.21.05.12a1.76,1.76,0,0,1-.07-.27l0,.14a1.31,1.31,0,0,1,0-.28l0,.13a1.55,1.55,0,0,1,.07-.23l-.05.12a.64.64,0,0,1,.1-.18l-.08.1a.8.8,0,0,1,.13-.13l-.1.08,0,0-.68-.18.11.23-.05-.12a1.09,1.09,0,0,1,.08.31v-.13a1.48,1.48,0,0,1,0,.21l0-.13,0,.14,0-.12-.07.12.07-.1-.09.1.1-.08-.14.08.12,0-.13,0,.13,0h-.09l.13,0-.09,0,.12.05-.07,0,.25.43v0l0,.14s0,0,0-.06l-.05.12s0,0,0,0l-.08.1.05,0-.11.08.07,0-.12,0,.07,0-.13,0h.09l-.13,0,0,0-.12,0,.05,0-.1-.08a.08.08,0,0,1,0,0l-.08-.1,0,0-.05-.39,0,0,.06-.12,0,0,.08-.1,0,0,.1-.07-.06,0,.12-.05-.09,0,.13,0h.06l-.08,0,.12.05-.07,0,.1.07,0,0,.08.1a.05.05,0,0,1,0-.05.52.52,0,0,0-.3-.23.53.53,0,0,0-.39,0,.5.5,0,0,0-.23.3.56.56,0,0,0,.05.38.65.65,0,0,0,.31.3.86.86,0,0,0,.55.08.66.66,0,0,0,.52-.91.73.73,0,0,0-.82-.35.82.82,0,0,0-.37.19.79.79,0,0,0-.22.5.5.5,0,0,0,.25.43.85.85,0,0,0,.73.09,1.08,1.08,0,0,0,.59-.46A1.44,1.44,0,0,0,136,80.6a.5.5,0,0,0-.68-.18,1.36,1.36,0,0,0-.52.7,1.5,1.5,0,0,0,0,.76,1.4,1.4,0,0,0,.34.69,1.09,1.09,0,0,0,.29.23,1.07,1.07,0,0,0,.22.1.53.53,0,0,0,.47-.1,1.39,1.39,0,0,0,.54-1.49,1.24,1.24,0,0,0-1.25-1,1.56,1.56,0,0,0-.89.36,1.16,1.16,0,0,0-.28.34,1.26,1.26,0,0,0-.16.53.46.46,0,0,0,.14.35.53.53,0,0,0,.36.15.51.51,0,0,0,.35-.15.56.56,0,0,0,.15-.35Z" transform="translate(0 0)"/>
          <path class="cls-5" d="M143.76,72.94q0,5.91-.52,11.8l.93-.25c-.81-1.32-1.95-2.8-3.68-2.67a2.63,2.63,0,0,0-2.27,2.36c-.44,3,3.49,4.84,5.93,3.71.58-.27.08-1.13-.51-.86-1.66.77-4.62-.52-4.46-2.56a1.66,1.66,0,0,1,1.51-1.66c1.25,0,2,1.24,2.62,2.18a.5.5,0,0,0,.93-.25q.49-5.89.52-11.8a.5.5,0,0,0-1,0Z" transform="translate(0 0)"/>
          <path class="cls-5" d="M146.79,86.6c.38-1.86.84-3.69,1.4-5.5.28-.9.59-1.8.91-2.69.12-.32.69-2.31,1.18-2,.27.18.35.8.42,1.08s.21.85.31,1.28c.21.94.38,1.87.53,2.82a41.71,41.71,0,0,1,.44,5.8.5.5,0,0,0,1,0,43.24,43.24,0,0,0-.58-6.72c-.2-1.16-.44-2.31-.74-3.45-.18-.71-.42-1.66-1.25-1.85s-1.38.54-1.67,1.22c-.43,1-.79,2.05-1.14,3.09a57.06,57.06,0,0,0-1.78,6.64c-.12.63.84.9,1,.27Z" transform="translate(0 0)"/>
          <path class="cls-5" d="M147.62,82.7a24.13,24.13,0,0,1,4.88-.16.5.5,0,0,0,.5-.5.51.51,0,0,0-.5-.5,24.13,24.13,0,0,0-4.88.16.5.5,0,0,0,0,1Z" transform="translate(0 0)"/>
        </g>
      </g>
    </g>
  </g>
</svg>
