<?xml version="1.0" encoding="UTF-8"?>
<svg id="Layer_2" data-name="Layer 2" xmlns="http://www.w3.org/2000/svg" viewBox="0 0 139.71 161.14">
  <defs>
    <style>
      .cls-1 {
        fill: #00a651;
      }

      .cls-2 {
        fill: #231f20;
      }

      .cls-3 {
        fill: #ed1c24;
      }

      .cls-4 {
        fill: #00aeef;
      }

      .cls-5 {
        fill: #999;
      }
    </style>
  </defs>
  <g id="Layer_1-2" data-name="Layer 1">
    <g>
      <path class="cls-4" d="M61.38,29.34c-10.28.73-18.45,1.31-26.94,6.46-12.11,7.35-17.08,19.27-20.43,27.29-1.81,4.34-4.52,11.02-5.03,20.23-.66,12,2.84,20.99,4.87,26.05,2.12,5.28,7.9,19.64,22.88,29.79,6.18,4.19,12.98,7.62,20.3,9.05,9.05,1.76,16.12.84,21.39.01,6.28-.98,19.11-3.16,31.14-13.06,2.33-1.92,7.25-6.04,11.56-12.95,13.73-22.04,5.2-46.76,3.94-50.24-2.66-7.32-6.07-12.23-8.72-15.98-4.83-6.84-13.73-19.45-29.7-24.79-8.98-3-16.49-2.47-25.26-1.84Z"/>
      <path class="cls-5" d="M61.38,28.84c-7.14.51-14.45.96-21.19,3.57s-12.18,6.82-16.56,12.22c-3.68,4.53-6.4,9.69-8.71,15.03s-4.31,10.29-5.42,15.77c-1.51,7.41-1.43,15.1.17,22.5,1,4.62,2.64,9.06,4.46,13.42s3.88,8.32,6.44,12.14c3.7,5.51,8.26,10.41,13.55,14.41,6.15,4.64,13.24,8.48,20.75,10.34,6.98,1.73,14.21,1.79,21.3.82,4.98-.69,9.93-1.62,14.72-3.18,6.96-2.27,13.45-5.77,19.1-10.43,4.78-3.93,8.93-8.54,12.1-13.88,3.76-6.32,6.02-13.41,6.86-20.7.68-5.91.43-11.91-.53-17.78-.59-3.57-1.44-7.11-2.62-10.54-1.95-5.66-4.85-10.86-8.27-15.75-2.69-3.85-5.45-7.66-8.62-11.15-4.14-4.56-8.92-8.56-14.33-11.53-6.69-3.67-14.11-5.59-21.73-5.75-3.83-.08-7.66.2-11.47.47-.64.05-.64,1.05,0,1,3.82-.27,7.64-.55,11.47-.47s7.87.6,11.67,1.68c6.52,1.85,12.55,5.19,17.73,9.55,4.09,3.44,7.65,7.45,10.84,11.72s6.14,8.42,8.53,13.03c1.91,3.67,3.38,7.54,4.44,11.54,1.25,4.7,2,9.54,2.21,14.41.28,6.57-.45,13.2-2.44,19.48-2.26,7.16-6.17,13.74-11.35,19.17-4.28,4.49-9.34,8.3-14.83,11.18s-11.14,4.7-17.07,5.87c-5.23,1.03-10.58,1.79-15.92,1.72-3.95-.05-7.92-.52-11.75-1.49s-7.28-2.38-10.68-4.14c-6.48-3.36-12.43-7.72-17.36-13.12-3.76-4.13-6.91-8.81-9.45-13.79-1.69-3.32-3.12-6.78-4.39-10.27-2.2-6.02-3.53-12.32-3.64-18.75-.11-7.03,1.22-13.94,3.71-20.51,1.78-4.7,3.78-9.4,6.22-13.8,3.07-5.54,7.05-10.61,12.15-14.43,2.85-2.14,6-3.9,9.34-5.16s6.55-1.94,9.93-2.41,7.08-.73,10.62-.98c.64-.05.64-1.05,0-1Z"/>
    </g>
    <path class="cls-3" d="M64.25,91.85c4.18-.56,8.39-.95,12.6-1.17s8.39-.1,12.59-.23,8.17-1.29,12.23-2.35,8.1-1.97,12.2-2.75c4.6-.88,9.24-1.58,13.9-2.11.54-.06,1-.42,1-1,0-.49-.46-1.06-1-1-8.3.94-16.53,2.41-24.63,4.43-4,1-7.99,2.4-12.12,2.71-2.05.15-4.12.1-6.18.11s-4.26.05-6.39.13c-4.75.2-9.48.62-14.19,1.24-.54.07-1,.41-1,1,0,.48.46,1.07,1,1h0Z"/>
    <path class="cls-3" d="M64.91,90.54c6.93-4.09,13.8-8.29,20.59-12.6s13.5-8.74,20.14-13.28c3.76-2.57,7.5-5.18,11.21-7.83.44-.31.65-.87.36-1.37-.25-.43-.93-.67-1.37-.36-6.55,4.66-13.17,9.22-19.87,13.65-6.7,4.44-13.48,8.77-20.33,12.99-3.89,2.39-7.8,4.75-11.73,7.06-1.11.65-.1,2.38,1.01,1.73h0Z"/>
    <path class="cls-3" d="M64.31,91.06c1.61-3.66,4.2-6.69,6.85-9.64,2.81-3.13,5.6-6.27,8.3-9.5,5.39-6.43,10.5-13.11,15.23-20.05,2.68-3.93,5.23-7.95,7.65-12.05.65-1.11-1.07-2.12-1.73-1.01-4.27,7.25-8.98,14.24-14.04,20.97-5.03,6.7-10.42,13.12-16.03,19.33-3.02,3.35-6.13,6.76-7.97,10.93-.22.49-.14,1.07.36,1.37.42.25,1.15.14,1.37-.36h0Z"/>
    <path class="cls-3" d="M64.31,91.06c3.49-7.67,6.76-15.44,9.8-23.29s5.64-15.86,8.76-23.68c1.75-4.39,3.59-8.75,5.31-13.16.2-.5-.22-1.1-.7-1.23-.57-.16-1.03.19-1.23.7-3.02,7.74-6.32,15.37-9.06,23.22s-5.75,15.75-8.97,23.49c-1.81,4.35-3.69,8.66-5.63,12.94-.22.49-.14,1.08.36,1.37.43.25,1.14.14,1.37-.36h0Z"/>
    <path class="cls-3" d="M64.18,89.65c-1.82-15.75-3.63-31.55-7.18-47.03-.99-4.34-2.13-8.65-3.36-12.94-.35-1.24-2.28-.71-1.93.53,2.16,7.55,3.98,15.18,5.41,22.91s2.52,15.48,3.48,23.26c.55,4.42,1.06,8.84,1.57,13.26.06.54.42,1,1,1,.49,0,1.06-.46,1-1h0Z"/>
    <path class="cls-3" d="M64.15,89.85c-3.84-3.17-7.7-6.37-11.93-9.01-2.84-1.78-5.84-3.24-8.82-4.76-4.99-2.54-9.69-5.64-14.28-8.84-4.26-2.98-8.42-6.1-12.52-9.29-.43-.33-1-.41-1.41,0-.35.35-.43,1.08,0,1.41,6.48,5.05,13.09,9.98,20.06,14.35,2.07,1.3,4.18,2.54,6.34,3.68,2.51,1.32,5.06,2.53,7.53,3.93,4.91,2.79,9.28,6.36,13.63,9.94.99.81,2.41-.59,1.41-1.41h0Z"/>
    <path class="cls-2" d="M18.65,87.91c1.76-.22,3.78-1.18,4.16-3.1.3-1.54-.7-4.03-2.63-3.55-1.04.26-1.67,1.18-2,2.13-.39,1.11-.59,2.33-.73,3.5-.18,1.47-.25,3.18.53,4.51.86,1.46,2.63,1.94,4.22,1.93.64,0,.64-1,0-1-1.08,0-2.3-.2-3.07-1.04-.64-.7-.78-1.74-.79-2.65-.03-1.62.27-3.37.78-4.9.23-.68.93-1.88,1.84-1.48.57.25.84,1.09.9,1.65.2,1.79-1.67,2.81-3.2,3-.63.08-.64,1.08,0,1h0Z"/>
    <path class="cls-2" d="M24.37,84.79c2.18-1.07,4.55-1.76,6.97-2.02.63-.07.64-1.07,0-1-2.61.27-5.13.99-7.48,2.15-.58.28-.07,1.15.5.86h0Z"/>
    <path class="cls-2" d="M28.08,78.55c-1.67,4.8-2.49,9.87-2.43,14.95,0,.64,1.01.64,1,0-.05-5,.76-9.96,2.4-14.68.21-.61-.75-.87-.96-.27h0Z"/>
    <path class="cls-2" d="M36.58,84.66c-.81-.86-2.07-.92-3.13-.52-1.17.44-2.09,1.37-2.65,2.48-1.14,2.26-.67,5.06,1.56,6.44,1.22.76,2.62.84,3.93.27.59-.26.08-1.12-.5-.86-1.12.49-2.39.22-3.31-.55s-1.38-1.93-1.28-3.14.74-2.44,1.69-3.19c.81-.63,2.19-1.07,3-.22.44.47,1.15-.24.71-.71h0Z"/>
    <path class="cls-2" d="M37.79,92.3s0,.01-.01.02l.08-.1s-.02.02-.03.03l.1-.08s-.03.02-.04.03l.12-.05s-.04.01-.05.01l.13-.02s-.05,0-.08,0l.13.02s-.05-.01-.08-.02l.12.05s-.04-.02-.06-.03l.1.08s-.03-.03-.04-.04l.08.1s-.02-.03-.03-.04l.05.12s-.01-.03-.01-.05l.02.13s0-.03,0-.05l-.02.13s0-.03.01-.05l-.05.12s.02-.03.03-.05l-.08.1s.03-.03.05-.05l-.1.08s.04-.03.07-.04l-.12.05s.05-.02.08-.02l-.13.02s.05,0,.07,0l-.13-.02s.04,0,.06.02l-.12-.05s.03.02.04.03l-.1-.08s.01.01.02.02c.05.05.1.08.16.1.06.03.12.05.19.04.07,0,.13-.01.19-.04.06-.02.12-.05.16-.1l.08-.1c.05-.08.07-.16.07-.25l-.02-.13c-.02-.08-.07-.16-.13-.22-.02-.02-.05-.04-.07-.06s-.05-.04-.08-.06c-.04-.02-.09-.04-.14-.06,0,0-.02,0-.03-.01-.05-.01-.11-.02-.16-.02-.01,0-.02,0-.03,0-.01,0-.02,0-.03,0-.05,0-.11.01-.16.02-.04,0-.08.03-.12.04s-.08.03-.11.05c-.04.03-.08.06-.12.09,0,0-.02.01-.02.02-.02.02-.04.05-.06.07s-.04.05-.06.08c-.03.04-.04.09-.06.14,0,0,0,.02,0,.03-.01.05-.02.1-.02.16,0,.01,0,.02,0,.03,0,.03,0,.06.01.08s0,.05.01.08c0,.01,0,.02,0,.03.01.04.04.09.05.13,0,0,0,0,0,.01,0,0,0,.02.01.02.03.04.06.08.09.12,0,0,.01.01.02.02.04.03.08.06.12.09,0,0,.02.01.03.02.03.01.06.02.08.04.03.01.06.03.09.04,0,0,.02,0,.03,0,.05.01.11.02.16.02.02,0,.04,0,.07,0,.05,0,.11-.01.16-.02.01,0,.02,0,.03,0,.04-.01.1-.04.14-.06,0,0,0,0,.01,0,.04-.03.08-.06.11-.08.05-.04.09-.1.12-.15.04-.06.06-.12.06-.19.01-.07.01-.13,0-.2-.02-.07-.05-.12-.09-.17-.04-.05-.08-.1-.14-.13l-.12-.05c-.09-.02-.18-.02-.27,0l-.12.05c-.08.04-.13.1-.18.18h0Z"/>
    <path class="cls-2" d="M65.48,92.3c-.09,1.6.01,3.43,1.06,4.73,1.29,1.61,3.38,1.41,5.2,1.09,4.9-.87,9.79-1.77,14.69-2.65l-.62-.35c.59,2.61,1.75,5.01,3.38,7.13.2.26.64.15.79-.1,1.24-2.25,1.91-4.74,1.94-7.31l-.5.5c5.8.13,11.64.25,17.4-.6,2.93-.43,5.72-1.22,8.53-2.14,1.39-.46,2.73-.74,4.2-.67,1.16.06,2.37.21,3.48-.23,2.45-.97,2.47-3.9,1.97-6.08-.14-.63-1.11-.36-.96.27.45,1.96.44,4.69-2.07,5.07-1.16.17-2.34-.09-3.5-.04-1.31.06-2.57.45-3.81.87-5.19,1.76-10.51,2.48-15.98,2.62-3.08.08-6.17.01-9.25-.06-.27,0-.5.23-.5.5-.03,2.39-.65,4.71-1.8,6.8l.79-.1c-1.53-1.97-2.58-4.26-3.13-6.68-.06-.28-.36-.4-.62-.35-4.32.78-8.65,1.56-12.97,2.34-1.68.3-4.17,1.16-5.62-.17-1.16-1.06-1.17-2.93-1.09-4.37.04-.64-.96-.64-1,0h0Z"/>
    <path class="cls-2" d="M86.25,105.37c.03,3.49.59,6.96,1.68,10.28.17.52.99.45.98-.13-.03-2.58-.82-5.45.39-7.89.48-.96,1.25-1.73,2.32-1.98.96-.22,1.96.01,2.58.8.4.51,1.1-.21.71-.71-.73-.93-1.95-1.28-3.1-1.14-1.24.15-2.27.84-2.98,1.86-1.87,2.66-.95,6.06-.91,9.04l.98-.13c-1.07-3.24-1.62-6.6-1.65-10.01,0-.64-1-.64-1,0h0Z"/>
    <g>
      <path class="cls-1" d="M133.34,80.59s-.71-.04-.64.04v-.37s-.08.07-.13.09c-.24.01-.56.17-.81.21l.97.26c-.72-.67.06-1.82.86-1.16v-1.41c-.54.43-1.04.9-1.51,1.41l1.67.44c-.08-.27.23-.19.28-.18l-.7-1.23s.2-.17.19-.15c-.04.09-.15-.09-.11-.03-.26-.35-.1-1.03-.08-1.42.03-.47,0-.93-.05-1.4-.17-1.49-.51-2.95-.91-4.4-1.05-3.79-2.47-7.5-4.11-11.08-1.48-3.25-3.23-6.37-5.32-9.26-2.32-3.22-4.95-6.21-7.54-9.21-1.55-1.8-3.09-3.61-4.67-5.38-1.25-1.4-2.52-2.83-3.99-4.02-3.37-2.72-7.18-4.98-11.07-6.86-7.92-3.82-16.55-6.03-25.3-6.67-3.29-.24-6.59-.21-9.89-.17-3.05.04-6.1.16-9.13.48-7.55.78-15.01,2.7-21.67,6.42-7.34,4.1-13.24,10.23-17.57,17.4-1.86,3.09-3.54,6.3-4.92,9.63-1.62,3.91-2.78,7.99-3.62,12.14s-1.42,8.64-1.95,12.99-1.09,8.61-1.41,12.93c-.57,7.69.26,15.3,2.51,22.69,2.07,6.79,5.23,13.25,9.29,19.08s9.23,11.21,15.02,15.58c3.17,2.39,6.54,4.56,10.15,6.23,5.67,2.62,11.69,4.53,17.82,5.69,4.39.83,8.86,1.28,13.33,1.25,4.37-.04,8.63-.82,12.86-1.83,3.27-.78,6.55-1.54,9.77-2.55,3.89-1.22,7.69-2.73,11.33-4.58,5.21-2.66,10.07-6.05,14.32-10.08,6.35-6.02,11.13-13.44,14.25-21.6,2.31-6.05,3.88-12.6,4.04-19.1.02-.87.02-1.74-.07-2.61-.06-.6-.12-1.27-.41-1.81-.45-.82-1.41-.87-2.06-.24-.7.67-1.13,1.7-1.55,2.55-.8,1.65-1.59,3.35-2.21,5.07-.39,1.09,1.25,1.71,1.83.77.45-.74.73-1.64,1.09-2.43.29-.64.58-1.28.86-1.91.32-.71.63-1.42,1-2.11.07-.13.26-.44.26-.44.04-.09.03,0-.11.03-.07,0-.28-.03-.42-.06-.12-.02-.03,0-.03-.04.02.2.29.51.38.71.34.7.67,1.39,1.09,2.04.96,1.49,2.23,2.72,3.71,3.69,1.08.7,2.09-1.03,1.01-1.73-1.62-1.05-2.83-2.5-3.69-4.21-.51-1-1.1-2.73-2.57-2.32-1.09.3-1.57,1.77-1.99,2.67-.37.8-.73,1.6-1.09,2.4-.4.88-.71,1.89-1.22,2.71l1.83.77c.6-1.67,1.34-3.26,2.16-4.89.23-.47.48-.94.76-1.38.05-.08.35-.52.21-.32.2-.28.13-.09-.09-.04-.46.1-.76-.13-.9-.34.15.21-.02-.17,0,0,.04.22.11.44.15.67.04.2,0-.08,0,0,0,.08.02.17.03.25.02.19.03.37.04.56.03.43.03.86.03,1.29,0,1.12-.07,2.24-.17,3.35-.28,3.04-.84,6.06-1.61,9.02-2.07,8.05-5.7,15.76-10.95,22.23-4.35,5.36-9.68,9.87-15.62,13.36-5.8,3.41-12.12,5.77-18.62,7.45-3.15.81-6.33,1.6-9.52,2.21-4.45.85-8.95.99-13.47.64-7.28-.56-14.49-2.33-21.28-5-3.1-1.22-6.05-2.67-8.88-4.44-6.36-3.98-12.01-9.08-16.68-14.95-3.58-4.5-6.64-9.65-8.96-14.98-3.08-7.09-4.98-14.85-5.14-22.59-.07-3.57.22-7.14.6-10.69.48-4.47,1.01-8.95,1.63-13.41,1.14-8.31,2.96-16.46,6.83-23.97,3.42-6.64,7.67-12.79,13.51-17.54s13.41-7.94,21.03-9.42c5.93-1.16,11.96-1.33,17.99-1.34,8.25-.02,16.35,1.05,24.17,3.75,4.07,1.4,7.99,3.21,11.69,5.41,1.84,1.09,3.61,2.28,5.32,3.56,1.44,1.08,2.68,2.39,3.89,3.71,3.04,3.33,5.96,6.78,8.85,10.23,2.15,2.57,4.22,5.21,5.95,8.08,1.98,3.29,3.59,6.8,4.95,10.39,1.19,3.11,2.35,6.38,2.82,9.7.17,1.19-.19,2.6.27,3.73.33.81,1.05,1.35,1.94,1.36.83.01,1.62-.48,1.8-1.32.12-.57-.17-1.03-.7-1.23-1.57-.6-3.21,1.08-2.74,2.64.21.69,1.15,1.02,1.67.44.47-.51.97-.98,1.51-1.41.4-.32.38-1.1,0-1.41-1.15-.96-2.86-1.05-3.92.13-.96,1.08-.88,2.8.16,3.79s3.34-.3,3.4-1.65-1.74-2.54-2.73-1.35c-.82.98.59,2.41,1.41,1.41h0Z"/>
      <path class="cls-1" d="M33.28,4.98c1.75-.82,3.88-1.14,5.77-.67,1.37.35,2.95,1.37,2.28,2.99-.32.77-.95,1.4-1.56,1.95-.84.76-1.76,1.45-2.65,2.17-1.85,1.5-3.71,2.99-5.56,4.49-.39.31-.39,1.11,0,1.41.82.64,1.72.83,2.74.78,1.16-.06,2.33-.23,3.49-.34,1.23-.12,2.45-.25,3.68-.37.58-.06,1.16-.1,1.74-.18.46-.07.85-.24,1.28-.41.5-.19.85-.67.7-1.23-.13-.48-.72-.89-1.23-.7-1.77.68-3.8.65-5.68.84-1.06.11-2.13.22-3.19.32-.59.06-1.6.28-2.12-.12v1.41c1.73-1.39,3.45-2.79,5.18-4.18,1.52-1.22,3.21-2.37,4.38-3.95,1-1.36,1.34-3.19.36-4.66-.9-1.35-2.52-2.07-4.08-2.29-2.25-.32-4.49.05-6.54,1.01-1.16.55-.15,2.27,1.01,1.73h0Z"/>
      <path class="cls-1" d="M47.59,5.33c-.23,2.68-.09,5.36.38,8.01.09.53.74.83,1.23.7.56-.15.79-.7.7-1.23-.44-2.47-.52-4.99-.31-7.48.05-.54-.49-1-1-1-.58,0-.95.46-1,1h0Z"/>
      <path class="cls-1" d="M50.94,3.39l.71,9.35c.1,1.27,1.99,1.3,2,0,0-.22,0-.43,0-.65,0-1.29-1.99-1.29-2,0,0,.22,0,.43,0,.65h2l-.71-9.35c-.04-.54-.43-1-1-1-.51,0-1.04.46-1,1h0Z"/>
      <path class="cls-1" d="M46.2,6.86c3.54-1.31,6.94-2.97,10.14-4.98,1.09-.68.08-2.42-1.01-1.73-3.05,1.92-6.28,3.53-9.66,4.77-.51.19-.85.68-.7,1.23.13.49.72.89,1.23.7h0Z"/>
      <path class="cls-1" d="M57.07,3.38c.37,3.32.68,6.64.93,9.97h2c-.2-2.13.08-4.39,1.09-6.3.81-1.55,2.23-3.03,4.09-3.08,1.28-.03,1.29-2.03,0-2-2.45.06-4.48,1.73-5.66,3.79-1.29,2.26-1.75,5.02-1.51,7.59.05.54.42,1,1,1,.51,0,1.04-.46,1-1-.25-3.33-.56-6.65-.93-9.97-.06-.54-.42-1-1-1-.49,0-1.06.46-1,1h0Z"/>
    </g>
  </g>
</svg>