<?xml version="1.0" encoding="UTF-8"?>
<svg id="Layer_2" data-name="Layer 2" xmlns="http://www.w3.org/2000/svg" viewBox="0 0 160.11 170.69">
  <defs>
    <style>
      .cls-1, .cls-2 {
        fill: #ed1c24;
      }

      .cls-3 {
        fill: #00aeef;
      }

      .cls-4 {
        fill: #2e3192;
      }

      .cls-5 {
        opacity: .5;
      }

      .cls-2 {
        stroke: #000;
        stroke-miterlimit: 10;
        stroke-width: .5px;
      }
    </style>
  </defs>
  <g id="Layer_1-2" data-name="Layer 1">
    <g>
      <path class="cls-4" d="M159.41,19.19c-.56,10.9-.65,19.73-.64,25.75.01,6.18.12,8.24.2,16.08.11,10.96-.15,12.3-.2,24.1-.09,23.01.85,28.38,0,40.65-.11,1.53-.42,5.69-.64,11.46-.23,5.84-.27,10.63-.27,13.82-1.72,3.57-5.16,9.46-10.84,12.74-1.61.93-3.63,1.78-3.77,1.84-3.31,1.36-6.42,1.97-10.09,2.67-7.89,1.5-13.79,1.28-21.58.98-7.86-.3-12.36-1.09-15.95-1.96-4.13-1-7.6-2.01-11.2-4.8-4.01-3.1-6.1-6.89-7.14-9.19.09-4.02.18-8.04.28-12.07.1-4.29.02-7.46.01-9.17-.03-5.39-.07-13.16-.07-24.63"/>
      <path d="M158.91,19.19c-.48,9.5-.7,19-.62,28.51.07,8.19.29,16.37.15,24.56-.16,9.28-.22,18.56-.07,27.84.1,6.25.37,12.5.23,18.75-.06,2.82-.24,5.64-.43,8.46-.33,4.89-.57,9.78-.69,14.67-.06,2.37-.1,4.73-.11,7.1,0,.43,0,.85,0,1.28,0,.46-.06.68-.27,1.1-.4.8-.83,1.59-1.29,2.36-2.3,3.9-5.36,7.48-9.36,9.7-4.27,2.37-8.94,3.45-13.7,4.33-5.36,1-10.76,1.22-16.2,1.08-5.09-.13-10.2-.3-15.24-1.04-3.89-.57-7.9-1.41-11.55-2.89-4.6-1.87-8.39-5.36-10.86-9.66-.37-.64-1-1.51-1.1-2.25-.09-.67.04-1.46.06-2.14.02-.78.04-1.57.05-2.35.07-2.98.15-5.96.2-8.95.12-7.98-.06-15.98-.08-23.96,0-2.75,0-5.5,0-8.24,0-.64-1-.64-1,0,0,8.68-.01,17.37.09,26.05.06,5.43-.1,10.85-.22,16.28-.02.78-.04,1.57-.05,2.35-.01.59-.09,1.14.16,1.68.36.78.76,1.54,1.19,2.28,1.15,1.95,2.57,3.76,4.21,5.31,1.91,1.81,4.13,3.29,6.55,4.33,2.2.95,4.52,1.56,6.85,2.12,3.73.89,7.53,1.39,11.35,1.67,10.98.81,22.16.84,32.82-2.24,4.35-1.25,8.52-3.31,11.77-6.5,1.57-1.54,2.94-3.29,4.14-5.14.53-.81,1.02-1.65,1.49-2.5.36-.67.97-1.5,1.02-2.27.12-2.1.02-4.24.06-6.35.05-2.83.14-5.65.26-8.48.17-3.88.45-7.74.68-11.61.36-5.92.27-11.84.14-17.77-.21-9.42-.3-18.83-.17-28.25.12-8.37.17-16.73.03-25.1-.14-8.52-.11-17.04.18-25.56.1-2.86.22-5.72.36-8.57.03-.64-.97-.64-1,0h0Z"/>
    </g>
    <g>
      <path class="cls-3" d="M96.59,52.24c-5.38,8-9.38,13.75-12.17,21.89-1.18,3.43-1.28,4.76-3.61,11.74-1.37,4.11-1.86,5.21-2.42,7.73-.68,3.09-1.5,6.78-.89,11.09.32,2.28,1.48,10.41,6.53,12.1,3.67,1.23,8.65-1.22,10.47-2.09,3.23-1.55,3.31-2.39,13.81-10.82.82-.66,2.13-1.71,3.79-3.27,2.53-2.38,4.21-4.4,5.44-5.89,4.56-5.53,6.84-8.29,8.36-10.3,9.68-12.82,15.53-20.58,21.41-32.05,2.3-4.49,3.78-7.93,6.47-14.19,3.25-7.56,3.98-10.01,4.51-12.4.78-3.53,1.63-7.56.81-12.56-.44-2.66-1.73-10.55-6.75-12.36-2.67-.97-5.4.14-8.3,1.59-11.25,5.63-18.75,13.29-19.74,14.32-5.29,5.49-10.64,12.56-21.12,26.48-4.98,6.61-6.07,8.22-6.59,8.98Z"/>
      <path d="M96.16,51.98c-3.69,5.48-7.51,10.95-10.24,17-1.04,2.31-1.93,4.68-2.66,7.1-.54,1.8-1.02,3.61-1.57,5.4-.87,2.84-1.86,5.64-2.8,8.46-.75,2.24-1.28,4.56-1.67,6.89-.79,4.67-.43,9.61,1.21,14.08.73,1.98,1.77,3.96,3.45,5.29,2.03,1.6,4.61,1.67,7.05,1.13,2.15-.47,4.19-1.37,6.15-2.35.79-.39,1.53-.85,2.24-1.38,2.81-2.1,5.4-4.52,8.11-6.74,2.35-1.93,4.78-3.78,7-5.87s4.15-4.33,6.06-6.64c7.2-8.72,14.18-17.65,20.52-27.02,3.26-4.82,6.23-9.81,8.87-15s5.04-10.82,7.34-16.32c1.5-3.58,2.89-7.15,3.71-10.94.65-3.03,1.11-6.1.92-9.2-.13-2.14-.51-4.31-1.05-6.39-1.07-4.14-3.41-9.26-8.36-9.45-1.63-.06-3.23.46-4.71,1.09-1.64.7-3.23,1.54-4.78,2.41-2.79,1.56-5.48,3.3-8.06,5.2-3.05,2.25-6,4.69-8.66,7.39-2.4,2.43-4.61,5.04-6.76,7.69-3.3,4.06-6.45,8.22-9.61,12.39-3.49,4.61-7.01,9.2-10.39,13.89-.46.64-.91,1.28-1.35,1.93-.36.54.51,1.04.86.5,1.68-2.5,3.53-4.9,5.33-7.32,3.78-5.04,7.56-10.07,11.41-15.05,4.24-5.48,8.54-11.04,13.7-15.7,3.95-3.56,8.28-6.73,12.88-9.41,1.43-.84,2.9-1.63,4.39-2.35,1.59-.78,3.32-1.56,5.12-1.65,2.56-.13,4.57,1.36,5.89,3.45,1.13,1.79,1.8,3.84,2.28,5.89.51,2.17.86,4.4.9,6.63.04,2.97-.49,5.87-1.14,8.76-.29,1.29-.65,2.56-1.09,3.81-.8,2.33-1.75,4.61-2.71,6.88-1.27,3-2.55,5.99-3.88,8.96-2.25,5.01-4.76,9.89-7.58,14.6-2.92,4.87-6.16,9.53-9.51,14.11s-6.4,8.75-9.81,12.96c-1.69,2.08-3.4,4.15-5.1,6.22-1.88,2.28-3.78,4.53-5.92,6.59s-4.56,3.93-6.89,5.84c-1.82,1.48-3.62,2.99-5.41,4.51-1.6,1.36-3.15,2.79-5.02,3.77-1.69.88-3.46,1.66-5.3,2.17-2.4.67-5.14.87-7.17-.82-2.92-2.44-3.83-6.79-4.35-10.38-.77-5.23.42-10.61,2.11-15.56.95-2.78,1.9-5.56,2.74-8.38.49-1.64.93-3.3,1.43-4.94,1.66-5.45,4.23-10.5,7.25-15.32,1.75-2.79,3.61-5.52,5.45-8.25.36-.54-.51-1.04-.86-.5Z"/>
    </g>
    <path d="M157.37,148.16c-2.12,5.21-5.06,10.43-9.5,14-2.33,1.88-5.15,3.31-7.96,4.29-3.41,1.19-7.04,1.99-10.6,2.56s-7.17.73-10.78.68-7.37-.2-11.03-.51c-5.37-.45-10.74-1.43-15.79-3.37-6.74-2.58-11.42-8.33-13.93-14.95-.23-.6-1.19-.34-.96.27,2.25,5.94,6.19,11.44,11.91,14.44,2.62,1.37,5.5,2.23,8.35,2.96,2.49.64,5.03,1.07,7.58,1.37,3.74.44,7.51.6,11.27.73s7.33.12,10.98-.28,7.59-1.23,11.27-2.28c3-.86,5.84-2.12,8.48-3.79,5.16-3.28,8.59-8.73,11.01-14.22.24-.53.46-1.07.68-1.61.24-.6-.72-.86-.96-.27h0Z"/>
    <path d="M78.15,153.38c2.41-2.92,5.15-5.39,8.35-7.39,5.21-3.25,11.09-5.37,17.05-6.76,6.88-1.6,13.99-2.11,21.03-1.58,4.95.37,9.8,1.31,14.63,2.41,3.57.82,7.12,1.88,10.3,3.71s5.88,4.43,7.9,7.5c.35.53,1.22.03.86-.5-1.81-2.74-4.12-5.14-6.84-6.98s-5.74-3.03-8.85-3.91c-4.99-1.42-10.2-2.41-15.35-2.99-6.92-.77-13.93-.56-20.78.7s-13.14,3.31-18.99,6.64c-3.19,1.82-6.05,4.02-8.54,6.71-.51.55-1.01,1.12-1.49,1.71-.41.49.3,1.2.71.71h0Z"/>
  </g>
  <g id="Layer_3" data-name="Layer 3">
    <path class="cls-3" d="M49.91,9.25c-11.33-6.8-23.93-2.05-30.31.34-4.62,1.74-10.2,3.84-14.41,9.51-7.71,10.39-3.85,23.34-3.29,25.11,3.01,9.56,9.95,14.6,12.01,15.99,9.18,6.17,18.7,5.21,21.99,4.83,2.5-.29,7.88-.98,13.53-4.59,1.28-.82,10.9-7.2,13.41-19.47,2.36-11.55-2.21-25.3-12.93-31.73Z"/>
    <path class="cls-4" d="M50.22,8.82c-3.61-2.14-7.67-3.32-11.86-3.54-3.72-.19-7.45.34-11.05,1.27-2.93.76-5.76,1.8-8.58,2.87-3.24,1.23-6.44,2.61-9.22,4.71C3.28,18.84.12,26.24,0,33.94c-.08,5.04.95,10.13,3.17,14.66,2.36,4.8,6.03,8.98,10.45,11.98,5.98,4.05,13.25,5.68,20.4,5.15,5.73-.43,11.41-1.9,16.21-5.18,3.88-2.65,7.19-6.24,9.58-10.27,3.62-6.1,4.85-13.27,3.82-20.26s-4.17-13.45-9.3-18.13c-1.27-1.16-2.65-2.19-4.12-3.08-.55-.33-1.06.53-.5.86,5.85,3.54,9.93,9.37,11.9,15.86s1.89,13.68-.61,20.05c-2,5.09-5.5,9.58-9.77,12.97s-9.31,5.21-14.57,5.88c-5.77.73-11.6.37-17.05-1.81-5.13-2.05-9.62-5.63-12.87-10.08-3.05-4.17-4.89-9.02-5.5-14.14-.83-6.9.47-14.13,4.89-19.65s10.64-7.71,16.87-9.87c6.71-2.32,14.04-3.68,21.02-1.69,2,.57,3.9,1.41,5.68,2.47.55.33,1.06-.53.5-.86Z"/>
    <g>
      <path class="cls-1" d="M48.77,13.1c-6.06-3.59-13.16-3.71-19.85-2-2.53.65-4.98,1.55-7.42,2.47-2.84,1.07-5.65,2.27-8.09,4.11-5.43,4.09-8.2,10.53-8.32,17.23-.07,4.35.8,8.76,2.7,12.68,2.04,4.2,5.23,7.87,9.09,10.5,5.18,3.53,11.5,4.97,17.71,4.52,5.01-.36,9.97-1.64,14.17-4.5,3.35-2.28,6.22-5.38,8.3-8.86,3.19-5.33,4.27-11.6,3.38-17.71s-3.64-11.72-8.11-15.79c-1.1-1-2.29-1.89-3.56-2.66-.55-.33-1.06.53-.5.86,10.25,6.2,14.06,20.26,9.74,31.17-1.74,4.39-4.78,8.26-8.47,11.18s-8.11,4.5-12.67,5.06c-5.03.63-10.11.28-14.84-1.66-4.39-1.8-8.22-4.89-11-8.72-6-8.26-7.08-21.05-.41-29.26,3.71-4.57,9.25-6.64,14.65-8.49,5.8-2,12.13-3.15,18.15-1.41,1.71.49,3.33,1.21,4.86,2.12.55.33,1.06-.54.5-.86Z"/>
      <path class="cls-1" d="M44.86,18.83c-4.59-2.71-9.94-2.8-15-1.5-1.93.5-3.8,1.19-5.66,1.89-2.08.79-4.14,1.68-5.93,3.02-6.86,5.14-7.85,15.03-4.34,22.43,1.53,3.23,3.97,6.04,6.91,8.06,3.89,2.66,8.64,3.75,13.31,3.42,3.78-.27,7.52-1.22,10.68-3.37,2.53-1.71,4.69-4.04,6.26-6.65,4.75-7.89,3.35-19.01-3.51-25.27-.84-.76-1.75-1.44-2.72-2.03-.55-.33-1.05.53-.5.86,7.66,4.65,10.49,15.19,7.18,23.34-1.31,3.22-3.56,6.07-6.29,8.21s-6.02,3.32-9.4,3.74c-3.76.46-7.56.2-11.09-1.26-3.23-1.34-6.07-3.63-8.13-6.46-4.46-6.14-5.29-15.64-.33-21.76,2.73-3.37,6.78-4.9,10.75-6.28,4.35-1.51,9.1-2.42,13.63-1.13,1.29.37,2.52.91,3.68,1.59.56.33,1.06-.54.5-.86Z"/>
      <path class="cls-1" d="M41.75,23.38c-3.42-2.01-7.4-2.08-11.16-1.1-1.4.36-2.76.86-4.11,1.38-1.58.6-3.14,1.28-4.49,2.32-5,3.83-5.68,11.1-3.11,16.54,2.71,5.72,8.77,8.94,15.02,8.48,2.78-.21,5.53-.91,7.86-2.5,1.87-1.27,3.47-3,4.63-4.94,3.5-5.84,2.45-14.06-2.63-18.68-.62-.56-1.29-1.06-2.01-1.5-.55-.34-1.05.53-.5.86,5.55,3.39,7.61,11,5.23,16.92-1.92,4.77-6.29,8.06-11.35,8.71-2.72.35-5.46.17-8.03-.86-2.39-.96-4.5-2.65-6.01-4.74-3.19-4.41-3.82-11.17-.37-15.63,1.97-2.55,4.98-3.69,7.92-4.71,3.14-1.1,6.56-1.77,9.84-.87.98.27,1.9.67,2.78,1.19.56.33,1.06-.54.5-.86Z"/>
      <path class="cls-1" d="M38.1,28.72c-1.99-1.15-4.26-1.23-6.45-.69-1.71.43-3.62,1.07-5.05,2.12-3.01,2.23-3.47,6.52-1.97,9.77s5.15,5.32,8.83,5.05c3.09-.22,5.77-1.7,7.38-4.38,2.34-3.9,1.18-9.46-2.74-11.88-.55-.34-1.05.53-.5.86,3.13,1.93,4.29,6.27,2.85,9.6-1.12,2.59-3.5,4.36-6.29,4.72-3,.39-6-.61-7.83-3.08s-2.19-6.34-.2-8.84c1.2-1.51,3.14-2.18,4.92-2.74,2.18-.69,4.5-.84,6.54.34.56.32,1.06-.54.5-.86Z"/>
      <path class="cls-1" d="M35.65,32.31c-1.06-.6-2.25-.66-3.42-.37-.88.22-1.87.56-2.6,1.1-1.58,1.18-1.86,3.38-1.1,5.11s2.68,2.88,4.63,2.75c1.64-.1,3.07-.88,3.93-2.29,1.26-2.08.63-5.01-1.45-6.31-.55-.34-1.05.52-.5.86,1.47.92,2.01,2.98,1.3,4.54-.56,1.22-1.63,2-2.97,2.17-1.43.17-2.84-.32-3.68-1.5s-.99-2.91-.09-4.05c.57-.72,1.51-1.04,2.36-1.31,1.03-.32,2.1-.4,3.07.15.56.32,1.06-.54.5-.86Z"/>
    </g>
  </g>
  <g id="Layer_5" data-name="Layer 5">
    <g class="cls-5">
      <path d="M105.51,152.3c.05-1.55,2.06-2.66,3.35-3.06,1.75-.55,3.7-.51,5.52-.62,2.82-.17,5.68-.28,8.45.4.97.24,1.92.6,2.77,1.14s2.25,1.46,2.27,2.56c0,.32.51.32.5,0-.02-.9-.66-1.53-1.31-2.08-.78-.66-1.62-1.22-2.57-1.61-1.45-.6-3.05-.85-4.6-.97-1.73-.13-3.47-.05-5.2.05-2.04.12-4.29.05-6.23.75-1.45.52-3.38,1.73-3.44,3.45-.01.32.49.32.5,0h0Z"/>
      <path class="cls-2" d="M105.43,77.8l-.18,74.51c.01.7.45,1.25.92,1.82.68.84,1.44,1.27,1.91,1.53.73.41,1.42.62,2.24.84.99.26,2.23.5,4.4.59,1.95.08,3.68.17,5.95-.29,1.25-.26,2.2-.58,2.78-.8,1.81-.68,4.59-1.74,4.66-3.27V50.55s-.09.03-.09.03c.23,1.37,0,2.47-.23,3.44-.15.65-.36,1.33-1.28,3.4-.76,1.71-1.18,2.66-1.84,3.89-1.67,3.14-3.34,5.26-6.09,8.77-.43.55-1.08,1.31-2.38,2.82-.35.41-.83.96-1.55,1.61-.14.13-.27.24-.39.34,0,0-.34.28-.69.55-2.94,2.23-5.55,4.21-7.03,3.51"/>
      <path d="M128.25,50.51c-.2-1.16-.53-2.55-1.55-3.28-.8-.57-1.74-.41-2.59-.05-.97.41-1.9.94-2.78,1.51-2.2,1.42-3.97,3.18-5.63,5.19-2.22,2.69-4.46,5.43-6.43,8.32-1.13,1.66-2.22,3.41-2.85,5.33-.41,1.25-.89,2.52-1.14,3.82-.28,1.45-.42,2.97-.32,4.45.08,1.15.3,2.72,1.45,3.31.29.15.54-.28.25-.43-.99-.51-1.14-1.96-1.21-2.95-.08-1.29.02-2.6.24-3.88.18-1.08.57-2.07.88-3.11.55-1.82,1.31-3.45,2.32-5.06,1.78-2.83,3.92-5.42,6-8.02,1.38-1.73,2.78-3.5,4.49-4.93.7-.59,1.44-1.13,2.21-1.62,1-.64,2.15-1.4,3.31-1.69,2-.49,2.62,1.7,2.88,3.21.05.32.54.18.48-.13h0Z"/>
    </g>
    <g class="cls-5">
      <path d="M95.19,152.22c.41-1.46,1.99-2.22,3.23-2.85.71-.36,1.41-.72,2.12-1.07,2.46-1.24,5.09-2.42,7.77-3.07,1.92-.47,3.92-.67,5.9-.77,4.12-.21,8.26.12,12.32.85,1.84.33,3.61.78,5.33,1.52,1.25.53,2.42,1.2,3.57,1.92.81.5,1.68,1.06,1.96,2.03.09.31.57.18.48-.13-.2-.72-.66-1.24-1.25-1.69-.87-.67-1.86-1.22-2.82-1.74-1.7-.91-3.53-1.61-5.41-2.04-4.11-.94-8.41-1.34-12.62-1.26-2.41.04-4.86.24-7.22.76-2.85.63-5.64,1.9-8.24,3.2-.69.34-1.37.7-2.05,1.04-1.39.71-3.08,1.55-3.54,3.19-.09.31.39.44.48.13h0Z"/>
      <path d="M141.76,38.32c.4-1.83.72-3.67.66-5.55-.05-1.34-.28-2.71-.6-4.01-.63-2.53-2.12-5.77-5.23-5.54-2,.15-3.95,1.41-5.64,2.4s-3.16,2.01-4.64,3.16c-1.66,1.29-3.26,2.68-4.7,4.22-4.21,4.49-7.76,9.62-11.42,14.55-1.46,1.96-2.95,3.91-4.31,5.94-2.15,3.21-4.35,6.44-5.93,9.97-1.15,2.57-1.8,5.26-2.63,7.93-1,3.22-2.24,6.33-2.58,9.71-.11,1.1-.1,2.2.05,3.3.04.31.54.32.5,0-.44-3.36.46-6.66,1.52-9.82.86-2.57,1.53-5.2,2.38-7.77,1.22-3.69,3.15-7.03,5.27-10.27,1.18-1.8,2.37-3.58,3.63-5.32,3.89-5.35,7.76-10.79,12.04-15.83,3.28-3.85,7.15-7.11,11.55-9.63,1.73-.99,4.08-2.56,6.16-1.93,1.37.41,2.23,1.67,2.79,2.91,1.21,2.7,1.54,5.97,1.14,8.87-.12.86-.3,1.71-.48,2.56-.07.31.41.45.48.13h0Z"/>
      <g>
        <path class="cls-1" d="M141.52,38.25c-.3,1.4-.73,2.83-2.6,7.26-1.55,3.66-2.4,5.68-3.72,8.3-3.38,6.71-6.76,11.25-12.32,18.75-.87,1.17-2.19,2.79-4.81,6.02-.71.87-1.67,2.05-3.13,3.45-.95.91-1.71,1.52-2.18,1.91-6.04,4.93-6.09,5.42-7.95,6.33-1.05.51-3.91,1.94-6.03,1.22-2.9-.99-3.57-5.75-3.76-7.08l-.08,67.75c-.43,1.83,2.4,4.07,3.79,5.16.82.65,1.48,1.03,1.65,1.13,1.64.94,3.17,1.27,4.31,1.57,1.91.49,4.3.93,8.47,1.1,4.14.17,7.28.29,11.47-.55,1.95-.39,3.6-.74,5.36-1.5.32-.14,1.13-.5,2-1.03,2.03-1.23,6.33-4.56,5.63-7.33l4.35-119.8"/>
        <path d="M141.28,38.19c-.4,1.84-1.09,3.6-1.8,5.34-1.23,3.02-2.49,6.05-3.92,8.99-2.73,5.63-6.19,10.8-9.88,15.84-1.61,2.19-3.22,4.39-4.92,6.51-1.97,2.45-3.88,4.99-6.17,7.15-2.07,1.95-4.37,3.68-6.53,5.54-.9.77-1.77,1.61-2.81,2.2-2.06,1.17-5.39,2.67-7.47.86-1.72-1.5-2.2-4.12-2.5-6.27-.04-.28-.49-.21-.49.07,0,1.42,0,2.85,0,4.27v10.88c-.02,4.88-.02,9.76-.03,14.63l-.02,15.35-.02,13.2v8.14c-.01.42.02.85-.01,1.27-.1,1.37.67,2.41,1.59,3.36,1.11,1.14,2.42,2.21,3.78,3.03,1.55.93,3.29,1.4,5.03,1.82,1.48.36,2.98.59,4.5.75,2.27.23,4.57.31,6.85.36s4.38-.04,6.54-.37c3.89-.58,7.63-1.59,10.8-4.01,1.28-.98,2.53-2.1,3.39-3.48.37-.59.66-1.25.74-1.94.04-.35-.03-.65-.05-.98-.07-.93.07-1.91.1-2.84l.26-7.23c.13-3.57.26-7.13.39-10.7l.48-13.28.54-14.83.56-15.49c.18-5.07.37-10.15.55-15.22l.51-14.02.43-11.93c.11-2.94.21-5.87.32-8.81l.17-4.81.02-.62c.01-.32-.49-.32-.5,0-.03.83-.06,1.66-.09,2.49l-.25,6.88c-.13,3.45-.25,6.9-.38,10.35-.16,4.31-.31,8.61-.47,12.92l-.53,14.52-.56,15.33-.55,15.18-.51,14.12-.44,12.15-.34,9.27-.2,5.48c-.01.34-.05.69-.04,1.04.03.55.1,1.01-.07,1.56-.49,1.6-1.86,2.9-3.11,3.94s-2.71,2-4.24,2.68c-2.05.9-4.3,1.35-6.5,1.72-4.43.75-9.11.55-13.57.12-1.57-.15-3.13-.39-4.66-.76-1.78-.43-3.55-.91-5.12-1.9-1.43-.9-2.86-2.06-3.96-3.35-.66-.78-1.02-1.52-.97-2.54.1-1.68,0-3.38,0-5.06v-11.27c.02-4.88.02-9.76.03-14.63l.02-15.16.02-12.8v-7.72c0-.35,0-.7.01-1.05l-.49.07c.28,1.97.71,4.09,1.93,5.72.69.92,1.62,1.56,2.78,1.71,1.43.18,2.89-.29,4.19-.84,1.17-.5,2.24-1.06,3.22-1.87,1.72-1.4,3.37-2.89,5.08-4.3,1.31-1.08,2.62-2.15,3.82-3.37,1.1-1.12,2.08-2.33,3.07-3.54,1.64-2.02,3.28-4.03,4.83-6.12,3.98-5.36,7.94-10.73,11.06-16.65,1.69-3.21,3.1-6.54,4.5-9.87.96-2.28,1.97-4.59,2.5-7.02.07-.31-.41-.45-.48-.13h0Z"/>
      </g>
    </g>
    <g class="cls-5">
      <path d="M85.7,152.31c.09-.8.62-1.44,1.17-1.97,1.59-1.54,3.64-2.62,5.57-3.66,2.04-1.1,4.09-2.2,6.24-3.09,2.54-1.05,5.18-1.82,7.86-2.41,5.5-1.22,11.14-1.58,16.76-1.15,4.37.34,8.75,1.07,13.03,2.04,2.85.64,5.52,1.81,7.78,3.68,1.98,1.64,4.03,3.57,4.22,6.3.02.32.52.32.5,0-.17-2.41-1.67-4.3-3.42-5.85-1.96-1.74-4.13-3.11-6.62-3.96-2.02-.69-4.15-1.03-6.24-1.42-2.34-.43-4.68-.82-7.05-1.08-5.62-.62-11.3-.5-16.88.51-3.02.55-6.03,1.3-8.91,2.39-2.21.83-4.32,1.89-6.41,3-2.3,1.23-4.76,2.44-6.69,4.24-.71.66-1.32,1.44-1.43,2.43-.03.32.47.32.5,0h0Z"/>
      <path d="M153.01,19.47c-.55-3.32-1.43-7.36-4.32-9.47-2.26-1.65-4.96-1.03-7.33.04-2.73,1.23-5.35,2.75-7.85,4.4-3.17,2.09-6.22,4.45-8.91,7.14-1.03,1.02-1.97,2.12-2.92,3.21-2.02,2.28-3.99,4.61-5.92,6.97-3.69,4.51-7.25,9.13-10.54,13.94-4.58,6.7-8.96,13.62-12.55,20.91-1.45,2.95-2.64,5.95-3.64,9.07-1.45,4.53-3.27,8.91-3.73,13.69-.15,1.51-.12,3.02.09,4.52.04.32.53.18.48-.13-.69-5.04.93-9.9,2.53-14.6,1.11-3.24,2.04-6.49,3.44-9.62,3.4-7.6,7.89-14.74,12.51-21.65,2.7-4.04,5.57-7.95,8.56-11.77,3.61-4.61,7.37-9.12,11.32-13.43,1.59-1.73,3.41-3.27,5.25-4.72,1.97-1.55,4.03-2.98,6.17-4.29,1.28-.78,2.59-1.52,3.92-2.2,1.45-.75,2.96-1.53,4.57-1.87,4.99-1.06,7.16,4.14,8.02,8.09.14.64.25,1.28.36,1.92.05.32.53.18.48-.13h0Z"/>
      <path class="cls-2" d="M153.05,22.14l-4.47,129.91s.27,5.09-6.9,9.42c-1.38.84-3.04,1.61-3.04,1.61h0c-2.67,1.19-5.17,1.72-8.13,2.34-6.36,1.32-11.12,1.12-17.41.86-6.34-.26-9.97-.95-12.86-1.72-1.73-.46-4.04-.97-6.54-2.44-.39-.23-1.36-.82-2.5-1.76-2.06-1.69-6.06-4.97-5.75-8.05l.18-58.35v-.14c.27,1.85,1.22,8.45,5.38,9.83,3.02,1,7.11-.99,8.62-1.7.5-.24.91-.45,1.3-.69,3.93-2.42,7.1-5.25,10.07-8.09,4.3-4.13,6.46-6.2,7.59-7.44,2.94-3.2,4.98-5.88,6.88-8.36,7.96-10.41,12.78-16.71,17.62-26.03,1.89-3.64,3.11-6.44,5.32-11.53,2.67-6.14,3.28-8.13,3.71-10.07.64-2.87,1.34-6.14.66-10.2"/>
    </g>
    <path d="M96.35,51.98c-3.69,5.48-7.51,10.95-10.24,17-1.04,2.31-1.93,4.68-2.66,7.1-.54,1.8-1.02,3.61-1.57,5.4-.87,2.84-1.86,5.64-2.8,8.46-.75,2.24-1.28,4.56-1.67,6.89-.79,4.67-.43,9.61,1.21,14.08.73,1.98,1.77,3.96,3.45,5.29,2.03,1.6,4.61,1.67,7.05,1.13,2.15-.47,4.19-1.37,6.15-2.35.79-.39,1.53-.85,2.24-1.38,2.81-2.1,5.4-4.52,8.11-6.74,2.35-1.93,4.78-3.78,7-5.87s4.15-4.33,6.06-6.64c7.2-8.72,14.18-17.65,20.52-27.02,3.26-4.82,6.23-9.81,8.87-15s5.04-10.82,7.34-16.32c1.5-3.58,2.89-7.15,3.71-10.94.65-3.03,1.11-6.1.92-9.2-.13-2.14-.51-4.31-1.05-6.39-1.07-4.14-3.41-9.26-8.36-9.45-1.63-.06-3.23.46-4.71,1.09-1.64.7-3.23,1.54-4.78,2.41-2.79,1.56-5.48,3.3-8.06,5.2-3.05,2.25-6,4.69-8.66,7.39-2.4,2.43-4.61,5.04-6.76,7.69-3.3,4.06-6.45,8.22-9.61,12.39-3.49,4.61-7.01,9.2-10.39,13.89-.46.64-.91,1.28-1.35,1.93-.36.54.51,1.04.86.5,1.68-2.5,3.53-4.9,5.33-7.32,3.78-5.04,7.56-10.07,11.41-15.05,4.24-5.48,8.54-11.04,13.7-15.7,3.95-3.56,8.28-6.73,12.88-9.41,1.43-.84,2.9-1.63,4.39-2.35,1.59-.78,3.32-1.56,5.12-1.65,2.56-.13,4.57,1.36,5.89,3.45,1.13,1.79,1.8,3.84,2.28,5.89.51,2.17.86,4.4.9,6.63.04,2.97-.49,5.87-1.14,8.76-.29,1.29-.65,2.56-1.09,3.81-.8,2.33-1.75,4.61-2.71,6.88-1.27,3-2.55,5.99-3.88,8.96-2.25,5.01-4.76,9.89-7.58,14.6s-6.16,9.53-9.51,14.11-6.4,8.75-9.81,12.96c-1.69,2.08-3.4,4.15-5.1,6.22-1.88,2.28-3.78,4.53-5.92,6.59s-4.56,3.93-6.89,5.84c-1.82,1.48-3.62,2.99-5.41,4.51-1.6,1.36-3.15,2.79-5.02,3.77-1.69.88-3.46,1.66-5.3,2.17-2.4.67-5.14.87-7.17-.82-2.92-2.44-3.83-6.79-4.35-10.38-.77-5.23.42-10.61,2.11-15.56.95-2.78,1.9-5.56,2.74-8.38.49-1.64.93-3.3,1.43-4.94,1.66-5.45,4.23-10.5,7.25-15.32,1.75-2.79,3.61-5.52,5.45-8.25.36-.54-.51-1.04-.86-.5Z"/>
  </g>
</svg>