<?xml version="1.0" encoding="UTF-8"?>
<svg id="Layer_2" data-name="Layer 2" xmlns="http://www.w3.org/2000/svg" viewBox="0 0 160.02 170.69">
  <defs>
    <style>
      .cls-1 {
        fill: none;
        stroke: #ed1c24;
        stroke-width: .75px;
      }

      .cls-1, .cls-2, .cls-3 {
        stroke-miterlimit: 10;
      }

      .cls-4 {
        fill: #00aeef;
      }

      .cls-2, .cls-3 {
        fill: #ed1c24;
        stroke: #231f20;
        stroke-width: .5px;
      }

      .cls-5 {
        fill: #2e3192;
      }

      .cls-3 {
        opacity: .5;
      }
    </style>
  </defs>
  <g id="Layer_1-2" data-name="Layer 1">
    <g>
      <path class="cls-5" d="M159.41,19.19c-.56,10.9-.65,19.73-.64,25.75.01,6.18.12,8.24.2,16.08.11,10.96-.15,12.3-.2,24.1-.09,23.01.85,28.38,0,40.65-.11,1.53-.42,5.69-.64,11.46-.23,5.84-.27,10.63-.27,13.82-1.72,3.57-5.16,9.46-10.84,12.74-1.61.93-3.63,1.78-3.77,1.84-3.31,1.36-6.42,1.97-10.09,2.67-7.89,1.5-13.79,1.28-21.58.98-7.86-.3-12.36-1.09-15.95-1.96-4.13-1-7.6-2.01-11.2-4.8-4.01-3.1-6.1-6.89-7.14-9.19.09-4.02.18-8.04.28-12.07.1-4.29.02-7.46.01-9.17-.03-5.39-.07-13.16-.07-24.63"/>
      <path d="M158.91,19.19c-.48,9.5-.7,19-.62,28.51.07,8.19.29,16.37.15,24.56-.16,9.28-.22,18.56-.07,27.84.1,6.25.37,12.5.23,18.75-.06,2.82-.24,5.64-.43,8.46-.33,4.89-.57,9.78-.69,14.67-.06,2.37-.1,4.73-.11,7.1,0,.43,0,.85,0,1.28,0,.46-.06.68-.27,1.1-.4.8-.83,1.59-1.29,2.36-2.3,3.9-5.36,7.48-9.36,9.7-4.27,2.37-8.94,3.45-13.7,4.33-5.36,1-10.76,1.22-16.2,1.08-5.09-.13-10.2-.3-15.24-1.04-3.89-.57-7.9-1.41-11.55-2.89-4.6-1.87-8.39-5.36-10.86-9.66-.37-.64-1-1.51-1.1-2.25-.09-.67.04-1.46.06-2.14.02-.78.04-1.57.05-2.35.07-2.98.15-5.96.2-8.95.12-7.98-.06-15.98-.08-23.96,0-2.75,0-5.5,0-8.24,0-.64-1-.64-1,0,0,8.68-.01,17.37.09,26.05.06,5.43-.1,10.85-.22,16.28-.02.78-.04,1.57-.05,2.35-.01.59-.09,1.14.16,1.68.36.78.76,1.54,1.19,2.28,1.15,1.95,2.57,3.76,4.21,5.31,1.91,1.81,4.13,3.29,6.55,4.33,2.2.95,4.52,1.56,6.85,2.12,3.73.89,7.53,1.39,11.35,1.67,10.98.81,22.16.84,32.82-2.24,4.35-1.25,8.52-3.31,11.77-6.5,1.57-1.54,2.94-3.29,4.14-5.14.53-.81,1.02-1.65,1.49-2.5.36-.67.97-1.5,1.02-2.27.12-2.1.02-4.24.06-6.35.05-2.83.14-5.65.26-8.48.17-3.88.45-7.74.68-11.61.36-5.92.27-11.84.14-17.77-.21-9.42-.3-18.83-.17-28.25.12-8.37.17-16.73.03-25.1-.14-8.52-.11-17.04.18-25.56.1-2.86.22-5.72.36-8.57.03-.64-.97-.64-1,0h0Z"/>
    </g>
    <g>
      <path class="cls-4" d="M96.59,52.24c-5.38,8-9.38,13.75-12.17,21.89-1.18,3.43-1.28,4.76-3.61,11.74-1.37,4.11-1.86,5.21-2.42,7.73-.68,3.09-1.5,6.78-.89,11.09.32,2.28,1.48,10.41,6.53,12.1,3.67,1.23,8.65-1.22,10.47-2.09,3.23-1.55,3.31-2.39,13.81-10.82.82-.66,2.13-1.71,3.79-3.27,2.53-2.38,4.21-4.4,5.44-5.89,4.56-5.53,6.84-8.29,8.36-10.3,9.68-12.82,15.53-20.58,21.41-32.05,2.3-4.49,3.78-7.93,6.47-14.19,3.25-7.56,3.98-10.01,4.51-12.4.78-3.53,1.63-7.56.81-12.56-.44-2.66-1.73-10.55-6.75-12.36-2.67-.97-5.4.14-8.3,1.59-11.25,5.63-18.75,13.29-19.74,14.32-5.29,5.49-10.64,12.56-21.12,26.48-4.98,6.61-6.07,8.22-6.59,8.98Z"/>
      <path d="M96.16,51.98c-3.69,5.48-7.51,10.95-10.24,17-1.04,2.31-1.93,4.68-2.66,7.1-.54,1.8-1.02,3.61-1.57,5.4-.87,2.84-1.86,5.64-2.8,8.46-.75,2.24-1.28,4.56-1.67,6.89-.79,4.67-.43,9.61,1.21,14.08.73,1.98,1.77,3.96,3.45,5.29,2.03,1.6,4.61,1.67,7.05,1.13,2.15-.47,4.19-1.37,6.15-2.35.79-.39,1.53-.85,2.24-1.38,2.81-2.1,5.4-4.52,8.11-6.74,2.35-1.93,4.78-3.78,7-5.87s4.15-4.33,6.06-6.64c7.2-8.72,14.18-17.65,20.52-27.02,3.26-4.82,6.23-9.81,8.87-15s5.04-10.82,7.34-16.32c1.5-3.58,2.89-7.15,3.71-10.94.65-3.03,1.11-6.1.92-9.2-.13-2.14-.51-4.31-1.05-6.39-1.07-4.14-3.41-9.26-8.36-9.45-1.63-.06-3.23.46-4.71,1.09-1.64.7-3.23,1.54-4.78,2.41-2.79,1.56-5.48,3.3-8.06,5.2-3.05,2.25-6,4.69-8.66,7.39-2.4,2.43-4.61,5.04-6.76,7.69-3.3,4.06-6.45,8.22-9.61,12.39-3.49,4.61-7.01,9.2-10.39,13.89-.46.64-.91,1.28-1.35,1.93-.36.54.51,1.04.86.5,1.68-2.5,3.53-4.9,5.33-7.32,3.78-5.04,7.56-10.07,11.41-15.05,4.24-5.48,8.54-11.04,13.7-15.7,3.95-3.56,8.28-6.73,12.88-9.41,1.43-.84,2.9-1.63,4.39-2.35,1.59-.78,3.32-1.56,5.12-1.65,2.56-.13,4.57,1.36,5.89,3.45,1.13,1.79,1.8,3.84,2.28,5.89.51,2.17.86,4.4.9,6.63.04,2.97-.49,5.87-1.14,8.76-.29,1.29-.65,2.56-1.09,3.81-.8,2.33-1.75,4.61-2.71,6.88-1.27,3-2.55,5.99-3.88,8.96-2.25,5.01-4.76,9.89-7.58,14.6-2.92,4.87-6.16,9.53-9.51,14.11s-6.4,8.75-9.81,12.96c-1.69,2.08-3.4,4.15-5.1,6.22-1.88,2.28-3.78,4.53-5.92,6.59s-4.56,3.93-6.89,5.84c-1.82,1.48-3.62,2.99-5.41,4.51-1.6,1.36-3.15,2.79-5.02,3.77-1.69.88-3.46,1.66-5.3,2.17-2.4.67-5.14.87-7.17-.82-2.92-2.44-3.83-6.79-4.35-10.38-.77-5.23.42-10.61,2.11-15.56.95-2.78,1.9-5.56,2.74-8.38.49-1.64.93-3.3,1.43-4.94,1.66-5.45,4.23-10.5,7.25-15.32,1.75-2.79,3.61-5.52,5.45-8.25.36-.54-.51-1.04-.86-.5Z"/>
    </g>
    <path d="M157.37,148.16c-2.12,5.21-5.06,10.43-9.5,14-2.33,1.88-5.15,3.31-7.96,4.29-3.41,1.19-7.04,1.99-10.6,2.56s-7.17.73-10.78.68-7.37-.2-11.03-.51c-5.37-.45-10.74-1.43-15.79-3.37-6.74-2.58-11.42-8.33-13.93-14.95-.23-.6-1.19-.34-.96.27,2.25,5.94,6.19,11.44,11.91,14.44,2.62,1.37,5.5,2.23,8.35,2.96,2.49.64,5.03,1.07,7.58,1.37,3.74.44,7.51.6,11.27.73s7.33.12,10.98-.28,7.59-1.23,11.27-2.28c3-.86,5.84-2.12,8.48-3.79,5.16-3.28,8.59-8.73,11.01-14.22.24-.53.46-1.07.68-1.61.24-.6-.72-.86-.96-.27h0Z"/>
    <path d="M78.15,153.38c2.41-2.92,5.15-5.39,8.35-7.39,5.21-3.25,11.09-5.37,17.05-6.76,6.88-1.6,13.99-2.11,21.03-1.58,4.95.37,9.8,1.31,14.63,2.41,3.57.82,7.12,1.88,10.3,3.71s5.88,4.43,7.9,7.5c.35.53,1.22.03.86-.5-1.81-2.74-4.12-5.14-6.84-6.98s-5.74-3.03-8.85-3.91c-4.99-1.42-10.2-2.41-15.35-2.99-6.92-.77-13.93-.56-20.78.7s-13.14,3.31-18.99,6.64c-3.19,1.82-6.05,4.02-8.54,6.71-.51.55-1.01,1.12-1.49,1.71-.41.49.3,1.2.71.71h0Z"/>
  </g>
  <g id="Layer_3" data-name="Layer 3">
    <path class="cls-4" d="M49.91,9.25c-11.33-6.8-23.93-2.05-30.31.34-4.62,1.74-10.2,3.84-14.41,9.51-7.71,10.39-3.85,23.34-3.29,25.11,3.01,9.56,9.95,14.6,12.01,15.99,9.18,6.17,18.7,5.21,21.99,4.83,2.5-.29,7.88-.98,13.53-4.59,1.28-.82,10.9-7.2,13.41-19.47,2.36-11.55-2.21-25.3-12.93-31.73Z"/>
    <path class="cls-5" d="M50.22,8.82c-3.61-2.14-7.67-3.32-11.86-3.54-3.72-.19-7.45.34-11.05,1.27-2.93.76-5.76,1.8-8.58,2.87-3.24,1.23-6.44,2.61-9.22,4.71C3.28,18.84.12,26.24,0,33.94c-.08,5.04.95,10.13,3.17,14.66,2.36,4.8,6.03,8.98,10.45,11.98,5.98,4.05,13.25,5.68,20.4,5.15,5.73-.43,11.41-1.9,16.21-5.18,3.88-2.65,7.19-6.24,9.58-10.27,3.62-6.1,4.85-13.27,3.82-20.26s-4.17-13.45-9.3-18.13c-1.27-1.16-2.65-2.19-4.12-3.08-.55-.33-1.06.53-.5.86,5.85,3.54,9.93,9.37,11.9,15.86s1.89,13.68-.61,20.05c-2,5.09-5.5,9.58-9.77,12.97s-9.31,5.21-14.57,5.88c-5.77.73-11.6.37-17.05-1.81-5.13-2.05-9.62-5.63-12.87-10.08-3.05-4.17-4.89-9.02-5.5-14.14-.83-6.9.47-14.13,4.89-19.65s10.64-7.71,16.87-9.87c6.71-2.32,14.04-3.68,21.02-1.69,2,.57,3.9,1.41,5.68,2.47.55.33,1.06-.53.5-.86Z"/>
    <g>
      <line class="cls-1" x1="31.94" y1="35.53" x2="49.91" y2="9.25"/>
      <line class="cls-1" x1="61.36" y1="46.03" x2="31.94" y2="35.53"/>
      <line class="cls-1" x1="39.81" y1="65.33" x2="31.94" y2="35.53"/>
      <line class="cls-1" x1="17.46" y1="62.22" x2="31.94" y2="35.53"/>
      <line class="cls-1" x1="1.9" y1="44.22" x2="31.94" y2="35.53"/>
      <line class="cls-1" x1="5.19" y1="19.11" x2="31.94" y2="35.53"/>
      <line class="cls-1" x1="24.7" y1="7.82" x2="31.94" y2="35.53"/>
      <line class="cls-1" x1="62.55" y1="27.32" x2="31.94" y2="35.53"/>
    </g>
  </g>
  <g id="Layer_4" data-name="Layer 4">
    <path class="cls-2" d="M117.54,150.18c3.6-4.21,7.19-8.43,10.79-12.64.6-42.02,1.21-84.03,1.81-126.05-4.12,20.22-8.24,40.44-12.36,60.65-.08,26.01-.16,52.03-.24,78.04Z"/>
    <path class="cls-3" d="M117.53,151.87c7.87-3.95,15.75-7.9,23.62-11.85.3-45.51.6-91.02.9-136.54-8.09,22.88-16.18,45.77-24.27,68.65-.08,26.58-.16,53.15-.24,79.73Z"/>
    <path class="cls-3" d="M117.53,151.87c-7.88-3.38-15.75-6.76-23.63-10.14-.39-27.9-.79-55.81-1.18-83.71,8.35,4.71,16.7,9.41,25.05,14.12-.08,26.58-.16,53.15-.24,79.73Z"/>
    <path class="cls-3" d="M117.53,151.87c10.13,3.63,20.26,7.25,30.38,10.88-.2-36.79-.41-73.58-.61-110.36l-29.53,22.17-.24,77.32Z"/>
    <path class="cls-3" d="M117.53,151.87c-10.3,3.94-20.61,7.88-30.91,11.82-.47-15.54-.95-31.09-1.43-46.63,10.86-14.97,21.72-29.94,32.58-44.92-.08,26.58-.16,53.15-.24,79.73Z"/>
    <path class="cls-2" d="M117.53,151.87c2.49,5.82,4.98,11.64,7.48,17.45-.24-27.84-.47-55.69-.71-83.53-2.17-4.55-4.35-9.1-6.52-13.65-.08,26.58-.16,53.15-.24,79.73Z"/>
    <path d="M96.25,51.98c-3.69,5.48-7.51,10.95-10.24,17-1.04,2.31-1.93,4.68-2.66,7.1-.54,1.8-1.02,3.61-1.57,5.4-.87,2.84-1.86,5.64-2.8,8.46-.75,2.24-1.28,4.56-1.67,6.89-.79,4.67-.43,9.61,1.21,14.08.73,1.98,1.77,3.96,3.45,5.29,2.03,1.6,4.61,1.67,7.05,1.13,2.15-.47,4.19-1.37,6.15-2.35.79-.39,1.53-.85,2.24-1.38,2.81-2.1,5.4-4.52,8.11-6.74,2.35-1.93,4.78-3.78,7-5.87s4.15-4.33,6.06-6.64c7.2-8.72,14.18-17.65,20.52-27.02,3.26-4.82,6.23-9.81,8.87-15s5.04-10.82,7.34-16.32c1.5-3.58,2.89-7.15,3.71-10.94.65-3.03,1.11-6.1.92-9.2-.13-2.14-.51-4.31-1.05-6.39-1.07-4.14-3.41-9.26-8.36-9.45-1.63-.06-3.23.46-4.71,1.09-1.64.7-3.23,1.54-4.78,2.41-2.79,1.56-5.48,3.3-8.06,5.2-3.05,2.25-6,4.69-8.66,7.39-2.4,2.43-4.61,5.04-6.76,7.69-3.3,4.06-6.45,8.22-9.61,12.39-3.49,4.61-7.01,9.2-10.39,13.89-.46.64-.91,1.28-1.35,1.93-.36.54.51,1.04.86.5,1.68-2.5,3.53-4.9,5.33-7.32,3.78-5.04,7.56-10.07,11.41-15.05,4.24-5.48,8.54-11.04,13.7-15.7,3.95-3.56,8.28-6.73,12.88-9.41,1.43-.84,2.9-1.63,4.39-2.35,1.59-.78,3.32-1.56,5.12-1.65,2.56-.13,4.57,1.36,5.89,3.45,1.13,1.79,1.8,3.84,2.28,5.89.51,2.17.86,4.4.9,6.63.04,2.97-.49,5.87-1.14,8.76-.29,1.29-.65,2.56-1.09,3.81-.8,2.33-1.75,4.61-2.71,6.88-1.27,3-2.55,5.99-3.88,8.96-2.25,5.01-4.76,9.89-7.58,14.6s-6.16,9.53-9.51,14.11-6.4,8.75-9.81,12.96c-1.69,2.08-3.4,4.15-5.1,6.22-1.88,2.28-3.78,4.53-5.92,6.59s-4.56,3.93-6.89,5.84c-1.82,1.48-3.62,2.99-5.41,4.51-1.6,1.36-3.15,2.79-5.02,3.77-1.69.88-3.46,1.66-5.3,2.17-2.4.67-5.14.87-7.17-.82-2.92-2.44-3.83-6.79-4.35-10.38-.77-5.23.42-10.61,2.11-15.56.95-2.78,1.9-5.56,2.74-8.38.49-1.64.93-3.3,1.43-4.94,1.66-5.45,4.23-10.5,7.25-15.32,1.75-2.79,3.61-5.52,5.45-8.25.36-.54-.51-1.04-.86-.5Z"/>
  </g>
</svg>