<svg xmlns="http://www.w3.org/2000/svg" viewBox="0 0 224.39 200.16">
  <defs>
    <style>
      .cls-1 {
        fill: #808285;
      }
    </style>
  </defs>
  <title>polar-world-1</title>
  <g id="Layer_2" data-name="Layer 2">
    <g id="Layer_1-2" data-name="Layer 1">
      <g>
        <path class="cls-1" d="M109.82,2.24C106.67,27,107.25,52,107.91,76.9c.32,12.34.66,24.68.56,37-.11,12.52-.72,25-1.47,37.53-.85,14.06-1.81,28.12-2.72,42.18,0,.32.48.32.5,0,1.63-25,3.69-50.09,4.13-75.17.43-24.82-1.13-49.61-1-74.43a341.37,341.37,0,0,1,2.43-41.8c0-.32-.46-.32-.5,0Z"/>
        <path class="cls-1" d="M.24,94.63c29.3.26,58.62.71,87.92.33,14.48-.19,29-.61,43.42-1.42s29.14-2.23,43.68-3.73c16.24-1.67,32.58-3.11,48.89-1.82.32,0,.32-.47,0-.5-14.54-1.15-29.12-.14-43.6,1.29s-29.07,3-43.66,3.94c-29.07,1.83-58.21,2-87.33,1.82-16.44-.1-32.88-.27-49.32-.41a.25.25,0,0,0,0,.5Z"/>
        <path class="cls-1" d="M118.73,77.76c-3.92-2.54-8.51-2.42-13-1.81-3.88.54-7.67,1.44-10.86,3.84a17.94,17.94,0,0,0,.69,28.88,16.64,16.64,0,0,0,6.87,2.42,39.33,39.33,0,0,0,8,.65,13.77,13.77,0,0,0,10.09-5.44,23.37,23.37,0,0,0,3.77-6.8,21.71,21.71,0,0,0,1-9.33,17.57,17.57,0,0,0-4.43-10.59,13,13,0,0,0-2.17-1.82c-.27-.18-.52.25-.26.43,6.4,4.3,7.7,13.69,5.54,20.6-1.54,4.9-5.05,10.07-10.07,11.79a17.61,17.61,0,0,1-7.54.51,34.67,34.67,0,0,1-7.3-1.27,15.56,15.56,0,0,1-8.55-7.6,17.15,17.15,0,0,1-2.09-6.75,17.69,17.69,0,0,1,4.28-13,18.3,18.3,0,0,1,10.89-5.71c3.74-.66,7.76-1.22,11.47-.14a12.58,12.58,0,0,1,3.37,1.55C118.74,78.37,119,77.93,118.73,77.76Z"/>
        <path class="cls-1" d="M117.66,61.87c-6.7-2.47-13.9-1.57-20.27,1.43a35.31,35.31,0,0,0-9.53,6.41,32.9,32.9,0,0,0-6.81,9.86,27.4,27.4,0,0,0-1,21.33A33.32,33.32,0,0,0,89,113.36c5.23,4.77,12,7.61,19.17,6.79,5.88-.66,11.17-3.6,15.58-7.44a33,33,0,0,0,9.48-13.45,31,31,0,0,0,.16-19.77A28,28,0,0,0,122.1,64.07a25.13,25.13,0,0,0-4.44-2.2c-.3-.11-.43.37-.13.48a25.49,25.49,0,0,1,13.84,13.28A31.92,31.92,0,0,1,134.11,94a30.52,30.52,0,0,1-8.92,16.73A32.36,32.36,0,0,1,113,118.56a22.45,22.45,0,0,1-11.38.86,24,24,0,0,1-9.53-4.19,35,35,0,0,1-9.5-10.3A26.49,26.49,0,0,1,80,83.59a33.42,33.42,0,0,1,7.37-12.7A30.88,30.88,0,0,1,94,65.71C99.37,62.4,105.68,60.33,112,61a23,23,0,0,1,5.49,1.31C117.83,62.46,118,62,117.66,61.87Z"/>
        <path class="cls-1" d="M131.73,55.76A35.88,35.88,0,0,0,116,49.6a53.36,53.36,0,0,0-9.87-.36,45.41,45.41,0,0,0-23.35,7.57,44.33,44.33,0,0,0-13.3,14.45,39.61,39.61,0,0,0-4.74,28.58,41.78,41.78,0,0,0,12.15,21,44.52,44.52,0,0,0,16.82,10.05,39.53,39.53,0,0,0,30.87-2.93,49.9,49.9,0,0,0,9.07-6.41,57.09,57.09,0,0,0,7.77-7.93,34.89,34.89,0,0,0,6.89-16.29,41.07,41.07,0,0,0-.85-15.22c-1.78-7.49-4.62-15-9.72-20.89a34.68,34.68,0,0,0-6-5.44c-.27-.19-.52.25-.26.43a34.75,34.75,0,0,1,10.22,11.64,53.69,53.69,0,0,1,4,10,51.34,51.34,0,0,1,2.36,11.71,35.59,35.59,0,0,1-3.26,17.6,38.66,38.66,0,0,1-8.59,11.4,70.54,70.54,0,0,1-7,5.93A40,40,0,0,1,100.76,132a42.32,42.32,0,0,1-21.64-9.79A43.13,43.13,0,0,1,67.4,106.55a38.36,38.36,0,0,1-.11-29.85A45.25,45.25,0,0,1,77.64,61.58a43.7,43.7,0,0,1,24.81-11.53c7-.87,14.43-.51,21.09,2a34.39,34.39,0,0,1,7.93,4.19C131.74,56.38,132,55.94,131.73,55.76Z"/>
        <path class="cls-1" d="M114.6,31.43a68.34,68.34,0,0,0-13.68-1.38A61.19,61.19,0,0,0,78.4,34.43,63,63,0,0,0,48.25,60.28,57.41,57.41,0,0,0,41,79a68.6,68.6,0,0,0-.52,18.77,82.2,82.2,0,0,0,2.4,14.46,55.78,55.78,0,0,0,8.46,18.19A49.18,49.18,0,0,0,67.1,144.55a71.47,71.47,0,0,0,18.78,6.86c3.52.83,7.07,1.54,10.63,2.19a61.45,61.45,0,0,0,12.83,1.16c8.35-.24,16-3.51,23.44-6.91,6.11-2.77,12.19-5.76,17.33-10.13A48.15,48.15,0,0,0,163,120a62.12,62.12,0,0,0,4.14-15,60.27,60.27,0,0,0-.62-21.63,70.1,70.1,0,0,0-4-12.71,66.67,66.67,0,0,0-37.34-36.25,64.11,64.11,0,0,0-10.53-3.06c-.32-.06-.45.42-.14.48a65,65,0,0,1,19.62,7.41,67.08,67.08,0,0,1,12.07,8.91,65.83,65.83,0,0,1,12.08,15.12A69.52,69.52,0,0,1,164,76.29a60.83,60.83,0,0,1,1.3,35.25,52,52,0,0,1-8.17,17.79,47.63,47.63,0,0,1-15.4,13.53c-3,1.67-6,3.11-9.14,4.52A115.54,115.54,0,0,1,121.45,152,42.13,42.13,0,0,1,109,154.27,63.13,63.13,0,0,1,96,153a130.08,130.08,0,0,1-19.86-4.92,51.74,51.74,0,0,1-17.28-10,50.85,50.85,0,0,1-12.49-17.32,64.68,64.68,0,0,1-4.71-16.82A102.71,102.71,0,0,1,40.56,90a55.1,55.1,0,0,1,3.86-20.89A60.57,60.57,0,0,1,54.56,52.33a63,63,0,0,1,15.21-13,60.15,60.15,0,0,1,21-7.88,63.1,63.1,0,0,1,18.61-.38c1.71.22,3.41.51,5.09.85C114.78,32,114.91,31.49,114.6,31.43Z"/>
        <path class="cls-1" d="M116.12,19.21a67.23,67.23,0,0,0-26.65,1.08,86.56,86.56,0,0,0-17.74,6.57A80.62,80.62,0,0,0,52.51,40.17a90.36,90.36,0,0,0-13,15.27A97.59,97.59,0,0,0,31.81,69a96.4,96.4,0,0,0-3.88,9.55c-3.16,9.15-4.56,18.84-3.05,28.47a61.06,61.06,0,0,0,9.59,24.11,71.44,71.44,0,0,0,18.4,18.78,94.84,94.84,0,0,0,24.68,12.26A123.51,123.51,0,0,0,91,165.8a90.21,90.21,0,0,0,15.08,2.12,48.55,48.55,0,0,0,15.26-1.79,92.43,92.43,0,0,0,14-5.48,108.64,108.64,0,0,0,24.15-15,68,68,0,0,0,16.92-21A54.15,54.15,0,0,0,182.15,98a79.91,79.91,0,0,0-4.82-24,87.38,87.38,0,0,0-10.27-19.71,90.27,90.27,0,0,0-9.42-11.51,107.48,107.48,0,0,0-10.08-9.24,71.32,71.32,0,0,0-18.92-11,65.47,65.47,0,0,0-12.52-3.39c-.32-.05-.45.43-.14.48a66.08,66.08,0,0,1,23.24,8.65,84.19,84.19,0,0,1,14.31,11.12,105.16,105.16,0,0,1,7.85,8.23,91,91,0,0,1,10.53,15.5,81.65,81.65,0,0,1,8.32,23.14c1.62,8.43,2.09,17.08.24,25.51a57.67,57.67,0,0,1-11.86,23.81,82.33,82.33,0,0,1-21.16,18,128.66,128.66,0,0,1-12.37,6.61,90.51,90.51,0,0,1-14,5.46,48.21,48.21,0,0,1-15.44,1.72,92.14,92.14,0,0,1-15.14-2.22,111.92,111.92,0,0,1-25.9-8.9,79.89,79.89,0,0,1-21.83-15.64,66.28,66.28,0,0,1-14.2-21.92,54.4,54.4,0,0,1-3.46-26.18,72.94,72.94,0,0,1,5.09-18.66,96.55,96.55,0,0,1,5.44-11.27A94.76,94.76,0,0,1,45.84,47.9,83.78,83.78,0,0,1,61.7,33.38a85.78,85.78,0,0,1,18.48-9.65,71.73,71.73,0,0,1,21.68-4.79,64.79,64.79,0,0,1,14.12.75C116.3,19.74,116.43,19.26,116.12,19.21Z"/>
        <path class="cls-1" d="M108,37.91a57,57,0,0,0-15.6.23,47.6,47.6,0,0,0-20,8.36A50.59,50.59,0,0,0,61.46,57.18,52.15,52.15,0,0,0,56.4,65.4a56.48,56.48,0,0,0-5.22,17.36A59.31,59.31,0,0,0,50.78,96a46.53,46.53,0,0,0,5.92,19.21,44.45,44.45,0,0,0,13.6,14.49,73,73,0,0,0,15.57,7.62,66.84,66.84,0,0,0,16.9,4.41,49.86,49.86,0,0,0,13.9-.66,50.93,50.93,0,0,0,15.76-5.74,47.51,47.51,0,0,0,15.39-14A49.56,49.56,0,0,0,155,105.77a58.85,58.85,0,0,0,1.44-22.71A52.67,52.67,0,0,0,150.9,65.5a50.26,50.26,0,0,0-13.35-16,53.59,53.59,0,0,0-14.62-8.12,60.07,60.07,0,0,0-11.72-3c-1.08-.16-2.17-.3-3.26-.42-.32,0-.32.47,0,.5a59.71,59.71,0,0,1,22.16,6.74,50.5,50.5,0,0,1,24.17,30,56.81,56.81,0,0,1,1.56,24.12A49.34,49.34,0,0,1,140.4,129a49.61,49.61,0,0,1-47.23,10.35,103.67,103.67,0,0,1-14.93-5.71,50.28,50.28,0,0,1-15-10.47A43.63,43.63,0,0,1,52.8,104.57a51.81,51.81,0,0,1-1.63-16.68,59.69,59.69,0,0,1,2.66-14.76,52.32,52.32,0,0,1,12.4-20.76A47.47,47.47,0,0,1,102,38c2,.05,4,.21,6,.43C108.27,38.45,108.27,38,108,37.91Z"/>
        <path class="cls-1" d="M115.92,14.71c-9.89-.88-19.83-1.79-29.73-.46a80.94,80.94,0,0,0-16.24,4A86.37,86.37,0,0,0,48,29.77,74.55,74.55,0,0,0,28.1,51.13,80.58,80.58,0,0,0,18,77.64a86.64,86.64,0,0,0-.78,27.27,88.43,88.43,0,0,0,7.57,26.15,83.47,83.47,0,0,0,15.46,22.48A91.87,91.87,0,0,0,61.7,170a102,102,0,0,0,25.2,9.89,94.53,94.53,0,0,0,29.15,2.83,58.45,58.45,0,0,0,27.85-9.33,117.43,117.43,0,0,0,10.67-8.06c3.55-2.94,7.12-5.88,10.53-9a79.22,79.22,0,0,0,17.32-21.85,79.11,79.11,0,0,0,8.34-28.11,115.32,115.32,0,0,0,.09-20.1c-.58-8.67-1.89-17.21-5.28-25.27a61,61,0,0,0-7.89-13.57,94.06,94.06,0,0,0-8-8.83,90.18,90.18,0,0,0-16.51-13.48,64.4,64.4,0,0,0-24.05-9c-4.38-.67-8.81-1-13.22-1.42-.32,0-.32.47,0,.5,8.35.75,16.7,1.42,24.63,4.32A72.23,72.23,0,0,1,163,33c2.25,2,4.39,4,6.49,6.12a89.61,89.61,0,0,1,8.17,9.14,62.29,62.29,0,0,1,11.53,27.3,128.06,128.06,0,0,1,1.56,19.66,86.9,86.9,0,0,1-3.14,24.86,73.41,73.41,0,0,1-14.1,26.89c-5.68,6.82-12.59,12.46-19.41,18.09a111.74,111.74,0,0,1-10.79,8.11,59.13,59.13,0,0,1-12.61,6.15c-9.9,3.43-20.63,3.62-30.95,2.41A103.6,103.6,0,0,1,73.5,175,97,97,0,0,1,50,161.64a83.66,83.66,0,0,1-29.74-44.21,87.72,87.72,0,0,1-3.22-27,82.7,82.7,0,0,1,5.51-26.87A73.3,73.3,0,0,1,37.82,39.27,82.75,82.75,0,0,1,60.64,22.71a85.64,85.64,0,0,1,18.23-6.6,83.43,83.43,0,0,1,22.28-2c4.94.18,9.86.64,14.77,1.08C116.24,15.24,116.24,14.74,115.92,14.71Z"/>
        <path class="cls-1" d="M109.72,93.48a337.75,337.75,0,0,1,29-67.34q5.09-9,10.73-17.65c.17-.27-.26-.52-.44-.25A338.4,338.4,0,0,0,115.9,73.8q-3.63,9.67-6.66,19.54a.25.25,0,0,0,.48.14Z"/>
        <path class="cls-1" d="M108.63,94.64q14.88-13.87,29.2-28.33t28-29.43q7.69-8.42,15.2-17c.21-.24-.14-.6-.36-.35q-13.37,15.29-27.34,30T124.81,78.52q-8.18,8-16.53,15.77c-.24.22.12.57.35.35Z"/>
        <path class="cls-1" d="M108.58,94.68q17.94-8.57,36.05-16.8T181,61.78q10.32-4.45,20.7-8.78c.3-.12.17-.61-.13-.48q-18.35,7.66-36.55,15.68T128.69,84.66q-10.2,4.74-20.36,9.59c-.29.14,0,.57.25.43Z"/>
        <path class="cls-1" d="M108.39,94.71q20.08,5.66,39.78,12.59T187,122.44q11,4.68,21.82,9.69c.29.14.54-.29.25-.43q-19.12-8.88-38.76-16.65-19.43-7.67-39.31-14-11.19-3.6-22.51-6.77a.25.25,0,0,0-.13.48Z"/>
        <path class="cls-1" d="M108.09,94.41q15.61,14.5,30.57,29.71T168,155.21q8,8.89,15.8,18c.2.23.51-.06.39-.3l-1.14-2.4c-.14-.29-.57,0-.43.25l1.14,2.4.39-.31Q170.18,156.6,155.56,141T125.7,110.5q-8.52-8.32-17.26-16.44c-.23-.22-.59.13-.35.35Z"/>
        <path class="cls-1" d="M108,95.09c-.41,7.35,1.4,14.55,3.34,21.57s4,13.82,6.19,20.67q6.6,20.55,14.84,40.51Q137,189,142.08,200c.14.29.57,0,.44-.25q-9.12-19.51-16.64-39.73t-13.34-40.78c-2.22-7.86-4.55-15.92-4.09-24.18,0-.32-.48-.32-.5,0Z"/>
        <path class="cls-1" d="M107.53,94.34l-15.87,35.3L75.89,164.72l-4.4,9.79-2.25,5L68.11,182a5.92,5.92,0,0,1-.45.91c-.14.22-.27.44-.56.35s0-.19-.13-.25c.26.2.51-.23.26-.43-.56-.42-1,.43-.77.89.36.95,1.44,0,1.72-.46a22.68,22.68,0,0,0,1-2.24l1.07-2.39,2.15-4.78L81,154.49q8.59-19.12,17.2-38.26L108,94.59c.13-.29-.3-.54-.44-.25Z"/>
        <path class="cls-1" d="M108.33,94.25q-16.1,12-31.32,25.09t-29.65,27.4q-8,8-15.75,16.26c-.22.24.13.59.35.36q13.71-14.73,28.44-28.47t30.22-26.26q8.85-7.16,18-13.95c.26-.19,0-.62-.25-.43Z"/>
        <path class="cls-1" d="M108.2,94a378,378,0,0,0-38.29,10.17,276.74,276.74,0,0,0-35.92,15c-6.62,3.29-13.15,6.75-19.66,10.26-.28.15,0,.59.25.43,11.47-6.19,23-12.22,35-17.42A265.41,265.41,0,0,1,86.84,99.64c7.12-1.91,14.3-3.59,21.49-5.17.32-.07.18-.55-.13-.48Z"/>
        <path class="cls-1" d="M108.51,94.17q-3.21-18-5.59-36.08T99,22q-.87-10.17-1.47-20.36c0-.32-.52-.33-.5,0q1.08,18.22,3,36.41,1.9,18,4.63,36,1.55,10.17,3.36,20.3c0,.32.53.18.48-.13Z"/>
        <path class="cls-1" d="M108,94.34,86.61,58.87,65.26,23.4,53.3,3.53a.25.25,0,0,0-.43.25L74.22,39.25,95.57,74.72l12,19.87a.25.25,0,0,0,.44-.25Z"/>
        <path class="cls-1" d="M108.33,94.87,75.52,70.39,42.9,46.05,24.5,32.31c-.26-.2-.51.24-.25.43L57.06,57.23,89.67,81.57l18.4,13.74c.26.19.51-.24.26-.44Z"/>
        <path class="cls-1" d="M107.82,94.23q-18.42-7.4-37.25-13.7T32.54,69q-10.75-2.92-21.6-5.49c-.31-.07-.45.41-.13.48q19.35,4.59,38.41,10.28t37.7,12.49q10.45,3.8,20.76,7.94c.3.12.43-.37.14-.48Z"/>
        <path class="cls-1" d="M109,93.89,131.4,61.3l22.44-32.6,12.6-18.3c.18-.26-.25-.51-.43-.25L143.57,42.74l-22.45,32.6-12.6,18.3c-.18.26.25.51.43.25Z"/>
        <path class="cls-1" d="M108.7,94.47q2.42-18.75,6.33-37.26t9.25-36.63q3-10.21,6.47-20.28c.11-.3-.38-.43-.48-.13q-6.2,18-11,36.54Q114.62,55,111.37,73.57,109.56,84,108.2,94.47c0,.32.46.31.5,0Z"/>
        <path class="cls-1" d="M109.61,93.63q16-9.73,31.43-20.41t30-22.16q8.26-6.48,16.31-13.26l-.4-.3-.92,1.43a.25.25,0,0,0,.43.26l.93-1.44c.16-.25-.19-.47-.4-.3q-14.35,12.09-29.43,23.29Q142.69,71.81,127.14,82q-8.81,5.74-17.78,11.2a.25.25,0,0,0,.25.44Z"/>
        <path class="cls-1" d="M109,94.27q17.69-4,35.28-8.28,17.34-4.24,34.59-8.82,9.54-2.52,19-5.15a.25.25,0,0,0-.13-.48q-17,4.71-34.13,9.09-17.48,4.47-35,8.61-9.87,2.33-19.75,4.54c-.32.08-.18.56.13.49Z"/>
        <path class="cls-1" d="M110.27,94.32a216.78,216.78,0,0,0,35.33,6c11.77,1,23.6.92,35.38,1.9a126.09,126.09,0,0,1,19.79,3.08.25.25,0,0,0,.13-.48c-11.43-2.84-23.24-3.47-35-3.94-5.9-.23-11.8-.43-17.69-.85s-12-1.13-18-2.07c-6.68-1-13.3-2.43-19.85-4.1a.25.25,0,0,0-.13.48Z"/>
        <path class="cls-1" d="M108.33,94.68c12.56,5.42,24.16,12.88,35.69,20.17a168.48,168.48,0,0,1,16.8,11.75c4.86,4,9.25,8.44,13.74,12.8,4.91,4.78,10,9.44,15.95,12.92a.25.25,0,0,0,.25-.43c-10.76-6.33-18.58-16.31-28-24.31a150.4,150.4,0,0,0-16.35-11.8q-8.59-5.52-17.37-10.77a175.77,175.77,0,0,0-20.47-10.76c-.29-.12-.55.31-.25.43Z"/>
        <path class="cls-1" d="M108,94.3c3,12.2,10.35,22.55,17.57,32.57,3.83,5.31,7.61,10.64,11,16.25,3.59,6,6.82,12.12,9.86,18.37,3.42,7,6.59,14.2,9.77,21.35.13.29.56,0,.43-.26-5.65-12.72-11.31-25.48-18.33-37.52-3.29-5.64-6.95-11-10.76-16.32-3.65-5.08-7.37-10.13-10.66-15.47a66.77,66.77,0,0,1-8.39-19.1.25.25,0,0,0-.48.13Z"/>
        <path class="cls-1" d="M107.51,94.4,97,133.44l-10.52,39L80.54,194.4a.26.26,0,0,0,.49.14l10.52-39,10.53-39L108,94.53a.25.25,0,0,0-.48-.13Z"/>
        <path class="cls-1" d="M107.57,94.29c-9.26,8.71-16.82,19-24.39,29.14L58.55,156.49,44.66,175.12c-.19.26.24.51.43.25l24.64-33.05L82,125.89c3.86-5.17,7.68-10.37,11.69-15.43a148.56,148.56,0,0,1,14.27-15.82c.23-.22-.12-.57-.36-.35Z"/>
        <path class="cls-1" d="M107.86,93.83q-17.1,9.4-33.95,19.22T40.43,133.11q-9.32,5.74-18.55,11.61c-.27.17,0,.61.25.43q16.47-10.46,33.2-20.52T89,104.93q9.51-5.4,19.09-10.67c.28-.15,0-.59-.25-.43Z"/>
        <path class="cls-1" d="M108.48,94.11Q100.76,77,94,59.53T81.64,24.39q-3.19-10-6.07-20.09a.25.25,0,0,0-.48.14q5.13,18,11.28,35.71T99.74,75.2q4,9.64,8.31,19.16c.13.29.56,0,.43-.25Z"/>
        <path class="cls-1" d="M108.82,95Q95.92,79.26,82.64,63.78T55.72,33.12q-7.63-8.5-15.38-16.89c-.22-.24-.57.12-.35.35q13.83,15,27.33,30.32T93.91,77.83q7.34,8.73,14.56,17.56c.2.25.55-.1.35-.35Z"/>
        <path class="cls-1" d="M108.33,94.87a24.15,24.15,0,0,0-8.65-1.72,74.08,74.08,0,0,1-9.63-1c-3.24-.6-6.43-1.45-9.63-2.28S73.9,88.3,70.6,87.65A245.23,245.23,0,0,0,31.13,83.6c-7.54-.25-15.09-.32-22.63-.39a.25.25,0,0,0,0,.5c13.23.12,26.49.24,39.69,1.37,6.68.56,13.33,1.39,19.92,2.6q4.85.88,9.63,2.07c3.17.79,6.31,1.66,9.5,2.37a61.24,61.24,0,0,0,10.45,1.43c3.51.18,7.12.28,10.38,1.76.29.13.55-.3.26-.44Z"/>
        <path class="cls-1" d="M108.27,94Q89.4,95.53,70.68,98.32q-19.46,2.9-38.68,7.14-10,2.22-20,4.8a.26.26,0,0,0,.14.49q18-4.66,36.27-8.14,19.53-3.73,39.31-6.07Q98,95.33,108.27,94.48c.31,0,.32-.52,0-.5Z"/>
      </g>
    </g>
  </g>
</svg>
