<svg xmlns="http://www.w3.org/2000/svg" viewBox="0 0 182 139.39">
  <defs>
    <style>
      .cls-1 {
        fill: #808285;
      }

      .cls-2 {
        fill: #ed2024;
      }

      .cls-3 {
        fill: #231f20;
      }

      .cls-4 {
        fill: #00aeef;
      }

      .cls-5 {
        fill: #00a651;
      }
    </style>
  </defs>
  <title>polar-differential-derivation-3</title>
  <g id="Layer_2" data-name="Layer 2">
    <g id="Layer_1-2" data-name="Layer 1">
      <path class="cls-1" d="M20.17,139.15c-1.64-18-1.59-36.06-1.52-54.1s.15-36.21.23-54.31l.06-15.24L19,8A34.32,34.32,0,0,1,19.44.31.25.25,0,0,0,19,.18a29.08,29.08,0,0,0-.47,6.46l0,6.92-.06,13.58-.11,27.15c-.07,18.08-.33,36.16-.07,54.24.14,10.22.54,20.44,1.46,30.62,0,.32.53.32.5,0Z"/>
      <path class="cls-1" d="M.24,119.5q19.11-.52,38.21-.79,19.27-.27,38.55-.29,11.13,0,22.25-.27,16.05-.33,32.09-1,21.91-.83,43.82-2l6.41-.33c.32,0,.32-.52,0-.5q-22.71,1.2-45.44,2.13-16.71.67-33.44,1.09c-7.83.18-15.67.31-23.5.33-11.55,0-23.09.08-34.63.22q-20.36.24-40.69.77L.24,119c-.32,0-.32.51,0,.5Z"/>
      <g>
        <path class="cls-2" d="M103.9,5a51.86,51.86,0,0,1,16.19,3.1A42.29,42.29,0,0,1,131.5,14c7.55,5.67,10.87,12.88,12.67,16.9,6.07,13.58,4.48,26.53,3.37,32.37q-16,7.16-32.8,14.22Q99.2,84.07,84.05,90.06a34.22,34.22,0,0,0,.47-11.54c-.49-3.72-1-7.68-3.94-11.45a20.41,20.41,0,0,0-9.2-6.38,26.45,26.45,0,0,0-8.44-1.88A160.31,160.31,0,0,0,82.64,35c2.59-3.85,4.55-7.16,8.87-13.38C96.52,14.43,100.92,8.75,103.9,5Z"/>
        <path class="cls-3" d="M103.9,5.53a52.52,52.52,0,0,1,16.67,3.31,38.93,38.93,0,0,1,14.87,9.37,42.82,42.82,0,0,1,7.84,12,52.65,52.65,0,0,1,4.66,17.92,58.28,58.28,0,0,1-.88,15.09l.23-.3Q135.17,68.29,123,73.52,110.42,78.86,97.8,84q-6.93,2.82-13.88,5.57l.61.62a37.59,37.59,0,0,0-.88-18.48A17.52,17.52,0,0,0,78.33,64a23.84,23.84,0,0,0-6.25-3.59,28.26,28.26,0,0,0-9.14-2.12l.35.85a164,164,0,0,0,18-21.34c2-2.85,3.87-5.78,5.77-8.69q4.08-6.28,8.49-12.35,4.2-5.79,8.68-11.39c.39-.5-.31-1.21-.71-.71Q94.88,15.51,87.22,27.1c-2,3-3.85,6-5.87,8.94Q78,40.92,74.26,45.51a172.53,172.53,0,0,1-11.68,13,.5.5,0,0,0,.36.85A26.06,26.06,0,0,1,71,61.08a25.5,25.5,0,0,1,5.81,3,16.53,16.53,0,0,1,5.64,7.29,31.62,31.62,0,0,1,1.69,8.34,34.18,34.18,0,0,1-.59,10.19c-.07.33.23.77.62.62Q100.81,84,117.29,77q8.29-3.51,16.54-7.09l8.24-3.62,4-1.76.88-.39a3.41,3.41,0,0,0,1-.47c.21-.22.21-.65.26-.94A56.46,56.46,0,0,0,147,37.11,55.65,55.65,0,0,0,142,25.51a38.53,38.53,0,0,0-8.47-10.45A41.61,41.61,0,0,0,121,7.92a53.88,53.88,0,0,0-14.33-3.24c-.91-.07-1.82-.12-2.74-.15C103.26,4.51,103.26,5.51,103.9,5.53Z"/>
      </g>
      <g>
        <path class="cls-1" d="M19.44,116.32a3.46,3.46,0,0,1,1.38-1.75.25.25,0,0,0-.25-.43,4,4,0,0,0-1.61,2,.25.25,0,0,0,.18.31.25.25,0,0,0,.3-.17Z"/>
        <path class="cls-1" d="M24.49,109.16l1.45-2.11a.25.25,0,0,0-.09-.34.26.26,0,0,0-.34.09l-1.45,2.1a.26.26,0,0,0,.09.34.24.24,0,0,0,.34-.08Z"/>
        <path class="cls-1" d="M26.85,105.69l1.88-2.24a.26.26,0,0,0,0-.36.25.25,0,0,0-.35,0l-1.89,2.25a.26.26,0,0,0,0,.35.25.25,0,0,0,.36,0Z"/>
        <path class="cls-1" d="M31.25,100.42A8.86,8.86,0,0,1,33.07,98c.24-.23-.11-.58-.35-.36a9.71,9.71,0,0,0-1.91,2.5c-.15.28.28.54.44.25Z"/>
        <path class="cls-1" d="M34.84,95.83l1.52-2.23a.26.26,0,0,0-.09-.35.26.26,0,0,0-.34.09l-1.52,2.24a.25.25,0,0,0,.09.34.24.24,0,0,0,.34-.09Z"/>
        <path class="cls-1" d="M42.19,85.77l2.62-3c.21-.24-.14-.59-.35-.35l-2.62,3c-.21.24.14.6.35.35Z"/>
        <path class="cls-1" d="M47.17,79.9A7.06,7.06,0,0,1,49,77c.23-.23-.13-.58-.36-.35a7.7,7.7,0,0,0-1.91,3.14c-.09.31.39.44.49.13Z"/>
        <path class="cls-1" d="M51.43,74.31l1.69-2.25a.25.25,0,1,0-.43-.25L51,74.06a.25.25,0,1,0,.43.25Z"/>
        <path class="cls-1" d="M55.27,69.11l1.52-1.87a.26.26,0,0,0,0-.35.25.25,0,0,0-.36,0l-1.51,1.86a.27.27,0,0,0,0,.36.25.25,0,0,0,.35,0Z"/>
        <path class="cls-1" d="M59.09,64.38l.75-1.13a.26.26,0,0,0-.09-.34.24.24,0,0,0-.34.09l-.76,1.13a.26.26,0,0,0,.09.34.26.26,0,0,0,.35-.09Z"/>
        <path class="cls-1" d="M61.14,61.37l.79-1.1a.24.24,0,0,0-.09-.34.26.26,0,0,0-.34.09l-.79,1.1a.25.25,0,0,0,.09.34.26.26,0,0,0,.34-.09Z"/>
        <path class="cls-1" d="M64.24,59l.19-.19a.22.22,0,0,0,0-.08.3.3,0,0,0,0-.1.29.29,0,0,0,0-.09.16.16,0,0,0,0-.08l-.05,0a.22.22,0,0,0-.13,0h-.07a.19.19,0,0,0-.11.07l-.19.18a.35.35,0,0,0-.05.08.26.26,0,0,0,0,.2.35.35,0,0,0,.05.08l.06,0a.24.24,0,0,0,.12,0h.07a.24.24,0,0,0,.11-.06Z"/>
        <path class="cls-1" d="M78.31,91.89A7.89,7.89,0,0,1,76.21,93a.25.25,0,0,0-.17.3.25.25,0,0,0,.31.18,8.24,8.24,0,0,0,2.31-1.26.25.25,0,0,0-.35-.35Z"/>
        <path class="cls-1" d="M74.35,94.09a4.79,4.79,0,0,1-1.94,1.06.25.25,0,0,0,.13.49,5.35,5.35,0,0,0,2.16-1.2.24.24,0,0,0,0-.35.25.25,0,0,0-.35,0Z"/>
        <path class="cls-1" d="M71.07,95.93a7.47,7.47,0,0,0-2,1.06.27.27,0,0,0-.09.35.26.26,0,0,0,.34.09,7.09,7.09,0,0,1,1.87-1,.26.26,0,0,0,.18-.3.25.25,0,0,0-.31-.18Z"/>
        <path class="cls-1" d="M67.22,97.45l-2.07,1.17a.25.25,0,0,0,.25.43l2.07-1.17a.25.25,0,0,0-.25-.43Z"/>
        <path class="cls-1" d="M62.81,99.29a5.71,5.71,0,0,1-1.71.6.25.25,0,0,0-.18.31.27.27,0,0,0,.31.17,5.86,5.86,0,0,0,1.83-.64.26.26,0,0,0,.09-.35.27.27,0,0,0-.34-.09Z"/>
        <path class="cls-1" d="M52.58,103.78l-2.22,1a.25.25,0,0,0,.25.44l2.22-1a.24.24,0,0,0,.09-.34.25.25,0,0,0-.34-.09Z"/>
        <path class="cls-1" d="M48.52,105.66l-2.65,1a.26.26,0,0,0-.17.31.25.25,0,0,0,.31.17l2.64-1a.25.25,0,0,0,.18-.3.25.25,0,0,0-.31-.18Z"/>
        <path class="cls-1" d="M41.27,108.43c-.86.36-1.73.68-2.61,1-.31.1-.18.58.13.48.92-.3,1.84-.64,2.73-1a.24.24,0,0,0,.09-.34.26.26,0,0,0-.34-.09Z"/>
        <path class="cls-1" d="M36.66,110.12l-2.22,1.08a.25.25,0,0,0-.09.34.26.26,0,0,0,.34.09l2.22-1.08a.24.24,0,0,0,.09-.34.26.26,0,0,0-.34-.09Z"/>
        <path class="cls-1" d="M33.06,112a6,6,0,0,1-2.12.51.25.25,0,0,0-.25.25.25.25,0,0,0,.25.25,6.5,6.5,0,0,0,2.37-.58.26.26,0,0,0,.09-.34.25.25,0,0,0-.34-.09Z"/>
        <path class="cls-1" d="M29.78,113.2l-2.07.38a.25.25,0,0,0-.17.31.26.26,0,0,0,.31.18l2.06-.39a.26.26,0,0,0,.18-.31.25.25,0,0,0-.31-.17Z"/>
        <path class="cls-1" d="M22.88,115.71,21,116.6a.26.26,0,0,0-.09.34.26.26,0,0,0,.35.09l1.87-.89a.26.26,0,0,0,.09-.34.25.25,0,0,0-.34-.09Z"/>
        <path class="cls-1" d="M80.53,91.71l1.29-.8a.24.24,0,0,0,.09-.34.25.25,0,0,0-.34-.09l-1.29.8a.24.24,0,0,0-.09.34.26.26,0,0,0,.34.09Z"/>
        <path class="cls-1" d="M38.56,91.21l2.62-3c.21-.24-.14-.6-.35-.35l-2.62,3c-.22.24.14.59.35.35Z"/>
        <path class="cls-1" d="M55.32,103.23a5.43,5.43,0,0,1,.57-.35l.28-.15.16-.07.08,0,0,0h0a.27.27,0,0,0,.15-.11.25.25,0,0,0,0-.19.26.26,0,0,0-.31-.18,6.81,6.81,0,0,0-1.24.68.25.25,0,0,0,.25.43Z"/>
        <path class="cls-1" d="M58.21,101.48l1.13-.63a.26.26,0,0,0,.09-.34.25.25,0,0,0-.34-.09l-1.13.63a.25.25,0,0,0,.25.43Z"/>
        <path class="cls-1" d="M43.07,108.11a5.36,5.36,0,0,1,.57-.34l.29-.15.15-.07,0,0,.08,0a.27.27,0,0,0,.15-.11.28.28,0,0,0,0-.2.25.25,0,0,0-.3-.17,6.49,6.49,0,0,0-1.25.66.25.25,0,0,0,.25.43Z"/>
        <path class="cls-1" d="M24.71,115.69a6.42,6.42,0,0,1,.56-.34l.3-.15.14-.07.05,0,.08,0A.27.27,0,0,0,26,115a.28.28,0,0,0,0-.2.26.26,0,0,0-.31-.17,6.41,6.41,0,0,0-1.24.66.25.25,0,1,0,.25.43Z"/>
        <path class="cls-1" d="M21.88,112.92l1.45-2.1a.25.25,0,0,0-.09-.34.24.24,0,0,0-.34.09l-1.45,2.1a.25.25,0,0,0,.09.34.26.26,0,0,0,.34-.09Z"/>
      </g>
      <path class="cls-1" d="M29.41,102.58A7.82,7.82,0,0,1,35,104.42c1.59,1.46,1.92,3.59,2.14,5.63l.37-.21-.24-.17c-.27-.18-.52.25-.25.43l.24.17a.25.25,0,0,0,.38-.22c-.23-2.17-.59-4.43-2.29-6a8.28,8.28,0,0,0-6-2c-.32,0-.32.52,0,.5Z"/>
      <g>
        <path class="cls-1" d="M42.37,92.74l.77,8.77.37-.21c-.89-.61-.91-2.14-2.23-2.18s-2,1.24-2.28,2.31c-.24.91-.2,2.18.84,2.56a2.59,2.59,0,0,0,1.87-.22,22.74,22.74,0,0,0,2.23-1.06c.28-.15,0-.58-.25-.43q-.75.41-1.53.75a4.81,4.81,0,0,1-1.6.54c-1.35.1-1.31-1.38-1-2.28S41,98.86,42,100c.49.55.64,1.3,1.28,1.74a.26.26,0,0,0,.38-.22l-.77-8.77c0-.32-.52-.32-.5,0Z"/>
        <path class="cls-1" d="M46.94,96.13a7.71,7.71,0,0,0-.9,4.72,2.71,2.71,0,0,0,.88,1.94,1.72,1.72,0,0,0,1.82.2,3.24,3.24,0,0,0,1.51-1.69A9.17,9.17,0,0,0,51,98.8c.23-1.48.26-3.37-.86-4.52a2.24,2.24,0,0,0-2-.72A1.8,1.8,0,0,0,46.72,95c-.06.32.42.45.48.14a1.36,1.36,0,0,1,1.84-1,2.47,2.47,0,0,1,1.44,1.77,7.84,7.84,0,0,1-.59,5c-.33.72-.79,1.54-1.62,1.74s-1.54-.64-1.69-1.46a9.11,9.11,0,0,1,0-2.39,5.36,5.36,0,0,1,.78-2.4c.18-.27-.25-.52-.43-.25Z"/>
        <path class="cls-1" d="M47.24,99.34a14,14,0,0,1,3.59-.43.25.25,0,0,0,0-.5,14.65,14.65,0,0,0-3.73.45c-.31.07-.18.56.14.48Z"/>
      </g>
      <g>
        <path class="cls-3" d="M164.46,15.79a76.92,76.92,0,0,1,.33,17.49l1.86-.51a6.29,6.29,0,0,0-5-3.62,5.86,5.86,0,0,0-5.57,2.48,6,6,0,0,0-.57,6.27c1.19,2.22,4,2.41,6.29,2.29,2.44-.13,4.89-.95,6.28-3.09.7-1.09-1-2.09-1.73-1a5.22,5.22,0,0,1-3.81,2,12.94,12.94,0,0,1-2.41,0,4,4,0,0,1-2.47-.71c-1.11-1-.92-3-.26-4.19A4,4,0,0,1,161,31.09a4.39,4.39,0,0,1,3.94,2.69,1,1,0,0,0,1.13.46,1.05,1.05,0,0,0,.74-1,79.28,79.28,0,0,0-.4-18,1,1,0,0,0-1.23-.7,1,1,0,0,0-.7,1.23Z"/>
        <path class="cls-3" d="M170.64,37.76a76.25,76.25,0,0,1,3.1-20.13c.12-.37.65-2.93,1.43-2.44a4.21,4.21,0,0,1,1.06,1.52,15.56,15.56,0,0,1,1,1.92A29.89,29.89,0,0,1,179.09,27c.35,3.29.47,6.59.9,9.87a1,1,0,0,0,1,1,1,1,0,0,0,1-1c-.84-6.4-.47-13.14-3.06-19.19a10.58,10.58,0,0,0-2.48-4,2.41,2.41,0,0,0-3.68.87,9.69,9.69,0,0,0-.85,2.23c-.28.91-.54,1.84-.78,2.76-.48,1.85-.9,3.72-1.24,5.61a78.69,78.69,0,0,0-1.26,12.63,1,1,0,0,0,2,0Z"/>
        <path class="cls-3" d="M170.83,28.56a59.42,59.42,0,0,1,8.76-1.79,1,1,0,0,0,1-1,1,1,0,0,0-1-1,62.62,62.62,0,0,0-9.29,1.86,1,1,0,0,0,.53,1.93Z"/>
      </g>
      <path class="cls-4" d="M60.75,57.19C59.93,56.77,59,56.12,59,55.1a3.19,3.19,0,0,1,.72-1.66c1.2-1.68,2.69-3.14,3.89-4.82A26.11,26.11,0,0,0,65.84,45c.46-1,.84-1.94,1.29-2.9A49.83,49.83,0,0,1,70,36.74a75.29,75.29,0,0,1,5.79-8,.25.25,0,0,0,0-.35,13,13,0,0,1-4.68-7.94l-.31.31,8.56,2.77a.26.26,0,0,0,.25-.07,64.73,64.73,0,0,0,8-11.56A31.14,31.14,0,0,1,91.94,5.7c1.28-1.37,2.82-3,4.68-3.51,1.69-.51,3.17.6,4.11,1.94.18.27.62,0,.43-.25-.87-1.24-2.21-2.43-3.83-2.33a6.94,6.94,0,0,0-3.67,1.81A24.81,24.81,0,0,0,88.3,9.72c-1.19,2-2.21,4-3.43,6a57.12,57.12,0,0,1-5.59,7.46l.25-.06L71,20.3a.26.26,0,0,0-.31.31,13.37,13.37,0,0,0,4.82,8.16v-.35A63.28,63.28,0,0,0,66.8,41.59c-.48,1-.89,2.1-1.39,3.12A27.12,27.12,0,0,1,63,48.6c-1.23,1.7-2.84,3.16-3.95,4.93a2.88,2.88,0,0,0-.54,1.88,3.18,3.18,0,0,0,2,2.21c.28.14.53-.29.25-.43Z"/>
      <g>
        <path class="cls-4" d="M59.77,15.06l6,5,.26-.64a3.31,3.31,0,0,0-3.2,1.44,2.22,2.22,0,0,0,.62,3c1.09.66,2.41,0,3.23-.77a8,8,0,0,0,2-3.79c.12-.47-.61-.67-.72-.2a8.27,8.27,0,0,1-1.42,3c-.53.66-1.48,1.45-2.39,1.22a1.41,1.41,0,0,1-.69-2.08A2.62,2.62,0,0,1,66,20.13a.38.38,0,0,0,.27-.64l-6-5c-.37-.3-.91.23-.53.53Z"/>
        <path class="cls-4" d="M63.39,13.35a35.77,35.77,0,0,0,6.35,4.43c.36.19.79-.31.45-.59-1.29-1.09-2.77-2.28-3.33-3.93a3.31,3.31,0,0,1,1-3.89c.41-.26,0-.91-.38-.65A4,4,0,0,0,66,13.13c.5,1.95,2.15,3.35,3.62,4.59l.46-.59a34,34,0,0,1-6.19-4.32c-.37-.31-.9.22-.54.54Z"/>
      </g>
      <g>
        <path class="cls-5" d="M106.11,45.05l-.73,0,1,.73,0-.12c.06,0,0,.23,0,.08,0,.28,0,.15,0,.09s0,.06,0,.07a.45.45,0,0,0,.06-.12c.07-.14,0,0,0,0a2.83,2.83,0,0,0,.24-.25l.11-.1s-.19.14,0,0l.23-.15.22-.13.12-.06c.17-.08-.14,0,0,0l.25-.08c.25-.06-.2,0,0,0,0,0,.16,0,0,0s0,0,0,0-.19-.1-.08,0-.15-.16,0,0c-.15-.18-.07-.1,0,0-.1-.2-.06-.12,0-.06s0-.06,0-.07V45c0,.17,0-.07,0-.06a.79.79,0,0,0,0,.13l0,.12c-.06.17.07-.14,0,0a1.55,1.55,0,0,1-.12.22l-.06.1c-.07.11.13-.15,0-.06s-.11.13-.17.18l-.09.09c-.11.1,0,0,0,0-.14.07-.27.18-.42.26l-.12.05s.21-.07.07,0l-.31.1-.24.06a.3.3,0,0,0-.13,0h-.46c-.25,0,.21,0,0,0L105,46l-.12,0c-.13,0,.18.09.06,0l-.24-.13c-.14-.08,0,0,.06.05s-.07-.06-.09-.08-.06-.08-.08-.08.12.17.06.06l-.06-.1c.09,0,.06.2,0,.08a.27.27,0,0,0,0-.12c0,.14,0,.18,0,.1v-.1s-.06.23,0,.07,0-.13,0-.13-.12.2,0,.05a.75.75,0,0,0,.07-.12c.08-.12,0,0,0,0s.1-.11.1-.1.1-.09.1-.1-.16.11,0,0l.14-.08s.18-.08,0,0h0l.15,0,.3-.07.16,0h0a3,3,0,0,1,.52,0c.13,0,0,0-.09,0l.11,0s-.22-.12-.08,0l-.12-.09-.07-.1c.08.16-.06-.42-.06-.22s0-.18,0,0,0,.19-.08.28a2,2,0,0,1-.08.26s0,.09,0,.13,0,.05,0,0a1.79,1.79,0,0,0-.12.24c0,.08-.09.16-.14.24a.46.46,0,0,1-.07.1s.13-.15,0,0-.2.16-.23.23.2-.13,0,0l-.11.07a.75.75,0,0,0-.12.07s.24-.08.09,0l-.1,0c-.09,0-.09,0,.11,0h-.25c-.12,0,.23.05.11,0l-.11,0-.1,0c-.12,0,.19.11.09.05l-.18-.11c-.11-.05.16.15.08.07a.26.26,0,0,0-.09-.09c.14.07.12.17.07.08s0-.06,0,.06l0-.09s0,.27,0,.08v0h0c0,.09,0,.1,0,0l0-.06s-.1.19,0,.07.12-.19,0-.06,0,0,0,0l.12-.12s.08-.08.11-.08l-.07,0,.08-.06a2.23,2.23,0,0,1,.55-.33c-.22.05-.08.05,0,0a.28.28,0,0,1-.2,0c-.1,0-.11,0,0,0s-.23-.12-.1,0l-.12-.08c.06.05.06.05,0,0s0,0,0,0-.05-.22,0,0,0-.1,0-.1v.17s0-.28,0-.1l0,.07c.05-.12.06-.15,0-.08s-.09.16,0,0,0,0-.06.06l-.1.1c-.17.16.17-.11,0,0l-.3.18h1s-.22-.09-.22-.13.13.1.08,0l-.07-.07c.08.12.1.14,0,0a.3.3,0,0,1-.06-.11l0,.12c0-.11,0-.08,0,.08a.28.28,0,0,1,0-.13c0,.16,0,.19,0,.08l-.06.13c.06-.09,0-.08,0,0a.38.38,0,0,1,.09-.09c-.12.08-.15.1-.08.06l-.11,0q.17,0-.09,0h-.08l-.15-.07c.09.05.06,0-.09-.07q.11.11-.06-.09c.09.15-.08-.23,0-.06s0,.06,0-.12c0,.11,0,.06,0-.12,0,.17.13-.22,0-.07A.54.54,0,0,1,105,45c-.38.26-.26.24.37-.07a.77.77,0,0,1,.64.35c0-.09,0,0,0,.13q-.54,1.08-.18.78a1,1,0,0,0,0-1.41,1,1,0,0,0-1.41,0,1.17,1.17,0,0,0-.17,1.52,1.26,1.26,0,0,0,1.65.48,2.67,2.67,0,0,0,.23-.18s-.27.21,0,0a1.3,1.3,0,0,0,.32-.34,1.34,1.34,0,0,0,.23-.63,1.6,1.6,0,0,0-3-.88,2,2,0,0,0,.84,2.61,1.13,1.13,0,0,0,1.19,0,5.66,5.66,0,0,0,.56-.4,2.39,2.39,0,0,0,.8-1.15,1.84,1.84,0,0,0-1.18-2.27,1.9,1.9,0,0,0-1.51.31,4.58,4.58,0,0,0-.93.71,2,2,0,0,0-.38,2.47,2.34,2.34,0,0,0,2,1,2.76,2.76,0,0,0,2.11-1.28,5.1,5.1,0,0,0,.51-1.05,3.2,3.2,0,0,0,.26-1.17,1.56,1.56,0,0,0-1.08-1.43,2.38,2.38,0,0,0-1.06-.08,3.94,3.94,0,0,0-2.52,1,2.25,2.25,0,0,0-.41,2.66c.78,1.38,2.78,1.56,4.12,1a3.77,3.77,0,0,0,1.84-1.45,2.32,2.32,0,0,0,.16-2.51,2,2,0,0,0-2.57-.53,3.65,3.65,0,0,0-1.85,1.52,1.89,1.89,0,0,0-.16,1.45,1,1,0,0,0,1,.74l.73,0a1,1,0,0,0,0-2Z"/>
        <path class="cls-5" d="M104.07,47q-9,9-18.23,17.68c-5,4.69-10.1,9.31-15.3,13.78-4.65,4-9.44,7.8-14.31,11.5s-9.77,7.33-14.68,11q-10,7.41-20.14,14.71l-3,2.15a1,1,0,0,0-.36,1.37,1,1,0,0,0,1.37.36Q30,112,40.43,104.25q7.49-5.52,14.91-11.1c5.29-4,10.51-8.06,15.56-12.35s9.73-8.54,14.48-12.94q8.91-8.25,17.51-16.81l2.6-2.6A1,1,0,0,0,104.07,47Z"/>
        <path class="cls-5" d="M58.89,70.54a47.32,47.32,0,0,0,1.4,12.25c.31,1.26,2.17.72,1.93-.54a13.32,13.32,0,0,1,.36-7.53c.77-1.92,2.46-4,4.69-4.06a1,1,0,0,0,0-2C64.35,68.72,62,71,60.9,73.59a15.22,15.22,0,0,0-.61,9.2l1.93-.54a44.84,44.84,0,0,1-1.33-11.71,1,1,0,0,0-2,0Z"/>
      </g>
      <g>
        <path class="cls-4" d="M117.4,73.6l1.89,5.63c.2.61,1.16.35,1-.27l-1.89-5.62c-.2-.61-1.17-.35-1,.26Z"/>
        <path class="cls-4" d="M120.11,83.08A65.73,65.73,0,0,0,122,91c.16.52,1,.45,1-.13l-.19-3.46-.09-1.78a6.87,6.87,0,0,1,0-1.57c.31-1.71,2.33-2,3.77-2.1.64,0,.65-1,0-1-1.71.07-3.81.49-4.56,2.25a8,8,0,0,0-.16,3.54l.22,4.12,1-.14a63.91,63.91,0,0,1-1.88-8c-.11-.63-1.07-.36-1,.27Z"/>
        <path class="cls-4" d="M145.36,60.91l3.33,7.79a.5.5,0,1,0,.86-.5l-3.33-7.8a.5.5,0,0,0-.68-.18.51.51,0,0,0-.18.69Z"/>
        <path class="cls-4" d="M82.08,88.24q1.83,2.42,3.51,4.92c.36.53,1.23,0,.87-.5q-1.69-2.52-3.52-4.92a.5.5,0,0,0-.86.5Z"/>
        <g>
          <path class="cls-4" d="M78.89,97.42a28.33,28.33,0,0,0,1,7c.17.64,1,.35,1-.26a7.3,7.3,0,0,1,.56-3.89,7,7,0,0,1,1-1.65c.16-.2.86-1.07,1.16-.71s1.11-.21.7-.7c-.54-.67-1.48-.32-2,.14a6.81,6.81,0,0,0-1.51,2,8.42,8.42,0,0,0-.86,5l1-.26a27.32,27.32,0,0,1-1-6.78.5.5,0,0,0-1,0Z"/>
          <path class="cls-4" d="M85.41,100.92h2.25a.5.5,0,0,0,.5-.5.51.51,0,0,0-.5-.5H85.41a.5.5,0,0,0,0,1Z"/>
          <path class="cls-4" d="M92.78,93.29a13.11,13.11,0,0,0,.64,4.35L94,97a8.05,8.05,0,0,1-1.38-.54,1.85,1.85,0,0,0-1.25,0c-1.11.38-1,1.6-.47,2.43a3.34,3.34,0,0,0,5,.84A.5.5,0,0,0,96,99a.51.51,0,0,0-.71,0,2.31,2.31,0,0,1-3.34-.47,1.8,1.8,0,0,1-.36-.87c0-.23.14-.29.35-.31a1.63,1.63,0,0,1,.82.24,4.37,4.37,0,0,0,1.06.4.5.5,0,0,0,.61-.62,12.27,12.27,0,0,1-.6-4.08c0-.64-1-.64-1,0Z"/>
          <path class="cls-4" d="M95.8,95a14.72,14.72,0,0,0,.53,3.67.49.49,0,0,0,.55.35.5.5,0,0,0,.43-.49,8.49,8.49,0,0,1,.6-2.38,5,5,0,0,1,.27-.57,1.66,1.66,0,0,1,.24-.38.88.88,0,0,1,.32-.25s.05,0,.05,0,0,0,0,0h0s-.1,0,0,0-.1-.07,0,0a.5.5,0,0,0,.71-.7,1.07,1.07,0,0,0-1.38-.09,2.62,2.62,0,0,0-.92,1.16,9.71,9.71,0,0,0-.88,3.21l1-.13A14,14,0,0,1,96.8,95c0-.64-1-.64-1,0Z"/>
          <path class="cls-4" d="M91.74,103a61.72,61.72,0,0,1,8.09-2.33c.63-.14.37-1.1-.26-1a63.41,63.41,0,0,0-8.1,2.32c-.6.22-.34,1.19.27,1Z"/>
          <path class="cls-4" d="M95.36,103.56a3.85,3.85,0,0,1,.68,0,2.3,2.3,0,0,1,.45.12.55.55,0,0,1,.34.31c0-.06,0,.1,0,.1a.28.28,0,0,1,0,.08.79.79,0,0,1-.05.28,1.8,1.8,0,0,1-.94.88,10,10,0,0,0-1.48.79.54.54,0,0,0-.23.57.53.53,0,0,0,.48.37c1.43.08,2.85.1,4.28.06.64,0,.64-1,0-1-1.43,0-2.85,0-4.28-.06l.25.93a20.07,20.07,0,0,1,1.77-1,2.37,2.37,0,0,0,1.17-1.56,1.56,1.56,0,0,0-.78-1.63,2.93,2.93,0,0,0-1.7-.28.51.51,0,0,0-.5.5.5.5,0,0,0,.5.5Z"/>
        </g>
        <g>
          <path class="cls-4" d="M140.85,72.39a29.05,29.05,0,0,0,1.59,7.21.51.51,0,0,0,1,0c.41-1.69-.16-3.42.19-5.1a2.49,2.49,0,0,1,1.05-1.71,1.47,1.47,0,0,1,1.63,0c.53.37,1-.5.5-.86a2.31,2.31,0,0,0-2.22-.17,3,3,0,0,0-1.68,1.73c-.79,1.9,0,4-.44,5.89h1a28,28,0,0,1-1.56-7c-.06-.63-1.06-.64-1,0Z"/>
          <path class="cls-4" d="M148.42,75.3a14.66,14.66,0,0,0,4.47-.45.5.5,0,0,0-.27-1,14.12,14.12,0,0,1-4.2.41.5.5,0,0,0-.5.5.51.51,0,0,0,.5.5Z"/>
          <path class="cls-4" d="M149.63,72.46c0,.82,0,1.64,0,2.46,0,.41,0,.81.07,1.21a3.29,3.29,0,0,0,.08.63,3.81,3.81,0,0,0,.23.5.5.5,0,0,0,.87-.5,1.19,1.19,0,0,1-.15-.35c0-.18,0-.37-.05-.55,0-.37,0-.74-.06-1.12,0-.76,0-1.52,0-2.28a.5.5,0,1,0-1,0Z"/>
          <path class="cls-4" d="M157.44,66.38a17.4,17.4,0,0,0,.16,5.34l1-.27a2.3,2.3,0,0,0-3.79-1A2.51,2.51,0,0,0,156,74.5a2.92,2.92,0,0,0,2.76-.8c.44-.47-.27-1.18-.71-.71a1.86,1.86,0,0,1-2,.49,1.46,1.46,0,0,1-.91-1.56,1.18,1.18,0,0,1,1.13-1.13,1.26,1.26,0,0,1,1.3.93c.15.63,1.08.36,1-.27a16.27,16.27,0,0,1-.13-5.07c0-.27-.25-.5-.5-.5a.52.52,0,0,0-.5.5Z"/>
          <path class="cls-4" d="M159.59,68.52c.41,1.58.75,3.17,1,4.78a.51.51,0,0,0,1-.13,7.45,7.45,0,0,1,.5-3.53,4.87,4.87,0,0,1,.42-.82,1.24,1.24,0,0,1,.18-.21.31.31,0,0,1,.17-.06.68.68,0,0,1,.15,0,.77.77,0,0,1,.28.19,2.43,2.43,0,0,1,.51.75.5.5,0,1,0,.86-.51,2.45,2.45,0,0,0-1.53-1.44c-.81-.16-1.36.45-1.69,1.11a8.27,8.27,0,0,0-.85,4.48l1-.13c-.29-1.61-.63-3.21-1-4.79a.5.5,0,0,0-1,.27Z"/>
          <path class="cls-4" d="M155.41,77.24q4.47-1.18,9-1.95c.63-.1.36-1.07-.27-1-3,.51-6,1.16-9,2a.5.5,0,0,0,.26,1Z"/>
          <path class="cls-4" d="M158.18,78.43a1.77,1.77,0,0,1,1.51.12.57.57,0,0,1,.24.49.49.49,0,0,1-.08.17.79.79,0,0,1-.18.2,2,2,0,0,1-.53.26c-.23.08-.48.14-.72.21a2.37,2.37,0,0,0-1.41,1,.51.51,0,0,0,.44.75,15.28,15.28,0,0,1,4.3.59.5.5,0,0,0,.26-1,16.34,16.34,0,0,0-4.56-.62l.43.75c.26-.45.92-.53,1.41-.69a2.27,2.27,0,0,0,1.5-1.1,1.53,1.53,0,0,0-.62-1.9,2.82,2.82,0,0,0-2.26-.2c-.62.15-.36,1.11.27,1Z"/>
        </g>
      </g>
      <g>
        <path class="cls-3" d="M128.32,22.55a91.83,91.83,0,0,0-8.45,9.29,2.28,2.28,0,0,0-.66,2.13,2.32,2.32,0,0,0,1.06,1.21,17.55,17.55,0,0,0,4.15,1.49,66.47,66.47,0,0,1,6.39,2.27,1,1,0,0,0,1.23-.7,1,1,0,0,0-.7-1.23,68.53,68.53,0,0,0-6.49-2.3c-.88-.27-1.76-.51-2.62-.82a5,5,0,0,1-.72-.31c-.13-.06-.24-.14-.36-.21.22.13-.29-.13,0,0-.31-.16.21,0,0,.11,0,0,.29-.41.3-.43l1-1.26c.74-.9,1.49-1.78,2.27-2.65q2.4-2.7,5-5.19c.93-.9-.49-2.31-1.42-1.42Z"/>
        <path class="cls-3" d="M121.46,34.09a123.43,123.43,0,0,1,25.16-6.43c2.32-.33,4.64-.59,7-.79,1.27-.11,1.28-2.11,0-2A124,124,0,0,0,127.36,30c-2.16.67-4.31,1.4-6.43,2.19-1.2.44-.68,2.38.53,1.93Z"/>
      </g>
    </g>
  </g>
</svg>
