<svg xmlns="http://www.w3.org/2000/svg" viewBox="0 0 410.86 204.5">
  <defs>
    <style>
      .cls-1 {
        fill: #808285;
      }

      .cls-2 {
        fill: #662d91;
      }

      .cls-3 {
        fill: #ed1c24;
      }

      .cls-4 {
        fill: #231f20;
      }
    </style>
  </defs>
  <title>polar-world-3</title>
  <g id="Layer_2" data-name="Layer 2">
    <g id="Layer_1-2" data-name="Layer 1">
      <g>
        <path class="cls-1" d="M109.82,6.58c-3.15,24.76-2.57,49.77-1.91,74.66.32,12.34.66,24.69.56,37-.11,12.52-.72,25-1.47,37.53-.85,14.07-1.81,28.13-2.72,42.19,0,.32.48.32.5,0,1.63-25,3.69-50.09,4.13-75.18.43-24.81-1.13-49.61-1-74.42a341.53,341.53,0,0,1,2.43-41.81c0-.32-.46-.31-.5,0Z" transform="translate(0 -0.01)"/>
        <path class="cls-1" d="M.24,99c29.3.25,58.62.71,87.92.32,14.48-.19,29-.61,43.42-1.42s29.14-2.22,43.68-3.73c16.24-1.67,32.58-3.1,48.89-1.81.32,0,.32-.48,0-.5-14.54-1.15-29.12-.14-43.6,1.28s-29.07,3-43.66,3.94c-29.07,1.84-58.21,2-87.33,1.82-16.44-.09-32.88-.26-49.32-.4-.32,0-.32.49,0,.5Z" transform="translate(0 -0.01)"/>
        <path class="cls-1" d="M118.73,82.1c-3.92-2.54-8.51-2.42-13-1.8-3.88.54-7.67,1.43-10.86,3.83A17.94,17.94,0,0,0,95.61,113a16.66,16.66,0,0,0,6.87,2.43,39.32,39.32,0,0,0,8,.64,13.76,13.76,0,0,0,10.09-5.43,23.42,23.42,0,0,0,3.77-6.81,21.68,21.68,0,0,0,1-9.32,17.6,17.6,0,0,0-4.43-10.6,13.51,13.51,0,0,0-2.17-1.82c-.27-.18-.52.26-.26.44,6.4,4.29,7.7,13.68,5.54,20.6-1.54,4.9-5.05,10.07-10.07,11.79a17.61,17.61,0,0,1-7.54.5,34,34,0,0,1-7.3-1.27,15.52,15.52,0,0,1-8.55-7.6,17.1,17.1,0,0,1-2.09-6.75,17.65,17.65,0,0,1,4.28-13,18.3,18.3,0,0,1,10.89-5.71c3.74-.66,7.76-1.23,11.47-.15a12.6,12.6,0,0,1,3.37,1.56C118.74,82.71,119,82.28,118.73,82.1Z" transform="translate(0 -0.01)"/>
        <path class="cls-1" d="M117.66,66.22c-6.7-2.47-13.9-1.58-20.27,1.42a35.58,35.58,0,0,0-9.53,6.42,32.85,32.85,0,0,0-6.81,9.85,27.4,27.4,0,0,0-1,21.33A33.16,33.16,0,0,0,89,117.7c5.23,4.78,12,7.61,19.17,6.8,5.88-.67,11.17-3.61,15.58-7.45a33,33,0,0,0,9.48-13.45,30.94,30.94,0,0,0,.16-19.76A28,28,0,0,0,122.1,68.42a23.83,23.83,0,0,0-4.44-2.2c-.3-.12-.43.37-.13.48A25.46,25.46,0,0,1,131.37,80a31.88,31.88,0,0,1,2.74,18.35,30.58,30.58,0,0,1-8.92,16.74A32.48,32.48,0,0,1,113,122.91a22.68,22.68,0,0,1-11.38.86,24.15,24.15,0,0,1-9.53-4.19,35.24,35.24,0,0,1-9.5-10.3A26.49,26.49,0,0,1,80,87.94a33.27,33.27,0,0,1,7.37-12.7A30.57,30.57,0,0,1,94,70.06c5.38-3.31,11.69-5.38,18.05-4.68a23.52,23.52,0,0,1,5.49,1.32C117.83,66.81,118,66.33,117.66,66.22Z" transform="translate(0 -0.01)"/>
        <path class="cls-1" d="M131.73,60.1A36,36,0,0,0,116,53.94a53.36,53.36,0,0,0-9.87-.35,45.32,45.32,0,0,0-23.35,7.57A44.29,44.29,0,0,0,69.45,75.6a39.62,39.62,0,0,0-4.74,28.58,41.74,41.74,0,0,0,12.15,21,44.39,44.39,0,0,0,16.82,10.05,39.53,39.53,0,0,0,30.87-2.92,50.39,50.39,0,0,0,9.07-6.41,57.16,57.16,0,0,0,7.77-7.94,34.85,34.85,0,0,0,6.89-16.29,41,41,0,0,0-.85-15.21c-1.78-7.5-4.62-15-9.72-20.9a35.09,35.09,0,0,0-6-5.44c-.27-.18-.52.25-.26.44a34.71,34.71,0,0,1,10.22,11.63,54.06,54.06,0,0,1,4,10,51.37,51.37,0,0,1,2.36,11.7,35.55,35.55,0,0,1-3.26,17.6,38.7,38.7,0,0,1-8.59,11.41,70.44,70.44,0,0,1-7,5.92,40,40,0,0,1-28.46,7.54,42.32,42.32,0,0,1-21.64-9.79A43,43,0,0,1,67.4,110.89a38.34,38.34,0,0,1-.11-29.84A45.05,45.05,0,0,1,77.64,65.93,43.58,43.58,0,0,1,102.45,54.4c7-.87,14.43-.52,21.09,1.94a34,34,0,0,1,7.93,4.2C131.74,60.72,132,60.29,131.73,60.1Z" transform="translate(0 -0.01)"/>
        <path class="cls-1" d="M114.6,35.77a68.34,68.34,0,0,0-13.68-1.38A61.19,61.19,0,0,0,78.4,38.77a62.29,62.29,0,0,0-17.3,10.6A63.26,63.26,0,0,0,48.25,64.62,57.5,57.5,0,0,0,41,83.35a68.62,68.62,0,0,0-.52,18.77,82.2,82.2,0,0,0,2.4,14.46,55.58,55.58,0,0,0,8.46,18.19A49.18,49.18,0,0,0,67.1,148.89a71.49,71.49,0,0,0,18.78,6.87c3.52.83,7.07,1.54,10.63,2.18a61.46,61.46,0,0,0,12.83,1.17c8.35-.25,16-3.52,23.44-6.91,6.11-2.77,12.19-5.76,17.33-10.14A48.12,48.12,0,0,0,163,124.39a62.07,62.07,0,0,0,4.14-15,60.21,60.21,0,0,0-.62-21.62,70,70,0,0,0-4-12.72,66.69,66.69,0,0,0-37.34-36.24,65.13,65.13,0,0,0-10.53-3.07c-.32-.06-.45.42-.14.49a64.77,64.77,0,0,1,19.62,7.41,66.6,66.6,0,0,1,12.07,8.91A65.83,65.83,0,0,1,158.23,67.7,69.73,69.73,0,0,1,164,80.63a60.83,60.83,0,0,1,1.3,35.25,52,52,0,0,1-8.17,17.79,47.63,47.63,0,0,1-15.4,13.53c-3,1.67-6,3.12-9.14,4.52a115.62,115.62,0,0,1-11.17,4.62A42.45,42.45,0,0,1,109,158.62,63.14,63.14,0,0,1,96,157.35a130,130,0,0,1-19.86-4.91,51.74,51.74,0,0,1-17.28-10A51,51,0,0,1,46.41,125.1a64.75,64.75,0,0,1-4.71-16.83,102.56,102.56,0,0,1-1.14-13.89,55.12,55.12,0,0,1,3.86-20.9,60.37,60.37,0,0,1,10.14-16.8,62.74,62.74,0,0,1,15.21-13,60,60,0,0,1,21-7.89,62.76,62.76,0,0,1,18.61-.37c1.71.21,3.41.51,5.09.85C114.78,36.32,114.91,35.84,114.6,35.77Z" transform="translate(0 -0.01)"/>
        <path class="cls-1" d="M116.12,23.55a67,67,0,0,0-26.65,1.09A87.11,87.11,0,0,0,71.73,31.2,80.37,80.37,0,0,0,52.51,44.52a90.29,90.29,0,0,0-13,15.26,97.7,97.7,0,0,0-7.69,13.54,96.22,96.22,0,0,0-3.88,9.54c-3.16,9.16-4.56,18.85-3.05,28.47a61.11,61.11,0,0,0,9.59,24.12,71.4,71.4,0,0,0,18.4,18.77,94.53,94.53,0,0,0,24.68,12.26A123.51,123.51,0,0,0,91,170.14a90.21,90.21,0,0,0,15.08,2.12,48.26,48.26,0,0,0,15.26-1.79,92.43,92.43,0,0,0,14-5.48,108.64,108.64,0,0,0,24.15-15,68,68,0,0,0,16.92-21,54.13,54.13,0,0,0,5.75-26.6,80,80,0,0,0-4.82-24,87.53,87.53,0,0,0-10.27-19.7,89.58,89.58,0,0,0-9.42-11.51,107.58,107.58,0,0,0-10.08-9.25,71.56,71.56,0,0,0-18.92-11,65.5,65.5,0,0,0-12.52-3.4c-.32-.05-.45.43-.14.49a65.69,65.69,0,0,1,23.24,8.65,83.68,83.68,0,0,1,14.31,11.12A103.42,103.42,0,0,1,161.38,52a90.6,90.6,0,0,1,10.53,15.5,81.54,81.54,0,0,1,8.32,23.14c1.62,8.42,2.09,17.07.24,25.51A57.63,57.63,0,0,1,168.61,140a82.14,82.14,0,0,1-21.16,18,128.66,128.66,0,0,1-12.37,6.61,91.57,91.57,0,0,1-14,5.47,47.93,47.93,0,0,1-15.44,1.71,92.14,92.14,0,0,1-15.14-2.22,111.9,111.9,0,0,1-25.9-8.89A79.71,79.71,0,0,1,42.78,145a66.24,66.24,0,0,1-14.2-21.91,54.44,54.44,0,0,1-3.46-26.18,72.9,72.9,0,0,1,5.09-18.67A95.64,95.64,0,0,1,35.65,67,94.29,94.29,0,0,1,45.84,52.25,83.51,83.51,0,0,1,61.7,37.72a85.3,85.3,0,0,1,18.48-9.64,72,72,0,0,1,21.68-4.8A65.42,65.42,0,0,1,116,24C116.3,24.09,116.43,23.61,116.12,23.55Z" transform="translate(0 -0.01)"/>
        <path class="cls-1" d="M108,42.26a57.4,57.4,0,0,0-15.6.22,47.73,47.73,0,0,0-20,8.36A50.82,50.82,0,0,0,61.46,61.52a51.79,51.79,0,0,0-5.06,8.23A56.34,56.34,0,0,0,51.18,87.1a59.32,59.32,0,0,0-.4,13.25,46.49,46.49,0,0,0,5.92,19.21,44.45,44.45,0,0,0,13.6,14.49,72.55,72.55,0,0,0,15.57,7.63,66.4,66.4,0,0,0,16.9,4.4,49.12,49.12,0,0,0,13.9-.66,50.93,50.93,0,0,0,15.76-5.74,47.48,47.48,0,0,0,15.39-14A49.71,49.71,0,0,0,155,110.11a58.82,58.82,0,0,0,1.44-22.71,52.81,52.81,0,0,0-5.55-17.56,50.33,50.33,0,0,0-13.35-16,53.89,53.89,0,0,0-14.62-8.13,60,60,0,0,0-11.72-3c-1.08-.17-2.17-.3-3.26-.42-.32,0-.32.46,0,.5a59.52,59.52,0,0,1,22.16,6.74,50.51,50.51,0,0,1,24.17,30,56.87,56.87,0,0,1,1.56,24.13,49.37,49.37,0,0,1-15.44,29.67,49.56,49.56,0,0,1-47.23,10.34A104.81,104.81,0,0,1,78.24,138a50.47,50.47,0,0,1-15-10.47A43.72,43.72,0,0,1,52.8,108.91a51.73,51.73,0,0,1-1.63-16.67,59.85,59.85,0,0,1,2.66-14.77,52.28,52.28,0,0,1,12.4-20.75A47.53,47.53,0,0,1,102,42.32c2,0,4,.22,6,.44C108.27,42.79,108.27,42.29,108,42.26Z" transform="translate(0 -0.01)"/>
        <path class="cls-1" d="M115.92,19.05c-9.89-.88-19.83-1.78-29.73-.45a80.92,80.92,0,0,0-16.24,4A86.4,86.4,0,0,0,48,34.12,74.29,74.29,0,0,0,28.1,55.48,80.41,80.41,0,0,0,18,82a86.59,86.59,0,0,0-.78,27.26,88.34,88.34,0,0,0,7.57,26.15,83.36,83.36,0,0,0,15.46,22.49A92.14,92.14,0,0,0,61.7,174.32a102.35,102.35,0,0,0,25.2,9.89A94.83,94.83,0,0,0,116.05,187a58.45,58.45,0,0,0,27.85-9.33,117.43,117.43,0,0,0,10.67-8.06c3.55-2.93,7.12-5.87,10.53-9a79.07,79.07,0,0,0,17.32-21.85,79.12,79.12,0,0,0,8.34-28.1,115.44,115.44,0,0,0,.09-20.11c-.58-8.66-1.89-17.21-5.28-25.27a61,61,0,0,0-7.89-13.57,95.33,95.33,0,0,0-8-8.83,90.13,90.13,0,0,0-16.51-13.47,64.42,64.42,0,0,0-24.05-9c-4.38-.67-8.81-1-13.22-1.42-.32,0-.32.48,0,.5,8.35.75,16.7,1.42,24.63,4.32A72.61,72.61,0,0,1,163,37.31c2.25,1.95,4.39,4,6.49,6.13a89.5,89.5,0,0,1,8.17,9.13A62.38,62.38,0,0,1,189.2,79.88a128,128,0,0,1,1.56,19.65,87,87,0,0,1-3.14,24.87,73.57,73.57,0,0,1-14.1,26.89c-5.68,6.81-12.59,12.46-19.41,18.09a115.12,115.12,0,0,1-10.79,8.11,59.09,59.09,0,0,1-12.61,6.14c-9.9,3.44-20.63,3.62-30.95,2.41a104,104,0,0,1-26.26-6.66A97.3,97.3,0,0,1,50,166a83.66,83.66,0,0,1-29.74-44.21,87.79,87.79,0,0,1-3.22-27,82.81,82.81,0,0,1,5.51-26.88A73.36,73.36,0,0,1,37.82,43.62,82.34,82.34,0,0,1,60.64,27.06a85.1,85.1,0,0,1,18.23-6.6,83,83,0,0,1,22.28-2c4.94.19,9.86.65,14.77,1.08C116.24,19.58,116.24,19.08,115.92,19.05Z" transform="translate(0 -0.01)"/>
        <path class="cls-1" d="M109.72,97.82a338.42,338.42,0,0,1,29-67.34q5.09-9,10.73-17.64c.17-.27-.26-.52-.44-.25a337.07,337.07,0,0,0-18.38,32,342.32,342.32,0,0,0-14.74,33.6q-3.63,9.67-6.66,19.55a.25.25,0,0,0,.48.13Z" transform="translate(0 -0.01)"/>
        <path class="cls-1" d="M108.63,99q14.88-13.87,29.2-28.33t28-29.44q7.69-8.4,15.2-17c.21-.24-.14-.59-.36-.35q-13.37,15.29-27.34,30t-28.54,29q-8.18,8-16.53,15.77c-.24.21.12.57.35.35Z" transform="translate(0 -0.01)"/>
        <path class="cls-1" d="M108.58,99q17.94-8.58,36.05-16.8T181,66.12q10.32-4.44,20.7-8.78c.3-.12.17-.6-.13-.48q-18.35,7.67-36.55,15.68T128.69,89q-10.2,4.74-20.36,9.6c-.29.13,0,.57.25.43Z" transform="translate(0 -0.01)"/>
        <path class="cls-1" d="M108.39,99.05q20.08,5.65,39.78,12.6T187,126.78q11,4.69,21.82,9.7c.29.13.54-.3.25-.43q-19.12-8.88-38.76-16.66-19.43-7.67-39.31-14-11.19-3.59-22.51-6.77a.25.25,0,0,0-.13.48Z" transform="translate(0 -0.01)"/>
        <path class="cls-1" d="M108.09,98.75q15.61,14.52,30.57,29.71T168,159.55q8,8.89,15.8,18c.2.23.51-.06.39-.3L183,174.84c-.14-.29-.57,0-.43.25l1.14,2.39.39-.3Q170.18,161,155.56,145.34T125.7,114.85q-8.52-8.34-17.26-16.45c-.23-.22-.59.13-.35.35Z" transform="translate(0 -0.01)"/>
        <path class="cls-1" d="M108,99.44c-.41,7.34,1.4,14.54,3.34,21.57s4,13.82,6.19,20.67q6.6,20.53,14.84,40.5,4.63,11.2,9.76,22.2c.14.29.57,0,.44-.26q-9.12-19.51-16.64-39.73t-13.34-40.78c-2.22-7.86-4.55-15.92-4.09-24.17,0-.33-.48-.33-.5,0Z" transform="translate(0 -0.01)"/>
        <path class="cls-1" d="M107.53,98.69,91.66,134,75.89,169.06l-4.4,9.8-2.25,5-1.13,2.5a6,6,0,0,1-.45.92c-.14.22-.27.43-.56.35s0-.2-.13-.25c.26.2.51-.24.26-.43-.56-.43-1,.43-.77.89.36,1,1.44,0,1.72-.46a22.85,22.85,0,0,0,1-2.25l1.07-2.39L72.43,178,81,158.84q8.59-19.14,17.2-38.26L108,98.94c.13-.29-.3-.55-.44-.25Z" transform="translate(0 -0.01)"/>
        <path class="cls-1" d="M108.33,98.6q-16.1,12-31.32,25.08t-29.65,27.4q-8,8-15.75,16.27c-.22.23.13.59.35.35Q45.67,153,60.4,139.24T90.62,113q8.85-7.14,18-13.94c.26-.19,0-.63-.25-.43Z" transform="translate(0 -0.01)"/>
        <path class="cls-1" d="M108.2,98.34A380.63,380.63,0,0,0,69.91,108.5a278.13,278.13,0,0,0-35.92,15c-6.62,3.29-13.15,6.75-19.66,10.27-.28.15,0,.58.25.43,11.47-6.19,23-12.23,35-17.43A266.69,266.69,0,0,1,86.84,104c7.12-1.9,14.3-3.59,21.49-5.16.32-.07.18-.55-.13-.48Z" transform="translate(0 -0.01)"/>
        <path class="cls-1" d="M108.51,98.51q-3.21-18-5.59-36.08T99,26.35Q98.14,16.17,97.54,6c0-.32-.52-.32-.5,0q1.08,18.24,3,36.41t4.63,36q1.55,10.17,3.36,20.29c0,.32.53.19.48-.13Z" transform="translate(0 -0.01)"/>
        <path class="cls-1" d="M108,98.69,86.61,63.21,65.26,27.74,53.3,7.87c-.17-.27-.6,0-.43.25L74.22,43.59,95.57,79.07l12,19.87c.17.27.6,0,.44-.25Z" transform="translate(0 -0.01)"/>
        <path class="cls-1" d="M108.33,99.22,75.52,74.73,42.9,50.39,24.5,36.65c-.26-.19-.51.24-.25.43L57.06,61.57,89.67,85.91l18.4,13.74c.26.19.51-.24.26-.43Z" transform="translate(0 -0.01)"/>
        <path class="cls-1" d="M107.82,98.57Q89.4,91.18,70.57,84.87t-38-11.52q-10.75-2.92-21.6-5.49c-.31-.07-.45.41-.13.49q19.35,4.58,38.41,10.28t37.7,12.48q10.45,3.81,20.76,7.94c.3.12.43-.36.14-.48Z" transform="translate(0 -0.01)"/>
        <path class="cls-1" d="M109,98.23,131.4,65.64l22.44-32.59,12.6-18.3c.18-.27-.25-.52-.43-.26l-22.44,32.6L121.12,79.68,108.52,98c-.18.27.25.52.43.25Z" transform="translate(0 -0.01)"/>
        <path class="cls-1" d="M108.7,98.81q2.42-18.74,6.33-37.25t9.25-36.64q3-10.2,6.47-20.27c.11-.31-.38-.44-.48-.13q-6.2,18-11,36.54-4.69,18.25-7.94,36.85-1.82,10.41-3.17,20.9c0,.32.46.32.5,0Z" transform="translate(0 -0.01)"/>
        <path class="cls-1" d="M109.61,98q16-9.72,31.43-20.4t30-22.16q8.26-6.49,16.31-13.26l-.4-.31-.92,1.44c-.17.27.26.52.43.25l.93-1.43c.16-.26-.19-.48-.4-.31q-14.35,12.09-29.43,23.29-14.9,11.08-30.44,21.25-8.81,5.76-17.78,11.21a.25.25,0,0,0,.25.43Z" transform="translate(0 -0.01)"/>
        <path class="cls-1" d="M109,98.61q17.69-4,35.28-8.27,17.34-4.25,34.59-8.82,9.54-2.53,19-5.15a.25.25,0,0,0-.13-.48q-17,4.69-34.13,9.08-17.48,4.48-35,8.62-9.87,2.32-19.75,4.54c-.32.07-.18.55.13.48Z" transform="translate(0 -0.01)"/>
        <path class="cls-1" d="M110.27,98.66a214.64,214.64,0,0,0,35.33,6c11.77,1,23.6.93,35.38,1.91a123.79,123.79,0,0,1,19.79,3.08c.31.08.44-.41.13-.48-11.43-2.85-23.24-3.48-35-3.94-5.9-.24-11.8-.43-17.69-.86s-12-1.12-18-2.07q-10-1.57-19.85-4.1a.25.25,0,0,0-.13.48Z" transform="translate(0 -0.01)"/>
        <path class="cls-1" d="M108.33,99c12.56,5.42,24.16,12.88,35.69,20.16A168.57,168.57,0,0,1,160.82,131c4.86,4,9.25,8.43,13.74,12.8,4.91,4.77,10,9.43,15.95,12.92a.25.25,0,0,0,.25-.43c-10.76-6.33-18.58-16.32-28-24.31a150.48,150.48,0,0,0-16.35-11.81q-8.59-5.5-17.37-10.77A174.18,174.18,0,0,0,108.58,98.6c-.29-.13-.55.3-.25.43Z" transform="translate(0 -0.01)"/>
        <path class="cls-1" d="M108,98.64c3,12.2,10.35,22.55,17.57,32.57,3.83,5.31,7.61,10.64,11,16.25,3.59,6,6.82,12.12,9.86,18.38,3.42,7,6.59,14.19,9.77,21.34.13.3.56,0,.43-.25-5.65-12.73-11.31-25.49-18.33-37.53-3.29-5.64-6.95-11-10.76-16.31-3.65-5.09-7.37-10.14-10.66-15.48a66.65,66.65,0,0,1-8.39-19.1.25.25,0,0,0-.48.13Z" transform="translate(0 -0.01)"/>
        <path class="cls-1" d="M107.51,98.75,97,137.78l-10.52,39-5.92,21.93a.25.25,0,0,0,.49.13l10.52-39,10.53-39L108,98.88a.25.25,0,0,0-.48-.13Z" transform="translate(0 -0.01)"/>
        <path class="cls-1" d="M107.57,98.64c-9.26,8.7-16.82,19-24.39,29.14L58.55,160.84,44.66,179.47c-.19.25.24.5.43.25l24.64-33.06L82,130.24c3.86-5.18,7.68-10.38,11.69-15.43A146.63,146.63,0,0,1,107.93,99c.23-.22-.12-.58-.36-.35Z" transform="translate(0 -0.01)"/>
        <path class="cls-1" d="M107.86,98.17q-17.1,9.4-33.95,19.22T40.43,137.45q-9.32,5.75-18.55,11.61c-.27.18,0,.61.25.44Q38.6,139,55.33,129T89,109.28q9.51-5.4,19.09-10.67a.25.25,0,0,0-.25-.44Z" transform="translate(0 -0.01)"/>
        <path class="cls-1" d="M108.48,98.45Q100.76,81.38,94,63.87T81.64,28.74q-3.19-10-6.07-20.09a.25.25,0,0,0-.48.13q5.13,18,11.28,35.71T99.74,79.54q4,9.64,8.31,19.16c.13.3.56,0,.43-.25Z" transform="translate(0 -0.01)"/>
        <path class="cls-1" d="M108.82,99.39Q95.92,83.6,82.64,68.12T55.72,37.46Q48.09,29,40.34,20.58c-.22-.24-.57.11-.35.35q13.83,15,27.33,30.31T93.91,82.17q7.34,8.74,14.56,17.57c.2.25.55-.11.35-.35Z" transform="translate(0 -0.01)"/>
        <path class="cls-1" d="M108.33,99.22a23.94,23.94,0,0,0-8.65-1.72,75.86,75.86,0,0,1-9.63-1c-3.24-.61-6.43-1.46-9.63-2.28S73.9,92.65,70.6,92a244.09,244.09,0,0,0-39.47-4c-7.54-.26-15.09-.32-22.63-.39a.25.25,0,0,0,0,.5c13.23.12,26.49.24,39.69,1.36,6.68.57,13.33,1.39,19.92,2.6,3.23.6,6.44,1.28,9.63,2.07s6.31,1.66,9.5,2.38A62.25,62.25,0,0,0,97.69,97.9c3.51.17,7.12.28,10.38,1.75.29.13.55-.3.26-.43Z" transform="translate(0 -0.01)"/>
        <path class="cls-1" d="M108.27,98.33q-18.87,1.55-37.59,4.33Q51.22,105.57,32,109.81q-10,2.22-20,4.8a.25.25,0,0,0,.14.48q18-4.65,36.27-8.14,19.53-3.72,39.31-6.07,10.26-1.22,20.56-2c.31,0,.32-.53,0-.5Z" transform="translate(0 -0.01)"/>
      </g>
      <g>
        <path class="cls-2" d="M146.6,40.57a26.46,26.46,0,0,0-27.87.36,30,30,0,0,0-9.38,9.1,16,16,0,0,0-2.35,8.4,19.12,19.12,0,0,0,2,8.15c4.72,9.81,16.9,15.27,27.42,12.77,6.8-1.61,13.21-6.32,16.09-12.76a22.21,22.21,0,0,0,.87-15.92,24.13,24.13,0,0,0-4.49-8.4,10.21,10.21,0,0,0-2.31-1.7,2,2,0,0,0-2.73.71,2,2,0,0,0,.72,2.74l.93.62.32.23c.12.09.4.44.13.09,0,0,.15.15.14.18a1.83,1.83,0,0,0,.13.16c-.08-.09-.37-.49-.16-.2s.29.38.42.58a23.67,23.67,0,0,1,2.17,3.79l.26.57c.13.27-.19-.46,0,0l.11.27c.19.5.37,1,.54,1.51a23.77,23.77,0,0,1,.75,3.13s.08.56,0,.25,0,.26,0,.26c0,.26.05.53.07.8,0,.64.06,1.29,0,1.93s-.06,1.15-.12,1.72,0-.22,0,.16c0,.16,0,.32-.08.49-.06.33-.13.67-.21,1a20.73,20.73,0,0,1-.59,2c-.09.26-.18.51-.29.76,0,.1-.19.46,0,.1l-.22.48a18.87,18.87,0,0,1-1.67,2.89l-.38.51c.29-.39-.19.23-.27.33q-.5.59-1,1.14c-.34.35-.7.69-1.07,1l-.49.43c-.09.08-.75.59-.3.26A24.27,24.27,0,0,1,139.51,74l-.94.43c-.25.1.49-.2.14-.07l-.18.08-.54.21c-.5.19-1,.36-1.52.51-.35.11-.7.21-1.06.29l-.31.08-.45.09-.48.08-.3,0c.21,0,.19,0-.05,0a23.14,23.14,0,0,1-3.72.13l-1-.07-.49,0-.15,0c-.65-.09-1.29-.21-1.93-.36a24.21,24.21,0,0,1-3.65-1.16c-.35-.14.41.19-.16-.07l-.36-.16c-.3-.13-.59-.28-.89-.43q-.87-.45-1.71-1c-.56-.35-1.09-.73-1.63-1.11,0,0-.29-.23-.06,0l-.31-.24-.89-.77c-.43-.39-.85-.8-1.24-1.22-.22-.23-.43-.47-.64-.72l-.25-.3-.24-.3c.09.13.1.13,0,0a19.87,19.87,0,0,1-2-3.21c-.15-.28-.28-.58-.41-.87.13.3,0,0,0-.06s-.11-.29-.17-.44a16.3,16.3,0,0,1-.58-1.92c-.07-.27-.13-.55-.18-.83l-.09-.47c-.06-.39,0-.11,0,0a14.31,14.31,0,0,1-.11-2c0-.29,0-.57,0-.85s0-.31,0-.46.08-.51,0-.12a13,13,0,0,1,.42-1.85c.1-.32.21-.63.33-.95,0,0,.15-.35,0-.08l.21-.46a16.77,16.77,0,0,1,1-1.84,17.39,17.39,0,0,1,2.27-2.75c.69-.7,1.42-1.35,2.16-2l.65-.56.42-.34.22-.18c.06,0,.39-.31.13-.1l.29-.22.54-.39c.39-.27.79-.53,1.19-.79a25.83,25.83,0,0,1,2.83-1.54l.32-.14.25-.11.26-.1.34-.13c.62-.24,1.25-.45,1.88-.63s1.23-.32,1.86-.44q.51-.1,1-.18s.39-.05.11,0l.3,0a24.92,24.92,0,0,1,4.05-.1c.54,0,1.07.08,1.6.14l.34,0c-.43,0,0,0,.07,0,.33,0,.66.1,1,.17a24.6,24.6,0,0,1,3.84,1.07A22.05,22.05,0,0,1,144.59,44a2,2,0,0,0,2.73-.72A2,2,0,0,0,146.6,40.57Z" transform="translate(0 -0.01)"/>
        <path class="cls-2" d="M124.32,43q19.49-5,39.09-9.5,19.85-4.56,39.79-8.6,20.19-4.08,40.46-7.67,20.49-3.62,41.07-6.73t41.52-5.78L331.49,4a2.06,2.06,0,0,0,2-2,2,2,0,0,0-2-2q-21.06,2.61-42.05,5.72-20.71,3.06-41.35,6.64-20.31,3.51-40.54,7.54t-40.08,8.51q-19.74,4.47-39.37,9.44l-4.84,1.24c-2.49.64-1.44,4.5,1.06,3.85Z" transform="translate(0 -0.01)"/>
        <path class="cls-2" d="M123.18,79.55q17.3,6.54,34.4,13.58t33.78,14.45Q208.28,115.1,225,123.1t33,16.36q16.35,8.4,32.46,17.26l4,2.19c2.25,1.25,4.27-2.2,2-3.45q-16.15-9-32.54-17.44t-33.07-16.55q-16.68-8-33.58-15.62T163,91.07Q145.85,84,128.51,77.31l-4.27-1.62a2,2,0,0,0-2.46,1.4,2.06,2.06,0,0,0,1.4,2.46Z" transform="translate(0 -0.01)"/>
        <path class="cls-2" d="M363.19,6.94A69.18,69.18,0,0,0,336.8.1c-9.31-.52-18.58,1.13-27.48,3.77a130.68,130.68,0,0,0-24.74,9.83,67.27,67.27,0,0,0-10.68,7.08A55.9,55.9,0,0,0,265,30.21C254.64,43.74,249.12,61,248.62,77.88A91.55,91.55,0,0,0,261,126.08a82,82,0,0,0,32.95,32c15.3,7.87,33.06,10.27,50,8A78.74,78.74,0,0,0,387.1,146a74.56,74.56,0,0,0,22.33-41.78,101.71,101.71,0,0,0,.95-27A88.36,88.36,0,0,0,404,50.27c-6.7-15.61-19.51-27.75-32.79-37.89-3.35-2.56-6.79-5-10.27-7.37a2,2,0,1,0-2,3.45c13.36,9.09,26.64,19.53,35.74,33.07a68.13,68.13,0,0,1,9.83,23.29,104.6,104.6,0,0,1,2.33,25.93c-.53,16-5.36,32-15.27,44.5a72.44,72.44,0,0,1-36.77,24.45,83.61,83.61,0,0,1-48.14-.66A74.87,74.87,0,0,1,270.33,133a87.86,87.86,0,0,1-17.16-42.53,82.19,82.19,0,0,1,8.54-47.56c3.82-7.32,8.68-14.11,15.12-19.36,6.27-5.11,13.75-8.7,21.25-11.6a120.65,120.65,0,0,1,25.64-7.24,65,65,0,0,1,25.89,1.45,62.58,62.58,0,0,1,11.56,4.25,2.06,2.06,0,0,0,2.74-.72,2,2,0,0,0-.72-2.73Z" transform="translate(0 -0.01)"/>
      </g>
      <g>
        <path class="cls-3" d="M358.09,23.6a60.44,60.44,0,0,1,16.44,23l5.31,16.44,1,15.18-1.27,14.66-84.47,9.36-1.26-6.32-3.54-15.68-6.83-16.44Z" transform="translate(0 -0.01)"/>
        <g>
          <path class="cls-1" d="M261.22,77.14Q271.51,71.08,282,65.33c7-3.85,14-7.63,21-11.4S317,46.38,324.08,42.58,338.06,35,345,31.09s13.82-7.87,20.62-12l2.55-1.55a.5.5,0,0,0-.51-.86q-10.17,6.21-20.56,12.06T326.2,40.3Q315.64,46,305.06,51.66c-7,3.76-14,7.53-21,11.37s-13.9,7.73-20.77,11.74l-2.57,1.51a.5.5,0,0,0,.5.86Z" transform="translate(0 -0.01)"/>
          <path class="cls-1" d="M265.58,105.72q24-2.35,48-4.91t47.82-5.31q13.29-1.53,26.57-3.12c.63-.07.64-1.07,0-1q-23.83,2.87-47.68,5.52T292.31,102q-13.37,1.38-26.73,2.69c-.64.06-.64,1.06,0,1Z" transform="translate(0 -0.01)"/>
          <path class="cls-1" d="M375.64,111.81a96.18,96.18,0,0,0,4.61-44.16,81,81,0,0,0-14.59-36.57,73.3,73.3,0,0,0-15.09-15.42c-.52-.38-1,.49-.51.87a74.87,74.87,0,0,1,23.21,29.84,85.32,85.32,0,0,1,6.52,40.85,98.58,98.58,0,0,1-5.11,24.32c-.21.61.75.87,1,.27Z" transform="translate(0 -0.01)"/>
          <path class="cls-1" d="M273.52,52.28a62.76,62.76,0,0,1,13.86,21.59,109,109,0,0,1,4,12.09A73.57,73.57,0,0,1,294,99.18a29,29,0,0,1-2.25,15c-.28.58.58,1.09.86.5,4-8.49,2.54-18.19.3-27a93.43,93.43,0,0,0-9.56-24.41,57,57,0,0,0-9.09-11.7.5.5,0,0,0-.7.71Z" transform="translate(0 -0.01)"/>
        </g>
      </g>
      <g>
        <path class="cls-4" d="M318.9,75.35a34.53,34.53,0,0,1,4.64-1.64q1.23-.34,2.46-.6a4.28,4.28,0,0,1,2.38,0A3.1,3.1,0,0,1,330,75.52a21,21,0,0,1,.39,5.31c-.05,1.29,1.95,1.29,2,0a22,22,0,0,0-.51-6.06,4.9,4.9,0,0,0-2.61-3.47c-1.8-.79-3.9-.14-5.71.33a39.3,39.3,0,0,0-5.67,2,1,1,0,0,0-.36,1.37,1,1,0,0,0,1.37.36Z" transform="translate(0 -0.01)"/>
        <path class="cls-4" d="M327.21,72a83.09,83.09,0,0,0-12.39,29,76.82,76.82,0,0,0-1.3,8.67,1,1,0,0,0,1,1,1,1,0,0,0,1-1,77.39,77.39,0,0,1,8.8-28.93q2.12-4,4.61-7.7c.72-1.07-1-2.07-1.72-1Z" transform="translate(0 -0.01)"/>
      </g>
      <g>
        <g>
          <path class="cls-3" d="M313,137.26q2.7-10.22,6.07-20.23l-1,.73c1.06-.05,1.62,1,1.95,1.91a30.19,30.19,0,0,1,1,4.82L323.29,136c.24,1.27,2.17.73,1.93-.53l-2.41-12.71c-.48-2.55-1.15-7.13-4.69-7a1.05,1.05,0,0,0-1,.74q-3.37,10-6.07,20.23a1,1,0,0,0,1.93.53Z" transform="translate(0 -0.01)"/>
          <path class="cls-3" d="M314.32,130a36,36,0,0,1,8.4-1.91,1,1,0,0,0,0-2,38.46,38.46,0,0,0-8.93,2,1,1,0,0,0-.7,1.23,1,1,0,0,0,1.23.7Z" transform="translate(0 -0.01)"/>
          <path class="cls-3" d="M331,124.34a15.6,15.6,0,0,0,6.69-.38,1,1,0,0,0,.69-1.23,1,1,0,0,0-1.23-.7,13.41,13.41,0,0,1-5.62.38,1,1,0,0,0-1.23.7,1,1,0,0,0,.7,1.23Z" transform="translate(0 -0.01)"/>
          <path class="cls-3" d="M331.49,130.83l8.57-1.15a1,1,0,0,0,.7-1.23,1,1,0,0,0-1.23-.7L331,128.91a1,1,0,1,0,.53,1.92Z" transform="translate(0 -0.01)"/>
          <path class="cls-3" d="M306.4,117.37a78.3,78.3,0,0,0,.07,16l1.71-.7c-2-2.36-5.6-3.64-8.47-2.1a3.69,3.69,0,0,0-2.07,3.48,4.32,4.32,0,0,0,2.72,3.46c2.12.91,4.42.17,6.46-.58,1.2-.44.68-2.38-.53-1.93-1.55.57-3.53,1.4-5.16.67-1-.44-2-1.64-1.22-2.72a3.32,3.32,0,0,1,3-1,6.07,6.07,0,0,1,3.87,2.17,1,1,0,0,0,1.7-.71,78.3,78.3,0,0,1-.07-16,1,1,0,0,0-1-1,1,1,0,0,0-1,1Z" transform="translate(0 -0.01)"/>
        </g>
        <g>
          <path class="cls-3" d="M344.18,121.46a2.94,2.94,0,0,1,2.53-2,3.61,3.61,0,0,1,3.23,1.67c.6.87,1.31,2.63.34,3.5s-2.45.31-3.41,0a1,1,0,0,0-1.26,1q.06,2.87.4,5.71a1,1,0,0,0,1,1,1,1,0,0,0,1-1q-.35-2.85-.4-5.71l-1.27,1a6,6,0,0,0,4.42.14,3.63,3.63,0,0,0,1.9-4c-.48-3.15-3.56-5.77-6.8-5a4.87,4.87,0,0,0-3.61,3.3,1,1,0,0,0,1.93.53Z" transform="translate(0 -0.01)"/>
          <path class="cls-3" d="M346.48,134l-.37.38a1,1,0,0,0-.29.71l0,.27a.86.86,0,0,0,.18.34.58.58,0,0,0,.18.17.75.75,0,0,0,.34.18l.27,0a1,1,0,0,0,.5-.14l.62-.26a.78.78,0,0,0,.28-.26.75.75,0,0,0,.18-.34.78.78,0,0,0,0-.4.81.81,0,0,0-.12-.37l-.15-.2a1,1,0,0,0-.45-.26l-.26,0a1,1,0,0,0-.51.14l-.62.27,1.22,1.57.36-.38a.75.75,0,0,0,.21-.32.86.86,0,0,0,.09-.39.79.79,0,0,0-.09-.38.72.72,0,0,0-.21-.33l-.2-.15a1,1,0,0,0-.5-.14l-.27,0a.92.92,0,0,0-.44.25Z" transform="translate(0 -0.01)"/>
          <path class="cls-3" d="M354,119.59a6.37,6.37,0,0,1,3.51-.2,2.31,2.31,0,0,1,1.72,1.75,2.7,2.7,0,0,1-1.28,2.34,10.11,10.11,0,0,1-3.23,1.26,1,1,0,0,0-.74,1l.71,6.87a1,1,0,0,0,1,1,1,1,0,0,0,1-1L356,125.7l-.73,1a10.47,10.47,0,0,0,4.37-2,4.46,4.46,0,0,0,1.55-4,4.28,4.28,0,0,0-2.71-3,7.89,7.89,0,0,0-5,0,1,1,0,0,0,.53,1.93Z" transform="translate(0 -0.01)"/>
          <path class="cls-3" d="M356.19,135.17h0l-.1.24,0,0-.16.2,0,0-.21.16,0,0-.24.1,0,0-.26,0h.06l-.27,0,.06,0-.24-.1.05,0-.2-.15,0,0-.16-.21,0,0-.1-.23a0,0,0,0,0,0,0l0-.27h0a.59.59,0,0,0,0,.14.63.63,0,0,0,.12.37v0l-.1-.24s0,0,0,0l0-.27v0l0-.27a.06.06,0,0,0,0,0l.1-.24,0,0,.16-.2,0,0,.2-.16-.07,0,.24-.1-.08,0,.26,0h-.06l.26,0,0,0,.23.1,0,0,.2.16,0,0,.16.2s0,0,0,0l.1.24a0,0,0,0,1,0,0,1.15,1.15,0,0,0-.46-.6.81.81,0,0,0-.37-.12.78.78,0,0,0-.4,0l-.24.1a1,1,0,0,0-.36.36l-.1.24a1,1,0,0,0,0,.53v0h0l.1.24a2.29,2.29,0,0,0,.17.23l0,0a.92.92,0,0,0,.22.17,1.59,1.59,0,0,0,.27.12h0a1.11,1.11,0,0,0,.33,0l.3,0h0a1.69,1.69,0,0,0,.27-.12H356l.2-.16,0,0a2,2,0,0,0,.17-.23l0,0a1.09,1.09,0,0,0,.15-.56h0l0-.26v0a1.39,1.39,0,0,0-.12-.28l.14.51h0a2.51,2.51,0,0,0,0-.27h0v0a1.75,1.75,0,0,0-.11-.24h0l-.16-.21,0,0h0L356,134h0l-.25-.1h-.05l-.27,0h0l-.15,0-.16,0a1.39,1.39,0,0,0-.28.12h0l-.2.16,0,0-.16.2h0a1.19,1.19,0,0,0-.11.26.78.78,0,0,0,0,.4.81.81,0,0,0,.12.37,1.15,1.15,0,0,0,.6.46l.26,0a1,1,0,0,0,.51-.14l.2-.16a1,1,0,0,0,.26-.44Z" transform="translate(0 -0.01)"/>
          <path class="cls-3" d="M364.32,119.41c1.6-.27,4,.83,3.35,2.83s-3.24,2.53-4.73,3.56a1,1,0,0,0-.5.86,46.58,46.58,0,0,1,.4,6.35,1,1,0,0,0,2,0,46.58,46.58,0,0,0-.4-6.35l-.49.86c2.24-1.54,5.69-2.47,5.81-5.75a4.25,4.25,0,0,0-1.75-3.46,5.46,5.46,0,0,0-4.22-.82,1,1,0,0,0-.7,1.23,1,1,0,0,0,1.23.69Z" transform="translate(0 -0.01)"/>
          <path class="cls-3" d="M363.54,136.5l.3.55,1.37-1.37-.86-.38a.85.85,0,0,0-.37-.12.77.77,0,0,0-.4,0,1.15,1.15,0,0,0-.6.46l-.1.24a1,1,0,0,0,0,.53l.1.24a1,1,0,0,0,.36.36l.86.38.24.1a.77.77,0,0,0,.4,0,.55.55,0,0,0,.25-.07.75.75,0,0,0,.32-.21l.16-.2.1-.24a.77.77,0,0,0,0-.4.72.72,0,0,0-.11-.37l-.3-.55a.8.8,0,0,0-.26-.29.78.78,0,0,0-.34-.17.68.68,0,0,0-.4,0,.65.65,0,0,0-.37.12l-.2.15a1.17,1.17,0,0,0-.26.44l0,.27a1,1,0,0,0,.13.51Z" transform="translate(0 -0.01)"/>
        </g>
      </g>
    </g>
  </g>
</svg>
