<?xml version="1.0" encoding="UTF-8"?>
<svg id="Layer_2" data-name="Layer 2" xmlns="http://www.w3.org/2000/svg" viewBox="0 0 167.22 103.37">
  <defs>
    <style>
      .cls-1 {
        fill: #ed1c24;
      }

      .cls-2 {
        fill: #00aeef;
      }

      .cls-3 {
        fill: #999;
      }
    </style>
  </defs>
  <g id="Layer_1-2" data-name="Layer 1">
    <g>
      <path class="cls-2" d="M2.85,98.21c-.06-3.62-.18-9.07-.48-15.7-.55-12.19-1.27-18.59-1.61-24.48-.46-7.91-.52-19.33,1.53-33.75,3.14.26,8.32-.18,14.61.64,6.01.78,12.09-.04,18.1-.79,21.13-2.65,49.9,1.18,89.23-.16,8.33-.29,20.64-.89,35.68-2.34-2.47,14.74-4.19,32.1-3.87,51.54.17,10.36.9,20.03,1.97,28.91-12.59-.26-22.8-.26-29.98-.2-6.85.05-11.57.15-19.64.03-8.92-.14-13.09-.49-18.97-.59-15.57-.27-26.67.25-31.36.4-11.87.39-29.72.03-55.2-3.5Z"/>
      <path class="cls-3" d="M3.35,98.21c-.16-10.28-.62-20.55-1.4-30.8-.59-7.82-1.12-15.6-.88-23.45.2-6.54.79-13.07,1.7-19.56l-.48.37c2.12.17,4.25.09,6.38.11,2.97.04,5.9.27,8.85.6,6.2.69,12.36-.29,18.5-.99,7.91-.9,15.91-.91,23.87-.78,9.86.16,19.7.59,29.56.82,11.83.28,23.66.32,35.48-.1,10.07-.36,20.14-.99,30.18-1.87,1.6-.14,3.19-.29,4.79-.44l-.48-.63c-1.61,9.63-2.74,19.34-3.35,29.09-.71,11.24-.75,22.52-.12,33.76.33,5.93.86,11.84,1.56,17.73l.5-.5c-11.02-.22-22.03-.28-33.05-.18-5.52.05-11.05.09-16.57,0-5.04-.08-10.08-.31-15.11-.49-10.23-.36-20.49-.21-30.72.14-7.09.24-14.16.37-21.26.13-11.1-.37-22.18-1.38-33.2-2.78-1.7-.22-3.4-.44-5.1-.68-.63-.09-.9.88-.27.96,11.52,1.59,23.1,2.79,34.73,3.33,7.56.35,15.12.39,22.68.11,9.93-.36,19.87-.52,29.8-.32,4.54.09,9.08.35,13.63.48,5.82.16,11.64.19,17.46.14,10.68-.09,21.36-.12,32.04.05,1.65.03,3.3.06,4.95.09.25,0,.53-.23.5-.5-1.29-10.79-1.96-21.64-2-32.51-.04-10.64.52-21.28,1.68-31.86.58-5.34,1.32-10.65,2.21-15.95.05-.29-.13-.67-.48-.63-10.69,1.03-21.41,1.77-32.15,2.21-11.38.46-22.77.52-34.16.3-10.11-.19-20.21-.61-30.32-.84-8.21-.19-16.45-.28-24.64.45-5.49.49-10.92,1.48-16.45,1.49-3.19,0-6.33-.52-9.5-.71-2.52-.15-5.05-.13-7.57-.15-.94,0-1.89-.02-2.83-.1-.19-.02-.45.16-.48.37C.36,34.46-.3,44.9.13,55.33c.34,8.36,1.23,16.69,1.64,25.04.29,5.94.49,11.89.58,17.84.01.64,1.01.64,1,0Z"/>
    </g>
    <g>
      <path class="cls-1" d="M150.57,101.29c.73-10.24.94-20.5.83-30.76-.11-10.19-.52-20.37-1.02-30.54-.14-2.84-.33-5.68-.41-8.52s.03-5.45.84-8.07l-1.96-.27c-.05.5-.09,1-.14,1.5-.05.54.5,1,1,1,.58,0,.95-.46,1-1,.05-.5.09-1,.14-1.5.11-1.16-1.64-1.3-1.96-.27-1.46,4.72-.87,9.79-.62,14.64.26,5.17.5,10.34.7,15.51.39,10.3.6,20.61.39,30.91-.11,5.79-.36,11.58-.77,17.36-.09,1.28,1.91,1.28,2,0h0Z"/>
      <path class="cls-1" d="M144.22,101.56c-1.55-9.82-1.45-19.71-1.4-29.62s.1-20.04.15-30.06c.03-5.69.06-11.37.09-17.06h-2c.02.32.03.64.05.96.06,1.28,2.06,1.29,2,0-.02-.32-.03-.64-.05-.96-.06-1.28-1.99-1.3-2,0-.05,10.13-.1,20.25-.16,30.38-.03,5.04-.05,10.09-.08,15.13s-.1,10,.01,15c.12,5.61.58,11.2,1.46,16.75.08.53.75.83,1.23.7.57-.16.78-.69.7-1.23h0Z"/>
      <path class="cls-1" d="M133.22,99.69c-.33-9.84-.52-19.68-.58-29.52s.03-19.69.24-29.53c.12-5.56.29-11.13.5-16.69h-2c.05.76.09,1.53.14,2.29.08,1.28,2.08,1.29,2,0-.05-.76-.09-1.53-.14-2.29-.08-1.28-1.95-1.29-2,0-.37,9.84-.61,19.68-.71,29.52s-.06,19.69.11,29.53c.1,5.56.24,11.13.43,16.69.04,1.28,2.04,1.29,2,0h0Z"/>
      <path class="cls-1" d="M124.59,101.76c-1.62-9.71-2.16-19.52-2.02-29.36.14-9.92.71-19.84,1.14-29.74.24-5.62.49-11.24.73-16.85.06-1.29-1.94-1.28-2,0-.43,10-.87,19.99-1.3,29.99s-.9,19.99-.33,29.97c.32,5.54.94,11.05,1.86,16.52.09.53.75.83,1.23.7.57-.16.79-.7.7-1.23h0Z"/>
      <path class="cls-1" d="M112.56,99.93c-1.42-9.55-2.24-19.18-2.7-28.82s-.54-19.25-.48-28.88c.04-5.45.12-10.9.21-16.35.02-1.29-1.98-1.29-2,0-.16,9.71-.3,19.43-.19,29.14s.47,19.41,1.31,29.08c.47,5.47,1.11,10.93,1.91,16.37.08.53.75.83,1.23.7.57-.16.78-.69.7-1.23h0Z"/>
      <path class="cls-1" d="M101.71,99.91c-.03-9.61-.06-19.23-.09-28.84s-.06-19.23-.09-28.84c-.02-5.41-.03-10.82-.05-16.23l-1.96.27c.1.31.21.63.31.94.4,1.22,2.33.7,1.93-.53-.1-.31-.21-.63-.31-.94-.34-1.05-1.97-.9-1.96.27l.09,28.84c.03,9.61.06,19.23.09,28.84l.05,16.23c0,1.29,2,1.29,2,0h0Z"/>
      <path class="cls-1" d="M92.96,99.23c-1.01-9.33-1.44-18.71-1.52-28.1s.2-18.79.6-28.18c.23-5.27.49-10.54.76-15.81l-1.71.71c.14.15.27.29.41.44.88.94,2.29-.47,1.41-1.41-.14-.15-.27-.29-.41-.44-.62-.67-1.67-.12-1.71.71-.47,9.39-.95,18.77-1.2,28.17s-.27,18.78.16,28.16c.24,5.26.63,10.52,1.2,15.76.06.54.42,1,1,1,.5,0,1.06-.46,1-1h0Z"/>
      <path class="cls-1" d="M83.85,98.77c-1.1-9.76-2.02-19.53-2.78-29.32s-1.73-19.35-.78-28.96c.26-2.64.75-5.22,1.26-7.82s.99-5.36.87-8.08c-.06-1.28-2.06-1.29-2,0,.21,4.76-1.33,9.41-1.93,14.1s-.65,9.58-.47,14.38c.36,9.75,1.25,19.5,2.15,29.21.51,5.5,1.08,11,1.69,16.5.06.54.42,1,1,1,.49,0,1.06-.46,1-1h0Z"/>
      <path class="cls-1" d="M73.65,99.24c-1.98-9.45-1.84-19.15-2.07-28.76-.12-4.81-.38-9.6-.92-14.38s-1.28-9.71-1.61-14.6c-.37-5.47-.18-10.97.52-16.41.07-.54-.51-1-1-1-.6,0-.93.46-1,1-.63,4.87-.85,9.79-.62,14.7s.92,9.75,1.5,14.61.94,9.73,1.08,14.63.15,9.65.36,14.48c.23,5.45.71,10.91,1.83,16.26.26,1.26,2.19.73,1.93-.53h0Z"/>
      <path class="cls-1" d="M63.56,101.53c.68-10.35.93-20.73.48-31.1-.22-5.12-.49-10.29-1.28-15.35-.38-2.47-1.1-4.85-1.6-7.3s-.45-4.98-.33-7.49c.27-5.84.55-11.68.83-17.52.06-1.29-1.94-1.28-2,0-.25,5.18-.49,10.36-.74,15.55-.12,2.53-.33,5.1-.06,7.63s1.02,4.87,1.54,7.31c1.06,4.97,1.28,10.14,1.54,15.2s.36,10.36.3,15.55c-.06,5.85-.31,11.69-.69,17.52-.08,1.28,1.92,1.28,2,0h0Z"/>
      <path class="cls-1" d="M54.6,100.39c-.91-9.87,1.84-19.67,1-29.54-.41-4.87-2.03-9.53-2.51-14.39-.25-2.55-.15-5.11-.09-7.67s.02-4.97-.25-7.45c-.6-5.44-1.96-11-.93-16.47.24-1.26-1.69-1.8-1.93-.53-.93,4.94-.08,9.88.59,14.8.33,2.44.56,4.88.56,7.34s-.16,5.12-.09,7.68c.15,5.02,1.72,9.79,2.43,14.73s.33,9.84-.13,14.71c-.52,5.58-1.17,11.19-.65,16.79.05.54.42,1,1,1,.5,0,1.05-.46,1-1h0Z"/>
      <path class="cls-1" d="M43.83,101.74c-.49-5.07-.97-10.15-1.16-15.25s.05-10.16.58-15.23.97-9.85.49-14.81-1.47-9.4-2.27-14.09c-.9-5.21-1.53-10.57-.65-15.82.09-.53-.14-1.08-.7-1.23-.48-.13-1.14.16-1.23.7-1.61,9.59,1.4,18.94,2.62,28.38.31,2.39.49,4.79.47,7.2-.03,2.54-.25,5.07-.51,7.59-.52,5.12-.96,10.19-.86,15.34.12,5.75.66,11.49,1.21,17.21.05.54.42,1,1,1,.5,0,1.05-.46,1-1h0Z"/>
      <path class="cls-1" d="M33.66,99.21c-.3-9.5-.58-19.01-.83-28.51s-.46-18.93-.65-28.39c-.11-5.35-.2-10.71-.29-16.06-.02-1.29-2.02-1.29-2,0,.16,9.51.34,19.01.55,28.52s.46,18.93.73,28.39c.15,5.35.32,10.71.49,16.06.04,1.28,2.04,1.29,2,0h0Z"/>
      <path class="cls-1" d="M24.67,99.18c-.51-9.22-.92-18.45-1.23-27.68s-.51-18.55-.61-27.82c-.03-2.58-.05-5.16-.06-7.74,0-1.29,0-2.58-.01-3.87,0-.67,0-1.33,0-2,0-.48-.12-1.19.04-1.6l-.26.44h-.02c-.17.06-.34.1-.5.15h.09c-.24-.09-.47-.18-.71-.28l.06.06-.26-.44-.02-.09.29-.71-.04.05.97-.26-.07-.02c-1.26-.27-1.79,1.66-.53,1.93l.07.02c.33.07.74.02.97-.26.69-.82.11-2.3-1.09-1.97s-.99,1.79-.99,2.73c0,2.5,0,4.99.02,7.49.03,4.99.09,9.98.17,14.98.18,9.98.47,19.96.89,29.94.24,5.65.51,11.3.83,16.95.07,1.28,2.07,1.29,2,0h0Z"/>
      <path class="cls-1" d="M14.47,97.18c-1.25-4.35-2.51-8.71-3.44-13.14s-1.45-8.94-1.44-13.49.34-9.3.58-13.94.47-9.38.71-14.07c.27-5.31.53-10.62.8-15.94.06-1.29-1.94-1.28-2,0-.48,9.46-.95,18.92-1.43,28.39-.24,4.69-.55,9.39-.64,14.09s.29,9.19,1.15,13.73c.95,5.04,2.37,9.98,3.79,14.9.36,1.23,2.29.71,1.93-.53h0Z"/>
    </g>
    <g>
      <g>
        <path d="M153.48,24.47c1.05-.44,2.5-.82,3.39.13.6.64.8,1.59.91,2.42.31,2.33,0,4.75-.26,7.06-.49,4.53-.9,9.07-1.15,13.63-.18,3.36-.29,6.72-.34,10.08,0,.24.16.4.37.48,1.63.68,2.9,2.04,3.48,3.7l.23-.56c-1.39.88-3.23.25-4.62,1.15s-1.4,2.54-1.19,3.95c.38,2.55.7,5.03.71,7.61s-.16,5.4-.29,8.1c-.16,3.35-.23,6.7-.13,10.05.07,2.44.22,4.87.45,7.3.07.75.3,1.85-.27,2.46-.68.73-2.08.17-2.84-.12-.6-.23-.86.73-.27.96,1.4.54,3.48.95,4.22-.78.27-.63.27-1.33.21-1.99-.1-1.16-.21-2.31-.29-3.47-.26-3.81-.32-7.62-.2-11.43.17-5.53.78-11.08.04-16.59-.19-1.39-.84-3.2-.21-4.55.45-.95,1.59-1.03,2.51-1.11s1.86-.17,2.67-.68c.18-.11.3-.35.23-.56-.71-2.02-2.21-3.58-4.18-4.4l.37.48c.08-5.89.36-11.78.87-17.66.2-2.28.46-4.56.7-6.84.25-2.42.58-5.05-.03-7.45-.23-.91-.67-1.83-1.48-2.37-1.26-.83-2.83-.42-4.11.12-.59.25-.08,1.11.5.86h0Z"/>
        <path d="M161.76,52.41c-.3,2.43-.02,4.85.32,7.26s.73,4.94,1.09,7.41c.08.55,1.02.43.98-.13-.1-1.4-.07-2.81.11-4.2.09-.68.22-1.36.37-2.03.05-.21.09-.82.29-.92s.38.46.43.63c.78,2.68.92,5.67.84,8.45-.02.64.98.64,1,0,.05-1.84-.04-3.68-.29-5.51-.12-.92-.28-1.83-.48-2.73-.14-.63-.32-1.34-.9-1.72-1.53-1.03-1.91,1.7-2.08,2.59-.33,1.8-.43,3.63-.3,5.45l.98-.13c-.35-2.39-.71-4.78-1.06-7.17s-.62-4.81-.32-7.23c.08-.64-.92-.63-1,0h0Z"/>
      </g>
      <g>
        <path d="M146.82,20.43c-.14-.6-.34-1.36.04-1.91.12-.18.31-.35.53-.37.34-.03.62.09.95-.1.52-.31.68-1.07.89-1.59.28-.71.55-1.41.83-2.12h-.96c.29,1.14.56,2.29.81,3.43.07.33.46.44.73.3.67-.34,1.63-.37,1.96.44.21.51.14,1.08-.15,1.54-.34.55.52,1.05.86.5.5-.79.55-1.85.09-2.68-.67-1.19-2.17-1.23-3.27-.66l.73.3c-.25-1.15-.52-2.29-.81-3.43-.13-.52-.8-.43-.96,0-.29.73-.57,1.46-.86,2.18-.07.19-.15.37-.22.56-.04.09-.08.29-.17.35-.08.06-.25-.01-.36-.02-.15,0-.31.01-.46.05-.59.16-1.03.67-1.24,1.23-.26.73-.1,1.53.07,2.26.14.63,1.11.36.96-.27h0Z"/>
        <path d="M146.39.48l.82,10.19.93-.25c-.36-.84-.75-1.66-1.21-2.45-.51-.88-1.17-1.97-2.15-2.39-.6-.26-1.29-.19-1.73.32s-.5,1.18-.48,1.8c.04,1.45.55,3.06,1.84,3.88.91.58,2.12.59,3.12.24.6-.21.34-1.18-.27-.96-.87.3-1.91.3-2.63-.35-.56-.52-.86-1.26-.99-2-.09-.49-.28-1.6.19-1.98,1.12-.92,3.12,3.68,3.44,4.41.19.46.97.22.93-.25l-.82-10.19c-.05-.64-1.05-.64-1,0h0Z"/>
        <path d="M149.33,4.45c-.25,1.17-.33,2.37-.19,3.56.07.59.18,1.18.35,1.76.13.44.29,1.03.8,1.15.71.16,1.31-.74,1.66-1.24.52-.74.83-1.61.98-2.5l-.98-.13c.13.97.22,2.12.76,2.97.23.36.6.64,1.05.54.5-.11.81-.58,1.07-.98,1.18-1.79,2-3.82,2.74-5.82.22-.6-.74-.87-.96-.27-.6,1.61-1.26,3.21-2.11,4.71-.21.37-.42.74-.67,1.08-.05.07-.1.15-.17.21-.19.18,0,.05-.03.09.03-.07.06.22,0-.02,0-.02-.07-.1-.08-.12-.41-.68-.48-1.63-.58-2.4-.03-.25-.17-.45-.43-.49-.23-.03-.51.11-.55.36-.12.71-.34,1.4-.72,2.02-.12.19-.23.34-.36.5-.06.08-.5.46-.49.5l.23.05s-.04-.08-.06-.12c-.01-.1-.07-.2-.1-.3-.06-.21-.12-.43-.17-.64-.1-.45-.17-.91-.21-1.37-.07-.95,0-1.9.2-2.83.14-.63-.83-.9-.96-.27h0Z"/>
      </g>
    </g>
  </g>
</svg>