<svg xmlns="http://www.w3.org/2000/svg" viewBox="0 0 182.65 145.39">
  <defs>
    <style>
      .cls-1 {
        fill: #808285;
      }
    </style>
  </defs>
  <title>rectangular-world-1</title>
  <g id="Layer_2" data-name="Layer 2">
    <g id="Layer_1-2" data-name="Layer 1">
      <g>
        <path class="cls-1" d="M8.86,17.66q32.7-1.26,65.45-1.39t65.45.88q18.38.57,36.71,1.49c.33,0,.33-.48,0-.5Q143.79,16.49,111.05,16t-65.47.12q-18.36.34-36.72,1.06c-.32,0-.32.51,0,.5Z"/>
        <path class="cls-1" d="M24.57,29.44q25.93-1.94,51.92-3t51.73-1.14q14.52-.06,29,.15a.25.25,0,0,0,0-.5q-26-.37-52,.14t-51.7,1.94q-14.49.8-29,1.88c-.32,0-.32.52,0,.5Z"/>
        <path class="cls-1" d="M17.17,26.15a.25.25,0,0,0,0-.5.25.25,0,0,0,0,.5Z"/>
        <path class="cls-1" d="M13.59,42.82q30.68-3,61.5-3.73,30.64-.73,61.29.74,17.25.84,34.46,2.38c.32,0,.32-.48,0-.5Q140.15,39,109.32,38.46,78.66,37.95,48,39.68q-17.25,1-34.45,2.64c-.32,0-.32.53,0,.5Z"/>
        <path class="cls-1" d="M23.54,53.4q25.93-1.76,51.94-2.65t52-.91q14.6,0,29.18.26a.25.25,0,0,0,0-.5q-26-.48-52-.08t-52,1.68q-14.58.7-29.14,1.7c-.32,0-.32.52,0,.5Z"/>
        <path class="cls-1" d="M13.17,69.15q31.72-3.32,63.64-4.26,31.72-.93,63.45.51,17.87.82,35.68,2.39c.32,0,.32-.47,0-.5q-31.77-2.79-63.7-3.2-31.72-.41-63.43,1.58-17.85,1.11-35.64,3c-.31,0-.32.54,0,.5Z"/>
        <path class="cls-1" d="M14.35,84q31.84-4.38,64-5.88T142.4,78q18,.78,35.91,2.46c.32,0,.32-.47,0-.5q-32.12-3-64.4-3.12-32-.1-64,2.66-17.91,1.56-35.74,4c-.31,0-.18.53.14.48Z"/>
        <path class="cls-1" d="M7,92.82q33-3.46,66.19-4.32t66.43.91q18.76,1,37.45,2.83c.32,0,.32-.47,0-.5q-33.14-3.22-66.46-3.87T44.21,89.24Q25.55,90.37,7,92.32c-.31,0-.32.53,0,.5Z"/>
        <path class="cls-1" d="M18.38,115.19q31.17-3.06,62.51-3.71t62.77,1.1q17.75,1,35.44,2.74c.32,0,.32-.47,0-.5q-31.35-3.09-62.87-3.81-31.33-.7-62.67,1-17.62.94-35.18,2.68c-.32,0-.32.53,0,.5Z"/>
        <path class="cls-1" d="M27.08,128.12q27.14-2,54.34-3.06,27-1,54.12-1,15.18,0,30.35.34c.32,0,.32-.49,0-.5q-27.18-.59-54.38-.15t-54.1,1.9q-15.18.81-30.33,2c-.32,0-.32.52,0,.5Z"/>
        <path class="cls-1" d="M.24,104.15c23.67-1.93,47.43-2.63,71.18-2.54s47.27.92,70.89,2c13.37.64,26.74,1.36,40.1,2.08.33,0,.32-.49,0-.5-23.72-1.28-47.45-2.56-71.2-3.34s-47.26-1.08-70.88-.4q-20.07.57-40.09,2.17c-.32,0-.32.53,0,.5Z"/>
        <path class="cls-1" d="M50.9,1.84Q52.58,29.4,54.06,57t2.79,55.14q.74,15.48,1.4,30.95c0,.32.51.32.5,0q-1.2-27.57-2.58-55.14t-3-55.13Q52.35,17.31,51.4,1.84c0-.32-.52-.32-.5,0Z"/>
        <path class="cls-1" d="M74.85,142.42q-1.51-27.55-2.59-55.14T70.51,32.1q-.36-15.5-.6-31c0-.32-.51-.32-.5,0q.42,27.6,1.27,55.19t2.11,55.17q.7,15.48,1.56,30.94c0,.32.51.32.5,0Z"/>
        <path class="cls-1" d="M91.9,135.83Q87.91,110,86,84,84.1,58.15,84.23,32.24,84.31,17.58,85,3c0-.32-.48-.32-.5,0Q83.24,29.08,84,55.25q.78,26,3.61,51.9Q89.2,121.6,91.42,136c0,.32.53.18.48-.13Z"/>
        <path class="cls-1" d="M105.24,136.85q-1.76-25.92-2.89-51.87t-1.64-51.92q-.3-14.58-.38-29.16c0-.32-.51-.32-.5,0q.17,26,.94,51.94t2.2,51.91q.78,14.55,1.77,29.1c0,.32.52.32.5,0Z"/>
        <path class="cls-1" d="M124.19,143.29q-3-26-4.63-52.15t-1.77-52.29q-.11-14.75.25-29.48c0-.32-.49-.32-.5,0q-.63,26.16.17,52.32t3,52.24q1.26,14.7,3,29.36c0,.32.54.32.5,0Z"/>
        <path class="cls-1" d="M140.06,137.64q-2.31-24.73-4.23-49.51t-3.44-49.32Q131.54,25,130.8,11.1c0-.32-.52-.32-.5,0q1.32,24.81,3,49.61T137.1,110q1.17,13.83,2.46,27.64c0,.32.53.32.5,0Z"/>
        <path class="cls-1" d="M152.71,137.64Q151,110.85,149.86,84t-1.77-53.67q-.33-15.06-.5-30.13c0-.32-.51-.32-.5,0q.3,26.85,1.14,53.68t2.24,53.64q.79,15,1.74,30.08c0,.32.52.32.5,0Z"/>
        <path class="cls-1" d="M43.23,145.15Q41,117.43,40.28,89.62q-.73-27.66,0-55.33Q40.63,18.63,41.48,3c0-.32-.48-.32-.5,0Q39.47,30.74,39.4,58.57q-.06,27.66,1.31,55.31.78,15.65,2,31.27c0,.32.52.32.5,0Z"/>
      </g>
    </g>
  </g>
</svg>
