<svg xmlns="http://www.w3.org/2000/svg" viewBox="0 0 400.07 187.38">
  <defs>
    <style>
      .cls-1 {
        fill: #808285;
      }

      .cls-2 {
        fill: #ed2024;
      }

      .cls-3 {
        fill: #662d91;
      }
    </style>
  </defs>
  <title>rectangular-world-2</title>
  <g id="Layer_2" data-name="Layer 2">
    <g id="Layer_1-2" data-name="Layer 1">
      <g>
        <path class="cls-1" d="M8.86,59.67q32.7-1.26,65.45-1.39t65.45.88q18.38.57,36.71,1.49c.33,0,.33-.48,0-.5Q143.79,58.52,111.05,58t-65.47.11q-18.36.36-36.72,1.06c-.32,0-.32.51,0,.5Z" transform="translate(0 -0.02)"/>
        <path class="cls-1" d="M24.57,71.45q25.93-1.94,51.92-3t51.73-1.14q14.52-.07,29,.15a.25.25,0,0,0,0-.5q-26-.39-52,.13t-51.7,1.94q-14.49.8-29,1.88c-.32,0-.32.52,0,.5Z" transform="translate(0 -0.02)"/>
        <path class="cls-1" d="M17.17,68.16a.25.25,0,0,0,0-.5.25.25,0,0,0,0,.5Z" transform="translate(0 -0.02)"/>
        <path class="cls-1" d="M13.59,84.83q30.68-3,61.5-3.73,30.64-.73,61.29.75,17.25.83,34.46,2.37c.32,0,.32-.47,0-.5Q140.15,81,109.32,80.47,78.66,80,48,81.69q-17.25,1-34.45,2.64c-.32,0-.32.53,0,.5Z" transform="translate(0 -0.02)"/>
        <path class="cls-1" d="M23.54,95.41q25.93-1.75,51.94-2.65t52-.91q14.6,0,29.18.26a.25.25,0,0,0,0-.5q-26-.48-52-.07t-52,1.67q-14.58.72-29.14,1.7c-.32,0-.32.53,0,.5Z" transform="translate(0 -0.02)"/>
        <path class="cls-1" d="M13.17,111.17q31.72-3.33,63.64-4.27,31.72-.93,63.45.52,17.87.81,35.68,2.38c.32,0,.32-.47,0-.5q-31.77-2.79-63.7-3.2-31.72-.39-63.43,1.58-17.85,1.13-35.64,3c-.31,0-.32.53,0,.5Z" transform="translate(0 -0.02)"/>
        <path class="cls-1" d="M14.35,126q31.84-4.38,64-5.89T142.4,120q18,.78,35.91,2.46c.32,0,.32-.47,0-.5q-32.12-3-64.4-3.12-32-.1-64,2.66-17.91,1.56-35.74,4c-.31,0-.18.52.14.48Z" transform="translate(0 -0.02)"/>
        <path class="cls-1" d="M7,134.83q33-3.47,66.19-4.32t66.43.92q18.76,1,37.45,2.82c.32,0,.32-.47,0-.5q-33.14-3.23-66.46-3.87t-66.36,1.37Q25.55,132.38,7,134.33c-.31,0-.32.54,0,.5Z" transform="translate(0 -0.02)"/>
        <path class="cls-1" d="M18.38,157.2q31.17-3,62.51-3.71t62.77,1.1q17.75,1,35.44,2.74c.32,0,.32-.46,0-.5q-31.35-3.09-62.87-3.81-31.33-.71-62.67,1-17.62,1-35.18,2.68c-.32,0-.32.53,0,.5Z" transform="translate(0 -0.02)"/>
        <path class="cls-1" d="M27.08,170.13q27.14-2,54.34-3.06,27-1,54.12-1,15.18,0,30.35.34c.32,0,.32-.49,0-.5q-27.18-.58-54.38-.15t-54.1,1.9q-15.18.83-30.33,2c-.32,0-.32.53,0,.5Z" transform="translate(0 -0.02)"/>
        <path class="cls-1" d="M.24,146.17c23.67-1.94,47.43-2.63,71.18-2.55s47.27.92,70.89,2c13.37.63,26.74,1.35,40.1,2.07.33,0,.32-.48,0-.5-23.72-1.28-47.45-2.56-71.2-3.34s-47.26-1.08-70.88-.4c-13.38.38-26.75,1.08-40.09,2.18-.32,0-.32.52,0,.5Z" transform="translate(0 -0.02)"/>
        <path class="cls-1" d="M50.9,43.85Q52.58,71.41,54.06,99t2.79,55.13q.74,15.48,1.4,31c0,.32.51.33.5,0q-1.2-27.57-2.58-55.14t-3-55.13q-.87-15.47-1.82-30.93c0-.32-.52-.32-.5,0Z" transform="translate(0 -0.02)"/>
        <path class="cls-1" d="M74.85,184.43q-1.51-27.56-2.59-55.14T70.51,74.11q-.36-15.48-.6-31c0-.32-.51-.32-.5,0q.42,27.6,1.27,55.2t2.11,55.16q.7,15.48,1.56,30.94c0,.32.51.33.5,0Z" transform="translate(0 -0.02)"/>
        <path class="cls-1" d="M91.9,177.84Q87.91,152,86,126q-1.91-25.81-1.77-51.74Q84.31,59.6,85,45c0-.33-.48-.32-.5,0Q83.24,71.09,84,97.26q.78,26,3.61,51.9Q89.2,163.6,91.42,178c0,.32.53.19.48-.13Z" transform="translate(0 -0.02)"/>
        <path class="cls-1" d="M105.24,178.86q-1.76-25.92-2.89-51.87t-1.64-51.92q-.3-14.58-.38-29.16c0-.32-.51-.32-.5,0q.17,26,.94,52t2.2,51.9q.78,14.55,1.77,29.1c0,.32.52.32.5,0Z" transform="translate(0 -0.02)"/>
        <path class="cls-1" d="M124.19,185.3q-3-26-4.63-52.14t-1.77-52.3q-.11-14.73.25-29.48c0-.32-.49-.32-.5,0q-.63,26.16.17,52.32t3,52.25q1.26,14.7,3,29.35c0,.32.54.32.5,0Z" transform="translate(0 -0.02)"/>
        <path class="cls-1" d="M140.06,179.65q-2.31-24.74-4.23-49.51t-3.44-49.32Q131.54,67,130.8,53.11c0-.32-.52-.32-.5,0q1.32,24.83,3,49.61T137.1,152q1.17,13.81,2.46,27.63c0,.32.53.32.5,0Z" transform="translate(0 -0.02)"/>
        <path class="cls-1" d="M152.71,179.65q-1.69-26.79-2.85-53.6t-1.77-53.66q-.33-15.07-.5-30.14c0-.32-.51-.32-.5,0q.3,26.85,1.14,53.69t2.24,53.64q.79,15,1.74,30.07c0,.32.52.32.5,0Z" transform="translate(0 -0.02)"/>
        <path class="cls-1" d="M43.23,187.16Q41,159.44,40.28,131.63q-.73-27.66,0-55.33Q40.63,60.64,41.48,45c0-.32-.48-.32-.5,0q-1.51,27.78-1.58,55.59t1.31,55.31q.78,15.65,2,31.27c0,.32.52.32.5,0Z" transform="translate(0 -0.02)"/>
      </g>
      <g>
        <polygon class="cls-2" points="293.95 55.19 341.81 55.19 343.35 101.52 315.12 99.38 294.87 101.22 293.95 55.19"/>
        <g>
          <path class="cls-1" d="M267.26,55.07q21.6.54,43.21.64c14.33.1,28.65.09,43,0l24.24-.08a.5.5,0,0,0,0-1q-21.62.07-43.22.11t-43-.26q-12.12-.16-24.23-.46a.5.5,0,0,0,0,1Z" transform="translate(0 -0.02)"/>
          <path class="cls-1" d="M269.1,102.46A360.74,360.74,0,0,1,309,100.61c13.35,0,26.69.57,40,1.12l22.61.94c.64,0,.64-1,0-1-13.4-.56-26.8-1.17-40.2-1.61s-26.66-.66-40-.17c-7.44.27-14.88.77-22.29,1.57-.63.07-.64,1.07,0,1Z" transform="translate(0 -0.02)"/>
          <path class="cls-1" d="M293.12,31.46q-.06,17.28.27,34.54t1,34.52q.4,9.72.93,19.43c0,.64,1,.64,1,0q-.93-17.25-1.47-34.51t-.71-34.53q-.09-9.72-.05-19.45a.5.5,0,0,0-1,0Z" transform="translate(0 -0.02)"/>
          <path class="cls-1" d="M341.37,27.68q-.12,18.21.31,36.43t1.42,36.28q.56,10.24,1.29,20.48c.05.64,1.05.64,1,0q-1.29-18.16-2.05-36.38t-.93-36.3q-.11-10.26,0-20.51a.5.5,0,0,0-1,0Z" transform="translate(0 -0.02)"/>
        </g>
      </g>
      <g>
        <path class="cls-3" d="M129.82,76.16a26.23,26.23,0,0,0-27.76,6.22,36,36,0,0,0-2.92,3.37,24,24,0,0,0-4.45,8.16c-1.6,5.76.39,11.61,4.16,16,6.86,8.07,19.55,10.59,29,5.94a25.82,25.82,0,0,0,7.33-5.41,21.71,21.71,0,0,0,2.61-26.85,24.73,24.73,0,0,0-5-6,10.67,10.67,0,0,0-3-1.49,2,2,0,0,0-2.46,1.39A2,2,0,0,0,128.75,80c.43.17.35.14.75.32l.41.2c.14.06.61.2,0-.13a2.09,2.09,0,0,1,.17.14c.25.21.5.44.74.67.4.38.78.78,1.15,1.18l.6.7.35.42.14.18c.3.37-.05-.09,0,0a27,27,0,0,1,2.76,4.62l.12.27,0,.09.25.66c.19.52.36,1.06.5,1.6s.25,1,.34,1.46c.05.28.09.56.14.84-.07-.41,0-.1,0,0l.06.62a19.57,19.57,0,0,1,0,3.59s-.08.67,0,.25l-.06.36c0,.3-.1.6-.16.9-.12.57-.27,1.14-.44,1.7a16.07,16.07,0,0,1-.53,1.52c0,.1-.19.44,0,0,0,.1-.08.2-.13.3-.13.29-.27.58-.42.86a20.56,20.56,0,0,1-1.61,2.61l-.18.24c-.28.38.2-.23,0,0s-.27.33-.41.5c-.31.37-.64.74-1,1.09q-.88.91-1.86,1.74l-.48.39c-.43.34.29-.21-.15.12l-.91.64c-.53.37-1.08.71-1.64,1s-1.36.73-2.06,1c.69-.32.34-.14,0,0s-.64.24-1,.35c-.64.22-1.3.4-2,.56s-1.33.28-2,.37l-.48,0c-.4,0-.81.07-1.22.08a20.48,20.48,0,0,1-7.62-1c-.62-.19-1.23-.41-1.83-.65-.38-.15-.17-.07-.08,0l-.56-.25c-.31-.14-.62-.29-.92-.45-.59-.31-1.17-.65-1.74-1l-.71-.48-.38-.28c-.5-.37.28.23-.2-.16a20.42,20.42,0,0,1-2.76-2.66l-.25-.29-.2-.25c.17.21-.21-.29-.19-.25s-.15-.21-.22-.31a19.88,19.88,0,0,1-1.06-1.69c-.14-.25-.27-.5-.39-.76s-.16-.34-.24-.51-.15-.35,0,0a13.56,13.56,0,0,1-.61-1.76,12.8,12.8,0,0,1-.38-1.82c0,.37,0,0,0,0s0-.37-.05-.56,0-.62,0-.93a10.72,10.72,0,0,1,.62-3.64,12.24,12.24,0,0,1,.62-1.57,20.64,20.64,0,0,1,1.07-2c.33-.55.68-1.08,1.06-1.6l.31-.42.14-.19.25-.32c.38-.49.77-1,1.17-1.45.55-.64,1.13-1.26,1.73-1.85.33-.33.67-.64,1-1l.53-.45.36-.31c.08-.06.47-.36.11-.09A23.94,23.94,0,0,1,110,81.29q.75-.42,1.53-.78l.45-.2c.34-.15-.44.17.16-.07q.48-.19,1-.36a23.88,23.88,0,0,1,4.39-1.09l.3,0c-.53.08,0,0,.11,0l.76-.08c.64-.06,1.28-.09,1.92-.1s1.2,0,1.8,0l1,.08.42,0c-.27,0,.37.06.45.07a23.2,23.2,0,0,1,4.41,1.2,2,2,0,0,0,2.46-1.39A2.05,2.05,0,0,0,129.82,76.16Z" transform="translate(0 -0.02)"/>
        <path class="cls-3" d="M108.64,82.68Q126.79,74.11,145.17,66q18.62-8.19,37.43-15.91,19-7.8,38.22-15.12Q240.32,27.54,260,20.6T299.73,7.09l5.07-1.64c2.44-.79,1.39-4.66-1.07-3.86q-20.07,6.5-40,13.46Q244,22,224.46,29.34T185.8,44.5q-19,7.72-37.81,15.94-18.51,8.09-36.81,16.65l-4.56,2.14a2,2,0,1,0,2,3.45Z" transform="translate(0 -0.02)"/>
        <path class="cls-3" d="M113.92,118.83q18.27,3.18,36.46,6.88t36.2,7.89q17.94,4.18,35.75,8.85t35.6,9.89q17.7,5.17,35.25,10.86l4.35,1.42c2.46.81,3.51-3.05,1.07-3.85q-17.52-5.75-35.2-11t-35.56-10q-17.79-4.74-35.71-9t-36.17-8q-18.17-3.77-36.43-7L115,115a2.06,2.06,0,0,0-2.46,1.4,2,2,0,0,0,1.4,2.46Z" transform="translate(0 -0.02)"/>
        <path class="cls-3" d="M336.19,2.33A69.26,69.26,0,0,0,308.33.75c-9.05,1.31-17.64,4.68-25.73,8.88a131,131,0,0,0-22.13,14.14,59.3,59.3,0,0,0-16.28,20,84.13,84.13,0,0,0-7.07,49.45,91.47,91.47,0,0,0,20.41,44.42,82.43,82.43,0,0,0,38.13,25.84c16.17,5.05,33.95,4.39,50-.69a79.51,79.51,0,0,0,39.52-27.39,72.55,72.55,0,0,0,10.73-20,76.65,76.65,0,0,0,4.12-26.4,102.63,102.63,0,0,0-4.6-28.14,85.38,85.38,0,0,0-11-23.8c-9.56-13.9-24.18-23.42-39.06-30.82-3.73-1.86-7.52-3.59-11.34-5.24a2.07,2.07,0,0,0-2.74.72,2,2,0,0,0,.72,2.73c14.84,6.41,29.78,14.1,41.36,25.6a67.43,67.43,0,0,1,13.89,20.24,103.58,103.58,0,0,1,7.5,25.2,82.15,82.15,0,0,1,.33,26.69,68.4,68.4,0,0,1-7.35,21.81,72.86,72.86,0,0,1-32.48,30.7,83.4,83.4,0,0,1-46.81,7.55,75.24,75.24,0,0,1-40.65-19.58,87.74,87.74,0,0,1-24.12-38.49,82,82,0,0,1-.41-47.08c2.35-8,5.88-15.84,11.33-22.24,5.33-6.25,12-11.21,18.93-15.53A119.89,119.89,0,0,1,296.4,7.87a66,66,0,0,1,26.29-3.74,63.12,63.12,0,0,1,12.44,2.06c2.49.67,3.55-3.19,1.06-3.86Z" transform="translate(0 -0.02)"/>
      </g>
    </g>
  </g>
</svg>
