<svg xmlns="http://www.w3.org/2000/svg" viewBox="0 0 213.96 114.94">
  <defs>
    <style>
      .cls-1 {
        fill: #808285;
      }
    </style>
  </defs>
  <title>skewed-rectangular-world</title>
  <g id="Layer_2" data-name="Layer 2">
    <g id="Layer_1-2" data-name="Layer 1">
      <path class="cls-1" d="M14.54,106.37c3-7.13,6.43-14.06,10.07-20.88S32.07,72,35.84,65.22s7.43-13.46,10.79-20.37S52.82,31,55.84,24.08A152.75,152.75,0,0,1,66.08,3.86c.5-.79,1-1.58,1.53-2.35.18-.27-.25-.52-.43-.26a132.5,132.5,0,0,0-10.63,20c-3.09,6.94-5.92,14-9.16,20.87s-7,13.79-10.7,20.54S29.06,76.19,25.37,83s-7.18,13.66-10.25,20.74c-.36.82-.72,1.65-1.06,2.48-.13.3.36.43.48.13Z"/>
      <path class="cls-1" d="M34.14,104.87c6.79-13.43,15.21-25.93,23.22-38.64,4-6.39,7.93-12.85,11.51-19.49,3.77-7,7.24-14.14,10.71-21.27L91.47,1.05C91.61.76,91.18.51,91,.8l-10.69,22c-3.45,7.09-6.86,14.19-10.54,21.16-7.07,13.44-15.52,26-23.57,38.89-4.45,7.11-8.75,14.33-12.54,21.82-.14.29.29.54.44.25Z"/>
      <path class="cls-1" d="M47.45,111q6.72-11.3,13.39-22.62T74.06,65.84q6.61-11.36,13.17-22.75l3.27-5.7c.78-1.35,1.61-2.68,2.32-4.07,1.05-2,2-4.12,3.05-6.17A210.75,210.75,0,0,1,106.93,8l1-1.54c.18-.27-.25-.52-.43-.25a208.61,208.61,0,0,0-10.88,18.4c-1.29,2.47-2.52,5-3.74,7.48-1.34,2.74-3,5.34-4.48,8Q81.86,51.44,75.25,62.8T62,85.39Q55.38,96.72,48.66,108L47,110.79c-.17.27.26.53.43.25Z"/>
      <path class="cls-1" d="M67.35,112.74Q79.79,91.92,91.72,70.81T115,28.52q6.38-11.92,12.6-23.94c.15-.29-.29-.54-.43-.25Q116,25.85,104.33,47.13t-23.69,42q-6.8,11.7-13.72,23.32a.25.25,0,0,0,.43.25Z"/>
      <path class="cls-1" d="M89.81,109.2Q95.7,98.42,101.7,87.69t12-21.3Q119.82,55.73,126,45.11T138.44,24Q144.74,13.48,151.13,3L152.72.37c.17-.27-.26-.53-.43-.25q-6.4,10.49-12.71,21T127.13,42.21q-6.21,10.62-12.32,21.28t-12,21.28q-6,10.73-11.92,21.5L89.37,109c-.15.28.28.54.44.25Z"/>
      <path class="cls-1" d="M110.52,111.15c4.75-6.8,9.1-13.86,13.24-21s8.07-14.5,12-21.82,7.87-14.7,12-21.94,8.41-14.28,13.09-21.1c2.35-3.42,4.84-6.72,7.28-10.06a63.52,63.52,0,0,0,6.42-10.32c.41-.88.79-1.78,1.13-2.68l-.48-.14-.68,2.09c-.1.31.38.44.48.13l.68-2.08c.1-.31-.37-.43-.48-.14-2.91,7.71-8.49,14-13.19,20.66s-9.14,13.81-13.29,21-8.07,14.42-12,21.7S128.92,80,124.82,87.25s-8.33,14.25-13,21.08c-.58.86-1.17,1.71-1.77,2.57-.18.26.25.51.43.25Z"/>
      <path class="cls-1" d="M136,111c7.55-13.62,15.1-27.25,23-40.69s16-26.56,24.7-39.34c2.44-3.57,4.95-7.1,7.46-10.62a108.4,108.4,0,0,0,7.1-10.91c.15-.28-.28-.54-.43-.25-3.7,6.77-8.57,12.85-12.95,19.18S176.14,41.22,172,47.76c-8.27,13.11-16.06,26.51-23.68,40-4.31,7.64-8.56,15.32-12.82,23a.25.25,0,0,0,.44.25Z"/>
      <path class="cls-1" d="M146.93,108.7q10.83-19.14,22-38.08T191.77,33q6.51-10.48,13.13-20.9a.25.25,0,0,0-.43-.26Q192.67,30.41,181.24,49.2T158.77,87q-6.2,10.68-12.27,21.42a.25.25,0,0,0,.43.25Z"/>
      <path class="cls-1" d="M122.44,110.69c4.18-8.08,8.95-15.84,13.85-23.5s10-15.25,14.7-23c3.15-5.16,6.28-10.3,9.51-15.41,4.16-6.6,8.29-13.22,12.32-19.9q6.41-10.66,12.54-21.51l1-1.81a.25.25,0,0,0-.43-.25q-5.79,10.25-11.8,20.36c-4.17,7-8.46,13.92-12.8,20.82-3.06,4.86-6.15,9.71-9.1,14.65-4.65,7.78-9.65,15.35-14.56,23s-9.79,15.35-14.11,23.36c-.53,1-1.06,2-1.58,3-.14.29.29.54.44.25Z"/>
      <path class="cls-1" d="M102,106.28q6.48-11.73,13-23.46c4.25-7.67,8.32-15.48,13-22.9,4.08-6.49,9-12.37,13-18.9,2.89-4.68,5.46-9.54,8.1-14.37q4.92-9,10-17.95l1.62-2.86a.25.25,0,0,0-.44-.25Q154.9,15,149.72,24.42c-2.75,5-5.42,10.1-8.36,15-1.47,2.44-3,4.84-4.63,7.16-2.46,3.48-5.1,6.83-7.47,10.37-4.86,7.25-8.9,15.06-13.13,22.68q-6.51,11.73-13,23.47L101.52,106a.25.25,0,0,0,.43.25Z"/>
      <path class="cls-1" d="M83.28,108.77,95.15,85.64l11.81-23c1.74-3.39,3.36-6.89,5.3-10.17,1.51-2.55,3.21-5,4.8-7.47a98.6,98.6,0,0,0,5.45-9.8c1.36-2.81,2.61-5.66,3.92-8.49A138.94,138.94,0,0,1,136.84,8l1-1.54c.18-.27-.25-.52-.43-.25A137.22,137.22,0,0,0,127,24.28c-2.92,6.13-5.5,12.4-9,18.24-1.62,2.69-3.4,5.28-5.09,7.94-1.83,2.89-3.33,6-4.89,9l-11.81,23L84.33,105.62l-1.48,2.9c-.15.28.28.53.43.25Z"/>
      <path class="cls-1" d="M59.14,114.82q7.59-13.2,15-26.52,5.43-9.81,10.65-19.74c2.43-4.65,4.83-9.32,7.14-14,3.57-7.25,7.18-14.47,10.94-21.62Q109.1,21,115.77,9.34l1.15-2a.25.25,0,0,0-.43-.26q-6.3,11-12.23,22.1Q98,41,92.11,53q-3.28,6.7-6.74,13.32c-3.31,6.37-6.72,12.7-10.17,19Q68.12,98.21,60.79,111l-2.08,3.62a.25.25,0,0,0,.43.25Z"/>
      <path class="cls-1" d="M44.17,104,65.88,65.55C73,52.92,80.06,40.25,87.3,27.68c4-7,8.14-13.91,12.46-20.71a.25.25,0,0,0-.43-.26C91.61,18.89,84.54,31.46,77.45,44L55.89,82.24,43.74,103.79a.25.25,0,0,0,.43.25Z"/>
      <path class="cls-1" d="M27,102.23c2.2-7.66,8-13.54,11.91-20.29,2.18-3.7,4-7.63,5.78-11.52S48.47,62.73,50.62,59c3.22-5.61,6.84-11,10.36-16.38q4.79-7.37,8.83-15.15A216.21,216.21,0,0,0,79.51,6c.41-1.06.81-2.12,1.21-3.18.11-.31-.37-.44-.48-.14A219.38,219.38,0,0,1,70.4,25.22c-2.73,5.4-5.71,10.68-9,15.78s-6.82,10.24-10,15.54c-2.18,3.67-4.24,7.39-6.09,11.23s-3.55,7.75-5.56,11.51a101.47,101.47,0,0,1-6.55,10.19,51.78,51.78,0,0,0-5.81,9.9,24.35,24.35,0,0,0-.95,2.72.25.25,0,0,0,.48.14Z"/>
      <path class="cls-1" d="M.24,97.88A312.5,312.5,0,0,0,43,98.23c13.32-.67,26.63-1.82,40-2.23,6.25-.19,12.49-.1,18.74.18,7.57.35,15.14.8,22.72,1.12,13.56.55,27.12.81,40.69.93l4.91,0a.25.25,0,0,0,0-.5c-13.92-.08-27.85-.3-41.77-.81-8.07-.3-16.13-.76-24.2-1.15-6.15-.31-12.31-.49-18.48-.37-12,.25-24,1.27-36,1.95-15,.84-30,1.4-45,.34-1.44-.1-2.88-.21-4.32-.34-.32,0-.32.47,0,.5Z"/>
      <path class="cls-1" d="M4.49,84.61c22.08,2.56,44.42,1.8,66.6,1.63s44.44-.28,66.66-.56q18.72-.24,37.41-.74c.32,0,.32-.51,0-.5-22.33.63-44.66.85-67,1-22.19.17-44.38.51-66.57.45a328.23,328.23,0,0,1-37.1-1.8c-.32,0-.32.46,0,.5Z"/>
      <path class="cls-1" d="M13.32,74c21.66.74,43.33,1.64,65,2.18,10.83.27,21.64-.08,32.45-.58l32.55-1.54,36.54-1.72c.32,0,.32-.52,0-.5l-65.1,3.07c-10.82.51-21.64,1-32.47.86s-21.65-.66-32.46-1l-36.5-1.24c-.32,0-.32.49,0,.5Z"/>
      <path class="cls-1" d="M20.2,62.12c21.47.54,43,.39,64.44.25l64.25-.44,36.25-.25a.25.25,0,0,0,0-.5l-64.59.44c-21.39.15-42.79.37-64.19.38-12.06,0-24.11-.08-36.16-.38a.25.25,0,0,0,0,.5Z"/>
      <path class="cls-1" d="M28,50.41l64.77,1.07,64.45,1.08,36.35.6c.32,0,.32-.49,0-.5l-64.78-1.08L64.34,50.51,28,49.91c-.32,0-.32.49,0,.5Z"/>
      <path class="cls-1" d="M36.77,37.82l31.9-.52c10.53-.16,21.07-.42,31.6-.46,5.25,0,10.5.09,15.74.42s10.35.82,15.53,1.22c10.5.82,21,1.28,31.55,1.55,11.93.3,23.87.35,35.8.41a.25.25,0,0,0,0-.5c-21.17-.1-42.36-.2-63.5-1.67-10.41-.73-20.79-1.84-31.24-1.92s-21.08.22-31.61.39l-35.77.58a.25.25,0,0,0,0,.5Z"/>
      <path class="cls-1" d="M46.67,27q23.82.33,47.64.91,19.23.48,38.44,1.11l21.49.68,30.3.95,19.53.62.66,0c.32,0,.32-.49,0-.5l-16.81-.53-30.2-.95-23.57-.74c-11.06-.35-22.12-.7-33.18-1q-25.05-.64-50.1-1l-4.2-.06a.25.25,0,0,0,0,.5Z"/>
      <path class="cls-1" d="M50.12,16.08c21.24,1.82,42.57.7,63.83-.17,10.64-.44,21.3-.82,32-.73s21.31.75,31.92,1.85c12,1.25,23.91,3,35.83,4.73.31,0,.45-.43.13-.48-21.13-3.08-42.3-6.11-63.68-6.54s-42.61,1.2-63.91,1.69a331.34,331.34,0,0,1-36.07-.85c-.32,0-.32.47,0,.5Z"/>
    </g>
  </g>
</svg>
