<svg xmlns="http://www.w3.org/2000/svg" viewBox="0 0 281.79 178.36">
  <defs>
    <style>
      .cls-1 {
        fill: #231f20;
      }
    </style>
  </defs>
  <title>Asset 1</title>
  <g id="Layer_2" data-name="Layer 2">
    <g id="Layer_1-2" data-name="Layer 1">
      <g>
        <path class="cls-1" d="M156.62,31.71h0l-.37-.48,0-.12.43-.25h-.07l.36.15c0,.06.2-.67.21-.74.07-.34.13-.68.21-1,.13-.65.28-1.29.43-1.93.31-1.28.67-2.55,1.06-3.8a61.66,61.66,0,0,1,2.91-7.44L161,16l2.65,8.29c.43,1.36.81,2.76,1.3,4.09.13.34.37.67.78.63a.63.63,0,0,0,.5-.81.48.48,0,0,0-.35-.35l-.06,0c-.62-.15-.89.81-.27,1h.07l-.35-.35,0-.11.23-.3-.07,0h.5a7.26,7.26,0,0,1-.44-1.38l-.52-1.63-1-3-2-6.31c-.12-.37-.72-.53-.91-.12a61.61,61.61,0,0,0-3.57,9.58q-.69,2.46-1.16,5c-.09.47-.4,1.28.11,1.63a.59.59,0,0,0,.91-.53.51.51,0,0,0-.36-.48l-.06,0c-.61-.19-.87.77-.26,1Z"/>
        <path class="cls-1" d="M158.06,24.79a26.08,26.08,0,0,1,6.08-1c.64,0,.64-1,0-1a26.82,26.82,0,0,0-6.35,1,.5.5,0,0,0,.27,1Z"/>
        <path class="cls-1" d="M165.91,23l.72,5.79c.08.62,1,.66,1,0a19.36,19.36,0,0,1,.33-3.65,9.74,9.74,0,0,1,.4-1.59c.14-.38.4-.95.81-1.09.61-.22.83,2.26.86,2.64a12.22,12.22,0,0,1-.21,3.62.5.5,0,0,0,1,.27l.06-.22a.5.5,0,0,0-1-.27l-.06.22,1,.27a13.26,13.26,0,0,0,.28-3.44,9.24,9.24,0,0,0-.62-3.29,1.35,1.35,0,0,0-1-.81,1.54,1.54,0,0,0-1.37.6A5.61,5.61,0,0,0,167,24.82a20.41,20.41,0,0,0-.38,4h1L166.91,23a.51.51,0,0,0-.5-.5.5.5,0,0,0-.5.5Z"/>
        <path class="cls-1" d="M172.57,23.47a5.54,5.54,0,0,0,0,2.83c.23.66.85,1.62,1.69,1.27s.48-1.67.32-2.35a10.35,10.35,0,0,0-1.18-2.91l-.56.74c1,.21,1.27,1.49,1.47,2.32a10.75,10.75,0,0,1,.27,3.53,8.59,8.59,0,0,1-.84,3.26c-.57,1-1.68,1-2.67.69a.5.5,0,0,0-.27,1,3.27,3.27,0,0,0,3.41-.6,7.36,7.36,0,0,0,1.33-3.95,11.48,11.48,0,0,0-.34-4.44c-.3-1.13-.82-2.47-2.1-2.75a.51.51,0,0,0-.56.74,9.43,9.43,0,0,1,1.22,3.41c0,.05.09.36.05.4s-.06-.16-.11-.24a2.33,2.33,0,0,1-.27-.78,5.12,5.12,0,0,1,.1-1.87c.13-.63-.83-.9-1-.27Z"/>
        <path class="cls-1" d="M177.63,18.63a61.32,61.32,0,0,0-.74,6.2c-.07,1-.14,2-.14,3.05a1.33,1.33,0,0,0,.39,1.11.89.89,0,0,0,1,.08c.57-.31.06-1.18-.5-.87.2-.11.1-.89.11-1.08,0-.39,0-.77,0-1.15,0-.79.1-1.59.17-2.38.14-1.57.34-3.14.6-4.69.1-.63-.86-.9-1-.27Z"/>
        <path class="cls-1" d="M179.73,25.31a7,7,0,0,0,2.59-2.14,1.58,1.58,0,0,0,.15-1.57,1.11,1.11,0,0,0-1.3-.55c-1.2.33-1.18,2.05-1.23,3a6.13,6.13,0,0,0,.67,3.47,3.61,3.61,0,0,0,2.74,1.82c.64.06.64-.94,0-1A2.62,2.62,0,0,1,181.43,27a5.39,5.39,0,0,1-.47-3.14,4.22,4.22,0,0,1,.25-1.58c.06-.11.2-.31.34-.22s0,.39,0,.5a5.45,5.45,0,0,1-2.31,1.93.5.5,0,0,0,.5.86Z"/>
        <path class="cls-1" d="M188.82,22.51c-.11,1.22-.51,2.41-.5,3.64a3.87,3.87,0,0,0,1.1,2.86,1.51,1.51,0,0,0,1.47.4,1.79,1.79,0,0,0,1.09-1,5.21,5.21,0,0,0,.3-1.71,9,9,0,0,0-.06-1.64,7.55,7.55,0,0,0-1.28-3.48c-.36-.52-1.23,0-.86.5a6.65,6.65,0,0,1,1.15,3.1,8.53,8.53,0,0,1,0,1.75c0,.48-.06,1.18-.5,1.48s-.86-.25-1.06-.61a3.19,3.19,0,0,1-.37-1.45,30.54,30.54,0,0,1,.49-3.81c.06-.64-.94-.64-1,0Z"/>
        <path class="cls-1" d="M196.39,28.91a11.53,11.53,0,0,1-.87-5.83,7,7,0,0,1,.77-2.8,1.59,1.59,0,0,1,1.15-.83.79.79,0,0,1,.87.62c.14.63,1.1.36,1-.27a1.83,1.83,0,0,0-2.48-1.21,3.79,3.79,0,0,0-2,2.95,12.62,12.62,0,0,0,.74,7.88c.26.59,1.12.08.87-.51Z"/>
        <path class="cls-1" d="M193.33,24.85a14.58,14.58,0,0,1,4.32-.3.5.5,0,0,0,0-1,15.71,15.71,0,0,0-4.59.33.5.5,0,1,0,.27,1Z"/>
        <path class="cls-1" d="M160.11,33.06a57.27,57.27,0,0,0,.29,8.18l.93-.25a8.23,8.23,0,0,0-3.73-3.67,2,2,0,0,0-2.14.38,3.82,3.82,0,0,0-.88,2.12,3.77,3.77,0,0,0,1.58,4.11,4.4,4.4,0,0,0,4.72-.44c.5-.39,0-1.26-.51-.86a3.46,3.46,0,0,1-3.56.51,2.7,2.7,0,0,1-1.27-3,3.65,3.65,0,0,1,.52-1.57c.48-.62,1.23-.32,1.78,0a8.41,8.41,0,0,1,2.63,2.93c.23.4,1,.25.93-.26a57.27,57.27,0,0,1-.29-8.18c0-.64-1-.64-1,0Z"/>
        <path class="cls-1" d="M163.53,40.49c1.12-.45,2.39-1.05,2.68-2.35A1.73,1.73,0,0,0,164.38,36c-1.3.23-1.65,1.65-1.68,2.77a8.52,8.52,0,0,0,.7,4c.55,1.11,2,1.95,3.16,1.16.53-.36,0-1.22-.51-.86-.89.6-1.7-.45-2-1.21a8.71,8.71,0,0,1-.37-3.62,1.45,1.45,0,0,1,.65-1.19.62.62,0,0,1,.86.48c.29,1.1-1.2,1.74-2,2.06a.52.52,0,0,0-.35.62.49.49,0,0,0,.61.34Z"/>
        <path class="cls-1" d="M167.08,38.06a54.27,54.27,0,0,0,.83,12.34c.11.63,1.08.36,1-.27a53.61,53.61,0,0,1-.79-12.07c0-.64-1-.64-1,0Z"/>
        <path class="cls-1" d="M168.44,38.6a1.54,1.54,0,0,1,.44-.68c.14-.09.32.06.45.19a4.39,4.39,0,0,1,1,1.66,4.22,4.22,0,0,1,.23.93,1.15,1.15,0,0,1-.09.82c-.41.51-1.27.2-1.77,0s-.88.77-.26,1a2.93,2.93,0,0,0,2.27,0,1.72,1.72,0,0,0,.84-1.91,5.62,5.62,0,0,0-.68-2.12A3.2,3.2,0,0,0,169.34,37c-.85-.27-1.45.45-1.76,1.14a.51.51,0,0,0,.18.69.5.5,0,0,0,.68-.18Z"/>
        <path class="cls-1" d="M171.37,35.64a50.72,50.72,0,0,0,.62,7.28c.1.59.94.39,1-.13a28.15,28.15,0,0,1,.49-4.1,2.92,2.92,0,0,1,.72-1.51,1.26,1.26,0,0,1,1.35-.33c.58.29,1.09-.57.51-.86a2.15,2.15,0,0,0-2,.07,3.06,3.06,0,0,0-1.35,1.69,10.25,10.25,0,0,0-.47,2.33c-.11.9-.18,1.81-.25,2.71l1-.13a48.53,48.53,0,0,1-.59-7,.5.5,0,0,0-1,0Z"/>
        <path class="cls-1" d="M176.19,40.6a3.07,3.07,0,0,0,2-1.84,1.62,1.62,0,0,0-.19-1.34,1.13,1.13,0,0,0-1.28-.48c-.91.33-1,1.66-1,2.47a6.17,6.17,0,0,0,.64,2.76,2.59,2.59,0,0,0,1,1.24,1,1,0,0,0,1.33-.5.5.5,0,0,0-.35-.61.52.52,0,0,0-.62.35c.08,0,.1-.08.07-.12h0c.05,0,0,0,0,0l-.08-.09a3.62,3.62,0,0,1-.27-.41,4.8,4.8,0,0,1-.46-1.07,5,5,0,0,1-.17-2.25c0-.14.09-.73.28-.78s.22.36.2.49c-.08.74-.94,1.09-1.53,1.36a.5.5,0,0,0-.18.68.52.52,0,0,0,.69.18Z"/>
        <path class="cls-1" d="M182.52,35.17a4.63,4.63,0,0,0-2,2,2.07,2.07,0,0,0,.46,2.4,6.51,6.51,0,0,0,.88.6c.22.14.53.31.58.59s-.24.58-.5.69a1.76,1.76,0,0,1-.72.12h-.49c-.11,0-.1,0,0,0l.07.25v-.07c0-.64-1-.64-1,0s.68.77,1.18.79a2.74,2.74,0,0,0,1.59-.32A1.57,1.57,0,0,0,183,39.8a4.8,4.8,0,0,0-1-.72,1.26,1.26,0,0,1-.7-.8c-.18-1.07,1-1.77,1.72-2.24.55-.34,0-1.21-.5-.87Z"/>
        <path class="cls-1" d="M185.08,34.82a2.27,2.27,0,0,0-1.45,1.73,2.45,2.45,0,0,0,.92,2.23c.45.42,1.61,1.19,1.17,1.94a1.69,1.69,0,0,1-.73.55,6.76,6.76,0,0,0-1,.58.51.51,0,0,0-.18.68.49.49,0,0,0,.68.18,13.62,13.62,0,0,0,1.83-1.13,1.81,1.81,0,0,0,.11-2.33,4.92,4.92,0,0,0-.92-1,3,3,0,0,1-.81-.92,1.23,1.23,0,0,1,.65-1.58c.6-.23.34-1.2-.26-1Z"/>
        <path class="cls-1" d="M188.74,41.62a44.41,44.41,0,0,1,.32-5.28.5.5,0,0,0-.5-.5.51.51,0,0,0-.5.5,44.41,44.41,0,0,0-.32,5.28.5.5,0,0,0,1,0Z"/>
        <path class="cls-1" d="M191.41,39.86a2,2,0,0,1,1.37-.71,1.36,1.36,0,0,1,1.16.58.75.75,0,0,1,.13.65s-.07.11,0,.08-.11.1,0,0a.4.4,0,0,1-.24.11l-.1,0h0s0,0,0,0h-.38c.06,0,0,0,0,0a3.11,3.11,0,0,1-.75-.23,3.77,3.77,0,0,1-1.49-1.16.54.54,0,0,0-.69-.18.52.52,0,0,0-.18.69,5,5,0,0,0,1.83,1.5,3.05,3.05,0,0,0,2.17.31,1.46,1.46,0,0,0,.92-2,2.27,2.27,0,0,0-1.77-1.39,2.83,2.83,0,0,0-2.51,1,.52.52,0,0,0,0,.71.51.51,0,0,0,.71,0Z"/>
        <path class="cls-1" d="M195.42,36.69l.69,6.09a.52.52,0,0,0,.5.5.51.51,0,0,0,.5-.5,28.83,28.83,0,0,1,0-3.22,10.92,10.92,0,0,1,.18-1.51c.06-.29.14-.77.42-.94s.72.21.91.43a3.13,3.13,0,0,1,.54,1,5.54,5.54,0,0,1,.17,2.94c-.13.62.83.89,1,.26a6.89,6.89,0,0,0,0-2.93A4.23,4.23,0,0,0,199,36.58a1.48,1.48,0,0,0-2.27.06,5.07,5.07,0,0,0-.66,2.63,25.71,25.71,0,0,0,0,3.51h1l-.69-6.09a.51.51,0,0,0-.5-.5.5.5,0,0,0-.5.5Z"/>
      </g>
      <g>
        <path class="cls-1" d="M106.68,154.3c-4.37,4.25-7.94,11.1-6.31,17.33a9.22,9.22,0,0,0,5.17,6.16c1.82.78,6.36,1.22,6.32-1.84,0-1.53-1.41-3-2.4-4.06a5.23,5.23,0,0,0-4-1.92.5.5,0,0,0,0,1,26.28,26.28,0,0,0,11.43-1.38c.6-.21.34-1.18-.27-1A25.49,25.49,0,0,1,105.43,170v1a4.1,4.1,0,0,1,3.18,1.49,8.14,8.14,0,0,1,2.17,3c.44,1.57-1.38,1.91-2.54,1.89a6.48,6.48,0,0,1-3.17-.95c-4.92-2.93-4.67-9.33-2.74-14a22.21,22.21,0,0,1,5.06-7.42c.46-.45-.25-1.16-.71-.71Z"/>
        <path class="cls-1" d="M118.88,161.69a161.58,161.58,0,0,0,3.25,16.16.5.5,0,0,0,1-.13,38.74,38.74,0,0,1,.68-8.53,12.55,12.55,0,0,1,1-3.71,1.71,1.71,0,0,1,1.15-.93,1,1,0,0,1,1.1.53c.26.59,1.12.08.87-.5a2,2,0,0,0-2.71-.84c-1.28.57-1.69,2.09-2,3.32a40.31,40.31,0,0,0-1.12,10.66l1-.13a161.77,161.77,0,0,1-3.25-16.17c-.09-.63-1.06-.36-1,.27Z"/>
        <path class="cls-1" d="M130.35,171.29a6.54,6.54,0,0,1,1.84-3.07,2.52,2.52,0,0,1,3.37.51,7.07,7.07,0,0,1,1.46,4.13c.06.53.12,1.17-.51,1.33a2.1,2.1,0,0,1-1.37-.22,9.67,9.67,0,0,1-1.65-1.34,3.62,3.62,0,0,0-2-.9c-.64,0-.64,1,0,1a3.49,3.49,0,0,1,1.9,1.14,5.23,5.23,0,0,0,1.81,1.19,2.63,2.63,0,0,0,1.93,0,1.77,1.77,0,0,0,.94-1.79,8.69,8.69,0,0,0-1.57-4.95,3.64,3.64,0,0,0-4.3-1.22c-1.53.71-2.26,2.47-2.8,4-.22.6.75.86,1,.26Z"/>
        <path class="cls-1" d="M138.55,165.65a11.17,11.17,0,0,0,.42,4.74,8.08,8.08,0,0,0,2.37,3.94,2.93,2.93,0,0,0,3.84.09c1-1,1.16-2.64,1.34-4q.42-3.07.55-6.16c0-.64-1-.64-1,0-.08,2-.25,3.9-.51,5.83-.17,1.26-.24,3.76-1.92,4s-2.9-1.85-3.45-3.23a10.64,10.64,0,0,1-.64-5.21c.08-.63-.93-.63-1,0Z"/>
        <path class="cls-1" d="M151.19,162.36a56.3,56.3,0,0,0,.14,10.86c.06.63,1,.66,1,0a13.66,13.66,0,0,1,3.77-10.17l-.61.08a2.93,2.93,0,0,1,1,2,21.12,21.12,0,0,1,.29,3.07,25.46,25.46,0,0,1-.54,6.16c-.13.63.84.9,1,.27a27,27,0,0,0,.54-7.12c-.11-1.75-.14-4.11-1.73-5.22a.51.51,0,0,0-.61.08,14.65,14.65,0,0,0-4.06,10.87h1a56.3,56.3,0,0,1-.14-10.86c.05-.64-.95-.63-1,0Z"/>
        <path class="cls-1" d="M166.09,151.13l0,17.84.75-.43-3.27-2c-.75-.47-1.76-1.22-2.68-.74s-.89,1.47-1,2.26a6.64,6.64,0,0,0,.42,2.79,4.57,4.57,0,0,0,3.65,3,3.91,3.91,0,0,0,4-1.93c.29-.57-.57-1.08-.86-.5a2.91,2.91,0,0,1-2.9,1.45,3.49,3.49,0,0,1-2.89-2.23c-.29-.65-1-4.11.35-3.95a3.45,3.45,0,0,1,1.17.61l1,.63,2.45,1.51a.5.5,0,0,0,.75-.43l0-17.84a.5.5,0,0,0-1,0Z"/>
      </g>
      <g>
        <path class="cls-1" d="M23.74,35.67a.74.74,0,0,0,.3-1c-.24-.5-.85-.45-1.31-.38a8,8,0,0,0-3.2,1.22c-1.77,1.13-3.94,3.48-2.93,5.73s4.06,3.22,5.89,4.85a4.83,4.83,0,0,1,1.79,3,3.78,3.78,0,0,1-1.57,3.13c-2.32,2-5.76,2.82-8.75,2.93-.64,0-.64,1,0,1a17.89,17.89,0,0,0,7.32-1.85c1.8-.89,3.71-2.33,4-4.46s-1.28-4-2.92-5.13c-1-.7-2-1.26-3-2S17.07,41,17.39,39.62a5.75,5.75,0,0,1,2.4-3.07,7.73,7.73,0,0,1,1.73-.91,7.45,7.45,0,0,1,.92-.27l.37-.07.19,0c.26,0,.3,0,.1-.22l.23-.3-.1.06a.5.5,0,0,0,.51.86Z"/>
        <path class="cls-1" d="M27.08,50.55c-.42-1.45-.47-3.18.72-4.29s2.86-.47,4,.45a4.46,4.46,0,0,1,1.87,3.65A2.87,2.87,0,0,1,31.44,53a5.7,5.7,0,0,1-2,.12,6.56,6.56,0,0,1-1.06-.19,5,5,0,0,1-.52-.14,1.3,1.3,0,0,1-.17-.08c-.1-.06-.12-.14-.14,0,.15-.63-.82-.9-1-.27-.23,1,.87,1.36,1.63,1.53a8,8,0,0,0,2.43.22,4.23,4.23,0,0,0,3.79-2.5A4.86,4.86,0,0,0,33,46.47C31.71,45.15,29.62,44,27.8,45c-2.07,1.14-2.28,3.74-1.69,5.79a.5.5,0,0,0,1-.27Z"/>
        <path class="cls-1" d="M37.43,43.9a42.77,42.77,0,0,0,.68,10.6.51.51,0,0,0,1-.13,55.35,55.35,0,0,1,.29-9.1,4.6,4.6,0,0,1,.41-1.94c.21-.32.33-.1.41.18s.14.63.21,1c.32,1.54.59,3.1.81,4.66.07.49.87.46,1,0a14.3,14.3,0,0,1,1.1-3.43,10.39,10.39,0,0,1,.86-1.57c.18-.25.34-.41.49-.07a2.29,2.29,0,0,1,.1.78,30.83,30.83,0,0,1-.6,8c-.12.63.84.9,1,.26a33.73,33.73,0,0,0,.65-5.21c0-.86,0-1.71,0-2.57a3.73,3.73,0,0,0-.36-1.92,1.09,1.09,0,0,0-1.32-.46c-.61.23-.95,1-1.24,1.49a15.15,15.15,0,0,0-1.61,4.47h1c-.14-1-.29-2-.48-3a22.61,22.61,0,0,0-.56-2.72A1.28,1.28,0,0,0,40,42.12c-.6,0-1,.58-1.2,1.09a9.33,9.33,0,0,0-.39,2.4c-.11,1-.19,1.89-.24,2.84a53.14,53.14,0,0,0,0,5.92l1-.13a41.64,41.64,0,0,1-.65-10.34.5.5,0,0,0-1,0Z"/>
        <path class="cls-1" d="M49.17,48.21l1-2.12c.29-.59.86-1.37.65-2.06-.39-1.29-2.18-.84-2.85-.1a3.84,3.84,0,0,0-.82,1.74,17.66,17.66,0,0,0-.41,2.17,5.85,5.85,0,0,0,.73,3.93,3.62,3.62,0,0,0,3.31,1.73c.63-.08.64-1.08,0-1A2.69,2.69,0,0,1,48.22,51a5.61,5.61,0,0,1-.35-3.81c.16-.9.37-3,1.64-3,.47,0,.37.24.22.57s-.29.6-.44.9l-1,2c-.28.58.59,1.09.87.51Z"/>
        <path class="cls-1" d="M52.69,41.49,58,40.07l2.61-.69a5.73,5.73,0,0,0,2.09-.94c.51-.4-.2-1.1-.71-.71a5.52,5.52,0,0,1-2.1.8l-2.53.68-5,1.32a.5.5,0,0,0,.27,1Z"/>
        <path class="cls-1" d="M56.53,34a109.87,109.87,0,0,0-.4,18.76.5.5,0,0,0,.93.26l.53-.88a.5.5,0,0,0-.86-.51l-.53.88.93.25A109.87,109.87,0,0,1,57.53,34c.07-.64-.93-.64-1,0Z"/>
        <path class="cls-1" d="M64.1,35.18A41.91,41.91,0,0,0,64,51.39c.1.56,1,.42,1-.14a9.37,9.37,0,0,1,2.54-6.67c.17-.17.37-.46.6-.31s.24.5.28.69a15.76,15.76,0,0,1,.25,2.27,18.89,18.89,0,0,1-.29,4.44c-.11.63.85.9,1,.26a20.27,20.27,0,0,0,.25-5.66c-.1-1-.26-3.51-1.88-3.05-.63.18-1.13.89-1.52,1.38a11.29,11.29,0,0,0-1.24,2,10.43,10.43,0,0,0-1,4.63l1-.13a40.7,40.7,0,0,1,.14-15.67c.13-.63-.83-.9-1-.27Z"/>
        <path class="cls-1" d="M72.6,50.68a32.38,32.38,0,0,1,1.6-8.27c.2-.61-.77-.88-1-.27a34.12,34.12,0,0,0-1.63,8.54c0,.64,1,.64,1,0Z"/>
        <path class="cls-1" d="M75.93,43.44a34,34,0,0,0,.13,7.2c.08.62,1,.66,1,0,0-2.2,0-4.8,1.49-6.61.19-.24.76-.83,1-.42a2.35,2.35,0,0,1,.2.87c0,.35.07.71.09,1.06a12.64,12.64,0,0,1-.49,4.06.5.5,0,0,0,1,.27A13.83,13.83,0,0,0,80.88,46a13,13,0,0,0-.16-2A1.85,1.85,0,0,0,80,42.65c-1-.61-2,.39-2.53,1.16a8,8,0,0,0-1.14,3,24.25,24.25,0,0,0-.28,3.81h1a34,34,0,0,1-.13-7.2c.06-.65-.94-.64-1,0Z"/>
        <path class="cls-1" d="M82.92,43.11a6.49,6.49,0,0,0,.32,5,.51.51,0,0,0,.79.1,5.22,5.22,0,0,0,.77-6.14l-.86.5c1.59,2.56,2.89,5.63,1.85,8.65a4.89,4.89,0,0,1-2.61,3,3.94,3.94,0,0,1-3.78-.27c-.54-.36-1,.5-.51.86,2.76,1.87,6.37.15,7.62-2.66,1.51-3.42.15-7.08-1.71-10a.5.5,0,0,0-.86.5,4.2,4.2,0,0,1-.62,4.93l.79.1a5.44,5.44,0,0,1-.23-4.24c.21-.61-.75-.87-1-.27Z"/>
        <path class="cls-1" d="M32.69,66.83a58.37,58.37,0,0,1,9.14-4.94c1.6-.69,3.24-1.3,4.9-1.84.52-.17,1.44-.27,1.72-.83a.75.75,0,0,0-.68-1.1.5.5,0,0,0,0,1h.12L47.54,59c.1-.21.09-.29,0-.22l-.18.06-.54.17-1.06.35c-.67.23-1.34.47-2,.72-1.33.51-2.64,1.06-3.93,1.66A59.67,59.67,0,0,0,32.18,66c-.53.35,0,1.22.51.86Z"/>
        <path class="cls-1" d="M40.45,57.46,39.27,78.17c0,.48.54.6.85.36l.66-.52c.5-.4-.21-1.11-.71-.71l-.66.52.86.35,1.18-20.71c0-.64-1-.64-1,0Z"/>
        <path class="cls-1" d="M52.57,68.4a39.78,39.78,0,0,0-1.14,8l1-.13a35.94,35.94,0,0,0-2.35-7.73,8.7,8.7,0,0,0-1.78-3.17,1.82,1.82,0,0,0-2.66.05,5.11,5.11,0,0,0-.71,2.85,9.5,9.5,0,0,0,.39,3,9.82,9.82,0,0,0,3.35,4.92,6.35,6.35,0,0,0,2.87,1.38,1.94,1.94,0,0,0,2.28-1.14c.19-.62-.78-.88-1-.27s-1.22.46-1.7.3a6.63,6.63,0,0,1-2.07-1.21,8.73,8.73,0,0,1-2.67-3.88,7.94,7.94,0,0,1-.22-4.75c.37-1.31,1.48-.61,2,.22a22.21,22.21,0,0,1,1.3,2.8,35.7,35.7,0,0,1,2,7c.1.57,1,.4,1-.14a38,38,0,0,1,1.1-7.72c.16-.62-.81-.89-1-.26Z"/>
        <path class="cls-1" d="M57.38,57.91q.12,10.73,1,21.42a.5.5,0,0,0,1,0l.07-2.21a.5.5,0,0,0-1,0l-.07,2.21h1q-.86-10.68-1-21.42a.5.5,0,0,0-1,0Z"/>
        <path class="cls-1" d="M63.46,57.23Q63.91,68,65.37,78.62c.09.63,1,.36,1-.27q-1.44-10.51-1.87-21.12c0-.64-1-.65-1,0Z"/>
      </g>
      <g>
        <path class="cls-1" d="M204.91,85.05A22.72,22.72,0,0,0,200.39,90c-1,1.51-2.2,3.71-.89,5.39,1,1.25,2.69,1.25,4.13,1.41a4.29,4.29,0,0,1,2.31.75,2.56,2.56,0,0,1,.66,2.58,4.65,4.65,0,0,1-2.18,2.67,5.74,5.74,0,0,1-3.85,1.16c-.63-.1-.9.87-.27,1a7.39,7.39,0,0,0,6-2.32c1.31-1.32,2-3.48.91-5.15s-2.87-1.58-4.48-1.75a3.8,3.8,0,0,1-2.2-.71c-.93-.83-.54-2.2-.05-3.16a19.43,19.43,0,0,1,5.18-6c.5-.41-.21-1.11-.71-.71Z"/>
        <path class="cls-1" d="M209.57,101.26c-.58-2.35,1.24-5.23,3.87-4.8a3.4,3.4,0,0,1,2.65,2,3,3,0,0,1-5,2.89c-.43-.48-1.14.23-.7.71a3.94,3.94,0,0,0,6.85-3.16,4.14,4.14,0,0,0-2.89-3.27,4.22,4.22,0,0,0-4.25.9,5.2,5.2,0,0,0-1.47,5c.15.62,1.12.36,1-.27Z"/>
        <path class="cls-1" d="M219.78,95a66.45,66.45,0,0,0,0,9.57c.05.63,1,.65,1,0a25.73,25.73,0,0,1,1.38-8.92c.1-.3.55-1.9,1.08-1.57.18.11.25.77.3,1,.09.37.16.75.22,1.13a13.71,13.71,0,0,1-.13,4.65l1,.13a6.27,6.27,0,0,1,2.25-4.66l-.6.07c1.06.8,1.13,2.34,1.09,3.55a20.15,20.15,0,0,1-.85,5,.5.5,0,0,0,1,.27,20.25,20.25,0,0,0,.89-5.83,4.67,4.67,0,0,0-1.6-3.9.5.5,0,0,0-.6.08,7.21,7.21,0,0,0-2.55,5.37c0,.55.88.69,1,.13a14.92,14.92,0,0,0,0-5.69c-.13-.72-.24-1.81-.93-2.23a1.31,1.31,0,0,0-1.68.46,6.63,6.63,0,0,0-1,2.26,23.7,23.7,0,0,0-.74,2.87,27.1,27.1,0,0,0-.51,5.82h1a66.45,66.45,0,0,1,0-9.57c.05-.64-.95-.64-1,0Z"/>
        <path class="cls-1" d="M230.38,101.08A5.52,5.52,0,0,0,233,97.17a2.08,2.08,0,0,0-.86-1.93,1.58,1.58,0,0,0-1.93.06,3.83,3.83,0,0,0-.95,2.16,8.43,8.43,0,0,0-.13,2.6c.17,1.49.68,3.32,2,4.15a2.19,2.19,0,0,0,2.16.08,1.74,1.74,0,0,0,1-1.68c-.06-.63-1.06-.64-1,0a.92.92,0,0,1-.9.93,1.66,1.66,0,0,1-1.46-.88,6.65,6.65,0,0,1-.87-4.32,4.56,4.56,0,0,1,.63-2.17c.38-.49,1-.12,1.18.37a2.68,2.68,0,0,1-.52,2.14,4.93,4.93,0,0,1-1.51,1.54c-.53.35,0,1.22.51.86Z"/>
        <path class="cls-1" d="M233.69,93a62.27,62.27,0,0,1,7.09-.29.51.51,0,0,0,.5-.5l0-.67c0-.64-1-.64-1,0l0,.67.5-.5a62.27,62.27,0,0,0-7.09.29c-.63.06-.64,1.06,0,1Z"/>
        <path class="cls-1" d="M237.33,88.14l-1,16.23c0,.55.89.69,1,.13l.22-1.33c.1-.63-.86-.91-1-.27l-.22,1.33,1,.14,1-16.23c0-.64-1-.64-1,0Z"/>
        <path class="cls-1" d="M241.74,87.45a143.24,143.24,0,0,0-.46,15.08.51.51,0,0,0,.94.25l1.66-3c.19-.34,1.28-2.74,1.69-2.58.19.08.23,1.46.24,1.62a11.89,11.89,0,0,1,0,1.58,12.08,12.08,0,0,1-.61,3.2c-.2.61.77.88,1,.27a13.3,13.3,0,0,0,.67-4.15,13,13,0,0,0-.18-2.16c-.08-.51-.17-1.1-.7-1.33-1.14-.52-1.88,1.15-2.29,1.88l-2.32,4.14.93.25a143.24,143.24,0,0,1,.46-15.08c0-.64-1-.63-1,0Z"/>
        <path class="cls-1" d="M249.34,104.79l1.68-9.2c.12-.63-.85-.9-1-.27l-1.69,9.2c-.11.63.85.9,1,.27Z"/>
        <path class="cls-1" d="M251.18,97.54l.2,5.9a.5.5,0,0,0,1,.13,20.9,20.9,0,0,1,2.36-5.6l-.91-.11a9.15,9.15,0,0,1,0,6.09l1,.14,0-.59c0-.64-1-.64-1,0l0,.59c0,.58.81.64,1,.13a10.11,10.11,0,0,0,0-6.63.5.5,0,0,0-.91-.12,21,21,0,0,0-2.46,5.84l1,.13-.2-5.9c0-.64-1-.65-1,0Z"/>
        <path class="cls-1" d="M256.41,96.86a5.48,5.48,0,0,0,1.54,4.48.51.51,0,0,0,.84-.22,8.6,8.6,0,0,0-1.28-6l-.87.51a13.46,13.46,0,0,1,2.14,10.68,5,5,0,0,1-3.37,4,4.32,4.32,0,0,1-4.67-1.79c-.35-.53-1.22,0-.86.5a5.33,5.33,0,0,0,8,1,7.4,7.4,0,0,0,2-4.44,14.64,14.64,0,0,0-.13-5.07,14.47,14.47,0,0,0-2.3-5.38c-.37-.52-1.22,0-.87.51a7.5,7.5,0,0,1,1.18,5.25l.84-.22a4.54,4.54,0,0,1-1.25-3.77c.08-.64-.92-.63-1,0Z"/>
        <path class="cls-1" d="M214.55,110a20.3,20.3,0,0,0-4.44,4.89c-1.09,1.53-2.14,3.73-.22,5.1a5.38,5.38,0,0,0,2.65.81c1.1.12,2.52.16,3.11,1.27s-.77,1.72-1.69,1.9a3.09,3.09,0,0,1-2.87-.54c-.45-.46-1.16.25-.71.71,1.11,1.16,2.93,1.07,4.37.67s2.62-1.71,1.76-3.24c-.94-1.7-2.91-1.56-4.57-1.85a2.6,2.6,0,0,1-2-1.15c-.46-.93.23-2,.75-2.75a19.38,19.38,0,0,1,4.37-5c.52-.38,0-1.24-.5-.86Z"/>
        <path class="cls-1" d="M219.89,110.69a80.66,80.66,0,0,0,0,13.37c0,.44.71.74.93.25l1.52-3.26c.27-.59.54-1.17.82-1.75.16-.34.34-.89.69-1.08.94-.53.85,1.84.84,2.23a13.87,13.87,0,0,1-.57,3.61.5.5,0,0,0,1,.26,14.7,14.7,0,0,0,.61-4.71c0-.94-.26-2.27-1.39-2.46s-1.8,1.2-2.21,2.08l-2.13,4.58.93.25a80.66,80.66,0,0,1,0-13.37c.05-.64-.95-.64-1,0Z"/>
        <path class="cls-1" d="M228.91,119.41c0,.1,0,0,0,0l0-.11,0-.09c0-.13,0,0,0,0l.1-.18c0-.08,0,0,0,0l.09-.1a1.45,1.45,0,0,1,.62-.38l.2,0c.1,0,0,0,0,0h.32c.14,0-.06,0,0,0l.13,0a.83.83,0,0,1,.32.14l.1.06c.09.06,0,0,0,0a1.7,1.7,0,0,1,.19.19l.08.09s0-.07,0,0a2.39,2.39,0,0,1,.13.21l.09.18a.31.31,0,1,0,0,0l0,.14a1.42,1.42,0,0,1,.05.22s0,.15,0,.08,0,.09,0,.08v.2a.49.49,0,0,1,0,.12v.08c0-.06,0,0,0,0a1.29,1.29,0,0,1,0,.19l0,.12s0,.12,0,.06a1.13,1.13,0,0,1-.27.39.75.75,0,0,1-.27.18l-.1,0c.07,0,0,0,0,0h-.12c.08,0,0,0-.06,0l-.09,0c-.12,0,.06,0,0,0l-.23-.14-.1-.07c-.08,0,0,0-.06,0l-.2-.17a4.85,4.85,0,0,0-1-.7.5.5,0,0,0-.68.18.49.49,0,0,0,.18.68c.69.33,1.17,1.1,2,1.28a1.89,1.89,0,0,0,2.12-1.52,2.84,2.84,0,0,0-.54-2.45,2.27,2.27,0,0,0-4,1.13.5.5,0,0,0,.5.5.51.51,0,0,0,.5-.5Z"/>
        <path class="cls-1" d="M233.15,115.27l.73,7a.5.5,0,0,0,1,.13c.53-1.5,1-3,1.58-4.52a3.06,3.06,0,0,1,1-1.5,1.23,1.23,0,0,1,1.45,0c.47.44,1.17-.26.7-.7a2,2,0,0,0-2.06-.42,3.07,3.07,0,0,0-1.72,1.53,17.19,17.19,0,0,0-1,2.5l-1,2.86,1,.13-.73-7a.51.51,0,0,0-.5-.5.5.5,0,0,0-.5.5Z"/>
        <path class="cls-1" d="M240.69,112.33h5.73a.5.5,0,0,0,0-1h-5.73a.5.5,0,0,0,0,1Z"/>
        <path class="cls-1" d="M244,107.33l-2.31,16.51c-.08.63.88.9,1,.26L245,107.59c.08-.63-.88-.9-1-.26Z"/>
      </g>
      <path class="cls-1" d="M.48,149.11c36.49,2.1,73,2.28,109.5,1.49,18.27-.4,36.53-.9,54.79-1.06s36.61,0,54.91.39c20.55.4,41.09,1,61.62,1.67a.5.5,0,0,0,0-1c-36.59-1.13-73.19-2.26-109.8-2.1s-73,1.84-109.59,1.59q-30.73-.19-61.43-2c-.64,0-.64,1,0,1Z"/>
      <path class="cls-1" d="M195.54,145.53a117.58,117.58,0,0,1,.37-25.09A89.34,89.34,0,0,0,197,108c-.09-4.22-.73-8.4-.51-12.63a85.24,85.24,0,0,1,2.24-13.82l-.48.37a133.33,133.33,0,0,0,27.89.32c9.31-.73,18.56-2,27.84-3.06,2.55-.28,5.11-.57,7.68-.77a14.66,14.66,0,0,1,7.2.79l-.22-.56c-2.94,8.89-4,18.25-4.44,27.57-.47,9.72-.49,19.47-.68,29.19l-.31,17,.93-.25-.9-2c-.26-.59-1.12-.08-.86.5l.9,2c.21.47.92.2.93-.26l.56-29.83c.17-9.4.21-18.83,1.42-28.16a82.88,82.88,0,0,1,3.41-15.49.5.5,0,0,0-.23-.56c-4-1.78-8.65-.87-12.83-.43-4.72.49-9.44,1.08-14.16,1.64a261,261,0,0,1-28.19,2.26,113.17,113.17,0,0,1-15.94-.89.49.49,0,0,0-.48.37,100.12,100.12,0,0,0-2.14,12.16c-.4,4.22,0,8.37.29,12.58a68.9,68.9,0,0,1-.73,12.59c-.53,4.2-.93,8.4-1.06,12.63a117.42,117.42,0,0,0,.46,14.28c.06.63,1.06.64,1,0Z"/>
      <path class="cls-1" d="M6.57,144.07,4.51,122c-.68-7.24-1.48-14.49-1.79-21.76a181.14,181.14,0,0,1,.8-21.85L5.29,56.29,7.05,34.36l.89-11.1c.14-1.83.29-3.66.43-5.48.12-1.41.25-3.18,1.63-4a6.53,6.53,0,0,1,2.13-.57q1.55-.24,3.09-.42c1.79-.21,3.58-.35,5.38-.42a95.59,95.59,0,0,1,10.84.29,60.17,60.17,0,0,0,10.82.07c3.51-.39,7-1.23,10.41-1.87,7.25-1.34,14.53-.95,21.84-.52l22,1.3,5.51.33-.5-.5L99.15,64.71,96.74,117.9l-1.37,30c0,.64,1,.64,1,0l2.42-53.2,2.41-53.19,1.36-30a.5.5,0,0,0-.5-.5L79.47,9.68c-7.36-.43-14.82-1.18-22.18-.44-3.53.35-7,1.15-10.46,1.82a48.68,48.68,0,0,1-11,.9c-3.71-.14-7.41-.55-11.13-.6A74.2,74.2,0,0,0,13.81,12c-1.52.21-3.42.26-4.7,1.21a4.68,4.68,0,0,0-1.6,3.27c-.25,1.74-.31,3.51-.45,5.26l-.44,5.48L4.82,49.71,3,71.92c-.6,7.42-1.35,14.85-1.42,22.3a216.15,216.15,0,0,0,1.35,22l2.09,22.38.51,5.45c.06.64,1.06.64,1,0Z"/>
      <path class="cls-1" d="M104.06,11.74l3.82,3.67c.46.45,1.17-.26.7-.7L104.77,11c-.46-.45-1.17.26-.71.71Z"/>
      <path class="cls-1" d="M111.78,18.11a24.94,24.94,0,0,0,5.53,3.29.51.51,0,0,0,.69-.18.5.5,0,0,0-.18-.68,24.08,24.08,0,0,1-5.34-3.14.51.51,0,0,0-.7,0,.5.5,0,0,0,0,.71Z"/>
      <path class="cls-1" d="M124.34,24.83a11.39,11.39,0,0,0,6.5,4.64.5.5,0,0,0,.27-1,10.25,10.25,0,0,1-5.9-4.18c-.36-.53-1.23,0-.87.51Z"/>
      <path class="cls-1" d="M135.15,32.59a8.61,8.61,0,0,0,5.34,3.8c.62.14.89-.82.26-1A7.63,7.63,0,0,1,136,32.09c-.34-.54-1.2,0-.86.5Z"/>
      <path class="cls-1" d="M144.51,39.85a47.13,47.13,0,0,0,6.29,5c.54.36,1-.51.51-.86a47.24,47.24,0,0,1-6.09-4.82c-.47-.44-1.18.26-.71.7Z"/>
      <path class="cls-1" d="M155.64,49.56a48.5,48.5,0,0,1,5.94,5,.5.5,0,0,0,.7-.7,47.84,47.84,0,0,0-6.14-5.13c-.52-.37-1,.5-.5.87Z"/>
      <path class="cls-1" d="M165.18,58.89l3.91,3a.5.5,0,0,0,.69-.18.51.51,0,0,0-.18-.68l-3.92-3a.5.5,0,1,0-.5.86Z"/>
      <path class="cls-1" d="M172,64.79a1.63,1.63,0,0,1,1.12.65c.36.39.64.85,1,1.26.71.82,2,1.59,3,.87a.53.53,0,0,0,.18-.69.52.52,0,0,0-.69-.18c-.79.55-1.69-.52-2.13-1.11a3.46,3.46,0,0,0-2.51-1.8.5.5,0,0,0,0,1Z"/>
      <path class="cls-1" d="M179.18,69.26a11.61,11.61,0,0,0,6.94,3.34.5.5,0,0,0,.5-.5.51.51,0,0,0-.5-.5,10.51,10.51,0,0,1-6.23-3,.5.5,0,0,0-.71.71Z"/>
      <path class="cls-1" d="M187.48,76.05a6.17,6.17,0,0,0,2.56,2.6.5.5,0,0,0,.51-.87,5.41,5.41,0,0,1-.72-.45s-.12-.08,0,0l-.07-.06a1.07,1.07,0,0,1-.16-.14c-.11-.09-.21-.19-.31-.29a4.12,4.12,0,0,1-.28-.31.86.86,0,0,1-.13-.14c-.08-.11.07.08,0,0a.86.86,0,0,0-.07-.1,6.59,6.59,0,0,1-.44-.72.5.5,0,0,0-.68-.18.52.52,0,0,0-.18.69Z"/>
      <path class="cls-1" d="M194.53,80.46a9.09,9.09,0,0,1,1.3.71l.3.21.14.1s0,0,0,0l.09.06.56.5a.51.51,0,0,0,.71,0,.5.5,0,0,0,0-.7,9.18,9.18,0,0,0-2.6-1.76.52.52,0,0,0-.68.18.51.51,0,0,0,.18.69Z"/>
      <path class="cls-1" d="M136.31,29.88a28.61,28.61,0,0,0,7.39-18.75,1.5,1.5,0,0,0-3,0,25.44,25.44,0,0,1-6.51,16.63,1.53,1.53,0,0,0,0,2.12,1.5,1.5,0,0,0,2.12,0Z"/>
      <path class="cls-1" d="M106.17,11h3a.51.51,0,0,0,.5-.5.51.51,0,0,0-.5-.5h-3a.5.5,0,0,0,0,1Z"/>
      <path class="cls-1" d="M114.26,12.23h4.19a.5.5,0,0,0,0-1h-4.19a.5.5,0,0,0,0,1Z"/>
      <path class="cls-1" d="M124.44,11h5.09a.5.5,0,0,0,0-1h-5.09a.5.5,0,0,0,0,1Z"/>
      <path class="cls-1" d="M134.62,11a31.37,31.37,0,0,0,6.42-.28.5.5,0,0,0,.35-.61.52.52,0,0,0-.62-.35,30.11,30.11,0,0,1-6.15.24c-.65,0-.64,1,0,1Z"/>
      <path class="cls-1" d="M145.84,9.86a8.21,8.21,0,0,1,4.54.49A.5.5,0,0,0,151,10a.52.52,0,0,0-.35-.62,9.34,9.34,0,0,0-5.07-.49.51.51,0,0,0-.35.62.52.52,0,0,0,.62.35Z"/>
      <path class="cls-1" d="M157.37,12.82H161a.5.5,0,0,0,0-1h-3.59a.51.51,0,0,0-.5.5.5.5,0,0,0,.5.5Z"/>
      <path class="cls-1" d="M166.35,11.44a23.61,23.61,0,0,0,5.56-.58c.63-.14.36-1.1-.27-1a22.37,22.37,0,0,1-5.29.54.5.5,0,0,0,0,1Z"/>
      <path class="cls-1" d="M176.56,11.55a23.11,23.11,0,0,1,6.16.15.5.5,0,0,0,.27-1,24.3,24.3,0,0,0-6.43-.18.51.51,0,0,0-.5.5.5.5,0,0,0,.5.5Z"/>
      <path class="cls-1" d="M190.3,12.82h4.79a.5.5,0,0,0,0-1H190.3a.5.5,0,0,0,0,1Z"/>
      <path class="cls-1" d="M200.49,12.32l6-.58a.51.51,0,0,0,.5-.5.5.5,0,0,0-.5-.5l-6,.58a.5.5,0,0,0,0,1Z"/>
      <path class="cls-1" d="M211.56,11.33h5.09a.5.5,0,0,0,0-1h-5.09a.5.5,0,0,0,0,1Z"/>
      <path class="cls-1" d="M223.24,11.63h5.39a.5.5,0,0,0,0-1h-5.39a.5.5,0,0,0,0,1Z"/>
      <path class="cls-1" d="M235.38,11a12.72,12.72,0,0,0,4,.32.51.51,0,0,0,.5-.5.51.51,0,0,0-.5-.5,12.17,12.17,0,0,1-3.76-.28.52.52,0,0,0-.62.35.5.5,0,0,0,.35.61Z"/>
      <path class="cls-1" d="M246.15,11.67l3.32.75a.51.51,0,0,0,.62-.35.5.5,0,0,0-.35-.61l-3.33-.75a.5.5,0,0,0-.26,1Z"/>
      <g>
        <path class="cls-1" d="M191.42,2.42a107.88,107.88,0,0,0-5.19,10.16c-.13.3.3.55.43.26a109.23,109.23,0,0,1,5.19-10.17.25.25,0,0,0-.43-.25Z"/>
        <path class="cls-1" d="M190.68,4.43a4.24,4.24,0,0,1,2.59.07,1.38,1.38,0,0,1,.8,1.75,2.08,2.08,0,0,1-2,.86c-.92,0-1.84-.13-2.76-.2-.32,0-.32.48,0,.5.87.07,1.75.16,2.62.2A3.12,3.12,0,0,0,194,7.07a1.64,1.64,0,0,0,.6-1.7A2.2,2.2,0,0,0,193.32,4a5,5,0,0,0-2.77,0c-.32,0-.19.53.13.48Z"/>
        <path class="cls-1" d="M197.92,5.06l-.23,2.21h.5a13.11,13.11,0,0,0-.77-3.14,2.58,2.58,0,0,0-.63-1.1.86.86,0,0,0-1.08,0A2.27,2.27,0,0,0,195,4.05a4.19,4.19,0,0,0-.27,1.31A4.28,4.28,0,0,0,195.5,8a1.67,1.67,0,0,0,1.12.82,1,1,0,0,0,1-.54c.12-.29-.31-.55-.43-.25-.2.46-.75.31-1.05,0a2.83,2.83,0,0,1-.68-1.13,3.91,3.91,0,0,1,0-2.55c.1-.31.33-1,.73-1s.62.61.73.9a13.08,13.08,0,0,1,.77,3.06.25.25,0,0,0,.5,0l.23-2.21c0-.32-.47-.32-.5,0Z"/>
        <path class="cls-1" d="M200,4.25A12.39,12.39,0,0,1,199.44,8l.48.13a8.32,8.32,0,0,1,2.36-4.36c.24-.23-.12-.58-.35-.36A8.81,8.81,0,0,0,199.44,8a.25.25,0,0,0,.48.13,12.62,12.62,0,0,0,.57-3.86.25.25,0,0,0-.5,0Z"/>
        <path class="cls-1" d="M203.66,6.11a2.79,2.79,0,0,0-.16,1.31l.49-.06L203.76,6a5.88,5.88,0,0,0-.24-1.18c-.1-.26-.32-.57-.64-.57s-.56.42-.7.72a3.33,3.33,0,0,0-.38,2.18A1.78,1.78,0,0,0,203,8.58a1.39,1.39,0,0,0,1.64-.77.24.24,0,0,0-.17-.31.25.25,0,0,0-.31.18.89.89,0,0,1-1,.43,1.27,1.27,0,0,1-.9-.93,2.57,2.57,0,0,1,.18-1.66c.06-.14.12-.28.19-.41s.1-.3.2-.33,0,0,0,0,0,0,0,0a.39.39,0,0,1,.08.1.86.86,0,0,1,.12.3c.17.76.27,1.53.4,2.29,0,.27.52.21.49-.07a2.51,2.51,0,0,1,.14-1.18c.11-.3-.37-.43-.48-.13Z"/>
        <path class="cls-1" d="M207.24.5c-.68,2.59-1.28,5.2-1.82,7.82-.06.31.41.45.48.13l.18-.76c.07-.31-.41-.44-.48-.13l-.18.76.48.13q.81-3.93,1.82-7.81c.08-.31-.4-.45-.48-.14Z"/>
        <path class="cls-1" d="M208.71.24a13.81,13.81,0,0,1-.86,4.7,12,12,0,0,0-.45,2.21.9.9,0,0,0,.2.79.38.38,0,0,0,.55,0c.24-.23-.12-.58-.35-.36h0l.19,0c-.24-.11-.05-.83,0-1s.11-.59.18-.88c.15-.61.34-1.21.51-1.81a10.3,10.3,0,0,0,.54-3.65c0-.32-.53-.32-.5,0Z"/>
        <path class="cls-1" d="M209.77,6.61A4.4,4.4,0,0,0,211.9,5a1.39,1.39,0,0,0,.36-1.23.82.82,0,0,0-.88-.46,1.24,1.24,0,0,0-.9.75A7.28,7.28,0,0,0,210,5.49a11.12,11.12,0,0,0-.3,1.61,2.29,2.29,0,0,0,.13,1.32.88.88,0,0,0,1,.47.69.69,0,0,0,.57-.81c-.07-.31-.55-.18-.49.13s-.38.23-.5.15c-.31-.21-.26-.76-.23-1.08a10,10,0,0,1,.68-2.85c.12-.3.34-.7.73-.64s.08.66-.07.88a3.88,3.88,0,0,1-1.88,1.46c-.3.11-.17.59.14.48Z"/>
        <path class="cls-1" d="M213.67,1.31l-1.66,7c-.08.31.41.45.48.13l1.67-7a.25.25,0,0,0-.49-.13Z"/>
        <path class="cls-1" d="M217.08,5.07a29.17,29.17,0,0,0,3.5-.12,2.64,2.64,0,0,0,2.15-1.23c.14-.28-.29-.54-.44-.25a2.33,2.33,0,0,1-2,1c-1.06.1-2.14.06-3.2.08a.25.25,0,0,0,0,.5Z"/>
        <path class="cls-1" d="M220.87,1.79A64.41,64.41,0,0,0,218.6,8.4l.48.13a.51.51,0,0,1,.22-.35c.26-.19,0-.62-.25-.44a1.09,1.09,0,0,0-.45.66.25.25,0,0,0,.48.13,66.91,66.91,0,0,1,2.27-6.61c.12-.3-.36-.43-.48-.13Z"/>
        <path class="cls-1" d="M223.66,7.14a3.73,3.73,0,0,1,1.19-.93l.31-.13c.09,0,.23-.1.33,0s.17.34.18.48a1.27,1.27,0,0,1-.42,1,1,1,0,0,1-1,.24,1.23,1.23,0,0,1-.89-.86.25.25,0,0,0-.48.14,1.7,1.7,0,0,0,2.58,1,1.8,1.8,0,0,0,.72-1.37,1.35,1.35,0,0,0-.21-.81.73.73,0,0,0-.89-.23,4,4,0,0,0-1.76,1.21.25.25,0,0,0,0,.35.24.24,0,0,0,.35,0Z"/>
        <path class="cls-1" d="M232.24,4.35c-.15.57-.51,1.21-.29,1.81a1.08,1.08,0,0,0,1.05.7c.58-.09.65-.76.68-1.23a5.66,5.66,0,0,0-.29-2.2l-.45.2A7.45,7.45,0,0,1,233.61,8a3.81,3.81,0,0,1-.69,1.91c-.34.39-1.22.58-1.37-.1-.06-.32-.54-.18-.48.13a1.18,1.18,0,0,0,1.48.79c.8-.2,1.17-1.08,1.37-1.79a8,8,0,0,0-.55-5.56.25.25,0,0,0-.46.2A4.9,4.9,0,0,1,233.19,5a4.56,4.56,0,0,1,0,.64c0,.18,0,.55-.17.68s-.61-.28-.63-.53a4.62,4.62,0,0,1,.34-1.3.25.25,0,0,0-.48-.13Z"/>
        <path class="cls-1" d="M236.34,3.61,236,7.93c0,.3.4.31.49.06.67-1.78,1.4-3.67,2.94-4.89.25-.2-.11-.56-.35-.36C237.42,4,236.66,6,236,7.86l.49.07.39-4.32c0-.32-.47-.32-.5,0Z"/>
        <path class="cls-1" d="M239.2,6.54l1.47-.94-.35-.09c.29.53.55,1.29.06,1.8a.55.55,0,0,1-.62.16.44.44,0,0,1-.29-.53.25.25,0,1,0-.48-.13c-.24.67.48,1.29,1.12,1.19a1.4,1.4,0,0,0,1-1.48,3,3,0,0,0-.39-1.26.25.25,0,0,0-.35-.09L239,6.11c-.27.17,0,.61.25.43Z"/>
        <path class="cls-1" d="M241.25,4.9a4.84,4.84,0,0,0,.05,1.47,4.52,4.52,0,0,0,.2.72,3.24,3.24,0,0,0,.13.33.42.42,0,0,0,.34.18,1.32,1.32,0,0,0,1.11-.48A2.86,2.86,0,0,0,243.69,6a2.72,2.72,0,0,1,.6-1.17c.23-.23-.12-.58-.36-.36a4.36,4.36,0,0,0-.82,1.69c-.17.46-.62,1.11-1.19.94l.15.11a4.48,4.48,0,0,1-.32-2.29c0-.14-.13-.25-.25-.25a.25.25,0,0,0-.25.25Z"/>
        <path class="cls-1" d="M244.64,4.83a27.4,27.4,0,0,0-.55,3.24c0,.28.44.34.49.06A5.52,5.52,0,0,1,246.23,5l-.4,0a3.22,3.22,0,0,1,.26,1.1,3.62,3.62,0,0,1,0,.57,2,2,0,0,1,0,.26l0,.14,0,.06s0,0,0,0h.11l.11.07-.05.27-.12,0h0l-.12,0v0c.27.18.52-.26.25-.44s-.58.29-.33.51a.33.33,0,0,0,.47,0,1,1,0,0,0,.18-.51,4,4,0,0,0-.27-2.23.26.26,0,0,0-.4-.05A6,6,0,0,0,244.1,8l.49.07a24.78,24.78,0,0,1,.53-3.1c.07-.32-.41-.45-.48-.14Z"/>
        <path class="cls-1" d="M249.92,1.14a17.86,17.86,0,0,0-.67,4.71l.31-.24c-.28-.07-.44-.36-.65-.54a1,1,0,0,0-.7-.3,1.25,1.25,0,0,0-1.09.91c-.37,1.22,1.18,1.84,2.12,1.48.3-.12.17-.6-.13-.48A1.32,1.32,0,0,1,248,6.62a.68.68,0,0,1-.33-.93.58.58,0,0,1,.88-.29c.31.24.49.58.9.7a.26.26,0,0,0,.32-.25,17.36,17.36,0,0,1,.66-4.58.25.25,0,0,0-.49-.13Z"/>
      </g>
      <path class="cls-1" d="M254.08,12.53h5.39a.5.5,0,0,0,0-1h-5.39a.5.5,0,0,0,0,1Z"/>
      <path class="cls-1" d="M266.22,11.91a13,13,0,0,0,4,.32.52.52,0,0,0,.5-.5.49.49,0,0,0-.5-.5,12.12,12.12,0,0,1-3.75-.28.5.5,0,1,0-.27,1Z"/>
      <path class="cls-1" d="M277,12.58l3.33.74a.51.51,0,0,0,.62-.34.52.52,0,0,0-.35-.62l-3.33-.75a.5.5,0,0,0-.61.35.51.51,0,0,0,.34.62Z"/>
    </g>
  </g>
</svg>
