<svg xmlns="http://www.w3.org/2000/svg" viewBox="0 0 283.28 151.53">
  <defs>
    <style>
      .cls-1 {
        fill: #999;
      }

      .cls-2 {
        fill: #231f20;
      }

      .cls-3 {
        fill: #00aeef;
      }

      .cls-4 {
        fill: #a7a9ac;
      }

      .cls-5 {
        fill: #fff200;
      }

      .cls-6 {
        fill: #594a42;
      }

      .cls-7 {
        fill: #006838;
      }
    </style>
  </defs>
  <title>Asset 1</title>
  <g id="Layer_2" data-name="Layer 2">
    <g id="Layer_1-2" data-name="Layer 1">
      <g>
        <path class="cls-1" d="M26.08,23.16,25.81,3.25A53.63,53.63,0,0,1,38.72,1.42q0,6-.4,12l10.8.14a1.38,1.38,0,0,0,.92-.2,1.45,1.45,0,0,0,.33-1l.32-11.2L63.27.8A66.81,66.81,0,0,1,63.87,13a28.45,28.45,0,0,1,12.67,1.52L77,2A1.76,1.76,0,0,1,77.3.81,1.76,1.76,0,0,1,78.78.54l6.73.85A2.12,2.12,0,0,1,87,2a2.08,2.08,0,0,1,.34,1.33L87.64,14a1,1,0,0,0,.15.6,1,1,0,0,0,.66.25l10.78,1.21L98.76,1.43l13.6,1.8Q112.09,13.61,111.3,24a2.06,2.06,0,0,1-.61,1.59,2,2,0,0,1-1.25.23L77.36,25c-9.34-.24-18.68-.47-28,0-7.76.41-15.55,1.32-23.28.52a2.36,2.36,0,0,1,.07-2"/>
        <path class="cls-2" d="M26.58,23.16,26.31,3.25l-.37.49A53.63,53.63,0,0,1,38.72,1.92l-.5-.5q0,6-.4,12a.5.5,0,0,0,.5.5l6.62.09,3.2,0c.77,0,1.85.2,2.4-.51a4.41,4.41,0,0,0,.36-2.47L51,7.88l.19-6.72-.5.5L63.27,1.3,62.79.93a68.18,68.18,0,0,1,.58,12,.51.51,0,0,0,.5.5A28.57,28.57,0,0,1,76.41,15a.5.5,0,0,0,.63-.48l.32-9.73c0-.83.06-1.66.08-2.49a2,2,0,0,1,.15-1c.22-.34.65-.29,1-.26,1.55.15,3.09.39,4.63.58.76.1,1.52.18,2.28.29a2.12,2.12,0,0,1,.86.23,1.1,1.1,0,0,1,.42,1c.11,1.56.1,3.13.15,4.7l.15,4.76a7.78,7.78,0,0,0,.12,2c.18.58.68.75,1.24.82,3.59.45,7.18.81,10.78,1.21a.51.51,0,0,0,.5-.5L99.26,1.43l-.5.5,13.6,1.8-.5-.5c-.1,3.5-.23,7-.41,10.49s-.33,6.89-.66,10.32a1.57,1.57,0,0,1-.33,1,1.38,1.38,0,0,1-1,.2c-.91,0-1.82,0-2.73-.07l-5.23-.13L91,24.8c-13.88-.35-27.81-1.06-41.68-.33-7.75.41-15.52,1.31-23.28.52l.48.37a2,2,0,0,1,0-1.63c.26-.58-.6-1.09-.86-.51a3,3,0,0,0-.12,2.4.52.52,0,0,0,.48.37c7.1.72,14.22,0,21.32-.41s14.27-.46,21.41-.32,14.32.34,21.48.52l10.7.28,5.47.14,2.49.06a3.19,3.19,0,0,0,2-.33,2.38,2.38,0,0,0,.79-1.8c.1-1,.15-1.93.22-2.89.13-2,.26-3.94.36-5.92q.35-6,.5-12.09a.53.53,0,0,0-.5-.5L98.76.93a.51.51,0,0,0-.5.5l.47,14.66.5-.5L88.94,14.44a2.5,2.5,0,0,1-.54-.07c-.34-.12-.26-.29-.27-.58s0-.81,0-1.22L88,10l-.16-5c0-1.15.25-3-.9-3.71A4.06,4.06,0,0,0,85.27.86L82.63.53,80.22.22A12,12,0,0,0,78.07,0c-1.56.09-1.6,1.51-1.64,2.75L76,14.48l.63-.48a29.16,29.16,0,0,0-12.8-1.54l.5.5A69.18,69.18,0,0,0,63.75.67.5.5,0,0,0,63.27.3L50.69.66a.51.51,0,0,0-.5.5l-.17,6L49.93,10l0,1.49a4.41,4.41,0,0,1-.07,1.31c-.18.46-.8.31-1.19.31l-1.48,0-2.94,0L38.32,13l.5.5q.43-6,.4-12a.51.51,0,0,0-.5-.5,54.64,54.64,0,0,0-13,1.85.52.52,0,0,0-.37.48l.27,19.91a.5.5,0,0,0,1,0Z"/>
      </g>
      <path class="cls-2" d="M102.71,25.91q-1.45,13.17-2.21,26.4t-.75,26.6q0,7.49.23,15c0,.64,1,.64,1,0q-.41-13.24-.09-26.49t1.39-26.58q.6-7.45,1.43-14.91c.08-.64-.92-.63-1,0Z"/>
      <path class="cls-2" d="M33.63,25.33q-.32,15.39.23,30.79l.76-.44c-1.94-.86-4.32-.72-6.39-.63a57.55,57.55,0,0,0-6.55.73c-4.48.73-8.91,1.79-13.43,2.23A34.38,34.38,0,0,1,.73,58c-.64-.07-.63.93,0,1,8.74,1.07,17.18-2.09,25.81-2.82A35.58,35.58,0,0,1,30.26,56a9.62,9.62,0,0,1,3.85.53.5.5,0,0,0,.75-.43q-.54-15.39-.23-30.79a.5.5,0,0,0-1,0Z"/>
      <path class="cls-3" d="M128.29,125.36c.35-.34.69-.69,1.05-1l.55-.48.32-.27c.28-.24-.32.21,0,0a11.82,11.82,0,0,1,1.22-.76c.07,0,.47-.23.17-.1s0,0,.07,0a5.32,5.32,0,0,1,.78-.22,1.86,1.86,0,0,0,.27-.05c-.06,0-.57,0-.11,0,.21,0,.42,0,.63,0s-.23,0-.21,0a2,2,0,0,1,.35.07l.25.07c.5.15,0,.08,0,0,0,0,.72.36.35.17s0,0,0,0,.16.17.25.25c.3.29-.27-.41.06.09.13.19.25.39.36.58a9,9,0,0,0,1.72,2.3,5.15,5.15,0,0,0,3.34,1.3c1.79,0,3.36-1,4.87-1.77.32-.18.64-.33,1-.49s-.5.15,0,0l.55-.16c.55-.17-.43,0,0,0,.13,0,.66,0,.22,0s.23.08.23.08-.55-.3-.18-.08l.26.15a2.7,2.7,0,0,0,.25.18s-.38-.34-.2-.16.28.24.41.37c.3.28.59.59.9.87a7,7,0,0,0,2.65,1.66,6.1,6.1,0,0,0,5.31-1.25,18.24,18.24,0,0,1,1.74-1.17s.19-.08.24-.12-.6.2-.23.1a1.48,1.48,0,0,0,.36-.1c-.1.09-.64.08-.3.05a1,1,0,0,0,.24,0s-.62,0-.35,0l.12,0c.18.06.09,0-.26-.11,0-.1.57.59.27.16-.14-.21-.09-.07,0,0l.25.22a6.3,6.3,0,0,0,1.57,1,4,4,0,0,0,4.27-.78,12.47,12.47,0,0,0,.94-1c.17-.17.34-.34.52-.5s.22-.18.31-.28c.26-.25-.31.2,0,0l.6-.37c.48-.31-.09,0-.08,0a1.71,1.71,0,0,1,.27-.09c.11,0,.47,0,.11,0s0,0,0,0c.41.1,0,0-.12,0,.43,0-.1,0-.08,0s.28.13.28.17-.47-.43-.12-.07l.42.42c.29.31.56.64.88.93a5.48,5.48,0,0,0,3,1.43c1.84.25,3.51-.52,5.13-1.29l.92-.43c.41-.19-.48.18-.07,0l.58-.2.44-.11c.38-.11-.64,0-.1,0a2,2,0,0,0,.42,0c-.06,0-.52-.14-.37,0a.89.89,0,0,0,.29.09c-.05,0-.46-.27-.32-.13a1.09,1.09,0,0,0,.23.14c.2.1-.23-.14-.22-.16l.22.21c.28.29.51.61.78.91a4.36,4.36,0,0,0,3.09,1.6,4,4,0,0,0,2-.54,4.5,4.5,0,0,0,.53-.36c.18-.14.9-.5.21-.23.43-.17,0,.1-.2,0a2.26,2.26,0,0,0,.25,0c.25,0,.13.13-.3,0,.3.12.65.18.95.28s-.29-.12-.27-.11a1.45,1.45,0,0,0,.25.11l.44.21c.46.22.92.43,1.4.63a4.63,4.63,0,0,0,2.41.35,3.69,3.69,0,0,0,2.74-1.86,4,4,0,0,0,.26-.56c.08-.24.61-.54-.45.27l-.52.4-1.42-.18c.41.16-.19-.06-.14-.12l.23.23c.16.16.31.33.48.48a4.25,4.25,0,0,0,3.8,1.1,9.3,9.3,0,0,0,2.52-1.06l.53-.27c.54-.27-.33.07.08,0,.12,0,.7-.17.28-.09s.27-.08-.15,0c-.23,0,.06,0,.19.06s.73.27.3.09l1.1.46a13.87,13.87,0,0,0,1.57.55,19,19,0,0,0,6.91.74,21.21,21.21,0,0,0,3.61-.58,2.5,2.5,0,0,0-1.33-4.82c-.51.12-1,.23-1.52.32s-.09,0,0,0l-.33,0c-.33,0-.66.06-1,.08-.51,0-1,0-1.55,0l-.77,0-.33,0c-.7-.07.29.06-.11,0a21.12,21.12,0,0,1-3.11-.78c-.09,0-.91-.35-.43-.15l-1-.43a5.38,5.38,0,0,0-2.09-.46,7,7,0,0,0-3.17.94l-1,.53c-.54.28.35-.08,0,0l-.27.08c-.42.13.47,0,.18,0s.37,0,.34,0-.39-.18.2.09c-.26-.12,0,0,0,0l.13.09-.18-.17a6.76,6.76,0,0,0-1.27-1.12,3.26,3.26,0,0,0-4.5,1.1c-.08.13-.14.26-.21.4s-.46.6,0,.09c-.07.07-.23.2.09-.06s-.25.06.3-.17c.37-.16.22-.1.12-.07.07,0,.72,0,.32-.06-.23,0,.44.08.4.06a1.29,1.29,0,0,0-.21,0l-.4-.13c-.49-.16.45.22.06,0l-.49-.23c-1.73-.83-3.56-1.61-5.45-.81a6.24,6.24,0,0,0-1.29.78c-.13.09-.39.13-.1.09s.32-.08.49-.09c-.41,0,.22,0,.26,0s.52.26.24.08c.59.39.12.08,0-.09s-.24-.27-.36-.41a9.48,9.48,0,0,0-.8-.88,5.34,5.34,0,0,0-5.49-1c-.81.28-1.59.66-2.37,1-.3.15-.63.27-.93.43.62-.34.2-.08,0,0a5.8,5.8,0,0,1-.59.19l-.46.1c-.24.07.36,0,.35,0a2.17,2.17,0,0,0-.26,0c-.06,0-.13,0-.19,0-.29,0,.56.15.29,0-.11,0-.67-.21-.25,0s.1,0,0,0c-.37-.29.05.1.09.09s-.35-.32-.43-.4c-.29-.31-.56-.64-.87-.94a5.25,5.25,0,0,0-3.62-1.61,5.83,5.83,0,0,0-3.45,1.17,11.13,11.13,0,0,0-2.56,2.33c-.14.2.1,0,.15-.08-.38.23,0,0,.11,0a2.18,2.18,0,0,1,.51,0c.49,0-.22-.1.22.05s0,0,0,0l-.13-.09.26.2s-.44-.37-.5-.42a5.33,5.33,0,0,0-3.32-1.43,5.66,5.66,0,0,0-2.77.79,16.63,16.63,0,0,0-1.74,1.18c-.28.19-.56.38-.86.55l-.25.13c-.22.13-.23,0,.21-.08a5.16,5.16,0,0,0-.52.16c-.08,0-.35.07.07,0s.11,0,0,0c-.27-.06.35.09.31.06a1.14,1.14,0,0,0-.29-.06c-.3-.06,0-.18.19.09,0,0-.15-.08-.19-.1l-.19-.12c-.43-.23.29.27.08.08-.57-.53-1.12-1.09-1.71-1.59a5.9,5.9,0,0,0-5.89-1.29,16,16,0,0,0-2.45,1.13c-.31.18-.63.35-1,.52a4.16,4.16,0,0,1-.47.24,1.58,1.58,0,0,0-.26.13,1.45,1.45,0,1,0,.19-.09c-.15.05-.3.11-.46.15a2,2,0,0,0-.26.06c-.23.08.32,0,.33,0a3,3,0,0,0-.52,0c-.05,0,.62.06.34,0s-.07-.23.15.1c0,0-.16-.08-.2-.1l-.07-.05c-.18-.12-.18-.12,0,0,0,0,.19.2,0,0a1.74,1.74,0,0,1-.22-.24s.29.42.14.18a2.68,2.68,0,0,0-.18-.28l-.35-.58a8.17,8.17,0,0,0-1.81-2.31,6.83,6.83,0,0,0-3.74-1.48,8.94,8.94,0,0,0-6.33,2.15,27.34,27.34,0,0,0-2.42,2.15,2.5,2.5,0,1,0,3.54,3.54Z"/>
      <path class="cls-2" d="M56.64,48.12A11.8,11.8,0,0,1,58.2,41a21.18,21.18,0,0,1,4.68-5.84c1.72-1.48,4.74-3,6.35-.55a9.33,9.33,0,0,1,1.12,3.12c.3,1.32.56,2.66.77,4a56.82,56.82,0,0,1,.66,9.67l.63-.48A49.73,49.73,0,0,0,60.2,49.34c-1,0-2.08,0-3.11.09-.7,0-1.94-.1-2.42.53-.35.46-.14,1.31.54,1.27a.7.7,0,0,0,.47-1.17c-.4-.51-1.11.21-.71.71l.06.07-.13-.48L55,50.3l.39,0,.32.28.23,0a4,4,0,0,0,.6,0l1-.06c.71,0,1.43-.07,2.15-.07,1.4,0,2.79,0,4.19.14a48.29,48.29,0,0,1,8.36,1.38.5.5,0,0,0,.63-.48,57.75,57.75,0,0,0-.63-9.47c-.23-1.58-.53-3.15-.89-4.71A9.31,9.31,0,0,0,70,33.93c-1.55-2.21-4.3-1.9-6.37-.6a19.38,19.38,0,0,0-5.64,6,13.29,13.29,0,0,0-2.35,8.75c.08.63,1.08.64,1,0Z"/>
      <path class="cls-2" d="M59.18,68.08a30.48,30.48,0,0,0-1.47,6.26,29.59,29.59,0,0,0-.23,3.26c0,.85-.13,1.94.64,2.53a3.18,3.18,0,0,0,2.27.33,18.61,18.61,0,0,0,2.84-.59c1.94-.52,4-1.21,6-.79.28.06.68-.13.63-.48l-.8-6.67-.41-3.45-.21-1.73a1.93,1.93,0,0,0-.29-1.14c-.56-.6-1.76,0-2.41.1l-3.24.71c-.56.12-2,.16-2,1a.63.63,0,0,0,1.16.35c.38-.53-.48-1-.86-.51l0,.06.43-.24h.08l.23.3,0-.1-.05.39a6.66,6.66,0,0,1,1-.2l1.08-.24,2.28-.5,1.08-.23a2.35,2.35,0,0,1,.6-.14,4.1,4.1,0,0,1,0,.52l.28,2.35,1.12,9.38.64-.48a10.64,10.64,0,0,0-5,.37c-1.65.43-3.55,1.22-5.28,1-.6-.07-.72-.39-.75-1s0-.94,0-1.4a29.28,29.28,0,0,1,.24-3,29.94,29.94,0,0,1,1.41-5.82c.22-.61-.75-.87-1-.27Z"/>
      <path class="cls-2" d="M9.84,70a73.82,73.82,0,0,0-1,7.54c-.1,1.21-.17,2.41-.21,3.62A4,4,0,0,0,9.14,84c1.21,1.38,3.31.47,4.74,0a19.84,19.84,0,0,1,7.51-.72.51.51,0,0,0,.5-.5l-1.1-13.74c-.06-.72.07-1.86-.74-2.2a1.71,1.71,0,0,0-1.05,0c-.56.1-1.12.24-1.67.37l-6.68,1.46c-.63.14-.37,1.1.26,1l5.73-1.26,1.43-.31.71-.16a1.85,1.85,0,0,1,.69-.14c.39.12.3,1.09.33,1.42l.12,1.61,1,12,.5-.5a20.67,20.67,0,0,0-6.42.4c-1,.21-1.87.56-2.82.8-.66.18-1.64.41-2.2-.12s-.36-2.17-.32-3c0-1.12.12-2.24.22-3.37.2-2.28.53-4.54,1-6.79.12-.63-.84-.9-1-.27Z"/>
      <path class="cls-2" d="M.48,96.67Q26.72,95.6,53,95.18q12.85-.21,25.71-.27,6.57,0,13.13,0c4.25,0,8.68-.29,12.88.4,6.66,1.1,11.3,5.87,14.71,11.39a73.28,73.28,0,0,1,6.93,14.52c2.22,6.38,4.17,12.85,6,19.36.75,2.71,1.38,5.83,3.36,8,2.69,2.89,6.44,3.07,10.12,2.65,7.08-.8,14-1.82,21.18-1.74a146.83,146.83,0,0,1,16.88,1.41c3.59.45,7.43,1.12,11,.32a8,8,0,0,0,5.83-4.38,176.09,176.09,0,0,0,5.67-17.08c1.35-4.43,2.6-8.86,4.14-13.23,1.11-3.15,2.2-6.31,3.52-9.38A24,24,0,0,1,217.5,101a7.91,7.91,0,0,1,4.82-3,48.24,48.24,0,0,1,7.79,0c12.22.38,24.45.35,36.67.35h8.57a.5.5,0,0,0,0-1c-12.49,0-25,.11-37.48-.14-4.26-.08-8.51-.29-12.76-.33a11.21,11.21,0,0,0-4.81.63c-2.87,1.3-4.73,4.1-6.09,6.83a116.56,116.56,0,0,0-6.31,16.69c-1.59,5-3,10.14-4.63,15.18-.92,2.84-1.82,5.7-2.84,8.52a8,8,0,0,1-1.73,3.31c-2.4,2.3-5.71,2.55-8.87,2.38-4.71-.25-9.38-1.12-14.07-1.55a106.3,106.3,0,0,0-20.8.1c-3.16.33-6.3.87-9.46,1.2a13,13,0,0,1-6.24-.41c-2.88-1.16-4.19-3.6-5.07-6.4-1.79-5.67-3.27-11.44-5.11-17.1a95.82,95.82,0,0,0-6.31-15.71c-2.59-4.86-5.54-9.78-10.09-13.06-6.21-4.47-14.16-3.62-21.41-3.63q-12.85,0-25.71.12-26.25.28-52.5,1.19-6.3.21-12.58.47c-.64,0-.64,1,0,1Z"/>
      <path class="cls-2" d="M111.14,96.22a217.2,217.2,0,0,0,25.34-24.59c7.88-8.74,15.43-17.77,23.43-26.39,4.51-4.87,9.17-9.6,14.08-14.06a1.5,1.5,0,1,0-2.12-2.12,312.41,312.41,0,0,0-24.43,25.59c-7.74,8.84-15.38,17.79-23.68,26.12A175.51,175.51,0,0,1,109,94.1a1.5,1.5,0,0,0,0,2.12,1.53,1.53,0,0,0,2.12,0Z"/>
      <path class="cls-2" d="M134,77.12a14.92,14.92,0,0,1,6.58,7.56,15.15,15.15,0,0,1,1,5.2,29.61,29.61,0,0,0,.35,6.24.5.5,0,0,0,1-.13l0-.8c0-.64-1-.65-1,0l0,.8,1-.14c-.54-2.27-.21-4.6-.36-6.91a15.35,15.35,0,0,0-1.18-5,15.93,15.93,0,0,0-6.85-7.69c-.56-.32-1.07.55-.51.86Z"/>
      <path class="cls-2" d="M144.31,78.42a29.74,29.74,0,0,0,.37,6.11.5.5,0,0,0,1-.26,28.61,28.61,0,0,1-.34-5.85c0-.64-1-.64-1,0Z"/>
      <path class="cls-2" d="M148.23,76a37.75,37.75,0,0,0,.17,6.89.51.51,0,0,0,.5.5.5.5,0,0,0,.5-.5,37.75,37.75,0,0,1-.17-6.89c0-.64-1-.64-1,0Z"/>
      <path class="cls-2" d="M142.35,78.23a21,21,0,0,1,8.24-3.16c.64-.1.37-1.07-.26-1a21.82,21.82,0,0,0-8.48,3.27c-.54.35,0,1.21.5.86Z"/>
      <path class="cls-2" d="M156.31,72.76,149,87.83c-.28.58.58,1.09.86.51l7.28-15.07c.28-.58-.59-1.09-.87-.51Z"/>
      <path class="cls-2" d="M158.75,78.05a3.06,3.06,0,0,1,1.91-.38c.45.15.84.63.48,1a7.38,7.38,0,0,1-1.41,1.07L158.05,81a.52.52,0,0,0-.18.68c.34.79,1.08,1.19,1.72,1.7.33.27.77.69.73,1.15s-.56.63-.93.74c-1.46.42-3.1.72-3.71,2.31-.24.6.73.86,1,.27.68-1.75,3.25-1.09,4.32-2.37a1.81,1.81,0,0,0-.18-2.33c-.61-.74-1.65-1.06-2-2l-.18.68,2.51-1.79c.6-.42,1.26-.9,1.23-1.72a1.84,1.84,0,0,0-1.18-1.55,3.49,3.49,0,0,0-2.64.31c-.59.24-.33,1.2.27,1Z"/>
      <path class="cls-2" d="M103.32,30.45c5.25,3.61,11.36,5.58,17.39,7.46,3,.94,6.07,1.87,9,3a87.65,87.65,0,0,1,9.76,4.59q5.52,2.9,11,5.81c.57.3,1.08-.56.51-.86l-10-5.26c-3.12-1.64-6.23-3.29-9.5-4.62-5.93-2.44-12.19-3.9-18.19-6.15a44.13,44.13,0,0,1-9.55-4.82c-.54-.37-1,.5-.51.86Z"/>
      <g>
        <path class="cls-4" d="M113.19,95.61l1.81-.55a.5.5,0,0,0-.27-1l-1.81.56a.51.51,0,0,0-.35.61.5.5,0,0,0,.62.35Z"/>
        <path class="cls-4" d="M117.56,94.79h2.7a.5.5,0,0,0,0-1h-2.7a.51.51,0,0,0-.5.5.51.51,0,0,0,.5.5Z"/>
        <path class="cls-4" d="M123.1,94.81a.77.77,0,0,1,.26-.07l-.14,0a.81.81,0,0,1,.31,0l-.14,0a1,1,0,0,1,.29.08l-.11,0a1,1,0,0,1,.24.14l-.1-.08.11.09a.51.51,0,0,0,.35.15.47.47,0,0,0,.35-.15.49.49,0,0,0,0-.7,1.59,1.59,0,0,0-.78-.43,1.66,1.66,0,0,0-.91,0,.55.55,0,0,0-.29.23.49.49,0,0,0-.05.39.5.5,0,0,0,.61.35Z"/>
        <path class="cls-4" d="M127.44,95.09h1.8a.5.5,0,0,0,0-1h-1.8a.51.51,0,0,0-.5.5.51.51,0,0,0,.5.5Z"/>
        <path class="cls-4" d="M132.83,95.09H134a.51.51,0,0,0,.35-.15.47.47,0,0,0,.15-.35.51.51,0,0,0-.5-.5h-1.2a.51.51,0,0,0-.5.5.51.51,0,0,0,.5.5Z"/>
        <path class="cls-4" d="M136.73,95.39h3a.5.5,0,0,0,0-1h-3a.5.5,0,0,0-.5.5.5.5,0,0,0,.5.5Z"/>
        <path class="cls-4" d="M142.41,95.39h.9a.55.55,0,0,0,.36-.15.51.51,0,0,0,0-.7.53.53,0,0,0-.36-.15h-.9a.49.49,0,0,0-.35.15.49.49,0,0,0-.15.35.51.51,0,0,0,.15.35.53.53,0,0,0,.35.15Z"/>
        <path class="cls-4" d="M145.71,95.39h.9a.53.53,0,0,0,.35-.15.48.48,0,0,0,0-.7.53.53,0,0,0-.35-.15h-.9a.49.49,0,0,0-.36.15.48.48,0,0,0-.14.35.5.5,0,0,0,.14.35.53.53,0,0,0,.36.15Z"/>
        <path class="cls-4" d="M150.8,95.39a.5.5,0,0,0,0-1,.5.5,0,0,0,0,1Z"/>
        <path class="cls-4" d="M153.79,94.49h2.1a.51.51,0,0,0,.5-.5.51.51,0,0,0-.5-.5h-2.1a.5.5,0,0,0,0,1Z"/>
        <path class="cls-4" d="M159.78,94.79a.5.5,0,0,0,0-1,.5.5,0,0,0,0,1Z"/>
        <path class="cls-4" d="M162,94.79l1.49.31a.53.53,0,0,0,.39,0,.53.53,0,0,0,.23-.3.52.52,0,0,0-.35-.62l-1.5-.31a.62.62,0,0,0-.38.05.52.52,0,0,0-.23.3.51.51,0,0,0,.35.62Z"/>
        <path class="cls-4" d="M166.71,95.24l.07-.06-.1.08a1.22,1.22,0,0,1,.29-.17l-.12,0a2,2,0,0,1,.33-.09l-.13,0a.91.91,0,0,1,.33,0l-.13,0,.18,0a.56.56,0,0,0,.38,0,.52.52,0,0,0,.23-.3.52.52,0,0,0-.35-.62,1.78,1.78,0,0,0-1.68.41.5.5,0,0,0,0,.71.51.51,0,0,0,.7,0Z"/>
        <path class="cls-4" d="M169.2,95.09l2.12-.51a.49.49,0,0,0,.34-.61.5.5,0,0,0-.61-.35l-2.12.5a.5.5,0,1,0,.27,1Z"/>
        <path class="cls-4" d="M172.35,94.79a.5.5,0,0,0,0-1,.5.5,0,0,0,0,1Z"/>
        <path class="cls-4" d="M172.81,94.83l1.5.3a.51.51,0,0,0,.38,0,.53.53,0,0,0,.23-.3.49.49,0,0,0-.35-.61l-1.5-.3a.51.51,0,0,0-.38,0,.5.5,0,0,0,.12.91Z"/>
        <path class="cls-4" d="M179.29,96.14l.3-.3a.36.36,0,0,0,.11-.16.41.41,0,0,0,0-.19.38.38,0,0,0,0-.19.39.39,0,0,0-.11-.17l-.1-.07a.45.45,0,0,0-.25-.07l-.13,0a.43.43,0,0,0-.22.12l-.3.3a.42.42,0,0,0-.11.16.45.45,0,0,0,0,.2.41.41,0,0,0,0,.19.36.36,0,0,0,.11.16l.1.08a.55.55,0,0,0,.25.07l.13,0a.45.45,0,0,0,.22-.13Z"/>
        <path class="cls-4" d="M179.68,96l2.67-1a.5.5,0,0,0-.26-1l-2.68.94a.5.5,0,1,0,.27,1Z"/>
        <path class="cls-4" d="M185.47,94.64l.3.3a.42.42,0,0,0,.16.11.45.45,0,0,0,.2,0,.41.41,0,0,0,.19,0,.42.42,0,0,0,.16-.11l.08-.1a.55.55,0,0,0,.07-.25l0-.13a.54.54,0,0,0-.13-.22l-.3-.3a.36.36,0,0,0-.16-.11.41.41,0,0,0-.19,0,.45.45,0,0,0-.2,0,.42.42,0,0,0-.16.11l-.07.1a.45.45,0,0,0-.07.25v.13a.54.54,0,0,0,.13.22Z"/>
        <path class="cls-4" d="M188.8,95.66l.08,0-.12,0a.53.53,0,0,1,.16,0h-.07a.61.61,0,0,1,.18.05l-.12-.05.15.08-.1-.07a.52.52,0,0,1,.11.1l-.08-.1,0,.07a.5.5,0,0,0,.3.23.5.5,0,0,0,.38,0,.5.5,0,0,0,.23-.3.5.5,0,0,0,0-.38,1.18,1.18,0,0,0-1.6-.41.5.5,0,0,0-.23.3.46.46,0,0,0,.05.38.5.5,0,0,0,.3.23.51.51,0,0,0,.38,0Z"/>
        <path class="cls-4" d="M191.82,96.29h.59a.53.53,0,0,0,.36-.15.34.34,0,0,0,.1-.16.31.31,0,0,0,0-.19.48.48,0,0,0-.14-.36.52.52,0,0,0-.36-.14h-.59a.52.52,0,0,0-.36.14.39.39,0,0,0-.1.16.34.34,0,0,0,0,.2.46.46,0,0,0,.14.35.53.53,0,0,0,.36.15Z"/>
        <path class="cls-4" d="M192.55,96.29l2.09-.36a.51.51,0,0,0,.35-.61.52.52,0,0,0-.62-.35l-2.09.36a.49.49,0,0,0-.34.61.5.5,0,0,0,.61.35Z"/>
        <path class="cls-4" d="M158.9,99.07l1.8-1.63.9-.81.45-.41.13-.11s.16-.09,0-.06,0-.09,0,0l.06.09c.08.18.12.38.19.56l.37,1.14.75,2.27c.2.61,1.16.35,1-.26l-.88-2.69c-.14-.43-.27-.86-.43-1.28a1.22,1.22,0,0,0-.76-.83,1.19,1.19,0,0,0-1.11.39c-.36.31-.71.64-1.06,1l-2.13,1.92c-.48.43.23,1.14.71.71Z"/>
      </g>
      <path class="cls-2" d="M161,97.54a116.28,116.28,0,0,0,.73,22.92l.85-.35a12.24,12.24,0,0,1-3.27-4.34l-.78.61,2,2.46c.48.59,1,1.59,1.88,1.66s1.47-.94,2-1.5l2.15-2.42c.43-.48-.28-1.19-.71-.71l-1.65,1.86-.83.93c-.22.26-.62.94-1.06.72-.28-.15-.54-.62-.73-.86l-.7-.86-1.64-2c-.38-.47-1,.13-.78.6a12.89,12.89,0,0,0,3.43,4.55c.28.24.91.12.85-.36A116.28,116.28,0,0,1,162,97.54c.05-.64-.95-.64-1,0Z"/>
      <path class="cls-2" d="M167.4,102.83a2.06,2.06,0,0,1,2.45.13,2,2,0,0,1,.5,2.45,2.65,2.65,0,0,1-.94,1.08,3.34,3.34,0,0,1-1.76.38c-1.15,0-2.51.29-2.88,1.57a.5.5,0,0,0,.35.61,28.14,28.14,0,0,0,5.88,1.26c.5.06,1,.11,1.5.13a1.31,1.31,0,0,0,1-.31c.57-.59-.15-1.69-.89-1.22-.53.35,0,1.22.51.87-.08-.29-.21-.4-.41-.34h-.16l-.51,0-.9-.08c-.66-.07-1.31-.16-2-.28a28,28,0,0,1-3.81-1l.35.61c.32-1.1,2.09-.78,2.92-.9a3.39,3.39,0,0,0,2.38-1.57,3.22,3.22,0,0,0,.4-2.73,3.1,3.1,0,0,0-1.86-1.82,3,3,0,0,0-2.88.44c-.5.4.21,1.1.71.71Z"/>
      <path class="cls-2" d="M174.79,101.88l-1.13,2.91a2.46,2.46,0,0,0-.29,1.32,1.08,1.08,0,0,0,.81.82,2.28,2.28,0,0,0,1.1-.06l1.39-.41,2.94-.85a.5.5,0,0,0-.27-1l-2.46.71-1.21.35a5.65,5.65,0,0,1-1,.26c-.2,0-.35,0-.31-.18a5.9,5.9,0,0,1,.43-1.15l1-2.49a.5.5,0,1,0-1-.27Z"/>
      <path class="cls-2" d="M177,100.86,176.07,111c-.06.64.94.64,1,0l.94-10.17c.06-.65-.94-.64-1,0Z"/>
      <path class="cls-2" d="M182.35,99.67l-1.77,3.91a.51.51,0,0,0,.18.68.49.49,0,0,0,.68-.18l1.77-3.9a.52.52,0,0,0-.18-.69.51.51,0,0,0-.68.18Z"/>
      <g>
        <path class="cls-5" d="M144.59,131.08l.63,6c.22,2,.48,4.21,1.78,5.8.72-1.58,1.42-3.16,2.09-4.76.77,1.68,3.29,2,4.72.81a5,5,0,0,0,1.38-5c-.33-1.36-1.3-2.76-2.7-2.83a2.88,2.88,0,0,0-2.38,1.32A8.62,8.62,0,0,0,149,135c-.64-1.83-1.65-4-3.58-4.2"/>
        <path class="cls-2" d="M144.09,131.08c.24,2.3.45,4.61.73,6.91a10.25,10.25,0,0,0,1.82,5.28.51.51,0,0,0,.79-.1c.72-1.58,1.42-3.16,2.1-4.76h-.87a3.42,3.42,0,0,0,3.34,1.75,4,4,0,0,0,3.35-2.42,6,6,0,0,0,.11-4.6c-.54-1.39-1.76-2.71-3.39-2.52-2.15.26-3,2.48-3.54,4.28h1c-.66-1.88-1.7-4.23-3.92-4.55-.63-.09-.9.87-.27,1,1.86.27,2.67,2.28,3.23,3.84a.5.5,0,0,0,1,0c.42-1.42,1.24-3.89,3.19-3.54,1.56.28,2.17,2.33,2.18,3.68s-.61,3.13-2.07,3.68a2.59,2.59,0,0,1-3.26-1.07.51.51,0,0,0-.87,0q-1,2.39-2.09,4.76l.78-.11a9.92,9.92,0,0,1-1.6-5.15l-.66-6.33c-.07-.63-1.07-.64-1,0Z"/>
      </g>
      <g>
        <path class="cls-5" d="M178,136.18l-.22,9.12a10.66,10.66,0,0,1,3.65-4.76,1.86,1.86,0,0,0,1.2,2,2.8,2.8,0,0,0,2.43-.33,3.74,3.74,0,1,0-5.61-4l-1.69-2.93"/>
        <path class="cls-2" d="M177.54,136.18l-.22,9.12c0,.6.79.63,1,.14a10.27,10.27,0,0,1,3.42-4.47l-.73-.57a2.53,2.53,0,0,0,3.21,2.72,3.9,3.9,0,0,0,2.91-3.05,4.52,4.52,0,0,0-.92-3.93,4,4,0,0,0-3.82-1.13,4.35,4.35,0,0,0-3.36,3l.92-.12-1.7-2.94a.5.5,0,0,0-.86.51l1.69,2.93a.51.51,0,0,0,.92-.12,3.23,3.23,0,1,1,5.28,3.16,2.56,2.56,0,0,1-2,.72,1.43,1.43,0,0,1-1.33-1.52c.06-.37-.34-.86-.73-.57a11.49,11.49,0,0,0-3.88,5.07l1,.13.22-9.12a.5.5,0,0,0-1,0Z"/>
      </g>
      <path class="cls-6" d="M251.78,91.44l-.3,7a.76.76,0,0,0,.18.65c.23.17.55,0,.81-.07a3.66,3.66,0,0,1,2.83,0,25.16,25.16,0,0,1-.23-7.89,1.07,1.07,0,0,0,0-.59c-.18-.34-.65-.36-1-.32l-2.92.25"/>
      <path class="cls-6" d="M270.36,91.92a41.25,41.25,0,0,0-.47,6.47,7,7,0,0,1,3.15-.15l.59-7.58-3.58-.42"/>
      <path class="cls-7" d="M265.61,88.66A116.88,116.88,0,0,1,279.51,91V88.1a8.35,8.35,0,0,1-1.07.35,3.91,3.91,0,0,1-.86.13c-.34,0-.68,0-1,0l-.51,0-.29,0a28.61,28.61,0,0,1-4.35-1.11c-2.92-.89-6-1.79-9.06-.89a1.51,1.51,0,0,0,0,2.89,14.7,14.7,0,0,0,4.66.73c1.62,0,3.25.07,4.88.11l9.92.21a1.51,1.51,0,0,0,.4-2.95l-8.51-1.94a28.41,28.41,0,0,0-3.86-.79,3.58,3.58,0,0,0-3.26,1.64,1.5,1.5,0,0,0,.9,2.2c4,.66,8-.06,11.91-.88a1.5,1.5,0,0,0,1.05-1.84,1.54,1.54,0,0,0-1.84-1.05,20.51,20.51,0,0,1-8.43-.58v2.9l5.67-1.61a1.49,1.49,0,0,0,1.07-1.64,1.51,1.51,0,0,0-1.47-1.3l-6.32-.51.4,2.94,7.13-1.47a1.51,1.51,0,0,0-.4-3l-7,.3c-1.92.08-1.94,3,0,3a26.81,26.81,0,0,0,8.33-1.5,1.51,1.51,0,0,0-.4-3,39.34,39.34,0,0,0-8.39.54l.8,2.9a45,45,0,0,0,8.18-2.44,1.51,1.51,0,0,0,1.07-1.64,1.47,1.47,0,0,0-1.47-1.3,28.39,28.39,0,0,1-6.45,0l.4,3,5.51-2.29a1.5,1.5,0,0,0-.4-2.94l-4.95-.52,1.3,2.26a6.15,6.15,0,0,1,2.51-2,1.52,1.52,0,0,0,.36-2.74,4.39,4.39,0,0,0-3.3-.51c-1.69.4-1.24,2.87.4,3a2.31,2.31,0,0,0,1.88-.88,1.53,1.53,0,0,0,.31-1.64,1.51,1.51,0,0,0-1.37-.92l-2.55.11L272,73.93l2-1.71a1.53,1.53,0,0,0,0-2.12,2.62,2.62,0,0,0-1.84-.95l1.44,1.9c.49-1.89,1-3.75,1.66-5.59a1.5,1.5,0,1,0-2.89-.8c-.63,1.84-1.18,3.71-1.66,5.59a1.53,1.53,0,0,0,1.45,1.9c-.35-.05-.49-.19-.28.07V70.1l-2.05,1.71A1.51,1.51,0,0,0,271,74.37l2.55-.11-1.06-2.56c-.27.35.09,0,.24,0l.4,2.94a1.26,1.26,0,0,1,1,.21l.36-2.74a9.55,9.55,0,0,0-4.3,3.37,1.44,1.44,0,0,0,0,1.51,1.55,1.55,0,0,0,1.29.74l4.95.52-.39-3-5.52,2.29a1.5,1.5,0,0,0,.4,2.94,28.39,28.39,0,0,0,6.45,0l-.4-3A44.17,44.17,0,0,1,268.75,80a1.52,1.52,0,0,0-1,1.85,1.54,1.54,0,0,0,1.84,1,35.08,35.08,0,0,1,7.59-.44l-.4-3a23.84,23.84,0,0,1-7.53,1.4v3l7-.3-.4-2.95-7.13,1.48a1.5,1.5,0,0,0-1.08,1.65,1.52,1.52,0,0,0,1.48,1.3l6.32.51-.4-3-5.67,1.6a1.52,1.52,0,0,0,0,2.9,24.21,24.21,0,0,0,10,.57l-.79-2.89c-3.38.7-6.87,1.44-10.33.88l.9,2.2c.21-.29,0,0,.23-.17-.06,0,0,0,.13,0a4.52,4.52,0,0,1,.85.12l3.72.85,7.31,1.67.4-3-9.67-.21-4.69-.09a13.31,13.31,0,0,1-4.3-.64v2.89a8.14,8.14,0,0,1,3.8-.09,41.37,41.37,0,0,1,4.36,1.2c2.89.87,6.07,1.64,9,.48a1.57,1.57,0,0,0,1.11-1.45,1.53,1.53,0,0,0-1.11-1.45,123.3,123.3,0,0,0-14.69-2.44,1.52,1.52,0,0,0-1.5,1.5,1.54,1.54,0,0,0,1.5,1.5Z"/>
      <path class="cls-7" d="M244.37,97.49c6.48-3.09,13.74-2.61,20.71-2.08a1.5,1.5,0,0,0,1.44-1.1,1.54,1.54,0,0,0-.69-1.7,37.49,37.49,0,0,0-11.17-5.12,32.06,32.06,0,0,0-5.85-1,14.44,14.44,0,0,0-2.46-.05A3.33,3.33,0,0,0,243.77,88a1.53,1.53,0,0,0,.23,1.82c1.23,1.29,2.78,1.28,4.41,1l5.21-1,10.41-2c1.7-.33,1.24-2.91-.4-2.95l-18.13-.43v3l16.07-2a1.55,1.55,0,0,0,1.5-1.5,1.51,1.51,0,0,0-1.5-1.5,75.47,75.47,0,0,1-14,.08v3l12.7-1.7a1.54,1.54,0,0,0,1.5-1.5,1.52,1.52,0,0,0-1.5-1.5c-4.22.33-8.32-.71-12.37-1.74a1.5,1.5,0,0,0-1.16,2.74A21,21,0,0,0,258,84a1.56,1.56,0,0,0,1.45-1.1,1.53,1.53,0,0,0-.69-1.69,14.63,14.63,0,0,0-6.91-2,1.5,1.5,0,0,0,0,3A21.51,21.51,0,0,0,257,82a1.51,1.51,0,0,0-.4-2.95,7.66,7.66,0,0,1-2.92-.83l-.75,2.8h2.46c1.64,0,2.1-2.6.4-3a15.78,15.78,0,0,0-4.49-.29,1.5,1.5,0,0,0-.4,2.95,6.65,6.65,0,0,0,4.87-.52,1.51,1.51,0,0,0,.3-2.35l-2.29-2-.66,2.5,2.83-.49A1.49,1.49,0,0,0,257,76.24a1.53,1.53,0,0,0-1.48-1.3l-3.33-.44.39,3,1.62-.24a1.51,1.51,0,0,0,.36-2.74,8.45,8.45,0,0,0-4.46-.94,1.5,1.5,0,0,0,0,3,24.37,24.37,0,0,0,7-.44,1.52,1.52,0,0,0,.36-2.75,12.47,12.47,0,0,0-4-1.33L253,75h2l-.76-2.8a2.72,2.72,0,0,1-1.46.2,1.5,1.5,0,0,0-.4,3l.72.1V72.52l.58.21v2.12l.71-.69a1.49,1.49,0,0,0,.39-1.46,1.09,1.09,0,0,1-.11-.54c0-.27,0,.11,0-.14,0-.07.14-.34.05-.16A1.56,1.56,0,0,0,254.5,70a2.35,2.35,0,0,0-1.8-.8c-1.93.06-1.94,3.07,0,3-.14-.15-.24-.17-.32-.08l-.23-1.82a4,4,0,0,0-.26,3.16l.39-1.46-.71.69a1.5,1.5,0,0,0,0,2.12,2.37,2.37,0,0,0,2.33.56A1.55,1.55,0,0,0,255,74a1.5,1.5,0,0,0-1.11-1.44l-.72-.1-.39,2.94a5.88,5.88,0,0,0,3-.6A1.5,1.5,0,0,0,255,72h-2a1.5,1.5,0,0,0-.39,3,10.2,10.2,0,0,1,3.28,1l.36-2.74a21.3,21.3,0,0,1-6.17.34v3a5.34,5.34,0,0,1,2.94.53l.36-2.74-1.61.24a1.48,1.48,0,0,0-1.08,1.64,1.53,1.53,0,0,0,1.48,1.3l3.33.44L255.15,75l-2.84.49a1.51,1.51,0,0,0-.66,2.51l2.29,2,.3-2.36a3.4,3.4,0,0,1-2.56.21l-.39,3A12.69,12.69,0,0,1,255,81l.4-3h-2.46c-1.43,0-2.13,2.11-.76,2.79A11.43,11.43,0,0,0,256.59,82l-.4-3a17.93,17.93,0,0,1-4.33.13v3a11.37,11.37,0,0,1,5.39,1.58L258,81a18.1,18.1,0,0,1-9.77-1.7L247.08,82c4.3,1.09,8.71,2.2,13.17,1.85v-3l-12.7,1.7a1.56,1.56,0,0,0-1.5,1.5,1.53,1.53,0,0,0,1.5,1.5,75.47,75.47,0,0,0,14-.08v-3l-16.07,2A1.55,1.55,0,0,0,244,86a1.52,1.52,0,0,0,1.5,1.5l18.13.43-.4-2.94-9.44,1.8-4.6.88-1.21.23-.57.11s-.35,0-.21,0c-.58.07-.72.09-1.08-.28l.24,1.82s.19-.18.06-.08.1,0,.19,0c-.29.06.1,0,.17,0h.56c.84,0,1.69.08,2.53.17a28.58,28.58,0,0,1,4.83,1,35.19,35.19,0,0,1,9.62,4.59l.76-2.79a76.8,76.8,0,0,0-11-.31,30.55,30.55,0,0,0-11.19,2.8,1.52,1.52,0,0,0-.53,2.06,1.53,1.53,0,0,0,2.05.53Z"/>
    </g>
  </g>
</svg>
