<svg xmlns="http://www.w3.org/2000/svg" viewBox="0 0 260.16 204.1">
  <defs>
    <style>
      .cls-1 {
        fill: #231f20;
      }
    </style>
  </defs>
  <title>Asset 1</title>
  <g id="Layer_2" data-name="Layer 2">
    <g id="Layer_1-2" data-name="Layer 1">
      <g>
        <path class="cls-1" d="M115.09,53.25,128.3,36.9a27.55,27.55,0,0,1,3-3.46,3.78,3.78,0,0,1,1.33-.8,1.55,1.55,0,0,1,1.36.19,9.47,9.47,0,0,1,2.31,3c.9,1.44,1.78,2.88,2.66,4.33q3,5,5.78,10.05c.93,1.69,3.52.18,2.59-1.52q-2.64-4.82-5.47-9.53c-.94-1.55-1.88-3.1-2.85-4.64a14.72,14.72,0,0,0-2.9-3.83,4.66,4.66,0,0,0-4.53-.85,9,9,0,0,0-3.76,2.92c-2.36,2.81-4.63,5.71-6.93,8.56L113,51.13a1.54,1.54,0,0,0,0,2.12,1.52,1.52,0,0,0,2.12,0Z" transform="translate(-0.83 -0.43)"/>
        <path class="cls-1" d="M130.84,32.22l.47,56.42.23,28.07c.08,9.33,0,18.67.49,28,.51,10.38,1.89,20.71,2,31.11l2.79-.76-.83-1.42a1.5,1.5,0,0,0-2.59,1.51l.83,1.43a1.52,1.52,0,0,0,2.8-.76c-.12-9.36-1.26-18.65-1.85-28s-.57-18.64-.64-28l-.47-56.14-.26-31.5a1.5,1.5,0,0,0-3,0Z" transform="translate(-0.83 -0.43)"/>
        <path class="cls-1" d="M124,160.72a79.69,79.69,0,0,0,9,14.9c.94,1.19,2.48,2.1,4,1.26a3.45,3.45,0,0,0,1.25-1.57c.3-.63.63-1.24,1-1.85a33,33,0,0,1,4.5-6.15,34.58,34.58,0,0,1,3.17-3,10,10,0,0,0,2.93-3.18,1.55,1.55,0,0,0-.53-2.06,1.53,1.53,0,0,0-2.06.54,7.15,7.15,0,0,1-2.15,2.33,34.31,34.31,0,0,0-2.62,2.35,36.89,36.89,0,0,0-4.64,5.71,32,32,0,0,0-1.79,3.05l-.42.84-.16.33-.05.08c-.12.18-.12.2,0,.07s.42-.22.38-.16c.06-.09.27.31-.1-.11-.13-.15-.28-.3-.41-.46a66.5,66.5,0,0,1-4.39-6.53q-2.34-3.84-4.29-7.91a1.52,1.52,0,0,0-2-.54,1.54,1.54,0,0,0-.54,2.06Z" transform="translate(-0.83 -0.43)"/>
        <path class="cls-1" d="M64.1,91.15a72.31,72.31,0,0,0-10.39,10.16c-.82,1-1.62,2-2.38,3a2.66,2.66,0,0,0,.18,3.69c1.67,1.74,4.2,2.07,6.42,2.64,1.36.35,2.71.75,4,1.2.7.24,1.4.5,2.09.77.32.12.65.25,1,.39l.29.12c.06,0,.58.29.38.12l-.38-.66,0,.13v-.8l0,.1.69-.9-.09,0,.75-.2h-.09l1.29.75,0-.08a1.5,1.5,0,0,0-2.59,1.52,1.62,1.62,0,0,0,2.19.61,1.67,1.67,0,0,0,.62-2.33,3.38,3.38,0,0,0-1.8-1.13c-.64-.28-1.29-.54-2-.79a60.55,60.55,0,0,0-7.48-2.21,7.42,7.42,0,0,1-2.91-1.14l-.28-.25-.05-.08c-.13-.25-.15-.07,0,.54a3.73,3.73,0,0,0,.24-.36c.36-.5.75-1,1.13-1.45a70.66,70.66,0,0,1,5-5.56,73.3,73.3,0,0,1,6.36-5.72,1.51,1.51,0,0,0,0-2.12,1.53,1.53,0,0,0-2.12,0Z" transform="translate(-0.83 -0.43)"/>
        <path class="cls-1" d="M52.71,105.88l15.8,1c5.17.33,10.34.68,15.53.63,10.28-.09,20.48-1.82,30.71-2.73q15.63-1.38,31.33-1.41c10.4,0,20.79.32,31.19.62,11.76.34,23.54.61,35.31.2,1.92-.07,1.93-3.07,0-3-20.9.73-41.79-.7-62.68-.82-10.47,0-20.93.29-31.36,1.1-5.15.4-10.28.93-15.41,1.52s-10.19,1.18-15.32,1.42a160.32,160.32,0,0,1-17.4-.41l-17.7-1.1c-1.92-.12-1.92,2.88,0,3Z" transform="translate(-0.83 -0.43)"/>
        <path class="cls-1" d="M200.63,89.25a2.38,2.38,0,0,0-1.57,3.09c.45,1.31,1.82,1.87,2.92,2.51A49.11,49.11,0,0,1,208.16,99c1,.78,1.92,1.6,2.81,2.46l.63.62s.22.28.27.29,0-.08,0-.08l.05-.46-.1.16s-.14.18-.12.16c-.23.29-.47.56-.7.83-1.62,1.86-3.36,3.6-5,5.46a39.09,39.09,0,0,0-2.66,3.35,3.22,3.22,0,0,0-.79,2,1.72,1.72,0,0,0,1.73,1.72c1.93,0,1.94-3,0-3h-.09l.75.21-.07,0,.54.54c-.32-.53.27.76,0,.87a2.58,2.58,0,0,0,.24-.37l.43-.62c.28-.39.57-.78.88-1.16.7-.87,1.45-1.71,2.2-2.53,1.5-1.63,3-3.21,4.46-4.91.83-1,1.57-2.15.87-3.46a10.16,10.16,0,0,0-2.24-2.39,47,47,0,0,0-5.42-4.21c-1-.69-2.1-1.35-3.18-2-.52-.3-1.05-.58-1.56-.89-.09-.06-.23-.16-.24-.14s.05.13,0,.18c-.08.25-.18.55-.49.63a1.5,1.5,0,1,0-.8-2.9Z" transform="translate(-0.83 -0.43)"/>
      </g>
      <path class="cls-1" d="M127.6,25.65a205.92,205.92,0,0,0-1.09-21.79l-.85.35a10.59,10.59,0,0,1,2.48,4q1,2.36,2.08,4.68,2.25,4.8,4.86,9.43c.42.75.86,1.5,1.3,2.24a6.54,6.54,0,0,0,1.41,2,1.21,1.21,0,0,0,1.41.17c.6-.38.56-1.14.59-1.77l.53-11.23.6-12.73-.75.43.92.66c.52.38,1-.49.5-.86l-.92-.66c-.33-.24-.74.09-.75.43l-1,20.72-.12,2.49a6.51,6.51,0,0,1-.06,1.25v.18c-.1.26-.23.3-.39.1s-.3-.32-.4-.46c-.92-1.35-1.69-2.85-2.48-4.28q-2.35-4.23-4.4-8.61c-.75-1.6-1.45-3.23-2.15-4.86a10.78,10.78,0,0,0-2.56-4c-.29-.25-.9-.11-.86.36a205.92,205.92,0,0,1,1.09,21.79.5.5,0,0,0,1,0Z" transform="translate(-0.83 -0.43)"/>
      <g>
        <path class="cls-1" d="M221.94,89.09a116.17,116.17,0,0,0-6.48,20.6c-.19.84-.36,1.68-.52,2.53a6.83,6.83,0,0,0-.24,2.2,1.59,1.59,0,0,0,.93,1.28,2.35,2.35,0,0,0,2-.38,42.18,42.18,0,0,1,4.29-2.43,24.6,24.6,0,0,1,4.81-1.57,28.73,28.73,0,0,1,5.55-.59c1.29,0,2.73-.29,3.24-1.64.23-.6-.74-.86-1-.27-.42,1.13-2.32.9-3.25.93a26,26,0,0,0-12.57,3.67c-.61.36-1.17.81-1.79,1.14-.32.17-.82.42-1.13.1a1.33,1.33,0,0,1-.14-1,46.08,46.08,0,0,1,.93-4.65c.7-3.13,1.53-6.24,2.49-9.3q1.65-5.28,3.8-10.37c.25-.59-.72-.85-1-.27Z" transform="translate(-0.83 -0.43)"/>
        <path class="cls-1" d="M220.43,99.15a22.23,22.23,0,0,1,8.09-.28c1.46.22,3.95,1.08,4.67-.82.23-.6-.73-.86-1-.27s-1.47.49-2,.39A28.87,28.87,0,0,0,227,97.7a23.39,23.39,0,0,0-6.83.49c-.63.14-.37,1.1.26,1Z" transform="translate(-0.83 -0.43)"/>
        <path class="cls-1" d="M222.12,89.41q6.28,0,12.57.37c.64,0,.64-1,0-1q-6.28-.42-12.57-.37a.5.5,0,0,0,0,1Z" transform="translate(-0.83 -0.43)"/>
      </g>
      <path class="cls-1" d="M137.28,180.76a12.19,12.19,0,0,0-5.92,4c-1.44,1.8-3,4.58-2,6.91.95,2.15,3.53,2.69,5.58,3.19,1.57.39,3.14.82,4.69,1.28a4.87,4.87,0,0,1,1.85.76,1.52,1.52,0,0,1,.08,1.92c-.8,1.27-2.75,1.67-4.11,2a16.37,16.37,0,0,1-5.18.2c-.63-.08-.63.92,0,1a15.36,15.36,0,0,0,8.49-1.22,3.49,3.49,0,0,0,2.08-2.6,2.39,2.39,0,0,0-1.7-2.57c-2.68-1-5.57-1.37-8.27-2.32a4,4,0,0,1-2.67-2.17c-.48-1.36.16-2.91.82-4.1a11.16,11.16,0,0,1,6.48-5.23.5.5,0,0,0-.26-1Z" transform="translate(-0.83 -0.43)"/>
      <path class="cls-1" d="M22.54,92.63a113,113,0,0,0,2.81,19,22.39,22.39,0,0,0,1.15,4.21c.38.86,1.14,1.89,2.19,1.82,1.32-.08,1.56-1.67,1.85-2.67.43-1.52.9-3,1.39-4.54q1.7-5.13,3.87-10.08l-.92-.12,2.4,8.62c.38,1.37.68,2.81,1.17,4.15a2.86,2.86,0,0,0,1.79,2c1.13.24,1.65-.88,2-1.72l1.85-4.08L47.81,101,52,91.74c.27-.59-.6-1.09-.86-.51L44.48,106c-1.1,2.45-2.17,4.91-3.32,7.34-.2.43-.48.93-1,.58a2.6,2.6,0,0,1-.8-1.29c-.41-1.22-.7-2.5-1-3.75L35.85,100c-.11-.38-.74-.53-.92-.12q-1.7,3.87-3.12,7.84c-.95,2.68-1.71,5.4-2.54,8.11-.16.51-.48,1.11-1.07.69a2.94,2.94,0,0,1-.95-1.46c-.43-1.31-.71-2.69-1-4q-1-4.25-1.65-8.55c-.49-3.27-.83-6.55-1-9.85,0-.64-1-.64-1,0Z" transform="translate(-0.83 -0.43)"/>
      <g>
        <path class="cls-1" d="M149.73,18.25a15.15,15.15,0,0,0-2.4,7.61c-.06,1.95.18,5.06,2.56,5.59,2.74.61,4.07-2.53,4.65-4.61a10.47,10.47,0,0,0-.49-7.8,6,6,0,0,0-2.77-2.77c-1.14-.48-2.67.15-2.37,1.56.13.63,1.1.37,1-.26-.18-.82,1.08-.37,1.36-.2a4.77,4.77,0,0,1,1,.9,6.55,6.55,0,0,1,1.37,2.37,10.57,10.57,0,0,1-.21,6.39,6.75,6.75,0,0,1-1.34,2.69,2,2,0,0,1-2.53.53c-1.46-1-1.33-3.53-1.21-5a14,14,0,0,1,2.22-6.47c.35-.54-.51-1.05-.86-.51Z" transform="translate(-0.83 -0.43)"/>
        <path class="cls-1" d="M158.32,11.85a8.42,8.42,0,0,0-1.27,4c-.06,1.07.11,2.45,1.12,3.06a1.37,1.37,0,0,0,1.47,0,2.14,2.14,0,0,0,.85-1.43,18.37,18.37,0,0,0,.3-4.56c0-.6.08-1.65-.6-1.93a.69.69,0,0,0-.66,1.19c.53.38,1-.49.51-.86l0,0,.23.3c-.42,0-.58.1-.5.33a1.1,1.1,0,0,1,0,.18c0,.18,0,.36,0,.55s0,.65,0,1c0,.65,0,1.29-.07,1.94a9.8,9.8,0,0,1-.26,1.86c-.08.3-.27.81-.67.72s-.53-.52-.63-.8a3.71,3.71,0,0,1-.12-1.52,7.2,7.2,0,0,1,1.13-3.42c.34-.54-.53-1-.87-.5Z" transform="translate(-0.83 -0.43)"/>
        <path class="cls-1" d="M156.37,20.8a25.26,25.26,0,0,1,5-.3c.64,0,.64-1,0-1a25.61,25.61,0,0,0-5.25.34.49.49,0,0,0-.35.61.5.5,0,0,0,.61.35Z" transform="translate(-0.83 -0.43)"/>
      </g>
      <g>
        <path class="cls-1" d="M242.79,107.52a31,31,0,0,0,2.92-5.59c.7-1.76,1.33-3.8.75-5.68-.46-1.53-2.05-3.11-3.72-2.14-1.45.85-1.86,2.94-1.52,4.46a3,3,0,0,0,4.08,2.29c.58-.27.07-1.13-.51-.87a1.84,1.84,0,0,1-2.11-.6,3.25,3.25,0,0,1-.48-2.71c.15-.72.58-1.67,1.38-1.84s1.63.81,1.88,1.58c.6,1.76-.1,3.71-.76,5.35a28.89,28.89,0,0,1-2.78,5.24c-.35.54.51,1,.87.51Z" transform="translate(-0.83 -0.43)"/>
        <path class="cls-1" d="M249.22,96.21a23.14,23.14,0,0,0-3,6.88c-.46,1.88-.21,4.36,2.1,4.77s4-1.43,5.15-3.14a6.45,6.45,0,0,0,.85-6.19c-.84-1.85-3.49-3.66-5.32-1.94-.47.44.24,1.15.71.71a1.94,1.94,0,0,1,2.25,0,3.74,3.74,0,0,1,1.5,1.76,5.51,5.51,0,0,1-.75,5c-.85,1.35-2.33,3.11-4.13,2.83-2-.3-1.67-2.61-1.27-4a23.89,23.89,0,0,1,2.81-6.17c.34-.54-.52-1-.87-.5Z" transform="translate(-0.83 -0.43)"/>
        <path class="cls-1" d="M255.8,95a4,4,0,0,0,0,3A2,2,0,0,0,258,99.08a2.72,2.72,0,0,0,1.65-1.81,3.69,3.69,0,0,0,0-2.86,1.94,1.94,0,0,0-2.5-1,.51.51,0,0,0-.18.69.51.51,0,0,0,.68.18.71.71,0,0,1,.57,0,1.18,1.18,0,0,1,.54.52,2.63,2.63,0,0,1,0,2,2,2,0,0,1-.88,1.25.91.91,0,0,1-1.13-.47,2.93,2.93,0,0,1,.06-2.34c.19-.61-.78-.88-1-.26Z" transform="translate(-0.83 -0.43)"/>
        <path class="cls-1" d="M256.07,100.78a5.15,5.15,0,0,1,4.17.29c.56.31,1.07-.56.5-.86a6.13,6.13,0,0,0-4.94-.39.52.52,0,0,0-.35.61.51.51,0,0,0,.62.35Z" transform="translate(-0.83 -0.43)"/>
      </g>
      <g>
        <path class="cls-1" d="M150.77,188.15a83.57,83.57,0,0,0-.39,9.75c0,1.61.06,3.23.22,4.82.09.91.54,1.93,1.61,1.76.63-.1.36-1.07-.27-1s-.58-6.68-.58-7.34q0-4,.41-8c.06-.64-.94-.64-1,0Z" transform="translate(-0.83 -0.43)"/>
        <path class="cls-1" d="M159.23,186.9a6.11,6.11,0,0,0-1.9,6.64,8.33,8.33,0,0,0,2.19,3.06,7.25,7.25,0,0,1,2.31,3.15,3.24,3.24,0,0,1-1.53,3.53c-.65.35-1.62.42-1.89-.43a2.48,2.48,0,0,1,.79-2.19,14.35,14.35,0,0,0,2.26-3.29,12.21,12.21,0,0,0,1-3.71,11.82,11.82,0,0,0-2.37-8.47c-.4-.5-1.1.21-.71.71a10.93,10.93,0,0,1,.55,12.23c-.77,1.23-2.18,2.23-2.49,3.69a2.09,2.09,0,0,0,1.72,2.7,3.58,3.58,0,0,0,3.28-2.07,4.25,4.25,0,0,0,.09-3.73,11.84,11.84,0,0,0-2.6-3.14,5.55,5.55,0,0,1-1.9-4,5.07,5.07,0,0,1,1.92-4c.5-.4-.21-1.1-.71-.71Z" transform="translate(-0.83 -0.43)"/>
        <path class="cls-1" d="M165.46,190a18.12,18.12,0,0,0-1.51,8.15c.09,1.82.48,4.58,2.57,5.19,2.41.71,3.86-2.38,4.53-4.15a9.41,9.41,0,0,0,0-7.29,6.63,6.63,0,0,0-5.8-3.92.5.5,0,0,0,0,1,5.48,5.48,0,0,1,4.54,2.71,7.58,7.58,0,0,1,.71,5.91,12.2,12.2,0,0,1-1.23,3c-.43.77-1.1,1.79-2.09,1.79-1.88,0-2.17-3-2.23-4.28a17,17,0,0,1,1.37-7.65c.25-.58-.61-1.09-.86-.5Z" transform="translate(-0.83 -0.43)"/>
        <path class="cls-1" d="M173.72,183.21c-.56,1.87-1.12,4.18,0,6a2.54,2.54,0,0,0,1.19,1.1,1.29,1.29,0,0,0,1.47-.39,5,5,0,0,0,.79-3.09,6.69,6.69,0,0,0-1.09-3.52c-.36-.54-1.22,0-.86.5a5.73,5.73,0,0,1,.66,4.93c-.09.27-.25.76-.61.64a1.7,1.7,0,0,1-.8-.87,4.11,4.11,0,0,1-.36-2.21,12.5,12.5,0,0,1,.58-2.78.5.5,0,0,0-1-.27Z" transform="translate(-0.83 -0.43)"/>
        <path class="cls-1" d="M173.85,193.28a5.85,5.85,0,0,1,4.46-.19.5.5,0,0,0,.61-.35.5.5,0,0,0-.34-.61,6.87,6.87,0,0,0-5.23.28.51.51,0,0,0-.18.69.51.51,0,0,0,.68.18Z" transform="translate(-0.83 -0.43)"/>
      </g>
      <g>
        <path class="cls-1" d="M3.37,122.83c1.42-.51,3.54-1.28,4.72.12,1,1.2.68,3.27.25,4.63a8.34,8.34,0,0,1-2.58,3.86,17,17,0,0,1-4.58,2.45.5.5,0,0,0,0,1,9.66,9.66,0,0,0,5.2.06c1.5-.26,3.89-.9,5.06.45.42.48,1.13-.23.71-.71C11,133.32,9,133.5,7.42,133.73c-2,.29-4,.91-6,.16v1a17.33,17.33,0,0,0,5.25-2.91,9.3,9.3,0,0,0,2.81-4.86c.36-1.64.44-3.81-.91-5-1.55-1.42-3.75-.81-5.49-.17-.6.21-.34,1.18.26,1Z" transform="translate(-0.83 -0.43)"/>
        <path class="cls-1" d="M12.5,124a20,20,0,0,0,6.36-.21c.53-.11,1.05-.24,1.57-.39.27-.07,1.32-.62,1.44-.18.08.29-.46,1-.6,1.26-.26.46-.52.91-.79,1.36-2,3.33-4.51,6.42-5.79,10.16-.2.58.6.8.91.38l.19-.24c.38-.52-.49-1-.87-.51l-.18.25.91.38c1.46-4.24,4.54-7.63,6.63-11.55.35-.66.93-1.58.38-2.3s-1.93-.13-2.72.09a18.86,18.86,0,0,1-7.44.5c-.64-.08-.63.92,0,1Z" transform="translate(-0.83 -0.43)"/>
        <path class="cls-1" d="M24.26,123.73a26.07,26.07,0,0,0-1.8,6.66c-.21,1.58,0,3.77,1.92,4.14s3.48-1.09,4.19-2.64a6.13,6.13,0,0,0-.28-5.44,7.33,7.33,0,0,0-2-2.42,1.5,1.5,0,0,0-1.36-.32,1.07,1.07,0,0,0-.76,1.07c0,.64,1,.64,1,0,0-.38.67.15.76.24a8.23,8.23,0,0,1,.82.85,6.28,6.28,0,0,1,1.08,1.9,4.89,4.89,0,0,1-.32,4.06c-.58,1-2.15,2.36-3.38,1.52s-.69-2.68-.51-3.77A26.56,26.56,0,0,1,25.22,124c.25-.59-.72-.85-1-.26Z" transform="translate(-0.83 -0.43)"/>
        <path class="cls-1" d="M31,121.58a4.29,4.29,0,0,0,.13,1.85,1.86,1.86,0,0,0,1.25,1.19,1.4,1.4,0,0,0,1.49-.38,2.12,2.12,0,0,0,.24-1.94,3,3,0,0,0-1.23-1.65.5.5,0,0,0-.69.17.52.52,0,0,0,.18.69l.14.09c-.09-.06,0,0,.06.06a2.16,2.16,0,0,1,.25.27c-.06-.08,0,0,0,0l.09.14.08.15,0,.07s0,.08,0,0a1.6,1.6,0,0,1,.1.31,1.24,1.24,0,0,1,0,.16s0,.06,0,.09c0-.13,0,0,0,0a1.82,1.82,0,0,1,0,.33s0,.1,0,0,0,.07,0,.1a1.09,1.09,0,0,1,0,.17c0-.09,0,.06,0,.07s.06-.07,0,0l0,0c-.06.06,0,0,0,0l-.05,0-.06,0s.11,0,0,0l-.12,0h-.15s.13,0,0,0l-.08,0-.13,0c-.11,0,.06,0,0,0l-.12-.07,0,0c-.1-.06.07.07,0,0a.81.81,0,0,1-.1-.09l0-.05s0,0,0,0-.07-.12-.09-.15a.2.2,0,0,1,0-.08c0-.08,0,0,0,0s-.08-.26-.11-.4,0-.1,0,0a.45.45,0,0,1,0-.11,1.48,1.48,0,0,1,0-.21,8.14,8.14,0,0,1,0-.86.5.5,0,0,0-.5-.5.51.51,0,0,0-.5.5Z" transform="translate(-0.83 -0.43)"/>
        <path class="cls-1" d="M30.73,127.52l4-.49a.5.5,0,1,0,0-1l-4,.49a.53.53,0,0,0-.5.5c0,.25.23.54.5.5Z" transform="translate(-0.83 -0.43)"/>
      </g>
    </g>
  </g>
</svg>
