<svg xmlns="http://www.w3.org/2000/svg" viewBox="0 0 198.06 192.61">
  <defs>
    <style>
      .cls-1 {
        fill: #231f20;
      }
    </style>
  </defs>
  <title>Asset 1</title>
  <g id="Layer_2" data-name="Layer 2">
    <g id="Layer_1-2" data-name="Layer 1">
      <path class="cls-1" d="M1,192.25a116,116,0,0,1,5.35-19.17l-.74.3,3.6,1.89a.49.49,0,0,0,.68-.18q4.68-10.36,10.25-20.32h-.87l3.55,5.41c.19.28.7.36.86,0L38.79,127h-.86l2.89,4.13a.51.51,0,0,0,.92-.12l9.32-30.75-.74.3,2.56,1.52a.51.51,0,0,0,.76-.43,213.9,213.9,0,0,1,4.88-29.88l-.84.22,2.93,2.77a.5.5,0,0,0,.83-.22,139.22,139.22,0,0,1,9-25.51h-.87l1.82,2.83a.51.51,0,0,0,.92-.12,184.71,184.71,0,0,1,9.32-22.5h-.87L82.22,32a.51.51,0,0,0,.91-.12l7.54-20.51h-1l.93,2.41a.5.5,0,0,0,.91.12A58.74,58.74,0,0,0,98.53.6c.23-.6-.74-.86-1-.26a58.36,58.36,0,0,1-6.88,13l.91.12-.93-2.41a.5.5,0,0,0-1,0l-7.54,20.5.91-.12-1.4-2.71a.51.51,0,0,0-.87,0,189.34,189.34,0,0,0-9.42,22.74l.92-.12-1.82-2.83a.51.51,0,0,0-.87,0,140.68,140.68,0,0,0-9.14,25.76l.84-.22-2.93-2.78a.51.51,0,0,0-.84.22,218,218,0,0,0-4.91,30.15l.75-.44-2.56-1.51a.51.51,0,0,0-.74.29l-9.32,30.75.91-.12-2.89-4.13c-.19-.27-.69-.37-.86,0L22.79,159.67h.86l-3.54-5.4a.51.51,0,0,0-.87,0Q13.69,164.2,9,174.59l.69-.18-3.6-1.89a.51.51,0,0,0-.74.3A115.45,115.45,0,0,0,0,192c-.12.63.85.9,1,.26Z"/>
      <path class="cls-1" d="M45.13,122.79a12.1,12.1,0,0,1,5.44-1.33.5.5,0,0,0,0-1,13.12,13.12,0,0,0-6,1.47c-.57.29-.07,1.15.51.86Z"/>
      <path class="cls-1" d="M56,122.21a68.66,68.66,0,0,0,7.57-.81c.63-.11.36-1.07-.27-1a63.85,63.85,0,0,1-7.3.78c-.64,0-.64,1,0,1Z"/>
      <path class="cls-1" d="M69.31,122.22A11.83,11.83,0,0,0,75,121.7c.61-.21.35-1.17-.26-1a11,11,0,0,1-5.14.52.51.51,0,0,0-.61.35.5.5,0,0,0,.35.61Z"/>
      <path class="cls-1" d="M81.31,121.56a8.77,8.77,0,0,0,6.07-.48.49.49,0,0,0,.18-.68.5.5,0,0,0-.68-.18,7.72,7.72,0,0,1-5.31.38.5.5,0,0,0-.26,1Z"/>
      <path class="cls-1" d="M93.51,122.43a15,15,0,0,0,9.2-.68c.59-.24.33-1.21-.26-1a14.08,14.08,0,0,1-8.67.68.5.5,0,0,0-.27,1Z"/>
      <path class="cls-1" d="M110.76,122.34A36,36,0,0,0,118,121a.5.5,0,0,0-.27-1,35.43,35.43,0,0,1-7,1.34c-.64,0-.65,1,0,1Z"/>
      <path class="cls-1" d="M126.32,120.75a12.54,12.54,0,0,0,5.54-.54c.61-.2.35-1.16-.27-1a11.91,11.91,0,0,1-5.27.5.51.51,0,0,0-.5.5.51.51,0,0,0,.5.5Z"/>
      <path class="cls-1" d="M138.34,120.72a10.07,10.07,0,0,0,5.64.94.52.52,0,0,0,.5-.5c0-.25-.23-.54-.5-.5a9.11,9.11,0,0,1-5.14-.8.51.51,0,0,0-.68.17.51.51,0,0,0,.18.69Z"/>
      <path class="cls-1" d="M149.68,121.46l6.28-.37c.64,0,.65-1,0-1l-6.28.37c-.64,0-.65,1,0,1Z"/>
      <path class="cls-1" d="M163.45,121.08h2.69a.5.5,0,0,0,0-1h-2.69a.5.5,0,0,0-.5.5.51.51,0,0,0,.5.5Z"/>
      <path class="cls-1" d="M175.56,121.09l4.77-.71a.5.5,0,0,0,.35-.62.51.51,0,0,0-.61-.35l-4.78.71a.5.5,0,0,0,.27,1Z"/>
      <path class="cls-1" d="M190.39,121.68h7.19a.5.5,0,0,0,0-1h-7.19a.5.5,0,0,0,0,1Z"/>
      <path class="cls-1" d="M55.49,97.21a27.58,27.58,0,0,1,16.87,17.62,25.71,25.71,0,0,1,1.19,7c0,.64,1,.65,1,0a28.64,28.64,0,0,0-12.2-22.17,26.78,26.78,0,0,0-6.59-3.36c-.61-.22-.87.75-.27,1Z"/>
      <path class="cls-1" d="M78.91,88a31.1,31.1,0,0,0-3,9.49c-.41,2.8-.91,6.47,1.15,8.77a3.9,3.9,0,0,0,3.54,1.36,7,7,0,0,0,3.6-2.43,9.86,9.86,0,0,0,2.46-3.81,2.78,2.78,0,0,0-1.29-3.33c-1.46-.65-3.33.45-4.62,1.08a25.92,25.92,0,0,0-4.65,3c-.5.4.21,1.1.71.71a24.34,24.34,0,0,1,3.37-2.24A15.1,15.1,0,0,1,83.79,99c1.51-.36,2.22,1,1.83,2.28a9.22,9.22,0,0,1-2.25,3.34c-.84.88-1.89,2-3.16,2.11A3.17,3.17,0,0,1,77.3,105a7.17,7.17,0,0,1-.77-3.81,27.79,27.79,0,0,1,.38-4,30.37,30.37,0,0,1,2.87-8.7c.29-.57-.57-1.08-.87-.5Z"/>
      <path class="cls-1" d="M86.93,91.13a6.62,6.62,0,0,1,5.75.06A3.87,3.87,0,0,1,94.4,96a9.53,9.53,0,0,1-3.62,4.21c-1.68,1.2-3.48,2.26-5.22,3.37a.5.5,0,0,0,0,.86c2.24,1.14,4.71.69,7.12.68a9.2,9.2,0,0,1,1.89.13c.51.09,1,.29,1.52.37.79.14,1.72,0,2-.85a.5.5,0,0,0-1-.27c-.14.53-1.82-.13-2.15-.2a12.52,12.52,0,0,0-2.87-.17c-2,.07-4.15.39-6-.55v.86c1.63-1,3.3-2,4.89-3.14A13.48,13.48,0,0,0,94.5,98a5.74,5.74,0,0,0,1-4.84,5.2,5.2,0,0,0-3-3.14,7.85,7.85,0,0,0-5.87.17c-.59.22-.34,1.19.27,1Z"/>
      <path class="cls-1" d="M103.14,85a9.49,9.49,0,0,0-1.61,3.34,6.15,6.15,0,0,0-.11,3.45c.32.89,1.14,1.75,2.15,1.31a2.09,2.09,0,0,0,1-1.19,9.1,9.1,0,0,0,.56-1.91,10.26,10.26,0,0,0-.19-4.41.5.5,0,0,0-1,.26,9.06,9.06,0,0,1,.17,4c-.08.42-.6,3-1.42,2.21s-.52-2.15-.34-3A8.77,8.77,0,0,1,104,85.51a.5.5,0,0,0-.17-.69.52.52,0,0,0-.69.18Z"/>
      <path class="cls-1" d="M99.38,96.26l7.49-.45c.64,0,.64-1,0-1l-7.49.45c-.64,0-.65,1,0,1Z"/>
      <path class="cls-1" d="M25.62,57.81a15.83,15.83,0,0,0,5.63-2.12c.84-.52,1.72-1.56,2.77-1.43s2.2.41,3.28.64a111.57,111.57,0,0,1,13.45,3.72c.61.21.87-.76.27-1a112.12,112.12,0,0,0-13.93-3.82,19.14,19.14,0,0,0-3.35-.6c-1,0-1.68.71-2.46,1.24a15.19,15.19,0,0,1-5.92,2.37c-.64.11-.37,1.07.26,1Z"/>
      <g>
        <path class="cls-1" d="M28.8,32.27a12,12,0,0,0-6.09,7.31,11.58,11.58,0,0,0-.39,4.86c.23,1.63.83,3.28,2.42,4,3.06,1.44,7-.58,9.4-2.41a17.41,17.41,0,0,0,3.8-3.91,8.29,8.29,0,0,0,1.84-5.31,5.91,5.91,0,0,0-3-4.53,6.94,6.94,0,0,0-6-.24c-.58.24-.33,1.21.27,1A6,6,0,0,1,36,33a5,5,0,0,1,2.76,3.44c.36,1.75-.48,3.46-1.42,4.88a16.28,16.28,0,0,1-3.07,3.4,15.56,15.56,0,0,1-4.15,2.5,7.12,7.12,0,0,1-4.19.59c-3.05-.7-3-5-2.37-7.37a11,11,0,0,1,5.78-7.31c.58-.28.08-1.14-.5-.86Z"/>
        <path class="cls-1" d="M29.78,47.82l.12,28c0,.64,0,1.29,0,1.92a1,1,0,0,0,.58.91.72.72,0,0,0,.75-1.16.5.5,0,0,0-.71.71l.06.06-.14-.35c.37-.09.52-.28.45-.59V74.06l0-3.74,0-7.5-.07-15a.5.5,0,0,0-1,0Z"/>
        <path class="cls-1" d="M31,78.23l-4.21,22.83-2.13,11.53-.49,2.7c-.12.65-.42,1.45.19,1.94a4.94,4.94,0,0,0,2.19.52l2.94.47,13,2.08c.62.1.9-.86.26-1l-11-1.77-5.39-.86a5.43,5.43,0,0,1-1.14-.19c-.29-.13-.2-.15-.15-.47s.09-.49.14-.74l.49-2.7,4-21.84L32,78.5c.11-.63-.85-.9-1-.27Z"/>
        <path class="cls-1" d="M32.19,77.56,34.46,92l1.15,7.33a9.05,9.05,0,0,0,.66,3.11c.52.88,1.66,1.08,2.56,1.38l7.86,2.64c.62.21.88-.76.27-1l-6.57-2.21-1.65-.55a3.43,3.43,0,0,1-1.52-.67,3.11,3.11,0,0,1-.41-1.54l-.27-1.71L34.38,85.11l-1.23-7.82c-.1-.63-1.06-.36-1,.27Z"/>
        <path class="cls-1" d="M28.57,56.87a55,55,0,0,0-10,11.21.51.51,0,0,0,.3.74,49.72,49.72,0,0,0,7.23,1.73c2.49.4,5,.64,7.49,1a49.78,49.78,0,0,1,13.87,4.15.5.5,0,0,0,.73-.3,1.53,1.53,0,0,0-.4-1.58.5.5,0,0,0-.71.7.56.56,0,0,1,.15.62l.73-.3a50.09,50.09,0,0,0-13.86-4.22c-2.49-.38-5-.61-7.49-1a50.54,50.54,0,0,1-7.48-1.78l.3.74a54,54,0,0,1,9.9-11c.49-.42-.22-1.12-.71-.71Z"/>
        <path class="cls-1" d="M47.79,74.58l2.29-2,1.13-1,.56-.48c.08-.07.18-.14.26-.22s.17,0-.09-.12c-.11,0-.17,0-.18-.14a.25.25,0,0,1,.07-.29l.22-.13h.06a.5.5,0,0,0,0,1,.68.68,0,0,0,.11-1.33,1.12,1.12,0,0,0-1,.38l-.85.72-3.31,2.83a.5.5,0,0,0,0,.71.52.52,0,0,0,.71,0Z"/>
        <path class="cls-1" d="M46.31,77.77c1.47.83,2.92,1.71,4.33,2.65a.51.51,0,0,0,.69-.18.52.52,0,0,0-.18-.69c-1.42-.93-2.86-1.81-4.34-2.65a.5.5,0,0,0-.5.87Z"/>
        <path class="cls-1" d="M47.54,75.61a14,14,0,0,0,4.33.24.51.51,0,0,0,.5-.5.5.5,0,0,0-.5-.5,12.86,12.86,0,0,1-4.06-.21.5.5,0,1,0-.27,1Z"/>
        <path class="cls-1" d="M54.13,57.47a9.08,9.08,0,0,1,3.36-1.71.5.5,0,0,0-.27-1,10.36,10.36,0,0,0-3.8,2,.5.5,0,0,0,0,.71.52.52,0,0,0,.71,0Z"/>
        <path class="cls-1" d="M51.44,59.61,56.2,63a.5.5,0,0,0,.68-.18.52.52,0,0,0-.18-.69l-4.76-3.34a.5.5,0,0,0-.68.18.52.52,0,0,0,.18.69Z"/>
        <path class="cls-1" d="M52.89,58.59a4.13,4.13,0,0,0,3.74,1.29.5.5,0,1,0-.27-1H56a3,3,0,0,1-.42,0h-.13l-.2,0a3.31,3.31,0,0,1-.42-.12l-.1,0,0,0-.05,0-.11-.06a2.71,2.71,0,0,1-.37-.21L54,58.29s0,0,0,0l-.08-.06c-.11-.1-.21-.21-.31-.32a.5.5,0,0,0-.71.71Z"/>
        <path class="cls-1" d="M22.78,34.6a23.68,23.68,0,0,0-4.9,6.91c-.42.9-3,6.29-.48,6.17.64,0,.64-1,0-1-.35,0,.48-2.52.56-2.74a21.4,21.4,0,0,1,1.41-3.17,22.92,22.92,0,0,1,4.12-5.47c.46-.45-.25-1.15-.71-.7Z"/>
        <path class="cls-1" d="M26.76,31.9l-3.17,8.54c-.52,1.39-1,2.77-1.54,4.16-.37,1-.68,2.09.1,2.95.43.48,1.14-.23.71-.71s-.19-1-.05-1.41c.19-.62.45-1.23.67-1.83l1.42-3.81,2.83-7.62c.22-.61-.74-.87-1-.27Z"/>
        <path class="cls-1" d="M26,36.62c-.95,3.05-1.78,6.14-2.51,9.25-.14.63.82.9,1,.27.72-3.11,1.56-6.2,2.5-9.25.19-.62-.77-.88-1-.27Z"/>
        <path class="cls-1" d="M33.5,32.74c.26-.85,1.77-.25,2.28,0a17,17,0,0,1,3,1.74,16.6,16.6,0,0,1,4.67,5.16.5.5,0,0,0,.86-.51,17.78,17.78,0,0,0-5.73-6,11.05,11.05,0,0,0-3.55-1.69c-1-.2-2.19-.05-2.53,1.06-.19.62.77.88,1,.27Z"/>
        <path class="cls-1" d="M40.13,32.92q2.23,2.82,4.21,5.82c.35.54,1.21,0,.86-.5-1.36-2.07-2.82-4.08-4.36-6a.5.5,0,1,0-.71.71Z"/>
        <path class="cls-1" d="M28.21,37.9a1.48,1.48,0,0,0-1,1.49,1.53,1.53,0,0,0,1.18,1.45,2,2,0,0,0,1.94-.62,2.62,2.62,0,0,0,.5-2.18,3.35,3.35,0,0,0-1.44-2.1.5.5,0,0,0-.68.18.52.52,0,0,0,.18.69,2.37,2.37,0,0,1,.87,1.11,2.72,2.72,0,0,1,.11.38c0,.08,0,0,0,.1a1.62,1.62,0,0,1,0,.22,1.06,1.06,0,0,1,0,.32.94.94,0,0,1,0,.16l0,.11v0l-.09.17-.07.1-.1.12-.08.06s0,0,0,0a.53.53,0,0,1-.15.08l-.06,0s.07,0,0,0l-.15,0-.09,0H28.7s.07,0,0,0l-.14,0c-.1,0,0,0,0,0l-.08-.05s-.08,0,0,0l-.05,0s-.1-.13,0,0l-.07-.11c0-.07,0,0,0,0s0-.05,0-.08,0-.18,0-.07a1,1,0,0,1,0-.17s0,0,0-.06,0,.08,0,0,0-.1.05-.16c0,.1,0,0,0-.06s0-.06,0,0,0,0,0,0,0,0,0-.05-.06,0,0,0l.05,0c.09-.06-.09,0,0,0a.52.52,0,0,0,.35-.61.5.5,0,0,0-.62-.35Z"/>
        <path class="cls-1" d="M33,35.94a4.33,4.33,0,0,0-1,2.59,2.07,2.07,0,0,0,1.32,1.88,2.17,2.17,0,0,0,2.33-1,3.64,3.64,0,0,0,.61-2.27,3.71,3.71,0,0,0-1-2.44.5.5,0,0,0-.71.71,2.82,2.82,0,0,1,.54,3c-.21.48-.65,1.09-1.23,1.11S33,39,33,38.56a3.44,3.44,0,0,1,.86-2.11c.36-.54-.5-1-.86-.51Z"/>
        <path class="cls-1" d="M31.22,42.21A4,4,0,0,0,27.49,45a.51.51,0,0,0,.23.57,4,4,0,0,0,5.4-2.64.52.52,0,0,0-.35-.62.52.52,0,0,0-.62.35,2.94,2.94,0,0,1-3.93,2l.23.57a3,3,0,0,1,2.77-2,.5.5,0,0,0,0-1Z"/>
      </g>
    </g>
  </g>
</svg>
