<svg xmlns="http://www.w3.org/2000/svg" viewBox="0 0 264.38 152.79">
  <defs>
    <style>
      .cls-1 {
        fill: #231f20;
      }
    </style>
  </defs>
  <title>Asset 1</title>
  <g id="Layer_2" data-name="Layer 2">
    <g id="Layer_1-2" data-name="Layer 1">
      <g>
        <path class="cls-1" d="M110.35,8.62c4.5-2.23,9.59-.49,14.21.36a53,53,0,0,0,7.34.71l7.82.34,4,.17a19.09,19.09,0,0,1,3.3.27,4.54,4.54,0,0,1,2.62,1.79,6.15,6.15,0,0,0,2.21,1.81c1.78.83,3.78.89,5.59,1.63a3.11,3.11,0,0,1,2.05,2.09c.16,1.09-.89,1.8-1.83,2a15.1,15.1,0,0,1-4.39-.27L148.93,19q-4.38-.48-8.76-.91c-.64-.07-.64.94,0,1,2.8.28,5.59.57,8.39.87l4.31.47a29.62,29.62,0,0,0,4.09.38c1.89-.06,4.15-1.47,3.37-3.67-.72-2-3-2.66-4.92-3.08a14.57,14.57,0,0,1-3.17-.92,8.34,8.34,0,0,1-2.45-2.25c-1.59-1.73-4.06-1.63-6.22-1.73l-8.45-.36c-2.77-.12-5.55-.17-8.3-.5-5.6-.69-11.52-3.28-17-.57-.58.28-.07,1.14.51.86Z" transform="translate(0 0)"/>
        <path class="cls-1" d="M126.52,14a44.57,44.57,0,0,1,9.58.67c.78.14,1.56.31,2.33.49.48.11,1.75.28,1.56,1-.15.56-1,.88-1.42,1.11l-2.35,1.13-9,4.24-4.5,2.09a20.47,20.47,0,0,1-4.62,1.85,18.57,18.57,0,0,1-5.31-.21c-1.85-.22-3.7-.53-5.53-.9v1l13.54-5.55c1.65-.68,3.83-1.22,4.56-3.05a15.17,15.17,0,0,0,.49-2.85c.14-.75.85-2.2,1.84-1.78.58.25,1.09-.61.5-.86-1.84-.79-3.14,1.16-3.36,2.76-.15,1-.08,2.22-.81,3a7.29,7.29,0,0,1-2.8,1.49L107,25.51c-.4.17-.54.85,0,1,1.77.36,3.54.66,5.33.88a23.81,23.81,0,0,0,5.33.33A15.14,15.14,0,0,0,122.45,26l5.18-2.41c3.38-1.57,6.74-3.17,10.1-4.77,1.1-.53,2.92-1.07,3.25-2.43.37-1.52-1.43-2-2.51-2.23a45.74,45.74,0,0,0-12-1.14c-.64,0-.64,1,0,1Z" transform="translate(0 0)"/>
        <path class="cls-1" d="M147.73,10.33a20.76,20.76,0,0,1,.15,2.09,2.71,2.71,0,0,1-.1.75,1.09,1.09,0,0,1-.31.54.68.68,0,0,1-.5.17s-.1,0,0,0l-.08,0-.17,0a.43.43,0,0,1-.12-.06,1.18,1.18,0,0,1-.19-.11,1.53,1.53,0,0,1-.43-.55,1.61,1.61,0,0,1-.1-.75,3.6,3.6,0,0,1,1-1.89.51.51,0,0,0,0-.71.5.5,0,0,0-.7,0A4.74,4.74,0,0,0,144.91,12a2.43,2.43,0,0,0,.65,2.22,2,2,0,0,0,2,.54,2.09,2.09,0,0,0,1.22-1.69,11.58,11.58,0,0,0-.09-2.76.52.52,0,0,0-.5-.5.5.5,0,0,0-.5.5Z" transform="translate(0 0)"/>
        <path class="cls-1" d="M135.57,10.66a1.09,1.09,0,0,0-.8.45,1.29,1.29,0,0,0-.23.73,1.41,1.41,0,0,0,.9,1.33,3,3,0,0,0,.93.22,1.76,1.76,0,0,0,.94-.12c.73-.38.41-1.33.09-1.88A3.21,3.21,0,0,0,136,10.08a.5.5,0,1,0-.51.86l.29.15.12.08.06,0c.1.07-.08-.07,0,0a2.09,2.09,0,0,1,.22.2,1.14,1.14,0,0,1,.11.11l.05.06s.09.1,0,0,0,0,0,0a.21.21,0,0,1,0,.06,1,1,0,0,1,.09.13,1.59,1.59,0,0,1,.15.29c.05.09,0,0,0,0a.64.64,0,0,1,0,.07l.06.15s0,.05,0,.07v0c0,.05,0,.05,0,0s0,.06,0,.07,0-.06,0,0-.05.09,0,0,.07-.07,0,0,.09-.06,0,0c.09-.06.06,0,0,0l-.06,0s.11,0,0,0h-.18l-.32,0s-.05,0-.07,0,.12,0,0,0l-.17,0-.14,0-.07,0h0l-.14-.07-.06,0,0,0c.05.05.06.05,0,0l-.12-.11s0-.05,0,0l0,0,0,0c0-.06,0,0,0,.05s0-.09,0-.13a.07.07,0,0,0,0,0c0,.1,0,.09,0,0a.56.56,0,0,1,0-.13s0,0,0,.06,0-.06,0-.08,0,0,0,0-.05.1,0,0l.07-.11,0,0,0,0c0-.05-.11.08,0,0s.09,0,0,0,0,0,0,0h0a.5.5,0,0,0,0-1Z" transform="translate(0 0)"/>
        <path class="cls-1" d="M128.68,9.85a3.28,3.28,0,0,0-1.34,1.07,1.52,1.52,0,0,0,0,1.71,1.43,1.43,0,0,0,2.5-.46,1.67,1.67,0,0,0-.43-1.66.5.5,0,0,0-.71.7l.09.1c.05,0-.07-.11,0,0l0,.05.06.1c.05.09,0-.09,0,0a.64.64,0,0,0,0,.07s0,.09,0,.14,0,.06,0,0,0,0,0,.06v.11s0,0,0,.07,0-.13,0,0l0,.12a.14.14,0,0,0,0,.06c0-.07,0-.09,0-.05a.41.41,0,0,1-.07.11s-.05.07,0,0,0,0,0,0l-.05,0s0,0,0,0l-.08,0,0,0c-.08,0,.1,0,0,0l-.12,0-.07,0h-.1l-.08,0-.09,0c.11,0,.09,0,.05,0l-.05,0s-.12-.1,0,0l-.09-.09,0,0c.09.08.06.07,0,0s-.07-.13,0-.06,0,0,0,0,0,0,0-.06,0-.06,0,0a.27.27,0,0,0,0-.09v-.07c0-.09,0,0,0,0s0-.13,0-.15a.19.19,0,0,1,0-.07c0-.08,0,0,0,0s.06-.12.07-.15a.1.1,0,0,0,0,0l0,0s0,0,0,0a1.54,1.54,0,0,0,.12-.13l.13-.12.05,0h0a6.74,6.74,0,0,1,.64-.38.5.5,0,0,0-.5-.86Z" transform="translate(0 0)"/>
        <path class="cls-1" d="M124.6,16.24c-3.45-1.61-7.26-1.34-10.95-1-1.69.17-3.8.65-5.39-.17-1.42-.73-2.06-2.39-3.44-3.22-.55-.33-1,.54-.5.87,1.34.8,2,2.4,3.35,3.17,1.55.86,3.42.6,5.11.44,3.75-.36,7.78-.88,11.32.77.58.27,1.08-.59.5-.87Z" transform="translate(0 0)"/>
        <path class="cls-1" d="M109.61,8l-6.68,5.29c-.26.21-.52.43-.79.63s-.59.19-1,.08c-.66-.18-1.33-.34-2-.49-1.34-.28-2.7-.49-4.07-.64l.25.93,8.89-5.53a.49.49,0,0,0,.1-.78L96.51.88l-.36.85A94.37,94.37,0,0,1,108,1l-.48-.37A24,24,0,0,0,110.28,8a.5.5,0,0,0,.87-.5A22.81,22.81,0,0,1,108.52.37.51.51,0,0,0,108,0,94.37,94.37,0,0,0,96.15.73c-.38.05-.72.54-.35.85l7.81,6.58.1-.78-8.89,5.53a.5.5,0,0,0,.25.93,36.31,36.31,0,0,1,4.51.77,14,14,0,0,0,2,.49,2.1,2.1,0,0,0,1.47-.67l7.26-5.75c.5-.4-.21-1.11-.71-.71Z" transform="translate(0 0)"/>
        <path class="cls-1" d="M103.22,8.28a48.36,48.36,0,0,1,6-.14c.64,0,.64-1,0-1a48.36,48.36,0,0,0-6,.14c-.63.06-.64,1.06,0,1Z" transform="translate(0 0)"/>
        <path class="cls-1" d="M99.41,2.71a14.39,14.39,0,0,1,2.84,4.91c.2.61,1.17.35,1-.26A15.6,15.6,0,0,0,100.12,2c-.43-.49-1.14.22-.71.7Z" transform="translate(0 0)"/>
        <path class="cls-1" d="M98.29,13.82c1.89-1.47,3.83-2.88,5.81-4.21.53-.36,0-1.23-.5-.87-2.06,1.39-4.06,2.85-6,4.38a.5.5,0,0,0,0,.7.51.51,0,0,0,.71,0Z" transform="translate(0 0)"/>
        <path class="cls-1" d="M111,26.5c3.06-.86,5.61-2.84,8.58-3.89a.51.51,0,0,0,.12-.92l-1.21-.75c-.55-.34-1.06.53-.51.87l1.22.75.12-.92c-3,1.05-5.54,3-8.58,3.9a.5.5,0,0,0,.26,1Z" transform="translate(0 0)"/>
        <path class="cls-1" d="M119.47,22.59a27.2,27.2,0,0,1,3-1.39c.88-.35,1.83-.58,2.68-1a2.11,2.11,0,0,0,1.33-1.79,1.68,1.68,0,0,0-1.73-1.6c-.64,0-.64,1,0,1a.64.64,0,0,1,.56,1.05,3.08,3.08,0,0,1-1.49.79A30.14,30.14,0,0,0,119,21.73c-.57.3-.07,1.16.5.86Z" transform="translate(0 0)"/>
        <path class="cls-1" d="M119.82,9.48c-.55.27-1.16.72-1.15,1.41a1.12,1.12,0,0,0,.38.83,1.66,1.66,0,0,0,.88.35,1.84,1.84,0,0,0,1.56-.69,1.67,1.67,0,0,0,.4-1,1.28,1.28,0,0,0-.32-.92,1.39,1.39,0,0,0-.79-.48,1.19,1.19,0,0,0-1,.27.49.49,0,0,0,0,.7.5.5,0,0,0,.7,0c-.12.11,0,0,0,0s-.1,0,0,0h.06c.07,0,0,0-.06,0h.12c.1,0-.12,0,0,0a.53.53,0,0,1,.12,0c.09,0-.09-.05,0,0l.06,0,.1.06s-.1-.08,0,0l.06.06s0,0,0,0-.07-.1,0,0l.06.12s0,0,0-.05a.14.14,0,0,0,0,.06s0,0,0,.06,0-.1,0-.05v0a.11.11,0,0,1,0,.08c0,.05,0,.1,0,0l0,.15a.14.14,0,0,0,0,.06c0-.1,0-.07,0,0a1.09,1.09,0,0,1-.08.15l0,0h0l0,0,0,.05-.11.12,0,0c0-.07,0,0,0,0l-.15.1-.07,0c-.07,0,.11,0,0,0l-.12,0-.12,0c.14,0,.07,0,0,0h-.22s.13,0,0,0h-.06l-.12,0c-.09,0,.11.06,0,0l-.07,0,0,0c-.09,0,.09.09,0,0l-.08-.07s.07.11,0,0l0,0c0-.08,0,.12,0,0s0,0,0-.07,0,.1,0,.05,0-.15,0-.05,0,0,0,0,0,0,0,0,0,0,0,0l0,0s.08-.1,0,0l0,0,.06-.07.06,0,0,0,0,0,.13-.09.34-.19a.5.5,0,0,0,.18-.68.52.52,0,0,0-.69-.18Z" transform="translate(0 0)"/>
      </g>
      <path class="cls-1" d="M121.29,26.46A3.64,3.64,0,0,0,120,29a.5.5,0,0,0,.5.5.52.52,0,0,0,.5-.5v-.07c0-.11,0,.08,0,0l0-.15a2.29,2.29,0,0,1,.07-.28s0-.1,0-.14l0-.07s0-.11,0,0,0,0,0,0l0-.07c0-.05,0-.09.07-.14l.15-.24.08-.13s.06-.07,0,0,0,0,0,0a2.44,2.44,0,0,1,.43-.42.5.5,0,0,0,0-.71.51.51,0,0,0-.71,0Z" transform="translate(0 0)"/>
      <path class="cls-1" d="M116.26,32.52a5.2,5.2,0,0,0-1.71,3.61.51.51,0,0,0,.5.5.51.51,0,0,0,.5-.5,1.64,1.64,0,0,1,0-.23.41.41,0,0,1,0-.11c0-.08,0,.07,0,0s0-.28.09-.43a3.86,3.86,0,0,1,.28-.77,5.73,5.73,0,0,1,.45-.75c.06-.06,0,0,0,0l.07-.08.15-.17c.1-.11.22-.22.33-.32a.5.5,0,1,0-.71-.71Z" transform="translate(0 0)"/>
      <path class="cls-1" d="M112,40.06l-2.44,3.56a.51.51,0,0,0,.18.69.53.53,0,0,0,.69-.18l2.44-3.56a.51.51,0,0,0-.18-.69.53.53,0,0,0-.69.18Z" transform="translate(0 0)"/>
      <path class="cls-1" d="M105.69,49.06l-2.63,4.23c-.34.55.52,1.05.86.5l2.63-4.23c.34-.55-.53-1.05-.86-.5Z" transform="translate(0 0)"/>
      <path class="cls-1" d="M100.48,57.27a8,8,0,0,0-3,4.46c-.16.62.81.89,1,.26A6.84,6.84,0,0,1,101,58.14a.52.52,0,0,0,.18-.69.5.5,0,0,0-.68-.18Z" transform="translate(0 0)"/>
      <path class="cls-1" d="M95.49,65.81l-3,4.47a.5.5,0,0,0,.18.68.49.49,0,0,0,.68-.18l3-4.46a.5.5,0,1,0-.86-.51Z" transform="translate(0 0)"/>
      <path class="cls-1" d="M89.6,75.31a12.27,12.27,0,0,0-3.18,4.24.51.51,0,0,0,.18.68.5.5,0,0,0,.69-.18,11.38,11.38,0,0,1,3-4,.51.51,0,0,0,0-.71.52.52,0,0,0-.71,0Z" transform="translate(0 0)"/>
      <path class="cls-1" d="M83.48,84.35l-1.22,1.78a.51.51,0,0,0,.18.69.51.51,0,0,0,.68-.18l1.22-1.78a.51.51,0,0,0-.18-.69.51.51,0,0,0-.68.18Z" transform="translate(0 0)"/>
      <path class="cls-1" d="M79.45,91.51a7.8,7.8,0,0,0-2,3.45.51.51,0,0,0,.35.62.52.52,0,0,0,.62-.35,6.23,6.23,0,0,1,.67-1.62,6.43,6.43,0,0,1,1.09-1.4.5.5,0,1,0-.71-.7Z" transform="translate(0 0)"/>
      <path class="cls-1" d="M75.15,99.06a9.26,9.26,0,0,0-1.31,2.79.5.5,0,0,0,1,.27,6.67,6.67,0,0,1,.23-.72,2,2,0,0,1,.12-.31c0,.09,0-.08,0-.09a1.42,1.42,0,0,1,.08-.18A8.17,8.17,0,0,1,76,99.57a.51.51,0,0,0-.18-.69.51.51,0,0,0-.68.18Z" transform="translate(0 0)"/>
      <path class="cls-1" d="M71.91,105.08a35.09,35.09,0,0,0-2.27,4.55.5.5,0,0,0,.35.61.5.5,0,0,0,.61-.35,32.12,32.12,0,0,1,2.18-4.3.5.5,0,0,0-.87-.51Z" transform="translate(0 0)"/>
      <path class="cls-1" d="M67.13,114.81l-2.1,2.7a.52.52,0,0,0,0,.71.51.51,0,0,0,.71,0l2.09-2.7a.51.51,0,0,0,0-.71.5.5,0,0,0-.7,0Z" transform="translate(0 0)"/>
      <path class="cls-1" d="M.48,122.1c17-1.88,34.18-2.07,51.29-2s34.13.31,51.2.47c34.26.32,68.54.4,102.8,1.16,19.39.43,38.79,1.19,58.13,2.67.65,0,.64-1,0-1-34.34-2.63-68.81-3-103.24-3.29q-51.33-.48-102.66-1C38.81,119,19.58,119,.48,121.1c-.64.07-.64,1.07,0,1Z" transform="translate(0 0)"/>
      <path class="cls-1" d="M126.64,24.94a2.39,2.39,0,0,0,1.48,3,.5.5,0,0,0,.26-1l-.08,0c-.09,0,.09.05,0,0l-.14-.08-.07-.05,0,0,0,0a.38.38,0,0,0-.12-.1l-.13-.14,0-.06s.06.09,0,0l-.18-.31c0-.09,0,0,0,0a.25.25,0,0,0,0-.09l0-.17,0-.16c0-.1,0,.11,0,0a.19.19,0,0,0,0-.08v-.17s0-.06,0-.1,0,.09,0,0a3.37,3.37,0,0,1,.1-.34.5.5,0,1,0-1-.27Z" transform="translate(0 0)"/>
      <path class="cls-1" d="M129,30.56A3.21,3.21,0,0,0,131.86,33a.51.51,0,0,0,.5-.5.51.51,0,0,0-.5-.5h-.1q.12,0,0,0h0l-.2,0-.19-.06-.09,0,.06,0-.06,0a2.21,2.21,0,0,1-.34-.18l-.16-.12s0,0,0,0l0,0-.07-.07a1.72,1.72,0,0,1-.27-.27.27.27,0,0,0-.07-.08c.09.09,0,0,0,0l-.11-.16-.09-.18,0-.09c0-.09,0,.1,0,0s-.08-.25-.11-.38a.5.5,0,0,0-1,.26Z" transform="translate(0 0)"/>
      <path class="cls-1" d="M134.89,35.53A3.8,3.8,0,0,0,137,38.89a.5.5,0,1,0,.51-.87,2.75,2.75,0,0,1-.38-.2l-.18-.13c.09.07,0,0,0,0l-.07-.06a2.2,2.2,0,0,1-.3-.31l-.09-.09s0,0,0,0-.09-.12-.13-.19a2.82,2.82,0,0,1-.21-.38l0-.1c0,.07,0,0,0,0a1.18,1.18,0,0,1-.07-.2,2.13,2.13,0,0,1-.1-.42s0-.09,0,0a.34.34,0,0,0,0-.1,1.93,1.93,0,0,0,0-.24.5.5,0,0,0-.5-.5.51.51,0,0,0-.5.5Z" transform="translate(0 0)"/>
      <path class="cls-1" d="M138.32,40.57a8.44,8.44,0,0,0,2.15,2.81.5.5,0,0,0,.71-.71,8.22,8.22,0,0,1-.61-.57c-.1-.1-.2-.21-.29-.32l-.13-.15-.07-.09c-.06-.07,0,0,0,0a8.49,8.49,0,0,1-.88-1.45.5.5,0,0,0-.68-.18.52.52,0,0,0-.18.69Z" transform="translate(0 0)"/>
      <path class="cls-1" d="M143.47,46.37l2.35,2.73a.5.5,0,0,0,.71,0,.52.52,0,0,0,0-.71l-2.35-2.73a.5.5,0,0,0-.71,0,.51.51,0,0,0,0,.71Z" transform="translate(0 0)"/>
      <path class="cls-1" d="M150.06,52.22a5.14,5.14,0,0,0,4.55,3c.64,0,.64-1,0-1a4.18,4.18,0,0,1-3.69-2.55.5.5,0,0,0-.68-.17.5.5,0,0,0-.18.68Z" transform="translate(0 0)"/>
      <path class="cls-1" d="M157.5,58.82a8.59,8.59,0,0,0,4.13,3.32.5.5,0,1,0,.27-1,7.49,7.49,0,0,1-3.54-2.87.5.5,0,1,0-.86.51Z" transform="translate(0 0)"/>
      <path class="cls-1" d="M165.94,65.66l2.95,3.92a.5.5,0,0,0,.68.18.49.49,0,0,0,.18-.68l-2.95-3.93a.52.52,0,0,0-.68-.18.52.52,0,0,0-.18.69Z" transform="translate(0 0)"/>
      <path class="cls-1" d="M170.88,73a3.15,3.15,0,0,0,2.46,3.14.51.51,0,0,0,.62-.35.5.5,0,0,0-.35-.61,3.06,3.06,0,0,1-.43-.13c-.1,0,.08,0,0,0l-.09,0a1,1,0,0,1-.17-.1l-.19-.13c.1.08,0,0,0,0l-.08-.08a2.94,2.94,0,0,1-.3-.31s.05.07,0,0l-.06-.09a2,2,0,0,1-.12-.19.93.93,0,0,1-.1-.2s0,0,0,0l0-.1-.06-.2s0-.19,0-.22,0,.08,0,0v-.06s0-.07,0-.11V73a.49.49,0,0,0-.5-.5.51.51,0,0,0-.5.5Z" transform="translate(0 0)"/>
      <path class="cls-1" d="M176.2,80a10.72,10.72,0,0,1,3.14,3.39.53.53,0,0,0,.69.18.51.51,0,0,0,.18-.69,11.91,11.91,0,0,0-3.5-3.74.5.5,0,0,0-.69.18.51.51,0,0,0,.18.68Z" transform="translate(0 0)"/>
      <path class="cls-1" d="M182.73,87.35l2.07,2.13a.51.51,0,0,0,.7,0,.5.5,0,0,0,0-.71l-2.06-2.13a.5.5,0,0,0-.71,0,.52.52,0,0,0,0,.71Z" transform="translate(0 0)"/>
      <path class="cls-1" d="M186.86,92.64a12,12,0,0,0,3.38,3.56.5.5,0,1,0,.51-.86,10.77,10.77,0,0,1-3-3.21.5.5,0,1,0-.87.51Z" transform="translate(0 0)"/>
      <path class="cls-1" d="M194,99.55a7.47,7.47,0,0,0,4.46,3.59.5.5,0,0,0,.27-1A6.42,6.42,0,0,1,194.87,99c-.3-.56-1.17-.06-.86.51Z" transform="translate(0 0)"/>
      <path class="cls-1" d="M201.71,108a6.7,6.7,0,0,0,3.65,3.52.51.51,0,0,0,.62-.35.5.5,0,0,0-.35-.61l-.07,0-.14-.07-.25-.12a5.09,5.09,0,0,1-.5-.3,4.8,4.8,0,0,1-.84-.69,5,5,0,0,1-.38-.41l-.14-.17-.18-.25a6.39,6.39,0,0,1-.56-1,.5.5,0,0,0-.68-.18.51.51,0,0,0-.18.69Z" transform="translate(0 0)"/>
      <path class="cls-1" d="M206.6,112.41l1.8,2.69a.5.5,0,0,0,.87-.5l-1.81-2.69a.51.51,0,0,0-.68-.18.5.5,0,0,0-.18.68Z" transform="translate(0 0)"/>
      <path class="cls-1" d="M212,118.3l4,4.66a.5.5,0,0,0,.71,0,.52.52,0,0,0,0-.71l-4-4.66a.5.5,0,0,0-.71,0,.51.51,0,0,0,0,.71Z" transform="translate(0 0)"/>
      <path class="cls-1" d="M71.79,108.3a11.22,11.22,0,0,1,7,12.09c-.11.63.86.9,1,.26a12.25,12.25,0,0,0-7.66-13.31c-.61-.23-.87.74-.27,1Z" transform="translate(0 0)"/>
      <path class="cls-1" d="M81.86,103.79l5-.66c.64-.08,1.66-.34,1.5.64a10.49,10.49,0,0,1-.77,2.09q-1.87,4.68-4,9.22l.92.39.22-.78a.5.5,0,0,0-1-.27l-.23.78c-.15.53.67.91.92.39,1.68-3.54,3.26-7.14,4.66-10.8a2.6,2.6,0,0,0,.18-1.93,1.52,1.52,0,0,0-1.55-.83c-.91,0-1.84.23-2.75.35l-3.08.41c-.63.08-.64,1.08,0,1Z" transform="translate(0 0)"/>
      <path class="cls-1" d="M82.76,109l5.68.32c.65,0,.65-1,0-1L82.76,108c-.65,0-.64,1,0,1Z" transform="translate(0 0)"/>
      <path class="cls-1" d="M92.48,103.37A44.85,44.85,0,0,0,92,114.59c.06.63,1.06.64,1,0a44.21,44.21,0,0,1,.48-11c.11-.63-.86-.9-1-.26Z" transform="translate(0 0)"/>
      <path class="cls-1" d="M96.36,100.83a6.55,6.55,0,0,0-.68,2.67,3.2,3.2,0,0,0,.12,1.27,1.1,1.1,0,0,0,1,.73,2,2,0,0,0,1.7-1.38,4.89,4.89,0,0,0,.26-2.65,1.37,1.37,0,0,0-.87-1.08,1,1,0,0,0-1.21.44.5.5,0,1,0,.86.5c0-.09-.06,0,0,0h0s0,0,0,0h.09s-.08,0,0,0h0s0,0,0,0a.56.56,0,0,1,.1.15.64.64,0,0,1,.06.18.52.52,0,0,1,0,.11c0-.05,0,0,0,0a4.53,4.53,0,0,1-.24,1.93l0,.1c0-.07,0,0,0,0l-.09.16s-.1.14-.06.09l-.15.16a.46.46,0,0,0-.07.07l0,0-.06,0-.06,0-.09,0s.07,0,0,0l-.09,0c-.07,0,.08,0,0,0s0,0,0,0,0,0,0,0,0,0,0,0,0,0,0,0l0,0,0-.16c0-.06,0-.26,0-.38s0-.36,0-.54a5.48,5.48,0,0,1,.55-2,.5.5,0,1,0-.87-.51Z" transform="translate(0 0)"/>
      <path class="cls-1" d="M95.27,109.15a3,3,0,0,1,3.94-.65c.54.35,1-.51.51-.86a4,4,0,0,0-5.16.8.52.52,0,0,0,0,.71.51.51,0,0,0,.71,0Z" transform="translate(0 0)"/>
      <path class="cls-1" d="M194,101a18.59,18.59,0,0,0-6.51,18.48c.14.62,1.11.36,1-.27a17.59,17.59,0,0,1,6.26-17.5c.5-.39-.21-1.1-.71-.71Z" transform="translate(0 0)"/>
      <path class="cls-1" d="M169.21,98.18a39,39,0,0,1-3.84,6.46c-.25.34.1.71.43.75l10.33,1.21c.64.08.63-.92,0-1l-10.33-1.21.44.75a38.16,38.16,0,0,0,3.83-6.46c.27-.57-.59-1.08-.86-.5Z" transform="translate(0 0)"/>
      <path class="cls-1" d="M172.74,99.48a68.32,68.32,0,0,0-2.9,13.77.5.5,0,0,0,.75.44l.73-.48c.53-.35,0-1.21-.51-.86l-.73.47.76.43a67.05,67.05,0,0,1,2.86-13.5c.2-.61-.76-.88-1-.27Z" transform="translate(0 0)"/>
      <path class="cls-1" d="M178.66,100.21A25.07,25.07,0,0,0,176.1,107c-.44,2.08-.84,4.64.63,6.42a3.16,3.16,0,0,0,4.92.22c1.13-1.26,2.18-3.84.12-4.78-2.36-1.07-4,1.31-5.58,2.52-.51.38,0,1.25.5.86.87-.64,1.55-1.51,2.44-2.12a2.22,2.22,0,0,1,2.45-.23c.9.68.09,2.11-.43,2.79a2.13,2.13,0,0,1-2.7.86c-2.24-1.08-1.83-4.07-1.43-6.06a24.31,24.31,0,0,1,2.51-6.8c.31-.56-.56-1.07-.87-.5Z" transform="translate(0 0)"/>
      <path class="cls-1" d="M183.23,100.55a8.05,8.05,0,0,0-1.11,2.57,2.9,2.9,0,0,0,.16,2.31,1.37,1.37,0,0,0,2.14.06A4.56,4.56,0,0,0,185.5,103a8.15,8.15,0,0,0-.05-3.3c-.14-.63-1.1-.37-1,.26a7.16,7.16,0,0,1,0,2.88,6.32,6.32,0,0,1-.42,1.34,1.38,1.38,0,0,1-.66.76c-.62.19-.48-1-.42-1.31a7.06,7.06,0,0,1,1.08-2.61c.36-.54-.51-1-.87-.51Z" transform="translate(0 0)"/>
      <path class="cls-1" d="M182,108.2a4,4,0,0,1,1.46,0,3.62,3.62,0,0,1,1.44.56.5.5,0,0,0,.5-.87,4.94,4.94,0,0,0-3.66-.63.52.52,0,0,0-.35.62.5.5,0,0,0,.61.35Z" transform="translate(0 0)"/>
      <path class="cls-1" d="M65.1,123.72c-.81,2.19.78,4.41,2.75,5.3a12.42,12.42,0,0,0,3.82.87c1.56.17,3.13.3,4.69.44q9.74.87,19.49,1.35c3.71.18,7.41.31,11.12.41l-.48-.37a27.1,27.1,0,0,0,3.32,9.09.5.5,0,0,0,.68.18c1.26-.71.93-2.22.83-3.41a4.51,4.51,0,0,1,2.13-4.06,9.26,9.26,0,0,1,5.67-1.26c2,.07,4.06.3,6.09.44,8.56.6,17.13.82,25.71.93,17.15.22,34.32,0,51.43,1.45,2.3.2,4.6.46,6.91.68a11.53,11.53,0,0,0,5.19-.36c3.75-1.4,3.8-5.5,3.26-8.86-.1-.63-1.06-.36-1,.27a10.89,10.89,0,0,1-.05,4.95,4.42,4.42,0,0,1-3.54,3,16.16,16.16,0,0,1-4.86-.07c-2.08-.23-4.17-.43-6.25-.6-8.34-.7-16.72-1-25.08-1.16-16.76-.31-33.54,0-50.27-1.1-2.34-.15-4.68-.39-7-.51a11.93,11.93,0,0,0-5.88.86,6.36,6.36,0,0,0-3.23,3.44,5.15,5.15,0,0,0-.21,2.37c.07.66.33,1.77-.37,2.17l.68.17a26.41,26.41,0,0,1-3.22-8.84.5.5,0,0,0-.48-.37q-8.94-.22-17.87-.79c-5.9-.37-11.82-.77-17.69-1.44a7.62,7.62,0,0,1-4.24-1.43,3.14,3.14,0,0,1-1.1-3.45c.22-.6-.74-.86-1-.26Z" transform="translate(0 0)"/>
      <path class="cls-1" d="M132.73,141.69a13.52,13.52,0,0,1,6.16-1.61c1.77,0,3.9.18,5.32,1.36,1.7,1.4,1,3.6-.39,4.93a13.74,13.74,0,0,1-4.69,2.52,15.15,15.15,0,0,0-5.19,2.82.51.51,0,0,0,.22.84c3.59.65,7.15-.18,10.68-.8a26,26,0,0,1,5.42-.53c.41,0,.83,0,1.24.09s1,.25,1.51.29a.89.89,0,0,0,.85-1.22.5.5,0,0,0-1,.27v0l.39-.05c-6.33-1.59-12.53,2.09-18.85,1l.22.83c3-2.81,7.85-2.68,10.47-6,1.25-1.57,1.61-3.77.16-5.34s-3.53-1.88-5.42-2a14.63,14.63,0,0,0-7.64,1.73c-.56.3-.06,1.16.51.86Z" transform="translate(0 0)"/>
      <path class="cls-1" d="M161.46,142.16a42,42,0,0,0,1.11,8.06.5.5,0,0,0,1-.13,13.47,13.47,0,0,1,1.53-6.65c.13-.25.45-1.1.82-.92s.47.77.54,1.1a23,23,0,0,1,.58,3.76c0,.45.71.75.93.25.46-1,.92-2,1.39-3,.12-.27.33-.92.7-.94s.42.33.51.53a7.33,7.33,0,0,1,.28,2.6l.13,3.48c0,.65,1,.65,1,0L171.8,146a4.26,4.26,0,0,0-.75-2.81,1.39,1.39,0,0,0-2.24.31,12.67,12.67,0,0,0-.8,1.66l-.92,2,.93.25c-.06-.79-.15-1.57-.28-2.35a11.66,11.66,0,0,0-.48-2.2c-.37-1-1.47-1.93-2.4-.92a6.45,6.45,0,0,0-1,1.77,15.87,15.87,0,0,0-.74,2,14.35,14.35,0,0,0-.56,4.42l1-.13a40.23,40.23,0,0,1-1.07-7.8c0-.64-1-.64-1,0Z" transform="translate(0 0)"/>
      <path class="cls-1" d="M175.5,149.78l1.39-6.31c.14-.62-.82-.89-1-.26l-1.4,6.31c-.14.62.83.89,1,.26Z" transform="translate(0 0)"/>
      <path class="cls-1" d="M177.91,140.37l-.53,6.18a17.34,17.34,0,0,0-.22,2.87c.06.64.38,1.27,1.1,1.27a.5.5,0,0,0,0-1c-.23,0,.18-3.9.22-4.3l.43-5c.06-.64-.94-.64-1,0Z" transform="translate(0 0)"/>
      <path class="cls-1" d="M181.08,146.21a7,7,0,0,0,2.1-1,5.52,5.52,0,0,0,1.64-1.73,1.16,1.16,0,0,0-.61-1.73,2.13,2.13,0,0,0-1.74.36,4.86,4.86,0,0,0-1.41,1.68,5.31,5.31,0,0,0-.64,2.08,3.51,3.51,0,0,0,1.72,3.41,3.06,3.06,0,0,0,3.77-.38c.43-.48-.28-1.19-.71-.71a1.94,1.94,0,0,1-2.23.38,2.39,2.39,0,0,1-1.54-2,4.19,4.19,0,0,1,1-3.08,2.16,2.16,0,0,1,1.07-.79.74.74,0,0,1,.44,0l0,0a.21.21,0,0,1,0,.19,2.34,2.34,0,0,1-.57.76,5.65,5.65,0,0,1-.73.66,5.91,5.91,0,0,1-1.86.93.5.5,0,0,0,.26,1Z" transform="translate(0 0)"/>
      <path class="cls-1" d="M190.43,140.66a3.22,3.22,0,0,0-1.36,5.59c.52.51,1.34,1.05,1.27,1.86l.37-.48-5.11.79a.49.49,0,0,0-.35.61.5.5,0,0,0,.61.35l5.11-.78a.52.52,0,0,0,.37-.49,2.5,2.5,0,0,0-.88-1.92,5,5,0,0,1-1.41-1.63,2.33,2.33,0,0,1,1.65-2.94c.63-.12.36-1.08-.27-1Z" transform="translate(0 0)"/>
    </g>
  </g>
</svg>
