<?xml version="1.0" encoding="utf-8"?>
<!-- Generator: Adobe Illustrator 23.1.1, SVG Export Plug-In . SVG Version: 6.00 Build 0)  -->
<svg version="1.1" id="Layer_1" xmlns="http://www.w3.org/2000/svg" xmlns:xlink="http://www.w3.org/1999/xlink" x="0px" y="0px"
	 viewBox="0 0 288 216" style="enable-background:new 0 0 288 216;" xml:space="preserve">
<style type="text/css">
	.st0{fill:#A7A9AC;}
	.st1{fill:#ED1C24;}
	.st2{fill:none;stroke:#000000;stroke-miterlimit:10;}
</style>
<g>
	<g>
		<g>
			<path class="st0" d="M251.03,130.45c4.27-3.76,8.41-7.67,12.42-11.7c0.48-0.49,0.96-0.97,1.44-1.46c0.47-0.48,1.1-0.99,1.26-1.68
				c0.3-1.29-0.93-2.06-1.85-2.65c-1.76-1.12-3.73-1.83-5.64-2.65c-2.06-0.88-4.15-1.94-5.49-3.8c-0.12,0.46-0.24,0.91-0.36,1.37
				c0.31-0.21,0.58-0.18,0.84,0.09c0.9,0.92,2.31-0.49,1.41-1.41c-0.86-0.89-2.22-1.08-3.26-0.4c-0.42,0.27-0.69,0.91-0.36,1.37
				c2.44,3.38,6.35,4.4,9.93,6.11c0.89,0.43,1.78,0.9,2.58,1.5c0.07,0.05,0.14,0.12,0.21,0.16c0.02,0.02,0.04,0.04,0.06,0.06
				c0.12,0.13,0.11,0.06-0.01-0.22c-0.03-0.01-0.57,0.6-0.64,0.66c-0.48,0.49-0.96,0.98-1.44,1.46c-1.89,1.91-3.82,3.79-5.77,5.64
				c-2.21,2.09-4.45,4.14-6.73,6.15C248.65,129.88,250.07,131.29,251.03,130.45L251.03,130.45z"/>
		</g>
	</g>
	<g>
		<g>
			<path class="st0" d="M29.54,100.9c-3.86,1.72-7.52,3.89-10.9,6.44c-0.77,0.58-1.73,1.16-2.32,1.92c-0.69,0.88-0.38,1.88,0.3,2.65
				c1.5,1.68,3.14,3.26,4.75,4.84c1.81,1.78,3.65,3.53,5.52,5.24c0.95,0.87,2.37-0.54,1.41-1.41c-2.99-2.73-5.89-5.56-8.71-8.46
				c-0.33-0.34-0.66-0.69-0.99-1.03c-0.16-0.17-0.34-0.34-0.5-0.52c-0.03-0.03-0.13-0.18-0.16-0.19c-0.11-0.04-0.03,0.09-0.04,0.1
				c0.34-0.18,0.67-0.57,0.97-0.81c0.38-0.3,0.76-0.59,1.15-0.88c1.54-1.14,3.14-2.21,4.78-3.19c1.86-1.1,3.78-2.09,5.75-2.97
				c0.49-0.22,0.61-0.94,0.36-1.37C30.61,100.75,30.03,100.68,29.54,100.9L29.54,100.9z"/>
		</g>
	</g>
	<g>
		<g>
			<path class="st0" d="M16.81,111.94c15.14,4.13,30.92,4.09,46.49,3.93c16.32-0.17,32.64-0.34,48.96-0.5
				c16.33-0.17,32.65-0.34,48.98-0.5c16.24-0.17,32.48-0.41,48.71-0.27c18.32,0.17,36.66,0.88,54.88,2.91
				c0.39,0.04,0.9-0.34,0.96-0.73c0.29-1.78-0.8-3.67-2.77-3.61c-1.28,0.04-1.29,2.04,0,2c0.58-0.02,0.93,0.52,0.84,1.07
				c0.32-0.24,0.64-0.49,0.96-0.73c-32.26-3.59-64.77-3.04-97.16-2.71c-32.65,0.34-65.31,0.67-97.96,1.01
				c-17.49,0.18-35.33,0.85-52.37-3.79C16.09,109.68,15.56,111.61,16.81,111.94L16.81,111.94z"/>
		</g>
	</g>
</g>
<g>
	<g>
		<g>
			<path class="st0" d="M131.31,32.75c1.86-5.56,4.1-10.98,6.73-16.22c0.64-1.27,1.29-2.52,1.97-3.77c0.34-0.62,0.67-1.25,1.03-1.85
				c0.04-0.07,0.24-0.4,0.2-0.32c-0.15,0.31-0.19-0.26-0.06,0.08c0.04,0.12,0.2,0.25,0.27,0.36c1.66,2.62,3.22,5.31,4.82,7.96
				c1.85,3.05,3.7,6.11,5.55,9.16c0.36,0.59,1.4,0.71,1.73,0c0.37-0.81,0.74-1.63,1.12-2.44c0.22-0.49,0.14-1.08-0.36-1.37
				c-0.43-0.25-1.14-0.13-1.37,0.36c-0.37,0.81-0.74,1.63-1.12,2.44c0.58,0,1.15,0,1.73,0c-1.79-2.95-3.57-5.9-5.36-8.84
				c-0.88-1.46-1.76-2.91-2.65-4.37c-0.86-1.42-1.64-2.95-2.62-4.28c-0.9-1.22-2.38-1.42-3.34-0.14c-0.89,1.19-1.53,2.65-2.22,3.96
				c-1.47,2.79-2.82,5.64-4.07,8.53c-1.45,3.35-2.75,6.76-3.91,10.22C128.97,33.44,130.91,33.96,131.31,32.75L131.31,32.75z"/>
		</g>
	</g>
	<g>
		<g>
			<path class="st0" d="M133.16,194.51c1.79,4.25,3.94,8.34,6.53,12.16c0.6,0.88,1.18,1.89,1.92,2.66c0.82,0.84,1.95,0.73,2.71-0.14
				c0.8-0.92,1.49-1.96,2.22-2.94c0.71-0.96,1.42-1.93,2.11-2.9c1.61-2.25,3.17-4.52,4.69-6.83c0.71-1.08-1.02-2.08-1.73-1.01
				c-2.38,3.6-4.86,7.14-7.45,10.6c-0.29,0.38-0.57,0.76-0.86,1.15c-0.12,0.16-0.42,0.41-0.46,0.59c-0.02,0.02-0.04,0.05-0.07,0.07
				c0.1,0.02,0.2,0.03,0.29,0.05c0.01-0.02-0.09-0.1-0.1-0.12c-0.05-0.2-0.33-0.45-0.46-0.63c-0.13-0.18-0.26-0.36-0.39-0.55
				c-0.3-0.43-0.6-0.86-0.89-1.29c-1.13-1.68-2.18-3.42-3.15-5.2c-1.1-2.02-2.11-4.09-2.99-6.21c-0.21-0.5-0.66-0.85-1.23-0.7
				C133.39,193.4,132.95,194,133.16,194.51L133.16,194.51z"/>
		</g>
	</g>
	<g>
		<g>
			<path class="st0" d="M139.94,10.17c-0.4,25.67-0.57,51.34-0.49,77.02c0.08,25.55,0.39,51.09,0.95,76.63
				c0.31,14.41,0.7,28.81,1.17,43.22c0.04,1.28,2.04,1.29,2,0c-0.83-25.67-1.41-51.34-1.76-77.01c-0.34-25.54-0.45-51.09-0.31-76.63
				c0.08-14.41,0.23-28.82,0.45-43.22C141.96,8.88,139.96,8.88,139.94,10.17L139.94,10.17z"/>
		</g>
	</g>
</g>
<g>
	<g>
		<g>
			<g>
				<path class="st1" d="M248.25,109.01c-6.31-0.19-12.63-0.47-18.93-0.85c-7.27-0.44-14.54-0.98-21.78-1.75
					c-4.78-0.51-9.55-1.12-14.28-2c-2.94-0.54-5.87-1.19-8.72-2.09c-0.96-0.31-1.91-0.64-2.85-1.03c-0.11-0.04-0.37-0.16-0.1-0.04
					c-0.1-0.04-0.2-0.09-0.3-0.13c-0.19-0.08-0.37-0.16-0.55-0.25c-0.34-0.16-0.68-0.32-1.01-0.49c-4.47-2.26-8.57-5.26-12.2-8.69
					c-3.81-3.61-7.13-7.7-10.05-12.03c-3.81-5.66-6.75-11.86-8.78-18.37c-1.69-5.4-2.78-10.98-3.3-16.61
					c-0.37-4.07-0.46-8.16-0.26-12.24c0.03-0.67,0.07-1.34,0.12-2.01c0.09-1.28-1.91-1.28-2,0c-0.26,3.62-0.29,7.25-0.1,10.87
					c0.29,5.47,1.07,10.93,2.41,16.25c1.62,6.45,4.06,12.71,7.34,18.51c2.83,5,6.31,9.72,10.19,13.97
					c4.22,4.61,9.16,8.59,14.65,11.58c1.48,0.81,3.02,1.5,4.6,2.08c2.47,0.91,5.03,1.56,7.6,2.11c4.3,0.92,8.66,1.55,13.03,2.1
					c6.66,0.83,13.35,1.4,20.05,1.87c7.13,0.5,14.28,0.88,21.42,1.14c1.27,0.05,2.54,0.09,3.81,0.12
					C249.54,111.05,249.54,109.05,248.25,109.01L248.25,109.01z"/>
			</g>
		</g>
		<g>
			<g>
				<path class="st1" d="M136.58,41.3c2.76-3.77,5.52-7.54,8.27-11.3c-0.58,0-1.15,0-1.73,0c3.11,4.48,6.22,8.97,9.32,13.45
					c0.73,1.05,2.46,0.05,1.73-1.01c-3.11-4.48-6.22-8.97-9.32-13.45c-0.45-0.65-1.27-0.63-1.73,0c-2.76,3.77-5.52,7.54-8.27,11.3
					c-0.32,0.44-0.07,1.12,0.36,1.37C135.71,41.95,136.26,41.73,136.58,41.3L136.58,41.3z"/>
			</g>
		</g>
		<g>
			<g>
				<path class="st1" d="M239.98,101.13c3.27,3.1,6.12,6.6,8.48,10.43c0.2-0.49,0.4-0.98,0.6-1.47c-3.33,1.3-6.37,3.14-9.04,5.51
					c-0.97,0.85,0.45,2.26,1.41,1.41c2.4-2.12,5.18-3.83,8.16-4.99c0.58-0.23,0.97-0.87,0.6-1.47c-2.45-3.97-5.4-7.63-8.79-10.84
					C240.46,98.83,239.04,100.25,239.98,101.13L239.98,101.13z"/>
			</g>
		</g>
	</g>
	<g>
		<g>
			<g>
				<path class="st1" d="M33.55,118.51c6.36-0.02,12.71,0.07,19.07,0.24c7.3,0.2,14.6,0.51,21.89,1.06
					c4.8,0.36,9.63,0.82,14.33,1.54c2.94,0.45,5.88,1,8.74,1.83c0.96,0.28,1.91,0.58,2.85,0.94c0.2,0.08,0.4,0.15,0.6,0.23
					c0.09,0.04,0.18,0.07,0.27,0.11c0.04,0.02,0.09,0.04,0.13,0.06c0.19,0.08-0.18-0.08-0.04-0.02c0.34,0.15,0.68,0.3,1.01,0.45
					c4.61,2.16,8.88,5.09,12.66,8.49c3.91,3.52,7.42,7.58,10.46,11.86c3.91,5.5,6.99,11.57,9.18,17.95
					c1.82,5.29,3.07,10.79,3.75,16.35c0.49,4.02,0.71,8.07,0.64,12.12c-0.01,0.66-0.03,1.32-0.06,1.99c-0.05,1.29,1.95,1.28,2,0
					c0.14-3.59,0.06-7.2-0.24-10.78c-0.45-5.38-1.38-10.74-2.84-15.94c-1.79-6.37-4.38-12.54-7.79-18.22
					c-2.96-4.94-6.57-9.56-10.57-13.71c-4.41-4.58-9.54-8.48-15.22-11.36c-1.49-0.75-3.03-1.4-4.61-1.93
					c-2.5-0.84-5.09-1.41-7.68-1.88c-4.31-0.78-8.67-1.29-13.03-1.69c-6.7-0.62-13.42-0.97-20.13-1.23
					c-7.19-0.28-14.38-0.43-21.57-0.45c-1.27,0-2.54-0.01-3.81,0C32.27,116.52,32.26,118.52,33.55,118.51L33.55,118.51z"/>
			</g>
		</g>
		<g>
			<g>
				<path class="st1" d="M147.4,182.58c-2.64,3.86-5.27,7.71-7.91,11.57c0.58,0,1.15,0,1.73,0c-3.25-4.38-6.5-8.76-9.75-13.15
					c-0.32-0.43-0.87-0.65-1.37-0.36c-0.43,0.25-0.68,0.93-0.36,1.37c3.25,4.38,6.5,8.76,9.75,13.15c0.46,0.62,1.28,0.66,1.73,0
					c2.64-3.86,5.27-7.71,7.91-11.57C149.85,182.52,148.12,181.52,147.4,182.58L147.4,182.58z"/>
			</g>
		</g>
		<g>
			<g>
				<path class="st1" d="M42.13,126.14c-3.37-2.99-6.33-6.39-8.82-10.15c-0.12,0.46-0.24,0.91-0.36,1.37
					c3.19-1.37,6.11-3.3,8.63-5.68c0.94-0.88-0.48-2.3-1.41-1.41c-2.41,2.27-5.19,4.07-8.23,5.37c-0.48,0.21-0.63,0.96-0.36,1.37
					c2.58,3.9,5.64,7.45,9.13,10.55C41.67,128.41,43.09,127,42.13,126.14L42.13,126.14z"/>
			</g>
		</g>
	</g>
</g>
<line class="st2" x1="278.19" y1="73" x2="277.82" y2="73.37"/>
<g>
	<g>
		<g>
			<path d="M161.47,88.88c0.15-0.23,0.39-0.36,0.7-0.38c0.2,0.04,0.26,0.05,0.16,0.02c0.09,0.02,0.17,0.06,0.23,0.12
				c0.08,0.06,0.09,0.07,0.04,0.02c0.11,0.15,0.13,0.18,0.08,0.1c0.05,0.08,0.08,0.16,0.08,0.25c0.02,0.09,0.01,0.18-0.02,0.27
				c-0.08,0.16-0.09,0.19-0.04,0.1c-0.11,0.13-0.12,0.16-0.05,0.08c-0.04,0.03-0.08,0.06-0.12,0.09c0.03-0.02,0.06-0.04,0.1-0.05
				c-0.15,0.06-0.18,0.08-0.08,0.04c0.13-0.03,0.26-0.06,0.4-0.08c-0.42-0.32-0.84-0.64-1.27-0.96c0.03-0.33,0.04-0.2,0.01-0.11
				c0.1-0.28,0.1-0.21,0.06-0.14c-0.08,0.14,0.18-0.2,0.07-0.09c-0.1,0.09,0.12-0.1,0.12-0.09c0,0.02-0.08,0.04-0.09,0.05
				c0.2-0.18,0.22-0.07,0.13-0.06c-0.03,0-0.09,0.01-0.11,0.03c0.2-0.09,0.24-0.01,0.11-0.02c-0.02,0-0.1,0.01-0.12,0
				c-0.02-0.01,0.29,0.07,0.14,0.02c-0.05-0.02-0.14-0.06-0.2-0.06c0.17,0,0.22,0.11,0.09,0.03c-0.02-0.01-0.05-0.04-0.07-0.04
				c0.15,0.02,0.18,0.17,0.08,0.05c-0.1-0.12,0.14,0.22,0.06,0.08c-0.12-0.2,0.08,0.25,0.01,0.02c-0.06-0.19,0,0.18,0.01,0.05
				c0.02-0.16,0.04-0.04-0.02,0.06c0.02-0.03,0.02-0.1,0.03-0.14c0.05-0.18,0.04,0.03-0.02,0.05c0.02-0.01,0.06-0.11,0.08-0.13
				c0.13-0.21-0.12,0.12,0.01-0.02c0.03-0.03,0.06-0.06,0.09-0.09c0.02-0.01,0.03-0.03,0.05-0.04c0.08-0.07,0.06-0.06-0.05,0.04
				c0.09-0.03,0.19-0.12,0.27-0.16c0.19-0.11-0.16,0.05-0.03,0.01c0.05-0.01,0.1-0.03,0.15-0.05c0.05-0.01,0.11-0.02,0.16-0.03
				c0.08-0.01,0.05-0.01-0.08,0.01c0.05,0,0.1-0.01,0.15-0.01c0.01,0,0.14-0.01,0.15,0.01c-0.04-0.01-0.08-0.01-0.11-0.02
				c0.05,0.01,0.1,0.02,0.15,0.03c0.18,0.03-0.01,0-0.05-0.03c0.03,0.03,0.08,0.04,0.12,0.06c0.21,0.13-0.17-0.16,0.01,0.01
				c0.02,0.02,0.04,0.04,0.06,0.06c0.11,0.11-0.15-0.23-0.03-0.03c0.01,0.03,0.03,0.05,0.04,0.08c0.09,0.15-0.08-0.25-0.03-0.08
				c0.02,0.07,0.05,0.14,0.06,0.22c0.05,0.24-0.01-0.25,0,0.01c0,0.09-0.01,0.17-0.01,0.26c0,0.13,0.05-0.28,0.01-0.1
				c-0.01,0.04-0.01,0.08-0.02,0.12c-0.02,0.08-0.05,0.15-0.07,0.22c-0.03,0.12,0.12-0.24,0.04-0.09c-0.02,0.03-0.03,0.07-0.05,0.1
				c-0.02,0.03-0.04,0.07-0.06,0.1c-0.1,0.15-0.01-0.01,0.05-0.05c-0.06,0.04-0.11,0.11-0.16,0.16c-0.13,0.13,0.21-0.13,0.06-0.04
				c-0.03,0.02-0.05,0.03-0.08,0.05c-0.12,0.07-0.11,0,0.05-0.01c-0.03,0-0.08,0.03-0.11,0.04c-0.05,0.02-0.11,0.03-0.17,0.04
				c-0.19,0.06,0.24-0.01,0.04,0c-0.1,0-0.19,0.01-0.28,0c-0.02,0-0.04,0-0.06,0c-0.11-0.01-0.08-0.01,0.1,0.01
				c-0.02-0.01-0.09-0.02-0.11-0.02c-0.09-0.02-0.19-0.05-0.28-0.08c-0.2-0.07,0.21,0.11,0.02,0.01c-0.05-0.03-0.11-0.05-0.16-0.08
				c-0.09-0.05-0.17-0.1-0.25-0.16c-0.17-0.11,0.14,0.12,0.04,0.03c-0.04-0.03-0.08-0.06-0.11-0.1c-0.07-0.07-0.14-0.14-0.21-0.22
				c-0.14-0.15,0.1,0.15,0.03,0.04c-0.04-0.06-0.08-0.11-0.11-0.17c-0.02-0.03-0.04-0.07-0.06-0.1c-0.03-0.06-0.14-0.19-0.01,0
				c-0.03-0.05-0.03-0.12-0.06-0.18c-0.05-0.12-0.01,0.23,0.01,0.01c-0.02,0.28-0.03,0.16,0,0.08c0.04-0.12-0.12,0.23-0.03,0.07
				c0.09-0.16-0.14,0.12-0.04,0.05c0.02-0.02,0.04-0.04,0.06-0.06c0.08-0.07,0.05-0.05-0.07,0.05c0.05-0.01,0.22-0.11,0.25-0.14
				c-0.13,0.11-0.17,0.06-0.07,0.04c0.06-0.01,0.11-0.03,0.17-0.05c0.03-0.01,0.09-0.01,0.12-0.02c-0.05,0.01-0.1,0.01-0.15,0.02
				c0.04,0,0.08-0.01,0.12-0.01c0.04,0,0.08,0,0.13,0c0.04,0,0.08,0,0.13,0.01c0.11,0.01,0.08,0.01-0.08-0.01
				c0.07,0.05,0.23,0.04,0.31,0.07c0.04,0.01,0.08,0.03,0.12,0.04c0.21,0.07-0.2-0.11-0.01,0c0.09,0.05,0.18,0.1,0.27,0.15
				c0.12,0.07-0.06,0.01-0.06-0.04c0,0.02,0.13,0.13,0.16,0.15c0.13,0.14-0.04,0.02-0.02-0.04c0,0.01,0.07,0.11,0.08,0.13
				c0.02,0.04,0.04,0.09,0.06,0.12c-0.13-0.18-0.06-0.17-0.04-0.06c0.01,0.04,0.02,0.09,0.03,0.13c0.05,0.19,0-0.2-0.01-0.08
				c0,0.04,0,0.09,0,0.13c0,0.04,0,0.07-0.01,0.11c0.01-0.05,0.02-0.11,0.02-0.16c-0.03,0.08-0.04,0.18-0.06,0.26
				c-0.05,0.19,0.12-0.21,0.02-0.04c-0.02,0.03-0.03,0.06-0.05,0.09c-0.01,0.01-0.02,0.03-0.03,0.04c-0.06,0.08-0.04,0.06,0.06-0.08
				c-0.02,0.01-0.06,0.06-0.07,0.07c-0.12,0.14,0.2-0.12,0.04-0.03c-0.04,0.02-0.11,0.05-0.14,0.08c0.05-0.02,0.09-0.04,0.14-0.06
				c-0.03,0.01-0.07,0.02-0.1,0.03c0.02-0.02,0.26-0.01,0.11-0.02c-0.02,0-0.04,0-0.05,0c-0.11-0.01-0.07,0,0.11,0.02
				c-0.02-0.01-0.09-0.02-0.1-0.03c-0.19-0.04,0.2,0.12,0.04,0.02c-0.03-0.02-0.06-0.04-0.09-0.05c-0.17-0.09,0.16,0.17,0.03,0.03
				c-0.03-0.03-0.07-0.09-0.11-0.12c0.13,0.08,0.12,0.17,0.05,0.05c-0.11-0.19,0.04,0.2,0.01,0.03c-0.03-0.16,0.01,0.11,0.01,0.12
				c0-0.03,0-0.07,0-0.1c-0.03,0.18-0.03,0.22-0.01,0.11c0.01-0.03,0.03-0.07,0.03-0.1c-0.08,0.17-0.09,0.21-0.04,0.12
				c0.04-0.06,0.03-0.05-0.03,0.03c-0.12,0.15-0.02,0.03,0.01,0.01c0.12-0.12-0.23,0.15-0.05,0.04c0.09-0.05,0.13-0.02-0.1,0.04
				c0.04-0.01,0.08-0.03,0.13-0.04c0.11-0.03,0.17,0.02-0.09,0.01c0.04,0,0.09-0.01,0.14-0.01c0.04,0,0.1,0.01,0.14,0.01
				c-0.08,0.01-0.26-0.05-0.08,0c0.04,0.01,0.08,0.02,0.11,0.03c0.21,0.05-0.19-0.11-0.04-0.02c0.03,0.02,0.06,0.03,0.08,0.04
				c0.03,0.02,0.05,0.03,0.08,0.05c0.08,0.06,0.05,0.04-0.09-0.07c0.02,0.02,0.05,0.05,0.07,0.06c0.02,0.02,0.04,0.05,0.06,0.07
				c-0.1-0.14-0.13-0.17-0.09-0.11c0.01,0.04,0.05,0.09,0.07,0.12c0.1,0.18-0.04-0.17,0,0.01c0,0.01,0.06,0.19,0.05,0.2
				c-0.02-0.14-0.02-0.18-0.01-0.1c0,0.03,0.01,0.07,0.01,0.1c0,0.07,0,0.14,0,0.2c0,0.02,0,0.05,0,0.07
				c-0.01,0.11-0.01,0.09,0.01-0.06c0.03,0.04-0.09,0.36-0.1,0.41c-0.01,0.05-0.03,0.09-0.05,0.13c-0.02,0.04-0.03,0.09-0.05,0.13
				c0.05-0.13,0.06-0.14,0.01-0.04c-0.07,0.12-0.13,0.25-0.2,0.37c0.46-0.12,0.91-0.24,1.37-0.36c-0.11-0.08,0.04,0.02,0.06,0.05
				c-0.02-0.03-0.08-0.07-0.11-0.1c-0.03-0.03-0.05-0.06-0.08-0.09c-0.08-0.08,0.11,0.17,0.05,0.06c-0.04-0.07-0.08-0.17-0.13-0.23
				c0.02,0.03,0.07,0.21,0.04,0.08c-0.01-0.05-0.03-0.09-0.04-0.14c-0.01-0.04-0.01-0.08-0.02-0.11c-0.03-0.12,0.01,0.21,0.01,0.09
				c0-0.09,0-0.17,0-0.26c0.01-0.14,0,0.06-0.01,0.09c0.02-0.03,0.02-0.08,0.03-0.11c0.01-0.05,0.03-0.09,0.04-0.14
				c0.03-0.11-0.11,0.23-0.02,0.05c0.24-0.46,0.14-1.11-0.36-1.37c-0.46-0.24-1.11-0.14-1.37,0.36c-0.64,1.23-0.24,2.71,0.9,3.49
				c0.45,0.3,1.11,0.08,1.37-0.36c0.39-0.66,0.69-1.45,0.65-2.23c-0.04-0.83-0.39-1.59-1.1-2.04c-0.54-0.34-1.3-0.46-1.91-0.27
				c-0.75,0.24-1.35,0.91-1.33,1.73c0.01,0.84,0.57,1.53,1.33,1.85c0.76,0.32,1.66,0.14,2.23-0.47c0.55-0.6,0.73-1.4,0.59-2.19
				c-0.13-0.73-0.67-1.38-1.31-1.73c-0.69-0.38-1.5-0.5-2.27-0.36c-0.77,0.14-1.52,0.7-1.73,1.48c-0.23,0.86,0.24,1.73,0.81,2.35
				c0.45,0.49,1.09,0.88,1.75,1.02c0.71,0.16,1.52,0.1,2.15-0.3c0.55-0.35,0.94-0.9,1.12-1.52c0.37-1.27-0.21-2.78-1.57-3.13
				c-1.71-0.44-3.78,0.95-3.42,2.84c0.26,1.38,2.24,1.9,3.21,0.94c0.3-0.3,0.42-0.66,0.45-1.07c0.03-0.31-0.16-0.61-0.39-0.79
				c-0.27-0.21-0.54-0.23-0.87-0.18c-0.42,0.06-0.81,0.21-1.14,0.48c-0.4,0.33-0.6,0.87-0.47,1.38c0.26,1.07,1.8,1.54,2.4,0.47
				c0.26-0.46,0.13-1.11-0.36-1.37C162.37,88.27,161.74,88.39,161.47,88.88L161.47,88.88z"/>
		</g>
	</g>
	<g>
		<g>
			<g>
				<path d="M171.88,75.15c-1.62,2.47-2.87,5.37-3.25,8.31c-0.16,1.26-0.03,2.63,0.88,3.59c0.8,0.84,1.99,1.17,3.06,0.68
					c0.58-0.27,0.08-1.13-0.5-0.86c-0.93,0.43-1.94-0.37-2.28-1.21c-0.44-1.11-0.16-2.38,0.11-3.49c0.57-2.32,1.54-4.52,2.85-6.51
					C173.09,75.11,172.23,74.61,171.88,75.15L171.88,75.15z"/>
			</g>
		</g>
		<g>
			<g>
				<path d="M174.77,78.53c-0.41,2.27-0.57,4.58-0.43,6.88c0.04,0.64,1.04,0.64,1,0c-0.13-2.21,0-4.43,0.4-6.62
					C175.85,78.16,174.89,77.89,174.77,78.53L174.77,78.53z"/>
			</g>
		</g>
		<g>
			<g>
				<path d="M178.1,85.5c-0.86,1.64-1.72,3.27-2.58,4.91c-0.3,0.57,0.56,1.08,0.86,0.5c0.86-1.64,1.72-3.27,2.58-4.91
					C179.26,85.44,178.4,84.93,178.1,85.5L178.1,85.5z"/>
			</g>
		</g>
		<g>
			<g>
				<path d="M181.4,78.13c-0.38,1.9-0.48,3.85-0.28,5.78c0.03,0.27,0.21,0.5,0.5,0.5c0.25,0,0.53-0.23,0.5-0.5
					c-0.19-1.84-0.12-3.7,0.24-5.51C182.49,77.76,181.53,77.5,181.4,78.13L181.4,78.13z"/>
			</g>
		</g>
		<g>
			<g>
				<path d="M183.34,76.91c0.71,2.04,1.1,4.16,1.12,6.32c0.01,1.05-0.06,2.11-0.23,3.15c-0.1,0.62-0.31,1.84-1.12,1.88
					c-0.64,0.03-0.64,1.03,0,1c2.2-0.11,2.25-3.36,2.33-4.93c0.12-2.61-0.28-5.23-1.14-7.69C184.09,76.04,183.12,76.3,183.34,76.91
					L183.34,76.91z"/>
			</g>
		</g>
	</g>
</g>
<g>
	<g>
		<path d="M96.2,141.25c0.63-0.25,1.25-0.5,1.88-0.75c0.13-0.05,0.23-0.11,0.3-0.23c0.06-0.11,0.09-0.27,0.05-0.39
			c-0.08-0.23-0.35-0.45-0.62-0.35c-0.63,0.25-1.25,0.5-1.88,0.75c-0.13,0.05-0.23,0.11-0.3,0.23c-0.06,0.11-0.09,0.27-0.05,0.39
			C95.66,141.14,95.94,141.35,96.2,141.25L96.2,141.25z"/>
	</g>
</g>
<g>
	<g>
		<g>
			<path d="M115.57,130.82c0.04,0.01,0.08,0.03,0.12,0.04c0.14,0.02-0.13-0.08-0.01-0.01c0.07,0.04,0.14,0.09,0.22,0.12
				c0.09,0.05-0.02-0.02-0.04-0.03c0.04,0.04,0.08,0.07,0.12,0.11c0.03,0.03,0.06,0.06,0.09,0.09c0.1,0.08-0.07-0.12,0-0.01
				c0.05,0.08,0.1,0.17,0.15,0.25c-0.09-0.14-0.01-0.02,0.02,0.07c0.03,0.1,0.02,0.23,0.02,0.06c0,0.05,0,0.11,0,0.17
				c0.01,0.17-0.03-0.02,0.02-0.06c-0.02,0.02-0.03,0.14-0.04,0.17c-0.03,0.15,0.11-0.17,0,0c-0.03,0.04-0.14,0.17-0.03,0.07
				c0.12-0.12-0.07,0.06-0.1,0.09c0,0-0.06,0.06-0.07,0.06c-0.01,0,0.18-0.12,0.09-0.07c-0.06,0.04-0.12,0.08-0.18,0.11
				c-0.04,0.02-0.14,0.05-0.16,0.08c0.01-0.02,0.23-0.08,0.07-0.03c-0.04,0.01-0.08,0.03-0.12,0.04c-0.06,0.02-0.12,0.03-0.18,0.04
				c-0.17,0.05,0.22-0.01-0.01,0c-0.06,0-0.12,0.01-0.18,0c-0.03,0-0.06,0-0.09,0c-0.19,0,0.16,0.04,0.06,0.01
				c-0.05-0.02-0.12-0.02-0.17-0.04c-0.03-0.01-0.06-0.02-0.08-0.03c-0.17-0.04,0.09,0.02,0.08,0.03c0,0.01-0.14-0.08-0.15-0.08
				c-0.03-0.01-0.1-0.08,0.01,0.01c0.13,0.11-0.01-0.01-0.03-0.04c-0.15-0.16,0.01,0.01,0,0.02c-0.01,0-0.16-0.29-0.08-0.12
				c0.07,0.13-0.01-0.07-0.02-0.11c-0.05-0.1,0.03,0.1,0.01,0.1c0,0-0.01-0.16-0.01-0.17c0-0.01,0-0.1,0-0.1
				c0.01,0-0.05,0.21-0.01,0.1c0.02-0.07,0.04-0.16,0.06-0.23c0.04-0.17-0.08,0.14,0-0.02c0.05-0.08,0.09-0.16,0.14-0.24
				c0.09-0.15-0.11,0.11,0.02-0.02c0.05-0.05,0.1-0.1,0.15-0.15c0.03-0.03,0.07-0.06,0.11-0.09c-0.01,0.01-0.16,0.09-0.06,0.05
				c0.07-0.03,0.14-0.08,0.21-0.12c0.17-0.1-0.05,0.03-0.05,0.02c0-0.01,0.09-0.03,0.1-0.03c0.05-0.01,0.24-0.09,0.1-0.03
				c-0.2,0.08,0.14-0.04,0.13,0.01c0,0.02-0.21-0.05-0.1-0.01c0.04,0.01,0.09,0.02,0.13,0.03c0.01,0,0.02,0.01,0.03,0.01
				c0.09,0.03,0.09,0.03,0,0c-0.05,0.02-0.09-0.05-0.01,0c0.02,0.02,0.05,0.04,0.08,0.05c0.1,0.04-0.1-0.06-0.08-0.07
				c0.03-0.01,0.12,0.12,0.15,0.14c0.1,0.06-0.09-0.09-0.06-0.09c0.01,0,0.06,0.09,0.07,0.1c0.03,0.06,0.09,0.23,0.06,0.09
				c-0.04-0.16,0.01,0.04,0.02,0.08c0.02,0.07,0.03,0.14,0.05,0.21c0.04,0.16,0-0.22,0,0.01c0,0.07,0.01,0.14,0,0.21
				c0,0.03-0.01,0.06-0.01,0.09c0,0.1,0.01-0.11,0.02-0.11c-0.03,0.04-0.12,0.36-0.11,0.41c0-0.01,0.09-0.18,0.04-0.1
				c-0.02,0.03-0.04,0.07-0.06,0.11c-0.02,0.04-0.14,0.19-0.04,0.07c0.11-0.13-0.06,0.05-0.08,0.07c-0.09,0.11,0.17-0.1-0.01,0.01
				c-0.03,0.01-0.05,0.03-0.08,0.05c-0.12,0.08,0.04-0.08,0.07-0.03c-0.01-0.01-0.19,0.07-0.19,0.06c-0.01-0.02,0.21,0,0.1-0.01
				c-0.03,0-0.07,0-0.1,0c0.01,0-0.13,0-0.13-0.01c0-0.02,0.23,0.06,0.07,0c-0.02-0.01-0.19-0.04-0.19-0.06
				c0-0.02,0.19,0.11,0.06,0.02c-0.03-0.02-0.06-0.03-0.09-0.05c-0.04-0.03-0.18-0.15-0.09-0.06c0.1,0.1,0-0.01-0.03-0.03
				c-0.03-0.03-0.07-0.07-0.1-0.1c-0.02-0.02-0.04-0.05-0.07-0.08c0.01,0.01,0.1,0.16,0.05,0.06c-0.04-0.07-0.09-0.13-0.13-0.21
				c-0.02-0.03-0.03-0.06-0.05-0.09c-0.07-0.1,0.04,0.09,0.03,0.08c-0.04-0.02-0.06-0.21-0.08-0.26c-0.05-0.17,0,0.18,0,0
				c0-0.04,0-0.09,0-0.13c0-0.07,0.04-0.09-0.01,0c-0.07,0.12,0.03-0.03,0.03-0.09c0.01-0.12-0.03,0.1-0.04,0.08
				c-0.01-0.04,0.08-0.11,0.08-0.15c0.01-0.08-0.02,0.03-0.05,0.06c0.03-0.03,0.05-0.05,0.07-0.08c0.02-0.03,0.06-0.05,0.08-0.07
				c-0.12,0.13-0.09,0.06-0.03,0.03c0.06-0.03,0.13-0.07,0.19-0.1c-0.19,0.1,0.01,0.01,0.11-0.01c0.18-0.05-0.16-0.01,0.02,0
				c0.03,0,0.08,0.01,0.11,0c0.12-0.03-0.17-0.05-0.05-0.01c0.04,0.01,0.25,0.04,0.12,0.02c-0.11-0.02-0.04-0.02,0.01,0.01
				c0.05,0.03,0.14,0.14,0.07,0.04c-0.06-0.09-0.04-0.01,0,0.02c-0.02-0.01-0.08-0.14-0.03-0.04c0.02,0.04,0.05,0.08,0.07,0.12
				c-0.02-0.04-0.05-0.16,0,0.02c0.02,0.06,0.04,0.27,0.03,0.1c0.01,0.12,0.01,0.23,0,0.35c-0.01,0.19,0.04-0.12-0.01,0.06
				c-0.02,0.08-0.04,0.16-0.07,0.24c-0.05,0.18-0.01,0.03,0.01-0.01c-0.02,0.04-0.04,0.07-0.06,0.11c-0.05,0.08-0.1,0.16-0.15,0.24
				c0.12-0.17-0.04,0.03-0.08,0.07c-0.03,0.03-0.06,0.05-0.09,0.08c0.01-0.01,0.14-0.08,0.04-0.04c-0.08,0.04-0.26,0.12-0.08,0.06
				c-0.04,0.01-0.08,0.03-0.11,0.04c-0.02,0.01-0.2,0.05-0.06,0.02c0.14-0.03-0.03,0.01-0.06,0c-0.07-0.04,0.04,0.01,0.08,0.02
				c-0.08-0.02-0.15-0.04-0.22-0.06c0.04,0.01,0.18,0.1,0.03,0.01c-0.02-0.02-0.07-0.05-0.1-0.06c-0.08-0.02,0.02,0.02,0.05,0.04
				c-0.04-0.03-0.08-0.07-0.11-0.1c-0.04-0.04-0.07-0.07-0.1-0.11c0.02,0.02,0.12,0.09,0.05,0.05c-0.03-0.02-0.04-0.07-0.06-0.1
				c0.02,0.02,0.04,0.17,0.03,0.07c0-0.03-0.02-0.08-0.03-0.1c-0.07-0.21,0.02,0.06,0,0.05c-0.01,0,0-0.1,0-0.11
				c0-0.14-0.03,0.18,0,0.05c0.03-0.11-0.03,0.06-0.04,0.07c-0.01,0.01,0.06-0.11,0.06-0.11c0,0-0.13,0.16-0.06,0.08
				c0-0.01,0.07-0.06,0.07-0.07c0.01,0.01-0.18,0.11-0.08,0.06c0.03-0.02,0.08-0.04,0.11-0.06c0.08-0.06-0.08,0.05-0.1,0.04
				c0,0,0.11-0.04,0.12-0.04c0.03-0.01,0.06-0.01,0.09-0.02c0.12-0.04-0.2,0-0.07,0.01c0.06,0.01,0.13,0,0.2,0
				c0.23,0-0.13-0.04,0.03,0.01c0.03,0.01,0.07,0.02,0.1,0.03c0.02,0.01,0.04,0.01,0.06,0.02c0.05,0.02,0.04,0.01-0.03-0.01
				c-0.07,0.01-0.07-0.04,0,0c0.04,0.02,0.08,0.04,0.12,0.06c0.03,0.02,0.05,0.04,0.08,0.05c0.1,0.05-0.09-0.04-0.07-0.05
				c0,0,0.14,0.13,0.14,0.14c0,0-0.11-0.19-0.03-0.02c0.03,0.05,0.06,0.1,0.08,0.16c-0.08-0.15,0,0.03,0.02,0.09
				c0.02,0.06,0.03,0.11,0.04,0.17c0-0.02-0.01-0.16-0.01-0.05c0,0.09,0.01,0.18,0,0.27c0,0.03-0.01,0.22,0,0.09
				c0.01-0.11-0.01,0.07-0.02,0.09c-0.04,0.2-0.1,0.39-0.17,0.58c0.06-0.15-0.03,0.05-0.06,0.1c-0.06,0.11-0.12,0.21-0.19,0.31
				c-0.04,0.05-0.17,0.2-0.05,0.08c-0.07,0.08-0.14,0.15-0.21,0.23c-0.03,0.03-0.21,0.17-0.13,0.12c0.09-0.06-0.03,0.02-0.04,0.02
				c-0.06,0.04-0.12,0.07-0.19,0.1c-0.1,0.06,0.03-0.02,0.04-0.02c-0.04,0.01-0.09,0.02-0.12,0.04c-0.09,0.04,0.03,0,0.06,0
				c-0.05,0.01-0.11,0.01-0.16,0.01c-0.03,0-0.07-0.01-0.11-0.01c-0.12,0.01,0.1,0,0.09,0.01c0,0-0.09-0.02-0.1-0.02
				c-0.2-0.07,0.01,0.03,0.02,0.02c-0.01,0.01-0.16-0.09-0.17-0.1c-0.14-0.08,0.13,0.14-0.04-0.03c-0.05-0.05-0.09-0.11-0.14-0.15
				c-0.08-0.07,0.04,0.05,0.05,0.06c-0.03-0.05-0.07-0.1-0.1-0.15c-0.04-0.06-0.07-0.13-0.11-0.19c-0.02-0.03-0.03-0.07-0.05-0.1
				c0.01,0.03,0.07,0.2,0.01,0.03c-0.06-0.17-0.11-0.34-0.15-0.52c-0.02-0.1-0.03-0.22-0.01-0.04c-0.01-0.08-0.02-0.15-0.02-0.23
				c-0.01-0.18,0-0.36,0.01-0.54c0.02-0.2,0.01-0.05,0-0.01c0.01-0.05,0.01-0.09,0.02-0.14c0.02-0.09,0.04-0.18,0.06-0.27
				c0.03-0.1,0.05-0.21,0.09-0.31c0.01-0.04,0.03-0.09,0.05-0.13c0.04-0.14-0.06,0.12,0-0.01c0.09-0.18,0.18-0.34,0.29-0.51
				c-0.1,0.15,0.06-0.07,0.1-0.11c0.05-0.05,0.25-0.2,0.09-0.1c0.08-0.06,0.17-0.11,0.26-0.16c0.04-0.02,0.08-0.04,0.12-0.06
				c-0.02,0.01-0.14,0.04-0.04,0.02c0.1-0.02,0.19-0.06,0.29-0.08c0.02-0.01,0.15-0.01,0.03-0.01c-0.13,0.01,0.05,0,0.08,0
				c0.04,0,0.08,0,0.13,0c0.19,0,0.02,0.01-0.02,0c0.08,0.02,0.16,0.04,0.24,0.07c-0.02-0.01-0.14-0.08-0.05-0.02
				c0.04,0.03,0.1,0.06,0.14,0.09c0.11,0.06-0.05-0.03-0.06-0.05c0.01,0.01,0.1,0.08,0.1,0.1c0,0.01-0.1-0.17-0.05-0.07
				c0.02,0.04,0.05,0.08,0.07,0.12c0.01,0.01,0.05,0.08,0.05,0.09c0,0.02-0.05-0.2-0.04-0.08c0,0.03,0.08,0.21,0.06,0.24
				c-0.02,0.02,0-0.22-0.02-0.09c-0.01,0.04,0,0.09,0,0.14c0,0.01,0,0.1-0.01,0.1c-0.03,0,0.07-0.26,0-0.07
				c-0.01,0.02-0.03,0.07-0.03,0.1c0,0.12,0.01-0.1,0.04-0.09c0,0-0.04,0.08-0.05,0.09c-0.07,0.08,0.07-0.06,0.06-0.07
				c-0.01-0.01-0.08,0.1-0.09,0.1c0,0,0.21-0.14,0.04-0.03c0.17-0.05,0.34-0.09,0.5-0.14c-0.13,0-0.04-0.01,0.03,0.01
				c0.1,0.05,0.13,0.06,0.06,0.02c-0.05-0.03-0.04-0.03,0.01,0.01c0.01,0.01,0.14,0.16,0.08,0.07c-0.03-0.05-0.03-0.05,0,0.01
				c0.03,0.05,0.04,0.1,0.04,0.16c0,0.08-0.03,0.13-0.06,0.21c0.03-0.1,0.04-0.06-0.02,0.01c-0.03,0.02-0.05,0.04-0.08,0.06
				c0.08-0.05,0.09-0.05,0.02-0.02c-0.04,0-0.27,0.03-0.08,0.04c-0.24-0.1-0.47-0.2-0.71-0.29c0.04,0.04,0.08,0.07,0.11,0.11
				c-0.07-0.1-0.08-0.11-0.01-0.02c0.05,0.09,0.11,0.18,0.15,0.28c-0.11-0.23,0.01,0.09,0.02,0.13c0.02,0.11,0.02,0.1,0-0.03
				c0.01,0.05,0.01,0.11,0.01,0.16c0,0.11,0,0.21-0.01,0.32c0.03-0.27-0.03,0.07-0.04,0.12c-0.04,0.11-0.03,0.1,0.02-0.02
				c-0.02,0.05-0.05,0.09-0.07,0.14c-0.03,0.05-0.05,0.09-0.08,0.13c0.08-0.1,0.08-0.1,0.01-0.02c0.47,0,0.94,0,1.41,0
				c-0.04-0.04-0.08-0.08-0.12-0.13c0.07,0.09,0.07,0.08,0.01-0.01c-0.05-0.1-0.06-0.1-0.01,0c-0.02-0.05-0.04-0.11-0.06-0.17
				s-0.03-0.11-0.04-0.17c0.02,0.12,0.02,0.12,0.01,0c0-0.06,0-0.12,0.01-0.17c-0.02,0.12-0.01,0.12,0.01,0.01
				c0.12-0.51-0.16-1.11-0.7-1.23c-0.51-0.12-1.1,0.15-1.23,0.7c-0.22,0.94,0.03,1.89,0.71,2.59c0.36,0.37,1.06,0.41,1.41,0
				c0.99-1.15,1.03-2.89,0-4.03c-0.71-0.79-2.01-0.32-2.42,0.56c-0.42,0.9-0.02,1.93,0.9,2.32c0.49,0.21,0.98,0.18,1.41-0.16
				c0.32-0.25,0.52-0.57,0.67-0.94c0.25-0.63,0.15-1.36-0.14-1.97c-0.69-1.44-2.62-1.62-3.87-0.86c-1.25,0.76-1.84,2.29-1.86,3.7
				c-0.02,1.24,0.5,2.65,1.6,3.31c0.61,0.36,1.39,0.44,2.05,0.19c0.74-0.28,1.32-0.83,1.74-1.49c0.79-1.24,0.99-3.05-0.08-4.2
				c-0.88-0.95-2.61-1.09-3.54-0.14c-1.2,1.22-0.35,3.12,1.11,3.63c1.5,0.53,2.96-0.67,3.34-2.08c0.2-0.75,0.14-1.64-0.3-2.3
				c-0.43-0.64-1.15-1.01-1.92-0.99c-1.38,0.04-2.6,1.19-2.45,2.62c0.14,1.35,1.22,2.54,2.61,2.64c2.69,0.2,3.49-3.92,1.24-5.08
				c-1.28-0.66-2.74-0.02-3.47,1.14c-0.71,1.13-0.51,2.67,0.63,3.43c0.91,0.61,2.26,0.53,3.15-0.09c0.5-0.35,0.91-0.82,1.07-1.43
				c0.18-0.69,0.04-1.47-0.34-2.07c-0.4-0.64-1.02-1.11-1.74-1.31c-0.5-0.14-1.11,0.17-1.23,0.7
				C114.75,130.12,115.03,130.67,115.57,130.82L115.57,130.82z"/>
		</g>
	</g>
	<g>
		<g>
			<g>
				<path d="M85,136.1c-2.03,2.12-3.13,5.05-3.03,7.98c0.05,1.33,0.27,2.91,0.99,4.06c0.62,0.99,1.97,1.93,3.01,0.95
					c0.47-0.44-0.24-1.15-0.71-0.71c-0.39,0.37-0.94-0.13-1.21-0.44c-0.39-0.44-0.57-1.02-0.73-1.57c-0.31-1.1-0.42-2.24-0.34-3.38
					c0.16-2.3,1.12-4.52,2.72-6.18C86.16,136.34,85.45,135.63,85,136.1L85,136.1z"/>
			</g>
		</g>
		<g>
			<g>
				<path d="M88.8,137.79c0.08,2.75,0.16,5.5,0.25,8.25c0.02,0.64,1.02,0.64,1,0c-0.08-2.75-0.16-5.5-0.25-8.25
					C89.78,137.15,88.78,137.15,88.8,137.79L88.8,137.79z"/>
			</g>
		</g>
		<g>
			<g>
				<path d="M92.25,144.42c-0.58,1.77-1.15,3.54-1.73,5.3c-0.2,0.61,0.77,0.88,0.96,0.27c0.58-1.77,1.15-3.54,1.73-5.3
					C93.41,144.08,92.44,143.81,92.25,144.42L92.25,144.42z"/>
			</g>
		</g>
		<g>
			<g>
				<path d="M99.46,136.29c0,3.13,0,6.26,0,9.39c0,0.64,1,0.64,1,0c0-3.13,0-6.26,0-9.39C100.46,135.65,99.46,135.65,99.46,136.29
					L99.46,136.29z"/>
			</g>
		</g>
		<g>
			<g>
				<path d="M102.76,135.3c0.83,2.43,1.65,4.96,1.47,7.56c-0.15,2.19-1.07,4.25-2.77,5.67c-0.49,0.41,0.22,1.12,0.71,0.71
					c1.8-1.5,2.79-3.69,3.03-6c0.29-2.8-0.58-5.58-1.48-8.2C103.52,134.43,102.55,134.69,102.76,135.3L102.76,135.3z"/>
			</g>
		</g>
	</g>
</g>
</svg>
