<?xml version="1.0" encoding="utf-8"?>
<!-- Generator: Adobe Illustrator 23.1.1, SVG Export Plug-In . SVG Version: 6.00 Build 0)  -->
<svg version="1.1" id="Layer_1" xmlns="http://www.w3.org/2000/svg" xmlns:xlink="http://www.w3.org/1999/xlink" x="0px" y="0px"
	 viewBox="0 0 288 216" style="enable-background:new 0 0 288 216;" xml:space="preserve">
<style type="text/css">
	.st0{fill:#A7A9AC;}
	.st1{fill:none;stroke:#000000;stroke-miterlimit:10;}
	.st2{fill:#ED1C24;}
</style>
<g>
	<g>
		<g>
			<path class="st0" d="M270.4,120.69c4.93-3.79,9.75-7.73,14.43-11.83c0.57-0.5,1.13-1,1.7-1.5c0.5-0.45,1.14-0.9,1.33-1.59
				c0.41-1.42-1.16-2.21-2.18-2.77c-2.09-1.14-4.37-1.85-6.58-2.69c-2.34-0.88-4.66-1.95-6.28-3.91c-0.07,0.52-0.13,1.05-0.2,1.57
				c0.37-0.21,0.82-0.2,1.14,0.09c0.95,0.86,2.37-0.55,1.41-1.41c-0.99-0.9-2.4-1.08-3.57-0.41c-0.6,0.34-0.6,1.09-0.2,1.57
				c2.83,3.43,7.41,4.36,11.32,5.99c0.99,0.41,1.96,0.89,2.86,1.47c0.08,0.05,0.21,0.17,0.3,0.19c0.01,0.01,0.03,0.02,0.04,0.03
				c0.13,0.12,0.15,0,0.06-0.35c-0.13,0-0.6,0.56-0.69,0.64c-0.56,0.5-1.13,1.01-1.7,1.5c-2.15,1.89-4.34,3.75-6.55,5.58
				c-2.52,2.08-5.07,4.11-7.65,6.1c-0.43,0.33-0.66,0.86-0.36,1.37C269.28,120.76,269.97,121.02,270.4,120.69L270.4,120.69z"/>
		</g>
	</g>
	<g>
		<g>
			<path class="st0" d="M16.8,90.36c-4.28,1.66-8.4,3.72-12.26,6.21c-0.95,0.61-1.96,1.21-2.82,1.95c-0.96,0.82-0.83,2,0,2.86
				c0.82,0.85,1.77,1.61,2.65,2.4c0.9,0.8,1.81,1.6,2.72,2.38c2.13,1.84,4.3,3.64,6.51,5.39c0.42,0.34,1,0.41,1.41,0
				c0.35-0.35,0.42-1.08,0-1.41c-3.46-2.76-6.84-5.62-10.13-8.58c-0.39-0.35-0.78-0.7-1.16-1.05c-0.16-0.15-0.39-0.46-0.59-0.55
				c-0.25-0.11,0.09-0.05-0.15,0.02c-0.07,0.14-0.06,0.16,0.02,0.06c0.03-0.03,0.06-0.06,0.1-0.09c0.87-0.54,1.68-1.17,2.54-1.72
				c1.73-1.11,3.52-2.15,5.35-3.09c2.06-1.06,4.17-2.02,6.34-2.85c0.5-0.19,0.85-0.67,0.7-1.23C17.9,90.57,17.31,90.16,16.8,90.36
				L16.8,90.36z"/>
		</g>
	</g>
	<g>
		<g>
			<path class="st0" d="M1.94,101.47c17.63,4.23,35.84,4.16,53.86,4.04c18.73-0.13,37.47-0.26,56.2-0.39
				c37.36-0.26,74.74-0.91,112.1-0.52c20.83,0.22,41.68,0.98,62.42,3.03c0.4,0.04,0.9-0.34,0.96-0.73c0.34-1.94-1.04-3.64-3.04-3.61
				c-1.29,0.02-1.29,2.02,0,2c0.57-0.01,1.23,0.39,1.11,1.08c0.32-0.24,0.64-0.49,0.96-0.73c-37.05-3.67-74.32-3.19-111.5-2.94
				c-37.28,0.26-74.56,0.51-111.84,0.77c-20.25,0.14-40.86,0.84-60.71-3.92C1.22,99.24,0.69,101.17,1.94,101.47L1.94,101.47z"/>
		</g>
	</g>
</g>
<g>
	<g>
		<g>
			<path class="st0" d="M125.96,44.53c1.94-4.3,4.26-8.42,6.9-12.32c0.67-0.99,1.37-1.97,2.08-2.93c0.23-0.3,0.57-1.02,0.93-1.18
				c0.19-0.09,0.35,0.17,0.54,0.39c1.66,1.95,3.24,3.96,4.85,5.94c1.83,2.24,3.65,4.47,5.48,6.71c0.42,0.52,1.26,0.3,1.57-0.2
				c0.37-0.6,0.74-1.21,1.12-1.81c0.68-1.1-1.05-2.1-1.73-1.01c-0.37,0.6-0.74,1.21-1.12,1.81c0.52-0.07,1.05-0.13,1.57-0.2
				c-1.77-2.17-3.55-4.34-5.32-6.52c-0.86-1.05-1.72-2.11-2.58-3.16c-0.85-1.05-1.66-2.17-2.58-3.15c-0.76-0.82-1.91-1.15-2.88-0.47
				c-0.48,0.33-0.8,0.83-1.15,1.29c-0.4,0.53-0.79,1.06-1.17,1.59c-1.52,2.12-2.95,4.31-4.27,6.56c-1.45,2.48-2.77,5.04-3.96,7.66
				c-0.22,0.49-0.14,1.08,0.36,1.37C125.02,45.14,125.73,45.03,125.96,44.53L125.96,44.53z"/>
		</g>
	</g>
	<g>
		<g>
			<path class="st0" d="M128,164.56c1.84,3.25,4.07,6.29,6.59,9.05c0.6,0.66,1.2,1.4,1.91,1.93c0.81,0.61,1.75,0.47,2.49-0.16
				c1.51-1.28,2.87-2.82,4.24-4.24c1.6-1.66,3.16-3.34,4.69-5.06c0.85-0.96-0.56-2.38-1.41-1.41c-1.53,1.72-3.09,3.41-4.69,5.06
				c-0.83,0.86-1.67,1.71-2.52,2.56c-0.4,0.4-0.79,0.79-1.19,1.18c-0.15,0.15-0.42,0.32-0.54,0.5c0.2,0.06,0.24,0.05,0.1-0.02
				c-0.07-0.06-0.14-0.13-0.2-0.2c-3.03-3.02-5.64-6.46-7.75-10.19C129.09,162.43,127.37,163.44,128,164.56L128,164.56z"/>
		</g>
	</g>
	<g>
		<g>
			<path class="st0" d="M134.69,27.48c-0.4,19.05-0.57,38.1-0.49,57.15c0.08,18.96,0.39,37.91,0.95,56.86
				c0.31,10.69,0.7,21.38,1.17,32.07c0.06,1.28,2.06,1.29,2,0c-0.83-19.04-1.41-38.09-1.76-57.14c-0.34-18.95-0.45-37.91-0.31-56.86
				c0.08-10.69,0.23-21.38,0.45-32.07C136.72,26.19,134.72,26.19,134.69,27.48L134.69,27.48z"/>
		</g>
	</g>
</g>
<line class="st1" x1="278.19" y1="73" x2="277.82" y2="73.37"/>
<g>
	<g>
		<g>
			<path class="st2" d="M17.85,87.82c1.29,0,1.29-2,0-2C16.56,85.82,16.56,87.82,17.85,87.82L17.85,87.82z"/>
		</g>
	</g>
	<g>
		<g>
			<path class="st2" d="M134.28,56.85c3.79-0.63,7.63,1.11,10.34,3.68c2.91,2.76,4.7,6.49,6,10.24c2.87,8.29,4.04,17.09,4.75,25.8
				c0.72,8.81,0.97,17.66,1.91,26.45c0.47,4.39,1.1,8.78,2.04,13.1c0.88,4.03,1.96,8.12,3.8,11.83c1.69,3.41,4.21,6.51,7.68,8.21
				c3.34,1.63,7.32,1.99,10.64,0.13c3.35-1.87,5.42-5.41,7.12-8.72c1.75-3.41,3.16-7,4.28-10.66c2.26-7.39,3.38-15.07,4.24-22.72
				c0.87-7.75,1.45-15.53,2.6-23.24c1.13-7.58,2.82-15.17,5.95-22.19c0.76-1.71,1.57-3.42,2.56-5.01c0.91-1.45,2.09-2.95,3.73-3.6
				c3.51-1.39,6.97,1.67,8.73,4.43c1.57,2.45,2.43,5.28,2.9,8.13c0.52,3.14,0.65,6.67,0.94,9.96c0.67,7.5,1.37,14.99,2.29,22.46
				c0.7,5.64,1.5,11.27,2.68,16.83c0.91,4.28,2.05,8.52,3.62,12.6c1.53,3.96,3.45,7.78,5.74,11.36c3.05,4.79,7.87,10.76,14.27,9.86
				c3.45-0.48,6.22-2.95,8.39-5.51c1.16-1.36,2.27-2.78,3.23-4.29c1.63-2.56,2.75-5.41,3.58-8.32c1.31-4.63,1.97-9.43,2.52-14.2
				c0.89-7.83,1.35-15.71,1.73-23.58c0.17-3.54,0.31-7.07,0.42-10.61c0.04-1.29-1.96-1.29-2,0c-0.25,7.98-0.62,15.97-1.21,23.94
				c-0.45,6.09-0.99,12.2-2.09,18.21c-0.37,2-0.8,4-1.37,5.95c-0.23,0.81-0.49,1.61-0.77,2.4c-0.13,0.36-0.27,0.72-0.41,1.08
				c-0.04,0.09-0.22,0.53-0.14,0.35c-0.07,0.17-0.14,0.33-0.22,0.49c-1.34,2.99-3.24,5.62-5.42,7.99c-2.14,2.34-4.97,4.55-8.34,4.14
				c-2.82-0.35-5.18-2.33-7.02-4.36c-3.23-3.54-5.65-7.97-7.64-12.31c-1.65-3.61-2.96-7.58-3.96-11.53
				c-1.28-5.01-2.16-10.11-2.89-15.22c-0.97-6.76-1.67-13.56-2.31-20.36c-0.4-4.25-0.78-8.5-1.15-12.75
				c-0.23-2.63-0.43-5.24-1.12-7.79c-0.83-3.1-2.25-6.13-4.51-8.44c-2.64-2.7-6.73-4.35-10.23-2.25c-3.15,1.89-4.83,5.72-6.26,8.94
				c-1.55,3.48-2.79,7.09-3.76,10.77c-1.99,7.5-2.94,15.23-3.75,22.94c-0.81,7.7-1.43,15.43-2.73,23.06
				c-1.28,7.49-3.23,14.95-6.68,21.75c-1.63,3.21-3.56,6.82-6.93,8.49c-3.24,1.61-7.13,0.61-9.98-1.34
				c-3.16-2.17-5.12-5.76-6.43-9.27c-1.48-3.99-2.42-8.21-3.16-12.4c-1.54-8.65-1.97-17.44-2.51-26.2
				c-0.53-8.74-1.14-17.53-2.95-26.12c-0.88-4.18-2-8.35-3.69-12.28c-1.57-3.67-3.81-7.09-7.06-9.49c-3.03-2.24-6.8-3.38-10.55-2.75
				C132.49,55.13,133.02,57.06,134.28,56.85L134.28,56.85z"/>
		</g>
	</g>
	<g>
		<g>
			<path class="st2" d="M265.36,96.47c1.13-2.01,2.37-3.96,3.72-5.83c0.51-0.71,1.09-1.7,1.94-2.05c0.77-0.32,1.61,0.11,2.18,0.62
				c1.48,1.32,1.8,3.45,2.72,5.14c0.45,0.83,1.04,1.64,1.92,2.05c0.86,0.4,1.88,0.4,2.55-0.35c0.85-0.96-0.56-2.38-1.41-1.41
				c-0.24,0.27,0.04,0.06-0.07,0.04c-0.17-0.03-0.36-0.14-0.49-0.25c-0.34-0.27-0.57-0.71-0.77-1.08c-0.48-0.88-0.8-1.84-1.19-2.75
				c-0.75-1.77-2.05-3.56-4.04-4.01c-2.29-0.51-3.72,1.21-4.93,2.87c-1.41,1.92-2.69,3.93-3.86,6.01
				C263,96.59,264.73,97.6,265.36,96.47L265.36,96.47z"/>
		</g>
	</g>
	<g>
		<g>
			<path class="st2" d="M17.98,86.78c-0.05-2.93,0.54-5.87,1.8-8.53c0.06-0.13,0.44-0.66,0.1-0.51c-0.14-0.02-0.12,0.01,0.05,0.08
				c0.04,0.03,0.08,0.06,0.12,0.1c0.17,0.14,0.33,0.31,0.5,0.46c0.58,0.54,1.16,1.08,1.74,1.62c1.21,1.13,2.42,2.25,3.63,3.38
				c0.94,0.88,2.36-0.53,1.41-1.41c-1.4-1.31-2.8-2.61-4.21-3.92c-0.69-0.64-1.37-1.46-2.18-1.95c-0.85-0.53-1.86-0.4-2.47,0.42
				c-0.51,0.68-0.82,1.59-1.12,2.38c-0.31,0.82-0.57,1.66-0.78,2.51c-0.42,1.76-0.62,3.57-0.59,5.38C16,88.07,18,88.07,17.98,86.78
				L17.98,86.78z"/>
		</g>
	</g>
	<g>
		<g>
			<path class="st2" d="M134.83,55.16c-6.59-1.32-11.62,4.54-14.01,9.96c-1.37,3.1-2.27,6.38-3.02,9.68
				c-0.78,3.44-1.36,6.92-1.82,10.41c-1.85,14.11-1.54,28.39-3.16,42.52c-0.4,3.49-0.93,6.96-1.64,10.4
				c-0.67,3.26-1.44,6.56-2.79,9.62c-1.21,2.74-2.92,5.42-5.57,6.95c-2.32,1.34-5.12,1.56-7.33-0.13c-2.41-1.84-3.74-4.94-4.91-7.65
				c-1.2-2.77-2.17-5.64-2.98-8.55c-1.69-6.04-2.68-12.26-3.39-18.49c-1.44-12.63-1.78-25.4-4.14-37.91
				c-1.14-6.04-2.78-12.02-5.31-17.63c-1.12-2.48-2.8-5.53-5.71-6.16c-3.17-0.68-5.95,1.67-7.61,4.12
				c-1.68,2.48-2.55,5.46-3.13,8.37c-0.65,3.28-1,6.62-1.34,9.94c-0.74,7.06-1.18,14.15-1.73,21.23
				c-0.55,7.08-1.21,14.17-2.43,21.17c-0.59,3.42-1.32,6.82-2.23,10.17c-0.84,3.1-1.77,6.24-3.14,9.15
				c-1.14,2.43-2.65,4.98-5.01,6.42c-2.19,1.34-4.73,1.23-6.96,0.04c-5.6-2.99-7.52-9.76-8.43-15.58
				c-0.54-3.46-0.79-6.97-1.11-10.46c-0.35-3.81-0.69-7.62-1.04-11.43c-0.69-7.62-1.38-15.24-2.07-22.87
				c-0.34-3.73-0.68-7.46-1.01-11.18c-0.05-0.54-0.42-1-1-1c-0.5,0-1.05,0.46-1,1c1.4,15.41,2.79,30.82,4.19,46.23
				c0.61,6.73,0.94,13.83,3.98,20c2.36,4.79,7.8,9.75,13.55,7.86c2.68-0.88,4.68-2.99,6.16-5.31c1.69-2.66,2.79-5.67,3.73-8.66
				c2.11-6.65,3.39-13.52,4.3-20.42c1.85-14.1,1.98-28.38,3.96-42.47c0.42-3.01,0.96-6.12,2.22-8.9c1.05-2.31,3.06-5.47,5.94-5.54
				c2.86-0.06,4.4,3.47,5.35,5.65c1.24,2.83,2.24,5.78,3.08,8.76c3.44,12.22,4.04,25,5.16,37.58c1.1,12.43,2.59,25.11,7.74,36.61
				c1.28,2.86,2.8,5.84,5.41,7.71c2.4,1.72,5.44,1.77,8.09,0.63c6.03-2.59,8.41-9.68,9.81-15.56c3.34-13.95,3.36-28.41,4.25-42.65
				c0.44-7.04,1.08-14.08,2.47-21c0.68-3.42,1.5-6.84,2.72-10.11c1.1-2.94,2.61-5.85,4.94-8c1.98-1.82,4.69-3.14,7.43-2.59
				C135.55,57.34,136.09,55.41,134.83,55.16L134.83,55.16z"/>
		</g>
	</g>
</g>
<g>
	<g>
		<g>
			<path d="M131.72,55.92c1.63,0.2,3.27,0.25,4.91,0.14c0.27-0.02,0.5-0.22,0.5-0.5c0-0.26-0.23-0.52-0.5-0.5
				c-1.64,0.11-3.28,0.07-4.91-0.14c-0.27-0.03-0.5,0.25-0.5,0.5C131.22,55.72,131.45,55.89,131.72,55.92L131.72,55.92z"/>
		</g>
	</g>
	<g>
		<g>
			<g>
				<path d="M128.3,51.68c-0.42,2.53-0.66,5.09-0.7,7.65c-0.01,0.64,0.99,0.64,1,0c0.04-2.48,0.26-4.95,0.66-7.39
					C129.37,51.31,128.41,51.04,128.3,51.68L128.3,51.68z"/>
			</g>
		</g>
	</g>
</g>
<g>
	<g>
		<g>
			<path d="M134.63,158.13c1.51-0.88,3.26-1.24,5-1.06c0.27,0.03,0.5-0.25,0.5-0.5c0-0.29-0.23-0.47-0.5-0.5
				c-1.91-0.2-3.85,0.23-5.5,1.2C133.57,157.59,134.07,158.45,134.63,158.13L134.63,158.13z"/>
		</g>
	</g>
	<g>
		<g>
			<g>
				<path d="M142.42,156.6c0.77,0.21,1.6,0.24,2.39,0.13c0.73-0.1,1.45-0.3,2.04-0.75c0.21-0.17,0.17-0.53,0-0.71
					c-0.21-0.21-0.49-0.17-0.71,0c0.08-0.06-0.06,0.03-0.09,0.05c-0.06,0.04-0.12,0.07-0.18,0.1c-0.14,0.07-0.15,0.07-0.32,0.13
					c-0.28,0.09-0.66,0.18-0.9,0.2c-0.69,0.08-1.34,0.06-1.97-0.12C142.06,155.47,141.8,156.43,142.42,156.6L142.42,156.6z"/>
			</g>
		</g>
		<g>
			<g>
				<path d="M148.14,152.56c0,2.75,0,5.51,0,8.26c0,0.64,1,0.64,1,0c0-2.75,0-5.51,0-8.26
					C149.14,151.92,148.14,151.91,148.14,152.56L148.14,152.56z"/>
			</g>
		</g>
	</g>
</g>
<g>
	<g>
		<g>
			<path d="M156.02,101.41c-0.04,2.09,0.28,4.18,0.96,6.15c0.21,0.6,1.17,0.34,0.96-0.27c-0.65-1.9-0.97-3.88-0.93-5.89
				C157.03,100.76,156.03,100.76,156.02,101.41L156.02,101.41z"/>
		</g>
	</g>
	<g>
		<g>
			<g>
				<path d="M160.51,110.6c-0.15,2.48-0.2,4.96-0.12,7.44c0.02,0.64,1.01,0.65,1,0c0-0.26,0.06-0.47,0.23-0.67
					c0.43-0.48-0.28-1.19-0.71-0.71c-0.35,0.39-0.54,0.85-0.53,1.37c0.33,0,0.67,0,1,0c-0.07-2.48-0.03-4.96,0.12-7.44
					C161.55,109.95,160.55,109.96,160.51,110.6L160.51,110.6z"/>
			</g>
		</g>
		<g>
			<g>
				<path d="M164.2,109.13c-0.78,2.39-0.95,4.92-0.53,7.4c0.11,0.63,1.07,0.36,0.96-0.27c-0.39-2.3-0.2-4.66,0.53-6.87
					C165.37,108.78,164.4,108.52,164.2,109.13L164.2,109.13z"/>
			</g>
		</g>
		<g>
			<g>
				<path d="M158.31,111.68c1.52-0.6,3.03-1.19,4.55-1.79c1.42-0.56,2.85-1.11,4.15-1.92c0.55-0.34,0.04-1.2-0.5-0.86
					c-1.27,0.79-2.67,1.33-4.07,1.88c-1.46,0.58-2.93,1.15-4.39,1.73C157.46,110.95,157.71,111.92,158.31,111.68L158.31,111.68z"/>
			</g>
		</g>
		<g>
			<g>
				<path d="M169.85,112.58c-3.29,2.6-6.15,5.81-7.97,9.61c-0.28,0.58,0.59,1.09,0.86,0.5c1.79-3.73,4.59-6.86,7.82-9.41
					C171.06,112.89,170.35,112.18,169.85,112.58L169.85,112.58z"/>
			</g>
		</g>
		<g>
			<g>
				<path d="M167.84,118.48c0.61-0.36,1.35-0.24,1.91,0.16c0.62,0.44,0.86,1.19,0.69,1.92c-0.2,0.81-0.76,1.4-1.51,1.74
					c-0.75,0.34-1.65,0.82-1.44,1.8c0.05,0.23,0.27,0.35,0.48,0.37c1.76,0.18,3.52,0.26,5.29,0.24c0.64-0.01,0.64-1.01,0-1
					c-1.77,0.01-3.53-0.07-5.29-0.24c0.16,0.12,0.32,0.24,0.48,0.37c-0.04-0.17,0.3-0.33,0.43-0.4c0.32-0.18,0.68-0.29,0.99-0.49
					c0.67-0.42,1.16-1.06,1.43-1.79c0.55-1.5-0.17-3.08-1.64-3.67c-0.76-0.31-1.63-0.28-2.33,0.15
					C166.79,117.94,167.29,118.81,167.84,118.48L167.84,118.48z"/>
			</g>
		</g>
	</g>
</g>
<g>
	<g>
		<g>
			<path d="M176.53,98.98c-0.39,3.3-0.59,6.63-0.6,9.95c0,0.64,1,0.64,1,0c0.01-3.33,0.21-6.65,0.6-9.95
				C177.6,98.34,176.6,98.35,176.53,98.98L176.53,98.98z"/>
		</g>
	</g>
	<g>
		<g>
			<g>
				<path d="M171.68,95.25c-0.48,2.01-0.61,4.09-0.34,6.14c0.04,0.27,0.2,0.5,0.5,0.5c0.24,0,0.54-0.23,0.5-0.5
					c-0.26-1.96-0.16-3.95,0.3-5.88C172.79,94.89,171.83,94.63,171.68,95.25L171.68,95.25z"/>
			</g>
		</g>
		<g>
			<g>
				<path d="M174.58,94.61c-0.2,2.31-0.1,4.62,0.27,6.9c0.1,0.63,1.07,0.36,0.96-0.27c-0.35-2.19-0.42-4.42-0.23-6.64
					C175.64,93.97,174.64,93.98,174.58,94.61L174.58,94.61z"/>
			</g>
		</g>
		<g>
			<g>
				<path d="M168.81,97.88c2.59-1.85,5.54-3.1,8.67-3.69c0.63-0.12,0.36-1.08-0.27-0.96c-3.2,0.6-6.26,1.89-8.91,3.79
					C167.78,97.39,168.28,98.26,168.81,97.88L168.81,97.88z"/>
			</g>
		</g>
	</g>
</g>
<g>
	<g>
		<g>
			<path d="M196.98,99.35c-0.43,2.92-0.49,5.87-0.13,8.81c0.08,0.63,1.08,0.64,1,0c-0.35-2.84-0.33-5.71,0.09-8.54
				C198.04,98.99,197.08,98.72,196.98,99.35L196.98,99.35z"/>
		</g>
	</g>
	<g>
		<g>
			<g>
				<path d="M186.91,83.84c0.6-0.54,2.55-1.85,3.06-0.51c0.21,0.57-0.13,1.22-0.55,1.59c-0.57,0.49-1.35,0.69-2.06,0.89
					c-0.38,0.11-0.53,0.73-0.12,0.91c1.04,0.47,2.26,1.2,2.55,2.4c0.21,0.87-0.34,2.08-1.35,2.05c-0.64-0.02-0.64,0.98,0,1
					c1.48,0.04,2.49-1.48,2.38-2.86c-0.13-1.68-1.67-2.81-3.08-3.45c-0.04,0.3-0.08,0.61-0.12,0.91c0.97-0.27,2.04-0.59,2.73-1.37
					c0.6-0.69,0.89-1.7,0.49-2.56c-0.94-2.01-3.49-0.74-4.64,0.3C185.72,83.57,186.43,84.27,186.91,83.84L186.91,83.84z"/>
			</g>
		</g>
		<g>
			<g>
				<path d="M193.06,84.6c0,1.5,0.01,3,0.01,4.5c0,0.64,1,0.64,1,0c0-1.5-0.01-3-0.01-4.5C194.06,83.96,193.06,83.96,193.06,84.6
					L193.06,84.6z"/>
			</g>
		</g>
		<g>
			<g>
				<path d="M195.32,83.1c0,1.38,0,2.75,0,4.13c0,0.64,1,0.64,1,0c0-1.38,0-2.75,0-4.13C196.32,82.46,195.32,82.46,195.32,83.1
					L195.32,83.1z"/>
			</g>
		</g>
		<g>
			<g>
				<path d="M192.05,85.58c1.67-1.01,3.34-2.02,5.02-3.02c0.55-0.33,0.05-1.2-0.5-0.86c-1.67,1.01-3.34,2.02-5.02,3.02
					C190.99,85.05,191.49,85.91,192.05,85.58L192.05,85.58z"/>
			</g>
		</g>
		<g>
			<g>
				<path d="M187.08,95.19c2.72-1.84,5.69-3.27,8.84-4.22c0.61-0.19,0.35-1.15-0.27-0.96c-3.22,0.97-6.29,2.43-9.08,4.32
					C186.04,94.69,186.54,95.56,187.08,95.19L187.08,95.19z"/>
			</g>
		</g>
		<g>
			<g>
				<path d="M190.45,95.28c0.65-0.11,1.54-0.27,2.12,0.14c0.61,0.43,0.44,1.21,0.1,1.76c-0.43,0.7-1.13,1.07-1.84,1.43
					c-0.78,0.4-1.57,0.8-2.16,1.47c-0.37,0.42,0.09,1.06,0.61,0.79c1.89-1,4.1-1.32,6.19-0.89c0.63,0.13,0.9-0.83,0.27-0.96
					c-2.37-0.49-4.83-0.14-6.96,0.99c0.2,0.26,0.4,0.52,0.61,0.79c0.69-0.79,1.69-1.14,2.58-1.65c0.86-0.49,1.58-1.2,1.9-2.15
					c0.31-0.92,0.02-1.93-0.82-2.45c-0.84-0.52-1.93-0.38-2.85-0.22C189.55,94.43,189.82,95.39,190.45,95.28L190.45,95.28z"/>
			</g>
		</g>
	</g>
</g>
<g>
	<g>
		<g>
			<path d="M209.27,98.56c-0.02,2.33,0.06,4.65,0.23,6.97c0.04,0.57,0.09,1.14,0.15,1.72c0.04,0.42,0.01,0.93,0.47,1.11
				c0.93,0.35,1.17-1.23,0.17-1.21c-0.64,0.01-0.64,1.01,0,1c-0.08-0.04-0.16-0.08-0.25-0.13c-0.02-0.13-0.03-0.26-0.05-0.39
				c0.02-0.03,0.03-0.06,0.05-0.09c0.12-0.05,0.24-0.1,0.35-0.15c0.25,0.3,0.34,0.31,0.27,0.03c-0.01-0.09-0.02-0.18-0.03-0.27
				c-0.02-0.18-0.03-0.36-0.05-0.54c-0.04-0.39-0.07-0.78-0.1-1.17c-0.06-0.75-0.1-1.51-0.14-2.26c-0.07-1.54-0.1-3.08-0.09-4.62
				C210.27,97.92,209.27,97.92,209.27,98.56L209.27,98.56z"/>
		</g>
	</g>
	<g>
		<g>
			<g>
				<path d="M204.59,110.59c0.91-0.2,1.93-0.45,2.84-0.11c0.63,0.23,1.24,0.81,1.14,1.54c-0.11,0.85-0.91,1.38-1.62,1.72
					c-0.9,0.44-1.85,0.79-2.78,1.17c-0.23,0.1-0.4,0.28-0.36,0.55c0.03,0.23,0.24,0.45,0.49,0.43c1.4-0.08,2.81-0.05,4.21,0.08
					c0.73,0.07,3.06,0.68,2.76-0.82c-0.12-0.63-1.09-0.36-0.96,0.27c0.15-0.21,0.18-0.3,0.08-0.26c-0.03,0.01-0.06,0.02-0.08,0.02
					c-0.07-0.01-0.15,0-0.23-0.01c-0.25-0.03-0.5-0.07-0.76-0.11c-0.56-0.07-1.12-0.13-1.69-0.16c-1.11-0.07-2.22-0.07-3.33-0.01
					c0.04,0.33,0.09,0.65,0.13,0.98c0.62-0.26,1.24-0.51,1.85-0.77c0.52-0.22,1.06-0.42,1.55-0.71c0.92-0.53,1.74-1.43,1.73-2.55
					c-0.01-1.05-0.79-1.87-1.71-2.25c-1.13-0.47-2.39-0.21-3.54,0.05C203.7,109.77,203.96,110.73,204.59,110.59L204.59,110.59z"/>
			</g>
		</g>
		<g>
			<g>
				<path d="M212.47,110.2c-0.4,1.6-0.54,3.26-0.43,4.91c0.33-0.04,0.65-0.09,0.98-0.13c-0.05-0.23,0-0.45,0.11-0.66
					c0.31-0.56-0.55-1.07-0.86-0.5c-0.25,0.45-0.31,0.93-0.21,1.43c0.11,0.55,1.02,0.43,0.98-0.13c-0.11-1.56,0.02-3.12,0.39-4.64
					C213.59,109.84,212.63,109.58,212.47,110.2L212.47,110.2z"/>
			</g>
		</g>
		<g>
			<g>
				<path d="M214.49,109.44c-0.37,1.83-0.5,3.71-0.37,5.58c0.02,0.27,0.22,0.5,0.5,0.5c0.26,0,0.52-0.23,0.5-0.5
					c-0.13-1.78-0.02-3.56,0.33-5.31C215.58,109.08,214.61,108.81,214.49,109.44L214.49,109.44z"/>
			</g>
		</g>
		<g>
			<g>
				<path d="M211.9,111.12c1.34-1.02,2.8-1.88,4.34-2.55c-0.2-0.03-0.4-0.05-0.61-0.08c0.07,0.06,0.02,0.04,0.03,0.01
					c-0.16,0.62,0.8,0.89,0.96,0.27c0.09-0.36,0-0.74-0.28-0.98c-0.19-0.16-0.39-0.17-0.61-0.08c-1.54,0.68-3,1.53-4.34,2.55
					c-0.21,0.16-0.33,0.43-0.18,0.68C211.34,111.15,211.68,111.29,211.9,111.12L211.9,111.12z"/>
			</g>
		</g>
	</g>
</g>
</svg>
