<?xml version="1.0" encoding="utf-8"?>
<!-- Generator: Adobe Illustrator 23.1.1, SVG Export Plug-In . SVG Version: 6.00 Build 0)  -->
<svg version="1.1" id="Layer_1" xmlns="http://www.w3.org/2000/svg" xmlns:xlink="http://www.w3.org/1999/xlink" x="0px" y="0px"
	 viewBox="0 0 288 216" style="enable-background:new 0 0 288 216;" xml:space="preserve">
<style type="text/css">
	.st0{fill:#A7A9AC;}
	.st1{fill:none;stroke:#000000;stroke-miterlimit:10;}
	.st2{fill:#ED1C24;}
</style>
<g>
	<g>
		<g>
			<path class="st0" d="M247.09,158.04c4.27-3.76,8.41-7.67,12.42-11.7c0.48-0.49,0.96-0.97,1.44-1.46c0.47-0.48,1.1-0.99,1.26-1.68
				c0.3-1.29-0.93-2.06-1.85-2.65c-1.76-1.12-3.73-1.83-5.64-2.65c-2.06-0.88-4.15-1.94-5.49-3.8c-0.12,0.46-0.24,0.91-0.36,1.37
				c0.31-0.21,0.58-0.18,0.84,0.09c0.9,0.92,2.31-0.49,1.41-1.41c-0.86-0.89-2.22-1.08-3.26-0.4c-0.42,0.27-0.69,0.91-0.36,1.37
				c2.44,3.38,6.35,4.4,9.93,6.11c0.89,0.43,1.78,0.9,2.58,1.5c0.07,0.05,0.14,0.12,0.21,0.16c0.02,0.02,0.04,0.04,0.06,0.06
				c0.12,0.13,0.11,0.06-0.01-0.22c-0.03-0.01-0.57,0.6-0.64,0.66c-0.48,0.49-0.96,0.98-1.44,1.46c-1.89,1.91-3.82,3.79-5.77,5.64
				c-2.21,2.09-4.45,4.14-6.73,6.15C244.71,157.48,246.13,158.89,247.09,158.04L247.09,158.04z"/>
		</g>
	</g>
	<g>
		<g>
			<path class="st0" d="M25.6,128.49c-3.86,1.72-7.52,3.89-10.9,6.44c-0.77,0.58-1.73,1.16-2.32,1.92c-0.69,0.88-0.38,1.88,0.3,2.65
				c1.5,1.68,3.14,3.26,4.75,4.84c1.81,1.78,3.65,3.53,5.52,5.24c0.95,0.87,2.37-0.54,1.41-1.41c-2.99-2.73-5.89-5.56-8.71-8.46
				c-0.33-0.34-0.66-0.69-0.99-1.03c-0.16-0.17-0.34-0.34-0.5-0.52c-0.03-0.03-0.13-0.18-0.16-0.19c-0.11-0.04-0.03,0.09-0.04,0.1
				c0.34-0.18,0.67-0.57,0.97-0.81c0.38-0.3,0.76-0.59,1.15-0.88c1.54-1.14,3.14-2.21,4.78-3.19c1.86-1.1,3.78-2.09,5.75-2.97
				c0.49-0.22,0.61-0.94,0.36-1.37C26.67,128.34,26.09,128.27,25.6,128.49L25.6,128.49z"/>
		</g>
	</g>
	<g>
		<g>
			<path class="st0" d="M12.86,139.54c15.14,4.13,30.92,4.09,46.49,3.93c16.32-0.17,32.64-0.34,48.96-0.5
				c16.33-0.17,32.65-0.34,48.98-0.5c16.24-0.17,32.48-0.41,48.71-0.27c18.32,0.17,36.66,0.88,54.88,2.91
				c0.39,0.04,0.9-0.34,0.96-0.73c0.29-1.78-0.8-3.67-2.77-3.61c-1.28,0.04-1.29,2.04,0,2c0.58-0.02,0.93,0.52,0.84,1.07
				c0.32-0.24,0.64-0.49,0.96-0.73c-32.26-3.59-64.77-3.04-97.16-2.71c-32.65,0.34-65.31,0.67-97.96,1.01
				c-17.49,0.18-35.33,0.85-52.37-3.79C12.15,137.27,11.62,139.2,12.86,139.54L12.86,139.54z"/>
		</g>
	</g>
</g>
<g>
	<g>
		<g>
			<path class="st0" d="M136.19,35.24c1.87-4.71,4.11-9.26,6.69-13.62c0.67-1.13,1.36-2.25,2.07-3.35c0.32-0.49,0.62-1.04,0.99-1.5
				c0.13-0.17,0.27-0.13,0.06-0.2c0.19,0.06,0.34,0.33,0.46,0.48c1.65,2.2,3.2,4.47,4.8,6.71c1.82,2.54,3.64,5.08,5.46,7.62
				c0.41,0.58,1.34,0.71,1.73,0c0.37-0.69,0.74-1.38,1.12-2.07c0.61-1.13-1.11-2.14-1.73-1.01c-0.37,0.69-0.74,1.38-1.12,2.07
				c0.58,0,1.15,0,1.73,0c-1.79-2.51-3.59-5.01-5.38-7.52c-0.87-1.22-1.75-2.44-2.62-3.66c-0.87-1.22-1.69-2.51-2.64-3.66
				c-0.86-1.04-2.23-1.26-3.21-0.24c-0.41,0.43-0.72,0.99-1.05,1.48c-0.4,0.61-0.8,1.23-1.19,1.86c-1.49,2.39-2.87,4.84-4.15,7.34
				c-1.45,2.85-2.76,5.77-3.94,8.74c-0.2,0.5,0.22,1.1,0.7,1.23C135.53,36.09,135.99,35.74,136.19,35.24L136.19,35.24z"/>
		</g>
	</g>
	<g>
		<g>
			<path class="st0" d="M138.14,172.41c1.81,3.64,4.01,7.06,6.54,10.24c0.6,0.75,1.21,1.64,1.96,2.25c0.83,0.68,1.82,0.48,2.56-0.24
				c0.75-0.73,1.42-1.58,2.1-2.37c0.71-0.81,1.41-1.63,2.1-2.45c1.59-1.88,3.14-3.8,4.66-5.74c0.33-0.43,0.41-1,0-1.41
				c-0.35-0.35-1.08-0.43-1.41,0c-1.52,1.94-3.07,3.86-4.66,5.74c-0.82,0.97-1.65,1.94-2.49,2.9c-0.42,0.48-0.84,0.96-1.27,1.43
				c-0.16,0.18-0.46,0.4-0.57,0.61c0.26,0.05,0.31,0.02,0.16-0.1c-0.07-0.07-0.13-0.15-0.2-0.22c-3.09-3.51-5.68-7.47-7.75-11.66
				C139.29,170.25,137.57,171.26,138.14,172.41L138.14,172.41z"/>
		</g>
	</g>
	<g>
		<g>
			<path class="st0" d="M144.82,16.09c-0.4,21.73-0.57,43.46-0.49,65.2c0.08,21.63,0.39,43.25,0.95,64.87
				c0.31,12.2,0.7,24.39,1.17,36.59c0.05,1.28,2.05,1.29,2,0c-0.83-21.72-1.41-43.46-1.76-65.19c-0.34-21.62-0.45-43.25-0.31-64.87
				c0.08-12.2,0.23-24.39,0.45-36.59C146.85,14.8,144.85,14.8,144.82,16.09L144.82,16.09z"/>
		</g>
	</g>
</g>
<line class="st1" x1="278.19" y1="73" x2="277.82" y2="73.37"/>
<g>
	<g>
		<g>
			<path class="st2" d="M19.93,134.78c20.36,1.15,40.81,0.4,61.02-2.41c14.25-1.99,28.3-5.07,42.11-9.11
				c8.42-2.47,16.8-5.1,24.92-8.45c9.65-3.97,18.9-8.87,27.5-14.77c11.48-7.88,21.72-17.55,30.62-28.24
				c12.61-15.15,22.41-32.58,28.49-51.34c0.52-1.59,1-3.19,1.47-4.8c0.36-1.24-1.57-1.77-1.93-0.53c-5.17,17.94-13.73,34.8-25,49.67
				c-8.77,11.57-19.18,22.22-30.9,30.84c-7.91,5.82-16.43,10.79-25.35,14.88c-8.15,3.73-16.63,6.68-25.2,9.28
				c-13.55,4.11-27.26,7.5-41.26,9.75c-19.2,3.08-38.71,4.22-58.14,3.61c-2.78-0.09-5.56-0.21-8.34-0.37
				C18.64,132.71,18.65,134.71,19.93,134.78L19.93,134.78z"/>
		</g>
	</g>
	<g>
		<g>
			<path class="st2" d="M229.3,20.78c1.12-0.93,2.25-1.86,3.38-2.79c0.54-0.44,1.07-0.88,1.61-1.33c0.28-0.23,0.69-0.69,1.08-0.62
				c0.85,0.14,1.33,1.63,1.6,2.28c0.51,1.21,0.9,2.48,1.19,3.77c0.28,1.26,2.21,0.72,1.93-0.53c-0.36-1.59-0.88-3.12-1.55-4.6
				c-0.54-1.19-1.28-2.49-2.64-2.85c-1.62-0.42-2.87,1.01-3.99,1.94c-1.34,1.11-2.68,2.21-4.02,3.32c-0.42,0.34-0.36,1.06,0,1.41
				C228.3,21.19,228.88,21.12,229.3,20.78L229.3,20.78z"/>
		</g>
	</g>
	<g>
		<g>
			<path class="st2" d="M25.07,128.09c-1.51,0.94-2.96,1.98-4.34,3.1c-1.1,0.89-3.02,2.14-2.58,3.81c0.41,1.55,2.25,2.2,3.55,2.78
				c1.7,0.76,3.44,1.43,5.21,2c0-0.64,0-1.29,0-1.93c-0.39,0.16-0.78,0.32-1.17,0.47c-0.5,0.2-0.85,0.67-0.7,1.23
				c0.13,0.47,0.73,0.9,1.23,0.7c0.39-0.16,0.78-0.32,1.17-0.47c0.89-0.36,1-1.6,0-1.93c-1.42-0.46-2.82-0.97-4.19-1.56
				c-0.68-0.29-1.36-0.6-2.03-0.93c-0.28-0.14-1.01-0.45-1.11-0.77c-0.09-0.3,0.53-0.7,0.75-0.9c0.56-0.5,1.13-0.98,1.71-1.44
				c1.12-0.88,2.29-1.69,3.5-2.44C27.17,129.14,26.16,127.41,25.07,128.09L25.07,128.09z"/>
		</g>
	</g>
</g>
<g>
	<g>
		<g>
			<path d="M146.14,113.76c-0.03-0.02-0.05-0.05-0.07-0.07c-0.03-0.02,0.05,0.1,0.01,0.01c-0.01-0.01-0.01-0.02-0.02-0.04
				c-0.02-0.05-0.02-0.03,0.02,0.04c0-0.02-0.02-0.06-0.02-0.08c0-0.01-0.01-0.03-0.01-0.04c-0.01-0.04,0-0.02,0.01,0.06
				c0.01-0.02,0-0.07,0-0.09c0-0.03,0.01-0.06,0-0.09c-0.01,0.08-0.01,0.1,0,0.04c0-0.01,0.01-0.03,0.01-0.04
				c0.01-0.03,0.02-0.06,0.03-0.09c0.03-0.12-0.05,0.08,0,0c0.02-0.02,0.03-0.05,0.04-0.08c0.04-0.08-0.08,0.08-0.01,0.01
				c0.02-0.02,0.04-0.04,0.06-0.06c0.07-0.07-0.09,0.05-0.01,0.01c0.02-0.01,0.06-0.03,0.08-0.04c-0.08,0.03-0.09,0.04-0.04,0.02
				c0.02-0.01,0.04-0.01,0.06-0.02c-0.09,0-0.18,0-0.27,0c0.01,0,0.05,0.02,0.06,0.02c-0.06,0.01-0.09-0.04-0.04-0.01
				c0.03,0.02,0.07,0.04,0.1,0.06c0.01,0.01,0.04,0.03,0.05,0.03c-0.01,0-0.09-0.08-0.03-0.02c0.03,0.03,0.07,0.06,0.1,0.09
				c0.01,0.01,0.02,0.02,0.03,0.03c0.06,0.06-0.02-0.02-0.02-0.03c0,0.02,0.05,0.08,0.07,0.1c0.02,0.03,0.04,0.07,0.06,0.11
				c0.02,0.04,0,0.05-0.01-0.04c0,0.02,0.02,0.05,0.03,0.07c0.03,0.07,0.05,0.15,0.06,0.22c0,0.02,0,0.04,0.01,0.06
				c-0.03-0.09-0.01-0.09-0.01-0.04c0,0.05,0.01,0.1,0.01,0.15c0,0.04,0,0.07-0.01,0.11c-0.01,0.12,0.02-0.1,0,0.02
				c-0.02,0.08-0.07,0.17-0.07,0.25c0-0.01,0.05-0.11,0.01-0.04c-0.01,0.02-0.02,0.04-0.03,0.05c-0.02,0.03-0.04,0.06-0.06,0.09
				c-0.02,0.06,0.07-0.07,0.02-0.03c-0.01,0.01-0.03,0.03-0.04,0.05c-0.03,0.03-0.07,0.07-0.1,0.1c-0.07,0.06,0.02-0.02,0.03-0.02
				c0,0-0.06,0.04-0.05,0.04c-0.04,0.02-0.07,0.04-0.11,0.06c-0.06,0.03,0-0.03,0.03-0.01c0,0-0.06,0.02-0.06,0.02
				c-0.04,0.01-0.08,0.03-0.12,0.03c-0.02,0-0.04,0.01-0.06,0.01c-0.08,0.02,0.03-0.01,0.04,0c-0.03-0.01-0.1,0.01-0.13,0.01
				c-0.04,0-0.09,0-0.13,0c-0.02,0-0.04,0-0.06,0c-0.09-0.01,0.08,0.02,0.02,0c-0.08-0.02-0.16-0.03-0.23-0.06
				c-0.02-0.01-0.04-0.01-0.06-0.02c-0.09-0.03,0.03,0.01,0.03,0.01c0,0-0.12-0.06-0.13-0.06c-0.04-0.02-0.07-0.04-0.11-0.07
				c-0.02-0.01-0.03-0.03-0.05-0.04c-0.05-0.03,0.07,0.07,0.03,0.02c-0.01-0.02-0.2-0.19-0.19-0.19c0.01,0,0.07,0.1,0.02,0.02
				c-0.01-0.01-0.02-0.03-0.03-0.04c-0.02-0.04-0.04-0.07-0.06-0.11c-0.06-0.1,0.02,0.09-0.01-0.03c-0.02-0.05-0.03-0.1-0.04-0.15
				c0-0.01-0.02-0.06-0.01-0.07c0,0,0.01,0.13,0.01,0.03c0-0.05,0-0.09,0-0.14c0-0.04,0.01-0.08,0.01-0.12c0-0.07-0.02,0.1,0,0.03
				c0.01-0.03,0.01-0.06,0.02-0.09c0.01-0.05,0.02-0.09,0.04-0.13c0.01-0.02,0.02-0.04,0.02-0.07c0.02-0.05-0.01-0.03-0.01,0.02
				c0-0.07,0.1-0.19,0.14-0.25c0-0.01,0.03-0.05,0.04-0.06c-0.05,0.03-0.05,0.06-0.01,0.02c0.03-0.04,0.06-0.07,0.09-0.11
				c0.03-0.03,0.07-0.07,0.1-0.1c0.02-0.01,0.04-0.04,0.05-0.04c-0.05,0.02-0.06,0.04,0,0.01c0.06-0.04,0.16-0.12,0.23-0.13
				c-0.07,0-0.07,0.03-0.02,0.01c0.02-0.01,0.04-0.02,0.07-0.02c0.05-0.02,0.1-0.02,0.15-0.04c0.06-0.02-0.08,0,0,0
				c0.03,0,0.06,0,0.09,0c0.03,0,0.06,0,0.09,0c0.07-0.01-0.07-0.02,0,0c0.05,0.01,0.1,0.02,0.15,0.04
				c-0.11-0.04,0.08,0.04,0.07,0.05c-0.01,0.01-0.09-0.09-0.03-0.02c0.01,0.01,0.03,0.03,0.04,0.04c0.06,0.06-0.05-0.09,0.01,0.01
				c0.01,0.02,0.02,0.04,0.03,0.05c0.01,0.02,0.02,0.08,0.01,0.01c-0.01-0.07,0-0.01,0,0.01c0.01,0.03,0.02,0.05,0.02,0.08
				c0.01,0.02,0.01,0.04,0.01,0.06c0.02,0.09,0-0.08,0-0.02c0,0.05,0.01,0.1,0,0.15c0,0.02,0,0.04,0,0.07c0,0.09,0.02-0.08,0-0.02
				c-0.01,0.05-0.02,0.1-0.03,0.15c-0.01,0.02-0.01,0.04-0.02,0.06c-0.03,0.1,0.04-0.06,0.01-0.01c-0.02,0.04-0.04,0.09-0.07,0.13
				c0,0-0.03,0.06-0.04,0.05c0.04-0.05,0.05-0.06,0.02-0.03c-0.01,0.02-0.03,0.03-0.04,0.05c-0.04,0.04-0.08,0.08-0.12,0.12
				c-0.02,0.02-0.04,0.04-0.06,0.05c0.09-0.07-0.02,0.01-0.03,0.02c-0.05,0.03-0.09,0.06-0.14,0.08c-0.02,0.01-0.05,0.03-0.07,0.04
				c-0.01,0.01-0.14,0.06-0.03,0.02c-0.06,0.02-0.12,0.05-0.18,0.07c-0.25,0.08-0.5,0.13-0.76,0.17c0.13,0.02,0.26,0.03,0.39,0.05
				c-0.04-0.02-0.08-0.04-0.11-0.06c-0.01,0-0.05-0.03-0.05-0.03c0.01,0,0.09,0.08,0.03,0.02c-0.03-0.03-0.05-0.05-0.08-0.08
				c-0.02-0.02-0.06-0.05-0.01-0.01c0.06,0.05,0,0-0.01-0.03c-0.01-0.01-0.05-0.11-0.06-0.11c0.01,0,0.04,0.12,0.01,0.03
				c0-0.01-0.01-0.03-0.02-0.04c-0.01-0.04-0.02-0.08-0.03-0.12c0-0.01,0-0.04-0.01-0.05c0.01,0.08,0.01,0.09,0.01,0.06
				c0-0.02,0-0.03,0-0.05c0-0.04,0-0.07,0-0.11c0-0.02,0-0.04,0-0.06c0-0.07-0.02,0.1-0.01,0.04c0.01-0.03,0.01-0.07,0.02-0.11
				c0.01-0.02,0.01-0.04,0.02-0.06c0.03-0.1-0.05,0.1,0,0.01c0.02-0.03,0.03-0.06,0.05-0.09c0.06-0.1-0.05,0.05,0.01-0.01
				c0.01-0.01,0.09-0.09,0.09-0.09c0.01,0.02-0.09,0.06-0.02,0.02c0.02-0.01,0.05-0.03,0.07-0.04c0.1-0.06-0.09,0.02,0.02-0.01
				c0.04-0.01,0.07-0.02,0.11-0.03c0.09-0.02-0.03,0.01-0.04,0c0,0,0.05,0,0.06,0c0.05,0,0.09,0,0.14,0c0.07,0-0.1-0.03-0.04-0.01
				c0.01,0,0.03,0.01,0.05,0.01c0.04,0.01,0.08,0.02,0.12,0.03c0.01,0,0.06,0.02,0.06,0.02c0,0.01-0.11-0.06-0.03-0.01
				c0.04,0.02,0.08,0.04,0.11,0.06c0,0,0.05,0.04,0.05,0.04c-0.01,0.01-0.08-0.07-0.03-0.02c0.03,0.03,0.06,0.06,0.09,0.09
				c0.01,0.01,0.04,0.05,0.04,0.05c-0.01,0-0.06-0.1-0.02-0.03c0.01,0.02,0.05,0.11,0.06,0.11c-0.03-0.01-0.03-0.1-0.02-0.03
				c0,0.02,0.01,0.05,0.02,0.07c0.02,0.05,0.03,0.03,0-0.03c0.01,0.01,0,0.06,0,0.07c0,0.02,0,0.16,0,0.08c0-0.07,0,0-0.01,0.02
				c-0.01,0.03-0.01,0.06-0.02,0.09c-0.01,0.02-0.01,0.05-0.02,0.07c0.03-0.04,0.03-0.07,0,0c0,0.01-0.08,0.14-0.09,0.14
				c0,0,0.08-0.09,0.01-0.02c-0.02,0.02-0.03,0.04-0.05,0.05c-0.02,0.02-0.04,0.03-0.05,0.05c-0.08,0.08,0.08-0.05-0.01,0.01
				c-0.04,0.03-0.08,0.05-0.12,0.07c-0.08,0.05,0.02,0,0.02-0.01c-0.01,0.01-0.06,0.02-0.08,0.03c-0.02,0.01-0.05,0.01-0.07,0.02
				c-0.05,0.02,0.1,0,0.01,0c-0.06,0-0.12,0-0.18-0.01c0.14,0.08,0.29,0.17,0.43,0.25c-0.02-0.05-0.01-0.03,0,0.01
				c-0.01-0.03-0.02-0.06-0.03-0.1c-0.02-0.05-0.02-0.1-0.04-0.16c-0.02-0.06,0,0.09,0-0.01c0-0.03,0-0.05,0-0.08
				c0-0.06,0-0.12,0.01-0.18c0-0.07-0.02,0.08,0,0.01c0.01-0.03,0.01-0.05,0.02-0.08c0.01-0.06,0.04-0.12,0.05-0.17
				c-0.01,0.04-0.03,0.06,0,0.01c0.01-0.02,0.02-0.05,0.04-0.07c0.02-0.03,0.03-0.06,0.05-0.09c0.01-0.02,0.07-0.1,0.01-0.01
				c-0.2,0.03-0.4,0.05-0.61,0.08c0.03,0.02,0.14,0.05,0.15,0.09c-0.05-0.04-0.06-0.05-0.03-0.02c0.01,0.01,0.03,0.02,0.04,0.03
				c0.02,0.02,0.03,0.03,0.05,0.05c0.08,0.08-0.05-0.09,0.01,0.01c0.01,0.02,0.03,0.05,0.04,0.07c0.01,0.02,0.04,0.06,0.04,0.08
				c0-0.04-0.03-0.09-0.01-0.01c0.01,0.03,0.02,0.06,0.02,0.08c0,0.02,0.04,0.11,0.01,0.04c-0.02-0.07,0,0.01,0,0.04
				c0,0.03,0,0.06,0,0.09c0,0.11,0.01-0.01,0.01-0.01c0.01,0-0.02,0.09-0.02,0.1c0,0.01-0.01,0.06-0.02,0.07
				c0.03-0.06,0.03-0.07,0.02-0.04c-0.01,0.02-0.02,0.03-0.02,0.05c-0.01,0.02-0.05,0.1-0.02,0.04c0.02-0.05-0.01,0.01-0.03,0.03
				c-0.02,0.02-0.04,0.04-0.06,0.06c-0.03,0.04,0.08-0.05,0.01,0c-0.03,0.02-0.11,0.09-0.15,0.08c0.06-0.02,0.07-0.03,0.04-0.02
				c-0.01,0-0.02,0.01-0.03,0.01c-0.03,0.01-0.06,0.02-0.08,0.02c-0.02,0-0.03,0.01-0.05,0.01c-0.04,0.01-0.02,0.01,0.05,0
				c-0.01,0.01-0.06,0-0.07,0.01c-0.03,0-0.07,0-0.1,0c-0.09,0,0.07,0.02,0.01,0c-0.05-0.02-0.11-0.03-0.17-0.04
				c-0.05-0.01,0.08,0.05,0.01,0c-0.03-0.02-0.06-0.03-0.09-0.05c-0.22-0.15-0.56-0.05-0.68,0.18c-0.13,0.25-0.05,0.53,0.18,0.68
				c0.68,0.45,1.7,0.21,2.11-0.5c0.4-0.7,0.11-1.72-0.63-2.07c-0.18-0.09-0.46-0.1-0.61,0.08c-0.39,0.49-0.54,1.09-0.4,1.71
				c0.03,0.13,0.08,0.27,0.14,0.39c0.13,0.23,0.36,0.3,0.61,0.29c0.27-0.01,0.55-0.1,0.77-0.25c0.45-0.31,0.79-0.85,0.74-1.42
				c-0.05-0.51-0.36-0.96-0.83-1.18c-0.47-0.22-1.02-0.24-1.48,0.02c-0.44,0.26-0.68,0.74-0.69,1.24c-0.01,0.51,0.23,1.01,0.64,1.31
				c0.09,0.07,0.2,0.12,0.31,0.16c0.16,0.05,0.41-0.02,0.58-0.05c0.27-0.05,0.53-0.14,0.78-0.25c0.51-0.22,0.93-0.62,1.11-1.15
				c0.15-0.44,0.12-0.99-0.14-1.39c-0.36-0.55-1.02-0.71-1.63-0.56c-0.5,0.12-0.92,0.46-1.2,0.88c-0.29,0.43-0.41,0.95-0.33,1.46
				c0.07,0.49,0.37,0.9,0.76,1.19c0.73,0.53,1.91,0.52,2.52-0.21c0.6-0.72,0.54-1.85-0.1-2.52c-0.17-0.18-0.37-0.3-0.6-0.39
				c-0.3-0.11-0.63,0.07-0.85,0.27c-0.36,0.33-0.5,0.87-0.39,1.34c0.05,0.23,0.18,0.45,0.35,0.6c0.2,0.17,0.52,0.21,0.71,0
				C146.31,114.28,146.35,113.95,146.14,113.76L146.14,113.76z"/>
		</g>
	</g>
	<g>
		<g>
			<g>
				<path d="M153.48,119.63c-0.37,1.35-1.46,2.38-1.72,3.78c-0.22,1.2,0.15,2.57,1.42,2.98c1.12,0.36,2.36-0.29,3.02-1.17
					c0.89-1.18,0.68-2.83,0.3-4.16c-0.21-0.74-0.41-1.71-1.03-2.22c-0.54-0.44-1.45-0.4-1.8,0.26c-0.3,0.57,0.56,1.07,0.86,0.5
					c0.07-0.14,0.03-0.04,0-0.03c0.04-0.02-0.14-0.06,0.08-0.03c0.07,0.01,0.1-0.01,0.17,0.03c0.17,0.08,0.27,0.31,0.33,0.47
					c0.22,0.53,0.39,1.12,0.52,1.68c0.24,0.97,0.37,2.2-0.33,3.02c-0.44,0.51-1.26,0.96-1.94,0.66c-0.82-0.36-0.76-1.45-0.54-2.16
					c0.37-1.19,1.28-2.12,1.61-3.34C154.61,119.27,153.65,119.01,153.48,119.63L153.48,119.63z"/>
			</g>
		</g>
		<g>
			<g>
				<path d="M158.4,124.81c-1.09,1.5-2.03,3.1-2.81,4.78c-0.11,0.25-0.07,0.54,0.18,0.68c0.22,0.13,0.57,0.07,0.68-0.18
					c0.77-1.68,1.71-3.29,2.81-4.78c0.16-0.22,0.04-0.56-0.18-0.68C158.83,124.48,158.56,124.59,158.4,124.81L158.4,124.81z"/>
			</g>
		</g>
		<g>
			<g>
				<path d="M167.09,117.09c2.12,3.94,1.3,9.11-1.9,12.22c-0.46,0.45,0.25,1.16,0.71,0.71c3.53-3.43,4.38-9.11,2.06-13.44
					C167.65,116.02,166.79,116.53,167.09,117.09L167.09,117.09z"/>
			</g>
		</g>
		<g>
			<g>
				<path d="M151.08,116.09c-2.31,2.2-4.24,5.4-4.29,8.67c-0.02,1.52,0.47,3.05,1.6,4.11c1,0.95,2.33,1.42,3.69,1.14
					c0.63-0.13,0.36-1.09-0.27-0.96c-1.19,0.24-2.35-0.37-3.09-1.28c-0.9-1.1-1.07-2.61-0.85-3.98c0.42-2.68,1.99-5.16,3.92-7
					C152.25,116.35,151.54,115.64,151.08,116.09L151.08,116.09z"/>
			</g>
		</g>
		<g>
			<g>
				<path d="M161.8,117.97c-0.01,2.13-0.01,4.25-0.02,6.38c0,0.42-0.07,0.9,0.11,1.29c0.15,0.32,0.5,0.57,0.87,0.46
					c0.76-0.22,0.57-1.52-0.28-1.29c-0.62,0.17-0.36,1.14,0.27,0.96c-0.68-0.36-0.66-0.55,0.04-0.56c-0.01-0.02-0.01-0.05-0.01-0.07
					c0.03-0.11,0-0.3,0-0.42c0-0.3,0-0.6,0-0.9c0-0.65,0-1.3,0.01-1.95c0-1.3,0.01-2.6,0.01-3.9
					C162.81,117.33,161.81,117.33,161.8,117.97L161.8,117.97z"/>
			</g>
		</g>
	</g>
</g>
<g>
	<g>
		<g>
			<path d="M194.78,93.8c-2.31,2.2-4.24,5.4-4.29,8.67c-0.02,1.52,0.47,3.05,1.6,4.11c1,0.95,2.33,1.42,3.69,1.14
				c0.63-0.13,0.36-1.09-0.27-0.96c-1.19,0.24-2.35-0.37-3.09-1.28c-0.9-1.1-1.07-2.61-0.85-3.98c0.42-2.68,1.99-5.16,3.92-7
				C195.95,94.06,195.24,93.36,194.78,93.8L194.78,93.8z"/>
		</g>
	</g>
	<g>
		<g>
			<path d="M197.73,96.9c-0.01,2.13-0.01,4.25-0.02,6.38c0,0.42-0.07,0.9,0.11,1.29c0.15,0.32,0.5,0.57,0.87,0.46
				c0.76-0.22,0.57-1.52-0.28-1.29c-0.62,0.17-0.36,1.14,0.27,0.96c-0.68-0.36-0.66-0.55,0.04-0.56c-0.01-0.02-0.01-0.05-0.01-0.07
				c0.03-0.11,0-0.3,0-0.42c0-0.3,0-0.6,0-0.9c0-0.65,0-1.3,0.01-1.95c0-1.3,0.01-2.6,0.01-3.9
				C198.74,96.25,197.74,96.25,197.73,96.9L197.73,96.9z"/>
		</g>
	</g>
	<g>
		<g>
			<path d="M201.14,103.76c-1,2.13-1.99,4.26-2.99,6.39c-0.27,0.58,0.59,1.09,0.86,0.5c1-2.13,1.99-4.26,2.99-6.39
				C202.27,103.69,201.41,103.18,201.14,103.76L201.14,103.76z"/>
		</g>
	</g>
	<g>
		<g>
			<path d="M207.8,100.58c1.15-0.68,2.59-1.79,2.33-3.31c-0.22-1.3-1.63-1.87-2.82-1.64c-1.44,0.28-2.24,1.72-2.56,3.03
				c-0.38,1.56-0.37,3.34,0.41,4.79c0.79,1.46,2.45,2.4,4.11,2.05c0.63-0.13,0.36-1.1-0.27-0.96c-1.05,0.22-2.13-0.36-2.74-1.2
				c-0.73-1.01-0.85-2.34-0.71-3.54c0.12-1.03,0.44-2.27,1.32-2.91c0.6-0.43,1.71-0.47,2.14,0.23c0.67,1.08-0.98,2.16-1.73,2.6
				C206.75,100.05,207.25,100.91,207.8,100.58L207.8,100.58z"/>
		</g>
	</g>
	<g>
		<g>
			<path d="M211.15,95.36c2.12,4.15,1.61,9.34-1.19,13.04c-0.39,0.51,0.48,1.01,0.86,0.5c3.03-3.99,3.47-9.6,1.19-14.05
				C211.72,94.28,210.85,94.78,211.15,95.36L211.15,95.36z"/>
		</g>
	</g>
	<g>
		<g>
			<path d="M188.31,89.87c0.39-0.31,0.51-0.89,0.34-1.35c-0.09-0.25-0.23-0.47-0.45-0.64c-0.24-0.19-0.55-0.32-0.85-0.21
				c-0.89,0.34-1.41,1.4-1.07,2.31c0.19,0.5,0.56,0.86,1.06,1.05c0.44,0.16,0.95,0.15,1.39,0.02c0.47-0.14,0.9-0.43,1.17-0.84
				c0.28-0.42,0.33-0.97,0.19-1.45c-0.15-0.5-0.49-0.93-0.92-1.22c-0.47-0.32-1.15-0.46-1.7-0.27c-0.57,0.2-0.91,0.69-0.95,1.28
				c-0.04,0.51,0.2,1.03,0.59,1.36c0.44,0.38,1,0.58,1.57,0.68c0.15,0.03,0.3,0.06,0.45,0.06c0.16,0,0.35-0.1,0.48-0.19
				c0.2-0.15,0.38-0.33,0.49-0.56c0.22-0.46,0.24-1.02-0.03-1.47c-0.28-0.46-0.79-0.7-1.32-0.7c-0.48,0-0.99,0.19-1.31,0.56
				c-0.4,0.45-0.45,1.06-0.17,1.58c0.27,0.52,0.83,0.85,1.41,0.88c0.24,0.01,0.49-0.04,0.62-0.26c0.08-0.13,0.14-0.29,0.17-0.43
				c0.07-0.3,0.07-0.61,0-0.91c-0.07-0.3-0.23-0.55-0.43-0.78c-0.16-0.18-0.41-0.16-0.61-0.08c-0.76,0.33-1.12,1.37-0.66,2.08
				c0.46,0.71,1.51,0.93,2.23,0.49c0.22-0.14,0.33-0.45,0.18-0.68c-0.14-0.22-0.45-0.33-0.68-0.18c-0.03,0.02-0.06,0.03-0.09,0.05
				c-0.08,0.04,0.06-0.01,0.01,0c-0.03,0.01-0.16,0.07-0.19,0.05c0.02,0,0.04-0.01,0.06-0.01c-0.02,0-0.05,0-0.07,0.01
				c-0.03,0-0.06,0-0.09,0c-0.01,0-0.08,0.01-0.09-0.01c0.07,0.01,0.08,0.01,0.04,0.01c-0.02,0-0.04-0.01-0.05-0.01
				c-0.06-0.01-0.11-0.03-0.17-0.05c-0.11-0.03,0.09,0.05-0.01,0c-0.03-0.01-0.05-0.03-0.08-0.04c-0.01-0.01-0.07-0.03-0.07-0.05
				c0.05,0.04,0.06,0.05,0.03,0.03c-0.01-0.01-0.03-0.02-0.04-0.03c-0.02-0.02-0.04-0.04-0.06-0.06c-0.02-0.03-0.02-0.02,0.03,0.04
				c-0.01-0.01-0.02-0.03-0.03-0.04c-0.01-0.02-0.03-0.05-0.04-0.07c-0.05-0.09,0.02,0.1,0,0c-0.01-0.03-0.01-0.05-0.02-0.08
				c-0.03-0.11,0.01,0.02,0,0.02c0,0,0-0.1,0-0.1c0-0.01,0-0.02,0-0.03c0-0.04,0-0.04,0,0c-0.01,0.04-0.01,0.04,0,0
				c0-0.01,0-0.02,0.01-0.03c0.01-0.03,0.02-0.06,0.03-0.1c0.02-0.09-0.04,0.06-0.01,0.01c0.01-0.02,0.02-0.05,0.04-0.08
				c0.01-0.01,0.04-0.08,0.06-0.09c-0.04,0.05-0.05,0.06-0.03,0.03c0.01-0.01,0.02-0.03,0.03-0.04c0.02-0.02,0.04-0.04,0.06-0.06
				c0.07-0.06,0-0.02-0.01,0c0.01-0.04,0.16-0.09,0.19-0.1c-0.2-0.03-0.4-0.05-0.61-0.08c0.03,0.04,0.02,0.03,0-0.01
				c0.02,0.03,0.04,0.06,0.06,0.08c0.03,0.05,0.06,0.1,0.09,0.16c-0.02-0.04-0.02-0.06-0.01-0.01c0.01,0.03,0.02,0.06,0.03,0.09
				c0.01,0.03,0.01,0.05,0.02,0.08c0,0.01,0.01,0.03,0.01,0.04c0.01,0.04,0.01,0.03,0-0.03c0.02,0.01,0.01,0.13,0.01,0.16
				c0,0.03,0,0.07-0.01,0.1c0,0.07,0.02-0.08,0-0.02c-0.01,0.06-0.02,0.12-0.04,0.17c0,0.01-0.05,0.11-0.02,0.05
				c0.03-0.06-0.03,0.05-0.03,0.05c0.14-0.08,0.29-0.17,0.43-0.25c-0.02,0-0.23,0-0.23,0c0,0,0.1,0.02,0.04,0.01
				c-0.02,0-0.04-0.01-0.06-0.01c-0.04-0.01-0.08-0.03-0.13-0.04c-0.06-0.01,0.04,0.01,0.03,0.02c0,0-0.05-0.02-0.05-0.02
				c-0.03-0.02-0.07-0.04-0.1-0.05c-0.02-0.01-0.11-0.08-0.06-0.04c0.05,0.04,0,0-0.01-0.01c-0.02-0.02-0.04-0.03-0.05-0.05
				c-0.03-0.03-0.05-0.05-0.07-0.08c-0.06-0.07,0.04,0.06-0.01-0.01c-0.02-0.03-0.04-0.06-0.05-0.09c-0.01-0.02-0.01-0.03-0.02-0.05
				c-0.03-0.05,0.02,0.08,0.01,0.02c0-0.03-0.02-0.07-0.03-0.1c0,0-0.01-0.05-0.01-0.05c0.01-0.01,0,0.11,0.01,0.05
				c0-0.03,0-0.07,0-0.1c-0.01-0.06,0,0.05-0.01,0.05c-0.01-0.01,0.01-0.06,0.01-0.07c0-0.02,0.03-0.14,0.02-0.06
				c-0.01,0.07,0.01-0.01,0.02-0.03c0.01-0.02,0.06-0.1,0.02-0.04c-0.04,0.06,0.02-0.02,0.04-0.04c0.01-0.01,0.07-0.06,0.07-0.06
				c0,0-0.08,0.06-0.04,0.03c0.01-0.01,0.03-0.02,0.04-0.03c0.03-0.02,0.05-0.03,0.08-0.05c0.01-0.01,0.03-0.01,0.04-0.02
				c0.01,0,0.02-0.01,0.03-0.01c0.02-0.01,0.02-0.01-0.02,0.01c-0.01-0.01-0.05,0.02,0,0c0.02-0.01,0.03-0.01,0.05-0.02
				c0.03-0.01,0.06-0.02,0.09-0.03c0.03-0.01,0.06-0.01,0.1-0.02c0.11-0.02-0.07,0,0.01,0c0.07,0,0.13-0.01,0.19,0
				c0.02,0,0.03,0,0.05,0c0.05,0-0.05,0-0.05-0.01c0,0.01,0.1,0.02,0.11,0.02c0.03,0.01,0.06,0.02,0.09,0.03
				c0.05,0.01-0.05-0.01-0.05-0.02c0,0,0.04,0.02,0.04,0.02c0.03,0.02,0.05,0.03,0.08,0.05c0.09,0.06-0.04-0.05,0.01,0.01
				c0.02,0.02,0.04,0.05,0.07,0.07c0.06,0.06-0.05-0.08,0,0c0.01,0.03,0.03,0.05,0.05,0.08c0.04,0.07-0.03-0.1,0,0.01
				c0.01,0.03,0.02,0.06,0.02,0.09c0,0.02,0.03,0.12,0.01,0.04c-0.02-0.08,0,0.02,0,0.04c0,0.04,0,0.07,0,0.11
				c0,0.09,0.02-0.1,0-0.01c-0.01,0.03-0.01,0.06-0.02,0.09c-0.01,0.03-0.02,0.06-0.03,0.09c-0.02,0.08,0.05-0.09-0.01,0.01
				c-0.02,0.03-0.04,0.06-0.05,0.09c-0.04,0.08,0.06-0.07,0,0c-0.02,0.02-0.04,0.05-0.06,0.07c-0.01,0.01-0.02,0.02-0.03,0.03
				c-0.04,0.04,0.08-0.05,0.03-0.02c-0.03,0.02-0.05,0.04-0.08,0.05c-0.04,0.02-0.15,0.06,0,0.01c0.03-0.01,0.09-0.04,0.12-0.02
				c-0.01-0.01-0.05-0.01-0.06-0.01c-0.05-0.01-0.1-0.02-0.15-0.02c-0.18-0.03-0.35-0.07-0.52-0.13c-0.04-0.01-0.08-0.03-0.12-0.04
				c-0.02-0.01-0.13-0.05-0.08-0.03c0.05,0.02-0.06-0.03-0.07-0.03c-0.04-0.02-0.09-0.04-0.13-0.07c-0.04-0.02-0.07-0.04-0.1-0.06
				c-0.03-0.02-0.1-0.07-0.03-0.02c-0.07-0.05-0.13-0.11-0.19-0.18c-0.01-0.01-0.03-0.03-0.04-0.04c0,0,0.06,0.09,0.03,0.03
				c-0.02-0.03-0.04-0.06-0.05-0.08c-0.02-0.03-0.03-0.06-0.05-0.09c-0.03-0.05,0.02,0.04,0.02,0.04c-0.01,0-0.02-0.06-0.02-0.06
				c-0.01-0.02-0.03-0.19-0.05-0.19c0.01,0,0.01,0.1,0.01,0.05c0-0.02,0-0.03,0-0.05c0-0.04,0-0.08,0-0.11c0-0.01,0.01-0.05,0-0.05
				c0,0-0.02,0.1-0.01,0.05c0.01-0.03,0.01-0.06,0.02-0.09c0.01-0.03,0.02-0.06,0.03-0.09c0.01-0.05-0.02,0.05-0.02,0.05
				c0,0,0.03-0.05,0.03-0.06c0-0.01,0.05-0.08,0.05-0.08c0,0.01-0.07,0.07-0.03,0.04c0.02-0.01,0.03-0.03,0.04-0.05
				c0,0,0.03-0.03,0.04-0.03c0,0-0.09,0.05-0.04,0.03c0.03-0.02,0.07-0.04,0.1-0.06c0.01,0,0.06-0.02,0.01-0.01
				c-0.05,0.02,0.02,0,0.03-0.01c0.04-0.01,0.09-0.02,0.13-0.03c-0.09,0.02,0.02,0,0.05,0c0.05,0,0.11,0.01,0.16,0.01
				c0.06,0-0.01,0-0.02,0c0.02,0,0.04,0.01,0.05,0.01c0.04,0.01,0.07,0.01,0.11,0.02c0.04,0.01,0.07,0.02,0.11,0.03
				c0.02,0.01,0.03,0.01,0.05,0.02c0.06,0.02,0.01-0.01-0.02-0.01c0.06,0,0.14,0.07,0.19,0.1c0.03,0.02,0.06,0.04,0.09,0.06
				c0.01,0.01,0.06,0.04,0.01,0c-0.06-0.04,0.01,0.01,0.02,0.02c0.05,0.05,0.11,0.09,0.15,0.15c0.02,0.03,0.05,0.05,0.07,0.08
				c0.04,0.04-0.03-0.03-0.02-0.03c0.02,0.01,0.03,0.04,0.04,0.06c0.04,0.06,0.07,0.12,0.11,0.18c0.01,0.03,0.04,0.06,0.04,0.09
				c0,0-0.03-0.1-0.02-0.04c0.01,0.02,0.02,0.04,0.02,0.06c0.02,0.06,0.03,0.13,0.05,0.2c0.02,0.05-0.01-0.05-0.01-0.05
				c0,0,0,0.05,0,0.05c0,0.04,0,0.08,0,0.12c0,0.03,0,0.07-0.01,0.1c-0.01,0.09,0.02-0.09,0,0c-0.01,0.03-0.01,0.07-0.02,0.1
				c-0.01,0.02-0.04,0.14-0.02,0.07c0.02-0.07-0.01,0.02-0.02,0.04c-0.01,0.03-0.03,0.05-0.05,0.08c-0.01,0.01-0.02,0.03-0.03,0.04
				c-0.05,0.07,0.01-0.03,0.02-0.03c-0.01,0-0.06,0.07-0.07,0.08c-0.02,0.02-0.04,0.04-0.07,0.07c-0.01,0.01-0.02,0.02-0.04,0.03
				c-0.04,0.04-0.02,0,0,0c0.01,0,0.04-0.03,0,0c-0.01,0.01-0.03,0.02-0.04,0.03c-0.03,0.02-0.06,0.04-0.1,0.06
				c-0.02,0.01-0.16,0.1-0.17,0.09c0,0,0.1-0.04,0.04-0.02c-0.02,0-0.03,0.01-0.05,0.02c-0.04,0.01-0.07,0.02-0.11,0.04
				c-0.06,0.02-0.13,0.03-0.19,0.05c0,0-0.05,0.01-0.05,0.01c0,0,0.11-0.01,0.05-0.01c-0.04,0-0.08,0.01-0.12,0.01
				c-0.07,0-0.13,0-0.2,0c-0.01,0-0.09-0.02-0.1-0.01c0,0,0.1,0.02,0.05,0.01c-0.02-0.01-0.04-0.01-0.06-0.01
				c-0.06-0.01-0.12-0.03-0.19-0.05c0,0-0.04-0.02-0.05-0.02c0,0,0.09,0.04,0.05,0.02c-0.03-0.02-0.07-0.03-0.1-0.05
				c-0.03-0.02-0.06-0.03-0.08-0.05c-0.01-0.01-0.03-0.02-0.04-0.03c-0.05-0.03,0.04,0.03,0.04,0.03c-0.01,0.01-0.13-0.13-0.14-0.14
				c-0.04-0.03,0.03,0.04,0.03,0.04c0-0.01-0.02-0.03-0.03-0.04c-0.02-0.03-0.03-0.05-0.05-0.08c-0.01-0.03-0.03-0.05-0.04-0.08
				c-0.03-0.04,0.02,0.05,0.02,0.05c0-0.02-0.02-0.04-0.02-0.06c-0.02-0.06-0.03-0.11-0.05-0.17c-0.02-0.09,0.01,0.11,0,0.01
				c0-0.04-0.01-0.08-0.01-0.12c0-0.06,0.02-0.12,0.01-0.18c0,0-0.02,0.11-0.01,0.06c0-0.01,0.01-0.03,0.01-0.04
				c0.01-0.03,0.02-0.07,0.03-0.1c0.01-0.03,0.02-0.06,0.03-0.09c0-0.01,0.02-0.03,0.02-0.04c0,0-0.05,0.1-0.02,0.05
				c0.03-0.06,0.06-0.12,0.09-0.17c0.01-0.02,0.05-0.05,0.05-0.07c0,0-0.07,0.08-0.03,0.04c0.01-0.01,0.02-0.02,0.03-0.03
				c0.02-0.02,0.04-0.04,0.06-0.07c0.02-0.02,0.11-0.08,0.04-0.04c-0.07,0.04,0.02-0.01,0.04-0.02c0.03-0.02,0.05-0.03,0.08-0.05
				c0.03-0.02,0.1-0.03,0.04-0.02c-0.07,0.01,0.04-0.01,0.06-0.02c-0.09,0-0.18,0-0.27,0c0.03,0.01,0.07,0.03,0.11,0.03
				c0.04,0.01,0.02,0.01-0.05-0.02c0.02,0.01,0.04,0.02,0.05,0.03c0.02,0.01,0.06,0.04,0.07,0.05c-0.06-0.05-0.07-0.06-0.03-0.02
				c0.01,0.01,0.01,0.01,0.02,0.02c0.01,0.01,0.03,0.03,0.04,0.04c0.03,0.04,0.03,0.03-0.02-0.03c0,0.02,0.04,0.06,0.05,0.07
				c0.03,0.06,0.01,0.07,0-0.01c0,0.03,0.02,0.07,0.03,0.1c0.01,0.03,0.01,0.07,0.02,0.1c-0.02-0.05-0.01-0.11-0.01-0.02
				c0,0.02-0.01,0.07,0,0.09c0.01-0.09,0.02-0.1,0.01-0.05c0,0.01-0.01,0.03-0.01,0.04c0,0.01-0.01,0.03-0.01,0.04
				c-0.02,0.05-0.01,0.04,0.02-0.04c-0.02,0.01-0.03,0.06-0.04,0.07c-0.04,0.08,0.07-0.07,0.01-0.01c-0.03,0.03-0.06,0.06-0.09,0.08
				c-0.21,0.16-0.18,0.54,0,0.71C187.82,90.07,188.09,90.05,188.31,89.87L188.31,89.87z"/>
		</g>
	</g>
</g>
</svg>
