<?xml version="1.0" encoding="utf-8"?>
<!-- Generator: Adobe Illustrator 23.1.1, SVG Export Plug-In . SVG Version: 6.00 Build 0)  -->
<svg version="1.1" id="Layer_1" xmlns="http://www.w3.org/2000/svg" xmlns:xlink="http://www.w3.org/1999/xlink" x="0px" y="0px"
	 viewBox="0 0 288 216" style="enable-background:new 0 0 288 216;" xml:space="preserve">
<style type="text/css">
	.st0{fill:#A7A9AC;}
	.st1{fill:none;stroke:#000000;stroke-miterlimit:10;}
	.st2{fill:#808285;}
	.st3{fill:#ED1C24;}
</style>
<g>
	<g>
		<g>
			<path class="st0" d="M243.21,129.34c3.93-3.47,7.75-7.07,11.44-10.79c0.45-0.45,0.9-0.91,1.34-1.36
				c0.42-0.43,0.93-0.86,1.11-1.46c0.35-1.2-0.7-1.94-1.57-2.52c-1.63-1.07-3.47-1.73-5.25-2.49c-1.91-0.81-3.86-1.78-5.1-3.5
				c-0.12,0.46-0.24,0.91-0.36,1.37c0.26-0.17,0.46-0.16,0.68,0.07c0.9,0.92,2.32-0.49,1.41-1.41c-0.82-0.84-2.1-1.03-3.1-0.38
				c-0.42,0.27-0.69,0.91-0.36,1.37c2.27,3.15,5.9,4.08,9.23,5.68c0.81,0.39,1.64,0.82,2.35,1.38c0.02,0.02,0.16,0.15,0.19,0.16
				c0.02,0.02,0.04,0.04,0.06,0.05c-0.02-0.12-0.04-0.25-0.07-0.37c-0.07-0.01-0.56,0.58-0.62,0.64c-0.45,0.46-0.89,0.91-1.34,1.36
				c-1.74,1.75-3.5,3.47-5.3,5.17c-2.02,1.91-4.07,3.78-6.15,5.62C240.83,128.78,242.25,130.19,243.21,129.34L243.21,129.34z"/>
		</g>
	</g>
	<g>
		<g>
			<path class="st0" d="M39.43,102.04c-3.54,1.58-6.89,3.56-9.98,5.89c-0.72,0.54-1.6,1.09-2.17,1.79c-0.67,0.81-0.44,1.77,0.2,2.51
				c1.36,1.58,2.91,3.03,4.39,4.49c1.67,1.65,3.37,3.26,5.1,4.85c0.95,0.87,2.37-0.54,1.41-1.41c-1.76-1.61-3.49-3.26-5.19-4.93
				c-0.85-0.84-1.7-1.69-2.53-2.55c-0.42-0.43-0.83-0.86-1.25-1.29c-0.1-0.11-0.39-0.54-0.53-0.56c-0.08-0.16-0.11-0.1-0.09,0.18
				c0.08-0.09,0.17-0.16,0.26-0.24c3.34-2.9,7.36-5.2,11.38-6.99c0.49-0.22,0.61-0.94,0.36-1.37
				C40.5,101.89,39.92,101.82,39.43,102.04L39.43,102.04z"/>
		</g>
	</g>
	<g>
		<g>
			<path class="st0" d="M27.74,112.35c13.93,3.8,28.45,3.76,42.78,3.62c15.01-0.15,30.01-0.31,45.02-0.46
				c15.01-0.15,30.03-0.31,45.04-0.46c14.93-0.15,29.87-0.38,44.8-0.25c16.85,0.15,33.71,0.81,50.47,2.67
				c0.39,0.04,0.9-0.34,0.96-0.73c0.27-1.68-0.76-3.47-2.62-3.42c-1.28,0.04-1.29,2.04,0,2c0.47-0.01,0.77,0.42,0.7,0.89
				c0.32-0.24,0.64-0.49,0.96-0.73c-29.66-3.3-59.56-2.79-89.35-2.49c-30.03,0.31-60.06,0.62-90.09,0.93
				c-16.08,0.17-32.47,0.79-48.14-3.49C27.03,110.08,26.5,112.01,27.74,112.35L27.74,112.35z"/>
		</g>
	</g>
</g>
<g>
	<g>
		<g>
			<path class="st0" d="M132.66,38.31c1.64-4.9,3.62-9.69,5.94-14.31c0.57-1.13,1.15-2.25,1.76-3.36c0.27-0.5,0.55-1.01,0.84-1.5
				c0,0,0.26-0.41,0.27-0.4c-0.1,0.01-0.19,0.02-0.29,0.03c0.02,0.02,0.03,0.04,0.05,0.05c0.01,0.06,0.22,0.31,0.25,0.36
				c1.45,2.32,2.83,4.68,4.25,7.01c1.63,2.69,3.26,5.39,4.89,8.08c0.36,0.59,1.4,0.71,1.73,0c0.33-0.72,0.66-1.44,0.99-2.16
				c0.22-0.49,0.14-1.08-0.36-1.37c-0.43-0.25-1.14-0.13-1.37,0.36c-0.33,0.72-0.66,1.44-0.99,2.16c0.58,0,1.15,0,1.73,0
				c-1.59-2.62-3.18-5.24-4.76-7.87c-0.79-1.31-1.59-2.62-2.38-3.93c-0.75-1.23-1.43-2.57-2.29-3.73c-0.77-1.03-2.11-1.3-3-0.24
				c-0.41,0.49-0.69,1.08-0.99,1.63c-0.35,0.64-0.7,1.28-1.04,1.92c-1.31,2.48-2.52,5.02-3.63,7.6c-1.29,3-2.46,6.04-3.5,9.14
				C130.32,39,132.25,39.53,132.66,38.31L132.66,38.31z"/>
		</g>
	</g>
	<g>
		<g>
			<path class="st0" d="M134.07,181.51c1.59,3.79,3.51,7.42,5.82,10.82c0.54,0.79,1.06,1.7,1.74,2.39c0.76,0.77,1.84,0.61,2.52-0.16
				c1.39-1.59,2.58-3.41,3.8-5.13c1.44-2.01,2.84-4.05,4.2-6.11c0.71-1.08-1.02-2.08-1.73-1.01c-1.36,2.06-2.76,4.1-4.2,6.11
				c-0.69,0.97-1.4,1.93-2.11,2.89c-0.33,0.45-0.66,0.89-1,1.33c-0.05,0.07-0.51,0.56-0.5,0.63c0.42,0.13,0.54,0.12,0.36-0.04
				c-0.09-0.12-0.18-0.24-0.26-0.36c-2.68-3.69-4.94-7.69-6.7-11.9c-0.21-0.5-0.66-0.85-1.23-0.7
				C134.3,180.41,133.86,181.01,134.07,181.51L134.07,181.51z"/>
		</g>
	</g>
	<g>
		<g>
			<path class="st0" d="M140.07,18.29c-0.36,22.73-0.5,45.45-0.44,68.18c0.07,22.62,0.35,45.23,0.84,67.84
				c0.28,12.76,0.62,25.51,1.03,38.26c0.04,1.28,2.04,1.29,2,0c-0.73-22.72-1.25-45.45-1.56-68.18c-0.3-22.61-0.4-45.23-0.28-67.84
				c0.07-12.75,0.2-25.51,0.4-38.26C142.09,17,140.09,17,140.07,18.29L140.07,18.29z"/>
		</g>
	</g>
</g>
<line class="st1" x1="278.19" y1="73" x2="277.82" y2="73.37"/>
<g>
	<g>
		<g>
			<path class="st2" d="M230.12,47.62c-0.59-1.73-1.17-3.47-1.76-5.2c-0.46-1.35-0.8-3.11-2.07-3.97c-0.62-0.42-1.39-0.48-2.07-0.17
				c-0.31,0.14-0.6,0.35-0.84,0.6c-0.08,0.09-0.15,0.18-0.23,0.28c-0.22,0.29,0.01-0.01-0.08,0.11c-0.51,0.62-1.07,1.18-1.66,1.72
				c-1.19,1.09-2.45,2.1-3.73,3.08c-0.43,0.33-0.66,0.86-0.36,1.37c0.25,0.42,0.94,0.69,1.37,0.36c2.04-1.57,4.27-3.17,5.88-5.22
				c0.07-0.08,0.13-0.17,0.2-0.25c-0.08,0.1-0.1,0.12-0.04,0.05c0.07-0.08,0.14-0.17,0.23-0.23c0.19-0.12,0.15-0.1,0.28,0
				c0.56,0.44,0.74,1.46,0.95,2.09c0.67,1.97,1.33,3.94,2,5.92C228.6,49.36,230.53,48.84,230.12,47.62L230.12,47.62z"/>
		</g>
	</g>
	<g>
		<g>
			<path class="st2" d="M42.22,173.07c1.38,3.95,2.77,7.89,4.15,11.84c0.28,0.8,1.36,1.01,1.83,0.24c2.23-3.7,5.88-6.37,10.06-7.42
				c1.25-0.31,0.72-2.24-0.53-1.93c-4.68,1.17-8.77,4.21-11.26,8.34c0.61,0.08,1.22,0.16,1.83,0.24c-1.38-3.95-2.77-7.89-4.15-11.84
				C43.73,171.33,41.8,171.85,42.22,173.07L42.22,173.07z"/>
		</g>
	</g>
	<g>
		<g>
			<path class="st2" d="M48.47,182.56c3.66-10.15,7.31-20.3,10.97-30.46c3.42-9.48,6.73-19.01,10.31-28.44
				c3.13-8.24,6.6-16.41,11.13-23.99c4.43-7.42,10.03-14.78,17.21-19.74c3.65-2.51,7.94-4.49,12.45-4.34
				c4.8,0.16,8.72,3.1,12.37,5.93c6.94,5.38,13.49,11.32,20.93,16.02c7.38,4.66,15.68,7.84,24.51,7.67
				c9.1-0.18,17.79-3.61,24.67-9.55c7.08-6.12,12.43-14.24,17.36-22.11c5.23-8.36,9.8-17.12,13.66-26.19
				c0.92-2.17,1.81-4.36,2.66-6.57c0.46-1.2-1.47-1.72-1.93-0.53c-3.54,9.22-7.82,18.16-12.76,26.71c-2.5,4.31-5.16,8.53-7.99,12.63
				c-2.64,3.83-5.41,7.59-8.6,10.98c-3.14,3.34-6.68,6.29-10.74,8.43c-3.99,2.11-8.42,3.47-12.91,3.97
				c-8.93,0.99-17.45-1.55-25.09-6.06c-7.56-4.46-14.13-10.33-20.99-15.75c-3.55-2.81-7.25-5.93-11.73-7.09
				c-4.36-1.13-8.88-0.16-12.86,1.77c-4.01,1.94-7.48,4.83-10.61,7.97c-3.09,3.1-5.85,6.53-8.32,10.13
				c-4.97,7.24-8.75,15.22-12.05,23.33c-3.61,8.86-6.72,17.93-9.96,26.92c-3.66,10.15-7.31,20.3-10.97,30.46
				c-0.88,2.45-1.77,4.91-2.65,7.36C46.11,183.24,48.04,183.76,48.47,182.56L48.47,182.56z"/>
		</g>
	</g>
</g>
<g>
	<g>
		<g>
			<path class="st2" d="M192.89,40.74c-0.61-3.53-0.57-7.19,0.17-10.7c0.29-1.36,0.76-2.88,2.26-3.28c1.11-0.29,2.41,0.08,3.07,1.05
				c0.36,0.53,1.23,0.03,0.86-0.5c-0.8-1.18-2.2-1.77-3.62-1.61c-1.57,0.18-2.62,1.24-3.16,2.69c-0.69,1.88-0.88,4.06-0.98,6.04
				c-0.11,2.2,0.05,4.41,0.43,6.58C192.03,41.64,193,41.37,192.89,40.74L192.89,40.74z"/>
		</g>
	</g>
	<g>
		<g>
			<path class="st2" d="M189.34,33.52c2.47,0.4,4.97,0.65,7.47,0.75c0.64,0.03,0.64-0.97,0-1c-2.41-0.1-4.82-0.33-7.2-0.72
				c-0.27-0.04-0.53,0.07-0.62,0.35C188.93,33.14,189.08,33.48,189.34,33.52L189.34,33.52z"/>
		</g>
	</g>
	<g>
		<g>
			<path class="st2" d="M204.28,25.94c-1.87,2.93-3.26,6.16-4.15,9.52c-0.41,1.54-0.84,3.3-0.19,4.84c0.51,1.2,1.71,2.16,3.06,2.01
				c0.63-0.07,0.64-1.07,0-1c-1.42,0.17-2.29-1.19-2.38-2.46c-0.1-1.47,0.42-3.01,0.84-4.41c0.86-2.82,2.09-5.51,3.68-7.99
				C205.49,25.9,204.62,25.4,204.28,25.94L204.28,25.94z"/>
		</g>
	</g>
	<g>
		<g>
			<path class="st2" d="M207.28,31.54c1.52,2.8,3.04,5.61,4.56,8.41c0.31,0.57,1.17,0.06,0.86-0.5c-1.52-2.8-3.04-5.61-4.56-8.41
				C207.84,30.47,206.98,30.98,207.28,31.54L207.28,31.54z"/>
		</g>
	</g>
	<g>
		<g>
			<path class="st2" d="M212.67,31.04c-1.59,1.75-3.19,3.51-4.78,5.26c-0.39,0.43-0.79,0.87-1.18,1.3
				c-0.32,0.35-0.81,0.74-0.93,1.21c-0.27,1.05,1.47,1.17,1.28,0.09c-0.11-0.63-1.08-0.36-0.96,0.27c0,0.02,0.01,0.04,0.01,0.05
				c0.02-0.13,0.03-0.26,0.05-0.39c0.2,0.07,0.39,0.14,0.59,0.22c0.02-0.02,0.04-0.05,0.05-0.07c0.08-0.05,0.15-0.16,0.21-0.23
				c0.14-0.15,0.27-0.3,0.41-0.45c0.29-0.32,0.58-0.64,0.87-0.96c0.57-0.62,1.13-1.24,1.7-1.87c1.13-1.24,2.26-2.49,3.39-3.73
				C213.81,31.27,213.1,30.57,212.67,31.04L212.67,31.04z"/>
		</g>
	</g>
	<g>
		<g>
			<path class="st2" d="M215.18,25.73c0.9,3.13,1.39,6.35,1.44,9.61c0.03,2.49,0.2,6.95-3.03,7.55c-0.63,0.12-0.36,1.08,0.27,0.96
				c3.44-0.63,3.73-4.79,3.77-7.57c0.05-3.65-0.46-7.31-1.47-10.81C215.96,24.84,215,25.11,215.18,25.73L215.18,25.73z"/>
		</g>
	</g>
</g>
<g>
	<g>
		<g>
			<path class="st3" d="M286.54,46.93c-1.17-2.1-2.33-4.19-3.5-6.29c-0.86-1.55-2-2.96-3.93-3.02c-0.87-0.03-1.77,0.27-2.47,0.78
				c-0.12,0.08-0.23,0.18-0.34,0.27c-0.17,0.14,0.11-0.08-0.04,0.03c-0.16,0.12-0.32,0.23-0.48,0.34c-0.91,0.62-1.88,1.17-2.85,1.69
				c-1.91,1.03-3.86,1.96-5.82,2.88c-0.49,0.23-0.61,0.93-0.36,1.37c0.29,0.5,0.88,0.59,1.37,0.36c2.71-1.26,5.46-2.54,8.01-4.13
				c0.33-0.21,0.66-0.42,0.97-0.65c0.18-0.13,0.35-0.26,0.52-0.4c0.05-0.04,0.1-0.08,0.15-0.12c0.1-0.07-0.15,0.1,0.01,0
				c0.07-0.05,0.15-0.1,0.23-0.14c1.48-0.82,2.52,0.34,3.19,1.54c1.21,2.17,2.41,4.34,3.62,6.5
				C285.44,49.07,287.17,48.06,286.54,46.93L286.54,46.93z"/>
		</g>
	</g>
	<g>
		<g>
			<path class="st3" d="M-21.45,172.87c2.28,3.95,4.56,7.89,6.84,11.84c0.32,0.56,1.12,0.66,1.57,0.2
				c4.46-4.51,10.98-6.7,17.12-7.62c0.53-0.08,0.83-0.75,0.7-1.23c-0.16-0.57-0.69-0.78-1.23-0.7c-6.48,0.98-13.3,3.39-18,8.14
				c0.52,0.07,1.05,0.13,1.57,0.2c-2.28-3.95-4.56-7.89-6.84-11.84C-20.36,170.74-22.09,171.75-21.45,172.87L-21.45,172.87z"/>
		</g>
	</g>
	<g>
		<g>
			<path class="st3" d="M-12.61,182.36c7.3-12.3,14.59-24.6,21.89-36.9c5.89-9.93,11.56-20.04,18.11-29.56
				c6.13-8.91,13.22-17.16,21.66-23.97c9.43-7.61,20.58-13.9,32.62-16.07c6.59-1.19,13.28-0.88,19.66,1.19
				c5.65,1.83,11,4.61,16.31,7.22c10.46,5.13,20.87,10.46,31.88,14.33c23.14,8.13,49.86,8.91,72.46-1.48
				c11.06-5.08,20.53-12.96,29.35-21.22c9.09-8.51,17.44-17.84,24.67-28c1.7-2.39,3.33-4.83,4.9-7.31c0.69-1.09-1.04-2.1-1.73-1.01
				c-6.68,10.54-14.58,20.25-23.34,29.13c-8.63,8.75-18.01,17.34-28.71,23.49c-21.97,12.64-49.59,13.22-73.34,5.7
				c-11.32-3.58-21.96-8.88-32.59-14.12c-5.14-2.53-10.27-5.14-15.58-7.3c-5.92-2.4-12.11-3.64-18.51-3.28
				c-12.16,0.68-23.61,6.03-33.51,12.85c-9.08,6.25-16.88,14.05-23.57,22.79c-6.47,8.46-11.85,17.67-17.27,26.81
				c-7.25,12.22-14.49,24.43-21.74,36.65c-1.79,3.01-3.57,6.02-5.36,9.04C-14.99,182.46-13.26,183.46-12.61,182.36L-12.61,182.36z"
				/>
		</g>
	</g>
</g>
<g>
	<g>
		<g>
			<path class="st3" d="M251.37,32.59c-0.61-3.53-0.57-7.19,0.17-10.7c0.29-1.36,0.76-2.88,2.26-3.28c1.11-0.29,2.41,0.08,3.07,1.05
				c0.36,0.53,1.23,0.03,0.86-0.5c-0.8-1.18-2.2-1.77-3.62-1.61c-1.57,0.18-2.62,1.24-3.16,2.69c-0.69,1.88-0.88,4.06-0.98,6.04
				c-0.11,2.2,0.05,4.41,0.43,6.58C250.52,33.49,251.48,33.22,251.37,32.59L251.37,32.59z"/>
		</g>
	</g>
	<g>
		<g>
			<path class="st3" d="M247.83,25.37c2.47,0.4,4.97,0.65,7.47,0.75c0.64,0.03,0.64-0.97,0-1c-2.41-0.1-4.82-0.33-7.2-0.72
				c-0.27-0.04-0.53,0.07-0.62,0.35C247.41,24.99,247.57,25.32,247.83,25.37L247.83,25.37z"/>
		</g>
	</g>
	<g>
		<g>
			<path class="st3" d="M262.76,17.78c-1.87,2.93-3.26,6.16-4.15,9.52c-0.41,1.54-0.84,3.3-0.19,4.84c0.51,1.2,1.71,2.16,3.06,2.01
				c0.63-0.07,0.64-1.07,0-1c-1.42,0.17-2.29-1.19-2.38-2.46c-0.1-1.47,0.42-3.01,0.84-4.41c0.86-2.82,2.09-5.51,3.68-7.99
				C263.97,17.74,263.11,17.24,262.76,17.78L262.76,17.78z"/>
		</g>
	</g>
	<g>
		<g>
			<path class="st3" d="M275.22,23.8c1.52,2.8,3.04,5.61,4.56,8.41c0.31,0.57,1.17,0.06,0.86-0.5c-1.52-2.8-3.04-5.61-4.56-8.41
				C275.78,22.73,274.91,23.23,275.22,23.8L275.22,23.8z"/>
		</g>
	</g>
	<g>
		<g>
			<path class="st3" d="M280.6,23.3c-1.59,1.75-3.19,3.51-4.78,5.26c-0.39,0.43-0.79,0.87-1.18,1.3c-0.32,0.35-0.81,0.74-0.93,1.21
				c-0.27,1.05,1.47,1.17,1.28,0.09c-0.11-0.63-1.08-0.36-0.96,0.27c0,0.02,0.01,0.04,0.01,0.05c0.02-0.13,0.03-0.26,0.05-0.39
				c0.2,0.07,0.39,0.14,0.59,0.22c0.02-0.02,0.04-0.05,0.05-0.07c0.08-0.05,0.15-0.16,0.21-0.23c0.14-0.15,0.27-0.3,0.41-0.45
				c0.29-0.32,0.58-0.64,0.87-0.96c0.57-0.62,1.13-1.24,1.7-1.87c1.13-1.24,2.26-2.49,3.39-3.73
				C281.74,23.53,281.04,22.82,280.6,23.3L280.6,23.3z"/>
		</g>
	</g>
	<g>
		<g>
			<path class="st3" d="M283.77,18.49c3.03,5.01,1.91,11.95-2.51,15.78c-0.49,0.42,0.22,1.13,0.71,0.71
				c4.75-4.11,5.91-11.62,2.66-16.99C284.3,17.43,283.43,17.94,283.77,18.49L283.77,18.49z"/>
		</g>
	</g>
	<g>
		<g>
			<path class="st3" d="M266.08,21.23c-0.12,4.36-0.24,8.72-0.37,13.08c-0.02,0.64,0.98,0.64,1,0c0.12-4.36,0.24-8.72,0.37-13.08
				C267.1,20.58,266.1,20.58,266.08,21.23L266.08,21.23z"/>
		</g>
	</g>
	<g>
		<g>
			<path class="st3" d="M267.11,26.35c1.32-0.97,2.74-1.81,4.21-2.52c0.24-0.12,0.31-0.46,0.18-0.68c-0.15-0.25-0.44-0.3-0.68-0.18
				c-1.47,0.71-2.89,1.55-4.21,2.52c-0.22,0.16-0.33,0.43-0.18,0.68C266.55,26.39,266.89,26.51,267.11,26.35L267.11,26.35z"/>
		</g>
	</g>
	<g>
		<g>
			<path class="st3" d="M266.43,26.59c1.54,2.39,2.74,4.98,3.73,7.64c0.22,0.6,1.19,0.34,0.96-0.27c-1.02-2.74-2.24-5.42-3.83-7.88
				C266.95,25.55,266.08,26.05,266.43,26.59L266.43,26.59z"/>
		</g>
	</g>
	<g>
		<g>
			<path class="st3" d="M273.08,26.27c-0.04,0.01-0.08,0-0.13,0c-0.05,0,0.15,0.04,0.06,0.01c-0.02-0.01-0.03-0.01-0.05-0.02
				c0.22,0.05,0.01,0.03,0.01-0.01c0,0,0.11,0.1,0.05,0.03c-0.01-0.01-0.02-0.03-0.04-0.04c-0.04-0.04-0.02-0.07,0.03,0.05
				c-0.01-0.01-0.02-0.03-0.03-0.05c-0.03-0.05-0.06-0.16-0.01,0c-0.01-0.04-0.03-0.07-0.04-0.11c-0.01-0.03-0.03-0.18-0.02-0.07
				c0.01,0.11,0-0.03,0-0.06c0-0.02,0-0.04,0-0.06c0-0.05,0.03-0.1-0.01,0.05c0.01-0.04,0.01-0.07,0.02-0.11
				c0.01-0.02,0.01-0.03,0.02-0.05c0.02-0.07-0.06,0.11-0.02,0.05c0.01-0.01,0.02-0.03,0.03-0.05c0.03-0.05,0.06-0.04-0.04,0.04
				c0.01-0.01,0.02-0.03,0.03-0.04c0.06-0.07-0.05,0.03-0.05,0.03c0-0.01,0.03-0.02,0.04-0.03c0.08-0.05-0.05,0.01-0.05,0.02
				c0.02-0.02,0.11-0.03,0.13-0.03c-0.13-0.02-0.26-0.03-0.39-0.05c0.05,0.02,0.09,0.04,0.13,0.07c0.02,0.01,0.04,0.03,0.06,0.04
				c-0.12-0.06-0.06-0.05-0.02-0.02c0.04,0.03,0.07,0.07,0.1,0.11c0.06,0.07,0,0.01-0.02-0.02c0.01,0.02,0.03,0.04,0.04,0.06
				c0.03,0.04,0.05,0.09,0.07,0.13c0.01,0.02,0.02,0.05,0.03,0.07c-0.07-0.13-0.03-0.07-0.01-0.03c0.02,0.05,0.03,0.1,0.04,0.15
				c0.01,0.02,0.01,0.05,0.02,0.07c0.02,0.12,0-0.06,0-0.02c0.01,0.1,0.01,0.2,0.01,0.3c-0.01,0.11,0.02-0.08,0.01-0.03
				c-0.01,0.02-0.01,0.05-0.01,0.07c-0.01,0.05-0.02,0.1-0.04,0.14c-0.01,0.02-0.02,0.05-0.03,0.07c-0.02,0.05,0.06-0.12,0.01-0.03
				c-0.02,0.04-0.05,0.09-0.07,0.13c-0.01,0.02-0.07,0.09-0.01,0.02c0.05-0.07,0,0-0.02,0.02c-0.04,0.04-0.08,0.08-0.12,0.11
				c0.2-0.03,0.4-0.05,0.61-0.08c-0.01-0.01-0.03-0.02-0.04-0.03c-0.03-0.02-0.02-0.01,0.04,0.03c0,0-0.06-0.05-0.06-0.05
				c-0.04-0.04-0.08-0.09-0.12-0.13c0.08,0.08,0.03,0.04,0,0c-0.01-0.02-0.03-0.04-0.04-0.07c-0.01-0.02-0.03-0.05-0.04-0.07
				c-0.01-0.01-0.01-0.03-0.02-0.04c-0.02-0.03-0.01-0.02,0.02,0.05c0.01-0.01-0.05-0.14-0.05-0.15c-0.01-0.03-0.02-0.06-0.02-0.09
				c0-0.01,0-0.02-0.01-0.03c-0.01-0.05-0.01-0.04,0,0.04c0.01-0.02-0.01-0.13-0.01-0.16c0-0.03,0-0.06,0.01-0.1
				c0.01-0.1-0.02,0.11,0,0.01c-0.12,0.12-0.23,0.23-0.35,0.35c-0.15,0.02,0,0,0.04,0c0.03,0,0.07,0,0.1,0
				c0.06,0.01,0.05,0-0.03-0.01c0.02,0,0.04,0.01,0.07,0.01c0.04,0.01,0.08,0.02,0.12,0.03c0.12,0.04-0.06-0.04,0.02,0.01
				c0.04,0.02,0.07,0.04,0.11,0.06c0.01,0.01,0.03,0.02,0.04,0.03c0.04,0.03,0.04,0.03-0.02-0.02c0.03,0.01,0.08,0.07,0.1,0.09
				c-0.05-0.12-0.1-0.24-0.15-0.35c-0.01,0.1,0.03-0.11,0-0.03c-0.01,0.02-0.02,0.05-0.02,0.08c0.03-0.08,0.04-0.09,0.02-0.05
				c0,0.01-0.01,0.02-0.01,0.02c-0.01,0.02-0.03,0.05-0.04,0.07c-0.05,0.08,0.07-0.08,0.01-0.02c-0.02,0.02-0.04,0.04-0.06,0.06
				c-0.01,0.01-0.03,0.02-0.04,0.04c0.02-0.02,0.04-0.03,0.06-0.05c-0.03,0.01-0.06,0.04-0.08,0.05c-0.02,0.01-0.05,0.02-0.07,0.04
				c-0.04,0.02,0.12-0.04,0.02-0.01c-0.03,0.01-0.05,0.01-0.08,0.02c-0.1,0.03,0.07,0,0.03,0c-0.03,0-0.05,0-0.08,0
				c-0.02,0-0.12-0.01-0.03,0c0.09,0.01,0-0.01-0.02-0.01c-0.11-0.02,0.09,0.05,0.01,0.01c0.08,0.14,0.17,0.29,0.25,0.43
				c-0.01-0.68-0.2-1.36-0.55-1.94c-0.14-0.22-0.45-0.33-0.68-0.18c-0.22,0.14-0.32,0.45-0.18,0.68c0.07,0.12,0.14,0.25,0.2,0.38
				c0.05,0.12-0.04-0.1,0.01,0.02c0.01,0.03,0.02,0.06,0.03,0.09c0.02,0.07,0.05,0.13,0.07,0.2c0.04,0.13,0.09,0.28,0.09,0.42
				c0-0.06-0.01-0.06,0,0c0,0.03,0.01,0.06,0.01,0.1c0.01,0.08,0.01,0.15,0.01,0.23c0,0.17,0.09,0.36,0.25,0.43
				c0.31,0.15,0.65,0.19,0.98,0.07c0.32-0.11,0.61-0.33,0.77-0.63c0.09-0.18,0.16-0.39,0.13-0.59c-0.03-0.25-0.28-0.44-0.49-0.56
				c-0.36-0.21-0.76-0.26-1.16-0.19c-0.16,0.02-0.32,0.2-0.35,0.35c-0.14,0.76,0.16,1.5,0.79,1.93c0.2,0.13,0.44,0.06,0.61-0.08
				c0.79-0.64,0.74-1.94,0.08-2.65c-0.08-0.09-0.19-0.17-0.29-0.24c-0.17-0.12-0.36-0.19-0.58-0.15c-0.2,0.04-0.41,0.15-0.54,0.32
				c-0.28,0.34-0.35,0.8-0.22,1.22c0.14,0.47,0.57,0.91,1.1,0.84c0.14-0.02,0.25-0.04,0.35-0.15c0.09-0.09,0.15-0.23,0.15-0.35
				C273.57,26.52,273.36,26.23,273.08,26.27L273.08,26.27z"/>
		</g>
	</g>
</g>
</svg>
