<?xml version="1.0" encoding="utf-8"?>
<!-- Generator: Adobe Illustrator 23.1.1, SVG Export Plug-In . SVG Version: 6.00 Build 0)  -->
<svg version="1.1" id="Layer_1" xmlns="http://www.w3.org/2000/svg" xmlns:xlink="http://www.w3.org/1999/xlink" x="0px" y="0px"
	 viewBox="0 0 288 216" style="enable-background:new 0 0 288 216;" xml:space="preserve">
<style type="text/css">
	.st0{fill:#FFFFFF;}
</style>
<g>
	<path d="M66.43,95.44c33.52-2.97,67.2-4.13,100.85-3.49c-8.2-10.96-16.39-21.93-24.59-32.89c6.05-2.6,12.36-4.59,18.8-5.95
		c0.9-0.19,1.83-0.36,2.71-0.12c1.01,0.28,1.79,1.07,2.52,1.83c15.21,16.05,27.88,34.49,37.42,54.44
		c-11.32,12.99-22.64,25.99-33.96,38.98c-3.08,3.54-6.24,7.14-10.28,9.53c-0.48,0.28-1.01,0.56-1.57,0.52
		c-0.49-0.03-0.93-0.3-1.35-0.57c-5.43-3.41-10.86-6.83-16.3-10.24c10.23-9.96,20.01-20.4,29.28-31.25c-2.2-0.6-4.5-0.78-6.78-0.91
		c-26.8-1.5-53.64,3-80.46,1.82c-7.18-0.31-14.4-1.03-21.52-0.14"/>
</g>
<g>
	<g>
		<path class="st0" d="M115.5,95.96c-0.1,2.26-0.2,4.52-0.29,6.78c-0.05,1.15-0.09,2.3-0.14,3.45c-0.02,0.53-0.04,1.07-0.06,1.6
			c-0.02,0.52-0.09,1.05,0.14,1.54c0.5,1.04,1.72,0.97,2.34,0.09c0.53-0.75,0.61-1.76,1.19-2.46c0.4-0.48,1.19-0.76,1.77-0.47
			c0.43,0.22,0.74,0.77,0.42,1.2c-0.44,0.57-1.44,0.69-2.1,0.79c-1.21,0.17-2.44,0.28-3.65,0.42c-0.54,0.06-1,0.42-1,1
			c0,0.49,0.46,1.06,1,1c1.01-0.12,2.01-0.23,3.02-0.35c0.82-0.09,1.66-0.17,2.45-0.43c1.55-0.52,2.86-1.88,2.3-3.62
			c-0.53-1.65-2.32-2.45-3.94-1.98c-0.82,0.24-1.51,0.74-1.99,1.44c-0.26,0.38-0.43,0.8-0.6,1.23c-0.09,0.22-0.26,0.96-0.49,1.07
			c0.17-0.05,0.34-0.09,0.5-0.14c-0.04,0-0.08-0.01-0.13-0.01c0.17,0.05,0.34,0.09,0.5,0.14c-0.03-0.02-0.07-0.04-0.1-0.06
			c0.12,0.12,0.24,0.24,0.36,0.36c-0.13-0.18,0.02-1,0.03-1.24c0.02-0.49,0.04-0.99,0.06-1.48c0.04-1.11,0.09-2.22,0.13-3.33
			c0.09-2.18,0.18-4.36,0.28-6.54C117.56,94.68,115.56,94.68,115.5,95.96L115.5,95.96z"/>
	</g>
</g>
<g>
	<g>
		<path class="st0" d="M124.14,101.61c0.17,0.96-0.14,1.93,0.05,2.9c0.15,0.81,0.6,1.59,1.32,2.02c0.85,0.5,1.92,0.42,2.77-0.04
			c0.85-0.46,1.41-1.26,1.91-2.05c-0.61-0.26-1.22-0.51-1.83-0.77c-1.34,4.44-4.23,8.31-8.03,10.96c-1.05,0.73-0.05,2.47,1.01,1.73
			c4.23-2.95,7.46-7.2,8.95-12.16c0.33-1.11-1.23-1.71-1.83-0.77c-0.33,0.52-1.46,2.17-2.14,1.16c-0.26-0.4-0.22-0.93-0.2-1.38
			c0.04-0.73,0.08-1.4-0.05-2.12C125.84,99.82,123.91,100.35,124.14,101.61L124.14,101.61z"/>
	</g>
</g>
<g>
	<g>
		<path class="st0" d="M139.25,95.71c-0.53,4.87-0.12,9.8,1.13,14.53c0.25,0.94,1.7,0.97,1.93,0c0.38-1.59,0.72-3.18,1.14-4.76
			c0.25-0.96,0.68-1.78,1.65-2.17c0.5-0.2,1.16-0.34,1.64,0c0.42,0.29,0.64,0.88,0.81,1.34c0.25,0.66,0.39,1.36,0.4,2.06
			c0,0.38-0.02,0.75-0.1,1.12c-0.04,0.18-0.08,0.35-0.13,0.53c-0.02,0.08-0.23,0.51-0.09,0.36c0.15-0.09,0.29-0.17,0.44-0.26
			c-0.04,0.01-0.09,0.03-0.13,0.04c0.18,0,0.35,0,0.53,0c-0.03-0.01-0.06-0.02-0.08-0.03c0.23,0.23,0.47,0.47,0.7,0.7
			c-0.01-0.02-0.01-0.04-0.02-0.06c-0.03,0.26-0.07,0.51-0.1,0.77c0.01-0.02,0.02-0.03,0.03-0.05c-0.29,0.17-0.58,0.33-0.86,0.5
			c0.02,0,0.05,0,0.07,0.01c1.28,0.11,1.27-1.89,0-2c-0.02,0-0.05,0-0.07-0.01c-0.36-0.03-0.67,0.22-0.86,0.5
			c-0.8,1.17,0.99,2.17,1.85,1.23c0.37-0.4,0.51-1.07,0.62-1.59c0.13-0.57,0.2-1.17,0.19-1.76c-0.02-1.86-0.71-4.49-2.57-5.31
			c-1.89-0.84-4.28,0.26-5.25,1.98c-0.45,0.79-0.64,1.68-0.84,2.55c-0.3,1.26-0.6,2.52-0.9,3.79c0.64,0,1.29,0,1.93,0
			c-1.2-4.58-1.56-9.29-1.06-14c0.06-0.54-0.5-1-1-1C139.66,94.71,139.31,95.17,139.25,95.71L139.25,95.71z"/>
	</g>
</g>
<g>
	<g>
		<path class="st0" d="M75.57,99.53c-0.1,4.57-0.21,9.14-0.31,13.71c0.67,0,1.33,0,2,0c-0.02-0.25-0.04-0.51-0.05-0.76
			c-0.09-1.28-2.09-1.29-2,0c0.02,0.25,0.04,0.51,0.05,0.76c0.09,1.27,1.97,1.3,2,0c0.1-4.57,0.21-9.14,0.31-13.71
			C77.6,98.25,75.6,98.25,75.57,99.53L75.57,99.53z"/>
	</g>
</g>
<g>
	<g>
		<path class="st0" d="M81.54,109.49c1.72-0.05,3.48-0.77,4.07-2.52c0.54-1.63-0.61-3.43-2.37-3.43c-1.91,0-2.62,2.3-2.73,3.86
			c-0.12,1.66,0.47,3.33,1.56,4.57c1.2,1.36,3.02,2.13,4.83,2.1c1.29-0.02,1.29-2.02,0-2c-2.01,0.03-3.85-1.32-4.3-3.34
			c-0.21-0.95-0.11-2.06,0.38-2.91c0.08-0.13,0.21-0.26,0.26-0.28c-0.07,0.04,0.06-0.01,0.07-0.01c-0.03,0-0.12,0-0.02,0.02
			c0.12,0.02,0,0-0.01-0.01c0.07,0.02,0.13,0.03,0.2,0.06c-0.15-0.06,0.18,0.13,0.11,0.08c-0.05-0.04,0.15,0.17,0.11,0.12
			c0.02,0.02,0.02,0.05,0.03,0.08c0.05,0.15,0.04,0.13,0.03,0.26c-0.01,0.17-0.06,0.31-0.17,0.51c-0.09,0.15-0.24,0.31-0.41,0.42
			c-0.48,0.33-1.07,0.41-1.63,0.43C80.26,107.53,80.25,109.53,81.54,109.49L81.54,109.49z"/>
	</g>
</g>
<g>
	<g>
		<path class="st0" d="M93.18,112.52c-0.37-1.25-0.74-2.51-1.11-3.76c-0.29-1-0.69-2.03-0.8-3.07c-0.06-0.66-0.06-1.49,0.63-1.78
			c0.77-0.32,1.78,0.15,2.48,0.5c0.48,0.24,1.08,0.13,1.37-0.36c0.26-0.44,0.13-1.13-0.36-1.37c-1.17-0.58-2.51-1.08-3.83-0.76
			c-1.35,0.33-2.14,1.52-2.29,2.84c-0.14,1.23,0.25,2.46,0.6,3.62c0.46,1.55,0.92,3.11,1.37,4.66
			C91.62,114.29,93.55,113.76,93.18,112.52L93.18,112.52z"/>
	</g>
</g>
<g>
	<g>
		<path class="st0" d="M89.19,109.64c0.15-0.05,0.3-0.09,0.46-0.12c0.07-0.01,0.07-0.01-0.01,0c0.04,0,0.07-0.01,0.11-0.01
			c0.07,0,0.14-0.01,0.21-0.01c0.32-0.01,0.64,0.01,0.96,0.03c0.6,0.05,1.2,0.13,1.8,0.08c1.2-0.1,2.45-0.55,3.03-1.68
			c0.24-0.46,0.14-1.11-0.36-1.37c-0.46-0.24-1.11-0.14-1.37,0.36c-0.04,0.07-0.19,0.29-0.05,0.13c-0.07,0.09-0.17,0.16-0.24,0.25
			c-0.07,0.08,0.12-0.06,0.02-0.02c-0.04,0.02-0.09,0.06-0.13,0.08c-0.04,0.03-0.1,0.04-0.14,0.07c-0.11,0.08,0.15-0.05,0.02-0.01
			c-0.22,0.07-0.44,0.14-0.67,0.18c-0.11,0.02-0.07,0,0.02,0c-0.06,0-0.11,0.01-0.17,0.01c-0.12,0.01-0.25,0.01-0.37,0.01
			c-1.24,0-2.44-0.31-3.66,0.08c-0.5,0.16-0.87,0.7-0.7,1.23C88.12,109.43,88.65,109.81,89.19,109.64L89.19,109.64z"/>
	</g>
</g>
<g>
	<g>
		<path class="st0" d="M99.28,104.11c1.94-0.71,3.89-1.43,5.83-2.14c0.49-0.18,0.87-0.69,0.7-1.23c-0.16-0.48-0.7-0.89-1.23-0.7
			c-1.94,0.71-3.89,1.43-5.83,2.14c-0.49,0.18-0.87,0.69-0.7,1.23C98.21,103.89,98.76,104.3,99.28,104.11L99.28,104.11z"/>
	</g>
</g>
<g>
	<g>
		<path class="st0" d="M100.67,97.56c-0.11,5.53-0.22,11.07-0.33,16.6c-0.01,0.55,0.47,0.99,1,1c0.23,0.01,0.46,0.01,0.69,0.02
			c1.29,0.03,1.29-1.97,0-2c-0.23-0.01-0.46-0.01-0.69-0.02c0.33,0.33,0.67,0.67,1,1c0.11-5.53,0.22-11.07,0.33-16.6
			C102.7,96.27,100.7,96.27,100.67,97.56L100.67,97.56z"/>
	</g>
</g>
</svg>
