<?xml version="1.0" encoding="utf-8"?>
<!-- Generator: Adobe Illustrator 23.1.1, SVG Export Plug-In . SVG Version: 6.00 Build 0)  -->
<svg version="1.1" id="Layer_1" xmlns="http://www.w3.org/2000/svg" xmlns:xlink="http://www.w3.org/1999/xlink" x="0px" y="0px"
	 viewBox="0 0 288 216" style="enable-background:new 0 0 288 216;" xml:space="preserve">
<g>
	<path d="M66.43,95.44c33.52-2.97,67.2-4.13,100.85-3.49c-8.2-10.96-16.39-21.93-24.59-32.89c6.05-2.6,12.36-4.59,18.8-5.95
		c0.9-0.19,1.83-0.36,2.71-0.12c1.01,0.28,1.79,1.07,2.52,1.83c15.21,16.05,27.88,34.49,37.42,54.44
		c-11.32,12.99-22.64,25.99-33.96,38.98c-3.08,3.54-6.24,7.14-10.28,9.53c-0.48,0.28-1.01,0.56-1.57,0.52
		c-0.49-0.03-0.93-0.3-1.35-0.57c-5.43-3.41-10.86-6.83-16.3-10.24c10.23-9.96,20.01-20.4,29.28-31.25c-2.2-0.6-4.5-0.78-6.78-0.91
		c-26.8-1.5-53.64,3-80.46,1.82c-7.18-0.31-14.4-1.03-21.52-0.14"/>
</g>
</svg>
