<?xml version="1.0" encoding="utf-8"?>
<!-- Generator: Adobe Illustrator 23.1.1, SVG Export Plug-In . SVG Version: 6.00 Build 0)  -->
<svg version="1.1" id="Layer_1" xmlns="http://www.w3.org/2000/svg" xmlns:xlink="http://www.w3.org/1999/xlink" x="0px" y="0px"
	 viewBox="0 0 288 216" style="enable-background:new 0 0 288 216;" xml:space="preserve">
<style type="text/css">
	.st0{fill:#FFFFFF;}
</style>
<g>
	<path d="M66.43,95.44c33.52-2.97,67.2-4.13,100.85-3.49c-8.2-10.96-16.39-21.93-24.59-32.89c6.05-2.6,12.36-4.59,18.8-5.95
		c0.9-0.19,1.83-0.36,2.71-0.12c1.01,0.28,1.79,1.07,2.52,1.83c15.21,16.05,27.88,34.49,37.42,54.44
		c-11.32,12.99-22.64,25.99-33.96,38.98c-3.08,3.54-6.24,7.14-10.28,9.53c-0.48,0.28-1.01,0.56-1.57,0.52
		c-0.49-0.03-0.93-0.3-1.35-0.57c-5.43-3.41-10.86-6.83-16.3-10.24c10.23-9.96,20.01-20.4,29.28-31.25c-2.2-0.6-4.5-0.78-6.78-0.91
		c-26.8-1.5-53.64,3-80.46,1.82c-7.18-0.31-14.4-1.03-21.52-0.14"/>
</g>
<g>
	<g>
		<path class="st0" d="M115.5,95.96c-0.1,2.26-0.2,4.52-0.29,6.78c-0.05,1.15-0.09,2.3-0.14,3.45c-0.02,0.53-0.04,1.07-0.06,1.6
			c-0.02,0.52-0.09,1.05,0.14,1.54c0.5,1.04,1.72,0.97,2.34,0.09c0.53-0.75,0.61-1.76,1.19-2.46c0.4-0.48,1.19-0.76,1.77-0.47
			c0.43,0.22,0.74,0.77,0.42,1.2c-0.44,0.57-1.44,0.69-2.1,0.79c-1.21,0.17-2.44,0.28-3.65,0.42c-0.54,0.06-1,0.42-1,1
			c0,0.49,0.46,1.06,1,1c1.01-0.12,2.01-0.23,3.02-0.35c0.82-0.09,1.66-0.17,2.45-0.43c1.55-0.52,2.86-1.88,2.3-3.62
			c-0.53-1.65-2.32-2.45-3.94-1.98c-0.82,0.24-1.51,0.74-1.99,1.44c-0.26,0.38-0.43,0.8-0.6,1.23c-0.09,0.22-0.26,0.96-0.49,1.07
			c0.17-0.05,0.34-0.09,0.5-0.14c-0.04,0-0.08-0.01-0.13-0.01c0.17,0.05,0.34,0.09,0.5,0.14c-0.03-0.02-0.07-0.04-0.1-0.06
			c0.12,0.12,0.24,0.24,0.36,0.36c-0.13-0.18,0.02-1,0.03-1.24c0.02-0.49,0.04-0.99,0.06-1.48c0.04-1.11,0.09-2.22,0.13-3.33
			c0.09-2.18,0.18-4.36,0.28-6.54C117.56,94.68,115.56,94.68,115.5,95.96L115.5,95.96z"/>
	</g>
</g>
<g>
	<g>
		<path class="st0" d="M124.14,101.61c0.17,0.96-0.14,1.93,0.05,2.9c0.15,0.81,0.6,1.59,1.32,2.02c0.85,0.5,1.92,0.42,2.77-0.04
			c0.85-0.46,1.41-1.26,1.91-2.05c-0.61-0.26-1.22-0.51-1.83-0.77c-1.34,4.44-4.23,8.31-8.03,10.96c-1.05,0.73-0.05,2.47,1.01,1.73
			c4.23-2.95,7.46-7.2,8.95-12.16c0.33-1.11-1.23-1.71-1.83-0.77c-0.33,0.52-1.46,2.17-2.14,1.16c-0.26-0.4-0.22-0.93-0.2-1.38
			c0.04-0.73,0.08-1.4-0.05-2.12C125.84,99.82,123.91,100.35,124.14,101.61L124.14,101.61z"/>
	</g>
</g>
<g>
	<g>
		<path class="st0" d="M139.25,95.71c-0.53,4.87-0.12,9.8,1.13,14.53c0.25,0.94,1.7,0.97,1.93,0c0.38-1.59,0.72-3.18,1.14-4.76
			c0.25-0.96,0.68-1.78,1.65-2.17c0.5-0.2,1.16-0.34,1.64,0c0.42,0.29,0.64,0.88,0.81,1.34c0.25,0.66,0.39,1.36,0.4,2.06
			c0,0.38-0.02,0.75-0.1,1.12c-0.04,0.18-0.08,0.35-0.13,0.53c-0.02,0.08-0.23,0.51-0.09,0.36c0.15-0.09,0.29-0.17,0.44-0.26
			c-0.04,0.01-0.09,0.03-0.13,0.04c0.18,0,0.35,0,0.53,0c-0.03-0.01-0.06-0.02-0.08-0.03c0.23,0.23,0.47,0.47,0.7,0.7
			c-0.01-0.02-0.01-0.04-0.02-0.06c-0.03,0.26-0.07,0.51-0.1,0.77c0.01-0.02,0.02-0.03,0.03-0.05c-0.29,0.17-0.58,0.33-0.86,0.5
			c0.02,0,0.05,0,0.07,0.01c1.28,0.11,1.27-1.89,0-2c-0.02,0-0.05,0-0.07-0.01c-0.36-0.03-0.67,0.22-0.86,0.5
			c-0.8,1.17,0.99,2.17,1.85,1.23c0.37-0.4,0.51-1.07,0.62-1.59c0.13-0.57,0.2-1.17,0.19-1.76c-0.02-1.86-0.71-4.49-2.57-5.31
			c-1.89-0.84-4.28,0.26-5.25,1.98c-0.45,0.79-0.64,1.68-0.84,2.55c-0.3,1.26-0.6,2.52-0.9,3.79c0.64,0,1.29,0,1.93,0
			c-1.2-4.58-1.56-9.29-1.06-14c0.06-0.54-0.5-1-1-1C139.66,94.71,139.31,95.17,139.25,95.71L139.25,95.71z"/>
	</g>
</g>
<g>
	<g>
		<path class="st0" d="M68.62,98.83c-0.32,4.53,0.14,9.09,1.34,13.47c0.34,1.26,2.17,0.72,1.93-0.53c-0.46-2.39-0.41-4.89,0.2-7.25
			c0.25-0.97,0.6-2.02,1.37-2.71c0.62-0.55,1.53-0.82,2.27-0.38c1.11,0.65,2.12-1.08,1.01-1.73c-1.19-0.7-2.64-0.6-3.83,0.06
			c-1.24,0.69-2,1.96-2.46,3.26c-1.05,2.92-1.06,6.26-0.49,9.27c0.64-0.18,1.29-0.35,1.93-0.53c-1.16-4.22-1.58-8.58-1.26-12.94
			C70.71,97.54,68.71,97.55,68.62,98.83L68.62,98.83z"/>
	</g>
</g>
<g>
	<g>
		<path class="st0" d="M80.38,112.08c-0.09-2.44,0.02-4.89,0.33-7.31c0.07-0.54-0.51-1-1-1c-0.6,0-0.93,0.46-1,1
			c-0.3,2.43-0.41,4.87-0.33,7.31c0.02,0.54,0.45,1,1,1C79.91,113.08,80.4,112.62,80.38,112.08L80.38,112.08z"/>
	</g>
</g>
<g>
	<g>
		<path class="st0" d="M80.75,99.35c-0.03-0.02-0.06-0.04-0.09-0.06c0.07,0.05,0.13,0.1,0.2,0.16c-0.05-0.04-0.1-0.09-0.15-0.15
			c0.05,0.07,0.1,0.13,0.16,0.2c-0.05-0.06-0.08-0.12-0.11-0.19c0.03,0.08,0.07,0.16,0.1,0.24c-0.03-0.07-0.05-0.15-0.06-0.23
			c0.01,0.09,0.02,0.18,0.04,0.27c-0.01-0.08-0.01-0.16,0-0.24c-0.01,0.09-0.02,0.18-0.04,0.27c0.01-0.06,0.02-0.11,0.04-0.16
			c-0.41,0.23-0.82,0.47-1.23,0.7c0.04,0.01,0.07,0.02,0.11,0.03c-0.08-0.03-0.16-0.07-0.24-0.1c0.04,0.02,0.07,0.04,0.1,0.06
			c-0.07-0.05-0.13-0.1-0.2-0.16c0.04,0.03,0.07,0.06,0.1,0.1c-0.05-0.07-0.1-0.13-0.16-0.2c0.03,0.05,0.06,0.09,0.08,0.15
			c-0.03-0.08-0.07-0.16-0.1-0.24c0.02,0.05,0.04,0.11,0.04,0.16c-0.01-0.09-0.02-0.18-0.04-0.27c0.01,0.06,0.01,0.11,0,0.17
			c0.01-0.09,0.02-0.18,0.04-0.27c-0.01,0.05-0.02,0.09-0.04,0.14c0.03-0.08,0.07-0.16,0.1-0.24c-0.02,0.04-0.04,0.07-0.06,0.1
			c0.05-0.07,0.1-0.13,0.16-0.2c-0.02,0.02-0.04,0.05-0.06,0.07c-0.1,0.09-0.17,0.2-0.21,0.32c-0.06,0.12-0.09,0.25-0.09,0.39
			c-0.01,0.14,0.02,0.27,0.09,0.39c0.04,0.12,0.11,0.23,0.21,0.32c0.19,0.17,0.44,0.3,0.71,0.29c0.09-0.01,0.18-0.02,0.27-0.04
			c0.17-0.05,0.32-0.13,0.44-0.26c0.1-0.09,0.19-0.2,0.25-0.32c0.07-0.12,0.13-0.25,0.15-0.38c0.06-0.28,0.07-0.56-0.01-0.84
			c-0.04-0.13-0.09-0.26-0.16-0.38c-0.01-0.03-0.03-0.05-0.05-0.07c-0.06-0.09-0.13-0.18-0.2-0.25c-0.09-0.1-0.2-0.18-0.32-0.25
			c-0.12-0.06-0.25-0.13-0.39-0.15c-0.13-0.04-0.27-0.05-0.4-0.02c-0.13,0.01-0.26,0.05-0.37,0.12c-0.07,0.05-0.13,0.1-0.2,0.16
			c-0.12,0.12-0.21,0.27-0.26,0.44c-0.02,0.05-0.03,0.1-0.04,0.15c-0.02,0.12-0.05,0.27-0.04,0.4c0,0.14,0.03,0.28,0.05,0.41
			c0.01,0.05,0.02,0.1,0.04,0.15c0.05,0.12,0.09,0.25,0.16,0.37c0.06,0.11,0.15,0.22,0.23,0.32c0.03,0.04,0.07,0.08,0.11,0.11
			c0.1,0.09,0.21,0.18,0.33,0.24c0.11,0.07,0.24,0.11,0.37,0.12c0.13,0.03,0.27,0.02,0.4-0.02c0.13-0.03,0.24-0.09,0.34-0.18
			c0.11-0.07,0.19-0.16,0.26-0.28c0.03-0.08,0.07-0.16,0.1-0.24c0.05-0.18,0.05-0.35,0-0.53C81.13,99.7,80.98,99.48,80.75,99.35
			L80.75,99.35z"/>
	</g>
</g>
<g>
	<g>
		<path class="st0" d="M85.25,101.59c-0.75,1.31-1.42,3.05-1.14,4.57c0.27,1.47,1.72,2.23,3.13,1.96c1.41-0.28,2.26-1.55,2.42-2.91
			c0.19-1.62-0.6-3.07-1.42-4.41c-0.58,0.34-1.15,0.67-1.73,1.01c0.92,1.25,1.67,2.61,2.15,4.09c0.46,1.41,0.89,3.09,0.36,4.53
			c-0.94,2.56-4.25,2.89-5.95,0.93c-0.84-0.97-2.25,0.45-1.41,1.41c2.45,2.82,7.1,2.35,8.9-0.93c0.96-1.75,0.76-3.8,0.27-5.66
			c-0.51-1.94-1.4-3.78-2.59-5.38c-0.75-1.01-2.42-0.11-1.73,1.01c0.48,0.78,1.04,1.62,1.17,2.55c0.08,0.59-0.04,1.51-0.68,1.76
			c-1.89,0.74-0.33-2.99-0.02-3.52C87.62,101.48,85.89,100.47,85.25,101.59L85.25,101.59z"/>
	</g>
</g>
<g>
	<g>
		<path class="st0" d="M91.72,98.56c0.3,4.79,0.59,9.57,0.89,14.36c0.07,1.07,1.72,1.43,1.96,0.27c0.27-1.28,0.54-2.57,0.82-3.85
			c0.13-0.61,0.23-1.23,0.39-1.83c0.05-0.18,0.11-0.35,0.19-0.52c0.04-0.08,0.21-0.26,0.21-0.34c0-0.04-0.17,0.08-0.1-0.03
			c-0.06,0.11-0.07-0.14,0.01,0.09c0.07,0.22,0.21,0.44,0.29,0.66c0.21,0.56,0.38,1.14,0.5,1.73c0.12,0.57,0.2,1.15,0.24,1.74
			c0.02,0.3,0.02,0.6,0.02,0.9c0,0.15-0.01,0.3-0.01,0.45c0,0.09-0.09,0.39-0.01,0.26c0.12-0.12,0.24-0.24,0.36-0.36
			c-0.04,0.03-0.08,0.06-0.11,0.09c0.17-0.05,0.34-0.09,0.5-0.14c-0.04,0-0.07,0-0.11,0.01c0.17,0.05,0.34,0.09,0.5,0.14
			c-0.03-0.02-0.07-0.04-0.1-0.06c0.12,0.12,0.24,0.24,0.36,0.36c-0.02-0.03-0.04-0.06-0.07-0.09c0.05,0.17,0.09,0.34,0.14,0.5
			c0-0.03-0.01-0.06-0.01-0.1c-0.1,0.24-0.2,0.47-0.29,0.71c0.02-0.02,0.04-0.05,0.07-0.07c0.89-0.93-0.53-2.35-1.41-1.41
			c-0.74,0.78-0.16,2.07,0.93,2.02c1.23-0.06,1.28-1.5,1.28-2.42c0.01-1.93-0.34-4.14-1.28-5.85c-0.43-0.77-1.25-1.3-2.15-1.07
			c-0.78,0.19-1.3,0.88-1.6,1.58c-0.41,0.94-0.54,2.01-0.75,3.01c-0.24,1.12-0.48,2.25-0.71,3.37c0.65,0.09,1.31,0.18,1.96,0.27
			c-0.3-4.79-0.59-9.57-0.89-14.36C93.64,97.29,91.64,97.28,91.72,98.56L91.72,98.56z"/>
	</g>
</g>
<g>
	<g>
		<path class="st0" d="M99.46,103.85c3.13-0.79,6.27-1.59,9.4-2.38c1.25-0.32,0.72-2.24-0.53-1.93c-3.13,0.79-6.27,1.59-9.4,2.38
			C97.68,102.24,98.21,104.17,99.46,103.85L99.46,103.85z"/>
	</g>
</g>
<g>
	<g>
		<path class="st0" d="M103.3,96.31c0.09,5.16,0.26,10.31,0.5,15.46c0.03,0.67,0.61,1.11,1.27,0.96c0.67-0.14,1.07-0.6,1.3-1.22
			c0.19-0.5-0.21-1.1-0.7-1.23c-0.56-0.15-1.04,0.19-1.23,0.7c0.03-0.06,0.06-0.12,0.1-0.18c0.42,0.32,0.84,0.64,1.27,0.96
			c-0.24-5.15-0.41-10.31-0.5-15.46C105.27,95.02,103.27,95.02,103.3,96.31L103.3,96.31z"/>
	</g>
</g>
</svg>
