<?xml version="1.0" encoding="utf-8"?>
<!-- Generator: Adobe Illustrator 23.1.1, SVG Export Plug-In . SVG Version: 6.00 Build 0)  -->
<svg version="1.1" id="Layer_1" xmlns="http://www.w3.org/2000/svg" xmlns:xlink="http://www.w3.org/1999/xlink" x="0px" y="0px"
	 viewBox="0 0 288 216" style="enable-background:new 0 0 288 216;" xml:space="preserve">
<style type="text/css">
	.st0{fill:#A7A9AC;}
	.st1{fill:none;stroke:#000000;stroke-miterlimit:10;}
	.st2{fill:#ED1C24;}
</style>
<g>
	<g>
		<g>
			<path class="st0" d="M261.14,120.38c4.57-3.77,9.02-7.7,13.33-11.76c0.5-0.47,0.99-0.94,1.48-1.41c0.49-0.47,1.13-0.96,1.3-1.66
				c0.33-1.36-1.08-2.14-2.06-2.71c-1.89-1.11-3.98-1.82-6-2.63c-2.14-0.86-4.38-1.9-5.82-3.77c-0.12,0.46-0.24,0.91-0.36,1.37
				c0.34-0.21,0.69-0.19,0.98,0.09c0.93,0.89,2.34-0.52,1.41-1.41c-0.93-0.89-2.3-1.08-3.4-0.4c-0.42,0.25-0.69,0.93-0.36,1.37
				c2.65,3.44,6.79,4.43,10.57,6.12c0.91,0.41,1.8,0.86,2.64,1.42c0.12,0.08,0.24,0.18,0.36,0.25c0.02,0.02,0.05,0.03,0.07,0.05
				c0.09,0.11,0.1,0.09,0.03-0.07c-0.01-0.05-0.03-0.09-0.04-0.14c-0.07,0.08-0.15,0.15-0.23,0.22c-0.11,0.11-0.23,0.22-0.35,0.33
				c-0.55,0.53-1.1,1.05-1.66,1.58c-2.01,1.9-4.05,3.76-6.12,5.6c-2.37,2.1-4.77,4.15-7.21,6.16
				C258.73,119.79,260.15,121.2,261.14,120.38L261.14,120.38z"/>
		</g>
	</g>
	<g>
		<g>
			<path class="st0" d="M24.84,90.49c-4.11,1.71-8.03,3.83-11.67,6.39c-0.83,0.58-1.82,1.16-2.52,1.9
				c-0.81,0.85-0.63,1.93,0.12,2.74c1.56,1.72,3.36,3.27,5.07,4.85c1.96,1.81,3.95,3.58,5.98,5.32c0.97,0.83,2.39-0.57,1.41-1.41
				c-3.17-2.72-6.27-5.54-9.28-8.44c-0.37-0.36-0.74-0.72-1.12-1.08c-0.17-0.17-0.35-0.33-0.51-0.5c-0.04-0.05-0.12-0.16-0.18-0.19
				c-0.12-0.06-0.05,0.1-0.04,0.1c0.34-0.17,0.68-0.53,0.98-0.76c0.43-0.31,0.86-0.62,1.29-0.92c1.61-1.12,3.27-2.16,4.98-3.11
				c1.95-1.09,3.97-2.08,6.03-2.94c0.5-0.21,0.85-0.66,0.7-1.23C25.94,90.72,25.34,90.28,24.84,90.49L24.84,90.49z"/>
		</g>
	</g>
	<g>
		<g>
			<path class="st0" d="M11,101.62c16.37,4.2,33.36,4.12,50.15,3.98c17.44-0.15,34.88-0.3,52.32-0.45c34.77-0.3,69.57-1,104.35-0.65
				c19.4,0.19,38.8,0.93,58.1,2.96c0.4,0.04,0.9-0.34,0.96-0.73c0.32-1.85-0.91-3.66-2.9-3.61c-1.28,0.04-1.29,2.04,0,2
				c0.59-0.02,1.07,0.45,0.97,1.08c0.32-0.24,0.64-0.49,0.96-0.73c-34.47-3.63-69.18-3.11-103.78-2.81
				c-34.7,0.3-69.4,0.6-104.11,0.89c-18.85,0.16-38.06,0.87-56.49-3.85C10.28,99.37,9.75,101.3,11,101.62L11,101.62z"/>
		</g>
	</g>
</g>
<g>
	<g>
		<g>
			<path class="st0" d="M125.96,44.53c1.94-4.3,4.26-8.42,6.9-12.32c0.67-0.99,1.37-1.97,2.08-2.93c0.23-0.3,0.57-1.02,0.93-1.18
				c0.19-0.09,0.35,0.17,0.54,0.39c1.66,1.95,3.24,3.96,4.85,5.94c1.83,2.24,3.65,4.47,5.48,6.71c0.42,0.52,1.26,0.3,1.57-0.2
				c0.37-0.6,0.74-1.21,1.12-1.81c0.68-1.1-1.05-2.1-1.73-1.01c-0.37,0.6-0.74,1.21-1.12,1.81c0.52-0.07,1.05-0.13,1.57-0.2
				c-1.77-2.17-3.55-4.34-5.32-6.52c-0.86-1.05-1.72-2.11-2.58-3.16c-0.85-1.05-1.66-2.17-2.58-3.15c-0.76-0.82-1.91-1.15-2.88-0.47
				c-0.48,0.33-0.8,0.83-1.15,1.29c-0.4,0.53-0.79,1.06-1.17,1.59c-1.52,2.12-2.95,4.31-4.27,6.56c-1.45,2.48-2.77,5.04-3.96,7.66
				c-0.22,0.49-0.14,1.08,0.36,1.37C125.02,45.14,125.73,45.03,125.96,44.53L125.96,44.53z"/>
		</g>
	</g>
	<g>
		<g>
			<path class="st0" d="M128,164.56c1.84,3.25,4.07,6.29,6.59,9.05c0.6,0.66,1.2,1.4,1.91,1.93c0.81,0.61,1.75,0.47,2.49-0.16
				c1.51-1.28,2.87-2.82,4.24-4.24c1.6-1.66,3.16-3.34,4.69-5.06c0.85-0.96-0.56-2.38-1.41-1.41c-1.53,1.72-3.09,3.41-4.69,5.06
				c-0.83,0.86-1.67,1.71-2.52,2.56c-0.4,0.4-0.79,0.79-1.19,1.18c-0.15,0.15-0.42,0.32-0.54,0.5c0.2,0.06,0.24,0.05,0.1-0.02
				c-0.07-0.06-0.14-0.13-0.2-0.2c-3.03-3.02-5.64-6.46-7.75-10.19C129.09,162.43,127.37,163.44,128,164.56L128,164.56z"/>
		</g>
	</g>
	<g>
		<g>
			<path class="st0" d="M134.69,27.48c-0.4,19.05-0.57,38.1-0.49,57.15c0.08,18.96,0.39,37.91,0.95,56.86
				c0.31,10.69,0.7,21.38,1.17,32.07c0.06,1.28,2.06,1.29,2,0c-0.83-19.04-1.41-38.09-1.76-57.14c-0.34-18.95-0.45-37.91-0.31-56.86
				c0.08-10.69,0.23-21.38,0.45-32.07C136.72,26.19,134.72,26.19,134.69,27.48L134.69,27.48z"/>
		</g>
	</g>
</g>
<line class="st1" x1="278.19" y1="73" x2="277.82" y2="73.37"/>
<g>
	<g>
		<g>
			<path class="st2" d="M37.77,85.82c1.14,9.69,2.5,19.36,4.27,28.96c1.05,5.67,2.23,11.32,3.73,16.89
				c1.38,5.11,2.91,10.49,5.65,15.05c0.97,1.61,2.75,4.26,5.01,3.75c2.76-0.62,4.21-4.3,5.18-6.58c1.13-2.65,2.01-5.41,2.74-8.2
				c3.43-13.14,3.98-26.82,5.85-40.22c0.9-6.47,2.09-12.96,4.02-19.21c0.82-2.66,1.78-5.29,3.07-7.75c0.97-1.84,2.13-3.68,3.76-5
				c1.42-1.15,3.15-1.67,4.92-1.06c2.24,0.77,3.97,2.8,5.27,4.69c3.79,5.49,5.63,12.21,7.03,18.65c3.14,14.47,3.48,29.31,5.63,43.92
				c0.99,6.72,2.31,13.6,5.39,19.71c1.79,3.56,5.45,9.05,10.23,7.32c3.36-1.21,5.08-5.16,6.34-8.2c2.43-5.84,3.99-12.05,5.66-18.14
				c1.71-6.26,3.06-12.58,4.26-18.96c1.15-6.15,2.41-12.28,3.53-18.44c1.03-5.68,1.83-11.39,3.36-16.97
				c1.06-3.87,2.31-7.72,4.03-11.35c1.41-2.99,3.38-6.92,6.64-8.27c3.55-1.46,6.73,2.09,8.56,4.66c2.07,2.9,3.76,6.19,4.94,9.55
				c0.91,2.58,1.46,5.33,1.99,8.01c0.71,3.58,1.24,7.19,1.69,10.81c0.92,7.37,1.54,14.78,2.48,22.15
				c0.91,7.17,2.04,14.35,3.94,21.33c1.69,6.19,3.96,12.48,7.99,17.56c2.79,3.52,7.23,6.81,11.91,4.96c4.03-1.59,6.57-5.67,8.36-9.4
				c2.62-5.45,4.21-11.39,5.47-17.28c1.4-6.57,2.27-13.22,3.08-19.87c0.84-6.92,1.63-13.86,2.83-20.73
				c1.06-6.1,2.41-12.24,4.79-17.98c0.58-1.4,1.22-2.78,1.98-4.09c0.67-1.15,1.56-2.69,2.86-3.22c2.39-0.98,4.34,3.31,5.1,4.87
				c2.47,5.05,4.01,10.63,5.45,16.05c2.94,11.02,5.06,22.27,6.85,33.53c0.62,3.88,1.2,7.77,1.7,11.66c0.16,1.26,2.16,1.28,2,0
				c-1.22-9.53-2.8-19.02-4.67-28.43c-1.15-5.8-2.43-11.58-3.96-17.29c-1.43-5.38-3.01-10.83-5.35-15.89
				c-1.06-2.29-2.5-5.22-4.96-6.29c-2.54-1.11-4.66,0.87-6.02,2.84c-1.69,2.46-2.85,5.35-3.85,8.15c-1.03,2.88-1.84,5.84-2.52,8.83
				c-3.05,13.32-3.72,27.02-5.96,40.47c-1.05,6.31-2.4,12.62-4.52,18.67c-1.54,4.37-3.57,9.46-7.35,12.4
				c-1.49,1.16-3.34,1.85-5.24,1.48c-2.31-0.46-4.22-2.09-5.74-3.8c-4.36-4.89-6.64-11.47-8.33-17.68
				c-3.88-14.27-4.58-29.11-6.45-43.72c-0.45-3.54-0.97-7.07-1.67-10.57c-0.53-2.66-1.08-5.39-1.97-7.96
				c-1.19-3.4-2.86-6.74-4.9-9.7c-2.06-2.98-5.21-6.63-9.22-6.35c-3.57,0.24-6.12,3.36-7.87,6.18c-3.7,5.99-5.76,13.17-7.24,20.01
				c-0.48,2.23-0.82,4.48-1.21,6.73c-1.08,6.28-2.26,12.54-3.49,18.8c-1.08,5.49-2.06,11.01-3.33,16.46
				c-1.61,6.89-3.49,13.78-5.69,20.51c-0.78,2.39-1.62,4.79-2.73,7.06c-0.75,1.52-1.62,3.11-2.92,4.23
				c-3.67,3.15-7.26-2.07-8.8-4.94c-3.28-6.09-4.56-13.17-5.56-19.94c-1.08-7.37-1.64-14.8-2.41-22.2
				c-0.76-7.28-1.66-14.56-3.22-21.72c-1.39-6.38-3.22-12.97-6.8-18.5c-2.31-3.56-6.37-7.93-11.1-6.23
				c-4.02,1.44-6.35,5.83-7.93,9.51c-2.44,5.69-3.85,11.79-4.96,17.86c-1.22,6.7-1.94,13.47-2.7,20.23
				c-0.77,6.87-1.54,13.75-2.83,20.54c-1.11,5.84-2.48,12.1-5.49,17.3c-0.57,0.99-1.34,2.31-2.54,2.58
				c0.36-0.08,0.09,0.03-0.04-0.03c0.12,0.05,0.04,0.04-0.17-0.06c-0.14-0.07,0.16,0.08-0.06-0.03c-0.09-0.04-0.17-0.09-0.26-0.14
				c-0.24-0.15-0.27-0.18-0.51-0.4c-0.56-0.54-1.02-1.16-1.44-1.81c-2.83-4.46-4.32-9.89-5.68-14.95
				c-2.94-10.91-4.79-22.12-6.37-33.29c-0.57-4-1.08-8.01-1.55-12.02C39.62,84.56,37.62,84.54,37.77,85.82L37.77,85.82z"/>
		</g>
	</g>
	<g>
		<g>
			<path class="st2" d="M36.34,95c-0.05-2.92,0.52-5.87,1.75-8.53c0.07-0.14,0.44-0.66,0.07-0.51c-0.14-0.02-0.13,0.01,0.04,0.08
				c0.04,0.03,0.08,0.07,0.11,0.1c0.17,0.14,0.32,0.31,0.48,0.46c0.57,0.54,1.13,1.08,1.7,1.62c1.18,1.13,2.36,2.25,3.54,3.38
				c0.93,0.89,2.35-0.52,1.41-1.41c-1.37-1.31-2.74-2.61-4.11-3.92c-0.67-0.64-1.34-1.46-2.13-1.95c-0.84-0.53-1.84-0.39-2.44,0.42
				c-0.51,0.68-0.81,1.59-1.1,2.38c-0.31,0.82-0.56,1.66-0.76,2.51c-0.41,1.76-0.6,3.57-0.57,5.38C34.37,96.28,36.37,96.29,36.34,95
				L36.34,95z"/>
		</g>
	</g>
	<g>
		<g>
			<path class="st2" d="M239.72,126.67c1.89,1.84,3.78,3.68,5.67,5.52c0.44,0.43,1.27,0.38,1.57-0.2c1.52-2.98,2.74-6.1,3.62-9.32
				c0.34-1.24-1.59-1.77-1.93-0.53c-0.84,3.06-1.98,6.02-3.42,8.84c0.52-0.07,1.05-0.13,1.57-0.2c-1.89-1.84-3.78-3.68-5.67-5.52
				C240.22,124.35,238.8,125.77,239.72,126.67L239.72,126.67z"/>
		</g>
	</g>
</g>
<g>
	<g>
		<g>
			<path d="M131.72,55.92c1.63,0.2,3.27,0.25,4.91,0.14c0.27-0.02,0.5-0.22,0.5-0.5c0-0.26-0.23-0.52-0.5-0.5
				c-1.64,0.11-3.28,0.07-4.91-0.14c-0.27-0.03-0.5,0.25-0.5,0.5C131.22,55.72,131.45,55.89,131.72,55.92L131.72,55.92z"/>
		</g>
	</g>
	<g>
		<g>
			<g>
				<path d="M128.3,51.68c-0.42,2.53-0.66,5.09-0.7,7.65c-0.01,0.64,0.99,0.64,1,0c0.04-2.48,0.26-4.95,0.66-7.39
					C129.37,51.31,128.41,51.04,128.3,51.68L128.3,51.68z"/>
			</g>
		</g>
	</g>
</g>
<g>
	<g>
		<g>
			<path d="M134.63,158.13c1.51-0.88,3.26-1.24,5-1.06c0.27,0.03,0.5-0.25,0.5-0.5c0-0.29-0.23-0.47-0.5-0.5
				c-1.91-0.2-3.85,0.23-5.5,1.2C133.57,157.59,134.07,158.45,134.63,158.13L134.63,158.13z"/>
		</g>
	</g>
	<g>
		<g>
			<g>
				<path d="M142.42,156.6c0.77,0.21,1.6,0.24,2.39,0.13c0.73-0.1,1.45-0.3,2.04-0.75c0.21-0.17,0.17-0.53,0-0.71
					c-0.21-0.21-0.49-0.17-0.71,0c0.08-0.06-0.06,0.03-0.09,0.05c-0.06,0.04-0.12,0.07-0.18,0.1c-0.14,0.07-0.15,0.07-0.32,0.13
					c-0.28,0.09-0.66,0.18-0.9,0.2c-0.69,0.08-1.34,0.06-1.97-0.12C142.06,155.47,141.8,156.43,142.42,156.6L142.42,156.6z"/>
			</g>
		</g>
		<g>
			<g>
				<path d="M148.14,152.56c0,2.75,0,5.51,0,8.26c0,0.64,1,0.64,1,0c0-2.75,0-5.51,0-8.26
					C149.14,151.92,148.14,151.91,148.14,152.56L148.14,152.56z"/>
			</g>
		</g>
	</g>
</g>
<g>
	<g>
		<g>
			<path d="M154.67,101.37c-0.04,2.09,0.28,4.18,0.96,6.15c0.21,0.6,1.17,0.35,0.96-0.27c-0.65-1.9-0.97-3.88-0.93-5.89
				C155.68,100.73,154.68,100.73,154.67,101.37L154.67,101.37z"/>
		</g>
	</g>
	<g>
		<g>
			<g>
				<path d="M147.52,108.49c-0.15,2.48-0.2,4.96-0.12,7.44c0.02,0.64,1.01,0.65,1,0c0-0.26,0.06-0.47,0.23-0.67
					c0.43-0.48-0.28-1.19-0.71-0.71c-0.35,0.39-0.54,0.85-0.53,1.37c0.33,0,0.67,0,1,0c-0.07-2.48-0.03-4.96,0.12-7.44
					C148.56,107.85,147.56,107.85,147.52,108.49L147.52,108.49z"/>
			</g>
		</g>
		<g>
			<g>
				<path d="M151.21,107.03c-0.78,2.39-0.95,4.92-0.53,7.4c0.11,0.63,1.07,0.36,0.96-0.27c-0.39-2.3-0.2-4.66,0.53-6.87
					C152.38,106.68,151.42,106.42,151.21,107.03L151.21,107.03z"/>
			</g>
		</g>
		<g>
			<g>
				<path d="M145.33,109.58c1.52-0.6,3.03-1.19,4.55-1.79c1.42-0.56,2.85-1.11,4.15-1.92c0.55-0.34,0.04-1.2-0.5-0.86
					c-1.27,0.79-2.67,1.33-4.07,1.88c-1.46,0.58-2.93,1.15-4.39,1.73C144.47,108.85,144.73,109.82,145.33,109.58L145.33,109.58z"/>
			</g>
		</g>
		<g>
			<g>
				<path d="M156.86,110.48c-3.29,2.6-6.15,5.81-7.97,9.61c-0.28,0.58,0.59,1.09,0.86,0.5c1.79-3.73,4.59-6.86,7.82-9.41
					C158.07,110.78,157.36,110.08,156.86,110.48L156.86,110.48z"/>
			</g>
		</g>
		<g>
			<g>
				<path d="M154.86,116.37c0.61-0.36,1.35-0.24,1.91,0.16c0.62,0.44,0.86,1.19,0.69,1.92c-0.2,0.81-0.76,1.4-1.51,1.74
					c-0.75,0.34-1.65,0.82-1.44,1.8c0.05,0.23,0.27,0.35,0.48,0.37c1.76,0.18,3.52,0.26,5.29,0.24c0.64-0.01,0.64-1.01,0-1
					c-1.77,0.01-3.53-0.07-5.29-0.24c0.16,0.12,0.32,0.24,0.48,0.37c-0.04-0.17,0.3-0.33,0.43-0.4c0.32-0.18,0.68-0.29,0.99-0.49
					c0.67-0.42,1.16-1.06,1.43-1.79c0.55-1.5-0.17-3.08-1.64-3.67c-0.76-0.31-1.63-0.28-2.33,0.15
					C153.8,115.84,154.3,116.71,154.86,116.37L154.86,116.37z"/>
			</g>
		</g>
	</g>
</g>
<g>
	<g>
		<g>
			<path d="M174.18,98.93c-0.82,3.27-1.45,6.58-1.89,9.93c-0.08,0.64,0.92,0.63,1,0c0.43-3.25,1.06-6.48,1.86-9.66
				C175.3,98.57,174.34,98.3,174.18,98.93L174.18,98.93z"/>
		</g>
	</g>
	<g>
		<g>
			<g>
				<path d="M175.68,90.25c-0.48,2.01-0.61,4.09-0.34,6.14c0.04,0.27,0.2,0.5,0.5,0.5c0.24,0,0.54-0.23,0.5-0.5
					c-0.26-1.96-0.16-3.95,0.3-5.88C176.79,89.89,175.83,89.63,175.68,90.25L175.68,90.25z"/>
			</g>
		</g>
		<g>
			<g>
				<path d="M178.58,89.61c-0.2,2.31-0.1,4.62,0.27,6.9c0.1,0.63,1.07,0.36,0.96-0.27c-0.35-2.19-0.42-4.42-0.23-6.64
					C179.64,88.97,178.64,88.98,178.58,89.61L178.58,89.61z"/>
			</g>
		</g>
		<g>
			<g>
				<path d="M172.81,92.88c2.59-1.85,5.54-3.1,8.67-3.69c0.63-0.12,0.36-1.08-0.27-0.96c-3.2,0.6-6.26,1.89-8.91,3.79
					C171.78,92.39,172.28,93.26,172.81,92.88L172.81,92.88z"/>
			</g>
		</g>
	</g>
</g>
<g>
	<g>
		<g>
			<path d="M191.98,99.35c-0.43,2.92-0.49,5.87-0.13,8.81c0.08,0.63,1.08,0.64,1,0c-0.35-2.84-0.33-5.71,0.09-8.54
				C193.04,98.99,192.08,98.72,191.98,99.35L191.98,99.35z"/>
		</g>
	</g>
	<g>
		<g>
			<g>
				<path d="M187.91,80.84c0.6-0.54,2.55-1.85,3.06-0.51c0.21,0.57-0.13,1.22-0.55,1.59c-0.57,0.49-1.35,0.69-2.06,0.89
					c-0.38,0.11-0.53,0.73-0.12,0.91c1.04,0.47,2.26,1.2,2.55,2.4c0.21,0.87-0.34,2.08-1.35,2.05c-0.64-0.02-0.64,0.98,0,1
					c1.48,0.04,2.49-1.48,2.38-2.86c-0.13-1.68-1.67-2.81-3.08-3.45c-0.04,0.3-0.08,0.61-0.12,0.91c0.97-0.27,2.04-0.59,2.73-1.37
					c0.6-0.69,0.89-1.7,0.49-2.56c-0.94-2.01-3.49-0.74-4.64,0.3C186.72,80.57,187.43,81.27,187.91,80.84L187.91,80.84z"/>
			</g>
		</g>
		<g>
			<g>
				<path d="M194.06,81.6c0,1.5,0.01,3,0.01,4.5c0,0.64,1,0.64,1,0c0-1.5-0.01-3-0.01-4.5C195.06,80.96,194.06,80.96,194.06,81.6
					L194.06,81.6z"/>
			</g>
		</g>
		<g>
			<g>
				<path d="M196.32,80.1c0,1.38,0,2.75,0,4.13c0,0.64,1,0.64,1,0c0-1.38,0-2.75,0-4.13C197.32,79.46,196.32,79.46,196.32,80.1
					L196.32,80.1z"/>
			</g>
		</g>
		<g>
			<g>
				<path d="M193.05,82.58c1.67-1.01,3.34-2.02,5.02-3.02c0.55-0.33,0.05-1.2-0.5-0.86c-1.67,1.01-3.34,2.02-5.02,3.02
					C191.99,82.05,192.49,82.91,193.05,82.58L193.05,82.58z"/>
			</g>
		</g>
		<g>
			<g>
				<path d="M188.08,92.19c2.72-1.84,5.69-3.27,8.84-4.22c0.61-0.19,0.35-1.15-0.27-0.96c-3.22,0.97-6.29,2.43-9.08,4.32
					C187.04,91.69,187.54,92.56,188.08,92.19L188.08,92.19z"/>
			</g>
		</g>
		<g>
			<g>
				<path d="M191.45,92.28c0.65-0.11,1.54-0.27,2.12,0.14c0.61,0.43,0.44,1.21,0.1,1.76c-0.43,0.7-1.13,1.07-1.84,1.43
					c-0.78,0.4-1.57,0.8-2.16,1.47c-0.37,0.42,0.09,1.06,0.61,0.79c1.89-1,4.1-1.32,6.19-0.89c0.63,0.13,0.9-0.83,0.27-0.96
					c-2.37-0.49-4.83-0.14-6.96,0.99c0.2,0.26,0.4,0.52,0.61,0.79c0.69-0.79,1.69-1.14,2.58-1.65c0.86-0.49,1.58-1.2,1.9-2.15
					c0.31-0.92,0.02-1.93-0.82-2.45c-0.84-0.52-1.93-0.38-2.85-0.22C190.55,91.43,190.82,92.39,191.45,92.28L191.45,92.28z"/>
			</g>
		</g>
	</g>
</g>
<g>
	<g>
		<g>
			<path d="M213.27,98.56c-0.02,2.33,0.06,4.65,0.23,6.97c0.04,0.57,0.09,1.14,0.15,1.72c0.04,0.42,0.01,0.93,0.47,1.11
				c0.93,0.35,1.17-1.23,0.17-1.21c-0.64,0.01-0.64,1.01,0,1c-0.08-0.04-0.16-0.08-0.25-0.13c-0.02-0.13-0.03-0.26-0.05-0.39
				c0.02-0.03,0.03-0.06,0.05-0.09c0.12-0.05,0.24-0.1,0.35-0.15c0.25,0.3,0.34,0.31,0.27,0.03c-0.01-0.09-0.02-0.18-0.03-0.27
				c-0.02-0.18-0.03-0.36-0.05-0.54c-0.04-0.39-0.07-0.78-0.1-1.17c-0.06-0.75-0.1-1.51-0.14-2.26c-0.07-1.54-0.1-3.08-0.09-4.62
				C214.27,97.92,213.27,97.92,213.27,98.56L213.27,98.56z"/>
		</g>
	</g>
	<g>
		<g>
			<g>
				<path d="M215.59,110.59c0.91-0.2,1.93-0.45,2.84-0.11c0.63,0.23,1.24,0.81,1.14,1.54c-0.11,0.85-0.91,1.38-1.62,1.72
					c-0.9,0.44-1.85,0.79-2.78,1.17c-0.23,0.1-0.4,0.28-0.36,0.55c0.03,0.23,0.24,0.45,0.49,0.43c1.4-0.08,2.81-0.05,4.21,0.08
					c0.73,0.07,3.06,0.68,2.76-0.82c-0.12-0.63-1.09-0.36-0.96,0.27c0.15-0.21,0.18-0.3,0.08-0.26c-0.03,0.01-0.06,0.02-0.08,0.02
					c-0.07-0.01-0.15,0-0.23-0.01c-0.25-0.03-0.5-0.07-0.76-0.11c-0.56-0.07-1.12-0.13-1.69-0.16c-1.11-0.07-2.22-0.07-3.33-0.01
					c0.04,0.33,0.09,0.65,0.13,0.98c0.62-0.26,1.24-0.51,1.85-0.77c0.52-0.22,1.06-0.42,1.55-0.71c0.92-0.53,1.74-1.43,1.73-2.55
					c-0.01-1.05-0.79-1.87-1.71-2.25c-1.13-0.47-2.39-0.21-3.54,0.05C214.7,109.77,214.96,110.73,215.59,110.59L215.59,110.59z"/>
			</g>
		</g>
		<g>
			<g>
				<path d="M223.47,110.2c-0.4,1.6-0.54,3.26-0.43,4.91c0.33-0.04,0.65-0.09,0.98-0.13c-0.05-0.23,0-0.45,0.11-0.66
					c0.31-0.56-0.55-1.07-0.86-0.5c-0.25,0.45-0.31,0.93-0.21,1.43c0.11,0.55,1.02,0.43,0.98-0.13c-0.11-1.56,0.02-3.12,0.39-4.64
					C224.59,109.84,223.63,109.58,223.47,110.2L223.47,110.2z"/>
			</g>
		</g>
		<g>
			<g>
				<path d="M225.49,109.44c-0.37,1.83-0.5,3.71-0.37,5.58c0.02,0.27,0.22,0.5,0.5,0.5c0.26,0,0.52-0.23,0.5-0.5
					c-0.13-1.78-0.02-3.56,0.33-5.31C226.58,109.08,225.61,108.81,225.49,109.44L225.49,109.44z"/>
			</g>
		</g>
		<g>
			<g>
				<path d="M222.9,111.12c1.34-1.02,2.8-1.88,4.34-2.55c-0.2-0.03-0.4-0.05-0.61-0.08c0.07,0.06,0.02,0.04,0.03,0.01
					c-0.16,0.62,0.8,0.89,0.96,0.27c0.09-0.36,0-0.74-0.28-0.98c-0.19-0.16-0.39-0.17-0.61-0.08c-1.54,0.68-3,1.53-4.34,2.55
					c-0.21,0.16-0.33,0.43-0.18,0.68C222.34,111.15,222.68,111.29,222.9,111.12L222.9,111.12z"/>
			</g>
		</g>
	</g>
</g>
</svg>
