<?xml version="1.0" encoding="utf-8"?>
<!-- Generator: Adobe Illustrator 23.1.1, SVG Export Plug-In . SVG Version: 6.00 Build 0)  -->
<svg version="1.1" id="Layer_1" xmlns="http://www.w3.org/2000/svg" xmlns:xlink="http://www.w3.org/1999/xlink" x="0px" y="0px"
	 viewBox="0 0 288 216" style="enable-background:new 0 0 288 216;" xml:space="preserve">
<style type="text/css">
	.st0{fill:#A7A9AC;}
	.st1{fill:none;stroke:#000000;stroke-miterlimit:10;}
	.st2{fill:#ED1C24;}
</style>
<g>
	<g>
		<g>
			<path class="st0" d="M247.09,158.04c4.27-3.76,8.41-7.67,12.42-11.7c0.48-0.49,0.96-0.97,1.44-1.46c0.47-0.48,1.1-0.99,1.26-1.68
				c0.3-1.29-0.93-2.06-1.85-2.65c-1.76-1.12-3.73-1.83-5.64-2.65c-2.06-0.88-4.15-1.94-5.49-3.8c-0.12,0.46-0.24,0.91-0.36,1.37
				c0.31-0.21,0.58-0.18,0.84,0.09c0.9,0.92,2.31-0.49,1.41-1.41c-0.86-0.89-2.22-1.08-3.26-0.4c-0.42,0.27-0.69,0.91-0.36,1.37
				c2.44,3.38,6.35,4.4,9.93,6.11c0.89,0.43,1.78,0.9,2.58,1.5c0.07,0.05,0.14,0.12,0.21,0.16c0.02,0.02,0.04,0.04,0.06,0.06
				c0.12,0.13,0.11,0.06-0.01-0.22c-0.03-0.01-0.57,0.6-0.64,0.66c-0.48,0.49-0.96,0.98-1.44,1.46c-1.89,1.91-3.82,3.79-5.77,5.64
				c-2.21,2.09-4.45,4.14-6.73,6.15C244.71,157.48,246.13,158.89,247.09,158.04L247.09,158.04z"/>
		</g>
	</g>
	<g>
		<g>
			<path class="st0" d="M25.6,128.49c-3.86,1.72-7.52,3.89-10.9,6.44c-0.77,0.58-1.73,1.16-2.32,1.92c-0.69,0.88-0.38,1.88,0.3,2.65
				c1.5,1.68,3.14,3.26,4.75,4.84c1.81,1.78,3.65,3.53,5.52,5.24c0.95,0.87,2.37-0.54,1.41-1.41c-2.99-2.73-5.89-5.56-8.71-8.46
				c-0.33-0.34-0.66-0.69-0.99-1.03c-0.16-0.17-0.34-0.34-0.5-0.52c-0.03-0.03-0.13-0.18-0.16-0.19c-0.11-0.04-0.03,0.09-0.04,0.1
				c0.34-0.18,0.67-0.57,0.97-0.81c0.38-0.3,0.76-0.59,1.15-0.88c1.54-1.14,3.14-2.21,4.78-3.19c1.86-1.1,3.78-2.09,5.75-2.97
				c0.49-0.22,0.61-0.94,0.36-1.37C26.67,128.34,26.09,128.27,25.6,128.49L25.6,128.49z"/>
		</g>
	</g>
	<g>
		<g>
			<path class="st0" d="M12.86,139.54c15.14,4.13,30.92,4.09,46.49,3.93c16.32-0.17,32.64-0.34,48.96-0.5
				c16.33-0.17,32.65-0.34,48.98-0.5c16.24-0.17,32.48-0.41,48.71-0.27c18.32,0.17,36.66,0.88,54.88,2.91
				c0.39,0.04,0.9-0.34,0.96-0.73c0.29-1.78-0.8-3.67-2.77-3.61c-1.28,0.04-1.29,2.04,0,2c0.58-0.02,0.93,0.52,0.84,1.07
				c0.32-0.24,0.64-0.49,0.96-0.73c-32.26-3.59-64.77-3.04-97.16-2.71c-32.65,0.34-65.31,0.67-97.96,1.01
				c-17.49,0.18-35.33,0.85-52.37-3.79C12.15,137.27,11.62,139.2,12.86,139.54L12.86,139.54z"/>
		</g>
	</g>
</g>
<g>
	<g>
		<g>
			<path class="st0" d="M51.35,32.61c1.87-4.71,4.11-9.26,6.69-13.62c0.67-1.13,1.36-2.25,2.07-3.35c0.32-0.49,0.62-1.04,0.99-1.5
				c0.13-0.17,0.27-0.13,0.06-0.2c0.19,0.06,0.34,0.33,0.46,0.48c1.65,2.2,3.2,4.47,4.8,6.71c1.82,2.54,3.64,5.08,5.46,7.62
				c0.41,0.58,1.34,0.71,1.73,0c0.37-0.69,0.74-1.38,1.12-2.07c0.61-1.13-1.11-2.14-1.73-1.01c-0.37,0.69-0.74,1.38-1.12,2.07
				c0.58,0,1.15,0,1.73,0c-1.79-2.51-3.59-5.01-5.38-7.52c-0.87-1.22-1.75-2.44-2.62-3.66c-0.87-1.22-1.69-2.51-2.64-3.66
				c-0.86-1.04-2.23-1.26-3.21-0.24c-0.41,0.43-0.72,0.99-1.05,1.48c-0.4,0.61-0.8,1.23-1.19,1.86c-1.49,2.39-2.87,4.84-4.15,7.34
				c-1.45,2.85-2.76,5.77-3.94,8.74c-0.2,0.5,0.22,1.1,0.7,1.23C50.69,33.47,51.15,33.11,51.35,32.61L51.35,32.61z"/>
		</g>
	</g>
	<g>
		<g>
			<path class="st0" d="M53.29,169.78c1.81,3.64,4.01,7.06,6.54,10.24c0.6,0.75,1.21,1.64,1.96,2.25c0.83,0.68,1.82,0.48,2.56-0.24
				c0.75-0.73,1.42-1.58,2.1-2.37c0.71-0.81,1.41-1.63,2.1-2.45c1.59-1.88,3.14-3.8,4.66-5.74c0.33-0.43,0.41-1,0-1.41
				c-0.35-0.35-1.08-0.43-1.41,0c-1.52,1.94-3.07,3.86-4.66,5.74c-0.82,0.97-1.65,1.94-2.49,2.9c-0.42,0.48-0.84,0.96-1.27,1.43
				c-0.16,0.18-0.46,0.4-0.57,0.61c0.26,0.05,0.31,0.02,0.16-0.1c-0.07-0.07-0.13-0.15-0.2-0.22c-3.09-3.51-5.68-7.47-7.75-11.66
				C54.45,167.62,52.72,168.63,53.29,169.78L53.29,169.78z"/>
		</g>
	</g>
	<g>
		<g>
			<path class="st0" d="M59.98,13.46c-0.4,21.73-0.57,43.46-0.49,65.2c0.08,21.63,0.39,43.25,0.95,64.87
				c0.31,12.2,0.7,24.39,1.17,36.59c0.05,1.28,2.05,1.29,2,0c-0.83-21.72-1.41-43.46-1.76-65.19c-0.34-21.62-0.45-43.25-0.31-64.87
				c0.08-12.2,0.23-24.39,0.45-36.59C62,12.17,60,12.17,59.98,13.46L59.98,13.46z"/>
		</g>
	</g>
</g>
<line class="st1" x1="278.19" y1="73" x2="277.82" y2="73.37"/>
<g>
	<g>
		<g>
			<path class="st2" d="M62.52,143.04c0.81-14.72,8.85-27.85,16.92-39.72c7.74-11.39,15.87-22.68,25.81-32.28
				c5.07-4.89,10.61-9.3,16.63-12.96c6.14-3.73,12.71-6.68,19.47-9.11c13.98-5.03,28.62-7.94,43.14-10.95
				c15.85-3.29,31.74-6.51,47.85-8.26c2.01-0.22,4.02-0.41,6.03-0.59c1.27-0.11,1.28-2.11,0-2c-16.45,1.41-32.69,4.46-48.84,7.77
				c-14.96,3.07-30.07,5.93-44.61,10.7c-6.87,2.25-13.61,4.96-19.98,8.39c-6.35,3.42-12.24,7.62-17.63,12.39
				c-10.43,9.23-18.85,20.43-26.77,31.81c-8.32,11.95-17.01,24.8-19.42,39.46c-0.29,1.77-0.49,3.56-0.59,5.35
				C60.45,144.33,62.45,144.32,62.52,143.04L62.52,143.04z"/>
		</g>
	</g>
	<g>
		<g>
			<path class="st2" d="M230.9,21.27c-0.01,0.02-0.01,0.05-0.02,0.07c0.23-0.23,0.47-0.47,0.7-0.7c-0.02,0-0.04,0.01-0.06,0.01
				c0.26,0.03,0.51,0.07,0.77,0.1c0.06,0.06,0.12,0.12,0.17,0.19c0.05,0.17,0.09,0.34,0.14,0.5c0-0.03,0-0.05-0.01-0.08
				c-0.05,0.17-0.09,0.34-0.14,0.5c0.02-0.02,0.04-0.05,0.05-0.07c-0.2,0.15-0.4,0.31-0.6,0.46c0.06-0.02,0.11-0.03,0.17-0.05
				c-0.18,0-0.35,0-0.53,0c0.29,0.08,0.73,0.7,0.94,0.91c0.33,0.32,0.66,0.63,0.99,0.95c0.7,0.65,1.41,1.29,2.13,1.91
				c1.45,1.25,2.96,2.44,4.5,3.57c0-0.58,0-1.15,0-1.73c-2.69,2.07-5.18,4.36-7.42,6.91c-0.85,0.96,0.56,2.38,1.41,1.41
				c2.12-2.41,4.46-4.64,7.01-6.6c0.62-0.48,0.65-1.25,0-1.73c-2.39-1.76-4.66-3.67-6.81-5.72c-0.77-0.73-2.49-2.91-3.53-1.31
				c-0.9,1.38,1.53,2.68,2.04,1.01C233.2,20.57,231.27,20.04,230.9,21.27L230.9,21.27z"/>
		</g>
	</g>
	<g>
		<g>
			<path class="st2" d="M63.02,139.67c0.08,0.25-0.09,0.59-0.3,0.72c0.14-0.08-0.06,0.02-0.08,0.03c0.08-0.03,0.14,0.01-0.09,0.01
				c-0.09,0-0.21-0.03-0.28-0.08c-0.04-0.02-0.13-0.15-0.03-0.02c-0.04-0.04-0.08-0.17-0.03-0.03c0.06,0.18-0.03-0.12,0,0
				c0.04,0.17,0.1,0.34,0.13,0.52c0.01,0.04,0.01,0.08,0.02,0.12c0.03,0.17-0.02-0.06-0.01-0.08c-0.02,0.06,0.02,0.23,0.03,0.29
				c0.01,0.17,0.01,0.35,0,0.52c0,0.04-0.01,0.09-0.01,0.13c0,0.11,0.01-0.11,0.02-0.11c-0.04,0.07-0.04,0.22-0.06,0.3
				c-0.02,0.07-0.07,0.15-0.07,0.22c0-0.02,0.11-0.22,0.03-0.09c-0.01,0.02-0.03,0.05-0.04,0.07c-0.09,0.19,0.15-0.13,0,0.01
				c-0.02,0.02-0.05,0.05-0.07,0.07c-0.07,0.09,0.2-0.13,0.06-0.05c-0.12,0.06,0.23-0.09-0.01,0c-0.15,0.06,0.12-0.06,0.1-0.01
				c-0.01,0.01-0.17,0-0.17,0c0.05,0,0.19,0.05,0.02-0.01c-0.05-0.02-0.15-0.08,0,0.01c-0.1-0.06-0.2-0.12-0.3-0.18
				c0.15,0.09,0.03,0.03,0,0c-0.04-0.04-0.09-0.08-0.13-0.11c-0.08-0.08-0.16-0.15-0.24-0.24c-0.08-0.08-0.15-0.17-0.22-0.25
				c-0.03-0.03-0.11-0.15,0,0c-0.04-0.06-0.08-0.11-0.12-0.17c-0.12-0.17-0.22-0.36-0.31-0.55c-0.08-0.17-0.01-0.02,0,0.01
				c-0.02-0.05-0.04-0.1-0.06-0.16c-0.04-0.13-0.07-0.26-0.1-0.4c-0.03-0.14-0.04-0.01,0,0.02c-0.01-0.01-0.01-0.1-0.01-0.12
				c-0.01-0.11,0.01-0.22,0.01-0.33c0-0.14-0.05,0.15,0,0.03c0.01-0.04,0.02-0.09,0.03-0.13c0.01-0.04,0.03-0.09,0.04-0.13
				c0.02-0.11-0.1,0.17-0.01,0.02c0.05-0.08,0.09-0.16,0.14-0.24c0.05-0.08,0.01-0.1-0.03,0.04c0.01-0.03,0.08-0.09,0.09-0.1
				c0.05-0.06,0.11-0.11,0.17-0.17c0.03-0.03,0.15-0.09,0.03-0.03c-0.13,0.07,0.04-0.02,0.07-0.04c0.04-0.02,0.2-0.14,0.24-0.13
				c-0.01,0-0.2,0.06-0.05,0.03c0.04-0.01,0.08-0.03,0.13-0.04c0.02,0,0.13-0.02,0.13-0.03c-0.01,0.03-0.26,0.01-0.07,0.02
				c0.04,0,0.09,0,0.13,0c0.18-0.01-0.15-0.05-0.04-0.01c0.04,0.02,0.09,0.02,0.13,0.03c0.01,0,0.02,0.01,0.03,0.01
				c0.08,0.03,0.08,0.03,0,0c-0.1,0.03-0.05-0.06-0.01,0c0,0,0.08,0.05,0.09,0.05c-0.05,0-0.19-0.15-0.09-0.06
				c0.01,0.01,0.05,0.07,0.07,0.07c-0.13-0.04-0.12-0.19-0.07-0.08c0.01,0.03,0.04,0.08,0.06,0.11c0.07,0.09-0.07-0.22-0.04-0.1
				c0.01,0.03,0.02,0.06,0.03,0.09c0.01,0.04,0.06,0.29,0.03,0.09c-0.03-0.2,0,0.05,0,0.1c0,0.03,0,0.05,0,0.08
				c0,0.16-0.07,0.07,0.01-0.06c-0.03,0.04-0.03,0.14-0.05,0.2c0,0.01-0.03,0.09-0.03,0.09c-0.01-0.01,0.12-0.23,0.04-0.1
				c-0.03,0.04-0.06,0.1-0.08,0.15c-0.04,0.1,0.16-0.17,0.07-0.09c-0.03,0.02-0.06,0.06-0.08,0.08c-0.08,0.11,0.07-0.07,0.1-0.07
				c-0.02,0-0.06,0.04-0.08,0.05c-0.14,0.07,0.26-0.07,0.03-0.02c-0.15,0.03,0.28,0,0.03-0.01c-0.12,0,0.03-0.04,0.11,0.02
				c-0.02-0.02-0.21-0.08-0.03,0c0.19,0.09-0.05-0.05-0.06-0.05c0.11-0.01,0.16,0.15,0.08,0.06c-0.01-0.01-0.05-0.06-0.07-0.08
				c0.14,0.09,0.11,0.16,0.06,0.07c-0.02-0.03-0.04-0.06-0.05-0.09c-0.08-0.13,0.03,0.07,0.03,0.09c0-0.04-0.03-0.09-0.04-0.13
				c-0.01-0.04-0.01-0.07-0.02-0.11c-0.04-0.12,0.01,0.23,0.01,0.1c0-0.07,0-0.15,0-0.22c-0.01-0.09-0.02,0.13-0.02,0.13
				c0.01-0.02,0.02-0.08,0.02-0.1c0.01-0.03,0.03-0.07,0.03-0.1c-0.07,0.15-0.08,0.19-0.04,0.12c0.01-0.02,0.03-0.05,0.04-0.07
				c0,0.02-0.17,0.18-0.06,0.08c0.03-0.02,0.15-0.14,0.02-0.03c-0.11,0.09-0.04,0.03,0,0.01c0.19-0.09-0.22,0.05-0.02,0
				c0.02,0,0.11-0.02,0.11-0.03c-0.03,0.04-0.26,0.01-0.06,0.01c0.04,0,0.08,0.01,0.12,0c0.11-0.01-0.23-0.06-0.06-0.01
				c0.04,0.01,0.08,0.02,0.12,0.03c0.04,0.01,0.21,0.04,0.05,0.01c-0.21-0.03,0.18,0.08,0.15,0.1c-0.05,0.02-0.16-0.14-0.06-0.04
				c0.03,0.03,0.07,0.08,0.11,0.11c0.1,0.07-0.1-0.17-0.04-0.06c0.02,0.04,0.05,0.09,0.08,0.13c0.09,0.15-0.04-0.05-0.03-0.07
				c0,0,0.05,0.18,0.05,0.18c-0.02-0.01-0.01-0.21-0.02-0.1c0,0.04,0.02,0.14-0.01,0.18c0.05-0.07,0.04-0.17,0-0.06
				c-0.01,0.03-0.02,0.07-0.03,0.1c-0.03,0.07-0.01,0.05,0.03-0.07c0,0.01-0.07,0.12-0.07,0.13c-0.09,0.16,0.09-0.08,0.01,0
				c-0.05,0.05-0.27,0.3-0.09,0.12c-0.07,0.08-0.19,0.12-0.28,0.17c-0.12,0.07,0.17-0.04,0.04-0.02c-0.02,0-0.17,0.04-0.18,0.05
				c0.01-0.02,0.25-0.01,0.05-0.01c-0.07,0-0.15,0-0.22-0.01c0.24,0.1,0.47,0.2,0.71,0.29c-0.02-0.02-0.09-0.1,0,0.01
				c0.11,0.13,0-0.09,0.04,0.08c0.06,0.24-0.02-0.21,0.01,0.05c0.02,0.21,0.02-0.07,0.01-0.08c0.01,0.02-0.05,0.21-0.01,0.13
				c0.01-0.03,0.03-0.08,0.03-0.11c0.01-0.09-0.04,0.1-0.05,0.11c0.02-0.01,0.05-0.09,0.05-0.1c0.01-0.02,0.04-0.05,0.05-0.07
				c0.03-0.08-0.05,0.08-0.07,0.09c0.03-0.01,0.12-0.12,0.14-0.14c0.06-0.07-0.08,0.07-0.09,0.07c0.01,0,0.08-0.05,0.1-0.06
				c0.13-0.08-0.21,0.05,0,0.01c0.1-0.02-0.13,0.01-0.13,0.02c0.01,0.01,0.07,0,0.09,0c0.1,0-0.12-0.01-0.12-0.02
				c0-0.01,0.1,0.04,0.11,0.03c0,0-0.2-0.09-0.11-0.04c0.04,0.02,0.12,0.1,0.01,0c-0.14-0.13,0.03,0.06,0.06,0.07
				c-0.01,0-0.11-0.18-0.07-0.09c0.01,0.02,0.03,0.05,0.04,0.07c0.01,0.02,0.02,0.05,0.04,0.07c0.07,0.1-0.06-0.2-0.04-0.08
				c0.01,0.06,0.04,0.13,0.05,0.19c0.04,0.16,0-0.23-0.01-0.01c0,0.04-0.02,0.24,0.01,0.07c0.03-0.18-0.02,0.04-0.03,0.09
				c-0.03,0.16,0.07-0.21,0,0c-0.02,0.05-0.1,0.12,0,0.02c0.11-0.11,0.03-0.03,0.01-0.01c-0.02,0.02-0.05,0.04-0.06,0.06
				c-0.06,0.08,0.07-0.08,0.08-0.06c-0.01-0.01-0.26,0.18-0.1,0.07c0.17-0.12-0.13,0.06-0.12,0.02c0.01-0.02,0.26-0.01,0.08-0.01
				c-0.03,0-0.06,0-0.1,0c-0.04,0-0.26,0-0.09,0c0.16,0.01-0.07-0.02-0.12-0.04c-0.03-0.01-0.06-0.02-0.09-0.03
				c-0.11-0.02,0.15,0.09,0.06,0.02c-0.01,0-0.2-0.1-0.2-0.12c0-0.01,0.15,0.14,0.07,0.06c-0.02-0.02-0.05-0.04-0.07-0.06
				c-0.01-0.01-0.09-0.09-0.09-0.09c0.01-0.01,0.11,0.17,0.06,0.07c-0.01-0.03-0.09-0.19-0.12-0.2c0.07,0.02,0.06,0.17,0.02,0.04
				c-0.01-0.05-0.02-0.09-0.04-0.14c-0.01-0.03-0.03-0.15-0.01-0.01c0.02,0.16,0-0.06,0-0.08c0-0.05,0.02-0.3,0-0.15
				c-0.02,0.14,0,0.02,0.01-0.01c0.01-0.06,0.03-0.12,0.04-0.17c0.01-0.03,0.02-0.07,0.03-0.1c0.04-0.14-0.02,0-0.02,0.04
				c-0.01-0.06,0.11-0.2,0.14-0.25c0.01-0.02,0.08-0.13,0.01-0.02c-0.08,0.11,0.02-0.02,0.04-0.04c0.07-0.08,0.15-0.15,0.24-0.22
				c-0.52-0.07-1.05-0.13-1.57-0.2c0.05,0.09,0.1,0.18,0.14,0.27c0.03,0.07,0.02,0.05-0.02-0.04c0.02,0.04,0.03,0.08,0.04,0.12
				c0.03,0.1,0.06,0.19,0.08,0.29c0.01,0.05,0.03,0.3,0.02,0.08c0.01,0.17,0.01,0.35,0.01,0.52c-0.01,0.23,0.04-0.13-0.01,0.08
				c-0.03,0.11-0.05,0.22-0.09,0.34c0.56-0.15,1.11-0.29,1.67-0.44c-0.03-0.03-0.07-0.06-0.1-0.1c0.02,0.03,0.05,0.06,0.07,0.09
				c-0.01,0-0.11-0.17-0.11-0.18c0.05,0.12,0.06,0.15,0.03,0.08c-0.01-0.03-0.02-0.07-0.03-0.1c-0.01-0.03-0.02-0.07-0.02-0.1
				c-0.01-0.08-0.01-0.05,0.01,0.09c-0.02-0.01,0-0.21,0-0.21c-0.02,0-0.06,0.24,0.01-0.01c0.01-0.05,0.1-0.19,0.02-0.08
				c-0.09,0.13,0.07-0.1,0.09-0.12c0.3-0.43,0.09-1.13-0.36-1.37c-0.51-0.27-1.05-0.1-1.37,0.36c-0.64,0.93-0.46,2.29,0.34,3.06
				c0.55,0.53,1.45,0.28,1.67-0.44c0.33-1.07,0.18-2.24-0.38-3.2c-0.35-0.6-1.08-0.6-1.57-0.2c-0.82,0.67-1.2,1.79-1.03,2.83
				c0.16,0.98,0.95,1.78,1.91,2.01c0.97,0.23,2.12-0.09,2.61-1.03c0.46-0.88,0.33-1.97-0.33-2.71c-0.73-0.82-1.92-0.78-2.72-0.1
				c-0.71,0.61-1.03,1.81-0.46,2.62c0.27,0.38,0.6,0.59,1.09,0.59c0.25,0,0.52-0.04,0.76-0.12c0.54-0.19,0.98-0.51,1.33-0.96
				c0.69-0.9,0.67-2.13-0.09-2.97c-0.61-0.68-1.7-1.03-2.56-0.68c-1.01,0.41-1.47,1.39-1.29,2.45c0.16,0.92,0.93,1.69,1.89,1.74
				c0.94,0.05,1.65-0.61,1.96-1.45c0.25-0.69,0.17-1.58-0.25-2.19c-0.58-0.83-1.68-1.14-2.63-0.83c-0.96,0.31-1.72,1.07-2.04,2.02
				c-0.34,1-0.07,2.15,0.44,3.04c0.51,0.89,1.4,1.89,2.44,2.13c0.52,0.12,1.11,0.05,1.56-0.24c0.43-0.28,0.71-0.69,0.89-1.16
				c0.3-0.76,0.25-1.63,0.11-2.42c-0.09-0.51-0.25-1.02-0.61-1.41c-0.48-0.53-1.23-0.65-1.86-0.33c-0.57,0.29-0.92,0.96-0.72,1.59
				c0.16,0.5,0.7,0.87,1.23,0.7C62.82,140.74,63.19,140.2,63.02,139.67L63.02,139.67z"/>
		</g>
	</g>
</g>
<g>
	<g>
		<g>
			<path d="M101.72,74.01c0.14-0.21,0.36-0.32,0.64-0.34c0.19,0.04,0.23,0.04,0.12,0.01c0.15,0.07,0.19,0.08,0.12,0.04
				c-0.06-0.04-0.03-0.02,0.09,0.07c-0.07-0.08-0.05-0.05,0.05,0.07c0.04,0.07,0.06,0.14,0.06,0.22c0.01,0.08,0.01,0.16-0.02,0.24
				c-0.07,0.14-0.07,0.16-0.01,0.06c-0.04,0.06-0.25,0.2-0.1,0.12c0.04-0.03,0.08-0.05,0.13-0.07c-0.12,0.05-0.13,0.06-0.03,0.02
				c0.18-0.03,0.35-0.08,0.52-0.11c-0.42-0.32-0.84-0.64-1.27-0.96c0.03-0.31,0.03-0.15,0-0.07c0.1-0.27,0.08-0.17,0.04-0.11
				c-0.09,0.16,0.17-0.19,0.04-0.06c-0.12,0.12,0.19-0.1,0.08-0.06c-0.26,0.1,0.19-0.03-0.02,0.02c-0.03,0.01-0.1,0.01-0.12,0.03
				c0.14-0.11,0.22-0.01,0.06-0.01c-0.05,0-0.11-0.01-0.16,0c-0.19,0.01,0.2,0.05,0.08,0.01c-0.08-0.03-0.18-0.05-0.26-0.07
				c-0.12-0.03,0.22,0.13,0.07,0.03c-0.03-0.02-0.08-0.05-0.11-0.07c-0.11-0.04,0.19,0.17,0.06,0.05c-0.03-0.02-0.05-0.05-0.07-0.07
				c0.1,0.13,0.12,0.17,0.08,0.1c-0.01-0.02-0.05-0.11-0.07-0.11c0.02,0.01,0.11,0.24,0.04,0.07c0-0.01,0-0.02-0.01-0.03
				c-0.02-0.11-0.02-0.1,0,0.04c0.01,0.01-0.03-0.28-0.01-0.09c0.01,0.14,0.01-0.05,0.02-0.09c0.02-0.06,0.12-0.25,0.01-0.04
				c0.03-0.04,0.05-0.09,0.07-0.13c0.03-0.04,0.06-0.09,0.09-0.13c-0.07,0.09-0.08,0.1-0.03,0.05c0.05-0.05,0.09-0.1,0.14-0.14
				c0,0,0.2-0.18,0.08-0.08c-0.11,0.1,0.09-0.06,0.1-0.07c0.07-0.04,0.14-0.09,0.21-0.12c0.05-0.03,0.1-0.05,0.15-0.07
				c-0.22,0.1,0.03,0,0.07-0.01c0.05-0.02,0.1-0.03,0.16-0.04c0.06-0.01,0.12-0.02,0.18-0.03c-0.08,0.01-0.08,0.02-0.01,0.01
				c0.08,0.01,0.17,0,0.25,0c0.26-0.01-0.11-0.05,0.14,0.01c0.06,0.02,0.13,0.04,0.19,0.05c-0.19-0.04-0.04-0.02,0.02,0.01
				c0.03,0.02,0.07,0.04,0.1,0.06c0.18,0.1-0.16-0.16-0.02-0.01c0.03,0.03,0.06,0.05,0.08,0.08c0.18,0.19-0.06-0.12,0.02,0.02
				c0.02,0.03,0.04,0.06,0.06,0.1c0.06,0.11,0.03,0.18,0-0.03c0.01,0.09,0.07,0.19,0.09,0.28c0.01,0.04,0.02,0.08,0.02,0.12
				c0.05,0.21-0.01-0.24-0.01-0.03c0,0.12,0,0.24,0,0.36c0,0.1-0.06,0.07,0.01-0.08c-0.02,0.05-0.02,0.13-0.03,0.18
				c-0.02,0.1-0.06,0.2-0.09,0.29c-0.05,0.16,0.01-0.06,0.03-0.07c-0.03,0.01-0.07,0.14-0.08,0.16c-0.02,0.04-0.04,0.07-0.06,0.11
				c-0.15,0.23,0.09-0.08-0.02,0.04c-0.07,0.07-0.14,0.15-0.21,0.21c-0.13,0.12,0.04-0.05,0.06-0.04c-0.01,0-0.14,0.09-0.16,0.1
				c-0.04,0.02-0.07,0.04-0.11,0.06c0.21-0.11,0-0.01-0.05,0.01c-0.05,0.02-0.1,0.03-0.15,0.04c-0.05,0.01-0.1,0.02-0.15,0.03
				c0.14-0.02,0.16-0.02,0.04-0.01c-0.13,0-0.25,0.01-0.38,0c-0.04,0-0.11,0-0.15-0.01c0.25,0.08,0.02,0-0.03-0.02
				c-0.13-0.03-0.25-0.07-0.37-0.11c-0.24-0.07,0.12,0.07-0.01,0c-0.08-0.04-0.16-0.08-0.24-0.12c-0.11-0.06-0.22-0.14-0.33-0.21
				c-0.15-0.1-0.01-0.01,0.01,0.01c-0.06-0.05-0.12-0.1-0.18-0.15c-0.1-0.09-0.18-0.19-0.27-0.28c-0.17-0.18,0.07,0.11-0.01-0.01
				c-0.05-0.07-0.1-0.15-0.15-0.23c-0.03-0.04-0.05-0.09-0.08-0.13c-0.01-0.01-0.12-0.24-0.05-0.08c-0.03-0.08-0.04-0.16-0.07-0.23
				c-0.04-0.1-0.04,0.15,0-0.07c-0.04,0.26-0.02,0.08,0.01,0.02c0.06-0.13-0.13,0.21-0.01,0.02c0.11-0.18-0.12,0.08-0.01,0.01
				c0.04-0.03,0.26-0.21,0.03-0.06c0.1-0.07,0.21-0.13,0.32-0.19c-0.2,0.1-0.05,0.02,0.01,0c0.06-0.02,0.12-0.04,0.18-0.05
				c0.01,0,0.25-0.07,0.09-0.02c-0.15,0.04,0.06,0,0.09-0.01c0.17-0.01,0.33,0,0.5,0.01c-0.22-0.02-0.04,0,0.02,0.01
				c0.07,0.01,0.14,0.03,0.2,0.05c0.07,0.02,0.13,0.04,0.2,0.06c0.05,0.02,0.23,0.09,0.03,0c0.12,0.05,0.25,0.12,0.36,0.19
				c0.04,0.02,0.24,0.19,0.06,0.03c0.06,0.05,0.12,0.11,0.18,0.16c0,0,0.18,0.2,0.08,0.08c-0.1-0.11,0.06,0.09,0.06,0.1
				c0.02,0.04,0.11,0.15,0.1,0.19c0,0-0.07-0.23-0.03-0.04c0.02,0.07,0.03,0.14,0.05,0.2c0.04,0.16-0.01-0.06-0.01-0.06
				c0.02,0.01,0.01,0.19,0.01,0.21c0,0.02,0,0.05,0,0.07c-0.01,0.11-0.01,0.09,0.01-0.06c0.03,0.07-0.06,0.26-0.08,0.34
				c-0.06,0.22,0.11-0.17-0.01,0.01c-0.02,0.04-0.05,0.08-0.07,0.12c-0.1,0.2,0.15-0.14-0.01,0.02c-0.03,0.03-0.07,0.07-0.09,0.1
				c-0.14,0.16,0.18-0.09-0.01,0.01c-0.05,0.02-0.13,0.09-0.18,0.1c0.04-0.02,0.07-0.03,0.11-0.05c-0.05,0.01-0.09,0.03-0.14,0.04
				c-0.01-0.01,0.27,0,0.05-0.01c-0.02,0-0.05,0-0.07,0c-0.11-0.01-0.09,0,0.05,0.01c-0.01,0.01-0.14-0.03-0.14-0.03
				c-0.02-0.01-0.05-0.01-0.07-0.02c-0.1-0.04-0.09-0.03,0.04,0.02c-0.02,0.01-0.1-0.06-0.13-0.07c-0.2-0.09,0.13,0.14-0.03-0.01
				c-0.02-0.02-0.15-0.12-0.15-0.15c0.02,0.03,0.05,0.06,0.07,0.09c-0.03-0.04-0.05-0.08-0.07-0.12c-0.11-0.15,0.04,0.18,0-0.01
				c-0.05-0.22-0.03,0.23-0.01,0c0.02-0.2-0.08,0.21-0.01,0c0.07-0.22-0.11,0.14-0.02,0.03c0.01-0.03,0.03-0.05,0.04-0.08
				c0.06-0.09,0.04-0.06-0.06,0.07c0-0.01,0.06-0.07,0.08-0.08c0.08-0.07,0.05-0.05-0.07,0.05c0.03-0.02,0.06-0.04,0.09-0.06
				c0.02-0.01,0.03-0.02,0.05-0.03c-0.05,0.02-0.09,0.04-0.14,0.06c0.06,0,0.16-0.05,0.22-0.07c0.1-0.03,0.09,0.04-0.09,0.01
				c0.06,0.01,0.14-0.01,0.21-0.01c0.05,0,0.1,0,0.15,0.01c0.19,0.01-0.23-0.07,0.01,0.01c0.05,0.02,0.1,0.02,0.15,0.04
				c0.21,0.06,0.02,0.05-0.01-0.01c0,0.01,0.29,0.19,0.32,0.19c-0.1,0-0.15-0.13-0.02,0c0.14,0.15-0.01,0.04,0-0.02
				c0,0.01,0.1,0.17,0.11,0.18c0.1,0.17-0.01-0.12,0.04,0.09c0.02,0.07,0.03,0.15,0.06,0.21c0.01,0.07,0.01,0.06,0-0.05
				c0.01,0.06,0.01,0.12,0.01,0.18c0,0.07,0,0.15,0,0.22c0,0.05-0.05,0.36-0.01,0.14c-0.04,0.18-0.08,0.36-0.13,0.53
				c-0.02,0.06-0.04,0.12-0.06,0.18c-0.04,0.11-0.04,0.12,0,0.02c-0.02,0.06-0.05,0.11-0.08,0.17c-0.08,0.17-0.17,0.33-0.27,0.49
				c0.46-0.12,0.91-0.24,1.37-0.36c-0.1-0.07-0.03-0.02,0.02,0.02c-0.05-0.04-0.09-0.08-0.14-0.13c-0.03-0.03-0.06-0.08-0.1-0.11
				c-0.08-0.07,0.09,0.15,0,0c-0.06-0.1-0.11-0.2-0.16-0.29c-0.06-0.1,0.02,0.14,0.02,0.03c0-0.05-0.04-0.13-0.05-0.18
				c-0.01-0.05-0.02-0.1-0.03-0.15c-0.03-0.15-0.02,0.02,0.01,0.05c-0.05-0.05,0-0.27,0-0.33c-0.01-0.11-0.05,0.19,0,0.01
				c0.01-0.05,0.02-0.1,0.03-0.14c0.01-0.03,0.06-0.23,0.02-0.09c-0.04,0.13,0.03-0.06,0.04-0.08c0.24-0.46,0.13-1.11-0.36-1.37
				c-0.46-0.24-1.11-0.14-1.37,0.36c-0.76,1.45-0.28,3.22,1.07,4.13c0.45,0.3,1.1,0.08,1.37-0.36c0.95-1.57,1.36-4.04-0.49-5.16
				c-0.65-0.4-1.52-0.53-2.26-0.31c-0.87,0.26-1.51,1.01-1.54,1.93c-0.03,1.02,0.74,1.85,1.64,2.2c0.87,0.34,1.91,0.09,2.53-0.61
				c0.62-0.7,0.84-1.62,0.68-2.53c-0.15-0.9-0.83-1.68-1.62-2.09c-0.84-0.45-1.81-0.59-2.75-0.41c-0.89,0.18-1.8,0.8-2.04,1.71
				c-0.27,1.02,0.33,2.07,1.02,2.78c0.58,0.6,1.36,1.06,2.18,1.24c0.86,0.18,1.83,0.11,2.58-0.38c0.65-0.42,1.11-1.07,1.32-1.82
				c0.44-1.55-0.31-3.39-2.01-3.7c-1.08-0.2-2.14,0.1-2.99,0.78c-0.78,0.63-1.2,1.63-0.99,2.62c0.33,1.57,2.59,2.11,3.7,1.04
				c0.33-0.32,0.46-0.73,0.5-1.18c0.03-0.31-0.16-0.61-0.39-0.79c-0.27-0.21-0.54-0.23-0.87-0.18c-0.43,0.06-0.86,0.18-1.22,0.44
				c-0.52,0.38-0.85,0.97-0.69,1.62c0.27,1.15,1.93,1.69,2.59,0.54c0.26-0.46,0.12-1.11-0.36-1.37
				C102.62,73.4,102,73.53,101.72,74.01L101.72,74.01z"/>
		</g>
	</g>
	<g>
		<g>
			<g>
				<path d="M110.93,77.87c-2.11,3.16-3.76,6.89-4.27,10.68c-0.22,1.6-0.08,3.36,1.07,4.6c1,1.07,2.54,1.53,3.9,0.9
					c0.58-0.27,0.08-1.13-0.5-0.86c-1.2,0.56-2.59-0.32-3.14-1.4c-0.73-1.43-0.38-3.18-0.03-4.66c0.74-3.13,2.06-6.09,3.84-8.76
					C112.16,77.83,111.29,77.33,110.93,77.87L110.93,77.87z"/>
			</g>
		</g>
		<g>
			<g>
				<path d="M114.79,82.24c-0.54,2.94-0.74,5.94-0.57,8.92c0.04,0.64,1.04,0.64,1,0c-0.17-2.9,0-5.8,0.53-8.66
					C115.87,81.87,114.91,81.6,114.79,82.24L114.79,82.24z"/>
			</g>
		</g>
		<g>
			<g>
				<path d="M119.17,91.35c-1.14,2.13-2.28,4.26-3.41,6.39c-0.3,0.57,0.56,1.07,0.86,0.5c1.14-2.13,2.28-4.26,3.41-6.39
					C120.34,91.29,119.48,90.79,119.17,91.35L119.17,91.35z"/>
			</g>
		</g>
		<g>
			<g>
				<path d="M123.56,81.71c-0.5,2.46-0.63,4.99-0.36,7.49c0.07,0.63,1.07,0.64,1,0c-0.26-2.41-0.16-4.84,0.33-7.22
					C124.65,81.35,123.69,81.08,123.56,81.71L123.56,81.71z"/>
			</g>
		</g>
		<g>
			<g>
				<path d="M126.13,80.05c0.97,2.71,1.48,5.55,1.49,8.43c0,1.42-0.09,2.87-0.35,4.27c-0.16,0.85-0.53,2.24-1.59,2.28
					c-0.64,0.02-0.64,1.02,0,1c2.81-0.1,2.85-4.46,2.93-6.41c0.14-3.34-0.39-6.69-1.51-9.83C126.88,79.19,125.91,79.44,126.13,80.05
					L126.13,80.05z"/>
			</g>
		</g>
	</g>
</g>
</svg>
