<?xml version="1.0" encoding="utf-8"?>
<!-- Generator: Adobe Illustrator 23.1.1, SVG Export Plug-In . SVG Version: 6.00 Build 0)  -->
<svg version="1.1" id="Layer_1" xmlns="http://www.w3.org/2000/svg" xmlns:xlink="http://www.w3.org/1999/xlink" x="0px" y="0px"
	 viewBox="0 0 288 216" style="enable-background:new 0 0 288 216;" xml:space="preserve">
<style type="text/css">
	.st0{fill:#FFFFFF;}
</style>
<g>
	<path d="M66.43,95.44c33.52-2.97,67.2-4.13,100.85-3.49c-8.2-10.96-16.39-21.93-24.59-32.89c6.05-2.6,12.36-4.59,18.8-5.95
		c0.9-0.19,1.83-0.36,2.71-0.12c1.01,0.28,1.79,1.07,2.52,1.83c15.21,16.05,27.88,34.49,37.42,54.44
		c-11.32,12.99-22.64,25.99-33.96,38.98c-3.08,3.54-6.24,7.14-10.28,9.53c-0.48,0.28-1.01,0.56-1.57,0.52
		c-0.49-0.03-0.93-0.3-1.35-0.57c-5.43-3.41-10.86-6.83-16.3-10.24c10.23-9.96,20.01-20.4,29.28-31.25c-2.2-0.6-4.5-0.78-6.78-0.91
		c-26.8-1.5-53.64,3-80.46,1.82c-7.18-0.31-14.4-1.03-21.52-0.14"/>
</g>
<g>
	<g>
		<path class="st0" d="M82.24,96.65c-0.37,1.84-0.6,3.73-0.45,5.61c0.14,1.75,0.52,3.73,1.55,5.19c1.05,1.48,2.74,2.1,4.43,1.3
			c1.62-0.76,2.56-2.5,3-4.17c0.52-2.01,0.49-4.15,0.57-6.21c0.05-1.29-1.95-1.28-2,0c-0.08,1.88-0.02,3.85-0.5,5.68
			c-0.21,0.82-0.54,1.66-1.13,2.29c-0.44,0.47-1.1,0.93-1.78,0.75c-0.65-0.17-1.03-0.84-1.3-1.4c-0.4-0.84-0.63-1.79-0.77-2.71
			c-0.28-1.92-0.08-3.9,0.3-5.8C84.42,95.93,82.5,95.39,82.24,96.65L82.24,96.65z"/>
	</g>
</g>
<g>
	<g>
		<path class="st0" d="M92.67,100.95c-0.13,2.1-0.23,4.21-0.32,6.32c-0.04,1.05-0.08,2.11-0.11,3.16c-0.03,1.02-0.03,2.16,1.27,2.27
			c0.54,0.05,1-0.49,1-1c0-0.58-0.46-0.95-1-1c-0.04,0-0.07-0.01-0.11-0.01c0.24,0.1,0.47,0.2,0.71,0.29
			c0.1,0.36,0.14,0.39,0.12,0.08c0-0.07,0-0.14,0.01-0.21c0.01-0.25,0.01-0.49,0.02-0.74c0.01-0.42,0.03-0.84,0.04-1.26
			c0.03-0.88,0.06-1.76,0.1-2.63c0.07-1.75,0.17-3.51,0.27-5.26C94.75,99.67,92.75,99.67,92.67,100.95L92.67,100.95z"/>
	</g>
</g>
<g>
	<g>
		<path class="st0" d="M93.13,100.89c0.44-0.11,0.89-0.2,1.34-0.27c0.06-0.01,0.13-0.02,0.19-0.03c-0.02,0-0.14,0.02-0.02,0
			c0.11-0.01,0.23-0.03,0.34-0.04c0.23-0.02,0.46-0.04,0.68-0.06c0.22-0.01,0.45-0.02,0.67-0.02c0.1,0,0.2,0,0.3,0.01
			c0.04,0,0.09,0.01,0.13,0.01c0.19,0.01-0.08-0.03,0.03,0.01c0.09,0.03,0.19,0.04,0.28,0.08c-0.21-0.08,0.05,0.02,0.05,0.05
			c0,0.04-0.16-0.2-0.04-0.02c0.02,0.03,0.06,0.11,0.01,0c-0.06-0.11-0.02-0.02,0,0.01c0.11,0.14-0.01-0.11,0-0.03
			c0,0.03,0.08,0.22,0.06,0.23c-0.01,0-0.02-0.21-0.01-0.1c0,0.03,0.01,0.07,0.01,0.1c0,0.08-0.01,0.16-0.01,0.25
			c0,0.14,0.04-0.19,0.01-0.05c-0.01,0.05-0.02,0.09-0.03,0.14c-0.02,0.08-0.04,0.16-0.07,0.24c-0.01,0.03-0.03,0.07-0.04,0.1
			c-0.04,0.13,0.08-0.16,0.02-0.04c-0.08,0.15-0.15,0.31-0.24,0.45c-0.05,0.07-0.09,0.14-0.14,0.21c-0.08,0.12,0.03,0.01,0.02-0.03
			c0,0.01-0.06,0.07-0.07,0.09c-0.12,0.14-0.25,0.28-0.38,0.41c-0.05,0.05-0.11,0.1-0.17,0.15c-0.03,0.03-0.08,0.08-0.12,0.1
			c0,0,0.15-0.11,0.05-0.04c-0.16,0.11-0.31,0.22-0.47,0.31c-0.09,0.05-0.18,0.1-0.27,0.14c-0.03,0.02-0.07,0.03-0.1,0.05
			c-0.02,0.01-0.05,0.02-0.07,0.03c-0.07,0.03-0.05,0.02,0.06-0.03c-0.04,0.05-0.23,0.09-0.29,0.11c-0.08,0.03-0.17,0.05-0.26,0.08
			c-0.1,0.03-0.2,0.05-0.3,0.07c-0.05,0.01-0.1,0.02-0.15,0.03c-0.03,0-0.2,0.03-0.06,0.01c0.14-0.02-0.02,0-0.06,0
			c-0.05,0-0.1,0.01-0.15,0.01c-0.12,0.01-0.23,0.01-0.35,0.01c0.33,0.33,0.67,0.67,1,1c-0.01-0.12-0.02-0.09-0.05,0.09
			c-0.01,0.1-0.05,0.18-0.11,0.26c0.37-0.37,0.4-1.05,0-1.41c-0.4-0.36-1.02-0.4-1.41,0c-0.27,0.27-0.47,0.68-0.42,1.07
			c0.06,0.54,0.41,0.99,1,1c1.95,0.02,3.85-0.98,4.92-2.61c0.53-0.81,0.84-1.83,0.61-2.79c-0.13-0.56-0.49-1.03-0.96-1.34
			c-0.48-0.32-1.11-0.4-1.67-0.4c-1.28-0.01-2.59,0.18-3.83,0.49c-0.51,0.13-0.86,0.73-0.7,1.23
			C92.07,100.72,92.58,101.03,93.13,100.89L93.13,100.89z"/>
	</g>
</g>
<g>
	<g>
		<path class="st0" d="M113.5,94.96c-0.1,2.26-0.2,4.52-0.29,6.78c-0.05,1.15-0.09,2.3-0.14,3.45c-0.02,0.53-0.04,1.07-0.06,1.6
			c-0.02,0.52-0.09,1.05,0.14,1.54c0.5,1.04,1.72,0.97,2.34,0.09c0.53-0.75,0.61-1.76,1.19-2.46c0.4-0.48,1.19-0.76,1.77-0.47
			c0.43,0.22,0.74,0.77,0.42,1.2c-0.44,0.57-1.44,0.69-2.1,0.79c-1.21,0.17-2.44,0.28-3.65,0.42c-0.54,0.06-1,0.42-1,1
			c0,0.49,0.46,1.06,1,1c1.01-0.12,2.01-0.23,3.02-0.35c0.82-0.09,1.66-0.17,2.45-0.43c1.55-0.52,2.86-1.88,2.3-3.62
			c-0.53-1.65-2.32-2.45-3.94-1.98c-0.82,0.24-1.51,0.74-1.99,1.44c-0.26,0.38-0.43,0.8-0.6,1.23c-0.09,0.22-0.26,0.96-0.49,1.07
			c0.17-0.05,0.34-0.09,0.5-0.14c-0.04,0-0.08-0.01-0.13-0.01c0.17,0.05,0.34,0.09,0.5,0.14c-0.03-0.02-0.07-0.04-0.1-0.06
			c0.12,0.12,0.24,0.24,0.36,0.36c-0.13-0.18,0.02-1,0.03-1.24c0.02-0.49,0.04-0.99,0.06-1.48c0.04-1.11,0.09-2.22,0.13-3.33
			c0.09-2.18,0.18-4.36,0.28-6.54C115.56,93.68,113.56,93.68,113.5,94.96L113.5,94.96z"/>
	</g>
</g>
<g>
	<g>
		<path class="st0" d="M122.14,100.61c0.17,0.96-0.14,1.93,0.05,2.9c0.15,0.81,0.6,1.59,1.32,2.02c0.85,0.5,1.92,0.42,2.77-0.04
			c0.85-0.46,1.41-1.26,1.91-2.05c-0.61-0.26-1.22-0.51-1.83-0.77c-1.34,4.44-4.23,8.31-8.03,10.96c-1.05,0.73-0.05,2.47,1.01,1.73
			c4.23-2.95,7.46-7.2,8.95-12.16c0.33-1.11-1.23-1.71-1.83-0.77c-0.33,0.52-1.46,2.17-2.14,1.16c-0.26-0.4-0.22-0.93-0.2-1.38
			c0.04-0.73,0.08-1.4-0.05-2.12C123.84,98.82,121.91,99.35,122.14,100.61L122.14,100.61z"/>
	</g>
</g>
<g>
	<g>
		<path class="st0" d="M139.25,95.71c-0.53,4.87-0.12,9.8,1.13,14.53c0.25,0.94,1.7,0.97,1.93,0c0.38-1.59,0.72-3.18,1.14-4.76
			c0.25-0.96,0.68-1.78,1.65-2.17c0.5-0.2,1.16-0.34,1.64,0c0.42,0.29,0.64,0.88,0.81,1.34c0.25,0.66,0.39,1.36,0.4,2.06
			c0,0.38-0.02,0.75-0.1,1.12c-0.04,0.18-0.08,0.35-0.13,0.53c-0.02,0.08-0.23,0.51-0.09,0.36c0.15-0.09,0.29-0.17,0.44-0.26
			c-0.04,0.01-0.09,0.03-0.13,0.04c0.18,0,0.35,0,0.53,0c-0.03-0.01-0.06-0.02-0.08-0.03c0.23,0.23,0.47,0.47,0.7,0.7
			c-0.01-0.02-0.01-0.04-0.02-0.06c-0.03,0.26-0.07,0.51-0.1,0.77c0.01-0.02,0.02-0.03,0.03-0.05c-0.29,0.17-0.58,0.33-0.86,0.5
			c0.02,0,0.05,0,0.07,0.01c1.28,0.11,1.27-1.89,0-2c-0.02,0-0.05,0-0.07-0.01c-0.36-0.03-0.67,0.22-0.86,0.5
			c-0.8,1.17,0.99,2.17,1.85,1.23c0.37-0.4,0.51-1.07,0.62-1.59c0.13-0.57,0.2-1.17,0.19-1.76c-0.02-1.86-0.71-4.49-2.57-5.31
			c-1.89-0.84-4.28,0.26-5.25,1.98c-0.45,0.79-0.64,1.68-0.84,2.55c-0.3,1.26-0.6,2.52-0.9,3.79c0.64,0,1.29,0,1.93,0
			c-1.2-4.58-1.56-9.29-1.06-14c0.06-0.54-0.5-1-1-1C139.66,94.71,139.31,95.17,139.25,95.71L139.25,95.71z"/>
	</g>
</g>
</svg>
