<?xml version="1.0" encoding="utf-8"?>
<!-- Generator: Adobe Illustrator 23.1.1, SVG Export Plug-In . SVG Version: 6.00 Build 0)  -->
<svg version="1.1" id="Layer_1" xmlns="http://www.w3.org/2000/svg" xmlns:xlink="http://www.w3.org/1999/xlink" x="0px" y="0px"
	 viewBox="0 0 288 216" style="enable-background:new 0 0 288 216;" xml:space="preserve">
<style type="text/css">
	.st0{fill:#A7A9AC;}
	.st1{fill:none;stroke:#000000;stroke-miterlimit:10;}
	.st2{fill:#808285;}
	.st3{fill:#ED1C24;}
</style>
<g>
	<g>
		<g>
			<path class="st0" d="M243.21,129.34c3.93-3.47,7.75-7.07,11.44-10.79c0.45-0.45,0.9-0.91,1.34-1.36
				c0.42-0.43,0.93-0.86,1.11-1.46c0.35-1.2-0.7-1.94-1.57-2.52c-1.63-1.07-3.47-1.73-5.25-2.49c-1.91-0.81-3.86-1.78-5.1-3.5
				c-0.12,0.46-0.24,0.91-0.36,1.37c0.26-0.17,0.46-0.16,0.68,0.07c0.9,0.92,2.32-0.49,1.41-1.41c-0.82-0.84-2.1-1.03-3.1-0.38
				c-0.42,0.27-0.69,0.91-0.36,1.37c2.27,3.15,5.9,4.08,9.23,5.68c0.81,0.39,1.64,0.82,2.35,1.38c0.02,0.02,0.16,0.15,0.19,0.16
				c0.02,0.02,0.04,0.04,0.06,0.05c-0.02-0.12-0.04-0.25-0.07-0.37c-0.07-0.01-0.56,0.58-0.62,0.64c-0.45,0.46-0.89,0.91-1.34,1.36
				c-1.74,1.75-3.5,3.47-5.3,5.17c-2.02,1.91-4.07,3.78-6.15,5.62C240.83,128.78,242.25,130.19,243.21,129.34L243.21,129.34z"/>
		</g>
	</g>
	<g>
		<g>
			<path class="st0" d="M39.43,102.04c-3.54,1.58-6.89,3.56-9.98,5.89c-0.72,0.54-1.6,1.09-2.17,1.79c-0.67,0.81-0.44,1.77,0.2,2.51
				c1.36,1.58,2.91,3.03,4.39,4.49c1.67,1.65,3.37,3.26,5.1,4.85c0.95,0.87,2.37-0.54,1.41-1.41c-1.76-1.61-3.49-3.26-5.19-4.93
				c-0.85-0.84-1.7-1.69-2.53-2.55c-0.42-0.43-0.83-0.86-1.25-1.29c-0.1-0.11-0.39-0.54-0.53-0.56c-0.08-0.16-0.11-0.1-0.09,0.18
				c0.08-0.09,0.17-0.16,0.26-0.24c3.34-2.9,7.36-5.2,11.38-6.99c0.49-0.22,0.61-0.94,0.36-1.37
				C40.5,101.89,39.92,101.82,39.43,102.04L39.43,102.04z"/>
		</g>
	</g>
	<g>
		<g>
			<path class="st0" d="M27.74,112.35c13.93,3.8,28.45,3.76,42.78,3.62c15.01-0.15,30.01-0.31,45.02-0.46
				c15.01-0.15,30.03-0.31,45.04-0.46c14.93-0.15,29.87-0.38,44.8-0.25c16.85,0.15,33.71,0.81,50.47,2.67
				c0.39,0.04,0.9-0.34,0.96-0.73c0.27-1.68-0.76-3.47-2.62-3.42c-1.28,0.04-1.29,2.04,0,2c0.47-0.01,0.77,0.42,0.7,0.89
				c0.32-0.24,0.64-0.49,0.96-0.73c-29.66-3.3-59.56-2.79-89.35-2.49c-30.03,0.31-60.06,0.62-90.09,0.93
				c-16.08,0.17-32.47,0.79-48.14-3.49C27.03,110.08,26.5,112.01,27.74,112.35L27.74,112.35z"/>
		</g>
	</g>
</g>
<g>
	<g>
		<g>
			<path class="st0" d="M132.66,38.31c1.64-4.9,3.62-9.69,5.94-14.31c0.57-1.13,1.15-2.25,1.76-3.36c0.27-0.5,0.55-1.01,0.84-1.5
				c0,0,0.26-0.41,0.27-0.4c-0.1,0.01-0.19,0.02-0.29,0.03c0.02,0.02,0.03,0.04,0.05,0.05c0.01,0.06,0.22,0.31,0.25,0.36
				c1.45,2.32,2.83,4.68,4.25,7.01c1.63,2.69,3.26,5.39,4.89,8.08c0.36,0.59,1.4,0.71,1.73,0c0.33-0.72,0.66-1.44,0.99-2.16
				c0.22-0.49,0.14-1.08-0.36-1.37c-0.43-0.25-1.14-0.13-1.37,0.36c-0.33,0.72-0.66,1.44-0.99,2.16c0.58,0,1.15,0,1.73,0
				c-1.59-2.62-3.18-5.24-4.76-7.87c-0.79-1.31-1.59-2.62-2.38-3.93c-0.75-1.23-1.43-2.57-2.29-3.73c-0.77-1.03-2.11-1.3-3-0.24
				c-0.41,0.49-0.69,1.08-0.99,1.63c-0.35,0.64-0.7,1.28-1.04,1.92c-1.31,2.48-2.52,5.02-3.63,7.6c-1.29,3-2.46,6.04-3.5,9.14
				C130.32,39,132.25,39.53,132.66,38.31L132.66,38.31z"/>
		</g>
	</g>
	<g>
		<g>
			<path class="st0" d="M134.07,181.51c1.59,3.79,3.51,7.42,5.82,10.82c0.54,0.79,1.06,1.7,1.74,2.39c0.76,0.77,1.84,0.61,2.52-0.16
				c1.39-1.59,2.58-3.41,3.8-5.13c1.44-2.01,2.84-4.05,4.2-6.11c0.71-1.08-1.02-2.08-1.73-1.01c-1.36,2.06-2.76,4.1-4.2,6.11
				c-0.69,0.97-1.4,1.93-2.11,2.89c-0.33,0.45-0.66,0.89-1,1.33c-0.05,0.07-0.51,0.56-0.5,0.63c0.42,0.13,0.54,0.12,0.36-0.04
				c-0.09-0.12-0.18-0.24-0.26-0.36c-2.68-3.69-4.94-7.69-6.7-11.9c-0.21-0.5-0.66-0.85-1.23-0.7
				C134.3,180.41,133.86,181.01,134.07,181.51L134.07,181.51z"/>
		</g>
	</g>
	<g>
		<g>
			<path class="st0" d="M140.07,18.29c-0.36,22.73-0.5,45.45-0.44,68.18c0.07,22.62,0.35,45.23,0.84,67.84
				c0.28,12.76,0.62,25.51,1.03,38.26c0.04,1.28,2.04,1.29,2,0c-0.73-22.72-1.25-45.45-1.56-68.18c-0.3-22.61-0.4-45.23-0.28-67.84
				c0.07-12.75,0.2-25.51,0.4-38.26C142.09,17,140.09,17,140.07,18.29L140.07,18.29z"/>
		</g>
	</g>
</g>
<line class="st1" x1="278.19" y1="73" x2="277.82" y2="73.37"/>
<g>
	<g>
		<g>
			<path class="st2" d="M230.12,47.62c-0.59-1.73-1.17-3.47-1.76-5.2c-0.46-1.35-0.8-3.11-2.07-3.97c-0.62-0.42-1.39-0.48-2.07-0.17
				c-0.31,0.14-0.6,0.35-0.84,0.6c-0.08,0.09-0.15,0.18-0.23,0.28c-0.22,0.29,0.01-0.01-0.08,0.11c-0.51,0.62-1.07,1.18-1.66,1.72
				c-1.19,1.09-2.45,2.1-3.73,3.08c-0.43,0.33-0.66,0.86-0.36,1.37c0.25,0.42,0.94,0.69,1.37,0.36c2.04-1.57,4.27-3.17,5.88-5.22
				c0.07-0.08,0.13-0.17,0.2-0.25c-0.08,0.1-0.1,0.12-0.04,0.05c0.07-0.08,0.14-0.17,0.23-0.23c0.19-0.12,0.15-0.1,0.28,0
				c0.56,0.44,0.74,1.46,0.95,2.09c0.67,1.97,1.33,3.94,2,5.92C228.6,49.36,230.53,48.84,230.12,47.62L230.12,47.62z"/>
		</g>
	</g>
	<g>
		<g>
			<path class="st2" d="M42.22,173.07c1.38,3.95,2.77,7.89,4.15,11.84c0.28,0.8,1.36,1.01,1.83,0.24c2.23-3.7,5.88-6.37,10.06-7.42
				c1.25-0.31,0.72-2.24-0.53-1.93c-4.68,1.17-8.77,4.21-11.26,8.34c0.61,0.08,1.22,0.16,1.83,0.24c-1.38-3.95-2.77-7.89-4.15-11.84
				C43.73,171.33,41.8,171.85,42.22,173.07L42.22,173.07z"/>
		</g>
	</g>
	<g>
		<g>
			<path class="st2" d="M48.47,182.56c3.66-10.15,7.31-20.3,10.97-30.46c3.42-9.48,6.73-19.01,10.31-28.44
				c3.13-8.24,6.6-16.41,11.13-23.99c4.43-7.42,10.03-14.78,17.21-19.74c3.65-2.51,7.94-4.49,12.45-4.34
				c4.8,0.16,8.72,3.1,12.37,5.93c6.94,5.38,13.49,11.32,20.93,16.02c7.38,4.66,15.68,7.84,24.51,7.67
				c9.1-0.18,17.79-3.61,24.67-9.55c7.08-6.12,12.43-14.24,17.36-22.11c5.23-8.36,9.8-17.12,13.66-26.19
				c0.92-2.17,1.81-4.36,2.66-6.57c0.46-1.2-1.47-1.72-1.93-0.53c-3.54,9.22-7.82,18.16-12.76,26.71c-2.5,4.31-5.16,8.53-7.99,12.63
				c-2.64,3.83-5.41,7.59-8.6,10.98c-3.14,3.34-6.68,6.29-10.74,8.43c-3.99,2.11-8.42,3.47-12.91,3.97
				c-8.93,0.99-17.45-1.55-25.09-6.06c-7.56-4.46-14.13-10.33-20.99-15.75c-3.55-2.81-7.25-5.93-11.73-7.09
				c-4.36-1.13-8.88-0.16-12.86,1.77c-4.01,1.94-7.48,4.83-10.61,7.97c-3.09,3.1-5.85,6.53-8.32,10.13
				c-4.97,7.24-8.75,15.22-12.05,23.33c-3.61,8.86-6.72,17.93-9.96,26.92c-3.66,10.15-7.31,20.3-10.97,30.46
				c-0.88,2.45-1.77,4.91-2.65,7.36C46.11,183.24,48.04,183.76,48.47,182.56L48.47,182.56z"/>
		</g>
	</g>
</g>
<g>
	<g>
		<g>
			<path class="st2" d="M236.22,44.7c-0.61-3.53-0.57-7.19,0.17-10.7c0.29-1.36,0.76-2.88,2.26-3.28c1.11-0.29,2.41,0.08,3.07,1.05
				c0.36,0.53,1.23,0.03,0.86-0.5c-0.8-1.18-2.2-1.77-3.62-1.61c-1.57,0.18-2.62,1.24-3.16,2.69c-0.69,1.88-0.88,4.06-0.98,6.04
				c-0.11,2.2,0.05,4.41,0.43,6.58C235.37,45.6,236.33,45.33,236.22,44.7L236.22,44.7z"/>
		</g>
	</g>
	<g>
		<g>
			<path class="st2" d="M232.68,37.48c2.47,0.4,4.97,0.65,7.47,0.75c0.64,0.03,0.64-0.97,0-1c-2.41-0.1-4.82-0.33-7.2-0.72
				c-0.27-0.04-0.53,0.07-0.62,0.35C232.26,37.1,232.41,37.44,232.68,37.48L232.68,37.48z"/>
		</g>
	</g>
	<g>
		<g>
			<path class="st2" d="M247.61,29.9c-1.87,2.93-3.26,6.16-4.15,9.52c-0.41,1.54-0.84,3.3-0.19,4.84c0.51,1.2,1.71,2.16,3.06,2.01
				c0.63-0.07,0.64-1.07,0-1c-1.42,0.17-2.29-1.19-2.38-2.46c-0.1-1.47,0.42-3.01,0.84-4.41c0.86-2.82,2.09-5.51,3.68-7.99
				C248.82,29.86,247.95,29.36,247.61,29.9L247.61,29.9z"/>
		</g>
	</g>
	<g>
		<g>
			<path class="st2" d="M250.62,35.51c1.52,2.8,3.04,5.61,4.56,8.41c0.31,0.57,1.17,0.06,0.86-0.5c-1.52-2.8-3.04-5.61-4.56-8.41
				C251.17,34.43,250.31,34.94,250.62,35.51L250.62,35.51z"/>
		</g>
	</g>
	<g>
		<g>
			<path class="st2" d="M256,35c-1.59,1.75-3.19,3.51-4.78,5.26c-0.39,0.43-0.79,0.87-1.18,1.3c-0.32,0.35-0.81,0.74-0.93,1.21
				c-0.27,1.05,1.47,1.17,1.28,0.09c-0.11-0.63-1.08-0.36-0.96,0.27c0,0.02,0.01,0.04,0.01,0.05c0.02-0.13,0.03-0.26,0.05-0.39
				c0.2,0.07,0.39,0.14,0.59,0.22c0.02-0.02,0.04-0.05,0.05-0.07c0.08-0.05,0.15-0.16,0.21-0.23c0.14-0.15,0.27-0.3,0.41-0.45
				c0.29-0.32,0.58-0.64,0.87-0.96c0.57-0.62,1.13-1.24,1.7-1.87c1.13-1.24,2.26-2.49,3.39-3.73C257.14,35.24,256.43,34.53,256,35
				L256,35z"/>
		</g>
	</g>
	<g>
		<g>
			<path class="st2" d="M258.51,29.69c0.9,3.13,1.39,6.35,1.44,9.61c0.03,2.49,0.2,6.95-3.03,7.55c-0.63,0.12-0.36,1.08,0.27,0.96
				c3.44-0.63,3.73-4.79,3.77-7.57c0.05-3.65-0.46-7.31-1.47-10.81C259.3,28.81,258.33,29.07,258.51,29.69L258.51,29.69z"/>
		</g>
	</g>
</g>
<g>
	<g>
		<g>
			<path class="st3" d="M226.61,12.64c-0.59-1.73-1.17-3.47-1.76-5.2c-0.46-1.35-0.8-3.11-2.07-3.97c-0.62-0.42-1.39-0.48-2.07-0.17
				c-0.31,0.14-0.6,0.35-0.84,0.6c-0.08,0.09-0.15,0.18-0.23,0.28c-0.22,0.29,0.01-0.01-0.08,0.11c-0.51,0.62-1.07,1.18-1.66,1.72
				c-1.19,1.09-2.45,2.1-3.73,3.08c-0.43,0.33-0.66,0.86-0.36,1.37c0.25,0.42,0.94,0.69,1.37,0.36c2.04-1.57,4.27-3.17,5.88-5.22
				c0.07-0.08,0.13-0.17,0.2-0.25c-0.08,0.1-0.1,0.12-0.04,0.05c0.07-0.08,0.14-0.17,0.23-0.23c0.19-0.12,0.15-0.1,0.28,0
				c0.56,0.44,0.74,1.46,0.95,2.09c0.67,1.97,1.33,3.94,2,5.92C225.09,14.39,227.02,13.87,226.61,12.64L226.61,12.64z"/>
		</g>
	</g>
	<g>
		<g>
			<path class="st3" d="M38.71,138.1c1.38,3.95,2.77,7.89,4.15,11.84c0.28,0.8,1.36,1.01,1.83,0.24c2.23-3.7,5.88-6.37,10.06-7.42
				c1.25-0.31,0.72-2.24-0.53-1.93c-4.68,1.17-8.77,4.21-11.26,8.34c0.61,0.08,1.22,0.16,1.83,0.24c-1.38-3.95-2.77-7.89-4.15-11.84
				C40.22,136.36,38.29,136.88,38.71,138.1L38.71,138.1z"/>
		</g>
	</g>
	<g>
		<g>
			<path class="st3" d="M44.96,147.59c3.66-10.15,7.31-20.3,10.97-30.46c3.42-9.48,6.73-19.01,10.31-28.44
				c3.13-8.24,6.6-16.41,11.13-23.99c4.43-7.42,10.03-14.78,17.21-19.74c3.65-2.51,7.94-4.49,12.45-4.34
				c4.8,0.16,8.72,3.1,12.37,5.93c6.94,5.38,13.49,11.32,20.93,16.02c7.38,4.66,15.68,7.84,24.51,7.67
				c9.1-0.18,17.79-3.61,24.67-9.55c7.08-6.12,12.43-14.24,17.36-22.11c5.23-8.36,9.8-17.12,13.66-26.19
				c0.92-2.17,1.81-4.36,2.66-6.57c0.46-1.2-1.47-1.72-1.93-0.53c-3.54,9.22-7.82,18.16-12.76,26.71c-2.5,4.31-5.16,8.53-7.99,12.63
				c-2.64,3.83-5.41,7.59-8.6,10.98c-3.14,3.34-6.68,6.29-10.74,8.43c-3.99,2.11-8.42,3.47-12.91,3.97
				c-8.93,0.99-17.45-1.55-25.09-6.06c-7.56-4.46-14.13-10.33-20.99-15.75c-3.55-2.81-7.25-5.93-11.73-7.09
				c-4.36-1.13-8.88-0.16-12.86,1.77c-4.01,1.94-7.48,4.83-10.61,7.97c-3.09,3.1-5.85,6.53-8.32,10.13
				c-4.97,7.24-8.75,15.22-12.05,23.33c-3.61,8.86-6.72,17.93-9.96,26.92c-3.66,10.15-7.31,20.3-10.97,30.46
				c-0.88,2.45-1.77,4.91-2.65,7.36C42.6,148.27,44.53,148.79,44.96,147.59L44.96,147.59z"/>
		</g>
	</g>
</g>
<g>
	<g>
		<g>
			<path class="st3" d="M232.65,16.26c-0.61-3.53-0.57-7.19,0.17-10.7c0.29-1.36,0.76-2.88,2.26-3.28c1.11-0.29,2.41,0.08,3.07,1.05
				c0.36,0.53,1.23,0.03,0.86-0.5c-0.8-1.18-2.2-1.77-3.62-1.61c-1.57,0.18-2.62,1.24-3.16,2.69c-0.69,1.88-0.88,4.06-0.98,6.04
				c-0.11,2.2,0.05,4.41,0.43,6.58C231.8,17.16,232.76,16.89,232.65,16.26L232.65,16.26z"/>
		</g>
	</g>
	<g>
		<g>
			<path class="st3" d="M229.11,9.04c2.47,0.4,4.97,0.65,7.47,0.75c0.64,0.03,0.64-0.97,0-1c-2.41-0.1-4.82-0.33-7.2-0.72
				c-0.27-0.04-0.53,0.07-0.62,0.35C228.69,8.66,228.84,9,229.11,9.04L229.11,9.04z"/>
		</g>
	</g>
	<g>
		<g>
			<path class="st3" d="M244.04,1.45c-1.87,2.93-3.26,6.16-4.15,9.52c-0.41,1.54-0.84,3.3-0.19,4.84c0.51,1.2,1.71,2.16,3.06,2.01
				c0.63-0.07,0.64-1.07,0-1c-1.42,0.17-2.29-1.19-2.38-2.46c-0.1-1.47,0.42-3.01,0.84-4.41c0.86-2.82,2.09-5.51,3.68-7.99
				C245.25,1.42,244.39,0.91,244.04,1.45L244.04,1.45z"/>
		</g>
	</g>
	<g>
		<g>
			<path class="st3" d="M247.05,7.06c1.52,2.8,3.04,5.61,4.56,8.41c0.31,0.57,1.17,0.06,0.86-0.5c-1.52-2.8-3.04-5.61-4.56-8.41
				C247.6,5.99,246.74,6.49,247.05,7.06L247.05,7.06z"/>
		</g>
	</g>
	<g>
		<g>
			<path class="st3" d="M252.43,6.56c-1.59,1.75-3.19,3.51-4.78,5.26c-0.39,0.43-0.79,0.87-1.18,1.3c-0.32,0.35-0.81,0.74-0.93,1.21
				c-0.27,1.05,1.47,1.17,1.28,0.09c-0.11-0.63-1.08-0.36-0.96,0.27c0,0.02,0.01,0.04,0.01,0.05c0.02-0.13,0.03-0.26,0.05-0.39
				c0.2,0.07,0.39,0.14,0.59,0.22c0.02-0.02,0.04-0.05,0.05-0.07c0.08-0.05,0.15-0.16,0.21-0.23c0.14-0.15,0.27-0.3,0.41-0.45
				c0.29-0.32,0.58-0.64,0.87-0.96c0.57-0.62,1.13-1.24,1.7-1.87c1.13-1.24,2.26-2.49,3.39-3.73
				C253.57,6.79,252.87,6.08,252.43,6.56L252.43,6.56z"/>
		</g>
	</g>
	<g>
		<g>
			<path class="st3" d="M260.02,11.49c0.98-0.35,1.95-0.54,2.96-0.57c0.26-0.01,0.51-0.22,0.5-0.5c-0.01-0.26-0.22-0.51-0.5-0.5
				c-1.1,0.03-2.19,0.23-3.23,0.6c-0.25,0.09-0.44,0.34-0.35,0.62C259.48,11.38,259.76,11.58,260.02,11.49L260.02,11.49z"/>
		</g>
	</g>
	<g>
		<g>
			<path class="st3" d="M261.89,7.19c-0.66,1.95-1.03,4-1.1,6.06c-0.02,0.64,0.98,0.64,1,0c0.07-1.98,0.43-3.92,1.07-5.8
				C263.06,6.84,262.09,6.58,261.89,7.19L261.89,7.19z"/>
		</g>
	</g>
	<g>
		<g>
			<path class="st3" d="M254.59,2.75c3.03,5.01,1.91,11.95-2.51,15.78c-0.49,0.42,0.22,1.13,0.71,0.71
				c4.75-4.11,5.91-11.62,2.66-16.99C255.12,1.7,254.26,2.2,254.59,2.75L254.59,2.75z"/>
		</g>
	</g>
	<g>
		<g>
			<path class="st3" d="M266.47,4.77c-0.23,3.44-0.4,6.88-0.51,10.33c-0.02,0.65,0.96,0.64,1,0c0.05-0.86,0.23-1.7,0.54-2.5
				c0.27-0.69,0.68-1.74,1.36-2.13c0.49-0.28,0.6,0.18,0.72,0.59c0.12,0.44,0.22,0.89,0.28,1.34c0.13,0.93,0.13,1.87,0.04,2.8
				c-0.07,0.64,0.94,0.64,1,0c0.13-1.28,0.06-2.58-0.22-3.84c-0.2-0.91-0.58-2.26-1.8-1.98c-1.03,0.23-1.64,1.37-2.05,2.24
				c-0.51,1.1-0.8,2.26-0.87,3.46c0.33,0,0.67,0,1,0c0.11-3.45,0.28-6.89,0.51-10.33C267.51,4.13,266.51,4.13,266.47,4.77
				L266.47,4.77z"/>
		</g>
	</g>
</g>
<g>
	<g>
		<g>
			<path d="M163.31,72.22c0.28,4.47-0.2,8.93-0.07,13.4c0.07,2.18,0.37,4.3,0.71,6.45c0.36,2.24,0.55,4.5,0.54,6.76
				c0,0.61-0.03,1.22-0.05,1.83c-0.01,0.37,0.02,0.76,0.33,1.01c0.59,0.45,1.33-0.28,0.95-0.89c-0.09-0.15-0.25-0.26-0.43-0.25
				c-0.02,0-0.05,0-0.07,0c-0.64,0.03-0.64,1.03,0,1c0.02,0,0.05,0,0.07,0c-0.14-0.08-0.29-0.17-0.43-0.25
				c0-0.11,0.01-0.21,0.01-0.32c0.12-0.05,0.24-0.1,0.35-0.15c0.35-0.01,0.23-0.48,0.24-0.76c0.01-0.33,0.02-0.65,0.02-0.98
				c0.01-0.57,0-1.14-0.02-1.71c-0.04-1.22-0.13-2.44-0.28-3.65c-0.29-2.34-0.77-4.64-0.9-7c-0.27-4.83,0.33-9.66,0.02-14.49
				C164.27,71.58,163.27,71.58,163.31,72.22L163.31,72.22z"/>
		</g>
	</g>
	<g>
		<g>
			<path d="M166.69,82.51c0,2.74,0.01,5.48,0.01,8.22c0,0.55,0.85,0.69,0.98,0.13c0.34-1.51,0.98-2.9,1.88-4.15
				c-0.26,0.03-0.52,0.07-0.79,0.1c1.05,1.23,1.49,2.84,1.28,4.43c-0.08,0.64,0.92,0.63,1,0c0.23-1.86-0.37-3.72-1.58-5.13
				c-0.23-0.27-0.61-0.14-0.79,0.1c-0.95,1.32-1.62,2.81-1.98,4.39c0.33,0.04,0.65,0.09,0.98,0.13c0-2.74-0.01-5.48-0.01-8.22
				C167.69,81.87,166.69,81.87,166.69,82.51L166.69,82.51z"/>
		</g>
	</g>
	<g>
		<g>
			<path d="M160.82,76.01c0.46-0.65,0.92-1.29,1.38-1.94c0.23-0.33,0.47-0.66,0.7-0.99c0.17-0.23,0.32-0.5,0.56-0.68
				c0.15-0.11,0.3-0.18,0.41-0.01c0.19,0.31,0.31,0.67,0.46,0.99c0.34,0.74,0.69,1.49,1.03,2.23c0.11,0.25,0.47,0.31,0.68,0.18
				c0.25-0.15,0.29-0.44,0.18-0.68c-0.4-0.87-0.81-1.75-1.21-2.62c-0.17-0.36-0.3-0.77-0.64-1.01c-0.32-0.23-0.74-0.25-1.1-0.11
				c-0.78,0.3-1.21,1.16-1.67,1.8c-0.55,0.78-1.1,1.55-1.65,2.33c-0.16,0.22-0.04,0.56,0.18,0.68
				C160.39,76.33,160.67,76.23,160.82,76.01L160.82,76.01z"/>
		</g>
	</g>
	<g>
		<g>
			<path d="M163.28,97.23c0.01-0.01,0.01-0.02,0.02-0.03c0.1-0.15,0.09-0.35,0-0.5c-0.24-0.43-0.89-0.36-1.03,0.13
				c-0.1,0.35,0.16,0.82,0.28,1.14c0.29,0.78,0.62,1.55,0.99,2.3c0.18,0.35,0.36,0.7,0.56,1.05c0.19,0.33,0.38,0.8,0.71,1
				c0.42,0.27,0.83,0.02,1.08-0.33c0.25-0.35,0.5-0.71,0.74-1.06c0.59-0.84,1.17-1.67,1.76-2.51c0.16-0.22,0.04-0.56-0.18-0.68
				c-0.25-0.15-0.53-0.04-0.68,0.18c-0.44,0.62-0.87,1.25-1.31,1.87c-0.22,0.31-0.44,0.62-0.65,0.93c-0.1,0.14-0.2,0.28-0.3,0.42
				c-0.06,0.08-0.12,0.17-0.18,0.25c-0.02,0.03-0.04,0.06-0.06,0.08c-0.03,0.02-0.02,0.02,0.03-0.03c0.09,0,0.18,0,0.27,0
				c0.04,0.04,0.05,0.04,0.03,0.01c-0.03-0.05-0.07-0.11-0.1-0.16c-0.05-0.08-0.1-0.16-0.15-0.24c-0.11-0.19-0.22-0.38-0.33-0.58
				c-0.21-0.39-0.41-0.78-0.6-1.19c-0.18-0.39-0.35-0.79-0.51-1.19c-0.08-0.21-0.16-0.41-0.23-0.62c-0.05-0.15-0.18-0.43-0.18-0.52
				c-0.02,0.08-0.05,0.17-0.07,0.25c0.01-0.02,0.02-0.03,0.03-0.05c-0.1,0.08-0.2,0.15-0.3,0.23c0.01,0,0.02-0.01,0.04-0.01
				c-0.13-0.02-0.26-0.03-0.39-0.05c0.01,0.01,0.02,0.01,0.03,0.02c-0.06-0.06-0.12-0.12-0.18-0.18c0.01,0.01,0.01,0.02,0.02,0.03
				c0-0.17,0-0.34,0-0.5c-0.01,0.01-0.01,0.02-0.02,0.03C162.07,97.27,162.93,97.77,163.28,97.23L163.28,97.23z"/>
		</g>
	</g>
</g>
<g>
	<g>
		<g>
			<path d="M107.98,42.35c0.28,4.47-0.2,8.93-0.07,13.4c0.07,2.18,0.37,4.3,0.71,6.45c0.36,2.24,0.55,4.5,0.54,6.76
				c0,0.61-0.03,1.22-0.05,1.83c-0.01,0.37,0.02,0.76,0.33,1.01c0.59,0.45,1.33-0.28,0.95-0.89c-0.09-0.15-0.25-0.26-0.43-0.25
				c-0.02,0-0.05,0-0.07,0c-0.64,0.03-0.64,1.03,0,1c0.02,0,0.05,0,0.07,0c-0.14-0.08-0.29-0.17-0.43-0.25
				c0-0.11,0.01-0.21,0.01-0.32c0.12-0.05,0.24-0.1,0.35-0.15c0.35-0.01,0.23-0.48,0.24-0.76c0.01-0.33,0.02-0.65,0.02-0.98
				c0.01-0.57,0-1.14-0.02-1.71c-0.04-1.22-0.13-2.44-0.28-3.65c-0.29-2.34-0.77-4.64-0.9-7c-0.27-4.83,0.33-9.66,0.02-14.49
				C108.94,41.71,107.94,41.7,107.98,42.35L107.98,42.35z"/>
		</g>
	</g>
	<g>
		<g>
			<path d="M111.36,52.64c0,2.74,0.01,5.48,0.01,8.22c0,0.55,0.85,0.69,0.98,0.13c0.34-1.51,0.98-2.9,1.88-4.15
				c-0.26,0.03-0.52,0.07-0.79,0.1c1.05,1.23,1.49,2.84,1.28,4.43c-0.08,0.64,0.92,0.63,1,0c0.23-1.86-0.37-3.72-1.58-5.13
				c-0.23-0.27-0.61-0.14-0.79,0.1c-0.95,1.32-1.62,2.81-1.98,4.39c0.33,0.04,0.65,0.09,0.98,0.13c0-2.74-0.01-5.48-0.01-8.22
				C112.36,51.99,111.36,51.99,111.36,52.64L111.36,52.64z"/>
		</g>
	</g>
	<g>
		<g>
			<path d="M105.49,46.13c0.46-0.65,0.92-1.29,1.38-1.94c0.23-0.33,0.47-0.66,0.7-0.99c0.17-0.23,0.32-0.5,0.56-0.68
				c0.15-0.11,0.3-0.18,0.41-0.01c0.19,0.31,0.31,0.67,0.46,0.99c0.34,0.74,0.69,1.49,1.03,2.23c0.11,0.25,0.47,0.31,0.68,0.18
				c0.25-0.15,0.29-0.44,0.18-0.68c-0.4-0.87-0.81-1.75-1.21-2.62c-0.17-0.36-0.3-0.77-0.64-1.01c-0.32-0.23-0.74-0.25-1.1-0.11
				c-0.78,0.3-1.21,1.16-1.67,1.8c-0.55,0.78-1.1,1.55-1.65,2.33c-0.16,0.22-0.04,0.56,0.18,0.68
				C105.06,46.46,105.33,46.35,105.49,46.13L105.49,46.13z"/>
		</g>
	</g>
	<g>
		<g>
			<path d="M107.94,67.35c0.01-0.01,0.01-0.02,0.02-0.03c0.1-0.15,0.09-0.35,0-0.5c-0.24-0.43-0.89-0.36-1.03,0.13
				c-0.1,0.35,0.16,0.82,0.28,1.14c0.29,0.78,0.62,1.55,0.99,2.3c0.18,0.35,0.36,0.7,0.56,1.05c0.19,0.33,0.38,0.8,0.71,1
				c0.42,0.27,0.83,0.02,1.08-0.33c0.25-0.35,0.5-0.71,0.74-1.06c0.59-0.84,1.17-1.67,1.76-2.51c0.16-0.22,0.04-0.56-0.18-0.68
				c-0.25-0.15-0.53-0.04-0.68,0.18c-0.44,0.62-0.87,1.25-1.31,1.87c-0.22,0.31-0.44,0.62-0.65,0.93c-0.1,0.14-0.2,0.28-0.3,0.42
				c-0.06,0.08-0.12,0.17-0.18,0.25c-0.02,0.03-0.04,0.06-0.06,0.08c-0.03,0.02-0.02,0.02,0.03-0.03c0.09,0,0.18,0,0.27,0
				c0.04,0.04,0.05,0.04,0.03,0.01c-0.03-0.05-0.07-0.11-0.1-0.16c-0.05-0.08-0.1-0.16-0.15-0.24c-0.11-0.19-0.22-0.38-0.33-0.58
				c-0.21-0.39-0.41-0.78-0.6-1.19c-0.18-0.39-0.35-0.79-0.51-1.19c-0.08-0.21-0.16-0.41-0.23-0.62c-0.05-0.15-0.18-0.43-0.18-0.52
				c-0.02,0.08-0.05,0.17-0.07,0.25c0.01-0.02,0.02-0.03,0.03-0.05c-0.1,0.08-0.2,0.15-0.3,0.23c0.01,0,0.02-0.01,0.04-0.01
				c-0.13-0.02-0.26-0.03-0.39-0.05c0.01,0.01,0.02,0.01,0.03,0.02c-0.06-0.06-0.12-0.12-0.18-0.18c0.01,0.01,0.01,0.02,0.02,0.03
				c0-0.17,0-0.34,0-0.5c-0.01,0.01-0.01,0.02-0.02,0.03C106.73,67.39,107.6,67.9,107.94,67.35L107.94,67.35z"/>
		</g>
	</g>
</g>
<g>
	<g>
		<g>
			<path d="M71.23,80.65c0.24,4.36-0.37,8.71-0.21,13.07c0.08,2.06,0.46,4.07,0.74,6.1c0.31,2.18,0.4,4.38,0.29,6.58
				c-0.03,0.54-0.05,1.96,0.94,1.55c0.6-0.25,0.5-1.24-0.2-1.22c-0.64,0.02-0.64,1.02,0,1c0.02,0,0.05,0,0.07,0
				c-0.14-0.08-0.29-0.17-0.43-0.25c0-0.11,0.01-0.23,0.01-0.34c0.12-0.05,0.24-0.1,0.35-0.15c0.22,0.08,0.29,0,0.23-0.23
				c0.01-0.16,0.02-0.32,0.03-0.48c0.01-0.24,0.02-0.48,0.03-0.72c0.02-0.56,0.02-1.12,0-1.68c-0.02-1.12-0.1-2.24-0.23-3.36
				c-0.26-2.15-0.71-4.27-0.82-6.44c-0.22-4.48,0.44-8.95,0.19-13.44C72.19,80.01,71.19,80.01,71.23,80.65L71.23,80.65z"/>
		</g>
	</g>
	<g>
		<g>
			<path d="M74.53,86.49c-0.03,2.53-0.06,5.05-0.08,7.58c-0.01,0.56,0.84,0.68,0.98,0.13c0.35-1.35,0.98-2.6,1.85-3.69
				c-0.24,0-0.47,0-0.71,0c0.96,1.06,1.46,2.51,1.25,3.94c-0.09,0.63,0.87,0.9,0.96,0.27c0.27-1.8-0.28-3.56-1.5-4.91
				c-0.17-0.18-0.54-0.2-0.71,0c-0.98,1.23-1.71,2.61-2.11,4.13c0.33,0.04,0.65,0.09,0.98,0.13c0.03-2.53,0.06-5.05,0.08-7.58
				C75.54,85.85,74.54,85.85,74.53,86.49L74.53,86.49z"/>
		</g>
	</g>
	<g>
		<g>
			<path d="M68.62,84.21c0.47-0.59,0.94-1.19,1.41-1.78c0.23-0.29,0.46-0.58,0.69-0.87c0.19-0.24,0.37-0.52,0.62-0.7
				c0.12-0.08,0.31-0.19,0.43-0.06c0.1,0.1,0.15,0.3,0.22,0.43c0.08,0.16,0.16,0.32,0.23,0.48c0.34,0.7,0.68,1.41,1.03,2.11
				c0.12,0.24,0.46,0.31,0.68,0.18c0.25-0.15,0.3-0.44,0.18-0.68c-0.39-0.8-0.78-1.6-1.17-2.4c-0.16-0.33-0.29-0.71-0.59-0.94
				c-0.31-0.24-0.74-0.29-1.11-0.17c-0.77,0.25-1.22,1.03-1.69,1.63c-0.55,0.69-1.09,1.38-1.64,2.07c-0.17,0.21-0.21,0.5,0,0.71
				C68.09,84.39,68.45,84.43,68.62,84.21L68.62,84.21z"/>
		</g>
	</g>
	<g>
		<g>
			<path d="M70.9,103.71c0.01-0.01,0.01-0.02,0.02-0.02c0.1-0.14,0.09-0.36,0-0.5c-0.35-0.58-1.16-0.19-1.03,0.44
				c0.1,0.46,0.33,0.93,0.51,1.37c0.38,0.91,0.83,1.79,1.35,2.63c0.25,0.41,0.55,1.03,1.14,0.92c0.46-0.09,0.73-0.62,1-0.96
				c0.68-0.87,1.36-1.74,2.03-2.61c0.17-0.21,0.21-0.5,0-0.71c-0.17-0.17-0.54-0.21-0.71,0c-0.46,0.58-0.91,1.17-1.37,1.75
				c-0.22,0.29-0.44,0.57-0.67,0.86c-0.11,0.14-0.21,0.27-0.32,0.41c-0.05,0.07-0.19,0.29-0.24,0.3c0.09,0,0.18,0,0.27,0
				c0.04,0.04,0.05,0.05,0.03,0.02c-0.03-0.04-0.05-0.08-0.08-0.12c-0.06-0.09-0.12-0.19-0.18-0.28c-0.1-0.16-0.2-0.32-0.29-0.49
				c-0.21-0.37-0.41-0.74-0.6-1.12c-0.18-0.35-0.34-0.71-0.49-1.08c-0.08-0.19-0.15-0.38-0.22-0.57c-0.03-0.09-0.06-0.18-0.1-0.26
				c-0.02-0.06-0.04-0.12-0.06-0.18c-0.03-0.1-0.04-0.12-0.03-0.06c-0.02,0.08-0.05,0.17-0.07,0.25c0.01-0.01,0.02-0.03,0.03-0.04
				c-0.1,0.08-0.2,0.15-0.3,0.23c0.01,0,0.02-0.01,0.04-0.01c-0.13-0.02-0.26-0.03-0.39-0.05c0.01,0.01,0.02,0.01,0.03,0.02
				c-0.06-0.06-0.12-0.12-0.18-0.18c0.01,0.01,0.01,0.02,0.02,0.03c0-0.17,0-0.34,0-0.5c-0.01,0.01-0.01,0.02-0.02,0.02
				c-0.16,0.22-0.04,0.56,0.18,0.68C70.46,104.04,70.74,103.93,70.9,103.71L70.9,103.71z"/>
		</g>
	</g>
</g>
</svg>
