<?xml version="1.0" encoding="UTF-8"?>
<svg id="Layer_2" data-name="Layer 2" xmlns="http://www.w3.org/2000/svg" viewBox="0 0 409.81 183.39">
  <defs>
    <style>
      .cls-1 {
        fill: #ed1c24;
      }

      .cls-1, .cls-2 {
        stroke-width: 0px;
      }

      .cls-2 {
        fill: #231f20;
      }
    </style>
  </defs>
  <g id="Layer_1-2" data-name="Layer 1">
    <path class="cls-1" d="M40.34,122.02c4.2-7.08,8.31-14.21,12.32-21.39,4.21-7.54,8.32-15.15,12.32-22.8s8.21-15.99,12.13-24.07,7.53-15.78,11.13-23.75,6.8-15.33,10.04-23.06c.39-.92.77-1.84,1.16-2.76l-2.74.36c5.11,11.48,10.23,22.95,15.34,34.43s10.33,22.88,15.32,34.4c1.55,3.59,3.03,7.24,4.29,10.95l2.89-.8v-.03c-.97.27-1.94.53-2.9.8,2.34,6.39,5.27,12.53,8.53,18.51,2.16,3.97,4.42,7.88,6.52,11.88s4.18,8.17,6.19,12.29l1.3-2.26c-9.19.36-18.4.28-27.58-.34-6.61-.44-13.21-.84-19.83-1.09-9.78-.37-19.56-.5-29.35-.42-8.84.07-17.68.26-26.51.53-4.85.14-9.71.31-14.56.51-.13,0-.25.01-.38.02-.81.03-1.5.66-1.5,1.5,0,.79.69,1.53,1.5,1.5,4.1-.17,8.21-.31,12.31-.44,8.57-.27,17.13-.47,25.7-.57,9.71-.11,19.41-.06,29.11.26,7.01.23,14.02.55,21.02,1.05,8.57.6,17.15.85,25.74.65,1.44-.03,2.89-.08,4.33-.14,1.19-.05,1.8-1.22,1.3-2.26-3.16-6.5-6.44-12.94-9.95-19.26-2.1-3.77-4.21-7.52-6.12-11.4s-3.45-7.45-4.87-11.31c-.28-.76-1.02-1.28-1.85-1.05-.74.2-1.31,1.08-1.05,1.85v.03c.27.77,1.04,1.27,1.85,1.05.75-.21,1.31-1.07,1.05-1.85-3.07-9.06-7.28-17.73-11.17-26.46-5.13-11.52-10.26-23.03-15.39-34.55-2.9-6.5-5.79-13-8.69-19.5-.24-.53-.97-.8-1.49-.72-.64.1-1.01.5-1.25,1.07-3.15,7.56-6.4,15.08-9.75,22.55-3.54,7.9-7.19,15.75-10.95,23.55s-7.89,16.07-12.01,24.02c-4,7.71-8.1,15.37-12.31,22.97s-8.08,14.36-12.27,21.46c-.5.85-1.01,1.71-1.51,2.56-.99,1.66,1.6,3.17,2.59,1.51h0Z"/>
    <g>
      <path class="cls-2" d="M.62,175.72c-.18.49-.35.98-.53,1.47l1.96.27c.11-9.82,1.48-19.6,4.1-29.06.65-2.35,1.37-4.67,2.17-6.98.18-.51.44-1.95,1.24-1.68.87.3,1.01,1.56,1.15,2.32.95,5.04,1.75,10.1,2.43,15.18.77,5.73,1.37,11.48,1.81,17.25.1,1.28,2.1,1.29,2,0-.84-10.97-2.26-21.9-4.27-32.72-.21-1.14-.46-2.38-1.33-3.21-.82-.78-2.06-1.13-3.11-.61s-1.39,1.61-1.74,2.6c-.44,1.26-.86,2.53-1.26,3.8-1.57,5.03-2.78,10.16-3.64,15.36-.97,5.87-1.5,11.8-1.56,17.74-.01,1.18,1.6,1.29,1.96.27.18-.49.35-.98.53-1.47.43-1.21-1.5-1.74-1.93-.53h0Z"/>
      <path class="cls-2" d="M2.28,161.51c5.54-.67,11.07-1.35,16.61-2.02.54-.07,1-.41,1-1,0-.49-.46-1.07-1-1-5.54.67-11.07,1.35-16.61,2.02-.54.07-1,.41-1,1,0,.49.46,1.07,1,1h0Z"/>
      <path class="cls-2" d="M20.74,154.74c-.76,6.13-.84,12.33-.27,18.48.12,1.26,2.07,1.3,2,0-.2-3.97.06-7.95.83-11.85.19-.94.4-1.87.64-2.79.2-.76.35-1.67.79-2.34.91-1.38,2.3.57,2.8,1.37.68,1.09,2.41.09,1.73-1.01-.96-1.54-2.67-3.45-4.7-2.69s-2.34,3.29-2.77,5.07c-1.12,4.65-1.56,9.47-1.31,14.25h2c-.58-6.15-.49-12.35.27-18.48.07-.54-.51-1-1-1-.6,0-.93.46-1,1h0Z"/>
      <path class="cls-2" d="M31.42,166.01c2.35-.63,4.61-2.75,4.16-5.38s-3.47-4.2-5.59-2.43c-1.91,1.6-1.65,4.56-1.36,6.76.2,1.56.51,3.09.95,4.6.41,1.41.87,2.92,1.61,4.2.68,1.19,1.84,2.19,3.3,1.94s2.23-1.55,2.78-2.75c.23-.49.14-1.08-.36-1.37-.43-.25-1.14-.13-1.37.36-.26.57-.63,1.52-1.28,1.76s-1.13-.56-1.39-1.03c-1.04-1.88-1.59-4.17-1.99-6.26-.35-1.79-.78-3.9-.21-5.69.17-.55.51-1.12,1.1-1.26.67-.16,1.29.36,1.61.9,1.01,1.74-.99,3.31-2.49,3.71-1.24.33-.71,2.26.53,1.93h0Z"/>
      <path class="cls-2" d="M46.6,160.58c.37,3.59.54,7.2.5,10.81l1.96-.27c-.91-2.7-2.03-5.63-3.81-7.89-.88-1.12-2.22-2.62-3.68-2.9-1.2-.23-2.19.49-2.73,1.51-.84,1.56-1,3.48-1.1,5.22-.14,2.41.29,5.09,2.48,6.5,2.75,1.76,6.34.53,8.59-1.46.97-.85-.45-2.26-1.41-1.41-1.48,1.31-3.78,2.24-5.71,1.39-1.79-.78-2.02-2.88-1.97-4.6.02-.67.09-1.35.16-2.02,0,0,.03-.26.01-.12-.02.16.03-.17.02-.16.02-.15.05-.29.07-.44.08-.41.17-.82.3-1.21.11-.35.22-.63.43-.94.13-.19.25-.34.41-.32.42.05.83.44,1.12.7.52.46,1.03.96,1.46,1.51.74.94,1.28,2.05,1.8,3.13.63,1.31,1.16,2.66,1.62,4.04.35,1.05,1.95.9,1.96-.27.04-3.61-.12-7.22-.5-10.81-.06-.54-.42-1-1-1-.5,0-1.06.46-1,1h0Z"/>
      <path class="cls-2" d="M58.21,159.19c.11-.05.11-.05,0,0,.05-.02.11-.04.17-.06.11-.04.22-.08.34-.11.2-.06.4-.11.6-.15.04,0,.41-.05.17-.03.09,0,.18-.02.27-.02.22-.02.44-.02.67,0,.1,0,.21.01.31.02.06,0,.12.01.18.02-.12-.02-.12-.02,0,0,.2.04.41.08.61.13s.39.12.59.19c.11.04.11.04,0,0,.05.02.11.05.16.07.11.05.21.11.31.16.46.25,1.11.13,1.37-.36s.13-1.1-.36-1.37c-1.98-1.1-4.34-1.15-6.4-.22-.48.22-.63.95-.36,1.37.32.49.86.59,1.37.36h0Z"/>
      <path class="cls-2" d="M55.97,165.19c2.84-.41,5.68-.81,8.52-1.22.54-.08.83-.76.7-1.23-.16-.57-.69-.78-1.23-.7-2.84.41-5.68.81-8.52,1.22-.54.08-.83.76-.7,1.23.16.57.69.78,1.23.7h0Z"/>
      <path class="cls-2" d="M78.76,137.15c-.86,4.77-1.05,9.63-.49,14.45.06.54.42,1,1,1,.49,0,1.06-.46,1-1-.53-4.63-.41-9.32.42-13.91.23-1.26-1.7-1.8-1.93-.53h0Z"/>
      <path class="cls-2" d="M72.01,158.84c5.14-1.22,10.28-2.45,15.42-3.67,1.25-.3.72-2.23-.53-1.93-5.14,1.22-10.28,2.45-15.42,3.67-1.25.3-.72,2.23.53,1.93h0Z"/>
      <path class="cls-2" d="M78.52,162.79c1.23-.22,3.91-.51,3.67,1.49s-2.16,2.72-3.76,3.18c-1.33.38-5.73,1.08-4.45,3.37.55,1,1.76,1.17,2.77,1.4,1.26.29,2.52.58,3.77.87,1.46.34,2.92.68,4.38,1.01.69.16,1.38.32,2.07.48.39.09.77.2,1.14-.02.28-.17.56-.43.82-.63.43-.33.35-1.07,0-1.41-.42-.42-.99-.33-1.41,0-.2.16-.41.32-.61.48l.97-.26c-2.52-.58-5.03-1.16-7.55-1.75-1.22-.28-2.44-.56-3.65-.85-.23-.05-.48-.09-.7-.17-.26-.1-.22-.24-.26.17s-.03.27.21.16c.08-.04.16-.07.24-.1.29-.12.59-.21.89-.3,1.96-.6,4.17-.92,5.66-2.47,1.22-1.27,1.99-3.26,1.14-4.93-1.12-2.18-3.8-2.03-5.85-1.66-.53.09-.83.74-.7,1.23.15.56.7.79,1.23.7h0Z"/>
      <path class="cls-2" d="M94.45,156.61l-.29-.3c-.2-.09-.3-.22-.31-.4-.01-.1-.02-.2.01-.3,0,.02.11-.24.06-.15s.12-.14.1-.13c.17-.17.49-.25.72-.2.08.02.14.06.2.1.15.09-.04-.07.07.06.1.13,0-.03-.03-.07-.01-.03-.02-.05-.04-.08,0,0,.09.22.04.1-.05-.16-.12-.31-.17-.46-.05-.14-.1-.29-.14-.44-.02-.07-.04-.15-.05-.22,0-.04-.01-.07-.02-.11-.03-.14.01.18,0,.04,0-.1-.07-.4,0-.48,0,0-.04.2,0,.08,0-.04.01-.07.02-.11.01-.04.09-.27.02-.1s0,0,.03-.04c.02-.03.13-.19.03-.05s.01,0,.04-.04c.02-.02.04-.04.06-.05.09-.09-.05.04-.08.06.08-.03.2-.11.27-.16,0,0-.21.07-.12.05.02,0,.05-.02.07-.02.05-.01.25-.05.06-.02s0,.02.03.01c.1-.02-.17,0-.15-.02,0,0,.06.01.07.02.18.05-.12-.06-.06-.03.02,0,.05.04.06.04-.03,0-.18-.16-.08-.06.02.02.04.04.06.06.07.06-.07-.09-.07-.09,0,.03.06.12.08.14,0,0-.07-.21-.05-.11,0,.03.02.05.03.08.02.06.03.13.05.2.03.1-.01-.13-.01-.12,0,.03,0,.06,0,.09,0,.06,0,.12.01.18,0,.13,0,.26,0,.39,0,.28,0,.56-.03.84,0,.03-.01.07-.01.1,0-.02.04-.24,0-.07-.01.07-.02.13-.04.19-.03.14-.08.27-.12.41-.03.1.04-.09.04-.09-.02.02-.03.06-.04.09-.03.06-.06.11-.1.17-.02.02-.05.06-.05.08,0,0,.15-.16.08-.1-.04.04-.09.09-.13.13-.11.12.18-.11.04-.03-.05.03-.09.06-.14.08-.02.01-.05.02-.07.04-.08.05.12-.05.12-.05-.06,0-.12.04-.17.06-.04.01-.23.04-.04.02s0,0-.04,0c-.05,0-.23-.02-.04,0s-.01-.01-.06-.02c-.15-.03.18.11.06.03-.02-.01-.04-.03-.06-.04-.08-.03.1.07.1.08-.01-.03-.08-.09-.11-.11-.02-.01.15.18.09.1-.02-.03-.07-.15,0,.02.07.18.02,0,0-.03-.05-.09.05.17.02.15,0,0,0-.06,0-.07,0-.05.02-.22-.01-.03s0,0,.02-.05c0-.02.02-.05.02-.07.01-.1-.1.19-.05.1.03-.05.06-.1.08-.15.07-.13-.16.17-.02.03.03-.03.21-.18.06-.07s.02,0,.06-.03c.13-.08-.23.1-.04.02.02,0,.05,0,.07-.02-.03.02-.24.01-.1.02.05,0,.27.02.09,0s.04.02.08.03c.15.04-.2-.1,0,0,.05.03.11.08.17.1,0,0-.16-.14-.09-.07.03.03.06.05.09.08.05.05.09.11.14.15,0,0-.12-.18-.07-.09.02.03.04.06.06.1.01.02.03.05.04.08.07.11-.02-.04-.03-.08.02.07.05.15.07.22l.7-1.23c-.15.04-.09-.03.08,0-.03,0-.08,0-.12,0-.11,0,.25.06.11,0-.13-.05-.08-.07.06.04-.03-.02-.09-.05-.12-.07-.14-.08.15.14.07.06-.03-.03-.06-.05-.09-.08-.09-.09-.05-.13.03.05-.03-.06-.08-.15-.12-.21.12.18.07.18.03.06-.03-.11.02-.19,0,.08,0-.04,0-.08,0-.12,0-.2,0,.11-.02.1,0,0,.03-.13.04-.13-.04.02-.12.24-.01.07.28-.44.1-1.12-.36-1.37-.5-.26-1.06-.11-1.37.36-.96,1.49.65,3.56,2.32,3.08.53-.15.83-.7.7-1.23-.22-.9-.98-1.72-1.9-1.91s-1.96.2-2.4,1.1-.3,2,.57,2.62c.72.51,1.77.41,2.49-.05.88-.56,1.23-1.52,1.35-2.51.05-.38.05-.77.05-1.15,0-.41-.03-.85-.19-1.24-.21-.53-.55-.95-1.08-1.18-.42-.18-.91-.21-1.35-.06-.94.31-1.59,1.1-1.72,2.08-.08.58,0,1.17.18,1.72s.35,1.14.73,1.55c.58.62,1.6.59,2.07-.14.43-.67.17-1.6-.64-1.83-.5-.14-1.11.17-1.23.7s.16,1.08.7,1.23h0Z"/>
      <path class="cls-2" d="M102.7,142.79c-1.06,6.19-1.83,12.42-2.3,18.68-.09,1.13,1.7,1.35,1.96.27.45-1.81,1.49-3.46,2.99-4.58,1.34-1.01,3.64-1.95,4.63,0,1.42,2.8-.61,7.21-3.92,7.32-1.61.05-3.38-.79-3.92-2.4-.41-1.21-2.34-.69-1.93.53.74,2.18,2.73,3.56,4.98,3.82,2.36.28,4.5-.89,5.84-2.79s1.79-4.58,1-6.76c-.45-1.22-1.27-2.23-2.52-2.67s-2.74-.1-3.93.48c-2.57,1.25-4.46,3.79-5.14,6.53l1.96.27c.46-6.08,1.2-12.14,2.23-18.15.09-.53-.14-1.08-.7-1.23-.48-.13-1.14.16-1.23.7h0Z"/>
      <path class="cls-2" d="M119.06,155.65l1.69,6.48,1.93-.53c-1.22-3.45-3.04-6.62-5.39-9.42-.39-.47-1.31-.35-1.57.2-1.29,2.7-2.67,5.8-1.52,8.8.94,2.44,3.38,4.15,6,3.12,1.38-.54,2.32-1.64,2.48-3.13.06-.54-.5-1-1-1-.59,0-.94.46-1,1-.08.74-.95,1.31-1.79,1.42-.9.12-1.82-.37-2.37-1.22-1.65-2.53-.23-5.57.92-7.98l-1.57.2c2.12,2.52,3.78,5.43,4.88,8.54.42,1.2,2.26.73,1.93-.53l-1.69-6.48c-.32-1.24-2.25-.72-1.93.53h0Z"/>
      <path class="cls-2" d="M127.09,149.43c-1.53,1.1-3.19,2.85-3.02,4.89s1.81,2.84,3.33,3.77c1.29.79,2.01,2.32,1.37,3.79s-2.44,1.93-3.83,1.38c-.5-.2-1.1.22-1.23.7-.16.57.19,1.03.7,1.23,1.75.7,3.85.21,5.2-1.08s1.73-3.44,1.05-5.19c-.35-.89-.91-1.61-1.68-2.18-.7-.52-1.55-.84-2.23-1.39-1.64-1.33.11-3.31,1.35-4.2.44-.31.65-.87.36-1.37-.25-.43-.93-.68-1.37-.36h0Z"/>
      <path class="cls-2" d="M135.18,158.08c1.31-.5,2.66-1.02,3.68-2.02.97-.94,1.57-2.3,1.37-3.66-.39-2.61-3.53-3.64-5.69-2.49-2.6,1.38-3.07,4.58-2.58,7.21s1.6,5.22,3.5,7.01c1.13,1.07,2.71,1.99,4.32,1.89s2.95-1.27,3.03-2.91c.06-1.29-1.94-1.28-2,0-.04.84-1.1,1-1.74.86-.89-.2-1.69-.75-2.33-1.38-1.27-1.25-2.03-2.94-2.52-4.63-.52-1.8-.86-4.04.45-5.6.82-.97,2.68-1.45,3.44-.11.44.78-.02,1.75-.6,2.33-.78.78-1.86,1.18-2.87,1.57-.5.19-.85.67-.7,1.23.13.48.72.89,1.23.7h0Z"/>
      <path class="cls-2" d="M150.21,156.22h-.03c.09,0,.18-.02.27-.03-.1.01-.19.01-.29,0l.27.04c-.1-.01-.19-.04-.28-.08l.24.1c-.1-.04-.2-.1-.28-.16l.2.16c-.09-.07-.16-.14-.23-.23l.16.2c-.06-.08-.11-.16-.15-.25l.1.24c-.03-.08-.06-.17-.07-.25l.04.27c-.01-.1-.01-.19,0-.29l-.04.27c.02-.11.05-.21.09-.31l-.1.24c.04-.09.09-.17.15-.25l-.16.2c.07-.09.14-.16.23-.23l-.2.16c.08-.06.16-.11.25-.15l-.24.1c.05-.02.1-.04.16-.05l-.97-.26c.06.05.11.1.16.17l-.16-.2c.06.08.11.17.15.26l-.1-.24c.04.1.07.2.08.31l-.04-.27c.02.14.02.27,0,.41l.04-.27c-.02.15-.06.29-.11.42l.1-.24c-.05.13-.12.24-.2.35l.16-.2c-.07.09-.15.18-.25.25l.2-.16c-.08.06-.16.11-.26.15l.24-.1c-.09.04-.17.06-.27.07l.27-.04s-.05,0-.08,0l.5.14s-.05-.03-.08-.05l.2.16s-.05-.05-.08-.08l.16.2s-.04-.07-.06-.1l.1.24s-.03-.09-.04-.14l.04.27c0-.06,0-.11,0-.17l-.04.27c.01-.07.03-.14.06-.21l-.1.24c.04-.08.08-.16.14-.24l-.16.2c.05-.07.11-.12.17-.18l-.2.16c.05-.04.11-.07.16-.1l-.24.1c.05-.02.1-.04.16-.04l-.27.04s.08,0,.12,0l-.27-.04s.08.02.12.03l-.24-.1s.08.04.12.07c.19.15.55.16.77.1s.48-.24.6-.46c.12-.23.18-.51.1-.77l-.1-.24c-.09-.15-.21-.27-.36-.36-.46-.35-1.17-.31-1.63,0-.41.27-.76.7-.87,1.19-.14.65.06,1.34.66,1.7.63.38,1.41.02,1.91-.41.34-.3.58-.73.71-1.16s.15-.95.02-1.39c-.21-.71-.85-1.51-1.68-1.22-.33.11-.63.29-.88.54s-.41.55-.54.88c-.13.35-.13.74-.06,1.11s.27.69.51.96.58.47.93.6c.37.14.75.13,1.13.07.23-.04.48-.27.6-.46.13-.21.18-.53.1-.77s-.23-.48-.46-.6l-.24-.1c-.18-.05-.35-.05-.53,0h0Z"/>
      <path class="cls-2" d="M157.74,139.59c-.88,8.14-1.22,16.33-1.02,24.51.03,1.1,1.69,1.39,1.96.27.48-1.93,1.07-3.83,1.78-5.68.35-.9.72-1.79,1.13-2.67.21-.46.66-1.88,1.27-2.01.13-.03,0-.02,0-.02.02.01.06.2.08.25.13.43.18.91.24,1.35.13.95.18,1.91.17,2.87-.02,2-.35,3.97-.95,5.88l1.67-.44c.11.09-.02.46-.09.49,1.15-.57.14-2.3-1.01-1.73-.96.48-1.18,1.96-.32,2.65.59.47,1.43.33,1.67-.44.74-2.36,1.09-4.86,1.01-7.33-.04-1.16-.16-2.34-.39-3.48-.21-1.03-.84-2.05-2.01-2.06-1.05-.01-1.88.83-2.39,1.66-.59.96-1,2.06-1.44,3.09-.97,2.3-1.75,4.67-2.35,7.09l1.96.27c-.21-8.18.13-16.37,1.02-24.51.06-.54-.5-1-1-1-.59,0-.94.46-1,1h0Z"/>
      <path class="cls-2" d="M172.1,158.17c1.7-.73,3.16-2.56,2.73-4.5-.4-1.81-2.54-3.16-4.27-2.18s-1.97,3.4-1.96,5.16c.02,2.07.58,4.14,1.64,5.92.58.97,1.32,1.96,2.42,2.36s2.26,0,2.91-.94c.73-1.06-1-2.06-1.73-1.01-.34.49-1.16-.38-1.34-.61-.48-.6-.87-1.32-1.16-2.03-.66-1.59-.9-3.38-.65-5.08.12-.86.76-3.01,1.91-1.68,1,1.16-.49,2.44-1.5,2.88-.5.21-.61.94-.36,1.37.3.51.87.57,1.37.36h0Z"/>
      <path class="cls-2" d="M180.69,161.96v-6.55c0-.52-.46-1.02-1-1s-1,.44-1,1v6.55c0,.52.46,1.02,1,1s1-.44,1-1h0Z"/>
      <path class="cls-2" d="M180.08,152.3c1.29,0,1.29-2,0-2s-1.29,2,0,2h0Z"/>
      <path class="cls-2" d="M185.5,151.92c-1.26.61-2.43,1.66-3.07,2.91-1.01,1.98-.7,4.38.5,6.21.96,1.47,2.81,2.94,4.57,1.83s2.47-3.57,2.44-5.46-.89-3.82-2.19-5.24c-.81-.89-2.03.24-1.57,1.21,1,2.11,1.68,4.36,2.06,6.66.33,2.03.56,4.34.05,6.35s-1.95,3-3.92,2.96c-.96-.02-1.94-.28-2.83-.63-.35-.14-.69-.31-1.02-.5-.14-.08-.27-.16-.4-.25-.04-.03-.36-.27-.16-.11-.42-.34-1-.41-1.41,0-.35.35-.42,1.07,0,1.41,2.46,1.98,6.7,3,9.45,1.06,1.6-1.13,2.25-2.93,2.46-4.82.23-2.06.02-4.2-.33-6.23-.41-2.4-1.18-4.72-2.22-6.92l-1.57,1.21c.62.68,1.2,1.65,1.46,2.7.37,1.46.02,3.23-.9,4.44-.29.37-.6.61-.91.51-.48-.16-.94-.63-1.25-1.06-.85-1.21-1.27-2.87-.63-4.26.48-1.04,1.39-1.78,2.39-2.27,1.16-.56.14-2.29-1.01-1.73h0Z"/>
      <path class="cls-2" d="M192.46,146.78c-.24,5.18-.11,10.37.38,15.53.05.49.34.92.87.98.45.05,1.02-.22,1.1-.72.32-1.99,1.37-3.74,2.94-5.01.26-.21.55-.41.86-.55.14-.06.22-.09.26-.06-.31-.24-.3-.07-.18-.03-.16-.07-.21-.16-.1-.06-.2-.18-.13-.18-.07-.07.11.19-.05-.22-.03-.07,0,.05.04.1.04.15.02.34.02-.16.03.19,0,.19,0,.38,0,.57-.03.61-.08.86-.19,1.48-.37,1.93-.94,3.83-1.54,5.7-.39,1.23,1.54,1.76,1.93.53.56-1.77,1.1-3.55,1.48-5.37.2-.96.4-1.98.32-2.97-.05-.68-.24-1.4-.84-1.79-1.27-.82-2.82.41-3.73,1.24-1.61,1.48-2.76,3.42-3.11,5.59l1.96.27c-.49-5.16-.62-10.35-.38-15.53.06-1.29-1.94-1.28-2,0h0Z"/>
      <path class="cls-2" d="M199.57,150.29c3.28.69,6.72.46,9.86-.74.5-.19.85-.67.7-1.23-.13-.48-.72-.89-1.23-.7-2.8,1.07-5.85,1.36-8.79.74-.53-.11-1.08.15-1.23.7-.14.5.17,1.12.7,1.23h0Z"/>
      <path class="cls-2" d="M203.64,142.23c-.63,4.12-1.11,8.26-1.41,12.41-.15,2.05-.26,4.11-.33,6.16-.04,1.33.19,3.28,1.83,3.54.53.08,1.08-.14,1.23-.7.13-.47-.16-1.15-.7-1.23-.33-.05-.34-.49-.37-.79-.07-.79.03-1.63.07-2.42.08-1.85.19-3.7.34-5.55.29-3.64.71-7.28,1.27-10.89.08-.53-.13-1.08-.7-1.23-.47-.13-1.15.16-1.23.7h0Z"/>
    </g>
    <path class="cls-1" d="M292.64,47.6c-2.76-2.58-5.82-4.79-9.29-6.33-.63-.28-1.26-.54-1.89-.8-.14-.06-.27-.11-.41-.17-.07-.03-.13-.06-.2-.08,0,0,.27.12.12.05-.25-.11-.5-.22-.74-.33-.45-.21-.89-.43-1.3-.7-.1-.07-.21-.13-.31-.2-.05-.03-.34-.26-.14-.1s-.09-.08-.13-.12c-.11-.09-.21-.19-.31-.29-.17-.17-.33-.36-.49-.54.19.23.05.06-.04-.07s-.18-.27-.27-.41c-.15-.25-.29-.5-.42-.77-.19-.39-.24-.5-.38-.93-.57-1.64-.72-2.98-.66-4.72s.32-3.09.79-4.8c.22-.79.48-1.58.76-2.35s.52-1.36.78-1.94c2.28-5.12,5.65-10.13,10.66-12.89,3.85-2.12,8.35-2.36,12.64-1.96,3.91.37,7.86,1.2,11.61,2.39,3.35,1.06,6.65,2.54,9.44,4.7s4.92,5.04,6.13,8.46c1.38,3.92,1.97,8.16,4.1,11.78,1.99,3.38,5.32,5.71,9.12,6.6,8.68,2.04,16.47-3.02,22.65-8.56,3.36-3.01,6.47-6.28,9.97-9.13,3.19-2.61,7.13-5.32,11.37-5.61,2.02-.14,3.87.34,5.55,1.47,1.59,1.07,2.91,2.6,3.92,4.09,2.02,2.98,3.19,6.27,3.73,9.86,1,6.67-.74,14.3-5.3,19.43-2.8,3.14-6.35,5.52-8.95,8.85-2.36,3.02-3.74,6.62-4.29,10.4-1.14,7.74.41,15.51.31,23.27-.04,3.73-.44,7.37-1.92,10.85s-4.01,6.37-6.96,8.65c-7.03,5.43-16.14,7.77-24.74,9.21-4.56.76-9.2,1.43-13.83,1.54-4.27.1-8.73-.44-12.39-2.58-3.04-1.78-5.65-4.61-6.78-7.93-.64-1.88-.72-3.58-.58-5.58.11-1.5.36-2.97.95-4.48.13-.33-.04.07.11-.25.06-.14.13-.27.2-.41.15-.31.32-.62.5-.91.36-.61.75-1.21,1.14-1.8,1.02-1.53,2.03-3.06,2.94-4.66.77-1.35,1.73-2.55,2.61-3.82.99-1.41,1.95-2.84,2.88-4.28,1.91-2.96,3.92-6.18,4.84-9.6.43-1.6.58-3.48-.32-4.96-1.01-1.66-2.89-2.26-4.72-2.43-1.48-.14-3.12-.05-4.53.44-1.53.53-2.76,1.55-4.22,2.22-.19.09-.65.25-1.02.35-.22.06-.45.11-.67.16-.05,0-.74.11-.31.06.36-.04-.2.02-.32.03-.29.02-.58.03-.87.03-1.73,0-3.41-.33-5.03-1.2-.37-.2-.72-.42-1.07-.65-.14-.09-.28-.19-.41-.28-.07-.05-.15-.11-.22-.16.13.1.03.02-.04-.04-.7-.6-1.2-1.14-1.59-1.96-.67-1.4-.32-2.74-.37-4.2-.11-3.29-1.77-6.51-3.45-9.26-2.18-3.56-4.9-6.82-7.94-9.68-1.4-1.32-3.53.79-2.12,2.12,3.08,2.9,5.82,6.2,7.95,9.87.9,1.55,1.58,2.94,2.09,4.54.1.33.2.67.28,1.01.04.17.08.34.11.52.02.11.08.56.04.22.06.58.05,1.13,0,1.71-.2,2.11.33,4.21,1.63,5.9,1.12,1.44,2.73,2.57,4.4,3.31,2.97,1.31,6.63,1.74,9.71.5.83-.33,1.59-.75,2.35-1.22.3-.19.6-.37.91-.55.15-.08.29-.16.44-.23.09-.04.17-.09.26-.13.13-.06-.11.04.13-.05,1.24-.45,2.86-.53,4.04-.37-.1-.01.3.05.38.07.19.04.39.09.57.15.09.03.19.06.28.1-.07-.03-.21-.11.04.03.08.04.47.29.31.16.04.03.41.41.27.23.11.14.19.3.27.46-.12-.26.01.08.04.18.02.08.04.17.06.26.04.22,0-.34,0,.07,0,.89-.03,1.2-.29,2.1s-.58,1.67-.96,2.48c-1.5,3.17-3.44,6.14-5.41,9.03-.88,1.3-1.83,2.54-2.73,3.82-1.08,1.56-1.94,3.27-2.99,4.85-1.71,2.59-3.32,5.08-3.83,8.2-.34,2.11-.48,4.26-.17,6.38.29,1.95,1.01,3.84,2.02,5.53,2.06,3.45,5.29,6.14,8.98,7.69,4.37,1.83,9.23,2.08,13.9,1.76s9.73-1.03,14.51-1.93,9.49-2.13,13.99-3.99c7.73-3.18,14.99-8.29,17.97-16.42,2.75-7.49,1.51-15.75,1.09-23.51-.2-3.76-.28-7.67.44-11.25s2.37-6.89,5.07-9.66c2.94-3.01,6.39-5.47,8.85-8.94,2.16-3.04,3.57-6.64,4.23-10.3,1.36-7.51-.1-15.66-4.83-21.76-1.33-1.71-2.91-3.28-4.81-4.35-2.01-1.13-4.33-1.6-6.62-1.38-4.76.45-8.92,3.08-12.58,5.98s-6.82,6.23-10.24,9.33c-3.17,2.87-6.65,5.67-10.68,7.23-3.52,1.36-7.17,1.67-10.73.46-1.56-.53-3.1-1.44-4.3-2.64-1.31-1.31-2.23-2.98-2.89-4.75-1.47-3.93-2.05-8.16-4.06-11.89-1.83-3.39-4.66-6.13-7.9-8.16s-6.86-3.39-10.53-4.37c-4.15-1.11-8.51-1.91-12.81-2.01-4.63-.11-9.29.87-13.14,3.53-2.95,2.05-5.42,4.78-7.35,7.8-1.29,2.02-2.37,4.17-3.29,6.39-1.32,3.19-2.26,6.64-2.22,10.12.03,3.08.88,6.52,3.11,8.78.77.78,1.72,1.38,2.71,1.85.57.27,1.15.51,1.73.75.26.11.52.21.78.32.07.03.14.06.22.09-.05-.02-.29-.12-.03-.01.15.07.3.13.45.2,3.28,1.45,6.18,3.47,8.8,5.91,1.41,1.32,3.54-.8,2.12-2.12Z"/>
    <path class="cls-2" d="M282.47,168.17c1.83-9.39,4.25-18.71,7.36-27.76.63-1.84,1.36-3.75,2.71-5.2.2-.21.6-.76.93-.75.22,0,.38.27.48.43.51.8.66,1.87.87,2.78,1.1,4.62,1.67,9.34,1.95,14.08.32,5.37.3,10.74.26,16.12,0,.65.64,1.13,1.27.96,1.01-.27,1.7-1.4,1.29-2.41-.2-.5-.67-.85-1.23-.7-.48.13-.9.73-.7,1.23.14.35-.03-.01.11-.05l1.27.96c.06-10.19.1-20.52-2.24-30.5-.4-1.72-.85-4.62-3.06-4.89-1.18-.14-2.1.7-2.82,1.53s-1.29,1.74-1.77,2.71c-1.02,2.1-1.68,4.37-2.39,6.58-.78,2.44-1.52,4.9-2.21,7.37-1.57,5.6-2.91,11.26-4.02,16.96-.24,1.26,1.68,1.8,1.93.53h0Z"/>
    <path class="cls-2" d="M285.64,155.24c3.89-.75,7.9-.33,11.58,1.12.5.2,1.1-.22,1.23-.7.16-.57-.19-1.03-.7-1.23-4.02-1.57-8.41-1.93-12.64-1.12-1.26.24-.73,2.17.53,1.93h0Z"/>
    <path class="cls-2" d="M300.77,148.94c.62,6.22,1.62,12.39,3,18.49.25,1.09,2.03.87,1.96-.27-.15-2.72-.28-5.51.27-8.19.26-1.27.67-2.5,1.32-3.61.32-.55.69-1.07,1.14-1.54.17-.17.38-.42.63-.49.38-.12.03-.04.25-.02l.07.05c-.04-.18-.06-.17-.06.04-.06.54.51,1,1,1,.59,0,.94-.46,1-1,.11-.96-.66-1.82-1.56-2.05s-1.79.19-2.47.78c-1.31,1.16-2.19,2.85-2.75,4.48-1.16,3.36-1.03,7.05-.84,10.54l1.96-.27c-1.34-5.92-2.33-11.91-2.93-17.95-.05-.54-.42-1-1-1-.5,0-1.05.46-1,1h0Z"/>
    <path class="cls-2" d="M313.49,161.27c2.25-.68,4.36-2.25,5.43-4.39.57-1.14.77-2.51-.01-3.61-.71-1-1.97-1.33-3.07-.79-1.01.5-1.62,1.6-1.97,2.62-.46,1.31-.69,2.73-.76,4.12-.13,2.62.41,5.43,1.72,7.72,1.38,2.41,4.13,4.24,6.98,3.33,1.22-.39.7-2.32-.53-1.93-1.67.53-3.33-.39-4.29-1.75-1.07-1.5-1.63-3.42-1.81-5.24-.19-1.94-.04-4.06.69-5.88.16-.39.58-1.32,1.12-1.27.69.06.44,1.2.28,1.57-.76,1.74-2.51,3.03-4.28,3.57-1.23.37-.7,2.3.53,1.93h0Z"/>
    <path class="cls-2" d="M327.78,159.01l1.61,4.28c.45,1.18,2.25.74,1.93-.53-.58-2.28-1.51-4.48-2.76-6.47-.63-1-1.34-1.96-2.11-2.85s-1.73-1.97-2.97-1.27c-.96.55-1.36,2.04-1.62,3.03-.3,1.17-.42,2.4-.34,3.61.16,2.32,1,4.49,2.45,6.31s3.66,3.25,6,3.86c1.25.32,1.78-1.61.53-1.93-3.36-.87-6.04-3.54-6.8-6.94-.41-1.84-.25-3.83.47-5.57.07-.16.18-.33.23-.49.31-1.16.13-.09.08-.15l-.14.03c-.16,0-.18.03-.08.1.04.16.37.39.49.52.18.2.36.41.54.62.58.7,1.11,1.45,1.59,2.22,1.14,1.83,1.97,3.81,2.5,5.9l1.93-.53-1.61-4.28c-.19-.51-.68-.85-1.23-.7-.48.13-.89.72-.7,1.23h0Z"/>
    <path class="cls-2" d="M336.34,154.08c3.48-.19,6.97-.09,10.44.28.54.06,1-.5,1-1,0-.59-.46-.94-1-1-3.47-.37-6.96-.47-10.44-.28-1.28.07-1.29,2.07,0,2h0Z"/>
    <path class="cls-2" d="M338.22,160.54l6.53.37c1.34.08,5.07.73,4.54-1.77-.27-1.26-2.2-.73-1.93.53-.18-.84.56-.67.1-.62-.07,0-.18,0-.34-.01-.4-.02-.79-.04-1.19-.07l-2.57-.15-5.14-.29c-1.29-.07-1.28,1.93,0,2h0Z"/>
    <path class="cls-2" d="M360.64,140.99c2.64-.56,5.51-.82,8.19-.36,2.06.36,4.36,1.28,5.11,3.41.3.87.39,1.89,0,2.75s-1.22,1.34-2.14,1.53c-1.89.4-5.04-.64-6.21,1.45-.39.7-.26,1.46,0,2.18.29.82.59,1.63.88,2.45.59,1.63,1.18,3.26,1.76,4.9l.96-1.27h-.09c.17.04.34.08.5.13l-.07-.05.36.36-.02.57-.36.36-.08.03c.53-.08.83-.75.7-1.23-.16-.57-.69-.78-1.23-.7-.61.1-.98.72-.96,1.3.03.72.56,1.17,1.24,1.22.62.05,1.17-.69.96-1.27-.56-1.55-1.12-3.11-1.68-4.66-.25-.7-.5-1.4-.76-2.1-.13-.35-.64-1.12-.23-1.37.34-.21.83-.21,1.22-.21.66,0,1.33.04,1.99.01,1.36-.06,2.72-.33,3.81-1.2,1.77-1.42,2.04-4.02,1.23-6.03-.97-2.41-3.26-3.81-5.72-4.37-3.22-.74-6.72-.46-9.92.22-1.26.27-.73,2.2.53,1.93h0Z"/>
    <path class="cls-2" d="M367.79,167.46c.07.1.13.21.18.33l-.1-.24c.06.14.09.28.12.43l-.04-.27c.02.16.02.32,0,.48l.04-.27c0,.07-.02.13-.04.2-.06.26-.03.54.1.77.12.21.36.41.6.46.26.06.54.05.77-.1s.37-.34.46-.6c.12-.34.23-.69.35-1.03h-1.93s0,.05.01.08l-.04-.27c.04.28.04.56,0,.84l.04-.27c-.04.27-.1.53-.2.78l1.83-.24s-.03-.06-.04-.09l.1.24c-.06-.15-.1-.3-.12-.45l.04.27c-.02-.17-.02-.34,0-.5l-.04.27c.02-.16.06-.31.12-.45l-.1.24c.04-.08.08-.16.12-.24l-1.13.46h.02c-.08-.03-.16-.06-.24-.09.06.02.11.06.16.09l-.2-.16s.09.08.13.13l-.16-.2c.04.06.07.11.1.18l-.1-.24c.03.08.06.17.07.26l-.04-.27c.01.1.01.2,0,.3l.04-.27c-.01.09-.04.18-.07.26l.1-.24c-.03.07-.07.13-.11.2l.16-.2s-.08.09-.13.13l.2-.16c-.05.04-.1.07-.16.09l.24-.1c-.06.02-.12.04-.18.05l.27-.04c-.06,0-.11,0-.16,0l.27.04c-.07,0-.14-.03-.2-.05l.24.1c-.07-.03-.14-.07-.2-.12l.2.16c-.07-.06-.13-.12-.19-.19l.16.2c-.06-.08-.11-.16-.15-.25l.1.24c-.03-.08-.06-.16-.07-.25l.04.27c0-.07,0-.14,0-.21l-.04.27c0-.07.03-.14.05-.2l-.1.24c.02-.05.05-.1.08-.14l-.16.2.02-.02h-1.41c.16.13.31.24.52.3.12.03.24.05.36.05.34,0,.63-.15.88-.36.18-.15.31-.38.38-.6.04-.12.05-.25.05-.37,0-.25-.06-.37-.16-.59s-.38-.4-.6-.46c-.24-.07-.56-.04-.77.1s-.4.34-.46.6l-.04.27c0,.18.05.35.14.5v.02c-.02-.08-.06-.16-.09-.24,0,.01,0,.03.01.04l-.04-.27s0,.04,0,.06l.04-.27s-.01.06-.02.08l.1-.24s-.02.04-.03.06l.16-.2s-.05.06-.08.08l.2-.16s-.05.03-.08.05l.24-.1s-.06.02-.09.02l.27-.04s-.04,0-.06,0l.27.04s-.04,0-.06-.02l.24.1s-.03-.01-.04-.02l.2.16h-.02c-.09-.11-.2-.18-.32-.22-.12-.06-.25-.09-.39-.09-.25.01-.55.09-.71.29-.18.23-.25.34-.36.6-.06.15-.08.33-.09.49-.02.29.05.56.16.82.23.55.7,1.02,1.29,1.17s1.29-.02,1.69-.51c.2-.24.35-.49.42-.8.05-.21.08-.45.06-.67-.04-.33-.1-.63-.29-.91-.09-.13-.19-.26-.31-.37-.22-.18-.36-.26-.62-.36l-.27-.04c-.14,0-.27.02-.39.09-.2.08-.36.22-.48.41-.25.41-.38.89-.4,1.37s.11.95.32,1.39l.16.2.2.16c.19.11.42.15.64.12.18-.02.33-.09.47-.2.18-.14.27-.3.36-.52.14-.36.2-.72.25-1.1s0-.75-.06-1.13l-.1-.24c-.06-.12-.15-.21-.26-.28-.17-.13-.39-.22-.61-.21-.18,0-.35.05-.5.14-.23.12-.38.36-.46.6-.12.34-.23.69-.35,1.03l1.93.53c.18-.74.07-1.57-.36-2.21-.15-.22-.34-.39-.6-.46-.24-.07-.56-.04-.77.1s-.4.34-.46.6-.05.55.1.77h0Z"/>
    <path class="cls-2" d="M385.18,140.14c1.96.69,3.96,1.63,5.61,2.91.7.55,1.37,1.25,1.62,2.13.17.63.19,1.49-.24,2.03-.54.68-1.9.71-2.68.78-1.12.1-2.2,0-3.31-.05-.79-.03-1.65.07-2.3.56-.88.65-.99,1.66-.85,2.68.37,2.72.75,5.43,1.12,8.15.07.54.76.83,1.23.7.58-.16.77-.69.7-1.23-.35-2.51-.69-5.02-1.04-7.53-.04-.32-.25-.95.05-1.2.18-.14.57-.14.79-.14,1.09-.01,2.16.16,3.26.08,2.11-.14,4.57-.48,5.23-2.84.55-2-.37-4.01-1.87-5.32-1.92-1.67-4.39-2.82-6.77-3.65-1.22-.43-1.74,1.51-.53,1.93h0Z"/>
    <path class="cls-2" d="M385.22,167.18c0-.18,0-.36.02-.54l-.04.27c.04-.3.12-.58.23-.86l-.1.24c.1-.23.22-.44.37-.65l-1.57.2c.12.09.22.2.31.32l-.16-.2c.11.15.21.31.28.49l-.1-.24c.07.16.11.33.14.5l-.04-.27c.02.14.02.28,0,.43l.04-.27c-.01.1-.04.2-.08.3l.1-.24c-.04.08-.08.16-.14.23l.16-.2c-.05.06-.09.11-.15.15l.2-.16c-.07.05-.15.1-.23.13l.24-.1c-.07.03-.13.04-.21.06l.27-.04c-.08,0-.16,0-.24,0l.27.04c-.08-.01-.16-.04-.24-.07l.24.1c-.1-.04-.19-.1-.28-.16l.2.16c-.09-.07-.16-.15-.23-.23l.16.2c-.07-.09-.12-.18-.16-.28l.1.24c-.03-.08-.05-.16-.07-.24l.04.27c-.01-.08-.01-.17,0-.25l-.04.27c.01-.08.03-.16.06-.24l-.1.24c.04-.08.08-.16.13-.23l-.16.2c.06-.07.12-.13.19-.19l-.2.16c.09-.07.19-.12.29-.17l-.24.1c.12-.05.24-.08.36-.1l-.27.04c.13-.02.25-.02.38,0l-.27-.04c.11.02.22.04.33.09l-.24-.1c.08.04.16.08.23.13l-.2-.16c.08.06.15.13.21.21l-.16-.2c.07.09.12.18.17.29l-.1-.24c.05.13.09.26.11.4l-.04-.27c.02.14.01.28,0,.42l.04-.27c-.02.14-.06.27-.11.4l.1-.24c-.05.12-.11.23-.19.33l.16-.2c-.07.09-.16.17-.25.25l.2-.16c-.11.08-.23.15-.35.21l.24-.1c-.14.06-.28.1-.43.12l.27-.04c-.18.02-.36.02-.54,0l.27.04c-.17-.03-.32-.07-.48-.13l.24.1c-.13-.06-.25-.12-.36-.2l.46,1.13s.02-.05.03-.07l-.1.24c.03-.06.06-.12.1-.17l-.16.2c.04-.05.09-.1.14-.14l-.2.16c.06-.05.13-.09.2-.12l-.24.1c.06-.02.12-.04.19-.05l-.27.04c.07,0,.13,0,.19,0l-.27-.04s.05,0,.08.01c.51.11,1.11-.15,1.23-.7.12-.51-.15-1.11-.7-1.23-.94-.21-1.87.31-2.15,1.24-.07.21-.03.45.05.65.09.21.22.34.41.48,1.21.86,3.08.56,3.87-.72.36-.6.47-1.39.26-2.05-.22-.72-.76-1.3-1.49-1.51-.62-.18-1.37-.08-1.91.28-.66.44-1.05,1.16-.94,1.96.09.69.57,1.36,1.22,1.65.43.19.86.26,1.32.16.33-.07.68-.28.91-.53.54-.58.65-1.36.49-2.11-.12-.6-.48-1.24-.97-1.63-.26-.21-.5-.32-.84-.28s-.54.21-.73.48c-.53.72-.79,1.66-.76,2.55.02.52.45,1.02,1,1s1.02-.44,1-1h0Z"/>
    <path class="cls-2" d="M399.77,138.4c1.91.82,4.1,1.07,5.91,2.11,1.34.77,2.59,2.2,1.96,3.84-.67,1.74-2.63,2.49-4.33,2.72-1.03.14-2.06.12-3.1.19s-1.75.78-1.59,1.88c.18,1.21.73,2.44,1.09,3.61.41,1.3.82,2.59,1.23,3.89.33,1.03,2.03.91,1.96-.27-.02-.37-.04-.73-.06-1.1-.07-1.28-2.07-1.29-2,0,.02.37.04.73.06,1.1l1.96-.27c-.37-1.18-.74-2.35-1.12-3.53-.17-.55-.35-1.1-.52-1.65-.09-.27-.17-.55-.26-.82-.1-.31-.17-.78-.33-1.06-.02-.03-.02-.15-.05-.16v-.02c-.47.31-.56.44-.27.41.21.07.56-.02.79-.03.6-.02,1.2-.05,1.8-.11,1.1-.11,2.17-.31,3.2-.74,1.7-.72,3.27-2.21,3.62-4.09.36-1.98-.65-3.75-2.19-4.93-1.99-1.52-4.51-1.72-6.76-2.68-.5-.21-1.07-.15-1.37.36-.25.42-.14,1.15.36,1.37h0Z"/>
    <path class="cls-2" d="M403.24,165.4s0-.04,0-.06l-.04.27c0-.06.02-.12.05-.18l-.1.24c.03-.06.06-.11.09-.16l-.16.2c.05-.06.09-.11.15-.15l-.2.16c.05-.04.1-.07.16-.09l-.24.1c.06-.02.11-.04.17-.05l-.27.04c.06,0,.12,0,.18,0l-.96-.73c.03.12.05.24.07.36l-.04-.27c.04.34.04.67,0,1.01l.04-.27c-.04.27-.1.53-.2.78l1.47-.6c-.12-.06-.23-.12-.34-.2l.2.16c-.12-.09-.22-.2-.32-.32l.16.2c-.11-.14-.19-.29-.26-.45l.1.24c-.07-.16-.11-.33-.14-.5l.04.27c-.02-.16-.02-.32,0-.48l-.04.27c.01-.1.04-.2.07-.3l-.7.7h.03c-.09,0-.18.02-.27.03.06,0,.12,0,.18,0l-.27-.04c.07.01.14.03.21.06l-.24-.1c.07.03.13.07.18.11l-.2-.16c.06.05.11.1.15.15l-.16-.2s.07.1.09.16l-.1-.24c.02.06.04.11.05.18l-.04-.27c0,.06,0,.12,0,.19l.04-.27c-.01.07-.03.14-.06.21l.1-.24c-.03.07-.07.13-.11.19l.16-.2c-.05.06-.1.11-.16.15l.2-.16c-.05.04-.1.07-.16.1l.24-.1c-.06.02-.12.04-.18.05l.27-.04s-.04,0-.06,0c-.27.02-.51.1-.71.29-.17.17-.3.46-.29.71s.1.53.29.71.44.31.71.29c.48-.04.94-.21,1.26-.59s.53-.82.47-1.31c-.03-.28-.09-.53-.24-.77s-.33-.41-.55-.57c-.16-.12-.35-.2-.54-.25-.3-.08-.54-.06-.83-.02-.17.05-.32.13-.44.26-.12.12-.21.27-.26.44-.09.29-.14.62-.11.92.03.42.13.76.29,1.14.12.28.31.54.52.76s.47.43.75.56c.3.14.58.18.89.05s.47-.35.58-.65c.31-.85.34-1.8.14-2.68-.05-.21-.19-.39-.36-.52-.06-.06-.14-.1-.22-.13-.12-.06-.25-.09-.39-.09-.06,0-.12,0-.18,0-.13.01-.26.02-.38.06-.28.09-.47.21-.69.4-.04.04-.08.08-.12.12-.08.1-.17.2-.23.32-.13.26-.19.49-.21.78-.02.52.47,1.02,1,1,.56-.03.98-.44,1-1h0Z"/>
  </g>
</svg>