<?xml version="1.0" encoding="UTF-8"?>
<svg id="Layer_2" data-name="Layer 2" xmlns="http://www.w3.org/2000/svg" viewBox="0 0 262.47 178.48">
  <defs>
    <style>
      .cls-1 {
        fill: #a7a9ac;
      }

      .cls-1, .cls-2 {
        stroke-width: 0px;
      }

      .cls-2 {
        fill: #00aeef;
      }
    </style>
  </defs>
  <g id="Layer_1-2" data-name="Layer 1">
    <g>
      <path class="cls-1" d="M235.02,107.31c4.53-3.99,8.93-8.14,13.12-12.49.44-.46.87-.96.85-1.63s-.44-1.12-.94-1.49c-.27-.2-.56-.39-.84-.58-1.34-.92-2.69-1.83-4.03-2.73-2.54-1.71-5.09-3.42-7.63-5.13-1.07-.72-2.07,1.01-1.01,1.73,3.62,2.42,7.23,4.85,10.83,7.3.42.29.85.58,1.27.87.09.06.21.18.31.22.01,0,.09.08.1.08.15-.05.05-.31-.1-.27-.12.03-.29.3-.39.41-1.95,2-3.93,3.96-5.94,5.88-2.29,2.19-4.63,4.34-7.01,6.44-.97.85.45,2.26,1.41,1.41h0Z"/>
      <path class="cls-1" d="M31.23,80.01c-3.54,1.58-6.89,3.56-9.98,5.89-.72.54-1.6,1.09-2.17,1.79-.67.81-.44,1.77.2,2.51,1.36,1.58,2.91,3.03,4.39,4.49,1.67,1.65,3.37,3.26,5.1,4.85.95.87,2.37-.54,1.41-1.41-1.76-1.61-3.49-3.26-5.19-4.93-.85-.84-1.7-1.69-2.53-2.55-.42-.43-.83-.86-1.25-1.29-.1-.11-.39-.54-.53-.56-.08-.16-.11-.1-.09.18.08-.09.17-.16.26-.24,3.34-2.9,7.36-5.2,11.38-6.99.49-.22.61-.94.36-1.37-.3-.51-.87-.58-1.37-.36h0Z"/>
      <path class="cls-1" d="M19.54,90.31c13.93,3.8,28.45,3.76,42.78,3.62,15.01-.15,30.01-.31,45.02-.46,15.01-.15,30.03-.31,45.04-.46s29.87-.38,44.8-.25c16.85.15,33.71.81,50.47,2.67.39.04.9-.34.96-.73.27-1.68-.76-3.47-2.62-3.42-1.28.04-1.29,2.04,0,2,.47-.01.77.42.7.89l.96-.73c-29.66-3.3-59.56-2.79-89.35-2.49-30.03.31-60.06.62-90.09.93-16.08.17-32.47.79-48.14-3.49-1.24-.34-1.77,1.59-.53,1.93h0Z"/>
    </g>
    <g>
      <path class="cls-1" d="M32.7,21.53c1.64-4.9,3.62-9.69,5.94-14.31.57-1.13,1.15-2.25,1.76-3.36.27-.5.55-1.01.84-1.5,0,0,.26-.41.27-.4l-.29.03.05.05c0,.06.22.31.25.36,1.45,2.32,2.83,4.68,4.25,7.01,1.63,2.69,3.26,5.39,4.89,8.08.67,1.1,2.4.1,1.73-1.01-1.59-2.62-3.18-5.24-4.76-7.87-.79-1.31-1.59-2.62-2.38-3.93-.75-1.23-1.43-2.57-2.29-3.73-.77-1.03-2.11-1.3-3-.24-.41.49-.69,1.08-.99,1.63-.35.64-.7,1.28-1.04,1.92-1.31,2.48-2.52,5.02-3.63,7.6-1.29,3-2.46,6.04-3.5,9.14-.41,1.22,1.52,1.75,1.93.53h0Z"/>
      <path class="cls-1" d="M34.11,164.73c1.59,3.79,3.51,7.42,5.82,10.82.54.79,1.06,1.7,1.74,2.39.76.77,1.84.61,2.52-.16,1.39-1.59,2.58-3.41,3.8-5.13,1.44-2.01,2.84-4.05,4.2-6.11.71-1.08-1.02-2.08-1.73-1.01-1.36,2.06-2.76,4.1-4.2,6.11-.69.97-1.4,1.93-2.11,2.89-.33.45-.66.89-1,1.33-.05.07-.51.56-.5.63.42.13.54.12.36-.04-.09-.12-.18-.24-.26-.36-2.68-3.69-4.94-7.69-6.7-11.9-.21-.5-.66-.85-1.23-.7-.47.13-.91.73-.7,1.23h0Z"/>
      <path class="cls-1" d="M40.12,1.51c-.36,22.73-.5,45.45-.44,68.18.07,22.62.35,45.23.84,67.84.28,12.76.62,25.51,1.03,38.26.04,1.28,2.04,1.29,2,0-.73-22.72-1.25-45.45-1.56-68.18s-.4-45.23-.28-67.84c.07-12.75.2-25.51.4-38.26.02-1.29-1.98-1.29-2,0h0Z"/>
    </g>
    <path class="cls-2" d="M34.72,95.12c2.55.16,5.18-.16,7.73-.19,5.21-.07,10.43.06,15.63.5s10.99.91,15.91,3.14c3.3,1.5,6.21,3.66,8.6,6.38.93,1.06,1.47,1.77,2.29,3.04.51.79.98,1.61,1.44,2.43,1.88,3.42,4.06,6.67,6.16,9.95,5.48,8.54,10.29,17.72,17.13,25.3,5.42,6,12.11,10.33,20.16,11.67,4.12.69,8.29.8,12.45.73,4.83-.08,9.35-.71,13.82-2.65,8.74-3.78,15.53-11.03,21.89-17.89,3.44-3.71,6.82-7.48,10.48-10.98,4.17-3.98,8.62-7.66,13.15-11.21,6.96-5.45,13.9-11.33,22.31-14.4,8.93-3.26,18.53-4.33,27.99-4.43,2.87-.03,5.74.04,8.61.19,2.57.13,2.57-3.87,0-4-10.38-.52-20.97-.1-31.1,2.4-4.08,1-8.07,2.39-11.86,4.22s-6.98,4.25-10.29,6.73c-9,6.72-17.92,13.61-25.68,21.75-6.68,7.01-12.91,14.85-20.92,20.44-3.58,2.49-7.48,4.44-11.78,5.31-2.24.45-4.51.49-6.78.52s-4.38.02-6.56-.1c-3.62-.21-7.22-.77-10.63-2.04s-6.6-3.41-9.32-5.92c-7.15-6.59-11.75-15.22-16.88-23.35-2.6-4.12-5.33-8.16-7.82-12.34-1.13-1.9-2.13-3.86-3.42-5.66-4.87-6.72-11.98-10.8-20.14-12.12-9.99-1.61-20.12-1.83-30.21-1.48-.79.03-1.59.11-2.38.06-2.57-.17-2.56,3.84,0,4h0Z"/>
    <g>
      <path class="cls-2" d="M197.08,133.16c-4.01,1.03-7.8,2.86-11.09,5.36-1.6,1.22-3.23,2.58-4.48,4.16-.55.69-1.06,1.56-.98,2.48.07.87.71,1.48,1.48,1.78,2.02.79,4.51.69,6.63.49,2.35-.22,4.66-.69,7-.98,1.16-.14,2.37-.3,3.53-.23,1.24.07,1.53,1.43,1.61,2.47.19,2.23-.81,4.36-2.24,6.01-2.78,3.2-8,6.46-12.25,4.22-.57-.3-1.08.56-.5.86,3.63,1.91,7.9.29,10.93-2.03,3.18-2.44,6.29-6.56,4.71-10.8-.32-.86-.86-1.54-1.81-1.69-1.09-.18-2.31,0-3.4.12-2.38.26-4.74.75-7.12,1-1.17.13-2.35.2-3.53.15-1.09-.05-2.55-.08-3.51-.66-1.96-1.18,1.77-4.22,2.64-5,3.6-3.22,7.97-5.54,12.65-6.74.62-.16.36-1.13-.27-.96h0Z"/>
      <path class="cls-2" d="M209.23,135.2c-1.48,4.5-2.87,9.03-4.17,13.59-.33,1.14-.64,2.28-.96,3.42-.29,1.07-.75,2.21-.87,3.32-.25,2.25,3.26.81,4.23.55,2.6-.69,5.2-1.38,7.81-2.07.62-.16.36-1.13-.27-.96-2.05.54-4.1,1.08-6.15,1.63-1.03.27-2.05.54-3.08.81-.36.09-.89.35-1.26.31-.53-.06-.09-.97,0-1.32,1.09-4.06,2.26-8.11,3.49-12.13.71-2.3,1.44-4.6,2.19-6.89.2-.61-.76-.88-.96-.27h0Z"/>
      <path class="cls-2" d="M221.15,151.19c.22-2.54.49-5.24,1.75-7.51,1.45-2.61,4.27-3.81,7.18-3.86,1.52-.03,2.72.59,3.16,2.1.36,1.25.26,2.67,0,3.93-.51,2.57-1.95,5.1-4.36,6.32s-5.67.93-7.53-1.15c-.43-.48-1.14.23-.71.71,1.89,2.11,5.05,2.64,7.68,1.76,2.89-.97,4.85-3.59,5.67-6.44.72-2.51,1.05-6.72-1.93-7.91-1.5-.6-3.4-.28-4.91.13s-3.02,1.23-4.09,2.46c-2.24,2.58-2.63,6.21-2.91,9.48-.05.64.95.64,1,0h0Z"/>
      <path class="cls-2" d="M240.95,153.62c-.18-5.4-.24-10.81-.17-16.21,0-.62.02-1.25.03-1.87,0-.27-.06-.7.02-.96.13-.42.49-.25.81-.13.93.38,1.84.94,2.57,1.63,1.41,1.33,2.17,3.28,1.38,5.14-.41.95-1.16,1.62-2.17,1.85-1.17.26-2.37.12-3.45.74-.56.32-.05,1.19.5.86,1.14-.66,2.55-.35,3.76-.8.92-.34,1.67-1.05,2.12-1.92.98-1.9.61-4.11-.68-5.76-.74-.94-1.71-1.68-2.76-2.24-.78-.41-2.18-1.17-2.85-.19-.32.46-.23,1.13-.24,1.65-.02.83-.03,1.66-.04,2.49-.02,1.58-.03,3.16-.03,4.74,0,3.66.07,7.32.2,10.97.02.64,1.02.64,1,0h0Z"/>
      <path class="cls-2" d="M252.72,138.52c-1.08,2.79-2.15,5.57-3.23,8.36-.52,1.35-1.07,2.69-1.55,4.05-.45,1.27-.72,2.56-.51,3.9.05.34.48.43.73.3,3.47-1.76,7.16-3.05,10.97-3.85.63-.13.36-1.1-.27-.96-3.9.81-7.66,2.14-11.21,3.95l.73.3c-.21-1.35.24-2.66.71-3.91.5-1.33,1.02-2.65,1.53-3.97l3.05-7.9c.23-.6-.73-.86-.96-.27h0Z"/>
      <path class="cls-2" d="M250.05,145.62c2.91.47,5.88.31,8.72-.52.62-.18.35-1.15-.27-.96-2.65.78-5.45.96-8.19.52-.63-.1-.9.86-.27.96h0Z"/>
      <path class="cls-2" d="M253.27,138.33c1.53-.29,3.08-.45,4.64-.45.74,0,1.49.03,2.23.1s1.39.19,2.08-.12c.59-.26.08-1.13-.5-.86-.33.15-.72.07-1.07.04s-.68-.07-1.02-.09c-.74-.05-1.48-.07-2.23-.05-1.47.03-2.94.2-4.39.48-.63.12-.36,1.09.27.96h0Z"/>
    </g>
    <path class="cls-1" d="M7.02,81.16c-.04-.92-.75-1.63-1.68-1.66-.99-.04-1.69.69-2.15,1.49-1.01,1.73-1.77,3.65-2.3,5.58S0,90.63,0,92.68c0,1.86.47,3.83,1.98,5.05,1.61,1.3,3.63,1.08,5.32.04,1.55-.96,3.02-2.29,4.25-3.63s2.2-2.8,2.54-4.53.04-3.43-.79-4.96c-.9-1.66-2.36-3.02-3.98-3.98-.76-.45-1.75-1.05-2.65-1.1-1.29-.07-1.96,1.29-1.17,2.28.34.42,1.06.35,1.41,0,.42-.42.34-.99,0-1.41l-.08-.1.26.44-.02-.12v.53h.01c-.12.11-.24.23-.36.35l-.16.03c.11.04.22.08.33.12.09.03.18.07.26.11.28.12.55.26.82.41.52.28,1.02.61,1.48.98.92.75,1.69,1.64,2.22,2.7,1.11,2.22.34,4.59-1.18,6.4-.84,1-1.82,1.87-2.82,2.7-.92.77-2.18,1.87-3.47,1.66-1.19-.19-1.86-1.39-2.09-2.46-.31-1.4-.12-2.97.09-4.36.25-1.62.67-3.21,1.24-4.75.28-.76.61-1.49.98-2.22.19-.37.37-.77.61-1.11.04-.06.16-.16.18-.23.1-.06.11-.07.03-.04-.15-.02-.24-.13-.24-.33.05,1.28,2.05,1.29,2,0h0Z"/>
  </g>
</svg>