<?xml version="1.0" encoding="UTF-8"?>
<svg id="Layer_2" data-name="Layer 2" xmlns="http://www.w3.org/2000/svg" viewBox="0 0 268.87 187.33">
  <defs>
    <style>
      .cls-1 {
        fill: #ed1c24;
      }

      .cls-1, .cls-2 {
        stroke-width: 0px;
      }

      .cls-2 {
        fill: #231f20;
      }
    </style>
  </defs>
  <g id="Layer_1-2" data-name="Layer 1">
    <path class="cls-1" d="M6.94,45.37c2.06.03,4.12.06,6.17.04.86,0,1.92.11,2.51-.65,1.08-1.4-.38-2.35-1.59-2.48-.17-.02-.34-.03-.51-.04-.32-.02-.33-.12.09.02l.9.69h0c-.3.73-.6,1.47-.9,2.2-.51.2-.44.01-.17.05.23.03.48.01.71.02,1.11.03,2.23.07,3.34.1,5.38.17,10.76.37,16.14.51,8.26.22,16.71-.08,24.92,1.02,6.64.89,12.38,3.78,18.41,6.53,2.17.99,4.5,1.86,6.5,3.17.82.53.98.7,1.8,1.4,1.19,1.01,2.36,2.05,3.55,3.06,3.86,3.29,7.78,6.45,11.32,10.08s6.84,7.56,9.93,11.62c6.03,7.93,11.38,16.35,17.23,24.42,5.82,8.04,12.17,15.78,19.89,22.08,8.95,7.31,19.48,12.3,30.42,15.86,25.57,8.33,52.87,8.64,79.48,8.06,3.44-.07,6.88-.16,10.32-.25,1.93-.05,1.93-3.05,0-3-27.16.71-54.86,1.48-81.36-5.46-11.55-3.03-23.02-7.45-32.83-14.36-8.17-5.76-14.95-13.25-20.94-21.2s-11.46-16.56-17.41-24.69c-6.04-8.26-12.67-15.94-20.58-22.46-4.07-3.35-7.72-7.2-12.55-9.42-6.24-2.88-12.48-6.32-19.26-7.77s-14.34-1.35-21.46-1.5c-9.04-.19-18.06-.57-27.1-.79-.33,0-.8-.07-1.11.05-.92.36-1.38,1.28-.9,2.2.37.71,1.09.72,1.76.79.14.01.29.03.44.04.32.02-.25-.05-.2-.03.45.21-1.17-1.04-.54-.36l-.44-1.06h0c.15-.35.29-.7.44-1.06-2.14,2.19.96-.55.61-.37.6-.3.42-.01.28-.04-.09-.02-.21.01-.3.01-.41,0-.82.01-1.24.02-1.93,0-3.86-.02-5.79-.04s-1.93,2.98,0,3h0Z"/>
    <g>
      <g>
        <path class="cls-1" d="M38.64,40.18c6.83.35,13.67.69,20.41,1.79,1.85.3,3.73.66,5.58.36s3.7-1.4,4.3-3.18c-4.72,2.57-10.48,1.71-15.82,1.05-5.21-.64-10.44-1.03-15.69-1.15.18.7.76,1.27,1.46,1.44"/>
        <path class="cls-1" d="M38.64,40.31c4.55.23,9.1.46,13.64.92,2.33.23,4.66.53,6.97.91,1.95.32,3.99.7,5.95.22,1.69-.41,3.24-1.49,3.85-3.16.04-.11-.09-.19-.18-.14-3.53,1.88-7.6,1.89-11.48,1.53-4.16-.39-8.3-1-12.47-1.29-2.49-.18-4.99-.29-7.49-.35-.08,0-.14.08-.12.16.23.76.78,1.3,1.55,1.53.15.04.22-.2.07-.24-.68-.2-1.16-.67-1.37-1.35l-.12.16c4.55.11,9.09.41,13.61.91,3.98.44,8,1.19,12.01.85,2.08-.18,4.1-.69,5.95-1.67l-.18-.14c-.62,1.71-2.31,2.74-4.03,3.06-2.13.4-4.31-.12-6.42-.45-4.15-.64-8.34-1.02-12.53-1.29-2.4-.15-4.79-.28-7.19-.4-.16,0-.16.24,0,.25h0Z"/>
      </g>
      <g>
        <path class="cls-1" d="M37.74,37.87c6.83.35,13.67.69,20.41,1.79,1.85.3,3.73.66,5.58.36s3.7-1.4,4.3-3.18c-4.72,2.57-10.48,1.71-15.82,1.05-5.21-.64-10.44-1.03-15.69-1.15.18.7.76,1.27,1.46,1.44"/>
        <path class="cls-1" d="M37.74,37.99c4.55.23,9.1.46,13.64.92,2.33.23,4.66.53,6.97.91,1.95.32,3.99.7,5.95.22,1.69-.41,3.24-1.49,3.85-3.16.04-.11-.09-.19-.18-.14-3.53,1.88-7.6,1.89-11.48,1.53-4.16-.39-8.3-1-12.47-1.29-2.49-.18-4.99-.29-7.49-.35-.08,0-.14.08-.12.16.23.76.78,1.3,1.55,1.53.15.04.22-.2.07-.24-.68-.2-1.16-.67-1.37-1.35l-.12.16c4.55.11,9.09.41,13.61.91,3.98.44,8,1.19,12.01.85,2.08-.18,4.1-.69,5.95-1.67l-.18-.14c-.62,1.71-2.31,2.74-4.03,3.06-2.13.4-4.31-.12-6.42-.45-4.15-.64-8.34-1.02-12.53-1.29-2.4-.15-4.79-.28-7.19-.4-.16,0-.16.24,0,.25h0Z"/>
      </g>
      <path class="cls-2" d="M53.8,25.33c-.39.08-.58.36-.72.71-.26.64-.43,1.35-.62,2.02-.39,1.39-.74,2.8-1.12,4.2-.76,2.83-1.64,5.64-3.18,8.15-.06.09.04.21.14.18,2.2-.6,4.68-1.22,6.73.16.13.09.26-.13.13-.22-2.1-1.41-4.66-.81-6.93-.18l.14.18c1.36-2.21,2.22-4.67,2.92-7.16.35-1.25.67-2.52,1-3.78.18-.66.36-1.33.55-1.99.16-.55.34-1.9,1.02-2.04.16-.03.09-.27-.07-.24h0Z"/>
      <path class="cls-2" d="M54.39,25.63v-.02c-.02-.14-.24-.1-.24.03-.16,3.41-.48,6.81-.96,10.19-.11.8-.71,2.31.5,2.43.84.08,1.67.09,2.51.23.79.13,1.57.32,2.34.56.15.05.22-.19.07-.24-1.25-.39-2.54-.64-3.84-.74-.31-.02-.69.02-.99-.05-.8-.17-.52-.85-.44-1.39.1-.7.2-1.39.29-2.09.38-2.95.64-5.92.78-8.89l-.25.03c.04.25.32.27.45.08.09-.13-.12-.26-.22-.13h0Z"/>
      <path class="cls-2" d="M55.75,7.67c-2.01.93-3.8,2.43-4.87,4.39-.45.82-1.02,1.98-.81,2.94.19.83.98,1.23,1.75,1.35,2,.33,4.17-.67,5.72-1.86s2.86-2.92,3.17-4.9c.16-1-.04-2.14-.98-2.69-.75-.44-1.87-.51-2.51.16-.11.12.06.29.18.18.65-.67,1.89-.49,2.52.12.74.72.66,1.87.4,2.79-.47,1.71-1.63,3.17-3.04,4.22s-3.21,1.87-4.98,1.78c-.92-.05-2.02-.42-2.04-1.52-.01-.9.48-1.88.92-2.64,1.07-1.84,2.76-3.22,4.67-4.11.15-.07.02-.28-.13-.22h0Z"/>
      <path class="cls-2" d="M55.62,16.02c-.65,3.36-1.26,6.72-1.83,10.09-.03.16.21.22.24.07.57-3.37,1.19-6.73,1.83-10.09.03-.16-.21-.22-.24-.07h0Z"/>
      <path class="cls-2" d="M55.04,18.02c-1.6,1.64-3.09,3.38-4.49,5.2-.06.08.02.18.11.19,1.09.06,2.16-.05,3.22-.31s2.09-.54,3.05.04l-.03-.2v-.08c.06-.16-.19-.22-.23-.07-.07.24.19.56.4.32.05-.06.05-.15-.03-.2-.88-.53-1.87-.39-2.82-.17-1.19.28-2.35.48-3.58.4l.11.19c1.38-1.8,2.87-3.52,4.45-5.15.11-.12-.06-.29-.18-.18h0Z"/>
      <path class="cls-2" d="M55.89,18.65c1.91-.9,3.92-1.51,6.01-1.78l-.12-.16c-1.04,6.25-2.21,12.48-3.51,18.68-.03.16.2.22.24.07.05-.2.1-.4.15-.61.04-.16-.2-.22-.24-.07-.05.2-.1.4-.15.61l.24.07c1.3-6.2,2.47-12.43,3.51-18.68.01-.07-.03-.17-.12-.16-2.14.28-4.19.9-6.14,1.82-.15.07-.02.28.13.22h0Z"/>
      <g>
        <path class="cls-2" d="M53.24,7.5c.46-2.44.92-4.88,1.37-7.32,1.82-.03,3.65-.03,5.47-.01.36,0,.8.04.96.3.1.17.04.37-.03.56-.94,2.53-1.88,5.07-2.82,7.6"/>
        <path class="cls-2" d="M53.36,7.53c.46-2.44.92-4.88,1.37-7.32l-.12.09c1.22-.02,2.43-.03,3.65-.02.61,0,1.22,0,1.82.01.28,0,.86,0,.88.39.02.26-.2.63-.28.86-.87,2.35-1.74,4.7-2.61,7.05-.06.15.19.22.24.07.5-1.35,1-2.69,1.5-4.04.24-.66.49-1.32.73-1.98.13-.34.25-.69.38-1.03.1-.26.24-.54.28-.81.15-1.04-1.73-.76-2.28-.77-1.44,0-2.87,0-4.31.02-.05,0-.11.04-.12.09-.46,2.44-.92,4.88-1.37,7.32-.03.16.21.22.24.07h0Z"/>
      </g>
      <path class="cls-2" d="M58.63,35.07c-.48-.14-1.04-.09-1.49.15-.19.1-.4.27-.42.5-.02.26.24.38.45.45.51.17,1.07.19,1.59.08.32-.07,1.19-.31.99-.79-.1-.24-.41-.35-.65-.38-.36-.04-.71.05-1.05.14-.15.04-.09.28.07.24.4-.11.95-.28,1.32,0,.2.15.01.27-.15.36-.17.09-.36.15-.54.19-.39.09-.81.09-1.2.01-.16-.03-.43-.07-.54-.2-.13-.15.19-.34.3-.39.38-.19.86-.22,1.26-.1.16.04.22-.2.07-.24h0Z"/>
      <g>
        <path class="cls-2" d="M57.01,23.28c-.64.14-.86,1.22-1.08,1.74-.37.88-.73,1.76-1.09,2.64-.78,1.94-1.52,3.9-2.22,5.88s-1.35,3.92-1.98,5.89c-.18.57-.76,1.66-.43,2.26.17.3.51.35.69.04.08-.14-.13-.26-.22-.13-.25-.24-.32-.49-.23-.74.02-.07.04-.15.06-.22.06-.19.12-.38.18-.57.12-.38.24-.76.36-1.15.23-.72.47-1.44.71-2.16.49-1.47,1-2.93,1.53-4.39s1.05-2.81,1.6-4.21c.29-.73.59-1.46.89-2.18.16-.39.32-.78.49-1.16.14-.34.38-1.21.79-1.3.16-.03.09-.28-.07-.24h0Z"/>
        <path class="cls-2" d="M50.06,41.15c-.24-.16-.49-.32-.78-.34-.22-.01-.46.08-.59.25-.15.19-.14.45,0,.65.16.23.41.33.68.36.29.03.6,0,.89-.04.27-.04.55-.11.76-.29.33-.26.56-.86.18-1.19-.31-.27-.9-.15-.95.3-.02.16.23.16.25,0,.03-.23.39-.23.53-.12.27.21.05.65-.15.81-.32.26-.8.27-1.19.28-.21,0-.44.01-.62-.1-.15-.09-.27-.27-.2-.45.07-.16.27-.23.44-.22.24.02.46.17.65.3.13.09.26-.13.13-.22h0Z"/>
      </g>
      <g>
        <path class="cls-2" d="M53.77,6.83l4.31-.45c1.29-.13,2.63-.26,3.84.17-.17.94-.34,1.88-.5,2.82-1.21-.59-2.63-.5-3.97-.52-2.1-.04-4.25-.4-6.27.15.08-.81.16-1.63.24-2.44.91-.03,1.82.13,2.67.46"/>
        <path class="cls-2" d="M53.77,6.96c1.37-.14,2.74-.28,4.11-.43s2.71-.29,4.02.15l-.09-.15c-.17.94-.34,1.88-.5,2.82l.18-.07c-1.52-.7-3.23-.49-4.85-.57-1.84-.09-3.68-.28-5.49.19l.16.12c.08-.81.16-1.63.24-2.44l-.12.12c.91-.02,1.78.13,2.63.46.15.06.22-.18.07-.24-.87-.33-1.77-.49-2.7-.47-.07,0-.12.06-.12.12-.08.81-.16,1.63-.24,2.44,0,.08.09.14.16.12,1.72-.44,3.47-.28,5.22-.19,1.63.08,3.41-.16,4.93.54.07.03.17.01.18-.07.17-.94.34-1.88.5-2.82.01-.07-.02-.13-.09-.15-1.26-.42-2.58-.31-3.88-.18-1.44.15-2.88.3-4.31.45-.16.02-.16.27,0,.25h0Z"/>
      </g>
      <path class="cls-2" d="M54.63,11.29s-.02-.03-.02-.05c0,.02,0,0,0-.01,0-.02,0,.03,0-.01,0-.01,0-.03.02-.05.01-.02.02-.03.04-.04.07-.07.17-.1.26-.09.21.01.42.16.5.36.09.2.02.43-.15.57-.08.06-.18.1-.28.1-.09,0-.16-.04-.22-.1-.07-.07-.11-.15-.13-.25-.01-.08,0-.18.05-.25.04-.05.05-.13,0-.18-.04-.04-.13-.05-.18,0-.19.23-.16.55.02.78.2.25.54.31.81.14s.44-.53.33-.85-.4-.53-.72-.57c-.18-.02-.36.05-.48.17s-.18.31-.07.46c.04.05.11.08.17.04.05-.03.08-.12.04-.17h0Z"/>
      <path class="cls-2" d="M57.1,11.61c0-.2.12-.39.31-.48.17-.09.37-.07.5.05.14.12.22.31.2.5-.02.16-.15.31-.3.36-.19.07-.41.04-.56-.1-.11-.11-.29.06-.18.18.38.38,1.15.22,1.27-.33.06-.26-.02-.53-.2-.73-.19-.21-.49-.28-.76-.18-.3.12-.54.41-.53.74,0,.16.25.16.25,0h0Z"/>
      <path class="cls-2" d="M53.67,13.36c-.26.46-.38.99-.35,1.52,0,.13.16.16.23.06.08-.1.16-.21.23-.31.04-.05,0-.14-.04-.17-.06-.04-.13,0-.17.04-.08.1-.16.21-.23.31l.23.06c-.03-.49.07-.97.31-1.4.08-.14-.14-.27-.22-.13h0Z"/>
      <path class="cls-2" d="M53.82,13.46c.82-.31,1.63-.63,2.45-.93.07-.03.2-.08.28-.04.08.05.07.21.08.29.02.21.03.41.03.62,0,.44-.05.88-.14,1.32l.12-.09c-1.06-.06-2.11-.12-3.17-.16-.16,0-.16.24,0,.25,1.06.05,2.12.1,3.17.16.05,0,.11-.04.12-.09.1-.49.15-.98.15-1.48,0-.24,0-.49-.05-.73-.03-.17-.12-.31-.3-.35-.2-.04-.41.08-.59.14l-.72.27-1.49.57c-.15.06-.08.3.07.24h0Z"/>
    </g>
    <g>
      <g>
        <path class="cls-2" d="M7.8,63.19c-1.9.31-3.67,1.21-5.08,2.52-.7.65-1.31,1.41-1.78,2.24s-1.02,1.92-.92,2.93c.18,1.89,2.34,2.35,3.9,2.37,1.01,0,2.29-.09,3.03.74.55.61.6,1.52.38,2.28-.73,2.51-3.82,2.47-5.82,1.73-.6-.22-.87.74-.27.96,1.87.69,4.19.8,5.82-.52,1.25-1.01,1.77-2.92,1.1-4.4-.93-2.07-3.23-1.62-5.06-1.83-.78-.09-1.9-.42-2.07-1.32-.2-1.04.69-2.4,1.28-3.21,1.37-1.89,3.47-3.16,5.77-3.53.63-.1.36-1.07-.27-.96h0Z"/>
        <path class="cls-2" d="M11.63,66.64c-.62,3.31-1.25,6.62-1.85,9.93-.1.53-.17,1.11.24,1.53.39.4.97.38,1.48.3,1.48-.24,2.91-.81,4.19-1.58.55-.33.05-1.2-.5-.86-1.05.63-2.17,1.09-3.36,1.36-.25.06-.55.15-.81.13-.35-.03-.33-.21-.29-.51.1-.69.26-1.38.39-2.07l1.48-7.96c.12-.63-.85-.9-.96-.27h0Z"/>
        <path class="cls-2" d="M16.57,75.26c.26-1.55.83-3.02,1.71-4.33.64-.95,1.82-2.41,2.98-1.29.91.87,1.08,2.3.87,3.48s-.88,2.49-2.07,3.02c-1.11.49-2.66.33-3.4-.73-.37-.52-1.23-.02-.86.5.88,1.26,2.46,1.7,3.92,1.38,1.61-.35,2.74-1.7,3.21-3.22s.4-3.36-.56-4.68c-.46-.63-1.1-1.12-1.9-1.18-.85-.06-1.6.43-2.15,1.03-1.44,1.56-2.36,3.66-2.71,5.74-.11.63.86.9.96.27h0Z"/>
        <path class="cls-2" d="M26.17,77.55c-.4-1.72-.67-3.46-.8-5.22-.06-.82-.09-1.65-.09-2.47,0-.75.02-1.58.43-2.24.3-.49.98-.96,1.58-.73.68.27.9,1.31.98,1.95.16,1.27-.62,3.09-2.19,2.62-.62-.18-.88.78-.27.96,1.31.39,2.68-.42,3.2-1.64s.33-3.13-.55-4.22-2.56-.81-3.4.24c-1,1.25-.81,3.16-.74,4.66.1,2.14.4,4.26.89,6.35.15.63,1.11.36.96-.27h0Z"/>
        <path class="cls-2" d="M30.86,67.92l-1.5,8.91c-.06.34.22.76.62.62.83-.3,1.66-.61,2.49-.91.44-.16.88-.32,1.33-.49.35-.13.74-.22,1.05-.43.48-.32.64-1.14-.03-1.34-.5-.15-1.17.39-.78.9s1.25,0,.86-.5l.03.16-.15.35c-.17-.39-.36-.51-.59-.35l-.33.12-.5.18c-.41.15-.83.3-1.24.46-.8.29-1.6.59-2.4.88l.62.62,1.5-8.91c.11-.63-.86-.9-.96-.27h0Z"/>
        <path class="cls-2" d="M31.15,71.9c1.07-.29,2.16-.35,3.28-.21.27.03.5-.25.5-.5,0-.3-.23-.47-.5-.5-1.18-.15-2.39-.06-3.54.25-.26.07-.42.36-.35.62s.35.42.62.35h0Z"/>
        <path class="cls-2" d="M31.55,67.62c1.16-.67,2.54-.96,3.87-.76.27.04.54-.07.62-.35.06-.24-.08-.57-.35-.62-1.6-.24-3.24.04-4.64.86-.56.32-.05,1.19.5.86h0Z"/>
        <path class="cls-2" d="M39.83,69.97c1.42-.88,3.17-1.08,4.75-.54.61.21.87-.76.27-.96-1.82-.61-3.89-.37-5.52.64-.55.34-.04,1.2.5.86h0Z"/>
        <path class="cls-2" d="M38.96,73.94c1.98-.12,3.94-.46,5.84-1.03.61-.18.35-1.15-.27-.96-1.81.54-3.68.88-5.57,1-.64.04-.64,1.04,0,1h0Z"/>
        <path class="cls-2" d="M51.79,65.51c-1.85.55-2.58,2.55-2.86,4.28s-.34,3.76.28,5.41c.4,1.05,1.21,1.84,2.38,1.91.97.06,1.89-.4,2.59-1.04.62-.57,1.02-1.33,1.34-2.1.52-1.28.99-2.69,1.14-4.06.14-1.27-.22-2.5-1.19-3.37s-2.36-1.34-3.67-1.02c-.63.15-.36,1.12.27.96.95-.23,1.98.13,2.7.77s1,1.53.91,2.51c-.1,1.11-.5,2.21-.86,3.26-.26.75-.57,1.54-1.12,2.13-.43.47-.99.84-1.63.94-1.01.16-1.68-.5-1.96-1.41-.41-1.34-.4-2.89-.24-4.27s.62-3.46,2.2-3.93c.62-.18.35-1.15-.27-.96Z"/>
      </g>
      <g>
        <path class="cls-2" d="M147.96,64.11c-1.44.87-2.79,1.9-4,3.08-.63.61-1.22,1.25-1.76,1.93-.52.64-1.11,1.32-1.47,2.06-.82,1.7,1.77,2.16,2.91,2.18,1.38.02,3.98-.46,4.43,1.4.26,1.08-1.04,1.45-1.85,1.61-.58.12-1.17.16-1.76.13-.16,0-1.51-.09-1.55-.26l-.05.39-.3.16-.3-.23.03.05v-.5l-.03.06c-.28.58.58,1.08.86.5l.03-.06c.08-.15.11-.35,0-.5-.38-.55-1.33-.34-1.21.41.14.88,1.62.92,2.29.98,1.57.13,4.57-.16,4.84-2.18s-1.78-2.92-3.41-2.98c-1.09-.04-2.24.19-3.3-.13-.26-.08-.58-.15-.67-.43s.11-.45.26-.67c.34-.49.69-.97,1.07-1.43,1.53-1.87,3.37-3.45,5.44-4.7.55-.33.05-1.2-.5-.86h0Z"/>
        <path class="cls-2" d="M152.22,68.17c-1.25,2.62-2.23,5.37-2.87,8.2-.11.49-.26,1.06.01,1.53.32.54.95.52,1.47.32,1.44-.54,2.85-1.17,4.28-1.75.59-.24.33-1.21-.27-.96-1.2.49-2.39.98-3.59,1.47-.27.11-.53.24-.81.33-.22.07-.26.14-.24-.1.05-.56.24-1.13.38-1.67.61-2.36,1.45-4.65,2.5-6.85.28-.58-.59-1.09-.86-.5h0Z"/>
        <path class="cls-2" d="M155.71,74.86c.55-.98.91-2.14,1.68-2.99.55-.61,1.53-1.2,2.37-.8.59.28.8,1.02.7,1.62-.12.76-.56,1.29-1.36,1.49-.96.23-2.03-.19-2.71-.89-.45-.46-1.16.24-.71.71.82.84,2.04,1.36,3.22,1.22s2.1-.82,2.44-1.94c.28-.93.11-2.09-.63-2.76-.97-.87-2.4-.64-3.39.07-1.27.92-1.74,2.44-2.48,3.76-.32.56.55,1.07.86.5h0Z"/>
        <path class="cls-2" d="M163.23,77.6c-.04-3.79.47-7.56,1.52-11.2l-.62.35c1.09.2,1.97,1.27,1.74,2.4-.21,1.04-1.36,1.77-2.39,1.57-.63-.12-.9.84-.27.96,1.56.3,3.27-.67,3.62-2.27s-.81-3.34-2.44-3.63c-.27-.05-.53.07-.62.35-1.07,3.73-1.6,7.59-1.56,11.47,0,.64,1.01.64,1,0h0Z"/>
        <path class="cls-2" d="M169.18,68.93c-.8,2.46-1.6,4.92-2.4,7.38-.12.36.26.72.62.62,1.85-.55,3.7-1.1,5.55-1.64.62-.18.35-1.15-.27-.96-1.85.55-3.7,1.1-5.55,1.64l.62.62c.8-2.46,1.6-4.92,2.4-7.38.2-.61-.77-.88-.96-.27h0Z"/>
        <path class="cls-2" d="M169.09,73.02c1.34.26,2.71-.09,3.76-.96.21-.17.18-.53,0-.71-.21-.21-.5-.17-.71,0-.15.12-.4.29-.64.41-.06.03-.12.06-.19.09.06-.03-.11.04-.12.05-.12.04-.25.08-.37.11s-.25.06-.38.08c.08-.01-.11.01-.13.01-.07,0-.14.01-.21.01-.14,0-.28,0-.42,0-.02,0-.21-.02-.13-.01-.07,0-.14-.02-.21-.04-.26-.05-.55.07-.62.35-.06.25.07.56.35.62h0Z"/>
        <path class="cls-2" d="M171.06,68.79s.09-.07.13-.11c.04-.04.04-.04,0,0,.02-.02.05-.03.07-.05.09-.07.19-.13.29-.19s.2-.11.3-.16c.03-.01.05-.02.08-.03-.05.02-.05.02,0,0,.05-.02.11-.04.16-.06.11-.04.22-.07.33-.09.06-.01.11-.03.17-.04.02,0,.2-.03.08-.02.23-.03.46-.03.69-.02.26.02.51-.24.5-.5-.01-.29-.22-.48-.5-.5-1.1-.07-2.18.33-3,1.06-.2.17-.19.53,0,.71.21.19.5.19.71,0h0Z"/>
        <path class="cls-2" d="M179.38,69.74c1.28-.38,2.62-.36,3.89.05.26.08.55-.1.62-.35.07-.27-.09-.53-.35-.62-1.43-.46-2.99-.48-4.42-.05-.61.18-.35,1.15.27.96h0Z"/>
        <path class="cls-2" d="M177.92,73.05l6.51-1.13c.63-.11.36-1.07-.27-.96l-6.51,1.13c-.63.11-.36,1.07.27.96h0Z"/>
        <path class="cls-2" d="M188.08,65.55c.18,2.31.49,4.6.91,6.88.22,1.18.45,2.38.77,3.54.19.69.66,1.51,1.51,1.21s1.07-1.35,1.33-2.06c.39-1.07.74-2.16,1.06-3.26.65-2.24,1.13-4.53,1.46-6.84l-.98-.13c-.03.31-.06.62-.08.94-.06.64.94.64,1,0,.03-.31.06-.62.08-.94.05-.55-.9-.69-.98-.13-.28,1.91-.65,3.8-1.14,5.66-.24.93-.51,1.85-.81,2.76s-.53,1.85-.96,2.67c-.03.06-.2.4-.3.39-.08,0-.15-.29-.18-.38-.16-.47-.25-.99-.36-1.48-.22-.96-.41-1.92-.58-2.89-.35-1.97-.6-3.95-.75-5.94-.05-.64-1.05-.64-1,0h0Z"/>
        <path class="cls-2" d="M197.8,65.84c-1.75,3.04-3.14,6.28-4.14,9.64-.11.38.25.69.62.62,1.38-.3,2.76-.65,4.12-1.04,1.19-.34,2.54-.59,3.54-1.35.51-.38,0-1.25-.5-.86-.97.73-2.32.97-3.48,1.3-1.3.37-2.62.7-3.95.99l.62.62c.98-3.28,2.33-6.44,4.04-9.41.32-.56-.54-1.06-.86-.5h0Z"/>
        <path class="cls-2" d="M197,69.95c1.76.04,3.51-.39,5.07-1.22.57-.3.06-1.17-.5-.86-1.4.75-2.97,1.12-4.56,1.09-.64-.01-.64.99,0,1h0Z"/>
        <path class="cls-2" d="M198.03,65.93c1.46.27,2.96.22,4.39-.17.62-.17.36-1.13-.27-.96-1.26.34-2.58.4-3.86.17-.27-.05-.54.07-.62.35-.07.24.08.57.35.62h0Z"/>
        <path class="cls-2" d="M204.72,75.81c.02-1.86.14-3.71.36-5.56.11-.93.25-1.86.42-2.78.08-.43.16-.86.25-1.29.06-.31.11-.8.36-1.01.6-.5,1.11.77,1.13,1.2.03.63-.26,1.22-.8,1.54-.48.29-1.05.48-1.4.95s-.34,1.07-.02,1.56c.47.71,1.38,1.21,2.05,1.73.84.65,1.69,1.3,2.53,1.95.51.39,1.01-.48.5-.86-.81-.63-1.63-1.26-2.44-1.89-.41-.31-.82-.63-1.22-.94-.26-.21-.81-.55-.61-.94.13-.25.57-.4.8-.52.29-.15.57-.31.8-.53.48-.46.75-1.11.8-1.77.09-1.2-.88-2.97-2.32-2.51-.72.23-.97,1.01-1.11,1.67-.21,1-.39,2-.53,3.01-.34,2.32-.52,4.65-.55,6.99,0,.64.99.64,1,0h0Z"/>
        <path class="cls-2" d="M209.61,65.48c.15.75.42,1.47.78,2.15s.82,1.39,1.44,1.82c.68.47,1.49.22,1.97-.39s.79-1.4,1.02-2.13c.27-.89.4-1.83.38-2.76-.01-.64-1.01-.64-1,0,.02.86-.1,1.71-.35,2.54-.12.39-.27.77-.46,1.13-.14.28-.31.64-.59.81s-.51-.08-.69-.28c-.26-.28-.47-.59-.67-.92-.42-.69-.7-1.45-.87-2.24-.05-.26-.37-.42-.62-.35-.28.08-.4.35-.35.62h0Z"/>
        <path class="cls-2" d="M212.09,70.09l-.54,5.03c-.03.27.25.5.5.5.29,0,.47-.23.5-.5l.54-5.03c.03-.27-.25-.5-.5-.5-.29,0-.47.23-.5.5h0Z"/>
        <path class="cls-2" d="M222.83,75.96c.59-3.6,1.18-7.19,1.77-10.79h-.96c.9,3.82,1.8,7.64,2.71,11.47.11.45.68.45.91.12,1.21-1.69,1.67-3.73,2.05-5.74.44-2.37.86-4.74,1.3-7.1.11-.63-.85-.9-.96-.27-.42,2.3-.84,4.6-1.26,6.9-.37,2-.78,4.02-1.98,5.7l.91.12c-.9-3.82-1.8-7.64-2.71-11.47-.11-.46-.88-.5-.96,0-.59,3.6-1.18,7.19-1.77,10.79-.1.63.86.9.96.27h0Z"/>
        <path class="cls-2" d="M232.77,66.24c-.62,2.87-1.32,5.73-1.86,8.62-.09.46-.09,1,.36,1.29.51.32,1.26,0,1.79-.11,1.43-.31,2.85-.62,4.28-.92.63-.14.36-1.1-.27-.96-1.19.26-2.38.51-3.57.77-.3.06-.59.13-.89.19-.24.05-.61.21-.85.17.07.08.1.09.09,0,0-.05,0-.1.02-.15.02-.12.05-.24.08-.36.07-.33.14-.66.21-.99.52-2.42,1.05-4.85,1.57-7.27.14-.63-.83-.9-.96-.27h0Z"/>
        <path class="cls-2" d="M232.86,70.98c1.34-.03,2.68.08,3.99.34.26.05.54-.08.62-.35.07-.25-.08-.56-.35-.62-1.4-.28-2.83-.41-4.26-.38-.64.01-.64,1.01,0,1h0Z"/>
        <path class="cls-2" d="M233.74,67.18c.62-.33,1.29-.61,1.97-.71.29-.04.62-.04.87.03.07.02.14.04.21.07-.07-.03.02.01.04.02.04.02.07.04.11.06.09.06.05.03.14.11.03.02.05.05.07.07,0,0,.09.11.06.06.16.21.43.33.68.18.21-.12.34-.47.18-.68-1.2-1.58-3.37-.85-4.83-.07-.57.3-.06,1.17.5.86h0Z"/>
        <path class="cls-2" d="M241.33,66.65c-1.04,1.23-1.89,2.59-2.52,4.08-.57,1.35-1.1,3.03-.18,4.36.74,1.08,2.24,1.48,3.24.48s.64-2.65-.62-3.19v.86c.73-.44,1.57-.57,2.4-.36.62.16.89-.81.27-.96-1.09-.27-2.21-.11-3.17.46-.29.17-.36.71,0,.86.82.35.98,1.52.04,1.86-.99.37-1.64-.88-1.66-1.68-.02-1.13.54-2.29,1.05-3.28s1.14-1.94,1.86-2.8c.41-.49-.29-1.2-.71-.71h0Z"/>
        <path class="cls-2" d="M244.88,75.65l1-4.84c.15-.74.27-1.5.47-2.24.1-.38.3-1.08.78-1.13l-.48-.37c.48,2.89.74,5.81.78,8.74,0,.64,1.01.64,1,0-.05-3.02-.32-6.03-.82-9-.03-.19-.28-.39-.48-.37-1.57.19-1.78,1.99-2.04,3.24l-1.18,5.71c-.13.63.83.9.96.27h0Z"/>
        <path class="cls-2" d="M245.43,71.04c.28.37.64.64,1.08.78.4.13.85.13,1.25,0,.25-.08.44-.35.35-.62-.08-.25-.35-.44-.62-.35-.09.03-.18.05-.27.06l.13-.02c-.14.02-.28.02-.42,0l.13.02c-.1-.01-.2-.04-.29-.07-.05-.02-.2-.09-.04-.01-.04-.02-.09-.04-.13-.07s-.09-.05-.13-.08c-.03-.02-.09-.08.02.02-.02-.02-.04-.03-.06-.05-.03-.03-.07-.06-.1-.09-.03-.03-.15-.18-.04-.04-.08-.11-.16-.19-.3-.23-.12-.03-.28-.02-.39.05-.21.13-.35.46-.18.68h0Z"/>
        <path class="cls-2" d="M248.8,68.58c1.28-.69,2.72-.98,4.17-.85.27.02.5-.25.5-.5,0-.29-.23-.48-.5-.5-1.61-.14-3.25.22-4.67.99-.57.31-.06,1.17.5.86h0Z"/>
        <path class="cls-2" d="M250.88,67.15c-.73,2.79-.87,5.68-.44,8.54.1.63,1.06.36.96-.27-.4-2.67-.24-5.4.44-8,.16-.62-.8-.89-.96-.27h0Z"/>
        <path class="cls-2" d="M254.05,75.06c.73-2.19.85-4.54.36-6.79-.14-.63-1.1-.36-.96.27.45,2.08.32,4.24-.36,6.26-.21.61.76.87.96.27h0Z"/>
        <path class="cls-2" d="M255.07,67.23c.36,2.86.97,5.68,1.85,8.42.15.45.84.5.96,0,.64-2.61,1.49-5.16,2.53-7.64.11-.25-.11-.55-.35-.62-.29-.08-.51.1-.62.35-1.04,2.48-1.89,5.03-2.53,7.64h.96c-.85-2.66-1.47-5.39-1.81-8.15-.08-.63-1.08-.64-1,0h0Z"/>
        <path class="cls-2" d="M260.94,66.66c-.37,2.46-.75,4.93-1.12,7.39-.07.43-.18.91-.03,1.34.17.47.6.67,1.08.61,1.12-.13,2.28-.66,3.31-1.1.59-.25.08-1.12-.5-.86-.86.37-1.75.68-2.65.91-.24.06-.26.15-.31-.06-.04-.16.05-.41.07-.57l.23-1.53.89-5.86c.1-.63-.87-.9-.96-.27h0Z"/>
        <path class="cls-2" d="M261.55,71.06s.06-.07.09-.11c.02-.02.13-.1.03-.03.03-.02.06-.04.1-.06.03-.02.13-.05.02-.01.08-.03.16-.05.24-.06.04,0,.03,0-.03,0,.03,0,.05,0,.08,0,.04,0,.08,0,.12,0,.19,0,.38.02.57.04-.09-.01.02,0,.05,0,.05,0,.09.01.14.02.1.02.2.03.3.05.8.12,1.75.23,2.34-.45.18-.2.2-.51,0-.71-.18-.18-.53-.2-.71,0-.03.04-.07.07-.1.1-.08.08.04,0-.04.03-.03.01-.07.04-.1.06-.09.06.08-.02-.02,0-.04,0-.07.02-.11.03-.01,0-.16.03-.09.02s-.08,0-.1,0c-.04,0-.08,0-.13,0-.09,0-.17,0-.26-.01-.05,0-.1,0-.16-.01-.02,0-.18-.02-.07,0-.19-.03-.38-.06-.57-.09-.79-.12-1.74-.22-2.3.48-.17.21-.21.5,0,.71.17.17.54.21.71,0h0Z"/>
        <path class="cls-2" d="M261.73,66.75h4.14c.64,0,.64-1,0-1h-4.14c-.64,0-.64,1,0,1h0Z"/>
      </g>
      <g>
        <path class="cls-2" d="M116.87,32.67c-1.49.93-2.84,2.08-3.95,3.43-.56.68-1.07,1.4-1.51,2.16-.42.72-.8,1.49-.37,2.3.78,1.46,2.66,1.69,4.11,1.95,1.38.25,3.52,1.04,2.74,2.86-.42.96-1.37,1.47-2.39,1.53-.57.03-1.13-.06-1.68-.2-.15-.04-1.47-.55-1.43-.6.39-.5-.31-1.21-.71-.71-1.37,1.74,2.49,2.5,3.5,2.52,1.76.03,3.59-1.05,3.84-2.91s-1.44-2.94-3.02-3.32c-.92-.22-1.88-.28-2.77-.6-.42-.15-.84-.38-1.14-.73-.5-.58-.05-1.2.28-1.74,1.24-2.06,2.96-3.79,5.01-5.06.55-.34.04-1.2-.5-.86h0Z"/>
        <path class="cls-2" d="M129.23,38.78c1.13-.56,2.47.02,2.85,1.2.35,1.08.12,2.36-.54,3.28-.36.5-.9.88-1.48,1.08-.31.1-.64.17-.96.11-.27-.05-.41-.15-.57-.32-.58-.6-.71-1.71-.67-2.59.06-1.03.42-2.25,1.38-2.77.57-.31.06-1.17-.5-.86-1.19.65-1.71,2.04-1.84,3.31-.13,1.2.05,2.65.9,3.57,1.18,1.29,3.3.49,4.3-.63s1.4-2.82,1.01-4.28c-.2-.79-.67-1.51-1.39-1.92-.91-.52-2.05-.52-2.98-.06-.58.29-.07,1.15.5.86Z"/>
        <path class="cls-2" d="M136.56,45.53c-.36-1.55-.57-3.13-.61-4.73-.03-1.1-.13-2.55.59-3.48s1.89-.22,1.96.8c.09,1.23-1.42,1.75-2.41,1.64-.64-.07-.63.93,0,1,1.16.13,2.42-.36,3.06-1.37s.35-2.34-.56-3.08-2.14-.51-2.84.4c-.77,1-.81,2.36-.81,3.56,0,1.86.23,3.71.65,5.52.15.63,1.11.36.96-.27h0Z"/>
        <path class="cls-2" d="M141.17,38.96l-.68,4.02-.34,2.01c-.05.32-.11.64-.16.97-.04.26-.09.52,0,.77.23.66.9.46,1.4.3.64-.21,1.29-.41,1.93-.62s1.29-.41,1.93-.62c.48-.16,1.18-.26,1.43-.77s-.22-1.1-.78-.88-.56.89,0,1.11c.6.23.86-.73.27-.96l-.05-.02.3.23-.02-.03.05.39c-.11.29-.24.27-.39-.05-.07-.24-.17-.32-.29-.22-.11,0-.25.08-.35.12l-.71.23c-.52.17-1.05.34-1.57.5s-1.05.34-1.57.5c-.07.02-.86.23-.86.27l.24.22s0-.1.01-.15c.05-.13.05-.29.07-.43.38-2.21.75-4.42,1.13-6.63.11-.63-.86-.9-.96-.27h0Z"/>
        <path class="cls-2" d="M141.32,41.39l3.16.57c.26.05.55-.07.62-.35.06-.24-.07-.57-.35-.62l-3.16-.57c-.26-.05-.55.07-.62.35-.06.24.07.57.35.62h0Z"/>
        <path class="cls-2" d="M141.95,38.97c1.41-.55,3.01-.5,4.36.2.57.29,1.08-.57.5-.86-1.58-.81-3.47-.94-5.13-.3-.25.1-.43.34-.35.62.07.24.36.45.62.35h0Z"/>
        <path class="cls-2" d="M152.71,40.77c1.61-.35,3.28-.2,4.81.4.25.1.55-.11.62-.35.08-.28-.1-.52-.35-.62-1.7-.67-3.57-.79-5.34-.4-.63.14-.36,1.1.27.96h0Z"/>
        <path class="cls-2" d="M152.56,44.04l4.4-.36c.27-.02.5-.21.5-.5,0-.25-.23-.52-.5-.5l-4.4.36c-.27.02-.5.21-.5.5,0,.25.23.52.5.5h0Z"/>
        <path class="cls-2" d="M165.63,46.29c.16-3.3.51-6.58,1.07-9.84l-.91.12c2.09,2.72,1.24,6.57,3.21,9.37.25.36.77.3.91-.12.6-1.78,1.12-3.58,1.56-5.41.21-.9.41-1.8.58-2.7.08-.43.16-.87.24-1.3.04-.22.07-.44.11-.65.02-.15.05-.29.07-.44.08-.21.08-.27-.02-.18l-.39-.05.07.04-.23-.3.04-.15.43-.25h-.07c-.64.05-.64,1.05,0,1.01.98-.07.65-1.55-.23-1.25-.52.18-.55.73-.62,1.19-.11.69-.23,1.38-.36,2.07-.53,2.75-1.25,5.46-2.15,8.11l.91-.12c-1.96-2.79-1.1-6.63-3.21-9.37-.23-.3-.83-.36-.91.12-.57,3.34-.94,6.72-1.1,10.1-.03.64.97.64,1,0h0Z"/>
        <path class="cls-2" d="M174.34,36.85c-.34,2.61-1,5.18-1.94,7.65-.2.53.49.75.84.49,1.71-1.33,3.85-2.04,6.01-2.04.64,0,.64-1,0-1-2.45,0-4.79.83-6.72,2.33l.84.49c.97-2.55,1.62-5.2,1.98-7.91.04-.27-.25-.5-.5-.5-.3,0-.47.23-.5.5h0Z"/>
        <path class="cls-2" d="M174.13,39.84c1.24-.62,2.69-.72,4.01-.33.62.18.88-.78.27-.96-1.59-.47-3.3-.3-4.78.43-.24.12-.31.46-.18.68.14.25.44.3.68.18h0Z"/>
        <path class="cls-2" d="M175.25,36.27c1.32-.44,2.77-.32,3.98.35.56.31,1.07-.55.5-.86-1.44-.79-3.19-.97-4.75-.45-.26.09-.42.34-.35.62.07.25.36.43.62.35h0Z"/>
        <path class="cls-2" d="M183.28,35.32c-1.04.94-1.68,2.2-2.12,3.52s-.82,2.81-.54,4.21c.23,1.15,1.03,2.08,2.21,2.29,1.03.18,2.12-.22,2.44-1.29.46-1.51-1.03-2.77-2.14-3.5l-.39.91c1.28.19,2.56.23,3.85.07.63-.08.64-1.08,0-1-1.19.15-2.39.14-3.58-.04-.54-.08-.89.59-.39.91.65.42,2.51,1.84,1.44,2.74-.66.56-1.8.1-2.19-.57-.69-1.19-.26-2.74.09-3.96.39-1.34.97-2.64,2.02-3.6.48-.43-.23-1.14-.71-.71h0Z"/>
        <path class="cls-2" d="M188.79,43.04c.14-2.19.52-4.35,1.13-6.45l-.84.22c1.42,1.78,2.33,3.97,2.6,6.22.03.27.21.5.5.5.25,0,.53-.23.5-.5-.3-2.55-1.29-4.92-2.89-6.93-.24-.31-.74-.11-.84.22-.63,2.19-1.02,4.44-1.16,6.72-.04.64.96.64,1,0h0Z"/>
        <path class="cls-2" d="M188.29,39.8c.89.35,1.87.42,2.8.24.26-.05.43-.37.35-.62-.09-.27-.34-.4-.62-.35-.06.01-.12.02-.18.03-.15.02.1,0-.05,0-.11.01-.21.02-.32.02-.2,0-.41,0-.61-.02-.02,0-.18-.02-.07,0-.04,0-.09-.01-.13-.02-.1-.02-.21-.04-.31-.06-.21-.05-.41-.12-.6-.19-.24-.1-.56.11-.62.35-.07.29.09.51.35.62h0Z"/>
        <path class="cls-2" d="M192.78,37.49c1.38-.74,2.91-1.15,4.47-1.2.64-.02.64-1.02,0-1-1.74.05-3.44.51-4.97,1.34-.57.31-.06,1.17.5.86h0Z"/>
        <path class="cls-2" d="M194.89,35.67l-.74,5.44c-.1.71-.37,1.57-.14,2.27.19.58.71,1.04,1.32.69.56-.32.05-1.18-.5-.86.39-.23.19.24.16-.07,0-.09-.05-.17-.06-.26-.02-.27.06-.55.09-.81l.28-2.07.56-4.06c.04-.27-.07-.53-.35-.62-.23-.07-.58.08-.62.35h0Z"/>
        <path class="cls-2" d="M198.39,44.75c.44-2.59.65-5.22.63-7.85,0-.64-1.01-.64-1,0,.02,2.54-.17,5.08-.59,7.58-.11.63.86.9.96.27h0Z"/>
        <path class="cls-2" d="M199.57,38.75c.42,2.05.97,4.07,1.65,6.06.16.48.8.47.96,0,.97-2.76,1.95-5.51,2.92-8.27.21-.61-.75-.87-.96-.27-.97,2.76-1.95,5.51-2.92,8.27h.96c-.67-1.98-1.23-4-1.65-6.06-.13-.63-1.09-.36-.96.27h0Z"/>
        <path class="cls-2" d="M206.55,37.11l-.51,7.68c-.02.31.34.59.63.48,1.62-.59,3.24-1.17,4.86-1.76.6-.22.34-1.18-.27-.96-1.62.59-3.24,1.17-4.86,1.76l.63.48.51-7.68c.04-.64-.96-.64-1,0h0Z"/>
        <path class="cls-2" d="M206.2,41.03c1.79-.5,3.7-.51,5.49-.03.62.17.89-.8.27-.96-1.97-.53-4.06-.52-6.02.03-.62.17-.36,1.14.27.96h0Z"/>
        <path class="cls-2" d="M207.06,36.51c1.45-.77,3.81-.36,4.6,1.15.3.57,1.16.07.86-.5-1.06-2.02-4.07-2.52-5.97-1.51-.57.3-.06,1.17.5.86h0Z"/>
        <path class="cls-2" d="M123.3,35.19c-1.03,3.89-2.06,7.77-3.09,11.66-.12.45.35.74.73.56,2.08-.95,4.53-.95,6.61.01.58.27,1.09-.59.5-.86-2.43-1.12-5.18-1.12-7.62-.01l.73.56c1.03-3.89,2.06-7.77,3.09-11.66.17-.62-.8-.89-.96-.27h0Z"/>
      </g>
      <g>
        <path class="cls-2" d="M171.24,95.13c-1.5.94-2.86,2.1-3.98,3.48-.54.66-1.03,1.37-1.46,2.11s-.74,1.49-.27,2.27c.83,1.4,2.65,1.59,4.09,1.86s3.44,1.11,2.57,2.88c-.43.89-1.34,1.36-2.3,1.41-.56.03-1.11-.05-1.65-.2-.12-.03-1.44-.54-1.41-.58.39-.5-.31-1.21-.71-.71-1.33,1.7,2.35,2.45,3.35,2.49,1.75.07,3.59-.95,3.88-2.81s-1.33-2.93-2.89-3.33c-.87-.22-1.78-.28-2.64-.56-.45-.15-.9-.36-1.23-.71-.51-.55-.21-1.05.11-1.61,1.22-2.1,2.96-3.86,5.02-5.14.55-.34.04-1.2-.5-.86h0Z"/>
        <path class="cls-2" d="M181.93,106.17c.15-1.43.51-2.86,1.12-4.17.28-.61.6-1.26,1.09-1.72.14-.14.37-.34.59-.3.25.04.39.39.48.59.46,1.15.61,2.55.47,3.78-.1.9-.43,2.15-1.4,2.49s-1.67-.32-1.82-1.21c-.11-.63-1.07-.36-.96.27.21,1.2,1.23,2.12,2.48,2.02,1.43-.12,2.24-1.36,2.55-2.65.37-1.55.21-3.35-.32-4.85-.25-.71-.73-1.47-1.58-1.43s-1.44.78-1.84,1.41c-1.09,1.72-1.65,3.78-1.85,5.79-.03.27.25.5.5.5.29,0,.47-.23.5-.5h0Z"/>
        <path class="cls-2" d="M190.64,107.8c-.35-1.53-.56-3.08-.6-4.65-.03-1.08-.13-2.51.58-3.42s1.85-.21,1.92.78c.09,1.21-1.4,1.72-2.36,1.61-.64-.07-.63.93,0,1,1.14.12,2.39-.36,3.02-1.36s.34-2.32-.56-3.04-2.12-.5-2.8.39c-.76.99-.8,2.33-.79,3.51,0,1.83.23,3.66.64,5.44.15.63,1.11.36.96-.27h0Z"/>
        <path class="cls-2" d="M195.17,101.32c-.22,1.32-.45,2.64-.67,3.96-.11.64-.22,1.27-.32,1.91-.09.53-.34,1.22-.19,1.75.2.7.9.5,1.4.34l1.83-.59,1.83-.59c.31-.1.68-.17.96-.32.21-.12.36-.31.51-.49.42-.48-.28-1.19-.71-.71-.16.19-.24.31-.47.37s-.47.15-.7.23l-1.55.5-1.55.5c-.07.02-.84.23-.84.27l.24.23s0-.1.01-.14c.05-.13.05-.29.07-.42.37-2.18.74-4.35,1.11-6.53.11-.63-.86-.9-.96-.27h0Z"/>
        <path class="cls-2" d="M195.31,103.73l3.11.56c.26.05.55-.07.62-.35.06-.24-.07-.57-.35-.62l-3.11-.56c-.26-.05-.55.07-.62.35-.06.24.07.57.35.62h0Z"/>
        <path class="cls-2" d="M195.96,101.36c1.39-.54,2.96-.49,4.29.19.24.12.54.06.68-.18.13-.22.06-.56-.18-.68-1.56-.8-3.42-.93-5.06-.29-.25.1-.43.34-.35.62.07.24.36.45.62.35h0Z"/>
        <path class="cls-2" d="M206.54,103.12c1.58-.35,3.23-.2,4.73.39.25.1.55-.11.62-.35.08-.28-.1-.52-.35-.62-1.67-.66-3.51-.78-5.27-.39-.63.14-.36,1.1.27.96h0Z"/>
        <path class="cls-2" d="M206.39,106.34l4.34-.35c.27-.02.5-.21.5-.5,0-.25-.23-.52-.5-.5l-4.34.35c-.27.02-.5.21-.5.5,0,.25.23.52.5.5h0Z"/>
        <path class="cls-2" d="M219.27,108.55c.16-3.25.5-6.48,1.05-9.69l-.91.12c2.06,2.67,1.22,6.47,3.16,9.23.25.36.77.3.91-.12.59-1.75,1.11-3.53,1.54-5.33.21-.88.4-1.77.58-2.66.08-.43.16-.86.23-1.28.04-.21.07-.43.11-.64.02-.14.05-.29.07-.43.08-.21.08-.27-.02-.18l-.39-.05.07.04-.23-.3.04-.15.43-.25h-.07c-.64.05-.64,1.05,0,1.01.98-.07.65-1.55-.23-1.24-.51.18-.55.72-.62,1.18-.11.68-.23,1.36-.36,2.04-.52,2.71-1.23,5.38-2.11,7.99l.91-.12c-1.93-2.75-1.08-6.53-3.16-9.23-.23-.3-.83-.36-.91.12-.56,3.29-.93,6.62-1.09,9.95-.03.64.97.64,1,0h0Z"/>
        <path class="cls-2" d="M227.83,99.26c-.33,2.57-.99,5.1-1.91,7.53-.2.53.49.75.84.49,1.68-1.31,3.79-2,5.91-2,.64,0,.64-1,0-1-2.41,0-4.72.82-6.62,2.3l.84.49c.96-2.52,1.6-5.13,1.95-7.79.04-.27-.25-.5-.5-.5-.3,0-.47.23-.5.5h0Z"/>
        <path class="cls-2" d="M227.64,102.2c1.22-.61,2.64-.71,3.94-.33.62.18.88-.78.27-.96-1.57-.46-3.26-.3-4.71.43-.24.12-.31.46-.18.68.14.25.44.3.68.18h0Z"/>
        <path class="cls-2" d="M228.74,98.69c1.29-.43,2.72-.32,3.92.34.56.31,1.07-.55.5-.86-1.42-.78-3.14-.96-4.69-.44-.26.09-.42.34-.35.62.07.25.36.43.62.35h0Z"/>
        <path class="cls-2" d="M236.64,97.74c-1.02.93-1.66,2.17-2.09,3.47s-.81,2.77-.54,4.15c.23,1.13,1.02,2.05,2.18,2.26,1.02.18,2.09-.22,2.41-1.27.45-1.49-1.02-2.74-2.12-3.45l-.39.91c1.26.19,2.52.23,3.79.07.63-.08.64-1.08,0-1-1.17.14-2.36.14-3.52-.03-.54-.08-.89.59-.39.91.64.41,2.47,1.81,1.42,2.69-.64.54-1.77.09-2.14-.56-.68-1.17-.26-2.69.09-3.9.38-1.32.95-2.6,1.99-3.54.48-.43-.23-1.14-.71-.71h0Z"/>
        <path class="cls-2" d="M242.08,105.35c.14-2.15.51-4.28,1.11-6.35l-.84.22c1.39,1.75,2.29,3.9,2.56,6.13.03.27.21.5.5.5.25,0,.53-.23.5-.5-.3-2.51-1.28-4.85-2.85-6.83-.24-.31-.74-.11-.84.22-.62,2.16-1,4.38-1.15,6.62-.04.64.96.64,1,0h0Z"/>
        <path class="cls-2" d="M241.58,102.16c.88.35,1.84.41,2.76.23.26-.05.43-.37.35-.62-.09-.27-.34-.4-.62-.35-.06.01-.12.02-.18.03-.15.02.1,0-.04,0-.1.01-.21.02-.31.02-.2,0-.4,0-.6-.02-.02,0-.18-.02-.07,0-.04,0-.09-.01-.13-.02-.1-.02-.2-.04-.31-.06-.2-.05-.4-.11-.59-.19-.24-.1-.56.11-.62.35-.07.29.09.51.35.62h0Z"/>
        <path class="cls-2" d="M246.01,99.89c1.35-.73,2.86-1.14,4.4-1.18.64-.02.64-1.02,0-1-1.72.05-3.39.5-4.9,1.32-.57.31-.06,1.17.5.86h0Z"/>
        <path class="cls-2" d="M248.07,98.09l-.73,5.36c-.1.7-.36,1.55-.14,2.24.19.57.71,1.03,1.31.68.56-.32.05-1.18-.5-.86.22.09.3.1.22.03-.02-.03-.04-.06-.05-.1,0-.09-.05-.17-.06-.26-.02-.26.06-.54.09-.8l.28-2.04.55-4c.04-.27-.07-.53-.35-.62-.23-.07-.58.08-.62.35h0Z"/>
        <path class="cls-2" d="M251.54,107.04c.44-2.56.64-5.14.62-7.73,0-.64-1.01-.64-1,0,.02,2.5-.16,5-.58,7.47-.11.63.86.9.96.27h0Z"/>
        <path class="cls-2" d="M252.68,101.13c.42,2.02.96,4.01,1.62,5.96.16.48.8.47.96,0,.96-2.72,1.92-5.43,2.88-8.15.21-.61-.75-.87-.96-.27-.96,2.72-1.92,5.43-2.88,8.15h.96c-.66-1.95-1.21-3.94-1.62-5.96-.13-.63-1.09-.36-.96.27h0Z"/>
        <path class="cls-2" d="M259.56,99.51c-.17,2.52-.34,5.04-.5,7.56-.02.31.34.59.63.48,1.6-.58,3.19-1.15,4.79-1.73.6-.22.34-1.18-.27-.96-1.6.58-3.19,1.15-4.79,1.73l.63.48c.17-2.52.34-5.04.5-7.56.04-.64-.96-.64-1,0h0Z"/>
        <path class="cls-2" d="M260.34,103.36c1.01-.47,2.18-.49,3.2-.03.25.11.54.07.68-.18.12-.21.07-.57-.18-.68-.67-.3-1.37-.47-2.11-.46s-1.44.19-2.1.5c-.25.11-.31.47-.18.68.15.25.44.29.68.18h0Z"/>
        <path class="cls-2" d="M260.08,99.93c1.43-.76,3.75-.35,4.52,1.13.3.57,1.16.07.86-.5-1.04-1.99-4.02-2.49-5.89-1.49-.57.3-.06,1.17.5.86h0Z"/>
        <path class="cls-2" d="M177.57,97.61c-1.01,3.83-2.03,7.66-3.04,11.48-.12.45.35.74.73.56,2.05-.93,4.46-.93,6.5.01.58.27,1.09-.59.5-.86-2.4-1.1-5.11-1.11-7.51-.01l.73.56c1.01-3.83,2.03-7.66,3.04-11.48.17-.62-.8-.89-.96-.27h0Z"/>
      </g>
      <g>
        <path class="cls-2" d="M214.87,173.65c-1.56.26-3.02.99-4.19,2.06-1.08.99-2.27,2.59-2.34,4.11s1.56,2.27,2.91,2.34c.88.04,1.99-.15,2.72.45.54.44.63,1.21.48,1.86-.52,2.12-3.11,2.08-4.76,1.48-.61-.22-.87.74-.27.96,1.55.57,3.43.66,4.81-.38,1.06-.8,1.56-2.32,1.13-3.59-.61-1.77-2.45-1.73-4.01-1.78-.68-.02-1.76-.2-1.98-.98s.53-1.95.98-2.59c1.12-1.6,2.87-2.66,4.79-2.97.63-.1.36-1.07-.27-.96h0Z"/>
        <path class="cls-2" d="M217.99,176.58c-.51,2.75-1.04,5.49-1.54,8.24-.09.47-.15.98.22,1.36.35.35.86.34,1.31.27,1.23-.2,2.43-.68,3.5-1.32.55-.33.05-1.2-.5-.86-.86.52-1.79.9-2.77,1.12-.19.04-.45.13-.65.11-.23-.03-.19-.1-.16-.31.08-.58.21-1.15.32-1.72l1.23-6.61c.12-.63-.85-.9-.96-.27h0Z"/>
        <path class="cls-2" d="M222.25,184.6c.22-1.28.69-2.5,1.41-3.58.5-.74,1.42-1.93,2.34-1.05.73.7.87,1.85.7,2.81-.18,1-.71,2.03-1.68,2.46-.88.39-2.12.26-2.71-.57-.37-.52-1.23-.02-.86.5.75,1.08,2.1,1.46,3.35,1.19,1.36-.3,2.32-1.44,2.72-2.73s.33-2.84-.47-3.95c-.4-.55-.96-.97-1.65-1.02-.73-.05-1.37.36-1.85.88-1.21,1.3-1.98,3.06-2.27,4.8-.04.27.07.54.35.62.24.07.57-.08.62-.35h0Z"/>
        <path class="cls-2" d="M229.4,186.46c-.33-1.42-.56-2.86-.66-4.31-.05-.68-.08-1.37-.07-2.05,0-.61.02-1.28.34-1.81.23-.37.76-.75,1.21-.56.52.21.69,1.05.75,1.54.13,1-.46,2.47-1.71,2.09-.62-.18-.88.78-.27.96,1.13.34,2.31-.36,2.75-1.41s.28-2.65-.47-3.59c-.79-.98-2.22-.72-2.95.19-.85,1.06-.7,2.66-.64,3.92.08,1.78.34,3.55.74,5.29.15.63,1.11.36.96-.27h0Z"/>
        <path class="cls-2" d="M233.12,178.47l-1.25,7.4c-.06.34.22.76.62.62.69-.25,1.38-.51,2.06-.76.37-.13.73-.27,1.1-.4.29-.11.62-.19.89-.36.46-.3.59-1.09-.05-1.26-.48-.13-1.12.38-.74.87.16.22.43.32.68.18.21-.12.34-.47.18-.68l.04.18-.15.35c-.15-.44-.34-.58-.57-.44l-.28.1-.41.15c-.34.13-.69.25-1.03.38-.66.24-1.33.49-1.99.73l.62.62,1.25-7.4c.11-.63-.86-.9-.96-.27h0Z"/>
        <path class="cls-2" d="M233.47,181.87c.22-.06.44-.11.67-.15.07-.01.14-.02.21-.03-.08.01.07,0,.08,0,.11-.01.23-.02.34-.03.47-.03.93-.01,1.4.05.26.03.51-.25.5-.5-.01-.3-.22-.46-.5-.5-.99-.13-2-.05-2.96.21-.25.07-.43.36-.35.62s.34.42.62.35h0Z"/>
        <path class="cls-2" d="M233.83,178.31c.95-.55,2.09-.78,3.15-.62.27.04.54-.07.62-.35.06-.24-.08-.57-.35-.62-1.35-.2-2.73.03-3.92.73-.23.14-.32.45-.18.68s.45.32.68.18h0Z"/>
        <path class="cls-2" d="M240.69,180.26c1.16-.72,2.59-.88,3.88-.44.26.09.55-.1.62-.35.08-.27-.09-.53-.35-.62-1.53-.52-3.28-.31-4.65.54-.55.34-.04,1.2.5.86h0Z"/>
        <path class="cls-2" d="M239.93,183.57c1.65-.1,3.28-.38,4.87-.86.61-.18.35-1.15-.27-.96-1.5.45-3.04.73-4.6.82-.27.02-.5.22-.5.5,0,.26.23.52.5.5h0Z"/>
        <path class="cls-2" d="M250.06,175.5c-1.12,1.8-1.8,3.84-1.99,5.96-.14,1.57-.13,3.89,1.64,4.59,1.94.76,3.45-1.08,4.09-2.65.73-1.79,1.3-4.13.2-5.9-.89-1.44-3.01-2.34-4.5-1.25-.51.38-.02,1.24.5.86,1.01-.74,2.4-.17,3.06.78.92,1.32.51,3.16.02,4.56-.25.72-.55,1.47-1.07,2.04-.48.52-1.28.91-1.98.61-1.27-.54-1.06-2.64-.96-3.73.18-1.9.84-3.74,1.84-5.37.34-.55-.52-1.05-.86-.5h0Z"/>
      </g>
      <g>
        <path class="cls-2" d="M15.59,53.84c.62-1.05,1.3-2.07,2.02-3.05.29-.39.6-.97,1.04-1.21.47-.25.82.14,1.09.48.64.79,1.26,1.59,1.9,2.39.39.49.89,1.11,1.2,1.52.38.51,1.25.01.86-.5-.47-.63-.98-1.25-1.47-1.87-.37-.47-.74-.94-1.11-1.41-.35-.44-.68-.96-1.11-1.31s-1.03-.5-1.58-.3-.9.67-1.25,1.13c-.88,1.15-1.7,2.36-2.44,3.61-.33.55.53,1.06.86.5h0Z"/>
        <path class="cls-2" d="M18.62,49.41c-.69,4.39-1.16,8.81-1.41,13.24-.04.64.96.64,1,0,.25-4.35.7-8.68,1.38-12.98.1-.63-.86-.9-.96-.27h0Z"/>
      </g>
      <g>
        <path class="cls-2" d="M96.7,47.11c-.98,3.64-1.52,7.39-1.61,11.16,0,.44.55.66.85.35,2.2-2.22,4.92-3.84,7.94-4.69.62-.17.36-1.14-.27-.96-3.17.89-6.06,2.61-8.38,4.95l.85.35c.08-3.69.61-7.34,1.57-10.9.17-.62-.8-.89-.96-.27h0Z"/>
        <path class="cls-2" d="M96.55,56.96c3.49-4.47,7.81-8.24,12.75-11.05.56-.32.06-1.18-.5-.86-5,2.84-9.41,6.67-12.95,11.2-.39.5.31,1.21.71.71h0Z"/>
      </g>
      <g>
        <path class="cls-2" d="M124.3,81.67c-.96,3.03-1.29,6.23-.96,9.39.04.4.53.69.85.35,1.53-1.6,3.44-2.75,5.56-3.35.62-.17.36-1.14-.27-.96-2.29.64-4.36,1.89-6.01,3.61l.85.35c-.33-3.08-.02-6.17.92-9.12.2-.61-.77-.88-.96-.27h0Z"/>
        <path class="cls-2" d="M124.71,90.24c3.42-5.24,7.94-9.7,13.22-13.07.54-.35.04-1.21-.5-.86-5.42,3.46-10.06,8.04-13.58,13.43-.35.54.51,1.04.86.5h0Z"/>
      </g>
      <g>
        <path class="cls-2" d="M153.6,114.85l-.67,9.58c-.03.48.55.59.85.35,1.97-1.53,4.31-2.52,6.77-2.93.63-.1.36-1.07-.27-.96-2.64.44-5.1,1.54-7.21,3.19l.85.35.67-9.58c.05-.64-.96-.64-1,0h0Z"/>
        <path class="cls-2" d="M154.69,123.04c3.08-3.91,6.17-7.83,9.25-11.74.39-.5-.31-1.21-.71-.71-3.08,3.91-6.17,7.83-9.25,11.74-.39.5.31,1.21.71.71h0Z"/>
      </g>
      <g>
        <path class="cls-2" d="M233.42,164.94c.62-1.8,1.37-3.55,2.28-5.23.44-.82.93-1.63,1.44-2.41.22-.33.45-.67.68-.99.18-.24.54-.87.92-.75.54.16.79,1.22.91,1.67.25.9.38,1.84.56,2.75.19,1.01.39,2.02.58,3.02.14.75.15,1.85.67,2.46.47.55,1.3.28,1.27-.47-.02-.6-.82-1.21-1.16-.46-.26.58.6,1.09.86.5h-.02c-.12.05-.24.1-.35.15h.03c-.12-.05-.24-.1-.35-.14-.01,0-.18.11.23-.11.49-.26.18-.02.18-.24,0-.07-.06-.21-.08-.27-.1-.43-.17-.87-.25-1.3-.17-.91-.35-1.82-.52-2.73-.3-1.54-.43-3.27-1.16-4.69-.24-.47-.6-.95-1.12-1.11-.63-.19-1.21.15-1.61.62-1.06,1.23-1.9,2.72-2.66,4.14-.91,1.7-1.66,3.49-2.29,5.31-.21.61.76.87.96.27h0Z"/>
        <path class="cls-2" d="M237.62,155.86c-1.26,5.66-2.12,11.4-2.59,17.17-.05.64.95.64,1,0,.46-5.69,1.31-11.34,2.55-16.91.14-.63-.82-.89-.96-.27h0Z"/>
      </g>
    </g>
  </g>
</svg>