<?xml version="1.0" encoding="UTF-8"?>
<svg id="Layer_2" data-name="Layer 2" xmlns="http://www.w3.org/2000/svg" viewBox="0 0 265.1 173.81">
  <defs>
    <style>
      .cls-1 {
        fill: #ed1c24;
      }

      .cls-1, .cls-2 {
        stroke-width: 0px;
      }

      .cls-2 {
        fill: #231f20;
      }
    </style>
  </defs>
  <g id="Layer_1-2" data-name="Layer 1">
    <path class="cls-1" d="M3.17,45.37c2.06.03,4.12.06,6.17.04.86,0,1.92.11,2.51-.65,1.08-1.4-.38-2.35-1.59-2.48-.17-.02-.34-.03-.51-.04-.32-.02-.33-.12.09.02l.9.69h0c-.3.73-.6,1.47-.9,2.2-.51.2-.44.01-.17.05.23.03.48.01.71.02,1.11.03,2.23.07,3.34.1,5.38.17,10.76.37,16.14.51,8.26.22,16.71-.08,24.92,1.02,6.64.89,12.38,3.78,18.41,6.53,2.17.99,4.5,1.86,6.5,3.17.82.53.98.7,1.8,1.4,1.19,1.01,2.36,2.05,3.55,3.06,3.86,3.29,7.78,6.45,11.32,10.08s6.84,7.56,9.93,11.62c6.03,7.93,11.38,16.35,17.23,24.42,5.82,8.04,12.17,15.78,19.89,22.08,8.95,7.31,19.48,12.3,30.42,15.86,25.57,8.33,52.87,8.64,79.48,8.06,3.44-.07,6.88-.16,10.32-.25,1.93-.05,1.93-3.05,0-3-27.16.71-54.86,1.48-81.36-5.46-11.55-3.03-23.02-7.45-32.83-14.36-8.17-5.76-14.95-13.25-20.94-21.2s-11.46-16.56-17.41-24.69c-6.04-8.26-12.67-15.94-20.58-22.46-4.07-3.35-7.72-7.2-12.55-9.42-6.24-2.88-12.48-6.32-19.26-7.77s-14.34-1.35-21.46-1.5c-9.04-.19-18.06-.57-27.1-.79-.33,0-.8-.07-1.11.05-.92.36-1.38,1.28-.9,2.2.37.71,1.09.72,1.76.79.14.01.29.03.44.04.32.02-.25-.05-.2-.03.45.21-1.17-1.04-.54-.36l-.44-1.06h0c.15-.35.29-.7.44-1.06-2.14,2.19.96-.55.61-.37.6-.3.42-.01.28-.04-.09-.02-.21.01-.3.01-.41,0-.82.01-1.24.02-1.93,0-3.86-.02-5.79-.04s-1.93,2.98,0,3h0Z"/>
    <g>
      <g>
        <path class="cls-1" d="M34.87,40.18c6.83.35,13.67.69,20.41,1.79,1.85.3,3.73.66,5.58.36s3.7-1.4,4.3-3.18c-4.72,2.57-10.48,1.71-15.82,1.05-5.21-.64-10.44-1.03-15.69-1.15.18.7.76,1.27,1.46,1.44"/>
        <path class="cls-1" d="M34.87,40.31c4.55.23,9.1.46,13.64.92,2.33.23,4.66.53,6.97.91,1.95.32,3.99.7,5.95.22,1.69-.41,3.24-1.49,3.85-3.16.04-.11-.09-.19-.18-.14-3.53,1.88-7.6,1.89-11.48,1.53-4.16-.39-8.3-1-12.47-1.29-2.49-.18-4.99-.29-7.49-.35-.08,0-.14.08-.12.16.23.76.78,1.3,1.55,1.53.15.04.22-.2.07-.24-.68-.2-1.16-.67-1.37-1.35l-.12.16c4.55.11,9.09.41,13.61.91,3.98.44,8,1.19,12.01.85,2.08-.18,4.1-.69,5.95-1.67l-.18-.14c-.62,1.71-2.31,2.74-4.03,3.06-2.13.4-4.31-.12-6.42-.45-4.15-.64-8.34-1.02-12.53-1.29-2.4-.15-4.79-.28-7.19-.4-.16,0-.16.24,0,.25h0Z"/>
      </g>
      <g>
        <path class="cls-1" d="M33.97,37.87c6.83.35,13.67.69,20.41,1.79,1.85.3,3.73.66,5.58.36s3.7-1.4,4.3-3.18c-4.72,2.57-10.48,1.71-15.82,1.05-5.21-.64-10.44-1.03-15.69-1.15.18.7.76,1.27,1.46,1.44"/>
        <path class="cls-1" d="M33.97,37.99c4.55.23,9.1.46,13.64.92,2.33.23,4.66.53,6.97.91,1.95.32,3.99.7,5.95.22,1.69-.41,3.24-1.49,3.85-3.16.04-.11-.09-.19-.18-.14-3.53,1.88-7.6,1.89-11.48,1.53-4.16-.39-8.3-1-12.47-1.29-2.49-.18-4.99-.29-7.49-.35-.08,0-.14.08-.12.16.23.76.78,1.3,1.55,1.53.15.04.22-.2.07-.24-.68-.2-1.16-.67-1.37-1.35l-.12.16c4.55.11,9.09.41,13.61.91,3.98.44,8,1.19,12.01.85,2.08-.18,4.1-.69,5.95-1.67l-.18-.14c-.62,1.71-2.31,2.74-4.03,3.06-2.13.4-4.31-.12-6.42-.45-4.15-.64-8.34-1.02-12.53-1.29-2.4-.15-4.79-.28-7.19-.4-.16,0-.16.24,0,.25h0Z"/>
      </g>
      <path class="cls-2" d="M50.03,25.33c-.39.08-.58.36-.72.71-.26.64-.43,1.35-.62,2.02-.39,1.39-.74,2.8-1.12,4.2-.76,2.83-1.64,5.64-3.18,8.15-.06.09.04.21.14.18,2.2-.6,4.68-1.22,6.73.16.13.09.26-.13.13-.22-2.1-1.41-4.66-.81-6.93-.18l.14.18c1.36-2.21,2.22-4.67,2.92-7.16.35-1.25.67-2.52,1-3.78.18-.66.36-1.33.55-1.99.16-.55.34-1.9,1.02-2.04.16-.03.09-.27-.07-.24h0Z"/>
      <path class="cls-2" d="M50.62,25.63v-.02c-.02-.14-.24-.1-.24.03-.16,3.41-.48,6.81-.96,10.19-.11.8-.71,2.31.5,2.43.84.08,1.67.09,2.51.23.79.13,1.57.32,2.34.56.15.05.22-.19.07-.24-1.25-.39-2.54-.64-3.84-.74-.31-.02-.69.02-.99-.05-.8-.17-.52-.85-.44-1.39.1-.7.2-1.39.29-2.09.38-2.95.64-5.92.78-8.89l-.25.03c.04.25.32.27.45.08.09-.13-.12-.26-.22-.13h0Z"/>
      <path class="cls-2" d="M51.98,7.67c-2.01.93-3.8,2.43-4.87,4.39-.45.82-1.02,1.98-.81,2.94.19.83.98,1.23,1.75,1.35,2,.33,4.17-.67,5.72-1.86s2.86-2.92,3.17-4.9c.16-1-.04-2.14-.98-2.69-.75-.44-1.87-.51-2.51.16-.11.12.06.29.18.18.65-.67,1.89-.49,2.52.12.74.72.66,1.87.4,2.79-.47,1.71-1.63,3.17-3.04,4.22s-3.21,1.87-4.98,1.78c-.92-.05-2.02-.42-2.04-1.52-.01-.9.48-1.88.92-2.64,1.07-1.84,2.76-3.22,4.67-4.11.15-.07.02-.28-.13-.22h0Z"/>
      <path class="cls-2" d="M51.85,16.02c-.65,3.36-1.26,6.72-1.83,10.09-.03.16.21.22.24.07.57-3.37,1.19-6.73,1.83-10.09.03-.16-.21-.22-.24-.07h0Z"/>
      <path class="cls-2" d="M51.27,18.02c-1.6,1.64-3.09,3.38-4.49,5.2-.06.08.02.18.11.19,1.09.06,2.16-.05,3.22-.31s2.09-.54,3.05.04l-.03-.2v-.08c.06-.16-.19-.22-.23-.07-.07.24.19.56.4.32.05-.06.05-.15-.03-.2-.88-.53-1.87-.39-2.82-.17-1.19.28-2.35.48-3.58.4l.11.19c1.38-1.8,2.87-3.52,4.45-5.15.11-.12-.06-.29-.18-.18h0Z"/>
      <path class="cls-2" d="M52.11,18.65c1.91-.9,3.92-1.51,6.01-1.78l-.12-.16c-1.04,6.25-2.21,12.48-3.51,18.68-.03.16.2.22.24.07.05-.2.1-.4.15-.61.04-.16-.2-.22-.24-.07-.05.2-.1.4-.15.61l.24.07c1.3-6.2,2.47-12.43,3.51-18.68.01-.07-.03-.17-.12-.16-2.14.28-4.19.9-6.14,1.82-.15.07-.02.28.13.22h0Z"/>
      <g>
        <path class="cls-2" d="M49.46,7.5c.46-2.44.92-4.88,1.37-7.32,1.82-.03,3.65-.03,5.47-.01.36,0,.8.04.96.3.1.17.04.37-.03.56-.94,2.53-1.88,5.07-2.82,7.6"/>
        <path class="cls-2" d="M49.58,7.53c.46-2.44.92-4.88,1.37-7.32l-.12.09c1.22-.02,2.43-.03,3.65-.02.61,0,1.22,0,1.82.01.28,0,.86,0,.88.39.02.26-.2.63-.28.86-.87,2.35-1.74,4.7-2.61,7.05-.06.15.19.22.24.07.5-1.35,1-2.69,1.5-4.04.24-.66.49-1.32.73-1.98.13-.34.25-.69.38-1.03.1-.26.24-.54.28-.81.15-1.04-1.73-.76-2.28-.77-1.44,0-2.87,0-4.31.02-.05,0-.11.04-.12.09-.46,2.44-.92,4.88-1.37,7.32-.03.16.21.22.24.07h0Z"/>
      </g>
      <path class="cls-2" d="M54.85,35.07c-.48-.14-1.04-.09-1.49.15-.19.1-.4.27-.42.5-.02.26.24.38.45.45.51.17,1.07.19,1.59.08.32-.07,1.19-.31.99-.79-.1-.24-.41-.35-.65-.38-.36-.04-.71.05-1.05.14-.15.04-.09.28.07.24.4-.11.95-.28,1.32,0,.2.15.01.27-.15.36-.17.09-.36.15-.54.19-.39.09-.81.09-1.2.01-.16-.03-.43-.07-.54-.2-.13-.15.19-.34.3-.39.38-.19.86-.22,1.26-.1.16.04.22-.2.07-.24h0Z"/>
      <g>
        <path class="cls-2" d="M53.24,23.28c-.64.14-.86,1.22-1.08,1.74-.37.88-.73,1.76-1.09,2.64-.78,1.94-1.52,3.9-2.22,5.88s-1.35,3.92-1.98,5.89c-.18.57-.76,1.66-.43,2.26.17.3.51.35.69.04.08-.14-.13-.26-.22-.13-.25-.24-.32-.49-.23-.74.02-.07.04-.15.06-.22.06-.19.12-.38.18-.57.12-.38.24-.76.36-1.15.23-.72.47-1.44.71-2.16.49-1.47,1-2.93,1.53-4.39s1.05-2.81,1.6-4.21c.29-.73.59-1.46.89-2.18.16-.39.32-.78.49-1.16.14-.34.38-1.21.79-1.3.16-.03.09-.28-.07-.24h0Z"/>
        <path class="cls-2" d="M46.28,41.15c-.24-.16-.49-.32-.78-.34-.22-.01-.46.08-.59.25-.15.19-.14.45,0,.65.16.23.41.33.68.36.29.03.6,0,.89-.04.27-.04.55-.11.76-.29.33-.26.56-.86.18-1.19-.31-.27-.9-.15-.95.3-.02.16.23.16.25,0,.03-.23.39-.23.53-.12.27.21.05.65-.15.81-.32.26-.8.27-1.19.28-.21,0-.44.01-.62-.1-.15-.09-.27-.27-.2-.45.07-.16.27-.23.44-.22.24.02.46.17.65.3.13.09.26-.13.13-.22h0Z"/>
      </g>
      <g>
        <path class="cls-2" d="M50,6.83l4.31-.45c1.29-.13,2.63-.26,3.84.17-.17.94-.34,1.88-.5,2.82-1.21-.59-2.63-.5-3.97-.52-2.1-.04-4.25-.4-6.27.15.08-.81.16-1.63.24-2.44.91-.03,1.82.13,2.67.46"/>
        <path class="cls-2" d="M50,6.96c1.37-.14,2.74-.28,4.11-.43s2.71-.29,4.02.15l-.09-.15c-.17.94-.34,1.88-.5,2.82l.18-.07c-1.52-.7-3.23-.49-4.85-.57-1.84-.09-3.68-.28-5.49.19l.16.12c.08-.81.16-1.63.24-2.44l-.12.12c.91-.02,1.78.13,2.63.46.15.06.22-.18.07-.24-.87-.33-1.77-.49-2.7-.47-.07,0-.12.06-.12.12-.08.81-.16,1.63-.24,2.44,0,.08.09.14.16.12,1.72-.44,3.47-.28,5.22-.19,1.63.08,3.41-.16,4.93.54.07.03.17.01.18-.07.17-.94.34-1.88.5-2.82.01-.07-.02-.13-.09-.15-1.26-.42-2.58-.31-3.88-.18-1.44.15-2.88.3-4.31.45-.16.02-.16.27,0,.25h0Z"/>
      </g>
      <path class="cls-2" d="M50.85,11.29s-.02-.03-.02-.05c0,.02,0,0,0-.01,0-.02,0,.03,0-.01,0-.01,0-.03.02-.05.01-.02.02-.03.04-.04.07-.07.17-.1.26-.09.21.01.42.16.5.36.09.2.02.43-.15.57-.08.06-.18.1-.28.1-.09,0-.16-.04-.22-.1-.07-.07-.11-.15-.13-.25-.01-.08,0-.18.05-.25.04-.05.05-.13,0-.18-.04-.04-.13-.05-.18,0-.19.23-.16.55.02.78.2.25.54.31.81.14s.44-.53.33-.85-.4-.53-.72-.57c-.18-.02-.36.05-.48.17s-.18.31-.07.46c.04.05.11.08.17.04.05-.03.08-.12.04-.17h0Z"/>
      <path class="cls-2" d="M53.33,11.61c0-.2.12-.39.31-.48.17-.09.37-.07.5.05.14.12.22.31.2.5-.02.16-.15.31-.3.36-.19.07-.41.04-.56-.1-.11-.11-.29.06-.18.18.38.38,1.15.22,1.27-.33.06-.26-.02-.53-.2-.73-.19-.21-.49-.28-.76-.18-.3.12-.54.41-.53.74,0,.16.25.16.25,0h0Z"/>
      <path class="cls-2" d="M49.9,13.36c-.26.46-.38.99-.35,1.52,0,.13.16.16.23.06.08-.1.16-.21.23-.31.04-.05,0-.14-.04-.17-.06-.04-.13,0-.17.04-.08.1-.16.21-.23.31l.23.06c-.03-.49.07-.97.31-1.4.08-.14-.14-.27-.22-.13h0Z"/>
      <path class="cls-2" d="M50.05,13.46c.82-.31,1.63-.63,2.45-.93.07-.03.2-.08.28-.04.08.05.07.21.08.29.02.21.03.41.03.62,0,.44-.05.88-.14,1.32l.12-.09c-1.06-.06-2.11-.12-3.17-.16-.16,0-.16.24,0,.25,1.06.05,2.12.1,3.17.16.05,0,.11-.04.12-.09.1-.49.15-.98.15-1.48,0-.24,0-.49-.05-.73-.03-.17-.12-.31-.3-.35-.2-.04-.41.08-.59.14l-.72.27-1.49.57c-.15.06-.08.3.07.24h0Z"/>
    </g>
    <g>
      <g>
        <path class="cls-2" d="M2.44,93.94l-.98-12.77c-.16-2.06-.45-4.15-.46-6.21s2.42-2.03,3.96-2.14c2.4-.17,4.82-.2,7.23-.12.64.02.64-.98,0-1-2.29-.08-4.58-.05-6.86.09-1.53.1-3.69,0-4.77,1.32-.58.7-.58,1.61-.52,2.47.08,1.16.18,2.31.27,3.47l.53,6.94.61,7.93c.05.64,1.05.64,1,0h0Z"/>
        <path class="cls-2" d="M2.92,82.79c2.52-.77,5.12-1.3,7.74-1.54.64-.06.64-1.06,0-1-2.72.25-5.4.78-8.01,1.58-.61.19-.35,1.15.27.96h0Z"/>
        <path class="cls-2" d="M17.34,72.41c-1.88,6.45-3.55,12.96-5.03,19.51-.09.4.24.68.62.62,2.33-.38,4.66-.77,7-1.15.85-.14,1.96-.16,2.56-.86.5-.58.37-1.35-.2-1.79-.51-.39-1.01.48-.5.86.25.2-.46.52-.56.55-.35.1-.72.14-1.07.2-.84.14-1.69.28-2.53.42-1.65.27-3.3.54-4.95.81l.62.62c1.47-6.55,3.15-13.06,5.03-19.51.18-.62-.78-.88-.96-.27h0Z"/>
        <path class="cls-2" d="M24.23,89.68c-1.02-5.88-.13-12.02,2.52-17.36h-.86c1.84,3.48,2.01,7.47,2.44,11.3.1.9.21,1.8.36,2.69.08.49.17.98.28,1.47.08.37.13.81.37,1.12.33.43,1.07.5,1.25-.11.16-.53-.37-1.11-.89-.78s-.04,1.21.5.86l.06-.04h-.5l-.12-.37.3-.23c.17.09.23.08.17-.03-.02-.06-.04-.12-.05-.18-.05-.17-.08-.35-.12-.52-.08-.35-.14-.7-.21-1.05-.13-.73-.23-1.47-.32-2.2-.17-1.46-.3-2.93-.47-4.39-.33-2.79-.85-5.55-2.18-8.06-.17-.32-.7-.33-.86,0-2.78,5.6-3.7,11.97-2.62,18.13.11.63,1.07.36.96-.27h0Z"/>
        <path class="cls-2" d="M23.17,83.73l6.05-.82c.27-.04.41-.38.35-.62-.08-.29-.35-.39-.62-.35l-6.05.82c-.27.04-.41.38-.35.62.08.29.35.39.62.35h0Z"/>
        <path class="cls-2" d="M29.9,76.63l9.91-3.29c.61-.2.35-1.17-.27-.96l-9.91,3.29c-.61.2-.35,1.17.27.96h0Z"/>
        <path class="cls-2" d="M34.99,75.16l.52,17.28c.02.64,1.02.64,1,0l-.52-17.28c-.02-.64-1.02-.64-1,0h0Z"/>
      </g>
      <g>
        <path class="cls-2" d="M113.18,22.22c-1.99,1.43-3.71,3.19-5.07,5.23-1.13,1.69-2.85,4.4-1.39,6.37,1.07,1.46,3.13,1.35,4.74,1.54.88.11,1.86.3,2.5.97.7.73.78,1.88.48,2.8-.39,1.2-1.47,1.94-2.66,2.2-.64.14-1.31.14-1.95.04-.33-.06-.67-.14-.98-.27-.14-.06-.92-.58-.43-.73.61-.19.35-1.16-.27-.96-1.12.35-1.03,1.74-.19,2.34.97.69,2.45.78,3.58.63,2.29-.31,4.21-2.1,4.04-4.52-.07-1.06-.55-2.05-1.44-2.66s-1.92-.75-2.93-.86c-.96-.1-2.01-.09-2.91-.49-1.33-.59-1.29-2.04-.82-3.23,1.18-3,3.6-5.67,6.18-7.54.52-.37.02-1.24-.5-.86h0Z"/>
        <path class="cls-2" d="M116.07,26.86c2.94-1.49,6.05-2.59,9.27-3.29.63-.14.36-1.1-.27-.96-3.3.72-6.5,1.86-9.51,3.39-.57.29-.07,1.15.5.86h0Z"/>
        <path class="cls-2" d="M119.83,25.15c-.98,4.74-1.3,9.59-.91,14.41.05.64,1.05.64,1,0-.38-4.73-.09-9.5.87-14.15.13-.63-.83-.9-.96-.27h0Z"/>
        <path class="cls-2" d="M125.5,28.67c-.23,3.5-.81,6.96-1.73,10.34-.13.47.49.86.84.49.7-.75,1.52-1.35,2.45-1.77s1.9-.56,2.92-.65c.65-.06,1.58-.52,1.21-1.33-.29-.63-1.27-.79-1.49-.03-.18.62.78.88.96.27-.22.28-.36.31-.4.12,0-.1-.06-.12-.15-.04-.11,0-.29.03-.4.04-.3.02-.59.05-.88.09-.63.09-1.25.26-1.85.5-1.17.47-2.22,1.19-3.08,2.11l.84.49c.94-3.47,1.53-7.02,1.77-10.61.04-.64-.96-.64-1,0h0Z"/>
        <path class="cls-2" d="M126.05,32.73l4.56-.83c.27-.05.42-.37.35-.62-.08-.28-.35-.4-.62-.35l-4.56.83c-.27.05-.42.37-.35.62.08.28.35.4.62.35h0Z"/>
        <path class="cls-2" d="M125.24,29.09c1.55-1.2,3.69-1.48,5.51-.81.61.22.87-.74.27-.96-2.18-.8-4.66-.35-6.48,1.07-.21.17-.17.53,0,.71.21.21.49.17.71,0h0Z"/>
        <path class="cls-2" d="M135.75,26.2c-1.6,3.71-2.63,7.62-3.06,11.64-.04.41.45.58.75.43,2-.99,4.01-1.96,5.99-2.97.53-.27,1.24-.96.62-1.54-.43-.4-1.25-.18-1.22.47s1.02.64,1,0c0-.26-1.08.29-1.2.36-.27.13-.54.27-.81.4-.54.27-1.08.54-1.63.81-1.08.54-2.17,1.07-3.25,1.61l.75.43c.41-3.83,1.4-7.6,2.92-11.14.25-.58-.61-1.09-.86-.5h0Z"/>
        <path class="cls-2" d="M134.72,30.67l5.22-1.27c.63-.15.36-1.12-.27-.96l-5.22,1.27c-.63.15-.36,1.12.27.96h0Z"/>
        <path class="cls-2" d="M137.2,26.02c.95-.75,2.19-1.09,3.4-1,.27.02.5-.24.5-.5,0-.29-.23-.48-.5-.5-1.48-.12-2.94.37-4.1,1.29-.21.17-.18.53,0,.71.21.21.49.17.71,0h0Z"/>
        <path class="cls-2" d="M144.11,38.41c-.4-3.97-.64-8.07-.34-12.05.02-.2,0-.59.21-.72.19-.11.48.03.64.11.36.19.65.51.91.81.55.64,1.04,1.43,1.12,2.29.07.71-.17,1.37-.74,1.82-.54.42-1.21.56-1.79.14-.52-.38-1.02.49-.5.86,1.12.81,2.62.27,3.42-.74,1.03-1.29.62-3.07-.23-4.34-.66-.97-2.42-2.91-3.62-1.56-.57.64-.44,1.77-.46,2.56-.03,1.11-.05,2.22-.03,3.33.02,2.5.17,5.01.42,7.5.06.63,1.06.64,1,0h0Z"/>
      </g>
      <g>
        <path class="cls-2" d="M148.3,63.61c-1.65.51-3.16,1.4-4.38,2.63-.63.63-1.18,1.34-1.62,2.11-.4.69-.89,1.55-.62,2.37s1.17,1.21,1.9,1.5c.97.39,2.01.59,2.94,1.08.78.41,1.62,1.13,1.72,2.06.08.75-.37,1.35-1,1.69-.72.39-1.58.5-2.39.52-.68.02-2.15.09-2.32-.79-.13-.63-1.09-.36-.96.27.33,1.63,2.65,1.61,3.93,1.48,1.41-.14,3.05-.64,3.6-2.1.66-1.79-.81-3.44-2.34-4.14-1-.46-2.09-.67-3.09-1.12-.54-.24-1.18-.53-1.02-1.23.11-.47.42-.94.67-1.34,1.2-1.93,3.09-3.37,5.26-4.03.61-.19.35-1.15-.27-.96h0Z"/>
        <path class="cls-2" d="M150.55,67.96c2.67-1.69,5.52-3.1,8.49-4.18.6-.22.34-1.18-.27-.96-3.06,1.11-5.99,2.53-8.73,4.28-.54.34-.04,1.21.5.86h0Z"/>
        <path class="cls-2" d="M154.36,65.19c-.77,3.88-1.23,7.81-1.39,11.76-.03.64.97.64,1,0,.15-3.86.61-7.7,1.35-11.49.12-.63-.84-.9-.96-.27h0Z"/>
        <path class="cls-2" d="M160.24,67.86l-2.01,10.09c-.09.46.33.74.73.56,1-.43,1.99-.86,2.99-1.29s2.01-.76,2.92-1.26c.52-.29.94-1.22.14-1.48-.61-.2-1.25.53-.73,1.03.46.45,1.17-.26.71-.71l-.05-.05.15.35-.61-.09-.11.07c-.13.05-.26.12-.39.17-.24.1-.48.21-.72.31-.54.23-1.09.47-1.63.7-1.06.45-2.11.91-3.17,1.36l.73.56,2.01-10.09c.12-.63-.84-.9-.96-.27h0Z"/>
        <path class="cls-2" d="M159.82,72.4l4.56-.86c.27-.05.42-.37.35-.62-.08-.28-.35-.4-.62-.35l-4.56.86c-.27.05-.42.37-.35.62.08.28.35.4.62.35h0Z"/>
        <path class="cls-2" d="M160.41,68.27c.42-.45.94-.75,1.52-.92s1.18-.17,1.76-.01c.62.17.89-.8.27-.96-1.5-.41-3.19.05-4.26,1.19-.19.2-.19.51,0,.71s.52.2.71,0h0Z"/>
        <path class="cls-2" d="M168.64,65.19l-.65,4.72-.33,2.36c-.1.7-.28,1.43-.26,2.14,0,.48.14.99.56,1.27.55.36,1.15.09,1.66-.21,1.36-.81,2.71-1.63,4.06-2.45.55-.33.05-1.2-.5-.86-1.11.67-2.21,1.33-3.32,2-.26.16-1.2.9-1.41.59-.23-.33.03-1.18.08-1.53l1.08-7.77c.09-.63-.88-.9-.96-.27h0Z"/>
        <path class="cls-2" d="M169.6,70.27l3.78-.56c.27-.04.41-.38.35-.62-.08-.29-.35-.39-.62-.35l-3.78.56c-.27.04-.41.38-.35.62.08.29.35.39.62.35h0Z"/>
        <path class="cls-2" d="M169.59,64.98c1.69-.37,3.42-.45,5.13-.26.27.03.5-.25.5-.5,0-.29-.23-.47-.5-.5-1.8-.2-3.63-.09-5.4.3-.63.14-.36,1.1.27.96h0Z"/>
        <path class="cls-2" d="M176.87,76.08l.18-6.51.09-3.13c.02-.56.02-1.13.05-1.69.02-.4.03-.81.49-.93.73-.2,1.53.42,2,.89.59.6,1.07,1.4,1.15,2.26.15,1.42-1.31,3.14-2.81,2.35-.57-.3-1.08.56-.5.86,1.31.69,2.86.13,3.71-1.02,1-1.35.66-3.19-.28-4.48-.79-1.09-2.41-2.41-3.85-1.71-.71.34-.88,1.05-.91,1.78-.05,1.16-.06,2.33-.1,3.49l-.21,7.83c-.02.64.98.64,1,0h0Z"/>
        <path class="cls-2" d="M184.91,66.57l-3.02,9.67c-.12.39.26.68.62.62,2.46-.48,4.92-.97,7.38-1.45.42-.08.48-.72.12-.91-.46-.25-.92-.49-1.37-.74-.57-.31-1.07.56-.5.86.46.25.92.49,1.37.74l.12-.91c-2.46.48-4.92.97-7.38,1.45l.62.62,3.02-9.67c.19-.62-.77-.88-.96-.27h0Z"/>
        <path class="cls-2" d="M184.75,71.68c1.39-.58,2.87-.84,4.37-.74.27.02.5-.24.5-.5,0-.29-.23-.48-.5-.5-1.58-.1-3.18.16-4.64.77-.25.1-.43.33-.35.62.06.23.36.45.62.35h0Z"/>
        <path class="cls-2" d="M185.42,67.35c1.3-.52,2.67-.76,4.07-.69.27.01.5-.24.5-.5,0-.28-.23-.49-.5-.5-1.47-.07-2.96.17-4.33.73-.25.1-.43.33-.35.62.07.24.36.45.62.35h0Z"/>
        <path class="cls-2" d="M197.43,63.37c-1.33,1.27-2.43,2.78-3.19,4.46-.58,1.27-1.52,3.33.26,4.06,1.06.43,3.15.26,2.63,2.02-.61,2.09-3.19,1.27-4.52.48-.56-.33-1.06.54-.5.86,1.5.89,3.73,1.61,5.19.25.99-.92,1.34-2.75.18-3.69-.57-.46-1.32-.54-2.01-.68-.29-.06-.71-.12-.91-.36-.31-.38.03-1.08.17-1.48.7-1.98,1.89-3.76,3.41-5.2.47-.44-.24-1.15-.71-.71h0Z"/>
        <path class="cls-2" d="M199.23,67.66c1.76-1.5,3.88-2.52,6.14-2.99.63-.13.36-1.1-.27-.96-2.43.51-4.69,1.64-6.58,3.25-.49.42.22,1.12.71.71h0Z"/>
        <path class="cls-2" d="M202.48,65.94c-.27,3-.53,6-.8,9.01-.06.64.94.64,1,0,.27-3,.53-6,.8-9.01.06-.64-.94-.64-1,0h0Z"/>
      </g>
      <g>
        <path class="cls-2" d="M223.38,120.24c-.91-3.92-1.47-7.91-1.65-11.94-.02-.48-.04-.97-.05-1.45,0-.4-.14-1.08,0-1.46.16-.46.95-.32,1.34-.32.49,0,.99-.01,1.48-.02.99,0,1.97,0,2.96.03.49.01.99.03,1.48.05.29.01.58.02.86.04.12,0,.25.01.37.02.29.09.33,0,.14-.24-.02.64.98.64,1,0,.03-1.07-1.7-.79-2.37-.81-1.23-.05-2.47-.07-3.7-.08-.58,0-1.15,0-1.73,0s-1.18-.05-1.74.07c-.97.2-1.12,1.01-1.11,1.88.04,4.87.66,9.75,1.75,14.5.15.63,1.11.36.96-.27h0Z"/>
        <path class="cls-2" d="M222.04,112.98l9.37-1.58c.63-.11.36-1.07-.27-.96l-9.37,1.58c-.63.11-.36,1.07.27.96h0Z"/>
        <path class="cls-2" d="M233.94,108.33l-1.17,5.01-.59,2.5c-.18.78-.43,1.58-.53,2.37-.4,3.27,5.26,1.7,6.75,1.07.58-.25.33-1.21-.27-.96-1.24.52-2.55.83-3.9.86-.43,0-1.13.06-1.46-.28-.4-.42.08-1.54.2-2.03l1.94-8.27c.15-.63-.82-.89-.96-.27h0Z"/>
        <path class="cls-2" d="M239.51,119.87c.89-4.07,2.08-8.08,3.55-11.98h-.96c1.42,3.71,2.03,7.65,2.63,11.56.1.63,1.06.36.96-.27-.59-3.91-1.21-7.84-2.63-11.56-.18-.47-.79-.47-.96,0-1.47,3.9-2.65,7.91-3.55,11.98-.14.63.83.9.96.27h0Z"/>
        <path class="cls-2" d="M240.92,114.16l3.03-.61c.26-.05.43-.37.35-.62-.09-.27-.34-.4-.62-.35l-3.03.61c-.26.05-.43.37-.35.62.09.27.34.4.62.35h0Z"/>
        <path class="cls-2" d="M245.02,108.68l8.7-1.52c.63-.11.36-1.07-.27-.96l-8.7,1.52c-.63.11-.36,1.07.27.96h0Z"/>
        <path class="cls-2" d="M248.93,107.71v12.01c0,.64,1,.64,1,0v-12.01c0-.64-1-.64-1,0h0Z"/>
      </g>
      <g>
        <path class="cls-2" d="M82.49,162.81c1.04-.75,2.18-1.38,3.39-1.82.59-.22,1.19-.39,1.8-.53.2-.05.41-.05.61.01.07.02.13.06.2.08.02,0,.1.03.03.01-.04-.01,0-.11,0-.12-.11.25-.07.53.18.68.21.13.57.07.68-.18.3-.67-.1-1.21-.74-1.43-.71-.24-1.44,0-2.13.2-1.62.48-3.16,1.23-4.52,2.22-.52.37-.02,1.24.5.86h0Z"/>
        <path class="cls-2" d="M85.29,161.09v9.94c0,.64,1,.64,1,0v-9.94c0-.64-1-.64-1,0h0Z"/>
        <path class="cls-2" d="M90.23,162.77l-1.13,9.32c-.05.42.59.68.85.35,1.2-1.51,2.84-2.55,4.72-2.97.63-.14.36-1.11-.27-.96-2.03.46-3.87,1.6-5.17,3.23l.85.35,1.13-9.32c.08-.64-.92-.63-1,0h0Z"/>
        <path class="cls-2" d="M89.73,166.1c1.79-.41,3.53-1.04,5.18-1.86.58-.29.07-1.15-.5-.86-1.57.78-3.23,1.36-4.94,1.76-.63.15-.36,1.11.27.96h0Z"/>
        <path class="cls-2" d="M90.48,162.27l5.27-1.44c.62-.17.36-1.13-.27-.96l-5.27,1.44c-.62.17-.36,1.13.27.96h0Z"/>
        <path class="cls-2" d="M99.66,160.13c-.46,1.69-.83,3.4-1.11,5.13-.13.84-.24,1.69-.33,2.54-.08.77-.27,1.67-.13,2.44.3,1.72,2.42.97,3.55.76,1.8-.34,3.61-.67,5.41-1.01.31-.06.47-.48.3-.73-.13-.2-.27-.4-.4-.6-.35-.53-1.22-.03-.86.5.13.2.27.4.4.6l.3-.73c-1.5.28-3,.56-4.49.84-.75.14-1.5.28-2.25.42-.29.05-.79.22-.96-.11-.11-.21-.02-.64,0-.86.21-3.02.74-6,1.53-8.91.17-.62-.79-.89-.96-.27h0Z"/>
        <path class="cls-2" d="M99.64,166.4h3.38c.27,0,.5-.23.5-.5s-.23-.5-.5-.5h-3.38c-.27,0-.5.23-.5.5s.23.5.5.5h0Z"/>
        <path class="cls-2" d="M99.26,161.22c1.93.31,3.86.05,5.65-.75.25-.11.31-.47.18-.68-.15-.25-.44-.29-.68-.18-1.51.68-3.24.91-4.88.65-.27-.04-.54.07-.62.35-.07.24.08.57.35.62h0Z"/>
        <path class="cls-2" d="M110.85,170.25c-.89-4.04-1.03-8.21-.4-12.3l-.48.37c1.96.26,3.99,1.54,4.1,3.69.05.94-.33,1.87-1.16,2.36-.75.44-1.65.47-2.38-.02-.53-.36-1.04.5-.5.86.97.66,2.22.63,3.25.1,1.11-.57,1.73-1.71,1.8-2.94.16-2.91-2.5-4.71-5.1-5.05-.19-.03-.45.17-.48.37-.66,4.27-.53,8.61.4,12.83.14.63,1.1.36.96-.27h0Z"/>
        <path class="cls-2" d="M119.17,169.26l-1.09-10.85c-.06-.63-1.06-.64-1,0l1.09,10.85c.06.63,1.06.64,1,0h0Z"/>
        <path class="cls-2" d="M123.12,158.24c-.56.37-1.09.79-1.57,1.25-.45.43-.95.92-1.23,1.48-.57,1.15.25,2.23,1.31,2.67s2.55.1,3.34,1.07c.56.69.64,1.83.02,2.5-.76.83-2.18.71-2.88-.11-.42-.49-1.12.22-.71.71,1.48,1.73,4.63,1.01,4.99-1.31.16-1.07-.24-2.21-1.11-2.87-.52-.39-1.15-.53-1.77-.62s-1.37-.12-1.92-.53c-.23-.17-.46-.42-.46-.73,0-.39.37-.74.61-1.01.56-.62,1.19-1.17,1.89-1.63.53-.36.03-1.22-.5-.86h0Z"/>
        <path class="cls-2" d="M126.67,160.26v8.63c0,.64,1,.64,1,0v-8.63c0-.64-1-.64-1,0h0Z"/>
        <path class="cls-2" d="M127.41,165.18c1.94-.89,4.03-1.45,6.15-1.66.27-.03.5-.21.5-.5,0-.25-.23-.53-.5-.5-2.31.22-4.55.82-6.66,1.79-.24.11-.31.47-.18.68.15.25.44.29.68.18h0Z"/>
        <path class="cls-2" d="M132.71,158.39c-.05,4.36-.37,8.71-.98,13.03-.09.63.87.9.96.27.62-4.41.97-8.84,1.02-13.3,0-.64-.99-.64-1,0h0Z"/>
        <path class="cls-2" d="M80.98,156.68c-1.65.51-3.16,1.4-4.38,2.63-.63.63-1.18,1.34-1.62,2.11-.4.69-.89,1.55-.62,2.37s1.17,1.21,1.9,1.5c.97.39,2.01.59,2.94,1.08.78.41,1.62,1.13,1.72,2.06.08.75-.37,1.35-1,1.69-.72.39-1.58.5-2.39.52-.68.02-2.15.09-2.32-.79-.13-.63-1.09-.36-.96.27.33,1.63,2.65,1.61,3.93,1.48,1.41-.14,3.05-.64,3.6-2.1.66-1.79-.81-3.44-2.34-4.14-1-.46-2.09-.67-3.09-1.12-.54-.24-1.18-.53-1.02-1.23.11-.47.42-.94.67-1.34,1.2-1.93,3.09-3.37,5.26-4.03.61-.19.35-1.15-.27-.96h0Z"/>
      </g>
      <g>
        <path class="cls-2" d="M10.35,61.8c1.85-3.88,3.7-7.76,5.55-11.63.09-.18.17-.37.27-.54.15-.26.18-.35.45-.22.33.16.61.98.76,1.28.44.89.87,1.78,1.26,2.69.82,1.88,1.53,3.81,2.15,5.77.19.61,1.16.35.96-.27-.72-2.26-1.56-4.48-2.53-6.64-.45-1-.89-2.07-1.48-3-.39-.61-1.08-1.26-1.84-.8-.37.22-.58.63-.76,1-.26.52-.5,1.04-.75,1.57l-1.6,3.36-3.31,6.94c-.28.58.59,1.09.86.5h0Z"/>
        <path class="cls-2" d="M15.62,50.09l-.7,13.32-.17,3.21c-.03.58-.06,1.15-.09,1.73-.02.37-.05.77.12,1.12.25.49.89.62,1.2.11.25-.42.1-1.15-.5-1.1-.64.05-.64,1.05,0,1h.06c-.12-.05-.24-.1-.35-.15-.12-.14-.12-.25,0-.33l.39-.05c.12.02.09-.69.1-.83l.06-1.23.12-2.34.25-4.81.5-9.62c.03-.64-.97-.64-1,0h0Z"/>
      </g>
      <g>
        <path class="cls-2" d="M90.49,47.27l.08,8.98c0,.44.54.65.85.35,2.15-2.01,4.56-3.71,7.17-5.07l-.68-.68c-.06.1-.13.19-.19.29-.35.54.51,1.04.86.5.06-.1.13-.19.19-.29.29-.44-.27-.9-.68-.68-2.68,1.4-5.16,3.16-7.37,5.23l.85.35-.08-8.98c0-.64-1.01-.64-1,0h0Z"/>
        <path class="cls-2" d="M92.16,54.7c2.54-5.46,5.77-10.59,9.63-15.22l-.84-.49c-.07.5-.15.99-.22,1.49-.09.63.87.9.96.27.07-.5.15-.99.22-1.49.06-.43-.48-.92-.84-.49-3.91,4.7-7.21,9.88-9.78,15.42-.27.58.59,1.09.86.5h0Z"/>
      </g>
      <g>
        <path class="cls-2" d="M122.37,84.28c-.9,3.65-1.22,7.43-.93,11.18.03.45.51.63.85.35,1.59-1.31,3.31-2.45,5.14-3.39.43-.22.86-.44,1.3-.64.37-.17,1-.3,1.25-.64.43-.62.08-1.44-.46-1.84s-1.02.49-.5.86c.15.11.19.31.11.47l.3-.23c-2.83,1.18-5.46,2.75-7.83,4.7l.85.35c-.28-3.67.01-7.34.9-10.91.15-.62-.81-.89-.96-.27h0Z"/>
        <path class="cls-2" d="M122.76,94.12c.06.22.74-.78.8-.87.12-.17.23-.35.35-.52.27-.4.55-.8.84-1.19.55-.75,1.11-1.49,1.7-2.21,1.18-1.45,2.45-2.84,3.79-4.16,2.7-2.65,5.68-4.99,8.9-6.99.55-.34.04-1.2-.5-.86-6.31,3.91-11.76,9.16-15.87,15.35-.36.54-1.02,1.56-.17,2.02.57.31,1.33-.16,1.14-.82-.18-.62-1.15-.35-.96.27h0Z"/>
      </g>
      <g>
        <path class="cls-2" d="M124.75,135.57l-1.95,2.36c-.33.4.11,1.15.61.79,3.81-2.8,7.62-5.61,11.44-8.41.45-.33.9-.68,1.36-1,.38-.26.83-.57,1.31-.39.81.3,1.07,1.48,1.26,2.21.59,2.27.69,4.65.32,6.96-.1.63.86.9.96.27.31-1.92.33-3.85.04-5.77-.22-1.43-.51-3.54-1.85-4.41-1.54-1-3.15.71-4.31,1.56-1.71,1.25-3.41,2.51-5.12,3.76-1.97,1.45-3.95,2.9-5.92,4.35l.61.79,1.95-2.36c.41-.49-.3-1.2-.71-.71h0Z"/>
        <path class="cls-2" d="M135.83,129.69c-2.61,7.63-5.67,15.1-9.16,22.38l.93.25c.02-.24.23-.31.43-.35.63-.12.36-1.08-.27-.96-.68.13-1.1.64-1.16,1.31-.04.49.72.69.93.25,3.53-7.35,6.62-14.9,9.26-22.62.21-.61-.76-.87-.96-.27h0Z"/>
      </g>
      <g>
        <path class="cls-2" d="M233.92,123.25c-1.19,3.48-.97,7.27-.67,10.88.21,2.6.43,5.2.63,7.8.04.6.09,1.2.11,1.79,0,.2.02.39.02.59,0,.07-.02.17,0,.23.04.13-.06.01.11-.17l.35-.15c.22.01.36.1.42.27-.22-.6-1.19-.34-.96.27.14.37.56.67.91.31.22-.22.18-.62.18-.91-.02-1.18-.14-2.36-.23-3.54-.27-3.34-.65-6.69-.74-10.04-.06-2.39.07-4.8.85-7.07.21-.61-.76-.87-.96-.27h0Z"/>
        <path class="cls-2" d="M228.3,137.44l5.82,8.66c.18.26.55.34.79.1,1.98-2.04,4.08-3.97,6.29-5.76l-.71-.71c-.14.15-.28.3-.42.45-.44.47.26,1.17.71.71.14-.15.28-.3.42-.45.45-.48-.22-1.1-.71-.71-2.21,1.79-4.31,3.71-6.29,5.76l.79.1-5.82-8.66c-.36-.53-1.22-.03-.86.5h0Z"/>
      </g>
    </g>
  </g>
</svg>