<?xml version="1.0" encoding="utf-8" standalone="no"?>
<!DOCTYPE svg PUBLIC "-//W3C//DTD SVG 1.1//EN"
  "http://www.w3.org/Graphics/SVG/1.1/DTD/svg11.dtd">
<!-- Created with matplotlib (http://matplotlib.org/) -->
<svg height="280.8pt" version="1.1" viewBox="0 0 424.8 280.8" width="424.8pt" xmlns="http://www.w3.org/2000/svg" xmlns:xlink="http://www.w3.org/1999/xlink">
 <defs>
  <style type="text/css">
*{stroke-linecap:butt;stroke-linejoin:round;}
  </style>
 </defs>
 <g id="figure_1">
  <g id="patch_1">
   <path d="M 0 280.8 
L 424.8 280.8 
L 424.8 0 
L 0 0 
z
" style="fill:#ffffff;"/>
  </g>
  <g id="axes_1">
   <g id="patch_2">
    <path d="M 10.7 270.1 
L 414.1 270.1 
L 414.1 10.7 
L 10.7 10.7 
z
" style="fill:#ffffff;"/>
   </g>
   <g id="matplotlib.axis_1"/>
   <g id="matplotlib.axis_2"/>
   <g id="patch_3">
    <path d="M 212.4 270.1 
L 212.4 10.7 
" style="fill:none;stroke:#808080;stroke-linecap:square;stroke-linejoin:miter;stroke-width:2;"/>
   </g>
   <g id="patch_4">
    <path d="M 10.7 140.4 
L 414.1 140.4 
" style="fill:none;stroke:#808080;stroke-linecap:square;stroke-linejoin:miter;stroke-width:2;"/>
   </g>
   <g id="line2d_1">
    <path clip-path="url(#p37d07a56db)" d="M 18.457692 65.573077 
L 20.036623 65.573077 
L 21.843625 65.573077 
L 24.303857 65.573077 
L 25.743896 65.573077 
L 29.125595 65.573077 
L 30.945331 65.573077 
L 31.318845 65.573077 
L 34.711325 65.573077 
L 35.229717 65.573077 
L 37.753679 65.573077 
L 39.294262 65.573077 
L 41.987791 65.573077 
L 43.202472 65.573077 
L 45.551728 65.573077 
L 47.151093 65.573077 
L 48.803761 65.573077 
L 52.539639 65.573077 
L 53.916306 65.573077 
L 56.143822 65.573077 
L 57.509833 65.573077 
L 58.492725 65.573077 
L 60.968896 65.573077 
L 63.981097 65.573077 
L 66.086028 65.573077 
L 67.669018 65.573077 
L 68.278339 65.573077 
L 71.916379 65.573077 
L 73.064708 65.573077 
L 74.717365 65.573077 
L 76.397713 65.573077 
L 78.699558 65.573077 
L 80.739692 65.573077 
L 82.998369 65.573077 
L 84.283617 65.573077 
L 86.350802 65.573077 
L 87.768975 65.573077 
L 91.455876 65.573077 
L 93.347251 65.573077 
L 94.937346 65.573077 
L 96.773413 65.573077 
L 99.0894 65.573077 
L 99.460626 65.573077 
L 103.1108 65.573077 
L 104.571717 65.573077 
L 106.766015 65.573077 
L 107.976126 65.573077 
L 110.993377 65.573077 
L 112.626427 65.573077 
L 114.431191 65.573077 
L 115.435631 65.573077 
L 118.42746 65.573077 
L 119.564928 65.573077 
L 121.52742 65.573077 
L 122.862944 65.573077 
L 125.153905 65.573077 
L 127.975249 65.573077 
L 130.307571 65.573077 
L 131.135655 65.573077 
L 134.168544 65.573077 
L 136.156695 65.573077 
L 137.718865 65.573077 
L 139.063457 65.573077 
L 141.634242 65.573077 
L 143.934587 65.573077 
L 145.256481 65.573077 
L 147.531455 65.573077 
L 149.885323 65.573077 
L 150.210022 65.573077 
L 153.430752 65.573077 
L 155.163531 65.573077 
L 157.010814 65.573077 
L 158.212192 65.573077 
L 160.2625 65.573077 
L 161.755755 65.573077 
L 164.065675 65.573077 
L 165.745679 65.573077 
L 168.122268 65.573077 
L 169.750013 65.573077 
L 171.727074 65.573077 
L 174.877437 65.573077 
L 175.62964 65.573077 
L 178.905084 65.573077 
L 180.218504 65.573077 
L 182.019768 65.573077 
L 184.366863 65.573077 
L 186.462642 65.573077 
L 187.06975 65.573077 
L 189.960401 65.573077 
L 192.02999 65.573077 
L 193.863233 65.573077 
L 196.357474 65.573077 
L 196.894858 65.573077 
L 200.490217 65.573077 
L 201.074833 65.573077 
L 203.52794 65.573077 
L 205.248803 65.573077 
L 208.431919 65.573077 
L 208.893328 65.573077 
" style="fill:none;stroke:#ff0000;stroke-linecap:square;stroke-width:5;"/>
   </g>
   <g id="line2d_2">
    <path clip-path="url(#p37d07a56db)" d="M 215.743407 65.573077 
L 216.78811 65.573077 
L 218.654212 65.573077 
L 221.213628 65.573077 
L 223.893728 65.573077 
L 224.586207 65.573077 
L 226.445782 65.573077 
L 228.838452 65.573077 
L 231.702198 65.573077 
L 233.036955 65.573077 
L 234.19188 65.573077 
L 237.722487 65.573077 
L 238.241343 65.573077 
L 240.19034 65.573077 
L 242.907576 65.573077 
L 244.21702 65.573077 
L 246.535405 65.573077 
L 248.157349 65.573077 
L 251.369563 65.573077 
L 253.227148 65.573077 
L 254.970121 65.573077 
L 256.687777 65.573077 
L 258.891704 65.573077 
L 259.822821 65.573077 
L 262.133436 65.573077 
L 263.411992 65.573077 
L 265.258089 65.573077 
L 268.321084 65.573077 
L 270.018065 65.573077 
L 271.172821 65.573077 
L 273.71971 65.573077 
L 276.71544 65.573077 
L 276.947878 65.573077 
L 279.538578 65.573077 
L 282.45226 65.573077 
L 283.585982 65.573077 
L 285.843779 65.573077 
L 286.544621 65.573077 
L 289.479356 65.573077 
L 291.764739 65.573077 
L 292.914754 65.573077 
L 295.409592 65.573077 
L 297.418952 65.573077 
L 298.652933 65.573077 
L 300.225471 65.573077 
L 302.507633 65.573077 
L 304.872597 65.573077 
L 306.461277 65.573077 
L 308.924531 65.573077 
L 311.085782 65.573077 
L 311.940812 65.573077 
L 315.612137 65.573077 
L 315.979652 65.573077 
L 318.517441 65.573077 
L 320.411012 65.573077 
L 321.854373 65.573077 
L 324.321533 65.573077 
L 325.579923 65.573077 
L 329.229147 65.573077 
L 330.445099 65.573077 
L 332.84867 65.573077 
L 334.968132 65.573077 
L 335.437602 65.573077 
L 338.629919 65.573077 
L 339.247231 65.573077 
L 341.79391 65.573077 
L 344.060425 65.573077 
L 346.125592 65.573077 
L 348.299801 65.573077 
L 349.310949 65.573077 
L 351.914442 65.573077 
L 353.111179 65.573077 
L 355.179245 65.573077 
L 357.39348 65.573077 
L 360.151795 65.573077 
L 360.923496 65.573077 
L 363.903063 65.573077 
L 365.79543 65.573077 
L 366.468456 65.573077 
L 368.702865 65.573077 
L 370.827957 65.573077 
L 373.218695 65.573077 
L 374.503217 65.573077 
L 377.839364 65.573077 
L 378.835468 65.573077 
L 381.019614 65.573077 
L 382.14307 65.573077 
L 384.779941 65.573077 
L 386.501337 65.573077 
L 389.572606 65.573077 
L 390.257295 65.573077 
L 392.386615 65.573077 
L 394.970903 65.573077 
L 396.006052 65.573077 
L 397.777277 65.573077 
L 399.860472 65.573077 
L 403.205642 65.573077 
L 403.524408 65.573077 
L 406.342308 65.573077 
" style="fill:none;stroke:#ff0000;stroke-linecap:square;stroke-width:5;"/>
   </g>
  </g>
 </g>
 <defs>
  <clipPath id="p37d07a56db">
   <rect height="259.4" width="403.4" x="10.7" y="10.7"/>
  </clipPath>
 </defs>
</svg>
