<?xml version="1.0" encoding="utf-8" standalone="no"?>
<!DOCTYPE svg PUBLIC "-//W3C//DTD SVG 1.1//EN"
  "http://www.w3.org/Graphics/SVG/1.1/DTD/svg11.dtd">
<!-- Created with matplotlib (http://matplotlib.org/) -->
<svg height="280.8pt" version="1.1" viewBox="0 0 424.8 280.8" width="424.8pt" xmlns="http://www.w3.org/2000/svg" xmlns:xlink="http://www.w3.org/1999/xlink">
 <defs>
  <style type="text/css">
*{stroke-linecap:butt;stroke-linejoin:round;}
  </style>
 </defs>
 <g id="figure_1">
  <g id="patch_1">
   <path d="M 0 280.8 
L 424.8 280.8 
L 424.8 0 
L 0 0 
z
" style="fill:#ffffff;"/>
  </g>
  <g id="axes_1">
   <g id="patch_2">
    <path d="M 10.7 270.1 
L 414.1 270.1 
L 414.1 10.7 
L 10.7 10.7 
z
" style="fill:#ffffff;"/>
   </g>
   <g id="matplotlib.axis_1"/>
   <g id="matplotlib.axis_2"/>
   <g id="patch_3">
    <path d="M 147.752564 270.1 
L 147.752564 10.7 
" style="fill:none;stroke:#808080;stroke-linecap:square;stroke-linejoin:miter;stroke-width:2;"/>
   </g>
   <g id="patch_4">
    <path d="M 10.7 140.4 
L 414.1 140.4 
" style="fill:none;stroke:#808080;stroke-linecap:square;stroke-linejoin:miter;stroke-width:2;"/>
   </g>
   <g id="line2d_1">
    <path clip-path="url(#p8c3f297232)" d="M 18.457692 134.857265 
L 43.104276 135.767562 
L 61.339312 136.646761 
L 74.054012 137.420647 
L 87.818797 138.492582 
L 96.604454 139.374849 
L 104.722736 140.409917 
L 111.967762 141.617932 
L 117.025502 142.716458 
L 121.316388 143.909644 
L 124.655083 145.090905 
L 126.963851 146.097046 
L 129.181494 147.269408 
L 131.0543 148.47576 
L 132.776138 149.826484 
L 134.515179 151.519308 
L 135.742479 152.989731 
L 137.205843 155.165702 
L 138.427789 157.482135 
L 139.485493 160.01985 
L 140.364905 162.666646 
L 141.244316 166.011479 
L 142.10297 170.262542 
L 142.880074 175.381804 
L 143.556357 181.361983 
L 144.157497 188.54988 
L 144.758637 198.605181 
L 145.289904 211.558438 
L 145.751295 228.369463 
L 146.135789 249.691696 
L 146.497788 281.8 
L 146.497788 281.8 
" style="fill:none;stroke:#ff0000;stroke-linecap:square;stroke-width:5;"/>
   </g>
   <g id="line2d_2">
    <path clip-path="url(#p8c3f297232)" d="M 149.032069 -1 
L 149.378125 28.940066 
L 149.87086 54.620679 
L 150.445717 72.725214 
L 151.081208 85.482986 
L 151.755842 94.614743 
L 152.505436 101.741886 
L 153.25503 106.946779 
L 154.175769 111.700919 
L 155.096509 115.286034 
L 156.09976 118.315669 
L 157.179118 120.880011 
L 158.196639 122.834061 
L 159.35493 124.66531 
L 160.899317 126.641239 
L 162.4739 128.268453 
L 164.526515 129.985918 
L 166.447894 131.304924 
L 168.657935 132.582267 
L 171.543845 133.983547 
L 174.792992 135.320085 
L 179.410373 136.949341 
L 186.445686 139.118241 
L 203.895731 144.331139 
L 209.667397 146.306961 
L 215.291785 148.485261 
L 219.546582 150.359838 
L 223.607691 152.387709 
L 227.140405 154.391344 
L 230.329589 156.439018 
L 233.359843 158.643826 
L 236.639498 161.383847 
L 238.854874 163.49035 
L 241.373235 166.192485 
L 243.811347 169.188361 
L 246.048729 172.343405 
L 247.981073 175.452416 
L 249.785257 178.747385 
L 251.624914 182.582945 
L 253.529011 187.17854 
L 255.010677 191.299538 
L 256.615474 196.432714 
L 258.22602 202.4594 
L 259.611674 208.531462 
L 260.99006 215.60748 
L 262.293713 223.512662 
L 263.565618 232.694996 
L 264.768204 243.12284 
L 265.924206 255.268694 
L 266.996482 269.02919 
L 267.821992 281.8 
L 267.821992 281.8 
" style="fill:none;stroke:#ff0000;stroke-linecap:square;stroke-width:5;"/>
   </g>
   <g id="line2d_3">
    <path clip-path="url(#p8c3f297232)" d="M 288.275534 -1 
L 289.381782 10.460321 
L 290.689204 21.608793 
L 291.919627 30.311979 
L 293.176601 37.833328 
L 294.565694 44.891331 
L 295.880072 50.612388 
L 297.327742 56.05684 
L 299.026132 61.531592 
L 300.598904 65.898712 
L 302.342624 70.107168 
L 303.992279 73.588489 
L 305.805841 76.956144 
L 307.994312 80.496101 
L 309.878618 83.167272 
L 312.06424 85.906851 
L 314.487489 88.571933 
L 317.129202 91.111811 
L 319.76523 93.334652 
L 322.622421 95.455155 
L 326.075408 97.689923 
L 329.467333 99.600331 
L 332.55745 101.138916 
L 337.288224 103.190822 
L 342.192708 105.005911 
L 347.366045 106.648442 
L 353.432366 108.293675 
L 358.884758 109.566324 
L 365.416931 110.886401 
L 372.256798 112.07668 
L 382.045511 113.513481 
L 392.718269 114.806323 
L 404.164657 115.954744 
L 406.342308 116.150534 
L 406.342308 116.150534 
" style="fill:none;stroke:#ff0000;stroke-linecap:square;stroke-width:5;"/>
   </g>
  </g>
 </g>
 <defs>
  <clipPath id="p8c3f297232">
   <rect height="259.4" width="403.4" x="10.7" y="10.7"/>
  </clipPath>
 </defs>
</svg>
