<?xml version="1.0" encoding="utf-8" standalone="no"?>
<!DOCTYPE svg PUBLIC "-//W3C//DTD SVG 1.1//EN"
  "http://www.w3.org/Graphics/SVG/1.1/DTD/svg11.dtd">
<!-- Created with matplotlib (http://matplotlib.org/) -->
<svg height="280.8pt" version="1.1" viewBox="0 0 424.8 280.8" width="424.8pt" xmlns="http://www.w3.org/2000/svg" xmlns:xlink="http://www.w3.org/1999/xlink">
 <defs>
  <style type="text/css">
*{stroke-linecap:butt;stroke-linejoin:round;}
  </style>
 </defs>
 <g id="figure_1">
  <g id="patch_1">
   <path d="M 0 280.8 
L 424.8 280.8 
L 424.8 0 
L 0 0 
z
" style="fill:#ffffff;"/>
  </g>
  <g id="axes_1">
   <g id="patch_2">
    <path d="M 10.7 270.1 
L 414.1 270.1 
L 414.1 10.7 
L 10.7 10.7 
z
" style="fill:#ffffff;"/>
   </g>
   <g id="matplotlib.axis_1"/>
   <g id="matplotlib.axis_2"/>
   <g id="patch_3">
    <path d="M 115.428846 270.1 
L 115.428846 10.7 
" style="fill:none;stroke:#808080;stroke-linecap:square;stroke-linejoin:miter;stroke-width:2;"/>
   </g>
   <g id="patch_4">
    <path d="M 10.7 140.4 
L 414.1 140.4 
" style="fill:none;stroke:#808080;stroke-linecap:square;stroke-linejoin:miter;stroke-width:2;"/>
   </g>
   <g id="line2d_1">
    <path clip-path="url(#pefc7743621)" d="M 18.457692 146.635577 
L 21.3614 146.730355 
L 23.058081 146.787081 
L 24.267562 146.828143 
L 26.602404 146.908923 
L 28.482822 146.975472 
L 29.706355 147.019509 
L 31.652315 147.090775 
L 34.47777 147.197027 
L 36.300844 147.267393 
L 37.581589 147.317705 
L 39.620973 147.399358 
L 41.928481 147.494101 
L 43.492978 147.55981 
L 46.116163 147.672758 
L 46.805542 147.703035 
L 49.542757 147.825781 
L 51.326066 147.907994 
L 53.986524 148.034087 
L 55.379451 148.101808 
L 56.914743 148.177858 
L 58.915237 148.279233 
L 61.369015 148.407246 
L 63.13728 148.502105 
L 64.441672 148.573532 
L 67.601302 148.751886 
L 68.374929 148.796748 
L 71.333733 148.972866 
L 73.676167 149.117624 
L 74.441802 149.166004 
L 77.102946 149.338422 
L 78.322679 149.419737 
L 81.042913 149.606524 
L 83.486073 149.781005 
L 84.640551 149.865775 
L 86.472112 150.00345 
L 88.856998 150.188836 
L 91.255399 150.382634 
L 92.255126 150.465699 
L 94.386208 150.647465 
L 97.366172 150.912927 
L 97.508745 150.925972 
L 100.983445 151.254241 
L 101.389986 151.293992 
L 104.581188 151.61643 
L 106.895893 151.862513 
L 107.310096 151.907691 
L 109.421982 152.143692 
L 112.16475 152.465039 
" style="fill:none;stroke:#ff0000;stroke-linecap:square;stroke-width:5;"/>
   </g>
   <g id="line2d_2">
    <path clip-path="url(#pefc7743621)" d="M 118.468806 153.274766 
L 126.384246 154.459543 
L 132.754692 155.584098 
L 138.454248 156.754451 
L 143.966182 158.071704 
L 148.413999 159.300106 
L 154.133806 161.155469 
L 158.641653 162.895896 
L 161.943392 164.367964 
L 165.609593 166.245943 
L 168.318953 167.834516 
L 171.247818 169.787073 
L 174.24543 172.095867 
L 177.085884 174.645291 
L 179.137441 176.75746 
L 181.79177 179.910359 
L 184.012498 183.001219 
L 185.97193 186.159761 
L 187.816145 189.592537 
L 189.573022 193.378636 
L 191.277228 197.653006 
L 192.83279 202.204529 
L 194.438532 207.729809 
L 195.927873 213.817487 
L 197.329851 220.647526 
L 198.602666 228.050427 
L 199.851047 236.76997 
L 201.023695 246.7036 
L 202.093408 257.73677 
L 203.184454 271.628487 
L 203.846981 281.8 
L 203.846981 281.8 
" style="fill:none;stroke:#ff0000;stroke-linecap:square;stroke-width:5;"/>
   </g>
   <g id="line2d_3">
    <path clip-path="url(#pefc7743621)" d="M 220.952677 -1 
L 222.050092 15.080756 
L 223.13363 27.731481 
L 224.341268 39.125818 
L 225.602516 48.800629 
L 226.926361 57.148443 
L 228.041843 63.085441 
L 229.310318 68.884953 
L 230.868512 74.918701 
L 232.317109 79.681239 
L 233.791315 83.86574 
L 235.688198 88.4706 
L 237.28996 91.812451 
L 239.0889 95.087447 
L 240.825212 97.855298 
L 242.988431 100.864067 
L 245.224443 103.557267 
L 247.186159 105.634961 
L 249.279255 107.608064 
L 251.803457 109.708729 
L 254.119436 111.412499 
L 257.41921 113.537197 
L 260.652302 115.337109 
L 264.223329 117.064136 
L 267.666791 118.518104 
L 272.269773 120.200455 
L 276.529755 121.542261 
L 282.049798 123.036817 
L 288.066004 124.417364 
L 293.754743 125.534952 
L 301.56632 126.837231 
L 310.910873 128.12377 
L 319.794447 129.139249 
L 332.810323 130.356491 
L 346.592751 131.388022 
L 362.966033 132.368028 
L 382.996481 133.311095 
L 406.342308 134.164423 
L 406.342308 134.164423 
" style="fill:none;stroke:#ff0000;stroke-linecap:square;stroke-width:5;"/>
   </g>
  </g>
 </g>
 <defs>
  <clipPath id="pefc7743621">
   <rect height="259.4" width="403.4" x="10.7" y="10.7"/>
  </clipPath>
 </defs>
</svg>
