<?xml version="1.0" encoding="utf-8" standalone="no"?>
<!DOCTYPE svg PUBLIC "-//W3C//DTD SVG 1.1//EN"
  "http://www.w3.org/Graphics/SVG/1.1/DTD/svg11.dtd">
<!-- Created with matplotlib (http://matplotlib.org/) -->
<svg height="280.8pt" version="1.1" viewBox="0 0 424.8 280.8" width="424.8pt" xmlns="http://www.w3.org/2000/svg" xmlns:xlink="http://www.w3.org/1999/xlink">
 <defs>
  <style type="text/css">
*{stroke-linecap:butt;stroke-linejoin:round;}
  </style>
 </defs>
 <g id="figure_1">
  <g id="patch_1">
   <path d="M 0 280.8 
L 424.8 280.8 
L 424.8 0 
L 0 0 
z
" style="fill:#ffffff;"/>
  </g>
  <g id="axes_1">
   <g id="patch_2">
    <path d="M 10.7 270.1 
L 414.1 270.1 
L 414.1 10.7 
L 10.7 10.7 
z
" style="fill:#ffffff;"/>
   </g>
   <g id="matplotlib.axis_1"/>
   <g id="matplotlib.axis_2"/>
   <g id="patch_3">
    <path d="M 212.4 270.1 
L 212.4 10.7 
" style="fill:none;stroke:#808080;stroke-linecap:square;stroke-linejoin:miter;stroke-width:2;"/>
   </g>
   <g id="patch_4">
    <path d="M 10.7 140.4 
L 414.1 140.4 
" style="fill:none;stroke:#808080;stroke-linecap:square;stroke-linejoin:miter;stroke-width:2;"/>
   </g>
   <g id="line2d_1">
    <path clip-path="url(#pc48a7c87f2)" d="M 18.457692 109.222115 
L 42.684652 108.331983 
L 60.991347 107.47042 
L 78.995782 106.392445 
L 92.994922 105.329629 
L 105.514726 104.143298 
L 115.426697 102.986815 
L 125.018951 101.617824 
L 132.229215 100.373118 
L 138.939493 98.995212 
L 145.130568 97.480104 
L 149.352304 96.276307 
L 155.140422 94.337345 
L 158.310418 93.099557 
L 162.430877 91.255903 
L 166.143654 89.31334 
L 169.797756 87.070874 
L 172.666832 85.021101 
L 175.278952 82.879351 
L 178.060577 80.24038 
L 180.06253 78.060142 
L 182.454542 75.072864 
L 184.627867 71.912525 
L 186.508614 68.749409 
L 188.413406 65.040273 
L 190.005752 61.455336 
L 191.613414 57.278721 
L 193.126129 52.712528 
L 194.433218 48.147799 
L 195.71051 42.996391 
L 197.143053 36.192674 
L 198.390025 29.137609 
L 199.569447 21.202819 
L 200.730975 11.820742 
L 201.887405 0.420241 
L 202.015125 -1 
L 202.015125 -1 
" style="fill:none;stroke:#ff0000;stroke-linecap:square;stroke-width:5;"/>
   </g>
   <g id="line2d_2">
    <path clip-path="url(#pc48a7c87f2)" d="M 219.670589 281.8 
L 220.59213 263.080122 
L 221.584048 247.136248 
L 222.608603 233.920734 
L 223.680775 222.661512 
L 224.743467 213.431962 
L 226.018953 204.256161 
L 227.377377 196.202284 
L 228.769949 189.333438 
L 230.137915 183.636064 
L 231.544937 178.625422 
L 232.951958 174.300853 
L 234.794208 169.460146 
L 236.571672 165.489075 
L 238.105335 162.504043 
L 240.107492 159.10445 
L 242.096192 156.181506 
L 244.272054 153.401346 
L 246.58259 150.836584 
L 248.503725 148.954019 
L 251.003537 146.78493 
L 253.903173 144.59624 
L 257.659384 142.177945 
L 260.676593 140.507972 
L 264.690222 138.585194 
L 269.315545 136.705704 
L 272.906742 135.444592 
L 278.227349 133.829117 
L 282.976049 132.592998 
L 288.851012 131.276217 
L 295.708169 129.974182 
L 303.006668 128.804858 
L 312.369288 127.554829 
L 321.61221 126.531016 
L 333.447437 125.448339 
L 348.1728 124.364794 
L 363.139012 123.480447 
L 382.716076 122.558268 
L 406.342308 121.693269 
L 406.342308 121.693269 
" style="fill:none;stroke:#ff0000;stroke-linecap:square;stroke-width:5;"/>
   </g>
  </g>
 </g>
 <defs>
  <clipPath id="pc48a7c87f2">
   <rect height="259.4" width="403.4" x="10.7" y="10.7"/>
  </clipPath>
 </defs>
</svg>
