<?xml version="1.0" encoding="utf-8" standalone="no"?>
<!DOCTYPE svg PUBLIC "-//W3C//DTD SVG 1.1//EN"
  "http://www.w3.org/Graphics/SVG/1.1/DTD/svg11.dtd">
<!-- Created with matplotlib (http://matplotlib.org/) -->
<svg height="280.8pt" version="1.1" viewBox="0 0 424.8 280.8" width="424.8pt" xmlns="http://www.w3.org/2000/svg" xmlns:xlink="http://www.w3.org/1999/xlink">
 <defs>
  <style type="text/css">
*{stroke-linecap:butt;stroke-linejoin:round;}
  </style>
 </defs>
 <g id="figure_1">
  <g id="patch_1">
   <path d="M 0 280.8 
L 424.8 280.8 
L 424.8 0 
L 0 0 
z
" style="fill:#ffffff;"/>
  </g>
  <g id="axes_1">
   <g id="patch_2">
    <path d="M 10.7 270.1 
L 414.1 270.1 
L 414.1 10.7 
L 10.7 10.7 
z
" style="fill:#ffffff;"/>
   </g>
   <g id="matplotlib.axis_1"/>
   <g id="matplotlib.axis_2"/>
   <g id="patch_3">
    <path d="M 233.949145 270.1 
L 233.949145 10.7 
" style="fill:none;stroke:#808080;stroke-linecap:square;stroke-linejoin:miter;stroke-width:2;"/>
   </g>
   <g id="patch_4">
    <path d="M 10.7 140.4 
L 414.1 140.4 
" style="fill:none;stroke:#808080;stroke-linecap:square;stroke-linejoin:miter;stroke-width:2;"/>
   </g>
   <g id="line2d_1">
    <path clip-path="url(#pf884fe3ba2)" d="M 51.264058 -1 
L 54.343124 12.291595 
L 58.002226 27.148307 
L 61.386945 40.010173 
L 64.68796 51.762324 
L 67.824107 62.22398 
L 71.330897 73.134256 
L 74.582125 82.528988 
L 77.941851 91.532288 
L 81.226386 99.663881 
L 84.487353 107.103572 
L 87.696845 113.830458 
L 90.856093 119.895326 
L 93.721284 124.934642 
L 96.545525 129.487519 
L 99.408888 133.697906 
L 102.266807 137.507618 
L 105.100496 140.912038 
L 107.868282 143.892355 
L 110.808335 146.699699 
L 113.100911 148.64251 
L 116.030656 150.824139 
L 118.862432 152.625338 
L 121.407097 153.997882 
L 124.172864 155.237978 
L 126.639887 156.133315 
L 129.590591 156.956726 
L 132.24213 157.479155 
L 135.562362 157.861394 
L 138.853261 157.962788 
L 141.842263 157.834209 
L 145.386509 157.43315 
L 148.745956 156.827837 
L 152.517941 155.916862 
L 156.195309 154.823908 
L 161.008278 153.139936 
L 166.569087 150.920624 
L 174.085731 147.63702 
L 186.692831 142.074172 
L 192.677029 139.710984 
L 197.822204 137.963033 
L 201.973828 136.80523 
L 205.703511 135.997253 
L 209.105385 135.480326 
L 212.83239 135.184933 
L 216.086083 135.183159 
L 218.797374 135.38032 
L 221.519804 135.773328 
L 224.222893 136.369298 
L 226.798489 137.139199 
L 229.370118 138.115411 
L 232.244902 139.46519 
L 232.955787 139.842678 
L 232.955787 139.842678 
" style="fill:none;stroke:#ff0000;stroke-linecap:square;stroke-width:5;"/>
   </g>
   <g id="line2d_2">
    <path clip-path="url(#pf884fe3ba2)" d="M 234.573663 140.768436 
L 237.015113 142.345666 
L 239.571059 144.237907 
L 242.255458 146.501937 
L 245.313564 149.441701 
L 248.250542 152.642395 
L 251.186434 156.227439 
L 253.71169 159.631442 
L 256.667548 164.006446 
L 259.839306 169.186987 
L 262.485903 173.908846 
L 265.574386 179.894516 
L 268.286572 185.586983 
L 271.155839 192.067463 
L 274.069509 199.145317 
L 277.398955 207.866059 
L 280.612556 216.944239 
L 284.109132 227.583693 
L 287.627883 239.118438 
L 291.142618 251.496062 
L 294.443091 263.92219 
L 297.935415 277.942963 
L 298.857943 281.8 
L 298.857943 281.8 
" style="fill:none;stroke:#ff0000;stroke-linecap:square;stroke-width:5;"/>
   </g>
  </g>
 </g>
 <defs>
  <clipPath id="pf884fe3ba2">
   <rect height="259.4" width="403.4" x="10.7" y="10.7"/>
  </clipPath>
 </defs>
</svg>
