<?xml version="1.0" encoding="utf-8" standalone="no"?>
<!DOCTYPE svg PUBLIC "-//W3C//DTD SVG 1.1//EN"
  "http://www.w3.org/Graphics/SVG/1.1/DTD/svg11.dtd">
<!-- Created with matplotlib (http://matplotlib.org/) -->
<svg height="280.8pt" version="1.1" viewBox="0 0 424.8 280.8" width="424.8pt" xmlns="http://www.w3.org/2000/svg" xmlns:xlink="http://www.w3.org/1999/xlink">
 <defs>
  <style type="text/css">
*{stroke-linecap:butt;stroke-linejoin:round;}
  </style>
 </defs>
 <g id="figure_1">
  <g id="patch_1">
   <path d="M 0 280.8 
L 424.8 280.8 
L 424.8 0 
L 0 0 
z
" style="fill:#ffffff;"/>
  </g>
  <g id="axes_1">
   <g id="patch_2">
    <path d="M 10.7 270.1 
L 414.1 270.1 
L 414.1 10.7 
L 10.7 10.7 
z
" style="fill:#ffffff;"/>
   </g>
   <g id="matplotlib.axis_1"/>
   <g id="matplotlib.axis_2"/>
   <g id="patch_3">
    <path d="M 212.4 270.1 
L 212.4 10.7 
" style="fill:none;stroke:#808080;stroke-linecap:square;stroke-linejoin:miter;stroke-width:2;"/>
   </g>
   <g id="patch_4">
    <path d="M 10.7 158.215934 
L 414.1 158.215934 
" style="fill:none;stroke:#808080;stroke-linecap:square;stroke-linejoin:miter;stroke-width:2;"/>
   </g>
   <g id="line2d_1">
    <path clip-path="url(#p0b2a55c000)" d="M 18.457692 15.688462 
L 20.147006 18.160588 
L 22.12239 21.023918 
L 24.23852 24.058449 
L 26.297379 26.978284 
L 27.713968 28.968608 
L 29.130557 30.943724 
L 30.200664 32.425665 
L 31.635619 34.399246 
L 33.070575 36.357223 
L 33.36873 36.762094 
L 35.01396 38.984067 
L 36.65919 41.185527 
L 37.469618 42.262409 
L 39.072702 44.377897 
L 41.216445 47.176421 
L 42.918494 49.373537 
L 45.112164 52.172888 
L 46.686691 54.159666 
L 48.261218 56.127656 
L 50.564169 58.972261 
L 50.757375 59.209082 
L 52.520697 61.357385 
L 54.284019 63.482125 
L 56.334486 65.923233 
L 57.825619 67.678434 
L 59.262725 69.354095 
L 60.394552 70.662784 
L 62.155616 72.679733 
L 63.916681 74.673178 
L 65.239932 76.155572 
L 67.9335 79.13209 
L 68.329006 79.564513 
L 70.672308 82.102223 
L 72.788175 84.357878 
L 74.353129 86.004395 
L 75.918083 87.632352 
L 77.726197 89.490149 
L 79.283912 91.070798 
L 81.695914 93.48203 
L 82.763889 94.535582 
L 84.826235 96.545613 
L 87.535306 99.136983 
L 87.729594 99.320692 
L 89.997497 101.443951 
L 91.424693 102.76014 
L 92.851889 104.060891 
L 94.707799 105.729287 
L 96.600102 107.403521 
L 98.796234 109.312549 
L 100.312523 110.609281 
L 102.486819 112.438334 
L 105.160655 114.638488 
L 105.677407 115.057448 
L 108.330394 117.176507 
L 109.610952 118.180259 
L 111.652485 119.754794 
L 114.36798 121.800175 
L 115.36262 122.53538 
L 117.504332 124.09301 
L 119.253129 125.339099 
L 121.421945 126.852272 
L 123.352207 128.169026 
L 125.751646 129.766469 
L 128.496765 131.540538 
L 128.675357 131.653976 
L 131.214973 133.240943 
L 133.519713 134.638832 
L 136.211678 136.220614 
L 136.478006 136.374121 
L 137.899488 137.18435 
L 139.320969 137.979265 
L 141.550772 139.195356 
L 142.413063 139.65553 
L 143.811711 140.389955 
L 145.210359 141.109554 
L 146.622044 141.820828 
L 148.753062 142.86593 
L 150.473366 143.684502 
L 151.938991 144.364197 
L 153.404617 145.027613 
L 154.831286 145.657759 
L 155.980636 146.154198 
L 158.410894 147.170934 
L 159.974286 147.801344 
L 161.725082 148.485335 
L 163.475878 149.146096 
L 164.349799 149.467227 
L 165.816994 149.993347 
L 167.284189 150.503153 
L 168.691217 150.976729 
L 170.448689 151.547182 
L 172.072949 152.053583 
L 174.013595 152.632411 
L 176.601131 153.359784 
L 178.984723 153.984929 
L 179.574641 154.132999 
L 181.33041 154.558096 
L 183.5883 155.070423 
L 185.124075 155.396821 
L 186.739421 155.720843 
L 188.354767 156.02509 
L 190.808564 156.449422 
L 190.98783 156.478634 
L 192.917657 156.777679 
L 194.847484 157.0485 
L 194.906975 157.056401 
L 196.982778 157.315264 
L 199.70274 157.605029 
L 201.959808 157.802915 
L 204.087236 157.954089 
L 206.033038 158.062325 
L 206.768084 158.095745 
L 208.209502 158.149394 
L 209.650921 158.187297 
" style="fill:none;stroke:#ff0000;stroke-linecap:square;stroke-width:5;"/>
   </g>
   <g id="line2d_2">
    <path clip-path="url(#p0b2a55c000)" d="M 214.476607 158.199594 
L 216.313473 158.157901 
L 218.150339 158.090637 
L 219.446018 158.027811 
L 220.223675 157.983994 
L 222.659411 157.817094 
L 225.07521 157.607149 
L 226.493856 157.463249 
L 227.912502 157.304097 
L 229.843642 157.062938 
L 231.686456 156.806456 
L 232.163504 156.735867 
L 233.672021 156.501302 
L 235.180537 156.249491 
L 235.924481 156.118958 
L 237.912003 155.749653 
L 240.14139 155.299784 
L 242.370819 154.812239 
L 245.055601 154.17512 
L 245.99686 153.93882 
L 248.115245 153.382445 
L 249.533585 152.990923 
L 252.167139 152.223515 
L 253.682537 151.75811 
L 255.197934 151.275301 
L 255.732246 151.100918 
L 258.281536 150.239122 
L 260.82339 149.330803 
L 263.029677 148.502701 
L 264.213676 148.043093 
L 265.498311 147.532401 
L 268.204786 146.415544 
L 270.826216 145.280858 
L 272.139316 144.692906 
L 273.927194 143.871359 
L 275.934919 142.919915 
L 277.717161 142.04973 
L 278.872911 141.472565 
L 280.85866 140.457271 
L 282.603004 139.540751 
L 284.347348 138.601172 
L 285.536157 137.947615 
L 286.758878 137.264241 
L 288.17897 136.456336 
L 289.599062 135.633148 
L 291.382405 134.577746 
L 292.621045 133.830522 
L 294.908951 132.419742 
L 297.05019 131.063464 
L 298.313632 130.24689 
L 299.924604 129.188157 
L 301.535576 128.109756 
L 302.916392 127.169771 
L 305.341225 125.484107 
L 306.138338 124.920248 
L 307.520626 123.931036 
L 308.902914 122.927343 
L 311.491067 121.00912 
L 312.753849 120.054777 
L 314.429169 118.770008 
L 316.839466 116.884283 
L 319.515088 114.739415 
L 320.61567 113.841403 
L 322.205797 112.527739 
L 324.326773 110.745694 
L 325.799391 109.488346 
L 327.27201 108.214564 
L 327.494964 108.020281 
L 329.230944 106.494657 
L 330.966925 104.946194 
L 331.550128 104.420862 
L 333.29632 102.832532 
L 335.042511 101.221095 
L 336.600999 99.76336 
L 337.379962 99.027855 
L 338.878924 97.599583 
L 340.377885 96.154283 
L 341.270196 95.285831 
L 342.758689 93.823708 
L 344.247183 92.344795 
L 345.623106 90.962793 
L 347.008802 89.556473 
L 348.394499 88.135602 
L 349.965588 86.50703 
L 352.212223 84.145695 
L 354.221496 82.001437 
L 356.422478 79.617476 
L 358.004605 77.881139 
L 359.81733 75.86841 
L 361.179639 74.339401 
L 362.695148 72.621921 
L 364.527022 70.522679 
L 365.971403 68.849553 
L 367.415785 67.160616 
L 368.64318 65.712979 
L 370.559224 63.4303 
L 372.073577 61.606492 
L 373.587929 59.765305 
L 374.863847 58.200521 
L 376.435552 56.256027 
L 378.007256 54.292811 
L 378.344438 53.869198 
L 380.365849 51.311568 
L 382.050162 49.156806 
L 384.722804 45.693538 
L 387.399953 42.17016 
L 388.93761 40.121902 
L 390.685813 37.771416 
L 392.576551 35.203218 
L 394.855149 32.072191 
L 395.783434 30.785352 
L 397.36572 28.576848 
L 398.948006 26.34937 
L 401.417698 22.83472 
L 402.220305 21.682567 
L 403.740509 19.486914 
L 405.260713 17.273748 
L 406.342308 15.688462 
" style="fill:none;stroke:#ff0000;stroke-linecap:square;stroke-width:5;"/>
   </g>
  </g>
 </g>
 <defs>
  <clipPath id="p0b2a55c000">
   <rect height="259.4" width="403.4" x="10.7" y="10.7"/>
  </clipPath>
 </defs>
</svg>
