<?xml version="1.0" encoding="utf-8" standalone="no"?>
<!DOCTYPE svg PUBLIC "-//W3C//DTD SVG 1.1//EN"
  "http://www.w3.org/Graphics/SVG/1.1/DTD/svg11.dtd">
<!-- Created with matplotlib (http://matplotlib.org/) -->
<svg height="280.8pt" version="1.1" viewBox="0 0 424.8 280.8" width="424.8pt" xmlns="http://www.w3.org/2000/svg" xmlns:xlink="http://www.w3.org/1999/xlink">
 <defs>
  <style type="text/css">
*{stroke-linecap:butt;stroke-linejoin:round;}
  </style>
 </defs>
 <g id="figure_1">
  <g id="patch_1">
   <path d="M 0 280.8 
L 424.8 280.8 
L 424.8 0 
L 0 0 
z
" style="fill:#ffffff;"/>
  </g>
  <g id="axes_1">
   <g id="patch_2">
    <path d="M 10.7 270.1 
L 414.1 270.1 
L 414.1 10.7 
L 10.7 10.7 
z
" style="fill:#ffffff;"/>
   </g>
   <g id="matplotlib.axis_1"/>
   <g id="matplotlib.axis_2"/>
   <g id="patch_3">
    <path d="M 212.4 270.1 
L 212.4 10.7 
" style="fill:none;stroke:#808080;stroke-linecap:square;stroke-linejoin:miter;stroke-width:2;"/>
   </g>
   <g id="patch_4">
    <path d="M 10.7 140.4 
L 414.1 140.4 
" style="fill:none;stroke:#808080;stroke-linecap:square;stroke-linejoin:miter;stroke-width:2;"/>
   </g>
   <g id="line2d_1">
    <path clip-path="url(#pb0169a89e1)" d="M 18.457692 90.515385 
L 21.231104 92.298783 
L 22.483328 93.104006 
L 24.171903 94.189818 
L 26.061377 95.404814 
L 27.821374 96.536552 
L 29.24863 97.454327 
L 32.462338 99.520851 
L 33.620749 100.265749 
L 36.328209 102.006738 
L 37.689233 102.881923 
L 39.650058 104.142801 
L 41.01912 105.023154 
L 43.159335 106.399386 
L 45.398383 107.83917 
L 47.695416 109.316241 
L 49.985325 110.788731 
L 50.998326 111.440125 
L 54.143371 113.462497 
L 56.104343 114.723469 
L 57.428589 115.575004 
L 60.159121 117.33083 
L 60.782676 117.731797 
L 63.891308 119.730754 
L 64.418226 120.06958 
L 66.886458 121.656738 
L 69.329343 123.227596 
L 71.459016 124.597049 
L 72.655943 125.366714 
L 75.633485 127.281375 
L 77.352079 128.38649 
L 78.614392 129.198201 
L 80.953062 130.702045 
L 82.30599 131.572024 
L 85.339053 133.522388 
L 86.192317 134.071066 
L 88.622811 135.633956 
L 90.102905 136.585708 
L 91.748905 137.644142 
L 93.922872 139.042077 
L 96.030274 140.397208 
L 98.484447 141.975325 
L 100.101247 143.014983 
L 101.397644 143.848611 
L 104.152867 145.620314 
L 106.76414 147.299451 
L 108.733605 148.565885 
L 109.264911 148.907532 
L 111.334223 150.238171 
L 113.574782 151.678927 
L 116.129552 153.321731 
L 117.300341 154.074589 
L 119.536547 155.512546 
L 122.145325 157.190079 
L 122.784777 157.601269 
L 126.193116 159.792948 
L 127.733786 160.783651 
L 129.390484 161.848965 
L 132.159949 163.629826 
L 132.720554 163.990313 
L 135.193913 165.580768 
L 137.174376 166.854274 
L 138.710999 167.842375 
L 141.678415 169.750525 
L 143.50681 170.926245 
L 144.710252 171.700099 
L 147.935695 173.77417 
L 149.916862 175.048128 
L 151.228919 175.891825 
L 152.655085 176.808899 
L 154.579833 178.046578 
L 156.602488 179.347214 
L 158.359983 180.477344 
L 160.916279 182.121129 
L 162.81499 183.342065 
L 163.993993 184.100205 
L 166.325536 185.599467 
L 168.665369 187.104059 
L 171.303179 188.800261 
L 173.335963 190.107411 
L 174.881481 191.101232 
L 175.861943 191.731702 
L 178.926829 193.702529 
L 180.606612 194.782687 
L 182.764059 196.169999 
L 184.253517 197.127772 
L 186.194049 198.3756 
L 188.633678 199.944365 
L 190.830589 201.357054 
L 191.354923 201.694219 
L 193.002585 202.753722 
L 195.684368 204.4782 
L 197.981945 205.955621 
L 199.625006 207.012165 
L 202.433926 208.818397 
L 204.276928 210.00351 
L 205.099266 210.532301 
L 206.884865 211.680502 
L 209.516823 213.372942 
" style="fill:none;stroke:#ff0000;stroke-linecap:square;stroke-width:5;"/>
   </g>
   <g id="line2d_2">
    <path clip-path="url(#pb0169a89e1)" d="M 215.199798 217.027289 
L 216.883295 218.109835 
L 219.703008 219.923007 
L 221.915605 221.345783 
L 223.448483 222.331476 
L 225.360483 223.560957 
L 226.541174 224.320182 
L 229.584863 226.277378 
L 230.358823 226.775061 
L 233.348196 228.697329 
L 234.739683 229.592103 
L 236.060471 230.441416 
L 238.782439 232.191734 
L 241.247904 233.777112 
L 243.543711 235.253395 
L 244.399164 235.80348 
L 245.549646 236.54328 
L 248.034605 238.141193 
L 250.99956 240.047761 
L 252.179752 240.806665 
L 253.50249 241.65723 
L 256.282171 243.44466 
L 257.961903 244.524785 
L 260.522119 246.171092 
L 262.34726 247.34472 
L 264.536831 248.752689 
L 266.868062 250.25175 
L 267.895865 250.912663 
L 269.381436 251.867936 
L 271.526152 253.247061 
L 273.323236 254.402648 
L 274.906157 255.42052 
L 277.219159 256.90786 
L 279.019432 258.065497 
L 280.745923 259.175689 
L 284.265279 261.438756 
L 285.863433 262.466424 
L 287.899648 263.775779 
L 288.62066 264.239415 
L 291.414963 266.036247 
L 292.539595 266.759424 
L 294.58406 268.074085 
L 297.052786 269.661561 
L 299.283462 271.095961 
L 301.476365 272.506073 
L 302.951636 273.454723 
L 304.27699 274.306971 
L 305.988858 275.40776 
L 308.862668 277.255718 
L 310.601689 278.373969 
L 312.223784 279.417031 
L 315.175904 281.315345 
L 315.929604 281.8 
" style="fill:none;stroke:#ff0000;stroke-linecap:square;stroke-width:5;"/>
   </g>
  </g>
 </g>
 <defs>
  <clipPath id="pb0169a89e1">
   <rect height="259.4" width="403.4" x="10.7" y="10.7"/>
  </clipPath>
 </defs>
</svg>
