<?xml version="1.0" encoding="utf-8" standalone="no"?>
<!DOCTYPE svg PUBLIC "-//W3C//DTD SVG 1.1//EN"
  "http://www.w3.org/Graphics/SVG/1.1/DTD/svg11.dtd">
<!-- Created with matplotlib (http://matplotlib.org/) -->
<svg height="280.8pt" version="1.1" viewBox="0 0 424.8 280.8" width="424.8pt" xmlns="http://www.w3.org/2000/svg" xmlns:xlink="http://www.w3.org/1999/xlink">
 <defs>
  <style type="text/css">
*{stroke-linecap:butt;stroke-linejoin:round;}
  </style>
 </defs>
 <g id="figure_1">
  <g id="patch_1">
   <path d="M 0 280.8 
L 424.8 280.8 
L 424.8 0 
L 0 0 
z
" style="fill:#ffffff;"/>
  </g>
  <g id="axes_1">
   <g id="patch_2">
    <path d="M 10.7 270.1 
L 414.1 270.1 
L 414.1 10.7 
L 10.7 10.7 
z
" style="fill:#ffffff;"/>
   </g>
   <g id="matplotlib.axis_1"/>
   <g id="matplotlib.axis_2"/>
   <g id="patch_3">
    <path d="M 212.4 270.1 
L 212.4 10.7 
" style="fill:none;stroke:#808080;stroke-linecap:square;stroke-linejoin:miter;stroke-width:2;"/>
   </g>
   <g id="patch_4">
    <path d="M 10.7 86.952198 
L 414.1 86.952198 
" style="fill:none;stroke:#808080;stroke-linecap:square;stroke-linejoin:miter;stroke-width:2;"/>
   </g>
   <g id="line2d_1">
    <path clip-path="url(#p06d55cea5a)" d="M 18.457692 55.279426 
L 33.111202 55.953037 
L 49.419366 56.926538 
L 61.024425 57.819076 
L 71.057527 58.77444 
L 80.611722 59.894412 
L 87.928427 60.932044 
L 95.532432 62.22351 
L 102.61729 63.676199 
L 106.397922 64.573276 
L 112.704545 66.303043 
L 116.225952 67.420312 
L 120.466725 68.939917 
L 124.321425 70.515883 
L 128.688553 72.570945 
L 132.822953 74.836444 
L 136.725552 77.32448 
L 140.121476 79.825435 
L 142.405657 81.716252 
L 145.775462 84.868805 
L 148.267324 87.526491 
L 150.977386 90.791918 
L 153.795972 94.680029 
L 155.506358 97.32625 
L 157.929764 101.510964 
L 160.188414 105.94734 
L 162.197243 110.406531 
L 164.424456 116.019899 
L 166.383587 121.646291 
L 168.114392 127.250782 
L 169.816096 133.440578 
L 171.564595 140.623621 
L 173.303819 148.745802 
L 175.083104 158.257864 
L 176.882419 169.367191 
L 178.312594 179.480566 
L 179.80603 191.494072 
L 181.223239 204.527545 
L 182.640449 219.467067 
L 184.105979 237.33699 
L 185.513322 257.320177 
L 186.905289 280.428739 
L 186.981087 281.8 
L 186.981087 281.8 
" style="fill:none;stroke:#ff0000;stroke-linecap:square;stroke-width:5;"/>
   </g>
   <g id="line2d_2">
    <path clip-path="url(#p06d55cea5a)" d="M 237.818904 281.8 
L 239.158121 259.304355 
L 240.674142 237.598662 
L 242.240394 218.55723 
L 243.724251 203.088187 
L 245.392449 188.128521 
L 246.97858 175.865498 
L 248.603516 164.936383 
L 250.3273 154.843446 
L 252.248325 145.102667 
L 254.153588 136.739157 
L 256.043851 129.500221 
L 257.944215 123.112117 
L 259.843165 117.480084 
L 261.856285 112.203636 
L 264.093229 107.048384 
L 266.188097 102.792068 
L 268.640988 98.400207 
L 270.863862 94.888187 
L 272.842804 92.082002 
L 275.654112 88.539242 
L 278.644426 85.254912 
L 281.116802 82.856963 
L 283.886492 80.460576 
L 287.457612 77.75365 
L 290.272907 75.87694 
L 293.948779 73.71302 
L 296.78293 72.234084 
L 301.510131 70.074033 
L 304.269659 68.964327 
L 310.112434 66.917346 
L 315.297643 65.385026 
L 320.352151 64.098792 
L 326.023862 62.854918 
L 331.377007 61.840315 
L 337.655233 60.812149 
L 346.887723 59.553667 
L 356.585882 58.483342 
L 367.183357 57.536067 
L 379.271066 56.668178 
L 392.524687 55.91014 
L 406.342308 55.279426 
L 406.342308 55.279426 
" style="fill:none;stroke:#ff0000;stroke-linecap:square;stroke-width:5;"/>
   </g>
  </g>
 </g>
 <defs>
  <clipPath id="p06d55cea5a">
   <rect height="259.4" width="403.4" x="10.7" y="10.7"/>
  </clipPath>
 </defs>
</svg>
