<?xml version="1.0" encoding="utf-8" standalone="no"?>
<!DOCTYPE svg PUBLIC "-//W3C//DTD SVG 1.1//EN"
  "http://www.w3.org/Graphics/SVG/1.1/DTD/svg11.dtd">
<!-- Created with matplotlib (http://matplotlib.org/) -->
<svg height="280.8pt" version="1.1" viewBox="0 0 424.8 280.8" width="424.8pt" xmlns="http://www.w3.org/2000/svg" xmlns:xlink="http://www.w3.org/1999/xlink">
 <defs>
  <style type="text/css">
*{stroke-linecap:butt;stroke-linejoin:round;}
  </style>
 </defs>
 <g id="figure_1">
  <g id="patch_1">
   <path d="M 0 280.8 
L 424.8 280.8 
L 424.8 0 
L 0 0 
z
" style="fill:#ffffff;"/>
  </g>
  <g id="axes_1">
   <g id="patch_2">
    <path d="M 10.7 270.1 
L 414.1 270.1 
L 414.1 10.7 
L 10.7 10.7 
z
" style="fill:#ffffff;"/>
   </g>
   <g id="matplotlib.axis_1"/>
   <g id="matplotlib.axis_2"/>
   <g id="patch_3">
    <path d="M 309.371154 270.1 
L 309.371154 10.7 
" style="fill:none;stroke:#808080;stroke-linecap:square;stroke-linejoin:miter;stroke-width:2;"/>
   </g>
   <g id="patch_4">
    <path d="M 10.7 140.4 
L 414.1 140.4 
" style="fill:none;stroke:#808080;stroke-linecap:square;stroke-linejoin:miter;stroke-width:2;"/>
   </g>
   <g id="line2d_1">
    <path clip-path="url(#pde7e2e265b)" d="M 29.872901 281.8 
L 33.652027 271.676141 
L 38.053043 260.418986 
L 42.936946 248.574848 
L 47.750105 237.551409 
L 52.497477 227.291957 
L 56.88246 218.341512 
L 60.994861 210.393663 
L 65.945371 201.382437 
L 70.649291 193.36616 
L 75.367782 185.842188 
L 79.726732 179.336856 
L 84.501681 172.685018 
L 88.239296 167.813088 
L 92.457815 162.655824 
L 96.487854 158.056337 
L 100.106999 154.189433 
L 104.401863 149.913127 
L 108.936442 145.752707 
L 113.899038 141.599184 
L 118.139667 138.36615 
L 122.418905 135.385648 
L 126.43005 132.83766 
L 130.659369 130.39674 
L 134.610313 128.333516 
L 138.584675 126.459107 
L 143.526294 124.39423 
L 147.958649 122.777554 
L 152.631018 121.298011 
L 157.904165 119.884584 
L 163.275643 118.700339 
L 167.811875 117.88244 
L 173.90297 117.018289 
L 179.689731 116.415021 
L 186.193785 115.949983 
L 193.959284 115.629223 
L 204.259138 115.47245 
L 231.637994 115.262937 
L 239.390696 114.919855 
L 246.101537 114.410665 
L 252.96978 113.631204 
L 259.115799 112.669002 
L 263.786593 111.746116 
L 269.498803 110.365674 
L 274.922766 108.772352 
L 280.375175 106.866371 
L 283.684603 105.549461 
L 288.527465 103.389755 
L 292.264217 101.524018 
L 296.703115 99.06917 
L 301.523998 96.093788 
L 306.086357 92.965179 
L 307.506628 91.926643 
L 307.506628 91.926643 
" style="fill:none;stroke:#ff0000;stroke-linecap:square;stroke-width:5;"/>
   </g>
   <g id="line2d_2">
    <path clip-path="url(#pde7e2e265b)" d="M 310.940498 89.28471 
L 312.082067 88.364508 
L 313.223636 87.422986 
L 314.043337 86.733642 
L 314.863037 86.033089 
L 315.842718 85.18098 
L 316.822399 84.312577 
L 317.888735 83.348662 
L 319.221229 82.11646 
L 320.553722 80.85313 
L 321.463456 79.972537 
L 322.373189 79.07713 
L 323.504239 77.943048 
L 324.635289 76.785639 
L 325.957083 75.403164 
L 326.878499 74.420208 
L 327.799916 73.421301 
L 328.646418 72.489441 
L 329.49292 71.543909 
L 330.339422 70.584607 
L 331.185924 69.611435 
L 331.815379 68.878739 
L 332.979744 67.5029 
L 334.144109 66.100231 
L 335.537001 64.386658 
L 336.929892 62.633876 
L 337.729108 61.610286 
L 338.964849 60.001729 
L 340.200589 58.361453 
L 341.055472 57.207987 
L 341.910356 56.039089 
L 343.18356 54.26939 
L 344.456763 52.464896 
L 345.163243 51.448478 
L 345.869722 50.421185 
L 346.712776 49.180986 
L 347.55583 47.92512 
L 348.310846 46.787021 
L 349.065863 45.636207 
L 349.945852 44.278766 
L 350.825841 42.903843 
L 351.705831 41.511328 
L 352.58582 40.101109 
L 352.746793 39.841218 
L 353.901152 37.959982 
L 355.055511 36.047801 
L 355.844285 34.723279 
L 356.63306 33.38411 
L 357.421834 32.030213 
L 358.210609 30.661508 
L 358.916614 29.423802 
L 360.009789 27.483675 
L 361.102965 25.514598 
L 361.854832 24.143385 
L 362.6067 22.758307 
L 363.358567 21.359292 
L 364.110435 19.946272 
L 364.621235 18.978276 
L 365.380277 17.527802 
L 366.139318 16.062862 
L 366.89836 14.583386 
L 367.657401 13.0893 
L 368.710414 10.992242 
L 369.763426 8.866739 
L 370.548656 7.263125 
L 371.596291 5.098687 
L 372.643926 2.905573 
L 373.564346 0.95496 
L 374.476339 -1 
" style="fill:none;stroke:#ff0000;stroke-linecap:square;stroke-width:5;"/>
   </g>
  </g>
 </g>
 <defs>
  <clipPath id="pde7e2e265b">
   <rect height="259.4" width="403.4" x="10.7" y="10.7"/>
  </clipPath>
 </defs>
</svg>
