<?xml version="1.0" encoding="utf-8" standalone="no"?>
<!DOCTYPE svg PUBLIC "-//W3C//DTD SVG 1.1//EN"
  "http://www.w3.org/Graphics/SVG/1.1/DTD/svg11.dtd">
<!-- Created with matplotlib (http://matplotlib.org/) -->
<svg height="280.8pt" version="1.1" viewBox="0 0 424.8 280.8" width="424.8pt" xmlns="http://www.w3.org/2000/svg" xmlns:xlink="http://www.w3.org/1999/xlink">
 <defs>
  <style type="text/css">
*{stroke-linecap:butt;stroke-linejoin:round;}
  </style>
 </defs>
 <g id="figure_1">
  <g id="patch_1">
   <path d="M 0 280.8 
L 424.8 280.8 
L 424.8 0 
L 0 0 
z
" style="fill:#ffffff;"/>
  </g>
  <g id="axes_1">
   <g id="patch_2">
    <path d="M 10.7 270.1 
L 414.1 270.1 
L 414.1 10.7 
L 10.7 10.7 
z
" style="fill:#ffffff;"/>
   </g>
   <g id="matplotlib.axis_1"/>
   <g id="matplotlib.axis_2"/>
   <g id="patch_3">
    <path d="M 190.850855 270.1 
L 190.850855 10.7 
" style="fill:none;stroke:#808080;stroke-linecap:square;stroke-linejoin:miter;stroke-width:2;"/>
   </g>
   <g id="patch_4">
    <path d="M 10.7 140.4 
L 414.1 140.4 
" style="fill:none;stroke:#808080;stroke-linecap:square;stroke-linejoin:miter;stroke-width:2;"/>
   </g>
   <g id="line2d_1">
    <path clip-path="url(#p32ee8879c6)" d="M 45.859347 -1 
L 48.469249 27.761352 
L 51.237678 55.861612 
L 53.95726 81.147229 
L 56.533273 103.063338 
L 59.054818 122.675021 
L 61.577229 140.543391 
L 64.076462 156.590662 
L 66.328616 169.694862 
L 68.626205 181.790475 
L 70.933267 192.693204 
L 73.101467 201.849744 
L 75.076705 209.307806 
L 76.957284 215.654738 
L 78.904416 221.480019 
L 80.822443 226.503526 
L 82.51948 230.378603 
L 84.232317 233.767069 
L 85.920926 236.611795 
L 87.587351 238.953915 
L 89.045473 240.637443 
L 90.541093 242.02175 
L 91.835737 242.949034 
L 93.162577 243.646801 
L 94.604545 244.124565 
L 95.903534 244.313043 
L 97.161906 244.284245 
L 98.582558 244.010189 
L 100.028364 243.477695 
L 101.63679 242.596694 
L 103.267843 241.406181 
L 105.11923 239.709681 
L 107.001615 237.628153 
L 108.97491 235.082296 
L 111.051492 232.026149 
L 113.069206 228.711008 
L 115.524498 224.252178 
L 118.101861 219.113205 
L 120.901555 213.053106 
L 124.034104 205.753388 
L 127.503184 197.122823 
L 131.438954 186.763501 
L 136.689736 172.246004 
L 143.677933 152.20632 
L 155.363091 118.640694 
L 161.028029 103.071363 
L 165.377265 91.684927 
L 169.638709 81.131002 
L 173.385693 72.424537 
L 176.886412 64.832886 
L 180.265995 58.045684 
L 183.165045 52.676765 
L 186.091928 47.704189 
L 189.016777 43.20467 
L 190.188472 41.537968 
L 190.188472 41.537968 
" style="fill:none;stroke:#ff0000;stroke-linecap:square;stroke-width:5;"/>
   </g>
   <g id="line2d_2">
    <path clip-path="url(#p32ee8879c6)" d="M 191.204991 40.156207 
L 193.620466 37.116075 
L 195.872538 34.595696 
L 198.008307 32.490944 
L 200.176863 30.642781 
L 202.35651 29.08244 
L 204.443954 27.870576 
L 206.368395 27.000269 
L 208.311725 26.36333 
L 210.289994 25.965728 
L 212.179848 25.822847 
L 213.894029 25.893704 
L 215.817663 26.200156 
L 217.699377 26.731669 
L 219.638216 27.518153 
L 221.560767 28.536098 
L 223.399686 29.730029 
L 225.66106 31.490775 
L 227.555865 33.211794 
L 229.887013 35.632097 
L 232.406073 38.616698 
L 234.805977 41.809104 
L 237.360466 45.571609 
L 239.906563 49.684604 
L 242.801189 54.784678 
L 245.889456 60.701348 
L 249.283577 67.738229 
L 252.811259 75.603334 
L 256.610952 84.647777 
L 260.540098 94.555339 
L 264.83757 105.94288 
L 270.415177 121.395544 
L 277.664135 142.185291 
L 288.970911 174.668077 
L 294.088754 188.718066 
L 298.424174 199.98443 
L 302.172632 209.094481 
L 305.483357 216.541543 
L 308.336092 222.431053 
L 311.104977 227.617352 
L 313.350775 231.398845 
L 315.61395 234.788787 
L 317.792652 237.621286 
L 319.811954 239.841575 
L 321.482888 241.36571 
L 323.025517 242.507563 
L 324.532968 243.365875 
L 326.138738 243.987698 
L 327.595078 244.279665 
L 328.843369 244.315983 
L 330.140991 244.137016 
L 331.562673 243.678667 
L 332.810995 243.042546 
L 334.252569 242.026896 
L 335.637729 240.757883 
L 337.022191 239.192933 
L 338.443743 237.267545 
L 339.903085 234.944438 
L 341.436265 232.113234 
L 343.203278 228.336664 
L 344.848745 224.307966 
L 346.695126 219.178076 
L 348.575214 213.268245 
L 350.469964 206.585496 
L 352.522567 198.49143 
L 354.565177 189.520892 
L 356.713852 179.060268 
L 358.796546 167.88036 
L 361.170636 153.837994 
L 363.473659 138.84252 
L 365.903924 121.492723 
L 368.415379 101.851047 
L 370.828186 81.276532 
L 373.488387 56.578984 
L 376.149599 29.674849 
L 378.858829 -0.063679 
L 378.940614 -1 
L 378.940614 -1 
" style="fill:none;stroke:#ff0000;stroke-linecap:square;stroke-width:5;"/>
   </g>
  </g>
 </g>
 <defs>
  <clipPath id="p32ee8879c6">
   <rect height="259.4" width="403.4" x="10.7" y="10.7"/>
  </clipPath>
 </defs>
</svg>
