<?xml version="1.0" encoding="utf-8" standalone="no"?>
<!DOCTYPE svg PUBLIC "-//W3C//DTD SVG 1.1//EN"
  "http://www.w3.org/Graphics/SVG/1.1/DTD/svg11.dtd">
<!-- Created with matplotlib (http://matplotlib.org/) -->
<svg height="280.8pt" version="1.1" viewBox="0 0 424.8 280.8" width="424.8pt" xmlns="http://www.w3.org/2000/svg" xmlns:xlink="http://www.w3.org/1999/xlink">
 <defs>
  <style type="text/css">
*{stroke-linecap:butt;stroke-linejoin:round;}
  </style>
 </defs>
 <g id="figure_1">
  <g id="patch_1">
   <path d="M 0 280.8 
L 424.8 280.8 
L 424.8 0 
L 0 0 
z
" style="fill:#ffffff;"/>
  </g>
  <g id="axes_1">
   <g id="patch_2">
    <path d="M 10.7 270.1 
L 414.1 270.1 
L 414.1 10.7 
L 10.7 10.7 
z
" style="fill:#ffffff;"/>
   </g>
   <g id="matplotlib.axis_1"/>
   <g id="matplotlib.axis_2"/>
   <g id="patch_3">
    <path d="M 190.850855 270.1 
L 190.850855 10.7 
" style="fill:none;stroke:#808080;stroke-linecap:square;stroke-linejoin:miter;stroke-width:2;"/>
   </g>
   <g id="patch_4">
    <path d="M 10.7 191.75181 
L 414.1 191.75181 
" style="fill:none;stroke:#808080;stroke-linecap:square;stroke-linejoin:miter;stroke-width:2;"/>
   </g>
   <g id="line2d_1">
    <path clip-path="url(#pe15b82fbc1)" d="M 66.154991 281.8 
L 68.227597 269.133052 
L 70.356697 257.473096 
L 72.374381 247.604846 
L 74.451083 238.567144 
L 76.402915 231.037211 
L 78.336213 224.435778 
L 80.263471 218.644112 
L 82.081535 213.85125 
L 83.828045 209.816216 
L 85.66636 206.127419 
L 87.351667 203.211305 
L 89.047237 200.692383 
L 90.741538 198.558613 
L 92.306412 196.901017 
L 94.010527 195.40934 
L 95.628915 194.268969 
L 97.406754 193.296857 
L 99.080242 192.62318 
L 100.753729 192.158121 
L 102.733501 191.844631 
L 104.801071 191.752318 
L 107.011569 191.873803 
L 109.508489 192.227042 
L 112.587904 192.888011 
L 115.735612 193.714466 
L 123.475388 195.753169 
L 126.927863 196.406464 
L 129.761017 196.72602 
L 132.333977 196.806802 
L 134.93372 196.655543 
L 137.249498 196.302887 
L 139.661023 195.700031 
L 141.888129 194.917212 
L 144.143103 193.893426 
L 146.303492 192.687188 
L 148.495399 191.23251 
L 150.988892 189.290315 
L 153.561085 186.963417 
L 156.155096 184.283852 
L 158.667969 181.371684 
L 161.344545 177.932822 
L 164.197384 173.894532 
L 167.203224 169.238646 
L 170.264665 164.094726 
L 173.712881 157.847713 
L 177.435377 150.61305 
L 181.355748 142.509532 
L 186.009683 132.354611 
L 190.019308 123.24691 
L 190.019308 123.24691 
" style="fill:none;stroke:#ff0000;stroke-linecap:square;stroke-width:5;"/>
   </g>
   <g id="line2d_2">
    <path clip-path="url(#pe15b82fbc1)" d="M 191.767195 119.20012 
L 212.507889 71.160863 
L 216.907348 61.854384 
L 220.696023 54.358061 
L 224.148121 48.030425 
L 227.258833 42.799194 
L 230.17534 38.345441 
L 232.735501 34.827121 
L 235.211868 31.796865 
L 237.477416 29.364487 
L 239.702022 27.307812 
L 241.802501 25.680343 
L 243.755443 24.451092 
L 245.620805 23.540243 
L 247.388481 22.920658 
L 249.055224 22.558376 
L 250.794915 22.414443 
L 252.567403 22.518057 
L 254.154531 22.828371 
L 255.874636 23.39972 
L 257.556184 24.197063 
L 259.31339 25.284753 
L 261.03775 26.606611 
L 262.981877 28.400669 
L 264.889654 30.474827 
L 266.861717 32.945278 
L 269.060148 36.088971 
L 271.300039 39.711257 
L 273.59528 43.856722 
L 275.998236 48.658849 
L 278.498171 54.144524 
L 281.298383 60.86278 
L 284.251826 68.576566 
L 287.375352 77.394236 
L 290.745695 87.608563 
L 294.389915 99.38095 
L 298.712694 114.168388 
L 303.968841 133.035385 
L 319.716631 190.286024 
L 323.285674 202.139082 
L 326.327625 211.51133 
L 328.954063 218.920445 
L 331.384778 225.103768 
L 333.432835 229.735188 
L 335.302212 233.44411 
L 337.012517 236.360346 
L 338.575154 238.591739 
L 339.980683 240.219124 
L 341.286655 241.387897 
L 342.440813 242.129836 
L 343.542178 242.570354 
L 344.545613 242.734028 
L 345.553027 242.660809 
L 346.499516 242.366705 
L 347.524105 241.792822 
L 348.484012 241.005222 
L 349.550576 239.835787 
L 350.61714 238.344882 
L 351.816741 236.268616 
L 353.048151 233.679495 
L 354.362862 230.381349 
L 355.71439 226.390986 
L 357.162483 221.410179 
L 358.716986 215.213315 
L 360.344832 207.734752 
L 362.003857 199.019819 
L 363.73167 188.711514 
L 365.571533 176.282028 
L 367.421794 162.193023 
L 369.353476 145.694288 
L 371.257292 127.552032 
L 373.258198 106.36682 
L 375.349521 81.783634 
L 377.474677 54.112337 
L 379.65841 22.703056 
L 381.176923 -1 
L 381.176923 -1 
" style="fill:none;stroke:#ff0000;stroke-linecap:square;stroke-width:5;"/>
   </g>
  </g>
 </g>
 <defs>
  <clipPath id="pe15b82fbc1">
   <rect height="259.4" width="403.4" x="10.7" y="10.7"/>
  </clipPath>
 </defs>
</svg>
