<?xml version="1.0" encoding="utf-8" standalone="no"?>
<!DOCTYPE svg PUBLIC "-//W3C//DTD SVG 1.1//EN"
  "http://www.w3.org/Graphics/SVG/1.1/DTD/svg11.dtd">
<!-- Created with matplotlib (http://matplotlib.org/) -->
<svg height="280.8pt" version="1.1" viewBox="0 0 424.8 280.8" width="424.8pt" xmlns="http://www.w3.org/2000/svg" xmlns:xlink="http://www.w3.org/1999/xlink">
 <defs>
  <style type="text/css">
*{stroke-linecap:butt;stroke-linejoin:round;}
  </style>
 </defs>
 <g id="figure_1">
  <g id="patch_1">
   <path d="M 0 280.8 
L 424.8 280.8 
L 424.8 0 
L 0 0 
z
" style="fill:#ffffff;"/>
  </g>
  <g id="axes_1">
   <g id="patch_2">
    <path d="M 10.7 270.1 
L 414.1 270.1 
L 414.1 10.7 
L 10.7 10.7 
z
" style="fill:#ffffff;"/>
   </g>
   <g id="matplotlib.axis_1"/>
   <g id="matplotlib.axis_2"/>
   <g id="patch_3">
    <path d="M 212.4 270.1 
L 212.4 10.7 
" style="fill:none;stroke:#808080;stroke-linecap:square;stroke-linejoin:miter;stroke-width:2;"/>
   </g>
   <g id="patch_4">
    <path d="M 10.7 140.4 
L 414.1 140.4 
" style="fill:none;stroke:#808080;stroke-linecap:square;stroke-linejoin:miter;stroke-width:2;"/>
   </g>
   <g id="line2d_1">
    <path clip-path="url(#p666f08c82f)" d="M 21.296064 -1 
L 25.900356 8.364295 
L 30.474227 17.175275 
L 34.874771 25.194535 
L 39.365229 32.917384 
L 43.796312 40.082499 
L 48.051347 46.533986 
L 52.119535 52.302671 
L 55.999414 57.430052 
L 59.697399 61.962008 
L 63.157717 65.869334 
L 66.544482 69.354871 
L 69.48662 72.081108 
L 72.225555 74.332928 
L 74.752498 76.127142 
L 77.025872 77.466737 
L 78.960165 78.36138 
L 80.690035 78.931302 
L 82.291476 79.224212 
L 83.665098 79.257085 
L 84.933058 79.069601 
L 86.121619 78.662574 
L 87.235667 78.032201 
L 88.284111 77.1679 
L 89.239403 76.097371 
L 90.216328 74.65396 
L 91.119709 72.9238 
L 91.992663 70.790493 
L 92.858508 68.094087 
L 93.673886 64.858634 
L 94.479361 60.770311 
L 95.284837 55.456799 
L 96.041037 48.879903 
L 96.769852 40.395182 
L 97.450078 29.581679 
L 98.058336 16.191197 
L 98.613318 -1 
L 98.613318 -1 
" style="fill:none;stroke:#ff0000;stroke-linecap:square;stroke-width:5;"/>
   </g>
   <g id="line2d_2">
    <path clip-path="url(#p666f08c82f)" d="M 103.549743 281.8 
L 103.947723 253.913524 
L 104.522068 227.131183 
L 105.166846 207.417764 
L 105.853163 193.104175 
L 106.608111 182.007522 
L 107.428847 173.330472 
L 108.280166 166.705277 
L 109.18635 161.407164 
L 110.111307 157.275424 
L 111.103415 153.848934 
L 112.145301 151.053734 
L 113.196084 148.843699 
L 114.263276 147.066287 
L 115.437176 145.522514 
L 116.679499 144.246388 
L 118.047935 143.164565 
L 119.450491 142.32486 
L 121.068645 141.613357 
L 122.764841 141.092246 
L 124.905133 140.678589 
L 127.229754 140.454746 
L 129.989787 140.405785 
L 133.526763 140.582497 
L 137.61434 141.024365 
L 141.598501 141.666432 
L 144.940825 142.414569 
L 147.363117 143.169361 
L 149.188216 143.966151 
L 150.528141 144.784139 
L 151.616831 145.710098 
L 152.503327 146.766059 
L 153.20982 147.940186 
L 153.844117 149.42432 
L 154.387801 151.255448 
L 154.870701 153.654456 
L 155.30531 156.97514 
L 155.69163 161.780299 
L 156.032456 169.22947 
L 156.330585 182.061346 
L 156.529338 199.872033 
L 156.72809 244.913357 
L 156.785049 281.8 
L 156.785049 281.8 
" style="fill:none;stroke:#ff0000;stroke-linecap:square;stroke-width:5;"/>
   </g>
   <g id="line2d_3">
    <path clip-path="url(#p666f08c82f)" d="M 157.190906 -1 
L 157.324348 60.816675 
L 157.622477 98.529642 
L 157.920606 112.143738 
L 158.318111 120.814255 
L 158.814993 126.359533 
L 159.358601 129.775425 
L 159.931387 132.019764 
L 160.554546 133.65198 
L 161.28164 134.966944 
L 162.140933 136.052497 
L 163.13707 136.941202 
L 164.33615 137.701452 
L 165.800024 138.358798 
L 167.749174 138.965112 
L 170.216313 139.479551 
L 173.491379 139.914252 
L 177.618176 140.226816 
L 182.856488 140.389363 
L 188.934522 140.346365 
L 194.885792 140.087829 
L 199.689684 139.670658 
L 203.07423 139.15807 
L 205.280903 138.603032 
L 206.799074 137.996852 
L 207.871679 137.343227 
L 208.728487 136.561844 
L 209.383193 135.676935 
L 209.969252 134.490975 
L 210.448755 133.000048 
L 210.825751 131.197424 
L 211.153519 128.750725 
L 211.481287 124.566648 
L 211.727114 118.761163 
L 211.97294 106.282369 
L 212.136824 85.021156 
L 212.218766 59.975193 
L 212.294036 -1 
L 212.294036 -1 
" style="fill:none;stroke:#ff0000;stroke-linecap:square;stroke-width:5;"/>
   </g>
   <g id="line2d_4">
    <path clip-path="url(#p666f08c82f)" d="M 212.546534 239.872317 
L 212.792361 177.537549 
L 213.038187 163.217968 
L 213.37625 155.296126 
L 213.791319 150.826633 
L 214.252506 148.201695 
L 214.759812 146.491839 
L 215.343869 145.245385 
L 216.034118 144.280336 
L 216.838103 143.525369 
L 217.899908 142.854418 
L 219.182866 142.309637 
L 220.865837 141.827578 
L 223.359398 141.360386 
L 226.746622 140.958448 
L 231.800714 140.605154 
L 237.975933 140.413706 
L 243.981985 140.448816 
L 249.192362 140.700095 
L 253.222189 141.113206 
L 256.200986 141.632891 
L 258.462277 142.24955 
L 260.079003 142.902652 
L 261.370475 143.648343 
L 262.43552 144.520416 
L 263.319614 145.546113 
L 264.040503 146.727176 
L 264.65088 148.137996 
L 265.174061 149.857196 
L 265.697241 152.415151 
L 266.133225 155.752629 
L 266.511277 160.445809 
L 266.802133 166.43795 
L 267.092989 177.264847 
L 267.311131 193.623431 
L 267.456559 215.673255 
L 267.616489 281.8 
L 267.616489 281.8 
" style="fill:none;stroke:#ff0000;stroke-linecap:square;stroke-width:5;"/>
   </g>
   <g id="line2d_5">
    <path clip-path="url(#p666f08c82f)" d="M 268.010712 -1 
L 268.183698 67.14709 
L 268.474554 99.057516 
L 268.81025 112.781895 
L 269.204723 120.466419 
L 269.664941 125.309689 
L 270.190905 128.564442 
L 270.797106 130.908456 
L 271.461873 132.59995 
L 272.199433 133.893783 
L 273.042359 134.94456 
L 274.096015 135.886021 
L 275.399151 136.720774 
L 276.991348 137.459846 
L 278.945836 138.129342 
L 281.768794 138.842651 
L 285.290044 139.497367 
L 289.406128 140.043293 
L 293.35185 140.348827 
L 296.581326 140.385942 
L 299.212416 140.208176 
L 301.536704 139.825628 
L 303.374256 139.313368 
L 305.122582 138.589916 
L 306.643142 137.709476 
L 307.99556 136.665136 
L 309.243704 135.414251 
L 310.390113 133.947768 
L 311.487556 132.170633 
L 312.51145 130.079498 
L 313.492611 127.554995 
L 314.41245 124.568768 
L 315.322658 120.810462 
L 316.119292 116.620093 
L 316.910625 111.292625 
L 317.701958 104.300693 
L 318.443216 95.504281 
L 319.096845 84.986455 
L 319.691054 71.912404 
L 320.262293 54.250739 
L 320.805818 29.532605 
L 321.250295 -1 
L 321.250295 -1 
" style="fill:none;stroke:#ff0000;stroke-linecap:square;stroke-width:5;"/>
   </g>
   <g id="line2d_6">
    <path clip-path="url(#p666f08c82f)" d="M 326.186678 281.8 
L 326.801734 263.076424 
L 327.497872 248.558528 
L 328.257296 237.478187 
L 329.022291 229.416393 
L 329.859486 222.893461 
L 330.69668 217.992482 
L 331.596844 213.979348 
L 332.552004 210.737425 
L 333.517331 208.23653 
L 334.504252 206.28153 
L 335.504781 204.774851 
L 336.554895 203.594535 
L 337.602269 202.741799 
L 338.698408 202.128451 
L 339.880366 201.727167 
L 341.139421 201.542646 
L 342.449778 201.569952 
L 343.939573 201.826002 
L 345.570628 202.334559 
L 347.371248 203.126856 
L 349.423636 204.277298 
L 351.709886 205.820328 
L 354.321793 207.869736 
L 357.021678 210.265666 
L 360.153412 213.355153 
L 363.45849 216.939833 
L 366.989175 221.105556 
L 370.767364 225.922584 
L 374.568289 231.125102 
L 378.556852 236.955909 
L 382.703206 243.412018 
L 386.920455 250.386351 
L 391.377386 258.202341 
L 395.92974 266.659141 
L 400.410625 275.453744 
L 403.503992 281.8 
L 403.503992 281.8 
" style="fill:none;stroke:#ff0000;stroke-linecap:square;stroke-width:5;"/>
   </g>
  </g>
 </g>
 <defs>
  <clipPath id="p666f08c82f">
   <rect height="259.4" width="403.4" x="10.7" y="10.7"/>
  </clipPath>
 </defs>
</svg>
