<?xml version="1.0" encoding="utf-8" standalone="no"?>
<!DOCTYPE svg PUBLIC "-//W3C//DTD SVG 1.1//EN"
  "http://www.w3.org/Graphics/SVG/1.1/DTD/svg11.dtd">
<!-- Created with matplotlib (http://matplotlib.org/) -->
<svg height="280.8pt" version="1.1" viewBox="0 0 424.8 280.8" width="424.8pt" xmlns="http://www.w3.org/2000/svg" xmlns:xlink="http://www.w3.org/1999/xlink">
 <defs>
  <style type="text/css">
*{stroke-linecap:butt;stroke-linejoin:round;}
  </style>
 </defs>
 <g id="figure_1">
  <g id="patch_1">
   <path d="M 0 280.8 
L 424.8 280.8 
L 424.8 0 
L 0 0 
z
" style="fill:#ffffff;"/>
  </g>
  <g id="axes_1">
   <g id="patch_2">
    <path d="M 10.7 270.1 
L 414.1 270.1 
L 414.1 10.7 
L 10.7 10.7 
z
" style="fill:#ffffff;"/>
   </g>
   <g id="matplotlib.axis_1"/>
   <g id="matplotlib.axis_2"/>
   <g id="patch_3">
    <path d="M 212.4 270.1 
L 212.4 10.7 
" style="fill:none;stroke:#808080;stroke-linecap:square;stroke-linejoin:miter;stroke-width:2;"/>
   </g>
   <g id="patch_4">
    <path d="M 10.7 140.4 
L 414.1 140.4 
" style="fill:none;stroke:#808080;stroke-linecap:square;stroke-linejoin:miter;stroke-width:2;"/>
   </g>
   <g id="line2d_1">
    <path clip-path="url(#p8f149061e1)" d="M 18.457692 133.12516 
L 35.253518 132.15139 
L 48.728329 131.168752 
L 60.542994 130.102577 
L 71.244016 128.911782 
L 80.130671 127.703769 
L 89.095387 126.213507 
L 96.783167 124.64391 
L 103.415996 122.999696 
L 107.599751 121.784793 
L 112.659094 120.083045 
L 116.465668 118.595762 
L 121.11013 116.477447 
L 124.210466 114.833516 
L 127.93105 112.555888 
L 130.953623 110.40354 
L 133.441019 108.381999 
L 136.145361 105.870947 
L 138.598035 103.249261 
L 140.7011 100.682456 
L 142.345437 98.429528 
L 144.67612 94.78817 
L 146.557659 91.381777 
L 148.365974 87.620798 
L 150.14668 83.341367 
L 151.805645 78.716107 
L 153.598499 72.843576 
L 154.971197 67.574327 
L 156.270367 61.810517 
L 157.568738 55.108358 
L 158.93417 46.769482 
L 160.070657 38.536377 
L 161.36025 27.331417 
L 162.426388 16.105415 
L 163.579391 1.265515 
L 163.734466 -1 
L 163.734466 -1 
" style="fill:none;stroke:#ff0000;stroke-linecap:square;stroke-width:5;"/>
   </g>
   <g id="line2d_2">
    <path clip-path="url(#p8f149061e1)" d="M 184.429912 281.8 
L 185.505951 269.772536 
L 186.672755 259.00635 
L 187.888188 249.69118 
L 189.221414 241.173824 
L 190.625849 233.680917 
L 191.973669 227.601992 
L 193.516096 221.69613 
L 195.055234 216.693055 
L 196.591718 212.410711 
L 198.157129 208.644786 
L 199.840547 205.149228 
L 201.551012 202.086632 
L 202.84506 200.04827 
L 204.696648 197.489848 
L 206.737175 195.091694 
L 208.398551 193.421951 
L 210.059928 191.977082 
L 211.19789 191.106315 
L 211.19789 191.106315 
" style="fill:none;stroke:#ff0000;stroke-linecap:square;stroke-width:5;"/>
   </g>
   <g id="line2d_3">
    <path clip-path="url(#p8f149061e1)" d="M 213.282071 189.74293 
L 214.98013 188.839832 
L 217.078381 187.968252 
L 218.411358 187.551602 
L 220.453844 187.119922 
L 222.918096 186.943499 
L 224.411529 187.032576 
L 226.366096 187.396669 
L 228.375321 188.103768 
L 229.714539 188.793611 
L 231.504154 190.04203 
L 232.855343 191.281524 
L 234.365057 193.040661 
L 235.542593 194.750547 
L 236.720129 196.829635 
L 237.882969 199.335583 
L 238.972766 202.202544 
L 240.062562 205.717252 
L 241.152326 210.08595 
L 242.060408 214.595908 
L 243.001644 220.401086 
L 243.913187 227.533155 
L 244.765831 236.112832 
L 245.510035 245.772693 
L 246.259751 258.522604 
L 246.949523 274.305434 
L 247.21253 281.8 
L 247.21253 281.8 
" style="fill:none;stroke:#ff0000;stroke-linecap:square;stroke-width:5;"/>
   </g>
   <g id="line2d_4">
    <path clip-path="url(#p8f149061e1)" d="M 254.223257 -1 
L 254.876743 27.102624 
L 255.601589 48.486671 
L 256.366365 64.512956 
L 257.105176 76.023406 
L 257.967122 86.241771 
L 258.909734 94.763491 
L 259.852346 101.39371 
L 260.836411 106.898753 
L 261.820477 111.353831 
L 263.064769 115.89187 
L 264.231514 119.326543 
L 265.492023 122.375215 
L 267.07332 125.474613 
L 268.788398 128.162366 
L 269.976377 129.71231 
L 271.545125 131.455242 
L 273.709932 133.418921 
L 275.908471 135.017621 
L 278.195144 136.364334 
L 281.340259 137.827588 
L 284.283639 138.896168 
L 288.115952 139.974199 
L 291.242417 140.659856 
L 295.094029 141.328176 
L 298.838217 141.836742 
L 305.256143 142.476823 
L 312.322736 142.949406 
L 321.853473 143.343981 
L 333.410053 143.598171 
L 351.821876 143.736325 
L 379.483248 143.678591 
L 406.342308 143.517788 
L 406.342308 143.517788 
" style="fill:none;stroke:#ff0000;stroke-linecap:square;stroke-width:5;"/>
   </g>
  </g>
 </g>
 <defs>
  <clipPath id="p8f149061e1">
   <rect height="259.4" width="403.4" x="10.7" y="10.7"/>
  </clipPath>
 </defs>
</svg>
