<?xml version="1.0" encoding="utf-8" standalone="no"?>
<!DOCTYPE svg PUBLIC "-//W3C//DTD SVG 1.1//EN"
  "http://www.w3.org/Graphics/SVG/1.1/DTD/svg11.dtd">
<!-- Created with matplotlib (http://matplotlib.org/) -->
<svg height="280.8pt" version="1.1" viewBox="0 0 424.8 280.8" width="424.8pt" xmlns="http://www.w3.org/2000/svg" xmlns:xlink="http://www.w3.org/1999/xlink">
 <defs>
  <style type="text/css">
*{stroke-linecap:butt;stroke-linejoin:round;}
  </style>
 </defs>
 <g id="figure_1">
  <g id="patch_1">
   <path d="M 0 280.8 
L 424.8 280.8 
L 424.8 0 
L 0 0 
z
" style="fill:#ffffff;"/>
  </g>
  <g id="axes_1">
   <g id="patch_2">
    <path d="M 10.7 270.1 
L 414.1 270.1 
L 414.1 10.7 
L 10.7 10.7 
z
" style="fill:#ffffff;"/>
   </g>
   <g id="matplotlib.axis_1"/>
   <g id="matplotlib.axis_2"/>
   <g id="patch_3">
    <path d="M 212.4 270.1 
L 212.4 10.7 
" style="fill:none;stroke:#808080;stroke-linecap:square;stroke-linejoin:miter;stroke-width:2;"/>
   </g>
   <g id="patch_4">
    <path d="M 10.7 38.363287 
L 414.1 38.363287 
" style="fill:none;stroke:#808080;stroke-linecap:square;stroke-linejoin:miter;stroke-width:2;"/>
   </g>
   <g id="line2d_1">
    <path clip-path="url(#pdaa28437d6)" d="M 18.457692 40.94184 
L 30.720094 41.595951 
L 40.08634 42.31362 
L 46.93978 43.03319 
L 52.676283 43.830341 
L 58.790329 44.980006 
L 63.772145 46.271835 
L 66.459027 47.165279 
L 70.070178 48.680379 
L 72.410538 49.926311 
L 75.062518 51.692075 
L 76.037408 52.463504 
L 77.841301 54.114544 
L 79.645193 56.133222 
L 81.478367 58.692427 
L 83.059957 61.461568 
L 83.779183 62.944153 
L 85.357261 66.83831 
L 86.57607 70.63326 
L 87.961635 76.118372 
L 89.145174 82.18851 
L 90.252741 89.524144 
L 91.177957 97.384787 
L 92.103173 107.482465 
L 92.854966 117.994071 
L 93.60676 131.422341 
L 94.358553 149.00115 
L 95.110347 172.705705 
L 95.784045 201.835663 
L 96.373531 236.69899 
L 96.927934 281.8 
M 105.409188 281.8 
L 105.9269 221.869689 
L 106.556772 173.372907 
L 107.192547 140.561709 
L 107.787758 118.878939 
L 108.531772 99.558761 
L 109.275785 85.851921 
L 110.059735 75.363662 
L 110.789251 68.075443 
L 111.518767 62.458827 
L 112.32961 57.627096 
L 113.140452 53.877484 
L 114.387794 49.592524 
L 115.094574 47.742909 
L 116.508135 44.919147 
L 117.298785 43.720893 
L 118.38884 42.397863 
L 119.478895 41.369954 
L 120.80943 40.416372 
L 122.139966 39.712676 
L 124.111125 39.00579 
L 125.621459 38.666752 
L 127.570246 38.425825 
L 129.623311 38.365672 
L 132.931723 38.628918 
L 134.626027 38.937183 
L 137.018978 39.611592 
L 138.623659 40.264589 
L 139.884983 40.929265 
L 141.146307 41.769407 
L 142.351047 42.788972 
L 143.555786 44.09703 
L 144.904363 46.047227 
L 145.972781 48.120571 
L 147.074177 50.986471 
L 148.208549 55.117526 
L 149.116883 59.770953 
L 149.799176 64.469548 
L 150.652043 72.58082 
L 151.334337 81.849215 
L 151.95996 93.836587 
L 152.566693 110.60633 
L 153.092102 131.843649 
L 153.615318 163.532285 
L 154.063789 205.211704 
L 154.51226 271.415875 
L 154.564825 281.8 
M 159.362687 281.8 
L 159.81914 208.100038 
L 160.336413 158.385503 
L 160.87687 126.222021 
L 161.465723 103.628491 
L 162.128183 86.955176 
L 162.86425 74.678497 
L 163.406548 68.227742 
L 164.219996 61.16269 
L 165.033444 56.156127 
L 165.953394 52.078582 
L 166.873345 49.107082 
L 167.865697 46.729131 
L 168.982945 44.74772 
L 170.100193 43.271235 
L 171.275222 42.096795 
L 172.450252 41.199044 
L 173.903934 40.361954 
L 175.829623 39.57824 
L 178.258049 38.943386 
L 179.736695 38.692456 
L 183.311177 38.387308 
L 188.359892 38.533408 
L 189.601268 38.674203 
L 192.440651 39.197933 
L 194.398442 39.779321 
L 196.264362 40.58406 
L 197.471228 41.291685 
L 199.321809 42.807954 
L 200.610668 44.329343 
L 201.899526 46.458288 
L 202.511548 47.776995 
L 203.123571 49.367826 
L 204.041604 52.44597 
L 204.916428 56.500354 
L 205.485242 60.003894 
L 206.319144 67.029276 
L 206.986267 75.142563 
L 207.653389 86.915459 
L 208.236749 102.18319 
L 208.73486 121.396003 
L 209.232094 150.310311 
L 209.646309 187.290428 
L 210.060525 245.612579 
L 210.239516 281.8 
L 210.239516 281.8 
" style="fill:none;stroke:#ff0000;stroke-linecap:square;stroke-width:5;"/>
   </g>
   <g id="line2d_2">
    <path clip-path="url(#pdaa28437d6)" d="M 214.560724 281.8 
L 214.95224 212.118413 
L 215.395392 163.857909 
L 215.949331 127.060088 
L 216.50327 104.132297 
L 217.167997 86.459793 
L 217.721936 76.504046 
L 218.471089 67.129113 
L 218.997501 62.364286 
L 219.699385 57.545417 
L 220.401269 53.94061 
L 221.103153 51.174797 
L 222.233907 47.906732 
L 223.364661 45.603376 
L 224.387051 44.062936 
L 225.353749 42.934828 
L 226.320447 42.039563 
L 227.383425 41.255629 
L 228.446404 40.630565 
L 230.563588 39.722374 
L 234.430431 38.78588 
L 236.637896 38.515171 
L 238.765975 38.385621 
L 242.968341 38.468225 
L 243.82627 38.543385 
L 246.387521 38.913026 
L 247.897718 39.258078 
L 249.787448 39.873665 
L 251.887596 40.904511 
L 252.899071 41.589747 
L 254.6621 43.228227 
L 255.413654 44.165824 
L 256.171024 45.31154 
L 256.928395 46.716953 
L 258.064451 49.497859 
L 258.99636 52.654691 
L 259.826197 56.471178 
L 260.656034 61.721296 
L 261.352266 67.803836 
L 262.048499 76.256016 
L 262.673185 86.98306 
L 263.243847 100.914599 
L 263.778266 119.729995 
L 264.312684 147.882654 
L 264.758033 183.567995 
L 265.203382 239.167164 
L 265.436438 281.8 
M 270.235619 281.8 
L 270.632454 217.776933 
L 271.183843 163.595179 
L 271.735232 130.525832 
L 272.37852 105.982503 
L 273.06289 89.077077 
L 273.590852 79.90222 
L 274.224407 71.720884 
L 274.875044 65.485735 
L 275.753949 59.350565 
L 276.613032 55.023949 
L 277.452295 51.852375 
L 278.321096 49.327393 
L 279.262829 47.205884 
L 279.755393 46.288389 
L 280.740522 44.754975 
L 281.672282 43.593067 
L 282.604042 42.643444 
L 284.467562 41.204693 
L 286.604109 40.071602 
L 288.72414 39.308228 
L 290.338295 38.901682 
L 293.101759 38.480114 
L 294.279915 38.394277 
L 296.944329 38.406399 
L 298.818151 38.606903 
L 300.11161 38.858288 
L 301.40507 39.223497 
L 302.829043 39.790503 
L 304.14187 40.510856 
L 305.190637 41.2632 
L 306.239405 42.21836 
L 307.072954 43.160443 
L 307.906504 44.306562 
L 308.740054 45.708338 
L 310.057727 48.6214 
L 311.025972 51.513115 
L 312.00203 55.349966 
L 312.9859 60.550719 
L 313.758623 65.972219 
L 314.600986 73.815205 
L 315.34178 83.107094 
L 315.987654 93.85701 
L 316.692549 109.71807 
L 317.296744 128.386409 
L 317.900939 154.183802 
L 318.505134 191.099094 
L 319.0625 241.117636 
L 319.390985 281.8 
M 327.872673 281.8 
L 328.428162 236.58225 
L 329.135928 195.942179 
L 329.843695 167.214869 
L 330.551462 146.104328 
L 331.400671 127.365333 
L 332.306457 112.633766 
L 333.17112 101.976424 
L 334.068341 93.358768 
L 335.168639 85.176024 
L 336.140748 79.509804 
L 337.406624 73.690282 
L 338.250542 70.541333 
L 339.75733 65.980944 
L 341.149194 62.667708 
L 342.68556 59.733607 
L 343.492932 58.426907 
L 344.825868 56.550102 
L 347.162747 53.911263 
L 348.166689 52.974289 
L 350.052508 51.458365 
L 353.509675 49.298949 
L 354.85516 48.6203 
L 357.39238 47.523848 
L 361.312078 46.186587 
L 366.312651 44.913382 
L 370.096404 44.170469 
L 374.57996 43.462193 
L 381.354294 42.640521 
L 388.773291 41.972124 
L 398.94122 41.306233 
L 406.342308 40.94184 
L 406.342308 40.94184 
" style="fill:none;stroke:#ff0000;stroke-linecap:square;stroke-width:5;"/>
   </g>
  </g>
 </g>
 <defs>
  <clipPath id="pdaa28437d6">
   <rect height="259.4" width="403.4" x="10.7" y="10.7"/>
  </clipPath>
 </defs>
</svg>
