<?xml version="1.0" encoding="utf-8"?>
<!-- Generator: Adobe Illustrator 23.1.1, SVG Export Plug-In . SVG Version: 6.00 Build 0)  -->
<svg version="1.1" id="Layer_1" xmlns="http://www.w3.org/2000/svg" xmlns:xlink="http://www.w3.org/1999/xlink" x="0px" y="0px"
	 viewBox="0 0 288 216" style="enable-background:new 0 0 288 216;" xml:space="preserve">
<style type="text/css">
	.st0{fill:#ED1C24;}
</style>
<g>
	<g>
		<g>
			<path class="st0" d="M34.33,153.56c2.66-11.81,5.63-23.73,11.05-34.62c2.66-5.35,5.87-10.64,10.01-14.98
				c4.05-4.26,9.08-6.8,15.04-6.6c12.34,0.42,21.75,9.67,31.76,15.68c5.12,3.08,10.59,5.29,16.54,6.03
				c5.98,0.74,12.13,0.04,17.89-1.67c5.52-1.63,10.66-4.23,15.51-7.31c3.1-1.97,5.9-4.23,8.26-7.05
				c6.74-8.07,12.55-16.81,18.24-25.63c2.05-3.18,4.2-6.25,6.93-8.88c2.67-2.58,5.62-4.86,8.77-6.83c4.75-2.97,9.95-5.22,15.43-6.44
				c4.67-1.04,9.39-0.91,14.13-1.24c5.4-0.37,10.48-1.78,15.5-3.77c5.32-2.11,10.25-4.97,14.12-9.25
				c6.16-6.81,9.05-15.88,9.71-24.91c0.09-1.27,0.14-2.55,0.14-3.83c0-1.93-3-1.93-3,0c-0.02,7.64-1.6,15.46-5.59,22.05
				c-2.94,4.85-7.15,8.67-12.19,11.25c-4.86,2.5-10.32,4.42-15.74,5.17c-4.46,0.62-8.99,0.34-13.46,0.89
				c-5.65,0.69-11.09,2.45-16.16,5.01c-6.97,3.51-13.48,8.52-18.14,14.82c-2.82,3.81-5.2,7.94-7.79,11.91
				c-3.2,4.88-6.77,9.46-10.29,14.1c-2.16,2.85-4.36,5.66-7.21,7.87c-3.95,3.05-8.57,5.63-13.18,7.51
				c-5.48,2.23-11.36,3.55-17.29,3.52c-6.04-0.03-11.78-1.61-17.08-4.47c-10.49-5.64-19.24-14.68-31.31-17.01
				c-5.68-1.1-11.58-0.5-16.52,2.66c-4.99,3.19-8.7,8.17-11.82,13.12c-6.41,10.16-10.16,21.74-13.07,33.32
				c-0.73,2.92-1.41,5.85-2.07,8.78C31.01,154.64,33.9,155.44,34.33,153.56L34.33,153.56z"/>
		</g>
	</g>
	<g>
		<g>
			<path class="st0" d="M250.31,19.59c-0.02,0-0.05,0-0.07,0.01c-0.75,0.07-1.58,0.63-1.5,1.5c0.12,1.29,1.46,2.1,2.65,1.44
				c0.75-0.41,1.44-1.06,2.07-1.63c1.23-1.13,2.27-2.43,3.26-3.76c1.92-2.58,3.56-5.36,5.82-7.66c-0.71,0-1.41,0-2.12,0
				c1.88,1.95,3.19,4.37,4.21,6.87c1.16,2.84,2.09,5.78,3.1,8.68c0.26,0.77,1.03,1.27,1.85,1.05c0.74-0.2,1.31-1.08,1.05-1.85
				c-2.01-5.83-3.68-12.31-8.08-16.87c-0.56-0.58-1.56-0.57-2.12,0c-2.01,2.05-3.59,4.46-5.23,6.8c-0.77,1.09-1.54,2.15-2.42,3.15
				c-0.43,0.49-0.89,0.96-1.37,1.41c-0.25,0.23-0.51,0.46-0.77,0.68c-0.31,0.25,0.03-0.01-0.29,0.23c-0.05,0.04-0.47,0.28-0.22,0.21
				c0.27,0,0.53,0,0.8,0c0.13,0.08,0.26,0.17,0.39,0.25c0.15,0.35,0.29,0.71,0.44,1.06c0-0.02,0-0.03,0-0.05c-0.5,0.5-1,1-1.5,1.5
				c0.02,0,0.05,0,0.07-0.01c0.81-0.08,1.5-0.63,1.5-1.5C251.81,20.34,251.12,19.51,250.31,19.59L250.31,19.59z"/>
		</g>
	</g>
	<g>
		<g>
			<path class="st0" d="M24.6,139.26c2.26,5.97,4.79,11.83,7.59,17.56c0.43,0.88,1.71,0.94,2.36,0.3c4.51-4.47,9.94-8,15.9-10.24
				c-0.63-0.48-1.27-0.96-1.9-1.45c0.04-0.17,0.09-0.34,0.13-0.5c0.22-0.13,0.44-0.26,0.66-0.39c-0.05,0.02-0.1,0.04-0.15,0.06
				c-0.75,0.3-1.28,1-1.05,1.85c0.2,0.71,1.09,1.35,1.85,1.05c0.97-0.39,1.46-1.02,1.56-2.07c0.09-0.92-1.04-1.77-1.9-1.45
				c-6.45,2.42-12.33,6.16-17.22,11.01c0.79,0.1,1.57,0.2,2.36,0.3c-2.69-5.5-5.12-11.12-7.29-16.85c-0.29-0.76-1.01-1.28-1.85-1.05
				C24.92,137.62,24.31,138.5,24.6,139.26L24.6,139.26z"/>
		</g>
	</g>
</g>
<g>
	<g>
		<g>
			<path d="M76.53,171.58c-4.43,0.62-8.59,2.6-11.98,5.5c-1.69,1.45-3.17,3.14-4.39,5.01c-1.15,1.76-2.97,4.59-0.96,6.41
				c0.88,0.79,2.09,1.11,3.21,1.39c1.32,0.33,2.66,0.54,4.01,0.69c2.74,0.3,5.49,0.27,8.24,0.23c1.38-0.02,2.77-0.05,4.15-0.03
				c0.86,0.02,1.92,0.09,2.14,1.1c0.42,1.94-1.49,3.89-2.87,4.95c-2.06,1.58-4.58,2.46-7.08,3.08c-1.49,0.37-3,0.64-4.53,0.79
				c-0.79,0.08-1.58,0.13-2.37,0.15c-0.23,0.01-0.45,0.01-0.68-0.04c-0.08-0.02-0.16-0.05-0.24-0.07c-0.19-0.04-0.04-0.08-0.01,0.15
				c-0.07-0.54-0.41-1-1-1c-0.48,0-1.07,0.46-1,1c0.17,1.27,1.16,1.85,2.37,1.95c1.31,0.12,2.7-0.09,4-0.26
				c2.68-0.35,5.37-0.95,7.87-1.99c2.2-0.91,4.31-2.18,5.83-4.05c1.33-1.63,2.48-4.12,1.25-6.14c-0.67-1.09-1.88-1.5-3.1-1.59
				c-1.37-0.11-2.77-0.03-4.14-0.01c-2.83,0.04-5.66,0.1-8.48-0.18c-1.44-0.14-2.87-0.39-4.27-0.77c-0.7-0.19-2.24-0.48-2.21-1.46
				c0.02-0.56,0.36-1.12,0.62-1.61c0.28-0.52,0.57-1.03,0.89-1.53c0.61-0.95,1.29-1.84,2.04-2.68c3.44-3.82,8.14-6.35,13.23-7.06
				c0.54-0.07,0.83-0.76,0.7-1.23C77.6,171.7,77.06,171.5,76.53,171.58L76.53,171.58z"/>
		</g>
	</g>
	<g>
		<g>
			<path d="M87.97,174.55c-0.61,4.34-0.99,8.7-1.1,13.08c-0.06,2.16-0.05,4.33,0.02,6.5c0.07,2.06,0.11,4.2,0.82,6.16
				c0.19,0.52,0.67,0.83,1.23,0.7c0.7-0.16,1.17-0.66,1.38-1.33c0.4-1.23-1.53-1.75-1.93-0.53c0.11-0.07,0.11-0.09,0.01-0.07
				c0.41,0.23,0.82,0.47,1.23,0.7c-0.68-1.88-0.7-3.9-0.76-5.87c-0.06-2.08-0.07-4.17-0.02-6.25c0.11-4.2,0.45-8.39,1.03-12.55
				c0.08-0.53-0.13-1.07-0.7-1.23C88.73,173.72,88.04,174.01,87.97,174.55L87.97,174.55z"/>
		</g>
	</g>
	<g>
		<g>
			<path d="M95.47,193.97c0.12-0.78,0.32-1.55,0.63-2.27c0.28-0.66,0.66-1.44,1.18-1.95c0.14-0.14,0.2-0.21,0.34-0.17
				c0.19,0.05,0.39,0.33,0.5,0.5c0.44,0.65,0.72,1.41,0.92,2.16c0.37,1.42,0.47,3.23-0.15,4.6c-0.49,1.07-1.71,1.12-2.68,0.66
				c-1.44-0.68-2.13-2.4-2.71-3.77c-0.21-0.5-0.66-0.85-1.23-0.7c-0.47,0.13-0.91,0.73-0.7,1.23c0.77,1.83,1.64,3.86,3.46,4.88
				c1.61,0.9,3.9,0.91,5.15-0.62c0.73-0.9,0.96-2.06,1.08-3.18c0.12-1.08,0.04-2.18-0.19-3.24c-0.38-1.75-1.52-4.84-3.81-4.51
				c-1.23,0.18-1.98,1.38-2.52,2.39c-0.59,1.08-0.99,2.25-1.18,3.46c-0.08,0.53,0.14,1.08,0.7,1.23
				C94.71,194.8,95.39,194.51,95.47,193.97L95.47,193.97z"/>
		</g>
	</g>
	<g>
		<g>
			<path d="M106.33,190.43c-1.58,7.9-2.67,15.9-3.28,23.93c-0.1,1.28,1.9,1.28,2,0c0.6-7.86,1.67-15.67,3.21-23.4
				C108.51,189.71,106.58,189.17,106.33,190.43L106.33,190.43z"/>
		</g>
	</g>
	<g>
		<g>
			<path d="M109.14,189.89c0.87-0.64,1.9-0.68,2.89-0.25c1.03,0.44,1.74,1.41,2.04,2.52c0.33,1.2,0.25,2.53-0.19,3.7
				c-0.42,1.11-1.29,1.72-2.36,1.88c-1.29,0.19-2.69-0.19-3.93-0.71c-0.5-0.21-1.1,0.23-1.23,0.7c-0.16,0.58,0.2,1.02,0.7,1.23
				c2.84,1.19,6.89,1.36,8.45-1.86c1.44-2.98,0.9-7.41-2.26-9.08c-1.58-0.83-3.63-0.94-5.13,0.15c-0.44,0.32-0.65,0.87-0.36,1.37
				C108.02,189.97,108.7,190.21,109.14,189.89L109.14,189.89z"/>
		</g>
	</g>
	<g>
		<g>
			<path d="M122.12,192.64c2.41-0.96,5.2-2.38,5.17-5.38c-0.01-1.25-0.65-2.46-1.82-3c-1.29-0.6-2.84-0.35-3.98,0.46
				c-2.21,1.57-3.25,4.63-3.5,7.23c-0.26,2.77,0.55,5.61,2.38,7.72c1.89,2.18,4.85,3.51,7.75,3.19c0.54-0.06,1-0.42,1-1
				c0-0.49-0.46-1.06-1-1c-4.04,0.45-7.53-2.69-8.1-6.6c-0.3-2.06,0.13-4.25,1.12-6.07c0.44-0.82,1.04-1.71,1.93-2.09
				c0.71-0.3,1.77-0.25,2.1,0.57c0.33,0.81-0.07,1.78-0.64,2.36c-0.8,0.82-1.91,1.27-2.96,1.68c-0.5,0.2-0.85,0.67-0.7,1.23
				C121.03,192.42,121.62,192.84,122.12,192.64L122.12,192.64z"/>
		</g>
	</g>
	<g>
		<g>
			<path d="M140.1,185.55c3.91,0.16,7.8,0.49,11.68,0.96c0.54,0.07,1-0.51,1-1c0-0.6-0.46-0.93-1-1c-3.88-0.48-7.78-0.8-11.68-0.96
				C138.81,183.49,138.81,185.49,140.1,185.55L140.1,185.55z"/>
		</g>
	</g>
	<g>
		<g>
			<path d="M140.99,193.76c2.43-0.02,4.75,0.43,7.04,1.23c1.96,0.69,4.57,1.04,5.78-1.11c0.63-1.12-1.09-2.13-1.73-1.01
				c-0.9,1.6-3.58,0.13-4.78-0.23c-2.04-0.61-4.18-0.9-6.31-0.88C139.7,191.77,139.7,193.77,140.99,193.76L140.99,193.76z"/>
		</g>
	</g>
	<g>
		<g>
			<path d="M168.06,176.27c2.3-0.69,4.75-0.76,7.08-0.16c1.47,0.38,4.27,1.28,4.16,3.24c-0.1,1.87-2.52,2.66-4.02,2.94
				c-2.13,0.39-4.81,0.45-6.37,2.19c-1,1.11-0.68,2.48-0.39,3.8c0.31,1.45,0.71,2.87,1.18,4.28c0.4,1.22,2.34,0.69,1.93-0.53
				c-0.44-1.33-0.82-2.68-1.13-4.05c-0.12-0.52-0.37-1.2-0.3-1.74c0.06-0.5,0.59-0.77,1-0.98c2.12-1.08,4.68-0.73,6.85-1.72
				c1.94-0.89,3.64-2.78,3.17-5.05c-0.47-2.29-2.88-3.5-4.91-4.13c-2.84-0.88-5.93-0.86-8.78-0.02
				C166.3,174.71,166.83,176.64,168.06,176.27L168.06,176.27z"/>
		</g>
	</g>
	<g>
		<g>
			<path d="M170.61,201.82c-0.01-0.05-0.02-0.1-0.03-0.15c0.01,0.09,0.02,0.18,0.04,0.27c-0.01-0.11-0.01-0.23,0-0.34
				c-0.01,0.09-0.02,0.18-0.04,0.27c0.02-0.13,0.05-0.25,0.1-0.37c-0.03,0.08-0.07,0.16-0.1,0.24c0.05-0.11,0.1-0.2,0.17-0.3
				c-0.05,0.07-0.1,0.13-0.16,0.2c0.02-0.03,0.05-0.06,0.07-0.09c-0.47,0-0.94,0-1.41,0c0.03,0.03,0.05,0.05,0.07,0.08
				c-0.05-0.07-0.1-0.13-0.16-0.2c0.05,0.06,0.09,0.13,0.12,0.21c-0.03-0.08-0.07-0.16-0.1-0.24c0.03,0.08,0.06,0.17,0.07,0.26
				c-0.01-0.09-0.02-0.18-0.04-0.27c0.01,0.11,0.01,0.22,0,0.33c0.01-0.09,0.02-0.18,0.04-0.27c-0.02,0.11-0.05,0.21-0.09,0.32
				c0.03-0.08,0.07-0.16,0.1-0.24c-0.04,0.1-0.1,0.19-0.16,0.28c0.05-0.07,0.1-0.13,0.16-0.2c-0.06,0.07-0.12,0.13-0.19,0.19
				c0.07-0.05,0.13-0.1,0.2-0.16c-0.07,0.05-0.13,0.09-0.21,0.12c0.08-0.03,0.16-0.07,0.24-0.1c-0.05,0.02-0.1,0.04-0.16,0.05
				c0.41,0.23,0.82,0.47,1.23,0.7c-0.02-0.05-0.03-0.1-0.04-0.15c0.01,0.09,0.02,0.18,0.04,0.27c-0.01-0.09-0.01-0.17,0-0.25
				c-0.01,0.09-0.02,0.18-0.04,0.27c0.01-0.1,0.04-0.19,0.08-0.28c-0.03,0.08-0.07,0.16-0.1,0.24c0.04-0.08,0.08-0.15,0.13-0.22
				c-0.05,0.07-0.1,0.13-0.16,0.2c0.05-0.07,0.11-0.13,0.18-0.18c-0.07,0.05-0.13,0.1-0.2,0.16c0.06-0.05,0.12-0.08,0.19-0.11
				c-0.08,0.03-0.16,0.07-0.24,0.1c0.08-0.03,0.16-0.06,0.25-0.07c-0.09,0.01-0.18,0.02-0.27,0.04c0.07-0.01,0.15-0.01,0.22,0
				c-0.09-0.01-0.18-0.02-0.27-0.04c0.1,0.01,0.19,0.04,0.28,0.08c-0.08-0.03-0.16-0.07-0.24-0.1c0.08,0.04,0.15,0.08,0.22,0.13
				c-0.07-0.05-0.13-0.1-0.2-0.16c0.07,0.05,0.13,0.11,0.18,0.18c-0.05-0.07-0.1-0.13-0.16-0.2c0.05,0.07,0.09,0.14,0.13,0.22
				c-0.03-0.08-0.07-0.16-0.1-0.24c0.01,0.03,0.02,0.06,0.03,0.09c0.09-0.32,0.17-0.65,0.26-0.97c-0.05,0.06-0.11,0.11-0.17,0.15
				c0.07-0.05,0.13-0.1,0.2-0.16c-0.09,0.07-0.19,0.12-0.29,0.17c0.08-0.03,0.16-0.07,0.24-0.1c-0.12,0.05-0.25,0.08-0.38,0.1
				c0.09-0.01,0.18-0.02,0.27-0.04c-0.14,0.02-0.29,0.02-0.43,0c0.09,0.01,0.18,0.02,0.27,0.04c-0.15-0.02-0.3-0.06-0.44-0.12
				c0.08,0.03,0.16,0.07,0.24,0.1c-0.12-0.05-0.24-0.12-0.34-0.2c0.07,0.05,0.13,0.1,0.2,0.16c-0.09-0.07-0.17-0.15-0.24-0.24
				c0.05,0.07,0.1,0.13,0.16,0.2c-0.05-0.06-0.09-0.13-0.12-0.19c-0.2,0.49-0.4,0.98-0.6,1.47c0.47-0.17,0.95-0.34,1.42-0.51
				c0.25-0.09,0.46-0.23,0.6-0.46c0.13-0.21,0.18-0.53,0.1-0.77c-0.08-0.24-0.23-0.48-0.46-0.6c-0.23-0.12-0.52-0.19-0.77-0.1
				c-0.47,0.17-0.95,0.34-1.42,0.51c-0.3,0.11-0.52,0.28-0.65,0.58c-0.13,0.3-0.1,0.6,0.05,0.89c0.3,0.57,0.86,0.97,1.47,1.15
				c0.27,0.08,0.56,0.12,0.84,0.11c0.38-0.02,0.69-0.1,1.03-0.25c0.25-0.11,0.48-0.28,0.67-0.48c0.26-0.29,0.35-0.64,0.24-1.02
				c-0.04-0.12-0.09-0.24-0.15-0.36c-0.09-0.17-0.22-0.34-0.36-0.46c-0.63-0.58-1.54-0.74-2.31-0.33c-0.79,0.42-1.21,1.45-0.94,2.3
				c0.17,0.53,0.68,0.82,1.23,0.7c0.72-0.16,1.26-0.78,1.46-1.46c0.21-0.71,0.04-1.5-0.48-2.03c-0.36-0.37-1.06-0.4-1.41,0
				c-0.55,0.61-0.76,1.41-0.58,2.21c0.12,0.51,0.73,0.86,1.23,0.7C170.45,202.88,170.74,202.37,170.61,201.82L170.61,201.82z"/>
		</g>
	</g>
	<g>
		<g>
			<path d="M190.59,175.26c2.91-0.31,6.16,2.09,4.99,5.24c-1.22,3.29-4.97,3.44-7.94,3.42c-0.59,0-1.21,0.65-0.96,1.27
				c0.9,2.28,1.51,4.69,1.74,7.14c0.09,0.94-0.07,2.69,1.32,2.69c1.14,0,1.52-1.63,0.58-2.2c-0.3-0.18-0.71-0.18-1.01,0
				c-0.02,0.01-0.04,0.02-0.06,0.03c-1.1,0.67-0.09,2.4,1.01,1.73c0.02-0.01,0.04-0.02,0.06-0.03c-0.34,0-0.67,0-1.01,0
				c0.01,0.01,0.02,0.01,0.03,0.02c-0.15-0.2-0.31-0.4-0.46-0.6c0.01-0.16,0.03-0.33,0.04-0.49c0.12-0.12,0.24-0.24,0.36-0.36
				c-0.02,0.01-0.04,0.02-0.06,0.03c0.26-0.03,0.51-0.07,0.77-0.1c-0.02-0.01-0.05-0.01-0.07-0.02c0.15,0.09,0.29,0.17,0.44,0.26
				c-0.03-0.03-0.06-0.07-0.1-0.1c0.09,0.15,0.17,0.29,0.26,0.44c-0.09-0.24-0.06-0.57-0.08-0.84c-0.03-0.39-0.07-0.77-0.11-1.16
				c-0.1-0.82-0.22-1.64-0.39-2.44c-0.32-1.55-0.77-3.06-1.35-4.53c-0.32,0.42-0.64,0.84-0.96,1.27c2.16,0.02,4.37-0.03,6.36-0.97
				c1.74-0.81,3.09-2.41,3.62-4.26c1.22-4.23-2.97-7.86-7.03-7.43c-0.54,0.06-1,0.42-1,1C189.59,174.75,190.05,175.31,190.59,175.26
				L190.59,175.26z"/>
		</g>
	</g>
	<g>
		<g>
			<path d="M190.42,200.89c-0.01-0.11-0.01-0.22,0.01-0.33c-0.01,0.09-0.02,0.18-0.04,0.27c0.02-0.14,0.06-0.27,0.11-0.4
				c-0.03,0.08-0.07,0.16-0.1,0.24c0.06-0.13,0.12-0.24,0.21-0.35c-0.05,0.07-0.1,0.13-0.16,0.2c0.08-0.1,0.16-0.18,0.26-0.26
				c-0.07,0.05-0.13,0.1-0.2,0.16c0.03-0.02,0.07-0.05,0.1-0.07c-0.49-0.2-0.98-0.4-1.47-0.6c0.01,0.03,0.01,0.07,0.01,0.1
				c-0.01-0.09-0.02-0.18-0.04-0.27c0.08,0.6,0.08,1.21,0,1.81c0.01-0.09,0.02-0.18,0.04-0.27c-0.04,0.29-0.1,0.58-0.17,0.86
				c0.61-0.08,1.22-0.16,1.83-0.24c-0.02-0.04-0.04-0.08-0.06-0.12c0.03,0.08,0.07,0.16,0.1,0.24c-0.05-0.12-0.09-0.25-0.11-0.38
				c0.01,0.09,0.02,0.18,0.04,0.27c-0.02-0.13-0.02-0.26,0-0.4c-0.01,0.09-0.02,0.18-0.04,0.27c0.02-0.13,0.05-0.26,0.1-0.38
				c-0.03,0.08-0.07,0.16-0.1,0.24c0.02-0.04,0.04-0.08,0.06-0.12c0.12-0.24,0.17-0.51,0.1-0.77c-0.06-0.23-0.24-0.48-0.46-0.6
				c-0.46-0.24-1.11-0.14-1.37,0.36c-0.4,0.77-0.4,1.64,0.01,2.41c0.19,0.35,0.62,0.53,1,0.48c0.39-0.05,0.73-0.33,0.83-0.72
				c0.14-0.54,0.23-1.09,0.26-1.65c0.03-0.56-0.02-1.11-0.1-1.66c-0.04-0.3-0.32-0.54-0.58-0.65c-0.28-0.12-0.63-0.12-0.89,0.05
				c-0.75,0.49-1.26,1.36-1.18,2.27c0.02,0.27,0.1,0.51,0.29,0.71c0.17,0.17,0.46,0.3,0.71,0.29c0.26-0.01,0.53-0.1,0.71-0.29
				C190.29,201.41,190.44,201.15,190.42,200.89L190.42,200.89z"/>
		</g>
	</g>
	<g>
		<g>
			<path d="M204.99,174.66c1.95,0,4.02-0.03,5.85,0.74c1.38,0.58,2.69,1.68,2.95,3.23c0.24,1.47-0.51,2.73-1.94,3.14
				c-0.81,0.23-1.66,0.27-2.5,0.33c-1.1,0.08-2.21,0.16-3.31,0.25c-0.76,0.06-1.24,0.81-0.86,1.5c1.57,2.89,2.14,6.18,1.72,9.44
				c0.67,0,1.33,0,2,0c0.02-0.27,0.04-0.53,0.07-0.8c0.11-1.28-1.9-1.28-2,0c-0.02,0.27-0.04,0.53-0.07,0.8c-0.04,0.54,0.49,1,1,1
				c0.6,0,0.93-0.46,1-1c0.46-3.6-0.26-7.27-1.99-10.45c-0.29,0.5-0.58,1-0.86,1.5c1.89-0.14,3.83-0.16,5.69-0.5
				c1.65-0.3,3.09-1.21,3.74-2.81c0.58-1.43,0.43-3.12-0.31-4.47c-0.81-1.48-2.24-2.49-3.78-3.1c-2.01-0.8-4.25-0.81-6.38-0.81
				C203.7,172.66,203.7,174.66,204.99,174.66L204.99,174.66z"/>
		</g>
	</g>
	<g>
		<g>
			<path d="M208.36,201.49c-0.01-0.11-0.01-0.22,0.01-0.33c-0.01,0.09-0.02,0.18-0.04,0.27c0.02-0.14,0.06-0.27,0.11-0.4
				c-0.03,0.08-0.07,0.16-0.1,0.24c0.06-0.13,0.12-0.24,0.21-0.35c-0.05,0.07-0.1,0.13-0.16,0.2c0.08-0.1,0.16-0.18,0.26-0.26
				c-0.07,0.05-0.13,0.1-0.2,0.16c0.03-0.02,0.07-0.05,0.1-0.07c-0.49-0.2-0.98-0.4-1.47-0.6c0.01,0.03,0.01,0.07,0.01,0.1
				c-0.01-0.09-0.02-0.18-0.04-0.27c0.08,0.6,0.08,1.21,0,1.81c0.01-0.09,0.02-0.18,0.04-0.27c-0.04,0.29-0.1,0.58-0.17,0.86
				c0.61-0.08,1.22-0.16,1.83-0.24c-0.02-0.04-0.04-0.08-0.06-0.12c0.03,0.08,0.07,0.16,0.1,0.24c-0.05-0.12-0.09-0.25-0.11-0.38
				c0.01,0.09,0.02,0.18,0.04,0.27c-0.02-0.13-0.02-0.26,0-0.4c-0.01,0.09-0.02,0.18-0.04,0.27c0.02-0.13,0.05-0.26,0.1-0.38
				c-0.03,0.08-0.07,0.16-0.1,0.24c0.02-0.04,0.04-0.08,0.06-0.12c0.12-0.24,0.17-0.51,0.1-0.77c-0.06-0.23-0.24-0.48-0.46-0.6
				c-0.46-0.24-1.11-0.14-1.37,0.36c-0.4,0.77-0.4,1.64,0.01,2.41c0.19,0.35,0.62,0.53,1,0.48c0.39-0.05,0.73-0.33,0.83-0.72
				c0.14-0.54,0.23-1.09,0.26-1.65c0.03-0.56-0.02-1.11-0.1-1.66c-0.04-0.3-0.32-0.54-0.58-0.65c-0.28-0.12-0.63-0.12-0.89,0.05
				c-0.75,0.49-1.26,1.36-1.18,2.27c0.02,0.27,0.1,0.51,0.29,0.71c0.17,0.17,0.46,0.3,0.71,0.29c0.26-0.01,0.53-0.1,0.71-0.29
				C208.24,202.01,208.38,201.75,208.36,201.49L208.36,201.49z"/>
		</g>
	</g>
</g>
</svg>
