<?xml version="1.0" encoding="utf-8" standalone="no"?>
<!DOCTYPE svg PUBLIC "-//W3C//DTD SVG 1.1//EN"
  "http://www.w3.org/Graphics/SVG/1.1/DTD/svg11.dtd">
<!-- Created with matplotlib (http://matplotlib.org/) -->
<svg height="280.8pt" version="1.1" viewBox="0 0 424.8 280.8" width="424.8pt" xmlns="http://www.w3.org/2000/svg" xmlns:xlink="http://www.w3.org/1999/xlink">
 <defs>
  <style type="text/css">
*{stroke-linecap:butt;stroke-linejoin:round;}
  </style>
 </defs>
 <g id="figure_1">
  <g id="patch_1">
   <path d="M 0 280.8 
L 424.8 280.8 
L 424.8 0 
L 0 0 
z
" style="fill:#ffffff;"/>
  </g>
  <g id="axes_1">
   <g id="patch_2">
    <path d="M 10.7 270.1 
L 414.1 270.1 
L 414.1 10.7 
L 10.7 10.7 
z
" style="fill:#ffffff;"/>
   </g>
   <g id="matplotlib.axis_1"/>
   <g id="matplotlib.axis_2"/>
   <g id="patch_3">
    <path d="M 115.428846 270.1 
L 115.428846 10.7 
" style="fill:none;stroke:#808080;stroke-linecap:square;stroke-linejoin:miter;stroke-width:2;"/>
   </g>
   <g id="patch_4">
    <path d="M 10.7 140.4 
L 414.1 140.4 
" style="fill:none;stroke:#808080;stroke-linecap:square;stroke-linejoin:miter;stroke-width:2;"/>
   </g>
   <g id="line2d_1">
    <path clip-path="url(#p8643c0ce95)" d="M 18.457692 141.699079 
L 40.140083 141.424608 
L 52.97618 141.087837 
L 63.118336 140.63786 
L 70.850252 140.101714 
L 77.778012 139.378054 
L 81.641468 138.816624 
L 85.902957 137.996488 
L 89.63534 137.022931 
L 92.34343 136.096465 
L 94.917217 134.967623 
L 97.09152 133.747669 
L 98.819438 132.53569 
L 100.360413 131.207716 
L 101.934949 129.523244 
L 103.425975 127.50517 
L 104.703997 125.314822 
L 105.889244 122.745572 
L 106.861486 120.096297 
L 107.751665 117.072217 
L 108.623965 113.330671 
L 109.403681 109.058907 
L 110.183398 103.505723 
L 110.876491 96.961156 
L 111.496887 89.135469 
L 112.06383 79.450218 
L 112.630772 65.82794 
L 113.103225 49.391139 
L 113.575677 24.560289 
L 113.894703 -1 
L 113.894703 -1 
" style="fill:none;stroke:#ff0000;stroke-linecap:square;stroke-width:5;"/>
   </g>
   <g id="line2d_2">
    <path clip-path="url(#p8643c0ce95)" d="M 117.112786 281.8 
L 117.556704 253.715213 
L 118.107319 231.842488 
L 118.718917 216.143158 
L 119.391675 204.484853 
L 120.129732 195.547911 
L 120.888487 188.8931 
L 121.647242 183.874954 
L 122.546198 179.32897 
L 123.48144 175.692075 
L 124.443551 172.753136 
L 125.449257 170.299394 
L 126.683961 167.905977 
L 127.994996 165.901206 
L 129.331343 164.268607 
L 130.757389 162.863359 
L 132.697056 161.360158 
L 134.700312 160.166413 
L 137.057947 159.096109 
L 139.470472 158.27436 
L 141.531466 157.73782 
L 144.853055 157.117324 
L 148.938354 156.668511 
L 153.17865 156.48404 
L 157.663816 156.545178 
L 161.912331 156.82345 
L 166.125332 157.311237 
L 170.039764 157.970382 
L 173.594426 158.768322 
L 176.96259 159.736493 
L 180.120759 160.878413 
L 182.5525 161.952131 
L 185.202673 163.367966 
L 187.498844 164.859355 
L 189.670286 166.563448 
L 191.303211 168.085698 
L 192.856403 169.776799 
L 194.682233 172.152231 
L 196.015975 174.227289 
L 197.457622 176.891325 
L 198.730712 179.714599 
L 199.885884 182.775941 
L 201.011576 186.358572 
L 202.137267 190.728692 
L 203.148397 195.561655 
L 204.12864 201.375477 
L 205.037317 208.14753 
L 205.876096 216.072673 
L 206.690177 225.990275 
L 207.43436 237.900213 
L 208.111856 252.336217 
L 208.731686 270.212638 
L 209.045649 281.8 
L 209.045649 281.8 
" style="fill:none;stroke:#ff0000;stroke-linecap:square;stroke-width:5;"/>
   </g>
   <g id="line2d_3">
    <path clip-path="url(#p8643c0ce95)" d="M 215.470919 -1 
L 216.063915 22.927851 
L 216.763853 42.795834 
L 217.535245 58.423991 
L 218.328848 70.263681 
L 219.207525 80.158496 
L 220.176977 88.488202 
L 221.071856 94.530385 
L 222.114153 100.171729 
L 223.254278 105.110331 
L 224.355567 108.994588 
L 225.640405 112.71946 
L 226.913683 115.770523 
L 228.344745 118.630117 
L 229.79968 121.068145 
L 231.461252 123.413038 
L 233.260583 125.550044 
L 235.241359 127.536151 
L 237.552592 129.488795 
L 239.659598 131.00997 
L 242.658363 132.859396 
L 245.297506 134.258871 
L 249.362601 136.121525 
L 253.986718 137.955076 
L 261.6515 140.662396 
L 270.709102 143.857645 
L 275.65852 145.856143 
L 278.990272 147.415369 
L 282.397655 149.28998 
L 285.133617 151.093347 
L 287.27394 152.765204 
L 289.03987 154.376836 
L 291.077681 156.585575 
L 292.649399 158.628779 
L 294.203541 161.040766 
L 295.571242 163.59173 
L 296.822238 166.393911 
L 297.89064 169.256359 
L 299.141285 173.34879 
L 300.057187 177.030113 
L 301.132618 182.382304 
L 302.028087 188.021503 
L 302.908136 195.07298 
L 303.734528 203.685974 
L 304.492055 214.131695 
L 305.125411 225.715888 
L 305.720159 240.2433 
L 306.314907 260.413756 
L 306.764251 281.8 
L 306.764251 281.8 
" style="fill:none;stroke:#ff0000;stroke-linecap:square;stroke-width:5;"/>
   </g>
   <g id="line2d_4">
    <path clip-path="url(#p8643c0ce95)" d="M 312.109912 -1 
L 312.675046 22.640865 
L 313.339735 41.825058 
L 314.079589 56.816995 
L 314.858911 68.244883 
L 315.725227 77.666271 
L 316.649577 85.253458 
L 317.64329 91.526413 
L 318.648936 96.513671 
L 319.714249 100.745708 
L 320.754834 104.120643 
L 322.049383 107.552954 
L 323.343931 110.35608 
L 324.895405 113.107404 
L 326.491862 115.425616 
L 328.242735 117.524825 
L 330.091978 119.364377 
L 331.970733 120.931977 
L 333.896805 122.296132 
L 335.896195 123.508653 
L 338.314741 124.75857 
L 341.404217 126.090228 
L 344.808747 127.299152 
L 348.645158 128.421062 
L 352.510143 129.35916 
L 356.711573 130.214228 
L 362.453911 131.176222 
L 368.398464 131.986808 
L 376.428407 132.868224 
L 386.94967 133.765539 
L 399.525109 134.582687 
L 406.342308 134.94387 
L 406.342308 134.94387 
" style="fill:none;stroke:#ff0000;stroke-linecap:square;stroke-width:5;"/>
   </g>
  </g>
 </g>
 <defs>
  <clipPath id="p8643c0ce95">
   <rect height="259.4" width="403.4" x="10.7" y="10.7"/>
  </clipPath>
 </defs>
</svg>
