<?xml version="1.0" encoding="utf-8" standalone="no"?>
<!DOCTYPE svg PUBLIC "-//W3C//DTD SVG 1.1//EN"
  "http://www.w3.org/Graphics/SVG/1.1/DTD/svg11.dtd">
<!-- Created with matplotlib (http://matplotlib.org/) -->
<svg height="280.8pt" version="1.1" viewBox="0 0 424.8 280.8" width="424.8pt" xmlns="http://www.w3.org/2000/svg" xmlns:xlink="http://www.w3.org/1999/xlink">
 <defs>
  <style type="text/css">
*{stroke-linecap:butt;stroke-linejoin:round;}
  </style>
 </defs>
 <g id="figure_1">
  <g id="patch_1">
   <path d="M 0 280.8 
L 424.8 280.8 
L 424.8 0 
L 0 0 
z
" style="fill:#ffffff;"/>
  </g>
  <g id="axes_1">
   <g id="patch_2">
    <path d="M 10.7 270.1 
L 414.1 270.1 
L 414.1 10.7 
L 10.7 10.7 
z
" style="fill:#ffffff;"/>
   </g>
   <g id="matplotlib.axis_1"/>
   <g id="matplotlib.axis_2"/>
   <g id="patch_3">
    <path d="M 295.518132 270.1 
L 295.518132 10.7 
" style="fill:none;stroke:#808080;stroke-linecap:square;stroke-linejoin:miter;stroke-width:2;"/>
   </g>
   <g id="patch_4">
    <path d="M 10.7 215.226923 
L 414.1 215.226923 
" style="fill:none;stroke:#808080;stroke-linecap:square;stroke-linejoin:miter;stroke-width:2;"/>
   </g>
   <g id="line2d_1">
    <path clip-path="url(#p9e9d471246)" d="M 60.821737 -1 
L 63.609653 27.858013 
L 66.361208 54.143431 
L 69.087146 78.117855 
L 71.765872 99.752806 
L 74.449339 119.590317 
L 77.006153 136.851014 
L 79.544187 152.465744 
L 81.87197 165.508927 
L 84.224732 177.498517 
L 86.697155 188.856591 
L 88.942768 198.114971 
L 91.110979 206.137435 
L 93.117762 212.791015 
L 95.059289 218.548902 
L 97.178178 224.099529 
L 98.970275 228.219356 
L 100.817317 231.935322 
L 102.473576 234.826234 
L 104.189617 237.397368 
L 105.811607 239.444852 
L 107.504529 241.19966 
L 109.220598 242.594923 
L 110.50765 243.397029 
L 112.160872 244.131201 
L 113.35054 244.460267 
L 114.715974 244.639474 
L 116.270804 244.594088 
L 117.818146 244.295259 
L 119.436611 243.723109 
L 121.079568 242.882565 
L 122.894221 241.664328 
L 124.651705 240.208897 
L 126.646168 238.246802 
L 128.637128 235.978398 
L 130.642963 233.400134 
L 133.226762 229.677551 
L 135.753013 225.637529 
L 138.517539 220.807561 
L 141.707908 214.763154 
L 145.332845 207.369754 
L 148.852327 199.747327 
L 153.533339 189.082884 
L 159.432398 175.064959 
L 178.036911 130.362878 
L 183.295337 118.50448 
L 187.820296 108.835246 
L 191.871007 100.682702 
L 195.401959 94.014378 
L 199.028839 87.630087 
L 202.072005 82.662571 
L 205.392921 77.670034 
L 208.305628 73.675274 
L 211.043299 70.259289 
L 214.000715 66.948077 
L 216.929167 64.065728 
L 219.656229 61.742418 
L 222.370389 59.779798 
L 224.748001 58.349336 
L 226.861909 57.30485 
L 229.280227 56.372507 
L 231.030236 55.872226 
L 233.256574 55.44651 
L 235.482737 55.255214 
L 237.417201 55.277557 
L 239.977166 55.573327 
L 242.142557 56.056646 
L 244.18378 56.704282 
L 246.547368 57.682123 
L 249.165462 59.04332 
L 251.42334 60.444675 
L 254.230875 62.469826 
L 257.157987 64.899671 
L 259.994192 67.54668 
L 263.452966 71.136926 
L 266.94495 75.129582 
L 270.416677 79.42402 
L 274.205742 84.427548 
L 278.857627 90.93047 
L 284.310393 98.893868 
L 293.259335 112.174324 
L 293.259335 112.174324 
" style="fill:none;stroke:#ff0000;stroke-linecap:square;stroke-width:5;"/>
   </g>
   <g id="line2d_2">
    <path clip-path="url(#p9e9d471246)" d="M 296.398887 116.721086 
L 301.14373 123.301864 
L 304.978688 128.246275 
L 308.093158 131.933614 
L 310.997659 135.048941 
L 313.452594 137.39943 
L 315.94052 139.482258 
L 318.20428 141.086659 
L 320.399597 142.351824 
L 322.402605 143.235024 
L 324.17722 143.78526 
L 326.020692 144.110371 
L 327.876213 144.168252 
L 329.423286 143.998166 
L 331.219339 143.538125 
L 332.846494 142.865558 
L 334.552958 141.885914 
L 336.340605 140.543931 
L 338.041688 138.952699 
L 339.798575 136.972624 
L 341.52421 134.679909 
L 343.287038 131.966196 
L 345.302404 128.383005 
L 347.165015 124.595024 
L 349.100155 120.153158 
L 351.135266 114.900767 
L 353.025127 109.467034 
L 355.210332 102.487401 
L 357.426081 94.614025 
L 359.550597 86.278835 
L 361.818846 76.493551 
L 364.130093 65.541007 
L 366.567848 52.868114 
L 368.9269 39.461419 
L 371.304851 24.761176 
L 373.75323 8.329542 
L 375.060326 -1 
L 375.060326 -1 
" style="fill:none;stroke:#ff0000;stroke-linecap:square;stroke-width:5;"/>
   </g>
  </g>
 </g>
 <defs>
  <clipPath id="p9e9d471246">
   <rect height="259.4" width="403.4" x="10.7" y="10.7"/>
  </clipPath>
 </defs>
</svg>
