<?xml version="1.0" encoding="utf-8" standalone="no"?>
<!DOCTYPE svg PUBLIC "-//W3C//DTD SVG 1.1//EN"
  "http://www.w3.org/Graphics/SVG/1.1/DTD/svg11.dtd">
<!-- Created with matplotlib (http://matplotlib.org/) -->
<svg height="280.8pt" version="1.1" viewBox="0 0 424.8 280.8" width="424.8pt" xmlns="http://www.w3.org/2000/svg" xmlns:xlink="http://www.w3.org/1999/xlink">
 <defs>
  <style type="text/css">
*{stroke-linecap:butt;stroke-linejoin:round;}
  </style>
 </defs>
 <g id="figure_1">
  <g id="patch_1">
   <path d="M 0 280.8 
L 424.8 280.8 
L 424.8 0 
L 0 0 
z
" style="fill:#ffffff;"/>
  </g>
  <g id="axes_1">
   <g id="patch_2">
    <path d="M 10.7 270.1 
L 414.1 270.1 
L 414.1 10.7 
L 10.7 10.7 
z
" style="fill:#ffffff;"/>
   </g>
   <g id="matplotlib.axis_1"/>
   <g id="matplotlib.axis_2"/>
   <g id="patch_3">
    <path d="M 190.850855 270.1 
L 190.850855 10.7 
" style="fill:none;stroke:#808080;stroke-linecap:square;stroke-linejoin:miter;stroke-width:2;"/>
   </g>
   <g id="patch_4">
    <path d="M 10.7 223.541026 
L 414.1 223.541026 
" style="fill:none;stroke:#808080;stroke-linecap:square;stroke-linejoin:miter;stroke-width:2;"/>
   </g>
   <g id="line2d_1">
    <path clip-path="url(#p8740c2063a)" d="M 18.457692 223.412722 
L 55.109033 223.201767 
L 74.09485 222.899225 
L 87.206915 222.455396 
L 94.629912 222.013695 
L 101.685897 221.34325 
L 106.468427 220.648961 
L 110.717628 219.761283 
L 113.497575 218.971433 
L 116.351542 217.908172 
L 119.051661 216.566037 
L 121.20799 215.159574 
L 123.056007 213.624498 
L 124.840577 211.747827 
L 126.625147 209.340371 
L 127.613496 207.704923 
L 128.906601 205.140114 
L 130.164674 202.050036 
L 131.393375 198.279659 
L 132.319147 194.793895 
L 133.244918 190.587742 
L 134.357567 184.280686 
L 135.331135 177.255753 
L 136.220897 169.156873 
L 137.121714 158.723198 
L 137.959688 146.232516 
L 138.745326 131.117043 
L 139.494445 112.387523 
L 140.226864 88.262489 
L 140.902943 58.613832 
L 141.554509 20.173581 
L 141.841285 -1 
M 154.261611 -1 
L 155.039868 42.107194 
L 155.861801 75.028434 
L 156.691919 99.638214 
L 157.528568 118.482844 
L 158.463983 134.644786 
L 159.399397 147.150329 
L 160.388308 157.534559 
L 161.439634 166.257426 
L 162.531223 173.465957 
L 163.75478 179.90333 
L 164.677163 183.887124 
L 166.060738 188.803918 
L 167.444312 192.750922 
L 168.647184 195.583675 
L 170.02857 198.304462 
L 171.53396 200.762007 
L 173.415291 203.262752 
L 175.296623 205.281314 
L 176.73851 206.575339 
L 178.540079 207.947692 
L 181.210977 209.591695 
L 182.423354 210.215181 
L 185.570781 211.556995 
L 187.849839 212.328859 
L 187.849839 212.328859 
" style="fill:none;stroke:#ff0000;stroke-linecap:square;stroke-width:5;"/>
   </g>
   <g id="line2d_2">
    <path clip-path="url(#p8740c2063a)" d="M 192.820915 213.587327 
L 195.616779 214.099812 
L 200.599691 214.753766 
L 204.992324 215.109613 
L 211.026202 215.322145 
L 217.153279 215.240057 
L 221.639209 214.98356 
L 226.327497 214.510769 
L 230.690245 213.838438 
L 233.81903 213.179608 
L 236.820847 212.368458 
L 240.059469 211.237311 
L 242.916527 209.94585 
L 244.796236 208.89906 
L 246.834641 207.536104 
L 248.540689 206.166557 
L 250.563917 204.194988 
L 252.362844 202.031792 
L 253.799491 199.943837 
L 255.333232 197.258368 
L 256.483538 194.852507 
L 257.834344 191.47832 
L 258.801715 188.605038 
L 260.095665 183.995023 
L 261.264359 178.856183 
L 262.470434 172.251699 
L 263.487622 165.305465 
L 264.504811 156.65765 
L 265.338446 147.879281 
L 266.298656 135.206034 
L 267.181076 120.242139 
L 268.024601 101.751424 
L 268.797832 79.706304 
L 269.514406 53.064825 
L 270.190781 20.039796 
L 270.5381 -1 
M 282.958988 -1 
L 283.664432 46.208219 
L 284.39224 81.140535 
L 285.192829 109.102175 
L 286.014321 130.228863 
L 286.857469 146.521698 
L 287.740912 159.537489 
L 288.704944 170.419654 
L 289.637778 178.596561 
L 290.646529 185.55902 
L 291.487155 190.245529 
L 292.376514 194.35916 
L 293.649796 199.095927 
L 294.923078 202.817643 
L 296.235104 205.871277 
L 297.435585 208.140878 
L 298.910201 210.408291 
L 300.593017 212.466373 
L 302.474844 214.274527 
L 304.005002 215.457318 
L 305.535161 216.442113 
L 307.864179 217.64979 
L 309.947412 218.504161 
L 312.629972 219.373968 
L 316.5609 220.317378 
L 321.677789 221.160681 
L 327.514871 221.798393 
L 334.204377 222.278168 
L 343.660864 222.698862 
L 357.481313 223.037024 
L 379.369286 223.285668 
L 406.342308 223.412722 
L 406.342308 223.412722 
" style="fill:none;stroke:#ff0000;stroke-linecap:square;stroke-width:5;"/>
   </g>
  </g>
 </g>
 <defs>
  <clipPath id="p8740c2063a">
   <rect height="259.4" width="403.4" x="10.7" y="10.7"/>
  </clipPath>
 </defs>
</svg>
