<?xml version="1.0" encoding="utf-8" standalone="no"?>
<!DOCTYPE svg PUBLIC "-//W3C//DTD SVG 1.1//EN"
  "http://www.w3.org/Graphics/SVG/1.1/DTD/svg11.dtd">
<!-- Created with matplotlib (http://matplotlib.org/) -->
<svg height="280.8pt" version="1.1" viewBox="0 0 424.8 280.8" width="424.8pt" xmlns="http://www.w3.org/2000/svg" xmlns:xlink="http://www.w3.org/1999/xlink">
 <defs>
  <style type="text/css">
*{stroke-linecap:butt;stroke-linejoin:round;}
  </style>
 </defs>
 <g id="figure_1">
  <g id="patch_1">
   <path d="M 0 280.8 
L 424.8 280.8 
L 424.8 0 
L 0 0 
z
" style="fill:#ffffff;"/>
  </g>
  <g id="axes_1">
   <g id="patch_2">
    <path d="M 10.7 270.1 
L 414.1 270.1 
L 414.1 10.7 
L 10.7 10.7 
z
" style="fill:#ffffff;"/>
   </g>
   <g id="matplotlib.axis_1"/>
   <g id="matplotlib.axis_2"/>
   <g id="patch_3">
    <path d="M 212.4 270.1 
L 212.4 10.7 
" style="fill:none;stroke:#808080;stroke-linecap:square;stroke-linejoin:miter;stroke-width:2;"/>
   </g>
   <g id="patch_4">
    <path d="M 10.7 140.4 
L 414.1 140.4 
" style="fill:none;stroke:#808080;stroke-linecap:square;stroke-linejoin:miter;stroke-width:2;"/>
   </g>
   <g id="line2d_1">
    <path clip-path="url(#p5e812b70c5)" d="M 18.457692 132.085897 
L 30.359986 131.124788 
L 38.815566 130.272566 
L 45.47461 129.464872 
L 53.365089 128.295319 
L 60.142396 127.036773 
L 65.653974 125.770845 
L 70.40996 124.438086 
L 74.989941 122.867432 
L 77.656334 121.782221 
L 80.444867 120.474436 
L 83.26416 118.926508 
L 85.366577 117.586677 
L 88.325351 115.35479 
L 89.975435 113.88793 
L 91.632103 112.21313 
L 93.28877 110.290507 
L 94.899399 108.126807 
L 96.520215 105.580604 
L 98.170598 102.500338 
L 99.38829 99.823987 
L 100.629507 96.645277 
L 102.043912 92.307994 
L 103.382621 87.268641 
L 104.516553 82.036373 
L 105.567312 76.116946 
L 106.618071 68.789109 
L 107.602256 60.14459 
L 108.53589 49.666178 
L 109.328926 38.249581 
L 110.121962 23.424371 
L 110.815868 6.274226 
L 111.058188 -1 
L 111.058188 -1 
" style="fill:none;stroke:#ff0000;stroke-linecap:square;stroke-width:5;"/>
   </g>
   <g id="line2d_2">
    <path clip-path="url(#p5e812b70c5)" d="M 119.611206 281.8 
L 120.285888 261.695826 
L 121.078532 244.216051 
L 121.965286 229.681176 
L 122.827459 218.886183 
L 123.767591 209.655578 
L 124.707723 202.29196 
L 125.752314 195.679399 
L 127.002303 189.330718 
L 128.125678 184.687578 
L 129.290564 180.663876 
L 130.543208 177.02509 
L 132.136134 173.180364 
L 133.504092 170.414766 
L 135.274633 167.395292 
L 136.784872 165.210252 
L 138.564348 162.995981 
L 140.459324 160.97759 
L 142.593588 159.033795 
L 144.807915 157.307297 
L 147.34942 155.610953 
L 149.755351 154.226992 
L 152.227275 152.984099 
L 155.884279 151.407036 
L 159.727188 150.00924 
L 163.556112 148.817166 
L 167.717618 147.695409 
L 175.09584 146.030878 
L 181.315693 144.85547 
L 189.06005 143.586262 
L 202.233593 141.722 
L 209.400113 140.786176 
L 209.400113 140.786176 
" style="fill:none;stroke:#ff0000;stroke-linecap:square;stroke-width:5;"/>
   </g>
   <g id="line2d_3">
    <path clip-path="url(#p5e812b70c5)" d="M 216.239409 139.90545 
L 232.249397 137.735594 
L 241.985173 136.204633 
L 248.676605 134.975419 
L 255.639391 133.459081 
L 259.892577 132.364759 
L 265.01002 130.811778 
L 269.438939 129.18374 
L 272.514646 127.843217 
L 275.09075 126.548225 
L 278.500458 124.52079 
L 280.989699 122.747111 
L 283.534467 120.593386 
L 285.76123 118.339061 
L 287.513432 116.249844 
L 289.033649 114.151209 
L 290.607562 111.625974 
L 292.067338 108.878834 
L 293.525761 105.634493 
L 294.821535 102.211418 
L 296.138139 98.051971 
L 297.299033 93.636517 
L 298.429629 88.440324 
L 299.578058 81.938962 
L 300.636854 74.435337 
L 301.588183 65.956587 
L 302.539512 55.121265 
L 303.359641 43.032004 
L 304.103913 28.806378 
L 304.848185 9.903267 
L 305.188907 -1 
L 305.188907 -1 
" style="fill:none;stroke:#ff0000;stroke-linecap:square;stroke-width:5;"/>
   </g>
   <g id="line2d_4">
    <path clip-path="url(#p5e812b70c5)" d="M 313.741901 281.8 
L 314.478666 261.826371 
L 315.262824 246.057398 
L 316.13411 232.822016 
L 317.092526 221.70977 
L 318.074417 212.860248 
L 319.061614 205.768015 
L 320.158499 199.407257 
L 321.255383 194.217895 
L 322.509009 189.345086 
L 323.749328 185.357389 
L 325.027356 181.906726 
L 326.591156 178.377998 
L 327.861867 175.947748 
L 329.328301 173.525367 
L 331.120909 171.004682 
L 332.9985 168.771209 
L 334.841592 166.895975 
L 337.509244 164.612172 
L 339.837994 162.941362 
L 342.238744 161.463166 
L 345.127825 159.943171 
L 348.205438 158.568194 
L 352.485939 156.975421 
L 356.457455 155.750473 
L 361.04585 154.563338 
L 365.539574 153.582935 
L 372.538918 152.324262 
L 380.976627 151.121552 
L 388.16961 150.290659 
L 398.656619 149.307264 
L 406.342308 148.714103 
L 406.342308 148.714103 
" style="fill:none;stroke:#ff0000;stroke-linecap:square;stroke-width:5;"/>
   </g>
  </g>
 </g>
 <defs>
  <clipPath id="p5e812b70c5">
   <rect height="259.4" width="403.4" x="10.7" y="10.7"/>
  </clipPath>
 </defs>
</svg>
