<?xml version="1.0" encoding="utf-8" standalone="no"?>
<!DOCTYPE svg PUBLIC "-//W3C//DTD SVG 1.1//EN"
  "http://www.w3.org/Graphics/SVG/1.1/DTD/svg11.dtd">
<!-- Created with matplotlib (http://matplotlib.org/) -->
<svg height="280.8pt" version="1.1" viewBox="0 0 424.8 280.8" width="424.8pt" xmlns="http://www.w3.org/2000/svg" xmlns:xlink="http://www.w3.org/1999/xlink">
 <defs>
  <style type="text/css">
*{stroke-linecap:butt;stroke-linejoin:round;}
  </style>
 </defs>
 <g id="figure_1">
  <g id="patch_1">
   <path d="M 0 280.8 
L 424.8 280.8 
L 424.8 0 
L 0 0 
z
" style="fill:#ffffff;"/>
  </g>
  <g id="axes_1">
   <g id="patch_2">
    <path d="M 10.7 270.1 
L 414.1 270.1 
L 414.1 10.7 
L 10.7 10.7 
z
" style="fill:#ffffff;"/>
   </g>
   <g id="matplotlib.axis_1"/>
   <g id="matplotlib.axis_2"/>
   <g id="patch_3">
    <path d="M 350.93022 270.1 
L 350.93022 10.7 
" style="fill:none;stroke:#808080;stroke-linecap:square;stroke-linejoin:miter;stroke-width:2;"/>
   </g>
   <g id="patch_4">
    <path d="M 10.7 158.215934 
L 414.1 158.215934 
" style="fill:none;stroke:#808080;stroke-linecap:square;stroke-linejoin:miter;stroke-width:2;"/>
   </g>
   <g id="line2d_1">
    <path clip-path="url(#p75ef50d1a7)" d="M 76.118262 281.8 
L 78.268352 265.487726 
L 80.403314 250.916385 
L 82.563784 237.706539 
L 84.589814 226.62425 
L 86.515446 217.180671 
L 88.50026 208.480312 
L 90.453429 200.86954 
L 92.343006 194.33813 
L 94.259723 188.485364 
L 96.198676 183.294382 
L 98.123114 178.808559 
L 100.054588 174.916664 
L 101.642295 172.136757 
L 103.549273 169.254021 
L 105.33016 166.971152 
L 107.06058 165.094929 
L 108.791 163.52233 
L 110.745119 162.071884 
L 112.549108 161.003327 
L 114.652406 160.041133 
L 116.756245 159.338101 
L 119.153562 158.795279 
L 121.75425 158.447645 
L 124.559046 158.271546 
L 129.796003 158.215866 
L 135.27042 158.114689 
L 138.626281 157.845202 
L 141.524799 157.408714 
L 144.556766 156.701325 
L 147.297138 155.808655 
L 150.027363 154.656024 
L 152.719104 153.245224 
L 155.050708 151.793565 
L 157.896958 149.725131 
L 160.504111 147.541529 
L 163.402858 144.790493 
L 166.254166 141.758452 
L 168.837417 138.7412 
L 172.070755 134.620239 
L 175.427509 129.965119 
L 179.230532 124.275253 
L 183.313497 117.74732 
L 188.133303 109.608097 
L 194.844074 97.808746 
L 204.749935 80.419766 
L 209.119499 73.163867 
L 213.249198 66.744183 
L 216.82704 61.631473 
L 219.627586 57.978521 
L 222.140735 54.997121 
L 224.569081 52.410004 
L 227.183564 49.975237 
L 229.230203 48.341211 
L 231.401041 46.885058 
L 233.542462 45.742324 
L 235.622126 44.924572 
L 237.289895 44.484578 
L 239.124547 44.229569 
L 240.938661 44.219795 
L 242.555804 44.419194 
L 244.478621 44.917105 
L 246.106423 45.564122 
L 247.735358 46.421797 
L 249.648794 47.701298 
L 251.665015 49.370961 
L 253.557025 51.240186 
L 255.629217 53.624983 
L 257.519428 56.108446 
L 259.669422 59.289531 
L 261.82028 62.848594 
L 264.020528 66.874376 
L 266.728338 72.352721 
L 269.31757 78.116322 
L 271.938553 84.452739 
L 274.847872 92.046757 
L 278.13213 101.27632 
L 281.487596 111.351931 
L 285.466771 124.019019 
L 290.214788 139.908414 
L 306.492132 195.23564 
L 309.856558 205.518157 
L 312.852866 213.914262 
L 315.387862 220.312174 
L 317.37598 224.793271 
L 319.21922 228.467397 
L 320.86424 231.31289 
L 322.452746 233.635355 
L 323.967425 235.427721 
L 325.325321 236.657658 
L 326.429249 237.377986 
L 327.550969 237.838675 
L 328.662381 238.0118 
L 329.582736 237.931759 
L 330.573296 237.609629 
L 331.474177 237.095832 
L 332.525205 236.219754 
L 333.479989 235.155523 
L 334.506584 233.714778 
L 335.738498 231.563471 
L 337.064083 228.710447 
L 338.430489 225.157222 
L 339.838799 220.812153 
L 341.377269 215.232781 
L 342.915738 208.738826 
L 344.553398 200.7678 
L 346.267904 191.190351 
L 348.015528 180.059487 
L 349.873359 166.627391 
L 350.651676 160.488472 
L 350.651676 160.488472 
" style="fill:none;stroke:#ff0000;stroke-linecap:square;stroke-width:5;"/>
   </g>
   <g id="line2d_2">
    <path clip-path="url(#p75ef50d1a7)" d="M 351.235413 155.679656 
L 353.122038 138.899966 
L 355.068596 119.520801 
L 357.08101 97.156599 
L 359.067692 72.626962 
L 361.166535 43.920223 
L 363.318814 11.338393 
L 364.081151 -1 
L 364.081151 -1 
" style="fill:none;stroke:#ff0000;stroke-linecap:square;stroke-width:5;"/>
   </g>
  </g>
 </g>
 <defs>
  <clipPath id="p75ef50d1a7">
   <rect height="259.4" width="403.4" x="10.7" y="10.7"/>
  </clipPath>
 </defs>
</svg>
