<?xml version="1.0" encoding="utf-8" standalone="no"?>
<!DOCTYPE svg PUBLIC "-//W3C//DTD SVG 1.1//EN"
  "http://www.w3.org/Graphics/SVG/1.1/DTD/svg11.dtd">
<!-- Created with matplotlib (http://matplotlib.org/) -->
<svg height="280.8pt" version="1.1" viewBox="0 0 424.8 280.8" width="424.8pt" xmlns="http://www.w3.org/2000/svg" xmlns:xlink="http://www.w3.org/1999/xlink">
 <defs>
  <style type="text/css">
*{stroke-linecap:butt;stroke-linejoin:round;}
  </style>
 </defs>
 <g id="figure_1">
  <g id="patch_1">
   <path d="M 0 280.8 
L 424.8 280.8 
L 424.8 0 
L 0 0 
z
" style="fill:#ffffff;"/>
  </g>
  <g id="axes_1">
   <g id="patch_2">
    <path d="M 10.7 270.1 
L 414.1 270.1 
L 414.1 10.7 
L 10.7 10.7 
z
" style="fill:#ffffff;"/>
   </g>
   <g id="matplotlib.axis_1"/>
   <g id="matplotlib.axis_2"/>
   <g id="patch_3">
    <path d="M 212.4 270.1 
L 212.4 10.7 
" style="fill:none;stroke:#808080;stroke-linecap:square;stroke-linejoin:miter;stroke-width:2;"/>
   </g>
   <g id="patch_4">
    <path d="M 10.7 140.4 
L 414.1 140.4 
" style="fill:none;stroke:#808080;stroke-linecap:square;stroke-linejoin:miter;stroke-width:2;"/>
   </g>
   <g id="line2d_1">
    <path clip-path="url(#p1ba37f1bf8)" d="M 18.457692 115.457692 
L 21.041141 115.457692 
L 22.950797 115.457692 
L 23.823666 115.457692 
L 26.15062 115.457692 
L 28.851365 115.457692 
L 30.047996 115.457692 
L 32.947943 115.457692 
L 34.574644 115.457692 
L 35.173272 115.457692 
L 37.881932 115.457692 
L 40.189561 115.457692 
L 42.426339 115.457692 
L 43.539496 115.457692 
L 46.005037 115.457692 
L 46.736093 115.457692 
L 49.500579 115.457692 
L 52.16359 115.457692 
L 52.767397 115.457692 
L 55.945136 115.457692 
L 58.072336 115.457692 
L 58.561478 115.457692 
L 60.625891 115.457692 
L 63.560496 115.457692 
L 64.594489 115.457692 
L 66.535919 115.457692 
L 68.758727 115.457692 
L 70.663345 115.457692 
L 72.521733 115.457692 
L 74.275958 115.457692 
L 77.206732 115.457692 
L 79.201125 115.457692 
L 80.848615 115.457692 
L 83.657894 115.457692 
L 85.470681 115.457692 
L 87.175109 115.457692 
L 89.266738 115.457692 
L 90.839619 115.457692 
L 93.101416 115.457692 
L 93.616692 115.457692 
L 96.155336 115.457692 
L 97.716156 115.457692 
L 100.388017 115.457692 
L 101.497101 115.457692 
L 105.162496 115.457692 
L 105.324316 115.457692 
L 108.056748 115.457692 
L 109.968607 115.457692 
L 111.662945 115.457692 
L 114.71572 115.457692 
L 116.604428 115.457692 
L 117.730231 115.457692 
L 120.328439 115.457692 
L 121.991029 115.457692 
L 124.514373 115.457692 
L 125.252127 115.457692 
L 127.397527 115.457692 
L 130.351699 115.457692 
L 130.552796 115.457692 
L 133.162942 115.457692 
L 135.709237 115.457692 
L 137.143769 115.457692 
L 139.294155 115.457692 
L 140.496883 115.457692 
L 142.397347 115.457692 
L 144.979222 115.457692 
L 147.374667 115.457692 
L 149.531822 115.457692 
L 150.43044 115.457692 
L 153.363526 115.457692 
L 154.477824 115.457692 
L 157.666271 115.457692 
L 159.234896 115.457692 
L 161.099477 115.457692 
L 163.582688 115.457692 
L 163.866206 115.457692 
L 165.664226 115.457692 
L 169.493466 115.457692 
L 170.299979 115.457692 
L 172.921297 115.457692 
L 174.879541 115.457692 
L 175.448428 115.457692 
L 178.270119 115.457692 
L 179.278011 115.457692 
L 182.207121 115.457692 
L 183.606596 115.457692 
L 185.732281 115.457692 
L 187.228419 115.457692 
L 190.418038 115.457692 
L 192.834222 115.457692 
L 194.013853 115.457692 
L 195.11125 115.457692 
L 197.574341 115.457692 
L 198.798293 115.457692 
L 201.886932 115.457692 
L 202.890763 115.457692 
L 206.094154 115.457692 
L 207.210035 115.457692 
L 208.868499 115.457692 
" style="fill:none;stroke:#ff0000;stroke-linecap:square;stroke-width:5;"/>
   </g>
   <g id="line2d_2">
    <path clip-path="url(#p1ba37f1bf8)" d="M 214.627416 115.457692 
L 218.200281 115.457692 
L 218.997159 115.457692 
L 221.642363 115.457692 
L 223.360826 115.457692 
L 225.987771 115.457692 
L 227.410615 115.457692 
L 229.911184 115.457692 
L 230.51251 115.457692 
L 233.302166 115.457692 
L 235.738522 115.457692 
L 237.124646 115.457692 
L 238.101919 115.457692 
L 241.156692 115.457692 
L 243.559028 115.457692 
L 243.906424 115.457692 
L 245.726593 115.457692 
L 248.509431 115.457692 
L 249.709003 115.457692 
L 251.851756 115.457692 
L 253.961328 115.457692 
L 256.452162 115.457692 
L 257.848138 115.457692 
L 260.202373 115.457692 
L 261.816412 115.457692 
L 264.64811 115.457692 
L 265.509343 115.457692 
L 268.474485 115.457692 
L 270.808006 115.457692 
L 272.059846 115.457692 
L 274.368691 115.457692 
L 276.643539 115.457692 
L 276.740964 115.457692 
L 280.27007 115.457692 
L 282.550507 115.457692 
L 283.978525 115.457692 
L 284.938508 115.457692 
L 287.098239 115.457692 
L 288.583168 115.457692 
L 291.180153 115.457692 
L 293.699999 115.457692 
L 295.912366 115.457692 
L 297.950849 115.457692 
L 299.72891 115.457692 
L 301.323512 115.457692 
L 302.681352 115.457692 
L 304.469138 115.457692 
L 307.49256 115.457692 
L 309.051601 115.457692 
L 309.954548 115.457692 
L 312.027625 115.457692 
L 314.62665 115.457692 
L 317.094698 115.457692 
L 317.665856 115.457692 
L 321.160152 115.457692 
L 322.407871 115.457692 
L 325.001136 115.457692 
L 325.797699 115.457692 
L 328.382893 115.457692 
L 329.623602 115.457692 
L 332.914099 115.457692 
L 334.468936 115.457692 
L 336.528833 115.457692 
L 337.457392 115.457692 
L 340.871256 115.457692 
L 342.154126 115.457692 
L 343.13334 115.457692 
L 346.604873 115.457692 
L 348.422426 115.457692 
L 350.350891 115.457692 
L 351.132541 115.457692 
L 353.728163 115.457692 
L 356.537223 115.457692 
L 358.158462 115.457692 
L 359.078775 115.457692 
L 362.359825 115.457692 
L 363.302616 115.457692 
L 364.906992 115.457692 
L 367.198895 115.457692 
L 369.677317 115.457692 
L 371.652555 115.457692 
L 372.650509 115.457692 
L 374.955547 115.457692 
L 376.382184 115.457692 
L 378.406597 115.457692 
L 381.812017 115.457692 
L 382.238699 115.457692 
L 384.641498 115.457692 
L 386.847587 115.457692 
L 389.223561 115.457692 
L 390.519898 115.457692 
L 393.425615 115.457692 
L 394.084231 115.457692 
L 397.233187 115.457692 
L 397.840925 115.457692 
L 400.627754 115.457692 
L 402.797115 115.457692 
L 405.308779 115.457692 
L 406.342308 115.457692 
" style="fill:none;stroke:#ff0000;stroke-linecap:square;stroke-width:5;"/>
   </g>
  </g>
 </g>
 <defs>
  <clipPath id="p1ba37f1bf8">
   <rect height="259.4" width="403.4" x="10.7" y="10.7"/>
  </clipPath>
 </defs>
</svg>
