<?xml version="1.0" encoding="utf-8" standalone="no"?>
<!DOCTYPE svg PUBLIC "-//W3C//DTD SVG 1.1//EN"
  "http://www.w3.org/Graphics/SVG/1.1/DTD/svg11.dtd">
<!-- Created with matplotlib (http://matplotlib.org/) -->
<svg height="280.8pt" version="1.1" viewBox="0 0 424.8 280.8" width="424.8pt" xmlns="http://www.w3.org/2000/svg" xmlns:xlink="http://www.w3.org/1999/xlink">
 <defs>
  <style type="text/css">
*{stroke-linecap:butt;stroke-linejoin:round;}
  </style>
 </defs>
 <g id="figure_1">
  <g id="patch_1">
   <path d="M 0 280.8 
L 424.8 280.8 
L 424.8 0 
L 0 0 
z
" style="fill:#ffffff;"/>
  </g>
  <g id="axes_1">
   <g id="patch_2">
    <path d="M 10.7 270.1 
L 414.1 270.1 
L 414.1 10.7 
L 10.7 10.7 
z
" style="fill:#ffffff;"/>
   </g>
   <g id="matplotlib.axis_1"/>
   <g id="matplotlib.axis_2"/>
   <g id="patch_3">
    <path d="M 173.611538 270.1 
L 173.611538 10.7 
" style="fill:none;stroke:#808080;stroke-linecap:square;stroke-linejoin:miter;stroke-width:2;"/>
   </g>
   <g id="patch_4">
    <path d="M 10.7 98.829487 
L 414.1 98.829487 
" style="fill:none;stroke:#808080;stroke-linecap:square;stroke-linejoin:miter;stroke-width:2;"/>
   </g>
   <g id="line2d_1">
    <path clip-path="url(#pb829700319)" d="M 18.457692 75.074908 
L 20.731942 75.715443 
L 23.302644 76.436654 
L 23.752922 76.562663 
L 26.588772 77.354018 
L 27.662358 77.652569 
L 30.882876 78.544592 
L 32.598092 79.017416 
L 34.298578 79.484566 
L 36.374663 80.05265 
L 37.948768 80.481672 
L 39.698911 80.956891 
L 42.076977 81.599492 
L 44.719055 82.309038 
L 45.598316 82.544104 
L 48.556558 83.330897 
L 49.739634 83.643738 
L 50.694953 83.895569 
L 53.157368 84.541355 
L 56.379189 85.378715 
L 58.210476 85.850635 
L 60.161365 86.349997 
L 61.218291 86.619027 
L 62.912179 87.047904 
L 65.551162 87.710236 
L 66.711358 87.999081 
L 68.319011 88.396863 
L 70.937633 89.038411 
L 72.746427 89.476719 
L 75.113241 90.043954 
L 77.732663 90.662947 
L 78.06249 90.740205 
L 81.630487 91.565669 
L 83.427469 91.973913 
L 84.355106 92.182586 
L 87.514055 92.88206 
L 89.198199 93.24757 
L 89.610293 93.336185 
L 91.958937 93.834807 
L 94.005486 94.259979 
L 96.046495 94.674823 
L 99.019426 95.261535 
L 100.836324 95.609147 
L 101.551861 95.743635 
L 104.619308 96.303835 
L 106.730798 96.673075 
L 107.216787 96.756054 
L 110.861719 97.352778 
L 112.525101 97.60907 
L 114.86314 97.950798 
L 116.425476 98.166282 
L 118.428242 98.426337 
L 118.944934 98.490329 
L 120.69527 98.697153 
L 122.445606 98.8878 
L 123.388949 98.983449 
L 124.768996 99.113928 
L 127.139335 99.31014 
L 128.645357 99.415128 
L 131.004102 99.546033 
L 132.447523 99.604358 
L 133.890944 99.64482 
L 135.914736 99.669149 
L 137.053329 99.664983 
L 138.191922 99.647058 
L 140.162511 99.581194 
L 141.169047 99.529309 
L 142.175584 99.46423 
L 143.140511 99.3888 
L 144.105439 99.299926 
L 145.373917 99.161434 
L 146.598217 99.002904 
L 147.609801 98.852248 
L 148.621384 98.682658 
L 149.662353 98.487157 
L 150.703321 98.269022 
L 151.448543 98.09814 
L 152.193764 97.914317 
L 153.525851 97.551512 
L 154.857937 97.141465 
L 155.568577 96.901904 
L 156.279216 96.646942 
L 156.989856 96.375804 
L 157.700495 96.087667 
L 158.132499 95.903825 
L 159.130748 95.452572 
L 160.128998 94.96213 
L 160.952517 94.525875 
L 161.776037 94.058989 
L 162.599556 93.559419 
L 163.423075 93.024926 
L 164.162899 92.512961 
L 164.986216 91.905393 
L 165.809533 91.255154 
L 166.265206 90.875768 
L 166.72088 90.481747 
L 167.176554 90.072473 
L 167.632227 89.647289 
L 168.087901 89.205504 
L 168.543574 88.746383 
L 168.999248 88.269149 
L 169.454921 87.772977 
L 169.984936 87.170866 
L 170.514951 86.540474 
L 171.145488 85.751489 
L 171.776024 84.917347 
L 172.406561 84.034891 
L 172.721829 83.574477 
L 173.037097 83.100663 
" style="fill:none;stroke:#ff0000;stroke-linecap:square;stroke-width:5;"/>
   </g>
   <g id="line2d_2">
    <path clip-path="url(#pb829700319)" d="M 174.565341 80.597497 
L 176.177879 77.530207 
L 177.866252 73.745037 
L 179.238306 70.137003 
L 180.746116 65.487582 
L 182.121698 60.467413 
L 183.447507 54.741274 
L 184.773317 47.905136 
L 186.034087 40.074893 
L 187.214776 31.2056 
L 188.310202 21.226723 
L 189.343046 9.770933 
L 190.150169 -1 
L 190.150169 -1 
" style="fill:none;stroke:#ff0000;stroke-linecap:square;stroke-width:5;"/>
   </g>
   <g id="line2d_3">
    <path clip-path="url(#pb829700319)" d="M 208.790961 281.8 
L 209.84634 268.060068 
L 210.996852 256.020462 
L 212.171018 246.051436 
L 213.248051 238.457836 
L 214.60184 230.516258 
L 215.877715 224.297072 
L 217.251559 218.664102 
L 218.670973 213.757343 
L 220.150009 209.42775 
L 221.55883 205.902101 
L 223.112916 202.562938 
L 224.64727 199.731102 
L 226.467754 196.861438 
L 228.532178 194.13099 
L 230.473356 191.975902 
L 232.802845 189.817027 
L 234.545516 188.454544 
L 236.489288 187.148406 
L 238.874541 185.80595 
L 241.108073 184.767989 
L 243.724593 183.777507 
L 246.679875 182.902964 
L 250.276417 182.125028 
L 253.986782 181.589932 
L 258.304942 181.241617 
L 263.399396 181.132354 
L 268.044621 181.259003 
L 274.31427 181.698987 
L 280.561885 182.379812 
L 288.492354 183.512477 
L 297.666258 185.10828 
L 306.323711 186.827441 
L 315.830482 188.897706 
L 329.799983 192.200877 
L 345.135758 196.089549 
L 363.389876 200.972388 
L 385.161603 207.049695 
L 406.342308 213.148397 
L 406.342308 213.148397 
" style="fill:none;stroke:#ff0000;stroke-linecap:square;stroke-width:5;"/>
   </g>
  </g>
 </g>
 <defs>
  <clipPath id="pb829700319">
   <rect height="259.4" width="403.4" x="10.7" y="10.7"/>
  </clipPath>
 </defs>
</svg>
