<?xml version="1.0" encoding="utf-8" standalone="no"?>
<!DOCTYPE svg PUBLIC "-//W3C//DTD SVG 1.1//EN"
  "http://www.w3.org/Graphics/SVG/1.1/DTD/svg11.dtd">
<!-- Created with matplotlib (http://matplotlib.org/) -->
<svg height="280.8pt" version="1.1" viewBox="0 0 424.8 280.8" width="424.8pt" xmlns="http://www.w3.org/2000/svg" xmlns:xlink="http://www.w3.org/1999/xlink">
 <defs>
  <style type="text/css">
*{stroke-linecap:butt;stroke-linejoin:round;}
  </style>
 </defs>
 <g id="figure_1">
  <g id="patch_1">
   <path d="M 0 280.8 
L 424.8 280.8 
L 424.8 0 
L 0 0 
z
" style="fill:#ffffff;"/>
  </g>
  <g id="axes_1">
   <g id="patch_2">
    <path d="M 10.7 270.1 
L 414.1 270.1 
L 414.1 10.7 
L 10.7 10.7 
z
" style="fill:#ffffff;"/>
   </g>
   <g id="matplotlib.axis_1"/>
   <g id="matplotlib.axis_2"/>
   <g id="patch_3">
    <path d="M 212.4 270.1 
L 212.4 10.7 
" style="fill:none;stroke:#808080;stroke-linecap:square;stroke-linejoin:miter;stroke-width:2;"/>
   </g>
   <g id="patch_4">
    <path d="M 10.7 140.4 
L 414.1 140.4 
" style="fill:none;stroke:#808080;stroke-linecap:square;stroke-linejoin:miter;stroke-width:2;"/>
   </g>
   <g id="line2d_1">
    <path clip-path="url(#p444ccb556d)" d="M 45.014497 281.8 
L 48.86293 266.793126 
L 52.790712 252.369017 
L 56.537881 239.429116 
L 60.358144 227.043667 
L 63.984695 216.023401 
L 67.498845 206.014678 
L 71.099745 196.428101 
L 74.61046 187.719617 
L 78.128553 179.610881 
L 81.429735 172.552679 
L 84.591364 166.282184 
L 87.836668 160.33357 
L 91.119249 154.809216 
L 94.120613 150.183119 
L 96.988208 146.135322 
L 99.93242 142.351003 
L 102.918347 138.890996 
L 105.683532 136.020626 
L 108.354799 133.547989 
L 110.973332 131.406662 
L 113.645968 129.50597 
L 116.243207 127.931675 
L 118.629618 126.720134 
L 121.235916 125.652351 
L 123.796129 124.862015 
L 125.963749 124.392997 
L 128.378732 124.087091 
L 130.73562 124.01008 
L 133.066074 124.151505 
L 135.394641 124.512517 
L 137.574685 125.054101 
L 139.830527 125.828063 
L 142.057187 126.813237 
L 144.425359 128.114401 
L 146.637937 129.580943 
L 148.910117 131.359021 
L 151.149931 133.407022 
L 153.433776 135.832054 
L 155.630199 138.529162 
L 157.58836 141.282348 
L 159.477132 144.302465 
L 161.320859 147.659733 
L 163.014271 151.171109 
L 164.729418 155.237533 
L 166.394742 159.795853 
L 167.882096 164.50766 
L 169.36945 169.992856 
L 170.761516 176.033958 
L 172.066054 182.743562 
L 173.308149 190.389876 
L 174.434284 198.753209 
L 175.526777 208.649217 
L 176.530078 219.886043 
L 177.464988 232.977719 
L 178.344297 248.615225 
L 179.167701 267.568516 
L 179.661352 281.8 
L 179.661352 281.8 
" style="fill:none;stroke:#ff0000;stroke-linecap:square;stroke-width:5;"/>
   </g>
   <g id="line2d_2">
    <path clip-path="url(#p444ccb556d)" d="M 190.297678 -1 
L 191.140619 18.064015 
L 192.048227 33.953864 
L 193.062361 47.910453 
L 194.133507 59.686839 
L 195.237558 69.610283 
L 196.458222 78.730741 
L 197.780609 87.04156 
L 199.280615 95.057514 
L 200.940158 102.683875 
L 202.787896 110.097514 
L 204.85167 117.454177 
L 207.298828 125.349799 
L 210.419825 134.675387 
L 211.535806 137.908769 
L 211.535806 137.908769 
" style="fill:none;stroke:#ff0000;stroke-linecap:square;stroke-width:5;"/>
   </g>
   <g id="line2d_3">
    <path clip-path="url(#p444ccb556d)" d="M 213.705116 144.165518 
L 217.658935 155.939506 
L 220.257658 164.400008 
L 222.390165 172.145278 
L 224.194162 179.567533 
L 225.767663 186.98515 
L 227.144619 194.488938 
L 228.437786 202.729897 
L 229.638584 211.816585 
L 230.773906 222.186053 
L 231.77867 233.394073 
L 232.692092 245.928354 
L 233.593895 261.451195 
L 234.433598 280.041098 
L 234.502361 281.8 
L 234.502361 281.8 
" style="fill:none;stroke:#ff0000;stroke-linecap:square;stroke-width:5;"/>
   </g>
   <g id="line2d_4">
    <path clip-path="url(#p444ccb556d)" d="M 245.139001 -1 
L 245.884891 19.59982 
L 246.770754 38.241008 
L 247.693389 53.201347 
L 248.699901 66.02995 
L 249.805412 77.228373 
L 250.969316 86.725685 
L 252.169922 94.759379 
L 253.458674 101.927016 
L 254.867727 108.484337 
L 256.360075 114.336491 
L 257.896501 119.468133 
L 259.555264 124.222782 
L 261.215016 128.3381 
L 263.068443 132.329394 
L 264.891415 135.750846 
L 266.896727 139.040573 
L 268.891864 141.901288 
L 270.979635 144.520637 
L 273.121528 146.863498 
L 275.255488 148.891959 
L 277.48016 150.715426 
L 279.815816 152.33875 
L 281.919299 153.564655 
L 284.187671 154.651567 
L 286.594088 155.551529 
L 288.915788 156.183191 
L 291.030445 156.562785 
L 293.505493 156.775839 
L 295.882018 156.749906 
L 298.248684 156.502485 
L 300.643073 156.028787 
L 303.233349 155.264147 
L 305.731164 154.278455 
L 308.10224 153.116389 
L 310.663521 151.611863 
L 313.135393 149.91241 
L 315.755974 147.842605 
L 318.443855 145.4296 
L 321.282935 142.557544 
L 324.080178 139.398097 
L 327.054277 135.674057 
L 330.104582 131.457182 
L 333.097395 126.921458 
L 336.275794 121.664184 
L 339.369997 116.101988 
L 342.592364 109.834167 
L 345.7098 103.299708 
L 349.031579 95.816971 
L 352.393077 87.687269 
L 355.888604 78.625844 
L 359.366818 68.98113 
L 362.952871 58.366975 
L 366.456408 47.32549 
L 370.046236 35.308719 
L 373.696923 22.342487 
L 377.4635 8.15941 
L 379.785619 -1 
L 379.785619 -1 
" style="fill:none;stroke:#ff0000;stroke-linecap:square;stroke-width:5;"/>
   </g>
  </g>
 </g>
 <defs>
  <clipPath id="p444ccb556d">
   <rect height="259.4" width="403.4" x="10.7" y="10.7"/>
  </clipPath>
 </defs>
</svg>
