<?xml version="1.0" encoding="utf-8" standalone="no"?>
<!DOCTYPE svg PUBLIC "-//W3C//DTD SVG 1.1//EN"
  "http://www.w3.org/Graphics/SVG/1.1/DTD/svg11.dtd">
<!-- Created with matplotlib (http://matplotlib.org/) -->
<svg height="280.8pt" version="1.1" viewBox="0 0 424.8 280.8" width="424.8pt" xmlns="http://www.w3.org/2000/svg" xmlns:xlink="http://www.w3.org/1999/xlink">
 <defs>
  <style type="text/css">
*{stroke-linecap:butt;stroke-linejoin:round;}
  </style>
 </defs>
 <g id="figure_1">
  <g id="patch_1">
   <path d="M 0 280.8 
L 424.8 280.8 
L 424.8 0 
L 0 0 
z
" style="fill:#ffffff;"/>
  </g>
  <g id="axes_1">
   <g id="patch_2">
    <path d="M 10.7 270.1 
L 414.1 270.1 
L 414.1 10.7 
L 10.7 10.7 
z
" style="fill:#ffffff;"/>
   </g>
   <g id="matplotlib.axis_1"/>
   <g id="matplotlib.axis_2"/>
   <g id="patch_3">
    <path d="M 240.106044 270.1 
L 240.106044 10.7 
" style="fill:none;stroke:#808080;stroke-linecap:square;stroke-linejoin:miter;stroke-width:2;"/>
   </g>
   <g id="patch_4">
    <path d="M 10.7 140.4 
L 414.1 140.4 
" style="fill:none;stroke:#808080;stroke-linecap:square;stroke-linejoin:miter;stroke-width:2;"/>
   </g>
   <g id="line2d_1">
    <path clip-path="url(#p44a45dcea4)" d="M 110.682443 281.8 
L 113.370525 255.822375 
L 116.124062 231.296714 
L 118.796513 209.423114 
L 121.409796 189.791878 
L 124.060362 171.577935 
L 126.714451 154.975181 
L 129.187734 140.909402 
L 131.659865 128.143615 
L 133.956724 117.38991 
L 136.159841 108.03268 
L 138.280268 99.873973 
L 140.627411 91.768894 
L 142.613877 85.635791 
L 144.59271 80.158992 
L 146.52088 75.403952 
L 148.514806 71.063986 
L 150.541279 67.227244 
L 152.245344 64.42873 
L 153.988057 61.953126 
L 155.624375 59.96932 
L 157.260693 58.301355 
L 158.795564 57.011798 
L 160.315193 55.986239 
L 161.985518 55.134758 
L 163.577329 54.579871 
L 165.077203 54.275494 
L 166.781909 54.17449 
L 168.469742 54.318186 
L 170.086421 54.670965 
L 171.684202 55.215168 
L 173.501872 56.05691 
L 175.43381 57.194705 
L 177.717986 58.83877 
L 180.039544 60.812939 
L 182.450702 63.155086 
L 184.912754 65.820261 
L 188.408 70.014134 
L 192.245483 75.07544 
L 196.834985 81.601845 
L 202.383748 89.935307 
L 217.751425 113.305666 
L 222.717826 120.340462 
L 227.111976 126.157505 
L 230.421194 130.235602 
L 234.092553 134.416533 
L 237.58063 138.024121 
L 238.836517 139.23108 
L 238.836517 139.23108 
" style="fill:none;stroke:#ff0000;stroke-linecap:square;stroke-width:5;"/>
   </g>
   <g id="line2d_2">
    <path clip-path="url(#p44a45dcea4)" d="M 241.210886 141.374703 
L 244.227227 143.829406 
L 247.286603 146.00299 
L 249.641984 147.454734 
L 252.331654 148.873413 
L 255.00286 150.028333 
L 257.520517 150.884945 
L 259.790432 151.465284 
L 262.740768 151.950532 
L 265.2979 152.129361 
L 268.087003 152.075012 
L 270.919071 151.76238 
L 273.889811 151.167879 
L 276.445278 150.44959 
L 279.371994 149.407101 
L 282.524136 148.042857 
L 285.279061 146.665957 
L 289.280681 144.402059 
L 293.529663 141.724818 
L 299.6702 137.542695 
L 309.085352 131.08595 
L 313.338355 128.45601 
L 317.120023 126.424047 
L 319.92279 125.168691 
L 322.779409 124.160721 
L 325.172767 123.563259 
L 327.222082 123.255235 
L 328.968742 123.156588 
L 330.86013 123.235195 
L 333.018184 123.580762 
L 334.927316 124.132916 
L 336.956156 124.993883 
L 338.680798 125.96381 
L 340.449237 127.200654 
L 342.175983 128.659323 
L 343.918861 130.397738 
L 345.85037 132.654703 
L 347.666426 135.111584 
L 349.501717 137.942531 
L 351.417615 141.291121 
L 353.505568 145.422862 
L 355.717627 150.379945 
L 357.987626 156.122613 
L 360.140646 162.2175 
L 362.173614 168.582292 
L 364.511531 176.671827 
L 366.725381 185.129823 
L 369.218125 195.630981 
L 371.647684 206.914003 
L 374.212378 220.006213 
L 376.735013 234.128363 
L 379.374866 250.296156 
L 381.902904 267.177079 
L 383.937033 281.8 
L 383.937033 281.8 
" style="fill:none;stroke:#ff0000;stroke-linecap:square;stroke-width:5;"/>
   </g>
  </g>
 </g>
 <defs>
  <clipPath id="p44a45dcea4">
   <rect height="259.4" width="403.4" x="10.7" y="10.7"/>
  </clipPath>
 </defs>
</svg>
