<?xml version="1.0" encoding="utf-8" standalone="no"?>
<!DOCTYPE svg PUBLIC "-//W3C//DTD SVG 1.1//EN"
  "http://www.w3.org/Graphics/SVG/1.1/DTD/svg11.dtd">
<!-- Created with matplotlib (http://matplotlib.org/) -->
<svg height="280.8pt" version="1.1" viewBox="0 0 424.8 280.8" width="424.8pt" xmlns="http://www.w3.org/2000/svg" xmlns:xlink="http://www.w3.org/1999/xlink">
 <defs>
  <style type="text/css">
*{stroke-linecap:butt;stroke-linejoin:round;}
  </style>
 </defs>
 <g id="figure_1">
  <g id="patch_1">
   <path d="M 0 280.8 
L 424.8 280.8 
L 424.8 0 
L 0 0 
z
" style="fill:#ffffff;"/>
  </g>
  <g id="axes_1">
   <g id="patch_2">
    <path d="M 10.7 270.1 
L 414.1 270.1 
L 414.1 10.7 
L 10.7 10.7 
z
" style="fill:#ffffff;"/>
   </g>
   <g id="matplotlib.axis_1"/>
   <g id="matplotlib.axis_2"/>
   <g id="patch_3">
    <path d="M 212.4 270.1 
L 212.4 10.7 
" style="fill:none;stroke:#808080;stroke-linecap:square;stroke-linejoin:miter;stroke-width:2;"/>
   </g>
   <g id="patch_4">
    <path d="M 10.7 140.4 
L 414.1 140.4 
" style="fill:none;stroke:#808080;stroke-linecap:square;stroke-linejoin:miter;stroke-width:2;"/>
   </g>
   <g id="line2d_1">
    <path clip-path="url(#pf9e6c54a6d)" d="M 39.49352 281.8 
L 43.682283 271.76843 
L 47.670259 262.67143 
L 51.923466 253.442967 
L 56.696594 243.653142 
L 60.713497 235.866226 
L 65.399089 227.289845 
L 69.613808 220.028324 
L 73.660881 213.447564 
L 78.122125 206.625054 
L 82.765908 199.989074 
L 87.31697 193.930848 
L 91.466136 188.778537 
L 95.834814 183.722701 
L 99.51726 179.745183 
L 104.005942 175.235766 
L 108.027169 171.500783 
L 112.483005 167.685193 
L 117.063576 164.102029 
L 120.910678 161.34692 
L 124.409282 159.034577 
L 129.55297 155.953917 
L 134.354772 153.403133 
L 139.618491 150.94562 
L 144.163402 149.090826 
L 148.820667 147.430025 
L 153.730377 145.923938 
L 159.38413 144.475929 
L 164.269767 143.44974 
L 169.907389 142.498694 
L 175.662857 141.756204 
L 182.229086 141.151232 
L 188.261651 140.784708 
L 195.341138 140.535787 
L 206.003786 140.407158 
L 208.911736 140.401161 
L 208.911736 140.401161 
" style="fill:none;stroke:#ff0000;stroke-linecap:square;stroke-width:5;"/>
   </g>
   <g id="line2d_2">
    <path clip-path="url(#pf9e6c54a6d)" d="M 215.712824 140.399006 
L 228.27616 140.290543 
L 237.798126 139.95186 
L 244.742745 139.474579 
L 251.512743 138.76332 
L 257.005362 137.972439 
L 262.985661 136.859283 
L 268.336671 135.61261 
L 272.844723 134.359344 
L 277.339137 132.909195 
L 282.08447 131.144136 
L 287.002447 129.042882 
L 290.998982 127.118115 
L 294.7041 125.149877 
L 299.07066 122.591586 
L 303.544841 119.688802 
L 307.641974 116.768347 
L 312.115028 113.279931 
L 316.071818 109.921675 
L 320.016358 106.30868 
L 324.212267 102.163573 
L 328.84947 97.206192 
L 332.938819 92.494019 
L 336.433093 88.20587 
L 340.963741 82.274802 
L 345.046286 76.559802 
L 349.233869 70.320699 
L 353.872046 62.950103 
L 358.155622 55.699711 
L 362.442236 48.004776 
L 367.117851 39.095154 
L 371.433822 30.378533 
L 375.782625 21.103817 
L 380.405335 10.688595 
L 385.305649 -1 
L 385.305649 -1 
" style="fill:none;stroke:#ff0000;stroke-linecap:square;stroke-width:5;"/>
   </g>
  </g>
 </g>
 <defs>
  <clipPath id="pf9e6c54a6d">
   <rect height="259.4" width="403.4" x="10.7" y="10.7"/>
  </clipPath>
 </defs>
</svg>
