<?xml version="1.0" encoding="utf-8" standalone="no"?>
<!DOCTYPE svg PUBLIC "-//W3C//DTD SVG 1.1//EN"
  "http://www.w3.org/Graphics/SVG/1.1/DTD/svg11.dtd">
<!-- Created with matplotlib (http://matplotlib.org/) -->
<svg height="280.8pt" version="1.1" viewBox="0 0 424.8 280.8" width="424.8pt" xmlns="http://www.w3.org/2000/svg" xmlns:xlink="http://www.w3.org/1999/xlink">
 <defs>
  <style type="text/css">
*{stroke-linecap:butt;stroke-linejoin:round;}
  </style>
 </defs>
 <g id="figure_1">
  <g id="patch_1">
   <path d="M 0 280.8 
L 424.8 280.8 
L 424.8 0 
L 0 0 
z
" style="fill:#ffffff;"/>
  </g>
  <g id="axes_1">
   <g id="patch_2">
    <path d="M 10.7 270.1 
L 414.1 270.1 
L 414.1 10.7 
L 10.7 10.7 
z
" style="fill:#ffffff;"/>
   </g>
   <g id="matplotlib.axis_1"/>
   <g id="matplotlib.axis_2"/>
   <g id="patch_3">
    <path d="M 212.4 270.1 
L 212.4 10.7 
" style="fill:none;stroke:#808080;stroke-linecap:square;stroke-linejoin:miter;stroke-width:2;"/>
   </g>
   <g id="patch_4">
    <path d="M 10.7 31.277404 
L 414.1 31.277404 
" style="fill:none;stroke:#808080;stroke-linecap:square;stroke-linejoin:miter;stroke-width:2;"/>
   </g>
   <g id="line2d_1">
    <path clip-path="url(#pb933dc36c4)" d="M 18.457692 33.936537 
L 30.592479 34.602615 
L 38.118215 35.173641 
L 45.236515 35.888184 
L 52.230355 36.842908 
L 58.05559 37.936341 
L 60.520806 38.517802 
L 65.13924 39.88036 
L 68.932721 41.376879 
L 71.535791 42.69125 
L 74.093922 44.304531 
L 76.447037 46.176819 
L 78.719358 48.47989 
L 81.011537 51.509893 
L 81.775596 52.73206 
L 83.616072 56.265152 
L 84.20319 57.608756 
L 85.649416 61.506253 
L 86.955462 65.959114 
L 88.191418 71.308844 
L 89.015389 75.705292 
L 90.150203 83.250063 
L 91.187681 92.239385 
L 92.107405 102.610854 
L 92.999117 115.787218 
L 93.74221 130.148025 
L 94.548457 150.846922 
L 95.269239 176.079158 
L 95.913506 206.836999 
L 96.481259 243.710087 
L 96.922207 281.8 
M 105.412528 281.8 
L 105.978923 215.525383 
L 106.595098 168.078087 
L 107.260543 133.735758 
L 107.842808 112.57273 
L 108.508254 94.912984 
L 109.291445 79.998584 
L 110.192383 67.911315 
L 111.090517 59.348227 
L 111.936924 53.394135 
L 112.73441 49.094256 
L 113.598525 45.469813 
L 114.52927 42.446374 
L 115.460014 40.094464 
L 115.925387 39.114542 
L 116.980968 37.271038 
L 117.915846 35.987613 
L 118.850723 34.956413 
L 120.088491 33.890521 
L 121.326258 33.086084 
L 123.123218 32.261005 
L 124.678772 31.790212 
L 127.179339 31.375733 
L 128.787059 31.282647 
L 130.936196 31.334204 
L 134.142883 31.765253 
L 135.608237 32.116237 
L 138.196299 33.039287 
L 140.302394 34.18778 
L 141.415387 35.003474 
L 142.864543 36.374244 
L 144.702175 38.857644 
L 145.793696 40.93864 
L 146.75165 43.33155 
L 147.630821 46.194813 
L 148.431209 49.59327 
L 149.166408 53.66412 
L 149.836419 58.504083 
L 150.673932 66.824033 
L 151.343943 76.281821 
L 151.959073 88.463415 
L 152.55591 105.407889 
L 153.078142 126.981432 
L 153.600374 159.210995 
L 154.067747 203.809104 
L 154.473239 264.195585 
L 154.562858 281.8 
M 159.365899 281.8 
L 159.810459 207.427477 
L 160.273574 160.009172 
L 160.852468 123.084647 
L 161.431362 99.690993 
L 162.104595 81.88695 
L 162.763476 70.176918 
L 163.422357 61.906321 
L 164.081238 55.85486 
L 164.740991 51.29336 
L 165.73193 46.311023 
L 166.392557 43.843347 
L 167.525442 40.665349 
L 167.997702 39.629057 
L 168.852304 38.06961 
L 169.706907 36.826631 
L 170.56151 35.822853 
L 171.416112 35.003336 
L 173.314049 33.657293 
L 173.94936 33.315565 
L 175.845792 32.524792 
L 178.077175 31.913681 
L 181.049239 31.455395 
L 185.062456 31.279145 
L 187.466594 31.37679 
L 191.786759 31.983991 
L 193.61674 32.470657 
L 195.202866 33.058377 
L 197.125268 34.069048 
L 198.444676 35.038924 
L 200.353394 37.075109 
L 201.532017 38.917975 
L 202.707718 41.477168 
L 203.294108 43.143346 
L 204.173692 46.346822 
L 204.97612 50.321728 
L 205.739969 55.520978 
L 206.503818 62.873513 
L 207.064225 70.393749 
L 207.619362 80.602123 
L 208.110474 93.13242 
L 208.662976 113.549278 
L 209.154088 141.124445 
L 209.623127 182.26416 
L 210.030776 239.608558 
L 210.236203 281.8 
L 210.236203 281.8 
" style="fill:none;stroke:#ff0000;stroke-linecap:square;stroke-width:5;"/>
   </g>
   <g id="line2d_2">
    <path clip-path="url(#pb933dc36c4)" d="M 214.563754 281.8 
L 214.912031 216.323813 
L 215.355049 164.318834 
L 215.908821 124.926969 
L 216.470471 100.238602 
L 217.134502 81.615725 
L 217.786471 69.615525 
L 218.438439 61.289972 
L 219.090407 55.279588 
L 219.742376 50.800138 
L 220.769055 45.757188 
L 221.361089 43.606307 
L 222.319405 40.910353 
L 223.277722 38.90021 
L 224.667716 36.788219 
L 225.774791 35.564172 
L 226.881866 34.618288 
L 227.936729 33.90689 
L 228.991592 33.335576 
L 230.318186 32.768636 
L 232.874218 32.015094 
L 236.170422 31.480345 
L 237.762641 31.348162 
L 240.347752 31.278155 
L 243.932114 31.474279 
L 247.8531 32.187938 
L 249.450952 32.703359 
L 250.964365 33.373467 
L 252.477779 34.291413 
L 253.582667 35.179803 
L 254.687556 36.324271 
L 256.313233 38.692362 
L 257.492616 41.194334 
L 258.535127 44.278533 
L 259.345169 47.52639 
L 260.155501 51.886524 
L 260.763468 56.211847 
L 261.371435 61.84037 
L 261.979401 69.345991 
L 262.688696 81.744279 
L 263.244361 95.798868 
L 263.747723 113.866458 
L 264.251086 140.190658 
L 264.710596 176.328593 
L 265.148815 229.748921 
L 265.434587 281.8 
M 270.237514 281.8 
L 270.619687 217.991708 
L 271.178028 160.873532 
L 271.736369 126.264104 
L 272.294711 103.705539 
L 272.916514 86.727869 
L 273.574614 74.367563 
L 274.363281 64.14446 
L 275.151948 57.010185 
L 275.782882 52.746723 
L 276.583336 48.59168 
L 277.38379 45.423576 
L 278.55176 41.995402 
L 279.719731 39.514795 
L 280.938878 37.59236 
L 282.158025 36.136234 
L 283.757362 34.710642 
L 285.478622 33.597711 
L 287.77056 32.568504 
L 289.533117 32.02476 
L 292.227618 31.500102 
L 294.593088 31.295309 
L 297.476449 31.362374 
L 298.767562 31.520579 
L 300.274499 31.828347 
L 301.781437 32.299951 
L 303.172682 32.922509 
L 304.367273 33.64361 
L 305.529265 34.560585 
L 306.691256 35.756172 
L 308.105617 37.725424 
L 309.486253 40.427275 
L 310.396148 42.810088 
L 311.295513 45.821467 
L 312.194877 49.721226 
L 313.094242 54.857954 
L 313.805866 60.141048 
L 314.653262 68.426648 
L 315.500657 79.872388 
L 316.178555 92.424313 
L 316.856358 109.514625 
L 317.534161 133.511898 
L 318.132626 163.653959 
L 318.716643 206.037931 
L 319.23577 261.154393 
L 319.387106 281.8 
M 327.877236 281.8 
L 328.477059 232.262401 
L 329.132845 193.93239 
L 329.881122 162.836274 
L 330.604841 140.981521 
L 331.470572 121.717851 
L 332.336303 107.439881 
L 333.250714 95.998996 
L 334.07621 87.922556 
L 335.176871 79.497965 
L 336.013184 74.406853 
L 337.13548 68.868006 
L 338.23785 64.506168 
L 339.320294 60.999173 
L 340.459306 57.941441 
L 341.939726 54.700933 
L 343.704989 51.637501 
L 345.118931 49.648706 
L 346.374251 48.148499 
L 347.629572 46.848939 
L 349.494008 45.214176 
L 352.771665 42.973901 
L 354.737116 41.913283 
L 357.329706 40.74959 
L 359.143654 40.060849 
L 362.547039 38.981705 
L 366.876138 37.907568 
L 370.567874 37.181166 
L 376.736869 36.237271 
L 384.673018 35.354997 
L 393.620942 34.64187 
L 403.905721 34.051175 
L 406.342308 33.936537 
L 406.342308 33.936537 
" style="fill:none;stroke:#ff0000;stroke-linecap:square;stroke-width:5;"/>
   </g>
  </g>
 </g>
 <defs>
  <clipPath id="pb933dc36c4">
   <rect height="259.4" width="403.4" x="10.7" y="10.7"/>
  </clipPath>
 </defs>
</svg>
