<?xml version="1.0" encoding="utf-8" standalone="no"?>
<!DOCTYPE svg PUBLIC "-//W3C//DTD SVG 1.1//EN"
  "http://www.w3.org/Graphics/SVG/1.1/DTD/svg11.dtd">
<!-- Created with matplotlib (http://matplotlib.org/) -->
<svg height="280.8pt" version="1.1" viewBox="0 0 424.8 280.8" width="424.8pt" xmlns="http://www.w3.org/2000/svg" xmlns:xlink="http://www.w3.org/1999/xlink">
 <defs>
  <style type="text/css">
*{stroke-linecap:butt;stroke-linejoin:round;}
  </style>
 </defs>
 <g id="figure_1">
  <g id="patch_1">
   <path d="M 0 280.8 
L 424.8 280.8 
L 424.8 0 
L 0 0 
z
" style="fill:#ffffff;"/>
  </g>
  <g id="axes_1">
   <g id="patch_2">
    <path d="M 10.7 270.1 
L 414.1 270.1 
L 414.1 10.7 
L 10.7 10.7 
z
" style="fill:#ffffff;"/>
   </g>
   <g id="matplotlib.axis_1"/>
   <g id="matplotlib.axis_2"/>
   <g id="patch_3">
    <path d="M 260.885577 270.1 
L 260.885577 10.7 
" style="fill:none;stroke:#808080;stroke-linecap:square;stroke-linejoin:miter;stroke-width:2;"/>
   </g>
   <g id="patch_4">
    <path d="M 10.7 140.4 
L 414.1 140.4 
" style="fill:none;stroke:#808080;stroke-linecap:square;stroke-linejoin:miter;stroke-width:2;"/>
   </g>
   <g id="line2d_1">
    <path clip-path="url(#pfd80a18186)" d="M 52.500715 -1 
L 56.076076 11.832223 
L 59.664747 24.051016 
L 63.845687 37.47315 
L 67.466958 48.408857 
L 71.401184 59.583101 
L 75.007291 69.195689 
L 78.559817 78.091929 
L 82.272334 86.796606 
L 86.094726 95.14398 
L 89.796277 102.649962 
L 92.870404 108.463826 
L 96.218738 114.374739 
L 99.826222 120.265029 
L 103.352131 125.557321 
L 106.947627 130.49591 
L 110.433423 134.856472 
L 113.828292 138.712268 
L 116.641897 141.624732 
L 120.026526 144.799243 
L 123.042286 147.33477 
L 126.130228 149.654649 
L 129.464612 151.856762 
L 132.49653 153.596073 
L 135.493996 155.078583 
L 138.721537 156.421548 
L 141.437474 157.355994 
L 144.687926 158.249049 
L 147.870072 158.895787 
L 150.921716 159.314397 
L 153.988894 159.545793 
L 157.891842 159.580698 
L 161.638162 159.357598 
L 165.365691 158.903495 
L 169.637044 158.120422 
L 173.62733 157.157005 
L 178.053705 155.852118 
L 183.124306 154.087566 
L 188.490625 151.951909 
L 194.434664 149.324652 
L 200.987047 146.189808 
L 210.917333 141.162546 
L 224.698508 134.175076 
L 231.524341 130.944563 
L 237.80231 128.22908 
L 243.49363 126.049159 
L 248.462605 124.414135 
L 253.250504 123.114716 
L 256.987127 122.312332 
L 260.007229 121.812333 
L 260.007229 121.812333 
" style="fill:none;stroke:#ff0000;stroke-linecap:square;stroke-width:5;"/>
   </g>
   <g id="line2d_2">
    <path clip-path="url(#pfd80a18186)" d="M 261.85692 121.575906 
L 266.054761 121.248659 
L 269.407002 121.209033 
L 272.371664 121.348805 
L 276.153398 121.779352 
L 279.148416 122.331824 
L 282.365218 123.14435 
L 285.60881 124.20429 
L 288.840872 125.51192 
L 291.571114 126.820297 
L 294.658013 128.533265 
L 297.37221 130.251658 
L 300.686843 132.62953 
L 303.936686 135.269962 
L 307.125436 138.169126 
L 310.359686 141.432661 
L 313.640699 145.087112 
L 316.853671 149.012384 
L 319.944284 153.122016 
L 323.168875 157.769377 
L 326.249168 162.561676 
L 329.403683 167.837021 
L 332.808331 173.959797 
L 336.225102 180.564974 
L 339.67715 187.720259 
L 342.88035 194.804757 
L 346.634722 203.668437 
L 350.485326 213.404603 
L 354.243755 223.555663 
L 358.040686 234.478594 
L 361.828416 246.061724 
L 365.805671 258.982144 
L 369.937479 273.248473 
L 372.299409 281.8 
L 372.299409 281.8 
" style="fill:none;stroke:#ff0000;stroke-linecap:square;stroke-width:5;"/>
   </g>
  </g>
 </g>
 <defs>
  <clipPath id="pfd80a18186">
   <rect height="259.4" width="403.4" x="10.7" y="10.7"/>
  </clipPath>
 </defs>
</svg>
