<?xml version="1.0" encoding="UTF-8"?>
<svg id="Layer_2" data-name="Layer 2" xmlns="http://www.w3.org/2000/svg" viewBox="0 0 239.71 195.81">
  <defs>
    <style>
      .cls-1 {
        fill: #a7a9ac;
      }

      .cls-1, .cls-2, .cls-3 {
        stroke-width: 0px;
      }

      .cls-2 {
        fill: #ed1c24;
      }

      .cls-3 {
        fill: #00aeef;
      }
    </style>
  </defs>
  <g id="Layer_1-2" data-name="Layer 1">
    <g>
      <path class="cls-1" d="M222.7,124.35c3.16-3.45,6.22-6.99,9.15-10.63.38-.47.75-.94,1.13-1.41.33-.41.71-.81.94-1.28.52-1.09-.16-1.96-.97-2.63-1.32-1.09-2.84-1.81-4.35-2.6-1.69-.88-3.23-1.88-4.21-3.56l-.16,1.21c-.1.08-.06,0,.11.22.34.42,1.06.35,1.41,0,.42-.42.34-.99,0-1.41-.79-.97-2.02-.94-2.94-.22-.34.27-.36.86-.16,1.21.85,1.45,2.05,2.58,3.47,3.47,1.33.83,2.78,1.43,4.13,2.23.32.19.63.39.93.6.12.08.23.17.34.26.12.1.37.42.52.46.19.05-.12.15.06-.11-.05.06-.08.14-.14.2-.18.18-.33.42-.49.62-.35.44-.7.88-1.05,1.31-1.38,1.71-2.78,3.39-4.2,5.06-1.62,1.89-3.27,3.75-4.95,5.58-.87.95.54,2.36,1.41,1.41h0Z"/>
      <path class="cls-1" d="M57.45,97.68c-1.9,1.05-3.7,2.27-5.42,3.61-.88.69-1.73,1.41-2.55,2.16-.45.41-.88.82-1.31,1.25-.35.35-.72.7-.9,1.17-.44,1.21.5,2.14,1.19,3.02.74.94,1.48,1.88,2.24,2.81,1.52,1.87,3.08,3.71,4.68,5.51.85.97,2.26-.45,1.41-1.41-1.41-1.6-2.8-3.22-4.15-4.87-.66-.8-1.31-1.61-1.95-2.42-.35-.44-.69-.88-1.04-1.32-.12-.16-.25-.38-.4-.52-.07-.2-.11-.22-.14-.06.02-.05.05-.08.09-.12.78-.62,1.45-1.42,2.19-2.08s1.44-1.24,2.2-1.82c1.54-1.18,3.17-2.24,4.87-3.18,1.13-.62.12-2.35-1.01-1.73h0Z"/>
      <path class="cls-1" d="M48,108.02c11.07,3.69,22.82,3.68,34.35,3.49,12.27-.2,24.55-.41,36.82-.61s24.33-.4,36.5-.6,24.34-.48,36.52-.38c13.59.1,27.19.71,40.66,2.51.38.05.91-.34.96-.73.21-1.48-.49-3.51-2.3-3.41-1.28.07-1.29,2.07,0,2,.32-.02.41.65.37.88l.96-.73c-23.99-3.2-48.25-2.61-72.38-2.21-24.33.4-48.66.8-72.99,1.21-13.03.22-26.39.85-38.94-3.33-1.22-.41-1.75,1.52-.53,1.93h0Z"/>
    </g>
    <g>
      <path class="cls-1" d="M130.29,38.86c1.64-4.9,3.62-9.69,5.94-14.31.57-1.13,1.15-2.25,1.76-3.36.27-.5.55-1.01.84-1.5,0,0,.26-.41.27-.4l-.29.03.05.05c0,.06.22.31.25.36,1.45,2.32,2.83,4.68,4.25,7.01,1.63,2.69,3.26,5.39,4.89,8.08.36.59,1.4.71,1.73,0s.66-1.44.99-2.16c.22-.49.14-1.08-.36-1.37-.43-.25-1.14-.13-1.37.36-.33.72-.66,1.44-.99,2.16h1.73c-1.59-2.62-3.18-5.24-4.76-7.87-.79-1.31-1.59-2.62-2.38-3.93-.75-1.23-1.43-2.57-2.29-3.73-.77-1.03-2.11-1.3-3-.24-.41.49-.69,1.08-.99,1.63-.35.64-.7,1.28-1.04,1.92-1.31,2.48-2.52,5.02-3.63,7.6-1.29,3-2.46,6.04-3.5,9.14-.41,1.22,1.52,1.75,1.93.53h0Z"/>
      <path class="cls-1" d="M131.7,182.07c1.59,3.79,3.51,7.42,5.82,10.82.54.79,1.06,1.7,1.74,2.39.76.77,1.84.61,2.52-.16,1.39-1.59,2.58-3.41,3.8-5.13,1.44-2.01,2.84-4.05,4.2-6.11.71-1.08-1.02-2.08-1.73-1.01-1.36,2.06-2.76,4.1-4.2,6.11-.69.97-1.4,1.93-2.11,2.89-.33.45-.66.89-1,1.33-.05.07-.51.56-.5.63.42.13.54.12.36-.04-.09-.12-.18-.24-.26-.36-2.68-3.69-4.94-7.69-6.7-11.9-.21-.5-.66-.85-1.23-.7-.47.13-.91.73-.7,1.23h0Z"/>
      <path class="cls-1" d="M137.7,18.85c-.36,22.73-.5,45.45-.44,68.18.07,22.62.35,45.23.84,67.84.28,12.76.62,25.51,1.03,38.26.04,1.28,2.04,1.29,2,0-.73-22.72-1.25-45.45-1.56-68.18-.3-22.61-.4-45.23-.28-67.84.07-12.75.2-25.51.4-38.26.02-1.29-1.98-1.29-2,0h0Z"/>
    </g>
    <g>
      <path class="cls-2" d="M192.58,30.93l5.95-4.44,2.98-2.22,1.59-1.18c.24-.18.47-.39.73-.53.2-.11.26-.09.18-.12.25.1.37.58.45.8.22.58.4,1.17.6,1.76.4,1.17.8,2.34,1.2,3.51.81,2.38,1.62,4.76,2.43,7.14.41,1.21,2.35.69,1.93-.53-1.4-4.1-2.78-8.2-4.19-12.3-.25-.74-.56-1.49-1.21-1.97-.81-.6-1.78-.45-2.58.09-1.75,1.2-3.42,2.55-5.13,3.82l-5.95,4.44c-.43.32-.65.87-.36,1.37.25.43.93.68,1.37.36h0Z"/>
      <path class="cls-2" d="M112.57,176.54c-.21,5-.25,10-.12,15.01.01.54.45,1.01,1,1,5.34-.06,10.57-1.34,15.39-3.64,1.16-.56.15-2.28-1.01-1.73-4.49,2.15-9.4,3.31-14.38,3.37l1,1c-.14-5-.1-10.01.12-15.01.06-1.29-1.94-1.28-2,0h0Z"/>
      <path class="cls-2" d="M115.99,191.31c6.19-10.96,12.38-21.92,18.57-32.88,6.16-10.9,12.33-21.8,18.42-32.73,6.05-10.86,12.04-21.76,17.85-32.75s11.38-21.9,16.8-32.98c5.39-11.01,10.62-22.1,15.66-33.27.63-1.4,1.26-2.79,1.88-4.19.52-1.17-1.2-2.18-1.73-1.01-5.01,11.19-10.18,22.3-15.53,33.33-5.38,11.09-10.93,22.09-16.65,33s-11.72,21.92-17.75,32.79c-6.07,10.93-12.22,21.81-18.37,32.7-6.19,10.96-12.38,21.92-18.57,32.88l-2.32,4.11c-.63,1.12,1.09,2.13,1.73,1.01h0Z"/>
    </g>
    <g>
      <path class="cls-2" d="M169.2,21.31l.06.08-.05-.39c.33-.05.42-.2.28-.43-.04-.15-.08-.29-.12-.44-.05-.22-.11-.44-.15-.67-.11-.55-.2-1.11-.26-1.67-.11-1.06-.13-2.13-.08-3.2.09-2.11.46-4.2.93-6.25.43-1.86.97-3.99,2.65-5.14.75-.51,1.69-.8,2.58-.5.83.28,1.52.99,1.56,1.9.02.64,1.02.64,1,0-.07-1.74-1.67-3.06-3.38-3.02-1.96.05-3.52,1.55-4.33,3.23-.98,2.04-1.38,4.44-1.71,6.66s-.46,4.51-.18,6.76c.08.65.19,1.29.34,1.93.11.47.18,1.07.52,1.44.58.63,1.7-.06,1.19-.81-.36-.53-1.23-.03-.86.5h0Z"/>
      <path class="cls-2" d="M165.08,11.73l6.22.58c.98.09,1.96.2,2.94.27.76.06,1.5-.01,2.08-.55.48-.43-.23-1.14-.71-.71-.54.49-1.52.24-2.17.18l-2.79-.26-5.57-.52c-.64-.06-.64.94,0,1h0Z"/>
      <path class="cls-2" d="M182.16,1.76c-1.69,3.88-2.69,8.02-2.91,12.25-.09,1.72-.3,3.92.89,5.34.88,1.05,2.68,1.41,3.66.3.43-.48-.28-1.19-.71-.71s-1.07.47-1.62.2c-.67-.32-.99-1.03-1.14-1.73-.34-1.6-.12-3.42.04-5.04.35-3.48,1.26-6.92,2.65-10.13.25-.58-.61-1.09-.86-.5h0Z"/>
      <path class="cls-2" d="M183.69,5.73l3.62,6.95c.57,1.1,1.12,2.23,1.73,3.31.41.73,1.07,1.52,2,1.4.63-.08.64-1.08,0-1-.91.11-1.4-1.41-1.72-2.03l-1.55-2.98-3.2-6.16c-.3-.57-1.16-.07-.86.5h0Z"/>
      <path class="cls-2" d="M189.19,4.83c-1.7,4.36-3.41,8.73-5.11,13.09-.23.6.73.86.96.27,1.7-4.36,3.41-8.73,5.11-13.09.23-.6-.73-.86-.96-.27h0Z"/>
      <path class="cls-2" d="M190.51.6c1.44,3.82,1.95,7.88,2.43,11.91.22,1.84.45,3.75.09,5.59-.16.85-.43,1.79-.98,2.47-.47.58-1.28,1.16-1.98.64-.52-.38-1.02.49-.5.86,1.53,1.12,3.27-.55,3.87-1.9.86-1.94.86-4.1.67-6.18-.42-4.58-1-9.33-2.63-13.66-.22-.6-1.19-.34-.96.27h0Z"/>
      <path class="cls-2" d="M197.35,8.66c1.39-.55,2.96-.52,4.31.16.24.12.54.06.68-.18.13-.22.06-.56-.18-.68-1.57-.79-3.44-.91-5.08-.26-.25.1-.43.33-.35.62.07.24.36.45.62.35h0Z"/>
      <path class="cls-2" d="M196.74,13.22l5.88-.97c.27-.04.42-.37.35-.62-.08-.28-.35-.39-.62-.35l-5.88.97c-.27.04-.42.37-.35.62.08.28.35.39.62.35h0Z"/>
      <path class="cls-2" d="M206.26,3.19c1.26.07,2.5.39,3.63.98.51.27,1.06.55,1.17,1.17s-.2,1.26-.48,1.77c-1.05,1.9-3.01,3.08-4.91,4-.42.2-.25.78.12.91,1.22.44,2.47.84,3.68,1.32,1.08.43,1.81,1.17,1.73,2.38-.15,2.37-2.92,2.9-4.65,1.82-.55-.34-1.05.52-.5.86,2.22,1.39,5.61.63,6.1-2.23.21-1.22-.2-2.46-1.22-3.2-.63-.46-1.4-.69-2.13-.95-.91-.33-1.83-.65-2.74-.98l.12.91c2.35-1.13,4.83-2.76,5.71-5.35.46-1.34.01-2.46-1.2-3.15-1.35-.78-2.87-1.18-4.42-1.27-.64-.04-.64.96,0,1h0Z"/>
      <path class="cls-2" d="M214.47,8.81l7.55,8.23c.44.48,1.14-.23.71-.71-2.52-2.74-5.03-5.48-7.55-8.23-.44-.48-1.14.23-.71.71h0Z"/>
      <path class="cls-2" d="M220.79,5.1c-2.25,5.06-4.49,10.12-6.74,15.19-.26.58.6,1.09.86.5,2.25-5.06,4.49-10.12,6.74-15.19.26-.58-.6-1.09-.86-.5h0Z"/>
      <path class="cls-2" d="M224.38,10.5h4.09c.64,0,.64-1,0-1h-4.09c-.64,0-.64,1,0,1h0Z"/>
      <path class="cls-2" d="M229.65,3.65c3.06.25,5.29,3.37,5.1,6.33-.21,3.17-2.84,5.74-5.76,6.63-.62.19-.36,1.11.27.96,3.17-.72,6.42-.93,9.66-.66l-.43-.75c-.17.33-.35.66-.52.98-.3.57.56,1.07.86.5.17-.33.35-.66.52-.98.19-.35-.05-.72-.43-.75-3.33-.28-6.67-.04-9.93.69l.27.96c3.41-1.03,6.37-4.07,6.5-7.76.13-3.48-2.58-6.87-6.11-7.16-.64-.05-.64.95,0,1h0Z"/>
    </g>
    <path class="cls-1" d="M135.01,75.24c2.74.19,5.49.04,8.19-.42.53-.09.83-.75.7-1.23-.16-.56-.7-.79-1.23-.7-2.53.43-5.11.53-7.66.35-.54-.04-1,.49-1,1,0,.57.46.96,1,1h0Z"/>
    <path class="cls-1" d="M143.4,62.23c.91-1.05,2.87-1.03,3.65.2s-.3,3.19-1.78,3.23c-.57.01-.67.81-.13.98.62.19,1.33.4,1.78.89s.43,1.22.09,1.8c-.81,1.43-2.67,1.46-4.12,1.49-.64.01-.64,1.01,0,1,1.95-.04,4.28-.28,5.15-2.34.35-.82.3-1.75-.26-2.47s-1.51-1.08-2.38-1.35l-.13.98c2.19-.06,3.77-2.69,2.69-4.64s-3.92-2.06-5.27-.49c-.42.48.28,1.19.71.71h0Z"/>
    <g>
      <path class="cls-3" d="M11.23,36.82c-1.56-2.55-6.71,4.6-6.96,6.1-.33,1.96,2.17,2.38,3.56,2.53.94.1,1.87.01,2.81.06.84.04,1.83.37,1.72,1.4s-1.06,1.78-1.96,2.15c-1.13.46-2.35.49-3.51.13-.62-.19-.88.77-.27.96,1.7.52,3.7.33,5.17-.72,1.12-.8,2.09-2.43,1.28-3.77-.87-1.45-2.81-1.11-4.22-1.14-.95-.02-2.04-.09-2.92-.49-.4-.18-.72-.44-.69-.91.04-.52.47-1.08.75-1.5.58-.91,1.25-1.76,1.99-2.53.2-.21,2.11-2.17,2.37-1.76.34.55,1.2.05.86-.5h0Z"/>
      <path class="cls-3" d="M15.66,39.23c-.96,3.49-1.7,7.04-2.2,10.62-.04.29.12.66.48.63,2.32-.2,4.55-.83,6.64-1.87.58-.29.07-1.15-.5-.86-1.92.96-4,1.55-6.13,1.74l.48.63c.51-3.58,1.24-7.13,2.2-10.62.17-.62-.79-.89-.96-.27h0Z"/>
      <path class="cls-3" d="M21.79,47.04c0-1.04,0-2.19.54-3.12.4-.7,1.14-1.12,1.93-1.04.27.03.57.17.74.4.29.4.24.93.09,1.38-.27.84-.94,1.5-1.71,1.89-.88.45-1.92.54-2.85.21-.25-.09-.55.1-.62.35-.08.28.09.52.35.62,2.22.79,4.91-.43,5.74-2.64.45-1.19.13-2.62-1.16-3.08-.99-.36-2.24.04-2.94.8-1.04,1.13-1.1,2.79-1.11,4.24,0,.64.99.64,1,0h0Z"/>
      <path class="cls-3" d="M28.96,47.94c-.06-1.51-.1-3.03-.11-4.54,0-.77,0-1.54,0-2.32,0-.37,0-.74.01-1.11,0-.22-.08-.71.14-.86.39-.27,1.1.17,1.37.44.34.34.57.83.52,1.31-.11.94-1.3,1.54-2.12,1.1-.57-.31-1.07.56-.5.86.97.52,2.16.29,2.94-.47.82-.81.89-2.07.27-3.02-.57-.88-1.87-1.64-2.91-1.11-.61.32-.68.94-.69,1.56-.02.83-.02,1.67-.02,2.5,0,1.88.04,3.77.12,5.65.03.64,1.03.64,1,0h0Z"/>
      <path class="cls-3" d="M33.22,39.28l-1.18,7.62c-.05.32.13.63.48.63,1.92.02,3.84.04,5.76.05.36,0,.64-.43.43-.75-.27-.41-.62-.68-1.09-.85-.61-.22-.87.75-.27.96.21.07.37.2.49.39l.43-.75c-1.92-.02-3.84-.04-5.76-.05l.48.63,1.18-7.62c.04-.27-.07-.53-.35-.62-.24-.07-.57.08-.62.35h0Z"/>
      <path class="cls-3" d="M33.07,43.14h3.53c.27,0,.5-.23.5-.5s-.23-.5-.5-.5h-3.53c-.27,0-.5.23-.5.5s.23.5.5.5h0Z"/>
      <path class="cls-3" d="M32.78,40.2c1.44,0,2.87-.21,4.25-.61.62-.18.35-1.14-.27-.96-1.3.38-2.63.57-3.99.57-.64,0-.64,1,0,1h0Z"/>
      <path class="cls-3" d="M43.7,44.16c.43-1.23,1.39-2.79,2.88-2.58.5.07,1.05.36,1.24.84.24.58-.17,1.26-.65,1.63-.78.59-1.87.6-2.8.63-.64.02-.64,1.02,0,1,1.09-.03,2.3-.08,3.24-.71.84-.57,1.44-1.54,1.24-2.58-.16-.85-.9-1.46-1.7-1.7-.87-.26-1.8-.09-2.54.43-.94.67-1.51,1.7-1.88,2.77-.09.26.1.55.35.62.28.08.53-.09.62-.35h0Z"/>
      <path class="cls-3" d="M51.51,45.68c-.31-.86-.59-1.72-.84-2.6-.12-.42-.23-.83-.34-1.25-.1-.37-.22-.78-.18-1.17.09-.7.99-1.07,1.58-1.25.73-.23,1.51-.28,2.26-.13.63.13.9-.84.27-.96-.93-.19-1.89-.16-2.79.13-.8.26-1.76.71-2.14,1.51-.42.9-.02,1.97.23,2.87.29,1.05.62,2.09.99,3.12.21.6,1.18.34.96-.27h0Z"/>
      <path class="cls-3" d="M50.96,43.02c1.19-.41,2.44-.6,3.7-.57.64.02.64-.98,0-1-1.34-.03-2.69.17-3.96.61-.26.09-.42.34-.35.62.07.25.36.44.62.35h0Z"/>
      <path class="cls-3" d="M66.58,50.49c1.53-.52,3.12-.85,4.73-.97.27-.02.5-.22.5-.5,0-.26-.23-.52-.5-.5-1.7.13-3.38.46-5,1-.26.09-.42.34-.35.62.07.25.36.44.62.35h0Z"/>
      <path class="cls-3" d="M65.87,54.34c2.46-.95,5.08-1.36,7.72-1.2.64.04.64-.96,0-1-2.71-.16-5.45.26-7.98,1.24-.59.23-.34,1.2.27.96h0Z"/>
      <path class="cls-3" d="M78.18,42.73c1.16-.16,2.44-.3,3.58.09,1.34.45,1.9,1.71,1.72,3.06-.34,2.65-2.53,5.03-4.71,6.4-.34.22-.3.64,0,.86,1.15.87,2.61,1.03,3.99,1.28s3.03.72,3.19,2.37c.19,1.87-1.41,3.23-2.98,3.85-1.68.66-3.91,1.29-5.65.6-.6-.24-.86.73-.27.96,1.64.66,3.51.22,5.15-.25,1.47-.42,2.96-1.1,3.89-2.36.83-1.13,1.18-2.73.53-4.03-.58-1.15-1.77-1.7-2.97-1.98-1.48-.34-3.12-.36-4.37-1.31v.86c2.57-1.61,5.27-4.62,5.23-7.85-.02-1.47-.81-2.75-2.18-3.32s-2.97-.41-4.42-.2c-.63.09-.36,1.05.27.96h0Z"/>
      <path class="cls-3" d="M4.73,33.99c-5.52,8.6-6.2,19.65-1.85,28.88,1.18,2.51,2.72,4.83,4.56,6.91.43.48,1.13-.23.71-.71C1.69,61.76-.55,51.43,2.15,42.08c.77-2.68,1.94-5.23,3.44-7.58.35-.54-.52-1.05-.86-.5h0Z"/>
      <path class="cls-3" d="M56.81,36.23c3.64,2.6,4.07,7.75,4.37,11.84.35,4.81.26,9.76-1.23,14.39-.42,1.29-.94,2.54-1.6,3.72-.28.52-1.66,3.02-2.47,2-.4-.5-1.1.21-.71.71.68.86,1.81.47,2.53-.12.96-.78,1.54-2.08,2.07-3.17,1.17-2.45,1.86-5.09,2.23-7.78s.41-5.52.27-8.28c-.13-2.54-.32-5.14-.94-7.61s-1.83-4.98-4.02-6.55c-.52-.38-1.02.49-.5.86h0Z"/>
      <g>
        <path class="cls-3" d="M9.74,64.94l.04.1.05-.39-.07.1.3-.23-.12.02.39.05c-.1-.07-.15-.64-.19-.79-.07-.31-.12-.63-.16-.95-.09-.7-.11-1.41-.09-2.11.04-1.39.26-2.76.56-4.12.27-1.19.54-2.53,1.46-3.4.44-.41,1.07-.74,1.69-.63.58.1,1.12.56,1.15,1.17s1.04.64,1,0c-.1-1.69-1.9-2.57-3.4-1.99-1.84.71-2.45,2.72-2.85,4.47-.47,2.07-.77,4.22-.56,6.34.05.5.12,1,.23,1.49.08.38.14.88.4,1.19.45.54,1.39.12,1.14-.59-.21-.6-1.18-.34-.96.27h0Z"/>
        <path class="cls-3" d="M7.16,58.71l4.17.39c.66.06,1.32.14,1.97.18.56.04,1.09-.03,1.52-.41.48-.43-.23-1.14-.71-.71-.31.28-.97.11-1.34.07l-1.87-.18-3.74-.35c-.64-.06-.64.94,0,1h0Z"/>
        <path class="cls-3" d="M18.49,51.77c-1.17,2.7-1.86,5.58-1.99,8.52-.05,1.16-.15,2.62.7,3.54.68.74,1.92.92,2.64.15.44-.47-.27-1.18-.71-.71-.29.31-.74.25-1.06.01-.4-.3-.52-.86-.57-1.33-.11-1.03,0-2.11.1-3.13.24-2.25.84-4.47,1.74-6.55.25-.58-.61-1.09-.86-.5h0Z"/>
        <path class="cls-3" d="M19.51,54.6l2.43,4.67c.39.74.75,1.5,1.16,2.22.3.54.8,1.11,1.48,1.02.27-.03.5-.21.5-.5,0-.24-.23-.53-.5-.5-.51.06-.83-.93-1.02-1.28l-1.04-2-2.15-4.13c-.3-.57-1.16-.07-.86.5h0Z"/>
        <path class="cls-3" d="M23.19,53.87c-1.14,2.93-2.29,5.86-3.43,8.79-.23.6.73.86.96.27,1.14-2.93,2.29-5.86,3.43-8.79.23-.6-.73-.86-.96-.27h0Z"/>
        <path class="cls-3" d="M24.07,51.12c.92,2.46,1.28,5.05,1.59,7.65.14,1.15.29,2.33.18,3.49-.06.63-.21,1.31-.53,1.87-.24.42-.79.99-1.29.64-.53-.37-1.03.5-.5.86,1.01.69,2.2-.16,2.7-1.08.7-1.28.73-2.84.62-4.25-.25-3.16-.68-6.46-1.79-9.45-.22-.6-1.19-.34-.96.27h0Z"/>
        <path class="cls-3" d="M28.86,56.64c.25-.1.5-.17.77-.22,0,0,.16-.02.08-.01.07,0,.14-.01.21-.02.12,0,.25,0,.37,0,.44.02.94.14,1.33.34.23.12.55.07.68-.18.12-.23.07-.56-.18-.68-1.09-.55-2.39-.64-3.53-.19-.24.1-.44.34-.35.62.08.23.35.45.62.35h0Z"/>
        <path class="cls-3" d="M28.45,59.7l3.94-.65c.27-.04.42-.37.35-.62-.08-.28-.35-.39-.62-.35l-3.94.65c-.27.04-.42.37-.35.62.08.28.35.39.62.35h0Z"/>
        <path class="cls-3" d="M34.8,52.98c.83.05,1.65.26,2.39.65.34.18.68.35.68.78,0,.34-.17.69-.33.99-.69,1.24-1.98,2-3.22,2.59-.42.2-.25.78.12.91.77.28,1.54.54,2.31.83.68.26,1.23.64,1.21,1.43-.05,1.51-1.79,1.81-2.88,1.15-.55-.34-1.05.53-.5.86,1.6.98,3.99.42,4.34-1.61.15-.87-.14-1.76-.87-2.29-.46-.34-1.02-.5-1.55-.69-.6-.21-1.19-.43-1.79-.64l.12.91c1.63-.79,3.39-1.95,3.94-3.78.68-2.24-2.31-2.99-3.96-3.09-.64-.04-.64.96,0,1h0Z"/>
        <path class="cls-3" d="M40.19,56.7l5.07,5.52c.44.48,1.14-.23.71-.71l-5.07-5.52c-.44-.48-1.14.23-.71.71h0Z"/>
        <path class="cls-3" d="M44.41,54.01c-1.51,3.4-3.01,6.8-4.52,10.19-.26.58.6,1.09.86.5,1.51-3.4,3.01-6.8,4.52-10.19.26-.58-.6-1.09-.86-.5h0Z"/>
        <path class="cls-3" d="M46.96,57.88h2.75c.26,0,.51-.23.5-.5s-.22-.5-.5-.5h-2.75c-.26,0-.51.23-.5.5s.22.5.5.5h0Z"/>
        <path class="cls-3" d="M50.5,53.29c1.99.17,3.41,2.23,3.25,4.14-.17,2.03-1.87,3.66-3.74,4.23-.62.19-.36,1.11.27.96,2.12-.48,4.28-.62,6.44-.44l-.43-.75c-.12.22-.23.44-.35.66-.3.57.56,1.07.86.5.12-.22.23-.44.35-.66.19-.35-.05-.72-.43-.75-2.25-.19-4.51-.02-6.71.47l.27.96c2.35-.72,4.36-2.79,4.48-5.33s-1.79-4.8-4.26-5.01c-.64-.05-.64.95,0,1h0Z"/>
      </g>
    </g>
    <g>
      <path class="cls-3" d="M218.38,67.19l7.79,5.76-.2-1.57c-3.04,2.48-5.72,5.34-8.05,8.49l1.73,1.01c.32-.48.64-.96.97-1.44.72-1.07-1.01-2.07-1.73-1.01-.32.48-.64.96-.97,1.44-.3.45-.09,1.11.36,1.37.51.3,1.05.08,1.37-.36,2.22-3.01,4.84-5.72,7.74-8.09.55-.45.26-1.23-.2-1.57l-7.79-5.76c-.43-.32-1.12-.07-1.37.36-.3.51-.08,1.05.36,1.37h0Z"/>
      <path class="cls-3" d="M33.83,68.57l-6.66,6.44c-.56.54-.25,1.44.44,1.67,1.52.5,3.01,1.11,4.44,1.84.72.37,1.43.76,2.12,1.18.32.19.63.39.94.6.17.11.34.22.5.34.08.06.17.11.25.17.05.05.03.03-.04-.05v-.56c.13-.12.25-.24.37-.36h.04c.18,0,.35,0,.53,0l-.1-.02.44.26-.07-.07c-.91-.91-2.32.5-1.41,1.41,1.03,1.04,2.67-.3,2.01-1.56-.27-.5-.79-.8-1.25-1.11-.5-.34-1.02-.66-1.54-.97-2.11-1.25-4.36-2.25-6.69-3.01l.44,1.67,6.66-6.44c.93-.9-.49-2.31-1.41-1.41h0Z"/>
      <path class="cls-3" d="M30.7,75.44c5.49,2.17,11.47,1.22,17.16.59,6.32-.71,12.66-1.21,19-1.56,12.7-.7,25.42-.78,38.14-.59,25.37.37,50.73,1.79,76.1,1.45,14.41-.19,28.82-.88,43.21-1.56,1.28-.06,1.29-2.06,0-2-12.86.61-25.71,1.22-38.58,1.49s-25.28.09-37.92-.24c-25.2-.66-50.42-1.85-75.62-.79-7.11.3-14.22.78-21.3,1.5-6.43.65-13.44,2.27-19.67-.19-1.2-.47-1.72,1.46-.53,1.93h0Z"/>
    </g>
  </g>
</svg>