<?xml version="1.0" encoding="utf-8" standalone="no"?>
<!DOCTYPE svg PUBLIC "-//W3C//DTD SVG 1.1//EN"
  "http://www.w3.org/Graphics/SVG/1.1/DTD/svg11.dtd">
<!-- Created with matplotlib (http://matplotlib.org/) -->
<svg height="280.8pt" version="1.1" viewBox="0 0 424.8 280.8" width="424.8pt" xmlns="http://www.w3.org/2000/svg" xmlns:xlink="http://www.w3.org/1999/xlink">
 <defs>
  <style type="text/css">
*{stroke-linecap:butt;stroke-linejoin:round;}
  </style>
 </defs>
 <g id="figure_1">
  <g id="patch_1">
   <path d="M 0 280.8 
L 424.8 280.8 
L 424.8 0 
L 0 0 
z
" style="fill:#ffffff;"/>
  </g>
  <g id="axes_1">
   <g id="patch_2">
    <path d="M 10.7 270.1 
L 414.1 270.1 
L 414.1 10.7 
L 10.7 10.7 
z
" style="fill:#ffffff;"/>
   </g>
   <g id="matplotlib.axis_1"/>
   <g id="matplotlib.axis_2"/>
   <g id="patch_3">
    <path d="M 309.371154 270.1 
L 309.371154 10.7 
" style="fill:none;stroke:#808080;stroke-linecap:square;stroke-linejoin:miter;stroke-width:2;"/>
   </g>
   <g id="patch_4">
    <path d="M 10.7 140.4 
L 414.1 140.4 
" style="fill:none;stroke:#808080;stroke-linecap:square;stroke-linejoin:miter;stroke-width:2;"/>
   </g>
   <g id="line2d_1">
    <path clip-path="url(#p78644570bd)" d="M 50.324046 -1 
L 54.49254 7.7574 
L 58.579267 15.904871 
L 62.785556 23.850512 
L 67.18894 31.703215 
L 71.767388 39.378294 
L 76.286383 46.479205 
L 80.359714 52.488473 
L 85.082062 59.0059 
L 89.09499 64.177327 
L 93.399163 69.362143 
L 97.46938 73.932066 
L 101.389666 78.03809 
L 105.236427 81.794872 
L 109.893453 85.995588 
L 114.487106 89.781619 
L 119.058234 93.212458 
L 122.572558 95.63165 
L 127.028019 98.43787 
L 131.643604 101.051814 
L 136.162318 103.337263 
L 141.20374 105.586253 
L 145.563113 107.290786 
L 150.596048 109.000292 
L 155.801726 110.498414 
L 161.339618 111.816353 
L 166.415045 112.797848 
L 171.999987 113.654037 
L 177.279114 114.272728 
L 183.448925 114.793945 
L 191.335651 115.202038 
L 200.246526 115.408589 
L 215.144045 115.458257 
L 228.284978 115.567332 
L 237.872244 115.909767 
L 244.413876 116.35517 
L 251.580745 117.102924 
L 257.656253 117.993082 
L 263.055299 119.013052 
L 268.852655 120.378791 
L 273.429837 121.675476 
L 278.705717 123.431429 
L 283.653412 125.352924 
L 288.37268 127.452169 
L 293.316437 129.949388 
L 297.608262 132.379785 
L 302.094415 135.195783 
L 306.79521 138.46463 
L 306.79521 138.46463 
" style="fill:none;stroke:#ff0000;stroke-linecap:square;stroke-width:5;"/>
   </g>
   <g id="line2d_2">
    <path clip-path="url(#p78644570bd)" d="M 310.048202 140.926094 
L 310.958309 141.644868 
L 311.868415 142.37704 
L 312.778522 143.122734 
L 313.688628 143.882073 
L 314.074298 144.208 
L 314.939077 144.947854 
L 315.803856 145.700294 
L 316.787194 146.571318 
L 317.770532 147.458907 
L 319.197017 148.776259 
L 320.623501 150.129276 
L 321.868351 151.339529 
L 323.113201 152.577623 
L 323.973218 153.4494 
L 324.833235 154.33472 
L 325.947084 155.501642 
L 327.060934 156.691683 
L 327.976141 157.686957 
L 328.891349 158.698119 
L 329.737239 159.646933 
L 330.58313 160.609527 
L 331.73038 161.937253 
L 332.467103 162.803446 
L 333.203825 163.680334 
L 333.940547 164.567983 
L 334.67727 165.466459 
L 336.008587 167.117748 
L 337.396485 168.877503 
L 338.757413 170.641431 
L 340.118341 172.443768 
L 340.912549 173.513485 
L 341.706757 174.596506 
L 342.512712 175.70923 
L 343.318667 176.835825 
L 344.124622 177.976376 
L 344.930577 179.130971 
L 346.143468 180.89519 
L 347.002405 182.164076 
L 347.861341 183.44926 
L 348.662893 184.663375 
L 349.464445 185.891858 
L 350.189436 187.015447 
L 350.914427 188.150923 
L 351.718374 189.424032 
L 352.52232 190.71192 
L 353.326267 192.014672 
L 354.130214 193.332372 
L 355.226583 195.153611 
L 356.003454 196.461158 
L 356.780325 197.782929 
L 357.900208 199.713489 
L 359.020092 201.673997 
L 360.261027 203.881679 
L 361.501961 206.126731 
L 362.216176 207.435926 
L 362.930391 208.757664 
L 363.644606 210.092003 
L 364.35882 211.439004 
L 365.369456 213.366804 
L 366.07837 214.734356 
L 366.787283 216.114584 
L 367.496196 217.507545 
L 368.205109 218.913298 
L 368.634477 219.770965 
L 369.421611 221.355564 
L 370.208746 222.956129 
L 370.99588 224.572741 
L 371.783015 226.205479 
L 372.921989 228.596745 
L 374.060962 231.022186 
L 374.33614 231.61333 
L 374.987685 233.021024 
L 375.63923 234.440046 
L 376.290775 235.87044 
L 376.942319 237.312253 
L 377.608795 238.798967 
L 378.27527 240.297725 
L 378.93469 241.792517 
L 379.59411 243.299194 
L 380.25353 244.817803 
L 380.912949 246.34839 
L 381.954204 248.789764 
L 382.995458 251.261309 
L 383.795472 253.180852 
L 384.595486 255.118398 
L 385.276855 256.782858 
L 385.958224 258.460489 
L 386.618851 260.099679 
L 387.279479 261.751348 
L 387.940106 263.415543 
L 388.600734 265.092312 
L 389.683319 267.867376 
L 390.765904 270.676541 
L 391.393159 272.319871 
L 392.020415 273.974759 
L 392.64767 275.641246 
L 393.274926 277.319372 
L 394.039648 279.381071 
L 394.80437 281.460204 
L 394.92807 281.8 
" style="fill:none;stroke:#ff0000;stroke-linecap:square;stroke-width:5;"/>
   </g>
  </g>
 </g>
 <defs>
  <clipPath id="p78644570bd">
   <rect height="259.4" width="403.4" x="10.7" y="10.7"/>
  </clipPath>
 </defs>
</svg>
