<?xml version="1.0" encoding="utf-8" standalone="no"?>
<!DOCTYPE svg PUBLIC "-//W3C//DTD SVG 1.1//EN"
  "http://www.w3.org/Graphics/SVG/1.1/DTD/svg11.dtd">
<!-- Created with matplotlib (http://matplotlib.org/) -->
<svg height="280.8pt" version="1.1" viewBox="0 0 424.8 280.8" width="424.8pt" xmlns="http://www.w3.org/2000/svg" xmlns:xlink="http://www.w3.org/1999/xlink">
 <defs>
  <style type="text/css">
*{stroke-linecap:butt;stroke-linejoin:round;}
  </style>
 </defs>
 <g id="figure_1">
  <g id="patch_1">
   <path d="M 0 280.8 
L 424.8 280.8 
L 424.8 0 
L 0 0 
z
" style="fill:#ffffff;"/>
  </g>
  <g id="axes_1">
   <g id="patch_2">
    <path d="M 10.7 270.1 
L 414.1 270.1 
L 414.1 10.7 
L 10.7 10.7 
z
" style="fill:#ffffff;"/>
   </g>
   <g id="matplotlib.axis_1"/>
   <g id="matplotlib.axis_2"/>
   <g id="patch_3">
    <path d="M 233.949145 270.1 
L 233.949145 10.7 
" style="fill:none;stroke:#808080;stroke-linecap:square;stroke-linejoin:miter;stroke-width:2;"/>
   </g>
   <g id="patch_4">
    <path d="M 10.7 165.342308 
L 414.1 165.342308 
" style="fill:none;stroke:#808080;stroke-linecap:square;stroke-linejoin:miter;stroke-width:2;"/>
   </g>
   <g id="line2d_1">
    <path clip-path="url(#pcd165747ae)" d="M 53.580425 281.8 
L 57.153051 269.420371 
L 60.828645 257.421883 
L 64.509513 246.137074 
L 68.139001 235.707794 
L 71.881988 225.659321 
L 75.358629 216.951948 
L 78.866984 208.76 
L 82.249519 201.412576 
L 85.798239 194.26935 
L 89.198019 187.953524 
L 92.594195 182.144981 
L 96.084299 176.681659 
L 99.236082 172.175459 
L 102.235127 168.253279 
L 105.54472 164.326512 
L 108.678715 160.984588 
L 111.922607 157.898712 
L 114.760798 155.500275 
L 117.581132 153.386812 
L 120.597264 151.414807 
L 123.324138 149.879939 
L 126.047165 148.574433 
L 129.112944 147.366883 
L 131.913002 146.497942 
L 134.870955 145.813233 
L 137.836654 145.35775 
L 140.913367 145.119263 
L 143.683002 145.099536 
L 147.094105 145.316923 
L 150.55093 145.795119 
L 153.99331 146.514046 
L 157.300677 147.418735 
L 161.04894 148.680194 
L 164.785077 150.168478 
L 168.50586 151.860385 
L 173.258721 154.295402 
L 177.485191 156.688711 
L 182.916425 160.03223 
L 188.852611 163.965794 
L 196.669157 169.461627 
L 222.631742 188.125705 
L 229.08565 192.338542 
L 232.610654 194.488977 
L 232.610654 194.488977 
" style="fill:none;stroke:#ff0000;stroke-linecap:square;stroke-width:5;"/>
   </g>
   <g id="line2d_2">
    <path clip-path="url(#pcd165747ae)" d="M 235.311157 196.051193 
L 240.186796 198.658887 
L 244.616832 200.7599 
L 248.812448 202.483708 
L 252.363086 203.71947 
L 256.040503 204.764877 
L 259.313551 205.479761 
L 262.585688 205.977862 
L 265.887721 206.247661 
L 269.311489 206.266054 
L 272.188125 206.064965 
L 275.097242 205.650846 
L 278.302821 204.938102 
L 281.186917 204.057226 
L 284.044058 202.951648 
L 287.245367 201.42667 
L 290.026199 199.847331 
L 292.784213 198.038777 
L 295.399332 196.09403 
L 298.372578 193.602466 
L 301.625546 190.523434 
L 304.406681 187.589045 
L 307.272245 184.26545 
L 310.48818 180.161922 
L 313.507647 175.938798 
L 316.633749 171.17748 
L 319.801514 165.937383 
L 323.015696 160.18105 
L 326.385936 153.656329 
L 329.728244 146.677525 
L 332.864011 139.657415 
L 336.357455 131.283416 
L 340.031817 121.829778 
L 343.428883 112.48458 
L 347.062842 101.827158 
L 350.612403 90.741246 
L 354.419969 78.087683 
L 358.274682 64.453529 
L 361.950871 50.658973 
L 365.920987 34.871468 
L 369.596723 19.410792 
L 373.817159 0.633824 
L 374.172883 -1 
L 374.172883 -1 
" style="fill:none;stroke:#ff0000;stroke-linecap:square;stroke-width:5;"/>
   </g>
  </g>
 </g>
 <defs>
  <clipPath id="pcd165747ae">
   <rect height="259.4" width="403.4" x="10.7" y="10.7"/>
  </clipPath>
 </defs>
</svg>
