<?xml version="1.0" encoding="utf-8" standalone="no"?>
<!DOCTYPE svg PUBLIC "-//W3C//DTD SVG 1.1//EN"
  "http://www.w3.org/Graphics/SVG/1.1/DTD/svg11.dtd">
<!-- Created with matplotlib (http://matplotlib.org/) -->
<svg height="280.8pt" version="1.1" viewBox="0 0 424.8 280.8" width="424.8pt" xmlns="http://www.w3.org/2000/svg" xmlns:xlink="http://www.w3.org/1999/xlink">
 <defs>
  <style type="text/css">
*{stroke-linecap:butt;stroke-linejoin:round;}
  </style>
 </defs>
 <g id="figure_1">
  <g id="patch_1">
   <path d="M 0 280.8 
L 424.8 280.8 
L 424.8 0 
L 0 0 
z
" style="fill:#ffffff;"/>
  </g>
  <g id="axes_1">
   <g id="patch_2">
    <path d="M 10.7 270.1 
L 414.1 270.1 
L 414.1 10.7 
L 10.7 10.7 
z
" style="fill:#ffffff;"/>
   </g>
   <g id="matplotlib.axis_1"/>
   <g id="matplotlib.axis_2"/>
   <g id="patch_3">
    <path d="M 230.031119 270.1 
L 230.031119 10.7 
" style="fill:none;stroke:#808080;stroke-linecap:square;stroke-linejoin:miter;stroke-width:2;"/>
   </g>
   <g id="patch_4">
    <path d="M 10.7 174.412238 
L 414.1 174.412238 
" style="fill:none;stroke:#808080;stroke-linecap:square;stroke-linejoin:miter;stroke-width:2;"/>
   </g>
   <g id="line2d_1">
    <path clip-path="url(#p2f24a59329)" d="M 18.457692 142.01963 
L 31.66846 141.116447 
L 45.008215 140.006695 
L 55.80285 138.912824 
L 65.230232 137.76494 
L 73.20098 136.610026 
L 80.363253 135.384688 
L 87.391646 133.957983 
L 93.652589 132.443209 
L 99.999168 130.597422 
L 103.641311 129.356784 
L 108.214712 127.559244 
L 111.939011 125.849498 
L 115.058657 124.2043 
L 118.458982 122.135253 
L 121.503951 119.977374 
L 123.574357 118.306816 
L 125.94243 116.149623 
L 128.042044 113.971607 
L 129.931317 111.753012 
L 132.108074 108.824835 
L 133.967356 105.935469 
L 135.838947 102.575839 
L 137.511045 99.097731 
L 138.964537 95.620285 
L 140.255933 92.095255 
L 141.949882 86.693503 
L 143.346546 81.395981 
L 144.585147 75.875076 
L 145.9344 68.722479 
L 147.090903 61.362087 
L 148.300776 52.044714 
L 149.334941 42.331484 
L 150.32329 31.012 
L 151.298234 17.184011 
L 152.206153 0.99437 
L 152.30415 -1 
L 152.30415 -1 
" style="fill:none;stroke:#ff0000;stroke-linecap:square;stroke-width:5;"/>
   </g>
   <g id="line2d_2">
    <path clip-path="url(#p2f24a59329)" d="M 167.374308 281.8 
L 168.328137 267.091205 
L 169.41724 253.748099 
L 170.445131 243.579444 
L 171.594515 234.243254 
L 172.876239 225.709254 
L 174.146697 218.709084 
L 175.41782 212.808888 
L 176.949755 206.821583 
L 178.494466 201.742095 
L 180.196422 197.000677 
L 182.181958 192.339113 
L 183.718665 189.234291 
L 185.68437 185.766599 
L 187.74292 182.619832 
L 189.677162 180.023465 
L 191.907984 177.376345 
L 194.492685 174.680397 
L 196.567084 172.747543 
L 199.860061 170.009797 
L 203.205849 167.548078 
L 207.188385 164.921998 
L 211.591754 162.279556 
L 220.940649 157.072496 
L 227.305109 153.429965 
L 227.305109 153.429965 
" style="fill:none;stroke:#ff0000;stroke-linecap:square;stroke-width:5;"/>
   </g>
   <g id="line2d_3">
    <path clip-path="url(#p2f24a59329)" d="M 232.76138 149.905343 
L 236.265682 147.262876 
L 239.190785 144.695214 
L 241.234816 142.625615 
L 243.270128 140.261068 
L 245.111427 137.779087 
L 247.091785 134.623848 
L 248.818065 131.320038 
L 250.108857 128.399646 
L 251.580736 124.44352 
L 252.986038 119.830833 
L 254.191605 114.982365 
L 255.385282 109.057653 
L 256.336222 103.236863 
L 257.328379 95.712269 
L 258.274644 86.585222 
L 259.11067 76.225172 
L 259.863092 64.198822 
L 260.591457 48.916196 
L 261.307794 28.466104 
L 261.911793 4.515653 
L 262.025794 -1 
L 262.025794 -1 
" style="fill:none;stroke:#ff0000;stroke-linecap:square;stroke-width:5;"/>
   </g>
   <g id="line2d_4">
    <path clip-path="url(#p2f24a59329)" d="M 269.721399 281.8 
L 270.431016 265.100522 
L 271.269046 250.478268 
L 272.023273 240.417394 
L 273.010266 230.204668 
L 273.909966 222.918396 
L 274.901637 216.453504 
L 276.083628 210.282696 
L 277.179225 205.644003 
L 278.218769 201.957801 
L 279.70394 197.596603 
L 281.03343 194.375223 
L 282.387048 191.596852 
L 284.342167 188.260371 
L 286.108806 185.76624 
L 288.145325 183.350792 
L 289.751348 181.716915 
L 291.593068 180.076575 
L 294.329525 178.002636 
L 296.777274 176.434382 
L 299.231802 175.073478 
L 302.642124 173.457556 
L 306.70401 171.852111 
L 310.792674 170.499657 
L 315.9059 169.0857 
L 322.2849 167.639758 
L 327.665521 166.623346 
L 335.31503 165.413874 
L 345.52927 164.111816 
L 355.220254 163.112109 
L 367.990116 162.041404 
L 382.329049 161.076418 
L 400.759338 160.091263 
L 406.342308 159.835564 
L 406.342308 159.835564 
" style="fill:none;stroke:#ff0000;stroke-linecap:square;stroke-width:5;"/>
   </g>
  </g>
 </g>
 <defs>
  <clipPath id="p2f24a59329">
   <rect height="259.4" width="403.4" x="10.7" y="10.7"/>
  </clipPath>
 </defs>
</svg>
