<?xml version="1.0" encoding="utf-8" standalone="no"?>
<!DOCTYPE svg PUBLIC "-//W3C//DTD SVG 1.1//EN"
  "http://www.w3.org/Graphics/SVG/1.1/DTD/svg11.dtd">
<!-- Created with matplotlib (http://matplotlib.org/) -->
<svg height="280.8pt" version="1.1" viewBox="0 0 424.8 280.8" width="424.8pt" xmlns="http://www.w3.org/2000/svg" xmlns:xlink="http://www.w3.org/1999/xlink">
 <defs>
  <style type="text/css">
*{stroke-linecap:butt;stroke-linejoin:round;}
  </style>
 </defs>
 <g id="figure_1">
  <g id="patch_1">
   <path d="M 0 280.8 
L 424.8 280.8 
L 424.8 0 
L 0 0 
z
" style="fill:#ffffff;"/>
  </g>
  <g id="axes_1">
   <g id="patch_2">
    <path d="M 10.7 270.1 
L 414.1 270.1 
L 414.1 10.7 
L 10.7 10.7 
z
" style="fill:#ffffff;"/>
   </g>
   <g id="matplotlib.axis_1"/>
   <g id="matplotlib.axis_2"/>
   <g id="patch_3">
    <path d="M 277.047436 270.1 
L 277.047436 10.7 
" style="fill:none;stroke:#808080;stroke-linecap:square;stroke-linejoin:miter;stroke-width:2;"/>
   </g>
   <g id="patch_4">
    <path d="M 10.7 193.847802 
L 414.1 193.847802 
" style="fill:none;stroke:#808080;stroke-linecap:square;stroke-linejoin:miter;stroke-width:2;"/>
   </g>
   <g id="line2d_1">
    <path clip-path="url(#p589d27bac0)" d="M 18.457692 157.770536 
L 32.738008 158.309532 
L 44.611517 158.513253 
L 53.445564 158.460733 
L 62.235253 158.168015 
L 69.2329 157.702038 
L 75.038323 157.105217 
L 80.562219 156.304437 
L 84.805293 155.490725 
L 88.749765 154.537454 
L 92.591501 153.379973 
L 95.663793 152.251641 
L 98.956687 150.792636 
L 101.928217 149.200384 
L 104.727427 147.400829 
L 107.043895 145.639223 
L 109.224177 143.704233 
L 111.280874 141.57909 
L 113.221932 139.248223 
L 115.152712 136.546653 
L 116.846029 133.793341 
L 118.455448 130.77056 
L 120.03469 127.336093 
L 121.539783 123.535002 
L 122.974928 119.321499 
L 124.394491 114.455661 
L 125.830063 108.654823 
L 127.16428 102.265681 
L 128.425882 95.10563 
L 129.614867 87.097537 
L 130.779042 77.748501 
L 131.904725 66.888802 
L 133.022081 53.810673 
L 134.043704 39.228812 
L 135.039757 21.821895 
L 136.011736 0.785558 
L 136.085037 -1 
M 154.874023 -1 
L 155.584046 39.654623 
L 156.365128 72.4412 
L 157.193961 98.009202 
L 158.01933 117.009346 
L 158.896731 132.286616 
L 159.774153 143.960406 
L 160.673101 153.225479 
L 161.646961 161.017223 
L 162.648804 167.24317 
L 163.69921 172.334459 
L 164.749616 176.330614 
L 165.843021 179.616805 
L 166.853655 182.048456 
L 167.9811 184.23237 
L 169.076606 185.938073 
L 170.430362 187.610028 
L 171.883443 188.996771 
L 173.308812 190.048551 
L 174.854321 190.929431 
L 176.686888 191.713586 
L 178.810389 192.366922 
L 181.269953 192.885675 
L 184.577485 193.321035 
L 188.797305 193.617693 
L 195.103609 193.794103 
L 208.597139 193.847711 
L 235.008936 193.757812 
L 243.959461 193.490732 
L 249.699624 193.097108 
L 253.785293 192.611366 
L 256.961572 192.033324 
L 259.603424 191.340041 
L 261.725968 190.569022 
L 263.415349 189.753583 
L 264.938551 188.79684 
L 266.219385 187.761851 
L 267.542347 186.375361 
L 268.596837 184.93888 
L 269.619442 183.136339 
L 270.485898 181.15173 
L 271.285487 178.774253 
L 272.007189 175.965029 
L 272.72889 172.199412 
L 273.370403 167.593929 
L 273.947018 161.811335 
L 274.458736 154.506221 
L 274.919283 144.912374 
L 275.328657 132.052914 
L 275.722035 112.193955 
L 276.059216 82.569541 
L 276.3402 36.286213 
L 276.470747 -1 
L 276.470747 -1 
" style="fill:none;stroke:#ff0000;stroke-linecap:square;stroke-width:5;"/>
   </g>
   <g id="line2d_2">
    <path clip-path="url(#p589d27bac0)" d="M 278.444426 281.8 
L 278.798914 265.084975 
L 279.300501 250.483842 
L 279.855913 240.417002 
L 280.501808 232.798802 
L 281.201527 227.236781 
L 281.905521 223.273641 
L 282.667615 220.118233 
L 283.505917 217.523823 
L 284.379362 215.467986 
L 285.361825 213.689296 
L 286.494374 212.118386 
L 287.626924 210.903505 
L 288.911298 209.827846 
L 290.250855 208.950868 
L 291.781778 208.168647 
L 293.786962 207.39605 
L 296.25921 206.714322 
L 298.602932 206.257313 
L 302.196988 205.795649 
L 306.375157 205.498746 
L 311.746554 205.354593 
L 318.827025 205.413996 
L 326.859018 205.688152 
L 337.569148 206.256521 
L 353.288596 207.332935 
L 375.242292 209.101453 
L 401.680093 211.454813 
L 406.342308 211.886435 
L 406.342308 211.886435 
" style="fill:none;stroke:#ff0000;stroke-linecap:square;stroke-width:5;"/>
   </g>
  </g>
 </g>
 <defs>
  <clipPath id="p589d27bac0">
   <rect height="259.4" width="403.4" x="10.7" y="10.7"/>
  </clipPath>
 </defs>
</svg>
