<?xml version="1.0" encoding="utf-8" standalone="no"?>
<!DOCTYPE svg PUBLIC "-//W3C//DTD SVG 1.1//EN"
  "http://www.w3.org/Graphics/SVG/1.1/DTD/svg11.dtd">
<!-- Created with matplotlib (http://matplotlib.org/) -->
<svg height="280.8pt" version="1.1" viewBox="0 0 424.8 280.8" width="424.8pt" xmlns="http://www.w3.org/2000/svg" xmlns:xlink="http://www.w3.org/1999/xlink">
 <defs>
  <style type="text/css">
*{stroke-linecap:butt;stroke-linejoin:round;}
  </style>
 </defs>
 <g id="figure_1">
  <g id="patch_1">
   <path d="M 0 280.8 
L 424.8 280.8 
L 424.8 0 
L 0 0 
z
" style="fill:#ffffff;"/>
  </g>
  <g id="axes_1">
   <g id="patch_2">
    <path d="M 10.7 270.1 
L 414.1 270.1 
L 414.1 10.7 
L 10.7 10.7 
z
" style="fill:#ffffff;"/>
   </g>
   <g id="matplotlib.axis_1"/>
   <g id="matplotlib.axis_2"/>
   <g id="patch_3">
    <path d="M 212.4 270.1 
L 212.4 10.7 
" style="fill:none;stroke:#808080;stroke-linecap:square;stroke-linejoin:miter;stroke-width:2;"/>
   </g>
   <g id="patch_4">
    <path d="M 10.7 140.4 
L 414.1 140.4 
" style="fill:none;stroke:#808080;stroke-linecap:square;stroke-linejoin:miter;stroke-width:2;"/>
   </g>
   <g id="line2d_1">
    <path clip-path="url(#pceb6b0ee04)" d="M 18.457692 265.111538 
L 21.106076 260.601209 
L 22.925412 257.538723 
L 24.164002 255.470548 
L 26.253438 252.01239 
L 28.026526 249.108085 
L 30.537686 245.042383 
L 31.946507 242.785842 
L 33.673415 240.043752 
L 35.090289 237.813645 
L 36.507163 235.601287 
L 38.78408 232.083209 
L 40.218294 229.890725 
L 41.166031 228.4519 
L 42.561273 226.348137 
L 43.956515 224.261586 
L 45.187758 222.434589 
L 46.738227 220.152969 
L 49.270374 216.472445 
L 50.903459 214.128796 
L 52.596379 211.724169 
L 54.2893 209.344882 
L 54.579366 208.939757 
L 56.252581 206.617354 
L 57.925796 204.319705 
L 58.614544 203.381112 
L 60.598284 200.701202 
L 62.199196 198.563839 
L 63.800108 196.449137 
L 65.549758 194.163877 
L 67.151506 192.095526 
L 68.705609 190.110381 
L 70.906858 187.335145 
L 73.461432 184.168161 
L 74.183817 183.283063 
L 76.724426 180.206846 
L 78.260305 178.374853 
L 80.094867 176.213927 
L 81.894693 174.122833 
L 83.69452 172.060381 
L 84.948018 170.640896 
L 86.15992 169.281723 
L 87.838168 167.420976 
L 89.516416 165.585132 
L 90.572689 164.442438 
L 91.989972 162.924696 
L 93.407255 161.424714 
L 93.521773 161.30429 
L 95.057843 159.7002 
L 96.593914 158.116971 
L 97.47476 157.218495 
L 99.563744 155.115125 
L 101.198709 153.495816 
L 102.833674 151.900143 
L 103.95936 150.815248 
L 105.198597 149.633872 
L 106.805995 148.121753 
L 108.413394 146.632477 
L 110.531942 144.704511 
L 112.372982 143.061316 
L 113.64988 141.939238 
L 115.26743 140.53851 
L 116.88498 139.160915 
L 117.959616 138.258485 
L 119.000428 137.394193 
L 121.502801 135.355415 
L 123.01838 134.147536 
L 124.533958 132.959966 
L 124.70422 132.827822 
L 126.631069 131.350215 
L 128.557917 129.905434 
L 129.311055 129.349643 
L 131.793371 127.553279 
L 132.538064 127.024995 
L 134.077195 125.948678 
L 135.616326 124.893305 
L 136.713077 124.15405 
L 138.608701 122.901398 
L 140.762437 121.516738 
L 143.166722 120.019443 
L 145.686267 118.505212 
L 146.890705 117.801181 
L 148.111931 117.100432 
L 150.602605 115.712136 
L 152.840507 114.511516 
L 155.184655 113.301379 
L 156.020055 112.881856 
L 158.674346 111.589869 
L 160.151836 110.897682 
L 161.629325 110.224797 
L 162.799556 109.705542 
L 164.28539 109.063694 
L 165.769518 108.442069 
L 167.253646 107.839919 
L 169.064523 107.131577 
L 170.398964 106.628152 
L 172.094032 106.011381 
L 173.482703 105.525027 
L 174.871373 105.055723 
L 176.947091 104.386022 
L 178.915456 103.786146 
L 180.718007 103.266853 
L 181.807359 102.966951 
L 183.443695 102.536179 
L 185.080031 102.129082 
L 186.244322 101.853838 
L 187.221011 101.632189 
L 188.613221 101.33082 
L 190.005431 101.046589 
L 192.413932 100.595342 
L 194.720551 100.211263 
L 196.477392 99.950289 
L 198.011305 99.744744 
L 199.195415 99.600302 
L 201.446063 99.359933 
L 204.110829 99.133241 
L 206.13693 99.002897 
L 206.717772 98.972225 
L 208.264244 98.905103 
L 209.810715 98.859126 
" style="fill:none;stroke:#ff0000;stroke-linecap:square;stroke-width:5;"/>
   </g>
   <g id="line2d_2">
    <path clip-path="url(#pceb6b0ee04)" d="M 215.505707 98.872128 
L 216.631653 98.90865 
L 218.372227 98.987166 
L 220.112801 99.092468 
L 221.514566 99.196746 
L 222.275336 99.260613 
L 224.11637 99.436344 
L 225.957404 99.642043 
L 227.84957 99.884683 
L 228.660948 99.998427 
L 230.027355 100.203132 
L 231.963009 100.521375 
L 233.979001 100.888044 
L 235.983216 101.288192 
L 237.524705 101.620117 
L 239.066194 101.973051 
L 241.001287 102.445845 
L 243.222585 103.029382 
L 244.969861 103.519047 
L 246.367792 103.930247 
L 248.17618 104.487816 
L 250.280524 105.173035 
L 252.772068 106.034956 
L 253.579741 106.326141 
L 256.176368 107.301365 
L 258.008342 108.025273 
L 259.50587 108.639065 
L 261.003398 109.272685 
L 261.882572 109.653911 
L 264.309621 110.741797 
L 266.293212 111.669587 
L 267.339358 112.172915 
L 269.124213 113.053994 
L 271.603166 114.324435 
L 273.007692 115.068355 
L 274.412218 115.829717 
L 276.43914 116.959213 
L 278.291826 118.023392 
L 280.496173 119.3291 
L 282.023474 120.258967 
L 283.126277 120.94321 
L 285.539127 122.477781 
L 286.954219 123.401725 
L 288.369311 124.343374 
L 289.85148 125.348643 
L 290.888982 126.063877 
L 293.56511 127.952682 
L 295.751445 129.54279 
L 297.774177 131.051548 
L 298.343402 131.482657 
L 300.452113 133.104673 
L 302.234762 134.506551 
L 304.647981 136.449072 
L 306.988917 138.382608 
L 308.564411 139.711193 
L 310.027648 140.96477 
L 311.490885 142.237276 
L 311.94866 142.639269 
L 313.776356 144.262717 
L 315.842629 146.13365 
L 318.286876 148.395562 
L 320.626509 150.610145 
L 322.07858 152.008944 
L 323.639473 153.533363 
L 325.200366 155.079325 
L 325.575293 155.453874 
L 327.070651 156.960088 
L 328.566008 158.486072 
L 331.185924 161.20731 
L 332.836932 162.953342 
L 333.669598 163.843075 
L 335.463773 165.781048 
L 337.295691 167.789156 
L 338.750037 169.404506 
L 340.204383 171.038558 
L 342.623833 173.798399 
L 344.077101 175.481007 
L 346.825801 178.714539 
L 346.911812 178.816799 
L 348.41603 180.615765 
L 349.920248 182.434737 
L 351.270798 184.084931 
L 352.803535 185.97727 
L 354.59536 188.215817 
L 356.387184 190.482751 
L 356.87064 191.099259 
L 358.452133 193.130436 
L 360.033626 195.183726 
L 360.92263 196.347652 
L 362.491671 198.418961 
L 364.060711 200.512037 
L 366.094741 203.257803 
L 367.971889 205.824246 
L 368.577458 206.658829 
L 370.747962 209.676811 
L 372.504513 212.149705 
L 374.158464 214.503095 
L 375.812415 216.880672 
L 377.67622 219.588901 
L 379.441999 222.183026 
L 380.525392 223.788295 
L 382.570344 226.846594 
L 385.256859 230.920566 
L 386.580456 232.951204 
L 388.035241 235.200975 
L 389.490026 237.469458 
L 389.809437 237.970029 
L 391.525172 240.674312 
L 393.240907 243.404624 
L 393.768967 244.250182 
L 396.29822 248.334345 
L 398.329964 251.656113 
L 400.370185 255.028468 
L 403.097409 259.593871 
L 404.146932 261.368308 
L 406.342308 265.111538 
" style="fill:none;stroke:#ff0000;stroke-linecap:square;stroke-width:5;"/>
   </g>
  </g>
 </g>
 <defs>
  <clipPath id="pceb6b0ee04">
   <rect height="259.4" width="403.4" x="10.7" y="10.7"/>
  </clipPath>
 </defs>
</svg>
