<?xml version="1.0" encoding="utf-8" standalone="no"?>
<!DOCTYPE svg PUBLIC "-//W3C//DTD SVG 1.1//EN"
  "http://www.w3.org/Graphics/SVG/1.1/DTD/svg11.dtd">
<!-- Created with matplotlib (http://matplotlib.org/) -->
<svg height="280.8pt" version="1.1" viewBox="0 0 424.8 280.8" width="424.8pt" xmlns="http://www.w3.org/2000/svg" xmlns:xlink="http://www.w3.org/1999/xlink">
 <defs>
  <style type="text/css">
*{stroke-linecap:butt;stroke-linejoin:round;}
  </style>
 </defs>
 <g id="figure_1">
  <g id="patch_1">
   <path d="M 0 280.8 
L 424.8 280.8 
L 424.8 0 
L 0 0 
z
" style="fill:#ffffff;"/>
  </g>
  <g id="axes_1">
   <g id="patch_2">
    <path d="M 10.7 270.1 
L 414.1 270.1 
L 414.1 10.7 
L 10.7 10.7 
z
" style="fill:#ffffff;"/>
   </g>
   <g id="matplotlib.axis_1"/>
   <g id="matplotlib.axis_2"/>
   <g id="patch_3">
    <path d="M 212.4 270.1 
L 212.4 10.7 
" style="fill:none;stroke:#808080;stroke-linecap:square;stroke-linejoin:miter;stroke-width:2;"/>
   </g>
   <g id="patch_4">
    <path d="M 10.7 140.4 
L 414.1 140.4 
" style="fill:none;stroke:#808080;stroke-linecap:square;stroke-linejoin:miter;stroke-width:2;"/>
   </g>
   <g id="line2d_1">
    <path clip-path="url(#p80dfe4b079)" d="M 18.457692 190.284615 
L 19.6737 190.284615 
L 21.460374 190.284615 
L 24.412469 190.284615 
L 25.784275 190.284615 
L 27.751169 190.284615 
L 30.383476 190.284615 
L 32.658253 190.284615 
L 34.334335 190.284615 
L 36.329358 190.284615 
L 38.89186 190.284615 
L 39.302978 190.284615 
L 42.349422 190.284615 
L 44.747274 190.284615 
L 45.403218 190.284615 
L 48.30672 190.284615 
L 49.420112 190.284615 
L 51.015537 190.284615 
L 53.078026 190.284615 
L 54.551712 190.284615 
L 57.155026 190.284615 
L 59.207422 190.284615 
L 62.053579 190.284615 
L 62.5368 190.284615 
L 64.377518 190.284615 
L 67.25311 190.284615 
L 68.341204 190.284615 
L 70.485294 190.284615 
L 72.928561 190.284615 
L 75.146298 190.284615 
L 77.549468 190.284615 
L 79.309098 190.284615 
L 81.560486 190.284615 
L 82.404174 190.284615 
L 85.405281 190.284615 
L 85.814605 190.284615 
L 89.344499 190.284615 
L 90.964078 190.284615 
L 92.28081 190.284615 
L 94.081145 190.284615 
L 96.819626 190.284615 
L 97.413947 190.284615 
L 100.205326 190.284615 
L 101.707751 190.284615 
L 103.962751 190.284615 
L 106.226055 190.284615 
L 107.594229 190.284615 
L 109.657297 190.284615 
L 112.822745 190.284615 
L 114.244261 190.284615 
L 116.601156 190.284615 
L 118.759042 190.284615 
L 119.719163 190.284615 
L 122.279883 190.284615 
L 123.192238 190.284615 
L 126.198647 190.284615 
L 127.707893 190.284615 
L 129.242834 190.284615 
L 130.767329 190.284615 
L 134.234557 190.284615 
L 136.326413 190.284615 
L 137.038134 190.284615 
L 138.519206 190.284615 
L 141.837194 190.284615 
L 142.70703 190.284615 
L 144.272781 190.284615 
L 147.419272 190.284615 
L 148.306394 190.284615 
L 151.12796 190.284615 
L 151.995505 190.284615 
L 155.417314 190.284615 
L 157.010862 190.284615 
L 157.908234 190.284615 
L 160.211575 190.284615 
L 162.340131 190.284615 
L 165.208925 190.284615 
L 166.901134 190.284615 
L 167.876198 190.284615 
L 171.007743 190.284615 
L 172.306441 190.284615 
L 175.224811 190.284615 
L 177.033186 190.284615 
L 178.766843 190.284615 
L 180.199819 190.284615 
L 181.381044 190.284615 
L 183.550035 190.284615 
L 185.57803 190.284615 
L 187.962442 190.284615 
L 190.70609 190.284615 
L 191.226697 190.284615 
L 194.418204 190.284615 
L 196.559431 190.284615 
L 197.119131 190.284615 
L 199.232062 190.284615 
L 201.102048 190.284615 
L 203.36544 190.284615 
L 205.300035 190.284615 
L 207.959337 190.284615 
L 210.38186 190.284615 
" style="fill:none;stroke:#ff0000;stroke-linecap:square;stroke-width:5;"/>
   </g>
   <g id="line2d_2">
    <path clip-path="url(#p80dfe4b079)" d="M 215.34522 190.284615 
L 218.188067 190.284615 
L 218.745342 190.284615 
L 221.482874 190.284615 
L 222.932658 190.284615 
L 225.566669 190.284615 
L 227.972348 190.284615 
L 228.758599 190.284615 
L 231.788904 190.284615 
L 232.153272 190.284615 
L 233.979852 190.284615 
L 236.553905 190.284615 
L 238.611995 190.284615 
L 240.373268 190.284615 
L 242.051394 190.284615 
L 244.754886 190.284615 
L 245.815669 190.284615 
L 249.368521 190.284615 
L 249.955606 190.284615 
L 251.692319 190.284615 
L 253.671814 190.284615 
L 256.92776 190.284615 
L 258.462154 190.284615 
L 261.010294 190.284615 
L 262.812458 190.284615 
L 264.431432 190.284615 
L 265.109878 190.284615 
L 267.573579 190.284615 
L 268.930777 190.284615 
L 272.693637 190.284615 
L 273.589109 190.284615 
L 274.886698 190.284615 
L 276.957029 190.284615 
L 280.053461 190.284615 
L 282.430355 190.284615 
L 283.576679 190.284615 
L 285.126997 190.284615 
L 288.416734 190.284615 
L 288.876767 190.284615 
L 292.212002 190.284615 
L 293.594694 190.284615 
L 296.038834 190.284615 
L 297.121192 190.284615 
L 298.210263 190.284615 
L 301.342634 190.284615 
L 302.609652 190.284615 
L 304.981935 190.284615 
L 306.957112 190.284615 
L 308.218511 190.284615 
L 310.048531 190.284615 
L 313.450133 190.284615 
L 314.447415 190.284615 
L 315.753701 190.284615 
L 318.09681 190.284615 
L 321.52986 190.284615 
L 322.81713 190.284615 
L 324.699835 190.284615 
L 327.274289 190.284615 
L 327.696052 190.284615 
L 330.361372 190.284615 
L 331.910145 190.284615 
L 334.137572 190.284615 
L 335.717056 190.284615 
L 337.86781 190.284615 
L 340.919588 190.284615 
L 342.653933 190.284615 
L 344.153635 190.284615 
L 346.350349 190.284615 
L 347.866579 190.284615 
L 349.541446 190.284615 
L 352.343195 190.284615 
L 352.85528 190.284615 
L 355.315935 190.284615 
L 356.649759 190.284615 
L 358.621749 190.284615 
L 362.395397 190.284615 
L 363.997899 190.284615 
L 364.682735 190.284615 
L 367.439338 190.284615 
L 369.922463 190.284615 
L 371.674298 190.284615 
L 372.572558 190.284615 
L 375.458916 190.284615 
L 377.519147 190.284615 
L 378.66109 190.284615 
L 380.968683 190.284615 
L 383.590348 190.284615 
L 385.112894 190.284615 
L 386.040087 190.284615 
L 389.031804 190.284615 
L 389.885824 190.284615 
L 393.183913 190.284615 
L 395.063337 190.284615 
L 397.156053 190.284615 
L 398.716149 190.284615 
L 400.271962 190.284615 
L 403.152665 190.284615 
L 404.974072 190.284615 
L 406.342308 190.284615 
" style="fill:none;stroke:#ff0000;stroke-linecap:square;stroke-width:5;"/>
   </g>
  </g>
 </g>
 <defs>
  <clipPath id="p80dfe4b079">
   <rect height="259.4" width="403.4" x="10.7" y="10.7"/>
  </clipPath>
 </defs>
</svg>
