<?xml version="1.0" encoding="utf-8" standalone="no"?>
<!DOCTYPE svg PUBLIC "-//W3C//DTD SVG 1.1//EN"
  "http://www.w3.org/Graphics/SVG/1.1/DTD/svg11.dtd">
<!-- Created with matplotlib (http://matplotlib.org/) -->
<svg height="280.8pt" version="1.1" viewBox="0 0 424.8 280.8" width="424.8pt" xmlns="http://www.w3.org/2000/svg" xmlns:xlink="http://www.w3.org/1999/xlink">
 <defs>
  <style type="text/css">
*{stroke-linecap:butt;stroke-linejoin:round;}
  </style>
 </defs>
 <g id="figure_1">
  <g id="patch_1">
   <path d="M 0 280.8 
L 424.8 280.8 
L 424.8 0 
L 0 0 
z
" style="fill:#ffffff;"/>
  </g>
  <g id="axes_1">
   <g id="patch_2">
    <path d="M 10.7 270.1 
L 414.1 270.1 
L 414.1 10.7 
L 10.7 10.7 
z
" style="fill:#ffffff;"/>
   </g>
   <g id="matplotlib.axis_1"/>
   <g id="matplotlib.axis_2"/>
   <g id="patch_3">
    <path d="M 309.371154 270.1 
L 309.371154 10.7 
" style="fill:none;stroke:#808080;stroke-linecap:square;stroke-linejoin:miter;stroke-width:2;"/>
   </g>
   <g id="patch_4">
    <path d="M 10.7 65.573077 
L 414.1 65.573077 
" style="fill:none;stroke:#808080;stroke-linecap:square;stroke-linejoin:miter;stroke-width:2;"/>
   </g>
   <g id="line2d_1">
    <path clip-path="url(#p14d5b4f91d)" d="M 18.457692 265.111538 
L 24.891677 252.091872 
L 31.294152 239.571955 
L 38.056332 226.820899 
L 44.165575 215.718202 
L 51.774384 202.443973 
L 58.535623 191.163831 
L 64.563929 181.515487 
L 71.865407 170.345739 
L 78.033068 161.351196 
L 84.477158 152.384666 
L 90.639325 144.22251 
L 96.608989 136.699537 
L 102.79021 129.3084 
L 109.353431 121.904221 
L 115.314498 115.575409 
L 122.070836 108.858083 
L 127.066317 104.202879 
L 132.811907 99.176049 
L 136.896608 95.815349 
L 142.67608 91.362706 
L 147.353654 88.018475 
L 152.84704 84.387383 
L 159.145706 80.618028 
L 163.975351 78.012907 
L 169.46977 75.350129 
L 173.516638 73.593719 
L 178.343243 71.726094 
L 182.661071 70.264798 
L 188.462599 68.61281 
L 192.122101 67.754437 
L 195.5322 67.082456 
L 199.619614 66.439579 
L 204.688799 65.888523 
L 210.37295 65.594875 
L 213.423156 65.57863 
L 218.371853 65.762268 
L 224.263835 66.319752 
L 227.091223 66.718056 
L 232.84328 67.790164 
L 237.303827 68.863212 
L 243.006604 70.542567 
L 246.9824 71.917495 
L 252.140352 73.951165 
L 257.453209 76.341025 
L 262.669039 78.978566 
L 267.842466 81.879796 
L 273.746975 85.538008 
L 278.801434 88.96341 
L 284.360087 93.043469 
L 288.980541 96.684391 
L 294.714443 101.517671 
L 300.743858 106.976307 
L 305.557848 111.611496 
L 307.565476 113.617209 
L 307.565476 113.617209 
" style="fill:none;stroke:#ff0000;stroke-linecap:square;stroke-width:5;"/>
   </g>
   <g id="line2d_2">
    <path clip-path="url(#p14d5b4f91d)" d="M 312.846434 119.097322 
L 314.815315 121.216177 
L 316.769939 123.360372 
L 317.811438 124.519435 
L 320.377863 127.42468 
L 322.433253 129.801817 
L 325.024773 132.862895 
L 326.678917 134.854011 
L 328.428118 136.991129 
L 329.820877 138.715972 
L 331.419786 140.721493 
L 333.018694 142.754138 
L 335.116774 145.462515 
L 335.553241 146.031811 
L 337.419111 148.488308 
L 339.665706 151.495058 
L 341.71041 154.278155 
L 343.420038 156.63922 
L 345.05976 158.932878 
L 346.699482 161.255062 
L 348.299527 163.548556 
L 350.522565 166.780128 
L 351.200815 167.776522 
L 353.526738 171.230523 
L 355.709879 174.524714 
L 357.267199 176.905491 
L 358.703954 179.124774 
L 360.14071 181.365959 
L 360.784976 182.378058 
L 363.376382 186.493465 
L 364.858385 188.879054 
L 366.340387 191.287946 
L 367.417292 193.053 
L 369.187209 195.980634 
L 371.817285 200.392454 
L 372.849451 202.143914 
L 375.300738 206.348747 
L 377.735045 210.587545 
L 378.160597 211.335006 
L 379.771558 214.181977 
L 381.382519 217.056482 
L 383.132496 220.210243 
L 385.554973 224.629584 
L 387.4183 228.071228 
L 389.6339 232.211479 
L 389.990731 232.883151 
L 392.432559 237.515726 
L 394.122725 240.759313 
L 395.672942 243.760976 
L 397.22316 246.788136 
L 398.030406 248.374566 
L 399.713584 251.704651 
L 401.396763 255.064795 
L 403.157056 258.61104 
L 405.094442 262.552053 
L 406.342308 265.111538 
" style="fill:none;stroke:#ff0000;stroke-linecap:square;stroke-width:5;"/>
   </g>
  </g>
 </g>
 <defs>
  <clipPath id="p14d5b4f91d">
   <rect height="259.4" width="403.4" x="10.7" y="10.7"/>
  </clipPath>
 </defs>
</svg>
