<?xml version="1.0" encoding="utf-8"?>
<!-- Generator: Adobe Illustrator 23.1.1, SVG Export Plug-In . SVG Version: 6.00 Build 0)  -->
<svg version="1.1" id="Layer_1" xmlns="http://www.w3.org/2000/svg" xmlns:xlink="http://www.w3.org/1999/xlink" x="0px" y="0px"
	 viewBox="0 0 288 216" style="enable-background:new 0 0 288 216;" xml:space="preserve">
<style type="text/css">
	.st0{fill:#A7A9AC;}
	.st1{fill:#ED1C24;}
	.st2{display:none;}
	.st3{display:inline;}
	.st4{fill:#00AEEF;}
</style>
<g>
	<g>
		<g>
			<path class="st0" d="M269.86,118.76c4.4-3.48,8.69-7.1,12.86-10.86c0.51-0.46,1.01-0.91,1.51-1.38c0.51-0.47,1.1-0.95,1.16-1.7
				c0.08-1.19-1.13-1.81-2.02-2.31c-1.85-1.04-3.89-1.7-5.86-2.46c-2.12-0.82-4.2-1.8-5.66-3.61c-0.07,0.52-0.13,1.05-0.2,1.57
				c0.3-0.17,0.64-0.17,0.9,0.07c0.95,0.87,2.36-0.54,1.41-1.41c-0.92-0.85-2.23-1.02-3.32-0.39c-0.6,0.35-0.6,1.08-0.2,1.57
				c2.51,3.12,6.58,3.98,10.09,5.48c0.9,0.38,1.78,0.82,2.6,1.36c0.07,0.05,0.22,0.18,0.29,0.2c0.01,0.01,0.02,0.02,0.03,0.03
				c0.12,0.11,0.1,0-0.04-0.35c-0.05-0.02-0.59,0.55-0.66,0.62c-0.47,0.43-0.95,0.86-1.42,1.29c-1.96,1.77-3.95,3.51-5.97,5.22
				c-2.26,1.92-4.56,3.79-6.89,5.63c-0.42,0.33-0.35,1.06,0,1.41C268.86,119.18,269.43,119.1,269.86,118.76L269.86,118.76z"/>
		</g>
	</g>
	<g>
		<g>
			<path class="st0" d="M42.62,90.98c-3.87,1.54-7.58,3.45-11.04,5.75c-0.85,0.56-1.79,1.11-2.53,1.8
				c-0.83,0.77-0.76,1.84-0.03,2.64c0.73,0.81,1.6,1.51,2.4,2.25c0.83,0.76,1.67,1.51,2.51,2.26c1.9,1.68,3.82,3.32,5.78,4.92
				c0.99,0.81,2.41-0.6,1.41-1.41c-1.99-1.63-3.95-3.3-5.87-5c-0.96-0.85-1.92-1.71-2.86-2.58c-0.47-0.44-0.94-0.87-1.41-1.31
				c-0.04-0.04-0.53-0.55-0.56-0.54c-0.09,0.27-0.07,0.33,0.06,0.18c0.09-0.07,0.18-0.13,0.27-0.2c3.84-2.77,8.01-5.08,12.41-6.83
				c0.5-0.2,0.85-0.67,0.7-1.23C43.72,91.2,43.13,90.78,42.62,90.98L42.62,90.98z"/>
		</g>
	</g>
	<g>
		<g>
			<path class="st0" d="M29.32,101.36c15.77,3.88,32.09,3.82,48.23,3.69c16.77-0.13,33.53-0.25,50.3-0.38
				c33.43-0.25,66.89-0.87,100.32-0.53c18.65,0.19,37.3,0.88,55.86,2.76c0.4,0.04,0.9-0.34,0.96-0.73c0.3-1.81-0.93-3.45-2.82-3.42
				c-1.29,0.02-1.29,2.02,0,2c0.47-0.01,0.99,0.33,0.89,0.89c0.32-0.24,0.64-0.49,0.96-0.73c-33.15-3.36-66.51-2.91-99.78-2.66
				c-33.36,0.25-66.73,0.5-100.09,0.75c-18.12,0.14-36.56,0.79-54.3-3.57C28.6,99.12,28.07,101.05,29.32,101.36L29.32,101.36z"/>
		</g>
	</g>
</g>
<g>
	<g>
		<g>
			<path class="st0" d="M134.98,40.36c1.64-4.9,3.62-9.69,5.94-14.31c0.57-1.13,1.15-2.25,1.76-3.36c0.27-0.5,0.55-1.01,0.84-1.5
				c0,0,0.26-0.41,0.27-0.4c-0.1,0.01-0.19,0.02-0.29,0.03c0.02,0.02,0.03,0.04,0.05,0.05c0.01,0.06,0.22,0.31,0.25,0.36
				c1.45,2.32,2.83,4.68,4.25,7.01c1.63,2.69,3.26,5.39,4.89,8.08c0.36,0.59,1.4,0.71,1.73,0c0.33-0.72,0.66-1.44,0.99-2.16
				c0.22-0.49,0.14-1.08-0.36-1.37c-0.43-0.25-1.14-0.13-1.37,0.36c-0.33,0.72-0.66,1.44-0.99,2.16c0.58,0,1.15,0,1.73,0
				c-1.59-2.62-3.18-5.24-4.76-7.87c-0.79-1.31-1.59-2.62-2.38-3.93c-0.75-1.23-1.43-2.57-2.29-3.73c-0.77-1.03-2.11-1.3-3-0.24
				c-0.41,0.49-0.69,1.08-0.99,1.63c-0.35,0.64-0.7,1.28-1.04,1.92c-1.31,2.48-2.52,5.02-3.63,7.6c-1.29,3-2.46,6.04-3.5,9.14
				C132.64,41.05,134.57,41.58,134.98,40.36L134.98,40.36z"/>
		</g>
	</g>
	<g>
		<g>
			<path class="st0" d="M136.39,183.56c1.59,3.79,3.51,7.42,5.82,10.82c0.54,0.79,1.06,1.7,1.74,2.39c0.76,0.77,1.84,0.61,2.52-0.16
				c1.39-1.59,2.58-3.41,3.8-5.13c1.44-2.01,2.84-4.05,4.2-6.11c0.71-1.08-1.02-2.08-1.73-1.01c-1.36,2.06-2.76,4.1-4.2,6.11
				c-0.69,0.97-1.4,1.93-2.11,2.89c-0.33,0.45-0.66,0.89-1,1.33c-0.05,0.07-0.51,0.56-0.5,0.63c0.42,0.13,0.54,0.12,0.36-0.04
				c-0.09-0.12-0.18-0.24-0.26-0.36c-2.68-3.69-4.94-7.69-6.7-11.9c-0.21-0.5-0.66-0.85-1.23-0.7
				C136.62,182.46,136.18,183.06,136.39,183.56L136.39,183.56z"/>
		</g>
	</g>
	<g>
		<g>
			<path class="st0" d="M142.39,20.34c-0.36,22.73-0.5,45.45-0.44,68.18c0.07,22.62,0.35,45.23,0.84,67.84
				c0.28,12.76,0.62,25.51,1.03,38.26c0.04,1.28,2.04,1.29,2,0c-0.73-22.72-1.25-45.45-1.56-68.18c-0.3-22.61-0.4-45.23-0.28-67.84
				c0.07-12.75,0.2-25.51,0.4-38.26C144.41,19.06,142.41,19.06,142.39,20.34L142.39,20.34z"/>
		</g>
	</g>
</g>
<g>
	<g>
		<g>
			<g>
				<path class="st1" d="M42.65,186.97c1.02-17.18,5.23-34.13,9.67-50.69c2.21-8.24,4.57-16.44,6.92-24.64
					c1.82-6.35,3.61-12.69,5.72-18.95c2.3-6.81,4.72-13.59,7.19-20.33c0.93-2.54,1.8-5.12,2.87-7.61c1.2-2.8,2.68-5.5,4.28-8.09
					c1.83-2.97,3.84-5.85,6.14-8.47c2-2.28,4.24-4.51,6.94-5.94c6.35-3.36,12.13,2.32,15.52,7.23c1.42,2.06,2.78,4.15,3.72,6.47
					c1.06,2.6,1.9,5.29,2.69,7.98c1.68,5.66,3.09,11.4,4.53,17.13c1.34,5.34,3,10.55,3.88,16c0.58,3.57,1.22,7.13,2.03,10.66
					c0.91,3.93,1.63,7.9,2.62,11.81c1.89,7.48,5.47,14.26,11.6,19.13c3.02,2.4,6.52,3.92,10.41,4c1.86,0.04,3.77-0.08,5.63-0.26
					c1.12-0.11,2.27-0.25,3.32-0.67c1.99-0.78,3.79-2.51,5.23-4.03c2.33-2.46,3.93-5.66,5.32-8.72c1.68-3.67,3.09-7.48,4.15-11.38
					c1.06-3.9,1.94-7.83,3.19-11.68c2.5-7.74,6.38-14.78,10.84-21.55c3.91-5.94,8.64-11.03,15.17-14.08
					c6.34-2.96,13.55-4.13,20.45-4.9c8.24-0.93,16.56-1.14,24.85-1.23c4.84-0.05,9.68-0.04,14.52-0.01c1.29,0.01,1.29-1.99,0-2
					c-9.45-0.06-18.91-0.07-28.35,0.39c-7.53,0.37-15.08,1.07-22.45,2.72c-6.49,1.46-12.68,3.93-17.75,8.33
					c-2.77,2.4-5.12,5.26-7.17,8.28c-2.54,3.73-4.94,7.58-7.03,11.58c-3.6,6.88-5.88,14.23-7.72,21.75
					c-0.97,3.94-2.26,7.81-3.87,11.53c-1.39,3.22-2.97,6.67-5.34,9.31c-0.84,0.93-1.82,1.77-2.78,2.57
					c-0.67,0.56-1.38,1.07-2.22,1.34c-1.18,0.38-2.43,0.46-3.66,0.54c-2.09,0.13-4.25,0.32-6.32-0.02c-3.82-0.63-6.93-2.91-9.6-5.59
					c-2.85-2.86-5.11-6.23-6.61-9.98c-1.43-3.57-2.25-7.34-3.04-11.1c-0.87-4.11-1.88-8.19-2.65-12.32
					c-0.55-2.98-0.94-5.98-1.55-8.95c-0.65-3.16-1.63-6.21-2.47-9.31c-1.36-5-2.51-10.05-3.87-15.05c-0.82-3.02-1.69-6.04-2.68-9.01
					c-0.76-2.28-1.56-4.63-2.75-6.73c-3.05-5.35-7.52-11.92-14.05-13.06C92,38.31,87,43.21,83.38,47.52
					c-4.17,4.95-7.72,10.63-10.25,16.6c-2.45,5.79-4.43,11.83-6.54,17.75c-2.25,6.35-4.52,12.71-6.42,19.17
					c-2.22,7.53-4.33,15.11-6.46,22.67c-4.81,17.02-9.48,34.23-11.9,51.78c-0.52,3.81-0.94,7.64-1.16,11.48
					C40.57,188.26,42.57,188.25,42.65,186.97L42.65,186.97z"/>
			</g>
		</g>
		<g>
			<g>
				<g>
					<path class="st1" d="M33.66,180.41c1.15,1.81,2.3,3.61,3.45,5.42c0.57,0.9,1.15,1.81,1.72,2.71c0.45,0.71,0.91,1.84,1.72,2.2
						c1.04,0.46,1.74-0.52,2.34-1.2c0.71-0.81,1.42-1.62,2.13-2.43c1.42-1.62,2.85-3.24,4.27-4.86c0.85-0.96-0.56-2.38-1.41-1.41
						c-1.2,1.37-2.41,2.74-3.61,4.11c-0.6,0.69-1.2,1.37-1.81,2.06c-0.27,0.31-0.55,0.62-0.82,0.93c-0.16,0.19-0.33,0.37-0.49,0.56
						c-0.06,0.07-0.29,0.39-0.33,0.4c0.18,0,0.35,0,0.53,0c0.2,0.16,0.2,0.12,0.01-0.11c-0.04-0.07-0.09-0.14-0.13-0.21
						c-0.13-0.21-0.27-0.42-0.4-0.63c-0.27-0.42-0.53-0.83-0.8-1.25c-0.51-0.8-1.02-1.6-1.52-2.4c-1.04-1.63-2.08-3.27-3.11-4.9
						C34.69,178.32,32.96,179.32,33.66,180.41L33.66,180.41z"/>
				</g>
			</g>
			<g>
				<g>
					<path class="st1" d="M256.61,55.77c2.44,2.76,4.87,5.53,7.31,8.29c0.07-0.52,0.13-1.05,0.2-1.57
						c-2.07,1.34-4.05,2.82-5.93,4.41c-0.74,0.63-2.25,1.54-1.92,2.72c0.3,1.1,2.11,1.23,2.33,0.01c0.23-1.26-1.69-1.8-1.93-0.53
						c-0.01,0.03-0.01,0.06-0.02,0.09c0.15-0.2,0.31-0.4,0.46-0.6c0.03-0.01,0.05-0.02,0.08-0.04c0.18,0,0.35,0,0.53,0
						c0.02,0.01,0.04,0.02,0.05,0.03c0.12,0.12,0.24,0.24,0.36,0.36c-0.02-0.03-0.03-0.06-0.05-0.09c0.05,0.17,0.09,0.34,0.14,0.5
						c0-0.05,0-0.1,0-0.15c-0.05,0.17-0.09,0.34-0.14,0.5c0.11-0.25,0.42-0.45,0.64-0.64c0.29-0.25,0.58-0.51,0.87-0.75
						c0.59-0.5,1.18-0.98,1.79-1.45c1.21-0.94,2.46-1.81,3.74-2.65c0.56-0.37,0.64-1.07,0.2-1.57c-2.44-2.76-4.87-5.53-7.31-8.29
						C257.17,53.38,255.76,54.8,256.61,55.77L256.61,55.77z"/>
				</g>
			</g>
		</g>
	</g>
	<g>
		<g>
			<g>
				<path class="st1" d="M18.19,140.71c-1.91-0.17-3.65,0.78-4.93,2.14c-1.12,1.2-2.56,3.22-2.2,4.97c0.2,0.97,0.98,1.39,1.89,1.54
					c1.22,0.2,2.47,0.28,3.71,0.24c0.65-0.02,2.38-0.4,2.78,0.35c0.26,0.5-0.25,1.25-0.55,1.63c-0.36,0.44-0.81,0.8-1.28,1.11
					c-2.23,1.44-4.97,2.13-7.61,2.2c0.04,0.33,0.09,0.65,0.13,0.98c0.36-0.14,0.72-0.28,1.08-0.42c0.59-0.23,0.33-1.2-0.27-0.96
					c-0.36,0.14-0.72,0.28-1.08,0.42c-0.49,0.19-0.47,1,0.13,0.98c2.32-0.06,4.59-0.58,6.69-1.56c1.57-0.74,4.01-2.21,3.81-4.28
					c-0.21-2.14-3.42-1.42-4.79-1.44c-0.6-0.01-1.2-0.05-1.79-0.12c-0.54-0.06-1.47-0.06-1.79-0.6c-0.48-0.81,0.29-2.09,0.69-2.78
					c1.12-1.91,3.02-3.61,5.37-3.4C18.83,141.76,18.82,140.76,18.19,140.71L18.19,140.71z"/>
			</g>
		</g>
		<g>
			<g>
				<path class="st1" d="M21.91,152.02c0.06-1.09,0.34-2.27,1.15-3.06c0.72-0.7,1.86-1.03,2.75-0.47c0.88,0.55,1.22,1.66,1.15,2.65
					c-0.08,1.03-0.65,2.05-1.52,2.61c-0.51,0.33-1.09,0.52-1.7,0.56c-0.3,0.02-0.6,0.01-0.9-0.05c-0.15-0.03-0.3-0.08-0.45-0.12
					c-0.05-0.01-0.11,0-0.07-0.01c0.13-0.03,0.03,0.24-0.17,0.37c-0.08,0.02-0.17,0.05-0.25,0.07c-0.02,0-0.03,0-0.05,0
					c0.25,0.1,0.55-0.11,0.62-0.35c0.08-0.29-0.1-0.51-0.35-0.62c-0.33-0.14-0.68,0.09-0.75,0.42c-0.07,0.3,0.07,0.66,0.3,0.86
					c0.27,0.23,0.73,0.32,1.07,0.38c0.39,0.06,0.77,0.09,1.16,0.05c1.56-0.15,2.96-1.06,3.63-2.5c0.63-1.37,0.62-3.06-0.3-4.31
					c-0.94-1.28-2.52-1.62-3.93-0.92c-1.67,0.82-2.3,2.71-2.39,4.44C20.87,152.66,21.87,152.66,21.91,152.02L21.91,152.02z"/>
			</g>
		</g>
		<g>
			<g>
				<path class="st1" d="M29.91,153.87c-0.02-2.7,0.5-5.35,1.51-7.85c-0.3,0.04-0.61,0.08-0.91,0.12c0.66,0.93,1.08,1.97,1.27,3.09
					c0.04,0.25,0.38,0.44,0.62,0.35c0.88-0.33,1.3-1.09,1.65-1.9c0.17-0.4,0.35-0.86,0.68-1.15c0.21-0.18,0.63-0.35,0.87-0.14
					c0.31,0.27,0.26,1.05,0.29,1.42c0.04,0.56,0.06,1.12,0.04,1.67c-0.03,1.13-0.2,2.24-0.47,3.33c-0.16,0.62,0.81,0.89,0.96,0.27
					c0.32-1.27,0.5-2.58,0.52-3.9c0.01-0.66-0.03-1.32-0.11-1.98c-0.06-0.53-0.11-1.13-0.53-1.53c-0.76-0.73-1.95-0.32-2.53,0.41
					c-0.34,0.43-0.52,0.93-0.74,1.42c-0.19,0.42-0.44,0.93-0.91,1.1c0.21,0.12,0.41,0.23,0.62,0.35c-0.2-1.2-0.67-2.34-1.37-3.33
					c-0.26-0.37-0.75-0.29-0.91,0.12c-1.05,2.57-1.57,5.34-1.55,8.11C28.92,154.51,29.92,154.51,29.91,153.87L29.91,153.87z"/>
			</g>
		</g>
		<g>
			<g>
				<path class="st1" d="M38.82,146.67c-0.3,2.22-0.61,4.43-0.91,6.65c-0.05,0.39-0.13,0.81,0.15,1.14
					c0.35,0.41,0.87,0.23,1.32,0.14c1.1-0.23,2.2-0.46,3.3-0.69c0.41-0.08,0.43-0.57,0.22-0.84c-0.12-0.16-0.25-0.31-0.37-0.47
					c-0.17-0.21-0.53-0.17-0.71,0c-0.21,0.21-0.17,0.5,0,0.71c0.12,0.16,0.25,0.31,0.37,0.47c0.07-0.28,0.15-0.56,0.22-0.84
					c-0.91,0.19-1.82,0.38-2.73,0.57c-0.22,0.04-0.43,0.09-0.65,0.13c-0.03,0.01-0.36,0.05-0.36,0.07c0.06,0.05,0.12,0.11,0.18,0.16
					c0-0.03-0.01-0.05,0-0.08c0.08-0.11,0.05-0.44,0.07-0.58c0.03-0.24,0.07-0.49,0.1-0.73c0.25-1.85,0.51-3.7,0.76-5.55
					c0.04-0.27-0.07-0.53-0.35-0.62C39.2,146.25,38.85,146.4,38.82,146.67L38.82,146.67z"/>
			</g>
		</g>
		<g>
			<g>
				<path class="st1" d="M38.28,149.77c1.5,0.12,3,0.06,4.48-0.14c0.27-0.04,0.41-0.38,0.35-0.62c-0.08-0.29-0.35-0.39-0.62-0.35
					c-1.4,0.19-2.81,0.22-4.22,0.11c-0.27-0.02-0.5,0.25-0.5,0.5C37.78,149.56,38.01,149.75,38.28,149.77L38.28,149.77z"/>
			</g>
		</g>
		<g>
			<g>
				<path class="st1" d="M39.55,146.77c1.27-0.3,2.59-0.29,3.86,0.03c0.62,0.16,0.89-0.81,0.27-0.96c-1.44-0.36-2.95-0.37-4.39-0.03
					c-0.26,0.06-0.42,0.36-0.35,0.62C39.01,146.69,39.28,146.83,39.55,146.77L39.55,146.77z"/>
			</g>
		</g>
		<g>
			<g>
				<path class="st1" d="M2.44,170.18c-0.21-3.71-0.24-7.44-0.1-11.15c-0.21,0.16-0.42,0.32-0.63,0.48
					c1.04,0.23,2.07,0.48,3.09,0.77c0.48,0.13,0.95,0.27,1.43,0.42c0.27,0.08,0.54,0.17,0.81,0.25c0.13,0.04,0.27,0.09,0.4,0.13
					c0.19,0.12,0.27,0.01,0.21-0.35c-0.63,0.1-0.36,1.06,0.27,0.96c0.53-0.08,0.73-0.71,0.46-1.13c-0.32-0.5-1.17-0.61-1.69-0.77
					c-1.55-0.48-3.13-0.9-4.72-1.25c-0.32-0.07-0.62,0.15-0.63,0.48c-0.14,3.72-0.11,7.44,0.1,11.15
					C1.48,170.82,2.48,170.83,2.44,170.18L2.44,170.18z"/>
			</g>
		</g>
		<g>
			<g>
				<path class="st1" d="M2.74,164.55c1.56-0.47,3.21-0.48,4.77-0.04c0.62,0.18,0.88-0.79,0.27-0.96c-1.73-0.49-3.58-0.48-5.3,0.04
					C1.86,163.77,2.12,164.74,2.74,164.55L2.74,164.55z"/>
			</g>
		</g>
		<g>
			<g>
				<path class="st1" d="M8.64,162.06c-0.33,2-0.64,4.21,0.37,6.07c0.42,0.77,1.52,1.78,2.32,0.83c0.35-0.41,0.4-1.06,0.5-1.58
					c0.12-0.61,0.21-1.22,0.28-1.83c0.08-0.71,0.13-1.42,0.15-2.13c0.01-0.48-0.05-1.07,0.36-1.4c0.21-0.17,0.17-0.53,0-0.71
					c-0.21-0.21-0.5-0.17-0.71,0c-0.43,0.34-0.57,0.87-0.62,1.39c-0.06,0.62-0.04,1.26-0.09,1.89c-0.05,0.69-0.14,1.37-0.25,2.05
					c-0.05,0.32-0.12,0.63-0.18,0.95c-0.03,0.13-0.07,0.68-0.22,0.75c-0.13,0.05-0.37-0.24-0.43-0.33c-0.15-0.2-0.28-0.45-0.38-0.68
					c-0.21-0.5-0.33-1.04-0.37-1.58c-0.09-1.15,0.07-2.3,0.25-3.43c0.04-0.27-0.07-0.53-0.35-0.62
					C9.02,161.64,8.68,161.79,8.64,162.06L8.64,162.06z"/>
			</g>
		</g>
		<g>
			<g>
				<path class="st1" d="M13.89,169.25c-0.15-2.17-0.02-4.35,0.4-6.48c-0.16,0.12-0.32,0.24-0.48,0.37
					c0.28-0.01,0.38,0.73,0.43,0.91c0.14,0.56,0.29,1.13,0.43,1.69c0.29,1.13,0.58,2.25,0.86,3.38c0.13,0.49,0.82,0.46,0.96,0
					c0.37-1.17,0.44-2.39,0.47-3.61c0.02-0.6,0.02-1.21,0.06-1.81c0.02-0.3,0.04-0.6,0.08-0.9c0.02-0.14,0.04-0.28,0.06-0.41
					c0.02-0.09,0.03-0.18,0.05-0.27c0.09-0.19-0.03-0.25-0.34-0.2c0.27,0.58,1.13,0.08,0.86-0.5c-0.13-0.28-0.44-0.41-0.73-0.38
					c-0.36,0.04-0.6,0.31-0.71,0.65c-0.24,0.73-0.26,1.6-0.3,2.36c-0.07,1.61,0.01,3.24-0.48,4.8c0.32,0,0.64,0,0.96,0
					c-0.35-1.37-0.7-2.74-1.05-4.11c-0.22-0.86-0.39-2.67-1.64-2.6c-0.21,0.01-0.44,0.15-0.48,0.37c-0.44,2.22-0.59,4.49-0.44,6.75
					C12.93,169.88,13.93,169.89,13.89,169.25L13.89,169.25z"/>
			</g>
		</g>
		<g>
			<g>
				<path class="st1" d="M23.88,159.83c-1-1.1-2.46,0.37-3.19,1.08c-1,0.97-1.85,2.15-2.23,3.5c-0.61,2.14,0.03,5.48,2.73,5.68
					c1.26,0.09,2.39-0.69,2.78-1.88c0.2-0.61-0.77-0.88-0.96-0.27c-0.29,0.91-1.27,1.34-2.17,1.08c-1.1-0.32-1.55-1.63-1.61-2.66
					c-0.07-1.32,0.38-2.54,1.15-3.6c0.39-0.54,0.87-1.03,1.36-1.48c0.25-0.23,1.09-1.12,1.42-0.75
					C23.61,161.02,24.32,160.31,23.88,159.83L23.88,159.83z"/>
			</g>
		</g>
		<g>
			<g>
				<path class="st1" d="M22.72,163.16c1.9-0.63,3.8-1.26,5.69-1.89c0.61-0.2,0.35-1.17-0.27-0.96c-1.9,0.63-3.8,1.26-5.69,1.89
					C21.85,162.4,22.11,163.36,22.72,163.16L22.72,163.16z"/>
			</g>
		</g>
		<g>
			<g>
				<path class="st1" d="M25.79,162.29c-0.59,2.23-1.09,4.48-1.5,6.75c-0.07,0.37,0.35,0.86,0.73,0.56c0.26-0.2,0.52-0.39,0.77-0.59
					c0.22-0.17,0.32-0.43,0.18-0.68c-0.12-0.21-0.47-0.34-0.68-0.18c-0.26,0.2-0.52,0.39-0.77,0.59c0.24,0.19,0.49,0.38,0.73,0.56
					c0.4-2.27,0.9-4.52,1.5-6.75C26.92,161.93,25.95,161.67,25.79,162.29L25.79,162.29z"/>
			</g>
		</g>
		<g>
			<g>
				<path class="st1" d="M29.3,168.54c-0.34-2.17-0.19-4.41,0.42-6.52c0.18-0.62-0.79-0.88-0.96-0.27c-0.66,2.29-0.79,4.7-0.42,7.05
					c0.04,0.27,0.38,0.41,0.62,0.35C29.24,169.08,29.34,168.8,29.3,168.54L29.3,168.54z"/>
			</g>
		</g>
		<g>
			<g>
				<path class="st1" d="M31.86,164.03c-0.11-1.01,0.13-2.47,1.1-3.04c0.93-0.54,1.78,0.65,2.07,1.39c0.46,1.17,0.37,2.55-0.05,3.71
					c-0.32,0.88-1.22,2.23-2.34,1.8c-1.13-0.44-1.38-2.21-1.15-3.23c0.14-0.63-0.82-0.89-0.96-0.27c-0.32,1.41,0.03,3.28,1.28,4.17
					c1.4,1,3.05-0.06,3.77-1.36c0.77-1.39,0.99-3.21,0.54-4.74c-0.38-1.3-1.5-2.87-3.05-2.57c-1.72,0.33-2.37,2.65-2.2,4.14
					C30.93,164.66,31.93,164.67,31.86,164.03L31.86,164.03z"/>
			</g>
		</g>
		<g>
			<g>
				<path class="st1" d="M37.84,168.59c-0.18-2.64-0.02-5.29,0.49-7.89c-0.16,0.12-0.32,0.24-0.48,0.37
					c0.43-0.02,0.55,0.89,0.62,1.19c0.17,0.68,0.35,1.37,0.52,2.05c0.35,1.37,0.7,2.73,1.05,4.1c0.13,0.49,0.82,0.46,0.96,0
					c0.44-1.41,0.53-2.88,0.57-4.34c0.02-0.73,0.03-1.46,0.07-2.19c0.02-0.36,0.05-0.73,0.1-1.09c0.02-0.18,0.05-0.35,0.08-0.53
					c0.02-0.11,0.04-0.22,0.06-0.33c0.09-0.16,0.01-0.25-0.22-0.26c0.27,0.58,1.13,0.08,0.86-0.5c-0.37-0.79-1.34-0.35-1.55,0.3
					c-0.29,0.88-0.32,1.92-0.36,2.84c-0.09,1.96,0.01,3.95-0.58,5.85c0.32,0,0.64,0,0.96,0c-0.42-1.66-0.85-3.32-1.27-4.99
					c-0.25-0.98-0.44-3.15-1.88-3.08c-0.21,0.01-0.44,0.15-0.48,0.37c-0.53,2.68-0.72,5.42-0.53,8.15
					C36.88,169.23,37.88,169.24,37.84,168.59L37.84,168.59z"/>
			</g>
		</g>
	</g>
</g>
<g class="st2">
	<g class="st3">
		<g>
			<g>
				<path class="st4" d="M162.35,56.45c-0.14,0.17-0.28,0.33-0.42,0.5c0.28,0.07,0.56,0.15,0.84,0.22
					c-1.11-3.47-1.35-7.14-0.64-10.71c-0.28,0.07-0.56,0.15-0.84,0.22c0.27,0.24,0.55,0.47,0.82,0.71c0.49,0.42,1.2-0.29,0.71-0.71
					c-0.27-0.24-0.55-0.47-0.82-0.71c-0.26-0.22-0.76-0.18-0.84,0.22c-0.74,3.75-0.52,7.6,0.64,11.24c0.11,0.33,0.58,0.53,0.84,0.22
					c0.14-0.17,0.28-0.33,0.42-0.5C163.46,56.66,162.76,55.95,162.35,56.45L162.35,56.45z"/>
			</g>
		</g>
		<g>
			<g>
				<path class="st4" d="M164.35,48.74c1.43-0.49,2.87-0.98,4.3-1.48c0.69-0.24,1.4-0.46,2.09-0.72c0.5-0.19,1.09-0.82,0.54-1.32
					c-0.48-0.43-1.19,0.27-0.71,0.71c0.07-0.32,0.04-0.44-0.09-0.35c-0.05,0.01-0.09,0.03-0.14,0.05c-0.15,0.05-0.29,0.1-0.44,0.15
					c-0.25,0.09-0.51,0.17-0.76,0.26c-0.57,0.2-1.14,0.39-1.71,0.59c-1.12,0.38-2.23,0.77-3.35,1.15
					C163.48,47.98,163.74,48.95,164.35,48.74L164.35,48.74z"/>
			</g>
		</g>
		<g>
			<g>
				<path class="st4" d="M166.72,47.77c-0.48,2.03-0.97,4.07-1.45,6.1c-0.12,0.49-0.24,0.99-0.35,1.48
					c-0.09,0.37-0.26,0.81-0.13,1.19c0.26,0.77,1.37,0.67,1.47-0.14c0.07-0.64-0.93-0.63-1,0c0,0.02-0.01,0.05-0.01,0.07
					c0.05-0.12,0.1-0.24,0.15-0.35c0.24,0.18,0.36,0.17,0.37-0.01c0.02-0.08,0.04-0.16,0.06-0.25c0.04-0.16,0.08-0.33,0.12-0.49
					c0.09-0.36,0.17-0.71,0.26-1.07c0.16-0.69,0.33-1.37,0.49-2.06c0.33-1.4,0.67-2.8,1-4.2C167.84,47.41,166.87,47.14,166.72,47.77
					L166.72,47.77z"/>
			</g>
		</g>
		<g>
			<g>
				<path class="st4" d="M173.46,47.1c-2.13-0.1-4.41,1.6-4.12,3.89c0.14,1.04,0.76,1.97,1.63,2.55c0.45,0.31,0.95,0.45,1.47,0.61
					c0.43,0.13,0.9,0.37,0.54,0.85c-0.41,0.56-1.13,0.66-1.78,0.73c-0.72,0.08-1.42,0.15-2.09,0.47c-0.58,0.28-0.07,1.14,0.5,0.86
					c0.74-0.35,1.61-0.3,2.4-0.44c0.68-0.13,1.33-0.46,1.75-1.02c0.35-0.46,0.48-1.07,0.18-1.59c-0.35-0.61-1.06-0.76-1.68-0.95
					c-1.17-0.37-2.15-1.55-1.93-2.82c0.25-1.41,1.8-2.2,3.12-2.14C174.11,48.13,174.11,47.13,173.46,47.1L173.46,47.1z"/>
			</g>
		</g>
		<g>
			<g>
				<path class="st4" d="M187.5,46.44c-1.28,0.11-2.6,0.53-3.5,1.49c-0.78,0.83-1.12,2.06-0.71,3.14c0.46,1.24,1.65,1.71,2.84,2.01
					c0.62,0.16,1.26,0.27,1.8,0.62c0.38,0.24,0.99,0.79,0.71,1.3c-0.32,0.57-1.3,0.62-1.86,0.65c-0.92,0.06-1.83-0.02-2.72-0.22
					c0.04,0.3,0.08,0.61,0.12,0.91c0.23-0.12,0.47-0.24,0.7-0.36c0.57-0.3,0.07-1.16-0.5-0.86c-0.23,0.12-0.47,0.24-0.7,0.36
					c-0.38,0.2-0.29,0.82,0.12,0.91c1.38,0.32,2.97,0.46,4.35,0.06c1.17-0.34,1.99-1.43,1.31-2.6c-0.67-1.16-2-1.45-3.19-1.76
					c-0.61-0.16-1.28-0.34-1.71-0.82c-0.36-0.41-0.49-0.98-0.39-1.51c0.26-1.52,2-2.2,3.36-2.32
					C188.14,47.39,188.14,46.39,187.5,46.44L187.5,46.44z"/>
			</g>
		</g>
		<g>
			<g>
				<path class="st4" d="M192.02,47.63c-0.83,2.33-1.44,4.73-1.78,7.18c-0.06,0.44-0.15,0.93,0.11,1.33
					c0.29,0.45,0.83,0.51,1.32,0.41c1.13-0.22,2.24-0.71,3.22-1.29c0.55-0.33,0.05-1.19-0.5-0.86c-0.81,0.48-1.67,0.84-2.58,1.09
					c-0.1,0.03-0.53,0.19-0.63,0.11c-0.07-0.06,0-0.37,0-0.44c0.06-0.49,0.15-0.97,0.23-1.46c0.36-1.97,0.88-3.91,1.56-5.8
					C193.2,47.29,192.23,47.03,192.02,47.63L192.02,47.63z"/>
			</g>
		</g>
		<g>
			<g>
				<path class="st4" d="M196.24,53.95c0.22-0.86,0.66-1.64,1.28-2.28c0.32-0.33,0.66-0.61,1.05-0.85c0.36-0.23,0.81-0.49,1.26-0.44
					c0.4,0.04,0.58,0.44,0.68,0.78c0.12,0.39,0.16,0.8,0.1,1.2c-0.11,0.82-0.6,1.54-1.33,1.93c-0.79,0.42-1.82,0.47-2.61,0.03
					c-0.56-0.31-1.07,0.55-0.5,0.86c2.04,1.13,4.81-0.02,5.36-2.3c0.25-1.04,0.1-2.52-0.82-3.2c-1.09-0.81-2.53,0.1-3.4,0.82
					c-0.98,0.81-1.72,1.94-2.03,3.18C195.12,54.3,196.09,54.57,196.24,53.95L196.24,53.95z"/>
			</g>
		</g>
		<g>
			<g>
				<path class="st4" d="M204.69,56.72c-0.45-2.31-0.7-4.65-0.73-7c0-0.27-0.14-1.07,0.11-1.29c0.14-0.12,0.24,0.02,0.38,0.15
					c0.18,0.17,0.36,0.34,0.52,0.53c0.25,0.3,0.56,0.77,0.36,1.17c-0.14,0.28-0.52,0.55-0.83,0.4c-0.57-0.29-1.08,0.58-0.5,0.86
					c1.17,0.58,2.54-0.48,2.38-1.75c-0.09-0.71-0.56-1.29-1.05-1.77c-0.46-0.45-1.08-0.91-1.72-0.5c-0.54,0.34-0.64,1.02-0.64,1.6
					c-0.01,0.86,0.03,1.73,0.08,2.59c0.12,1.77,0.35,3.54,0.69,5.28C203.85,57.62,204.82,57.35,204.69,56.72L204.69,56.72z"/>
			</g>
		</g>
		<g>
			<g>
				<path class="st4" d="M209,48.87c-0.54,2.38-1.07,4.75-1.61,7.13c-0.1,0.44,0.34,0.76,0.73,0.56c1.26-0.62,2.63-0.96,4.03-0.99
					c0.32-0.01,0.57-0.31,0.48-0.63c-0.12-0.43-0.35-0.75-0.71-1.02c-0.22-0.16-0.56-0.03-0.68,0.18c-0.15,0.26-0.03,0.52,0.18,0.68
					c0.14,0.1,0.2,0.26,0.25,0.42c0.16-0.21,0.32-0.42,0.48-0.63c-1.58,0.03-3.11,0.42-4.53,1.13c0.24,0.19,0.49,0.38,0.73,0.56
					c0.54-2.38,1.07-4.75,1.61-7.13C210.11,48.51,209.15,48.25,209,48.87L209,48.87z"/>
			</g>
		</g>
		<g>
			<g>
				<path class="st4" d="M209.44,52.37c1.13-0.37,2.3-0.52,3.48-0.46c0.27,0.01,0.5-0.24,0.5-0.5c0-0.28-0.23-0.49-0.5-0.5
					c-1.26-0.07-2.55,0.1-3.75,0.49c-0.26,0.08-0.42,0.35-0.35,0.62C208.9,52.27,209.18,52.45,209.44,52.37L209.44,52.37z"/>
			</g>
		</g>
		<g>
			<g>
				<path class="st4" d="M209.13,49.42c1.71-0.31,3.41-0.62,5.12-0.93c0.27-0.05,0.42-0.37,0.35-0.62c-0.08-0.28-0.35-0.4-0.62-0.35
					c-1.71,0.31-3.41,0.62-5.12,0.93c-0.27,0.05-0.42,0.37-0.35,0.62C208.6,49.35,208.87,49.46,209.13,49.42L209.13,49.42z"/>
			</g>
		</g>
	</g>
	<g class="st3">
		<g>
			<g>
				<path class="st4" d="M63.16,2.52c0.98,6.57,1.97,13.15,2.95,19.72c0.97,6.48,1.81,13.01,3.36,19.39
					c0.71,2.93,1.67,5.78,2.41,8.7c0.72,2.85,1.34,5.72,2.07,8.56c1.52,5.97,3.89,11.68,6.08,17.42c2.28,5.98,4.57,11.95,6.74,17.97
					c1.85,5.15,3.99,10.19,6.89,14.84c2.78,4.47,6.21,8.58,10.39,11.81c2.24,1.73,4.67,3.25,7.34,4.22
					c2.94,1.06,6.05,1.19,9.12,0.78c3.1-0.42,6.14-1.28,9.11-2.24c2.84-0.91,5.66-2.03,8.21-3.6c4.48-2.75,8.01-6.73,10.94-11.05
					c3.2-4.71,5.75-9.82,8.41-14.84c3.12-5.89,6.24-11.78,9.36-17.67c2.3-4.35,4.71-8.85,8.38-12.22c3.65-3.34,8.48-4.7,13.21-2.93
					c4.69,1.75,8.35,5.94,10.33,10.44c2.38,5.39,3.17,11.32,6.59,16.25c2.92,4.21,7,7.55,11.55,9.88c3.61,1.85,7.27,2.88,11.27,3.39
					c8.56,1.08,17.23,0.93,25.83,1.44c1.5,0.09,3.01,0.19,4.5,0.4c1.26,0.18,1.8-1.75,0.53-1.93c-3.54-0.5-7.12-0.59-10.69-0.73
					c-4.46-0.17-8.91-0.3-13.36-0.58c-3.72-0.23-7.52-0.47-11.15-1.39c-4.6-1.17-9.07-3.71-12.6-6.85
					c-1.92-1.71-3.62-3.67-4.96-5.87c-1.51-2.47-2.45-5.19-3.31-7.94c-0.87-2.79-1.69-5.63-3.03-8.24
					c-1.15-2.23-2.68-4.29-4.48-6.03c-3.46-3.32-8.16-5.58-13.04-4.95c-4.77,0.61-8.6,3.7-11.49,7.39
					c-3.31,4.24-5.65,9.15-8.15,13.88c-3.1,5.85-6.2,11.71-9.3,17.56c-2.48,4.67-5.01,9.39-8.32,13.53c-3.52,4.4-7.82,7.78-13.1,9.8
					c-2.84,1.09-5.79,1.96-8.76,2.62c-3.14,0.7-6.45,1.05-9.6,0.22c-5.33-1.4-9.97-5.38-13.52-9.46
					c-7.55-8.66-10.79-19.71-14.77-30.25c-2.26-5.98-4.57-11.94-6.8-17.93c-2.03-5.45-3.15-11.11-4.59-16.73
					c-0.75-2.94-1.72-5.81-2.41-8.76c-0.74-3.14-1.31-6.32-1.82-9.51c-1.03-6.45-1.95-12.93-2.92-19.39
					c-0.48-3.22-0.96-6.45-1.45-9.67C64.9,0.72,62.97,1.26,63.16,2.52L63.16,2.52z"/>
			</g>
		</g>
		<g>
			<g>
				<path class="st4" d="M60.74,15.47c0.77-4.56,2.29-8.95,4.53-13c-0.58,0-1.15,0-1.73,0c2.31,3.2,4.69,6.35,7.14,9.44
					c0.34,0.42,1.06,0.35,1.41,0c0.42-0.42,0.34-0.99,0-1.41c-2.34-2.96-4.62-5.97-6.82-9.04c-0.42-0.58-1.34-0.71-1.73,0
					c-2.32,4.19-3.93,8.76-4.74,13.48c-0.09,0.53,0.14,1.08,0.7,1.23C59.99,16.3,60.65,16.01,60.74,15.47L60.74,15.47z"/>
			</g>
		</g>
		<g>
			<g>
				<path class="st4" d="M252.35,96.66c2.27,1.75,4.3,3.81,5.99,6.13c0.05-0.4,0.1-0.81,0.16-1.21c-2.66,2.27-5.22,4.65-7.7,7.11
					c-0.65,0.65-0.13,1.64,0.71,1.71c0.78,0.06,1.51-0.37,1.89-1.04c0.63-1.13-1.1-2.14-1.73-1.01c-0.08,0.14,0.06,0.07-0.16,0.05
					c0.24,0.57,0.47,1.14,0.71,1.71c2.48-2.47,5.04-4.84,7.7-7.11c0.31-0.26,0.4-0.88,0.16-1.21c-1.79-2.47-3.89-4.67-6.3-6.53
					c-0.43-0.33-1-0.42-1.41,0C252.01,95.59,251.92,96.33,252.35,96.66L252.35,96.66z"/>
			</g>
		</g>
	</g>
</g>
</svg>
