<?xml version="1.0" encoding="utf-8"?>
<!-- Generator: Adobe Illustrator 23.1.1, SVG Export Plug-In . SVG Version: 6.00 Build 0)  -->
<svg version="1.1" id="Layer_1" xmlns="http://www.w3.org/2000/svg" xmlns:xlink="http://www.w3.org/1999/xlink" x="0px" y="0px"
	 viewBox="0 0 432 216" style="enable-background:new 0 0 432 216;" xml:space="preserve">
<style type="text/css">
	.st0{fill:#ED1C24;}
	.st1{fill:#939598;}
	.st2{fill:none;stroke:#000000;stroke-width:2;stroke-miterlimit:10;}
</style>
<g>
	<g>
		<g>
			<path class="st0" d="M255.73,142.35c1.75-10.32,3.67-20.68,7.03-30.62c1.6-4.72,3.54-9.32,6.01-13.65
				c2.21-3.87,5.1-8.21,9.71-9.33c4.5-1.09,9.13,1.23,12.71,3.75c4,2.81,7.35,6.44,11.06,9.61c3.67,3.14,7.73,5.95,12.53,6.98
				c4.7,1.01,9.61,0.44,14.08-1.26c4.44-1.7,8.33-4.37,11.94-7.44c2.33-1.98,4.3-4.24,5.92-6.83c4.74-7.6,8.78-15.58,12.65-23.64
				c1.47-3.07,2.99-6.15,5.05-8.87c0.06-0.08,0.12-0.16,0.18-0.24c0.12-0.16-0.16,0.21-0.03,0.04c0.04-0.05,0.07-0.09,0.11-0.14
				c0.19-0.24,0.38-0.48,0.57-0.71c0.43-0.53,0.88-1.05,1.33-1.55c1.21-1.34,2.49-2.61,3.85-3.8c3.28-2.86,7.11-5.22,11.3-6.47
				c3.61-1.08,7.29-0.85,10.98-1.29c4.41-0.53,8.5-2.28,12.31-4.52c4.06-2.39,7.37-5.77,9.75-9.83c3.94-6.71,5.49-14.66,5.87-22.35
				c0.05-1.1,0.08-2.21,0.08-3.32c0-1.93-3-1.93-3,0c-0.01,6.58-0.89,13.25-3.26,19.42c-1.6,4.15-4.02,8.03-7.39,10.96
				c-1.57,1.37-3.35,2.46-5.19,3.43c-1.98,1.04-3.99,1.99-6.15,2.59c-3.53,0.98-7.15,0.71-10.75,1.18
				c-4.58,0.6-8.91,2.44-12.72,5.03c-5.47,3.72-10.14,8.77-13.3,14.59c-1.94,3.58-3.57,7.31-5.36,10.96
				c-2.23,4.52-4.76,8.86-7.25,13.23c-1.5,2.63-2.97,5.29-4.89,7.38c-2.63,2.87-5.92,5.39-9.29,7.32
				c-4.02,2.31-8.58,3.78-13.25,3.63c-4.72-0.14-8.89-2.16-12.58-5c-7.54-5.81-14-14.92-24.17-16.02
				c-10.51-1.14-16.17,10.26-19.62,18.35c-4.09,9.58-6.46,19.78-8.36,29.99c-0.47,2.54-0.91,5.08-1.35,7.63
				c-0.14,0.8,0.21,1.62,1.05,1.85C254.6,143.59,255.59,143.15,255.73,142.35L255.73,142.35z"/>
		</g>
	</g>
	<g>
		<g>
			<path class="st0" d="M410.51,13.87c-0.02,0-0.04,0.01-0.06,0.01c-0.76,0.18-1.3,1.09-1.05,1.85c0.37,1.13,1.65,1.63,2.64,0.92
				c0.55-0.39,1.01-0.96,1.44-1.48c0.93-1.15,1.72-2.39,2.44-3.67c1.41-2.54,2.59-5.22,4.32-7.56c-0.86,0-1.73,0-2.59,0
				c1.5,2.07,2.42,4.44,3.17,6.87c0.84,2.74,1.51,5.54,2.23,8.31c0.48,1.87,3.38,1.08,2.89-0.8c-0.74-2.84-1.42-5.71-2.29-8.52
				c-0.8-2.58-1.81-5.18-3.4-7.38c-0.7-0.97-1.89-0.95-2.59,0c-1.46,1.98-2.53,4.2-3.67,6.37c-1.09,2.05-2.2,4.07-3.91,5.63
				c0.22-0.13,0.44-0.26,0.66-0.39c-0.03,0.01-0.06,0.02-0.1,0.03c0.27,0,0.53,0,0.8,0c-0.03-0.01-0.06-0.03-0.1-0.04
				c0.22,0.13,0.44,0.26,0.66,0.39c-0.02-0.02-0.05-0.05-0.07-0.07c0.13,0.22,0.26,0.44,0.39,0.66c-0.01-0.02-0.01-0.04-0.02-0.06
				c-0.35,0.62-0.7,1.23-1.05,1.85c0.02,0,0.04-0.01,0.06-0.01C413.18,16.32,412.38,13.42,410.51,13.87L410.51,13.87z"/>
		</g>
	</g>
	<g>
		<g>
			<path class="st0" d="M247.91,128.64c1.58,5.56,3.37,11.07,5.36,16.5c0.47,1.29,1.95,1.4,2.74,0.36c3.03-4,6.89-7.39,11.39-9.65
				c-0.75-0.43-1.5-0.86-2.26-1.3c-0.01-0.01-0.02-0.02-0.04-0.03c0.13-0.22,0.26-0.44,0.39-0.66c0.02-0.01,0.04-0.01,0.06-0.02
				c-1.66,0.99-0.15,3.58,1.51,2.59c0.72-0.43,0.99-1.08,1.08-1.89c0.12-1.22-1.34-1.75-2.26-1.3c-4.98,2.49-9.12,6.31-12.47,10.72
				c0.91,0.12,1.83,0.24,2.74,0.36c-1.99-5.43-3.78-10.93-5.36-16.5C250.28,125.99,247.38,126.78,247.91,128.64L247.91,128.64z"/>
		</g>
	</g>
</g>
<g>
	<g>
		<g>
			<path d="M282.62,161.46c-4.43,0.62-8.59,2.6-11.98,5.5c-1.69,1.45-3.17,3.14-4.39,5.01c-1.15,1.76-2.97,4.59-0.96,6.41
				c0.88,0.79,2.09,1.11,3.21,1.39c1.32,0.33,2.66,0.54,4.01,0.69c2.74,0.3,5.49,0.27,8.24,0.23c1.38-0.02,2.77-0.05,4.15-0.03
				c0.86,0.02,1.92,0.09,2.14,1.1c0.42,1.94-1.49,3.89-2.87,4.95c-2.06,1.58-4.58,2.46-7.08,3.08c-1.49,0.37-3,0.64-4.53,0.79
				c-0.79,0.08-1.58,0.13-2.37,0.15c-0.23,0.01-0.45,0.01-0.68-0.04c-0.08-0.02-0.16-0.05-0.24-0.07c-0.19-0.04-0.04-0.08-0.01,0.15
				c-0.07-0.54-0.41-1-1-1c-0.48,0-1.07,0.46-1,1c0.17,1.27,1.16,1.85,2.37,1.95c1.31,0.12,2.7-0.09,4-0.26
				c2.68-0.35,5.37-0.95,7.87-1.99c2.2-0.91,4.31-2.18,5.83-4.05c1.33-1.63,2.48-4.12,1.25-6.14c-0.67-1.09-1.88-1.5-3.1-1.59
				c-1.37-0.11-2.77-0.03-4.14-0.01c-2.83,0.04-5.66,0.1-8.48-0.18c-1.44-0.14-2.87-0.39-4.27-0.77c-0.7-0.19-2.24-0.48-2.21-1.46
				c0.02-0.56,0.36-1.12,0.62-1.61c0.28-0.52,0.57-1.03,0.89-1.53c0.61-0.95,1.29-1.84,2.04-2.68c3.44-3.82,8.14-6.35,13.23-7.06
				c0.54-0.07,0.83-0.76,0.7-1.23C283.69,161.58,283.16,161.39,282.62,161.46L282.62,161.46z"/>
		</g>
	</g>
	<g>
		<g>
			<path d="M294.07,164.44c-0.61,4.34-0.99,8.7-1.1,13.08c-0.06,2.16-0.05,4.33,0.02,6.5c0.07,2.06,0.11,4.2,0.82,6.16
				c0.19,0.52,0.67,0.83,1.23,0.7c0.7-0.16,1.17-0.66,1.38-1.33c0.4-1.23-1.53-1.75-1.93-0.53c0.11-0.07,0.11-0.09,0.01-0.07
				c0.41,0.23,0.82,0.47,1.23,0.7c-0.68-1.88-0.7-3.9-0.76-5.87c-0.06-2.08-0.07-4.17-0.02-6.25c0.11-4.2,0.45-8.39,1.03-12.55
				c0.08-0.53-0.13-1.07-0.7-1.23C294.83,163.61,294.14,163.9,294.07,164.44L294.07,164.44z"/>
		</g>
	</g>
	<g>
		<g>
			<path d="M301.57,183.86c0.12-0.78,0.32-1.55,0.63-2.27c0.28-0.66,0.66-1.44,1.18-1.95c0.14-0.14,0.2-0.21,0.34-0.17
				c0.19,0.05,0.39,0.33,0.5,0.5c0.44,0.65,0.72,1.41,0.92,2.16c0.37,1.42,0.47,3.23-0.15,4.6c-0.49,1.07-1.71,1.12-2.68,0.66
				c-1.44-0.68-2.13-2.4-2.71-3.77c-0.21-0.5-0.66-0.85-1.23-0.7c-0.47,0.13-0.91,0.73-0.7,1.23c0.77,1.83,1.64,3.86,3.46,4.88
				c1.61,0.9,3.9,0.91,5.15-0.62c0.73-0.9,0.96-2.06,1.08-3.18c0.12-1.08,0.04-2.18-0.19-3.24c-0.38-1.75-1.52-4.84-3.81-4.51
				c-1.23,0.18-1.98,1.38-2.52,2.39c-0.59,1.08-0.99,2.25-1.18,3.46c-0.08,0.53,0.14,1.08,0.7,1.23
				C300.81,184.69,301.48,184.39,301.57,183.86L301.57,183.86z"/>
		</g>
	</g>
	<g>
		<g>
			<path d="M312.43,180.32c-1.58,7.9-2.67,15.9-3.28,23.93c-0.1,1.28,1.9,1.28,2,0c0.6-7.86,1.67-15.67,3.21-23.4
				C314.61,179.59,312.68,179.06,312.43,180.32L312.43,180.32z"/>
		</g>
	</g>
	<g>
		<g>
			<path d="M315.24,179.78c0.87-0.64,1.9-0.68,2.89-0.25c1.03,0.44,1.74,1.41,2.04,2.52c0.33,1.2,0.25,2.53-0.19,3.7
				c-0.42,1.11-1.29,1.72-2.36,1.88c-1.29,0.19-2.69-0.19-3.93-0.71c-0.5-0.21-1.1,0.23-1.23,0.7c-0.16,0.58,0.2,1.02,0.7,1.23
				c2.84,1.19,6.89,1.36,8.45-1.86c1.44-2.98,0.9-7.41-2.26-9.08c-1.58-0.83-3.63-0.94-5.13,0.15c-0.44,0.32-0.65,0.87-0.36,1.37
				C314.12,179.85,314.8,180.1,315.24,179.78L315.24,179.78z"/>
		</g>
	</g>
	<g>
		<g>
			<path d="M328.22,182.53c2.41-0.96,5.2-2.38,5.17-5.38c-0.01-1.25-0.65-2.46-1.82-3c-1.29-0.6-2.84-0.35-3.98,0.46
				c-2.21,1.57-3.25,4.63-3.5,7.23c-0.26,2.77,0.55,5.61,2.38,7.72c1.89,2.18,4.85,3.51,7.75,3.19c0.54-0.06,1-0.42,1-1
				c0-0.49-0.46-1.06-1-1c-4.04,0.45-7.53-2.69-8.1-6.6c-0.3-2.06,0.13-4.25,1.12-6.07c0.44-0.82,1.04-1.71,1.93-2.09
				c0.71-0.3,1.77-0.25,2.1,0.57c0.33,0.81-0.07,1.78-0.64,2.36c-0.8,0.82-1.91,1.27-2.96,1.68c-0.5,0.2-0.85,0.67-0.7,1.23
				C327.12,182.31,327.72,182.73,328.22,182.53L328.22,182.53z"/>
		</g>
	</g>
	<g>
		<g>
			<path d="M346.19,175.43c3.91,0.16,7.8,0.49,11.68,0.96c0.54,0.07,1-0.51,1-1c0-0.6-0.46-0.93-1-1c-3.88-0.48-7.78-0.8-11.68-0.96
				C344.91,173.38,344.91,175.38,346.19,175.43L346.19,175.43z"/>
		</g>
	</g>
	<g>
		<g>
			<path d="M347.09,183.65c2.43-0.02,4.75,0.43,7.04,1.23c1.96,0.69,4.57,1.04,5.78-1.11c0.63-1.12-1.09-2.13-1.73-1.01
				c-0.9,1.6-3.58,0.13-4.78-0.23c-2.04-0.61-4.18-0.9-6.31-0.88C345.8,181.66,345.8,183.66,347.09,183.65L347.09,183.65z"/>
		</g>
	</g>
	<g>
		<g>
			<path d="M374.16,166.16c2.3-0.69,4.75-0.76,7.08-0.16c1.47,0.38,4.27,1.28,4.16,3.24c-0.1,1.87-2.52,2.66-4.02,2.94
				c-2.13,0.39-4.81,0.45-6.37,2.19c-1,1.11-0.68,2.48-0.39,3.8c0.31,1.45,0.71,2.87,1.18,4.28c0.4,1.22,2.34,0.69,1.93-0.53
				c-0.44-1.33-0.82-2.68-1.13-4.05c-0.12-0.52-0.37-1.2-0.3-1.74c0.06-0.5,0.59-0.77,1-0.98c2.12-1.08,4.68-0.73,6.85-1.72
				c1.94-0.89,3.64-2.78,3.17-5.05c-0.47-2.29-2.88-3.5-4.91-4.13c-2.84-0.88-5.93-0.86-8.78-0.02
				C372.4,164.59,372.92,166.53,374.16,166.16L374.16,166.16z"/>
		</g>
	</g>
	<g>
		<g>
			<path d="M376.71,191.7c-0.01-0.05-0.02-0.1-0.03-0.15c0.01,0.09,0.02,0.18,0.04,0.27c-0.01-0.11-0.01-0.23,0-0.34
				c-0.01,0.09-0.02,0.18-0.04,0.27c0.02-0.13,0.05-0.25,0.1-0.37c-0.03,0.08-0.07,0.16-0.1,0.24c0.05-0.11,0.1-0.2,0.17-0.3
				c-0.05,0.07-0.1,0.13-0.16,0.2c0.02-0.03,0.05-0.06,0.07-0.09c-0.47,0-0.94,0-1.41,0c0.03,0.03,0.05,0.05,0.07,0.08
				c-0.05-0.07-0.1-0.13-0.16-0.2c0.05,0.06,0.09,0.13,0.12,0.21c-0.03-0.08-0.07-0.16-0.1-0.24c0.03,0.08,0.06,0.17,0.07,0.26
				c-0.01-0.09-0.02-0.18-0.04-0.27c0.01,0.11,0.01,0.22,0,0.33c0.01-0.09,0.02-0.18,0.04-0.27c-0.02,0.11-0.05,0.21-0.09,0.32
				c0.03-0.08,0.07-0.16,0.1-0.24c-0.04,0.1-0.1,0.19-0.16,0.28c0.05-0.07,0.1-0.13,0.16-0.2c-0.06,0.07-0.12,0.13-0.19,0.19
				c0.07-0.05,0.13-0.1,0.2-0.16c-0.07,0.05-0.13,0.09-0.21,0.12c0.08-0.03,0.16-0.07,0.24-0.1c-0.05,0.02-0.1,0.04-0.16,0.05
				c0.41,0.23,0.82,0.47,1.23,0.7c-0.02-0.05-0.03-0.1-0.04-0.15c0.01,0.09,0.02,0.18,0.04,0.27c-0.01-0.09-0.01-0.17,0-0.25
				c-0.01,0.09-0.02,0.18-0.04,0.27c0.01-0.1,0.04-0.19,0.08-0.28c-0.03,0.08-0.07,0.16-0.1,0.24c0.04-0.08,0.08-0.15,0.13-0.22
				c-0.05,0.07-0.1,0.13-0.16,0.2c0.05-0.07,0.11-0.13,0.18-0.18c-0.07,0.05-0.13,0.1-0.2,0.16c0.06-0.05,0.12-0.08,0.19-0.11
				c-0.08,0.03-0.16,0.07-0.24,0.1c0.08-0.03,0.16-0.06,0.25-0.07c-0.09,0.01-0.18,0.02-0.27,0.04c0.07-0.01,0.15-0.01,0.22,0
				c-0.09-0.01-0.18-0.02-0.27-0.04c0.1,0.01,0.19,0.04,0.28,0.08c-0.08-0.03-0.16-0.07-0.24-0.1c0.08,0.04,0.15,0.08,0.22,0.13
				c-0.07-0.05-0.13-0.1-0.2-0.16c0.07,0.05,0.13,0.11,0.18,0.18c-0.05-0.07-0.1-0.13-0.16-0.2c0.05,0.07,0.09,0.14,0.13,0.22
				c-0.03-0.08-0.07-0.16-0.1-0.24c0.01,0.03,0.02,0.06,0.03,0.09c0.09-0.32,0.17-0.65,0.26-0.97c-0.05,0.06-0.11,0.11-0.17,0.15
				c0.07-0.05,0.13-0.1,0.2-0.16c-0.09,0.07-0.19,0.12-0.29,0.17c0.08-0.03,0.16-0.07,0.24-0.1c-0.12,0.05-0.25,0.08-0.38,0.1
				c0.09-0.01,0.18-0.02,0.27-0.04c-0.14,0.02-0.29,0.02-0.43,0c0.09,0.01,0.18,0.02,0.27,0.04c-0.15-0.02-0.3-0.06-0.44-0.12
				c0.08,0.03,0.16,0.07,0.24,0.1c-0.12-0.05-0.24-0.12-0.34-0.2c0.07,0.05,0.13,0.1,0.2,0.16c-0.09-0.07-0.17-0.15-0.24-0.24
				c0.05,0.07,0.1,0.13,0.16,0.2c-0.05-0.06-0.09-0.13-0.12-0.19c-0.2,0.49-0.4,0.98-0.6,1.47c0.47-0.17,0.95-0.34,1.42-0.51
				c0.25-0.09,0.46-0.23,0.6-0.46c0.13-0.21,0.18-0.53,0.1-0.77c-0.08-0.24-0.23-0.48-0.46-0.6c-0.23-0.12-0.52-0.19-0.77-0.1
				c-0.47,0.17-0.95,0.34-1.42,0.51c-0.3,0.11-0.52,0.28-0.65,0.58c-0.13,0.3-0.1,0.6,0.05,0.89c0.3,0.57,0.86,0.97,1.47,1.15
				c0.27,0.08,0.56,0.12,0.84,0.11c0.38-0.02,0.69-0.1,1.03-0.25c0.25-0.11,0.48-0.28,0.67-0.48c0.26-0.29,0.35-0.64,0.24-1.02
				c-0.04-0.12-0.09-0.24-0.15-0.36c-0.09-0.17-0.22-0.34-0.36-0.46c-0.63-0.58-1.54-0.74-2.31-0.33c-0.79,0.42-1.21,1.45-0.94,2.3
				c0.17,0.53,0.68,0.82,1.23,0.7c0.72-0.16,1.26-0.78,1.46-1.46c0.21-0.71,0.04-1.5-0.48-2.03c-0.36-0.37-1.06-0.4-1.41,0
				c-0.55,0.61-0.76,1.41-0.58,2.21c0.12,0.51,0.73,0.86,1.23,0.7C376.55,192.76,376.83,192.25,376.71,191.7L376.71,191.7z"/>
		</g>
	</g>
	<g>
		<g>
			<path d="M396.69,165.14c2.91-0.31,6.16,2.09,4.99,5.24c-1.22,3.29-4.97,3.44-7.94,3.42c-0.59,0-1.21,0.65-0.96,1.27
				c0.9,2.28,1.51,4.69,1.74,7.14c0.09,0.94-0.07,2.69,1.32,2.69c1.14,0,1.52-1.63,0.58-2.2c-0.3-0.18-0.71-0.18-1.01,0
				c-0.02,0.01-0.04,0.02-0.06,0.03c-1.1,0.67-0.09,2.4,1.01,1.73c0.02-0.01,0.04-0.02,0.06-0.03c-0.34,0-0.67,0-1.01,0
				c0.01,0.01,0.02,0.01,0.03,0.02c-0.15-0.2-0.31-0.4-0.46-0.6c0.01-0.16,0.03-0.33,0.04-0.49c0.12-0.12,0.24-0.24,0.36-0.36
				c-0.02,0.01-0.04,0.02-0.06,0.03c0.26-0.03,0.51-0.07,0.77-0.1c-0.02-0.01-0.05-0.01-0.07-0.02c0.15,0.09,0.29,0.17,0.44,0.26
				c-0.03-0.03-0.06-0.07-0.1-0.1c0.09,0.15,0.17,0.29,0.26,0.44c-0.09-0.24-0.06-0.57-0.08-0.84c-0.03-0.39-0.07-0.77-0.11-1.16
				c-0.1-0.82-0.22-1.64-0.39-2.44c-0.32-1.55-0.77-3.06-1.35-4.53c-0.32,0.42-0.64,0.84-0.96,1.27c2.16,0.02,4.37-0.03,6.36-0.97
				c1.74-0.81,3.09-2.41,3.62-4.26c1.22-4.23-2.97-7.86-7.03-7.43c-0.54,0.06-1,0.42-1,1C395.69,164.64,396.15,165.2,396.69,165.14
				L396.69,165.14z"/>
		</g>
	</g>
	<g>
		<g>
			<path d="M396.51,190.77c-0.01-0.11-0.01-0.22,0.01-0.33c-0.01,0.09-0.02,0.18-0.04,0.27c0.02-0.14,0.06-0.27,0.11-0.4
				c-0.03,0.08-0.07,0.16-0.1,0.24c0.06-0.13,0.12-0.24,0.21-0.35c-0.05,0.07-0.1,0.13-0.16,0.2c0.08-0.1,0.16-0.18,0.26-0.26
				c-0.07,0.05-0.13,0.1-0.2,0.16c0.03-0.02,0.07-0.05,0.1-0.07c-0.49-0.2-0.98-0.4-1.47-0.6c0.01,0.03,0.01,0.07,0.01,0.1
				c-0.01-0.09-0.02-0.18-0.04-0.27c0.08,0.6,0.08,1.21,0,1.81c0.01-0.09,0.02-0.18,0.04-0.27c-0.04,0.29-0.1,0.58-0.17,0.86
				c0.61-0.08,1.22-0.16,1.83-0.24c-0.02-0.04-0.04-0.08-0.06-0.12c0.03,0.08,0.07,0.16,0.1,0.24c-0.05-0.12-0.09-0.25-0.11-0.38
				c0.01,0.09,0.02,0.18,0.04,0.27c-0.02-0.13-0.02-0.26,0-0.4c-0.01,0.09-0.02,0.18-0.04,0.27c0.02-0.13,0.05-0.26,0.1-0.38
				c-0.03,0.08-0.07,0.16-0.1,0.24c0.02-0.04,0.04-0.08,0.06-0.12c0.12-0.24,0.17-0.51,0.1-0.77c-0.06-0.23-0.24-0.48-0.46-0.6
				c-0.46-0.24-1.11-0.14-1.37,0.36c-0.4,0.77-0.4,1.64,0.01,2.41c0.19,0.35,0.62,0.53,1,0.48c0.39-0.05,0.73-0.33,0.83-0.72
				c0.14-0.54,0.23-1.09,0.26-1.65c0.03-0.56-0.02-1.11-0.1-1.66c-0.04-0.3-0.32-0.54-0.58-0.65c-0.28-0.12-0.63-0.12-0.89,0.05
				c-0.75,0.49-1.26,1.36-1.18,2.27c0.02,0.27,0.1,0.51,0.29,0.71c0.17,0.17,0.46,0.3,0.71,0.29c0.26-0.01,0.53-0.1,0.71-0.29
				C396.39,191.29,396.53,191.03,396.51,190.77L396.51,190.77z"/>
		</g>
	</g>
	<g>
		<g>
			<path d="M411.09,164.55c1.95,0,4.02-0.03,5.85,0.74c1.38,0.58,2.69,1.68,2.95,3.23c0.24,1.47-0.51,2.73-1.94,3.14
				c-0.81,0.23-1.66,0.27-2.5,0.33c-1.1,0.08-2.21,0.16-3.31,0.25c-0.76,0.06-1.24,0.81-0.86,1.5c1.57,2.89,2.14,6.18,1.72,9.44
				c0.67,0,1.33,0,2,0c0.02-0.27,0.04-0.53,0.07-0.8c0.11-1.28-1.9-1.28-2,0c-0.02,0.27-0.04,0.53-0.07,0.8c-0.04,0.54,0.49,1,1,1
				c0.6,0,0.93-0.46,1-1c0.46-3.6-0.26-7.27-1.99-10.45c-0.29,0.5-0.58,1-0.86,1.5c1.89-0.14,3.83-0.16,5.69-0.5
				c1.65-0.3,3.09-1.21,3.74-2.81c0.58-1.43,0.43-3.12-0.31-4.47c-0.81-1.48-2.24-2.49-3.78-3.1c-2.01-0.8-4.25-0.81-6.38-0.81
				C409.8,162.55,409.8,164.55,411.09,164.55L411.09,164.55z"/>
		</g>
	</g>
	<g>
		<g>
			<path d="M414.46,191.37c-0.01-0.11-0.01-0.22,0.01-0.33c-0.01,0.09-0.02,0.18-0.04,0.27c0.02-0.14,0.06-0.27,0.11-0.4
				c-0.03,0.08-0.07,0.16-0.1,0.24c0.06-0.13,0.12-0.24,0.21-0.35c-0.05,0.07-0.1,0.13-0.16,0.2c0.08-0.1,0.16-0.18,0.26-0.26
				c-0.07,0.05-0.13,0.1-0.2,0.16c0.03-0.02,0.07-0.05,0.1-0.07c-0.49-0.2-0.98-0.4-1.47-0.6c0.01,0.03,0.01,0.07,0.01,0.1
				c-0.01-0.09-0.02-0.18-0.04-0.27c0.08,0.6,0.08,1.21,0,1.81c0.01-0.09,0.02-0.18,0.04-0.27c-0.04,0.29-0.1,0.58-0.17,0.86
				c0.61-0.08,1.22-0.16,1.83-0.24c-0.02-0.04-0.04-0.08-0.06-0.12c0.03,0.08,0.07,0.16,0.1,0.24c-0.05-0.12-0.09-0.25-0.11-0.38
				c0.01,0.09,0.02,0.18,0.04,0.27c-0.02-0.13-0.02-0.26,0-0.4c-0.01,0.09-0.02,0.18-0.04,0.27c0.02-0.13,0.05-0.26,0.1-0.38
				c-0.03,0.08-0.07,0.16-0.1,0.24c0.02-0.04,0.04-0.08,0.06-0.12c0.12-0.24,0.17-0.51,0.1-0.77c-0.06-0.23-0.24-0.48-0.46-0.6
				c-0.46-0.24-1.11-0.14-1.37,0.36c-0.4,0.77-0.4,1.64,0.01,2.41c0.19,0.35,0.62,0.53,1,0.48c0.39-0.05,0.73-0.33,0.83-0.72
				c0.14-0.54,0.23-1.09,0.26-1.65c0.03-0.56-0.02-1.11-0.1-1.66c-0.04-0.3-0.32-0.54-0.58-0.65c-0.28-0.12-0.63-0.12-0.89,0.05
				c-0.75,0.49-1.26,1.36-1.18,2.27c0.02,0.27,0.1,0.51,0.29,0.71c0.17,0.17,0.46,0.3,0.71,0.29c0.26-0.01,0.53-0.1,0.71-0.29
				C414.33,191.89,414.48,191.63,414.46,191.37L414.46,191.37z"/>
		</g>
	</g>
</g>
<g>
	<g>
		<g>
			<path class="st1" d="M44.98,5.68c0.66,16.45,1.1,32.91,1.31,49.37c0.21,16.38,0.18,32.76-0.06,49.14
				c-0.07,4.57-0.16,9.14-0.26,13.72c-0.04,1.82,0.07,3.72-0.2,5.53c-0.1,0.65-0.22,1.31-0.38,1.95c-0.1,0.41-0.18,1.06-0.44,1.38
				c-0.39,0.5,0.31,1.21,0.71,0.71c0.59-0.76,0.73-1.91,0.91-2.83c0.24-1.26,0.3-2.47,0.33-3.75c0.1-4.16,0.19-8.31,0.26-12.47
				c0.15-8.31,0.23-16.63,0.26-24.94c0.06-16.63-0.12-33.26-0.53-49.88c-0.23-9.31-0.53-18.62-0.91-27.92
				C45.95,5.04,44.95,5.04,44.98,5.68L44.98,5.68z"/>
		</g>
	</g>
	<g>
		<g>
			<g>
				<path class="st1" d="M40.04,19.48c0.73-4.47,2.2-8.87,4.46-12.81c0.21-0.37,0.47-0.85,0.97-0.78c0.49,0.07,0.9,0.61,1.16,0.98
					c0.64,0.93,1.06,2.05,1.56,3.07c1.08,2.21,2.17,4.42,3.25,6.62c0.28,0.58,1.15,0.07,0.86-0.5c-0.98-1.99-1.95-3.97-2.93-5.96
					c-0.49-0.99-0.97-1.99-1.46-2.98c-0.35-0.71-0.81-1.41-1.47-1.87c-0.55-0.37-1.25-0.5-1.86-0.16c-0.71,0.4-1.07,1.29-1.43,1.97
					c-0.93,1.77-1.73,3.61-2.39,5.49c-0.76,2.17-1.31,4.4-1.68,6.66C38.97,19.85,39.94,20.12,40.04,19.48L40.04,19.48z"/>
			</g>
		</g>
		<g>
			<g>
				<path class="st1" d="M40.61,118.25c-0.06-0.1-0.13-0.19-0.19-0.29c-0.04-0.07-0.16-0.38-0.15-0.17
					c-0.08,0.14-0.17,0.29-0.25,0.43c0.01,0,0.01-0.01,0.02-0.01c-0.13,0.02-0.26,0.03-0.39,0.05c-0.13-0.06-0.05-0.05,0.01,0.13
					c0.03,0.1,0.07,0.19,0.11,0.28c0.09,0.22,0.17,0.45,0.26,0.67c0.19,0.48,0.37,0.96,0.57,1.44c0.44,1.07,0.89,2.14,1.42,3.17
					c0.86,1.67,2,3.68,3.87,4.35c0.2,0.07,0.46-0.05,0.56-0.23c0.43-0.76,0.87-1.53,1.47-2.17c0.59-0.62,1.23-1.2,1.81-1.83
					c0.75-0.82,1.57-1.6,2.27-2.47c0.71-0.9,1.18-1.9,1.46-3.01c0.16-0.62-0.81-0.89-0.96-0.27c-0.57,2.28-2.29,3.81-3.86,5.46
					c-0.51,0.53-1.07,1.01-1.55,1.55c-0.6,0.67-1.06,1.45-1.5,2.23c0.19-0.08,0.38-0.15,0.56-0.23c-0.88-0.31-1.55-1.11-2.07-1.85
					c-0.69-0.98-1.25-2.06-1.75-3.16c-0.48-1.05-0.91-2.12-1.33-3.2c-0.22-0.57-0.58-2.25-1.51-1.79c-0.15,0.07-0.26,0.27-0.25,0.43
					c0.02,0.36,0.29,0.66,0.47,0.96C40.08,119.3,40.95,118.8,40.61,118.25L40.61,118.25z"/>
			</g>
		</g>
	</g>
</g>
<g>
	<g>
		<g>
			<path class="st1" d="M6.56,67.57c9.36,0.6,18.71,1.19,28.07,1.79c4.64,0.3,9.28,0.61,13.93,0.59c4.64-0.02,9.23-0.49,13.81-1.14
				c4.57-0.64,9.12-1.31,13.73-1.65c4.58-0.33,9.18-0.43,13.77-0.48c9.39-0.1,18.77-0.14,28.16-0.2
				c10.54-0.07,21.09-0.15,31.63-0.22c0.64,0,0.64-1,0-1c-18.81,0.13-37.61,0.26-56.42,0.4c-4.6,0.03-9.19,0.08-13.78,0.31
				c-4.53,0.23-9.02,0.7-13.5,1.34c-4.65,0.66-9.3,1.38-14,1.58c-4.65,0.2-9.3-0.02-13.93-0.3c-10.49-0.64-20.98-1.33-31.48-2
				C5.92,66.53,5.92,67.53,6.56,67.57L6.56,67.57z"/>
		</g>
	</g>
	<g>
		<g>
			<path class="st1" d="M141.82,60.93c1.61,1.01,3.23,2.01,4.84,3.02c0.77,0.48,1.54,0.96,2.32,1.44c0.12,0.07,0.49,0.26,0.56,0.39
				c0.14,0.28-0.17,0.62-0.33,0.8c-0.3,0.34-0.63,0.66-0.94,1c-2.59,2.75-5.18,5.49-7.77,8.24c0.26,0.2,0.52,0.4,0.79,0.61
				c0.44-0.75,0.89-1.49,1.33-2.24c0.33-0.55-0.53-1.06-0.86-0.5c-0.44,0.75-0.89,1.49-1.33,2.24c-0.29,0.48,0.39,1.02,0.79,0.61
				c1.48-1.57,2.96-3.14,4.44-4.71c1.48-1.57,3.1-3.08,4.47-4.75c0.47-0.57,0.7-1.29,0.19-1.91c-0.27-0.33-0.67-0.53-1.03-0.75
				c-0.46-0.28-0.91-0.57-1.37-0.85c-1.86-1.16-3.72-2.32-5.58-3.48C141.78,59.73,141.27,60.59,141.82,60.93L141.82,60.93z"/>
		</g>
	</g>
	<g>
		<g>
			<path class="st1" d="M14.19,60.95c-1.91,0.99-3.77,2.07-5.57,3.26c-0.83,0.55-1.65,1.13-2.45,1.72
				c-0.59,0.44-1.22,1.03-0.82,1.82c0.36,0.71,1.19,0.98,1.86,1.3c0.85,0.41,1.67,0.87,2.45,1.39c0.84,0.55,1.63,1.16,2.38,1.83
				c0.36,0.32,0.72,0.66,1.06,1.01c0.13,0.14,0.93,0.82,0.89,0.98c0.08-0.1,0.15-0.2,0.23-0.3c0.14,0.06,0.28,0.12,0.42,0.18
				c-0.04,0.16-0.09,0.32-0.13,0.49c0.02-0.02,0.04-0.04,0.05-0.05c0.46-0.45-0.25-1.16-0.71-0.71c-0.53,0.52,0.18,1.33,0.8,1.01
				c0.87-0.45-0.04-1.45-0.41-1.85c-1.42-1.54-3.08-2.87-4.87-3.94c-0.45-0.27-0.91-0.52-1.37-0.75c-0.46-0.23-0.97-0.4-1.4-0.68
				c-0.67-0.45,0.04-0.81,0.45-1.12c0.5-0.36,1-0.72,1.51-1.06c1.97-1.34,4.02-2.56,6.14-3.65C15.27,61.52,14.76,60.66,14.19,60.95
				L14.19,60.95z"/>
		</g>
	</g>
</g>
<g>
	<g>
		<path d="M14.71,139.49c-1.01,2-1.58,4.2-1.6,6.45c-0.02,1.92,0.19,4.57,1.68,5.98c1.63,1.53,4.06,0.92,5.6-0.39
			c0.81-0.69,1.43-1.59,2.04-2.45c0.74-1.05,1.49-2.1,2.23-3.14c1.68-2.37,3.36-4.73,5.04-7.1c-0.62-0.17-1.24-0.34-1.86-0.5
			c-0.94,8.49-3.25,16.86-6.81,24.63c-1.01,2.22-2.13,4.38-3.33,6.5c0.46-0.12,0.91-0.24,1.37-0.36c0.28,0.21,0.29,0.43,0.01,0.65
			c0.44-0.32,0.65-0.87,0.36-1.37c-0.25-0.43-0.93-0.68-1.37-0.36c-1.02,0.74-1,2.05-0.01,2.8c0.43,0.32,1.13,0.07,1.37-0.36
			c4.36-7.66,7.51-16.02,9.26-24.66c0.5-2.48,0.88-4.97,1.16-7.48c0.05-0.43-0.34-0.86-0.73-0.96c-0.45-0.12-0.87,0.09-1.13,0.46
			c-2.51,3.53-5,7.07-7.53,10.59c-0.81,1.13-2.14,2.85-3.76,2.35c-0.7-0.22-0.99-0.91-1.18-1.57c-0.24-0.85-0.36-1.74-0.4-2.62
			c-0.08-2.1,0.37-4.2,1.32-6.08C17.02,139.35,15.29,138.34,14.71,139.49L14.71,139.49z"/>
	</g>
</g>
<g>
	<g>
		<path d="M36.17,151.19c3.57,0,7.13,0,10.7,0c1.29,0,1.29-2,0-2c-3.57,0-7.13,0-10.7,0C34.88,149.19,34.88,151.19,36.17,151.19
			L36.17,151.19z"/>
	</g>
</g>
<g>
	<g>
		<path d="M34.79,159.79c3.6-0.8,7.26-1.25,10.95-1.35c1.28-0.03,1.29-2.04,0-2c-3.86,0.11-7.71,0.58-11.49,1.42
			C33,158.14,33.53,160.06,34.79,159.79L34.79,159.79z"/>
	</g>
</g>
<g>
	<g>
		<path d="M55.91,142.12c1.94-0.45,4.22-1.05,6.14-0.22c1.28,0.55,2.55,1.89,2.15,3.38c-0.39,1.49-2.02,2.35-3.3,2.95
			c-1.92,0.91-3.94,1.61-5.99,2.17c-0.84,0.23-0.97,1.38-0.24,1.83c1.88,1.15,4.05,1.17,6.13,1.64c1.35,0.31,3.31,1.15,3.51,2.74
			c0.24,1.87-2.26,3.14-3.62,3.84c-1.96,1-4.13,1.57-6.32,1.69c-1.28,0.07-1.29,2.07,0,2c2-0.11,3.97-0.52,5.82-1.28
			c1.76-0.72,3.67-1.67,4.93-3.13c1.19-1.37,1.6-3.21,0.67-4.84c-0.83-1.45-2.44-2.39-4-2.83c-2.02-0.57-4.26-0.42-6.11-1.55
			c-0.08,0.61-0.16,1.22-0.24,1.83c1.98-0.54,3.91-1.23,5.79-2.06c1.45-0.64,2.95-1.42,3.97-2.68c1.08-1.34,1.4-3.05,0.69-4.64
			c-0.65-1.48-2.04-2.57-3.55-3.08c-2.25-0.76-4.72-0.2-6.95,0.32C54.13,140.49,54.66,142.41,55.91,142.12L55.91,142.12z"/>
	</g>
</g>
<g>
	<g>
		<path d="M68.86,151.74c3.01,5.46,7.52,10.03,12.94,13.11c0.51,0.29,1.36,0.06,1.47-0.6c0.1-0.65,0.21-1.29,0.31-1.94
			c0.09-0.53-0.14-1.08-0.7-1.23c-0.48-0.13-1.14,0.16-1.23,0.7c-0.1,0.65-0.21,1.29-0.31,1.94c0.49-0.2,0.98-0.4,1.47-0.6
			c-5.13-2.92-9.37-7.22-12.22-12.39C69.97,149.61,68.24,150.61,68.86,151.74L68.86,151.74z"/>
	</g>
</g>
<g>
	<g>
		<path d="M77.66,149.08c-3.64,5.71-7.28,11.41-10.92,17.12c-0.39,0.62,0.11,1.55,0.86,1.5c0.49-0.03,0.97-0.06,1.46-0.09
			c1.28-0.08,1.29-2.08,0-2c-0.49,0.03-0.97,0.06-1.46,0.09c0.29,0.5,0.58,1,0.86,1.5c3.64-5.71,7.28-11.41,10.92-17.12
			C80.08,149.01,78.35,148,77.66,149.08L77.66,149.08z"/>
	</g>
</g>
<g>
	<g>
		<path d="M85.66,154.68c3.54-1.23,7.21-2.08,10.93-2.48c0.54-0.06,1-0.42,1-1c0-0.5-0.46-1.06-1-1c-3.91,0.42-7.75,1.26-11.47,2.55
			C83.92,153.17,84.44,155.1,85.66,154.68L85.66,154.68z"/>
	</g>
</g>
<g>
	<g>
		<path d="M102.33,141.77c4.08-1.98,9.16,0.76,10.77,4.74c2.05,5.06-0.26,10.68-4.04,14.23c-2.15,2.02-4.77,3.53-7.48,4.64
			c-1.18,0.49-0.76,2.16,0.53,1.93c6.91-1.23,13.82-2.46,20.72-3.69c-0.32-0.56-0.65-1.11-0.97-1.67c-0.59,0.51-1.17,1.03-1.76,1.54
			c-0.97,0.85,0.45,2.26,1.41,1.41c0.59-0.51,1.17-1.03,1.76-1.54c0.82-0.72-0.08-1.83-0.97-1.67c-6.91,1.23-13.82,2.46-20.72,3.69
			c0.18,0.64,0.35,1.29,0.53,1.93c5.62-2.31,10.96-6.19,12.96-12.16c1.85-5.51,0.28-12.09-5.18-14.84
			c-2.69-1.36-5.83-1.59-8.58-0.26C100.16,140.61,101.17,142.33,102.33,141.77L102.33,141.77z"/>
	</g>
</g>
<g>
	<g>
		<path d="M30.21,178.55c-2.72,1.66-5.02,3.94-6.74,6.63c-0.85,1.33-1.53,2.75-2.06,4.24c-0.51,1.41-1.29,3.43-0.61,4.88
			c0.62,1.31,2.15,1.64,3.47,1.59c1.89-0.07,3.8-0.4,5.68-0.61c0.73-0.08,1.47-0.19,2.2-0.2c0.55-0.01,1.27-0.01,1.72,0.35
			c1.2,0.96-0.67,2.68-1.39,3.27c-2.94,2.39-6.63,3.93-10.38,4.4c-0.54,0.07-1,0.41-1,1c0,0.49,0.46,1.07,1,1
			c3.52-0.45,6.92-1.63,9.89-3.59c1.39-0.92,2.89-1.98,3.71-3.47c0.8-1.46,0.69-3.25-0.74-4.27c-1.23-0.87-2.88-0.72-4.3-0.56
			c-1.97,0.22-3.95,0.48-5.93,0.66c-0.57,0.05-1.23,0.11-1.77-0.11c-0.61-0.25-0.44-0.89-0.32-1.43c0.33-1.52,0.85-3.01,1.56-4.4
			c1.59-3.14,4.01-5.8,7.01-7.64C32.31,179.6,31.31,177.87,30.21,178.55L30.21,178.55z"/>
	</g>
</g>
<g>
	<g>
		<path d="M38.92,181.11c-0.71,6.36-1.04,12.76-0.98,19.16c0.01,1.29,2.01,1.29,2,0c-0.06-6.4,0.26-12.8,0.98-19.16
			c0.06-0.54-0.5-1-1-1C39.33,180.11,38.98,180.57,38.92,181.11L38.92,181.11z"/>
	</g>
</g>
<g>
	<g>
		<path d="M45.59,197.45c0.07-1.26,0.64-2.57,1.56-3.52c0.13-0.13,0.27-0.26,0.41-0.38c0.12-0.1,0.14-0.12,0.24-0.19
			c0.13-0.1,0.3-0.2,0.43-0.26c-0.08,0.04,0.19-0.06,0.1-0.04c0.14,0,0.16,0,0.08,0c-0.02-0.01-0.03-0.02-0.05-0.03
			c0.03,0.02,0.06,0.03,0.09,0.05c-0.06-0.06-0.05-0.05,0.04,0.03c0.05,0.05,0.1,0.1,0.14,0.15c-0.08-0.1,0.03,0.05,0.03,0.06
			c0.05,0.09,0.11,0.18,0.16,0.28c0.07,0.12,0.13,0.25,0.18,0.38c-0.06-0.13,0.03,0.08,0.04,0.11c0.04,0.12,0.08,0.23,0.12,0.35
			c0.09,0.31,0.17,0.62,0.22,0.94c-0.02-0.14,0,0.03,0.01,0.05c0.01,0.11,0.02,0.21,0.03,0.32c0.01,0.18,0.01,0.35,0.01,0.53
			c-0.01,0.17-0.02,0.35-0.04,0.52c0.02-0.15-0.04,0.19-0.05,0.25c-0.04,0.17-0.08,0.33-0.14,0.49c-0.02,0.06-0.05,0.13-0.07,0.19
			c0.06-0.14-0.07,0.15-0.09,0.18c-0.16,0.3-0.3,0.51-0.46,0.68c-0.08,0.09-0.17,0.16-0.25,0.25c-0.19,0.18,0.16-0.09-0.06,0.04
			c-0.07,0.04-0.14,0.09-0.21,0.13c-0.05,0.03-0.1,0.05-0.14,0.08c0,0-0.24,0.12-0.1,0.05c0.14-0.06-0.11,0.04-0.11,0.04
			c-0.05,0.02-0.1,0.04-0.16,0.05c-0.13,0.04-0.27,0.07-0.4,0.1c-0.05,0.01-0.2,0.02,0.02,0c-0.08,0.01-0.17,0.02-0.25,0.02
			c-0.15,0.01-0.3,0.01-0.45,0c-0.07,0-0.14-0.01-0.21-0.02c0.25,0.03-0.02-0.01-0.06-0.02c-0.15-0.03-0.29-0.07-0.43-0.12
			c-0.06-0.02-0.13-0.04-0.19-0.07c0.16,0.07,0.03,0.01-0.05-0.03c-0.12-0.06-0.22-0.13-0.33-0.21c0.18,0.12,0.03,0.03-0.01-0.01
			c-0.07-0.06-0.13-0.12-0.19-0.19c-0.03-0.04-0.07-0.08-0.1-0.12c0.15,0.19,0-0.02-0.02-0.05c-0.03-0.06-0.06-0.12-0.1-0.17
			c-0.03-0.07-0.03-0.05,0.02,0.06c-0.02-0.05-0.04-0.1-0.06-0.15c-0.17-0.51-0.69-0.85-1.23-0.7c-0.5,0.14-0.87,0.72-0.7,1.23
			c0.54,1.58,1.99,2.45,3.61,2.57c1.65,0.12,3.2-0.67,4.12-2.04c1-1.5,1.1-3.5,0.63-5.2c-0.24-0.87-0.63-1.87-1.32-2.48
			c-0.99-0.88-2.24-0.6-3.21,0.14c-1.8,1.36-2.89,3.44-3.02,5.69c-0.03,0.54,0.48,1,1,1C45.16,198.45,45.56,198,45.59,197.45
			L45.59,197.45z"/>
	</g>
</g>
<g>
	<g>
		<path d="M52.54,191.25c-0.65,7.3-1.73,14.54-3.23,21.71c-0.26,1.26,1.66,1.79,1.93,0.53c1.54-7.34,2.64-14.77,3.3-22.25
			c0.05-0.54-0.49-1-1-1C52.96,190.25,52.59,190.71,52.54,191.25L52.54,191.25z"/>
	</g>
</g>
<g>
	<g>
		<path d="M54.29,189.55c1.15,0.51,2.22,1.27,2.87,2.37c0.62,1.04,0.72,2.17,0.3,3.27c-0.15,0.39-0.49,0.87-0.8,1.13
			c-0.4,0.32-0.86,0.47-1.22,0.47c-0.12,0-0.24,0.01-0.37,0c-0.07,0-0.14-0.01-0.21-0.02c0.09,0.01,0.08,0.01-0.05-0.01
			c-0.14-0.03-0.27-0.06-0.4-0.11c-0.07-0.02-0.13-0.05-0.2-0.07c0.08,0.03,0.07,0.02-0.04-0.03c-0.29-0.16-0.33-0.17-0.54-0.38
			c-0.05-0.05-0.09-0.1-0.14-0.15c0.05,0.07,0.04,0.06-0.03-0.04c-0.02-0.03-0.19-0.34-0.14-0.22c-0.21-0.5-0.66-0.85-1.23-0.7
			c-0.47,0.13-0.91,0.73-0.7,1.23c0.49,1.18,1.43,2.02,2.67,2.35c1.17,0.31,2.54,0.16,3.54-0.56c2.31-1.66,2.66-4.94,1.2-7.28
			c-0.83-1.33-2.1-2.35-3.52-2.98c-0.49-0.22-1.07-0.14-1.37,0.36C53.68,188.61,53.79,189.33,54.29,189.55L54.29,189.55z"/>
	</g>
</g>
<g>
	<g>
		<path d="M64.16,195.64c0.97-1.08,1.82-2.27,2.48-3.56c0.59-1.15,1.39-2.64,0.92-3.96c-0.37-1.06-1.4-1.65-2.48-1.71
			c-1.23-0.08-2.3,0.56-2.99,1.54c-0.72,1.03-0.95,2.29-1.1,3.51c-0.17,1.36-0.16,2.72,0.03,4.08c0.36,2.59,1.46,5.13,3.43,6.9
			c2.13,1.92,5.01,2.89,7.84,2.28c1.26-0.27,0.73-2.2-0.53-1.93c-3.85,0.83-7.3-2.24-8.37-5.73c-0.59-1.92-0.68-4.03-0.34-6.01
			c0.14-0.82,0.36-1.79,1.03-2.35c0.35-0.3,1.02-0.44,1.42-0.14c0.64,0.49-0.38,2.1-0.65,2.61c-0.58,1.11-1.29,2.13-2.12,3.05
			C61.89,195.18,63.3,196.6,64.16,195.64L64.16,195.64z"/>
	</g>
</g>
<g>
	<g>
		<path d="M80.26,191.59c4.09,1.61,8.62,1.9,12.89,0.9c1.25-0.29,0.72-2.22-0.53-1.93c-3.95,0.92-8.06,0.58-11.83-0.9
			c-0.5-0.2-1.1,0.22-1.23,0.7C79.41,190.93,79.76,191.39,80.26,191.59L80.26,191.59z"/>
	</g>
</g>
<g>
	<g>
		<path d="M83.19,199.36c1.48-1.15,3.28-0.68,4.94-0.21c1.94,0.55,3.93,1.28,5.98,1.08c0.54-0.05,1-0.42,1-1c0-0.5-0.46-1.05-1-1
			c-3.89,0.38-8.33-3.38-11.93-0.6c-0.43,0.33-0.66,0.86-0.36,1.37C82.07,199.42,82.76,199.69,83.19,199.36L83.19,199.36z"/>
	</g>
</g>
<g>
	<g>
		<path d="M104.86,181.88c2.68-0.45,6.1,0.54,7.75,2.83c0.91,1.26-1.22,2.3-2.08,2.84c-1.56,0.99-3.19,1.85-4.87,2.6
			c-0.65,0.29-0.56,1.13-0.2,1.57c0.85,1.07,2.14,1.62,3.41,2.03c1.17,0.38,2.52,0.61,3.51,1.38c0.99,0.77,1.14,1.99,0.71,3.12
			c-0.5,1.3-1.6,2.22-2.91,2.64c-1.96,0.63-4.07,0.41-6.08,0.22c-0.54-0.05-1,0.5-1,1c0,0.58,0.46,0.95,1,1
			c3.73,0.36,8.28,0.42,10.43-3.27c0.85-1.46,1.11-3.29,0.31-4.82c-0.74-1.44-2.23-2.17-3.7-2.65c-1.5-0.5-3.24-0.75-4.28-2.05
			c-0.07,0.52-0.13,1.05-0.2,1.57c2.04-0.9,4-1.97,5.84-3.23c1.6-1.1,3.12-2.79,1.94-4.79c-0.95-1.6-2.82-2.73-4.51-3.39
			c-1.79-0.69-3.71-0.83-5.6-0.52c-0.53,0.09-0.83,0.75-0.7,1.23C103.79,181.74,104.33,181.96,104.86,181.88L104.86,181.88z"/>
	</g>
</g>
<path class="st2" d="M51.18,167.13"/>
<g>
	<g>
		<g>
			<path class="st0" d="M36.27,113.77c9.91-12.66,19.93-25.24,30.04-37.74c10.06-12.44,20.21-24.8,30.46-37.08
				c5.8-6.96,11.64-13.89,17.5-20.79c0.52-0.62,0.61-1.52,0-2.12c-0.54-0.54-1.59-0.62-2.12,0c-10.41,12.25-20.72,24.59-30.94,37
				C71.05,65.39,60.98,77.82,51,90.33c-5.65,7.08-11.27,14.19-16.85,21.32c-0.5,0.64-0.62,1.5,0,2.12
				C34.67,114.29,35.77,114.41,36.27,113.77L36.27,113.77z"/>
		</g>
	</g>
	<g>
		<g>
			<path class="st0" d="M104.3,18.74c1.44,0.46,2.97,0.7,4.48,0.68c0.77-0.01,1.53-0.1,2.29-0.22c0.69-0.12,1.35-0.34,2.03-0.51
				c0.07-0.02,0.14-0.04,0.21-0.05c-0.06,0.03-0.12,0.04-0.18,0.02c-0.15-0.01-0.27-0.07-0.38-0.19c-0.05-0.04-0.09-0.09-0.12-0.14
				c-0.05-0.1-0.05-0.07,0,0.08c-0.02-0.15-0.02-0.17-0.01-0.06c0,0.21,0.03,0.42,0.04,0.63c0.05,0.75,0.08,1.5,0.11,2.26
				c0.05,1.57,0.04,3.14-0.02,4.7c-0.03,0.78,0.71,1.54,1.5,1.5c0.84-0.04,1.47-0.66,1.5-1.5c0.07-1.69,0.07-3.39,0.01-5.08
				c-0.03-0.86-0.06-1.72-0.14-2.58c-0.1-1-0.44-1.98-1.44-2.4c-0.87-0.37-1.68-0.13-2.55,0.12c-0.75,0.22-1.4,0.34-2.07,0.39
				c-1.63,0.12-2.93-0.04-4.46-0.53c-0.75-0.24-1.67,0.28-1.85,1.05C103.07,17.71,103.5,18.48,104.3,18.74L104.3,18.74z"/>
		</g>
	</g>
	<g>
		<g>
			<path class="st0" d="M32.88,104c-0.15,3.61-0.3,7.21-0.45,10.82c-0.05,1.21,1.29,1.78,2.26,1.3c2.49-1.24,5.21-1.98,7.96-2.1
				c0.81-0.04,1.5-0.66,1.5-1.5c0-0.78-0.69-1.54-1.5-1.5c-3.32,0.15-6.51,1.03-9.48,2.51c0.75,0.43,1.5,0.86,2.26,1.3
				c0.15-3.61,0.3-7.21,0.45-10.82c0.03-0.81-0.71-1.5-1.5-1.5C33.54,102.5,32.92,103.19,32.88,104L32.88,104z"/>
		</g>
	</g>
</g>
</svg>
