<?xml version="1.0" encoding="UTF-8"?>
<svg id="Layer_2" data-name="Layer 2" xmlns="http://www.w3.org/2000/svg" viewBox="0 0 265.69 159.28">
  <defs>
    <style>
      .cls-1 {
        fill: #a7a9ac;
      }

      .cls-1, .cls-2, .cls-3 {
        stroke-width: 0px;
      }

      .cls-2 {
        fill: #ed1c24;
      }

      .cls-3 {
        fill: #231f20;
      }
    </style>
  </defs>
  <g id="Layer_1-2" data-name="Layer 1">
    <g>
      <path class="cls-1" d="M251.72,138.41c4.55-4.02,9-8.19,13.2-12.58.48-.5.88-1.09.73-1.81-.12-.58-.52-.93-.97-1.27-.54-.4-1.04-.82-1.51-1.3-.17-.17.08.12,0,0-.04-.05-.08-.11-.12-.16-.12-.16-.23-.33-.37-.47-.38-.39-.87-.67-1.34-.94-2.58-1.48-5.31-2.73-8.02-3.94-.49-.22-1.07-.14-1.37.36-.25.43-.14,1.15.36,1.37,2.36,1.05,4.7,2.17,6.99,3.37.63.33,1.26.67,1.84,1.07.12.08-.13-.15.05.04.04.04.09.1.14.14.16.12-.11-.16-.04-.05.03.05.07.1.11.16.27.37.56.7.91,1.01.29.25.59.49.89.72.11.08.51.4.52.39-.03.02.02-.13,0-.16.03-.19-.01-.2-.12-.02-.08.09-.17.17-.25.26-1.97,2.02-3.98,4.02-6.03,5.97-2.29,2.19-4.63,4.34-7.01,6.44-.97.85.45,2.26,1.41,1.41h0Z"/>
      <path class="cls-1" d="M32.16,111.11c-3.54,1.58-6.89,3.56-9.98,5.89-.72.54-1.6,1.09-2.17,1.79-.67.81-.44,1.77.2,2.51,1.36,1.58,2.91,3.03,4.39,4.49,1.67,1.65,3.37,3.26,5.1,4.85.95.87,2.37-.54,1.41-1.41-1.76-1.61-3.49-3.26-5.19-4.93-.85-.84-1.7-1.69-2.53-2.55-.42-.43-.83-.86-1.25-1.29-.1-.11-.39-.54-.53-.56-.08-.16-.11-.1-.09.18.08-.09.17-.16.26-.24,3.34-2.9,7.36-5.2,11.38-6.99.49-.22.61-.94.36-1.37-.3-.51-.87-.58-1.37-.36h0Z"/>
      <path class="cls-1" d="M20.48,121.35c15.07,3.55,30.62,3.5,46.01,3.4,15.99-.1,31.98-.21,47.98-.31,31.89-.21,63.8-.75,95.69-.41,17.78.19,35.57.83,53.28,2.56,1.28.12,1.27-1.88,0-2-31.63-3.08-63.44-2.7-95.18-2.49-31.82.2-63.64.41-95.47.61-17.28.11-34.84.7-51.78-3.29-1.25-.29-1.79,1.63-.53,1.93h0Z"/>
    </g>
    <g>
      <path class="cls-1" d="M125.74,26.05c1.65-3.95,3.65-7.77,5.92-11.4.57-.91,1.16-1.81,1.76-2.7.28-.41.64-.83.88-1.26.12-.22.2-.07,0-.17.14.07.25.25.35.37,1.46,1.84,2.83,3.75,4.25,5.62,1.6,2.12,3.2,4.23,4.8,6.35.33.43.86.65,1.37.36.42-.25.69-.93.36-1.37-1.6-2.12-3.2-4.23-4.8-6.35-.8-1.06-1.6-2.12-2.4-3.17-.75-.99-1.45-2.04-2.26-2.98-.76-.87-1.98-1.09-2.87-.28-.8.72-1.38,1.85-1.98,2.74-1.35,2.04-2.61,4.14-3.77,6.29-1.3,2.41-2.47,4.89-3.53,7.42-.21.5.22,1.1.7,1.23.58.16,1.02-.2,1.23-.7h0Z"/>
      <path class="cls-1" d="M127.06,148.35c1.03,1.97,2.2,3.86,3.5,5.66.66.92,1.36,1.81,2.08,2.69.38.46.78.92,1.18,1.37.33.37.65.77,1.09,1.01,1.17.62,2.06-.35,2.8-1.13.82-.87,1.63-1.75,2.43-2.63,1.62-1.8,3.2-3.63,4.74-5.5.81-.99-.59-2.41-1.41-1.41-1.36,1.65-2.75,3.28-4.18,4.88-.69.77-1.38,1.54-2.09,2.3-.38.41-.76.82-1.14,1.22-.01.01-.47.46-.46.48.26.09.33.1.21,0-.06-.06-.13-.13-.19-.2-2.7-2.91-4.99-6.21-6.83-9.73-.6-1.14-2.32-.13-1.73,1.01h0Z"/>
      <path class="cls-1" d="M134.03,11.6c-.64,18.95-1.01,37.9-1.11,56.86s.07,37.72.5,56.57c.24,10.64.57,21.27.99,31.9.05,1.28,2.05,1.29,2,0-.73-18.94-1.2-37.89-1.4-56.85-.2-18.86-.13-37.72.21-56.57.19-10.64.46-21.28.82-31.91.04-1.29-1.96-1.29-2,0h0Z"/>
    </g>
    <g>
      <path class="cls-2" d="M36.45,34.57c3.42,11.83,7.38,23.57,12.6,34.74,3.78,8.09,8.27,15.91,13.97,22.81,4.46,5.4,9.71,10.12,15.66,13.82,4.04,2.51,8.04,5.1,12.05,7.65,3.06,1.95,6.17,3.85,9.48,5.36,7.65,3.48,16,4.21,24.31,4.25,1.53,0,3.06,0,4.58-.04.77-.02,1.54-.04,2.32-.06.3,0,.62-.06.91-.01s.49.14.79.16c2.18.13,4.39.1,6.58.07,4.2-.06,8.39-.34,12.55-.96,8.1-1.19,15.92-3.83,23-7.96,8.57-4.99,15.91-11.86,22.4-19.3,4.19-4.8,8.07-9.88,11.74-15.09,3.88-5.5,7.5-11.18,10.31-17.31,2.29-4.99,4.05-10.19,5.21-15.55s1.71-10.36,2.13-15.58c.22-2.72.4-5.45.57-8.17.08-1.29-1.92-1.28-2,0-.68,10.5-1.42,21.04-4.78,31.09-4.06,12.12-11.5,22.85-19.33,32.83-6.43,8.19-13.61,16.01-22.14,22.06-6.7,4.74-14.16,8.2-22.16,10.04-3.89.89-7.85,1.42-11.83,1.69-2.07.14-4.15.21-6.22.23-1.07,0-2.14,0-3.21-.01-.98-.01-2.06.06-3.01-.13-1.41-.28-3.02-.04-4.47-.02s-2.92.04-4.37.02c-2.5-.02-5-.1-7.49-.3-3.83-.3-7.65-.91-11.31-2.1-7.09-2.3-13.26-6.77-19.48-10.75-3.44-2.21-7.01-4.24-10.3-6.68-2.71-2.02-5.24-4.29-7.58-6.73-5.64-5.88-10.15-12.74-13.96-19.91-5.26-9.91-9.25-20.46-12.68-31.12-1.02-3.18-1.99-6.37-2.91-9.58-.36-1.23-2.29-.71-1.93.53h0Z"/>
      <path class="cls-2" d="M48.4,45.84c-2.3-3.99-4.96-7.78-7.98-11.26-.36-.41-.72-.82-1.08-1.22s-.74-.9-1.22-1.16c-1.15-.62-2,.27-2.41,1.27-.92,2.24-1.76,4.53-2.59,6.8-.96,2.65-1.88,5.31-2.77,7.99-.4,1.23,1.53,1.75,1.93.53,1.37-4.16,2.83-8.29,4.41-12.38.19-.48.37-.97.56-1.45.1-.26.2-.52.31-.78,0-.01.08-.15.08-.19l.08-.15-.52.14c-.03.05.84.91.94,1.02.37.4.72.81,1.08,1.23,1.29,1.5,2.51,3.07,3.66,4.68,1.36,1.91,2.62,3.9,3.79,5.93.64,1.11,2.37.11,1.73-1.01h0Z"/>
      <path class="cls-2" d="M233.97,33.67c-.76-2.12-1.65-4.19-2.68-6.18-.52-1-1.07-1.99-1.66-2.95-.31-.52-.64-1.03-.97-1.53-.28-.42-.54-.89-.94-1.21-1.04-.82-2.03-.05-2.86.64-.92.76-1.83,1.54-2.73,2.32-1.83,1.59-3.62,3.22-5.37,4.89-.93.89.48,2.3,1.41,1.41,1.49-1.42,3.02-2.82,4.56-4.19.78-.68,1.56-1.36,2.35-2.03.43-.36.85-.72,1.28-1.08,0,0,.46-.37.46-.36-.28-.09-.37-.08-.27.04.06.09.13.19.19.28,2.19,3.26,3.98,6.78,5.31,10.48.43,1.2,2.36.68,1.93-.53h0Z"/>
    </g>
    <g>
      <g>
        <path class="cls-2" d="M32.34,19.13l6.63-.66c.27-.03.5-.21.5-.5,0-.25-.23-.53-.5-.5l-6.63.66c-.27.03-.5.21-.5.5,0,.25.23.53.5.5h0Z"/>
        <path class="cls-2" d="M31.01,23.62l7.81-1.63c.63-.13.36-1.1-.27-.96l-7.81,1.63c-.63.13-.36,1.1.27.96h0Z"/>
      </g>
      <g>
        <path class="cls-2" d="M43.56,16.12c2.8,3.04,5.63,6.05,8.5,9.03.45.46,1.15-.24.71-.71-2.87-2.98-5.7-5.99-8.5-9.03-.44-.47-1.14.23-.71.71h0Z"/>
        <path class="cls-2" d="M50.72,14.55c-2.86,3.86-5.42,7.95-7.65,12.21-.3.57.56,1.08.86.5,2.23-4.26,4.78-8.34,7.65-12.21.38-.52-.48-1.02-.86-.5h0Z"/>
      </g>
      <path class="cls-2" d="M54.82,9.08c.76-.12,1.55.23,2.05.8.53.6.62,1.41.37,2.15s-.88,1.24-1.63,1.47c-.86.26-1.75.41-2.41,1.06-.33.32-.06.82.35.85,1.64.13,3.28.29,4.92.47.27.03.5-.25.5-.5,0-.29-.23-.47-.5-.5-1.64-.18-3.28-.34-4.92-.47l.35.85c.72-.71,1.91-.67,2.79-1.13s1.5-1.4,1.65-2.38c.34-2.19-1.64-3.97-3.78-3.64-.27.04-.41.38-.35.62.08.29.35.39.62.35h0Z"/>
      <path class="cls-2" d="M4.59,30.57l.07.02-.35-.35-.02-.1.35-.35-.08.03.39.05c-.1-.06-.22-1.17-.25-1.31-.1-.51-.18-1.03-.27-1.54-.16-.99-.28-1.98-.38-2.97-.2-2.04-.29-4.09-.26-6.14.02-1.56.08-3.52,1.29-4.69.86-.83,2.64-1.15,3.36.03.34.55,1.2.05.86-.5-.72-1.17-2.16-1.48-3.42-1.1-1.49.45-2.39,1.74-2.77,3.2-.49,1.87-.36,3.93-.29,5.84.08,2.13.29,4.26.61,6.37.09.6.19,1.19.3,1.78.09.49.12,1.11.35,1.55.37.73,1.33.38,1.19-.41-.03-.16-.19-.31-.35-.35l-.07-.02c-.62-.15-.89.81-.27.96h0Z"/>
      <path class="cls-2" d="M.62,22.1c3.31-.98,6.66-1.82,10.05-2.51.63-.13.36-1.09-.27-.96-3.39.69-6.74,1.53-10.05,2.51-.62.18-.35,1.15.27.96h0Z"/>
      <path class="cls-2" d="M14.45,11.88c-1.34,4.12-2.11,8.44-2.21,12.78-.04,1.63.06,3.61,1.39,4.77,1.07.93,2.73,1.18,3.82.17.47-.44-.24-1.14-.71-.71-1.09,1.01-2.65-.09-3.12-1.18-.64-1.5-.4-3.37-.29-4.95.25-3.61.96-7.17,2.08-10.61.2-.61-.77-.88-.96-.27h0Z"/>
      <path class="cls-2" d="M16.74,16.89c1.99,3.09,4.45,5.86,7.28,8.21.49.41,1.2-.3.71-.71-2.77-2.29-5.18-4.98-7.12-8-.35-.54-1.21-.04-.86.5h0Z"/>
      <path class="cls-2" d="M21.43,13.63l-3.94,13.25c-.18.62.78.88.96.27l3.94-13.25c.18-.62-.78-.88-.96-.27h0Z"/>
      <path class="cls-2" d="M23.23,10.48c2.86,1.99,4.08,5.44,4.62,8.75.31,1.89.53,3.86.55,5.77.02,1.63-.42,3.65-2.14,4.29-.6.23-.34,1.19.27.96,1.68-.63,2.58-2.25,2.8-3.97.14-1.1.04-2.2-.05-3.3s-.2-2.22-.36-3.32c-.53-3.83-1.88-7.75-5.18-10.05-.53-.37-1.03.5-.5.86h0Z"/>
    </g>
    <path class="cls-3" d="M218.45,118.59c.29,2.99.32,6,.1,9-.04.54.49,1,1,1,.57,0,.96-.46,1-1,.22-3,.19-6.01-.1-9-.05-.54-.42-1-1-1-.5,0-1.05.46-1,1h0Z"/>
    <path class="cls-3" d="M222.3,132.41c-1.19.15-2.39.56-3.26,1.4s-1.62,2.54-.91,3.72c.43.71,1.29,1.1,2,1.47.84.43,1.7.8,2.55,1.21,1.67.79,3.52,1.74,4.49,3.4.47.8.67,1.94-.03,2.69s-2.14.63-3.05.46c-.98-.19-1.91-.69-2.37-1.61-.32-.64-.38-1.49.19-2,.46-.41,1.11-.62,1.66-.87.73-.33,1.41-.72,2.02-1.23.91-.77,1.57-1.81,2.01-2.91.63-1.58.57-3.45-.82-4.61-1.21-1-2.96-1.27-4.49-1.11-.63.07-.64,1.07,0,1,1.34-.15,3,.02,4,1.01,1.22,1.2.65,3.03-.11,4.32-.27.46-.49.76-.74,1.04-.59.65-1.32,1.11-2.1,1.48-1.07.51-2.41.9-2.77,2.18-.48,1.71.8,3.36,2.32,3.98s3.94.78,5.06-.57c1.18-1.42.55-3.34-.51-4.61-1.18-1.41-2.87-2.28-4.52-3.05-.94-.44-1.89-.85-2.8-1.35-.45-.25-1.03-.52-1.22-1.03-.15-.4-.01-.89.14-1.27.54-1.32,1.94-1.99,3.26-2.16.63-.08.64-1.08,0-1Z"/>
    <path class="cls-3" d="M88.14,119.72c-.23,2.71-.33,5.44-.28,8.16.01.64,1.01.64,1,0-.05-2.72.05-5.45.28-8.16.05-.64-.95-.64-1,0h0Z"/>
    <path class="cls-3" d="M77.88,138.86l4.09.02c.61,0,1.25.06,1.86-.03.47-.08.93-.34,1.02-.84.12-.63-.84-.9-.96-.27-.03.09-.02.1.01.03-.02.02-.04.04-.07.05-.06.01-.12.04-.18.05-.21.04-.44.02-.65.02h-1.66c-1.15-.01-2.3-.01-3.45-.02-.64,0-.64,1,0,1h0Z"/>
    <path class="cls-3" d="M85.31,133.59c3.06.53,5.77,3.3,4.8,6.58-.84,2.84-4.19,3.71-6.71,4.33-.54.13-.43,1,.13.98,3.55-.11,7.08.32,10.5,1.28.57.16.83-.6.39-.91-.17-.12-.35-.25-.52-.37-.52-.37-1.02.49-.5.86.17.12.35.25.52.37l.39-.91c-3.5-.99-7.13-1.43-10.76-1.32l.13.98c3.01-.74,6.77-1.93,7.51-5.4.77-3.68-2.1-6.83-5.6-7.43-.63-.11-.9.85-.27.96h0Z"/>
    <g>
      <path class="cls-3" d="M65.45,59.08c-1.46.58-2.77,1.47-3.8,2.67-.91,1.07-1.91,2.52-1.12,3.93.69,1.24,2.16,1.72,3.47,1.93.79.13,1.64.2,2.38.53.33.15.71.36.9.68.27.45-.13.7-.5.88-.9.45-1.95.69-2.96.74-.53.02-1.06,0-1.58-.08-.22-.03-.44-.07-.66-.14-.29-.09-.33-.24-.45-.5-.27-.58-1.14-.07-.86.5.14.29.27.61.55.79.37.24.92.28,1.34.34.88.13,1.77.12,2.65-.02,1.18-.18,3.94-.8,3.54-2.53s-2.71-1.95-4.09-2.17c-1.27-.2-3.62-.93-2.9-2.69s2.6-3.22,4.35-3.92c.59-.24.33-1.2-.27-.96h0Z"/>
      <path class="cls-3" d="M71.13,62.62l-1.06,3.69-.53,1.85c-.15.51-.43,1.12-.36,1.66.12,1.07,1.74,1.15,2.57,1.12,1.05-.04,2.08-.37,2.94-.97.52-.36.03-1.23-.5-.86-.68.48-1.48.78-2.31.83-.43.03-.87,0-1.29-.1-.14-.03-.38-.05-.4-.19-.03-.19.14-.53.2-.71l1.73-6.04c.18-.62-.79-.88-.96-.27h0Z"/>
      <path class="cls-3" d="M75.93,67.87s-.06-.13-.03-.06,0-.03-.01-.05c0-.04-.02-.08-.03-.12.02.1,0,.02,0-.03,0-.09,0-.17,0-.26,0-.04.02-.12,0-.03,0-.06.02-.12.03-.17.02-.1.05-.19.08-.29.02-.05.04-.1.06-.16,0-.02.02-.04.03-.07.03-.08-.03.06,0-.01.09-.2.2-.4.33-.58.01-.02.03-.04.04-.06.05-.07-.04.05.01-.02.03-.04.06-.08.1-.11.08-.09.16-.17.24-.25.04-.04.08-.08.13-.11-.06.05.03-.02.05-.03.09-.06.19-.12.29-.16-.08.04.05-.02.07-.03.04-.01.09-.03.13-.04.03,0,.17-.03.07-.02.05,0,.11,0,.16,0,.06,0,.12,0,.18,0-.07,0,.06.01.08.02.05.01.1.03.15.04.1.03.07.02.13.05.42.21.73.53.96.93.12.21.18.34.23.59,0,.02.03.17.02.09,0,.05,0,.09,0,.14s0,.09,0,.14c0,.1,0,.02,0,0,0,.03-.01.06-.02.09-.01.04-.02.08-.04.12.04-.12,0,0-.02.03-.02.04-.05.07-.07.11-.04.07.05-.05-.03.03-.06.06-.12.12-.18.17.07-.06,0,0-.03.02-.05.03-.09.06-.14.09-.08.05-.16.09-.25.13-.05.02.01,0,.02,0-.03.01-.06.02-.08.03-.05.02-.1.04-.15.05-.2.07-.4.12-.61.15-.02,0-.05,0-.07.01-.09.01.12-.01-.03,0-.05,0-.11.01-.16.02-.12,0-.23.01-.35.01s-.23,0-.34-.01c-.03,0-.06,0-.09,0-.01,0-.1-.01-.04,0,.05,0-.08-.01-.1-.02-.11-.02-.21-.05-.32-.08-.04-.01-.08-.03-.13-.05-.05-.02.03.01.03.01-.03-.01-.05-.03-.08-.04-.04-.02-.07-.04-.11-.06-.02-.01-.04-.03-.06-.04.02.02.07.06.02.02-.02-.03-.05-.05-.08-.08-.08-.07.05.08-.02-.03-.34-.54-1.21-.04-.86.5.53.83,1.73.95,2.62.86.95-.09,2.14-.44,2.59-1.37.55-1.15-.28-2.54-1.22-3.21-.52-.37-1.17-.53-1.8-.41-.54.11-1.03.45-1.39.85-.42.47-.74,1.04-.91,1.64-.14.53-.18,1.14.1,1.63.32.56,1.19.05.86-.5Z"/>
      <path class="cls-3" d="M82.77,70.09v-4.74c-.01-.82-.02-1.64-.02-2.46,0-.59-.23-1.6.47-1.83,1.03-.35,2.37.63,2.37,1.71,0,.83-1.16,1.71-1.92,1.11-.5-.4-1.21.31-.71.71.89.71,2.09.54,2.91-.21.88-.81.91-2.13.23-3.07s-2.08-1.61-3.26-1.17c-.63.23-1,.73-1.07,1.4-.08.85-.01,1.74-.01,2.59v5.97c.02.64,1.02.64,1.01,0h0Z"/>
      <path class="cls-3" d="M88.62,61.85c-.54,1.22-1.05,2.46-1.52,3.7-.24.63-.47,1.26-.69,1.89s-.49,1.28-.64,1.93c-.12.51.02,1.05.56,1.25s1.13-.03,1.65-.15c.66-.15,1.32-.31,1.97-.46.58-.13,1.06-.24,1.54-.58.52-.37.02-1.23-.5-.86-.14.1-.26.21-.42.27-.25.1-.55.13-.81.19-.51.12-1.01.24-1.52.35-.28.06-.56.13-.83.19-.12.03-.55.2-.68.12-.02-.01.07-.24.11-.37.09-.27.18-.54.27-.81.71-2.09,1.51-4.14,2.4-6.16.26-.58-.6-1.09-.86-.5h0Z"/>
      <path class="cls-3" d="M87.15,66.9c1.3.73,2.9.74,4.21.06.24-.12.31-.46.18-.68-.14-.24-.44-.3-.68-.18-.99.52-2.22.49-3.2-.06-.24-.13-.55-.06-.68.18s-.06.55.18.68h0Z"/>
      <path class="cls-3" d="M89.03,62.81l2.81.36c.26.03.51-.25.5-.5-.01-.3-.22-.46-.5-.5l-2.81-.36c-.26-.03-.51.25-.5.5.01.3.22.46.5.5h0Z"/>
      <path class="cls-3" d="M97.2,66.06s.1-.05.15-.08c.02-.01.05-.02.08-.03-.06.02-.06.02,0,0,.09-.03.18-.06.28-.09.11-.03.22-.06.32-.07-.09,0-.01,0,.03,0,.06,0,.11,0,.17,0,.1,0,.19,0,.29,0,.02,0,.2.01.07,0,.05,0,.11.02.16.03.09.02.19.04.28.07.05.02.1.04.16.06.05.02.05.02,0,0,.03.01.05.02.08.04.24.11.55.07.68-.18.12-.22.07-.56-.18-.68-.97-.46-2.11-.45-3.06.07-.23.13-.32.46-.18.68.15.23.44.31.68.18h0Z"/>
      <path class="cls-3" d="M96.5,69.46l3.96-.72c.27-.05.42-.37.35-.62-.08-.28-.35-.4-.62-.35l-3.96.72c-.27.05-.42.37-.35.62.08.28.35.4.62.35h0Z"/>
      <path class="cls-3" d="M104.39,62.28c1.13-.49,2.56-.2,3.39.71s1,2.38.39,3.47c-.55.97-1.54,1.56-2.49,2.07-1.03.56-2.07,1.07-2.99,1.81-.27.22-.14.78.22.84,2.75.4,5.51.57,8.29.51.64-.02.64-1.02,0-1-2.68.06-5.37-.09-8.02-.47l.22.84c1.64-1.33,3.91-1.82,5.25-3.53,1.44-1.84,1.05-4.68-1-5.9-1.15-.68-2.55-.73-3.76-.2-.59.26-.08,1.12.5.86h0Z"/>
      <path class="cls-3" d="M113.03,66.49s0-.02,0-.02l.02.13s0-.03,0-.05l-.02.13s0-.03.01-.04l-.05.12s.01-.03.02-.04l-.08.1s.03-.03.04-.04l-.1.08s.03-.02.05-.03l-.12.05s.03-.01.04-.01l-.13.02s.03,0,.05,0l-.13-.02s.03,0,.04.01l-.12-.05s.02.01.03.02l-.1-.08s.02.02.03.03l-.08-.1s.01.02.02.04l-.05-.12s.01.03.01.05l-.02-.13s0,.04,0,.06l.02-.13s0,.04-.02.06l.05-.12s-.02.03-.03.04l.08-.1s-.02.02-.03.03l.1-.08s-.02.01-.04.02l.12-.05s-.01,0-.02,0l.13-.02s-.05,0-.08,0l.13.02s-.05-.01-.07-.02l.12.05s-.05-.02-.07-.04l.1.08s-.05-.04-.07-.07l.08.1s-.05-.07-.07-.11l.05.12c-.02-.05-.03-.1-.04-.16l.02.13c0-.05,0-.1,0-.15l-.02.13s.02-.09.03-.13l-.05.12s.03-.05.05-.08l-.08.1s.04-.04.06-.06l-.1.08s.04-.03.07-.04l-.12.05s.05-.02.07-.02l-.63-.48c-.03.34-.06.67-.09,1.01-.01.12.06.27.15.35s.23.15.35.15.26-.05.35-.15l.08-.1c.05-.08.07-.16.07-.25.03-.34.06-.67.09-1.01.01-.15-.08-.3-.2-.39-.13-.1-.28-.12-.44-.09-.3.06-.53.32-.61.61-.07.27-.03.55.09.79.05.1.12.19.2.25.1.08.17.12.29.17.07.03.15.04.23.04.24.01.48-.13.59-.34s.13-.5,0-.71c-.09-.14-.22-.25-.38-.29-.17-.05-.35-.02-.51.07-.28.15-.43.49-.34.79.04.12.12.23.23.3s.27.09.39.05.24-.11.3-.23.09-.25.05-.39h0Z"/>
      <path class="cls-3" d="M117.18,60.98c-1.32,2.31-2.09,4.91-2.22,7.56-.05,1.05-.17,2.47.6,3.31.62.67,1.86.72,2.32-.16.3-.57-.56-1.07-.86-.5-.14.26-.51.19-.7.01-.29-.28-.33-.77-.35-1.15-.06-.99,0-2.01.15-2.99.29-1.96.95-3.85,1.94-5.57.32-.56-.54-1.06-.86-.5h0Z"/>
      <path class="cls-3" d="M118.03,66.85l1.98.52c.25.07.55-.08.62-.35s-.08-.54-.35-.62l-1.98-.52c-.25-.07-.55.08-.62.35s.08.54.35.62h0Z"/>
      <path class="cls-3" d="M121.94,63.64c.61.41,1.28.85,1.66,1.49.33.56.44,1.28-.02,1.8-.36.41-.88.65-1.34.93-.5.31-.98.69-1.24,1.24-.15.32.02.77.43.75,1.14-.05,2.26.09,3.35.43.62.19.88-.78.27-.96-1.17-.36-2.4-.52-3.62-.46l.43.75c.27-.56.83-.85,1.34-1.16.58-.35,1.17-.75,1.47-1.38.38-.8.22-1.76-.24-2.49-.48-.78-1.25-1.3-1.99-1.81-.53-.36-1.04.5-.5.86h0Z"/>
      <path class="cls-3" d="M125.08,61.49c1.03,1.9,1.66,3.99,1.83,6.14.08,1.03.07,2.07-.06,3.09-.07.61-.17,2.36-1.04,2.41-.64.03-.64,1.03,0,1,.99-.05,1.53-.89,1.77-1.78.33-1.23.41-2.59.38-3.86-.07-2.62-.77-5.2-2.01-7.5-.31-.57-1.17-.06-.86.5h0Z"/>
      <path class="cls-3" d="M96.81,81.03c1.19.08,2.37.23,3.55.45.26.05.54-.07.62-.35.07-.24-.08-.56-.35-.62-1.26-.24-2.53-.4-3.81-.49-.27-.02-.5.24-.5.5,0,.29.23.48.5.5h0Z"/>
      <path class="cls-3" d="M96.57,83.2c1.5.67,3.12.97,4.76.84.27-.02.5-.21.5-.5,0-.25-.23-.52-.5-.5-1.45.11-2.92-.11-4.26-.71-.25-.11-.54-.07-.68.18-.12.21-.07.57.18.68h0Z"/>
      <path class="cls-3" d="M106.25,81.85c1.04.16,2.09.1,3.09-.21.25-.08.43-.35.35-.62-.08-.25-.35-.43-.62-.35-.44.14-.88.23-1.27.26-.22.02-.45.02-.68.01-.11,0-.23-.01-.34-.02-.05,0-.1-.01-.16-.02-.06,0-.07,0-.02,0-.03,0-.07-.01-.1-.02-.26-.04-.55.07-.62.35-.05.24.07.57.35.62h0Z"/>
      <path class="cls-3" d="M111.77,77.58c-.2,1-.45,2-.6,3.01-.07.44,0,.9.39,1.17.35.24.77.19,1.17.14,1.56-.22,3.12-.44,4.67-.68.27-.04.41-.38.35-.62-.08-.29-.35-.39-.62-.35-1.39.21-2.78.41-4.17.61-.23.03-.46.08-.69.09-.04,0-.1.01-.14,0,0,0,.02.04,0-.01-.03-.13.05-.33.07-.46.18-.88.35-1.75.53-2.63.13-.63-.84-.9-.96-.27h0Z"/>
      <path class="cls-3" d="M115.38,76.59l-1.05,9.3c-.07.64.93.63,1,0l1.05-9.3c.07-.64-.93-.63-1,0h0Z"/>
    </g>
    <path class="cls-3" d="M88.8,110.16c.02.18.04.36.04.54,0,.08,0,.15,0,.23,0,.05,0,.09,0,.14,0,.03,0,.06,0,.09,0-.06,0-.06,0,0-.02.09-.03.17-.06.25,0,.02-.06.14-.01.04-.01.03-.02.05-.04.08-.02.04-.04.07-.07.11-.07.11.06-.06-.03.04,0,0-.06.05-.07.06.06-.05.07-.05.03-.02-.02.01-.03.02-.05.03-.09.06.11-.03,0,0-.02,0-.04.01-.06.02-.02,0-.08,0-.09.02.04-.04.11,0,.01,0-.06,0-.13-.01-.18,0,.11-.01.07.01.01,0-.03,0-.06-.02-.09-.02-.1-.03.1.06.01,0-.02-.01-.05-.03-.07-.04-.09-.03.07.08.01.01,0,0-.06-.05-.06-.06,0-.01.07.12.02.02-.03-.06.01.05.02.05,0,0-.02-.08-.02-.08,0,.09.01.1.01.05,0-.02,0-.04,0-.06-.02.17.04-.07,0,.04.02-.04.05-.09.07-.13.02-.03.05-.07.07-.1.01-.02.08-.1.02-.03.13-.16.27-.31.42-.45.06-.05.12-.11.18-.16.04-.03.07-.06.11-.09-.08.06.05-.03.05-.04.15-.11.32-.21.48-.3.04-.02.08-.04.13-.06,0,0,.15-.07.07-.03.05-.02.1-.03.15-.05.12-.04-.06,0,.07,0s-.01,0-.02,0c0,0,.08.02.09.02-.06.01-.09-.05-.02,0,.07.04-.08-.09,0,.01.06.08-.05-.1,0-.01.01.03.03.05.04.08.04.07-.02-.03-.01-.04,0,.01.02.07.03.09,0,.02,0,.08.02.09-.04-.04,0-.1,0,0,0,.03,0,.06,0,.1,0,.14.02-.06,0,.03,0,.02-.06.17-.05.18-.02-.02.05-.1,0,0-.01.02-.02.04-.03.05-.03.04-.02.03.02-.03,0,.02-.07.07-.08.08-.02.01-.12.08-.03.03-.09.05-.17.1-.26.15.11-.05-.02,0-.04.01-.05.02-.11.04-.17.05-.09.02-.17.04-.26.05-.02,0-.16.02-.04,0-.06,0-.12.01-.18.02-.1,0-.21.02-.31.02l.48.37c-.02-.09,0,.1,0-.02,0-.03,0-.07,0-.1,0-.06,0,.05,0,.05,0,0,.01-.06.01-.07,0-.02,0-.03.01-.05.02-.09-.01,0,0,.01,0,0,.04-.08.05-.09.01-.02.09-.12.04-.06s.03-.03.04-.04c.03-.03.07-.06.1-.1.03-.04-.03.02-.03.02.02-.01.04-.03.06-.04.03-.02.06-.04.09-.05.02-.01.14-.05.07-.03s.05-.02.07-.02c.04-.01.08-.01.12-.03.06-.02-.05.01-.05,0,0,0,.07,0,.07,0,.03,0,.07,0,.1,0,.05,0,.03.02,0,0-.04,0-.04,0,0,0h.03s.08.02.1.04c0,0-.11-.06-.02,0,.01,0,.03.02.05.03,0,0,.04.02.04.03s-.09-.08-.02-.02c.03.03.05.05.08.08.08.08-.03-.06.01.01.02.03.04.05.05.08.01.02.02.04.03.06.03.05,0,0,0,0,0,0-.02-.06,0,0,0,.03.02.05.02.08,0,.03.02.06.02.1.03.11,0-.08,0,.01,0,.08,0,.15,0,.23,0,.09.02-.11,0,.02,0,.03-.01.07-.02.1,0,.04-.02.07-.03.11-.02.08.04-.08,0,.02-.02.03-.04.07-.06.1,0,.01-.02.03-.03.04-.02.03-.06.05,0,.02.05-.03-.02.02-.04.04s-.12.1-.06.06c.06-.04-.03.02-.05.03-.04.02-.07.04-.11.06.08-.04.02-.01-.03,0-.02,0-.11.04-.12.03,0,0,.13,0,.03,0-.02,0-.04,0-.05,0-.04,0-.07,0-.11,0-.02,0-.05,0-.07,0-.06,0,.05,0,.04,0-.04,0-.11-.02-.14-.03s-.07-.02-.1-.03c-.02,0-.05-.02-.07-.02,0,0,.08.04.04.01-.07-.04-.15-.08-.22-.13-.02,0-.03-.02-.04-.03.09.06.04.03.01.01-.03-.02-.05-.05-.08-.07-.03-.03-.05-.07-.09-.09-.04-.03.02.02.02.03-.01-.02-.03-.04-.04-.06-.02-.04-.05-.07-.07-.11-.02-.04-.05-.12-.02-.03-.01-.03-.02-.07-.03-.1-.01-.04-.03-.17-.02-.06,0-.08,0-.17,0-.25,0-.02,0-.04,0-.06,0,.02-.02.11,0,.02,0-.04.02-.09.03-.13s.03-.09.04-.13c.03-.09-.03.06.01-.03s.1-.17.15-.25c.03-.05-.01.02-.02.02.01-.02.03-.03.04-.05.03-.04.06-.07.09-.1.03-.03.06-.06.09-.08.02-.02.04-.03.06-.05-.03.03-.05.04,0,0,.07-.05.15-.09.22-.13.06-.03-.08.03-.01,0,.02,0,.04-.01.06-.02.06-.02.12-.03.18-.05,0,0,.08,0,.04,0s.04,0,.04,0c.03,0,.05,0,.08,0,.08,0-.06-.02.02,0,0,0,.07.02.08.02,0,0-.1-.05-.05-.02.02.01.12.08.06.03-.06-.06.02.02.03.03.06.05-.05-.08-.01-.02.01.03.03.06.05.08.03.04-.03-.06-.02-.06,0,0,.02.05.02.05,0,.03.01.06.02.09.02.05-.01-.06,0-.06,0,0,0,.06,0,.06,0,.03,0,.06,0,.09,0,.01,0,.03,0,.04,0,.09-.01,0,0-.03-.03.05-.03.14-.05.19,0,.01-.01.03-.01.04-.02.06-.02,0,.02-.03-.02.01-.04.07-.05.1-.02.03-.04.06-.06.09-.05.08.06-.07,0,0-.02.03-.05.05-.07.08-.01.01-.02.02-.03.03-.06.06.07-.04.02-.01-.03.01-.05.03-.08.05-.01,0-.03.01-.04.02-.07.04.03-.02.04-.01-.01,0-.07.02-.09.03-.03,0-.05,0-.08.02.04,0,.08,0,.02,0-.04,0-.09,0-.13,0-.05,0,.03,0,.04,0-.02,0-.04,0-.06-.01-.04-.01-.09-.02-.13-.03-.02,0-.04-.01-.05-.02-.06-.02.1.05,0,0-.03-.02-.07-.04-.1-.06-.02-.01-.13-.09-.08-.05s-.04-.03-.05-.05c-.04-.03-.07-.07-.11-.11-.01-.01-.03-.03-.04-.04.01.01.06.08,0,0-.02-.03-.04-.06-.06-.1-.01-.02-.06-.14-.04-.08.02.06-.02-.06-.02-.08,0-.03-.03-.15-.02-.08,0,.07,0-.04,0-.06,0-.06.02-.13,0-.04.01-.05.02-.1.04-.14.02-.09-.04.08,0,0,.02-.03.04-.06.05-.09,0,0,.03-.04.03-.04,0,0-.07.08-.03.04.03-.03.05-.06.09-.09.01-.01.02-.02.03-.03.07-.06-.02.02-.03.02,0,0,.07-.05.08-.05.03-.02.06-.04.1-.05.1-.05-.07.02.01,0,.07-.02.14-.04.21-.06.09-.02-.1,0,0,0,.04,0,.08,0,.13,0,.03,0,.06,0,.09,0,.01,0,.05,0,.06,0,0,0-.1-.02-.06,0,.03.01.07.01.11.02.02,0,.12.05.06.02-.08-.04.03.02.05.03.01,0,.07.05.08.05-.03,0-.08-.07-.03-.02.01.01.02.02.03.03s.02.02.03.03c.01.01.02.02.03.03.02.02.01.02,0-.01-.03,0-.02-.04,0,0,0,.02.02.03.03.05.06.1,0-.06.01.02,0,.03.02.07.03.1.03.1-.01-.03,0-.03,0,0,0,.06,0,.07,0,.02,0,.05,0,.07,0,.05.01.01,0,0-.01-.02.01-.05,0,0,0,.02,0,.03-.01.05,0,.04-.02.08-.03.12,0,.01-.02.07,0,0,.02-.07-.01.02-.02.04-.02.03-.03.06-.05.09-.01.02-.09.11-.04.06.05-.05-.03.03-.04.04-.03.03-.07.06-.1.1-.04.04.04-.03.03-.02,0,0-.05.04-.06.04-.03.02-.06.03-.09.05-.07.04.09-.02-.02,0,0,0-.11.03-.11.03,0-.02.11,0,.03,0-.02,0-.03,0-.05,0s-.03,0-.05,0c-.08,0,.04,0,.03,0,0,0-.09-.02-.1-.03-.08-.02-.15-.02-.23-.01-.09,0,.08.03,0,0,0,0-.06-.02-.06-.02,0,0,.09.05.05.02-.01,0-.1-.05-.1-.06,0-.01.07.07.04.03-.01-.02-.03-.03-.05-.05-.09-.08.03.05-.02-.02-.02-.03-.03-.06-.05-.09-.04-.07.02.09,0-.02,0-.02-.01-.03-.01-.05v-.03s-.02-.04-.01,0c-.01.02,0,.05,0,0,0-.02,0-.03,0-.05,0-.12-.03.07,0-.01,0,0,.02-.09.03-.09.03,0-.06.1,0,.03.01-.02.02-.04.04-.06l-.56.23s.06.01.09.02c.02,0,.04.01.05.02-.07-.03-.09-.04-.05-.02.02.02.05.03.07.04.09.05-.04-.04-.01-.01.02.02.05.05.07.07l.02.02s.02.03-.03-.03c.04.01.07.12.09.15.05.08-.04-.11,0-.01,0,.03.02.06.03.08.02.06.02.12.04.17-.04-.12,0-.06,0-.01,0,.03,0,.06,0,.09s0,.06,0,.09c0,.1.03-.12,0,0-.01.05-.04.11-.05.17,0,.04.06-.11,0-.02-.02.03-.04.06-.05.09-.04.08.08-.07.01-.01-.02.02-.04.04-.06.06l-.02.02s-.03.02.03-.03c0,.01-.07.04-.07.05-.08.05.11-.03-.01,0-.04,0-.13.01-.03.01-.03,0-.05,0-.08,0h.05c-.09-.06.06.06-.02,0,.05.04.1.08.11.14,0,.08.01.1,0,.04v.07c0-.05,0-.04-.03.03.02-.03.02-.03,0,0-.02.03-.04.06-.08.08-.18.03-.23.05-.14.05.26.02.51-.24.5-.5-.01-.29-.22-.48-.5-.5-.61-.04-.91.72-.63,1.19s1.02.48,1.45.18c.64-.45.76-1.33.43-2.02-.17-.36-.51-.66-.91-.74-.24-.05-.43.04-.56.23-.33.47-.2,1.11.15,1.52.16.19.38.34.62.4.08.02.16.03.25.04.02,0,.04,0,.07,0,.06-.01-.1-.03-.03,0,.13.04.28.05.42.04,1.05-.1,1.85-1.38,1.29-2.34-.52-.89-1.79-.89-2.51-.27-.41.35-.56.89-.47,1.41s.48,1,.94,1.24,1.09.31,1.56.01c.37-.24.65-.65.72-1.08s0-.95-.34-1.27c-.49-.45-1.23-.37-1.78-.07-.95.52-1.46,1.83-.87,2.79.56.92,1.88,1.28,2.74.58.75-.6.82-1.91.12-2.57-.83-.79-2.2-.3-2.58.71-.09.25-.09.51-.04.77.04.2.27.38.48.37.91-.06,2.04-.24,2.37-1.24.12-.38.08-.84-.12-1.19-.26-.45-.77-.63-1.27-.5s-.99.47-1.39.8c-.18.15-.34.31-.5.48-.17.19-.35.4-.46.63-.21.44-.16.97.23,1.28.34.28.78.36,1.21.29.54-.1.89-.52,1.07-1.01s.14-1.06.09-1.57c-.03-.26-.21-.51-.5-.5-.25.01-.53.22-.5.5h0Z"/>
    <g>
      <path class="cls-3" d="M86.27,96.19c.65,3.66,1.98,7.22,4.01,10.34.16.24.58.37.79.1,1.43-1.85,2.86-3.7,4.29-5.55.39-.5-.31-1.22-.71-.71-1.43,1.85-2.86,3.7-4.29,5.55l.79.1c-2-3.06-3.27-6.51-3.91-10.1-.11-.63-1.08-.36-.96.27h0Z"/>
      <path class="cls-3" d="M91.54,106.27l.92-18.66c.03-.64-.97-.64-1,0l-.92,18.66c-.03.64.97.64,1,0h0Z"/>
    </g>
    <path class="cls-3" d="M219.64,59.39c.35.13.63.45.71.82.06.31-.1.69-.38.89-.32.24-.67.22-.98.04s-.49-.49-.44-.84c-.01.09.02-.08.02-.08.01-.05.03-.1.05-.15-.03.06.02-.04.03-.05.02-.04.04-.08.07-.12.09-.13.24-.28.37-.36.09-.06.17-.09.23-.11.04-.01.09-.03.13-.04.02,0,.13-.02.06-.01.11-.01.2,0,.25,0,.11.02.18.05.22.07.19.1.23.14.38.3.03.03.08.1.13.19s.09.17.1.21c.11.33.13.67,0,.93-.17.37-.5.61-.87.72-.24.07-.35.09-.62.07-.16,0-.38-.07-.52-.14l.23.56c.21-.89,1.06-1.5,1.95-1.45l-.35-.15s.09.07.13.11c.02.02.11.13.06.06.03.04.05.08.08.12.01.02.08.17.05.09.04.1.07.21.08.32-.01-.09,0,.05,0,.08,0,.06,0,.13,0,.19,0,.02,0,.05,0,.07,0-.02.02-.09,0,0-.01.05-.02.09-.03.14-.01.05-.03.11-.05.16s0,0,0,0c-.02.04-.03.07-.05.11-.03.05-.05.1-.08.14-.01.02-.08.11-.03.05-.04.04-.07.08-.11.12-.02.02-.05.04-.07.06-.06.05.05-.04-.01,0-.34.22-.76.23-1.11.05-.23-.12-.36-.21-.53-.41-.11-.13-.21-.33-.26-.53,0,0-.02-.1,0-.03,0-.03,0-.06,0-.08,0-.07,0-.14,0-.2,0-.08.03-.2.08-.32.07-.2.22-.41.39-.57.33-.31.8-.51,1.25-.42.5.11.44.69.23,1.03-.11.17-.29.34-.45.41-.13.06-.21.07-.32.07-.02,0-.14-.02-.09,0-.03,0-.17-.05-.14-.04-.23-.1-.39-.29-.45-.48,0-.03-.04-.19-.03-.14,0-.03,0-.05,0-.08,0-.02.01-.12,0-.06,0-.03.01-.05.02-.08.02-.06-.03.04.01-.04.01-.02.02-.04.04-.06.04-.06-.07.07.02-.03.02-.02.03-.03.05-.05.01-.01.09-.07.03-.02.05-.03.11-.07.16-.09-.07.03.06-.01.08-.02.03,0,.06-.01.09-.02.08-.01-.07,0,0,0,.03,0,.06,0,.09,0,.01,0,.1,0,.05,0-.03,0,.1.03.13.04.05.02,0,0-.02,0,0,0,.11.07.06.03-.04-.03.02.01.02.02.03.03.06.07.09.1l-.15-.35c.08.68-.1,1.37-.57,1.88l.49-.13c-.26-.08-.44-.35-.44-.61l-.5.5c.27.01.54.11.75.29s.51.2.71,0c.18-.18.2-.53,0-.71-.41-.36-.9-.56-1.45-.59-.27-.01-.5.24-.5.5,0,.73.48,1.36,1.17,1.58.16.05.37,0,.49-.13.39-.43.68-.95.8-1.52.06-.28.09-.58.08-.87-.01-.21-.03-.39-.17-.55-.08-.09-.16-.17-.27-.24-.8-.56-2.04-.11-2.33.8-.35,1.06.63,2.23,1.72,2.18,1.16-.06,2.05-1.21,1.83-2.34-.25-1.3-1.79-1.4-2.75-.86-.91.51-1.51,1.59-1.24,2.64.24.95,1.14,1.64,2.09,1.74s1.81-.55,2.1-1.45c.15-.45.15-.99,0-1.44-.09-.25-.22-.48-.41-.68-.1-.11-.23-.23-.38-.27s-.34-.03-.49-.01c-1.2.11-2.27.99-2.56,2.18-.05.2.03.46.23.56,1.12.56,2.6.24,3.29-.84s.23-2.56-.83-3.14c-1.17-.65-2.72.17-2.95,1.47-.25,1.48,1.36,2.64,2.7,1.99.68-.32,1.15-1.11,1.08-1.86-.07-.85-.67-1.51-1.45-1.8-.25-.09-.55.11-.62.35-.08.28.1.52.35.62h0Z"/>
    <g>
      <path class="cls-3" d="M154.62,1.96c-2.03-.82-4.65-1.2-6.59.08-1.42.94-2.94,3.44-1.51,4.97.66.71,1.83,1,2.72,1.25s1.82.31,2.75.44c.72.1,1.32.39,1.8.95.75.88.65,2.21-.26,2.95s-2.18.48-3.2.2c-1.13-.31-2.12-.85-2.98-1.65-.47-.44-1.18.27-.71.71,1.42,1.33,3.45,2.25,5.43,2.22,1.04-.02,2-.42,2.62-1.28s.8-2.09.31-3.1c-.33-.68-.95-1.29-1.63-1.62-.73-.35-1.53-.38-2.32-.47-1.09-.13-2.23-.42-3.22-.89-.38-.18-.72-.4-.83-.83-.15-.55.09-1.16.36-1.64,1.42-2.56,4.65-2.26,6.99-1.31.6.24.86-.73.27-.96h0Z"/>
      <path class="cls-3" d="M158.88,2.64c-.89,2.68-1.65,5.39-2.27,8.14-.06.28.14.68.48.63,1.88-.23,3.69-.74,5.42-1.54.58-.27.08-1.13-.5-.86-1.55.72-3.22,1.19-4.91,1.4l.48.63c.62-2.75,1.38-5.47,2.27-8.14.2-.61-.76-.87-.96-.27h0Z"/>
      <path class="cls-3" d="M163.98,8.35c.24-.44.41-.9.61-1.36.18-.41.37-.86.68-1.19.48-.51,1.28-.87,1.79-.26s.47,1.54.18,2.21c-.31.74-.97,1.23-1.75,1.38-.42.08-.86.04-1.27-.1-.18-.06-.26-.12-.32-.22-.03-.05-.04-.15-.06-.15.03,0-.01.15,0,.08.02-.07,0-.03-.07.11-.14.06-.16.08-.08.06.62-.17.36-1.13-.27-.96s-.7.87-.4,1.37.83.7,1.37.79c1.15.2,2.4-.17,3.18-1.07s1.08-2.22.67-3.35c-.21-.59-.6-1.12-1.2-1.36-.55-.22-1.14-.13-1.67.12-1.36.65-1.64,2.17-2.29,3.38-.31.57.56,1.07.86.5h0Z"/>
      <path class="cls-3" d="M169.89,10.38l.34-4.56.17-2.28c.05-.69,0-1.47.18-2.13.19-.71.98-.3,1.32.06s.55.9.52,1.42c-.08,1.09-1.25,1.77-2.26,1.51-.62-.17-.89.8-.27.96,1.11.29,2.31-.12,3.01-1.03s.67-2.22.04-3.16c-.6-.89-2.06-1.68-2.96-.73-.46.49-.44,1.24-.49,1.87l-.18,2.47-.41,5.61c-.05.64.95.64,1,0h0Z"/>
      <path class="cls-3" d="M174.17,3.89c.08,2.42-.42,4.83-1.49,7.02-.18.38.12.86.56.73.76-.21,1.53-.42,2.29-.63.37-.1.74-.2,1.11-.31.32-.1.58-.27.86-.45.54-.35.04-1.21-.5-.86-.28.18-.51.31-.83.4-.35.1-.7.19-1.04.29-.72.2-1.44.4-2.16.59l.56.73c1.14-2.34,1.7-4.92,1.62-7.52-.02-.64-1.02-.64-1,0h0Z"/>
      <path class="cls-3" d="M174.9,6.51c1.16.43,2.48.3,3.56-.3.23-.13.32-.46.18-.68s-.44-.32-.68-.18-.37.19-.65.28c-.13.04-.27.07-.41.1-.02,0-.16.03-.07.01-.07,0-.14.02-.21.02-.55.04-.93-.02-1.45-.21-.25-.09-.56.1-.62.35-.06.28.09.52.35.62h0Z"/>
      <path class="cls-3" d="M175.4,3.67l3.38-.02c.27,0,.5-.23.5-.5s-.23-.5-.5-.5l-3.38.02c-.27,0-.5.23-.5.5s.23.5.5.5h0Z"/>
      <path class="cls-3" d="M182.16,7.31l3.37.06c.27,0,.5-.23.5-.5s-.23-.49-.5-.5l-3.37-.06c-.27,0-.5.23-.5.5s.23.49.5.5h0Z"/>
      <path class="cls-3" d="M182.69,10.02c1.24.13,2.48.25,3.71.38.27.03.5-.25.5-.5,0-.29-.23-.47-.5-.5-1.24-.13-2.48-.25-3.71-.38-.27-.03-.5.25-.5.5,0,.29.23.47.5.5h0Z"/>
      <path class="cls-3" d="M191.16,4.47c1.4-.43,2.93-.94,4.39-.47,1.24.4,2.11,1.5,1.75,2.83s-1.63,2.15-2.9,2.54c-1.14.35-2.5.41-3.28,1.43-.23.29-.13.91.35.85,3.02-.36,6.06-.05,8.95.92.47.16.86-.51.49-.84-.17-.15-.33-.29-.5-.44-.48-.42-1.19.28-.71.71.17.15.33.29.5.44l.49-.84c-2.96-.99-6.11-1.32-9.21-.96l.35.85c.47-.61,1.2-.77,1.92-.93s1.45-.37,2.12-.71c1.38-.69,2.49-2.01,2.52-3.61.03-1.5-1.04-2.63-2.38-3.14-1.67-.63-3.49-.1-5.11.4-.61.19-.35,1.16.27.96h0Z"/>
      <path class="cls-3" d="M201.5,6.61s.06.09.08.13l-.05-.12c.02.06.04.12.05.18l-.02-.13c0,.07,0,.15,0,.22l.02-.13c-.01.09-.04.17-.07.25l.05-.12c-.03.07-.07.14-.12.21l.08-.1c-.05.06-.11.12-.17.17l.1-.08c-.05.04-.11.08-.17.1l.12-.05c-.06.02-.12.04-.18.05l.13-.02c-.05,0-.1,0-.16,0l.25.07s-.03-.02-.05-.04l.1.08s-.08-.07-.12-.12l.08.1s-.06-.1-.09-.15l.05.12c-.03-.07-.04-.13-.05-.2l.02.13c-.01-.09,0-.17,0-.26l-.02.13c.01-.09.04-.17.07-.25l-.05.12c.03-.08.07-.15.12-.21l-.08.1c.04-.05.09-.1.14-.14l-.1.08s.09-.06.14-.08l-.12.05c.05-.02.11-.04.16-.05l-.13.02c.06,0,.12,0,.18,0l-.13-.02c.06,0,.11.02.17.05l-.12-.05c.06.03.11.06.16.09l-.1-.08c.06.05.11.1.16.16l-.08-.1c.05.07.1.14.13.22l-.05-.12c.04.09.06.17.07.27l-.02-.13c0,.07,0,.15,0,.22l.02-.13c0,.06-.02.12-.05.18l.05-.12c-.02.05-.05.1-.09.15l.08-.1s-.04.05-.07.07h.71c-.06-.06-.11-.12-.16-.18l.08.1c-.09-.12-.17-.26-.23-.4l.05.12c-.06-.14-.1-.29-.12-.44l.02.13c0-.06-.01-.13-.02-.19l-.98.13c.04.26.08.51.12.77.02.12.13.24.23.3.11.06.27.09.39.05s.24-.11.3-.23c.07-.13.07-.25.05-.39-.04-.26-.08-.51-.12-.77-.02-.11-.13-.25-.23-.3s-.21-.07-.32-.06c-.24.03-.44.24-.43.49.02.59.26,1.15.67,1.57.19.19.51.19.71,0,.45-.43.45-1.15.12-1.65-.17-.26-.41-.47-.72-.57s-.64-.05-.9.1c-.52.3-.73.93-.63,1.5.04.25.18.51.38.67.14.11.25.18.44.18.1,0,.19-.01.29-.03.14-.03.28-.09.4-.17.29-.2.52-.5.61-.84s.06-.75-.16-1.04c-.08-.11-.16-.19-.3-.23-.12-.03-.28-.02-.39.05s-.2.17-.23.3-.03.28.05.39h0Z"/>
      <path class="cls-3" d="M205.8,3.23c-1.36.78-1.21,2.67-.44,3.82s2.77,2.48,2.07,4.13c-.35.83-1.32.55-1.97.24-.27-.13-.65-.33-.53-.68.14-.41.7-.79,1.03-1.04,1.41-1.06,3.31-1.97,3.64-3.9.15-.87-.13-1.71-.81-2.28s-1.56-.74-2.3-.26c-.54.35-.04,1.21.5.86.58-.37,1.29.11,1.55.67.35.77-.17,1.67-.69,2.23-.66.71-1.51,1.17-2.29,1.74-.66.48-1.6,1.14-1.67,2.04-.06.85.68,1.36,1.38,1.64.79.31,1.74.51,2.46-.06.55-.43.79-1.15.8-1.83.01-.83-.34-1.55-.84-2.19-.57-.74-1.39-1.38-1.76-2.26-.26-.64-.34-1.59.34-1.99.56-.32.05-1.18-.5-.86h0Z"/>
      <path class="cls-3" d="M182.58,18.49c1.19,1.07,2.86,1.51,4.42,1.14.26-.06.42-.36.35-.62-.07-.27-.35-.41-.62-.35-1.19.28-2.52-.05-3.45-.88-.2-.18-.51-.2-.71,0-.18.18-.2.53,0,.71h0Z"/>
      <path class="cls-3" d="M182.62,22.57c1.5.15,3,.23,4.5.23.64,0,.64-1,0-1-1.5,0-3-.08-4.5-.23-.27-.03-.5.25-.5.5,0,.29.23.47.5.5h0Z"/>
      <path class="cls-3" d="M192.34,21.62c1.36.16,2.72.32,4.09.48.27.03.5-.25.5-.5,0-.3-.23-.47-.5-.5-1.36-.16-2.72-.32-4.09-.48-.27-.03-.5.25-.5.5,0,.3.23.47.5.5h0Z"/>
      <path class="cls-3" d="M194.31,17.67c0,2.24,0,4.48,0,6.72,0,.64,1,.64,1,0,0-2.24,0-4.48,0-6.72,0-.64-1-.64-1,0h0Z"/>
      <path class="cls-3" d="M200.5,17.96l-.72,5.03c-.06.4-.13.8-.17,1.21-.03.31.02.64.26.87.55.52,1.49-.14,1.11-.83-.31-.56-1.18-.06-.86.5l.03.05-.07-.25v.05c.02-.08.05-.17.07-.25.33.2.48.2.45-.02v-.09c.02-.14.05-.27.06-.4l.11-.77.23-1.61.46-3.22c.04-.27-.07-.53-.35-.62-.23-.07-.58.08-.62.35h0Z"/>
      <path class="cls-3" d="M204.36,19.06c-.44,1.52-.97,3.04-1.31,4.58-.25,1.12-.25,2.59.9,3.23.85.47,1.97.28,2.7-.34.8-.69.85-1.85.2-2.66-.69-.87-2.1-1.27-3.04-.56-.22.16-.32.43-.18.68.12.21.47.34.68.18,1.02-.77,2.77.75,1.61,1.65-.43.34-1.17.45-1.62.08-.7-.57-.38-1.76-.18-2.48.38-1.37.79-2.74,1.19-4.1.18-.62-.78-.88-.96-.27h0Z"/>
    </g>
    <g>
      <path class="cls-3" d="M211.69,53.58l2.53,3.51c.39.54.84,1.07,1.12,1.67.31.66.15,1.18-.47,1.56-1.11.69-2.43,1.16-3.63,1.64-1.33.53-2.69,1.01-4.05,1.44-.43.14-.47.67-.12.91.67.48,1.65.22,2.02-.51.29-.57-.57-1.08-.86-.5-.14.28-.4.33-.65.15l-.12.91c1.56-.49,3.1-1.04,4.61-1.67.75-.31,1.49-.63,2.23-.97.58-.27,1.22-.52,1.67-.99,1.07-1.09.35-2.45-.39-3.48-1-1.39-2.01-2.79-3.01-4.18-.37-.52-1.24-.02-.86.5h0Z"/>
      <path class="cls-3" d="M183.81,29.04c-1.36,3.04-1.75,6.4-1.06,9.67.66,3.08,2.28,5.84,4.42,8.13,4.34,4.63,10.4,7.4,16.26,9.56,4.05,1.5,8.19,2.75,12.36,3.83v-.96c-.29.05-.58.1-.87.15-.63.11-.36,1.07.27.96.29-.05.58-.1.87-.15.5-.09.45-.85,0-.96-6.61-1.71-13.29-3.75-19.39-6.86-5.22-2.66-10.53-6.49-12.49-12.27-1.17-3.46-1-7.25.49-10.6.26-.58-.6-1.09-.86-.5h0Z"/>
    </g>
  </g>
</svg>