<?xml version="1.0" encoding="UTF-8"?>
<svg id="Layer_2" data-name="Layer 2" xmlns="http://www.w3.org/2000/svg" viewBox="0 0 265.69 159.37">
  <defs>
    <style>
      .cls-1 {
        fill: #a7a9ac;
      }

      .cls-1, .cls-2, .cls-3, .cls-4 {
        stroke-width: 0px;
      }

      .cls-2 {
        fill: #ed1c24;
      }

      .cls-3 {
        fill: #231f20;
      }

      .cls-4 {
        fill: #00aeef;
      }
    </style>
  </defs>
  <g id="Layer_1-2" data-name="Layer 1">
    <g>
      <path class="cls-1" d="M251.72,130.35c4.32-3.81,8.5-7.78,12.53-11.89.89-.91,2.1-2.08.96-3.34-.36-.4-.89-.69-1.32-1-.54-.38-1.08-.74-1.63-1.1-1.11-.72-2.26-1.44-3.46-2.01-1.92-.9-3.74-1.89-5.47-3.13-.44-.32-1.11-.08-1.37.36-.3.5-.08,1.05.36,1.37,1.67,1.21,3.44,2.21,5.32,3.07.76.35,1.49.77,2.2,1.19.88.53,1.73,1.08,2.58,1.66.25.17.49.34.74.52.13.09.26.18.39.28l.1.07c.11.08.13.09.06.04h.01c.1.04.1-.06,0-.29,0,0-.35.36-.29.3-.25.26-.5.51-.75.77-1.87,1.9-3.77,3.77-5.7,5.61-2.18,2.08-4.41,4.11-6.67,6.11-.97.85.45,2.26,1.41,1.41h0Z"/>
      <path class="cls-1" d="M32.16,103.05c-3.54,1.58-6.89,3.56-9.98,5.89-.72.54-1.6,1.09-2.17,1.79-.67.81-.44,1.77.2,2.51,1.36,1.58,2.91,3.03,4.39,4.49,1.67,1.65,3.37,3.26,5.1,4.85.95.87,2.37-.54,1.41-1.41-1.76-1.61-3.49-3.26-5.19-4.93-.85-.84-1.7-1.69-2.53-2.55-.42-.43-.83-.86-1.25-1.29-.1-.11-.39-.54-.53-.56-.08-.16-.11-.1-.09.18.08-.09.17-.16.26-.24,3.34-2.9,7.36-5.2,11.38-6.99.49-.22.61-.94.36-1.37-.3-.51-.87-.58-1.37-.36h0Z"/>
      <path class="cls-1" d="M20.48,113.29c15.07,3.55,30.62,3.5,46.01,3.4,15.99-.1,31.98-.21,47.98-.31,31.89-.21,63.8-.75,95.69-.41,17.78.19,35.57.83,53.28,2.56,1.28.12,1.27-1.88,0-2-31.63-3.08-63.44-2.7-95.18-2.49-31.82.2-63.64.41-95.47.61-17.28.11-34.84.7-51.78-3.29-1.25-.29-1.79,1.63-.53,1.93h0Z"/>
    </g>
    <g>
      <path class="cls-1" d="M125.74,17.99c1.65-3.95,3.65-7.77,5.92-11.4.57-.91,1.16-1.81,1.76-2.7.28-.41.64-.83.88-1.26.12-.22.2-.07,0-.17.14.07.25.25.35.37,1.46,1.84,2.83,3.75,4.25,5.62,1.6,2.12,3.2,4.23,4.8,6.35.33.43.86.65,1.37.36.42-.25.69-.93.36-1.37-1.6-2.12-3.2-4.23-4.8-6.35-.8-1.06-1.6-2.12-2.4-3.17-.75-.99-1.45-2.04-2.26-2.98-.76-.87-1.98-1.09-2.87-.28-.8.72-1.38,1.85-1.98,2.74-1.35,2.04-2.61,4.14-3.77,6.29-1.3,2.41-2.47,4.89-3.53,7.42-.21.5.22,1.1.7,1.23.58.16,1.02-.2,1.23-.7h0Z"/>
      <path class="cls-1" d="M127.06,140.29c1.03,1.97,2.2,3.86,3.5,5.66.66.92,1.36,1.81,2.08,2.69.38.46.78.92,1.18,1.37.33.37.65.77,1.09,1.01,1.17.62,2.06-.35,2.8-1.13.82-.87,1.63-1.75,2.43-2.63,1.62-1.8,3.2-3.63,4.74-5.5.81-.99-.59-2.41-1.41-1.41-1.36,1.65-2.75,3.28-4.18,4.88-.69.77-1.38,1.54-2.09,2.3-.38.41-.76.82-1.14,1.22-.01.01-.47.46-.46.48.26.09.33.1.21,0-.06-.06-.13-.13-.19-.2-2.7-2.91-4.99-6.21-6.83-9.73-.6-1.14-2.32-.13-1.73,1.01h0Z"/>
      <path class="cls-1" d="M134.03,3.54c-.64,18.95-1.01,37.9-1.11,56.86s.07,37.72.5,56.57c.24,10.64.57,21.27.99,31.9.05,1.28,2.05,1.29,2,0-.73-18.94-1.2-37.89-1.4-56.85-.2-18.86-.13-37.72.21-56.57.19-10.64.46-21.28.82-31.91.04-1.29-1.96-1.29-2,0h0Z"/>
    </g>
    <g>
      <path class="cls-2" d="M36.45,26.52c3.42,11.83,7.38,23.57,12.6,34.74,3.78,8.09,8.27,15.91,13.97,22.81,4.46,5.4,9.71,10.12,15.66,13.82,4.04,2.51,8.04,5.1,12.05,7.65,3.06,1.95,6.17,3.85,9.48,5.36,7.65,3.48,16,4.21,24.31,4.25,1.53,0,3.06,0,4.58-.04.77-.02,1.54-.04,2.32-.06.3,0,.62-.06.91-.01s.49.14.79.16c2.18.13,4.39.1,6.58.07,4.2-.06,8.39-.34,12.55-.96,8.1-1.19,15.92-3.83,23-7.96,8.57-4.99,15.91-11.86,22.4-19.3,4.19-4.8,8.07-9.88,11.74-15.09,3.88-5.5,7.5-11.18,10.31-17.31,2.29-4.99,4.05-10.19,5.21-15.55s1.71-10.36,2.13-15.58c.22-2.72.4-5.45.57-8.17.08-1.29-1.92-1.28-2,0-.68,10.5-1.42,21.04-4.78,31.09-4.06,12.12-11.5,22.85-19.33,32.83-6.43,8.19-13.61,16.01-22.14,22.06-6.7,4.74-14.16,8.2-22.16,10.04-3.89.89-7.85,1.42-11.83,1.69-2.07.14-4.15.21-6.22.23-1.07,0-2.14,0-3.21-.01-.98-.01-2.06.06-3.01-.13-1.41-.28-3.02-.04-4.47-.02s-2.92.04-4.37.02c-2.5-.02-5-.1-7.49-.3-3.83-.3-7.65-.91-11.31-2.1-7.09-2.3-13.26-6.77-19.48-10.75-3.44-2.21-7.01-4.24-10.3-6.68-2.71-2.02-5.24-4.29-7.58-6.73-5.64-5.88-10.15-12.74-13.96-19.91-5.26-9.91-9.25-20.46-12.68-31.12-1.02-3.18-1.99-6.37-2.91-9.58-.36-1.23-2.29-.71-1.93.53h0Z"/>
      <path class="cls-2" d="M48.4,37.79c-2.3-3.99-4.96-7.78-7.98-11.26-.36-.41-.72-.82-1.08-1.22s-.74-.9-1.22-1.16c-1.15-.62-2,.27-2.41,1.27-.92,2.24-1.76,4.53-2.59,6.8-.96,2.65-1.88,5.31-2.77,7.99-.4,1.23,1.53,1.75,1.93.53,1.37-4.16,2.83-8.29,4.41-12.38.19-.48.37-.97.56-1.45.1-.26.2-.52.31-.78,0-.01.08-.15.08-.19l.08-.15-.52.14c-.03.05.84.91.94,1.02.37.4.72.81,1.08,1.23,1.29,1.5,2.51,3.07,3.66,4.68,1.36,1.91,2.62,3.9,3.79,5.93.64,1.11,2.37.11,1.73-1.01h0Z"/>
      <path class="cls-2" d="M233.97,25.61c-.76-2.12-1.65-4.19-2.68-6.18-.52-1-1.07-1.99-1.66-2.95-.31-.52-.64-1.03-.97-1.53-.28-.42-.54-.89-.94-1.21-1.04-.82-2.03-.05-2.86.64-.92.76-1.83,1.54-2.73,2.32-1.83,1.59-3.62,3.22-5.37,4.89-.93.89.48,2.3,1.41,1.41,1.49-1.42,3.02-2.82,4.56-4.19.78-.68,1.56-1.36,2.35-2.03.43-.36.85-.72,1.28-1.08,0,0,.46-.37.46-.36-.28-.09-.37-.08-.27.04.06.09.13.19.19.28,2.19,3.26,3.98,6.78,5.31,10.48.43,1.2,2.36.68,1.93-.53h0Z"/>
    </g>
    <g>
      <g>
        <path class="cls-2" d="M32.34,11.07l6.63-.66c.27-.03.5-.21.5-.5,0-.25-.23-.53-.5-.5l-6.63.66c-.27.03-.5.21-.5.5,0,.25.23.53.5.5h0Z"/>
        <path class="cls-2" d="M31.01,15.56l7.81-1.63c.63-.13.36-1.1-.27-.96l-7.81,1.63c-.63.13-.36,1.1.27.96h0Z"/>
      </g>
      <g>
        <path class="cls-2" d="M43.56,8.06c2.8,3.04,5.63,6.05,8.5,9.03.45.46,1.15-.24.71-.71-2.87-2.98-5.7-5.99-8.5-9.03-.44-.47-1.14.23-.71.71h0Z"/>
        <path class="cls-2" d="M50.72,6.49c-2.86,3.86-5.42,7.95-7.65,12.21-.3.57.56,1.08.86.5,2.23-4.26,4.78-8.34,7.65-12.21.38-.52-.48-1.02-.86-.5h0Z"/>
      </g>
      <path class="cls-2" d="M54.82,1.02c.76-.12,1.55.23,2.05.8.53.6.62,1.41.37,2.15s-.88,1.24-1.63,1.47c-.86.26-1.75.41-2.41,1.06-.33.32-.06.82.35.85,1.64.13,3.28.29,4.92.47.27.03.5-.25.5-.5,0-.29-.23-.47-.5-.5-1.64-.18-3.28-.34-4.92-.47l.35.85c.72-.71,1.91-.67,2.79-1.13s1.5-1.4,1.65-2.38c.34-2.19-1.64-3.97-3.78-3.64-.27.04-.41.38-.35.62.08.29.35.39.62.35h0Z"/>
      <path class="cls-2" d="M4.59,22.51l.07.02-.35-.35-.02-.1.35-.35-.08.03.39.05c-.1-.06-.22-1.17-.25-1.31-.1-.51-.18-1.03-.27-1.54-.16-.99-.28-1.98-.38-2.97-.2-2.04-.29-4.09-.26-6.14.02-1.56.08-3.52,1.29-4.69.86-.83,2.64-1.15,3.36.03.34.55,1.2.05.86-.5-.72-1.17-2.16-1.48-3.42-1.1-1.49.45-2.39,1.74-2.77,3.2-.49,1.87-.36,3.93-.29,5.84.08,2.13.29,4.26.61,6.37.09.6.19,1.19.3,1.78.09.49.12,1.11.35,1.55.37.73,1.33.38,1.19-.41-.03-.16-.19-.31-.35-.35l-.07-.02c-.62-.15-.89.81-.27.96h0Z"/>
      <path class="cls-2" d="M.62,14.04c3.31-.98,6.66-1.82,10.05-2.51.63-.13.36-1.09-.27-.96-3.39.69-6.74,1.53-10.05,2.51-.62.18-.35,1.15.27.96h0Z"/>
      <path class="cls-2" d="M14.48,3.82c-1.35,4.42-2.11,9.02-2.24,13.65-.05,1.77-.04,3.9,1.27,5.26,1.05,1.09,2.87,1.45,4.01.31.46-.45-.25-1.16-.71-.71-1.2,1.19-2.82-.24-3.24-1.44-.58-1.65-.35-3.61-.24-5.32.26-3.9.98-7.75,2.11-11.48.19-.62-.78-.88-.96-.27h0Z"/>
      <path class="cls-2" d="M16.74,8.83c1.99,3.09,4.45,5.86,7.28,8.21.49.41,1.2-.3.71-.71-2.77-2.29-5.18-4.98-7.12-8-.35-.54-1.21-.04-.86.5h0Z"/>
      <path class="cls-2" d="M21.43,5.57l-3.94,14.96c-.16.62.8.89.96.27l3.94-14.96c.16-.62-.8-.89-.96-.27h0Z"/>
      <path class="cls-2" d="M23.23,2.42c2.86,1.99,4.08,5.44,4.62,8.75.31,1.89.53,3.86.55,5.77.02,1.63-.42,3.65-2.14,4.29-.6.23-.34,1.19.27.96,1.68-.63,2.58-2.25,2.8-3.97.14-1.1.04-2.2-.05-3.3s-.2-2.22-.36-3.32c-.53-3.83-1.88-7.75-5.18-10.05-.53-.37-1.03.5-.5.86h0Z"/>
    </g>
    <g>
      <path class="cls-3" d="M222.58,111.23c-.3,2.81-.31,5.64-.03,8.45.03.32.53.32.5,0-.28-2.81-.27-5.64.03-8.45.03-.32-.47-.32-.5,0h0Z"/>
      <g>
        <path class="cls-3" d="M213.9,121.22c.66,1.45,1.38,2.88,2.17,4.27.38.67.78,1.33,1.19,1.98.33.52.71,1.04,1.29,1.29.29.13.55-.3.25-.43-.62-.27-.95-.85-1.29-1.4-.4-.64-.78-1.28-1.15-1.94-.74-1.31-1.41-2.65-2.03-4.02-.13-.29-.56-.04-.43.25h0Z"/>
        <path class="cls-3" d="M217.65,121.45l-2.66,4.65-.67,1.16c-.16.28-.45.62-.49.95-.07.61.8.48.63,0-.04-.11-.13-.18-.24-.18h-.04c-.32-.01-.32.49,0,.5h.04c-.08-.06-.16-.12-.24-.18l.05-.15.19-.03h-.04s.1.06.15.1c-.04-.07.36-.65.42-.74l.47-.81.97-1.68,1.9-3.31c.16-.28-.27-.53-.43-.25h0Z"/>
        <path class="cls-3" d="M221.03,125.04l2.93-.4c.43-.06.9-.08,1.32-.2.29-.08.58-.26.63-.58s-.43-.45-.48-.13c-.04.27-.48.27-.69.3l-1.28.17-2.56.35c-.32.04-.18.53.13.48h0Z"/>
        <path class="cls-3" d="M222.94,121.48c-.31,1.39-.4,2.83-.26,4.25.03.32.08.65.13.97.05.28.07.66.23.9.29.43.92,0,.59-.4-.2-.25-.56.11-.35.35l.03.04-.07-.18c.19,0,.25-.07.19-.18-.01-.06-.03-.11-.04-.17-.02-.11-.05-.22-.07-.33-.05-.26-.09-.52-.12-.78-.06-.47-.09-.94-.09-1.42-.01-.98.09-1.96.31-2.92.07-.31-.41-.45-.48-.13h0Z"/>
        <path class="cls-3" d="M227.32,119.93c.16,2.54.43,5.07.83,7.59.04.24.44.24.48,0,.11-.68.28-1.35.52-1.99.14-.37.3-.75.5-1.09s.59-.68.74-.11c.18.7.16,1.52.18,2.24.02.8.01,1.6-.03,2.4-.02.32.48.32.5,0,.06-1.1.06-2.19,0-3.29-.04-.59.06-1.81-.61-2.13-.71-.34-1.17.55-1.42,1.06-.42.88-.71,1.81-.86,2.78h.48c-.38-2.47-.65-4.96-.81-7.46-.02-.32-.52-.32-.5,0h0Z"/>
      </g>
    </g>
    <g>
      <path class="cls-3" d="M131.19,103.84c2.05-.45,4.11-.84,6.18-1.15.27-.04.41-.38.35-.62-.08-.29-.35-.39-.62-.35-2.07.32-4.13.7-6.18,1.15-.63.14-.36,1.1.27.96h0Z"/>
      <g>
        <path class="cls-3" d="M122.7,101.7c1.18,2.19,2.41,4.36,3.69,6.5.16.28.6.02.43-.25-1.28-2.14-2.51-4.31-3.69-6.5-.15-.28-.58-.03-.43.25h0Z"/>
        <path class="cls-3" d="M125.61,100.71c-1.08,2.21-1.88,4.55-2.36,6.96-.06.31.42.45.48.13.48-2.37,1.25-4.67,2.31-6.84.14-.29-.29-.54-.43-.25h0Z"/>
        <path class="cls-3" d="M127.75,97.98c.74-.13,1.45.51,1.41,1.25-.04.95-.93,1.55-1.67,1.98-.21.12-.13.47.13.47.72-.02,1.44,0,2.16.06.32.03.32-.47,0-.5-.72-.06-1.44-.08-2.16-.06l.13.47c.93-.55,2-1.38,1.91-2.6-.07-1.01-1.06-1.73-2.04-1.55-.32.06-.18.54.13.48h0Z"/>
      </g>
    </g>
    <path class="cls-4" d="M222.33,39.53c-5.57,8.6-11.3,17.1-17.2,25.49s-11.85,16.52-18,24.6c-3.47,4.56-6.99,9.08-10.56,13.56-.34.42-.41,1,0,1.41.35.35,1.08.42,1.41,0,6.37-7.99,12.59-16.11,18.65-24.34s12.01-16.65,17.77-25.14c3.27-4.82,6.49-9.68,9.66-14.58.7-1.08-1.03-2.09-1.73-1.01h0Z"/>
    <g>
      <path class="cls-3" d="M176.41,111.1c.29,2.99.32,6,.1,9-.02.32.48.32.5,0,.22-3,.19-6.01-.1-9-.03-.32-.53-.32-.5,0h0Z"/>
      <g>
        <path class="cls-3" d="M173.51,121.23c.69,1.4,1.4,2.79,2.13,4.16.36.68.73,1.35,1.1,2.02.18.32.35.64.53.95.09.16.19.33.29.48.05.08.1.16.16.23.07.17.21.19.4.04l.04.3.02-.04c.16-.28-.27-.53-.43-.25l-.02.04c-.06.1-.03.22.04.3.13.16.39.19.53.01.19-.25-.04-.51-.18-.71-.55-.79-.97-1.67-1.43-2.52-.95-1.74-1.86-3.5-2.73-5.28-.14-.29-.57-.04-.43.25h0Z"/>
        <path class="cls-3" d="M177.4,122.31c-1.43,2.52-2.91,5-4.45,7.45-.17.27.26.52.43.25,1.54-2.45,3.03-4.93,4.45-7.45.16-.28-.27-.53-.43-.25h0Z"/>
      </g>
    </g>
    <g>
      <path class="cls-3" d="M128.21,40.71l7.7-.09c.64,0,.64-1.01,0-1l-7.7.09c-.64,0-.64,1.01,0,1h0Z"/>
      <g>
        <path class="cls-3" d="M110.35,36.24l2.29,4.24,1.11,2.05c.31.58.58,1.32,1.14,1.7.27.18.52-.25.25-.43-.31-.21-.46-.59-.63-.91l-.55-1.02-1.04-1.91-2.14-3.96c-.15-.28-.59-.03-.43.25h0Z"/>
        <path class="cls-3" d="M114.68,36.16c-1.17,2.23-2.25,4.52-3.22,6.85-.1.25.25.4.42.24.08-.08.16-.15.25-.23.24-.22-.12-.57-.35-.35-.08.08-.16.15-.25.23l.42.24c.96-2.29,2.02-4.53,3.17-6.73.15-.28-.28-.54-.43-.25h0Z"/>
        <path class="cls-3" d="M115.7,39.92l3.08-.16c.32-.02.32-.52,0-.5l-3.08.16c-.32.02-.32.52,0,.5h0Z"/>
        <path class="cls-3" d="M117.08,37.01c0,1.78.14,3.55.43,5.31.05.32.53.18.48-.13-.28-1.71-.42-3.44-.41-5.17,0-.32-.5-.32-.5,0h0Z"/>
        <path class="cls-3" d="M119.2,36.18l.41,4.36c.06.67.07,1.37.2,2.03.06.36.27.78.7.73.12-.01.2-.07.24-.18.32-.86.63-1.72.95-2.59l-.24.18c.53.06.66.89.72,1.3.11.72.14,1.45.09,2.18l.38-.22c-.08-.03-.14-.09-.16-.17-.14-.29-.57-.04-.43.25.08.16.18.27.34.35.17.09.36-.02.38-.22.06-.92.04-1.9-.2-2.8-.16-.57-.47-1.11-1.11-1.18-.11-.01-.21.09-.24.18-.32.86-.63,1.72-.95,2.59l.24-.18c-.32.03-.45-2.84-.48-3.2l-.32-3.43c-.03-.32-.53-.32-.5,0h0Z"/>
        <path class="cls-3" d="M121.84,33.97c.95,1.66,1.63,3.45,1.99,5.33.18.93.28,1.88.3,2.83.02.85.12,2.59-1.18,2.47-.32-.03-.32.47,0,.5,2.28.2,1.71-3.55,1.54-4.84-.3-2.31-1.07-4.52-2.22-6.54-.16-.28-.59-.03-.43.25h0Z"/>
        <path class="cls-3" d="M124.73,31.52c.83-.17,1.59.68,1.52,1.47-.07.85-.86,1.46-1.65,1.6-.21.04-.24.36-.06.46.75.4,1.56.63,2.41.7.32.02.32-.48,0-.5-.75-.06-1.49-.27-2.15-.63l-.06.46c1.05-.18,2.02-1.09,2.02-2.2s-1.06-2.06-2.16-1.84c-.31.07-.18.55.13.48h0Z"/>
        <path class="cls-3" d="M109.7,34.28c-1.25,2.25-1.87,4.91-1.23,7.45.27,1.08.77,2.12,1.47,2.99.55.68,1.58,1.88,2.55,1.31.28-.16.03-.59-.25-.43-.88.51-2.17-1.48-2.51-2.07-.47-.81-.78-1.71-.92-2.64-.35-2.2.26-4.44,1.32-6.36.16-.28-.28-.53-.43-.25h0Z"/>
      </g>
    </g>
    <g>
      <path class="cls-3" d="M225.52,39.8c-.08-.25-.22-.59-.12-.86,0-.02.06-.08.08-.1.07-.06,0-.01.07-.04-.05,0-.04,0,.02,0-.02,0-.04,0-.05-.02l-.25-.43c-.02.58-.32,1.14-.81,1.53-.21.17-.5.32-.8.37-.02,0-.13-.02-.16,0,.04-.04.1.08.12.09.03,0-.01.03,0-.03-.02.05.01-.03.01-.04.03-.1.06-.19.1-.28.25-.59.7-1.15,1.23-1.52.14-.1.29-.2.45-.28,0,0,.12-.06.06-.03,0,0,.08-.05.03-.02.09-.05.15.21-.12-.07-.05-.05-.04-.17-.05-.06,0,0-.01.1,0,.03,0,.04-.02.09-.03.13-.02.08-.04.17-.06.25-.05.19-.11.37-.18.56-.26.67-.67,1.28-1.17,1.78-.21.21-.49.47-.77.5,0,0-.16-.02-.07,0-.04-.01-.09-.06-.06-.02-.02-.02-.04-.06-.05-.08.03.08,0,0,0-.02,0-.08,0-.04,0-.01,0-.05,0-.1,0-.15,0,.07,0-.02,0-.03,0-.04.02-.07.02-.11.02-.08.05-.16.08-.24.04-.1.11-.25.18-.39.16-.31.32-.61.52-.9.17-.25.37-.49.62-.69.06-.05.23-.15.34-.21.05-.02.07-.03.14-.06.09-.03.18-.06.27-.05.03,0-.04,0-.03-.01.04.03.05.03.03,0-.03-.02-.02-.02.02.02.06.04.03.03,0,0,0,.01.06.13.03.05.01.03.02.06.03.09,0,0,.02.15.01.06,0,.09,0,.17,0,.26,0,.01-.01.1,0,.02,0,.04-.02.08-.03.12-.02.09-.05.18-.08.27-.06.16-.12.3-.21.46-.38.68-.94,1.2-1.66,1.52l.73.3c-.15-.69-.36-1.58.07-2.2.05-.07-.04.05.01-.02.03-.03.06-.06.09-.09.02-.02.14-.12.09-.09.06-.05.13-.08.19-.12,0,0,.1-.05.05-.03-.03.01.08-.03.1-.04.04-.01.08-.02.12-.03.02,0,.1-.01,0,0,.06,0,.13,0,.19,0,.05,0,.15.04.21.09.07.05.13.15.15.21.02.07.04.15.04.16,0,.1,0,.21,0,.31,0-.03.01-.06,0,.04,0,.04-.02.08-.03.11-.02.07-.05.17-.07.22-.05.14-.16.32-.26.45-.19.24-.45.46-.73.53-.25.06-.45-.04-.62-.26-.06-.08-.14-.24-.17-.38s-.04-.28-.02-.46c.07-.45.33-.86.59-1.22l-.68.18c.28.12.46.28.6.52.08.14.1.21.14.38.02.09,0-.06,0,.03,0,.04,0,.07,0,.11s0,.07,0,.11c0,.01-.02.12,0,.06-.05.27-.18.47-.39.66-.18.16-.46.26-.7.27l.43.25c-.47-.98-.38-2.16.19-3.08l-.43.25c.17-.02.21-.02.35.03-.06-.02.08.04.08.04.07.04.08.05.12.09.18.17.29.35.34.58.03.11.04.26.03.43,0,.15-.04.3-.08.44-.09.34-.23.67-.38.99l.56-.23c-.09-.03,0,.01-.08-.03,0,0-.12-.09-.07-.05-.1-.09-.1-.1-.15-.19-.06-.11-.08-.28-.04-.37.05-.13.13-.21.3-.29.03-.02.03-.02,0,0,.02,0,.05-.02.07-.02.02,0,.05-.01.08-.02-.04,0-.04,0,0,0,.02,0,.15,0,.11,0-.03,0,.11.03.13.04l-.3-.23c.28.59.27,1.3-.02,1.89l.3-.23c.07-.01-.08,0-.08,0,.06,0-.03,0-.06-.01-.08-.02-.11-.03-.2-.1s-.17-.16-.18-.32c0,.06,0-.04,0-.06,0-.04,0-.04,0,0v-.05s.07-.15.08-.17c.05-.08.1-.11.14-.14.1-.06.1-.06.24-.08.27-.05.42-.37.35-.62-.08-.28-.35-.39-.62-.35-.82.14-1.41,1.09-1.13,1.89.15.41.45.73.85.89.18.08.37.12.56.12.12,0,.25-.01.36-.06.18-.07.25-.22.32-.38.36-.81.37-1.73.02-2.54-.11-.26-.27-.4-.55-.45-.22-.04-.43-.03-.65.02-.37.09-.71.33-.92.66-.54.82-.03,1.95.87,2.23.19.06.48-.04.56-.23.29-.65.59-1.32.6-2.05,0-.61-.24-1.24-.71-1.65-.22-.19-.49-.34-.78-.4-.15-.03-.29-.04-.43-.02-.29.03-.42.21-.55.44-.31.56-.47,1.19-.51,1.82-.04.72.12,1.42.43,2.07.07.15.27.25.43.25.95-.02,1.86-.71,2.05-1.66s-.31-1.97-1.2-2.35c-.27-.11-.51-.06-.68.18-.62.87-1.06,2.05-.42,3.03.3.46.76.76,1.31.8s1.08-.26,1.46-.64c.68-.68,1.15-1.88.61-2.78s-1.74-.83-2.49-.23c-1.03.83-.83,2.28-.58,3.42.07.34.46.42.73.3.87-.4,1.61-1.11,2.06-1.96.39-.75.76-2.02-.12-2.6-.47-.31-1.06-.14-1.52.1-.41.21-.75.54-1.03.9s-.51.75-.73,1.16-.43.86-.47,1.35c-.04.52.22,1.01.71,1.2.52.21,1.08-.02,1.5-.34.82-.62,1.43-1.53,1.82-2.48.18-.44.39-.99.35-1.46-.03-.33-.22-.62-.54-.72-.27-.09-.55-.01-.8.11-.87.41-1.61,1.19-2.03,2.04-.27.54-.59,1.34.04,1.77.48.34,1.17.1,1.64-.15.96-.5,1.59-1.53,1.63-2.6,0-.16-.1-.36-.25-.43-.54-.24-1.11-.05-1.44.44-.35.51-.2,1.16-.03,1.71.2.61,1.16.35.96-.27h0Z"/>
      <g>
        <path class="cls-3" d="M232.55,35.63c-.94-.64-1.61,1.83-1.82,2.37-.58,1.49-1.01,3.05-1.13,4.65-.11,1.45.04,2.96.55,4.33.2.53,1,2.66,1.85,1.81.23-.23-.12-.58-.35-.35s-.93-1.38-.98-1.5c-.19-.48-.33-.97-.42-1.48-.19-.99-.23-2.01-.13-3.02.1-1.1.37-2.19.71-3.24.11-.33,1.22-3.32,1.47-3.15s.52-.25.25-.43h0Z"/>
        <path class="cls-3" d="M232.67,41c.56,1.84,1.28,3.63,2.15,5.35.06.13.23.15.34.09.24-.12.36-.39.26-.65-.12-.3-.6-.17-.48.13.04.04.02.07-.03.08l.34.09c-.84-1.68-1.54-3.43-2.1-5.23-.09-.31-.58-.18-.48.13h0Z"/>
        <path class="cls-3" d="M234.86,41.12c-.91,1.77-1.91,3.5-3,5.17-.11.17.04.36.22.38.09,0,.18.02.26.03.32.03.32-.47,0-.5-.09,0-.18-.02-.26-.03l.22.38c1.09-1.67,2.09-3.39,3-5.17.15-.29-.29-.54-.43-.25h0Z"/>
        <path class="cls-3" d="M236.37,43.34c.84-.17,1.7-.17,2.54-.01.13.03.27-.04.31-.17.03-.12-.04-.28-.17-.31-.93-.18-1.88-.18-2.81.01-.32.06-.18.55.13.48h0Z"/>
        <path class="cls-3" d="M237.33,41.47v3.83c0,.22.26.32.42.18.07-.06.14-.13.21-.19.24-.22-.12-.57-.35-.35-.07.06-.14.13-.21.19l.43.18v-3.83c0-.32-.49-.32-.49,0h0Z"/>
        <path class="cls-3" d="M239.87,40.61c.17,1.4.23,2.81.18,4.22,0,.2.29.35.43.18.2-.25.41-.5.62-.75.1-.12.21-.25.31-.37.02-.02.14-.2.18-.2-.06,0-.01.04,0,.09.09.66.13,1.32.07,1.99-.03.32.47.32.5,0,.04-.48.04-.97,0-1.45-.03-.32-.02-.8-.28-1.04-.31-.28-.61.01-.82.25-.32.37-.63.74-.93,1.13l.43.18c.05-1.41,0-2.82-.18-4.22-.04-.32-.54-.32-.5,0h0Z"/>
        <path class="cls-3" d="M243.24,45.81l-.96,2.15c-.06.12-.04.27.09.34.11.06.29.03.34-.09l.96-2.15c.06-.12.04-.27-.09-.34-.11-.06-.29-.03-.34.09h0Z"/>
        <path class="cls-3" d="M246.37,39.97c-.86,1.12-1.27,2.55-1.19,3.95.04.69.2,1.37.47,2.01.11.26.23.6.49.75.23.14.53.08.65-.17.14-.29-.29-.54-.43-.25.03-.06-.13-.27-.15-.32-.06-.13-.12-.25-.17-.38-.09-.24-.17-.49-.23-.74-.12-.53-.16-1.08-.13-1.62.07-1.08.46-2.11,1.12-2.97.2-.26-.24-.5-.43-.25h0Z"/>
        <path class="cls-3" d="M247.3,42.07c.47,1.21,1.18,2.31,2.1,3.23.23.23.58-.13.35-.35-.85-.86-1.53-1.88-1.97-3.01-.05-.13-.17-.21-.31-.17-.12.03-.22.18-.17.31h0Z"/>
        <path class="cls-3" d="M249.54,41.41c-.86,1.09-1.58,2.28-2.13,3.56-.05.12-.04.27.09.34.1.06.29.03.34-.09.53-1.23,1.22-2.4,2.05-3.46.08-.11.1-.25,0-.35-.09-.09-.27-.11-.35,0h0Z"/>
        <path class="cls-3" d="M250.66,43.28l1.72-.11c.13,0,.25-.11.25-.25,0-.13-.11-.26-.25-.25l-1.72.11c-.13,0-.25.11-.25.25,0,.13.11.26.25.25h0Z"/>
        <path class="cls-3" d="M251.21,41.63c-.24.92-.24,1.89-.02,2.82.08.31.56.18.48-.13-.21-.84-.2-1.72.02-2.56.08-.31-.4-.44-.48-.13h0Z"/>
        <path class="cls-3" d="M252.89,40.82c-.05,1.15,0,2.3.13,3.44.03.26.42.36.49.07.14-.59.39-1.13.75-1.62h-.43c.31.62.41,1.33.29,2.01-.06.31.42.45.48.13.15-.82.04-1.65-.34-2.4-.09-.18-.33-.14-.43,0-.38.52-.65,1.11-.8,1.73l.49.07c-.14-1.14-.18-2.29-.13-3.44.01-.32-.49-.32-.5,0h0Z"/>
        <path class="cls-3" d="M254.32,39.44c.56,1.12.92,2.33,1.11,3.57.1.62.22,1.32.09,1.95-.06.26-.16.51-.34.72-.05.06-.64.51-.69.32-.09-.31-.57-.18-.48.13.19.65,1.04.34,1.39.03.58-.5.71-1.29.66-2.03-.1-1.7-.55-3.42-1.31-4.95-.14-.29-.57-.04-.43.25h0Z"/>
        <path class="cls-3" d="M255.27,37.31c.49,0,.96.39,1.01.89s-.36.99-.84,1.04c-.32.04-.32.47,0,.5.63.06,1.26.12,1.89.18.13.01.25-.12.25-.25,0-.15-.12-.24-.25-.25-.63-.06-1.26-.12-1.89-.18v.5c.75-.09,1.39-.77,1.34-1.54s-.74-1.4-1.51-1.39c-.32,0-.32.5,0,.5h0Z"/>
        <path class="cls-3" d="M258.13,35.96c.8,2.01,1.2,4.13,1.28,6.28.04,1.03,0,2.06-.09,3.09-.05.54-.13,1.12-.41,1.6-.13.23-.31.43-.53.57-.12.08-.25.14-.38.17-.23-.05-.34.04-.32.28.32-.05.18-.53-.13-.48-.27.04-.38.37-.21.58.24.3.8.13,1.08,0,1.16-.54,1.34-1.91,1.43-3.04.24-3.11-.08-6.28-1.23-9.18-.12-.3-.6-.17-.48.13h0Z"/>
      </g>
    </g>
    <g>
      <path class="cls-3" d="M176.04,105.53c-.14-.25-.32-.54-.32-.84,0-.12.04-.34.18-.38.12-.04.24.12.29.22.12.26,0,.59-.09.84-.15.42-.39,1.06-.85,1.24-.11.04-.3.03-.39,0-.18-.08-.18-.19-.11-.41.15-.49.51-.94.91-1.26.2-.16.43-.29.66-.39.1-.04.2-.06.3-.1.13-.05.07.02.04-.03-.13-.19-.05-.05-.06,0-.03.14.01.31,0,.46-.01.11-.03.22-.06.32-.06.23-.16.46-.34.63-.25.23-.7.33-.95.08-.38-.37-.07-1.15.14-1.53.3-.54.75-.93,1.3-1.19l-.68-.18c.35.61.32,1.43-.12,2-.02.02-.17.16-.16.17h0s0,.03.06.02c.04.05.04.04,0-.02-.07-.14-.18-.26-.24-.41-.15-.35-.2-.76-.15-1.14.05-.36.19-.73.41-1.01.15-.19.46-.43.7-.4.32.04.26.58.27.81.01.44.03.93-.15,1.34-.12.28-.42.62-.76.59-.13-.01-.24-.11-.3-.23-.07-.13-.06-.14.02-.25l-.68.18c.33.17.46.5.34.84-.09.25.1.55.35.62.28.08.53-.09.62-.35.26-.74-.1-1.62-.8-1.97-.26-.13-.52-.05-.68.18-.37.54-.16,1.28.32,1.67.53.44,1.27.38,1.81-.01.6-.44.85-1.12.91-1.85.06-.62.1-1.47-.25-2.01-.4-.62-1.18-.66-1.79-.35s-.96.86-1.18,1.46-.22,1.27-.06,1.87c.15.57.54,1.41,1.23,1.44.76.03,1.26-.92,1.43-1.54.19-.72.1-1.5-.28-2.15-.14-.25-.44-.29-.68-.18-.79.36-1.45,1.03-1.8,1.82s-.52,1.87.2,2.51c.66.59,1.7.46,2.32-.13.31-.3.52-.72.62-1.14s.15-.94.02-1.35c-.36-1.09-1.75-.43-2.37.02-.69.51-1.37,1.34-1.45,2.23-.09.96.89,1.51,1.74,1.29s1.34-1.2,1.62-1.99c.18-.53.24-1.14-.07-1.64-.27-.44-.78-.74-1.31-.63-.49.1-.85.55-.94,1.02-.12.61.14,1.16.42,1.68.31.57,1.17.06.86-.5h0Z"/>
      <g>
        <path class="cls-3" d="M160.82,90.59c-1.29,1.63-2.05,3.62-2.17,5.69-.09,1.62.06,4.14,1.82,4.87.3.12.43-.36.13-.48-.81-.33-1.13-1.24-1.29-2.03-.18-.88-.22-1.78-.14-2.67.17-1.82.87-3.58,2-5.02.2-.25-.15-.61-.35-.35h0Z"/>
        <path class="cls-3" d="M161.12,94.6l1.4,2.68.68,1.3c.18.35.37.69.8.73.32.03.32-.47,0-.5-.15-.01-.24-.25-.3-.36-.11-.2-.21-.41-.32-.61l-.59-1.14-1.23-2.36c-.15-.29-.58-.03-.43.25h0Z"/>
        <path class="cls-3" d="M164.04,94.01c-1.07,1.92-2.15,3.85-3.22,5.77-.16.28.27.53.43.25,1.07-1.92,2.15-3.85,3.22-5.77.16-.28-.27-.53-.43-.25h0Z"/>
        <path class="cls-3" d="M165.04,98.6l-.99,3.41c-.09.31.39.44.48.13l.99-3.41c.09-.31-.39-.44-.48-.13h0Z"/>
        <path class="cls-3" d="M166.95,94.71c.86,1.62,1.82,3.18,2.89,4.68.18.26.62.01.43-.25-1.06-1.5-2.03-3.06-2.89-4.68-.15-.28-.58-.03-.43.25h0Z"/>
        <path class="cls-3" d="M169.47,94.47c-1.07,1.67-1.97,3.44-2.68,5.29-.07.19.14.34.31.31s.29-.13.37-.29c.13-.29-.3-.54-.43-.25l-.07.06.31.31c.69-1.81,1.58-3.54,2.63-5.17.17-.27-.26-.52-.43-.25h0Z"/>
        <path class="cls-3" d="M170.37,92.98c.17-.19.43-.19.67-.08.28.13.43.38.41.69-.03.35-.28.67-.57.85-.17.11-.37.16-.52.29-.17.14-.26.36-.15.56.13.25.48.26.73.31.3.06.6.12.9.18.13.03.27-.04.31-.17.03-.12-.04-.28-.17-.31-.28-.05-.56-.11-.84-.17-.13-.03-.26-.05-.4-.08,0,0-.1-.02-.1-.03.01-.03.05.1.04.1.04,0-.07,0,.02,0,.02,0,.08-.06.1-.07.03-.02.06-.03.09-.04.11-.05.22-.1.32-.17.19-.12.34-.28.48-.45.25-.34.38-.8.25-1.21-.11-.36-.41-.63-.75-.76-.38-.15-.84-.09-1.13.22-.22.24.14.59.35.35h0Z"/>
        <path class="cls-3" d="M172.11,90.78c.97,1.46,1.44,3.17,1.48,4.92.02.85-.06,1.7-.23,2.54-.14.71-.42,2.52-1.48,2.25-.31-.08-.44.4-.13.48.93.24,1.5-.56,1.77-1.34.33-1,.51-2.06.56-3.11.1-2.1-.38-4.22-1.54-5.99-.18-.27-.61-.02-.43.25h0Z"/>
      </g>
    </g>
    <g>
      <g>
        <path class="cls-4" d="M176.5,137.2c-.82,1.75.72,3.3,2.29,3.84,1.06.36,2.2.4,3.31.4,1.2,0,2.4-.03,3.6-.04s2.46-.03,3.69-.05c.66,0,1.31-.02,1.97-.03.57,0,1.18-.07,1.74.08,1.04.27,1.44,1.61,1.88,2.46.59,1.13,1.17,2.26,1.76,3.39.2.38.82.29.91-.12.42-1.8.85-3.61,1.27-5.41l-.48.37c4.53,0,9.06,0,13.59,0,2.19,0,4.4.08,6.59-.02,1.59-.07,3.51-.32,4.62-1.61,1.02-1.18,1.08-2.9-.27-3.84-.53-.37-1.03.5-.5.86.69.48.66,1.33.26,1.99-.51.83-1.47,1.2-2.38,1.39-1.05.23-2.14.22-3.2.22-1.25,0-2.49,0-3.74,0-4.99,0-9.97,0-14.96,0-.21,0-.43.15-.48.37-.42,1.8-.85,3.61-1.27,5.41l.91-.12c-.55-1.06-1.1-2.12-1.65-3.18-.42-.82-.77-1.79-1.41-2.47s-1.58-.79-2.49-.79c-1.13,0-2.26.03-3.39.04-2.33.03-4.66.12-6.98.08-1.02-.02-2.12-.08-3.05-.55-.75-.37-1.68-1.27-1.25-2.19.27-.58-.59-1.09-.86-.5h0Z"/>
        <path class="cls-4" d="M194.24,149.32c-.36,2.77-.55,5.55-.55,8.34,0,.4.58.71.85.35.42-.54.84-1.07,1.26-1.61.18-.24.85-1.36,1.21-1.13.16.1.23.51.27.68.09.35.17.7.21,1.05.08.63.07,1.26,0,1.89s.93.63,1,0c.1-.91.05-1.82-.13-2.71-.13-.65-.31-1.52-.95-1.85-.68-.35-1.33.11-1.75.63-.63.76-1.22,1.56-1.83,2.34l.85.35c0-2.79.19-5.57.55-8.34.08-.64-.92-.63-1,0h0Z"/>
      </g>
      <path class="cls-4" d="M103.42,40.45c-1.35-.82-3.07-.08-3.86,1.18-1.03,1.64-.78,3.88-.78,5.72,0,4.64.14,9.28.41,13.92.15,2.61.35,5.21.59,7.81l.37-.48c-3.52.83-6.59,3.07-8.47,6.16-.17.28,0,.65.3.73,1.74.49,3.49.97,5.23,1.46.73.2,1.54.34,2.24.63.5.21.52.55.52,1.04s.02.99.02,1.49c.05,3.6.11,7.2.16,10.8.03,1.74.05,3.48.08,5.21.02,1.58-.02,3.18.26,4.74.45,2.52,2.08,4.42,4.53,5.17,2.64.81,5.55.42,8.21-.08.63-.12.36-1.08-.27-.96-2.39.45-4.98.8-7.37.17-1.09-.29-2.1-.82-2.85-1.66-.98-1.1-1.31-2.57-1.42-4.01-.13-1.61-.09-3.24-.12-4.86-.03-1.82-.06-3.64-.08-5.46-.05-3.48-.1-6.95-.16-10.43-.01-.7-.05-1.41-.67-1.84s-1.6-.58-2.35-.79c-1.9-.53-3.81-1.06-5.71-1.59l.3.73c1.75-2.87,4.6-4.93,7.87-5.7.2-.05.39-.27.37-.48-.48-5.24-.79-10.5-.92-15.76-.07-2.61-.09-5.22-.07-7.83.01-1.11,0-2.38.63-3.35.52-.8,1.61-1.35,2.49-.82.55.33,1.06-.53.5-.86h0Z"/>
      <g>
        <path class="cls-4" d="M33.34,65.2c-2.91,1.64-3.81,5.35-4.37,8.39-.36,1.93-.57,3.91-.55,5.87.02,1.75.28,3.61,1.25,5.11s2.43,2.49,4.18,2.57c.64.03.64-.97,0-1-1.93-.09-3.37-1.69-3.95-3.42-.67-2-.53-4.22-.33-6.29s.6-4.2,1.28-6.19c.56-1.66,1.43-3.29,3-4.18.56-.32.06-1.18-.5-.86h0Z"/>
        <path class="cls-4" d="M35.11,71.25l3.08,7.07c.49,1.11.95,2.24,1.46,3.34.42.91.95,1.73,1.78,2.32.53.37,1.03-.49.5-.86-.84-.59-1.26-1.58-1.66-2.49-.48-1.08-.95-2.17-1.42-3.25l-2.89-6.62c-.26-.59-1.12-.08-.86.5h0Z"/>
        <path class="cls-4" d="M41.12,70.05c-2,4.29-4,8.58-6,12.87-.27.58.59,1.09.86.5,2-4.29,4-8.58,6-12.87.27-.58-.59-1.09-.86-.5h0Z"/>
        <path class="cls-4" d="M42.99,77.28c1.53-.4,3.09-.58,4.67-.54.64.02.64-.98,0-1-1.66-.04-3.33.16-4.94.58-.62.16-.36,1.13.27.96h0Z"/>
        <path class="cls-4" d="M45.31,72.11l.25,8.17c.02.64,1.02.64,1,0l-.25-8.17c-.02-.64-1.02-.64-1,0h0Z"/>
        <path class="cls-4" d="M49.7,69.01c0,4.66,0,9.32,0,13.99,0,.49.69.69.93.25.76-1.37,1.49-2.75,2.27-4.1.31-.53.75-1.13,1.3-1.45.06-.03.3-.11.21-.12-.08,0-.01-.05,0,.04.37,1.87-.25,3.98-.65,5.8-.14.63.82.89.96.27.33-1.51.66-3.04.77-4.58.05-.68.13-1.66-.38-2.21-.74-.8-1.79.18-2.32.73-.64.68-1.03,1.52-1.48,2.33-.52.93-1.03,1.87-1.55,2.8l.93.25c0-4.66,0-9.32,0-13.99,0-.64-1-.64-1,0h0Z"/>
        <path class="cls-4" d="M56.39,66.12c3.2,5.14,3.73,11.65,1.34,17.23-.46,1.07-1.02,2.1-1.66,3.07-.36.54.51,1.04.86.5,3.51-5.28,4.27-12.13,1.95-18.04-.45-1.14-.99-2.24-1.63-3.27-.34-.55-1.2-.04-.86.5h0Z"/>
        <path class="cls-4" d="M61.85,61.02c1.38.32,2.43,1.66,2.32,3.09s-1.37,2.6-2.76,2.69c-.54.04-.7.83-.13.98,1.79.46,3.58.92,5.38,1.39.62.16.89-.8.27-.96-1.79-.46-3.58-.92-5.38-1.39l-.13.98c1.91-.12,3.56-1.65,3.75-3.58s-1.23-3.74-3.05-4.17c-.63-.15-.89.82-.27.96h0Z"/>
        <path class="cls-4" d="M67.46,76.35c1.39-.05,2.79-.1,4.18-.14.68-.02,1.37-.05,2.05-.07.32-.01.66,0,.98-.05s.59-.16.89-.25c.61-.19.35-1.15-.27-.96-.27.08-.54.2-.83.24-.33.04-.68.03-1.01.04-.66.02-1.32.05-1.97.07-1.34.05-2.68.09-4.02.14-.64.02-.64,1.02,0,1h0Z"/>
        <path class="cls-4" d="M78.04,69.55l5.85,12.42c.27.58,1.14.07.86-.5l-5.85-12.42c-.27-.58-1.14-.07-.86.5h0Z"/>
        <path class="cls-4" d="M84.53,68.48c-2.18,3.83-4.2,7.76-6.06,11.76-.27.58.59,1.09.86.5,1.85-4,3.87-7.92,6.06-11.76.32-.56-.54-1.06-.86-.5h0Z"/>
        <path class="cls-4" d="M87.24,64.53c.78.25,2.02.76,1.98,1.76-.05,1.25-1.59,1.73-2.55,2.05-.49.16-.45.79,0,.96,1.37.54,2.75,1.08,4.12,1.62.25.1.55-.11.62-.35.08-.28-.1-.52-.35-.62-1.37-.54-2.75-1.08-4.12-1.62v.96c1.43-.47,3.24-1.24,3.29-3.02.04-1.5-1.47-2.33-2.71-2.73-.61-.2-.88.77-.27.96h0Z"/>
      </g>
    </g>
  </g>
</svg>