<svg id="Layer_1" data-name="Layer 1" xmlns="http://www.w3.org/2000/svg" viewBox="0 0 214.2 194.33"><defs><style>.cls-1{fill:#a7a9ac;}.cls-2{fill:#ed1c24;}.cls-3{fill:#231f20;}.cls-4{fill:#00aeef;}.cls-5{fill:#00a651;}</style></defs><title>x-squared-and-derivative-at-a-point-2</title><path class="cls-1" d="M203.16,183.93q5-5.22,9.59-10.75l1.07-1.29a5.73,5.73,0,0,0,1-1.4c.45-1.1-.29-1.91-1.1-2.55a26.15,26.15,0,0,0-4.54-2.6,10,10,0,0,1-4.3-3.52l-.36,1.36c.23-.16.15-.2.38.07.83,1,2.24-.44,1.41-1.42a2.06,2.06,0,0,0-2.8-.37,1,1,0,0,0-.35,1.37,10.34,10.34,0,0,0,3.55,3.44c1.37.82,2.85,1.42,4.23,2.21a10,10,0,0,1,1.89,1.32l.07.06c.12.17.15.17.1,0,.15-.3-.1,0-.07-.05-.12,0-.46.57-.53.65l-1.08,1.3c-1.45,1.74-2.94,3.47-4.45,5.16-1.68,1.89-3.39,3.76-5.13,5.59-.89.93.52,2.35,1.41,1.41Z" transform="translate(-21.16 -10.88)"/><path class="cls-1" d="M31.81,157.16a40.46,40.46,0,0,0-5.66,3.65c-.9.68-1.78,1.4-2.63,2.14-.45.4-.9.81-1.33,1.23a3.26,3.26,0,0,0-.92,1.17c-.46,1.24.57,2.21,1.29,3.09s1.51,1.85,2.27,2.76q2.37,2.81,4.84,5.5c.87,1,2.28-.47,1.41-1.42q-2.14-2.34-4.22-4.77c-.72-.85-1.43-1.7-2.13-2.56l-1.06-1.29a3,3,0,0,0-.41-.51c-.07-.21-.11-.23-.14-.07a.35.35,0,0,1,.1-.11c.79-.6,1.47-1.4,2.23-2.05s1.53-1.26,2.32-1.85a42,42,0,0,1,5.05-3.18c1.13-.61.13-2.33-1-1.73Z" transform="translate(-21.16 -10.88)"/><path class="cls-1" d="M22,167.5c11.51,3.7,23.67,3.69,35.62,3.51l38.19-.58,37.84-.59c12.62-.19,25.25-.46,37.87-.36A351.6,351.6,0,0,1,213.69,172a1,1,0,0,0,1-.73c.22-1.51-.54-3.51-2.36-3.41-1.28.06-1.29,2.06,0,2,.36,0,.47.6.43.88l1-.74c-24.89-3.22-50-2.64-75.07-2.25l-75.69,1.16c-13.51.21-27.36.84-40.39-3.36-1.23-.39-1.76,1.54-.54,1.93Z" transform="translate(-21.16 -10.88)"/><path class="cls-1" d="M69.21,48.32A110.2,110.2,0,0,1,75.15,34c.57-1.14,1.15-2.26,1.76-3.37q.41-.75.84-1.5s.26-.41.27-.4l-.29,0,0,0a2.9,2.9,0,0,0,.25.36c1.45,2.32,2.84,4.68,4.25,7l4.9,8.08a1,1,0,0,0,1.72,0l1-2.16a1,1,0,0,0-.36-1.37,1,1,0,0,0-1.36.36l-1,2.16h1.72l-4.76-7.86-2.38-3.93a42.88,42.88,0,0,0-2.3-3.73,1.83,1.83,0,0,0-3-.24,9.32,9.32,0,0,0-1,1.63c-.35.64-.7,1.28-1,1.92q-2,3.73-3.63,7.6-2,4.48-3.5,9.13c-.41,1.22,1.52,1.75,1.92.53Z" transform="translate(-21.16 -10.88)"/><path class="cls-1" d="M70.62,191.5a62.27,62.27,0,0,0,5.82,10.82,17.18,17.18,0,0,0,1.74,2.39,1.66,1.66,0,0,0,2.52-.17c1.38-1.59,2.57-3.41,3.8-5.12q2.16-3,4.2-6.11c.71-1.08-1-2.08-1.73-1q-2,3.09-4.2,6.11c-.69,1-1.39,1.93-2.11,2.88l-1,1.34c0,.06-.51.56-.49.63.41.13.53.11.35,0l-.26-.36A59.48,59.48,0,0,1,72.55,191a1,1,0,0,0-1.23-.7,1,1,0,0,0-.7,1.23Z" transform="translate(-21.16 -10.88)"/><path class="cls-1" d="M76.63,28.31q-.54,34.08-.44,68.17.11,33.92.84,67.83.42,19.13,1,38.25c0,1.29,2,1.29,2,0Q79,168.48,78.5,134.39q-.45-33.9-.27-67.83.09-19.12.4-38.25a1,1,0,0,0-2,0Z" transform="translate(-21.16 -10.88)"/><path class="cls-2" d="M155.13,14.32a6.66,6.66,0,0,0-.41,4.6,3.48,3.48,0,0,0,3.6,2.16,7.15,7.15,0,0,0,4.4-2.52,18.25,18.25,0,0,0,3.2-4.6l-.92-.12c.3,1.7-.45,3.4-1,5s-1.18,3.16-1.8,4.72q-1.87,4.75-4,9.41c-.26.58.6,1.09.87.51q2.22-4.89,4.19-9.87c.64-1.65,1.27-3.3,1.87-5a9.8,9.8,0,0,0,.87-5.05.5.5,0,0,0-.91-.12,17.27,17.27,0,0,1-2.47,3.77A8.14,8.14,0,0,1,158.93,20a2.62,2.62,0,0,1-3.33-1.55,6.26,6.26,0,0,1,.49-3.83c.23-.6-.73-.86-1-.27Z" transform="translate(-21.16 -10.88)"/><path class="cls-2" d="M167.67,21.9l6.61-.66a.51.51,0,0,0,.5-.5.5.5,0,0,0-.5-.5l-6.61.66a.52.52,0,0,0-.5.5.5.5,0,0,0,.5.5Z" transform="translate(-21.16 -10.88)"/><path class="cls-2" d="M166.35,26.37l7.78-1.62c.63-.13.37-1.1-.26-1l-7.78,1.62c-.63.14-.37,1.1.26,1Z" transform="translate(-21.16 -10.88)"/><path class="cls-2" d="M179.61,18.9q4.19,4.53,8.47,9c.27.29.91.09.85-.35l-.2-1.59c-.07-.63-1.07-.64-1,0l.2,1.59.86-.36q-4.29-4.44-8.47-9c-.44-.47-1.14.23-.71.71Z" transform="translate(-21.16 -10.88)"/><path class="cls-2" d="M186.74,17.34a92.12,92.12,0,0,0-7.62,12.16.5.5,0,0,0,.57.73l1.05-.33c.61-.19.35-1.16-.26-1l-1.06.33L180,30a91.74,91.74,0,0,1,7.62-12.16c.38-.52-.49-1-.87-.5Z" transform="translate(-21.16 -10.88)"/><path class="cls-2" d="M190.83,11.89a2.33,2.33,0,0,1,2,.79,2.13,2.13,0,0,1,.36,2.14,2.33,2.33,0,0,1-1.62,1.46,5.49,5.49,0,0,0-2.4,1.06.51.51,0,0,0,.35.86c1.63.13,3.27.29,4.9.47.27,0,.49-.26.5-.5a.51.51,0,0,0-.5-.5c-1.63-.18-3.27-.34-4.9-.47l.35.85c.72-.71,1.91-.67,2.78-1.13a3.23,3.23,0,0,0-2.13-6,.5.5,0,0,0-.34.62.51.51,0,0,0,.61.35Z" transform="translate(-21.16 -10.88)"/><path class="cls-2" d="M78.81,168.91c10.67-1.09,20.36-6,28.89-12.28a141.61,141.61,0,0,0,12.36-10.45q6.24-5.84,12.17-12a120.92,120.92,0,0,0,11.48-13.67,119.43,119.43,0,0,0,9.19-15.83c5.37-10.79,10.62-21.7,15.18-32.85s8.23-22.49,9.92-34.32c.21-1.48.39-3,.55-4.44a1,1,0,0,0-1.71-.71l-11.27,12c-.88.94.53,2.35,1.42,1.41l11.26-12-1.7-.71c-1.2,11.72-4.52,23.11-8.75,34.07s-9.47,21.78-14.64,32.46a165.1,165.1,0,0,1-8.41,15.75,101.07,101.07,0,0,1-10.82,14.08c-3.86,4.26-8,8.31-12.08,12.3C118,145.4,114.13,149,110,152.33c-8,6.49-17.19,12-27.45,14-1.24.24-2.49.42-3.74.55a1,1,0,0,0-1,1,1,1,0,0,0,1,1Z" transform="translate(-21.16 -10.88)"/><path class="cls-2" d="M176.69,33.18l6.78,14.27a1,1,0,0,0,1.86-.51l0-1.24c0-1.28-2-1.29-2,0l0,1.24,1.87-.5-6.79-14.27c-.55-1.16-2.27-.15-1.72,1Z" transform="translate(-21.16 -10.88)"/><path class="cls-2" d="M77.37,166.74c-1.58,1.11-3.77.43-5.5.1l-6.79-1.27A96.6,96.6,0,0,1,52,162.46a39.28,39.28,0,0,1-17.32-12,38,38,0,0,1-6.12-10.18,1,1,0,0,0-1.93,0,33.06,33.06,0,0,0-1.33,12,1,1,0,0,0,2,.26,23.7,23.7,0,0,0,.53-10.26c-.09-.5-.34-1.15.25-1.34a9.3,9.3,0,0,1,2.35-.25,31.61,31.61,0,0,1,5.33.2,1,1,0,0,0,1-1,1,1,0,0,0-1-1,30.93,30.93,0,0,0-5.93-.16c-1.6.11-3.75.19-4.07,2.17a8.94,8.94,0,0,0,.24,2.57,21.92,21.92,0,0,1,.17,2.8,21.38,21.38,0,0,1-.8,5.74l2,.27a31.27,31.27,0,0,1,1.26-11.46H26.59a41.68,41.68,0,0,0,13.58,17.64A40.23,40.23,0,0,0,50,163.87a78.81,78.81,0,0,0,13.46,3.42q4,.78,8.12,1.53c2.21.41,4.8,1.06,6.8-.35,1.05-.73.05-2.47-1-1.73Z" transform="translate(-21.16 -10.88)"/><path class="cls-3" d="M150.32,165.21a24,24,0,0,1-.69,9.34.5.5,0,0,0,1,.26,24.89,24.89,0,0,0,.72-9.6c-.07-.64-1.07-.64-1,0Z" transform="translate(-21.16 -10.88)"/><path class="cls-3" d="M146.06,182c2.24-.28,4.49-.62,6.74-.83.51-.05,1.17-.08,1.29.56a2.6,2.6,0,0,1-.21,1.23,16.8,16.8,0,0,1-1.2,2.71,19.63,19.63,0,0,1-3.51,4.69c-.52.52-1.17,1.18-.92,2a1.13,1.13,0,0,0,1.57.75c.59-.26.08-1.12-.5-.86-.19.08,0-.5,0-.53a2,2,0,0,1,.44-.51c.33-.33.66-.65,1-1a21.78,21.78,0,0,0,1.74-2.22,19,19,0,0,0,2.45-4.91,2.62,2.62,0,0,0-.07-2.16,2,2,0,0,0-2-.74c-2.25.21-4.5.55-6.74.83-.63.07-.64,1.07,0,1Z" transform="translate(-21.16 -10.88)"/><path class="cls-3" d="M54.47,106.48a69.63,69.63,0,0,0-1.21,7.45.5.5,0,0,0,.5.5l5.09-.48,1.23-.12a6.49,6.49,0,0,0,1.08-.12,1.16,1.16,0,0,0,.9-1.35c-.12-.63-1.08-.36-1,.27,0,0,0,0-.1.07a.77.77,0,0,1-.29.07c-.31,0-.62.06-.93.09l-2,.19-4,.38.5.5a66.7,66.7,0,0,1,1.17-7.18c.14-.63-.82-.9-1-.27Z" transform="translate(-21.16 -10.88)"/><path class="cls-3" d="M58.15,106.09a70.31,70.31,0,0,0-1.36,14,.5.5,0,0,0,.75.43l1.11-.72c.54-.35,0-1.22-.5-.87l-1.11.72.75.44a69.08,69.08,0,0,1,1.32-13.76c.13-.63-.83-.9-1-.27Z" transform="translate(-21.16 -10.88)"/><path class="cls-3" d="M64.27,119A8.67,8.67,0,0,0,68,108c-.74-1.68-3-4.51-5.09-2.86a4,4,0,0,0-1.18,3,4.76,4.76,0,0,0,1.09,3.11c1.44,1.73,4.52,2.39,6.29.8.48-.44-.23-1.14-.71-.71-1.2,1.09-3.38.62-4.48-.39a3.65,3.65,0,0,1-1.19-2.55,3.27,3.27,0,0,1,.76-2.45c.85-.74,2.07.21,2.64.87a6.75,6.75,0,0,1,1.25,2.35,7.58,7.58,0,0,1-3.57,9,.5.5,0,0,0,.5.86Z" transform="translate(-21.16 -10.88)"/><path class="cls-4" d="M149.16,110a2,2,0,0,1,2.73-2.13l-.23-.57a4.61,4.61,0,0,1-5.26,2.79l.34.61c.42-1.15,1-2.92,2.5-3a1.55,1.55,0,0,1,1.35.5,1.1,1.1,0,0,1-.34,1.43,3.19,3.19,0,0,1-1.7.79,2.2,2.2,0,0,1-1.59-.3.56.56,0,0,1-.23-.46,1.82,1.82,0,0,1,.5-1A6,6,0,0,1,149,107a5.62,5.62,0,0,1,1-.5c.24-.09.73-.31,1-.11s.22.68.23.94a3.32,3.32,0,0,1-.12,1A3.67,3.67,0,0,1,148.3,111a1.09,1.09,0,0,1-1.29-1,2.45,2.45,0,0,1,.8-1.87c.28-.3.59-.58.9-.86a1.39,1.39,0,0,1,.93-.48,1.57,1.57,0,0,1,1.27,1.33A1.74,1.74,0,0,1,149,110.3a1.45,1.45,0,0,1-1.17-1,1.42,1.42,0,0,1,.62-1.47,1.07,1.07,0,0,1,.73-.2l-.29-.23a3.36,3.36,0,0,1,.8,2.36,1.24,1.24,0,0,1-1.05,1.16,1.46,1.46,0,0,1-.71-.06.84.84,0,0,1-.44-.34.77.77,0,0,1-.07-.26,1.47,1.47,0,0,1,.18-.65,6,6,0,0,1,.7-1.09,7,7,0,0,1,2.36-1.89l-.68-.18c.72,1,.58,2.7-.75,3-1.12.3-2.36-.59-1.88-1.79a2.14,2.14,0,0,1,1.22-1.18,1.76,1.76,0,0,1,1.77.43,1.51,1.51,0,0,1,.47,1.63,1.41,1.41,0,0,1-1.26.82.8.8,0,0,1-.85-.9,1.32,1.32,0,0,1,.24-.66.64.64,0,0,1,.56-.28l-.25-.06a1.77,1.77,0,0,1,.43,2.61l.22-.13a1.38,1.38,0,1,1-.64-2.66l-.48-.13a1.73,1.73,0,0,1-1,2.58c-.63.13-.37,1.09.26,1a2.72,2.72,0,0,0,1.47-4.25.5.5,0,0,0-.48-.13,2.44,2.44,0,0,0-1.72,3.33,2.5,2.5,0,0,0,1.56,1.28,2.41,2.41,0,0,0,1.1,0,1.16,1.16,0,0,0,.8-.66,2.83,2.83,0,0,0-.7-3.51,1,1,0,0,0-1-.22,1.61,1.61,0,0,0-.74.42,2.21,2.21,0,0,0-.63,1.56,1.87,1.87,0,0,0,2.62,1.67,2.43,2.43,0,0,0,1.4-1.27,2.37,2.37,0,0,0-.16-2.09,2.8,2.8,0,0,0-3.72-1.14,2.74,2.74,0,0,0-1.4,3.39,2.63,2.63,0,0,0,3.32,1.22,3,3,0,0,0,1.08-4.43.52.52,0,0,0-.69-.18,7.86,7.86,0,0,0-3,2.67,3,3,0,0,0-.68,2.07,1.6,1.6,0,0,0,.74,1.1,2.42,2.42,0,0,0,2.73-.2c1-.87.89-2.46.4-3.57a4.26,4.26,0,0,0-.52-.87.91.91,0,0,0-.93-.33,2.35,2.35,0,0,0-1.38,4,2.73,2.73,0,0,0,3.12.39,2.93,2.93,0,0,0,1.29-3.09,2.42,2.42,0,0,0-2.76-2.07,4.37,4.37,0,0,0-1.73,1.26,4.92,4.92,0,0,0-1.19,1.66,2.41,2.41,0,0,0,.94,3.06c1.22.59,2.76-.17,3.65-1a4.85,4.85,0,0,0,1.44-3.25,2.56,2.56,0,0,0-.5-1.82,1.82,1.82,0,0,0-2-.18,7.2,7.2,0,0,0-3.24,2.33,2.73,2.73,0,0,0-.79,1.87,1.64,1.64,0,0,0,.82,1.26,3.58,3.58,0,0,0,3.13.08c1.12-.47,2.24-1.44,2-2.78a2.24,2.24,0,0,0-2.36-1.65,3.39,3.39,0,0,0-2.81,2,12.7,12.7,0,0,0-.76,1.78.5.5,0,0,0,.35.61,5.62,5.62,0,0,0,6.5-3.48.51.51,0,0,0-.23-.57,3,3,0,0,0-4.2,3.27.5.5,0,0,0,1-.27Z" transform="translate(-21.16 -10.88)"/><path class="cls-4" d="M139.68,101.68l3.17,1.85c.52.31,1.05.63,1.58.93s1.08.4,1.36-.2a2.31,2.31,0,0,0,.14-.74l.1-.92.2-1.83.4-3.73a.5.5,0,0,0-.5-.5.5.5,0,0,0-.5.5l-.69,6.41a1.08,1.08,0,0,0,0,.35c0,.09,0,.08.11,0s.18-.07,0-.11a2.74,2.74,0,0,0-.67-.39l-1.4-.82-2.79-1.65a.5.5,0,0,0-.51.87Z" transform="translate(-21.16 -10.88)"/><path class="cls-4" d="M145.26,102.88c-3.73-5.16-7.5-10.3-11.09-15.57-.36-.53-1.23,0-.86.51,3.58,5.27,7.35,10.41,11.09,15.57.37.51,1.24,0,.86-.51Z" transform="translate(-21.16 -10.88)"/><path class="cls-4" d="M89.87,78.94a10.94,10.94,0,0,0-3.43,2.22,10.67,10.67,0,0,0-1.31,1.54c-.37.51-.92,1.2-.72,1.87a1.48,1.48,0,0,0,1.26.9,11.54,11.54,0,0,0,2.35.11,6.25,6.25,0,0,1,2.4.07c.61.23,1,.83.61,1.43a3.58,3.58,0,0,1-2.11,1.14,7.35,7.35,0,0,1-2.84.13c-.63-.1-.91.86-.27,1a8.14,8.14,0,0,0,4.67-.58c1.15-.53,2.28-1.83,1.45-3.11s-2.61-1.08-4-1a6.55,6.55,0,0,1-2.34-.16c-.38-.15-.12-.43,0-.68a9.37,9.37,0,0,1,.68-1,9.81,9.81,0,0,1,3.83-2.88c.58-.24.33-1.21-.27-1Z" transform="translate(-21.16 -10.88)"/><path class="cls-4" d="M94.35,80.43a42.67,42.67,0,0,0-1.83,8,.51.51,0,0,0,.64.48l3.23-1c.61-.2.35-1.16-.26-1l-3.24,1,.63.48a40.67,40.67,0,0,1,1.8-7.78c.2-.61-.76-.88-1-.27Z" transform="translate(-21.16 -10.88)"/><path class="cls-4" d="M98.82,86.05a2.18,2.18,0,0,1,.82-1.9,2.52,2.52,0,0,1,.93-.63,1.24,1.24,0,0,1,.85,0,1.53,1.53,0,0,1,1,1.41,2,2,0,0,1-.88,1.59,2.84,2.84,0,0,1-2.49.26c-.62-.19-.88.77-.27,1a4,4,0,0,0,3.09-.25,3.08,3.08,0,0,0,1.54-2.41,2.51,2.51,0,0,0-1.3-2.36,2.28,2.28,0,0,0-1.42-.27,3,3,0,0,0-1.43.73,3.24,3.24,0,0,0-1.35,3.11c.14.63,1.1.36,1-.26Z" transform="translate(-21.16 -10.88)"/><path class="cls-4" d="M105.9,87.54a20,20,0,0,1-.29-3.71c0-.59,0-1.19.12-1.79a5.07,5.07,0,0,1,.1-.77c.07-.27.27-.31.52-.39.57-.19,1.87-.44,1.73.58s-1.41,1.2-2.24,1.28c-.64.07-.64,1.07,0,1a3.72,3.72,0,0,0,2.84-1.19,1.81,1.81,0,0,0-.27-2.55,3,3,0,0,0-2.85.12,1.55,1.55,0,0,0-.77,1.38c-.08.63-.14,1.28-.17,1.92a21.53,21.53,0,0,0,.31,4.39c.11.63,1.08.36,1-.27Z" transform="translate(-21.16 -10.88)"/><path class="cls-4" d="M110.81,81.82a27.28,27.28,0,0,0-1.69,5.88c-.06.34.22.75.61.61l1.83-.64a15.86,15.86,0,0,0,1.78-.67c.58-.28.08-1.14-.5-.86a17.19,17.19,0,0,1-1.65.6l-1.72.61.61.61a27.47,27.47,0,0,1,1.7-5.88.5.5,0,0,0-.35-.61.52.52,0,0,0-.62.35Z" transform="translate(-21.16 -10.88)"/><path class="cls-4" d="M110.3,84.31l4.14-.77a.5.5,0,0,0,.35-.62.52.52,0,0,0-.62-.34l-4.13.77a.5.5,0,0,0-.35.61.5.5,0,0,0,.61.35Z" transform="translate(-21.16 -10.88)"/><path class="cls-4" d="M111.69,82a2.63,2.63,0,0,1,2.11-.47,4.79,4.79,0,0,0,2.59-.38c.56-.31.06-1.17-.51-.86a4.78,4.78,0,0,1-2.41.23,3.24,3.24,0,0,0-2.49.77c-.45.46.26,1.17.71.71Z" transform="translate(-21.16 -10.88)"/><path class="cls-4" d="M118.8,84.21l.5-.11.25,0h.06c-.07,0-.07,0,0,0h.12a7,7,0,0,1,1,0,.5.5,0,1,0,0-1,7.78,7.78,0,0,0-2.2.24.5.5,0,1,0,.27,1Z" transform="translate(-21.16 -10.88)"/><path class="cls-4" d="M118.33,86.75a6.22,6.22,0,0,1,3.15-1,.5.5,0,0,0,0-1,7.24,7.24,0,0,0-3.66,1.17.5.5,0,0,0,.51.87Z" transform="translate(-21.16 -10.88)"/><path class="cls-4" d="M125.08,79.56A81.1,81.1,0,0,0,123.6,89h1a1,1,0,0,1,.22-.72c.42-.48-.28-1.19-.71-.71A2.08,2.08,0,0,0,123.6,89a.5.5,0,0,0,1,0,76.55,76.55,0,0,1,1.45-9.14c.14-.63-.83-.9-1-.27Z" transform="translate(-21.16 -10.88)"/><path class="cls-4" d="M128.2,79.7c-.4,1.43-.83,2.85-1.27,4.27a.5.5,0,0,0,.61.61,22.77,22.77,0,0,1,5.06-.7c.64,0,.65-1,0-1a23.93,23.93,0,0,0-5.32.74l.61.61c.45-1.41.87-2.84,1.28-4.27a.5.5,0,0,0-1-.26Z" transform="translate(-21.16 -10.88)"/><path class="cls-4" d="M130.72,80.16q-.51,4.66-1.36,9.28c-.11.63.85.9,1,.26q.87-4.74,1.39-9.54c.07-.64-.93-.63-1,0Z" transform="translate(-21.16 -10.88)"/><path class="cls-3" d="M72.6,112.85c1.55-.13,3.11-.24,4.67-.33l2.26-.11c.4,0,1.26-.19,1.46.28s1.11.08.86-.5a1.56,1.56,0,0,0-1.47-.8,21.48,21.48,0,0,0-2.41.1q-2.7.14-5.37.36c-.64.05-.65,1.05,0,1Z" transform="translate(-21.16 -10.88)"/><path class="cls-4" d="M131.69,137a178.55,178.55,0,0,0,13.52-19.11c4.19-6.69,8.14-13.54,12.27-20.27,2.32-3.78,4.7-7.52,7.2-11.18.36-.53-.5-1-.87-.5-4.41,6.46-8.43,13.17-12.45,19.89s-8,13.42-12.44,19.87c-2.5,3.64-5.12,7.19-7.94,10.6-.41.49.3,1.2.71.7Z" transform="translate(-21.16 -10.88)"/><path class="cls-4" d="M166.33,83.68l2.59-3.38a.49.49,0,0,0-.18-.68.5.5,0,0,0-.68.18l-2.59,3.37a.5.5,0,0,0,.18.69.52.52,0,0,0,.68-.18Z" transform="translate(-21.16 -10.88)"/><path class="cls-4" d="M171,76.84a10.52,10.52,0,0,1,.81-1.52,9.28,9.28,0,0,1,1-1.32.5.5,0,1,0-.71-.71,11.89,11.89,0,0,0-2,3,.53.53,0,0,0,.18.69.51.51,0,0,0,.69-.18Z" transform="translate(-21.16 -10.88)"/><path class="cls-4" d="M175.87,70.29,178,67.74a.52.52,0,0,0,0-.71.51.51,0,0,0-.71,0l-2.12,2.56a.5.5,0,1,0,.71.7Z" transform="translate(-21.16 -10.88)"/><path class="cls-4" d="M180.42,63.39v0l-.05.12a2.43,2.43,0,0,1,.33-.56l-.08.1a2.4,2.4,0,0,1,.45-.45l-.1.08a3.11,3.11,0,0,1,.38-.25.49.49,0,0,0,.18-.68.5.5,0,0,0-.68-.18,2.87,2.87,0,0,0-.81.62,3.79,3.79,0,0,0-.34.45,3,3,0,0,0-.25.51.5.5,0,0,0,.73.56l.1-.08a.45.45,0,0,0,.13-.22Z" transform="translate(-21.16 -10.88)"/><path class="cls-4" d="M183.69,58.6l.61-.71a.39.39,0,0,0,.1-.16.34.34,0,0,0,0-.2.52.52,0,0,0-.14-.35.53.53,0,0,0-.36-.15.51.51,0,0,0-.35.15l-.61.72a.34.34,0,0,0-.1.16.31.31,0,0,0,0,.19.5.5,0,0,0,.14.35.49.49,0,0,0,.36.15.51.51,0,0,0,.35-.15Z" transform="translate(-21.16 -10.88)"/><path class="cls-4" d="M188.06,53l.67-1a.51.51,0,0,0-.18-.69.5.5,0,0,0-.38-.05.58.58,0,0,0-.3.23l-.68,1a.51.51,0,0,0-.05.38.5.5,0,0,0,.23.3.53.53,0,0,0,.39,0,.57.57,0,0,0,.3-.23Z" transform="translate(-21.16 -10.88)"/><path class="cls-4" d="M125,146.36l-1.91,2.74a.51.51,0,0,0,.18.69.52.52,0,0,0,.69-.18l1.91-2.74a.51.51,0,0,0-.18-.69.52.52,0,0,0-.69.18Z" transform="translate(-21.16 -10.88)"/><path class="cls-4" d="M120.38,152.5l-2.68,3.66a.51.51,0,0,0,.18.69.52.52,0,0,0,.68-.18l2.68-3.67a.49.49,0,0,0-.18-.68.5.5,0,0,0-.68.18Z" transform="translate(-21.16 -10.88)"/><path class="cls-4" d="M115.16,159.5,113,162.87a.51.51,0,0,0,.18.69.51.51,0,0,0,.68-.18L116,160a.5.5,0,0,0-.87-.51Z" transform="translate(-21.16 -10.88)"/><path class="cls-4" d="M106.65,172.55l-.52,1a.49.49,0,0,0,0,.39.5.5,0,0,0,.23.3.5.5,0,0,0,.38.05.53.53,0,0,0,.3-.23l.52-1a.49.49,0,0,0,0-.39.48.48,0,0,0-.23-.29.46.46,0,0,0-.38-.06.53.53,0,0,0-.3.23Z" transform="translate(-21.16 -10.88)"/><path class="cls-4" d="M110.59,166.63l-.52,1a.5.5,0,0,0,.18.68.46.46,0,0,0,.38,0,.5.5,0,0,0,.3-.23l.53-1a.55.55,0,0,0,.05-.38.58.58,0,0,0-.23-.3.53.53,0,0,0-.39,0,.52.52,0,0,0-.3.23Z" transform="translate(-21.16 -10.88)"/><path class="cls-4" d="M129.08,140l-1.91,2.74a.5.5,0,0,0,.18.68.5.5,0,0,0,.68-.18l1.92-2.74a.5.5,0,0,0-.18-.68.51.51,0,0,0-.69.18Z" transform="translate(-21.16 -10.88)"/><path class="cls-5" d="M159.38,95.53c5.41,1.93,8.65,7.81,9,13.31.05.64,1.05.64,1,0-.42-6-3.91-12.19-9.77-14.27-.6-.22-.87.75-.26,1Z" transform="translate(-21.16 -10.88)"/><path class="cls-5" d="M133.18,110.34q12.94-.5,25.9-.67t25.91,0q7.35.09,14.7.28a.5.5,0,0,0,0-1q-13-.34-25.91-.35t-25.91.3q-7.34.18-14.69.46c-.64,0-.64,1,0,1Z" transform="translate(-21.16 -10.88)"/><path class="cls-5" d="M202.69,110a12,12,0,0,0,2.68,0c.26,0,.52-.21.5-.5s-.22-.54-.5-.5a12,12,0,0,1-2.68,0,.5.5,0,0,0-.5.5.52.52,0,0,0,.5.5Z" transform="translate(-21.16 -10.88)"/><path class="cls-5" d="M209,109.94c.22,0,.45-.1.67-.13h.08l.18,0,.34,0a5.3,5.3,0,0,1,.69,0h.23l.36.06a.52.52,0,0,0,.62-.35.51.51,0,0,0-.35-.61,7,7,0,0,0-3.08.08.5.5,0,0,0,.26,1Z" transform="translate(-21.16 -10.88)"/><path class="cls-5" d="M215.1,110.17a9.55,9.55,0,0,0,2.39,0,.44.44,0,0,0,.3-.23.5.5,0,0,0,.05-.38.5.5,0,0,0-.23-.3.56.56,0,0,0-.38,0H217l-.29,0-.54,0a10.32,10.32,0,0,1-1.11-.06.5.5,0,0,0-.5.5.51.51,0,0,0,.5.5Z" transform="translate(-21.16 -10.88)"/><path class="cls-5" d="M221.31,110.47l1.27-.25a.5.5,0,0,0,.12-.92.59.59,0,0,0-.39,0l-1.27.26a.5.5,0,0,0-.3.23.5.5,0,0,0-.05.38.5.5,0,0,0,.62.35Z" transform="translate(-21.16 -10.88)"/><path class="cls-5" d="M227.38,110.4l1,.14a.34.34,0,0,0,.2,0,.33.33,0,0,0,.19-.06.53.53,0,0,0,.23-.3.5.5,0,0,0,0-.38.49.49,0,0,0-.3-.23l-1-.14a.35.35,0,0,0-.2,0,.33.33,0,0,0-.19.06.53.53,0,0,0-.23.3.5.5,0,0,0,.05.38.49.49,0,0,0,.3.23Z" transform="translate(-21.16 -10.88)"/><path class="cls-5" d="M234.3,110.63l.56,0a.41.41,0,0,0,.19,0,.53.53,0,0,0,.27-.27.41.41,0,0,0,0-.19.51.51,0,0,0-.15-.35.47.47,0,0,0-.35-.15l-.56,0a.34.34,0,0,0-.2,0,.42.42,0,0,0-.26.26.34.34,0,0,0,0,.2.47.47,0,0,0,.14.35.53.53,0,0,0,.36.15Z" transform="translate(-21.16 -10.88)"/><path class="cls-5" d="M168.74,90l9.34-3.55c.59-.22.34-1.19-.27-1l-9.33,3.54c-.6.23-.34,1.19.26,1Z" transform="translate(-21.16 -10.88)"/><path class="cls-5" d="M173.79,84.68c-.56,3.59-1,7.21-1.31,10.83-.06.64.94.64,1,0,.31-3.53.73-7.06,1.27-10.56.1-.63-.87-.9-1-.27Z" transform="translate(-21.16 -10.88)"/><path class="cls-5" d="M179.55,91.15a8.54,8.54,0,0,0,.13,2.47c.11.54,1,.43,1-.13a6.19,6.19,0,0,0-1.06-3.09c-.6-.82-1.91-2-3-1.28a2.89,2.89,0,0,0-.85,3.06,3.33,3.33,0,0,0,2.11,2.31,3.48,3.48,0,0,0,3.45-.73c.47-.44-.24-1.15-.71-.71a2.41,2.41,0,0,1-2.1.58,2.28,2.28,0,0,1-1.66-1.35,2.22,2.22,0,0,1,.13-2.15c.26-.34.55-.21.89,0a3.2,3.2,0,0,1,.84.76,5.19,5.19,0,0,1,.94,2.61l1-.14a7.37,7.37,0,0,1-.1-2.2.5.5,0,0,0-.5-.5.51.51,0,0,0-.5.5Z" transform="translate(-21.16 -10.88)"/><path class="cls-5" d="M181.79,89.32v4.87h1a11,11,0,0,1,.45-3.22,9.26,9.26,0,0,1,.59-1.51s.14-.17.13-.21,0-.07-.1,0l0,.06a1.4,1.4,0,0,0,.13.34c.05.13.1.26.14.39a12.61,12.61,0,0,1,.6,3.16,13.19,13.19,0,0,1,0,1.54,8,8,0,0,1-.08.84,2.66,2.66,0,0,0-.07.37c0,.17-.14.1.07.09-.64,0-.64,1,0,1s.9-.72,1-1.33a13.84,13.84,0,0,0,.13-2.23A13.25,13.25,0,0,0,185,89.2c-.22-.57-.62-1.17-1.32-.91s-.82.95-1,1.48a11.74,11.74,0,0,0-.81,4.42.5.5,0,0,0,1,0V89.32a.5.5,0,0,0-1,0Z" transform="translate(-21.16 -10.88)"/><path class="cls-5" d="M188.41,89.18a40.82,40.82,0,0,1,.62-5,.53.53,0,0,0-.35-.62.5.5,0,0,0-.62.35,43.53,43.53,0,0,0-.65,5.22.5.5,0,0,0,.5.5.51.51,0,0,0,.5-.5Z" transform="translate(-21.16 -10.88)"/><path class="cls-5" d="M189.68,86.64a11.58,11.58,0,0,0,.14,2.63.48.48,0,0,0,.55.35.5.5,0,0,0,.43-.49,8.8,8.8,0,0,1,.41-2.14,8.48,8.48,0,0,1,.39-1c.08-.17.16-.34.25-.5,0,0,.24-.37.24-.35h0a.17.17,0,0,1-.1,0s0,0,0,0a2.61,2.61,0,0,1,.08.37c.06.39.1.79.13,1.18a17.11,17.11,0,0,1,0,2.48.5.5,0,0,0,1,0,16.62,16.62,0,0,0,0-2.34c0-.39-.06-.77-.11-1.15a3.09,3.09,0,0,0-.24-1,.93.93,0,0,0-.84-.5,1.2,1.2,0,0,0-.89.62,8.23,8.23,0,0,0-.88,2,9.86,9.86,0,0,0-.44,2.4l1-.13a11,11,0,0,1-.1-2.36.51.51,0,0,0-.5-.5.5.5,0,0,0-.5.5Z" transform="translate(-21.16 -10.88)"/><path class="cls-5" d="M193.38,84.94a23.92,23.92,0,0,0,.66,2.34c.13.4.28.79.43,1.18s.27.8.69.93.79-.22,1-.62.3-.82.45-1.23l.42-1.15c.07-.21.14-.41.22-.62l.11-.31.06-.15c0-.08,0-.1,0-.06l-.43.25h0l-.43-.25v-.36l.18-.18,0,0a.5.5,0,0,0-.18.68.5.5,0,0,0,.68.18.62.62,0,0,0,.22-.84.48.48,0,0,0-.43-.25c-.49,0-.56.55-.7.93l-.39,1.08-.39,1.07-.18.5a2.42,2.42,0,0,0-.16.44c-.09.14.05.14.42,0,0,0,0,0,0,0l-.06-.13-.2-.51c-.12-.34-.25-.69-.36-1-.23-.7-.42-1.4-.59-2.12a.5.5,0,1,0-1,.27Z" transform="translate(-21.16 -10.88)"/><path class="cls-5" d="M199.49,84.15A27.21,27.21,0,0,0,196.6,93c-.17,1.21-.57,2.9.33,3.91a1.37,1.37,0,0,0,2.41-.52c.09-.63-.87-.9-1-.27s-.83.06-.93-.32a4.79,4.79,0,0,1,0-1.77,27.09,27.09,0,0,1,.55-3.2,26.44,26.44,0,0,1,2.33-6.19c.3-.56-.56-1.07-.86-.5Z" transform="translate(-21.16 -10.88)"/><path class="cls-5" d="M201.78,86.64l-1.12,8.73c-.09.64.92.63,1,0l1.12-8.73c.08-.63-.92-.63-1,0Z" transform="translate(-21.16 -10.88)"/><path class="cls-5" d="M204.62,86.93l-1,3.58a.51.51,0,0,0,.74.56,5.86,5.86,0,0,1,3.23-1,.5.5,0,0,0,0-1,6.8,6.8,0,0,0-3.74,1.14l.74.56,1-3.57a.5.5,0,0,0-1-.27Z" transform="translate(-21.16 -10.88)"/><path class="cls-5" d="M206.71,87.49,206,94.38a.5.5,0,0,0,.5.5.51.51,0,0,0,.5-.5l.73-6.89a.5.5,0,0,0-.5-.5.5.5,0,0,0-.5.5Z" transform="translate(-21.16 -10.88)"/><path class="cls-5" d="M208.62,85.76a15,15,0,0,1,1.37,6c0,1.84-.28,4.26-2.25,5-.59.24-.34,1.21.26,1,2.2-.87,2.92-3.18,3-5.37a16,16,0,0,0-1.5-7.13c-.27-.59-1.13-.08-.86.5Z" transform="translate(-21.16 -10.88)"/><path class="cls-5" d="M200.61,103.33a10.39,10.39,0,0,1,2-2.52c.33-.29.81-.67,1.16-.24a10,10,0,0,1,.6,1.06,2.61,2.61,0,0,0,2.22,1.11,4.83,4.83,0,0,0,2.83-1.17c.51-.38,0-1.25-.5-.87a3.44,3.44,0,0,1-2.89,1c-1-.27-1-1.29-1.65-1.91-.84-.79-1.89-.21-2.59.45a11.6,11.6,0,0,0-2,2.63.5.5,0,0,0,.86.5Z" transform="translate(-21.16 -10.88)"/><path class="cls-5" d="M202.1,107.27a18.71,18.71,0,0,1,1.75-1.92c.32-.3.56-.57.9-.14s.36.66.6,1a1.93,1.93,0,0,0,1.91.61c.8-.14,1.61-.77,2.44-.55a.5.5,0,0,0,.26-1c-1-.26-1.76.24-2.67.48a1.15,1.15,0,0,1-1.07-.11c-.31-.26-.43-.72-.68-1a1.37,1.37,0,0,0-2.13-.21,16.51,16.51,0,0,0-2,2.16c-.39.5.31,1.21.71.71Z" transform="translate(-21.16 -10.88)"/><path class="cls-5" d="M214.73,98.45a5.87,5.87,0,0,0-1.6,1.8c-.34.62-.83,1.59-.24,2.22a2.48,2.48,0,0,0,1,.5,7.91,7.91,0,0,1,1,.52,3.34,3.34,0,0,1,1.4,1.55,1,1,0,0,1,0,1,2.2,2.2,0,0,1-1,.55,1.17,1.17,0,0,1-.82.06c-.37-.17-.27-.67-.17-1,.51-1.5,2.09-2.2,3.07-3.32a2.1,2.1,0,0,0,.35-2.36,2,2,0,0,0-2.17-1,.5.5,0,0,0-.35.61.52.52,0,0,0,.62.35,1,1,0,0,1,1.06,1.35,2.3,2.3,0,0,1-.72.83l-.94.8c-1,.87-2.56,2.47-1.86,4s2.89.73,3.68-.22c1.09-1.33-.3-3.12-1.4-3.9a7.18,7.18,0,0,0-1.15-.64l-.56-.23c-.21-.09-.29-.12-.24-.35a4.4,4.4,0,0,1,1.6-2.26.51.51,0,0,0,.17-.68.5.5,0,0,0-.68-.18Z" transform="translate(-21.16 -10.88)"/><path class="cls-5" d="M222.23,99.6a4.73,4.73,0,0,1-1.89-.38.51.51,0,0,0-.68.18,8.62,8.62,0,0,0-1,3.61,1,1,0,0,0,.73,1.1c.45.1.93-.18,1.36,0a2.58,2.58,0,0,1,1.12,2.34c-.06.52-.47.67-.95.59s-1.15-.39-1.77-.47c-.27,0-.49.26-.5.5a.51.51,0,0,0,.5.5c.65.09,1.22.45,1.88.49a1.75,1.75,0,0,0,1.48-.59,2.9,2.9,0,0,0-.12-3,3,3,0,0,0-1-1.18,2.05,2.05,0,0,0-1.46-.2c-.34,0-.26.08-.24-.25a8,8,0,0,1,.15-1,7.91,7.91,0,0,1,.72-2l-.68.18a5.78,5.78,0,0,0,2.39.52.5.5,0,0,0,0-1Z" transform="translate(-21.16 -10.88)"/><path class="cls-5" d="M224.55,107.11v0l-.05.12s0,0,0,0l-.08.1,0,0-.11.08,0,0-.12,0h0l-.13,0a.08.08,0,0,1,.07,0l-.14,0,.09,0-.12,0,.08,0-.1-.08.06.06-.08-.1s0,0,0,.06l-.05-.12a.08.08,0,0,1,0,0l0-.13a.22.22,0,0,1,0,.08l0-.14,0,.12.05-.12-.08.12.08-.1a.81.81,0,0,1-.19.18l.1-.08-.13.1.68.18,0-.06.05.12a.29.29,0,0,1,0-.09v.15a.27.27,0,0,1,0-.12l0,.12a.35.35,0,0,1,.07-.12l-.08.1.08-.09-.1.08.09,0-.12,0,.1,0-.14,0h.1l-.14,0a.29.29,0,0,1,.1,0l-.12,0,.09,0-.1-.08a.34.34,0,0,1,.08.09l-.07-.11.07.12-.05-.12,0,.13,0-.14a.24.24,0,0,1,0,.12l0-.13s0,.06,0,.09l.05-.12,0,.05.43-.24-.22,0,.13,0a1,1,0,0,1-.33-.09l.12.05-.09,0a.51.51,0,0,0-.38,0,.5.5,0,0,0-.3.23.53.53,0,0,0-.05.39.5.5,0,0,0,.23.3,1.72,1.72,0,0,0,.45.16,1.35,1.35,0,0,0,.29,0h.13a.56.56,0,0,0,.37-.15.54.54,0,0,0,.09-.12v0a1.22,1.22,0,0,0,.07-.17,10.13,10.13,0,0,0,0-.25.43.43,0,0,1,0,0,.63.63,0,0,0,0-.19,1,1,0,0,0-.08-.22,1.43,1.43,0,0,0-.14-.2,1,1,0,0,0-.64-.3h-.06l-.18,0,0,0-.17.07,0,0-.14.12a.7.7,0,0,0-.15.19.94.94,0,0,0-.1.23,1.11,1.11,0,0,0,0,.25v.07a1.13,1.13,0,0,0,0,.18.14.14,0,0,0,0,.07.53.53,0,0,0,.08.17.5.5,0,0,0,.3.23.46.46,0,0,0,.38,0l.26-.18a1.85,1.85,0,0,0,.14-.14,1.14,1.14,0,0,0,.18-.25.92.92,0,0,0,.1-.41.64.64,0,0,0-.09-.36.75.75,0,0,0-.15-.2,1,1,0,0,0-.33-.19.71.71,0,0,0-.6.06.63.63,0,0,0-.21.22l0,0-.06.14a.59.59,0,0,0,0,.39.5.5,0,0,0,.92-.12Z" transform="translate(-21.16 -10.88)"/><path class="cls-5" d="M228.23,108.07a5.76,5.76,0,0,0,1.74-5.73c-.27-1-1-2.32-2.25-1.8a2.35,2.35,0,0,0-1.21,2.86,1.59,1.59,0,0,0,2.73.45.5.5,0,1,0-.86-.51c-.16.22-.59.12-.76,0a1,1,0,0,1-.14-1.13c.12-.31.47-.85.87-.74s.54.76.63,1.07a4.74,4.74,0,0,1-1.46,4.85c-.49.42.22,1.12.71.71Z" transform="translate(-21.16 -10.88)"/><path class="cls-5" d="M231.79,99.58a3.39,3.39,0,0,0-.78,1.81,1.68,1.68,0,0,0,.89,1.54,1.33,1.33,0,0,0,1.71-.58,3.32,3.32,0,0,0,.44-1.92,1.8,1.8,0,0,0-1.3-1.66.48.48,0,0,0-.48.13l-.25.28a.51.51,0,0,0,0,.71.5.5,0,0,0,.71,0l.24-.29-.48.13.13,0c-.08,0,0,0,.07,0l.06,0s-.05,0,0,0l.12.11c0,.06,0,0,0,.05a1.09,1.09,0,0,1,.08.15s0,0,0,0l0,.07a.85.85,0,0,1,0,.17,1.84,1.84,0,0,1,0,.62l-.09.38-.05.14,0,.08a1.16,1.16,0,0,1-.14.27l0,.06s0-.06,0,0a.63.63,0,0,1-.12.11c.09-.06-.08,0,0,0l-.05,0c.05,0-.06,0-.08,0h0l-.09,0c-.09,0,0,0,0,0l-.05,0-.06,0s.06,0,0,0l-.1-.09h0l-.07-.09s-.06-.12-.05-.09,0-.07,0-.09,0-.14,0-.09,0,0,0,0v-.12a.19.19,0,0,1,0-.08s0,0,0,0,0-.12,0-.18l.06-.18s0,0,0,0l0-.1a6.54,6.54,0,0,1,.45-.71.5.5,0,0,0-.18-.68.5.5,0,0,0-.68.18Z" transform="translate(-21.16 -10.88)"/><path class="cls-5" d="M231.81,104.74l.06,0c.08-.06,0,0,0,0l.14-.09.15-.09s.16-.06.06,0l.32-.1.18,0c.06,0,0,0,0,0h.52c.07,0,0,0,0,0s.14,0,.18,0l.32.1c-.1,0,0,0,.06,0l.17.1a.5.5,0,1,0,.51-.86,2.85,2.85,0,0,0-3.34.3.49.49,0,0,0,.7.7Z" transform="translate(-21.16 -10.88)"/></svg>