<?xml version="1.0" encoding="UTF-8"?>
<svg id="Layer_2" data-name="Layer 2" xmlns="http://www.w3.org/2000/svg" viewBox="0 0 235.71 238.02">
  <defs>
    <style>
      .cls-1 {
        fill: #a7a9ac;
      }

      .cls-1, .cls-2, .cls-3 {
        stroke-width: 0px;
      }

      .cls-2 {
        fill: #ed1c24;
      }

      .cls-3 {
        fill: #00aeef;
      }
    </style>
  </defs>
  <g id="Layer_1-2" data-name="Layer 1">
    <g>
      <path class="cls-1" d="M221.74,163.37c4.23-3.73,8.33-7.61,12.28-11.64.8-.81,2.14-1.83,1.52-3.12-.26-.53-.74-.85-1.22-1.15-1.2-.77-2.43-1.5-3.66-2.23-2.43-1.46-4.87-2.9-7.32-4.33-1.11-.65-2.12,1.07-1.01,1.73,3.44,2.02,6.88,4.03,10.27,6.12.34.21.68.41,1.01.64.03.02.09.08.12.09-.02,0-.06.08.03.05l-.02-.03c-.06-.09-.07-.2-.02-.33-.1-.04-1.16,1.19-1.29,1.33-1.84,1.87-3.72,3.71-5.62,5.52-2.13,2.02-4.29,4-6.49,5.94-.97.85.45,2.26,1.41,1.41h0Z"/>
      <path class="cls-1" d="M17.96,136.07c-3.54,1.58-6.89,3.56-9.98,5.89-.72.54-1.6,1.09-2.17,1.79-.67.81-.44,1.77.2,2.51,1.36,1.58,2.91,3.03,4.39,4.49,1.67,1.65,3.37,3.26,5.1,4.85.95.87,2.37-.54,1.41-1.41-1.76-1.61-3.49-3.26-5.19-4.93-.85-.84-1.7-1.69-2.53-2.55-.42-.43-.83-.86-1.25-1.29-.1-.11-.39-.54-.53-.56-.08-.16-.11-.1-.09.18.08-.09.17-.16.26-.24,3.34-2.9,7.36-5.2,11.38-6.99.49-.22.61-.94.36-1.37-.3-.51-.87-.58-1.37-.36h0Z"/>
      <path class="cls-1" d="M6.27,146.38c13.93,3.8,28.45,3.76,42.78,3.62,15.01-.15,30.01-.31,45.02-.46,15.01-.15,30.03-.31,45.04-.46s29.87-.38,44.8-.25c16.85.15,33.71.81,50.47,2.67.39.04.9-.34.96-.73.27-1.68-.76-3.47-2.62-3.42-1.28.04-1.29,2.04,0,2,.47-.01.77.42.7.89l.96-.73c-29.66-3.3-59.56-2.79-89.35-2.49-30.03.31-60.06.62-90.09.93-16.08.17-32.47.79-48.14-3.49-1.24-.34-1.77,1.59-.53,1.93h0Z"/>
    </g>
    <g>
      <path class="cls-1" d="M115.48,49.97c1.61-5.78,3.56-11.46,5.85-17,.57-1.37,1.16-2.73,1.77-4.07.3-.66.59-1.32.91-1.96.06-.12.11-.24.18-.35.14-.24.28-.24-.08-.25-.47-.02-.16-.01-.09.18.06.16.18.32.26.47,1.45,2.77,2.83,5.59,4.24,8.39,1.64,3.24,3.27,6.47,4.91,9.71.58,1.15,2.31.14,1.73-1.01-1.56-3.09-3.12-6.18-4.68-9.27-.78-1.54-1.56-3.09-2.34-4.63s-1.44-3.07-2.29-4.51c-.34-.58-.81-1.12-1.51-1.22-.77-.11-1.38.36-1.77.97s-.69,1.38-1,2.07c-.33.73-.66,1.46-.98,2.19-1.32,3.01-2.53,6.06-3.65,9.15-1.26,3.5-2.39,7.05-3.39,10.63-.35,1.24,1.58,1.77,1.93.53h0Z"/>
      <path class="cls-1" d="M116.89,221.69c1.54,4.39,3.42,8.67,5.7,12.73.53.95,1.05,1.95,1.69,2.82.76,1.03,1.97.96,2.71-.04s1.31-2.04,1.94-3.06,1.25-2.05,1.87-3.08c1.43-2.39,2.81-4.81,4.15-7.25.62-1.13-1.1-2.14-1.73-1.01-1.29,2.33-2.61,4.65-3.97,6.94-.66,1.1-1.32,2.2-1.99,3.29-.36.58-.71,1.15-1.08,1.73-.24.38-.56,1.19-.97,1.38l.5-.14.16.06c-.06-.09-.11-.18-.17-.26-.08-.13-.15-.25-.23-.38-.17-.28-.34-.57-.51-.86-.36-.61-.71-1.22-1.04-1.84-.67-1.22-1.3-2.46-1.9-3.71-1.22-2.56-2.29-5.18-3.22-7.86-.42-1.21-2.36-.69-1.93.53h0Z"/>
      <path class="cls-1" d="M122.89,26.02c-.36,27.25-.5,54.5-.44,81.76.07,27.12.35,54.24.84,81.35.28,15.29.62,30.59,1.03,45.88.03,1.28,2.03,1.29,2,0-.73-27.25-1.25-54.5-1.56-81.75-.3-27.12-.4-54.23-.28-81.35.07-15.29.2-30.59.4-45.88.02-1.29-1.98-1.29-2,0h0Z"/>
    </g>
    <g>
      <path class="cls-2" d="M35.42,26.94c1.03,11.62,2.64,23.21,5.22,34.6s6,22.1,10.78,32.5c4.53,9.85,10.27,19.15,17.46,27.29,6.71,7.59,14.65,14.21,23.59,19.02s17.95,7.48,27.64,7.83c4.63.17,9.21.1,13.82-.65s9.44-2.17,13.9-4.04c9.27-3.87,17.62-9.7,24.83-16.67,7.6-7.34,13.88-15.95,18.9-25.23,5.43-10.05,9.47-20.81,12.48-31.82,3.06-11.2,5.05-22.66,6.39-34.18.33-2.85.62-5.71.87-8.56.11-1.28-1.89-1.27-2,0-1.01,11.4-2.59,22.75-5.12,33.92-2.48,10.98-5.86,21.79-10.55,32.03-4.43,9.66-10,18.82-17.03,26.82-6.56,7.46-14.28,13.97-23.02,18.73s-17.6,7.43-27.1,7.75c-2.13.07-4.24-.02-6.36-.09-2.36-.08-4.71-.32-7.04-.71-4.68-.79-9.28-2.15-13.65-3.99-9.06-3.81-17.22-9.6-24.24-16.44-7.47-7.28-13.59-15.76-18.51-24.93-5.27-9.83-9.18-20.34-12.1-31.1s-5-22.41-6.31-33.81c-.32-2.75-.59-5.5-.83-8.26-.11-1.27-2.11-1.28-2,0h0Z"/>
      <path class="cls-2" d="M45.9,34.9c-1.98-3.2-4.26-6.22-6.83-8.98-.59-.63-1.2-1.45-1.96-1.87-.89-.5-1.75.06-2.14.88-.85,1.78-1.53,3.67-2.25,5.51-.83,2.13-1.63,4.27-2.39,6.42-.43,1.22,1.5,1.74,1.93.53.72-2.04,1.47-4.07,2.26-6.08.38-.97.76-1.93,1.15-2.89.21-.52.42-1.03.64-1.54.09-.21.18-.43.27-.64.05-.12.1-.24.16-.37.14-.21.08-.21-.2,0l-.5-.14c.46.22.84.75,1.18,1.12s.71.75,1.05,1.13c.72.8,1.42,1.62,2.09,2.46,1.39,1.74,2.65,3.57,3.82,5.46.68,1.09,2.41.09,1.73-1.01h0Z"/>
      <path class="cls-2" d="M216.51,38.24c-.56-2.39-1.25-4.74-2.09-7.05-.42-1.15-.87-2.28-1.35-3.4-.24-.55-.48-1.1-.73-1.64-.21-.45-.39-.94-.72-1.32-.36-.42-.89-.65-1.44-.52s-.95.61-1.33,1.02c-.86.95-1.7,1.91-2.54,2.88-1.68,1.95-3.32,3.94-4.92,5.96-.33.42-.41,1,0,1.41.35.35,1.08.43,1.41,0,1.3-1.64,2.63-3.27,3.98-4.87.67-.79,1.36-1.58,2.04-2.37.32-.36.63-.72.95-1.08.16-.18.32-.36.48-.53.11-.12.21-.24.32-.36.17-.13.18-.17.01-.11l-.5-.14c-.05-.13-.03-.11.06.06.06.12.12.23.17.35.13.27.26.54.38.81.22.48.43.95.64,1.44.46,1.07.87,2.15,1.26,3.24.78,2.2,1.44,4.45,1.97,6.72.3,1.25,2.22.72,1.93-.53h0Z"/>
    </g>
    <path class="cls-3" d="M184.06,38.85c-8.83,9.97-16.05,21.22-22.41,32.9s-12.1,24.17-17.93,36.37-11.96,24.45-19.24,35.95c-4.2,6.63-8.66,13.1-12.82,19.76s-8.13,13.48-11.99,20.34c-7.78,13.83-15.27,27.83-22.85,41.76-.97,1.78-1.94,3.56-2.91,5.34-.62,1.13,1.11,2.14,1.73,1.01,7.6-13.97,15.14-27.99,22.85-41.9,3.82-6.89,7.71-13.73,11.79-20.47s8.33-13.17,12.61-19.68c7.63-11.64,14.2-23.81,20.27-36.33s11.44-24.42,17.69-36.37c6.15-11.77,13.01-23.27,21.47-33.55,1.03-1.25,2.09-2.49,3.17-3.7.85-.96-.56-2.38-1.41-1.41h0Z"/>
    <g>
      <path class="cls-3" d="M39.54,183.12c-1.44,1.44-2.78,3-3.98,4.64-.69.94-3.05,3.56-.93,4.26,1.9.63,4.05-.11,6,0,.85.05,1.91.26,2.44,1.01.58.83-.06,1.72-.73,2.25-1.78,1.41-4.4,1.86-6.6,1.57-.63-.09-.9.88-.27.96,2.04.28,4.07.01,5.94-.84,1.45-.66,3.37-2.02,2.78-3.89-.55-1.72-2.69-2.1-4.24-2.07-1.13.02-2.26.21-3.39.23-.44,0-1.19.07-1.59-.15-.29-.16-.22-.3-.06-.58.14-.26.32-.5.48-.75,1.42-2.14,3.05-4.11,4.86-5.93.46-.46-.25-1.16-.71-.71h0Z"/>
      <path class="cls-3" d="M47.03,183.94c-.26,1.85-.53,3.69-.79,5.54s-.64,3.55-.75,5.32c-.1,1.53,1.26,1.9,2.51,1.59,1.79-.43,3.57-1,5.34-1.51.62-.17.36-1.14-.27-.96-1.5.42-3.01.85-4.51,1.27-.47.13-1.34.53-1.82.28-.55-.29-.13-1.56-.07-2.04.44-3.08.88-6.15,1.32-9.23.09-.63-.87-.9-.96-.27h0Z"/>
      <path class="cls-3" d="M56.13,190.2c.45-1.3,1.57-2.91,3.05-3.11s2.59,1.49,2.4,2.87c-.17,1.27-1.09,2.29-2.16,2.92-.81.48-2.4,1.24-3.19.4-.71-.75-.39-2.21-.1-3.09.2-.61-.76-.88-.96-.27-.37,1.13-.59,2.67.09,3.72,1.02,1.56,3.1.93,4.45.22s2.53-1.98,2.82-3.52c.35-1.85-.78-4.02-2.78-4.25-2.21-.25-3.94,1.97-4.58,3.83-.21.61.76.87.96.27Z"/>
      <path class="cls-3" d="M65.73,194.75c-.48-2.06-.82-4.15-.98-6.26-.08-1.04-.13-2.07-.13-3.11,0-.48,0-.96.01-1.44s-.03-1.08.46-1.31c.68-.32,1.59.16,2.12.58.63.5,1.12,1.26,1.16,2.08.06,1.36-1.52,2.63-2.78,1.84-.55-.34-1.05.52-.5.86,1.19.75,2.74.29,3.61-.75,1.04-1.24.76-2.97-.21-4.16-.87-1.07-2.71-2.1-4.04-1.24-.8.52-.8,1.49-.81,2.34-.02,1.12,0,2.24.06,3.35.14,2.52.51,5.02,1.08,7.48.15.63,1.11.36.96-.27h0Z"/>
      <path class="cls-3" d="M71.71,185.78c-.2,2.67-.65,5.31-1.34,7.89-.09.34.25.75.62.62,1.79-.66,3.59-1.32,5.38-1.99.6-.22.34-1.19-.27-.96-1.79.66-3.59,1.32-5.38,1.99l.62.62c.71-2.67,1.17-5.4,1.37-8.16.05-.64-.95-.64-1,0h0Z"/>
      <path class="cls-3" d="M71.76,188.98l4.34-.84c.27-.05.42-.37.35-.62-.08-.28-.35-.4-.62-.35l-4.34.84c-.27.05-.42.37-.35.62.08.28.35.4.62.35h0Z"/>
      <path class="cls-3" d="M71.89,186.32l5.43-.57c.27-.03.5-.21.5-.5,0-.25-.23-.53-.5-.5l-5.43.57c-.27.03-.5.21-.5.5,0,.25.23.53.5.5h0Z"/>
      <path class="cls-3" d="M36.8,209.01c-1.18-1.76-1.24-4.08-.23-5.94.92-1.69,3.22-3.14,5.19-2.4,1.18.44,1.77,1.79,2.19,2.88.5,1.32.83,2.7.96,4.1.08.88.23,2.01-.45,2.7-.55.56-1.45.73-2.21.8-2.04.18-4.2-.42-5.44-2.15-.37-.52-1.24-.02-.86.5,1.37,1.91,3.62,2.77,5.92,2.67.89-.04,1.84-.19,2.63-.62,1.02-.56,1.44-1.55,1.47-2.67.04-1.62-.29-3.3-.78-4.84-.44-1.38-1.03-2.93-2.22-3.84-2.02-1.55-5.17-.38-6.62,1.43-1.78,2.21-1.98,5.51-.4,7.87.36.53,1.22.03.86-.5Z"/>
      <path class="cls-3" d="M51.3,211.6c-.45-2.85-.9-5.7-1.35-8.56-.05-.33-.1-.67-.16-1-.06-.38-.22-.77.19-.96.39-.18.95-.15,1.36-.16.77-.03,1.53,0,2.29.02.64.02.64-.98,0-1-.94-.04-1.89-.07-2.83,0-.5.04-1.08.08-1.52.34-.56.33-.63.91-.55,1.49.46,3.37,1.06,6.72,1.58,10.08.1.63,1.06.36.96-.27h0Z"/>
      <path class="cls-3" d="M49.12,207.89c1.96-.79,4.02-1.33,6.12-1.58.27-.03.5-.21.5-.5,0-.25-.23-.53-.5-.5-2.19.26-4.34.79-6.39,1.62-.25.1-.43.33-.35.62.07.24.36.45.62.35h0Z"/>
      <path class="cls-3" d="M64.23,200.93c2.53,3.47,5.3,6.76,8.3,9.83.45.46,1.16-.25.71-.71-2.94-3.01-5.67-6.22-8.15-9.63-.37-.52-1.24-.02-.86.5h0Z"/>
      <path class="cls-3" d="M71.19,199.61c-2.29,3.37-4.36,6.88-6.2,10.51-.29.57.57,1.08.86.5,1.84-3.64,3.91-7.15,6.2-10.51.36-.53-.5-1.03-.86-.5h0Z"/>
      <path class="cls-3" d="M72.99,197.69c1.08-.28,2.31-.41,3.3.21.8.5,1.26,1.45.85,2.36s-1.41,1.49-2.34,1.8c-1.13.38-2.3.57-3.39,1.08-.45.21-.23.95.25.93,2.78-.12,5.57-.08,8.34.14.64.05.64-.95,0-1-2.78-.22-5.56-.26-8.34-.14l.25.93c1.33-.62,2.85-.72,4.16-1.39,1.03-.53,1.99-1.46,2.19-2.64s-.46-2.31-1.47-2.94c-1.22-.76-2.74-.65-4.07-.31-.62.16-.36,1.13.27.96h0Z"/>
    </g>
    <g>
      <path class="cls-3" d="M73.5,215.46c-.66,4.76-.96,9.56-.76,14.36.04,1.04-.04,2.29.28,3.29.39,1.21,1.61,1.24,2.58.71,2.06-1.12,4.05-2.4,6.04-3.65,2.33-1.45,4.63-2.95,6.91-4.48,1.06-.71.06-2.45-1.01-1.73-2.21,1.49-4.45,2.94-6.7,4.35-1.09.68-2.18,1.35-3.28,2.01-.58.35-1.16.7-1.75,1.04-.27.16-.55.32-.82.49-.13.08-.26.16-.39.23-.04.03-.09.05-.14.07-.08.04-.07.03,0,0l.44.26c.09.08,0,.07,0-.07s-.02-.28-.03-.42c-.03-.35-.05-.7-.07-1.05-.04-.67-.07-1.33-.09-2-.04-1.43-.04-2.86,0-4.29.08-2.87.32-5.74.72-8.59.07-.53-.13-1.07-.7-1.23-.47-.13-1.15.16-1.23.7h0Z"/>
      <path class="cls-3" d="M184.82,55.65c1.06-4.64,1.75-9.37,1.96-14.13.03-.59.05-1.17.06-1.76.01-.51.07-1.08-.05-1.58-.3-1.22-1.49-1.37-2.49-.92-2.18.96-4.3,2.07-6.41,3.15-2.45,1.25-4.87,2.54-7.28,3.87-1.13.62-.12,2.35,1.01,1.73,2.33-1.29,4.69-2.54,7.06-3.76,1.16-.59,2.33-1.18,3.49-1.75.58-.29,1.17-.57,1.75-.85.43-.21,1.09-.7,1.57-.64l-.5-.14c-.13-.06-.05-.18-.13-.09-.05.05,0,.44,0,.52,0,.35-.01.7-.02,1.05-.02.67-.05,1.33-.09,2-.08,1.43-.21,2.85-.37,4.28-.33,2.86-.84,5.69-1.48,8.49-.29,1.25,1.64,1.79,1.93.53h0Z"/>
    </g>
    <g>
      <g>
        <path class="cls-2" d="M32.34,11.07l6.63-.66c.27-.03.5-.21.5-.5,0-.25-.23-.53-.5-.5l-6.63.66c-.27.03-.5.21-.5.5,0,.25.23.53.5.5h0Z"/>
        <path class="cls-2" d="M31.01,15.56l7.81-1.63c.63-.13.36-1.1-.27-.96l-7.81,1.63c-.63.13-.36,1.1.27.96h0Z"/>
      </g>
      <g>
        <path class="cls-2" d="M43.56,8.06c2.8,3.04,5.63,6.05,8.5,9.03.45.46,1.15-.24.71-.71-2.87-2.98-5.7-5.99-8.5-9.03-.44-.47-1.14.23-.71.71h0Z"/>
        <path class="cls-2" d="M50.72,6.49c-2.86,3.86-5.42,7.95-7.65,12.21-.3.57.56,1.08.86.5,2.23-4.26,4.78-8.34,7.65-12.21.38-.52-.48-1.02-.86-.5h0Z"/>
      </g>
      <path class="cls-2" d="M54.82,1.02c.76-.12,1.55.23,2.05.8.53.6.62,1.41.37,2.15s-.88,1.24-1.63,1.47c-.86.26-1.75.41-2.41,1.06-.33.32-.06.82.35.85,1.64.13,3.28.29,4.92.47.27.03.5-.25.5-.5,0-.29-.23-.47-.5-.5-1.64-.18-3.28-.34-4.92-.47l.35.85c.72-.71,1.91-.67,2.79-1.13s1.5-1.4,1.65-2.38c.34-2.19-1.64-3.97-3.78-3.64-.27.04-.41.38-.35.62.08.29.35.39.62.35h0Z"/>
      <path class="cls-2" d="M4.59,22.51l.07.02-.35-.35-.02-.1.35-.35-.08.03.39.05c-.1-.06-.22-1.17-.25-1.31-.1-.51-.18-1.03-.27-1.54-.16-.99-.28-1.98-.38-2.97-.2-2.04-.29-4.09-.26-6.14.02-1.56.08-3.52,1.29-4.69.86-.83,2.64-1.15,3.36.03.34.55,1.2.05.86-.5-.72-1.17-2.16-1.48-3.42-1.1-1.49.45-2.39,1.74-2.77,3.2-.49,1.87-.36,3.93-.29,5.84.08,2.13.29,4.26.61,6.37.09.6.19,1.19.3,1.78.09.49.12,1.11.35,1.55.37.73,1.33.38,1.19-.41-.03-.16-.19-.31-.35-.35l-.07-.02c-.62-.15-.89.81-.27.96h0Z"/>
      <path class="cls-2" d="M.62,14.04c3.31-.98,6.66-1.82,10.05-2.51.63-.13.36-1.09-.27-.96-3.39.69-6.74,1.53-10.05,2.51-.62.18-.35,1.15.27.96h0Z"/>
      <path class="cls-2" d="M14.45,3.82c-1.34,4.12-2.11,8.44-2.21,12.78-.04,1.63.06,3.61,1.39,4.77,1.07.93,2.73,1.18,3.82.17.47-.44-.24-1.14-.71-.71-1.09,1.01-2.65-.09-3.12-1.18-.64-1.5-.4-3.37-.29-4.95.25-3.61.96-7.17,2.08-10.61.2-.61-.77-.88-.96-.27h0Z"/>
      <path class="cls-2" d="M16.74,8.83c1.99,3.09,4.45,5.86,7.28,8.21.49.41,1.2-.3.71-.71-2.77-2.29-5.18-4.98-7.12-8-.35-.54-1.21-.04-.86.5h0Z"/>
      <path class="cls-2" d="M21.43,5.57c-1.31,4.99-2.62,9.97-3.94,14.96-.16.62.8.89.96.27,1.31-4.99,2.62-9.97,3.94-14.96.16-.62-.8-.89-.96-.27h0Z"/>
      <path class="cls-2" d="M23.23,2.42c2.86,1.99,4.08,5.44,4.62,8.75.31,1.89.53,3.86.55,5.77.02,1.63-.42,3.65-2.14,4.29-.6.23-.34,1.19.27.96,1.68-.63,2.58-2.25,2.8-3.97.14-1.1.04-2.2-.05-3.3s-.2-2.22-.36-3.32c-.53-3.83-1.88-7.75-5.18-10.05-.53-.37-1.03.5-.5.86h0Z"/>
    </g>
  </g>
</svg>