<svg id="Layer_1" data-name="Layer 1" xmlns="http://www.w3.org/2000/svg" viewBox="0 0 239.21 214.11"><defs><style>.cls-1{fill:#a7a9ac;}.cls-2{fill:#ed1c24;}.cls-3{fill:#00aeef;}</style></defs><title>x-squared-and-derivative-sketch</title><path class="cls-1" d="M240.05,140q5.89-5.21,11.44-10.78l1.35-1.37a3.71,3.71,0,0,0,1.1-1.45c.36-1.21-.69-1.94-1.57-2.52a32.34,32.34,0,0,0-5.25-2.49,11.62,11.62,0,0,1-5.1-3.5l-.36,1.37a.46.46,0,0,1,.68.07c.9.92,2.31-.5,1.41-1.42a2.47,2.47,0,0,0-3.1-.38,1,1,0,0,0-.36,1.37c2.28,3.15,5.9,4.08,9.23,5.68a13.16,13.16,0,0,1,2.35,1.38,1.29,1.29,0,0,0,.18.16l.06,0-.07-.37c-.07,0-.56.58-.62.64-.44.46-.89.91-1.34,1.36-1.74,1.75-3.5,3.48-5.29,5.17q-3,2.87-6.15,5.62c-1,.85.45,2.26,1.41,1.41Z" transform="translate(-14.81 -0.48)"/><path class="cls-1" d="M36.27,112.68a50.8,50.8,0,0,0-10,5.88,13,13,0,0,0-2.18,1.79,1.88,1.88,0,0,0,.2,2.51c1.36,1.58,2.92,3,4.4,4.49q2.5,2.47,5.1,4.85c.95.87,2.37-.54,1.42-1.41q-2.64-2.41-5.19-4.94c-.85-.84-1.7-1.69-2.53-2.54-.42-.43-.84-.86-1.25-1.3-.1-.11-.4-.54-.53-.56s-.11-.1-.09.18a3,3,0,0,1,.26-.24,46.33,46.33,0,0,1,11.38-7,1,1,0,0,0-1-1.72Z" transform="translate(-14.81 -0.48)"/><path class="cls-1" d="M24.58,123c13.93,3.8,28.45,3.76,42.77,3.62l45-.47,45-.46c14.93-.15,29.86-.38,44.8-.24a494.33,494.33,0,0,1,50.46,2.67,1,1,0,0,0,1-.74A2.76,2.76,0,0,0,251,124c-1.28,0-1.29,2,0,2a.71.71,0,0,1,.7.88l1-.73c-29.66-3.3-59.55-2.8-89.35-2.49l-90.08.93c-16.08.16-32.48.78-48.14-3.49a1,1,0,0,0-.53,1.93Z" transform="translate(-14.81 -0.48)"/><path class="cls-1" d="M133.79,26.58a148.43,148.43,0,0,1,5.85-17c.56-1.36,1.16-2.72,1.77-4.07.3-.66.59-1.32.91-2a3.78,3.78,0,0,1,.17-.35c.15-.25.28-.24-.07-.26s-.16,0-.09.18.19.32.26.47c1.46,2.78,2.83,5.6,4.24,8.39l4.91,9.71c.42.84,1.55.5,1.83-.24l1-2.59a1,1,0,0,0-.69-1.23,1,1,0,0,0-1.23.7l-1,2.59,1.83-.24-4.69-9.27-2.34-4.63c-.76-1.5-1.44-3.07-2.29-4.51A2.21,2.21,0,0,0,142.64,1a1.8,1.8,0,0,0-1.77,1,15.66,15.66,0,0,0-1,2.06c-.33.73-.66,1.46-1,2.2q-2,4.52-3.65,9.15-1.89,5.25-3.38,10.63a1,1,0,0,0,1.93.53Z" transform="translate(-14.81 -0.48)"/><path class="cls-1" d="M135.2,198.29A79,79,0,0,0,140.9,211a27.52,27.52,0,0,0,1.69,2.81,1.6,1.6,0,0,0,2.72,0c.71-1,1.31-2,1.94-3.06s1.25-2.05,1.87-3.08q2.13-3.58,4.15-7.25c.62-1.12-1.11-2.13-1.73-1-1.28,2.34-2.61,4.65-4,6.94-.65,1.1-1.31,2.2-2,3.29-.35.58-.71,1.16-1.07,1.73-.25.39-.56,1.2-1,1.39l.51-.14.16.06c-.06-.08-.11-.17-.17-.26s-.15-.25-.23-.38l-.51-.86c-.35-.6-.7-1.22-1-1.84-.67-1.22-1.3-2.46-1.9-3.71a79.08,79.08,0,0,1-3.23-7.86c-.42-1.21-2.35-.69-1.92.53Z" transform="translate(-14.81 -0.48)"/><path class="cls-1" d="M141.2,2.63q-.54,40.88-.44,81.75.11,40.68.84,81.35.42,23,1,45.88c0,1.29,2,1.29,2,0q-1.09-40.86-1.55-81.75-.47-40.68-.28-81.35.09-22.95.4-45.88a1,1,0,0,0-2,0Z" transform="translate(-14.81 -0.48)"/><path class="cls-2" d="M53.73,3.54A259.15,259.15,0,0,0,59,38.14a165.23,165.23,0,0,0,10.78,32.5A110.94,110.94,0,0,0,87.2,97.93a86.51,86.51,0,0,0,23.58,19,63.51,63.51,0,0,0,27.65,7.83,69.4,69.4,0,0,0,13.81-.65,62.45,62.45,0,0,0,13.91-4A80.92,80.92,0,0,0,191,103.42a103,103,0,0,0,18.9-25.23,149.86,149.86,0,0,0,12.48-31.82,230.43,230.43,0,0,0,6.38-34.18c.33-2.85.62-5.71.87-8.56.12-1.29-1.88-1.28-2,0a253.67,253.67,0,0,1-5.12,33.91,162.52,162.52,0,0,1-10.55,32,109.66,109.66,0,0,1-17,26.81,85.06,85.06,0,0,1-23,18.73,61.3,61.3,0,0,1-27.11,7.75c-2.12.07-4.24,0-6.36-.09a53.79,53.79,0,0,1-7.05-.71,61.43,61.43,0,0,1-13.65-4,78.94,78.94,0,0,1-24.24-16.43A101.71,101.71,0,0,1,75,76.7a147.48,147.48,0,0,1-12.1-31.09A226,226,0,0,1,56.57,11.8q-.48-4.12-.84-8.26c-.11-1.27-2.11-1.28-2,0Z" transform="translate(-14.81 -0.48)"/><path class="cls-2" d="M64.21,11.51a57.26,57.26,0,0,0-6.82-9,9.18,9.18,0,0,0-2-1.87,1.53,1.53,0,0,0-2.14.89c-.85,1.78-1.53,3.67-2.25,5.5q-1.24,3.19-2.39,6.42c-.43,1.22,1.5,1.74,1.93.53.72-2,1.47-4.06,2.26-6.08C53.2,7,53.59,6,54,5l.63-1.54.27-.64c0-.13.11-.25.16-.37s.08-.21-.2,0l-.51-.14a4.86,4.86,0,0,1,1.19,1.12l1,1.13c.72.8,1.42,1.62,2.09,2.46a55.74,55.74,0,0,1,3.83,5.46c.67,1.09,2.4.09,1.72-1Z" transform="translate(-14.81 -0.48)"/><path class="cls-2" d="M234.82,14.85a61.35,61.35,0,0,0-2.09-7c-.41-1.15-.87-2.28-1.35-3.4-.23-.55-.48-1.09-.73-1.64a6,6,0,0,0-.71-1.32,1.46,1.46,0,0,0-1.45-.52,2.82,2.82,0,0,0-1.32,1c-.86,1-1.71,1.91-2.54,2.88q-2.53,2.92-4.93,6a1,1,0,0,0,0,1.41,1,1,0,0,0,1.42,0c1.3-1.64,2.63-3.27,4-4.87.68-.79,1.36-1.58,2.05-2.36l.95-1.08.48-.53L228.9,3c.17-.13.18-.17,0-.11l-.5-.13q-.07-.19.06.06c.06.11.11.23.17.35L229,4c.22.47.43.95.64,1.43q.68,1.61,1.26,3.24a63.19,63.19,0,0,1,2,6.73c.3,1.25,2.23.72,1.93-.53Z" transform="translate(-14.81 -0.48)"/><path class="cls-2" d="M15.48,29.72a6.65,6.65,0,0,0-.41,4.6,3.46,3.46,0,0,0,3.6,2.15A7.18,7.18,0,0,0,23.07,34a18.33,18.33,0,0,0,3.2-4.6l-.92-.12c.3,1.71-.46,3.4-1,5s-1.18,3.16-1.8,4.73q-1.87,4.76-4,9.4c-.27.59.6,1.1.86.51,1.48-3.25,2.88-6.55,4.19-9.87.65-1.65,1.27-3.3,1.88-5a9.9,9.9,0,0,0,.87-5,.51.51,0,0,0-.92-.12,17.21,17.21,0,0,1-2.47,3.78,7.94,7.94,0,0,1-3.66,2.74A2.61,2.61,0,0,1,16,33.81,6.12,6.12,0,0,1,16.44,30c.23-.6-.74-.86-1-.26Z" transform="translate(-14.81 -0.48)"/><path class="cls-2" d="M28,37.29l6.6-.66a.51.51,0,0,0,.5-.5.5.5,0,0,0-.5-.5l-6.6.66a.51.51,0,0,0-.5.5.5.5,0,0,0,.5.5Z" transform="translate(-14.81 -0.48)"/><path class="cls-2" d="M26.7,41.76l7.78-1.62c.63-.13.36-1.1-.27-1L26.43,40.8c-.63.13-.36,1.09.27,1Z" transform="translate(-14.81 -0.48)"/><path class="cls-2" d="M40,34.29q4.18,4.55,8.46,9c.28.29.91.09.86-.35l-.2-1.59c-.08-.63-1.08-.64-1,0l.2,1.59.85-.35q-4.27-4.45-8.46-9c-.44-.47-1.15.24-.71.71Z" transform="translate(-14.81 -0.48)"/><path class="cls-2" d="M47.09,32.73a92.12,92.12,0,0,0-7.62,12.16.5.5,0,0,0,.57.73l1.05-.33c.61-.19.35-1.15-.27-1l-1,.33.56.73A92.78,92.78,0,0,1,48,33.23c.39-.51-.48-1-.86-.5Z" transform="translate(-14.81 -0.48)"/><path class="cls-2" d="M51.18,27.28a2.34,2.34,0,0,1,2,.79,2.16,2.16,0,0,1,.36,2.14A2.33,2.33,0,0,1,52,31.67a5.54,5.54,0,0,0-2.41,1.07.5.5,0,0,0,.36.85c1.63.13,3.26.29,4.89.47a.5.5,0,0,0,0-1c-1.63-.18-3.26-.34-4.89-.47l.35.85c.72-.7,1.91-.66,2.77-1.13a3.22,3.22,0,0,0-2.12-6,.51.51,0,0,0-.35.62.52.52,0,0,0,.62.35Z" transform="translate(-14.81 -0.48)"/><path class="cls-3" d="M202.37,15.45c-8.83,10-16.06,21.22-22.42,32.9-6.47,11.87-12.1,24.17-17.93,36.36s-12,24.45-19.24,36c-4.2,6.63-8.66,13.09-12.81,19.75s-8.14,13.48-12,20.34c-7.78,13.83-15.27,27.83-22.85,41.76l-2.91,5.34c-.61,1.14,1.12,2.15,1.73,1,7.61-14,15.14-28,22.85-41.9,3.82-6.89,7.72-13.73,11.79-20.47s8.33-13.17,12.61-19.69a324.77,324.77,0,0,0,20.27-36.32c5.88-12.13,11.43-24.43,17.68-36.38,6.16-11.77,13-23.26,21.48-33.54,1-1.25,2.08-2.49,3.16-3.7.85-1-.56-2.38-1.41-1.42Z" transform="translate(-14.81 -0.48)"/><path class="cls-3" d="M66.85,156.73a39.12,39.12,0,0,0-4,4.64c-.69.94-3,3.56-.93,4.26,1.9.63,4-.12,6,0a3.13,3.13,0,0,1,2.44,1c.58.83-.06,1.72-.73,2.25a9,9,0,0,1-6.6,1.56l.35.62a.35.35,0,0,1,.37-.22.5.5,0,0,0,0-1,1.38,1.38,0,0,0-1.33.95.51.51,0,0,0,.35.62,10.74,10.74,0,0,0,5.94-.85c1.45-.65,3.37-2,2.78-3.88s-2.69-2.1-4.24-2.07c-1.14,0-2.26.21-3.39.23a3.84,3.84,0,0,1-1.59-.15c-.29-.16-.22-.3-.06-.58a8.63,8.63,0,0,1,.48-.75,38.35,38.35,0,0,1,4.86-5.93.5.5,0,0,0-.71-.7Z" transform="translate(-14.81 -0.48)"/><path class="cls-3" d="M74.34,157.54l-.79,5.54c-.26,1.76-.65,3.55-.76,5.32-.09,1.54,1.27,1.9,2.51,1.6,1.8-.44,3.57-1,5.35-1.51a.5.5,0,0,0,0-1l-1-.31c-.61-.19-.88.77-.27,1l1,.3v-1l-4.51,1.27c-.47.13-1.34.52-1.82.27s-.14-1.55-.07-2l1.32-9.23c.09-.63-.87-.91-1-.27Z" transform="translate(-14.81 -0.48)"/><path class="cls-3" d="M82.35,167.25a15.44,15.44,0,0,1,1.59-4.43c.59-1,1.55-2.16,2.83-2.13A2.39,2.39,0,0,1,88.9,163a3.82,3.82,0,0,1-1.8,3.28,11.5,11.5,0,0,1-5,1.57c-.56.08-.43,1,.13,1l.61-.05c.63-.06.64-1.06,0-1l-.61.05.13,1a11.88,11.88,0,0,0,5.26-1.67,4.92,4.92,0,0,0,2.31-4,3.3,3.3,0,0,0-6.18-1.77A14,14,0,0,0,81.38,167c-.14.62.82.89,1,.26Z" transform="translate(-14.81 -0.48)"/><path class="cls-3" d="M93,168.35a41.45,41.45,0,0,1-1-6.25c-.09-1-.13-2.08-.14-3.12,0-.48,0-1,0-1.44s0-1.08.45-1.31a2.28,2.28,0,0,1,2.12.58,2.94,2.94,0,0,1,1.16,2.08c.07,1.36-1.52,2.63-2.78,1.84-.54-.35-1,.52-.5.86a2.83,2.83,0,0,0,3.61-.75,3.25,3.25,0,0,0-.21-4.16c-.87-1.07-2.71-2.1-4.05-1.24-.79.52-.79,1.5-.81,2.34q0,1.68.06,3.36a43.93,43.93,0,0,0,1.08,7.48c.15.62,1.11.36,1-.27Z" transform="translate(-14.81 -0.48)"/><path class="cls-3" d="M99,159.38a43.8,43.8,0,0,1-1.33,7.89.5.5,0,0,0,.61.62l5.38-2c.6-.22.34-1.19-.26-1l-5.38,2,.61.62a44.16,44.16,0,0,0,1.37-8.16c0-.64-1-.64-1,0Z" transform="translate(-14.81 -0.48)"/><path class="cls-3" d="M99.07,162.58l4.34-.83a.5.5,0,0,0-.26-1l-4.35.84a.51.51,0,0,0-.35.61.51.51,0,0,0,.62.35Z" transform="translate(-14.81 -0.48)"/><path class="cls-3" d="M99.2,157.93l5.43-.58a.5.5,0,1,0,0-1l-5.43.58a.51.51,0,0,0-.5.5.5.5,0,0,0,.5.5Z" transform="translate(-14.81 -0.48)"/><path class="cls-3" d="M63.33,179.36a6.33,6.33,0,0,1,2.47-4.7,3.28,3.28,0,0,1,4.59.75,12.84,12.84,0,0,1,1.83,6c.08.93.19,2.11-.65,2.75a4.3,4.3,0,0,1-2.81.63,10.85,10.85,0,0,1-3.57-.9c-.56-.23-1.11-.48-1.66-.74a4.06,4.06,0,0,1-.69-.35,2.89,2.89,0,0,1-.25-.24v0c.11,0,.06-.09-.15-.16.2.6,1.17.34,1-.27-.33-1-1.75-.6-1.81.34-.09,1.23,1.8,1.76,2.65,2.12a13.46,13.46,0,0,0,4.34,1.22,5.31,5.31,0,0,0,3.66-.87c1.1-.88,1.1-2.32,1-3.61a17,17,0,0,0-1-4.27,6.57,6.57,0,0,0-2.13-3.27,4.14,4.14,0,0,0-3.18-.58c-2.93.58-4.29,3.52-4.61,6.22-.08.64.92.64,1,0Z" transform="translate(-14.81 -0.48)"/><path class="cls-3" d="M78.61,185.2l-1.17-7.44L77.16,176a5.34,5.34,0,0,1-.13-.88c0-.42.29-.43.64-.5a9.78,9.78,0,0,1,1.79-.17c.32,0,.65,0,1,0,.15,0,.32.07.46.07a.21.21,0,0,1,.13.07c.12.13.18,0,.16-.3-.53.36,0,1.22.5.86a.77.77,0,0,0,0-1.27,2.93,2.93,0,0,0-2-.47,9.74,9.74,0,0,0-2.58.24c-.61.15-1.12.48-1.17,1.15a10.93,10.93,0,0,0,.33,2.41l.42,2.67.87,5.56c.1.63,1.06.36,1-.27Z" transform="translate(-14.81 -0.48)"/><path class="cls-3" d="M76.43,181.49a24.4,24.4,0,0,1,6.12-1.58.5.5,0,0,0,0-1,25.2,25.2,0,0,0-6.39,1.62.52.52,0,0,0-.35.62.51.51,0,0,0,.62.34Z" transform="translate(-14.81 -0.48)"/><path class="cls-3" d="M91.54,174.54a89.51,89.51,0,0,0,8.3,9.83.51.51,0,0,0,.61.08,1.12,1.12,0,0,0,.48-1.36c-.25-.59-1.22-.33-1,.26,0,.1.08.17,0,.23l.61.08A87.15,87.15,0,0,1,92.4,174c-.37-.51-1.24,0-.86.51Z" transform="translate(-14.81 -0.48)"/><path class="cls-3" d="M98.5,173.21a92.54,92.54,0,0,0-6.2,10.51.54.54,0,0,0,.07.61,1.2,1.2,0,0,0,1,.44.5.5,0,0,0,0-1,.24.24,0,0,1-.28-.15l.08.61a93.77,93.77,0,0,1,6.2-10.51c.36-.54-.5-1-.86-.51Z" transform="translate(-14.81 -0.48)"/><path class="cls-3" d="M100.3,171.29a4.2,4.2,0,0,1,3.3.21,1.87,1.87,0,0,1,.85,2.35,3.77,3.77,0,0,1-2.35,1.81,30.83,30.83,0,0,0-3.38,1.07.5.5,0,0,0,.25.93,70.31,70.31,0,0,1,8.34.14c.64,0,.64-1,0-1a70.31,70.31,0,0,0-8.34-.14l.25.94c1.34-.62,2.85-.72,4.16-1.39a3.92,3.92,0,0,0,2.19-2.64,2.94,2.94,0,0,0-1.47-2.94,5.16,5.16,0,0,0-4.06-.3.5.5,0,0,0,.26,1Z" transform="translate(-14.81 -0.48)"/><path class="cls-3" d="M91.81,192.06a79.31,79.31,0,0,0-.76,14.36,12.92,12.92,0,0,0,.28,3.29c.39,1.21,1.62,1.24,2.58.71,2.06-1.12,4-2.4,6-3.64q3.49-2.19,6.91-4.48c1.06-.72.06-2.45-1-1.73q-3.31,2.24-6.71,4.35c-1.08.68-2.18,1.35-3.27,2l-1.75,1-.83.49-.39.23-.14.07c-.08,0-.07,0,0,0l.45.26c.09.08,0,.07,0-.07l0-.42c0-.35,0-.7-.07-1.05,0-.67-.06-1.34-.08-2,0-1.43,0-2.87,0-4.3a77.33,77.33,0,0,1,.72-8.59,1,1,0,0,0-.7-1.23,1,1,0,0,0-1.23.7Z" transform="translate(-14.81 -0.48)"/><path class="cls-3" d="M203.13,32.25a79.18,79.18,0,0,0,2-14.13c0-.58,0-1.17.06-1.76a6.42,6.42,0,0,0-.05-1.58c-.31-1.22-1.49-1.37-2.49-.92-2.18,1-4.3,2.06-6.42,3.14-2.44,1.25-4.87,2.54-7.27,3.87-1.13.63-.12,2.36,1,1.73q3.49-1.94,7-3.76c1.16-.59,2.33-1.18,3.5-1.75l1.75-.85c.43-.21,1.09-.7,1.57-.64l-.5-.14c-.13-.06-.05-.18-.14-.09a2.26,2.26,0,0,0,0,.52c0,.35,0,.7,0,1.06,0,.66,0,1.33-.09,2-.08,1.43-.2,2.85-.37,4.27a78.66,78.66,0,0,1-1.48,8.5c-.28,1.25,1.64,1.79,1.93.53Z" transform="translate(-14.81 -0.48)"/></svg>