<?xml version="1.0" encoding="UTF-8"?>
<svg id="Layer_2" data-name="Layer 2" xmlns="http://www.w3.org/2000/svg" viewBox="0 0 263.9 118.47">
  <defs>
    <style>
      .cls-1 {
        fill: #ed1c24;
      }

      .cls-2 {
        fill: #a7a9ac;
      }
    </style>
  </defs>
  <g id="Layer_1-2" data-name="Layer 1">
    <g>
      <path class="cls-2" d="M9.28,59.66c-2.27,1.37-4.55,2.74-6.79,4.17-.78.5-2.18,1.12-2.45,2.11-.35,1.29,1.41,2.07,2.27,2.71,1.93,1.45,3.83,2.94,5.73,4.43.42.33,1,.41,1.41,0,.35-.35.43-1.08,0-1.41-1.77-1.39-3.55-2.78-5.34-4.15-.5-.38-1.01-.77-1.53-1.14-.15-.11-.3-.21-.45-.31-.05-.03-.1-.07-.16-.1-.03-.01-.05-.03-.08-.04-.28-.1.15-.18.1.28l-.14.5c.09-.21,0,.01.14-.17-.18.24-.03.03.1-.06.3-.21.6-.4.9-.6.89-.58,1.8-1.14,2.7-1.7,1.52-.94,3.05-1.86,4.57-2.78,1.1-.66.1-2.39-1.01-1.73h0Z"/>
      <path class="cls-2" d="M252.84,62.45c1.93.68,3.86,1.36,5.78,2.04.8.28,1.65.51,2.41.89.61.3.97.7.82,1.41-.33,1.53-1.93,2.8-3.02,3.81-1.33,1.22-2.77,2.31-4.29,3.28-1.08.69-.08,2.42,1.01,1.73,1.78-1.14,3.47-2.44,5.01-3.89,1.42-1.34,3.13-2.95,3.32-5.02.21-2.29-1.9-3.14-3.68-3.77-2.28-.8-4.55-1.6-6.83-2.41-1.22-.43-1.74,1.5-.53,1.93h0Z"/>
      <path class="cls-2" d="M1,67.14c8.48.07,16.97.14,25.45.21,8.48.07,16.97.14,25.45.21s17.05.14,25.58.21,16.98.14,25.47.2,16.98.12,25.47.17c8.49.05,16.98.09,25.47.12s16.98.04,25.47.04,17.07-.03,25.6-.07,16.98-.11,25.47-.21,16.98-.21,25.47-.37c2.08-.04,4.16-.08,6.24-.12,1.29-.03,1.29-2.03,0-2-8.49.17-16.98.3-25.47.41s-16.98.19-25.47.24-17.06.09-25.6.1-16.98,0-25.47-.01c-8.49-.02-16.98-.06-25.47-.1s-16.98-.1-25.47-.16-16.98-.13-25.47-.2-17.06-.14-25.58-.21-16.97-.14-25.45-.21c-8.48-.07-16.97-.14-25.45-.21l-6.24-.05c-1.29-.01-1.29,1.99,0,2h0Z"/>
    </g>
    <g>
      <path class="cls-2" d="M129.61,9.59c1.14-1.58,2.33-3.14,3.59-4.63.75-.89,1.52-1.81,2.43-2.54.09-.07-.02.02-.03.03.04-.03.08-.06.13-.09.07-.04.14-.09.21-.13.17-.1.54-.31.72-.19.08.05.18.32.23.41.12.2.25.4.38.6,1.1,1.73,2.28,3.4,3.44,5.09.73,1.05,2.46.05,1.73-1.01-1.14-1.65-2.29-3.3-3.37-4.99-.29-.46-.54-.98-.89-1.4-.79-.93-1.97-.84-2.98-.37s-1.87,1.44-2.62,2.29c-1.02,1.14-1.96,2.33-2.89,3.54-.6.78-1.2,1.58-1.78,2.38-.32.44-.08,1.11.36,1.37.5.29,1.05.08,1.37-.36h0Z"/>
      <path class="cls-2" d="M130.1,110.45c3.11,2.01,5.9,4.45,8.33,7.25.35.41,1.06.36,1.41,0,2.9-2.95,5.8-5.9,8.71-8.85.9-.92-.51-2.33-1.41-1.41-2.9,2.95-5.8,5.9-8.71,8.85h1.41c-2.53-2.92-5.48-5.46-8.73-7.56-1.08-.7-2.09,1.03-1.01,1.73h0Z"/>
      <path class="cls-2" d="M134.54,1.68c-.41,8.89-.57,17.78-.5,26.68.08,10.12.31,20.3,1.2,30.38.16,1.75.38,3.49.47,5.25.08,1.49.01,2.97.03,4.46.07,6.17.24,12.34.46,18.51.18,4.97.41,9.95.7,14.92.15,2.64.33,5.27.52,7.91.09,1.27.19,2.54.3,3.8.05.64.11,1.28.17,1.92s.11,1.22.64,1.63c1.07.82,2.68-.26,1.83-1.51-.72-1.06-2.45-.06-1.73,1.01.04.07,0,.07-.01,0l.26-.97-.06.07.71-.29c.69-.07.31.58.36.17.02-.13-.02-.27-.04-.4-.03-.3-.05-.61-.08-.91-.06-.65-.11-1.29-.16-1.94-.1-1.27-.2-2.55-.29-3.82-.18-2.5-.34-5-.48-7.49-.27-4.82-.49-9.63-.66-14.45-.22-6-.37-12.01-.45-18.02-.02-1.41.04-2.82-.02-4.24-.07-1.62-.27-3.23-.42-4.84-.88-9.4-1.11-18.88-1.24-28.31s0-17.98.36-26.96c.03-.85.07-1.7.11-2.54.06-1.29-1.94-1.28-2,0h0Z"/>
    </g>
    <g>
      <path class="cls-1" d="M180.08,17.1c4.01-2.32,8.26-4.18,12.68-5.56.61-.19.35-1.16-.27-.96-4.5,1.4-8.84,3.3-12.92,5.66-.56.32-.05,1.19.5.86h0Z"/>
      <path class="cls-1" d="M186.8,8.64l-1.04,7.27-.51,3.57-.25,1.72-.14.99c-.02.14-.02.67-.1.76l.35-.15h-.09c.12.04.24.09.35.14l-.06-.06.13.49.02-.07c.16-.62-.81-.89-.96-.27-.1.39.15.77.57.77.55,0,.64-.55.7-.98l.67-4.68c.44-3.08.88-6.16,1.32-9.24.09-.63-.87-.9-.96-.27h0Z"/>
      <path class="cls-1" d="M192.8,17.46c-.04,1.28-.26,2.54-.64,3.77h.96c-.29-1.19-.79-2.33-1.5-3.34-.65-.92-1.67-2.31-2.9-1.42-1.83,1.31-1.9,4.27-.24,5.73.93.82,2.18,1.17,3.39.91.63-.13.36-1.1-.27-.96-1.53.33-3.19-.8-3.32-2.39-.06-.8.18-1.64.74-2.23.12-.13.28-.3.46-.34s.33.1.45.22c.34.34.64.72.91,1.11.62.91,1.06,1.91,1.31,2.98.12.5.82.45.96,0,.41-1.31.63-2.67.68-4.03.02-.64-.98-.64-1,0h0Z"/>
      <path class="cls-1" d="M194.1,17.14v5.13c0,.66.92.62.99,0,.11-.95.37-1.9.75-2.78.19-.43.41-.86.66-1.26.09-.15.25-.31.32-.47-.05.11-.12-.11-.01.12.04.08.06.18.09.27.58,1.94.56,4.02,0,5.96-.18.62.79.88.96.27.36-1.24.51-2.54.45-3.83-.03-.64-.12-1.29-.26-1.92-.11-.52-.22-1.19-.62-1.58-1.05-1.05-1.99.91-2.34,1.65-.54,1.13-.87,2.33-1.01,3.57h1v-5.13c0-.64-.99-.64-.99,0h0Z"/>
      <path class="cls-1" d="M199.59,14.24c-.06-1.84.05-3.68.32-5.5.04-.27-.07-.54-.35-.62-.24-.07-.57.08-.62.35-.29,1.91-.42,3.84-.36,5.77.02.64,1.02.64,1,0h0Z"/>
      <path class="cls-1" d="M200.68,10.37v3.35c0,.27.23.5.5.5.29,0,.48-.23.5-.5.09-1.16.46-2.3,1.08-3.29.07-.11.14-.23.21-.33l.04-.05c.07-.06.06-.06-.02,0-.02,0-.15-.03-.16-.02-.02-.02-.02-.02,0,0,.01.02.03.05.04.07-.02-.05.02.08.03.09.05.16.08.33.12.49.13.64.13,1.29.06,1.93-.03.27.25.5.5.5.3,0,.47-.23.5-.5.09-.82.04-1.66-.15-2.46-.09-.37-.22-.77-.56-.98-.39-.23-.84-.09-1.12.24-.48.59-.83,1.33-1.09,2.04s-.42,1.49-.48,2.26h1v-3.35c0-.64-.99-.64-1,0h0Z"/>
      <path class="cls-1" d="M204.91,7.92c.23,1.48.83,2.9,1.72,4.1.21.28.68.37.86,0,.58-1.14,1-2.36,1.22-3.62.05-.27-.07-.54-.35-.62-.24-.07-.57.08-.62.35-.21,1.18-.58,2.31-1.12,3.38h.86c-.85-1.14-1.4-2.46-1.62-3.87-.04-.27-.38-.41-.62-.35-.28.08-.39.35-.35.62h0Z"/>
      <path class="cls-1" d="M215.87,7.9c-2.22,2.26-3.61,5.24-3.9,8.39-.14,1.53-.08,3.24.71,4.6.69,1.2,2.02,2.08,3.44,1.91.63-.08.64-1.08,0-1-1.39.17-2.47-.87-2.89-2.12s-.38-2.74-.17-4.05c.41-2.65,1.65-5.11,3.53-7.02.45-.46-.25-1.17-.71-.71h0Z"/>
      <path class="cls-1" d="M216.85,13.43c1.22,2.2,2.62,4.3,4.19,6.27.17.21.53.18.71,0,.21-.21.17-.5,0-.71-1.51-1.9-2.86-3.94-4.03-6.06-.31-.56-1.17-.06-.86.5h0Z"/>
      <path class="cls-1" d="M220.67,12.32l-4.48,6.94c-.35.54.52,1.04.86.5,1.49-2.31,2.99-4.62,4.48-6.94.35-.54-.52-1.04-.86-.5h0Z"/>
      <path class="cls-1" d="M221.18,8.23c1.98,1.61,2.76,4.13,2.94,6.6s.09,6.25-2.85,7.01c-.62.16-.36,1.13.27.96,3.3-.86,3.76-4.75,3.61-7.6s-.98-5.82-3.26-7.67c-.49-.4-1.21.3-.71.71h0Z"/>
      <path class="cls-1" d="M211.13,10.6c.44-1.15,1.08-2.27,1.83-3.28.16-.22.04-.56-.18-.68-.25-.15-.52-.04-.68.18-.8,1.08-1.44,2.26-1.93,3.52-.1.25.11.55.35.62.28.08.52-.1.62-.35h0Z"/>
    </g>
    <path class="cls-1" d="M16.4,64.64c7.22.24,14.45.16,21.67-.18,7.67-.37,15.32-1.06,22.93-2.1,10.11-1.38,20.07-3.49,29.87-6.31,3.52-1.01,7.03-2.12,10.4-3.56,2.84-1.22,5.5-2.75,8.05-4.49,3.36-2.29,6.62-4.74,10.17-6.74,4.1-2.32,8.49-3.89,13.16-4.61,2.68-.41,5.33-.49,8.04-.31,4.73.32,9.18,1.72,13.41,3.81,2.88,1.42,5.64,3.1,8.27,4.96,3.56,2.52,7.23,4.81,11.14,6.74,7.32,3.63,15.19,6.19,23.07,8.29,7.2,1.92,14.59,2.75,21.99,3.35,9.39.76,18.79,1.37,28.22,1.44,1.71.01,3.42,0,5.14,0,.64,0,.64-1.01,0-1-8.86.09-17.7-.28-26.54-.92-7.98-.57-16.01-1.08-23.85-2.71-3.53-.74-7-1.74-10.45-2.78-3.94-1.19-7.85-2.5-11.66-4.07-4.47-1.84-8.8-4.06-12.87-6.68-2.58-1.66-5-3.52-7.63-5.11-3.55-2.15-7.34-4-11.33-5.15-3.58-1.03-7.41-1.4-11.13-1.25s-7.34.86-10.78,2.06c-4.15,1.45-7.95,3.67-11.58,6.13-2.98,2.02-5.85,4.23-8.98,6.01-2.74,1.55-5.65,2.76-8.62,3.78-4.25,1.46-8.6,2.64-12.96,3.76-5.06,1.3-10.17,2.36-15.32,3.24-8.53,1.46-17.14,2.41-25.77,2.97-6.82.44-13.66.64-20.5.56-1.85-.02-3.7-.06-5.55-.13-.64-.02-.64.98,0,1h0Z"/>
    <path class="cls-1" d="M244.93,57.21c1.5,1.45,3,2.9,4.52,4.33.49.46.98.92,1.49,1.36.26.23,1.02.68,1.04,1.02s-.58.62-.83.8c-.32.23-.64.47-.96.7-.67.49-1.34.99-2.01,1.48-.58.42-1.15.85-1.73,1.26-.2.14-.4.28-.6.41-.1.07-.33.14-.19.13l.39.05h0c.08.19.15.37.23.56-.04.2-.18.22.11,0,.51-.38.01-1.25-.5-.86-.2.14-.52.32-.57.59-.04.2.02.46.23.56.62.3,1.59-.7,2.03-1.02,1.2-.87,2.38-1.75,3.57-2.62.52-.38,1.18-.74,1.59-1.23.5-.6.32-1.32-.22-1.83-.72-.68-1.51-1.3-2.23-1.98-1.56-1.46-3.1-2.95-4.63-4.43-.46-.45-1.17.26-.71.71h0Z"/>
    <path class="cls-1" d="M25.11,59.63s.08-.03.12-.05c.57-.32.07-1.12-.5-.86-2.93,1.33-5.87,2.81-8.57,4.56-.34.22-.3.63,0,.86,3.2,2.45,6.39,4.9,9.59,7.35.51.39,1.01-.48.5-.86-3.2-2.45-6.39-4.9-9.59-7.35v.86c2.7-1.75,5.64-3.23,8.57-4.56l-.5-.86s-.08.04-.12.05c-.58.27-.08,1.13.5.86h0Z"/>
  </g>
</svg>