<?xml version="1.0" encoding="UTF-8"?>
<svg id="Layer_2" data-name="Layer 2" xmlns="http://www.w3.org/2000/svg" viewBox="0 0 264.63 201.75">
  <defs>
    <style>
      .cls-1 {
        fill: #231f20;
      }

      .cls-2 {
        fill: #ed1c24;
      }

      .cls-3 {
        fill: #a7a9ac;
      }
    </style>
  </defs>
  <g id="Layer_1-2" data-name="Layer 1">
    <g>
      <path class="cls-3" d="M9.31,98.22c-2.28,1.37-4.56,2.74-6.8,4.17-.79.5-2.18,1.12-2.45,2.11-.35,1.29,1.41,2.07,2.27,2.71,1.94,1.45,3.84,2.94,5.75,4.43.42.33,1,.41,1.41,0,.35-.35.43-1.08,0-1.41-1.78-1.39-3.56-2.78-5.35-4.15-.51-.38-1.01-.77-1.53-1.14-.15-.11-.3-.21-.45-.31-.05-.03-.1-.07-.16-.1-.03-.01-.05-.03-.08-.04-.28-.1.15-.18.1.28l-.14.5c.09-.2,0,.01.14-.17-.19.24-.03.03.1-.06.3-.21.6-.4.91-.6.89-.58,1.8-1.14,2.71-1.7,1.52-.94,3.05-1.86,4.59-2.78,1.1-.66.1-2.39-1.01-1.73h0Z"/>
      <path class="cls-3" d="M253.55,101.02l5.8,2.04c.8.28,1.66.51,2.42.89.61.3.97.7.82,1.41-.33,1.53-1.94,2.8-3.03,3.81-1.33,1.22-2.77,2.31-4.3,3.28-1.08.69-.08,2.42,1.01,1.73,1.79-1.14,3.48-2.44,5.02-3.89,1.42-1.34,3.14-2.95,3.33-5.02.21-2.29-1.91-3.14-3.69-3.77l-6.84-2.41c-1.22-.43-1.74,1.5-.53,1.93h0Z"/>
      <path class="cls-3" d="M1,105.7l25.56.21,25.56.21c8.48.07,16.96.14,25.44.21,8.53.07,17.07.14,25.6.2s17.07.12,25.6.17c8.53.05,17.07.09,25.6.12s17.07.04,25.6.04,16.98-.03,25.48-.07c8.53-.04,17.07-.11,25.6-.21s17.07-.22,25.6-.37c2.08-.04,4.16-.08,6.24-.12,1.29-.03,1.29-2.03,0-2-8.53.17-17.06.3-25.6.41s-17.07.19-25.6.24c-8.49.06-16.98.09-25.48.1-8.53.01-17.07,0-25.6-.01s-17.07-.06-25.6-.1c-8.53-.05-17.07-.1-25.6-.16s-17.07-.13-25.6-.2-16.97-.14-25.45-.21l-25.56-.21-25.56-.21-6.23-.05c-1.29-.01-1.29,1.99,0,2h0Z"/>
    </g>
    <g>
      <path class="cls-3" d="M123.28,19.66c1.45-2.39,3.26-4.53,5.37-6.35.25-.22.51-.43.77-.64.23-.18.6-.33.79-.54l.07-.02c.1,0,.06-.04-.12-.08-.01.02.08.12.09.18.04.34.23.72.33,1.04.5,1.57,1.01,3.15,1.51,4.72.39,1.22,2.32.7,1.93-.53-.6-1.87-1.18-3.76-1.8-5.62-.28-.85-.77-1.62-1.75-1.7-.89-.07-1.59.45-2.25.96-2.66,2.09-4.91,4.68-6.67,7.56-.67,1.1,1.06,2.11,1.73,1.01h0Z"/>
      <path class="cls-3" d="M127.49,191.32c1.23,3.01,2.71,5.9,4.48,8.63.48.75,1.55.58,1.83-.24.53-1.56,1.76-2.77,2.88-3.93,1.22-1.26,2.49-2.56,3.26-4.16.23-.49.13-1.08-.36-1.37-.44-.26-1.13-.13-1.37.36-1.56,3.27-5.14,5.06-6.34,8.57l1.83-.24c-1.66-2.58-3.11-5.31-4.27-8.16-.2-.5-.67-.85-1.23-.7-.47.13-.9.73-.7,1.23h0Z"/>
      <path class="cls-3" d="M128.23,12.17c-1.47,12.32-.7,24.73.34,37.05.52,6.19,1.11,12.38,1.52,18.58s.57,12.49.49,18.74c-.14,12.58-1.02,25.14-1.26,37.72s.01,25.24.5,37.85c.24,6.31.55,12.61.88,18.92.17,3.15.34,6.3.51,9.45.09,1.58.18,3.15.27,4.73.04.79.08,1.58.13,2.36.04.57.13,1.19.57,1.61.51.48,1.37.55,1.83-.02.32-.39.33-.92.14-1.38-.2-.5-.67-.85-1.23-.7-.48.13-.9.73-.7,1.23.03.07.04.3.05.18l.14-.5-.05.06.6-.46-.11.02h.53c.55.15.2.42.24.09,0-.08-.02-.43-.03-.51-.02-.33-.04-.66-.06-.99-.04-.79-.09-1.58-.13-2.36-.09-1.53-.17-3.07-.26-4.6-.17-3.07-.34-6.14-.5-9.21-.32-6.05-.6-12.11-.84-18.17-.47-12.24-.72-24.48-.51-36.73s1.03-24.32,1.24-36.49c.11-6.06.04-12.11-.3-18.16s-.88-12.07-1.41-18.09c-1.03-11.91-2-23.9-1.05-35.85.12-1.46.26-2.92.43-4.37.06-.54-.51-1-1-1-.59,0-.94.46-1,1h0Z"/>
    </g>
    <path class="cls-2" d="M21.08,123.51c10.91.14,21.82.22,32.73.28,5.3.03,10.59.09,15.89-.26,9.87-.65,19.7-2.16,29.3-4.52,5.87-1.44,11.71-3.17,17.34-5.41,2.98-1.19,5.78-2.65,8.55-4.24,6.06-3.48,12.55-6.13,19.12-8.47,8.25-2.93,16.7-5.31,25.26-7.15,10.47-2.25,21.19-3.76,31.9-4.06,1.69-.05,3.37-.05,5.06-.08,7.52-.12,15.05-.23,22.57-.35,6.41-.1,12.82-.2,19.23-.3.78-.01,1.55-.02,2.33-.04.64-.01.64-1.01,0-1-5.89.09-11.78.18-17.67.28-7.5.12-15.01.23-22.51.35-2.93.05-5.87.08-8.8.14-8.04.16-16.11,1.15-24.03,2.49-9.64,1.64-19.16,4-28.46,7.01-6.76,2.19-13.51,4.66-19.88,7.82-2.75,1.36-5.34,2.99-8.05,4.41-4.08,2.13-8.47,3.64-12.86,5.02-10.73,3.38-21.85,5.55-33.04,6.66-5.17.51-10.34.74-15.53.73-10.72-.02-21.45-.11-32.17-.22-2.1-.02-4.2-.05-6.3-.07-.64,0-.64.99,0,1h0Z"/>
    <path class="cls-1" d="M125.59,73.47c1.47-.27,2.95-.35,4.45-.31,1.22.04,2.43.06,3.65-.14.87-.15,1.71-.39,2.53-.7.3-.11.17-.6-.13-.48-1.33.51-2.72.82-4.15.86-1.28.04-2.56-.09-3.84-.02-.88.05-1.76.16-2.63.31-.32.06-.18.54.13.48h0Z"/>
    <path class="cls-1" d="M123.39,43.13c.85.08,1.67.02,2.52-.03.91-.05,1.82-.01,2.72.02,1.84.07,3.68.11,5.53.06.32,0,.32-.51,0-.5-1.84.05-3.68,0-5.53-.06-.91-.03-1.82-.08-2.72-.02-.85.05-1.67.11-2.52.03-.32-.03-.32.47,0,.5h0Z"/>
    <path class="cls-1" d="M125.63,137.45c3.07.09,6.23.16,9.18-.85.3-.1.17-.59-.13-.48-2.91.99-6.01.92-9.04.83-.32,0-.32.49,0,.5h0Z"/>
    <path class="cls-1" d="M126.29,167.7c3.19.27,6.4.34,9.6.2.32-.01.32-.51,0-.5-3.2.14-6.41.08-9.6-.2-.32-.03-.32.47,0,.5h0Z"/>
    <path class="cls-2" d="M21.08,56.66c10.82.12,21.64.18,32.47.23,5.32.02,10.62.08,15.93-.2,9.91-.54,19.8-1.8,29.52-3.8,5.9-1.21,11.78-2.67,17.49-4.58,2.96-.99,5.79-2.25,8.6-3.6,6.19-2.97,12.73-5.15,19.32-7.1,8.4-2.48,16.95-4.47,25.58-6,10.29-1.82,20.75-3.03,31.2-3.27,1.77-.04,3.53-.05,5.3-.07,7.49-.1,14.98-.19,22.47-.29,6.39-.08,12.77-.17,19.16-.25.75,0,1.49-.02,2.24-.03.64,0,.64-1.01,0-1-5.83.08-11.66.15-17.49.23-7.44.1-14.88.19-22.32.29-3.04.04-6.09.07-9.13.12-7.78.12-15.59.91-23.3,1.98-9.71,1.35-19.35,3.31-28.81,5.86-6.75,1.82-13.5,3.87-19.97,6.53-2.8,1.15-5.48,2.55-8.24,3.77-4.11,1.81-8.48,3.06-12.82,4.21-10.92,2.89-22.13,4.71-33.39,5.63-5.19.43-10.38.61-15.59.6-10.7-.02-21.41-.09-32.11-.19-2.04-.02-4.08-.04-6.12-.06-.64,0-.64.99,0,1h0Z"/>
    <path class="cls-2" d="M21.36,186.45c10.88.05,21.76.04,32.64,0,5.3-.01,10.59,0,15.88-.38,9.87-.71,19.71-2.27,29.31-4.66,5.9-1.47,11.78-3.23,17.43-5.49,2.95-1.18,5.72-2.64,8.48-4.22,6.06-3.48,12.55-6.12,19.12-8.46,8.23-2.93,16.66-5.33,25.19-7.2,10.43-2.28,21.1-3.83,31.77-4.21,1.69-.06,3.37-.08,5.06-.12,7.52-.17,15.05-.35,22.57-.52,6.41-.15,12.82-.3,19.22-.45.78-.02,1.55-.04,2.33-.05.64-.02.64-1.02,0-1-5.87.14-11.74.27-17.6.41-7.48.17-14.96.35-22.44.52-2.97.07-5.94.13-8.91.21-7.97.22-15.97,1.23-23.81,2.6-9.64,1.68-19.17,4.06-28.48,7.09-6.72,2.19-13.44,4.66-19.79,7.78-2.78,1.37-5.4,3.02-8.15,4.45-4.01,2.1-8.32,3.6-12.63,4.97-10.76,3.44-21.92,5.67-33.15,6.86-5.19.55-10.37.82-15.58.85-10.72.06-21.45.07-32.17.04-2.1,0-4.2-.01-6.3-.02-.64,0-.64,1,0,1h0Z"/>
    <path class="cls-2" d="M21.22,88.65c10.85.12,21.7.19,32.55.24,5.32.03,10.63.08,15.94-.22,9.9-.57,19.78-1.9,29.48-4.01,5.88-1.28,11.74-2.81,17.42-4.82,2.96-1.05,5.77-2.36,8.57-3.78,6.18-3.13,12.72-5.44,19.32-7.5,8.39-2.61,16.94-4.72,25.57-6.33,10.29-1.92,20.78-3.2,31.25-3.46,1.74-.04,3.48-.05,5.22-.07,7.49-.1,14.99-.2,22.48-.31,6.4-.09,12.8-.18,19.19-.26.76-.01,1.52-.02,2.29-.03.64,0,.64-1.01,0-1-5.85.08-11.7.16-17.55.24-7.46.1-14.92.21-22.38.31-3.01.04-6.01.07-9.02.12-7.81.13-15.66.97-23.39,2.1-9.72,1.43-19.35,3.51-28.8,6.2-6.76,1.92-13.52,4.1-19.97,6.9-2.79,1.21-5.44,2.67-8.19,3.95-4.09,1.9-8.44,3.21-12.77,4.42-10.87,3.04-22.06,4.96-33.3,5.94-5.19.45-10.36.65-15.57.64-10.71-.02-21.43-.09-32.14-.2-2.07-.02-4.14-.04-6.21-.07-.64,0-.64.99,0,1h0Z"/>
    <path class="cls-2" d="M21.08,153.65c10.88.13,21.76.2,32.64.26,5.29.03,10.57.09,15.85-.24,9.86-.6,19.7-2.01,29.33-4.23,5.9-1.36,11.79-2.99,17.46-5.11,2.99-1.12,5.81-2.51,8.61-4.02,6.11-3.29,12.61-5.75,19.18-7.94,8.33-2.77,16.84-5.01,25.45-6.73,10.38-2.07,20.98-3.46,31.57-3.74,1.71-.04,3.43-.05,5.14-.08,7.52-.11,15.04-.22,22.57-.33,6.4-.09,12.8-.19,19.19-.28.76-.01,1.52-.02,2.29-.03.64,0,.64-1.01,0-1-5.87.09-11.74.17-17.61.26-7.46.11-14.92.22-22.38.33-2.99.04-5.98.08-8.97.13-7.94.14-15.91,1.05-23.74,2.29-9.65,1.52-19.2,3.73-28.54,6.56-6.77,2.05-13.54,4.37-19.96,7.34-2.77,1.28-5.39,2.82-8.12,4.17-4.13,2.03-8.55,3.45-12.95,4.75-10.77,3.18-21.88,5.2-33.05,6.24-5.2.48-10.39.69-15.61.68-10.71-.02-21.43-.1-32.14-.21-2.07-.02-4.14-.04-6.21-.07-.64,0-.64.99,0,1h0Z"/>
    <g>
      <path class="cls-2" d="M245.87,146.49c1.69,1.35,3.37,2.7,5.06,4.05l.1-.79-3.31,2.32-1.66,1.16c-.23.16-.49.31-.7.5-.19.17-.31.4-.46.61-.36.53.5,1.04.86.5.14-.21.24-.37.45-.52.25-.18.51-.35.76-.53l1.52-1.06,3.04-2.13c.24-.16.37-.57.1-.79-1.69-1.35-3.37-2.7-5.06-4.05-.5-.4-1.21.3-.71.71h0Z"/>
      <path class="cls-2" d="M25.16,188.81l-2.52-1.66c-.41-.27-.82-.53-1.23-.81-.33-.22-.35-.46-.12-.8s.61-.61.93-.87c.38-.31.76-.62,1.14-.94.8-.66,1.6-1.31,2.4-1.97.5-.41-.21-1.11-.71-.71-.92.76-1.84,1.51-2.76,2.27-.76.62-1.85,1.26-2.13,2.27-.3,1.11.75,1.62,1.51,2.12l2.97,1.95c.54.35,1.04-.51.5-.86h0Z"/>
    </g>
    <g>
      <path class="cls-2" d="M244.39,117.75c2.14,1.31,4.36,2.49,6.64,3.53v-.86c-2.13,1.55-4.15,3.25-6.04,5.09-.46.45.25,1.16.71.71,1.83-1.78,3.78-3.43,5.84-4.93.27-.2.38-.69,0-.86-2.29-1.03-4.51-2.21-6.64-3.53-.55-.34-1.05.53-.5.86h0Z"/>
      <path class="cls-2" d="M27.6,148.24c-2.32,1.58-4.64,3.16-6.97,4.74-.27.19-.37.7,0,.86,2.5,1.09,4.99,2.17,7.49,3.26.58.25,1.09-.61.5-.86-2.5-1.09-4.99-2.17-7.49-3.26v.86c2.32-1.58,4.64-3.16,6.97-4.74.53-.36.03-1.23-.5-.86h0Z"/>
    </g>
    <g>
      <path class="cls-2" d="M245.66,84.07c.67,1.1,1.7,1.84,2.76,2.54.52.34,1.05.67,1.54,1.05.11.08.21.17.31.25.06.05.31.37.35.2-.01.03-.17.11-.2.13-.58.39-1.1.89-1.61,1.36-1.04.93-2.06,1.88-3.08,2.84-.47.44.24,1.15.71.71,1.07-1,2.14-2,3.24-2.98.5-.44.96-.84,1.45-1.18,1.42-.99-.77-2.29-1.54-2.8-1.12-.75-2.35-1.44-3.07-2.62-.34-.55-1.2-.05-.86.5h0Z"/>
      <path class="cls-2" d="M24.87,127.13c-1.35-1.46-2.69-2.92-4.04-4.38v.71c.73-.63,1.46-1.25,2.19-1.88.63-.54,1.28-1.26,2.07-1.55.6-.22.34-1.18-.27-.96-.89.32-1.57,1-2.27,1.6-.81.7-1.62,1.39-2.43,2.09-.21.18-.17.52,0,.71,1.35,1.46,2.69,2.92,4.04,4.38.44.47,1.14-.23.71-.71h0Z"/>
    </g>
    <g>
      <path class="cls-2" d="M244.39,53.48c2.08,1.16,4.17,2.31,6.25,3.48.06.03.14.11.21.12.02,0,.03.03.06.03.11,0,.1-.26,0-.26-.03,0-.06.06-.09.07-.15.1-.27.28-.38.41-.5.55-1.02,1.08-1.58,1.57-1.17,1.02-2.44,1.92-3.74,2.76-.54.35-.04,1.21.5.86,1.99-1.29,3.92-2.71,5.51-4.47.14-.15.27-.31.42-.44.47-.43.5-.94-.06-1.32-.6-.4-1.26-.71-1.89-1.06-1.57-.87-3.14-1.75-4.7-2.62-.56-.31-1.07.55-.5.86h0Z"/>
      <path class="cls-2" d="M26.51,91.79c-1.72-.98-3.32-2.15-4.74-3.53-.05-.05-.48-.55-.53-.53l-.06.25s.09-.06.14-.09c.12-.07.24-.14.35-.21.45-.27.91-.53,1.37-.78.97-.53,1.95-1.03,2.94-1.51.58-.28.07-1.14-.5-.86-1.12.53-2.22,1.1-3.3,1.71-.52.29-1.1.57-1.58.94s-.43.89-.03,1.31c1.57,1.66,3.45,3.05,5.43,4.18.56.32,1.07-.55.5-.86h0Z"/>
    </g>
    <g>
      <path class="cls-2" d="M243.79,22.46c2.35,1.74,4.7,3.48,7.05,5.23l-.1-.79c-2.22,1.93-4.65,3.6-7.2,5.06-.56.32-.06,1.18.5.86,2.62-1.5,5.12-3.23,7.4-5.22.27-.23.14-.61-.1-.79-2.35-1.74-4.7-3.48-7.05-5.23-.52-.38-1.02.48-.5.86h0Z"/>
      <path class="cls-2" d="M25.27,52.87c-1.91.42-3.67,1.38-5.07,2.74-.25.24-.15.6.1.79,1.28.91,2.56,1.82,3.85,2.73.22.16.56.04.68-.18.15-.25.04-.53-.18-.68-1.28-.91-2.56-1.82-3.85-2.73l.1.79c1.28-1.25,2.89-2.1,4.63-2.49.63-.14.36-1.1-.27-.96h0Z"/>
    </g>
    <g>
      <path class="cls-2" d="M205.66,9.89c4.02-2.32,8.28-4.18,12.72-5.56.61-.19.35-1.16-.27-.96-4.52,1.4-8.86,3.3-12.96,5.66-.56.32-.05,1.19.5.86h0Z"/>
      <path class="cls-2" d="M212.4,1.43l-1.04,7.27-.51,3.57-.25,1.72-.14.99c-.02.14-.02.67-.1.76l.35-.15h-.09c.12.04.24.09.35.14l-.06-.06.13.49.02-.07c.16-.62-.81-.89-.96-.27-.1.39.15.77.57.77.55,0,.64-.55.7-.98l.67-4.68,1.33-9.24c.09-.63-.87-.9-.96-.27h0Z"/>
      <path class="cls-2" d="M218.42,10.25c-.04,1.28-.26,2.54-.64,3.77h.96c-.29-1.19-.79-2.34-1.5-3.34-.65-.92-1.67-2.3-2.91-1.42-1.83,1.31-1.91,4.27-.24,5.73.93.82,2.19,1.17,3.4.91.63-.13.36-1.1-.27-.96-1.54.33-3.2-.8-3.33-2.39-.07-.8.18-1.64.74-2.23.12-.13.28-.3.46-.34.19-.04.33.1.46.22.34.34.64.72.91,1.11.62.91,1.06,1.91,1.32,2.98.12.5.82.45.96,0,.41-1.31.63-2.67.68-4.03.02-.64-.98-.64-1,0h0Z"/>
      <path class="cls-2" d="M219.72,9.93v5.13c0,.66.92.62.99,0,.11-.95.37-1.9.75-2.78.19-.43.41-.86.66-1.26.09-.15.25-.31.33-.47-.05.1-.12-.1,0,.12.04.08.06.18.09.27.58,1.94.56,4.02,0,5.96-.18.62.79.88.96.27.36-1.24.52-2.54.45-3.83-.03-.64-.12-1.29-.26-1.92-.11-.52-.22-1.19-.62-1.58-1.05-1.05-1.99.91-2.34,1.65-.54,1.13-.87,2.33-1.02,3.57h1v-5.13c0-.64-.99-.64-.99,0h0Z"/>
      <path class="cls-2" d="M225.23,7.03c-.06-1.84.05-3.68.32-5.5.04-.27-.07-.54-.35-.62-.24-.07-.57.08-.62.35-.29,1.91-.42,3.84-.36,5.77.02.64,1.02.64,1,0h0Z"/>
      <path class="cls-2" d="M226.32,3.16v3.35c0,.27.23.5.5.5.29,0,.48-.23.5-.5.09-1.16.47-2.3,1.08-3.29.07-.11.14-.23.21-.33l.04-.05c.07-.06.06-.06-.02,0-.02,0-.15-.03-.16-.02-.02-.02-.02-.02,0,0,.01.02.03.05.04.07-.02-.05.02.08.03.09.05.16.09.33.12.49.13.64.13,1.29.06,1.93-.03.27.25.5.5.5.3,0,.47-.23.5-.5.1-.82.04-1.66-.15-2.46-.09-.37-.22-.77-.56-.98-.39-.23-.84-.09-1.12.24-.48.59-.83,1.33-1.09,2.04s-.42,1.49-.48,2.26h1v-3.35c0-.64-.99-.64-1,0h0Z"/>
      <path class="cls-2" d="M230.56.71c.23,1.48.83,2.9,1.72,4.1.21.28.68.37.86,0,.58-1.14,1-2.36,1.23-3.62.05-.27-.07-.54-.35-.62-.24-.07-.57.08-.62.35-.21,1.18-.58,2.32-1.13,3.38h.86c-.85-1.14-1.4-2.46-1.62-3.87-.04-.27-.38-.41-.62-.35-.28.08-.39.35-.35.62h0Z"/>
      <path class="cls-2" d="M238.98.5c-2.23,2.26-3.62,5.23-3.91,8.39-.14,1.53-.08,3.24.71,4.6.69,1.21,2.03,2.08,3.45,1.91.63-.08.64-1.08,0-1-3.23.39-3.41-4.02-3.08-6.17.41-2.65,1.65-5.11,3.54-7.02.45-.46-.25-1.17-.71-.71h0Z"/>
      <path class="cls-2" d="M239.97,6.03c1.22,2.21,2.63,4.3,4.2,6.27.17.21.53.18.71,0,.21-.21.17-.5,0-.71-1.52-1.9-2.86-3.93-4.04-6.06-.31-.56-1.18-.06-.86.5h0Z"/>
      <path class="cls-2" d="M243.8,4.91l-4.49,6.94c-.35.54.51,1.04.86.5l4.49-6.94c.35-.54-.51-1.04-.86-.5h0Z"/>
      <path class="cls-2" d="M244.31.83c1.98,1.61,2.77,4.13,2.95,6.6s.08,6.25-2.86,7.01c-.62.16-.36,1.13.27.96,3.31-.86,3.77-4.74,3.62-7.6s-.99-5.82-3.27-7.67c-.5-.4-1.21.3-.71.71h0Z"/>
    </g>
    <g>
      <path class="cls-1" d="M140.4,72.49c-.35,1.94-.52,3.9-.5,5.87,0,.32.5.32.5,0-.02-1.92.14-3.84.48-5.74.02-.13-.04-.27-.17-.31-.12-.03-.28.04-.31.17h0Z"/>
      <path class="cls-1" d="M142.55,72.62l-.51,5.31c-.01.13.12.25.25.25.15,0,.24-.12.25-.25l.51-5.31c.01-.13-.12-.25-.25-.25-.15,0-.24.12-.25.25h0Z"/>
      <path class="cls-1" d="M138.69,72.75l6.52-.11c.32,0,.32-.51,0-.5l-6.52.11c-.32,0-.32.51,0,.5h0Z"/>
    </g>
    <g>
      <path class="cls-1" d="M136.76,41.83c.69-.07,1.38-.03,2.05.16.24.06.5.16.62.39s.07.51,0,.74c-.15.51-.47.98-.82,1.38-.36.42-.78.78-1.23,1.09-.53.37-1.1.69-1.68.98-.21.11-.12.49.13.47,1.57-.18,3.16-.16,4.73.09.16.03.31-.07.32-.24,0-.12.01-.24.02-.36.01-.32-.49-.32-.5,0,0,.12-.01.24-.02.36l.32-.24c-1.61-.26-3.24-.3-4.86-.11l.13.47c1.11-.56,2.22-1.23,3.04-2.19.4-.46.76-1.01.93-1.61.08-.29.11-.62.01-.92-.12-.33-.38-.56-.7-.69-.37-.15-.77-.22-1.16-.26-.44-.05-.87-.05-1.31-.01-.13.01-.25.11-.25.25,0,.12.11.26.25.25h0Z"/>
      <path class="cls-1" d="M142.99,41.73c-.43,1.43-.58,2.94-.43,4.43.01.13.11.25.25.25.12,0,.26-.11.25-.25-.15-1.45-.01-2.9.41-4.3.09-.31-.39-.44-.48-.13h0Z"/>
      <path class="cls-1" d="M144.71,41.69l.15,4.95c0,.32.51.32.5,0l-.15-4.95c0-.32-.51-.32-.5,0h0Z"/>
      <path class="cls-1" d="M141.83,42.68c.43-.69,1.28-1.08,2.08-.95.47.08.91.28,1.37.42s.92.19,1.38.06c.5-.14.92-.45,1.22-.87.18-.26-.25-.51-.43-.25-.24.34-.61.57-1.01.66-.45.1-.9-.04-1.32-.18-.45-.15-.9-.33-1.38-.36-.43-.03-.87.07-1.26.25-.44.21-.82.55-1.08.96-.17.27.26.52.43.25h0Z"/>
    </g>
    <path class="cls-1" d="M138.51,137.57c.05,0,.11-.02.16-.03.02,0,.05,0,.07-.01.06,0-.03,0,.03,0,.1-.01.2-.02.29-.03.2-.02.4-.03.6-.04.4-.01.81,0,1.21.03.13.01.26-.12.25-.25,0-.15-.11-.24-.25-.25-.83-.07-1.67-.04-2.5.1-.13.02-.21.19-.17.31.05.14.17.2.31.17h0Z"/>
    <path class="cls-1" d="M142.66,135.07c-.05,1.75-.11,3.51-.16,5.26-.01.32.49.32.5,0,.05-1.75.11-3.51.16-5.26.01-.32-.49-.32-.5,0h0Z"/>
    <path class="cls-1" d="M145.22,134.94c.04,1.52-.1,3.03-.43,4.51-.07.31.41.45.48.13.34-1.52.49-3.09.45-4.64,0-.32-.51-.32-.5,0h0Z"/>
    <path class="cls-1" d="M141.36,135.91c1.69-1.26,3.97-.97,5.94-1.27.58-.09,1.15-.23,1.68-.45.13-.05.21-.16.17-.31-.03-.12-.18-.23-.31-.17-1.97.83-4.17.42-6.19,1.02-.56.16-1.09.41-1.55.76-.26.19,0,.62.25.43h0Z"/>
    <g>
      <path class="cls-1" d="M138.21,169.72l2.78-.15c.13,0,.26-.11.25-.25,0-.13-.11-.26-.25-.25l-2.78.15c-.13,0-.26.11-.25.25,0,.13.11.26.25.25h0Z"/>
      <path class="cls-1" d="M141.34,166.75c.67-.03,1.34.12,1.9.49.25.16.48.38.65.62.08.12.15.24.21.37,0,.02.06.15.02.03,0,0,0,.01,0,.02.01.04.03.08.04.11.2.61.21,1.3-.1,1.88-.28.52-.8.84-1.29,1.14-.72.45-1.45.85-2.24,1.15-.25.1-.23.49.07.49h4.23c.32,0,.32-.5,0-.5h-4.23l.07.49c.78-.3,1.51-.68,2.22-1.11.57-.35,1.19-.72,1.55-1.32.72-1.19.34-2.81-.73-3.64-.67-.53-1.53-.77-2.38-.73-.32.02-.32.52,0,.5h0Z"/>
      <path class="cls-1" d="M148.44,167.92l-.62,5.14c-.02.13.13.25.25.25.15,0,.23-.12.25-.25l.62-5.14c.02-.13-.13-.25-.25-.25-.15,0-.23.12-.25.25h0Z"/>
      <path class="cls-1" d="M150.64,167.25c.46,1.54.33,3.24-.37,4.69-.06.12-.03.27.09.34.11.06.28.03.34-.09.76-1.57.91-3.4.42-5.08-.09-.31-.57-.18-.48.13h0Z"/>
      <path class="cls-1" d="M146.61,168.47c1.62-1.16,3.7-1.63,5.66-1.25.31.06.45-.42.13-.48-1.63-.32-3.34-.1-4.85.6-.42.2-.83.43-1.2.7-.11.08-.16.22-.09.34.06.11.23.17.34.09h0Z"/>
    </g>
  </g>
</svg>