<?xml version="1.0" encoding="UTF-8"?>
<svg id="Layer_2" data-name="Layer 2" xmlns="http://www.w3.org/2000/svg" viewBox="0 0 264.63 205.42">
  <defs>
    <style>
      .cls-1 {
        fill: #231f20;
      }

      .cls-2 {
        fill: #ed1c24;
      }

      .cls-3 {
        fill: #a7a9ac;
      }
    </style>
  </defs>
  <g id="Layer_1-2" data-name="Layer 1">
    <g>
      <path class="cls-3" d="M9.31,101.66c-2.28,1.37-4.56,2.74-6.8,4.17-.79.5-2.18,1.12-2.45,2.11-.35,1.29,1.41,2.07,2.27,2.71,1.94,1.45,3.84,2.94,5.75,4.43.42.33,1,.41,1.41,0,.35-.35.43-1.08,0-1.41-1.78-1.39-3.56-2.78-5.35-4.15-.51-.38-1.01-.77-1.53-1.14-.15-.11-.3-.21-.45-.31-.05-.03-.1-.07-.16-.1-.03-.01-.05-.03-.08-.04-.28-.1.15-.18.1.28l-.14.5c.09-.2,0,.01.14-.17-.19.24-.03.03.1-.06.3-.21.6-.4.91-.6.89-.58,1.8-1.14,2.71-1.7,1.52-.94,3.05-1.86,4.59-2.78,1.1-.66.1-2.39-1.01-1.73h0Z"/>
      <path class="cls-3" d="M253.55,104.45l5.8,2.04c.8.28,1.66.51,2.42.89.61.3.97.7.82,1.41-.33,1.53-1.94,2.8-3.03,3.81-1.33,1.22-2.77,2.31-4.3,3.28-1.08.69-.08,2.42,1.01,1.73,1.79-1.14,3.48-2.44,5.02-3.89,1.42-1.34,3.14-2.95,3.33-5.02.21-2.29-1.91-3.14-3.69-3.77-2.28-.8-4.56-1.6-6.84-2.41-1.22-.43-1.74,1.5-.53,1.93h0Z"/>
      <path class="cls-3" d="M1,109.14l25.56.21,25.56.21c8.48.07,16.96.14,25.44.21,8.53.07,17.07.14,25.6.2,8.53.06,17.07.12,25.6.17,8.53.05,17.07.09,25.6.12s17.07.04,25.6.04,16.98-.03,25.48-.07,17.07-.11,25.6-.21c8.53-.09,17.07-.22,25.6-.37,2.08-.04,4.16-.08,6.24-.12,1.29-.03,1.29-2.03,0-2-8.53.17-17.06.3-25.6.41-8.53.11-17.07.19-25.6.24-8.49.06-16.98.09-25.48.1-8.53.01-17.07,0-25.6-.01s-17.07-.06-25.6-.1-17.07-.1-25.6-.16c-8.53-.06-17.07-.13-25.6-.2s-16.97-.14-25.45-.21l-25.56-.21-25.56-.21-6.23-.05c-1.29-.01-1.29,1.99,0,2h0Z"/>
    </g>
    <g>
      <path class="cls-3" d="M123.28,23.1c1.45-2.39,3.26-4.53,5.37-6.35.25-.22.51-.43.77-.64.23-.18.6-.33.79-.54l.07-.02c.1,0,.06-.04-.12-.08-.01.02.08.12.09.18.04.34.23.72.33,1.04.5,1.57,1.01,3.15,1.51,4.72.39,1.22,2.32.7,1.93-.53-.6-1.87-1.18-3.76-1.8-5.62-.28-.85-.77-1.62-1.75-1.7-.89-.07-1.59.45-2.25.96-2.66,2.09-4.91,4.68-6.67,7.56-.67,1.1,1.06,2.11,1.73,1.01h0Z"/>
      <path class="cls-3" d="M127.49,194.76c1.23,3.01,2.71,5.9,4.48,8.63.48.75,1.55.58,1.83-.24.53-1.56,1.76-2.77,2.88-3.93,1.22-1.26,2.49-2.56,3.26-4.16.23-.49.13-1.08-.36-1.37-.44-.26-1.13-.13-1.37.36-1.56,3.27-5.14,5.06-6.34,8.57l1.83-.24c-1.66-2.58-3.11-5.31-4.27-8.16-.2-.5-.67-.85-1.23-.7-.47.13-.9.73-.7,1.23h0Z"/>
      <path class="cls-3" d="M128.23,15.61c-1.47,12.32-.7,24.73.34,37.05.52,6.19,1.11,12.38,1.52,18.58s.57,12.49.49,18.74c-.14,12.58-1.02,25.14-1.26,37.72s.01,25.24.5,37.85c.24,6.31.55,12.61.88,18.92.17,3.15.34,6.3.51,9.45.09,1.58.18,3.15.27,4.73.04.79.08,1.58.13,2.36.04.57.13,1.19.57,1.61.51.48,1.37.55,1.83-.02.32-.39.33-.92.14-1.38-.2-.5-.67-.85-1.23-.7-.48.13-.9.73-.7,1.23.03.07.04.3.05.18l.14-.5-.05.06.6-.46-.11.02h.53c.55.15.2.42.24.09,0-.08-.02-.43-.03-.51-.02-.33-.04-.66-.06-.99-.04-.79-.09-1.58-.13-2.36-.09-1.53-.17-3.07-.26-4.6-.17-3.07-.34-6.14-.5-9.21-.32-6.05-.6-12.11-.84-18.17-.47-12.24-.72-24.48-.51-36.73s1.03-24.32,1.24-36.49c.11-6.06.04-12.11-.3-18.16s-.88-12.07-1.41-18.09c-1.03-11.91-2-23.9-1.05-35.85.12-1.46.26-2.92.43-4.37.06-.54-.51-1-1-1-.59,0-.94.46-1,1h0Z"/>
    </g>
    <g>
      <path class="cls-2" d="M55.99,27.89c.43-1.12.95-2.2,1.56-3.24.31-.53.64-1.04.99-1.54.17-.24.34-.48.52-.71l.1-.13c.15-.12.08-.17-.2-.13-.01.04.16.24.18.28.59.9,1.28,1.74,2.05,2.48.39.37.8.72,1.22,1.05.4.31.88.8,1.42.7.23-.04.35-.27.37-.48.01-.16-.05-.33-.18-.43-.23-.18-.47-.19-.71,0l-.03.02c-.5.4.21,1.11.71.71l.03-.02h-.71l.04.03-.15-.35v.04c.12-.16.24-.32.36-.48l-.08.02.39.05c-.52-.24-1-.68-1.43-1.05-.46-.4-.89-.82-1.29-1.28s-.75-.9-1.07-1.39c-.27-.4-.56-.97-1.15-.8-.51.15-.87.85-1.16,1.26-.37.52-.71,1.05-1.03,1.59-.67,1.13-1.23,2.32-1.7,3.54-.23.6.74.86.96.27h0Z"/>
      <path class="cls-2" d="M7.77,193.22c.56,1.1,1.19,2.16,1.9,3.18.34.48.7.96,1.07,1.42.35.44.71.97,1.17,1.3.5.35,1.02.16,1.39-.27.39-.45.74-.95,1.09-1.43.73-1.02,1.38-2.09,1.97-3.2.3-.57-.56-1.07-.86-.5-.5.94-1.05,1.86-1.65,2.74-.29.42-.59.84-.9,1.24-.07.1-.39.62-.51.62.11,0-.02-.08-.06-.12-.09-.09-.18-.2-.26-.3-1.37-1.57-2.53-3.32-3.48-5.18-.29-.57-1.15-.07-.86.5h0Z"/>
      <path class="cls-2" d="M12.91,198.93c-.21-8.54.06-17.1.88-25.6.67-6.92,1.7-13.82,3.21-20.61,1.11-4.99,2.46-9.95,4.33-14.72,2.05-5.24,5.17-9.97,8.41-14.54,2.69-3.81,5.54-7.54,8.68-10.99,2.62-2.87,4.82-6.07,6.84-9.39,3-4.92,5.63-10.16,7.31-15.69,1.37-4.51,2.34-9.14,3.16-13.77,1.15-6.48,1.98-13.02,2.58-19.58.76-8.24,1.16-16.51,1.26-24.78.03-2.22.03-4.45.02-6.67,0-.64-1-.64-1,0,.06,8.63-.19,17.27-.82,25.88-.51,7-1.26,14-2.34,20.93-.8,5.1-1.76,10.2-3.1,15.19s-3.28,9.62-5.73,14.15c-2.1,3.89-4.47,7.76-7.28,11.19-1.12,1.36-2.35,2.62-3.48,3.96-1.5,1.78-2.94,3.62-4.34,5.48-2.32,3.07-4.52,6.22-6.55,9.48-1.3,2.09-2.56,4.2-3.56,6.46-1.9,4.26-3.27,8.77-4.42,13.28-1.61,6.32-2.74,12.76-3.56,19.23-1.02,8.12-1.52,16.31-1.55,24.5-.01,2.2.01,4.4.07,6.61.02.64,1.02.64,1,0h0Z"/>
    </g>
    <g>
      <path class="cls-2" d="M99.93,27.78l1.28-2.67.64-1.33.29-.61c.05-.1.23-.55.26-.56h-.27c.26.06.54.32.76.48.25.18.48.36.71.56.46.4.9.83,1.3,1.29.2.23.38.46.56.71s.31.54.55.71c.56.4,1.22-.36.71-.84-.15-.14-.42-.2-.61-.08l-.03.02c-.53.36-.03,1.22.5.86l.03-.02-.61-.08-.09-.15.05-.39-.02.03.43-.25c.21.1.26.09.14-.05-.03-.05-.06-.09-.1-.14-.08-.11-.16-.22-.24-.32-.14-.19-.28-.37-.43-.55-.32-.38-.66-.75-1.02-1.09s-.75-.66-1.15-.96c-.34-.25-.81-.68-1.25-.72-.57-.05-.8.48-1,.91l-.76,1.58-1.52,3.15c-.28.58.58,1.09.86.5h0Z"/>
      <path class="cls-2" d="M51.97,194.85c1.25,1.74,2.33,3.61,3.21,5.57.13.29.58.31.79.1,1.54-1.6,3.02-3.25,4.45-4.94.41-.49-.29-1.2-.71-.71-1.43,1.7-2.91,3.34-4.45,4.94l.79.1c-.88-1.96-1.96-3.82-3.21-5.57-.37-.52-1.24-.02-.86.5h0Z"/>
      <path class="cls-2" d="M56.59,199.38c-.21-8.54.06-17.1.88-25.6.67-6.92,1.7-13.82,3.21-20.61,1.11-4.99,2.46-9.95,4.33-14.72,2.05-5.24,5.17-9.97,8.41-14.54,2.69-3.81,5.54-7.54,8.68-10.99,2.62-2.87,4.82-6.07,6.84-9.39,3-4.92,5.63-10.16,7.31-15.69,1.37-4.51,2.34-9.14,3.16-13.77,1.15-6.48,1.98-13.02,2.58-19.58.76-8.24,1.16-16.51,1.26-24.78.03-2.22.03-4.45.02-6.67,0-.64-1-.64-1,0,.06,8.63-.19,17.27-.82,25.88-.51,7-1.26,14-2.34,20.93-.8,5.1-1.76,10.2-3.1,15.19s-3.28,9.62-5.73,14.15c-2.1,3.89-4.47,7.76-7.28,11.19-1.12,1.36-2.35,2.62-3.48,3.96-1.5,1.78-2.94,3.62-4.34,5.48-2.32,3.07-4.52,6.22-6.55,9.48-1.3,2.09-2.56,4.2-3.56,6.46-1.9,4.26-3.27,8.77-4.42,13.28-1.61,6.32-2.74,12.76-3.56,19.23-1.02,8.12-1.52,16.31-1.55,24.5-.01,2.2.01,4.4.07,6.61.02.64,1.02.64,1,0h0Z"/>
    </g>
    <g>
      <path class="cls-2" d="M157.36,26c.87-1.53,1.9-2.95,3.08-4.25l-.79-.1c.31.7.7,1.34,1.18,1.93.22.28.46.55.72.79.22.21.55.43.66.72.09.25.34.43.62.35.24-.07.44-.36.35-.62-.26-.72-.96-1.16-1.45-1.73s-.9-1.25-1.21-1.95c-.13-.29-.59-.32-.79-.1-1.24,1.36-2.33,2.85-3.24,4.45-.32.56.55,1.07.86.5h0Z"/>
      <path class="cls-2" d="M98.17,200.34c.93,1.31,1.68,2.73,2.23,4.24.12.32.57.53.84.22,1.64-1.92,3.28-3.84,4.92-5.75.42-.49-.29-1.2-.71-.71-1.64,1.92-3.28,3.84-4.92,5.75l.84.22c-.58-1.59-1.35-3.1-2.33-4.48-.37-.52-1.24-.02-.86.5h0Z"/>
      <path class="cls-2" d="M159.36,22.59c.38,6.41.33,12.84-.19,19.24-.59,7.33-1.84,14.57-3.64,21.7-1.36,5.35-3,10.63-5.07,15.75-2.78,6.89-6.29,13.53-10.65,19.56-2.85,3.93-6.25,7.36-9.36,11.07-4.27,5.07-7.7,10.76-10.74,16.64-2.72,5.27-5.08,10.7-7.33,16.18-2.51,6.12-4.78,12.34-6.56,18.72-1.41,5.04-2.5,10.16-3.29,15.32-1.04,6.79-1.58,13.65-1.66,20.51-.02,2,0,4,.04,6,.02.64,1.02.64,1,0-.19-7.35.12-14.72,1-22.02.65-5.35,1.61-10.66,2.9-15.89,1.62-6.52,3.77-12.91,6.23-19.16,1.98-5.02,4.08-10.01,6.4-14.88,3.08-6.44,6.53-12.82,10.91-18.48,2.9-3.76,6.3-7.09,9.27-10.8,4.42-5.53,8.01-11.73,10.94-18.16,2.54-5.58,4.58-11.37,6.19-17.29,1.73-6.34,3.05-12.78,3.85-19.3s1.14-13.6.94-20.42c-.04-1.43-.11-2.86-.19-4.29-.04-.64-1.04-.64-1,0h0Z"/>
    </g>
    <path class="cls-2" d="M162.33,202.02c-.63-12.73.34-25.54,3.13-37.98,2.72-12.15,7.09-23.93,12.64-35.07,2.09-4.2,4.35-8.32,6.84-12.3,2.93-4.7,6.3-9.11,9.14-13.86,3.09-5.18,5.13-10.84,6.61-16.67,1.82-7.18,2.81-14.54,3.61-21.9,1.36-12.6,2.01-25.28,1.93-37.96-.01-1.96-.04-3.91-.09-5.87-.02-.64-1.02-.64-1,0,.32,13.42-.17,26.86-1.47,40.23-.66,6.77-1.45,13.54-2.8,20.22-1.31,6.48-3.11,12.97-6.19,18.85-2.45,4.66-5.65,8.87-8.54,13.26s-5.36,8.64-7.69,13.15c-5.65,10.9-10.17,22.44-13.15,34.36-2.92,11.68-4.27,23.73-4.13,35.76.02,1.93.08,3.86.18,5.78.03.64,1.03.64,1,0h0Z"/>
    <g>
      <path class="cls-2" d="M201.79,25.45l2.3-2.89,1.1-1.38.6-.75c.05-.07.23-.22.23-.29.08-.07.03-.09-.13-.08.04.04.07.08.1.13.58.84.82,1.88,1.32,2.76.47.82,1.13,1.5,2.03,1.81.61.21.87-.76.27-.96-.98-.33-1.48-1.35-1.87-2.24-.23-.53-.43-1.07-.71-1.57-.22-.4-.54-.92-1.07-.9s-.88.63-1.18,1.02l-1.2,1.51-2.5,3.14c-.4.5.31,1.21.71.71h0Z"/>
      <path class="cls-2" d="M159.33,198.38c-.38-.46-1.07-.04-1.01.49.03.27.21.46.36.67.18.25.36.5.54.74.7.95,1.42,1.89,2.15,2.82.13.17.43.18.61.08.78-.46,1.51-1.01,2.17-1.64.33-.31.63-.65.91-1,.13-.17.26-.33.39-.5.07-.1.23-.41.34-.44.62-.15.36-1.12-.27-.96-.47.11-.68.54-.94.9s-.58.73-.9,1.06c-.66.67-1.4,1.25-2.21,1.72l.61.08c-.49-.62-.97-1.25-1.44-1.88s-.98-1.24-1.38-1.9l.07.25v-.11c-.04.08-.06.17-.08.25l-.1.11-.25.07h.05c-.12-.04-.24-.09-.35-.14l.03.04c.42.49,1.12-.22.71-.71h0Z"/>
    </g>
    <path class="cls-2" d="M210.48,198.93c.51-11.85,2.38-23.63,5.56-35.06,1.58-5.68,3.48-11.28,5.69-16.75s4.79-10.77,7.43-16.04,5.25-10.42,7.53-15.79,4.19-11.09,5.43-16.91c2.57-12.13,3-24.68,3.12-37.05.12-12.67-.05-25.36-.12-38.03,0-1.58-.02-3.15-.02-4.73,0-.64-1-.64-1,0,.06,12.73.19,25.45.16,38.18-.02,12.5-.26,25.14-2.37,37.49-1.01,5.91-2.57,11.69-4.74,17.28-2.13,5.5-4.73,10.8-7.37,16.08s-5.23,10.38-7.54,15.71-4.38,10.97-6.1,16.62c-3.42,11.25-5.58,22.88-6.41,34.61-.1,1.46-.19,2.92-.25,4.38-.03.64.97.64,1,0h0Z"/>
    <g>
      <path class="cls-2" d="M241.55,23.18c.41-1.1.94-2.15,1.57-3.14.29-.46.59-.99,1-1.36s.84-.28,1.25.04c.72.58,1.09,1.56,1.54,2.34s1.03,1.57,1.88,2c.57.29,1.08-.57.5-.86-.95-.48-1.42-1.45-1.91-2.34-.52-.94-1.14-2.08-2.27-2.37-1.32-.33-2.13.92-2.74,1.87-.73,1.12-1.31,2.32-1.79,3.56-.23.6.74.86.96.27h0Z"/>
      <path class="cls-2" d="M206.87,192.98c.29,1.37.66,2.72,1.12,4.04.34,1.01.67,2.5,1.83,2.85.28.08.51-.1.62-.35.85-2.03,2.17-3.84,3.81-5.31.48-.43-.23-1.13-.71-.71-1.78,1.58-3.15,3.55-4.07,5.75l.62-.35c-.37-.11-.54-.55-.67-.88-.23-.57-.43-1.16-.62-1.74-.38-1.17-.7-2.37-.96-3.58-.13-.63-1.1-.36-.96.27h0Z"/>
    </g>
    <path class="cls-1" d="M189.42,103.49c-.52,3.57-.5,7.17.05,10.73.1.63,1.06.36.96-.27-.52-3.37-.54-6.82-.05-10.2.09-.63-.87-.9-.96-.27h0Z"/>
    <g>
      <path class="cls-1" d="M186.06,95.65l.63,4.03c.02.13.19.21.31.17.14-.04.2-.17.17-.31l-.63-4.03c-.02-.13-.19-.21-.31-.17-.14.04-.2.17-.17.31h0Z"/>
      <path class="cls-1" d="M188.63,95.1c0,1.33.16,2.65.49,3.94.08.31.56.18.48-.13-.31-1.24-.47-2.52-.47-3.8,0-.32-.5-.32-.5,0h0Z"/>
      <path class="cls-1" d="M184.99,96.31c1.74-.74,3.55-1.28,5.4-1.64.13-.03.21-.18.17-.31-.04-.14-.17-.2-.31-.17-1.89.37-3.74.94-5.52,1.7-.12.05-.15.24-.09.34.08.13.22.14.34.09h0Z"/>
    </g>
    <path class="cls-1" d="M238.41,103.38l.29,9.33c.02.64,1.02.64,1,0l-.29-9.33c-.02-.64-1.02-.64-1,0h0Z"/>
    <g>
      <path class="cls-1" d="M229.85,97.36c.57-.24,1.25-.24,1.85-.11.31.07.6.17.88.32.23.13.46.3.6.48.34.45.3.99.01,1.45-.36.57-.98.89-1.61,1.09-.38.12-.77.22-1.13.39-.32.14-.6.36-.72.7-.05.15.09.32.24.32,1.59-.08,3.18-.16,4.77-.24.32-.02.32-.52,0-.5-1.59.08-3.18.16-4.77.24l.24.32s.05-.09.05-.1c.04-.05.1-.1.13-.13.12-.09.26-.16.4-.21.34-.14.7-.23,1.05-.34.72-.24,1.4-.66,1.79-1.32.34-.57.39-1.28.01-1.85s-1.01-.88-1.64-1.05c-.79-.22-1.66-.21-2.42.12-.12.05-.15.24-.09.34.08.13.22.14.34.09h0Z"/>
      <path class="cls-1" d="M236.11,97.85c.01,1.23-.16,2.45-.51,3.63-.04.13.05.27.17.31s.27-.04.31-.17c.36-1.22.54-2.49.53-3.76,0-.32-.5-.32-.5,0h0Z"/>
      <path class="cls-1" d="M237.71,97.96s.02.03.03.04c.02.02.03.04.05.07.04.05.07.1.1.16.06.1.11.19.16.3.05.11.08.18.12.28.04.11.08.22.11.33s.05.22.07.33c.02.13.03.18.04.31.02.23.02.46,0,.69,0,.01,0,.03,0,.04,0,0,0,.05,0,.03,0-.02,0,.02,0,.02,0,.02,0,.04,0,.05-.01.06-.02.12-.04.19-.03.13-.07.26-.11.39s.05.27.17.31c.14.04.26-.05.31-.17.33-.96.25-2.04-.18-2.96-.12-.27-.28-.51-.46-.74-.08-.11-.27-.09-.35,0-.11.11-.08.25,0,.35h0Z"/>
      <path class="cls-1" d="M234.59,98.17c1.63-.24,3.25-.55,4.86-.91.31-.07.18-.55-.13-.48-1.61.36-3.23.67-4.86.91-.13.02-.21.19-.17.31.04.14.17.19.31.17h0Z"/>
    </g>
    <path class="cls-1" d="M84.24,104.74c-.39,2.94-.35,5.9.1,8.84.1.63,1.06.36.96-.27-.43-2.84-.44-5.73-.06-8.57.04-.27-.26-.5-.5-.5-.3,0-.46.23-.5.5h0Z"/>
    <g>
      <path class="cls-1" d="M78.08,102.84l3.53-1.02c.13-.04.21-.18.17-.31s-.18-.21-.31-.17l-3.53,1.02c-.13.04-.21.18-.17.31s.18.21.31.17h0Z"/>
      <path class="cls-1" d="M84.1,98.44c-.17,1.5-.22,3.01-.13,4.51,0,.13.11.25.25.25.13,0,.26-.11.25-.25-.08-1.5-.04-3.01.13-4.51.02-.13-.13-.25-.25-.25-.15,0-.23.12-.25.25h0Z"/>
      <path class="cls-1" d="M86.6,97.22c-.29,1.78-.41,3.58-.34,5.38.01.32.51.32.5,0-.07-1.75.03-3.52.32-5.25.02-.13-.03-.27-.17-.31-.12-.03-.29.04-.31.17h0Z"/>
      <path class="cls-1" d="M81.82,99.46c1.97-1.26,4.19-2.07,6.51-2.4.13-.02.21-.19.17-.31-.04-.14-.17-.19-.31-.17-2.35.33-4.62,1.17-6.63,2.45-.27.17-.02.61.25.43h0Z"/>
    </g>
    <path class="cls-1" d="M40.77,104.45c.41,2.59-.57,5.37.84,7.76.33.55,1.19.05.86-.5-.65-1.11-.7-2.38-.67-3.63s.13-2.6-.07-3.9c-.1-.63-1.06-.36-.96.27h0Z"/>
    <g>
      <path class="cls-1" d="M31.26,100.67c.98-.4,1.97-.77,2.97-1.11.12-.04.22-.17.17-.31-.04-.12-.17-.22-.31-.17-1,.34-1.99.71-2.97,1.11-.12.05-.22.17-.17.31.04.12.18.23.31.17h0Z"/>
      <path class="cls-1" d="M34.79,97.11c.63-.06,1.29-.13,1.91.05.45.14.91.43,1.08.89.2.53.03,1.12-.22,1.6s-.61.94-1.01,1.33c-.45.45-.95.84-1.45,1.23-.19.15.02.51.24.42,1.28-.53,2.57-1.05,3.85-1.58.12-.05.21-.17.17-.31-.03-.12-.18-.23-.31-.17-1.28.53-2.57,1.05-3.85,1.58l.24.42c.97-.75,1.97-1.55,2.54-2.66.3-.57.49-1.26.3-1.9-.17-.59-.65-1.01-1.2-1.24-.73-.3-1.53-.23-2.29-.16-.13.01-.25.11-.25.25,0,.12.11.26.25.25h0Z"/>
      <path class="cls-1" d="M40.33,96.5v3.38c0,.14.11.25.25.25s.25-.11.25-.25v-3.38c0-.14-.11-.25-.25-.25s-.25.11-.25.25h0Z"/>
      <path class="cls-1" d="M41.81,95.99c.27.46.45.9.59,1.41s.2.98.2,1.52c0,.13.12.26.25.25s.25-.11.25-.25c0-1.11-.29-2.22-.85-3.18-.07-.11-.23-.16-.34-.09s-.16.22-.09.34h0Z"/>
      <path class="cls-1" d="M39.13,97.34l4.13-2.2c.12-.06.16-.23.09-.34-.07-.12-.22-.15-.34-.09l-4.13,2.2c-.12.06-.16.23-.09.34.07.12.22.15.34.09h0Z"/>
    </g>
    <g>
      <path class="cls-2" d="M209.73,8.83c4.02-2.32,8.28-4.18,12.72-5.56.61-.19.35-1.16-.27-.96-4.52,1.4-8.86,3.3-12.96,5.66-.56.32-.05,1.19.5.86h0Z"/>
      <path class="cls-2" d="M216.47.36l-1.04,7.27-.51,3.57-.25,1.72-.14.99c-.02.14-.02.67-.1.76l.35-.15h-.09c.12.04.24.09.35.14l-.06-.06.13.49.02-.07c.16-.62-.81-.89-.96-.27-.1.39.15.77.57.77.55,0,.64-.55.7-.98l.67-4.68,1.33-9.24c.09-.63-.87-.9-.96-.27h0Z"/>
      <path class="cls-2" d="M222.49,9.18c-.04,1.28-.26,2.54-.64,3.77h.96c-.29-1.19-.79-2.34-1.5-3.34-.65-.92-1.67-2.3-2.91-1.42-1.83,1.31-1.91,4.27-.24,5.73.93.82,2.19,1.17,3.4.91.63-.13.36-1.1-.27-.96-1.54.33-3.2-.8-3.33-2.39-.07-.8.18-1.64.74-2.23.12-.13.28-.3.46-.34.19-.04.33.1.46.22.34.34.64.72.91,1.11.62.91,1.06,1.91,1.32,2.98.12.5.82.45.96,0,.41-1.31.63-2.67.68-4.03.02-.64-.98-.64-1,0h0Z"/>
      <path class="cls-2" d="M223.79,8.86v5.13c0,.66.92.62.99,0,.11-.95.37-1.9.75-2.78.19-.43.41-.86.66-1.26.09-.15.25-.31.33-.47-.05.1-.12-.1,0,.12.04.08.06.18.09.27.58,1.94.56,4.02,0,5.96-.18.62.79.88.96.27.36-1.24.52-2.54.45-3.83-.03-.64-.12-1.29-.26-1.92-.11-.52-.22-1.19-.62-1.58-1.05-1.05-1.99.91-2.34,1.65-.54,1.13-.87,2.33-1.02,3.57h1v-5.13c0-.64-.99-.64-.99,0h0Z"/>
      <path class="cls-2" d="M234.15,1.2c-2.23,2.26-3.62,5.23-3.91,8.39-.14,1.53-.08,3.24.71,4.6.69,1.21,2.03,2.08,3.45,1.91.63-.08.64-1.08,0-1-3.23.39-3.41-4.02-3.08-6.17.41-2.65,1.65-5.11,3.54-7.02.45-.46-.25-1.17-.71-.71h0Z"/>
      <path class="cls-2" d="M235.13,6.73c1.22,2.21,2.63,4.3,4.2,6.27.17.21.53.18.71,0,.21-.21.17-.5,0-.71-1.52-1.9-2.86-3.93-4.04-6.06-.31-.56-1.18-.06-.86.5h0Z"/>
      <path class="cls-2" d="M238.96,5.61l-4.49,6.94c-.35.54.51,1.04.86.5l4.49-6.94c.35-.54-.51-1.04-.86-.5h0Z"/>
      <path class="cls-2" d="M239.48,1.52c1.98,1.61,2.77,4.13,2.95,6.6s.08,6.25-2.86,7.01c-.62.16-.36,1.13.27.96,3.31-.86,3.77-4.74,3.62-7.6s-.99-5.82-3.27-7.67c-.5-.4-1.21.3-.71.71h0Z"/>
    </g>
  </g>
</svg>