<svg xmlns="http://www.w3.org/2000/svg" viewBox="0 0 229.42 206.63">
  <defs>
    <style>
      .cls-1 {
        fill: #808285;
      }

      .cls-2 {
        fill: #00a651;
      }
    </style>
  </defs>
  <title>exactly-evaluating-even-more-trig-functions-4</title>
  <g id="Layer_2" data-name="Layer 2">
    <g id="Layer_1-2" data-name="Layer 1">
      <g>
        <path class="cls-1" d="M108,10.37l4.32-7.81h-1.73a40.65,40.65,0,0,0,5.78,7.88c.88,1,2.29-.47,1.41-1.41a38.56,38.56,0,0,1-5.46-7.48,1,1,0,0,0-1.73,0l-4.31,7.81c-.63,1.13,1.1,2.14,1.72,1Z" transform="translate(-0.01 -1.07)"/>
        <path class="cls-1" d="M103.68,199.6l2.74,4.94c.66,1.18,1.64,3.92,3.48,3a12.19,12.19,0,0,0,2-1.71l2-1.79,2.1-1.84a5.86,5.86,0,0,0,1.47-1.81,1,1,0,0,0-.36-1.37,1,1,0,0,0-1.37.36c-.55,1.18-1.86,2-2.81,2.85l-3.46,3a3.65,3.65,0,0,0-.36.31c-.24.14-.24.2,0,.18s.23.06.17,0-.44-.78-.51-.9l-1.11-2-2.33-4.2a1,1,0,0,0-1.73,1Z" transform="translate(-0.01 -1.07)"/>
        <path class="cls-1" d="M110.77,3.78q.6,39.38.39,78.75-.21,39.18-1.24,78.35-.57,22.08-1.41,44.17c-.05,1.29,1.95,1.29,2,0q1.48-39.35,2.16-78.72.66-39.18.52-78.35-.07-22.09-.42-44.2a1,1,0,0,0-2,0Z" transform="translate(-0.01 -1.07)"/>
      </g>
      <g>
        <path class="cls-1" d="M2.11,109.56c21.3,1,42.61.94,63.92.16,10.27-.38,20.5-.52,30.76-.29q23,.51,46,.67,9.69,0,19.38,0,28.65,0,57.29.15l7.54,0a1,1,0,0,0,0-2q-30.28-.1-60.56-.16c-7.21,0-14.41,0-21.61,0q-22.12-.1-44.23-.6c-9.42-.21-18.81-.32-28.22,0-9.81.31-19.61.74-29.43.83q-17.43.17-34.86-.51l-6-.25c-1.29-.06-1.29,1.94,0,2Z" transform="translate(-0.01 -1.07)"/>
        <path class="cls-1" d="M220.27,105.68a19,19,0,0,1,4.48,2.3,18.06,18.06,0,0,1,1.87,1.5c.07.07.82.85.84.84.09-.32.07-.4-.05-.24l-.13.12c-.15.14-.31.26-.46.38-2.2,1.75-4.89,3.16-5.74,6a1,1,0,0,0,1.93.53,6.78,6.78,0,0,1,2.72-3.29c.65-.49,1.32-1,2-1.44s1.49-1,1.7-1.88c.25-1-.56-1.72-1.21-2.33a20.77,20.77,0,0,0-7.38-4.46c-1.22-.43-1.74,1.5-.53,1.93Z" transform="translate(-0.01 -1.07)"/>
        <path class="cls-1" d="M9.22,99.86c-1.6,1.15-3.16,2.36-4.65,3.64-.74.64-1.47,1.3-2.18,2a13,13,0,0,0-1.95,2,1.94,1.94,0,0,0,0,2.43,3.37,3.37,0,0,0,1.11.66l1.53.71,5.68,2.62a1,1,0,0,0,1.37-.36,1,1,0,0,0-.36-1.37L5,110l-2.41-1.1c-.12-.06-.4-.27-.52-.25s-.14,0,0,.17a.36.36,0,0,1,0-.09c.08,0,.13-.2.19-.27a6.25,6.25,0,0,1,.44-.45,59.92,59.92,0,0,1,7.56-6.4,1,1,0,0,0,.36-1.37,1,1,0,0,0-1.37-.36Z" transform="translate(-0.01 -1.07)"/>
      </g>
      <g>
        <g>
          <path class="cls-2" d="M152.87,58l-5.4,2.67c-1.4.69-3.44,1.84-4.9.65a1.94,1.94,0,0,1-.52-2.07,2.56,2.56,0,0,1,1.65-1.65c1.75-.66,3.6.14,5.1,1.05a7.42,7.42,0,0,1,3.59,4,.5.5,0,0,0,1-.27,8.22,8.22,0,0,0-3.7-4.37c-1.77-1.13-3.95-2.09-6.07-1.42a3.48,3.48,0,0,0-2.49,4.27c.67,2,3,2.25,4.78,1.64a35.52,35.52,0,0,0,3.64-1.72l3.86-1.91c.57-.28.07-1.15-.51-.86Z" transform="translate(-0.01 -1.07)"/>
          <path class="cls-2" d="M157.24,59.33l4.82-1a.5.5,0,1,0-.26-1l-4.82,1a.49.49,0,0,0-.35.61.51.51,0,0,0,.61.35Z" transform="translate(-0.01 -1.07)"/>
          <path class="cls-2" d="M166.45,54.87a39.77,39.77,0,0,0-1.59,10.28.5.5,0,0,0,1,0,38.63,38.63,0,0,1,1.56-10,.5.5,0,0,0-1-.27Z" transform="translate(-0.01 -1.07)"/>
          <path class="cls-2" d="M167,55.53l2.17,0c.2,0,.7-.1.86,0s0,.2,0,.3c-.18.41-.61.56-1,.74a2.5,2.5,0,0,0-1.22,1,.51.51,0,0,0,.43.75,1.4,1.4,0,1,1,.15,2.79c-.64,0-.65,1,0,1a2.4,2.4,0,1,0-.15-4.79l.44.75c.28-.53,1-.64,1.47-.95a1.87,1.87,0,0,0,.91-1.53c0-.75-.67-1.1-1.34-1.11-.91,0-1.83,0-2.74,0a.5.5,0,0,0,0,1Z" transform="translate(-0.01 -1.07)"/>
        </g>
        <g>
          <path class="cls-2" d="M158.28,107.42A38.06,38.06,0,0,0,161,95.19a33.92,33.92,0,0,0-1.84-13.89,32.47,32.47,0,0,0-14.63-17,34.35,34.35,0,0,0-12.72-3.93,1,1,0,0,0,0,2,30.59,30.59,0,0,1,19,9.32,31.22,31.22,0,0,1,5.88,8.91A30.7,30.7,0,0,1,159,93.32a36.7,36.7,0,0,1-2.68,13.57,1,1,0,0,0,.7,1.23,1,1,0,0,0,1.23-.7Z" transform="translate(-0.01 -1.07)"/>
          <path class="cls-2" d="M112.61,107.93l9.5.32c3.13.1,6.27.25,9.41.14s6.15-.6,9.23-.94a51.65,51.65,0,0,1,9.47-.1c6.32.47,12.63,1,19,1.26s12.75.41,19.13.38q5.28,0,10.56-.17c1.78-.06,3.56-.12,5.34-.2l2.73-.12,1.25-.07.62,0,.37,0c.25,0,.21,0-.14-.19l-.14-.51v.08l.13-.5,0,.06.36-.36H210l.46.6v0l-.1.77,0-.06c.72-1.07-1-2.07-1.73-1-.95,1.41,1.74,2.44,2.18.83a1.33,1.33,0,0,0-1-1.57,7.2,7.2,0,0,0-2.45,0c-3.39.17-6.79.3-10.18.39q-10.32.27-20.63,0t-20.73-1.06c-3.41-.26-6.84-.66-10.27-.66a92.88,92.88,0,0,0-10.11.94,79.22,79.22,0,0,1-11.32.23l-11.6-.39c-1.29-.05-1.29,1.95,0,2Z" transform="translate(-0.01 -1.07)"/>
          <path class="cls-2" d="M205.09,105.36l2.68,1.29,1.3.64.61.29a1.73,1.73,0,0,0,.36.18c.12,0,0,0,0,0l-.14-.5c0,.26-.46.93-.62,1.21-.3.5-.62,1-1,1.46a19.7,19.7,0,0,1-2.14,2.51,1,1,0,0,0,1.41,1.41,20.11,20.11,0,0,0,4.12-5.69,1.51,1.51,0,0,0-.33-1.87,7.63,7.63,0,0,0-1.79-.94l-3.52-1.71a1,1,0,0,0-1,1.73Z" transform="translate(-0.01 -1.07)"/>
          <path class="cls-2" d="M113.67,107c4.11-11.25,8.13-22.54,12.54-33.68a275,275,0,0,1,14.72-32q2.4-4.32,5-8.52a43,43,0,0,0,4.5-8.53c.43-1.22-1.5-1.75-1.93-.54a37.62,37.62,0,0,1-4,7.58Q142.17,35.1,140,39c-2.86,5.08-5.48,10.29-7.93,15.57-5,10.69-9.2,21.69-13.28,32.73-2.37,6.41-4.7,12.82-7,19.23-.44,1.21,1.49,1.74,1.93.53Z" transform="translate(-0.01 -1.07)"/>
          <path class="cls-2" d="M140,28a17.72,17.72,0,0,1,8.59-3.3,4.76,4.76,0,0,0,1-.06c-.16-.13-.21-.14-.14,0l0,.15a4.52,4.52,0,0,0,.23.71l.83,2.6,1.66,5.2c.39,1.22,2.32.7,1.92-.53l-1.92-6c-.29-.92-.54-1.88-.9-2.79a2,2,0,0,0-2.09-1.27A19.21,19.21,0,0,0,139,26.25a1,1,0,0,0-.36,1.36A1,1,0,0,0,140,28Z" transform="translate(-0.01 -1.07)"/>
        </g>
      </g>
    </g>
  </g>
</svg>
