<svg xmlns="http://www.w3.org/2000/svg" viewBox="0 0 229.42 206.63">
  <defs>
    <style>
      .cls-1 {
        fill: #808285;
      }

      .cls-2 {
        fill: #231f20;
      }

      .cls-3 {
        fill: #00a651;
      }

      .cls-4 {
        fill: #58595b;
      }
    </style>
  </defs>
  <title>exactly-evaluating-even-more-trig-functions-8</title>
  <g id="Layer_2" data-name="Layer 2">
    <g id="Layer_1-2" data-name="Layer 1">
      <g>
        <path class="cls-1" d="M108,10.37l4.32-7.81h-1.73a40.65,40.65,0,0,0,5.78,7.88c.88,1,2.29-.47,1.41-1.41a38.56,38.56,0,0,1-5.46-7.48,1,1,0,0,0-1.73,0l-4.31,7.81c-.63,1.13,1.1,2.14,1.72,1Z" transform="translate(-0.01 -1.07)"/>
        <path class="cls-1" d="M103.68,199.6l2.74,4.94c.66,1.18,1.64,3.92,3.48,3a12.19,12.19,0,0,0,2-1.71l2-1.79,2.1-1.84a5.86,5.86,0,0,0,1.47-1.81,1,1,0,0,0-.36-1.37,1,1,0,0,0-1.37.36c-.55,1.18-1.86,2-2.81,2.85l-3.46,3a3.65,3.65,0,0,0-.36.31c-.24.14-.24.2,0,.18s.23.06.17,0-.44-.78-.51-.9l-1.11-2-2.33-4.2a1,1,0,0,0-1.73,1Z" transform="translate(-0.01 -1.07)"/>
        <path class="cls-1" d="M110.77,3.78q.6,39.38.39,78.75-.21,39.18-1.24,78.35-.57,22.08-1.41,44.17c-.05,1.29,1.95,1.29,2,0q1.48-39.35,2.16-78.72.66-39.18.52-78.35-.07-22.09-.42-44.2a1,1,0,0,0-2,0Z" transform="translate(-0.01 -1.07)"/>
      </g>
      <g>
        <path class="cls-1" d="M2.11,109.56c21.3,1,42.61.94,63.92.16,10.27-.38,20.5-.52,30.76-.29q23,.51,46,.67,9.69,0,19.38,0,28.65,0,57.29.15l7.54,0a1,1,0,0,0,0-2q-30.28-.1-60.56-.16c-7.21,0-14.41,0-21.61,0q-22.12-.1-44.23-.6c-9.42-.21-18.81-.32-28.22,0-9.81.31-19.61.74-29.43.83q-17.43.17-34.86-.51l-6-.25c-1.29-.06-1.29,1.94,0,2Z" transform="translate(-0.01 -1.07)"/>
        <path class="cls-1" d="M220.27,105.68a19,19,0,0,1,4.48,2.3,18.06,18.06,0,0,1,1.87,1.5c.07.07.82.85.84.84.09-.32.07-.4-.05-.24l-.13.12c-.15.14-.31.26-.46.38-2.2,1.75-4.89,3.16-5.74,6a1,1,0,0,0,1.93.53,6.78,6.78,0,0,1,2.72-3.29c.65-.49,1.32-1,2-1.44s1.49-1,1.7-1.88c.25-1-.56-1.72-1.21-2.33a20.77,20.77,0,0,0-7.38-4.46c-1.22-.43-1.74,1.5-.53,1.93Z" transform="translate(-0.01 -1.07)"/>
        <path class="cls-1" d="M9.22,99.86c-1.6,1.15-3.16,2.36-4.65,3.64-.74.64-1.47,1.3-2.18,2a13,13,0,0,0-1.95,2,1.94,1.94,0,0,0,0,2.43,3.37,3.37,0,0,0,1.11.66l1.53.71,5.68,2.62a1,1,0,0,0,1.37-.36,1,1,0,0,0-.36-1.37L5,110l-2.41-1.1c-.12-.06-.4-.27-.52-.25s-.14,0,0,.17a.36.36,0,0,1,0-.09c.08,0,.13-.2.19-.27a6.25,6.25,0,0,1,.44-.45,59.92,59.92,0,0,1,7.56-6.4,1,1,0,0,0,.36-1.37,1,1,0,0,0-1.37-.36Z" transform="translate(-0.01 -1.07)"/>
      </g>
      <path class="cls-2" d="M112,26.31a131.63,131.63,0,0,1,27.76,6.63,96.87,96.87,0,0,1,14.75,6.59A73.06,73.06,0,0,1,168.73,50.3a93.28,93.28,0,0,1,14.44,17.56c4.66,7.22,8.61,14.73,10.53,23.17a61,61,0,0,1-.85,29.59,85.79,85.79,0,0,1-7.12,17.47A61.42,61.42,0,0,1,166,160.25a72.06,72.06,0,0,1-11.67,6.28,106.59,106.59,0,0,1-13.73,5,96,96,0,0,1-26,3.58,101.29,101.29,0,0,1-16.22-1.31A85.19,85.19,0,0,1,71.91,165a83,83,0,0,1-20.3-14.9A61.64,61.64,0,0,1,36.5,124,74.69,74.69,0,0,1,34,98.2a89.23,89.23,0,0,1,3.06-17.7,83.61,83.61,0,0,1,4.6-12.66A70,70,0,0,1,80.78,31a69.35,69.35,0,0,1,19.9-5,58,58,0,0,1,11.33.37,1,1,0,0,0,1-1,1,1,0,0,0-1-1A58,58,0,0,0,100.45,24,59.15,59.15,0,0,0,89.1,26.08a85.14,85.14,0,0,0-21.93,9.51A71.22,71.22,0,0,0,45.42,56.94a80.3,80.3,0,0,0-8.79,18.24A91.82,91.82,0,0,0,33.31,88a85.86,85.86,0,0,0-1.16,23.35,67.2,67.2,0,0,0,8.67,27.81,67.55,67.55,0,0,0,19.09,20.56,89.32,89.32,0,0,0,26,13.15,97,97,0,0,0,21.43,3.89,98.13,98.13,0,0,0,19.46-.49,104.53,104.53,0,0,0,28.92-8.21A65.29,65.29,0,0,0,180,150.21a76.84,76.84,0,0,0,11.22-19,70.07,70.07,0,0,0,5.85-24.37A61.21,61.21,0,0,0,190.77,77a100.27,100.27,0,0,0-5.92-10.18C183,63.9,181,61.1,178.91,58.42A89,89,0,0,0,157.57,39a64.16,64.16,0,0,0-8-4.22,123.51,123.51,0,0,0-22.35-7.7A142.84,142.84,0,0,0,112,24.31a1,1,0,1,0,0,2Z" transform="translate(-0.01 -1.07)"/>
      <g>
        <g>
          <path class="cls-3" d="M152.87,58l-5.4,2.67c-1.4.69-3.44,1.84-4.9.65a1.94,1.94,0,0,1-.52-2.07,2.56,2.56,0,0,1,1.65-1.65c1.75-.66,3.6.14,5.1,1.05a7.42,7.42,0,0,1,3.59,4,.5.5,0,0,0,1-.27,8.22,8.22,0,0,0-3.7-4.37c-1.77-1.13-3.95-2.09-6.07-1.42a3.48,3.48,0,0,0-2.49,4.27c.67,2,3,2.25,4.78,1.64a35.52,35.52,0,0,0,3.64-1.72l3.86-1.91c.57-.28.07-1.15-.51-.86Z" transform="translate(-0.01 -1.07)"/>
          <path class="cls-3" d="M157.24,59.33l4.82-1a.5.5,0,1,0-.26-1l-4.82,1a.49.49,0,0,0-.35.61.51.51,0,0,0,.61.35Z" transform="translate(-0.01 -1.07)"/>
          <path class="cls-3" d="M166.45,54.87a39.77,39.77,0,0,0-1.59,10.28.5.5,0,0,0,1,0,38.63,38.63,0,0,1,1.56-10,.5.5,0,0,0-1-.27Z" transform="translate(-0.01 -1.07)"/>
          <path class="cls-3" d="M167,55.53l2.17,0c.2,0,.7-.1.86,0s0,.2,0,.3c-.18.41-.61.56-1,.74a2.5,2.5,0,0,0-1.22,1,.51.51,0,0,0,.43.75,1.4,1.4,0,1,1,.15,2.79c-.64,0-.65,1,0,1a2.4,2.4,0,1,0-.15-4.79l.44.75c.28-.53,1-.64,1.47-.95a1.87,1.87,0,0,0,.91-1.53c0-.75-.67-1.1-1.34-1.11-.91,0-1.83,0-2.74,0a.5.5,0,0,0,0,1Z" transform="translate(-0.01 -1.07)"/>
        </g>
        <g>
          <path class="cls-3" d="M158.28,107.42A38.06,38.06,0,0,0,161,95.19a33.92,33.92,0,0,0-1.84-13.89,32.47,32.47,0,0,0-14.63-17,34.35,34.35,0,0,0-12.72-3.93,1,1,0,0,0,0,2,30.59,30.59,0,0,1,19,9.32,31.22,31.22,0,0,1,5.88,8.91A30.7,30.7,0,0,1,159,93.32a36.7,36.7,0,0,1-2.68,13.57,1,1,0,0,0,.7,1.23,1,1,0,0,0,1.23-.7Z" transform="translate(-0.01 -1.07)"/>
          <path class="cls-3" d="M112.61,107.93l9.5.32c3.13.1,6.27.25,9.41.14s6.15-.6,9.23-.94a51.65,51.65,0,0,1,9.47-.1c6.32.47,12.63,1,19,1.26s12.75.41,19.13.38q5.28,0,10.56-.17c1.78-.06,3.56-.12,5.34-.2l2.73-.12,1.25-.07.62,0,.37,0c.25,0,.21,0-.14-.19l-.14-.51v.08l.13-.5,0,.06.36-.36H210l.46.6v0l-.1.77,0-.06c.72-1.07-1-2.07-1.73-1-.95,1.41,1.74,2.44,2.18.83a1.33,1.33,0,0,0-1-1.57,7.2,7.2,0,0,0-2.45,0c-3.39.17-6.79.3-10.18.39q-10.32.27-20.63,0t-20.73-1.06c-3.41-.26-6.84-.66-10.27-.66a92.88,92.88,0,0,0-10.11.94,79.22,79.22,0,0,1-11.32.23l-11.6-.39c-1.29-.05-1.29,1.95,0,2Z" transform="translate(-0.01 -1.07)"/>
          <path class="cls-3" d="M205.09,105.36l2.68,1.29,1.3.64.61.29a1.73,1.73,0,0,0,.36.18c.12,0,0,0,0,0l-.14-.5c0,.26-.46.93-.62,1.21-.3.5-.62,1-1,1.46a19.7,19.7,0,0,1-2.14,2.51,1,1,0,0,0,1.41,1.41,20.11,20.11,0,0,0,4.12-5.69,1.51,1.51,0,0,0-.33-1.87,7.63,7.63,0,0,0-1.79-.94l-3.52-1.71a1,1,0,0,0-1,1.73Z" transform="translate(-0.01 -1.07)"/>
          <path class="cls-3" d="M113.67,107c4.11-11.25,8.13-22.54,12.54-33.68a275,275,0,0,1,14.72-32q2.4-4.32,5-8.52a43,43,0,0,0,4.5-8.53c.43-1.22-1.5-1.75-1.93-.54a37.62,37.62,0,0,1-4,7.58Q142.17,35.1,140,39c-2.86,5.08-5.48,10.29-7.93,15.57-5,10.69-9.2,21.69-13.28,32.73-2.37,6.41-4.7,12.82-7,19.23-.44,1.21,1.49,1.74,1.93.53Z" transform="translate(-0.01 -1.07)"/>
          <path class="cls-3" d="M140,28a17.72,17.72,0,0,1,8.59-3.3,4.76,4.76,0,0,0,1-.06c-.16-.13-.21-.14-.14,0l0,.15a4.52,4.52,0,0,0,.23.71l.83,2.6,1.66,5.2c.39,1.22,2.32.7,1.92-.53l-1.92-6c-.29-.92-.54-1.88-.9-2.79a2,2,0,0,0-2.09-1.27A19.21,19.21,0,0,0,139,26.25a1,1,0,0,0-.36,1.36A1,1,0,0,0,140,28Z" transform="translate(-0.01 -1.07)"/>
        </g>
      </g>
      <g>
        <path class="cls-1" d="M27.55,136.92l4.32.29c.64,0,1.29.07,1.93.16a4.09,4.09,0,0,1,1.87.6c.47.38,0,1.46-.11,2l-.47,2.16-1,4.34c-.14.62.82.89,1,.26l1.08-4.92c.19-.86.38-1.71.56-2.56a1.87,1.87,0,0,0-.23-1.83c-.93-1-2.71-1-4-1.12l-5-.34c-.65,0-.64,1,0,1Z" transform="translate(-0.01 -1.07)"/>
        <path class="cls-1" d="M35.24,137.63a3.67,3.67,0,0,0-2.71,1.31c-.84.74-1.65,1.52-2.43,2.33a39.72,39.72,0,0,0-4.26,5.16c-2.24,3.22-3.88,7.79-1.22,11.29.38.51,1.25,0,.86-.5-2.45-3.23-.82-7.34,1.22-10.29a39,39,0,0,1,3.79-4.63c.67-.71,1.37-1.39,2.08-2.05s1.61-1.74,2.67-1.62c.64.07.64-.93,0-1Z" transform="translate(-0.01 -1.07)"/>
        <path class="cls-1" d="M26.05,160.3a14.88,14.88,0,0,0-.93,6.54,10.8,10.8,0,0,0,1.82,5.66c1.12,1.45,3.15,2.28,4.46.59s1.69-3.86,2-5.8a52.31,52.31,0,0,1,1.41-7.24c.19-.62-.77-.88-1-.27-1.13,3.5-1,7.27-2.28,10.73a5.5,5.5,0,0,1-1.27,2.29c-.81.68-1.88-.07-2.44-.72a9.1,9.1,0,0,1-1.74-5,14.34,14.34,0,0,1,.87-6.49c.23-.6-.73-.86-1-.27Z" transform="translate(-0.01 -1.07)"/>
        <path class="cls-1" d="M34.57,167.09a54.73,54.73,0,0,0-.91,6.75c0,.56.9.7,1,.14.22-1.54.44-3.07.79-4.58.16-.69.36-1.38.59-2.06a4.75,4.75,0,0,1,.9-1.88c.52-.49.7.44.79.81a16.07,16.07,0,0,1,0,7c-.14.62.82.89,1,.26a16.93,16.93,0,0,0,.4-4.32,15.37,15.37,0,0,0-.22-2.14,7.57,7.57,0,0,0-.46-1.89,1.38,1.38,0,0,0-1.15-.89A1.58,1.58,0,0,0,36,165a7.16,7.16,0,0,0-.83,1.8,21.21,21.21,0,0,0-.62,2.06c-.38,1.58-.62,3.2-.85,4.81l1,.13a52.68,52.68,0,0,1,.87-6.49c.13-.62-.83-.89-1-.26Z" transform="translate(-0.01 -1.07)"/>
        <path class="cls-1" d="M41.81,173.79a33.53,33.53,0,0,1,.87-7.79c.14-.63-.82-.9-1-.27a35.26,35.26,0,0,0-.9,8.06.5.5,0,0,0,1,0Z" transform="translate(-0.01 -1.07)"/>
        <path class="cls-1" d="M44.93,166.34a16.19,16.19,0,0,1,4.58-.85c.64,0,.64-1,0-1a16.69,16.69,0,0,0-4.85.89c-.6.2-.34,1.17.27,1Z" transform="translate(-0.01 -1.07)"/>
        <path class="cls-1" d="M47.35,161.27a80.58,80.58,0,0,0-1.61,12.08.5.5,0,0,0,.75.43l.44-.31c.53-.36,0-1.23-.5-.86l-.44.31.75.43a79.58,79.58,0,0,1,1.57-11.81c.14-.63-.83-.9-1-.27Z" transform="translate(-0.01 -1.07)"/>
        <path class="cls-1" d="M30.35,176a7.7,7.7,0,0,0-4.46,2,5.33,5.33,0,0,0-1.64,4.29A5.11,5.11,0,0,0,26.59,186a7.09,7.09,0,0,0,5.06.86c.63-.1.36-1.07-.27-1-2.54.41-5.87-.72-6.14-3.68s2.54-4.79,5.11-5.13c.63-.08.64-1.08,0-1Z" transform="translate(-0.01 -1.07)"/>
        <path class="cls-1" d="M34.78,186.24a17.55,17.55,0,0,1,.16-5,.5.5,0,0,0-1-.27,18.36,18.36,0,0,0-.2,5.23.51.51,0,0,0,.5.5.5.5,0,0,0,.5-.5Z" transform="translate(-0.01 -1.07)"/>
        <path class="cls-1" d="M36.36,182.11l0,4.61a.5.5,0,0,0,1,.13,12.25,12.25,0,0,1,1.32-3.35c.21-.35.49-.78.92-.88h.23l.09,0,.07,0a.4.4,0,0,1,.18.13c0-.05,0,.06,0,.07s0,.08,0,0a.51.51,0,0,0,.5.5.5.5,0,0,0,.5-.5,1.4,1.4,0,0,0-1.32-1.24,1.9,1.9,0,0,0-1.68.8,8,8,0,0,0-1.06,1.9,14.85,14.85,0,0,0-.75,2.25l1,.14,0-4.61a.5.5,0,0,0-1,0Z" transform="translate(-0.01 -1.07)"/>
        <path class="cls-1" d="M44.3,181.27A6,6,0,0,0,42.35,183a4.46,4.46,0,0,0-1,2.45,2.09,2.09,0,0,0,1.46,1.89,4.45,4.45,0,0,0,3-.24c.61-.19.35-1.16-.26-1a3.89,3.89,0,0,1-2.3.29,1.08,1.08,0,0,1-.84-1.22,4.89,4.89,0,0,1,2.4-3.11.5.5,0,0,0-.5-.86Z" transform="translate(-0.01 -1.07)"/>
        <path class="cls-1" d="M47.63,177.23c-.21,1.8-.37,3.6-.48,5.41,0,.89-.16,1.81-.12,2.7,0,.65.47,1.23,1.15.94s.08-1.12-.5-.87c.28.13.4.11.35-.07v-.17c0-.19,0-.39,0-.59s0-.68,0-1c0-.71.08-1.41.13-2.12.11-1.41.24-2.81.4-4.22.07-.63-.93-.63-1,0Z" transform="translate(-0.01 -1.07)"/>
        <path class="cls-1" d="M51.4,184.27a5.33,5.33,0,0,0,1.33-1,3.7,3.7,0,0,0,.9-1.39,1.11,1.11,0,0,0-.59-1.3,1.41,1.41,0,0,0-1.44.13,3.78,3.78,0,0,0-1.31,3,4.84,4.84,0,0,0,1.14,3.08,5.65,5.65,0,0,0,3.14,1.84c.62.14.89-.83.26-1a4.21,4.21,0,0,1-3.53-4.18,3.29,3.29,0,0,1,.41-1.4c.14-.24.5-.8.86-.62s-.31.84-.47,1a4.83,4.83,0,0,1-1.2,1c-.56.31-.06,1.17.5.86Z" transform="translate(-0.01 -1.07)"/>
      </g>
      <path class="cls-4" d="M143.8,33.2c0-.06,0-.27,0-.1s0-.07,0-.08-.1.18,0,.11a.25.25,0,0,1,0-.07s.05-.07.06-.09-.15.16-.05.07.2-.18.06-.07.05,0,.09,0l.08-.05c.1-.07-.2.07-.08,0a1.52,1.52,0,0,0,.2-.06l.12,0s-.22,0-.12,0h.2c.16,0-.22-.06,0,0l.09,0c.17,0-.15-.09,0,0s.21.1.2.12-.15-.14-.07-.06a.46.46,0,0,1,.07.07l.09.09c.07.07,0,0,0,0s0-.08,0,0l.09.14a.93.93,0,0,0,.1.2l0-.08,0,.09.06.23,0,.13c0,.13,0-.19,0-.06a2.57,2.57,0,0,1,0,.48s0,.26,0,.1,0,.11,0,.16a2,2,0,0,1-.08.22c-.05.17.09-.16,0,0a1.28,1.28,0,0,1-.11.2l-.06.09c0,.07-.14.12,0,0-.11.09-.2.22-.3.32l-.08.07c-.12.11,0,0,.05,0a1.64,1.64,0,0,0-.22.14,1,1,0,0,1-.17.1c-.14.08.19-.06,0,0a1.66,1.66,0,0,1-.21.06l-.09,0c-.11,0,.23,0,.05,0h-.22s-.07,0-.09,0,.2,0,.11,0l-.21-.06s.23.12.06,0l-.1,0a.3.3,0,0,0-.1-.07s.15.14.09.07a1.85,1.85,0,0,0-.14-.14c-.12-.12.1.17,0,0l-.12-.19c-.09-.15.06.2,0,0l-.06-.19s0-.06,0-.09,0,.23,0,.1,0-.14,0-.21,0-.13,0-.2,0,.22,0,.09,0-.05,0-.08a1.39,1.39,0,0,0,.06-.19c0-.1,0,.1-.05.1a.52.52,0,0,0,.06-.13l.1-.14c.06-.11-.15.14,0,.07l.06-.07.08-.08s-.17.11-.08.07l.2-.12c.07-.06-.09,0-.11,0a.36.36,0,0,0,.11,0l.17,0a.53.53,0,0,0,.12,0s-.22,0-.12,0h.23a.71.71,0,0,0,.2,0l.17.06c.13,0-.18-.1-.07,0l.1.06.18.1c.14.08-.16-.15,0,0a1.85,1.85,0,0,0,.14.14h0c-.1-.1,0,0,0,0s0,.15.08.16-.07-.23,0-.07l0,.09s0,.06,0,.09,0-.06,0-.08a1.07,1.07,0,0,0,0,.25s0,.06,0,.09,0-.1,0-.11,0,.16,0,.21a1,1,0,0,0-.07.21s.09-.19,0-.1l-.07.14c0,.07-.09.13-.12.19s0-.08.06-.08-.05.07-.06.07a1.14,1.14,0,0,1-.15.16l-.09.08s.18-.12.05-.05l-.19.11c-.08.06.09,0,.1,0l-.12,0c-.1,0-.18,0,0,0-.23,0,.18.06.21.08a.41.41,0,0,1,.16.16c-.06-.09,0-.08,0,0s0-.07,0-.09a2.17,2.17,0,0,1-.07-.24c0-.18,0,.18,0,0a2.53,2.53,0,0,1,0-.28.76.76,0,0,1,0-.14s0,.21,0,.1,0-.16,0-.24a1,1,0,0,0,0-.1c0-.13-.09.17,0,0s.1-.16.14-.24,0,.06-.06.07.05-.06.07-.08a1.45,1.45,0,0,0,.18-.17s-.19.12,0,0l.08,0s.08,0,.08-.05-.23.08,0,0a1.29,1.29,0,0,0,.21,0s-.21,0-.11,0h.09c.05,0,.29,0,.12,0s.09,0,.14,0l.09,0s-.19-.1-.07,0,.15.1.16.09-.16-.15-.06,0l.07.06s.13.09,0,0,0,0,0,0,0-.16,0,0,.06.28,0,.1,0,0,0,.09,0,.14,0,0,0,0,0,0l-.06.2c-.05.16.11-.18,0,0s-.12.16-.11.18.14-.15.07-.08a1,1,0,0,0-.1.11s-.12.08-.14.12.17-.11.06,0l-.08,0c-.18.11.16,0,0,0l-.09,0c-.15.05,0,0,.05,0a1.34,1.34,0,0,0-.2,0h-.14s.21.05.1,0a.86.86,0,0,0-.23-.06s.22.1,0,0l-.12-.07s-.24-.17-.13-.08l-.11-.1a.73.73,0,0,0-.14-.16s.13.2,0,0l-.07-.12c0-.05-.11-.26-.07-.14s0-.09,0-.14l0-.1c0-.11,0,.09,0,.1v-.24c.05.09,0,.2,0,.08s0-.06,0-.09l0-.09c0-.17,0,.06,0,.07s.09-.18.1-.19l0-.08c.09-.15-.11.1,0,0l.12-.13c.16-.17-.13.07,0,0s.23-.12.08-.06.08,0,.11,0-.13,0-.13,0h.1s-.24,0-.13,0,.06,0,.07,0-.23-.11-.08,0h0c-.11-.1,0,0,0,0s-.09-.14,0,0,0-.15,0,0,0,.14,0,.17,0-.2,0-.07v.09s0,.09,0,.13,0-.19,0-.07-.08.31-.13.46,0-.08,0-.08a.34.34,0,0,1-.06.12,2.12,2.12,0,0,1-.11.21s-.14.19-.14.21l0,0s-.1.12,0,0,0,0,0,0,.22,0,.05,0l.13,0c-.12,0,.26,0,.07,0,0,0,.22.09.12,0s.09.06.09.07l-.07-.08s.16.15.07.08,0-.07-.05-.07.06.2,0,.07a.24.24,0,0,0,0-.09c0-.1,0,.22,0,0v-.09c0-.1,0,.11,0,.12a.76.76,0,0,1,0-.11s-.1.17,0,.07a.41.41,0,0,0,.07-.11c0-.1,0,.06-.05.06s.17-.17.2-.2-.15.1,0,0l.21-.14.44-.25h-1c-.11-.1-.14-.12-.09-.07a.17.17,0,0,1,.06.06s-.17-.19,0,0,0,0,0-.07a1.09,1.09,0,0,0,.05.17c0,.16,0-.18,0-.07v.14c0,.17.05-.17,0-.06l0,.13c-.05.2.1-.21,0,0s.12-.12,0,0a.45.45,0,0,0-.1.09c.12-.08.15-.11.08-.07l-.08,0c0-.05.24-.07.05,0s.24,0,.07,0H144l.12,0a.32.32,0,0,0-.14,0c-.15,0,0-.07.05,0l-.13-.07c-.17-.1,0,0,0,0l-.12-.12c.05,0,.12.19,0,0s.06.22,0,.06,0,.25,0,0,0,.16,0,0,0,0,0,0a1.51,1.51,0,0,1,.1-.17s-.15.16,0,.05l.07-.06-.07,0s.14-.07.14-.08-.19.08,0,0-.23,0,0,0-.22-.05,0,0l-.73-1c0,.21.06-.18,0,0l0,.14c.06-.13.07-.15,0-.09s-.14.23-.05.1-.06.06-.08.08,0,0,.07,0l-.12.07-.06,0,.05,0s-.2,0-.2,0l.13,0h-.14c.14,0,.17,0,.1,0l-.1,0c-.2,0,.16.1,0,0l-.08,0c-.07,0,0,0,.06,0-.05,0-.11-.11-.15-.14s.07.15,0,0l-.06-.12,0,.11s-.06-.32,0-.13,0-.11,0-.15a1,1,0,0,0-1-1,1,1,0,0,0-1,1,2.34,2.34,0,1,0,4.67.16,1,1,0,0,0-.74-1,2.17,2.17,0,0,0-2.3.92,2,2,0,0,0,.12,2.4,2.17,2.17,0,0,0,2,.75,2,2,0,0,0,1.64-1.5,2.19,2.19,0,0,0-.89-2.34,1,1,0,0,0-1,0c-1,.51-2,1.33-1.89,2.54a2,2,0,0,0,1,1.59,1.67,1.67,0,0,0,2-.29,3.49,3.49,0,0,0,.84-1.44,2.83,2.83,0,0,0,.09-1.63,2,2,0,0,0-1.25-1.36,2,2,0,0,0-1.6.17,2.73,2.73,0,0,0-1.31,2.83,3.06,3.06,0,0,0,2.22,2.34A2.57,2.57,0,0,0,147,36.4a2.39,2.39,0,0,0-.39-3,2.69,2.69,0,0,0-3.14-.21,3,3,0,0,0-1.2,3.14,1.8,1.8,0,0,0,1.24,1.55,2.3,2.3,0,0,0,1.76-.43,3.14,3.14,0,0,0,1.32-2.72,2.78,2.78,0,0,0-1.9-2.42,2.89,2.89,0,0,0-2.84.5,2.85,2.85,0,0,0,1.22,4.8c2.19.42,4.18-1.79,3.95-3.91a3.17,3.17,0,0,0-1.64-2.64,2.61,2.61,0,0,0-3,.6,2.15,2.15,0,0,0-.56,1.53,1,1,0,0,0,1,1,1,1,0,0,0,1-1Z" transform="translate(-0.01 -1.07)"/>
      <path class="cls-4" d="M196.75,107.61c0-.25,0,.23,0,0l0,.12c.06-.09,0-.07,0,0,.18-.16-.18.12,0,0s-.19,0,0,0,.27,0,0,0H197c-.26,0-.05,0,0,0-.13-.06-.14-.06,0,0-.11-.09-.11-.1,0,0l.06.07c-.05-.08-.05-.07,0,0s.14.29.06.1a1.31,1.31,0,0,1,.09.28s.06.32,0,.12a3.84,3.84,0,0,1,0,.59c0,.1,0,.2,0,.29s0,.13,0,0l0,.19a5.09,5.09,0,0,1-.14.56,2.31,2.31,0,0,1-.1.28c.08-.19,0,.09,0,.1a2,2,0,0,1-.14.25s-.2.25-.06.09l-.19.2c-.13.14.1,0-.08.06a1.12,1.12,0,0,1-.24.13c.2-.08-.09,0-.11,0-.23.07.14,0-.09,0,0,0-.32,0-.09,0l-.27-.07c-.24-.06.13.09-.09,0l-.24-.14c-.1-.07-.1-.07,0,0l-.14-.13a1.29,1.29,0,0,1-.19-.21c-.19-.2.06.14-.08-.1l-.14-.25c-.14-.23,0,.15-.05-.11,0-.09,0-.18-.08-.28s0,.16,0-.14c0-.12,0-.23,0-.35a1.62,1.62,0,0,1,0-.22c0-.13,0-.15,0-.07a5.35,5.35,0,0,1,1.14-2.36c.21-.29-.12.11.1-.13l.21-.23c.18-.19-.1,0,.12-.09l.09,0c-.09,0-.08,0,0,0h-.08c.12,0,.12,0,0,0l.09,0c-.1,0-.09,0,0,0,.25.11-.11-.1.1.07s.09.1,0,0l.1.17c.16.24-.06-.15,0,.12s0-.09,0,.16a1.52,1.52,0,0,1-.07.57,5.06,5.06,0,0,1-.55,1.24c-.05.08-.1.17-.16.25s-.19.27-.08.13a2.27,2.27,0,0,1-.4.42c.15-.12-.1.05-.11.06-.25.16.16-.1-.11,0,0,0-.19,0,0,0-.1,0-.35-.06-.13,0-.06,0-.27-.11-.06,0l-.2-.12c.19.13,0,0,0,0s-.16-.24-.05,0l-.12-.21c-.12-.21,0,.17,0-.07l-.06-.23c0,.25,0-.08,0-.14,0,.25,0,0,0,0-.05.21,0,0,0-.06s-.13.1,0,0,.24-.19,0,0l.21-.13c.2-.13-.18,0,.05,0l.24-.07c.11,0,.11,0,0,0h.41c-.25,0,0,0,.06,0l.23.07c-.22-.09,0,0,.05,0,.21.1-.1-.13.06,0l.13.13c.17.18,0-.13.06.09a.89.89,0,0,1,.09.16c0-.1,0-.09,0,0s0,.18.07.27c.08.25,0-.17,0,.1v.28c0,.27,0-.16,0,.11l-.06.27s-.13.29,0,.11c0,.08-.09.16-.14.24s-.07.11,0,0l-.15.15c-.15.17.07,0-.12.11,0,0-.3.16-.14.07a.26.26,0,0,1-.28,0l-.14-.09c-.25-.15.06.07-.11-.09s-.11-.12-.17-.17-.07-.09,0,0l-.09-.13-.12-.21c-.12-.22.05.19,0,0s-.09-.31-.12-.47,0,.13,0,0a1.34,1.34,0,0,0,0-.2v-.25s0-.1,0-.16c0,.14,0,.14,0,0a2.49,2.49,0,0,1,.12-.47s.13-.27,0-.06a2.12,2.12,0,0,1,.11-.21l.12-.2c.14-.22-.13.12,0-.05l.17-.17.12-.11c-.1.08-.1.08,0,0l.21-.13c.11-.06.14-.07.08,0,.13,0,.16,0,.08,0l0,0c.11,0,.13,0,0,0a1,1,0,0,1,.17.1c-.07-.05-.06,0,0,0,.17.26,0-.15.06.09l.08.15c-.05-.11-.06-.11,0,0s.05.31,0,.06c0,.11,0,.22,0,.33s.07-.17,0,.07c0,0-.13.38,0,.16a1.19,1.19,0,0,1-.12.22s-.18.22,0,.06l-.18.18c.16-.15-.08,0-.13.08-.24.14.17-.12-.08,0s-.12,0,0,0h-.18s-.31,0-.08,0a2,2,0,0,1-.33-.09c.2.07-.05,0-.08-.05l-.15-.09c.08.07.08.06,0,0l-.18-.19c.14.16-.07-.11-.09-.15-.12-.2,0,.15,0-.08a1.36,1.36,0,0,1,0-.17c0,.11,0,.11,0,0,0-.28-.07.15,0-.11a1.21,1.21,0,0,1,.05-.18v0a1.94,1.94,0,0,1,.15-.24c-.11.14.13-.13.16-.16.18-.17-.12,0,.1-.07l.17-.09c-.1,0-.09,0,0,0s.32-.07.1,0a1.61,1.61,0,0,1,.38,0l-1-.73a7,7,0,0,1,.18,2.5,1.86,1.86,0,0,1-.21.74h0c-.06,0-.05,0,0,0l-.08.05c.09,0,.1,0,0,0s.11,0,.13,0c-.16,0,0,0,.07,0l.29.7a1.48,1.48,0,0,1,0-.21c0,.09,0,.07,0,0l0,0c-.06,0,0,0,0,0a1,1,0,0,0,0-1.42,1,1,0,0,0-1.41,0c-.7.73-1.09,2.13,0,2.76a1.92,1.92,0,0,0,2.39-.43,4.05,4.05,0,0,0,.76-2.46,8.46,8.46,0,0,0-.29-2.65,1,1,0,0,0-1-.74,3,3,0,0,0-3.07,2.27,2.83,2.83,0,0,0,1.75,3.23,2.75,2.75,0,0,0,3.43-1,3,3,0,0,0-.27-3.56,2.49,2.49,0,0,0-3.74.42,4.15,4.15,0,0,0-.88,3.27,3.4,3.4,0,0,0,2.13,2.74c1.51.54,3-.71,3.38-2.1a3.3,3.3,0,0,0-1.14-3.64,3.06,3.06,0,0,0-3.35,0,2.59,2.59,0,0,0-.84,3.41,2.51,2.51,0,0,0,3.38,1.12,5.4,5.4,0,0,0,2.28-3.28,3.19,3.19,0,0,0-.16-2.37,2.49,2.49,0,0,0-1.58-1.29c-1.61-.39-2.71,1.17-3.39,2.39a5,5,0,0,0-.58,4.07,3.66,3.66,0,0,0,3,2.43,3.16,3.16,0,0,0,3-2.12,5.17,5.17,0,0,0,.2-3.69,2.42,2.42,0,0,0-1.49-1.49,2.35,2.35,0,0,0-1.8.2,1.82,1.82,0,0,0-.93,1.58,1,1,0,1,0,2,0Z" transform="translate(-0.01 -1.07)"/>
      <g>
        <path class="cls-4" d="M146.78,39.07s.24.32.14.18l.24.31.45.64q.45.63.87,1.29c.56.88,1.07,1.79,1.54,2.72a1,1,0,0,0,1.36.36,1,1,0,0,0,.36-1.37,32.19,32.19,0,0,0-3.55-5.54,1,1,0,0,0-1.41,0,1,1,0,0,0,0,1.41Z" transform="translate(-0.01 -1.07)"/>
        <path class="cls-4" d="M153.66,48.16a44.74,44.74,0,0,0,4.91,6.15A1,1,0,0,0,160,52.9a40.62,40.62,0,0,1-4.59-5.75,1,1,0,1,0-1.73,1Z" transform="translate(-0.01 -1.07)"/>
        <path class="cls-4" d="M163.33,59.32a22,22,0,0,0,3.74,6.77,1,1,0,0,0,1.41,0,1,1,0,0,0,0-1.42,19.92,19.92,0,0,1-3.22-5.88,1,1,0,0,0-1.23-.7,1,1,0,0,0-.7,1.23Z" transform="translate(-0.01 -1.07)"/>
        <path class="cls-4" d="M169.86,68.92l4.47,5.38a1,1,0,0,0,1.41,0,1,1,0,0,0,0-1.41l-4.47-5.38a1,1,0,1,0-1.41,1.41Z" transform="translate(-0.01 -1.07)"/>
        <path class="cls-4" d="M177.56,79.15a36.29,36.29,0,0,0,4.21,7.06,1,1,0,0,0,1.37.36,1,1,0,0,0,.36-1.37,36.29,36.29,0,0,1-4.21-7.06,1,1,0,0,0-1.37-.36,1,1,0,0,0-.36,1.37Z" transform="translate(-0.01 -1.07)"/>
        <path class="cls-4" d="M184.11,90.93l1.65,3.56c.27.57.49,1.3,1.07,1.63a1.3,1.3,0,0,0,1.52-.19,1.21,1.21,0,0,0,.22-1.47,1,1,0,0,0-1.37-.36,1,1,0,0,0-.36,1.37l0,0-.14-.5a.75.75,0,0,1,.93-.71.51.51,0,0,1,.36.27s-.12-.21-.13-.23c-.09-.2-.18-.41-.28-.61L187,92.48l-1.2-2.55a1,1,0,0,0-1.37-.36,1,1,0,0,0-.35,1.36Z" transform="translate(-0.01 -1.07)"/>
        <path class="cls-4" d="M189.85,99.2q1.74,2.89,3.58,5.72a1,1,0,1,0,1.73-1l-.33-.74a1,1,0,0,0-1.37-.36,1,1,0,0,0-.36,1.37l.33.74,1.73-1q-1.84-2.82-3.58-5.72a1,1,0,0,0-1.73,1Z" transform="translate(-0.01 -1.07)"/>
      </g>
    </g>
  </g>
</svg>
