<svg xmlns="http://www.w3.org/2000/svg" viewBox="0 0 229.42 206.63">
  <defs>
    <style>
      .cls-1 {
        fill: #808285;
      }

      .cls-2 {
        fill: #00a651;
      }

      .cls-3 {
        fill: #231f20;
      }

      .cls-4 {
        fill: #00aeef;
      }

      .cls-5 {
        fill: #ed1c24;
      }
    </style>
  </defs>
  <title>exactly-evaluating-even-more-trig-functions-5</title>
  <g id="Layer_2" data-name="Layer 2">
    <g id="Layer_1-2" data-name="Layer 1">
      <g>
        <path class="cls-1" d="M108,10.37l4.32-7.81h-1.73a40.65,40.65,0,0,0,5.78,7.88c.88,1,2.29-.47,1.41-1.41a38.56,38.56,0,0,1-5.46-7.48,1,1,0,0,0-1.73,0l-4.31,7.81c-.63,1.13,1.1,2.14,1.72,1Z" transform="translate(-0.01 -1.07)"/>
        <path class="cls-1" d="M103.68,199.6l2.74,4.94c.66,1.18,1.64,3.92,3.48,3a12.19,12.19,0,0,0,2-1.71l2-1.79,2.1-1.84a5.86,5.86,0,0,0,1.47-1.81,1,1,0,0,0-.36-1.37,1,1,0,0,0-1.37.36c-.55,1.18-1.86,2-2.81,2.85l-3.46,3a3.65,3.65,0,0,0-.36.31c-.24.14-.24.2,0,.18s.23.06.17,0-.44-.78-.51-.9l-1.11-2-2.33-4.2a1,1,0,0,0-1.73,1Z" transform="translate(-0.01 -1.07)"/>
        <path class="cls-1" d="M110.77,3.78q.6,39.38.39,78.75-.21,39.18-1.24,78.35-.57,22.08-1.41,44.17c-.05,1.29,1.95,1.29,2,0q1.48-39.35,2.16-78.72.66-39.18.52-78.35-.07-22.09-.42-44.2a1,1,0,0,0-2,0Z" transform="translate(-0.01 -1.07)"/>
      </g>
      <g>
        <path class="cls-1" d="M2.11,109.56c21.3,1,42.61.94,63.92.16,10.27-.38,20.5-.52,30.76-.29q23,.51,46,.67,9.69,0,19.38,0,28.65,0,57.29.15l7.54,0a1,1,0,0,0,0-2q-30.28-.1-60.56-.16c-7.21,0-14.41,0-21.61,0q-22.12-.1-44.23-.6c-9.42-.21-18.81-.32-28.22,0-9.81.31-19.61.74-29.43.83q-17.43.17-34.86-.51l-6-.25c-1.29-.06-1.29,1.94,0,2Z" transform="translate(-0.01 -1.07)"/>
        <path class="cls-1" d="M220.27,105.68a19,19,0,0,1,4.48,2.3,18.06,18.06,0,0,1,1.87,1.5c.07.07.82.85.84.84.09-.32.07-.4-.05-.24l-.13.12c-.15.14-.31.26-.46.38-2.2,1.75-4.89,3.16-5.74,6a1,1,0,0,0,1.93.53,6.78,6.78,0,0,1,2.72-3.29c.65-.49,1.32-1,2-1.44s1.49-1,1.7-1.88c.25-1-.56-1.72-1.21-2.33a20.77,20.77,0,0,0-7.38-4.46c-1.22-.43-1.74,1.5-.53,1.93Z" transform="translate(-0.01 -1.07)"/>
        <path class="cls-1" d="M9.22,99.86c-1.6,1.15-3.16,2.36-4.65,3.64-.74.64-1.47,1.3-2.18,2a13,13,0,0,0-1.95,2,1.94,1.94,0,0,0,0,2.43,3.37,3.37,0,0,0,1.11.66l1.53.71,5.68,2.62a1,1,0,0,0,1.37-.36,1,1,0,0,0-.36-1.37L5,110l-2.41-1.1c-.12-.06-.4-.27-.52-.25s-.14,0,0,.17a.36.36,0,0,1,0-.09c.08,0,.13-.2.19-.27a6.25,6.25,0,0,1,.44-.45,59.92,59.92,0,0,1,7.56-6.4,1,1,0,0,0,.36-1.37,1,1,0,0,0-1.37-.36Z" transform="translate(-0.01 -1.07)"/>
      </g>
      <path class="cls-2" d="M143.6,79.38A29.74,29.74,0,0,0,136.16,69c-3.68-3.19-8.14-4.8-12.8-6-4.89-1.2-9.94-2.25-15-2.06A25,25,0,0,0,101,62.28a33,33,0,0,0-6.46,3.16A79.47,79.47,0,0,0,81.45,75.86c-.93.9.49,2.31,1.41,1.42a80.8,80.8,0,0,1,11-9c3.87-2.61,8-4.7,12.74-5.18s9.61.36,14.28,1.43c4.47,1,9,2.2,12.73,5a27.26,27.26,0,0,1,8.22,10.88,1,1,0,0,0,1.37.36,1,1,0,0,0,.36-1.37Z" transform="translate(-0.01 -1.07)"/>
      <path class="cls-3" d="M112,26.31a131.63,131.63,0,0,1,27.76,6.63,96.87,96.87,0,0,1,14.75,6.59A73.06,73.06,0,0,1,168.73,50.3a93.28,93.28,0,0,1,14.44,17.56c4.66,7.22,8.61,14.73,10.53,23.17a61,61,0,0,1-.85,29.59,85.79,85.79,0,0,1-7.12,17.47A61.42,61.42,0,0,1,166,160.25a72.06,72.06,0,0,1-11.67,6.28,106.59,106.59,0,0,1-13.73,5,96,96,0,0,1-26,3.58,101.29,101.29,0,0,1-16.22-1.31A85.19,85.19,0,0,1,71.91,165a83,83,0,0,1-20.3-14.9A61.64,61.64,0,0,1,36.5,124,74.69,74.69,0,0,1,34,98.2a89.23,89.23,0,0,1,3.06-17.7,83.61,83.61,0,0,1,4.6-12.66A70,70,0,0,1,80.78,31a69.35,69.35,0,0,1,19.9-5,58,58,0,0,1,11.33.37,1,1,0,0,0,1-1,1,1,0,0,0-1-1A58,58,0,0,0,100.45,24,59.15,59.15,0,0,0,89.1,26.08a85.14,85.14,0,0,0-21.93,9.51A71.22,71.22,0,0,0,45.42,56.94a80.3,80.3,0,0,0-8.79,18.24A91.82,91.82,0,0,0,33.31,88a85.86,85.86,0,0,0-1.16,23.35,67.2,67.2,0,0,0,8.67,27.81,67.55,67.55,0,0,0,19.09,20.56,89.32,89.32,0,0,0,26,13.15,97,97,0,0,0,21.43,3.89,98.13,98.13,0,0,0,19.46-.49,104.53,104.53,0,0,0,28.92-8.21A65.29,65.29,0,0,0,180,150.21a76.84,76.84,0,0,0,11.22-19,70.07,70.07,0,0,0,5.85-24.37A61.21,61.21,0,0,0,190.77,77a100.27,100.27,0,0,0-5.92-10.18C183,63.9,181,61.1,178.91,58.42A89,89,0,0,0,157.57,39a64.16,64.16,0,0,0-8-4.22,123.51,123.51,0,0,0-22.35-7.7A142.84,142.84,0,0,0,112,24.31a1,1,0,1,0,0,2Z" transform="translate(-0.01 -1.07)"/>
      <g>
        <path class="cls-4" d="M112.41,108.52c12.42-.23,24.84-.07,37.25.3s24.81.81,37.21,1.21l20.87.69c1.29,0,1.29-2,0-2l-37.27-1.22c-12.38-.41-24.77-.89-37.16-1q-10.45-.12-20.9.07a1,1,0,0,0,0,2Z" transform="translate(-0.01 -1.07)"/>
        <path class="cls-4" d="M200.31,104.44q2.13,1.11,4.15,2.4c.66.42,1.31.85,1.95,1.3.46.32,1.23.73,1.43,1.3s-.3,1.26-.58,1.73a13.66,13.66,0,0,1-1.11,1.62,13.31,13.31,0,0,1-1.44,1.56,9.58,9.58,0,0,1-.76.67,2.59,2.59,0,0,1-.74.55h.53l-.14,0,.59.46,0-.07.11.77v-.08l-.25.44,0-.07-.44.26.07,0-1-.26.06,0c1,.85,2.38-.56,1.41-1.41l-.05,0a1,1,0,0,0-1-.26,1.14,1.14,0,0,0,0,2.22c.94.21,1.91-.83,2.54-1.39a15.15,15.15,0,0,0,3.69-4.76,3.16,3.16,0,0,0,0-3.08,7.17,7.17,0,0,0-2.25-2,57.25,57.25,0,0,0-5.91-3.57c-1.14-.6-2.15,1.12-1,1.73Z" transform="translate(-0.01 -1.07)"/>
        <path class="cls-4" d="M113,107.75a8.52,8.52,0,0,1,1.5-1.5c.69-.6,1.39-1.19,2.09-1.78l4-3.4,8-6.79,16-13.6,31.72-27L194,38.46c1-.84-.44-2.25-1.41-1.42L160.72,64.22,128.81,91.4l-9,7.69-4.47,3.8a22.31,22.31,0,0,0-4.09,3.85c-.73,1.06,1,2.06,1.73,1Z" transform="translate(-0.01 -1.07)"/>
        <path class="cls-4" d="M183.23,38.13c3.25.09,6.51.09,9.76.26.4,0,.93,0,1,.48a9.26,9.26,0,0,1,.06,2.17,38.64,38.64,0,0,1-.34,4.93,1,1,0,0,0,.7,1.23,1,1,0,0,0,1.23-.7,41.68,41.68,0,0,0,.41-5.8,8.92,8.92,0,0,0-.18-2.53,2.42,2.42,0,0,0-1.67-1.59,8.61,8.61,0,0,0-2.43-.23L189,36.28l-5.8-.15a1,1,0,0,0,0,2Z" transform="translate(-0.01 -1.07)"/>
        <path class="cls-4" d="M134.28,88.91c6.91,3.68,7.63,12.41,8,19.33h2l-.08-.77a1,1,0,0,0-1-1,1,1,0,0,0-1,1l.08.77a1,1,0,0,0,1,1,1,1,0,0,0,1-1c-.25-4.29-.51-8.74-2.12-12.78a15.73,15.73,0,0,0-6.91-8.27c-1.14-.61-2.15,1.12-1,1.72Z" transform="translate(-0.01 -1.07)"/>
      </g>
      <g>
        <path class="cls-4" d="M150.07,83.68a71.76,71.76,0,0,0-.8,15.9c0,.64,1,.65,1,0A71.22,71.22,0,0,1,151,83.94c.1-.63-.86-.9-1-.26Z" transform="translate(-0.01 -1.07)"/>
        <path class="cls-4" d="M151,84.13a19.41,19.41,0,0,1,5-1.36,7.24,7.24,0,0,1,2.5.18c.71.19,1.79.58,2,1.37s-.78,1.56-1.27,2a13.64,13.64,0,0,1-1.92,1.54,14.19,14.19,0,0,1-4.53,2c-.58.15-.4.94.13,1a24.43,24.43,0,0,1,3.61.57c.7.16,2.65.39,2.66,1.41s-1.49,1.71-2.21,2.09a15.83,15.83,0,0,1-3.16,1.24.5.5,0,0,0,.27,1,17.09,17.09,0,0,0,4.06-1.72c1-.57,2.14-1.49,2-2.75s-1.43-1.69-2.47-2a26.84,26.84,0,0,0-4.79-.84l.14,1a15.25,15.25,0,0,0,7.52-4.41,2.51,2.51,0,0,0,.9-2.34c-.48-1.77-3-2.31-4.57-2.33a17.1,17.1,0,0,0-6.2,1.43c-.6.22-.34,1.19.27,1Z" transform="translate(-0.01 -1.07)"/>
      </g>
      <g>
        <path class="cls-5" d="M207.16,100.32c2.58,2.47,5.19,4.92,7.7,7.48l.35.36a1.08,1.08,0,0,0,.17.19c.09.17.12.11.1-.17l-.36.23-3.12,2-6.47,4.07c-1.09.68-.08,2.42,1,1.73l5.53-3.48,2.81-1.77c.79-.5,2-1,2.39-1.85.6-1.2-.51-2.2-1.28-3s-1.76-1.75-2.65-2.61c-1.58-1.54-3.17-3.06-4.77-4.58-.93-.89-2.35.52-1.41,1.41Z" transform="translate(-0.01 -1.07)"/>
        <path class="cls-5" d="M215.5,107.43a61,61,0,0,0-10.11-1.87,54,54,0,0,0-10.16.53c-3.38.41-6.76.77-10.16.9s-6.68.09-10,0c-13.37-.53-26.67-2.59-40.08-2.2a97.32,97.32,0,0,0-11.17,1c-3.73.53-7.57,1.17-11.3.34-1.25-.29-1.79,1.64-.53,1.92a28.1,28.1,0,0,0,10.1,0c3.31-.46,6.6-.91,9.93-1.1a153.72,153.72,0,0,1,20.13.41c13.33,1,26.72,2.66,40.09,1.16a89.88,89.88,0,0,1,11.35-1,51.3,51.3,0,0,1,11.4,1.86c1.25.31,1.78-1.62.53-1.92Z" transform="translate(-0.01 -1.07)"/>
        <path class="cls-5" d="M113.28,106.64a193,193,0,0,0-18.15-20q-3.87-3.7-7.95-7.19C85.83,78.32,84.44,77.2,83.1,76a123.69,123.69,0,0,1-9-8.74C69.77,62.7,65.69,57.87,61.73,53c-5.65-7-11-14.25-16.28-21.58-.76-1.06-1.52-2.13-2.27-3.2s-2.48,0-1.73,1c5.44,7.7,11,15.31,16.88,22.7,4.14,5.24,8.41,10.38,12.92,15.29,3,3.27,6.12,6.45,9.44,9.41,3.54,3.15,7.23,6.1,10.71,9.32a192.75,192.75,0,0,1,19,20.35l1.44,1.8a1,1,0,0,0,1.41,0,1,1,0,0,0,0-1.41Z" transform="translate(-0.01 -1.07)"/>
        <path class="cls-5" d="M45.48,41.61a83.52,83.52,0,0,1-2.7-13.2l-1,1A33.65,33.65,0,0,1,53,33c1.14.6,2.15-1.13,1-1.73a36.39,36.39,0,0,0-12.2-3.86,1,1,0,0,0-1,1,86.53,86.53,0,0,0,2.77,13.73,1,1,0,0,0,1.93-.53Z" transform="translate(-0.01 -1.07)"/>
        <path class="cls-5" d="M95.85,88.56a3.49,3.49,0,0,1,1.54-.76c.71-.22,1.42-.42,2.14-.58a27.42,27.42,0,0,1,4.33-.65,28.3,28.3,0,0,1,8.75.73,23.89,23.89,0,0,1,7.77,3.31,14.7,14.7,0,0,1,5.07,6.08,41.06,41.06,0,0,1,2.6,8.76c.27,1.26,2.2.73,1.93-.53a46.48,46.48,0,0,0-2.47-8.5,17,17,0,0,0-5.29-6.94c-4.9-3.74-11.62-5.23-17.7-5a30.67,30.67,0,0,0-5.31.71c-.9.2-1.79.45-2.67.74a4.7,4.7,0,0,0-2.1,1.17c-.88.94.53,2.36,1.41,1.41Z" transform="translate(-0.01 -1.07)"/>
      </g>
      <path class="cls-5" d="M130.76,75.1a20.54,20.54,0,0,1-6.2,6.93c-2.46,1.56-5.91,2.3-8.54.68a3.34,3.34,0,0,1-1.78-3.37,3.82,3.82,0,0,1,2.54-2.54c2.9-1.1,6.33-.08,8.88,1.42a28.46,28.46,0,0,1,7.68,7.4c.39.5,1.1-.21.71-.71a29,29,0,0,0-7.88-7.55c-2.82-1.66-6.63-2.73-9.81-1.47a5.07,5.07,0,0,0-2.91,2.65,3.89,3.89,0,0,0,.8,4c2.22,2.55,6.23,2.48,9.1,1.27,3.68-1.55,6.24-4.88,8.27-8.18.34-.55-.52-1-.86-.51Z" transform="translate(-0.01 -1.07)"/>
      <g>
        <path class="cls-2" d="M88.61,53.71,83.2,56.38c-1.39.69-3.44,1.84-4.9.65A2,2,0,0,1,77.78,55a2.62,2.62,0,0,1,1.65-1.66c1.75-.65,3.6.15,5.1,1.05a7.45,7.45,0,0,1,3.59,4,.5.5,0,0,0,1-.26,8.17,8.17,0,0,0-3.69-4.37c-1.77-1.13-4-2.09-6.08-1.42a3.48,3.48,0,0,0-2.49,4.27c.67,2,3,2.25,4.78,1.64a34.55,34.55,0,0,0,3.64-1.72l3.86-1.91c.58-.28.07-1.15-.5-.86Z" transform="translate(-0.01 -1.07)"/>
        <path class="cls-2" d="M93,55.09l4.82-1a.52.52,0,0,0,.35-.62.51.51,0,0,0-.62-.34l-4.82.95a.5.5,0,0,0,.27,1Z" transform="translate(-0.01 -1.07)"/>
        <path class="cls-2" d="M102.19,50.63a39.36,39.36,0,0,0-1.6,10.28.5.5,0,0,0,1,0,38.64,38.64,0,0,1,1.56-10,.5.5,0,0,0-1-.26Z" transform="translate(-0.01 -1.07)"/>
        <path class="cls-2" d="M102.72,51.29l2.18,0c.19,0,.69-.1.86,0s0,.21,0,.31c-.17.41-.6.56-1,.74a2.41,2.41,0,0,0-1.21,1,.51.51,0,0,0,.43.76,1.4,1.4,0,1,1,.14,2.79c-.64,0-.64,1,0,1a2.4,2.4,0,1,0-.14-4.79l.43.75c.29-.53,1-.65,1.47-1a1.87,1.87,0,0,0,.91-1.53c0-.75-.67-1.1-1.34-1.11-.91,0-1.83,0-2.74,0a.5.5,0,0,0,0,1Z" transform="translate(-0.01 -1.07)"/>
      </g>
      <g>
        <path class="cls-1" d="M27.55,136.92l4.32.29c.64,0,1.29.07,1.93.16a4.09,4.09,0,0,1,1.87.6c.47.38,0,1.46-.11,2l-.47,2.16-1,4.34c-.14.62.82.89,1,.26l1.08-4.92c.19-.86.38-1.71.56-2.56a1.87,1.87,0,0,0-.23-1.83c-.93-1-2.71-1-4-1.12l-5-.34c-.65,0-.64,1,0,1Z" transform="translate(-0.01 -1.07)"/>
        <path class="cls-1" d="M35.24,137.63a3.67,3.67,0,0,0-2.71,1.31c-.84.74-1.65,1.52-2.43,2.33a39.72,39.72,0,0,0-4.26,5.16c-2.24,3.22-3.88,7.79-1.22,11.29.38.51,1.25,0,.86-.5-2.45-3.23-.82-7.34,1.22-10.29a39,39,0,0,1,3.79-4.63c.67-.71,1.37-1.39,2.08-2.05s1.61-1.74,2.67-1.62c.64.07.64-.93,0-1Z" transform="translate(-0.01 -1.07)"/>
        <path class="cls-1" d="M26.05,160.3a14.88,14.88,0,0,0-.93,6.54,10.8,10.8,0,0,0,1.82,5.66c1.12,1.45,3.15,2.28,4.46.59s1.69-3.86,2-5.8a52.31,52.31,0,0,1,1.41-7.24c.19-.62-.77-.88-1-.27-1.13,3.5-1,7.27-2.28,10.73a5.5,5.5,0,0,1-1.27,2.29c-.81.68-1.88-.07-2.44-.72a9.1,9.1,0,0,1-1.74-5,14.34,14.34,0,0,1,.87-6.49c.23-.6-.73-.86-1-.27Z" transform="translate(-0.01 -1.07)"/>
        <path class="cls-1" d="M34.57,167.09a54.73,54.73,0,0,0-.91,6.75c0,.56.9.7,1,.14.22-1.54.44-3.07.79-4.58.16-.69.36-1.38.59-2.06a4.75,4.75,0,0,1,.9-1.88c.52-.49.7.44.79.81a16.07,16.07,0,0,1,0,7c-.14.62.82.89,1,.26a16.93,16.93,0,0,0,.4-4.32,15.37,15.37,0,0,0-.22-2.14,7.57,7.57,0,0,0-.46-1.89,1.38,1.38,0,0,0-1.15-.89A1.58,1.58,0,0,0,36,165a7.16,7.16,0,0,0-.83,1.8,21.21,21.21,0,0,0-.62,2.06c-.38,1.58-.62,3.2-.85,4.81l1,.13a52.68,52.68,0,0,1,.87-6.49c.13-.62-.83-.89-1-.26Z" transform="translate(-0.01 -1.07)"/>
        <path class="cls-1" d="M41.81,173.79a33.53,33.53,0,0,1,.87-7.79c.14-.63-.82-.9-1-.27a35.26,35.26,0,0,0-.9,8.06.5.5,0,0,0,1,0Z" transform="translate(-0.01 -1.07)"/>
        <path class="cls-1" d="M44.93,166.34a16.19,16.19,0,0,1,4.58-.85c.64,0,.64-1,0-1a16.69,16.69,0,0,0-4.85.89c-.6.2-.34,1.17.27,1Z" transform="translate(-0.01 -1.07)"/>
        <path class="cls-1" d="M47.35,161.27a80.58,80.58,0,0,0-1.61,12.08.5.5,0,0,0,.75.43l.44-.31c.53-.36,0-1.23-.5-.86l-.44.31.75.43a79.58,79.58,0,0,1,1.57-11.81c.14-.63-.83-.9-1-.27Z" transform="translate(-0.01 -1.07)"/>
        <path class="cls-1" d="M30.35,176a7.7,7.7,0,0,0-4.46,2,5.33,5.33,0,0,0-1.64,4.29A5.11,5.11,0,0,0,26.59,186a7.09,7.09,0,0,0,5.06.86c.63-.1.36-1.07-.27-1-2.54.41-5.87-.72-6.14-3.68s2.54-4.79,5.11-5.13c.63-.08.64-1.08,0-1Z" transform="translate(-0.01 -1.07)"/>
        <path class="cls-1" d="M34.78,186.24a17.55,17.55,0,0,1,.16-5,.5.5,0,0,0-1-.27,18.36,18.36,0,0,0-.2,5.23.51.51,0,0,0,.5.5.5.5,0,0,0,.5-.5Z" transform="translate(-0.01 -1.07)"/>
        <path class="cls-1" d="M36.36,182.11l0,4.61a.5.5,0,0,0,1,.13,12.25,12.25,0,0,1,1.32-3.35c.21-.35.49-.78.92-.88h.23l.09,0,.07,0a.4.4,0,0,1,.18.13c0-.05,0,.06,0,.07s0,.08,0,0a.51.51,0,0,0,.5.5.5.5,0,0,0,.5-.5,1.4,1.4,0,0,0-1.32-1.24,1.9,1.9,0,0,0-1.68.8,8,8,0,0,0-1.06,1.9,14.85,14.85,0,0,0-.75,2.25l1,.14,0-4.61a.5.5,0,0,0-1,0Z" transform="translate(-0.01 -1.07)"/>
        <path class="cls-1" d="M44.3,181.27A6,6,0,0,0,42.35,183a4.46,4.46,0,0,0-1,2.45,2.09,2.09,0,0,0,1.46,1.89,4.45,4.45,0,0,0,3-.24c.61-.19.35-1.16-.26-1a3.89,3.89,0,0,1-2.3.29,1.08,1.08,0,0,1-.84-1.22,4.89,4.89,0,0,1,2.4-3.11.5.5,0,0,0-.5-.86Z" transform="translate(-0.01 -1.07)"/>
        <path class="cls-1" d="M47.63,177.23c-.21,1.8-.37,3.6-.48,5.41,0,.89-.16,1.81-.12,2.7,0,.65.47,1.23,1.15.94s.08-1.12-.5-.87c.28.13.4.11.35-.07v-.17c0-.19,0-.39,0-.59s0-.68,0-1c0-.71.08-1.41.13-2.12.11-1.41.24-2.81.4-4.22.07-.63-.93-.63-1,0Z" transform="translate(-0.01 -1.07)"/>
        <path class="cls-1" d="M51.4,184.27a5.33,5.33,0,0,0,1.33-1,3.7,3.7,0,0,0,.9-1.39,1.11,1.11,0,0,0-.59-1.3,1.41,1.41,0,0,0-1.44.13,3.78,3.78,0,0,0-1.31,3,4.84,4.84,0,0,0,1.14,3.08,5.65,5.65,0,0,0,3.14,1.84c.62.14.89-.83.26-1a4.21,4.21,0,0,1-3.53-4.18,3.29,3.29,0,0,1,.41-1.4c.14-.24.5-.8.86-.62s-.31.84-.47,1a4.83,4.83,0,0,1-1.2,1c-.56.31-.06,1.17.5.86Z" transform="translate(-0.01 -1.07)"/>
      </g>
    </g>
  </g>
</svg>
