<svg xmlns="http://www.w3.org/2000/svg" viewBox="0 0 229.42 206.63">
  <defs>
    <style>
      .cls-1 {
        fill: #808285;
      }

      .cls-2 {
        fill: #00aeef;
      }

      .cls-3 {
        fill: #ed1c24;
      }
    </style>
  </defs>
  <title>exactly-evaluating-even-more-trig-functions-2</title>
  <g id="Layer_2" data-name="Layer 2">
    <g id="Layer_1-2" data-name="Layer 1">
      <g>
        <path class="cls-1" d="M108,10.37l4.32-7.81h-1.73a40.65,40.65,0,0,0,5.78,7.88c.88,1,2.29-.47,1.41-1.41a38.56,38.56,0,0,1-5.46-7.48,1,1,0,0,0-1.73,0l-4.31,7.81c-.63,1.13,1.1,2.14,1.72,1Z" transform="translate(-0.01 -1.07)"/>
        <path class="cls-1" d="M103.68,199.6l2.74,4.94c.66,1.18,1.64,3.92,3.48,3a12.19,12.19,0,0,0,2-1.71l2-1.79,2.1-1.84a5.86,5.86,0,0,0,1.47-1.81,1,1,0,0,0-.36-1.37,1,1,0,0,0-1.37.36c-.55,1.18-1.86,2-2.81,2.85l-3.46,3a3.65,3.65,0,0,0-.36.31c-.24.14-.24.2,0,.18s.23.06.17,0-.44-.78-.51-.9l-1.11-2-2.33-4.2a1,1,0,0,0-1.73,1Z" transform="translate(-0.01 -1.07)"/>
        <path class="cls-1" d="M110.77,3.78q.6,39.38.39,78.75-.21,39.18-1.24,78.35-.57,22.08-1.41,44.17c-.05,1.29,1.95,1.29,2,0q1.48-39.35,2.16-78.72.66-39.18.52-78.35-.07-22.09-.42-44.2a1,1,0,0,0-2,0Z" transform="translate(-0.01 -1.07)"/>
      </g>
      <g>
        <path class="cls-1" d="M2.11,109.56c21.3,1,42.61.94,63.92.16,10.27-.38,20.5-.52,30.76-.29q23,.51,46,.67,9.69,0,19.38,0,28.65,0,57.29.15l7.54,0a1,1,0,0,0,0-2q-30.28-.1-60.56-.16c-7.21,0-14.41,0-21.61,0q-22.12-.1-44.23-.6c-9.42-.21-18.81-.32-28.22,0-9.81.31-19.61.74-29.43.83q-17.43.17-34.86-.51l-6-.25c-1.29-.06-1.29,1.94,0,2Z" transform="translate(-0.01 -1.07)"/>
        <path class="cls-1" d="M220.27,105.68a19,19,0,0,1,4.48,2.3,18.06,18.06,0,0,1,1.87,1.5c.07.07.82.85.84.84.09-.32.07-.4-.05-.24l-.13.12c-.15.14-.31.26-.46.38-2.2,1.75-4.89,3.16-5.74,6a1,1,0,0,0,1.93.53,6.78,6.78,0,0,1,2.72-3.29c.65-.49,1.32-1,2-1.44s1.49-1,1.7-1.88c.25-1-.56-1.72-1.21-2.33a20.77,20.77,0,0,0-7.38-4.46c-1.22-.43-1.74,1.5-.53,1.93Z" transform="translate(-0.01 -1.07)"/>
        <path class="cls-1" d="M9.22,99.86c-1.6,1.15-3.16,2.36-4.65,3.64-.74.64-1.47,1.3-2.18,2a13,13,0,0,0-1.95,2,1.94,1.94,0,0,0,0,2.43,3.37,3.37,0,0,0,1.11.66l1.53.71,5.68,2.62a1,1,0,0,0,1.37-.36,1,1,0,0,0-.36-1.37L5,110l-2.41-1.1c-.12-.06-.4-.27-.52-.25s-.14,0,0,.17a.36.36,0,0,1,0-.09c.08,0,.13-.2.19-.27a6.25,6.25,0,0,1,.44-.45,59.92,59.92,0,0,1,7.56-6.4,1,1,0,0,0,.36-1.37,1,1,0,0,0-1.37-.36Z" transform="translate(-0.01 -1.07)"/>
      </g>
      <g>
        <path class="cls-2" d="M112.41,108.52c12.42-.23,24.84-.07,37.25.3s24.81.81,37.21,1.21l20.87.69c1.29,0,1.29-2,0-2l-37.27-1.22c-12.38-.41-24.77-.89-37.16-1q-10.45-.12-20.9.07a1,1,0,0,0,0,2Z" transform="translate(-0.01 -1.07)"/>
        <path class="cls-2" d="M200.31,104.44q2.13,1.11,4.15,2.4c.66.42,1.31.85,1.95,1.3.46.32,1.23.73,1.43,1.3s-.3,1.26-.58,1.73a13.66,13.66,0,0,1-1.11,1.62,13.31,13.31,0,0,1-1.44,1.56,9.58,9.58,0,0,1-.76.67,2.59,2.59,0,0,1-.74.55h.53l-.14,0,.59.46,0-.07.11.77v-.08l-.25.44,0-.07-.44.26.07,0-1-.26.06,0c1,.85,2.38-.56,1.41-1.41l-.05,0a1,1,0,0,0-1-.26,1.14,1.14,0,0,0,0,2.22c.94.21,1.91-.83,2.54-1.39a15.15,15.15,0,0,0,3.69-4.76,3.16,3.16,0,0,0,0-3.08,7.17,7.17,0,0,0-2.25-2,57.25,57.25,0,0,0-5.91-3.57c-1.14-.6-2.15,1.12-1,1.73Z" transform="translate(-0.01 -1.07)"/>
        <path class="cls-2" d="M113,107.75a8.52,8.52,0,0,1,1.5-1.5c.69-.6,1.39-1.19,2.09-1.78l4-3.4,8-6.79,16-13.6,31.72-27L194,38.46c1-.84-.44-2.25-1.41-1.42L160.72,64.22,128.81,91.4l-9,7.69-4.47,3.8a22.31,22.31,0,0,0-4.09,3.85c-.73,1.06,1,2.06,1.73,1Z" transform="translate(-0.01 -1.07)"/>
        <path class="cls-2" d="M183.23,38.13c3.25.09,6.51.09,9.76.26.4,0,.93,0,1,.48a9.26,9.26,0,0,1,.06,2.17,38.64,38.64,0,0,1-.34,4.93,1,1,0,0,0,.7,1.23,1,1,0,0,0,1.23-.7,41.68,41.68,0,0,0,.41-5.8,8.92,8.92,0,0,0-.18-2.53,2.42,2.42,0,0,0-1.67-1.59,8.61,8.61,0,0,0-2.43-.23L189,36.28l-5.8-.15a1,1,0,0,0,0,2Z" transform="translate(-0.01 -1.07)"/>
        <path class="cls-2" d="M134.28,88.91c6.91,3.68,7.63,12.41,8,19.33h2l-.08-.77a1,1,0,0,0-1-1,1,1,0,0,0-1,1l.08.77a1,1,0,0,0,1,1,1,1,0,0,0,1-1c-.25-4.29-.51-8.74-2.12-12.78a15.73,15.73,0,0,0-6.91-8.27c-1.14-.61-2.15,1.12-1,1.72Z" transform="translate(-0.01 -1.07)"/>
      </g>
      <g>
        <path class="cls-2" d="M150.07,83.68a71.76,71.76,0,0,0-.8,15.9c0,.64,1,.65,1,0A71.22,71.22,0,0,1,151,83.94c.1-.63-.86-.9-1-.26Z" transform="translate(-0.01 -1.07)"/>
        <path class="cls-2" d="M151,84.13a19.41,19.41,0,0,1,5-1.36,7.24,7.24,0,0,1,2.5.18c.71.19,1.79.58,2,1.37s-.78,1.56-1.27,2a13.64,13.64,0,0,1-1.92,1.54,14.19,14.19,0,0,1-4.53,2c-.58.15-.4.94.13,1a24.43,24.43,0,0,1,3.61.57c.7.16,2.65.39,2.66,1.41s-1.49,1.71-2.21,2.09a15.83,15.83,0,0,1-3.16,1.24.5.5,0,0,0,.27,1,17.09,17.09,0,0,0,4.06-1.72c1-.57,2.14-1.49,2-2.75s-1.43-1.69-2.47-2a26.84,26.84,0,0,0-4.79-.84l.14,1a15.25,15.25,0,0,0,7.52-4.41,2.51,2.51,0,0,0,.9-2.34c-.48-1.77-3-2.31-4.57-2.33a17.1,17.1,0,0,0-6.2,1.43c-.6.22-.34,1.19.27,1Z" transform="translate(-0.01 -1.07)"/>
      </g>
      <g>
        <path class="cls-3" d="M207.16,100.32c2.58,2.47,5.19,4.92,7.7,7.48l.35.36a1.08,1.08,0,0,0,.17.19c.09.17.12.11.1-.17l-.36.23-3.12,2-6.47,4.07c-1.09.68-.08,2.42,1,1.73l5.53-3.48,2.81-1.77c.79-.5,2-1,2.39-1.85.6-1.2-.51-2.2-1.28-3s-1.76-1.75-2.65-2.61c-1.58-1.54-3.17-3.06-4.77-4.58-.93-.89-2.35.52-1.41,1.41Z" transform="translate(-0.01 -1.07)"/>
        <path class="cls-3" d="M215.5,107.43a61,61,0,0,0-10.11-1.87,54,54,0,0,0-10.16.53c-3.38.41-6.76.77-10.16.9s-6.68.09-10,0c-13.37-.53-26.67-2.59-40.08-2.2a97.32,97.32,0,0,0-11.17,1c-3.73.53-7.57,1.17-11.3.34-1.25-.29-1.79,1.64-.53,1.92a28.1,28.1,0,0,0,10.1,0c3.31-.46,6.6-.91,9.93-1.1a153.72,153.72,0,0,1,20.13.41c13.33,1,26.72,2.66,40.09,1.16a89.88,89.88,0,0,1,11.35-1,51.3,51.3,0,0,1,11.4,1.86c1.25.31,1.78-1.62.53-1.92Z" transform="translate(-0.01 -1.07)"/>
        <path class="cls-3" d="M113.28,106.64a193,193,0,0,0-18.15-20q-3.87-3.7-7.95-7.19C85.83,78.32,84.44,77.2,83.1,76a123.69,123.69,0,0,1-9-8.74C69.77,62.7,65.69,57.87,61.73,53c-5.65-7-11-14.25-16.28-21.58-.76-1.06-1.52-2.13-2.27-3.2s-2.48,0-1.73,1c5.44,7.7,11,15.31,16.88,22.7,4.14,5.24,8.41,10.38,12.92,15.29,3,3.27,6.12,6.45,9.44,9.41,3.54,3.15,7.23,6.1,10.71,9.32a192.75,192.75,0,0,1,19,20.35l1.44,1.8a1,1,0,0,0,1.41,0,1,1,0,0,0,0-1.41Z" transform="translate(-0.01 -1.07)"/>
        <path class="cls-3" d="M45.48,41.61a83.52,83.52,0,0,1-2.7-13.2l-1,1A33.65,33.65,0,0,1,53,33c1.14.6,2.15-1.13,1-1.73a36.39,36.39,0,0,0-12.2-3.86,1,1,0,0,0-1,1,86.53,86.53,0,0,0,2.77,13.73,1,1,0,0,0,1.93-.53Z" transform="translate(-0.01 -1.07)"/>
        <path class="cls-3" d="M95.85,88.56a3.49,3.49,0,0,1,1.54-.76c.71-.22,1.42-.42,2.14-.58a27.42,27.42,0,0,1,4.33-.65,28.3,28.3,0,0,1,8.75.73,23.89,23.89,0,0,1,7.77,3.31,14.7,14.7,0,0,1,5.07,6.08,41.06,41.06,0,0,1,2.6,8.76c.27,1.26,2.2.73,1.93-.53a46.48,46.48,0,0,0-2.47-8.5,17,17,0,0,0-5.29-6.94c-4.9-3.74-11.62-5.23-17.7-5a30.67,30.67,0,0,0-5.31.71c-.9.2-1.79.45-2.67.74a4.7,4.7,0,0,0-2.1,1.17c-.88.94.53,2.36,1.41,1.41Z" transform="translate(-0.01 -1.07)"/>
      </g>
      <path class="cls-3" d="M130.76,75.1a20.54,20.54,0,0,1-6.2,6.93c-2.46,1.56-5.91,2.3-8.54.68a3.34,3.34,0,0,1-1.78-3.37,3.82,3.82,0,0,1,2.54-2.54c2.9-1.1,6.33-.08,8.88,1.42a28.46,28.46,0,0,1,7.68,7.4c.39.5,1.1-.21.71-.71a29,29,0,0,0-7.88-7.55c-2.82-1.66-6.63-2.73-9.81-1.47a5.07,5.07,0,0,0-2.91,2.65,3.89,3.89,0,0,0,.8,4c2.22,2.55,6.23,2.48,9.1,1.27,3.68-1.55,6.24-4.88,8.27-8.18.34-.55-.52-1-.86-.51Z" transform="translate(-0.01 -1.07)"/>
    </g>
  </g>
</svg>
