<?xml version="1.0" encoding="UTF-8"?>
<svg id="Layer_2" xmlns="http://www.w3.org/2000/svg" viewBox="0 0 273.11 207.63">
  <defs>
    <style>
      .cls-1 {
        fill: #231f20;
      }

      .cls-2 {
        fill: #ed1c24;
      }

      .cls-3 {
        fill: #a6a8ab;
      }

      .cls-4 {
        fill: #ec1c24;
      }
    </style>
  </defs>
  <g id="Layer_1-2" data-name="Layer_1">
    <g>
      <path class="cls-3" d="M260.71,132.64c2.03-1.75,4.02-3.53,5.98-5.35s3.97-3.64,5.78-5.6c.87-.94.77-2.02-.25-2.77-.24-.17-.48-.34-.72-.51-1.15-.83-2.3-1.65-3.45-2.48-2.19-1.58-4.38-3.15-6.58-4.72-.44-.32-1.11-.08-1.37.36-.29.5-.08,1.05.36,1.37,2.5,1.8,5.01,3.6,7.51,5.39.75.54,1.49,1.07,2.24,1.61.23.16.45.32.68.49.07.05.15.12.23.17.2.11-.04.06-.03-.07l.14-.5c-.24.53-.86.96-1.27,1.37-.48.48-.97.96-1.46,1.43-1,.98-2.02,1.94-3.04,2.9-2.01,1.88-4.07,3.72-6.15,5.52-.98.84.44,2.25,1.41,1.41h0Z"/>
      <path class="cls-3" d="M14.83,107.75c-4.18,1.8-8.16,4.07-11.84,6.75-.84.61-1.91,1.23-2.56,2.05-.73.91-.4,1.95.33,2.74,1.65,1.78,3.44,3.45,5.2,5.13,1.97,1.88,3.97,3.71,6.01,5.52.96.85,2.38-.56,1.41-1.41-3.3-2.92-6.5-5.93-9.62-9.04-.37-.37-.74-.74-1.1-1.11-.17-.17-.34-.42-.54-.55-.03-.02-.07-.07-.09-.1-.05-.09-.08.15-.02.06.21-.31.69-.57.99-.8.45-.34.91-.68,1.37-1.01,1.69-1.21,3.43-2.34,5.23-3.37,2.02-1.16,4.1-2.19,6.24-3.11.5-.21.61-.94.36-1.37-.3-.51-.87-.57-1.37-.36h0Z"/>
      <path class="cls-3" d="M.94,118.02c19.62,4.56,39.95,3.79,59.95,3.7,17.75-.09,35.49-.09,53.24-.14,17.39-.05,34.79-.17,52.18-.45,14.27-.23,28.55-.41,42.82-.36,18.25.05,36.49.37,54.73.94,2.57.08,5.14.17,7.71.26,1.29.05,1.29-1.95,0-2-18.71-.66-37.44-1.05-56.16-1.17-14.05-.09-28.09-.02-42.14.22-17.52.29-35.03.48-52.55.54s-34.52.06-51.78.12c-9.99.04-19.99.19-29.98.09s-20.2-.54-30.16-2.21c-2.46-.41-4.9-.9-7.33-1.47-1.25-.29-1.79,1.64-.53,1.93h0Z"/>
    </g>
    <g>
      <path class="cls-3" d="M94.39,25.75c1.75-3.84,3.8-7.52,6.14-11.03.58-.86,1.17-1.72,1.78-2.56.3-.41.59-.84.91-1.23.05-.06.18-.22.21-.24-.03.02-.17-.07-.09,0,.1.07.18.16.26.26,1.48,1.7,2.8,3.56,4.19,5.33,1.62,2.06,3.24,4.12,4.86,6.19.33.43,1.06.35,1.41,0,.42-.42.33-.99,0-1.41-1.57-2-3.13-3.99-4.7-5.99-.77-.98-1.54-1.96-2.31-2.95-.39-.49-.77-.98-1.16-1.47-.35-.45-.68-.96-1.1-1.35-.81-.73-1.94-.78-2.76-.02s-1.38,1.77-1.99,2.64c-1.35,1.91-2.61,3.87-3.79,5.89-1.31,2.25-2.51,4.57-3.59,6.95-.22.49-.14,1.08.36,1.37.43.25,1.14.14,1.37-.36h0Z"/>
      <path class="cls-3" d="M98.37,197.82c.62,1.73,1.33,3.43,2.14,5.08.38.77.78,1.53,1.2,2.28.39.69.79,1.59,1.39,2.12.43.38,1.05.44,1.54.13.36-.23.58-.62.81-.97.5-.77.99-1.55,1.47-2.33,1-1.63,1.97-3.28,2.9-4.95.63-1.12-1.1-2.13-1.73-1.01-.76,1.35-1.53,2.68-2.33,4-.38.63-.77,1.26-1.16,1.88-.19.31-.39.62-.59.93-.11.17-.36.7-.49.77l.5-.14h.04c.15.09.29.18.44.27-.25-.2-.4-.56-.56-.84-.2-.34-.4-.68-.6-1.03-.41-.72-.79-1.46-1.16-2.2-.72-1.47-1.35-2.98-1.9-4.52-.18-.51-.68-.85-1.23-.7-.49.13-.88.72-.7,1.23h0Z"/>
      <path class="cls-3" d="M102.17,10.26c-.36,25.35-.5,50.7-.44,76.05.07,25.22.35,50.45.84,75.67.28,14.23.62,28.45,1.03,42.67.04,1.28,2.04,1.29,2,0-.73-25.34-1.25-50.69-1.56-76.04-.3-25.22-.4-50.44-.28-75.67.07-14.23.2-28.45.4-42.68.02-1.29-1.98-1.29-2,0h0Z"/>
    </g>
    <g>
      <path class="cls-4" d="M19.72,116.53c8.78-.12,17.55-.4,26.32-.8s16.71-.97,25.03-2.09c5.42-.73,10.81-1.63,16.16-2.78,5.85-1.26,11.69-2.6,17.38-4.47,6.64-2.18,13.06-5.04,18.98-8.76,7.07-4.44,13.37-10.03,18.73-16.42,2.18-2.59,4.21-5.31,6.1-8.12,2.66-3.95,5.05-8.07,7.21-12.31,2.94-5.76,5.49-11.72,7.71-17.78,2.83-7.72,5.14-15.64,7.04-23.64.54-2.26,1.04-4.52,1.51-6.79.26-1.26-1.67-1.79-1.93-.53-3.15,15.1-7.59,30.05-14.22,44.01-2.19,4.61-4.62,9.1-7.34,13.42-1.04,1.65-2.12,3.27-3.25,4.85-.96,1.35-1.86,2.54-2.78,3.7-4.44,5.57-9.55,10.64-15.3,14.84s-12.11,7.58-18.79,10.11c-5.76,2.18-11.72,3.76-17.73,5.1-4.76,1.07-9.53,2.03-14.35,2.79-16.82,2.67-33.91,3.21-50.92,3.56-1.85.04-3.7.07-5.55.09-1.29.02-1.29,2.02,0,2h0Z"/>
      <path class="cls-4" d="M162.54,19.74c1.59-1.53,3.19-3.05,4.78-4.58.77-.74,1.53-1.47,2.3-2.21.34-.32,1.03-1.3,1.59-.94s.8,1.29,1.03,1.86c.39.95.76,1.92,1.1,2.89.71,2.01,1.32,4.05,1.83,6.11.31,1.25,2.24.72,1.93-.53-.59-2.37-1.31-4.71-2.16-7-.41-1.1-.82-2.2-1.31-3.26-.36-.78-.89-1.56-1.69-1.93-1-.47-1.99-.14-2.81.52-.89.73-1.69,1.6-2.53,2.4-1.83,1.75-3.66,3.51-5.49,5.26-.93.89.48,2.31,1.41,1.41h0Z"/>
      <path class="cls-4" d="M29.13,123.04c-1.84-1.25-3.67-2.51-5.51-3.76-.88-.6-1.77-1.21-2.65-1.81-.5-.34-1.62-.84-1.58-1.58.04-.83,1.03-1.52,1.57-2.03.75-.69,1.51-1.35,2.29-2,1.59-1.32,3.25-2.55,4.97-3.69,1.07-.71.07-2.44-1.01-1.73-1.99,1.32-3.9,2.76-5.73,4.3-.89.75-1.78,1.53-2.62,2.34-.76.74-1.43,1.66-1.47,2.76s.62,1.96,1.48,2.59c.95.7,1.95,1.34,2.93,2,2.11,1.44,4.22,2.88,6.33,4.32,1.07.73,2.07-1.01,1.01-1.73h0Z"/>
    </g>
    <g>
      <path class="cls-1" d="M95.68,105.38c5.57-.38,11.16-.28,16.71.3.64.07.63-.93,0-1-5.55-.58-11.14-.68-16.71-.3-.64.04-.64,1.04,0,1h0Z"/>
      <path class="cls-1" d="M83.64,98.45c.67-1.52,1.5-2.96,2.49-4.29.24-.32.59-.64.78-.99.13-.07.16-.18.11-.3l.04.13c.02.15,0,.3,0,.45-.04.6-.09,1.2-.15,1.8-.27,2.8-.83,5.58-1,8.38-.04.64.96.64,1,0,.1-1.65.4-3.28.61-4.92s.39-3.25.51-4.88c.04-.58.14-1.33-.37-1.75-.75-.62-1.42.31-1.84.84-1.23,1.54-2.25,3.22-3.05,5.02-.26.58.6,1.09.86.5h0Z"/>
      <path class="cls-1" d="M81.9,104.68c2.74.11,5.47.23,8.21.34.64.03.64-.97,0-1-2.74-.11-5.47-.23-8.21-.34-.64-.03-.64.97,0,1h0Z"/>
    </g>
    <g>
      <path class="cls-2" d="M182.68,6.28c-.1,2.63-.2,5.27-.3,7.9h1c-.12-2.25-.45-4.5-1.11-6.65-.51-1.65-1.19-3.88-3.27-3.91-2.2-.03-3.83,1.95-3.93,4.02-.1,1.95.71,4.05,2.06,5.46,1.09,1.14,2.58,1.94,4.12,2.28.63.14.89-.82.27-.96-1.04-.23-2.04-.68-2.89-1.32-1.36-1.02-2.18-2.55-2.47-4.21-.32-1.83.38-3.79,2.37-4.22,1.82-.39,2.37,1.79,2.78,3.12.64,2.07.96,4.22,1.07,6.39.03.64.98.65,1,0,.1-2.63.2-5.27.3-7.9.02-.64-.98-.64-1,0h0Z"/>
      <path class="cls-2" d="M183.43.74c1.26,2.04,2.75,3.94,4.43,5.65.45.46,1.16-.25.71-.71-1.62-1.66-3.06-3.48-4.28-5.45-.34-.55-1.2-.04-.86.5h0Z"/>
      <path class="cls-2" d="M186.58.38c-.98,2.06-1.82,4.18-2.51,6.35-.2.61.77.88.96.27.66-2.09,1.47-4.13,2.41-6.11.27-.58-.59-1.09-.86-.5h0Z"/>
    </g>
  </g>
</svg>