<svg xmlns="http://www.w3.org/2000/svg" viewBox="0 0 204.22 58.17">
  <defs>
    <style>
      .cls-1 {
        fill: #808285;
      }

      .cls-2 {
        fill: #231f20;
      }
    </style>
  </defs>
  <title>Asset 1</title>
  <g id="Layer_2" data-name="Layer 2">
    <g id="Layer_1-2" data-name="Layer 1">
      <g>
        <g>
          <path class="cls-1" d="M166.23,17.06c.4-4.25-.36-9-3-12.46A11.1,11.1,0,0,0,156.31.19a11.2,11.2,0,0,0-7.84,2.08,22,22,0,0,0-9.3,14.37,12.79,12.79,0,0,0,2.45,9.84,14.31,14.31,0,0,0,5.94,4.33,13.44,13.44,0,0,0,13.78-2.58,13.93,13.93,0,0,0,1.75-1.85c.39-.49-.31-1.21-.71-.7-3.13,3.93-8.5,6.11-13.42,4.57-5.09-1.59-9-6-9-11.48a18.24,18.24,0,0,1,2.12-7.87,21.3,21.3,0,0,1,5-6.29,12.83,12.83,0,0,1,6.74-3.46,9.08,9.08,0,0,1,7.56,2.93c3.32,3.29,4.21,8.48,3.78,13-.07.64.94.64,1,0Z" transform="translate(-1.5 -0.01)"/>
          <g>
            <path class="cls-2" d="M195.78,54.05a320.25,320.25,0,0,0-31.62-28.77q-4.71-3.75-9.56-7.32v1.72c3.06-1.8,6.93-1.72,10.37-1.44,1.32.1,2.66.13,4,.16,6,.14,12,.08,18,0s11.73-.15,17.6-.25a1,1,0,0,0,0-2c-9.18.16-18.37.31-27.56.31-3.93,0-7.9.06-11.83-.22s-8.13-.34-11.6,1.71a1,1,0,0,0,0,1.72A320.6,320.6,0,0,1,185.87,47q4.33,4.17,8.5,8.5c.89.93,2.3-.48,1.41-1.41Z" transform="translate(-1.5 -0.01)"/>
            <path class="cls-2" d="M199.32,12,204,18V16.57a10.62,10.62,0,0,1-4.86,3.55,1,1,0,0,0-.7,1.23,1,1,0,0,0,1.23.7A12.52,12.52,0,0,0,205.45,18a1,1,0,0,0,0-1.41l-4.72-6a1,1,0,0,0-1.41,0,1,1,0,0,0,0,1.41Z" transform="translate(-1.5 -0.01)"/>
            <path class="cls-2" d="M195.1,47.41a32.74,32.74,0,0,0-.48,7.72l1-1a41.33,41.33,0,0,0-6.67.29,1,1,0,0,0-1,1,1,1,0,0,0,1,1,41.33,41.33,0,0,1,6.67-.29,1,1,0,0,0,1-1,30.4,30.4,0,0,1,.41-7.19,1,1,0,0,0-.7-1.23,1,1,0,0,0-1.23.7Z" transform="translate(-1.5 -0.01)"/>
          </g>
        </g>
        <g>
          <path class="cls-2" d="M123,40.54a13.93,13.93,0,0,1,4.56-1.6,13.52,13.52,0,0,1,2.46-.18c.61,0,1.72,0,1.94.73s-.53,1.3-1,1.66a16.26,16.26,0,0,1-2.09,1.25l-4.81,2.7a.5.5,0,0,0,0,.86,9.57,9.57,0,0,0,4.78,1.27c1.53.14,3.64.28,4.58,1.72.72,1.09-.53,1.92-1.33,2.5a10.52,10.52,0,0,1-2.47,1.33,11,11,0,0,1-5.91.55c-.63-.12-.9.84-.26,1a12,12,0,0,0,9.79-2.47,3.3,3.3,0,0,0,1.41-1.9,2.54,2.54,0,0,0-.94-2.15,6.89,6.89,0,0,0-4-1.45c-1.75-.2-3.63-.17-5.13-1.22V46c2-1.12,4-2.23,6-3.36,1.17-.66,3-2.05,2.26-3.63s-3.25-1.28-4.65-1.12a15.31,15.31,0,0,0-5.69,1.82c-.56.32,0,1.18.51.87Z" transform="translate(-1.5 -0.01)"/>
          <path class="cls-2" d="M139.87,40.36c-.93,2.13-1.94,4.41-1.77,6.8A5.72,5.72,0,0,0,140.94,52a2.43,2.43,0,0,0,2.74-.23A5.38,5.38,0,0,0,145,49.09a10.21,10.21,0,0,0-.4-6.39,4.94,4.94,0,0,0-2-2.74,1.58,1.58,0,0,0-2.28.93c-.14.63.82.9,1,.27a.55.55,0,0,1,.71-.37,1.75,1.75,0,0,1,.93.83,8.49,8.49,0,0,1,1,2.3,9.27,9.27,0,0,1,.09,4.82,5.12,5.12,0,0,1-.94,2.16c-.66.74-1.67.39-2.34-.14a5.15,5.15,0,0,1-1.72-3.94,14.41,14.41,0,0,1,1.64-6c.26-.58-.6-1.09-.86-.5Z" transform="translate(-1.5 -0.01)"/>
          <path class="cls-2" d="M152,38.65a11.93,11.93,0,0,0-4.5,5.07c-.87,1.86-1.71,4.65-.43,6.52s3.88,1.84,5.6.72a8.13,8.13,0,0,0,3.49-6c.13-2.43-1.63-5-4.26-4.89-.64,0-.64,1,0,1,1.95-.09,3.27,1.78,3.27,3.59a7.11,7.11,0,0,1-2.65,5.22c-1.34,1.07-3.76,1.42-4.73-.33-.88-1.58-.07-3.95.65-5.45a11,11,0,0,1,4.06-4.54c.55-.34.05-1.21-.5-.87Z" transform="translate(-1.5 -0.01)"/>
          <path class="cls-2" d="M158.53,34.15c-.35,1.26-1.2,2.35-1.43,3.66a3.07,3.07,0,0,0,1.14,3,1.81,1.81,0,0,0,1.49.32A2.63,2.63,0,0,0,161.19,40a4.65,4.65,0,0,0,.87-3.85,2.68,2.68,0,0,0-3.08-1.9.5.5,0,0,0,.26,1,1.66,1.66,0,0,1,1.82,1.13,3.4,3.4,0,0,1-.6,2.94c-.39.62-1.05,1.29-1.76.66a2.19,2.19,0,0,1-.55-2.23c.32-1.14,1-2.12,1.34-3.26a.5.5,0,0,0-1-.26Z" transform="translate(-1.5 -0.01)"/>
          <path class="cls-2" d="M159.06,43.87A3.87,3.87,0,0,1,163.77,42a.52.52,0,0,0,.69-.18.51.51,0,0,0-.18-.68,4.85,4.85,0,0,0-6.08,2.19.5.5,0,0,0,.86.5Z" transform="translate(-1.5 -0.01)"/>
        </g>
      </g>
      <g>
        <g>
          <path class="cls-1" d="M18.05,33.36c5.24,5,6.77,12.36,8.05,19.22.12.63,1.08.36,1-.27-1.31-7-2.93-14.51-8.3-19.66-.46-.44-1.17.26-.71.71Z" transform="translate(-1.5 -0.01)"/>
          <g>
            <path class="cls-2" d="M41.33.88q-8,10.1-15.77,20.4c-5.09,6.77-10,13.69-15,20.5A85.87,85.87,0,0,1,1.79,52.07a1,1,0,0,0,.7,1.7q23.45-.27,46.88-.09,6.62.06,13.25.14a1,1,0,0,0,0-2q-23.46-.3-46.91-.16-6.6,0-13.22.11l.71,1.71C9,47.81,13.54,41,18.29,34.47Q25.9,24,33.79,13.73,38.23,8,42.74,2.3a1,1,0,0,0,0-1.42,1,1,0,0,0-1.41,0Z" transform="translate(-1.5 -0.01)"/>
            <path class="cls-2" d="M35.21,3.86l3.49-1,1.74-.47A12.26,12.26,0,0,1,42.07,2c-.07,0,.1,0,.09,0L42,1.88c.09,0,.13.41.15.54A14.83,14.83,0,0,1,42.32,4a19.38,19.38,0,0,1-.14,3.49,1,1,0,0,0,1,1,1,1,0,0,0,1-1,19.48,19.48,0,0,0,.1-4c-.1-1.21-.15-3-1.61-3.42a3.61,3.61,0,0,0-1.89.19L38.8.8,34.67,1.93a1,1,0,0,0,.54,1.93Z" transform="translate(-1.5 -0.01)"/>
            <path class="cls-2" d="M58.5,50.39a12.61,12.61,0,0,1,3.94,3V52l-4.81,4.53A1,1,0,1,0,59,57.89l4.81-4.53a1,1,0,0,0,0-1.41,14.14,14.14,0,0,0-4.34-3.29,1,1,0,1,0-1,1.73Z" transform="translate(-1.5 -0.01)"/>
          </g>
        </g>
        <g>
          <path class="cls-2" d="M62.5,18.51a24.13,24.13,0,0,0-4.68,10.83.51.51,0,0,0,.62.61,72.08,72.08,0,0,0,15.4-4.12c.59-.23.33-1.2-.27-1A71.37,71.37,0,0,1,58.17,29l.62.61A23.4,23.4,0,0,1,63.37,19c.39-.51-.48-1-.87-.5Z" transform="translate(-1.5 -0.01)"/>
          <path class="cls-2" d="M68,18,64.41,37.64c-.11.63.85.9,1,.26L69,18.24c.12-.63-.84-.9-1-.27Z" transform="translate(-1.5 -0.01)"/>
          <path class="cls-2" d="M82.63,19.91c-1.36-.51-2.72-1.09-4.11-1.53a1.61,1.61,0,0,0-2.2,1.21c-.43,1.32-.75,2.68-1.13,4l-.56,2a5.52,5.52,0,0,0-.38,1.87c.12,1.2,1.3,1.16,2.22,1.26A7.56,7.56,0,0,1,80.19,30,3.7,3.7,0,0,1,81.77,33a3.15,3.15,0,0,1-1.5,2.32c-2.23,1.49-5.37,1.42-7.94,1.3-.64,0-.64,1,0,1a17.21,17.21,0,0,0,7.17-.79c1.69-.68,3.21-2,3.27-3.92.08-2.31-1.85-4-3.87-4.73a8.7,8.7,0,0,0-1.66-.39c-.29,0-.58-.08-.88-.11s-.78,0-1-.18.18-1.47.3-1.91l.6-2.1.65-2.35c.13-.44.28-1.86.88-1.93a2.92,2.92,0,0,1,1.11.34l1,.38,2.43.9c.6.22.86-.74.26-1Z" transform="translate(-1.5 -0.01)"/>
          <path class="cls-2" d="M87.92,19c-1,1.23-2.12,2.65-2.1,4.32a3.16,3.16,0,0,0,2.24,3c1.51.32,2.7-1,3.09-2.29A4.94,4.94,0,0,0,87.05,18a.5.5,0,0,0-.5.5.51.51,0,0,0,.5.5,4,4,0,0,1,3.26,4.16c-.07.91-.63,2.14-1.65,2.26s-1.73-1-1.83-1.89c-.15-1.44,1-2.77,1.79-3.81.4-.5-.3-1.21-.7-.71Z" transform="translate(-1.5 -0.01)"/>
          <path class="cls-2" d="M86.32,29.21A4.89,4.89,0,0,1,91.87,28a.5.5,0,1,0,.51-.86,5.92,5.92,0,0,0-6.77,1.34c-.43.48.28,1.19.71.71Z" transform="translate(-1.5 -0.01)"/>
        </g>
      </g>
    </g>
  </g>
</svg>
