<svg xmlns="http://www.w3.org/2000/svg" viewBox="0 0 215.13 189.76">
  <defs>
    <style>
      .cls-1 {
        fill: #939598;
      }

      .cls-2 {
        fill: #231f20;
      }
    </style>
  </defs>
  <title>Asset 1</title>
  <g id="Layer_2" data-name="Layer 2">
    <g id="Layer_1-2" data-name="Layer 1">
      <path class="cls-1" d="M32.87,96.19c7.18,6.21,8,16.45,6.27,25.2-.27,1.41-.6,2.8-1,4.18-.2.73-.4,1.46-.61,2.19A6.33,6.33,0,0,1,37,129.6l.36-.36-.12.07.51-.13h-.14l.51.14-.12-.07.36.36-.06-.11.1.77,0-.11a1,1,0,0,0-1.93-.54,1.22,1.22,0,0,0,.85,1.52,1.39,1.39,0,0,0,1.62-1,41.56,41.56,0,0,0,1.24-4.26A54.93,54.93,0,0,0,41.8,117a29.6,29.6,0,0,0-2.46-15.45,20.52,20.52,0,0,0-5.06-6.73c-1-.83-2.39.57-1.41,1.42Z"/>
      <g>
        <path class="cls-2" d="M6.59,124.45q10.1-11,20.32-22T47.5,80.8Q57.86,70,68.37,59.37T89.5,38.2q10.64-10.51,21.4-20.9l2.7-2.6c1.4-1.34-.72-3.46-2.12-2.12Q100.71,22.95,90.05,33.44T68.88,54.57Q58.36,65.21,48,76T27.36,97.63Q17.12,108.54,7,119.56l-2.54,2.77a1.54,1.54,0,0,0,0,2.12,1.52,1.52,0,0,0,2.12,0Z"/>
        <path class="cls-2" d="M5.42,125.06q12.71,2.75,25.44,5.36t25.71,5.16q13.11,2.56,26.24,5t26.54,4.79q13.14,2.3,26.3,4.47l3.2.53a1.54,1.54,0,0,0,1.84-1.05,1.5,1.5,0,0,0-1-1.84q-13.14-2.16-26.26-4.44T87,138.31q-13.16-2.42-26.29-5-13-2.52-25.89-5.17-12.75-2.59-25.49-5.33l-3.09-.67a1.55,1.55,0,0,0-1.85,1,1.52,1.52,0,0,0,1,1.84Z"/>
      </g>
      <g>
        <path class="cls-2" d="M114.47,13.86c.53-2.26,2.76-3.41,4.94-3.52a8,8,0,0,1,6.52,3.24A34.81,34.81,0,0,1,130.15,21c1,2.14,2.13,4.26,3.29,6.34,1.6,2.87,3.38,5.64,5.05,8.47a69.59,69.59,0,0,1,4.65,9.5,166.78,166.78,0,0,1,9.87,36,223.34,223.34,0,0,1,2.54,28.05,220.47,220.47,0,0,1-2,37.29q-.36,2.61-.79,5.22l.62-.35-13.6-2.46c-.63-.11-.9.85-.27,1l13.6,2.46a.52.52,0,0,0,.62-.35,224.6,224.6,0,0,0,2.91-39.53,233,233,0,0,0-2.24-28.79,170.41,170.41,0,0,0-9.69-37.29,73.76,73.76,0,0,0-4.86-10.43c-1.64-2.85-3.43-5.6-5.06-8.45-1.16-2-2.26-4.14-3.31-6.25a50.42,50.42,0,0,0-4.09-7.59c-1.53-2.07-3.6-4-6.23-4.37A7.49,7.49,0,0,0,115.06,11a4.94,4.94,0,0,0-1.55,2.62c-.15.62.82.89,1,.26Z"/>
        <path class="cls-2" d="M114.71,15.5c-1.94,2.05-.32,4.83,1.13,6.6a8,8,0,0,1,2,3.78,11.78,11.78,0,0,1-.17,3.79c-.4,2.32-1.12,4.84-.41,7.17s2.73,3.5,4.68,4.68a8.68,8.68,0,0,1,2.62,2.12,4.16,4.16,0,0,1,.73,3c-.27,2.23-1.55,4.21-2.24,6.31s-.66,4.12.83,5.75,3.94,2.22,5.22,4.05.24,4.41-.39,6.39-1.14,4.07.31,5.71c.86,1,2.23,1.29,3.1,2.23,1,1.09.76,2.7.27,4-1,2.66-3.44,4.74-2.89,7.84.46,2.57,2.65,4.36,3.45,6.78.88,2.67-.4,5.43-.85,8.06A6.86,6.86,0,0,0,134,110.4a15.66,15.66,0,0,1,2.19,2.75,3,3,0,0,1-.4,3.35,6.64,6.64,0,0,0-1.59,3.24,6.44,6.44,0,0,0,.72,3.12c.47,1.09,1.09,2.11,1.48,3.24a3.72,3.72,0,0,1-.3,3.37c-.64,1.08-1.24,2.11-.84,3.39s1.26,2,1.71,3.15a3.29,3.29,0,0,1-.05,2.27,16.68,16.68,0,0,0-.57,2.42,17.25,17.25,0,0,0,.09,4.76,49.33,49.33,0,0,0,1.06,5,.5.5,0,0,0,1-.27c-.83-3.28-1.72-6.78-1-10.17.31-1.44,1-2.78.45-4.25-.43-1.12-1.36-2-1.72-3.14-.43-1.36.77-2.37,1.22-3.55a4.7,4.7,0,0,0-.05-3.14c-.66-2-2.54-4.13-2.16-6.36.22-1.33,1.37-2.22,1.94-3.38a3.67,3.67,0,0,0,.09-3.09c-.92-2.16-3.21-3.42-4-5.64-.9-2.52.38-5.28.82-7.76a9.13,9.13,0,0,0,0-3.79,11.77,11.77,0,0,0-1.67-3.39,12.1,12.1,0,0,1-1.81-3.4,5.52,5.52,0,0,1,.84-4.22c1.22-2.15,3.15-4.66,2.16-7.3a5.13,5.13,0,0,0-2.57-2.46,3.25,3.25,0,0,1-1.92-2.59c-.14-2.18,1.16-4.26,1.53-6.37a5.2,5.2,0,0,0-2.12-5.37c-1.68-1.25-4.18-2.1-4.77-4.34s.71-4.33,1.5-6.2,1.58-4.1.74-6.15-2.93-3.05-4.7-4.15a7.49,7.49,0,0,1-2.55-2.29,6,6,0,0,1-.72-3.48c.12-2.5,1-4.92.93-7.45a7,7,0,0,0-1-3.38c-.75-1.25-1.88-2.24-2.59-3.51-.61-1.09-.94-2.64,0-3.63.44-.47-.26-1.18-.71-.71Z"/>
        <path class="cls-2" d="M121.48,14.38c-1.51,1.62-1,3.9,0,5.68,1,2,3.45,4.14,2.91,6.61-.33,1.5-2.92,3.6-1.25,5.11a2.36,2.36,0,0,0,1.33.5,5.65,5.65,0,0,1,1.72.43,4.86,4.86,0,0,1,2.36,2.35c1.78,3.86-2.44,8.28-.08,12a8.47,8.47,0,0,0,2.36,2.14,3.5,3.5,0,0,1,1.64,3,10.83,10.83,0,0,1-.89,3.47,10.26,10.26,0,0,0-1,3.5c.06,2.55,3.16,2.46,4.61,3.82,2.3,2.16.68,5.67-.46,8-.29.57.58,1.08.86.5,1.09-2.16,2.22-4.56,1.53-7a4.49,4.49,0,0,0-1.67-2.5,16.33,16.33,0,0,0-2.57-1.22,2.89,2.89,0,0,1-1-.71,2,2,0,0,1-.12-1.85c.34-1.21.86-2.36,1.23-3.55.67-2.16.66-4.35-1.22-5.88a10.09,10.09,0,0,1-2.47-2.13,4.42,4.42,0,0,1-.52-2.81c.19-2.12,1.05-4.12,1.15-6.26a5.92,5.92,0,0,0-2.57-5.28,5.76,5.76,0,0,0-1.39-.67,15.64,15.64,0,0,0-1.66-.31c-1.38-.29-.4-1.66,0-2.37a4.92,4.92,0,0,0,1-3.4,8.79,8.79,0,0,0-1.55-3.59c-1.16-1.76-3.53-4.77-1.62-6.82.44-.47-.27-1.18-.71-.7Z"/>
        <path class="cls-2" d="M147,79.24a4.76,4.76,0,0,0-2.23,4.6c.08,2.2,1.11,4.06,2,6a9.64,9.64,0,0,1,1.06,3.77,7.31,7.31,0,0,1-1,3.48,20.24,20.24,0,0,0-1.54,3.22,8,8,0,0,0-.32,3.37,8.26,8.26,0,0,0,1.06,3.24c.56,1,1.34,1.74,1.93,2.66a3.08,3.08,0,0,1,.32,3.13c-.48,1-1.25,1.86-1.72,2.89-1.83,4,1.06,8.08,1.83,11.94a7.76,7.76,0,0,1-.08,3.68,39.46,39.46,0,0,0-1.27,3.95,6.11,6.11,0,0,0,.54,3.52c.45,1.07,1.25,2.41.59,3.55a.5.5,0,0,0,.86.51c1.15-2-.59-3.89-1-5.8a6.71,6.71,0,0,1,.62-3.68,12.54,12.54,0,0,0,.91-3.34,14.92,14.92,0,0,0-1.22-6.06c-.67-1.91-1.5-3.92-1.36-6A6.19,6.19,0,0,1,148,115a8.74,8.74,0,0,0,1.45-2.79c.48-2.32-1.42-3.82-2.52-5.58a7.33,7.33,0,0,1-.39-6.92c1-2.12,2.44-4,2.24-6.47-.22-2.71-2-4.86-2.71-7.4-.56-1.93-.63-4.64,1.4-5.72.57-.3.06-1.17-.5-.86Z"/>
      </g>
      <path class="cls-2" d="M110.91,5.05c-1-3.36-4.5-5.06-7.81-5-4.2,0-7.69,2.87-10.48,5.71C89,9.43,85.51,13.36,82,17.18l-11,11.91L58.57,42.48l.48-.13a100.17,100.17,0,0,1-14.6-7.06.5.5,0,0,0-.75.43c-.1,3.21,1.72,5.93,2.9,8.79A10.84,10.84,0,0,1,47.53,49a10.23,10.23,0,0,1-1.2,4.35,25.69,25.69,0,0,1-5.92,7c-2.57,2.31-5.26,4.49-7.81,6.82A187.51,187.51,0,0,0,4.43,99.6c-2.06,3-4.35,6.32-4.43,10.11-.06,3,1.38,6.11,4.26,7.29.6.24.85-.73.27-1C1.91,115,.81,111.85,1,109.2c.28-3.47,2.48-6.5,4.39-9.28A185.36,185.36,0,0,1,33,68.2c2.51-2.31,5.14-4.48,7.7-6.74a29.32,29.32,0,0,0,6.07-6.84A11.06,11.06,0,0,0,48,45.51c-1-3.27-3.43-6.23-3.32-9.79l-.75.43a100.35,100.35,0,0,0,14.84,7.16.48.48,0,0,0,.48-.13l21-22.73L90.73,9.18c2.84-3.07,5.83-6.59,10-7.83,3.39-1,8.14.2,9.22,4a.5.5,0,0,0,1-.26Z"/>
      <path class="cls-2" d="M6.87,129.48c-3.09.43-3.45,4.44-2.23,6.7,2,3.77,7.48,3.12,11,2.89a79.78,79.78,0,0,1,44.27,10.24l-.25-.43.71,10c0,.45.7.74.93.25,2.26-4.68,7.4-6.15,12.24-6.29,6.17-.19,12.21,1.47,18.19,2.74l46.33,9.8c3.73.78,7.86,1.65,11.53.13,2.78-1.16,5.13-3.65,5.21-6.79a.5.5,0,0,0-1,0c-.07,3.05-2.71,5.38-5.49,6.18-3.6,1-7.44,0-11-.7l-22.87-4.84-23-4.87c-5.82-1.23-11.69-2.8-17.68-2.66-5.24.12-10.86,1.73-13.3,6.8l.93.25-.62-8.8c0-.46.08-1.22-.28-1.57a8.3,8.3,0,0,0-1.65-.92c-1.15-.62-2.32-1.21-3.49-1.77a81.19,81.19,0,0,0-29.9-7.73c-2.61-.15-5.22-.19-7.83-.09a50.29,50.29,0,0,1-7.36.21c-2.32-.24-4.65-1.26-5.18-3.73-.36-1.64.16-3.75,2.07-4,.63-.09.36-1.05-.27-1Z"/>
      <path class="cls-2" d="M135,6.1C140.14,4,145.29,8,147.63,12.41a36.76,36.76,0,0,1,2.84,8.25c.75,3,1.52,6,2.43,9a117.18,117.18,0,0,0,6.41,16.8,41.34,41.34,0,0,0,8.36,12c3.7,3.53,8.44,5.9,13.65,5.45l-.13-1c-9.85,3.93-11.67,16-11.93,25.31-.08,3.24,0,6.49.06,9.73l.16,11.82.32,23.36.08,6.42a42.12,42.12,0,0,1-.11,6.05,7.61,7.61,0,0,1-2.16,4.8,4.35,4.35,0,0,1-4.56,1.07c-.59-.26-1.1.6-.51.86,2.53,1.12,5.33-.25,6.8-2.41,1.91-2.81,1.59-6.57,1.55-9.79l-.32-23.64q-.15-11.84-.32-23.65a61,61,0,0,1,1.46-16.18C173.12,71.2,176,66,181.46,63.82c.47-.19.48-1-.14-1-10.18.88-17.2-8.81-21.14-16.93a115.67,115.67,0,0,1-6.55-17.36c-.89-2.94-1.62-5.92-2.39-8.89a34,34,0,0,0-2.87-8c-2.55-4.67-8.2-8.75-13.68-6.56-.59.24-.33,1.21.27,1Z"/>
      <g>
        <path class="cls-2" d="M47.72,88.43a46.39,46.39,0,0,0,.53,5.26,25.58,25.58,0,0,0,1.17,5.11,1.82,1.82,0,0,0,1,1.18,1.29,1.29,0,0,0,1.46-.71,13.08,13.08,0,0,0,.81-2.19l.95-2.74h-1l1,2.92a22.06,22.06,0,0,0,.94,2.66A2.14,2.14,0,0,0,56,101.19a1.31,1.31,0,0,0,1.42-.86,26.51,26.51,0,0,0,.91-2.64c.31-.92.62-1.83.92-2.75.63-1.9,1.24-3.82,1.84-5.73.2-.62-.77-.88-1-.27-1,3-1.94,6-3,9-.12.34-.24.68-.35,1a3.81,3.81,0,0,1-.37,1c-.54.64-1.06-.93-1.18-1.29l-1.59-4.67a.5.5,0,0,0-1,0l-1.39,4c-.08.22-.18.73-.39.87s-.44-.14-.55-.37a10,10,0,0,1-.54-1.94,42.73,42.73,0,0,1-1.14-8.2c0-.64-1-.64-1,0Z"/>
        <path class="cls-2" d="M63.64,84.72a107.49,107.49,0,0,0-1.41,17.37c0,.47.72.72.94.25L64.69,99l.82-1.78.3-.67c.12-.24.22-.51.43-.21a3.81,3.81,0,0,1,.18,1.52c0,.65.06,1.3,0,2a24.76,24.76,0,0,1-.34,3.74c-.11.63.86.9,1,.27A26.51,26.51,0,0,0,67.47,99a20.82,20.82,0,0,0-.17-2.37,1.82,1.82,0,0,0-.61-1.28c-1.23-.87-1.89,1.08-2.25,1.86l-2.14,4.68.93.25A106.4,106.4,0,0,1,64.6,85c.11-.63-.86-.9-1-.27Z"/>
        <path class="cls-2" d="M72.84,96.34l.88,3.76c.15.62,1.1.36,1-.27a17.14,17.14,0,0,0-2.05-5.26A4.29,4.29,0,0,0,71,92.69c-.9-.39-1.59.26-2.07,1-1.78,2.61-1,6.58,2,7.87a4.77,4.77,0,0,0,4.69-.43c.51-.38,0-1.25-.5-.86a3.92,3.92,0,0,1-5.83-1.67,4.8,4.8,0,0,1,.11-3.7c.17-.36.65-1.42,1.17-1.27a1.43,1.43,0,0,1,.64.6c.23.32.44.66.64,1a16.29,16.29,0,0,1,1.89,4.91l1-.27-.87-3.76c-.15-.63-1.11-.36-1,.27Z"/>
        <path class="cls-2" d="M76.28,91.63a27.24,27.24,0,0,0,5.55-.51.51.51,0,0,0,.35-.62.52.52,0,0,0-.62-.35,25.25,25.25,0,0,1-5.28.48.5.5,0,0,0,0,1Z"/>
        <path class="cls-2" d="M80.84,85.29a80,80,0,0,0-2,16.31.5.5,0,0,0,1,0,78.07,78.07,0,0,1,2-16c.14-.63-.82-.9-1-.27Z"/>
        <path class="cls-2" d="M56.84,116l-.38,6.58,1-.14a72.8,72.8,0,0,0-3.77-8.47c-1-1.87-3-4.21-5.21-2.54a7.68,7.68,0,0,0-2.61,6.38,7.82,7.82,0,0,0,3,5.88A8.33,8.33,0,0,0,56.31,125c.61-.19.35-1.16-.27-1A7.12,7.12,0,0,1,47,118.74a7.3,7.3,0,0,1,1.36-5.8c.7-.88,1.68-1.49,2.73-.78a6.39,6.39,0,0,1,1.86,2.49,69.34,69.34,0,0,1,3.57,8,.5.5,0,0,0,1-.13l.38-6.58c0-.65-1-.64-1,0Z"/>
        <path class="cls-2" d="M59.57,113.57a57.87,57.87,0,0,0-.11,10.28.5.5,0,0,0,1,0c.34-3.74.72-7.73,2.84-10.95.22-.32.57-1,.84-.35a5.64,5.64,0,0,1,.27,1.37,28.92,28.92,0,0,1,.3,3.36,31.21,31.21,0,0,1-.45,6.62c-.11.63.85.9,1,.27a32.59,32.59,0,0,0,.51-6.07,30.28,30.28,0,0,0-.19-3.16,10.92,10.92,0,0,0-.47-2.73,1.32,1.32,0,0,0-1.31-1c-.77.1-1.23,1-1.59,1.6a16.23,16.23,0,0,0-1.87,4.89,48.82,48.82,0,0,0-.84,6.13h1a57.87,57.87,0,0,1,.11-10.28c.06-.64-.94-.63-1,0Z"/>
        <path class="cls-2" d="M68.26,114.18c0,1.65-.69,3.31.08,4.89a2.19,2.19,0,0,0,3.11,1.07,3.05,3.05,0,0,0,1.25-3.29c-.4-1.53-1.72-2.57-2.91-3.48l-.51.86c3,1.88,5.11,5.68,4.45,9.25-.29,1.52-1.12,3.16-2.73,3.6-2,.55-4.09-.89-5.94-1.47-.62-.19-.88.77-.27,1,1.73.54,3.38,1.58,5.24,1.62a4.31,4.31,0,0,0,3.71-2c1.73-2.6,1.22-6.15-.19-8.77a10.81,10.81,0,0,0-3.76-4c-.56-.36-1,.48-.51.86a7.23,7.23,0,0,1,2.28,2.39,2.09,2.09,0,0,1-.62,2.66c-1,.62-1.74-.44-1.92-1.3-.26-1.24.26-2.55.24-3.8a.5.5,0,0,0-1,0Z"/>
        <path class="cls-2" d="M76.69,108.49q-1,7.71-1.6,15.47a.5.5,0,0,0,.93.25l.64-1.42c.26-.58-.6-1.09-.86-.5l-.65,1.42.94.25q.57-7.75,1.6-15.47c.08-.64-.92-.63-1,0Z"/>
        <path class="cls-2" d="M80.11,118.17a9.4,9.4,0,0,0,2.47-1.91,6.89,6.89,0,0,0,1.63-2.6c.5-1.83-1.74-2.84-3.16-2-1.61.91-2.12,3.19-2.14,4.88a9.16,9.16,0,0,0,1.64,5.34c1.18,1.65,3.31,3.48,5.49,2.8.61-.19.35-1.15-.26-1-1.94.6-3.86-1.43-4.74-2.93A8,8,0,0,1,80,115.51a5.11,5.11,0,0,1,1-2.57c.52-.59,1.56-1,2.14-.21s-.62,2.06-1.07,2.6a8.36,8.36,0,0,1-2.46,2c-.57.31-.07,1.17.5.87Z"/>
      </g>
      <g>
        <path class="cls-2" d="M90.08,107c-.07-.08.47-.41.54-.44a5,5,0,0,1,1.22-.29,22.68,22.68,0,0,1,2.84-.34,5.28,5.28,0,0,1,2,.12c.65.22,1,.76.52,1.36-1,1.23-2.8,1.33-4.2,1.63-1.14.26-2.2,1-1.79,2.33A18.34,18.34,0,0,0,92.59,114l1.47,2.79c.3.57,1.16.07.86-.5l-1.51-2.89L92.65,112c-.21-.4-.7-1-.44-1.48s1.31-.57,1.83-.65a8.39,8.39,0,0,0,2.74-.89,3.07,3.07,0,0,0,1.62-1.7,1.67,1.67,0,0,0-.62-1.78c-1.31-1-3.48-.6-5-.4a6.88,6.88,0,0,0-3,.77c-.63.45-1,1.18-.42,1.83.42.49,1.12-.22.7-.71Z"/>
        <path class="cls-2" d="M95.15,121.26a.5.5,0,0,0,0-1,.5.5,0,0,0,0,1Z"/>
        <path class="cls-2" d="M103.56,105.63a35.59,35.59,0,0,0-1.45,10,.5.5,0,0,0,1,0,34.77,34.77,0,0,1,1.41-9.77.5.5,0,0,0-1-.27Z"/>
        <path class="cls-2" d="M102.53,121.06a3.2,3.2,0,0,1,0-.44v-.05c0-.06,0,0,0,0s0-.08,0-.11,0-.14,0-.2,0-.08,0-.11.06-.11,0,0l.11-.21a1,1,0,0,1,.11-.17l0,0c-.05.06-.05.07,0,0l.08-.09-.84-.22a1.89,1.89,0,0,1,0,.23c0,.06,0-.11,0,0v0a.62.62,0,0,1,0,.13c0,.08,0,.15,0,.23s0-.11,0,0a.13.13,0,0,1,0,.06.5.5,0,0,1,0,.12c0,.07,0,.14-.07.21s0-.09,0,0l0,0,0,.1c0,.07-.09.13-.13.19l0,0,0,0-.08.09.48-.13s0,0,.07,0,.09.08.06,0,.07.1,0,0l0,.07c0-.05,0,0,0,.07s0,0,0,.08,0,0,0,.07,0,0,0,0a.32.32,0,0,1-.27.14s0,0-.07,0,0,0-.06,0a.05.05,0,0,1,0,0,.34.34,0,0,1-.12-.12s0,0,0-.07,0-.12,0-.07a.5.5,0,0,0,.5.5.51.51,0,0,0,.5-.5.72.72,0,1,0-.9.69.5.5,0,0,0,.48-.13,2.33,2.33,0,0,0,.6-2.32.5.5,0,0,0-.83-.23,2.65,2.65,0,0,0-.69,2.06.61.61,0,0,0,.15.36.52.52,0,0,0,.35.14.52.52,0,0,0,.36-.14.48.48,0,0,0,.14-.36Z"/>
        <path class="cls-2" d="M108.87,107.1c1.16-.5,3-.21,3.29,1.22a1.77,1.77,0,0,1-.38,1.58c-.48.51-1.27.45-1.91.55a2.17,2.17,0,0,0-1.54.88,4.29,4.29,0,0,0-.49,2,15.94,15.94,0,0,0,.39,5.24c.15.63,1.12.36,1-.26a15,15,0,0,1-.42-3.12,9,9,0,0,1,.23-2.93c.3-.91,1.27-.8,2-.93a2.43,2.43,0,0,0,1.63-1,2.82,2.82,0,0,0-.22-3.51,3.65,3.65,0,0,0-4.1-.6c-.59.25-.09,1.12.5.86Z"/>
        <path class="cls-2" d="M108.82,122.4a.14.14,0,0,0,0-.06c0,.12,0,.07,0,0a.75.75,0,0,1,.07-.12l0,0c0-.08-.06.06,0,0l.09-.09.09-.08c.07-.07-.07,0,0,0l.05,0a.39.39,0,0,1,.11-.06s.1,0,0,0,0,0,0,0l-.61-.35a1.69,1.69,0,0,1,.08.24s0,.09,0,.13,0-.12,0,0V122a1,1,0,0,1,0,.25c0,.08,0,0,0,0v.06l0,.14,0,.12,0,0c0,.07,0,0,0,0l-.12.22s-.06.07-.08.11l0,0,0,0-.08.09s-.16.13,0,0l.61.08,0,0c0-.05.06.09,0,0a.93.93,0,0,1,0-.1c0-.07,0,.12,0,0s0,0,0,0,0,0,0,0,0,.13,0,0a.41.41,0,0,1,0-.11s0,0,0-.06,0,.12,0,.06l0-.11s0-.16,0-.06,0,0,0,0l0-.06s0-.05.06-.09c-.09.15,0,0,0,0s.14-.1,0,0l.09,0,.06,0c-.13.07-.1,0-.05,0l.1,0c-.17,0,0,0,0,0l-.5-.5s0,.13,0,0,0,0,0,0,.06-.13,0-.08l0,0s.08-.08.05-.06l0,0,0,0c0,.05.1-.07,0,0l-.07,0c-.09.05.11,0,0,0l-.08,0h0c-.06,0,.07,0,.08,0h-.13c-.07,0,.07,0,.07,0l-.07,0c-.08,0,.06,0,.06,0h0l0,0s.08.08.06,0l0,0s0,.06,0,.06l0,0s0-.11,0,0a.57.57,0,0,0-.23-.3.53.53,0,0,0-.39,0,.51.51,0,0,0-.34.62.93.93,0,0,0,.53.57,1.2,1.2,0,0,0,.7,0,1,1,0,0,0,.85-1,.52.52,0,0,0-.5-.5,1.4,1.4,0,0,0-1,2.32.5.5,0,0,0,.6.07,2.14,2.14,0,0,0,.82-1.18,2.11,2.11,0,0,0-.06-1.36.52.52,0,0,0-.23-.3.5.5,0,0,0-.38,0,1.83,1.83,0,0,0-1.15,1.15.5.5,0,0,0,.34.62.52.52,0,0,0,.62-.35Z"/>
        <path class="cls-2" d="M94.25,121.37l.09-.08-.1.08a1.48,1.48,0,0,1,.21-.13l-.12.05a1.34,1.34,0,0,1,.27-.07l-.13,0a.76.76,0,0,1,.3,0l-.14,0a1,1,0,0,1,.25.06l-.12,0,.06,0-.23-.3a1.78,1.78,0,0,1,.1.38v-.13a2.17,2.17,0,0,1,0,.44l0-.14a1.4,1.4,0,0,1-.11.4l0-.12a1.41,1.41,0,0,1-.19.34l.08-.1,0,0,.35-.15h0l.13,0-.07,0,.12,0-.06,0,.1.08-.08-.08.08.1A.56.56,0,0,1,95,122l.05.12,0-.11,0,.14V122l0,.14a.29.29,0,0,1,0-.09l0,.12,0-.06-.08.1,0,0-.1.07.08,0-.12,0,.1,0-.13,0h.11l-.14,0,.11,0-.12,0,.08,0-.11-.08a.12.12,0,0,1,0,0l-.07-.1,0,0a.49.49,0,0,0,.68.18.5.5,0,0,0,.18-.68.88.88,0,0,0-1.39-.15.84.84,0,0,0-.16.82.86.86,0,0,0,.59.57.5.5,0,0,0,.43,0,.84.84,0,0,0,.23-.23l.15-.26a2.33,2.33,0,0,0,.21-.74,2.52,2.52,0,0,0,0-.67,2.41,2.41,0,0,0-.08-.25.55.55,0,0,0-.28-.32.92.92,0,0,0-.23-.09,1.55,1.55,0,0,0-1.51.37.51.51,0,0,0,0,.71.52.52,0,0,0,.71,0Z"/>
      </g>
      <g>
        <path class="cls-2" d="M195.22,76.37c3.24-7.37,10.25-14.09,9-22.79A8.67,8.67,0,0,0,202,48.45a3.49,3.49,0,0,0-4.65-.35c-1.48,1.27-2.18,3.58-2.64,5.41a13.44,13.44,0,0,0-.35,5.78,6.44,6.44,0,0,0,3.16,4.54,4.85,4.85,0,0,0,4.87,0c.54-.34,0-1.21-.51-.87a3.78,3.78,0,0,1-3.92-.08,5.34,5.34,0,0,1-2.55-3.5,11.49,11.49,0,0,1,.19-5.34,11.74,11.74,0,0,1,2.11-4.93c1.37-1.59,3.43-.53,4.35,1A9.75,9.75,0,0,1,203.38,55a20.15,20.15,0,0,1-2.94,10.19c-2,3.6-4.43,6.93-6.09,10.71-.25.58.61,1.09.87.5Z"/>
        <path class="cls-2" d="M209.94,43.84l-3.52,7.48a.51.51,0,0,0,.43.76A1,1,0,0,0,207.91,51c0-.64-1-.64-1,0,0,.09,0,.08-.06.08l.44.75,3.52-7.48c.27-.58-.59-1.09-.87-.51Z"/>
        <path class="cls-2" d="M214.15,44a49.69,49.69,0,0,1-3,8.82c-.26.59.6,1.1.87.51a51.94,51.94,0,0,0,3.14-9.06.5.5,0,0,0-1-.27Z"/>
      </g>
      <g>
        <path class="cls-2" d="M32.67,36a29.47,29.47,0,0,0,3.2-10.36A26.1,26.1,0,0,0,35.05,15a12.13,12.13,0,0,0-2.25-4.26c-.89-1.06-2.45-2.36-3.93-1.66a3.74,3.74,0,0,0-1.51,1.79,18.79,18.79,0,0,0-1.14,2.5,13,13,0,0,0-1,5.33A5.31,5.31,0,0,0,28,23a12.77,12.77,0,0,0,6.07,1.19c.64,0,.64-1,0-1-2.9-.08-7.08-.41-7.75-4a10.12,10.12,0,0,1,.6-4.74,16.91,16.91,0,0,1,.87-2.21A6.56,6.56,0,0,1,29,10.16c1.22-1.05,2.9,1,3.53,1.87a12.39,12.39,0,0,1,1.75,4,26.16,26.16,0,0,1,.62,9.16,28.08,28.08,0,0,1-3.11,10.28c-.3.57.56,1.08.86.51Z"/>
        <path class="cls-2" d="M37.87,2.86A18.93,18.93,0,0,0,36,10c0,.65,1,.64,1,0a17.64,17.64,0,0,1,1.69-6.6c.28-.58-.58-1.09-.86-.51Z"/>
        <path class="cls-2" d="M42.24,2.36a48.66,48.66,0,0,0-2.09,7.79c-.12.63.85.9,1,.26a50.06,50.06,0,0,1,2.1-7.79c.22-.6-.75-.87-1-.26Z"/>
      </g>
      <g>
        <path class="cls-2" d="M58.3,189.5a48.71,48.71,0,0,0,3.86-10.81c.72-3.28.74-6.95-1.45-9.71a5.58,5.58,0,0,0-4-2.27,3.81,3.81,0,0,0-3.3,2.07c-1.64,2.72-2.09,6.84-.16,9.52a5,5,0,0,0,4,2.22,4.2,4.2,0,0,0,3.7-2.1c.31-.56-.56-1.07-.86-.5a3.21,3.21,0,0,1-2.92,1.6,4,4,0,0,1-3.11-1.8c-1.66-2.35-1.23-5.88.12-8.28a2.78,2.78,0,0,1,3.21-1.62,5.37,5.37,0,0,1,3,2.54c1.54,2.58,1.31,5.71.64,8.52A49.37,49.37,0,0,1,57.43,189c-.28.58.59,1.08.87.5Z"/>
        <path class="cls-2" d="M67.19,166a18.33,18.33,0,0,0-2.25,5.17.5.5,0,0,0,1,.26,17.18,17.18,0,0,1,2.15-4.93c.34-.54-.52-1-.87-.5Z"/>
        <path class="cls-2" d="M72,165.13a45.12,45.12,0,0,0-2.7,6.12c-.22.61.75.87,1,.26a42.79,42.79,0,0,1,2.61-5.88c.3-.56-.56-1.07-.87-.5Z"/>
      </g>
    </g>
  </g>
</svg>
