<svg xmlns="http://www.w3.org/2000/svg" viewBox="0 0 174.2 166.07">
  <defs>
    <style>
      .cls-1 {
        fill: #231f20;
      }

      .cls-2 {
        fill: #808285;
      }
    </style>
  </defs>
  <title>Asset 1</title>
  <g id="Layer_2" data-name="Layer 2">
    <g id="Layer_1-2" data-name="Layer 1">
      <path class="cls-1" d="M31.51,47.68q-.23,11.37,0,22.76l2-.27c-.63-4.25-.63-9,1.54-12.82,1.8-3.19,5.16-5.66,8.94-5.46,1.28.07,1.28-1.93,0-2a11.42,11.42,0,0,0-8.89,4A16.62,16.62,0,0,0,31.22,64a31.11,31.11,0,0,0,.37,6.68c.16,1.13,2,.85,2-.26q-.27-11.38,0-22.76a1,1,0,0,0-2,0Z"/>
      <path class="cls-1" d="M159.45,39.51l-1.37,21.07h2a27.5,27.5,0,0,1,1.3-11.75,14.21,14.21,0,0,1,6.11-7.41,5.94,5.94,0,0,1,2.82-.93,2,2,0,0,1,1.9,1,1,1,0,0,0,1.23.69,1,1,0,0,0,.7-1.23,4.25,4.25,0,0,0-5.09-2.3,12,12,0,0,0-5.28,3,18.87,18.87,0,0,0-5.43,10.88,35.17,35.17,0,0,0-.26,8,1,1,0,0,0,2,0l1.37-21.07c.09-1.29-1.91-1.28-2,0Z"/>
      <path class="cls-1" d="M79,144.07l-2.08,21h2a25.75,25.75,0,0,1,1.35-12.25c1.28-3.11,3.86-6.68,7.35-7.42,1.58-.33,3.54.33,4,2a1,1,0,0,0,1.92-.53,5.08,5.08,0,0,0-4.14-3.48,8,8,0,0,0-6.06,1.95,18,18,0,0,0-6.22,11.16,32.36,32.36,0,0,0-.23,8.57,1,1,0,0,0,2,0l2.08-21a1,1,0,0,0-2,0Z"/>
      <g>
        <path class="cls-1" d="M90.2,2.8a132.54,132.54,0,0,1,20.07,13.57,130,130,0,0,1,23.88,25.7A131.08,131.08,0,0,1,151.86,78a139.53,139.53,0,0,1,6.08,31.7,141.83,141.83,0,0,1,0,21.52c0,.55-.08,1.09-.13,1.63a1.51,1.51,0,0,0,1.5,1.5,1.53,1.53,0,0,0,1.5-1.5,143.88,143.88,0,0,0,.32-20.13A145.22,145.22,0,0,0,156,81.17,134.67,134.67,0,0,0,139.41,44.5a132.81,132.81,0,0,0-24.18-27.85A135.38,135.38,0,0,0,93.72,1.34l-2-1.13C90-.72,88.5,1.87,90.2,2.8Z"/>
        <path class="cls-2" d="M27.78,103.46a27.37,27.37,0,0,1,6.61,2.22,11.25,11.25,0,0,1,4.82,5,49.85,49.85,0,0,1,5,15.58,33.56,33.56,0,0,1,.07,9.12,1.55,1.55,0,0,0,1.05,1.84,1.52,1.52,0,0,0,1.85-1,41.23,41.23,0,0,0-1.74-17.91,61.51,61.51,0,0,0-3.35-8.4,14.55,14.55,0,0,0-5.41-6.33,27,27,0,0,0-8.16-3c-1.87-.45-2.67,2.45-.79,2.89Z"/>
        <path class="cls-1" d="M1.09,134a209.52,209.52,0,0,0,30.36,3.86c10.26.58,20.54.56,30.81.24s20.54-.93,30.8-1.54,20.72-1.16,31.09-1.5c10.59-.35,21.18-.54,31.77-.66l3.93,0a1.5,1.5,0,0,0,0-3c-10.54.11-21.07.27-31.61.58-10.36.3-20.7.79-31.05,1.39s-20.52,1.24-30.79,1.64-20.37.53-30.54.11a213.06,213.06,0,0,1-30.24-3.23c-1.25-.23-2.49-.47-3.74-.73C0,130.7-.81,133.59,1.09,134Z"/>
        <path class="cls-1" d="M2.55,133.6q10.18-11.76,19.85-24T41.19,84.75Q50.3,72.12,58.82,59.09t16.4-26.32q7.94-13.4,15.25-27.14c.6-1.12,1.19-2.24,1.78-3.36C93.15.56,90.56-1,89.66.75q-7.22,13.73-15,27.12T58.37,54.29Q50,67.27,41,79.86T22.56,104.6Q13,116.83,2.91,128.6c-.83,1-1.65,1.92-2.49,2.88a1.54,1.54,0,0,0,0,2.12,1.53,1.53,0,0,0,2.13,0Z"/>
      </g>
      <g>
        <path class="cls-1" d="M48.33,108.17a33.12,33.12,0,0,1,.79-6.87,13.68,13.68,0,0,1,.39-1.56s.14-.38.08-.3-.2,0-.09.06a.87.87,0,0,1,.17.22,16,16,0,0,1,1.39,2.81,44.71,44.71,0,0,1,2.28,6.27c.55,1.94.95,3.94,2.33,5.5.86,1,2.27-.45,1.42-1.41-1.17-1.31-1.42-3.22-1.89-4.85a50.61,50.61,0,0,0-2-5.68c-.39-.92-.81-1.83-1.26-2.72a4.09,4.09,0,0,0-1.6-2,1.83,1.83,0,0,0-2.38.77,8.7,8.7,0,0,0-.81,2.7,36.33,36.33,0,0,0-.78,7,1,1,0,0,0,2,0Z"/>
        <path class="cls-1" d="M61.33,95.74A73.6,73.6,0,0,0,67.5,110c.54,1,2.23.32,1.83-.77a33.44,33.44,0,0,1-2.2-8.34,13,13,0,0,1,.09-4c.22-.94.91-2.26,2.09-2s1.78-1.63.53-1.93A3.64,3.64,0,0,0,66,94.67a8.53,8.53,0,0,0-.92,4.8,31.6,31.6,0,0,0,2.35,10.26l1.83-.77a70.79,70.79,0,0,1-6-13.75c-.39-1.22-2.32-.7-1.93.53Z"/>
        <path class="cls-1" d="M78.46,98.58a4.32,4.32,0,0,0,1.35,4,1,1,0,0,0,1.42-1.41,22.63,22.63,0,0,0-4.72-4.5c-1.68-1.21-4.17-2.72-6.12-1.17-1.58,1.27-1.34,3.62-.53,5.25a7.09,7.09,0,0,0,11,2.12,1,1,0,0,0,0-1.42,1,1,0,0,0-1.41,0A5.14,5.14,0,0,1,72,100.42c-.54-.82-1.28-2.57-.3-3.34.51-.4,1.3-.14,1.83.11a13.31,13.31,0,0,1,2.15,1.34,21,21,0,0,1,4.17,4.09l1.42-1.41a2.29,2.29,0,0,1-.84-2.1,1,1,0,0,0-.7-1.23,1,1,0,0,0-1.23.7Z"/>
        <path class="cls-1" d="M80.2,83.41a72.18,72.18,0,0,1,6.36,12.4L88,94.68A20,20,0,0,0,82.88,92a2.37,2.37,0,0,0-2.56.2,2.52,2.52,0,0,0-.48,2.3,9.87,9.87,0,0,0,1.77,4.93A4.63,4.63,0,0,0,86,101.21c1.87-.39,2.91-2.16,3.68-3.73.55-1.16-1.17-2.17-1.73-1s-1.17,2.6-2.47,2.81c-1.46.24-2.63-1.19-3.08-2.4a12.18,12.18,0,0,1-.58-2.4s-.09-.91-.08-.9,0,0-.12.11-.1,0,0,0a2.25,2.25,0,0,0,.59.18A18.12,18.12,0,0,1,87,96.41a1,1,0,0,0,1.47-1.13A74,74,0,0,0,81.93,82.4c-.69-1.08-2.43-.08-1.73,1Z"/>
        <path class="cls-1" d="M94.35,97l-2.51-7.77a1,1,0,0,0-1.23-.7,1,1,0,0,0-.7,1.23l2.51,7.77A1,1,0,1,0,94.35,97Z"/>
        <path class="cls-1" d="M100,89.47l1.87,2.86,1.57-1.21L101,88.72c-.77-.75-1.52-1.54-2.33-2.25a2.82,2.82,0,0,0-3-.75A2.93,2.93,0,0,0,94.1,87.8c-.77,3.39.84,7.62,4.46,8.51a5.22,5.22,0,0,0,5.2-1.44,1,1,0,1,0-1.42-1.41,3.06,3.06,0,0,1-2.85,1,3.76,3.76,0,0,1-2.72-1.79A6,6,0,0,1,96,88.86a3.09,3.09,0,0,1,.14-.74.8.8,0,0,1,.12-.31,1.62,1.62,0,0,1,.1-.18l0-.06s.26-.09.08-.06a.42.42,0,0,1,.31.06,2.81,2.81,0,0,1,.7.53c1.54,1.46,3,3,4.56,4.43.79.77,2.21-.24,1.57-1.21l-1.88-2.85a1,1,0,0,0-1.72,1Z"/>
        <path class="cls-1" d="M102.62,83.89a61.05,61.05,0,0,1,3.56,9.41l1.83-.77a13.29,13.29,0,0,1-1.69-4.81,14,14,0,0,1-.13-2.42,7.63,7.63,0,0,1,.33-2.33c0-.08.07-.26.16-.28s.44.44.5.53a11.68,11.68,0,0,1,1.15,2.22,15.75,15.75,0,0,1,1.17,5.16c.06,1.28,2.06,1.29,2,0a17.64,17.64,0,0,0-1.06-5.23A18.09,18.09,0,0,0,109.35,83a5.22,5.22,0,0,0-1.53-1.89,2,2,0,0,0-2.25,0,2.89,2.89,0,0,0-1.1,1.92,15.32,15.32,0,0,0,1.81,10.6,1,1,0,0,0,1.83-.77,64.91,64.91,0,0,0-3.76-9.89,1,1,0,0,0-1.37-.36,1,1,0,0,0-.36,1.37Z"/>
        <path class="cls-1" d="M89.28,84.17a.68.68,0,0,1-.12-.12l.15.2a1,1,0,0,1-.1-.18l.1.24a.86.86,0,0,1-.06-.23l0,.26a.57.57,0,0,1,0-.26l0,.27a.72.72,0,0,1,.07-.25l-.1.24a1.62,1.62,0,0,1,.1-.18l-.16.21a.93.93,0,0,1,.14-.14l-.21.16,0,0-.77.1.17.06-.24-.1a3.05,3.05,0,0,1,.5.28l-.21-.15a1.33,1.33,0,0,1,.27.26l-.16-.21a2.39,2.39,0,0,1,.13.21l-.11-.24a1.87,1.87,0,0,1,.07.22l0-.27a.49.49,0,0,1,0,.17l0-.27,0,.13.1-.24a.41.41,0,0,1-.07.11l.16-.2-.12.12.2-.16-.17.11.23-.11a.66.66,0,0,1-.2.06l.27,0H89l.26,0a.27.27,0,0,1-.12,0l.24.1-.08,0,.21.16-.06-.06.16.2a.16.16,0,0,1,0-.07l.1.24,0-.1a1.08,1.08,0,0,0-.46-.59.63.63,0,0,0-.37-.12.69.69,0,0,0-.4,0,.94.94,0,0,0-.59.46l-.11.23a1.23,1.23,0,0,0,0,.54l0,.09a1.46,1.46,0,0,0,.14.31,1.32,1.32,0,0,0,.48.46,1.65,1.65,0,0,0,.66.17,1.68,1.68,0,0,0,.45,0,2.23,2.23,0,0,0,.43-.16,2,2,0,0,0,.37-.27A1.45,1.45,0,0,0,90.7,85a1.82,1.82,0,0,0,0-.77.74.74,0,0,0,0-.14,2.83,2.83,0,0,0-.16-.36c0-.07-.1-.14-.15-.21a1.81,1.81,0,0,0-.18-.21,2.86,2.86,0,0,0-.43-.35,3.38,3.38,0,0,0-.79-.38.83.83,0,0,0-.44,0l-.14,0-.24.1,0,0a1.42,1.42,0,0,0-.3.25,1.73,1.73,0,0,0-.3.41,2.67,2.67,0,0,0-.14.36,1.84,1.84,0,0,0-.06.4,1.5,1.5,0,0,0,0,.56.57.57,0,0,0,0,.15c0,.13.1.25.16.37a2.26,2.26,0,0,0,.23.31l.11.12a.83.83,0,0,0,.32.2.75.75,0,0,0,.39.09,1,1,0,0,0,1-1,1,1,0,0,0-.29-.71Z"/>
        <path class="cls-1" d="M52.62,119.28a19.08,19.08,0,0,1,9.28-6.21,1,1,0,0,0-.53-1.93,21,21,0,0,0-10.17,6.73,1,1,0,0,0,0,1.41,1,1,0,0,0,1.42,0Z"/>
      </g>
    </g>
  </g>
</svg>
