<svg xmlns="http://www.w3.org/2000/svg" viewBox="0 0 90.1 67.1">
  <defs>
    <style>
      .cls-1 {
        fill: #231f20;
      }
    </style>
  </defs>
  <title>Asset 1</title>
  <g id="Layer_2" data-name="Layer 2">
    <g id="Layer_1-2" data-name="Layer 1">
      <path class="cls-1" d="M17.23,47.09A105.3,105.3,0,0,1,23,32.89h-.86A60.79,60.79,0,0,1,27.65,46a.5.5,0,0,0,.61.35,35.69,35.69,0,0,1,14.29-1.6L42.12,44a23.68,23.68,0,0,1-10.23,9.9.51.51,0,0,0-.1.79l2,2.52a17.25,17.25,0,0,1,2,2.69l3,5.68.44-.75a19.81,19.81,0,0,1-15.8-9.32.5.5,0,0,0-.86,0A32.3,32.3,0,0,1,10.09,67.14l.73.56c1.25-4.67,2.47-9.35,3.63-14.05A.5.5,0,0,0,14.1,53,31.42,31.42,0,0,1,1.39,45.86l-.22.84a30,30,0,0,1,15.44.74c.61.2.88-.77.27-1a31,31,0,0,0-16-.75.5.5,0,0,0-.22.84A32.54,32.54,0,0,0,13.84,54l-.35-.61q-1.76,7-3.63,14a.5.5,0,0,0,.73.57,33.19,33.19,0,0,0,12.8-12h-.86a20.84,20.84,0,0,0,16.66,9.82.51.51,0,0,0,.43-.75l-3.07-5.9a16,16,0,0,0-1.87-2.48l-2.19-2.72-.1.79A24.59,24.59,0,0,0,43,44.46a.51.51,0,0,0-.43-.75A36.42,36.42,0,0,0,28,45.34l.61.35A61.3,61.3,0,0,0,23,32.38a.5.5,0,0,0-.86,0,107.75,107.75,0,0,0-5.88,14.45C16.06,47.44,17,47.7,17.23,47.09Z" transform="translate(-0.54 -0.96)"/>
      <path class="cls-1" d="M8.22,48.72q7,1.56,14.1,2.74c.31,0,.45-.43.13-.48q-7.1-1.17-14.1-2.74c-.32-.07-.45.41-.13.48Z" transform="translate(-0.54 -0.96)"/>
      <path class="cls-1" d="M22.27,51.16c-1.79,2-3.42,4.07-5.07,6.15a59.8,59.8,0,0,0-3.77,5.2c-.17.27.26.52.43.25,1.17-1.83,2.46-3.53,3.8-5.23,1.61-2,3.21-4.08,5-6,.22-.24-.14-.6-.35-.36Z" transform="translate(-0.54 -0.96)"/>
      <path class="cls-1" d="M22.36,51.41c3.1,3.28,6.7,6,9.86,9.21.23.23.58-.13.35-.36-3.15-3.21-6.76-5.93-9.86-9.2-.22-.23-.58.12-.35.35Z" transform="translate(-0.54 -0.96)"/>
      <path class="cls-1" d="M22.45,51.46,35.72,47.3c.31-.1.18-.58-.13-.49L22.32,51a.25.25,0,0,0,.13.48Z" transform="translate(-0.54 -0.96)"/>
      <path class="cls-1" d="M22.76,50.94q-.11-5.76.12-11.52h-.5v.28a.25.25,0,0,0,.5,0v-.28a.25.25,0,0,0-.5,0q-.22,5.76-.12,11.52c0,.32.51.32.5,0Z" transform="translate(-0.54 -0.96)"/>
      <path class="cls-1" d="M65.37,43.26A38.72,38.72,0,0,1,71,29.56l-.91-.12L75,43.78a.5.5,0,0,0,.61.35,34,34,0,0,1,14.51-1.48l-.43-.75a21.19,21.19,0,0,1-11,8.06.51.51,0,0,0-.22.84,50.48,50.48,0,0,1,9,11.69l.56-.73a71.1,71.1,0,0,1-16.23-8.54.53.53,0,0,0-.69.18A22.48,22.48,0,0,1,59,62l.62.62a25.06,25.06,0,0,1,5.1-12,.52.52,0,0,0-.22-.84L49.19,44.66v1a51.73,51.73,0,0,1,15.7-2c.64,0,.64-1,0-1a52.26,52.26,0,0,0-16,2,.5.5,0,0,0,0,1l15.31,5.15L64,49.94a26.13,26.13,0,0,0-5.36,12.39.52.52,0,0,0,.62.62,23.6,23.6,0,0,0,12.69-9l-.68.18a72.13,72.13,0,0,0,16.48,8.63c.42.16.76-.38.56-.73a51.27,51.27,0,0,0-9.11-11.9l-.23.83A22.25,22.25,0,0,0,90.56,42.4c.24-.34-.09-.71-.43-.75a34.72,34.72,0,0,0-14.77,1.51l.61.35L71,29.17a.5.5,0,0,0-.91-.11A39.59,39.59,0,0,0,64.4,43C64.28,43.62,65.24,43.89,65.37,43.26Z" transform="translate(-0.54 -0.96)"/>
      <path class="cls-1" d="M70.76,45.89l.15-11a.25.25,0,0,0-.5,0l-.15,11a.25.25,0,0,0,.5,0Z" transform="translate(-0.54 -0.96)"/>
      <path class="cls-1" d="M70.71,46.19c4.14.44,8-1.41,12.12-1.58.32,0,.33-.52,0-.5-4.08.17-8,2-12.12,1.58-.32,0-.31.46,0,.5Z" transform="translate(-0.54 -0.96)"/>
      <path class="cls-1" d="M70.27,46.06a126.59,126.59,0,0,0,9,10.36c.22.23.56-.11.35-.35l-.37-.43c-.21-.25-.56.11-.35.35l.37.43.35-.35a125,125,0,0,1-9-10.37c-.2-.25-.55.11-.36.36Z" transform="translate(-0.54 -0.96)"/>
      <path class="cls-1" d="M64.26,57.62c1.55-4.22,4.82-7.51,6.49-11.66.12-.3-.36-.43-.48-.14C68.6,50,65.33,53.26,63.78,57.48c-.11.31.37.44.48.14Z" transform="translate(-0.54 -0.96)"/>
      <path class="cls-1" d="M57.63,45.75a29.66,29.66,0,0,0,6.18.42q3.3.07,6.6,0a.25.25,0,0,0,0-.5q-3.18.06-6.36,0c-1,0-2.11-.06-3.17-.1a15.49,15.49,0,0,1-3.12-.3.25.25,0,0,0-.13.48Z" transform="translate(-0.54 -0.96)"/>
      <path class="cls-1" d="M39.41,15.61q2.64-7,5.79-13.9l-.91-.12a120.87,120.87,0,0,0,4,12.16.52.52,0,0,0,.62.35L63.73,9.76,63.16,9A28.93,28.93,0,0,1,52.27,19.59a.51.51,0,0,0-.18.69A44.91,44.91,0,0,1,59.3,34.2l.61-.61a36.8,36.8,0,0,1-15-11.1c-.22-.28-.61-.12-.78.1A78.58,78.58,0,0,1,31.34,35.68l.85.35a7.79,7.79,0,0,1,.86-3.36l1.36-3.31,2.78-6.75a.5.5,0,0,0-.35-.61,37.49,37.49,0,0,1-13.67-5.92l-.11.91A29.28,29.28,0,0,1,38.8,16c.63.13.89-.83.26-1a30.33,30.33,0,0,0-16.27,1,.5.5,0,0,0-.12.91,38,38,0,0,0,13.9,6l-.34-.61-2.88,7c-.47,1.14-.94,2.28-1.4,3.42A7.7,7.7,0,0,0,31.19,36a.5.5,0,0,0,.85.35A79.53,79.53,0,0,0,45,23.1l-.79.1A37.73,37.73,0,0,0,59.65,34.55c.35.14.72-.28.61-.61A45.79,45.79,0,0,0,53,19.77l-.18.69A30.06,30.06,0,0,0,64,9.53a.51.51,0,0,0-.57-.74L48.64,13.13l.62.35a120.75,120.75,0,0,1-4-12.15.5.5,0,0,0-.91-.12q-3.21,7-5.89,14.13C38.22,16,39.19,16.21,39.41,15.61Z" transform="translate(-0.54 -0.96)"/>
      <path class="cls-1" d="M43.62,7.59c-.08,3.59-.5,7.26-.06,10.84,0,.32.54.32.5,0-.44-3.58,0-7.25.06-10.84a.25.25,0,0,0-.5,0Z" transform="translate(-0.54 -0.96)"/>
      <path class="cls-1" d="M44.07,18.83q6.47-1.92,12.71-4.47l-.19-.46-.22.09c-.3.13,0,.56.25.43l.22-.09c.26-.11.07-.56-.19-.46a130.44,130.44,0,0,1-12.72,4.47.26.26,0,0,0,.14.49Z" transform="translate(-0.54 -0.96)"/>
      <path class="cls-1" d="M43.86,18.61l4.61,4.48a30.83,30.83,0,0,1,4.06,4.48c.18.26.61,0,.43-.25a31,31,0,0,0-4-4.47l-4.72-4.59c-.24-.23-.59.13-.36.35Z" transform="translate(-0.54 -0.96)"/>
      <path class="cls-1" d="M36.79,28.85l7.42-10.14c.2-.26-.24-.51-.43-.25L36.35,28.59c-.19.26.25.51.44.26Z" transform="translate(-0.54 -0.96)"/>
      <path class="cls-1" d="M29.25,18.36a56.07,56.07,0,0,0,15.09.36c.31,0,.32-.54,0-.5a55.53,55.53,0,0,1-15-.34c-.31-.05-.45.43-.13.48Z" transform="translate(-0.54 -0.96)"/>
    </g>
  </g>
</svg>
