<svg id="Layer_1" data-name="Layer 1" xmlns="http://www.w3.org/2000/svg" viewBox="0 0 443.47 275.29">
  <defs>
    <style>
      .cls-1 {
        fill: #939598;
      }

      .cls-2 {
        fill: #ed1c24;
      }

      .cls-3 {
        fill: #00a651;
      }

      .cls-4 {
        fill: #00aeef;
      }
    </style>
  </defs>
  <title>barak-physics-x-v-a-diagram</title>
  <g>
    <path class="cls-1" d="M7.71,179.59Q63.33,182,119,182.16c39.29.17,78.58,0,117.87-.15q28.16-.1,56.32-.27c5.35,0,10.7,0,16.05.1,35.62.92,71.2,1.47,106.84.58,4.29-.1,8.59-.23,12.88-.36,1.93-.07,1.94-3.07,0-3-37.87,1.21-75.73,1-113.61-.05-6.43-.18-12.85-.32-19.29-.29-16.07.07-32.14.19-48.21.25-39.42.15-78.85.3-118.28.22-34.5-.07-69-.61-103.48-1.87q-9.21-.33-18.4-.73c-1.93-.08-1.93,2.92,0,3Z" transform="translate(-5.71 -10.04)"/>
    <path class="cls-1" d="M18.31,167.79c-3.69,2.77-7.46,5.49-11,8.48a6.19,6.19,0,0,0-1,1.06,2.51,2.51,0,0,0-.47,2.25,3,3,0,0,0,1.28,1.53l.38.28.29.22.14.1c.22.17-.27-.21,0,0,.66.51,1.31,1,2,1.56,2.33,1.88,4.65,3.79,7,5.69A1.54,1.54,0,0,0,19,189a1.51,1.51,0,0,0,0-2.12c-3.24-2.67-6.46-5.39-9.81-7.92l-.43-.33a1.88,1.88,0,0,1-.18-.12s.13.27,0,0a2,2,0,0,1,.09.63s-.24.2,0,0l.09-.1.15-.14.47-.42c1.17-1,2.39-1.94,3.61-2.88,2.17-1.68,4.55-3.48,6.82-5.18a1.54,1.54,0,0,0,.54-2,1.51,1.51,0,0,0-2.05-.54Z" transform="translate(-5.71 -10.04)"/>
    <path class="cls-1" d="M417.31,173.17l5.65,3.91,2.83,2c.54.37,1.59.94,1.67,1.42,0,.15.05-.05,0,.22a2.63,2.63,0,0,1-.24.4,6.27,6.27,0,0,1-.82.89L424,184.3c-1.36,1.33-2.72,2.68-4.13,4a1.52,1.52,0,0,0,0,2.13,1.54,1.54,0,0,0,2.12,0c1.61-1.47,3.16-3,4.72-4.54s4.17-3.4,3.7-6a4.39,4.39,0,0,0-2-2.64c-1-.74-2.08-1.44-3.12-2.16l-6.47-4.47a1.5,1.5,0,0,0-2.05.53,1.54,1.54,0,0,0,.54,2.06Z" transform="translate(-5.71 -10.04)"/>
  </g>
  <g>
    <path class="cls-2" d="M54.6,79.46C62.52,95.62,72.94,110.78,84,125c10.11,13,22.86,26.76,39.59,30.58,18.1,4.13,34.14-5.85,47.07-17.48a113.46,113.46,0,0,0,12.28-12.33,95.1,95.1,0,0,0,8-11.92c8-13.67,16.09-27.33,24.83-40.56,4.46-6.74,9.33-13.42,15.47-18.75,5.77-5,12.81-8.28,20.53-6.35,13.62,3.42,23.07,15.05,32.66,24.39,5.86,5.71,11.75,11.37,18.11,16.53,7.76,6.28,16.42,12,26.26,14.32a49.86,49.86,0,0,0,12.95,1.18c3.77-.11,7.53-.51,11.31-.39A25.18,25.18,0,0,1,364,107a17.71,17.71,0,0,1,4.35,3c5.28,4.94,9.34,11.35,13.31,17.33a261.13,261.13,0,0,1,14,23.77q3.82,7.33,7.2,14.88c.79,1.76,3.38.24,2.59-1.51-7.86-17.51-17.4-34.58-29.13-49.82-2.67-3.47-5.46-7-9.25-9.33-6.92-4.2-14.32-4.24-22.14-3.82a58.51,58.51,0,0,1-12.55-.34,46.84,46.84,0,0,1-14.67-5.16c-7.72-4.18-14.57-9.85-21.05-15.73s-12.8-12.16-19-18.45a78.26,78.26,0,0,0-10.68-9.23c-6.82-4.83-15.17-9.14-23.77-7.66C236,46.1,229.9,51.1,225,56.29c-5.54,5.87-10.11,12.6-14.43,19.4-4.64,7.31-9.28,14.64-13.75,22.07-5.75,9.56-10.67,20.07-18.21,28.41a139.43,139.43,0,0,1-14.46,13.56c-6.87,5.69-14.65,10.7-23.42,12.8-18.07,4.33-33.9-6.44-45.68-19.08A194.19,194.19,0,0,1,78.76,112.9c-5.69-8.05-11.21-16.21-16.12-24.76-1.92-3.34-3.75-6.74-5.45-10.2-.85-1.73-3.44-.21-2.59,1.52Z" transform="translate(-5.71 -10.04)"/>
    <path class="cls-2" d="M52.38,92l4.07-16.85-2.2.89q6,4.58,12.34,8.72a1.5,1.5,0,0,0,2-.54,1.52,1.52,0,0,0-.54-2Q61.79,78,55.77,73.46a1.52,1.52,0,0,0-2.21.9L49.49,91.21c-.46,1.88,2.44,2.68,2.89.8Z" transform="translate(-5.71 -10.04)"/>
    <path class="cls-2" d="M391.82,161.4l11.88,8.34a1.51,1.51,0,0,0,1.82-.24A55.25,55.25,0,0,0,413.73,156a1.57,1.57,0,0,0-.54-2.06,1.52,1.52,0,0,0-2.06.54,52.55,52.55,0,0,1-7.73,12.86l1.82-.23-11.89-8.34a1.51,1.51,0,0,0-2.05.54,1.52,1.52,0,0,0,.54,2.05Z" transform="translate(-5.71 -10.04)"/>
  </g>
  <g>
    <path class="cls-3" d="M101.52,50.79c9.69,14.22,18.92,28.74,27.91,43.42,8.21,13.39,16.47,26.75,25.12,39.86,1.44,2.19,3,4.31,4.52,6.44q9.84,13.71,19.72,27.38c5.29,7.35,10.46,14.79,15.94,22a200.61,200.61,0,0,0,19.87,22.44,111.09,111.09,0,0,0,17.24,13.87c6.39,4.1,13.56,7.54,21.16,8.48a24.25,24.25,0,0,0,12.08-1.35,23.28,23.28,0,0,0,9.5-7.4,81.06,81.06,0,0,0,7.21-11.6,55,55,0,0,0,3-6.81c3.29-8.61,6-17.46,8.88-26.21a58.36,58.36,0,0,1,3.52-9.13,39.28,39.28,0,0,1,5.37-7.56A21.68,21.68,0,0,1,327.21,158c7.09,2.43,11.72,8.27,14.45,15.07s4.5,14.06,6.37,21.11q3.63,13.67,6.47,27.51,1.68,8.14,3.12,16.34c.22,1.26,2.15.73,1.93-.54a506.73,506.73,0,0,0-12.73-55.07c-2.17-7.35-4.4-15.09-9.93-20.69a25.1,25.1,0,0,0-19.71-7A23.2,23.2,0,0,0,304.49,160a39.53,39.53,0,0,0-6.95,7.88c-4.21,5.92-5.93,13.38-8.17,20.17-2.49,7.56-4.73,15.34-8,22.62a81.39,81.39,0,0,1-5.1,9.29c-2.26,3.7-4.88,7.36-8.55,9.79-7.29,4.8-16.39,3.48-24.08.43a72.33,72.33,0,0,1-16.16-9.4c-15.12-11.18-27-26.11-37.91-41.26q-13-18-25.94-36c-2.27-3.16-4.6-6.3-6.79-9.53-7.28-10.73-14-21.85-20.86-32.88-8.66-14-17.23-28-26.35-41.76q-3.17-4.77-6.39-9.5c-.72-1.06-2.46-.06-1.73,1Z" transform="translate(-5.71 -10.04)"/>
    <path class="cls-3" d="M102.32,59.39A32,32,0,0,1,102,49.06l-1.23.7,10.83,4.06a1,1,0,0,0,1.23-.7,1,1,0,0,0-.7-1.23l-10.83-4.06a1,1,0,0,0-1.23.7,35.12,35.12,0,0,0,.29,11.39,1,1,0,1,0,1.93-.53Z" transform="translate(-5.71 -10.04)"/>
    <path class="cls-3" d="M352.57,234.44c1.8,2,3.65,3.94,5.54,5.85a1,1,0,0,0,1.57-.2c1.62-2.35,3.23-4.7,4.85-7a1,1,0,0,0-1.73-1q-2.43,3.51-4.84,7l1.57-.21Q356.68,236,354,233c-.86-1-2.27.46-1.41,1.41Z" transform="translate(-5.71 -10.04)"/>
  </g>
  <g>
    <path class="cls-4" d="M96.3,241.54a204.19,204.19,0,0,1,17.86-35.85c9.61-15.22,21.63-29.09,36.43-39.45,10.76-7.53,22.92-13.55,36.07-15.13,16.05-1.92,31,4.93,43.28,14.71a78.74,78.74,0,0,1,15.17,16,58.94,58.94,0,0,1,5.57,9.52c1.23,2.73,2.18,5.57,3.18,8.38a131.61,131.61,0,0,0,10.71,22.17c3.88,6.67,8.25,14.35,15,18.47,13.75,8.34,25.87-8.44,32.79-18.11,4.28-6,7.24-12.63,11-18.92A67.52,67.52,0,0,1,331,192.93c2.62-3,5.45-6,8.91-8,6.77-3.86,14,.13,19.33,4.67a50,50,0,0,1,7.67,7.93,89.56,89.56,0,0,1,9,15.56,220.89,220.89,0,0,1,9.42,23.57q2.29,6.76,4.22,13.66a1,1,0,0,0,1.93-.53,256.49,256.49,0,0,0-8.46-25.22,156.15,156.15,0,0,0-10.36-22,55.24,55.24,0,0,0-7.49-10.22c-4-4.19-8.86-8.48-14.46-10.27a14.77,14.77,0,0,0-9.54,0,23.16,23.16,0,0,0-7.69,5.31,76.87,76.87,0,0,0-14.76,20.12A129.09,129.09,0,0,1,307,226.29c-4.39,5.72-10.09,12.67-17.58,14.08-7.89,1.48-13.84-5.43-17.87-11.21-2.67-3.84-5-7.9-7.3-12a114.42,114.42,0,0,1-6.26-12.35c-2.43-5.85-4.05-12-7.06-17.6a73.3,73.3,0,0,0-12.77-16.79,87.28,87.28,0,0,0-18-13.71,57.48,57.48,0,0,0-22-7.65c-14.64-1.74-29.1,3.51-41.51,10.87-14.52,8.61-26.79,20.48-36.85,34a192.69,192.69,0,0,0-22.65,40.19q-1.44,3.42-2.78,6.89c-.46,1.2,1.47,1.72,1.93.53Z" transform="translate(-5.71 -10.04)"/>
    <path class="cls-4" d="M91.61,235.62a42.16,42.16,0,0,0,1,4.57c.32,1.17.6,3.18,2,3.52.8.19,1.39-.33,2-.76l2-1.44,4-2.88a1,1,0,0,0,.35-1.36,1,1,0,0,0-1.36-.36l-3.35,2.43-1.67,1.22-.92.66c-.12.09-.73.42-.76.55s-.06.08.26,0l.16.09s-.11-.18-.12-.2a6.57,6.57,0,0,1-.23-.71c-.19-.63-.37-1.27-.53-1.9-.33-1.31-.6-2.63-.8-4a1,1,0,0,0-1.23-.7,1,1,0,0,0-.7,1.23Z" transform="translate(-5.71 -10.04)"/>
    <path class="cls-4" d="M383.42,246.89l6.72,4.7a1,1,0,0,0,1.37-.36,59.87,59.87,0,0,1,4-7.44c.69-1.09-1-2.1-1.72-1a58.64,58.64,0,0,0-4,7.44l1.37-.36-6.72-4.7a1,1,0,0,0-1.37.36,1,1,0,0,0,.36,1.37Z" transform="translate(-5.71 -10.04)"/>
  </g>
  <path class="cls-2" d="M129,155s-.11-.11,0,0l-.09-.09-.08-.09s.09.16,0,0-.08-.21,0,0c0-.11-.06-.21-.08-.32,0,.2,0,0,0-.11s0-.31,0-.11a2,2,0,0,1,0-.24l.06-.16c0,.1,0,.06,0,0a2.75,2.75,0,0,1,.17-.29c.06-.1,0,0,0,0a.93.93,0,0,1,.13-.15,3.71,3.71,0,0,1,.5-.47c-.11.09.12-.08.16-.1a2.82,2.82,0,0,1,.29-.18l.29-.17.13-.06c-.09,0,0,0,0,0l.32-.1c.14-.05-.13,0,0,0H131s-.16-.05-.05,0h0c.1,0,.12,0,.05,0l-.1-.07c.15.1,0,0,0,0s0,0,0,0,0,.09.05.13.05.22.07.33c0-.19,0,.1,0,.15s0,.25,0,.38,0,.22,0,.33,0,.28,0,.11a4.26,4.26,0,0,1-.15.69c0,.1-.06.21-.1.31s0-.07,0,.1-.1.19-.16.28a.75.75,0,0,1-.07.12l-.08.12,0,0-.12.14-.2.19,0,0-.09.06-.27.16-.1.05c.2-.09.07,0,0,0l-.22.07s-.31.06-.17,0,0,0-.06,0h-.43c-.18,0,.18,0-.07,0l-.22-.06-.15,0s-.16-.09-.05,0l-.14-.09-.1-.06c-.12-.05.12.12,0,0l-.16-.15s-.13-.15,0,0,0,0,0-.05-.13-.24-.07-.1a2,2,0,0,1-.11-.37c0-.11,0,0,0,0a1.62,1.62,0,0,1,0-.22v-.17a.94.94,0,0,1,0-.14,3.42,3.42,0,0,1,.14-.58l0-.14s-.07.15,0,0a2.11,2.11,0,0,1,.18-.33s.17-.23.07-.11l.23-.24a.94.94,0,0,0,.1-.1c-.11.11,0,0,0,0l.32-.19c-.14.08,0,0,.09,0s.32-.07.21-.06.15,0,.21,0h.13c.14,0-.21,0,0,0l.25.07c.17,0,0,0,0,0l.11.06c.06,0,.25.18.11.06,0,0,.25.26.15.12,0,.07.09.15.14.23s0,.05,0,0,0,.08.05.13a1.55,1.55,0,0,1,.06.31c0-.2,0,.12,0,.19s0,.22,0,.33,0,0,0,0a.78.78,0,0,0,0,.14c-.05.24-.11.48-.18.71s-.07.21-.11.31l-.06.14h0a5.12,5.12,0,0,1-.3.57l-.1.15s-.09.13,0,.05,0,0,0,0l-.12.13-.19.18c.14-.13-.09,0-.15.08s-.14,0,0,0a.42.42,0,0,1-.12,0c-.09,0,0,0,.06,0h-.17c-.18,0,.12.06,0,0l-.14,0c.07,0,.13.07,0,0s-.14-.1,0,0l-.09-.08c0-.05-.18-.21-.07-.05l-.13-.2a.61.61,0,0,0-.07-.14c0,.07,0,.12,0,0a2.68,2.68,0,0,0-.07-.27c0-.1,0,0,0,.06s0-.1,0-.16,0-.32,0-.19,0-.14.05-.19l.06-.18v0l.16-.29.14-.21,0,0,.16-.18a6,6,0,0,1,.46-.42l.06,0,.09-.06.32-.22.26-.16.19-.1s.2-.08,0,0c.07,0,.1,0,.06,0l-.11,0-.08-.07c.06.07.07.08,0,0s0,0,0,0-.06-.22,0,0,0,.23,0,.06a2.8,2.8,0,0,1,0,.29.62.62,0,0,1,0,.13c0,.31,0-.1,0,.08a3.6,3.6,0,0,1-.15.63c0,.11-.07.22-.11.33s0,0,0,0-.07.16-.11.23a5.15,5.15,0,0,1-.33.56l-.11.17s.07-.09,0,0a3.88,3.88,0,0,1-.26.31l-.25.24s-.21.18-.11.1a2.61,2.61,0,0,1-.3.2c-.15.08.11,0,0,0l-.12,0c.09,0,0,0,0,0h.12l-.07,0s-.13-.08,0,0l0,0c-.09-.06.06,0,.06.05s-.06-.05-.08-.08.08.15,0,0a.57.57,0,0,0-.08-.13s-.08-.18,0-.06,0,0,0,0-.07-.31,0-.18,0-.14,0-.18,0-.15,0,0,0,0,0,0,.12-.3,0-.17a2.82,2.82,0,0,1,.18-.29l.08-.12s-.1.11,0,0l.27-.29c.16-.15.33-.29.5-.43l.27-.22c-.14.11.11-.06.15-.09l.22-.12s.17-.06,0,0l.12,0c.1,0,.28,0,.08,0a.41.41,0,0,1,.11,0c.13,0-.25-.07,0,0a.48.48,0,0,1-.28-.22c.12.2,0-.15,0-.15s0,.16,0,.07-.12.29,0,.12a1.92,1.92,0,0,1-.18.31c-.09.15,0,0-.07.09l-.13.13,0,0c.09-.07-.06,0-.08.05l-.12.07c.16-.09-.1,0-.18,0s.15,0,0,0,.15.05,0,0l-.13,0s.13.07,0,0l-.08,0,0,0s-.11-.11,0,0,0-.09-.06-.11,0,.15,0,0,0,.17,0,0,0,0,0,.06,0-.09,0,0,0-.12,0,.06-.06.06,0,0l-.05,0c-.07,0-.07.06,0,0l.06,0-.12.05.09,0c.08,0,.11-.08,0,0s-.1,0,0,0,.19,0-.08,0c.16,0-.15-.11,0,0,0,0-.17-.16-.06,0a.76.76,0,0,1-.13-.23,1,1,0,0,0,1.93-.54,1.74,1.74,0,0,0-1.7-1.16,1.87,1.87,0,0,0-1.29,3.27,2.34,2.34,0,0,0,2.16.66c1.47-.28,2.91-2.26,2.05-3.69a1.8,1.8,0,0,0-2.07-.68,4.7,4.7,0,0,0-1.74,1c-1.09.88-2,2.21-1.55,3.67a2.4,2.4,0,0,0,1.19,1.49,2.27,2.27,0,0,0,2.36-.28,6,6,0,0,0,2.32-3.6,3.46,3.46,0,0,0-.14-2.16,1.8,1.8,0,0,0-2.21-.91,5.49,5.49,0,0,0-1.87,1.16,4.56,4.56,0,0,0-1.27,1.62,3.16,3.16,0,0,0,.74,3.69,2.41,2.41,0,0,0,2.11.52,3,3,0,0,0,1.68-1.19,5.9,5.9,0,0,0,1.23-3.81,3.21,3.21,0,0,0-.85-2.06,3.08,3.08,0,0,0-1.92-.87,3.53,3.53,0,0,0-3.42,2,3.77,3.77,0,0,0,.38,4.29A3.64,3.64,0,0,0,130,158a4.18,4.18,0,0,0,2.78-2.72,6,6,0,0,0,.34-2,3.54,3.54,0,0,0-.48-2.09c-1-1.48-3-.75-4.15.13a3.7,3.7,0,0,0-1.68,3.77,2.69,2.69,0,0,0,1.17,1.64,1,1,0,0,0,1.37-.36A1,1,0,0,0,129,155Z" transform="translate(-5.71 -10.04)"/>
  <path class="cls-4" d="M130.81,180.44a3.32,3.32,0,0,1,.55-1.81,1.33,1.33,0,0,1,.57-.43c-.11.05,0,0,.06,0s.3-.08.18-.06.21,0,.18,0h.11c-.08,0-.08,0,0,0a.5.5,0,0,1,.29.13c-.09-.06.12.12.16.18-.09-.12,0,.06,0,.09a2.4,2.4,0,0,1,.11.23c0-.05,0-.11,0,.06s.06.2.08.31.08.39.06.27c0,.16,0,.32,0,.48a9,9,0,0,1,0,1.27,4,4,0,0,1-.64,1.93,2.28,2.28,0,0,1-1.25.9,1.11,1.11,0,0,1-.65,0,1.7,1.7,0,0,1-.66-.32,1.74,1.74,0,0,1-.5-.59,1.51,1.51,0,0,1-.19-.74,2,2,0,0,1,.58-1.34,1.73,1.73,0,0,1,1.32-.59l.24.07c-.21-.09.06.1,0,0s.24.31.1.1a1.19,1.19,0,0,1,.09.15s-.05-.18,0,0a.84.84,0,0,0,.05.17c.06.21,0-.1,0,.1v.18c0,.27,0-.1,0,0a.9.9,0,0,1-.06.22s.09-.14,0,0a1.19,1.19,0,0,1-.09.15c.09-.12,0,0,0,0-.26.21.08,0-.08.07l-.22.13c.12-.06-.07,0-.1,0l-.26.07s-.19,0,0,0h-.43c.16,0-.06,0-.1,0l-.21-.05-.15-.06c.06,0,.06,0,0,0a1.29,1.29,0,0,1-.3-.21c.06.06-.11-.13,0,0-.05-.11,0-.16,0-.06s.07-.13.08-.14a2.33,2.33,0,0,1,.33-.4,3,3,0,0,1,1.47-1.07c-.17,0,.17,0,.23,0-.17,0,0,0,.08,0s-.12-.06,0,0l.07,0s.16.12,0,0a.09.09,0,0,1,0,.12,2.52,2.52,0,0,1-.53,1,2.18,2.18,0,0,1-.63.65c-.16.08.1,0-.07,0s-.07,0,0,0h-.17c.12,0,.13,0,0,0,.06,0,.13.08,0,0s.14.17,0,0c0,0-.18-.23-.07-.06l-.09-.16s-.12-.27-.06-.09a1.21,1.21,0,0,1-.05-.18s-.05-.3,0-.09a1.28,1.28,0,0,1,0-.19s0-.29,0-.1a1,1,0,0,1,.12-.33l.11-.19c.09-.14,0,0,.12-.15a6.13,6.13,0,0,1,1.88-1.28L131,178.6l.12.22c.07.15,0-.11,0,0a3.6,3.6,0,0,1,.12.44c0-.17,0,0,0,.09v.25c0,.06,0,.13,0,.2,0-.14,0,0,0,.08a3.22,3.22,0,0,1-.14.44c0-.1,0,0,0,0a1.59,1.59,0,0,1-.13.22,1.76,1.76,0,0,1-.44.46l1.47.6a1.57,1.57,0,0,1-.08-.31c0,.17,0-.14,0-.15a1.1,1.1,0,0,1,.09-.4,1.2,1.2,0,0,1,.49-.55l-1.21-.16a1.32,1.32,0,0,1,.06,1.44l1.57-.21a1.56,1.56,0,0,1-.69-1.34l-1.51.86a.66.66,0,0,1,.3.35c-.05-.11,0,.18,0,.18s0-.07,0,.05c0-.06,0-.06,0,0-.06.33-.26.47-.6.54a1,1,0,0,0-.72.83,1,1,0,0,0,.48,1,3.47,3.47,0,0,0,2.69.55,1,1,0,0,0,.6-1.47,5.54,5.54,0,0,0-2.16-1.94,1,1,0,0,0-1.37.36,1,1,0,0,0,.36,1.37,3.45,3.45,0,0,1,1.44,1.22l.6-1.47a1.52,1.52,0,0,1-1.15-.34l-.24,1.83a2.61,2.61,0,0,0,2-2,2.64,2.64,0,0,0-1.26-2.73,1,1,0,0,0-1.5.86,3.45,3.45,0,0,0,1.27,2.76,1,1,0,0,0,1.57-.2,3.3,3.3,0,0,0-.37-3.86,1,1,0,0,0-1.21-.16,3.21,3.21,0,0,0-1.43,3.67,1,1,0,0,0,1.47.6,4,4,0,0,0,1.24-5.21,1,1,0,0,0-1.37-.36,7.37,7.37,0,0,0-2.51,1.87,3,3,0,0,0-.55,2.9,2.58,2.58,0,0,0,2.27,1.84c1.22,0,2-1,2.66-1.94a2.52,2.52,0,0,0-.09-3.36,2.78,2.78,0,0,0-3.2-.18,6.18,6.18,0,0,0-1.31,1.09,3.9,3.9,0,0,0-1,1.48c-.43,1.33.66,2.43,1.83,2.83a3.45,3.45,0,0,0,3-.41,2.84,2.84,0,0,0,1.15-2.83,2.5,2.5,0,0,0-1.95-2.07,3.64,3.64,0,0,0-3.24,1.15,3.94,3.94,0,0,0-1.12,2.93,3.83,3.83,0,0,0,1.64,2.82c1.95,1.4,4.52.33,5.55-1.66a7.41,7.41,0,0,0,.72-3.57,4.9,4.9,0,0,0-.89-3,2.7,2.7,0,0,0-3-.84,3.76,3.76,0,0,0-2.3,2.46,6.67,6.67,0,0,0-.3,1.72,1,1,0,0,0,1,1,1,1,0,0,0,1-1Z" transform="translate(-5.71 -10.04)"/>
  <path class="cls-4" d="M243.65,181a3.21,3.21,0,0,1,.36-.59c-.1.13.1-.1.13-.13l.28-.28.09-.07.06,0,.29-.19.31-.15,0,0,.18-.06.38-.1s.29,0,.13,0h.44c.06,0,.06,0,0,0s-.5-.27-.42-.44c0,0,0,.35,0,.25s0,0,0,.05,0,.12-.05.18a.65.65,0,0,1,0,.13c0,.15.07-.12,0,0a2.59,2.59,0,0,1-.19.33l-.08.12c.09-.13,0,0,0,0s-.15.16-.23.23l-.11.1c.12-.1,0,0,0,0l-.33.19s-.18.08,0,0l-.14.05a2.85,2.85,0,0,1-.39.11,3.17,3.17,0,0,1-.72.06,5.51,5.51,0,0,1-1.53-.32l-.06,0c-.16,0,0,0,0,0s.17.68.11.68,0,0,0-.05a2.44,2.44,0,0,1,.27-.29.52.52,0,0,1,.11-.1s.18-.16.06-.06a3.88,3.88,0,0,1,.67-.41l.18-.09c-.1,0,0,0,0,0s.25-.09.38-.12l.38-.08c-.17,0,0,0,0,0l.24,0H245c-.19,0,.12,0,.13,0l-.74-1a3.81,3.81,0,0,1,0,.59c0,.09,0,.19,0,.29,0-.19,0,.08,0,.12a4.74,4.74,0,0,1-.16.57c-.09.28.08-.13-.05.13l-.14.26a2.13,2.13,0,0,1-.16.25s-.19.24-.08.11c-.13.15-.27.29-.41.43s.13-.07-.11.08l-.22.14c-.18.12.14,0-.07,0l-.24.07c.17,0,0,0-.06,0h.12c-.11,0-.1,0,0,0s.17.27.11.1l.06.22c0,.1,0,.09,0,0-.06.15.07-.13.08-.14s.18-.26.09-.15c.14-.17.28-.33.43-.49a3.48,3.48,0,0,1,.86-.69.94.94,0,0,1,.42-.16c.07,0,.07,0,0,0h.3c-.1,0-.08,0,0,0l-.73-1c0,.12,0,.14,0,0a1.18,1.18,0,0,1,0,.2c0,.14-.07.27-.11.4s-.05.13,0,.05l-.09.19L244,181c-.08.1-.08.12,0,.05l-.14.16a2.68,2.68,0,0,1-.3.28l0,0-.14.09c-.1,0-.1,0,0,0l-.17,0c.13,0,.14,0,0,0a.34.34,0,0,1,.22,0,.49.49,0,0,1,.26.42c0-.12,0-.13,0,0a4.54,4.54,0,0,1,.19-.81c0-.13.08-.26.13-.39s.05-.13,0,0l.09-.18s.22-.32.13-.21l.14-.15c.08-.07.09-.08,0,0s.17-.09.2-.11c-.18.09.14,0,.19,0-.22.05.1,0,.17,0-.13,0-.13,0,0,0s.11,0,0,0c.09.06.09.06,0,0,.08.08.08.08,0,0l.09.15c-.05-.11-.05-.1,0,0,0-.12,0-.12,0,0s0,.12,0,0a1.4,1.4,0,0,1-.1.35c.08-.18-.1.15-.12.18s-.07.11,0,0l-.13.14a1.59,1.59,0,0,0-.13.13c.08-.07.08-.07,0,0s-.35.18-.14.1a3,3,0,0,1-.32.09c.23-.06-.07,0-.14,0,.13,0,.15,0,0,0s-.1,0,0,0l0,0c.07.11.08.12,0,0v1l.12-.21s.15-.19,0-.07a2.91,2.91,0,0,1,.3-.31l.18-.16c-.08.07,0,0,0,0l.42-.25c.06,0,.13,0,0,0l.23-.08a3.25,3.25,0,0,1,.42-.11c.29-.06-.1,0,.07,0h.43s.32,0,.12,0l-.7-.7.08.29c.06.29,0-.15,0,.14,0,.1,0,.2,0,.3s0,.34,0,.14a4.37,4.37,0,0,1-.12.49s-.12.3-.05.13a2.47,2.47,0,0,1-.19.36,1.64,1.64,0,0,1-.58.56c-.25.15.12,0-.15.06s.13,0-.13,0h-.09c.1,0,.09,0,0,0l.07,0c-.1-.06-.1-.06,0,0l-.06-.06c.06.09.06.09,0,0l0-.07h0c0-.05,0-.31,0-.08a1.22,1.22,0,0,1,0-.27c0,.07,0,.15,0,0s-.12.14,0-.11c0,0,.18-.26.06-.11a1.72,1.72,0,0,1,.27-.27c-.15.12.1-.06.11-.07l.17-.09c.25-.15-.15,0,.12-.06l.3-.09c.25-.08-.12,0,.14,0,0,0,.34,0,.14,0l.2.05c-.09,0-.07,0,0,0-.09-.07-.1-.07,0,0l-.05-.07c.05.1.05.1,0,0l0,.08c0-.13,0-.14,0,0l0-.11c0,.11,0,.1,0,0l.13-.13.09,0c-.12,0-.11,0,0,0s0,0-.08,0c.19.07-.06,0-.09-.06.15.09-.1-.11-.14-.15.12.15-.17-.35-.09-.17a1.52,1.52,0,0,1-.09-.28s-.06-.34,0-.14a1.51,1.51,0,0,1,0-.3s0-.34,0-.14a2.46,2.46,0,0,1,.16-.59c-.07.17.07-.12.07-.12a2.33,2.33,0,0,1,.17-.26c-.11.14.27-.24.14-.14a1,1,0,0,1,.25-.15c-.16.07.12,0,.13,0-.2.06.08,0,.11,0s.13,0,0,0l.18.05c-.07,0-.08-.08,0,0l.08.08c-.12-.17,0,.18,0,0,0,.06,0,.3,0,.11,0,0,0,.3,0,.1,0,.07,0,.13,0,.19.07-.19-.06.08-.07.1.13-.19-.23.16-.06,0,0,0-.28.16-.11.08a1.27,1.27,0,0,1-.38.11c.06,0,.15,0,0,0s-.41,0-.23,0a1.29,1.29,0,0,1-.28-.08c.16.06-.16-.09-.19-.12.13.09,0,0-.06,0l-.1-.11c.06.08.06.07,0,0l0-.08c0,.1,0,.09,0,0,0,.12,0,.11,0,0s0-.12,0,0c.08-.23-.08.21,0,0-.07.16,0,.07,0,0-.18.16,0,0,0,0-.13.05-.14.05,0,0s.09,0-.06,0c.08,0,.28,0,0,0l-.05,0a.33.33,0,0,1-.16-.17l-.11-.77a4.15,4.15,0,0,1-.67,1.45c.09-.12-.15.16-.17.18l-.15.14s.13-.07,0,0-.33.15-.15.09l-.17.05s-.26.06-.13,0-.05,0-.08,0h-.17c-.13,0,.13.05,0,0a.42.42,0,0,0-.16,0l0,0c.11.05.11.05,0,0s-.16-.12,0,0l-.12-.11c.11.13,0-.09,0,0l0-.1s0-.22,0-.1,0-.09,0-.11,0,.13,0,0a1.33,1.33,0,0,1,0-.19s.08-.21,0-.11.2-.31.12-.2a1.77,1.77,0,0,1,.3-.31,1,1,0,0,1,.22-.18,6.83,6.83,0,0,1,.87-.51l.33-.1s0,0-.09,0l.16,0c-.11,0-.1,0,0,0s-.12-.16,0,0,.12.15,0,0a.72.72,0,0,1,.11.19c.08.12,0-.15,0,0a1.09,1.09,0,0,1,0,.17s0,.21,0,.08,0,0,0,.08,0,.22,0,.08,0,.08,0,.11a.66.66,0,0,1-.06.2c0,.07,0,.07,0,0l-.05.1a4.61,4.61,0,0,1-.4.59,4.45,4.45,0,0,1-.66.71c.1-.08,0,0,0,0,.18,0,.25-.08.41,0a.44.44,0,0,1,.15.12c.13.15-.08,0,0,0v0c0,.11,0,.13,0,.06s0-.06,0,0l0-.09c-.08.13,0,0,0,0s-.06,0,.07-.11.14-.11,0,0,.23-.13.13-.08.16,0,0,0,.13,0,.15,0c-.18,0,0,0,0,0,.21.11-.06-.12.11.05,0,0,.17.1,0,0l.07.07c-.06-.08-.06-.07,0,0l-.14-.51a.35.35,0,0,1,0-.2c.08-.09.08-.1,0,0a.28.28,0,0,1,.17-.09c-.12,0-.11,0,0,0a.36.36,0,0,1,.2.06c.09.08.1.09,0,0a.29.29,0,0,1,.11.18c0-.09,0-.1,0,0s0,.08,0,0a.43.43,0,0,1-.06.22.34.34,0,0,1-.16.13c.1-.05.09-.05,0,0s-.15,0,0,0c-.14,0-.15,0,0,0a.42.42,0,0,1-.18-.11c.08.08.07.07,0,0a1,1,0,1,0,1.72-1,1.79,1.79,0,0,0-2-.8,1.67,1.67,0,0,0-1.22,1.69,1.73,1.73,0,0,0,1.32,1.63,1.77,1.77,0,0,0,2-1.16,1.68,1.68,0,0,0-1.15-2,2.35,2.35,0,0,0-2.17.15,2.42,2.42,0,0,0-1.12,2,1.81,1.81,0,0,0,1.3,1.76,2.2,2.2,0,0,0,2.08-1,5.61,5.61,0,0,0,1.17-1.83,2.59,2.59,0,0,0-1.58-3.34,3.13,3.13,0,0,0-2.32.57,4.72,4.72,0,0,0-1.64,1.5,2.57,2.57,0,0,0,.86,3.69,3,3,0,0,0,3.67-1.06A6.16,6.16,0,0,0,247,179a1.2,1.2,0,0,0-.25-1.38,1.71,1.71,0,0,0-1.05-.46,2,2,0,0,0-2.1,2.6,2.92,2.92,0,0,0,3.6,1.74,2.41,2.41,0,1,0-2.34-3.9,3.76,3.76,0,0,0-.84,4,2.82,2.82,0,0,0,1.47,1.6,1.83,1.83,0,0,0,2.1-.39,1.91,1.91,0,0,0,.14-2.21,2.2,2.2,0,0,0-2-1,3.42,3.42,0,0,0-3.22,2.37,2.3,2.3,0,0,0,2.33,2.91,3.59,3.59,0,0,0,2.92-2.93,4.3,4.3,0,0,0-.07-2.08,1,1,0,0,0-.7-.7,4.52,4.52,0,0,0-4.66,2.14,1,1,0,0,0,0,1c.83,1.4,2.78,1,3.77,0s1.4-3.1-.14-4a2.77,2.77,0,0,0-3.71,1.54,5.31,5.31,0,0,0-.56,2.2,1.56,1.56,0,0,0,1.94,1.48,3.27,3.27,0,0,0,2-1.42,4.54,4.54,0,0,0,.86-2.41,1,1,0,0,0-.74-1,3.47,3.47,0,0,0-3.06.91,3.9,3.9,0,0,0-1.68,2.67,1.8,1.8,0,0,0,2.43,1.56,4.17,4.17,0,0,0,2.25-1.86,4.91,4.91,0,0,0,.71-3.1,1,1,0,0,0-.73-1,5.32,5.32,0,0,0-4.41,1.09c-.69.55-1.48,1.47-1,2.39.4.76,1.49,1,2.27,1.15a4.67,4.67,0,0,0,4.55-1.39A3.67,3.67,0,0,0,248,179a1.77,1.77,0,0,0-.47-1.34,1.83,1.83,0,0,0-1.39-.4,4.94,4.94,0,0,0-4.16,2.66,1,1,0,0,0,.35,1.37,1,1,0,0,0,1.37-.36Z" transform="translate(-5.71 -10.04)"/>
  <g>
    <path class="cls-3" d="M240.81,230.1a1.91,1.91,0,0,1,.49-1.33c.17-.18.84-.74,1-.44a1.65,1.65,0,0,1-.15,1.35,3.29,3.29,0,0,1-1,1.22c-.75.57-2.19,1.18-2.94.29a1.06,1.06,0,0,1,.06-1.33,3.33,3.33,0,0,1,1.43-1,1.62,1.62,0,0,1,1.55-.13c.47.32.08,1-.16,1.31s-.67.8-1.15.7a1,1,0,0,1-.7-.94,2.37,2.37,0,0,1,.65-1.61c.25-.28.71-.7,1.11-.63s.34.78.29,1.09a6.1,6.1,0,0,1-.56,1.82c-.23.46-.59,1.19-1.19,1.2s-.56-.76-.55-1.16a2.93,2.93,0,0,1,.59-1.81,1.64,1.64,0,0,1,1.47-.62l-.37-.48a7.64,7.64,0,0,1-.21,2.65,5.05,5.05,0,0,1-.43,1.14c-.11.21-.28.49-.55.5s-.32-.17-.41-.37a.83.83,0,0,1,0-.72,2.13,2.13,0,0,1,.68-.75,4.93,4.93,0,0,1,1-.61c.23-.1.57-.18.77,0s0,.66-.08.89a2,2,0,0,1-1,1.33c-.65.22-1.28-.43-1.53-1a1.15,1.15,0,0,1,.36-1.57.71.71,0,0,1,1.08.66c0,.7-.7,1.16-1.33,1.23l.43.25a2.76,2.76,0,0,1,0-2.67,1.57,1.57,0,0,1,1.87-.63l-.35-.35a2.84,2.84,0,0,1-.8,2.67,1.2,1.2,0,0,1-.91.46c-.28,0-.59-.22-.6-.48,0-.64-1-.64-1,0a1.66,1.66,0,0,0,2.06,1.43,3.39,3.39,0,0,0,2.07-2.17,3.27,3.27,0,0,0,.26-1.74.92.92,0,0,0-.41-.76,1.82,1.82,0,0,0-.73-.17,2.66,2.66,0,0,0-2.36,1.3,3.79,3.79,0,0,0,.08,3.61.48.48,0,0,0,.43.25,2.45,2.45,0,0,0,2.29-1.83,1.8,1.8,0,0,0-1.53-2.18,2,2,0,0,0-2,1.89,2.78,2.78,0,0,0,1.74,2.66,2,2,0,0,0,2.52-1.11c.47-.86,1-2.31-.08-2.92s-2.26.24-3,.91a2.09,2.09,0,0,0-.62,2.74,1.39,1.39,0,0,0,1.4.66,1.87,1.87,0,0,0,1.28-1.14,8.08,8.08,0,0,0,.68-4.12.51.51,0,0,0-.36-.48,2.59,2.59,0,0,0-2.28.7,3.67,3.67,0,0,0-1,2.34,2.42,2.42,0,0,0,.67,2.26A1.76,1.76,0,0,0,241,232a5.85,5.85,0,0,0,1.16-2.34,3.14,3.14,0,0,0,0-2.48,1.53,1.53,0,0,0-2.14-.29,3.74,3.74,0,0,0-1.54,1.94,2.33,2.33,0,0,0,.41,2.35,1.75,1.75,0,0,0,2.21.33,3.22,3.22,0,0,0,1.43-2,1.59,1.59,0,0,0-1.36-1.84,4.11,4.11,0,0,0-2.59.75,2.86,2.86,0,0,0-1.48,2,2,2,0,0,0,1.17,2,3.18,3.18,0,0,0,2.66-.15,4.05,4.05,0,0,0,2.53-3.64,1.61,1.61,0,0,0-.42-1.06,1.24,1.24,0,0,0-1.32-.18A2.85,2.85,0,0,0,240,229a2.71,2.71,0,0,0-.22,1.15c0,.64,1,.65,1,0Z" transform="translate(-5.71 -10.04)"/>
    <g>
      <path class="cls-3" d="M228.47,234.24c1.3-.17,2.6-.32,3.91-.45.58,0,1.15-.12,1.73-.15a2.77,2.77,0,0,1,1.28.09c.83.34.53,1.75.43,2.43a9.1,9.1,0,0,1-1.16,3.22.5.5,0,0,0,.87.51,10.31,10.31,0,0,0,1.16-3,7.13,7.13,0,0,0,.18-2.68c-.35-2.13-2.89-1.61-4.43-1.46-1.32.13-2.65.28-4,.45a.52.52,0,0,0-.5.5.49.49,0,0,0,.5.5Z" transform="translate(-5.71 -10.04)"/>
      <path class="cls-3" d="M235.81,233.18a23.08,23.08,0,0,0-8,6.63,16.67,16.67,0,0,0-3.53,8.63c-.13,1.82,1,3.65,2,5.09.36.52,1.23,0,.86-.51a12.07,12.07,0,0,1-1.62-3.05,4.85,4.85,0,0,1-.09-2.48,16,16,0,0,1,1.93-5.17,21.6,21.6,0,0,1,8.95-8.28c.57-.29.07-1.15-.5-.86Z" transform="translate(-5.71 -10.04)"/>
    </g>
    <g>
      <path class="cls-3" d="M233.91,252.28a6.33,6.33,0,0,0-4.63,2.33,5,5,0,0,0-1.13,2.29c-.14,1,.5,1.52,1.35,1.83s2,.38,3,.8a2.64,2.64,0,0,1,1.57,2.22,2.54,2.54,0,0,1-1.3,2.33c-1,.58-2.26.24-3.36.53a.5.5,0,0,0,.27,1c1-.27,2.14,0,3.16-.42a3.62,3.62,0,0,0,1.82-1.63,3.57,3.57,0,0,0-1.08-4.52,6.88,6.88,0,0,0-2.65-.93,5.47,5.47,0,0,1-1.44-.44c-.57-.31-.22-1,0-1.44a5.31,5.31,0,0,1,4.47-2.91c.64,0,.64-1,0-1Z" transform="translate(-5.71 -10.04)"/>
      <path class="cls-3" d="M237.29,253.92a42.69,42.69,0,0,1-.56,5.51c-.26,1.54-.72,3.16,0,4.63.3.57,1.16.07.87-.5-.71-1.38,0-3.2.17-4.63a42,42,0,0,0,.48-5c0-.65-1-.65-1,0Z" transform="translate(-5.71 -10.04)"/>
      <path class="cls-3" d="M240.39,262.79a5.12,5.12,0,0,1,1.54-1.82,1.54,1.54,0,0,1,1.76,0A2,2,0,0,1,244,263a1.81,1.81,0,0,1-1.56,1.2A1.38,1.38,0,0,1,241,263c0-.64-1-.64-1,0a2.37,2.37,0,0,0,1.84,2.19,2.75,2.75,0,0,0,2.8-1.19,3.27,3.27,0,0,0,.19-3.19,2.24,2.24,0,0,0-2.73-1,5.12,5.12,0,0,0-2.57,2.48c-.34.55.53,1,.87.5Z" transform="translate(-5.71 -10.04)"/>
      <path class="cls-3" d="M246.54,258.25q-1.09,5.13-1.8,10.33c-.08.63.88.9,1,.26q.71-5.19,1.8-10.32c.13-.63-.83-.9-1-.27Z" transform="translate(-5.71 -10.04)"/>
      <path class="cls-3" d="M247.65,259.19c.23-.36.81-.15,1.08.15a3.65,3.65,0,0,1,.64,2c0,.57,0,1.54-.54,1.89a2.61,2.61,0,0,1-1.11.17H246.6c-.13-.12-.12.05,0,.53l-.25.07h0a.5.5,0,0,0,0-1,.67.67,0,0,0-.56,1c.26.45.86.4,1.31.4,1,0,2.11,0,2.73-.86a3.94,3.94,0,0,0,.4-2.82,3.63,3.63,0,0,0-1.14-2.34,1.64,1.64,0,0,0-2.38.3c-.35.54.52,1,.87.5Z" transform="translate(-5.71 -10.04)"/>
      <path class="cls-3" d="M251.87,261.67c1-.25,2.1-.81,2.31-1.89a1.67,1.67,0,0,0-1.4-2.07c-1.21,0-1.89,1.35-2.2,2.32a4.32,4.32,0,0,0,.26,3.5,3.25,3.25,0,0,0,3,1.62.51.51,0,0,0,.5-.5.51.51,0,0,0-.5-.5,2.28,2.28,0,0,1-2.27-1.29,3.59,3.59,0,0,1,.13-3.1c.18-.37.45-.94.9-1,.28-.06.46.19.53.43.27.92-.9,1.38-1.58,1.56a.5.5,0,0,0,.27,1Z" transform="translate(-5.71 -10.04)"/>
      <path class="cls-3" d="M260.36,258.7c-.51,1.09-1.64,2.13-1.22,3.45a3.1,3.1,0,0,0,5.64.12,3.26,3.26,0,0,0-.4-3.33,2.23,2.23,0,0,0-1.93-.87,2.18,2.18,0,0,0-1.71,1.12l.57-.23.06,0,.17.18a.41.41,0,0,1,0,.22l-.13.22,0,0a.5.5,0,0,0-.51-.87.62.62,0,0,0,.15,1.14.5.5,0,0,0,.57-.23,1.21,1.21,0,0,1,.87-.63,1.27,1.27,0,0,1,1.1.49,2.16,2.16,0,0,1,.34,2.19A2,2,0,0,1,262.2,263a2.06,2.06,0,0,1-2.06-1.06,1.44,1.44,0,0,1,.21-1.29c.28-.5.63-.95.87-1.46a.5.5,0,1,0-.86-.51Z" transform="translate(-5.71 -10.04)"/>
      <path class="cls-3" d="M268,263.78a59.09,59.09,0,0,1,.09-7.41,2.6,2.6,0,0,1,1.38-2.37c1.07-.4,1.62.56,1.54,1.51-.06.64.94.64,1,0a2.27,2.27,0,0,0-1.7-2.58,2.72,2.72,0,0,0-2.76,1.61,10.51,10.51,0,0,0-.57,4.25c0,1.66,0,3.33,0,5a.5.5,0,0,0,1,0Z" transform="translate(-5.71 -10.04)"/>
      <path class="cls-3" d="M265.38,259.4a18.82,18.82,0,0,1,5.35.27.51.51,0,0,0,.49-.84l-.19-.23a.5.5,0,0,0-.71,0,.51.51,0,0,0,0,.71l.19.23.49-.84a20,20,0,0,0-5.62-.3.5.5,0,0,0,0,1Z" transform="translate(-5.71 -10.04)"/>
      <path class="cls-3" d="M233.8,268.76a4.76,4.76,0,0,0-3.36,1.41,2.53,2.53,0,0,0-.86,1.68c0,.72.58,1.09,1.15,1.39,1.06.55,2.64,1,3,2.29a1.11,1.11,0,0,1-.67,1.33,1.84,1.84,0,0,1-1.78-.38c-.52-.38-1,.49-.51.87a2.6,2.6,0,0,0,3.51-.18,2.44,2.44,0,0,0-.47-3.34,6.26,6.26,0,0,0-1.69-1c-.33-.16-.67-.31-1-.48s-.63-.3-.48-.71a3,3,0,0,1,1.29-1.33,3.87,3.87,0,0,1,1.88-.51.5.5,0,0,0,0-1Z" transform="translate(-5.71 -10.04)"/>
      <path class="cls-3" d="M237.49,268.49a47.31,47.31,0,0,1-1.32,9.62c-.1.44.51.9.84.48l.36-.44c.39-.5-.31-1.21-.71-.71l-.36.45.84.48a49.89,49.89,0,0,0,1.35-9.88c0-.64-1-.64-1,0Z" transform="translate(-5.71 -10.04)"/>
      <path class="cls-3" d="M240.31,275.4a3.38,3.38,0,0,1,1.25-1.56,1,1,0,0,1,.74-.12.85.85,0,0,1,.32.15.35.35,0,0,1,.11.09,1,1,0,0,1,.17.18c.06.06,0-.05,0,0l.07.09.11.19a1.61,1.61,0,0,1,.16.38,1.92,1.92,0,0,1,.11.76.61.61,0,0,1-.14.36s-.1.1,0,.05a.88.88,0,0,1-.17.1,1.41,1.41,0,0,1-.71,0,6.49,6.49,0,0,1-1-.4,3.62,3.62,0,0,0-1.33-.37.5.5,0,1,0,0,1,3.13,3.13,0,0,1,1.13.37,4.07,4.07,0,0,0,1.14.4,2.05,2.05,0,0,0,1.29-.16,1.56,1.56,0,0,0,.75-1c.4-1.58-1-3.72-2.79-3.19a3.78,3.78,0,0,0-2.08,2.11c-.3.57.56,1.08.87.51Z" transform="translate(-5.71 -10.04)"/>
      <path class="cls-3" d="M245.85,271.58a79.13,79.13,0,0,0-1.8,11c-.06.64.94.63,1,0a75.71,75.71,0,0,1,1.77-10.78c.15-.62-.82-.89-1-.26Z" transform="translate(-5.71 -10.04)"/>
      <path class="cls-3" d="M246.44,272.06a2,2,0,0,1,1.24-.6,1.14,1.14,0,0,1,.59.11,1,1,0,0,1,.44.52,2.27,2.27,0,0,1-1.05,2.76,2.35,2.35,0,0,1-1.76.2.5.5,0,0,0-.27,1,3.35,3.35,0,0,0,3.92-1.82,3.16,3.16,0,0,0,.14-2.34,2,2,0,0,0-1.75-1.39,2.86,2.86,0,0,0-2.2.89.5.5,0,0,0,.7.7Z" transform="translate(-5.71 -10.04)"/>
      <path class="cls-3" d="M250.92,274.64a2.94,2.94,0,0,0,2.52-2.16,2.26,2.26,0,0,0-.19-1.73,1.19,1.19,0,0,0-1.56-.53,3.69,3.69,0,0,0-1.3,1.39,4.89,4.89,0,0,0-.68,1.73,4.27,4.27,0,0,0,.79,3.42,4,4,0,0,0,3.5,1.56.5.5,0,0,0,0-1,3,3,0,0,1-2.74-1.19,3.38,3.38,0,0,1-.46-3.05,4,4,0,0,1,.83-1.48c.09-.11.38-.51.55-.51s.28.28.31.41a1.87,1.87,0,0,1-1.57,2.14.51.51,0,0,0-.5.5.5.5,0,0,0,.5.5Z" transform="translate(-5.71 -10.04)"/>
      <path class="cls-3" d="M260.74,268.18a25.14,25.14,0,0,0-.52,9.58c.08.58,1,.4,1-.13a42.47,42.47,0,0,1,.36-5.29,7.75,7.75,0,0,1,.72-2.26c.31-.59.84-1.43,1.6-1.42,1.43,0,1.23,2.65,1.19,3.53a14.58,14.58,0,0,1-1.29,5.31c-.26.58.6,1.09.86.5a15.86,15.86,0,0,0,1.34-4.77,8,8,0,0,0-.35-4.38,2,2,0,0,0-3.09-.69,6.22,6.22,0,0,0-1.94,3.91,44.91,44.91,0,0,0-.4,5.56l1-.14a23.74,23.74,0,0,1,.53-9,.5.5,0,0,0-1-.27Z" transform="translate(-5.71 -10.04)"/>
      <path class="cls-3" d="M268.8,274.14a2.91,2.91,0,0,0,2.68-2.31c.17-1.15-.6-2.74-2-2.59s-1.74,1.9-1.87,3a7.65,7.65,0,0,0,.54,4.36c.66,1.32,2.28,2.4,3.69,1.45.53-.35,0-1.22-.51-.86-1.16.78-2.2-.62-2.53-1.6a8.09,8.09,0,0,1-.13-3.82,2.27,2.27,0,0,1,.66-1.44c.46-.34.92.17,1.07.59a1.77,1.77,0,0,1-1.63,2.2c-.63.08-.64,1.08,0,1Z" transform="translate(-5.71 -10.04)"/>
      <path class="cls-3" d="M272.43,272a5.48,5.48,0,0,0,.12,4.08,2,2,0,0,0,2.78,1.06,3.38,3.38,0,0,0,1.26-3.37,2.63,2.63,0,0,0-2.46-2.25.5.5,0,0,0-.26.93,5.87,5.87,0,0,1,3.05,3.24,7.69,7.69,0,0,1-.24,4.3,6.6,6.6,0,0,1-2.19,3.67,3.43,3.43,0,0,1-3.78.25c-.54-.35-1,.51-.51.87a4.38,4.38,0,0,0,4.5-.07,7,7,0,0,0,2.83-4.09,9,9,0,0,0,.36-5.2,6.87,6.87,0,0,0-3.51-3.83l-.25.93a1.68,1.68,0,0,1,1.51,1.69c0,.74-.2,1.89-1,2.15s-1.26-.76-1.42-1.42a4.8,4.8,0,0,1,.18-2.68c.22-.6-.75-.87-1-.26Z" transform="translate(-5.71 -10.04)"/>
      <path class="cls-3" d="M283.29,272.51v2.62h1a9.44,9.44,0,0,0-1-3.94,1.57,1.57,0,0,0-1.39-.92,1.87,1.87,0,0,0-1.51,1,6.94,6.94,0,0,0-.71,1.92,8.29,8.29,0,0,0-.26,2,2.87,2.87,0,0,0,.39,1.57,2,2,0,0,0,1.56.84c1.2.1,2.75-.05,3.47-1.13.35-.54-.51-1-.87-.51s-1.36.63-2,.65a1.56,1.56,0,0,1-1.23-.29,1.62,1.62,0,0,1-.3-1,7.77,7.77,0,0,1,.57-3c.14-.38.33-.86.74-1s.59.17.74.47a8.63,8.63,0,0,1,.84,3.35.5.5,0,0,0,1,0v-2.62a.5.5,0,0,0-1,0Z" transform="translate(-5.71 -10.04)"/>
      <path class="cls-3" d="M285.31,270.59a16.78,16.78,0,0,1,5.34,0,.52.52,0,0,0,.62-.35.5.5,0,0,0-.35-.61,18.41,18.41,0,0,0-5.88,0,.51.51,0,0,0-.35.62.52.52,0,0,0,.62.35Z" transform="translate(-5.71 -10.04)"/>
      <path class="cls-3" d="M287.34,267.32l-1.4,9.54a.5.5,0,0,0,.92.38l.24-.34c.37-.53-.5-1-.87-.51l-.24.35.92.38,1.4-9.53c.09-.63-.87-.9-1-.27Z" transform="translate(-5.71 -10.04)"/>
      <path class="cls-3" d="M292.51,275.62c-.06-.89-.09-1.77-.08-2.66a9.83,9.83,0,0,1,0-1.21,1.92,1.92,0,0,1,.08-.3l0-.07s0,0,0,0,0,0,0,0a.5.5,0,1,0-.27-1c-.94.16-.93,1.37-.95,2.09,0,1,0,2.08.08,3.12a.51.51,0,0,0,.5.5.51.51,0,0,0,.5-.5Z" transform="translate(-5.71 -10.04)"/>
      <path class="cls-3" d="M294.09,271.15c.12.82.28,1.63.47,2.43.1.4.21.79.33,1.19a2.65,2.65,0,0,0,.42,1.06.73.73,0,0,0,1,.1,2.51,2.51,0,0,0,.58-1c.31-.69.58-1.39.89-2.08a11.56,11.56,0,0,1,1.26-2.22.49.49,0,0,0-.18-.68.5.5,0,0,0-.68.18,23,23,0,0,0-2.23,4.46,3.48,3.48,0,0,0-.24.52c-.11.14,0,.16.32.06h0a1,1,0,0,0-.08-.25c-.14-.44-.27-.88-.38-1.33a25.15,25.15,0,0,1-.54-2.72.5.5,0,0,0-1,.27Z" transform="translate(-5.71 -10.04)"/>
      <path class="cls-3" d="M300,273.16a2.76,2.76,0,0,0,2.07-2.42c.08-.93-.6-2.83-1.87-2.26-1.07.49-1.23,2.16-1.34,3.16a7.41,7.41,0,0,0,.41,4c.51,1.14,1.8,2.39,3.15,1.92.61-.21.35-1.18-.26-1-1,.34-1.84-.91-2.12-1.7a7.52,7.52,0,0,1-.15-3.5,4.87,4.87,0,0,1,.39-1.51c.06-.12.21-.46.35-.45s.33.48.37.61a1.74,1.74,0,0,1-1.26,2.19.5.5,0,0,0,.26,1Z" transform="translate(-5.71 -10.04)"/>
    </g>
  </g>
  <path class="cls-4" d="M344.85,182.36a3.16,3.16,0,0,1,.35-.59c-.09.13.1-.1.13-.14l.29-.27.09-.07c-.08.05.05,0,.05,0l.3-.19c.1-.05.2-.11.3-.15l0,0,.18-.06.39-.1s.28,0,.12,0h.44c.06,0,.07,0,0,0s-.5-.27-.41-.44c0,0,0,.35,0,.25a.4.4,0,1,0,0,0c0,.06,0,.12,0,.18s0,.09,0,.13.07-.12,0,0a2.59,2.59,0,0,1-.19.33l-.08.12c.1-.13,0,0,0,0l-.24.23-.11.1c.12-.1,0,0,0,0l-.33.19s-.17.08,0,0l-.15,0a2.85,2.85,0,0,1-.39.11,3.12,3.12,0,0,1-.72.06,5.44,5.44,0,0,1-1.52-.32c-.29-.1-.09,0-.07,0-.16,0,0-.05,0,0s.17.68.11.68,0,0,.05-.05l.27-.29.11-.1s.19-.16.06-.06a3.62,3.62,0,0,1,.68-.41l.17-.09c-.09,0,0,0,0,0s.25-.09.38-.12l.38-.08c-.16,0,0,0,0,0l.25,0h.54c-.2,0,.11,0,.12,0l-.73-1a5.68,5.68,0,0,1,0,.59c0,.09,0,.19,0,.29,0-.19,0,.08,0,.12a3.41,3.41,0,0,1-.16.57c-.09.28.08-.13-.05.13l-.14.26a2.13,2.13,0,0,1-.16.25l-.08.11a4.12,4.12,0,0,1-.41.43c-.2.19.13-.07-.11.08a1.64,1.64,0,0,1-.22.14c-.18.12.15,0-.07,0l-.24.07c.17,0,.05,0-.06,0H344c-.11,0-.1,0,0,0s.17.27.11.1l.06.22c0,.1,0,.09,0,0-.06.15.07-.13.08-.14s.18-.26.1-.15c.13-.17.28-.33.43-.49a3.26,3.26,0,0,1,.85-.69.94.94,0,0,1,.42-.16c.08,0,.07,0,0,0h.3c-.09,0-.08,0,0,0l-.73-1c0,.12,0,.14,0,0a1.18,1.18,0,0,1,0,.2c0,.14-.07.27-.11.4s0,.13,0,0l-.09.19a4.05,4.05,0,0,1-.21.35c-.07.1-.08.12,0,0l-.14.16a3.83,3.83,0,0,1-.29.28l-.05,0-.14.09c-.1.05-.1.05,0,0l-.16,0c.13,0,.14,0,0,0a.33.33,0,0,1,.22.05.47.47,0,0,1,.26.42c0-.12,0-.13,0,0a5.6,5.6,0,0,1,.19-.81c0-.13.08-.26.13-.39l0-.05.09-.18s.22-.32.13-.21l.14-.15c.08-.07.09-.08,0,0s.16-.09.2-.11c-.19.09.13,0,.18,0-.22,0,.11,0,.17,0-.13,0-.13,0,0,0s.11,0,0,0c.09.06.1.06,0,0,.08.08.09.07,0,0a.6.6,0,0,1,.09.15c0-.11,0-.1,0,0,0-.12,0-.12,0,0s0,.12,0,0a1.42,1.42,0,0,1-.11.35c.08-.18-.09.15-.11.18l0,0-.13.14-.13.13c.09-.07.09-.07,0,0s-.36.18-.14.1l-.33.09c.23-.06-.07,0-.14,0,.14,0,.15,0,0,0s-.1,0,0,0l0,0c.07.11.08.12,0,0v1a2.39,2.39,0,0,1,.13-.21s.14-.19,0-.07l.3-.31.18-.16c-.08.07,0,0,0,0l.42-.25h0l.23-.08a3.25,3.25,0,0,1,.42-.11c.29-.06-.1,0,.07,0h.44s.31,0,.11,0l-.69-.7c0,.1.05.19.07.29.06.29,0-.15,0,.14,0,.1,0,.2,0,.3s0,.34,0,.14a2.92,2.92,0,0,1-.12.49s-.12.3,0,.13c-.06.13-.12.24-.19.36a1.76,1.76,0,0,1-.59.56c-.25.15.12,0-.14.06s.13,0-.13,0h-.1c.1,0,.09,0,0,0l.07,0c-.1-.06-.1-.06,0,0l-.06-.06c.07.09.07.09,0,0l0-.07h0s0-.31,0-.08a2.43,2.43,0,0,1,0-.27c0,.07-.05.15,0,0s-.12.14,0-.11c0,0,.18-.26.06-.11a1.72,1.72,0,0,1,.27-.27c-.15.12.11-.06.12-.07l.17-.09c.24-.15-.16,0,.11-.06l.3-.09c.25-.08-.11,0,.15,0,0,0,.33,0,.14,0l.19,0q-.12,0,0,0c-.09-.07-.09-.07,0,0l-.06-.07c.05.1.05.1,0,0l0,.08c0-.13,0-.14,0,0l0-.11c0,.11,0,.1,0,0l.13-.13.09,0c-.11,0-.11,0,0,0s0,0-.08,0c.2.07-.06,0-.09-.06.15.09-.1-.11-.13-.15.11.15-.18-.35-.1-.17,0-.09-.06-.19-.09-.28s-.05-.34,0-.14a1.51,1.51,0,0,1,0-.3s0-.34,0-.14a2.46,2.46,0,0,1,.16-.59c-.07.17.07-.12.07-.12a2.33,2.33,0,0,1,.17-.26c-.11.14.27-.24.14-.14a1.28,1.28,0,0,1,.25-.15c-.16.07.12,0,.13,0-.19.06.08,0,.12,0h0l.19,0c-.08,0-.08-.08,0,0-.14-.14.08.07.09.08-.13-.17,0,.18,0,0,0,.06,0,.3,0,.11,0,0-.05.3,0,.1,0,.07,0,.13-.05.19.07-.19-.06.08-.07.1.13-.19-.23.16-.06,0,0,0-.28.16-.11.08a1.19,1.19,0,0,1-.38.11c.06,0,.15,0,0,0s-.41,0-.23,0a1.47,1.47,0,0,1-.28-.08c.17.06-.15-.09-.19-.12.14.09,0,0-.06-.05l-.09-.11c.06.08.05.07,0,0l0-.08c0,.1,0,.09,0,0,0,.12,0,.11,0,0s0-.12,0,0c.09-.23-.08.21,0,0-.07.16,0,.07,0,0-.17.16,0,0,0,0-.13,0-.14,0,0,0s.1,0-.05,0c.07,0,.27,0,0,0l-.06,0a.33.33,0,0,1-.16-.17l-.1-.77a4.37,4.37,0,0,1-.68,1.45c.09-.12-.14.16-.17.18l-.15.14h0c-.06,0-.33.15-.15.09l-.17,0s-.26.06-.12,0-.06,0-.09,0a1,1,0,0,0-.17,0c-.13,0,.13,0,0,0a.42.42,0,0,0-.16,0l0,0c.11,0,.12,0,0,0s-.15-.12,0,0l-.12-.11c.12.13,0-.09,0,0s0-.07,0-.1,0-.22,0-.1,0-.09,0-.11,0,.13,0,0a1.33,1.33,0,0,1,.05-.19s.08-.21,0-.11.2-.31.11-.2a2.22,2.22,0,0,1,.3-.31A1.24,1.24,0,0,1,345,180a7.61,7.61,0,0,1,.87-.51l.33-.1c-.05,0,0,0-.09,0l.16,0c-.11,0-.1,0,0,0s-.11-.16,0,0,.12.15,0,0l.11.19c.07.12-.05-.15,0,0s0,.11,0,.17,0,.21,0,.08,0,.05,0,.08,0,.22,0,.08,0,.08,0,.11a1.18,1.18,0,0,1-.07.2c0,.07,0,.07,0,0l0,.1a3.76,3.76,0,0,1-.4.59,4.45,4.45,0,0,1-.66.71c.1-.08,0,0-.05,0,.18,0,.26-.08.41,0a.44.44,0,0,1,.15.12c.14.15-.08,0,0,0v0c0,.11,0,.13,0,.06s0-.06,0,0l0-.09c-.09.13,0,0,0,0,.07-.19-.06,0,.07-.11s.15-.11,0,0l.14-.08c-.11.05.15,0,0,0s.13,0,.15,0c-.18,0,0,0,0,0,.21.11-.07-.12.11,0,0,0,.16.1,0,0l.07.07c-.06-.08,0-.07,0,0l-.14-.51a.46.46,0,0,1,.05-.2c.08-.09.08-.1,0,0a.28.28,0,0,1,.17-.09c-.11,0-.1,0,0,0a.36.36,0,0,1,.2.06c.1.08.11.09,0,0a.42.42,0,0,1,.11.18c0-.09,0-.1,0,0s0,.08,0,0a.3.3,0,0,1-.06.22.37.37,0,0,1-.15.13c.09,0,.08,0,0,0s-.15,0,0,0c-.13,0-.15,0,0,0a.42.42,0,0,1-.18-.11c.08.08.08.07,0,0a1,1,0,1,0,1.73-1,1.81,1.81,0,0,0-2-.8,1.69,1.69,0,0,0-1.22,1.69,1.73,1.73,0,0,0,1.32,1.63,1.79,1.79,0,0,0,2-1.16,1.7,1.7,0,0,0-1.16-2,2.35,2.35,0,0,0-2.17.15,2.39,2.39,0,0,0-1.11,2,1.79,1.79,0,0,0,1.29,1.76,2.19,2.19,0,0,0,2.08-1,5.45,5.45,0,0,0,1.17-1.83,2.59,2.59,0,0,0-1.58-3.34,3.13,3.13,0,0,0-2.32.57,4.72,4.72,0,0,0-1.64,1.5,2.57,2.57,0,0,0,.86,3.69,3,3,0,0,0,3.67-1.06,6.44,6.44,0,0,0,.92-1.81A1.22,1.22,0,0,0,348,179a1.74,1.74,0,0,0-1.06-.46,2,2,0,0,0-2.1,2.6,2.93,2.93,0,0,0,3.61,1.74,2.41,2.41,0,1,0-2.34-3.9,3.76,3.76,0,0,0-.85,4,2.81,2.81,0,0,0,1.48,1.6,1.83,1.83,0,0,0,2.1-.39,1.91,1.91,0,0,0,.14-2.21,2.2,2.2,0,0,0-2-1,3.41,3.41,0,0,0-3.22,2.37,2.3,2.3,0,0,0,2.32,2.91,3.59,3.59,0,0,0,2.92-2.93,4.3,4.3,0,0,0-.07-2.08,1,1,0,0,0-.69-.7,4.53,4.53,0,0,0-4.67,2.14,1,1,0,0,0,0,1c.83,1.4,2.78,1,3.77,0s1.4-3.1-.14-3.95a2.77,2.77,0,0,0-3.71,1.54,5.47,5.47,0,0,0-.56,2.2,1.57,1.57,0,0,0,1.95,1.48,3.28,3.28,0,0,0,1.95-1.42,4.54,4.54,0,0,0,.86-2.41,1,1,0,0,0-.74-1,3.45,3.45,0,0,0-3.05.91,3.91,3.91,0,0,0-1.69,2.67,1.81,1.81,0,0,0,2.43,1.56,4.13,4.13,0,0,0,2.25-1.86,4.85,4.85,0,0,0,.72-3.1,1,1,0,0,0-.74-1,5.33,5.33,0,0,0-4.41,1.09c-.69.55-1.48,1.47-1,2.39.4.76,1.49,1,2.27,1.15a4.67,4.67,0,0,0,4.55-1.39,3.61,3.61,0,0,0,.86-2.18,1.74,1.74,0,0,0-.47-1.34,1.81,1.81,0,0,0-1.39-.4,5,5,0,0,0-4.16,2.66,1,1,0,0,0,.36,1.37,1,1,0,0,0,1.37-.36Z" transform="translate(-5.71 -10.04)"/>
  <g>
    <path class="cls-2" d="M245.14,45.19l-1.69.57,1.27,1a4.56,4.56,0,0,1,1.08-3.11c.17-.2.7-.75,1-.6s.2.68.21.88a6.68,6.68,0,0,1-2.5,5.63c.14-.11.2.25,0-.15a5.17,5.17,0,0,1-.16-.68,15,15,0,0,1-.28-2.21,6.6,6.6,0,0,1,.65-3.53,3.78,3.78,0,0,1,1-1.2l.22-.16.15,0a.29.29,0,0,1-.31-.13,1.65,1.65,0,0,1,0,.39,5.29,5.29,0,0,1-1.41,2.91,4.56,4.56,0,0,1-.65.59c-.09.07-.2.12-.28.19l-.1,0c.29-.06.51.13.65.58,0,0,.14-.32.13-.31s.14-.26.22-.38a3.39,3.39,0,0,1,.63-.68,1.73,1.73,0,0,0,.28-.19l.13-.07q.28,0-.45-.21a4.45,4.45,0,0,1,0,.55,2.34,2.34,0,0,1-.92,1.4l1.67.44a1.86,1.86,0,0,1,.33-2l-1.67-.44a4.49,4.49,0,0,1-1,3.47l1.87.51a3.87,3.87,0,0,1,.56-2.64l-1.87-.51a9.18,9.18,0,0,1-1.12,3.54l1.83.78.22-.54a1,1,0,0,0-.7-1.23,1,1,0,0,0-1.23.7l-.22.53A1,1,0,0,0,243.3,50a1,1,0,0,0,1.25-.41,11.76,11.76,0,0,0,1.39-4.55c.11-1-1.37-1.28-1.86-.5a5.58,5.58,0,0,0-.83,3.65,1,1,0,0,0,1.86.5,6.4,6.4,0,0,0,1.16-5,1,1,0,0,0-1.67-.44,3.83,3.83,0,0,0-.84,3.92,1,1,0,0,0,1.67.44,4.06,4.06,0,0,0,1.46-2.42c.18-.95.09-2.16-.93-2.59s-2,.32-2.69,1A3.66,3.66,0,0,0,242,46.41a1.57,1.57,0,0,0,2.41.86,6.49,6.49,0,0,0,2-1.91,7.22,7.22,0,0,0,1.19-2.56,2.92,2.92,0,0,0-.33-2.68c-.87-.94-2.15-.49-3,.22a6.09,6.09,0,0,0-1.6,2.28,11.22,11.22,0,0,0-.29,6.42,3,3,0,0,0,1.25,2.27c1.07.58,2.13-.13,2.86-.89a8.85,8.85,0,0,0,2.41-5,5.82,5.82,0,0,0-.28-3.12,2.2,2.2,0,0,0-2.8-1.1c-2.14.79-3.2,3.42-3.17,5.55a1,1,0,0,0,1.27,1l1.68-.57a1,1,0,0,0,.7-1.23,1,1,0,0,0-1.23-.7Z" transform="translate(-5.71 -10.04)"/>
    <g>
      <path class="cls-2" d="M245.39,22.78a18,18,0,0,0,1.12,11.46c.75,1.61,2.4,1.45,3.8.87a23.38,23.38,0,0,0,4.35-2.48c1.65-1.15,3.3-2.28,5-3.33a.5.5,0,0,0-.51-.86c-1.7,1-3.36,2.18-5,3.33-.64.45-1.3.88-2,1.27a12.79,12.79,0,0,1-3,1.43,1.54,1.54,0,0,1-1.37-.15,2.68,2.68,0,0,1-.57-1,16.93,16.93,0,0,1-1-3.21,16.73,16.73,0,0,1,.13-7c.14-.63-.82-.9-1-.27Z" transform="translate(-5.71 -10.04)"/>
      <path class="cls-2" d="M248.52,34.78c2.08-3.48,4.18-7.29,7.5-9.75a29.51,29.51,0,0,1,12.79-5.31,31.83,31.83,0,0,1,6.54-.36c.65,0,.65-1,0-1a31.67,31.67,0,0,0-13.67,2.36,23.26,23.26,0,0,0-8.92,6,53.45,53.45,0,0,0-5.1,7.55.5.5,0,0,0,.86.5Z" transform="translate(-5.71 -10.04)"/>
      <path class="cls-2" d="M279.47,31.18a84.87,84.87,0,0,1,4.07-20.51h-1l1.4,7.59.69,3.73c.15.79.34,1.87,1.3,2a.51.51,0,0,0,.61-.35l2.56-7.43.63-1.86c.11-.3.2-.62.32-.92s.18-.54.45-.3.31,1.18.35,1.58c.06.6.11,1.2.14,1.8.12,2.53,0,5.06,0,7.59,0,1.28,0,2.57.12,3.85.07.95,0,2.16.79,2.86.48.44,1.19-.27.71-.7a2.15,2.15,0,0,1-.44-1.44c-.06-.56-.09-1.12-.12-1.68-.06-1.13-.06-2.25-.06-3.37,0-2.21.1-4.42,0-6.63a30.57,30.57,0,0,0-.28-3.31,2,2,0,0,0-1-1.63c-.72-.3-1.3.26-1.56.89-.42,1-.72,2.09-1.08,3.12l-2.51,7.31.62-.35c-.45-.06-.49-.7-.56-1.06-.1-.56-.21-1.13-.31-1.69l-.6-3.25-1.23-6.63c-.09-.52-.82-.43-1,0a86.11,86.11,0,0,0-4.11,20.78c-.05.64.95.64,1,0Z" transform="translate(-5.71 -10.04)"/>
      <path class="cls-2" d="M299.22,22.54a32.24,32.24,0,0,0,.2,6.29c.08.62,1,.67,1,0A16.94,16.94,0,0,0,299,22.41a13.59,13.59,0,0,0-1.59-2.83,1.8,1.8,0,0,0-2.22-.81A3.49,3.49,0,0,0,293.75,21a16.64,16.64,0,0,0-.76,3.48c-.19,1.69-.13,3.76,1.2,5,1.74,1.61,4.28.75,6-.39.53-.35,0-1.22-.51-.86-1.24.81-3.09,1.68-4.5.77-1.21-.79-1.35-2.49-1.27-3.8a15.92,15.92,0,0,1,.44-2.75,7.26,7.26,0,0,1,.89-2.39c.65-.9,1.29-.05,1.71.59a15.94,15.94,0,0,1,1.22,2.31,15.69,15.69,0,0,1,1.24,5.89h1a32.24,32.24,0,0,1-.2-6.29c0-.64-1-.64-1,0Z" transform="translate(-5.71 -10.04)"/>
      <path class="cls-2" d="M302,19.52l7.66,10.92a.5.5,0,0,0,.68.18,1.15,1.15,0,0,0,.48-1.32.5.5,0,0,0-1,.27v.19l.68.18L302.87,19c-.36-.52-1.23,0-.86.51Z" transform="translate(-5.71 -10.04)"/>
      <path class="cls-2" d="M309,18.24a142.51,142.51,0,0,0-8.5,13.6c-.27.48.39,1,.78.61l.59-.65c.43-.48-.27-1.19-.7-.71l-.6.65.79.61a146,146,0,0,1,8.5-13.61c.37-.52-.49-1-.86-.5Z" transform="translate(-5.71 -10.04)"/>
      <path class="cls-2" d="M314.73,29.91q-.15-5.94-.29-11.9c0-.64-1-.64-1,0q.15,6,.29,11.9c0,.64,1,.65,1,0Z" transform="translate(-5.71 -10.04)"/>
      <path class="cls-2" d="M318.31,29.29a19.65,19.65,0,0,1,.08-9.12,7.89,7.89,0,0,1,1.18-2.92c.08-.1.25-.17.31-.24s-.14-.11-.05,0a7.42,7.42,0,0,1,.62,1,32.07,32.07,0,0,1,1.9,5.54.51.51,0,0,0,.92.12,25.31,25.31,0,0,1,2.17-3.23c.11-.14.43-.55.56-.54s.58.92.65,1.17a8.27,8.27,0,0,1-.19,4c-.27,1.32-.58,2.63-1,3.93-.19.61.78.88,1,.26a44.3,44.3,0,0,0,1.17-4.94,6.25,6.25,0,0,0-.59-4.72,1.19,1.19,0,0,0-2-.23,17.56,17.56,0,0,0-2.68,3.81l.92.12a33.94,33.94,0,0,0-1.94-5.62c-.29-.64-.73-1.78-1.61-1.72-1.22.09-1.75,2-2.06,2.94a18,18,0,0,0-.8,3.78,22.33,22.33,0,0,0,.43,6.82c.13.63,1.1.37,1-.26Z" transform="translate(-5.71 -10.04)"/>
      <path class="cls-2" d="M330.22,19.85a16.09,16.09,0,0,0-.84,4.71,8.26,8.26,0,0,0,.6,4,2.05,2.05,0,0,0,2.72,1.12c1.2-.57,1.78-2.09,2.19-3.26a12.17,12.17,0,0,0,.62-5.15c-.06-.64-1.06-.64-1,0a11.6,11.6,0,0,1-.58,4.89c-.29.81-1.17,3.28-2.46,2.62-1.1-.56-1.08-2.51-1.1-3.53a15.43,15.43,0,0,1,.81-5.13c.21-.61-.76-.88-1-.27Z" transform="translate(-5.71 -10.04)"/>
      <path class="cls-2" d="M339.66,29.77a15,15,0,0,1,1.28-9.8A4.55,4.55,0,0,1,342.31,18c1-.59.95.91,1,1.49l.29,5.85c0,.46.71.74.93.26l1.87-4a21.1,21.1,0,0,1,.91-1.92c0-.09.18-.34.3-.38s.25.13.33.34a6.5,6.5,0,0,1,.24,1,17.56,17.56,0,0,1-.26,8.37.5.5,0,0,0,1,.26,18.48,18.48,0,0,0,.67-5.28,14.51,14.51,0,0,0-.8-5.07,1,1,0,0,0-1.33-.67,2.62,2.62,0,0,0-1.27,1.53l-2.49,5.3.93.25-.18-3.65a30.46,30.46,0,0,0-.19-3.31,1.63,1.63,0,0,0-1.38-1.52,2.46,2.46,0,0,0-2,1.31A15.77,15.77,0,0,0,338.69,30c.14.63,1.1.36,1-.27Z" transform="translate(-5.71 -10.04)"/>
      <path class="cls-2" d="M354.41,12.27q-.56,3.4-.93,6.84c-.12,1.16-.23,2.32-.32,3.49-.06.71-.22,1.63.53,2,.56.31,1.07-.55.5-.86-.23-.13-.06-.9,0-1.08,0-.46.07-.93.12-1.39.08-1,.18-1.94.29-2.91.22-2,.5-3.92.81-5.87.1-.63-.86-.91-1-.27Z" transform="translate(-5.71 -10.04)"/>
      <path class="cls-2" d="M354.41,29.1l-.06-.07.07.1-.06-.11.05.12a.83.83,0,0,1,0-.15l0,.13a.48.48,0,0,1,0-.17l0,.14a.85.85,0,0,1,0-.17l-.05.12a.57.57,0,0,1,.08-.13l-.08.1a.76.76,0,0,1,.09-.09l-.1.08a.41.41,0,0,1,.11-.07l-.12.05.12,0-.13,0h.16l-.13,0,.15,0-.12,0a.38.38,0,0,1,.15.09l-.1-.08.12.11-.08-.1.06.11-.05-.12a.93.93,0,0,1,0,.13l0-.13a.38.38,0,0,1,0,.15l0-.14a.57.57,0,0,1,0,.14l.05-.12a.51.51,0,0,1-.09.16l.08-.1-.12.11.1-.08a.67.67,0,0,1-.14.09l.12-.05-.14,0,.13,0h-.09l.35.15a.6.6,0,0,1-.08-.08l.08.1-.06-.1.05.12a.65.65,0,0,1,0-.13l0,.13a1,1,0,0,1,0-.17v.13a.58.58,0,0,1,0-.18l-.05.12.1-.17-.08.1.12-.11-.11.08.12-.07-.12.06.12,0-.13,0a.2.2,0,0,1,.11,0l-.14,0,.13,0-.12-.05.09.06-.1-.08a.47.47,0,0,1,.1.1l-.08-.1a.75.75,0,0,1,.07.12l0-.12a.73.73,0,0,1,0,.2v-.07a.75.75,0,0,1,0,.16l0-.12a.75.75,0,0,1-.07.12l.08-.1-.08.08.1-.08-.1.06.12-.05h0a.57.57,0,0,0-.3.23.51.51,0,0,0,.18.69.48.48,0,0,0,.39.05,1,1,0,0,0,.23-.11,1,1,0,0,0,.26-.27.78.78,0,0,0,.16-.36,1.2,1.2,0,0,0-.15-.91,1,1,0,0,0-.87-.46,1.09,1.09,0,0,0-.26.05.86.86,0,0,0-.33.2.9.9,0,0,0-.26.32,1.35,1.35,0,0,0-.15.53,1,1,0,0,0,.11.52,1.13,1.13,0,0,0,.13.2.61.61,0,0,0,.45.22A1,1,0,0,0,355,30a.93.93,0,0,0,.23-.21,1.07,1.07,0,0,0,.22-.37,1,1,0,0,0,0-.63,1.13,1.13,0,0,0-.32-.49,1.24,1.24,0,0,0-.51-.26,1,1,0,0,0-.73.1.92.92,0,0,0-.42.45,1,1,0,0,0-.11.41,1.15,1.15,0,0,0,0,.32.92.92,0,0,0,.3.53.51.51,0,0,0,.35.15.51.51,0,0,0,.5-.5.45.45,0,0,0-.15-.35Z" transform="translate(-5.71 -10.04)"/>
    </g>
  </g>
  <g>
    <path class="cls-2" d="M341.91,102.19a3.64,3.64,0,0,1-.06-2.54,1.28,1.28,0,0,1,.39-.63.47.47,0,0,1,.53.14c.55.49.54,1.52.54,2.2a7.79,7.79,0,0,1-.52,2.78,2.41,2.41,0,0,1-1.11,1.38.71.71,0,0,1-.64-.15,3,3,0,0,1-.72-.82,4,4,0,0,1-.1-4.39,3.36,3.36,0,0,1,1.52-1.22s.5-.13.34-.13-.12-.15,0,0l.08.09a3.66,3.66,0,0,1,.59,1,4.37,4.37,0,0,1-.43,4.2c-.38.48-.91.26-1.25-.23a4.81,4.81,0,0,1-.64-2.32,2.77,2.77,0,0,1,.52-2.06,1.52,1.52,0,0,1,.73-.45.7.7,0,0,1,.62.08,1.48,1.48,0,0,1,.48,1.58,5.09,5.09,0,0,1-1.44,2.22.54.54,0,0,0-.13.07c0-.08.31,0,.3,0s-.3-.54-.34-.65a2.93,2.93,0,0,1-.23-1.21,1.76,1.76,0,0,1,.32-1,1.36,1.36,0,0,1,.74-.52l-1-.74a2.45,2.45,0,0,1-.8,2.78l1.67.45a2,2,0,0,1-.07-.93,2.7,2.7,0,0,1,.13-.43c-.05,0,0,0,.07-.08a.09.09,0,0,1-.06,0,.76.76,0,0,1-.7-.33.61.61,0,0,0,0,.14c-.06.17-.07.37-.13.55a3.49,3.49,0,0,1-.48.89l1.86.51a1,1,0,0,1,.47-1.07l-1.47-.6a3.79,3.79,0,0,1-.25,2.28,1,1,0,0,0,.7,1.23,1,1,0,0,0,1.23-.7,5.61,5.61,0,0,0,.25-3.34,1,1,0,0,0-1.47-.59,2.91,2.91,0,0,0-1.46,2.79,1,1,0,0,0,1.86.5,4.78,4.78,0,0,0,.88-2.33,1.59,1.59,0,0,0-1.35-1.9c-1.93-.09-2.33,2.52-1.92,3.91a1,1,0,0,0,1.67.44A4.45,4.45,0,0,0,343,98.41a1,1,0,0,0-1-.73,3.45,3.45,0,0,0-2.87,2.35,4.78,4.78,0,0,0,.69,4.06,1.8,1.8,0,0,0,2,.82,3.37,3.37,0,0,0,1.53-1.24,5.23,5.23,0,0,0,1.42-3.62,3,3,0,0,0-5.41-1.79,5,5,0,0,0-.9,4,5.14,5.14,0,0,0,1.62,3.5,2.63,2.63,0,0,0,3.69-.33,6,6,0,0,0,1.26-3.62,6.49,6.49,0,0,0-.94-3.54,2.9,2.9,0,0,0-1.49-1.4,2.93,2.93,0,0,0-2.06.35,5.59,5.59,0,0,0-2.82,6.45,5.81,5.81,0,0,0,2.18,3.35,2.75,2.75,0,0,0,3.56-.43,6.6,6.6,0,0,0,1.61-3.53,7.81,7.81,0,0,0-.25-4.26,2.68,2.68,0,0,0-3.32-1.71c-1.36.54-1.87,2.16-1.93,3.5a5.57,5.57,0,0,0,.33,2.1,1,1,0,0,0,1.24.69,1,1,0,0,0,.69-1.23Z" transform="translate(-5.71 -10.04)"/>
    <g>
      <g>
        <g>
          <path class="cls-2" d="M319.31,61.28a64.74,64.74,0,0,1,1.55-17.93l-.92.12.3.47c.35.54,1.21,0,.87-.5l-.3-.48a.51.51,0,0,0-.92.12,66.27,66.27,0,0,0-1.58,18.2c0,.64,1,.65,1,0Z" transform="translate(-5.71 -10.04)"/>
          <path class="cls-2" d="M323.12,50.15a50.35,50.35,0,0,0,.37,10.12c.07.57,1,.41,1-.13a34.7,34.7,0,0,1,.35-5.39,14.15,14.15,0,0,1,.69-2.63,9.44,9.44,0,0,1,.56-1.21c.06-.1.16-.34.29-.39s.45.2.58.39a4.65,4.65,0,0,1,.64,2.22,19.2,19.2,0,0,1-.41,5.77c-.17.73-.39,1.43.14,2.06a.49.49,0,0,0,.61.08l.43-.28c.53-.35,0-1.22-.51-.86l-.43.28.61.08c-.19-.23,0-.77.09-1,.1-.42.18-.84.25-1.27a21,21,0,0,0,.27-2.5A10.47,10.47,0,0,0,328.1,51a2.51,2.51,0,0,0-1.28-1.45,1.35,1.35,0,0,0-1.54.76,12,12,0,0,0-1.47,4.48,38.68,38.68,0,0,0-.34,5.38l1-.13a50,50,0,0,1-.33-9.86c0-.64-1-.64-1,0Z" transform="translate(-5.71 -10.04)"/>
          <path class="cls-2" d="M336,46.65l.17,10.89.94-.25a9.78,9.78,0,0,0-1.66-2.51,3.75,3.75,0,0,0-2.35-1.51c-1.89,0-2.35,2.53-2.08,3.94a4,4,0,0,0,3.13,3.23,3.9,3.9,0,0,0,4-1.77.5.5,0,0,0-.86-.51,2.87,2.87,0,0,1-5.24-.89c-.24-.86-.05-3.65,1.46-2.85a7.27,7.27,0,0,1,2.72,3.37c.21.47.94.22.93-.25L337,46.65a.5.5,0,0,0-1,0Z" transform="translate(-5.71 -10.04)"/>
          <path class="cls-2" d="M339.38,54.17a7.68,7.68,0,0,0,5.6-3,2.58,2.58,0,0,0,.27-2.9A2.82,2.82,0,0,0,343,47.06c-2.34-.07-3.6,2.35-3.88,4.34s-.23,4.57,1.32,6.21a6.89,6.89,0,0,0,3.23,1.81c1.05.27,2.34-.09,2.38-1.35a.5.5,0,0,0-1,0c0,.92-1.68.22-2.1,0a5.09,5.09,0,0,1-2-1.42,6.2,6.2,0,0,1-.93-4.45c.12-1.56.62-3.53,2.3-4.07a1.82,1.82,0,0,1,1.88.45,1.58,1.58,0,0,1-.11,2.09,6.67,6.67,0,0,1-4.74,2.47c-.64,0-.65,1,0,1Z" transform="translate(-5.71 -10.04)"/>
          <path class="cls-2" d="M352.76,48.46c-1.33-.54-2.64.79-3.45,1.67a9,9,0,0,0-2.21,3.71,4.38,4.38,0,0,0,.67,3.73,4,4,0,0,0,3,1.7,2.76,2.76,0,0,0,2.86-1.78c.19-.61-.77-.88-1-.26-.31,1-1.61,1.21-2.49.93A3.31,3.31,0,0,1,348,55.6a5.33,5.33,0,0,1,1.32-3.9,10.26,10.26,0,0,1,1.36-1.51c.49-.44,1.14-1,1.84-.76s.85-.73.26-1Z" transform="translate(-5.71 -10.04)"/>
          <path class="cls-2" d="M356.32,58.22a25.9,25.9,0,0,0,.85-4.86c.07-.8.09-1.6.08-2.4,0-.43,0-.86-.05-1.29a2,2,0,0,1,.07-1.06c.3-.56-.56-1.07-.87-.5a4,4,0,0,0-.17,2.11,25,25,0,0,1-.87,7.73.5.5,0,0,0,1,.27Z" transform="translate(-5.71 -10.04)"/>
          <path class="cls-2" d="M362.86,48.28a8.86,8.86,0,0,0-3.05,3.27c-.64,1.3.36,2.36,1.63,2.59.66.12,1.49,0,2.07.38a1.23,1.23,0,0,1,.37,1.36c-.4,1.43-2.15,1.55-3.37,1.45l.25.93.89-.51a.5.5,0,0,0-.5-.86l-.89.51a.5.5,0,0,0,.25.93c1.35.11,3-.07,3.85-1.22a2.47,2.47,0,0,0,0-3.22,3,3,0,0,0-1.91-.65c-.55-.05-1.38-.05-1.74-.58s.53-1.48.87-1.88a8.31,8.31,0,0,1,1.82-1.63c.53-.36,0-1.22-.5-.87Z" transform="translate(-5.71 -10.04)"/>
          <path class="cls-2" d="M368,57c.36-2.81.59-5.63.72-8.46,0-.64-1-.64-1,0-.13,2.83-.36,5.65-.72,8.46-.08.63.93.63,1,0Z" transform="translate(-5.71 -10.04)"/>
          <path class="cls-2" d="M369.63,49.57l1.55,7.3c.1.46.89.49,1,0a20.93,20.93,0,0,1,2.94-8.16c.34-.55-.53-1.05-.87-.5a21.57,21.57,0,0,0-3,8.39h1l-1.54-7.3c-.14-.63-1.1-.36-1,.27Z" transform="translate(-5.71 -10.04)"/>
          <path class="cls-2" d="M376.56,54a4.16,4.16,0,0,0,3.49-2.62,2.42,2.42,0,0,0-.19-2.22,1.79,1.79,0,0,0-1.82-.81c-1.41.26-1.9,2-2.1,3.2a5.51,5.51,0,0,0,.75,4.32c1.07,1.39,2.88,1.73,4.52,2,.63.09.9-.88.27-1a8.21,8.21,0,0,1-3.23-.9,3.27,3.27,0,0,1-1.44-2.79,6.25,6.25,0,0,1,.65-3.16c.2-.35.52-.74,1-.69s.83.68.8,1.17A3,3,0,0,1,376.56,53c-.64.07-.64,1.07,0,1Z" transform="translate(-5.71 -10.04)"/>
          <path class="cls-2" d="M333.25,67.2a53,53,0,0,0-1.05,9c0,1.52,0,3,.08,4.56.05.75,0,2.71,1.26,2.39.62-.15.36-1.12-.27-1,.19.1.23.06.12-.11s0-.32-.05-.48l-.06-1c0-.64-.07-1.28-.08-1.92,0-1.24,0-2.48.05-3.71a51.11,51.11,0,0,1,1-7.6c.13-.62-.84-.89-1-.26Z" transform="translate(-5.71 -10.04)"/>
          <path class="cls-2" d="M334.84,68.49a2.19,2.19,0,0,1,1.81-1.44,2.26,2.26,0,0,1,2.2.93,3.07,3.07,0,0,1,.47,2.61,3.2,3.2,0,0,1-1.65,1.92,3.33,3.33,0,0,1-2.84.17.52.52,0,0,0-.69.18.51.51,0,0,0,.18.68,4.46,4.46,0,0,0,5.89-2.44c.84-2.29-.8-5.28-3.42-5.07a3.25,3.25,0,0,0-2.91,2.19c-.19.62.77.88,1,.27Z" transform="translate(-5.71 -10.04)"/>
          <path class="cls-2" d="M342.27,71.23a7.64,7.64,0,0,1,1.79-3.38c.69-.77,2-1.89,3.11-1.3a2.69,2.69,0,0,1,1,1.5,7,7,0,0,1,.45,2.06c.07,1.11,0,2.75-1.24,3.21a3,3,0,0,1-1.88-.08,7.35,7.35,0,0,1-1-.38,2.35,2.35,0,0,1-.42-.21l-.13-.11,0-.05c-.06-.13-.08-.1-.07.1.43-.48-.28-1.19-.71-.71-.61.69.05,1.46.71,1.78a8.27,8.27,0,0,0,2.32.74,3,3,0,0,0,2.23-.5,3.2,3.2,0,0,0,1.15-2,7.53,7.53,0,0,0-1-5.27,2.47,2.47,0,0,0-2-1.19,3.7,3.7,0,0,0-2.3.83A8.46,8.46,0,0,0,341.3,71c-.15.62.81.89,1,.27Z" transform="translate(-5.71 -10.04)"/>
          <path class="cls-2" d="M353,74l.14-4.38.07-2.2c0-.2-.09-1.33.21-1.41a.5.5,0,0,0-.27-1,1.37,1.37,0,0,0-.89,1.34c-.08.79-.06,1.6-.09,2.39L352,74c0,.64,1,.64,1,0Z" transform="translate(-5.71 -10.04)"/>
          <path class="cls-2" d="M356.75,67.55a59.55,59.55,0,0,1,.19,6.68.5.5,0,0,0,1,0,16.44,16.44,0,0,1,2.64-8.68c.13-.19.43-.6.73-.49s.22.78.23,1a17.19,17.19,0,0,1,0,2.38,18.68,18.68,0,0,1-1,4.79c-.21.61.76.87,1,.27a20.23,20.23,0,0,0,1.09-6.82,4.74,4.74,0,0,0-.27-2,1.25,1.25,0,0,0-1.41-.56,2.44,2.44,0,0,0-1.39,1.29,17.73,17.73,0,0,0-1.75,3.93,18.21,18.21,0,0,0-.81,4.91h1a59.55,59.55,0,0,0-.19-6.68c-.05-.64-1.05-.65-1,0Z" transform="translate(-5.71 -10.04)"/>
          <path class="cls-2" d="M363.39,64l5.66-.67a.51.51,0,0,0,.5-.5.5.5,0,0,0-.5-.5l-5.66.67a.51.51,0,0,0-.5.5.51.51,0,0,0,.5.5Z" transform="translate(-5.71 -10.04)"/>
          <path class="cls-2" d="M366.65,61l-1,7.92-.52,4a5.19,5.19,0,0,0,.14,3.24c.31.57,1.17.06.86-.5a2.9,2.9,0,0,1-.13-1.75c.07-.58.15-1.16.23-1.74l.48-3.71,1-7.42c.09-.63-.92-.63-1,0Z" transform="translate(-5.71 -10.04)"/>
        </g>
        <g>
          <path class="cls-2" d="M342.3,90.92l1.1,2.41c.27.6.63,2,1.55,1.46a5.1,5.1,0,0,0,.91-.76l1-.88,2-1.69c.49-.42-.22-1.13-.7-.71l-3.36,2.87-.17.15c-.12.11-.26.14,0,.16s.14,0,.07-.16l-.12-.26-.45-1-1-2.1a.51.51,0,0,0-.68-.18.51.51,0,0,0-.18.69Z" transform="translate(-5.71 -10.04)"/>
          <path class="cls-2" d="M345.47,93.68q2-7.53,3.41-15.2c.12-.63-.85-.9-1-.27q-1.43,7.67-3.41,15.21a.5.5,0,0,0,1,.26Z" transform="translate(-5.71 -10.04)"/>
        </g>
      </g>
      <path class="cls-2" d="M373.89,64a3.48,3.48,0,0,1,4,.42,1.8,1.8,0,0,1,.46,1.64,1.56,1.56,0,0,1-1.37,1c-.91.17-2.81-.34-2.87,1.07a7.15,7.15,0,0,0,.55,2.11l.78,2.47.73-.56-.58-.42c-.52-.37-1,.5-.5.87l.58.41a.5.5,0,0,0,.73-.56l-.88-2.83a8.55,8.55,0,0,1-.39-1.28s0-.24,0-.2.43,0,.51,0c1.33,0,2.94-.11,3.58-1.5a2.86,2.86,0,0,0-1.35-3.57,4.69,4.69,0,0,0-4.44,0c-.57.29-.07,1.16.5.86Z" transform="translate(-5.71 -10.04)"/>
      <path class="cls-2" d="M375.67,76s0,.08,0,.13V76a1.22,1.22,0,0,1-.06.26l.05-.12c0,.08-.09.16-.14.24l.07-.11a.73.73,0,0,1-.17.18l.1-.08-.08,0,.75.44s0-.08,0-.13l0,.14a1.69,1.69,0,0,1,.12-.44l-.05.12a2.08,2.08,0,0,1,.22-.38l-.08.11.13-.15-.84-.49-.19.63a.53.53,0,0,0,.05.39.53.53,0,0,0,.3.23.5.5,0,0,0,.61-.35l.2-.63a.54.54,0,0,0,0-.33.5.5,0,0,0-.2-.23.51.51,0,0,0-.61.07,2.29,2.29,0,0,0-.42.61,3,3,0,0,0-.14.39,2.13,2.13,0,0,0-.07.44.51.51,0,0,0,.76.43,1.58,1.58,0,0,0,.72-1.28.53.53,0,0,0-.15-.36.52.52,0,0,0-.35-.14.48.48,0,0,0-.36.14.52.52,0,0,0-.14.36Z" transform="translate(-5.71 -10.04)"/>
    </g>
  </g>
  <g>
    <g>
      <path class="cls-2" d="M39.76,171.73a98.41,98.41,0,0,1,2.94-20.92l-.61.34c.54.23.72.95.84,1.47s.31,1.34.45,2c.27,1.37.52,2.74.8,4.11a28.55,28.55,0,0,0,2.58,7.74c.26.48.88.19.94-.25a70.68,70.68,0,0,1,2.56-12,3.75,3.75,0,0,1,.2-.65c.13-.27.2-.33.39-.08a3.44,3.44,0,0,1,.43,1.3c.23,1,.43,2,.59,3.07a46.16,46.16,0,0,1,.51,6.21c0,2.29-.3,4.64.25,6.89.15.63,1.12.36,1-.26-.57-2.34-.17-4.84-.23-7.23a47.75,47.75,0,0,0-.74-7.06,12.29,12.29,0,0,0-.77-3.19c-.32-.62-1-1.22-1.73-.81S49.21,154.19,49,155c-.33,1.14-.63,2.28-.9,3.44a71.44,71.44,0,0,0-1.39,7.84l.93-.26a29.89,29.89,0,0,1-2.7-8.58c-.28-1.44-.54-2.88-.86-4.32-.26-1.15-.53-2.38-1.72-2.88a.5.5,0,0,0-.61.35,99.67,99.67,0,0,0-3,21.19c0,.64,1,.64,1,0Z" transform="translate(-5.71 -10.04)"/>
      <path class="cls-2" d="M56.93,169.88l.14-4.29.07-2.05,0-1,0-.6v-.26q.07-.36-.18,0l-.38-.05-.07-.09,0-.38v.06c-.14.63.82.9,1,.27a.63.63,0,0,0-1.21-.33,4.28,4.28,0,0,0-.08,1.29L56.12,164l-.19,5.91c0,.64,1,.64,1,0Z" transform="translate(-5.71 -10.04)"/>
      <path class="cls-2" d="M58.57,162.92l-.14,6.3h1a18.09,18.09,0,0,1,.29-4.41,17.71,17.71,0,0,1,.51-2.06,5,5,0,0,1,.73-1.82c.44-.48.55.72.59,1a17.92,17.92,0,0,1-.19,6.75c-.14.62.82.89,1,.26a18.69,18.69,0,0,0,.46-4.22,17.73,17.73,0,0,0-.14-2.18,7.46,7.46,0,0,0-.37-1.88,1.23,1.23,0,0,0-1.07-.86,1.47,1.47,0,0,0-1.24.86,9.3,9.3,0,0,0-.7,1.84,19.08,19.08,0,0,0-.49,2,19.48,19.48,0,0,0-.34,4.76.5.5,0,0,0,1,0l.14-6.3a.5.5,0,0,0-1,0Z" transform="translate(-5.71 -10.04)"/>
      <path class="cls-2" d="M65.63,169.79a61.4,61.4,0,0,0,.69-9.19.5.5,0,0,0-1,0,59.12,59.12,0,0,1-.66,8.92c-.09.63.87.91,1,.27Z" transform="translate(-5.71 -10.04)"/>
      <path class="cls-2" d="M69.12,170.37a48.49,48.49,0,0,1-.09-5c0-.76,0-1.52.13-2.27a2.35,2.35,0,0,1,.72-1.64l-.68-.18a12.27,12.27,0,0,1,1,3.52.5.5,0,0,0,1,.13A15.92,15.92,0,0,1,72.47,162c.37-.58.61.18.68.53.1.57.16,1.15.21,1.72a34.05,34.05,0,0,1,0,6.62c-.06.64.94.64,1,0a31.37,31.37,0,0,0-.25-8.6,1.88,1.88,0,0,0-.75-1.31,1.17,1.17,0,0,0-1.4.08,4.6,4.6,0,0,0-.9,1.6c-.29.66-.57,1.34-.82,2l1,.14a14,14,0,0,0-1.16-4,.49.49,0,0,0-.68-.18c-1.26.91-1.25,2.58-1.32,4a50.14,50.14,0,0,0,.06,5.75c0,.63,1,.64,1,0Z" transform="translate(-5.71 -10.04)"/>
      <path class="cls-2" d="M76.24,162.79a8,8,0,0,0-.57,3.52,4.18,4.18,0,0,0,1.1,2.94,2,2,0,0,0,2.77-.31,6.12,6.12,0,0,0,1.47-3,8.09,8.09,0,0,0-.14-3.85.5.5,0,0,0-1,.27,6.85,6.85,0,0,1,.09,3.54c-.23,1-.7,2.32-1.7,2.75s-1.46-1.08-1.57-1.83a7,7,0,0,1,.49-3.73.5.5,0,1,0-1-.27Z" transform="translate(-5.71 -10.04)"/>
      <path class="cls-2" d="M83.54,171.13l.3-8.15c0-.2,0-1.42.19-1.45a12.75,12.75,0,0,1,.51,1.66,11.16,11.16,0,0,1,.22,3.82c-.07.61.79.61,1,.14l1.26-3.1a4.53,4.53,0,0,1,.63-1.31c.12-.15.34-.34.55-.29s.28.37.31.58a35,35,0,0,1,0,6.79c-.05.65.95.64,1,0a40.48,40.48,0,0,0,.11-4.54c0-.72-.05-1.45-.12-2.17a1.8,1.8,0,0,0-.64-1.45c-1-.68-2,.28-2.44,1.17-.59,1.33-1.1,2.7-1.65,4l1,.13a12.08,12.08,0,0,0-.42-4.71c-.17-.57-.35-1.44-1-1.71a1,1,0,0,0-1.29.57,4.78,4.78,0,0,0-.26,2l-.1,2.62-.2,5.33c0,.64,1,.64,1,0Z" transform="translate(-5.71 -10.04)"/>
      <path class="cls-2" d="M94.55,156.56l-.9,8c-.07.64.93.64,1,0l.9-8c.08-.64-.92-.63-1,0Z" transform="translate(-5.71 -10.04)"/>
      <path class="cls-2" d="M93.89,168.15a3.18,3.18,0,0,0-.44.52,4.05,4.05,0,0,0-.32.62h1v.1a1.13,1.13,0,0,1,0-.26v.13a1.34,1.34,0,0,1,.07-.27l0,.12a1.12,1.12,0,0,1,.16-.28l-.08.1a1.61,1.61,0,0,1,.23-.22l-.11.08a1.49,1.49,0,0,1,.24-.14l-.12,0a1.36,1.36,0,0,1,.25-.07l-.13,0h.12l-.5-.5v.05l0-.13a.56.56,0,0,1,0,.12l0-.12a.39.39,0,0,1-.08.14l.08-.1-.11.11.1-.08-.15.09.12-.05-.16,0,.14,0H94l.13,0-.12,0,.12,0h0a.56.56,0,0,0-.38-.05.54.54,0,0,0-.3.23.53.53,0,0,0-.05.39.46.46,0,0,0,.23.3,1,1,0,0,0,.52.1,1.05,1.05,0,0,0,.51-.16,1.1,1.1,0,0,0,.53-.89.5.5,0,0,0-.14-.35.53.53,0,0,0-.36-.15,1.54,1.54,0,0,0-1.16.56,1.74,1.74,0,0,0-.35.62,1.68,1.68,0,0,0,0,.74l.05.12a.35.35,0,0,0,.13.14.45.45,0,0,0,.3.1.54.54,0,0,0,.25-.06.57.57,0,0,0,.23-.3v0l0,.12a2.55,2.55,0,0,1,.35-.6l-.08.1a4.12,4.12,0,0,1,.28-.31.49.49,0,0,0,0-.7.5.5,0,0,0-.71,0Z" transform="translate(-5.71 -10.04)"/>
    </g>
    <g>
      <path class="cls-2" d="M105.24,166.13q9.09-2.1,18.21-4c.63-.13.36-1.1-.27-1q-9.12,1.94-18.2,4c-.63.14-.37,1.11.26,1Z" transform="translate(-5.71 -10.04)"/>
      <path class="cls-2" d="M116.54,159.9a23,23,0,0,1,3.87.56c.62.14,1.24.31,1.85.5.29.1,1.1.26,1.08.67s-.43.78-.62,1.05-.5.71-.76,1.06c-.5.65-1,1.28-1.52,1.92-.29.36-.89.86-.82,1.37a.54.54,0,0,0,.49.37.61.61,0,0,0,.51-.29.53.53,0,0,0-.08-.61l0,0c-.41-.49-1.12.22-.71.71l0,0-.08-.61,0,0,.43-.24h0l.48.36c0,.05,0,.35,0,.36l0,0s0-.07.05-.07-.05.05,0-.05l.12-.16.64-.79c.58-.73,1.16-1.46,1.72-2.21s1.45-1.71,1.14-2.62a1.8,1.8,0,0,0-1.11-1,14.93,14.93,0,0,0-1.94-.59,24.88,24.88,0,0,0-4.69-.73c-.65,0-.64,1,0,1Z" transform="translate(-5.71 -10.04)"/>
    </g>
  </g>
  <g>
    <path class="cls-2" d="M31,36.12A123.14,123.14,0,0,0,47.62,58.89q2.7,2.91,5.58,5.65c.93.88,2.35-.53,1.42-1.42A120.75,120.75,0,0,1,36.85,41.89q-2.19-3.31-4.14-6.77a1,1,0,0,0-1.73,1Z" transform="translate(-5.71 -10.04)"/>
    <path class="cls-2" d="M52.38,30.73,37.51,64l-4.18,9.34a1,1,0,0,0,.36,1.36,1,1,0,0,0,1.36-.35L49.93,41.07l4.18-9.33a1,1,0,0,0-.36-1.37,1,1,0,0,0-1.37.36Z" transform="translate(-5.71 -10.04)"/>
  </g>
  <path class="cls-4" d="M79.77,198.09a97.8,97.8,0,0,0,8.7,25.64,1,1,0,0,0,1.72,0,142.28,142.28,0,0,0,10.61-22.6c.44-1.21-1.49-1.74-1.93-.53a140.25,140.25,0,0,1-10.4,22.12h1.72a95.63,95.63,0,0,1-8.49-25.16c-.24-1.26-2.16-.73-1.93.53Z" transform="translate(-5.71 -10.04)"/>
  <path class="cls-3" d="M132.72,57.42c-1.49,1.89-2.85,3.84-4.44,5.57A9.17,9.17,0,0,1,125,65.25c-2.28.93-4.3,0-5.54-2.09a14.9,14.9,0,0,1-1.82-6.46,26.94,26.94,0,0,1,.84-10.22,9.9,9.9,0,0,1,4-5.72,5.39,5.39,0,0,1,5.13-.62c1.69.66,3.26,1.78,5,2.17,2.64.58,3.19,2.44,3.64,4.6a6.83,6.83,0,0,1-.45,5.1c-.13.23-.28.57-.47.62-1.18.28-.77,1-.49,1.66a6.56,6.56,0,0,0,4.22,3.92c2,.66,4.14,1.1,6.11,1.89a23.39,23.39,0,0,1,4.1,2.38,2.74,2.74,0,0,1,.77,1.24,1.37,1.37,0,0,1-.66,1.94,1.34,1.34,0,0,1-1.92-.69c-.63-1.23-1.93-1.29-3-1.67-1.9-.67-3.88-1.11-5.81-1.7A10.53,10.53,0,0,1,132.72,57.42ZM131.3,43.6a6,6,0,0,0-9.57,2.59,19.27,19.27,0,0,0-1,4.55c-.3,3.55-.33,7.11,1.23,10.46.89,1.89,2,2.14,3.61.88a19.33,19.33,0,0,0,5.28-6.69,3,3,0,0,0,.23-1.9A18.57,18.57,0,0,1,131.3,43.6Z" transform="translate(-5.71 -10.04)"/>
  <path class="cls-3" d="M292.39,180.39a1.93,1.93,0,0,1,.49-1.34c.17-.18.84-.74,1-.43a1.65,1.65,0,0,1-.15,1.35,3.34,3.34,0,0,1-1,1.21c-.75.58-2.19,1.18-2.94.3a1.08,1.08,0,0,1,.06-1.34,3.51,3.51,0,0,1,1.43-1c.46-.2,1.08-.45,1.55-.13s.08,1-.16,1.32-.67.79-1.15.69a1,1,0,0,1-.7-.94,2.32,2.32,0,0,1,.66-1.6c.24-.29.7-.7,1.11-.64s.33.78.28,1.1a6.1,6.1,0,0,1-.56,1.82c-.23.46-.59,1.18-1.19,1.2s-.56-.76-.55-1.17a2.9,2.9,0,0,1,.59-1.8,1.63,1.63,0,0,1,1.47-.63l-.37-.48a7.62,7.62,0,0,1-.21,2.65,5.32,5.32,0,0,1-.43,1.15c-.11.2-.28.48-.55.49s-.32-.17-.41-.36a.85.85,0,0,1,0-.73,2.32,2.32,0,0,1,.68-.75,5.4,5.4,0,0,1,1-.6c.23-.1.57-.18.77,0s0,.67-.08.9c-.16.49-.44,1.14-1,1.32s-1.28-.42-1.53-1a1.16,1.16,0,0,1,.36-1.57.71.71,0,0,1,1.08.67c0,.7-.7,1.16-1.33,1.22l.43.25a2.74,2.74,0,0,1,0-2.66,1.55,1.55,0,0,1,1.87-.63l-.35-.35a2.82,2.82,0,0,1-.8,2.66,1.2,1.2,0,0,1-.91.46c-.28,0-.59-.22-.6-.47,0-.64-1-.65-1,0a1.65,1.65,0,0,0,2.06,1.42,3.37,3.37,0,0,0,2.07-2.17,3.25,3.25,0,0,0,.26-1.74.91.91,0,0,0-.41-.75,1.83,1.83,0,0,0-.73-.18,2.66,2.66,0,0,0-2.36,1.3,3.81,3.81,0,0,0,.08,3.62.47.47,0,0,0,.43.24,2.45,2.45,0,0,0,2.29-1.82,1.79,1.79,0,0,0-1.53-2.18,2,2,0,0,0-2,1.89,2.8,2.8,0,0,0,1.74,2.66,2,2,0,0,0,2.52-1.12c.47-.85,1-2.3-.08-2.92s-2.26.25-3,.92a2.09,2.09,0,0,0-.62,2.74,1.39,1.39,0,0,0,1.4.66A1.92,1.92,0,0,0,292.6,182a8.14,8.14,0,0,0,.68-4.13.52.52,0,0,0-.36-.48,2.6,2.6,0,0,0-2.28.71,3.62,3.62,0,0,0-1,2.33,2.44,2.44,0,0,0,.67,2.27,1.75,1.75,0,0,0,2.26-.45,5.88,5.88,0,0,0,1.16-2.33,3.18,3.18,0,0,0,0-2.48,1.56,1.56,0,0,0-2.15-.3,3.73,3.73,0,0,0-1.54,2,2.34,2.34,0,0,0,.41,2.35,1.74,1.74,0,0,0,2.21.32,3.17,3.17,0,0,0,1.43-2,1.58,1.58,0,0,0-1.36-1.84,4,4,0,0,0-2.59.74,2.86,2.86,0,0,0-1.48,2.06,2,2,0,0,0,1.17,2,3.14,3.14,0,0,0,2.66-.14,4.06,4.06,0,0,0,2.53-3.64,1.57,1.57,0,0,0-.42-1.06,1.24,1.24,0,0,0-1.32-.18,2.82,2.82,0,0,0-1.62,1.59,2.65,2.65,0,0,0-.22,1.15c0,.64,1,.64,1,0Z" transform="translate(-5.71 -10.04)"/>
  <path class="cls-2" d="M289.71,75.2a3.67,3.67,0,0,1-.07-2.55A1.29,1.29,0,0,1,290,72a.47.47,0,0,1,.53.14,3.07,3.07,0,0,1,.54,2.2,7.84,7.84,0,0,1-.52,2.79c-.21.52-.64,1.22-1.11,1.37a.7.7,0,0,1-.64-.15,2.82,2.82,0,0,1-.72-.82,4,4,0,0,1-.1-4.38A3.16,3.16,0,0,1,289.53,72c.05,0,.51-.14.35-.14s-.12-.15,0,0c0,0,.1.11.08.08a4.26,4.26,0,0,1,.58,1,4.36,4.36,0,0,1-.42,4.21c-.39.47-.91.25-1.25-.24a4.7,4.7,0,0,1-.64-2.32,2.79,2.79,0,0,1,.52-2.06,1.62,1.62,0,0,1,.72-.45.75.75,0,0,1,.63.08,1.51,1.51,0,0,1,.48,1.58A5.21,5.21,0,0,1,289.16,76S289,76,289,76s.3,0,.3,0-.3-.55-.35-.65a3.19,3.19,0,0,1-.23-1.22,1.84,1.84,0,0,1,.32-1,1.39,1.39,0,0,1,.74-.52l-1-.74a2.47,2.47,0,0,1-.8,2.79l1.67.44a2.1,2.1,0,0,1-.08-.93c0-.15.1-.29.14-.43-.05,0,0,0,.06-.08a.06.06,0,0,1-.06,0,.77.77,0,0,1-.7-.33v.14c-.06.17-.07.37-.13.55a3.21,3.21,0,0,1-.49.89l1.87.51a1,1,0,0,1,.47-1.07l-1.47-.59a3.7,3.7,0,0,1-.26,2.27,1,1,0,0,0,.7,1.23,1,1,0,0,0,1.23-.7,5.53,5.53,0,0,0,.26-3.34,1,1,0,0,0-1.47-.59,2.9,2.9,0,0,0-1.46,2.79,1,1,0,0,0,1.86.5,4.67,4.67,0,0,0,.87-2.33,1.57,1.57,0,0,0-1.35-1.9c-1.92-.09-2.33,2.53-1.92,3.91a1,1,0,0,0,1.67.44,4.44,4.44,0,0,0,1.32-4.73,1,1,0,0,0-1-.73A3.44,3.44,0,0,0,287,73a4.7,4.7,0,0,0,.69,4.06,1.82,1.82,0,0,0,2.05.83,3.51,3.51,0,0,0,1.53-1.25,5.22,5.22,0,0,0,1.41-3.62,3,3,0,0,0-5.4-1.78,5,5,0,0,0-.9,4A5.14,5.14,0,0,0,288,78.8a2.6,2.6,0,0,0,3.68-.33,5.92,5.92,0,0,0,1.26-3.62,6.5,6.5,0,0,0-.93-3.54,2.32,2.32,0,0,0-3.55-1,5.59,5.59,0,0,0-2.83,6.45,5.91,5.91,0,0,0,2.18,3.35,2.75,2.75,0,0,0,3.57-.43,6.58,6.58,0,0,0,1.6-3.53,7.81,7.81,0,0,0-.24-4.26,2.69,2.69,0,0,0-3.32-1.71c-1.36.54-1.88,2.16-1.93,3.5a5.17,5.17,0,0,0,.33,2.1,1,1,0,0,0,1.23.7,1,1,0,0,0,.7-1.23Z" transform="translate(-5.71 -10.04)"/>
  <path class="cls-4" d="M286.61,242.1a3.21,3.21,0,0,1,.36-.59c-.1.12.1-.11.13-.14l.28-.27s.17-.14.09-.08.06,0,.06,0l.29-.19.31-.16c-.14.07,0,0,0,0l.19-.06a2.36,2.36,0,0,1,.38-.1s.28,0,.12,0h.45c.06,0,.06,0,0,0s-.49-.27-.41-.44c0,0,0,.35,0,.24s0,0,0,.06,0,.12,0,.18l0,.13c-.05.15.06-.12,0,0a2.68,2.68,0,0,1-.18.33l-.09.12c.1-.13,0,0,0,0a2.61,2.61,0,0,1-.24.23l-.11.1c.12-.1,0,0,0,0l-.33.2s-.17.08,0,0l-.14.05-.4.11a2.65,2.65,0,0,1-.72,0,5.08,5.08,0,0,1-1.52-.31c-.29-.1-.09,0-.07,0-.15,0,0-.06,0,0a6.53,6.53,0,0,1,.11.69s0,0,.05-.06a2.37,2.37,0,0,1,.27-.28.52.52,0,0,1,.11-.1s.18-.16.06-.06a3.94,3.94,0,0,1,.67-.42l.18-.08c-.1,0,0,0,0,0l.37-.11.39-.08c-.17,0,0,0,0,0l.24,0H288c-.19,0,.11,0,.13,0l-.74-1a3,3,0,0,1,0,.59c0,.1,0,.2,0,.3,0-.19,0,.08,0,.12a5.32,5.32,0,0,1-.16.57c-.1.28.08-.14-.06.13,0,.08-.08.17-.13.26l-.16.25s-.19.24-.08.11c-.13.15-.27.29-.41.43s.12-.08-.11.08l-.22.14c-.18.12.14,0-.07,0a1.83,1.83,0,0,1-.25.06c.17,0,.05,0-.05,0h.11c-.1,0-.09,0,0,0s.17.26.11.1l.06.22q0,.15,0,0c0,.15.08-.13.08-.14s.18-.26.1-.15c.13-.17.28-.33.43-.49a3.31,3.31,0,0,1,.86-.69.94.94,0,0,1,.42-.16c.07,0,.06,0,0,0h.3c-.1,0-.09,0,0,0l-.74-1c0,.12,0,.13,0,0,0,.07,0,.13,0,.2s-.07.27-.11.4-.05.13,0,.05a1.07,1.07,0,0,1-.09.19,3.24,3.24,0,0,1-.21.35c-.07.1-.08.11,0,.05l-.13.15a2.06,2.06,0,0,1-.3.29c-.09.08-.1.09,0,0l-.14.08c-.1,0-.1,0,0,0l-.16,0c.13,0,.14,0,0,0a.43.43,0,0,1,.22.06.51.51,0,0,1,.26.42c0-.12,0-.13,0,0a3.81,3.81,0,0,1,.19-.81c0-.13.08-.26.12-.39l0,0a1.62,1.62,0,0,1,.1-.18s.22-.32.13-.22a.93.93,0,0,1,.14-.14c.07-.07.09-.08,0,0s.17-.09.2-.11c-.19.09.14,0,.19,0-.22.05.1,0,.16,0-.12,0-.13,0,0,0s.11,0,0,0c.1.06.1.06,0,0,.08.09.08.08,0,0l.09.15c-.05-.11-.06-.11,0,0,0-.12,0-.13,0,0s0,.12,0,0a1.4,1.4,0,0,1-.1.35c.08-.18-.1.15-.12.18s-.07.1,0,0l-.13.14-.14.12h0s-.35.18-.14.1l-.32.09c.22-.06-.07,0-.14,0,.13,0,.15,0,0,0s-.09,0,0,0c-.09-.06-.09,0,0,0s.09.11,0,0v1l.12-.21s.15-.19.05-.07a2.91,2.91,0,0,1,.3-.31l.18-.16,0,0,.42-.24c.06,0,.13-.06,0,0l.23-.08.42-.1c.29-.07-.1,0,.07,0h.43s.32,0,.12,0l-.7-.7c0,.1.05.19.07.29.07.28,0-.15,0,.13,0,.11,0,.21,0,.31s0,.33,0,.13a2.5,2.5,0,0,1-.11.49s-.12.31-.05.14a3.13,3.13,0,0,1-.19.36,1.67,1.67,0,0,1-.59.56c-.24.15.13,0-.14.06s.13,0-.13,0h-.1c.11,0,.1,0,0,0l.06,0h0l-.06-.06h0l0-.07c0,.1,0,.1,0,0s-.05-.3,0-.08a1.13,1.13,0,0,1,0-.26c0,.07-.05.14,0,0s-.12.15.05-.1c0,0,.18-.26.06-.11a1.72,1.72,0,0,1,.27-.27c-.15.12.1-.06.11-.07l.17-.09c.25-.15-.15,0,.12-.06l.29-.09c.25-.08-.11,0,.15,0,0,0,.34,0,.14,0a.73.73,0,0,1,.2.05c-.09,0-.08,0,0,0-.09-.07-.1-.07,0,0l-.06-.07c.06.1.06.1,0,0l0,.08c0-.13,0-.14,0,0l0-.1c0,.1,0,.1,0,0a1.66,1.66,0,0,1,.14-.13l.08,0c-.11,0-.1,0,0,0s0,0-.07,0c.19.06-.06,0-.09-.06.15.09-.11-.11-.14-.15.11.14-.17-.35-.09-.17a1.4,1.4,0,0,1-.09-.29s-.06-.33,0-.13c0-.1,0-.2,0-.3s0-.34,0-.14a2,2,0,0,1,.16-.59c-.08.17.07-.13.07-.13a1.84,1.84,0,0,1,.17-.25c-.12.14.27-.25.13-.14a2.26,2.26,0,0,1,.26-.16c-.16.08.11,0,.13,0-.2.05.07,0,.11,0s.13,0,0,0l.18.05c-.07,0-.08-.08,0,0-.15-.13.07.08.08.09-.13-.17,0,.18,0,0,0,.05,0,.3,0,.1,0,.05-.06.31,0,.11a1.39,1.39,0,0,1-.06.19c.07-.19-.05.07-.07.09.14-.18-.22.17-.05,0,0,0-.29.16-.11.08a1.82,1.82,0,0,1-.38.11c.06,0,.14,0,0,0s-.4,0-.23,0l-.27-.08c.16.06-.16-.1-.19-.12.13.09,0,0-.06-.06a.47.47,0,0,1-.1-.1c.06.08.06.07,0,0l0-.08c0,.1,0,.09,0,0h0c0-.13,0-.12,0,0,.08-.23-.08.21,0,0-.07.16-.05.07,0,0-.17.16,0,0,.05,0-.13.05-.14.06,0,0s.09,0-.06,0c.08,0,.27,0,0,0s-.15-.07-.06,0a.44.44,0,0,1-.16-.17l-.1-.77a4.15,4.15,0,0,1-.67,1.45c.08-.12-.15.16-.17.18l-.15.14s.12-.07,0,0-.34.15-.16.09l-.16.05s-.27.05-.13,0h-.08a1.09,1.09,0,0,0-.18,0c-.12,0,.14.06,0,0l-.16,0h0c.11.05.11.05,0,0s-.16-.12,0,0a.68.68,0,0,1-.12-.12c.11.13,0-.08,0,0s0-.08,0-.1,0-.22,0-.1,0-.09,0-.11,0,.13,0,0a1.06,1.06,0,0,1,0-.19l0-.11c0,.08.2-.31.12-.2a1.77,1.77,0,0,1,.3-.31.75.75,0,0,1,.22-.18,6.83,6.83,0,0,1,.87-.51l.33-.1c-.05,0,0,0-.09,0l.16,0c-.11,0-.1,0,0,0s-.11-.17,0,0,.12.15,0,0l.11.18c.08.13,0-.14,0,0l.05.17s0,.21,0,.08,0,0,0,.08,0,.21,0,.08,0,.08,0,.11l-.06.2c0,.07,0,.07,0,0l0,.09a4.75,4.75,0,0,1-.41.6,4.89,4.89,0,0,1-.65.71c.1-.08,0,0-.05,0,.17,0,.25-.09.41,0a.86.86,0,0,1,.14.13c.14.14-.07,0,0,0v0c0,.11,0,.13,0,.06s0-.06,0,0l0-.09c-.09.12,0,0,0,0,.07-.19-.05,0,.08-.11s.14-.11,0,0,.23-.13.13-.08.16,0,0,0H288c-.18,0,0,0,0,0,.21.11-.06-.11.11.06l0,0,.06.07c-.05-.08-.05-.07,0,0L288,241a.35.35,0,0,1,0-.2c.08-.09.08-.1,0,0a.26.26,0,0,1,.16-.09c-.11,0-.1,0,0,0a.34.34,0,0,1,.2.06c.1.08.11.09,0,0a.25.25,0,0,1,.11.18c0-.1,0-.1,0,0s0,.08,0,0a.43.43,0,0,1-.06.22.51.51,0,0,1-.16.13c.1-.05.09-.05,0,0s-.16,0,0,0c-.14,0-.15,0,0,0a.42.42,0,0,1-.18-.11c.08.07.07.07,0,0a1,1,0,0,0,1.73-1,1.8,1.8,0,0,0-2-.8,1.66,1.66,0,0,0-1.22,1.68,1.74,1.74,0,0,0,1.32,1.64,1.8,1.8,0,0,0,2-1.16,1.69,1.69,0,0,0-1.16-2,2.3,2.3,0,0,0-2.16.15,2.41,2.41,0,0,0-1.12,2,1.8,1.8,0,0,0,1.3,1.76,2.22,2.22,0,0,0,2.08-1,5.37,5.37,0,0,0,1.16-1.84,2.57,2.57,0,0,0-1.57-3.33,3.11,3.11,0,0,0-2.32.57,4.7,4.7,0,0,0-1.64,1.49,2.56,2.56,0,0,0,.86,3.7,3,3,0,0,0,3.67-1.06,6.16,6.16,0,0,0,.91-1.81,1.2,1.2,0,0,0-.25-1.38,1.68,1.68,0,0,0-1.06-.46,2,2,0,0,0-2.1,2.6,2.94,2.94,0,0,0,3.61,1.74,2.41,2.41,0,1,0-2.34-3.9,3.75,3.75,0,0,0-.84,4,2.76,2.76,0,0,0,1.47,1.6,1.8,1.8,0,0,0,2.1-.39,1.89,1.89,0,0,0,.14-2.2,2.23,2.23,0,0,0-2-1,3.44,3.44,0,0,0-3.22,2.38,2.29,2.29,0,0,0,2.33,2.9,3.56,3.56,0,0,0,2.91-2.93,4.39,4.39,0,0,0-.06-2.07,1,1,0,0,0-.7-.7,4.51,4.51,0,0,0-4.66,2.14,1,1,0,0,0,0,1c.83,1.4,2.77,1,3.76,0s1.41-3.11-.14-4a2.79,2.79,0,0,0-3.71,1.54,5.34,5.34,0,0,0-.55,2.21,1.56,1.56,0,0,0,1.94,1.48,3.34,3.34,0,0,0,2-1.42,4.56,4.56,0,0,0,.85-2.41,1,1,0,0,0-.73-1,3.47,3.47,0,0,0-3.06.91,3.9,3.9,0,0,0-1.68,2.67,1.81,1.81,0,0,0,2.43,1.56,4.14,4.14,0,0,0,2.25-1.87,4.88,4.88,0,0,0,.71-3.1,1,1,0,0,0-.73-1,5.34,5.34,0,0,0-4.41,1.08c-.69.56-1.49,1.47-1,2.4.41.76,1.5,1,2.28,1.15a4.67,4.67,0,0,0,4.55-1.4,3.6,3.6,0,0,0,.85-2.17,1.72,1.72,0,0,0-.46-1.34,1.84,1.84,0,0,0-1.39-.4,5,5,0,0,0-4.17,2.66,1,1,0,0,0,.36,1.37,1,1,0,0,0,1.37-.36Z" transform="translate(-5.71 -10.04)"/>
  <path class="cls-1" d="M434.05,176.24a41.71,41.71,0,0,1,13.24-.08,1.55,1.55,0,0,0,1.84-1,1.5,1.5,0,0,0-1.05-1.84,46.12,46.12,0,0,0-14.83.08,1.52,1.52,0,0,0-1.05,1.85,1.54,1.54,0,0,0,1.85,1Z" transform="translate(-5.71 -10.04)"/>
  <path class="cls-1" d="M438.83,167.78l-3.5,23.83a1.5,1.5,0,0,0,2.74,1.16l.6-.86a1.51,1.51,0,0,0-.53-2,1.54,1.54,0,0,0-2.06.54l-.6.85,2.74,1.16,3.5-23.83a1.55,1.55,0,0,0-1-1.85,1.52,1.52,0,0,0-1.85,1.05Z" transform="translate(-5.71 -10.04)"/>
</svg>
