<?xml version="1.0" encoding="UTF-8"?>
<svg id="Layer_2" data-name="Layer 2" xmlns="http://www.w3.org/2000/svg" viewBox="0 0 230.24 125.78">
  <defs>
    <style>
      .cls-1 {
        fill: #00a651;
      }

      .cls-2 {
        fill: #231f20;
      }

      .cls-3 {
        fill: #ed1c24;
      }

      .cls-4 {
        fill: #00aeef;
      }
    </style>
  </defs>
  <g id="Layer_1-2" data-name="Layer 1">
    <g>
      <g>
        <path class="cls-2" d="M26.93,61.99c4.71.18,9.42.37,14.12.6,1.76.09,3.49.34,5.21.72l-.73-.96c-.06,5.54-.12,11.08-.17,16.61-.01,1.29,1.99,1.29,2,0,.06-5.54.12-11.08.17-16.61,0-.42-.31-.87-.73-.96-4.47-.98-9.11-.94-13.67-1.14-2.07-.09-4.13-.18-6.2-.25-1.29-.05-1.29,1.95,0,2h0Z"/>
        <g>
          <path class="cls-3" d="M26.63,79.35c.44-26.11.87-52.22,1.31-78.33"/>
          <path class="cls-3" d="M27.63,79.35c.17-10.19.34-20.37.51-30.56s.34-20.37.51-30.56c.1-5.74.19-11.47.29-17.21.02-1.29-1.98-1.29-2,0-.17,10.19-.34,20.37-.51,30.56s-.34,20.37-.51,30.56c-.1,5.74-.19,11.47-.29,17.21-.02,1.29,1.98,1.29,2,0h0Z"/>
        </g>
        <path class="cls-4" d="M27.67,1.98c15.39,5.06,30.67,10.48,45.8,16.29,12.06,4.63,23.91,9.78,35.85,14.71,14.49,5.99,29.18,11.54,44,16.65,9.58,3.31,19.17,6.5,28.5,10.49,14.82,6.34,29.26,13.61,43.21,21.69,1.24.72,2.48,1.45,3.72,2.18,1.11.66,2.12-1.07,1.01-1.73-13.7-8.13-27.88-15.44-42.43-21.9-9.61-4.27-19.41-7.85-29.36-11.24-14.6-4.97-29.08-10.33-43.38-16.12-11.74-4.75-23.32-9.88-35.11-14.52C63.87,12.33,48.06,6.67,32.15,1.36c-1.31-.44-2.63-.87-3.95-1.31-1.23-.4-1.75,1.53-.53,1.93h0Z"/>
        <path class="cls-1" d="M26.63,80.74c20.39-.22,40.78-.38,61.17-.42,14.35-.03,28.69,0,43.04.18,9.33.12,18.66.28,27.99.64,5.34.2,10.69.44,16.01.95,16.35,1.56,32.74,2.32,49.17,1.92,1.75-.04,3.5-.1,5.26-.16,1.28-.05,1.29-2.05,0-2-17.56.67-35.19.16-52.68-1.58-5.08-.51-10.17-.81-15.28-1.02-8.79-.37-17.6-.55-26.4-.68-13.69-.2-27.39-.25-41.08-.24-19.48,0-38.97.14-58.45.33-2.91.03-5.83.06-8.74.09-1.29.01-1.29,2.01,0,2h0Z"/>
      </g>
      <path class="cls-3" d="M15.41,25.27c-1.16,7.62-1.07,15.33-.95,23.02h2c-.59-5.15-1.18-10.33-2.56-15.34-.64-2.33-1.38-4.83-2.61-6.92-1.03-1.74-2.87-3.32-5.03-2.61s-3.53,3.18-4.37,5.2c-.93,2.23-1.35,4.61-1.62,7-.54,4.78-.41,9.9,1.91,14.23s7.05,7.38,12.02,6.63c.53-.08.83-.75.7-1.23-.16-.57-.69-.78-1.23-.7-3.65.56-7.23-1.79-9.18-4.73-2.35-3.55-2.67-8.02-2.4-12.16.14-2.12.41-4.25.98-6.3.52-1.89,1.33-3.99,2.78-5.38,3.32-3.18,5.44,5.04,5.99,6.95,1.44,5.01,2.05,10.2,2.64,15.36.06.54.42,1,1,1,.54,0,1.01-.46,1-1-.12-7.5-.26-15.05.88-22.49.08-.53-.13-1.08-.7-1.23-.47-.13-1.15.16-1.23.7h0Z"/>
      <path class="cls-1" d="M106.79,86.97c-.62,9.89-.94,19.79-.95,29.7,0,1.11,1.71,1.38,1.96.27.58-2.49,2.1-4.73,4.23-6.16,1.91-1.29,5.25-2.61,7.3-.92,1.78,1.46,1.74,4.39,1.47,6.45-.17,1.29-.46,2.75-1.58,3.56-1.02.75-2.38.85-3.6.82-3.52-.1-7.13-1.21-10.28-2.71-1.16-.55-2.17,1.17-1.01,1.73,3.4,1.62,7.15,2.75,10.92,2.97,1.56.09,3.23-.07,4.62-.85,1.55-.86,2.38-2.43,2.72-4.12.57-2.81.65-6.29-1.25-8.64-2.25-2.8-6.33-2.16-9.16-.7-3.12,1.61-5.51,4.62-6.3,8.04l1.96.27c0-9.91.32-19.81.95-29.7.08-1.29-1.92-1.28-2,0h0Z"/>
      <path class="cls-4" d="M137.35,4.05c-5.96.94-11.71,4.24-14.58,9.7-1.39,2.64-2.11,5.7-1.77,8.69.18,1.57.6,3.13,1.65,4.36s2.56,1.87,4.02,2.43c3.58,1.36,7.44,1.71,11.22,1.19.54-.07.83-.76.7-1.23-.16-.58-.69-.77-1.23-.7-2.96.41-6.02.14-8.87-.74-1.3-.4-2.77-.89-3.84-1.77s-1.45-2.15-1.63-3.43c-.71-5.24,2.21-10.42,6.46-13.33,2.51-1.72,5.41-2.75,8.41-3.23.53-.08.83-.75.7-1.23-.16-.57-.69-.78-1.23-.7h0Z"/>
    </g>
  </g>
</svg>