<?xml version="1.0" encoding="UTF-8"?>
<svg id="Layer_2" data-name="Layer 2" xmlns="http://www.w3.org/2000/svg" viewBox="0 0 275.98 141.6">
  <defs>
    <style>
      .cls-1 {
        fill: #231f20;
      }
    </style>
  </defs>
  <g id="Layer_1-2" data-name="Layer 1">
    <g>
      <path class="cls-1" d="M93.27,94.04c5.13-4.77,10.87-8.84,17.05-12.13.57-.3.06-1.17-.5-.86-6.26,3.32-12.06,7.46-17.25,12.28-.47.44.24,1.15.71.71h0Z"/>
      <path class="cls-1" d="M101.88,86.51l-2.04,12.31c-.1.63.86.9.96.27l2.04-12.31c.1-.63-.86-.9-.96-.27h0Z"/>
      <path class="cls-1" d="M104.49,86.12c-.04,2.73-.08,5.46-.18,8.19-.02.6-.04,1.19-.09,1.79-.01.15-.03.3-.04.45.01-.24.01.01,0,0,0,0,0,.04,0,.04.26-.14-.5-.14.32-.31l.39.05c.27.13.15.33.15.1,0-.1-.04-.21-.06-.31-.05-.36-.06-.74-.04-1.1.03-.81.22-1.79.89-2.31.2-.16.48-.39.61-.16.17.28.08.85.05,1.16-.11,1.35-.48,2.7-.83,4.01-.17.62.8.89.96.27.38-1.42.77-2.87.87-4.35.05-.67.07-1.69-.63-2.07-.81-.44-1.81.36-2.25,1-.53.78-.69,1.78-.69,2.7,0,.51-.04,1.3.26,1.75s.85.23.96-.22c.21-.8.14-1.73.17-2.54.1-2.71.14-5.43.18-8.14.01-.64-.99-.64-1,0h0Z"/>
      <path class="cls-1" d="M108.22,95.05c.98-.16,1.89-.83,2.32-1.73.2-.43.33-.94.16-1.41s-.63-.8-1.14-.73c-1.11.13-1.55,1.53-1.68,2.47-.16,1.12.04,2.28.61,3.27s1.51,1.78,2.59,2.22c.25.1.55-.11.62-.35.08-.29-.1-.51-.35-.62-1.77-.73-2.83-2.68-2.46-4.56.09-.43.21-.95.53-1.27.24-.25.4-.19.35.16-.12.87-1.02,1.46-1.82,1.59-.63.1-.36,1.07.27.96h0Z"/>
      <path class="cls-1" d="M121.67,98.81c.22-4.55-.75-9.04-.73-13.59,0-.96-.03-2.02.25-2.96.1-.33.27-.75.6-.92.48-.23,1.05.07,1.46.31,1.63.94,2.79,2.89,2.54,4.8-.33,2.52-3.21,3.18-5.27,3.6-.63.13-.36,1.09.27.96,2.13-.44,4.63-1.07,5.65-3.24.95-2.01.08-4.51-1.41-6.01-.71-.71-1.77-1.48-2.82-1.51-.92-.02-1.57.62-1.88,1.43-.42,1.09-.38,2.38-.38,3.53,0,1.35.08,2.7.19,4.05.27,3.18.69,6.35.54,9.54-.03.64.97.64,1,0h0Z"/>
      <path class="cls-1" d="M126.78,89.82c-.33,1.25-.68,2.87.11,4.03.66.95,1.92,1.18,2.93.68,1.63-.82,2.15-2.79,2.06-4.49h-1c.31,2.58-1,5.25-2.05,7.53-.82,1.79-1.75,3.58-2.99,5.12-.4.5.3,1.21.71.71,1.34-1.67,2.35-3.57,3.23-5.52,1.08-2.39,2.42-5.14,2.1-7.84-.07-.62-1.03-.66-1,0,.05,1.1-.13,2.49-1,3.26-.61.54-1.6.77-2.16,0-.63-.87-.22-2.28.02-3.21.16-.62-.8-.89-.96-.27h0Z"/>
      <path class="cls-1" d="M134,89.35c2.22-1.39,4.58-2.87,7.27-3.01.64-.03.64-1.03,0-1-2.88.15-5.39,1.65-7.78,3.14-.54.34-.04,1.21.5.86h0Z"/>
      <path class="cls-1" d="M137.83,80.95c-.64,2.83-1.2,5.68-1.65,8.54-.22,1.38-.42,2.75-.59,4.14-.09.69-.17,1.38-.25,2.07-.07.62-.25,1.29.03,1.87s1.14.07.86-.5c-.1-.2.01-.55.04-.76.03-.33.07-.65.11-.97.08-.69.16-1.38.25-2.07.18-1.37.38-2.74.61-4.11.44-2.66.96-5.31,1.55-7.94.14-.63-.82-.89-.96-.27h0Z"/>
      <path class="cls-1" d="M142.16,84.38c-.9,3.85-1.38,7.79-1.43,11.74,0,.59.8.64.98.13.74-2.04,1.68-4,2.83-5.84.06-.09.11-.18.17-.28-.07-.18-.09-.14-.05.12-.04.29,0,.61,0,.9,0,.53-.03,1.05-.06,1.58-.08,1.16-.23,2.31-.44,3.45-.12.63.85.9.96.27.27-1.45.45-2.92.51-4.39.03-.72.08-1.47,0-2.18-.05-.49-.36-.94-.91-.9-.59.04-.91.67-1.18,1.11-.38.62-.73,1.25-1.07,1.89-.67,1.29-1.25,2.63-1.75,4l.98.13c.04-3.87.51-7.71,1.39-11.47.15-.63-.82-.89-.96-.27h0Z"/>
      <path class="cls-1" d="M150.42,92.07l-.38,3.13.98-.13c-.19-1.19-.47-2.43-1-3.52-.47-.97-1.51-1.83-2.65-1.48s-1.34,1.61-1.3,2.63.38,2.15,1.23,2.82c.91.72,2.25.84,3.14.03.48-.43-.23-1.14-.71-.71-.22.2-.5.28-.81.27s-.62-.11-.9-.29c-.6-.39-.88-1.21-.94-1.91-.05-.56-.1-1.63.52-1.86.73-.27,1.33.5,1.6,1.11.45.99.68,2.12.86,3.19.04.24.33.39.55.36.26-.04.4-.24.43-.49l.38-3.13c.03-.27-.25-.5-.5-.5-.3,0-.47.23-.5.5h0Z"/>
      <path class="cls-1" d="M152.61,90.1c-.45,1.04-.67,2.18-.52,3.31.12.91.68,1.86,1.71,1.81,1.11-.05,1.34-1.27,1.25-2.17-.09-1-.55-1.93-1.3-2.61-.4-.36-1.13.12-.79.61,1.06,1.51,1.67,3.32,1.62,5.17-.02.77-.18,1.65-.75,2.21-.46.45-1.31.68-1.84.23-.49-.42-1.2.29-.71.71.74.63,1.73.67,2.59.24.93-.46,1.44-1.46,1.61-2.45.39-2.28-.36-4.75-1.67-6.61l-.79.61c.46.41.78.92.94,1.52.08.32.28,1.57-.27,1.55-.62-.02-.66-1.02-.67-1.45-.01-.74.13-1.49.43-2.17.25-.58-.61-1.09-.86-.5h0Z"/>
      <path class="cls-1" d="M157.21,93.26c.03-.29.05-.47.13-.78.02-.06.03-.12.05-.18.01-.03.02-.07.04-.1.03-.08-.03.05.01-.03.03-.06.05-.11.09-.17.02-.03.04-.06.06-.09.08-.14-.03.03.02-.03.04-.05.08-.09.13-.13,0,0,.08-.07.04-.04-.04.03.02-.01.02-.02.05-.03.11-.06.16-.1.01,0,.09-.04,0,0,.03-.01.07-.03.11-.04.05-.01.1-.03.15-.04-.1.02.05,0,.09,0s.08.02,0,0c.03,0,.06.01.09.02,0,0,.07.03.02,0-.06-.02.05.03.06.04.08.04.04.03.02,0,.03.02.05.04.07.07s.05.05.07.07c-.01-.02-.04-.07.01.02.03.05.06.1.09.15.02.03.03.06.04.09.04.07-.03-.1.01.03.04.11.07.23.09.35.01.08,0-.07,0,0,0,.02,0,.05,0,.07,0,.07,0,.14,0,.22,0,.03,0,.06,0,.1,0,.08.01-.07,0,0-.01.05-.02.11-.04.16-.02.06-.04.12-.06.18,0,.01-.04.09,0,.01-.02.04-.03.07-.05.11-.03.05-.05.1-.09.14-.02.03-.04.05-.05.08.05-.06,0,0-.01,0-.04.05-.08.09-.13.13-.02.02-.04.03-.05.05-.04.04.04-.03-.03.02-.06.04-.12.08-.18.11-.03.02-.05.03-.08.04s-.1.04-.03.02c-.13.05-.27.09-.41.11-.02,0-.1,0,0,0-.03,0-.06,0-.09,0-.07,0-.14,0-.21,0-.03,0-.06,0-.09,0-.06,0,.06.02-.03,0-.08-.02-.15-.04-.23-.06-.25-.08-.56.09-.62.35-.06.27.08.53.35.62.66.21,1.42.11,2.01-.25.64-.39,1.03-1.04,1.12-1.78.08-.68-.13-1.48-.67-1.94-.63-.54-1.48-.42-2.09.08-.68.55-.81,1.48-.9,2.3-.03.26.25.51.5.5.29-.01.47-.22.5-.5h0Z"/>
      <path class="cls-1" d="M160.24,88.9c.11,2.32.23,4.64.34,6.96h1c-.09-1.08-.06-2.19.28-3.22.19-.58.5-1.08.94-1.5.19-.18.45-.45.72-.49.23-.04.33.18.4.37.22.6,1.19.34.96-.27-.32-.89-1.1-1.39-2-.92-.69.36-1.3,1.05-1.65,1.74-.67,1.31-.77,2.85-.65,4.29.05.63,1.03.65,1,0-.11-2.32-.23-4.64-.34-6.96-.03-.64-1.03-.64-1,0h0Z"/>
      <path class="cls-1" d="M165.89,93.77c.86-.12,1.64-.75,1.78-1.63.13-.81-.22-1.92-1.14-2.07-.5-.08-.97.12-1.24.55-.25.4-.31.92-.38,1.37-.13.88-.18,1.82.13,2.67.35.97,1.07,1.64,2.03,1.98.61.21.87-.75.27-.96-.66-.23-1.16-.72-1.37-1.39-.24-.75-.18-1.58-.04-2.35.04-.22.07-.86.36-.9.22-.03.34.27.38.48.16.73-.39,1.18-1.06,1.28-.27.04-.41.38-.35.62.08.29.35.39.62.35h0Z"/>
      <path class="cls-1" d="M170.02,92.6l.42,1.68c.16.63,1.1.36.96-.27-.2-.93-.57-1.83-1.1-2.63-.26-.39-.56-.83-.98-1.07-.47-.27-1.04-.16-1.35.3-.25.38-.27.9-.27,1.34,0,.49.06,1,.2,1.47.25.89.73,1.79,1.48,2.35s2.01.64,2.65-.18c.17-.21.21-.5,0-.71-.17-.17-.54-.21-.71,0-.32.41-.87.39-1.29.13-.52-.33-.87-.97-1.07-1.53-.23-.65-.34-1.37-.23-2.05,0-.04.05-.25.06-.26.01,0,.11.07.14.09.25.21.44.53.61.8.43.68.72,1.43.89,2.21l.96-.27-.42-1.68c-.15-.62-1.12-.36-.96.27h0Z"/>
      <path class="cls-1" d="M171.59,90.09c-.07,1.6,0,3.21.21,4.8.08.64.93.65,1,0,.12-1.08.33-2.14.61-3.19.14-.52.29-1.05.49-1.55.03-.07.05-.18.1-.23.02-.01-.06-.07.02.03.13.17.22.35.31.54.86,1.8.92,3.87.95,5.83.01.64,1.01.64,1,0-.02-1.25-.07-2.49-.28-3.72-.11-.62-.26-1.24-.48-1.83-.19-.51-.4-1.12-.79-1.51s-1.01-.48-1.42-.05-.55,1.2-.72,1.75c-.39,1.29-.64,2.62-.79,3.96h1c-.2-1.59-.27-3.19-.21-4.8.03-.64-.97-.64-1,0h0Z"/>
      <path class="cls-1" d="M106.25,108.53c3.95-2.93,8.13-5.53,12.5-7.77.57-.29.07-1.16-.5-.86-4.37,2.24-8.56,4.84-12.5,7.77-.51.38-.01,1.25.5.86h0Z"/>
      <path class="cls-1" d="M113.2,102.92c-1.09,4.06-2.06,8.15-2.93,12.26-.13.63.83.9.96.27.86-4.11,1.84-8.2,2.93-12.26.17-.62-.8-.89-.96-.27h0Z"/>
      <path class="cls-1" d="M117.67,104.63c-.55,3.68-.83,7.39-.81,11.12,0,.57.81.67.98.13.27-.84.54-1.68.87-2.5.16-.4.34-.79.54-1.18.14-.27.43-1.02.77-1.06.21-.03.19.09.23.3.05.22.05.46.06.69.02.41,0,.82-.03,1.23-.08.92-.3,1.81-.62,2.66-.23.6.74.86.96.27.44-1.17.68-2.4.69-3.65,0-.83.06-2.3-.99-2.54-1.11-.26-1.75,1.18-2.12,1.96-.55,1.14-.94,2.35-1.33,3.55l.98.13c-.02-3.63.23-7.26.77-10.85.09-.63-.87-.9-.96-.27h0Z"/>
      <path class="cls-1" d="M122.77,112.94c1.16-.07,2.04-.88,2.55-1.88.26-.5.5-1.08.41-1.65-.1-.61-.64-1-1.25-.91-1.11.17-1.77,1.49-1.95,2.48-.2,1.14,0,2.31.49,3.35.61,1.29,1.83,2.29,3.32,2.02.63-.11.36-1.08-.27-.96-1.13.21-1.95-.91-2.3-1.83s-.45-1.9-.15-2.82c.13-.4.37-.85.72-1.11.09-.07.31-.22.39-.11.09.13-.04.44-.08.57-.28.82-.94,1.79-1.89,1.85-.64.04-.64,1.04,0,1h0Z"/>
      <path class="cls-1" d="M129.19,113.22c-.02-.62-.06-1.31.22-1.87.12-.25.26-.39.47-.51.12-.07.12-.07.26-.11.02,0,.2-.04.11-.03.07,0,.15,0,.22,0,.06,0,0,0-.01,0,.03,0,.06.02.09.02.08.02.04.01.02,0,.03.01.06.03.09.05,0,0,.08.05.02.01.02.02.04.03.06.05.02.02.05.05.07.07.02.03.02.03,0,0l.03.04c.07.14.07.12.11.28.03.13.03.17.03.34,0,.5-.18,1.12-.47,1.59-.17.27-.37.48-.66.61-.22.1-.52.13-.72.04-.25-.11-.54-.07-.68.18-.13.21-.07.57.18.68.83.38,1.78.12,2.39-.54.57-.62.86-1.49.95-2.32.08-.76-.18-1.64-.93-1.98s-1.63-.04-2.15.55c-.69.77-.71,1.86-.68,2.84,0,.27.22.5.5.5s.51-.23.5-.5h0Z"/>
      <path class="cls-1" d="M132.84,108.46c0,2.37.2,4.73.56,7.07.09.56.99.42.98-.13-.03-1.36.08-2.78.62-4.05.26-.59.61-1.19,1.1-1.62.37-.33,1.12-.63,1.47-.1s1.22.03.86-.5c-.47-.7-1.36-.95-2.15-.65-.83.31-1.42,1.04-1.85,1.79-.89,1.55-1.1,3.39-1.06,5.14l.98-.13c-.34-2.25-.51-4.52-.52-6.8,0-.64-1-.64-1,0h0Z"/>
      <path class="cls-1" d="M138.96,113.13c.89-.39,1.65-1.05,2.18-1.86.27-.4.53-.89.59-1.38s-.22-.99-.73-1.11c-1.16-.28-1.68,1.13-1.89,2-.25,1.07-.21,2.22.16,3.25.2.56.47,1.11.97,1.45.47.32,1.15.37,1.61.03.22-.16.33-.43.18-.68-.13-.22-.46-.34-.68-.18-.76.55-1.21-1.08-1.31-1.55-.19-.93-.1-1.92.26-2.8.07-.16.15-.39.3-.5.05-.04.04-.02.11-.05.11-.05.05.08.03-.01-.02-.07-.01.07-.02.1-.01.09-.06.19-.1.28-.08.19-.18.37-.29.54-.45.72-1.12,1.27-1.9,1.61-.25.11-.3.47-.18.68.15.25.44.29.68.18h0Z"/>
      <path class="cls-1" d="M142.41,107.77c-.25,2.69-.28,5.39-.08,8.08.04.52.89.73.98.13.19-1.29.42-2.57.68-3.84.13-.62.27-1.24.42-1.86.11-.46.17-1.22.6-1.51l-.73-.3c.51,1.73.69,3.5.56,5.3-.05.65.92.62,1,0,.16-1.25.33-2.53.79-3.71.39-.98,1.07-2.08,2.05-2.57s.61,1.93.57,2.32c-.14,1.28-.48,2.53-.97,3.72-.24.6.73.86.96.27.61-1.5.97-3.1,1.06-4.72.06-.99-.04-2.76-1.45-2.68-.66.04-1.29.59-1.73,1.04-.49.5-.89,1.09-1.19,1.72-.69,1.45-.9,3.04-1.1,4.61h1c.14-1.88-.06-3.76-.59-5.57-.09-.29-.46-.49-.73-.3-.49.34-.73.82-.88,1.39-.19.68-.34,1.38-.49,2.07-.31,1.44-.58,2.89-.79,4.35l.98.13c-.2-2.69-.17-5.39.08-8.08.06-.64-.94-.64-1,0h0Z"/>
    </g>
    <g>
      <path class="cls-1" d="M24.26,67.86c4.32-2.73,7.6-7.34,12.73-8.65.62-.16.36-1.12-.27-.96-5.26,1.34-8.56,5.96-12.97,8.76-.54.34-.04,1.21.5.86h0Z"/>
      <path class="cls-1" d="M30.19,62.51c.08,4.04.25,8.08.51,12.12.04.64,1.04.64,1,0-.25-4.04-.42-8.08-.51-12.12-.01-.64-1.01-.64-1,0h0Z"/>
      <path class="cls-1" d="M34.45,62.06c.23,3.92.57,7.83,1.01,11.73.07.62.98.66,1,0,.03-1.18.07-2.37.26-3.54.07-.42.15-.89.33-1.28.05-.09.1-.23.2-.28-.1.06,0,.01.07.02.12.02.25.04.36.1.37.22.34.67.37,1.05.04.49.07.98.1,1.47.04.72.08,1.43.1,2.15.03.64,1.03.64,1,0-.04-.99-.09-1.99-.16-2.98-.08-1.13-.07-2.41-1.41-2.74-1.15-.28-1.6.7-1.82,1.65-.33,1.42-.37,2.91-.41,4.36h1c-.45-3.9-.78-7.81-1.01-11.73-.04-.64-1.04-.64-1,0h0Z"/>
      <path class="cls-1" d="M41.04,69.71c.75-.59,1.24-1.48,1.37-2.42.11-.81-.11-2.12-1.2-2.03-.51.04-.92.45-1.05.93s-.04,1.05.02,1.55c.12,1.02.33,2.09.93,2.95s1.56,1.53,2.66,1.54c.64,0,.64-.99,0-1-1.95-.02-2.48-2.38-2.63-3.9-.02-.17-.17-1.04.13-1.07.18-.02.18.48.18.61-.01.85-.45,1.62-1.11,2.14-.21.17-.17.53,0,.71.21.21.49.17.71,0h0Z"/>
      <path class="cls-1" d="M55.8,52.66c-1.65,1.51-3.09,3.24-4.28,5.13-.61.97-1.15,1.99-1.62,3.04-.33.73-1.03,1.88-.51,2.66.47.7,1.65.71,2.39.64.93-.08,1.84-.34,2.75-.53s1.93-.32,2.73.24c.71.51.91,1.44.79,2.26-.38,2.58-3.3,3.24-5.49,3.32-.64.02-.64,1.02,0,1,2.02-.08,4.34-.51,5.65-2.22,1-1.3,1.24-3.37.14-4.69-1.28-1.54-3.37-1.05-5.05-.67-.48.11-.96.22-1.44.27-.37.04-1.27.15-1.56-.14s.33-1.37.46-1.66c.26-.57.53-1.13.83-1.68,1.28-2.36,2.94-4.47,4.92-6.28.47-.44-.23-1.14-.71-.71h0Z"/>
      <path class="cls-1" d="M59.4,59.51c.11,1.48.54,2.91,1.3,4.19s1.74,2.4,3.11,2.9c1.22.45,2.59.06,3.16-1.17s.25-2.7.03-3.98c-.35-2.05-.78-4.09-1.27-6.12-.15-.62-1.12-.36-.96.27.46,1.86.86,3.73,1.19,5.61.21,1.18.82,3.22-.17,4.22-1.19,1.19-2.99-.52-3.7-1.45-.97-1.29-1.56-2.85-1.68-4.46-.05-.64-1.05-.64-1,0h0Z"/>
      <path class="cls-1" d="M72.03,65.33l-2.08-7.36c-.3-1.08-.81-2.4-.27-3.49.37-.75,1.17-1.23,1.98-1.35,1.87-.28,3.17,1.6,2.85,3.33-.35,1.9-2.52,2.79-4.24,2.27-.62-.19-.88.78-.27.96,1.66.5,3.58,0,4.69-1.36s1.12-3.33.13-4.75-2.76-1.84-4.31-1.15c-1.89.83-2.31,2.69-1.87,4.57.69,2.89,1.6,5.73,2.41,8.59.17.62,1.14.36.96-.27h0Z"/>
      <path class="cls-1" d="M77.24,51.37c0,3.92-.01,7.84-.02,11.76,0,.3.32.6.63.48,2.32-.86,4.62-1.76,6.91-2.7.59-.24.33-1.21-.27-.96-2.29.94-4.59,1.84-6.91,2.7l.63.48c0-3.92.01-7.84.02-11.76,0-.64-1-.64-1,0h0Z"/>
      <path class="cls-1" d="M78.74,57.93l4.04-1.41c.25-.09.42-.34.35-.62-.07-.25-.36-.44-.62-.35l-4.04,1.41c-.25.09-.42.34-.35.62.07.25.36.44.62.35h0Z"/>
      <path class="cls-1" d="M77.54,51.65c1.45-.43,2.94-.72,4.44-.83.27-.02.5-.22.5-.5,0-.25-.23-.52-.5-.5-1.6.12-3.18.41-4.71.87-.62.18-.35,1.15.27.96h0Z"/>
      <path class="cls-1" d="M89.19,60.58c-.61-.73-.85-1.66-1.1-2.56-.28-1.02-.56-2.04-.85-3.06-.58-2.1-1.2-4.2-1.75-6.31-.24-.91-.42-2.03.44-2.68.72-.55,1.7-.53,2.5-.18,1.39.61,3.49,2.62,2.72,4.32-.42.92-1.5,1.33-2.38,1.65s-1.8.68-2.53,1.35c-.23.21-.18.64.1.79,3.58,1.86,7.36,3.29,11.28,4.26.62.15.89-.81.27-.96-3.83-.95-7.54-2.34-11.04-4.16l.1.79c1.53-1.4,4.25-1.22,5.15-3.38.84-2.01-.96-4.14-2.54-5.17s-4.06-1.08-4.99.82c-.53,1.07-.18,2.29.12,3.38.37,1.33.74,2.66,1.11,4,.4,1.45.8,2.9,1.21,4.35.34,1.23.65,2.47,1.48,3.47.41.5,1.12-.22.71-.71h0Z"/>
      <path class="cls-1" d="M108.25,61.43c-1.84-4.91-3.67-9.81-5.49-14.72-.2-.54-.4-1.07-.6-1.61-.05-.13-.1-.26-.14-.39-.06-.18-.16-.4-.15-.6.04-.49.76-.58,1.14-.68,2.47-.63,6.68,0,6.73,3.2.02,1.48-.88,2.96-1.85,4.02-.8.87-1.74,1.56-2.77,2.13-.56.31-.06,1.17.5.86,2.35-1.29,4.61-3.49,5.06-6.24.48-2.97-2.17-4.9-4.87-5.17-.87-.09-1.76-.03-2.62.14-.7.14-1.71.32-2.13.99s-.08,1.44.17,2.11c.65,1.75,1.3,3.5,1.95,5.24,1.36,3.66,2.73,7.32,4.1,10.98.22.6,1.19.34.96-.27h0Z"/>
      <path class="cls-1" d="M112.62,49.37c.51.56.7,1.33,1.31,1.82.54.44,1.22.53,1.82.15s1.02-1.17,1.34-1.8c.38-.76.65-1.56.81-2.39l-.96-.27c-.9,4.9-2.08,9.74-3.53,14.5-.19.62.78.88.96.27,1.45-4.76,2.63-9.6,3.53-14.5.12-.63-.84-.9-.96-.27-.23,1.15-.65,2.31-1.37,3.25-.97,1.27-1.67-.86-2.24-1.47-.44-.47-1.14.23-.71.71h0Z"/>
      <path class="cls-1" d="M117.99,46.23c1.96-1.89,4.29-3.4,6.83-4.38.59-.23.34-1.2-.27-.96-2.71,1.05-5.18,2.62-7.27,4.64-.46.45.24,1.15.71.71h0Z"/>
      <path class="cls-1" d="M120.11,38.24c.22,2.54.47,5.08.77,7.61.14,1.19.29,2.38.45,3.56.14,1.06.19,2.14.91,2.99.42.49,1.12-.22.71-.71-.65-.77-.61-2.2-.73-3.15-.15-1.14-.29-2.29-.42-3.43-.26-2.29-.49-4.58-.69-6.88-.05-.64-1.05-.64-1,0h0Z"/>
      <path class="cls-1" d="M124.8,37.99c.05,4.02.33,8.04.85,12.03.08.64.92.64,1,0,.14-1.13.37-2.24.67-3.33.14-.5.29-.99.46-1.48.11-.31.31-1.31.65-1.43.25-.09.42.89.48,1.13.13.5.23,1.01.3,1.52.16,1.13.17,2.27.07,3.41-.06.64.94.64,1,0,.13-1.49.05-2.98-.23-4.44-.17-.85-.39-2.84-1.67-2.66-1.14.16-1.49,1.96-1.77,2.84-.46,1.45-.76,2.94-.96,4.45h1c-.52-3.99-.81-8-.85-12.03,0-.64-1.01-.64-1,0h0Z"/>
      <path class="cls-1" d="M132.51,43.59l1.13,2.92.91-.39c-.45-.86-1.02-1.66-1.68-2.38-.15-.17-.31-.33-.47-.48-.2-.19-.41-.41-.69-.48-.54-.13-.93.29-1.09.76-.14.4-.14.88-.15,1.3,0,.45.04.92.17,1.36.25.83.81,1.5,1.65,1.76s1.81.05,2.28-.73c.34-.55-.53-1.05-.86-.5,0,0-.08.12-.03.06.04-.05-.02.02-.03.03-.02.02-.16.14-.07.07-.04.03-.09.06-.14.09,0,0-.12.05-.05.03.06-.02-.06.02-.08.02-.06.02-.12.03-.19.04.11-.02-.04,0-.08,0-.07,0-.13,0-.2,0-.09,0,.12.03-.02,0-.04,0-.07-.01-.11-.02-.07-.02-.13-.03-.2-.06-.03,0-.06-.02-.08-.03.08.03.01,0,0,0-.07-.03-.13-.07-.2-.11-.03-.02-.05-.03-.08-.05-.09-.06.04.04-.04-.03-.2-.19-.35-.41-.45-.66-.24-.66-.22-1.35-.14-2.06.01-.1-.01.06,0-.02,0-.04.02-.08.03-.12,0-.03.07-.18.03-.1.01-.03.03-.05.05-.08-.06.1.04-.03-.02.01h-.02s.05-.01-.01.02h-.05c-.11-.03-.14-.03-.08,0,0,.01.02.02.05.04.03.03.06.06.09.09.06.06.12.12.19.18.15.15.3.3.44.46.57.64,1.06,1.35,1.46,2.1.12.22.41.3.62.2s.38-.35.29-.59l-1.13-2.92c-.1-.25-.34-.43-.62-.35-.24.07-.45.36-.35.62h0Z"/>
      <path class="cls-1" d="M135.95,42.08c-.54,1.16-.73,2.44-.44,3.7.22.97.93,1.99,2.07,1.78,1.27-.24,1.12-1.69.88-2.64-.3-1.16-.94-2.21-1.82-3.03l-.61.79c1.79,1.05,2.6,3.4,3.08,5.3.28,1.09.4,2.31-.08,3.36-.41.91-1.23,1.67-2.26,1.7-.64.02-.64,1.02,0,1,1.2-.04,2.19-.71,2.85-1.7.75-1.14.85-2.52.63-3.83s-.72-2.68-1.31-3.9c-.55-1.13-1.31-2.15-2.41-2.8-.48-.28-1.03.39-.61.79.53.49.96,1.06,1.26,1.72.18.39.81,1.99.27,2.24-.75.36-1.02-1.14-1.06-1.57-.08-.83.07-1.66.42-2.41.27-.58-.59-1.09-.86-.5h0Z"/>
      <path class="cls-1" d="M140.81,44.5c-.14-.18-.2-.29-.25-.48,0-.03-.02-.07-.02-.1,0,0-.02-.17-.01-.06,0-.09-.01-.18,0-.28,0-.07,0-.14.02-.21-.02.14,0-.04.02-.07.02-.07.04-.15.06-.22.01-.03.02-.06.03-.09-.04.1.02-.04.03-.05.04-.07.08-.14.12-.21.02-.03.04-.07.07-.1.05-.07-.08.08.03-.03.07-.07.14-.14.21-.21.19-.18.55-.31.84-.31.58,0,1.16.49,1.31,1.11.01.04.02.08.03.13.02.09,0-.11,0,.05,0,.09,0,.17,0,.26,0,0-.02.17,0,.07,0,.04-.01.08-.02.12-.02.1-.05.2-.09.29-.03.08.05-.09-.02.04-.02.04-.05.09-.07.13-.02.03-.04.06-.05.09-.08.13.05-.05-.04.06-.06.06-.11.13-.18.18,0,0-.13.1-.06.05-.04.03-.09.06-.13.09-.09.06-.17.09-.22.11-.1.03-.2.06-.3.08-.15.03.08,0-.07,0-.05,0-.1,0-.15,0s-.1,0-.15,0c-.11,0,.03.01-.07,0s-.2-.04-.29-.08c0,0-.15-.06-.07-.02-.05-.02-.09-.04-.13-.07s-.08-.05-.13-.08c-.05-.03-.05-.04-.02-.01-.02-.02-.04-.03-.06-.05-.08-.07-.16-.15-.22-.24-.17-.21-.53-.18-.71,0-.21.21-.17.5,0,.71.63.78,1.79,1.06,2.71.69s1.62-1.35,1.55-2.4-.82-2.01-1.86-2.25-2.07.31-2.58,1.21c-.45.8-.47,1.9.09,2.65.16.22.43.33.68.18.21-.12.34-.47.18-.68Z"/>
      <path class="cls-1" d="M144.58,39.53c.1,2.38.68,4.69,1.7,6.83.25.52,1.05.15.91-.39-.4-1.56-.61-3.15-.61-4.75,0-.66-.05-1.43.27-2.03.28-.53.88-.77,1.45-.63.62.16.89-.81.27-.96-.76-.19-1.57,0-2.15.53-.62.56-.78,1.42-.82,2.22-.11,1.97.14,3.98.63,5.89l.91-.39c-.94-1.98-1.47-4.14-1.57-6.33-.03-.64-1.03-.64-1,0h0Z"/>
      <path class="cls-1" d="M149.12,42.7c.75-.6,1.59-1.47,1.21-2.51-.16-.43-.5-.83-.96-.95-.49-.13-.99.09-1.27.49-.53.77-.22,1.9.05,2.7.34.99.88,1.9,1.58,2.67.37.41.82.83,1.37.96s1.13-.06,1.49-.54c.16-.22.04-.56-.18-.68-.26-.15-.52-.04-.68.18-.19.25-.64-.02-.8-.14-.33-.25-.62-.59-.86-.92-.54-.72-.93-1.54-1.14-2.42-.08-.33-.16-.69-.09-1.03.04-.21.16-.4.37-.24.69.55-.42,1.41-.8,1.72-.21.17-.18.53,0,.71.21.21.5.17.71,0h0Z"/>
      <path class="cls-1" d="M154.21,38.83c.33,1.06.66,2.13.99,3.19l.84-.49c-.9-.98-1.91-1.84-3.02-2.58-.48-.32-1.13-.77-1.71-.42-.32.19-.43.59-.47.94-.09.78.02,1.69.27,2.44.31.95.94,1.75,1.87,2.16,1.1.48,2.28,0,2.88-1,.33-.55-.53-1.06-.86-.5-.02.03-.03.06-.05.08-.02.02-.11.15-.04.06-.09.11-.21.24-.31.31-.32.25-.72.31-1.1.18-.65-.22-1.14-.8-1.36-1.41s-.28-1.09-.3-1.71c0-.19,0-.45.02-.58.01-.06.03-.11.05-.17-.04.12-.03.04-.01.03.06-.07.01-.01-.02.02.09-.08-.04.03-.03.02-.02.04-.08-.01.04.04.24.1.47.26.69.41,1.02.68,1.95,1.49,2.78,2.4.34.37.98-.02.84-.49-.33-1.06-.66-2.13-.99-3.19-.19-.61-1.16-.35-.96.27h0Z"/>
      <path class="cls-1" d="M155.58,39.06l1.9,4.84c.23.59,1.13.37.96-.27-.33-1.23-.65-2.45-.87-3.71-.1-.6-.17-1.21-.2-1.82-.02-.33-.02-.65-.01-.98,0,.03.02-.31.03-.3-.16.04-.18.08-.07.14.04.03.07.07.1.11.35.43.63.97.9,1.45s.52.98.74,1.49c.47,1.05.82,2.16,1.09,3.28.15.63,1.11.36.96-.27-.5-2.12-1.35-4.16-2.52-6-.26-.4-.52-.86-.99-1.05s-1,.04-1.17.54-.09,1.09-.07,1.59c.03.6.1,1.21.19,1.8.21,1.35.56,2.67.91,3.98l.96-.27-1.9-4.84c-.23-.59-1.2-.33-.96.27h0Z"/>
      <path class="cls-1" d="M164.04,34.15c3.07-2.71,6.17-5.4,9.29-8.06.49-.42-.22-1.12-.71-.71-3.12,2.66-6.22,5.34-9.29,8.06-.48.43.23,1.13.71.71h0Z"/>
      <path class="cls-1" d="M168.42,29.65c-.45,3.41-.36,6.86.2,10.26.11.63,1.07.36.96-.27-.55-3.3-.6-6.67-.17-9.99.08-.64-.92-.63-1,0h0Z"/>
      <path class="cls-1" d="M172.3,28.2c.39,3.8.93,7.59,1.64,11.34.11.58.95.4.98-.13.14-2.02.28-4.16,1.27-5.98.06-.11.27-.6.4-.62-.13.02.13.41.18.51.22.5.39,1.02.51,1.55.24,1.06.27,2.16.1,3.24-.1.63.86.9.96.27.23-1.39.18-2.79-.19-4.15-.22-.78-.81-3.01-2.05-2.29-.5.3-.79.99-1.02,1.49-.28.61-.49,1.24-.64,1.89-.32,1.34-.42,2.72-.52,4.09l.98-.13c-.69-3.67-1.22-7.36-1.6-11.08-.06-.63-1.06-.64-1,0h0Z"/>
      <path class="cls-1" d="M178.98,35.32c.93-.27,1.89-.92,2.09-1.93.19-.93-.43-2.35-1.57-2.13-.94.18-1.28,1.3-1.29,2.13-.01,1.14.21,2.4.69,3.44s1.57,1.26,2.56,1.02c.62-.15.36-1.12-.27-.96-.46.11-1.06.06-1.32-.34-.17-.26-.25-.57-.33-.86-.12-.43-.22-.87-.28-1.32-.07-.6-.2-1.47.23-1.98.09-.11.22-.17.29-.13.23.15.34.56.33.81-.05.68-.8,1.12-1.4,1.29s-.35,1.14.27.96h0Z"/>
      <path class="cls-1" d="M182.81,33.85c.02.13,0-.01,0-.03,0-.04,0-.08,0-.13s0-.08,0-.13c0,.12,0-.02,0-.04.02-.08.04-.17.06-.25,0-.03.02-.05.03-.08,0-.03.02-.05.03-.08-.02.05-.02.05,0,0,.04-.08.08-.15.12-.22.02-.04.05-.07.07-.1.07-.11-.07.07.02-.03.04-.05.09-.1.13-.15.03-.03.06-.05.09-.08-.1.09.02-.01.05-.03.03-.02.06-.03.09-.05.09-.05-.1.02,0,0,.01,0,.05-.01.06-.02.09-.04-.1,0,0,0,.02,0,.08-.01.09,0h-.07s.04,0,.06,0c.1.06-.1-.06,0,0,.03.02.14.11.05.02.04.03.07.07.1.1.02.02.08.11,0,0,.02.03.04.05.06.08.04.06.07.12.1.18.02.03.03.06.05.1,0,.02.06.14.01.02.12.3.21.62.26.94,0,.02.02.16,0,.03,0,.04,0,.08.01.12,0,.07.01.15.02.23,0,.16,0,.32,0,.49,0,.04,0,.07-.01.11.02-.14,0-.02,0,0-.01.05-.02.11-.04.16,0,.03-.02.06-.03.09-.03.1.02,0,0-.01,0,.01-.03.06-.04.07-.05.1.05-.03,0,.02-.01,0-.03.03-.04.04-.06.08.09-.07,0,0-.09.07.02,0,.02,0,0,0-.08.03-.08.02,0,0,.13,0,.01,0-.02,0-.08,0-.09,0h.07s-.04,0-.06,0c-.03,0-.07-.02-.1-.03s-.07-.02-.1-.03c.13.05-.02-.01-.05-.03-.08-.04-.16-.09-.23-.14-.02-.02-.04-.03-.07-.05.1.07-.04-.04-.06-.05-.07-.07-.14-.14-.21-.21-.03-.03-.06-.06-.08-.1t0,0s-.03-.05-.05-.07c-.05-.07-.09-.14-.13-.22-.02-.04-.04-.07-.06-.11-.02-.05-.02-.05,0,0,0-.03-.02-.05-.03-.08-.03-.09-.05-.18-.07-.27-.05-.27-.37-.42-.62-.35-.28.08-.39.35-.35.62.14.82.82,1.62,1.58,1.95.4.17.85.24,1.25.02.34-.19.53-.57.61-.93.16-.79.05-1.67-.24-2.42-.13-.35-.31-.72-.6-.97-.34-.3-.81-.42-1.24-.25-1,.38-1.5,1.6-1.36,2.6.04.27.38.41.62.35.29-.08.39-.35.35-.62Z"/>
      <path class="cls-1" d="M184.23,29.85c.84,2.2,1.71,4.38,2.61,6.55.24.57,1.14.38.96-.27-.33-1.21-.56-2.44-.66-3.68-.05-.58-.11-1.19-.07-1.77.02-.25.2-.92.58-.65.53.37,1.03-.49.5-.86s-1.26-.18-1.66.28c-.5.57-.45,1.4-.42,2.11.07,1.63.33,3.26.75,4.84l.96-.27c-.9-2.17-1.78-4.35-2.61-6.55-.23-.6-1.19-.34-.96.27h0Z"/>
      <path class="cls-1" d="M190.4,32.08c.74-.78,1.47-1.69,1.27-2.83-.17-.96-1.25-1.67-2.18-1.2s-.86,1.81-.72,2.7c.16,1.03.59,2.03,1.23,2.86.71.93,1.83,1.81,3.07,1.45.62-.18.35-1.15-.27-.96-.91.27-1.72-.64-2.17-1.31-.52-.77-.86-1.68-.93-2.61-.03-.34-.09-.86.15-1.15.17-.21.49-.11.66.05.29.28.22.79.08,1.12-.19.46-.56.82-.9,1.18-.44.47.26,1.17.71.71h0Z"/>
      <path class="cls-1" d="M192.98,28.03c.21,2.39.65,4.75,1.31,7.06.18.62,1.14.36.96-.27-.51-1.8-.95-3.77-.51-5.63.05-.21.11-.41.18-.61.04-.11.08-.23.13-.34.02-.06.05-.11.08-.17h-.13c.2.41.47.79.66,1.21.39.88.63,1.84.7,2.8.05.63,1.03.65,1,0-.06-1.25-.13-2.55.22-3.76.08-.29.19-.57.33-.84.08-.15.29-.38-.03-.36.04,0,.05.1.04.03,0-.04,0-.02,0,0,.07.17.17.33.25.5.61,1.37,1.12,2.8,1.64,4.21.22.59.44,1.18.65,1.78s1.18.34.96-.27c-.54-1.5-1.09-2.99-1.67-4.47-.27-.69-.53-1.39-.86-2.05-.13-.26-.29-.5-.56-.63-.72-.34-1.17.44-1.41.98-.69,1.52-.64,3.22-.56,4.86h1c-.1-1.24-.41-2.44-.96-3.56-.22-.45-.49-1.1-.96-1.36-.54-.3-1.04.08-1.26.57-1.07,2.33-.58,4.99.09,7.36l.96-.27c-.64-2.22-1.07-4.49-1.28-6.79-.06-.64-1.06-.64-1,0h0Z"/>
    </g>
    <path class="cls-1" d="M105.82,76.15c-3.22.96-6.41,2.02-9.41,3.57-3.83,1.98-7.23,4.71-9.9,8.1-4.09,5.2-7.74,11.92-6.36,18.75.91,4.49,4.04,8.12,7.47,10.98,1.82,1.52,3.77,2.91,5.74,4.22,2.12,1.41,4.35,2.68,6.76,3.54s5.18,1.3,7.83,1.6,5.53.6,8.3.87c5.57.54,11.17.95,16.77.86s10.91-.68,16.22-1.96,10.14-3.03,15.02-5.09c4.47-1.89,9.03-3.87,13.15-6.43,3.58-2.23,6.88-5.17,8.4-9.2s.94-8.33-.74-12.11c-1.79-4.03-4.86-7.25-8.56-9.6-6.67-4.23-14.75-5.68-22.45-6.83-8.42-1.26-16.91-2.3-25.39-2.98-5.16-.42-10.38-.43-15.53.2-2.48.31-4.93.81-7.34,1.51-.62.18-.35,1.15.27.96,4.67-1.37,9.44-1.82,14.28-1.93,1.57-.04,3.13-.06,4.7.01,7.51.35,15.02,1.37,22.47,2.32,6.93.89,14.01,1.8,20.67,4,4.3,1.42,8.54,3.51,11.79,6.73,2.94,2.92,5.09,6.84,5.58,10.98s-.94,8.26-3.9,11.32-6.84,5.06-10.64,6.87c-9.33,4.47-19.11,8.36-29.44,9.64-10.77,1.33-21.64.14-32.36-1.02-2.61-.28-5.23-.59-7.75-1.35s-4.72-1.93-6.87-3.31c-3.83-2.45-7.78-5.24-10.56-8.88-1.34-1.76-2.4-3.76-2.89-5.93-.46-2.03-.39-4.15.02-6.18.71-3.45,2.34-6.66,4.31-9.55,1.82-2.67,3.95-5.12,6.49-7.13,2.99-2.36,6.43-4.06,10.01-5.32,1.35-.47,2.71-.89,4.08-1.29.62-.18.35-1.15-.27-.96Z"/>
    <path class="cls-1" d="M120.11,12.36c4.84-1.15,9.8-1.83,14.73-2.51,8.52-1.17,17.07-2.14,25.61-3.09,12.71-1.42,25.43-2.76,38.15-4.1,6.08-.64,12.18-1.49,18.3-1.64,6.57-.15,13.14.5,19.54,2.02,12.95,3.09,25.48,9.93,32.61,21.54,7.2,11.71,7.2,26.24,3.26,39.07-7.87,25.62-30.47,44.52-53.73,56.07-21.86,10.85-46.48,14.2-70.37,17.77-12.47,1.86-25.02,2.98-37.63,3.08-14.24.12-28.74-.13-42.77-2.79-9.43-1.78-18.71-4.71-27.69-8.08-8.83-3.31-17.61-7.31-25.2-12.97-7.2-5.36-13.64-12.85-13.9-22.25-.18-6.56,2.29-12.96,5.38-18.64,2.56-4.7,5.64-9.24,9.02-13.38,7.06-8.65,16.24-15.08,25.88-20.55s19.98-10.08,30.38-14.15c14.97-5.86,30.36-10.79,45.93-14.78.83-.21,1.67-.43,2.5-.63.63-.15.36-1.11-.27-.96-12.04,2.88-23.93,6.6-35.61,10.67-10.47,3.65-20.81,7.72-30.83,12.47s-19.25,9.82-27.71,16.48c-9.07,7.14-16.65,16.75-21.63,27.18-2.65,5.54-4.57,11.75-3.95,17.96.44,4.32,2.14,8.38,4.64,11.91,5.43,7.66,13.83,12.92,22.11,17.03,7.61,3.78,15.62,6.69,23.71,9.24,5.9,1.86,11.84,3.48,17.93,4.59,6.9,1.25,13.88,1.92,20.88,2.24,14.41.68,28.89.63,43.26-.74,11.85-1.13,23.61-3.12,35.34-5.09,12.36-2.08,24.74-4.46,36.6-8.62,11.99-4.21,23.36-10.23,33.67-17.66,10.77-7.77,20.42-17.28,27.44-28.61,7.02-11.31,11.32-24.87,10.08-38.28-.59-6.37-2.5-12.61-5.86-18.08s-7.73-9.75-12.84-13.27C245.99,3.17,232.03-.02,218.71,0c-6.23,0-12.42.85-18.61,1.5-7.11.75-14.21,1.5-21.32,2.26-17.63,1.89-35.4,3.45-52.89,6.43-2.03.35-4.05.72-6.05,1.2-.63.15-.36,1.11.27.96Z"/>
  </g>
</svg>