<?xml version="1.0" encoding="UTF-8"?>
<svg id="Layer_2" data-name="Layer 2" xmlns="http://www.w3.org/2000/svg" viewBox="0 0 257.32 74.93">
  <defs>
    <style>
      .cls-1 {
        fill: #231f20;
      }
    </style>
  </defs>
  <g id="Layer_1-2" data-name="Layer 1">
    <g>
      <path class="cls-1" d="M256.59,72.13c-11.04-6.25-22.31-12.08-33.81-17.43-8.64-4.02-17.42-7.68-26.28-11.21-4.76-1.9-9.48-3.89-14.15-5.99-6.27-2.83-12.42-5.92-18.56-9s-12.38-6.13-18.78-8.72c-2.66-1.08-5.46-1.84-8.18-2.78-2.53-.87-5.06-1.78-7.57-2.72-10.56-3.94-20.99-8.24-31.53-12.26-1.57-.6-3.15-1.2-4.73-1.79-.76-.29-1.64.32-1.85,1.05-.23.84.29,1.56,1.05,1.85,10.91,4.12,21.72,8.49,32.6,12.67,5,1.92,10.04,3.74,15.12,5.42,1.43.47,2.88.9,4.28,1.46,1.59.64,3.16,1.32,4.73,2.01,3.07,1.37,6.1,2.81,9.11,4.3,6.11,3.01,12.14,6.16,18.31,9.05,5.28,2.47,10.63,4.81,16.03,7.01,8.55,3.49,17.12,6.87,25.53,10.7,11.05,5.04,21.9,10.51,32.53,16.39,1.55.85,3.09,1.72,4.63,2.59,1.68.95,3.2-1.64,1.51-2.59h0Z"/>
      <path class="cls-1" d="M91.71.22c-11.83,8.62-23.67,17.24-35.5,25.86s-23.67,17.24-35.5,25.86c-6.66,4.85-13.31,9.7-19.97,14.55-.65.48-.98,1.3-.54,2.05.38.65,1.39,1.02,2.05.54,11.83-8.62,23.67-17.24,35.5-25.86s23.67-17.24,35.5-25.86c6.66-4.85,13.31-9.7,19.97-14.55.65-.48.98-1.3.54-2.05-.38-.65-1.39-1.02-2.05-.54h0Z"/>
      <path class="cls-1" d="M1.5,69.28c15.68.08,31.37-.07,47.05-.13,13.32-.05,26.64-.05,39.97.02,15.17.08,30.37.14,45.53.77,7.25.3,14.45,1.07,21.67,1.76,11.25,1.07,22.54,1.72,33.84,1.96,8.61.19,17.2.02,25.81,0,10.21-.03,20.41.25,30.61.74,3.29.16,6.58.34,9.86.53,1.93.12,1.92-2.88,0-3-11.41-.68-22.83-1.15-34.26-1.25-7.75-.07-15.5.13-23.25.1-12.07-.06-24.15-.53-36.18-1.51-8.1-.66-16.18-1.7-24.3-2.15-14.41-.79-28.87-.81-43.29-.91s-28.58-.12-42.87-.07c-13.39.04-26.78.2-40.17.18-3.34,0-6.68-.02-10.02-.03-1.93,0-1.93,2.99,0,3h0Z"/>
    </g>
  </g>
</svg>