<?xml version="1.0" encoding="UTF-8"?>
<svg id="Layer_2" data-name="Layer 2" xmlns="http://www.w3.org/2000/svg" viewBox="0 0 276.46 142.07">
  <defs>
    <style>
      .cls-1 {
        fill: #00a651;
      }

      .cls-2 {
        fill: #231f20;
      }

      .cls-3 {
        fill: #ed1c24;
      }

      .cls-4 {
        fill: #00aeef;
      }
    </style>
  </defs>
  <g id="Layer_1-2" data-name="Layer 1">
    <g>
      <g>
        <path class="cls-2" d="M23.1,18.69c3.19,2.03,7.08,3.04,10.78,1.92,3.41-1.03,5.92-3.63,6.67-7.12.48-2.22.33-4.52-.17-6.72-.14-.63-1.11-.36-.96.27.74,3.25.71,7.14-1.52,9.85-2,2.44-5.31,3.44-8.38,3.14-2.13-.21-4.13-1.06-5.92-2.2-.54-.35-1.05.52-.5.86h0Z"/>
        <path class="cls-2" d="M38.82,21.01c-1.27,4.45-2.31,8.96-3.12,13.51-.11.63.85.9.96.27.81-4.55,1.86-9.06,3.12-13.51.18-.62-.79-.88-.96-.27h0Z"/>
        <path class="cls-2" d="M39.5,21.7c.97-.14,1.97-.14,2.95-.02.4.05,1.02.07,1.36.32.31.23.23.62.03.9-.47.67-1.53.69-2.24.92s-1.33.61-1.67,1.27c-.19.39.13.84.56.73,1.49-.35,3.04.89,2.83,2.45-.09.68-.49,1.34-1.08,1.71-.81.5-1.85.41-2.77.36-.64-.04-.64.96,0,1,1.18.06,2.47.09,3.48-.64.82-.59,1.3-1.55,1.37-2.55.15-2.18-2.06-3.78-4.1-3.29l.56.73c.47-.95,1.76-.92,2.63-1.25s1.63-1.04,1.59-2.04c-.04-1.12-1.16-1.42-2.07-1.56-1.24-.19-2.47-.18-3.71,0-.63.09-.36,1.05.27.96h0Z"/>
      </g>
      <g>
        <path class="cls-2" d="M231.97,79.4c-3.48,1.92-5.67,5.35-6.09,9.27-.34,3.11.41,6.29,2.14,8.91.7,1.05,1.53,2.02,2.48,2.85.48.42,1.19-.28.71-.71-4.19-3.64-5.77-10.01-3.14-15.03.99-1.9,2.54-3.41,4.41-4.44.56-.31.06-1.17-.5-.86h0Z"/>
        <path class="cls-2" d="M219.26,81.89c-1.93,1.83-4.18,3.31-6.63,4.35-1.2.51-2.45.91-3.72,1.2s-2.6.6-3.84.32-1.96-1.37-1.77-2.64,1.29-2.17,2.48-2.51c2.54-.73,5.4.74,7.38,2.23,2.2,1.66,3.9,3.96,4.84,6.55.22.6,1.18.34.96-.27-.97-2.68-2.66-5.06-4.9-6.84s-5.44-3.42-8.37-2.69c-1.29.32-2.53,1.15-3.09,2.39-.51,1.13-.44,2.54.3,3.55.85,1.15,2.33,1.4,3.67,1.3,1.51-.11,3.03-.48,4.48-.94,3.33-1.07,6.38-2.89,8.92-5.3.47-.44-.24-1.15-.71-.71h0Z"/>
      </g>
      <g>
        <path class="cls-2" d="M40.4,71.91c3.83,1.89,6.89,5.26,8.31,9.3.15.44.33.91.35,1.38,0,.19.02.47-.1.63-.25.33-.71.13-1.03.01-.91-.34-1.84-.83-2.53-1.53-1.91-1.94.2-4.29,1.71-5.71,1.93-1.83,4.28-3.14,6.58-4.44.56-.32.06-1.18-.5-.86-2.47,1.39-4.97,2.81-7.01,4.81-1.75,1.72-3.66,4.29-1.76,6.6.92,1.12,4.86,3.78,5.57,1.24.31-1.12-.28-2.39-.7-3.4-.49-1.16-1.1-2.26-1.82-3.28-1.69-2.38-3.94-4.33-6.56-5.62-.58-.28-1.08.58-.5.86h0Z"/>
        <path class="cls-2" d="M24.08,82.44c2.66.1,5.31.21,7.97.35s5.24.16,7.85.73l-.73-.96c-.05,4.54-.1,9.09-.14,13.63-.01,1.29,1.99,1.29,2,0,.05-4.54.1-9.09.14-13.63,0-.42-.31-.87-.73-.96-2.77-.61-5.52-.65-8.33-.8s-5.34-.25-8.02-.35c-1.29-.05-1.29,1.95,0,2h0Z"/>
      </g>
    </g>
    <g>
      <g>
        <g>
          <path class="cls-3" d="M23.39,97.77c0-32.25,0-64.5,0-96.75"/>
          <path class="cls-3" d="M24.39,97.77v-37.75c0-12.58,0-25.17,0-37.75V1.02c0-1.29-2-1.29-2,0v37.75c0,12.58,0,25.17,0,37.75v21.25c0,1.29,2,1.29,2,0h0Z"/>
        </g>
        <path class="cls-4" d="M23.12,1.98c19.14,6.12,38.16,12.66,56.99,19.67,15.19,5.66,30.11,11.95,45.15,17.99,18.22,7.31,36.66,14.08,55.28,20.31,12.01,4.02,24.03,7.92,35.74,12.78,18.51,7.68,36.56,16.51,54.03,26.34,1.56.88,3.11,1.76,4.66,2.65,1.12.64,2.13-1.08,1.01-1.73-17.18-9.9-34.93-18.79-53.13-26.64-11.99-5.17-24.21-9.52-36.61-13.62-18.28-6.05-36.4-12.56-54.32-19.6-14.77-5.8-29.34-12.07-44.17-17.74C68.23,14.95,48.47,8.08,28.59,1.64c-1.65-.53-3.29-1.06-4.94-1.59-1.23-.39-1.75,1.54-.53,1.93h0Z"/>
        <path class="cls-1" d="M23.39,98.77c25.37-.22,50.73-.38,76.1-.42,17.85-.03,35.7,0,53.54.18,11.61.12,23.22.28,34.82.64,6.64.2,13.29.44,19.92.95,20.36,1.56,40.75,2.31,61.17,1.91,2.18-.04,4.36-.1,6.54-.16,1.28-.04,1.29-2.04,0-2-21.85.66-43.75.16-65.54-1.58-6.33-.5-12.66-.8-19-1.02-10.94-.37-21.89-.55-32.84-.68-17.03-.2-34.07-.25-51.11-.24-24.24,0-48.48.14-72.72.33-3.63.03-7.25.06-10.88.09-1.29.01-1.29,2.01,0,2h0Z"/>
      </g>
      <path class="cls-3" d="M14.24,32.9c-1.07,7.05-1,14.18-.88,21.29h2c-.55-4.8-1.1-9.64-2.4-14.31-.59-2.13-1.27-4.42-2.41-6.32-.99-1.65-2.75-3.1-4.79-2.39s-3.27,3-4.05,4.9c-.85,2.07-1.23,4.29-1.48,6.5-.49,4.43-.36,9.2,1.83,13.2s6.55,6.76,11.14,6.06c.53-.08.83-.75.7-1.23-.16-.57-.69-.78-1.23-.7-3.3.5-6.56-1.61-8.34-4.26-2.2-3.27-2.51-7.41-2.26-11.24.13-1.92.37-3.85.87-5.71.47-1.74,1.19-3.63,2.47-4.94,3.05-3.11,5.01,4.53,5.53,6.33,1.32,4.6,1.88,9.37,2.42,14.11.06.54.42,1,1,1,.54,0,1.01-.46,1-1-.11-6.92-.24-13.89.81-20.76.08-.53-.13-1.08-.7-1.23-.47-.13-1.15.16-1.23.7h0Z"/>
      <path class="cls-1" d="M124.73,105.51c-.58,9.13-.87,18.29-.87,27.44,0,1.11,1.7,1.38,1.96.27.52-2.25,1.87-4.26,3.78-5.58,1.73-1.2,4.77-2.45,6.68-.98,1.68,1.3,1.65,4.02,1.4,5.91-.15,1.14-.39,2.48-1.35,3.23-.9.71-2.15.82-3.26.8-3.27-.07-6.63-1.1-9.57-2.49-1.16-.55-2.17,1.17-1.01,1.73,3.21,1.53,6.81,2.64,10.39,2.76,1.41.05,2.93-.13,4.16-.87,1.43-.86,2.15-2.34,2.45-3.93.49-2.62.54-5.82-1.26-7.99-2.14-2.57-5.97-1.91-8.59-.53-2.86,1.51-5.03,4.28-5.76,7.43l1.96.27c0-9.15.3-18.3.87-27.44.08-1.29-1.92-1.28-2,0h0Z"/>
      <path class="cls-4" d="M153.02,11.59c-5.57.88-10.95,3.99-13.58,9.12-1.26,2.46-1.9,5.27-1.57,8.03.17,1.44.57,2.86,1.53,3.98s2.29,1.7,3.6,2.21c3.36,1.31,7,1.64,10.55,1.15.54-.07.83-.76.7-1.23-.16-.58-.69-.77-1.23-.7-2.74.38-5.57.12-8.2-.7-1.17-.36-2.46-.8-3.43-1.58s-1.33-1.92-1.5-3.08c-.7-4.82,2-9.63,5.9-12.3,2.32-1.59,4.99-2.55,7.76-2.98.53-.08.83-.75.7-1.23-.16-.57-.69-.78-1.23-.7h0Z"/>
    </g>
  </g>
</svg>