<?xml version="1.0" encoding="UTF-8"?>
<svg id="Layer_2" data-name="Layer 2" xmlns="http://www.w3.org/2000/svg" viewBox="0 0 257.32 74.93">
  <defs>
    <style>
      .cls-1 {
        fill: #231f20;
      }

      .cls-2 {
        fill: #ed1c24;
      }

      .cls-3 {
        fill: #00aeef;
      }
    </style>
  </defs>
  <g id="Layer_1-2" data-name="Layer 1">
    <g>
      <path class="cls-1" d="M256.59,72.13c-11.04-6.25-22.31-12.08-33.81-17.43-8.64-4.02-17.42-7.68-26.28-11.21-4.76-1.9-9.48-3.89-14.15-5.99-6.27-2.83-12.42-5.92-18.56-9s-12.38-6.13-18.78-8.72c-2.66-1.08-5.46-1.84-8.18-2.78-2.53-.87-5.06-1.78-7.57-2.72-10.56-3.94-20.99-8.24-31.53-12.26-1.57-.6-3.15-1.2-4.73-1.79-.76-.29-1.64.32-1.85,1.05-.23.84.29,1.56,1.05,1.85,10.91,4.12,21.72,8.49,32.6,12.67,5,1.92,10.04,3.74,15.12,5.42,1.43.47,2.88.9,4.28,1.46,1.59.64,3.16,1.32,4.73,2.01,3.07,1.37,6.1,2.81,9.11,4.3,6.11,3.01,12.14,6.16,18.31,9.05,5.28,2.47,10.63,4.81,16.03,7.01,8.55,3.49,17.12,6.87,25.53,10.7,11.05,5.04,21.9,10.51,32.53,16.39,1.55.85,3.09,1.72,4.63,2.59,1.68.95,3.2-1.64,1.51-2.59h0Z"/>
      <path class="cls-1" d="M91.71.22c-11.83,8.62-23.67,17.24-35.5,25.86s-23.67,17.24-35.5,25.86c-6.66,4.85-13.31,9.7-19.97,14.55-.65.48-.98,1.3-.54,2.05.38.65,1.39,1.02,2.05.54,11.83-8.62,23.67-17.24,35.5-25.86s23.67-17.24,35.5-25.86c6.66-4.85,13.31-9.7,19.97-14.55.65-.48.98-1.3.54-2.05-.38-.65-1.39-1.02-2.05-.54h0Z"/>
      <path class="cls-1" d="M1.5,69.28c15.68.08,31.37-.07,47.05-.13,13.32-.05,26.64-.05,39.97.02,15.17.08,30.37.14,45.53.77,7.25.3,14.45,1.07,21.67,1.76,11.25,1.07,22.54,1.72,33.84,1.96,8.61.19,17.2.02,25.81,0,10.21-.03,20.41.25,30.61.74,3.29.16,6.58.34,9.86.53,1.93.12,1.92-2.88,0-3-11.41-.68-22.83-1.15-34.26-1.25-7.75-.07-15.5.13-23.25.1-12.07-.06-24.15-.53-36.18-1.51-8.1-.66-16.18-1.7-24.3-2.15-14.41-.79-28.87-.81-43.29-.91s-28.58-.12-42.87-.07c-13.39.04-26.78.2-40.17.18-3.34,0-6.68-.02-10.02-.03-1.93,0-1.93,2.99,0,3h0Z"/>
    </g>
    <g>
      <path class="cls-3" d="M5.14,67.55c6.92-5.15,13.86-10.26,20.88-15.27,3.87-2.76,7.76-5.51,11.74-8.13,4.39-2.9,8.88-5.65,13.25-8.57s8.42-5.77,12.39-8.98c2.42-1.96,4.73-4.05,7.08-6.09,5.7-4.94,11.84-9.38,18.11-13.57,1.07-.71,2.14-1.42,3.21-2.11s.07-2.43-1.01-1.73c-6.92,4.49-13.69,9.25-20.02,14.54-2.1,1.75-4.1,3.61-6.18,5.38-3.67,3.12-7.52,6.02-11.49,8.74-5.05,3.46-10.24,6.69-15.37,10.02-3.68,2.39-7.28,4.91-10.86,7.45-6.6,4.68-13.12,9.46-19.62,14.28-1.04.77-2.08,1.54-3.11,2.31-.43.32-.65.87-.36,1.37.25.43.93.68,1.37.36h0Z"/>
      <path class="cls-3" d="M78.23,65.55c.15-2.3.13-4.61-.07-6.9-.04-.51-.12-1.01-.15-1.52-.02-.35,0-.39.32-.49.75-.24,1.55-.31,2.33-.36,3.55-.23,7.09.39,10.64.13,1.28-.09,1.29-2.09,0-2-3.9.29-7.83-.52-11.73-.03-.85.11-1.87.2-2.61.69-1.03.68-.98,1.74-.87,2.83.27,2.54.31,5.09.15,7.64-.08,1.29,1.92,1.28,2,0h0Z"/>
      <path class="cls-3" d="M90.7,3.45c.13,16.39.24,32.78.32,49.17.02,4.64.05,9.27.07,13.91l1-1c-6.47-.55-12.99-.51-19.45.13-4.7.47-9.41,1.11-14.15,1.02-4.11-.08-8.22-.38-12.32-.54-6.04-.24-12.09-.42-18.13-.53-7.8-.13-15.6-.11-23.4.08-1.28.03-1.29,2.03,0,2,13.31-.32,26.63-.11,39.94.39,4.4.17,8.79.42,13.19.58s8.51-.31,12.73-.77c7.19-.78,14.39-.98,21.6-.36.54.05,1-.5,1-1-.07-16.39-.17-32.78-.28-49.17-.03-4.64-.07-9.27-.11-13.91-.01-1.29-2.01-1.29-2,0h0Z"/>
    </g>
    <g>
      <path class="cls-2" d="M94.81,66.77c1.19-8.18-.22-16.34-.44-24.53-.11-4.15.32-8.24.76-12.36s.61-8.4.38-12.63c-.26-4.73-.88-9.42-1.5-14.11-.07-.54-.41-1-1-1-.49,0-1.07.46-1,1,1.09,8.28,2.1,16.57,1.31,24.92-.39,4.09-.97,8.15-.98,12.26s.38,8.12.66,12.17c.32,4.57.53,9.21-.13,13.76-.08.53.13,1.07.7,1.23.47.13,1.15-.16,1.23-.7h0Z"/>
      <path class="cls-2" d="M93.14,3.64c10.11,4.09,20.14,8.38,30.28,12.38,3.75,1.48,7.6,2.66,11.4,3.98,5.85,2.04,11.4,4.74,17.01,7.36,11.9,5.55,23.81,11.1,35.79,16.46,5.47,2.45,10.98,4.79,16.56,6.99,3.76,1.48,7.54,2.88,11.29,4.39,10.05,4.06,19.76,9.03,29.09,14.54,1.64.97,3.27,1.96,4.89,2.97,1.1.68,2.1-1.05,1.01-1.73-10.02-6.22-20.48-11.81-31.35-16.41-8.54-3.62-17.29-6.7-25.8-10.39-12-5.21-23.81-10.85-35.69-16.32-5.92-2.72-11.76-5.68-17.81-8.1-4.69-1.88-9.54-3.27-14.26-5.04-3.23-1.21-6.41-2.58-9.6-3.9-5.68-2.34-11.37-4.67-17.06-6.99-1.74-.71-3.48-1.41-5.21-2.11-1.19-.48-1.71,1.45-.53,1.93h0Z"/>
      <path class="cls-2" d="M95,67.96c11.12-.92,22.29-1.13,33.43-.55,4.85.26,9.69.66,14.5,1.32,3.68.5,7.34,1.06,11.04,1.3,11.52.75,23.05-.62,34.56.23,4.8.35,9.59.91,14.39,1.28,4.59.35,9.19.62,13.79.83,10.49.47,21,.56,31.5.5.58,0,1.15,0,1.73-.01,1.29-.01,1.29-2.01,0-2-9.55.08-19.11.01-28.66-.31s-19.52-1-29.25-1.97c-5.64-.56-11.28-.69-16.95-.55s-11.78.38-17.68.18c-3.88-.13-7.73-.51-11.57-1.06-4.63-.66-9.26-1.19-13.92-1.51-10.59-.72-21.22-.71-31.81-.04-1.7.11-3.41.23-5.11.37-1.27.1-1.28,2.11,0,2h0Z"/>
      <path class="cls-2" d="M94.78,56.24c3.13-.88,6.34-1.31,9.59-1.28l-.96-1.27c-.81,4.01-1.34,8.08-1.58,12.17-.08,1.29,1.92,1.28,2,0,.23-3.91.74-7.8,1.51-11.64.13-.63-.28-1.26-.96-1.27-3.42-.03-6.83.42-10.12,1.35-1.24.35-.71,2.28.53,1.93h0Z"/>
    </g>
  </g>
</svg>