<?xml version="1.0" encoding="UTF-8"?>
<svg id="Layer_2" data-name="Layer 2" xmlns="http://www.w3.org/2000/svg" viewBox="0 0 274.82 128.36">
  <defs>
    <style>
      .cls-1 {
        fill: #00a651;
      }

      .cls-2 {
        fill: #231f20;
      }

      .cls-3 {
        fill: #ec008c;
      }

      .cls-4 {
        fill: #ed1c24;
      }

      .cls-5 {
        fill: #00aeef;
      }

      .cls-6 {
        fill: #808285;
      }
    </style>
  </defs>
  <g id="Layer_1-2" data-name="Layer 1">
    <g>
      <g>
        <path class="cls-2" d="M64.28,12.35c3.09,3.35,7.47,5.2,11.92,5.88,4.74.73,9.89.37,14.08-2.14,2.11-1.27,3.92-3.04,5.09-5.22.31-.57-.56-1.07-.86-.5-4.4,8.16-16.04,8.61-23.67,5.34-2.21-.94-4.21-2.29-5.85-4.06-.44-.47-1.14.23-.71.71h0Z"/>
        <path class="cls-2" d="M77.91,20.96c-1.27,4.45-2.31,8.96-3.12,13.51-.11.63.85.9.96.27.81-4.55,1.86-9.06,3.12-13.51.18-.62-.79-.88-.96-.27h0Z"/>
        <path class="cls-2" d="M78.59,21.65c.97-.14,1.97-.14,2.95-.02.4.05,1.02.07,1.36.32.31.23.23.62.03.9-.47.67-1.53.69-2.24.92s-1.33.61-1.67,1.27c-.19.39.13.84.56.73,1.49-.35,3.04.89,2.83,2.45-.09.68-.49,1.34-1.08,1.71-.81.5-1.85.41-2.77.36-.64-.04-.64.96,0,1,1.18.06,2.47.09,3.48-.64.82-.59,1.3-1.55,1.37-2.55.15-2.18-2.06-3.78-4.1-3.29l.56.73c.47-.95,1.76-.92,2.63-1.25s1.63-1.04,1.59-2.04c-.04-1.12-1.16-1.42-2.07-1.56-1.24-.19-2.47-.18-3.71,0-.63.09-.36,1.05.27.96h0Z"/>
      </g>
      <g>
        <path class="cls-2" d="M233.3,63.76c-3.48,1.92-5.67,5.35-6.09,9.27-.34,3.11.41,6.29,2.14,8.91.7,1.05,1.53,2.02,2.48,2.85.48.42,1.19-.28.71-.71-4.19-3.64-5.77-10.01-3.14-15.03.99-1.9,2.54-3.41,4.41-4.44.56-.31.06-1.17-.5-.86h0Z"/>
        <path class="cls-2" d="M220.59,66.25c-1.93,1.83-4.18,3.31-6.63,4.35-1.2.51-2.45.91-3.72,1.2s-2.6.6-3.84.32-1.96-1.37-1.77-2.64,1.29-2.17,2.48-2.51c2.54-.73,5.4.74,7.38,2.23,2.2,1.66,3.9,3.96,4.84,6.55.22.6,1.18.34.96-.27-.97-2.68-2.66-5.06-4.9-6.84s-5.44-3.42-8.37-2.69c-1.29.32-2.53,1.15-3.09,2.39-.51,1.13-.44,2.54.3,3.55.85,1.15,2.33,1.4,3.67,1.3,1.51-.11,3.03-.48,4.48-.94,3.33-1.07,6.38-2.89,8.92-5.3.47-.44-.24-1.15-.71-.71h0Z"/>
      </g>
      <g>
        <path class="cls-2" d="M17.25,63.82c3.8-.38,7.43,1.2,9.41,4.52,1.07,1.78,1.69,3.89,1.81,5.97s-.32,4.34-1.25,6.31c-.27.58.59,1.09.86.5,1.32-2.81,1.73-5.92,1.09-8.95s-2.28-6.11-5.03-7.84c-2.05-1.29-4.51-1.75-6.9-1.51-.63.06-.64,1.06,0,1h0Z"/>
        <path class="cls-2" d="M30.43,60.37c3.83,1.89,6.89,5.26,8.31,9.3.15.44.33.91.35,1.38,0,.19.02.47-.1.63-.25.33-.71.13-1.03.01-.91-.34-1.84-.83-2.53-1.53-1.91-1.94.2-4.29,1.71-5.71,1.93-1.83,4.28-3.14,6.58-4.44.56-.32.06-1.18-.5-.86-2.47,1.39-4.97,2.81-7.01,4.81-1.75,1.72-3.66,4.29-1.76,6.6.92,1.12,4.86,3.78,5.57,1.24.31-1.12-.28-2.39-.7-3.4-.49-1.16-1.1-2.26-1.82-3.28-1.69-2.38-3.94-4.33-6.56-5.62-.58-.28-1.08.58-.5.86h0Z"/>
      </g>
    </g>
    <g>
      <path class="cls-6" d="M72.76,3.7c-.71,9.83-.5,19.69-.1,29.52s1.01,19.69,1.07,29.55c.03,5.55-.11,11.11-.55,16.64-.05.64.95.64,1,0,.78-9.82.62-19.68.23-29.51-.39-9.85-1.01-19.69-1.11-29.55-.06-5.55.06-11.11.46-16.65.05-.64-.95-.64-1,0h0Z"/>
      <path class="cls-6" d="M74.82,71.06c2.66-.22,5.32-.33,7.99-.35l-.48-.63c-.97,3.45-1.35,7.05-1.12,10.62.04.64,1.04.64,1,0-.22-3.49.14-6.99,1.08-10.36.09-.31-.16-.63-.48-.63-2.67.01-5.33.13-7.99.35-.64.05-.64,1.05,0,1h0Z"/>
      <path class="cls-6" d="M73.73,71.76l-7.24.39c-.25.01-.53.22-.5.5.28,2.64.56,5.29.85,7.93.07.63,1.07.64,1,0-.28-2.64-.56-5.29-.85-7.93l-.5.5,7.24-.39c.64-.03.64-1.03,0-1h0Z"/>
    </g>
    <path class="cls-2" d="M.19,84.28c-.11,1.94.72,3.76,2.79,4.12,1.13.2,2.35,0,3.49-.05,3.61-.16,7.23-.24,10.85-.33,2.96-.07,5.91-.14,8.87-.21l-.35-.15c1.22,1.13,1.97,2.65,2.07,4.32.03.54.84.71.98.13.21-.85.45-1.63.86-2.41.38-.73.79-1.44,1.21-2.14l-.43.25c6.87-.26,13.66.21,20.5.77,2.23.18,4.47.36,6.7.53,1.15.09,2.34.28,3.49.25.07,0,.13-.02.2-.02.1,0-.16,0,0,0,.34-.02.69,0,1.03,0,2.14.04,4.27.18,6.41.22,1.24.02,2.77.11,3.83-.64,1.41-1,1.39-2.91,1.13-4.44-.11-.63-1.07-.36-.96.27.21,1.19.28,2.95-1.05,3.53-.51.22-1.1.25-1.64.27-.92.04-1.84,0-2.75-.04-1.91-.07-3.83-.21-5.74-.18-.18,0-.35.03-.53.04.24-.02-.17-.02-.26-.02-6.91-.41-13.79-1.26-20.71-1.54-2.42-.1-4.85-.12-7.27-.07-.77.02-1.63-.06-2.38.07-.59.1-.88.99-1.14,1.46-.65,1.17-1.14,2.27-1.46,3.58l.98.13c-.07-1.25-.43-2.47-1.11-3.53-.26-.41-.57-.8-.9-1.15-.13-.13-.29-.34-.45-.42-.29-.15-.68-.06-.99-.05-2.94.07-5.89.14-8.83.21-3.79.1-7.58.16-11.37.38-.77.04-1.56.15-2.32-.04-1.46-.38-1.81-1.74-1.74-3.09.04-.64-.96-.64-1,0H.19Z"/>
    <g>
      <path class="cls-2" d="M17.72,95.18c0,3.17,0,6.33,0,9.5h1c-.07-2.44-.35-4.98-1.28-7.26-.65-1.58-1.68-2.8-3.44-3.17-.8-.17-1.74-.18-2.5.14s-1.21.98-1.5,1.71c-.72,1.79-.47,3.99.37,5.69,1.16,2.36,3.91,3.78,6.51,3.56.64-.06.64-1.06,0-1-2.01.18-4.2-.75-5.31-2.47-.9-1.4-1.22-3.26-.81-4.88.15-.58.41-1.25.94-1.59s1.4-.33,2.03-.2c1.41.29,2.22,1.21,2.75,2.48.92,2.18,1.18,4.65,1.24,6.99.02.64,1,.65,1,0,0-3.17,0-6.33,0-9.5,0-.64-1-.64-1,0h0Z"/>
      <path class="cls-2" d="M27.82,94.91c-3.05-.2-5.8,2.06-5.74,5.22.03,1.61.85,3.3,2.17,4.23,1.26.88,2.88.82,4.22.18.58-.28.07-1.14-.5-.86-.96.46-2.11.5-3.04-.07-.69-.42-1.18-1.13-1.49-1.87-.62-1.45-.45-3.21.64-4.42.95-1.06,2.35-1.51,3.75-1.42.64.04.64-.96,0-1h0Z"/>
      <path class="cls-2" d="M31.83,98.37c-1.21.08-1.98,1.05-2.32,2.15-.36,1.16-.4,2.64.4,3.62s2.31,1.1,3.14.12c.39-.47.63-1.05.87-1.61.27-.64.51-1.3.5-2s-.22-1.45-.82-1.88c-.5-.36-1.16-.41-1.76-.39-.64.02-.64,1.02,0,1,.34-.01.72-.02,1.04.12.35.16.47.51.52.87.14.96-.38,2-.83,2.82-.17.31-.37.61-.72.73s-.75-.02-1.02-.25c-.69-.58-.63-1.72-.45-2.52.16-.73.59-1.71,1.45-1.76.64-.04.64-1.04,0-1Z"/>
      <path class="cls-2" d="M40.46,98.15c.17.07.02,0-.03-.04-.05-.04-.11-.08-.16-.12-.19-.14-.38-.27-.58-.38-.48-.25-1.03-.4-1.56-.26-1.04.27-1.97,1.61-1.96,2.67,0,.47.23.92.67,1.13s.98.22,1.45.39c.4.15.8.38,1.14.65.26.2.69.56.52.93-.21.46-.99.79-1.43.94-.61.21-1.26.24-1.9.15-.27-.04-.5.26-.5.5,0,.3.23.46.5.5,1.18.16,2.37-.12,3.36-.78.46-.31.91-.72.99-1.3s-.2-1.05-.58-1.43c-.7-.71-1.69-1.16-2.66-1.35-.15-.03-.4-.08-.47-.11-.09-.04-.04,0-.06-.06-.03-.07-.04-.13-.04-.21,0-.47.34-.96.66-1.29.41-.42.83-.5,1.36-.22.35.18.64.5,1.01.64.6.23.86-.74.27-.96h0Z"/>
      <path class="cls-2" d="M41.64,96.26c1.46.34,2.81,1.01,3.77,2.19,1.04,1.28,1.83,3.4,1.39,5.04-.2.77-.84,1.53-1.67,1.61-.42.04-.87-.11-.94-.58-.06-.43.21-.97.38-1.35.69-1.57,1.79-2.85,2.89-4.15,1.26-1.5,2.74-3.4,4.94-3.13.64.08.63-.92,0-1-2.4-.29-4.15,1.62-5.54,3.29s-2.87,3.3-3.52,5.41c-.31.99-.1,2.07.99,2.42.95.31,1.97-.1,2.63-.8,1.58-1.68.93-4.43-.04-6.26-1.03-1.95-2.9-3.14-5.01-3.64-.63-.15-.89.82-.27.96h0Z"/>
    </g>
    <g>
      <path class="cls-2" d="M83.43,44.6c-.24,3.26.03,6.55.8,9.73l.91-.39c-1.12-2.63-2.5-5.16-4.12-7.51-.68-.98-1.51-2.1-2.84-2.06s-1.79,1.29-2.05,2.39c-.66,2.79-.01,6.1,2.55,7.71,1.55.98,3.6,1.21,5.37.77.62-.16.36-1.12-.27-.96-2.06.52-4.59-.05-5.85-1.86-.81-1.17-1.13-2.58-1.05-3.99.03-.47.11-.94.21-1.4.12-.49.24-1.24.7-1.53,1.05-.68,2.06.99,2.52,1.67,1.56,2.29,2.88,4.74,3.96,7.29.23.54,1.04.14.91-.39-.75-3.1-1-6.28-.76-9.46.05-.64-.95-.64-1,0h0Z"/>
      <path class="cls-2" d="M92.03,43.95c-1.37.61-2.56,1.7-3.22,3.06-.31.62-.43,1.3.02,1.89.37.48.96.72,1.53.9.73.22,1.46.4,2.14.76.57.31,1.71,1,1.49,1.8-.2.71-1.4,1.15-2,1.42-.81.37-1.67.63-2.54.82-.63.13-.36,1.1.27.96,1.55-.33,3.35-.91,4.57-1.97,1.39-1.2.47-2.74-.77-3.59-.65-.44-1.4-.74-2.14-.96-.51-.15-1.49-.26-1.78-.79-.31-.59.62-1.65.99-2.04.56-.6,1.22-1.05,1.96-1.39.59-.26.08-1.12-.5-.86h0Z"/>
      <path class="cls-2" d="M97.35,54.31l-.27-5.31c-.03-.64-1.03-.64-1,0l.27,5.31c.03.64,1.03.64,1,0h0Z"/>
      <path class="cls-2" d="M98.5,49.55c.16,1.8.32,3.6.48,5.4l.98-.13c-.31-1.75-.1-3.53.95-5.01.15-.21.39-.55.66-.61.06-.01.08,0,.13.05.14.11.22.31.3.46.31.63.5,1.33.65,2.01.23,1.09.29,2.21.24,3.32-.03.64.97.64,1,0,.05-1.17-.03-2.35-.26-3.5-.18-.85-.43-1.77-.87-2.53-.23-.4-.58-.76-1.07-.8s-.88.23-1.19.55c-.67.68-1.14,1.63-1.4,2.53-.35,1.24-.32,2.54-.09,3.8.1.55,1.03.43.98-.13-.16-1.8-.32-3.6-.48-5.4-.02-.27-.21-.5-.5-.5-.25,0-.52.23-.5.5h0Z"/>
      <path class="cls-2" d="M104.65,46.04c1.42.56,2.64,1.6,3.46,2.88.4.62.72,1.3.92,2.02s.4,1.65.2,2.41c-.36,1.33-2.36,1.18-2.55-.19-.21-1.52,1.1-2.98,2.12-3.93,1.36-1.26,3.03-2.14,4.84-2.56.63-.15.36-1.11-.27-.96-1.97.46-3.8,1.44-5.28,2.82-1.31,1.22-2.78,3.07-2.36,5,.38,1.74,2.55,2.31,3.84,1.14.75-.67.79-1.74.68-2.68s-.37-1.83-.78-2.68c-.93-1.93-2.57-3.45-4.56-4.23-.6-.24-.86.73-.27.96h0Z"/>
    </g>
    <g>
      <path class="cls-3" d="M73.95,40.89c6.4.39,12.82-.84,18.7-3.36s11.24-6.37,15.47-11.19c2.37-2.7,4.38-5.71,5.95-8.95.28-.58-.58-1.08-.86-.5-2.74,5.67-6.86,10.61-11.86,14.41s-10.74,6.48-16.85,7.79c-3.46.74-7.01,1.01-10.54.79-.64-.04-.64.96,0,1h0Z"/>
      <g>
        <path class="cls-3" d="M110.24,32.42l3.28-1.23c.25-.09.43-.34.35-.62-.07-.24-.36-.44-.62-.35l-3.28,1.23c-.25.09-.43.34-.35.62.07.24.36.44.62.35h0Z"/>
        <path class="cls-3" d="M121.29,22.8c-.58,2.55-1.57,5.68-4.08,6.97-.62.32-1.51.46-1.8-.35-.21-.59,0-1.28.38-1.76.86-1.1,2.38-1.38,3.68-1.12,1.95.38,3.73,1.56,5.47,2.48.57.3,1.07-.56.5-.86-1.88-1-3.84-2.3-5.98-2.63-1.63-.26-3.42.18-4.47,1.53-.91,1.17-1.02,3.49.77,3.91,1.69.4,3.32-1.19,4.23-2.41,1.19-1.6,1.81-3.57,2.25-5.49.14-.63-.82-.89-.96-.27h0Z"/>
        <g>
          <path class="cls-3" d="M101.27,34.66c.53,1.44,1.31,2.76,2.31,3.92.18.2.53.18.71,0,.2-.2.18-.5,0-.71-.88-1.03-1.59-2.22-2.06-3.48-.09-.25-.34-.43-.62-.35-.24.07-.44.36-.35.62h0Z"/>
          <path class="cls-3" d="M103.2,33.33c.42,1.17.99,2.29,1.68,3.32.15.22.45.33.68.18.22-.14.34-.45.18-.68-.65-.97-1.19-2.01-1.58-3.08-.09-.25-.34-.44-.62-.35-.24.08-.44.35-.35.62h0Z"/>
          <path class="cls-3" d="M100.71,36.09c1.21-1.16,2.57-2.13,4.04-2.93.57-.31.06-1.17-.5-.86-1.54.84-2.98,1.87-4.24,3.09-.46.45.24,1.15.71.71h0Z"/>
          <path class="cls-3" d="M106.33,30.82c.21,2.64-.29,5.26-.18,7.9.03.64,1.03.64,1,0-.11-2.64.4-5.26.18-7.9-.05-.64-1.05-.64-1,0h0Z"/>
          <path class="cls-3" d="M108.14,34.65s.05-.09.08-.13c-.05.06.05-.05.05-.05.06-.06-.02,0,.06-.04,0,0,.12-.06.08-.04.11-.05.27-.07.39-.04.31.08.63.3.69.63,0,.03,0,.11,0,.15-.03.11-.04.15-.08.22-.1.19-.21.31-.37.47-.33.33-.68.63-.89,1.05-.1.2-.08.44.08.61.14.14.43.21.61.08.34-.26.76-.5,1.13-.65.39-.16.88-.29,1.25-.34.27-.03.5-.21.5-.5,0-.24-.23-.53-.5-.5-1.04.13-2.04.5-2.88,1.13l.68.68c.24-.46.75-.8,1.09-1.25.4-.53.54-1.2.21-1.8-.3-.56-.91-.94-1.54-.98s-1.22.28-1.49.81c-.12.24-.06.54.18.68.22.13.56.06.68-.18h0Z"/>
        </g>
      </g>
    </g>
    <g>
      <g>
        <g>
          <path class="cls-4" d="M.98,81.16C24.82,54.91,48.67,28.66,72.52,2.41"/>
          <path class="cls-4" d="M1.68,81.86c9.29-10.23,18.58-20.46,27.88-30.69l27.96-30.78,15.7-17.28c.86-.95-.55-2.37-1.41-1.41-9.29,10.23-18.58,20.46-27.88,30.69-9.32,10.26-18.64,20.52-27.96,30.78-5.23,5.76-10.47,11.52-15.7,17.28-.86.95.55,2.37,1.41,1.41h0Z"/>
        </g>
        <path class="cls-5" d="M72.25,3.37c15.39,5.06,30.67,10.48,45.8,16.29,12.06,4.63,23.91,9.78,35.85,14.71,14.49,5.99,29.18,11.54,44,16.65,9.58,3.31,19.17,6.5,28.5,10.49,14.82,6.34,29.26,13.61,43.21,21.69,1.24.72,2.48,1.45,3.72,2.18,1.11.66,2.12-1.07,1.01-1.73-13.7-8.13-27.88-15.44-42.43-21.9-9.61-4.27-19.41-7.85-29.36-11.24-14.6-4.97-29.08-10.33-43.38-16.12-11.74-4.75-23.32-9.88-35.11-14.52-15.61-6.15-31.42-11.8-47.33-17.11-1.31-.44-2.63-.87-3.95-1.31-1.23-.4-1.75,1.53-.53,1.93h0Z"/>
        <path class="cls-1" d="M.98,82.16c27.46-.24,54.91-.41,82.37-.45,19.32-.03,38.64,0,57.95.2,12.56.12,25.13.31,37.69.69,7.19.22,14.39.47,21.56,1.02,22.04,1.69,44.1,2.5,66.21,2.07,2.36-.05,4.72-.11,7.08-.18,1.28-.04,1.29-2.04,0-2-23.65.72-47.35.17-70.94-1.71-6.85-.55-13.71-.87-20.57-1.1-11.84-.4-23.7-.6-35.55-.74-18.44-.22-36.88-.27-55.32-.26-26.24,0-52.47.15-78.71.36-3.92.03-7.85.06-11.77.1-1.29.01-1.29,2.01,0,2h0Z"/>
      </g>
      <path class="cls-4" d="M33.32,8.43c-1.16,7.62-1.07,15.33-.95,23.02h2c-.59-5.15-1.18-10.33-2.56-15.34-.64-2.33-1.38-4.83-2.61-6.92-1.03-1.74-2.87-3.32-5.03-2.61s-3.53,3.18-4.37,5.2c-.93,2.23-1.35,4.61-1.62,7-.54,4.78-.41,9.9,1.91,14.23s7.05,7.38,12.02,6.63c.53-.08.83-.75.7-1.23-.16-.57-.69-.78-1.23-.7-3.65.56-7.23-1.79-9.18-4.73-2.35-3.55-2.67-8.02-2.4-12.16.14-2.12.41-4.25.98-6.3.52-1.89,1.33-3.99,2.78-5.38,3.32-3.18,5.44,5.04,5.99,6.95,1.44,5.01,2.05,10.2,2.64,15.36.06.54.42,1,1,1,.54,0,1.01-.46,1-1-.12-7.5-.26-15.05.88-22.49.08-.53-.13-1.08-.7-1.23-.47-.13-1.15.16-1.23.7h0Z"/>
      <path class="cls-1" d="M110.75,89.54c-.62,9.89-.94,19.79-.95,29.7,0,1.11,1.71,1.38,1.96.27.58-2.49,2.1-4.73,4.23-6.16,1.91-1.29,5.25-2.61,7.3-.92,1.78,1.46,1.74,4.39,1.47,6.45-.17,1.29-.46,2.75-1.58,3.56-1.02.75-2.38.85-3.6.82-3.52-.1-7.13-1.21-10.28-2.71-1.16-.55-2.17,1.17-1.01,1.73,3.4,1.62,7.15,2.75,10.92,2.97,1.56.09,3.23-.07,4.62-.85,1.55-.86,2.38-2.43,2.72-4.12.57-2.81.65-6.29-1.25-8.64-2.25-2.8-6.33-2.16-9.16-.7-3.12,1.61-5.51,4.62-6.3,8.04l1.96.27c0-9.91.32-19.81.95-29.7.08-1.29-1.92-1.28-2,0h0Z"/>
      <path class="cls-5" d="M188.6.02c-5.96.94-11.71,4.24-14.58,9.7-1.39,2.64-2.11,5.7-1.77,8.69.18,1.57.6,3.13,1.65,4.36s2.56,1.87,4.02,2.43c3.58,1.36,7.44,1.71,11.22,1.19.54-.07.83-.76.7-1.23-.16-.58-.69-.77-1.23-.7-2.96.41-6.02.14-8.87-.74-1.3-.4-2.77-.89-3.84-1.77s-1.45-2.15-1.63-3.43c-.71-5.24,2.21-10.42,6.46-13.33,2.51-1.72,5.41-2.75,8.41-3.23.53-.08.83-.75.7-1.23-.16-.57-.69-.78-1.23-.7h0Z"/>
    </g>
  </g>
</svg>