<?xml version="1.0" encoding="UTF-8"?>
<svg id="Layer_2" data-name="Layer 2" xmlns="http://www.w3.org/2000/svg" viewBox="0 0 274.82 84.43">
  <defs>
    <style>
      .cls-1 {
        fill: #00a651;
      }

      .cls-2 {
        fill: #ed1c24;
      }

      .cls-3 {
        fill: #00aeef;
      }
    </style>
  </defs>
  <g id="Layer_1-2" data-name="Layer 1">
    <g>
      <g>
        <path class="cls-2" d="M.98,79.77C24.82,53.52,48.67,27.27,72.52,1.02"/>
        <path class="cls-2" d="M1.68,80.48c9.29-10.23,18.58-20.46,27.88-30.69l27.96-30.78L73.22,1.73c.86-.95-.55-2.37-1.41-1.41-9.29,10.23-18.58,20.46-27.88,30.69-9.32,10.26-18.64,20.52-27.96,30.78-5.23,5.76-10.47,11.52-15.7,17.28-.86.95.55,2.37,1.41,1.41h0Z"/>
      </g>
      <path class="cls-3" d="M72.25,1.99c15.39,5.06,30.67,10.48,45.8,16.29,12.06,4.63,23.91,9.78,35.85,14.71,14.49,5.99,29.18,11.54,44,16.65,9.58,3.31,19.17,6.5,28.5,10.49,14.82,6.34,29.26,13.61,43.21,21.69,1.24.72,2.48,1.45,3.72,2.18,1.11.66,2.12-1.07,1.01-1.73-13.7-8.13-27.88-15.44-42.43-21.9-9.61-4.27-19.41-7.85-29.36-11.24-14.6-4.97-29.08-10.33-43.38-16.12-11.74-4.75-23.32-9.88-35.11-14.52-15.61-6.15-31.42-11.8-47.33-17.11-1.31-.44-2.63-.87-3.95-1.31-1.23-.4-1.75,1.53-.53,1.93h0Z"/>
      <path class="cls-1" d="M.98,80.77c27.46-.24,54.91-.41,82.37-.45,19.32-.03,38.64,0,57.95.2,12.56.12,25.13.31,37.69.69,7.19.22,14.39.47,21.56,1.02,22.04,1.69,44.1,2.5,66.21,2.07,2.36-.05,4.72-.11,7.08-.18,1.28-.04,1.29-2.04,0-2-23.65.72-47.35.17-70.94-1.71-6.85-.55-13.71-.87-20.57-1.1-11.84-.4-23.7-.6-35.55-.74-18.44-.22-36.88-.27-55.32-.26-26.24,0-52.47.15-78.71.36-3.92.03-7.85.06-11.77.1-1.29.01-1.29,2.01,0,2h0Z"/>
    </g>
  </g>
</svg>