<?xml version="1.0" encoding="UTF-8"?>
<svg id="Layer_2" data-name="Layer 2" xmlns="http://www.w3.org/2000/svg" viewBox="0 0 274.82 128.36">
  <defs>
    <style>
      .cls-1 {
        fill: #00a651;
      }

      .cls-2 {
        fill: #231f20;
      }

      .cls-3 {
        fill: #ec008c;
      }

      .cls-4 {
        fill: #ed1c24;
      }

      .cls-5 {
        fill: #00aeef;
      }

      .cls-6 {
        fill: #808285;
      }
    </style>
  </defs>
  <g id="Layer_1-2" data-name="Layer 1">
    <g>
      <g>
        <path class="cls-2" d="M64.28,12.35c3.09,3.35,7.47,5.2,11.92,5.88,4.74.73,9.89.37,14.08-2.14,2.11-1.27,3.92-3.04,5.09-5.22.31-.57-.56-1.07-.86-.5-4.4,8.16-16.04,8.61-23.67,5.34-2.21-.94-4.21-2.29-5.85-4.06-.44-.47-1.14.23-.71.71h0Z"/>
        <path class="cls-2" d="M77.91,20.96c-1.27,4.45-2.31,8.96-3.12,13.51-.11.63.85.9.96.27.81-4.55,1.86-9.06,3.12-13.51.18-.62-.79-.88-.96-.27h0Z"/>
        <path class="cls-2" d="M78.59,21.65c.97-.14,1.97-.14,2.95-.02.4.05,1.02.07,1.36.32.31.23.23.62.03.9-.47.67-1.53.69-2.24.92s-1.33.61-1.67,1.27c-.19.39.13.84.56.73,1.49-.35,3.04.89,2.83,2.45-.09.68-.49,1.34-1.08,1.71-.81.5-1.85.41-2.77.36-.64-.04-.64.96,0,1,1.18.06,2.47.09,3.48-.64.82-.59,1.3-1.55,1.37-2.55.15-2.18-2.06-3.78-4.1-3.29l.56.73c.47-.95,1.76-.92,2.63-1.25s1.63-1.04,1.59-2.04c-.04-1.12-1.16-1.42-2.07-1.56-1.24-.19-2.47-.18-3.71,0-.63.09-.36,1.05.27.96h0Z"/>
      </g>
      <g>
        <path class="cls-2" d="M233.3,63.76c-3.48,1.92-5.67,5.35-6.09,9.27-.34,3.11.41,6.29,2.14,8.91.7,1.05,1.53,2.02,2.48,2.85.48.42,1.19-.28.71-.71-4.19-3.64-5.77-10.01-3.14-15.03.99-1.9,2.54-3.41,4.41-4.44.56-.31.06-1.17-.5-.86h0Z"/>
        <path class="cls-2" d="M220.59,66.25c-1.93,1.83-4.18,3.31-6.63,4.35-1.2.51-2.45.91-3.72,1.2s-2.6.6-3.84.32-1.96-1.37-1.77-2.64,1.29-2.17,2.48-2.51c2.54-.73,5.4.74,7.38,2.23,2.2,1.66,3.9,3.96,4.84,6.55.22.6,1.18.34.96-.27-.97-2.68-2.66-5.06-4.9-6.84s-5.44-3.42-8.37-2.69c-1.29.32-2.53,1.15-3.09,2.39-.51,1.13-.44,2.54.3,3.55.85,1.15,2.33,1.4,3.67,1.3,1.51-.11,3.03-.48,4.48-.94,3.33-1.07,6.38-2.89,8.92-5.3.47-.44-.24-1.15-.71-.71h0Z"/>
      </g>
      <g>
        <path class="cls-2" d="M17.25,63.82c3.8-.38,7.43,1.2,9.41,4.52,1.07,1.78,1.69,3.89,1.81,5.97s-.32,4.34-1.25,6.31c-.27.58.59,1.09.86.5,1.32-2.81,1.73-5.92,1.09-8.95s-2.28-6.11-5.03-7.84c-2.05-1.29-4.51-1.75-6.9-1.51-.63.06-.64,1.06,0,1h0Z"/>
        <path class="cls-2" d="M30.43,60.37c3.83,1.89,6.89,5.26,8.31,9.3.15.44.33.91.35,1.38,0,.19.02.47-.1.63-.25.33-.71.13-1.03.01-.91-.34-1.84-.83-2.53-1.53-1.91-1.94.2-4.29,1.71-5.71,1.93-1.83,4.28-3.14,6.58-4.44.56-.32.06-1.18-.5-.86-2.47,1.39-4.97,2.81-7.01,4.81-1.75,1.72-3.66,4.29-1.76,6.6.92,1.12,4.86,3.78,5.57,1.24.31-1.12-.28-2.39-.7-3.4-.49-1.16-1.1-2.26-1.82-3.28-1.69-2.38-3.94-4.33-6.56-5.62-.58-.28-1.08.58-.5.86h0Z"/>
      </g>
    </g>
    <g>
      <path class="cls-6" d="M72.76,3.7c-.71,9.83-.5,19.69-.1,29.52s1.01,19.69,1.07,29.55c.03,5.55-.11,11.11-.55,16.64-.05.64.95.64,1,0,.78-9.82.62-19.68.23-29.51-.39-9.85-1.01-19.69-1.11-29.55-.06-5.55.06-11.11.46-16.65.05-.64-.95-.64-1,0h0Z"/>
      <path class="cls-6" d="M74.82,71.06c2.66-.22,5.32-.33,7.99-.35l-.48-.63c-.97,3.45-1.35,7.05-1.12,10.62.04.64,1.04.64,1,0-.22-3.49.14-6.99,1.08-10.36.09-.31-.16-.63-.48-.63-2.67.01-5.33.13-7.99.35-.64.05-.64,1.05,0,1h0Z"/>
      <path class="cls-6" d="M73.73,71.76l-7.24.39c-.25.01-.53.22-.5.5.28,2.64.56,5.29.85,7.93.07.63,1.07.64,1,0-.28-2.64-.56-5.29-.85-7.93l-.5.5,7.24-.39c.64-.03.64-1.03,0-1h0Z"/>
    </g>
    <g>
      <path class="cls-3" d="M53.28,23.85c.37.82,1.07,1.41,1.74,1.97s1.36,1.05,2.09,1.5c1.54.97,3.21,1.72,4.91,2.36s3.55,1.17,5.36,1.64c.91.23,1.82.5,2.74.66,1.02.19,1.98.08,2.99-.12.63-.12.36-1.09-.27-.96-1.06.21-1.98.24-3.04,0-.82-.19-1.64-.4-2.45-.62-1.64-.43-3.27-.9-4.86-1.49s-3.09-1.26-4.51-2.12c-.72-.43-1.42-.91-2.07-1.43s-1.39-1.1-1.75-1.89c-.26-.59-1.12-.08-.86.5h0Z"/>
      <g>
        <path class="cls-3" d="M47.58,33.4c0,1.97.18,3.93.53,5.86.05.27.37.42.62.35.28-.08.4-.35.35-.62-.33-1.85-.49-3.72-.49-5.59,0-.64-1-.64-1,0h0Z"/>
        <path class="cls-3" d="M50.03,32.51c.04,1.84.26,3.67.63,5.47.13.63,1.1.36.96-.27-.36-1.71-.56-3.45-.6-5.2-.02-.64-1.02-.64-1,0h0Z"/>
        <path class="cls-3" d="M47.09,34.27c1.87-1.22,3.9-2.15,6.04-2.78.62-.18.35-1.15-.27-.96-2.22.65-4.34,1.62-6.28,2.88-.54.35-.04,1.22.5.86h0Z"/>
        <path class="cls-3" d="M54.31,32.73l-5.04,10.7c-.11.23-.08.56.18.68.29.13.53.16.81-.02.54-.35.04-1.21-.5-.86l.2.02.18.68,5.04-10.7c.27-.58-.59-1.09-.86-.5h0Z"/>
        <path class="cls-3" d="M53.14,39.41c.67-.24,1.4-.27,2.08-.05.21.07.47.17.5.42.04.28-.16.59-.3.82-.69,1.12-1.76,1.96-2.95,2.5-.32.14-.29.56-.1.79.25.3.66.36,1.03.34.43-.02.86-.06,1.3-.1.88-.07,1.76-.13,2.64-.2.27-.02.5-.22.5-.5,0-.26-.23-.52-.5-.5-.79.06-1.57.12-2.36.17-.38.03-.75.06-1.13.08-.18.01-.65.12-.76-.01l-.1.79c.77-.35,1.49-.82,2.11-1.4.58-.54,1.14-1.21,1.45-1.95.16-.39.25-.83.11-1.24-.17-.47-.57-.75-1.02-.92-.87-.34-1.89-.32-2.76,0-.25.09-.42.34-.35.62.07.25.36.44.62.35h0Z"/>
        <path class="cls-3" d="M58.47,38.92c1.18.02,2.36,0,3.54-.07.27-.02.5-.22.5-.5,0-.26-.23-.52-.5-.5-1.18.07-2.36.09-3.54.07-.27,0-.5.23-.5.5s.23.5.5.5h0Z"/>
        <path class="cls-3" d="M62.1,34.04c1.42.75,2.92,1.54,3.89,2.88s1.09,3.04.56,4.6c-.2.59-.67,1.37-1.41,1.28-.6-.07-.7-.76-.72-1.26-.07-1.57.99-2.92,2-4.01,1.1-1.19,2.41-2.17,3.81-2.98.56-.32.05-1.18-.5-.86-1.57.9-3.03,2.02-4.23,3.38s-2.25,2.93-2.05,4.81c.08.75.37,1.51,1.12,1.81.8.32,1.72-.02,2.27-.65.6-.68.82-1.61.95-2.48.14-1.03.08-2.07-.32-3.03-.89-2.13-2.91-3.31-4.86-4.34-.57-.3-1.07.56-.5.86h0Z"/>
      </g>
    </g>
    <g>
      <g>
        <g>
          <path class="cls-4" d="M.98,81.16C24.82,54.91,48.67,28.66,72.52,2.41"/>
          <path class="cls-4" d="M1.68,81.86c9.29-10.23,18.58-20.46,27.88-30.69l27.96-30.78,15.7-17.28c.86-.95-.55-2.37-1.41-1.41-9.29,10.23-18.58,20.46-27.88,30.69-9.32,10.26-18.64,20.52-27.96,30.78-5.23,5.76-10.47,11.52-15.7,17.28-.86.95.55,2.37,1.41,1.41h0Z"/>
        </g>
        <path class="cls-5" d="M72.25,3.37c15.39,5.06,30.67,10.48,45.8,16.29,12.06,4.63,23.91,9.78,35.85,14.71,14.49,5.99,29.18,11.54,44,16.65,9.58,3.31,19.17,6.5,28.5,10.49,14.82,6.34,29.26,13.61,43.21,21.69,1.24.72,2.48,1.45,3.72,2.18,1.11.66,2.12-1.07,1.01-1.73-13.7-8.13-27.88-15.44-42.43-21.9-9.61-4.27-19.41-7.85-29.36-11.24-14.6-4.97-29.08-10.33-43.38-16.12-11.74-4.75-23.32-9.88-35.11-14.52-15.61-6.15-31.42-11.8-47.33-17.11-1.31-.44-2.63-.87-3.95-1.31-1.23-.4-1.75,1.53-.53,1.93h0Z"/>
        <path class="cls-1" d="M.98,82.16c27.46-.24,54.91-.41,82.37-.45,19.32-.03,38.64,0,57.95.2,12.56.12,25.13.31,37.69.69,7.19.22,14.39.47,21.56,1.02,22.04,1.69,44.1,2.5,66.21,2.07,2.36-.05,4.72-.11,7.08-.18,1.28-.04,1.29-2.04,0-2-23.65.72-47.35.17-70.94-1.71-6.85-.55-13.71-.87-20.57-1.1-11.84-.4-23.7-.6-35.55-.74-18.44-.22-36.88-.27-55.32-.26-26.24,0-52.47.15-78.71.36-3.92.03-7.85.06-11.77.1-1.29.01-1.29,2.01,0,2h0Z"/>
      </g>
      <path class="cls-4" d="M33.32,8.43c-1.16,7.62-1.07,15.33-.95,23.02h2c-.59-5.15-1.18-10.33-2.56-15.34-.64-2.33-1.38-4.83-2.61-6.92-1.03-1.74-2.87-3.32-5.03-2.61s-3.53,3.18-4.37,5.2c-.93,2.23-1.35,4.61-1.62,7-.54,4.78-.41,9.9,1.91,14.23s7.05,7.38,12.02,6.63c.53-.08.83-.75.7-1.23-.16-.57-.69-.78-1.23-.7-3.65.56-7.23-1.79-9.18-4.73-2.35-3.55-2.67-8.02-2.4-12.16.14-2.12.41-4.25.98-6.3.52-1.89,1.33-3.99,2.78-5.38,3.32-3.18,5.44,5.04,5.99,6.95,1.44,5.01,2.05,10.2,2.64,15.36.06.54.42,1,1,1,.54,0,1.01-.46,1-1-.12-7.5-.26-15.05.88-22.49.08-.53-.13-1.08-.7-1.23-.47-.13-1.15.16-1.23.7h0Z"/>
      <path class="cls-1" d="M110.75,89.54c-.62,9.89-.94,19.79-.95,29.7,0,1.11,1.71,1.38,1.96.27.58-2.49,2.1-4.73,4.23-6.16,1.91-1.29,5.25-2.61,7.3-.92,1.78,1.46,1.74,4.39,1.47,6.45-.17,1.29-.46,2.75-1.58,3.56-1.02.75-2.38.85-3.6.82-3.52-.1-7.13-1.21-10.28-2.71-1.16-.55-2.17,1.17-1.01,1.73,3.4,1.62,7.15,2.75,10.92,2.97,1.56.09,3.23-.07,4.62-.85,1.55-.86,2.38-2.43,2.72-4.12.57-2.81.65-6.29-1.25-8.64-2.25-2.8-6.33-2.16-9.16-.7-3.12,1.61-5.51,4.62-6.3,8.04l1.96.27c0-9.91.32-19.81.95-29.7.08-1.29-1.92-1.28-2,0h0Z"/>
      <path class="cls-5" d="M188.6.02c-5.96.94-11.71,4.24-14.58,9.7-1.39,2.64-2.11,5.7-1.77,8.69.18,1.57.6,3.13,1.65,4.36s2.56,1.87,4.02,2.43c3.58,1.36,7.44,1.71,11.22,1.19.54-.07.83-.76.7-1.23-.16-.58-.69-.77-1.23-.7-2.96.41-6.02.14-8.87-.74-1.3-.4-2.77-.89-3.84-1.77s-1.45-2.15-1.63-3.43c-.71-5.24,2.21-10.42,6.46-13.33,2.51-1.72,5.41-2.75,8.41-3.23.53-.08.83-.75.7-1.23-.16-.57-.69-.78-1.23-.7h0Z"/>
    </g>
  </g>
</svg>