<?xml version="1.0" encoding="UTF-8"?>
<svg id="Layer_2" data-name="Layer 2" xmlns="http://www.w3.org/2000/svg" viewBox="0 0 253.28 137">
  <defs>
    <style>
      .cls-1 {
        fill: #231f20;
      }

      .cls-2 {
        fill: #808285;
      }
    </style>
  </defs>
  <g id="Layer_1-2" data-name="Layer 1">
    <g>
      <path class="cls-2" d="M22.12,62.59c4.66,4.63,9.5,9.07,14.55,13.28,4.6,3.84,9.24,7.57,13.48,11.81,2.38,2.38,4.66,4.86,6.83,7.42.83.98,2.24-.44,1.41-1.41-4.01-4.74-8.38-9.19-13.09-13.25-4.47-3.84-9.1-7.47-13.48-11.42-2.83-2.55-5.59-5.17-8.28-7.85-.91-.91-2.33.5-1.41,1.41h0Z"/>
      <path class="cls-2" d="M56.31,93.21c-7.54,4.58-14.93,9.42-22.08,14.59s-13.5,10.26-19.94,15.77c-3.72,3.17-7.37,6.43-10.95,9.75-.95.88.47,2.29,1.41,1.41,5.6-5.19,11.36-10.21,17.28-15.03,7.57-6.18,15.45-11.96,23.6-17.36,3.85-2.55,7.75-5.01,11.69-7.41,1.1-.67.1-2.4-1.01-1.73h0Z"/>
      <path class="cls-2" d="M20.98,61.13c7.7,3,15.6,5.54,23.65,7.41,4.58,1.06,9.23,1.83,13.85,2.66,9.42,1.68,18.83,3.36,28.23,5.13,5.25.99,10.44,2.21,15.61,3.53,10.45,2.67,20.8,5.76,31,9.27.95.33,1.91.66,2.86.99,1.22.43,1.74-1.5.53-1.93-10.1-3.55-20.34-6.7-30.68-9.44-5.55-1.47-11.14-2.87-16.78-3.97-9.11-1.77-18.26-3.37-27.4-5-5.17-.92-10.37-1.76-15.5-2.89-6.98-1.54-13.84-3.64-20.56-6.07-1.44-.52-2.87-1.06-4.29-1.61-.5-.2-1.1.22-1.23.7-.16.57.19,1.03.7,1.23h0Z"/>
      <path class="cls-2" d="M22.86,60.62c0-.66.47-1.13.94-1.55.7-.62,1.51-1.13,2.26-1.68,1.56-1.13,3.1-2.28,4.65-3.42,2.74-2.04,5.47-4.09,8.26-6.06s5.49-3.74,8.37-5.4c3.24-1.87,6.57-3.55,9.76-5.5,9.89-6.07,18.74-13.64,27.77-20.88,5.77-4.63,11.69-9.08,17.71-13.38.44-.31.65-.87.36-1.37-.25-.43-.93-.67-1.37-.36-5.56,3.98-11.04,8.09-16.41,12.34-3.97,3.15-7.85,6.41-11.84,9.55-5.16,4.06-10.4,8.07-15.95,11.59-3.17,2.01-6.47,3.74-9.75,5.57-2.98,1.66-5.86,3.5-8.67,5.44s-5.66,4.08-8.45,6.16c-1.52,1.13-3.04,2.26-4.57,3.38-.82.6-1.64,1.19-2.47,1.79-.65.47-1.29.96-1.79,1.6s-.8,1.37-.81,2.2c0,1.29,1.99,1.29,2,0h0Z"/>
      <path class="cls-2" d="M100.56,2.26c3.09,12.16,7.11,24.09,12.14,35.59,1.97,4.5,4.15,8.9,6.28,13.32,3.1,6.43,6.09,12.91,8.98,19.44,2.47,5.59,4.86,11.21,7.17,16.86.2.5.67.85,1.23.7.47-.13.9-.73.7-1.23-4.72-11.56-9.77-22.99-15.14-34.26-2.25-4.72-4.61-9.38-6.74-14.15s-4.04-9.51-5.8-14.36c-2.67-7.36-4.95-14.86-6.88-22.45-.32-1.25-2.25-.72-1.93.53h0Z"/>
      <path class="cls-2" d="M136.8,87.92c7.2-9.13,14.66-18.05,22.4-26.73,2.1-2.36,4.22-4.69,6.35-7.01.87-.95-.54-2.36-1.41-1.41-7.8,8.47-15.34,17.16-22.61,26.08-2.07,2.54-4.11,5.09-6.14,7.66-.33.42-.41,1,0,1.41.35.35,1.08.43,1.41,0h0Z"/>
      <path class="cls-2" d="M138.81,89.81c7.23-1.44,14.46-2.88,21.59-4.79,6.91-1.85,13.7-4.09,20.4-6.58,13.37-4.98,26.33-10.97,39.2-17.12,7.51-3.59,15.01-7.21,22.51-10.82,1.16-.56.15-2.28-1.01-1.73-13.11,6.31-26.18,12.76-39.45,18.72-12.9,5.8-26.07,11.07-39.69,14.91-7.93,2.24-16,3.87-24.07,5.48-1.26.25-.73,2.18.53,1.93h0Z"/>
      <path class="cls-2" d="M252.74,131.63c-9.43-7.28-19.1-14.25-28.99-20.87-10.7-7.17-21.67-13.94-32.87-20.29-6.41-3.64-12.89-7.13-19.45-10.49-1.14-.59-2.16,1.14-1.01,1.73,11.71,6.01,23.19,12.45,34.41,19.32,10.61,6.5,20.99,13.37,31.11,20.61,5.34,3.81,10.6,7.73,15.79,11.74.43.33,1.12.07,1.37-.36.3-.52.07-1.04-.36-1.37h0Z"/>
    </g>
    <path class="cls-1" d="M37.61,38.33c17.1-9.92,34.03-20.1,51.48-29.4,4.35-2.32,8.73-4.6,13.12-6.85l-1.21-.16c6.42,6.06,13.06,11.87,19.95,17.39,6.07,4.86,12.36,9.45,18.55,14.15,7.35,5.57,14.47,11.42,21.29,17.63.8.73,1.6,1.46,2.39,2.2.73.68,1.12,1.17,2.16,1.2,2.18.07,4.37,0,6.55-.05,2.47-.07,4.94-.2,7.4-.36,13.25-.83,26.47-2.13,39.69-3.31,5.21-.46,10.41-.94,15.63-1.3,1.41-.1,2.82-.21,4.24-.2.17,0,.35,0,.52.02,1.5.1,2.07.71,2.38,2.15.58,2.68,1,5.41,1.46,8.11,3.71,21.46,6.24,43.13,7.58,64.87.17,2.7.31,5.4.44,8.1l1-1c-19.46-.33-38.91-.66-58.37-.98-9.73-.16-19.46-.33-29.19-.49-2.41-.04-4.82-.08-7.23-.12s-4.76.1-7.09-.17-3.22-1.84-3.81-3.92c-.63-2.21-1.18-4.44-1.75-6.67-2.66-10.41-5.01-20.9-7.05-31.45-.11-.58-.73-.77-1.23-.7-20.54,3-41.23,4.9-61.97,5.68-5.9.22-11.81.35-17.72.39-.72,0-1.05.63-.96,1.27,1.81,12.87,1.41,26.02-1.15,38.76l.96-.73c-17.88-1.16-35.85-.32-53.55,2.45l1.23,1.23c4.93-19.63,9.86-39.25,14.79-58.88,1.4-5.57,2.8-11.15,4.2-16.72.12-.49-.16-1.13-.7-1.23-6.15-1.15-12.29-2.3-18.44-3.44l.24,1.83c11.47-6.29,22.86-12.71,34.17-19.28,1.11-.65.11-2.37-1.01-1.73-11.31,6.56-22.71,12.98-34.17,19.28-.72.39-.62,1.67.24,1.83,6.15,1.15,12.29,2.3,18.44,3.44l-.7-1.23c-4.93,19.63-9.86,39.25-14.79,58.88-1.4,5.57-2.8,11.15-4.2,16.72-.2.8.49,1.35,1.23,1.23,17.52-2.74,35.32-3.52,53.02-2.37.41.03.88-.33.96-.73,2.63-13.12,3.01-26.57,1.15-39.83l-.96,1.27c21.01-.15,42-1.43,62.87-3.86,5.79-.67,11.58-1.44,17.35-2.28l-1.23-.7c1.87,9.67,4,19.29,6.39,28.85.59,2.37,1.2,4.73,1.83,7.09.5,1.87.88,3.94,2.1,5.5,1.14,1.46,2.83,1.96,4.62,2.09,2.38.17,4.8.1,7.19.14,20.12.34,40.24.68,60.37,1.02,11.31.19,22.62.38,33.93.57.52,0,1.03-.47,1-1-.74-15.38-2.07-30.73-4-46.01-.93-7.4-2-14.79-3.2-22.15-.62-3.8-1.28-7.59-1.98-11.38-.26-1.41-.37-3.07-1.29-4.25-.84-1.08-2.13-1.35-3.44-1.43-1.86-.1-3.76.11-5.62.24-3.61.26-7.22.57-10.83.89-9.43.83-18.86,1.71-28.29,2.5-9.89.83-19.81,1.69-29.75,1.56l.71.29c-8.15-7.63-16.72-14.74-25.62-21.47-7.56-5.71-15.18-11.32-22.45-17.39-5.16-4.31-10.18-8.79-15.07-13.4-.34-.32-.8-.36-1.21-.16-16.94,8.66-33.49,17.99-49.88,27.64-4.9,2.88-9.8,5.76-14.71,8.61-1.11.65-.11,2.37,1.01,1.73Z"/>
  </g>
</svg>