<?xml version="1.0" encoding="UTF-8"?>
<svg id="Layer_2" data-name="Layer 2" xmlns="http://www.w3.org/2000/svg" viewBox="0 0 253.28 137">
  <defs>
    <style>
      .cls-1 {
        fill: #231f20;
      }
    </style>
  </defs>
  <g id="Layer_1-2" data-name="Layer 1">
    <path class="cls-1" d="M37.61,38.33c17.1-9.92,34.03-20.1,51.48-29.4,4.35-2.32,8.73-4.6,13.12-6.85l-1.21-.16c6.42,6.06,13.06,11.87,19.95,17.39,6.07,4.86,12.36,9.45,18.55,14.15,7.35,5.57,14.47,11.42,21.29,17.63.8.73,1.6,1.46,2.39,2.2.73.68,1.12,1.17,2.16,1.2,2.18.07,4.37,0,6.55-.05,2.47-.07,4.94-.2,7.4-.36,13.25-.83,26.47-2.13,39.69-3.31,5.21-.46,10.41-.94,15.63-1.3,1.41-.1,2.82-.21,4.24-.2.17,0,.35,0,.52.02,1.5.1,2.07.71,2.38,2.15.58,2.68,1,5.41,1.46,8.11,3.71,21.46,6.24,43.13,7.58,64.87.17,2.7.31,5.4.44,8.1l1-1c-19.46-.33-38.91-.66-58.37-.98-9.73-.16-19.46-.33-29.19-.49-2.41-.04-4.82-.08-7.23-.12s-4.76.1-7.09-.17-3.22-1.84-3.81-3.92c-.63-2.21-1.18-4.44-1.75-6.67-2.66-10.41-5.01-20.9-7.05-31.45-.11-.58-.73-.77-1.23-.7-20.54,3-41.23,4.9-61.97,5.68-5.9.22-11.81.35-17.72.39-.72,0-1.05.63-.96,1.27,1.81,12.87,1.41,26.02-1.15,38.76l.96-.73c-17.88-1.16-35.85-.32-53.55,2.45l1.23,1.23c4.93-19.63,9.86-39.25,14.79-58.88,1.4-5.57,2.8-11.15,4.2-16.72.12-.49-.16-1.13-.7-1.23-6.15-1.15-12.29-2.3-18.44-3.44l.24,1.83c11.47-6.29,22.86-12.71,34.17-19.28,1.11-.65.11-2.37-1.01-1.73-11.31,6.56-22.71,12.98-34.17,19.28-.72.39-.62,1.67.24,1.83,6.15,1.15,12.29,2.3,18.44,3.44l-.7-1.23c-4.93,19.63-9.86,39.25-14.79,58.88-1.4,5.57-2.8,11.15-4.2,16.72-.2.8.49,1.35,1.23,1.23,17.52-2.74,35.32-3.52,53.02-2.37.41.03.88-.33.96-.73,2.63-13.12,3.01-26.57,1.15-39.83l-.96,1.27c21.01-.15,42-1.43,62.87-3.86,5.79-.67,11.58-1.44,17.35-2.28l-1.23-.7c1.87,9.67,4,19.29,6.39,28.85.59,2.37,1.2,4.73,1.83,7.09.5,1.87.88,3.94,2.1,5.5,1.14,1.46,2.83,1.96,4.62,2.09,2.38.17,4.8.1,7.19.14,20.12.34,40.24.68,60.37,1.02,11.31.19,22.62.38,33.93.57.52,0,1.03-.47,1-1-.74-15.38-2.07-30.73-4-46.01-.93-7.4-2-14.79-3.2-22.15-.62-3.8-1.28-7.59-1.98-11.38-.26-1.41-.37-3.07-1.29-4.25-.84-1.08-2.13-1.35-3.44-1.43-1.86-.1-3.76.11-5.62.24-3.61.26-7.22.57-10.83.89-9.43.83-18.86,1.71-28.29,2.5-9.89.83-19.81,1.69-29.75,1.56l.71.29c-8.15-7.63-16.72-14.74-25.62-21.47-7.56-5.71-15.18-11.32-22.45-17.39-5.16-4.31-10.18-8.79-15.07-13.4-.34-.32-.8-.36-1.21-.16-16.94,8.66-33.49,17.99-49.88,27.64-4.9,2.88-9.8,5.76-14.71,8.61-1.11.65-.11,2.37,1.01,1.73Z"/>
  </g>
</svg>