<svg id="Layer_1" data-name="Layer 1" xmlns="http://www.w3.org/2000/svg" viewBox="0 0 341.8 238.96">
  <defs>
    <style>
      .cls-1 {
        fill: #231f20;
      }

      .cls-2 {
        fill: #808285;
      }
    </style>
  </defs>
  <title>circle-of-trigs</title>
  <g>
    <path class="cls-1" d="M171.56,135.07c-2.47-.46-4.73.57-6.66,2.06a34.11,34.11,0,0,0-5.25,5.29c-.81,1-1.58,2-2.3,3.05a10.22,10.22,0,0,0-1.53,3,4,4,0,0,0,.26,3.09,4.05,4.05,0,0,0,2.85,1.72c2.55.5,5.26-.05,7.76.73a6.78,6.78,0,0,1,3.77,3.13,8.66,8.66,0,0,1-.88,10,12.16,12.16,0,0,1-5.61,3.63,19.39,19.39,0,0,1-7.92.34,1,1,0,0,0,0,2,22.69,22.69,0,0,0,7.31-.11,14.56,14.56,0,0,0,5.62-2.58A11,11,0,0,0,173.55,160c-.52-3.7-3-7.19-6.77-8.1-2.54-.63-5.21-.06-7.73-.7-.92-.23-1.53-.73-1.41-1.73a6.45,6.45,0,0,1,1.31-2.83,40.15,40.15,0,0,1,5.36-6.35c1.73-1.68,4.1-3.81,6.72-3.32,1.26.23,1.8-1.69.53-1.93Z" transform="translate(-11.62 -134.96)"/>
    <path class="cls-1" d="M180.66,171.46a98.93,98.93,0,0,1,.85-16.5,1,1,0,0,0-.7-1.23,1,1,0,0,0-1.23.7,101,101,0,0,0-.92,17c0,1.28,2,1.29,2,0Z" transform="translate(-11.62 -134.96)"/>
    <path class="cls-1" d="M185.53,157.39v12.12c0,1.09,1.79,1.41,2,.27.61-3.89,1.25-8,3.25-11.42a10.39,10.39,0,0,1,1.7-2.34c.18-.17.17-.21.34-.13s.44.68.52,1a24.89,24.89,0,0,1,.75,6.72,34.55,34.55,0,0,1-.88,8c-.29,1.25,1.63,1.79,1.92.53a35.38,35.38,0,0,0,.72-12.3,16.51,16.51,0,0,0-.66-3.7,3.2,3.2,0,0,0-1.93-2.18c-1.23-.34-2.13.56-2.82,1.44a19.28,19.28,0,0,0-3.19,6.17,50.74,50.74,0,0,0-1.65,7.74l2,.26V157.39a1,1,0,0,0-2,0Z" transform="translate(-11.62 -134.96)"/>
    <path class="cls-1" d="M213.05,138.4a42.41,42.41,0,0,0-9.49,14c-2.18,5.25-3.37,11.59-.27,16.74a10.63,10.63,0,0,0,6.36,4.94,1,1,0,0,0,.53-1.92c-4.64-1.18-6.87-6.12-6.78-10.56a23.36,23.36,0,0,1,1.89-8.18,39.28,39.28,0,0,1,3.59-6.86,40,40,0,0,1,5.58-6.8c.92-.9-.49-2.32-1.41-1.41Z" transform="translate(-11.62 -134.96)"/>
    <path class="cls-1" d="M213.29,150.26a113,113,0,0,0,15.31,18.36c.92.89,2.34-.52,1.41-1.42a109.58,109.58,0,0,1-15-17.95c-.71-1.07-2.45-.07-1.73,1Z" transform="translate(-11.62 -134.96)"/>
    <path class="cls-1" d="M224.58,148.5q-5,10.16-9.41,20.6a1,1,0,0,0,.36,1.37,1,1,0,0,0,1.37-.36q4.41-10.44,9.41-20.6c.56-1.16-1.16-2.17-1.73-1Z" transform="translate(-11.62 -134.96)"/>
    <path class="cls-1" d="M228,141.66a23.84,23.84,0,0,1,6.05,10.06,25.54,25.54,0,0,1,1.32,11.49,10.37,10.37,0,0,1-2.48,5.52c-.88.94.53,2.36,1.41,1.41,2.89-3.11,3.51-7.5,3.16-11.59a32.16,32.16,0,0,0-3.63-12.48,24.09,24.09,0,0,0-4.41-5.82c-.93-.9-2.35.52-1.42,1.41Z" transform="translate(-11.62 -134.96)"/>
  </g>
  <g>
    <path class="cls-1" d="M253,162.44a51,51,0,0,1,20.85,4.2,45.51,45.51,0,0,1,12.48,8,48.21,48.21,0,0,1,10.5,13.81,53.67,53.67,0,0,1,5.22,15.67,52.9,52.9,0,0,1,0,17.26c-.07.41-.14.83-.22,1.24-.12.63.84.9,1,.27a54.28,54.28,0,0,0,.63-16.14,54.86,54.86,0,0,0-5-17.36,50,50,0,0,0-9.6-13.76,45.71,45.71,0,0,0-12.58-9,52.31,52.31,0,0,0-21-5.17c-.75,0-1.5,0-2.25,0a.5.5,0,0,0,0,1Z" transform="translate(-11.62 -134.96)"/>
    <path class="cls-1" d="M290.23,211.09l5,5.95,2.53,3a28.29,28.29,0,0,0,2.36,2.77c1.82,1.65,3.75-.12,5.07-1.47q2.54-2.58,4.89-5.33c.89-1.05,1.76-2.12,2.61-3.2.39-.48.76-1,1.14-1.46.2-.28.41-.55.62-.83s1.05-1.39.63-1.44c-.64-.08-.64.92,0,1s.88-1,.27-1.33c-.93-.46-1.76,1.26-2.18,1.82q-2.38,3.15-5,6.12-1.29,1.46-2.64,2.88a14.31,14.31,0,0,1-2.78,2.61,1.55,1.55,0,0,1-1.7.09,7.14,7.14,0,0,1-1.31-1.43L297,217.65l-6.08-7.27c-.42-.49-1.12.22-.71.71Z" transform="translate(-11.62 -134.96)"/>
  </g>
  <g>
    <path class="cls-1" d="M269.88,235.89a47.59,47.59,0,0,0-9.45,7.39,36.05,36.05,0,0,0-7,9.45,17.93,17.93,0,0,0-1.87,10.87,9.58,9.58,0,0,0,2.17,4.64,8.42,8.42,0,0,0,4.86,2.51,46.62,46.62,0,0,0,7.28.59c2.58.08,5.17,0,7.76-.15,1.28-.08,1.29-2.08,0-2a81.2,81.2,0,0,1-12.67-.13,9.84,9.84,0,0,1-5-1.44,6.65,6.65,0,0,1-2.3-3.66c-.87-3.22-.1-6.77,1.25-9.74a32.5,32.5,0,0,1,6.19-8.83,45.6,45.6,0,0,1,9.72-7.78,1,1,0,0,0-1-1.72Z" transform="translate(-11.62 -134.96)"/>
    <path class="cls-1" d="M276.78,263.66c.81-3,1.64-6.28,3.81-8.65,1.89-2.08,4.69-3.28,7.42-2.13a7.94,7.94,0,0,1,4.45,7.14,6.88,6.88,0,0,1-1,4.18,6.68,6.68,0,0,1-3.38,2.3,17.36,17.36,0,0,1-11.19,0c-1.22-.4-1.75,1.53-.53,1.93a19.35,19.35,0,0,0,11.69.15,9.67,9.67,0,0,0,4.49-2.58,8,8,0,0,0,1.93-4.82,10.42,10.42,0,0,0-4.21-9.38,8.11,8.11,0,0,0-9.59.43c-3.44,2.63-4.71,6.86-5.79,10.87a1,1,0,0,0,1.93.53Z" transform="translate(-11.62 -134.96)"/>
    <path class="cls-1" d="M309.29,246.17c-3.27-.91-6.15,1.85-8,4.19a21.05,21.05,0,0,0-2.62,4.15c-.66,1.4-1,3.15.54,4.12a4.82,4.82,0,0,0,2,.54,25.56,25.56,0,0,0,2.9.23,26.58,26.58,0,0,0,2.68,0,8.81,8.81,0,0,1,2.51-.07c1.1.25,1.2,1.48,1,2.41a5.3,5.3,0,0,1-2.06,2.8c-2.42,1.89-5.54,2.62-8.14,4.21-1.1.67-.09,2.4,1,1.73,2.31-1.41,4.95-2.17,7.25-3.6,2.13-1.32,4.16-3.43,4-6.12a3.53,3.53,0,0,0-1.73-3.05c-1.48-.8-3.35-.3-4.95-.26-.85,0-1.7,0-2.55-.05a11.44,11.44,0,0,1-2.61-.32c-.57-.17-.52-.52-.35-1a12.73,12.73,0,0,1,1.1-2.18,18.91,18.91,0,0,1,3.27-4.08c1.11-1,2.63-2.09,4.22-1.65a1,1,0,0,0,.53-1.93Z" transform="translate(-11.62 -134.96)"/>
    <path class="cls-1" d="M327.81,240a43,43,0,0,0-9.14,12.71c-2.17,4.8-4,11-1.27,16a8.48,8.48,0,0,0,6.27,4.45,1,1,0,0,0,1-1,1,1,0,0,0-1-1,6.47,6.47,0,0,1-4.5-3.38,11,11,0,0,1-.92-7.14A32.23,32.23,0,0,1,324,247.47a45.13,45.13,0,0,1,5.23-6.07c.92-.9-.5-2.31-1.42-1.41Z" transform="translate(-11.62 -134.96)"/>
    <path class="cls-1" d="M330.52,249.06A88,88,0,0,0,343,266.48c.88.95,2.29-.47,1.42-1.41a86.09,86.09,0,0,1-12.2-17c-.62-1.12-2.35-.12-1.72,1Z" transform="translate(-11.62 -134.96)"/>
    <path class="cls-1" d="M340.77,247.3q-5.64,9.66-10.32,19.83a1,1,0,0,0,.36,1.37,1,1,0,0,0,1.37-.36,221.86,221.86,0,0,1,10.32-19.83,1,1,0,0,0-1.73-1Z" transform="translate(-11.62 -134.96)"/>
    <path class="cls-1" d="M344.79,240.56c5.61,7.25,8.62,17.43,5.13,26.26-.86,2.18-2.33,4.49-4.65,5.32-1.2.43-.68,2.37.54,1.93,4.92-1.76,6.86-7.65,7.43-12.39a29,29,0,0,0-2.5-15,35.69,35.69,0,0,0-4.54-7.57,1,1,0,0,0-1.41,0,1,1,0,0,0,0,1.41Z" transform="translate(-11.62 -134.96)"/>
  </g>
  <g>
    <path class="cls-2" d="M297.85,159.42a40.83,40.83,0,0,0,.28,11.15l.84-.49a10,10,0,0,0-4.64-2.12c-1.46-.19-3.35.49-3.38,2.23,0,1.52,1.55,2.16,2.82,2.34a25,25,0,0,0,6.11,0c.64-.07.64-1.07,0-1a28,28,0,0,1-4.49.13c-.95-.06-2.72,0-3.3-1a1.14,1.14,0,0,1,.53-1.53,2.73,2.73,0,0,1,2-.16,9.47,9.47,0,0,1,3.65,1.77.51.51,0,0,0,.84-.48,39.72,39.72,0,0,1-.25-10.89c.07-.63-.93-.63-1,0Z" transform="translate(-11.62 -134.96)"/>
    <path class="cls-2" d="M308.12,164.24l-11,18.67a.5.5,0,0,0,.86.5l11-18.67a.5.5,0,0,0-.86-.5Z" transform="translate(-11.62 -134.96)"/>
    <path class="cls-2" d="M309.15,174l-1,5.63a3.91,3.91,0,0,1-.21,1.19c-.11.17-.14.15-.33,0s-.35-.27-.54-.39a4.35,4.35,0,0,0-2.14-.78,3.07,3.07,0,0,0-3.19,2,2.73,2.73,0,0,0,1.54,3.19c1.66.84,3.5.16,5-.71a.5.5,0,0,0-.51-.86c-1.42.82-3.77,1.69-4.9-.08a1.53,1.53,0,0,1,.33-2,2.36,2.36,0,0,1,2.37-.38,4.68,4.68,0,0,1,1.31.73,1.79,1.79,0,0,0,.89.42c.83.07,1.11-.7,1.22-1.36.38-2.12.74-4.24,1.11-6.35.11-.63-.85-.9-1-.27Z" transform="translate(-11.62 -134.96)"/>
    <path class="cls-2" d="M312.57,177.69a15.6,15.6,0,0,1,5,5.71c.3.57,1.16.07.87-.5a16.82,16.82,0,0,0-5.32-6.07c-.53-.37-1,.49-.51.86Z" transform="translate(-11.62 -134.96)"/>
    <path class="cls-2" d="M317.51,174.45a104,104,0,0,0-6.51,11c-.29.58.57,1.08.87.51a102.34,102.34,0,0,1,6.51-11c.36-.54-.51-1-.87-.51Z" transform="translate(-11.62 -134.96)"/>
  </g>
  <g>
    <path class="cls-1" d="M125.48,355a103.25,103.25,0,0,0,14.82-.28,1,1,0,0,0,1-1,1,1,0,0,0-1-1,103.25,103.25,0,0,1-14.82.28c-1.28-.07-1.28,1.93,0,2Z" transform="translate(-11.62 -134.96)"/>
    <path class="cls-1" d="M165.66,334.89A21.44,21.44,0,0,0,154,339.54a20.69,20.69,0,0,0-4.26,4.65c-1.25,1.88-2.2,4.32-.33,6.15,1.71,1.68,4.37,1.78,6.62,1.79s4.44-.13,6.35,1c3.73,2.18,1.65,7.55-.56,10.07a12.23,12.23,0,0,1-11.21,4.12c-1.26-.23-1.8,1.69-.54,1.93a14,14,0,0,0,11.11-2.74c3.11-2.38,5.65-6.39,5.17-10.46a6.09,6.09,0,0,0-3.6-5c-2.14-.95-4.43-.92-6.72-.93a12.73,12.73,0,0,1-3.69-.38,2.77,2.77,0,0,1-2-1.5c-.33-1,.5-2.16,1-3a19.14,19.14,0,0,1,14.26-8.39c1.27-.1,1.28-2.1,0-2Z" transform="translate(-11.62 -134.96)"/>
    <path class="cls-1" d="M170.45,367.9a29.82,29.82,0,0,1-.39-12.19,1,1,0,0,0-.7-1.23,1,1,0,0,0-1.23.7,32.33,32.33,0,0,0,.39,13.25c.3,1.25,2.23.72,1.93-.53Z" transform="translate(-11.62 -134.96)"/>
    <path class="cls-1" d="M174,352.89V368h2a28.81,28.81,0,0,1,2.76-13.3c.45-.94,1.83-3.84,3.18-2.3a4.45,4.45,0,0,1,.87,2.13,21.35,21.35,0,0,1,.34,3.47,27,27,0,0,1-1,8.09,1,1,0,0,0,1.93.53,29,29,0,0,0,1.06-8.38,26.4,26.4,0,0,0-.4-4.16,6.5,6.5,0,0,0-1.21-2.86,3.08,3.08,0,0,0-2.67-1.23,4,4,0,0,0-2.79,1.83,16.37,16.37,0,0,0-1.71,3.33,29.63,29.63,0,0,0-1.31,3.78A31.21,31.21,0,0,0,174,368a1,1,0,0,0,2,0V352.89a1,1,0,0,0-2,0Z" transform="translate(-11.62 -134.96)"/>
    <path class="cls-1" d="M203.57,335.59a61.58,61.58,0,0,0-8,17.48,59.89,59.89,0,0,0-1.84,9.46c-.31,2.86-.16,6,2,8.19s5.45,2.67,8.38,2.93a1,1,0,0,0,1-1,1,1,0,0,0-1-1c-2.24-.2-4.9-.5-6.65-2-2.08-1.83-2-4.74-1.69-7.27a58.19,58.19,0,0,1,4.69-16.92,61.44,61.44,0,0,1,4.87-8.81c.72-1.07-1-2.08-1.73-1Z" transform="translate(-11.62 -134.96)"/>
    <path class="cls-1" d="M210.55,344.89c4,6.23,6.41,13.52,11.51,19.06a21.74,21.74,0,0,0,4.55,3.78c1.1.68,2.1-1.05,1-1.72-8-4.91-10.51-14.7-15.35-22.12-.7-1.08-2.43-.08-1.72,1Z" transform="translate(-11.62 -134.96)"/>
    <path class="cls-1" d="M223.36,344.19a165.32,165.32,0,0,0-12.59,21.86c-.55,1.16,1.17,2.18,1.73,1a165.32,165.32,0,0,1,12.59-21.86c.73-1.06-1-2.06-1.73-1Z" transform="translate(-11.62 -134.96)"/>
    <path class="cls-1" d="M229.38,338.73a26.33,26.33,0,0,1,9.18,11.86c1.88,4.83,2.69,10.71.79,15.65a9.23,9.23,0,0,1-5.74,5.7,1,1,0,0,0,.53,1.93,10.91,10.91,0,0,0,6.28-5.21,18.15,18.15,0,0,0,2-9.33,28.57,28.57,0,0,0-12-22.33,1,1,0,0,0-1,1.73Z" transform="translate(-11.62 -134.96)"/>
  </g>
  <g>
    <path class="cls-1" d="M12.33,253.86a29.21,29.21,0,0,0,17.66-1,1,1,0,0,0,.7-1.23,1,1,0,0,0-1.23-.7,27.32,27.32,0,0,1-16.6,1,1,1,0,0,0-.53,1.93Z" transform="translate(-11.62 -134.96)"/>
    <path class="cls-1" d="M53.55,234.6c-4.92,4.29-10,8.75-13.2,14.5-2.89,5.11-5,13.16.68,17.24,3.48,2.5,8,2,12,1.34a1,1,0,0,0,.69-1.23,1,1,0,0,0-1.23-.7c-3.2.54-6.79,1-9.75-.71-2.49-1.44-3.38-4.13-3.25-6.88a18.42,18.42,0,0,1,2.63-8.06A36.13,36.13,0,0,1,47.51,243c2.34-2.47,4.89-4.72,7.45-7,1-.85-.45-2.25-1.41-1.41Z" transform="translate(-11.62 -134.96)"/>
    <path class="cls-1" d="M59.11,260.41a6,6,0,0,1,1.49-7c1.68-1.56,4.63-2.77,6.84-1.63s2.68,4.46,2.35,6.67c-.38,2.57-2.33,4-4.68,4.76a19.93,19.93,0,0,1-3.89.74,6.11,6.11,0,0,1-4.22-.67c-1.06-.73-2.06,1-1,1.72a7.4,7.4,0,0,0,4.83,1,24.13,24.13,0,0,0,4.47-.75c3-.84,5.73-2.73,6.38-6,.6-3-.06-6.93-2.66-8.85s-6.6-.92-9.05.94a8.11,8.11,0,0,0-2.58,10.07c.59,1.15,2.32.13,1.73-1Z" transform="translate(-11.62 -134.96)"/>
    <path class="cls-1" d="M82.3,245.68a32.37,32.37,0,0,0-5.6,5.86,13.23,13.23,0,0,0-1.77,3.62c-.41,1.37-.52,2.89.75,3.83a5.78,5.78,0,0,0,3.56.79A37.89,37.89,0,0,0,84,259.5c.45-.06,1.47-.39,1.89-.11a.89.89,0,0,1,.22.95,3.12,3.12,0,0,1-1.06,1.43A15.65,15.65,0,0,1,83.51,263a18,18,0,0,1-8.65,3.27,1,1,0,0,0-1,1,1,1,0,0,0,1,1,20.16,20.16,0,0,0,8.27-2.65,18.72,18.72,0,0,0,3.41-2.53,4.13,4.13,0,0,0,1.57-3.57,2.57,2.57,0,0,0-2.81-2.22c-1.63.1-3.23.39-4.87.44-.74,0-1.5,0-2.24,0a2.35,2.35,0,0,1-1.38-.4c-.38-.37-.12-1.05,0-1.48a9.84,9.84,0,0,1,.76-1.92c1.44-2.75,3.84-4.85,6.14-6.86,1-.85-.45-2.26-1.41-1.42Z" transform="translate(-11.62 -134.96)"/>
    <path class="cls-1" d="M100,238.6a45.29,45.29,0,0,0-5.66,13.81,44.7,44.7,0,0,0-1,7.45,18.74,18.74,0,0,0,.84,7.63,9.37,9.37,0,0,0,4.8,5.42,1,1,0,0,0,1.37-.36,1,1,0,0,0-.36-1.36c-4.29-1.88-4.87-7-4.66-11.11a42.83,42.83,0,0,1,6.45-20.47c.68-1.1-1-2.1-1.73-1Z" transform="translate(-11.62 -134.96)"/>
    <path class="cls-1" d="M105.21,249.19a66,66,0,0,0,11.6,16.86c.88.94,2.3-.48,1.41-1.41a64,64,0,0,1-11.28-16.46c-.56-1.16-2.29-.14-1.73,1Z" transform="translate(-11.62 -134.96)"/>
    <path class="cls-1" d="M116.5,246l-6.81,11.21-3.34,5.5a6.37,6.37,0,0,0-1.29,2.57,1.32,1.32,0,0,0,1.6,1.49c1.26-.26.73-2.19-.53-1.93l-.1,0h.53l-.09,0,.45.26c.18.28.23.39.13.32h0a6.36,6.36,0,0,0,.38-.64l.71-1.16,1.41-2.33,2.89-4.75,5.78-9.52a1,1,0,0,0-1.72-1Z" transform="translate(-11.62 -134.96)"/>
    <path class="cls-1" d="M121.87,240.87a23.18,23.18,0,0,1,2.22,24,13.65,13.65,0,0,1-4.77,5.5c-1.09.68-.08,2.41,1,1.73,4-2.53,6.44-7.13,7.49-11.66a25.66,25.66,0,0,0-.65-13.71,23.86,23.86,0,0,0-3.58-6.9,1,1,0,0,0-1.37-.36,1,1,0,0,0-.35,1.37Z" transform="translate(-11.62 -134.96)"/>
  </g>
  <g>
    <path class="cls-1" d="M73.76,231.11a37.94,37.94,0,0,1,1-11.62,65.24,65.24,0,0,1,2.87-9.39,69.18,69.18,0,0,1,9.92-17.3,79.74,79.74,0,0,1,32.52-24.2,91.46,91.46,0,0,1,23-6.12c.63-.08.64-1.08,0-1a92.6,92.6,0,0,0-20.81,5.19,87.06,87.06,0,0,0-18.67,9.74A76.63,76.63,0,0,0,88.3,190.35a70.59,70.59,0,0,0-10.66,17.26A65.14,65.14,0,0,0,74.38,217a48.19,48.19,0,0,0-1.73,11.06,27.62,27.62,0,0,0,.11,3c.06.64,1.06.64,1,0Z" transform="translate(-11.62 -134.96)"/>
    <path class="cls-1" d="M124.62,155.8q9.82,2.64,19.34,6.24l-.22-.83c-2.45,2.06-5,4-7.5,6-1.62,1.24-3.16,2.59-4.68,4-.64.58-1.31,1.13-1.93,1.73l-.63.62-.35.34c-.12.12-.3.16-.05.1l.56.73a.66.66,0,0,1,.14-.2c.4-.49-.3-1.2-.71-.7a2,2,0,0,0-.29.4.5.5,0,0,0,.56.73c.42-.1.84-.68,1.13-1,.57-.56,1.17-1.08,1.77-1.61,1.63-1.46,3.25-2.93,5-4.27,2.61-2,5.19-4,7.7-6.13a.51.51,0,0,0-.22-.84,202.56,202.56,0,0,0-19.34-6.24.5.5,0,0,0-.27,1Z" transform="translate(-11.62 -134.96)"/>
  </g>
  <g>
    <path class="cls-2" d="M69.2,165.46A109.84,109.84,0,0,0,68,177l.86-.35c-1.37-1.33-2.73-3-4.5-3.8a3.38,3.38,0,0,0-4.22,1.1,6.14,6.14,0,0,0-1.26,4.63c.36,1.86,2.15,2.45,3.82,2.66a10.92,10.92,0,0,0,6.42-1.19c.57-.3.06-1.16-.51-.86a10,10,0,0,1-6,1,3.5,3.5,0,0,1-2.44-1.07,3.1,3.1,0,0,1-.2-2.58c.41-1.57,1.55-3.48,3.45-3a5.82,5.82,0,0,1,2.45,1.59c.77.72,1.52,1.46,2.27,2.2A.51.51,0,0,0,69,177a107.09,107.09,0,0,1,1.17-11.3c.1-.63-.87-.9-1-.27Z" transform="translate(-11.62 -134.96)"/>
    <path class="cls-2" d="M78.62,168.64q-7,11.4-14.84,22.25c-.37.53.49,1,.87.51q7.83-10.85,14.83-22.25a.5.5,0,0,0-.86-.51Z" transform="translate(-11.62 -134.96)"/>
    <path class="cls-2" d="M77.39,179.85q-1.11,4-1.92,8h1a7,7,0,0,0-2.09-3.24,2.8,2.8,0,0,0-3.32-.24,3.15,3.15,0,0,0-1.26,3.26,3.67,3.67,0,0,0,2.65,2.55A4.78,4.78,0,0,0,77,188.68c.44-.47-.26-1.18-.71-.71a3.72,3.72,0,0,1-3.84,1.18,2.37,2.37,0,0,1-1.63-2.83,1.8,1.8,0,0,1,2.64-1.12,5.22,5.22,0,0,1,2,2.92c.15.43.87.52,1,0q.8-4,1.92-8a.5.5,0,0,0-1-.27Z" transform="translate(-11.62 -134.96)"/>
    <path class="cls-2" d="M79.8,181.46a22.48,22.48,0,0,0,5.61,5.22c.54.35,1-.51.51-.86A21.2,21.2,0,0,1,80.66,181a.51.51,0,0,0-.68-.17.49.49,0,0,0-.18.68Z" transform="translate(-11.62 -134.96)"/>
    <path class="cls-2" d="M84.29,179.41,77.38,192c-.31.57.55,1.07.86.51l6.92-12.56c.31-.56-.55-1.07-.87-.51Z" transform="translate(-11.62 -134.96)"/>
  </g>
  <g>
    <path class="cls-1" d="M71.26,282.4c-3.73,12.37-2.25,25.68,1.54,37.85,1.7,5.43,3.86,10.88,7.56,15.28,3.91,4.66,9.45,7.33,14.8,10,6.28,3.08,12.88,6.1,20,6.16a.5.5,0,0,0,0-1c-6.24,0-12.1-2.47-17.64-5.13-5.25-2.52-10.89-5-15.06-9.17-4-4-6.38-9.37-8.15-14.7a80.86,80.86,0,0,1-4-18.26,54.55,54.55,0,0,1,1.87-20.73.5.5,0,0,0-1-.26Z" transform="translate(-11.62 -134.96)"/>
    <path class="cls-1" d="M59.6,292.47c2.6-3.27,5.28-6.63,8.79-9A10.65,10.65,0,0,1,71.24,282c1.17-.33,2.09.84,2.87,1.55q2.56,2.37,4.92,4.93c1.77,1.94,3.45,3.95,5,6.05.38.51,1.25,0,.86-.51a83.67,83.67,0,0,0-10-11.1A7.28,7.28,0,0,0,72.3,281c-1.09-.3-2.18.35-3.1.87a24.18,24.18,0,0,0-5.28,4.11,66.55,66.55,0,0,0-5,5.83c-.39.5.31,1.21.71.7Z" transform="translate(-11.62 -134.96)"/>
  </g>
  <g>
    <path class="cls-1" d="M254.72,354.29a50.92,50.92,0,0,0,22.34-1.9,47.84,47.84,0,0,0,18.65-10.54,32.42,32.42,0,0,0,6.4-8.58A52.08,52.08,0,0,0,306,322.79,165.9,165.9,0,0,0,309.52,304a201.37,201.37,0,0,0,1.92-21.67c0-1.05.06-2.11.08-3.16a.5.5,0,0,0-1,0,200.59,200.59,0,0,1-1.62,22c-.77,6-1.74,12-3,17.84-1.58,7.06-3.87,14.22-8.67,19.8-4.58,5.33-10.91,9.06-17.43,11.55a50.54,50.54,0,0,1-21.95,3.23c-.94-.07-1.88-.17-2.81-.3-.63-.09-.9.88-.27,1Z" transform="translate(-11.62 -134.96)"/>
    <path class="cls-1" d="M265.88,339.65,253.32,353a.51.51,0,0,0,0,.71L264.81,364c.48.42,1.18-.28.71-.71L254,353v.71l12.56-13.35c.44-.46-.27-1.17-.71-.7Z" transform="translate(-11.62 -134.96)"/>
  </g>
  <g>
    <path class="cls-2" d="M321.86,315.11l-1,10.56.85-.35a9.83,9.83,0,0,0-3.93-3,3.73,3.73,0,1,0-2.47,7,5,5,0,0,0,4.59-.72c.51-.38,0-1.25-.51-.86a4,4,0,0,1-4.09.5,2.93,2.93,0,0,1-1.52-3.17,2.54,2.54,0,0,1,3.16-2c1.7.33,2.93,1.66,4.06,2.88a.51.51,0,0,0,.86-.36l1-10.56c.06-.64-.94-.64-1,0Z" transform="translate(-11.62 -134.96)"/>
    <path class="cls-2" d="M330.87,318.52a248.76,248.76,0,0,1-15.45,22.4c-.39.5.31,1.21.71.7A249.7,249.7,0,0,0,331.73,319a.5.5,0,0,0-.86-.51Z" transform="translate(-11.62 -134.96)"/>
    <path class="cls-2" d="M328.75,331.29l-1,6.35.92-.12a4,4,0,0,0-3.53-1.62,3.92,3.92,0,0,0-3.1,2.16,2.37,2.37,0,0,0-.22,1.94,1.69,1.69,0,0,0,1.42.9,5.39,5.39,0,0,0,1.95-.24,14.49,14.49,0,0,0,2.47-.87c.58-.26.08-1.12-.51-.86a10.36,10.36,0,0,1-3.35,1c-.3,0-.8,0-1-.24s.05-1,.24-1.34a2.89,2.89,0,0,1,4.78-.32c.23.3.84.36.92-.12l1-6.35c.1-.63-.86-.9-1-.26Z" transform="translate(-11.62 -134.96)"/>
    <path class="cls-2" d="M331.21,333.47a36.76,36.76,0,0,0,7.14,6.56c.53.37,1-.5.5-.87a35.92,35.92,0,0,1-6.93-6.39c-.42-.5-1.12.21-.71.7Z" transform="translate(-11.62 -134.96)"/>
    <path class="cls-2" d="M337.41,331.09a65.57,65.57,0,0,0-7.82,11.56c-.3.57.56,1.08.86.51a64.59,64.59,0,0,1,7.67-11.37c.41-.49-.29-1.2-.71-.7Z" transform="translate(-11.62 -134.96)"/>
  </g>
  <g>
    <path class="cls-2" d="M52.7,313.32a63.59,63.59,0,0,0-.31,9.66l.93-.25c-.81-1.38-1.76-2.89-3.31-3.51a4.16,4.16,0,0,0-4.33,1,4.6,4.6,0,0,0-1.47,4.47c.49,1.63,2.19,2.23,3.75,2.17a8.65,8.65,0,0,0,5.54-2.4c.47-.45-.24-1.15-.7-.71a7.6,7.6,0,0,1-4.93,2.11,3.08,3.08,0,0,1-2.23-.67,2.42,2.42,0,0,1-.39-2.52A3.75,3.75,0,0,1,49,320c1.71.2,2.72,1.92,3.5,3.26a.51.51,0,0,0,.94-.25,63.59,63.59,0,0,1,.31-9.66c.07-.64-.93-.63-1,0Z" transform="translate(-11.62 -134.96)"/>
    <path class="cls-2" d="M60.8,314.27q-4.3,10.47-8.39,21c-.23.6.73.86,1,.26q4.08-10.56,8.4-21c.24-.6-.72-.86-1-.27Z" transform="translate(-11.62 -134.96)"/>
    <path class="cls-2" d="M63.35,326.8a15.35,15.35,0,0,1-.89,5.89l.84-.23-1.75-1.69c-.48-.45-1-1.17-1.67-1.37-1.27-.37-2,1.53-2.1,2.48a4,4,0,0,0,3.84,4.65A4.2,4.2,0,0,0,65,335c.39-.5-.31-1.22-.71-.71a3.13,3.13,0,0,1-5.31-.58,3.28,3.28,0,0,1,.3-3.07c.07-.1.19-.31.33-.29s.23.16.29.21c.32.29.63.6.94.9l1.75,1.69a.51.51,0,0,0,.84-.22,16.28,16.28,0,0,0,.92-6.15c0-.64-1-.65-1,0Z" transform="translate(-11.62 -134.96)"/>
    <path class="cls-2" d="M67.61,328.16l4.45,7.91a.5.5,0,0,0,.87-.5l-4.46-7.91a.5.5,0,0,0-.86.5Z" transform="translate(-11.62 -134.96)"/>
    <path class="cls-2" d="M71.62,326.59a36,36,0,0,0-4.69,9.9.5.5,0,0,0,1,.27,34.77,34.77,0,0,1,4.59-9.67c.36-.53-.5-1-.87-.5Z" transform="translate(-11.62 -134.96)"/>
  </g>
</svg>
