<svg id="Layer_1" data-name="Layer 1" xmlns="http://www.w3.org/2000/svg" viewBox="0 0 230.3 191.85"><defs><style>.cls-1{fill:#00aeef;}.cls-2{fill:#a7a9ac;}.cls-3{fill:#231f20;}.cls-4{fill:#ed1c24;}</style></defs><title>x-squared-integral-2</title><path class="cls-1" d="M131.94,146.87a39.16,39.16,0,0,0,8.84,11.93c.48.44,1.19-.27.71-.71a38.26,38.26,0,0,1-8.69-11.72c-.28-.58-1.14-.07-.86.5Z" transform="translate(-26.72 -5.63)"/><path class="cls-1" d="M137.4,138.89a69.41,69.41,0,0,1,8.94,8.71q2,2.39,3.85,5a33.88,33.88,0,0,0,3.52,4.57c.57.58,1.49,1.61,2.35,1.7s1.39-.85.74-1.42c-.48-.43-1.19.28-.7.71a.37.37,0,0,0-.24-.45l-.39-.29-.62-.53a13.72,13.72,0,0,1-1.12-1.17,27.48,27.48,0,0,1-1.91-2.53c-1.28-1.81-2.58-3.6-4-5.32a69.12,69.12,0,0,0-9.72-9.63c-.5-.41-1.21.3-.71.7Z" transform="translate(-26.72 -5.63)"/><path class="cls-1" d="M150.75,131.15q9,10.59,18.64,20.54c1.83,1.89,3.68,3.75,5.55,5.6a.5.5,0,0,0,.71-.71q-9.85-9.75-19-20.16-2.61-3-5.16-6c-.42-.49-1.12.22-.71.71Z" transform="translate(-26.72 -5.63)"/><path class="cls-1" d="M162.48,121,177,133.07c.49.41,1.2-.29.7-.7l-14.49-12.12c-.49-.41-1.2.3-.71.71Z" transform="translate(-26.72 -5.63)"/><path class="cls-1" d="M171.15,113.78l6.42,6c.47.44,1.18-.26.71-.7l-6.42-6c-.47-.44-1.18.27-.71.71Z" transform="translate(-26.72 -5.63)"/><path class="cls-1" d="M158.78,126.15l18.32,17c.47.44,1.18-.27.7-.71l-18.31-17c-.47-.43-1.18.27-.71.71Z" transform="translate(-26.72 -5.63)"/><path class="cls-1" d="M179.38,108.51l-.47,7.13c0,.64,1,.64,1,0l.47-7.13c0-.64-1-.64-1,0Z" transform="translate(-26.72 -5.63)"/><path class="cls-1" d="M179,121.39a15.85,15.85,0,0,1,.25,5.14.51.51,0,0,0,.5.5.51.51,0,0,0,.5-.5,16.67,16.67,0,0,0-.29-5.41c-.13-.63-1.1-.36-1,.27Z" transform="translate(-26.72 -5.63)"/><path class="cls-1" d="M179.3,132.16v5.63a.5.5,0,0,0,1,0v-5.63a.5.5,0,0,0-1,0Z" transform="translate(-26.72 -5.63)"/><path class="cls-1" d="M178.89,144.93a14.1,14.1,0,0,1-.23,4.76c-.15.63.82.9,1,.27a14.93,14.93,0,0,0,.27-5,.51.51,0,0,0-.5-.5.51.51,0,0,0-.5.5Z" transform="translate(-26.72 -5.63)"/><path class="cls-1" d="M178.92,155.06v3.76a.5.5,0,0,0,1,0v-3.76a.5.5,0,0,0-1,0Z" transform="translate(-26.72 -5.63)"/><path class="cls-2" d="M243.06,174.38q5.9-5.19,11.44-10.78l1.34-1.36a4,4,0,0,0,1.11-1.46c.35-1.2-.7-1.94-1.57-2.52a32.74,32.74,0,0,0-5.25-2.49,11.51,11.51,0,0,1-5.11-3.5l-.36,1.37a.47.47,0,0,1,.68.07c.9.92,2.32-.49,1.41-1.41a2.46,2.46,0,0,0-3.1-.39,1,1,0,0,0-.35,1.37c2.27,3.15,5.89,4.08,9.22,5.68a13.79,13.79,0,0,1,2.35,1.38,1.35,1.35,0,0,0,.19.16l.05.05-.06-.37c-.08,0-.57.58-.62.64l-1.35,1.37c-1.73,1.75-3.5,3.47-5.29,5.17q-3,2.85-6.15,5.61c-1,.85.45,2.26,1.42,1.41Z" transform="translate(-26.72 -5.63)"/><path class="cls-2" d="M39.27,147.09a50.85,50.85,0,0,0-10,5.89,12,12,0,0,0-2.17,1.78,1.87,1.87,0,0,0,.2,2.52c1.36,1.57,2.91,3,4.39,4.48,1.67,1.65,3.38,3.27,5.11,4.85.94.87,2.36-.54,1.41-1.41-1.76-1.61-3.49-3.26-5.19-4.93l-2.53-2.55-1.25-1.3c-.1-.1-.39-.54-.53-.56s-.1-.1-.09.18l.26-.24a46.52,46.52,0,0,1,11.38-7,1,1,0,0,0,.36-1.36,1,1,0,0,0-1.37-.36Z" transform="translate(-26.72 -5.63)"/><path class="cls-2" d="M27.58,157.39c13.93,3.8,28.45,3.77,42.78,3.62l45-.46,45-.47c14.93-.15,29.87-.38,44.8-.24a497.56,497.56,0,0,1,50.47,2.67,1,1,0,0,0,1-.73,2.76,2.76,0,0,0-2.62-3.42c-1.29,0-1.29,2,0,2a.71.71,0,0,1,.69.88l1-.73c-29.67-3.3-59.56-2.79-89.35-2.49L76.25,159c-16.08.16-32.48.79-48.14-3.49a1,1,0,0,0-.53,1.93Z" transform="translate(-26.72 -5.63)"/><path class="cls-2" d="M70,40.56A108.9,108.9,0,0,1,75.9,26.25c.57-1.13,1.15-2.25,1.76-3.36.28-.5.55-1,.84-1.5a4,4,0,0,1,.27-.4l-.29,0,0,.06a2.9,2.9,0,0,0,.25.36c1.46,2.31,2.84,4.67,4.25,7l4.9,8.08a1,1,0,0,0,1.72,0l1-2.17A1,1,0,0,0,90.27,33a1,1,0,0,0-1.36.36l-1,2.16h1.72l-4.76-7.87L82.5,23.71c-.75-1.23-1.43-2.57-2.29-3.73a1.84,1.84,0,0,0-3-.24,10.07,10.07,0,0,0-1,1.64c-.35.63-.7,1.27-1,1.92-1.31,2.48-2.52,5-3.63,7.59q-2,4.5-3.5,9.14c-.41,1.22,1.52,1.75,1.93.53Z" transform="translate(-26.72 -5.63)"/><path class="cls-2" d="M71.38,183.76a61.64,61.64,0,0,0,5.81,10.83A17.09,17.09,0,0,0,78.93,197a1.65,1.65,0,0,0,2.52-.16c1.38-1.59,2.57-3.41,3.8-5.13q2.16-3,4.2-6.11c.71-1.07-1-2.08-1.73-1q-2,3.09-4.2,6.11c-.69,1-1.39,1.93-2.1,2.89l-1,1.33c0,.07-.52.56-.5.64.41.12.53.11.35,0l-.26-.36a59.55,59.55,0,0,1-6.71-11.9,1,1,0,0,0-1.23-.7,1,1,0,0,0-.69,1.23Z" transform="translate(-26.72 -5.63)"/><path class="cls-2" d="M77.38,20.54q-.54,34.1-.44,68.19.11,33.92.84,67.84.42,19.13,1,38.26c0,1.28,2,1.29,2,0q-1.09-34.08-1.55-68.18Q78.8,92.74,79,58.81q.09-19.14.4-38.27a1,1,0,0,0-2,0Z" transform="translate(-26.72 -5.63)"/><path class="cls-3" d="M189.85,10c-1,2.63-1.66,6.59,1.42,8.13,3.39,1.7,6.75-1,8.88-3.45a23.9,23.9,0,0,0,3.51-5.28l-.92-.12c.4,2.24-.58,4.47-1.33,6.53s-1.53,4.1-2.33,6.14q-2.47,6.27-5.28,12.4c-.26.58.6,1.09.87.51q2.9-6.38,5.46-12.87,1.29-3.28,2.49-6.6c.75-2.06,1.49-4.16,1.09-6.38a.51.51,0,0,0-.92-.12,22.48,22.48,0,0,1-3.49,5.24c-1.31,1.45-2.87,3-4.84,3.4a3.5,3.5,0,0,1-4.28-2.16c-.52-1.67,0-3.53.63-5.11.23-.6-.74-.86-1-.26Z" transform="translate(-26.72 -5.63)"/><path class="cls-3" d="M206.08,19.72l8.63-.87c.63-.06.64-1.06,0-1l-8.63.87c-.63.06-.64,1.06,0,1Z" transform="translate(-26.72 -5.63)"/><path class="cls-3" d="M204.31,25.56l10.17-2.12c.63-.13.36-1.09-.27-1L204.05,24.6c-.63.13-.36,1.09.26,1Z" transform="translate(-26.72 -5.63)"/><path class="cls-3" d="M221.78,15.84q5.47,5.93,11.06,11.75c.27.28.91.09.85-.36l-.25-2.08c-.08-.63-1.08-.63-1,0l.25,2.08.86-.35q-5.6-5.82-11.06-11.75c-.44-.47-1.14.24-.71.71Z" transform="translate(-26.72 -5.63)"/><path class="cls-3" d="M231.12,14a119.06,119.06,0,0,0-10,15.88.5.5,0,0,0,.56.73l1.38-.43c.61-.19.35-1.15-.27-1l-1.37.43.56.74A120.85,120.85,0,0,1,232,14.49c.38-.52-.48-1-.86-.5Z" transform="translate(-26.72 -5.63)"/><path class="cls-3" d="M236.29,6.64a3.2,3.2,0,0,1,2.81,1.08,2.93,2.93,0,0,1,.51,2.94,3.22,3.22,0,0,1-2.22,2A7,7,0,0,0,234.31,14a.5.5,0,0,0,.36.85q3.2.27,6.39.61c.64.07.64-.93,0-1q-3.19-.35-6.39-.61l.35.85c1-.94,2.5-.88,3.65-1.49a4.15,4.15,0,0,0,2.08-3A4.09,4.09,0,0,0,236,5.68c-.63.1-.37,1.06.27,1Z" transform="translate(-26.72 -5.63)"/><path class="cls-4" d="M79.51,160.22a196.85,196.85,0,0,0,36.67-11.37A199.37,199.37,0,0,0,150,130.65a192.07,192.07,0,0,0,29.41-24.11,148.81,148.81,0,0,0,22.86-29.2,106.7,106.7,0,0,0,13.2-34.11c.29-1.51.54-3,.75-4.54a1,1,0,0,0-.7-1.23,1,1,0,0,0-1.23.7,101.91,101.91,0,0,1-11.58,34.35A141.36,141.36,0,0,1,181,102.11a187.21,187.21,0,0,1-28.36,24.37,199.29,199.29,0,0,1-33.1,18.77A195.39,195.39,0,0,1,83.55,157.3c-1.52.35-3,.68-4.57,1-1.26.26-.72,2.19.53,1.93Z" transform="translate(-26.72 -5.63)"/><path class="cls-4" d="M207.28,47.41l4-4.42,2-2.21,1-1.1c.14-.16.6-.82.85-.84-.06,0,0,0,.07.08a1,1,0,0,1,.24.35c.2.37.36.77.52,1.15.37.87.71,1.75,1,2.63.66,1.82,1.22,3.68,1.7,5.56.26,1,1.58.84,1.93,0l.37-.93a1,1,0,0,0-.7-1.23,1,1,0,0,0-1.23.7l-.37.93h1.93a60.52,60.52,0,0,0-2-6.34c-.4-1-.81-2.08-1.28-3.09a2.78,2.78,0,0,0-1.93-1.78,2.83,2.83,0,0,0-2.48,1.3l-2.35,2.58L205.87,46c-.87,1,.54,2.37,1.41,1.41Z" transform="translate(-26.72 -5.63)"/><path class="cls-4" d="M80,158a58.15,58.15,0,0,1-20.86-3.93,59.89,59.89,0,0,1-18.06-10.92,57,57,0,0,1-8.15-8.85,1,1,0,0,0-1.37-.36,1,1,0,0,0-.35,1.37l1,1.54c.7,1.07,2.43.07,1.72-1l-1-1.54-1.72,1a60.34,60.34,0,0,0,16.09,15,61.92,61.92,0,0,0,20.31,8.37A59.33,59.33,0,0,0,80,160a1,1,0,0,0,0-2Z" transform="translate(-26.72 -5.63)"/><path class="cls-4" d="M34,142.69a46.49,46.49,0,0,1-1.42-8.77l-1.5.86a20.17,20.17,0,0,0,7.56,2.36,1,1,0,0,0,1-1,1,1,0,0,0-1-1,17.59,17.59,0,0,1-6.55-2.09,1,1,0,0,0-1.51.87,50.36,50.36,0,0,0,1.49,9.3,1,1,0,0,0,1.93-.53Z" transform="translate(-26.72 -5.63)"/><path class="cls-3" d="M131.28,154l0,10.78,1-.14-.36-1.4a.5.5,0,0,0-1,.27l.35,1.4a.51.51,0,0,0,1-.13l0-10.78a.5.5,0,0,0-1,0Z" transform="translate(-26.72 -5.63)"/><path class="cls-3" d="M131.66,141.27a3.58,3.58,0,0,0-.38,2.66.5.5,0,1,0,1-.27,1.45,1.45,0,0,1-.06-.3h0a.81.81,0,0,1,0-.16,1.13,1.13,0,0,1,0-.26.76.76,0,0,1,0-.15v-.08c0,.07,0,.08,0,0a3.16,3.16,0,0,1,.13-.53.58.58,0,0,1,.05-.14c0-.1,0,.08,0,0l.14-.27a.5.5,0,0,0-.86-.51Z" transform="translate(-26.72 -5.63)"/><path class="cls-3" d="M131.25,147.18v1.87a.5.5,0,0,0,.5.5.51.51,0,0,0,.5-.5v-1.87a.51.51,0,0,0-.5-.5.5.5,0,0,0-.5.5Z" transform="translate(-26.72 -5.63)"/><path class="cls-3" d="M131.25,150.93v1.88a.5.5,0,0,0,1,0v-1.88a.51.51,0,0,0-.5-.5.5.5,0,0,0-.5.5Z" transform="translate(-26.72 -5.63)"/><path class="cls-3" d="M136.61,167.59l-5-.28c-1.29-.08-3.23-.51-3.67,1.16a8.92,8.92,0,0,0-.08,2.19v4.9a2.76,2.76,0,0,0,.45,2.07,2.44,2.44,0,0,0,1.76.49c.81,0,1.62,0,2.43,0a7.72,7.72,0,0,1,3.83.95,3.14,3.14,0,0,1,1.64,2.64,3.65,3.65,0,0,1-2.08,2.79,13.14,13.14,0,0,1-4.66,1.28,22,22,0,0,1-2.57.16c-.43,0-.86,0-1.29,0-.27,0-.86,0-1.06-.11l.46.6-.05-.12v.53l0-.07-.46.59.06,0-.5.13h-.11l-.44-.26,0,0-.16-1.21,0,.06c-.58,1.14,1.15,2.16,1.73,1l0-.06a1,1,0,0,0-.16-1.21c-.77-1-2.28,0-1.9,1.14s2.24,1,3.23,1a20.92,20.92,0,0,0,7.41-1.09c2.1-.76,4.09-2.28,4.43-4.63a5.1,5.1,0,0,0-2.81-5,9,9,0,0,0-3.68-1c-.69-.06-1.38-.07-2.07-.08h-1.05c-.22,0-.6.07-.78-.06l.36.36a6.84,6.84,0,0,1,0-1.59v-4.66a3.22,3.22,0,0,0,0-1q.08-.39-.21,0a.78.78,0,0,0,.22,0,3.27,3.27,0,0,0,1,0l1.74.1,4,.23c1.28.07,1.28-1.93,0-2Z" transform="translate(-26.72 -5.63)"/><path class="cls-3" d="M179,154.69q-.18,6,.19,11.9c0,.46.69.72.93.25l.52-1c.3-.57-.57-1.08-.86-.5l-.52,1,.93.25q-.37-5.94-.19-11.9a.5.5,0,0,0-1,0Z" transform="translate(-26.72 -5.63)"/><path class="cls-3" d="M173.39,169.84l.7,16.83a1,1,0,0,0,2,.27c1.23-3,3-7.21,6.88-7.28a3.19,3.19,0,0,1,3.13,2.16c.48,1.49-.66,2.56-1.94,3.11a18.48,18.48,0,0,1-6.76,1.14,1,1,0,0,0,0,2,20.56,20.56,0,0,0,7.61-1.34c1.9-.82,3.45-2.5,3.17-4.7a5.15,5.15,0,0,0-3.66-4.18,7,7,0,0,0-6.26,1.75c-2.05,1.76-3.1,4.37-4.09,6.8l2,.27-.7-16.83c0-1.29-2-1.29-2,0Z" transform="translate(-26.72 -5.63)"/></svg>