<svg xmlns="http://www.w3.org/2000/svg" viewBox="0 0 211.53 183.13">
  <defs>
    <style>
      .cls-1 {
        fill: #939598;
      }

      .cls-2 {
        fill: #ed1c24;
      }

      .cls-3 {
        fill: #231f20;
      }

      .cls-4 {
        fill: #808285;
      }
    </style>
  </defs>
  <title>Asset 2</title>
  <g id="Layer_2" data-name="Layer 2">
    <g id="Layer_1-2" data-name="Layer 1">
      <g>
        <g>
          <path class="cls-1" d="M32.81,37.05c2.6-5.38,5.18-10.78,7.81-16.15.38-.76.86-1.89,1.84-2s1.8.91,2.3,1.61c.77,1.08,1.4,2.29,2.06,3.44s1.36,2.46,2,3.71Q51,32,52.76,36.38a1,1,0,0,0,1.67.44l1-1.18c.85-1-.56-2.38-1.41-1.41L53,35.41l1.67.44Q53,31.5,50.86,27.31c-.68-1.36-1.4-2.7-2.14-4a41.7,41.7,0,0,0-2.24-3.75,6.11,6.11,0,0,0-2.92-2.44,3.37,3.37,0,0,0-3.49,1,14,14,0,0,0-2,3.52L36,25.94,31.08,36c-.56,1.15,1.17,2.17,1.73,1Z"/>
          <path class="cls-1" d="M42.5,19.11l1.2,63.24q.6,31.46,1.19,62.9l.67,35.47a1,1,0,0,0,2,0q-.6-31.6-1.19-63.2L45.17,54.6,44.5,19.11a1,1,0,0,0-2,0Z"/>
          <path class="cls-1" d="M36.56,170.27l9.93,12.55c.49.62,1.47.21,1.67-.44A20.63,20.63,0,0,1,52,175.21c1.62-2,4.35-3.71,3.94-6.58a1,1,0,0,0-1.23-.7,1,1,0,0,0-.69,1.23c.14,1-1,2-1.61,2.67a28.7,28.7,0,0,0-2.63,3,22.59,22.59,0,0,0-3.54,7l1.67-.44L38,168.85a1,1,0,0,0-1.41,0,1,1,0,0,0,0,1.42Z"/>
        </g>
        <g>
          <path class="cls-1" d="M9.74,121.73l-7.9,11c-1,1.34-2.78,3.47-1.25,5.08A4,4,0,0,0,3,138.7a12.17,12.17,0,0,1,2.5.74,12.28,12.28,0,0,1,4.76,3.65,1,1,0,0,0,1.41,0,1,1,0,0,0,0-1.42,13.93,13.93,0,0,0-8.52-5,2.4,2.4,0,0,1-1-.21c-.16-.13-.09-.3,0-.53a10.45,10.45,0,0,1,1.54-2.31l3.62-5.05,4.2-5.86a1,1,0,0,0-.36-1.37,1,1,0,0,0-1.36.36Z"/>
          <path class="cls-1" d="M168.71,146.37l7-4.39,3.46-2.16a36.4,36.4,0,0,0,3.27-2.11,3.13,3.13,0,0,0,1.28-2.85,8.11,8.11,0,0,0-1.54-3.31,47.65,47.65,0,0,0-4.32-5.77c-.89-1-1.82-2-2.8-2.93-.45-.43-.92-.86-1.39-1.27l-.8-.68c-.22-.18-.54-.36-.65-.62l.13.5v-.18l-.14.5.06-.09-.6.46.09,0h-.53l-.06,0-.36-.36,0,.08v-1l0,.08c-.58,1.15,1.15,2.16,1.73,1a1.17,1.17,0,0,0-2-1.13c-.7,1.29,1.05,2.28,1.84,3a44.09,44.09,0,0,1,5.22,5.45c.81,1,1.58,2.05,2.3,3.13.33.49.65,1,1,1.48a5.56,5.56,0,0,1,.91,1.82c.21,1.09-1.14,1.63-1.89,2.1l-3.77,2.36-8.38,5.25c-1.09.68-.09,2.41,1,1.72Z"/>
          <path class="cls-1" d="M2.78,136.44c23.36-1,46.76-1.08,70.14-1.14,23.21-.05,46.43-.23,69.64-.11,13,.08,26.07.33,39.09,1.08,1.28.08,1.28-1.92,0-2-23.31-1.34-46.68-1.12-70-1.06s-46.47,0-69.7.26c-13.06.14-26.12.41-39.16,1-1.29.06-1.29,2.06,0,2Z"/>
        </g>
      </g>
      <g>
        <g>
          <path class="cls-2" d="M47,133.49c8.11-10.33,15.89-20.9,23.5-31.6s15-21.45,22.44-32.24c3.72-5.43,7.41-11.09,8.87-17.6.14-.63-.82-.89-1-.26-1.31,5.81-4.43,10.94-7.73,15.82-3.56,5.27-7.21,10.48-10.83,15.71C74.89,94,67.41,104.66,59.7,115.13q-6.57,8.93-13.41,17.65c-.39.5.31,1.21.71.71Z"/>
          <path class="cls-2" d="M100.92,55.28q-.49,15.18-.64,30.39t.08,30.27c.08,5.68.21,11.37.36,17.06,0,.64,1,.64,1,0q-.42-15.19-.48-30.39t.23-30.27q.16-8.53.45-17.06a.5.5,0,0,0-1,0Z"/>
          <path class="cls-2" d="M91.76,134.43c-.25-1.59-.48-3.2-.69-4.8-.1-.78-.2-1.57-.29-2.35,0-.4-.1-.79-.14-1.18s-.18-.78.32-1a17.7,17.7,0,0,1,2.29-.53l2.31-.53,4.73-1.1c.63-.15.36-1.11-.27-1l-5.31,1.23-2.77.65c-.65.15-1.61.2-2.07.75s-.25,1.31-.18,1.94c.11.9.22,1.81.34,2.71.23,1.81.49,3.62.76,5.42.1.63,1.06.37,1-.27Z"/>
        </g>
        <path class="cls-2" d="M57.28,120.79c5.31,1.54,6.68,7.65,7.6,12.37.13.63,1.09.36,1-.27-1-5.11-2.61-11.41-8.31-13.07a.5.5,0,0,0-.26,1Z"/>
        <g>
          <path class="cls-2" d="M70.32,114.9c-1.09,2.22-2.25,4.69-1.78,7.23a5,5,0,0,0,3.68,4c2,.4,3.6-1,4.27-2.83a8.64,8.64,0,0,0-.12-6.17,5,5,0,0,0-5.64-3.14.5.5,0,0,0,.27,1A3.94,3.94,0,0,1,75.24,117a7.53,7.53,0,0,1,.51,5.22c-.35,1.42-1.31,3-3,2.9a3.93,3.93,0,0,1-3.23-3.06c-.55-2.29.66-4.69,1.63-6.69.29-.57-.58-1.08-.86-.5Z"/>
          <path class="cls-2" d="M70.67,121.3a5.19,5.19,0,0,1,5-1.93c.63.12.9-.84.27-1a6.24,6.24,0,0,0-6.16,2.38.5.5,0,0,0,.87.51Z"/>
        </g>
        <g>
          <path class="cls-2" d="M107.39,55.89a2.73,2.73,0,0,1,3.73,1,8.83,8.83,0,0,1,1,4.61c.2,3.67.34,7.34.4,11s.08,7.26,0,10.9c0,1.78-.11,3.56-.14,5.34a6.07,6.07,0,0,0,.95,3.84c1.57,2.13,4.59,2.78,5.79,5.23l.15-.37-7.26,1.29a.26.26,0,0,0-.18.31,51.6,51.6,0,0,1,1.3,15.57c-.13,2.61-.38,5.21-.67,7.8-.14,1.26-.29,2.51-.44,3.77a21.68,21.68,0,0,1-.62,3.57,4.47,4.47,0,0,1-2.11,2.81,2.69,2.69,0,0,1-3.2-.32c-.23-.23-.58.12-.36.36,1.31,1.36,3.55.92,4.79-.31,1.69-1.67,1.79-4.38,2.06-6.58a108,108,0,0,0,1.1-17.23,45.44,45.44,0,0,0-1.36-9.57l-.18.31,7.26-1.3a.25.25,0,0,0,.15-.37c-1.12-2.29-3.76-3-5.43-4.8-1.17-1.24-1.27-2.82-1.23-4.43.06-1.89.11-3.78.14-5.67q.08-5.82-.06-11.64c-.08-3.69-.1-7.45-.48-11.12a5.79,5.79,0,0,0-1.77-4.13,3,3,0,0,0-3.64-.32c-.26.19,0,.63.26.44Z"/>
          <path class="cls-2" d="M121.46,88.36a10.9,10.9,0,0,1,4.27,1,4.3,4.3,0,0,1,2.52,2.49,3.19,3.19,0,0,1-1.6,3.35,9.64,9.64,0,0,1-4.07,1.15c-.23,0-.22.36-.06.46,1.32.84,3,1.12,4.19,2.08a4.36,4.36,0,0,1-1.33,7.63c-1.92.61-4-.15-5.72-.9-.3-.13-.55.3-.26.43,1.89.81,4.06,1.6,6.11,1a4.86,4.86,0,0,0,2.21-7.84c-1.28-1.51-3.35-1.76-5-2.78l-.06.46a9.28,9.28,0,0,0,4.56-1.46,3.63,3.63,0,0,0,1.5-3.49c-.62-3-4.8-3.93-7.31-4-.32,0-.32.48,0,.5Z"/>
          <path class="cls-2" d="M132,101.76l2.87-1.25c.39-.17,1.17-.71,1.36-.08a3.5,3.5,0,0,1,0,1.25,15.6,15.6,0,0,0,.74,5.68.25.25,0,0,0,.48,0c1.47-4.28,1.26-8.85,1.75-13.29a21.25,21.25,0,0,1,.58-3.45c.22-.75,1.14-.56,1.76-.56h1.85l7.51,0-.24-.31-1.64,7c-.07.32.41.45.48.14l1.64-7a.25.25,0,0,0-.24-.32l-6.28,0h-3.08c-.61,0-1.57-.19-2,.38a5.35,5.35,0,0,0-.59,2.28c-.15.91-.26,1.83-.34,2.75-.17,1.91-.24,3.83-.4,5.74a27.23,27.23,0,0,1-1.24,6.52h.48a15.45,15.45,0,0,1-.72-3.81,16.31,16.31,0,0,1,0-1.85,3.87,3.87,0,0,0,0-1.27c-.2-.74-.81-.76-1.43-.52-1.19.48-2.36,1-3.53,1.55-.3.13,0,.56.25.43Z"/>
          <path class="cls-2" d="M140.9,92.93a3,3,0,0,1,4.38,1.28c.75,2.05-1.64,4.08-3.58,3.45l-.13.48c1.77.41,4.59,1.21,4.59,3.49a2.51,2.51,0,0,1-2.06,2.45c-1.06.2-2.18,0-3.12.63-.27.18,0,.62.25.44,1.15-.78,2.67-.24,3.88-.9a3,3,0,0,0,1.55-2.79c-.16-2.44-3-3.34-5-3.8a.25.25,0,0,0-.13.48c2.3.75,5-1.66,4.19-4.06a3.46,3.46,0,0,0-5.21-1.51c-.25.2.1.56.35.36Z"/>
        </g>
        <g>
          <path class="cls-2" d="M48.62,138.05a2.66,2.66,0,0,0-1,2.88,3.89,3.89,0,0,0,2.43,2.68,17.78,17.78,0,0,0,5.07.91c2,.22,4.11.42,6.18.53a50.27,50.27,0,0,0,7.05,0l-.24-.18a12.28,12.28,0,0,0,3.24,6.72.26.26,0,0,0,.42-.11l2.11-6.65-.24.19,15.61-.5,3.87-.13a8,8,0,0,0,3-.28c.83-.4.9-1.35,1-2.16a21.62,21.62,0,0,0,.08-3.94c0-.32-.52-.32-.5,0a22.08,22.08,0,0,1,0,3.45,4.77,4.77,0,0,1-.31,1.76c-.29.56-.94.59-1.49.61-2.37.11-4.75.16-7.12.23l-14.11.46a.24.24,0,0,0-.24.18l-2.11,6.64.41-.11a11.8,11.8,0,0,1-3.11-6.5.24.24,0,0,0-.24-.18A72.36,72.36,0,0,1,54.89,144c-1.85-.2-4-.23-5.58-1.38-1.22-.89-1.91-3.13-.43-4.13.26-.18,0-.62-.26-.43Z"/>
          <path class="cls-2" d="M66.57,154a11.08,11.08,0,0,1,5.2,2c.8.58,1.44,1.43.61,2.32s-1.92.7-2.89.65c-.29,0-.32.4-.07.49,1.61.56,4,1.51,3.8,3.63s-3.07,2.09-4.65,1.93c-.32,0-.32.46,0,.5a6.66,6.66,0,0,0,3.46-.26,2.67,2.67,0,0,0,1.68-2.1c.26-2.41-2.3-3.54-4.15-4.18l-.07.49a4,4,0,0,0,3.18-.74,1.74,1.74,0,0,0,.23-2.39,7.51,7.51,0,0,0-2.77-1.87,11.91,11.91,0,0,0-3.56-1c-.32,0-.32.46,0,.5Z"/>
        </g>
        <path class="cls-2" d="M61.07,83.38a48.63,48.63,0,0,0,1.22,13.28c.12.54,1,.44,1-.13a23.59,23.59,0,0,1,1-9.07c.38-1.24.82-2.78,2.38-2.82s2.53,1.07,3.47,2c.46.45,1.17-.26.71-.71A6.54,6.54,0,0,0,67,83.66a3.07,3.07,0,0,0-3.2,2.11,23.1,23.1,0,0,0-1.51,10.76l1-.13a47.9,47.9,0,0,1-1.18-13c0-.64-1-.64-1,0Z"/>
      </g>
      <g>
        <g>
          <path class="cls-3" d="M13.55,42.83a9.91,9.91,0,0,1,3.43.23,3.17,3.17,0,0,1,1.43.58,1.1,1.1,0,0,1,0,1.43,7.72,7.72,0,0,1-2,2.08,13.47,13.47,0,0,1-2.7,1.63c-.38.17-.27.66,0,.86a6.42,6.42,0,0,0,2.94.85,2.67,2.67,0,0,1,1.51.64,1.86,1.86,0,0,1,.38,1.73,4.59,4.59,0,0,1-2.63,2.66,7.54,7.54,0,0,1-4,.72l.48.37.05,0c.46-.44-.24-1.15-.71-.71a1,1,0,0,0-.3,1,.51.51,0,0,0,.48.37,8.51,8.51,0,0,0,4.62-.9,5.45,5.45,0,0,0,3-3.22A2.75,2.75,0,0,0,18,49.86c-1.22-.56-2.73-.26-3.84-1.08v.86a14.32,14.32,0,0,0,3.31-2.11,5.51,5.51,0,0,0,2.16-3c.21-1.22-.71-1.94-1.76-2.29a10.64,10.64,0,0,0-4.34-.45c-.63.06-.64,1.06,0,1Z"/>
          <path class="cls-3" d="M22.06,53c1.05-.67,1.5,1.12,1.62,1.77a4,4,0,0,0,1,2.36.51.51,0,0,0,.85-.36l.64-7.8c.11-1.28.18-2.56.32-3.83a1.64,1.64,0,0,1,.64-1.39,2.79,2.79,0,0,1,1.49-.1,14.78,14.78,0,0,0,3.39,0,22.6,22.6,0,0,0,3.46-.92c.33-.1.64-.18.82.18a1.72,1.72,0,0,1,.08.68c0,.64,0,1.29,0,1.94-.05,1.28-.16,2.57-.3,3.85-.07.64.93.64,1,0,.14-1.2.23-2.4.29-3.61a10.74,10.74,0,0,0,0-3.05,1.41,1.41,0,0,0-1.69-1,11.46,11.46,0,0,0-1.4.46,13.5,13.5,0,0,1-1.77.45,12.5,12.5,0,0,1-3.4.14A3.94,3.94,0,0,0,26.5,43a2.72,2.72,0,0,0-1,2.16c-.11,1.15-.19,2.31-.29,3.46l-.67,8.17.85-.35c-1-.92-.61-2.5-1.32-3.58a1.86,1.86,0,0,0-2.52-.7c-.54.34,0,1.21.5.86Z"/>
          <path class="cls-3" d="M29.61,45.9c1,0,3.37.23,2.61,1.81a5,5,0,0,1-2.88,2.16.51.51,0,0,0-.22.84,5,5,0,0,0,2.28,1.14c.83.25,2,.61,1.67,1.74s-1.62,1.76-2.64,2.15A29.58,29.58,0,0,0,27.27,57l.61.78.4-.47c.42-.48-.29-1.19-.71-.7l-.4.47a.5.5,0,0,0,.61.78c2-1.06,5.73-1.39,6.3-4.16a2.15,2.15,0,0,0-1.4-2.43c-.93-.42-2.12-.48-2.85-1.25l-.22.83c1.45-.48,3.53-1.69,3.73-3.39a2.13,2.13,0,0,0-1-1.94,4.62,4.62,0,0,0-2.78-.6.5.5,0,0,0,0,1Z"/>
        </g>
        <path class="cls-3" d="M40.05,49.24a52.08,52.08,0,0,0,7.6,1.68c1,.14,2.3.5,3.29.1a1.46,1.46,0,0,0,.78-2.1c-.36-.53-1.23,0-.87.5s-.26.7-.61.75a5.2,5.2,0,0,1-1.3-.08C48,50,47,49.83,46,49.65a52.54,52.54,0,0,1-5.7-1.37.5.5,0,0,0-.27,1Z"/>
      </g>
      <g>
        <path class="cls-3" d="M101.42,128.39a23.62,23.62,0,0,0-.77,12.31c.13.63,1.09.36,1-.26a22.47,22.47,0,0,1,.78-11.78c.21-.61-.76-.88-1-.27Z"/>
        <path class="cls-3" d="M98.08,144.4l4.23,1.09c.67.18,1.37.3,2,.53s.77.89.4,1.52a10.36,10.36,0,0,1-2.62,2.62,19.08,19.08,0,0,1-3.44,2.15.51.51,0,0,0,0,.86,7.15,7.15,0,0,0,3.76,1c.88,0,3.81-.21,3.6,1.26s-2,2.27-3.11,2.79a11.38,11.38,0,0,1-4.5,1.1.5.5,0,0,0,0,1,12.6,12.6,0,0,0,5.1-1.28c1.36-.67,3.14-1.71,3.48-3.33s-1.31-2.32-2.67-2.45c-1.73-.16-3.63.11-5.15-.91v.86a19.88,19.88,0,0,0,4-2.58c1-.86,2.43-2,2.79-3.33a1.73,1.73,0,0,0-.33-1.6,3.56,3.56,0,0,0-1.85-.83l-5.41-1.39a.5.5,0,0,0-.26,1Z"/>
      </g>
      <g>
        <g>
          <path class="cls-3" d="M111.54,31.56a8.49,8.49,0,0,1,4.44.55,3,3,0,0,1,1.76,3c-.25,1.31-1.49,2.4-2.46,3.23a13.73,13.73,0,0,1-1.81,1.32c-.58.37-1.24.63-1.79,1-1,.68-1.1,1.73-.05,2.39a10.53,10.53,0,0,0,3.8,1.18,8.07,8.07,0,0,1,3.5,1.26,2.67,2.67,0,0,1,.94,3.25,5.09,5.09,0,0,1-3.48,2.7c-1,.29-3,1-3.64-.19-.31-.57-1.17-.06-.86.5a2.76,2.76,0,0,0,3,1.06,9.55,9.55,0,0,0,4.16-1.54,4.74,4.74,0,0,0,2-3.4,3.65,3.65,0,0,0-1.59-3.19,8.81,8.81,0,0,0-3.81-1.41,19.85,19.85,0,0,1-2.26-.5,4.21,4.21,0,0,1-1.21-.53c-.13-.1-.35-.16-.35-.38s.49-.45.63-.54a21.05,21.05,0,0,0,4-2.73A6.19,6.19,0,0,0,118.76,35a3.94,3.94,0,0,0-2-3.57c-1.54-1-3.5-1-5.26-.87-.64,0-.64,1,0,1Z"/>
          <path class="cls-3" d="M127,41.93a26.07,26.07,0,0,1,10.63,0c.63.13.9-.83.27-1a27.42,27.42,0,0,0-11.16,0c-.63.13-.37,1.1.26,1Z"/>
          <path class="cls-3" d="M132.26,32.87l-1.71,9.93c-.24,1.44-1.4,5.52,1.21,5.63a.5.5,0,0,0,0-1c-.79,0-.72-1.42-.65-2,.17-1.38.47-2.75.7-4.12l1.42-8.21c.11-.63-.86-.9-1-.27Z"/>
          <path class="cls-3" d="M146.46,28.75c2.44.24,6.52.86,6.56,4.12,0,3-3.28,4.57-5.51,5.84-.77.43-2.47,1.16-1.92,2.33.24.51.82.71,1.3.93l2.22,1a28.92,28.92,0,0,1,4,1.9,2.34,2.34,0,0,1,.51,3.54,6.43,6.43,0,0,1-7.55,2c-.6-.24-.86.73-.27,1a7.56,7.56,0,0,0,7.46-1.16,4.88,4.88,0,0,0,2-3.58,3.47,3.47,0,0,0-2.1-2.94c-1.55-.84-3.23-1.5-4.83-2.23L147.17,41a2.53,2.53,0,0,1-.52-.26c-.23-.23-.16-.13,0-.32a3.88,3.88,0,0,1,1-.64c.37-.22.76-.43,1.13-.64,2.41-1.34,5.44-3.3,5.24-6.47a4.69,4.69,0,0,0-2.31-3.58,11.59,11.59,0,0,0-5.24-1.35c-.64-.07-.64.93,0,1Z"/>
          <path class="cls-3" d="M158.74,45.15c.44-.65,1.37-.32,1.81.14a5.69,5.69,0,0,1,1.11,2.4,15.45,15.45,0,0,1,.49,2.7c0,.46,0,.92,0,1.38s0,.61.41.76c1.56.6,1.71-2.67,1.82-3.46a52.75,52.75,0,0,0,.44-5.62c.13-3.84,0-7.71.49-11.53a5.12,5.12,0,0,1,.51-1.91c.54-.94,1.48-.75,2.41-.62l5.76.85a16.57,16.57,0,0,1,2.61.45,1.72,1.72,0,0,1,1.28,2.06,43.84,43.84,0,0,1-1.13,6.54h1l-.38-1c-.22-.6-1.19-.34-1,.27l.37,1c.16.43.85.52,1,0q.58-2.51.95-5.06c.17-1.22.56-2.74-.26-3.8s-2.07-1.12-3.19-1.29l-4.92-.72-2.28-.33a2.76,2.76,0,0,0-3.6,2.78,63.37,63.37,0,0,0-.54,9.54c0,1.85-.07,3.69-.2,5.52-.07.95-.16,1.9-.3,2.84,0,.26-.52,2.51-.49,2.53l.25.43a13.45,13.45,0,0,0-1.36-6.64,2.83,2.83,0,0,0-1.94-1.53,2,2,0,0,0-2,.81c-.37.53.5,1,.86.51Z"/>
          <path class="cls-3" d="M168.47,35.26c1.24-1.11,3.37-.18,3.9,1.26.74,2-1.35,4-3.21,4.14a.5.5,0,0,0-.13,1c2,.78,3.94,2.37,4,4.69A3,3,0,0,1,171.79,49a2.58,2.58,0,0,1-2.66.22c-.56-.3-1.07.56-.5.87,2.41,1.29,5.12-.64,5.38-3.18.31-3-2.13-5.23-4.72-6.23l-.13,1c2.55-.24,5.18-2.84,4.12-5.54-.82-2.1-3.76-3.14-5.52-1.57-.48.43.23,1.14.71.71Z"/>
          <path class="cls-3" d="M184.91,51.18l0-15.27a.5.5,0,0,0-1-.13l-.36,1c-.21.61.76.87,1,.27l.35-1-1-.13,0,15.27a.5.5,0,0,0,1,0Z"/>
          <path class="cls-3" d="M183.94,28.68c.09.06-.06-.08,0,0l.05.05s-.07-.09,0,0,0,0,0,0,0,.16,0,.16,0-.12,0,0,0,.1,0,.1h0s0,.05,0,.07,0,.13,0,0l0,.06a.41.41,0,0,1,0,.09c0,.07,0,0,0,0a.46.46,0,0,1-.07.07s-.09.05,0,0l-.09.05s0,0,0,0l-.12,0h-.11s-.09,0,0,0l-.12,0s-.14-.06,0,0l-.18-.1c-.11-.07.06.07,0,0l-.06-.06-.09-.09s-.05-.08,0,0l-.07-.11s-.06-.13,0,0a.83.83,0,0,1-.06-.21c0-.14,0,0,0,0s0-.08,0-.12V28.4s0-.13,0,0a2.29,2.29,0,0,1,.07-.28l0-.12c0-.08-.05.1,0,0l.12-.22a.61.61,0,0,1,.07-.1s.07-.09,0,0a1.34,1.34,0,0,1,.2-.21l.07-.06c-.07.06,0,0,.06,0a1.05,1.05,0,0,1,.21-.12c-.08,0,0,0,0,0l.13,0c-.08,0,0,0,0,0H184l.09,0c-.1,0,0,0,0,0s0,0,0,0l.08.08c.06.06,0,0,0,0a.93.93,0,0,1,.05.1c.05.08,0,0,0,0s0,.09.05.14,0,.05,0,.08c0-.13,0,0,0,0v.1c0,.06,0,.11,0,0a1.87,1.87,0,0,1-.07.22c0-.09,0,.06,0,.06l-.07.13-.09.12c0-.07,0,0,0,.05s-.14.15-.21.21a5.58,5.58,0,0,1-.46.39l.49-.12-.08,0c-.05,0,0,0,0,0l-.16-.09c-.05,0,.05.05,0,0l-.06-.06-.06-.06c0-.05,0,.06,0,0s-.07-.11-.09-.16,0,.05,0,0a.24.24,0,0,1,0-.08s0-.05,0-.08,0,.07,0,0v-.08c0-.1,0,0,0,0s0-.06,0-.08,0-.1,0,0,0,0,0,0a.16.16,0,0,1,0-.07s.06-.08,0,0,0,0,0,0l.08-.07s0,0,0,0l.14-.09h0l.08,0,.1,0c.07,0-.07,0,0,0H184l-.34-.62-.33,2.29a.51.51,0,0,0,.35.61.5.5,0,0,0,.62-.35l.32-2.28c0-.25-.06-.57-.35-.62a1.66,1.66,0,0,0-1.7.78,1.58,1.58,0,0,0,.23,1.82,1.47,1.47,0,0,0,.77.47c.29.06.46-.1.66-.27l.36-.32a2.11,2.11,0,0,0,.72-1.66,1.38,1.38,0,0,0-1.17-1.33,2,2,0,0,0-1.75,1,2.3,2.3,0,0,0-.41,1.88,1.84,1.84,0,0,0,1.24,1.28,1.39,1.39,0,0,0,1.67-.72,1.36,1.36,0,0,0-.4-1.73.51.51,0,0,0-.69.18.52.52,0,0,0,.18.69Z"/>
        </g>
        <path class="cls-3" d="M101.76,52.17a2.32,2.32,0,0,1,1.1-.88l-.56-.23a3,3,0,0,1-.43,3,2.24,2.24,0,0,1-1.52.91,1,1,0,0,1-.95-.81c-.33-1.23.86-2.09,1.82-2.55.42-.2,1.23-.57,1.54,0a1.76,1.76,0,0,1-.11,1.4,2.27,2.27,0,0,1-1.1,1.29c-.36.13-1,0-1-.47a.73.73,0,0,1,1-.59,1.2,1.2,0,0,1,.66,1.2,2.22,2.22,0,0,1-2.75,1.71,2.16,2.16,0,0,1-1-2.59A3.42,3.42,0,0,1,99.61,52a3.32,3.32,0,0,1,1.9-.84c.56,0,.77.73.69,1.2A3.62,3.62,0,0,1,101,54.13l.48-.13a.83.83,0,0,1,.22-1.65l-.35-.15a1.6,1.6,0,0,1,.07,1.81l.79-.11a2.6,2.6,0,0,1-.91-2.09A1.83,1.83,0,0,1,102.41,50c.86-.21.74,1.18.71,1.7s-.19,1.42-.87,1.57l.56.23a5.46,5.46,0,0,1-.9-2.33l-.15.35c.4-.35.82.38.89.66a3.87,3.87,0,0,1,.07,1c0,.15,0,.53-.15.62s-.48-.22-.59-.34a2.12,2.12,0,0,1-.42-.71,2.24,2.24,0,0,1,0-1.65h-.86c.23.37.62.9.5,1.36,0,.11-.31.47-.46.34-.49-.41-1.2.29-.71.71a1.32,1.32,0,0,0,1.94-.37c.55-.82,0-1.81-.41-2.54a.5.5,0,0,0-.86,0,3.29,3.29,0,0,0,0,2.81c.39.82,1.47,1.87,2.41,1.18a1.56,1.56,0,0,0,.54-1.23,4.6,4.6,0,0,0-.12-1.57,1.68,1.68,0,0,0-2.23-1.21.67.67,0,0,0-.44.69,4.65,4.65,0,0,0,.19.9A6.23,6.23,0,0,0,102,54a.5.5,0,0,0,.56.23,2.1,2.1,0,0,0,1.5-1.73,4.5,4.5,0,0,0-.16-2.79,1.61,1.61,0,0,0-2.41-.35,3,3,0,0,0-1.19,2.46,3.59,3.59,0,0,0,1.2,2.8.51.51,0,0,0,.79-.1,2.58,2.58,0,0,0-.17-2.94c-.37-.41-1.07-.19-1.48.07a1.88,1.88,0,0,0-.84,1.23,1.85,1.85,0,0,0,.41,1.46c.28.34.93.83,1.39.58a2.57,2.57,0,0,0,.58-.56,5.62,5.62,0,0,0,.58-.71,2.69,2.69,0,0,0,.5-1.5,1.88,1.88,0,0,0-1.7-2,3.38,3.38,0,0,0-1.63.5,5.85,5.85,0,0,0-1.3.91,3.82,3.82,0,0,0-1.28,2.69,3.25,3.25,0,0,0,1.15,2.46c1.73,1.38,4.77-.2,4.73-2.41a2.13,2.13,0,0,0-1.74-2.1A1.75,1.75,0,0,0,99.56,54a1.66,1.66,0,0,0,2.21,1.32,3.29,3.29,0,0,0,2-2.3,2,2,0,0,0-.73-2.48c-1-.52-2.33.18-3.16.78a3.13,3.13,0,0,0-1.49,2.51,2.21,2.21,0,0,0,1.44,2.12,2.88,2.88,0,0,0,2.85-1.2,4.14,4.14,0,0,0,.89-2.72,4,4,0,0,0-.36-1.43.5.5,0,0,0-.56-.23,3.48,3.48,0,0,0-1.7,1.35c-.37.53.5,1,.86.5Z"/>
      </g>
      <g>
        <path class="cls-4" d="M188.47,142.88a32.82,32.82,0,0,1-.34-8.74,7.82,7.82,0,0,1,.77-3,2.69,2.69,0,0,1,2.81-1.41,4.55,4.55,0,0,1,2.85,1.19,2.31,2.31,0,0,1,0,3.09,7.05,7.05,0,0,1-3.24,2.1c-.54.21-1.08.43-1.61.68a3,3,0,0,0-1.35.93c-.68,1.11,1.08,2.28,1.78,2.87a23.62,23.62,0,0,0,3.61,2.49.5.5,0,0,0,.5-.86,22.52,22.52,0,0,1-3.65-2.55c-.32-.28-1.5-1.08-1.24-1.56.11-.18.76-.41,1-.5.36-.17.72-.31,1.08-.46,2.12-.85,5-2.28,4.75-5.05-.24-2.31-2.84-3.38-4.89-3.39-2.5,0-3.67,2.17-4,4.37a30.43,30.43,0,0,0,.25,10c.11.64,1.07.37,1-.26Z"/>
        <path class="cls-4" d="M196.47,139.88c1.75-.22,3.88-.52,4.89-2.17.8-1.29.7-3.29-.84-4-1.71-.75-3.52.74-4.24,2.2a6.62,6.62,0,0,0-.11,5.76c.89,1.86,3.22,3.13,5.12,1.88.54-.35,0-1.22-.5-.86a2.59,2.59,0,0,1-3.57-1.17,5.48,5.48,0,0,1-.38-4.36c.38-1.18,1.35-2.65,2.75-2.64s1.49,1.53,1,2.46c-.74,1.46-2.7,1.69-4.14,1.87-.63.08-.64,1.08,0,1Z"/>
        <path class="cls-4" d="M206.75,137.32c.09,1.63.24,3.26.43,4.88l1-.13a10.74,10.74,0,0,0-1.92-4.53,6.1,6.1,0,0,0-1.71-1.76,1.57,1.57,0,0,0-2,.71,5,5,0,0,0,2.42,7.15,3,3,0,0,0,2.62-.22,2.39,2.39,0,0,0,1.13-2.09c0-.64-1-.64-1,0a1.39,1.39,0,0,1-.72,1.28,2,2,0,0,1-1.71.08,3.66,3.66,0,0,1-2.19-2.32,4.07,4.07,0,0,1,.1-3,1.67,1.67,0,0,1,.49-.65c.26-.17.44-.05.64.14a8.9,8.9,0,0,1,1.24,1.43,10,10,0,0,1,1.66,4.06c.09.55,1.05.43,1-.14-.19-1.62-.34-3.25-.43-4.88,0-.64-1-.64-1,0Z"/>
        <path class="cls-4" d="M209.86,129.49a95.77,95.77,0,0,0,.5,14.86.5.5,0,0,0,1,.14l.17-.59a.5.5,0,0,0-1-.26l-.17.58,1,.13a95.77,95.77,0,0,1-.5-14.86c0-.64-1-.64-1,0Z"/>
      </g>
      <g>
        <path class="cls-4" d="M11.27,7.27A43.52,43.52,0,0,0,21.6.83c.5-.41-.22-1.12-.71-.71A43.05,43.05,0,0,1,10.77,6.41c-.59.26-.08,1.12.5.86Z"/>
        <path class="cls-4" d="M15.85,5.16a51.83,51.83,0,0,1-.28,8.72c-.07.64.93.64,1,0a51.83,51.83,0,0,0,.28-8.72c0-.64-1-.65-1,0Z"/>
        <path class="cls-4" d="M12.89,16.42l8.05-3.87c.58-.28.08-1.14-.5-.86l-8,3.87c-.58.28-.08,1.14.5.86Z"/>
        <path class="cls-4" d="M21.94,6.55a34.34,34.34,0,0,0,.37,8.35l1-.26a14.58,14.58,0,0,1,1.58-9.3H24a12.21,12.21,0,0,1,.57,5.91c0,.55.89.69,1,.13a12.94,12.94,0,0,1,.89-3c.16-.36,1-2.42,1.51-2.16.3.16.39.8.46,1.08a11.58,11.58,0,0,1,.11,5c-.13.63.84.9,1,.26a12.66,12.66,0,0,0,.14-4.21c-.13-1-.29-2.69-1.37-3.11s-2,1.15-2.38,2a13.85,13.85,0,0,0-1.28,3.85l1,.13a13,13,0,0,0-.71-6.41.5.5,0,0,0-.86,0A15.56,15.56,0,0,0,22.31,14.9c.1.63,1.07.37,1-.26a33.73,33.73,0,0,1-.33-8.09c0-.64-1-.63-1,0Z"/>
        <path class="cls-4" d="M35,9.09,35.24,13l.93-.25-1.08-2.4c-.33-.72-.63-1.47-1-2.17a2.47,2.47,0,0,0-1.33-1.29A1.59,1.59,0,0,0,31,7.51c-1.54,2-1.15,5.57,1.29,6.69a3.5,3.5,0,0,0,3.82-.43c.48-.43-.23-1.14-.71-.71a2.44,2.44,0,0,1-2.43.35,2.83,2.83,0,0,1-1.76-2,4.21,4.21,0,0,1,.4-3c.17-.31.47-.76.89-.59s.65.69.83,1c.68,1.43,1.31,2.89,2,4.34a.5.5,0,0,0,.93-.25L36,9.09c0-.64-1.05-.64-1,0Z"/>
        <path class="cls-4" d="M38.64,5.1a4.58,4.58,0,0,0-2.11,2.83,3.48,3.48,0,0,0,.76,3.51A2.63,2.63,0,0,0,41,10.85a3.71,3.71,0,0,0,.28-3.35,5.12,5.12,0,0,0-2.15-2.4.5.5,0,0,0-.6.78A9.08,9.08,0,0,1,40.77,13,5.37,5.37,0,0,1,38.56,17a6.16,6.16,0,0,1-4,.78,7.71,7.71,0,0,1-4.34-1.85c-.48-.42-1.19.29-.7.71a8.65,8.65,0,0,0,8.79,1.63c3.37-1.48,4.13-5.83,3.18-9.06a10.45,10.45,0,0,0-2.24-4l-.6.78a4.3,4.3,0,0,1,1.63,1.7c.46.94.44,2.49-.57,3.08a1.54,1.54,0,0,1-2-.34,2.62,2.62,0,0,1-.27-1.72A3.65,3.65,0,0,1,39.14,6c.55-.34,0-1.2-.5-.86Z"/>
        <path class="cls-4" d="M44.47,15V8.19c0-.15,0-.31,0-.46a.91.91,0,0,1,0-.17c-.3.09-.45,0-.45-.29L44.25,7l0,0c-.52.38,0,1.25.5.87a.71.71,0,0,0-.65-1.25c-.83.29-.59,1.59-.59,2.26V15a.5.5,0,0,0,1,0Z"/>
        <path class="cls-4" d="M46.24,8.68a30.94,30.94,0,0,1,.3,5.69h1a15.12,15.12,0,0,1,1.37-6.69c.15-.31.3-.62.47-.93s.35-.8.6-.92.35.43.39.65c.08.38.15.75.2,1.13a19.66,19.66,0,0,1,.23,2.53,22.65,22.65,0,0,1-.38,5c-.12.63.84.9,1,.27A22.8,22.8,0,0,0,51.3,6a1.5,1.5,0,0,0-.93-1.23,1.38,1.38,0,0,0-1.47.78A15.11,15.11,0,0,0,47.17,9.5a16.38,16.38,0,0,0-.63,4.87.5.5,0,0,0,1,0,33,33,0,0,0-.34-6c-.09-.63-1.05-.36-1,.27Z"/>
        <path class="cls-4" d="M57.46,7.13l.34,6.34,1-.13A20.76,20.76,0,0,0,56.66,8,4.47,4.47,0,0,0,55,6a2,2,0,0,0-2.15.4c-1.3,1.12-1,3.39-.64,4.87a4.86,4.86,0,0,0,2.82,3.54,3.32,3.32,0,0,0,4-1.23.5.5,0,0,0-.87-.5,2.26,2.26,0,0,1-2.6.86,3.53,3.53,0,0,1-2.3-2.51,7.62,7.62,0,0,1-.36-2,3.31,3.31,0,0,1,.35-2.08A1,1,0,0,1,54.73,7a2.36,2.36,0,0,1,.56.69c.22.34.44.7.64,1.06a20.18,20.18,0,0,1,1.89,4.85.5.5,0,0,0,1-.13l-.34-6.34c0-.64-1-.64-1,0Z"/>
        <path class="cls-4" d="M60.39,6.28a37.07,37.07,0,0,0,1.44,8.49l.91-.39a7,7,0,0,1-.32-4.51,7.1,7.1,0,0,1,.91-2.07A6.11,6.11,0,0,1,64,6.9s.76-.66.79-.4c.08.63,1.08.63,1,0a1.11,1.11,0,0,0-.9-1A1.57,1.57,0,0,0,63.56,6a7.08,7.08,0,0,0-1.78,2.67,8.07,8.07,0,0,0,.1,6.25c.23.52,1.07.15.91-.39a36.36,36.36,0,0,1-1.4-8.22c0-.64-1-.64-1,0Z"/>
        <path class="cls-4" d="M66.3,5.44a7.26,7.26,0,0,0,.38,3.2,4,4,0,0,0,1.55,2.3c.91.44,1.55-.35,1.93-1.09a19.47,19.47,0,0,0,1.29-3.3l-.84.22c.24.25,0,.89-.13,1.16s-.22.74-.35,1.11a20.31,20.31,0,0,1-.84,2.12A24.86,24.86,0,0,1,67,15.1a23.93,23.93,0,0,1-6.64,6.32c-.54.35,0,1.22.51.87a25.22,25.22,0,0,0,7.32-7.16,24.54,24.54,0,0,0,2.41-4.56,22.18,22.18,0,0,0,.83-2.37c.21-.73.46-1.53-.13-2.14a.51.51,0,0,0-.84.23,17.4,17.4,0,0,1-.8,2.23c-.15.35-.31.69-.49,1-.07.12-.23.46-.37.5s-.45-.29-.53-.41a6.3,6.3,0,0,1-1-4.2c.06-.64-.94-.64-1,0Z"/>
      </g>
    </g>
  </g>
</svg>
