<svg id="Layer_1" data-name="Layer 1" xmlns="http://www.w3.org/2000/svg" viewBox="0 0 235.83 196.23">
  <defs>
    <style>
      .cls-1 {
        fill: #939598;
      }

      .cls-2 {
        fill: #00a651;
      }

      .cls-3 {
        fill: #00aeef;
      }
    </style>
  </defs>
  <title>rectangular-to-polar</title>
  <g>
    <g>
      <g>
        <path class="cls-1" d="M49.13,33.79c3.06-6.31,6-12.65,9.17-18.93a7.07,7.07,0,0,1,.79-1.35A1.27,1.27,0,0,1,60.74,13c-.17-.07.15.09.18.11s.25.15.37.23a6.38,6.38,0,0,1,1.12,1.19,40.16,40.16,0,0,1,2.4,4c.81,1.43,1.58,2.87,2.33,4.33q2.52,4.92,4.57,10.06a1.52,1.52,0,0,0,2.51.66l1.22-1.37a1.53,1.53,0,0,0,0-2.12,1.51,1.51,0,0,0-2.12,0l-1.23,1.37,2.51.67c-1.34-3.38-2.81-6.7-4.44-9.95-.81-1.6-1.65-3.19-2.53-4.75A45.24,45.24,0,0,0,65,13a7.39,7.39,0,0,0-3.63-3A4.24,4.24,0,0,0,57,11.39a17,17,0,0,0-2.31,4.12l-2.49,5.14L46.54,32.28a1.54,1.54,0,0,0,.54,2,1.52,1.52,0,0,0,2.05-.54Z" transform="translate(-26.07 -9.9)"/>
        <path class="cls-1" d="M59.77,12.76l1.4,73.53,1.38,73.13.78,41.24c0,1.93,3,1.93,3,0q-.69-36.74-1.39-73.48L63.56,54l-.79-41.27c0-1.93-3-1.93-3,0Z" transform="translate(-26.07 -9.9)"/>
        <path class="cls-1" d="M51.8,191.07l11.54,14.6a1.51,1.51,0,0,0,2.51-.67,23.51,23.51,0,0,1,4.31-8.11c2-2.42,5.26-4.51,4.73-8a1.51,1.51,0,0,0-1.84-1.05,1.54,1.54,0,0,0-1,1.85,2.22,2.22,0,0,1-.44,1.21,9,9,0,0,1-1.27,1.48,36.62,36.62,0,0,0-3.14,3.57A26.45,26.45,0,0,0,63,204.21l2.51-.66L53.92,189a1.5,1.5,0,0,0-2.12,0,1.54,1.54,0,0,0,0,2.12Z" transform="translate(-26.07 -9.9)"/>
      </g>
      <g>
        <path class="cls-1" d="M37.36,142.38,28.3,155.09c-1.22,1.71-3.42,4.39-1.44,6.41.85.87,2,.92,3.11,1.15a13.6,13.6,0,0,1,2.72.84A13.9,13.9,0,0,1,38,167.62a1.52,1.52,0,0,0,2.13,0,1.55,1.55,0,0,0,0-2.12A16.27,16.27,0,0,0,30,159.62a4.84,4.84,0,0,1-1.05-.24c0-.06.24.29.09.11.18.21,0,0,0,0-.1.19.07-.21.09-.27a12.88,12.88,0,0,1,1.72-2.6l4.25-5.95L40,143.9a1.5,1.5,0,1,0-2.59-1.52Z" transform="translate(-26.07 -9.9)"/>
        <path class="cls-1" d="M244.35,172.37l8.13-5.13,4-2.53c1.24-.78,2.55-1.5,3.7-2.39a4,4,0,0,0,1.67-3.78,10.64,10.64,0,0,0-1.93-4.06,57.92,57.92,0,0,0-5.05-6.73c-1-1.12-2-2.19-3.07-3.22-.55-.54-1.11-1.06-1.69-1.56l-.79-.68-.4-.33-.24-.2c-.23-.23-.21-.12.06.35l-.21.76.05-.1-.53.54.08,0-.76.21h.1l-.76-.2-.15-.13-.38-.66,0,.07.15-1.15-.05.08A1.5,1.5,0,0,0,248.9,143a1.65,1.65,0,0,0-.66-2.31,1.69,1.69,0,0,0-2.49,1.42,2.3,2.3,0,0,0,1,1.9c.58.49,1.17,1,1.74,1.49a52.57,52.57,0,0,1,5.94,6.36c.87,1.09,1.68,2.23,2.45,3.4.4.61.8,1.23,1.18,1.86a5.07,5.07,0,0,1,.86,1.8.92.92,0,0,1-.41.94,15.85,15.85,0,0,1-1.71,1.13l-4.23,2.66-9.72,6.13c-1.63,1-.12,3.62,1.52,2.59Z" transform="translate(-26.07 -9.9)"/>
      </g>
      <path class="cls-1" d="M29.63,160.57c29.78-1.63,59.62-1.75,89.44-1.84,29.6-.09,59.2-.38,88.8-.18,16.62.12,33.25.53,49.84,1.75,1.92.14,1.91-2.86,0-3-29.71-2.17-59.52-1.81-89.28-1.72s-59.25,0-88.87.41c-16.65.23-33.3.67-49.93,1.58-1.92.1-1.94,3.11,0,3Z" transform="translate(-26.07 -9.9)"/>
    </g>
    <g>
      <path class="cls-2" d="M164,45.17a5.91,5.91,0,0,1,.67-.47l.48-.28.22-.11s.33-.15.15-.08a6.69,6.69,0,0,1,1-.31l.34-.08c-.16,0,.16,0,.19,0l.31,0,.54,0c-.21,0,.16,0,.22.05l.5.14c.16,0,0,0-.05,0l.29.16a3.87,3.87,0,0,1,.34.21l0,0,.2.18c.1.09.18.19.28.28s0,.07,0,0a1.43,1.43,0,0,1,.15.22c.09.13.15.27.23.4s0,0,0-.06a1.34,1.34,0,0,1,.07.18c0,.15.08.29.12.44s0,.23,0,.05,0,.14,0,.18,0,.38,0,.11c0,.15-.07.29-.11.43s0,0,0,0-.09.18-.14.27l-.12.19c-.14.21.12-.12-.05.06l-.38.38c-.18.15,0,0-.19.13l-.38.22-.16.08c.18-.09.1,0-.05,0a6.69,6.69,0,0,1-.77.2c.26-.06,0,0-.1,0a2.68,2.68,0,0,1-.49,0l-.44,0h.09l-.18,0a9.26,9.26,0,0,1-.9-.26c.25.08,0,0-.09,0a2.82,2.82,0,0,1-.38-.21l-.36-.24c.23.16,0,0-.12-.12s-.2-.2-.3-.3.07.14-.08-.08-.16-.24-.23-.37-.05-.11-.09-.17c-.14-.23,0,.12,0,0l-.21-.77c.07.25,0,0,0-.09s0-.33,0-.49.05-.47,0-.3.06-.24.07-.29.06-.24.1-.36.2-.5.07-.22a5.49,5.49,0,0,1,.39-.71c0-.07.3-.37.09-.14.1-.11.19-.22.29-.32l.31-.29c.21-.19-.15.07.09-.06l.37-.22a.91.91,0,0,1,.17-.09c-.26.15,0,0,0,0l.37-.11.25,0c.17,0-.05,0-.08,0,.15,0,.3,0,.45,0s.48,0,.18,0a6.52,6.52,0,0,1,.87.22c.27.08-.12-.08.13,0l.45.25.33.22c-.24-.17.09.09.15.14s.22.21.32.32l.12.15c.15.16-.12-.19,0,0a5.13,5.13,0,0,1,.41.72c-.13-.28,0,.1.05.18a1.05,1.05,0,0,1,.05.19s.08.39,0,.18,0,.19,0,.26a4.1,4.1,0,0,1,0,.49c0-.28,0,.13-.06.22a4.34,4.34,0,0,1-.16.47c.1-.25-.08.14-.12.21s-.17.28-.26.41c.14-.19-.08.06-.13.12l-.2.19c-.09.07-.15.1,0,0l-.36.21c-.23.14-.09,0,0,0l-.19.07c-.11,0-.47.1-.17.06a3.39,3.39,0,0,1-.45,0s-.32,0-.12,0,0,0-.06,0-.29-.08-.44-.12,0,0,.06,0l-.17-.09L167,47s-.32-.21-.17-.1-.18-.18-.23-.22,0,.13-.08-.09c0-.06-.21-.41-.16-.27s0-.23-.07-.31c.08.32,0-.09,0-.17s0,0,0,.08l.06-.25c0-.1.13-.36,0-.13a3.83,3.83,0,0,1,.25-.44c-.13.2,0,0,.09-.1a1.54,1.54,0,0,1,.19-.17l-.06,0c.09-.06.41-.22.14-.11.07,0,.45-.13.28-.1s.24,0,.31,0c-.29,0,0,.05.16.06s0,0-.07,0l.16.09.16.09c.32.18-.11-.1,0,0s.21.2.31.31-.05-.12.08.11.17.27.24.4l.09.18c-.07-.13,0-.1,0,0a5.85,5.85,0,0,1,.25.91c.06.29,0-.16,0,.13s0,.34,0,.51a1.23,1.23,0,0,0,0,.19c0,.22.07-.22,0,0s-.06.25-.09.38a3.59,3.59,0,0,1-.14.43c.11-.29-.09.12-.13.2-.11.23.13-.09,0,.08a1.59,1.59,0,0,0-.13.13c-.09.16.2-.12,0,0l-.15.09s.26-.07.1,0-.29.1-.09,0-.13,0-.11,0,0-.07.07,0-.31-.1,0,0c-.08,0-.34-.2-.15-.06-.07-.05-.13-.12-.2-.18s-.15-.18-.06-.06,0-.06,0-.07-.09-.17-.13-.25c.11.22,0-.14-.07-.23a1.1,1.1,0,0,1,0-.39,4.61,4.61,0,0,1,.1-1.08c.07-.37.16-.74.26-1.1,0-.15.09-.3.14-.45s.09-.22,0-.07.1-.19.1-.18.24-.28.06-.11c0,0,.17-.16,0,0s.19,0,0,0l-.23,0c.17,0,.06.05,0,0H168c.13,0,.13,0,0,0s-.11,0,0,0,.06,0,0,0-.13-.09,0,0,.05.17,0-.05c0,.1.12.2.17.3-.14-.27,0,0,0,.15s.07.28.1.43,0,0,0,0a1.37,1.37,0,0,1,0,.19c0,.13,0,.27,0,.41a8.44,8.44,0,0,1,0,.87s0,.23,0,0,0,.06,0,.11,0,.24-.08.37-.09.26-.13.4c.09-.3,0,0-.1.16s.16-.12,0,0-.11.1-.15.15.23-.17.09-.09.11,0,.12,0a1,1,0,0,1-.16.05c-.2,0,.3,0,.06,0s.23,0,0,0,0,0,0,0a1,1,0,0,1-.23-.13c.2.14,0,0-.1-.12.17.19-.07-.14-.11-.22s0,0,0,0-.07-.3-.06-.24a4.71,4.71,0,0,1,.41-2l-1.84,1.05c-.26-.09.12.07.15.09.28.14-.06-.13.15.11,0,0,.27.35.12.13,0,0,.22.4.11.14a1.55,1.55,0,0,0,1.84,1,1.51,1.51,0,0,0,1.05-1.85,4.25,4.25,0,0,0-2.63-2.56,1.52,1.52,0,0,0-1.84,1,6.52,6.52,0,0,0-.4,3.65,3.71,3.71,0,0,0,2,2.48,3.05,3.05,0,0,0,3.27-.43A4.12,4.12,0,0,0,171,48.13a6.64,6.64,0,0,0-.58-5.11,2.73,2.73,0,0,0-2.94-1.21,3.45,3.45,0,0,0-2.23,2.33c-.8,2.08-1.1,4.8.5,6.58a3.41,3.41,0,0,0,2.82,1.16,3.52,3.52,0,0,0,2.6-1.64c2.15-3.21-.09-9.35-4.5-8.55A4.34,4.34,0,0,0,163.32,46a4.53,4.53,0,0,0,3.75,4.09,5,5,0,0,0,5.28-2.57,5.61,5.61,0,0,0-.11-5.67,6.5,6.5,0,0,0-4.44-3,5.69,5.69,0,0,0-5.15,1.85A6.71,6.71,0,0,0,161,45.68a6,6,0,0,0,2.83,4.56,6.92,6.92,0,0,0,5.22.82,5.36,5.36,0,0,0,4.06-4,5.44,5.44,0,0,0-2.37-5.24,6.48,6.48,0,0,0-6-.47,10.34,10.34,0,0,0-2.85,1.71,1.5,1.5,0,0,0,0,2.12,1.54,1.54,0,0,0,2.12,0Z" transform="translate(-26.07 -9.9)"/>
      <g>
        <path class="cls-2" d="M197.3,32A42,42,0,0,1,200,45.26l1.86-.5q-3.74-7.3-6.94-14.86c-.78-1.87-1.56-3.92-3.17-5.24a4.67,4.67,0,0,0-5.92-.06c-2,1.54-2.68,4-3.19,6.39a35,35,0,0,0-1.09,8.07,9.87,9.87,0,0,0,2.21,6.49,10.15,10.15,0,0,0,5,2.89,25.5,25.5,0,0,0,6.91.67,82.41,82.41,0,0,0,9.29-.68,1,1,0,0,0,1-1,1,1,0,0,0-1-1q-3.72.48-7.47.63a35.86,35.86,0,0,1-6.13-.14,11.88,11.88,0,0,1-4.78-1.56,6.5,6.5,0,0,1-2.89-4.52,19.26,19.26,0,0,1,.37-7c.42-2.18.71-4.73,2-6.62.94-1.42,2.8-2.31,4.3-1.18s2.06,2.92,2.71,4.47q3.27,7.74,7.09,15.23a1,1,0,0,0,1.87-.51,43.54,43.54,0,0,0-2.79-13.81,1,1,0,0,0-1.23-.7,1,1,0,0,0-.7,1.23Z" transform="translate(-26.07 -9.9)"/>
        <g>
          <path class="cls-2" d="M209,35.32l8.33-.62a5.51,5.51,0,0,0,3.18-.82,1.67,1.67,0,0,0,.33-2.63c-1-.84-2.39.57-1.41,1.41.17.18.15.08-.06-.28.09-.26.09-.3,0-.14.07,0-.13.09-.15.11a1.73,1.73,0,0,1-.8.27l-3.07.23-6.36.47a1,1,0,0,0-1,1,1,1,0,0,0,1,1Z" transform="translate(-26.07 -9.9)"/>
          <path class="cls-2" d="M213.26,27.07q-.36,4.35-.33,8.7c0,.7,0,1.39,0,2.09a7.69,7.69,0,0,0,.14,2c.33,1.11,1.54,2,2.55,1s-.47-2.29-1.41-1.42l-.09.09.44-.26c.38.23.53.25.46.06a.16.16,0,0,0,0-.07c.08-.16,0-.57,0-.74,0-.57,0-1.14-.05-1.71,0-1.07,0-2.13,0-3.19q.06-3.31.33-6.62c.11-1.28-1.89-1.27-2,0Z" transform="translate(-26.07 -9.9)"/>
        </g>
        <path class="cls-2" d="M229.49,17.94l2.87,26.36a1,1,0,0,0,2,.26c1.45-4,3.63-9.41,8.33-10.41a2.64,2.64,0,0,1,2.91.89,6.13,6.13,0,0,1,.73,3.44,7.32,7.32,0,0,1-3.36,5.86,7.51,7.51,0,0,1-7.7,0,1,1,0,0,0-1,1.72,9.54,9.54,0,0,0,8.9.43,9.15,9.15,0,0,0,5-6.76c.47-2.85-.22-7-3.6-7.58-2.85-.52-5.72,1.18-7.56,3.23A25.9,25.9,0,0,0,232.4,44l2,.27-2.87-26.36a1,1,0,0,0-1-1,1,1,0,0,0-1,1Z" transform="translate(-26.07 -9.9)"/>
        <path class="cls-2" d="M254.94,46.67q-1.29-9.44-2.22-18.92l-2,.26.51,1.38c.44,1.2,2.37.68,1.92-.53l-.5-1.38a1,1,0,0,0-1.1-.71,1,1,0,0,0-.87,1q1,9.75,2.29,19.45a1,1,0,0,0,1.23.7,1,1,0,0,0,.7-1.23Z" transform="translate(-26.07 -9.9)"/>
        <path class="cls-2" d="M252.18,21.5l.11-1.89-1.71.7c-.2-.25,0,0,.06.12s0,.1.07.14c-.06-.15-.07-.18,0-.08l0,.05a1.67,1.67,0,0,1,.08.32c0,.19,0-.24,0-.05a1.28,1.28,0,0,0,0,.19c0,.05,0,.11,0,.16s0,.25,0,.06,0,0,0,.06a.83.83,0,0,1,0,.15,1.42,1.42,0,0,0-.05.16c0,.09.11-.24,0,0s-.27.4-.07.14l1.57.2a4.73,4.73,0,0,1-.23-.45c-.09-.2.08.22,0,0a2.25,2.25,0,0,0-.08-.24,3.45,3.45,0,0,1-.12-.43c0-.08,0-.16-.05-.25s0-.08,0-.12c0,.15,0,.18,0,.11a5.66,5.66,0,0,1,0-.92,1.13,1.13,0,0,0,0-.25l0,.14s0-.09,0-.13a3.89,3.89,0,0,1,.12-.49l-1.83.24a1.37,1.37,0,0,1,.13.2s0,.15.08.17c-.06-.15-.07-.17,0-.07s0,.08,0,.12a1.6,1.6,0,0,1,.05.21c.05.25,0-.19,0,0s0,.14,0,.21a.82.82,0,0,0,0,.22c0-.17,0-.19,0-.08l0,.12a1,1,0,0,0,.7,1.23,1,1,0,0,0,1.23-.7,3.34,3.34,0,0,0-.44-2.65,1,1,0,0,0-1-.48,1,1,0,0,0-.83.71,5.93,5.93,0,0,0,.57,4.57,1,1,0,0,0,1.57.21,3.61,3.61,0,0,0,.59-1.07,3.07,3.07,0,0,0,.17-1,3.36,3.36,0,0,0-.78-2.1,1,1,0,0,0-1.09-.21,1,1,0,0,0-.62.92l-.11,1.89a1,1,0,0,0,2,0Z" transform="translate(-26.07 -9.9)"/>
      </g>
      <g>
        <path class="cls-2" d="M170.19,56.33c3.82-.79,7.56,2,8.88,5.44A17.45,17.45,0,0,1,180,68c0,2.29-.11,4.59-.18,6.89l-.42,14.53-.21,7.2a29.38,29.38,0,0,0-.07,3.51,2.37,2.37,0,0,0,1.4,1.9c1.06.55,2.23.92,3.33,1.36l3.83,1.51,7.66,3v-1l-6.89,2.19c-2.18.7-4.41,1.32-6.56,2.1a4,4,0,0,0-2,1.3,3.72,3.72,0,0,0-.41,2.68l.75,7.06,1.53,14.26c.41,3.76,1.6,8.55-1.89,11.23-3,2.28-7.31,2.45-10.9,2.55a.5.5,0,0,0,0,1c3.32-.09,6.86-.32,9.9-1.79a7.81,7.81,0,0,0,3.35-2.88,9.24,9.24,0,0,0,1-5.73c-.38-4.73-1-9.45-1.51-14.17l-.77-7.19-.37-3.47c-.1-1-.48-2.35.27-3.14s2.14-1,3.13-1.33l3.8-1.21,7.85-2.49a.51.51,0,0,0,0-1l-13.7-5.41a5.57,5.57,0,0,1-1.28-.61,1.67,1.67,0,0,1-.51-1.59c0-1.24.07-2.48.1-3.72l.21-7.33.42-14.53c.13-4.24.71-8.92-1.05-12.92-1.63-3.72-5.76-6.36-9.86-5.51-.63.13-.36,1.09.27,1Z" transform="translate(-26.07 -9.9)"/>
        <path class="cls-2" d="M198.18,97.08l.38,13.56a.51.51,0,0,0,.85.36c.76-.85,1.5-1.7,2.26-2.54a7.22,7.22,0,0,1,1.93-1.68,2.35,2.35,0,0,1,3.43,2c.23,1.74-1.2,3.16-2.65,3.85a7.5,7.5,0,0,1-5.93.09c-.6-.24-.85.73-.26,1,3.14,1.23,7.79.59,9.42-2.75a4,4,0,0,0-.35-4.16,3.13,3.13,0,0,0-3.84-1,6.92,6.92,0,0,0-2.2,1.71c-.86.91-1.68,1.88-2.51,2.82l.85.35-.38-13.56c0-.64-1-.64-1,0Z" transform="translate(-26.07 -9.9)"/>
      </g>
      <g>
        <path class="cls-2" d="M68.54,162.38a7.73,7.73,0,0,0,3,7.1c2.43,2,5.63,2.31,8.65,2.22,3.52-.11,7-.47,10.55-.8s7.2-.73,10.78-1.19q6.06-.78,12.09-1.78l-.62-.34A21.8,21.8,0,0,0,119.36,180a.52.52,0,0,0,.86-.36L121.38,168l-.5.5a29.56,29.56,0,0,0,7-.19c2.21-.25,4.41-.47,6.63-.56a71,71,0,0,1,13.27.73,79.31,79.31,0,0,1,12.73,3.1c3.16,1,7.13,1.84,9.41-1.27,2.16-2.94,1.27-7.28.42-10.53a.5.5,0,0,0-1,.26c.74,2.84,1.57,6.53,0,9.24-2,3.42-6.18,2.14-9.16,1.16a73.06,73.06,0,0,0-24.67-3.72c-2.41.06-4.8.26-7.19.53a31.06,31.06,0,0,1-7.46.25c-.28,0-.47.26-.5.5l-1.16,11.62.85-.35a20.85,20.85,0,0,1-6.12-12,.52.52,0,0,0-.62-.35q-10.08,1.67-20.27,2.71c-3.34.34-6.7.62-10.06.86-3,.21-6.29.49-9.14-.78-2.67-1.2-4.82-4.1-4.35-7.12.09-.62-.87-.9-1-.26Z" transform="translate(-26.07 -9.9)"/>
        <path class="cls-2" d="M126.87,187.58a45.11,45.11,0,0,0,1.3,7.56.5.5,0,0,0,1-.13,18.39,18.39,0,0,0-1.91-8.17c-.95-1.92-2.83-4.79-5.4-3.66a3.18,3.18,0,0,0-1.61,2.86,13.24,13.24,0,0,0,.15,3.77,8.93,8.93,0,0,0,3.65,6,6.58,6.58,0,0,0,7.14.24c.53-.36,0-1.22-.51-.86a5.39,5.39,0,0,1-5.33.2,7.26,7.26,0,0,1-3.69-4.57,11.45,11.45,0,0,1-.47-3.19,5.23,5.23,0,0,1,.52-3.08c.68-.93,2-.61,2.78,0a8.37,8.37,0,0,1,1.86,2.69,17.25,17.25,0,0,1,1.82,7.76l1-.13a44.24,44.24,0,0,1-1.26-7.3c-.06-.64-1.06-.64-1,0Z" transform="translate(-26.07 -9.9)"/>
      </g>
    </g>
    <g>
      <path class="cls-3" d="M96.86,102.76q2.6,2.3,5.32,4.43a1,1,0,0,0,1.41,0,1,1,0,0,0,0-1.42,32.43,32.43,0,0,0-6.73-4.29A10,10,0,0,0,93,100.26c-1.32,0-2.78.66-2.92,2.11-.12,1.27.7,2.65,1.3,3.73a15.7,15.7,0,0,0,2.23,3.08,6.82,6.82,0,0,0,6.08,2.39,4.74,4.74,0,0,0,3-1.87,6.44,6.44,0,0,0,.78-4.11c-.06-1.28-2.06-1.29-2,0a5.41,5.41,0,0,1-.27,2.71,2.48,2.48,0,0,1-1.55,1.22,4.47,4.47,0,0,1-4.29-1.37,13.68,13.68,0,0,1-3.12-4.74c-.1-.27-.35-.73-.13-1s1-.2,1.3-.14a12.07,12.07,0,0,1,2.85,1.12,29.89,29.89,0,0,1,5.87,3.76l1.41-1.42c-1.81-1.41-3.59-2.89-5.31-4.42-1-.85-2.38.56-1.42,1.41Z" transform="translate(-26.07 -9.9)"/>
      <path class="cls-3" d="M92.66,96.47c.75-1.21,2.26-2.34,3.68-1.47,1.59,1,.07,3.15-.64,4.18-.59.84.55,1.86,1.37,1.37l5.35-3.23a1,1,0,0,0-1-1.73l-5.35,3.23,1.36,1.37A7.64,7.64,0,0,0,99,96.54a3.48,3.48,0,0,0-1.66-3.27c-2.39-1.45-5.1,0-6.41,2.19-.68,1.1,1,2.11,1.72,1Z" transform="translate(-26.07 -9.9)"/>
      <path class="cls-3" d="M105.84,98.45a17.15,17.15,0,0,1,2-3c.39-.45.81-.89,1.25-1.31.23-.22.46-.44.7-.64l.35-.29.16-.13.11-.09a1,1,0,0,0,.21-1.57A1.71,1.71,0,0,0,108.9,91a1,1,0,1,0,.53,1.93c.18-.05-.06,0-.12,0s-.23-.18-.1,0l.2-1.57a19.37,19.37,0,0,0-5.29,6.13,1,1,0,0,0,.36,1.37,1,1,0,0,0,1.36-.36Z" transform="translate(-26.07 -9.9)"/>
      <path class="cls-3" d="M103.82,92.1A20.24,20.24,0,0,0,110,98.47a1,1,0,0,0,1-1.73c-.28-.18-.55-.37-.82-.56L110,96c-.13-.1,0,0-.07-.06a4.08,4.08,0,0,1-.39-.31,20.16,20.16,0,0,1-1.52-1.4c-.47-.49-.91-1-1.33-1.52.1.12-.09-.12-.09-.12l-.12-.16-.32-.45c-.2-.29-.39-.59-.57-.88a1,1,0,0,0-1.73,1Z" transform="translate(-26.07 -9.9)"/>
      <path class="cls-3" d="M105.18,85.77q3.69,3.54,7.45,7a1,1,0,0,0,1.67-.45,2.9,2.9,0,0,0,0-1.84,2.16,2.16,0,0,1-.06-1.42,1.49,1.49,0,0,1,2-.84,1.61,1.61,0,0,1,.73,2.23,5,5,0,0,1-2.68,2.15,1,1,0,0,0-.36,1.37,1,1,0,0,0,1.37.36A6.35,6.35,0,0,0,119,90.78a3.58,3.58,0,0,0-1.6-4.2,3.43,3.43,0,0,0-4.3.65,3.73,3.73,0,0,0-1,2.24,4.14,4.14,0,0,0,.14,1.16,1.82,1.82,0,0,1,.1,1.17l1.67-.44q-3.76-3.47-7.45-7c-.93-.89-2.35.52-1.42,1.42Z" transform="translate(-26.07 -9.9)"/>
      <path class="cls-3" d="M108.64,78.65a1.57,1.57,0,0,1,2.67,0,2.2,2.2,0,0,1,0,1.78c-.24.81-.61,1.59-.79,2.43a1,1,0,0,0,1,1.27c1.29-.12,2.09-1.08,3-1.93l2.75-2.71c.92-.9-.5-2.32-1.42-1.41l-2.37,2.34-1.16,1.14c-.19.18-.5.54-.75.57l1,1.26c.22-1,.76-2,1-3.06a3.77,3.77,0,0,0-.76-3.19,3.56,3.56,0,0,0-5.45,0,1,1,0,0,0,0,1.42,1,1,0,0,0,1.42,0Z" transform="translate(-26.07 -9.9)"/>
      <path class="cls-3" d="M89.57,117.14l.94-2.79s.23-.57.22-.58l-.29.15.38.21,1.27.7,5.33,2.93c.8.44,2-.52,1.37-1.36-3.66-4.79-9.19-7.56-13.08-12.1a13.59,13.59,0,0,1-2.46-4l-.26,1c8.29-10.33,18.09-19.4,27.51-28.68l2-2c.07-.08.92-.9.91-.9h-.28a1.15,1.15,0,0,1,.22.22,5.43,5.43,0,0,1,.42.53l3.63,4.6a1,1,0,0,0,1.41,0,1,1,0,0,0,0-1.41l-2.72-3.46c-.71-.91-1.53-2.47-2.87-2.45a2.22,2.22,0,0,0-1.52.83l-1.59,1.57L107,73.25c-4,4-8.13,8-12.14,12S87.14,93.18,83.59,97.4c-.43.51-.86,1-1.28,1.54s-1.18,1.15-1,1.88a10.41,10.41,0,0,0,1.4,2.81,22.68,22.68,0,0,0,4,4.5c3.44,3.09,7.54,5.57,10.37,9.27L98.43,116c-2.27-1.25-4.51-2.58-6.82-3.76a1.83,1.83,0,0,0-2.76.8c-.5,1.13-.82,2.36-1.21,3.53s1.52,1.75,1.93.53Z" transform="translate(-26.07 -9.9)"/>
    </g>
    <g>
      <g>
        <path class="cls-3" d="M67.06,155.09l6.83-9.54a2,2,0,0,0-.72-2.74,2.07,2.07,0,0,0-2.74.72l-6.83,9.54a2,2,0,0,0,.72,2.74,2.07,2.07,0,0,0,2.74-.72Z" transform="translate(-26.07 -9.9)"/>
        <path class="cls-3" d="M80.46,142.51a11.51,11.51,0,0,1,1.05-1.62l-.31.4a12.21,12.21,0,0,1,2.13-2.12l-.41.31a11.52,11.52,0,0,1,1.69-1.08,2,2,0,0,0,.72-2.74,2.06,2.06,0,0,0-2.74-.72A13.77,13.77,0,0,0,77,140.49a2.11,2.11,0,0,0-.2,1.54,2,2,0,0,0,3.66.48Z" transform="translate(-26.07 -9.9)"/>
        <path class="cls-3" d="M92.07,130.79a14.06,14.06,0,0,1,1.41-2.24l-.31.41a13.91,13.91,0,0,1,2.46-2.45l-.41.31a13.85,13.85,0,0,1,1.6-1.06,2,2,0,0,0-2-3.46,15.63,15.63,0,0,0-6.18,6.48,2.11,2.11,0,0,0-.2,1.54,2.07,2.07,0,0,0,.92,1.19,2,2,0,0,0,2.73-.72Z" transform="translate(-26.07 -9.9)"/>
        <path class="cls-3" d="M102.89,117.46a45.16,45.16,0,0,0,6-7.48,2,2,0,0,0-.72-2.74,2.05,2.05,0,0,0-2.74.72c-.4.63-.81,1.25-1.24,1.86l-.64.87-.16.21s-.28.36-.07.1,0,0,0,0l-.2.25a42.54,42.54,0,0,1-3,3.33,2,2,0,0,0,2.83,2.83Z" transform="translate(-26.07 -9.9)"/>
        <path class="cls-3" d="M113.59,105.81l4-4.62a2.07,2.07,0,0,0,.59-1.41,2,2,0,0,0-2-2,2,2,0,0,0-1.41.59l-4,4.62a2.12,2.12,0,0,0-.59,1.41,2,2,0,0,0,3.42,1.41Z" transform="translate(-26.07 -9.9)"/>
        <path class="cls-3" d="M125.08,94.23A29,29,0,0,1,128,89.58l-.31.4c.38-.48.76-1,1.17-1.41a2.13,2.13,0,0,0,.58-1.42,2.06,2.06,0,0,0-.58-1.41,2,2,0,0,0-2.83,0,30.91,30.91,0,0,0-4.4,6.47,2,2,0,0,0,3.46,2Z" transform="translate(-26.07 -9.9)"/>
        <path class="cls-3" d="M136.22,82c.28-.43.58-.85.89-1.25l-.31.4a22,22,0,0,1,3.85-3.86l-.4.32c.25-.2.51-.39.77-.57a2.12,2.12,0,0,0,.92-1.2,2.07,2.07,0,0,0-.2-1.54,2,2,0,0,0-2.74-.72,24.2,24.2,0,0,0-6.24,6.4,2,2,0,0,0,.72,2.73,2.05,2.05,0,0,0,2.74-.71Z" transform="translate(-26.07 -9.9)"/>
        <path class="cls-3" d="M147.41,68.83a17.36,17.36,0,0,1,1.82-2.92l-.32.41a17.38,17.38,0,0,1,3-3l-.4.31.24-.18a2.24,2.24,0,0,0,.92-1.2,2,2,0,0,0-1.4-2.46,2,2,0,0,0-1.54.2A19,19,0,0,0,144,66.82a2.11,2.11,0,0,0-.2,1.54,2,2,0,0,0,3.65.47Z" transform="translate(-26.07 -9.9)"/>
        <path class="cls-3" d="M156.58,58.7A16,16,0,0,1,158,56.61l-.31.4a17.69,17.69,0,0,1,2-2.16,2,2,0,0,0-1.41-3.41,2.21,2.21,0,0,0-1.42.59,18,18,0,0,0-3.67,4.65,2,2,0,0,0,.71,2.73,2,2,0,0,0,2.74-.71Z" transform="translate(-26.07 -9.9)"/>
      </g>
      <path class="cls-3" d="M84,136.3a20.12,20.12,0,0,1,11.54,14.22,18.39,18.39,0,0,1,.33,5.39,1,1,0,0,0,.87,1,1,1,0,0,0,1.1-.71l.49-1.29a1,1,0,0,0-.7-1.23,1,1,0,0,0-1.23.7l-.49,1.28,2,.27A21.94,21.94,0,0,0,90,137.63a20.92,20.92,0,0,0-5-3.06,1,1,0,0,0-1.37.36A1,1,0,0,0,84,136.3Z" transform="translate(-26.07 -9.9)"/>
      <g>
        <path class="cls-3" d="M98.07,137c2.53-.16,4.65-1.53,7-2.41a7.65,7.65,0,0,1,3.53-.61,2.94,2.94,0,0,0,1.94-.18,1.32,1.32,0,0,0,.65-1.28c-.08-.63-1.08-.64-1,0,.11.81-1.24.49-1.68.45a6.21,6.21,0,0,0-1.43,0,11.66,11.66,0,0,0-3,.88c-1.94.83-3.85,2-6,2.11-.64,0-.64,1,0,1Z" transform="translate(-26.07 -9.9)"/>
        <path class="cls-3" d="M105.17,129.44a135.25,135.25,0,0,1-.71,15.59.5.5,0,0,0,.85.36l.74-.81c.43-.47-.27-1.18-.71-.71l-.74.81.86.35a135.25,135.25,0,0,0,.71-15.59.5.5,0,0,0-1,0Z" transform="translate(-26.07 -9.9)"/>
        <path class="cls-3" d="M111.92,138.28l.47,2.95.84-.49c-.81-.76-1-2-1.9-2.69s-2.22-1-2.94.07a4,4,0,0,0-.5,1.59,5.74,5.74,0,0,0-.12,1.6,2.88,2.88,0,0,0,.52,1.5,2.51,2.51,0,0,0,1.44.91,6.28,6.28,0,0,0,4.25-.6c.58-.29.07-1.16-.5-.86a5.6,5.6,0,0,1-3,.57,2,2,0,0,1-1.17-.42,1.53,1.53,0,0,1-.48-1,4,4,0,0,1,0-1.19,6.41,6.41,0,0,1,.28-1.3.68.68,0,0,1,.72-.53,1.6,1.6,0,0,1,1,.47,5,5,0,0,1,.8,1.22,5.42,5.42,0,0,0,1,1.35.51.51,0,0,0,.84-.49l-.47-2.94a.51.51,0,0,0-.62-.35.52.52,0,0,0-.35.61Z" transform="translate(-26.07 -9.9)"/>
        <path class="cls-3" d="M114,137l.63,7.11,1-.13a12.82,12.82,0,0,1,.1-4.1,8.14,8.14,0,0,1,.52-1.89c.19-.45.49-.63.75-.14a6.27,6.27,0,0,1,.46,1.71,21,21,0,0,1,.34,2.08,27,27,0,0,1,.17,4.31c0,.64,1,.64,1,0a27.69,27.69,0,0,0-.3-5.3,20.08,20.08,0,0,0-.54-2.65,2.12,2.12,0,0,0-1-1.36c-1.54-.76-2.11,1.58-2.33,2.57a14.23,14.23,0,0,0-.18,5c.07.55,1,.42,1-.14L115,137c0-.63-1-.64-1,0Z" transform="translate(-26.07 -9.9)"/>
        <path class="cls-3" d="M119.31,134.9a42.18,42.18,0,0,1-.53-5c0-.64-1-.65-1,0a44.65,44.65,0,0,0,.56,5.27.5.5,0,0,0,1-.27Z" transform="translate(-26.07 -9.9)"/>
        <path class="cls-3" d="M120.13,130.56v4.19h1a23.43,23.43,0,0,1,0-2.65,9.64,9.64,0,0,1,.2-1.31c.05-.22.12-.44.19-.65a.88.88,0,0,1,.16-.32s0,0,.08,0a1,1,0,0,1,.28.37,3.53,3.53,0,0,1,.27,1.13,10.86,10.86,0,0,1,0,2.79.5.5,0,0,0,.5.5.51.51,0,0,0,.5-.5,11.92,11.92,0,0,0,0-2.67,3.87,3.87,0,0,0-.76-2.23,1.09,1.09,0,0,0-1.81.17,6.33,6.33,0,0,0-.61,2.46,19.91,19.91,0,0,0,0,2.89.5.5,0,0,0,1,0v-4.19a.5.5,0,0,0-1,0Z" transform="translate(-26.07 -9.9)"/>
        <path class="cls-3" d="M123.49,130.7a12.1,12.1,0,0,0,2.52,5.51.51.51,0,0,0,.84-.22c.27-2,.46-3.9.55-5.87,0-.64-1-.64-1,0q-.14,2.82-.51,5.61l.83-.22a11.1,11.1,0,0,1-2.26-5.08.5.5,0,0,0-1,.27Z" transform="translate(-26.07 -9.9)"/>
        <path class="cls-3" d="M130.88,126.63a45.37,45.37,0,0,0-2,6.94,46.53,46.53,0,0,0-1,7,6.29,6.29,0,0,0,2,5.38,6.14,6.14,0,0,0,2.35,1.37c.68.13,1.4-.11,1.44-.88s-1-.64-1,0c.11-.1.1-.13,0-.08h-.13a2.66,2.66,0,0,1-.53-.21,9.37,9.37,0,0,1-1.09-.67,4.53,4.53,0,0,1-1.6-2c-.64-1.62-.36-3.47-.15-5.15a50.76,50.76,0,0,1,2.71-11.4c.23-.6-.74-.87-1-.27Z" transform="translate(-26.07 -9.9)"/>
        <path class="cls-3" d="M134.84,126.32l.12,6.38a.5.5,0,0,0,1,0,1.66,1.66,0,0,1,1.38-1.62,1.3,1.3,0,0,1,1.48,1.13,1.14,1.14,0,0,1-1.34,1.18,7,7,0,0,0-2.65-.17c-.62.19-.35,1.16.26,1a3.44,3.44,0,0,1,1.71.11,3,3,0,0,0,1.75-.07,2.18,2.18,0,0,0,1.14-2.71,2.39,2.39,0,0,0-2.73-1.39,2.72,2.72,0,0,0-2,2.57h1l-.12-6.38a.5.5,0,0,0-1,0Z" transform="translate(-26.07 -9.9)"/>
        <path class="cls-3" d="M132.47,137.25q4.69,0,9.39-.25c.64,0,.65-1,0-1q-4.7.27-9.39.25a.5.5,0,0,0,0,1Z" transform="translate(-26.07 -9.9)"/>
        <path class="cls-3" d="M137.21,140.06a19.76,19.76,0,0,1,.35,5.37h1a9.56,9.56,0,0,0-1.33-3.85,9.41,9.41,0,0,0-1.28-1.66,4.15,4.15,0,0,0-1.66-1.15,1.69,1.69,0,0,0-1.79.49A2.49,2.49,0,0,0,132,141a4.58,4.58,0,0,0,6.27,3.93.51.51,0,0,0,.35-.61.5.5,0,0,0-.61-.35,3.7,3.7,0,0,1-3.15-.14,3.63,3.63,0,0,1-1.77-2.33c-.17-.69-.12-2.09,1-1.72a3.49,3.49,0,0,1,1.24.95,7.89,7.89,0,0,1,1,1.3,8.26,8.26,0,0,1,1.25,3.43.5.5,0,0,0,1,0,21,21,0,0,0-.39-5.64c-.13-.62-1.09-.36-1,.27Z" transform="translate(-26.07 -9.9)"/>
        <path class="cls-3" d="M139.39,126.13a25.65,25.65,0,0,1,4.29,11.46,25.34,25.34,0,0,1,0,6,9.33,9.33,0,0,1-.66,2.91c-.38.76-1.44,1.64-2.29.95-.49-.41-1.2.3-.7.7a2.51,2.51,0,0,0,3.67-.83c.91-1.41,1-3.44,1.11-5.07a26.46,26.46,0,0,0-4.54-16.65c-.36-.53-1.23,0-.86.5Z" transform="translate(-26.07 -9.9)"/>
      </g>
    </g>
  </g>
</svg>
