<?xml version="1.0" encoding="utf-8" standalone="no"?>
<!DOCTYPE svg PUBLIC "-//W3C//DTD SVG 1.1//EN"
  "http://www.w3.org/Graphics/SVG/1.1/DTD/svg11.dtd">
<!-- Created with matplotlib (https://matplotlib.org/) -->
<svg height="345.6pt" version="1.1" viewBox="0 0 460.8 345.6" width="460.8pt" xmlns="http://www.w3.org/2000/svg" xmlns:xlink="http://www.w3.org/1999/xlink">
 <defs>
  <style type="text/css">
*{stroke-linecap:butt;stroke-linejoin:round;}
  </style>
 </defs>
 <g id="figure_1">
  <g id="patch_1">
   <path d="M 0 345.6 
L 460.8 345.6 
L 460.8 0 
L 0 0 
z
" style="fill:#ffffff;"/>
  </g>
  <g id="axes_1">
   <g id="patch_2">
    <path d="M 57.6 307.584 
L 414.72 307.584 
L 414.72 41.472 
L 57.6 41.472 
z
" style="fill:#ffffff;"/>
   </g>
   <g id="matplotlib.axis_1">
    <g id="xtick_1">
     <g id="line2d_1">
      <path clip-path="url(#p44bb9ae177)" d="M 116.729756 307.584 
L 116.729756 41.472 
" style="fill:none;stroke:#b0b0b0;stroke-linecap:square;stroke-width:0.8;"/>
     </g>
     <g id="line2d_2">
      <defs>
       <path d="M 0 0 
L 0 3.5 
" id="m61606468b7" style="stroke:#000000;stroke-width:0.8;"/>
      </defs>
      <g>
       <use style="stroke:#000000;stroke-width:0.8;" x="116.729756" xlink:href="#m61606468b7" y="165.856361"/>
      </g>
     </g>
     <g id="text_1">
      <!-- −20 -->
      <defs>
       <path d="M 10.59375 35.5 
L 73.1875 35.5 
L 73.1875 27.203125 
L 10.59375 27.203125 
z
" id="DejaVuSans-8722"/>
       <path d="M 19.1875 8.296875 
L 53.609375 8.296875 
L 53.609375 0 
L 7.328125 0 
L 7.328125 8.296875 
Q 12.9375 14.109375 22.625 23.890625 
Q 32.328125 33.6875 34.8125 36.53125 
Q 39.546875 41.84375 41.421875 45.53125 
Q 43.3125 49.21875 43.3125 52.78125 
Q 43.3125 58.59375 39.234375 62.25 
Q 35.15625 65.921875 28.609375 65.921875 
Q 23.96875 65.921875 18.8125 64.3125 
Q 13.671875 62.703125 7.8125 59.421875 
L 7.8125 69.390625 
Q 13.765625 71.78125 18.9375 73 
Q 24.125 74.21875 28.421875 74.21875 
Q 39.75 74.21875 46.484375 68.546875 
Q 53.21875 62.890625 53.21875 53.421875 
Q 53.21875 48.921875 51.53125 44.890625 
Q 49.859375 40.875 45.40625 35.40625 
Q 44.1875 33.984375 37.640625 27.21875 
Q 31.109375 20.453125 19.1875 8.296875 
z
" id="DejaVuSans-50"/>
       <path d="M 31.78125 66.40625 
Q 24.171875 66.40625 20.328125 58.90625 
Q 16.5 51.421875 16.5 36.375 
Q 16.5 21.390625 20.328125 13.890625 
Q 24.171875 6.390625 31.78125 6.390625 
Q 39.453125 6.390625 43.28125 13.890625 
Q 47.125 21.390625 47.125 36.375 
Q 47.125 51.421875 43.28125 58.90625 
Q 39.453125 66.40625 31.78125 66.40625 
z
M 31.78125 74.21875 
Q 44.046875 74.21875 50.515625 64.515625 
Q 56.984375 54.828125 56.984375 36.375 
Q 56.984375 17.96875 50.515625 8.265625 
Q 44.046875 -1.421875 31.78125 -1.421875 
Q 19.53125 -1.421875 13.0625 8.265625 
Q 6.59375 17.96875 6.59375 36.375 
Q 6.59375 54.828125 13.0625 64.515625 
Q 19.53125 74.21875 31.78125 74.21875 
z
" id="DejaVuSans-48"/>
      </defs>
      <g transform="translate(106.177412 180.454798)scale(0.1 -0.1)">
       <use xlink:href="#DejaVuSans-8722"/>
       <use x="83.789062" xlink:href="#DejaVuSans-50"/>
       <use x="147.412109" xlink:href="#DejaVuSans-48"/>
      </g>
     </g>
    </g>
    <g id="xtick_2">
     <g id="line2d_3">
      <path clip-path="url(#p44bb9ae177)" d="M 183.850314 307.584 
L 183.850314 41.472 
" style="fill:none;stroke:#b0b0b0;stroke-linecap:square;stroke-width:0.8;"/>
     </g>
     <g id="line2d_4">
      <g>
       <use style="stroke:#000000;stroke-width:0.8;" x="183.850314" xlink:href="#m61606468b7" y="165.856361"/>
      </g>
     </g>
     <g id="text_2">
      <!-- 0 -->
      <g transform="translate(180.669064 180.454798)scale(0.1 -0.1)">
       <use xlink:href="#DejaVuSans-48"/>
      </g>
     </g>
    </g>
    <g id="xtick_3">
     <g id="line2d_5">
      <path clip-path="url(#p44bb9ae177)" d="M 250.970872 307.584 
L 250.970872 41.472 
" style="fill:none;stroke:#b0b0b0;stroke-linecap:square;stroke-width:0.8;"/>
     </g>
     <g id="line2d_6">
      <g>
       <use style="stroke:#000000;stroke-width:0.8;" x="250.970872" xlink:href="#m61606468b7" y="165.856361"/>
      </g>
     </g>
     <g id="text_3">
      <!-- 20 -->
      <g transform="translate(244.608372 180.454798)scale(0.1 -0.1)">
       <use xlink:href="#DejaVuSans-50"/>
       <use x="63.623047" xlink:href="#DejaVuSans-48"/>
      </g>
     </g>
    </g>
    <g id="xtick_4">
     <g id="line2d_7">
      <path clip-path="url(#p44bb9ae177)" d="M 318.09143 307.584 
L 318.09143 41.472 
" style="fill:none;stroke:#b0b0b0;stroke-linecap:square;stroke-width:0.8;"/>
     </g>
     <g id="line2d_8">
      <g>
       <use style="stroke:#000000;stroke-width:0.8;" x="318.09143" xlink:href="#m61606468b7" y="165.856361"/>
      </g>
     </g>
     <g id="text_4">
      <!-- 40 -->
      <defs>
       <path d="M 37.796875 64.3125 
L 12.890625 25.390625 
L 37.796875 25.390625 
z
M 35.203125 72.90625 
L 47.609375 72.90625 
L 47.609375 25.390625 
L 58.015625 25.390625 
L 58.015625 17.1875 
L 47.609375 17.1875 
L 47.609375 0 
L 37.796875 0 
L 37.796875 17.1875 
L 4.890625 17.1875 
L 4.890625 26.703125 
z
" id="DejaVuSans-52"/>
      </defs>
      <g transform="translate(311.72893 180.454798)scale(0.1 -0.1)">
       <use xlink:href="#DejaVuSans-52"/>
       <use x="63.623047" xlink:href="#DejaVuSans-48"/>
      </g>
     </g>
    </g>
    <g id="xtick_5">
     <g id="line2d_9">
      <path clip-path="url(#p44bb9ae177)" d="M 385.211988 307.584 
L 385.211988 41.472 
" style="fill:none;stroke:#b0b0b0;stroke-linecap:square;stroke-width:0.8;"/>
     </g>
     <g id="line2d_10">
      <g>
       <use style="stroke:#000000;stroke-width:0.8;" x="385.211988" xlink:href="#m61606468b7" y="165.856361"/>
      </g>
     </g>
     <g id="text_5">
      <!-- 60 -->
      <defs>
       <path d="M 33.015625 40.375 
Q 26.375 40.375 22.484375 35.828125 
Q 18.609375 31.296875 18.609375 23.390625 
Q 18.609375 15.53125 22.484375 10.953125 
Q 26.375 6.390625 33.015625 6.390625 
Q 39.65625 6.390625 43.53125 10.953125 
Q 47.40625 15.53125 47.40625 23.390625 
Q 47.40625 31.296875 43.53125 35.828125 
Q 39.65625 40.375 33.015625 40.375 
z
M 52.59375 71.296875 
L 52.59375 62.3125 
Q 48.875 64.0625 45.09375 64.984375 
Q 41.3125 65.921875 37.59375 65.921875 
Q 27.828125 65.921875 22.671875 59.328125 
Q 17.53125 52.734375 16.796875 39.40625 
Q 19.671875 43.65625 24.015625 45.921875 
Q 28.375 48.1875 33.59375 48.1875 
Q 44.578125 48.1875 50.953125 41.515625 
Q 57.328125 34.859375 57.328125 23.390625 
Q 57.328125 12.15625 50.6875 5.359375 
Q 44.046875 -1.421875 33.015625 -1.421875 
Q 20.359375 -1.421875 13.671875 8.265625 
Q 6.984375 17.96875 6.984375 36.375 
Q 6.984375 53.65625 15.1875 63.9375 
Q 23.390625 74.21875 37.203125 74.21875 
Q 40.921875 74.21875 44.703125 73.484375 
Q 48.484375 72.75 52.59375 71.296875 
z
" id="DejaVuSans-54"/>
      </defs>
      <g transform="translate(378.849488 180.454798)scale(0.1 -0.1)">
       <use xlink:href="#DejaVuSans-54"/>
       <use x="63.623047" xlink:href="#DejaVuSans-48"/>
      </g>
     </g>
    </g>
    <g id="text_6">
     <!-- real -->
     <defs>
      <path d="M 41.109375 46.296875 
Q 39.59375 47.171875 37.8125 47.578125 
Q 36.03125 48 33.890625 48 
Q 26.265625 48 22.1875 43.046875 
Q 18.109375 38.09375 18.109375 28.8125 
L 18.109375 0 
L 9.078125 0 
L 9.078125 54.6875 
L 18.109375 54.6875 
L 18.109375 46.1875 
Q 20.953125 51.171875 25.484375 53.578125 
Q 30.03125 56 36.53125 56 
Q 37.453125 56 38.578125 55.875 
Q 39.703125 55.765625 41.0625 55.515625 
z
" id="DejaVuSans-114"/>
      <path d="M 56.203125 29.59375 
L 56.203125 25.203125 
L 14.890625 25.203125 
Q 15.484375 15.921875 20.484375 11.0625 
Q 25.484375 6.203125 34.421875 6.203125 
Q 39.59375 6.203125 44.453125 7.46875 
Q 49.3125 8.734375 54.109375 11.28125 
L 54.109375 2.78125 
Q 49.265625 0.734375 44.1875 -0.34375 
Q 39.109375 -1.421875 33.890625 -1.421875 
Q 20.796875 -1.421875 13.15625 6.1875 
Q 5.515625 13.8125 5.515625 26.8125 
Q 5.515625 40.234375 12.765625 48.109375 
Q 20.015625 56 32.328125 56 
Q 43.359375 56 49.78125 48.890625 
Q 56.203125 41.796875 56.203125 29.59375 
z
M 47.21875 32.234375 
Q 47.125 39.59375 43.09375 43.984375 
Q 39.0625 48.390625 32.421875 48.390625 
Q 24.90625 48.390625 20.390625 44.140625 
Q 15.875 39.890625 15.1875 32.171875 
z
" id="DejaVuSans-101"/>
      <path d="M 34.28125 27.484375 
Q 23.390625 27.484375 19.1875 25 
Q 14.984375 22.515625 14.984375 16.5 
Q 14.984375 11.71875 18.140625 8.90625 
Q 21.296875 6.109375 26.703125 6.109375 
Q 34.1875 6.109375 38.703125 11.40625 
Q 43.21875 16.703125 43.21875 25.484375 
L 43.21875 27.484375 
z
M 52.203125 31.203125 
L 52.203125 0 
L 43.21875 0 
L 43.21875 8.296875 
Q 40.140625 3.328125 35.546875 0.953125 
Q 30.953125 -1.421875 24.3125 -1.421875 
Q 15.921875 -1.421875 10.953125 3.296875 
Q 6 8.015625 6 15.921875 
Q 6 25.140625 12.171875 29.828125 
Q 18.359375 34.515625 30.609375 34.515625 
L 43.21875 34.515625 
L 43.21875 35.40625 
Q 43.21875 41.609375 39.140625 45 
Q 35.0625 48.390625 27.6875 48.390625 
Q 23 48.390625 18.546875 47.265625 
Q 14.109375 46.140625 10.015625 43.890625 
L 10.015625 52.203125 
Q 14.9375 54.109375 19.578125 55.046875 
Q 24.21875 56 28.609375 56 
Q 40.484375 56 46.34375 49.84375 
Q 52.203125 43.703125 52.203125 31.203125 
z
" id="DejaVuSans-97"/>
      <path d="M 9.421875 75.984375 
L 18.40625 75.984375 
L 18.40625 0 
L 9.421875 0 
z
" id="DejaVuSans-108"/>
     </defs>
     <g transform="translate(226.576406 194.132923)scale(0.1 -0.1)">
      <use xlink:href="#DejaVuSans-114"/>
      <use x="41.082031" xlink:href="#DejaVuSans-101"/>
      <use x="102.605469" xlink:href="#DejaVuSans-97"/>
      <use x="163.884766" xlink:href="#DejaVuSans-108"/>
     </g>
    </g>
   </g>
   <g id="matplotlib.axis_2">
    <g id="ytick_1">
     <g id="line2d_11">
      <path clip-path="url(#p44bb9ae177)" d="M 57.6 277.702103 
L 414.72 277.702103 
" style="fill:none;stroke:#b0b0b0;stroke-linecap:square;stroke-width:0.8;"/>
     </g>
     <g id="line2d_12">
      <defs>
       <path d="M 0 0 
L -3.5 0 
" id="m71f8e9216e" style="stroke:#000000;stroke-width:0.8;"/>
      </defs>
      <g>
       <use style="stroke:#000000;stroke-width:0.8;" x="183.850314" xlink:href="#m71f8e9216e" y="277.702103"/>
      </g>
     </g>
     <g id="text_7">
      <!-- −40 -->
      <g transform="translate(155.745626 281.501322)scale(0.1 -0.1)">
       <use xlink:href="#DejaVuSans-8722"/>
       <use x="83.789062" xlink:href="#DejaVuSans-52"/>
       <use x="147.412109" xlink:href="#DejaVuSans-48"/>
      </g>
     </g>
    </g>
    <g id="ytick_2">
     <g id="line2d_13">
      <path clip-path="url(#p44bb9ae177)" d="M 57.6 221.779232 
L 414.72 221.779232 
" style="fill:none;stroke:#b0b0b0;stroke-linecap:square;stroke-width:0.8;"/>
     </g>
     <g id="line2d_14">
      <g>
       <use style="stroke:#000000;stroke-width:0.8;" x="183.850314" xlink:href="#m71f8e9216e" y="221.779232"/>
      </g>
     </g>
     <g id="text_8">
      <!-- −20 -->
      <g transform="translate(155.745626 225.578451)scale(0.1 -0.1)">
       <use xlink:href="#DejaVuSans-8722"/>
       <use x="83.789062" xlink:href="#DejaVuSans-50"/>
       <use x="147.412109" xlink:href="#DejaVuSans-48"/>
      </g>
     </g>
    </g>
    <g id="ytick_3">
     <g id="line2d_15">
      <path clip-path="url(#p44bb9ae177)" d="M 57.6 165.856361 
L 414.72 165.856361 
" style="fill:none;stroke:#b0b0b0;stroke-linecap:square;stroke-width:0.8;"/>
     </g>
     <g id="line2d_16">
      <g>
       <use style="stroke:#000000;stroke-width:0.8;" x="183.850314" xlink:href="#m71f8e9216e" y="165.856361"/>
      </g>
     </g>
     <g id="text_9">
      <!-- 0 -->
      <g transform="translate(170.487814 169.655579)scale(0.1 -0.1)">
       <use xlink:href="#DejaVuSans-48"/>
      </g>
     </g>
    </g>
    <g id="ytick_4">
     <g id="line2d_17">
      <path clip-path="url(#p44bb9ae177)" d="M 57.6 109.933489 
L 414.72 109.933489 
" style="fill:none;stroke:#b0b0b0;stroke-linecap:square;stroke-width:0.8;"/>
     </g>
     <g id="line2d_18">
      <g>
       <use style="stroke:#000000;stroke-width:0.8;" x="183.850314" xlink:href="#m71f8e9216e" y="109.933489"/>
      </g>
     </g>
     <g id="text_10">
      <!-- 20 -->
      <g transform="translate(164.125314 113.732708)scale(0.1 -0.1)">
       <use xlink:href="#DejaVuSans-50"/>
       <use x="63.623047" xlink:href="#DejaVuSans-48"/>
      </g>
     </g>
    </g>
    <g id="ytick_5">
     <g id="line2d_19">
      <path clip-path="url(#p44bb9ae177)" d="M 57.6 54.010618 
L 414.72 54.010618 
" style="fill:none;stroke:#b0b0b0;stroke-linecap:square;stroke-width:0.8;"/>
     </g>
     <g id="line2d_20">
      <g>
       <use style="stroke:#000000;stroke-width:0.8;" x="183.850314" xlink:href="#m71f8e9216e" y="54.010618"/>
      </g>
     </g>
     <g id="text_11">
      <!-- 40 -->
      <g transform="translate(164.125314 57.809837)scale(0.1 -0.1)">
       <use xlink:href="#DejaVuSans-52"/>
       <use x="63.623047" xlink:href="#DejaVuSans-48"/>
      </g>
     </g>
    </g>
    <g id="text_12">
     <!-- imaginary -->
     <defs>
      <path d="M 9.421875 54.6875 
L 18.40625 54.6875 
L 18.40625 0 
L 9.421875 0 
z
M 9.421875 75.984375 
L 18.40625 75.984375 
L 18.40625 64.59375 
L 9.421875 64.59375 
z
" id="DejaVuSans-105"/>
      <path d="M 52 44.1875 
Q 55.375 50.25 60.0625 53.125 
Q 64.75 56 71.09375 56 
Q 79.640625 56 84.28125 50.015625 
Q 88.921875 44.046875 88.921875 33.015625 
L 88.921875 0 
L 79.890625 0 
L 79.890625 32.71875 
Q 79.890625 40.578125 77.09375 44.375 
Q 74.3125 48.1875 68.609375 48.1875 
Q 61.625 48.1875 57.5625 43.546875 
Q 53.515625 38.921875 53.515625 30.90625 
L 53.515625 0 
L 44.484375 0 
L 44.484375 32.71875 
Q 44.484375 40.625 41.703125 44.40625 
Q 38.921875 48.1875 33.109375 48.1875 
Q 26.21875 48.1875 22.15625 43.53125 
Q 18.109375 38.875 18.109375 30.90625 
L 18.109375 0 
L 9.078125 0 
L 9.078125 54.6875 
L 18.109375 54.6875 
L 18.109375 46.1875 
Q 21.1875 51.21875 25.484375 53.609375 
Q 29.78125 56 35.6875 56 
Q 41.65625 56 45.828125 52.96875 
Q 50 49.953125 52 44.1875 
z
" id="DejaVuSans-109"/>
      <path d="M 45.40625 27.984375 
Q 45.40625 37.75 41.375 43.109375 
Q 37.359375 48.484375 30.078125 48.484375 
Q 22.859375 48.484375 18.828125 43.109375 
Q 14.796875 37.75 14.796875 27.984375 
Q 14.796875 18.265625 18.828125 12.890625 
Q 22.859375 7.515625 30.078125 7.515625 
Q 37.359375 7.515625 41.375 12.890625 
Q 45.40625 18.265625 45.40625 27.984375 
z
M 54.390625 6.78125 
Q 54.390625 -7.171875 48.1875 -13.984375 
Q 42 -20.796875 29.203125 -20.796875 
Q 24.46875 -20.796875 20.265625 -20.09375 
Q 16.0625 -19.390625 12.109375 -17.921875 
L 12.109375 -9.1875 
Q 16.0625 -11.328125 19.921875 -12.34375 
Q 23.78125 -13.375 27.78125 -13.375 
Q 36.625 -13.375 41.015625 -8.765625 
Q 45.40625 -4.15625 45.40625 5.171875 
L 45.40625 9.625 
Q 42.625 4.78125 38.28125 2.390625 
Q 33.9375 0 27.875 0 
Q 17.828125 0 11.671875 7.65625 
Q 5.515625 15.328125 5.515625 27.984375 
Q 5.515625 40.671875 11.671875 48.328125 
Q 17.828125 56 27.875 56 
Q 33.9375 56 38.28125 53.609375 
Q 42.625 51.21875 45.40625 46.390625 
L 45.40625 54.6875 
L 54.390625 54.6875 
z
" id="DejaVuSans-103"/>
      <path d="M 54.890625 33.015625 
L 54.890625 0 
L 45.90625 0 
L 45.90625 32.71875 
Q 45.90625 40.484375 42.875 44.328125 
Q 39.84375 48.1875 33.796875 48.1875 
Q 26.515625 48.1875 22.3125 43.546875 
Q 18.109375 38.921875 18.109375 30.90625 
L 18.109375 0 
L 9.078125 0 
L 9.078125 54.6875 
L 18.109375 54.6875 
L 18.109375 46.1875 
Q 21.34375 51.125 25.703125 53.5625 
Q 30.078125 56 35.796875 56 
Q 45.21875 56 50.046875 50.171875 
Q 54.890625 44.34375 54.890625 33.015625 
z
" id="DejaVuSans-110"/>
      <path d="M 32.171875 -5.078125 
Q 28.375 -14.84375 24.75 -17.8125 
Q 21.140625 -20.796875 15.09375 -20.796875 
L 7.90625 -20.796875 
L 7.90625 -13.28125 
L 13.1875 -13.28125 
Q 16.890625 -13.28125 18.9375 -11.515625 
Q 21 -9.765625 23.484375 -3.21875 
L 25.09375 0.875 
L 2.984375 54.6875 
L 12.5 54.6875 
L 29.59375 11.921875 
L 46.6875 54.6875 
L 56.203125 54.6875 
z
" id="DejaVuSans-121"/>
     </defs>
     <g transform="translate(149.665939 199.662375)rotate(-90)scale(0.1 -0.1)">
      <use xlink:href="#DejaVuSans-105"/>
      <use x="27.783203" xlink:href="#DejaVuSans-109"/>
      <use x="125.195312" xlink:href="#DejaVuSans-97"/>
      <use x="186.474609" xlink:href="#DejaVuSans-103"/>
      <use x="249.951172" xlink:href="#DejaVuSans-105"/>
      <use x="277.734375" xlink:href="#DejaVuSans-110"/>
      <use x="341.113281" xlink:href="#DejaVuSans-97"/>
      <use x="402.392578" xlink:href="#DejaVuSans-114"/>
      <use x="443.505859" xlink:href="#DejaVuSans-121"/>
     </g>
    </g>
   </g>
   <g id="line2d_21">
    <path clip-path="url(#p44bb9ae177)" d="M 187.206342 165.856361 
L 398.487273 165.856361 
L 398.487273 165.856361 
" style="fill:none;stroke:#ff0000;stroke-linecap:square;stroke-width:1.5;"/>
   </g>
   <g id="line2d_22">
    <path clip-path="url(#p44bb9ae177)" d="M 187.206342 165.856361 
L 187.655915 165.112676 
L 187.913909 164.258853 
L 187.963492 163.327927 
L 187.791833 162.34459 
L 187.387909 161.338475 
L 186.742041 160.336434 
L 185.85593 159.376344 
L 184.724348 158.482412 
L 183.357246 157.690443 
L 181.772812 157.033822 
L 179.996604 156.542091 
L 178.060332 156.239745 
L 176.000392 156.145315 
L 173.856241 156.270755 
L 171.668707 156.621158 
L 169.45748 157.20132 
L 167.281119 158.001296 
L 165.154508 159.018626 
L 163.110117 160.241709 
L 161.156034 161.671436 
L 159.33972 163.276525 
L 157.663194 165.056319 
L 156.146617 166.993331 
L 154.806491 169.067931 
L 153.655409 171.258848 
L 152.69 173.576194 
L 151.922161 176.003884 
L 151.361151 178.524893 
L 151.013507 181.121543 
L 150.883007 183.775791 
L 150.973827 186.512497 
L 151.28847 189.273976 
L 151.833889 192.088259 
L 152.615894 194.941732 
L 153.638807 197.82046 
L 154.905434 200.710307 
L 156.417058 203.59706 
L 158.173442 206.466553 
L 160.172847 209.30478 
L 162.412065 212.098016 
L 164.886463 214.832926 
L 167.643725 217.546642 
L 170.633517 220.17539 
L 173.84741 222.70683 
L 177.345755 225.176197 
L 181.058723 227.522772 
L 184.974442 229.735961 
L 189.166619 231.847292 
L 193.545808 233.802228 
L 198.097247 235.59256 
L 202.90834 237.244144 
L 207.870606 238.711725 
L 212.9671 239.989985 
L 218.29888 241.097036 
L 223.739663 241.999863 
L 229.399259 242.709957 
L 235.140287 243.203764 
L 240.943778 243.481247 
L 246.932232 243.542594 
L 252.953637 243.380965 
L 258.989051 242.999781 
L 265.172522 242.385913 
L 271.34002 241.551372 
L 277.632225 240.47289 
L 283.878403 239.175892 
L 290.061174 237.66914 
L 296.330068 235.912994 
L 302.507229 233.954489 
L 308.746681 231.742071 
L 314.867267 229.337686 
L 321.026529 226.677243 
L 327.041405 223.838062 
L 333.071911 220.742966 
L 338.934505 217.484993 
L 344.790584 213.97342 
L 350.457549 210.31722 
L 356.097046 206.411752 
L 361.528835 202.382033 
L 366.913654 198.10922 
L 372.075006 193.734364 
L 377.171555 189.124233 
L 382.192562 184.275634 
L 386.96923 179.353595 
L 391.654399 174.202979 
L 396.086388 169.004664 
L 398.487155 166.04363 
L 398.487155 166.04363 
" style="fill:none;stroke:#0000ff;stroke-linecap:square;stroke-width:1.5;"/>
   </g>
   <g id="line2d_23">
    <path clip-path="url(#p44bb9ae177)" d="M 187.206342 165.856361 
L 187.381715 165.11404 
L 187.33847 164.337021 
L 187.073092 163.558181 
L 186.580015 162.807366 
L 185.864809 162.128673 
L 184.945212 161.564621 
L 183.850314 161.153826 
L 182.61911 160.928936 
L 181.29854 160.914951 
L 179.955746 161.124483 
L 178.660186 161.550175 
L 177.447738 162.181873 
L 176.375206 162.989148 
L 175.463597 163.952642 
L 174.748325 165.027171 
L 174.228167 166.209189 
L 173.923079 167.452114 
L 173.834295 168.742832 
L 173.965165 170.052819 
L 174.320348 171.374865 
L 174.902747 172.682685 
L 175.710659 173.949969 
L 176.756343 175.169798 
L 178.018196 176.29586 
L 179.481286 177.303818 
L 181.155922 178.184716 
L 182.996951 178.900215 
L 184.9783 179.432392 
L 187.071415 179.766603 
L 189.245902 179.89169 
L 191.47018 179.800093 
L 193.712127 179.487884 
L 195.93971 178.954712 
L 198.121579 178.203683 
L 200.227614 177.241164 
L 202.19097 176.101484 
L 204.028009 174.780124 
L 205.716613 173.291134 
L 207.237361 171.650401 
L 208.54644 169.915609 
L 209.665429 168.071449 
L 210.584999 166.136286 
L 211.298712 164.128789 
L 211.812739 162.016198 
L 212.106111 159.864357 
L 212.179892 157.692187 
L 212.031191 155.461492 
L 211.661016 153.244067 
L 211.058867 150.99933 
L 210.241098 148.800701 
L 209.188763 146.606151 
L 207.896764 144.431728 
L 206.361454 142.294203 
L 204.630758 140.264963 
L 202.666983 138.303784 
L 200.47128 136.427651 
L 198.046446 134.653857 
L 195.471499 133.042883 
L 192.689663 131.561584 
L 189.708333 130.226171 
L 186.536572 129.052742 
L 183.280553 128.082286 
L 179.866134 127.294229 
L 176.306289 126.702453 
L 172.722649 126.328218 
L 169.030129 126.163533 
L 165.244736 126.219458 
L 161.498249 126.494495 
L 157.697555 126.99578 
L 153.860718 127.731185 
L 150.123689 128.674491 
L 146.388945 129.849984 
L 142.791137 131.214454 
L 139.231491 132.804333 
L 135.840599 134.559721 
L 132.52036 136.52958 
L 129.394728 138.637932 
L 126.368233 140.946412 
L 123.555833 143.36385 
L 120.866633 145.964453 
L 118.315969 148.745355 
L 116.002018 151.594258 
L 113.84503 154.603362 
L 111.929146 157.647986 
L 110.183822 160.831842 
L 108.621163 164.149377 
L 107.301983 167.459609 
L 106.173151 170.881616 
L 105.244874 174.408749 
L 104.527097 178.033802 
L 104.045024 181.598774 
L 103.774075 185.239488 
L 103.722165 188.948131 
L 103.896853 192.716432 
L 104.305305 196.53567 
L 104.922342 200.235098 
L 105.765809 203.964464 
L 106.840836 207.714982 
L 108.152113 211.477529 
L 109.703866 215.242653 
L 111.499825 219.000589 
L 113.543207 222.741277 
L 115.731735 226.293651 
L 118.150937 229.811504 
L 120.802174 233.285356 
L 123.686289 236.705536 
L 126.803598 240.062204 
L 130.153867 243.345364 
L 133.7363 246.544889 
L 137.549518 249.650539 
L 141.591549 252.651977 
L 145.859814 255.538801 
L 150.351112 258.300556 
L 155.061607 260.926765 
L 159.986825 263.40695 
L 164.883768 265.628577 
L 169.966667 267.698579 
L 175.229946 269.607969 
L 180.667474 271.347846 
L 186.272557 272.909413 
L 192.03794 274.284003 
L 197.955805 275.4631 
L 204.01777 276.43836 
L 210.214891 277.20164 
L 216.23388 277.724241 
L 222.35817 278.040741 
L 228.578635 278.144721 
L 234.8857 278.030001 
L 241.269354 277.69066 
L 247.719148 277.121051 
L 254.224213 276.315825 
L 260.444945 275.328032 
L 266.695363 274.119009 
L 272.965134 272.685006 
L 279.243614 271.022569 
L 285.519858 269.128561 
L 291.782636 267.000174 
L 298.020439 264.63494 
L 303.896236 262.173798 
L 309.728843 259.496698 
L 315.507857 256.602455 
L 321.222696 253.490206 
L 326.862615 250.159409 
L 332.416718 246.609861 
L 337.573519 243.056772 
L 342.634532 239.30909 
L 347.590271 235.367508 
L 352.431173 231.233011 
L 357.14761 226.906882 
L 361.729904 222.390709 
L 365.911405 217.968281 
L 369.957345 213.381017 
L 373.859585 208.631 
L 377.609986 203.720563 
L 381.200419 198.652293 
L 384.622773 193.429035 
L 387.868966 188.053893 
L 390.93096 182.530232 
L 393.627181 177.220136 
L 396.147954 171.785891 
L 398.486802 166.230899 
L 398.486802 166.230899 
" style="fill:none;stroke:#008000;stroke-linecap:square;stroke-width:1.5;"/>
   </g>
   <g id="line2d_24">
    <path clip-path="url(#p44bb9ae177)" d="M 187.206342 165.856361 
L 187.286248 165.121339 
L 187.142872 164.370608 
L 186.777965 163.650798 
L 186.198029 162.997485 
L 185.411207 162.447142 
L 184.442871 162.044653 
L 183.347786 161.832246 
L 182.180574 161.834339 
L 181.018076 162.059378 
L 179.920678 162.498966 
L 178.956452 163.122641 
L 178.163852 163.893903 
L 177.558853 164.787987 
L 177.162305 165.768825 
L 176.984563 166.799254 
L 177.028904 167.862262 
L 177.299366 168.924292 
L 177.792541 169.952227 
L 178.513421 170.932029 
L 179.437729 171.813667 
L 180.565304 172.583236 
L 181.877708 173.209032 
L 183.349536 173.661259 
L 184.917522 173.910327 
L 186.539438 173.946306 
L 188.205332 173.759756 
L 189.83966 173.350098 
L 191.368892 172.74069 
L 192.789215 171.939162 
L 194.068081 170.963487 
L 195.177701 169.835216 
L 196.076699 168.608748 
L 196.775915 167.285631 
L 197.265057 165.891474 
L 197.538875 164.451973 
L 197.595539 162.954276 
L 197.42895 161.459124 
L 197.033748 159.951947 
L 196.422743 158.494423 
L 195.585988 157.070896 
L 194.5241 155.705024 
L 193.241175 154.42086 
L 191.74492 153.242506 
L 190.04673 152.193746 
L 188.16171 151.297665 
L 186.164645 150.592825 
L 184.028865 150.072542 
L 181.778082 149.754085 
L 179.438931 149.6527 
L 177.106053 149.774691 
L 174.746451 150.123865 
L 172.456255 150.68765 
L 170.263778 151.45065 
L 168.131772 152.426784 
L 166.147769 153.576478 
L 164.274866 154.921481 
L 162.590139 156.406256 
L 161.104465 158.006529 
L 159.784532 159.756785 
L 158.684472 161.582865 
L 157.776875 163.527105 
L 157.098279 165.506217 
L 156.629278 167.569622 
L 156.387309 169.627936 
L 156.362838 171.736532 
L 156.564675 173.879965 
L 156.980467 175.964553 
L 157.618568 178.050981 
L 158.482553 180.123288 
L 159.574398 182.165013 
L 160.894407 184.159304 
L 162.441137 186.089027 
L 164.211353 187.936894 
L 166.199977 189.685585 
L 168.400058 191.317882 
L 170.802759 192.816804 
L 173.397346 194.165747 
L 176.171203 195.348627 
L 178.998261 196.316342 
L 181.963622 197.102696 
L 185.051248 197.695432 
L 188.243643 198.083225 
L 191.521921 198.255792 
L 194.865894 198.204005 
L 198.123293 197.935298 
L 201.401667 197.44608 
L 204.680189 196.731792 
L 207.937296 195.789197 
L 211.023384 194.667783 
L 214.049238 193.333864 
L 216.994486 191.788335 
L 219.722344 190.110662 
L 222.3391 188.243759 
L 224.826604 186.191878 
L 227.068392 184.061104 
L 229.159862 181.771782 
L 231.085727 179.330642 
L 232.755854 176.865912 
L 234.248899 174.277403 
L 235.552717 171.573443 
L 236.655684 168.763139 
L 237.509289 165.996812 
L 238.161711 163.152125 
L 238.604557 160.23881 
L 238.830078 157.267165 
L 238.831215 154.248021 
L 238.601658 151.192711 
L 238.164857 148.267416 
L 237.510827 145.330617 
L 236.636245 142.393122 
L 235.538534 139.466032 
L 234.215895 136.560702 
L 232.66733 133.688709 
L 230.89267 130.861814 
L 228.892598 128.091918 
L 226.668667 125.391027 
L 224.22332 122.771206 
L 221.559902 120.244532 
L 218.682675 117.823056 
L 215.596821 115.51875 
L 212.308452 113.343463 
L 208.824608 111.308871 
L 205.153259 109.42643 
L 201.303295 107.707325 
L 197.28452 106.162422 
L 193.10764 104.802219 
L 188.784244 103.636792 
L 184.326784 102.675751 
L 179.748553 101.928188 
L 175.31265 101.424626 
L 170.793647 101.127065 
L 166.204785 101.041719 
L 161.559875 101.174239 
L 156.873269 101.529682 
L 152.159824 102.112474 
L 147.434861 102.926379 
L 142.71413 103.974476 
L 138.274081 105.181517 
L 133.866061 106.600941 
L 129.504173 108.233516 
L 125.202715 110.079387 
L 120.976145 112.138053 
L 116.839038 114.408361 
L 112.806045 116.888487 
L 109.118548 119.412159 
L 105.548525 122.116841 
L 102.108172 124.999347 
L 98.809614 128.055944 
L 95.664867 131.282349 
L 92.685804 134.673728 
L 90.05381 137.998196 
L 87.587186 141.45806 
L 85.295211 145.048024 
L 83.186946 148.762377 
L 81.27121 152.594993 
L 79.556558 156.53934 
L 78.051248 160.588486 
L 76.842175 164.455786 
L 75.828568 168.401744 
L 75.016333 172.419821 
L 74.411082 176.5032 
L 74.018108 180.644799 
L 73.842379 184.837275 
L 73.88851 189.07304 
L 74.160756 193.344266 
L 74.66299 197.642902 
L 75.398691 201.960679 
L 76.370928 206.28913 
L 77.582344 210.619599 
L 79.035147 214.943257 
L 80.731091 219.251114 
L 82.671467 223.534039 
L 84.857093 227.782771 
L 87.288298 231.987938 
L 89.964915 236.140074 
L 92.886273 240.229635 
L 95.817075 243.962663 
L 98.956532 247.625738 
L 102.302898 251.211124 
L 105.85403 254.71108 
L 109.607384 258.117876 
L 113.560015 261.423806 
L 117.70857 264.621202 
L 122.049292 267.702447 
L 126.578015 270.659991 
L 131.290165 273.486365 
L 136.180763 276.174196 
L 141.244423 278.716222 
L 146.475355 281.105305 
L 151.867371 283.334447 
L 157.413884 285.396806 
L 163.107915 287.285709 
L 168.942099 288.994669 
L 174.908687 290.517397 
L 180.99956 291.847819 
L 187.206226 292.980091 
L 193.51984 293.908611 
L 199.931204 294.628034 
L 206.430781 295.13329 
L 213.008705 295.419591 
L 219.654792 295.48245 
L 226.358554 295.317694 
L 233.109208 294.921474 
L 239.895693 294.290279 
L 246.706686 293.420952 
L 253.530612 292.310694 
L 259.830892 291.069897 
L 266.122681 289.62013 
L 272.396384 287.960064 
L 278.642269 286.088668 
L 284.850484 284.005208 
L 291.011068 281.709258 
L 297.113965 279.200704 
L 303.149036 276.479748 
L 309.106075 273.546917 
L 314.974821 270.403063 
L 320.744973 267.049371 
L 326.406209 263.487361 
L 331.948193 259.71889 
L 336.914764 256.084961 
L 341.764512 252.28134 
L 346.489522 248.310219 
L 351.081915 244.174036 
L 355.533858 239.875472 
L 359.837577 235.417458 
L 363.985362 230.803167 
L 367.969583 226.036021 
L 371.782701 221.119687 
L 375.417274 216.058075 
L 378.865973 210.855341 
L 382.12159 205.51588 
L 385.17705 200.044329 
L 388.025422 194.445562 
L 390.429441 189.249676 
L 392.651737 183.956879 
L 394.68746 178.571335 
L 396.531881 173.09736 
L 398.180409 167.539426 
L 398.486214 166.418168 
L 398.486214 166.418168 
" style="fill:none;stroke:#00bfbf;stroke-linecap:square;stroke-width:1.5;"/>
   </g>
   <g id="line2d_25">
    <path clip-path="url(#p44bb9ae177)" d="M 187.206342 165.856361 
L 187.381715 166.598681 
L 187.33847 167.375701 
L 187.073092 168.15454 
L 186.580015 168.905355 
L 185.864809 169.584049 
L 184.945212 170.1481 
L 183.850314 170.558895 
L 182.61911 170.783785 
L 181.29854 170.79777 
L 179.955746 170.588238 
L 178.660186 170.162546 
L 177.447738 169.530849 
L 176.375206 168.723573 
L 175.463597 167.760079 
L 174.748325 166.68555 
L 174.228167 165.503532 
L 173.923079 164.260607 
L 173.834295 162.969889 
L 173.965165 161.659902 
L 174.320348 160.337857 
L 174.902747 159.030036 
L 175.710659 157.762753 
L 176.756343 156.542923 
L 178.018196 155.416861 
L 179.481286 154.408903 
L 181.155922 153.528005 
L 182.996951 152.812506 
L 184.9783 152.280329 
L 187.071415 151.946118 
L 189.245902 151.821032 
L 191.47018 151.912628 
L 193.712127 152.224837 
L 195.93971 152.758009 
L 198.121579 153.509038 
L 200.227614 154.471557 
L 202.19097 155.611237 
L 204.028009 156.932597 
L 205.716613 158.421587 
L 207.237361 160.06232 
L 208.54644 161.797112 
L 209.665429 163.641272 
L 210.584999 165.576436 
L 211.298712 167.583932 
L 211.812739 169.696523 
L 212.106111 171.848364 
L 212.179892 174.020534 
L 212.031191 176.251229 
L 211.661016 178.468654 
L 211.058867 180.713391 
L 210.241098 182.91202 
L 209.188763 185.10657 
L 207.896764 187.280993 
L 206.361454 189.418518 
L 204.630758 191.447759 
L 202.666983 193.408937 
L 200.47128 195.285071 
L 198.046446 197.058864 
L 195.471499 198.669838 
L 192.689663 200.151137 
L 189.708333 201.48655 
L 186.536572 202.659979 
L 183.280553 203.630436 
L 179.866134 204.418492 
L 176.306289 205.010269 
L 172.722649 205.384503 
L 169.030129 205.549188 
L 165.244736 205.493263 
L 161.498249 205.218226 
L 157.697555 204.716942 
L 153.860718 203.981536 
L 150.123689 203.03823 
L 146.388945 201.862738 
L 142.791137 200.498267 
L 139.231491 198.908388 
L 135.840599 197.153 
L 132.52036 195.183141 
L 129.394728 193.074789 
L 126.368233 190.766309 
L 123.555833 188.348871 
L 120.866633 185.748268 
L 118.315969 182.967366 
L 116.002018 180.118463 
L 113.84503 177.109359 
L 111.929146 174.064735 
L 110.183822 170.880879 
L 108.621163 167.563344 
L 107.301983 164.253112 
L 106.173151 160.831105 
L 105.244874 157.303972 
L 104.527097 153.678919 
L 104.045024 150.113947 
L 103.774075 146.473233 
L 103.722165 142.76459 
L 103.896853 138.996289 
L 104.305305 135.177051 
L 104.922342 131.477623 
L 105.765809 127.748257 
L 106.840836 123.997739 
L 108.152113 120.235192 
L 109.703866 116.470068 
L 111.499825 112.712132 
L 113.543207 108.971444 
L 115.731735 105.419071 
L 118.150937 101.901217 
L 120.802174 98.427365 
L 123.686289 95.007185 
L 126.803598 91.650518 
L 130.153867 88.367357 
L 133.7363 85.167832 
L 137.549518 82.062183 
L 141.591549 79.060744 
L 145.859814 76.17392 
L 150.351112 73.412165 
L 155.061607 70.785956 
L 159.986825 68.305771 
L 164.883768 66.084144 
L 169.966667 64.014143 
L 175.229946 62.104752 
L 180.667474 60.364876 
L 186.272557 58.803308 
L 192.03794 57.428718 
L 197.955805 56.249622 
L 204.01777 55.274361 
L 210.214891 54.511081 
L 216.23388 53.98848 
L 222.35817 53.67198 
L 228.578635 53.568 
L 234.8857 53.68272 
L 241.269354 54.022062 
L 247.719148 54.59167 
L 254.224213 55.396896 
L 260.444945 56.38469 
L 266.695363 57.593712 
L 272.965134 59.027716 
L 279.243614 60.690152 
L 285.519858 62.58416 
L 291.782636 64.712547 
L 298.020439 67.077781 
L 303.896236 69.538923 
L 309.728843 72.216023 
L 315.507857 75.110266 
L 321.222696 78.222515 
L 326.862615 81.553312 
L 332.416718 85.10286 
L 337.573519 88.655949 
L 342.634532 92.403631 
L 347.590271 96.345214 
L 352.431173 100.479711 
L 357.14761 104.805839 
L 361.729904 109.322012 
L 365.911405 113.74444 
L 369.957345 118.331704 
L 373.859585 123.081721 
L 377.609986 127.992158 
L 381.200419 133.060428 
L 384.622773 138.283686 
L 387.868966 143.658828 
L 390.93096 149.182489 
L 393.627181 154.492585 
L 396.147954 159.926831 
L 398.486802 165.481822 
L 398.486802 165.481822 
" style="fill:none;stroke:#bf00bf;stroke-linecap:square;stroke-width:1.5;"/>
   </g>
   <g id="line2d_26">
    <path clip-path="url(#p44bb9ae177)" d="M 187.206342 165.856361 
L 187.655915 166.600045 
L 187.913909 167.453868 
L 187.963492 168.384794 
L 187.791833 169.368131 
L 187.387909 170.374246 
L 186.742041 171.376287 
L 185.85593 172.336377 
L 184.724348 173.23031 
L 183.357246 174.022279 
L 181.772812 174.678899 
L 179.996604 175.17063 
L 178.060332 175.472976 
L 176.000392 175.567406 
L 173.856241 175.441966 
L 171.668707 175.091564 
L 169.45748 174.511401 
L 167.281119 173.711425 
L 165.154508 172.694095 
L 163.110117 171.471012 
L 161.156034 170.041285 
L 159.33972 168.436197 
L 157.663194 166.656403 
L 156.146617 164.719391 
L 154.806491 162.64479 
L 153.655409 160.453873 
L 152.69 158.136527 
L 151.922161 155.708837 
L 151.361151 153.187829 
L 151.013507 150.591178 
L 150.883007 147.93693 
L 150.973827 145.200224 
L 151.28847 142.438745 
L 151.833889 139.624462 
L 152.615894 136.770989 
L 153.638807 133.892262 
L 154.905434 131.002415 
L 156.417058 128.115661 
L 158.173442 125.246168 
L 160.172847 122.407941 
L 162.412065 119.614705 
L 164.886463 116.879796 
L 167.643725 114.166079 
L 170.633517 111.537331 
L 173.84741 109.005891 
L 177.345755 106.536525 
L 181.058723 104.189949 
L 184.974442 101.97676 
L 189.166619 99.865429 
L 193.545808 97.910493 
L 198.097247 96.120161 
L 202.90834 94.468577 
L 207.870606 93.000996 
L 212.9671 91.722736 
L 218.29888 90.615685 
L 223.739663 89.712858 
L 229.399259 89.002764 
L 235.140287 88.508958 
L 240.943778 88.231474 
L 246.932232 88.170127 
L 252.953637 88.331756 
L 258.989051 88.71294 
L 265.172522 89.326808 
L 271.34002 90.161349 
L 277.632225 91.239831 
L 283.878403 92.536829 
L 290.061174 94.043581 
L 296.330068 95.799727 
L 302.507229 97.758233 
L 308.746681 99.97065 
L 314.867267 102.375036 
L 321.026529 105.035478 
L 327.041405 107.874659 
L 333.071911 110.969755 
L 338.934505 114.227728 
L 344.790584 117.739302 
L 350.457549 121.395501 
L 356.097046 125.300969 
L 361.528835 129.330688 
L 366.913654 133.603501 
L 372.075006 137.978357 
L 377.171555 142.588488 
L 382.192562 147.437087 
L 386.96923 152.359126 
L 391.654399 157.509743 
L 396.086388 162.708058 
L 398.487155 165.669091 
L 398.487155 165.669091 
" style="fill:none;stroke:#000000;stroke-linecap:square;stroke-width:1.5;"/>
   </g>
   <g id="patch_3">
    <path d="M 183.850314 307.584 
L 183.850314 41.472 
" style="fill:none;stroke:#000000;stroke-linecap:square;stroke-linejoin:miter;stroke-width:0.8;"/>
   </g>
   <g id="patch_4">
    <path d="M 414.72 307.584 
L 414.72 41.472 
" style="fill:none;"/>
   </g>
   <g id="patch_5">
    <path d="M 57.6 165.856361 
L 414.72 165.856361 
" style="fill:none;stroke:#000000;stroke-linecap:square;stroke-linejoin:miter;stroke-width:0.8;"/>
   </g>
   <g id="patch_6">
    <path d="M 57.6 41.472 
L 414.72 41.472 
" style="fill:none;"/>
   </g>
   <g id="text_13">
    <!-- The six sixth roots of 64, -->
    <defs>
     <path d="M 0.484375 72.90625 
L 67.671875 72.90625 
L 67.671875 58.6875 
L 43.5 58.6875 
L 43.5 0 
L 24.703125 0 
L 24.703125 58.6875 
L 0.484375 58.6875 
z
" id="DejaVuSans-Bold-84"/>
     <path d="M 63.375 33.296875 
L 63.375 0 
L 45.796875 0 
L 45.796875 5.421875 
L 45.796875 25.390625 
Q 45.796875 32.5625 45.484375 35.25 
Q 45.171875 37.9375 44.390625 39.203125 
Q 43.359375 40.921875 41.59375 41.875 
Q 39.84375 42.828125 37.59375 42.828125 
Q 32.125 42.828125 29 38.59375 
Q 25.875 34.375 25.875 26.90625 
L 25.875 0 
L 8.40625 0 
L 8.40625 75.984375 
L 25.875 75.984375 
L 25.875 46.6875 
Q 29.828125 51.46875 34.265625 53.734375 
Q 38.71875 56 44.09375 56 
Q 53.5625 56 58.46875 50.1875 
Q 63.375 44.390625 63.375 33.296875 
z
" id="DejaVuSans-Bold-104"/>
     <path d="M 62.984375 27.484375 
L 62.984375 22.515625 
L 22.125 22.515625 
Q 22.75 16.359375 26.5625 13.28125 
Q 30.375 10.203125 37.203125 10.203125 
Q 42.71875 10.203125 48.5 11.84375 
Q 54.296875 13.484375 60.40625 16.796875 
L 60.40625 3.328125 
Q 54.203125 0.984375 48 -0.21875 
Q 41.796875 -1.421875 35.59375 -1.421875 
Q 20.75 -1.421875 12.515625 6.125 
Q 4.296875 13.671875 4.296875 27.296875 
Q 4.296875 40.671875 12.375 48.328125 
Q 20.453125 56 34.625 56 
Q 47.515625 56 55.25 48.234375 
Q 62.984375 40.484375 62.984375 27.484375 
z
M 45.015625 33.296875 
Q 45.015625 38.28125 42.109375 41.328125 
Q 39.203125 44.390625 34.515625 44.390625 
Q 29.4375 44.390625 26.265625 41.53125 
Q 23.09375 38.671875 22.3125 33.296875 
z
" id="DejaVuSans-Bold-101"/>
     <path id="DejaVuSans-Bold-32"/>
     <path d="M 51.125 52.984375 
L 51.125 39.703125 
Q 45.515625 42.046875 40.28125 43.21875 
Q 35.0625 44.390625 30.421875 44.390625 
Q 25.4375 44.390625 23.015625 43.140625 
Q 20.609375 41.890625 20.609375 39.3125 
Q 20.609375 37.203125 22.4375 36.078125 
Q 24.265625 34.96875 29 34.421875 
L 32.078125 33.984375 
Q 45.515625 32.28125 50.140625 28.375 
Q 54.78125 24.46875 54.78125 16.109375 
Q 54.78125 7.375 48.328125 2.96875 
Q 41.890625 -1.421875 29.109375 -1.421875 
Q 23.6875 -1.421875 17.890625 -0.5625 
Q 12.109375 0.296875 6 2 
L 6 15.28125 
Q 11.234375 12.75 16.71875 11.46875 
Q 22.21875 10.203125 27.875 10.203125 
Q 33.015625 10.203125 35.59375 11.609375 
Q 38.1875 13.03125 38.1875 15.828125 
Q 38.1875 18.171875 36.40625 19.3125 
Q 34.625 20.453125 29.296875 21.09375 
L 26.21875 21.484375 
Q 14.546875 22.953125 9.859375 26.90625 
Q 5.171875 30.859375 5.171875 38.921875 
Q 5.171875 47.609375 11.125 51.796875 
Q 17.09375 56 29.390625 56 
Q 34.234375 56 39.546875 55.265625 
Q 44.875 54.546875 51.125 52.984375 
z
" id="DejaVuSans-Bold-115"/>
     <path d="M 8.40625 54.6875 
L 25.875 54.6875 
L 25.875 0 
L 8.40625 0 
z
M 8.40625 75.984375 
L 25.875 75.984375 
L 25.875 61.71875 
L 8.40625 61.71875 
z
" id="DejaVuSans-Bold-105"/>
     <path d="M 22.21875 27.984375 
L 2.484375 54.6875 
L 21 54.6875 
L 32.171875 38.484375 
L 43.5 54.6875 
L 62.015625 54.6875 
L 42.28125 28.078125 
L 62.984375 0 
L 44.484375 0 
L 32.171875 17.28125 
L 20.015625 0 
L 1.515625 0 
z
" id="DejaVuSans-Bold-120"/>
     <path d="M 27.484375 70.21875 
L 27.484375 54.6875 
L 45.515625 54.6875 
L 45.515625 42.1875 
L 27.484375 42.1875 
L 27.484375 19 
Q 27.484375 15.1875 29 13.84375 
Q 30.515625 12.5 35.015625 12.5 
L 44 12.5 
L 44 0 
L 29 0 
Q 18.65625 0 14.328125 4.3125 
Q 10.015625 8.640625 10.015625 19 
L 10.015625 42.1875 
L 1.3125 42.1875 
L 1.3125 54.6875 
L 10.015625 54.6875 
L 10.015625 70.21875 
z
" id="DejaVuSans-Bold-116"/>
     <path d="M 49.03125 39.796875 
Q 46.734375 40.875 44.453125 41.375 
Q 42.1875 41.890625 39.890625 41.890625 
Q 33.15625 41.890625 29.515625 37.5625 
Q 25.875 33.25 25.875 25.203125 
L 25.875 0 
L 8.40625 0 
L 8.40625 54.6875 
L 25.875 54.6875 
L 25.875 45.703125 
Q 29.25 51.078125 33.609375 53.53125 
Q 37.984375 56 44.09375 56 
Q 44.96875 56 45.984375 55.921875 
Q 47.015625 55.859375 48.96875 55.609375 
z
" id="DejaVuSans-Bold-114"/>
     <path d="M 34.421875 43.5 
Q 28.609375 43.5 25.5625 39.328125 
Q 22.515625 35.15625 22.515625 27.296875 
Q 22.515625 19.4375 25.5625 15.25 
Q 28.609375 11.078125 34.421875 11.078125 
Q 40.140625 11.078125 43.15625 15.25 
Q 46.1875 19.4375 46.1875 27.296875 
Q 46.1875 35.15625 43.15625 39.328125 
Q 40.140625 43.5 34.421875 43.5 
z
M 34.421875 56 
Q 48.53125 56 56.46875 48.375 
Q 64.40625 40.765625 64.40625 27.296875 
Q 64.40625 13.8125 56.46875 6.1875 
Q 48.53125 -1.421875 34.421875 -1.421875 
Q 20.265625 -1.421875 12.28125 6.1875 
Q 4.296875 13.8125 4.296875 27.296875 
Q 4.296875 40.765625 12.28125 48.375 
Q 20.265625 56 34.421875 56 
z
" id="DejaVuSans-Bold-111"/>
     <path d="M 44.390625 75.984375 
L 44.390625 64.5 
L 34.71875 64.5 
Q 31 64.5 29.53125 63.15625 
Q 28.078125 61.8125 28.078125 58.5 
L 28.078125 54.6875 
L 43.015625 54.6875 
L 43.015625 42.1875 
L 28.078125 42.1875 
L 28.078125 0 
L 10.59375 0 
L 10.59375 42.1875 
L 1.90625 42.1875 
L 1.90625 54.6875 
L 10.59375 54.6875 
L 10.59375 58.5 
Q 10.59375 67.4375 15.578125 71.703125 
Q 20.5625 75.984375 31 75.984375 
z
" id="DejaVuSans-Bold-102"/>
     <path d="M 36.1875 35.984375 
Q 31.25 35.984375 28.78125 32.78125 
Q 26.3125 29.59375 26.3125 23.1875 
Q 26.3125 16.796875 28.78125 13.59375 
Q 31.25 10.40625 36.1875 10.40625 
Q 41.15625 10.40625 43.625 13.59375 
Q 46.09375 16.796875 46.09375 23.1875 
Q 46.09375 29.59375 43.625 32.78125 
Q 41.15625 35.984375 36.1875 35.984375 
z
M 59.421875 71 
L 59.421875 57.515625 
Q 54.78125 59.71875 50.671875 60.765625 
Q 46.578125 61.8125 42.671875 61.8125 
Q 34.28125 61.8125 29.59375 57.140625 
Q 24.90625 52.484375 24.125 43.3125 
Q 27.34375 45.703125 31.09375 46.890625 
Q 34.859375 48.09375 39.3125 48.09375 
Q 50.484375 48.09375 57.34375 41.546875 
Q 64.203125 35.015625 64.203125 24.421875 
Q 64.203125 12.703125 56.53125 5.640625 
Q 48.875 -1.421875 35.984375 -1.421875 
Q 21.78125 -1.421875 13.984375 8.171875 
Q 6.203125 17.78125 6.203125 35.40625 
Q 6.203125 53.46875 15.3125 63.796875 
Q 24.421875 74.125 40.28125 74.125 
Q 45.3125 74.125 50.046875 73.34375 
Q 54.78125 72.5625 59.421875 71 
z
" id="DejaVuSans-Bold-54"/>
     <path d="M 36.8125 57.421875 
L 16.21875 26.90625 
L 36.8125 26.90625 
z
M 33.6875 72.90625 
L 54.59375 72.90625 
L 54.59375 26.90625 
L 64.984375 26.90625 
L 64.984375 13.28125 
L 54.59375 13.28125 
L 54.59375 0 
L 36.8125 0 
L 36.8125 13.28125 
L 4.5 13.28125 
L 4.5 29.390625 
z
" id="DejaVuSans-Bold-52"/>
     <path d="M 10.203125 18.890625 
L 27.78125 18.890625 
L 27.78125 4 
L 15.71875 -14.203125 
L 5.328125 -14.203125 
L 10.203125 4 
z
" id="DejaVuSans-Bold-44"/>
    </defs>
    <g transform="translate(152.145 8.5035)scale(0.12 -0.12)">
     <use xlink:href="#DejaVuSans-Bold-84"/>
     <use x="68.212891" xlink:href="#DejaVuSans-Bold-104"/>
     <use x="139.404297" xlink:href="#DejaVuSans-Bold-101"/>
     <use x="207.226562" xlink:href="#DejaVuSans-Bold-32"/>
     <use x="242.041016" xlink:href="#DejaVuSans-Bold-115"/>
     <use x="301.5625" xlink:href="#DejaVuSans-Bold-105"/>
     <use x="335.839844" xlink:href="#DejaVuSans-Bold-120"/>
     <use x="400.341797" xlink:href="#DejaVuSans-Bold-32"/>
     <use x="435.15625" xlink:href="#DejaVuSans-Bold-115"/>
     <use x="494.677734" xlink:href="#DejaVuSans-Bold-105"/>
     <use x="528.955078" xlink:href="#DejaVuSans-Bold-120"/>
     <use x="593.457031" xlink:href="#DejaVuSans-Bold-116"/>
     <use x="641.259766" xlink:href="#DejaVuSans-Bold-104"/>
     <use x="712.451172" xlink:href="#DejaVuSans-Bold-32"/>
     <use x="747.265625" xlink:href="#DejaVuSans-Bold-114"/>
     <use x="796.582031" xlink:href="#DejaVuSans-Bold-111"/>
     <use x="865.283203" xlink:href="#DejaVuSans-Bold-111"/>
     <use x="933.984375" xlink:href="#DejaVuSans-Bold-116"/>
     <use x="981.787109" xlink:href="#DejaVuSans-Bold-115"/>
     <use x="1041.308594" xlink:href="#DejaVuSans-Bold-32"/>
     <use x="1076.123047" xlink:href="#DejaVuSans-Bold-111"/>
     <use x="1144.824219" xlink:href="#DejaVuSans-Bold-102"/>
     <use x="1188.330078" xlink:href="#DejaVuSans-Bold-32"/>
     <use x="1223.144531" xlink:href="#DejaVuSans-Bold-54"/>
     <use x="1292.724609" xlink:href="#DejaVuSans-Bold-52"/>
     <use x="1362.304688" xlink:href="#DejaVuSans-Bold-44"/>
    </g>
    <!-- all being exponentiated from ^0 to ^6 -->
    <defs>
     <path d="M 32.90625 24.609375 
Q 27.4375 24.609375 24.671875 22.75 
Q 21.921875 20.90625 21.921875 17.28125 
Q 21.921875 13.96875 24.140625 12.078125 
Q 26.375 10.203125 30.328125 10.203125 
Q 35.25 10.203125 38.625 13.734375 
Q 42 17.28125 42 22.609375 
L 42 24.609375 
z
M 59.625 31.203125 
L 59.625 0 
L 42 0 
L 42 8.109375 
Q 38.484375 3.125 34.078125 0.84375 
Q 29.6875 -1.421875 23.390625 -1.421875 
Q 14.890625 -1.421875 9.59375 3.53125 
Q 4.296875 8.5 4.296875 16.40625 
Q 4.296875 26.03125 10.90625 30.515625 
Q 17.53125 35.015625 31.6875 35.015625 
L 42 35.015625 
L 42 36.375 
Q 42 40.53125 38.71875 42.453125 
Q 35.453125 44.390625 28.515625 44.390625 
Q 22.90625 44.390625 18.0625 43.265625 
Q 13.234375 42.140625 9.078125 39.890625 
L 9.078125 53.21875 
Q 14.703125 54.59375 20.359375 55.296875 
Q 26.03125 56 31.6875 56 
Q 46.484375 56 53.046875 50.171875 
Q 59.625 44.34375 59.625 31.203125 
z
" id="DejaVuSans-Bold-97"/>
     <path d="M 8.40625 75.984375 
L 25.875 75.984375 
L 25.875 0 
L 8.40625 0 
z
" id="DejaVuSans-Bold-108"/>
     <path d="M 37.5 11.28125 
Q 43.109375 11.28125 46.0625 15.375 
Q 49.03125 19.484375 49.03125 27.296875 
Q 49.03125 35.109375 46.0625 39.203125 
Q 43.109375 43.3125 37.5 43.3125 
Q 31.890625 43.3125 28.875 39.1875 
Q 25.875 35.0625 25.875 27.296875 
Q 25.875 19.53125 28.875 15.40625 
Q 31.890625 11.28125 37.5 11.28125 
z
M 25.875 46.6875 
Q 29.5 51.46875 33.890625 53.734375 
Q 38.28125 56 44 56 
Q 54.109375 56 60.59375 47.96875 
Q 67.09375 39.9375 67.09375 27.296875 
Q 67.09375 14.65625 60.59375 6.609375 
Q 54.109375 -1.421875 44 -1.421875 
Q 38.28125 -1.421875 33.890625 0.84375 
Q 29.5 3.125 25.875 7.90625 
L 25.875 0 
L 8.40625 0 
L 8.40625 75.984375 
L 25.875 75.984375 
z
" id="DejaVuSans-Bold-98"/>
     <path d="M 63.375 33.296875 
L 63.375 0 
L 45.796875 0 
L 45.796875 5.421875 
L 45.796875 25.484375 
Q 45.796875 32.5625 45.484375 35.25 
Q 45.171875 37.9375 44.390625 39.203125 
Q 43.359375 40.921875 41.59375 41.875 
Q 39.84375 42.828125 37.59375 42.828125 
Q 32.125 42.828125 29 38.59375 
Q 25.875 34.375 25.875 26.90625 
L 25.875 0 
L 8.40625 0 
L 8.40625 54.6875 
L 25.875 54.6875 
L 25.875 46.6875 
Q 29.828125 51.46875 34.265625 53.734375 
Q 38.71875 56 44.09375 56 
Q 53.5625 56 58.46875 50.1875 
Q 63.375 44.390625 63.375 33.296875 
z
" id="DejaVuSans-Bold-110"/>
     <path d="M 45.609375 9.28125 
Q 42 4.5 37.640625 2.25 
Q 33.296875 0 27.59375 0 
Q 17.578125 0 11.03125 7.875 
Q 4.5 15.765625 4.5 27.984375 
Q 4.5 40.234375 11.03125 48.0625 
Q 17.578125 55.90625 27.59375 55.90625 
Q 33.296875 55.90625 37.640625 53.65625 
Q 42 51.421875 45.609375 46.578125 
L 45.609375 54.6875 
L 63.1875 54.6875 
L 63.1875 5.515625 
Q 63.1875 -7.671875 54.859375 -14.625 
Q 46.53125 -21.578125 30.71875 -21.578125 
Q 25.59375 -21.578125 20.796875 -20.796875 
Q 16.015625 -20.015625 11.1875 -18.40625 
L 11.1875 -4.78125 
Q 15.765625 -7.421875 20.15625 -8.71875 
Q 24.5625 -10.015625 29 -10.015625 
Q 37.59375 -10.015625 41.59375 -6.25 
Q 45.609375 -2.484375 45.609375 5.515625 
z
M 34.078125 43.3125 
Q 28.65625 43.3125 25.625 39.296875 
Q 22.609375 35.296875 22.609375 27.984375 
Q 22.609375 20.453125 25.53125 16.578125 
Q 28.46875 12.703125 34.078125 12.703125 
Q 39.546875 12.703125 42.578125 16.703125 
Q 45.609375 20.703125 45.609375 27.984375 
Q 45.609375 35.296875 42.578125 39.296875 
Q 39.546875 43.3125 34.078125 43.3125 
z
" id="DejaVuSans-Bold-103"/>
     <path d="M 25.875 7.90625 
L 25.875 -20.796875 
L 8.40625 -20.796875 
L 8.40625 54.6875 
L 25.875 54.6875 
L 25.875 46.6875 
Q 29.5 51.46875 33.890625 53.734375 
Q 38.28125 56 44 56 
Q 54.109375 56 60.59375 47.96875 
Q 67.09375 39.9375 67.09375 27.296875 
Q 67.09375 14.65625 60.59375 6.609375 
Q 54.109375 -1.421875 44 -1.421875 
Q 38.28125 -1.421875 33.890625 0.84375 
Q 29.5 3.125 25.875 7.90625 
z
M 37.5 43.3125 
Q 31.890625 43.3125 28.875 39.1875 
Q 25.875 35.0625 25.875 27.296875 
Q 25.875 19.53125 28.875 15.40625 
Q 31.890625 11.28125 37.5 11.28125 
Q 43.109375 11.28125 46.0625 15.375 
Q 49.03125 19.484375 49.03125 27.296875 
Q 49.03125 35.109375 46.0625 39.203125 
Q 43.109375 43.3125 37.5 43.3125 
z
" id="DejaVuSans-Bold-112"/>
     <path d="M 45.609375 46.6875 
L 45.609375 75.984375 
L 63.1875 75.984375 
L 63.1875 0 
L 45.609375 0 
L 45.609375 7.90625 
Q 42 3.078125 37.640625 0.828125 
Q 33.296875 -1.421875 27.59375 -1.421875 
Q 17.484375 -1.421875 10.984375 6.609375 
Q 4.5 14.65625 4.5 27.296875 
Q 4.5 39.9375 10.984375 47.96875 
Q 17.484375 56 27.59375 56 
Q 33.25 56 37.625 53.734375 
Q 42 51.46875 45.609375 46.6875 
z
M 34.078125 11.28125 
Q 39.703125 11.28125 42.65625 15.375 
Q 45.609375 19.484375 45.609375 27.296875 
Q 45.609375 35.109375 42.65625 39.203125 
Q 39.703125 43.3125 34.078125 43.3125 
Q 28.515625 43.3125 25.5625 39.203125 
Q 22.609375 35.109375 22.609375 27.296875 
Q 22.609375 19.484375 25.5625 15.375 
Q 28.515625 11.28125 34.078125 11.28125 
z
" id="DejaVuSans-Bold-100"/>
     <path d="M 59.078125 45.609375 
Q 62.40625 50.6875 66.96875 53.34375 
Q 71.53125 56 77 56 
Q 86.421875 56 91.359375 50.1875 
Q 96.296875 44.390625 96.296875 33.296875 
L 96.296875 0 
L 78.71875 0 
L 78.71875 28.515625 
Q 78.765625 29.15625 78.78125 29.828125 
Q 78.8125 30.515625 78.8125 31.78125 
Q 78.8125 37.59375 77.09375 40.203125 
Q 75.390625 42.828125 71.578125 42.828125 
Q 66.609375 42.828125 63.890625 38.71875 
Q 61.1875 34.625 61.078125 26.859375 
L 61.078125 0 
L 43.5 0 
L 43.5 28.515625 
Q 43.5 37.59375 41.9375 40.203125 
Q 40.375 42.828125 36.375 42.828125 
Q 31.34375 42.828125 28.609375 38.703125 
Q 25.875 34.578125 25.875 26.90625 
L 25.875 0 
L 8.296875 0 
L 8.296875 54.6875 
L 25.875 54.6875 
L 25.875 46.6875 
Q 29.109375 51.3125 33.28125 53.65625 
Q 37.453125 56 42.484375 56 
Q 48.140625 56 52.484375 53.265625 
Q 56.84375 50.53125 59.078125 45.609375 
z
" id="DejaVuSans-Bold-109"/>
     <path d="M 47.90625 72.90625 
L 73.6875 45.703125 
L 61.921875 45.703125 
L 41.890625 60.40625 
L 21.921875 45.703125 
L 10.109375 45.703125 
L 35.890625 72.90625 
z
" id="DejaVuSans-Bold-94"/>
     <path d="M 46 36.53125 
Q 46 50.203125 43.4375 55.78125 
Q 40.875 61.375 34.8125 61.375 
Q 28.765625 61.375 26.171875 55.78125 
Q 23.578125 50.203125 23.578125 36.53125 
Q 23.578125 22.703125 26.171875 17.03125 
Q 28.765625 11.375 34.8125 11.375 
Q 40.828125 11.375 43.40625 17.03125 
Q 46 22.703125 46 36.53125 
z
M 64.796875 36.375 
Q 64.796875 18.265625 56.984375 8.421875 
Q 49.171875 -1.421875 34.8125 -1.421875 
Q 20.40625 -1.421875 12.59375 8.421875 
Q 4.78125 18.265625 4.78125 36.375 
Q 4.78125 54.546875 12.59375 64.375 
Q 20.40625 74.21875 34.8125 74.21875 
Q 49.171875 74.21875 56.984375 64.375 
Q 64.796875 54.546875 64.796875 36.375 
z
" id="DejaVuSans-Bold-48"/>
    </defs>
    <g transform="translate(105.964687 21.940875)scale(0.12 -0.12)">
     <use xlink:href="#DejaVuSans-Bold-97"/>
     <use x="67.480469" xlink:href="#DejaVuSans-Bold-108"/>
     <use x="101.757812" xlink:href="#DejaVuSans-Bold-108"/>
     <use x="136.035156" xlink:href="#DejaVuSans-Bold-32"/>
     <use x="170.849609" xlink:href="#DejaVuSans-Bold-98"/>
     <use x="242.431641" xlink:href="#DejaVuSans-Bold-101"/>
     <use x="310.253906" xlink:href="#DejaVuSans-Bold-105"/>
     <use x="344.53125" xlink:href="#DejaVuSans-Bold-110"/>
     <use x="415.722656" xlink:href="#DejaVuSans-Bold-103"/>
     <use x="487.304688" xlink:href="#DejaVuSans-Bold-32"/>
     <use x="522.119141" xlink:href="#DejaVuSans-Bold-101"/>
     <use x="589.941406" xlink:href="#DejaVuSans-Bold-120"/>
     <use x="654.443359" xlink:href="#DejaVuSans-Bold-112"/>
     <use x="726.025391" xlink:href="#DejaVuSans-Bold-111"/>
     <use x="794.726562" xlink:href="#DejaVuSans-Bold-110"/>
     <use x="865.917969" xlink:href="#DejaVuSans-Bold-101"/>
     <use x="933.740234" xlink:href="#DejaVuSans-Bold-110"/>
     <use x="1004.931641" xlink:href="#DejaVuSans-Bold-116"/>
     <use x="1052.734375" xlink:href="#DejaVuSans-Bold-105"/>
     <use x="1087.011719" xlink:href="#DejaVuSans-Bold-97"/>
     <use x="1154.492188" xlink:href="#DejaVuSans-Bold-116"/>
     <use x="1202.294922" xlink:href="#DejaVuSans-Bold-101"/>
     <use x="1270.117188" xlink:href="#DejaVuSans-Bold-100"/>
     <use x="1341.699219" xlink:href="#DejaVuSans-Bold-32"/>
     <use x="1376.513672" xlink:href="#DejaVuSans-Bold-102"/>
     <use x="1420.019531" xlink:href="#DejaVuSans-Bold-114"/>
     <use x="1469.335938" xlink:href="#DejaVuSans-Bold-111"/>
     <use x="1538.037109" xlink:href="#DejaVuSans-Bold-109"/>
     <use x="1642.236328" xlink:href="#DejaVuSans-Bold-32"/>
     <use x="1677.050781" xlink:href="#DejaVuSans-Bold-94"/>
     <use x="1760.839844" xlink:href="#DejaVuSans-Bold-48"/>
     <use x="1830.419922" xlink:href="#DejaVuSans-Bold-32"/>
     <use x="1865.234375" xlink:href="#DejaVuSans-Bold-116"/>
     <use x="1913.037109" xlink:href="#DejaVuSans-Bold-111"/>
     <use x="1981.738281" xlink:href="#DejaVuSans-Bold-32"/>
     <use x="2016.552734" xlink:href="#DejaVuSans-Bold-94"/>
     <use x="2100.341797" xlink:href="#DejaVuSans-Bold-54"/>
    </g>
    <!-- and spiraling towards 64! -->
    <defs>
     <path d="M 3.515625 54.6875 
L 20.515625 54.6875 
L 29.6875 17 
L 38.921875 54.6875 
L 53.515625 54.6875 
L 62.703125 17.390625 
L 71.921875 54.6875 
L 88.921875 54.6875 
L 74.515625 0 
L 55.421875 0 
L 46.1875 37.59375 
L 37.015625 0 
L 17.921875 0 
z
" id="DejaVuSans-Bold-119"/>
     <path d="M 14.015625 72.90625 
L 31.59375 72.90625 
L 31.59375 44.921875 
L 29.109375 24.515625 
L 16.5 24.515625 
L 14.015625 44.921875 
z
M 14.015625 17.390625 
L 31.59375 17.390625 
L 31.59375 0 
L 14.015625 0 
z
" id="DejaVuSans-Bold-33"/>
    </defs>
    <g transform="translate(149.175938 35.472)scale(0.12 -0.12)">
     <use xlink:href="#DejaVuSans-Bold-97"/>
     <use x="67.480469" xlink:href="#DejaVuSans-Bold-110"/>
     <use x="138.671875" xlink:href="#DejaVuSans-Bold-100"/>
     <use x="210.253906" xlink:href="#DejaVuSans-Bold-32"/>
     <use x="245.068359" xlink:href="#DejaVuSans-Bold-115"/>
     <use x="304.589844" xlink:href="#DejaVuSans-Bold-112"/>
     <use x="376.171875" xlink:href="#DejaVuSans-Bold-105"/>
     <use x="410.449219" xlink:href="#DejaVuSans-Bold-114"/>
     <use x="459.765625" xlink:href="#DejaVuSans-Bold-97"/>
     <use x="527.246094" xlink:href="#DejaVuSans-Bold-108"/>
     <use x="561.523438" xlink:href="#DejaVuSans-Bold-105"/>
     <use x="595.800781" xlink:href="#DejaVuSans-Bold-110"/>
     <use x="666.992188" xlink:href="#DejaVuSans-Bold-103"/>
     <use x="738.574219" xlink:href="#DejaVuSans-Bold-32"/>
     <use x="773.388672" xlink:href="#DejaVuSans-Bold-116"/>
     <use x="821.191406" xlink:href="#DejaVuSans-Bold-111"/>
     <use x="889.892578" xlink:href="#DejaVuSans-Bold-119"/>
     <use x="982.275391" xlink:href="#DejaVuSans-Bold-97"/>
     <use x="1049.755859" xlink:href="#DejaVuSans-Bold-114"/>
     <use x="1099.072266" xlink:href="#DejaVuSans-Bold-100"/>
     <use x="1170.654297" xlink:href="#DejaVuSans-Bold-115"/>
     <use x="1230.175781" xlink:href="#DejaVuSans-Bold-32"/>
     <use x="1264.990234" xlink:href="#DejaVuSans-Bold-54"/>
     <use x="1334.570312" xlink:href="#DejaVuSans-Bold-52"/>
     <use x="1404.150391" xlink:href="#DejaVuSans-Bold-33"/>
    </g>
   </g>
  </g>
 </g>
 <defs>
  <clipPath id="p44bb9ae177">
   <rect height="266.112" width="357.12" x="57.6" y="41.472"/>
  </clipPath>
 </defs>
</svg>
