<svg id="Layer_1" data-name="Layer 1" xmlns="http://www.w3.org/2000/svg" viewBox="0 0 259.57 202.02">
  <defs>
    <style>
      .cls-1 {
        fill: #bcbec0;
      }

      .cls-2 {
        fill: #6d6e71;
      }

      .cls-3 {
        fill: #231f20;
      }
    </style>
  </defs>
  <title>root-of-64-powered</title>
  <path class="cls-1" d="M144.21,107.48c5.85-4,7.89-11.11,6.94-17.9-1-7.3-6-13.12-11.8-17.32a56.48,56.48,0,0,0-9.51-5.41c-4.13-1.9-8.6-3.51-13.2-2.52-4.13.88-7.43,4-10.55,6.61q-5,4.26-9.8,8.82c-6,5.7-12.26,11.73-15.83,19.29-3.47,7.35-4.5,15.5-4.38,23.57,0,4,.37,8,.79,11.92s.68,8.05,2,11.83a24.1,24.1,0,0,0,5.57,9,85.12,85.12,0,0,0,8.82,7.38,181.7,181.7,0,0,0,15.5,11.41,101.46,101.46,0,0,0,19.39,9.18,58.67,58.67,0,0,0,7.67,2.38c2.43.52,4.9.91,7.35,1.37,6.92,1.28,13.83,2.72,20.77,3.9a61.07,61.07,0,0,0,7.25.89,46.76,46.76,0,0,0,8.77-.51,54.17,54.17,0,0,0,11.74-3,81.12,81.12,0,0,0,18.57-9.93c8.21-5.93,14.47-14.14,19.9-22.59a196.72,196.72,0,0,0,18.91-39.17q2.13-5.85,4-11.81a2.5,2.5,0,0,0-4.82-1.33A211.76,211.76,0,0,1,231,144.65a145.76,145.76,0,0,1-9.48,15c-.35.48-.7,1-1.06,1.43l-.59.78,0-.05-.35.45c-.76,1-1.53,1.9-2.32,2.83-1.39,1.63-2.83,3.2-4.36,4.7-.69.67-1.4,1.33-2.13,2l-.93.79-.51.41-.2.16.2-.15-.39.3a76.44,76.44,0,0,1-10.14,6.43q-2.11,1.13-4.31,2.13l-2,.89c-.1,0-.45.18,0,0l-.45.19-.93.37c-1.31.52-2.64,1-4,1.43a47.25,47.25,0,0,1-14.92,2.27c-1,0-1.92-.08-2.88-.17l-1.62-.19c.57.07.07,0-.2,0l-1.1-.17c-3.18-.5-6.34-1.13-9.5-1.74-5.55-1.06-11.09-2.12-16.65-3.13-1.33-.24-2.68-.44-4-.79s-2.68-.78-4-1.22-2.67-.9-4-1.39c-.69-.26-1.38-.52-2.06-.8s-1.73-.7-2.25-.92a91.28,91.28,0,0,1-16.56-9.1c-2.33-1.64-5-3.66-7-5.19-3.17-2.46-6.38-4.89-9.46-7.47a38.58,38.58,0,0,1-3.5-3.26c-.25-.27-.49-.54-.73-.82l-.27-.34c-.44-.53.18.25-.07-.08-.45-.62-.87-1.25-1.26-1.9a17.72,17.72,0,0,1-1.91-4.53,33.18,33.18,0,0,1-1-5.18c-.9-7.64-1.66-15.38-1-23.07a44.07,44.07,0,0,1,2.21-10.74A35.36,35.36,0,0,1,88.81,95a86.68,86.68,0,0,1,7.8-8.54q4.5-4.48,9.25-8.7c1.57-1.39,3.15-2.75,4.75-4.1a32.05,32.05,0,0,1,4.48-3.35A8.67,8.67,0,0,1,119.71,69a10.53,10.53,0,0,1,2.66.37,22.3,22.3,0,0,1,3,.95,54.19,54.19,0,0,1,9.36,4.82,30.72,30.72,0,0,1,7.58,6.55,8.77,8.77,0,0,1,.58.75c.26.36.51.72.75,1.09a23,23,0,0,1,1.25,2.22c.07.13.13.27.19.41.32.66-.16-.46.1.23.11.29.22.57.32.86a20.19,20.19,0,0,1,.63,2.31c.07.34.12.68.18,1,.12.74,0-.5,0,.25,0,.15,0,.3,0,.45a19.28,19.28,0,0,1,.05,2.28c0,.38,0,.75-.08,1.13,0,.15,0,.3,0,.45.08-.59,0,.15,0,.22a18,18,0,0,1-.52,2.17c-.1.31-.22.62-.33.93l0,.11-.18.4a14.2,14.2,0,0,1-1.1,1.88l-.25.35c.27-.37,0-.06,0,0-.24.27-.47.55-.73.81s-.53.49-.8.74c-.07.06-.37.29,0,0-.18.14-.36.27-.55.39a2.56,2.56,0,0,0-.89,3.42,2.51,2.51,0,0,0,3.42.9Z" transform="translate(-18.35 -9.98)"/>
  <g>
    <g>
      <path class="cls-2" d="M125.91,33.47c3-6.58,5.88-13.17,8.85-19.73.52-1.15,1.24-2.74,2.71-2.76s2.42,1.33,3.08,2.35a46.77,46.77,0,0,1,2.33,4.21q1.2,2.28,2.3,4.61,2.48,5.24,4.47,10.68a.51.51,0,0,0,.84.22l1.19-1.44c.41-.5-.3-1.21-.71-.71l-1.19,1.44.84.22q-1.89-5.12-4.18-10.07c-.79-1.7-1.61-3.38-2.48-5s-1.56-3.1-2.49-4.54a6.31,6.31,0,0,0-3.06-2.78,3.1,3.1,0,0,0-3.36,1.1,19.6,19.6,0,0,0-2.27,4.5L130.44,21l-5.39,12c-.26.58.6,1.09.86.5Z" transform="translate(-18.35 -9.98)"/>
      <path class="cls-2" d="M138.07,11.92l1.35,77.26L140.77,166q.39,21.66.76,43.34a.5.5,0,0,0,1,0l-1.35-77.23-1.35-76.87-.76-43.36a.5.5,0,0,0-1,0Z" transform="translate(-18.35 -9.98)"/>
      <path class="cls-2" d="M130.94,196.43l11.24,15.34a.51.51,0,0,0,.92-.12,27.1,27.1,0,0,1,4.32-8.83c1-1.29,2.1-2.39,3.1-3.64a5.07,5.07,0,0,0,1.38-3.94c-.09-.63-1.05-.36-1,.27.21,1.56-1,2.89-2,4a33.69,33.69,0,0,0-2.89,3.53,27.84,27.84,0,0,0-3.94,8.4l.92-.12-11.24-15.34c-.38-.51-1.25,0-.87.5Z" transform="translate(-18.35 -9.98)"/>
    </g>
    <g>
      <path class="cls-2" d="M20.55,107c33.41-1.58,66.87-1.7,100.32-1.79,33.19-.09,66.39-.37,99.59-.17,18.64.11,37.29.52,55.9,1.7.64,0,.64-1,0-1C243,103.59,209.61,104,176.23,104c-33.22.08-66.45,0-99.68.4-18.67.22-37.35.65-56,1.53-.64,0-.65,1,0,1Z" transform="translate(-18.35 -9.98)"/>
      <g>
        <path class="cls-2" d="M30.8,90.52,20.57,103.11c-1,1.2-3.43,3.65-1.51,5.12.8.61,2,.57,2.92.75a18,18,0,0,1,3.15.89A16.14,16.14,0,0,1,31.24,114c.43.47,1.13-.23.7-.71a17.58,17.58,0,0,0-10.4-5.44c-.82-.12-2.43-.14-2.12-1.37a8.35,8.35,0,0,1,1.94-2.8l4.8-5.9,5.35-6.59c.4-.49-.3-1.21-.71-.71Z" transform="translate(-18.35 -9.98)"/>
        <path class="cls-2" d="M263.27,115.51l6.85-3.79,3.38-1.86c1.06-.58,2.2-1.11,3.2-1.79a2.4,2.4,0,0,0,1.21-2.11,5.69,5.69,0,0,0-1.4-2.76,43.33,43.33,0,0,0-4.29-5.08c-.87-.88-1.78-1.72-2.72-2.51-.47-.39-.94-.77-1.42-1.14-.22-.18-.45-.35-.67-.51l-.34-.25c-.15-.11-.31-.36-.44-.18l-.3.23-.27-.12v-.5l0,.07a.5.5,0,0,0,.87.5c.4-.71-.67-1.32-1.12-.68-.6.86.86,1.59,1.39,2a39.78,39.78,0,0,1,5.31,4.82c.83.89,1.61,1.81,2.35,2.77.37.48.73,1,1.07,1.45a5.65,5.65,0,0,1,1,1.64c.36,1.29-1.22,1.86-2.11,2.35l-3.71,2-8.27,4.57c-.56.31-.06,1.17.51.86Z" transform="translate(-18.35 -9.98)"/>
      </g>
    </g>
  </g>
  <g>
    <path class="cls-3" d="M190.4,107.34a57.65,57.65,0,0,0-.52,6.82c0,.23.36.36.47.12l.24-.55c.13-.3-.3-.55-.43-.26l-.24.56.46.13a55.47,55.47,0,0,1,.51-6.69c0-.31-.44-.45-.49-.13Z" transform="translate(-18.35 -9.98)"/>
    <path class="cls-3" d="M193,107.36a13.23,13.23,0,0,0-.91,3,5.26,5.26,0,0,0,0,2.84,1.3,1.3,0,0,0,.77.8,1.18,1.18,0,0,0,1.11-.39c.5-.5.95-1.5.23-2s-1.72.23-2.21.86c-.19.26.24.51.43.26a1.89,1.89,0,0,1,.95-.8c.36-.08.73.09.7.5a1.47,1.47,0,0,1-.68,1c-.47.28-.76-.18-.89-.58a5.53,5.53,0,0,1,.06-2.59,12.81,12.81,0,0,1,.82-2.66c.13-.3-.31-.55-.43-.26Z" transform="translate(-18.35 -9.98)"/>
  </g>
  <g>
    <path class="cls-3" d="M250.62,110.11a8.57,8.57,0,0,0-2.13,4.83,4.06,4.06,0,0,0,.1,1.77,1.31,1.31,0,0,0,2.34.43,1.66,1.66,0,0,0-.18-2.48,1.47,1.47,0,0,0-1.43-.16c-.47.26-.11.91.3.57.25-.21-.11-.56-.35-.35l0,0,.24-.07.07,0V115c.08-.15.43-.1.55-.07a1.07,1.07,0,0,1,.53.29,1.11,1.11,0,0,1,.17,1.25c-.19.42-.69.89-1.18.71s-.65-.85-.66-1.34a8,8,0,0,1,2-5.36c.21-.24-.14-.6-.35-.35Z" transform="translate(-18.35 -9.98)"/>
    <path class="cls-3" d="M252.2,110.89l-.6,2.25c-.07.28-.26.68,0,.94a.58.58,0,0,0,.63.11c.31-.09.6-.27.9-.38a9.55,9.55,0,0,1,1-.34,10,10,0,0,1,2.17-.3.26.26,0,0,0,.25-.25v-.33c0-.32-.48-.32-.5,0v.33l.25-.25a10,10,0,0,0-3.61.77l-.4.17a.78.78,0,0,1-.32.12c-.09,0,0,0,0,0s0-.18.07-.26l.12-.48.52-2a.25.25,0,0,0-.48-.13Z" transform="translate(-18.35 -9.98)"/>
    <path class="cls-3" d="M254.61,109.78l-.51,4.42-.26,2.17a1.62,1.62,0,0,0,.28,1.43c.24.21.59-.14.36-.36-.4-.37-.11-1.31,0-1.77l.22-1.94.46-4c0-.32-.46-.32-.5,0Z" transform="translate(-18.35 -9.98)"/>
  </g>
  <path class="cls-3" d="M192.76,106.9a11.72,11.72,0,0,1,0-3.83c0-.32-.44-.45-.49-.14a12.82,12.82,0,0,0,.05,4.1c.05.32.54.18.48-.13Z" transform="translate(-18.35 -9.98)"/>
  <path class="cls-3" d="M252.11,106.58a21.71,21.71,0,0,0-.09-4c0-.32-.54-.32-.5,0a21.71,21.71,0,0,1,.09,4c0,.32.48.32.5,0Z" transform="translate(-18.35 -9.98)"/>
  <g>
    <path class="cls-3" d="M116.37,64.33h-.05l.26,0h0l.24.1a.66.66,0,0,1,.23.21c.06.1.08.12.06.07l.1.23a.06.06,0,0,1,0,0l0,.26v-.1l0,.27a.23.23,0,0,1,0-.11l-.1.24c.08-.16-.15.15-.09.1s-.27.16-.11.09l-.24.1.06,0-.27,0h.06l-.27,0,.12,0-.24-.1c.11.06-.11-.08-.1-.09l0,0c0,.06,0,0,0,0s0,0,0,.08l-.1-.24a1.63,1.63,0,0,1,.07.3l0-.26a3,3,0,0,1,0,.84l0-.26a4.1,4.1,0,0,1-.23.83l.1-.24c-.07.14-.14.29-.22.43l-.12.18c-.1.14.12-.15,0-.06l-.08.11h1.41s-.07-.1-.1-.11.16.23.07.08a1.71,1.71,0,0,1-.13-.23l.11.24a1.43,1.43,0,0,1-.11-.39l0,.26a2.26,2.26,0,0,1,0-.52l0,.27a1.81,1.81,0,0,1,.13-.47l-.1.23a2.1,2.1,0,0,1,.13-.26l.09-.12c-.19.27-.11.14,0,.07l.09-.09c.16-.15-.19.12-.06,0a1.35,1.35,0,0,1,.26-.15l-.24.11.14-.06L115.91,65a3.59,3.59,0,0,0,.06,1.46l0-.26a1.13,1.13,0,0,1,0,.32l0-.27a.79.79,0,0,1,0,.22l.1-.24,0,.11c0,.09-.09,0,.07-.08l-.06.07c.08-.13.2-.14.07-.07l.24-.1-.11,0,.26,0h-.07l.26,0a.3.3,0,0,1-.12,0l.24.1c-.12-.06.1.08.09.09l0,0s0,0,0,0,0,0,0-.07l.1.24a1.8,1.8,0,0,1,0-.19l0,.26a.88.88,0,0,1,0-.28l0,.27a1.55,1.55,0,0,1,.07-.23l-.1.24a.61.61,0,0,1,.07-.14c.08-.14-.18.18-.06.07s.08,0-.08.06l.14-.08-.24.1.2,0-.27,0a.74.74,0,0,1,.21,0l-.27,0,.24.07-.24-.1.14.07c.15.08-.19-.19-.05,0l0,0c.07.08,0,0-.08-.11l.08.14-.1-.23a.66.66,0,0,1,.06.2l0-.27a.54.54,0,0,1,0,.18l0-.27a1.25,1.25,0,0,1-.07.26l.1-.24s-.07.15-.09.15.2-.22,0-.06-.11,0,.07,0a.83.83,0,0,1-.16.09l.24-.1a.73.73,0,0,1-.21.06l.27,0a.54.54,0,0,1-.18,0l.27,0-.2,0,.24.1-.14-.07c-.13-.08.21.19,0,0s.11.18,0,0l-.08-.14.1.24a1.34,1.34,0,0,1-.07-.27l0,.26a.67.67,0,0,1,0-.2l0,.27a1.05,1.05,0,0,1,0-.19l-.1.24s.08-.11.08-.14-.18.23-.06.09l0,0c-.09.06-.1.07,0,0l.14-.07-.24.1a.72.72,0,0,1,.25-.07l-.26,0a1.13,1.13,0,0,1,.26,0l-.27,0,.22,0-.24-.1.1,0c.18.11-.12-.11-.07-.06s-.1-.17,0-.07a1.09,1.09,0,0,1,.08.15l-.1-.24a1,1,0,0,1,.07.28l0-.26a1.5,1.5,0,0,1,0,.3l0-.27a1.64,1.64,0,0,1-.1.38l.1-.24a1.28,1.28,0,0,1-.11.2c-.08.13.14-.16.06-.08l-.07.09-.07.06c-.12.12.16-.11.08-.06l-.22.12.24-.1a1.38,1.38,0,0,1-.29.08l.27,0h-.21l.26,0-.2,0,.24.1-.16-.09.09.07-.06-.07c.1.15.13.18.07.09a.22.22,0,0,1-.05-.08.89.89,0,0,1-.08-.17l.1.24a2.36,2.36,0,0,1-.15-.58l0,.26a2.48,2.48,0,0,1,0-.61l0,.27a1.88,1.88,0,0,1,.12-.48l-.1.24a2.25,2.25,0,0,1,.12-.21s.09-.13,0,0,0,0,0,0a.23.23,0,0,1,.07-.07c.1-.1-.09.06-.09.07s.17-.1.21-.12l-.24.1a1.38,1.38,0,0,1,.27-.08l-.26,0h.28l-.27,0h0l-.7-.69v0l0-.26a3,3,0,0,1,0,.73l0-.27a2.75,2.75,0,0,1-.19.71l.1-.23c0,.1-.09.19-.14.29s-.11.14,0,0,0,0,0,0l-.08.08c-.12.12.2-.13.06,0a.94.94,0,0,1-.22.12l.24-.1a1,1,0,0,1-.23.06l.27,0h-.15l.27,0a.7.7,0,0,1-.14,0l.24.1c-.18-.09.13.12.08.06s0,0,.09.13a.36.36,0,0,1,0-.09l.1.24a.5.5,0,0,1,0-.13l0,.26v-.13l0,.26a.77.77,0,0,1,0-.19l-.1.24a.69.69,0,0,1,.1-.19c0-.09-.14.15-.06.08a.6.6,0,0,0,.08-.08c.1-.09-.07.07-.09.07s.06,0,.07,0l.21-.1-.24.1a1.61,1.61,0,0,1,.36-.1l-.26,0h.32l-.26,0a2,2,0,0,1,.31.08l-.24-.1.18.1c.08,0-.15-.15-.1-.08l.08.07s.06.06.06.06-.15-.21-.08-.09.07.12.1.19l-.1-.24a2.45,2.45,0,0,1,.08.29l0-.27a1,1,0,0,1,0,.3l0-.27a1,1,0,0,1-.07.29l.1-.24a1.09,1.09,0,0,0-.08.15c.11-.15.14-.18.08-.11l0,0c-.14.15.2-.12.06,0l-.14.08.23-.1-.27.07.27,0a1.31,1.31,0,0,1-.28,0l.27,0a1.34,1.34,0,0,1-.27-.07l.24.1-.1-.06c-.06,0,0,0,0,0l0,0,0,0c-.06-.07,0,0,.07.09,0,0-.06-.1-.08-.14l.1.24a1.24,1.24,0,0,1,0-.16l0,.26a.61.61,0,0,1,0-.19l0,.26a1,1,0,0,1,0-.16l-.1.24a1.09,1.09,0,0,1,.06-.11s-.2.21,0,.09-.23.13-.09.06l.12-.06-.24.1.16,0-.26,0a.48.48,0,0,1,.17,0l-.27,0,.12,0-.24-.1.1.06s-.2-.2-.1-.07-.14-.24-.07-.1l.06.1-.1-.24a1.05,1.05,0,0,1,0,.19l0-.27a1.34,1.34,0,0,1,0,.2l0-.27a.8.8,0,0,1,0,.15l.1-.24s0,.06,0,.09.16-.2.07-.1.1-.09.11-.09a.53.53,0,0,0-.1.06l.24-.11a.42.42,0,0,1-.15,0l.26,0a.61.61,0,0,1-.19,0l.26,0-.18,0,.23.1-.06,0c-.09,0-.05,0,.1.09-.15-.17.12.19,0,0a1,1,0,0,0-1.37-.35,1,1,0,0,0-.36,1.36,1.63,1.63,0,1,0-.21-1.22,1.73,1.73,0,0,0,.46,1.64,1.85,1.85,0,0,0,1.22.54,1.94,1.94,0,0,0,2-1.31,2.14,2.14,0,0,0-.61-2.25,2.3,2.3,0,0,0-2.58-.25,1.83,1.83,0,0,0-.88,2.53A1.52,1.52,0,0,0,116,68a2.18,2.18,0,0,0,1.07-.66,3.22,3.22,0,0,0,.67-1.33,4.16,4.16,0,0,0,0-1.61.94.94,0,0,0-.7-.69,2.18,2.18,0,0,0-1,0,2.35,2.35,0,0,0-.87.46,2.29,2.29,0,0,0-.78,1.3,2.87,2.87,0,0,0,1,3,1.82,1.82,0,0,0,1.57.21,2.45,2.45,0,0,0,1.26-1,2.08,2.08,0,0,0-.61-2.94,1.86,1.86,0,1,0-1.29,3.44,1.86,1.86,0,0,0,1.69-.51,1.91,1.91,0,0,0,.53-1.7,1.86,1.86,0,0,0-.92-1.22,1.94,1.94,0,0,0-1.74-.06,1.89,1.89,0,0,0-.43,3,1.39,1.39,0,0,0,1.29.32,1.54,1.54,0,0,0,.91-.71,1.77,1.77,0,0,0,.28-.92,5.25,5.25,0,0,0-.12-1l0,.27a1.88,1.88,0,0,1,0-.41l0,.27a.36.36,0,0,1,0-.11,1,1,0,0,0-.26-1,1,1,0,0,0-1-.25,2.61,2.61,0,0,0-1.75,1.9,2.64,2.64,0,0,0,.64,2.53,1,1,0,0,0,1.41,0,4.35,4.35,0,0,0,1-1.81,3.41,3.41,0,0,0-.06-2.12,1.52,1.52,0,0,0-1-.93,1.23,1.23,0,0,0-1.27.33,1.41,1.41,0,0,0-.34,1.27,1.16,1.16,0,0,0,1.14.88,1,1,0,0,0,1-1,1,1,0,0,0-1-1Z" transform="translate(-18.35 -9.98)"/>
    <path class="cls-3" d="M81.76,105s-.07-.1,0,0,0,0,0,0l0,0,0,.12a.32.32,0,0,0,0-.09.24.24,0,0,0,0-.09s0,.23,0,.07v-.1c0-.12,0,.18,0,.06a.81.81,0,0,0,.07-.22s-.1.17,0,.09,0-.07,0-.1l.07-.09c.06-.11,0,0,0,0s.19-.19.21-.22a.79.79,0,0,1,.18-.14c-.14,0-.09.06,0,0l.09-.07.19-.12,0,0c.09,0,.09,0,0,0a.25.25,0,0,1-.21,0,.36.36,0,0,1-.23,0,.51.51,0,0,1-.16-.09s-.12-.19,0,0a.69.69,0,0,0,.1.19s-.06-.18,0-.08l0,.1s0,.13,0,.13,0-.23,0-.06a1.33,1.33,0,0,1,0,.2v.14s0-.21,0-.09a2.62,2.62,0,0,1-.13.48l0,.11s.08-.18,0-.07-.07.15-.11.23-.18.29-.28.44.1-.12,0,0l-.17.18-.15.15s-.14.13,0,0,0,0,0,0l-.18.11-.13.07.08,0a.73.73,0,0,0-.19.07l-.12,0s.21,0,.07,0,.2.06,0,0-.12-.07.07,0c0,0-.09-.08,0,0s-.14-.16,0,0,0-.11,0,.06,0,0,0,0,0-.07,0-.1,0,.21,0,.11a.65.65,0,0,0,0-.24s0,.2,0,.09,0-.06,0-.1a2,2,0,0,1,.08-.26c0-.1.06-.18,0,0,0-.09.08-.17.11-.24s.17-.32.26-.47a2.14,2.14,0,0,0,.13-.19l.07-.09c.1-.16,0,0,0,0a1.65,1.65,0,0,1,.35-.4,3.89,3.89,0,0,1,.36-.34s.2-.17.1-.09,0,0,0,0l.16-.12.11-.06s-.15,0,0,0-.28,0-.25,0a.62.62,0,0,1-.25-.14s-.13-.18-.07-.09,0-.1,0-.11,0,.08,0,.09c0,.19,0,0,0,0a.68.68,0,0,0,0,.2v.3c0,.19,0,.39,0,.58s0,0,0,0a.27.27,0,0,1,0,.12,2.93,2.93,0,0,1-.05.29q-.06.29-.15.57a2.25,2.25,0,0,0-.08.24l-.05.12,0,.07c0-.11,0,0,0,0l-.06.11a1.59,1.59,0,0,1-.15.29,1.74,1.74,0,0,1-.11.18c-.06.1.05-.06,0,0s-.08.09-.09.11-.16.12-.16.14.15-.09.06,0,0,0,0,0-.27,0,0,0c0,0-.13,0,0,0s.27.11.16,0l.07,0s.11.17.05.07a.41.41,0,0,0-.05-.09c-.09-.15,0,.13,0,0a2.85,2.85,0,0,1-.11-.39c0-.18,0,.19,0,0s0-.17,0-.25,0-.13,0-.2,0,.23,0,0,.07-.29.12-.43l0-.09s-.09.18,0,.09a1.24,1.24,0,0,1,.1-.2l.1-.17.05-.08c.1-.15,0,0,0,0l.26-.28.1-.08s-.17.11-.08.06l.19-.12s.24-.1.11-.07,0,0,0,0a.47.47,0,0,1-.41-.07,1,1,0,0,1-.15-.14c-.09-.09,0,0,0,0s-.06-.19,0-.09,0,.1,0,.16a1.57,1.57,0,0,1,0,.23c0-.17,0,0,0,.09a4.28,4.28,0,0,1,0,.62c0,.1,0,.21,0,.31s0,.09,0,.13,0-.16,0-.05-.08.4-.13.6c0,0-.08.18-.07.22s.08-.17,0-.08a.36.36,0,0,0,0,.09,1.27,1.27,0,0,0-.07.12s.14-.15,0-.08-.07.06-.07.07.18-.1,0,0c.22-.1.11,0,.05,0s.21,0,.11,0h-.1s.2.05.11,0,.12.09,0,0-.12,0,0,0,0,0,0,0-.12-.14,0,0,0,0,0,0a.41.41,0,0,1,0-.09c-.06-.11,0,0,0,0s0-.2-.07-.27,0,.06,0,.06a.42.42,0,0,1,0-.16,4.69,4.69,0,0,1,0-.53c0-.09,0-.19,0-.28a.45.45,0,0,0,0-.11c0-.15,0,.17,0,0l.06-.26s.06-.13,0,0,0,0,0,0-.12.14,0,0-.07.06-.07.06,0,0-.07,0l.12,0s-.21,0-.11,0-.11,0-.11,0S81.06,105,81,105s0,0,0,0c-.14-.18-.06-.07,0,0a.41.41,0,0,0,0,.09s.09.17,0,.06,0,0,0,0a.88.88,0,0,1,.05.15c0,.08,0,.16.06.23s.07.13,0,0c0,0,0,.09,0,.12a2.62,2.62,0,0,1,0,.28.86.86,0,0,1,0,.16s0,.16,0,0l0,.14a2,2,0,0,1-.08.26s-.06.14,0,0l0,.06a.41.41,0,0,1-.05.09c-.08.14,0,0,0,0a.55.55,0,0,1,.54-.13s.17.09.07,0,.12.13,0,0l-.08-.09s.1.17,0,0-.09-.16-.13-.24,0,.06,0,.06a.36.36,0,0,1,0-.11c0-.08,0-.17-.07-.26s0-.15,0,0,0,0,0,0a2.43,2.43,0,0,1,0-.27v-.12c0-.12,0,.08,0,.08s.07-.5.13-.52-.08.17,0,.07,0-.08.07-.13,0,.07,0,.06l.08-.08c.06-.08,0,0-.07,0s.15-.07-.06,0c0,0,.13,0,0,0a.66.66,0,0,1-.43-.12.58.58,0,0,1-.13-.14c.09.15,0,0,0-.06a.76.76,0,0,0,.06.2c0,.09,0,.18.05.27s0-.08,0-.07,0,.13,0,.15a4.34,4.34,0,0,1,0,.51s0,.11,0,.11,0-.25,0,0a2.56,2.56,0,0,1,0,.27l-.08.26s0,.07,0,.11,0,0,0-.06a1.93,1.93,0,0,1-.26.49l1.57-.21-.14-.18c.14.2,0,0,0-.08l-.12-.2c0-.06,0,0,0,.07,0,0,0-.07,0-.11l0-.11c0,.14,0,.16,0,0s-.07.22,0,0-.13.17,0,0-.16.13,0,0-.19.12,0,0a.31.31,0,0,1-.2.07c-.1,0-.1,0,0,0a.45.45,0,0,1-.26,0c-.09,0-.11,0,0,0a.62.62,0,0,1-.24-.24l0,0c.08.15-.08-.24,0-.08s0-.25,0-.09,0,.06,0-.14l.07-.15a.73.73,0,0,1,.39-.3l.77.1-.17-.09.08.06-.07-.06c-.14-.12.09.17,0,0l0-.08c0-.07,0,0,0,.1a1.21,1.21,0,0,0,0-.18c-.06-.18,0,.21,0,0s0-.21,0-.06,0,.1,0,0,0-.08,0-.11l-1.47.59c.14.08,0,0-.08-.08s-.1-.25-.07-.1l.69-1.23a.61.61,0,0,1,.44,0l.09.07s0,0,.06.09l0,0a.42.42,0,0,1,.07.29c0-.19-.06.22,0,0a1,1,0,0,0-.7-1.23,1,1,0,0,0-1.23.7,1.51,1.51,0,0,0,.35,1.51,1.54,1.54,0,0,0,1.48.46.94.94,0,0,0,.59-.46,1.08,1.08,0,0,0,.1-.77,1.5,1.5,0,0,0-.76-1,1,1,0,0,0-1.47.59,2.22,2.22,0,0,0,1,2.6,1.23,1.23,0,0,0,1.72-.51A1.55,1.55,0,0,0,82.8,105a1.49,1.49,0,0,0-1.29-.75,1.71,1.71,0,0,0-1.43.9,2,2,0,0,0-.15,1.62,4.11,4.11,0,0,0,.83,1.35,1,1,0,0,0,1.57-.21,4.68,4.68,0,0,0,.59-3.39A1.68,1.68,0,0,0,81.45,103a1.81,1.81,0,0,0-1.66,1,3.51,3.51,0,0,0,.14,3.49,1.69,1.69,0,0,0,2.15.74,2.35,2.35,0,0,0,1-1.58,3.82,3.82,0,0,0,0-1.87A2.38,2.38,0,0,0,82,103.25a1.79,1.79,0,0,0-2,.36,2.74,2.74,0,0,0-.68,1.8,4.46,4.46,0,0,0,.13,1.71,2.34,2.34,0,0,0,1.38,1.47,1.83,1.83,0,0,0,1.89-.38,2.92,2.92,0,0,0,.75-1.52,6.37,6.37,0,0,0,.14-1.85,2.62,2.62,0,0,0-.63-1.79c-1.08-1-2.6.21-3.22,1.15a3.82,3.82,0,0,0-.5,2.91,2.12,2.12,0,0,0,1,1.46,1.86,1.86,0,0,0,2-.37,3.67,3.67,0,0,0,.91-1.35,7,7,0,0,0,.52-1.69c.18-1.12.36-3-1.11-3.29a2.39,2.39,0,0,0-2,.83,6.5,6.5,0,0,0-1.06,1.22,3.59,3.59,0,0,0-.72,3.09,1.91,1.91,0,0,0,1.64,1.24,2.55,2.55,0,0,0,1.57-.47,4.5,4.5,0,0,0,1.85-2.64,3.13,3.13,0,0,0,0-1.69,1.75,1.75,0,0,0-1.58-1.36,2.89,2.89,0,0,0-1.71.94,2.69,2.69,0,0,0-.84,1.69,2.07,2.07,0,0,0,.6,1.66,1,1,0,0,0,1.41,0,1,1,0,0,0,0-1.42Z" transform="translate(-18.35 -9.98)"/>
    <path class="cls-3" d="M82.49,149.81c0-.22,0,0,0,.09a2.67,2.67,0,0,1-.09.26c.08-.19,0,.07-.05.09a1.5,1.5,0,0,1-.15.23c.1-.14,0,0-.07.08l-.2.18-.05,0-.28.15,1.21.16c-.16-.17,0,.14,0-.05s0,.11,0,0,0,.2,0,0,.05-.24,0,0a1.42,1.42,0,0,0,0-.2s.1-.21,0,0a2.82,2.82,0,0,1,.21-.38s.18-.24.06-.09l.15-.18c.12-.12.24-.24.37-.35s.2-.17.1-.1.1-.06.12-.07a.82.82,0,0,1,.2-.12s.23-.11.1-.06.11,0,.12,0,.23,0,.09,0-.07,0,0,0l-.13,0c.15,0-.1-.06-.14-.1a.56.56,0,0,1-.11-.2c0-.12,0-.12,0,0,.09-.11-.07.11-.08.13l-.15.21s-.14.19-.06.09l-.2.24-.36.38-.39.35s-.24.19-.13.11l-.25.18.77-.1c-.06,0-.19-.08-.07,0s.19.13.14.08.13.18,0,0,0,0,0,.06l0-.1c0-.06,0,0,0,0s.1-.1,0-.07-.08.22,0,.06l0-.07c-.05.12-.06.15,0,.08s.1-.13,0,0,.11-.1.11-.1-.05,0,0,0l.2-.11c.13-.07-.13.05,0,0l.22-.07.45-.13-.77-.1c.16.09,0,0,0,0a.93.93,0,0,0,.14.14c.1.05,0-.11,0,0a1.62,1.62,0,0,0,.1.18s-.06-.19,0,0,0,.11,0,.16,0,0,0,0a2,2,0,0,1,0,.24c0-.21,0-.09,0,0s0,0,0,0-.13.22,0,.09,0,0,0,0-.18.11,0,0l-.14.07s.2-.05,0,0-.28,0,0,0c-.1,0-.33,0-.12,0l-.14,0c.19,0,0,0,0,0s.14.07,0,0-.12-.15,0,0,0-.07,0-.08.06.14,0,0,0-.23,0,0a.66.66,0,0,0,0-.14c0-.06,0-.19,0,0l0-.14c0-.15,0,0,0,0s.07-.11.09-.16-.09.15,0,0a.6.6,0,0,0,.08-.08c-.09.08-.11.09,0,.06s-.16,0,0,0,.13-.06.17,0c-.12-.06-.11.1,0,0s.28.06,0,0l.28.07c-.22-.07-.06,0,0,0s.08.08,0,0,.18.18.07.06,0,0,0,0-.07-.16,0,0,0,.15,0,0,0,.23,0,0a.47.47,0,0,0,0,.16c0-.14,0-.08,0,0s-.17.19,0,.07l-.11.12c.12-.14.06,0,0,0l-.07,0,0,0s-.21.05-.07,0-.1,0-.11,0h.06c.09,0,.08,0,0,0s-.2-.14,0,0l-.18-.11c.18.12,0,0,0-.08.19.18,0-.08-.06-.13s0,.16,0,0a.58.58,0,0,0-.05-.14,1.29,1.29,0,0,1,0-.19c0,.12,0,.15,0,0v-.19s0-.24,0-.09.11-.32.06-.19.06-.12.06-.12l.12-.2s.16-.18,0-.05a1.29,1.29,0,0,1,.16-.17,3.47,3.47,0,0,1,.34-.32c.14-.11-.19.13.06,0L84,149c.28-.18.57-.34.86-.5l-1.47-.6.12.52c.06.32,0-.17,0,.16,0,.07,0,.14,0,.21a4.51,4.51,0,0,1,0,.52c0-.18,0,.14,0,.15a1.4,1.4,0,0,1-.09.29c0-.13,0,0,0,.09s-.07.11-.11.17c.17-.24-.28.21-.05,0a1.33,1.33,0,0,1-.35.2c.19-.08.06,0,0,0l-.16,0H82.6c.24,0,.07,0,0,0s.16.16,0,0,.09.11,0,0,0,0,0,0-.07-.13-.08-.14,0,.22,0,0,0,0,0,0V150c0-.16,0,.08,0,.07s.18-.46,0-.16c.06-.1.11-.2.17-.29-.14.2,0,.07,0,0l.08-.07c-.12.08-.13.1,0,0l.12-.07c-.25.13,0,0,.05,0-.14.06-.11,0,0,0h.25c-.31,0,.3.13.05,0l.15.07s.26.18.18.11.09.09.09.09l.11.12c-.14-.15,0,0,.05.08s0,.09.08.14c.12.22,0-.16,0,.08,0,.06,0,.13,0,.19.07.26,0-.15,0,.12a2.71,2.71,0,0,0,0,.29c0,.29,0-.1,0,.07a2.1,2.1,0,0,1-.06.24c0,.07,0,.15-.07.23s.11-.19,0,.08-.16.29-.25.43l0,0a3.73,3.73,0,0,1-.26.3,1.92,1.92,0,0,1-.53.32c-.11,0,.16,0-.07,0s0,.06-.06,0,.19.15,0,0,.1.13,0,0-.15-.22,0,0a2,2,0,0,0-.11-.2c.11.19,0,.06,0,0l-.06-.26c0,.22,0,.08,0,0s0-.39,0-.13l0-.15s.07-.23,0-.09a2.43,2.43,0,0,1,.29-.49c-.11.15.07-.09.08-.1l.2-.21a9.27,9.27,0,0,1,.89-.77l-1.57-.2c.12.23,0-.19,0,0a2.17,2.17,0,0,1,.07.24,1.29,1.29,0,0,1,0,.19c0,.12,0-.17,0,0s0,.32,0,.49c0-.14,0-.1,0,0l-.06.24-.07.19c.06-.2,0,0,0,.06a.88.88,0,0,1-.12.21s-.13.22-.06.1l-.07.09-.17.17c-.05,0-.23.15-.05,0l-.21.13,1.37.36c-.11-.22,0,.19,0,0a1,1,0,0,0,0-.18c0-.11,0,.19,0,0v-.22c0-.19,0,.11,0,0a1,1,0,0,0,0-.18c0-.07.05-.14.07-.22,0,.13,0,.1,0,0l.09-.16s.15-.19.06-.09,0,0,.07-.06.11-.11.16-.16-.09.06,0,0a.62.62,0,0,0,.16-.1c-.16.12,0,0,0,0s.29-.06,0,0l-.86-.49c0-.1,0,0,0,0l.06.19a3.6,3.6,0,0,1,.12.44s0,.21,0,.12,0,.1,0,.12a3.38,3.38,0,0,1,0,.45,1.48,1.48,0,0,1,0,.21c0,.06,0,.14,0,0a1.77,1.77,0,0,1-.08.4,3.66,3.66,0,0,1-.13.44c-.06.16,0-.11,0,0a2.4,2.4,0,0,1-.11.23l1.57-.21c-.15-.16,0,.12,0-.06s-.12-.27,0-.07a1.83,1.83,0,0,1-.08-.25c-.06-.23,0,.17,0-.07,0,0,0-.31,0-.08,0-.08,0-.16,0-.25s0,0,0,0,.1-.17.16-.25a1,1,0,0,0-.36-1.37,1,1,0,0,0-1.36.36,2.75,2.75,0,0,0,.27,3.49,1,1,0,0,0,1.57-.2,5.35,5.35,0,0,0,.11-4.73,1,1,0,0,0-.87-.5,3,3,0,0,0-2.35,1.58,3.08,3.08,0,0,0-.07,2.86,1,1,0,0,0,1.37.36,3.84,3.84,0,0,0,1.44-5,1,1,0,0,0-1.57-.21A5.54,5.54,0,0,0,80.48,151a2.84,2.84,0,0,0,.52,2.77,2.34,2.34,0,0,0,3.07.24,4.32,4.32,0,0,0,1.78-2.68,3.27,3.27,0,0,0-.87-3,2.79,2.79,0,0,0-2.84-.72,2.56,2.56,0,0,0-1.62,2.21A2.17,2.17,0,0,0,82,152.11a2.72,2.72,0,0,0,3-1.1,4.46,4.46,0,0,0,.35-3.68,1,1,0,0,0-1.47-.6c-1.37.74-2.77,1.79-2.89,3.48-.1,1.53,1.17,3.14,2.81,2.79a2.41,2.41,0,0,0,1.75-1.7,2.15,2.15,0,0,0-.86-2.29,2.35,2.35,0,0,0-2.07-.34,2.21,2.21,0,0,0-1.46,2,2.27,2.27,0,0,0,.95,2,2.34,2.34,0,0,0,2.33.11,2.48,2.48,0,0,0,.37-4.1,1.33,1.33,0,0,0-.84-.38,2.3,2.3,0,0,0-.63.14,3.76,3.76,0,0,0-1.15.53,2.14,2.14,0,0,0-.93,2.24c.18.88,1.21,1.79,2.12,1.23a7.23,7.23,0,0,0,1.91-1.83,3,3,0,0,0,.63-1.22,1.63,1.63,0,0,0-.67-1.74,2.33,2.33,0,0,0-2.5.29c-1.41,1-2.8,3-1.34,4.57a1,1,0,0,0,1.21.16,3.58,3.58,0,0,0,1.91-2.85,1,1,0,0,0-1-1,1,1,0,0,0-1,1Z" transform="translate(-18.35 -9.98)"/>
    <path class="cls-3" d="M191.06,184.81c-.16,0,.26.07.11,0,0,0,.25.12.14,0s.19.18.1.07.16.24.08.11.06.12,0,.12,0-.08,0-.09c0-.17,0,.13,0,.13s0-.1,0-.12c0-.22,0,.25,0,0,0,0,.06-.17,0,0s0,.06,0,0-.18.19-.07.09-.23.15-.1.09-.27.08-.13.05c-.05,0-.29,0-.11,0l-.86-.5a2.29,2.29,0,0,1,.1.23c-.09-.22,0,.05,0,.08a2,2,0,0,1,.12.48c0-.26,0,0,0,.06,0,.23.07-.16,0,.06v.06l0-.07-.06.11c-.06.08-.05.06,0-.06l-.13.13c0-.1.18-.12,0,0s.24-.07,0,0,.25,0,0,0,.23.07,0,0l.13.05c-.09-.05-.08,0,0,0-.17-.14.08.18,0,0a.75.75,0,0,1-.07-.12c0-.1,0-.09,0,0a1.73,1.73,0,0,0-.09-.34c-.05-.21,0,.24,0,0v-.36c0-.11,0-.08,0,.09a2.75,2.75,0,0,0,.11-.41c.06-.2-.11.21,0,0l.08-.15a.65.65,0,0,0,.1-.15l-.08.11.07-.09.13-.12c.15-.14-.2.12,0,0l.1-.07.11-.05c-.15.06-.18.07-.08,0l.16-.05c.19-.05-.25,0-.05,0h.17c.12,0,.17.07,0,0,.1,0,.22.06.32.09s-.2-.12,0,0l.2.12c.13.07-.06,0-.07-.06s.09.07.12.11.07.09.11.12c-.15-.11-.1-.15,0,0s.05.11.08.15c-.13-.17-.06-.16,0,0s0,.14,0-.05a.74.74,0,0,0,0,.21c0-.21,0-.2,0-.07s0,.1,0,.14c0-.24.08-.16,0-.08l-.07.11c-.09.16.17-.18,0,0l-.11.11c-.08.08-.17.09,0,0l-.17.11s-.1,0-.14.07c.17-.13.16-.06.05,0l-.3.08c.25-.08.17,0,.06,0h-.11c-.11,0-.18-.06.07,0l-.2-.05c-.18,0,.22.12,0,0l-.13-.08c-.17-.09.17.17,0,0l-.1-.11c-.14-.14.12.2,0,0a.57.57,0,0,0-.08-.13c-.09-.17.08.23,0,.05s0-.1,0-.15,0-.1,0-.15c.08.25,0,.18,0,.06s0-.21,0-.31c0,.26,0,.17,0,.06s0-.1,0-.15,0-.1.05-.15-.12.23,0,0a1,1,0,0,1,.08-.14s.12-.16,0,0,0,0,0,0l.11-.11c.13-.13-.21.13,0,0l.13-.08c.16-.1-.24.06,0,0l.13,0h-.05c.23,0-.22-.07,0,0l-.11,0c-.12-.1-.14-.11-.06,0l-.08-.11a.61.61,0,0,1,.07.1l-.05-.12a.56.56,0,0,1,0,.12l0,.13,0,.06c0,.11,0,.09,0-.07a.87.87,0,0,1,0,.23c0,.1,0,.21,0,.31a3.55,3.55,0,0,1,0,.46c.07-.26,0,0,0,0s0,.15-.05.22-.08.3-.13.45,0,.09-.05.14,0,.1,0,0l-.06.14c-.07.14-.14.27-.22.4l-.12.2-.05.06c-.06.09,0,.08,0,0s-.13.15-.14.15l.09-.07c-.09.05-.07.05.07,0l-.07,0a.45.45,0,0,1,.28,0c.14.06.16.07.07,0,.11.09.13.1.05,0s0,0,0,.07a.57.57,0,0,0-.08-.13c-.1-.16.07.23,0,.05a.83.83,0,0,0,0-.15c-.05-.18,0,.26,0,.07v-.16c0-.1.06-.19,0,.06,0-.06,0-.13,0-.2s0-.1.05-.15c0,.23-.07.16,0,.05l.07-.11c0-.08.12-.11-.06.06l.22-.22c-.16.18-.14.1,0,.05s-.17,0,0,0l.15,0c-.19,0-.22,0-.11,0h.1c.19,0-.24-.06-.06,0l.1,0-.1,0,.09.05c.22.13-.12-.12,0,0l.12.11c.17.19-.08-.14,0,0a.57.57,0,0,1,.08.13c.13.23,0-.16,0,0s0,.1,0,.15c.06.26,0-.18,0,0a.75.75,0,0,0,0,.15c0-.22,0-.19,0-.07s-.09.11,0,0l-.05.09c-.06.09,0,.06.07-.07l-.1.1c-.12.12.22-.15,0,0s.24-.07.07,0l-.18.05c.26-.08.19,0,.08,0h-.19c.29,0,.19,0,.1,0l-.16-.05c-.18,0,.22.12.06,0l-.17-.1c-.16-.09.18.17.05.05a.86.86,0,0,0-.13-.14c.18.15.11.16.05.06s.05.19,0,0a.65.65,0,0,0,0-.13c.09.25,0,.17,0,0a1,1,0,0,0-1-1,1,1,0,0,0-1,1,2.34,2.34,0,0,0,3.49,1.91,2.13,2.13,0,0,0,.89-2.34,2.53,2.53,0,0,0-1.64-1.79,2.17,2.17,0,0,0-2.26.65,2.71,2.71,0,0,0-.63,2.36,2.27,2.27,0,0,0,.61,1.09,1.62,1.62,0,0,0,1.9.28,4,4,0,0,0,1.58-2.42,6.44,6.44,0,0,0,.22-1.44,3.61,3.61,0,0,0-.17-1.35,1.81,1.81,0,0,0-1.23-1.2,2.17,2.17,0,0,0-1.61.28,2.89,2.89,0,0,0-.7,4.23,2.65,2.65,0,0,0,4.13-.5,2.29,2.29,0,0,0,0-2.42,2.88,2.88,0,0,0-2.21-1.23,2.66,2.66,0,0,0-2.3,1.19,3.23,3.23,0,0,0-.48,2.44,2.52,2.52,0,0,0,.65,1.29,1.75,1.75,0,0,0,1.64.5,2.18,2.18,0,0,0,1.63-2.36,5.17,5.17,0,0,0-.5-1.62,1,1,0,0,0-.87-.49,1.7,1.7,0,0,0,0,3.38,1,1,0,0,0,1-1,1,1,0,0,0-1-1Z" transform="translate(-18.35 -9.98)"/>
    <path class="cls-3" d="M251.23,106.6a.66.66,0,0,1,0-.14c0-.18-.06.26,0,.08,0,0,0-.13,0-.13s-.13.25-.05.11l.07-.12c.09-.15-.17.19-.05.06l.08-.08.06,0c.07-.07,0,0-.1.07a.5.5,0,0,0,.12-.08c.1,0,.18,0-.07,0a1.42,1.42,0,0,0,.22-.07c-.22.08-.2,0-.08,0s.17,0-.08,0l.09,0c.23.06-.16-.09,0,0l.1.07c-.21-.11-.16-.14-.1-.08a.3.3,0,0,0,.08.08c.12.13-.14-.21-.06-.07s.11.28,0,0l.08.29c-.09-.31,0-.15,0,0s0,.08,0,.13c0-.31,0-.2,0-.11l0,.08c0,.11-.09.12,0-.08l-.06.1c-.07.14.2-.19.05,0a.27.27,0,0,0-.08.07c.15-.18.17-.12.06-.06s-.17.05.1,0l-.08,0-.12,0c.28-.08.22,0,.11,0a.49.49,0,0,0-.12,0s.3.05.11,0l-.12,0c-.1,0-.14-.11.09,0l-.19-.11c-.07,0-.16-.15.07.06l-.1-.09c-.07-.06-.12-.13-.18-.19.19.2.1.14,0,.06l0-.07-.07-.12c0-.09,0-.19,0,.08A1.66,1.66,0,0,1,251,106c0-.1,0-.2,0,.1a1.08,1.08,0,0,1,0-.18c0-.24-.06.25,0,0,0,0,0-.09,0-.14s.11-.16,0,.06c0-.06.07-.14.11-.21a.76.76,0,0,0,.08-.11c-.13.24-.09.11,0,0l.23-.21c.14-.13-.21.14,0,0l.12-.08.3-.16c.07,0,.15,0-.1,0l.19-.07.29-.08.15,0c.26-.05-.19,0,0,0a3.53,3.53,0,0,1,.65,0l-1-.73s0-.25,0-.11v.12a.41.41,0,0,1,0,.11c0,.12.06-.26,0-.09l-.06.22c0,.11.1-.19,0-.09l-.06.11-.06.09c-.07.13.06-.09.07-.08s-.14.15-.16.17.06,0,.06,0l-.08.06c-.08,0-.34.15,0,0l1,.26s-.13-.16,0,0,0,0,0,0a.39.39,0,0,1-.06-.11c-.06-.09.08.25,0,.08a1,1,0,0,1-.06-.22c0-.18,0,.06,0,.09s0-.1,0-.13,0-.15,0-.23c0,.33,0,.08,0,0s.07-.18,0,0,0,0,0,0l.06-.09c.09-.16-.16.18,0,0l-1.21.16.16.09c-.22-.1-.17-.15-.11-.08l.07.06s.1.13,0,0,0,0,0,0l0,.07c.08.14-.06-.11-.05-.12a1.54,1.54,0,0,0,.05.17s0,.06,0,.09,0-.29,0-.14,0,.12,0,.18-.06.3,0,0c0,.09,0,.29-.09.35s.12-.25.05-.13l-.05.09s-.15.21,0,0,0,0-.06,0,.09-.09.11-.08l-.07,0-.08,0c-.12.07.23-.07.13,0l-.2,0,.77.1c-.18-.1.12.11.07.06s.14.21.06.08.07.27.05.12l0-.1c.09.25,0,.25,0,.13s0,.11,0,.12.11-.35,0-.12,0,0,0,0,.13-.06-.07.08l.07-.07c.09-.12-.22.14-.09.07s-.18,0-.11,0,.19,0,0,0-.13,0-.06,0,.05,0-.16,0c.13,0,.06.08-.11-.05l.09,0c-.17,0-.2-.16-.11-.07s-.16-.22-.08-.1-.06-.18,0-.11l0,.11c0,.14,0-.28,0-.13v.1c0,.18,0-.1,0-.13s-.12.35,0,.11,0,0,0,0,.19-.2.08-.1a.46.46,0,0,0-.07.07c.11-.15.21-.15.1-.09s.26-.09.12,0,.32,0,.1,0l.51.14s.19.16.1.07.1.17.06.09-.12-.23,0,0,0-.09,0-.09,0,.27,0,.14v-.11s0-.16,0,0,0,.07,0,0,0-.1,0-.1-.12.23-.05.12l.05-.07c.06-.12-.07.11-.08.1l0,0-.05,0c-.15.11,0,0,0,0l-1.36-.36s.08.17,0,0,0,0,0,0,0-.23,0-.12v.1c0,.14,0-.13,0-.14l0,.11c0,.18,0-.11.05-.1l-.05.1-.06.09s.17-.19.07-.1l-.08.08c-.06.08.22-.14.09-.07l-.09.05c-.08,0,.25-.09.1-.05s.13,0,.14,0h-.13l1,.74a2.35,2.35,0,0,1-.11-.35c-.05-.21,0,.23,0,0v-.24c0-.11,0-.09,0,.08a.58.58,0,0,0,0-.18s0-.1,0-.15c.08-.23-.08.16,0,0a1,1,0,1,0-1.72-1,2.89,2.89,0,0,0-.17,2.37,1.19,1.19,0,0,0,.36.52,1,1,0,0,0,.61.21,2,2,0,0,0,1.69-3,1,1,0,0,0-1.36-.36,1.93,1.93,0,0,0-.93,1.81c.08.9.74,1.86,1.77,1.59a1.88,1.88,0,0,0,.76-3,1.57,1.57,0,0,0-1.95-.2,2,2,0,0,0-.88,1.66,1.6,1.6,0,0,0,.75,1.38,1.15,1.15,0,0,0,.94.11,2.08,2.08,0,0,0,1.3-1,2.38,2.38,0,0,0-.8-3.27,1,1,0,0,0-1.21.16,2.56,2.56,0,0,0-.66,1.75,2.6,2.6,0,0,0,.7,1.74,1,1,0,0,0,1,.26,2.69,2.69,0,0,0,1.4-1.15,2.73,2.73,0,0,0,.31-1.81,1,1,0,0,0-.36-.52,1,1,0,0,0-.61-.22,4,4,0,0,0-3.17,1.15A2.71,2.71,0,0,0,249,106a2.61,2.61,0,0,0,.67,1.74,2.24,2.24,0,0,0,3.28.33,2.28,2.28,0,0,0-.41-3.42,2.1,2.1,0,0,0-2.21,0,2.19,2.19,0,0,0-1.08,2,1.05,1.05,0,0,0,.29.71,1,1,0,0,0,.71.29,1,1,0,0,0,1-1Z" transform="translate(-18.35 -9.98)"/>
    <path class="cls-3" d="M145.12,83l0,0,.24-.1-.1,0,.27,0h-.07l.27,0-.09,0,.24.1-.09,0,.2.15-.06-.07.15.21,0-.06.1.24v0l0,.27V83.6l0,.26a.06.06,0,0,1,0,0l-.1.24a.13.13,0,0,1,0-.06l-.16.2s0,0,.05,0l-.2.16.09,0-.24.1a.19.19,0,0,1,.1,0l-.26,0h.13l-.26,0,.07,0-.23-.1.07,0-.21-.15a.26.26,0,0,1,.09.09L145,84l.05.09-.1-.24A1.09,1.09,0,0,1,145,84l0-.26a1.13,1.13,0,0,1,0,.26l0-.26a1.61,1.61,0,0,1-.1.36l.1-.24a2,2,0,0,1-.18.32l.15-.2a1.28,1.28,0,0,1-.26.26l.2-.15a.72.72,0,0,1-.21.12l.24-.1-.18,0,.26,0h-.16l.27,0-.12,0,.23.1-.11-.06.2.15a.52.52,0,0,1-.11-.1l.15.2-.07-.12.1.24a.7.7,0,0,1,0-.14l0,.26a.67.67,0,0,1,0-.2l0,.26a1.5,1.5,0,0,1,.09-.35l-.1.24a2.22,2.22,0,0,1,.3-.49l-.16.2a2.15,2.15,0,0,1,.32-.35l-.2.16a.27.27,0,0,1,.1-.06l-.24.1.08,0-.27,0h.1l-.27,0,.08,0-.24-.1,0,0-.2-.16.05.06-.15-.21a.54.54,0,0,1,.07.13l-.1-.24a1.6,1.6,0,0,1,.05.21l0-.26a1.61,1.61,0,0,1,0,.31l0-.26a1.86,1.86,0,0,1-.13.46l.1-.23a1.22,1.22,0,0,1-.17.29l.16-.2s-.09.1-.15.15l.2-.16a.37.37,0,0,1-.12.07l.24-.1a.19.19,0,0,1-.1,0l.26,0h-.11l.27,0L145,84l.24.1-.1-.06.2.16a.86.86,0,0,1-.13-.14l.15.21a2,2,0,0,1-.14-.25l.11.24a1,1,0,0,1-.08-.29l0,.27a1.93,1.93,0,0,1,0-.34l0,.27a1.38,1.38,0,0,1,.08-.29l-.1.24a1.26,1.26,0,0,1,.13-.23l-.15.2a.81.81,0,0,1,.16-.16l-.2.16.16-.1-.24.1.2,0-.27,0h.28L145,84a1.05,1.05,0,0,1,.24.06L145,84a1.13,1.13,0,0,1,.21.12l-.21-.16a1,1,0,0,1,.15.14l-.16-.2a.6.6,0,0,1,.09.15l-.1-.24a.58.58,0,0,1,0,.18l0-.27v.15l0-.27a.74.74,0,0,1,0,.14l.1-.24a.59.59,0,0,1-.1.17l.16-.2-.15.14.2-.15a.77.77,0,0,1-.18.1l.24-.1a.59.59,0,0,1-.19,0l.27,0a.49.49,0,0,1-.17,0l.27,0-.14,0,.24.1-.1-.06.21.16a.57.57,0,0,1-.11-.11l.15.2a.75.75,0,0,1-.07-.12l.1.24a.55.55,0,0,1,0-.17l0,.27a.54.54,0,0,1,0-.18l0,.27a.86.86,0,0,1,.06-.23l-.1.23a2.61,2.61,0,0,1,.17-.28l-.15.2a1.66,1.66,0,0,1,.27-.26l-.2.15a1.69,1.69,0,0,1,.32-.19l-.24.1.09,0-1.12-.46a1.71,1.71,0,0,1,.14.27l-.1-.24a1.66,1.66,0,0,1,.12.45l0-.27a2.46,2.46,0,0,1,0,.47l0-.27a1.55,1.55,0,0,1-.13.48l.1-.23a2.28,2.28,0,0,1-.17.3l.86-.5h0l.26,0a1.47,1.47,0,0,1-.28-.08l.24.1a2,2,0,0,1-.25-.14l.21.15a1.31,1.31,0,0,1-.24-.23l.16.2a1,1,0,0,1-.14-.25l.1.24a1.29,1.29,0,0,1-.08-.28l0,.27a1,1,0,0,1,0-.25l0,.26a1.58,1.58,0,0,1,.09-.31l-.1.24a1.28,1.28,0,0,1,.15-.25l-.16.2a2,2,0,0,1,.2-.21l-.2.16a1.28,1.28,0,0,1,.25-.15l-.24.1.07,0-1.13-.46a3.22,3.22,0,0,1,.39.64l-.1-.24a1.57,1.57,0,0,1,.08.29l0-.26a1,1,0,0,1,0,.25l0-.26a.42.42,0,0,1,0,.15l.11-.24a.86.86,0,0,1-.1.16l.16-.2-.13.13.2-.16a1.18,1.18,0,0,1-.19.11l.24-.1a.58.58,0,0,1-.14,0l.27,0h-.14l.27,0-.08,0,.24.1a.31.31,0,0,1-.1,0l.2.15a.23.23,0,0,1-.07-.07l.15.21a1,1,0,0,1-.08-.14l.1.24a3.14,3.14,0,0,1-.17-.67l0,.27a1.3,1.3,0,0,1,0-.34l0,.27a.65.65,0,0,1,.05-.2l-.1.24a.83.83,0,0,1,.09-.16l-.15.2a.8.8,0,0,1,.13-.13l-.2.16.12-.07-.24.1.1,0-.26,0a.33.33,0,0,1,.1,0l-.27,0h0l-.7-.7a3.39,3.39,0,0,1,.22.83l0-.27a3.78,3.78,0,0,1,0,1l0-.26a3.83,3.83,0,0,1-.19.74l1.23-.7-.1,0,.24.1-.22-.13.2.15a.77.77,0,0,1-.18-.18l.15.2a1,1,0,0,1-.15-.25l.1.24a1.28,1.28,0,0,1-.07-.28l0,.27v-.22l0,.26a.9.9,0,0,1,.08-.28l-.1.24a.71.71,0,0,1,.13-.22l-.16.2a1,1,0,0,1,.21-.21l-.21.16.22-.13-.23.1.17,0-1-.26.06.08-.15-.2a1.32,1.32,0,0,1,.12.2l-.11-.23a1.12,1.12,0,0,1,.08.26l0-.27a1.6,1.6,0,0,1,0,.31l0-.26a.77.77,0,0,1-.07.26l.1-.24a.92.92,0,0,1-.13.24l.15-.2-.09.1A1,1,0,0,0,146,85.18a2.07,2.07,0,0,0,.05-2.88,1,1,0,0,0-1-.25A2.07,2.07,0,0,0,143.53,84a1.92,1.92,0,0,0,.33,1.14A2.19,2.19,0,0,0,145,86a1,1,0,0,0,.77-.1,1.15,1.15,0,0,0,.46-.6,4.6,4.6,0,0,0,.19-2.27c-.08-.47-.24-1.15-.68-1.38a1.41,1.41,0,0,0-1.68.35,1.81,1.81,0,0,0-.47,1.4,3.05,3.05,0,0,0,.37,1.3,1.43,1.43,0,0,0,1.28.68,1.74,1.74,0,0,0,1.54-1.26,2,2,0,0,0,0-.93,2.83,2.83,0,0,0-.56-1.09,1.07,1.07,0,0,0-.48-.41.91.91,0,0,0-.65,0,2.24,2.24,0,0,0-1.17.93,2,2,0,0,0-.29,1.36,2.09,2.09,0,0,0,.61,1.24,2.15,2.15,0,0,0,.53.38,2.11,2.11,0,0,0,.85.23,1,1,0,0,0,.87-.49,2.75,2.75,0,0,0,0-3,1,1,0,0,0-.48-.41.91.91,0,0,0-.65-.05,2.24,2.24,0,0,0-1.61,2.48,1.56,1.56,0,0,0,1.45,1.16A1.78,1.78,0,0,0,147,84a1.59,1.59,0,0,0-.18-1,1.78,1.78,0,0,0-1.2-.9,2.06,2.06,0,0,0-.89,0,1.73,1.73,0,0,0-.79.42,2,2,0,0,0-.66,1.45,2.2,2.2,0,0,0,.55,1.53,1.45,1.45,0,0,0,1.87.25,2.3,2.3,0,0,0,.88-1.33,2.09,2.09,0,0,0-.16-1.57,1.31,1.31,0,0,0-1.09-.64,1.52,1.52,0,0,0-1.07.5,3.35,3.35,0,0,0-.78,1.24,1.67,1.67,0,0,0,.14,1.52,1.63,1.63,0,0,0,.89.65,1.45,1.45,0,0,0,.92,0,2,2,0,0,0,.8-.5,2.29,2.29,0,0,0,.45-.62,2.07,2.07,0,0,0,.06-1.89,1.42,1.42,0,0,0-1.93-.52,1.25,1.25,0,0,0-.64,1.06,1.29,1.29,0,0,0,.64,1.1,1.34,1.34,0,0,0,1.33,0,1,1,0,0,0,.36-1.37,1,1,0,0,0-1.37-.36Z" transform="translate(-18.35 -9.98)"/>
    <path class="cls-3" d="M146.08,104.7v-.07l0,.27a.7.7,0,0,1,0-.14l-.1.24.06-.09-.16.21a.47.47,0,0,1,.1-.1l-.2.16.08-.06-.23.11a.16.16,0,0,1,.09,0l-1.26-1a1.53,1.53,0,0,1,0,.37l0-.27a1.51,1.51,0,0,1-.13.46l.11-.24a2.5,2.5,0,0,1-.25.41l.16-.21a1.52,1.52,0,0,1-.31.31l.2-.15a2.33,2.33,0,0,1-.34.2l.24-.1h0l1.23.7a1.22,1.22,0,0,1-.06-.26l0,.27a1.53,1.53,0,0,1,0-.37l0,.27a1.48,1.48,0,0,1,.12-.41l-.1.24a1.66,1.66,0,0,1,.23-.41l-.16.2a2,2,0,0,1,.36-.35l-.21.15a2.32,2.32,0,0,1,.38-.21l-.24.1a1.64,1.64,0,0,1,.38-.1l-.27,0a1.82,1.82,0,0,1,.33,0l-1-.73a1.55,1.55,0,0,1,0,.21l0-.27a1.71,1.71,0,0,1,0,.32l0-.26a1,1,0,0,1-.08.3l.1-.23a1.49,1.49,0,0,1-.14.24l.16-.21-.15.15.2-.15a1.18,1.18,0,0,1-.19.11l.24-.1-.22.06.26,0a1,1,0,0,1-.25,0l.26,0a.83.83,0,0,1-.21-.06l.24.1-.16-.09.2.15a.86.86,0,0,1-.14-.13l.16.2a.57.57,0,0,1-.08-.13l.1.24a.8.8,0,0,1,0-.15l0,.27v-.18l0,.27a.53.53,0,0,1,.05-.18l-.1.24a.77.77,0,0,1,.1-.18l-.15.2a.52.52,0,0,1,.1-.11l-.2.16a.6.6,0,0,1,.15-.09l-.24.1.11,0-.26,0a.33.33,0,0,1,.14,0l-.26,0,.12,0-.24-.11a.57.57,0,0,1,.13.08l-.2-.16.09.1-.15-.2a.53.53,0,0,1,.08.15l-.1-.24a.79.79,0,0,1,.06.22l0-.26a1.22,1.22,0,0,1,0,.33l0-.27a1.33,1.33,0,0,1-.1.34l.1-.24a1.17,1.17,0,0,1-.15.27l.15-.2a1.89,1.89,0,0,1-.2.2l.2-.15a.94.94,0,0,1-.22.12l.24-.1-.15,0,.26,0a.33.33,0,0,1-.14,0l.26,0-.17-.05.24.1-.16-.09.21.15a1.07,1.07,0,0,1-.19-.18l.16.2a1.09,1.09,0,0,1-.14-.23l.1.24a1.22,1.22,0,0,1-.06-.26l0,.26a1.41,1.41,0,0,1,0-.29l0,.27a1.06,1.06,0,0,1,.09-.35l-.1.24a1.56,1.56,0,0,1,.16-.28l-.15.2a1.26,1.26,0,0,1,.2-.2l-.2.16a.92.92,0,0,1,.21-.13l-.24.1a1,1,0,0,1,.25-.06l-.27,0a1.08,1.08,0,0,1,.18,0l-.26,0a.7.7,0,0,1,.19.06l-.24-.11a.82.82,0,0,1,.2.12l-.2-.16a1.7,1.7,0,0,1,.19.19l-.16-.21a1.35,1.35,0,0,1,.15.26l-.1-.24a1.82,1.82,0,0,1,.07.25l0-.27a.67.67,0,0,1,0,.2l0-.27a1.33,1.33,0,0,1,0,.19l.1-.24a.42.42,0,0,1-.09.14l.16-.2-.1.1.2-.16a.41.41,0,0,1-.11.07l.24-.1-.15,0,.27,0h-.22l.27,0-.21,0,.24.1-.18-.11.2.16a.8.8,0,0,1-.13-.13l.16.21-.06-.11.1.24a.49.49,0,0,1,0-.11l0,.26v-.12l0,.27,0-.1-.1.24.06-.11-.15.2a.23.23,0,0,1,.07-.07l-.21.16.11-.07-.24.1.17,0-.27,0h.18l-.26,0a.48.48,0,0,1,.17.05l-.24-.1.13.07-.2-.15.09.08-.16-.2.05.09-.1-.24a.28.28,0,0,1,0,.13l0-.27a.49.49,0,0,1,0,.12l0-.27,0,.11.1-.24a.54.54,0,0,1-.07.13l.15-.2a.46.46,0,0,1-.12.12l.2-.15-.15.09.24-.1-.17,0,.26,0a.33.33,0,0,1-.14,0l.27,0-.14,0,.24.1a.21.21,0,0,1-.1-.06l.2.16-.08-.08.16.2a.41.41,0,0,1-.07-.11l.1.24a.83.83,0,0,1,0-.15l0,.26a.6.6,0,0,1,0-.19l0,.27a1.05,1.05,0,0,1,.05-.19l-.1.24a.54.54,0,0,1,.1-.16l-.16.2.09-.09-.2.15.12-.07-.24.11.08,0h-.53l.11,0-.24-.1.1.06-.2-.16.1.11-.15-.2s.05.08.07.13l-.1-.24a.83.83,0,0,1,0,.15l0-.27a.75.75,0,0,1,0,.15l0-.27a.2.2,0,0,1,0,.11l.1-.23,0,.07.15-.2-.08.08.21-.15-.1.06.24-.1-.14,0,.26,0h-.17l.27,0-.14,0,.23.1-.12-.07.2.15a.6.6,0,0,1-.08-.08l.16.2-.06-.1.1.24a.29.29,0,0,1,0-.09l0,.26v-.12l0,.26a.83.83,0,0,1,0-.15l-.1.24a.57.57,0,0,1,.08-.13l-.15.2.09-.09-.21.15.14-.07-.24.1.09,0-.27,0h.1l-.86-.49a.54.54,0,0,0,.05.11l-.1-.24a1.83,1.83,0,0,1,.12.46l0-.27a2.18,2.18,0,0,1,0,.51l0-.27a1.53,1.53,0,0,1-.11.42l1.23-.7-.09,0,.24.1-.12-.07.2.15a.76.76,0,0,1-.09-.09l.16.2a.42.42,0,0,1-.09-.14l.1.24,0-.13,0,.26V105l0,.26,0-.12-.1.23.07-.11-.15.2.09-.09-.2.16a.42.42,0,0,1,.14-.09l-.23.1.12,0-.26,0h.13l-.26,0h0l-.6-.46,0,0-.1-.24a2,2,0,0,1,.09.33l0-.26a1,1,0,0,1,0,.35l0-.27a1.78,1.78,0,0,1-.1.38l.1-.24a1.28,1.28,0,0,1-.17.3l.15-.2a1.88,1.88,0,0,1-.24.25l.2-.16,0,0,1.21.16-.15-.17.15.2a1.11,1.11,0,0,1-.17-.3l.1.24a1.64,1.64,0,0,1-.1-.38l0,.27a1.48,1.48,0,0,1,0-.42l0,.26a1.14,1.14,0,0,1,.11-.4l-.11.24a1.92,1.92,0,0,1,.18-.31l-.15.2a1.53,1.53,0,0,1,.18-.18l-1.21.16h0l-.2-.15.09.09-.16-.2.06.1-.1-.23a.57.57,0,0,1,0,.14l0-.27a.74.74,0,0,1,0,.21l0-.27-.06.2.1-.23a.87.87,0,0,1-.11.18l.16-.21-.12.13.2-.15-.13.07.24-.1a.37.37,0,0,1-.14,0l.26,0h-.13a1,1,0,0,0-.71.29,1,1,0,0,0,0,1.41l.21.16a1.07,1.07,0,0,0,.5.14,1.43,1.43,0,0,0,.9-.25,1.85,1.85,0,0,0,.7-.93,1.71,1.71,0,0,0,.05-1,1.28,1.28,0,0,0-.17-.42,1.59,1.59,0,0,0-.49-.51l-.24-.1a.78.78,0,0,0-.4,0,1,1,0,0,0-.57.28,2.48,2.48,0,0,0,0,3.57,1.14,1.14,0,0,0,.57.28,1,1,0,0,0,.64-.12,2.67,2.67,0,0,0,.7-.72,2.09,2.09,0,0,0,.28-.69c.16-.71.07-1.84-.78-2.09a1.54,1.54,0,1,0-.75,3,1,1,0,0,0,.77-.11l.2-.15a1,1,0,0,0,.26-.44,2.47,2.47,0,0,0,.16-1,2.89,2.89,0,0,0-.33-1.22,1,1,0,0,0-.86-.5,1.53,1.53,0,0,0-1.29.72,1.51,1.51,0,0,0-.21.49,1.49,1.49,0,0,0,2.31,1.55,1.45,1.45,0,0,0,.65-1.28,1.59,1.59,0,0,0-.72-1.25,1.27,1.27,0,0,0-1.41,0,1.71,1.71,0,0,0-.69,1,1.72,1.72,0,0,0,.16,1.22,1.44,1.44,0,0,0,.95.7,1.64,1.64,0,0,0,1.24-.25,1.63,1.63,0,0,0,.73-1.25,1.53,1.53,0,0,0-1.55-1.52,1.48,1.48,0,0,0-1.54,1.5,1.51,1.51,0,0,0,.49,1,2,2,0,0,0,1.12.47,1.59,1.59,0,0,0,1.66-1.21,2,2,0,0,0-.6-1.89,1.93,1.93,0,0,0-1-.47,1.84,1.84,0,0,0-1.15.22,2.26,2.26,0,0,0-1.09,1.81,2,2,0,0,0,1,1.9,1.66,1.66,0,0,0,1.59-.05,2.19,2.19,0,0,0,1-2.54,1.66,1.66,0,0,0-.71-.91,1.6,1.6,0,0,0-1.19-.15,1.71,1.71,0,0,0-1.12,2.06,1.74,1.74,0,0,0,1.82,1.21,1.86,1.86,0,0,0,1.2-.53,2.11,2.11,0,0,0,.54-1,2.35,2.35,0,0,0,0-1.15,1,1,0,0,0-.36-.52,1.1,1.1,0,0,0-.61-.22,2.54,2.54,0,0,0-2.11.93,2.79,2.79,0,0,0-.6,1.14,2.43,2.43,0,0,0,0,1.31,1.07,1.07,0,0,0,.46.6,1,1,0,0,0,.77.1,3,3,0,0,0,.88-.52,2.69,2.69,0,0,0,.53-.63,2.62,2.62,0,0,0,.39-1.57,1,1,0,0,0-1.27-1,1.47,1.47,0,0,0-1.11,1.43,1.1,1.1,0,0,0,.29.71,1.05,1.05,0,0,0,.71.29,1,1,0,0,0,1-1Z" transform="translate(-18.35 -9.98)"/>
  </g>
  <g>
    <g>
      <path class="cls-3" d="M239.48,91.87a11.1,11.1,0,0,0-1.88,6,4.75,4.75,0,0,0,.37,2.91,2.1,2.1,0,0,0,2.24.95c.32-.08.18-.56-.13-.49a1.69,1.69,0,0,1-2-1.51,9.66,9.66,0,0,1,.06-2.63,9.89,9.89,0,0,1,1.75-5c.19-.25-.25-.5-.44-.25Z" transform="translate(-18.35 -9.98)"/>
      <path class="cls-3" d="M240.51,96.12a7.53,7.53,0,0,1,1.63-2.53h-.35a1.7,1.7,0,0,1,.37,1.12c.05.53.09,1.06.11,1.6,0,1,.06,2.09,0,3.13a.25.25,0,0,0,.5,0c0-1.16,0-2.33-.05-3.49,0-.54-.06-1.08-.13-1.62a1.71,1.71,0,0,0-.48-1.09.25.25,0,0,0-.35,0A8,8,0,0,0,240,96c-.11.3.37.43.48.13Z" transform="translate(-18.35 -9.98)"/>
      <path class="cls-3" d="M240.6,100.34l1.87-1a2.21,2.21,0,0,1,1.77-.39c.3.11.43-.37.13-.48a2.46,2.46,0,0,0-2,.34c-.69.36-1.37.75-2.05,1.12a.25.25,0,0,0,.25.43Z" transform="translate(-18.35 -9.98)"/>
      <path class="cls-3" d="M245.32,97.16a23.22,23.22,0,0,1,2.76-.4c.32,0,.32-.53,0-.5a23.84,23.84,0,0,0-2.9.42c-.31.06-.18.55.14.48Z" transform="translate(-18.35 -9.98)"/>
      <path class="cls-3" d="M246.43,95.12c0,.8,0,1.6,0,2.4,0,.38,0,.77,0,1.14a.67.67,0,0,0,.41.65c.3.12.43-.36.13-.48,0,0,0,0,0-.08a.66.66,0,0,1,0-.14c0-.16,0-.33,0-.49v-1c0-.67,0-1.34,0-2,0-.32-.49-.32-.5,0Z" transform="translate(-18.35 -9.98)"/>
      <path class="cls-3" d="M251.38,99.11,251,96a.25.25,0,0,0-.25-.25.26.26,0,0,0-.25.25l.39,3.13a.25.25,0,0,0,.25.25c.12,0,.27-.11.25-.25Z" transform="translate(-18.35 -9.98)"/>
      <path class="cls-3" d="M252.81,98c.74-.27,1,.71,1.11,1.22a.25.25,0,0,0,.49-.06l-.17-2.91-.09-1.48c0-.23,0-.47,0-.71,0,0,0-.18,0-.23s.25-.05.3-.06l1.37-.26.69-.13a1.65,1.65,0,0,1,.62-.07c.4.1.31.89.33,1.21,0,.51,0,1,0,1.54,0,.33.48.32.5,0a15.1,15.1,0,0,0,0-1.78c0-.42,0-1-.34-1.29s-.82-.17-1.22-.09l-1.78.34c-.4.07-.91.08-1,.59a7.38,7.38,0,0,0,0,.82l.06.89.21,3.62.49-.07a2.48,2.48,0,0,0-.56-1.27,1.12,1.12,0,0,0-1.16-.3c-.3.11-.17.59.13.48Z" transform="translate(-18.35 -9.98)"/>
      <path class="cls-3" d="M255.25,95.82a.46.46,0,0,1,.67,0c.13.19-.06.56-.3.51a.26.26,0,0,0-.31.18.71.71,0,0,0,.58.82,1.26,1.26,0,0,1,.52.19.63.63,0,0,1,.19.37c.14.81-.73,1.26-1.32,1.57-.29.15,0,.58.25.43.72-.37,1.52-.86,1.58-1.76a1.26,1.26,0,0,0-.33-1,1.18,1.18,0,0,0-.53-.28c-.11,0-.51-.08-.46-.26l-.31.17a.85.85,0,0,0,.92-1.17,1,1,0,0,0-1.5-.21c-.23.22.12.58.35.35Z" transform="translate(-18.35 -9.98)"/>
      <path class="cls-3" d="M257.82,91.6c1,1.21.92,3.12.89,4.6a14.62,14.62,0,0,1-.21,2.47,6,6,0,0,1-.26,1c0,.09-.62,1.18-.68,1.11-.19-.26-.62,0-.43.25.53.72,1.22-.39,1.43-.83a8.32,8.32,0,0,0,.6-2.92,18.71,18.71,0,0,0,0-3.51,4.79,4.79,0,0,0-.95-2.54c-.2-.25-.55.11-.35.36Z" transform="translate(-18.35 -9.98)"/>
      <path class="cls-3" d="M250.82,94.09l.22-.25-.4,0s0,0,0,0v0a.19.19,0,0,1,0,.07l0,.09s0,.08,0,0a1.5,1.5,0,0,1,0,.3,1,1,0,0,1,0,.15.25.25,0,0,0,0,.07s0,.08,0,0a.52.52,0,0,1-.06.13.21.21,0,0,0,0,.06l0,0,.39,0a1.18,1.18,0,0,1-.11-.19s0,0,0,0,0,0,0,0l0-.12a.5.5,0,0,1,0-.12h0s0,0,0-.06a2,2,0,0,1,0-.25v0s0,0,0,0,0-.07,0-.11l0-.12v-.06a1.18,1.18,0,0,1,.11-.19s0,0,0,0l0,0,.08-.08-.39,0,.05.08s0,0,0,0a.25.25,0,0,1,0,.07s0,0,0,.05v.12s0,.08,0,0a.59.59,0,0,1,0,.08.24.24,0,0,0,0,.3s0,0,0,0,0,0,0,0,0,.07,0,0v.1s0,0,0,0,0,0,0,.06,0,0,0,0l0,0s0,0,0,0-.07.06,0,0,0,0,0,0h0s.06,0,0,0h0s0,0,0,0a.25.25,0,0,0-.25.44.54.54,0,0,0,.7-.28.71.71,0,0,0-.06-.79l0,.3a.9.9,0,0,0,0-1,.25.25,0,0,0-.39,0,1.54,1.54,0,0,0-.48,1,1.65,1.65,0,0,0,.26,1.1.25.25,0,0,0,.39,0,1.53,1.53,0,0,0,.23-1.65.26.26,0,0,0-.4-.05l-.21.24a.26.26,0,0,0,0,.36.25.25,0,0,0,.35,0Z" transform="translate(-18.35 -9.98)"/>
      <path class="cls-3" d="M262,88.2a5.23,5.23,0,0,0-1.66,2,5.07,5.07,0,0,0-.4,1.29,1.82,1.82,0,0,0,.15,1.3,1.41,1.41,0,0,0,2.08.06,3.57,3.57,0,0,0,.8-1.09.56.56,0,0,0-.41-.82,1.83,1.83,0,0,0-1.28.32,2.44,2.44,0,0,0-.94,1.07c-.13.29.3.55.43.25a2,2,0,0,1,1.37-1.14.56.56,0,0,1,.36,0c.06,0,0,0,0,.06a.84.84,0,0,1-.14.24,2.88,2.88,0,0,1-.62.77c-.43.35-1.25.41-1.37-.28a2.52,2.52,0,0,1,.1-1,4.79,4.79,0,0,1,.33-.92,4.69,4.69,0,0,1,1.42-1.71c.25-.18,0-.62-.26-.43Z" transform="translate(-18.35 -9.98)"/>
    </g>
    <g>
      <path class="cls-3" d="M101.6,53a11,11,0,0,0-1.87,6,4.8,4.8,0,0,0,.36,2.9,2.11,2.11,0,0,0,2.24.94.25.25,0,0,0-.13-.48,1.69,1.69,0,0,1-2-1.51,9.6,9.6,0,0,1,.06-2.62A9.8,9.8,0,0,1,102,53.22c.2-.25-.24-.5-.43-.25Z" transform="translate(-18.35 -9.98)"/>
      <path class="cls-3" d="M102.63,57.2a7.41,7.41,0,0,1,1.62-2.52h-.36a1.66,1.66,0,0,1,.38,1.12c0,.52.08,1.05.11,1.58.05,1,.06,2.09,0,3.13,0,.32.49.32.5,0,0-1.16,0-2.32,0-3.48,0-.54-.06-1.08-.13-1.61a1.76,1.76,0,0,0-.48-1.09.26.26,0,0,0-.36,0,8,8,0,0,0-1.74,2.74c-.12.3.36.43.48.13Z" transform="translate(-18.35 -9.98)"/>
      <path class="cls-3" d="M102.72,61.4l1.86-1a2.13,2.13,0,0,1,1.75-.38c.3.11.43-.38.13-.49a2.49,2.49,0,0,0-2,.34c-.69.36-1.36.75-2,1.12a.25.25,0,0,0,.26.43Z" transform="translate(-18.35 -9.98)"/>
      <path class="cls-3" d="M107.41,58.24a21.19,21.19,0,0,1,2.75-.4c.32,0,.32-.53,0-.5a23.65,23.65,0,0,0-2.89.41c-.31.07-.18.55.14.49Z" transform="translate(-18.35 -9.98)"/>
      <path class="cls-3" d="M108.52,56.2q0,1.2,0,2.4c0,.37,0,.75,0,1.13a.65.65,0,0,0,.4.65c.3.11.43-.37.13-.48,0,0,0,0,0-.09a.59.59,0,0,1,0-.13V58.2c0-.66,0-1.33,0-2a.25.25,0,0,0-.5,0Z" transform="translate(-18.35 -9.98)"/>
      <path class="cls-3" d="M113.44,60.18l-.39-3.12a.25.25,0,0,0-.25-.25.26.26,0,0,0-.25.25l.39,3.12a.26.26,0,0,0,.25.25c.12,0,.27-.12.25-.25Z" transform="translate(-18.35 -9.98)"/>
      <path class="cls-3" d="M114.86,59.11c.73-.27,1,.71,1.1,1.22a.25.25,0,0,0,.49-.07l-.17-2.89-.08-1.47c0-.24,0-.47,0-.71,0,0,0-.18,0-.22s.25,0,.3-.06l1.37-.27.69-.13a1.6,1.6,0,0,1,.61-.07c.39.11.31.89.32,1.2,0,.52,0,1,0,1.54,0,.32.49.32.5,0a17.42,17.42,0,0,0,0-1.77c0-.42,0-1-.34-1.28s-.82-.17-1.22-.1l-1.77.34c-.4.08-.91.08-.95.59a4.51,4.51,0,0,0,0,.82l0,.88.21,3.6.49-.06a2.43,2.43,0,0,0-.55-1.27,1.12,1.12,0,0,0-1.16-.3c-.3.11-.17.59.13.48Z" transform="translate(-18.35 -9.98)"/>
      <path class="cls-3" d="M117.29,56.91a.46.46,0,0,1,.67,0c.12.19-.06.55-.31.51a.24.24,0,0,0-.3.17.7.7,0,0,0,.57.82,1.47,1.47,0,0,1,.52.19.7.7,0,0,1,.19.37c.14.81-.72,1.25-1.31,1.56-.29.15,0,.58.25.43.71-.37,1.51-.86,1.57-1.75a1.24,1.24,0,0,0-.33-1,1.17,1.17,0,0,0-.53-.27c-.11,0-.5-.08-.45-.26l-.31.17a.85.85,0,0,0,.91-1.17,1,1,0,0,0-1.49-.21.25.25,0,0,0,.35.36Z" transform="translate(-18.35 -9.98)"/>
      <path class="cls-3" d="M119.84,52.7c1,1.21.92,3.1.89,4.58a14.5,14.5,0,0,1-.21,2.46,4,4,0,0,1-.93,2.11c-.19-.26-.62,0-.43.25.53.71,1.21-.4,1.42-.83a8.22,8.22,0,0,0,.6-2.91,18.5,18.5,0,0,0,0-3.49,4.83,4.83,0,0,0-.94-2.53c-.21-.24-.56.11-.36.36Z" transform="translate(-18.35 -9.98)"/>
      <path class="cls-3" d="M112.88,55.18l.22-.25-.39,0s0,0,0,0v0l0,.07a.29.29,0,0,0,0,.09s0,.08,0,0a.76.76,0,0,1,0,.15s0,.13,0,.15a1.31,1.31,0,0,1,0,.15s0,.05,0,.07,0,.07,0,0l-.07.13,0,.06s0,0,0,0l.39,0a1.28,1.28,0,0,1-.11-.2s0,0,0,0,0,0,0-.06a.36.36,0,0,1,0-.11s0-.08,0-.12,0,0,0,0v-.06a1,1,0,0,1,0-.24v0s0,0,0,0l0-.11,0-.12,0,0c0-.07,0,0,0,0l.11-.19s0,0,0,0l0,0a.3.3,0,0,1,.08-.08l-.39-.06,0,.08s0,0,0,0a.24.24,0,0,1,0,.08c0-.05,0,0,0,0a.27.27,0,0,1,0,.09v.07a.2.2,0,0,1,0,.08.24.24,0,0,0,0,.3s0,0,0,0,0,0,0,0,0,.07,0,0,0,0,0,0,0,0,0,.06,0,0,0,0a.14.14,0,0,1,0,.06s0,0,0,0,0,0,0,0v0s-.07.05,0,0h0s0,0,0,0,0,0,0,0h0s0,0,0,0a.27.27,0,0,0-.34.09.25.25,0,0,0,.09.34.52.52,0,0,0,.7-.27.71.71,0,0,0-.06-.79l0,.3a.86.86,0,0,0,0-1,.26.26,0,0,0-.39,0,1.56,1.56,0,0,0-.48,1,1.62,1.62,0,0,0,.26,1.09.25.25,0,0,0,.39.05,1.51,1.51,0,0,0,.23-1.64.26.26,0,0,0-.4-.05l-.21.24a.26.26,0,0,0,0,.36.25.25,0,0,0,.35,0Z" transform="translate(-18.35 -9.98)"/>
      <path class="cls-3" d="M122.8,50.29a3.88,3.88,0,0,1,1.86.49,1.39,1.39,0,0,1,.65,1.42c-.25,1-1.72.75-2.47.82a2,2,0,0,0-1.39.61.25.25,0,0,0,.11.41l4.22,1c.31.07.45-.41.13-.48l-4.22-1,.11.42a1.77,1.77,0,0,1,1.38-.48,6,6,0,0,0,1.63-.17,1.43,1.43,0,0,0,1-1.18,1.94,1.94,0,0,0-.72-1.66,4.08,4.08,0,0,0-2.31-.7c-.32,0-.32.47,0,.5Z" transform="translate(-18.35 -9.98)"/>
    </g>
    <g>
      <path class="cls-3" d="M55.11,91.16a13.12,13.12,0,0,0-2.21,7,5.66,5.66,0,0,0,.43,3.4,2.42,2.42,0,0,0,2.59,1.09.25.25,0,0,0-.13-.48,2,2,0,0,1-2.38-1.81,12,12,0,0,1,.07-3.11,11.64,11.64,0,0,1,2.07-5.85c.19-.26-.25-.51-.44-.26Z" transform="translate(-18.35 -9.98)"/>
      <path class="cls-3" d="M56.24,96.13a8.83,8.83,0,0,1,1.93-3h-.35a2,2,0,0,1,.45,1.35c.06.63.1,1.25.13,1.88q.09,1.85,0,3.69c0,.32.49.32.5,0,0-1.37,0-2.74,0-4.11,0-.63-.07-1.27-.16-1.9a1.94,1.94,0,0,0-.55-1.26.25.25,0,0,0-.35,0A9.2,9.2,0,0,0,55.76,96c-.11.3.37.43.48.13Z" transform="translate(-18.35 -9.98)"/>
      <path class="cls-3" d="M56.37,101.07l2.2-1.21a2.64,2.64,0,0,1,2.11-.46c.3.11.43-.37.13-.48a2.85,2.85,0,0,0-2.28.4c-.82.42-1.61.88-2.41,1.32a.25.25,0,0,0,.25.43Z" transform="translate(-18.35 -9.98)"/>
      <path class="cls-3" d="M61.93,97.32a27.82,27.82,0,0,1,3.26-.47c.32,0,.33-.53,0-.5a28.12,28.12,0,0,0-3.4.49c-.31.07-.18.55.14.48Z" transform="translate(-18.35 -9.98)"/>
      <path class="cls-3" d="M63.3,95c0,1,0,1.89,0,2.83,0,.45,0,.9,0,1.34a.76.76,0,0,0,.45.73c.3.11.43-.37.13-.49-.08,0-.08-.23-.08-.3s0-.39,0-.58V97.33q0-1.18,0-2.37a.25.25,0,0,0-.5,0Z" transform="translate(-18.35 -9.98)"/>
      <path class="cls-3" d="M69,99.66,68.57,96a.25.25,0,0,0-.25-.25.25.25,0,0,0-.25.25l.46,3.68a.25.25,0,0,0,.25.25c.12,0,.27-.11.25-.25Z" transform="translate(-18.35 -9.98)"/>
      <path class="cls-3" d="M70.75,98.36c.89-.33,1.21.84,1.35,1.47a.25.25,0,0,0,.49-.07l-.2-3.42-.1-1.74c0-.28,0-.56-.05-.84s.06-.31.38-.38l1.62-.31.81-.15a2,2,0,0,1,.75-.08c.5.13.4,1.06.42,1.46,0,.61,0,1.21,0,1.82,0,.32.48.32.5,0,0-.7,0-1.4,0-2.1,0-.48,0-1.13-.39-1.48s-.94-.19-1.39-.1l-2.09.4c-.45.08-1,.08-1.1.65a6.31,6.31,0,0,0,0,1l.06,1.05.25,4.25.49-.06a2.83,2.83,0,0,0-.64-1.48,1.28,1.28,0,0,0-1.33-.35c-.3.11-.17.6.14.49Z" transform="translate(-18.35 -9.98)"/>
      <path class="cls-3" d="M73.6,95.76a.58.58,0,0,1,.85,0c.18.26-.08.73-.4.67a.25.25,0,0,0-.31.17c-.12.46.25.79.65.92a1.6,1.6,0,0,1,.63.23.82.82,0,0,1,.24.46c.17,1-.86,1.52-1.58,1.89-.28.15,0,.58.25.44.83-.44,1.77-1,1.84-2a1.39,1.39,0,0,0-.38-1.08,1.25,1.25,0,0,0-.6-.32c-.16,0-.64-.1-.57-.36l-.31.17a1,1,0,0,0,1-1.31,1.08,1.08,0,0,0-1.69-.24c-.24.22.12.57.35.35Z" transform="translate(-18.35 -9.98)"/>
      <path class="cls-3" d="M76.68,90.78c1.18,1.45,1.1,3.7,1.07,5.45a19,19,0,0,1-.25,2.92,8.33,8.33,0,0,1-.31,1.19c0,.1-.75,1.49-.88,1.32s-.62,0-.43.25c.59.8,1.38-.51,1.6-1a9.72,9.72,0,0,0,.71-3.42,21.82,21.82,0,0,0-.06-4.12,5.47,5.47,0,0,0-1.1-3c-.2-.25-.55.11-.35.35Z" transform="translate(-18.35 -9.98)"/>
      <path class="cls-3" d="M68.38,93.72l.26-.29-.39-.05a1.28,1.28,0,0,1-.18,1.28l.39,0a1.37,1.37,0,0,1-.21-.46,1.86,1.86,0,0,1,0-.53,1.27,1.27,0,0,1,.4-.86l-.39,0a.51.51,0,0,1,0,.6.24.24,0,0,0,0,.3s0,0,0,0,0,0,0,0,0,.08,0,0v.12h0a.19.19,0,0,0,0,.07s0,0,0,0l0,0,0,0s-.06.06,0,0h0s0,0,0,0h0s0,0,0,0a.28.28,0,0,0-.35.09.25.25,0,0,0,.09.34.57.57,0,0,0,.76-.3.77.77,0,0,0-.06-.88l0,.3a1,1,0,0,0,0-1.1.25.25,0,0,0-.39,0A2,2,0,0,0,68,95a.25.25,0,0,0,.39.05,1.77,1.77,0,0,0,.26-1.88.25.25,0,0,0-.4,0l-.25.28a.26.26,0,0,0,0,.36.25.25,0,0,0,.35,0Z" transform="translate(-18.35 -9.98)"/>
      <path class="cls-3" d="M78.36,87.56a6.45,6.45,0,0,1,1.51.39c.34.14,1.06.38,1.07.84s-.48.72-.84.84a6.86,6.86,0,0,0-1.31.48c-.23.15-.08.55.2.46a1.26,1.26,0,0,1,1.54.84,1.23,1.23,0,0,1-1.15,1.45c-.32,0-.33.51,0,.5a1.68,1.68,0,1,0-.53-3.27l.2.45c.51-.31,1.14-.32,1.65-.64a1.35,1.35,0,0,0,.73-1.19c0-.56-.58-.85-1-1.07a6.88,6.88,0,0,0-1.89-.57c-.32,0-.45.44-.14.49Z" transform="translate(-18.35 -9.98)"/>
    </g>
    <g>
      <path class="cls-3" d="M52.78,153.26a10.91,10.91,0,0,0-1.87,6,4.68,4.68,0,0,0,.36,2.89,2.07,2.07,0,0,0,2.24.94c.31-.07.18-.55-.14-.48a1.68,1.68,0,0,1-2-1.5,9.59,9.59,0,0,1,.06-2.62,9.87,9.87,0,0,1,1.74-4.93c.19-.26-.24-.51-.43-.25Z" transform="translate(-18.35 -9.98)"/>
      <path class="cls-3" d="M53.8,157.49A7.52,7.52,0,0,1,55.42,155h-.35a1.64,1.64,0,0,1,.37,1.11c.05.53.09,1.06.11,1.59q.08,1.56,0,3.12c0,.32.49.32.5,0,0-1.16,0-2.32,0-3.47,0-.54-.06-1.08-.13-1.61a1.71,1.71,0,0,0-.48-1.09.24.24,0,0,0-.35,0,8,8,0,0,0-1.75,2.73c-.11.31.37.44.48.14Z" transform="translate(-18.35 -9.98)"/>
      <path class="cls-3" d="M53.89,161.69l1.86-1a2.2,2.2,0,0,1,1.76-.39c.3.11.43-.37.13-.48a2.48,2.48,0,0,0-2,.34c-.69.36-1.36.74-2,1.12-.28.15,0,.58.25.43Z" transform="translate(-18.35 -9.98)"/>
      <path class="cls-3" d="M58.58,158.52a23.22,23.22,0,0,1,2.76-.4c.31,0,.32-.52,0-.5a23.4,23.4,0,0,0-2.89.42c-.32.07-.18.55.13.48Z" transform="translate(-18.35 -9.98)"/>
      <path class="cls-3" d="M59.69,156.49c0,.8,0,1.59,0,2.39,0,.38,0,.76,0,1.13a.66.66,0,0,0,.41.65c.3.12.43-.36.13-.48,0,0,0-.05,0-.08a.62.62,0,0,1,0-.13c0-.17,0-.33,0-.5v-1c0-.67,0-1.33,0-2,0-.32-.49-.32-.5,0Z" transform="translate(-18.35 -9.98)"/>
      <path class="cls-3" d="M64.62,160.46l-.39-3.11a.25.25,0,0,0-.25-.25c-.12,0-.27.11-.25.25l.39,3.11a.25.25,0,0,0,.25.25.25.25,0,0,0,.25-.25Z" transform="translate(-18.35 -9.98)"/>
      <path class="cls-3" d="M66,159.4c.73-.27,1,.71,1.1,1.21a.25.25,0,0,0,.49-.06l-.17-2.89-.09-1.48c0-.23,0-.47,0-.7,0-.06,0-.19,0-.23s.25-.05.3-.06l1.37-.26.68-.13a1.62,1.62,0,0,1,.62-.07c.39.1.3.89.32,1.2,0,.51,0,1,0,1.54,0,.32.48.32.5,0a17.61,17.61,0,0,0,0-1.78c0-.42,0-1-.35-1.28s-.82-.17-1.21-.09l-1.77.34c-.4.07-.91.07-1,.59a7.63,7.63,0,0,0,0,.82l.06.88.21,3.6.49-.07a2.55,2.55,0,0,0-.55-1.27,1.12,1.12,0,0,0-1.16-.3c-.3.12-.17.6.13.49Z" transform="translate(-18.35 -9.98)"/>
      <path class="cls-3" d="M68.47,157.19a.45.45,0,0,1,.66,0c.13.19-.06.55-.3.5a.27.27,0,0,0-.31.18.71.71,0,0,0,.58.82,1.26,1.26,0,0,1,.52.19.62.62,0,0,1,.18.37c.14.8-.72,1.25-1.31,1.56-.28.15,0,.58.25.43.72-.37,1.52-.86,1.57-1.75a1.22,1.22,0,0,0-.32-.95,1.24,1.24,0,0,0-.53-.28c-.11,0-.51-.07-.46-.26l-.3.18a.86.86,0,0,0,.91-1.17,1,1,0,0,0-1.49-.21c-.24.22.12.58.35.35Z" transform="translate(-18.35 -9.98)"/>
      <path class="cls-3" d="M71,153c1,1.22.92,3.11.89,4.59A15.48,15.48,0,0,1,71.7,160a6,6,0,0,1-.26,1,6.37,6.37,0,0,1-.67,1.1c-.19-.25-.63,0-.43.25.52.72,1.21-.39,1.41-.82a8.1,8.1,0,0,0,.61-2.91,18.49,18.49,0,0,0,0-3.49,4.72,4.72,0,0,0-.94-2.53c-.2-.25-.55.11-.35.35Z" transform="translate(-18.35 -9.98)"/>
      <path class="cls-3" d="M64.06,155.46l.21-.24-.39-.05s0,0,0,0v0a.64.64,0,0,1,0,.07.29.29,0,0,1,0,.09s0,.08,0,0,0,.11,0,.16,0,.13,0,.15a1.21,1.21,0,0,1,0,.14l0,.08v0a.54.54,0,0,1-.07.13l0,.06s0,0,0,.05l.39,0a1,1,0,0,1-.11-.2v0s0,0,0,0l0-.11a.5.5,0,0,1,0-.12v0s0,0,0-.06a1.93,1.93,0,0,1,0-.24v-.05c0,.05,0,0,0,0a.5.5,0,0,1,0-.12.76.76,0,0,1,0-.11v-.06a2,2,0,0,1,.11-.2h0l0,0,.09-.08-.39-.05,0,.08s0,0,0,0a.64.64,0,0,0,0,.07s0,0,0,0V155s0,0,0,0,0,.07,0,0a.35.35,0,0,1,0,.08.26.26,0,0,0,0,.3s0,0,0,0,0,0,0,0,0,.07,0,0v.1s0,0,0,0,0,0,0,.05,0,0,0,0a.08.08,0,0,0,0,0l0,0s-.06.06,0,0,0,0,0,0h0s0,0,0,0a.25.25,0,1,0-.25.43.52.52,0,0,0,.69-.27.69.69,0,0,0,0-.79l0,.3a.9.9,0,0,0,0-1,.25.25,0,0,0-.39-.05,1.51,1.51,0,0,0-.48,1,1.63,1.63,0,0,0,.26,1.1.25.25,0,0,0,.39.05,1.53,1.53,0,0,0,.22-1.64.24.24,0,0,0-.39,0l-.21.24a.25.25,0,1,0,.35.35Z" transform="translate(-18.35 -9.98)"/>
      <g>
        <path class="cls-3" d="M74.9,150.42a6,6,0,0,0-1.16,1.87,5.43,5.43,0,0,0-.28,1.07.94.94,0,0,0,.16.86c.3.27.75.07,1.07-.05s.77-.29,1.16-.4a1.89,1.89,0,0,1,1.92.28.25.25,0,0,0,.35-.35,2.06,2.06,0,0,0-1.66-.55,8.73,8.73,0,0,0-2,.59c-.07,0-.38.16-.46.11s0-.28,0-.36a4.31,4.31,0,0,1,.25-1,5.1,5.1,0,0,1,1-1.71c.22-.24-.13-.59-.35-.36Z" transform="translate(-18.35 -9.98)"/>
        <path class="cls-3" d="M76.31,150.4a31.49,31.49,0,0,0-.82,3.71,8.88,8.88,0,0,0-.21,1.69c0,.36.15.79.56.85s.45-.43.13-.48-.16-.82-.13-1c.07-.53.15-1,.24-1.57.19-1,.43-2,.71-3a.25.25,0,0,0-.48-.13Z" transform="translate(-18.35 -9.98)"/>
      </g>
    </g>
    <g>
      <path class="cls-3" d="M194.65,188.87a11.46,11.46,0,0,0-2,6.2,5,5,0,0,0,.38,3,2.18,2.18,0,0,0,2.32,1c.32-.08.18-.56-.13-.49A1.77,1.77,0,0,1,193.2,197a10.06,10.06,0,0,1,.06-2.74,10.32,10.32,0,0,1,1.82-5.15c.19-.26-.24-.51-.43-.25Z" transform="translate(-18.35 -9.98)"/>
      <path class="cls-3" d="M195.7,193.27a7.8,7.8,0,0,1,1.69-2.63H197a1.7,1.7,0,0,1,.4,1.17c0,.55.09,1.1.11,1.66.06,1.08.06,2.17,0,3.26,0,.32.49.32.5,0,0-1.21,0-2.42,0-3.63,0-.56-.06-1.13-.14-1.68a1.74,1.74,0,0,0-.49-1.13.26.26,0,0,0-.36,0,8.47,8.47,0,0,0-1.82,2.85c-.11.3.37.43.49.13Z" transform="translate(-18.35 -9.98)"/>
      <path class="cls-3" d="M195.79,197.65l2-1.07a2.29,2.29,0,0,1,1.83-.4c.31.11.44-.37.14-.48a2.55,2.55,0,0,0-2,.36c-.72.37-1.42.77-2.13,1.16a.25.25,0,0,0,.25.43Z" transform="translate(-18.35 -9.98)"/>
      <path class="cls-3" d="M200.69,194.35a23.24,23.24,0,0,1,2.88-.42c.32,0,.32-.53,0-.5a25.36,25.36,0,0,0-3,.43c-.32.07-.18.55.13.49Z" transform="translate(-18.35 -9.98)"/>
      <path class="cls-3" d="M201.86,192.24c0,.83,0,1.66,0,2.49,0,.39,0,.79,0,1.18a.68.68,0,0,0,.42.67c.3.12.43-.37.13-.48-.11,0,0-.65,0-.75v-1c0-.69,0-1.39,0-2.08a.25.25,0,0,0-.5,0Z" transform="translate(-18.35 -9.98)"/>
      <path class="cls-3" d="M207,196.38l-.4-3.25a.27.27,0,0,0-.25-.25c-.12,0-.27.12-.25.25l.4,3.25a.26.26,0,0,0,.25.25c.12,0,.27-.11.25-.25Z" transform="translate(-18.35 -9.98)"/>
      <path class="cls-3" d="M208.47,195.26c.77-.28,1.05.74,1.16,1.28a.25.25,0,0,0,.49-.07l-.17-3-.09-1.54c0-.25,0-.5-.05-.74,0-.06,0-.2,0-.25s.26-.05.31-.06l1.43-.27.72-.14a1.75,1.75,0,0,1,.64-.07c.42.11.33.93.35,1.26,0,.54,0,1.07,0,1.61,0,.32.48.32.5,0a16.3,16.3,0,0,0,0-1.85c0-.44,0-1-.35-1.33s-.85-.18-1.26-.1l-1.84.35c-.42.08-1,.08-1,.61a4.84,4.84,0,0,0,0,.85l.05.93.22,3.75.5-.07a2.64,2.64,0,0,0-.58-1.31,1.13,1.13,0,0,0-1.2-.31c-.3.11-.17.59.13.48Z" transform="translate(-18.35 -9.98)"/>
      <path class="cls-3" d="M211,193a.5.5,0,0,1,.71,0c.13.21-.07.59-.33.55a.25.25,0,0,0-.31.17.72.72,0,0,0,.59.84,1.45,1.45,0,0,1,.55.2.73.73,0,0,1,.2.4c.14.84-.76,1.31-1.38,1.63-.28.15,0,.58.25.43.75-.38,1.58-.89,1.64-1.82a1.29,1.29,0,0,0-.34-1,1.13,1.13,0,0,0-.55-.29c-.12,0-.53-.09-.48-.29l-.31.18a.88.88,0,0,0,.94-1.2,1,1,0,0,0-1.54-.22c-.23.22.12.57.36.35Z" transform="translate(-18.35 -9.98)"/>
      <path class="cls-3" d="M213.68,188.57c1,1.27,1,3.25.93,4.79a15.91,15.91,0,0,1-.21,2.57,6.4,6.4,0,0,1-.28,1c0,.09-.65,1.25-.72,1.16-.19-.26-.62,0-.43.25.54.74,1.25-.42,1.46-.86a8.29,8.29,0,0,0,.63-3,19.24,19.24,0,0,0-.05-3.64,5,5,0,0,0-1-2.63c-.21-.25-.56.1-.36.35Z" transform="translate(-18.35 -9.98)"/>
      <path class="cls-3" d="M206.4,191.16l.23-.26-.4-.05a1.13,1.13,0,0,1,.08.58s0,.11,0,.16,0,0,0,.07,0,.08,0,0a.91.91,0,0,1-.07.14l0,.06,0,0,.39.05a2.12,2.12,0,0,1-.11-.21s0,0,0,0l0-.05,0-.12,0-.13s0,0,0,0v-.06a1,1,0,0,1,0-.25v0s0,0,0,0l0-.12a.56.56,0,0,1,0-.12v-.06a1.13,1.13,0,0,1,.12-.21h0l0,0,.09-.09-.39-.05a.41.41,0,0,1,.05.09s0,0,0,0a.59.59,0,0,1,0,.13v.09s0,0,0,0,0,.07,0,0l-.05.09a.24.24,0,0,0,0,.3c0-.05,0,0,0,0s0,0,0,0,0,.08,0,0v.1s0,0,0,0,0,0,0,.06,0,0,0,0,0,0,0,0,0,.05,0,0l0,0h0s0,0,0,0,.05,0,0,0h0s0,0,0,0a.25.25,0,0,0-.34.09.24.24,0,0,0,.09.34.54.54,0,0,0,.71-.28.71.71,0,0,0-.06-.81l0,.3a.91.91,0,0,0,0-1,.26.26,0,0,0-.39,0,1.77,1.77,0,0,0-.23,2.2.25.25,0,0,0,.39.05,1.58,1.58,0,0,0,.24-1.7.26.26,0,0,0-.4,0l-.22.25a.26.26,0,0,0,0,.36.25.25,0,0,0,.35,0Z" transform="translate(-18.35 -9.98)"/>
      <path class="cls-3" d="M218.5,186.45l-1.65-.33c-.39-.07-.78,0-.9.43a5.24,5.24,0,0,0,0,1.48c0,.56,0,1.12,0,1.68a.25.25,0,0,0,.42.18,1.43,1.43,0,0,1,1.42-.4.87.87,0,0,1,.53,1c-.17.45-.76.57-1.17.69l-1.86.57a.25.25,0,0,0,.14.48c.79-.24,1.62-.44,2.4-.74a1.36,1.36,0,0,0,1-1.28,1.42,1.42,0,0,0-1-1.25,2,2,0,0,0-1.82.55l.43.18c0-.86,0-1.71,0-2.57,0-.13,0-.38,0-.5s.46,0,.6,0l1.32.26c.32.06.45-.42.13-.48Z" transform="translate(-18.35 -9.98)"/>
    </g>
    <g>
      <path class="cls-3" d="M151.77,73.5a11.91,11.91,0,0,0-2,6.43,5.15,5.15,0,0,0,.4,3.13,2.23,2.23,0,0,0,2.4,1c.31-.07.18-.56-.14-.48A1.85,1.85,0,0,1,150.25,82a10.47,10.47,0,0,1,.07-2.85,10.65,10.65,0,0,1,1.88-5.35c.2-.26-.24-.51-.43-.25Z" transform="translate(-18.35 -9.98)"/>
      <path class="cls-3" d="M152.85,78.06a8,8,0,0,1,1.75-2.73h-.35a1.76,1.76,0,0,1,.41,1.22c.05.57.09,1.14.12,1.72.06,1.12.07,2.25,0,3.38,0,.32.49.32.5,0,0-1.25,0-2.51-.05-3.77,0-.58-.07-1.16-.14-1.74A1.83,1.83,0,0,0,154.6,75a.25.25,0,0,0-.35,0,8.71,8.71,0,0,0-1.89,3c-.11.3.37.43.49.13Z" transform="translate(-18.35 -9.98)"/>
      <path class="cls-3" d="M153,82.61c.67-.37,1.34-.75,2-1.11a2.37,2.37,0,0,1,1.91-.42c.31.11.44-.38.14-.48a2.64,2.64,0,0,0-2.11.36c-.75.39-1.48.81-2.21,1.21a.25.25,0,0,0,.25.44Z" transform="translate(-18.35 -9.98)"/>
      <path class="cls-3" d="M158,79.17a23.15,23.15,0,0,1,3-.43c.32,0,.32-.53,0-.5a23.45,23.45,0,0,0-3.12.45c-.32.06-.19.55.13.48Z" transform="translate(-18.35 -9.98)"/>
      <path class="cls-3" d="M159.27,77c0,.86,0,1.73,0,2.59,0,.41,0,.82,0,1.23a.69.69,0,0,0,.42.68c.3.12.43-.37.13-.48-.05,0-.05-.21-.06-.26V79.16l0-2.17c0-.32-.49-.32-.5,0Z" transform="translate(-18.35 -9.98)"/>
      <path class="cls-3" d="M164.57,81.3l-.43-3.38a.25.25,0,0,0-.25-.25.25.25,0,0,0-.25.25l.43,3.38a.25.25,0,1,0,.5,0Z" transform="translate(-18.35 -9.98)"/>
      <path class="cls-3" d="M166.12,80.12c.81-.3,1.09.77,1.22,1.33a.25.25,0,0,0,.49-.06l-.19-3.14-.09-1.59c0-.26,0-.51-.05-.77,0-.08,0-.2,0-.26s.27-.06.32-.07l1.49-.28.74-.14a1.74,1.74,0,0,1,.68-.08c.44.12.35,1,.36,1.32,0,.56,0,1.11,0,1.67,0,.32.49.32.5,0q0-1,0-1.92c0-.45,0-1-.37-1.38s-.87-.18-1.29-.1L168,75c-.43.08-1,.08-1,.62a6.63,6.63,0,0,0,0,.89l.06,1,.23,3.9.49-.07a2.63,2.63,0,0,0-.6-1.36,1.14,1.14,0,0,0-1.23-.32c-.3.11-.17.59.13.48Z" transform="translate(-18.35 -9.98)"/>
      <path class="cls-3" d="M168.75,77.74a.52.52,0,0,1,.75,0c.15.23-.07.64-.35.59a.25.25,0,0,0-.31.17c-.12.43.23.75.61.87a1.44,1.44,0,0,1,.57.2.73.73,0,0,1,.21.42c.15.88-.79,1.37-1.43,1.71-.29.15,0,.58.25.43.77-.4,1.63-.92,1.69-1.88a1.34,1.34,0,0,0-.35-1,1.22,1.22,0,0,0-.56-.3c-.13,0-.57-.09-.51-.3l-.31.17a.9.9,0,0,0,1-1.23,1,1,0,0,0-1.58-.23c-.23.22.12.58.36.36Z" transform="translate(-18.35 -9.98)"/>
      <path class="cls-3" d="M171.54,73.17c1.07,1.32,1,3.38,1,5a17,17,0,0,1-.23,2.67,5.81,5.81,0,0,1-.28,1.09c0,.09-.68,1.32-.77,1.2s-.62,0-.43.26c.56.75,1.29-.45,1.5-.9a8.91,8.91,0,0,0,.66-3.14,19.88,19.88,0,0,0-.06-3.78,5.06,5.06,0,0,0-1-2.73c-.2-.25-.55.11-.35.35Z" transform="translate(-18.35 -9.98)"/>
      <path class="cls-3" d="M164,75.86l.23-.26-.39,0a1.23,1.23,0,0,1,.07.61,1.43,1.43,0,0,1,0,.16l0,.07s0,.08,0,0a1,1,0,0,1-.08.14.43.43,0,0,0,0,.07l0,0,.39.06a.94.94,0,0,1-.12-.22v0a.14.14,0,0,1,0-.06.56.56,0,0,1,0-.12,1.66,1.66,0,0,1,0-.22,2.26,2.26,0,0,1,0-.26.28.28,0,0,1,0-.09l0-.13,0-.12,0-.05c0-.07,0,0,0,0a.72.72,0,0,1,.12-.21s0,0,0,0l0,0a.76.76,0,0,1,.09-.09l-.39,0,.06.08s0,0,0,0a.24.24,0,0,1,0,.08s0,0,0,.06a.27.27,0,0,1,0,.13.33.33,0,0,1-.06.14.24.24,0,0,0,0,.3s0,0,0,0,0,0,0,0,0,.08,0,0V76s0,0,0,0,0,0,0,.06,0,0,0,0l0,0s0,.06,0,0,0,0,0,0,0,0,0,0h0s0,0,0,0,.05,0,0,0h0s0,0,0,0a.25.25,0,0,0-.34.09.24.24,0,0,0,.09.34.55.55,0,0,0,.72-.28.74.74,0,0,0-.06-.84l0,.31a.92.92,0,0,0,0-1,.25.25,0,0,0-.39-.06,1.83,1.83,0,0,0-.23,2.28.25.25,0,0,0,.39,0,1.64,1.64,0,0,0,.24-1.76.25.25,0,0,0-.39-.05l-.24.27a.25.25,0,0,0,0,.35.26.26,0,0,0,.36,0Z" transform="translate(-18.35 -9.98)"/>
      <path class="cls-3" d="M174.26,71.94a5,5,0,0,1,1-1.25c.21-.21.89-.82,1-.23a4.29,4.29,0,0,1,0,.8,8.12,8.12,0,0,1,0,.86,8.64,8.64,0,0,1-.34,1.74.25.25,0,0,0,.48.13,9,9,0,0,0,.38-2.12,7.79,7.79,0,0,0,0-1.08,1.39,1.39,0,0,0-.22-.82c-.42-.51-1.1-.16-1.49.18a5.5,5.5,0,0,0-1.22,1.54.25.25,0,0,0,.43.25Z" transform="translate(-18.35 -9.98)"/>
      <path class="cls-3" d="M174.35,74.64a2.87,2.87,0,0,1,1.51,0,3.86,3.86,0,0,0,1.44.32c.32,0,.33-.53,0-.5a4.76,4.76,0,0,1-1.47-.34,3.37,3.37,0,0,0-1.61,0,.25.25,0,0,0,.13.48Z" transform="translate(-18.35 -9.98)"/>
    </g>
    <g>
      <path class="cls-3" d="M145.6,108.44a11.85,11.85,0,0,0-2,6.44A5.05,5.05,0,0,0,144,118a2.25,2.25,0,0,0,2.4,1,.25.25,0,0,0-.13-.49,1.86,1.86,0,0,1-2.16-1.64,10.47,10.47,0,0,1,.07-2.85,10.68,10.68,0,0,1,1.88-5.35c.2-.26-.24-.51-.43-.25Z" transform="translate(-18.35 -9.98)"/>
      <path class="cls-3" d="M146.68,113a7.86,7.86,0,0,1,1.76-2.74h-.36a1.77,1.77,0,0,1,.41,1.22c0,.57.09,1.15.12,1.72.06,1.13.07,2.26,0,3.38a.25.25,0,0,0,.5,0c0-1.25,0-2.51,0-3.76,0-.58-.06-1.17-.14-1.75a1.87,1.87,0,0,0-.51-1.17.27.27,0,0,0-.36,0,8.9,8.9,0,0,0-1.89,3c-.11.3.37.43.49.14Z" transform="translate(-18.35 -9.98)"/>
      <path class="cls-3" d="M146.78,117.55l2-1.11a2.38,2.38,0,0,1,1.92-.42c.3.11.43-.37.13-.48a2.64,2.64,0,0,0-2.11.37c-.75.38-1.48.8-2.21,1.21-.28.15,0,.58.25.43Z" transform="translate(-18.35 -9.98)"/>
      <path class="cls-3" d="M151.87,114.11a25,25,0,0,1,3-.43c.32,0,.32-.53,0-.5a27.26,27.26,0,0,0-3.12.45c-.32.07-.18.55.13.48Z" transform="translate(-18.35 -9.98)"/>
      <path class="cls-3" d="M153.1,111.93c0,.86,0,1.73,0,2.59,0,.41,0,.83,0,1.23a.71.71,0,0,0,.42.69c.3.11.43-.37.13-.49,0,0,0-.21-.06-.25v-1.6l0-2.17c0-.32-.49-.32-.5,0Z" transform="translate(-18.35 -9.98)"/>
      <path class="cls-3" d="M158.4,116.24l-.42-3.38a.27.27,0,0,0-.25-.25c-.13,0-.27.12-.25.25l.42,3.38a.25.25,0,0,0,.25.25.26.26,0,0,0,.25-.25Z" transform="translate(-18.35 -9.98)"/>
      <path class="cls-3" d="M160,115.06c.81-.3,1.09.77,1.22,1.34a.25.25,0,0,0,.49-.07l-.18-3.13-.1-1.6c0-.26,0-.51,0-.77,0-.07,0-.2,0-.26s.27,0,.32-.07l1.49-.28.74-.14a1.74,1.74,0,0,1,.68-.08c.44.12.35,1,.36,1.33,0,.55,0,1.11,0,1.66,0,.32.49.32.5,0q0-1,0-1.92c0-.45,0-1-.36-1.37s-.88-.18-1.3-.1l-1.92.36c-.43.09-1,.08-1,.62a6.63,6.63,0,0,0,0,.89l.06,1,.23,3.9.49-.07a2.7,2.7,0,0,0-.59-1.36,1.2,1.2,0,0,0-1.24-.32c-.3.11-.17.59.13.48Z" transform="translate(-18.35 -9.98)"/>
      <path class="cls-3" d="M162.58,112.68a.52.52,0,0,1,.75,0c.15.22-.07.63-.35.58a.26.26,0,0,0-.31.18c-.12.42.23.74.61.86a1.46,1.46,0,0,1,.57.21.71.71,0,0,1,.21.41c.15.88-.78,1.37-1.43,1.71-.29.15,0,.58.25.43.77-.4,1.63-.92,1.69-1.88a1.34,1.34,0,0,0-.35-1,1.16,1.16,0,0,0-.56-.29c-.13,0-.57-.09-.51-.31l-.31.17a.91.91,0,0,0,1-1.23,1,1,0,0,0-1.59-.23c-.23.23.13.58.36.36Z" transform="translate(-18.35 -9.98)"/>
      <path class="cls-3" d="M165.37,108.12c1.07,1.32,1,3.37,1,5a17.08,17.08,0,0,1-.23,2.67,5.92,5.92,0,0,1-.28,1.08c0,.09-.68,1.32-.77,1.21-.18-.26-.62,0-.43.25.56.75,1.29-.45,1.51-.9a8.85,8.85,0,0,0,.65-3.14,20.76,20.76,0,0,0,0-3.78,5.19,5.19,0,0,0-1-2.73c-.2-.25-.55.11-.35.36Z" transform="translate(-18.35 -9.98)"/>
      <path class="cls-3" d="M157.8,110.8l.23-.26-.39-.05a1.24,1.24,0,0,1,.07.61,1.43,1.43,0,0,1,0,.16l0,.08s0,.07,0,0a.64.64,0,0,1-.08.14.16.16,0,0,1,0,.07s0,0,0,0l.39,0a1.13,1.13,0,0,1-.12-.21s0,0,0,0a.14.14,0,0,1,0-.06.56.56,0,0,1,0-.12,1.66,1.66,0,0,1,0-.22,2.35,2.35,0,0,1,0-.26.28.28,0,0,1,0-.09l0-.13a.56.56,0,0,1,0-.12v-.07l.12-.21s0,0,0,0,0,0,0,0L158,110l-.39,0,.06.09s0,0,0,0a.31.31,0,0,1,0,.08s0,0,0,.06a.32.32,0,0,1,0,.14.3.3,0,0,1-.06.13.24.24,0,0,0,0,.3s0,0,0,0,0,0,0,0,0,.08,0,0,0,0,0,0,0,0,0,.07,0,0,0,0,0,0,0,.07,0,0,0,0l0,0v0l0,0s-.05,0,0,0h0s.06,0,0,0h0a.27.27,0,0,0-.34.09.25.25,0,0,0,.09.35.55.55,0,0,0,.72-.29.72.72,0,0,0-.06-.83l0,.3a.92.92,0,0,0,0-1,.25.25,0,0,0-.39,0,1.81,1.81,0,0,0-.23,2.27.25.25,0,0,0,.39,0,1.62,1.62,0,0,0,.24-1.75.24.24,0,0,0-.39,0l-.24.26a.25.25,0,0,0,0,.35.26.26,0,0,0,.36,0Z" transform="translate(-18.35 -9.98)"/>
      <path class="cls-3" d="M169,105.6a1,1,0,0,0-1.07,0,1.9,1.9,0,0,0-.72.93,2.31,2.31,0,0,0,0,2.43,1.36,1.36,0,0,0,.92.51,1.29,1.29,0,0,0,1-.47,3.49,3.49,0,0,0,1.18-2.12,1.56,1.56,0,0,0-1.2-1.66.27.27,0,0,0-.31.17.26.26,0,0,0,.18.31,1,1,0,0,1,.82,1,2.23,2.23,0,0,1-.67,1.6c-.34.41-.79,1-1.35.58a1.38,1.38,0,0,1-.33-1.64,3.12,3.12,0,0,1,.47-1,.59.59,0,0,1,.79-.19c.27.19.52-.25.26-.43Z" transform="translate(-18.35 -9.98)"/>
    </g>
  </g>
  <g>
    <path class="cls-3" d="M83.55,112.53l1.85.3a1.42,1.42,0,0,0,.68,0,.47.47,0,0,0,.33-.56c-.07-.31-.55-.18-.48.13,0,0,0,0,0-.06s0,0,0,0h0a.43.43,0,0,1-.17,0,4.74,4.74,0,0,1-.61-.09l-1.45-.23a.27.27,0,0,0-.31.18.24.24,0,0,0,.18.3Z" transform="translate(-18.35 -9.98)"/>
    <path class="cls-3" d="M87.34,108.91a1.6,1.6,0,0,0-.42,2.16c.49.93,1.64,1.45,1.92,2.5a.89.89,0,0,1-.43,1.09c-.46.22-.8-.14-.75-.61a3.24,3.24,0,0,1,.88-1.47c.35-.47.76-.93,1.07-1.43a1,1,0,0,0-.12-1.32,2,2,0,0,0-1.67-.38c-.31,0-.32.52,0,.5.47,0,1.38-.11,1.48.54,0,.27-.19.51-.34.71l-.56.74c-.56.73-1.64,1.76-1.11,2.77.41.81,1.46.56,1.89-.08.6-.9-.14-2-.77-2.59a4.29,4.29,0,0,1-1.13-1.38,1.06,1.06,0,0,1,.31-1.32.25.25,0,0,0-.25-.43Z" transform="translate(-18.35 -9.98)"/>
    <path class="cls-3" d="M81.61,101.79l-.27,5.55-.07,1.34a3,3,0,0,0,0,1.15.36.36,0,1,0,.66-.26c-.14-.28-.57,0-.43.26l0,0v-.25c.18,0,.25-.07.21-.23v-.16l0-.56,0-1,.1-2,.19-4c0-.32-.48-.32-.5,0Z" transform="translate(-18.35 -9.98)"/>
  </g>
  <g>
    <path class="cls-3" d="M116.8,100.81q-.12,3.43-.48,6.86c0,.27.34.32.47.13l.25-.39c.18-.27-.26-.52-.43-.25l-.25.38.46.13q.36-3.42.48-6.86c0-.32-.48-.32-.5,0Z" transform="translate(-18.35 -9.98)"/>
    <path class="cls-3" d="M112.8,112a4.74,4.74,0,0,1,2.39.23.25.25,0,0,0,.31-.17.27.27,0,0,0-.18-.31,5.19,5.19,0,0,0-2.65-.23.24.24,0,0,0-.18.3.26.26,0,0,0,.31.18Z" transform="translate(-18.35 -9.98)"/>
    <path class="cls-3" d="M116.88,110.84a1.23,1.23,0,0,1,1.27-.07,1.05,1.05,0,0,1,.59,1.11,1.22,1.22,0,0,1-.78,1c-.46.16-1,.21-1.27.71,0,.13,0,.35.15.37a22.31,22.31,0,0,1,3.42.79c.31.1.44-.38.13-.48a21.07,21.07,0,0,0-3.41-.79l.15.37c.17-.4.78-.4,1.13-.55a1.65,1.65,0,0,0,.89-1,1.62,1.62,0,0,0-1.14-2.12,1.74,1.74,0,0,0-1.49.31.26.26,0,0,0,0,.35.25.25,0,0,0,.36,0Z" transform="translate(-18.35 -9.98)"/>
  </g>
</svg>
