<?xml version="1.0" encoding="UTF-8"?>
<svg id="Layer_2" data-name="Layer 2" xmlns="http://www.w3.org/2000/svg" viewBox="0 0 144.84 67.82">
  <defs>
    <style>
      .cls-1 {
        fill: #231f20;
      }
    </style>
  </defs>
  <g id="Layer_1-2" data-name="Layer 1">
    <path class="cls-1" d="M98.94,3.36c-.16,6.99.06,13.99.67,20.96.07.82.15,1.64.23,2.46.06.64.02,1.47.38,2.04.31.49.74.5,1.25.36.7-.19,1.41-.37,2.12-.53,3.12-.72,6.29-1.17,9.48-1.34s6.63-.06,9.92.34c.28.03.49-.26.5-.5.34-8.86,1.13-17.7,2.4-26.47.04-.3-.12-.65-.48-.63-8.75.42-17.46,1.37-26.09,2.85-.63.11-.36,1.07.27.96,8.54-1.46,17.17-2.4,25.83-2.82l-.48-.63c-1.28,8.86-2.09,17.79-2.43,26.74l.5-.5c-5.77-.7-11.63-.51-17.34.56-1.31.25-2.62.54-3.91.88-.21.05-.54.24-.72.09-.16-.13-.12-.91-.15-1.14-.09-.86-.17-1.72-.25-2.58-.29-3.32-.5-6.65-.61-9.98-.13-3.7-.15-7.4-.06-11.1.01-.64-.99-.64-1,0Z"/>
    <path class="cls-1" d="M141.02,2.37c-.55.08-1.12.29-1.59.59-.69.43-1.43,1.25-1.42,2.11.01,1.13,1.49,1.49,2.35,1.74,1.03.3,2.26.53,3.03,1.34.29.31.51.75.45,1.18-.07.49-.53.79-.98.91-.93.26-2.17-.18-2.82-.87-.43-.46-.03-.86.33-1.23.42-.42.88-.8,1.34-1.17.74-.59,1.65-1.19,2.04-2.09s.37-1.91-.6-2.34c-.61-.27-1.34-.27-2-.19-.27.04-.5.2-.5.5,0,.24.23.54.5.5.49-.07,1.1-.13,1.57.08.78.34-.11,1.45-.46,1.77-.83.78-1.8,1.41-2.61,2.23-.36.37-.73.78-.81,1.3-.09.55.18,1.06.58,1.42.77.7,1.92,1.2,2.98,1.15.94-.04,1.93-.49,2.3-1.4s-.05-2-.78-2.64c-.85-.74-1.95-1.04-3.01-1.34-.33-.09-.66-.19-.98-.3-.25-.09-.65-.19-.83-.41-.27-.31.24-.89.46-1.1.46-.44,1.11-.69,1.73-.78.27-.04.41-.38.35-.62-.08-.29-.35-.39-.62-.35Z"/>
    <path class="cls-1" d="M143.37,17.84c-.8-.25-1.59-.49-2.4-.71-.39-.11-.78-.22-1.17-.32-.34-.09-.71-.21-1.05-.07-.64.26-.59.99-.52,1.55.09.81.18,1.62.27,2.44.07.62,0,1.49.76,1.68.33.08.69,0,1.02-.04.41-.04.83-.08,1.24-.06.65.02,1.31.19,1.77.68.39.42.49.98.16,1.47-.46.66-1.33.77-2.06.6-.84-.19-1.56-.69-2.26-1.17-.53-.36-1.04.5-.5.86,1.21.82,2.61,1.66,4.13,1.29,1.21-.29,2.18-1.51,1.83-2.77-.38-1.33-1.8-1.93-3.07-1.97-.39-.01-.78.02-1.17.06-.18.02-.36.04-.54.06-.07,0-.19.04-.26.02l.04.06c0-.07-.01-.14-.02-.21-.09-.84-.19-1.68-.28-2.52-.02-.22-.05-.43-.07-.65,0-.08-.08-.42-.02-.5,0-.01.05.05.12.09.09.06.29.08.39.1.21.06.42.11.62.17.93.26,1.86.53,2.78.82.62.19.88-.77.27-.96h0Z"/>
    <g>
      <path class="cls-1" d="M135.9,6.01c-3.48-.59-7-.41-10.51-.21l.25.93c1.46-.72,2.92-1.45,4.38-2.17.58-.29.07-1.15-.5-.86-1.46.72-2.92,1.45-4.38,2.17-.44.22-.23.96.25.93,3.41-.2,6.86-.4,10.24.18.63.11.9-.86.27-.96h0Z"/>
      <path class="cls-1" d="M125.39,6.9c1.1.7,2.07,1.44,3.02,2.34.19.18.52.2.71,0s.2-.52,0-.71c-.99-.93-2.07-1.77-3.22-2.49-.22-.14-.56-.05-.68.18-.13.25-.06.53.18.68h0Z"/>
    </g>
    <g>
      <path class="cls-1" d="M127.94,18.27c-1.5.72-2.91,1.61-4.23,2.63-.24.19-.17.66.1.79,1.71.8,3.42,1.6,5.14,2.41.24.11.54.07.68-.18.13-.22.07-.57-.18-.68-1.71-.8-3.42-1.6-5.14-2.41l.1.79c1.25-.96,2.61-1.79,4.03-2.47.24-.12.31-.46.18-.68-.15-.25-.44-.3-.68-.18h0Z"/>
      <path class="cls-1" d="M124.45,21.88c3.18-.61,6.43-.79,9.66-.54.64.05.64-.95,0-1-3.32-.26-6.65-.06-9.92.58-.63.12-.36,1.09.27.96h0Z"/>
    </g>
    <path class="cls-1" d="M107.35,37.8c1.14-.31,2.31-.47,3.49-.47.57,0,1.14.03,1.7.12.42.06.99.17.86.72-.21.88-1.35,1.55-2.08,1.96-.94.53-1.95.88-2.97,1.2-.52.16-.45,1.01.13.98.93-.05,1.86-.02,2.78.12.5.08,2.3.22,2.24.99-.02.33-.49.6-.73.77-.35.24-.71.45-1.08.63-.78.39-1.63.63-2.49.76-.63.1-.36,1.06.27.96,1.13-.17,2.22-.55,3.22-1.12.77-.44,1.9-1.1,1.82-2.13-.09-1.16-1.35-1.51-2.3-1.71-1.22-.25-2.47-.34-3.72-.28l.13.98c1.29-.4,2.58-.87,3.72-1.62.9-.59,2.13-1.53,2.08-2.74-.06-1.42-1.75-1.51-2.81-1.58-1.52-.1-3.06.08-4.53.48-.62.17-.36,1.13.27.96h0Z"/>
    <g>
      <path class="cls-1" d="M75.92,9.66c.77-.91,1.6-1.77,2.49-2.56.11-.1.43-.48.57-.43.17.06.26.59.3.72.15.58.23,1.17.25,1.77.09,2.41-.62,4.75-.79,7.14-.04.56.88.69.98.13.03-.15.05-.29.08-.44.11-.63-.85-.9-.96-.27-.03.15-.05.29-.08.44l.98.13c.2-2.91,1.19-5.8.61-8.73-.19-.93-.79-2.57-2.02-1.72-.58.4-1.09.95-1.59,1.44-.53.53-1.04,1.09-1.53,1.66-.42.49.29,1.2.71.71h0Z"/>
      <path class="cls-1" d="M76.09,17.95c1.85-.79,3.83-1.28,5.83-1.45.64-.05.64-1.05,0-1-2.19.18-4.31.72-6.33,1.59-.25.11-.3.47-.18.68.15.26.44.29.68.18h0Z"/>
    </g>
    <g>
      <path class="cls-1" d="M99.38,6.98c-2.32.12-4.57.72-6.82,1.27s-4.73,1.09-7.07,1.75c-.62.18-.36,1.14.27.96,2.25-.64,4.55-1.13,6.82-1.69s4.48-1.18,6.79-1.29c.64-.03.64-1.03,0-1h0Z"/>
      <path class="cls-1" d="M89.95,6.46c-.96.6-1.9,1.21-2.83,1.85-.47.32-.94.65-1.41.99-.39.28-1.1.63-.93,1.23.14.47.81.66,1.21.84.5.23,1,.44,1.51.64,1.04.41,2.11.77,3.19,1.07.62.17.89-.79.27-.96-.96-.27-1.91-.58-2.85-.93-.45-.17-.89-.35-1.33-.55-.22-.1-.44-.2-.66-.3-.15-.07-.4-.15-.5-.26l.13.22h0c-.02.09-.05.18-.07.26.09-.15.38-.28.52-.39.2-.15.41-.29.61-.44.38-.27.77-.54,1.15-.8.81-.55,1.64-1.09,2.47-1.61.54-.34.04-1.21-.5-.86h0Z"/>
    </g>
    <g>
      <path class="cls-1" d="M111.4,26.97c-.25,1.22-.43,2.46-.51,3.71-.04.62-.06,1.25-.06,1.87,0,.55-.06,1.17.19,1.67.29.58,1.15.07.86-.5-.1-.19-.05-.5-.05-.7,0-.27,0-.54,0-.8,0-.56.03-1.12.07-1.67.08-1.11.24-2.22.47-3.31.13-.63-.83-.9-.96-.27h0Z"/>
      <path class="cls-1" d="M109.27,31.04c.19.75.47,1.48.82,2.17.17.34.36.67.57.98.11.17.22.37.41.48.23.13.49.1.69-.04.29-.2.44-.63.61-.93.19-.33.39-.65.61-.96.42-.63.89-1.22,1.39-1.79l-.84-.22-.02-.08c-.1.25.11.55.35.62.29.08.51-.1.62-.35.06-.15.05-.29.02-.45-.06-.37-.6-.49-.84-.22-.52.58-1,1.19-1.44,1.83-.22.31-.42.63-.62.96-.09.15-.18.31-.27.46-.05.09-.1.18-.15.27-.05.1-.04.09-.09.13l.22-.13c.3.19.4.21.28.06l-.04-.06c-.04-.06-.08-.13-.12-.19-.08-.13-.16-.26-.23-.39-.14-.25-.28-.51-.4-.77-.24-.52-.42-1.07-.57-1.62-.16-.62-1.12-.36-.96.27h0Z"/>
    </g>
    <path class="cls-1" d="M24.97,12.06c-.2,8.99.06,17.99.8,26.96.1,1.15.2,2.3.31,3.45.08.87.02,1.96.4,2.76.33.7.86.78,1.55.59.85-.24,1.71-.46,2.57-.67,4.01-.96,8.09-1.56,12.21-1.8s8.55-.09,12.79.44c.28.03.49-.26.5-.5.34-9.15,1.04-18.3,2.11-27.39.29-2.48.61-4.96.96-7.43.04-.3-.12-.65-.48-.63-8.81.43-17.6,1.3-26.33,2.6-2.34.35-4.68.73-7.02,1.14-.63.11-.36,1.08.27.96,8.46-1.49,16.99-2.57,25.56-3.23,2.51-.19,5.01-.35,7.53-.47l-.48-.63c-1.26,9.02-2.18,18.08-2.72,27.16-.16,2.64-.29,5.28-.38,7.92l.5-.5c-7.54-.94-15.21-.66-22.67.83-1.67.33-3.34.73-4.98,1.19-.12.03-.46.16-.51.13-.05-.03-.11-.32-.13-.4-.12-.5-.12-1.06-.17-1.57-.11-1.11-.21-2.22-.31-3.33-.37-4.32-.63-8.64-.78-12.97-.17-4.87-.19-9.74-.08-14.6.01-.64-.99-.64-1,0Z"/>
    <g>
      <path class="cls-1" d="M75.96,20.61c-1,1.58-1.84,3.25-2.54,4.99-.16.4.29.66.62.62,2.6-.36,5.2-.7,7.83-.67v-1c-.06,0-.13,0-.19.01-.64.04-.64,1.04,0,1,.06,0,.13,0,.19-.01.64-.04.65-.99,0-1-2.72-.03-5.41.34-8.09.71l.62.62c.67-1.65,1.49-3.24,2.44-4.75.34-.55-.52-1.05-.86-.5h0Z"/>
      <path class="cls-1" d="M78.26,21.54c-.81,2.53-1.33,5.14-1.59,7.79-.06.64.94.64,1,0,.25-2.56.77-5.08,1.56-7.53.2-.61-.77-.88-.96-.27h0Z"/>
    </g>
    <path class="cls-1" d="M71.99,33.94c-.58.5-1.13,1.06-1.45,1.76-.39.87-.42,1.84-.08,2.73.66,1.74,2.42,2.98,4.31,2.81,1.75-.15,3.35-1.3,3.93-2.98s-.02-3.57-1.36-4.67c-.77-.63-1.74-1.02-2.76-.93s-1.84.62-2.6,1.27c-.49.42.22,1.12.71.71s1.03-.81,1.68-.94c.73-.15,1.46.05,2.07.46,1.04.7,1.61,1.98,1.45,3.22-.19,1.42-1.39,2.51-2.76,2.81s-2.83-.41-3.53-1.66c-.39-.7-.51-1.54-.21-2.3.26-.65.78-1.14,1.3-1.59.49-.42-.22-1.12-.71-.71Z"/>
    <path class="cls-1" d="M68,35.51l-11.22,2.19c-.63.12-.36,1.09.27.96l11.22-2.19c.63-.12.36-1.09-.27-.96h0Z"/>
    <path class="cls-1" d="M59.68,34.28c-1.06.69-1.97,1.6-2.66,2.66-.16.26-.31.52-.45.79-.18.37-.35.85.08,1.13.29.19.7.17,1.03.21.37.04.74.09,1.12.13.86.1,1.73.21,2.59.31.27.03.5-.25.5-.5,0-.3-.23-.47-.5-.5-.74-.09-1.49-.18-2.23-.27-.36-.04-.71-.09-1.07-.13-.18-.02-.36-.04-.54-.06-.1-.01-.21-.02-.31-.04-.02,0-.04,0-.05,0-.06-.01-.07-.02-.03-.01l.18.18h0v.27c.03-.17.14-.33.22-.48.09-.17.19-.34.3-.5.19-.3.4-.59.64-.86.49-.57,1.05-1.06,1.68-1.47.54-.35.04-1.22-.5-.86h0Z"/>
    <path class="cls-1" d="M62.02,22.72c-1.03.83-1.99,1.75-2.85,2.76-.42.49-.81.99-1.19,1.51-.33.46-.68,1.09-.23,1.6.35.41.9.38,1.39.32.67-.09,1.34-.13,2.01-.12,1.4.02,2.77.26,4.09.69.61.2.88-.76.27-.96-1.15-.38-2.34-.61-3.55-.7-.58-.04-1.17-.05-1.75-.01-.52.03-1.05.16-1.57.15-.02,0-.14-.02-.13,0,.06.04.1-.12.15-.2.15-.23.32-.45.49-.67.34-.44.69-.87,1.07-1.28.77-.86,1.62-1.65,2.52-2.37.5-.4-.21-1.11-.71-.71h0Z"/>
    <path class="cls-1" d="M58.5,28.15c3.78-1.96,7.96-3,12.22-3.04.64,0,.64-1.01,0-1-4.43.04-8.79,1.13-12.72,3.18-.57.3-.07,1.16.5.86h0Z"/>
    <g>
      <path class="cls-1" d="M63.48,11.21c-2.23.59-4.14,2.07-5.22,4.11-.16.3-.02.63.3.73,1.93.65,3.86,1.29,5.79,1.94.61.2.87-.76.27-.96-1.93-.65-3.86-1.29-5.79-1.94l.3.73c.97-1.83,2.64-3.13,4.63-3.65.62-.16.36-1.13-.27-.96h0Z"/>
      <path class="cls-1" d="M58.82,16.06c5.04-1.89,10.36-2.96,15.74-3.18.64-.03.64-1.03,0-1-5.47.22-10.88,1.29-16.01,3.21-.6.22-.34,1.19.27.96h0Z"/>
    </g>
    <path class="cls-1" d="M41.45,42.97c-1.25,3.8-.51,7.81.25,11.63.13.63,1.09.36.96-.27-.73-3.65-1.44-7.47-.25-11.1.2-.61-.76-.88-.96-.27h0Z"/>
    <path class="cls-1" d="M38.93,50.56c.54,1.73,1.56,3.29,2.95,4.46.26.22.59.18.79-.1.91-1.27,1.81-2.53,2.72-3.8.16-.22.04-.56-.18-.68-.25-.15-.53-.04-.68.18-.91,1.27-1.81,2.53-2.72,3.8l.79-.1c-1.26-1.06-2.2-2.44-2.7-4.02-.19-.61-1.16-.35-.96.27h0Z"/>
    <path class="cls-1" d="M46.13,58.6c-.82-.25-1.65-.51-2.47-.76-.58-.18-1.51-.66-1.99-.06-.21.26-.25.63-.3.95-.07.38-.12.77-.15,1.15s-.05.8-.04,1.2c0,.34-.02.76.15,1.07.36.64,1.29.52,1.91.54.75.03,1.66-.05,2.37.25,1.64.71-.25,2.47-1.08,2.99-1.26.8-2.81,1.08-4.27.75-.63-.14-.89.82-.27.96,2.48.56,5.55-.38,6.89-2.66.35-.59.51-1.31.21-1.95-.27-.58-.83-.96-1.43-1.13-.74-.22-1.57-.18-2.34-.21-.18,0-1.01.06-1.11-.08-.09-.11-.04-.4-.04-.54,0-.23,0-.46,0-.68.02-.47.06-.93.14-1.4,0-.04.16-.62,0-.52.07-.05.55.16.64.19.96.3,1.93.59,2.89.89.62.19.88-.78.27-.96h0Z"/>
    <path class="cls-1" d="M24.68,17.08c-4,.68-7.89,1.86-11.6,3.49-.59.26-.08,1.12.5.86,3.63-1.6,7.45-2.73,11.36-3.39.63-.11.36-1.07-.27-.96h0Z"/>
    <path class="cls-1" d="M17.17,16.5c-.8.69-1.58,1.41-2.34,2.15-.37.36-.74.74-1.1,1.11-.18.19-.36.38-.53.57-.2.21-.38.43-.37.73.03.74.94.78,1.49.87.64.11,1.28.22,1.92.34.57.1,1.15.2,1.73.28.27.04.5-.26.5-.5,0-.3-.23-.46-.5-.5.18.02-.02,0-.09-.01-.1-.02-.2-.03-.3-.05-.25-.04-.5-.08-.75-.13-.58-.1-1.15-.2-1.73-.3-.25-.04-.5-.09-.76-.13-.18-.03-.37-.09-.55-.1s0,0-.03,0l-.05-.03.1.35s.21-.23.23-.25c.17-.18.33-.36.5-.53.32-.33.64-.65.96-.97.77-.75,1.56-1.48,2.37-2.18.2-.18.18-.53,0-.71-.2-.2-.5-.18-.71,0h0Z"/>
    <path class="cls-1" d="M2.83,18.2C1.2,19.69.27,21.99.03,24.17c-.09.83.07,1.68.59,2.35.75.95,1.94,1.26,3.1,1.01,1.26-.27,2.43-1.07,3.4-1.87s1.8-1.76,2.5-2.8,1.25-2.1,1.01-3.33c-.21-1.05-.99-1.89-1.89-2.42-1.02-.6-2.2-.79-3.35-.46-.98.29-1.81.88-2.56,1.55-.48.43.23,1.13.71.71,1.15-1.02,2.61-1.82,4.16-1.2.73.29,1.46.83,1.8,1.56.43.92.04,1.82-.45,2.63-1.09,1.8-2.65,3.38-4.56,4.3-.92.45-2.06.68-2.89-.08-.52-.48-.66-1.16-.59-1.83.08-.88.37-1.79.68-2.62.4-1.06,1.01-2,1.84-2.77.48-.43-.23-1.14-.71-.71Z"/>
  </g>
</svg>