<?xml version="1.0" encoding="UTF-8"?>
<svg id="Layer_2" data-name="Layer 2" xmlns="http://www.w3.org/2000/svg" viewBox="0 0 94.03 68.14">
  <defs>
    <style>
      .cls-1 {
        fill: #231f20;
      }

      .cls-2 {
        fill: #6d6e71;
      }

      .cls-3 {
        fill: #808285;
      }
    </style>
  </defs>
  <g id="Layer_1-2" data-name="Layer 1">
    <g>
      <g>
        <path class="cls-1" d="M16.67,25.41c1.85-.99,3.9-1.58,6-1.71.32-.02.32-.52,0-.5-2.19.14-4.32.74-6.25,1.78-.28.15-.03.58.25.43h0Z"/>
        <path class="cls-1" d="M19.76,22.15c-.02,1.29-.04,2.57-.05,3.86,0,.62-.01,1.25,0,1.87,0,.58.07,1.15.31,1.69.13.29.56.04.43-.25-.22-.51-.24-1.08-.24-1.63,0-.61,0-1.22,0-1.82,0-1.24.03-2.48.05-3.72,0-.32-.5-.32-.5,0h0Z"/>
        <path class="cls-1" d="M23.34,22.63c.29,1.96-.04,3.95.2,5.91.04.32.47.33.5,0,.04-.44.14-.88.31-1.29.08-.2.35-.82.66-.67.12.06.17.22.2.34.05.2.07.4.08.6.03.48,0,.97-.1,1.44-.07.31.42.45.48.13.12-.6.16-1.21.1-1.82-.05-.44-.14-1.04-.64-1.19-.54-.16-.95.35-1.15.78-.25.53-.39,1.09-.44,1.67h.5c-.24-2.01.08-4.04-.21-6.04-.02-.13-.19-.21-.31-.17-.14.04-.19.17-.17.31h0Z"/>
        <path class="cls-1" d="M26.88,26.93c.36.01.7-.14.99-.35s.54-.44.65-.77c.1-.3.04-.66-.13-.92-.19-.28-.5-.44-.84-.46-.75-.03-1.13.68-1.25,1.31-.13.69-.03,1.42.31,2.04s.91,1.1,1.57,1.37c.13.05.27-.05.31-.17.04-.14-.05-.26-.17-.31-.94-.37-1.58-1.32-1.57-2.35,0-.28.05-.56.15-.83.07-.2.19-.41.39-.51.17-.08.39-.07.55.03s.25.3.25.48c0,.12-.03.22-.11.33s-.18.2-.28.28c-.23.18-.5.33-.79.32-.14,0-.25.12-.25.25,0,.14.11.25.25.25h0Z"/>
        <path class="cls-1" d="M32.98,23.14c-.06,1.87.3,3.72,1.02,5.44.1.23.48.11.47-.13-.06-.86-.25-1.72-.2-2.59.04-.68.25-1.49.85-1.89.28-.19.69-.28.98-.04.1.09.25.1.35,0,.09-.09.1-.27,0-.35-.33-.28-.78-.36-1.19-.22s-.74.44-.98.8c-.5.76-.56,1.72-.49,2.6.05.57.14,1.14.18,1.71l.47-.13c-.69-1.63-1.01-3.42-.96-5.19.01-.32-.49-.32-.5,0h0Z"/>
        <path class="cls-1" d="M38.07,27.78c0-.05.01-.11.02-.16,0-.02,0-.05,0-.07.01-.08,0,.05,0-.03.01-.1.03-.2.04-.3.03-.2.06-.39.09-.59.07-.39.15-.79.23-1.18.03-.13-.04-.28-.17-.31-.13-.03-.28.04-.31.17-.18.81-.32,1.63-.42,2.45-.02.13.13.26.25.25.15,0,.23-.11.25-.25h0Z"/>
        <path class="cls-1" d="M38.73,23.72s-.01-.03-.02-.04l.03.06s-.02-.07-.03-.11v.07s0-.08,0-.11v.07s0-.07.02-.11l-.03.06s0,0,0,0l-.46-.06s.01.04.01.07v-.07s0,.09,0,.13v-.07s0,.09-.03.13l.03-.06s-.04.07-.06.11h.43s-.02-.03-.03-.05l.03.06s-.02-.05-.02-.07v.07s0-.05,0-.07v.07s0-.04,0-.07l-.03.06s0,0,0,0h-.43s0,0,0,.02l-.03-.06s0,.02,0,.02v-.07s0,.02,0,.03v-.07s0,.02,0,.03l.03-.06s0,.02-.01.02l.04-.05s-.01.01-.02.02l.05-.04s-.01,0-.02.01l.06-.03s-.01,0-.02,0c-.03,0-.06.02-.09.04-.03.02-.05.04-.06.07-.02.03-.03.06-.03.09,0,.03,0,.07,0,.1l.03.06s.05.07.09.09l.06.03s.09.01.13,0c0,0,0,0,.01,0,.02,0,.04-.02.06-.03,0,0,0,0,0,0,0,0,0,0,.01,0,.02-.01.04-.03.06-.05.02-.02.04-.05.06-.07s.03-.06.04-.08c0,0,0-.02,0-.03,0-.02.01-.06.01-.09,0-.06-.02-.12-.05-.17-.02-.04-.05-.07-.09-.09-.04-.02-.08-.03-.13-.03-.05,0-.09.01-.13.03-.04.02-.07.05-.09.09-.02.04-.04.08-.04.13s-.02.09-.01.14,0,.09.02.13c.01.03.02.06.04.09,0,.01.01.02.02.03.02.04.05.07.09.09.04.02.08.03.13.03.05,0,.09-.01.13-.03.04-.02.07-.05.09-.09.02-.02.04-.05.05-.08.02-.03.03-.06.04-.1,0-.01.01-.03.01-.04.01-.05.02-.1.03-.15,0-.03,0-.06,0-.09,0-.04,0-.08-.01-.11,0-.02,0-.03-.01-.05l-.03-.06-.04-.05-.05-.04s-.06-.03-.09-.03c-.02,0-.04,0-.07,0-.02,0-.04,0-.06.02-.02,0-.04.02-.06.03-.03.02-.05.04-.06.07-.02.05-.04.1-.05.15s-.02.11-.02.16c0,.11.03.22.09.31.02.03.04.05.06.07.02.02.05.04.09.04.03.01.07.01.1,0,.03,0,.06-.01.09-.03l.05-.04s.05-.07.06-.11v-.07s0-.09-.03-.13h0Z"/>
        <path class="cls-1" d="M40.06,23.95c-.26.57-.41,1.18-.41,1.81,0,.49.08,1.07.52,1.37.47.32,1.08.04,1.36-.41.16-.25.22-.54.26-.83.04-.3.06-.61,0-.91-.12-.63-.67-1.17-1.34-1.04l.24.06s-.04-.03-.03-.07l-.42.11c.43.4.88.81,1.2,1.32.36.56.46,1.16.38,1.81-.07.59-.21,1.23-.54,1.74s-.89.79-1.46.94-1.22.18-1.66-.24c-.23-.22-.59.13-.35.35.48.47,1.17.55,1.81.45s1.33-.39,1.79-.86c.5-.51.71-1.22.84-1.9.14-.75.15-1.49-.19-2.2s-.91-1.24-1.47-1.76c-.14-.13-.37-.08-.42.11-.06.22.02.55.26.62.1.03.2-.02.31,0,.09.02.18.06.25.12.38.3.35.89.29,1.32-.05.35-.23.94-.69.89-.38-.04-.44-.58-.45-.87-.02-.58.1-1.17.34-1.7.06-.12.03-.27-.09-.34-.11-.06-.29-.03-.34.09h0Z"/>
        <path class="cls-1" d="M43.22,22.77c-.17,1.89-.07,3.79.29,5.65.05.24.43.23.48,0,.22-.99.48-2.17,1.35-2.8l-.38-.22c.07.87,0,1.75-.21,2.6-.08.31.4.45.48.13.23-.89.31-1.81.23-2.73-.01-.17-.21-.34-.38-.22-1,.72-1.33,1.95-1.58,3.1h.48c-.35-1.82-.43-3.68-.27-5.52.01-.13-.12-.25-.25-.25-.15,0-.24.11-.25.25h0Z"/>
        <path class="cls-1" d="M45.8,23.68c1-.25,2.02-.43,3.02-.54.13-.01.26-.1.25-.25,0-.12-.11-.27-.25-.25-1.06.12-2.12.3-3.15.56-.13.03-.22.18-.17.31s.17.21.31.17h0Z"/>
        <path class="cls-1" d="M47.38,21.46l-.73,7.02c-.01.14.13.24.25.25.18.01.33-.11.38-.28.1-.31-.39-.44-.48-.13l.1-.09.25.25.73-7.02c.01-.14-.13-.25-.25-.25-.15,0-.24.12-.25.25h0Z"/>
        <path class="cls-1" d="M51.57,23.67c1.37-.53,2.79-.93,4.23-1.19.13-.02.21-.19.17-.31-.04-.14-.17-.2-.31-.17-1.44.26-2.86.66-4.23,1.19-.13.05-.21.17-.17.31.03.12.18.22.31.17h0Z"/>
        <path class="cls-1" d="M53.78,20.59c-.54,2.26-.84,4.58-.91,6.91,0,.32.49.32.5,0,.07-2.28.37-4.55.89-6.77.07-.31-.41-.45-.48-.13h0Z"/>
        <path class="cls-1" d="M55.34,23.59c-.2,1.27-.1,2.58.32,3.8.04.12.15.2.27.18s.2-.12.22-.25c.08-.67.06-1.35.2-2.01.06-.29.15-.56.29-.81.13-.23.3-.47.54-.58,0,0-.02,0,0,0,.02,0,.04-.02.07-.02.01,0,.03,0,.04,0,.03,0-.02,0,.02,0,.02,0,.03,0,.05,0,.02,0,.03,0,0,0,.03,0,.06.01.1.03-.03-.01.04.02.05.03.04.02.02.01,0,0,.02.01.03.03.04.04,0,0,.02.02.02.03-.02-.03,0,0,0,.02.01.03,0,0,0,0,0,.02.01.05.02.07.03.13.19.21.31.17.14-.04.2-.17.17-.31-.06-.34-.41-.56-.75-.57-.36-.01-.68.22-.9.49-.48.59-.64,1.33-.71,2.06-.04.46-.05.91-.11,1.37l.49-.07c-.39-1.13-.51-2.35-.32-3.53.02-.13-.03-.27-.17-.31-.12-.03-.29.04-.31.17h0Z"/>
        <path class="cls-1" d="M58.93,27.54c.01-.1.03-.21.04-.31,0,.05,0-.03,0-.03,0-.02,0-.05,0-.07,0-.05.01-.1.02-.15.03-.2.06-.4.09-.6.07-.4.14-.8.23-1.2.03-.13-.04-.28-.17-.31-.13-.03-.28.04-.31.17-.17.83-.31,1.66-.41,2.5-.02.13.13.26.25.25.15,0,.23-.11.25-.25h0Z"/>
        <path class="cls-1" d="M59.03,23.67l-.14.32.47.13s0-.02,0-.03v.07c0-.07.02-.13.05-.2l-.03.06s.05-.09.08-.14c.02-.03.03-.06.03-.09,0-.03,0-.07,0-.1,0-.03-.02-.06-.04-.09-.02-.03-.04-.05-.07-.06l-.06-.03s-.09-.01-.13,0l-.06.03s-.07.05-.09.09c-.05.07-.09.15-.12.24s-.04.17-.05.26v.07s.03.06.05.09c.01.02.03.03.04.04.02.02.05.04.09.04h.07s.04,0,.07,0c.03,0,.06-.02.09-.04.03-.02.05-.04.06-.07l.14-.32s.03-.06.03-.09c0-.03,0-.07,0-.1,0-.03-.02-.06-.04-.09-.02-.03-.04-.05-.07-.06l-.06-.03s-.09-.01-.13,0l-.06.03s-.07.05-.09.09h0Z"/>
        <path class="cls-1" d="M61.75,24.83v1.82h.5c-.05-.5-.11-1.01-.28-1.49-.09-.24-.2-.48-.35-.68-.18-.24-.4-.48-.71-.51-.16-.01-.32.06-.42.18s-.15.25-.2.4c-.1.29-.15.58-.17.88s0,.61.05.91.15.57.35.79.5.36.8.4c.36.05.71-.04,1.05-.18.12-.05.16-.24.09-.34-.08-.12-.21-.15-.34-.09-.03.01-.08.03-.14.05-.06.02-.12.04-.19.05-.1.02-.2.03-.33.03-.02,0-.04,0-.06,0,0,0-.04,0-.01,0s-.01,0-.01,0c-.02,0-.03,0-.05,0-.05-.01-.11-.03-.16-.05-.04-.01.01,0-.03-.01-.02-.01-.05-.02-.07-.04-.02-.01-.04-.02-.06-.04,0,0-.02-.01-.03-.02-.06-.04.02.02-.01-.01-.04-.03-.07-.07-.11-.11,0,0-.02-.03-.01-.01.01.02-.01-.02-.01-.02-.02-.03-.04-.06-.05-.09-.03-.06-.03-.06-.05-.12-.02-.06-.04-.12-.05-.18-.01-.06-.02-.11-.03-.17,0-.02,0-.04,0-.06,0,0,0-.04,0-.02s0-.02,0-.02c0-.02,0-.04,0-.06-.01-.13-.02-.26-.02-.39,0-.26.03-.45.09-.71.03-.12.07-.24.11-.36,0-.01,0-.02.01-.03-.02.04,0,0,0,0,.01-.02.02-.04.03-.06,0-.01.03-.03,0,0,0,0,.02-.01.02-.02.02-.02,0,0,0,0,0,0,.04,0,0,0-.06,0,.04,0,.01,0-.03,0,.07.03.02,0,.02.01.04.02.06.04.01,0,.02.01.03.02.03.03-.04-.04.02.02.04.04.07.07.11.11.02.02.03.04.05.05,0,0,.01.02.02.03-.03-.03,0,0,0,.01.06.08.12.17.16.26.02.04.05.09.07.14,0,.01,0,.02.01.03,0,0-.02-.04,0,0,.01.03.02.05.03.08.08.23.14.46.18.7.01.06.02.12.03.18,0,.03,0,.06.01.1,0,.03,0,0,0,0,0,.02,0,.04,0,.06.02.12.03.24.04.37.01.13.11.26.25.25.14,0,.25-.11.25-.25v-1.82c0-.13-.12-.26-.25-.25s-.25.11-.25.25h0Z"/>
        <path class="cls-1" d="M63.31,24.27c-.08,1.04-.08,2.08,0,3.11,0,.12.09.23.22.25.11.01.25-.05.27-.18.14-.93.11-1.87.45-2.75.06-.17.17-.38.28-.5.02-.02.04-.04.06-.06.05-.05-.03.01.03-.03.01,0,.03-.02.04-.03,0,0,.07-.03.03-.02.02,0,.05-.02.07-.02-.05,0,.03,0,.04,0-.01,0-.03-.01,0,0,.02,0,.03,0,.04.01-.02-.01-.02,0,0,0,.04.03.09.07.13.12.02.03.04.07.06.11.04.07-.01-.04.01.03.01.03.02.06.03.09.07.23.1.46.1.69.01.57-.11,1.14-.23,1.69-.03.13.04.27.17.31.13.03.28-.04.31-.17.13-.57.25-1.14.25-1.73,0-.29-.03-.58-.1-.86-.06-.22-.16-.45-.33-.61-.19-.18-.46-.26-.71-.17s-.44.29-.58.52c-.26.44-.39.96-.46,1.46-.09.58-.11,1.18-.2,1.74l.49.07c-.08-1.04-.08-2.08,0-3.11.01-.13-.12-.25-.25-.25-.14,0-.24.11-.25.25h0Z"/>
        <path class="cls-1" d="M66.72,24.03c-.2.45-.34.92-.38,1.41-.03.35.04.76.31,1.01.33.31.83.22,1.12-.1.3-.34.36-.85.41-1.29.06-.47,0-.95-.32-1.32-.07-.07-.22-.1-.3-.04-.23.17-.19.43,0,.62.08.08.16.13.23.22s.11.18.16.27c.2.44.3.95.34,1.42.05.52.02,1.04-.09,1.55-.09.45-.23.94-.49,1.33-.11.17-.27.33-.48.36-.16.03-.34-.02-.42-.16-.16-.28-.59-.03-.43.25.24.41.78.51,1.19.33.48-.21.72-.73.89-1.19.39-1.06.45-2.24.19-3.34-.07-.3-.16-.59-.3-.87-.06-.12-.14-.24-.23-.34-.06-.07-.21-.15-.23-.24v.13h0s-.06.07-.09.1l.02-.02-.3-.04c.24.27.21.69.16,1.03-.04.31-.08.92-.47,1.02-.3.08-.36-.34-.36-.55,0-.44.13-.91.31-1.3.06-.12.04-.27-.09-.34-.11-.06-.29-.03-.34.09h0Z"/>
        <path class="cls-1" d="M70.05,21.23c-.03,1.88-.14,3.75-.33,5.62-.02.18.17.27.32.24.04,0,.09-.02.13-.02.13-.02.21-.19.17-.31-.04-.14-.17-.2-.31-.17-.04,0-.09.02-.13.02l.32.24c.19-1.87.3-3.74.33-5.62,0-.32-.49-.32-.5,0h0Z"/>
        <path class="cls-1" d="M71.63,25.16c.62.13,1.3-.09,1.71-.57.23-.27.39-.62.38-.98s-.22-.72-.57-.85-.72.03-.94.31c-.24.3-.33.71-.41,1.08-.17.76-.19,1.56.12,2.3.34.78,1.05,1.2,1.81,1.48.13.05.27-.05.31-.17.04-.14-.05-.26-.17-.31-.51-.19-1.03-.44-1.33-.91-.33-.5-.4-1.11-.35-1.69.03-.32.11-.64.19-.96.06-.23.14-.51.37-.63.18-.09.36,0,.43.18.1.23,0,.51-.13.71-.27.42-.82.64-1.29.54-.13-.03-.27.04-.31.17-.03.12.04.28.17.31h0Z"/>
        <path class="cls-1" d="M24.45,32.17c.15,1.85.36,3.69.64,5.53l.48-.13c-.25-.67-.71-1.27-1.39-1.55s-1.5-.18-2.04.35c-.49.48-.89,1.35-.64,2.03s1.07.94,1.71,1.1c.83.21,1.72.26,2.49-.16.28-.16.03-.59-.25-.43-.53.29-1.15.3-1.74.2-.3-.06-.6-.14-.89-.24-.24-.08-.5-.19-.69-.37-.43-.43-.11-1.17.19-1.58.35-.47.92-.65,1.48-.5.62.17,1.06.71,1.28,1.29.12.3.53.18.48-.13-.27-1.79-.47-3.59-.62-5.4-.03-.32-.53-.32-.5,0h0Z"/>
        <path class="cls-1" d="M26.67,37.81c.5-.32,1.07-.68,1.32-1.25.14-.31.19-.68,0-.98-.16-.24-.41-.36-.69-.37s-.55.09-.75.27c-.22.2-.35.5-.4.79-.11.65.06,1.33.37,1.9.17.31.4.61.72.78.33.18.72.21,1.09.23.13,0,.26-.12.25-.25,0-.14-.11-.24-.25-.25-.28-.02-.5-.02-.76-.13-.07-.03-.2-.11-.26-.17-.1-.09-.16-.16-.22-.26-.29-.44-.46-.97-.46-1.49,0-.06,0-.12,0-.18,0-.02,0-.03,0-.05,0,0,0-.04,0-.02,0,.03,0-.02,0-.03,0-.02,0-.03,0-.05.01-.06.03-.11.05-.17,0-.01.03-.08.01-.04.01-.03.03-.06.04-.09s.03-.06.05-.08c0-.01.01-.02.02-.03.02-.03-.02.02,0,0,.02-.02.04-.04.06-.06.01-.01.07-.05.03-.03.04-.03.08-.05.12-.07,0,0,.04-.01,0,0-.03.01,0,0,.02,0,.03,0,.05-.02.08-.02.02,0,.05,0,.07-.01-.05,0,0,0,.02,0,.02,0,.05,0,.07,0,.01,0,.03,0,.04,0-.02,0-.04,0,0,0,.04,0,.09.02.13.04-.06-.02,0,0,.02.01.01,0,.02.02.03.02.03.01-.04-.04,0,0,.01.01.03.03.04.04.03.03,0,0,0,0,0,.01.01.02.02.03,0,0,.03.06.02.03,0,.02.01.03.02.05,0,0,.02.07.01.04,0-.03,0,.01,0,.02,0,.02,0,.03,0,.05,0,.01,0,.03,0,.04,0,0,0,.06,0,.03,0,.02-.03.12-.04.17,0,.02-.01.03-.02.05,0-.02,0,0,0,.01-.02.03-.03.06-.05.09-.03.06-.08.13-.11.17-.07.09-.19.21-.29.3-.2.17-.44.33-.68.49-.11.07-.16.22-.09.34.07.11.23.16.34.09h0Z"/>
        <path class="cls-1" d="M29.88,38.25c-.07-.78-.13-1.56-.12-2.34,0-.62.04-1.4.56-1.82.06-.04.12-.09.19-.11.06-.02.09-.01.14.02.11.06.19.2.26.32.16.28.59.03.43-.25-.18-.31-.44-.63-.84-.58s-.72.4-.91.73c-.2.37-.28.78-.31,1.19-.04.45-.03.89,0,1.34.02.51.07,1.01.11,1.52.01.13.11.25.25.25.13,0,.26-.11.25-.25h0Z"/>
        <path class="cls-1" d="M28.77,36.45s.03-.01.01,0c.02,0,.03-.01.05-.02.02,0,.05-.02.07-.03.05-.02.1-.03.16-.05.11-.03.22-.06.33-.08s.22-.04.33-.05c-.04,0,.03,0,.04,0,.03,0,.05,0,.08,0,.06,0,.12-.01.18-.02.48-.05.97-.1,1.45-.15.13-.01.26-.11.25-.25,0-.12-.11-.26-.25-.25-.5.05-1,.1-1.5.16s-.98.13-1.44.33c-.12.05-.16.24-.09.34.08.12.21.15.34.09h0Z"/>
        <path class="cls-1" d="M33.3,38.09s0-.05-.01-.08c0-.02,0-.02,0,0,0-.01,0-.02,0-.04,0-.05-.01-.1-.02-.15-.01-.09-.02-.19-.03-.28-.02-.2-.02-.4-.02-.6s0-.4.02-.59c0-.1.01-.2.02-.3,0-.05,0-.09.01-.14,0-.02,0-.05,0-.07,0,0,.01-.1,0-.05,0-.07.01-.13-.03-.19-.03-.05-.09-.1-.15-.11-.12-.03-.29.04-.31.17-.12.86-.11,1.71.01,2.57.02.13.19.21.31.17.14-.05.19-.17.17-.31h0Z"/>
        <path class="cls-1" d="M32.84,34.25s0,0,0,0v-.07s0,0,0,.01v-.07s0,0,0,.01l.03-.06s0,0,0,.01l.04-.05s0,0-.01.01l.05-.04s-.01,0-.02.01l.06-.03s-.01,0-.02,0h.07s0,0-.01,0h.07s0,0-.01,0l.06.03s0,0,0,0l.05.04s0,0-.01-.01l.04.05s0,0,0-.01l.03.06s0-.01,0-.02v.07s0-.01,0-.02v.07s0-.01,0-.02l-.03.06s0,0,0-.01l-.04.05s0,0,.01-.01l-.05.04s0,0,.01,0l-.06.03s0,0,0,0c.03,0,.06-.02.09-.04.03-.02.05-.04.06-.07.02-.03.03-.06.03-.09,0-.03,0-.07,0-.1l-.03-.06s-.05-.07-.09-.09l-.06-.03s-.09-.01-.13,0c-.01,0-.03.01-.04.01,0,0-.02,0-.04.02s-.02.02-.03.02c0,0-.02.02-.03.02,0,0,0,0,0,0-.01.02-.03.04-.04.05,0,0,0,0,0,0-.01.02-.02.04-.03.07,0,0,0,0,0,.01,0,.02,0,.05,0,.07,0,0,0,0,0,0s0,0,0,0c0,.02,0,.05,0,.07,0,0,0,.01,0,.02,0,.02.02.05.03.06,0,0,0,0,0,0,.01.02.03.04.04.05,0,0,0,0,0,0,0,0,.02.02.03.02s.02.02.03.02c.02.01.05.02.07.03s.05.01.08,0c0,0,0,0,0,0,.02,0,.05,0,.07,0,0,0,0,0,0,0,.01,0,.03-.01.04-.02s.03,0,.04-.02c0,0,0,0,0,0,.02-.01.04-.03.06-.04.04-.04.07-.09.09-.14,0,0,0,0,0,0,0,0,0,0,0,0v-.07s0,0,0,0c0,0,0,0,0,0,0-.01,0-.05,0-.07,0,0,0,0,0,0,0-.03-.02-.06-.04-.09-.02-.03-.04-.05-.07-.06-.03-.02-.06-.03-.09-.03-.03,0-.07,0-.1,0l-.06.03s-.07.05-.09.09l-.03.06s-.01.09,0,.13h0Z"/>
        <path class="cls-1" d="M34.16,34.18l.44,3.5c.02.13.1.25.25.25.14,0,.25-.11.25-.25,0-.93,0-1.86.32-2.73.04-.1.07-.18.12-.27.03-.05.05-.11.08-.16.01-.02.02-.04.04-.06,0-.01,0-.01,0,0,.02-.02.02-.02,0-.01h.02s-.02,0,.01-.01h-.02s.03,0,0,0h.02s-.02,0,0,0c0,0,.05.03.02,0,.08.06.12.16.17.26.18.41.28.89.33,1.33.06.55.06,1.1.06,1.65,0,.14.12.25.25.25s.25-.11.25-.25c0-1.09-.01-2.2-.46-3.22-.11-.25-.29-.49-.58-.53-.16-.02-.31.02-.43.13-.09.09-.16.21-.21.32-.24.47-.37.98-.44,1.51-.08.59-.08,1.18-.08,1.78h.5l-.44-3.5c-.02-.13-.1-.25-.25-.25-.12,0-.27.12-.25.25h0Z"/>
        <path class="cls-1" d="M38.08,37.41c-.05-.89-.03-1.78.05-2.67.01-.13-.12-.26-.25-.25-.15,0-.24.11-.25.25-.08.89-.09,1.78-.05,2.67,0,.13.11.26.25.25.13,0,.26-.11.25-.25h0Z"/>
        <path class="cls-1" d="M38.05,32.98l-.05-.05s-.05-.04-.08-.05c-.03-.02-.06-.02-.1-.02-.03,0-.07,0-.1.02-.03.01-.06.03-.08.05l-.04.05s-.03.08-.03.13v.07s.04.08.07.11l.05.05s.05.04.08.05c.03.02.06.02.1.02.03,0,.07,0,.1-.02.03-.01.06-.03.08-.05l.04-.05s.03-.08.03-.13v-.07s-.04-.08-.07-.11h0Z"/>
        <path class="cls-1" d="M39.27,34.69c.19-.14.38-.26.59-.36.05-.03.11-.05.16-.08,0,0,.09-.04.04-.02.03-.01.06-.02.08-.03.1-.04.21-.08.32-.11s.22-.06.33-.08c.06-.01.12-.02.18-.03.03,0,.06,0,.09-.01.01,0,.03,0,.04,0-.03,0-.03,0,0,0,.23-.03.46-.04.7-.02.13,0,.26-.12.25-.25,0-.14-.11-.24-.25-.25-.99-.05-1.99.25-2.78.84-.1.08-.17.22-.09.34.07.1.23.17.34.09h0Z"/>
        <path class="cls-1" d="M40.35,31.68c-.17,1.03-.28,2.08-.32,3.12-.02.52-.02,1.03,0,1.55,0,.26.02.52.04.77.01.21.06.47.31.52.31.06.45-.42.13-.48.07.09.09.11.07.05,0,.01,0,0,0-.03,0-.05,0-.11-.01-.17,0-.12-.01-.24-.02-.36,0-.22-.02-.44-.02-.66,0-.47,0-.94.02-1.41.04-.93.14-1.85.29-2.77.02-.13-.03-.27-.17-.31-.12-.03-.29.04-.31.17h0Z"/>
        <path class="cls-1" d="M43.21,37.13c0-.4.02-.79.06-1.18.02-.2.03-.39.05-.58.01-.1.02-.19.03-.29,0-.05.01-.09.02-.14,0,.05,0-.02,0-.03,0-.03,0-.06.01-.09,0-.07.01-.13-.03-.19-.03-.05-.09-.1-.15-.11-.12-.03-.29.04-.31.17-.12.81-.18,1.63-.2,2.45,0,.13.12.26.25.25s.25-.11.25-.25h0Z"/>
        <path class="cls-1" d="M42.98,33.12l-.05.05s-.04.05-.05.08c-.02.03-.02.06-.02.1,0,.03,0,.07.02.1.01.03.03.06.05.08l.05.04s.08.03.13.03h.07s.08-.04.11-.07l.05-.05s.04-.05.05-.08c.02-.03.02-.06.02-.1,0-.03,0-.07-.02-.1-.01-.03-.03-.06-.05-.08l-.05-.04s-.08-.03-.13-.03h-.07s-.08.04-.11.07h0Z"/>
        <path class="cls-1" d="M45.36,35.9s-.06-.07-.1-.14c-.04-.06-.08-.13-.12-.19s-.06-.13-.09-.19c-.02-.04.01.03,0,0,0-.02-.01-.04-.02-.06-.01-.04-.03-.07-.04-.11-.04-.14-.08-.28-.1-.42,0,.05,0,0,0-.02,0-.02,0-.04,0-.06,0-.03,0-.06,0-.1,0-.07,0-.15,0-.22,0-.03,0-.06,0-.09,0-.05,0,0,0,0,0-.02,0-.04,0-.05.01-.07.03-.13.05-.2,0-.01,0-.03.01-.04,0,0,.03-.06.01-.03s.01-.03.01-.03c0-.01.01-.03.02-.04.01-.02.03-.05.04-.07,0-.01.02-.03.03-.04.01-.01,0-.01,0,0,0,0,.01-.02.02-.02.02-.02.04-.05.07-.07.01,0,.07-.06.03-.03.03-.02.06-.04.1-.06.01,0,.03-.01.04-.02,0,0,.07-.03.03-.01.07-.03.13-.05.2-.06.03,0,.06-.01.09-.02-.05,0,0,0,0,0,.02,0,.05,0,.07,0,.06,0,.13,0,.19,0,.03,0,.06,0,.1,0,.04,0-.06-.01,0,0,.02,0,.04,0,.05,0,.06.01.13.03.19.05.03,0,.06.02.09.03.01,0,.03.01.04.02.07.03-.04-.02.02,0,.06.03.11.06.17.09.02.01.05.03.07.05.01,0,.03.02.04.03.02.01.04.03,0,0,.05.04.1.08.14.13.02.02.04.05.07.07.01.01.02.03.03.04-.03-.03,0,0,.01.02.04.05.07.1.1.16.02.03.03.06.04.09.02.04,0,0,0,0,0,.02.02.04.02.06.02.06.04.12.05.19,0,.03.01.06.02.09,0-.05,0,0,0,0,0,.02,0,.04,0,.06,0,.06,0,.12,0,.18,0,.02,0,.04,0,.05,0,.01,0,.06,0,0,0,.04-.01.07-.02.11-.01.06-.03.13-.06.19,0,.01-.01.03-.02.04,0,0,.02-.04,0,0-.02.03-.03.06-.05.1s-.04.06-.06.09c0,0-.04.05-.02.02.02-.03-.02.02-.02.03-.05.05-.1.1-.15.15,0,0-.04.03,0,0-.02.01-.03.02-.05.04-.03.02-.06.04-.08.05s-.06.03-.09.05c-.02,0-.03.01-.05.02-.03.01.04-.01,0,0-.07.03-.14.05-.21.06-.02,0-.12.02-.05.01-.03,0-.07,0-.1,0-.07,0-.13,0-.2,0,.06,0-.03,0-.05-.01-.04,0-.08-.02-.12-.03-.12-.04-.28.05-.31.17-.03.14.04.26.17.31.58.19,1.27-.02,1.66-.49.43-.53.48-1.27.17-1.87s-.93-.93-1.57-.97c-.33-.02-.71.04-.98.24s-.45.5-.52.83c-.16.77.11,1.58.59,2.18.08.1.27.09.35,0,.1-.11.09-.24,0-.35h0Z"/>
        <path class="cls-1" d="M48.4,33.22c-.21,1.15-.18,2.31-.15,3.47,0,.14.11.25.25.25.15,0,.24-.12.25-.25.05-.47.12-.95.22-1.41.08-.41.17-.86.35-1.22.04-.09.09-.17.15-.25.02-.02.04-.05.07-.08.02-.02.03-.03.05-.04.01-.01.01-.01,0,0,.01-.01.03-.02.04-.03.06-.04-.01,0,.02-.01h.01s.03-.01,0,0h.02s-.03,0,0,0c.01.02,0-.01-.02-.01l.02.02s-.01-.01,0,0c.02.04,0-.05.01.03.02.06.03.12.04.18.1.45.13.91.13,1.38,0,.54-.04,1.09-.08,1.63-.01.13.12.25.25.25.14,0,.24-.11.25-.25.08-1.07.15-2.15-.09-3.2-.06-.27-.22-.53-.53-.51-.26.01-.46.2-.61.4-.28.38-.41.86-.51,1.32-.13.61-.23,1.22-.3,1.83h.5c-.03-1.11-.07-2.24.13-3.34.02-.13-.04-.27-.17-.31-.12-.03-.28.04-.31.17h0Z"/>
        <path class="cls-1" d="M53.93,35.44s0,0,0,0c.04.06,0-.02,0,.02,0,.04,0,0,0-.01h0s0-.04,0,0c0-.02.02-.06.02-.08.01-.03.02-.07.04-.1,0-.01.01-.03.02-.04-.02.04,0,0,0,0,.01-.03.03-.06.04-.09.03-.06.06-.13.1-.19.03-.05.06-.1.1-.15.02-.03.04-.05.06-.08.03-.03-.04.04,0-.01.01-.01.02-.03.04-.04.04-.05.08-.09.13-.14.02-.02.05-.04.07-.07,0,0,.04-.03.02-.02-.02.02.03-.02.04-.03.05-.04.1-.07.16-.1.03-.01.05-.03.08-.04-.04.02,0,0,0,0,.02,0,.04-.02.06-.02.06-.02.12-.04.19-.05.01,0,.03,0,.04,0,0,0-.05,0,0,0,.04,0,.07,0,.11,0,.03,0,.06,0,.09,0,.01,0,.03,0,.04,0-.05,0,0,0,0,0,.07.01.13.03.19.05-.05-.02.02,0,.03.02.02.01.04.02.06.04.02.01.05.03.07.05.03.02-.04-.04,0,0,.01.01.02.02.03.03.04.03.07.07.11.11,0,0,.02.02.02.03-.04-.04-.01-.02,0,0,.02.03.04.05.05.08.03.05.06.1.08.15,0,.02.03.08.01.03.01.03.02.06.03.09.04.11.07.22.09.34,0,.01,0,.03,0,.04,0,.05,0,0,0,0,0,.02,0,.06,0,.09,0,.06,0,.12.01.18,0,.12,0,.23-.02.35,0,.04,0-.04,0,0,0,.02,0,.03,0,.05,0,.03-.01.05-.02.08-.01.06-.03.12-.05.17,0,.02-.01.03-.02.05-.01.03.02-.04,0,0-.01.03-.02.05-.04.08-.01.02-.03.05-.04.07,0,.01-.01.02-.02.03,0,0-.05.06,0,.01-.04.04-.08.08-.11.12-.03.03.05-.03,0,0-.01,0-.02.02-.03.02-.03.02-.06.04-.09.05-.01,0-.04.01,0,0-.02,0-.04.01-.06.02-.03.01-.07.02-.1.03-.01,0-.05,0,0,0-.02,0-.04,0-.06,0-.04,0-.07,0-.11,0s-.07,0-.11,0c0,0,.05,0,0,0-.02,0-.04,0-.06-.01-.07-.02-.14-.04-.21-.06,0,0-.04-.02,0,0-.02,0-.04-.02-.05-.02-.04-.02-.07-.04-.11-.05-.07-.04-.14-.08-.21-.13s-.13-.09-.2-.14c-.02-.01-.03-.02-.05-.04.03.02,0,0-.02-.01-.03-.03-.07-.05-.1-.08-.1-.08-.25-.11-.35,0-.08.09-.11.27,0,.35.27.21.53.43.85.56s.66.2,1,.11c.31-.08.56-.29.71-.57s.2-.57.21-.86c.02-.55-.11-1.16-.5-1.56-.45-.47-1.17-.49-1.72-.17-.31.18-.56.47-.74.78-.09.16-.17.32-.23.49-.07.2-.08.42.08.58.09.09.26.1.35,0s.1-.25,0-.35h0Z"/>
        <path class="cls-1" d="M58.44,36.76c-.17-.7-.29-1.42-.27-2.15.01-.35.06-.7.15-1.04.05-.17.1-.33.18-.48.06-.13.13-.27.23-.38.28-.27.56.17.68.4.15.28.58.03.43-.25-.19-.37-.51-.76-.98-.72s-.69.44-.84.81c-.34.79-.41,1.66-.32,2.51.05.49.14.97.26,1.44.08.31.56.18.48-.13h0Z"/>
        <path class="cls-1" d="M57.16,35.02c.21-.05.42-.09.64-.12.02,0,.05,0,.07-.01-.05,0,.04,0,.04,0,.05,0,.11-.01.16-.02.11-.01.22-.02.32-.02.22-.01.43-.01.65,0,.11,0,.22.01.32.02.05,0,.1,0,.15.02.02,0,.05,0,.07,0,.02,0,.03,0,.05,0-.03,0-.02,0,0,0,.07,0,.13.01.19-.03.05-.03.1-.09.11-.15.03-.12-.04-.29-.17-.31-.92-.13-1.85-.09-2.76.13-.13.03-.22.18-.17.31.04.13.17.21.31.17h0Z"/>
        <path class="cls-1" d="M62.45,33.24c.48-.27.96-.46,1.51-.58.28-.06.5-.09.78-.11s.57,0,.84-.11c.12-.05.22-.17.17-.31-.04-.12-.18-.23-.31-.17-.26.1-.51.08-.79.1s-.58.06-.86.12c-.56.12-1.1.34-1.6.62-.11.06-.16.23-.09.34s.22.16.34.09h0Z"/>
        <path class="cls-1" d="M63.95,30.98c-.11,1-.19,2-.22,3-.01.49-.02.98-.01,1.48,0,.23,0,.47.02.7.02.2.08.4.24.53.08.06.21.11.3.04.17-.13.24-.29.21-.51-.02-.13-.19-.21-.31-.17-.14.04-.2.17-.17.31,0-.02,0-.04.02-.06l.3.04c-.11-.09-.1-.24-.11-.38,0-.24-.01-.47-.01-.71,0-.47,0-.95.02-1.42.03-.95.1-1.89.21-2.83.02-.13-.13-.25-.25-.25-.15,0-.23.12-.25.25h0Z"/>
        <path class="cls-1" d="M65.95,32.97c-.2,1.28-.07,2.61.43,3.82.05.12.14.2.27.18.12-.02.23-.12.22-.25-.04-.55-.08-1.14,0-1.68.04-.26.11-.54.22-.78.1-.22.23-.43.42-.55.06-.04.11-.06.15-.08.03,0,.06-.02.09-.02,0,0,.04,0,.02,0-.02,0,.03,0,.03,0,.08,0,.09,0,.16.02.01,0,.03,0,.04.01.02,0,.02,0,0,0h.02s.02.02.03.03c0,0,.05.03.02.02.1.09.25.1.35,0,.09-.09.1-.27,0-.35-.25-.21-.59-.27-.9-.18s-.56.32-.73.59c-.36.55-.46,1.23-.48,1.87,0,.37.01.74.04,1.1l.49-.07c-.46-1.12-.62-2.36-.43-3.55.02-.13-.03-.27-.17-.31-.12-.03-.29.04-.31.17h0Z"/>
        <path class="cls-1" d="M68.72,36.01c-.15.13-.08.37.09.44s.34-.03.38-.2c.02-.09.02-.19.02-.28,0-.08.01-.17.02-.25s.02-.17.03-.25c0-.02,0-.05,0-.07,0,0,0,.05,0,.02,0,0,0-.02,0-.03,0-.04.01-.09.02-.13.03-.16.06-.33.09-.49.04-.19.09-.37.14-.55.04-.13-.04-.28-.17-.31s-.27.04-.31.17c-.1.34-.17.68-.23,1.03-.03.19-.05.37-.07.56,0,.09-.02.17-.02.26,0,.05,0,.09,0,.14,0,.02,0,.04,0,.06,0,.03,0,.03,0-.02.02-.04.03-.05.01-.03l.09-.09.04-.02h.13l.09.05.06.11h0v.12h0s-.04.07-.06.1h0c.1-.09.09-.27,0-.36-.11-.1-.25-.09-.35,0h0Z"/>
        <path class="cls-1" d="M69.36,32.39l-.08.08h.35s0,0,0,0l.04.05s0,0,0,0l.03.06s0,0,0-.01v.07s0,0,0-.01v.07s0-.01,0-.02l-.03.06s0,0,0-.01l-.04.05s0,0,0,0l-.05.04s0,0,.01,0l-.06.03s0,0,0,0h-.07s0,0,.01,0h-.07s0,0,0,0c.03.01.07.01.1,0,.03,0,.06-.01.09-.03.03-.02.05-.04.07-.06.02-.02.04-.05.04-.09v-.07s0-.09-.03-.13l-.04-.05s-.07-.05-.11-.06c-.06,0-.09-.02-.15,0-.03,0-.05.02-.07.03,0,0,0,0,0,0-.02.01-.04.03-.05.04,0,0,0,0,0,0-.01.01-.03.04-.04.05,0,0,0,0,0,0,0,0,0,0,0,0-.02.05-.04.1-.04.16,0,.02,0,.05,0,.07,0,0,0,0,0,0,0,0,0,0,0,0,0,.01.02.05.03.06,0,0,0,0,0,0,0,.01.03.04.04.05,0,0,0,0,0,0,.02.02.05.04.08.05.03.02.06.02.1.02h.07s.08-.04.11-.07l.08-.08s.04-.05.05-.08c.02-.03.02-.06.02-.1,0-.03,0-.07-.02-.1-.01-.03-.03-.06-.05-.08l-.05-.04s-.08-.03-.13-.03h-.07s-.08.04-.11.07h0Z"/>
        <path class="cls-1" d="M70.59,32.84c-.5.6-.58,1.53-.1,2.17.25.33.67.54,1.07.35.38-.18.54-.62.5-1.02-.06-.5-.32-.97-.65-1.35l-.3.39c.38.18.53.61.63.99.14.49.2,1,.18,1.52-.03.86-.32,1.81-1.09,2.3-.39.25-.86.36-1.32.23-.31-.09-.44.39-.13.48,1.03.29,2.07-.32,2.57-1.21.56-.99.58-2.25.31-3.33-.14-.54-.37-1.15-.9-1.41-.26-.13-.49.17-.3.39.24.28.46.65.5,1.02.03.25-.11.69-.45.53-.28-.13-.42-.51-.45-.8-.02-.33.06-.66.27-.92.09-.1.1-.25,0-.35-.09-.09-.27-.1-.35,0h0Z"/>
        <path class="cls-1" d="M36.6,45.55c-.32-.97-.42-2-.32-3.02.05-.49.15-.98.3-1.46.14-.44.31-.93.61-1.3.12-.15.29-.31.49-.28.16.02.31.15.33.32.01.13.11.25.25.25.13,0,.26-.11.25-.25-.05-.51-.5-.9-1.03-.8-.55.1-.87.67-1.07,1.13-.49,1.1-.71,2.32-.65,3.53.03.68.15,1.37.37,2.02.1.3.58.17.48-.13h0Z"/>
        <path class="cls-1" d="M35.1,43.1c.22-.1.48-.19.73-.27s.51-.14.77-.18c.49-.09,1.04-.11,1.56-.07.13,0,.26-.12.25-.25,0-.14-.11-.24-.25-.25-1.14-.08-2.28.13-3.31.59-.12.05-.16.24-.09.34.08.12.21.15.34.09h0Z"/>
        <path class="cls-1" d="M39.35,42.82c-.19.41-.28.85-.25,1.3.01.22.05.45.12.66s.15.41.28.59c.14.19.31.35.54.43.21.07.47.05.65-.07.21-.14.31-.37.4-.6.08-.2.13-.41.17-.63.09-.51.09-1.03.09-1.55,0-.13-.11-.26-.25-.25s-.25.11-.25.25c0,.4,0,.81-.04,1.21,0,.02,0,.05,0,.07,0,.01,0,.02,0,.03,0-.01,0-.05,0,0s-.02.1-.02.15c-.02.1-.04.19-.06.29s-.06.2-.09.29c0,.02-.02.04-.02.06,0,0-.02.04,0,.01s0,.01,0,.01c-.02.04-.04.09-.06.13-.01.02-.02.03-.03.05.02-.04,0,0-.01.01,0,0-.03.03-.03.03,0,0,.04-.03.01-.01,0,0-.05.03-.05.03,0,0,.05-.02.02,0,0,0-.02,0-.03,0,0,0-.07.02-.04.01.03-.01-.02,0-.03,0-.02,0-.04,0-.06,0-.05,0,.05.01-.02,0-.02,0-.04,0-.05-.01,0,0-.06-.03-.03-.01s-.03-.02-.04-.02c-.02-.01-.04-.03-.06-.04-.02-.02,0,0,.01,0,0,0-.02-.01-.02-.02-.03-.03-.07-.06-.1-.1,0,0-.01-.02-.02-.02,0,0,.02.03,0,.01-.01-.02-.02-.03-.03-.05-.03-.04-.05-.08-.07-.12-.02-.04-.04-.07-.05-.11,0-.01-.03-.07-.01-.03,0-.02-.02-.05-.03-.07-.03-.09-.06-.18-.08-.27-.01-.05-.02-.09-.03-.14,0-.02,0-.04-.01-.06,0,0,0-.04,0,0,0,.03,0-.03,0-.03-.01-.1-.02-.21-.01-.31,0-.05,0-.11,0-.16,0-.03,0-.05,0-.08,0-.01,0-.02,0-.03,0,.02,0,.03,0,0,.02-.11.04-.21.07-.32.01-.05.03-.1.05-.14,0-.03.02-.05.03-.08,0,0-.02.04,0,.01,0-.02.01-.03.02-.05.05-.12.04-.27-.09-.34-.11-.06-.28-.04-.34.09h0Z"/>
        <path class="cls-1" d="M41.9,42.36l.42,3.21c.03.2.19.3.38.22.23-.1.26-.37.28-.59.02-.23.05-.47.08-.7.06-.46.15-.93.3-1.37.03-.1.06-.17.1-.25.04-.09.09-.18.15-.26.05-.07.08-.11.15-.18s.11-.11.21-.15c.03-.01.03-.02.06-.02.05-.01.04,0,.02,0-.03,0,.06,0,0,0h.02s-.02,0,0,.02c.04.05.08.12.12.21.08.19.15.39.2.6.12.48.13.99.04,1.47-.03.13.04.27.17.31.12.03.28-.04.31-.17.1-.51.1-1.04,0-1.55-.05-.24-.11-.47-.2-.7s-.18-.47-.4-.6c-.48-.29-1,.27-1.21.65-.24.42-.36.91-.45,1.38-.05.3-.09.6-.13.9-.02.15-.03.3-.05.45,0,.02,0,.05,0,.07,0-.05-.01.04-.01.05v.02s0-.02,0,0c.02-.02.02-.02,0,0,.02-.02.02-.02,0,0l.38.22-.42-3.21c-.02-.13-.1-.25-.25-.25-.12,0-.27.12-.25.25h0Z"/>
        <path class="cls-1" d="M47.37,41.72v-.15c0-.22-.27-.33-.43-.18-.53.52-.93,1.16-1.17,1.86-.12.35-.21.73-.14,1.1s.35.68.7.82c.43.17.9.1,1.32-.02.31-.09.18-.57-.13-.48-.17.05-.34.09-.5.1-.18.01-.29,0-.44-.04-.25-.08-.41-.24-.47-.51,0,0,0-.05,0-.01,0-.02,0-.04,0-.05,0-.04,0-.07,0-.11s0-.07,0-.11c0,0,0-.05,0-.02,0-.02,0-.05.01-.07.03-.15.07-.3.12-.45.1-.29.23-.55.39-.83.19-.31.4-.57.66-.83l-.43-.18v.15c0,.14.11.25.25.25s.25-.11.25-.25h0Z"/>
        <path class="cls-1" d="M49.01,42.39c.43-.17.88-.29,1.34-.36.06,0-.02,0,.03,0,.03,0,.07,0,.1-.01.05,0,.11-.01.16-.02.11,0,.23-.01.34-.02.24,0,.47,0,.71.03.13.01.26-.12.25-.25,0-.15-.11-.24-.25-.25-.95-.09-1.93.04-2.83.39-.12.05-.22.17-.17.31.04.12.18.23.31.17h0Z"/>
        <path class="cls-1" d="M50.01,40.73c-.18.85-.33,1.72-.44,2.58-.06.43-.1.85-.14,1.28-.03.35-.06.75.23,1.01.24.22.59-.14.35-.35-.09-.09-.1-.2-.1-.32,0-.17.02-.34.04-.52.04-.39.08-.78.14-1.17.11-.8.25-1.59.42-2.38.03-.13-.04-.27-.17-.31-.12-.03-.28.04-.31.17h0Z"/>
        <path class="cls-1" d="M52.61,45.29c0-.17.02-.34.04-.5,0-.02,0-.04,0-.06,0,0,.01-.08,0-.04s0-.03,0-.04c0-.02,0-.04,0-.06.01-.08.03-.17.04-.25.06-.33.15-.65.27-.96.04-.12-.05-.28-.17-.31-.14-.03-.26.04-.31.17-.24.66-.37,1.35-.39,2.04,0,.13.12.26.25.25.14,0,.25-.11.25-.25h0Z"/>
        <path class="cls-1" d="M52.79,41.65l-.22.31.46.06s-.01-.04-.01-.06v.07s0-.05,0-.08v.07s0-.05.01-.08l-.03.06s.02-.05.04-.07l-.04.05s.02-.03.03-.04c.02-.02.04-.05.05-.08.02-.03.02-.06.02-.1,0-.03,0-.07-.02-.1-.01-.03-.03-.06-.05-.08l-.05-.04s-.08-.03-.13-.03h-.07s-.08.04-.11.07c-.01.01-.02.02-.03.03-.02.03-.04.05-.06.08s-.03.07-.04.1c0,.01,0,.03-.01.04,0,.03-.01.07-.02.11,0,.02,0,.03,0,.05,0,.04,0,.07.01.11,0,.02,0,.03.01.04l.03.06.04.05.05.04s.06.03.09.03c.02,0,.04,0,.07,0,.02,0,.04,0,.06-.02.02,0,.04-.02.06-.03.03-.02.05-.04.06-.07l.22-.31s.03-.06.03-.09c0-.03,0-.07,0-.1,0-.03-.02-.06-.04-.09-.02-.03-.04-.05-.07-.06l-.06-.03s-.09-.01-.13,0l-.06.03s-.07.05-.09.09h0Z"/>
        <path class="cls-1" d="M55.03,44.57s-.03-.05-.04-.08c0-.01-.04-.09-.02-.04-.02-.06-.05-.12-.06-.18-.02-.06-.03-.11-.04-.17,0-.03-.01-.06-.02-.08,0-.01,0-.05,0,0,0-.02,0-.04,0-.05-.01-.12-.01-.24,0-.36,0-.03,0-.06,0-.09,0-.05,0,0,0,0,0-.01,0-.03,0-.04.01-.06.02-.13.04-.19.01-.06.03-.11.05-.17,0-.03.02-.05.03-.08,0,0,.02-.04,0,0,0-.02.01-.03.02-.05.05-.11.11-.21.18-.31,0-.01.02-.02.03-.03-.03.04,0,0,0,0,.02-.02.04-.05.06-.07.05-.05.1-.1.15-.14,0,0,.04-.03,0,0,.01,0,.02-.02.04-.03.03-.02.05-.03.08-.05s.05-.03.08-.04c.01,0,.03-.01.04-.02.04-.02-.01,0,.01,0,.06-.02.11-.03.17-.05.04,0-.04,0,0,0,.01,0,.03,0,.04,0,.03,0,.07,0,.1,0-.05,0-.01,0,0,0,.01,0,.03,0,.04,0,.03,0,.06.02.08.03-.04-.01-.01,0,0,0,.01,0,.03.01.04.02.03.02.06.04.09.06,0,0,.03.03,0,0,.01,0,.02.02.03.03.02.02.04.04.06.06.01.01.02.02.03.03,0,0,.03.04,0,0,.02.03.04.05.06.08s.03.06.05.08c0,.02.02.03.02.05.02.04-.01-.03,0,.01.03.07.05.14.07.21.02.07.03.13.04.2,0-.04,0,0,0,0,0,.02,0,.03,0,.05,0,.04,0,.08,0,.12,0,.13,0,.26,0,.39,0,.02,0,.03,0,.05,0,.04,0-.04,0,0,0,.03-.01.06-.02.09-.01.06-.03.13-.05.19,0,.03-.02.06-.03.09,0,.01-.01.03-.02.04.02-.04,0,0,0,0-.03.06-.06.12-.1.18-.02.03-.04.06-.06.09-.02.03.02-.03,0,0-.01.01-.02.03-.03.04-.02.03-.05.05-.07.07,0,0-.02.02-.03.03,0,0-.05.04-.02.02.02-.02,0,0-.02.01-.01,0-.03.02-.04.03-.03.02-.06.04-.09.05-.03.01-.06.03-.08.04-.03.02.04-.01,0,0-.02,0-.03.01-.05.02-.06.02-.12.03-.19.05-.04,0,.04,0,0,0-.02,0-.03,0-.05,0-.03,0-.07,0-.1,0-.01,0-.03,0-.04,0-.05,0,.03,0,0,0s-.06-.01-.09-.02c-.03,0-.06-.02-.09-.03,0,0,.05.02,0,0-.02,0-.04-.02-.05-.03-.11-.06-.28-.03-.34.09s-.03.27.09.34c.52.3,1.21.12,1.6-.31.44-.48.53-1.18.45-1.81-.05-.33-.16-.64-.38-.9s-.53-.39-.86-.37c-.65.05-1.12.6-1.35,1.17-.24.61-.2,1.33.11,1.91.06.12.23.16.34.09.12-.08.16-.22.09-.34h0Z"/>
        <path class="cls-1" d="M57.75,42.21l.19,2.52c0,.13.11.26.25.25s.24-.11.25-.25c0-.06.01-.11.02-.17,0-.02,0-.04,0-.06.01-.09,0,.05,0-.04.01-.1.03-.2.05-.3.03-.2.08-.4.12-.6.09-.39.21-.78.36-1.16.04-.1.05-.15.09-.21.02-.04.04-.07.06-.1.04-.06-.03.02.02-.03.02-.02.03-.03.05-.05-.04.03.02,0,.03-.01.05-.03-.02,0,.01,0,.01,0,.06,0,.01,0,0,0,.08,0,.02,0,.04,0,.02,0,0,0,.01,0,.05.04.01,0,.01.01.03.03.04.04-.03-.03,0,0,0,.01.01.02.02.04.03.05-.02-.04,0-.01,0,0,.01.04.03.08.04.12.02.1.04.19.06.29.03.19.05.37.06.58.02.47-.01.9-.11,1.34-.03.13.04.28.17.31.13.03.28-.04.31-.17.1-.46.15-.94.13-1.41,0-.24-.03-.48-.07-.71-.03-.21-.07-.43-.17-.62-.11-.2-.31-.34-.54-.32-.25.02-.45.19-.57.4-.11.2-.18.43-.26.65s-.14.43-.2.64c-.14.51-.23,1.03-.28,1.55h.5l-.19-2.52c0-.13-.11-.26-.25-.25-.13,0-.26.11-.25.25h0Z"/>
        <path class="cls-1" d="M62.74,41.14c-.48.05-.93.24-1.3.55-.18.15-.33.32-.46.52-.14.22-.31.52-.14.78s.5.26.76.31c.13.03.27.06.4.09.03,0,.05.01.08.02.02,0,.04.01.05.02.03,0,.01,0,0,0,.03.01.05.02.07.04.01,0,.02.01.04.02.04.02-.02-.02,0,0,.02.01.03.03.05.05.02.02,0,0,0,0,0,.01.02.02.02.04.01.02.02.04.03.06-.02-.04,0,.02,0,.03,0,.02.01.04.01.06,0,.03,0,0,0-.01,0,.01,0,.03,0,.04,0,.02,0,.04,0,.07,0,.01,0,.08,0,.06,0-.02,0,.03-.01.04,0,.02-.01.04-.02.07,0,.01-.03.08-.01.04-.01.02-.02.05-.04.07-.01.02-.02.04-.04.06-.02.02,0,0,0,0,0,.01-.02.02-.03.03-.04.05-.08.09-.13.13-.02.02,0,0,0,0-.01.01-.03.02-.04.03-.03.02-.05.03-.08.05-.03.02-.06.03-.09.05-.01,0-.07.03-.05.02-.12.05-.25.08-.37.11-.14.03-.23.05-.37.05s-.23-.01-.33-.07c-.12-.07-.27-.03-.34.09s-.03.28.09.34c.26.15.55.15.84.11.25-.03.49-.1.71-.2.45-.19.81-.6.8-1.11,0-.23-.08-.47-.25-.63-.2-.2-.48-.25-.75-.31-.14-.03-.28-.06-.42-.09-.06-.01-.12-.02-.18-.04-.01,0-.02,0-.03-.01.02,0,.01,0,0,0-.01-.03,0,.01,0,0,0,0,0,.02.01.03,0,0,0,.02,0,.02,0,0,.01-.04.01-.04,0-.01,0-.02.02-.05.03-.05.06-.1.09-.15.03-.04.05-.08.08-.13,0,0,.03-.05.02-.03-.01.02.01-.01.01-.01.02-.02.04-.05.06-.07.08-.09.18-.18.28-.26.02-.02,0,0,0,0,.01-.01.03-.02.04-.03.02-.02.05-.03.07-.05.05-.03.11-.07.16-.1.12-.07.18-.09.31-.13.06-.02.11-.03.17-.04.03,0,.07-.01.1-.02,0,0,.04,0,.02,0s.04,0,.04,0c.13-.01.25-.1.25-.25,0-.12-.11-.26-.25-.25h0Z"/>
      </g>
      <g>
        <path class="cls-3" d="M17.12,46.72c-.34-.24-.76-.4-1.18-.39s-.83.19-1.17.46c-.3.24-.54.56-.69.91-.11.27-.17.6-.02.87.16.28.51.34.81.35.33.02.66-.02.99.01.02,0,.04,0,.06,0,.08,0-.03,0,.02,0,.03,0,.07.01.1.02.04,0,.07.02.11.03.02,0,.04.01.06.02.05.02-.03-.02.02,0,.03.02.06.03.09.05,0,0,.04.03,0,0,.01.01.03.02.04.03.05.04.07.07.1.15.14.34-.01.8-.25,1.05-.37.39-.94.54-1.46.58s-1.03-.03-1.52-.21c-.13-.05-.27.05-.31.17-.04.14.05.26.17.31.92.33,2.04.35,2.92-.1.43-.22.77-.57.91-1.03.13-.42.11-.94-.22-1.26-.5-.49-1.3-.29-1.93-.34-.02,0-.11-.01-.05,0-.03,0-.06-.01-.1-.02-.03,0-.06-.02-.09-.03-.04-.01,0,0,.01,0-.02,0-.03-.02-.05-.03s-.04-.04,0,0c0,0-.03-.02-.03-.03,0,0-.04-.07,0,0,0,0-.01-.02-.02-.03-.03-.06,0,.04-.01-.02,0-.01,0-.03,0-.04,0,0,0,.05,0,0,0-.03,0-.06,0-.09,0-.01,0-.03,0-.04,0,.06,0,.01,0,0,.02-.07.04-.14.06-.21,0-.01.01-.03.02-.04-.02.05.01-.02.01-.03.02-.04.04-.07.06-.11.04-.07.09-.15.14-.22.09-.12.27-.3.4-.39.17-.12.33-.2.53-.25.22-.05.47-.04.71.04.16.05.32.14.47.25.11.08.28.02.34-.09.07-.13.02-.26-.09-.34h0Z"/>
        <path class="cls-3" d="M17.29,52.09c0-.16.02-.33.04-.49,0-.03,0,.01,0,.01,0-.01,0-.02,0-.03,0-.03,0-.05.01-.08,0-.05.02-.1.03-.15.02-.11.05-.21.07-.32s.06-.22.1-.33c.02-.06.04-.11.06-.17,0-.02.02-.05.03-.07,0-.02.01-.03.02-.05.02-.04-.01.03,0-.01.08-.19.18-.38.28-.56.1-.16.2-.32.32-.47.08-.1.02-.28-.09-.34-.13-.07-.26-.02-.34.09-.51.68-.86,1.49-.98,2.33-.03.21-.05.42-.06.63,0,.13.12.26.25.25.14,0,.25-.11.25-.25h0Z"/>
        <path class="cls-3" d="M18.56,50.09c-.11.75-.22,1.51-.35,2.26,0,.02,0,.04-.01.06,0,0,0,.01,0,.02,0,0,0,0,0,0,0-.02.04-.09.06-.11l.11-.06h0c.08.02.16.04.24.06.01.01.09.13.07.17,0,0,0,0,0-.01,0-.01,0-.03,0-.04,0-.04,0-.09,0-.13,0-.06,0-.13.01-.19,0-.04,0-.07.01-.11,0-.02,0-.04,0-.06,0-.02.02-.05,0,.02,0-.01,0-.02,0-.04.03-.19.07-.38.12-.57.03-.1.06-.2.1-.29,0-.01.02-.04,0,.01,0-.01,0-.02.01-.03.01-.02.02-.05.03-.07.02-.05.05-.1.08-.15.02-.04.05-.09.08-.13.01-.02.03-.04.05-.06,0-.01.03-.04,0,0,.01-.01.02-.03.03-.04.07-.08.14-.15.22-.22-.05.04.01,0,.03-.02.02-.01.04-.03.06-.04.03-.02.07-.04.1-.06.02-.01.05-.02.07-.04.01,0,.02-.01.03-.02.03-.02-.06.02,0,0,.03,0,.05-.02.08-.02.01,0,.03,0,.04,0,.03,0,.05,0,.01,0,.01,0,.03,0,.04,0,0,0,.06.01.02,0-.04-.01.02,0,.02,0,0,0-.05-.03,0,0,.05.03-.03-.04,0,0,0,.01.02.03.04.04-.04-.03-.03-.05-.02-.02,0,0,0,.01.01.02,0,0,0,.02.01.03.02.03-.02,0-.01-.03,0,0,.03.1.03.11,0,.01,0,.02,0,.04,0,.03,0,.03,0-.01,0,.02,0,.04,0,.06,0,.05,0,.11,0,.16s0,.11,0,.16c0,.03,0,.06,0,.09,0,.01,0,.03,0,.04,0,0,0,.07,0,.04,0-.04,0,.03,0,.03,0,.02,0,.04,0,.06,0,.04-.01.08-.02.12-.02.08-.03.17-.05.25-.04.17-.08.34-.13.51-.1.37-.22.74-.34,1.11-.04.12.05.28.17.31.14.03.26-.04.31-.17.17-.51.33-1.03.45-1.56.09-.42.19-.87.12-1.3-.02-.15-.08-.31-.18-.42-.16-.17-.41-.19-.62-.13-.37.1-.68.36-.9.66-.39.52-.54,1.2-.58,1.83,0,.08,0,.16,0,.24,0,.02,0,.03,0,.05.02.17.17.31.35.23.14-.06.15-.18.17-.31.1-.59.19-1.19.28-1.78.02-.14.04-.28.06-.42.02-.13-.03-.28-.17-.31-.12-.03-.29.04-.31.17h0Z"/>
        <path class="cls-3" d="M23.26,48.2c-.95.36-1.76,1.06-2.17,2-.37.86-.41,1.84-.16,2.73.14.5.37.97.68,1.39.08.11.22.16.34.09.11-.06.17-.23.09-.34-.23-.31-.43-.66-.56-1.03-.08-.24-.14-.49-.18-.74,0-.01,0-.02,0-.03,0-.03,0,.05,0,.01,0-.03,0-.06-.01-.1,0-.08-.01-.16-.02-.24-.04-1,.32-1.97,1.07-2.64.18-.16.38-.3.6-.42.09-.05.18-.1.27-.14.02,0,.03-.01.05-.02.04-.02,0,0,.02,0,.04-.01.07-.03.11-.04.13-.05.21-.17.17-.31-.03-.12-.18-.22-.31-.17h0Z"/>
        <path class="cls-3" d="M24.47,49.75c-.51.47-.97,1.01-1.35,1.6-.36.55-.82,1.29-.54,1.97.2.48.77.66,1.26.53.24-.06.45-.2.59-.4.16-.22.19-.53.1-.78-.21-.59-.96-.99-1.54-.65-.12.07-.16.22-.09.34s.23.16.34.09c.02-.01.05-.03.07-.04-.04.02,0,0,.02,0,.02,0,.05-.01.08-.02.03,0-.02,0-.02,0,.02,0,.03,0,.05,0,.03,0,.05,0,.08,0,.03,0-.01,0-.02,0,.01,0,.03,0,.04,0,.05.01.1.03.15.04-.05-.02.02,0,.03.02.02.01.04.02.06.04,0,0,.07.05.05.03-.02-.02,0,0,0,0,.02.01.03.03.05.04.03.03.07.07.09.1-.04-.04,0,.02.02.03.01.02.03.04.04.07,0,.01.01.02.02.04-.02-.05,0-.02,0,0,0,.02.02.05.02.07,0,0,0,.02,0,.03.01.03,0-.04,0,0,0,.03,0,.06,0,.09,0,.01,0,.03,0,.04,0,0,.01-.04,0-.02,0,.03-.01.05-.02.08s-.02.06,0,.01c-.01.02-.02.05-.04.07-.01.02-.02.03-.03.05.04-.06,0,0-.01.01-.01.01-.03.03-.04.04,0,0-.04.03,0,0,.03-.02,0,0-.02,0-.04.02-.07.04-.11.06-.02.01.02,0,.02,0-.01,0-.02,0-.03.01-.02,0-.05.02-.07.02-.02,0-.04.01-.06.01-.03,0-.08,0-.02,0-.05,0-.09,0-.14,0-.02,0-.05,0-.07,0-.05,0,.05.01-.01,0-.04,0-.09-.02-.13-.03-.01,0-.02,0-.03-.01-.03-.01.04.02.01,0-.02-.01-.04-.02-.05-.03-.02-.01-.04-.02-.06-.04,0,0-.03-.02,0,0,.03.02,0,0-.01-.01-.02-.02-.03-.03-.05-.05,0,0-.01-.02-.02-.03,0,0,.03.04.01.02-.01-.02-.03-.04-.04-.06-.01-.03-.02-.03-.02-.04-.01-.03-.02-.07-.03-.1,0-.01,0-.03,0-.04,0,.03,0,0,0-.01,0-.07,0-.14,0-.22,0,.03,0-.01,0-.02,0-.02,0-.04.01-.05,0-.03.02-.06.02-.1.01-.04.02-.07.03-.11,0-.01,0-.03.01-.04,0,0,.03-.07.02-.05.11-.27.28-.53.44-.77.36-.56.79-1.05,1.28-1.51.1-.09.09-.26,0-.35-.1-.1-.25-.09-.35,0h0Z"/>
        <path class="cls-3" d="M25.48,51.18c.07-.02.14-.03.21-.05.06-.01-.06,0,0,0,.02,0,.04,0,.06,0,.04,0,.09,0,.13,0,.07,0,.14,0,.21,0,.02,0,.04,0,.06,0,.06,0-.06-.01,0,0,.04,0,.09.02.13.02.06.02.13.03.19.06.01,0,.07.03,0,0,.02,0,.03.01.05.02.04.02.07.04.11.06.02.01.07.03.08.06-.03-.04-.02-.01,0,0,0,0,.02.01.02.02.02.02.05.05.07.07.04.04-.03-.05,0,0,.01.02.02.04.04.05,0,.01.02.03.02.04h0s0,.03,0,0c.02.01.03.07.03.1,0,.03.01.06.02.09,0-.07,0,0,0,.02,0,.03,0,.06,0,.09,0,.01-.01.08,0,.02,0,.02,0,.04-.01.06-.01.04-.02.08-.04.12.02-.05,0,.01-.01.02,0,.01-.01.03-.02.04-.03.04-.05.09-.08.13.03-.04-.01.02-.02.02-.01.02-.03.03-.04.05-.03.03-.06.07-.1.1s-.07.06-.11.09c-.04.03-.01,0,0,0-.02.02-.05.04-.08.05-.15.11-.32.19-.49.27-.39.19-.81.38-1.09.73-.06.07-.09.15-.06.24.02.08.09.16.17.17.71.16,1.43.25,2.16.25.13,0,.26-.12.25-.25s-.11-.25-.25-.25c-.7,0-1.35-.08-2.03-.23l.11.42c.06-.08.13-.15.21-.21,0,0,.05-.04.02-.02.02-.02.04-.03.07-.05.04-.03.08-.06.13-.08.18-.11.37-.2.56-.29.39-.19.75-.41,1.02-.76s.32-.79.13-1.17c-.15-.31-.47-.51-.79-.61-.38-.12-.8-.11-1.18,0-.13.04-.22.18-.17.31s.17.21.31.17h0Z"/>
        <path class="cls-3" d="M28.71,50.54c-.05.02-.11.04-.15.07s-.09.06-.14.1c-.07.06-.13.13-.19.21-.1.15-.16.33-.18.51,0,.08,0,.17.03.26.03.1.08.18.14.26.1.13.25.21.4.26.08.03.17.04.25.05.07,0,.14,0,.2,0,.17-.02.34-.06.48-.16.09-.06.16-.13.22-.22.05-.08.09-.16.11-.25s.04-.19.03-.28-.02-.19-.05-.28c-.07-.2-.21-.39-.41-.49s-.42-.12-.64-.07c-.04,0-.07.02-.11.03-.06.02-.11.05-.15.11-.03.05-.04.13-.03.19s.06.12.11.15.13.05.19.03c.05-.02.11-.04.17-.04h-.07c.06,0,.13,0,.19,0h-.07c.06,0,.11.01.17.04l-.06-.03s.09.04.13.08l-.05-.04s.08.07.11.11l-.04-.05s.06.09.08.14l-.03-.06c.02.06.04.12.05.18v-.07c0,.07,0,.13,0,.2v-.07c0,.06-.02.12-.04.18l.03-.06s-.05.09-.08.13l.04-.05s-.06.07-.1.1l.05-.04s-.09.06-.14.08l.06-.03c-.06.03-.13.04-.19.05h.07c-.08,0-.16,0-.24,0h.07c-.08,0-.15-.02-.23-.05l.06.03c-.05-.02-.11-.05-.15-.09l.05.04s-.07-.06-.1-.1l.04.05s-.04-.06-.06-.1l.03.06s-.03-.08-.03-.12v.07c0-.05,0-.11,0-.16v.07c0-.07.02-.13.04-.19l-.03.06c.03-.07.06-.13.11-.18l-.04.05c.04-.05.09-.1.14-.14l-.05.04s.1-.07.15-.09l-.06.03h0c.06-.03.11-.06.15-.12.03-.05.04-.13.03-.19s-.06-.12-.11-.15-.13-.05-.19-.03Z"/>
        <path class="cls-3" d="M28.06,52.85l1.13-.04c.07,0,.13-.03.18-.07.04-.04.08-.11.07-.18s-.02-.13-.07-.18-.11-.08-.18-.07l-1.13.04c-.07,0-.13.03-.18.07-.04.04-.08.11-.07.18s.02.13.07.18.11.08.18.07h0Z"/>
        <path class="cls-3" d="M30.59,50.59c.33,1.03.68,2.09.64,3.19-.03.82-.34,1.65-.95,2.22-.32.3-.72.49-1.15.55-.13.02-.21.19-.17.31.04.14.17.19.31.17.89-.12,1.62-.77,2.03-1.54.51-.95.52-2.04.33-3.08-.12-.66-.33-1.31-.54-1.95-.1-.3-.58-.17-.48.13h0Z"/>
      </g>
      <g>
        <path class="cls-3" d="M67.38,52.97c-.78.48-1.29,1.35-1.33,2.26,0,.24.01.5.1.73s.24.43.44.58c.36.25.84.3,1.26.2.56-.13,1.02-.5,1.45-.85.1-.09.09-.27,0-.35-.1-.1-.25-.09-.35,0-.31.25-.67.54-1.04.67-.09.03-.18.05-.27.07-.07.02.05,0-.02,0-.02,0-.05,0-.07,0-.05,0-.1,0-.15,0-.04,0-.08,0-.13,0,.06,0-.02,0-.02,0-.02,0-.04,0-.07-.01-.04,0-.07-.02-.11-.03-.02,0-.04-.01-.06-.02.05.02-.03-.02-.04-.02-.03-.02-.06-.04-.1-.06,0,0-.06-.05-.02-.01-.02-.01-.03-.03-.05-.04-.03-.03-.06-.06-.09-.1.03.03,0,0,0,0-.02-.03-.04-.06-.05-.09-.08-.16-.11-.35-.11-.54,0-.1,0-.19.02-.28,0-.08,0,.03,0-.02,0-.02,0-.04.01-.06.01-.06.02-.11.04-.17.05-.2.1-.34.19-.5.05-.1.11-.19.17-.28.06-.09.09-.13.18-.22.16-.18.29-.28.48-.4.12-.07.16-.22.09-.34s-.23-.16-.34-.09h0Z"/>
        <path class="cls-3" d="M69.38,54.12s0-.04,0-.06c0-.01,0-.03,0-.04,0,0-.01.07,0,.03,0-.05.02-.09.03-.14,0-.02.01-.04.02-.06,0,0,0-.02,0-.02.02-.05-.03.06,0,.01.02-.04.04-.08.06-.12.01-.02.02-.04.04-.06,0-.01.02-.02.02-.03,0,0-.04.05-.01.02.03-.04.06-.07.1-.11.02-.01.03-.03.05-.04,0,0-.05.04-.02.02,0,0,.02-.01.03-.02.04-.03.08-.05.12-.07.05-.02-.06.02-.01,0,0,0,.02,0,.03,0,.02,0,.04-.01.06-.02s.05,0,.07-.01c-.06.02-.05,0-.03,0,.02,0,.04,0,.06,0,.02,0,.04,0,.06,0,.01,0,.09,0,.04,0s.02,0,.03,0c.03,0,.05.01.08.02.02,0,.04.02.06.02-.08-.03,0,0,.01,0,.04.02.08.05.13.08.02.01.02.03-.02-.01,0,0,.02.01.03.02.02.01.03.03.05.05.01.01.03.03.04.04,0,.01.02.02.03.03.01.02.03.05,0,0,.02.04.05.07.07.11.01.02.02.04.03.06,0,0,0,.02.01.02.02.04-.02-.06,0,0,.02.04.03.08.04.12,0,.02,0,.04.01.07,0,.05,0-.06,0-.01,0,.01,0,.03,0,.04,0,.05,0,.09,0,.14,0,0,0,.02,0,.03,0-.07,0-.03,0-.01,0,.02,0,.05-.02.07-.01.04-.03.08-.04.12.03-.08,0,0,0,.01-.01.02-.03.05-.04.07-.01.02-.02.04-.04.06,0,0-.01.01-.02.02-.03.04.04-.05,0,0-.03.03-.06.07-.09.1-.02.02-.03.03-.05.04-.01.01-.05.03,0,0,0,0-.01.01-.02.02-.04.03-.08.05-.12.08-.02.01-.04.02-.06.03.05-.03.04-.02.02-.01-.01,0-.02,0-.04.01-.04.01-.08.03-.12.03-.01,0-.03,0-.04,0,.07-.02.05,0,.03,0-.02,0-.04,0-.06,0s-.04,0-.06,0c-.01,0-.02,0-.03,0-.02,0,0,0,.03,0,0,0-.02,0-.03,0-.05,0-.09-.03-.14-.04.06.01.03.01.01,0-.01,0-.02-.01-.04-.02-.02-.01-.05-.03-.07-.04,0,0-.01-.01-.02-.02-.04-.03.05.04,0,0-.02-.02-.04-.03-.05-.05-.02-.02-.04-.04-.06-.06,0,0-.01-.01-.02-.02-.03-.03.04.05,0,0-.03-.04-.05-.08-.08-.13,0-.02-.04-.11-.01-.03,0-.02-.02-.05-.03-.07-.02-.05-.03-.1-.04-.15,0-.05,0,.05,0,.02,0-.02,0-.03,0-.05,0-.03,0-.05,0-.08,0-.13-.12-.26-.25-.25s-.25.11-.25.25c0,.51.3,1,.78,1.18.45.17.97-.04,1.26-.4.16-.2.27-.44.29-.7.02-.24-.04-.49-.16-.69-.25-.44-.76-.71-1.26-.59-.54.12-.9.67-.91,1.21,0,.13.12.26.25.25s.25-.11.25-.25Z"/>
        <path class="cls-3" d="M72.14,51.44c-.42.07-.82.27-1.08.62-.1.14-.17.31-.17.48,0,.22.09.44.23.61.15.18.38.27.61.23.07-.01.13-.04.19-.06,0,0,.12-.03.12-.03,0,0-.05,0-.02,0,.01,0,.02,0,.03,0,.03,0,.05,0,.08,0,.01,0,.02,0,.03,0,0,0,.01,0,.02,0,.03,0-.06-.01-.02,0,.05.01.1.02.15.03.01,0,.02,0,.03.01.04.01-.03-.02,0,0,.02.01.05.02.07.04.02,0,.03.02.05.03,0,0,.01,0,.02.02,0,0,.05.04.02.01-.02-.02,0,0,0,0,0,0,.02.02.03.03.02.02.03.03.05.05s.03.03.05.05c0,0,.01.02.02.02.02.02-.02-.03,0,0s.05.08.07.12c-.02-.04,0,0,0,.02,0,0,0,.02,0,.03.01.05,0-.03,0,0,0,.03,0,.05,0,.08,0,.03,0-.03,0-.03,0,0,0,.03,0,.04,0,0,0,.02,0,.03,0,.01-.02.03,0,0,.02-.03-.01.02-.02.03,0,0-.03.06-.04.06,0,0,.03-.04.01-.02,0,0-.02.02-.03.03-.02.02-.03.03-.05.05,0,0-.01.01-.02.02-.02.02.04-.03,0,0-.04.03-.08.05-.13.08-.01,0-.02.01-.03.02.02,0,.03-.01,0,0-.03,0-.05.02-.08.02-.03,0-.06.02-.09.02-.01,0-.02,0-.03,0,.04,0,.02,0,0,0-.06,0-.13,0-.19,0-.13-.01-.26.12-.25.25,0,.14.11.24.25.25.42.04.91-.15,1.12-.54.12-.22.12-.46.02-.69-.09-.2-.25-.37-.43-.49s-.39-.19-.6-.2c-.1,0-.21,0-.31.03-.07.02-.13.05-.2.07-.01,0-.04,0-.04.01,0,0,.07,0,.03,0,0,0-.01,0-.02,0-.05,0,.04.01,0,0,0,0-.03,0-.03,0,0,0,.05.03.01,0,0,0-.06-.04-.03-.02s-.02-.02-.03-.03c0,0-.05-.06-.03-.03.02.03,0,0,0-.01,0-.01-.02-.03-.03-.04,0-.02-.02-.03-.03-.05-.02-.04,0,0,0,0,0-.01,0-.02-.01-.04,0-.02-.01-.04-.02-.05,0,0,0-.03,0-.04,0,.01,0,.05,0,0,0-.02,0-.03,0-.05,0-.01,0-.07,0-.02,0,.04,0,0,0-.02,0-.02,0-.04.02-.05,0,0,0-.02.01-.03,0,0-.02.05,0,.02,0-.02.02-.04.03-.05s.02-.03.03-.05c0,0,.02-.02.02-.03,0,0-.04.05,0,0,.03-.03.06-.07.09-.1.02-.02.04-.03.05-.05.03-.02-.04.03,0,0,.01,0,.03-.02.04-.03.04-.03.09-.06.13-.08.02-.01.05-.02.07-.04.01,0,.03-.01.04-.02-.02,0-.03.01,0,0,.12-.05.24-.08.37-.1s.21-.19.17-.31c-.04-.14-.17-.2-.31-.17h0Z"/>
        <path class="cls-3" d="M72.84,48.61c-.15,1-.13,2.01.07,2.99.17.84.51,1.71,1.27,2.18.41.25.9.35,1.38.25.31-.07.18-.55-.13-.48-.71.16-1.35-.35-1.66-.94-.18-.34-.28-.71-.36-1.09-.09-.42-.14-.85-.15-1.28-.02-.5,0-1,.08-1.49.02-.13-.03-.27-.17-.31-.12-.03-.29.04-.31.17h0Z"/>
        <path class="cls-3" d="M74.25,49.08c.11.53.34,1.03.65,1.47.1.13.2.27.31.39.09.1.27.1.35,0,.1-.1.09-.25,0-.35-.04-.05-.08-.1-.13-.14-.02-.02-.04-.05-.06-.07,0,0,.03.04.02.02,0,0-.01-.02-.02-.02-.01-.01-.02-.03-.03-.04-.08-.1-.15-.21-.21-.32s-.12-.22-.17-.33c-.01-.03-.03-.06-.04-.09-.02-.04.02.05,0,0,0-.02-.01-.03-.02-.05-.02-.06-.05-.12-.07-.18-.05-.14-.09-.28-.12-.42-.03-.13-.18-.21-.31-.17-.13.04-.2.17-.17.31h0Z"/>
        <path class="cls-3" d="M75.37,48.58l.68,1.33c.06.12.23.16.34.09.12-.08.15-.22.09-.34l-.68-1.33c-.06-.12-.23-.16-.34-.09-.12.08-.15.22-.09.34h0Z"/>
        <path class="cls-3" d="M74.06,49.5c.24-.24.49-.46.75-.68.06-.05.13-.11.19-.16.03-.03.06-.05.09-.08.02-.01.03-.03.05-.04,0,0,.01-.01.02-.02.03-.02-.05.04,0,0,.13-.1.27-.2.4-.3.16-.11.32-.22.48-.32.11-.07.16-.23.09-.34-.07-.11-.22-.17-.34-.09-.59.38-1.15.8-1.67,1.27-.14.13-.29.26-.43.4-.09.09-.1.26,0,.35s.25.1.35,0h0Z"/>
        <path class="cls-3" d="M77.39,47.64c-.2,1.24-.23,2.49-.07,3.73.02.13.1.25.25.25.12,0,.27-.12.25-.25-.15-1.19-.14-2.41.06-3.6.02-.13-.03-.27-.17-.31-.12-.03-.29.04-.31.17h0Z"/>
        <path class="cls-3" d="M78.73,48.29c.07-.12.11-.17.2-.27.06-.06.06-.06.12-.1,0,0,.09-.04.04-.03.02,0,.04-.01.07-.02.03,0,.03,0,0,0,.02,0,.03,0,.05,0,.02,0,.03,0,.05,0-.03,0-.03,0,0,0,.02,0,.08.04.03,0,.02,0,.03.02.05.03.02.02.02.01,0,0,0,0,.02.02.03.03,0,0,.02.02.03.03-.02-.03-.02-.03,0,0,.01.02.03.04.04.07.02.04,0-.04,0,.02,0,.02.01.04.02.07,0,.01.01.1,0,.03,0,.05,0,.1,0,.15,0,.02,0,.01,0-.02,0,.01,0,.03,0,.04,0,.03-.01.05-.02.08-.01.03-.01.03,0,.01,0,.02-.01.03-.02.05-.01.03-.03.05-.04.08s-.03.05-.05.07c-.02.02-.02.03,0,0-.01.01-.02.03-.03.04-.04.05-.09.09-.13.14-.1.09-.2.17-.3.26-.1.08-.09.24-.02.33.08.1.21.13.32.06.02-.01.04-.02.06-.03.02-.01-.01,0-.01,0,0,0,.02,0,.03,0,.02,0,.04-.01.07-.02.02,0,.09-.01.03,0,.04,0,.08,0,.13,0,.02,0,.04,0,.06,0,.04,0-.04,0,0,0,.01,0,.03,0,.04,0,.04,0,.08.02.12.03,0,0,.02,0,.03.01.03,0-.04-.02,0,0,.02.01.04.02.06.03.04.02.08.05.12.07-.04-.02,0,0,.01,0,.02.02.04.04.06.05.01.01.03.03.04.04.03.03,0,0,0,0,0,0,.01.02.02.02.01.02.02.04.03.06,0,.01.03.07.02.04-.01-.03.01.03.01.04,0,.02,0,.04.01.06.01.05,0,0,0,0,0,.01,0,.02,0,.03,0,.03,0,.06,0,.08,0,0,0,.07,0,.04s0,.04-.01.05c0,.02-.01.04-.02.06,0,.01-.04.08-.01.04-.02.04-.04.08-.07.12,0,.01-.05.06-.02.03-.02.02-.04.04-.06.06-.02.02-.04.04-.05.05,0,0-.02.01-.02.02-.05.04.02-.02,0,0-.04.03-.09.06-.14.08-.01,0-.04.01,0,0-.01,0-.03,0-.04.01-.03,0-.05.01-.08.02,0,0-.04,0,0,0s-.01,0-.02,0c-.03,0-.06,0-.1,0-.13,0-.26.12-.25.25,0,.14.11.24.25.25.55.02,1.06-.43,1.14-.97.04-.29-.03-.56-.21-.8-.15-.19-.37-.33-.61-.4-.28-.08-.58-.05-.83.09l.3.39c.38-.3.79-.68.77-1.21-.01-.23-.1-.48-.27-.63-.2-.17-.48-.23-.73-.14-.29.11-.5.35-.66.61-.07.11-.03.28.09.34s.27.03.34-.09h0Z"/>
        <path class="cls-3" d="M78.64,45.64c1.28,1.2,2.72,2.78,2.3,4.68-.1.45-.3.86-.63,1.18-.23.23.12.58.35.35.67-.66.92-1.63.83-2.55-.1-1.03-.61-1.94-1.25-2.73-.38-.46-.81-.88-1.24-1.29-.23-.22-.59.13-.35.35h0Z"/>
      </g>
      <g>
        <path class="cls-3" d="M34.39,9.14c1.13-.4,2.32-.61,3.53-.61.14,0,.25-.11.25-.25s-.11-.25-.25-.25c-1.24,0-2.49.22-3.66.63-.13.04-.21.17-.17.31.03.12.18.22.31.17h0Z"/>
        <path class="cls-3" d="M36.69,6.34c-.54,1.74-1.08,3.48-1.62,5.22-.1.31.39.44.48.13.54-1.74,1.08-3.48,1.62-5.22.1-.31-.39-.44-.48-.13h0Z"/>
        <path class="cls-3" d="M38.79,10.19l-.27,1.18.49.07c0-.51-.12-1.02-.33-1.48-.1-.22-.22-.43-.36-.62-.16-.22-.39-.55-.71-.44-.15.05-.25.17-.34.3-.07.09-.12.18-.17.28-.12.23-.18.47-.21.73-.05.47.11.95.44,1.29.37.38.91.57,1.43.47.13-.03.21-.19.17-.31-.04-.14-.17-.2-.31-.17-.01,0-.07.02-.04,0,.04,0-.03,0-.04,0-.05,0-.1,0-.14,0-.02,0-.04,0-.06,0-.04,0,.05,0,.01,0,0,0-.02,0-.03,0-.05,0-.09-.02-.14-.03-.04-.01-.09-.02-.12-.04,0,0,.05.02,0,0,0,0-.02,0-.02-.01-.02-.01-.04-.02-.07-.03-.04-.02-.08-.05-.12-.07-.02-.01-.03-.02-.05-.04-.02-.02.01.01.01.01,0,0-.03-.03-.04-.03-.03-.03-.06-.06-.09-.09-.02-.02-.03-.03-.04-.05,0,0-.02-.02-.02-.03,0,0-.04-.05-.02-.02.02.02-.02-.02-.02-.03-.01-.02-.02-.04-.04-.05-.02-.04-.05-.08-.07-.12,0-.01-.01-.02-.02-.03-.01-.03-.01,0,0,0-.01,0-.02-.05-.02-.06-.02-.05-.03-.09-.04-.14,0-.03-.01-.05-.02-.08,0,0,0-.02,0-.03,0-.03,0,.02,0,.02,0,0,0-.07,0-.08,0-.03,0-.05,0-.08,0-.05,0-.09,0-.14,0-.02,0-.07,0-.08,0,0,0,.05,0,.02,0-.02,0-.03,0-.05.02-.1.04-.19.08-.29,0,0,.03-.07.02-.04s0,0,0,0c0-.01.01-.02.02-.04.02-.04.04-.09.07-.13s.05-.08.08-.13c.01-.02.02-.03.04-.05-.03.05.02-.02.03-.03.02-.02.03-.03.05-.05,0,0,.04-.03,0,0,.01,0,.03,0,0,0-.02,0-.04,0-.06,0-.02,0-.01,0,0,0-.07-.02-.01,0,0,0-.02,0-.03-.02,0,0,.03.03.07.07.1.11.02.02.03.04.05.06-.03-.04.02.02.03.03.13.17.24.36.33.55.01.03.02.05.04.08,0,.01.01.03.02.04,0-.02,0-.02,0,0,.02.06.04.11.06.17.04.11.07.23.1.34.01.06.03.12.04.18,0,.03,0,.06.01.08,0,0,0,.05,0,.02,0-.04,0,.03,0,.03.01.12.02.24.02.37s.09.23.22.25.25-.06.27-.18l.27-1.18c.03-.13-.04-.28-.17-.31-.13-.03-.28.04-.31.17h0Z"/>
        <path class="cls-3" d="M40.01,9.58c-.2.87-.39,1.73-.59,2.6-.03.13.04.28.17.31s.26-.04.31-.17c.03-.09.06-.17.1-.26,0-.02.02-.05.03-.07.02-.04,0,.01.01-.03.03-.06.05-.12.08-.17.11-.24.24-.47.38-.69.07-.11.14-.22.22-.33.05-.07.09-.13.14-.19.01-.02.04-.06.01-.02.01-.01.02-.03.03-.04.03-.03.06-.07.08-.1.05-.06.11-.13.17-.18.03-.02.05-.05.08-.07,0,0,.01-.01.02-.01,0,0-.04.03-.02.02.02,0,.03-.02.05-.03.01,0,.03-.01.04-.02.04-.02,0,.01-.02,0,0,0,.03,0,.04-.01,0,0-.07,0-.02,0,0,0-.07-.01-.04,0,0,0,.02,0-.01,0-.04-.02-.02,0,0,0-.02,0-.03-.02-.04-.03-.03-.02,0,0,0,0,0,.03,0-.02,0-.02,0,.03.02.05.02.08,0,.02.01.06,0,.02,0,.03,0,.06,0,.09,0,.06,0,.13,0,.19,0,.08,0,.17,0,.25,0,.19-.02.38-.03.57-.01.12-.02.24-.04.36,0,.02,0,.03,0,.05,0,0,0,.05,0,.03,0-.02,0,.02,0,.02,0,.02,0,.04,0,.07,0,.07-.02.13-.03.2-.05.31-.11.62-.19.92-.03.13.04.28.17.31s.27-.04.31-.17c.14-.55.23-1.12.29-1.69.02-.21.03-.41.04-.62,0-.23.01-.47-.03-.7-.04-.25-.23-.45-.5-.4-.16.03-.31.15-.42.27-.25.24-.45.54-.64.83-.3.46-.55.96-.73,1.48l.48.13c.2-.87.39-1.73.59-2.6.03-.13-.04-.28-.17-.31-.13-.03-.28.04-.31.17h0Z"/>
        <path class="cls-3" d="M44.15,7.76c-.65.97-1.3,1.96-1.7,3.06s-.49,2.38-.09,3.54c.11.3.59.17.48-.13-.38-1.1-.3-2.24.11-3.32s1.01-1.98,1.63-2.89c.18-.27-.25-.52-.43-.25h0Z"/>
        <path class="cls-3" d="M45.52,9.52c-.36-.03-.74.09-.99.36s-.34.66-.21,1c.07.18.2.33.37.43.15.09.32.13.49.18.04.01.08.02.12.04.02,0,.03.01.05.02.04.01-.05-.03.01,0,.03.02.06.03.09.05.01,0,.06.05.01,0,.02.02.04.03.05.05,0,0,.02.02.02.03-.04-.04,0,0,0,0,.02.03.03.05.05.08.03.05-.01-.05,0,0,0,.01,0,.02.01.04,0,.02.01.04.01.05,0,.01.02.1,0,.03,0,.06,0,.13,0,.19,0-.07,0,.04-.01.05,0,.02,0,.03-.01.05,0,.01-.04.09,0,.03-.01.03-.03.06-.05.08,0,0-.03.05-.01.02s-.02.02-.02.02c-.03.03-.05.05-.08.08s.05-.03,0,0c-.02.01-.04.03-.07.04-.03.02-.06.03-.09.05.05-.02-.04.01-.06.02-.04.01-.07.02-.11.03-.04,0,.06,0,0,0-.03,0-.05,0-.08,0-.03,0-.07,0-.1,0-.01,0-.08-.01-.02,0-.01,0-.03,0-.04,0-.04,0-.07-.02-.11-.03-.02,0-.03-.01-.05-.02.06.02-.03-.01-.04-.02-.01,0-.03-.01-.04-.02,0,0-.06-.05-.02-.01-.02-.01-.03-.03-.05-.05,0,0,.03.04,0,0v-.02s0,.03,0,0v-.02s0,.03,0,0c0,0,0,.05,0,0,0-.03,0-.03,0,0,0-.01.01-.03.02-.04,0-.01.02-.03.03-.04.04-.06-.03.03.02-.03.03-.03.05-.06.08-.09.03-.03.07-.06.11-.09,0,0-.03.02,0,0,.03-.02.05-.04.08-.06.29-.19.62-.32.9-.53.32-.24.6-.58.58-1.01-.02-.36-.24-.77-.63-.83-.13-.02-.28.03-.31.17-.03.12.04.29.17.31.02,0,.09,0,.1.03-.02-.02-.04-.02-.01,0,.01,0,.03.02.04.03.05.03-.03-.04,0,0,0,0,.02.02.02.02,0,.01.04.06,0,0,.01.02.02.03.03.05s.05.11.03.05c0,.03.02.06.03.09,0,.01.01.04.01.05,0-.02,0-.04,0-.01,0,.04,0,.09,0,.13,0,.02,0,.03,0-.01,0,.01,0,.04-.01.05,0,.03-.02.06-.03.09.02-.05,0,.02-.01.02-.01.02-.02.04-.03.06,0,.01-.02.03-.02.04,0,.01-.02.02-.03.04.02-.02.02-.02,0,0-.05.06-.1.11-.16.16-.02.01-.03.03-.05.04.04-.03-.02.01-.02.02-.04.03-.08.05-.11.08-.31.2-.65.34-.93.57-.16.13-.3.28-.37.47-.08.21,0,.45.15.6.27.26.7.32,1.06.24s.64-.32.78-.65c.12-.3.09-.67-.09-.93-.1-.15-.23-.26-.39-.34s-.33-.11-.5-.17c-.02,0-.04-.01-.06-.02-.03-.01-.03-.01,0,0-.01,0-.03-.01-.04-.02-.04-.02-.08-.04-.11-.07.04.03,0,0,0,0-.02-.02-.04-.04-.05-.06.04.05,0,0,0-.01-.01-.02-.02-.03-.03-.05.03.05,0,0,0-.01,0-.02-.01-.04-.02-.06,0-.01-.01-.08,0-.01,0-.02,0-.05,0-.07,0-.02,0-.03,0-.05,0-.01,0-.03,0-.04,0,.03,0,.04,0,0,0-.04.02-.08.03-.12.02-.06-.03.04,0-.01.01-.02.02-.04.03-.05s.02-.03.03-.05c-.03.04,0,0,.02-.02.01-.02.03-.03.05-.05.01,0,.02-.02.03-.03-.02.01-.02.02,0,0,.04-.02.08-.05.12-.07.01,0,.03-.01.04-.02-.05.02.03-.01.04-.01.04-.01.08-.02.13-.03,0,0,.08,0,.02,0,.02,0,.04,0,.07,0,.05,0,.1,0,.15,0,.13,0,.26-.12.25-.25,0-.14-.11-.24-.25-.25h0Z"/>
        <path class="cls-3" d="M47.72,10.38c-.33.15-.59.51-.59.88,0,.32.2.52.41.74.13.14.23.25.32.39.11.17.14.26.19.45.01.04,0-.06,0,.02,0,.02,0,.05,0,.07,0,.02,0,.03,0,.05,0,0,0,.08,0,.03,0,.03-.01.06-.02.1,0,.01,0,.02-.01.03.02-.06,0,0-.01.02-.01.03-.03.05-.05.08.03-.04.02-.02,0,0-.01.01-.02.03-.04.04-.02.02-.04.04-.07.06.04-.04.01,0,0,0-.02.01-.04.02-.05.03-.01,0-.1.05-.04.02-.03.01-.06.02-.08.03,0,0-.05.01-.05.01,0,0,.07,0,.02,0-.02,0-.03,0-.05,0-.06,0,0,0,0,0,0,0-.08-.01-.08-.02h.03s-.02,0-.03,0c-.01,0-.02-.01-.03-.02-.05-.03.03.04,0,0,0,0-.02-.02-.03-.03-.04-.04.02.04,0,0,0-.02-.02-.03-.03-.05-.03-.05.01.05,0,0,0-.02,0-.03-.01-.05s0-.03,0-.05c.01.06,0,.02,0,0,0-.04,0-.07,0-.11,0-.01,0-.05,0,0,0-.02,0-.05.01-.07,0-.04.02-.07.03-.11,0,0-.02.05,0,0,0-.02.02-.04.03-.05.02-.03.03-.06.05-.09.03-.04,0,0,0,0,.02-.02.04-.05.06-.07.11-.11.22-.18.38-.27.15-.08.31-.15.46-.23.28-.15.6-.35.74-.64.18-.38.02-.79-.29-1.04-.33-.27-.75-.32-1.14-.15-.12.05-.16.24-.09.34.08.13.21.15.34.09.07-.03.12-.03.19-.03.02,0,.04,0,.05,0h.02s.03,0-.01,0c.02,0,.06.01.08.02.02,0,.04.01.06.02.01,0,.03,0,.04.02-.05-.02.02.01.02.01.03.02.07.04.1.06.04.03.01,0,0,0,.02.02.05.04.07.06.01.01.02.02.03.03,0,0,.05.06.02.02.02.03.04.06.06.09,0,0,.03.06.01.03s0,.03,0,.03c0,.02,0,.03.01.05,0,.02,0,.01,0-.02,0,.01,0,.03,0,.04,0,.01,0,.03,0,.04,0,.03.01-.06,0-.01,0,0-.02.08-.02.08,0,0,.03-.05,0,0,0,0-.01.02-.02.03,0,.01-.02.03-.03.04-.03.05.04-.04,0,0-.05.05-.09.09-.14.14-.05.05.04-.03-.02.01-.01,0-.02.02-.04.03-.04.03-.08.05-.12.08-.15.09-.32.17-.48.25-.31.16-.64.35-.82.66-.17.29-.21.67-.05.96s.54.43.86.32c.31-.09.56-.34.66-.64.12-.36,0-.78-.19-1.09-.11-.18-.25-.35-.4-.5-.06-.06-.12-.13-.18-.19-.01-.01-.02-.03-.04-.04h-.01s-.01-.03,0,0c0,0-.04-.06-.05-.07-.03-.04.01.05,0,.02,0-.02-.01-.03-.01-.05,0-.01,0-.02,0-.04,0-.02,0,0,0,.03,0-.01,0-.02,0-.04,0-.02,0-.03,0-.05,0-.02,0-.01,0,.02,0-.01,0-.03,0-.04,0-.01,0-.03.01-.04,0-.01.04-.09.01-.04.02-.04.04-.08.07-.11,0,0,.03-.04,0,0,.02-.02.04-.05.06-.07.01-.01.02-.02.03-.03.01-.01.02-.02.03-.03-.02.01-.02.02,0,0,.04-.02.08-.05.13-.07.12-.06.16-.24.09-.34-.08-.12-.22-.15-.34-.09Z"/>
        <path class="cls-3" d="M48.93,13.76s0,0,0,0l-.03-.06s.03.08.03.12v-.07s0,.08,0,.12v-.07s0,.04,0,.06l.17-.17s0,0,0,0h.07s-.03,0-.04,0h.07s-.03,0-.04,0l.06.03s-.03-.02-.04-.03l.05.04s-.03-.03-.04-.04l.04.05s-.03-.04-.03-.06l.03.06s-.02-.04-.02-.07v.07s0-.04,0-.06v.07s0-.03,0-.05l-.03.06s.01-.02.02-.04l-.04.05s.02-.02.03-.03l-.05.04s.02-.02.04-.02l-.06.03s.03,0,.04-.01h-.07s.04,0,.05,0h-.07s.04,0,.06,0l-.06-.03s.04.02.06.04l-.05-.04s.03.03.04.04l-.04-.05s.02.03.03.05l-.03-.06s.01.03.01.05v-.07s0,.03,0,.04v-.07s0,.01,0,.02l.37-.15s-.06-.03-.09-.04c-.01,0-.02,0-.03,0-.03,0-.05,0-.08-.01,0,0,0,0-.01,0-.03,0-.07,0-.1.01-.01,0-.02,0-.03,0-.03,0-.06.02-.09.04s-.05.04-.08.06c0,0-.02.01-.02.02-.02.02-.04.05-.05.08-.02.03-.02.06-.02.1,0,.03,0,.07.02.1.01.03.03.06.05.08l.05.04s.08.03.13.03h.07s.08-.04.11-.07c0,0,.02-.02.03-.02l-.05.04s.02-.02.04-.02l-.06.03s.03,0,.04-.01h-.07s.03,0,.05,0h-.07s.03,0,.04,0l-.06-.03s.02,0,.02.01c.04.02.08.03.13.03.03,0,.07,0,.1-.02.03-.01.06-.03.08-.05.03-.03.05-.07.06-.11,0-.03.01-.06.01-.09,0,0,0-.02,0-.03,0-.04,0-.08-.02-.12s-.03-.07-.05-.1-.05-.06-.07-.09-.06-.05-.09-.07-.07-.04-.11-.05-.08-.02-.12-.02c-.02,0-.04,0-.05,0-.03,0-.06,0-.09.01s-.06.02-.08.03c-.04.02-.07.04-.09.07,0,0-.01.01-.02.02-.02.02-.04.05-.05.07s-.03.06-.04.08c0,0,0,.02,0,.03-.02.08-.02.15,0,.23,0,.04.03.07.04.11,0,.02.02.03.03.05.02.03.05.07.08.09.02.02.05.04.07.06,0,0,.02.01.02.02.03.01.05.03.08.03,0,0,.02,0,.03,0,.03,0,.06.01.09.01s.06,0,.09-.01c.04-.01.08-.03.11-.06.03-.03.05-.07.06-.11.01-.05.02-.09.02-.14,0-.03,0-.05,0-.08,0-.05,0-.1-.02-.14s-.03-.09-.05-.13c-.02-.03-.04-.05-.06-.07-.02-.02-.05-.04-.09-.04-.03-.01-.07-.01-.1,0-.03,0-.06.01-.09.03l-.05.04s-.05.07-.06.11v.07s0,.09.03.13h0Z"/>
        <path class="cls-3" d="M50.91,12.61l.66-.63c.05-.05.1-.09.15-.14,0,0-.03.02,0,0,.01,0,.02-.02.04-.02,0,0,.05-.03.02-.01-.03.01.02,0,.03,0-.01,0-.04,0-.06,0-.02,0-.03-.02-.05-.03-.01-.02-.02-.03-.03-.04.02.03,0,.01,0,0,0,.01,0,.1,0,.04,0,.04-.01.08-.02.11-.09.55-.24,1.09-.45,1.61-.03.08-.04.09-.07.18-.03.07-.06.14-.1.21-.07.15-.15.29-.22.43-.06.11-.03.28.09.34s.27.03.34-.09c.31-.56.56-1.16.73-1.79.09-.32.16-.64.2-.96.02-.2-.05-.39-.24-.47s-.38.01-.53.13-.27.26-.41.39l-.42.4c-.09.09-.1.26,0,.35s.25.1.35,0h0Z"/>
        <path class="cls-3" d="M50.31,14.9s.05-.04.02-.01,0,0,.02-.01c.03-.02.05-.03.08-.05.05-.03.11-.06.16-.09.04-.02-.05.02,0,0,.01,0,.03-.01.04-.02.03-.01.06-.02.09-.03.06-.02.12-.03.18-.04,0,0,.02,0,.03,0,0,0-.06,0-.03,0,.02,0,.03,0,.05,0,.03,0,.06,0,.09,0,.06,0,.12,0,.19,0,.02,0,.03,0,.05,0,.06,0-.05,0,0,0,.03,0,.06.01.09.02.06.01.12.03.18.05.02,0,.03.01.05.02,0,0,.02,0,.02,0,0,0-.06-.02-.02,0s.06.03.09.05c.06.03.12.07.18.12.05.04.14.04.19.03.06-.02.12-.06.15-.11.03-.06.05-.13.03-.19s-.06-.11-.11-.15c-.46-.35-1.13-.42-1.66-.2-.17.07-.33.16-.47.28-.1.08-.09.27,0,.35.11.1.25.09.35,0h0Z"/>
        <path class="cls-3" d="M52.97,11.62c-.16.25-.22.56-.12.84.05.15.13.3.25.4.08.07.17.12.28.15s.21.02.32,0c.18-.03.36-.14.49-.26s.24-.31.28-.49.03-.38-.03-.56-.17-.34-.33-.46c-.09-.07-.2-.1-.32-.12-.13-.01-.25.02-.37.07-.19.09-.34.25-.46.42-.07.11-.03.28.09.34.13.07.27.03.34-.09.01-.02.03-.04.04-.06l-.04.05c.05-.07.11-.13.18-.18l-.05.04s.1-.07.15-.09l-.06.03s.08-.03.12-.04h-.07s.07,0,.11,0h-.07s.07,0,.1.02l-.06-.03s.07.04.1.06l-.05-.04s.07.06.1.1l-.04-.05c.04.05.07.11.1.17l-.03-.06c.03.07.05.14.06.21v-.07c0,.07,0,.14,0,.21v-.07c0,.06-.01.11-.04.17l.03-.06c-.03.06-.06.11-.1.16l.04-.05c-.04.06-.09.11-.15.15l.05-.04c-.05.04-.11.07-.17.1l.06-.03s-.1.04-.15.04h.07s-.09,0-.13,0h.07s-.07,0-.11-.02l.06.03s-.07-.03-.1-.06l.05.04s-.06-.06-.09-.09l.04.05s-.07-.1-.09-.16l.03.06c-.03-.06-.05-.13-.05-.19v.07c0-.06,0-.12,0-.18v.07c0-.06.02-.13.04-.19l-.03.06s.05-.09.07-.14c.07-.11.03-.28-.09-.34-.12-.07-.27-.03-.34.09Z"/>
        <path class="cls-3" d="M52.91,13.68c.07-.02.13-.03.2-.04h-.07c.16-.01.31-.01.47,0h-.07c.15.01.3.05.44.11l-.06-.03s.01,0,.02,0c.03.02.06.03.09.03.03,0,.07,0,.1,0,.06-.02.12-.06.15-.11.03-.06.05-.13.03-.19-.02-.06-.06-.12-.11-.15-.11-.05-.22-.09-.34-.12s-.23-.04-.34-.05c-.22-.02-.44,0-.64.06-.06.02-.12.06-.15.11s-.04.13-.03.19c.04.13.17.21.31.17h0Z"/>
        <path class="cls-3" d="M55.16,10.9c.28.34.32.8.29,1.22-.03.48-.14.95-.25,1.41-.22.97-.54,1.97-1.27,2.68-.36.35-.79.61-1.29.71-.32.06-.18.55.13.48,1.03-.21,1.83-1.02,2.3-1.93.27-.53.44-1.1.58-1.67.13-.54.25-1.08.29-1.63.04-.59-.06-1.16-.44-1.63-.09-.11-.26-.09-.35,0-.1.1-.08.25,0,.35h0Z"/>
      </g>
      <path class="cls-2" d="M25.67,4.11c-4.75,2.17-9.1,5.24-12.98,8.73-2.45,2.2-4.71,4.67-6.65,7.33C2.35,25.21.33,31.22.04,37.46c-.22,4.73.46,9.77,2.92,13.9,3.41,5.69,9.43,9.29,15.44,11.71,7.36,2.96,15.34,4.34,23.22,4.86s16.49.08,24.52-1.57c6.75-1.38,13.71-3.64,19.22-7.91,3.37-2.61,6.02-6.09,7.44-10.13,1.72-4.89,1.45-10.26.19-15.22-1.04-4.11-2.76-8.06-4.87-11.74-1.37-2.4-2.93-4.61-4.8-6.66-6.48-7.11-15.52-11.47-24.85-13.42s-18.42-1.77-27.19.76c-1.93.55-3.81,1.25-5.64,2.07-.49.22-.61.94-.36,1.37.3.51.87.58,1.37.36,7.68-3.46,16.52-4.32,24.83-3.58,9.09.81,18.21,3.77,25.52,9.36,2.89,2.21,5.57,4.87,7.61,7.89,1.69,2.5,3.12,5.18,4.32,7.95,1.81,4.19,3.06,8.74,3.07,13.32,0,5.1-1.76,9.98-5.27,13.71-4.22,4.49-10.17,7.03-16.1,8.72-7.45,2.12-15.25,2.95-22.98,2.92s-15.77-.93-23.32-3.13c-6.24-1.82-12.59-4.59-17.09-9.3-2.14-2.24-3.66-4.87-4.45-7.87-1.5-5.77-.97-12.2,1.14-17.75,1.77-4.66,4.84-8.5,8.27-12.04,2.15-2.22,4.58-4.19,7.11-5.97,2.32-1.62,4.76-3.07,7.33-4.24.49-.22.61-.94.36-1.37-.3-.5-.88-.58-1.37-.36Z"/>
    </g>
  </g>
</svg>