<?xml version="1.0" encoding="UTF-8"?>
<svg id="Layer_2" xmlns="http://www.w3.org/2000/svg" viewBox="0 0 257.17 183.74">
  <defs>
    <style>
      .cls-1 {
        fill: #231f20;
      }

      .cls-2 {
        fill: #00aeef;
      }

      .cls-3 {
        fill: #939598;
      }
    </style>
  </defs>
  <g id="Layer_1-2" data-name="Layer_1">
    <g>
      <path class="cls-3" d="M117.56,13.15c-.59,21.69-1.17,43.39-1.76,65.08s-1.17,43.17-1.75,64.75c-.33,12.17-.66,24.35-.99,36.52-.03,1.29,1.97,1.29,2,0,.59-21.69,1.17-43.39,1.76-65.08s1.17-43.17,1.75-64.75c.33-12.17.66-24.35.99-36.52.03-1.29-1.97-1.29-2,0h0Z"/>
      <path class="cls-3" d="M113.49,21.77c.9-3.27,2.77-6.13,5.11-8.56l-1.21.16c3.18,2.03,6.1,4.86,7.3,8.53.4,1.22,2.33.7,1.93-.53-1.36-4.18-4.58-7.4-8.21-9.72-.37-.23-.91-.15-1.21.16-2.58,2.67-4.64,5.84-5.62,9.44-.34,1.24,1.59,1.77,1.93.53h0Z"/>
      <path class="cls-3" d="M105.76,167.72c2.67,4.56,5.34,9.12,8.01,13.68.41.69,1.67.64,1.83-.24.96-5.24,3.33-10.14,6.91-14.09.86-.95-.55-2.37-1.41-1.41-3.8,4.19-6.41,9.4-7.43,14.97l1.83-.24c-2.67-4.56-5.34-9.12-8.01-13.68-.65-1.11-2.38-.1-1.73,1.01h0Z"/>
    </g>
    <g>
      <path class="cls-3" d="M223.63,90.14c1.31,1.55,3.23,2.39,4.96,3.36.9.5,1.75,1.05,2.45,1.81.48.52,1.03,1.28.6,1.97-.5.82-1.64,1.39-2.42,1.92-.93.64-1.88,1.26-2.85,1.85-2,1.23-4.05,2.37-6.15,3.42-1.15.58-.14,2.3,1.01,1.73,3.58-1.79,7.03-3.83,10.28-6.17,1.44-1.04,2.8-2.41,2.09-4.32-.61-1.67-2.17-2.87-3.66-3.73-1.69-.98-3.62-1.73-4.91-3.25-.83-.98-2.24.44-1.41,1.41h0Z"/>
      <path class="cls-3" d="M1.46,96.19c19.43.48,38.86.95,58.29,1.43,9.59.23,19.19.53,28.78.62,8.36.08,16.66-.28,25-.64,11.27-.48,22.59-.28,33.86-.08,10.82.18,21.63.95,32.45.85,15.65-.14,31.3-1.33,46.95-.87,1.72.05,3.45.13,5.17.24,1.29.08,1.28-1.92,0-2-15.44-.98-30.96.2-46.4.54-7,.15-14,.16-20.99-.25-4.31-.25-8.64-.34-12.95-.43-11.64-.25-23.31-.41-34.95-.1-7.03.18-14.05.7-21.09.75-9.58.07-19.15-.23-28.72-.46-19.35-.47-38.71-.95-58.06-1.42l-7.34-.18c-1.29-.03-1.29,1.97,0,2h0Z"/>
      <path class="cls-3" d="M13.63,86.58c-4.08.79-7.94,2.54-11.23,5.07-.76.59-1.59,1.2-2.04,2.07s-.44,1.9.01,2.81c.42.84,1.16,1.48,1.89,2.06.95.75,1.9,1.5,2.84,2.25,2.16,1.7,4.31,3.41,6.47,5.11.42.33,1,.41,1.41,0,.35-.35.43-1.08,0-1.41-1.7-1.34-3.4-2.69-5.1-4.03s-3.35-2.5-4.89-3.89c-.44-.4-1.09-.98-.98-1.65.11-.71.98-1.26,1.5-1.67,1.45-1.13,3.05-2.09,4.71-2.88,1.89-.89,3.89-1.51,5.94-1.91,1.26-.25.73-2.17-.53-1.93h0Z"/>
    </g>
    <g>
      <g>
        <path class="cls-2" d="M43.61,149.27c14.12-2.2,28.23-4.32,42.2-7.38,11.63-2.55,23.07-5.79,34.03-10.5,6.42-2.76,13.07-5.45,18.73-9.64,4.78-3.54,9.01-8.32,11.76-13.61,1.77-3.39,2.99-7.16,3.18-11,.07-1.42-.02-2.84.03-4.27.07-1.72.44-3.38,1-5,1.78-5.12,5.48-9.41,9.85-12.53,3.05-2.17,6.41-3.6,10.04-4.47,3.28-.79,6.63-1.28,9.94-1.9,7.15-1.34,14.26-2.86,21.33-4.53,2.21-.52,4.42-1.06,6.63-1.61,1.25-.31.72-2.24-.53-1.93-7.79,1.94-15.62,3.71-23.5,5.27-2.96.59-5.93,1.14-8.9,1.67-3.75.67-7.48,1.38-10.99,2.9-4.97,2.15-9.43,5.88-12.56,10.29-2.06,2.9-3.63,6.33-4.15,9.87-.44,3.07.04,6.17-.61,9.23-1.35,6.46-5.25,12.21-9.93,16.78s-10.61,7.55-16.55,10.21c-7.07,3.17-14.22,5.99-21.63,8.26-4.29,1.32-8.62,2.47-12.98,3.49-13.37,3.13-26.87,5.35-40.43,7.45-2.17.34-4.35.67-6.52,1.01-1.27.2-.73,2.13.53,1.93h0Z"/>
        <path class="cls-2" d="M204.05,69.71c2.93-1.96,5.87-3.92,8.8-5.88.61-.41,1.29-.82,1.63-1.5.36-.72.21-1.59-.38-2.14-.5-.47-1.18-.64-1.84-.75-.82-.14-1.65-.3-2.46-.47-1.93-.41-3.84-.91-5.73-1.49-1.23-.38-1.76,1.55-.53,1.93,1.85.57,3.73,1.07,5.63,1.47.92.2,1.84.36,2.76.53.27.05.51.13.76.22-.01-.05.01-.03.08.07l-.08-.14c-.1-.05.14-.23-.13.04s-.66.47-.97.68l-1.2.8-2.39,1.6-4.96,3.31c-1.07.71-.06,2.44,1.01,1.73h0Z"/>
        <path class="cls-2" d="M53.95,150.32l-5.53-1.03-2.66-.5c-.32-.06-.64-.16-.95-.21-.05,0-.14-.07-.14-.06.19.04-.2.36.11.05,2.53-2.52,5.21-4.89,7.92-7.21.41-.35.36-1.05,0-1.41-.41-.41-1-.35-1.41,0-1.62,1.39-3.22,2.8-4.79,4.24-.76.7-1.51,1.4-2.26,2.11-.67.63-1.52,1.32-1.53,2.33-.02,2.1,2.91,2.17,4.37,2.44l6.35,1.18c.53.1,1.08-.15,1.23-.7.13-.49-.16-1.13-.7-1.23h0Z"/>
      </g>
      <g>
        <path class="cls-2" d="M215.93,44.42c.11-.08.23-.15.35-.21.14-.07.14-.07.31-.13.13-.04.26-.08.4-.11.07-.01.13-.03.2-.04-.09.01.08,0,.1,0,.13,0,.26-.01.39,0,.07,0,.14,0,.21.01.06,0,.07,0,.02,0,.03,0,.07.01.1.02.13.02.27.06.4.1.07.02.13.04.19.07.06.02.06.03.02,0,.03.01.06.03.09.04.24.12.54.07.68-.18.13-.22.07-.57-.18-.68-1.21-.57-2.67-.51-3.79.24-.22.15-.32.44-.18.68.13.22.46.33.68.18h0Z"/>
        <path class="cls-2" d="M214.91,47.43c1.54-.23,3.09-.32,4.64-.27.64.02.64-.98,0-1-1.64-.05-3.28.05-4.91.3-.27.04-.41.38-.35.62.08.29.35.39.62.35h0Z"/>
        <path class="cls-2" d="M227.06,38.51c.35-.13.72-.27,1.09-.27.23,0,.54.09.65.33.2.44-.58.76-.88.88-.36.15-.54.7-.12.91.37.19.74.41,1.05.69.23.22.5.52.46.86-.07.72-1.04.81-1.59.76-.27-.02-.5.25-.5.5,0,.29.23.48.5.5,1.06.09,2.38-.36,2.57-1.56s-1.01-2.12-1.99-2.62l-.12.91c.85-.34,1.97-1.04,1.57-2.13-.18-.5-.65-.87-1.16-.98-.62-.14-1.22.05-1.8.25-.25.09-.42.34-.35.62.07.25.36.44.62.35h0Z"/>
        <path class="cls-2" d="M222.44,47.23c.74-1.02,1.55-2.2,2.62-2.92.19-.12.47-.27.61-.27.2,0,.35.21.46.53.24.67.33,1.4.49,2.1.21.88.47,1.75.79,2.6.51,1.34,1.16,2.62,1.93,3.83.29.45.87.22.93-.25.83-6.42,1.66-12.84,2.5-19.26l-.5.5c8.16.73,16.4.2,24.4-1.54l-.62-.62c-.42,2.26-.85,4.52-1.27,6.79-.12.63.85.9.96.27.42-2.26.85-4.52,1.27-6.79.07-.38-.22-.7-.62-.62-7.92,1.72-16.06,2.22-24.13,1.5-.29-.03-.47.25-.5.5-.83,6.42-1.66,12.84-2.5,19.26l.93-.25c-.94-1.48-1.7-3.06-2.22-4.74-.3-.95-.49-1.92-.71-2.9-.13-.57-.28-1.24-.76-1.63-.59-.48-1.34-.28-1.92.1-1.24.8-2.17,2.13-3.02,3.3-.38.52.49,1.02.86.5h0Z"/>
        <path class="cls-2" d="M234.83,38.69c1.67,2.07,3.34,4.14,5.02,6.22.28.35.85.05.85-.35,0-.22,0-.45,0-.67,0-.64-.99-.64-1,0,0,.22,0,.45,0,.67l.85-.35-5.02-6.22c-.17-.21-.53-.18-.71,0-.21.21-.17.5,0,.71h0Z"/>
        <path class="cls-2" d="M240.21,37.31c-1.64,2.57-3.09,5.26-4.32,8.05-.26.58.6,1.09.86.5,1.23-2.79,2.67-5.48,4.32-8.05.35-.54-.52-1.05-.86-.5h0Z"/>
        <path class="cls-2" d="M241.96,41.63h3.52c.27,0,.5-.23.5-.5s-.23-.5-.5-.5h-3.52c-.27,0-.5.23-.5.5s.23.5.5.5h0Z"/>
        <path class="cls-2" d="M251.52,37.68l-2.45-1.15c-.37-.17-.71.04-.75.43-.07.63-.15,1.27-.22,1.9-.06.54-.19,1.11-.17,1.65.02.49.27.92.72,1.13.4.18.84.14,1.27.19.3.03.55.11.62.43.06.29-.03.62-.2.87-.55.78-1.86.56-2.66.44-.27-.04-.53.07-.62.35-.07.24.08.58.35.62,1.13.17,2.47.34,3.41-.47.66-.57.95-1.64.53-2.43-.22-.42-.63-.67-1.08-.76-.23-.04-.46-.05-.69-.07-.16,0-.45.01-.58-.11-.16-.14-.08-.44-.06-.62.03-.32.07-.63.11-.95.09-.72.17-1.45.26-2.17l-.75.43,2.45,1.15c.58.27,1.09-.59.5-.86h0Z"/>
        <path class="cls-2" d="M234.11,48.48c2.98-.25,5.93-.66,8.87-1.15s6.11-.83,9.23-.58c.64.05.64-.95,0-1-3.06-.25-6.06.05-9.09.55s-5.99.92-9.02,1.18c-.64.05-.64,1.05,0,1h0Z"/>
        <path class="cls-2" d="M240.95,50.2c1.09-.13,2.25-.02,3.25.47.26.12.77.4.73.75-.05.39-.76.65-1.05.8-.52.28-1.05.53-1.59.78-.25.11-.49.22-.74.32-.27.11-.69.19-.84.45-.29.48.11.97.57,1.11.24.07.49.06.73.07.33,0,.66.01.99.02,1.41.03,2.82.05,4.22.08.64.01.64-.99,0-1-1.01-.02-2.03-.04-3.04-.06-.5,0-.99-.02-1.49-.03-.25,0-.5,0-.75-.01-.11,0-.21,0-.32,0-.22,0,0-.18-.02.15l-.07.25.03-.06-.3.23c.99-.39,1.96-.82,2.91-1.31.78-.4,1.86-.9,1.74-1.96-.11-.94-1.09-1.43-1.88-1.71-.98-.35-2.05-.45-3.08-.33-.27.03-.5.21-.5.5,0,.25.23.53.5.5h0Z"/>
        <path class="cls-2" d="M190.08,42.38c-.3-1.85-.36-3.73-.21-5.59.05-.64-.95-.64-1,0-.16,1.96-.07,3.92.24,5.86.04.27.37.42.62.35.28-.08.39-.35.35-.62h0Z"/>
        <path class="cls-2" d="M190.62,37.99l.17,4.44.98-.13c-.22-1.53.12-3.14.91-4.47.09-.15.18-.31.31-.43.02-.02.11-.08.11-.07.01.28-.21-.31-.09.01.13.37.23.76.29,1.16.05.42.06.85.03,1.27-.02.19-.04.38-.08.56-.02.1-.06.44-.13.5l.22-.13-.06.02h.27-.04c.07.04.15.08.22.12l.08.2-.07.25.02-.03-.3.23h.04c.27-.06.42-.38.35-.62-.08-.28-.35-.4-.62-.35-.58.11-.53.92-.06,1.13.57.25.87-.37.98-.81.24-1.02.25-2.08.02-3.1-.1-.44-.22-1.02-.63-1.27-.45-.27-.97-.08-1.31.29-.62.66-1,1.66-1.23,2.51-.3,1.08-.34,2.19-.18,3.29.08.56,1,.42.98-.13l-.17-4.44c-.02-.64-1.02-.64-1,0h0Z"/>
        <path class="cls-2" d="M194.41,36.72c.28,1.45.76,2.86,1.43,4.18.17.34.68.31.86,0,.68-1.18,1.26-2.42,1.73-3.7.09-.25-.1-.55-.35-.62-.28-.08-.52.09-.62.35-.44,1.2-.99,2.35-1.63,3.46h.86c-.62-1.25-1.06-2.58-1.32-3.94-.05-.27-.37-.42-.62-.35-.28.08-.4.35-.35.62h0Z"/>
        <path class="cls-2" d="M182.23,50.67c-.48-2.52-.48-5.15.08-7.66.2-.9.53-1.94,1.51-2.23.78-.23,1.71.04,2.17.73.35.54,1.22.04.86-.5-.59-.89-1.62-1.38-2.69-1.3-1.21.09-2.07.89-2.5,1.99-.53,1.35-.67,2.93-.74,4.36-.08,1.64.05,3.27.36,4.88.12.63,1.08.36.96-.27h0Z"/>
        <path class="cls-2" d="M178.46,45.43c2.16.73,4.54.72,6.69-.05.6-.22.34-1.18-.27-.96-2,.72-4.14.73-6.16.05-.61-.21-.87.76-.27.96h0Z"/>
        <path class="cls-2" d="M200.57,39.89c-1.66,2.04-2.95,4.47-3.32,7.1-.16,1.13,0,2.32.93,3.1.87.73,2.08,1.01,3.18.74.63-.15.36-1.12-.27-.96-.83.2-1.86-.05-2.44-.71-.69-.78-.47-1.93-.25-2.85.49-2.1,1.53-4.04,2.89-5.71.4-.5-.3-1.21-.71-.71h0Z"/>
        <path class="cls-2" d="M203.55,40.56c.57,1.4,1.14,2.8,1.71,4.2.28.69.56,1.38.84,2.06.14.33.26.67.41,1,.13.29.32.48.52.71.43.48,1.14-.23.71-.71-.21-.23-.32-.41-.44-.69-.14-.33-.27-.66-.41-1-.26-.64-.52-1.28-.78-1.92-.53-1.31-1.07-2.61-1.6-3.92-.1-.25-.33-.42-.62-.35-.24.06-.45.37-.35.62h0Z"/>
        <path class="cls-2" d="M207.11,41.67c-1.67,2.54-3.34,5.09-5.01,7.63-.35.54.51,1.04.86.5,1.67-2.54,3.34-5.09,5.01-7.63.35-.54-.51-1.04-.86-.5h0Z"/>
        <path class="cls-2" d="M209.38,40.43c1.47,1.24,2.46,3.06,2.25,5.02s-1.54,3.57-3.16,4.56c-.55.33-.05,1.2.5.86,1.9-1.15,3.37-3.03,3.64-5.27s-.83-4.45-2.53-5.88c-.49-.41-1.2.29-.71.71h0Z"/>
      </g>
    </g>
    <g>
      <g>
        <path class="cls-1" d="M35.56,179.22c2.15-.94,4.08-2.39,5.59-4.19.17-.21.2-.5,0-.71-.18-.18-.53-.21-.71,0-1.46,1.74-3.3,3.12-5.39,4.03-.25.11-.3.47-.18.68.15.26.44.29.68.18h0Z"/>
        <path class="cls-1" d="M46.15,170.49c1.94-1.6,3.43-3.66,4.41-5.97.1-.25-.11-.55-.35-.62-.29-.08-.51.1-.62.35-.9,2.15-2.35,4.05-4.15,5.53-.21.17-.18.53,0,.71.21.21.5.17.71,0h0Z"/>
        <path class="cls-1" d="M57.5,158.64c1.75-2.34,3.5-4.68,5.25-7.01.16-.22.03-.56-.18-.68-.25-.15-.52-.04-.68.18-1.75,2.34-3.5,4.68-5.25,7.01-.16.22-.03.56.18.68.25.15.52.04.68-.18h0Z"/>
        <path class="cls-1" d="M68.79,145.12c1.52-1.34,3.05-2.69,4.57-4.03.2-.18.18-.52,0-.71-.2-.2-.5-.18-.71,0-1.52,1.34-3.05,2.69-4.57,4.03-.2.18-.18.52,0,.71.2.2.5.18.71,0h0Z"/>
        <path class="cls-1" d="M80.83,132.79c1.8-1.81,3.6-3.62,5.41-5.42.45-.46-.25-1.16-.71-.71-1.8,1.81-3.6,3.62-5.41,5.42-.45.46.25,1.16.71.71h0Z"/>
        <path class="cls-1" d="M91.42,123.13c.84-1.49,1.94-2.8,3.26-3.88.21-.17.18-.53,0-.71-.21-.21-.5-.17-.71,0-1.38,1.13-2.54,2.53-3.42,4.09-.32.56.55,1.07.86.5h0Z"/>
        <path class="cls-1" d="M101.83,112.7l6.41-6.65c.45-.46-.26-1.17-.71-.71l-6.41,6.65c-.45.46.26,1.17.71.71h0Z"/>
        <path class="cls-1" d="M114.66,99.9c1.49-1.7,2.99-3.39,4.48-5.09.42-.48-.28-1.19-.71-.71-1.49,1.7-2.99,3.39-4.48,5.09-.42.48.28,1.19.71.71h0Z"/>
        <path class="cls-1" d="M126.23,88.51c.99-1.85,2.49-3.37,4.31-4.4.56-.32.06-1.18-.5-.86-1.97,1.11-3.6,2.77-4.67,4.76-.3.57.56,1.07.86.5h0Z"/>
        <path class="cls-1" d="M137.68,78.49c2.38-1.46,4.36-3.55,5.67-6.02.3-.57-.56-1.07-.86-.5-1.24,2.32-3.07,4.28-5.32,5.66-.55.34-.05,1.2.5.86h0Z"/>
        <path class="cls-1" d="M150.18,65.33l3.96-4.01c.45-.46-.25-1.17-.71-.71-1.32,1.34-2.64,2.67-3.96,4.01-.45.46.25,1.17.71.71h0Z"/>
        <path class="cls-1" d="M159.5,57.4c2.76-3.24,5.52-6.48,8.28-9.72.42-.49-.29-1.2-.71-.71-2.76,3.24-5.52,6.48-8.28,9.72-.42.49.29,1.2.71.71h0Z"/>
        <path class="cls-1" d="M173.86,42.3c1.81-1.8,3.62-3.6,5.43-5.4.46-.45-.25-1.16-.71-.71l-5.43,5.4c-.46.45.25,1.16.71.71h0Z"/>
        <path class="cls-1" d="M183.12,33.19c1.62-2.27,3.24-4.54,4.86-6.81.37-.52-.49-1.02-.86-.5-1.62,2.27-3.24,4.54-4.86,6.81-.37.52.49,1.02.86.5h0Z"/>
        <path class="cls-1" d="M192.08,21.17c1.73-1.54,3.23-3.31,4.48-5.26.35-.54-.52-1.05-.86-.5-1.2,1.88-2.66,3.57-4.32,5.06-.48.43.23,1.13.71.71h0Z"/>
      </g>
      <g>
        <path class="cls-1" d="M192.28.48c-.19,1.48-.3,3.03-.15,4.52.12,1.19.96,1.57,2.05,1.26,2.17-.62,4-2.24,4.93-4.29.26-.58-.5-1.04-.86-.5-2.38,3.49-4.76,6.97-7.14,10.46-.36.53.5,1.03.86.5,2.38-3.49,4.76-6.97,7.14-10.46l-.86-.5c-.73,1.62-2.03,2.94-3.68,3.61-.29.12-.83.4-1.16.32-.45-.1-.32-1.12-.32-1.46-.02-1.15.05-2.31.2-3.45.08-.64-.92-.63-1,0h0Z"/>
        <path class="cls-1" d="M200.23,5.42c1.01-.36,2.09-.47,3.13-.29.27.05.54-.07.62-.35.07-.24-.08-.57-.35-.62-1.23-.21-2.48-.13-3.66.29-.25.09-.42.34-.35.62.07.25.36.44.62.35h0Z"/>
        <path class="cls-1" d="M198.83,8.65c1.67.29,3.36.36,5.04.19.27-.03.5-.21.5-.5,0-.25-.23-.53-.5-.5-1.59.16-3.2.12-4.77-.15-.27-.05-.54.07-.62.35-.07.24.08.57.35.62h0Z"/>
        <path class="cls-1" d="M206.87,3.14c2.29,1.91,4.36,4.09,6.12,6.5.16.22.43.32.68.18.22-.12.34-.47.18-.68-1.81-2.48-3.91-4.74-6.27-6.71-.49-.41-1.2.29-.71.71h0Z"/>
        <path class="cls-1" d="M212.4.95c-2.21,3.28-4.42,6.56-6.64,9.84-.36.54.51,1.04.86.5,2.21-3.28,4.42-6.56,6.64-9.84.36-.54-.51-1.04-.86-.5h0Z"/>
      </g>
    </g>
  </g>
</svg>