<svg xmlns="http://www.w3.org/2000/svg" viewBox="0 0 341.33 74.99">
  <defs>
    <style>
      .cls-1 {
        fill: #231f20;
      }
    </style>
  </defs>
  <title>Asset 1</title>
  <g id="Layer_2" data-name="Layer 2">
    <g id="Layer_1-2" data-name="Layer 1">
      <g>
        <path class="cls-1" d="M1.58,44.28Q7.9,56.4,15,68.1q2,3.34,4.1,6.66c.35.54,1.21,0,.87-.51Q12.67,62.69,6.12,50.68q-1.86-3.43-3.68-6.9c-.3-.57-1.16-.07-.86.5Z"/>
        <path class="cls-1" d="M.94,74.65Q8.17,63.43,15.38,52.2l4.1-6.36c.35-.55-.52-1.05-.86-.51Q11.39,56.55,4.18,67.78L.08,74.15c-.35.54.52,1,.86.5Z"/>
      </g>
      <g>
        <path class="cls-1" d="M167.62,50.61c.64-.55,1.28-1.09,1.94-1.61.32-.27.65-.53,1-.79.55-.43-.4.3.16-.12l.67-.51q2.12-1.57,4.32-3a68.5,68.5,0,0,1,9.22-5l.58-.25c.07,0,.72-.31.17-.08l1.16-.47c.84-.33,1.69-.64,2.55-.94,1.64-.56,3.31-1,5-1.46a37.43,37.43,0,0,1,5.11-1c-.63.06.07,0,.17,0l.62-.07c.41,0,.83-.09,1.24-.12.9-.08,1.79-.13,2.68-.15a38.53,38.53,0,0,1,4.81.15l1.11.12c.14,0,.76.06.06,0a4.68,4.68,0,0,1,.54.08c.77.12,1.53.25,2.29.42a39.05,39.05,0,0,1,4,1.06c.63.2,1.25.42,1.87.65l.91.35.45.19-.16-.07.29.13a45.38,45.38,0,0,1,6.58,3.56c.94.61,1.86,1.26,2.76,1.94l.3.23c-.63-.47-.24-.19-.1-.08l.58.46c.4.33.8.66,1.19,1a56.46,56.46,0,0,1,6,6.08,2.52,2.52,0,0,0,3.54,0,2.56,2.56,0,0,0,0-3.54A59,59,0,0,0,236,42.42a50,50,0,0,0-11.73-8,44,44,0,0,0-18-4.43,53.65,53.65,0,0,0-21,4,74.42,74.42,0,0,0-19.12,11.31c-.7.57-1.4,1.15-2.09,1.74a2.51,2.51,0,0,0,0,3.54,2.56,2.56,0,0,0,3.53,0Z"/>
        <path class="cls-1" d="M226.88,52.57l.26,0,.7-.08c.55-.06,1.1-.11,1.65-.13a28.83,28.83,0,0,1,2.94,0c.51,0,1,.06,1.53.1l.7.08.14,0,.25,0c1,.16,2,.36,3,.62a4.9,4.9,0,0,0,1.94.21,3.16,3.16,0,0,0,2.23-1.47c.65-1,.49-2.39.48-3.55l0-6.36,0-7.37a2.5,2.5,0,1,0-5,0l0,7.74v5.49a13.34,13.34,0,0,0,0,2c0,.28,0,.22,0-.17q3.45-.95,2-1.25a7.28,7.28,0,0,0-.92-.23c-.53-.13-1.07-.24-1.61-.34a34.89,34.89,0,0,0-3.93-.5,33.71,33.71,0,0,0-7.71.39,2.52,2.52,0,0,0-1.75,3.08,2.57,2.57,0,0,0,3.08,1.74Z"/>
      </g>
      <path class="cls-1" d="M251,47.09a30.7,30.7,0,0,1,7.7-.83,20.78,20.78,0,0,1,3.61.31c.83.17,2,.56,2,1.59s-1.27,2-2.09,2.5a33.19,33.19,0,0,1-3,1.81,35.16,35.16,0,0,1-6.61,2.7.51.51,0,0,0-.12.92c3.91,2.32,8.75.17,12.67,2.4,1.69,1,2.85,2.77,1.94,4.71s-3.39,3.32-5.34,4.3a30.26,30.26,0,0,1-4,1.64c-.7.23-1.42.44-2.14.62-.15,0-1.64.32-1.54.08.24-.6-.73-.86-1-.27-.42,1.05,1,1.48,1.76,1.37a20.55,20.55,0,0,0,4.2-1.2,21.8,21.8,0,0,0,7.48-4.18c1.67-1.58,2.54-4,1.18-6.06a7.83,7.83,0,0,0-5.55-3c-3.06-.42-6.4.39-9.2-1.26l-.12.91a36.12,36.12,0,0,0,6-2.35c1-.49,2-1,2.9-1.61A14.14,14.14,0,0,0,264,50.45c1.23-1.19,1.74-3.1.12-4.21a5.07,5.07,0,0,0-2.17-.72,28.45,28.45,0,0,0-3.45-.26,31.8,31.8,0,0,0-7.84.87c-.63.15-.36,1.11.26,1Z"/>
      <path class="cls-1" d="M327.94,33.4a11.08,11.08,0,0,1,4.86-.17A3.25,3.25,0,0,1,335.35,37a8.37,8.37,0,0,1-3.19,4.78,31.84,31.84,0,0,1-5.33,3.39c-.54.29-.14,1,.38.91l13.76-2c.63-.09.36-1.06-.27-1l-13.75,2,.38.91c3.1-1.7,6.74-3.63,8.37-6.95a5.31,5.31,0,0,0,.3-4.58,4.46,4.46,0,0,0-3.24-2.32,12.85,12.85,0,0,0-5.09.24c-.63.13-.36,1.09.27,1Z"/>
      <g>
        <path class="cls-1" d="M201,25.07c-1.11-3.89-2.26-7.9-1.87-12,.33-3.55,1.93-7.1,5.17-8.87a7.44,7.44,0,0,1,5.52-.75.5.5,0,0,0,.26-1,9.17,9.17,0,0,0-9.45,3.6c-2.47,3.29-2.9,7.63-2.37,11.59a53.91,53.91,0,0,0,1.77,7.64.5.5,0,0,0,1-.26Z"/>
        <path class="cls-1" d="M192.5,14.54l14.78.88c.64,0,.64-1,0-1l-14.78-.88c-.65,0-.64,1,0,1Z"/>
      </g>
      <g>
        <path class="cls-1" d="M30.12,46.9a28.35,28.35,0,0,1,2.47-2.78c.42-.4.86-.8,1.3-1.18l.68-.56c.06-.05.39-.31.13-.11l.47-.35a33.59,33.59,0,0,1,6.3-3.61c.37-.16.73-.31,1.35-.55s1.24-.45,1.87-.66c1.19-.39,2.4-.72,3.62-1s2.73-.59,4.1-.88c.81-.17,1.62-.32,2.43-.46l1.35-.22.31,0,.22,0,.22,0,.51-.06A51.06,51.06,0,0,1,64.66,34a47.42,47.42,0,0,1,14.22,2.5c.64.22,1.27.46,1.9.71.37.15.16.07.08,0l.56.24,1,.5a31,31,0,0,1,4.06,2.45,29.8,29.8,0,0,1,6,5.82,2,2,0,0,0,2.83,0,2.06,2.06,0,0,0,0-2.83A32.63,32.63,0,0,0,81.84,33.4a48.8,48.8,0,0,0-14.9-3.26,55.94,55.94,0,0,0-14.32,1,63,63,0,0,0-11,2.87A32.7,32.7,0,0,0,27.29,44.07a2.07,2.07,0,0,0,0,2.83,2,2,0,0,0,2.83,0Z"/>
        <path class="cls-1" d="M90.08,29q1.85,7.69,3.71,15.39c.06.28.13.56.19.84a2.21,2.21,0,0,1,0,.25c0-.42,0-.12,0,0,0,.38,0,0,0-.06-.22.36,0-.06,0-.06s.65-.63.53-.44l.14,0-.31,0c-1.24-.09-2.49-.3-3.73-.45l-7.84-1-4.42-.55-2.08-.25a4.36,4.36,0,0,0-2.29.23,2,2,0,0,0-1.4,2.46,2,2,0,0,0,2.46,1.39,3.25,3.25,0,0,0,.4-.15c.34-.16.11,0,0,0,.37,0,.74.09,1.11.14l2.08.25,4.17.52,8.33,1a14.71,14.71,0,0,0,4.28.32A3.21,3.21,0,0,0,98,45.4a18.87,18.87,0,0,0-.82-4.06l-1-4.12-2.25-9.33a2,2,0,0,0-2.46-1.4A2,2,0,0,0,90.08,29Z"/>
      </g>
      <path class="cls-1" d="M114,50.55A31.42,31.42,0,0,1,104.94,48a.51.51,0,0,0-.76.43q-.42,8-.16,15.94a.51.51,0,0,0,.75.43,11.2,11.2,0,0,1,5.13-2,4,4,0,0,1,3.87,2.06,4.48,4.48,0,0,1-.5,4,6.29,6.29,0,0,1-3.75,2.7,13.6,13.6,0,0,1-3,.5c-.5,0-1,0-1.48.06-.29,0-1.36.17-1.56-.06l.12.49h0c.53-.35,0-1.22-.51-.86-.89.58-.39,1.39.55,1.43a25,25,0,0,0,3.57-.13,9.59,9.59,0,0,0,5.91-2.35A6.23,6.23,0,0,0,115,65.76a4.41,4.41,0,0,0-3.5-3.74c-2.61-.6-5.06.64-7.24,1.92l.75.44q-.26-8,.16-15.94l-.75.44A33.25,33.25,0,0,0,114,51.55c.64.07.63-.93,0-1Z"/>
      <path class="cls-1" d="M119.77,59.08A38,38,0,0,1,127.16,71c.23.59,1.19.33,1-.27a39.51,39.51,0,0,0-7.64-12.38c-.44-.48-1.15.23-.71.71Z"/>
      <path class="cls-1" d="M128,58.51a61.31,61.31,0,0,1-9.17,14.17c-.41.48.29,1.19.71.71A62.68,62.68,0,0,0,128.88,59c.27-.58-.59-1.09-.87-.5Z"/>
      <path class="cls-1" d="M137.58,61.47l4.95-1,2.38-.49a6.73,6.73,0,0,0,2.24-.7c.54-.34,0-1.21-.51-.87a6.25,6.25,0,0,1-2.18.64l-2.38.49-4.77,1c-.63.13-.36,1.09.27,1Z"/>
      <path class="cls-1" d="M141.5,53.52q-.5,6-1,11.95c-.05.64.95.63,1,0q.51-6,1-11.95c.06-.64-.94-.63-1,0Z"/>
      <path class="cls-1" d="M155.63,48.56l-.55,22.93c0,.64,1,.63,1,0l.06-1.2c0-.64-1-.64-1,0l-.06,1.2h1l.55-22.93a.5.5,0,0,0-1,0Z"/>
      <path class="cls-1" d="M55.93,2.26c-1.88,3.39-1.12,8.36,2.23,10.6a2.92,2.92,0,0,0,2.79.42,2.79,2.79,0,0,0,1.48-2,9.66,9.66,0,0,0-.85-5.81A12.42,12.42,0,0,0,57.05.05l-.51.87c4.9,2.15,11,5.3,10.53,11.56a17.33,17.33,0,0,1-1.26,4.95,13.93,13.93,0,0,1-2.36,4.07,8.55,8.55,0,0,1-6.88,3,9,9,0,0,1-7.15-3.75c-.36-.53-1.22,0-.86.5a10.1,10.1,0,0,0,14.33,2.18c2.64-2.15,4.11-5.6,4.85-8.85a10.59,10.59,0,0,0,0-5.53,9.86,9.86,0,0,0-2.11-3.6C63.31,2.94,60.11,1.4,57.05.05a.5.5,0,0,0-.51.87,11.36,11.36,0,0,1,5,8.76,3.74,3.74,0,0,1-.4,2.11,1.58,1.58,0,0,1-2.26.36,6.49,6.49,0,0,1-2.77-4,7.32,7.32,0,0,1,.66-5.35.5.5,0,0,0-.87-.51Z"/>
      <path class="cls-1" d="M275.07,41.54a65.6,65.6,0,0,0-3.74,13.32,61.28,61.28,0,0,0-.78,6.62,12.54,12.54,0,0,0,.92,6.15,6.4,6.4,0,0,0,4.36,3.63c.63.12.9-.84.27-1a5.43,5.43,0,0,1-3.73-3.08,11.74,11.74,0,0,1-.8-5.95,61.38,61.38,0,0,1,2.15-12.55,63.52,63.52,0,0,1,2.32-6.9c.24-.6-.73-.86-1-.27Z"/>
      <path class="cls-1" d="M317.79,42.76c2.23-.44,3.81,1.59,4.63,3.38a34.76,34.76,0,0,1,2.08,6.46,40.5,40.5,0,0,1,1,6.76,16.72,16.72,0,0,1-.71,6.82,7.56,7.56,0,0,1-4.17,4.53c-.6.23-.34,1.2.26,1,4.52-1.73,5.79-6.79,5.68-11.16a42,42,0,0,0-1-7.74,34.32,34.32,0,0,0-2.38-7.33c-1-2.18-3.06-4.17-5.67-3.66-.63.13-.36,1.09.27,1Z"/>
      <path class="cls-1" d="M286.19,49.77a24.23,24.23,0,0,1-7-2,.51.51,0,0,0-.75.44q-.33,6.2-.12,12.41a.5.5,0,0,0,.75.43c1.49-.87,3.21-1.83,5-1.39a2.58,2.58,0,0,1,2,3.23A4.41,4.41,0,0,1,283.12,66a9.21,9.21,0,0,1-2.49.52c-.42,0-.84.06-1.26.07-.2,0-1.19.13-1.33,0l.12.48,0,.08c.54-.35,0-1.22-.5-.87s-.59,1.13.18,1.3a9.85,9.85,0,0,0,2.71,0,8.06,8.06,0,0,0,4.93-1.78,5,5,0,0,0,1.63-3.9,3.51,3.51,0,0,0-2.68-3.13c-2.1-.57-4.1.43-5.87,1.47l.76.43q-.21-6.21.12-12.41l-.75.43a25.9,25.9,0,0,0,7.52,2.09c.64.08.63-.92,0-1Z"/>
      <path class="cls-1" d="M290.6,56.61a29.64,29.64,0,0,1,5.73,9.25c.22.6,1.19.34,1-.26a30.81,30.81,0,0,0-6-9.7c-.43-.48-1.14.23-.7.71Z"/>
      <path class="cls-1" d="M297,56a48,48,0,0,1-7.12,11c-.42.49.28,1.2.7.71a49,49,0,0,0,7.29-11.22c.27-.58-.59-1.09-.87-.51Z"/>
      <path class="cls-1" d="M304.58,58.5l3.86-.79,1.85-.39,1-.2a2.57,2.57,0,0,0,.77-.35c.55-.34.05-1.21-.5-.87a4.81,4.81,0,0,1-1.67.49l-1.86.38-3.71.77c-.63.13-.37,1.09.26,1Z"/>
      <path class="cls-1" d="M307.5,52.2q-.39,4.66-.79,9.31c0,.64,1,.64,1,0q.41-4.65.79-9.31c.05-.64-.95-.63-1,0Z"/>
      <path class="cls-1" d="M318.51,48.33l-.43,17.87c0,.65,1,.64,1,0l0-.93c0-.64-1-.64-1,0l0,.93h1l.43-17.87c0-.64-1-.64-1,0Z"/>
    </g>
  </g>
</svg>
