<?xml version="1.0" encoding="utf-8"?>
<!-- Generator: Adobe Illustrator 23.1.1, SVG Export Plug-In . SVG Version: 6.00 Build 0)  -->
<svg version="1.1" id="Layer_1" xmlns="http://www.w3.org/2000/svg" xmlns:xlink="http://www.w3.org/1999/xlink" x="0px" y="0px"
	 viewBox="0 0 288 216" style="enable-background:new 0 0 288 216;" xml:space="preserve">
<style type="text/css">
	.st0{fill:#939598;}
	.st1{fill:#ED1C24;}
	.st2{fill:#00AEEF;}
</style>
<g>
	<g>
		<g>
			<g>
				<path class="st0" d="M136.55,26.57c-0.59,21.69-1.17,43.39-1.76,65.08c-0.58,21.58-1.17,43.17-1.75,64.75
					c-0.33,12.17-0.66,24.35-0.99,36.52c-0.03,1.29,1.97,1.29,2,0c0.59-21.69,1.17-43.39,1.76-65.08
					c0.58-21.58,1.17-43.17,1.75-64.75c0.33-12.17,0.66-24.35,0.99-36.52C138.58,25.28,136.58,25.28,136.55,26.57L136.55,26.57z"/>
			</g>
		</g>
		<g>
			<g>
				<path class="st0" d="M132.48,35.18c0.9-3.27,2.77-6.13,5.11-8.56c-0.4,0.05-0.81,0.1-1.21,0.16c3.18,2.03,6.1,4.86,7.3,8.53
					c0.4,1.22,2.33,0.7,1.93-0.53c-1.36-4.18-4.58-7.4-8.21-9.72c-0.37-0.23-0.91-0.15-1.21,0.16c-2.58,2.67-4.64,5.84-5.62,9.44
					C130.21,35.9,132.14,36.43,132.48,35.18L132.48,35.18z"/>
			</g>
		</g>
		<g>
			<g>
				<path class="st0" d="M124.75,181.14c2.67,4.56,5.34,9.12,8.01,13.68c0.41,0.69,1.67,0.64,1.83-0.24
					c0.96-5.24,3.33-10.14,6.91-14.09c0.86-0.95-0.55-2.37-1.41-1.41c-3.8,4.19-6.41,9.4-7.43,14.97c0.61-0.08,1.22-0.16,1.83-0.24
					c-2.67-4.56-5.34-9.12-8.01-13.68C125.82,179.02,124.09,180.02,124.75,181.14L124.75,181.14z"/>
			</g>
		</g>
	</g>
</g>
<g>
	<g>
		<g>
			<path class="st0" d="M242.62,103.55c1.31,1.55,3.23,2.39,4.96,3.36c0.9,0.5,1.75,1.05,2.45,1.81c0.48,0.52,1.03,1.28,0.6,1.97
				c-0.5,0.82-1.64,1.39-2.42,1.92c-0.93,0.64-1.88,1.26-2.85,1.85c-2,1.23-4.05,2.37-6.15,3.42c-1.15,0.58-0.14,2.3,1.01,1.73
				c3.58-1.79,7.03-3.83,10.28-6.17c1.44-1.04,2.8-2.41,2.09-4.32c-0.61-1.67-2.17-2.87-3.66-3.73c-1.69-0.98-3.62-1.73-4.91-3.25
				C243.2,101.16,241.79,102.58,242.62,103.55L242.62,103.55z"/>
		</g>
	</g>
	<g>
		<g>
			<path class="st0" d="M20.45,109.6c19.43,0.48,38.86,0.95,58.29,1.43c9.59,0.23,19.19,0.53,28.78,0.62
				c8.36,0.08,16.66-0.28,25-0.64c11.27-0.48,22.59-0.28,33.86-0.08c10.82,0.18,21.63,0.95,32.45,0.85
				c15.65-0.14,31.3-1.33,46.95-0.87c1.72,0.05,3.45,0.13,5.17,0.24c1.29,0.08,1.28-1.92,0-2c-15.44-0.98-30.96,0.2-46.4,0.54
				c-7,0.15-14,0.16-20.99-0.25c-4.31-0.25-8.64-0.34-12.95-0.43c-11.64-0.25-23.31-0.41-34.95-0.1c-7.03,0.18-14.05,0.7-21.09,0.75
				c-9.58,0.07-19.15-0.23-28.72-0.46c-19.35-0.47-38.71-0.95-58.06-1.42c-2.45-0.06-4.9-0.12-7.34-0.18
				C19.16,107.57,19.16,109.57,20.45,109.6L20.45,109.6z"/>
		</g>
	</g>
	<g>
		<g>
			<path class="st0" d="M32.61,100c-4.08,0.79-7.94,2.54-11.23,5.07c-0.76,0.59-1.59,1.2-2.04,2.07c-0.47,0.9-0.44,1.9,0.01,2.81
				c0.42,0.84,1.16,1.48,1.89,2.06c0.95,0.75,1.9,1.5,2.84,2.25c2.16,1.7,4.31,3.41,6.47,5.11c0.42,0.33,1,0.41,1.41,0
				c0.35-0.35,0.43-1.08,0-1.41c-1.7-1.34-3.4-2.69-5.1-4.03c-1.63-1.29-3.35-2.5-4.89-3.89c-0.44-0.4-1.09-0.98-0.98-1.65
				c0.11-0.71,0.98-1.26,1.5-1.67c1.45-1.13,3.05-2.09,4.71-2.88c1.89-0.89,3.89-1.51,5.94-1.91C34.41,101.68,33.87,99.75,32.61,100
				L32.61,100z"/>
		</g>
	</g>
</g>
<g>
	<g>
		<g>
			<path class="st1" d="M80.7,189.04c2.2-14.12,4.32-28.23,7.38-42.2c2.56-11.66,5.81-23.13,10.54-34.12
				c2.74-6.36,5.43-12.96,9.66-18.52c3.6-4.73,8.61-8.92,14.04-11.38c3.39-1.54,6.95-2.28,10.66-2.24c3.42,0.04,6.55-0.47,9.7-1.87
				c4.83-2.14,8.8-5.83,11.83-10.11c2.22-3.14,3.69-6.67,4.58-10.4c0.79-3.28,1.28-6.63,1.9-9.94c1.34-7.15,2.86-14.26,4.53-21.33
				c0.52-2.21,1.06-4.42,1.61-6.63c0.31-1.25-1.62-1.78-1.93-0.53c-1.94,7.79-3.71,15.62-5.27,23.5c-0.59,2.96-1.14,5.93-1.67,8.9
				c-0.67,3.74-1.34,7.54-2.92,11.01c-2.22,4.87-6,9.28-10.54,12.14c-2.95,1.86-6.33,3.16-9.84,3.27c-1.43,0.04-2.86-0.05-4.29,0.04
				c-1.93,0.12-3.84,0.5-5.69,1.07c-6.07,1.87-11.58,5.83-15.88,10.46c-4.51,4.85-7.46,10.81-10.13,16.81
				c-3.15,7.07-5.97,14.21-8.24,21.61c-1.32,4.29-2.47,8.62-3.49,12.98c-3.13,13.37-5.35,26.87-7.45,40.43
				c-0.34,2.17-0.67,4.35-1.01,6.52C78.58,189.77,80.5,190.31,80.7,189.04L80.7,189.04z"/>
		</g>
	</g>
	<g>
		<g>
			<path class="st1" d="M160.06,29.08c1.1-1.65,2.21-3.3,3.31-4.96c0.53-0.8,1.07-1.6,1.6-2.39c0.27-0.4,0.53-0.8,0.8-1.2
				c0.21-0.32,0.41-0.7,0.68-0.97c0.18-0.17,0.14-0.09,0.11-0.13c-0.08,0.02-0.14-0.01-0.2-0.08c0.1,0.07,0.12,0.09,0.07,0.08
				c0.05,0.25,0.17,0.5,0.22,0.76c0.17,0.92,0.33,1.84,0.53,2.76c0.41,1.9,0.9,3.77,1.47,5.63c0.38,1.23,2.31,0.7,1.93-0.53
				c-0.5-1.63-0.95-3.28-1.32-4.94c-0.19-0.85-0.37-1.7-0.52-2.56c-0.13-0.7-0.19-1.44-0.55-2.07c-0.34-0.61-0.97-1.06-1.69-1.04
				c-0.85,0.02-1.45,0.63-1.91,1.28c-1,1.41-1.92,2.88-2.88,4.31c-1.12,1.68-2.25,3.36-3.37,5.04
				C157.61,29.14,159.34,30.14,160.06,29.08L160.06,29.08z"/>
		</g>
	</g>
	<g>
		<g>
			<path class="st1" d="M75.79,178.71c0.39,2.12,0.79,4.23,1.18,6.35c0.27,1.46,0.34,4.39,2.44,4.37c1.01-0.01,1.69-0.86,2.33-1.53
				c0.71-0.75,1.42-1.5,2.11-2.26c1.44-1.57,2.86-3.17,4.24-4.79c0.35-0.41,0.4-1.01,0-1.41c-0.36-0.36-1.06-0.41-1.41,0
				c-2.32,2.71-4.69,5.39-7.21,7.92c-0.31,0.31-0.02-0.1,0.05,0.11c0,0-0.06-0.09-0.06-0.13c-0.02-0.3-0.16-0.66-0.22-0.96
				c-0.17-0.89-0.33-1.77-0.5-2.66c-0.34-1.84-0.69-3.69-1.03-5.53c-0.1-0.53-0.74-0.83-1.23-0.7
				C75.93,177.63,75.69,178.17,75.79,178.71L75.79,178.71z"/>
		</g>
	</g>
</g>
<g>
	<g>
		<g>
			<path d="M54.55,192.64c2.15-0.94,4.08-2.39,5.59-4.19c0.17-0.21,0.2-0.5,0-0.71c-0.18-0.18-0.53-0.21-0.71,0
				c-1.46,1.74-3.3,3.12-5.39,4.03c-0.25,0.11-0.3,0.47-0.18,0.68C54.01,192.71,54.3,192.75,54.55,192.64L54.55,192.64z"/>
		</g>
	</g>
	<g>
		<g>
			<path d="M65.13,183.9c1.94-1.6,3.43-3.66,4.41-5.97c0.1-0.25-0.11-0.55-0.35-0.62c-0.29-0.08-0.51,0.1-0.62,0.35
				c-0.9,2.15-2.35,4.05-4.15,5.53c-0.21,0.17-0.18,0.53,0,0.71C64.63,184.11,64.92,184.07,65.13,183.9L65.13,183.9z"/>
		</g>
	</g>
	<g>
		<g>
			<path d="M76.49,172.06c1.75-2.34,3.5-4.68,5.25-7.01c0.16-0.22,0.03-0.56-0.18-0.68c-0.25-0.15-0.52-0.04-0.68,0.18
				c-1.75,2.34-3.5,4.68-5.25,7.01c-0.16,0.22-0.03,0.56,0.18,0.68C76.06,172.39,76.33,172.27,76.49,172.06L76.49,172.06z"/>
		</g>
	</g>
	<g>
		<g>
			<path d="M87.78,158.53c1.52-1.34,3.05-2.69,4.57-4.03c0.2-0.18,0.18-0.52,0-0.71c-0.2-0.2-0.5-0.18-0.71,0
				c-1.52,1.34-3.05,2.69-4.57,4.03c-0.2,0.18-0.18,0.52,0,0.71C87.27,158.73,87.58,158.71,87.78,158.53L87.78,158.53z"/>
		</g>
	</g>
	<g>
		<g>
			<path d="M99.81,146.2c1.8-1.81,3.6-3.62,5.41-5.42c0.45-0.46-0.25-1.16-0.71-0.71c-1.8,1.81-3.6,3.62-5.41,5.42
				C98.65,145.95,99.36,146.66,99.81,146.2L99.81,146.2z"/>
		</g>
	</g>
	<g>
		<g>
			<path d="M110.41,136.54c0.84-1.49,1.94-2.8,3.26-3.88c0.21-0.17,0.18-0.53,0-0.71c-0.21-0.21-0.5-0.17-0.71,0
				c-1.38,1.13-2.54,2.53-3.42,4.09C109.23,136.6,110.09,137.1,110.41,136.54L110.41,136.54z"/>
		</g>
	</g>
	<g>
		<g>
			<path d="M120.81,126.11c2.14-2.22,4.28-4.43,6.41-6.65c0.45-0.46-0.26-1.17-0.71-0.71c-2.14,2.22-4.28,4.43-6.41,6.65
				C119.66,125.87,120.37,126.57,120.81,126.11L120.81,126.11z"/>
		</g>
	</g>
	<g>
		<g>
			<path d="M133.65,113.31c1.49-1.7,2.99-3.39,4.48-5.09c0.42-0.48-0.28-1.19-0.71-0.71c-1.49,1.7-2.99,3.39-4.48,5.09
				C132.52,113.08,133.22,113.79,133.65,113.31L133.65,113.31z"/>
		</g>
	</g>
	<g>
		<g>
			<path d="M145.22,101.93c0.99-1.85,2.49-3.37,4.31-4.4c0.56-0.32,0.06-1.18-0.5-0.86c-1.97,1.11-3.6,2.77-4.67,4.76
				C144.05,101.99,144.91,102.5,145.22,101.93L145.22,101.93z"/>
		</g>
	</g>
	<g>
		<g>
			<path d="M156.67,91.9c2.38-1.46,4.36-3.55,5.67-6.02c0.3-0.57-0.56-1.07-0.86-0.5c-1.24,2.32-3.07,4.28-5.32,5.66
				C155.62,91.37,156.12,92.24,156.67,91.9L156.67,91.9z"/>
		</g>
	</g>
	<g>
		<g>
			<path d="M169.17,78.74c1.32-1.34,2.64-2.67,3.96-4.01c0.45-0.46-0.25-1.17-0.71-0.71c-1.32,1.34-2.64,2.67-3.96,4.01
				C168.01,78.49,168.71,79.2,169.17,78.74L169.17,78.74z"/>
		</g>
	</g>
	<g>
		<g>
			<path d="M178.49,70.81c2.76-3.24,5.52-6.48,8.28-9.72c0.42-0.49-0.29-1.2-0.71-0.71c-2.76,3.24-5.52,6.48-8.28,9.72
				C177.37,70.59,178.07,71.3,178.49,70.81L178.49,70.81z"/>
		</g>
	</g>
	<g>
		<g>
			<path d="M192.84,55.72c1.81-1.8,3.62-3.6,5.43-5.4c0.46-0.45-0.25-1.16-0.71-0.71c-1.81,1.8-3.62,3.6-5.43,5.4
				C191.68,55.46,192.39,56.17,192.84,55.72L192.84,55.72z"/>
		</g>
	</g>
	<g>
		<g>
			<path d="M202.1,46.61c1.62-2.27,3.24-4.54,4.86-6.81c0.37-0.52-0.49-1.02-0.86-0.5c-1.62,2.27-3.24,4.54-4.86,6.81
				C200.86,46.63,201.73,47.13,202.1,46.61L202.1,46.61z"/>
		</g>
	</g>
	<g>
		<g>
			<path d="M211.06,34.58c1.73-1.54,3.23-3.31,4.48-5.26c0.35-0.54-0.52-1.05-0.86-0.5c-1.2,1.88-2.66,3.57-4.32,5.06
				C209.88,34.3,210.59,35.01,211.06,34.58L211.06,34.58z"/>
		</g>
	</g>
</g>
<g>
	<g>
		<g>
			<path class="st2" d="M62.59,162.68c14.12-2.2,28.23-4.32,42.2-7.38c11.63-2.55,23.07-5.79,34.03-10.5
				c6.42-2.76,13.07-5.45,18.73-9.64c4.78-3.54,9.01-8.32,11.76-13.61c1.77-3.39,2.99-7.16,3.18-11c0.07-1.42-0.02-2.84,0.03-4.27
				c0.07-1.72,0.44-3.38,1-5c1.78-5.12,5.48-9.41,9.85-12.53c3.05-2.17,6.41-3.6,10.04-4.47c3.28-0.79,6.63-1.28,9.94-1.9
				c7.15-1.34,14.26-2.86,21.33-4.53c2.21-0.52,4.42-1.06,6.63-1.61c1.25-0.31,0.72-2.24-0.53-1.93c-7.79,1.94-15.62,3.71-23.5,5.27
				c-2.96,0.59-5.93,1.14-8.9,1.67c-3.75,0.67-7.48,1.38-10.99,2.9c-4.97,2.15-9.43,5.88-12.56,10.29c-2.06,2.9-3.63,6.33-4.15,9.87
				c-0.44,3.07,0.04,6.17-0.61,9.23c-1.35,6.46-5.25,12.21-9.93,16.78c-4.7,4.59-10.61,7.55-16.55,10.21
				c-7.07,3.17-14.22,5.99-21.63,8.26c-4.29,1.32-8.62,2.47-12.98,3.49c-13.37,3.13-26.87,5.35-40.43,7.45
				c-2.17,0.34-4.35,0.67-6.52,1.01C60.79,160.95,61.33,162.88,62.59,162.68L62.59,162.68z"/>
		</g>
	</g>
	<g>
		<g>
			<path class="st2" d="M223.04,83.13c2.93-1.96,5.87-3.92,8.8-5.88c0.61-0.41,1.29-0.82,1.63-1.5c0.36-0.72,0.21-1.59-0.38-2.14
				c-0.5-0.47-1.18-0.64-1.84-0.75c-0.82-0.14-1.65-0.3-2.46-0.47c-1.93-0.41-3.84-0.91-5.73-1.49c-1.23-0.38-1.76,1.55-0.53,1.93
				c1.85,0.57,3.73,1.07,5.63,1.47c0.92,0.2,1.84,0.36,2.76,0.53c0.27,0.05,0.51,0.13,0.76,0.22c-0.01-0.05,0.01-0.03,0.08,0.07
				c-0.03-0.05-0.06-0.09-0.08-0.14c-0.1-0.05,0.14-0.23-0.13,0.04c-0.27,0.27-0.66,0.47-0.97,0.68c-0.4,0.27-0.8,0.53-1.2,0.8
				c-0.8,0.53-1.6,1.07-2.39,1.6c-1.65,1.1-3.3,2.21-4.96,3.31C220.96,82.11,221.96,83.84,223.04,83.13L223.04,83.13z"/>
		</g>
	</g>
	<g>
		<g>
			<path class="st2" d="M72.93,163.74c-1.84-0.34-3.69-0.69-5.53-1.03c-0.89-0.17-1.77-0.33-2.66-0.5
				c-0.32-0.06-0.64-0.16-0.95-0.21c-0.05-0.01-0.14-0.07-0.14-0.06c0.19,0.04-0.2,0.36,0.11,0.05c2.53-2.52,5.21-4.89,7.92-7.21
				c0.41-0.35,0.36-1.05,0-1.41c-0.41-0.41-1-0.35-1.41,0c-1.62,1.39-3.22,2.8-4.79,4.24c-0.76,0.7-1.51,1.4-2.26,2.11
				c-0.67,0.63-1.52,1.32-1.53,2.33c-0.02,2.1,2.91,2.17,4.37,2.44c2.12,0.39,4.23,0.79,6.35,1.18c0.53,0.1,1.08-0.15,1.23-0.7
				C73.76,164.48,73.46,163.84,72.93,163.74L72.93,163.74z"/>
		</g>
	</g>
</g>
<g>
	<g>
		<g>
			<path class="st1" d="M46.43,62.95c-0.4,2.17-0.53,4.39-0.34,6.59c0.13,1.47,0.27,3.61,2.14,3.83c1.61,0.19,2.78-1.09,3.3-2.46
				c0.6-1.58,0.56-3.9,2.35-4.68c-0.24-0.1-0.49-0.2-0.73-0.3c1.48,7.01-1.42,14.7-7.17,18.97c-0.51,0.38-0.01,1.25,0.5,0.86
				c6.14-4.56,9.21-12.62,7.63-20.1c-0.07-0.35-0.46-0.42-0.73-0.3c-1.24,0.54-1.86,1.83-2.2,3.07c-0.38,1.38-0.55,3.35-2.15,3.87
				c-1.95,0.63-1.91-2.28-1.98-3.48c-0.1-1.88,0.02-3.76,0.36-5.61C47.51,62.59,46.55,62.32,46.43,62.95L46.43,62.95z"/>
		</g>
	</g>
	<g>
		<g>
			<path class="st1" d="M58.54,72.61c2.44,0.08,4.89-0.21,7.24-0.88c0.62-0.18,0.36-1.14-0.27-0.96c-2.27,0.64-4.61,0.93-6.97,0.84
				C57.9,71.59,57.9,72.59,58.54,72.61L58.54,72.61z"/>
		</g>
	</g>
	<g>
		<g>
			<path class="st1" d="M58.54,77.5c2.59-0.19,5.19-0.09,7.75,0.32c0.63,0.1,0.9-0.86,0.27-0.96c-2.65-0.43-5.34-0.55-8.02-0.35
				C57.9,76.55,57.9,77.55,58.54,77.5L58.54,77.5z"/>
		</g>
	</g>
	<g>
		<g>
			<path class="st1" d="M70.79,67.59c1.5-0.53,3.06,0.06,4.12,1.18c1.15,1.2,1.49,2.85,0.96,4.42c-0.54,1.59-1.86,2.89-3.38,3.56
				c-0.98,0.44-3.34,0.69-2.86,2.32c0.06,0.19,0.26,0.39,0.48,0.37c3.24-0.33,6.49-0.19,9.69,0.44c0.33,0.07,0.77-0.23,0.62-0.62
				c-0.12-0.31-0.25-0.62-0.37-0.92c-0.24-0.59-1.21-0.33-0.96,0.27c0.12,0.31,0.25,0.62,0.37,0.92c0.21-0.21,0.41-0.41,0.62-0.62
				c-3.28-0.65-6.63-0.82-9.95-0.48c0.16,0.12,0.32,0.24,0.48,0.37c-0.17-0.57,1.75-0.92,2.12-1.07c0.79-0.33,1.51-0.79,2.15-1.36
				c1.3-1.16,2.21-2.82,2.26-4.58c0.09-3.26-3.37-6.31-6.6-5.17C69.92,66.84,70.18,67.81,70.79,67.59L70.79,67.59z"/>
		</g>
	</g>
	<g>
		<g>
			<path class="st1" d="M83.45,69.6c1.85,3.09,3.71,6.18,5.56,9.28c0.33,0.55,1.2,0.05,0.86-0.5c-1.85-3.09-3.71-6.18-5.56-9.28
				C83.99,68.55,83.12,69.05,83.45,69.6L83.45,69.6z"/>
		</g>
	</g>
	<g>
		<g>
			<path class="st1" d="M89.73,68.89c-2.19,3.84-4.38,7.68-6.58,11.53c-0.32,0.56,0.54,1.06,0.86,0.5
				c2.19-3.84,4.38-7.68,6.58-11.53C90.92,68.84,90.05,68.33,89.73,68.89L89.73,68.89z"/>
		</g>
	</g>
	<g>
		<g>
			<path class="st1" d="M90.21,64.2c1.12-0.52,2.49-0.08,2.87,1.17c0.33,1.08-0.53,2.3-1.64,2.44c-0.54,0.07-0.71,0.8-0.13,0.98
				c1,0.31,2.84,0.96,2.48,2.35c-0.44,1.7-2.71,1.58-4.05,1.48c-0.64-0.04-0.64,0.96,0,1c1.1,0.08,2.26,0.13,3.29-0.33
				c0.83-0.37,1.56-1.11,1.75-2.02c0.41-1.97-1.66-2.97-3.2-3.45c-0.04,0.33-0.09,0.65-0.13,0.98c1.73-0.21,3.13-1.94,2.6-3.7
				c-0.24-0.81-0.85-1.5-1.61-1.86c-0.91-0.43-1.83-0.32-2.73,0.1C89.12,63.61,89.63,64.47,90.21,64.2L90.21,64.2z"/>
		</g>
	</g>
	<g>
		<g>
			<path class="st1" d="M98.72,73.43c1.81-0.03,3.61-0.05,5.42-0.08c0.6-0.01,1.7,0.03,1.73-0.83c0.03-0.7-0.94-1.14-1.33-0.48
				c-0.33,0.55,0.53,1.06,0.86,0.5c-0.42,0.26-0.58,0.18-0.48-0.23c-0.02,0-0.04,0.01-0.06,0.01c-0.06-0.02-0.19,0.01-0.26,0.02
				c-0.29,0.01-0.57,0.01-0.86,0.01c-0.55,0.01-1.1,0.02-1.65,0.02c-1.12,0.02-2.25,0.03-3.37,0.05
				C98.08,72.44,98.08,73.44,98.72,73.43L98.72,73.43z"/>
		</g>
	</g>
	<g>
		<g>
			<path class="st1" d="M101.7,68.84c-0.15,3-0.3,6-0.45,9.01c-0.03,0.64,0.97,0.64,1,0c0.15-3,0.3-6,0.45-9.01
				C102.73,68.2,101.73,68.2,101.7,68.84L101.7,68.84z"/>
		</g>
	</g>
	<g>
		<g>
			<path class="st1" d="M118.02,64.2c-1.11-0.77-2.81-1.67-4.12-0.85c-0.72,0.45-0.99,1.27-1.22,2.05
				c-0.28,0.96-0.46,1.95-0.56,2.94c-0.07,0.78-0.28,1.88,0.2,2.57c0.42,0.61,1.16,0.59,1.82,0.54c0.78-0.06,1.4,0.03,1.64,0.87
				c0.22,0.74-0.07,1.43-0.62,1.93c-1.55,1.39-3.99,1.11-5.81,1.94c-0.58,0.27-0.08,1.13,0.5,0.86c1.57-0.72,3.37-0.62,4.93-1.37
				c1.22-0.58,2.21-1.71,2.06-3.13c-0.14-1.33-1.11-2.2-2.44-2.11c-0.32,0.02-0.69,0.11-1.01,0.04c-0.49-0.12-0.35-0.92-0.33-1.32
				c0.04-0.99,0.18-1.97,0.43-2.93c0.22-0.87,0.44-2.17,1.56-2.18c0.89-0.01,1.76,0.53,2.46,1.03
				C118.04,65.43,118.54,64.57,118.02,64.2L118.02,64.2z"/>
		</g>
	</g>
</g>
<g>
	<g>
		<g>
			<path class="st2" d="M160.15,142.54c-0.45,1.38-0.64,2.84-0.49,4.29c0.1,0.99,0.3,2.26,1.26,2.8c1.06,0.59,2.09-0.26,2.74-1.04
				c1.03-1.22,2.03-2.46,3.05-3.69c-0.28-0.16-0.56-0.32-0.84-0.49c-1.36,5.31-3.5,10.39-6.34,15.09c-0.33,0.55,0.53,1.06,0.86,0.5
				c2.88-4.76,5.06-9.93,6.44-15.33c0.12-0.45-0.5-0.89-0.84-0.49c-0.76,0.92-1.52,1.85-2.28,2.77c-0.43,0.52-1.44,2.21-2.29,1.8
				c-0.76-0.36-0.78-1.82-0.81-2.51c-0.05-1.18,0.13-2.33,0.49-3.46C161.32,142.19,160.35,141.93,160.15,142.54L160.15,142.54z"/>
		</g>
	</g>
	<g>
		<g>
			<path class="st2" d="M169.63,150c1.28-0.86,2.99-1.03,4.39-0.36c0.24,0.12,0.54,0.07,0.68-0.18c0.13-0.22,0.07-0.57-0.18-0.68
				c-1.72-0.82-3.81-0.71-5.4,0.36c-0.22,0.15-0.32,0.44-0.18,0.68C169.08,150.04,169.41,150.15,169.63,150L169.63,150z"/>
		</g>
	</g>
	<g>
		<g>
			<path class="st2" d="M167.17,154.46c2.31-0.35,4.66-0.48,6.99-0.41c0.64,0.02,0.64-0.98,0-1c-2.43-0.08-4.86,0.08-7.26,0.44
				c-0.27,0.04-0.41,0.38-0.35,0.62C166.63,154.4,166.91,154.5,167.17,154.46L167.17,154.46z"/>
		</g>
	</g>
	<g>
		<g>
			<path class="st2" d="M183.35,142.42c1.05-0.38,3-1.05,3.64,0.35c0.51,1.1-1.08,1.83-1.86,2.14c-0.36,0.15-0.54,0.7-0.12,0.91
				c1.14,0.58,3.05,1.65,2.95,3.17c-0.1,1.57-2.06,1.89-3.29,1.79c-0.64-0.05-0.64,0.95,0,1c1.74,0.14,3.99-0.53,4.27-2.53
				c0.29-2.05-1.84-3.49-3.42-4.3c-0.04,0.3-0.08,0.61-0.12,0.91c1.33-0.53,3.21-1.63,2.56-3.37c-0.29-0.77-1.03-1.33-1.83-1.5
				c-1.04-0.23-2.08,0.11-3.05,0.46C182.48,141.67,182.74,142.64,183.35,142.42L183.35,142.42z"/>
		</g>
	</g>
	<g>
		<g>
			<path class="st2" d="M178.35,151.74c2.25-1.97,5.54,0.44,6.73,2.5c1.64,2.85,1.88,6.27,3.97,8.89c0.31,0.38,0.81,0.02,0.85-0.35
				c1.24-9.57,2.48-19.15,3.72-28.72c-0.17,0.17-0.33,0.33-0.5,0.5c9.45,0.85,18.99,0.57,28.38-0.83c2.66-0.4,5.31-0.88,7.94-1.46
				c-0.21-0.21-0.41-0.41-0.62-0.62c-0.63,3.37-1.27,6.75-1.9,10.12c-0.12,0.63,0.85,0.9,0.96,0.27c0.63-3.37,1.27-6.75,1.9-10.12
				c0.07-0.38-0.22-0.7-0.62-0.62c-9.23,2.01-18.68,2.92-28.12,2.7c-2.65-0.06-5.3-0.22-7.94-0.45c-0.29-0.03-0.47,0.25-0.5,0.5
				c-1.24,9.57-2.48,19.15-3.72,28.72c0.28-0.12,0.57-0.24,0.85-0.35c-2.28-2.87-2.23-6.92-4.56-9.75
				c-1.77-2.14-5.16-3.74-7.56-1.64C177.16,151.46,177.87,152.16,178.35,151.74L178.35,151.74z"/>
		</g>
	</g>
	<g>
		<g>
			<path class="st2" d="M197.12,141.5c2.49,3.09,4.99,6.18,7.48,9.27c0.28,0.35,0.85,0.05,0.85-0.35c0-0.33,0.01-0.66,0.01-1
				c0.01-0.64-0.99-0.64-1,0c0,0.33-0.01,0.66-0.01,1c0.28-0.12,0.57-0.24,0.85-0.35c-2.49-3.09-4.99-6.18-7.48-9.27
				C197.42,140.29,196.72,141,197.12,141.5L197.12,141.5z"/>
		</g>
	</g>
	<g>
		<g>
			<path class="st2" d="M205.19,139.74c-2.45,3.83-4.6,7.84-6.44,12.01c-0.26,0.58,0.6,1.09,0.86,0.5
				c1.83-4.16,3.98-8.18,6.44-12.01C206.4,139.7,205.53,139.2,205.19,139.74L205.19,139.74z"/>
		</g>
	</g>
	<g>
		<g>
			<path class="st2" d="M207.58,145.8c1.75,0,3.5,0,5.26,0c0.64,0,0.64-1,0-1c-1.75,0-3.5,0-5.26,0
				C206.94,144.8,206.93,145.8,207.58,145.8L207.58,145.8z"/>
		</g>
	</g>
	<g>
		<g>
			<path class="st2" d="M221.72,140.38c-1.22-0.57-2.44-1.14-3.65-1.71c-0.37-0.17-0.71,0.04-0.75,0.43
				c-0.11,0.95-0.22,1.89-0.33,2.84c-0.09,0.8-0.29,1.65-0.25,2.46c0.03,0.65,0.35,1.21,0.96,1.47c0.56,0.24,1.18,0.19,1.77,0.25
				c0.55,0.06,1.03,0.24,1.16,0.82c0.11,0.5-0.04,1.06-0.32,1.48c-0.89,1.29-2.93,0.96-4.24,0.77c-0.63-0.09-0.9,0.87-0.27,0.96
				c1.58,0.24,3.52,0.49,4.85-0.63c0.9-0.76,1.33-2.25,0.76-3.32c-0.3-0.57-0.84-0.9-1.47-1.02c-0.58-0.11-1.45,0.07-1.95-0.28
				c-0.36-0.25-0.25-0.77-0.21-1.13c0.05-0.47,0.11-0.95,0.17-1.42c0.13-1.08,0.25-2.16,0.38-3.24c-0.25,0.14-0.5,0.29-0.75,0.43
				c1.22,0.57,2.44,1.14,3.65,1.71C221.79,141.51,222.3,140.65,221.72,140.38L221.72,140.38z"/>
		</g>
	</g>
	<g>
		<g>
			<path class="st2" d="M196.01,156.01c2.29-0.51,4.6-0.85,6.94-1.02c2.35-0.17,4.71-0.03,7.07-0.19c2.21-0.15,4.33-0.77,6.49-1.22
				c1.1-0.23,2.21-0.4,3.33-0.4c1.02,0.01,2.02,0.2,3.04,0.26c0.64,0.04,0.64-0.96,0-1c-1.02-0.06-2.02-0.26-3.04-0.26
				c-1.1-0.01-2.19,0.15-3.26,0.36c-2.27,0.45-4.48,1.13-6.8,1.27c-2.35,0.14-4.71,0.02-7.06,0.19c-2.34,0.18-4.67,0.53-6.96,1.03
				C195.12,155.18,195.38,156.15,196.01,156.01L196.01,156.01z"/>
		</g>
	</g>
	<g>
		<g>
			<path class="st2" d="M206.08,158.59c1.67-0.2,3.45-0.01,4.97,0.73c0.49,0.24,1.32,0.74,1.2,1.4c-0.12,0.68-1.14,1.06-1.67,1.34
				c-0.78,0.41-1.56,0.8-2.36,1.16c-0.39,0.18-0.78,0.35-1.17,0.51c-0.34,0.14-0.9,0.24-1.11,0.56c-0.38,0.57,0.18,1.13,0.7,1.29
				c0.33,0.1,0.69,0.08,1.03,0.09c0.49,0.01,0.99,0.02,1.48,0.03c2.1,0.04,4.2,0.08,6.3,0.12c0.64,0.01,0.64-0.99,0-1
				c-1.51-0.03-3.03-0.06-4.54-0.09c-0.74-0.01-1.48-0.03-2.22-0.04c-0.37-0.01-0.74-0.01-1.11-0.02c-0.17,0-0.35,0.01-0.51-0.01
				c-0.06,0-0.11-0.02-0.16-0.04c-0.13-0.1-0.16-0.04-0.1,0.18c-0.1,0.08-0.2,0.15-0.3,0.23c1.46-0.57,2.89-1.21,4.28-1.93
				c1.05-0.54,2.64-1.23,2.47-2.67c-0.15-1.29-1.55-1.96-2.63-2.34c-1.45-0.51-3.01-0.67-4.53-0.48
				C205.45,157.66,205.44,158.66,206.08,158.59L206.08,158.59z"/>
		</g>
	</g>
</g>
<g>
	<g>
		<g>
			<path d="M211.27,13.89c-0.19,1.48-0.3,3.03-0.15,4.52c0.12,1.19,0.96,1.57,2.05,1.26c2.17-0.62,4-2.24,4.93-4.29
				c0.26-0.58-0.5-1.04-0.86-0.5c-2.38,3.49-4.76,6.97-7.14,10.46c-0.36,0.53,0.5,1.03,0.86,0.5c2.38-3.49,4.76-6.97,7.14-10.46
				c-0.29-0.17-0.58-0.34-0.86-0.5c-0.73,1.62-2.03,2.94-3.68,3.61c-0.29,0.12-0.83,0.4-1.16,0.32c-0.45-0.1-0.32-1.12-0.32-1.46
				c-0.02-1.15,0.05-2.31,0.2-3.45C212.35,13.25,211.35,13.26,211.27,13.89L211.27,13.89z"/>
		</g>
	</g>
	<g>
		<g>
			<path d="M219.22,18.83c1.01-0.36,2.09-0.47,3.13-0.29c0.27,0.05,0.54-0.07,0.62-0.35c0.07-0.24-0.08-0.57-0.35-0.62
				c-1.23-0.21-2.48-0.13-3.66,0.29c-0.25,0.09-0.42,0.34-0.35,0.62C218.67,18.73,218.96,18.92,219.22,18.83L219.22,18.83z"/>
		</g>
	</g>
	<g>
		<g>
			<path d="M217.82,22.07c1.67,0.29,3.36,0.36,5.04,0.19c0.27-0.03,0.5-0.21,0.5-0.5c0-0.25-0.23-0.53-0.5-0.5
				c-1.59,0.16-3.2,0.12-4.77-0.15c-0.27-0.05-0.54,0.07-0.62,0.35C217.4,21.69,217.55,22.02,217.82,22.07L217.82,22.07z"/>
		</g>
	</g>
	<g>
		<g>
			<path d="M225.85,16.55c2.29,1.91,4.36,4.09,6.12,6.5c0.16,0.22,0.43,0.32,0.68,0.18c0.22-0.12,0.34-0.47,0.18-0.68
				c-1.81-2.48-3.91-4.74-6.27-6.71C226.07,15.43,225.36,16.14,225.85,16.55L225.85,16.55z"/>
		</g>
	</g>
	<g>
		<g>
			<path d="M231.38,14.36c-2.21,3.28-4.42,6.56-6.64,9.84c-0.36,0.54,0.51,1.04,0.86,0.5c2.21-3.28,4.42-6.56,6.64-9.84
				C232.61,14.33,231.74,13.83,231.38,14.36L231.38,14.36z"/>
		</g>
	</g>
</g>
</svg>
