<?xml version="1.0" encoding="UTF-8"?>
<svg id="Layer_2" xmlns="http://www.w3.org/2000/svg" viewBox="0 0 257.17 200.93">
  <defs>
    <style>
      .cls-1 {
        fill: #231f20;
      }

      .cls-2 {
        fill: #ed1c24;
      }

      .cls-3 {
        fill: #00aeef;
      }

      .cls-4 {
        fill: #939598;
      }
    </style>
  </defs>
  <g id="Layer_1-2" data-name="Layer_1">
    <g>
      <path class="cls-4" d="M117.56,30.34c-.59,21.69-1.17,43.39-1.76,65.08s-1.17,43.17-1.75,64.75c-.33,12.17-.66,24.35-.99,36.52-.03,1.29,1.97,1.29,2,0,.59-21.69,1.17-43.39,1.76-65.08s1.17-43.17,1.75-64.75c.33-12.17.66-24.35.99-36.52.03-1.29-1.97-1.29-2,0h0Z"/>
      <path class="cls-4" d="M113.49,38.96c.9-3.27,2.77-6.13,5.11-8.56l-1.21.16c3.18,2.03,6.1,4.86,7.3,8.53.4,1.22,2.33.7,1.93-.53-1.36-4.18-4.58-7.4-8.21-9.72-.37-.23-.91-.15-1.21.16-2.58,2.67-4.64,5.84-5.62,9.44-.34,1.24,1.59,1.77,1.93.53h0Z"/>
      <path class="cls-4" d="M105.76,184.91c2.67,4.56,5.34,9.12,8.01,13.68.41.69,1.67.64,1.83-.24.96-5.24,3.33-10.14,6.91-14.09.86-.95-.55-2.37-1.41-1.41-3.8,4.19-6.41,9.4-7.43,14.97l1.83-.24c-2.67-4.56-5.34-9.12-8.01-13.68-.65-1.11-2.38-.1-1.73,1.01h0Z"/>
    </g>
    <g>
      <path class="cls-4" d="M223.63,107.33c1.31,1.55,3.23,2.39,4.96,3.36.9.5,1.75,1.05,2.45,1.81.48.52,1.03,1.28.6,1.97-.5.82-1.64,1.39-2.42,1.92-.93.64-1.88,1.26-2.85,1.85-2,1.23-4.05,2.37-6.15,3.42-1.15.58-.14,2.3,1.01,1.73,3.58-1.79,7.03-3.83,10.28-6.17,1.44-1.04,2.8-2.41,2.09-4.32-.61-1.67-2.17-2.87-3.66-3.73-1.69-.98-3.62-1.73-4.91-3.25-.83-.98-2.24.44-1.41,1.41h0Z"/>
      <path class="cls-4" d="M1.46,113.38c19.43.48,38.86.95,58.29,1.43,9.59.23,19.19.53,28.78.62,8.36.08,16.66-.28,25-.64,11.27-.48,22.59-.28,33.86-.08,10.82.18,21.63.95,32.45.85,15.65-.14,31.3-1.33,46.95-.87,1.72.05,3.45.13,5.17.24,1.29.08,1.28-1.92,0-2-15.44-.98-30.96.2-46.4.54-7,.15-14,.16-20.99-.25-4.31-.25-8.64-.34-12.95-.43-11.64-.25-23.31-.41-34.95-.1-7.03.18-14.05.7-21.09.75-9.58.07-19.15-.23-28.72-.46-19.35-.47-38.71-.95-58.06-1.42l-7.34-.18c-1.29-.03-1.29,1.97,0,2h0Z"/>
      <path class="cls-4" d="M13.63,103.77c-4.08.79-7.94,2.54-11.23,5.07-.76.59-1.59,1.2-2.04,2.07s-.44,1.9.01,2.81c.42.84,1.16,1.48,1.89,2.06.95.75,1.9,1.5,2.84,2.25,2.16,1.7,4.31,3.41,6.47,5.11.42.33,1,.41,1.41,0,.35-.35.43-1.08,0-1.41-1.7-1.34-3.4-2.69-5.1-4.03s-3.35-2.5-4.89-3.89c-.44-.4-1.09-.98-.98-1.65.11-.71.98-1.26,1.5-1.67,1.45-1.13,3.05-2.09,4.71-2.88,1.89-.89,3.89-1.51,5.94-1.91,1.26-.25.73-2.17-.53-1.93h0Z"/>
    </g>
    <g>
      <g>
        <path class="cls-2" d="M61.72,192.82c2.2-14.12,4.32-28.23,7.38-42.2,2.56-11.66,5.81-23.13,10.54-34.12,2.74-6.36,5.43-12.96,9.66-18.52,3.6-4.73,8.61-8.92,14.04-11.38,3.39-1.54,6.95-2.28,10.66-2.24,3.42.04,6.55-.47,9.7-1.87,4.83-2.14,8.8-5.83,11.83-10.11,2.22-3.14,3.69-6.67,4.58-10.4.79-3.28,1.28-6.63,1.9-9.94,1.34-7.15,2.86-14.26,4.53-21.33.52-2.21,1.06-4.42,1.61-6.63.31-1.25-1.62-1.78-1.93-.53-1.94,7.79-3.71,15.62-5.27,23.5-.59,2.96-1.14,5.93-1.67,8.9-.67,3.74-1.34,7.54-2.92,11.01-2.22,4.87-6,9.28-10.54,12.14-2.95,1.86-6.33,3.16-9.84,3.27-1.43.04-2.86-.05-4.29.04-1.93.12-3.84.5-5.69,1.07-6.07,1.87-11.58,5.83-15.88,10.46s-7.46,10.81-10.13,16.81c-3.15,7.07-5.97,14.21-8.24,21.61-1.32,4.29-2.47,8.62-3.49,12.98-3.13,13.37-5.35,26.87-7.45,40.43-.34,2.17-.67,4.35-1.01,6.52-.2,1.26,1.73,1.8,1.93.53h0Z"/>
        <path class="cls-2" d="M141.07,32.85l3.31-4.96,1.6-2.39.8-1.2c.21-.32.41-.7.68-.97.18-.17.14-.09.11-.13-.08.02-.14,0-.2-.08.1.07.12.09.07.08.05.25.17.5.22.76.17.92.33,1.84.53,2.76.41,1.9.9,3.77,1.47,5.63.38,1.23,2.31.7,1.93-.53-.5-1.63-.95-3.28-1.32-4.94-.19-.85-.37-1.7-.52-2.56-.13-.7-.19-1.44-.55-2.07s-.97-1.06-1.69-1.04c-.85.02-1.45.63-1.91,1.28-1,1.41-1.92,2.88-2.88,4.31l-3.37,5.04c-.72,1.07,1.01,2.08,1.73,1.01h0Z"/>
        <path class="cls-2" d="M56.81,182.48l1.18,6.35c.27,1.46.34,4.39,2.44,4.37,1.01,0,1.69-.86,2.33-1.53.71-.75,1.42-1.5,2.11-2.26,1.44-1.57,2.86-3.17,4.24-4.79.35-.41.4-1.01,0-1.41-.36-.36-1.06-.41-1.41,0-2.32,2.71-4.69,5.39-7.21,7.92-.31.31-.02-.1.05.11,0,0-.06-.09-.06-.13-.02-.3-.16-.66-.22-.96l-.5-2.66-1.03-5.53c-.1-.53-.74-.83-1.23-.7-.56.15-.8.7-.7,1.23h0Z"/>
      </g>
      <g>
        <path class="cls-2" d="M122.61,9.66c2.44.08,4.89-.21,7.24-.88.62-.18.36-1.14-.27-.96-2.27.64-4.61.93-6.97.84-.64-.02-.64.98,0,1h0Z"/>
        <path class="cls-2" d="M122.62,14.55c2.59-.19,5.19-.09,7.75.32.63.1.9-.86.27-.96-2.65-.43-5.34-.55-8.02-.35-.64.05-.64,1.05,0,1h0Z"/>
        <path class="cls-2" d="M135.86,4.64c1.5-.53,3.06.06,4.12,1.18,1.15,1.2,1.49,2.85.96,4.42s-1.86,2.89-3.38,3.56c-.98.44-3.34.69-2.86,2.32.06.19.26.39.48.37,3.24-.33,6.49-.19,9.69.44.33.07.77-.23.62-.62-.12-.31-.25-.62-.37-.92-.24-.59-1.21-.33-.96.27.12.31.25.62.37.92l.62-.62c-3.28-.65-6.63-.82-9.95-.48l.48.37c-.17-.57,1.75-.92,2.12-1.07.79-.33,1.51-.79,2.15-1.36,1.3-1.16,2.21-2.82,2.26-4.58.09-3.26-3.37-6.31-6.6-5.17-.6.21-.34,1.18.27.96h0Z"/>
        <path class="cls-2" d="M147.53,6.65c1.85,3.09,3.71,6.18,5.56,9.28.33.55,1.2.05.86-.5-1.85-3.09-3.71-6.18-5.56-9.28-.33-.55-1.2-.05-.86.5h0Z"/>
        <path class="cls-2" d="M153.81,5.94c-2.19,3.84-4.38,7.68-6.58,11.53-.32.56.54,1.06.86.5,2.19-3.84,4.38-7.68,6.58-11.53.32-.56-.54-1.06-.86-.5h0Z"/>
        <path class="cls-2" d="M154.28,1.25c1.12-.52,2.49-.08,2.87,1.17.33,1.08-.53,2.3-1.64,2.44-.54.07-.71.8-.13.98,1,.31,2.84.96,2.48,2.35-.44,1.7-2.71,1.58-4.05,1.48-.64-.04-.64.96,0,1,1.1.08,2.26.13,3.29-.33.83-.37,1.56-1.11,1.75-2.02.41-1.97-1.66-2.97-3.2-3.45l-.13.98c1.73-.21,3.13-1.94,2.6-3.7-.24-.81-.85-1.5-1.61-1.86-.91-.43-1.83-.32-2.73.1-.58.27-.08,1.13.5.86h0Z"/>
        <path class="cls-2" d="M162.8,10.47l5.42-.08c.6,0,1.7.03,1.73-.83.03-.7-.94-1.14-1.33-.48-.33.55.53,1.06.86.5-.42.26-.58.18-.48-.23-.02,0-.04,0-.06.01-.06-.02-.19.01-.26.02-.29,0-.57,0-.86.01l-1.65.02-3.37.05c-.64,0-.64,1.01,0,1h0Z"/>
        <path class="cls-2" d="M165.77,5.89l-.45,9.01c-.03.64.97.64,1,0l.45-9.01c.03-.64-.97-.64-1,0h0Z"/>
        <path class="cls-2" d="M181.09,4.25c-1.11-.77-2.81-1.67-4.12-.85-.72.45-.99,1.27-1.22,2.05-.28.96-.46,1.95-.56,2.94-.07.78-.28,1.88.2,2.57.42.61,1.16.59,1.82.54.78-.06,1.4.03,1.64.87.22.74-.07,1.43-.62,1.93-1.55,1.39-3.99,1.11-5.81,1.94-.58.27-.08,1.13.5.86,1.57-.72,3.37-.62,4.93-1.37,1.22-.58,2.21-1.71,2.06-3.13-.14-1.33-1.11-2.2-2.44-2.11-.32.02-.69.11-1.01.04-.49-.12-.35-.92-.33-1.32.04-.99.18-1.97.43-2.93.22-.87.44-2.17,1.56-2.18.89-.01,1.76.53,2.46,1.03.53.37,1.03-.5.5-.86h0Z"/>
        <path class="cls-2" d="M92.08,16.46c-.6-3.13-.59-6.39.09-9.51.25-1.15.69-2.46,1.94-2.83,1.02-.3,2.21.05,2.8.95.35.54,1.22.04.86-.5-.7-1.07-1.94-1.64-3.21-1.54-1.44.11-2.46,1.06-2.98,2.36-.66,1.65-.83,3.59-.91,5.34-.1,2.01.06,4.01.44,5.99.12.63,1.08.36.96-.27h0Z"/>
        <path class="cls-2" d="M87.57,9.86c2.65.89,5.55.89,8.18-.06.6-.22.34-1.18-.27-.96-2.48.89-5.15.91-7.65.06-.61-.21-.87.76-.27.96h0Z"/>
        <path class="cls-2" d="M103.87,4.62c-2.03,2.49-3.61,5.47-4.06,8.68-.19,1.36,0,2.79,1.11,3.73,1.04.88,2.49,1.21,3.81.89.63-.15.36-1.12-.27-.96-1.07.26-2.38-.06-3.12-.9-.89-1-.62-2.45-.34-3.63.61-2.61,1.9-5.02,3.59-7.09.4-.5-.3-1.21-.71-.71h0Z"/>
        <path class="cls-2" d="M107.57,5.34c.7,1.73,1.41,3.45,2.11,5.18.35.85.69,1.7,1.04,2.55.17.41.32.83.5,1.23.15.33.37.56.61.82.43.48,1.14-.23.71-.71-.27-.29-.42-.54-.57-.91-.17-.41-.33-.82-.5-1.23-.32-.79-.65-1.58-.97-2.37-.66-1.61-1.31-3.22-1.97-4.83-.24-.59-1.21-.33-.96.27h0Z"/>
        <path class="cls-2" d="M111.95,6.8c-2.06,3.14-4.12,6.27-6.18,9.41-.35.54.51,1.04.86.5,2.06-3.14,4.12-6.27,6.18-9.41.35-.54-.51-1.04-.86-.5h0Z"/>
        <path class="cls-2" d="M114.72,5.13c1.86,1.57,3.1,3.9,2.8,6.39s-1.93,4.39-3.94,5.61c-.55.33-.05,1.2.5.86,2.28-1.38,4.08-3.64,4.42-6.34s-.98-5.46-3.08-7.23c-.49-.41-1.2.29-.71.71h0Z"/>
      </g>
    </g>
    <g>
      <g>
        <path class="cls-3" d="M43.61,166.46c14.12-2.2,28.23-4.32,42.2-7.38,11.63-2.55,23.07-5.79,34.03-10.5,6.42-2.76,13.07-5.45,18.73-9.64,4.78-3.54,9.01-8.32,11.76-13.61,1.77-3.39,2.99-7.16,3.18-11,.07-1.42-.02-2.84.03-4.27.07-1.72.44-3.38,1-5,1.78-5.12,5.48-9.41,9.85-12.53,3.05-2.17,6.41-3.6,10.04-4.47,3.28-.79,6.63-1.28,9.94-1.9,7.15-1.34,14.26-2.86,21.33-4.53,2.21-.52,4.42-1.06,6.63-1.61,1.25-.31.72-2.24-.53-1.93-7.79,1.94-15.62,3.71-23.5,5.27-2.96.59-5.93,1.14-8.9,1.67-3.75.67-7.48,1.38-10.99,2.9-4.97,2.15-9.43,5.88-12.56,10.29-2.06,2.9-3.63,6.33-4.15,9.87-.44,3.07.04,6.17-.61,9.23-1.35,6.46-5.25,12.21-9.93,16.78s-10.61,7.55-16.55,10.21c-7.07,3.17-14.22,5.99-21.63,8.26-4.29,1.32-8.62,2.47-12.98,3.49-13.37,3.13-26.87,5.35-40.43,7.45-2.17.34-4.35.67-6.52,1.01-1.27.2-.73,2.13.53,1.93h0Z"/>
        <path class="cls-3" d="M204.05,86.9c2.93-1.96,5.87-3.92,8.8-5.88.61-.41,1.29-.82,1.63-1.5.36-.72.21-1.59-.38-2.14-.5-.47-1.18-.64-1.84-.75-.82-.14-1.65-.3-2.46-.47-1.93-.41-3.84-.91-5.73-1.49-1.23-.38-1.76,1.55-.53,1.93,1.85.57,3.73,1.07,5.63,1.47.92.2,1.84.36,2.76.53.27.05.51.13.76.22-.01-.05.01-.03.08.07l-.08-.14c-.1-.05.14-.23-.13.04s-.66.47-.97.68l-1.2.8-2.39,1.6-4.96,3.31c-1.07.71-.06,2.44,1.01,1.73h0Z"/>
        <path class="cls-3" d="M53.95,167.51l-5.53-1.03-2.66-.5c-.32-.06-.64-.16-.95-.21-.05,0-.14-.07-.14-.06.19.04-.2.36.11.05,2.53-2.52,5.21-4.89,7.92-7.21.41-.35.36-1.05,0-1.41-.41-.41-1-.35-1.41,0-1.62,1.39-3.22,2.8-4.79,4.24-.76.7-1.51,1.4-2.26,2.11-.67.63-1.52,1.32-1.53,2.33-.02,2.1,2.91,2.17,4.37,2.44l6.35,1.18c.53.1,1.08-.15,1.23-.7.13-.49-.16-1.13-.7-1.23h0Z"/>
      </g>
      <g>
        <path class="cls-3" d="M215.93,61.6c.11-.08.23-.15.35-.21.14-.07.14-.07.31-.13.13-.04.26-.08.4-.11.07-.01.13-.03.2-.04-.09.01.08,0,.1,0,.13,0,.26-.01.39,0,.07,0,.14,0,.21.01.06,0,.07,0,.02,0,.03,0,.07.01.1.02.13.02.27.06.4.1.07.02.13.04.19.07.06.02.06.03.02,0,.03.01.06.03.09.04.24.12.54.07.68-.18.13-.22.07-.57-.18-.68-1.21-.57-2.67-.51-3.79.24-.22.15-.32.44-.18.68.13.22.46.33.68.18h0Z"/>
        <path class="cls-3" d="M214.91,64.61c1.54-.23,3.09-.32,4.64-.27.64.02.64-.98,0-1-1.64-.05-3.28.05-4.91.3-.27.04-.41.38-.35.62.08.29.35.39.62.35h0Z"/>
        <path class="cls-3" d="M227.06,55.7c.35-.13.72-.27,1.09-.27.23,0,.54.09.65.33.2.44-.58.76-.88.88-.36.15-.54.7-.12.91.37.19.74.41,1.05.69.23.22.5.52.46.86-.07.72-1.04.81-1.59.76-.27-.02-.5.25-.5.5,0,.29.23.48.5.5,1.06.09,2.38-.36,2.57-1.56s-1.01-2.12-1.99-2.62l-.12.91c.85-.34,1.97-1.04,1.57-2.13-.18-.5-.65-.87-1.16-.98-.62-.14-1.22.05-1.8.25-.25.09-.42.34-.35.62.07.25.36.44.62.35h0Z"/>
        <path class="cls-3" d="M222.44,64.42c.74-1.02,1.55-2.2,2.62-2.92.19-.12.47-.27.61-.27.2,0,.35.21.46.53.24.67.33,1.4.49,2.1.21.88.47,1.75.79,2.6.51,1.34,1.16,2.62,1.93,3.83.29.45.87.22.93-.25.83-6.42,1.66-12.84,2.5-19.26l-.5.5c8.16.73,16.4.2,24.4-1.54l-.62-.62c-.42,2.26-.85,4.52-1.27,6.79-.12.63.85.9.96.27.42-2.26.85-4.52,1.27-6.79.07-.38-.22-.7-.62-.62-7.92,1.72-16.06,2.22-24.13,1.5-.29-.03-.47.25-.5.5-.83,6.42-1.66,12.84-2.5,19.26l.93-.25c-.94-1.48-1.7-3.06-2.22-4.74-.3-.95-.49-1.92-.71-2.9-.13-.57-.28-1.24-.76-1.63-.59-.48-1.34-.28-1.92.1-1.24.8-2.17,2.13-3.02,3.3-.38.52.49,1.02.86.5h0Z"/>
        <path class="cls-3" d="M234.83,55.88c1.67,2.07,3.34,4.14,5.02,6.22.28.35.85.05.85-.35,0-.22,0-.45,0-.67,0-.64-.99-.64-1,0,0,.22,0,.45,0,.67l.85-.35-5.02-6.22c-.17-.21-.53-.18-.71,0-.21.21-.17.5,0,.71h0Z"/>
        <path class="cls-3" d="M240.21,54.5c-1.64,2.57-3.09,5.26-4.32,8.05-.26.58.6,1.09.86.5,1.23-2.79,2.67-5.48,4.32-8.05.35-.54-.52-1.05-.86-.5h0Z"/>
        <path class="cls-3" d="M241.96,58.81h3.52c.27,0,.5-.23.5-.5s-.23-.5-.5-.5h-3.52c-.27,0-.5.23-.5.5s.23.5.5.5h0Z"/>
        <path class="cls-3" d="M251.52,54.87l-2.45-1.15c-.37-.17-.71.04-.75.43-.07.63-.15,1.27-.22,1.9-.06.54-.19,1.11-.17,1.65.02.49.27.92.72,1.13.4.18.84.14,1.27.19.3.03.55.11.62.43.06.29-.03.62-.2.87-.55.78-1.86.56-2.66.44-.27-.04-.53.07-.62.35-.07.24.08.58.35.62,1.13.17,2.47.34,3.41-.47.66-.57.95-1.64.53-2.43-.22-.42-.63-.67-1.08-.76-.23-.04-.46-.05-.69-.07-.16,0-.45.01-.58-.11-.16-.14-.08-.44-.06-.62.03-.32.07-.63.11-.95.09-.72.17-1.45.26-2.17l-.75.43,2.45,1.15c.58.27,1.09-.59.5-.86h0Z"/>
        <path class="cls-3" d="M234.11,65.67c2.98-.25,5.93-.66,8.87-1.15s6.11-.83,9.23-.58c.64.05.64-.95,0-1-3.06-.25-6.06.05-9.09.55s-5.99.92-9.02,1.18c-.64.05-.64,1.05,0,1h0Z"/>
        <path class="cls-3" d="M240.95,67.39c1.09-.13,2.25-.02,3.25.47.26.12.77.4.73.75-.05.39-.76.65-1.05.8-.52.28-1.05.53-1.59.78-.25.11-.49.22-.74.32-.27.11-.69.19-.84.45-.29.48.11.97.57,1.11.24.07.49.06.73.07.33,0,.66.01.99.02,1.41.03,2.82.05,4.22.08.64.01.64-.99,0-1-1.01-.02-2.03-.04-3.04-.06-.5,0-.99-.02-1.49-.03-.25,0-.5,0-.75-.01-.11,0-.21,0-.32,0-.22,0,0-.18-.02.15l-.07.25.03-.06-.3.23c.99-.39,1.96-.82,2.91-1.31.78-.4,1.86-.9,1.74-1.96-.11-.94-1.09-1.43-1.88-1.71-.98-.35-2.05-.45-3.08-.33-.27.03-.5.21-.5.5,0,.25.23.53.5.5h0Z"/>
        <path class="cls-3" d="M190.08,59.56c-.3-1.85-.36-3.73-.21-5.59.05-.64-.95-.64-1,0-.16,1.96-.07,3.92.24,5.86.04.27.37.42.62.35.28-.08.39-.35.35-.62h0Z"/>
        <path class="cls-3" d="M190.62,55.18l.17,4.44.98-.13c-.22-1.53.12-3.14.91-4.47.09-.15.18-.31.31-.43.02-.02.11-.08.11-.07.01.28-.21-.31-.09.01.13.37.23.76.29,1.16.05.42.06.85.03,1.27-.02.19-.04.38-.08.56-.02.1-.06.44-.13.5l.22-.13-.06.02h.27-.04c.07.04.15.08.22.12l.08.2-.07.25.02-.03-.3.23h.04c.27-.06.42-.38.35-.62-.08-.28-.35-.4-.62-.35-.58.11-.53.92-.06,1.13.57.25.87-.37.98-.81.24-1.02.25-2.08.02-3.1-.1-.44-.22-1.02-.63-1.27-.45-.27-.97-.08-1.31.29-.62.66-1,1.66-1.23,2.51-.3,1.08-.34,2.19-.18,3.29.08.56,1,.42.98-.13l-.17-4.44c-.02-.64-1.02-.64-1,0h0Z"/>
        <path class="cls-3" d="M194.41,53.9c.28,1.45.76,2.86,1.43,4.18.17.34.68.31.86,0,.68-1.18,1.26-2.42,1.73-3.7.09-.25-.1-.55-.35-.62-.28-.08-.52.09-.62.35-.44,1.2-.99,2.35-1.63,3.46h.86c-.62-1.25-1.06-2.58-1.32-3.94-.05-.27-.37-.42-.62-.35-.28.08-.4.35-.35.62h0Z"/>
        <path class="cls-3" d="M182.23,67.86c-.48-2.52-.48-5.15.08-7.66.2-.9.53-1.94,1.51-2.23.78-.23,1.71.04,2.17.73.35.54,1.22.04.86-.5-.59-.89-1.62-1.38-2.69-1.3-1.21.09-2.07.89-2.5,1.99-.53,1.35-.67,2.93-.74,4.36-.08,1.64.05,3.27.36,4.88.12.63,1.08.36.96-.27h0Z"/>
        <path class="cls-3" d="M178.46,62.62c2.16.73,4.54.72,6.69-.05.6-.22.34-1.18-.27-.96-2,.72-4.14.73-6.16.05-.61-.21-.87.76-.27.96h0Z"/>
        <path class="cls-3" d="M200.57,57.08c-1.66,2.04-2.95,4.47-3.32,7.1-.16,1.13,0,2.32.93,3.1.87.73,2.08,1.01,3.18.74.63-.15.36-1.12-.27-.96-.83.2-1.86-.05-2.44-.71-.69-.78-.47-1.93-.25-2.85.49-2.1,1.53-4.04,2.89-5.71.4-.5-.3-1.21-.71-.71h0Z"/>
        <path class="cls-3" d="M203.55,57.74c.57,1.4,1.14,2.8,1.71,4.2.28.69.56,1.38.84,2.06.14.33.26.67.41,1,.13.29.32.48.52.71.43.48,1.14-.23.71-.71-.21-.23-.32-.41-.44-.69-.14-.33-.27-.66-.41-1-.26-.64-.52-1.28-.78-1.92-.53-1.31-1.07-2.61-1.6-3.92-.1-.25-.33-.42-.62-.35-.24.06-.45.37-.35.62h0Z"/>
        <path class="cls-3" d="M207.11,58.86c-1.67,2.54-3.34,5.09-5.01,7.63-.35.54.51,1.04.86.5,1.67-2.54,3.34-5.09,5.01-7.63.35-.54-.51-1.04-.86-.5h0Z"/>
        <path class="cls-3" d="M209.38,57.62c1.47,1.24,2.46,3.06,2.25,5.02s-1.54,3.57-3.16,4.56c-.55.33-.05,1.2.5.86,1.9-1.15,3.37-3.03,3.64-5.27s-.83-4.45-2.53-5.88c-.49-.41-1.2.29-.71.71h0Z"/>
      </g>
    </g>
    <g>
      <g>
        <path class="cls-1" d="M35.56,196.41c2.15-.94,4.08-2.39,5.59-4.19.17-.21.2-.5,0-.71-.18-.18-.53-.21-.71,0-1.46,1.74-3.3,3.12-5.39,4.03-.25.11-.3.47-.18.68.15.26.44.29.68.18h0Z"/>
        <path class="cls-1" d="M46.15,187.68c1.94-1.6,3.43-3.66,4.41-5.97.1-.25-.11-.55-.35-.62-.29-.08-.51.1-.62.35-.9,2.15-2.35,4.05-4.15,5.53-.21.17-.18.53,0,.71.21.21.5.17.71,0h0Z"/>
        <path class="cls-1" d="M57.5,175.83c1.75-2.34,3.5-4.68,5.25-7.01.16-.22.03-.56-.18-.68-.25-.15-.52-.04-.68.18-1.75,2.34-3.5,4.68-5.25,7.01-.16.22-.03.56.18.68.25.15.52.04.68-.18h0Z"/>
        <path class="cls-1" d="M68.79,162.31c1.52-1.34,3.05-2.69,4.57-4.03.2-.18.18-.52,0-.71-.2-.2-.5-.18-.71,0-1.52,1.34-3.05,2.69-4.57,4.03-.2.18-.18.52,0,.71.2.2.5.18.71,0h0Z"/>
        <path class="cls-1" d="M80.83,149.98c1.8-1.81,3.6-3.62,5.41-5.42.45-.46-.25-1.16-.71-.71-1.8,1.81-3.6,3.62-5.41,5.42-.45.46.25,1.16.71.71h0Z"/>
        <path class="cls-1" d="M91.42,140.32c.84-1.49,1.94-2.8,3.26-3.88.21-.17.18-.53,0-.71-.21-.21-.5-.17-.71,0-1.38,1.13-2.54,2.53-3.42,4.09-.32.56.55,1.07.86.5h0Z"/>
        <path class="cls-1" d="M101.83,129.89l6.41-6.65c.45-.46-.26-1.17-.71-.71l-6.41,6.65c-.45.46.26,1.17.71.71h0Z"/>
        <path class="cls-1" d="M114.66,117.09c1.49-1.7,2.99-3.39,4.48-5.09.42-.48-.28-1.19-.71-.71-1.49,1.7-2.99,3.39-4.48,5.09-.42.48.28,1.19.71.71h0Z"/>
        <path class="cls-1" d="M126.23,105.7c.99-1.85,2.49-3.37,4.31-4.4.56-.32.06-1.18-.5-.86-1.97,1.11-3.6,2.77-4.67,4.76-.3.57.56,1.07.86.5h0Z"/>
        <path class="cls-1" d="M137.68,95.67c2.38-1.46,4.36-3.55,5.67-6.02.3-.57-.56-1.07-.86-.5-1.24,2.32-3.07,4.28-5.32,5.66-.55.34-.05,1.2.5.86h0Z"/>
        <path class="cls-1" d="M150.18,82.51l3.96-4.01c.45-.46-.25-1.17-.71-.71-1.32,1.34-2.64,2.67-3.96,4.01-.45.46.25,1.17.71.71h0Z"/>
        <path class="cls-1" d="M159.5,74.58c2.76-3.24,5.52-6.48,8.28-9.72.42-.49-.29-1.2-.71-.71-2.76,3.24-5.52,6.48-8.28,9.72-.42.49.29,1.2.71.71h0Z"/>
        <path class="cls-1" d="M173.86,59.49c1.81-1.8,3.62-3.6,5.43-5.4.46-.45-.25-1.16-.71-.71l-5.43,5.4c-.46.45.25,1.16.71.71h0Z"/>
        <path class="cls-1" d="M183.12,50.38c1.62-2.27,3.24-4.54,4.86-6.81.37-.52-.49-1.02-.86-.5-1.62,2.27-3.24,4.54-4.86,6.81-.37.52.49,1.02.86.5h0Z"/>
        <path class="cls-1" d="M192.08,38.36c1.73-1.54,3.23-3.31,4.48-5.26.35-.54-.52-1.05-.86-.5-1.2,1.88-2.66,3.57-4.32,5.06-.48.43.23,1.13.71.71h0Z"/>
      </g>
      <g>
        <path class="cls-1" d="M192.28,17.66c-.19,1.48-.3,3.03-.15,4.52.12,1.19.96,1.57,2.05,1.26,2.17-.62,4-2.24,4.93-4.29.26-.58-.5-1.04-.86-.5-2.38,3.49-4.76,6.97-7.14,10.46-.36.53.5,1.03.86.5,2.38-3.49,4.76-6.97,7.14-10.46l-.86-.5c-.73,1.62-2.03,2.94-3.68,3.61-.29.12-.83.4-1.16.32-.45-.1-.32-1.12-.32-1.46-.02-1.15.05-2.31.2-3.45.08-.64-.92-.63-1,0h0Z"/>
        <path class="cls-1" d="M200.23,22.61c1.01-.36,2.09-.47,3.13-.29.27.05.54-.07.62-.35.07-.24-.08-.57-.35-.62-1.23-.21-2.48-.13-3.66.29-.25.09-.42.34-.35.62.07.25.36.44.62.35h0Z"/>
        <path class="cls-1" d="M198.83,25.84c1.67.29,3.36.36,5.04.19.27-.03.5-.21.5-.5,0-.25-.23-.53-.5-.5-1.59.16-3.2.12-4.77-.15-.27-.05-.54.07-.62.35-.07.24.08.57.35.62h0Z"/>
        <path class="cls-1" d="M206.87,20.33c2.29,1.91,4.36,4.09,6.12,6.5.16.22.43.32.68.18.22-.12.34-.47.18-.68-1.81-2.48-3.91-4.74-6.27-6.71-.49-.41-1.2.29-.71.71h0Z"/>
        <path class="cls-1" d="M212.4,18.14c-2.21,3.28-4.42,6.56-6.64,9.84-.36.54.51,1.04.86.5,2.21-3.28,4.42-6.56,6.64-9.84.36-.54-.51-1.04-.86-.5h0Z"/>
      </g>
    </g>
  </g>
</svg>