<svg xmlns="http://www.w3.org/2000/svg" viewBox="0 0 259.76 95.25">
  <defs>
    <style>
      .cls-1 {
        fill: #231f20;
      }
    </style>
  </defs>
  <title>x^2-as-function</title>
  <g id="Layer_2" data-name="Layer 2">
    <g id="Layer_1-2" data-name="Layer 1">
      <g>
        <path class="cls-1" d="M7.22,49a166.34,166.34,0,0,0,15.67,35q2.76,4.63,5.83,9.09c.36.53,1.23,0,.87-.51A164.43,164.43,0,0,1,11.77,58.9q-1.95-5-3.58-10.19C8,48.1,7,48.36,7.22,49Z" transform="translate(0 -0.01)"/>
        <path class="cls-1" d="M34.91,47.55,7.76,84.2.1,94.54c-.39.52.48,1,.86.5L28.11,58.4l7.66-10.34c.38-.52-.48-1-.86-.51Z" transform="translate(0 -0.01)"/>
      </g>
      <g>
        <path class="cls-1" d="M52.65,68.7q2.28-2.37,4.73-4.58c.83-.74,1.67-1.47,2.53-2.19l1.17-1,.68-.54.25-.2c.41-.32.14-.1-.11.08a105.78,105.78,0,0,1,11-7.24c1.91-1.07,3.87-2.07,5.85-3l1.48-.67.69-.31c.21-.09,1.26-.52.25-.11,1-.41,2-.82,3-1.2a87.76,87.76,0,0,1,12.61-3.74c1.15-.25,2.31-.47,3.47-.68l1.75-.29.82-.12.47-.06c.66-.1-.56.07-.1,0,2.39-.29,4.78-.52,7.19-.63a90.44,90.44,0,0,1,14.44.46c.55.06,1.09.15,1.64.2-1-.1,0,0,.25,0l.93.14c1.21.19,2.42.4,3.62.64q3.56.69,7,1.67t6.87,2.25c1.11.41,2.2.85,3.29,1.3.44.18-.62-.27-.18-.08l.43.19.75.33,1.72.77c8.88,4.08,17.4,9.05,26.79,11.92a7.24,7.24,0,0,0,1.55.46c-.57,0-.6-.3-.31-.11l.3.17.48.3a3.5,3.5,0,0,0,3.53-6,16.18,16.18,0,0,0-3.35-1.41q-1.74-.53-3.45-1.14T173.32,53l-.43-.18.3.13-.86-.37-1.72-.77c-4.43-2-8.75-4.26-13.13-6.37a113.17,113.17,0,0,0-14.16-5.81A89.71,89.71,0,0,0,129,36.3a95.51,95.51,0,0,0-30.65.32A93.59,93.59,0,0,0,50.06,61.38c-.8.77-1.59,1.57-2.36,2.37a3.5,3.5,0,0,0,4.95,5Z" transform="translate(0 -0.01)"/>
        <path class="cls-1" d="M174.68,42.39c-.79,2.4.23,4.84,1.61,6.79,1.11,1.56,2.26,3.1,3.43,4.62,2.48,3.22,5.06,6.34,7.79,9.36l.71-5.5a133.52,133.52,0,0,0-18.83,14.21,3.53,3.53,0,0,0,0,4.95,3.59,3.59,0,0,0,5,0q2.08-1.89,4.25-3.68c.74-.61,1.48-1.21,2.23-1.8l.54-.43c.19-.15.69-.65,0,0a12.67,12.67,0,0,1,1.1-.83c3-2.25,6.09-4.37,9.27-6.36a3.55,3.55,0,0,0,.71-5.49q-3.39-3.75-6.52-7.72l-.36-.47c-.3-.38-.18-.24,0,.06l-.78-1c-.5-.65-1-1.31-1.48-2s-1-1.34-1.45-2c-.2-.3-.37-.62-.54-.93s-.12-.26,0,0,.13.3,0,0-.1-.39-.13-.59l.13.93a3.9,3.9,0,0,1,0-.59l-.12.93a3,3,0,0,1,.14-.59A3.53,3.53,0,0,0,179,39.94a3.59,3.59,0,0,0-4.3,2.45Z" transform="translate(0 -0.01)"/>
      </g>
      <g>
        <path class="cls-1" d="M205.57,54.17a174.72,174.72,0,0,0,21.81,30.16q3.5,3.89,7.22,7.56c.46.45,1.17-.26.71-.71a174.19,174.19,0,0,1-23.42-28.6q-2.87-4.38-5.46-8.92a.5.5,0,0,0-.86.51Z" transform="translate(0 -0.01)"/>
        <path class="cls-1" d="M232.15,53.2q-11.37,15.64-22.72,31.3L203,93.38c-.38.52.49,1,.86.51l22.72-31.3L233,53.71c.38-.52-.49-1-.86-.51Z" transform="translate(0 -0.01)"/>
        <path class="cls-1" d="M237.63,38.61a18.86,18.86,0,0,1,9.31.7c2.43.84,4.52,2.47,5.14,5.06A9.4,9.4,0,0,1,250.91,51a12.91,12.91,0,0,1-5.65,5,40.41,40.41,0,0,1-8.79,2.82.5.5,0,0,0,.14,1c4-.08,8-.17,11.95,0,1.94.09,3.89.24,5.81.5.55.07,5.12.54,4.26,1.79-.36.53.51,1,.87.51,1-1.51-1.16-2.64-2.35-2.87a59.19,59.19,0,0,0-6.65-.82c-4.62-.33-9.26-.24-13.89-.14l.13,1c5.43-1.29,11.81-2.89,14.9-8a10.68,10.68,0,0,0,1.5-7.16,7.89,7.89,0,0,0-4.88-5.83,19.43,19.43,0,0,0-10.9-1.12c-.63.11-.36,1.07.27,1Z" transform="translate(0 -0.01)"/>
      </g>
      <g>
        <path class="cls-1" d="M107.34,28.66c.42-5.71-.51-11.53.78-17.16,1-4.55,3.7-9,8.49-10.2a7.82,7.82,0,0,1,6.9,1.24c.5.41,1.21-.3.71-.7-3.68-3-9.21-2.05-12.56,1-4.06,3.7-5.1,9.54-5.23,14.78-.09,3.68.18,7.36-.09,11,0,.64,1,.63,1,0Z" transform="translate(0 -0.01)"/>
        <path class="cls-1" d="M100.32,16a44.55,44.55,0,0,1,16.52,0c.63.11.9-.85.27-1a46,46,0,0,0-17.06.05c-.63.12-.36,1.08.27,1Z" transform="translate(0 -0.01)"/>
      </g>
    </g>
  </g>
</svg>
