<?xml version="1.0" encoding="UTF-8"?>
<svg id="Layer_2" xmlns="http://www.w3.org/2000/svg" viewBox="0 0 251.85 187.23">
  <defs>
    <style>
      .cls-1 {
        fill: none;
        stroke: #231f20;
        stroke-miterlimit: 10;
      }

      .cls-2 {
        fill: #ed1c24;
      }

      .cls-3 {
        fill: #fff;
      }

      .cls-4 {
        fill: #a7a9ac;
      }
    </style>
  </defs>
  <g id="Layer_1-2" data-name="Layer_1">
    <g>
      <path class="cls-4" d="M216.36,166.36c3.93-3.47,7.75-7.07,11.44-10.79.45-.45.9-.91,1.34-1.36.42-.43.93-.86,1.11-1.46.35-1.2-.7-1.94-1.57-2.52-1.63-1.07-3.47-1.73-5.25-2.49-1.91-.81-3.86-1.78-5.1-3.5-.32-.44-.87-.65-1.37-.36-.43.25-.68.93-.36,1.37,2.27,3.15,5.9,4.08,9.23,5.68.81.39,1.64.82,2.35,1.38.02.02.16.15.19.16l.06.05-.07-.37c-.07,0-.56.58-.62.64-.45.46-.89.91-1.34,1.36-1.74,1.75-3.5,3.47-5.3,5.17-2.02,1.91-4.07,3.78-6.15,5.62-.97.85.45,2.26,1.41,1.41h0Z"/>
      <path class="cls-4" d="M12.58,139.06c-3.54,1.58-6.89,3.56-9.98,5.89-.72.54-1.6,1.09-2.17,1.79-.67.81-.44,1.77.2,2.51,1.36,1.58,2.91,3.03,4.39,4.49,1.67,1.65,3.37,3.26,5.1,4.85.95.87,2.37-.54,1.41-1.41-1.76-1.61-3.49-3.26-5.19-4.93-.85-.84-1.7-1.69-2.53-2.55-.42-.43-.83-.86-1.25-1.29-.1-.11-.39-.54-.53-.56-.08-.16-.11-.1-.09.18.08-.09.17-.16.26-.24,3.34-2.9,7.36-5.2,11.38-6.99.49-.22.61-.94.36-1.37-.3-.51-.87-.58-1.37-.36h0Z"/>
      <path class="cls-4" d="M.89,149.36c13.93,3.8,28.45,3.76,42.78,3.62,15.01-.15,30.01-.31,45.02-.46,15.01-.15,30.03-.31,45.04-.46s29.87-.38,44.8-.25c16.85.15,33.71.81,50.47,2.67.39.04.9-.34.96-.73.27-1.68-.76-3.47-2.62-3.42-1.28.04-1.29,2.04,0,2,.47-.01.77.42.7.89l.96-.73c-29.66-3.3-59.56-2.79-89.35-2.49-30.03.31-60.06.62-90.09.93-16.08.17-32.47.79-48.14-3.49-1.24-.34-1.77,1.59-.53,1.93h0Z"/>
    </g>
    <g>
      <path class="cls-4" d="M105.97,35.94c1.64-4.71,3.61-9.3,5.91-13.73.57-1.09,1.16-2.18,1.76-3.25.28-.5.56-1.01.86-1.5,0,0,.26-.38.27-.37h-.15c-.2-.02-.21.02-.02.15.05.13.17.25.25.37,1.43,2.24,2.83,4.5,4.24,6.75,1.61,2.56,3.22,5.13,4.84,7.69.68,1.09,2.41.08,1.73-1.01-1.59-2.53-3.18-5.06-4.77-7.59-.77-1.23-1.55-2.46-2.32-3.69s-1.47-2.54-2.35-3.68c-.78-1.01-2.11-1.28-3-.24-.84.98-1.41,2.3-2.03,3.43-1.31,2.4-2.53,4.86-3.65,7.36-1.29,2.88-2.45,5.8-3.49,8.78-.42,1.22,1.51,1.74,1.93.53h0Z"/>
      <path class="cls-4" d="M107.48,174.19c1.58,3.63,3.52,7.09,5.8,10.32.52.74,1.04,1.63,1.71,2.24.77.7,1.78.53,2.45-.21,1.38-1.52,2.56-3.28,3.79-4.93,1.44-1.94,2.85-3.91,4.21-5.91.73-1.06-1-2.07-1.73-1.01-1.37,2-2.77,3.97-4.21,5.91-.72.97-1.44,1.92-2.18,2.88-.34.44-.69.89-1.04,1.33-.08.11-.17.21-.26.32-.23.18-.13.24.31.16.01-.05-.37-.45-.41-.51-2.69-3.58-4.94-7.49-6.73-11.59-.22-.5-.94-.61-1.37-.36-.51.3-.58.87-.36,1.37h0Z"/>
      <path class="cls-4" d="M113.38,16.64c-.36,21.9-.5,43.81-.44,65.71.07,21.8.35,43.59.84,65.38.28,12.29.62,24.59,1.03,36.88.04,1.28,2.04,1.29,2,0-.73-21.9-1.25-43.8-1.56-65.71s-.4-43.59-.28-65.38c.07-12.29.2-24.59.4-36.88.02-1.29-1.98-1.29-2,0h0Z"/>
    </g>
    <g>
      <path class="cls-2" d="M11.07,23.41c1.23,12.51,3.19,24.98,6.32,37.16s7.39,23.92,13.22,34.97c5.52,10.46,12.45,20.16,20.88,28.48s17.26,14.58,27.43,19.39c10.03,4.74,20.93,7.63,32.04,7.97,5.34.16,10.62.1,15.93-.67s10.84-2.18,16.03-4.08c10.52-3.85,20.22-9.72,28.78-16.93s16.36-16.33,22.45-26.13c6.59-10.6,11.57-22.15,15.26-34.05s6.17-24.4,7.79-36.86c.4-3.05.74-6.1,1.04-9.16.13-1.28-1.87-1.27-2,0-1.22,12.34-3.16,24.62-6.25,36.63s-7.23,23.48-12.94,34.34c-5.41,10.28-12.16,19.81-20.42,28-7.83,7.77-16.87,14.33-26.82,19.09-9.82,4.7-20.56,7.57-31.46,7.9-2.52.08-5.03-.02-7.54-.1-2.73-.09-5.46-.33-8.16-.73-5.36-.79-10.63-2.17-15.72-4.03-10.38-3.8-19.98-9.67-28.38-16.83s-15.9-16.01-21.84-25.61c-6.44-10.42-11.31-21.75-14.93-33.44s-6.1-24.05-7.69-36.34c-.39-2.99-.72-5.98-1.02-8.98-.13-1.27-2.13-1.28-2,0h0Z"/>
      <path class="cls-2" d="M23.1,31.85c-2.3-3.32-4.9-6.44-7.8-9.25-1.12-1.09-3.27-3.69-4.66-1.5-.55.86-.92,1.9-1.34,2.83-.45.99-.9,1.99-1.34,2.99-1.01,2.31-1.98,4.64-2.9,6.98-.2.5.22,1.1.7,1.23.57.16,1.03-.19,1.23-.7.92-2.34,1.89-4.65,2.9-6.95.49-1.11.99-2.22,1.5-3.32.24-.51.48-1.03.72-1.54.06-.13.12-.25.18-.37.18-.24.08-.25-.32-.03,0,.09.49.43.57.51,3.33,3.02,6.29,6.43,8.85,10.12.73,1.05,2.46.05,1.73-1.01h0Z"/>
      <path class="cls-2" d="M224.39,35.36c-1.04-3.96-2.47-7.81-4.27-11.48-.41-.84-.79-1.77-1.35-2.52-.7-.91-1.77-.82-2.58-.12-1.57,1.37-2.98,2.98-4.41,4.48-1.68,1.76-3.32,3.55-4.93,5.38-.85.96.56,2.38,1.41,1.41,1.53-1.73,3.09-3.44,4.68-5.12.77-.81,1.54-1.61,2.32-2.4.39-.4.78-.79,1.17-1.19.22-.22.45-.45.67-.67.11-.11.23-.22.34-.33.2-.15.21-.18.03-.1l-.44-.26c.38.3.58.91.8,1.34.28.54.55,1.08.81,1.62.54,1.12,1.04,2.26,1.49,3.41.92,2.31,1.69,4.68,2.32,7.09.33,1.24,2.26.72,1.93-.53h0Z"/>
    </g>
    <line class="cls-1" x1="251.5" y1="64.97" x2="251.12" y2="65.35"/>
    <g>
      <g>
        <path class="cls-3" d="M192.41,14.82c-.64-3.28-.62-6.69.06-9.96.22-1.04.53-2.12,1.29-2.85,1.28-1.25,3.7-.94,4.64.58"/>
        <path class="cls-2" d="M192.89,14.69c-.62-3.25-.62-6.65.1-9.89.27-1.21.74-2.6,2.06-2.97,1.06-.3,2.29.08,2.9,1.01.35.54,1.22.04.86-.5-.72-1.1-2-1.69-3.3-1.59-1.49.11-2.55,1.09-3.09,2.45-.7,1.76-.88,3.82-.96,5.7-.09,2.04.08,4.07.46,6.07.12.63,1.08.36.96-.27h0Z"/>
      </g>
      <g>
        <path class="cls-3" d="M188.36,7.32c1.13.39,3,.85,5.29.61,1.17-.12,2.16-.4,2.94-.68"/>
        <path class="cls-2" d="M188.23,7.8c2.75.93,5.76.92,8.5-.06.6-.22.34-1.18-.27-.96-2.59.93-5.37.94-7.97.06-.61-.21-.87.76-.27.96h0Z"/>
      </g>
      <g>
        <path class="cls-3" d="M205.53,2.75c-2.1,2.56-3.48,5.41-4.02,8.33-.21,1.11-.28,2.3.44,3.3s2.46,1.73,3.95,1.32"/>
        <path class="cls-2" d="M205.18,2.4c-2.09,2.57-3.72,5.63-4.21,8.95-.22,1.45-.02,2.98,1.18,3.96,1.08.88,2.55,1.21,3.9.88.63-.15.36-1.12-.27-.96-1.12.27-2.49-.07-3.28-.95-.93-1.05-.63-2.61-.34-3.85.64-2.7,1.98-5.17,3.72-7.31.4-.5-.3-1.21-.71-.71h0Z"/>
      </g>
      <g>
        <path class="cls-3" d="M209.52,2.98c1.27,3.1,2.53,6.21,3.8,9.31.1.25.33.42.51.62"/>
        <path class="cls-2" d="M209.04,3.12c.73,1.79,1.47,3.59,2.2,5.38.36.88.72,1.76,1.08,2.65.17.43.34.86.52,1.28.15.34.39.57.63.84.43.48,1.14-.23.71-.71-.28-.31-.44-.57-.6-.95-.17-.43-.35-.85-.52-1.28-.34-.82-.67-1.64-1.01-2.46-.68-1.67-1.37-3.35-2.05-5.02-.24-.59-1.21-.33-.96.27h0Z"/>
      </g>
      <g>
        <path class="cls-3" d="M214.01,4.9c-2.14,3.26-4.28,6.52-6.42,9.78"/>
        <path class="cls-2" d="M213.58,4.65c-2.14,3.26-4.28,6.52-6.42,9.78-.35.54.51,1.04.86.5,2.14-3.26,4.28-6.52,6.42-9.78.35-.54-.51-1.04-.86-.5h0Z"/>
      </g>
      <g>
        <path class="cls-3" d="M216.82,2.54c2.16,1.78,3.32,4.37,3.08,6.89s-1.89,4.93-4.37,6.39"/>
        <path class="cls-2" d="M216.47,2.89c1.94,1.63,3.23,4.06,2.92,6.65s-2.01,4.58-4.11,5.85c-.55.33-.05,1.2.5.86,2.37-1.43,4.24-3.78,4.59-6.58s-1.02-5.66-3.2-7.49c-.49-.41-1.2.29-.71.71h0Z"/>
      </g>
      <g>
        <path class="cls-3" d="M224.37,8.76c1.18-.52,2.47-.79,3.75-.77"/>
        <path class="cls-2" d="M224.62,9.19c1.1-.48,2.3-.71,3.5-.7.64,0,.64-.99,0-1-1.38-.01-2.74.28-4,.84-.25.11-.3.47-.18.68.15.26.44.29.68.18h0Z"/>
      </g>
      <g>
        <path class="cls-3" d="M224.24,11.37c1.52.2,3.11-.1,4.45-.83"/>
        <path class="cls-2" d="M224.24,11.87c1.62.2,3.27-.13,4.71-.9.57-.3.06-1.17-.5-.86-1.29.69-2.75.94-4.2.76-.27-.03-.5.25-.5.5,0,.3.23.47.5.5h0Z"/>
      </g>
      <g>
        <path class="cls-3" d="M233.33,4.49c1.95,4.04,4.61,7.71,7.81,10.77"/>
        <path class="cls-2" d="M232.9,4.74c1.97,4.05,4.64,7.75,7.89,10.88.46.45,1.17-.26.71-.71-3.19-3.07-5.79-6.69-7.73-10.67-.28-.58-1.14-.07-.86.5h0Z"/>
      </g>
      <g>
        <path class="cls-3" d="M239.67,3.12c-1.71,4.01-3.64,7.93-5.78,11.73"/>
        <path class="cls-2" d="M239.24,2.87c-1.72,4.01-3.64,7.93-5.78,11.73-.32.56.55,1.07.86.5,2.13-3.8,4.06-7.72,5.78-11.73.25-.59-.61-1.1-.86-.5h0Z"/>
      </g>
      <g>
        <path class="cls-3" d="M242.29.74c.79-.58,2.03-.06,2.4.85s.03,1.97-.59,2.72-1.5,1.25-2.35,1.73c1.25.34,2.61.29,3.83-.16"/>
        <path class="cls-2" d="M242.54,1.17c.4-.27.87-.2,1.26.08.45.33.6.88.52,1.42-.22,1.47-1.66,2.27-2.83,2.93-.37.21-.29.8.12.91,1.34.36,2.78.31,4.09-.16.25-.09.42-.34.35-.62-.07-.25-.36-.44-.62-.35-1.15.41-2.38.48-3.56.16l.12.91c1.56-.88,3.33-2.05,3.34-4.06,0-.85-.39-1.62-1.12-2.07-.66-.4-1.54-.48-2.19-.03-.22.15-.32.44-.18.68.13.22.46.33.68.18h0Z"/>
      </g>
    </g>
  </g>
</svg>