<?xml version="1.0" encoding="UTF-8"?>
<svg id="Layer_2" data-name="Layer 2" xmlns="http://www.w3.org/2000/svg" viewBox="0 0 280.16 203.01">
  <defs>
    <style>
      .cls-1 {
        fill: #ed1c24;
      }

      .cls-1, .cls-2, .cls-3 {
        stroke-width: 0px;
      }

      .cls-2 {
        fill: #bcbec0;
      }

      .cls-3 {
        fill: #231f20;
      }
    </style>
  </defs>
  <g id="Layer_1-2" data-name="Layer 1">
    <g>
      <path class="cls-3" d="M158.11,46.53c1.31-2.33,2.77-4.58,4.4-6.7.83-1.09,1.71-2.14,2.62-3.16.74-.83,1.68-2.1,2.9-2.15,1.6-.07,2.97,1.99,3.78,3.12,1.05,1.46,1.98,3,2.88,4.55.62,1.08,1.22,2.18,1.8,3.28.3.57,1.17.06.86-.5-1.46-2.74-2.97-5.49-4.81-8.01-.98-1.34-2.24-3.09-4-3.4-1.19-.21-2.24.47-3.06,1.26-1.01.98-1.92,2.09-2.8,3.18-2.04,2.52-3.86,5.2-5.45,8.03-.31.56.55,1.07.86.5h0Z"/>
      <path class="cls-3" d="M167.26,34.97c.09,21.86-.08,43.72-.35,65.57s-.64,43.48-.99,65.22c-.19,12.25-.39,24.51-.58,36.76-.01.64.99.64,1,0,.35-21.84.7-43.68,1.04-65.52.34-21.74.66-43.49.82-65.24.08-12.27.11-24.53.06-36.8,0-.64-1-.64-1,0h0Z"/>
    </g>
    <g>
      <path class="cls-3" d="M8.58,153.95c-2.63,3.01-5.29,6-7.85,9.07-.24.29-.54.59-.67.94-.23.67.2,1.04.71,1.35.75.45,1.42,1.04,2.1,1.58,1.93,1.53,3.83,3.09,5.73,4.65.49.41,1.2-.3.71-.71-2.51-2.07-4.99-4.22-7.63-6.11-.16-.12-.39-.21-.53-.35-.17-.15-.12-.04-.03-.27.02-.05-.07.09.02-.02.1-.12.2-.24.3-.36.86-1.04,1.75-2.05,2.63-3.07,1.73-2,3.47-4,5.21-5.99.42-.48-.28-1.19-.71-.71h0Z"/>
      <path class="cls-3" d="M1.24,164.06c34.34-.3,68.67-.54,103.01-.69,34.19-.16,68.39-.24,102.58-.26,19.3,0,38.61,0,57.91.04.64,0,.64-1,0-1-34.39-.07-68.79-.06-103.18.02-34.17.08-68.34.23-102.51.45-19.27.12-38.54.27-57.81.44-.64,0-.64,1.01,0,1h0Z"/>
      <path class="cls-3" d="M256.4,154.6c2.14,2.39,4.29,4.94,6.85,6.91.52.4,1.23.93.91,1.68-.37.87-1.68,1.43-2.43,1.9-2.07,1.3-4.15,2.61-6.22,3.91-.54.34-.04,1.21.5.86,1.8-1.13,3.59-2.26,5.39-3.39.83-.52,1.71-1.01,2.5-1.6.55-.4,1.09-.92,1.27-1.6.32-1.25-.69-2.03-1.54-2.71s-1.67-1.48-2.45-2.27c-1.41-1.42-2.76-2.9-4.09-4.4-.43-.48-1.13.23-.71.71h0Z"/>
    </g>
    <g>
      <path class="cls-3" d="M173,11.82c-.09-2.31-.19-4.61-.28-6.92-.01-.31-.31-.59-.63-.48-5.27,1.8-10.52,3.68-15.74,5.64-.41.15-.49.66-.12.91,3.91,2.63,8.06,4.86,12.4,6.68v-.96c-3.82,1.38-7.23,3.69-9.9,6.74-.28.32-.1.84.35.85,4.85.13,9.68.54,14.48,1.24.4.06.68-.21.62-.62-.22-1.37-.44-2.74-.66-4.11-.1-.63-1.07-.36-.96.27.22,1.37.44,2.74.66,4.11l.62-.62c-4.89-.71-9.81-1.14-14.75-1.27l.35.85c2.56-2.92,5.81-5.17,9.46-6.48.49-.18.45-.77,0-.96-4.26-1.78-8.33-4-12.16-6.58l-.12.91c5.22-1.96,10.46-3.83,15.74-5.64l-.63-.48c.09,2.31.19,4.61.28,6.92.03.64,1.03.64,1,0h0Z"/>
      <path class="cls-3" d="M177.58,13.62c-.07,2.75.1,5.49.48,8.21l.96-.27c-.39-1.68-.48-3.42-.28-5.13.11-.89.3-1.77.57-2.63.19-.62.45-1.41,1.21-1.48,1.68-.16,2.17,2.2,2.4,3.41.32,1.73.29,3.52-.07,5.24-.13.63.83.9.96.27.34-1.62.42-3.28.2-4.93-.18-1.41-.48-3.1-1.52-4.16-.89-.92-2.49-1.17-3.4-.14-.46.52-.67,1.22-.85,1.87-.22.78-.38,1.57-.48,2.38-.24,1.86-.13,3.75.29,5.57.15.64,1.05.35.96-.27-.37-2.63-.51-5.29-.45-7.95.02-.64-.98-.64-1,0h0Z"/>
      <path class="cls-3" d="M185.89,7.29c-.21,3.24-.33,6.49-.36,9.74,0,.64.99.64,1,0,.03-3.25.15-6.5.36-9.74.04-.64-.96-.64-1,0h0Z"/>
      <path class="cls-3" d="M187.15,8.41c.14-.25.24-.39.48-.59.22-.18.49-.29.77-.36.3-.08.62-.07.85.22.28.35.46.83.58,1.26.06.22.1.43.11.66,0,.1,0,.21,0,.31,0,.09.03-.14,0,0-.02.09-.04.19-.06.28-.04.15-.09.28-.13.36-.14.3-.31.56-.59.74-.26.17-.54.25-.82.26-.85.04-1.65-.41-2.24-1.03-.44-.47-1.15.24-.71.71.72.76,1.71,1.3,2.77,1.33.98.02,1.88-.47,2.36-1.33.42-.75.51-1.55.31-2.38-.25-1.08-.9-2.5-2.21-2.42-.97.06-1.86.63-2.33,1.48-.31.56.55,1.07.86.5h0Z"/>
      <path class="cls-3" d="M162.99,5.26c-.51.71-1.13,1.21-2.03,1.19-.45,0-1.06-.13-1.21-.63s.17-1.02.44-1.39c.94-1.33,2.66-1.64,4.19-1.38.75.13,1.45.59,2.23.57.72-.02,1.61-.31,2.08-.88.53-.64.27-1.46-.28-2-.68-.66-1.64-.92-2.54-.61s-1.71,1.06-2,2c-.13.42-.14.86-.2,1.29-.08.67-.29,1.26-.67,1.83-.18.27.26.52.43.25.55-.84.67-1.68.8-2.65.14-1.07.84-1.98,1.9-2.28.54-.15,1.07-.06,1.54.23s1.02.88.73,1.46c-.36.71-1.61.98-2.31.8-.64-.16-1.23-.45-1.9-.54s-1.38-.07-2.05.08c-.86.19-1.63.63-2.19,1.32-.46.57-.96,1.45-.62,2.2.36.79,1.42.92,2.18.79.83-.14,1.44-.73,1.91-1.4.19-.26-.25-.51-.43-.25Z"/>
      <g>
        <path class="cls-3" d="M161.76,27.29v3.15h.5c-.07-.74-.04-1.49.11-2.23.08-.36.18-.72.31-1.07.1-.28.22-.71.48-.89.41-.28.77,1.37.81,1.63.11.71.06,1.44-.14,2.13-.09.31.39.44.48.13.36-1.29.27-2.77-.38-3.96-.13-.24-.34-.46-.63-.48s-.52.18-.68.41c-.19.26-.31.59-.42.89-.12.34-.22.68-.3,1.03-.17.79-.22,1.6-.14,2.4.03.31.5.33.5,0v-3.15c0-.32-.5-.32-.5,0h0Z"/>
        <path class="cls-3" d="M165.37,28.21c.73-.36,1.57-.43,2.35-.21.31.08.44-.4.13-.48-.91-.25-1.88-.15-2.73.27-.12.06-.15.23-.09.34.07.12.22.15.34.09h0Z"/>
        <path class="cls-3" d="M165.44,29.08h2.32c.32,0,.32-.5,0-.5h-2.32c-.32,0-.32.5,0,.5h0Z"/>
        <path class="cls-3" d="M169.96,26.29c-.1,1.54-.13,3.09-.09,4.64,0,.32.51.32.5,0-.04-1.55,0-3.1.09-4.64.02-.32-.48-.32-.5,0h0Z"/>
      </g>
    </g>
    <g>
      <path class="cls-3" d="M270.48,152.59c-1.08,4.5-1.89,9.07-2.42,13.67-.27,2.3-.46,4.6-.58,6.91-.03.57-.06,1.13-.08,1.7-.02.47-.12,1.02,0,1.48.14.59.83,1.18,1.35.6.43-.48-.27-1.19-.71-.71.34.1.45.05.33-.16v-.24c0-.24.02-.49.03-.73.02-.53.04-1.05.07-1.58.05-.97.11-1.94.19-2.92.15-1.98.35-3.96.61-5.93.52-3.98,1.26-7.93,2.19-11.83.15-.63-.81-.89-.96-.27h0Z"/>
      <path class="cls-3" d="M271.63,156.37c.36-1.36,1.67-2.22,3.03-2.36,1.54-.16,2.91.68,3.7,1.98.83,1.37,1.03,3.07.51,4.59-.54,1.59-1.91,2.92-3.68,2.82-2.29-.14-3.79-2.18-4.84-4-.32-.56-1.18-.06-.86.5,1.13,1.97,2.7,4,5.09,4.42,2.12.37,4.02-.81,4.94-2.7.87-1.78.83-3.87-.03-5.65-.81-1.68-2.43-2.94-4.34-2.98s-3.97,1.16-4.49,3.12c-.17.62.8.89.96.27h0Z"/>
    </g>
    <path class="cls-3" d="M139.97,158.99l.57,9.42c.04.64,1.04.64,1,0l-.57-9.42c-.04-.64-1.04-.64-1,0h0Z"/>
    <path class="cls-3" d="M114.61,158.75c0,2.19,0,4.39,0,6.58,0,.53,0,1.07,0,1.6,0,.38-.07.86.21,1.17.63.68,1.57-.51.78-.92-.57-.3-1.08.57-.5.86l.05.03-.25-.43.07-.19.35-.15h-.07c.12.05.24.1.35.15-.06-.05,0-.83,0-.96,0-.36,0-.71,0-1.07,0-.74,0-1.48,0-2.22,0-1.48,0-2.97,0-4.45,0-.64-1-.64-1,0h0Z"/>
    <path class="cls-3" d="M91.23,158.63c-.85,3.1-.85,6.39,0,9.49.17.62,1.13.36.96-.27-.8-2.94-.8-6.02,0-8.96.17-.62-.79-.89-.96-.27h0Z"/>
    <path class="cls-3" d="M68.73,159.34c-.43,2.52-.6,5.07-.51,7.62.02.64,1.02.64,1,0-.09-2.46.06-4.93.47-7.36.11-.63-.86-.9-.96-.27h0Z"/>
    <path class="cls-3" d="M49.15,159.23c-.17,2.55-.01,5.11.44,7.63.11.63,1.08.36.96-.27-.44-2.43-.56-4.9-.4-7.36.04-.64-.96-.64-1,0h0Z"/>
    <path class="cls-3" d="M182.48,158.36c-.72,2.97-.96,6.04-.67,9.08.06.64,1.06.64,1,0-.27-2.96-.06-5.93.64-8.81.15-.63-.81-.89-.96-.27h0Z"/>
    <path class="cls-3" d="M201.1,158.75v7.73c0,.64,1,.64,1,0v-7.73c0-.64-1-.64-1,0h0Z"/>
    <path class="cls-3" d="M216.11,157.54c-.11,2.58-.08,5.16.1,7.74.05.64,1.05.64,1,0-.18-2.58-.22-5.16-.1-7.74.03-.64-.97-.64-1,0h0Z"/>
    <path class="cls-3" d="M231.83,157.54l-.26,10.63c-.02.64.98.64,1,0l.26-10.63c.02-.64-.98-.64-1,0h0Z"/>
    <path class="cls-2" d="M201.66,102.24c-3.24,4.97-7.65,9.22-12.8,12.19-2.88,1.66-6.01,3.15-9.22,4.05-3.66,1.03-7.47,1.13-11.11-.02-5.73-1.81-11.56-6.49-11-13.09.29-3.39,2.34-6.43,4.74-8.72,2.54-2.41,5.64-4.01,9.07-4.73s7.15-.56,10.65,0c3.26.51,6.5,1.3,9.67,2.22,3.54,1.04,6.97,2.42,10.29,4.02,2.79,1.35,5.51,2.84,8.29,4.22,5.47,2.71,11.4,4.73,17.59,4.14,3.66-.35,7.4-1.92,8.74-5.61,1.16-3.21.14-6.95-1.65-9.71-3.97-6.16-12.04-9.33-18.96-6.43-2.78,1.16-5.4,3.16-7.44,5.37s-3.08,4.8-4.31,7.45c-.75,1.61-1.59,3.16-2.56,4.65-.7,1.08,1.03,2.09,1.73,1.01.99-1.54,1.86-3.14,2.63-4.8.59-1.27,1.12-2.57,1.77-3.8,1.35-2.54,3.4-4.52,5.71-6.19,2.81-2.03,6.13-3.17,9.62-2.7s6.6,2.3,8.88,4.87c2.06,2.33,3.6,5.71,2.91,8.86-.79,3.62-4.49,4.92-7.82,5.1-6.08.33-11.64-1.78-16.96-4.49-2.84-1.45-5.64-2.96-8.54-4.3-3.44-1.59-6.99-2.94-10.66-3.93-6.61-1.78-13.69-3.32-20.5-1.77-3.52.8-6.72,2.53-9.37,4.97s-4.62,5.36-5.3,8.76.14,7.05,2.26,9.87c1.9,2.53,4.54,4.43,7.42,5.71,3.29,1.47,6.85,2.16,10.45,1.82s6.98-1.58,10.22-3.12,6.4-3.42,9.22-5.76c2.35-1.96,4.45-4.19,6.31-6.62.61-.8,1.2-1.62,1.75-2.47.71-1.08-1.03-2.08-1.73-1.01Z"/>
    <g>
      <path class="cls-2" d="M31.95,125.68c-3.24-8.23-6.13-16.6-8.65-25.07-.63-2.11-1.25-4.23-1.82-6.36-.09-.34-.26-.78-.08-1.11s.66-.53.95-.7c.89-.53,1.79-1.06,2.69-1.58,3.65-2.13,7.34-4.18,11.15-6.01,2.12-1.02,4.28-1.96,6.48-2.78,1.1-.41,2.21-.8,3.33-1.15.58-.18,1.16-.36,1.74-.52.26-.07.51-.14.77-.21.13-.04.4-.17.52-.13l-.44-.26v-.03c-.03-.17-.08-.34-.12-.5l.64-.65.5.14-.05-.02.46.6-.02-.05v.53l.02-.08c.26-1.26-1.66-1.79-1.93-.53-.25,1.18,1.06,1.86,1.93,1.06s.27-2.15-.87-2.21c-.51-.03-1.02.17-1.51.3-.58.16-1.17.33-1.75.51-1.16.36-2.31.75-3.45,1.17-4.63,1.72-9.08,3.89-13.41,6.26-2.16,1.18-4.29,2.41-6.41,3.66-.93.54-2.07,1.04-2.75,1.9-.79.99-.54,2.16-.23,3.28,1.36,4.95,2.84,9.86,4.45,14.73,1.82,5.51,3.79,10.96,5.92,16.36.2.5.67.85,1.23.7.48-.13.9-.72.7-1.23h0Z"/>
      <path class="cls-2" d="M25.41,111.86c3.92-3.47,8.41-6.33,13.25-8.33.5-.21.85-.66.7-1.23-.13-.47-.73-.91-1.23-.7-5.18,2.14-9.94,5.12-14.13,8.84-.97.86.45,2.27,1.41,1.41h0Z"/>
      <path class="cls-2" d="M43.2,122.16c-.07-3.27-.12-6.54-.14-9.8-.01-1.61-.02-3.23-.02-4.84,0-1.43-.04-2.86.52-4.2.21-.5-.22-1.1-.7-1.23-.58-.16-1.02.2-1.23.7-.56,1.34-.59,2.81-.59,4.24,0,1.7,0,3.39.02,5.09.02,3.35.07,6.7.15,10.05.03,1.29,2.03,1.29,2,0h0Z"/>
      <path class="cls-2" d="M49.28,119.15c-.08-4.59.24-9.19.98-13.72l-1.47.6c.78.43,1.07,1.48,1.39,2.25.5,1.19,1,2.38,1.5,3.57.98,2.34,1.96,4.68,2.94,7.02.44,1.04,1.85.9,1.96-.27.69-6.92.74-13.9.13-20.83-.11-1.27-2.11-1.28-2,0,.6,6.93.56,13.9-.13,20.83l1.96-.27c-1.08-2.57-2.16-5.14-3.23-7.71-.53-1.27-1.06-2.54-1.6-3.8-.42-1-.94-1.97-1.92-2.51-.51-.29-1.36-.06-1.47.6-.78,4.71-1.14,9.48-1.05,14.25.02,1.29,2.02,1.29,2,0h0Z"/>
      <path class="cls-2" d="M63.43,117.46c-.78-6.09-1.12-12.22-1.01-18.36.02-1.29-1.98-1.29-2,0-.11,6.14.22,12.27,1.01,18.36.07.54.41,1,1,1,.49,0,1.07-.46,1-1h0Z"/>
      <path class="cls-2" d="M67.93,102.8c2.77-2.49,6.01-4.47,9.52-5.73.51-.18.85-.68.7-1.23-.13-.49-.72-.88-1.23-.7-3.85,1.38-7.36,3.51-10.4,6.24-.96.86.46,2.27,1.41,1.41h0Z"/>
      <path class="cls-2" d="M71.52,99.77c-.07,5.28-.45,10.55-1.18,15.78-.07.53.13,1.07.7,1.23.47.13,1.16-.16,1.23-.7.75-5.41,1.18-10.85,1.25-16.31.02-1.29-1.98-1.29-2,0h0Z"/>
      <path class="cls-2" d="M81.22,97.51c-1.18,6.12-2.17,12.27-2.98,18.44-.11.8.91,1.18,1.5.86,1.72-.91,3.01-2.38,4.43-3.68,1.27-1.16,2.99-2.4,4.81-1.9,1.24.34,1.77-1.59.53-1.93-2.19-.6-4.27.39-5.96,1.73s-2.94,3.05-4.82,4.05l1.5.86c.79-6,1.76-11.97,2.91-17.91.24-1.26-1.68-1.8-1.93-.53h0Z"/>
      <path class="cls-2" d="M81.53,106.54c3.08-.72,6.02-2.02,8.64-3.78.45-.3.64-.88.36-1.37-.26-.44-.92-.66-1.37-.36-2.49,1.68-5.23,2.9-8.16,3.58-1.25.29-.72,2.22.53,1.93h0Z"/>
      <path class="cls-2" d="M81.14,99.64c3.53-1.32,7.05-2.64,10.58-3.96.51-.19.85-.68.7-1.23-.13-.49-.72-.89-1.23-.7l-10.58,3.96c-.51.19-.85.68-.7,1.23.13.49.72.89,1.23.7h0Z"/>
    </g>
    <g>
      <path class="cls-2" d="M141.97,144.52l.12-7.4c0-.54-.47-1-1-1s-.99.46-1,1l-.12,7.4c0,.54.47,1,1,1s.99-.46,1-1h0Z"/>
      <path class="cls-2" d="M141.74,131.24c.12-1.47-.03-2.97-.42-4.4-.14-.5-.72-.86-1.23-.7s-.85.69-.7,1.23c.09.33.17.66.23,1,.01.08.03.15.04.23,0,.03.05.33.03.18s.02.15.02.18c0,.08.02.16.02.23.06.68.06,1.36,0,2.04-.04.52.49,1.02,1,1,.58-.03.95-.44,1-1h0Z"/>
      <path class="cls-2" d="M141.22,119.56c-.88-1.38-1.08-2.96-.57-4.52.16-.5-.19-1.11-.7-1.23-.55-.13-1.06.17-1.23.7-.65,2-.36,4.29.77,6.06.28.44.9.66,1.37.36.44-.28.66-.9.36-1.37h0Z"/>
      <path class="cls-2" d="M140.48,107.05c-.01-.09-.03-.19-.04-.28.03.21-.01-.12-.02-.16-.02-.19-.04-.38-.06-.57-.04-.39-.06-.79-.08-1.19-.03-.79-.02-1.58.03-2.38.03-.52-.48-1.02-1-1-.57.03-.96.44-1,1-.11,1.71-.01,3.41.24,5.1.08.52.76.85,1.23.7.57-.18.78-.67.7-1.23h0Z"/>
      <path class="cls-2" d="M140.54,94.75c.12-1.56-.13-3.18-.74-4.62-.11-.25-.21-.45-.46-.6-.21-.13-.53-.18-.77-.1-.46.15-.91.71-.7,1.23.28.67.49,1.38.61,2.1.01.07.1.32.02.09.02.07.02.17.03.24.02.18.03.37.04.56.01.37,0,.74-.02,1.11-.04.52.49,1.02,1,1,.58-.03.96-.44,1-1h0Z"/>
      <path class="cls-2" d="M140.23,82.17l-.76-5.07c-.08-.52-.76-.85-1.23-.7-.57.18-.78.67-.7,1.23l.76,5.07c.08.52.76.85,1.23.7.57-.18.78-.67.7-1.23h0Z"/>
      <path class="cls-2" d="M139.82,71.05c.03.25,0,0,0-.05-.01-.09-.02-.19-.03-.28-.02-.16-.04-.32-.05-.48-.03-.33-.06-.67-.09-1-.05-.67-.08-1.34-.09-2.01,0-.52-.45-1.02-1-1s-1.01.44-1,1c.02,1.46.15,2.92.34,4.37.03.23.27.49.46.6.21.13.53.18.77.1s.48-.23.6-.46c.13-.26.14-.49.1-.77h0Z"/>
      <path class="cls-2" d="M140.06,61.17v-5.07c0-.52-.46-1.02-1-1s-1,.44-1,1v5.07c0,.52.46,1.02,1,1s1-.44,1-1h0Z"/>
      <path class="cls-2" d="M140.35,50.05l-.31-3.86c-.04-.52-.43-1.03-1-1-.51.02-1.04.44-1,1l.31,3.86c.04.52.43,1.03,1,1,.51-.02,1.04-.44,1-1h0Z"/>
      <path class="cls-2" d="M140.54,40.39v-3.14c0-.52-.46-1.02-1-1s-1,.44-1,1v3.14c0,.52.46,1.02,1,1s1-.44,1-1h0Z"/>
      <path class="cls-2" d="M140.54,31.69v-2.17c0-.26-.11-.53-.29-.71s-.46-.3-.71-.29-.53.1-.71.29-.29.44-.29.71v2.17c0,.26.11.53.29.71s.46.3.71.29.53-.1.71-.29.29-.44.29-.71h0Z"/>
      <path class="cls-2" d="M143.22,194.27c-.11-1.7-.08-3.4.11-5.08.06-.52-.5-1.02-1-1-.59.03-.94.44-1,1-.19,1.69-.22,3.39-.11,5.08.03.52.43,1.03,1,1,.51-.02,1.04-.44,1-1h0Z"/>
      <path class="cls-2" d="M142.93,185.88l-.58-4.58c-.03-.28-.09-.5-.29-.71-.17-.17-.46-.3-.71-.29-.49.02-1.07.44-1,1l.58,4.58c.03.28.09.5.29.71.17.17.46.3.71.29.49-.02,1.07-.44,1-1h0Z"/>
      <path class="cls-2" d="M142.26,178.03l.12-5.92c.01-.52-.47-1.02-1-1s-.99.44-1,1l-.12,5.92c-.01.52.47,1.02,1,1s.99-.44,1-1h0Z"/>
    </g>
    <g>
      <path class="cls-1" d="M128.63,32.6l2.7-2.31,1.35-1.16c.15-.13.49-.38.57-.48s.16,0-.01-.04c-.05.01-.09,0-.14-.01-.04-.04-.04-.04,0,.01,0,.02.04.04.08.1.07.1.12.21.18.32.13.25.25.5.37.76.22.47.42.96.6,1.45.39,1.06.69,2.16.9,3.27.1.53.74.83,1.23.7.56-.15.8-.7.7-1.23-.25-1.29-.61-2.55-1.09-3.76-.26-.65-.54-1.29-.85-1.91-.28-.57-.6-1.14-1.17-1.45-1.4-.76-2.63.73-3.59,1.55l-3.26,2.78c-.41.35-.36,1.05,0,1.41.41.41,1,.35,1.41,0h0Z"/>
      <path class="cls-1" d="M132.35,27.75c-.52,9.02-1.15,18.04-1.91,27.04-.48,5.74-1.02,11.48-1.76,17.2-1.14,8.85-2.67,17.66-4.66,26.37-.94,4.1-1.91,8.23-3.21,12.23s-3,7.55-5.23,10.95c-3.61,5.48-8.46,10.34-13.98,13.92-.79.51-1.6.97-2.43,1.4-.62.32-1.24.61-1.88.89-.17.07-.33.15-.5.22s-.09.04-.1.04c-.12.05-.23.1-.35.15-.42.17-.83.34-1.26.5-5.17,1.97-10.59,3.29-16,4.4-7.54,1.54-15.17,2.65-22.82,3.44s-14.7,1.25-22.06,1.76c-9.14.63-18.27,1.23-27.42,1.74-1.64.09-3.27.18-4.91.27-1.28.07-1.29,2.07,0,2,8.43-.45,16.86-.96,25.29-1.53s16.67-1.09,24.98-1.85c7.35-.66,14.68-1.6,21.96-2.87,6.38-1.11,12.78-2.46,18.93-4.52,2.97-.99,5.93-2.15,8.64-3.74,4.11-2.42,7.81-5.71,11-9.24s5.9-7.53,7.9-11.86c1.49-3.22,2.55-6.58,3.46-10.01,2.48-9.35,4.36-18.85,5.79-28.41.93-6.26,1.67-12.55,2.23-18.86.71-8.01,1.33-16.03,1.84-24.05.16-2.52.32-5.05.46-7.57.07-1.29-1.93-1.28-2,0h0Z"/>
    </g>
    <g>
      <path class="cls-3" d="M131.18,151.08l4.35.71c.27.04.54-.07.62-.35.07-.24-.08-.57-.35-.62l-4.35-.71c-.27-.04-.54.07-.62.35-.07.24.08.57.35.62h0Z"/>
      <path class="cls-3" d="M137.52,150.81c.51-.96,1.1-1.88,1.78-2.74.31-.38.64-.88,1.04-1.17.23-.17.27-.1.33.15s.08.52.1.78c.23,2.33.02,4.68-.59,6.94-.17.62.8.89.96.27.38-1.4.61-2.84.69-4.29.04-.73.04-1.46,0-2.19-.04-.62-.04-1.33-.24-1.93-.17-.5-.57-.88-1.12-.83-.67.05-1.14.7-1.54,1.17-.87,1.03-1.63,2.15-2.27,3.35-.3.57.56,1.07.86.5h0Z"/>
      <path class="cls-3" d="M138.19,156.78c1.97-.73,4-1.28,6.07-1.63.27-.05.42-.37.35-.62-.08-.28-.35-.39-.62-.35-2.07.35-4.1.9-6.07,1.63-.25.09-.43.34-.35.62.07.24.36.44.62.35h0Z"/>
    </g>
  </g>
</svg>