<svg id="Layer_1" data-name="Layer 1" xmlns="http://www.w3.org/2000/svg" viewBox="0 0 251.42 158.49"><defs><style>.cls-1{fill:#ed1c24;}.cls-2,.cls-3{fill:none;stroke-linecap:round;stroke-miterlimit:10;}.cls-2{stroke:#808285;}.cls-3{stroke:#231f20;stroke-width:2px;}.cls-4{fill:#231f20;}</style></defs><title>word-problem-34-2</title><path class="cls-1" d="M207.4,74.52c-6.33.76-12.89.88-19.11-.71A25,25,0,0,1,175,65.61a52.72,52.72,0,0,1-5.58-8.92c-.3-.57-1.17-.07-.86.5a59.34,59.34,0,0,0,4.93,8.12,25.26,25.26,0,0,0,7,6.4,33.34,33.34,0,0,0,14.89,4.21,63.56,63.56,0,0,0,12-.4c.63-.08.64-1.08,0-1Z" transform="translate(-4.87 -11.75)"/><path class="cls-1" d="M179.18,82.48a34.86,34.86,0,0,0-.72,5.29,14.25,14.25,0,0,0,.27,5.21c.2.61,1.16.35,1-.26a8.39,8.39,0,0,1-.29-2.5c0-.81,0-1.63.06-2.45a34.16,34.16,0,0,1,.68-5c.14-.62-.83-.89-1-.26Z" transform="translate(-4.87 -11.75)"/><path class="cls-1" d="M182.45,83.31a59.92,59.92,0,0,0,.34,9.28c.08.63,1.08.64,1,0a59.92,59.92,0,0,1-.34-9.28c0-.64-1-.64-1,0Z" transform="translate(-4.87 -11.75)"/><path class="cls-1" d="M176.3,83.73c2.09-.36,4.2-.69,6.31-1,1-.13,2.07-.25,3.11-.36a4.08,4.08,0,0,1,2.67.33c.55.34,1.05-.53.51-.87a4.43,4.43,0,0,0-2.77-.5c-1.1.09-2.19.24-3.28.37-2.28.29-4.56.63-6.82,1-.63.11-.36,1.07.27,1Z" transform="translate(-4.87 -11.75)"/><path class="cls-1" d="M191.73,81.77a150.34,150.34,0,0,0-8,14.14c-.28.58.58,1.09.87.51a150.41,150.41,0,0,1,8-14.15c.35-.54-.52-1-.86-.5Z" transform="translate(-4.87 -11.75)"/><path class="cls-1" d="M191.18,86.3a2.54,2.54,0,0,1,2.27-.56,2,2,0,0,1,1,.3c.43.33.23.86,0,1.26a7.78,7.78,0,0,1-4,3.23.5.5,0,0,0,0,1l2.8.91c.32.1.84.2,1,.55s-.1.85-.32,1.13a5,5,0,0,1-4.51,1.7c-.64-.07-.63.93,0,1,2,.23,4.68-.66,5.63-2.61a1.72,1.72,0,0,0-.65-2.4,10,10,0,0,0-1.69-.6l-2-.64v1a9.27,9.27,0,0,0,3.17-1.91c.81-.75,1.86-1.87,1.86-3,0-2.34-4.06-2.26-5.2-1-.42.48.28,1.19.7.71Z" transform="translate(-4.87 -11.75)"/><rect class="cls-2" x="196.23" y="135.08" width="5.85" height="5.85"/><line class="cls-3" x1="202.08" y1="21.16" x2="202.08" y2="140.92"/><line class="cls-3" x1="202.08" y1="21.16" x2="9.74" y2="140.92"/><line class="cls-3" x1="202.08" y1="140.92" x2="9.74" y2="140.92"/><path class="cls-4" d="M188.73,27.22l-1.4-12.14c0-.31-.28-1.06,0-1.29a2.38,2.38,0,0,1,.71-.08l.74-.07,3-.29,6.16-.6c.63-.06.64-1.06,0-1l-1.66.15c-.63.06-.64,1.06,0,1l1.66-.15v-1l-6.66.65c-1.15.11-2.3.21-3.45.33-.77.08-1.47.25-1.56,1.14a7.2,7.2,0,0,0,.12,1.46l.2,1.73.39,3.35.79,6.81c.07.63,1.07.64,1,0Z" transform="translate(-4.87 -11.75)"/><path class="cls-4" d="M187.37,19.11a16.32,16.32,0,0,0,7-.72c.61-.19.35-1.16-.27-1a15.67,15.67,0,0,1-6.7.68.51.51,0,0,0-.5.5.51.51,0,0,0,.5.5Z" transform="translate(-4.87 -11.75)"/><path class="cls-4" d="M195.58,26.79c-.53-3.39-1.11-7.61,1.56-10.32.25-.25.78-.83,1.18-.62.25.13.24.52.22.76a4.67,4.67,0,0,1-1,2.14,9,9,0,0,1-1.73,1.71,1.15,1.15,0,0,0-.33,1.58c.46.72,1.54,1,2.29,1.21A20.17,20.17,0,0,0,201,24a.51.51,0,0,0,.56-.74,1,1,0,0,0-.51-.5c-.59-.25-1.1.61-.51.86l.16.15.57-.74a19.88,19.88,0,0,1-3.16-.74,7.52,7.52,0,0,1-1.39-.53c-.18-.1-.41-.23-.31-.44s.38-.3.52-.41a6.77,6.77,0,0,0,2.64-4.23,1.71,1.71,0,0,0-.66-1.66,1.81,1.81,0,0,0-2.12.44,7.92,7.92,0,0,0-2.41,4.47,20.54,20.54,0,0,0,.26,7.12c.1.64,1.06.37,1-.26Z" transform="translate(-4.87 -11.75)"/><path class="cls-4" d="M202.76,14.27c-.11.09.07,1.07.08,1.21,0,.48,0,1,.06,1.46,0,.93,0,1.87,0,2.8a35.81,35.81,0,0,1-.8,5.76l1,.14v-.85a.5.5,0,0,0-1,0v.85a.5.5,0,0,0,1,.13,37.06,37.06,0,0,0,.89-7.71,22.26,22.26,0,0,0-.17-3.65c-.13-.84-.94-1.48-1.69-.85-.5.42.22,1.12.71.71Z" transform="translate(-4.87 -11.75)"/><path class="cls-4" d="M205.41,18.18a1.3,1.3,0,0,1,.73-.43l-.62-.35a22.92,22.92,0,0,1-.48,8.92c-.07.28.15.67.48.63l5-.61a.5.5,0,0,0,.43-.75l-.47-.88c-.31-.56-1.17-.06-.87.51l.48.87.43-.75-5,.61.48.64a24.29,24.29,0,0,0,.49-9.45.5.5,0,0,0-.62-.35,2.22,2.22,0,0,0-1.17.68c-.43.47.27,1.18.71.71Z" transform="translate(-4.87 -11.75)"/><path class="cls-4" d="M205.1,21.33a5.7,5.7,0,0,0,3.12,0,.5.5,0,0,0-.27-1q-.33.09-.66.15h-.13l-.16,0h-.84l-.1,0h-.18l-.16,0-.35-.1a.5.5,0,1,0-.27,1Z" transform="translate(-4.87 -11.75)"/><path class="cls-4" d="M205.28,17.6a22.69,22.69,0,0,0,5.13.53.5.5,0,0,0,0-1,21.54,21.54,0,0,1-4.87-.5c-.63-.13-.89.83-.26,1Z" transform="translate(-4.87 -11.75)"/><path class="cls-4" d="M212.53,27.29a75.36,75.36,0,0,1,.52-11.24l-.85.35c2.46,2.79,2.39,6.9,4.4,10a.5.5,0,0,0,.93-.25,67.1,67.1,0,0,0-.25-11.6l-1,.14.25.62c.23.6,1.2.34,1-.26l-.24-.63c-.19-.47-1-.48-1,.13a67.1,67.1,0,0,1,.25,11.6l.93-.25c-2.06-3.16-2-7.27-4.55-10.17-.32-.36-.81,0-.86.36a75.36,75.36,0,0,0-.52,11.24c0,.64,1,.64,1,0Z" transform="translate(-4.87 -11.75)"/><path class="cls-4" d="M218.91,25.75l.37.48a.51.51,0,0,0,.93-.26V16.15a1.07,1.07,0,0,1,0-.31c.06-.11-.24.09,0-.05s.54.1.69.18a6.61,6.61,0,0,1,2.6,3.64,8.7,8.7,0,0,1,.38,4.41c-.14.76-.33,1.69-1.22,1.86a4.3,4.3,0,0,1-2.3-.49c-.6-.25-.85.71-.27,1,1.48.62,3.55,1,4.38-.77a8.65,8.65,0,0,0,.24-5.44,8.8,8.8,0,0,0-2.85-4.73c-.59-.45-1.6-.92-2.3-.44a1.14,1.14,0,0,0-.39,1.08V26l.93-.25-.36-.47c-.39-.5-1.26,0-.87.5Z" transform="translate(-4.87 -11.75)"/><path class="cls-4" d="M201.34,169c-.64.05-.68-2.53-.72-2.95-.1-1.16-.16-2.32-.18-3.49s0-2.24.07-3.37c0-.73-.06-2.12.68-2.57.9-.57,1.95.84,2.37,1.47a8,8,0,0,1,1.15,2.74c.15.76.33,2-.34,2.56-.89.78-2.16-.19-2.88-.72-.52-.39-1,.48-.5.86a4.25,4.25,0,0,0,2.75,1.12,2.15,2.15,0,0,0,1.94-1.54c.62-1.9-.37-4.35-1.5-5.87a3.85,3.85,0,0,0-2.27-1.71,1.83,1.83,0,0,0-2,1.13,8.27,8.27,0,0,0-.44,3c-.06,1.33-.07,2.65,0,4s.18,2.85.37,4.26c.11.86.36,2.17,1.5,2.09.64,0,.64-1,0-1Z" transform="translate(-4.87 -11.75)"/><path class="cls-4" d="M207.1,168.77a5.62,5.62,0,0,1,.16-3,6,6,0,0,1,.7-1.38,2.61,2.61,0,0,1,1-1c.92-.39,1.4.81,1.34,1.54a2.34,2.34,0,0,1-1.39,1.92,3,3,0,0,1-1.57.18,3.56,3.56,0,0,1-.85-.23l-.36-.19s0,0-.05,0v0c-.09-.06-.13,0-.12.31a.51.51,0,0,0,.18-.69.53.53,0,0,0-.69-.18c-.75.33-.23,1.27.26,1.54a4.36,4.36,0,0,0,2.06.54,3.45,3.45,0,0,0,3.24-2,2.79,2.79,0,0,0-.81-3.51c-1.42-.88-2.79.61-3.43,1.75a6.48,6.48,0,0,0-.68,4.68c.14.63,1.11.37,1-.26Z" transform="translate(-4.87 -11.75)"/><path class="cls-4" d="M210.23,168.92l.4.31a.5.5,0,0,0,.85-.35,34,34,0,0,1,.89-5.77c.22-.9.47-1.8.77-2.68a2.69,2.69,0,0,1,1.29-1.79h-.5c1.22.92,1.33,2.93,1.54,4.31a45.31,45.31,0,0,1,.46,5.7l.75-.43a2.59,2.59,0,0,1-.87-.71c-.42-.49-1.12.22-.71.71a3.34,3.34,0,0,0,1.08.86.5.5,0,0,0,.75-.43,47.1,47.1,0,0,0-.56-6.38c-.26-1.64-.52-3.43-1.94-4.49a.5.5,0,0,0-.5,0,3,3,0,0,0-1.52,1.76,21,21,0,0,0-.91,2.92,35.63,35.63,0,0,0-1,6.42l.86-.36-.41-.31c-.5-.39-1.21.31-.7.71Z" transform="translate(-4.87 -11.75)"/><path class="cls-4" d="M212.19,164a11.8,11.8,0,0,0,4.65.53.5.5,0,0,0,0-1,11.24,11.24,0,0,1-4.39-.49c-.61-.2-.87.76-.26,1Z" transform="translate(-4.87 -11.75)"/><path class="cls-4" d="M220.6,160.56a.91.91,0,0,0-1.07-.64,1.4,1.4,0,0,0-.95,1,13.94,13.94,0,0,0-.92,3.59,6.67,6.67,0,0,0,.17,3.11,2.14,2.14,0,0,0,2,1.54,2.09,2.09,0,0,0,2-2,.5.5,0,0,0-1,0,1.06,1.06,0,0,1-1.33,1c-.7-.25-.88-1.16-.92-1.81a10.89,10.89,0,0,1,.27-2.9,12.5,12.5,0,0,1,.42-1.48,5.69,5.69,0,0,1,.25-.69c0-.1.1-.18.15-.27s0,.06,0-.11a.5.5,0,0,0,1-.27Z" transform="translate(-4.87 -11.75)"/><path class="cls-4" d="M221.47,160.67a43.53,43.53,0,0,1,.18,8.54c-.05.64.95.64,1,0a43.53,43.53,0,0,0-.18-8.54c-.08-.63-1.08-.64-1,0Z" transform="translate(-4.87 -11.75)"/><path class="cls-4" d="M222.19,165.15l0,0,.09-.07.18-.11.33-.19a4,4,0,0,1,.72-.26,4.19,4.19,0,0,1,1.49-.07.51.51,0,0,0,.62-.35.51.51,0,0,0-.35-.61,4.85,4.85,0,0,0-3.82,1,.51.51,0,0,0,0,.71.52.52,0,0,0,.71,0Z" transform="translate(-4.87 -11.75)"/><path class="cls-4" d="M225.21,158.42v9.91a.5.5,0,0,0,1,0v-9.91a.5.5,0,0,0-1,0Z" transform="translate(-4.87 -11.75)"/><path class="cls-4" d="M227.93,159.86A3.2,3.2,0,0,1,228,162l-.36,2.49-.74,5.09a.51.51,0,0,0,.73.56,27,27,0,0,1,4.42-1.65.51.51,0,0,0,.22-.84l-.33-.42c-.4-.5-1.1.21-.71.71l.34.42.22-.83a27.51,27.51,0,0,0-4.66,1.75l.73.56.83-5.68c.13-.89.27-1.77.39-2.66a3.29,3.29,0,0,0-.33-2.18c-.33-.55-1.2-.05-.86.5Z" transform="translate(-4.87 -11.75)"/><path class="cls-4" d="M227.32,164.26a26.38,26.38,0,0,0,3.29.59.5.5,0,0,0,.43-.25.84.84,0,0,0-.49-1.24.5.5,0,0,0-.62.35.51.51,0,0,0,.35.61c.08,0-.05,0-.07,0l0-.05s0,0,0,0,0-.14,0-.06.06-.16,0-.08l.43-.25a26.63,26.63,0,0,1-3-.55.52.52,0,0,0-.62.35.51.51,0,0,0,.35.61Z" transform="translate(-4.87 -11.75)"/><path class="cls-4" d="M227.85,160.29a2.88,2.88,0,0,0,3.09.84.53.53,0,0,0,.35-.62.52.52,0,0,0-.62-.35,1.68,1.68,0,0,1-.32.09l-.09,0c-.07,0,.09,0,0,0h-.17a1.82,1.82,0,0,1-.33,0h0l-.09,0-.16,0-.16,0-.07,0c-.09,0,0,0,0,0L229,160a.42.42,0,0,1-.14-.09s.06.05,0,0l-.07-.06a3.07,3.07,0,0,1-.25-.26.51.51,0,0,0-.71,0,.53.53,0,0,0,0,.71Z" transform="translate(-4.87 -11.75)"/><path class="cls-4" d="M233.28,168.44a.78.78,0,0,0,1.4-.19,2.32,2.32,0,0,0,0-1.11c-.07-.5-.13-1-.17-1.51-.09-1-.13-1.94-.13-2.92a17.52,17.52,0,0,1,.15-2.71c0-.2.1-.58.31-.68s.93.45,1.11.62a1.7,1.7,0,0,1,.6,1.92c-.27.58-1.07.72-1.52,1.13a1.7,1.7,0,0,0-.42,1.84,3,3,0,0,0,1.78,1.65c.76.34,1.65.6,2,1.41l.44-.75h-.41a.5.5,0,0,0,0,1h.41a.51.51,0,0,0,.43-.75,3.09,3.09,0,0,0-1.55-1.41c-.68-.33-1.63-.54-2.05-1.23a.82.82,0,0,1-.06-.92,2.42,2.42,0,0,1,.85-.56,2.16,2.16,0,0,0,1.15-1.51,2.59,2.59,0,0,0-.52-2,3.83,3.83,0,0,0-1.83-1.37c-1.82-.49-1.81,2.18-1.86,3.26a30.13,30.13,0,0,0,0,3.29c0,.51.08,1,.14,1.54,0,.26.07.52.1.77l.06.36,0,.18c0,.24.1.3.42.18-.35-.54-1.22,0-.87.5Z" transform="translate(-4.87 -11.75)"/><path class="cls-4" d="M6.85,167.17q-.46-4-.77-8.1c0-.64-.09-1.29-.14-1.94l-.06-1c0-.49.19-.68.65-.74a5.64,5.64,0,0,1,3.53.69,1.16,1.16,0,0,1,.54.53c.1.3-.11.66-.24.92a5.34,5.34,0,0,1-1,1.3,5.32,5.32,0,0,1-1.16.85c-.38.2-.9.32-1.1.75-.44.94,1,1.36,1.62,1.57,1.07.36,2.31.52,3.13,1.37a1.59,1.59,0,0,1,.48,1.68,2.66,2.66,0,0,1-1.44,1.15,6.88,6.88,0,0,1-4.08.45l.22.84.81-.93c.42-.48-.29-1.19-.71-.7l-.81.92a.51.51,0,0,0,.22.84,8.27,8.27,0,0,0,4.16-.27,3.83,3.83,0,0,0,2.64-2.14,2.84,2.84,0,0,0-1.31-3,5.77,5.77,0,0,0-1.73-.79c-.34-.1-.68-.19-1-.3l-.4-.12c-.19-.07-.56-.33-.75-.32l-.09,0c0,.21,0,.25.16.14a1.68,1.68,0,0,0,.34-.15,5.73,5.73,0,0,0,.79-.48,6.17,6.17,0,0,0,1.36-1.34c.68-.91,1.34-2.2.4-3.16a5.6,5.6,0,0,0-3.56-1.29c-1.16-.06-2.7.07-2.7,1.54,0,1.84.25,3.72.4,5.56s.36,3.78.58,5.67c.07.64,1.07.64,1,0Z" transform="translate(-4.87 -11.75)"/><path class="cls-4" d="M15.3,158a15.93,15.93,0,0,1-.28,4.77c-.12.77-.25,1.54-.35,2.31a8.81,8.81,0,0,0-.11,2.29c.24,1.54,2.13.9,3.06.5a7.53,7.53,0,0,0,1.82-1.06,1.59,1.59,0,0,0,.83-1.56c-.09-.63-1.05-.36-1,.27.05.32-.93.83-1.16,1a7.06,7.06,0,0,1-1.53.7,3.8,3.8,0,0,1-.74.18c-.35,0-.34-.17-.34-.48a13.94,13.94,0,0,1,.15-1.93c.31-2.41.92-4.78.57-7.23-.09-.63-1.05-.36-1,.27Z" transform="translate(-4.87 -11.75)"/><path class="cls-4" d="M15.08,162.72a12.59,12.59,0,0,0,3.94.77.5.5,0,0,0,.5-.5.51.51,0,0,0-.5-.5,12.16,12.16,0,0,1-3.68-.73.5.5,0,0,0-.26,1Z" transform="translate(-4.87 -11.75)"/><path class="cls-4" d="M15.19,159.26a9.55,9.55,0,0,0,3.64-.53.5.5,0,1,0-.26-1,8.65,8.65,0,0,1-3.38.49.5.5,0,1,0,0,1Z" transform="translate(-4.87 -11.75)"/><path class="cls-4" d="M20.91,167.76c.77.32,1-.42,1.05-1s.06-1.48.1-2.21a15.88,15.88,0,0,1,.74-4.5,2.89,2.89,0,0,0,.21-.49c.07-.08,0-.08-.12,0a1.18,1.18,0,0,1,.17.22,3.05,3.05,0,0,1,.39.91A23.76,23.76,0,0,1,24,163c.35,1.62.63,3.26.87,4.91l.73-.56-1.28-.76a.5.5,0,0,0-.5.86l1.28.76a.51.51,0,0,0,.73-.57q-.37-2.64-.93-5.25a16.84,16.84,0,0,0-.62-2.42c-.2-.52-.55-1.33-1.16-1.47-.76-.18-1.08.66-1.28,1.22a12.8,12.8,0,0,0-.57,2.43c-.11.78-.17,1.55-.21,2.34,0,.42,0,.84,0,1.26,0,.12,0,1.14,0,1.15h.5l-.08,0c-.58-.25-1.09.62-.5.87Z" transform="translate(-4.87 -11.75)"/><path class="cls-4" d="M21.75,163.78l.34-.06h.1l.16,0q.33,0,.66,0a4.63,4.63,0,0,1,.65,0h.16l.08,0,.36.07a.5.5,0,0,0,.27-1,7.41,7.41,0,0,0-3,0,.5.5,0,0,0,.26,1Z" transform="translate(-4.87 -11.75)"/><path class="cls-4" d="M26.32,166.37c0,.79,1.08.86,1.31.16a2.14,2.14,0,0,0-.07-1c-.08-.45-.17-.9-.24-1.35a12,12,0,0,1,0-5.23c.07-.25.15-.75.5-.7s.71.46.94.72a2,2,0,0,1,.58,1.92c-.21.62-.85.75-1.34,1.08a1.4,1.4,0,0,0-.7,1.51c.21.81,1.09,1.22,1.74,1.62.9.55,1.78,1.12,2.65,1.72.54.36,1-.5.51-.86-.76-.52-1.52-1-2.3-1.51l-1-.62c-.21-.14-.64-.39-.61-.69s1-.67,1.26-.89a2.19,2.19,0,0,0,.89-1.63,3,3,0,0,0-.65-2,3.45,3.45,0,0,0-1.62-1.33c-1.74-.52-2,2.08-2.08,3.22a14.2,14.2,0,0,0,.13,2.84c.07.5.15,1,.23,1.49,0,.23.09.47.13.71l.06.31,0,.16c0,.29.17.3.53,0l.15.35v-.07c0-.64-1-.64-1,0Z" transform="translate(-4.87 -11.75)"/><path class="cls-4" d="M213.31,34.91a3.7,3.7,0,0,1,3.43.94,6.18,6.18,0,0,1,1.86,3.56,23.26,23.26,0,0,1,.28,4.49c0,1.65,0,3.29,0,4.93q-.12,9.87-.94,19.7c-.3,3.69-.69,7.37-1.14,11a.49.49,0,0,0,.36.48,16.82,16.82,0,0,1,8.58,6.42l.43-.76-4.41.12-2,0a3.1,3.1,0,0,0-1.59.26c-1,.6-.47,1.89-.28,2.77.3,1.38.53,2.78.71,4.18a85.22,85.22,0,0,1,.23,16.13c-.35,5.52-.94,11-1.24,16.54-.14,2.71-.21,5.43-.13,8.14s.37,5.41.66,8.12.47,5.81-1.42,7.92c-1.39,1.56-3.8,2.57-5.66,1.21-.52-.38-1,.49-.5.87a4.72,4.72,0,0,0,5.12,0,7,7,0,0,0,3.39-4.82c.53-2.58.06-5.2-.23-7.78a72.54,72.54,0,0,1-.39-8.34c.06-11.05,2.1-22,1.59-33.1A58.29,58.29,0,0,0,219,89c-.1-.45-.66-1.82-.09-2a3.34,3.34,0,0,1,1-.07l1.22,0,5-.13a.5.5,0,0,0,.43-.75,18,18,0,0,0-9.17-6.88l.37.49q1.29-10.47,1.79-21,.25-5.24.3-10.48c0-1.75,0-3.5,0-5.25a16.41,16.41,0,0,0-.51-4.53c-.79-2.66-3.33-5.2-6.32-4.37a.5.5,0,0,0,.27,1Z" transform="translate(-4.87 -11.75)"/><path class="cls-4" d="M229.92,78.19l-.47,7.62c0,.32.48.32.5,0l.47-7.62c0-.32-.48-.32-.5,0Z" transform="translate(-4.87 -11.75)"/><path class="cls-4" d="M233.8,80.64a6.26,6.26,0,0,1-.71,2.77c-.38.85-.78,1.69-1.18,2.54l-2.44,5.25c-.13.29.3.55.44.25l2.61-5.63c.75-1.61,1.83-3.35,1.78-5.18a.25.25,0,0,0-.5,0Z" transform="translate(-4.87 -11.75)"/><path class="cls-4" d="M234.67,86.58a.66.66,0,0,1,.77-.07,1.11,1.11,0,0,1,.51.78,2.93,2.93,0,0,1-.28,1.79,3.61,3.61,0,0,1-2.79,2c-.31,0-.32.53,0,.5a8.27,8.27,0,0,1,3.81.61c.3.13.43-.36.14-.48a8.61,8.61,0,0,0-4-.63v.5a4.13,4.13,0,0,0,3.43-2.78,2.71,2.71,0,0,0-.14-2.31,1.22,1.22,0,0,0-1.85-.3c-.23.22.12.58.35.35Z" transform="translate(-4.87 -11.75)"/><path class="cls-4" d="M241.22,82a51.09,51.09,0,0,1-.12,8.39l.49-.07a13.23,13.23,0,0,1,.24-5.53c.12-.43.25-.85.41-1.27s.34-1.11.75-1.18.65.93.75,1.27a9.08,9.08,0,0,1,.29,1.54c0,.18.28.37.43.18a16.49,16.49,0,0,0,1.72-2.73h-.43a9.42,9.42,0,0,1,.41,7.38c-.1.31.38.44.49.14a10,10,0,0,0-.47-7.77.25.25,0,0,0-.43,0A16.25,16.25,0,0,1,244.1,85l.43.18a9.31,9.31,0,0,0-.36-1.82,2.67,2.67,0,0,0-.66-1.37c-.9-.68-1.53.82-1.76,1.43a13.72,13.72,0,0,0-.64,7.07c0,.29.47.19.49-.07a51.09,51.09,0,0,0,.12-8.39c0-.32-.53-.32-.5,0Z" transform="translate(-4.87 -11.75)"/><path class="cls-4" d="M249.94,90.34a19.17,19.17,0,0,1-.49-4.53.25.25,0,0,0-.5,0,19.7,19.7,0,0,0,.51,4.66c.07.32.56.18.48-.13Z" transform="translate(-4.87 -11.75)"/><path class="cls-4" d="M249.19,81.87a.25.25,0,0,0,0-.5.25.25,0,0,0,0,.5Z" transform="translate(-4.87 -11.75)"/><path class="cls-4" d="M250.59,80.46a28.64,28.64,0,0,1-.57,9.85c-.07.31.41.45.48.13a28.64,28.64,0,0,0,.59-10c0-.32-.54-.32-.5,0Z" transform="translate(-4.87 -11.75)"/><path class="cls-4" d="M253.06,87.1c.51-1.07,1.87-1.34,2.23-2.53a1.15,1.15,0,0,0-1.58-1.48,3.94,3.94,0,0,0-1.81,3.08,4.78,4.78,0,0,0,.83,3.54,4.27,4.27,0,0,0,3.32,1.75.25.25,0,0,0,0-.5A3.79,3.79,0,0,1,253,89.18a4.55,4.55,0,0,1-.36-3.86,3.21,3.21,0,0,1,1.06-1.63.85.85,0,0,1,.91-.16.69.69,0,0,1,.26.81c-.27,1.16-1.72,1.47-2.21,2.51-.14.29.3.54.43.25Z" transform="translate(-4.87 -11.75)"/></svg>