<svg id="Layer_1" data-name="Layer 1" xmlns="http://www.w3.org/2000/svg" viewBox="0 0 242.68 196.82"><defs><style>.cls-1{fill:#808285;}.cls-2{fill:#ed1c24;}.cls-3,.cls-4{fill:none;stroke-linecap:round;stroke-miterlimit:10;}.cls-3{stroke:#808285;}.cls-4{stroke:#231f20;stroke-width:2px;}.cls-5{fill:#231f20;}</style></defs><title>word-problem-34-5</title><path class="cls-1" d="M207.25,51a14.18,14.18,0,0,1-12.08-2.67c-.49-.4-1.21.3-.7.7a15.21,15.21,0,0,0,13.05,2.94c.62-.15.36-1.12-.27-1Z" transform="translate(-13.62 -11.75)"/><path class="cls-1" d="M190.88,59.58a39.92,39.92,0,0,0,.29,5.24.51.51,0,0,0,.5.5.51.51,0,0,0,.5-.5,39.92,39.92,0,0,1-.29-5.24.5.5,0,0,0-1,0Z" transform="translate(-13.62 -11.75)"/><path class="cls-1" d="M193.47,58.52a13.48,13.48,0,0,1,.55,4.89.51.51,0,0,0,.5.5.5.5,0,0,0,.5-.5,14.52,14.52,0,0,0-.58-5.16.5.5,0,0,0-1,.27Z" transform="translate(-13.62 -11.75)"/><path class="cls-1" d="M189,61.05c1.05-.73,2.13-1.41,3.23-2,.56-.32,1.12-.62,1.68-.92l.8-.41a3.73,3.73,0,0,1,.4-.2l.1,0c.14,0,.11,0-.1-.1l-.07-.25v.06a.5.5,0,1,0,1,0c-.08-.69-.76-.84-1.33-.59-.74.32-1.45.72-2.16,1.11q-2.08,1.15-4.07,2.51c-.52.36,0,1.23.51.87Z" transform="translate(-13.62 -11.75)"/><path class="cls-1" d="M197.57,58.4l-2.22,5.49c-.36.89-.73,1.77-1.08,2.66-.13.34-.21.79.17,1a.61.61,0,0,0,.84-.26.53.53,0,0,0-.08-.61l0,0c-.43-.48-1.13.23-.7.71l0,0-.08-.61.1-.08.38,0-.06,0,.3.23c0,.15.08.13.11-.06l.12-.31.19-.48.45-1.09.82-2,1.72-4.24c.24-.59-.73-.85-1-.26Z" transform="translate(-13.62 -11.75)"/><path class="cls-1" d="M199.23,59.67c-.31,1.45-.67,2.88-1.07,4.3-.09.34.25.77.62.62l4.52-1.88a.52.52,0,0,0,.35-.62.5.5,0,0,0-.61-.35l-4.53,1.89.62.61c.4-1.42.75-2.86,1.06-4.3a.5.5,0,1,0-1-.27Z" transform="translate(-13.62 -11.75)"/><path class="cls-1" d="M200.87,59.23a30,30,0,0,0-.72,8.39c0,.64,1,.64,1,0a29.25,29.25,0,0,1,.68-8.13c.14-.62-.82-.89-1-.26Z" transform="translate(-13.62 -11.75)"/><path class="cls-2" d="M207.4,74.52c-6.33.76-12.89.88-19.11-.71A25,25,0,0,1,175,65.61a52.72,52.72,0,0,1-5.58-8.92c-.3-.57-1.17-.07-.86.5a59.34,59.34,0,0,0,4.93,8.12,25.26,25.26,0,0,0,7,6.4,33.34,33.34,0,0,0,14.89,4.21,63.56,63.56,0,0,0,12-.4c.63-.08.64-1.08,0-1Z" transform="translate(-13.62 -11.75)"/><path class="cls-2" d="M179.18,82.48a34.86,34.86,0,0,0-.72,5.29,14.25,14.25,0,0,0,.27,5.21c.2.61,1.16.35,1-.26a8.39,8.39,0,0,1-.29-2.5c0-.81,0-1.63.06-2.45a34.16,34.16,0,0,1,.68-5c.14-.62-.83-.89-1-.26Z" transform="translate(-13.62 -11.75)"/><path class="cls-2" d="M182.45,83.31a59.92,59.92,0,0,0,.34,9.28c.08.63,1.08.64,1,0a59.92,59.92,0,0,1-.34-9.28c0-.64-1-.64-1,0Z" transform="translate(-13.62 -11.75)"/><path class="cls-2" d="M176.3,83.73c2.09-.36,4.2-.69,6.31-1,1-.13,2.07-.25,3.11-.36a4.08,4.08,0,0,1,2.67.33c.55.34,1.05-.53.51-.87a4.43,4.43,0,0,0-2.77-.5c-1.1.09-2.19.24-3.28.37-2.28.29-4.56.63-6.82,1-.63.11-.36,1.07.27,1Z" transform="translate(-13.62 -11.75)"/><path class="cls-2" d="M191.73,81.77a150.34,150.34,0,0,0-8,14.14c-.28.58.58,1.09.87.51a150.41,150.41,0,0,1,8-14.15c.35-.54-.52-1-.86-.5Z" transform="translate(-13.62 -11.75)"/><path class="cls-2" d="M191.18,86.3a2.54,2.54,0,0,1,2.27-.56,2,2,0,0,1,1,.3c.43.33.23.86,0,1.26a7.78,7.78,0,0,1-4,3.23.5.5,0,0,0,0,1l2.8.91c.32.1.84.2,1,.55s-.1.85-.32,1.13a5,5,0,0,1-4.51,1.7c-.64-.07-.63.93,0,1,2,.23,4.68-.66,5.63-2.61a1.72,1.72,0,0,0-.65-2.4,10,10,0,0,0-1.69-.6l-2-.64v1a9.27,9.27,0,0,0,3.17-1.91c.81-.75,1.86-1.87,1.86-3,0-2.34-4.06-2.26-5.2-1-.42.48.28,1.19.7.71Z" transform="translate(-13.62 -11.75)"/><rect class="cls-3" x="187.49" y="135.08" width="5.85" height="5.85"/><line class="cls-4" x1="193.33" y1="21.16" x2="193.33" y2="140.92"/><line class="cls-4" x1="193.33" y1="21.16" x2="1" y2="140.92"/><line class="cls-4" x1="193.33" y1="140.92" x2="1" y2="140.92"/><path class="cls-5" d="M206.24,32.2l-2.61,3.21-7.1,8.71L186,57,173.22,72.73,159.18,90,145,107.34,131.8,123.55l-11.17,13.7-8,9.85-3.8,4.67-.16.19a1,1,0,0,0,0,1.42,1,1,0,0,0,1.41,0l2.61-3.2,7.1-8.72,10.51-12.88,12.81-15.73,14-17.22,14.17-17.39L184.5,62l11.17-13.7,8-9.85,3.81-4.66.16-.2a1,1,0,0,0,0-1.42,1,1,0,0,0-1.42,0Z" transform="translate(-13.62 -11.75)"/><path class="cls-5" d="M188.73,27.22l-1.4-12.14c0-.31-.28-1.06,0-1.29a2.38,2.38,0,0,1,.71-.08l.74-.07,3-.29,6.16-.6c.63-.06.64-1.06,0-1l-1.66.15c-.63.06-.64,1.06,0,1l1.66-.15v-1l-6.66.65c-1.15.11-2.3.21-3.45.33-.77.08-1.47.25-1.56,1.14a7.2,7.2,0,0,0,.12,1.46l.2,1.73.39,3.35.79,6.81c.07.63,1.07.64,1,0Z" transform="translate(-13.62 -11.75)"/><path class="cls-5" d="M187.37,19.11a16.32,16.32,0,0,0,7-.72c.61-.19.35-1.16-.27-1a15.67,15.67,0,0,1-6.7.68.51.51,0,0,0-.5.5.51.51,0,0,0,.5.5Z" transform="translate(-13.62 -11.75)"/><path class="cls-5" d="M195.58,26.79c-.53-3.39-1.11-7.61,1.56-10.32.25-.25.78-.83,1.18-.62.25.13.24.52.22.76a4.67,4.67,0,0,1-1,2.14,9,9,0,0,1-1.73,1.71,1.15,1.15,0,0,0-.33,1.58c.46.72,1.54,1,2.29,1.21A20.17,20.17,0,0,0,201,24a.51.51,0,0,0,.56-.74,1,1,0,0,0-.51-.5c-.59-.25-1.1.61-.51.86l.16.15.57-.74a19.88,19.88,0,0,1-3.16-.74,7.52,7.52,0,0,1-1.39-.53c-.18-.1-.41-.23-.31-.44s.38-.3.52-.41a6.77,6.77,0,0,0,2.64-4.23,1.71,1.71,0,0,0-.66-1.66,1.81,1.81,0,0,0-2.12.44,7.92,7.92,0,0,0-2.41,4.47,20.54,20.54,0,0,0,.26,7.12c.1.64,1.06.37,1-.26Z" transform="translate(-13.62 -11.75)"/><path class="cls-5" d="M202.76,14.27c-.11.09.07,1.07.08,1.21,0,.48,0,1,.06,1.46,0,.93,0,1.87,0,2.8a35.81,35.81,0,0,1-.8,5.76l1,.14v-.85a.5.5,0,0,0-1,0v.85a.5.5,0,0,0,1,.13,37.06,37.06,0,0,0,.89-7.71,22.26,22.26,0,0,0-.17-3.65c-.13-.84-.94-1.48-1.69-.85-.5.42.22,1.12.71.71Z" transform="translate(-13.62 -11.75)"/><path class="cls-5" d="M205.41,18.18a1.3,1.3,0,0,1,.73-.43l-.62-.35a22.92,22.92,0,0,1-.48,8.92c-.07.28.15.67.48.63l5-.61a.5.5,0,0,0,.43-.75l-.47-.88c-.31-.56-1.17-.06-.87.51l.48.87.43-.75-5,.61.48.64a24.29,24.29,0,0,0,.49-9.45.5.5,0,0,0-.62-.35,2.22,2.22,0,0,0-1.17.68c-.43.47.27,1.18.71.71Z" transform="translate(-13.62 -11.75)"/><path class="cls-5" d="M205.1,21.33a5.7,5.7,0,0,0,3.12,0,.5.5,0,0,0-.27-1q-.33.09-.66.15h-.13l-.16,0h-.84l-.1,0h-.18l-.16,0-.35-.1a.5.5,0,1,0-.27,1Z" transform="translate(-13.62 -11.75)"/><path class="cls-5" d="M205.28,17.6a22.69,22.69,0,0,0,5.13.53.5.5,0,0,0,0-1,21.54,21.54,0,0,1-4.87-.5c-.63-.13-.89.83-.26,1Z" transform="translate(-13.62 -11.75)"/><path class="cls-5" d="M212.53,27.29a75.36,75.36,0,0,1,.52-11.24l-.85.35c2.46,2.79,2.39,6.9,4.4,10a.5.5,0,0,0,.93-.25,67.1,67.1,0,0,0-.25-11.6l-1,.14.25.62c.23.6,1.2.34,1-.26l-.24-.63c-.19-.47-1-.48-1,.13a67.1,67.1,0,0,1,.25,11.6l.93-.25c-2.06-3.16-2-7.27-4.55-10.17-.32-.36-.81,0-.86.36a75.36,75.36,0,0,0-.52,11.24c0,.64,1,.64,1,0Z" transform="translate(-13.62 -11.75)"/><path class="cls-5" d="M218.91,25.75l.37.48a.51.51,0,0,0,.93-.26V16.15a1.07,1.07,0,0,1,0-.31c.06-.11-.24.09,0-.05s.54.1.69.18a6.61,6.61,0,0,1,2.6,3.64,8.7,8.7,0,0,1,.38,4.41c-.14.76-.33,1.69-1.22,1.86a4.3,4.3,0,0,1-2.3-.49c-.6-.25-.85.71-.27,1,1.48.62,3.55,1,4.38-.77a8.65,8.65,0,0,0,.24-5.44,8.8,8.8,0,0,0-2.85-4.73c-.59-.45-1.6-.92-2.3-.44a1.14,1.14,0,0,0-.39,1.08V26l.93-.25-.36-.47c-.39-.5-1.26,0-.87.5Z" transform="translate(-13.62 -11.75)"/><path class="cls-5" d="M201.34,169c-.64.05-.68-2.53-.72-2.95-.1-1.16-.16-2.32-.18-3.49s0-2.24.07-3.37c0-.73-.06-2.12.68-2.57.9-.57,1.95.84,2.37,1.47a8,8,0,0,1,1.15,2.74c.15.76.33,2-.34,2.56-.89.78-2.16-.19-2.88-.72-.52-.39-1,.48-.5.86a4.25,4.25,0,0,0,2.75,1.12,2.15,2.15,0,0,0,1.94-1.54c.62-1.9-.37-4.35-1.5-5.87a3.85,3.85,0,0,0-2.27-1.71,1.83,1.83,0,0,0-2,1.13,8.27,8.27,0,0,0-.44,3c-.06,1.33-.07,2.65,0,4s.18,2.85.37,4.26c.11.86.36,2.17,1.5,2.09.64,0,.64-1,0-1Z" transform="translate(-13.62 -11.75)"/><path class="cls-5" d="M207.1,168.77a5.62,5.62,0,0,1,.16-3,6,6,0,0,1,.7-1.38,2.61,2.61,0,0,1,1-1c.92-.39,1.4.81,1.34,1.54a2.34,2.34,0,0,1-1.39,1.92,3,3,0,0,1-1.57.18,3.56,3.56,0,0,1-.85-.23l-.36-.19s0,0-.05,0v0c-.09-.06-.13,0-.12.31a.51.51,0,0,0,.18-.69.53.53,0,0,0-.69-.18c-.75.33-.23,1.27.26,1.54a4.36,4.36,0,0,0,2.06.54,3.45,3.45,0,0,0,3.24-2,2.79,2.79,0,0,0-.81-3.51c-1.42-.88-2.79.61-3.43,1.75a6.48,6.48,0,0,0-.68,4.68c.14.63,1.11.37,1-.26Z" transform="translate(-13.62 -11.75)"/><path class="cls-5" d="M210.23,168.92l.4.31a.5.5,0,0,0,.85-.35,34,34,0,0,1,.89-5.77c.22-.9.47-1.8.77-2.68a2.69,2.69,0,0,1,1.29-1.79h-.5c1.22.92,1.33,2.93,1.54,4.31a45.31,45.31,0,0,1,.46,5.7l.75-.43a2.59,2.59,0,0,1-.87-.71c-.42-.49-1.12.22-.71.71a3.34,3.34,0,0,0,1.08.86.5.5,0,0,0,.75-.43,47.1,47.1,0,0,0-.56-6.38c-.26-1.64-.52-3.43-1.94-4.49a.5.5,0,0,0-.5,0,3,3,0,0,0-1.52,1.76,21,21,0,0,0-.91,2.92,35.63,35.63,0,0,0-1,6.42l.86-.36-.41-.31c-.5-.39-1.21.31-.7.71Z" transform="translate(-13.62 -11.75)"/><path class="cls-5" d="M212.19,164a11.8,11.8,0,0,0,4.65.53.5.5,0,0,0,0-1,11.24,11.24,0,0,1-4.39-.49c-.61-.2-.87.76-.26,1Z" transform="translate(-13.62 -11.75)"/><path class="cls-5" d="M220.6,160.56a.91.91,0,0,0-1.07-.64,1.4,1.4,0,0,0-.95,1,13.94,13.94,0,0,0-.92,3.59,6.67,6.67,0,0,0,.17,3.11,2.14,2.14,0,0,0,2,1.54,2.09,2.09,0,0,0,2-2,.5.5,0,0,0-1,0,1.06,1.06,0,0,1-1.33,1c-.7-.25-.88-1.16-.92-1.81a10.89,10.89,0,0,1,.27-2.9,12.5,12.5,0,0,1,.42-1.48,5.69,5.69,0,0,1,.25-.69c0-.1.1-.18.15-.27s0,.06,0-.11a.5.5,0,0,0,1-.27Z" transform="translate(-13.62 -11.75)"/><path class="cls-5" d="M221.47,160.67a43.53,43.53,0,0,1,.18,8.54c-.05.64.95.64,1,0a43.53,43.53,0,0,0-.18-8.54c-.08-.63-1.08-.64-1,0Z" transform="translate(-13.62 -11.75)"/><path class="cls-5" d="M222.19,165.15l0,0,.09-.07.18-.11.33-.19a4,4,0,0,1,.72-.26,4.19,4.19,0,0,1,1.49-.07.51.51,0,0,0,.62-.35.51.51,0,0,0-.35-.61,4.85,4.85,0,0,0-3.82,1,.51.51,0,0,0,0,.71.52.52,0,0,0,.71,0Z" transform="translate(-13.62 -11.75)"/><path class="cls-5" d="M225.21,158.42v9.91a.5.5,0,0,0,1,0v-9.91a.5.5,0,0,0-1,0Z" transform="translate(-13.62 -11.75)"/><path class="cls-5" d="M227.93,159.86A3.2,3.2,0,0,1,228,162l-.36,2.49-.74,5.09a.51.51,0,0,0,.73.56,27,27,0,0,1,4.42-1.65.51.51,0,0,0,.22-.84l-.33-.42c-.4-.5-1.1.21-.71.71l.34.42.22-.83a27.51,27.51,0,0,0-4.66,1.75l.73.56.83-5.68c.13-.89.27-1.77.39-2.66a3.29,3.29,0,0,0-.33-2.18c-.33-.55-1.2-.05-.86.5Z" transform="translate(-13.62 -11.75)"/><path class="cls-5" d="M227.32,164.26a26.38,26.38,0,0,0,3.29.59.5.5,0,0,0,.43-.25.84.84,0,0,0-.49-1.24.5.5,0,0,0-.62.35.51.51,0,0,0,.35.61c.08,0-.05,0-.07,0l0-.05s0,0,0,0,0-.14,0-.06.06-.16,0-.08l.43-.25a26.63,26.63,0,0,1-3-.55.52.52,0,0,0-.62.35.51.51,0,0,0,.35.61Z" transform="translate(-13.62 -11.75)"/><path class="cls-5" d="M227.85,160.29a2.88,2.88,0,0,0,3.09.84.53.53,0,0,0,.35-.62.52.52,0,0,0-.62-.35,1.68,1.68,0,0,1-.32.09l-.09,0c-.07,0,.09,0,0,0h-.17a1.82,1.82,0,0,1-.33,0h0l-.09,0-.16,0-.16,0-.07,0c-.09,0,0,0,0,0L229,160a.42.42,0,0,1-.14-.09s.06.05,0,0l-.07-.06a3.07,3.07,0,0,1-.25-.26.51.51,0,0,0-.71,0,.53.53,0,0,0,0,.71Z" transform="translate(-13.62 -11.75)"/><path class="cls-5" d="M233.28,168.44a.78.78,0,0,0,1.4-.19,2.32,2.32,0,0,0,0-1.11c-.07-.5-.13-1-.17-1.51-.09-1-.13-1.94-.13-2.92a17.52,17.52,0,0,1,.15-2.71c0-.2.1-.58.31-.68s.93.45,1.11.62a1.7,1.7,0,0,1,.6,1.92c-.27.58-1.07.72-1.52,1.13a1.7,1.7,0,0,0-.42,1.84,3,3,0,0,0,1.78,1.65c.76.34,1.65.6,2,1.41l.44-.75h-.41a.5.5,0,0,0,0,1h.41a.51.51,0,0,0,.43-.75,3.09,3.09,0,0,0-1.55-1.41c-.68-.33-1.63-.54-2.05-1.23a.82.82,0,0,1-.06-.92,2.42,2.42,0,0,1,.85-.56,2.16,2.16,0,0,0,1.15-1.51,2.59,2.59,0,0,0-.52-2,3.83,3.83,0,0,0-1.83-1.37c-1.82-.49-1.81,2.18-1.86,3.26a30.13,30.13,0,0,0,0,3.29c0,.51.08,1,.14,1.54,0,.26.07.52.1.77l.06.36,0,.18c0,.24.1.3.42.18-.35-.54-1.22,0-.87.5Z" transform="translate(-13.62 -11.75)"/><path class="cls-5" d="M99.42,170q-.47-4-.77-8.1c-.05-.64-.09-1.29-.14-1.94l-.06-1c0-.48.18-.67.65-.73a5.64,5.64,0,0,1,3.53.69,1.16,1.16,0,0,1,.54.53c.1.3-.11.66-.24.92a5.13,5.13,0,0,1-1,1.3,5.35,5.35,0,0,1-1.15.85c-.38.2-.9.32-1.1.75-.44.94,1,1.36,1.62,1.57,1.07.35,2.31.52,3.13,1.37a1.59,1.59,0,0,1,.48,1.68A2.66,2.66,0,0,1,103.5,169a6.88,6.88,0,0,1-4.08.45l.22.84.81-.93c.42-.48-.29-1.19-.71-.7l-.81.92a.51.51,0,0,0,.22.84,8.27,8.27,0,0,0,4.16-.27A3.85,3.85,0,0,0,106,168a2.84,2.84,0,0,0-1.31-3,5.77,5.77,0,0,0-1.73-.79l-1-.3-.4-.13c-.19-.06-.56-.32-.75-.31l-.09-.05c0,.21,0,.25.16.14a1.68,1.68,0,0,0,.34-.15,5.73,5.73,0,0,0,.79-.48,6.17,6.17,0,0,0,1.36-1.34c.68-.91,1.34-2.2.4-3.16a5.6,5.6,0,0,0-3.56-1.29c-1.16-.06-2.7.07-2.7,1.54,0,1.84.24,3.72.4,5.55s.36,3.79.58,5.68c.07.64,1.07.64,1,0Z" transform="translate(-13.62 -11.75)"/><path class="cls-5" d="M107.87,160.74a15.93,15.93,0,0,1-.28,4.77c-.12.77-.25,1.54-.35,2.31a8.39,8.39,0,0,0-.11,2.29c.24,1.54,2.13.9,3.06.5a7.88,7.88,0,0,0,1.82-1.06,1.59,1.59,0,0,0,.83-1.56c-.09-.63-1-.36-1,.27.05.32-.93.83-1.16,1a7.29,7.29,0,0,1-1.53.7,3.8,3.8,0,0,1-.74.18c-.35,0-.34-.17-.34-.48a13.94,13.94,0,0,1,.15-1.93c.31-2.41.92-4.78.57-7.23-.09-.63-1-.36-1,.27Z" transform="translate(-13.62 -11.75)"/><path class="cls-5" d="M107.65,165.51a12.59,12.59,0,0,0,3.94.77.5.5,0,0,0,.5-.5.51.51,0,0,0-.5-.5,12.16,12.16,0,0,1-3.68-.73.49.49,0,0,0-.61.35.5.5,0,0,0,.35.61Z" transform="translate(-13.62 -11.75)"/><path class="cls-5" d="M107.76,162.05a9.55,9.55,0,0,0,3.64-.53.5.5,0,0,0-.26-1,8.65,8.65,0,0,1-3.38.49.5.5,0,0,0-.5.5.51.51,0,0,0,.5.5Z" transform="translate(-13.62 -11.75)"/><path class="cls-5" d="M113.48,170.54c.77.33,1-.41,1-1s.06-1.48.1-2.22a15.87,15.87,0,0,1,.74-4.49,2.89,2.89,0,0,0,.21-.49c.07-.09,0-.08-.12,0a1.7,1.7,0,0,1,.17.23,3.11,3.11,0,0,1,.39.9c.23.78.39,1.58.55,2.37.34,1.62.63,3.26.87,4.91l.73-.57-1.28-.75a.5.5,0,0,0-.5.86l1.28.76a.51.51,0,0,0,.73-.57q-.37-2.64-.93-5.25a16.84,16.84,0,0,0-.62-2.42c-.2-.52-.55-1.33-1.16-1.47s-1.08.66-1.28,1.22a12.8,12.8,0,0,0-.57,2.43c-.11.78-.17,1.55-.21,2.33,0,.43,0,.85,0,1.27,0,.12,0,1.14,0,1.15h.5l-.08,0c-.58-.25-1.09.61-.5.86Z" transform="translate(-13.62 -11.75)"/><path class="cls-5" d="M114.32,166.57l.34-.06h.1l.16,0,.66,0a4.63,4.63,0,0,1,.65,0h.16c-.08,0,.06,0,.08,0l.36.06a.51.51,0,0,0,.62-.34.52.52,0,0,0-.35-.62,7.29,7.29,0,0,0-3,0,.5.5,0,0,0,.27,1Z" transform="translate(-13.62 -11.75)"/><path class="cls-5" d="M118.89,169.16c0,.78,1.08.86,1.31.16a2.14,2.14,0,0,0-.07-1c-.08-.45-.17-.9-.24-1.35a12,12,0,0,1,0-5.23c.07-.25.15-.75.49-.7s.72.46,1,.72a2,2,0,0,1,.58,1.92c-.21.62-.85.75-1.34,1.07a1.41,1.41,0,0,0-.7,1.52c.21.81,1.09,1.22,1.74,1.62.9.55,1.78,1.12,2.65,1.72.54.36,1-.5.51-.86-.76-.52-1.52-1-2.3-1.51-.34-.21-.69-.41-1-.63s-.64-.38-.61-.68,1-.67,1.26-.89a2.19,2.19,0,0,0,.89-1.63,3,3,0,0,0-.65-2,3.5,3.5,0,0,0-1.62-1.33c-1.74-.52-2,2.08-2.08,3.22a14.2,14.2,0,0,0,.13,2.84c.07.5.15,1,.23,1.49,0,.23.09.47.13.71l.06.31,0,.16c0,.28.17.3.53,0l.14.35v-.07c0-.64-1-.64-1,0Z" transform="translate(-13.62 -11.75)"/><path class="cls-5" d="M213.31,34.91a3.7,3.7,0,0,1,3.43.94,6.18,6.18,0,0,1,1.86,3.56,23.26,23.26,0,0,1,.28,4.49c0,1.65,0,3.29,0,4.93q-.12,9.87-.94,19.7c-.3,3.69-.69,7.37-1.14,11a.49.49,0,0,0,.36.48,16.82,16.82,0,0,1,8.58,6.42l.43-.76-4.41.12-2,0a3.1,3.1,0,0,0-1.59.26c-1,.6-.47,1.89-.28,2.77.3,1.38.53,2.78.71,4.18a85.22,85.22,0,0,1,.23,16.13c-.35,5.52-.94,11-1.24,16.54-.14,2.71-.21,5.43-.13,8.14s.37,5.41.66,8.12.47,5.81-1.42,7.92c-1.39,1.56-3.8,2.57-5.66,1.21-.52-.38-1,.49-.5.87a4.72,4.72,0,0,0,5.12,0,7,7,0,0,0,3.39-4.82c.53-2.58.06-5.2-.23-7.78a72.54,72.54,0,0,1-.39-8.34c.06-11.05,2.1-22,1.59-33.1A58.29,58.29,0,0,0,219,89c-.1-.45-.66-1.82-.09-2a3.34,3.34,0,0,1,1-.07l1.22,0,5-.13a.5.5,0,0,0,.43-.75,18,18,0,0,0-9.17-6.88l.37.49q1.29-10.47,1.79-21,.25-5.24.3-10.48c0-1.75,0-3.5,0-5.25a16.41,16.41,0,0,0-.51-4.53c-.79-2.66-3.33-5.2-6.32-4.37a.5.5,0,0,0,.27,1Z" transform="translate(-13.62 -11.75)"/><path class="cls-5" d="M229.92,78.19l-.47,7.62c0,.32.48.32.5,0l.47-7.62c0-.32-.48-.32-.5,0Z" transform="translate(-13.62 -11.75)"/><path class="cls-5" d="M233.8,80.64a6.26,6.26,0,0,1-.71,2.77c-.38.85-.78,1.69-1.18,2.54l-2.44,5.25c-.13.29.3.55.44.25l2.61-5.63c.75-1.61,1.83-3.35,1.78-5.18a.25.25,0,0,0-.5,0Z" transform="translate(-13.62 -11.75)"/><path class="cls-5" d="M234.67,86.58a.66.66,0,0,1,.77-.07,1.11,1.11,0,0,1,.51.78,2.93,2.93,0,0,1-.28,1.79,3.61,3.61,0,0,1-2.79,2c-.31,0-.32.53,0,.5a8.27,8.27,0,0,1,3.81.61c.3.13.43-.36.14-.48a8.61,8.61,0,0,0-4-.63v.5a4.13,4.13,0,0,0,3.43-2.78,2.71,2.71,0,0,0-.14-2.31,1.22,1.22,0,0,0-1.85-.3c-.23.22.12.58.35.35Z" transform="translate(-13.62 -11.75)"/><path class="cls-5" d="M241.22,82a51.09,51.09,0,0,1-.12,8.39l.49-.07a13.23,13.23,0,0,1,.24-5.53c.12-.43.25-.85.41-1.27s.34-1.11.75-1.18.65.93.75,1.27a9.08,9.08,0,0,1,.29,1.54c0,.18.28.37.43.18a16.49,16.49,0,0,0,1.72-2.73h-.43a9.42,9.42,0,0,1,.41,7.38c-.1.31.38.44.49.14a10,10,0,0,0-.47-7.77.25.25,0,0,0-.43,0A16.25,16.25,0,0,1,244.1,85l.43.18a9.31,9.31,0,0,0-.36-1.82,2.67,2.67,0,0,0-.66-1.37c-.9-.68-1.53.82-1.76,1.43a13.72,13.72,0,0,0-.64,7.07c0,.29.47.19.49-.07a51.09,51.09,0,0,0,.12-8.39c0-.32-.53-.32-.5,0Z" transform="translate(-13.62 -11.75)"/><path class="cls-5" d="M249.94,90.34a19.17,19.17,0,0,1-.49-4.53.25.25,0,0,0-.5,0,19.7,19.7,0,0,0,.51,4.66c.07.32.56.18.48-.13Z" transform="translate(-13.62 -11.75)"/><path class="cls-5" d="M249.19,81.87a.25.25,0,0,0,0-.5.25.25,0,0,0,0,.5Z" transform="translate(-13.62 -11.75)"/><path class="cls-5" d="M250.59,80.46a28.64,28.64,0,0,1-.57,9.85c-.07.31.41.45.48.13a28.64,28.64,0,0,0,.59-10c0-.32-.54-.32-.5,0Z" transform="translate(-13.62 -11.75)"/><path class="cls-5" d="M253.06,87.1c.51-1.07,1.87-1.34,2.23-2.53a1.15,1.15,0,0,0-1.58-1.48,3.94,3.94,0,0,0-1.81,3.08,4.78,4.78,0,0,0,.83,3.54,4.27,4.27,0,0,0,3.32,1.75.25.25,0,0,0,0-.5A3.79,3.79,0,0,1,253,89.18a4.55,4.55,0,0,1-.36-3.86,3.21,3.21,0,0,1,1.06-1.63.85.85,0,0,1,.91-.16.69.69,0,0,1,.26.81c-.27,1.16-1.72,1.47-2.21,2.51-.14.29.3.54.43.25Z" transform="translate(-13.62 -11.75)"/><path class="cls-5" d="M14.37,171.85c-.81,2,.61,3.81,2.25,4.83a10.55,10.55,0,0,0,7.52,1c3-.53,5.91-1.71,9-2.22a44.22,44.22,0,0,1,9.69-.37c6.45.34,12.87,1.39,19.34.94a61.66,61.66,0,0,1,10-.35c3.41.31,6.75,1.1,10.12,1.64a114.78,114.78,0,0,0,22.3,1.33l-.48-.37q1.92,5.77,4.15,11.43a.51.51,0,0,0,1,0l3.77-10.61-.62.35c3,1.1,6.19.85,9.3.53A44.13,44.13,0,0,1,131.7,180c7,.85,14,1.46,21,1.64s14.1.11,21.16.22c3.55.06,7.1.17,10.65.37s6.82.61,10.24.83,7,.13,9.83-1.8c2-1.35,3.69-3.74,2.65-6.2-.25-.59-1.21-.33-1,.26,1.07,2.56-1.31,4.78-3.44,5.78-2.85,1.34-6.28,1.13-9.33.87-6.61-.57-13.19-1-19.83-1.11-13.26-.21-26.57.17-39.75-1.57a46.43,46.43,0,0,0-10.92-.38c-3.47.35-7.07.89-10.42-.36a.52.52,0,0,0-.62.35l-3.77,10.62h1q-2.23-5.67-4.16-11.44a.5.5,0,0,0-.48-.36,113.53,113.53,0,0,1-19.06-.86c-6.26-.82-12.37-2.57-18.73-2.14-3.1.22-6.17.55-9.28.49s-6.22-.37-9.32-.65c-5.89-.52-11.89-1-17.69.51-3.18.8-6.43,2.18-9.78,1.93-2.22-.18-6.51-1.93-5.34-4.85.24-.6-.72-.86-1-.27Z" transform="translate(-13.62 -11.75)"/><path class="cls-5" d="M82.37,199.3a1.56,1.56,0,0,1,2.08-1,5,5,0,0,1,2.18,1.83A10.94,10.94,0,0,1,88.72,205c0,.29.47.19.49-.07q.3-3.45.35-6.92c0-1.2,0-2.39,0-3.59,0-1-.19-2.15-.12-3.2,0-.71.44-1,1.08-1.17l1.78-.47,3.3-.88a10,10,0,0,1,3.09-.59,2.06,2.06,0,0,1,1.94,2,13.92,13.92,0,0,1-.18,3.09l-.21,2-.1,1c0,.1-.18,1.27-.39,1.1s-.6.16-.35.36c.61.48,1.07-.3,1.17-.85.27-1.43.32-2.94.47-4.39.19-1.83.29-4.39-2.09-4.71a8.78,8.78,0,0,0-3.36.54l-4.25,1.14c-1,.26-2.16.39-2.37,1.58a7.09,7.09,0,0,0,0,1.66c0,.74.06,1.49.08,2.23a88,88,0,0,1-.32,10.14l.49-.06a11,11,0,0,0-3.09-6,3.24,3.24,0,0,0-2.51-1.09,1.92,1.92,0,0,0-1.71,1.45c-.06.31.42.45.48.13Z" transform="translate(-13.62 -11.75)"/><path class="cls-5" d="M92.4,193.54a5.14,5.14,0,0,1,2.43.72,1.7,1.7,0,0,1,.69,2c-.49,1-2.08.8-2.51,2a.25.25,0,0,0,.17.31c.86.24,1.71.49,2.55.76.48.16,1.06.26,1.15.84a2.56,2.56,0,0,1-.2,1.12A4.23,4.23,0,0,1,95.45,203a3.58,3.58,0,0,1-.84.55,1.89,1.89,0,0,1-.51.21s-.69,0-.57-.17a.25.25,0,0,0-.44-.25c-.47.78.78,1,1.29.85a4.65,4.65,0,0,0,2.4-2c.42-.72,1-2,.33-2.78a3.29,3.29,0,0,0-1.54-.7c-.75-.24-1.5-.46-2.26-.67l.18.31c.25-.7,1.24-.81,1.8-1.16a1.66,1.66,0,0,0,.82-1.65c-.19-1.86-2.18-2.29-3.71-2.48-.32,0-.31.46,0,.5Z" transform="translate(-13.62 -11.75)"/><path class="cls-5" d="M105,190.53a53.52,53.52,0,0,1-5.55,17.66c-.14.29.28.54.44.25l.23-.4c.16-.28-.27-.54-.43-.26l-.24.41.44.25a54.52,54.52,0,0,0,5.61-17.91c0-.32-.45-.32-.5,0Z" transform="translate(-13.62 -11.75)"/><path class="cls-5" d="M108.74,196.55a2.56,2.56,0,0,1,3,.64,3.21,3.21,0,0,1,.58,3.39c-1,2.75-4,3.71-6.55,4.47-.22.07-.25.44,0,.49a28.51,28.51,0,0,0,8.45.31c.31,0,.32-.54,0-.5a27.58,27.58,0,0,1-8.31-.3v.49c2.35-.71,4.91-1.53,6.33-3.69,1.16-1.8,1.16-4.24-.75-5.51a2.9,2.9,0,0,0-3-.22c-.29.15,0,.59.25.43Z" transform="translate(-13.62 -11.75)"/><path class="cls-5" d="M125.67,196.82a28.36,28.36,0,0,0,.69,8.06l.48-.14a14.21,14.21,0,0,1,.65-9.23l-.39.05c1.47,1.61,1.65,3.89,1.79,6a.25.25,0,0,0,.5,0,15.73,15.73,0,0,1,.73-3.4,15.38,15.38,0,0,1,.62-1.59,1.75,1.75,0,0,1,.39-.66c.34-.27.56,0,.67.33a8.34,8.34,0,0,1,.26,1.65c.06.59.09,1.19.1,1.79a19,19,0,0,1-.3,3.69c-.05.31.43.45.49.13a20.93,20.93,0,0,0,.29-4.54,20.43,20.43,0,0,0-.23-2.21c-.08-.47-.16-1.08-.61-1.36-1.06-.68-1.66,1.27-1.91,1.92a16.76,16.76,0,0,0-1,4.25h.5c-.15-2.21-.37-4.6-1.94-6.31a.25.25,0,0,0-.39,0,14.79,14.79,0,0,0-.7,9.62c.08.31.55.18.48-.14a28.13,28.13,0,0,1-.67-7.92c0-.32-.48-.32-.5,0Z" transform="translate(-13.62 -11.75)"/><path class="cls-5" d="M135.36,206.68a7.3,7.3,0,0,0,.9-5.42c-.07-.32-.55-.18-.48.13a6.8,6.8,0,0,1-.85,5,.25.25,0,0,0,.43.25Z" transform="translate(-13.62 -11.75)"/><path class="cls-5" d="M136,196.22v-.3a.27.27,0,0,0-.08-.18.16.16,0,0,0-.08-.05l-.09,0a.24.24,0,0,0-.18.07.29.29,0,0,0-.07.18v.3a.31.31,0,0,0,.07.18l.08,0,.1,0a.22.22,0,0,0,.17-.07.25.25,0,0,0,.08-.18Z" transform="translate(-13.62 -11.75)"/><path class="cls-5" d="M139.09,191.42a27.61,27.61,0,0,1,.5,13.09c-.06.31.42.45.49.13a28.18,28.18,0,0,0-.51-13.35.25.25,0,0,0-.48.13Z" transform="translate(-13.62 -11.75)"/><path class="cls-5" d="M142.22,200.86a16,16,0,0,0,1.52-1.86,8.08,8.08,0,0,0,1.13-1.92.91.91,0,0,0-.6-1.26,1.29,1.29,0,0,0-1.32.55,6.75,6.75,0,0,0-.94,2.08,10.2,10.2,0,0,0-.4,2.26c-.07,1.16,0,2.68,1.13,3.38a1.61,1.61,0,0,0,2.48-1c0-.32-.47-.31-.5,0,0,.51-.58.75-1,.76a1.41,1.41,0,0,1-1.27-.89,6.2,6.2,0,0,1,0-4,8,8,0,0,1,.81-2.08,1.17,1.17,0,0,1,.64-.6c.36-.09.7.12.6.52a3.67,3.67,0,0,1-.52,1c-.19.31-.39.62-.6.92a16.24,16.24,0,0,1-1.44,1.76c-.22.24.13.59.35.35Z" transform="translate(-13.62 -11.75)"/><path class="cls-5" d="M148.87,194.43a2.75,2.75,0,0,0-1.64,2.44,6.48,6.48,0,0,0,1,3.63c.59,1.09,2.36,3.84.66,4.69s-3.8.18-5.49-.33c-.31-.09-.44.39-.13.49a9.51,9.51,0,0,0,5.16.54,2.16,2.16,0,0,0,1.54-1.12,3.28,3.28,0,0,0-.13-2.05c-.47-1.5-1.56-2.75-1.95-4.27-.32-1.23-.21-3,1.15-3.54.29-.12.16-.61-.14-.48Z" transform="translate(-13.62 -11.75)"/></svg>