<svg id="Layer_1" data-name="Layer 1" xmlns="http://www.w3.org/2000/svg" viewBox="0 0 183.74 167.52"><defs><style>.cls-1{fill:#231f20;}</style></defs><title>arc-length-differential-1</title><path class="cls-1" d="M198.21,29.31Q185.13,42.2,172.37,55.4T147.11,82.23q-12.42,13.51-24.5,27.35T98.72,137.63Q87,151.76,75.62,166.18c-.93,1.17-1.85,2.35-2.78,3.53a1.55,1.55,0,0,0,0,2.12,1.52,1.52,0,0,0,2.13,0q11.32-14.45,23-28.61t23.8-28.13q12-13.86,24.42-27.43t25.18-26.9q12.72-13.24,25.75-26.17l3.2-3.16c1.38-1.36-.75-3.48-2.12-2.12Z" transform="translate(-71.42 -6.96)"/><path class="cls-1" d="M186.64,35.89a36.62,36.62,0,0,1,14.23-5.38L199,29.06q.93,7,1.24,14.06a1.54,1.54,0,0,0,1.5,1.5,1.5,1.5,0,0,0,1.5-1.5q-.32-7-1.24-14.06a1.53,1.53,0,0,0-1.9-1.44,38.8,38.8,0,0,0-14.95,5.68,1.5,1.5,0,1,0,1.52,2.59Z" transform="translate(-71.42 -6.96)"/><path class="cls-1" d="M73.58,154.67c-1,6.08-1.69,12.21-2.15,18.35-.1,1.23,1.31,1.74,2.25,1.3a48.39,48.39,0,0,1,16.59-4.47,1.54,1.54,0,0,0,1.5-1.5,1.51,1.51,0,0,0-1.5-1.5,52.23,52.23,0,0,0-18.1,4.88L74.43,173q.66-8.82,2-17.56a1.53,1.53,0,0,0-1-1.84,1.51,1.51,0,0,0-1.85,1Z" transform="translate(-71.42 -6.96)"/><path class="cls-1" d="M206.8,7.44c-.28,3.6-1.71,7.67,1,10.72a4.41,4.41,0,0,0,3.81,1.62c1.69-.24,2.91-1.67,3.88-3a15.69,15.69,0,0,0,2.66-5.5.5.5,0,0,0-1-.27,241.37,241.37,0,0,1-10.05,24c-.28.57.58,1.08.86.5a240.31,240.31,0,0,0,10.15-24.18l-1-.27a14.88,14.88,0,0,1-2.68,5.42c-1.12,1.42-2.69,3-4.62,2.06a5.26,5.26,0,0,1-2.73-4.46c-.15-2.23.47-4.42.64-6.63,0-.65-1-.64-1,0Z" transform="translate(-71.42 -6.96)"/><path class="cls-1" d="M218.77,23.57A67.17,67.17,0,0,1,226.72,22l-.36-.86-.71.84c-.41.49.3,1.2.71.71l.71-.84c.24-.29.12-.92-.35-.85a69.09,69.09,0,0,0-8.21,1.56.5.5,0,0,0,.26,1Z" transform="translate(-71.42 -6.96)"/><path class="cls-1" d="M217.17,28.43A19.86,19.86,0,0,0,227,26c.56-.31.06-1.18-.51-.87a18.63,18.63,0,0,1-9.3,2.31.5.5,0,0,0,0,1Z" transform="translate(-71.42 -6.96)"/><path class="cls-1" d="M232.92,16.93l6,10.67,1.52,2.69a10,10,0,0,0,1.32,2.21c1.16,1.14,2.15-1,1-1.22-.63-.1-.9.86-.27,1v-.46a.8.8,0,0,1-.15-.21c-.09-.13-.15-.26-.23-.39l-.54-1-1.1-1.94-2.24-4-4.44-7.87a.5.5,0,0,0-.86.51Z" transform="translate(-71.42 -6.96)"/><path class="cls-1" d="M243.08,14.37,230.44,32.3c-.3.42.27.93.68.69l2-1.23a.5.5,0,0,0-.5-.86l-2,1.22.68.69,12.64-17.94c.38-.52-.49-1-.86-.5Z" transform="translate(-71.42 -6.96)"/><path class="cls-1" d="M245.66,8.39c1.92,1.14,4.54,2.76,4.14,5.39-.2,1.35-1.39,2-2.57,2.37a16.45,16.45,0,0,1-4.32.89c-.64.05-.65,1,0,1a26.72,26.72,0,0,1,11.49,2.52c.57.27,1.08-.59.5-.87a27.89,27.89,0,0,0-12-2.65v1a16.77,16.77,0,0,0,5.17-1.14,3.94,3.94,0,0,0,2.69-2.84c.56-3.15-2.25-5.14-4.61-6.53a.5.5,0,0,0-.5.86Z" transform="translate(-71.42 -6.96)"/></svg>