<svg id="Layer_1" data-name="Layer 1" xmlns="http://www.w3.org/2000/svg" viewBox="0 0 254.25 200.59"><defs><style>.cls-1{fill:#808285;}.cls-2{fill:#231f20;}</style></defs><title>arc-length-parabola-1</title><path class="cls-1" d="M35.42,148.75q-6.15,5.63-11.77,11.79c-.68.74-1.81,1.64-1.95,2.71s1,1.82,1.81,2.41l7,4.94,8,5.65c.45.32.88-.28.69-.68l-.66-1.39c-.28-.58-1.14-.07-.87.51l.66,1.38.69-.68-13-9.23-1.51-1.08a7.59,7.59,0,0,1-1.54-1.16c-.43-.53,0-1,.36-1.44s.9-1,1.36-1.5c1.71-1.87,3.47-3.71,5.26-5.51q3.06-3.08,6.27-6c.47-.44-.24-1.14-.71-.71Z" transform="translate(-12.63 -5.25)"/><path class="cls-1" d="M23.25,162.8c15.2,3,30.73,2,46.11,1.75a195.46,195.46,0,0,1,23.34.76c7.86.81,15.68,2.08,23.56,2.71,15.92,1.28,31.83-1.09,47.7-2.15s31.81-1.5,47.73-1.3,32,1,47.89,2.47q3,.27,5.94.57c.64.07.63-.94,0-1a607.45,607.45,0,0,0-95.37-2.12c-7.93.44-15.84,1.1-23.76,1.79a206.78,206.78,0,0,1-23.73,1.09c-7.91-.21-15.75-1.35-23.6-2.32a190.65,190.65,0,0,0-23.4-1.56c-17.38,0-35,1.75-52.14-1.65-.63-.12-.9.84-.27,1Z" transform="translate(-12.63 -5.25)"/><path class="cls-1" d="M255.69,154.27l10.25,13.35.18-.68a69.8,69.8,0,0,0-12,10.16c-.44.47.27,1.18.71.71a68.73,68.73,0,0,1,11.79-10,.49.49,0,0,0,.18-.68l-10.24-13.35c-.39-.5-1.26,0-.87.5Z" transform="translate(-12.63 -5.25)"/><path class="cls-1" d="M119.93,192.11q5.63,6.15,11.79,11.77c.74.68,1.64,1.81,2.71,2s1.82-1,2.41-1.81l4.94-7,5.65-8c.32-.45-.28-.88-.68-.69l-1.39.66c-.58.28-.07,1.14.51.86l1.38-.65-.68-.69-9.23,13-1.08,1.51a7.26,7.26,0,0,1-1.16,1.53c-.53.43-1,0-1.44-.35s-1-.91-1.5-1.36c-1.87-1.71-3.71-3.47-5.51-5.26q-3.09-3.06-6-6.27c-.44-.47-1.14.23-.71.71Z" transform="translate(-12.63 -5.25)"/><path class="cls-1" d="M134,204.28c2.2-12.09,1.47-24.41,1.27-36.62a173.24,173.24,0,0,1,.56-18.51c.59-6.24,1.51-12.45,2-18.7.93-12.63-.8-25.25-1.57-37.84s-1.08-25.24-.94-37.87.74-25.36,1.79-38l.42-4.71c.06-.64-.94-.64-1,0a525,525,0,0,0-1.54,75.66c.32,6.3.8,12.58,1.3,18.86a179.33,179.33,0,0,1,.79,18.83c-.15,6.27-1,12.49-1.69,18.72a167.06,167.06,0,0,0-1.13,18.57c0,13.77,1.28,27.69-1.19,41.34-.11.63.85.9,1,.27Z" transform="translate(-12.63 -5.25)"/><path class="cls-1" d="M124.7,21.39l13.35-10.25-.68-.18a69.35,69.35,0,0,0,10.16,12c.47.44,1.18-.26.71-.7a68.79,68.79,0,0,1-10-11.8.51.51,0,0,0-.68-.18L124.2,20.53c-.5.38,0,1.25.5.86Z" transform="translate(-12.63 -5.25)"/><path class="cls-2" d="M240.56,32C234.77,55.41,223,76.74,209.81,96.7c-6.69,10.08-13.77,19.89-20.9,29.66-6.94,9.51-14.2,19-23.45,26.39-8.93,7.16-20.13,12.24-31.73,12.27a30.44,30.44,0,0,1-9.58-1.38A62.53,62.53,0,0,1,111.77,158c-10.43-6.14-18.64-15.24-25.93-24.75s-14.3-19.4-21.12-29.3C51.12,84.21,38.52,63.33,31.38,40.3c-.84-2.73-1.61-5.49-2.29-8.26a1,1,0,0,0-1.93.53C33,56.38,45,78.09,58.53,98.38c6.76,10.16,13.92,20.07,21.13,29.92s14.61,19.34,24.19,26.75a67.2,67.2,0,0,0,15.07,8.77,43.85,43.85,0,0,0,7.13,2.46c11,2.51,23-1,32.61-6.46,10.45-6,18.72-15.06,26-24.5,7.48-9.67,14.57-19.7,21.52-29.77,13.8-20,26.57-41.09,33.86-64.4q1.33-4.27,2.41-8.62c.3-1.25-1.62-1.78-1.93-.53Z" transform="translate(-12.63 -5.25)"/><path class="cls-2" d="M231.2,43.32l.07,0-.69-.7v-.47l0,.07.26-.44.07,0,.5-.13h-.08l.51.13-.07-.05.45.6,0-.16v.54c.06-.43.74-1,1-1.29s.81-.93,1.23-1.38c.77-.86,1.56-1.71,2.37-2.54q2.5-2.57,5.18-5l-1.67-.44a60.1,60.1,0,0,0,4.38,11.2c.58,1.15,2.31.14,1.72-1a57.69,57.69,0,0,1-4.17-10.74,1,1,0,0,0-1.67-.44A98.94,98.94,0,0,0,233,38.61c-.57.63-1.13,1.27-1.68,1.91s-1.36,1.39-1,2.33a1.14,1.14,0,0,0,1.9.43,1.11,1.11,0,0,0-.45-1.89c-1.23-.38-1.76,1.55-.53,1.93Z" transform="translate(-12.63 -5.25)"/><path class="cls-2" d="M24.5,44.69l0,.27h2A81.78,81.78,0,0,1,28.4,29.85l-1.67.45a135.65,135.65,0,0,1,10.08,9.84c.87,1,2.29-.47,1.41-1.41a133.87,133.87,0,0,0-10.08-9.85,1,1,0,0,0-1.67.44,85,85,0,0,0-2,15.64c-.05,1.3,1.89,1.26,2,0l0-.27a1,1,0,0,0-1-1,1,1,0,0,0-1,1Z" transform="translate(-12.63 -5.25)"/><path class="cls-2" d="M12.67,9.38c-.08,1.83-.14,3.82.87,5.43a3.92,3.92,0,0,0,3.79,2,7.54,7.54,0,0,0,4.15-2.63C23,12.61,24.37,11,25.81,9.44L25,9a61,61,0,0,1-11,20.9.5.5,0,0,0,.71.71l1.86-1.7c.47-.43-.24-1.14-.71-.7L14,29.86l.71.71A62.22,62.22,0,0,0,25.94,9.22a.5.5,0,0,0-.83-.48l-3.58,3.89a10.15,10.15,0,0,1-3.6,3,2.87,2.87,0,0,1-3.57-1.38c-.86-1.45-.76-3.23-.69-4.85,0-.65-1-.64-1,0Z" transform="translate(-12.63 -5.25)"/><path class="cls-2" d="M27.81,18.61l3.45-.3L33,18.15a1.41,1.41,0,0,1,.58,0s.13.08.16.08a1.41,1.41,0,0,1,0-.25c-.43.47.27,1.18.71.71a.84.84,0,0,0-.28-1.34,2.77,2.77,0,0,0-1.82-.17l-4.56.4a.51.51,0,0,0-.5.5.5.5,0,0,0,.5.5Z" transform="translate(-12.63 -5.25)"/><path class="cls-2" d="M26.3,23a14.51,14.51,0,0,0,7.31-1,.52.52,0,0,0,.35-.61.5.5,0,0,0-.62-.35,13.89,13.89,0,0,1-7,1c-.27,0-.49.26-.5.5a.51.51,0,0,0,.5.5Z" transform="translate(-12.63 -5.25)"/><path class="cls-2" d="M38,15.74q5.4,5.69,11.15,11c.48.43,1.18-.27.71-.71q-5.75-5.33-11.15-11c-.45-.47-1.16.24-.71.7Z" transform="translate(-12.63 -5.25)"/><path class="cls-2" d="M46.94,11.41l-6,10.2c-1,1.67-2.09,3.32-3,5-.24.46-.35,1.25.32,1.4a.71.71,0,0,0,.79-.88.5.5,0,0,0-.35-.35l-.08,0c-.63-.13-.89.83-.26,1h.07L38,27.43l.07-.3.38-.05-.09,0,.3.23c-.05-.09.43-.75.51-.88l.57-1,1.15-1.93,2.29-3.87,4.59-7.73a.5.5,0,0,0-.87-.5Z" transform="translate(-12.63 -5.25)"/><path class="cls-2" d="M49.17,6.25C51.08,6.27,54.1,7,54,9.5c-.11,1.85-2.3,2.82-3.76,3.45a.5.5,0,0,0-.18.68c.64,1.25,2,1.65,3.3,1.92,1.11.24,3.08.61,3.09,2.09a.5.5,0,0,0,1,0c0-1.48-1.31-2.34-2.58-2.76s-3.22-.34-4-1.75l-.18.68c1.93-.82,4.42-2.2,4.26-4.65-.2-2.9-3.34-3.89-5.78-3.91a.5.5,0,0,0,0,1Z" transform="translate(-12.63 -5.25)"/></svg>