<svg id="Layer_1" data-name="Layer 1" xmlns="http://www.w3.org/2000/svg" viewBox="0 0 183.74 167.52"><defs><style>.cls-1{fill:#231f20;}</style></defs><title>arc-length-differential-2</title><path class="cls-1" d="M198.21,29.31Q185.13,42.2,172.37,55.4T147.11,82.23q-12.42,13.51-24.5,27.35T98.72,137.63Q87,151.76,75.62,166.18c-.93,1.17-1.85,2.35-2.78,3.53a1.55,1.55,0,0,0,0,2.12,1.52,1.52,0,0,0,2.13,0q11.32-14.45,23-28.61t23.8-28.13q12-13.86,24.42-27.43t25.18-26.9q12.72-13.24,25.75-26.17l3.2-3.16c1.38-1.36-.75-3.48-2.12-2.12Z" transform="translate(-71.42 -6.96)"/><path class="cls-1" d="M186.64,35.89a36.62,36.62,0,0,1,14.23-5.38L199,29.06q.93,7,1.24,14.06a1.54,1.54,0,0,0,1.5,1.5,1.5,1.5,0,0,0,1.5-1.5q-.32-7-1.24-14.06a1.53,1.53,0,0,0-1.9-1.44,38.8,38.8,0,0,0-14.95,5.68,1.5,1.5,0,1,0,1.52,2.59Z" transform="translate(-71.42 -6.96)"/><path class="cls-1" d="M73.58,154.67c-1,6.08-1.69,12.21-2.15,18.35-.1,1.23,1.31,1.74,2.25,1.3a48.39,48.39,0,0,1,16.59-4.47,1.54,1.54,0,0,0,1.5-1.5,1.51,1.51,0,0,0-1.5-1.5,52.23,52.23,0,0,0-18.1,4.88L74.43,173q.66-8.82,2-17.56a1.53,1.53,0,0,0-1-1.84,1.51,1.51,0,0,0-1.85,1Z" transform="translate(-71.42 -6.96)"/><path class="cls-1" d="M206.8,7.44c-.28,3.6-1.71,7.67,1,10.72a4.41,4.41,0,0,0,3.81,1.62c1.69-.24,2.91-1.67,3.88-3a15.69,15.69,0,0,0,2.66-5.5.5.5,0,0,0-1-.27,241.37,241.37,0,0,1-10.05,24c-.28.57.58,1.08.86.5a240.31,240.31,0,0,0,10.15-24.18l-1-.27a14.88,14.88,0,0,1-2.68,5.42c-1.12,1.42-2.69,3-4.62,2.06a5.26,5.26,0,0,1-2.73-4.46c-.15-2.23.47-4.42.64-6.63,0-.65-1-.64-1,0Z" transform="translate(-71.42 -6.96)"/><path class="cls-1" d="M218.77,23.57A67.17,67.17,0,0,1,226.72,22l-.36-.86-.71.84c-.41.49.3,1.2.71.71l.71-.84c.24-.29.12-.92-.35-.85a69.09,69.09,0,0,0-8.21,1.56.5.5,0,0,0,.26,1Z" transform="translate(-71.42 -6.96)"/><path class="cls-1" d="M217.17,28.43A19.86,19.86,0,0,0,227,26c.56-.31.06-1.18-.51-.87a18.63,18.63,0,0,1-9.3,2.31.5.5,0,0,0,0,1Z" transform="translate(-71.42 -6.96)"/><path class="cls-1" d="M232.92,16.93l6,10.67,1.52,2.69a10,10,0,0,0,1.32,2.21c1.16,1.14,2.15-1,1-1.22-.63-.1-.9.86-.27,1v-.46a.8.8,0,0,1-.15-.21c-.09-.13-.15-.26-.23-.39l-.54-1-1.1-1.94-2.24-4-4.44-7.87a.5.5,0,0,0-.86.51Z" transform="translate(-71.42 -6.96)"/><path class="cls-1" d="M243.08,14.37,230.44,32.3c-.3.42.27.93.68.69l2-1.23a.5.5,0,0,0-.5-.86l-2,1.22.68.69,12.64-17.94c.38-.52-.49-1-.86-.5Z" transform="translate(-71.42 -6.96)"/><path class="cls-1" d="M245.66,8.39c1.92,1.14,4.54,2.76,4.14,5.39-.2,1.35-1.39,2-2.57,2.37a16.45,16.45,0,0,1-4.32.89c-.64.05-.65,1,0,1a26.72,26.72,0,0,1,11.49,2.52c.57.27,1.08-.59.5-.87a27.89,27.89,0,0,0-12-2.65v1a16.77,16.77,0,0,0,5.17-1.14,3.94,3.94,0,0,0,2.69-2.84c.56-3.15-2.25-5.14-4.61-6.53a.5.5,0,0,0-.5.86Z" transform="translate(-71.42 -6.96)"/><path class="cls-1" d="M105.05,133.93c7.11,3.52,15.17,3.25,22.86,2.4,4-.45,8.05-1.07,12.09-1.43a95.85,95.85,0,0,1,13.34-.26c2.52.12,5,.35,7.53.67,2.27.28,4.61.53,6.81-.29.6-.22.34-1.19-.27-1a12.79,12.79,0,0,1-6.09.3c-2.13-.26-4.25-.49-6.39-.63a96.92,96.92,0,0,0-13.09,0c-7.92.56-15.76,2.32-23.71,2.12a29.62,29.62,0,0,1-12.57-2.81c-.58-.28-1.09.58-.51.87Z" transform="translate(-71.42 -6.96)"/><path class="cls-1" d="M167.94,133.56l-2.15-25.4-2.15-25.47-1.21-14.25c-.05-.64-1.05-.65-1,0l2.14,25.28,2.16,25.52,1.21,14.32c.06.63,1.06.64,1,0Z" transform="translate(-71.42 -6.96)"/><path class="cls-1" d="M158.45,133.5a63.12,63.12,0,0,1-.22-10.65l-.37.49,8.61-1.48c.64-.11.37-1.07-.26-1l-8.61,1.47a.5.5,0,0,0-.37.48,63.12,63.12,0,0,0,.22,10.65c.07.64,1.07.64,1,0Z" transform="translate(-71.42 -6.96)"/><path class="cls-1" d="M127.28,141.92l.08,22.34.93-.25a31.42,31.42,0,0,0-5-6c-.47-.43-1-.86-1.45-1.27a6.87,6.87,0,0,0-1.6-1.14c-1.09-.44-1.82.39-2.17,1.34a7.44,7.44,0,0,0,1.14,6.71,12.28,12.28,0,0,0,5.82,4.14c1.26.47,2.81,1,4.12.38a2.3,2.3,0,0,0,1.31-2.74c-.22-.6-1.19-.34-1,.27.37,1-.71,1.71-1.61,1.74a7.77,7.77,0,0,1-3-.76,11.2,11.2,0,0,1-4.68-3.32,6.73,6.73,0,0,1-1.41-5.41,2.64,2.64,0,0,1,.53-1.33c.44-.41,1.11.29,1.45.56.78.62,1.53,1.29,2.24,2a30.64,30.64,0,0,1,4.35,5.36.5.5,0,0,0,.93-.25l-.08-22.34a.5.5,0,0,0-1,0Z" transform="translate(-71.42 -6.96)"/><path class="cls-1" d="M132.38,151.21a74.09,74.09,0,0,0,5.71,10.18c.53.79,1.07,1.56,1.62,2.33a21.17,21.17,0,0,0,1.68,2.19,1.3,1.3,0,0,0,1.72.35,1,1,0,0,0,.16-1.45c-.45-.47-1.15.24-.71.7-.16-.16-.41-.25-.58-.44s-.49-.63-.73-.94c-.45-.61-.9-1.22-1.33-1.84-.85-1.2-1.67-2.44-2.44-3.69a73,73,0,0,1-4.23-7.9c-.27-.58-1.14-.07-.87.51Z" transform="translate(-71.42 -6.96)"/><path class="cls-1" d="M139.66,150.21a108.61,108.61,0,0,1-8.33,16.24c-.34.55.52,1.05.86.51a109.81,109.81,0,0,0,8.43-16.48c.25-.59-.72-.85-1-.27Z" transform="translate(-71.42 -6.96)"/><path class="cls-1" d="M180.86,88.43a113.46,113.46,0,0,0,.5,17.68l.93-.25a11.74,11.74,0,0,0-5.85-5.81c-2.76-1.13-4.22,2.17-4.39,4.4-.33,4.61,3.62,9.41,8.23,9.86,2.28.22,5.16-.68,5.62-3.23.11-.62-.85-.89-1-.26-.34,1.88-2.34,2.54-4,2.52a7.67,7.67,0,0,1-5.2-2.39,8.91,8.91,0,0,1-2.62-5.16,6.47,6.47,0,0,1,.28-2.83c.33-1,1.07-2.41,2.33-2.11a8.13,8.13,0,0,1,3.39,2.21,11.26,11.26,0,0,1,2.34,3.3.51.51,0,0,0,.94-.25,113.46,113.46,0,0,1-.5-17.68c0-.65-1-.64-1,0Z" transform="translate(-71.42 -6.96)"/><path class="cls-1" d="M189,99.17c.09,1.56.22,3.27,1.31,4.49a3.06,3.06,0,0,0,3.56.87c2.23-1.15,1.35-4.31,2.93-5.92l-.85-.36c.51,4.29-.88,8.44-2.48,12.36-1.7,4.13-3.5,8.22-5.25,12.33-.25.59.61,1.1.86.51,1.79-4.19,3.63-8.36,5.35-12.57,1.64-4,3-8.26,2.52-12.63a.51.51,0,0,0-.86-.35,5.19,5.19,0,0,0-1.21,2.49,8,8,0,0,1-.86,2.68,1.78,1.78,0,0,1-2.75.13c-1.12-1-1.19-2.65-1.27-4,0-.63-1-.64-1,0Z" transform="translate(-71.42 -6.96)"/></svg>