<svg id="Layer_1" data-name="Layer 1" xmlns="http://www.w3.org/2000/svg" viewBox="0 0 254.25 200.59"><defs><style>.cls-1{fill:#808285;}.cls-2{fill:#231f20;}.cls-3{fill:#ed1c24;}</style></defs><title>arc-length-parabola-2</title><path class="cls-1" d="M35.42,148.75q-6.15,5.63-11.77,11.79c-.68.74-1.81,1.64-1.95,2.71s1,1.82,1.81,2.41l7,4.94,8,5.65c.45.32.88-.28.69-.68l-.66-1.39c-.28-.58-1.14-.07-.87.51l.66,1.38.69-.68-13-9.23-1.51-1.08a7.59,7.59,0,0,1-1.54-1.16c-.43-.53,0-1,.36-1.44s.9-1,1.36-1.5c1.71-1.87,3.47-3.71,5.26-5.51q3.06-3.08,6.27-6c.47-.44-.24-1.14-.71-.71Z" transform="translate(-12.63 -5.25)"/><path class="cls-1" d="M23.25,162.8c15.2,3,30.73,2,46.11,1.75a195.46,195.46,0,0,1,23.34.76c7.86.81,15.68,2.08,23.56,2.71,15.92,1.28,31.83-1.09,47.7-2.15s31.81-1.5,47.73-1.3,32,1,47.89,2.47q3,.27,5.94.57c.64.07.63-.94,0-1a607.45,607.45,0,0,0-95.37-2.12c-7.93.44-15.84,1.1-23.76,1.79a206.78,206.78,0,0,1-23.73,1.09c-7.91-.21-15.75-1.35-23.6-2.32a190.65,190.65,0,0,0-23.4-1.56c-17.38,0-35,1.75-52.14-1.65-.63-.12-.9.84-.27,1Z" transform="translate(-12.63 -5.25)"/><path class="cls-1" d="M255.69,154.27l10.25,13.35.18-.68a69.8,69.8,0,0,0-12,10.16c-.44.47.27,1.18.71.71a68.73,68.73,0,0,1,11.79-10,.49.49,0,0,0,.18-.68l-10.24-13.35c-.39-.5-1.26,0-.87.5Z" transform="translate(-12.63 -5.25)"/><path class="cls-1" d="M119.93,192.11q5.63,6.15,11.79,11.77c.74.68,1.64,1.81,2.71,2s1.82-1,2.41-1.81l4.94-7,5.65-8c.32-.45-.28-.88-.68-.69l-1.39.66c-.58.28-.07,1.14.51.86l1.38-.65-.68-.69-9.23,13-1.08,1.51a7.26,7.26,0,0,1-1.16,1.53c-.53.43-1,0-1.44-.35s-1-.91-1.5-1.36c-1.87-1.71-3.71-3.47-5.51-5.26q-3.09-3.06-6-6.27c-.44-.47-1.14.23-.71.71Z" transform="translate(-12.63 -5.25)"/><path class="cls-1" d="M134,204.28c2.2-12.09,1.47-24.41,1.27-36.62a173.24,173.24,0,0,1,.56-18.51c.59-6.24,1.51-12.45,2-18.7.93-12.63-.8-25.25-1.57-37.84s-1.08-25.24-.94-37.87.74-25.36,1.79-38l.42-4.71c.06-.64-.94-.64-1,0a525,525,0,0,0-1.54,75.66c.32,6.3.8,12.58,1.3,18.86a179.33,179.33,0,0,1,.79,18.83c-.15,6.27-1,12.49-1.69,18.72a167.06,167.06,0,0,0-1.13,18.57c0,13.77,1.28,27.69-1.19,41.34-.11.63.85.9,1,.27Z" transform="translate(-12.63 -5.25)"/><path class="cls-1" d="M124.7,21.39l13.35-10.25-.68-.18a69.35,69.35,0,0,0,10.16,12c.47.44,1.18-.26.71-.7a68.79,68.79,0,0,1-10-11.8.51.51,0,0,0-.68-.18L124.2,20.53c-.5.38,0,1.25.5.86Z" transform="translate(-12.63 -5.25)"/><path class="cls-2" d="M190.66,124a216.11,216.11,0,0,1-19.44,23.36,67.76,67.76,0,0,1-6.9,6.33A59.51,59.51,0,0,1,151.83,161a47.84,47.84,0,0,1-13.57,3.73,35.15,35.15,0,0,1-11.8-.44,41.85,41.85,0,0,1-5.48-1.81,64.68,64.68,0,0,1-11.15-5.69c-8.15-5.18-14.92-12.24-21-19.71-6.29-7.77-12-16-17.84-24.15-5.49-7.72-10.87-15.52-15.93-23.53-10-15.89-18.85-32.71-24.22-50.78-.65-2.19-1.25-4.4-1.79-6.61a1,1,0,0,0-1.93.53,160,160,0,0,0,9.35,26.86A233.67,233.67,0,0,0,50,84.91c5,8.27,10.37,16.29,15.91,24.2,5.73,8.17,11.52,16.31,17.55,24.25s12.35,15.39,20.13,21.46a65.21,65.21,0,0,0,20.88,11c6.88,2.1,14.69,1.35,21.52-.59a57.65,57.65,0,0,0,23-12.89A148.15,148.15,0,0,0,183,137q4.6-5.61,8.94-11.44l.45-.6c.76-1-1-2-1.73-1Z" transform="translate(-12.63 -5.25)"/><path class="cls-2" d="M240.56,32A109.15,109.15,0,0,1,236,45.61c-2,5-4.21,10-6.51,14.94q-3.22,6.87-6.69,13.63-2.48,4.88-5.08,9.69c-.56,1-1.08,2.15-1.72,3.15-.91,1.42-1.91,2.78-2.86,4.17l-5.9,8.59-7,10.22-6.12,8.91-3.31,4.83-.15.22c-.73,1.06,1,2.07,1.73,1l2.32-3.38,5.64-8.22,7-10.18,6.36-9.27,3.75-5.45c.47-.7.86-1.45,1.26-2.19,1.51-2.77,3-5.57,4.44-8.37q3.34-6.45,6.5-13c2.38-5,4.66-10,6.78-15.06a138.77,138.77,0,0,0,5.22-14.25c.3-1,.58-2,.84-3.07.3-1.25-1.62-1.78-1.93-.53Z" transform="translate(-12.63 -5.25)"/><path class="cls-2" d="M231.2,43.32l.07,0-.69-.7v-.47l0,.07.26-.44.07,0,.5-.13h-.08l.51.13-.07-.05.45.6,0-.16v.54c.06-.43.74-1,1-1.29s.81-.93,1.23-1.38c.77-.86,1.56-1.71,2.37-2.54q2.5-2.57,5.18-5l-1.67-.44a60.1,60.1,0,0,0,4.38,11.2c.58,1.15,2.31.14,1.72-1a57.69,57.69,0,0,1-4.17-10.74,1,1,0,0,0-1.67-.44A98.94,98.94,0,0,0,233,38.61c-.57.63-1.13,1.27-1.68,1.91s-1.36,1.39-1,2.33a1.14,1.14,0,0,0,1.9.43,1.11,1.11,0,0,0-.45-1.89c-1.23-.38-1.76,1.55-.53,1.93Z" transform="translate(-12.63 -5.25)"/><path class="cls-2" d="M24.5,44.69l0,.27h2A81.78,81.78,0,0,1,28.4,29.85l-1.67.45a135.65,135.65,0,0,1,10.08,9.84c.87,1,2.29-.47,1.41-1.41a133.87,133.87,0,0,0-10.08-9.85,1,1,0,0,0-1.67.44,85,85,0,0,0-2,15.64c-.05,1.3,1.89,1.26,2,0l0-.27a1,1,0,0,0-1-1,1,1,0,0,0-1,1Z" transform="translate(-12.63 -5.25)"/><path class="cls-2" d="M12.67,9.38c-.08,1.83-.14,3.82.87,5.43a3.92,3.92,0,0,0,3.79,2,7.54,7.54,0,0,0,4.15-2.63C23,12.61,24.37,11,25.81,9.44L25,9a61,61,0,0,1-11,20.9.5.5,0,0,0,.71.71l1.86-1.7c.47-.43-.24-1.14-.71-.7L14,29.86l.71.71A62.22,62.22,0,0,0,25.94,9.22a.5.5,0,0,0-.83-.48l-3.58,3.89a10.15,10.15,0,0,1-3.6,3,2.87,2.87,0,0,1-3.57-1.38c-.86-1.45-.76-3.23-.69-4.85,0-.65-1-.64-1,0Z" transform="translate(-12.63 -5.25)"/><path class="cls-2" d="M27.81,18.61l3.45-.3L33,18.15a1.41,1.41,0,0,1,.58,0s.13.08.16.08a1.41,1.41,0,0,1,0-.25c-.43.47.27,1.18.71.71a.84.84,0,0,0-.28-1.34,2.77,2.77,0,0,0-1.82-.17l-4.56.4a.51.51,0,0,0-.5.5.5.5,0,0,0,.5.5Z" transform="translate(-12.63 -5.25)"/><path class="cls-2" d="M26.3,23a14.51,14.51,0,0,0,7.31-1,.52.52,0,0,0,.35-.61.5.5,0,0,0-.62-.35,13.89,13.89,0,0,1-7,1c-.27,0-.49.26-.5.5a.51.51,0,0,0,.5.5Z" transform="translate(-12.63 -5.25)"/><path class="cls-2" d="M38,15.74q5.4,5.69,11.15,11c.48.43,1.18-.27.71-.71q-5.75-5.33-11.15-11c-.45-.47-1.16.24-.71.7Z" transform="translate(-12.63 -5.25)"/><path class="cls-2" d="M46.94,11.41l-6,10.2c-1,1.67-2.09,3.32-3,5-.24.46-.35,1.25.32,1.4a.71.71,0,0,0,.79-.88.5.5,0,0,0-.35-.35l-.08,0c-.63-.13-.89.83-.26,1h.07L38,27.43l.07-.3.38-.05-.09,0,.3.23c-.05-.09.43-.75.51-.88l.57-1,1.15-1.93,2.29-3.87,4.59-7.73a.5.5,0,0,0-.87-.5Z" transform="translate(-12.63 -5.25)"/><path class="cls-2" d="M49.17,6.25C51.08,6.27,54.1,7,54,9.5c-.11,1.85-2.3,2.82-3.76,3.45a.5.5,0,0,0-.18.68c.64,1.25,2,1.65,3.3,1.92,1.11.24,3.08.61,3.09,2.09a.5.5,0,0,0,1,0c0-1.48-1.31-2.34-2.58-2.76s-3.22-.34-4-1.75l-.18.68c1.93-.82,4.42-2.2,4.26-4.65-.2-2.9-3.34-3.89-5.78-3.91a.5.5,0,0,0,0,1Z" transform="translate(-12.63 -5.25)"/><path class="cls-3" d="M217.47,81.69C211.16,91,205.29,100.56,199.16,110a250.39,250.39,0,0,1-19.7,27,133,133,0,0,1-13.18,13.36,1.51,1.51,0,0,0,0,2.12,1.54,1.54,0,0,0,2.12,0,154.41,154.41,0,0,0,22.47-25.1c6.69-9.1,12.71-18.66,18.78-28.18,3.41-5.36,6.84-10.7,10.41-16a1.51,1.51,0,0,0-.54-2,1.53,1.53,0,0,0-2.05.54Z" transform="translate(-12.63 -5.25)"/><path class="cls-3" d="M220.19,80.43v-.06l-.05.39a1.86,1.86,0,0,1,.1-.39l-.15.36a1.83,1.83,0,0,1,.13-.24c.1-.19-.12.14-.12.13s.1-.1.12-.12.07-.06.1-.1-.28.19-.14.11l.27-.15-.36.15a1.83,1.83,0,0,1,.46-.12l-.4,0a1.28,1.28,0,0,1,.34,0l-.4-.06a1.48,1.48,0,0,1,.41.12l-.36-.15.24.13c.13.09.08.05-.13-.11a.94.94,0,0,0,.1.1l.1.11c-.16-.22-.2-.26-.11-.14s.09.16.13.25l-.15-.36a1.85,1.85,0,0,1,.12.4l-.06-.4a2,2,0,0,1,0,.42l.05-.4a1.61,1.61,0,0,1-.1.36l.15-.36a1.43,1.43,0,0,1-.15.27c-.11.19.23-.24.1-.13l-.1.11-.1.08c.27-.28.24-.17.13-.1a1.82,1.82,0,0,1-.31.16l.36-.15a2.11,2.11,0,0,1-.49.14l.4-.06a2.16,2.16,0,0,1-.44,0l.4,0a1.62,1.62,0,0,1-.43-.12l.36.15a2,2,0,0,1-.29-.15c-.21-.13.27.25.1.07l-.12-.11c-.09-.09-.13-.24.09.12a1,1,0,0,1-.09-.13,2.48,2.48,0,0,1-.17-.32l.15.35a2.19,2.19,0,0,1-.16-.57l.05.4a2.35,2.35,0,0,1,0-.53l-.05.4a2.33,2.33,0,0,1,.13-.52l-.15.35c.06-.13.13-.24.2-.37s-.23.27-.06.08l.16-.18c.05,0,.26-.21,0,0s0,0,0,0a2.63,2.63,0,0,1,.41-.21l-.36.15a2.64,2.64,0,0,1,.68-.19l-.4,0a2.91,2.91,0,0,1,.59,0l-.4,0a1.56,1.56,0,0,1,.37.1l-.36-.15.13.07c-.18-.15-.24-.19-.16-.11s0,0-.12-.17l.06.12-.15-.36a1.89,1.89,0,0,1,.09.34l0-.4a2.2,2.2,0,0,1,0,.51l.06-.4a3.86,3.86,0,0,1-.26.86l.16-.36c-.07.15-.14.3-.22.44l-.15.22c-.14.22.24-.27.05-.06s-.22.2-.32.31c.27-.29.19-.14.06-.06l-.24.13.36-.16a2.31,2.31,0,0,1-.53.15l.4-.06a2.44,2.44,0,0,1-.47,0l.4,0a2.46,2.46,0,0,1-.45-.11l.36.15-.23-.12c-.21-.11.26.26.1.07s-.07-.16.06.11c0-.06-.08-.13-.11-.2l.15.36a1.23,1.23,0,0,1-.08-.33l.05.4a1.93,1.93,0,0,1,0-.34l-.05.4a1.34,1.34,0,0,1,.11-.39l-.15.36.07-.15c.06-.08,0-.06,0,.06s-.11.15-.05.07.17,0-.14.09l.14-.08-.35.16a1.07,1.07,0,0,1,.27-.08l-.4.06h.27l-.4-.06a1,1,0,0,1,.25.08l-.36-.15c.08,0,.3.19.07,0s0,0,.06.09-.2-.3-.13-.17l.07.12c.05.09.1.18.14.27l-.16-.36a3.32,3.32,0,0,1,.23.86l-.05-.4a4.35,4.35,0,0,1,0,1l.06-.4a2.7,2.7,0,0,1-.12.49l.15-.36c0,.07-.09.15-.12.22.08-.2.23-.29.09-.13s.34-.2.13-.09L219,82l.36-.15a1.24,1.24,0,0,1-.33.09l.4-.05a1.77,1.77,0,0,1-.46,0l.4.05a2.42,2.42,0,0,1-.46-.13l.36.15L219,81.8s-.1-.09-.13-.09.31.28.15.1l-.09-.08c-.19-.19.12.13.11.14s-.17-.3-.18-.33l.15.35a2.62,2.62,0,0,1-.18-.68l.05.4a4,4,0,0,1,0-1l-.06.39a6.52,6.52,0,0,1,.4-1.5l-.15.36a2.59,2.59,0,0,1,.14-.29.67.67,0,0,1,.09-.14s-.26.3-.06.1l.1-.09c.09-.1-.27.16-.15.12s.17-.1.25-.14l-.35.16a1.62,1.62,0,0,1,.43-.12l-.4,0a2.26,2.26,0,0,1,.52,0l-.4,0a2.91,2.91,0,0,1,.58.15l-.36-.15.32.17c.24.15-.12-.09-.12-.09s.14.12.15.13.18.22,0,0,0,0,0,0a2.75,2.75,0,0,1,.2.38l-.15-.35a2.66,2.66,0,0,1,.17.63l0-.4a3.32,3.32,0,0,1,0,.89l0-.4a3.44,3.44,0,0,1-.17.72l1.84-1a2.55,2.55,0,0,1-.54-.15l.36.15a2.24,2.24,0,0,1-.4-.22c-.27-.18.25.23.05.05l-.15-.14-.14-.16c-.18-.2.19.29.06.08a3.55,3.55,0,0,1-.23-.43l.15.36a2.64,2.64,0,0,1-.17-.61l.06.4a1.49,1.49,0,0,1,0-.21,1.5,1.5,0,1,0-3,0A4,4,0,0,0,221,83a1.61,1.61,0,0,0,1.16-.15,1.68,1.68,0,0,0,.69-.9,4.62,4.62,0,0,0-.16-3.43,3.58,3.58,0,0,0-4.27-1.89,3.18,3.18,0,0,0-1.66,1.29,5,5,0,0,0-.63,1.61,7,7,0,0,0-.23,1.69,3.67,3.67,0,0,0,1.63,3.18,3.07,3.07,0,0,0,3.19.06A3.38,3.38,0,0,0,222,81.2a4,4,0,0,0-1.5-2.94,2.46,2.46,0,0,0-3.21.4,2.83,2.83,0,0,0-.14,3.52,3.17,3.17,0,0,0,3.4,1A4.12,4.12,0,0,0,223,80.72c.5-1.17.69-2.74-.39-3.67a3.44,3.44,0,0,0-3.84-.17,3.67,3.67,0,0,0-.94,5.89,3.23,3.23,0,0,0,3.27.76,3.29,3.29,0,0,0,2.26-2.77,3.14,3.14,0,0,0-1.92-3.07,3.05,3.05,0,0,0-3.49.81,3.31,3.31,0,0,0-.79,1.93,1.51,1.51,0,0,0,.43,1.07,1.53,1.53,0,0,0,1.07.43,1.51,1.51,0,0,0,1.06-.43,1.74,1.74,0,0,0,.44-1.07Z" transform="translate(-12.63 -5.25)"/><path class="cls-3" d="M167.2,151.62v-.07l.05.4a1.62,1.62,0,0,1,0-.44l-.06.4a3,3,0,0,1,.12-.43l-.15.36a2,2,0,0,1,.26-.44l-.24.3a3.06,3.06,0,0,1,.36-.36l-.3.23a1.79,1.79,0,0,1,.38-.22l-.36.15a2.11,2.11,0,0,1,.43-.12l-.4.06a1.27,1.27,0,0,1,.39,0l-.4-.06a2,2,0,0,1,.44.12l-.36-.15a2,2,0,0,1,.45.26l-.3-.23a1.8,1.8,0,0,1,.36.37l-.23-.3a2.5,2.5,0,0,1,.23.39l-.15-.36a2.36,2.36,0,0,1,.11.44l-.05-.4a2.41,2.41,0,0,1,0,.38l.05-.4a2,2,0,0,1-.11.42l.15-.36a2.67,2.67,0,0,1-.25.43l.23-.31a1.93,1.93,0,0,1-.35.35l.3-.23a2.22,2.22,0,0,1-.42.25l.35-.15a2,2,0,0,1-.47.14l.4,0a2.09,2.09,0,0,1-.5,0l.4,0a2.08,2.08,0,0,1-.41-.11l.36.15a2.5,2.5,0,0,1-.35-.21l.3.23a2.28,2.28,0,0,1-.38-.38l.24.3a2,2,0,0,1-.27-.47l.15.36a2.35,2.35,0,0,1-.14-.52l.05.4a1.93,1.93,0,0,1,0-.48l-.05.4a1.83,1.83,0,0,1,.12-.46l-.15.36a2.71,2.71,0,0,1,.21-.37l-.24.31a2.28,2.28,0,0,1,.38-.38l-.3.23a2.73,2.73,0,0,1,.47-.27l-.36.15a2.94,2.94,0,0,1,.58-.16l-.4.06a2.44,2.44,0,0,1,.54,0l-.4-.06a2.42,2.42,0,0,1,.46.13l-.36-.15a1.76,1.76,0,0,1,.42.24l-.31-.23a2.13,2.13,0,0,1,.34.33l-.23-.3a2.43,2.43,0,0,1,.3.52l-.15-.36a2.91,2.91,0,0,1,.15.58l0-.4a2.44,2.44,0,0,1,0,.54l0-.4a2.33,2.33,0,0,1-.13.52l.15-.36a2.14,2.14,0,0,1-.25.41l.24-.3a2.73,2.73,0,0,1-.35.33l.31-.24a2.2,2.2,0,0,1-.47.27l.36-.15a2.91,2.91,0,0,1-.58.15l.4-.05a3,3,0,0,1-.6,0l.4.05a2.35,2.35,0,0,1-.52-.14l.36.15a2.12,2.12,0,0,1-.36-.21l.3.23a1.82,1.82,0,0,1-.34-.34l.24.31a2.2,2.2,0,0,1-.27-.47l.15.36a2.26,2.26,0,0,1-.16-.58l.06.4a2.41,2.41,0,0,1,0-.6l0,.4a1.91,1.91,0,0,1,.14-.52l-.15.36a2.06,2.06,0,0,1,.23-.41l-.23.3a2,2,0,0,1,.36-.36l-.31.24a2.51,2.51,0,0,1,.45-.26l-.36.15a2.66,2.66,0,0,1,.63-.17l-.4,0a2.89,2.89,0,0,1,.72,0l-.4-.05a2.88,2.88,0,0,1,.64.17l-.36-.15a2.37,2.37,0,0,1,.53.31l-.3-.24a2.9,2.9,0,0,1,.49.5l-.23-.3a3.33,3.33,0,0,1,.35.61l-.15-.36a3.22,3.22,0,0,1,.23.86l-.05-.4a3.3,3.3,0,0,1,0,.77l.05-.4a3.14,3.14,0,0,1-.19.73l.15-.36a2.84,2.84,0,0,1-.33.56l.23-.3a2.78,2.78,0,0,1-.42.42l.3-.24a2.88,2.88,0,0,1-.61.36l.36-.15a3.33,3.33,0,0,1-.75.2l.4-.05a3.39,3.39,0,0,1-.9,0l.4.05a3.19,3.19,0,0,1-.75-.2l.36.15a2.84,2.84,0,0,1-.56-.33l.3.23a2.62,2.62,0,0,1-.44-.44l.23.3a2.29,2.29,0,0,1-.31-.55l.15.36a2,2,0,0,1-.14-.54l.05.4a1.93,1.93,0,0,1,0-.48l-.05.4a1.74,1.74,0,0,1,.11-.39l-.15.36a1.1,1.1,0,0,1,.15-.26l-.23.3a1.25,1.25,0,0,1,.23-.23l-.3.23a1.35,1.35,0,0,1,.29-.16l-.36.15a1.58,1.58,0,0,1,.37-.11l-.4.06a1.21,1.21,0,0,1,.38,0l-.4-.06.25.07-.35-.15.22.13-.3-.23a1.06,1.06,0,0,1,.15.15l-.24-.31,0,.05a1.7,1.7,0,0,0,.89.69,1.57,1.57,0,0,0,1.16-.16,1.5,1.5,0,0,0,.54-2.05,2.88,2.88,0,0,0-.83-.8,2.6,2.6,0,0,0-1.18-.34,2.79,2.79,0,0,0-1.65.42,3,3,0,0,0-1.14,3.66,4.06,4.06,0,0,0,2.64,2.47,4.56,4.56,0,0,0,3.09-.17,4.09,4.09,0,0,0,2.28-2.42,4.37,4.37,0,0,0,0-2.94,4.22,4.22,0,0,0-2.12-2.42,4.09,4.09,0,0,0-3.7.09,3.51,3.51,0,0,0-1.74,3,3.58,3.58,0,0,0,1.67,3.08,3.76,3.76,0,0,0,3.54,0,3.39,3.39,0,0,0,1.83-2.95,3.7,3.7,0,0,0-1.57-3.11,3.53,3.53,0,0,0-3.49-.19,3.36,3.36,0,0,0-1.93,2.89,3.57,3.57,0,0,0,1.64,3.09,3.2,3.2,0,0,0,3.5-.08,3.29,3.29,0,0,0,1.45-3.51,3.41,3.41,0,0,0-3-2.49,3.25,3.25,0,0,0-3.09,1.83,3.48,3.48,0,0,0-.29.84,3.61,3.61,0,0,0,0,1.31,1.57,1.57,0,0,0,.69.89,1.51,1.51,0,0,0,2.06-.54,1.75,1.75,0,0,0,.15-1.15Z" transform="translate(-12.63 -5.25)"/><path class="cls-3" d="M168.17,161.45a37.66,37.66,0,0,1,.16,6c0,.64,1,.64,1,0a37.66,37.66,0,0,0-.16-6,.51.51,0,0,0-.5-.5.5.5,0,0,0-.5.5Z" transform="translate(-12.63 -5.25)"/><path class="cls-3" d="M163.46,178.26l6.49-6.5-.84-.22a27.34,27.34,0,0,1-1.49,14.7c-.23.59.74.85,1,.26a28.27,28.27,0,0,0,1.48-15.23.5.5,0,0,0-.83-.22l-6.49,6.5a.5.5,0,0,0,.71.71Z" transform="translate(-12.63 -5.25)"/><path class="cls-3" d="M162.94,187.78A18.62,18.62,0,0,1,176.56,185c.63.11.9-.85.27-1a19.69,19.69,0,0,0-14.39,2.92c-.53.36,0,1.23.5.87Z" transform="translate(-12.63 -5.25)"/><path class="cls-3" d="M221,160.87l-.54,8.6.75-.43-.6-.34a.5.5,0,0,0-.51.86l.61.35a.51.51,0,0,0,.75-.44l.54-8.6c0-.64-1-.64-1,0Z" transform="translate(-12.63 -5.25)"/><path class="cls-3" d="M224.38,173.49a11.87,11.87,0,0,1-5.93-1.05.5.5,0,0,0-.73.3c-.3,1.11-.56,2.23-.75,3.36-.09.47-.16.94-.22,1.42a3.3,3.3,0,0,0-.05,1.43c.29.92,1.22.75,2,.65a6.22,6.22,0,0,1,2.5.22,6.1,6.1,0,0,1,3.94,3.41,2,2,0,0,1-.56,2.55,7.14,7.14,0,0,1-3.26.69,23.88,23.88,0,0,1-7.55-1.48c-.62-.19-.88.77-.27,1a27.23,27.23,0,0,0,7,1.5c1.77.07,4.81-.07,5.64-2,.74-1.7-.44-3.69-1.65-4.85a7.47,7.47,0,0,0-4.84-2,10.38,10.38,0,0,0-1.57.12c-.39.05-.44-.1-.4-.46s.08-.7.14-1a36.77,36.77,0,0,1,.88-4.17l-.73.29a12.85,12.85,0,0,0,6.43,1.19c.64-.05.65-1.05,0-1Z" transform="translate(-12.63 -5.25)"/></svg>