<?xml version="1.0" encoding="utf-8"?>
<!-- Generator: Adobe Illustrator 23.1.1, SVG Export Plug-In . SVG Version: 6.00 Build 0)  -->
<svg version="1.1" id="Layer_1" xmlns="http://www.w3.org/2000/svg" xmlns:xlink="http://www.w3.org/1999/xlink" x="0px" y="0px"
	 viewBox="0 0 288 216" style="enable-background:new 0 0 288 216;" xml:space="preserve">
<style type="text/css">
	.st0{fill:#A7A9AC;}
	.st1{fill:#ED1C24;}
</style>
<g>
	<g>
		<g>
			<g>
				<path class="st0" d="M260.33,121.29c2.97-2.18,5.92-4.4,8.77-6.73c0.77-0.63,1.53-1.26,2.26-1.93c0.66-0.61,1.45-1.27,1.62-2.19
					c0.19-1.03-0.45-1.93-1.21-2.56c-1.03-0.85-2.22-1.47-3.4-2.09c-2.92-1.54-5.84-3.05-8.75-4.61c-1.13-0.61-2.14,1.12-1.01,1.73
					c2.32,1.25,4.65,2.48,6.98,3.7c1.28,0.67,2.59,1.31,3.82,2.07c0.39,0.24,0.79,0.49,1.13,0.8c0.07,0.07,0.34,0.34,0.31,0.3
					c0.06,0.08,0.11,0.16,0.15,0.25c-0.08-0.16,0.03,0.03,0.02,0.09c0.04-0.23-0.04,0.06-0.07,0.1c-0.1,0.11-0.2,0.22-0.31,0.33
					c-0.26,0.26-0.53,0.51-0.8,0.76c-0.67,0.61-1.36,1.19-2.06,1.77c-1.59,1.3-3.21,2.56-4.85,3.8c-1.2,0.91-2.41,1.82-3.63,2.71
					c-0.43,0.32-0.65,0.87-0.36,1.37C259.22,121.36,259.9,121.61,260.33,121.29L260.33,121.29z"/>
			</g>
		</g>
		<g>
			<g>
				<path class="st0" d="M35.04,94.61c-3.86,1.72-7.52,3.89-10.9,6.44c-0.77,0.58-1.73,1.16-2.32,1.92
					c-0.69,0.88-0.38,1.88,0.3,2.65c1.5,1.68,3.14,3.26,4.75,4.84c1.81,1.78,3.65,3.53,5.52,5.24c0.95,0.87,2.37-0.54,1.41-1.41
					c-2.99-2.73-5.89-5.56-8.71-8.46c-0.33-0.34-0.66-0.69-0.99-1.03c-0.16-0.17-0.34-0.34-0.5-0.52c-0.03-0.03-0.13-0.18-0.16-0.19
					c-0.11-0.04-0.03,0.09-0.04,0.1c0.34-0.18,0.67-0.57,0.97-0.81c0.38-0.3,0.76-0.59,1.15-0.88c1.54-1.14,3.14-2.21,4.78-3.19
					c1.86-1.1,3.78-2.09,5.75-2.97c0.49-0.22,0.61-0.94,0.36-1.37C36.11,94.46,35.54,94.39,35.04,94.61L35.04,94.61z"/>
			</g>
		</g>
		<g>
			<g>
				<path class="st0" d="M22.31,105.66c15.14,4.13,30.92,4.09,46.49,3.93c16.32-0.17,32.64-0.34,48.96-0.5
					c16.33-0.17,32.65-0.34,48.98-0.5c16.24-0.17,32.48-0.41,48.71-0.27c18.32,0.17,36.66,0.88,54.88,2.91c1.28,0.14,1.27-1.86,0-2
					c-32.26-3.59-64.77-3.04-97.16-2.71c-32.65,0.34-65.31,0.67-97.96,1.01c-17.49,0.18-35.33,0.85-52.37-3.79
					C21.6,103.39,21.07,105.32,22.31,105.66L22.31,105.66z"/>
			</g>
		</g>
	</g>
	<g>
		<g>
			<g>
				<path class="st0" d="M139.79,28.39c2.53-4.64,5.08-9.28,7.61-13.92c0.33-0.61,0.67-1.22,1-1.83c0.21-0.39,0.55-0.83,0.71-1.24
					c0.07-0.18,0.11,0,0.04-0.07c-0.06-0.01-0.12-0.01-0.18-0.02c0.07,0.04,0.13,0.1,0.18,0.16c0.16,0.27,0.35,0.53,0.51,0.8
					c0.43,0.71,0.86,1.42,1.29,2.13c0.9,1.49,1.81,2.98,2.71,4.48c2.02,3.34,4.05,6.68,6.07,10.02c0.67,1.1,2.4,0.1,1.73-1.01
					c-1.94-3.2-3.87-6.39-5.81-9.59c-0.95-1.56-1.89-3.13-2.84-4.69c-0.47-0.78-0.95-1.56-1.42-2.34c-0.39-0.64-0.78-1.35-1.47-1.72
					c-1.9-1-2.89,1.46-3.6,2.76c-1.01,1.85-2.02,3.69-3.03,5.54c-1.74,3.18-3.47,6.35-5.21,9.53
					C137.45,28.52,139.17,29.53,139.79,28.39L139.79,28.39z"/>
			</g>
		</g>
		<g>
			<g>
				<path class="st0" d="M141.04,195.26c1.79,4.25,3.94,8.34,6.53,12.16c0.6,0.88,1.18,1.89,1.92,2.66
					c0.82,0.84,1.95,0.73,2.71-0.14c0.8-0.92,1.49-1.96,2.22-2.94c0.71-0.96,1.42-1.93,2.11-2.9c1.61-2.25,3.17-4.52,4.69-6.83
					c0.71-1.08-1.02-2.08-1.73-1.01c-2.38,3.6-4.86,7.14-7.45,10.6c-0.29,0.38-0.57,0.76-0.86,1.15c-0.12,0.16-0.42,0.41-0.46,0.59
					c-0.02,0.02-0.04,0.05-0.07,0.07c0.1,0.02,0.2,0.03,0.29,0.05c0.01-0.02-0.09-0.1-0.1-0.12c-0.05-0.2-0.33-0.45-0.46-0.63
					c-0.13-0.18-0.26-0.36-0.39-0.55c-0.3-0.43-0.6-0.86-0.89-1.29c-1.13-1.68-2.18-3.42-3.15-5.2c-1.1-2.02-2.11-4.09-2.99-6.21
					c-0.21-0.5-0.66-0.85-1.23-0.7C141.27,194.15,140.83,194.75,141.04,195.26L141.04,195.26z"/>
			</g>
		</g>
		<g>
			<g>
				<path class="st0" d="M147.83,10.92c-0.4,25.67-0.57,51.34-0.49,77.02c0.08,25.55,0.39,51.09,0.95,76.63
					c0.31,14.41,0.7,28.81,1.17,43.22c0.04,1.28,2.04,1.29,2,0c-0.83-25.67-1.41-51.34-1.76-77.01
					c-0.34-25.54-0.45-51.09-0.31-76.63c0.08-14.41,0.23-28.82,0.45-43.22C149.85,9.63,147.85,9.63,147.83,10.92L147.83,10.92z"/>
			</g>
		</g>
	</g>
</g>
<g>
	<g>
		<path class="st1" d="M173.92,32.15c0.47,14.15-0.8,28.2-3.39,42.11c-1.44,7.73-3.33,15.37-6.65,22.53
			c-2.96,6.37-6.85,12.26-11.42,17.59c-4.49,5.24-9.55,9.96-14.74,14.49c-5.73,5.01-11.67,9.79-17.73,14.39
			c-11.37,8.62-23.19,16.64-35.27,24.23c-8.42,5.29-16.96,10.37-25.63,15.23c-0.64,0.36-1.29,0.72-1.93,1.08
			c-1.69,0.94-0.18,3.53,1.51,2.59c8.11-4.51,16.11-9.21,24-14.09c11.98-7.41,23.71-15.23,35.04-23.61
			c6.24-4.62,12.37-9.41,18.31-14.41c5.47-4.61,10.84-9.37,15.72-14.6c4.78-5.12,9.06-10.73,12.45-16.86
			c3.88-7.04,6.48-14.65,8.19-22.49c3.15-14.52,4.83-29.37,4.64-44.23c-0.02-1.31-0.05-2.62-0.09-3.92
			C176.86,30.23,173.86,30.22,173.92,32.15L173.92,32.15z"/>
	</g>
</g>
<g>
	<g>
		<path class="st1" d="M184.3,185.84c-0.09-10.27,0.95-20.54,3.23-30.56c2.67-11.78,7.01-23.14,12.86-33.7
			c1.73-3.13,3.59-6.18,5.59-9.14c2.09-3.07,4.08-5.69,6.48-8.49c6.18-7.22,13.35-13.54,20.47-19.81
			c8.5-7.48,17.09-14.84,25.96-21.88c1.27-1,2.54-2,3.81-3c0.64-0.5,0.52-1.6,0-2.12c-0.63-0.63-1.48-0.5-2.12,0
			c-9.07,7.08-17.88,14.47-26.54,22.05c-7.55,6.61-15.23,13.2-21.96,20.67c-4.85,5.39-9.09,11.28-12.75,17.53
			c-6.01,10.26-10.63,21.36-13.65,32.86c-2.77,10.52-4.21,21.41-4.37,32.29c-0.02,1.1-0.02,2.21-0.01,3.31
			C181.32,187.77,184.32,187.78,184.3,185.84L184.3,185.84z"/>
	</g>
</g>
<g>
	<g>
		<g>
			<path class="st1" d="M250.8,57.61c2.04-0.18,4.09-0.36,6.13-0.53c0.98-0.09,1.96-0.17,2.94-0.26c0.49-0.04,0.98-0.09,1.47-0.13
				c0.22-0.02,0.45-0.05,0.67-0.06c0.12-0.01,0.24-0.01,0.36,0c-0.18,0-0.32-0.07-0.4-0.23c-0.24-0.1-0.13-0.31-0.11,0.11
				c0.01,0.23,0.03,0.45,0.03,0.68c0.02,0.49,0.02,0.99,0.01,1.48c-0.02,0.85-0.08,1.71-0.2,2.55c-0.26,1.88-0.77,3.72-1.46,5.49
				c-0.29,0.76,0.32,1.65,1.05,1.85c0.85,0.23,1.55-0.29,1.85-1.05c0.8-2.05,1.3-4.16,1.58-6.34c0.13-1.05,0.2-2.12,0.2-3.18
				c0-1.1,0.08-2.46-0.61-3.39c-0.76-1.03-1.95-1-3.09-0.9c-1.15,0.1-2.29,0.2-3.44,0.3c-2.33,0.2-4.66,0.41-6.99,0.61
				c-0.81,0.07-1.5,0.64-1.5,1.5C249.3,56.87,249.99,57.68,250.8,57.61L250.8,57.61z"/>
		</g>
	</g>
	<g>
		<g>
			<path class="st1" d="M174.71,178.71c-0.23-0.34-0.46-0.68-0.69-1.02c-0.79,0.61-1.57,1.21-2.36,1.82
				c1.78,1.69,3.56,3.37,5.34,5.05c0.89,0.84,1.78,1.68,2.67,2.52c0.88,0.83,1.77,1.88,3.09,1.8c1.39-0.08,2.13-1.51,2.87-2.5
				c0.74-0.98,1.48-1.96,2.21-2.95c1.48-1.96,2.95-3.93,4.43-5.89c0.49-0.65,0.1-1.68-0.54-2.05c-0.77-0.45-1.56-0.11-2.05,0.54
				c-1.33,1.77-2.66,3.53-3.98,5.3c-0.64,0.85-1.28,1.7-1.92,2.55c-0.3,0.39-0.59,0.79-0.89,1.18c-0.17,0.23-0.49,0.52-0.59,0.79
				c-0.01,0.01-0.02,0.03-0.03,0.04c-0.29,0.27-0.11,0.28,0.53,0.04c0.01-0.12-0.61-0.59-0.75-0.72c-0.39-0.36-0.77-0.73-1.16-1.09
				c-0.77-0.73-1.54-1.46-2.32-2.19c-1.6-1.51-3.2-3.03-4.8-4.55c-1.19-1.13-3.34,0.35-2.36,1.82c0.23,0.34,0.46,0.68,0.69,1.02
				c0.45,0.67,1.32,0.97,2.05,0.54C174.84,180.37,175.17,179.38,174.71,178.71L174.71,178.71z"/>
		</g>
	</g>
</g>
<g>
	<g>
		<g>
			<path class="st1" d="M166.98,41.02c-0.74,0.67-0.89,1.54-0.76,2.49c0.18,1.26,2.21,1.46,2.74,0.36
				c2.09-4.37,4.18-8.75,6.27-13.12c0.12-0.26,0.25-0.52,0.37-0.78c0.07-0.15,0.32-0.46,0.32-0.62c-0.01,0.5-1.75-0.67-1.27,0.16
				c0.14,0.24,0.27,0.47,0.39,0.71c0.47,0.87,0.91,1.76,1.34,2.65c0.87,1.81,1.7,3.65,2.66,5.42c1.1,2.04,2.4,3.98,4.01,5.65
				c1.34,1.39,3.46-0.73,2.12-2.12c-3.02-3.13-4.64-7.26-6.52-11.11c-0.47-0.97-0.94-1.96-1.51-2.87c-0.79-1.25-2.34-1.63-3.43-0.51
				c-0.4,0.41-0.62,0.94-0.86,1.45c-0.3,0.63-0.6,1.26-0.9,1.89c-0.57,1.19-1.13,2.37-1.7,3.56c-1.29,2.71-2.59,5.41-3.88,8.12
				c0.91,0.12,1.83,0.24,2.74,0.36c0.07,0.17,0.05,0.31-0.06,0.43c-0.11,0.16-0.1,0.16,0.05,0.01c0.6-0.54,0.55-1.57,0-2.12
				C168.51,40.42,167.58,40.47,166.98,41.02L166.98,41.02z"/>
		</g>
	</g>
	<g>
		<g>
			<path class="st1" d="M57.85,169.8c-1.13,4.43-2.26,8.86-3.39,13.28c-0.28,1.09-0.8,2.35-0.59,3.49c0.19,1.05,0.95,1.78,1.93,2.14
				c0.79,0.29,1.66,0.28,2.49,0.24c1.07-0.05,2.15-0.06,3.22-0.02c2.45,0.09,4.87,0.46,7.26,1.05c0.68,0.17,1.32-0.12,1.69-0.69
				c0.23-0.35,0.46-0.7,0.7-1.05c0.45-0.67,0.13-1.66-0.54-2.05c-0.73-0.43-1.6-0.14-2.05,0.54c-0.23,0.35-0.46,0.7-0.7,1.05
				c0.56-0.23,1.13-0.46,1.69-0.69c-2.02-0.51-4.08-0.85-6.15-1.04c-1.93-0.17-3.82-0.09-5.75-0.08c-0.16,0-0.32,0-0.48-0.01
				c-0.18-0.01-0.03,0,0,0.01c-0.08-0.01-0.15-0.03-0.23-0.05c-0.07-0.02-0.15-0.04-0.22-0.06c0.02,0,0.19,0.08,0.02,0.01
				c-0.2-0.08,0.04,0.04,0.02,0.04c-0.03-0.03-0.06-0.06-0.1-0.09c0.03,0.03,0.05,0.05,0.08,0.08c-0.01,0.01,0.02,0.07,0.06,0.04
				c0.02-0.01,0.06-0.2,0.05-0.16c0.09-0.22,0.12-0.48,0.18-0.71c0.13-0.52,0.27-1.04,0.4-1.56c0.51-1.99,1.02-3.99,1.53-5.98
				c0.59-2.31,1.18-4.63,1.77-6.94C61.22,168.73,58.32,167.93,57.85,169.8L57.85,169.8z"/>
		</g>
	</g>
</g>
</svg>
