<?xml version="1.0" encoding="utf-8"?>
<!-- Generator: Adobe Illustrator 23.1.1, SVG Export Plug-In . SVG Version: 6.00 Build 0)  -->
<svg version="1.1" id="Layer_1" xmlns="http://www.w3.org/2000/svg" xmlns:xlink="http://www.w3.org/1999/xlink" x="0px" y="0px"
	 viewBox="0 0 288 216" style="enable-background:new 0 0 288 216;" xml:space="preserve">
<style type="text/css">
	.st0{fill:#A7A9AC;}
	.st1{fill:#ED1C24;}
</style>
<g>
	<g>
		<g>
			<g>
				<path class="st0" d="M251.03,130.45c4.27-3.76,8.41-7.67,12.42-11.7c0.48-0.49,0.96-0.97,1.44-1.46
					c0.47-0.48,1.1-0.99,1.26-1.68c0.3-1.29-0.93-2.06-1.85-2.65c-1.76-1.12-3.73-1.83-5.64-2.65c-2.06-0.88-4.15-1.94-5.49-3.8
					c-0.12,0.46-0.24,0.91-0.36,1.37c0.31-0.21,0.58-0.18,0.84,0.09c0.9,0.92,2.31-0.49,1.41-1.41c-0.86-0.89-2.22-1.08-3.26-0.4
					c-0.42,0.27-0.69,0.91-0.36,1.37c2.44,3.38,6.35,4.4,9.93,6.11c0.89,0.43,1.78,0.9,2.58,1.5c0.07,0.05,0.14,0.12,0.21,0.16
					c0.02,0.02,0.04,0.04,0.06,0.06c0.12,0.13,0.11,0.06-0.01-0.22c-0.03-0.01-0.57,0.6-0.64,0.66c-0.48,0.49-0.96,0.98-1.44,1.46
					c-1.89,1.91-3.82,3.79-5.77,5.64c-2.21,2.09-4.45,4.14-6.73,6.15C248.65,129.88,250.07,131.29,251.03,130.45L251.03,130.45z"/>
			</g>
		</g>
		<g>
			<g>
				<path class="st0" d="M29.54,100.9c-3.86,1.72-7.52,3.89-10.9,6.44c-0.77,0.58-1.73,1.16-2.32,1.92
					c-0.69,0.88-0.38,1.88,0.3,2.65c1.5,1.68,3.14,3.26,4.75,4.84c1.81,1.78,3.65,3.53,5.52,5.24c0.95,0.87,2.37-0.54,1.41-1.41
					c-2.99-2.73-5.89-5.56-8.71-8.46c-0.33-0.34-0.66-0.69-0.99-1.03c-0.16-0.17-0.34-0.34-0.5-0.52c-0.03-0.03-0.13-0.18-0.16-0.19
					c-0.11-0.04-0.03,0.09-0.04,0.1c0.34-0.18,0.67-0.57,0.97-0.81c0.38-0.3,0.76-0.59,1.15-0.88c1.54-1.14,3.14-2.21,4.78-3.19
					c1.86-1.1,3.78-2.09,5.75-2.97c0.49-0.22,0.61-0.94,0.36-1.37C30.61,100.75,30.03,100.68,29.54,100.9L29.54,100.9z"/>
			</g>
		</g>
		<g>
			<g>
				<path class="st0" d="M16.81,111.94c15.14,4.13,30.92,4.09,46.49,3.93c16.32-0.17,32.64-0.34,48.96-0.5
					c16.33-0.17,32.65-0.34,48.98-0.5c16.24-0.17,32.48-0.41,48.71-0.27c18.32,0.17,36.66,0.88,54.88,2.91
					c0.39,0.04,0.9-0.34,0.96-0.73c0.29-1.78-0.8-3.67-2.77-3.61c-1.28,0.04-1.29,2.04,0,2c0.58-0.02,0.93,0.52,0.84,1.07
					c0.32-0.24,0.64-0.49,0.96-0.73c-32.26-3.59-64.77-3.04-97.16-2.71c-32.65,0.34-65.31,0.67-97.96,1.01
					c-17.49,0.18-35.33,0.85-52.37-3.79C16.09,109.68,15.56,111.61,16.81,111.94L16.81,111.94z"/>
			</g>
		</g>
	</g>
	<g>
		<g>
			<g>
				<path class="st0" d="M131.31,32.75c1.86-5.56,4.1-10.98,6.73-16.22c0.64-1.27,1.29-2.52,1.97-3.77
					c0.34-0.62,0.67-1.25,1.03-1.85c0.04-0.07,0.24-0.4,0.2-0.32c-0.15,0.31-0.19-0.26-0.06,0.08c0.04,0.12,0.2,0.25,0.27,0.36
					c1.66,2.62,3.22,5.31,4.82,7.96c1.85,3.05,3.7,6.11,5.55,9.16c0.36,0.59,1.4,0.71,1.73,0c0.37-0.81,0.74-1.63,1.12-2.44
					c0.22-0.49,0.14-1.08-0.36-1.37c-0.43-0.25-1.14-0.13-1.37,0.36c-0.37,0.81-0.74,1.63-1.12,2.44c0.58,0,1.15,0,1.73,0
					c-1.79-2.95-3.57-5.9-5.36-8.84c-0.88-1.46-1.76-2.91-2.65-4.37c-0.86-1.42-1.64-2.95-2.62-4.28c-0.9-1.22-2.38-1.42-3.34-0.14
					c-0.89,1.19-1.53,2.65-2.22,3.96c-1.47,2.79-2.82,5.64-4.07,8.53c-1.45,3.35-2.75,6.76-3.91,10.22
					C128.97,33.44,130.91,33.96,131.31,32.75L131.31,32.75z"/>
			</g>
		</g>
		<g>
			<g>
				<path class="st0" d="M133.16,194.51c1.79,4.25,3.94,8.34,6.53,12.16c0.6,0.88,1.18,1.89,1.92,2.66
					c0.82,0.84,1.95,0.73,2.71-0.14c0.8-0.92,1.49-1.96,2.22-2.94c0.71-0.96,1.42-1.93,2.11-2.9c1.61-2.25,3.17-4.52,4.69-6.83
					c0.71-1.08-1.02-2.08-1.73-1.01c-2.38,3.6-4.86,7.14-7.45,10.6c-0.29,0.38-0.57,0.76-0.86,1.15c-0.12,0.16-0.42,0.41-0.46,0.59
					c-0.02,0.02-0.04,0.05-0.07,0.07c0.1,0.02,0.2,0.03,0.29,0.05c0.01-0.02-0.09-0.1-0.1-0.12c-0.05-0.2-0.33-0.45-0.46-0.63
					c-0.13-0.18-0.26-0.36-0.39-0.55c-0.3-0.43-0.6-0.86-0.89-1.29c-1.13-1.68-2.18-3.42-3.15-5.2c-1.1-2.02-2.11-4.09-2.99-6.21
					c-0.21-0.5-0.66-0.85-1.23-0.7C133.39,193.4,132.95,194,133.16,194.51L133.16,194.51z"/>
			</g>
		</g>
		<g>
			<g>
				<path class="st0" d="M139.94,10.17c-0.4,25.67-0.57,51.34-0.49,77.02c0.08,25.55,0.39,51.09,0.95,76.63
					c0.31,14.41,0.7,28.81,1.17,43.22c0.04,1.28,2.04,1.29,2,0c-0.83-25.67-1.41-51.34-1.76-77.01
					c-0.34-25.54-0.45-51.09-0.31-76.63c0.08-14.41,0.23-28.82,0.45-43.22C141.96,8.88,139.96,8.88,139.94,10.17L139.94,10.17z"/>
			</g>
		</g>
	</g>
</g>
<g>
	<g>
		<path class="st1" d="M100.23,194.03c0.12-10.93,1.33-21.91,3.8-32.56c1.8-7.78,4.3-15.47,8.06-22.54
			c1.73-3.26,3.77-6.31,5.99-9.25c2.1-2.78,4.44-5.41,7.12-7.65c3.32-2.76,7.25-4.86,11.46-5.84c3.87-0.91,7.83-0.11,11.73-0.71
			c7.26-1.13,13.41-5.87,17.97-11.41c3.87-4.7,6.88-10.03,9.34-15.58c2.07-4.68,3.7-9.44,4.62-14.48c1.35-7.37,1.71-14.9,2.04-22.37
			c0.44-9.92,0.8-19.85,0.77-29.78c0-1.76-0.02-3.53-0.05-5.29c-0.03-1.93-3.03-1.93-3,0c0.13,9.26-0.08,18.51-0.43,27.76
			c-0.31,8.31-0.54,16.67-1.61,24.92c-0.71,5.47-2.02,10.78-4.14,15.88c-0.04,0.1-0.3,0.71-0.14,0.35
			c-0.09,0.22-0.19,0.44-0.28,0.67c-0.21,0.5-0.43,0.99-0.65,1.48c-0.55,1.22-1.13,2.42-1.73,3.61c-1.41,2.77-2.99,5.46-4.78,8
			c-3.87,5.49-9.04,10.61-15.6,12.64c-1.84,0.57-3.72,0.88-5.65,0.91c-1.78,0.02-3.57-0.14-5.35-0.03
			c-4.63,0.28-9.16,2.03-13.04,4.52c-6.15,3.96-10.93,9.94-14.8,16.08c-4.31,6.83-7.27,14.48-9.43,22.24
			c-3.3,11.89-4.88,24.33-5.17,36.65c-0.01,0.6-0.02,1.2-0.03,1.8C97.21,195.96,100.21,195.96,100.23,194.03L100.23,194.03z"/>
	</g>
</g>
<g>
	<g>
		<g>
			<path class="st1" d="M90.83,14.28c-0.19,11.35-0.89,22.69-2.14,33.97c-1.04,9.41-2.32,18.84-4.42,28.19
				c-0.78,3.48-1.71,6.94-3.06,10.24c-0.03,0.07-0.06,0.14-0.09,0.21c0.13-0.32,0.05-0.12,0.02-0.05c-0.07,0.16-0.14,0.33-0.22,0.5
				c-0.14,0.32-0.29,0.63-0.45,0.95c-0.28,0.56-0.57,1.12-0.88,1.66c-0.29,0.51-0.61,1.02-0.94,1.51c-0.16,0.24-0.32,0.47-0.49,0.71
				c-0.08,0.11-0.16,0.22-0.24,0.33c-0.04,0.06-0.36,0.47-0.21,0.27c0.16-0.2-0.11,0.14-0.16,0.2c-0.09,0.12-0.18,0.23-0.28,0.34
				c-0.19,0.23-0.38,0.45-0.57,0.67c-0.63,0.72-1.29,1.42-1.98,2.09c-1.71,1.68-3.56,3.17-5.54,4.51c-1.9,1.28-3.89,2.43-5.94,3.44
				c-1.88,0.93-3.43,1.59-5.36,2.31c-7.09,2.63-14.65,4.1-22.22,4.13c-1.02,0-2.03-0.02-3.05-0.06c-0.81-0.03-1.5,0.71-1.5,1.5
				c0,0.84,0.69,1.47,1.5,1.5c7.97,0.34,15.97-0.84,23.55-3.3c8.46-2.75,16.71-7.2,22.63-13.97c3.89-4.45,6.04-9.85,7.53-15.51
				c1.27-4.85,2.16-9.79,2.95-14.73c0.74-4.56,1.38-9.13,1.94-13.71c1.35-11.03,2.17-22.12,2.49-33.23c0.04-1.55,0.08-3.11,0.1-4.66
				C93.86,12.35,90.86,12.35,90.83,14.28L90.83,14.28z"/>
		</g>
	</g>
	<g>
		<g>
			<path class="st1" d="M86.89,22.56c1.56-3.39,3.33-6.75,5.42-9.85c0.09-0.14,0.31-0.44,0.37-0.41c-0.07-0.03-0.25,0.01-0.28,0.08
				c-0.01,0.03,0.36,0.35,0.41,0.39c0.67,0.64,1.32,1.3,1.96,1.97c1.3,1.37,2.54,2.81,3.71,4.29c0.5,0.64,1.6,0.53,2.12,0
				c0.63-0.63,0.5-1.48,0-2.12c-1.34-1.7-2.76-3.33-4.27-4.88c-0.74-0.76-1.51-1.7-2.42-2.26c-1.04-0.63-2.22-0.52-3.16,0.23
				c-0.79,0.64-1.3,1.59-1.83,2.44c-0.57,0.92-1.13,1.85-1.66,2.8c-1.07,1.89-2.05,3.82-2.96,5.8c-0.34,0.74-0.21,1.62,0.54,2.05
				C85.48,23.47,86.55,23.3,86.89,22.56L86.89,22.56z"/>
		</g>
	</g>
	<g>
		<g>
			<path class="st1" d="M35.52,104.79c-1.47,0.89-2.86,1.9-4.18,3c-0.61,0.51-1.2,1.05-1.76,1.6c-0.6,0.59-1.36,1.22-1.58,2.07
				c-0.28,1.06,0.42,1.84,1.04,2.6c0.59,0.72,1.19,1.45,1.78,2.17c1.19,1.45,2.37,2.9,3.56,4.35c0.51,0.63,1.59,0.53,2.12,0
				c0.62-0.62,0.51-1.49,0-2.12c-0.98-1.2-1.96-2.39-2.94-3.59c-0.52-0.63-1.03-1.26-1.55-1.89c-0.23-0.28-0.46-0.57-0.7-0.85
				c-0.12-0.15-0.24-0.35-0.39-0.47c-0.05-0.06-0.1-0.13-0.15-0.19c0.19,0.36,0.21,0.68,0.04,0.96c0.12-0.04,0.43-0.44,0.58-0.6
				c0.25-0.26,0.51-0.51,0.77-0.76c0.5-0.47,1.01-0.92,1.54-1.36c1.04-0.86,2.16-1.62,3.32-2.32
				C38.69,106.38,37.18,103.78,35.52,104.79L35.52,104.79z"/>
		</g>
	</g>
</g>
<g>
	<g>
		<g>
			<path class="st1" d="M176.36,25.56c1.94-3.2,3.89-6.39,5.83-9.59c-0.79,0.1-1.57,0.2-2.36,0.3c3.02,2.94,6.29,5.61,9.76,8.01
				c0.67,0.46,1.67,0.12,2.05-0.54c0.44-0.75,0.13-1.59-0.54-2.05c-3.26-2.26-6.31-4.78-9.15-7.54c-0.7-0.68-1.85-0.53-2.36,0.3
				c-1.94,3.2-3.89,6.39-5.83,9.59C172.76,25.7,175.36,27.21,176.36,25.56L176.36,25.56z"/>
		</g>
	</g>
	<g>
		<g>
			<path class="st1" d="M90.23,190.01c1.88,2.94,4.15,5.63,6.76,7.95c0.45,0.4,1.28,0.65,1.82,0.23c3.99-3.06,7.79-6.36,11.35-9.92
				c1.37-1.37-0.76-3.49-2.12-2.12c-3.37,3.38-6.95,6.55-10.74,9.46c0.61,0.08,1.21,0.16,1.82,0.23c-2.42-2.16-4.54-4.61-6.29-7.35
				c-0.44-0.68-1.33-0.96-2.05-0.54C90.09,188.35,89.79,189.32,90.23,190.01L90.23,190.01z"/>
		</g>
	</g>
</g>
<g>
	<g>
		<g>
			<path class="st1" d="M191.81,195.98c0.18-7.84,1.12-15.65,2.82-23.31c1.69-7.59,3.38-15.34,6.63-22.44
				c3.44-7.52,8.66-14.06,15.38-18.91c2.97-2.14,6.16-3.95,9.5-5.43c0.16-0.07,0.32-0.14,0.48-0.21c0.09-0.04,0.43-0.18,0.36-0.15
				c0.13-0.05,0.64-0.26,0.92-0.37c0.58-0.23,1.17-0.45,1.76-0.67c1.13-0.41,2.28-0.8,3.43-1.15c7.31-2.25,15.01-3,22.62-2.26
				c0.6,0.06,1.2,0.13,1.8,0.2c0.8,0.1,1.5-0.76,1.5-1.5c0-0.9-0.69-1.4-1.5-1.5c-7.28-0.93-14.74-0.5-21.87,1.24
				c-6.35,1.55-12.58,4.06-18.09,7.58c-7.36,4.69-13.47,11.18-17.55,18.91c-3.76,7.13-5.78,14.97-7.56,22.78
				c-1.88,8.24-3.22,16.55-3.56,25c-0.03,0.73-0.05,1.46-0.07,2.19C188.77,197.91,191.77,197.91,191.81,195.98L191.81,195.98z"/>
		</g>
	</g>
	<g>
		<g>
			<path class="st1" d="M250.79,111.39c0.81,1.59,1.73,3.11,2.76,4.57c0.55,0.77,1.12,1.52,1.72,2.25c0.28,0.35,0.57,0.69,0.86,1.02
				c0.15,0.17,0.54,0.78,0.73,0.82c0-0.01,0.01-0.01,0.01-0.02c0.31-0.67,0.34-0.87,0.07-0.59c-0.16,0.08-0.32,0.25-0.46,0.36
				c-0.34,0.27-0.67,0.54-1,0.82c-0.65,0.56-1.28,1.15-1.89,1.77c-1.25,1.27-2.38,2.65-3.42,4.1c-0.76,1.06,0.5,2.6,1.69,2.2
				c0.34-0.11,0.69-0.23,1.03-0.34c0.77-0.25,1.27-1.04,1.05-1.85c-0.21-0.75-1.07-1.3-1.85-1.05c-0.34,0.11-0.69,0.23-1.03,0.34
				c0.56,0.73,1.13,1.47,1.69,2.2c1.06-1.47,2.26-2.84,3.56-4.1c0.67-0.65,1.37-1.27,2.1-1.85c0.86-0.69,1.63-1.42,1.37-2.65
				c-0.22-1.01-1.04-1.72-1.69-2.47c-0.6-0.69-1.17-1.4-1.7-2.14c-1.14-1.56-2.14-3.21-3.02-4.93c-0.37-0.72-1.38-0.93-2.05-0.54
				C250.6,109.77,250.42,110.67,250.79,111.39L250.79,111.39z"/>
		</g>
	</g>
	<g>
		<g>
			<path class="st1" d="M181.56,190.08c1.32,1.47,2.69,2.91,4.09,4.3c0.69,0.68,1.39,1.36,2.1,2.02c0.71,0.67,1.51,1.65,2.46,1.96
				c1.13,0.37,1.96-0.21,2.77-0.94c0.76-0.69,1.52-1.38,2.28-2.07c1.58-1.43,3.17-2.87,4.75-4.3c0.6-0.54,0.55-1.57,0-2.12
				c-0.6-0.6-1.52-0.55-2.12,0c-1.37,1.24-2.74,2.48-4.11,3.72c-0.7,0.63-1.4,1.27-2.1,1.9c-0.3,0.28-0.61,0.55-0.91,0.83
				c-0.1,0.09-0.2,0.19-0.31,0.28c0.08-0.05,0.16-0.09,0.24-0.14c0.44-0.15,0.72,0.2,0.37-0.14c-2.52-2.43-5.04-4.82-7.39-7.43
				c-0.54-0.6-1.57-0.55-2.12,0C180.97,188.55,181.02,189.47,181.56,190.08L181.56,190.08z"/>
		</g>
	</g>
</g>
</svg>
