<?xml version="1.0" encoding="utf-8"?>
<!-- Generator: Adobe Illustrator 23.1.1, SVG Export Plug-In . SVG Version: 6.00 Build 0)  -->
<svg version="1.1" id="Layer_1" xmlns="http://www.w3.org/2000/svg" xmlns:xlink="http://www.w3.org/1999/xlink" x="0px" y="0px"
	 viewBox="0 0 288 216" style="enable-background:new 0 0 288 216;" xml:space="preserve">
<style type="text/css">
	.st0{fill:#A7A9AC;}
	.st1{fill:#ED1C24;}
</style>
<g>
	<g>
		<g>
			<g>
				<path class="st0" d="M260.33,125.29c2.97-2.18,5.92-4.4,8.77-6.73c0.77-0.63,1.53-1.26,2.26-1.93c0.66-0.61,1.45-1.27,1.62-2.19
					c0.19-1.03-0.45-1.93-1.21-2.56c-1.03-0.85-2.22-1.47-3.4-2.09c-2.92-1.54-5.84-3.05-8.75-4.61c-1.13-0.61-2.14,1.12-1.01,1.73
					c2.32,1.25,4.65,2.48,6.98,3.7c1.28,0.67,2.59,1.31,3.82,2.07c0.39,0.24,0.79,0.49,1.13,0.8c0.07,0.07,0.34,0.34,0.31,0.3
					c0.06,0.08,0.11,0.16,0.15,0.25c-0.08-0.16,0.03,0.03,0.02,0.09c0.04-0.23-0.04,0.06-0.07,0.1c-0.1,0.11-0.2,0.22-0.31,0.33
					c-0.26,0.26-0.53,0.51-0.8,0.76c-0.67,0.61-1.36,1.19-2.06,1.77c-1.59,1.3-3.21,2.56-4.85,3.8c-1.2,0.91-2.41,1.82-3.63,2.71
					c-0.43,0.32-0.65,0.87-0.36,1.37C259.22,125.36,259.9,125.61,260.33,125.29L260.33,125.29z"/>
			</g>
		</g>
		<g>
			<g>
				<path class="st0" d="M35.04,98.61c-3.86,1.72-7.52,3.89-10.9,6.44c-0.77,0.58-1.73,1.16-2.32,1.92
					c-0.69,0.88-0.38,1.88,0.3,2.65c1.5,1.68,3.14,3.26,4.75,4.84c1.81,1.78,3.65,3.53,5.52,5.24c0.95,0.87,2.37-0.54,1.41-1.41
					c-2.99-2.73-5.89-5.56-8.71-8.46c-0.33-0.34-0.66-0.69-0.99-1.03c-0.16-0.17-0.34-0.34-0.5-0.52c-0.03-0.03-0.13-0.18-0.16-0.19
					c-0.11-0.04-0.03,0.09-0.04,0.1c0.34-0.18,0.67-0.57,0.97-0.81c0.38-0.3,0.76-0.59,1.15-0.88c1.54-1.14,3.14-2.21,4.78-3.19
					c1.86-1.1,3.78-2.09,5.75-2.97c0.49-0.22,0.61-0.94,0.36-1.37C36.11,98.46,35.54,98.39,35.04,98.61L35.04,98.61z"/>
			</g>
		</g>
		<g>
			<g>
				<path class="st0" d="M22.31,109.66c15.14,4.13,30.92,4.09,46.49,3.93c16.32-0.17,32.64-0.34,48.96-0.5
					c16.33-0.17,32.65-0.34,48.98-0.5c16.24-0.17,32.48-0.41,48.71-0.27c18.32,0.17,36.66,0.88,54.88,2.91c1.28,0.14,1.27-1.86,0-2
					c-32.26-3.59-64.77-3.04-97.16-2.71c-32.65,0.34-65.31,0.67-97.96,1.01c-17.49,0.18-35.33,0.85-52.37-3.79
					C21.6,107.39,21.07,109.32,22.31,109.66L22.31,109.66z"/>
			</g>
		</g>
	</g>
	<g>
		<g>
			<g>
				<path class="st0" d="M139.79,28.39c2.53-4.64,5.08-9.28,7.61-13.92c0.33-0.61,0.67-1.22,1-1.83c0.21-0.39,0.55-0.83,0.71-1.24
					c0.07-0.18,0.11,0,0.04-0.07c-0.06-0.01-0.12-0.01-0.18-0.02c0.07,0.04,0.13,0.1,0.18,0.16c0.16,0.27,0.35,0.53,0.51,0.8
					c0.43,0.71,0.86,1.42,1.29,2.13c0.9,1.49,1.81,2.98,2.71,4.48c2.02,3.34,4.05,6.68,6.07,10.02c0.67,1.1,2.4,0.1,1.73-1.01
					c-1.94-3.2-3.87-6.39-5.81-9.59c-0.95-1.56-1.89-3.13-2.84-4.69c-0.47-0.78-0.95-1.56-1.42-2.34c-0.39-0.64-0.78-1.35-1.47-1.72
					c-1.9-1-2.89,1.46-3.6,2.76c-1.01,1.85-2.02,3.69-3.03,5.54c-1.74,3.18-3.47,6.35-5.21,9.53
					C137.45,28.52,139.17,29.53,139.79,28.39L139.79,28.39z"/>
			</g>
		</g>
		<g>
			<g>
				<path class="st0" d="M141.04,195.26c1.79,4.25,3.94,8.34,6.53,12.16c0.6,0.88,1.18,1.89,1.92,2.66
					c0.82,0.84,1.95,0.73,2.71-0.14c0.8-0.92,1.49-1.96,2.22-2.94c0.71-0.96,1.42-1.93,2.11-2.9c1.61-2.25,3.17-4.52,4.69-6.83
					c0.71-1.08-1.02-2.08-1.73-1.01c-2.38,3.6-4.86,7.14-7.45,10.6c-0.29,0.38-0.57,0.76-0.86,1.15c-0.12,0.16-0.42,0.41-0.46,0.59
					c-0.02,0.02-0.04,0.05-0.07,0.07c0.1,0.02,0.2,0.03,0.29,0.05c0.01-0.02-0.09-0.1-0.1-0.12c-0.05-0.2-0.33-0.45-0.46-0.63
					c-0.13-0.18-0.26-0.36-0.39-0.55c-0.3-0.43-0.6-0.86-0.89-1.29c-1.13-1.68-2.18-3.42-3.15-5.2c-1.1-2.02-2.11-4.09-2.99-6.21
					c-0.21-0.5-0.66-0.85-1.23-0.7C141.27,194.15,140.83,194.75,141.04,195.26L141.04,195.26z"/>
			</g>
		</g>
		<g>
			<g>
				<path class="st0" d="M147.83,10.92c-0.4,25.67-0.57,51.34-0.49,77.02c0.08,25.55,0.39,51.09,0.95,76.63
					c0.31,14.41,0.7,28.81,1.17,43.22c0.04,1.28,2.04,1.29,2,0c-0.83-25.67-1.41-51.34-1.76-77.01
					c-0.34-25.54-0.45-51.09-0.31-76.63c0.08-14.41,0.23-28.82,0.45-43.22C149.85,9.63,147.85,9.63,147.83,10.92L147.83,10.92z"/>
			</g>
		</g>
	</g>
	<g>
		<g>
			<path class="st1" d="M23.6,188.11c10.55-4.14,19.89-10.81,27.69-18.99c7.95-8.33,14.34-18.1,19.34-28.46
				c5.74-11.89,9.56-24.61,12.47-37.45c3.16-13.9,5.26-28.01,7.61-42.06c1.19-7.08,2.59-14.12,3.75-21.21
				c1.17-7.17,1.96-14.48,1.15-21.73c-0.19-1.7-0.47-3.38-0.84-5.05c-0.14-0.63-1.1-0.36-0.96,0.27
				c3.14,14.25-0.87,28.91-3.29,42.95c-2.37,13.73-4.36,27.52-7.2,41.16c-2.73,13.13-6.23,26.22-11.66,38.52
				c-4.59,10.42-10.52,20.33-17.99,28.96c-7.33,8.47-16.18,15.67-26.36,20.42c-1.31,0.61-2.63,1.18-3.98,1.7
				C22.74,187.38,23,188.35,23.6,188.11L23.6,188.11z"/>
		</g>
	</g>
	<g>
		<g>
			<path class="st1" d="M99.48,207.55c-1.45-15.28-1.8-30.81,0.83-45.99c2.27-13.12,6.82-25.97,14.3-37.05
				c1.83-2.71,3.83-5.3,6-7.75c1.08-1.22,2.19-2.58,3.57-3.46c0.62-0.39,1.33-0.71,2.07-0.67c0.9,0.04,1.62,0.58,2.2,1.23
				c1.05,1.17,1.82,2.67,2.51,4.07c0.76,1.55,1.37,3.16,1.88,4.81c0.99,3.24,1.53,6.6,1.82,9.98c1.29,14.88-1.1,29.91-3.77,44.51
				c-1.36,7.44-2.85,14.86-4.1,22.33c-0.61,3.65-1.16,7.31-1.62,10.98c-0.15,1.18-0.64,3,0.3,4.01c0.7,0.74,1.75,0.52,1.94-0.51
				c0.14-0.73-0.4-1.67-1.21-1.11c-0.53,0.36-0.03,1.23,0.5,0.86c0.03-0.02,0.05-0.04,0.08-0.05c-0.29-0.21-0.4-0.22-0.34-0.04
				c-0.02,0.03,0.02,0.15-0.01,0.16c-0.17,0.08,0.14,0.29-0.16,0.08c-0.47-0.34-0.36-1.25-0.31-1.74c0.19-1.85,0.46-3.7,0.72-5.54
				c0.53-3.7,1.14-7.39,1.8-11.07c1.3-7.29,2.75-14.55,4.04-21.85c1.27-7.22,2.38-14.48,2.98-21.79c0.58-7.11,0.79-14.37-0.08-21.47
				c-0.4-3.26-1.05-6.5-2.16-9.61c-0.54-1.5-1.17-2.97-1.93-4.38c-0.72-1.35-1.53-2.85-2.71-3.86c-1.07-0.91-2.45-1.24-3.79-0.76
				c-1.41,0.51-2.52,1.59-3.53,2.66c-2.21,2.34-4.25,4.83-6.14,7.44c-7.57,10.49-12.44,22.8-15.07,35.41
				C97.03,172.04,96.88,187.13,98,202c0.14,1.85,0.3,3.71,0.48,5.56C98.54,208.19,99.54,208.2,99.48,207.55L99.48,207.55z"/>
		</g>
	</g>
	<g>
		<g>
			<path class="st1" d="M164.62,6.22c-2.57,13.77-3.68,27.83-3.2,41.83c0.21,6.25,0.82,12.61,3,18.51
				c1.94,5.25,5.17,9.96,9.78,13.21c4.34,3.06,9.68,4.47,14.91,3.31c4.97-1.1,9.16-4.3,12.59-7.94c3.74-3.96,6.74-8.53,9.81-13
				c3.71-5.4,7.59-10.68,11.64-15.84c8.04-10.26,16.72-20.03,25.96-29.22c1.13-1.12,2.27-2.24,3.41-3.34
				c0.46-0.45-0.24-1.15-0.71-0.71c-9.19,8.88-17.84,18.3-25.89,28.21c-4.02,4.95-7.89,10.01-11.61,15.19
				c-3.34,4.65-6.39,9.52-9.93,14.03c-3.11,3.97-6.71,7.83-11.27,10.13c-4.65,2.34-10.01,2.53-14.78,0.41
				c-4.88-2.17-8.82-6.22-11.28-10.92c-2.89-5.52-3.99-11.78-4.43-17.93c-0.48-6.64-0.41-13.35-0.07-19.99
				c0.34-6.89,1.06-13.77,2.15-20.58c0.27-1.69,0.56-3.39,0.88-5.07C165.7,5.85,164.74,5.58,164.62,6.22L164.62,6.22z"/>
		</g>
	</g>
</g>
</svg>
