<?xml version="1.0" encoding="utf-8"?>
<!-- Generator: Adobe Illustrator 23.1.1, SVG Export Plug-In . SVG Version: 6.00 Build 0)  -->
<svg version="1.1" id="Layer_1" xmlns="http://www.w3.org/2000/svg" xmlns:xlink="http://www.w3.org/1999/xlink" x="0px" y="0px"
	 viewBox="0 0 288 216" style="enable-background:new 0 0 288 216;" xml:space="preserve">
<style type="text/css">
	.st0{fill:#A7A9AC;}
	.st1{fill:#ED1C24;}
	.st2{fill:#FFFFFF;}
</style>
<g>
	<g>
		<g>
			<path class="st0" d="M254.08,130.58c2.97-2.18,5.92-4.4,8.77-6.73c0.77-0.63,1.53-1.26,2.26-1.93c0.66-0.61,1.45-1.27,1.62-2.19
				c0.19-1.03-0.45-1.93-1.21-2.56c-1.03-0.85-2.22-1.47-3.4-2.09c-2.92-1.54-5.84-3.05-8.75-4.61c-1.13-0.61-2.14,1.12-1.01,1.73
				c2.32,1.25,4.65,2.48,6.98,3.7c1.28,0.67,2.59,1.31,3.82,2.07c0.39,0.24,0.79,0.49,1.13,0.8c0.07,0.07,0.34,0.34,0.31,0.3
				c0.06,0.08,0.11,0.16,0.15,0.25c-0.08-0.16,0.03,0.03,0.02,0.09c0.04-0.23-0.04,0.06-0.07,0.1c-0.1,0.11-0.2,0.22-0.31,0.33
				c-0.26,0.26-0.53,0.51-0.8,0.76c-0.67,0.61-1.36,1.19-2.06,1.77c-1.59,1.3-3.21,2.56-4.85,3.8c-1.2,0.91-2.41,1.82-3.63,2.71
				c-0.43,0.32-0.65,0.87-0.36,1.37C252.96,130.65,253.64,130.9,254.08,130.58L254.08,130.58z"/>
		</g>
	</g>
	<g>
		<g>
			<path class="st0" d="M28.79,103.9c-3.86,1.72-7.52,3.89-10.9,6.44c-0.77,0.58-1.73,1.16-2.32,1.92c-0.69,0.88-0.38,1.88,0.3,2.65
				c1.5,1.68,3.14,3.26,4.75,4.84c1.81,1.78,3.65,3.53,5.52,5.24c0.95,0.87,2.37-0.54,1.41-1.41c-2.99-2.73-5.89-5.56-8.71-8.46
				c-0.33-0.34-0.66-0.69-0.99-1.03c-0.16-0.17-0.34-0.34-0.5-0.52c-0.03-0.03-0.13-0.18-0.16-0.19c-0.11-0.04-0.03,0.09-0.04,0.1
				c0.34-0.18,0.67-0.57,0.97-0.81c0.38-0.3,0.76-0.59,1.15-0.88c1.54-1.14,3.14-2.21,4.78-3.19c1.86-1.1,3.78-2.09,5.75-2.97
				c0.49-0.22,0.61-0.94,0.36-1.37C29.86,103.75,29.28,103.68,28.79,103.9L28.79,103.9z"/>
		</g>
	</g>
	<g>
		<g>
			<path class="st0" d="M16.06,114.95c15.14,4.13,30.92,4.09,46.49,3.93c16.32-0.17,32.64-0.34,48.96-0.5
				c16.33-0.17,32.65-0.34,48.98-0.5c16.24-0.17,32.48-0.41,48.71-0.27c18.32,0.17,36.66,0.88,54.88,2.91c1.28,0.14,1.27-1.86,0-2
				c-32.26-3.59-64.77-3.04-97.16-2.71c-32.65,0.34-65.31,0.67-97.96,1.01c-17.49,0.18-35.33,0.86-52.37-3.79
				C15.34,112.68,14.81,114.61,16.06,114.95L16.06,114.95z"/>
		</g>
	</g>
</g>
<g>
	<g>
		<g>
			<path class="st0" d="M199.86,24.64c2.53-4.64,5.08-9.28,7.61-13.92c0.33-0.61,0.67-1.22,1-1.83c0.21-0.39,0.55-0.83,0.71-1.24
				c0.07-0.18,0.11,0,0.04-0.07c-0.06-0.01-0.12-0.01-0.18-0.02c0.07,0.04,0.13,0.1,0.18,0.16c0.16,0.27,0.35,0.53,0.51,0.8
				c0.43,0.71,0.86,1.42,1.29,2.13c0.9,1.49,1.81,2.98,2.71,4.48c2.02,3.34,4.05,6.68,6.07,10.02c0.67,1.1,2.4,0.1,1.73-1.01
				c-1.94-3.2-3.87-6.39-5.81-9.59c-0.95-1.56-1.89-3.13-2.84-4.69c-0.47-0.78-0.95-1.56-1.42-2.34c-0.39-0.64-0.78-1.35-1.47-1.72
				c-1.9-1-2.89,1.46-3.6,2.76c-1.01,1.85-2.02,3.69-3.03,5.54c-1.74,3.18-3.47,6.35-5.21,9.53
				C197.51,24.76,199.24,25.77,199.86,24.64L199.86,24.64z"/>
		</g>
	</g>
	<g>
		<g>
			<path class="st0" d="M201.11,191.5c1.79,4.25,3.94,8.34,6.53,12.16c0.6,0.88,1.18,1.89,1.92,2.66c0.82,0.84,1.95,0.73,2.71-0.14
				c0.8-0.92,1.49-1.96,2.22-2.94c0.71-0.96,1.42-1.93,2.11-2.9c1.61-2.25,3.17-4.52,4.69-6.83c0.71-1.08-1.02-2.08-1.73-1.01
				c-2.38,3.6-4.86,7.14-7.45,10.6c-0.29,0.38-0.57,0.76-0.86,1.15c-0.12,0.16-0.42,0.41-0.46,0.59c-0.02,0.02-0.04,0.05-0.07,0.07
				c0.1,0.02,0.2,0.03,0.29,0.05c0.01-0.02-0.09-0.1-0.1-0.12c-0.05-0.2-0.33-0.45-0.46-0.63c-0.13-0.18-0.26-0.36-0.39-0.55
				c-0.3-0.43-0.6-0.86-0.89-1.29c-1.13-1.68-2.18-3.42-3.15-5.2c-1.1-2.02-2.11-4.09-2.99-6.21c-0.21-0.5-0.66-0.85-1.23-0.7
				C201.34,190.4,200.9,191,201.11,191.5L201.11,191.5z"/>
		</g>
	</g>
	<g>
		<g>
			<path class="st0" d="M207.89,7.16c-0.4,25.67-0.57,51.34-0.49,77.02c0.08,25.55,0.39,51.09,0.95,76.63
				c0.31,14.41,0.7,28.81,1.17,43.22c0.04,1.28,2.04,1.29,2,0c-0.83-25.67-1.41-51.34-1.76-77.01c-0.34-25.54-0.45-51.09-0.31-76.63
				c0.08-14.41,0.23-28.82,0.45-43.22C209.91,5.88,207.91,5.88,207.89,7.16L207.89,7.16z"/>
		</g>
	</g>
</g>
<g>
	<g>
		<g>
			<path d="M190.28,111.69c-0.49-0.67-1.23-0.27-1.5,0.38c-0.16,0.39-0.11,0.82-0.1,1.23c0.02,0.52,0.05,1.03,0.1,1.55
				c0.18,2,0.59,3.97,1.22,5.88c0.2,0.61,1.17,0.35,0.96-0.27c-0.46-1.4-0.81-2.83-1.03-4.29c-0.11-0.71-0.18-1.43-0.22-2.14
				c-0.02-0.38-0.04-0.76-0.04-1.14c0-0.12-0.02-0.28,0.01-0.4c0.02-0.06,0.05-0.12,0.09-0.17c0.1-0.12-0.02-0.16-0.36-0.13
				C189.79,112.71,190.66,112.21,190.28,111.69L190.28,111.69z"/>
		</g>
	</g>
	<g>
		<g>
			<path d="M160.16,112.88c-0.64,2.11-0.91,4.34-0.75,6.55c0.1,1.42,0.62,3.28,2.24,3.59c0.63,0.12,0.9-0.84,0.27-0.96
				c-1.4-0.27-1.51-2.21-1.54-3.34c-0.06-1.89,0.2-3.76,0.75-5.57C161.31,112.53,160.35,112.26,160.16,112.88L160.16,112.88z"/>
		</g>
	</g>
	<g>
		<g>
			<path d="M109.74,112.26c-1.08,3.39-1.19,7.03-0.33,10.49c0.15,0.62,1.12,0.36,0.96-0.27c-0.82-3.29-0.7-6.73,0.33-9.96
				C110.9,111.91,109.94,111.64,109.74,112.26L109.74,112.26z"/>
		</g>
	</g>
	<g>
		<g>
			<path d="M133.29,111.65c-1.04,4.24-1.14,8.67-0.32,12.95c0.12,0.63,1.09,0.36,0.96-0.27c-0.79-4.1-0.68-8.36,0.32-12.42
				C134.41,111.29,133.45,111.02,133.29,111.65L133.29,111.65z"/>
		</g>
	</g>
</g>
<g>
	<g>
		<g>
			<path class="st1" d="M105.85,5.4c-0.32,10.32-0.88,20.66-1.95,30.93c-0.51,4.95-1.31,9.86-2.43,14.82
				c-0.62,2.74-1.31,5.47-2.18,8.14c-0.29,0.87-0.59,1.74-0.93,2.59c-0.03,0.07-0.06,0.14-0.09,0.21c-0.14,0.34,0.09-0.21,0,0
				c-0.06,0.14-0.12,0.28-0.19,0.42c-0.13,0.29-0.27,0.57-0.41,0.86c-1.47,2.9-3.75,5.34-6.33,7.23c-4.52,3.31-9.91,5.49-15.24,7.11
				c-10.6,3.22-21.69,3.44-32.66,4.02c-9.86,0.52-19.71,0.98-29.58,1.39c-0.87,0.04-1.75,0.07-2.62,0.11
				c-0.81,0.03-1.5,0.67-1.5,1.5c0,0.79,0.69,1.53,1.5,1.5c9.46-0.38,18.91-0.82,28.36-1.3c5.85-0.3,11.71-0.56,17.56-0.97
				c5.41-0.39,10.81-1.06,16.08-2.35c5.88-1.44,11.77-3.58,16.99-6.68c3.72-2.21,7.05-5.11,9.35-8.8c1.76-2.83,2.73-6.19,3.6-9.38
				c1.52-5.58,2.59-11.28,3.33-17.01c0.53-4.14,0.86-8.31,1.18-12.48c0.43-5.66,0.76-11.32,0.99-16.99
				c0.07-1.62,0.12-3.24,0.17-4.86C108.91,3.47,105.91,3.47,105.85,5.4L105.85,5.4z"/>
		</g>
	</g>
	<g>
		<g>
			<path class="st1" d="M94.75,20.65c1.85,0.27,2.74-0.99,3.54-2.44c0.73-1.34,1.5-2.66,2.29-3.96c1.59-2.6,3.32-5.13,5.16-7.56
				c0.43-0.57,0.87-1.13,1.31-1.68c0.13-0.16,1.22-1.43,1.21-1.45c-0.01-0.02-0.32-0.03-0.41-0.02c-0.1,0.01,0.16,0.15,0.04,0.03
				c0.13,0.14,0.2,0.25,0.32,0.48c0.21,0.41,0.41,1.16,0.56,1.72c0.73,2.57,1.14,5.22,1.77,7.82c0.73,3,1.8,5.85,3.71,8.31
				c0.5,0.64,1.6,0.52,2.12,0c0.63-0.63,0.5-1.48,0-2.12c-1.57-2.02-2.35-4.53-2.94-6.98c-0.64-2.66-1.06-5.38-1.82-8.01
				c-0.39-1.35-0.82-2.82-2.02-3.68c-0.62-0.44-1.42-0.62-2.17-0.42c-0.76,0.2-1.29,0.74-1.77,1.32c-2.02,2.45-3.92,5.01-5.69,7.66
				c-0.97,1.46-1.91,2.95-2.8,4.46c-0.43,0.72-0.84,1.45-1.25,2.19c-0.21,0.38-0.41,0.78-0.63,1.16c-0.06,0.1-0.12,0.22-0.19,0.31
				c-0.18,0.22-0.16-0.09,0.46,0c-0.8-0.12-1.61,0.2-1.85,1.05C93.51,19.51,93.94,20.53,94.75,20.65L94.75,20.65z"/>
		</g>
	</g>
	<g>
		<g>
			<path class="st1" d="M19.02,74.17c-3.17,2.39-6.18,4.98-8.96,7.81c-0.71,0.72-1.59,1.45-1.63,2.54
				c-0.04,1.17,0.79,1.93,1.61,2.61c1.62,1.36,3.24,2.72,4.86,4.08c1.84,1.55,3.69,3.09,5.53,4.64c0.57,0.48,1.35,0.61,1.97,0.12
				c0.59-0.47,0.76-1.27,0.39-1.94c-0.21-0.37-0.41-0.74-0.62-1.11c-0.94-1.69-3.53-0.17-2.59,1.51c0.21,0.37,0.41,0.74,0.62,1.11
				c0.79-0.61,1.57-1.21,2.36-1.82c-1.84-1.55-3.69-3.09-5.53-4.64c-0.95-0.8-1.91-1.6-2.86-2.4c-0.45-0.37-0.89-0.75-1.34-1.12
				c-0.25-0.21-0.51-0.43-0.76-0.64c-0.15-0.13-0.41-0.45-0.6-0.51c-0.02-0.06-0.05-0.08-0.08-0.06c0.07,0.25,0.02,0.48-0.13,0.7
				c0.06,0.02,0.53-0.56,0.6-0.62c0.37-0.39,0.75-0.77,1.14-1.14c0.79-0.78,1.6-1.55,2.43-2.29c1.64-1.49,3.35-2.9,5.11-4.23
				c0.65-0.49,0.98-1.3,0.54-2.05C20.7,74.08,19.67,73.68,19.02,74.17L19.02,74.17z"/>
		</g>
	</g>
</g>
<g>
	<g>
		<g>
			<path class="st1" d="M120.48,200.48c0.02-7.52,0.23-15.04,0.62-22.55c0.42-7.94,0.89-15.91,1.76-23.81
				c0.07-0.64,0.15-1.28,0.23-1.91c0.03-0.27-0.02,0.17,0.02-0.18c0.02-0.15,0.04-0.29,0.06-0.44c0.04-0.29,0.08-0.57,0.13-0.86
				c0.15-0.93,0.32-1.86,0.51-2.79c0.37-1.88,0.77-3.75,1.23-5.6c1.37-5.54,3.22-11.01,5.62-16.07c3.09-6.52,7.11-12.61,12.23-17.72
				c5.68-5.67,12.53-9.72,20.04-12.47c5.63-2.06,11.45-3.68,17.26-5.16c5.91-1.51,11.87-2.81,17.87-3.92
				c7.28-1.34,14.62-2.4,21.98-3.2c8.74-0.94,17.51-1.53,26.3-1.8c2.34-0.07,4.69-0.12,7.03-0.14c1.93-0.02,1.93-3.02,0-3
				c-9.23,0.11-18.46,0.55-27.65,1.38c-7.86,0.71-15.69,1.7-23.47,3c-6.41,1.07-12.79,2.35-19.11,3.86
				c-5.36,1.29-10.69,2.73-15.95,4.38c-3.88,1.22-7.72,2.6-11.39,4.35c-3.78,1.8-7.32,4.02-10.59,6.64
				c-6.03,4.83-10.96,10.97-14.75,17.69c-3.14,5.57-5.54,11.57-7.32,17.71c-1.14,3.95-2.09,8.01-2.73,12.07
				c-1.08,6.84-1.39,13.81-1.87,20.71c-0.58,8.4-0.92,16.81-1.03,25.23c-0.02,1.54-0.03,3.08-0.03,4.63
				C117.48,202.41,120.48,202.42,120.48,200.48L120.48,200.48z"/>
		</g>
	</g>
	<g>
		<g>
			<path class="st1" d="M110.52,190.23c1.13,1.97,2.26,3.94,3.39,5.91c0.56,0.97,1.11,1.93,1.67,2.9c0.53,0.92,1,1.94,1.64,2.78
				c0.78,1.02,2.18,1.21,3.15,0.31c0.66-0.61,1.12-1.52,1.59-2.28c0.91-1.47,1.76-2.97,2.74-4.4c1.02-1.48,2.24-2.89,3.75-3.87
				c0.68-0.44,0.96-1.33,0.54-2.05c-0.4-0.68-1.37-0.98-2.05-0.54c-3.6,2.33-5.55,6.14-7.77,9.67c-0.14,0.22-0.27,0.43-0.41,0.65
				c-0.11,0.18-0.37,0.43-0.42,0.63c0.25-0.35,0.66-0.34,1.23,0.03c0.07,0.1,0.06,0.07-0.03-0.08c-0.09-0.29-0.34-0.6-0.49-0.86
				c-0.66-1.15-1.32-2.29-1.98-3.44c-1.32-2.29-2.63-4.58-3.95-6.87C112.15,187.04,109.56,188.55,110.52,190.23L110.52,190.23z"/>
		</g>
	</g>
	<g>
		<g>
			<path class="st1" d="M249.52,71.03c0.14-0.78-0.08-1.49-0.81-1.88c-0.65-0.35-1.48-0.26-2.01,0.26
				c-1.22,1.18-0.07,2.53,0.74,3.49c1.52,1.79,3.1,3.53,4.74,5.22c0.82,0.84,1.65,1.67,2.5,2.49c0.21,0.2,0.41,0.45,0.65,0.62
				c0.04,0.05,0.09,0.1,0.13,0.14c-0.19-0.26-0.17-0.54,0.06-0.85c-0.16,0.03-0.48,0.42-0.61,0.53c-0.24,0.19-0.47,0.39-0.71,0.58
				c-1.75,1.4-3.6,2.68-5.5,3.86c-0.57,0.35-0.87,1.04-0.69,1.69c0.19,0.69,0.78,1.02,1.45,1.1c0.35,0.04,0.7,0.08,1.05,0.12
				c0.81,0.09,1.5-0.76,1.5-1.5c0-0.89-0.69-1.41-1.5-1.5c-0.35-0.04-0.7-0.08-1.05-0.12c0.25,0.93,0.5,1.86,0.76,2.8
				c1.75-1.09,3.45-2.27,5.09-3.53c0.82-0.63,1.78-1.25,2.46-2.04c0.9-1.06,0.64-2.36-0.24-3.33c-0.69-0.76-1.49-1.44-2.22-2.17
				c-0.75-0.75-1.48-1.51-2.21-2.28s-1.44-1.55-2.14-2.35c-0.36-0.41-0.72-0.82-1.08-1.24c-0.15-0.18-0.31-0.36-0.46-0.54
				c-0.02-0.02-0.35-0.54-0.29-0.3c0,0.27,0,0.53,0,0.8c0.01-0.05,0.02-0.1,0.02-0.15c-0.13,0.22-0.26,0.44-0.39,0.66
				c0.02-0.02,0.04-0.05,0.06-0.07c-0.22,0.13-0.44,0.26-0.66,0.39c-0.07,0.01-0.14,0.02-0.2,0.03c-0.25-0.07-0.5-0.14-0.76-0.2
				c0.03,0.01,0.06,0.03,0.09,0.04c-0.18-0.18-0.36-0.36-0.54-0.54c0.02,0.02,0.03,0.04,0.05,0.06c-0.05-0.39-0.1-0.77-0.15-1.16
				c-0.01,0.03-0.01,0.06-0.02,0.08c-0.14,0.8,0.22,1.62,1.05,1.85C248.4,72.28,249.38,71.83,249.52,71.03L249.52,71.03z"/>
		</g>
	</g>
</g>
<g>
	<path class="st2" d="M159.23,101.86c-0.89-0.26-3.88-1.15-4.77-4.08c-0.76-2.47,0.4-4.96,1.98-6.29c0.42-0.35,1.55-1.28,3.21-1.3
		c1.93-0.01,3.2,1.22,3.5,1.52c1.33,1.3,1.56,2.9,1.69,3.8c0.07,0.51,0.66,4.98-1.86,6.37
		C161.69,102.59,160.24,102.16,159.23,101.86z"/>
	<g>
		<path class="st1" d="M159.49,100.89c-1.55-0.46-3.17-1.28-3.91-2.93c-0.56-1.24-0.46-2.72,0.13-3.93
			c0.48-0.99,1.25-1.81,2.05-2.29c1.95-1.17,4.26-0.28,5.34,1.53c0.29,0.48,0.47,1,0.59,1.55c0.05,0.21,0.09,0.42,0.12,0.63
			c0.02,0.11,0.03,0.22,0.05,0.32c0.02,0.12-0.03-0.33-0.01-0.08c0.06,0.69,0.11,1.37,0.07,2.07c-0.05,0.9-0.23,1.96-0.79,2.69
			C162.22,101.62,160.72,101.25,159.49,100.89c-1.24-0.37-1.77,1.56-0.53,1.93c1.71,0.5,3.55,0.74,5.04-0.44
			c0.98-0.78,1.52-1.98,1.75-3.19c0.36-1.94,0.26-4.23-0.5-6.07c-1.17-2.83-4.44-4.73-7.45-3.59c-3,1.13-4.96,4.43-4.5,7.61
			c0.44,3.03,2.91,4.87,5.67,5.69C160.2,103.19,160.72,101.26,159.49,100.89z"/>
	</g>
</g>
</svg>
