<?xml version="1.0" encoding="utf-8"?>
<!-- Generator: Adobe Illustrator 23.1.1, SVG Export Plug-In . SVG Version: 6.00 Build 0)  -->
<svg version="1.1" id="Layer_1" xmlns="http://www.w3.org/2000/svg" xmlns:xlink="http://www.w3.org/1999/xlink" x="0px" y="0px"
	 viewBox="0 0 288 216" style="enable-background:new 0 0 288 216;" xml:space="preserve">
<style type="text/css">
	.st0{fill:#A7A9AC;}
	.st1{fill:#ED1C24;}
</style>
<g>
	<g>
		<g>
			<g>
				<path class="st0" d="M260.33,121.29c2.97-2.18,5.92-4.4,8.77-6.73c0.77-0.63,1.53-1.26,2.26-1.93c0.66-0.61,1.45-1.27,1.62-2.19
					c0.19-1.03-0.45-1.93-1.21-2.56c-1.03-0.85-2.22-1.47-3.4-2.09c-2.92-1.54-5.84-3.05-8.75-4.61c-1.13-0.61-2.14,1.12-1.01,1.73
					c2.32,1.25,4.65,2.48,6.98,3.7c1.28,0.67,2.59,1.31,3.82,2.07c0.39,0.24,0.79,0.49,1.13,0.8c0.07,0.07,0.34,0.34,0.31,0.3
					c0.06,0.08,0.11,0.16,0.15,0.25c-0.08-0.16,0.03,0.03,0.02,0.09c0.04-0.23-0.04,0.06-0.07,0.1c-0.1,0.11-0.2,0.22-0.31,0.33
					c-0.26,0.26-0.53,0.51-0.8,0.76c-0.67,0.61-1.36,1.19-2.06,1.77c-1.59,1.3-3.21,2.56-4.85,3.8c-1.2,0.91-2.41,1.82-3.63,2.71
					c-0.43,0.32-0.65,0.87-0.36,1.37C259.22,121.36,259.9,121.61,260.33,121.29L260.33,121.29z"/>
			</g>
		</g>
		<g>
			<g>
				<path class="st0" d="M35.04,94.61c-3.86,1.72-7.52,3.89-10.9,6.44c-0.77,0.58-1.73,1.16-2.32,1.92
					c-0.69,0.88-0.38,1.88,0.3,2.65c1.5,1.68,3.14,3.26,4.75,4.84c1.81,1.78,3.65,3.53,5.52,5.24c0.95,0.87,2.37-0.54,1.41-1.41
					c-2.99-2.73-5.89-5.56-8.71-8.46c-0.33-0.34-0.66-0.69-0.99-1.03c-0.16-0.17-0.34-0.34-0.5-0.52c-0.03-0.03-0.13-0.18-0.16-0.19
					c-0.11-0.04-0.03,0.09-0.04,0.1c0.34-0.18,0.67-0.57,0.97-0.81c0.38-0.3,0.76-0.59,1.15-0.88c1.54-1.14,3.14-2.21,4.78-3.19
					c1.86-1.1,3.78-2.09,5.75-2.97c0.49-0.22,0.61-0.94,0.36-1.37C36.11,94.46,35.54,94.39,35.04,94.61L35.04,94.61z"/>
			</g>
		</g>
		<g>
			<g>
				<path class="st0" d="M22.31,105.66c15.14,4.13,30.92,4.09,46.49,3.93c16.32-0.17,32.64-0.34,48.96-0.5
					c16.33-0.17,32.65-0.34,48.98-0.5c16.24-0.17,32.48-0.41,48.71-0.27c18.32,0.17,36.66,0.88,54.88,2.91c1.28,0.14,1.27-1.86,0-2
					c-32.26-3.59-64.77-3.04-97.16-2.71c-32.65,0.34-65.31,0.67-97.96,1.01c-17.49,0.18-35.33,0.85-52.37-3.79
					C21.6,103.39,21.07,105.32,22.31,105.66L22.31,105.66z"/>
			</g>
		</g>
	</g>
	<g>
		<g>
			<g>
				<path class="st0" d="M139.79,28.39c2.53-4.64,5.08-9.28,7.61-13.92c0.33-0.61,0.67-1.22,1-1.83c0.21-0.39,0.55-0.83,0.71-1.24
					c0.07-0.18,0.11,0,0.04-0.07c-0.06-0.01-0.12-0.01-0.18-0.02c0.07,0.04,0.13,0.1,0.18,0.16c0.16,0.27,0.35,0.53,0.51,0.8
					c0.43,0.71,0.86,1.42,1.29,2.13c0.9,1.49,1.81,2.98,2.71,4.48c2.02,3.34,4.05,6.68,6.07,10.02c0.67,1.1,2.4,0.1,1.73-1.01
					c-1.94-3.2-3.87-6.39-5.81-9.59c-0.95-1.56-1.89-3.13-2.84-4.69c-0.47-0.78-0.95-1.56-1.42-2.34c-0.39-0.64-0.78-1.35-1.47-1.72
					c-1.9-1-2.89,1.46-3.6,2.76c-1.01,1.85-2.02,3.69-3.03,5.54c-1.74,3.18-3.47,6.35-5.21,9.53
					C137.45,28.52,139.17,29.53,139.79,28.39L139.79,28.39z"/>
			</g>
		</g>
		<g>
			<g>
				<path class="st0" d="M141.04,195.26c1.79,4.25,3.94,8.34,6.53,12.16c0.6,0.88,1.18,1.89,1.92,2.66
					c0.82,0.84,1.95,0.73,2.71-0.14c0.8-0.92,1.49-1.96,2.22-2.94c0.71-0.96,1.42-1.93,2.11-2.9c1.61-2.25,3.17-4.52,4.69-6.83
					c0.71-1.08-1.02-2.08-1.73-1.01c-2.38,3.6-4.86,7.14-7.45,10.6c-0.29,0.38-0.57,0.76-0.86,1.15c-0.12,0.16-0.42,0.41-0.46,0.59
					c-0.02,0.02-0.04,0.05-0.07,0.07c0.1,0.02,0.2,0.03,0.29,0.05c0.01-0.02-0.09-0.1-0.1-0.12c-0.05-0.2-0.33-0.45-0.46-0.63
					c-0.13-0.18-0.26-0.36-0.39-0.55c-0.3-0.43-0.6-0.86-0.89-1.29c-1.13-1.68-2.18-3.42-3.15-5.2c-1.1-2.02-2.11-4.09-2.99-6.21
					c-0.21-0.5-0.66-0.85-1.23-0.7C141.27,194.15,140.83,194.75,141.04,195.26L141.04,195.26z"/>
			</g>
		</g>
		<g>
			<g>
				<path class="st0" d="M147.83,10.92c-0.4,25.67-0.57,51.34-0.49,77.02c0.08,25.55,0.39,51.09,0.95,76.63
					c0.31,14.41,0.7,28.81,1.17,43.22c0.04,1.28,2.04,1.29,2,0c-0.83-25.67-1.41-51.34-1.76-77.01
					c-0.34-25.54-0.45-51.09-0.31-76.63c0.08-14.41,0.23-28.82,0.45-43.22C149.85,9.63,147.85,9.63,147.83,10.92L147.83,10.92z"/>
			</g>
		</g>
	</g>
</g>
<g>
	<g>
		<g>
			<path class="st1" d="M233.8,50.61c2.04-0.18,4.09-0.36,6.13-0.53c0.98-0.09,1.96-0.17,2.94-0.26c0.49-0.04,0.98-0.09,1.47-0.13
				c0.22-0.02,0.45-0.05,0.67-0.06c0.12-0.01,0.24-0.01,0.36,0c-0.18,0-0.32-0.07-0.4-0.23c-0.24-0.1-0.13-0.31-0.11,0.11
				c0.01,0.23,0.03,0.45,0.03,0.68c0.02,0.49,0.02,0.99,0.01,1.48c-0.02,0.85-0.08,1.71-0.2,2.55c-0.26,1.88-0.77,3.72-1.46,5.49
				c-0.29,0.76,0.32,1.65,1.05,1.85c0.85,0.23,1.55-0.29,1.85-1.05c0.8-2.05,1.3-4.16,1.58-6.34c0.13-1.05,0.2-2.12,0.2-3.18
				c0-1.1,0.08-2.46-0.61-3.39c-0.76-1.03-1.95-1-3.09-0.9c-1.15,0.1-2.29,0.2-3.44,0.3c-2.33,0.2-4.66,0.41-6.99,0.61
				c-0.81,0.07-1.5,0.64-1.5,1.5C232.3,49.87,232.99,50.68,233.8,50.61L233.8,50.61z"/>
		</g>
	</g>
	<g>
		<g>
			<path class="st1" d="M164.71,173.71c-0.23-0.34-0.46-0.68-0.69-1.02c-0.79,0.61-1.57,1.21-2.36,1.82
				c1.78,1.69,3.56,3.37,5.34,5.05c0.89,0.84,1.78,1.68,2.67,2.52c0.88,0.83,1.77,1.88,3.09,1.8c1.39-0.08,2.13-1.51,2.87-2.5
				c0.74-0.98,1.48-1.96,2.21-2.95c1.48-1.96,2.95-3.93,4.43-5.89c0.49-0.65,0.1-1.68-0.54-2.05c-0.77-0.45-1.56-0.11-2.05,0.54
				c-1.33,1.77-2.66,3.53-3.98,5.3c-0.64,0.85-1.28,1.7-1.92,2.55c-0.3,0.39-0.59,0.79-0.89,1.18c-0.17,0.23-0.49,0.52-0.59,0.79
				c-0.01,0.01-0.02,0.03-0.03,0.04c-0.29,0.27-0.11,0.28,0.53,0.04c0.01-0.12-0.61-0.59-0.75-0.72c-0.39-0.36-0.77-0.73-1.16-1.09
				c-0.77-0.73-1.54-1.46-2.32-2.19c-1.6-1.51-3.2-3.03-4.8-4.55c-1.19-1.13-3.34,0.35-2.36,1.82c0.23,0.34,0.46,0.68,0.69,1.02
				c0.45,0.67,1.32,0.97,2.05,0.54C164.84,175.37,165.17,174.38,164.71,173.71L164.71,173.71z"/>
		</g>
	</g>
	<g>
		<g>
			<path class="st1" d="M173.3,180.84c-0.09-9.94,0.88-19.87,3.01-29.58c2.55-11.64,6.7-22.88,12.4-33.34
				c1.94-3.57,4.06-7.04,6.28-10.45c1.03-1.58,2.07-3.15,3.16-4.69c0.59-0.84,1.2-1.68,1.81-2.51c0.29-0.39,0.58-0.78,0.88-1.17
				c0.36-0.47,0.54-0.72,0.86-1.11c6.02-7.72,12.82-14.81,19.52-21.93c7.16-7.62,14.45-15.1,21.93-22.4
				c1.13-1.11,2.27-2.21,3.41-3.31c1.39-1.34-0.73-3.46-2.12-2.12c-7.82,7.54-15.47,15.26-22.94,23.16
				c-6.92,7.32-13.95,14.6-20.29,22.44c-5.02,6.19-9.51,12.83-13.49,19.74c-5.91,10.26-10.42,21.32-13.33,32.8
				c-2.58,10.2-3.93,20.73-4.08,31.25c-0.01,1.08-0.02,2.16-0.01,3.24C170.32,182.77,173.32,182.78,173.3,180.84L173.3,180.84z"/>
		</g>
	</g>
</g>
<g>
	<g>
		<g>
			<path class="st1" d="M166.98,41.02c-0.74,0.67-0.89,1.54-0.76,2.49c0.18,1.26,2.21,1.46,2.74,0.36
				c2.09-4.37,4.18-8.75,6.27-13.12c0.12-0.26,0.25-0.52,0.37-0.78c0.07-0.15,0.32-0.46,0.32-0.62c-0.01,0.5-1.75-0.67-1.27,0.16
				c0.14,0.24,0.27,0.47,0.39,0.71c0.47,0.87,0.91,1.76,1.34,2.65c0.87,1.81,1.7,3.65,2.66,5.42c1.1,2.04,2.4,3.98,4.01,5.65
				c1.34,1.39,3.46-0.73,2.12-2.12c-3.02-3.13-4.64-7.26-6.52-11.11c-0.47-0.97-0.94-1.96-1.51-2.87c-0.79-1.25-2.34-1.63-3.43-0.51
				c-0.4,0.41-0.62,0.94-0.86,1.45c-0.3,0.63-0.6,1.26-0.9,1.89c-0.57,1.19-1.13,2.37-1.7,3.56c-1.29,2.71-2.59,5.41-3.88,8.12
				c0.91,0.12,1.83,0.24,2.74,0.36c0.07,0.17,0.05,0.31-0.06,0.43c-0.11,0.16-0.1,0.16,0.05,0.01c0.6-0.54,0.55-1.57,0-2.12
				C168.51,40.42,167.58,40.47,166.98,41.02L166.98,41.02z"/>
		</g>
	</g>
	<g>
		<g>
			<path class="st1" d="M71.92,168.11c-1.13,4.43-2.26,8.86-3.39,13.28c-0.28,1.09-0.8,2.35-0.59,3.49
				c0.19,1.05,0.95,1.78,1.93,2.14c0.79,0.29,1.66,0.28,2.49,0.24c1.07-0.05,2.15-0.06,3.22-0.02c2.45,0.09,4.87,0.46,7.26,1.05
				c0.68,0.17,1.32-0.12,1.69-0.69c0.23-0.35,0.46-0.7,0.7-1.05c0.45-0.67,0.13-1.66-0.54-2.05c-0.73-0.43-1.6-0.14-2.05,0.54
				c-0.23,0.35-0.46,0.7-0.7,1.05c0.56-0.23,1.13-0.46,1.69-0.69c-2.02-0.51-4.08-0.85-6.15-1.04c-1.93-0.17-3.82-0.09-5.75-0.08
				c-0.16,0-0.32,0-0.48-0.01c-0.18-0.01-0.03,0,0,0.01c-0.08-0.01-0.15-0.03-0.23-0.05c-0.07-0.02-0.15-0.04-0.22-0.06
				c0.02,0,0.19,0.08,0.02,0.01c-0.2-0.08,0.04,0.04,0.02,0.04c-0.03-0.03-0.06-0.06-0.1-0.09c0.03,0.03,0.05,0.05,0.08,0.08
				c-0.01,0.01,0.02,0.07,0.06,0.04c0.02-0.01,0.06-0.2,0.05-0.16c0.09-0.22,0.12-0.48,0.18-0.71c0.13-0.52,0.27-1.04,0.4-1.56
				c0.51-1.99,1.02-3.99,1.53-5.98c0.59-2.31,1.18-4.63,1.77-6.94C75.3,167.04,72.4,166.24,71.92,168.11L71.92,168.11z"/>
		</g>
	</g>
	<g>
		<g>
			<path class="st1" d="M173.92,32.15c0.41,12.29-0.39,24.62-2.43,36.75c-1.18,7.01-2.5,14.06-4.79,20.81
				c-2.17,6.4-5.25,12.46-9.08,18.02c-6.63,9.62-15.49,17.32-24.23,24.96c-10.92,9.55-22.08,18.82-33.44,27.85
				c-8.84,7.03-17.8,13.91-26.87,20.66c-0.88,0.65-1.76,1.3-2.63,1.95c-0.65,0.48-0.98,1.3-0.54,2.05c0.38,0.64,1.4,1.02,2.05,0.54
				c8.86-6.55,17.62-13.23,26.28-20.04c11.27-8.87,22.36-17.98,33.22-27.36c9.25-7.99,18.78-15.94,26.26-25.68
				c3.94-5.13,7.24-10.71,9.77-16.66c2.89-6.81,4.63-13.93,5.98-21.19c2.41-12.95,3.74-26.04,3.54-39.22
				c-0.02-1.14-0.05-2.28-0.08-3.42C176.86,30.23,173.86,30.22,173.92,32.15L173.92,32.15z"/>
		</g>
	</g>
</g>
<g>
	<g>
		<g>
			<path d="M275.92,17.31c-3.71,3.61-7.41,7.22-11.12,10.84c-0.46,0.45,0.25,1.16,0.71,0.71c3.71-3.61,7.41-7.22,11.12-10.84
				C277.09,17.57,276.38,16.86,275.92,17.31L275.92,17.31z"/>
		</g>
	</g>
	<g>
		<g>
			<path d="M255.09,37.53c-3.69,2.13-7.16,4.65-10.34,7.49c-0.48,0.43,0.23,1.13,0.71,0.71c3.12-2.79,6.52-5.24,10.14-7.33
				C256.15,38.08,255.65,37.21,255.09,37.53L255.09,37.53z"/>
		</g>
	</g>
	<g>
		<g>
			<path d="M234.75,54.44c-3.54,3.78-7.32,7.33-11.32,10.62c-0.5,0.41,0.21,1.11,0.71,0.71c4-3.29,7.78-6.83,11.32-10.62
				C235.9,54.68,235.2,53.97,234.75,54.44L234.75,54.44z"/>
		</g>
	</g>
	<g>
		<g>
			<path d="M214.32,73.71c-3.66,3.66-7.32,7.32-10.98,10.98c-0.46,0.46,0.25,1.16,0.71,0.71c3.66-3.66,7.32-7.32,10.98-10.98
				C215.48,73.96,214.77,73.26,214.32,73.71L214.32,73.71z"/>
		</g>
	</g>
	<g>
		<g>
			<path d="M191.66,96.52c-4.32,2.64-8.17,6.01-11.35,9.96c-0.4,0.5,0.3,1.21,0.71,0.71c3.13-3.88,6.89-7.2,11.14-9.8
				C192.72,97.05,192.21,96.19,191.66,96.52L191.66,96.52z"/>
		</g>
	</g>
	<g>
		<g>
			<path d="M170.51,115.05c-4.47,3.12-8.56,6.75-12.17,10.83c-0.43,0.48,0.28,1.19,0.71,0.71c3.56-4.01,7.58-7.6,11.97-10.67
				C171.54,115.55,171.04,114.68,170.51,115.05L170.51,115.05z"/>
		</g>
	</g>
	<g>
		<g>
			<path d="M148.57,133.67c-4.18,2.46-8.22,5.15-12.11,8.05c-0.51,0.38-0.01,1.25,0.5,0.86c3.89-2.9,7.93-5.59,12.11-8.05
				C149.63,134.21,149.13,133.34,148.57,133.67L148.57,133.67z"/>
		</g>
	</g>
	<g>
		<g>
			<path d="M123.86,151.33c-4.42,3.49-8.83,6.98-13.25,10.47c-0.5,0.4,0.21,1.1,0.71,0.71c4.42-3.49,8.83-6.98,13.25-10.47
				C125.07,151.64,124.36,150.93,123.86,151.33L123.86,151.33z"/>
		</g>
	</g>
	<g>
		<g>
			<path d="M96.82,169.06c-4.21,3.39-8.42,6.79-12.63,10.18c-0.5,0.4,0.21,1.11,0.71,0.71c4.21-3.39,8.42-6.79,12.63-10.18
				C98.03,169.36,97.32,168.66,96.82,169.06L96.82,169.06z"/>
		</g>
	</g>
	<g>
		<g>
			<path d="M74.97,186.72c-4.52,3.24-9.28,6.13-14.24,8.65c-0.57,0.29-0.07,1.15,0.5,0.86c4.96-2.52,9.72-5.41,14.24-8.65
				C76,187.21,75.5,186.34,74.97,186.72L74.97,186.72z"/>
		</g>
	</g>
	<g>
		<g>
			<path d="M55.28,199.93c-2.38,2.17-5.16,3.89-8.17,5.06c-0.59,0.23-0.34,1.2,0.27,0.96c3.18-1.23,6.09-3.02,8.61-5.32
				C56.46,200.2,55.75,199.5,55.28,199.93L55.28,199.93z"/>
		</g>
	</g>
</g>
</svg>
