<?xml version="1.0" encoding="utf-8"?>
<!-- Generator: Adobe Illustrator 23.1.1, SVG Export Plug-In . SVG Version: 6.00 Build 0)  -->
<svg version="1.1" id="Layer_1" xmlns="http://www.w3.org/2000/svg" xmlns:xlink="http://www.w3.org/1999/xlink" x="0px" y="0px"
	 viewBox="0 0 288 216" style="enable-background:new 0 0 288 216;" xml:space="preserve">
<style type="text/css">
	.st0{fill:#A7A9AC;}
	.st1{fill:#ED1C24;}
</style>
<g>
	<g>
		<g>
			<g>
				<path class="st0" d="M250.66,154.1c4.75-4.19,9.34-8.55,13.77-13.08c0.46-0.47,1.06-0.95,1.28-1.59
					c0.25-0.71,0.01-1.42-0.54-1.92c-0.41-0.37-0.84-0.65-1.26-1.14c-1-1.17-2.13-2.04-3.46-2.83c-2.62-1.55-5.41-2.81-8.27-3.85
					c-1.21-0.44-1.73,1.49-0.53,1.93c2.31,0.84,4.55,1.84,6.69,3.02c1.4,0.77,2.8,1.53,3.83,2.75c0.29,0.34,0.57,0.69,0.91,0.99
					c0.13,0.12,0.69,0.61,0.74,0.59c-0.1,0.05,0.22-0.07,0.01-0.09c0-0.04-0.01-0.07-0.01-0.11c-0.1,0.11-0.2,0.21-0.3,0.31
					c-0.28,0.29-0.56,0.58-0.84,0.86c-2.03,2.06-4.09,4.09-6.18,6.09c-2.38,2.26-4.8,4.48-7.26,6.65
					C248.28,153.54,249.7,154.95,250.66,154.1L250.66,154.1z"/>
			</g>
		</g>
		<g>
			<g>
				<path class="st0" d="M29.16,124.56c-3.86,1.72-7.52,3.89-10.9,6.44c-0.77,0.58-1.73,1.16-2.32,1.92
					c-0.69,0.88-0.38,1.88,0.3,2.65c1.5,1.68,3.14,3.26,4.75,4.84c1.81,1.78,3.65,3.53,5.52,5.24c0.95,0.87,2.37-0.54,1.41-1.41
					c-2.99-2.73-5.89-5.56-8.71-8.46c-0.33-0.34-0.66-0.69-0.99-1.03c-0.16-0.17-0.34-0.34-0.5-0.52c-0.03-0.03-0.13-0.18-0.16-0.19
					c-0.11-0.04-0.03,0.09-0.04,0.1c0.34-0.18,0.67-0.57,0.97-0.81c0.38-0.3,0.76-0.59,1.15-0.88c1.54-1.14,3.14-2.21,4.78-3.19
					c1.86-1.1,3.78-2.09,5.75-2.97c0.49-0.22,0.61-0.94,0.36-1.37C30.23,124.41,29.66,124.34,29.16,124.56L29.16,124.56z"/>
			</g>
		</g>
		<g>
			<g>
				<path class="st0" d="M16.45,134.39c14.57,5.33,30.18,5.37,45.49,5.07c16.43-0.32,32.87-0.65,49.3-0.98
					c16.3-0.32,32.61-0.65,48.91-0.97c16.31-0.32,32.63-0.76,48.94-0.66c18.29,0.11,36.6,0.95,54.71,3.59
					c1.26,0.18,1.8-1.74,0.53-1.93c-32.21-4.69-64.83-3.78-97.27-3.14c-32.77,0.65-65.55,1.3-98.32,1.95
					c-17.36,0.34-35.19,1.2-51.77-4.86C15.77,132.02,15.25,133.95,16.45,134.39L16.45,134.39z"/>
			</g>
		</g>
	</g>
	<g>
		<g>
			<g>
				<path class="st0" d="M205.65,29.37c1.86-5.56,4.1-10.98,6.73-16.22c0.64-1.27,1.29-2.52,1.97-3.77
					c0.34-0.62,0.67-1.25,1.03-1.85c0.04-0.07,0.24-0.4,0.2-0.32c-0.15,0.31-0.19-0.26-0.06,0.08c0.04,0.12,0.2,0.25,0.27,0.36
					c1.66,2.62,3.22,5.31,4.82,7.96c1.85,3.05,3.7,6.11,5.55,9.16c0.36,0.59,1.4,0.71,1.73,0c0.37-0.81,0.74-1.63,1.12-2.44
					c0.22-0.49,0.14-1.08-0.36-1.37c-0.43-0.25-1.14-0.13-1.37,0.36c-0.37,0.81-0.74,1.63-1.12,2.44c0.58,0,1.15,0,1.73,0
					c-1.79-2.95-3.57-5.9-5.36-8.84c-0.88-1.46-1.76-2.91-2.65-4.37c-0.86-1.42-1.64-2.95-2.62-4.28c-0.9-1.22-2.38-1.42-3.34-0.14
					c-0.89,1.19-1.53,2.65-2.22,3.96c-1.47,2.79-2.82,5.64-4.07,8.53c-1.45,3.35-2.75,6.76-3.91,10.22
					C203.31,30.06,205.24,30.59,205.65,29.37L205.65,29.37z"/>
			</g>
		</g>
		<g>
			<g>
				<path class="st0" d="M207.49,191.13c1.79,4.25,3.94,8.34,6.53,12.16c0.6,0.88,1.18,1.89,1.92,2.66
					c0.82,0.84,1.95,0.73,2.71-0.14c0.8-0.92,1.49-1.96,2.22-2.94c0.71-0.96,1.42-1.93,2.11-2.9c1.61-2.25,3.17-4.52,4.69-6.83
					c0.71-1.08-1.02-2.08-1.73-1.01c-2.38,3.6-4.86,7.14-7.45,10.6c-0.29,0.38-0.57,0.76-0.86,1.15c-0.12,0.16-0.42,0.41-0.46,0.59
					c-0.02,0.02-0.04,0.05-0.07,0.07c0.1,0.02,0.2,0.03,0.29,0.05c0.01-0.02-0.09-0.1-0.1-0.12c-0.05-0.2-0.33-0.45-0.46-0.63
					c-0.13-0.18-0.26-0.36-0.39-0.55c-0.3-0.43-0.6-0.86-0.89-1.29c-1.13-1.68-2.18-3.42-3.15-5.2c-1.1-2.02-2.11-4.09-2.99-6.21
					c-0.21-0.5-0.66-0.85-1.23-0.7C207.72,190.03,207.28,190.63,207.49,191.13L207.49,191.13z"/>
			</g>
		</g>
		<g>
			<g>
				<path class="st0" d="M214.28,6.8c-0.4,25.67-0.57,51.34-0.49,77.02c0.08,25.55,0.39,51.09,0.95,76.63
					c0.31,14.41,0.7,28.81,1.17,43.22c0.04,1.28,2.04,1.29,2,0c-0.83-25.67-1.41-51.34-1.76-77.01
					c-0.34-25.54-0.45-51.09-0.31-76.63c0.08-14.41,0.23-28.81,0.45-43.22C216.3,5.51,214.3,5.51,214.28,6.8L214.28,6.8z"/>
			</g>
		</g>
	</g>
</g>
<g>
	<g>
		<g>
			<g>
				<path class="st1" d="M32.39,23.7c1.71,6.96,3.54,13.9,5.52,20.79c2.45,8.55,5.1,17.03,8.02,25.43
					c3.25,9.36,6.82,18.6,10.82,27.67c3.4,7.72,7.01,15.46,11.46,22.65c4.01,6.48,9.01,13.01,15.85,16.69
					c3.7,2,7.82,2.94,12.03,2.69c1.83-0.11,3.68-0.38,5.45-0.88c1.61-0.45,3.16-1.23,4.6-2.07c8.09-4.71,12.95-13.05,15.85-21.7
					c1.39-4.15,2.33-8.44,2.87-12.78c0.35-2.87,0.41-5.72,0.45-8.61c0.13-8.73,0.26-17.47,0.36-26.2
					c0.12-10.11,0.2-20.22,0.23-30.33c0.01-2.7,0.01-5.41,0.01-8.11c0-1.93-3-1.93-3,0c0,10.35-0.06,20.7-0.17,31.04
					c-0.09,8.96-0.21,17.91-0.34,26.87c-0.05,3.56-0.04,7.13-0.17,10.69c-0.05,1.31-0.15,2.62-0.3,3.92
					c-0.11,0.97-0.17,1.43-0.33,2.41c-0.15,0.95-0.32,1.89-0.51,2.83c-1.77,8.63-5.13,17.49-11.61,23.69
					c-2.47,2.36-5.57,4.59-8.9,5.5c-3.63,0.99-7.57,1.11-11.25,0.03c-1.72-0.51-3.04-1.11-4.63-2.05c-1.59-0.94-2.86-1.89-4.2-3.08
					c-2.81-2.48-5.18-5.34-7.28-8.34c-4.54-6.48-8.05-13.66-11.38-20.81c-4.09-8.78-7.73-17.77-11.04-26.88
					c-3.09-8.51-5.9-17.11-8.48-25.79c-2.15-7.21-4.13-14.46-5.98-21.75c-0.37-1.44-0.73-2.89-1.08-4.33
					C34.82,21.03,31.93,21.82,32.39,23.7L32.39,23.7z"/>
			</g>
		</g>
		<g>
			<g>
				<path class="st1" d="M26.33,40.43c2.76-6.94,5.71-13.8,8.88-20.56c-0.79,0.1-1.57,0.2-2.36,0.3c3.96,5.12,8.73,9.62,14.22,13.08
					c1.64,1.03,3.15-1.56,1.51-2.59c-5.28-3.32-9.81-7.69-13.62-12.61c-0.56-0.73-1.98-0.5-2.36,0.3c-3.27,7-6.33,14.1-9.18,21.28
					c-0.3,0.75,0.33,1.65,1.05,1.85C25.33,41.71,26.03,41.18,26.33,40.43L26.33,40.43z"/>
			</g>
		</g>
		<g>
			<g>
				<path class="st1" d="M112.51,36.32c-0.38,0.29-0.75,0.58-1.13,0.87c0.71,0.71,1.41,1.41,2.12,2.12
					c4.67-3.99,8.79-8.58,12.3-13.62c-0.86,0-1.73,0-2.59,0c3.54,4.99,7.54,9.64,11.98,13.85c1.4,1.33,3.53-0.79,2.12-2.12
					c-4.25-4.03-8.12-8.46-11.51-13.25c-0.68-0.95-1.92-0.97-2.59,0c-3.36,4.83-7.36,9.19-11.83,13.01c-0.62,0.53-0.54,1.58,0,2.12
					c0.63,0.63,1.48,0.5,2.12,0c0.38-0.29,0.75-0.58,1.13-0.87c0.64-0.5,0.52-1.6,0-2.12C114,35.69,113.15,35.83,112.51,36.32
					L112.51,36.32z"/>
			</g>
		</g>
	</g>
	<g>
		<g>
			<g>
				<path class="st1" d="M127.11,210.89c0.08-12.62,0.69-25.27,2.13-37.81c0.49-4.28,1.07-8.64,2.2-12.93
					c0.34-1.29,0.74-2.56,1.23-3.8c0.06-0.14,0.11-0.28,0.17-0.42c-0.2,0.49-0.03,0.07,0.02-0.04c0.11-0.26,0.23-0.51,0.35-0.76
					c0.22-0.45,0.45-0.89,0.69-1.33c0.82-1.47,1.88-3.15,2.78-4.24c0.36-0.44,0.74-0.87,1.15-1.28c0.39-0.4,0.97-0.91,1.25-1.12
					c1.03-0.76,1.83-1.13,2.99-1.39c0.91-0.21,1.9-0.08,2.92,0.27c0.43,0.15,0.74,0.29,1.27,0.6c0.26,0.15,0.51,0.32,0.76,0.49
					c0.1,0.07,0.21,0.15,0.31,0.22c0.08,0.06,0.08,0.06,0,0c0.08,0.06,0.16,0.13,0.23,0.19c0.87,0.73,1.66,1.56,2.38,2.43
					c0.09,0.11,0.18,0.22,0.27,0.33c0.28,0.35-0.1-0.13,0.06,0.08c0.15,0.19,0.29,0.39,0.43,0.59c0.28,0.39,0.55,0.79,0.81,1.2
					c0.57,0.89,1.12,1.8,1.59,2.74c0.1,0.2,0.19,0.39,0.29,0.59c0.04,0.1,0.09,0.19,0.13,0.29c0.03,0.08,0.22,0.52,0.11,0.24
					c-0.12-0.29,0.05,0.13,0.08,0.2c0.04,0.11,0.09,0.22,0.13,0.33c0.11,0.28,0.21,0.57,0.31,0.86c1.17,3.4,1.78,7,2.29,10.55
					c0.78,5.46,1.27,11.45,1.63,17.15c0.4,6.37,0.61,12.75,0.63,19.13c0.01,1.78,0,3.56-0.02,5.34c-0.02,1.93,2.98,1.93,3,0
					c0.16-12.96-0.33-26.01-1.88-38.88c-0.76-6.34-1.58-13.12-4.88-18.73c-2.17-3.69-5.13-7.64-9.41-8.94
					c-5.54-1.68-10.03,2.65-12.8,6.91c-1.42,2.19-2.61,4.49-3.45,6.97c-1.21,3.56-1.85,7.31-2.38,11.02
					c-1.77,12.35-2.46,24.93-2.71,37.4c-0.04,1.85-0.06,3.7-0.07,5.56C124.1,212.82,127.1,212.82,127.11,210.89L127.11,210.89z"/>
			</g>
		</g>
		<g>
			<g>
				<path class="st1" d="M117.33,203.85c1.32,2.19,2.64,4.39,3.97,6.58c0.58,0.96,1.17,1.91,2.22,2.4c1.03,0.48,2.15,0.54,3.26,0.35
					c2.15-0.36,3.65-1.86,4.79-3.64c1.32-2.07,2.64-4.14,4.05-6.15c0.46-0.66,0.12-1.67-0.54-2.05c-0.75-0.44-1.59-0.13-2.05,0.54
					c-1.26,1.8-2.47,3.62-3.63,5.48c-0.8,1.28-1.58,2.53-3.05,2.86c-0.55,0.12-1.24,0.13-1.61-0.13c-0.62-0.43-0.98-1.38-1.36-2.02
					c-1.15-1.91-2.3-3.82-3.45-5.73C118.92,200.68,116.33,202.19,117.33,203.85L117.33,203.85z"/>
			</g>
		</g>
		<g>
			<g>
				<path class="st1" d="M152.66,200.24c-1.32-0.12-2.09,1.25-1.81,2.41c0.11,0.46,0.43,0.87,0.69,1.26c0.3,0.46,0.61,0.9,0.94,1.34
					c1.23,1.67,2.57,3.25,4.05,4.71c1.39,1.38,3.57,2.92,5.5,1.51c0.85-0.62,1.41-1.68,2.01-2.53c0.63-0.9,1.27-1.8,1.9-2.7
					c0.7-1,1.43-1.99,2.11-3c0.74-1.09,0.95-2.45-0.05-3.46c-1.36-1.37-3.49,0.75-2.12,2.12c0.32,0.32-0.32-0.54-0.14-0.63
					c-0.1,0.05-0.27,0.45-0.35,0.56c-0.28,0.4-0.56,0.8-0.85,1.2c-0.59,0.83-1.17,1.67-1.76,2.5c-0.56,0.8-1.13,1.6-1.69,2.4
					c-0.25,0.35-0.49,0.83-0.8,1.13c0.01-0.01,0.12-0.07,0.12-0.06c-0.18,0.06-0.23,0.07-0.13,0.02c0.07,0.02,0.05,0.02-0.05-0.01
					c-0.67-0.14-1.19-0.77-1.67-1.25c-0.64-0.64-1.26-1.3-1.86-1.99c-0.55-0.63-1.08-1.28-1.57-1.95c-0.26-0.35-0.51-0.71-0.76-1.07
					c-0.14-0.21-0.28-0.42-0.42-0.63c-0.06-0.09-0.12-0.18-0.18-0.27c-0.27-0.52-0.37-0.2-0.29,0.97c-0.22,0.13-0.44,0.26-0.66,0.39
					c-0.05,0.01-0.11,0.02-0.16,0.03c0.81,0.07,1.5-0.74,1.5-1.5C154.16,200.87,153.47,200.32,152.66,200.24L152.66,200.24z"/>
			</g>
		</g>
	</g>
	<g>
		<g>
			<g>
				<path class="st1" d="M162.39,20.67c0.11,12.45,0.22,24.9,0.33,37.35c0.06,6.22,0.11,12.45,0.17,18.67
					c0.05,5.58,0.04,11.17,0.32,16.74c0.53,10.47,2.18,21.28,7.87,30.31c2.7,4.29,6.32,8.16,10.83,10.55
					c4.89,2.59,10.48,3.2,15.9,2.37c7.07-1.08,13.7-4.79,18.92-9.59c5.96-5.48,10.11-12.51,13.48-19.8
					c3.27-7.07,5.9-14.42,8.22-21.85c2.36-7.56,4.39-15.21,6.22-22.92c1.54-6.5,2.93-13.04,4.19-19.6c0.75-3.91,1.46-7.83,2.1-11.77
					c0.06-0.4,0.13-0.79,0.19-1.19c0.13-0.8-0.2-1.61-1.05-1.85c-0.71-0.2-1.72,0.24-1.85,1.05c-0.47,3.03-1,6.04-1.56,9.06
					c-1.08,5.92-2.28,11.82-3.59,17.69c-1.65,7.41-3.48,14.78-5.57,22.08c-2.15,7.51-4.56,14.95-7.49,22.19
					c-0.69,1.72-1.28,3.08-2.08,4.86c-0.72,1.58-1.47,3.14-2.26,4.68c-1.55,3.02-3.27,5.97-5.27,8.71c-1.5,2.06-3.18,3.99-5.01,5.76
					c-0.79,0.76-1.6,1.49-2.45,2.19c-0.77,0.64-1.25,1.01-2.1,1.6c-1.89,1.34-3.9,2.46-6.01,3.43c-4.51,2.08-9.59,3.07-14.54,2.44
					c-4.88-0.61-9.21-3.01-12.63-6.49c-7.09-7.22-9.93-17.57-10.98-27.38c-0.56-5.21-0.69-10.45-0.75-15.68
					c-0.07-5.98-0.11-11.97-0.16-17.95c-0.11-12.24-0.22-24.48-0.33-36.73c-0.03-2.99-0.05-5.98-0.08-8.96
					C165.37,18.74,162.37,18.74,162.39,20.67L162.39,20.67z"/>
			</g>
		</g>
		<g>
			<g>
				<path class="st1" d="M155.4,30.28c1.61-1.14,2.63-2.73,3.43-4.51c0.74-1.63,1.32-3.39,2.6-4.68c0.56-0.56,1.22-1.03,1.92-1.21
					c0.24-0.06,0.18-0.05,0.37-0.06c0.19-0.01,0.31,0,0.38,0.02c0.35,0.07,0.63,0.2,0.9,0.42c0.74,0.59,1.24,1.48,1.76,2.25
					c0.67,0.99,1.34,1.99,2.01,2.98c1.55,2.3,3.1,4.59,4.65,6.89c0.45,0.67,1.32,0.97,2.05,0.54c0.67-0.39,0.99-1.38,0.54-2.05
					c-1.48-2.19-2.96-4.39-4.44-6.58c-0.74-1.1-1.48-2.19-2.22-3.29c-0.62-0.92-1.22-1.89-2.02-2.66c-1.74-1.67-4.14-1.9-6.23-0.75
					c-1.93,1.06-3.22,2.93-4.09,4.89c-0.81,1.82-1.55,4.1-3.14,5.22c-0.66,0.47-0.97,1.31-0.54,2.05
					C153.73,30.39,154.74,30.75,155.4,30.28L155.4,30.28z"/>
			</g>
		</g>
		<g>
			<g>
				<path class="st1" d="M241.77,39.25c2.42-3.8,4.82-7.6,7.25-11.39c0.07-0.11,0.48-0.61,0.48-0.66c0-0.01-0.09,0-0.09,0
					c-0.15-0.06-0.3-0.12-0.45-0.18c0.04,0.04,0.08,0.08,0.11,0.12c0-0.02,0.18,0.32,0.25,0.43c0.58,0.95,1.17,1.89,1.75,2.84
					c1.17,1.89,2.33,3.79,3.5,5.68c1.34,2.18,2.68,4.35,4.02,6.53c1.01,1.64,3.61,0.14,2.59-1.51c-2.61-4.25-5.23-8.49-7.84-12.74
					c-0.63-1.02-1.2-2.11-1.92-3.07c-0.8-1.07-2.14-1.41-3.33-0.74c-1.05,0.6-1.64,1.75-2.26,2.73c-0.69,1.09-1.39,2.18-2.08,3.27
					c-1.52,2.39-3.04,4.78-4.56,7.17c-0.44,0.68-0.14,1.65,0.54,2.05C240.44,40.22,241.34,39.94,241.77,39.25L241.77,39.25z"/>
			</g>
		</g>
	</g>
</g>
<g>
	<g>
		<g>
			<path d="M31.74,4.96C32.09,7.2,33.1,9.3,34.62,11c0.43,0.48,1.13-0.23,0.71-0.71c-1.4-1.57-2.3-3.52-2.62-5.6
				c-0.04-0.27-0.38-0.41-0.62-0.35C31.8,4.42,31.7,4.69,31.74,4.96L31.74,4.96z"/>
		</g>
	</g>
	<g>
		<g>
			<path d="M37,16.51c-0.59,2.77-0.03,5.71,1.59,8.04c0.37,0.52,1.23,0.02,0.86-0.5c-1.47-2.1-2.03-4.75-1.49-7.27
				C38.1,16.15,37.13,15.88,37,16.51L37,16.51z"/>
		</g>
	</g>
	<g>
		<g>
			<path d="M42.05,31.83c0.24,3.89,1.72,7.59,4.21,10.58c0.41,0.5,1.12-0.22,0.71-0.71c-2.31-2.78-3.69-6.27-3.91-9.87
				C43.01,31.19,42.01,31.18,42.05,31.83L42.05,31.83z"/>
		</g>
	</g>
	<g>
		<g>
			<path d="M48,51.49c1.63,2.55,2.74,5.37,3.3,8.34c0.12,0.63,1.08,0.36,0.96-0.27c-0.58-3.05-1.73-5.97-3.4-8.58
				C48.52,50.45,47.65,50.95,48,51.49L48,51.49z"/>
		</g>
	</g>
	<g>
		<g>
			<path d="M53.92,71.65c0.84,4.03,2.54,7.84,4.99,11.15c0.38,0.51,1.25,0.01,0.86-0.5c-2.4-3.24-4.07-6.95-4.89-10.91
				C54.76,70.75,53.79,71.02,53.92,71.65L53.92,71.65z"/>
		</g>
	</g>
	<g>
		<g>
			<path d="M63.03,94.68c1.41,2.25,2.82,4.5,4.22,6.76c0.34,0.54,1.21,0.04,0.86-0.5c-1.41-2.25-2.82-4.5-4.22-6.76
				C63.56,93.63,62.69,94.13,63.03,94.68L63.03,94.68z"/>
		</g>
	</g>
	<g>
		<g>
			<path d="M70.8,106.41c1.31,2.62,3.44,4.81,6.01,6.21c0.57,0.31,1.07-0.56,0.5-0.86c-2.44-1.32-4.41-3.37-5.65-5.85
				C71.38,105.32,70.51,105.83,70.8,106.41L70.8,106.41z"/>
		</g>
	</g>
	<g>
		<g>
			<path d="M252.28,3.42c-2.53,2.55-3.46,6.49-2.31,9.9c0.21,0.61,1.17,0.35,0.96-0.27c-1.04-3.08-0.25-6.61,2.05-8.93
				C253.44,3.67,252.73,2.96,252.28,3.42L252.28,3.42z"/>
		</g>
	</g>
	<g>
		<g>
			<path d="M247.38,22.33c-2.07,3.01-3.03,6.71-2.68,10.35c0.06,0.63,1.06,0.64,1,0c-0.34-3.48,0.56-6.96,2.54-9.84
				C248.61,22.31,247.74,21.81,247.38,22.33L247.38,22.33z"/>
		</g>
	</g>
	<g>
		<g>
			<path d="M242.88,44.32c-0.83,2.54-1.66,5.08-2.49,7.62c-0.2,0.61,0.77,0.88,0.96,0.27c0.83-2.54,1.66-5.08,2.49-7.62
				C244.05,43.97,243.08,43.71,242.88,44.32L242.88,44.32z"/>
		</g>
	</g>
	<g>
		<g>
			<path d="M238.12,62.89c-1.91,3.1-3.17,6.57-3.7,10.17c-0.09,0.63,0.87,0.9,0.96,0.27c0.52-3.53,1.73-6.9,3.6-9.93
				C239.32,62.84,238.45,62.34,238.12,62.89L238.12,62.89z"/>
		</g>
	</g>
	<g>
		<g>
			<path d="M233,83.25c-0.67,2.26-2.14,4.25-4.11,5.55c-0.53,0.35-0.03,1.22,0.5,0.86c2.19-1.44,3.82-3.63,4.57-6.15
				C234.15,82.9,233.18,82.63,233,83.25L233,83.25z"/>
		</g>
	</g>
	<g>
		<g>
			<path d="M223.68,98.98c-1.97,1.69-3.94,3.38-5.92,5.07c-0.49,0.42,0.22,1.12,0.71,0.71c1.97-1.69,3.94-3.38,5.92-5.07
				C224.88,99.27,224.17,98.56,223.68,98.98L223.68,98.98z"/>
		</g>
	</g>
	<g>
		<g>
			<path d="M211.06,110.87c-1.71,2.18-3.95,3.92-6.51,4.99c-0.25,0.11-0.42,0.33-0.35,0.62c0.06,0.24,0.37,0.45,0.62,0.35
				c2.72-1.14,5.12-2.93,6.95-5.25c0.17-0.21,0.2-0.5,0-0.71C211.6,110.7,211.23,110.66,211.06,110.87L211.06,110.87z"/>
		</g>
	</g>
	<g>
		<g>
			<path d="M198.51,121.79c-2.26,1.4-4.52,2.8-6.77,4.2c-0.55,0.34-0.04,1.2,0.5,0.86c2.26-1.4,4.52-2.8,6.77-4.2
				C199.56,122.32,199.06,121.45,198.51,121.79L198.51,121.79z"/>
		</g>
	</g>
	<g>
		<g>
			<path d="M183.77,128.29c-2.48,1.9-5.24,3.41-8.19,4.46c-0.6,0.21-0.34,1.18,0.27,0.96c3.03-1.08,5.87-2.61,8.43-4.57
				C184.78,128.77,184.28,127.9,183.77,128.29L183.77,128.29z"/>
		</g>
	</g>
	<g>
		<g>
			<path d="M81.26,118.22c1.23,1.85,3.15,3.19,5.32,3.68c0.63,0.14,0.89-0.82,0.27-0.96c-1.92-0.43-3.63-1.58-4.73-3.22
				C81.77,117.18,80.9,117.68,81.26,118.22L81.26,118.22z"/>
		</g>
	</g>
	<g>
		<g>
			<path d="M95.33,124.97c1.14,2.36,4.35,3.31,6.61,2.02c0.56-0.32,0.06-1.18-0.5-0.86c-1.82,1.04-4.34,0.21-5.24-1.66
				C95.92,123.89,95.05,124.39,95.33,124.97L95.33,124.97z"/>
		</g>
	</g>
	<g>
		<g>
			<path d="M108.52,128.94c2.55,1.75,5.82,2.28,8.79,1.45c0.62-0.17,0.36-1.14-0.27-0.96c-2.73,0.76-5.69,0.26-8.02-1.35
				C108.49,127.72,107.99,128.58,108.52,128.94L108.52,128.94z"/>
		</g>
	</g>
	<g>
		<g>
			<path d="M124.25,132.37c2.46,0.62,4.91,1.24,7.37,1.85c0.62,0.16,0.89-0.81,0.27-0.96c-2.46-0.62-4.91-1.24-7.37-1.85
				C123.89,131.25,123.63,132.21,124.25,132.37L124.25,132.37z"/>
		</g>
	</g>
	<g>
		<g>
			<path d="M139.82,134.54c2.38-0.7,4.95-0.81,7.4-0.53c0.64,0.07,0.63-0.93,0-1c-2.54-0.29-5.21-0.15-7.67,0.57
				C138.94,133.75,139.2,134.72,139.82,134.54L139.82,134.54z"/>
		</g>
	</g>
	<g>
		<g>
			<path d="M158.16,134c2.76,1.06,5.94,0.5,8.24-1.33c0.5-0.4-0.21-1.1-0.71-0.71c-2.03,1.62-4.86,1.99-7.27,1.07
				C157.82,132.81,157.56,133.78,158.16,134L158.16,134z"/>
		</g>
	</g>
</g>
</svg>
