<?xml version="1.0" encoding="utf-8" standalone="no"?>
<!DOCTYPE svg PUBLIC "-//W3C//DTD SVG 1.1//EN"
  "http://www.w3.org/Graphics/SVG/1.1/DTD/svg11.dtd">
<svg xmlns:xlink="http://www.w3.org/1999/xlink" width="420.813339pt" height="280.8pt" viewBox="0 0 420.813339 280.8" xmlns="http://www.w3.org/2000/svg" version="1.1">
 <metadata>
  <rdf:RDF xmlns:dc="http://purl.org/dc/elements/1.1/" xmlns:cc="http://creativecommons.org/ns#" xmlns:rdf="http://www.w3.org/1999/02/22-rdf-syntax-ns#">
   <cc:Work>
    <dc:type rdf:resource="http://purl.org/dc/dcmitype/StillImage"/>
    <dc:date>2022-09-10T23:29:23.088725</dc:date>
    <dc:format>image/svg+xml</dc:format>
    <dc:creator>
     <cc:Agent>
      <dc:title>Matplotlib v3.5.1, https://matplotlib.org/</dc:title>
     </cc:Agent>
    </dc:creator>
   </cc:Work>
  </rdf:RDF>
 </metadata>
 <defs>
  <style type="text/css">*{stroke-linejoin: round; stroke-linecap: butt}</style>
 </defs>
 <g id="figure_1">
  <g id="patch_1">
   <path d="M 0 280.8 
L 420.813339 280.8 
L 420.813339 0 
L 0 0 
L 0 280.8 
z
" style="fill: none"/>
  </g>
  <g id="axes_1">
   <g id="patch_2">
    <path d="M 9.721333 273.6 
L 411.092006 273.6 
L 411.092006 7.2 
L 9.721333 7.2 
z
" style="fill: #ffffff"/>
   </g>
   <g id="matplotlib.axis_1">
    <g id="xtick_1">
     <g id="line2d_1">
      <defs>
       <path id="mdcb46ba935" d="M 0 0 
L 0 3.5 
" style="stroke: #808080; stroke-width: 0.8"/>
      </defs>
      <g>
       <use xlink:href="#mdcb46ba935" x="17.44" y="140.4" style="fill: #808080; stroke: #808080; stroke-width: 0.8"/>
      </g>
     </g>
     <g id="text_1">
      <!-- $-3$ -->
      <g transform="translate(7.2 159.5575)scale(0.16 -0.16)">
       <defs>
        <path id="Cmsy10-a1" d="M 653 1472 
Q 600 1472 565 1512 
Q 531 1553 531 1600 
Q 531 1647 565 1687 
Q 600 1728 653 1728 
L 4325 1728 
Q 4375 1728 4408 1687 
Q 4441 1647 4441 1600 
Q 4441 1553 4408 1512 
Q 4375 1472 4325 1472 
L 653 1472 
z
" transform="scale(0.015625)"/>
        <path id="Cmr10-33" d="M 609 494 
Q 759 275 1012 169 
Q 1266 63 1556 63 
Q 1928 63 2084 380 
Q 2241 697 2241 1100 
Q 2241 1281 2208 1462 
Q 2175 1644 2097 1800 
Q 2019 1956 1883 2050 
Q 1747 2144 1550 2144 
L 1125 2144 
Q 1069 2144 1069 2203 
L 1069 2259 
Q 1069 2309 1125 2309 
L 1478 2338 
Q 1703 2338 1851 2506 
Q 2000 2675 2069 2917 
Q 2138 3159 2138 3378 
Q 2138 3684 1994 3881 
Q 1850 4078 1556 4078 
Q 1313 4078 1091 3986 
Q 869 3894 738 3706 
Q 750 3709 759 3711 
Q 769 3713 781 3713 
Q 925 3713 1022 3613 
Q 1119 3513 1119 3372 
Q 1119 3234 1022 3134 
Q 925 3034 781 3034 
Q 641 3034 541 3134 
Q 441 3234 441 3372 
Q 441 3647 606 3850 
Q 772 4053 1033 4158 
Q 1294 4263 1556 4263 
Q 1750 4263 1965 4205 
Q 2181 4147 2356 4039 
Q 2531 3931 2642 3762 
Q 2753 3594 2753 3378 
Q 2753 3109 2633 2881 
Q 2513 2653 2303 2487 
Q 2094 2322 1844 2241 
Q 2122 2188 2372 2031 
Q 2622 1875 2773 1631 
Q 2925 1388 2925 1106 
Q 2925 753 2731 467 
Q 2538 181 2222 20 
Q 1906 -141 1556 -141 
Q 1256 -141 954 -26 
Q 653 88 461 316 
Q 269 544 269 863 
Q 269 1022 375 1128 
Q 481 1234 641 1234 
Q 744 1234 830 1186 
Q 916 1138 964 1050 
Q 1013 963 1013 863 
Q 1013 706 903 600 
Q 794 494 641 494 
L 609 494 
z
" transform="scale(0.015625)"/>
       </defs>
       <use xlink:href="#Cmsy10-a1" transform="translate(0 0.390625)"/>
       <use xlink:href="#Cmr10-33" transform="translate(77.685547 0.390625)"/>
      </g>
     </g>
    </g>
    <g id="xtick_2">
     <g id="line2d_2">
      <g>
       <use xlink:href="#mdcb46ba935" x="72.573334" y="140.4" style="fill: #808080; stroke: #808080; stroke-width: 0.8"/>
      </g>
     </g>
     <g id="text_2">
      <!-- $-2$ -->
      <g transform="translate(62.333334 159.5575)scale(0.16 -0.16)">
       <defs>
        <path id="Cmr10-32" d="M 319 0 
L 319 172 
Q 319 188 331 206 
L 1325 1306 
Q 1550 1550 1690 1715 
Q 1831 1881 1968 2097 
Q 2106 2313 2186 2536 
Q 2266 2759 2266 3009 
Q 2266 3272 2169 3511 
Q 2072 3750 1880 3894 
Q 1688 4038 1416 4038 
Q 1138 4038 916 3870 
Q 694 3703 603 3438 
Q 628 3444 672 3444 
Q 816 3444 917 3347 
Q 1019 3250 1019 3097 
Q 1019 2950 917 2848 
Q 816 2747 672 2747 
Q 522 2747 420 2851 
Q 319 2956 319 3097 
Q 319 3338 409 3548 
Q 500 3759 670 3923 
Q 841 4088 1055 4175 
Q 1269 4263 1509 4263 
Q 1875 4263 2190 4108 
Q 2506 3953 2690 3670 
Q 2875 3388 2875 3009 
Q 2875 2731 2753 2481 
Q 2631 2231 2440 2026 
Q 2250 1822 1953 1562 
Q 1656 1303 1563 1216 
L 838 519 
L 1453 519 
Q 1906 519 2211 526 
Q 2516 534 2534 550 
Q 2609 631 2688 1141 
L 2875 1141 
L 2694 0 
L 319 0 
z
" transform="scale(0.015625)"/>
       </defs>
       <use xlink:href="#Cmsy10-a1" transform="translate(0 0.390625)"/>
       <use xlink:href="#Cmr10-32" transform="translate(77.685547 0.390625)"/>
      </g>
     </g>
    </g>
    <g id="xtick_3">
     <g id="line2d_3">
      <g>
       <use xlink:href="#mdcb46ba935" x="127.706668" y="140.4" style="fill: #808080; stroke: #808080; stroke-width: 0.8"/>
      </g>
     </g>
     <g id="text_3">
      <!-- $-1$ -->
      <g transform="translate(117.466668 159.5575)scale(0.16 -0.16)">
       <defs>
        <path id="Cmr10-31" d="M 594 0 
L 594 225 
Q 1394 225 1394 428 
L 1394 3788 
Q 1063 3628 556 3628 
L 556 3853 
Q 1341 3853 1741 4263 
L 1831 4263 
Q 1853 4263 1873 4245 
Q 1894 4228 1894 4206 
L 1894 428 
Q 1894 225 2694 225 
L 2694 0 
L 594 0 
z
" transform="scale(0.015625)"/>
       </defs>
       <use xlink:href="#Cmsy10-a1" transform="translate(0 0.390625)"/>
       <use xlink:href="#Cmr10-31" transform="translate(77.685547 0.390625)"/>
      </g>
     </g>
    </g>
    <g id="xtick_4">
     <g id="line2d_4">
      <g>
       <use xlink:href="#mdcb46ba935" x="182.840003" y="140.4" style="fill: #808080; stroke: #808080; stroke-width: 0.8"/>
      </g>
     </g>
    </g>
    <g id="xtick_5">
     <g id="line2d_5">
      <g>
       <use xlink:href="#mdcb46ba935" x="237.973337" y="140.4" style="fill: #808080; stroke: #808080; stroke-width: 0.8"/>
      </g>
     </g>
     <g id="text_4">
      <!-- $+1$ -->
      <g transform="translate(227.733337 159.5575)scale(0.16 -0.16)">
       <defs>
        <path id="Cmr10-2b" d="M 481 1472 
Q 428 1472 393 1512 
Q 359 1553 359 1600 
Q 359 1647 393 1687 
Q 428 1728 481 1728 
L 2363 1728 
L 2363 3616 
Q 2363 3666 2400 3698 
Q 2438 3731 2491 3731 
Q 2538 3731 2578 3698 
Q 2619 3666 2619 3616 
L 2619 1728 
L 4500 1728 
Q 4547 1728 4581 1687 
Q 4616 1647 4616 1600 
Q 4616 1553 4581 1512 
Q 4547 1472 4500 1472 
L 2619 1472 
L 2619 -416 
Q 2619 -466 2578 -498 
Q 2538 -531 2491 -531 
Q 2438 -531 2400 -498 
Q 2363 -466 2363 -416 
L 2363 1472 
L 481 1472 
z
" transform="scale(0.015625)"/>
       </defs>
       <use xlink:href="#Cmr10-2b" transform="translate(0 0.390625)"/>
       <use xlink:href="#Cmr10-31" transform="translate(77.685547 0.390625)"/>
      </g>
     </g>
    </g>
    <g id="xtick_6">
     <g id="line2d_6">
      <g>
       <use xlink:href="#mdcb46ba935" x="293.106671" y="140.4" style="fill: #808080; stroke: #808080; stroke-width: 0.8"/>
      </g>
     </g>
     <g id="text_5">
      <!-- $+2$ -->
      <g transform="translate(282.866671 159.5575)scale(0.16 -0.16)">
       <use xlink:href="#Cmr10-2b" transform="translate(0 0.390625)"/>
       <use xlink:href="#Cmr10-32" transform="translate(77.685547 0.390625)"/>
      </g>
     </g>
    </g>
    <g id="xtick_7">
     <g id="line2d_7">
      <g>
       <use xlink:href="#mdcb46ba935" x="348.240005" y="140.4" style="fill: #808080; stroke: #808080; stroke-width: 0.8"/>
      </g>
     </g>
     <g id="text_6">
      <!-- $+3$ -->
      <g transform="translate(338.000005 159.5575)scale(0.16 -0.16)">
       <use xlink:href="#Cmr10-2b" transform="translate(0 0.390625)"/>
       <use xlink:href="#Cmr10-33" transform="translate(77.685547 0.390625)"/>
      </g>
     </g>
    </g>
    <g id="xtick_8">
     <g id="line2d_8">
      <g>
       <use xlink:href="#mdcb46ba935" x="403.373339" y="140.4" style="fill: #808080; stroke: #808080; stroke-width: 0.8"/>
      </g>
     </g>
     <g id="text_7">
      <!-- $+4$ -->
      <g transform="translate(393.133339 159.5575)scale(0.16 -0.16)">
       <defs>
        <path id="Cmr10-34" d="M 178 1056 
L 178 1281 
L 2156 4231 
Q 2178 4263 2222 4263 
L 2316 4263 
Q 2388 4263 2388 4191 
L 2388 1281 
L 3016 1281 
L 3016 1056 
L 2388 1056 
L 2388 428 
Q 2388 297 2575 261 
Q 2763 225 3009 225 
L 3009 0 
L 1247 0 
L 1247 225 
Q 1494 225 1681 261 
Q 1869 297 1869 428 
L 1869 1056 
L 178 1056 
z
M 391 1281 
L 1906 1281 
L 1906 3547 
L 391 1281 
z
" transform="scale(0.015625)"/>
       </defs>
       <use xlink:href="#Cmr10-2b" transform="translate(0 0.390625)"/>
       <use xlink:href="#Cmr10-34" transform="translate(77.685547 0.390625)"/>
      </g>
     </g>
    </g>
   </g>
   <g id="matplotlib.axis_2"/>
   <g id="patch_3">
    <path d="M 182.840003 273.6 
L 182.840003 7.2 
" style="fill: none; stroke: #808080; stroke-width: 2; stroke-linejoin: miter; stroke-linecap: square"/>
   </g>
   <g id="patch_4">
    <path d="M 9.721333 140.4 
L 411.092006 140.4 
" style="fill: none; stroke: #808080; stroke-width: 2; stroke-linejoin: miter; stroke-linecap: square"/>
   </g>
   <g id="line2d_9">
    <path d="M 17.44 139.119231 
L 41.210283 138.613185 
L 55.382544 138.135653 
L 68.35042 137.481759 
L 78.176734 136.742918 
L 84.897083 136.032251 
L 90.556021 135.226322 
L 95.437994 134.296479 
L 99.046822 133.400132 
L 102.02828 132.465491 
L 105.106918 131.236983 
L 107.781357 129.857113 
L 109.957892 128.423582 
L 111.718009 126.976146 
L 113.398505 125.259239 
L 114.86894 123.385799 
L 116.094307 121.460207 
L 117.143946 119.453916 
L 118.188832 117.015557 
L 119.228964 113.989463 
L 120.095741 110.834292 
L 120.966476 106.845961 
L 121.818015 101.802889 
L 122.599912 95.689177 
L 123.274918 88.674439 
L 123.920041 79.631181 
L 124.519541 67.943804 
L 125.052429 53.120972 
L 125.518707 34.226309 
L 125.949917 7.823922 
L 126.05797 -1 
L 126.05797 -1 
" clip-path="url(#p443bbfee20)" style="fill: none; stroke: #ff0000; stroke-width: 3; stroke-linecap: square"/>
   </g>
   <g id="line2d_10">
    <path d="M 129.390068 281.8 
L 129.796711 254.459527 
L 130.355582 230.704133 
L 130.914454 215.227991 
L 131.585099 202.545945 
L 132.255745 193.605017 
L 133.046631 185.948937 
L 133.853301 180.171644 
L 134.65997 175.73663 
L 135.541421 171.936511 
L 136.57823 168.435355 
L 137.615039 165.669121 
L 138.697392 163.340332 
L 139.954378 161.154918 
L 141.211363 159.378867 
L 142.892166 157.467052 
L 144.272172 156.190328 
L 145.959963 154.894645 
L 148.169998 153.526375 
L 150.283276 152.473727 
L 152.836517 151.444454 
L 155.830203 150.484013 
L 159.481445 149.569137 
L 164.178529 148.679303 
L 170.085158 147.867459 
L 175.83118 147.298042 
L 184.577947 146.707565 
L 192.577694 146.369767 
L 202.745798 146.141577 
L 214.526311 146.106468 
L 226.747688 146.323584 
L 236.261297 146.708933 
L 244.184499 147.23204 
L 251.463296 147.95414 
L 255.579377 148.512866 
L 260.338271 149.357713 
L 263.785757 150.157319 
L 266.836776 151.051725 
L 269.339922 151.965499 
L 271.768204 153.064503 
L 273.916454 154.275322 
L 275.709699 155.520116 
L 277.551035 157.102105 
L 278.866858 158.486631 
L 280.363453 160.41263 
L 281.646249 162.467263 
L 282.87541 164.922571 
L 283.949493 167.610572 
L 284.844563 170.386625 
L 285.841966 174.288521 
L 286.76269 178.982239 
L 287.52996 184.079856 
L 288.270151 190.53253 
L 288.963403 198.669132 
L 289.572282 208.450366 
L 290.139259 221.169692 
L 290.660039 238.048906 
L 291.111365 259.805761 
L 291.424725 281.8 
L 291.424725 281.8 
" clip-path="url(#p443bbfee20)" style="fill: none; stroke: #ff0000; stroke-width: 3; stroke-linecap: square"/>
   </g>
   <g id="line2d_11">
    <path d="M 294.755248 -1 
L 295.175177 28.014717 
L 295.751634 52.810057 
L 296.328092 68.729698 
L 297.00864 81.46767 
L 297.710928 90.662944 
L 298.439104 97.638003 
L 299.232807 103.350489 
L 300.114699 108.178475 
L 301.08478 112.254747 
L 302.097948 115.571342 
L 303.273581 118.589394 
L 304.344483 120.787455 
L 305.663813 122.978194 
L 307.03534 124.813807 
L 308.413262 126.325048 
L 310.254755 127.963261 
L 312.342372 129.438356 
L 314.407948 130.610816 
L 316.348197 131.520317 
L 318.954031 132.524325 
L 321.625079 133.360285 
L 325.445528 134.311887 
L 329.716562 135.135849 
L 334.11669 135.800839 
L 340.50382 136.540053 
L 346.83065 137.092946 
L 356.672935 137.725139 
L 368.614804 138.259801 
L 385.650716 138.769107 
L 403.373339 139.119231 
L 403.373339 139.119231 
" clip-path="url(#p443bbfee20)" style="fill: none; stroke: #ff0000; stroke-width: 3; stroke-linecap: square"/>
   </g>
  </g>
 </g>
 <defs>
  <clipPath id="p443bbfee20">
   <rect x="9.721333" y="7.2" width="401.370673" height="266.4"/>
  </clipPath>
 </defs>
</svg>
