<?xml version="1.0" encoding="utf-8" standalone="no"?>
<!DOCTYPE svg PUBLIC "-//W3C//DTD SVG 1.1//EN"
  "http://www.w3.org/Graphics/SVG/1.1/DTD/svg11.dtd">
<svg xmlns:xlink="http://www.w3.org/1999/xlink" width="420.873436pt" height="280.8pt" viewBox="0 0 420.873436 280.8" xmlns="http://www.w3.org/2000/svg" version="1.1">
 <metadata>
  <rdf:RDF xmlns:dc="http://purl.org/dc/elements/1.1/" xmlns:cc="http://creativecommons.org/ns#" xmlns:rdf="http://www.w3.org/1999/02/22-rdf-syntax-ns#">
   <cc:Work>
    <dc:type rdf:resource="http://purl.org/dc/dcmitype/StillImage"/>
    <dc:date>2022-09-10T22:29:50.572213</dc:date>
    <dc:format>image/svg+xml</dc:format>
    <dc:creator>
     <cc:Agent>
      <dc:title>Matplotlib v3.5.1, https://matplotlib.org/</dc:title>
     </cc:Agent>
    </dc:creator>
   </cc:Work>
  </rdf:RDF>
 </metadata>
 <defs>
  <style type="text/css">*{stroke-linejoin: round; stroke-linecap: butt}</style>
 </defs>
 <g id="figure_1">
  <g id="patch_1">
   <path d="M 0 280.8 
L 420.873436 280.8 
L 420.873436 0 
L 0 0 
L 0 280.8 
z
" style="fill: none"/>
  </g>
  <g id="axes_1">
   <g id="patch_2">
    <path d="M 9.720131 273.6 
L 411.153304 273.6 
L 411.153304 7.2 
L 9.720131 7.2 
z
" style="fill: #ffffff"/>
   </g>
   <g id="matplotlib.axis_1">
    <g id="xtick_1">
     <g id="line2d_1">
      <defs>
       <path id="m55406b0070" d="M 0 0 
L 0 3.5 
" style="stroke: #808080; stroke-width: 0.8"/>
      </defs>
      <g>
       <use xlink:href="#m55406b0070" x="17.44" y="140.4" style="fill: #808080; stroke: #808080; stroke-width: 0.8"/>
      </g>
     </g>
     <g id="text_1">
      <!-- $-4$ -->
      <g transform="translate(7.2 159.5575)scale(0.16 -0.16)">
       <defs>
        <path id="Cmsy10-a1" d="M 653 1472 
Q 600 1472 565 1512 
Q 531 1553 531 1600 
Q 531 1647 565 1687 
Q 600 1728 653 1728 
L 4325 1728 
Q 4375 1728 4408 1687 
Q 4441 1647 4441 1600 
Q 4441 1553 4408 1512 
Q 4375 1472 4325 1472 
L 653 1472 
z
" transform="scale(0.015625)"/>
        <path id="Cmr10-34" d="M 178 1056 
L 178 1281 
L 2156 4231 
Q 2178 4263 2222 4263 
L 2316 4263 
Q 2388 4263 2388 4191 
L 2388 1281 
L 3016 1281 
L 3016 1056 
L 2388 1056 
L 2388 428 
Q 2388 297 2575 261 
Q 2763 225 3009 225 
L 3009 0 
L 1247 0 
L 1247 225 
Q 1494 225 1681 261 
Q 1869 297 1869 428 
L 1869 1056 
L 178 1056 
z
M 391 1281 
L 1906 1281 
L 1906 3547 
L 391 1281 
z
" transform="scale(0.015625)"/>
       </defs>
       <use xlink:href="#Cmsy10-a1" transform="translate(0 0.390625)"/>
       <use xlink:href="#Cmr10-34" transform="translate(77.685547 0.390625)"/>
      </g>
     </g>
    </g>
    <g id="xtick_2">
     <g id="line2d_2">
      <g>
       <use xlink:href="#m55406b0070" x="60.32816" y="140.4" style="fill: #808080; stroke: #808080; stroke-width: 0.8"/>
      </g>
     </g>
     <g id="text_2">
      <!-- $-3$ -->
      <g transform="translate(50.08816 159.5575)scale(0.16 -0.16)">
       <defs>
        <path id="Cmr10-33" d="M 609 494 
Q 759 275 1012 169 
Q 1266 63 1556 63 
Q 1928 63 2084 380 
Q 2241 697 2241 1100 
Q 2241 1281 2208 1462 
Q 2175 1644 2097 1800 
Q 2019 1956 1883 2050 
Q 1747 2144 1550 2144 
L 1125 2144 
Q 1069 2144 1069 2203 
L 1069 2259 
Q 1069 2309 1125 2309 
L 1478 2338 
Q 1703 2338 1851 2506 
Q 2000 2675 2069 2917 
Q 2138 3159 2138 3378 
Q 2138 3684 1994 3881 
Q 1850 4078 1556 4078 
Q 1313 4078 1091 3986 
Q 869 3894 738 3706 
Q 750 3709 759 3711 
Q 769 3713 781 3713 
Q 925 3713 1022 3613 
Q 1119 3513 1119 3372 
Q 1119 3234 1022 3134 
Q 925 3034 781 3034 
Q 641 3034 541 3134 
Q 441 3234 441 3372 
Q 441 3647 606 3850 
Q 772 4053 1033 4158 
Q 1294 4263 1556 4263 
Q 1750 4263 1965 4205 
Q 2181 4147 2356 4039 
Q 2531 3931 2642 3762 
Q 2753 3594 2753 3378 
Q 2753 3109 2633 2881 
Q 2513 2653 2303 2487 
Q 2094 2322 1844 2241 
Q 2122 2188 2372 2031 
Q 2622 1875 2773 1631 
Q 2925 1388 2925 1106 
Q 2925 753 2731 467 
Q 2538 181 2222 20 
Q 1906 -141 1556 -141 
Q 1256 -141 954 -26 
Q 653 88 461 316 
Q 269 544 269 863 
Q 269 1022 375 1128 
Q 481 1234 641 1234 
Q 744 1234 830 1186 
Q 916 1138 964 1050 
Q 1013 963 1013 863 
Q 1013 706 903 600 
Q 794 494 641 494 
L 609 494 
z
" transform="scale(0.015625)"/>
       </defs>
       <use xlink:href="#Cmsy10-a1" transform="translate(0 0.390625)"/>
       <use xlink:href="#Cmr10-33" transform="translate(77.685547 0.390625)"/>
      </g>
     </g>
    </g>
    <g id="xtick_3">
     <g id="line2d_3">
      <g>
       <use xlink:href="#m55406b0070" x="103.216319" y="140.4" style="fill: #808080; stroke: #808080; stroke-width: 0.8"/>
      </g>
     </g>
     <g id="text_3">
      <!-- $-2$ -->
      <g transform="translate(92.976319 159.5575)scale(0.16 -0.16)">
       <defs>
        <path id="Cmr10-32" d="M 319 0 
L 319 172 
Q 319 188 331 206 
L 1325 1306 
Q 1550 1550 1690 1715 
Q 1831 1881 1968 2097 
Q 2106 2313 2186 2536 
Q 2266 2759 2266 3009 
Q 2266 3272 2169 3511 
Q 2072 3750 1880 3894 
Q 1688 4038 1416 4038 
Q 1138 4038 916 3870 
Q 694 3703 603 3438 
Q 628 3444 672 3444 
Q 816 3444 917 3347 
Q 1019 3250 1019 3097 
Q 1019 2950 917 2848 
Q 816 2747 672 2747 
Q 522 2747 420 2851 
Q 319 2956 319 3097 
Q 319 3338 409 3548 
Q 500 3759 670 3923 
Q 841 4088 1055 4175 
Q 1269 4263 1509 4263 
Q 1875 4263 2190 4108 
Q 2506 3953 2690 3670 
Q 2875 3388 2875 3009 
Q 2875 2731 2753 2481 
Q 2631 2231 2440 2026 
Q 2250 1822 1953 1562 
Q 1656 1303 1563 1216 
L 838 519 
L 1453 519 
Q 1906 519 2211 526 
Q 2516 534 2534 550 
Q 2609 631 2688 1141 
L 2875 1141 
L 2694 0 
L 319 0 
z
" transform="scale(0.015625)"/>
       </defs>
       <use xlink:href="#Cmsy10-a1" transform="translate(0 0.390625)"/>
       <use xlink:href="#Cmr10-32" transform="translate(77.685547 0.390625)"/>
      </g>
     </g>
    </g>
    <g id="xtick_4">
     <g id="line2d_4">
      <g>
       <use xlink:href="#m55406b0070" x="146.104479" y="140.4" style="fill: #808080; stroke: #808080; stroke-width: 0.8"/>
      </g>
     </g>
     <g id="text_4">
      <!-- $-1$ -->
      <g transform="translate(135.864479 159.5575)scale(0.16 -0.16)">
       <defs>
        <path id="Cmr10-31" d="M 594 0 
L 594 225 
Q 1394 225 1394 428 
L 1394 3788 
Q 1063 3628 556 3628 
L 556 3853 
Q 1341 3853 1741 4263 
L 1831 4263 
Q 1853 4263 1873 4245 
Q 1894 4228 1894 4206 
L 1894 428 
Q 1894 225 2694 225 
L 2694 0 
L 594 0 
z
" transform="scale(0.015625)"/>
       </defs>
       <use xlink:href="#Cmsy10-a1" transform="translate(0 0.390625)"/>
       <use xlink:href="#Cmr10-31" transform="translate(77.685547 0.390625)"/>
      </g>
     </g>
    </g>
    <g id="xtick_5">
     <g id="line2d_5">
      <g>
       <use xlink:href="#m55406b0070" x="188.992638" y="140.4" style="fill: #808080; stroke: #808080; stroke-width: 0.8"/>
      </g>
     </g>
    </g>
    <g id="xtick_6">
     <g id="line2d_6">
      <g>
       <use xlink:href="#m55406b0070" x="231.880798" y="140.4" style="fill: #808080; stroke: #808080; stroke-width: 0.8"/>
      </g>
     </g>
     <g id="text_5">
      <!-- $+1$ -->
      <g transform="translate(221.640798 159.5575)scale(0.16 -0.16)">
       <defs>
        <path id="Cmr10-2b" d="M 481 1472 
Q 428 1472 393 1512 
Q 359 1553 359 1600 
Q 359 1647 393 1687 
Q 428 1728 481 1728 
L 2363 1728 
L 2363 3616 
Q 2363 3666 2400 3698 
Q 2438 3731 2491 3731 
Q 2538 3731 2578 3698 
Q 2619 3666 2619 3616 
L 2619 1728 
L 4500 1728 
Q 4547 1728 4581 1687 
Q 4616 1647 4616 1600 
Q 4616 1553 4581 1512 
Q 4547 1472 4500 1472 
L 2619 1472 
L 2619 -416 
Q 2619 -466 2578 -498 
Q 2538 -531 2491 -531 
Q 2438 -531 2400 -498 
Q 2363 -466 2363 -416 
L 2363 1472 
L 481 1472 
z
" transform="scale(0.015625)"/>
       </defs>
       <use xlink:href="#Cmr10-2b" transform="translate(0 0.390625)"/>
       <use xlink:href="#Cmr10-31" transform="translate(77.685547 0.390625)"/>
      </g>
     </g>
    </g>
    <g id="xtick_7">
     <g id="line2d_7">
      <g>
       <use xlink:href="#m55406b0070" x="274.768957" y="140.4" style="fill: #808080; stroke: #808080; stroke-width: 0.8"/>
      </g>
     </g>
     <g id="text_6">
      <!-- $+2$ -->
      <g transform="translate(264.528957 159.5575)scale(0.16 -0.16)">
       <use xlink:href="#Cmr10-2b" transform="translate(0 0.390625)"/>
       <use xlink:href="#Cmr10-32" transform="translate(77.685547 0.390625)"/>
      </g>
     </g>
    </g>
    <g id="xtick_8">
     <g id="line2d_8">
      <g>
       <use xlink:href="#m55406b0070" x="317.657117" y="140.4" style="fill: #808080; stroke: #808080; stroke-width: 0.8"/>
      </g>
     </g>
     <g id="text_7">
      <!-- $+3$ -->
      <g transform="translate(307.417117 159.5575)scale(0.16 -0.16)">
       <use xlink:href="#Cmr10-2b" transform="translate(0 0.390625)"/>
       <use xlink:href="#Cmr10-33" transform="translate(77.685547 0.390625)"/>
      </g>
     </g>
    </g>
    <g id="xtick_9">
     <g id="line2d_9">
      <g>
       <use xlink:href="#m55406b0070" x="360.545276" y="140.4" style="fill: #808080; stroke: #808080; stroke-width: 0.8"/>
      </g>
     </g>
     <g id="text_8">
      <!-- $+4$ -->
      <g transform="translate(350.305276 159.5575)scale(0.16 -0.16)">
       <use xlink:href="#Cmr10-2b" transform="translate(0 0.390625)"/>
       <use xlink:href="#Cmr10-34" transform="translate(77.685547 0.390625)"/>
      </g>
     </g>
    </g>
    <g id="xtick_10">
     <g id="line2d_10">
      <g>
       <use xlink:href="#m55406b0070" x="403.433436" y="140.4" style="fill: #808080; stroke: #808080; stroke-width: 0.8"/>
      </g>
     </g>
     <g id="text_9">
      <!-- $+5$ -->
      <g transform="translate(393.193436 159.5575)scale(0.16 -0.16)">
       <defs>
        <path id="Cmr10-35" d="M 556 728 
Q 622 541 758 387 
Q 894 234 1080 148 
Q 1266 63 1466 63 
Q 1928 63 2103 422 
Q 2278 781 2278 1294 
Q 2278 1516 2270 1667 
Q 2263 1819 2228 1959 
Q 2169 2184 2020 2353 
Q 1872 2522 1656 2522 
Q 1441 2522 1286 2456 
Q 1131 2391 1034 2303 
Q 938 2216 863 2119 
Q 788 2022 769 2016 
L 697 2016 
Q 681 2016 657 2036 
Q 634 2056 634 2075 
L 634 4213 
Q 634 4228 654 4245 
Q 675 4263 697 4263 
L 716 4263 
Q 1147 4056 1631 4056 
Q 2106 4056 2547 4263 
L 2566 4263 
Q 2588 4263 2606 4247 
Q 2625 4231 2625 4213 
L 2625 4153 
Q 2625 4122 2613 4122 
Q 2394 3831 2064 3668 
Q 1734 3506 1381 3506 
Q 1125 3506 856 3578 
L 856 2369 
Q 1069 2541 1236 2614 
Q 1403 2688 1663 2688 
Q 2016 2688 2295 2484 
Q 2575 2281 2725 1954 
Q 2875 1628 2875 1288 
Q 2875 903 2686 575 
Q 2497 247 2172 53 
Q 1847 -141 1466 -141 
Q 1150 -141 886 21 
Q 622 184 470 459 
Q 319 734 319 1044 
Q 319 1188 412 1278 
Q 506 1369 647 1369 
Q 788 1369 883 1276 
Q 978 1184 978 1044 
Q 978 906 883 811 
Q 788 716 647 716 
Q 625 716 597 720 
Q 569 725 556 728 
z
" transform="scale(0.015625)"/>
       </defs>
       <use xlink:href="#Cmr10-2b" transform="translate(0 0.390625)"/>
       <use xlink:href="#Cmr10-35" transform="translate(77.685547 0.390625)"/>
      </g>
     </g>
    </g>
   </g>
   <g id="matplotlib.axis_2"/>
   <g id="patch_3">
    <path d="M 188.992638 273.6 
L 188.992638 7.2 
" style="fill: none; stroke: #808080; stroke-width: 2; stroke-linejoin: miter; stroke-linecap: square"/>
   </g>
   <g id="patch_4">
    <path d="M 9.720131 140.4 
L 411.153304 140.4 
" style="fill: none; stroke: #808080; stroke-width: 2; stroke-linejoin: miter; stroke-linecap: square"/>
   </g>
   <g id="line2d_11">
    <path d="M 17.44 138.976923 
L 42.102748 138.452839 
L 57.871404 137.937991 
L 71.180556 137.311112 
L 82.69415 136.531476 
L 91.586837 135.682026 
L 96.450125 135.078658 
L 102.586929 134.111842 
L 106.775605 133.268644 
L 112.051032 131.896862 
L 115.555536 130.712765 
L 118.849262 129.312718 
L 121.305183 128.019719 
L 123.815724 126.396149 
L 125.78178 124.838715 
L 127.829668 122.853727 
L 129.393283 121.005597 
L 130.669727 119.215686 
L 131.946172 117.099411 
L 133.238632 114.524555 
L 134.631997 111.093386 
L 135.583866 108.223266 
L 136.645993 104.33481 
L 137.714864 99.422859 
L 138.714286 93.539544 
L 139.630877 86.541784 
L 140.450091 78.362664 
L 141.231807 67.988682 
L 141.942457 55.171138 
L 142.556785 39.948087 
L 143.139542 19.672203 
L 143.564395 -1 
L 143.564395 -1 
" clip-path="url(#p567af27b0c)" style="fill: none; stroke: #ff0000; stroke-width: 5; stroke-linecap: square"/>
   </g>
   <g id="line2d_12">
    <path d="M 148.749005 281.8 
L 149.28776 258.35655 
L 149.988584 237.616145 
L 150.696912 223.091127 
L 151.439442 212.010581 
L 152.313058 202.373175 
L 153.238726 194.742951 
L 154.039591 189.582396 
L 154.954866 184.832987 
L 156.09896 180.12597 
L 157.368363 176.030114 
L 158.691226 172.648778 
L 159.821329 170.2828 
L 160.997396 168.207517 
L 162.219428 166.377842 
L 163.942439 164.233444 
L 165.782432 162.369641 
L 167.581448 160.867204 
L 169.798808 159.343728 
L 172.206072 158.000234 
L 174.276082 157.042894 
L 178.084895 155.638306 
L 181.516423 154.668072 
L 185.384433 153.819687 
L 188.396015 153.298658 
L 194.03588 152.575984 
L 199.988895 152.09302 
L 206.713289 151.822881 
L 214.126729 151.822195 
L 219.639592 152.022457 
L 225.397598 152.435527 
L 229.594557 152.892474 
L 233.778898 153.510651 
L 238.977217 154.574398 
L 241.505885 155.247679 
L 244.76247 156.315793 
L 247.679746 157.523454 
L 249.794196 158.594439 
L 252.14179 160.037527 
L 253.73368 161.211211 
L 255.689246 162.9348 
L 257.503847 164.897604 
L 258.965901 166.817341 
L 260.369355 169.036006 
L 261.735022 171.662778 
L 262.930964 174.468758 
L 264.261685 178.3512 
L 265.37062 182.434656 
L 266.257767 186.473346 
L 267.235072 192.030086 
L 268.158381 198.796222 
L 268.98088 206.648018 
L 269.761524 216.492476 
L 270.469726 228.522317 
L 271.113546 243.509336 
L 271.692459 262.346947 
L 272.124537 281.8 
L 272.124537 281.8 
" clip-path="url(#p567af27b0c)" style="fill: none; stroke: #ff0000; stroke-width: 5; stroke-linecap: square"/>
   </g>
   <g id="line2d_13">
    <path d="M 277.308775 -1 
L 277.8507 24.35106 
L 278.491844 44.801891 
L 279.21281 60.745406 
L 279.946649 72.409768 
L 280.680488 81.174593 
L 281.551288 89.110564 
L 282.544338 95.986726 
L 283.537387 101.301226 
L 284.578549 105.713835 
L 285.534202 109.00963 
L 286.85802 112.70995 
L 287.850884 114.990745 
L 289.322887 117.795413 
L 290.885679 120.207652 
L 292.664309 122.435278 
L 294.395139 124.210774 
L 296.347717 125.867033 
L 298.034733 127.070499 
L 300.10399 128.323672 
L 302.541427 129.555192 
L 304.791154 130.51008 
L 308.748021 131.874351 
L 313.271572 133.079602 
L 317.683321 134.001042 
L 322.777247 134.844926 
L 330.040699 135.765474 
L 336.971876 136.431438 
L 345.003174 137.027166 
L 357.395057 137.701153 
L 371.016406 138.223423 
L 389.210291 138.706452 
L 403.433436 138.976923 
L 403.433436 138.976923 
" clip-path="url(#p567af27b0c)" style="fill: none; stroke: #ff0000; stroke-width: 5; stroke-linecap: square"/>
   </g>
  </g>
 </g>
 <defs>
  <clipPath id="p567af27b0c">
   <rect x="9.720131" y="7.2" width="401.433173" height="266.4"/>
  </clipPath>
 </defs>
</svg>
