<?xml version="1.0" encoding="utf-8" standalone="no"?>
<!DOCTYPE svg PUBLIC "-//W3C//DTD SVG 1.1//EN"
  "http://www.w3.org/Graphics/SVG/1.1/DTD/svg11.dtd">
<svg xmlns:xlink="http://www.w3.org/1999/xlink" width="420.873436pt" height="280.8pt" viewBox="0 0 420.873436 280.8" xmlns="http://www.w3.org/2000/svg" version="1.1">
 <metadata>
  <rdf:RDF xmlns:dc="http://purl.org/dc/elements/1.1/" xmlns:cc="http://creativecommons.org/ns#" xmlns:rdf="http://www.w3.org/1999/02/22-rdf-syntax-ns#">
   <cc:Work>
    <dc:type rdf:resource="http://purl.org/dc/dcmitype/StillImage"/>
    <dc:date>2022-09-10T22:38:18.221382</dc:date>
    <dc:format>image/svg+xml</dc:format>
    <dc:creator>
     <cc:Agent>
      <dc:title>Matplotlib v3.5.1, https://matplotlib.org/</dc:title>
     </cc:Agent>
    </dc:creator>
   </cc:Work>
  </rdf:RDF>
 </metadata>
 <defs>
  <style type="text/css">*{stroke-linejoin: round; stroke-linecap: butt}</style>
 </defs>
 <g id="figure_1">
  <g id="patch_1">
   <path d="M 0 280.8 
L 420.873436 280.8 
L 420.873436 0 
L 0 0 
L 0 280.8 
z
" style="fill: none"/>
  </g>
  <g id="axes_1">
   <g id="patch_2">
    <path d="M 9.720131 273.6 
L 411.153304 273.6 
L 411.153304 7.2 
L 9.720131 7.2 
z
" style="fill: #ffffff"/>
   </g>
   <g id="matplotlib.axis_1">
    <g id="xtick_1">
     <g id="line2d_1">
      <defs>
       <path id="mda41323a3f" d="M 0 0 
L 0 3.5 
" style="stroke: #808080; stroke-width: 0.8"/>
      </defs>
      <g>
       <use xlink:href="#mda41323a3f" x="17.44" y="140.4" style="fill: #808080; stroke: #808080; stroke-width: 0.8"/>
      </g>
     </g>
     <g id="text_1">
      <!-- $-4$ -->
      <g transform="translate(7.2 159.5575)scale(0.16 -0.16)">
       <defs>
        <path id="Cmsy10-a1" d="M 653 1472 
Q 600 1472 565 1512 
Q 531 1553 531 1600 
Q 531 1647 565 1687 
Q 600 1728 653 1728 
L 4325 1728 
Q 4375 1728 4408 1687 
Q 4441 1647 4441 1600 
Q 4441 1553 4408 1512 
Q 4375 1472 4325 1472 
L 653 1472 
z
" transform="scale(0.015625)"/>
        <path id="Cmr10-34" d="M 178 1056 
L 178 1281 
L 2156 4231 
Q 2178 4263 2222 4263 
L 2316 4263 
Q 2388 4263 2388 4191 
L 2388 1281 
L 3016 1281 
L 3016 1056 
L 2388 1056 
L 2388 428 
Q 2388 297 2575 261 
Q 2763 225 3009 225 
L 3009 0 
L 1247 0 
L 1247 225 
Q 1494 225 1681 261 
Q 1869 297 1869 428 
L 1869 1056 
L 178 1056 
z
M 391 1281 
L 1906 1281 
L 1906 3547 
L 391 1281 
z
" transform="scale(0.015625)"/>
       </defs>
       <use xlink:href="#Cmsy10-a1" transform="translate(0 0.390625)"/>
       <use xlink:href="#Cmr10-34" transform="translate(77.685547 0.390625)"/>
      </g>
     </g>
    </g>
    <g id="xtick_2">
     <g id="line2d_2">
      <g>
       <use xlink:href="#mda41323a3f" x="60.32816" y="140.4" style="fill: #808080; stroke: #808080; stroke-width: 0.8"/>
      </g>
     </g>
     <g id="text_2">
      <!-- $-3$ -->
      <g transform="translate(50.08816 159.5575)scale(0.16 -0.16)">
       <defs>
        <path id="Cmr10-33" d="M 609 494 
Q 759 275 1012 169 
Q 1266 63 1556 63 
Q 1928 63 2084 380 
Q 2241 697 2241 1100 
Q 2241 1281 2208 1462 
Q 2175 1644 2097 1800 
Q 2019 1956 1883 2050 
Q 1747 2144 1550 2144 
L 1125 2144 
Q 1069 2144 1069 2203 
L 1069 2259 
Q 1069 2309 1125 2309 
L 1478 2338 
Q 1703 2338 1851 2506 
Q 2000 2675 2069 2917 
Q 2138 3159 2138 3378 
Q 2138 3684 1994 3881 
Q 1850 4078 1556 4078 
Q 1313 4078 1091 3986 
Q 869 3894 738 3706 
Q 750 3709 759 3711 
Q 769 3713 781 3713 
Q 925 3713 1022 3613 
Q 1119 3513 1119 3372 
Q 1119 3234 1022 3134 
Q 925 3034 781 3034 
Q 641 3034 541 3134 
Q 441 3234 441 3372 
Q 441 3647 606 3850 
Q 772 4053 1033 4158 
Q 1294 4263 1556 4263 
Q 1750 4263 1965 4205 
Q 2181 4147 2356 4039 
Q 2531 3931 2642 3762 
Q 2753 3594 2753 3378 
Q 2753 3109 2633 2881 
Q 2513 2653 2303 2487 
Q 2094 2322 1844 2241 
Q 2122 2188 2372 2031 
Q 2622 1875 2773 1631 
Q 2925 1388 2925 1106 
Q 2925 753 2731 467 
Q 2538 181 2222 20 
Q 1906 -141 1556 -141 
Q 1256 -141 954 -26 
Q 653 88 461 316 
Q 269 544 269 863 
Q 269 1022 375 1128 
Q 481 1234 641 1234 
Q 744 1234 830 1186 
Q 916 1138 964 1050 
Q 1013 963 1013 863 
Q 1013 706 903 600 
Q 794 494 641 494 
L 609 494 
z
" transform="scale(0.015625)"/>
       </defs>
       <use xlink:href="#Cmsy10-a1" transform="translate(0 0.390625)"/>
       <use xlink:href="#Cmr10-33" transform="translate(77.685547 0.390625)"/>
      </g>
     </g>
    </g>
    <g id="xtick_3">
     <g id="line2d_3">
      <g>
       <use xlink:href="#mda41323a3f" x="103.216319" y="140.4" style="fill: #808080; stroke: #808080; stroke-width: 0.8"/>
      </g>
     </g>
     <g id="text_3">
      <!-- $-2$ -->
      <g transform="translate(92.976319 159.5575)scale(0.16 -0.16)">
       <defs>
        <path id="Cmr10-32" d="M 319 0 
L 319 172 
Q 319 188 331 206 
L 1325 1306 
Q 1550 1550 1690 1715 
Q 1831 1881 1968 2097 
Q 2106 2313 2186 2536 
Q 2266 2759 2266 3009 
Q 2266 3272 2169 3511 
Q 2072 3750 1880 3894 
Q 1688 4038 1416 4038 
Q 1138 4038 916 3870 
Q 694 3703 603 3438 
Q 628 3444 672 3444 
Q 816 3444 917 3347 
Q 1019 3250 1019 3097 
Q 1019 2950 917 2848 
Q 816 2747 672 2747 
Q 522 2747 420 2851 
Q 319 2956 319 3097 
Q 319 3338 409 3548 
Q 500 3759 670 3923 
Q 841 4088 1055 4175 
Q 1269 4263 1509 4263 
Q 1875 4263 2190 4108 
Q 2506 3953 2690 3670 
Q 2875 3388 2875 3009 
Q 2875 2731 2753 2481 
Q 2631 2231 2440 2026 
Q 2250 1822 1953 1562 
Q 1656 1303 1563 1216 
L 838 519 
L 1453 519 
Q 1906 519 2211 526 
Q 2516 534 2534 550 
Q 2609 631 2688 1141 
L 2875 1141 
L 2694 0 
L 319 0 
z
" transform="scale(0.015625)"/>
       </defs>
       <use xlink:href="#Cmsy10-a1" transform="translate(0 0.390625)"/>
       <use xlink:href="#Cmr10-32" transform="translate(77.685547 0.390625)"/>
      </g>
     </g>
    </g>
    <g id="xtick_4">
     <g id="line2d_4">
      <g>
       <use xlink:href="#mda41323a3f" x="146.104479" y="140.4" style="fill: #808080; stroke: #808080; stroke-width: 0.8"/>
      </g>
     </g>
     <g id="text_4">
      <!-- $-1$ -->
      <g transform="translate(135.864479 159.5575)scale(0.16 -0.16)">
       <defs>
        <path id="Cmr10-31" d="M 594 0 
L 594 225 
Q 1394 225 1394 428 
L 1394 3788 
Q 1063 3628 556 3628 
L 556 3853 
Q 1341 3853 1741 4263 
L 1831 4263 
Q 1853 4263 1873 4245 
Q 1894 4228 1894 4206 
L 1894 428 
Q 1894 225 2694 225 
L 2694 0 
L 594 0 
z
" transform="scale(0.015625)"/>
       </defs>
       <use xlink:href="#Cmsy10-a1" transform="translate(0 0.390625)"/>
       <use xlink:href="#Cmr10-31" transform="translate(77.685547 0.390625)"/>
      </g>
     </g>
    </g>
    <g id="xtick_5">
     <g id="line2d_5">
      <g>
       <use xlink:href="#mda41323a3f" x="188.992638" y="140.4" style="fill: #808080; stroke: #808080; stroke-width: 0.8"/>
      </g>
     </g>
    </g>
    <g id="xtick_6">
     <g id="line2d_6">
      <g>
       <use xlink:href="#mda41323a3f" x="231.880798" y="140.4" style="fill: #808080; stroke: #808080; stroke-width: 0.8"/>
      </g>
     </g>
     <g id="text_5">
      <!-- $+1$ -->
      <g transform="translate(221.640798 159.5575)scale(0.16 -0.16)">
       <defs>
        <path id="Cmr10-2b" d="M 481 1472 
Q 428 1472 393 1512 
Q 359 1553 359 1600 
Q 359 1647 393 1687 
Q 428 1728 481 1728 
L 2363 1728 
L 2363 3616 
Q 2363 3666 2400 3698 
Q 2438 3731 2491 3731 
Q 2538 3731 2578 3698 
Q 2619 3666 2619 3616 
L 2619 1728 
L 4500 1728 
Q 4547 1728 4581 1687 
Q 4616 1647 4616 1600 
Q 4616 1553 4581 1512 
Q 4547 1472 4500 1472 
L 2619 1472 
L 2619 -416 
Q 2619 -466 2578 -498 
Q 2538 -531 2491 -531 
Q 2438 -531 2400 -498 
Q 2363 -466 2363 -416 
L 2363 1472 
L 481 1472 
z
" transform="scale(0.015625)"/>
       </defs>
       <use xlink:href="#Cmr10-2b" transform="translate(0 0.390625)"/>
       <use xlink:href="#Cmr10-31" transform="translate(77.685547 0.390625)"/>
      </g>
     </g>
    </g>
    <g id="xtick_7">
     <g id="line2d_7">
      <g>
       <use xlink:href="#mda41323a3f" x="274.768957" y="140.4" style="fill: #808080; stroke: #808080; stroke-width: 0.8"/>
      </g>
     </g>
     <g id="text_6">
      <!-- $+2$ -->
      <g transform="translate(264.528957 159.5575)scale(0.16 -0.16)">
       <use xlink:href="#Cmr10-2b" transform="translate(0 0.390625)"/>
       <use xlink:href="#Cmr10-32" transform="translate(77.685547 0.390625)"/>
      </g>
     </g>
    </g>
    <g id="xtick_8">
     <g id="line2d_8">
      <g>
       <use xlink:href="#mda41323a3f" x="317.657117" y="140.4" style="fill: #808080; stroke: #808080; stroke-width: 0.8"/>
      </g>
     </g>
     <g id="text_7">
      <!-- $+3$ -->
      <g transform="translate(307.417117 159.5575)scale(0.16 -0.16)">
       <use xlink:href="#Cmr10-2b" transform="translate(0 0.390625)"/>
       <use xlink:href="#Cmr10-33" transform="translate(77.685547 0.390625)"/>
      </g>
     </g>
    </g>
    <g id="xtick_9">
     <g id="line2d_9">
      <g>
       <use xlink:href="#mda41323a3f" x="360.545276" y="140.4" style="fill: #808080; stroke: #808080; stroke-width: 0.8"/>
      </g>
     </g>
     <g id="text_8">
      <!-- $+4$ -->
      <g transform="translate(350.305276 159.5575)scale(0.16 -0.16)">
       <use xlink:href="#Cmr10-2b" transform="translate(0 0.390625)"/>
       <use xlink:href="#Cmr10-34" transform="translate(77.685547 0.390625)"/>
      </g>
     </g>
    </g>
    <g id="xtick_10">
     <g id="line2d_10">
      <g>
       <use xlink:href="#mda41323a3f" x="403.433436" y="140.4" style="fill: #808080; stroke: #808080; stroke-width: 0.8"/>
      </g>
     </g>
     <g id="text_9">
      <!-- $+5$ -->
      <g transform="translate(393.193436 159.5575)scale(0.16 -0.16)">
       <defs>
        <path id="Cmr10-35" d="M 556 728 
Q 622 541 758 387 
Q 894 234 1080 148 
Q 1266 63 1466 63 
Q 1928 63 2103 422 
Q 2278 781 2278 1294 
Q 2278 1516 2270 1667 
Q 2263 1819 2228 1959 
Q 2169 2184 2020 2353 
Q 1872 2522 1656 2522 
Q 1441 2522 1286 2456 
Q 1131 2391 1034 2303 
Q 938 2216 863 2119 
Q 788 2022 769 2016 
L 697 2016 
Q 681 2016 657 2036 
Q 634 2056 634 2075 
L 634 4213 
Q 634 4228 654 4245 
Q 675 4263 697 4263 
L 716 4263 
Q 1147 4056 1631 4056 
Q 2106 4056 2547 4263 
L 2566 4263 
Q 2588 4263 2606 4247 
Q 2625 4231 2625 4213 
L 2625 4153 
Q 2625 4122 2613 4122 
Q 2394 3831 2064 3668 
Q 1734 3506 1381 3506 
Q 1125 3506 856 3578 
L 856 2369 
Q 1069 2541 1236 2614 
Q 1403 2688 1663 2688 
Q 2016 2688 2295 2484 
Q 2575 2281 2725 1954 
Q 2875 1628 2875 1288 
Q 2875 903 2686 575 
Q 2497 247 2172 53 
Q 1847 -141 1466 -141 
Q 1150 -141 886 21 
Q 622 184 470 459 
Q 319 734 319 1044 
Q 319 1188 412 1278 
Q 506 1369 647 1369 
Q 788 1369 883 1276 
Q 978 1184 978 1044 
Q 978 906 883 811 
Q 788 716 647 716 
Q 625 716 597 720 
Q 569 725 556 728 
z
" transform="scale(0.015625)"/>
       </defs>
       <use xlink:href="#Cmr10-2b" transform="translate(0 0.390625)"/>
       <use xlink:href="#Cmr10-35" transform="translate(77.685547 0.390625)"/>
      </g>
     </g>
    </g>
   </g>
   <g id="matplotlib.axis_2"/>
   <g id="patch_3">
    <path d="M 188.992638 273.6 
L 188.992638 7.2 
" style="fill: none; stroke: #808080; stroke-width: 2; stroke-linejoin: miter; stroke-linecap: square"/>
   </g>
   <g id="patch_4">
    <path d="M 9.720131 140.4 
L 411.153304 140.4 
" style="fill: none; stroke: #808080; stroke-width: 2; stroke-linejoin: miter; stroke-linecap: square"/>
   </g>
   <g id="line2d_11">
    <path d="M 17.44 138.976923 
L 40.922921 138.484394 
L 58.835197 137.899691 
L 72.250239 137.249822 
L 82.811454 136.521938 
L 90.193529 135.834325 
L 97.606173 134.916263 
L 102.171439 134.186305 
L 108.28796 132.916074 
L 112.820327 131.659004 
L 115.003594 130.917555 
L 118.3652 129.539912 
L 121.281061 128.033694 
L 123.705925 126.474925 
L 125.527239 125.057422 
L 127.064468 123.646142 
L 128.520352 122.07841 
L 129.976236 120.223682 
L 131.550141 117.796111 
L 132.816173 115.421739 
L 134.118525 112.451271 
L 135.177008 109.51158 
L 136.411905 105.265379 
L 137.341523 101.275244 
L 138.345795 95.885697 
L 139.120457 90.665801 
L 139.98164 83.308185 
L 140.756704 74.655695 
L 141.445651 64.543472 
L 142.145249 50.668721 
L 142.733574 34.538297 
L 143.321898 11.581826 
L 143.56435 -1 
L 143.56435 -1 
" clip-path="url(#pb8eeee62d1)" style="fill: none; stroke: #ff0000; stroke-width: 5; stroke-linecap: square"/>
   </g>
   <g id="line2d_12">
    <path d="M 148.749366 281.8 
L 149.243665 259.971419 
L 149.890933 240.045337 
L 150.61739 224.494319 
L 151.40324 212.478683 
L 152.209767 203.368539 
L 153.101584 195.745606 
L 154.038779 189.587099 
L 155.049001 184.39993 
L 156.11653 180.062128 
L 157.184058 176.566032 
L 158.398913 173.332595 
L 159.711984 170.494299 
L 160.966845 168.257197 
L 162.634753 165.818946 
L 164.379974 163.75505 
L 165.727709 162.419851 
L 167.625407 160.833778 
L 169.569906 159.486901 
L 171.560242 158.333836 
L 173.941762 157.186926 
L 177.338339 155.882981 
L 181.655192 154.633558 
L 185.630513 153.772956 
L 189.91802 153.073912 
L 195.345896 152.447544 
L 201.482256 152.00954 
L 208.097691 151.799685 
L 214.626665 151.833113 
L 220.174286 152.051564 
L 224.664212 152.370074 
L 229.999154 152.94458 
L 234.231649 153.588973 
L 239.016114 154.583879 
L 242.109694 155.427076 
L 244.53086 156.23105 
L 248.152302 157.746764 
L 250.707881 159.120388 
L 252.746617 160.462423 
L 254.770592 162.081388 
L 256.802546 164.090505 
L 258.396082 166.027336 
L 259.87057 168.198644 
L 261.256576 170.681122 
L 262.296081 172.911301 
L 263.606409 176.322567 
L 264.650609 179.680653 
L 265.662981 183.678156 
L 266.642651 188.501423 
L 267.608386 194.554905 
L 268.458736 201.425595 
L 269.159075 208.653375 
L 269.923373 218.931267 
L 270.618188 231.56539 
L 271.232026 246.86237 
L 271.831492 267.977578 
L 272.124406 281.8 
L 272.124406 281.8 
" clip-path="url(#pb8eeee62d1)" style="fill: none; stroke: #ff0000; stroke-width: 5; stroke-linecap: square"/>
   </g>
   <g id="line2d_13">
    <path d="M 277.308862 -1 
L 277.866962 24.974496 
L 278.505604 45.163823 
L 279.204109 60.58392 
L 279.974198 72.783532 
L 280.774207 82.139444 
L 281.576617 89.310946 
L 282.468184 95.522381 
L 283.538064 101.304436 
L 284.655743 106.00383 
L 285.773422 109.744605 
L 286.89059 112.79074 
L 288.320154 115.951593 
L 289.282181 117.725568 
L 290.501451 119.65946 
L 291.77319 121.378167 
L 293.759506 123.596879 
L 295.873625 125.49353 
L 298.343791 127.271949 
L 300.353688 128.460892 
L 302.902714 129.719126 
L 305.786038 130.886945 
L 309.800369 132.183624 
L 313.890016 133.221882 
L 317.747661 134.013016 
L 324.231775 135.052308 
L 330.704664 135.836958 
L 339.582118 136.642649 
L 349.994848 137.328068 
L 361.869599 137.892892 
L 378.874706 138.455654 
L 400.878728 138.933536 
L 403.433436 138.976923 
L 403.433436 138.976923 
" clip-path="url(#pb8eeee62d1)" style="fill: none; stroke: #ff0000; stroke-width: 5; stroke-linecap: square"/>
   </g>
  </g>
 </g>
 <defs>
  <clipPath id="pb8eeee62d1">
   <rect x="9.720131" y="7.2" width="401.433173" height="266.4"/>
  </clipPath>
 </defs>
</svg>
