<?xml version="1.0" encoding="utf-8" standalone="no"?>
<!DOCTYPE svg PUBLIC "-//W3C//DTD SVG 1.1//EN"
  "http://www.w3.org/Graphics/SVG/1.1/DTD/svg11.dtd">
<svg xmlns:xlink="http://www.w3.org/1999/xlink" width="420.880948pt" height="280.8pt" viewBox="0 0 420.880948 280.8" xmlns="http://www.w3.org/2000/svg" version="1.1">
 <metadata>
  <rdf:RDF xmlns:dc="http://purl.org/dc/elements/1.1/" xmlns:cc="http://creativecommons.org/ns#" xmlns:rdf="http://www.w3.org/1999/02/22-rdf-syntax-ns#">
   <cc:Work>
    <dc:type rdf:resource="http://purl.org/dc/dcmitype/StillImage"/>
    <dc:date>2022-09-10T23:29:29.600014</dc:date>
    <dc:format>image/svg+xml</dc:format>
    <dc:creator>
     <cc:Agent>
      <dc:title>Matplotlib v3.5.1, https://matplotlib.org/</dc:title>
     </cc:Agent>
    </dc:creator>
   </cc:Work>
  </rdf:RDF>
 </metadata>
 <defs>
  <style type="text/css">*{stroke-linejoin: round; stroke-linecap: butt}</style>
 </defs>
 <g id="figure_1">
  <g id="patch_1">
   <path d="M 0 280.8 
L 420.880948 280.8 
L 420.880948 0 
L 0 0 
L 0 280.8 
z
" style="fill: none"/>
  </g>
  <g id="axes_1">
   <g id="patch_2">
    <path d="M 9.719981 273.6 
L 411.160967 273.6 
L 411.160967 7.2 
L 9.719981 7.2 
z
" style="fill: #ffffff"/>
   </g>
   <g id="matplotlib.axis_1">
    <g id="xtick_1">
     <g id="line2d_1">
      <defs>
       <path id="m70973610af" d="M 0 0 
L 0 3.5 
" style="stroke: #808080; stroke-width: 0.8"/>
      </defs>
      <g>
       <use xlink:href="#m70973610af" x="17.44" y="140.4" style="fill: #808080; stroke: #808080; stroke-width: 0.8"/>
      </g>
     </g>
     <g id="text_1">
      <!-- $-5$ -->
      <g transform="translate(7.2 159.5575)scale(0.16 -0.16)">
       <defs>
        <path id="Cmsy10-a1" d="M 653 1472 
Q 600 1472 565 1512 
Q 531 1553 531 1600 
Q 531 1647 565 1687 
Q 600 1728 653 1728 
L 4325 1728 
Q 4375 1728 4408 1687 
Q 4441 1647 4441 1600 
Q 4441 1553 4408 1512 
Q 4375 1472 4325 1472 
L 653 1472 
z
" transform="scale(0.015625)"/>
        <path id="Cmr10-35" d="M 556 728 
Q 622 541 758 387 
Q 894 234 1080 148 
Q 1266 63 1466 63 
Q 1928 63 2103 422 
Q 2278 781 2278 1294 
Q 2278 1516 2270 1667 
Q 2263 1819 2228 1959 
Q 2169 2184 2020 2353 
Q 1872 2522 1656 2522 
Q 1441 2522 1286 2456 
Q 1131 2391 1034 2303 
Q 938 2216 863 2119 
Q 788 2022 769 2016 
L 697 2016 
Q 681 2016 657 2036 
Q 634 2056 634 2075 
L 634 4213 
Q 634 4228 654 4245 
Q 675 4263 697 4263 
L 716 4263 
Q 1147 4056 1631 4056 
Q 2106 4056 2547 4263 
L 2566 4263 
Q 2588 4263 2606 4247 
Q 2625 4231 2625 4213 
L 2625 4153 
Q 2625 4122 2613 4122 
Q 2394 3831 2064 3668 
Q 1734 3506 1381 3506 
Q 1125 3506 856 3578 
L 856 2369 
Q 1069 2541 1236 2614 
Q 1403 2688 1663 2688 
Q 2016 2688 2295 2484 
Q 2575 2281 2725 1954 
Q 2875 1628 2875 1288 
Q 2875 903 2686 575 
Q 2497 247 2172 53 
Q 1847 -141 1466 -141 
Q 1150 -141 886 21 
Q 622 184 470 459 
Q 319 734 319 1044 
Q 319 1188 412 1278 
Q 506 1369 647 1369 
Q 788 1369 883 1276 
Q 978 1184 978 1044 
Q 978 906 883 811 
Q 788 716 647 716 
Q 625 716 597 720 
Q 569 725 556 728 
z
" transform="scale(0.015625)"/>
       </defs>
       <use xlink:href="#Cmsy10-a1" transform="translate(0 0.390625)"/>
       <use xlink:href="#Cmr10-35" transform="translate(77.685547 0.390625)"/>
      </g>
     </g>
    </g>
    <g id="xtick_2">
     <g id="line2d_2">
      <g>
       <use xlink:href="#m70973610af" x="49.606746" y="140.4" style="fill: #808080; stroke: #808080; stroke-width: 0.8"/>
      </g>
     </g>
     <g id="text_2">
      <!-- $-4$ -->
      <g transform="translate(39.366746 159.5575)scale(0.16 -0.16)">
       <defs>
        <path id="Cmr10-34" d="M 178 1056 
L 178 1281 
L 2156 4231 
Q 2178 4263 2222 4263 
L 2316 4263 
Q 2388 4263 2388 4191 
L 2388 1281 
L 3016 1281 
L 3016 1056 
L 2388 1056 
L 2388 428 
Q 2388 297 2575 261 
Q 2763 225 3009 225 
L 3009 0 
L 1247 0 
L 1247 225 
Q 1494 225 1681 261 
Q 1869 297 1869 428 
L 1869 1056 
L 178 1056 
z
M 391 1281 
L 1906 1281 
L 1906 3547 
L 391 1281 
z
" transform="scale(0.015625)"/>
       </defs>
       <use xlink:href="#Cmsy10-a1" transform="translate(0 0.390625)"/>
       <use xlink:href="#Cmr10-34" transform="translate(77.685547 0.390625)"/>
      </g>
     </g>
    </g>
    <g id="xtick_3">
     <g id="line2d_3">
      <g>
       <use xlink:href="#m70973610af" x="81.773491" y="140.4" style="fill: #808080; stroke: #808080; stroke-width: 0.8"/>
      </g>
     </g>
     <g id="text_3">
      <!-- $-3$ -->
      <g transform="translate(71.533491 159.5575)scale(0.16 -0.16)">
       <defs>
        <path id="Cmr10-33" d="M 609 494 
Q 759 275 1012 169 
Q 1266 63 1556 63 
Q 1928 63 2084 380 
Q 2241 697 2241 1100 
Q 2241 1281 2208 1462 
Q 2175 1644 2097 1800 
Q 2019 1956 1883 2050 
Q 1747 2144 1550 2144 
L 1125 2144 
Q 1069 2144 1069 2203 
L 1069 2259 
Q 1069 2309 1125 2309 
L 1478 2338 
Q 1703 2338 1851 2506 
Q 2000 2675 2069 2917 
Q 2138 3159 2138 3378 
Q 2138 3684 1994 3881 
Q 1850 4078 1556 4078 
Q 1313 4078 1091 3986 
Q 869 3894 738 3706 
Q 750 3709 759 3711 
Q 769 3713 781 3713 
Q 925 3713 1022 3613 
Q 1119 3513 1119 3372 
Q 1119 3234 1022 3134 
Q 925 3034 781 3034 
Q 641 3034 541 3134 
Q 441 3234 441 3372 
Q 441 3647 606 3850 
Q 772 4053 1033 4158 
Q 1294 4263 1556 4263 
Q 1750 4263 1965 4205 
Q 2181 4147 2356 4039 
Q 2531 3931 2642 3762 
Q 2753 3594 2753 3378 
Q 2753 3109 2633 2881 
Q 2513 2653 2303 2487 
Q 2094 2322 1844 2241 
Q 2122 2188 2372 2031 
Q 2622 1875 2773 1631 
Q 2925 1388 2925 1106 
Q 2925 753 2731 467 
Q 2538 181 2222 20 
Q 1906 -141 1556 -141 
Q 1256 -141 954 -26 
Q 653 88 461 316 
Q 269 544 269 863 
Q 269 1022 375 1128 
Q 481 1234 641 1234 
Q 744 1234 830 1186 
Q 916 1138 964 1050 
Q 1013 963 1013 863 
Q 1013 706 903 600 
Q 794 494 641 494 
L 609 494 
z
" transform="scale(0.015625)"/>
       </defs>
       <use xlink:href="#Cmsy10-a1" transform="translate(0 0.390625)"/>
       <use xlink:href="#Cmr10-33" transform="translate(77.685547 0.390625)"/>
      </g>
     </g>
    </g>
    <g id="xtick_4">
     <g id="line2d_4">
      <g>
       <use xlink:href="#m70973610af" x="113.940237" y="140.4" style="fill: #808080; stroke: #808080; stroke-width: 0.8"/>
      </g>
     </g>
     <g id="text_4">
      <!-- $-2$ -->
      <g transform="translate(103.700237 159.5575)scale(0.16 -0.16)">
       <defs>
        <path id="Cmr10-32" d="M 319 0 
L 319 172 
Q 319 188 331 206 
L 1325 1306 
Q 1550 1550 1690 1715 
Q 1831 1881 1968 2097 
Q 2106 2313 2186 2536 
Q 2266 2759 2266 3009 
Q 2266 3272 2169 3511 
Q 2072 3750 1880 3894 
Q 1688 4038 1416 4038 
Q 1138 4038 916 3870 
Q 694 3703 603 3438 
Q 628 3444 672 3444 
Q 816 3444 917 3347 
Q 1019 3250 1019 3097 
Q 1019 2950 917 2848 
Q 816 2747 672 2747 
Q 522 2747 420 2851 
Q 319 2956 319 3097 
Q 319 3338 409 3548 
Q 500 3759 670 3923 
Q 841 4088 1055 4175 
Q 1269 4263 1509 4263 
Q 1875 4263 2190 4108 
Q 2506 3953 2690 3670 
Q 2875 3388 2875 3009 
Q 2875 2731 2753 2481 
Q 2631 2231 2440 2026 
Q 2250 1822 1953 1562 
Q 1656 1303 1563 1216 
L 838 519 
L 1453 519 
Q 1906 519 2211 526 
Q 2516 534 2534 550 
Q 2609 631 2688 1141 
L 2875 1141 
L 2694 0 
L 319 0 
z
" transform="scale(0.015625)"/>
       </defs>
       <use xlink:href="#Cmsy10-a1" transform="translate(0 0.390625)"/>
       <use xlink:href="#Cmr10-32" transform="translate(77.685547 0.390625)"/>
      </g>
     </g>
    </g>
    <g id="xtick_5">
     <g id="line2d_5">
      <g>
       <use xlink:href="#m70973610af" x="146.106983" y="140.4" style="fill: #808080; stroke: #808080; stroke-width: 0.8"/>
      </g>
     </g>
     <g id="text_5">
      <!-- $-1$ -->
      <g transform="translate(135.866983 159.5575)scale(0.16 -0.16)">
       <defs>
        <path id="Cmr10-31" d="M 594 0 
L 594 225 
Q 1394 225 1394 428 
L 1394 3788 
Q 1063 3628 556 3628 
L 556 3853 
Q 1341 3853 1741 4263 
L 1831 4263 
Q 1853 4263 1873 4245 
Q 1894 4228 1894 4206 
L 1894 428 
Q 1894 225 2694 225 
L 2694 0 
L 594 0 
z
" transform="scale(0.015625)"/>
       </defs>
       <use xlink:href="#Cmsy10-a1" transform="translate(0 0.390625)"/>
       <use xlink:href="#Cmr10-31" transform="translate(77.685547 0.390625)"/>
      </g>
     </g>
    </g>
    <g id="xtick_6">
     <g id="line2d_6">
      <g>
       <use xlink:href="#m70973610af" x="178.273728" y="140.4" style="fill: #808080; stroke: #808080; stroke-width: 0.8"/>
      </g>
     </g>
    </g>
    <g id="xtick_7">
     <g id="line2d_7">
      <g>
       <use xlink:href="#m70973610af" x="210.440474" y="140.4" style="fill: #808080; stroke: #808080; stroke-width: 0.8"/>
      </g>
     </g>
     <g id="text_6">
      <!-- $+1$ -->
      <g transform="translate(200.200474 159.5575)scale(0.16 -0.16)">
       <defs>
        <path id="Cmr10-2b" d="M 481 1472 
Q 428 1472 393 1512 
Q 359 1553 359 1600 
Q 359 1647 393 1687 
Q 428 1728 481 1728 
L 2363 1728 
L 2363 3616 
Q 2363 3666 2400 3698 
Q 2438 3731 2491 3731 
Q 2538 3731 2578 3698 
Q 2619 3666 2619 3616 
L 2619 1728 
L 4500 1728 
Q 4547 1728 4581 1687 
Q 4616 1647 4616 1600 
Q 4616 1553 4581 1512 
Q 4547 1472 4500 1472 
L 2619 1472 
L 2619 -416 
Q 2619 -466 2578 -498 
Q 2538 -531 2491 -531 
Q 2438 -531 2400 -498 
Q 2363 -466 2363 -416 
L 2363 1472 
L 481 1472 
z
" transform="scale(0.015625)"/>
       </defs>
       <use xlink:href="#Cmr10-2b" transform="translate(0 0.390625)"/>
       <use xlink:href="#Cmr10-31" transform="translate(77.685547 0.390625)"/>
      </g>
     </g>
    </g>
    <g id="xtick_8">
     <g id="line2d_8">
      <g>
       <use xlink:href="#m70973610af" x="242.607219" y="140.4" style="fill: #808080; stroke: #808080; stroke-width: 0.8"/>
      </g>
     </g>
     <g id="text_7">
      <!-- $+2$ -->
      <g transform="translate(232.367219 159.5575)scale(0.16 -0.16)">
       <use xlink:href="#Cmr10-2b" transform="translate(0 0.390625)"/>
       <use xlink:href="#Cmr10-32" transform="translate(77.685547 0.390625)"/>
      </g>
     </g>
    </g>
    <g id="xtick_9">
     <g id="line2d_9">
      <g>
       <use xlink:href="#m70973610af" x="274.773965" y="140.4" style="fill: #808080; stroke: #808080; stroke-width: 0.8"/>
      </g>
     </g>
     <g id="text_8">
      <!-- $+3$ -->
      <g transform="translate(264.533965 159.5575)scale(0.16 -0.16)">
       <use xlink:href="#Cmr10-2b" transform="translate(0 0.390625)"/>
       <use xlink:href="#Cmr10-33" transform="translate(77.685547 0.390625)"/>
      </g>
     </g>
    </g>
    <g id="xtick_10">
     <g id="line2d_10">
      <g>
       <use xlink:href="#m70973610af" x="306.940711" y="140.4" style="fill: #808080; stroke: #808080; stroke-width: 0.8"/>
      </g>
     </g>
     <g id="text_9">
      <!-- $+4$ -->
      <g transform="translate(296.700711 159.5575)scale(0.16 -0.16)">
       <use xlink:href="#Cmr10-2b" transform="translate(0 0.390625)"/>
       <use xlink:href="#Cmr10-34" transform="translate(77.685547 0.390625)"/>
      </g>
     </g>
    </g>
    <g id="xtick_11">
     <g id="line2d_11">
      <g>
       <use xlink:href="#m70973610af" x="339.107456" y="140.4" style="fill: #808080; stroke: #808080; stroke-width: 0.8"/>
      </g>
     </g>
     <g id="text_10">
      <!-- $+5$ -->
      <g transform="translate(328.867456 159.5575)scale(0.16 -0.16)">
       <use xlink:href="#Cmr10-2b" transform="translate(0 0.390625)"/>
       <use xlink:href="#Cmr10-35" transform="translate(77.685547 0.390625)"/>
      </g>
     </g>
    </g>
    <g id="xtick_12">
     <g id="line2d_12">
      <g>
       <use xlink:href="#m70973610af" x="371.274202" y="140.4" style="fill: #808080; stroke: #808080; stroke-width: 0.8"/>
      </g>
     </g>
     <g id="text_11">
      <!-- $+6$ -->
      <g transform="translate(361.034202 159.5575)scale(0.16 -0.16)">
       <defs>
        <path id="Cmr10-36" d="M 1600 -141 
Q 1203 -141 937 70 
Q 672 281 526 617 
Q 381 953 325 1322 
Q 269 1691 269 2069 
Q 269 2575 466 3084 
Q 663 3594 1045 3928 
Q 1428 4263 1953 4263 
Q 2172 4263 2361 4180 
Q 2550 4097 2658 3936 
Q 2766 3775 2766 3547 
Q 2766 3416 2677 3327 
Q 2588 3238 2456 3238 
Q 2331 3238 2240 3328 
Q 2150 3419 2150 3547 
Q 2150 3672 2240 3762 
Q 2331 3853 2456 3853 
L 2491 3853 
Q 2409 3969 2261 4023 
Q 2113 4078 1953 4078 
Q 1759 4078 1595 3993 
Q 1431 3909 1300 3765 
Q 1169 3622 1081 3448 
Q 994 3275 945 3053 
Q 897 2831 884 2637 
Q 872 2444 872 2150 
Q 984 2413 1190 2580 
Q 1397 2747 1656 2747 
Q 1941 2747 2175 2631 
Q 2409 2516 2578 2311 
Q 2747 2106 2836 1843 
Q 2925 1581 2925 1313 
Q 2925 938 2758 598 
Q 2591 259 2287 59 
Q 1984 -141 1600 -141 
z
M 1600 63 
Q 1847 63 1997 175 
Q 2147 288 2217 473 
Q 2288 659 2305 848 
Q 2322 1038 2322 1313 
Q 2322 1675 2287 1931 
Q 2253 2188 2100 2383 
Q 1947 2578 1631 2578 
Q 1372 2578 1205 2403 
Q 1038 2228 961 1961 
Q 884 1694 884 1447 
Q 884 1363 891 1319 
Q 891 1309 889 1303 
Q 888 1297 884 1288 
Q 884 1013 940 731 
Q 997 450 1156 256 
Q 1316 63 1600 63 
z
" transform="scale(0.015625)"/>
       </defs>
       <use xlink:href="#Cmr10-2b" transform="translate(0 0.390625)"/>
       <use xlink:href="#Cmr10-36" transform="translate(77.685547 0.390625)"/>
      </g>
     </g>
    </g>
    <g id="xtick_13">
     <g id="line2d_13">
      <g>
       <use xlink:href="#m70973610af" x="403.440948" y="140.4" style="fill: #808080; stroke: #808080; stroke-width: 0.8"/>
      </g>
     </g>
     <g id="text_12">
      <!-- $+7$ -->
      <g transform="translate(393.200948 159.5575)scale(0.16 -0.16)">
       <defs>
        <path id="Cmr10-37" d="M 1113 166 
Q 1113 522 1175 862 
Q 1238 1203 1358 1536 
Q 1478 1869 1648 2189 
Q 1819 2509 2022 2791 
L 2606 3603 
L 1875 3603 
Q 738 3603 703 3572 
Q 619 3469 544 2981 
L 359 2981 
L 569 4325 
L 756 4325 
L 756 4306 
Q 756 4191 1147 4156 
Q 1538 4122 1913 4122 
L 3103 4122 
L 3103 3956 
Q 3103 3950 3101 3947 
Q 3100 3944 3097 3938 
L 2216 2700 
Q 1891 2219 1809 1631 
Q 1728 1044 1728 166 
Q 1728 41 1637 -50 
Q 1547 -141 1422 -141 
Q 1294 -141 1203 -50 
Q 1113 41 1113 166 
z
" transform="scale(0.015625)"/>
       </defs>
       <use xlink:href="#Cmr10-2b" transform="translate(0 0.421875)"/>
       <use xlink:href="#Cmr10-37" transform="translate(77.685547 0.421875)"/>
      </g>
     </g>
    </g>
   </g>
   <g id="matplotlib.axis_2"/>
   <g id="patch_3">
    <path d="M 178.273728 273.6 
L 178.273728 7.2 
" style="fill: none; stroke: #808080; stroke-width: 2; stroke-linejoin: miter; stroke-linecap: square"/>
   </g>
   <g id="patch_4">
    <path d="M 9.719981 140.4 
L 411.160967 140.4 
" style="fill: none; stroke: #808080; stroke-width: 2; stroke-linejoin: miter; stroke-linecap: square"/>
   </g>
   <g id="line2d_14">
    <path d="M 17.44 143.601923 
L 40.69093 143.579025 
L 54.146704 143.332692 
L 61.471078 143.030857 
L 68.067261 142.572837 
L 73.795734 141.939575 
L 76.597746 141.50963 
L 79.858558 140.868168 
L 83.569518 139.883001 
L 86.495787 138.834307 
L 88.60235 137.872724 
L 91.40558 136.220456 
L 92.984148 135.038893 
L 94.876669 133.298491 
L 96.696536 131.182024 
L 97.885563 129.488537 
L 98.995996 127.620838 
L 100.098393 125.422966 
L 101.353943 122.383012 
L 102.609492 118.582764 
L 103.688276 114.491399 
L 104.62388 110.102563 
L 105.491199 105.094263 
L 106.358517 98.85832 
L 107.281183 90.332199 
L 108.087219 80.572386 
L 108.861374 68.161869 
L 109.593022 52.235709 
L 110.220149 33.470212 
L 110.779066 10.347052 
L 110.995357 -1 
L 110.995357 -1 
" clip-path="url(#p533a7200cc)" style="fill: none; stroke: #ff0000; stroke-width: 3; stroke-linecap: square"/>
   </g>
   <g id="line2d_15">
    <path d="M 118.501487 281.8 
L 119.167047 268.747364 
L 119.992723 256.828119 
L 120.790087 248.330146 
L 121.559613 242.077307 
L 122.545797 236.06753 
L 123.456553 231.99513 
L 124.36731 229.001256 
L 125.193532 227.035692 
L 126.025447 225.662187 
L 126.857362 224.8195 
L 127.411971 224.526274 
L 128.158647 224.449742 
L 128.905323 224.724873 
L 129.651998 225.345918 
L 130.398674 226.316229 
L 131.254133 227.873619 
L 132.109592 229.940283 
L 132.994236 232.669945 
L 133.878879 236.086592 
L 134.762733 240.306199 
L 135.758667 246.23799 
L 136.68991 253.208272 
L 137.68759 262.689533 
L 138.538883 272.999891 
L 139.131542 281.8 
L 139.131542 281.8 
" clip-path="url(#p533a7200cc)" style="fill: none; stroke: #ff0000; stroke-width: 3; stroke-linecap: square"/>
   </g>
   <g id="line2d_16">
    <path d="M 151.301264 -1 
L 152.065724 19.117891 
L 152.877194 35.448343 
L 153.781839 49.535808 
L 154.686485 60.61129 
L 155.691646 70.425685 
L 156.766333 78.833626 
L 157.918892 86.114996 
L 159.07145 92.07155 
L 160.306868 97.355252 
L 161.33609 101.084451 
L 162.746627 105.424286 
L 164.271883 109.336134 
L 165.964352 112.952286 
L 167.441172 115.624841 
L 169.322599 118.523064 
L 171.275428 121.061302 
L 173.765139 123.767178 
L 176.348228 126.098217 
L 179.246898 128.282194 
L 182.381245 130.259428 
L 185.606491 131.98262 
L 188.287177 133.231466 
L 191.254492 134.463238 
L 196.004834 136.187542 
L 201.323919 137.866067 
L 209.700149 140.20308 
L 225.303207 144.428605 
L 230.520562 146.051163 
L 236.208468 148.117733 
L 239.666593 149.607236 
L 242.934662 151.250258 
L 246.076619 153.126597 
L 248.294407 154.686586 
L 250.546369 156.535189 
L 252.978191 158.928125 
L 254.688424 160.937695 
L 256.570151 163.564933 
L 258.215823 166.33405 
L 259.852864 169.677101 
L 260.941734 172.328898 
L 262.299707 176.272815 
L 263.466477 180.406749 
L 264.462457 184.666958 
L 265.624433 190.798336 
L 266.629674 197.503629 
L 267.483337 204.64139 
L 268.358631 213.923602 
L 269.233925 226.128808 
L 269.93416 239.063435 
L 270.62973 256.231149 
L 271.271794 278.122584 
L 271.360456 281.8 
L 271.360456 281.8 
" clip-path="url(#p533a7200cc)" style="fill: none; stroke: #ff0000; stroke-width: 3; stroke-linecap: square"/>
   </g>
   <g id="line2d_17">
    <path d="M 278.351925 -1 
L 278.994692 20.063749 
L 279.746716 37.798664 
L 280.606172 52.473215 
L 281.465628 63.384089 
L 282.355411 72.07901 
L 283.413279 80.091994 
L 284.514072 86.588181 
L 285.614865 91.77047 
L 286.755181 96.139637 
L 287.895496 99.753906 
L 289.255292 103.32492 
L 290.498185 106.053073 
L 291.922872 108.698413 
L 293.426888 111.05732 
L 294.935037 113.073683 
L 296.843524 115.235792 
L 298.590124 116.915647 
L 301.124894 118.964529 
L 302.827269 120.136966 
L 305.563996 121.756198 
L 308.59934 123.253329 
L 311.314923 124.387912 
L 314.277738 125.453455 
L 318.724543 126.792292 
L 322.409928 127.719642 
L 327.534303 128.802745 
L 333.480671 129.83329 
L 341.001948 130.884762 
L 350.339618 131.914481 
L 360.875615 132.823741 
L 373.697033 133.685248 
L 388.911911 134.472994 
L 403.440948 135.063462 
L 403.440948 135.063462 
" clip-path="url(#p533a7200cc)" style="fill: none; stroke: #ff0000; stroke-width: 3; stroke-linecap: square"/>
   </g>
  </g>
 </g>
 <defs>
  <clipPath id="p533a7200cc">
   <rect x="9.719981" y="7.2" width="401.440986" height="266.4"/>
  </clipPath>
 </defs>
</svg>
