<?xml version="1.0" encoding="utf-8" standalone="no"?>
<!DOCTYPE svg PUBLIC "-//W3C//DTD SVG 1.1//EN"
  "http://www.w3.org/Graphics/SVG/1.1/DTD/svg11.dtd">
<svg xmlns:xlink="http://www.w3.org/1999/xlink" width="420.610515pt" height="280.8pt" viewBox="0 0 420.610515 280.8" xmlns="http://www.w3.org/2000/svg" version="1.1">
 <metadata>
  <rdf:RDF xmlns:dc="http://purl.org/dc/elements/1.1/" xmlns:cc="http://creativecommons.org/ns#" xmlns:rdf="http://www.w3.org/1999/02/22-rdf-syntax-ns#">
   <cc:Work>
    <dc:type rdf:resource="http://purl.org/dc/dcmitype/StillImage"/>
    <dc:date>2022-09-10T23:29:34.598741</dc:date>
    <dc:format>image/svg+xml</dc:format>
    <dc:creator>
     <cc:Agent>
      <dc:title>Matplotlib v3.5.1, https://matplotlib.org/</dc:title>
     </cc:Agent>
    </dc:creator>
   </cc:Work>
  </rdf:RDF>
 </metadata>
 <defs>
  <style type="text/css">*{stroke-linejoin: round; stroke-linecap: butt}</style>
 </defs>
 <g id="figure_1">
  <g id="patch_1">
   <path d="M 0 280.8 
L 420.610515 280.8 
L 420.610515 0 
L 0 0 
L 0 280.8 
z
" style="fill: none"/>
  </g>
  <g id="axes_1">
   <g id="patch_2">
    <path d="M 9.72539 273.6 
L 410.885125 273.6 
L 410.885125 7.2 
L 9.72539 7.2 
z
" style="fill: #ffffff"/>
   </g>
   <g id="matplotlib.axis_1">
    <g id="xtick_1">
     <g id="line2d_1">
      <defs>
       <path id="m68f95ff6c4" d="M 0 0 
L 0 3.5 
" style="stroke: #808080; stroke-width: 0.8"/>
      </defs>
      <g>
       <use xlink:href="#m68f95ff6c4" x="17.44" y="55.015385" style="fill: #808080; stroke: #808080; stroke-width: 0.8"/>
      </g>
     </g>
     <g id="text_1">
      <!-- $-7$ -->
      <g transform="translate(7.2 74.172885)scale(0.16 -0.16)">
       <defs>
        <path id="Cmsy10-a1" d="M 653 1472 
Q 600 1472 565 1512 
Q 531 1553 531 1600 
Q 531 1647 565 1687 
Q 600 1728 653 1728 
L 4325 1728 
Q 4375 1728 4408 1687 
Q 4441 1647 4441 1600 
Q 4441 1553 4408 1512 
Q 4375 1472 4325 1472 
L 653 1472 
z
" transform="scale(0.015625)"/>
        <path id="Cmr10-37" d="M 1113 166 
Q 1113 522 1175 862 
Q 1238 1203 1358 1536 
Q 1478 1869 1648 2189 
Q 1819 2509 2022 2791 
L 2606 3603 
L 1875 3603 
Q 738 3603 703 3572 
Q 619 3469 544 2981 
L 359 2981 
L 569 4325 
L 756 4325 
L 756 4306 
Q 756 4191 1147 4156 
Q 1538 4122 1913 4122 
L 3103 4122 
L 3103 3956 
Q 3103 3950 3101 3947 
Q 3100 3944 3097 3938 
L 2216 2700 
Q 1891 2219 1809 1631 
Q 1728 1044 1728 166 
Q 1728 41 1637 -50 
Q 1547 -141 1422 -141 
Q 1294 -141 1203 -50 
Q 1113 41 1113 166 
z
" transform="scale(0.015625)"/>
       </defs>
       <use xlink:href="#Cmsy10-a1" transform="translate(0 0.421875)"/>
       <use xlink:href="#Cmr10-37" transform="translate(77.685547 0.421875)"/>
      </g>
     </g>
    </g>
    <g id="xtick_2">
     <g id="line2d_2">
      <g>
       <use xlink:href="#m68f95ff6c4" x="44.99218" y="55.015385" style="fill: #808080; stroke: #808080; stroke-width: 0.8"/>
      </g>
     </g>
     <g id="text_2">
      <!-- $-6$ -->
      <g transform="translate(34.75218 74.172885)scale(0.16 -0.16)">
       <defs>
        <path id="Cmr10-36" d="M 1600 -141 
Q 1203 -141 937 70 
Q 672 281 526 617 
Q 381 953 325 1322 
Q 269 1691 269 2069 
Q 269 2575 466 3084 
Q 663 3594 1045 3928 
Q 1428 4263 1953 4263 
Q 2172 4263 2361 4180 
Q 2550 4097 2658 3936 
Q 2766 3775 2766 3547 
Q 2766 3416 2677 3327 
Q 2588 3238 2456 3238 
Q 2331 3238 2240 3328 
Q 2150 3419 2150 3547 
Q 2150 3672 2240 3762 
Q 2331 3853 2456 3853 
L 2491 3853 
Q 2409 3969 2261 4023 
Q 2113 4078 1953 4078 
Q 1759 4078 1595 3993 
Q 1431 3909 1300 3765 
Q 1169 3622 1081 3448 
Q 994 3275 945 3053 
Q 897 2831 884 2637 
Q 872 2444 872 2150 
Q 984 2413 1190 2580 
Q 1397 2747 1656 2747 
Q 1941 2747 2175 2631 
Q 2409 2516 2578 2311 
Q 2747 2106 2836 1843 
Q 2925 1581 2925 1313 
Q 2925 938 2758 598 
Q 2591 259 2287 59 
Q 1984 -141 1600 -141 
z
M 1600 63 
Q 1847 63 1997 175 
Q 2147 288 2217 473 
Q 2288 659 2305 848 
Q 2322 1038 2322 1313 
Q 2322 1675 2287 1931 
Q 2253 2188 2100 2383 
Q 1947 2578 1631 2578 
Q 1372 2578 1205 2403 
Q 1038 2228 961 1961 
Q 884 1694 884 1447 
Q 884 1363 891 1319 
Q 891 1309 889 1303 
Q 888 1297 884 1288 
Q 884 1013 940 731 
Q 997 450 1156 256 
Q 1316 63 1600 63 
z
" transform="scale(0.015625)"/>
       </defs>
       <use xlink:href="#Cmsy10-a1" transform="translate(0 0.390625)"/>
       <use xlink:href="#Cmr10-36" transform="translate(77.685547 0.390625)"/>
      </g>
     </g>
    </g>
    <g id="xtick_3">
     <g id="line2d_3">
      <g>
       <use xlink:href="#m68f95ff6c4" x="72.544359" y="55.015385" style="fill: #808080; stroke: #808080; stroke-width: 0.8"/>
      </g>
     </g>
     <g id="text_3">
      <!-- $-5$ -->
      <g transform="translate(62.304359 74.172885)scale(0.16 -0.16)">
       <defs>
        <path id="Cmr10-35" d="M 556 728 
Q 622 541 758 387 
Q 894 234 1080 148 
Q 1266 63 1466 63 
Q 1928 63 2103 422 
Q 2278 781 2278 1294 
Q 2278 1516 2270 1667 
Q 2263 1819 2228 1959 
Q 2169 2184 2020 2353 
Q 1872 2522 1656 2522 
Q 1441 2522 1286 2456 
Q 1131 2391 1034 2303 
Q 938 2216 863 2119 
Q 788 2022 769 2016 
L 697 2016 
Q 681 2016 657 2036 
Q 634 2056 634 2075 
L 634 4213 
Q 634 4228 654 4245 
Q 675 4263 697 4263 
L 716 4263 
Q 1147 4056 1631 4056 
Q 2106 4056 2547 4263 
L 2566 4263 
Q 2588 4263 2606 4247 
Q 2625 4231 2625 4213 
L 2625 4153 
Q 2625 4122 2613 4122 
Q 2394 3831 2064 3668 
Q 1734 3506 1381 3506 
Q 1125 3506 856 3578 
L 856 2369 
Q 1069 2541 1236 2614 
Q 1403 2688 1663 2688 
Q 2016 2688 2295 2484 
Q 2575 2281 2725 1954 
Q 2875 1628 2875 1288 
Q 2875 903 2686 575 
Q 2497 247 2172 53 
Q 1847 -141 1466 -141 
Q 1150 -141 886 21 
Q 622 184 470 459 
Q 319 734 319 1044 
Q 319 1188 412 1278 
Q 506 1369 647 1369 
Q 788 1369 883 1276 
Q 978 1184 978 1044 
Q 978 906 883 811 
Q 788 716 647 716 
Q 625 716 597 720 
Q 569 725 556 728 
z
" transform="scale(0.015625)"/>
       </defs>
       <use xlink:href="#Cmsy10-a1" transform="translate(0 0.390625)"/>
       <use xlink:href="#Cmr10-35" transform="translate(77.685547 0.390625)"/>
      </g>
     </g>
    </g>
    <g id="xtick_4">
     <g id="line2d_4">
      <g>
       <use xlink:href="#m68f95ff6c4" x="100.096539" y="55.015385" style="fill: #808080; stroke: #808080; stroke-width: 0.8"/>
      </g>
     </g>
     <g id="text_4">
      <!-- $-4$ -->
      <g transform="translate(89.856539 74.172885)scale(0.16 -0.16)">
       <defs>
        <path id="Cmr10-34" d="M 178 1056 
L 178 1281 
L 2156 4231 
Q 2178 4263 2222 4263 
L 2316 4263 
Q 2388 4263 2388 4191 
L 2388 1281 
L 3016 1281 
L 3016 1056 
L 2388 1056 
L 2388 428 
Q 2388 297 2575 261 
Q 2763 225 3009 225 
L 3009 0 
L 1247 0 
L 1247 225 
Q 1494 225 1681 261 
Q 1869 297 1869 428 
L 1869 1056 
L 178 1056 
z
M 391 1281 
L 1906 1281 
L 1906 3547 
L 391 1281 
z
" transform="scale(0.015625)"/>
       </defs>
       <use xlink:href="#Cmsy10-a1" transform="translate(0 0.390625)"/>
       <use xlink:href="#Cmr10-34" transform="translate(77.685547 0.390625)"/>
      </g>
     </g>
    </g>
    <g id="xtick_5">
     <g id="line2d_5">
      <g>
       <use xlink:href="#m68f95ff6c4" x="127.648719" y="55.015385" style="fill: #808080; stroke: #808080; stroke-width: 0.8"/>
      </g>
     </g>
     <g id="text_5">
      <!-- $-3$ -->
      <g transform="translate(117.408719 74.172885)scale(0.16 -0.16)">
       <defs>
        <path id="Cmr10-33" d="M 609 494 
Q 759 275 1012 169 
Q 1266 63 1556 63 
Q 1928 63 2084 380 
Q 2241 697 2241 1100 
Q 2241 1281 2208 1462 
Q 2175 1644 2097 1800 
Q 2019 1956 1883 2050 
Q 1747 2144 1550 2144 
L 1125 2144 
Q 1069 2144 1069 2203 
L 1069 2259 
Q 1069 2309 1125 2309 
L 1478 2338 
Q 1703 2338 1851 2506 
Q 2000 2675 2069 2917 
Q 2138 3159 2138 3378 
Q 2138 3684 1994 3881 
Q 1850 4078 1556 4078 
Q 1313 4078 1091 3986 
Q 869 3894 738 3706 
Q 750 3709 759 3711 
Q 769 3713 781 3713 
Q 925 3713 1022 3613 
Q 1119 3513 1119 3372 
Q 1119 3234 1022 3134 
Q 925 3034 781 3034 
Q 641 3034 541 3134 
Q 441 3234 441 3372 
Q 441 3647 606 3850 
Q 772 4053 1033 4158 
Q 1294 4263 1556 4263 
Q 1750 4263 1965 4205 
Q 2181 4147 2356 4039 
Q 2531 3931 2642 3762 
Q 2753 3594 2753 3378 
Q 2753 3109 2633 2881 
Q 2513 2653 2303 2487 
Q 2094 2322 1844 2241 
Q 2122 2188 2372 2031 
Q 2622 1875 2773 1631 
Q 2925 1388 2925 1106 
Q 2925 753 2731 467 
Q 2538 181 2222 20 
Q 1906 -141 1556 -141 
Q 1256 -141 954 -26 
Q 653 88 461 316 
Q 269 544 269 863 
Q 269 1022 375 1128 
Q 481 1234 641 1234 
Q 744 1234 830 1186 
Q 916 1138 964 1050 
Q 1013 963 1013 863 
Q 1013 706 903 600 
Q 794 494 641 494 
L 609 494 
z
" transform="scale(0.015625)"/>
       </defs>
       <use xlink:href="#Cmsy10-a1" transform="translate(0 0.390625)"/>
       <use xlink:href="#Cmr10-33" transform="translate(77.685547 0.390625)"/>
      </g>
     </g>
    </g>
    <g id="xtick_6">
     <g id="line2d_6">
      <g>
       <use xlink:href="#m68f95ff6c4" x="155.200898" y="55.015385" style="fill: #808080; stroke: #808080; stroke-width: 0.8"/>
      </g>
     </g>
     <g id="text_6">
      <!-- $-2$ -->
      <g transform="translate(144.960898 74.172885)scale(0.16 -0.16)">
       <defs>
        <path id="Cmr10-32" d="M 319 0 
L 319 172 
Q 319 188 331 206 
L 1325 1306 
Q 1550 1550 1690 1715 
Q 1831 1881 1968 2097 
Q 2106 2313 2186 2536 
Q 2266 2759 2266 3009 
Q 2266 3272 2169 3511 
Q 2072 3750 1880 3894 
Q 1688 4038 1416 4038 
Q 1138 4038 916 3870 
Q 694 3703 603 3438 
Q 628 3444 672 3444 
Q 816 3444 917 3347 
Q 1019 3250 1019 3097 
Q 1019 2950 917 2848 
Q 816 2747 672 2747 
Q 522 2747 420 2851 
Q 319 2956 319 3097 
Q 319 3338 409 3548 
Q 500 3759 670 3923 
Q 841 4088 1055 4175 
Q 1269 4263 1509 4263 
Q 1875 4263 2190 4108 
Q 2506 3953 2690 3670 
Q 2875 3388 2875 3009 
Q 2875 2731 2753 2481 
Q 2631 2231 2440 2026 
Q 2250 1822 1953 1562 
Q 1656 1303 1563 1216 
L 838 519 
L 1453 519 
Q 1906 519 2211 526 
Q 2516 534 2534 550 
Q 2609 631 2688 1141 
L 2875 1141 
L 2694 0 
L 319 0 
z
" transform="scale(0.015625)"/>
       </defs>
       <use xlink:href="#Cmsy10-a1" transform="translate(0 0.390625)"/>
       <use xlink:href="#Cmr10-32" transform="translate(77.685547 0.390625)"/>
      </g>
     </g>
    </g>
    <g id="xtick_7">
     <g id="line2d_7">
      <g>
       <use xlink:href="#m68f95ff6c4" x="182.753078" y="55.015385" style="fill: #808080; stroke: #808080; stroke-width: 0.8"/>
      </g>
     </g>
     <g id="text_7">
      <!-- $-1$ -->
      <g transform="translate(172.513078 74.172885)scale(0.16 -0.16)">
       <defs>
        <path id="Cmr10-31" d="M 594 0 
L 594 225 
Q 1394 225 1394 428 
L 1394 3788 
Q 1063 3628 556 3628 
L 556 3853 
Q 1341 3853 1741 4263 
L 1831 4263 
Q 1853 4263 1873 4245 
Q 1894 4228 1894 4206 
L 1894 428 
Q 1894 225 2694 225 
L 2694 0 
L 594 0 
z
" transform="scale(0.015625)"/>
       </defs>
       <use xlink:href="#Cmsy10-a1" transform="translate(0 0.390625)"/>
       <use xlink:href="#Cmr10-31" transform="translate(77.685547 0.390625)"/>
      </g>
     </g>
    </g>
    <g id="xtick_8">
     <g id="line2d_8">
      <g>
       <use xlink:href="#m68f95ff6c4" x="210.305257" y="55.015385" style="fill: #808080; stroke: #808080; stroke-width: 0.8"/>
      </g>
     </g>
    </g>
    <g id="xtick_9">
     <g id="line2d_9">
      <g>
       <use xlink:href="#m68f95ff6c4" x="237.857437" y="55.015385" style="fill: #808080; stroke: #808080; stroke-width: 0.8"/>
      </g>
     </g>
     <g id="text_8">
      <!-- $+1$ -->
      <g transform="translate(227.617437 74.172885)scale(0.16 -0.16)">
       <defs>
        <path id="Cmr10-2b" d="M 481 1472 
Q 428 1472 393 1512 
Q 359 1553 359 1600 
Q 359 1647 393 1687 
Q 428 1728 481 1728 
L 2363 1728 
L 2363 3616 
Q 2363 3666 2400 3698 
Q 2438 3731 2491 3731 
Q 2538 3731 2578 3698 
Q 2619 3666 2619 3616 
L 2619 1728 
L 4500 1728 
Q 4547 1728 4581 1687 
Q 4616 1647 4616 1600 
Q 4616 1553 4581 1512 
Q 4547 1472 4500 1472 
L 2619 1472 
L 2619 -416 
Q 2619 -466 2578 -498 
Q 2538 -531 2491 -531 
Q 2438 -531 2400 -498 
Q 2363 -466 2363 -416 
L 2363 1472 
L 481 1472 
z
" transform="scale(0.015625)"/>
       </defs>
       <use xlink:href="#Cmr10-2b" transform="translate(0 0.390625)"/>
       <use xlink:href="#Cmr10-31" transform="translate(77.685547 0.390625)"/>
      </g>
     </g>
    </g>
    <g id="xtick_10">
     <g id="line2d_10">
      <g>
       <use xlink:href="#m68f95ff6c4" x="265.409617" y="55.015385" style="fill: #808080; stroke: #808080; stroke-width: 0.8"/>
      </g>
     </g>
     <g id="text_9">
      <!-- $+2$ -->
      <g transform="translate(255.169617 74.172885)scale(0.16 -0.16)">
       <use xlink:href="#Cmr10-2b" transform="translate(0 0.390625)"/>
       <use xlink:href="#Cmr10-32" transform="translate(77.685547 0.390625)"/>
      </g>
     </g>
    </g>
    <g id="xtick_11">
     <g id="line2d_11">
      <g>
       <use xlink:href="#m68f95ff6c4" x="292.961796" y="55.015385" style="fill: #808080; stroke: #808080; stroke-width: 0.8"/>
      </g>
     </g>
     <g id="text_10">
      <!-- $+3$ -->
      <g transform="translate(282.721796 74.172885)scale(0.16 -0.16)">
       <use xlink:href="#Cmr10-2b" transform="translate(0 0.390625)"/>
       <use xlink:href="#Cmr10-33" transform="translate(77.685547 0.390625)"/>
      </g>
     </g>
    </g>
    <g id="xtick_12">
     <g id="line2d_12">
      <g>
       <use xlink:href="#m68f95ff6c4" x="320.513976" y="55.015385" style="fill: #808080; stroke: #808080; stroke-width: 0.8"/>
      </g>
     </g>
     <g id="text_11">
      <!-- $+4$ -->
      <g transform="translate(310.273976 74.172885)scale(0.16 -0.16)">
       <use xlink:href="#Cmr10-2b" transform="translate(0 0.390625)"/>
       <use xlink:href="#Cmr10-34" transform="translate(77.685547 0.390625)"/>
      </g>
     </g>
    </g>
    <g id="xtick_13">
     <g id="line2d_13">
      <g>
       <use xlink:href="#m68f95ff6c4" x="348.066156" y="55.015385" style="fill: #808080; stroke: #808080; stroke-width: 0.8"/>
      </g>
     </g>
     <g id="text_12">
      <!-- $+5$ -->
      <g transform="translate(337.826156 74.172885)scale(0.16 -0.16)">
       <use xlink:href="#Cmr10-2b" transform="translate(0 0.390625)"/>
       <use xlink:href="#Cmr10-35" transform="translate(77.685547 0.390625)"/>
      </g>
     </g>
    </g>
    <g id="xtick_14">
     <g id="line2d_14">
      <g>
       <use xlink:href="#m68f95ff6c4" x="375.618335" y="55.015385" style="fill: #808080; stroke: #808080; stroke-width: 0.8"/>
      </g>
     </g>
     <g id="text_13">
      <!-- $+6$ -->
      <g transform="translate(365.378335 74.172885)scale(0.16 -0.16)">
       <use xlink:href="#Cmr10-2b" transform="translate(0 0.390625)"/>
       <use xlink:href="#Cmr10-36" transform="translate(77.685547 0.390625)"/>
      </g>
     </g>
    </g>
    <g id="xtick_15">
     <g id="line2d_15">
      <g>
       <use xlink:href="#m68f95ff6c4" x="403.170515" y="55.015385" style="fill: #808080; stroke: #808080; stroke-width: 0.8"/>
      </g>
     </g>
     <g id="text_14">
      <!-- $+7$ -->
      <g transform="translate(392.930515 74.172885)scale(0.16 -0.16)">
       <use xlink:href="#Cmr10-2b" transform="translate(0 0.421875)"/>
       <use xlink:href="#Cmr10-37" transform="translate(77.685547 0.421875)"/>
      </g>
     </g>
    </g>
   </g>
   <g id="matplotlib.axis_2"/>
   <g id="patch_3">
    <path d="M 210.305257 273.6 
L 210.305257 7.2 
" style="fill: none; stroke: #808080; stroke-width: 2; stroke-linejoin: miter; stroke-linecap: square"/>
   </g>
   <g id="patch_4">
    <path d="M 9.72539 55.015385 
L 410.885125 55.015385 
" style="fill: none; stroke: #808080; stroke-width: 2; stroke-linejoin: miter; stroke-linecap: square"/>
   </g>
   <g id="line2d_16">
    <path d="M 17.44 62.297761 
L 23.580116 63.139878 
L 31.078546 64.416459 
L 35.900523 65.430245 
L 41.530354 66.874198 
L 44.075724 67.644389 
L 48.140775 69.068493 
L 51.85267 70.63087 
L 55.903485 72.713749 
L 58.962111 74.631386 
L 61.02938 76.143691 
L 63.185779 77.951862 
L 66.032976 80.792423 
L 68.814562 84.219793 
L 71.714431 88.738617 
L 74.150626 93.576738 
L 75.324841 96.361154 
L 77.048079 101.136803 
L 78.367766 105.485242 
L 79.687453 110.596767 
L 81.643176 120.026686 
L 82.827907 127.176772 
L 84.418586 139.155368 
L 85.611596 150.570694 
L 86.405584 159.717706 
L 87.316766 172.194455 
L 88.227948 187.400518 
L 89.366926 211.655592 
L 90.262827 236.471555 
L 91.112882 266.701363 
L 91.464548 281.8 
M 106.281798 281.8 
L 106.876586 236.556413 
L 107.543086 198.91 
L 108.275855 168.292059 
L 109.042352 144.503291 
L 109.808848 126.546491 
L 110.575344 112.723381 
L 111.34184 101.90538 
L 112.495646 89.65199 
L 113.672332 80.627696 
L 114.556384 75.464697 
L 115.440435 71.327525 
L 116.782095 66.513484 
L 118.123754 62.992823 
L 119.566833 60.237948 
L 121.009912 58.263842 
L 122.000178 57.255374 
L 123.740974 56.01272 
L 125.181055 55.394541 
L 127.105797 55.032884 
L 128.932979 55.110535 
L 130.76016 55.566977 
L 132.530799 56.378552 
L 133.832372 57.231399 
L 136.010616 59.248021 
L 137.623494 61.35628 
L 139.105746 63.931658 
L 140.193491 66.346181 
L 141.281235 69.356528 
L 142.192345 72.4807 
L 143.672544 79.208197 
L 144.810724 86.42302 
L 145.703293 93.957531 
L 146.350251 100.878977 
L 146.997209 109.477111 
L 147.644167 120.34504 
L 148.456166 138.594796 
L 149.175788 161.232116 
L 149.869093 192.170215 
L 150.446848 228.841132 
L 151.025772 281.8 
M 159.238004 281.8 
L 159.718847 233.751471 
L 160.343795 190.461548 
L 160.968743 160.562669 
L 161.608517 138.636186 
L 162.40293 119.198526 
L 163.223866 104.939439 
L 164.044801 94.524095 
L 164.865737 86.69875 
L 165.686673 80.681767 
L 166.88294 74.145035 
L 167.389047 71.962914 
L 168.401261 68.363009 
L 169.644744 64.992903 
L 170.942999 62.355759 
L 172.241255 60.361538 
L 173.654963 58.721687 
L 175.512847 57.177201 
L 178.296973 55.765906 
L 180.452333 55.207408 
L 181.993312 55.035988 
L 184.62154 55.139621 
L 187.693986 55.916562 
L 189.917487 57.018661 
L 191.304359 58.011407 
L 193.70876 60.523351 
L 195.604532 63.563625 
L 196.80038 66.224088 
L 197.996228 69.732356 
L 199.464223 75.772806 
L 200.535381 82.032321 
L 201.494894 89.706127 
L 202.342764 98.937268 
L 203.164443 111.213532 
L 203.761059 123.178424 
L 204.357675 138.928569 
L 204.954291 160.242611 
L 205.550908 190.081886 
L 206.053899 225.603506 
L 206.600021 281.8 
M 214.010864 281.8 
L 214.589319 222.907568 
L 215.213417 181.338692 
L 215.793409 154.720338 
L 216.515374 131.437272 
L 217.205933 115.656854 
L 217.896491 103.990359 
L 218.58705 95.125545 
L 219.507795 86.277002 
L 220.542164 79.058636 
L 221.645344 73.449923 
L 222.174526 71.304691 
L 223.165609 67.989599 
L 224.156692 65.378491 
L 225.498929 62.654061 
L 226.841166 60.603346 
L 229.141366 58.148419 
L 231.721176 56.442958 
L 234.637723 55.388237 
L 236.467654 55.083998 
L 237.830513 55.01541 
L 240.499958 55.269981 
L 242.595535 55.869878 
L 245.341672 57.347727 
L 246.893416 58.659935 
L 248.44516 60.463805 
L 249.699328 62.411844 
L 250.953496 64.964237 
L 251.786343 67.104761 
L 252.601229 69.650207 
L 253.416115 72.76792 
L 254.22155 76.581115 
L 255.429702 84.207905 
L 256.235137 91.113311 
L 257.116068 101.156004 
L 257.861313 112.605987 
L 258.606558 128.098567 
L 259.297339 147.894737 
L 259.960888 174.53286 
L 260.513845 205.593757 
L 261.066802 249.385756 
L 261.372128 281.8 
M 269.585447 281.8 
L 270.146095 230.169339 
L 270.745438 191.955862 
L 271.404447 162.365185 
L 272.122585 139.444494 
L 272.879248 122.024976 
L 273.533426 110.681579 
L 274.405663 99.194299 
L 275.2779 90.583195 
L 276.150137 83.959701 
L 277.240129 77.629766 
L 278.570391 71.913482 
L 279.777313 68.033243 
L 280.984236 65.022737 
L 282.759895 61.706234 
L 284.763175 59.067062 
L 285.972091 57.883462 
L 288.389704 56.208762 
L 290.005951 55.513399 
L 291.936309 55.07624 
L 293.727774 55.050376 
L 295.519238 55.423721 
L 297.042397 56.109941 
L 298.200716 56.906977 
L 299.733456 58.418767 
L 301.266196 60.605727 
L 302.26446 62.507097 
L 303.632768 65.929831 
L 304.872904 70.125187 
L 306.11304 75.773879 
L 307.253285 82.772479 
L 308.177486 90.218263 
L 309.101687 99.866428 
L 310.025888 112.576239 
L 310.950089 129.657818 
L 311.879157 153.329565 
L 312.577698 177.442963 
L 313.283196 209.889877 
L 313.988694 254.304515 
L 314.328382 281.8 
M 329.145214 281.8 
L 329.997729 247.994205 
L 330.884163 220.89101 
L 331.558714 204.242307 
L 332.458117 186.016272 
L 333.347537 171.389415 
L 334.236957 159.320387 
L 335.571087 144.786942 
L 336.630066 135.533467 
L 337.912657 126.3272 
L 339.2493 118.502734 
L 339.917621 115.126195 
L 340.98925 110.319342 
L 342.817031 103.509055 
L 344.262662 99.085936 
L 346.323713 93.8827 
L 348.683362 89.118008 
L 351.188885 85.075069 
L 353.236044 82.352283 
L 354.665038 80.696095 
L 357.799207 77.618848 
L 362.240495 74.232644 
L 365.929374 72.036534 
L 367.436594 71.261375 
L 373.041553 68.851782 
L 375.253607 68.065347 
L 381.123871 66.312335 
L 387.677132 64.785672 
L 394.366445 63.557862 
L 400.617358 62.62921 
L 403.170515 62.297761 
L 403.170515 62.297761 
" clip-path="url(#p917e1879bd)" style="fill: none; stroke: #ff0000; stroke-width: 3; stroke-linecap: square"/>
   </g>
  </g>
 </g>
 <defs>
  <clipPath id="p917e1879bd">
   <rect x="9.72539" y="7.2" width="401.159736" height="266.4"/>
  </clipPath>
 </defs>
</svg>
