<?xml version="1.0" encoding="utf-8"?>
<!-- Generator: Adobe Illustrator 23.1.1, SVG Export Plug-In . SVG Version: 6.00 Build 0)  -->
<svg version="1.1" id="Layer_1" xmlns="http://www.w3.org/2000/svg" xmlns:xlink="http://www.w3.org/1999/xlink" x="0px" y="0px"
	 viewBox="0 0 432 216" style="enable-background:new 0 0 432 216;" xml:space="preserve">
<style type="text/css">
	.st0{fill:#A7A9AC;}
	.st1{fill:#ED1C24;}
</style>
<g>
	<g>
		<g>
			<g>
				<path class="st0" d="M372.26,116.6c3.54-3.12,6.96-6.36,10.26-9.73c0.75-0.77,1.39-1.8,0.45-2.73
					c-0.35-0.35-0.61-0.46-0.97-0.87c-0.75-0.86-1.58-1.51-2.57-2.1c-1.95-1.15-4.03-2.08-6.15-2.85c-1.21-0.44-1.73,1.49-0.53,1.93
					c2.27,0.82,4.57,1.84,6.56,3.21c0.42,0.29,0.8,0.65,1.15,1.07c0.14,0.16,0.28,0.33,0.43,0.47c0.11,0.11,0.23,0.2,0.35,0.3
					c0.09,0.07,0.19,0.18,0.29,0.22c0.22,0.1-0.09,0.05-0.08-0.13c0.05-0.17,0.09-0.34,0.14-0.5c-0.22,0.48-0.78,0.88-1.15,1.26
					c-0.45,0.46-0.9,0.91-1.36,1.36c-0.88,0.87-1.77,1.74-2.67,2.59c-1.82,1.73-3.67,3.43-5.56,5.09
					C369.88,116.04,371.3,117.45,372.26,116.6L372.26,116.6z"/>
			</g>
		</g>
		<g>
			<g>
				<path class="st0" d="M61.68,93.26c-1.87,0.78-3.68,1.67-5.42,2.71c-0.84,0.5-1.65,1.02-2.45,1.58c-0.43,0.3-0.86,0.61-1.28,0.92
					c-0.37,0.27-0.78,0.53-1.02,0.93c-0.64,1.06,0.2,1.91,0.92,2.62c0.74,0.72,1.48,1.44,2.23,2.14c1.56,1.46,3.15,2.89,4.77,4.29
					c0.97,0.84,2.39-0.57,1.41-1.41c-1.35-1.16-2.68-2.35-3.99-3.56c-0.64-0.59-1.27-1.19-1.9-1.79c-0.31-0.3-0.63-0.61-0.94-0.91
					c-0.29-0.29-0.69-0.57-0.86-0.95c0.05,0.17,0.09,0.34,0.14,0.5c-0.08,0.13-0.06,0.13,0.06,0.01c0.06-0.05,0.12-0.09,0.18-0.14
					c0.18-0.14,0.36-0.27,0.54-0.4c0.36-0.26,0.73-0.52,1.1-0.77c0.74-0.5,1.5-0.98,2.27-1.44c1.53-0.9,3.12-1.71,4.75-2.39
					c0.5-0.21,0.85-0.66,0.7-1.23C62.78,93.49,62.18,93.05,61.68,93.26L61.68,93.26z"/>
			</g>
		</g>
		<g>
			<g>
				<path class="st0" d="M52.92,101.28c20.95,2.32,42.05,2.4,63.1,2.53c21.37,0.13,42.74,0.26,64.1,0.4
					c42.7,0.26,85.42,0.34,128.12,0.91c24.12,0.32,48.24,0.91,72.34,2.15c1.29,0.07,1.28-1.93,0-2c-42.8-2.19-85.66-2.35-128.5-2.61
					c-42.74-0.26-85.47-0.53-128.21-0.79c-23.65-0.15-47.4,0.03-70.95-2.58C51.64,99.13,51.65,101.14,52.92,101.28L52.92,101.28z"/>
			</g>
		</g>
	</g>
	<g>
		<g>
			<g>
				<path class="st0" d="M202.92,22.48c2.33-4.34,4.66-8.68,7.02-13.01c0.52-0.96,1-1.99,1.67-2.85c-0.02,0.03-0.15,0.04-0.18,0.02
					c0.1,0.1,0.19,0.19,0.28,0.3c0.19,0.25,0.34,0.52,0.51,0.78c0.47,0.73,0.94,1.46,1.41,2.18c0.87,1.35,1.74,2.7,2.62,4.06
					c1.97,3.05,3.93,6.1,5.9,9.15c0.7,1.08,2.43,0.08,1.73-1.01c-1.88-2.91-3.76-5.83-5.63-8.74c-0.94-1.46-1.88-2.91-2.82-4.37
					c-0.47-0.73-0.94-1.46-1.41-2.18c-0.41-0.63-0.79-1.37-1.43-1.81c-1.87-1.3-3.01,0.98-3.76,2.33c-0.94,1.7-1.87,3.42-2.79,5.13
					c-1.62,3-3.23,6-4.84,9C200.59,22.61,202.31,23.62,202.92,22.48L202.92,22.48z"/>
			</g>
		</g>
		<g>
			<g>
				<path class="st0" d="M203.57,179.68c1.76,3.94,3.91,7.7,6.43,11.2c0.61,0.85,1.21,1.83,1.96,2.55c0.86,0.83,1.99,0.6,2.72-0.25
					c1.5-1.72,2.86-3.59,4.25-5.4c1.61-2.12,3.18-4.27,4.71-6.44c0.74-1.05-0.99-2.06-1.73-1.01c-2.39,3.39-4.87,6.71-7.45,9.96
					c-0.3,0.38-0.6,0.75-0.91,1.13c-0.1,0.12-0.38,0.35-0.41,0.49c-0.02,0.02-0.04,0.05-0.07,0.07c0.1,0.01,0.2,0.02,0.3,0.04
					c0-0.01-0.24-0.27-0.26-0.29c-0.61-0.74-1.17-1.53-1.72-2.31c-1.1-1.56-2.13-3.17-3.09-4.82c-1.11-1.92-2.11-3.9-3.02-5.92
					c-0.22-0.49-0.94-0.61-1.37-0.36C203.42,178.6,203.35,179.18,203.57,179.68L203.57,179.68z"/>
			</g>
		</g>
		<g>
			<g>
				<path class="st0" d="M210.25,6.2c-0.4,24.12-0.57,48.25-0.49,72.37c0.08,24.01,0.39,48.01,0.95,72.01
					c0.31,13.54,0.7,27.08,1.17,40.61c0.04,1.28,2.04,1.29,2,0c-0.83-24.12-1.41-48.24-1.76-72.37c-0.34-24-0.45-48.01-0.31-72.01
					c0.08-13.54,0.23-27.08,0.45-40.62C212.28,4.91,210.28,4.91,210.25,6.2L210.25,6.2z"/>
			</g>
		</g>
	</g>
</g>
<g>
	<g>
		<g>
			<path d="M148.49,13.92c-0.33,1.51-0.66,3.02-0.99,4.53c-0.06,0.26,0.08,0.54,0.35,0.62c0.25,0.07,0.56-0.08,0.62-0.35
				c0.33-1.51,0.66-3.02,0.99-4.53c0.06-0.26-0.08-0.54-0.35-0.62C148.85,13.51,148.55,13.66,148.49,13.92L148.49,13.92z"/>
		</g>
	</g>
	<g>
		<g>
			<path d="M148.07,24.79c0,1.88,0,3.75,0,5.63c0,0.64,1,0.64,1,0c0-1.88,0-3.75,0-5.63C149.07,24.15,148.07,24.15,148.07,24.79
				L148.07,24.79z"/>
		</g>
	</g>
	<g>
		<g>
			<path d="M147.98,34.76c-0.59,1.92-0.72,3.94-0.42,5.92c0.04,0.27,0.38,0.41,0.62,0.35c0.29-0.08,0.39-0.35,0.35-0.62
				c-0.28-1.8-0.12-3.65,0.42-5.39C149.14,34.41,148.17,34.15,147.98,34.76L147.98,34.76z"/>
		</g>
	</g>
	<g>
		<g>
			<path d="M148.17,46.76c-0.23,2.25-0.45,4.5-0.68,6.75c-0.03,0.27,0.25,0.5,0.5,0.5c0.29,0,0.47-0.23,0.5-0.5
				c0.23-2.25,0.45-4.5,0.68-6.75c0.03-0.27-0.25-0.5-0.5-0.5C148.38,46.26,148.2,46.5,148.17,46.76L148.17,46.76z"/>
		</g>
	</g>
	<g>
		<g>
			<path d="M148.02,60.12c-0.39,1.5-0.78,3-1.17,4.49c-0.16,0.62,0.8,0.89,0.96,0.27c0.39-1.5,0.78-3,1.17-4.49
				C149.14,59.76,148.18,59.49,148.02,60.12L148.02,60.12z"/>
		</g>
	</g>
	<g>
		<g>
			<path d="M146.94,72.66c0,1.5,0,3,0,4.5c0,0.64,1,0.64,1,0c0-1.5,0-3,0-4.5C147.94,72.01,146.94,72.01,146.94,72.66L146.94,72.66z
				"/>
		</g>
	</g>
	<g>
		<g>
			<path d="M146.3,83.18c-0.61,1.52-0.74,3.2-0.42,4.8c0.05,0.27,0.37,0.42,0.62,0.35c0.28-0.08,0.4-0.35,0.35-0.62
				c-0.28-1.43-0.12-2.92,0.42-4.27c0.1-0.25-0.11-0.55-0.35-0.62C146.63,82.76,146.4,82.93,146.3,83.18L146.3,83.18z"/>
		</g>
	</g>
	<g>
		<g>
			<path d="M146.87,94.63c-0.24,1.87-0.48,3.74-0.72,5.61c-0.03,0.27,0.25,0.5,0.5,0.5c0.3,0,0.47-0.23,0.5-0.5
				c0.24-1.87,0.48-3.74,0.72-5.61c0.03-0.27-0.25-0.5-0.5-0.5C147.07,94.13,146.9,94.36,146.87,94.63L146.87,94.63z"/>
		</g>
	</g>
	<g>
		<g>
			<path d="M146.82,105.88c0,1.31,0,2.63,0,3.94c0,0.64,1,0.64,1,0c0-1.31,0-2.63,0-3.94C147.82,105.24,146.82,105.24,146.82,105.88
				L146.82,105.88z"/>
		</g>
	</g>
	<g>
		<g>
			<path d="M146.69,118.27c0,1.31,0,2.63,0,3.94c0,0.64,1,0.64,1,0c0-1.31,0-2.63,0-3.94C147.69,117.63,146.69,117.63,146.69,118.27
				L146.69,118.27z"/>
		</g>
	</g>
	<g>
		<g>
			<path d="M146.66,131.64c-0.62,1.91-0.77,3.92-0.49,5.91c0.04,0.27,0.38,0.41,0.62,0.35c0.29-0.08,0.39-0.35,0.35-0.62
				c-0.25-1.8-0.07-3.65,0.49-5.38C147.82,131.29,146.86,131.03,146.66,131.64L146.66,131.64z"/>
		</g>
	</g>
	<g>
		<g>
			<path d="M145.56,145.3c0,1.31,0,2.63,0,3.94c0,0.64,1,0.64,1,0c0-1.31,0-2.63,0-3.94C146.56,144.66,145.56,144.66,145.56,145.3
				L145.56,145.3z"/>
		</g>
	</g>
	<g>
		<g>
			<path d="M146,157.69c0,2.06,0,4.13,0,6.19c0,0.64,1,0.64,1,0c0-2.06,0-4.13,0-6.19C147,157.05,146,157.04,146,157.69L146,157.69z
				"/>
		</g>
	</g>
	<g>
		<g>
			<path d="M146,169.51c0,2.25,0,4.5,0,6.76c0,0.64,1,0.64,1,0c0-2.25,0-4.5,0-6.76C147,168.87,146,168.87,146,169.51L146,169.51z"
				/>
		</g>
	</g>
	<g>
		<g>
			<path d="M146,181.9c0,1.31,0,2.63,0,3.94c0,0.64,1,0.64,1,0c0-1.31,0-2.63,0-3.94C147,181.26,146,181.26,146,181.9L146,181.9z"/>
		</g>
	</g>
	<g>
		<g>
			<path d="M145.33,190.76c-0.18,1.13-0.37,2.25-0.55,3.38c-0.04,0.27,0.07,0.54,0.35,0.62c0.24,0.07,0.57-0.08,0.62-0.35
				c0.18-1.13,0.37-2.25,0.55-3.38c0.04-0.27-0.07-0.54-0.35-0.62C145.71,190.35,145.38,190.49,145.33,190.76L145.33,190.76z"/>
		</g>
	</g>
</g>
<g>
	<g>
		<g>
			<path d="M236.96,16.34c-0.2,2.06-0.41,4.13-0.61,6.19c-0.03,0.27,0.25,0.5,0.5,0.5c0.29,0,0.47-0.23,0.5-0.5
				c0.2-2.06,0.41-4.13,0.61-6.19c0.03-0.27-0.25-0.5-0.5-0.5C237.17,15.84,236.99,16.07,236.96,16.34L236.96,16.34z"/>
		</g>
	</g>
	<g>
		<g>
			<path d="M237.51,29.7c-0.58,2.45-0.73,4.98-0.43,7.47c0.03,0.27,0.21,0.5,0.5,0.5c0.25,0,0.53-0.23,0.5-0.5
				c-0.29-2.41-0.16-4.84,0.4-7.21C238.62,29.34,237.66,29.08,237.51,29.7L237.51,29.7z"/>
		</g>
	</g>
	<g>
		<g>
			<path d="M237.59,43.23c-0.63,1.51-0.79,3.17-0.53,4.78c0.04,0.27,0.38,0.42,0.62,0.35c0.28-0.08,0.39-0.35,0.35-0.62
				c-0.23-1.43-0.02-2.91,0.53-4.25c0.1-0.25-0.11-0.55-0.35-0.62C237.92,42.81,237.7,42.98,237.59,43.23L237.59,43.23z"/>
		</g>
	</g>
	<g>
		<g>
			<path d="M237.73,55.19c0.18,1.88,0.36,3.76,0.54,5.63c0.03,0.27,0.21,0.5,0.5,0.5c0.25,0,0.53-0.23,0.5-0.5
				c-0.18-1.88-0.36-3.76-0.54-5.63c-0.03-0.27-0.21-0.5-0.5-0.5C237.98,54.69,237.71,54.92,237.73,55.19L237.73,55.19z"/>
		</g>
	</g>
	<g>
		<g>
			<path d="M237.68,69.29c-0.23,2.62-0.46,5.25-0.68,7.87c-0.06,0.64,0.94,0.64,1,0c0.23-2.62,0.46-5.25,0.68-7.87
				C238.74,68.65,237.74,68.65,237.68,69.29L237.68,69.29z"/>
		</g>
	</g>
	<g>
		<g>
			<path d="M237.03,85.05c0,1.69,0,3.38,0,5.07c0,0.64,1,0.64,1,0c0-1.69,0-3.38,0-5.07C238.03,84.4,237.03,84.4,237.03,85.05
				L237.03,85.05z"/>
		</g>
	</g>
	<g>
		<g>
			<path d="M237.47,97.86c-0.62,1.51-0.78,3.16-0.53,4.78c0.04,0.27,0.38,0.41,0.62,0.35c0.29-0.08,0.39-0.35,0.35-0.62
				c-0.22-1.43-0.02-2.91,0.53-4.25c0.1-0.25-0.11-0.55-0.35-0.62C237.8,97.43,237.57,97.61,237.47,97.86L237.47,97.86z"/>
		</g>
	</g>
	<g>
		<g>
			<path d="M237.36,110.25c-0.84,2.19-1.23,4.54-1.15,6.89c0.02,0.64,1.02,0.64,1,0c-0.08-2.27,0.3-4.51,1.12-6.63
				C238.55,109.92,237.59,109.66,237.36,110.25L237.36,110.25z"/>
		</g>
	</g>
	<g>
		<g>
			<path d="M236.22,124.46c0,1.31,0,2.63,0,3.94c0,0.64,1,0.64,1,0c0-1.31,0-2.63,0-3.94C237.22,123.82,236.22,123.82,236.22,124.46
				L236.22,124.46z"/>
		</g>
	</g>
	<g>
		<g>
			<path d="M236.2,135.58c-0.61,1.52-0.77,3.17-0.51,4.78c0.04,0.27,0.38,0.42,0.62,0.35c0.28-0.08,0.39-0.35,0.35-0.62
				c-0.23-1.43-0.03-2.91,0.51-4.25c0.1-0.25-0.11-0.55-0.35-0.62C236.53,135.15,236.3,135.33,236.2,135.58L236.2,135.58z"/>
		</g>
	</g>
	<g>
		<g>
			<path d="M235.65,146.43c0,1.5,0,3,0,4.5c0,0.64,1,0.64,1,0c0-1.5,0-3,0-4.5C236.65,145.78,235.65,145.78,235.65,146.43
				L235.65,146.43z"/>
		</g>
	</g>
	<g>
		<g>
			<path d="M235.8,158.46c-0.97,1.17-0.97,2.91,0.01,4.07c0.17,0.21,0.53,0.18,0.71,0c0.2-0.2,0.17-0.5,0-0.71
				c-0.02-0.02-0.04-0.05-0.06-0.07c0.05,0.07-0.01-0.02-0.02-0.03c-0.04-0.06-0.08-0.12-0.11-0.18c-0.03-0.06-0.06-0.11-0.09-0.17
				c-0.06-0.13,0.02,0.05-0.01-0.03c-0.01-0.03-0.02-0.06-0.03-0.09c-0.05-0.13-0.08-0.27-0.11-0.41c0-0.01-0.02-0.1-0.01-0.05
				c0.01,0.06-0.01-0.06-0.01-0.08c-0.01-0.07-0.01-0.14-0.01-0.21c0-0.06,0-0.13,0.01-0.19c0-0.04,0.01-0.08,0.01-0.12
				c0-0.04,0.01-0.06,0-0.01c0.02-0.14,0.06-0.28,0.1-0.41c0.01-0.03,0.02-0.06,0.03-0.09c0-0.01,0.05-0.12,0.03-0.07
				c-0.02,0.04,0.02-0.04,0.02-0.05c0.01-0.03,0.03-0.06,0.04-0.08c0.03-0.06,0.07-0.12,0.11-0.18c0.02-0.03,0.04-0.07,0.07-0.1
				c0.05-0.07-0.07,0.09,0.02-0.03c0.17-0.21,0.2-0.5,0-0.71C236.33,158.29,235.98,158.25,235.8,158.46L235.8,158.46z"/>
		</g>
	</g>
	<g>
		<g>
			<path d="M236.22,168.39c0,0.94,0,1.88,0,2.82c0,0.26,0.23,0.51,0.5,0.5c0.27-0.01,0.5-0.22,0.5-0.5c0-0.94,0-1.88,0-2.82
				c0-0.26-0.23-0.51-0.5-0.5C236.45,167.9,236.22,168.11,236.22,168.39L236.22,168.39z"/>
		</g>
	</g>
	<g>
		<g>
			<path d="M236.2,177.25c-0.62,1.52-0.77,3.17-0.51,4.78c0.04,0.27,0.37,0.42,0.62,0.35c0.28-0.08,0.39-0.35,0.35-0.62
				c-0.23-1.43-0.04-2.91,0.51-4.25c0.1-0.25-0.11-0.55-0.35-0.62C236.53,176.82,236.31,177,236.2,177.25L236.2,177.25z"/>
		</g>
	</g>
	<g>
		<g>
			<path d="M236.22,186.75c-1.28,2.36-1.6,5.15-0.89,7.73c0.17,0.62,1.14,0.36,0.96-0.27c-0.65-2.33-0.37-4.84,0.79-6.96
				C237.39,186.69,236.53,186.19,236.22,186.75L236.22,186.75z"/>
		</g>
	</g>
</g>
<g>
	<g>
		<g>
			<path d="M289.07,25.76c-0.95,2.56-1.32,5.32-1.05,8.04c0.06,0.63,1.06,0.64,1,0c-0.26-2.64,0.09-5.29,1.02-7.78
				C290.25,25.42,289.29,25.16,289.07,25.76L289.07,25.76z"/>
		</g>
	</g>
	<g>
		<g>
			<path d="M289.12,40.56c0,2.06,0,4.13,0,6.19c0,0.64,1,0.64,1,0c0-2.06,0-4.13,0-6.19C290.12,39.92,289.12,39.92,289.12,40.56
				L289.12,40.56z"/>
		</g>
	</g>
	<g>
		<g>
			<path d="M289.01,55.21c0.21,2.25,0.42,4.5,0.63,6.75c0.06,0.64,1.06,0.64,1,0c-0.21-2.25-0.42-4.5-0.63-6.75
				C289.95,54.58,288.95,54.57,289.01,55.21L289.01,55.21z"/>
		</g>
	</g>
	<g>
		<g>
			<path d="M289.87,70.32c-0.71,2.47-0.82,5.05-0.35,7.57c0.12,0.63,1.08,0.36,0.96-0.27c-0.44-2.34-0.31-4.76,0.35-7.04
				C291.01,69.97,290.04,69.7,289.87,70.32L289.87,70.32z"/>
		</g>
	</g>
	<g>
		<g>
			<path d="M288.56,86.17c0,1.31,0,2.63,0,3.94c0,0.64,1,0.64,1,0c0-1.31,0-2.63,0-3.94C289.56,85.53,288.56,85.53,288.56,86.17
				L288.56,86.17z"/>
		</g>
	</g>
	<g>
		<g>
			<path d="M288,97.44c0,2.25,0,4.5,0,6.76c0,0.64,1,0.64,1,0c0-2.25,0-4.5,0-6.76C289,96.79,288,96.79,288,97.44L288,97.44z"/>
		</g>
	</g>
	<g>
		<g>
			<path d="M288.87,108.13c0,1.5,0,3.01,0,4.51c0,0.64,1,0.64,1,0c0-1.5,0-3.01,0-4.51C289.87,107.48,288.87,107.48,288.87,108.13
				L288.87,108.13z"/>
		</g>
	</g>
	<g>
		<g>
			<path d="M288.74,116.58c0,2.25,0,4.5,0,6.76c0,0.64,1,0.64,1,0c0-2.25,0-4.5,0-6.76C289.74,115.94,288.74,115.94,288.74,116.58
				L288.74,116.58z"/>
		</g>
	</g>
	<g>
		<g>
			<path d="M288.74,128.97c0,1.5,0,3,0,4.5c0,0.64,1,0.64,1,0c0-1.5,0-3,0-4.5C289.74,128.33,288.74,128.33,288.74,128.97
				L288.74,128.97z"/>
		</g>
	</g>
	<g>
		<g>
			<path d="M288.86,140.12c-0.43,1.69-0.67,3.43-0.72,5.17c-0.02,0.64,0.98,0.64,1,0c0.04-1.66,0.27-3.3,0.68-4.91
				C289.98,139.77,289.02,139.5,288.86,140.12L288.86,140.12z"/>
		</g>
	</g>
	<g>
		<g>
			<path d="M288.74,152.06c0,3,0,6.01,0,9.01c0,0.64,1,0.64,1,0c0-3,0-6.01,0-9.01C289.74,151.41,288.74,151.41,288.74,152.06
				L288.74,152.06z"/>
		</g>
	</g>
	<g>
		<g>
			<path d="M288.74,165.57c0,1.13,0,2.25,0,3.38c0,0.27,0.23,0.5,0.5,0.5c0.27,0,0.5-0.23,0.5-0.5c0-1.13,0-2.25,0-3.38
				c0-0.27-0.23-0.5-0.5-0.5C288.97,165.07,288.74,165.3,288.74,165.57L288.74,165.57z"/>
		</g>
	</g>
	<g>
		<g>
			<path d="M288.66,171.76c-0.19,1.88-0.38,3.75-0.58,5.63c-0.03,0.27,0.25,0.5,0.5,0.5c0.29,0,0.47-0.23,0.5-0.5
				c0.19-1.88,0.38-3.75,0.58-5.63c0.03-0.27-0.25-0.5-0.5-0.5C288.87,171.26,288.69,171.49,288.66,171.76L288.66,171.76z"/>
		</g>
	</g>
	<g>
		<g>
			<path d="M289.22,184.03c-0.78,2.21-1.18,4.54-1.2,6.88c-0.01,0.64,0.99,0.64,1,0c0.02-2.26,0.42-4.48,1.17-6.61
				C290.4,183.69,289.44,183.43,289.22,184.03L289.22,184.03z"/>
		</g>
	</g>
	<g>
		<g>
			<path d="M287.49,195.42c0,1.31,0,2.63,0,3.94c0,0.64,1,0.64,1,0c0-1.31,0-2.63,0-3.94C288.49,194.77,287.49,194.77,287.49,195.42
				L287.49,195.42z"/>
		</g>
	</g>
	<g>
		<g>
			<path d="M289.14,14.94c0.18,1.88,0.36,3.76,0.54,5.63c0.03,0.27,0.21,0.5,0.5,0.5c0.25,0,0.53-0.23,0.5-0.5
				c-0.18-1.88-0.36-3.76-0.54-5.63c-0.03-0.27-0.21-0.5-0.5-0.5C289.38,14.44,289.11,14.67,289.14,14.94L289.14,14.94z"/>
		</g>
	</g>
</g>
<g>
	<g>
		<path d="M236.77,99.84c-0.72,2.8-0.97,5.71-0.7,8.59c0.06,0.64,1.06,0.64,1,0c-0.26-2.8-0.04-5.6,0.66-8.32
			C237.9,99.48,236.93,99.21,236.77,99.84L236.77,99.84z"/>
	</g>
</g>
<g>
	<g>
		<g>
			<path d="M198.17,100.11c-0.11,2.7-0.14,5.4-0.1,8.1c0.01,0.48,0.69,0.7,0.93,0.25c0.19-0.35,0.38-0.7,0.57-1.05
				c0.31-0.57-0.56-1.07-0.86-0.5c-0.19,0.35-0.38,0.7-0.57,1.05c0.31,0.08,0.62,0.17,0.93,0.25c-0.04-2.7-0.01-5.4,0.1-8.1
				C199.2,99.47,198.2,99.47,198.17,100.11L198.17,100.11z"/>
		</g>
	</g>
	<g>
		<g>
			<path d="M184.71,100.81c-0.1,2.35-0.07,4.7,0.08,7.05c0.04,0.64,1.04,0.64,1,0c-0.16-2.35-0.18-4.7-0.08-7.05
				C185.74,100.17,184.74,100.17,184.71,100.81L184.71,100.81z"/>
		</g>
	</g>
	<g>
		<g>
			<path d="M171.15,100.53c-0.04,2.61,0.22,5.21,0.75,7.76c0.13,0.63,1.1,0.36,0.96-0.27c-0.52-2.47-0.75-4.97-0.72-7.49
				C172.16,99.89,171.16,99.89,171.15,100.53L171.15,100.53z"/>
		</g>
	</g>
	<g>
		<g>
			<path d="M159.53,100.26c0.12,1.11,0.24,2.22,0.36,3.33c0.06,0.54,0.12,1.07,0.17,1.61c0.05,0.48,0.08,0.97,0.45,1.32
				c0.47,0.44,1.18-0.27,0.71-0.71c-0.11-0.1-0.12-0.24-0.14-0.38c-0.03-0.23-0.05-0.46-0.07-0.69c-0.05-0.5-0.11-1-0.16-1.49
				c-0.11-1-0.21-1.99-0.32-2.99c-0.03-0.27-0.21-0.5-0.5-0.5C159.78,99.76,159.5,99.99,159.53,100.26L159.53,100.26z"/>
		</g>
	</g>
	<g>
		<g>
			<path d="M147.45,100.64c-0.37,1.97-0.38,3.96-0.05,5.93c0.04,0.27,0.37,0.42,0.62,0.35c0.28-0.08,0.39-0.35,0.35-0.62
				c-0.3-1.78-0.28-3.62,0.05-5.4c0.05-0.27-0.07-0.54-0.35-0.62C147.82,100.22,147.5,100.37,147.45,100.64L147.45,100.64z"/>
		</g>
	</g>
	<g>
		<g>
			<path d="M307.17,108.56c0.5-3.22,0.5-6.47-0.01-9.69c-0.1-0.63-1.06-0.36-0.96,0.27c0.48,3.03,0.48,6.13,0.01,9.16
				C306.1,108.92,307.07,109.19,307.17,108.56L307.17,108.56z"/>
		</g>
	</g>
	<g>
		<g>
			<path d="M132.17,107.83c-0.31-3.33-0.96-6.62-1.94-9.82c-0.19-0.61-1.15-0.35-0.96,0.27c0.95,3.11,1.6,6.31,1.9,9.55
				C131.23,108.46,132.23,108.47,132.17,107.83L132.17,107.83z"/>
		</g>
	</g>
	<g>
		<g>
			<path d="M288.92,99.72c0.75,0.28,1.03-0.98,0.3-1.2c-0.93-0.28-1,1.15-1.1,1.69c-0.32,1.74-0.64,3.48-0.96,5.22
				c-0.06,0.34,0.14,0.61,0.48,0.63c0.28,0.02,0.57,0.04,0.85,0.06c0.64,0.05,0.64-0.95,0-1c-0.28-0.02-0.57-0.04-0.85-0.06
				c0.16,0.21,0.32,0.42,0.48,0.63c0.2-1.1,0.4-2.19,0.6-3.29c0.1-0.54,0.2-1.07,0.3-1.61c0.05-0.26,0.09-0.52,0.14-0.77
				c0.02-0.13,0.05-0.26,0.07-0.39c0.01-0.07,0.03-0.14,0.04-0.21c0.03-0.09,0-0.07-0.1,0.05c-0.09,0-0.18,0-0.27,0
				c-0.07-0.16-0.14-0.32-0.21-0.49c0.1-0.08,0.2-0.15,0.3-0.23c-0.01,0-0.02,0.01-0.03,0.01c0.09,0,0.18,0,0.27,0
				c-0.01-0.01-0.03-0.01-0.04-0.02C288.58,98.53,288.32,99.5,288.92,99.72L288.92,99.72z"/>
		</g>
	</g>
	<g>
		<g>
			<path d="M263.11,99.11c-0.24,2.53-0.28,5.07-0.15,7.61c0.04,0.64,1.04,0.64,1,0c-0.14-2.54-0.09-5.08,0.15-7.61
				C264.17,98.47,263.17,98.48,263.11,99.11L263.11,99.11z"/>
		</g>
	</g>
</g>
<g>
	<g>
		<g>
			<g>
				<path class="st1" d="M142.93,10.15c-0.16,8.31-0.68,16.62-1.65,24.87c-0.22,1.84-0.42,3.34-0.69,5.15
					c-0.24,1.56-0.5,3.11-0.78,4.66c-0.57,3.11-1.2,6.2-1.8,9.3c-1.06,5.5-1.94,11.02-2.83,16.55c-0.77,4.79-1.56,9.57-2.35,14.36
					c-1.32,8.02-2.64,16.05-3.97,24.07c-0.44,2.64-0.83,5.27-1.57,7.84c-0.93,3.24-2.16,6.08-4.09,8.91
					c-1.07,1.57-2.36,3.02-3.82,4.28c-0.78,0.68-1.62,1.28-2.53,1.79c-0.76,0.42-1.07,0.57-1.91,0.8c-0.27,0.08-0.56,0.11-0.83,0.18
					c-0.2,0.05,0.3-0.02,0.1-0.01c-0.05,0-0.09,0.01-0.14,0.01c-0.13,0.01-0.26,0.02-0.38,0.02c-0.3,0.01-0.63-0.07-0.93-0.04
					c0.5-0.05,0.23,0.04-0.02-0.02c-0.18-0.04-0.36-0.09-0.53-0.15c-0.08-0.03-0.17-0.06-0.25-0.09c-0.32-0.11,0.24,0.13,0.01,0.01
					c-0.25-0.13-0.5-0.24-0.74-0.39c-0.25-0.15-0.5-0.31-0.74-0.48c-0.06-0.04-0.36-0.27-0.28-0.21c0.14,0.11-0.1-0.08-0.13-0.11
					c-0.1-0.08-0.19-0.16-0.29-0.24c-0.72-0.62-1.37-1.3-2-2.01c-1.48-1.69-2.77-3.56-3.82-5.55c-0.82-1.54-1.31-2.8-1.91-4.43
					c-0.52-1.42-1.04-2.86-1.75-4.21c-1.06-2.02-2.57-3.78-4.45-5.07c-2.79-1.91-6.15-3.06-9.34-4.06
					c-6.9-2.17-14.11-3.35-21.33-3.7c-2.37-0.11-4.74-0.13-7.11-0.07c-1.93,0.05-1.93,3.05,0,3c8.18-0.21,16.28,0.58,24.18,2.66
					c1.47,0.39,2.94,0.82,4.39,1.3c1.87,0.62,3.59,1.25,5.29,2.08c1.02,0.5,1.93,1.1,2.88,1.72c0.07,0.04-0.28-0.23-0.04-0.03
					c0.07,0.06,0.14,0.11,0.21,0.17c0.12,0.1,0.23,0.2,0.35,0.31c0.32,0.3,0.62,0.63,0.91,0.97c0.73,0.85,1.66,2.47,2.11,3.55
					c-0.05-0.11,0.1,0.26,0.13,0.33c0.07,0.17,0.13,0.34,0.2,0.52c0.13,0.35,0.26,0.71,0.39,1.06c0.28,0.75,0.55,1.51,0.86,2.25
					c1.62,4,4,7.79,7.13,10.78c1.65,1.58,3.6,2.92,5.93,3.13c3.18,0.28,6.22-1.67,8.51-3.66c5.15-4.46,8.12-11.07,9.44-17.65
					c0.74-3.69,1.25-7.44,1.87-11.15c0.67-4.07,1.34-8.14,2.01-12.21c0.93-5.63,1.86-11.26,2.77-16.9
					c0.75-4.62,1.45-9.25,2.26-13.86c1.17-6.6,2.66-13.14,3.65-19.77c1.28-8.5,1.96-17.1,2.28-25.68c0.06-1.63,0.11-3.26,0.14-4.9
					C145.97,8.22,142.97,8.22,142.93,10.15L142.93,10.15z"/>
			</g>
		</g>
		<g>
			<g>
				<path class="st1" d="M63.72,96.44c-1.83,0.06-3.41,0.93-4.7,2.19c-0.63,0.62-1.18,1.33-1.7,2.05c-0.51,0.72-1.06,1.47-1.33,2.31
					c-0.67,2.09,1.07,3.85,2.39,5.24c0.64,0.67,1.32,1.3,2.03,1.89c0.37,0.31,0.76,0.6,1.14,0.89c0.17,0.13,0.34,0.25,0.52,0.38
					c0.12,0.08,0.23,0.16,0.35,0.24c0.29,0.23,0.26,0.13-0.1-0.28c0-0.27,0-0.53,0-0.8c-0.01,0.05-0.01,0.1-0.02,0.15
					c0.13-0.22,0.26-0.44,0.39-0.66c-0.02,0.02-0.04,0.05-0.05,0.07c0.22-0.13,0.44-0.26,0.66-0.39c-0.02,0.01-0.05,0.01-0.07,0.02
					c0.27,0,0.53,0,0.8,0c0.21,0.17,0.43,0.34,0.64,0.51c0.05,0.39,0.1,0.77,0.15,1.16c0-0.02,0.01-0.03,0.01-0.05
					c-0.23,0.3-0.46,0.6-0.69,0.9c0.02-0.01,0.05-0.02,0.07-0.03c0.74-0.32,0.91-1.41,0.54-2.05c-0.45-0.77-1.31-0.86-2.05-0.54
					c-1.48,0.65-0.77,2.69,0.53,3.01c1.62,0.4,2.52-1.48,1.7-2.72c-0.55-0.82-1.64-1.3-2.39-1.92c-0.8-0.66-1.55-1.37-2.25-2.13
					c-0.36-0.39-0.72-0.79-1.04-1.22c-0.16-0.21-0.45-0.52-0.41-0.77c0.04-0.28,0.39-0.68,0.55-0.92c0.24-0.37,0.49-0.73,0.76-1.08
					c0.44-0.57,1.02-1.22,1.54-1.62c0.32-0.25,0.69-0.49,1.07-0.64c0.25-0.1,0.65-0.17,0.97-0.19
					C65.65,99.37,65.66,96.37,63.72,96.44L63.72,96.44z"/>
			</g>
		</g>
		<g>
			<g>
				<path class="st1" d="M139.76,16.93c0.78-1.6,1.56-3.2,2.33-4.79c0.39-0.8,0.78-1.6,1.17-2.4c0.14-0.28,0.27-0.57,0.45-0.83
					c0.06-0.08,0.06-0.09,0-0.02c0.05-0.06,0.1-0.12,0.16-0.17c0.08-0.07,0.07-0.07-0.01,0c-0.06,0.03-0.13,0.04-0.2,0.03
					c-0.48-0.37-0.96-0.73-1.45-1.1c0.86,4.24,3.19,8.19,6.49,11c0.62,0.52,1.52,0.61,2.12,0c0.54-0.54,0.62-1.59,0-2.12
					c-2.98-2.53-4.94-5.86-5.71-9.67c-0.12-0.58-0.83-1.17-1.45-1.1c-1.11,0.13-1.88,0.66-2.5,1.58c-0.51,0.77-0.86,1.67-1.27,2.5
					c-0.91,1.86-1.81,3.73-2.72,5.59c-0.35,0.73-0.2,1.62,0.54,2.05C138.36,17.85,139.4,17.66,139.76,16.93L139.76,16.93z"/>
			</g>
		</g>
	</g>
	<g>
		<g>
			<g>
				<path class="st1" d="M231.53,9.78c-0.99,13.47-4.28,26.81-10.26,38.95c-3.04,6.16-6.84,11.87-10.76,17.5
					c-4.23,6.06-8.58,12-13.21,17.76c-3.83,4.77-7.63,9.54-11.06,14.61c-3.36,4.97-6.35,10.14-9.2,15.42
					c-3.78,6.99-7.55,14-11.21,21.06c-2.88,5.55-5.66,11.16-8.09,16.92c-5.03,11.91-8.43,24.47-10.26,37.26
					c-0.3,2.12-0.57,4.24-0.79,6.36c-0.09,0.81,0.75,1.5,1.5,1.5c0.88,0,1.41-0.69,1.5-1.5c1.43-13.42,4.55-26.7,9.49-39.27
					c5.05-12.84,11.94-24.93,18.44-37.07c2.81-5.25,5.62-10.51,8.83-15.54c3.43-5.36,7.2-10.45,11.18-15.4
					c4.4-5.48,8.73-11,12.78-16.76c4.11-5.85,8.3-11.69,11.71-17.98c6.33-11.64,10.16-24.47,11.8-37.6
					c0.26-2.07,0.46-4.14,0.61-6.22C234.67,7.85,231.67,7.86,231.53,9.78L231.53,9.78z"/>
			</g>
		</g>
		<g>
			<g>
				<path class="st1" d="M228.53,15.63c0.65-1.75,1.56-3.41,2.64-4.93c0.53-0.74,1.11-1.43,1.74-2.09c0.04-0.04,0.56-0.54,0.55-0.55
					c0.03,0.05-0.32,0.05-0.32,0.05c-0.04,0.04,0.44,0.61,0.54,0.74c1.14,1.58,2.09,3.32,2.75,5.16c0.38,1.05,0.82,2.15,2.08,2.33
					c1.41,0.19,2.53-1.04,2.21-2.41c-0.44-1.88-3.33-1.08-2.89,0.8c0.01,0.04,0.02,0.08,0.03,0.12c0-0.27,0-0.53,0-0.8
					c1.46,0.28,1.99,0.14,1.6-0.44c0.04,0.11,0.03,0.08-0.03-0.1c-0.08-0.2-0.14-0.41-0.22-0.61c-0.2-0.53-0.41-1.04-0.64-1.56
					c-0.41-0.92-0.88-1.81-1.4-2.67c-0.99-1.61-2.45-4.17-4.71-3.43c-0.95,0.31-1.65,1.19-2.29,1.92c-0.65,0.74-1.26,1.53-1.82,2.35
					c-1.13,1.65-2.01,3.44-2.71,5.31c-0.28,0.76,0.31,1.64,1.05,1.85C227.53,16.91,228.25,16.39,228.53,15.63L228.53,15.63z"/>
			</g>
		</g>
		<g>
			<g>
				<path class="st1" d="M141.1,189.26c0.75,1.82,1.51,3.64,2.26,5.47c0.37,0.89,0.74,1.79,1.11,2.68c0.37,0.89,0.66,1.97,1.57,2.48
					c1.1,0.6,2.19,0.06,2.99-0.73c0.68-0.67,1.35-1.35,2.02-2.02c1.4-1.4,2.8-2.81,4.2-4.21c1.36-1.37-0.76-3.49-2.12-2.12
					c-1.16,1.16-2.31,2.32-3.47,3.48c-0.57,0.57-1.13,1.13-1.7,1.7c-0.3,0.3-0.59,0.59-0.89,0.89c-0.06,0.06-0.38,0.29-0.38,0.37
					c0.01-0.19,0.19-0.14,0.54,0.14c0.51,0.27,0.66,0.27,0.46,0.01c-0.15-0.64-0.56-1.34-0.82-1.96c-0.31-0.75-0.62-1.5-0.93-2.25
					c-0.65-1.57-1.3-3.14-1.95-4.71c-0.31-0.75-1-1.28-1.85-1.05C141.44,187.61,140.79,188.5,141.1,189.26L141.1,189.26z"/>
			</g>
		</g>
	</g>
	<g>
		<g>
			<g>
				<path class="st1" d="M241.66,187.06c0.41-5.21,0.84-10.42,1.3-15.63c0.22-2.47,0.44-4.93,0.68-7.4c0.1-0.97,0.19-1.93,0.3-2.89
					c0.05-0.42,0.1-0.83,0.15-1.24c0.02-0.19,0.05-0.39,0.07-0.58c0.01-0.1,0.03-0.21,0.04-0.31c0.04-0.3-0.02,0.16,0-0.02
					c0.41-2.92,1.08-5.74,1.85-8.58c1.08-3.98,2.32-7.73,5.01-10.74c0.98-1.1,2.05-2.14,3.17-3.09c0.16-0.14,0.32-0.27,0.48-0.4
					c0.07-0.06,0.15-0.12,0.22-0.18c-0.18,0.14,0.01-0.01,0.04-0.03c0.41-0.31,0.82-0.6,1.25-0.88c0.83-0.54,1.7-1.02,2.61-1.43
					c1.89-0.85,4.21-1.31,6.4-1.24c1.97,0.06,4.12,0.62,5.8,1.42c0.86,0.41,1.69,0.88,2.48,1.41c0.33,0.22,0.65,0.45,0.97,0.69
					c0.35,0.26-0.14-0.11,0.06,0.05c0.08,0.07,0.17,0.13,0.25,0.2c0.16,0.13,0.32,0.26,0.47,0.39c0.79,0.67,1.52,1.41,2.21,2.18
					c3.07,3.43,4.02,7.72,4.31,12.15c0.64,9.78,0.52,19.66,0.11,29.45c-0.06,1.46-0.13,2.92-0.21,4.39c-0.04,0.81,0.72,1.5,1.5,1.5
					c0.85,0,1.46-0.69,1.5-1.5c0.56-10.38,0.66-20.78,0.23-31.16c-0.2-4.94-0.6-10.02-3.31-14.31c-1.7-2.69-4.11-5-6.77-6.74
					c-4.01-2.61-8.84-3.7-13.55-2.78c-4.05,0.79-7.61,3.11-10.55,5.94c-1.32,1.27-2.55,2.62-3.59,4.13
					c-1.21,1.76-2.08,3.72-2.78,5.73c-1.16,3.33-2.09,6.83-2.71,10.31c-0.66,3.74-0.99,7.53-1.33,11.31
					c-0.47,5.12-0.91,10.24-1.32,15.37c-0.12,1.51-0.24,3.02-0.36,4.54c-0.06,0.81,0.73,1.5,1.5,1.5
					C241.03,188.56,241.6,187.87,241.66,187.06L241.66,187.06z"/>
			</g>
		</g>
		<g>
			<g>
				<path class="st1" d="M232.76,183.25c0.9,1.63,1.84,3.24,2.81,4.83c0.47,0.78,0.96,1.55,1.45,2.32c0.53,0.83,1.17,1.63,2.24,1.7
					c1.02,0.06,1.81-0.5,2.48-1.21c0.65-0.69,1.3-1.39,1.95-2.09c1.36-1.45,2.71-2.91,4.07-4.36c1.32-1.41-0.8-3.54-2.12-2.12
					c-1.13,1.21-2.26,2.42-3.39,3.63c-0.57,0.61-1.13,1.21-1.7,1.82c-0.28,0.3-0.56,0.61-0.85,0.91c-0.11,0.12-0.32,0.26-0.38,0.4
					c-0.11,0.22-0.19-0.11,0.13,0.05c0.15,0.06,0.31,0.12,0.46,0.19c-0.04-0.04-0.08-0.08-0.11-0.12c0.05,0.06,0.05,0.05-0.01-0.03
					c-0.06-0.09-0.12-0.18-0.17-0.27c-0.21-0.33-0.43-0.67-0.64-1c-0.4-0.64-0.79-1.28-1.18-1.93c-0.84-1.39-1.65-2.8-2.44-4.22
					C234.42,180.04,231.82,181.56,232.76,183.25L232.76,183.25z"/>
			</g>
		</g>
		<g>
			<g>
				<path class="st1" d="M277.69,181.83c0.7,1.59,1.49,3.14,2.36,4.65c0.4,0.69,0.79,1.49,1.36,2.06c0.88,0.87,2.17,0.8,3.07,0.01
					c0.62-0.54,1.12-1.26,1.64-1.9c0.56-0.69,1.1-1.4,1.63-2.12c1.02-1.38,1.97-2.81,2.86-4.28c0.42-0.69,0.15-1.65-0.54-2.05
					c-0.71-0.42-1.63-0.16-2.05,0.54c-1.47,2.43-3.11,4.74-4.94,6.9c-0.19,0.23-0.52,0.48-0.66,0.74c0.35-0.24,0.66-0.26,0.94-0.06
					c0.19,0.13,0.22,0.13,0.07,0c0.02,0.03,0.05,0.06,0.07,0.09c-0.04-0.06-0.08-0.13-0.12-0.2c-0.39-0.63-0.77-1.27-1.13-1.92
					c-0.72-1.29-1.38-2.62-1.98-3.98c-0.33-0.74-1.41-0.91-2.05-0.54C277.47,180.22,277.36,181.08,277.69,181.83L277.69,181.83z"/>
			</g>
		</g>
	</g>
	<g>
		<g>
			<g>
				<path class="st1" d="M297.67,193.81c0.77-14.49,2.08-28.94,3.94-43.33c1.85-14.33,4.26-28.59,7.2-42.73
					c0.73-3.5,1.48-6.99,2.28-10.48c0.72-3.18,1.39-6.44,2.68-9.45c1.08-2.54,2.65-4.94,4.95-6.5c2.22-1.5,4.76-2.17,7.26-1.34
					c1.02,0.34,2.2,1.02,2.99,1.66c0.95,0.77,1.79,1.67,2.56,2.62c1,1.24,2.04,3.04,3.08,4.51c1.7,2.41,3.82,4.43,6.23,6.12
					c3.18,2.24,6.8,3.82,10.48,5.02c5.28,1.72,10.8,2.64,16.31,3.2c1.68,0.17,3.36,0.3,5.05,0.41c0.81,0.05,1.5-0.73,1.5-1.5
					c0-0.85-0.69-1.45-1.5-1.5c-6-0.37-12.01-1.11-17.82-2.69c-2.17-0.59-4.32-1.29-6.39-2.17c0.26,0.11-0.01-0.01-0.08-0.03
					c-0.1-0.04-0.2-0.09-0.31-0.13c-0.24-0.11-0.48-0.22-0.72-0.33c-0.42-0.2-0.84-0.4-1.25-0.61c-0.81-0.42-1.6-0.86-2.37-1.34
					c-0.69-0.43-1.37-0.89-2.02-1.38c-0.07-0.05-0.14-0.1-0.21-0.16c-0.29-0.21,0.26,0.21-0.02-0.02c-0.13-0.11-0.26-0.21-0.39-0.32
					c-0.3-0.25-0.6-0.5-0.89-0.76c-0.52-0.47-1.03-0.97-1.5-1.49c-0.2-0.21-0.39-0.43-0.58-0.65c-0.11-0.13-0.22-0.26-0.33-0.39
					c-0.07-0.09-0.43-0.56-0.13-0.15c-0.98-1.32-1.81-2.74-2.76-4.09c-1.51-2.14-3.28-4.15-5.54-5.53c-2.58-1.58-5.61-2.1-8.54-1.26
					c-2.96,0.85-5.51,2.8-7.35,5.24c-1.96,2.59-3.13,5.71-3.99,8.82c-0.93,3.34-1.63,6.76-2.37,10.15
					c-3.12,14.29-5.69,28.69-7.71,43.17c-2.04,14.62-3.53,29.32-4.45,44.05c-0.11,1.78-0.21,3.57-0.31,5.36
					c-0.04,0.81,0.72,1.5,1.5,1.5C297.02,195.31,297.63,194.62,297.67,193.81L297.67,193.81z"/>
			</g>
		</g>
		<g>
			<g>
				<path class="st1" d="M366.44,97.09c1.86,2.49,4.15,4.59,6.85,6.15c0.13,0.08,0.51,0.37,0.57,0.37c-0.02-0.03-0.03-0.06-0.04-0.1
					c-0.08-0.25-0.04-0.51,0.13-0.77c0.09-0.02-0.25,0.17-0.29,0.19c-0.69,0.48-1.38,0.95-2.07,1.43c-1.44,1-2.89,1.99-4.33,2.99
					c-0.67,0.46-0.97,1.32-0.54,2.05c0.39,0.66,1.38,1,2.05,0.54c1.61-1.11,3.21-2.22,4.82-3.33c0.8-0.55,1.77-1.06,2.47-1.75
					c0.76-0.75,0.92-1.91,0.35-2.82c-0.47-0.75-1.24-1.16-1.97-1.6c-0.66-0.39-1.3-0.82-1.91-1.3c-1.31-1.03-2.51-2.24-3.51-3.57
					c-0.48-0.65-1.3-0.98-2.05-0.54C366.34,95.41,365.95,96.44,366.44,97.09L366.44,97.09z"/>
			</g>
		</g>
		<g>
			<g>
				<path class="st1" d="M290.32,184.11c0.51,1.84,1.02,3.68,1.53,5.52c0.25,0.92,0.51,1.84,0.76,2.76
					c0.23,0.83,0.43,1.66,0.81,2.44c0.83,1.71,2.87,2.51,4.41,1.15c0.57-0.5,0.89-1.21,1.23-1.87c0.36-0.69,0.77-1.35,1.22-1.98
					c0.93-1.29,2.18-2.5,3.49-3.4c0.67-0.46,0.97-1.32,0.54-2.05c-0.39-0.66-1.38-1-2.05-0.54c-1.6,1.1-2.99,2.41-4.17,3.95
					c-0.53,0.69-1.01,1.41-1.43,2.18c-0.2,0.36-0.37,0.73-0.56,1.09c-0.03,0.06-0.32,0.5-0.21,0.35c-0.16,0.22-0.05,0.03,0.11,0
					c0.06-0.01,0.43,0.12,0.39,0.14c-0.07-0.06-0.14-0.13-0.2-0.2c0.09,0.11,0.08,0.09-0.02-0.06c-0.14-0.3-0.19-0.36-0.31-0.79
					c-0.3-1.03-0.57-2.06-0.86-3.09c-0.59-2.13-1.18-4.27-1.77-6.4C292.7,181.46,289.81,182.25,290.32,184.11L290.32,184.11z"/>
			</g>
		</g>
	</g>
</g>
</svg>
