<svg xmlns="http://www.w3.org/2000/svg" viewBox="0 0 417.41 166.61">
  <defs>
    <style>
      .cls-1 {
        fill: #00a651;
      }

      .cls-2 {
        fill: #231f20;
      }

      .cls-3 {
        fill: #ed1c24;
      }
    </style>
  </defs>
  <title>sin-function-and-inverse</title>
  <g id="Layer_2" data-name="Layer 2">
    <g id="Layer_1-2" data-name="Layer 1">
      <g>
        <path class="cls-1" d="M13.86,76.19V89h2a31.71,31.71,0,0,0-3.38-11.62,28.07,28.07,0,0,0-3.29-5C8,70.88,6.23,69.59,4.24,70c-1.76.37-2.86,2-3.47,3.53A13.55,13.55,0,0,0,0,79,15.31,15.31,0,0,0,16,93.61c1.28,0,1.29-2,0-2a13.64,13.64,0,0,1-8.87-2.82,13.26,13.26,0,0,1-4.88-8.11,12.86,12.86,0,0,1,0-4.75c.23-1.28.64-2.86,1.76-3.66,1.34-1,2.75.25,3.62,1.25a23.72,23.72,0,0,1,2.88,4.32A29.43,29.43,0,0,1,13.86,89a1,1,0,0,0,2,0V76.19a1,1,0,0,0-2,0Z"/>
        <path class="cls-1" d="M21.66,72.25l.81,18.89,2-.27a26.69,26.69,0,0,1,1.67-16.65,9.16,9.16,0,0,1,2.05-3.35c.23-.19.64-.51,1-.38s.72,1.19.89,1.61a33.61,33.61,0,0,1,2.22,8.67,33.41,33.41,0,0,1-.35,9.93c-.23,1.26,1.7,1.8,1.93.53a35.46,35.46,0,0,0-2-20.08c-.57-1.36-1.33-2.85-3.06-2.66-1.51.16-2.64,1.48-3.33,2.72a28.2,28.2,0,0,0-3.19,9.17,29.19,29.19,0,0,0,.31,11,1,1,0,0,0,2-.26l-.81-18.89c-.05-1.28-2.05-1.29-2,0Z"/>
        <path class="cls-1" d="M39.67,72.51a25.46,25.46,0,0,0-.43,8,24.91,24.91,0,0,0,.7,3.82,4.4,4.4,0,0,0,1.73,2.75c1.73,1.06,4,.06,5-1.58,1.25-2.14.29-4.82-.86-6.78a16.8,16.8,0,0,0-5.37-5.53L39.94,75a8.21,8.21,0,0,1,5.93,4.18,26.51,26.51,0,0,1,2.88,8.12,17,17,0,0,1,0,9,11.23,11.23,0,0,1-3.93,5.38A11.47,11.47,0,0,1,37.42,104c-1.29,0-1.29,2,0,2a13.71,13.71,0,0,0,12.92-8.37,17.35,17.35,0,0,0,.57-9.71,29.89,29.89,0,0,0-3.09-9.36A10.39,10.39,0,0,0,39.94,73c-1-.09-1.27,1.37-.5,1.86a14.77,14.77,0,0,1,3.88,3.64c1,1.39,2.13,3.22,1.92,5-.12,1-1.33,2.48-2.49,1.84-.67-.37-.83-1.37-1-2a21.48,21.48,0,0,1-.54-3.09A23.59,23.59,0,0,1,41.6,73c.26-1.25-1.66-1.79-1.93-.53Z"/>
        <path class="cls-1" d="M53.61,67.73q.41,12.87.24,25.74a1,1,0,0,0,1.86.51l1.12-1.52a1,1,0,0,0-.35-1.37,1,1,0,0,0-1.37.36L54,93l1.87.5Q56,80.6,55.61,67.73c0-1.28-2-1.29-2,0Z"/>
        <path class="cls-1" d="M62.07,82.28c2.26-1,4.93-2.51,4.75-5.37a3.4,3.4,0,0,0-1.58-2.83,3.12,3.12,0,0,0-3.42.31C59.58,76.06,59,79.31,59,81.93a15.72,15.72,0,0,0,2.11,8.15,6.13,6.13,0,0,0,3,2.73,2.73,2.73,0,0,0,3.46-.94c.7-1.09-1-2.09-1.73-1-.3.46-1,.14-1.38-.09A4.37,4.37,0,0,1,62.77,89,13.6,13.6,0,0,1,61,83a10.82,10.82,0,0,1,1.06-5.86c.35-.59.95-1.4,1.71-1.41.61,0,.94.52,1,1.06.36,2.11-2.21,3.14-3.75,3.8a1,1,0,0,0-.36,1.37,1,1,0,0,0,1.37.36Z"/>
      </g>
      <g>
        <path class="cls-2" d="M143.32.11a30.87,30.87,0,0,0-9,6.75c-1.2,1.31-3,3.05-2.6,5,.36,1.72,2.2,2.36,3.75,2.42,3,.1,7.28-1.71,9.65.93a4.79,4.79,0,0,1,1,3.85,5.91,5.91,0,0,1-2.31,3.74c-3.64,2.83-8.63,2-12.82,1.3a1,1,0,0,0-1.23.69,1,1,0,0,0,.69,1.24c4.14.71,8.47,1.36,12.44-.39,3.13-1.38,5.56-4.38,5.26-7.93a6.33,6.33,0,0,0-2-4.25,7.35,7.35,0,0,0-5.06-1.64c-1.82,0-3.61.45-5.42.46a2.7,2.7,0,0,1-1.82-.48c-.62-.56.11-1.47.49-2a28.66,28.66,0,0,1,10-8c1.16-.57.15-2.29-1-1.73Z"/>
        <path class="cls-2" d="M152.86,25.73a46.53,46.53,0,0,1-.76-15,1,1,0,0,0-1-1,1,1,0,0,0-1,1,48.18,48.18,0,0,0,.83,15.52c.27,1.25,2.2.72,1.93-.54Z"/>
        <path class="cls-2" d="M155.07,15.25l0,10.42a1,1,0,0,0,2,0,33.45,33.45,0,0,1,1.76-10.56,6.1,6.1,0,0,1,1.32-2.67c.15-.13.18,0,.12-.09s.08.24.09.28a12.64,12.64,0,0,1,.37,1.75c.21,1.17.37,2.36.47,3.55a41.2,41.2,0,0,1,0,7.45,1,1,0,0,0,2,0,41.24,41.24,0,0,0,.08-6.85c-.08-1.17-.22-2.34-.4-3.5a17.07,17.07,0,0,0-.61-3.09,2.09,2.09,0,0,0-2.06-1.57A3,3,0,0,0,158,12a13.09,13.09,0,0,0-1.15,2.85c-.35,1.08-.65,2.18-.89,3.28a35.9,35.9,0,0,0-.86,7.59h2l0-10.42a1,1,0,0,0-2,0Z"/>
        <path class="cls-2" d="M170.27,17.49c.94-1.26,2.43-2,3.25-3.37a4,4,0,0,0,.33-3.46c-1.29-3.24-5.21-1.06-6.76.77a9.59,9.59,0,0,0-2.22,7.21A9.09,9.09,0,0,0,169,25.26,10.86,10.86,0,0,0,178,26.59a1,1,0,0,0-.54-1.93c-3.94,1.17-9-.73-10.29-4.89a7.54,7.54,0,0,1,.54-5.63,6.61,6.61,0,0,1,1.85-2.28c.48-.37,1.79-1.29,2.32-.75s.23,1.68-.19,2.24c-.88,1.17-2.21,1.94-3.1,3.13a1,1,0,0,0,1.73,1Z"/>
      </g>
      <g>
        <path class="cls-2" d="M88.76,156.87a43.65,43.65,0,0,1,4.77-18.21c.59-1.14-1.13-2.15-1.72-1a45.85,45.85,0,0,0-5,19.22c-.05,1.28,1.95,1.28,2,0Z"/>
        <path class="cls-2" d="M93.88,145.77l-3,12.56,2,.27a26.5,26.5,0,0,1,3.86-11.37,10.26,10.26,0,0,1,1.74-2.38c.65-.54.86,0,1,.67a19.55,19.55,0,0,1,.31,3.15c0,1.12.06,2.23,0,3.35a39.08,39.08,0,0,1-1.07,7.76c-.3,1.25,1.63,1.79,1.93.53a42.07,42.07,0,0,0,1.13-8.06c0-1.35,0-2.7,0-4.05a15,15,0,0,0-.45-3.61,2.6,2.6,0,0,0-2.22-2,3.51,3.51,0,0,0-2.82,1.77,27.69,27.69,0,0,0-3.47,6.25,28.9,28.9,0,0,0-1.92,8c-.11,1.13,1.71,1.35,2,.27l3-12.57c.3-1.25-1.63-1.78-1.93-.53Z"/>
        <path class="cls-2" d="M105,143.2a42.77,42.77,0,0,0,1.69,17.52,1,1,0,0,0,1.93,0l4.86-13.23c.44-1.21-1.49-1.74-1.93-.54l-4.86,13.24h1.93a41.24,41.24,0,0,1-1.62-17,1,1,0,0,0-1-1,1,1,0,0,0-1,1Z"/>
        <path class="cls-2" d="M117.89,154.91c1.36-2.19,4.29-3.1,4.61-5.94.25-2.23-1.46-4.86-3.94-3.7a7.92,7.92,0,0,0-3,3,10.74,10.74,0,0,0-1.47,3.61,10.3,10.3,0,0,0,1.39,7.71,10.78,10.78,0,0,0,7.33,4.8,1,1,0,0,0,1.23-.7,1,1,0,0,0-.69-1.23,8.65,8.65,0,0,1-7.49-8.6,8.75,8.75,0,0,1,2.27-5.67,5,5,0,0,1,1.17-1c.35-.19.54-.23.77,0a2.22,2.22,0,0,1,.45,1.65,3.94,3.94,0,0,1-1.66,2.35,12.71,12.71,0,0,0-2.69,2.79c-.69,1.09,1,2.1,1.72,1Z"/>
        <path class="cls-2" d="M124.23,149.6a108.25,108.25,0,0,0,1.6,14.35c.2,1.14,1.94.83,2-.27l.1-5.12a42.24,42.24,0,0,1,.17-4.64,4.08,4.08,0,0,1,1.59-3.11,1.9,1.9,0,0,1,2.5.16c.82,1,2.23-.43,1.41-1.41a3.62,3.62,0,0,0-4-.91,5,5,0,0,0-3.15,3.36,18,18,0,0,0-.54,5.33l-.12,6.34,2-.26a105.24,105.24,0,0,1-1.52-13.82c-.06-1.29-2.06-1.29-2,0Z"/>
        <path class="cls-2" d="M141.55,149.35c-1.77-1-4.19-1.5-6-.38-1.7,1-2,3.05-1.39,4.81a6.58,6.58,0,0,0,1.22,2.29,18.11,18.11,0,0,0,1.41,1.36,3.23,3.23,0,0,1,1.17,1.61,3.61,3.61,0,0,1,0,2.25,3.09,3.09,0,0,1-4.78,1.18,1,1,0,0,0-1,1.73,5.14,5.14,0,0,0,5.57.26,4.92,4.92,0,0,0,2.33-5,5.66,5.66,0,0,0-.72-2.19,10.39,10.39,0,0,0-1.83-1.92,4.48,4.48,0,0,1-1.66-3.58c.22-2.23,3.47-1.47,4.7-.74a1,1,0,0,0,1-1.72Z"/>
        <path class="cls-2" d="M144.17,159.33a4.27,4.27,0,0,0,4.85-2.66,4.14,4.14,0,0,0-2.53-5.1,4.38,4.38,0,0,0-5.22,2.19,7.46,7.46,0,0,0-.09,6.52,17.29,17.29,0,0,0,4,6c.93.9,2.34-.52,1.41-1.41a15.38,15.38,0,0,1-3.33-4.8c-.78-1.76-1.3-4,0-5.68a2.48,2.48,0,0,1,2-1.11,2.23,2.23,0,0,1,1.86,1.37,2.09,2.09,0,0,1-2.38,2.71c-1.25-.27-1.79,1.66-.53,1.93Z"/>
      </g>
      <g>
        <path class="cls-2" d="M171,146.46c-2.26-1-4.44-.06-6.12,1.58a13.67,13.67,0,0,0-2.19,2.82c-.64,1.08-1.17,2.29-.56,3.5a3.51,3.51,0,0,0,2.55,1.74,14.73,14.73,0,0,0,3.74-.29,3.73,3.73,0,0,1,4,3.45,3.68,3.68,0,0,1-4.2,3.55c-1.25-.24-1.79,1.69-.53,1.93a5.78,5.78,0,0,0,5.7-2.29,5.23,5.23,0,0,0,.1-6,5.94,5.94,0,0,0-2.45-2.13,6.07,6.07,0,0,0-3.5-.34c-1,.15-2.2.53-3.14-.05s-.2-1.61.26-2.34c1-1.58,3.17-4.32,5.38-3.35a1,1,0,0,0,1.36-.36,1,1,0,0,0-.36-1.37Z"/>
        <path class="cls-2" d="M179.48,160.69a45.31,45.31,0,0,1-4.17-12.17c-.25-1.27-2.17-.73-1.93.53a47,47,0,0,0,4.38,12.65c.58,1.14,2.31.13,1.72-1Z"/>
        <path class="cls-2" d="M180.16,149.61c1.24,3.27,2.41,6.58,3.85,9.76.29.63.68,1.46,1.55,1.22,1.12-.31.69-1.55.47-2.31-.74-2.48-1.56-4.93-2.16-7.45-.16-.64-.3-1.28-.41-1.92-.06-.35-.07-.45-.1-.69s-.05-.53-.05-.8a4.43,4.43,0,0,1,0-.63c0,.21,0,.07,0,0a.61.61,0,0,1,0-.11c0-.16-.13.18,0,.05s.15-.14,0,0c.16-.13-.13.06-.15.09-.17.19-.11-.08,0,0a2.63,2.63,0,0,0,.34.18,9.94,9.94,0,0,1,.83.62c2.85,2.32,4,6,4.16,9.48.05,1.29,2.05,1.29,2,0a17.82,17.82,0,0,0-1.41-6.4,12.21,12.21,0,0,0-2.51-3.76c-.95-.95-2.83-2.79-4.31-1.92s-.93,3.13-.72,4.42a53.63,53.63,0,0,0,1.56,6.11l.9,2.89c.09.31.19.62.27.94a1.53,1.53,0,0,0,.07.29c.06.17,0-.19,0-.13s.09-.37.13-.43l.36-.35.23-.1h.53c.18,0,.51.27.52.39,0,0-.06-.1-.07-.14s-.15-.28-.21-.42c-.33-.7-.41-.93-.7-1.65-1-2.57-2-5.16-3-7.76a1,1,0,0,0-1.23-.7,1,1,0,0,0-.7,1.23Z"/>
        <path class="cls-2" d="M192.64,150.4c2.5-.82,5.3-2.83,5.39-5.72.11-3.21-4.34-4.82-6.77-3.26-2.08,1.34-2.38,3.78-2,6a14.75,14.75,0,0,0,3.33,6.72,7.44,7.44,0,0,0,2.92,2.17,3.7,3.7,0,0,0,4.09-1.31c.84-1-.57-2.39-1.42-1.41a2.41,2.41,0,0,1-1.27.93,1.7,1.7,0,0,1-.45,0c.18,0-.29-.08-.37-.11a2.17,2.17,0,0,1-.32-.16,3.21,3.21,0,0,1-.46-.29,5.85,5.85,0,0,1-.9-.79,12.55,12.55,0,0,1-2.83-4.78c-.5-1.51-.81-3.31-.05-4.57a2.3,2.3,0,0,1,.62-.64,2.2,2.2,0,0,1,1.53-.4,2.64,2.64,0,0,1,2.28,1.49,1.54,1.54,0,0,1-.08,1,3.6,3.6,0,0,1-.63,1.15,6.61,6.61,0,0,1-3.18,2.08c-1.22.4-.7,2.33.53,1.93Z"/>
      </g>
      <g>
        <path class="cls-2" d="M64.64,105.85a81.44,81.44,0,0,0,24.85,23.73A98.27,98.27,0,0,0,123,142.45a131.81,131.81,0,0,0,41.2.91,174.37,174.37,0,0,0,38.64-9.5A178,178,0,0,0,220.93,126c2.93-1.47,5.83-3,8.67-4.64,2.47-1.42,5.39-2.8,7.23-5a6.53,6.53,0,0,0,1.57-3.84c.13-1.93-2.88-1.92-3,0-.15,2.39-3.14,3.83-4.92,4.89q-4.11,2.43-8.33,4.64a173.52,173.52,0,0,1-17.4,7.92,174.73,174.73,0,0,1-37.14,9.94,132.82,132.82,0,0,1-39.56.4,98.32,98.32,0,0,1-33.46-11.17,80.19,80.19,0,0,1-25-21.38q-1.25-1.67-2.4-3.39c-1.07-1.6-3.67-.1-2.59,1.51Z"/>
        <path class="cls-2" d="M67.57,114.27a25.2,25.2,0,0,1-1.23-5.3,8.7,8.7,0,0,1-.11-2.38.81.81,0,0,1,.12-.35c0,.06.21-.15.05,0a1,1,0,0,1,.57-.14,7.23,7.23,0,0,1,2,.29l2.9.63,5.9,1.29a1.54,1.54,0,0,0,1.85-1.05,1.51,1.51,0,0,0-1-1.84l-6.75-1.48c-1.9-.41-4.13-1.23-6.08-.66a3.37,3.37,0,0,0-2.23,2,6.73,6.73,0,0,0-.24,3.15,29.19,29.19,0,0,0,1.39,6.68,1.54,1.54,0,0,0,1.85,1.05,1.52,1.52,0,0,0,1-1.85Z"/>
      </g>
      <g>
        <path class="cls-2" d="M231.75,54.8a154.58,154.58,0,0,0-32-16.93,129.2,129.2,0,0,0-35.15-8.23,113.6,113.6,0,0,0-35.92,2.56,103.58,103.58,0,0,0-17.25,5.74,108.38,108.38,0,0,0-15.6,8.48A174.17,174.17,0,0,0,75.21,61.83c-.85.74-1.7,1.5-2.53,2.26-1.43,1.3.69,3.42,2.12,2.12A163.86,163.86,0,0,1,93.93,51.26a124.94,124.94,0,0,1,14.78-8.77,96.76,96.76,0,0,1,16.52-6.3,109.47,109.47,0,0,1,35-3.85,123.8,123.8,0,0,1,34.63,6.92A147.75,147.75,0,0,1,226.58,55c1.23.79,2.45,1.61,3.66,2.44,1.59,1.09,3.09-1.51,1.51-2.59Z"/>
        <path class="cls-2" d="M229.72,44.72l.41,7.38c.06,1.24.14,2.47.2,3.7,0,.14,0,.28,0,.43,0,.39.08.26.36-.39.1,0,.07,0-.12,0,.1,0,.08,0-.06,0-.61.09-1.23.14-1.84.21l-3.68.4c-1.28.14-2.58.21-3.84.43s-2.45,1.88-1.27,3a1.7,1.7,0,0,0,2.93-1.1,1.5,1.5,0,0,0-3,0v.08l.44-1.06,0,0,.67-.39.55,0,.66.39.12.17.21.76v-.09l-.21.75c-.23.46-.69.39,0,.32l.86-.09,1.47-.16,3.07-.34,3.07-.34a2.69,2.69,0,0,0,2.58-1.69,8.91,8.91,0,0,0,0-3l-.17-3.08-.35-6.4a1.54,1.54,0,0,0-1.5-1.5,1.5,1.5,0,0,0-1.5,1.5Z"/>
      </g>
      <g>
        <path class="cls-3" d="M233.84,71.65l20.46-5.28a.5.5,0,0,0-.26-1l-20.47,5.28a.5.5,0,0,0,.27,1Z"/>
        <path class="cls-3" d="M246.33,60.24q-1.47,11.5-2.24,23.07a.5.5,0,0,0,.75.43,1.63,1.63,0,0,0,1-1.48c0-.64-1-.64-1,0a.67.67,0,0,1-.46.62l.75.43q.76-11.57,2.24-23.07c.08-.64-.92-.63-1,0Z"/>
        <path class="cls-3" d="M255.73,60.24l-.66,21.07a.51.51,0,0,0,1,.13,35.07,35.07,0,0,1,1.68-4.18c.21-.43,1.8-3.89,2.29-3.63s.31,1.57.32,2a21.3,21.3,0,0,1,0,2.26,23.81,23.81,0,0,1-.74,4.82.5.5,0,0,0,1,.27,25.8,25.8,0,0,0,.8-5.92,17.43,17.43,0,0,0-.13-2.89,1.7,1.7,0,0,0-.95-1.48,1.38,1.38,0,0,0-1.56.75,25.71,25.71,0,0,0-1.39,2.45,36.8,36.8,0,0,0-2.25,5.34l1,.13.66-21.07c0-.64-1-.64-1,0Z"/>
        <path class="cls-3" d="M265.29,76.3A10.16,10.16,0,0,0,270,70.13a3.9,3.9,0,0,0-.7-3.45,2.83,2.83,0,0,0-2.76-.91c-1.19.33-1.67,1.53-2,2.59A24.28,24.28,0,0,0,263.35,73a9.06,9.06,0,0,0,1.76,7.15,5.81,5.81,0,0,0,3.21,2,9.74,9.74,0,0,0,5.05-.69c.61-.2.35-1.16-.27-1-2.18.72-4.55,1.33-6.49-.28A7.06,7.06,0,0,1,264.23,75a14.05,14.05,0,0,1,.48-3.76,22.64,22.64,0,0,1,1.06-3.3c.43-1,1.24-1.53,2.26-1a2.49,2.49,0,0,1,1.07,2.74,9,9,0,0,1-4.31,5.78c-.55.33-.05,1.2.5.86Z"/>
        <path class="cls-3" d="M300.58,71.32a16.2,16.2,0,0,0,8.6-.25.5.5,0,0,0-.27-1,15.35,15.35,0,0,1-8.07.25c-.62-.15-.89.81-.26,1Z"/>
        <path class="cls-3" d="M321.5,61.32a16.25,16.25,0,0,0-7.6,10,7.63,7.63,0,0,0,1.05,6,7.21,7.21,0,0,0,4.63,3.08,7.5,7.5,0,0,0,6.26-1.75c.49-.43-.22-1.14-.71-.71a6.32,6.32,0,0,1-9.27-1.05c-2.36-3.35-.66-7.61,1.55-10.57A16.17,16.17,0,0,1,322,62.18a.5.5,0,0,0-.5-.86Z"/>
        <path class="cls-3" d="M327.08,72.76a11.38,11.38,0,0,1,2.16-4.26A3.75,3.75,0,0,1,333,67.33,2.68,2.68,0,0,1,334.56,69a6.24,6.24,0,0,1,.57,2.62,3.26,3.26,0,0,1-2.75,3c-2,.48-4-.42-5.77-1.19-.58-.25-1.09.61-.5.87,1.95.85,4.05,1.74,6.22,1.35A4.44,4.44,0,0,0,336,72.45a6.06,6.06,0,0,0-.31-3.26,4.57,4.57,0,0,0-1.56-2.39,4.29,4.29,0,0,0-4.71.22c-1.85,1.23-2.64,3.47-3.32,5.47-.21.62.76.88,1,.27Z"/>
        <path class="cls-3" d="M339.74,71.68a3.24,3.24,0,0,1,1.32-3.57,2.9,2.9,0,0,1,3.61,0A4,4,0,0,1,346,71.4a3.19,3.19,0,0,1-2.16,2.76,3.84,3.84,0,0,1-4.05-.81c-.45-.47-1.16.24-.71.71,2.35,2.44,7.22,1.42,7.85-2.1a5,5,0,0,0-1.37-4.36A3.84,3.84,0,0,0,341,67a4.31,4.31,0,0,0-2.19,5c.2.6,1.17.34,1-.27Z"/>
        <path class="cls-3" d="M348.74,66.28q.43,6.52,1.09,13c.06.63,1.06.64,1,0a20.76,20.76,0,0,1,1.11-9.18,6.71,6.71,0,0,1,2.29-3.43,2.69,2.69,0,0,1,3.34.15c.45.46,1.16-.25.71-.71a3.53,3.53,0,0,0-3.75-.69,5.8,5.8,0,0,0-3,3.17,20.74,20.74,0,0,0-1.66,10.69h1q-.66-6.5-1.09-13c0-.63-1-.64-1,0Z"/>
        <path class="cls-3" d="M365.32,58,365,73.78l.5-.5c-1.22,0-2.07-1.36-3-2a2.4,2.4,0,0,0-3.21-.07,3.33,3.33,0,0,0-.59,3.52,4.66,4.66,0,0,0,3.45,2.75,4.72,4.72,0,0,0,4.59-2c.37-.53-.49-1-.86-.51a3.63,3.63,0,0,1-4.47,1.2,3,3,0,0,1-1.79-3.7,1.24,1.24,0,0,1,1.36-.88,3,3,0,0,1,1.45.91c.88.81,1.75,1.74,3,1.79a.51.51,0,0,0,.5-.5L366.32,58a.5.5,0,0,0-1,0Z"/>
        <path class="cls-3" d="M370.91,75.66a63.72,63.72,0,0,1-.2-9.77c0-.64-1-.64-1,0a63.72,63.72,0,0,0,.2,9.77c.07.64,1.07.65,1,0Z"/>
        <path class="cls-3" d="M373.43,70.77l0,6.68h1a26.65,26.65,0,0,1,.65-9.18c.19-.76.34-1.94,1-2.46,1.39-1.13,1.5,3.58,1.51,4.1a23.14,23.14,0,0,1-.79,6.31.5.5,0,0,0,1,.27,24.39,24.39,0,0,0,.83-5.88,23.4,23.4,0,0,0-.14-3,5,5,0,0,0-.55-2,1.65,1.65,0,0,0-2.91,0,7.67,7.67,0,0,0-.83,2.32,26.38,26.38,0,0,0-.56,2.92,28.38,28.38,0,0,0-.15,6.64.5.5,0,0,0,1,0l0-6.68a.5.5,0,0,0-1,0Z"/>
        <path class="cls-3" d="M386.57,68.66l1.21,4.76.92-.39a23.32,23.32,0,0,0-3.31-5.39,7.14,7.14,0,0,0-2.15-2.09,1.87,1.87,0,0,0-2.15.51c-1.35,1.44-1.31,3.88-1,5.69s1.1,4.14,3.07,4.58c2.16.48,3.93-1.54,5.05-3.09.37-.52-.49-1-.87-.51-.79,1.11-2,2.64-3.5,2.67-1.73,0-2.41-2.12-2.7-3.48s-.42-3.55.47-4.88c.41-.62,1-.86,1.6-.33a14.75,14.75,0,0,1,1.71,1.9,22.29,22.29,0,0,1,2.93,4.93c.23.53,1.05.14.92-.39l-1.21-4.76a.5.5,0,0,0-1,.27Z"/>
        <path class="cls-3" d="M387.2,64.09a53,53,0,0,1,11.13-1.85c.64,0,.65-1,0-1a54.41,54.41,0,0,0-11.4,1.89.5.5,0,0,0,.27,1Z"/>
        <path class="cls-3" d="M393,56.75a114.28,114.28,0,0,0-2.37,20.36.5.5,0,0,0,.93.25l1.25-1.8c.36-.53-.5-1-.87-.5l-1.24,1.8.93.25A112.16,112.16,0,0,1,394,57c.14-.63-.83-.9-1-.27Z"/>
        <path class="cls-3" d="M399.36,70.49a16.76,16.76,0,0,0,6.06-6.28c.66-1.21,1.36-2.69,1-4.1a2.41,2.41,0,0,0-2.67-1.89,3.79,3.79,0,0,0-2.43,2.5A20,20,0,0,0,400,65.33c-.46,2.93-.13,6.07,1.82,8.42,1.76,2.15,4.73,3.47,7.46,2.52.61-.21.35-1.18-.26-1a5.75,5.75,0,0,1-5.78-1.49,8.35,8.35,0,0,1-2.43-6.48,15.65,15.65,0,0,1,.63-3.91A10.87,10.87,0,0,1,402.8,60a1.83,1.83,0,0,1,1.2-.83,1.39,1.39,0,0,1,1.37,1c.46,1.18-.3,2.57-.86,3.59a15.88,15.88,0,0,1-5.65,5.83.5.5,0,0,0,.5.86Z"/>
        <path class="cls-3" d="M233,102.63c1.15-2.17,2.47-4.52,4.55-5.93a5.64,5.64,0,0,1,7,.51c1.86,1.61,3.26,4.45,2.31,6.9-1.06,2.75-4.86,2.79-7.31,2.59a16.54,16.54,0,0,1-4.71-1.13,15.92,15.92,0,0,1-2.3-1.15c-.36-.21-.71-.44-1.05-.68a2.85,2.85,0,0,1-.33-.25.89.89,0,0,1-.14-.25q0-.26-.21,0c.65,0,.64-1,0-1s-.86.45-.8,1c.07.71.6,1.09,1.15,1.47a17.41,17.41,0,0,0,10.05,3,9,9,0,0,0,4.82-1.13c2.78-1.81,2.49-5.66.9-8.17S242.16,94,239,94.89c-3.38.93-5.39,4.35-6.92,7.24-.3.56.56,1.07.86.5Z"/>
        <path class="cls-3" d="M250.9,94.9l.41,14.53h1c-.2-3.76-.36-7.71.94-11.3a12,12,0,0,1,1.27-2.53c.41-.59,1.42-2.19,2.31-1.72s.89,1.78,1,2.5a23,23,0,0,1,.38,3.5,23.83,23.83,0,0,1-1,7.65.5.5,0,0,0,1,.27,24.58,24.58,0,0,0,1.06-7.8,23.75,23.75,0,0,0-.4-3.77,5.35,5.35,0,0,0-1.1-2.9c-1.73-1.74-3.69,1-4.47,2.4a15.87,15.87,0,0,0-1.88,6.12,43.62,43.62,0,0,0-.08,7.58c0,.63,1,.64,1,0L251.9,94.9c0-.64-1-.65-1,0Z"/>
        <path class="cls-3" d="M272.38,96.17a40.53,40.53,0,0,0,12.14-1.56.5.5,0,0,0-.27-1,39.7,39.7,0,0,1-11.87,1.52.5.5,0,0,0,0,1Z"/>
        <path class="cls-3" d="M278.85,88.88q-.5,9.91-.62,19.82a.5.5,0,0,0,1,0l0-1.79a.5.5,0,0,0-1,0l0,1.79h1q.12-9.92.62-19.82c0-.64-1-.64-1,0Z"/>
        <path class="cls-3" d="M284.85,88.13q-.54,11-.59,22c0,.54.89.7,1,.13a29.62,29.62,0,0,1,4.06-10.85l-.91-.12a13.58,13.58,0,0,1,.73,6.77c-.11.73-.63,1.89,0,2.51a.9.9,0,0,0,1.48-.37.5.5,0,0,0-1-.27,12.76,12.76,0,0,0,.51-2.3,13.22,13.22,0,0,0,.07-2.27,14.6,14.6,0,0,0-.9-4.33.5.5,0,0,0-.91-.12A30.42,30.42,0,0,0,284.28,110l1,.14q.06-11,.59-22c0-.64-1-.64-1,0Z"/>
        <path class="cls-3" d="M294.49,103.32A7.48,7.48,0,0,0,298,98.1a2,2,0,0,0-1.32-2.18,2.45,2.45,0,0,0-2.57,1.17,8.5,8.5,0,0,0-1.07,3.23,11,11,0,0,0-.05,3.24,7.39,7.39,0,0,0,3.15,5.25,6,6,0,0,0,6.17.43c.56-.31.06-1.18-.51-.86-2.88,1.59-6.36-.5-7.41-3.33a9.15,9.15,0,0,1-.26-5.13,6.52,6.52,0,0,1,.92-2.43c.58-.75,1.88-.94,2,.27a4.68,4.68,0,0,1-.87,2.54,7,7,0,0,1-2.12,2.16c-.54.35,0,1.22.5.86Z"/>
        <path class="cls-3" d="M313.42,95.89c0,4.11.17,9.41,4.33,11.62a5.55,5.55,0,0,0,5.12.06c1.89-1,2.4-3.11,2.64-5.07a21.63,21.63,0,0,0-.62-8.32.5.5,0,0,0-1,.26,20.72,20.72,0,0,1,.72,6.32c-.07,1.79-.18,4.22-1.63,5.5a4.34,4.34,0,0,1-4.53.5,6.68,6.68,0,0,1-3.28-3.83,19.24,19.24,0,0,1-.79-7,.5.5,0,0,0-1,0Z"/>
        <path class="cls-3" d="M330.44,94.27l0,12.7a.5.5,0,0,0,1,0,24.4,24.4,0,0,1,.89-6.12,22.79,22.79,0,0,1,1.05-3c.3-.69.67-1.91,1.38-2.32,1.6-.94,1.44,3.61,1.43,4.22a27.88,27.88,0,0,1-.9,6.36.5.5,0,0,0,1,.26,28.17,28.17,0,0,0,.91-5.91,25.85,25.85,0,0,0,0-3,4.76,4.76,0,0,0-.49-2,1.75,1.75,0,0,0-3.05-.12,11.6,11.6,0,0,0-1.24,2.43,26,26,0,0,0-1,2.73,25.46,25.46,0,0,0-.95,6.49h1l0-12.7a.5.5,0,0,0-1,0Z"/>
        <path class="cls-3" d="M342.69,106.66a61.51,61.51,0,0,0-.33-10.51c-.07-.64-1.08-.64-1,0a61.51,61.51,0,0,1,.33,10.51c0,.64,1,.64,1,0Z"/>
        <path class="cls-3" d="M342.94,94.54a63.74,63.74,0,0,0,9.77.2c.64,0,.65-1,0-1a63.74,63.74,0,0,1-9.77-.2c-.64-.06-.64.94,0,1Z"/>
        <path class="cls-3" d="M348.67,87.13a159.42,159.42,0,0,0,0,18.42c0,.64,1,.64,1,0a159.42,159.42,0,0,1,0-18.42c0-.64-1-.64-1,0Z"/>
        <path class="cls-3" d="M375.24,93.47c-7.11.27-10.78,13.72-2.8,15.49a10,10,0,0,0,5.93-.71c.58-.24.32-1.21-.27-1-2.62,1.09-6.52,1.55-8.3-1.23s-.67-6.61,1.08-9a5.81,5.81,0,0,1,4.36-2.58c.64,0,.65-1,0-1Z"/>
        <path class="cls-3" d="M383.65,106.28a36,36,0,0,1,.26-7.76.5.5,0,0,0-.35-.61.5.5,0,0,0-.61.35,37.1,37.1,0,0,0-.3,8c.05.64,1.05.64,1,0Z"/>
        <path class="cls-3" d="M386.07,96.89,387.33,107a.5.5,0,0,0,1,0c.16-2.46.21-5,.49-7.42A4.21,4.21,0,0,1,390,96.83a1.88,1.88,0,0,1,2.34-.23c.48.41,1.19-.29.7-.71a2.65,2.65,0,0,0-2.87-.32,3.85,3.85,0,0,0-2,2.55,18.24,18.24,0,0,0-.46,4.11l-.31,4.81h1l-1.26-10.15c-.07-.63-1.07-.64-1,0Z"/>
        <path class="cls-3" d="M398.25,94.55c-2.34,1.72-4.75,4.13-4.48,7.29a4.67,4.67,0,0,0,1.77,3.44,3.63,3.63,0,0,0,3.32.41,3.12,3.12,0,0,0,2.21-2.79c0-.64-1-.64-1,0a2.3,2.3,0,0,1-2.19,2,2.72,2.72,0,0,1-2.83-1.88c-1.24-3.14,1.38-5.89,3.71-7.6.51-.38,0-1.25-.51-.87Z"/>
        <path class="cls-3" d="M404.35,91.12a109.47,109.47,0,0,0-1.52,14.34.5.5,0,0,0,1,.13l.41-1.81c.14-.63-.82-.89-1-.26l-.41,1.81,1,.13a105.39,105.39,0,0,1,1.49-14.07c.11-.63-.86-.9-1-.27Z"/>
        <path class="cls-3" d="M407.54,99.17c1.73-1.46,4.52-1.67,5-4.29a2.19,2.19,0,0,0-.86-2.3,2.79,2.79,0,0,0-3.09.36c-4.48,3.24-1.79,10.35,1.06,13.75a8.07,8.07,0,0,0,7.4,3.07c.64-.1.37-1.07-.26-1-4.54.74-7.61-3.68-8.91-7.4-.71-2-1-4.38.11-6.33a3.56,3.56,0,0,1,2.17-1.78c1-.21,1.58.53,1.38,1.47a3.13,3.13,0,0,1-1.85,2.07,15.53,15.53,0,0,0-2.86,1.63c-.49.41.22,1.12.71.71Z"/>
        <path class="cls-3" d="M286.76,64.44a5.66,5.66,0,0,0,.66,4.55,6.76,6.76,0,0,0,3.42,3.21,4.58,4.58,0,0,0,4.1-.89,7.28,7.28,0,0,0,2.47-4,11.39,11.39,0,0,0,.37-2.24c0-.26,0-.52,0-.77s0-.4,0-.29l-.22.3h0l-.38.05c-.1,0-.39-.27-.34-.38a.57.57,0,0,0,0,.13c0,.14,0,.3,0,.44,0,.46,0,.92,0,1.38-.06,1.41-.18,2.82-.34,4.22a41.49,41.49,0,0,1-.87,5,14.73,14.73,0,0,1-1.54,4.1,5,5,0,0,1-5.47,2.47c-.62-.13-.89.83-.26,1,7.15,1.54,8.56-7.54,9.15-12.56a31.81,31.81,0,0,0,.34-6c0-.28-.08-.58-.4-.67-.5-.14-.65.34-.67.72a10.5,10.5,0,0,1-1,4.61c-1,1.88-3.38,3.45-5.43,2.09-1.85-1.24-3.35-3.94-2.62-6.15.2-.62-.77-.88-1-.27Z"/>
      </g>
    </g>
  </g>
</svg>
