<?xml version="1.0" encoding="utf-8" standalone="no"?>
<!DOCTYPE svg PUBLIC "-//W3C//DTD SVG 1.1//EN"
  "http://www.w3.org/Graphics/SVG/1.1/DTD/svg11.dtd">
<svg xmlns:xlink="http://www.w3.org/1999/xlink" width="422.448665pt" height="102.564039pt" viewBox="0 0 422.448665 102.564039" xmlns="http://www.w3.org/2000/svg" version="1.1">
 <metadata>
  <rdf:RDF xmlns:dc="http://purl.org/dc/elements/1.1/" xmlns:cc="http://creativecommons.org/ns#" xmlns:rdf="http://www.w3.org/1999/02/22-rdf-syntax-ns#">
   <cc:Work>
    <dc:type rdf:resource="http://purl.org/dc/dcmitype/StillImage"/>
    <dc:date>2022-11-09T10:24:00.206031</dc:date>
    <dc:format>image/svg+xml</dc:format>
    <dc:creator>
     <cc:Agent>
      <dc:title>Matplotlib v3.5.1, https://matplotlib.org/</dc:title>
     </cc:Agent>
    </dc:creator>
   </cc:Work>
  </rdf:RDF>
 </metadata>
 <defs>
  <style type="text/css">*{stroke-linejoin: round; stroke-linecap: butt}</style>
 </defs>
 <g id="figure_1">
  <g id="patch_1">
   <path d="M 0 102.564039 
L 422.448665 102.564039 
L 422.448665 0 
L 0 0 
L 0 102.564039 
z
" style="fill: none"/>
  </g>
  <g id="axes_1">
   <g id="patch_2">
    <path d="M 8.630418 95.044011 
L 415.248665 95.044011 
L 415.248665 21.7 
L 8.630418 21.7 
z
" style="fill: #ffffff"/>
   </g>
   <g id="matplotlib.axis_1">
    <g id="xtick_1">
     <g id="line2d_1">
      <defs>
       <path id="m2cd6799e1b" d="M 0 0 
L 0 3.5 
" style="stroke: #000000; stroke-width: 0.8"/>
      </defs>
      <g>
       <use xlink:href="#m2cd6799e1b" x="16.45" y="48.000963" style="stroke: #000000; stroke-width: 0.8"/>
      </g>
     </g>
     <g id="text_1">
      <!-- $-3\pi$ -->
      <g transform="translate(7.2 62.599401)scale(0.1 -0.1)">
       <defs>
        <path id="Cmsy10-a1" d="M 653 1472 
Q 600 1472 565 1512 
Q 531 1553 531 1600 
Q 531 1647 565 1687 
Q 600 1728 653 1728 
L 4325 1728 
Q 4375 1728 4408 1687 
Q 4441 1647 4441 1600 
Q 4441 1553 4408 1512 
Q 4375 1472 4325 1472 
L 653 1472 
z
" transform="scale(0.015625)"/>
        <path id="Cmr10-33" d="M 609 494 
Q 759 275 1012 169 
Q 1266 63 1556 63 
Q 1928 63 2084 380 
Q 2241 697 2241 1100 
Q 2241 1281 2208 1462 
Q 2175 1644 2097 1800 
Q 2019 1956 1883 2050 
Q 1747 2144 1550 2144 
L 1125 2144 
Q 1069 2144 1069 2203 
L 1069 2259 
Q 1069 2309 1125 2309 
L 1478 2338 
Q 1703 2338 1851 2506 
Q 2000 2675 2069 2917 
Q 2138 3159 2138 3378 
Q 2138 3684 1994 3881 
Q 1850 4078 1556 4078 
Q 1313 4078 1091 3986 
Q 869 3894 738 3706 
Q 750 3709 759 3711 
Q 769 3713 781 3713 
Q 925 3713 1022 3613 
Q 1119 3513 1119 3372 
Q 1119 3234 1022 3134 
Q 925 3034 781 3034 
Q 641 3034 541 3134 
Q 441 3234 441 3372 
Q 441 3647 606 3850 
Q 772 4053 1033 4158 
Q 1294 4263 1556 4263 
Q 1750 4263 1965 4205 
Q 2181 4147 2356 4039 
Q 2531 3931 2642 3762 
Q 2753 3594 2753 3378 
Q 2753 3109 2633 2881 
Q 2513 2653 2303 2487 
Q 2094 2322 1844 2241 
Q 2122 2188 2372 2031 
Q 2622 1875 2773 1631 
Q 2925 1388 2925 1106 
Q 2925 753 2731 467 
Q 2538 181 2222 20 
Q 1906 -141 1556 -141 
Q 1256 -141 954 -26 
Q 653 88 461 316 
Q 269 544 269 863 
Q 269 1022 375 1128 
Q 481 1234 641 1234 
Q 744 1234 830 1186 
Q 916 1138 964 1050 
Q 1013 963 1013 863 
Q 1013 706 903 600 
Q 794 494 641 494 
L 609 494 
z
" transform="scale(0.015625)"/>
        <path id="Cmmi10-bc" d="M 647 109 
Q 647 144 672 213 
Q 850 584 1004 942 
Q 1159 1300 1282 1639 
Q 1406 1978 1509 2363 
L 1100 2363 
Q 866 2363 662 2216 
Q 459 2069 325 1844 
Q 313 1819 288 1819 
L 213 1819 
Q 153 1819 153 1881 
Q 153 1894 166 1919 
Q 375 2275 614 2517 
Q 853 2759 1153 2759 
L 3475 2759 
Q 3541 2759 3587 2715 
Q 3634 2672 3634 2597 
Q 3634 2503 3567 2433 
Q 3500 2363 3406 2363 
L 2591 2363 
Q 2488 1859 2478 1381 
Q 2478 766 2694 269 
Q 2713 231 2713 191 
Q 2713 122 2672 62 
Q 2631 3 2567 -34 
Q 2503 -72 2431 -72 
Q 2263 -72 2200 203 
Q 2138 478 2138 738 
Q 2138 1103 2200 1442 
Q 2263 1781 2400 2363 
L 1703 2363 
Q 1197 313 1094 103 
Q 1003 -72 844 -72 
Q 766 -72 706 -20 
Q 647 31 647 109 
z
" transform="scale(0.015625)"/>
       </defs>
       <use xlink:href="#Cmsy10-a1" transform="translate(0 0.390625)"/>
       <use xlink:href="#Cmr10-33" transform="translate(77.685547 0.390625)"/>
       <use xlink:href="#Cmmi10-bc" transform="translate(127.685547 0.390625)"/>
      </g>
     </g>
    </g>
    <g id="xtick_2">
     <g id="line2d_2">
      <g>
       <use xlink:href="#m2cd6799e1b" x="81.613181" y="48.000963" style="stroke: #000000; stroke-width: 0.8"/>
      </g>
     </g>
     <g id="text_2">
      <!-- $-2\pi$ -->
      <g transform="translate(72.363181 62.599401)scale(0.1 -0.1)">
       <defs>
        <path id="Cmr10-32" d="M 319 0 
L 319 172 
Q 319 188 331 206 
L 1325 1306 
Q 1550 1550 1690 1715 
Q 1831 1881 1968 2097 
Q 2106 2313 2186 2536 
Q 2266 2759 2266 3009 
Q 2266 3272 2169 3511 
Q 2072 3750 1880 3894 
Q 1688 4038 1416 4038 
Q 1138 4038 916 3870 
Q 694 3703 603 3438 
Q 628 3444 672 3444 
Q 816 3444 917 3347 
Q 1019 3250 1019 3097 
Q 1019 2950 917 2848 
Q 816 2747 672 2747 
Q 522 2747 420 2851 
Q 319 2956 319 3097 
Q 319 3338 409 3548 
Q 500 3759 670 3923 
Q 841 4088 1055 4175 
Q 1269 4263 1509 4263 
Q 1875 4263 2190 4108 
Q 2506 3953 2690 3670 
Q 2875 3388 2875 3009 
Q 2875 2731 2753 2481 
Q 2631 2231 2440 2026 
Q 2250 1822 1953 1562 
Q 1656 1303 1563 1216 
L 838 519 
L 1453 519 
Q 1906 519 2211 526 
Q 2516 534 2534 550 
Q 2609 631 2688 1141 
L 2875 1141 
L 2694 0 
L 319 0 
z
" transform="scale(0.015625)"/>
       </defs>
       <use xlink:href="#Cmsy10-a1" transform="translate(0 0.390625)"/>
       <use xlink:href="#Cmr10-32" transform="translate(77.685547 0.390625)"/>
       <use xlink:href="#Cmmi10-bc" transform="translate(127.685547 0.390625)"/>
      </g>
     </g>
    </g>
    <g id="xtick_3">
     <g id="line2d_3">
      <g>
       <use xlink:href="#m2cd6799e1b" x="146.776361" y="48.000963" style="stroke: #000000; stroke-width: 0.8"/>
      </g>
     </g>
     <g id="text_3">
      <!-- $-\pi$ -->
      <g transform="translate(140.026361 62.599401)scale(0.1 -0.1)">
       <use xlink:href="#Cmsy10-a1" transform="translate(0 0.890625)"/>
       <use xlink:href="#Cmmi10-bc" transform="translate(77.685547 0.890625)"/>
      </g>
     </g>
    </g>
    <g id="xtick_4">
     <g id="line2d_4">
      <g>
       <use xlink:href="#m2cd6799e1b" x="211.939542" y="48.000963" style="stroke: #000000; stroke-width: 0.8"/>
      </g>
     </g>
    </g>
    <g id="xtick_5">
     <g id="line2d_5">
      <g>
       <use xlink:href="#m2cd6799e1b" x="277.102722" y="48.000963" style="stroke: #000000; stroke-width: 0.8"/>
      </g>
     </g>
     <g id="text_4">
      <!-- $\pi$ -->
      <g transform="translate(274.252722 62.599401)scale(0.1 -0.1)">
       <use xlink:href="#Cmmi10-bc" transform="translate(0 0.890625)"/>
      </g>
     </g>
    </g>
    <g id="xtick_6">
     <g id="line2d_6">
      <g>
       <use xlink:href="#m2cd6799e1b" x="342.265903" y="48.000963" style="stroke: #000000; stroke-width: 0.8"/>
      </g>
     </g>
     <g id="text_5">
      <!-- $2\pi$ -->
      <g transform="translate(336.915903 62.599401)scale(0.1 -0.1)">
       <use xlink:href="#Cmr10-32" transform="translate(0 0.390625)"/>
       <use xlink:href="#Cmmi10-bc" transform="translate(50 0.390625)"/>
      </g>
     </g>
    </g>
    <g id="xtick_7">
     <g id="line2d_7">
      <g>
       <use xlink:href="#m2cd6799e1b" x="407.429083" y="48.000963" style="stroke: #000000; stroke-width: 0.8"/>
      </g>
     </g>
     <g id="text_6">
      <!-- $3\pi$ -->
      <g transform="translate(402.079083 62.599401)scale(0.1 -0.1)">
       <use xlink:href="#Cmr10-33" transform="translate(0 0.390625)"/>
       <use xlink:href="#Cmmi10-bc" transform="translate(50 0.390625)"/>
      </g>
     </g>
    </g>
   </g>
   <g id="matplotlib.axis_2">
    <g id="ytick_1">
     <g id="line2d_8">
      <defs>
       <path id="md946934520" d="M 0 0 
L -3.5 0 
" style="stroke: #000000; stroke-width: 0.8"/>
      </defs>
      <g>
       <use xlink:href="#md946934520" x="211.939542" y="89.485132" style="stroke: #000000; stroke-width: 0.8"/>
      </g>
     </g>
     <g id="text_7">
      <!-- $-2$ -->
      <g transform="translate(192.139542 93.284351)scale(0.1 -0.1)">
       <use xlink:href="#Cmsy10-a1" transform="translate(0 0.390625)"/>
       <use xlink:href="#Cmr10-32" transform="translate(77.685547 0.390625)"/>
      </g>
     </g>
    </g>
    <g id="ytick_2">
     <g id="line2d_9">
      <g>
       <use xlink:href="#md946934520" x="211.939542" y="68.743048" style="stroke: #000000; stroke-width: 0.8"/>
      </g>
     </g>
     <g id="text_8">
      <!-- $-1$ -->
      <g transform="translate(192.139542 72.542267)scale(0.1 -0.1)">
       <defs>
        <path id="Cmr10-31" d="M 594 0 
L 594 225 
Q 1394 225 1394 428 
L 1394 3788 
Q 1063 3628 556 3628 
L 556 3853 
Q 1341 3853 1741 4263 
L 1831 4263 
Q 1853 4263 1873 4245 
Q 1894 4228 1894 4206 
L 1894 428 
Q 1894 225 2694 225 
L 2694 0 
L 594 0 
z
" transform="scale(0.015625)"/>
       </defs>
       <use xlink:href="#Cmsy10-a1" transform="translate(0 0.390625)"/>
       <use xlink:href="#Cmr10-31" transform="translate(77.685547 0.390625)"/>
      </g>
     </g>
    </g>
    <g id="ytick_3">
     <g id="line2d_10">
      <g>
       <use xlink:href="#md946934520" x="211.939542" y="27.258879" style="stroke: #000000; stroke-width: 0.8"/>
      </g>
     </g>
     <g id="text_9">
      <!-- $+1$ -->
      <g transform="translate(192.139542 31.058097)scale(0.1 -0.1)">
       <defs>
        <path id="Cmr10-2b" d="M 481 1472 
Q 428 1472 393 1512 
Q 359 1553 359 1600 
Q 359 1647 393 1687 
Q 428 1728 481 1728 
L 2363 1728 
L 2363 3616 
Q 2363 3666 2400 3698 
Q 2438 3731 2491 3731 
Q 2538 3731 2578 3698 
Q 2619 3666 2619 3616 
L 2619 1728 
L 4500 1728 
Q 4547 1728 4581 1687 
Q 4616 1647 4616 1600 
Q 4616 1553 4581 1512 
Q 4547 1472 4500 1472 
L 2619 1472 
L 2619 -416 
Q 2619 -466 2578 -498 
Q 2538 -531 2491 -531 
Q 2438 -531 2400 -498 
Q 2363 -466 2363 -416 
L 2363 1472 
L 481 1472 
z
" transform="scale(0.015625)"/>
       </defs>
       <use xlink:href="#Cmr10-2b" transform="translate(0 0.390625)"/>
       <use xlink:href="#Cmr10-31" transform="translate(77.685547 0.390625)"/>
      </g>
     </g>
    </g>
   </g>
   <g id="line2d_11">
    <path d="M 16.45 27.258879 
L 18.147144 29.231235 
L 19.769315 31.617374 
L 21.362108 34.408587 
L 23.225556 38.185928 
L 25.599774 43.676912 
L 28.682909 51.626687 
L 36.013308 71.227049 
L 38.420633 76.88789 
L 39.830843 79.836743 
L 41.325519 82.60279 
L 42.84367 84.985139 
L 44.361821 86.894313 
L 45.448477 87.950745 
L 46.911587 88.945031 
L 47.877232 89.324665 
L 48.842877 89.48084 
L 49.808522 89.412408 
L 50.904914 89.063135 
L 51.681412 88.642744 
L 52.45791 88.081077 
L 54.010905 86.54525 
L 55.140033 85.097163 
L 56.792316 82.50872 
L 58.361782 79.579097 
L 60.122814 75.816616 
L 62.090275 71.126426 
L 64.507735 64.860043 
L 72.432042 43.753761 
L 74.624906 38.64908 
L 76.240555 35.29318 
L 77.856204 32.341516 
L 79.364156 29.989305 
L 80.625702 28.339936 
L 81.725974 27.147313 
L 82.826245 26.188232 
L 83.829708 25.518489 
L 84.83317 25.04354 
L 85.76854 24.77403 
L 86.70391 24.668166 
L 88.278764 24.846019 
L 89.853618 25.443741 
L 91.441526 26.431722 
L 92.87096 27.612269 
L 94.957335 29.744121 
L 97.483978 32.794298 
L 104.4125 41.702448 
L 106.084057 43.540367 
L 107.916923 45.258259 
L 109.895651 46.688155 
L 111.453544 47.461497 
L 113.011437 47.899837 
L 114.543293 47.99218 
L 115.783059 47.818978 
L 117.39868 47.265984 
L 119.014302 46.358701 
L 120.955857 44.839388 
L 122.727884 43.097923 
L 125.070806 40.389724 
L 128.384716 36.099298 
L 131.421792 32.140909 
L 133.770592 29.370078 
L 135.375227 27.744293 
L 137.185934 26.260857 
L 138.834735 25.299756 
L 140.250656 24.812723 
L 141.762903 24.670816 
L 142.519027 24.754614 
L 143.338339 24.96589 
L 144.83003 25.679599 
L 146.174789 26.692275 
L 147.41425 27.935889 
L 149.141126 30.155397 
L 150.941887 33.047171 
L 152.378765 35.746928 
L 154.052013 39.284446 
L 156.184753 44.313527 
L 158.226265 49.544139 
L 167.30856 73.588848 
L 169.375471 78.239842 
L 171.048865 81.534475 
L 172.887638 84.576641 
L 174.304408 86.458433 
L 175.721178 87.904846 
L 176.780488 88.687923 
L 177.839797 89.207762 
L 178.656517 89.425851 
L 179.841299 89.456978 
L 181.026082 89.150358 
L 182.378287 88.392213 
L 183.730491 87.209597 
L 185.003467 85.723558 
L 186.609034 83.364032 
L 188.2146 80.508073 
L 190.247228 76.270956 
L 192.387891 71.198032 
L 195.627573 62.725144 
L 202.144051 45.278524 
L 204.562061 39.512188 
L 206.531153 35.363267 
L 207.98336 32.682047 
L 209.41865 30.383312 
L 210.943521 28.3501 
L 212.714368 26.542093 
L 214.257494 25.461663 
L 215.463722 24.937701 
L 216.661869 24.6906 
L 217.961111 24.72062 
L 219.33354 25.072469 
L 220.75163 25.757195 
L 222.142195 26.715884 
L 223.731077 28.115464 
L 225.970547 30.531904 
L 229.248732 34.665463 
L 233.890014 40.690012 
L 236.370362 43.499102 
L 238.072023 45.112758 
L 240.054221 46.58571 
L 241.927218 47.517552 
L 243.091883 47.85353 
L 244.256548 47.995901 
L 245.486875 47.933577 
L 246.717201 47.653826 
L 248.042678 47.11487 
L 249.17237 46.469011 
L 250.991087 45.094825 
L 253.058161 43.093747 
L 254.465102 41.513225 
L 257.145757 38.164284 
L 262.874987 30.764021 
L 265.477503 27.955295 
L 267.173018 26.506838 
L 268.837368 25.456372 
L 270.501718 24.830233 
L 271.92238 24.666452 
L 272.759879 24.73983 
L 274.09803 25.129129 
L 275.099333 25.644399 
L 276.535451 26.722698 
L 277.933172 28.155568 
L 279.319938 29.944088 
L 280.553473 31.831346 
L 282.451678 35.246902 
L 284.236796 38.970058 
L 286.84662 45.149099 
L 289.971119 53.33836 
L 296.44449 70.673358 
L 299.067112 76.874171 
L 300.984773 80.807912 
L 302.562305 83.57277 
L 304.139837 85.85429 
L 305.377753 87.27692 
L 306.387491 88.184458 
L 307.349429 88.830408 
L 308.263566 89.242168 
L 308.720634 89.37327 
L 309.521918 89.481954 
L 310.323203 89.435949 
L 311.124487 89.235487 
L 312.480827 88.547388 
L 313.625583 87.631963 
L 315.134871 85.973861 
L 316.514253 84.03309 
L 317.893635 81.715783 
L 319.555356 78.473374 
L 321.067488 75.150148 
L 323.870874 68.257442 
L 326.011099 62.570378 
L 331.807273 46.96283 
L 334.736306 39.854891 
L 337.209457 34.682234 
L 338.916782 31.665632 
L 340.534667 29.276429 
L 341.669446 27.889547 
L 342.815626 26.738352 
L 343.973206 25.833928 
L 345.053764 25.224313 
L 346.057299 24.859232 
L 347.111131 24.680354 
L 348.21526 24.711045 
L 349.270968 24.940578 
L 350.278255 25.33258 
L 351.694103 26.148807 
L 352.914215 27.077829 
L 354.794484 28.859941 
L 357.002441 31.376358 
L 359.797896 34.959685 
L 364.927375 41.54125 
L 366.792305 43.597323 
L 368.855077 45.493397 
L 370.412626 46.605554 
L 371.842931 47.353823 
L 373.451922 47.860383 
L 375.14945 47.99437 
L 376.407011 47.825496 
L 377.664571 47.431462 
L 379.213066 46.648015 
L 380.330402 45.889635 
L 382.242771 44.251736 
L 383.832838 42.607058 
L 384.979341 41.291139 
L 388.945675 36.221069 
L 392.217227 31.962526 
L 394.817355 28.947307 
L 396.457006 27.356228 
L 398.096657 26.084378 
L 399.596896 25.250514 
L 400.461593 24.929161 
L 401.32629 24.73248 
L 402.880146 24.709786 
L 404.372371 25.107636 
L 405.738848 25.845372 
L 406.865671 26.726136 
L 407.429083 27.258879 
L 407.429083 27.258879 
" clip-path="url(#p427e6b9fe9)" style="fill: none; stroke: #ff0000; stroke-width: 3; stroke-linecap: square"/>
   </g>
   <g id="patch_3">
    <path d="M 211.939542 95.044011 
L 211.939542 21.7 
" style="fill: none; stroke: #000000; stroke-width: 0.8; stroke-linejoin: miter; stroke-linecap: square"/>
   </g>
   <g id="patch_4">
    <path d="M 8.630418 48.000963 
L 415.248665 48.000963 
" style="fill: none; stroke: #000000; stroke-width: 0.8; stroke-linejoin: miter; stroke-linecap: square"/>
   </g>
   <g id="text_10">
    <!-- $f(\theta) =  (\cos\theta)^2 - (\sin\theta)^2 + \sin(\theta)$ -->
    <g transform="translate(142.739542 15.7)scale(0.1 -0.1)">
     <defs>
      <path id="Cmmi10-66" d="M 622 -1056 
Q 741 -1147 909 -1147 
Q 1138 -1147 1281 -641 
Q 1341 -397 1606 966 
L 1900 2534 
L 1350 2534 
Q 1288 2534 1288 2619 
Q 1313 2759 1369 2759 
L 1941 2759 
L 2016 3175 
Q 2053 3369 2084 3508 
Q 2116 3647 2152 3765 
Q 2188 3884 2259 4031 
Q 2369 4241 2555 4377 
Q 2741 4513 2956 4513 
Q 3097 4513 3230 4461 
Q 3363 4409 3447 4306 
Q 3531 4203 3531 4063 
Q 3531 3900 3423 3779 
Q 3316 3659 3163 3659 
Q 3059 3659 2986 3723 
Q 2913 3788 2913 3891 
Q 2913 4031 3008 4136 
Q 3103 4241 3244 4256 
Q 3125 4347 2950 4347 
Q 2853 4347 2767 4256 
Q 2681 4166 2656 4063 
Q 2616 3900 2478 3181 
L 2400 2759 
L 3059 2759 
Q 3122 2759 3122 2675 
Q 3119 2659 3109 2620 
Q 3100 2581 3083 2557 
Q 3066 2534 3041 2534 
L 2356 2534 
L 2059 972 
Q 2003 631 1929 279 
Q 1856 -72 1723 -442 
Q 1591 -813 1384 -1063 
Q 1178 -1313 897 -1313 
Q 681 -1313 511 -1189 
Q 341 -1066 341 -863 
Q 341 -700 445 -579 
Q 550 -459 709 -459 
Q 816 -459 887 -523 
Q 959 -588 959 -691 
Q 959 -828 857 -942 
Q 756 -1056 622 -1056 
z
" transform="scale(0.015625)"/>
      <path id="Cmr10-28" d="M 1984 -1588 
Q 1628 -1306 1370 -942 
Q 1113 -578 948 -165 
Q 784 247 703 697 
Q 622 1147 622 1600 
Q 622 2059 703 2509 
Q 784 2959 951 3375 
Q 1119 3791 1378 4153 
Q 1638 4516 1984 4788 
Q 1984 4800 2016 4800 
L 2075 4800 
Q 2094 4800 2109 4783 
Q 2125 4766 2125 4744 
Q 2125 4716 2113 4703 
Q 1800 4397 1592 4047 
Q 1384 3697 1257 3301 
Q 1131 2906 1075 2482 
Q 1019 2059 1019 1600 
Q 1019 -434 2106 -1491 
Q 2125 -1509 2125 -1544 
Q 2125 -1559 2108 -1579 
Q 2091 -1600 2075 -1600 
L 2016 -1600 
Q 1984 -1600 1984 -1588 
z
" transform="scale(0.015625)"/>
      <path id="Cmmi10-b5" d="M 1031 -72 
Q 741 -72 566 140 
Q 391 353 323 653 
Q 256 953 256 1247 
L 256 1253 
Q 256 1572 317 1915 
Q 378 2259 493 2601 
Q 609 2944 744 3213 
Q 838 3400 986 3631 
Q 1134 3863 1317 4064 
Q 1500 4266 1711 4389 
Q 1922 4513 2138 4513 
L 2144 4513 
Q 2375 4513 2529 4384 
Q 2684 4256 2770 4056 
Q 2856 3856 2890 3628 
Q 2925 3400 2925 3194 
Q 2925 2709 2794 2204 
Q 2663 1700 2431 1228 
Q 2344 1050 2189 809 
Q 2034 569 1861 378 
Q 1688 188 1472 58 
Q 1256 -72 1038 -72 
L 1031 -72 
z
M 1044 97 
Q 1256 97 1451 323 
Q 1647 550 1794 873 
Q 1941 1197 2052 1536 
Q 2163 1875 2216 2113 
L 909 2113 
Q 809 1709 753 1417 
Q 697 1125 697 844 
Q 697 97 1044 97 
z
M 959 2338 
L 2272 2338 
Q 2341 2619 2381 2808 
Q 2422 2997 2450 3206 
Q 2478 3416 2478 3597 
Q 2478 4347 2138 4347 
Q 1731 4347 1436 3692 
Q 1141 3038 959 2338 
z
" transform="scale(0.015625)"/>
      <path id="Cmr10-29" d="M 416 -1600 
Q 359 -1600 359 -1544 
Q 359 -1516 372 -1503 
Q 1466 -434 1466 1600 
Q 1466 3634 384 4691 
Q 359 4706 359 4744 
Q 359 4766 376 4783 
Q 394 4800 416 4800 
L 475 4800 
Q 494 4800 506 4788 
Q 966 4425 1272 3906 
Q 1578 3388 1720 2800 
Q 1863 2213 1863 1600 
Q 1863 1147 1786 708 
Q 1709 269 1542 -157 
Q 1375 -584 1119 -945 
Q 863 -1306 506 -1588 
Q 494 -1600 475 -1600 
L 416 -1600 
z
" transform="scale(0.015625)"/>
      <path id="Cmr10-3d" d="M 481 850 
Q 428 850 393 890 
Q 359 931 359 978 
Q 359 1031 393 1068 
Q 428 1106 481 1106 
L 4500 1106 
Q 4547 1106 4581 1068 
Q 4616 1031 4616 978 
Q 4616 931 4581 890 
Q 4547 850 4500 850 
L 481 850 
z
M 481 2094 
Q 428 2094 393 2131 
Q 359 2169 359 2222 
Q 359 2269 393 2309 
Q 428 2350 481 2350 
L 4500 2350 
Q 4547 2350 4581 2309 
Q 4616 2269 4616 2222 
Q 4616 2169 4581 2131 
Q 4547 2094 4500 2094 
L 481 2094 
z
" transform="scale(0.015625)"/>
      <path id="Cmr10-63" d="M 1594 -72 
Q 1206 -72 890 129 
Q 575 331 394 667 
Q 213 1003 213 1381 
Q 213 1759 392 2106 
Q 572 2453 889 2661 
Q 1206 2869 1594 2869 
Q 1969 2869 2276 2722 
Q 2584 2575 2584 2241 
Q 2584 2116 2495 2023 
Q 2406 1931 2278 1931 
Q 2150 1931 2061 2023 
Q 1972 2116 1972 2241 
Q 1972 2353 2044 2436 
Q 2116 2519 2222 2541 
Q 2000 2681 1600 2681 
Q 1294 2681 1106 2478 
Q 919 2275 844 1975 
Q 769 1675 769 1381 
Q 769 1072 861 783 
Q 953 494 1158 305 
Q 1363 116 1672 116 
Q 1975 116 2187 302 
Q 2400 488 2478 788 
Q 2478 825 2528 825 
L 2606 825 
Q 2625 825 2640 808 
Q 2656 791 2656 769 
L 2656 750 
Q 2559 372 2271 150 
Q 1984 -72 1594 -72 
z
" transform="scale(0.015625)"/>
      <path id="Cmr10-6f" d="M 1600 -72 
Q 1216 -72 887 123 
Q 559 319 368 647 
Q 178 975 178 1363 
Q 178 1656 283 1928 
Q 388 2200 583 2414 
Q 778 2628 1037 2748 
Q 1297 2869 1600 2869 
Q 1994 2869 2317 2661 
Q 2641 2453 2828 2104 
Q 3016 1756 3016 1363 
Q 3016 978 2825 648 
Q 2634 319 2307 123 
Q 1981 -72 1600 -72 
z
M 1600 116 
Q 2113 116 2284 487 
Q 2456 859 2456 1434 
Q 2456 1756 2422 1967 
Q 2388 2178 2272 2350 
Q 2200 2456 2089 2536 
Q 1978 2616 1854 2658 
Q 1731 2700 1600 2700 
Q 1400 2700 1220 2609 
Q 1041 2519 922 2350 
Q 803 2169 770 1951 
Q 738 1734 738 1434 
Q 738 1075 800 789 
Q 863 503 1052 309 
Q 1241 116 1600 116 
z
" transform="scale(0.015625)"/>
      <path id="Cmr10-73" d="M 213 -19 
L 213 1025 
Q 213 1075 269 1075 
L 347 1075 
Q 384 1075 397 1025 
Q 575 97 1259 97 
Q 1563 97 1767 234 
Q 1972 372 1972 659 
Q 1972 866 1812 1011 
Q 1653 1156 1434 1209 
L 1006 1294 
Q 791 1341 614 1437 
Q 438 1534 325 1695 
Q 213 1856 213 2069 
Q 213 2350 361 2529 
Q 509 2709 746 2789 
Q 984 2869 1259 2869 
Q 1588 2869 1831 2694 
L 2016 2853 
Q 2016 2869 2047 2869 
L 2094 2869 
Q 2113 2869 2128 2851 
Q 2144 2834 2144 2816 
L 2144 1978 
Q 2144 1919 2094 1919 
L 2016 1919 
Q 1959 1919 1959 1978 
Q 1959 2313 1773 2516 
Q 1588 2719 1253 2719 
Q 966 2719 755 2612 
Q 544 2506 544 2247 
Q 544 2069 695 1955 
Q 847 1841 1050 1791 
L 1484 1709 
Q 1703 1659 1892 1540 
Q 2081 1422 2192 1240 
Q 2303 1059 2303 831 
Q 2303 600 2223 429 
Q 2144 259 2001 146 
Q 1859 34 1665 -19 
Q 1472 -72 1259 -72 
Q 859 -72 575 197 
L 341 -56 
Q 341 -72 306 -72 
L 269 -72 
Q 213 -72 213 -19 
z
" transform="scale(0.015625)"/>
      <path id="Cmr10-69" d="M 197 0 
L 197 225 
Q 416 225 556 259 
Q 697 294 697 428 
L 697 2175 
Q 697 2422 601 2478 
Q 506 2534 225 2534 
L 225 2759 
L 1147 2828 
L 1147 428 
Q 1147 294 1269 259 
Q 1391 225 1594 225 
L 1594 0 
L 197 0 
z
M 469 3928 
Q 469 4069 575 4175 
Q 681 4281 819 4281 
Q 909 4281 993 4234 
Q 1078 4188 1125 4103 
Q 1172 4019 1172 3928 
Q 1172 3791 1065 3684 
Q 959 3578 819 3578 
Q 681 3578 575 3684 
Q 469 3791 469 3928 
z
" transform="scale(0.015625)"/>
      <path id="Cmr10-6e" d="M 191 0 
L 191 225 
Q 409 225 550 259 
Q 691 294 691 428 
L 691 2175 
Q 691 2347 639 2423 
Q 588 2500 491 2517 
Q 394 2534 191 2534 
L 191 2759 
L 1119 2828 
L 1119 2203 
Q 1247 2478 1498 2653 
Q 1750 2828 2047 2828 
Q 2491 2828 2714 2615 
Q 2938 2403 2938 1966 
L 2938 428 
Q 2938 294 3078 259 
Q 3219 225 3438 225 
L 3438 0 
L 1972 0 
L 1972 225 
Q 2191 225 2331 259 
Q 2472 294 2472 428 
L 2472 1947 
Q 2472 2259 2381 2461 
Q 2291 2663 2009 2663 
Q 1638 2663 1398 2366 
Q 1159 2069 1159 1691 
L 1159 428 
Q 1159 294 1300 259 
Q 1441 225 1656 225 
L 1656 0 
L 191 0 
z
" transform="scale(0.015625)"/>
     </defs>
     <use xlink:href="#Cmmi10-66" transform="translate(0 0.109375)"/>
     <use xlink:href="#Cmr10-28" transform="translate(48.876953 0.109375)"/>
     <use xlink:href="#Cmmi10-b5" transform="translate(87.695312 0.109375)"/>
     <use xlink:href="#Cmr10-29" transform="translate(134.619141 0.109375)"/>
     <use xlink:href="#Cmr10-3d" transform="translate(190.996094 0.109375)"/>
     <use xlink:href="#Cmr10-28" transform="translate(286.240234 0.109375)"/>
     <use xlink:href="#Cmr10-63" transform="translate(325.058594 0.109375)"/>
     <use xlink:href="#Cmr10-6f" transform="translate(369.443359 0.109375)"/>
     <use xlink:href="#Cmr10-73" transform="translate(419.443359 0.109375)"/>
     <use xlink:href="#Cmmi10-b5" transform="translate(472.731397 0.109375)"/>
     <use xlink:href="#Cmr10-29" transform="translate(519.655226 0.109375)"/>
     <use xlink:href="#Cmr10-32" transform="translate(562.937726 38.373438)scale(0.7)"/>
     <use xlink:href="#Cmsy10-a1" transform="translate(621.873663 0.109375)"/>
     <use xlink:href="#Cmr10-28" transform="translate(717.117804 0.109375)"/>
     <use xlink:href="#Cmr10-73" transform="translate(755.936163 0.109375)"/>
     <use xlink:href="#Cmr10-69" transform="translate(795.34046 0.109375)"/>
     <use xlink:href="#Cmr10-6e" transform="translate(823.026007 0.109375)"/>
     <use xlink:href="#Cmmi10-b5" transform="translate(892.427326 0.109375)"/>
     <use xlink:href="#Cmr10-29" transform="translate(939.351154 0.109375)"/>
     <use xlink:href="#Cmr10-32" transform="translate(982.633654 38.373438)scale(0.7)"/>
     <use xlink:href="#Cmr10-2b" transform="translate(1041.569592 0.109375)"/>
     <use xlink:href="#Cmr10-73" transform="translate(1136.813732 0.109375)"/>
     <use xlink:href="#Cmr10-69" transform="translate(1176.218029 0.109375)"/>
     <use xlink:href="#Cmr10-6e" transform="translate(1203.903576 0.109375)"/>
     <use xlink:href="#Cmr10-28" transform="translate(1259.421154 0.109375)"/>
     <use xlink:href="#Cmmi10-b5" transform="translate(1298.239514 0.109375)"/>
     <use xlink:href="#Cmr10-29" transform="translate(1345.163342 0.109375)"/>
    </g>
   </g>
   <g id="PathCollection_1">
    <defs>
     <path id="C0_0_ee35c3038d" d="M 0 2.738613 
C 0.726289 2.738613 1.422928 2.450055 1.936492 1.936492 
C 2.450055 1.422928 2.738613 0.726289 2.738613 -0 
C 2.738613 -0.726289 2.450055 -1.422928 1.936492 -1.936492 
C 1.422928 -2.450055 0.726289 -2.738613 0 -2.738613 
C -0.726289 -2.738613 -1.422928 -2.450055 -1.936492 -1.936492 
C -2.450055 -1.422928 -2.738613 -0.726289 -2.738613 0 
C -2.738613 0.726289 -2.450055 1.422928 -1.936492 1.936492 
C -1.422928 2.450055 -0.726289 2.738613 0 2.738613 
z
"/>
    </defs>
    <g clip-path="url(#p427e6b9fe9)">
     <use xlink:href="#C0_0_ee35c3038d" x="27.31053" y="48.000963" style="fill: #0000ff"/>
    </g>
    <g clip-path="url(#p427e6b9fe9)">
     <use xlink:href="#C0_0_ee35c3038d" x="157.636891" y="48.000963" style="fill: #0000ff"/>
    </g>
    <g clip-path="url(#p427e6b9fe9)">
     <use xlink:href="#C0_0_ee35c3038d" x="287.963252" y="48.000963" style="fill: #0000ff"/>
    </g>
    <g clip-path="url(#p427e6b9fe9)">
     <use xlink:href="#C0_0_ee35c3038d" x="70.75265" y="48.000963" style="fill: #0000ff"/>
    </g>
    <g clip-path="url(#p427e6b9fe9)">
     <use xlink:href="#C0_0_ee35c3038d" x="201.079012" y="48.000963" style="fill: #0000ff"/>
    </g>
    <g clip-path="url(#p427e6b9fe9)">
     <use xlink:href="#C0_0_ee35c3038d" x="331.405373" y="48.000963" style="fill: #0000ff"/>
    </g>
    <g clip-path="url(#p427e6b9fe9)">
     <use xlink:href="#C0_0_ee35c3038d" x="114.194771" y="48.000963" style="fill: #0000ff"/>
    </g>
    <g clip-path="url(#p427e6b9fe9)">
     <use xlink:href="#C0_0_ee35c3038d" x="244.521132" y="48.000963" style="fill: #0000ff"/>
    </g>
    <g clip-path="url(#p427e6b9fe9)">
     <use xlink:href="#C0_0_ee35c3038d" x="374.847493" y="48.000963" style="fill: #0000ff"/>
    </g>
   </g>
  </g>
 </g>
 <defs>
  <clipPath id="p427e6b9fe9">
   <rect x="8.630418" y="21.7" width="406.618247" height="73.344011"/>
  </clipPath>
 </defs>
</svg>
