<svg xmlns="http://www.w3.org/2000/svg" viewBox="0 0 215.16 193.9">
  <defs>
    <style>
      .cls-1 {
        fill: #808285;
      }

      .cls-2 {
        fill: #231f20;
      }
    </style>
  </defs>
  <title>Asset 2</title>
  <g id="Layer_2" data-name="Layer 2">
    <g id="Layer_1-2" data-name="Layer 1">
      <g>
        <path class="cls-1" d="M7.52,90.13C6.22,91.58,5,93.06,3.76,94.59Q2.86,95.75,2,96.93A15,15,0,0,0,.46,99.19a3.37,3.37,0,0,0,1.07,4.46,16.55,16.55,0,0,0,1.9,1A23,23,0,0,1,5.59,106a25.4,25.4,0,0,1,4.49,4.18c.84,1,2.25-.45,1.41-1.42a27.24,27.24,0,0,0-4.73-4.37,20.78,20.78,0,0,0-2.41-1.52,6.84,6.84,0,0,1-2.09-1.25c-.59-.71,0-1.59.39-2.24.6-.89,1.25-1.75,1.9-2.6C5.93,95,7.4,93.24,8.94,91.55c.86-1-.55-2.37-1.42-1.42Z" transform="translate(-0.04)"/>
        <path class="cls-1" d="M175.44,97.58l4.71,4c.71.6,1.47,1.17,2.13,1.83a1.55,1.55,0,0,1,.54,1.84,9.1,9.1,0,0,1-1.42,2,26.73,26.73,0,0,1-1.85,2,21.82,21.82,0,0,1-4.09,3.06,1,1,0,0,0,1,1.72,23.66,23.66,0,0,0,4.79-3.66,23.93,23.93,0,0,0,2-2.19,8.67,8.67,0,0,0,1.59-2.55c.69-2.17-1-3.6-2.49-4.84l-5.47-4.59c-1-.82-2.4.59-1.41,1.42Z" transform="translate(-0.04)"/>
        <path class="cls-1" d="M1.87,102.51q21.12.6,42.23,1.28c10.52.34,21,.73,31.55,1,7.91.21,15.82.27,23.74.23,13.43,0,26.87.26,40.3,0,5.47-.12,10.94-.4,16.42-.47,6.8-.09,13.61.1,20.4.52q3.12.2,6.24.46c1.28.1,1.27-1.9,0-2-7.46-.62-14.95-1-22.43-1-5.25,0-10.49.19-15.74.36-13.85.44-27.7.08-41.55.14-8.23,0-16.47,0-24.71-.15-9.66-.22-19.32-.58-29-.9q-20.6-.67-41.18-1.27l-6.29-.18c-1.29,0-1.29,2,0,2Z" transform="translate(-0.04)"/>
      </g>
      <g>
        <path class="cls-1" d="M84.53,32.7a51.6,51.6,0,0,1,5.93-8.58c.59-.72,1.17-1.5,1.83-2.16.19-.18.34-.39.54-.24s.39.74.51,1c.69,1.51,1.5,3,2.28,4.42a43.05,43.05,0,0,1,2.55,5.41c.43,1.2,2.36.68,1.92-.53-1.32-3.69-3.52-7-5.11-10.51-.4-.89-1-1.76-2-1.86s-2,.77-2.68,1.59C89,22.8,87.65,24.35,86.44,26a45,45,0,0,0-3.64,5.72c-.61,1.14,1.12,2.15,1.73,1Z" transform="translate(-0.04)"/>
        <path class="cls-1" d="M81.68,178.13a44.5,44.5,0,0,0,8.86,15.47,1,1,0,0,0,1.67-.44,37.73,37.73,0,0,1,7.17-12.61c.83-1-.58-2.39-1.42-1.41a40.4,40.4,0,0,0-7.68,13.49l1.67-.44a42.19,42.19,0,0,1-8.35-14.6c-.4-1.21-2.33-.69-1.92.54Z" transform="translate(-0.04)"/>
        <path class="cls-1" d="M91.69,21.74l-.93,66c-.31,22.09-.63,44.18-.79,66.27q-.14,18.61-.07,37.23a1,1,0,0,0,2,0c-.09-22.11.09-44.23.36-66.34s.6-44,.91-66l.52-37.08a1,1,0,0,0-2,0Z" transform="translate(-0.04)"/>
      </g>
      <g>
        <path class="cls-1" d="M192.14,112.77a32.39,32.39,0,0,1-.34-8.74,7.77,7.77,0,0,1,.77-3,2.67,2.67,0,0,1,2.81-1.42,4.55,4.55,0,0,1,2.85,1.19,2.33,2.33,0,0,1,0,3.1A7.12,7.12,0,0,1,195,106c-.54.22-1.08.43-1.61.68a3.08,3.08,0,0,0-1.36.93c-.67,1.11,1.09,2.28,1.79,2.87a24.86,24.86,0,0,0,3.6,2.5c.56.31,1.07-.55.51-.87a22.1,22.1,0,0,1-3.65-2.55c-.32-.28-1.51-1.08-1.24-1.55.11-.19.76-.42.95-.51.35-.17.71-.31,1.08-.46,2.11-.85,5-2.28,4.75-5-.24-2.31-2.85-3.37-4.89-3.39-2.51,0-3.67,2.17-4,4.37a30.77,30.77,0,0,0,.24,10c.11.63,1.08.36,1-.27Z" transform="translate(-0.04)"/>
        <path class="cls-1" d="M200.14,109.77c1.75-.22,3.88-.52,4.89-2.17.79-1.29.7-3.29-.85-4-1.71-.75-3.51.74-4.23,2.2a6.65,6.65,0,0,0-.12,5.76c.9,1.86,3.22,3.13,5.13,1.88.54-.35,0-1.21-.5-.86a2.59,2.59,0,0,1-3.57-1.16,5.4,5.4,0,0,1-.38-4.36c.37-1.18,1.35-2.65,2.75-2.65s1.49,1.54,1,2.47c-.74,1.45-2.69,1.68-4.13,1.86-.63.08-.64,1.08,0,1Z" transform="translate(-0.04)"/>
        <path class="cls-1" d="M210.42,107.21c.09,1.64.23,3.26.43,4.89l1-.14a10.63,10.63,0,0,0-1.93-4.53,5.94,5.94,0,0,0-1.7-1.76,1.57,1.57,0,0,0-2,.71,4.84,4.84,0,0,0-.45,4.05,4.79,4.79,0,0,0,2.87,3.1,2.93,2.93,0,0,0,2.61-.22,2.37,2.37,0,0,0,1.13-2.08c0-.64-1-.65-1,0a1.37,1.37,0,0,1-.72,1.27,2,2,0,0,1-1.7.09,3.7,3.7,0,0,1-2.19-2.33,4.07,4.07,0,0,1,.1-3,1.5,1.5,0,0,1,.49-.65c.25-.17.44,0,.64.14a9,9,0,0,1,1.24,1.44,10,10,0,0,1,1.66,4c.09.55,1,.43,1-.13-.2-1.63-.34-3.25-.43-4.89,0-.64-1-.64-1,0Z" transform="translate(-0.04)"/>
        <path class="cls-1" d="M213.52,99.38a96,96,0,0,0,.51,14.87.5.5,0,0,0,1,.13l.17-.59a.5.5,0,0,0-1-.26l-.17.58,1,.14a96,96,0,0,1-.51-14.87c0-.64-1-.64-1,0Z" transform="translate(-0.04)"/>
      </g>
      <g>
        <path class="cls-1" d="M70.61,7.27A43.52,43.52,0,0,0,80.94.83c.49-.41-.22-1.12-.71-.71A42.91,42.91,0,0,1,70.1,6.41c-.58.26-.08,1.12.51.86Z" transform="translate(-0.04)"/>
        <path class="cls-1" d="M75.19,5.16a52.91,52.91,0,0,1-.28,8.72c-.07.64.93.64,1,0a52.91,52.91,0,0,0,.28-8.72c0-.64-1-.65-1,0Z" transform="translate(-0.04)"/>
        <path class="cls-1" d="M72.23,16.42l8-3.87c.58-.28.08-1.14-.5-.86l-8.06,3.87c-.57.28-.07,1.14.51.86Z" transform="translate(-0.04)"/>
        <path class="cls-1" d="M81.28,6.55a34.34,34.34,0,0,0,.37,8.35l1-.26a14.51,14.51,0,0,1,1.58-9.3h-.86a12.21,12.21,0,0,1,.57,5.91c0,.55.88.69,1,.13a12.94,12.94,0,0,1,.89-3c.15-.36,1-2.42,1.5-2.16.31.16.4.8.47,1.08A11.85,11.85,0,0,1,88,9a12.28,12.28,0,0,1-.17,3.37c-.13.63.84.9,1,.26A12.93,12.93,0,0,0,89,8.39c-.13-1-.29-2.69-1.38-3.11s-1.95,1.15-2.38,2a13.82,13.82,0,0,0-1.27,3.85l1,.13a13,13,0,0,0-.71-6.41.5.5,0,0,0-.86,0A15.56,15.56,0,0,0,81.65,14.9c.1.63,1.06.37,1-.26a33.73,33.73,0,0,1-.33-8.09c0-.64-1-.63-1,0Z" transform="translate(-0.04)"/>
        <path class="cls-1" d="M94.33,9.09,94.58,13l.93-.25-1.09-2.4c-.32-.72-.62-1.47-1-2.17a2.5,2.5,0,0,0-1.33-1.29,1.61,1.61,0,0,0-1.75.67c-1.53,2-1.14,5.57,1.3,6.69a3.5,3.5,0,0,0,3.82-.43c.48-.43-.23-1.14-.71-.71a2.44,2.44,0,0,1-2.43.35,2.81,2.81,0,0,1-1.76-2,4.26,4.26,0,0,1,.39-3c.18-.31.48-.76.9-.59s.65.69.82,1c.69,1.43,1.32,2.89,2,4.34a.5.5,0,0,0,.93-.25l-.25-3.86c0-.64-1-.64-1,0Z" transform="translate(-0.04)"/>
        <path class="cls-1" d="M103.8,15V8.19c0-.15,0-.31,0-.46V7.56c-.3.09-.44,0-.44-.29l.23-.29,0,0c-.52.38,0,1.25.5.87a.71.71,0,0,0-.65-1.25c-.83.29-.59,1.59-.59,2.26V15a.5.5,0,0,0,1,0Z" transform="translate(-0.04)"/>
        <path class="cls-1" d="M105.58,8.68a31.84,31.84,0,0,1,.3,5.69h1a15.32,15.32,0,0,1,.57-4.52,14.13,14.13,0,0,1,.8-2.17c.14-.31.3-.62.47-.93s.34-.8.6-.92.34.43.39.65c.08.38.14.75.2,1.13a21.62,21.62,0,0,1,.23,2.53,22.65,22.65,0,0,1-.38,5c-.12.63.84.9,1,.27A23,23,0,0,0,110.64,6a1.52,1.52,0,0,0-.93-1.23,1.38,1.38,0,0,0-1.47.78,14.46,14.46,0,0,0-1.73,3.92,16.06,16.06,0,0,0-.63,4.87.5.5,0,0,0,1,0,33,33,0,0,0-.34-6c-.09-.63-1.05-.36-1,.27Z" transform="translate(-0.04)"/>
        <path class="cls-1" d="M116.8,7.13l.34,6.34,1-.13A20.76,20.76,0,0,0,116,8a4.47,4.47,0,0,0-1.62-2,2,2,0,0,0-2.15.4c-1.3,1.12-1,3.39-.64,4.87a4.86,4.86,0,0,0,2.82,3.54,3.3,3.3,0,0,0,4-1.23.5.5,0,0,0-.86-.5A2.26,2.26,0,0,1,115,14a3.53,3.53,0,0,1-2.3-2.51,7.62,7.62,0,0,1-.36-2,3.31,3.31,0,0,1,.35-2.08A1,1,0,0,1,114.06,7a2.24,2.24,0,0,1,.57.69c.22.34.43.7.63,1.06a19.8,19.8,0,0,1,1.9,4.85.5.5,0,0,0,1-.13l-.34-6.34c0-.64-1-.64-1,0Z" transform="translate(-0.04)"/>
        <path class="cls-1" d="M119.73,6.28a37.07,37.07,0,0,0,1.44,8.49l.91-.39a7,7,0,0,1-.32-4.51,7.1,7.1,0,0,1,.91-2.07,6.78,6.78,0,0,1,.7-.9s.77-.66.8-.4c.08.63,1.08.63,1,0a1.11,1.11,0,0,0-.9-1A1.57,1.57,0,0,0,122.9,6a7.08,7.08,0,0,0-1.78,2.67,8,8,0,0,0,.1,6.25c.23.52,1.07.15.91-.39a35.81,35.81,0,0,1-1.4-8.22c0-.64-1-.64-1,0Z" transform="translate(-0.04)"/>
        <path class="cls-1" d="M125.64,5.44a7.26,7.26,0,0,0,.38,3.2,4,4,0,0,0,1.54,2.3c.92.44,1.56-.35,1.93-1.09a19.51,19.51,0,0,0,1.3-3.3l-.84.22c.24.25,0,.89-.13,1.16s-.22.74-.35,1.11a22.78,22.78,0,0,1-.84,2.12,25.65,25.65,0,0,1-2.27,3.94,23.93,23.93,0,0,1-6.64,6.32c-.54.35,0,1.22.5.87a25.14,25.14,0,0,0,7.33-7.16A25.15,25.15,0,0,0,130,10.57a24.62,24.62,0,0,0,.83-2.37c.2-.73.46-1.53-.13-2.14a.51.51,0,0,0-.84.23,17.4,17.4,0,0,1-.8,2.23c-.15.35-.31.69-.49,1-.07.12-.23.46-.38.5s-.44-.29-.52-.41a6.3,6.3,0,0,1-1-4.2c.06-.64-.94-.64-1,0Z" transform="translate(-0.04)"/>
        <path class="cls-1" d="M98.54,6.87a4.58,4.58,0,0,0-2.11,2.82,3.49,3.49,0,0,0,.76,3.52,2.65,2.65,0,0,0,3.73-.59,3.71,3.71,0,0,0,.27-3.35A5.12,5.12,0,0,0,99,6.87a.5.5,0,0,0-.6.78,9.07,9.07,0,0,1,2.23,7.15,5.37,5.37,0,0,1-2.21,3.93,6.16,6.16,0,0,1-4,.78,7.71,7.71,0,0,1-4.34-1.85c-.48-.42-1.19.29-.7.71A8.65,8.65,0,0,0,98.2,20c3.37-1.48,4.14-5.83,3.18-9.06a10.56,10.56,0,0,0-2.23-4l-.61.78a4.3,4.3,0,0,1,1.63,1.7c.46.94.45,2.49-.56,3.08a1.54,1.54,0,0,1-2-.35,2.59,2.59,0,0,1-.27-1.71A3.66,3.66,0,0,1,99,7.73c.55-.34,0-1.2-.5-.86Z" transform="translate(-0.04)"/>
      </g>
      <path class="cls-1" d="M100.24,99.66l-.33,8.45c0,.64,1,.64,1,0l.33-8.45c0-.64-1-.64-1,0Z" transform="translate(-0.04)"/>
      <path class="cls-1" d="M113.43,100.36a20.43,20.43,0,0,0-.53,4.33c0,.35,0,.7,0,1a3.84,3.84,0,0,0,.09,1c.18.57.81,1,1.33.54s-.24-1.15-.71-.71h0l.25-.07c.3,0,.06.1.09-.05s0-.25,0-.35c0-.25,0-.49,0-.74a14.24,14.24,0,0,1,0-1.6,18.7,18.7,0,0,1,.46-3.15c.14-.62-.82-.89-1-.26Z" transform="translate(-0.04)"/>
      <path class="cls-1" d="M126.56,100.33a22.5,22.5,0,0,0-.31,6.85.51.51,0,0,0,.86.35l.48-.47a.5.5,0,0,0-.71-.71l-.48.47.85.36a21.36,21.36,0,0,1,.28-6.58c.12-.63-.84-.9-1-.27Z" transform="translate(-0.04)"/>
      <path class="cls-1" d="M139.15,100.86a14.59,14.59,0,0,0-.32,4.27c0,.35.06.7.11,1.05a1.4,1.4,0,0,0,.32.83c.36.4,1.16.52,1.3-.16s-.85-.9-1-.27l.14-.16.25-.07c-.07,0,0,0,.08,0-.05,0-.07,0-.05,0l0,0a2.2,2.2,0,0,1-.1-.68c-.05-.5-.08-1-.08-1.51a14.16,14.16,0,0,1,.32-3c.14-.63-.82-.9-1-.27Z" transform="translate(-0.04)"/>
      <path class="cls-1" d="M151,100.65a28.5,28.5,0,0,0-.24,6c.05.64,1.05.64,1,0a27.24,27.24,0,0,1,.21-5.78.52.52,0,0,0-.35-.62.51.51,0,0,0-.62.35Z" transform="translate(-0.04)"/>
      <path class="cls-1" d="M87.66,88.05l5.87-.31,1.38-.07a1.33,1.33,0,0,0,1-.38A.78.78,0,0,0,95.12,86c-.63.14-.36,1.11.26,1-.06-.27-.17-.37-.34-.31l-.08,0a2.79,2.79,0,0,0-.5,0l-.93,0-2,.1-3.91.21c-.64,0-.64,1,0,1Z" transform="translate(-0.04)"/>
      <path class="cls-1" d="M87.52,74.23l8.75.84c.64.06.64-.94,0-1l-8.75-.84c-.64-.06-.64.94,0,1Z" transform="translate(-0.04)"/>
      <path class="cls-1" d="M87.94,59.34a93.62,93.62,0,0,0,10,1.12c.64,0,.64-1,0-1a93.76,93.76,0,0,1-9.75-1.08c-.63-.1-.9.86-.27,1Z" transform="translate(-0.04)"/>
      <path class="cls-1" d="M87.54,46a66.64,66.64,0,0,1,9.58.51c.64.08.64-.92,0-1A66.64,66.64,0,0,0,87.54,45a.5.5,0,0,0,0,1Z" transform="translate(-0.04)"/>
      <path class="cls-1" d="M87.22,119.22a8.21,8.21,0,0,1,4-1,22,22,0,0,0,4.44-.47.5.5,0,0,0-.27-1c-2.83.73-6.15-.12-8.72,1.53-.54.35,0,1.21.5.86Z" transform="translate(-0.04)"/>
      <path class="cls-1" d="M87.82,133.53a81.85,81.85,0,0,0,8.72.25.5.5,0,0,0,0-1,81.85,81.85,0,0,1-8.72-.25c-.64-.05-.64.95,0,1Z" transform="translate(-0.04)"/>
      <path class="cls-1" d="M85.67,144.21a45.23,45.23,0,0,0,10,.49c.64,0,.64-1,0-1a44.12,44.12,0,0,1-9.74-.46c-.63-.1-.9.87-.26,1Z" transform="translate(-0.04)"/>
      <path class="cls-1" d="M85.16,158.22l11.82.91c.64.05.64-.95,0-1l-11.82-.91c-.65-.05-.64.95,0,1Z" transform="translate(-0.04)"/>
      <path class="cls-1" d="M22.78,97l-.32,8.45c0,.64,1,.64,1,0L23.78,97c0-.64-1-.64-1,0Z" transform="translate(-0.04)"/>
      <path class="cls-1" d="M36,99.74a20.45,20.45,0,0,0-.53,4.34c0,.34,0,.69,0,1a4.44,4.44,0,0,0,.1,1c.18.57.81,1,1.32.53s-.23-1.15-.7-.71h0l.25-.07c.29,0,.06.1.08,0a1.38,1.38,0,0,0,0-.35l0-.74c0-.53,0-1.06,0-1.6a18.43,18.43,0,0,1,.46-3.14c.15-.63-.82-.9-1-.27Z" transform="translate(-0.04)"/>
      <path class="cls-1" d="M49.11,99.72a21.81,21.81,0,0,0-.31,6.84.5.5,0,0,0,.85.35l.48-.47a.5.5,0,0,0-.7-.71l-.48.47.85.36a21.37,21.37,0,0,1,.27-6.58c.13-.63-.83-.9-1-.26Z" transform="translate(-0.04)"/>
      <path class="cls-1" d="M61.7,100.24a15,15,0,0,0-.33,4.28c0,.35.07.7.12,1a1.4,1.4,0,0,0,.32.83c.36.4,1.16.52,1.29-.16s-.84-.9-1-.27l.14-.16.25-.07c-.08,0-.05,0,.07,0-.05,0-.06,0,0,0s-.05-.06-.05,0a2.19,2.19,0,0,1-.09-.68,12.73,12.73,0,0,1-.08-1.51,14.23,14.23,0,0,1,.32-3c.14-.63-.83-.89-1-.27Z" transform="translate(-0.04)"/>
      <path class="cls-1" d="M75.55,100a28.5,28.5,0,0,0-.24,6c0,.64,1,.65,1,0a26.6,26.6,0,0,1,.2-5.78.52.52,0,0,0-.34-.62.51.51,0,0,0-.62.35Z" transform="translate(-0.04)"/>
      <path class="cls-2" d="M91.08,59.87c-.08.21,0-.07,0-.09l.09-.16a3.84,3.84,0,0,1,.22-.39c.08-.13.17-.25.26-.37-.11.14,0,0,0,0l.21-.24a3.83,3.83,0,0,1,.29-.28l.2-.18c.14-.13,0,0,0,0l.36-.25-.08,0c.1,0,.11,0,0,0a.23.23,0,0,1-.14,0l.18,0s-.16-.08,0,0l.19.11.11.08c-.12-.17-.07-.06,0,0l.21.22c.16.17-.11-.18,0,0a1.63,1.63,0,0,0,.11.17,1.53,1.53,0,0,1,.16.31c0-.18,0-.11,0,0l.06.2c0,.1.05.21.07.31s.07.06,0,0a.71.71,0,0,1,0,.21v.35s0,.26,0,.08,0,.06,0,.08l-.09.34s0,.12,0,.13.06-.15,0-.05l0,.1-.16.27c-.12.2.14-.15,0,0l-.1.11-.28.25c.18-.15,0,0,0,0l-.22.14-.13.07-.08,0c.14-.07-.08,0-.09,0l-.14.05-.37.09c-.08,0-.24.1,0,0a1.64,1.64,0,0,1-.22,0h-.53c-.24,0,.15,0,0,0a6.57,6.57,0,0,1-.76-.21c.25.1-.11-.07-.16-.1a.57.57,0,0,1-.13-.08s-.24-.18-.07,0c-.11-.09-.21-.19-.31-.29s-.11-.15,0,0a1.1,1.1,0,0,1-.14-.21s-.11-.27,0-.06l0-.15c-.07-.23,0,.18,0-.06v-.16c0-.22-.06.1,0,0s0-.16,0-.17-.09.16,0,0a1.27,1.27,0,0,0,.13-.22c0-.12-.15.16,0,0a1.59,1.59,0,0,0,.13-.13c0-.06.3-.25.12-.12a5.66,5.66,0,0,1,.75-.44l.15-.07c-.23.11,0,0,0,0l.34-.11a3.17,3.17,0,0,1,.41-.12,1.4,1.4,0,0,1,.28-.06c-.17,0,0,0,.11,0h.23c.16,0-.21,0,0,0s.06,0,0,0,.26.18.07,0l.1.1c.16.13,0-.11,0,0a.83.83,0,0,0,.09.16c.12.18,0-.15,0,0s.07.24.1.37a1.42,1.42,0,0,1,0,.2c0,.15,0-.25,0,0a6,6,0,0,1,0,.85c0,.06,0,.25,0,0a1.36,1.36,0,0,1,0,.17c0-.06.23-.25.06-.12,0,0,.16-.15,0,0s.13-.07,0,0h0c-.11,0-.09,0,0,0h-.08c.16,0-.11,0-.15,0s.19.13,0,0,.07.1,0,0l-.15-.16c-.13-.13,0,0,0,0s-.16-.24-.23-.37l-.12-.24s-.11-.28,0-.11a4.83,4.83,0,0,1-.16-.5c0-.06,0-.26,0-.07a2.44,2.44,0,0,1,0-.27c0,.21,0-.06,0-.1,0-.22,0,.12,0-.05s0,.09,0,.05l.09-.1c-.1.08-.13.1-.07.06s.14-.09.15-.08-.21.09,0,0-.23,0,0,0-.23-.06,0,0-.05,0-.07,0,.07,0-.06-.05l0-.07c.06.14,0-.2,0,.07s0-.15,0,.09a2.26,2.26,0,0,1,0,.45c.07-.27-.07.14-.08.21s.12-.18,0,0-.07.23,0,0c0,0-.12.15-.15.15l.09-.07-.12.07c.08,0,.17-.06,0,0,.16,0,.19,0,.08,0,.15,0,.19,0,.11,0s.21.13,0,0,0,0,0,0l0,0c-.07-.08-.06-.06,0,.05l0-.05c0-.09,0-.07,0,.08,0-.15,0,.08,0,.1,0,.17,0,.21,0,.1a.55.55,0,0,1-.13.25l-1.67-.45c0,.13.08.27.11.4a1.77,1.77,0,0,1,0,.2c0-.09,0-.08,0,.05s0,.27,0,.41,0,.14,0,.21c0-.1,0-.08,0,0l1.23-.7-.12,0c.13.07.16.08.1,0s.07.07,0,0,.06.14,0,0l0,0c0-.1,0-.07,0,.07l0-.09c0-.08,0,0,0,.11a.62.62,0,0,0,0-.19q0,.25,0,.09l0-.06c-.07.15-.08.17,0,.08-.1.11-.11.13,0,0H89.9l.19.17c-.1-.09,0,0,0,0s-.09-.19,0,0l0,.08c0-.13,0-.13,0,0l1.7-.71s.13.25.1.16,0,.24,0,0a.46.46,0,0,1-.06.23c.11-.2-.15.12,0,0a1,1,0,0,0-1.41-1.41,1.74,1.74,0,0,0-.07,2.45,1,1,0,0,0,1.71-.7,2.31,2.31,0,0,0-.83-1.72,1,1,0,0,0-1.41,0,2,2,0,0,0,1,3.32,1,1,0,0,0,1.23-.7A4.65,4.65,0,0,0,92,59a1,1,0,0,0-1.67-.44,1.71,1.71,0,0,0,.47,2.6,1.92,1.92,0,0,0,2.62-.63,3.15,3.15,0,0,0,.35-2.61,1.82,1.82,0,0,0-2.4-1.11,2.26,2.26,0,0,0-1.46,2.39,4.75,4.75,0,0,0,1.22,2.72,2.26,2.26,0,0,0,2.75.46,2.49,2.49,0,0,0,.85-2.61,3.28,3.28,0,0,0-1-2.33,3.11,3.11,0,0,0-3-.31c-1.61.52-3.4,1.68-3.14,3.61s2.26,2.92,4,2.92a4.2,4.2,0,0,0,3.91-2.44,4.14,4.14,0,0,0-.81-4.4,2.39,2.39,0,0,0-2.81-.65,6,6,0,0,0-2,2,7.13,7.13,0,0,0-.63,1.23,1,1,0,0,0,.7,1.23,1,1,0,0,0,1.23-.7Z" transform="translate(-0.04)"/>
      <g>
        <path class="cls-2" d="M70.35,54.9a13.27,13.27,0,0,1,3.72.27c.89.19,2.34.44,2.69,1.42a2.07,2.07,0,0,1-1,2.23,6.37,6.37,0,0,1-3.39.68.5.5,0,0,0-.13,1A9.16,9.16,0,0,1,75.51,62a2.81,2.81,0,0,1,1.11,3c-.86,2.56-4.23,2.25-6.31,2-.63-.09-.9.88-.27,1a10.32,10.32,0,0,0,4.88-.1,4.28,4.28,0,0,0,2.66-2.56,3.67,3.67,0,0,0-1-3.61,9,9,0,0,0-4-2l-.13,1a7,7,0,0,0,4.1-1,3.13,3.13,0,0,0,1.3-2.91c-.23-1.29-1.44-1.87-2.58-2.2a14.28,14.28,0,0,0-4.87-.53c-.64,0-.64,1,0,1Z" transform="translate(-0.04)"/>
        <path class="cls-2" d="M81.56,67V61.37a.5.5,0,0,0-1,0V67a.5.5,0,0,0,1,0Z" transform="translate(-0.04)"/>
        <path class="cls-2" d="M81.57,55.88a1.21,1.21,0,0,1,0-.18l0,.14a.74.74,0,0,1,0-.21l0,.14a.61.61,0,0,1,0-.18l0,.12a.59.59,0,0,1,.1-.17l-.08.1a.3.3,0,0,1,.08-.08l-.86-.36a7.78,7.78,0,0,1,0,1.6l.75-.43a3.54,3.54,0,0,1-.33-.19l.1.07-.13-.12.08.1a1,1,0,0,1-.08-.14l0,.12a.24.24,0,0,1,0-.08v.17a.27.27,0,0,1,0-.12l0,.12a.22.22,0,0,1,0-.08l-.08.1.06-.07-.1.08.06,0-.11.05.06,0-.13,0H81l-.13,0,0,0L80.62,56v0l0-.14v.06l0-.13s0,0,0,.06l.05-.12a.25.25,0,0,1,0,.07l.08-.1,0,0,.1-.08-.07,0,.12-.05-.06,0,.13,0h-.06l.14,0h-.06l.12,0-.05,0,.1.08,0-.05.08.1,0,0,.05.12a.24.24,0,0,1,0-.08l0,.13a.11.11,0,0,1,0-.08l0,.13a.19.19,0,0,1,0-.07l-.05.12,0,0-.08.1,0,0-.1.08h0a.5.5,0,0,0,.18-.68.5.5,0,0,0-.68-.18.73.73,0,0,0-.35.6.72.72,0,0,0,.15.51.7.7,0,0,0,.58.28.81.81,0,0,0,.64-.36.65.65,0,0,0-.09-.84.72.72,0,0,0-.75,0,.93.93,0,0,0-.41,1,1.38,1.38,0,0,0,.78.79.49.49,0,0,0,.51,0,.53.53,0,0,0,.25-.43,7.78,7.78,0,0,0,0-1.6A.71.71,0,0,0,81.7,55a.52.52,0,0,0-.24-.2.51.51,0,0,0-.55.1,1.2,1.2,0,0,0-.31,1.29.58.58,0,0,0,.23.3.49.49,0,0,0,.39.05.5.5,0,0,0,.3-.23.46.46,0,0,0,0-.38Z" transform="translate(-0.04)"/>
      </g>
      <path class="cls-2" d="M127.07,74.08c-.08-.13,0,0,0,0s0-.08,0-.07,0,0,0,0,0,0,0,0a.06.06,0,0,1-.06,0l-.37-.48a3.28,3.28,0,0,1-.19,1.2,1.55,1.55,0,0,1-.21.4c0-.07-.17.16-.09.09l-.08.05-.08,0s0,0,0,0-.15,0-.08,0h-.09c-.14,0,.09,0,0,0s0,0,0,0l-.09-.06c.09.07,0,0,0,0s0,0,0,0a.57.57,0,0,1-.08-.13c.05.1,0,0,0,0l0-.08s0-.16,0,0a.66.66,0,0,1,0-.14v-.09c0-.14,0,.09,0,0a.65.65,0,0,1,0-.13c0-.13,0,.08,0,0a.37.37,0,0,1,.21-.2l.15,0s.1,0,0,0a.56.56,0,0,1,.27,0,1.16,1.16,0,0,1,.75.59A1.74,1.74,0,0,1,126,76.88a.51.51,0,0,1-.45,0c.09,0-.16-.1-.09-.05a1.15,1.15,0,0,1-.22-.22,1.75,1.75,0,0,1-.29-1,1.73,1.73,0,0,1,.11-.53,2,2,0,0,1,.29-.57,1.9,1.9,0,0,1,.44-.41,1.4,1.4,0,0,1,.52-.18,1.16,1.16,0,0,1,.93.33.63.63,0,0,1,.1.82.79.79,0,0,1-.34.31.42.42,0,0,1-.36,0,1.69,1.69,0,0,1-.7-1.12.65.65,0,0,1,0-.31c0,.1,0,0,0,0s0,0,0,0a.69.69,0,0,1,.34-.13h.2c-.05,0-.05,0,0,0l.14,0c-.08,0,0,0,.06,0s0-.06,0,0a.41.41,0,0,1,.09.1.79.79,0,0,1,.14.31c.25,1.07-.92,1.84-1.71,2.35l.68.18a3.33,3.33,0,0,1,.39-3.53l-.79-.1a3.84,3.84,0,0,1,.54,1.14,1.86,1.86,0,0,1,.09.55c0,.1,0,.14,0,.19s0,.1,0,.15,0,0,0,.07a.64.64,0,0,1-.3.31h0l-.15,0c.08,0,0,0-.05,0s-.18,0-.11,0a.87.87,0,0,1-.4-.18.64.64,0,0,1-.21-.34.69.69,0,0,1,.07-.38.9.9,0,0,1,.39-.36.57.57,0,0,1,.44,0,.67.67,0,0,1,.31.25.91.91,0,0,1,.17.43c0-.1,0,.07,0,.07s0,.16,0,.09a.54.54,0,0,1-.08.22.51.51,0,0,1-.13.14c.05-.05,0,0,0,0l-.11.06c.07,0-.09,0-.08,0l-.11,0c-.15,0,.08,0-.08,0h-.18a.6.6,0,0,1-.54-.54.43.43,0,0,1,0-.16c0-.1,0,0,0-.08s.06-.18.08-.23a.6.6,0,0,1,.15-.19s.12-.1.06-.06l.12-.07-.39,0s.16.09.1,0l.07.06h0l0,.09c0-.05,0,0,0,0l0,.09c0,.09,0,0,0,0s0,.17,0,.15,0,.14,0,.1l0,.06s-.07.07,0,0L125,75a.5.5,0,0,0,.5.86A1.44,1.44,0,0,0,126,74c-.18-.34-.59-.71-1-.57a1.58,1.58,0,0,0-.87.76,1.72,1.72,0,0,0,.26,2.08,1.82,1.82,0,0,0,2.14.17,1.62,1.62,0,0,0,.61-2,1.65,1.65,0,0,0-1.91-1.08,1.75,1.75,0,0,0-1.32,2,1.73,1.73,0,0,0,1.62,1.31,1.65,1.65,0,0,0,1.67-1.6,4,4,0,0,0-.75-2.36.51.51,0,0,0-.79-.1,4.37,4.37,0,0,0-.54,4.74.49.49,0,0,0,.68.18A6,6,0,0,0,127.55,76a2.54,2.54,0,0,0,.45-2,1.62,1.62,0,0,0-1.28-1.27,1.58,1.58,0,0,0-1.62.63,2.1,2.1,0,0,0,.31,2.14,1.58,1.58,0,0,0,1.81.79,1.81,1.81,0,0,0,1.21-1.52,1.77,1.77,0,0,0-.92-1.63,2.17,2.17,0,0,0-1.86-.15,2.69,2.69,0,0,0-1.44,1.43,2.82,2.82,0,0,0-.16,2,2.16,2.16,0,0,0,1.17,1.4,1.92,1.92,0,0,0,2-.53,2.85,2.85,0,0,0,1-1.9,2,2,0,0,0-.76-1.73,1.9,1.9,0,0,0-1.81-.37,1.53,1.53,0,0,0-1,1.37,1.63,1.63,0,0,0,.68,1.45A1.37,1.37,0,0,0,126.9,76a2.56,2.56,0,0,0,.75-1.52,5.62,5.62,0,0,0,.08-.92.5.5,0,0,0-.37-.48,1.07,1.07,0,0,0-1.15,1.55.5.5,0,0,0,.86-.51Z" transform="translate(-0.04)"/>
      <g>
        <path class="cls-2" d="M134.12,68.33a4.33,4.33,0,0,1,2.71.19,1.57,1.57,0,0,1,.76,2.12A4.46,4.46,0,0,1,133.54,73a.5.5,0,0,0,0,1c1.83,0,4.92.22,5,2.71,0,1.1-1,1.59-2,1.64a6.61,6.61,0,0,1-3.62-1,.5.5,0,0,0-.5.87A7.33,7.33,0,0,0,137,79.31,2.69,2.69,0,0,0,139.51,77a3.5,3.5,0,0,0-1.61-3.08,8,8,0,0,0-4.36-.9v1c2.13,0,4.76-1.37,5.18-3.65a2.52,2.52,0,0,0-1.24-2.61,5.27,5.27,0,0,0-3.63-.38c-.63.1-.36,1.07.27,1Z" transform="translate(-0.04)"/>
        <path class="cls-2" d="M141.32,74.12l4.18,0c.54,0,1.23,0,1.5-.58a.86.86,0,0,0-.69-1.25c-.64,0-.64,1,0,1-.17,0-.18-.06-.22-.16s0,0,0-.06-.09,0-.11,0a1.61,1.61,0,0,1-.31,0h-1.43l-3,0a.5.5,0,0,0,0,1Z" transform="translate(-0.04)"/>
        <path class="cls-2" d="M143.61,70.11a18.24,18.24,0,0,0-.55,3.89,2.87,2.87,0,0,0,.26,1.5,1,1,0,0,0,1.2.56c.61-.2.35-1.17-.26-1-.12,0,0,0,0,0s0,0-.06,0a1,1,0,0,1-.15-.37,5.31,5.31,0,0,1,0-1.32,18,18,0,0,1,.48-3,.5.5,0,0,0-1-.27Z" transform="translate(-0.04)"/>
        <path class="cls-2" d="M150.18,68.8c1.78-.32,4,1,3.67,3-.4,2.53-3.27,3.36-5.37,3.93a.5.5,0,0,0,.14,1l7.68.39a.51.51,0,0,0,.25-.94l-.34-.17c-.58-.29-1.08.57-.51.86l.35.18.25-.93-7.68-.39.13,1A11.94,11.94,0,0,0,152.9,75a4.69,4.69,0,0,0,2-3.42c.12-2.58-2.65-4.16-5-3.74-.63.11-.36,1.07.27,1Z" transform="translate(-0.04)"/>
        <path class="cls-2" d="M160.59,76.61a17.75,17.75,0,0,1-.17-4.66.5.5,0,0,0-1,0,18.53,18.53,0,0,0,.21,4.93.49.49,0,0,0,.61.34.5.5,0,0,0,.35-.61Z" transform="translate(-0.04)"/>
        <path class="cls-2" d="M159,69.08l0,0c.06,0-.07-.07-.05,0s0,0,0,0-.08-.11,0,0v0s0-.14,0-.08a.24.24,0,0,1,0,.08l0-.13a.24.24,0,0,1,0,.12l0-.14,0,.12c0-.14,0-.09,0,0a.21.21,0,0,1,0,.06c.08-.13.07-.09,0,0s.1-.07,0,0-.08,0,.06,0L159,69l.13,0h0l-.1,0c-.08,0,.11.06,0,0l0,0c-.05,0,0,0,0,0L159,68.9c-.08-.08.05.1,0,0l0-.07c-.05-.1,0,.1,0,0a.29.29,0,0,1,0-.09l0,.13a.49.49,0,0,1,0-.17l0,.13a.36.36,0,0,1,0-.1.43.43,0,0,1,0-.05c0-.09,0,0,0,0s0-.09.05-.1l0,0s-.09.1,0,0l.16-.15s-.1.07,0,0l0,0,.11-.06h-.51l.14.08,0,0,.07.06.09.11c.08.09-.05-.08,0,0l0,.06.08.13,0,.07c-.07-.13,0-.07,0,0a1.73,1.73,0,0,1,.07.31v-.13a2.28,2.28,0,0,1,0,.37l0-.14a1.38,1.38,0,0,1-.08.29l.49-.36h-.06l.13,0-.09,0c-.07,0,.06,0,.06,0l0,0,0,0s.11.09.06,0a.46.46,0,0,1-.07-.07l0,0,0,0s-.07-.15,0,0a1.8,1.8,0,0,1,0-.19l0,.13a.54.54,0,0,1,0-.18l0,.13s0-.06,0-.09,0,0,0,0,0,.1,0,.06,0,0,0,0,0,.05,0,.05,0-.05.08-.07a.51.51,0,0,0-.35-.86.58.58,0,0,0-.36.15,1.11,1.11,0,0,0-.29,1.17,1.13,1.13,0,0,0,1,.81.54.54,0,0,0,.48-.37,1.92,1.92,0,0,0-.1-1.45,1.78,1.78,0,0,0-.39-.55,2.51,2.51,0,0,0-.32-.25.56.56,0,0,0-.5,0l-.19.1a1.54,1.54,0,0,0-.56.6,1.23,1.23,0,0,0-.08.92,1.18,1.18,0,0,0,.63.7,1,1,0,0,0,1-.14A1,1,0,0,0,160,69a.85.85,0,0,0-.44-.77.53.53,0,0,0-.39,0,.52.52,0,0,0-.3.23.51.51,0,0,0,.18.68Z" transform="translate(-0.04)"/>
      </g>
      <path class="cls-2" d="M21,101.2c.35-.78,1-1.63,1.94-1.62s1.45.65,1.15,1.44c-.37,1-1.5,1.23-2.41,1.33-.61.07-1.22.11-1.83.17a2.72,2.72,0,0,1-.57,0c.09,0,0,.12,0,0s0,0,0-.07l.11-.21a2.86,2.86,0,0,1,1.28-.82,1.79,1.79,0,0,1,1.29,0,.81.81,0,0,1,0,1.56c-.72.32-1.34-.33-1.44-1A1.86,1.86,0,0,1,22,100.11c.33-.12.8-.26,1.06.07a1.4,1.4,0,0,1,.2,1c-.08.7-.68,1.68-1.51,1.34a.6.6,0,0,1-.29-.86.85.85,0,0,1,.62-.45,1.11,1.11,0,0,1,1.37.63,1.4,1.4,0,0,1-1,1.59,1.42,1.42,0,0,1-1.59-1.08c-.2-.64.08-1.75.93-1.71s1.23,1.1,1.13,1.75c0,.09,0,.23-.13.27s-.31,0-.39-.09a1.25,1.25,0,0,1-.61-.67,1.07,1.07,0,0,1,.53-1.49,1.32,1.32,0,0,1,1.56.6,1.22,1.22,0,0,1-.95,1.51.85.85,0,0,1-.42,0s-.1-.06-.15-.07c.18,0-.09-.07-.05-.07h0a.61.61,0,0,1-.11.21.53.53,0,0,0,.18-.69.52.52,0,0,0-.69-.18c-.71.52-.28,1.45.43,1.72a2,2,0,0,0,1.81-.28,2,2,0,0,0,.37-3.23,2.15,2.15,0,1,0-2.77,3.26,1.66,1.66,0,0,0,1.84.3,1.72,1.72,0,0,0,.48-1.9c-.32-1.29-1.7-2.53-3-1.66a2.46,2.46,0,0,0-.51,3.5,2.43,2.43,0,0,0,1.52,1,2.2,2.2,0,0,0,1.85-.57,2.12,2.12,0,0,0,.06-3.27,2.23,2.23,0,0,0-2.95.29,1.69,1.69,0,0,0-.13,2,1.81,1.81,0,0,0,1.79.67,2.66,2.66,0,0,0,1.73-3.3A1.64,1.64,0,0,0,22.79,99a3.1,3.1,0,0,0-2.13.74,2.57,2.57,0,0,0-.47,3.63,2,2,0,0,0,3.27-.33c.75-1.42-.72-2.77-2.12-2.69a4.09,4.09,0,0,0-2.13.84c-.54.39-1.13,1.17-.75,1.85s1.48.48,2.19.42a10.48,10.48,0,0,0,2.49-.37,3.19,3.19,0,0,0,1.73-1.31A2.1,2.1,0,0,0,25,99.7a2.44,2.44,0,0,0-3.5-.63,3.82,3.82,0,0,0-1.3,1.62.52.52,0,0,0,.18.69.5.5,0,0,0,.68-.18Z" transform="translate(-0.04)"/>
      <g>
        <path class="cls-2" d="M15.37,91.3a16.29,16.29,0,0,1,5.14-1.22.51.51,0,0,0,.5-.5.5.5,0,0,0-.5-.5,17.28,17.28,0,0,0-5.4,1.25.52.52,0,0,0-.35.62.5.5,0,0,0,.61.35Z" transform="translate(-0.04)"/>
        <path class="cls-2" d="M28.26,84c-1-.24-2-.51-3-.73a1.12,1.12,0,0,0-1.5,1,26.71,26.71,0,0,0,0,2.83l0,3a.52.52,0,0,0,.36.49,2.74,2.74,0,0,0,1.33-.13A6.25,6.25,0,0,1,26.86,90c.82-.08,1.24.82,1.07,1.52-.19.86-1.2,1.25-2,1.28a6.59,6.59,0,0,1-3.29-1.15c-.56-.31-1.07.55-.5.86a7.07,7.07,0,0,0,4.06,1.27,3,3,0,0,0,2.66-1.88,2.35,2.35,0,0,0-1-2.69,2.14,2.14,0,0,0-1.61-.1c-.58.17-1.21.62-1.84.52l.37.48,0-4.72a3.62,3.62,0,0,1,0-1.09c.06-.16.05-.13.24-.11a5.07,5.07,0,0,1,.56.13l2.42.59c.63.15.89-.81.27-1Z" transform="translate(-0.04)"/>
      </g>
      <path class="cls-2" d="M75.72,157.4c0-.09,0-.17,0-.25s0-.26,0-.11,0-.12,0-.15a2,2,0,0,1,0-.24,2.17,2.17,0,0,1,.07-.24s.08-.15.07-.19-.08.17,0,.07l.06-.12a1.13,1.13,0,0,1,.12-.21l.08-.12c-.08.11,0-.06.08-.09a1.22,1.22,0,0,0,.17-.15s-.17.11-.08.06l.1-.07s.19-.08.19-.1-.19.07-.09,0l.09,0,.21-.06c.22,0-.16,0,0,0h.3s-.2,0-.11,0a1.52,1.52,0,0,0,.2.06s.13,0,0,0,0,0,0,0l.07,0c.15.09,0,0-.06,0a.92.92,0,0,0,.14.14s-.1-.16,0-.07l.07.12s0,.08,0,.08-.06-.19,0-.05a3.89,3.89,0,0,1,.11.43c0,.11,0-.08,0-.09a.68.68,0,0,0,0,.14c0,.08,0,.16,0,.24s0,.33,0,.49l0,.28c0,.12,0-.07,0-.07s0,.13,0,.15c0,.17-.09.33-.14.49s0-.06,0-.06l-.06.12-.1.17s0,.05-.06.09.08-.1.08-.1a.58.58,0,0,0-.1.12,3.45,3.45,0,0,0-.28.26l.08-.06-.07,0-.13.09-.17.08-.07,0c-.11.05.2-.07.09,0l-.34.11-.19,0c-.21,0,.19,0,0,0a2,2,0,0,1-.35,0h-.27c-.12,0,.22,0,.1,0s-.22,0-.33-.08l-.18-.06c-.1,0,.12,0,.11,0l-.09,0a3,3,0,0,1-.3-.18c-.1-.06.16.15.08.06l-.06-.05-.14-.13-.07-.09c-.07-.06.07.1.07.1a1,1,0,0,0-.09-.13c-.07-.11-.11-.22-.18-.33.14.25,0,.1,0,0s0-.11,0-.16,0-.12,0-.18a.19.19,0,0,0,0-.08c0-.11,0,.27,0,.08s0-.22,0-.33,0-.12,0-.19,0,.19,0,0,0-.25.09-.37a1.42,1.42,0,0,1,.05-.16l0-.07c0-.11-.12.23,0,.06s.1-.19.16-.28l.1-.15c.06-.09-.08.1-.07.1l.09-.11c.07-.08.18-.15.25-.23l-.1.07.07,0a1.18,1.18,0,0,1,.19-.11l.08,0-.06,0c0-.05.22-.08.27-.09l.14,0c-.13,0,0,0,0,0H76s-.17,0-.08,0l.17.05.07,0c.09,0-.12-.06-.12-.06a.81.81,0,0,0,.18.1l.06,0c.09.05-.1-.08-.1-.08a1.42,1.42,0,0,0,.13.12l.11.11c.14.15-.12-.18,0,0l.17.29c.08.15-.08-.21,0,0l.06.2a.75.75,0,0,1,0,.16s0,.05,0,.07,0-.23,0-.11a2.26,2.26,0,0,1,0,.37s0,.23,0,0,0,0,0,.07,0,.1,0,.15l0,.08c0,.11.11-.22,0-.08l-.08.14s-.13.2,0,.07,0,0-.08.07-.07.06-.07.07.12-.09.06,0a.1.1,0,0,1,0,0l-.09,0s.19-.06.08,0l-.1,0c-.13.05.11,0,.13,0s0,0-.07,0l.16,0a.53.53,0,0,0-.17,0c.06,0,.23.11.08,0s.18.17,0,0l-.09-.1c-.07-.06.08.11.08.11a.53.53,0,0,0-.06-.1.75.75,0,0,0-.07-.12c0-.11.08.22,0,.1a.14.14,0,0,0,0-.06l0-.14s0,.27,0,.12v-.09c0-.17,0,0,0,.09a.94.94,0,0,0,0-.16c0-.07,0,.13-.06.14s0-.05,0-.06c.1-.17-.16.16,0,0l0-.05s-.17.1-.09.08l.08-.05c.07-.06-.11.05-.12.05l.14,0s-.26,0-.12,0h.1c.16,0-.22-.05-.06,0l.17,0,.07,0s-.19-.1-.12-.05l.18.11c.08,0-.09-.08-.1-.08l.06.05s.09.11.13.13-.12-.18-.08-.1l0,.06a.41.41,0,0,0,.05.09c.07.12,0-.07,0-.1a.83.83,0,0,0,0,.15c0,.15,0-.1,0-.12v.08s0,.07,0,.08.05-.2,0-.12,0,.07,0,.1.09-.15,0-.08a.46.46,0,0,0-.09.15c-.06.1.14-.15,0-.07l-.06.06s0,0-.06.06.08-.07.09-.07a.71.71,0,0,0-.2.12c-.14.08.19,0,0,0s-.27.06-.09,0,0,0-.06,0,.22.06.1,0l-.1,0c-.09,0,.09,0,.1,0l-.09,0c-.13-.07.14.15.05,0s0,0-.05-.05.08.1.08.1a.75.75,0,0,0-.1-.17s.06.2.06.12l0-.07a.36.36,0,0,0,0-.1s0,.24,0,.14a1.09,1.09,0,0,0,0-.18s0-.13,0,0,0,.05,0,0,0-.11.05-.16-.11.19-.05.13l0-.07c.07-.13-.14.16,0,.05s-.08.06-.09.06l.08-.05-.77.1.08,0s-.24-.11-.13-.05l-.14-.1s0,0,0-.05,0,0,0,0-.08-.23,0-.05,0-.27,0,0a.22.22,0,0,1,0,.08s0-.27,0-.14,0,.06,0,.08.12-.23,0-.12.09-.1.09-.11-.13.12,0,0-.08,0,.11-.06,0,0,0,0A1,1,0,0,0,76,159a1.73,1.73,0,0,0,1-2.49,1.42,1.42,0,0,0-1.53-.8A1.81,1.81,0,0,0,74.33,157a2.2,2.2,0,0,0,1,2.52,2.31,2.31,0,0,0,2.92-.83,2.12,2.12,0,0,0-.33-2.74,2.3,2.3,0,0,0-2.73-.41,2.06,2.06,0,0,0-.68,2.68,2,2,0,0,0,2.26,1.18,2.63,2.63,0,0,0,1.84-2.13,3.35,3.35,0,0,0-.54-2.46,2.77,2.77,0,0,0-2.56-1.2A3.41,3.41,0,0,0,73,155.12,3.56,3.56,0,0,0,78.08,160a3.54,3.54,0,0,0,.94-1,4.08,4.08,0,0,0,.52-1.67,4,4,0,0,0-.66-3A2.58,2.58,0,0,0,76,153.6,3.47,3.47,0,0,0,73.94,156a5.85,5.85,0,0,0-.22,1.45,1,1,0,0,0,2,0Z" transform="translate(-0.04)"/>
      <g>
        <path class="cls-2" d="M38.14,158.91a23.14,23.14,0,0,0,4.15.39c.89,0,2.44-.15,2.38-1.39,0-.64-1-.64-1,0,0,.22-.34.31-.56.35a6.44,6.44,0,0,1-1.39,0,21.61,21.61,0,0,1-3.31-.35.52.52,0,0,0-.62.35.5.5,0,0,0,.35.62Z" transform="translate(-0.04)"/>
        <path class="cls-2" d="M47.5,157.67a12.51,12.51,0,0,1,2.91-4l-.84-.22A13.84,13.84,0,0,1,49,162.6c-.24.59.73.85,1,.26a14.74,14.74,0,0,0,.54-9.63.51.51,0,0,0-.84-.22,13.09,13.09,0,0,0-3.06,4.16c-.27.58.59,1.09.86.5Z" transform="translate(-0.04)"/>
        <path class="cls-2" d="M46.72,163.88l5.91-.51c.64-.05.65-1.05,0-1l-5.91.51c-.64.06-.65,1.06,0,1Z" transform="translate(-0.04)"/>
        <path class="cls-2" d="M55.68,159.52A4.08,4.08,0,0,1,57,159l.11,0,.18,0,.38,0,.37,0h.19c.06,0,.07,0,0,0h.11a.5.5,0,1,0,.26-1,5.27,5.27,0,0,0-3.48.59.5.5,0,0,0-.18.68.5.5,0,0,0,.68.18Z" transform="translate(-0.04)"/>
        <path class="cls-2" d="M61.65,153.45l-1,4.75a.51.51,0,0,0,.62.62q2.84-.84,5.6-1.9a.5.5,0,1,0-.27-1q-2.76,1-5.6,1.89l.62.62,1-4.75c.14-.63-.82-.9-1-.27Z" transform="translate(-0.04)"/>
        <path class="cls-2" d="M63.55,151.34a97.91,97.91,0,0,0-.14,10.42c0,.64,1,.65,1,0a97.91,97.91,0,0,1,.14-10.42c0-.65-.95-.64-1,0Z" transform="translate(-0.04)"/>
        <path class="cls-2" d="M69.45,162.32v-3.94a.5.5,0,0,0-1,0v3.94a.5.5,0,0,0,1,0Z" transform="translate(-0.04)"/>
        <path class="cls-2" d="M68.23,153.33a0,0,0,0,0,0,0s.06-.12,0-.07.09-.11,0-.07l.06-.05,0,0,.08,0h0s.14,0,.09,0h0l-.07,0c-.06,0,.06,0,.07,0h0c-.09-.06.08.07,0,0s.07.11,0,0,0-.06,0,0,0,0,0,0,0,.1,0,0v-.06h0c0,.08,0,0,0,0s0-.08,0-.12,0,.09,0,0,0,0,0-.06a1.76,1.76,0,0,1,.14-.23L68,153l.12.06,0,0c.08,0,0,0,0,0s.08.08.1.09l.07.08c-.11-.13,0,0,0,0a.31.31,0,0,1,0,.1c.05.09,0,0,0,0a.14.14,0,0,1,0,.06.56.56,0,0,1,0,.12s0,.12,0,.12,0-.15,0-.05v.25c0,.08,0-.11,0-.05s0,.08,0,.12a.14.14,0,0,0,0,.06h0c0-.08,0,0,0,0l0,.06s-.12.17,0,0L69,154s.1.08,0,0l0,0-.08-.07a.93.93,0,0,1-.18-.16l-.08-.08,0,0c-.06-.07,0,0,0,0s0-.06-.06-.09l-.06-.1c0-.06,0,.1,0,0v0l0-.1v0c0-.06,0,.12,0,.06v-.14c0-.08,0,.07,0,.06s0-.06,0-.08l0-.05s0,.08,0,.07,0-.07.05-.09-.07.08,0,0l0,0s-.1.07,0,0-.1,0,0,0h0c.08,0-.05,0-.06,0h.07c.06,0-.12,0-.07,0h0s.11,0,0,0,0,0,0,0,0,0,0,0,0,0,0,0l0,0c0,.05,0,0,0,0v0c0,.05,0-.12,0-.06s0,0,0,0,0-.11,0-.06,0-.11,0-.06.07-.12,0,0,.1-.11,0-.05.07,0,.07,0l0,0s.08,0,.09,0l0,0h0c-.06,0,.12,0,.08,0h-.07s.15,0,.06,0,.09,0,0,0,.08.08,0,0,.06.08.05.07,0-.07,0,0,0,.06,0,0,0,.13,0,.07a.5.5,0,0,0-1,0,.68.68,0,0,0,.36.62.88.88,0,0,0,1.16-.27.8.8,0,0,0,0-.78,1,1,0,0,0-1.19-.45,1,1,0,0,0-.56.51,1.38,1.38,0,0,0-.11.8,2.18,2.18,0,0,0,1,1.27.49.49,0,0,0,.6-.08,1.6,1.6,0,0,0,.35-.7,2.1,2.1,0,0,0,0-.79,1.69,1.69,0,0,0-.87-1.13.51.51,0,0,0-.68.18,1.93,1.93,0,0,0-.33.86.93.93,0,0,0,.34.79.94.94,0,0,0,.76.18.72.72,0,0,0,.57-.54.5.5,0,1,0-1-.26Z" transform="translate(-0.04)"/>
      </g>
    </g>
  </g>
</svg>
