<svg xmlns="http://www.w3.org/2000/svg" viewBox="0 0 278.93 166.49">
  <defs>
    <style>
      .cls-1 {
        fill: #808285;
      }

      .cls-2 {
        fill: #ed1c24;
      }
    </style>
  </defs>
  <title>Asset 1</title>
  <g id="Layer_2" data-name="Layer 2">
    <g id="Layer_1-2" data-name="Layer 1">
      <g>
        <path class="cls-1" d="M19.69,76.81Q17.08,79,14.64,81.28q-1.23,1.16-2.4,2.37a12.32,12.32,0,0,0-2.09,2.41c-1.05,1.85,0,3.6,1.74,4.43.86.4,1.78.68,2.65,1.05a29.83,29.83,0,0,1,2.79,1.35,31.56,31.56,0,0,1,5.78,4c1,.84,2.39-.57,1.42-1.42a35.12,35.12,0,0,0-9.83-6c-.79-.31-3.47-.88-2.92-2.21a8.27,8.27,0,0,1,1.87-2.18c.7-.72,1.42-1.43,2.15-2.13q2.57-2.45,5.3-4.7c1-.82-.43-2.23-1.41-1.42Z" transform="translate(0 -0.02)"/>
        <path class="cls-1" d="M256.87,84.25l6.87,2.68c1,.38,2,.72,2.91,1.16.72.34,1.49.72,1.14,1.62a11,11,0,0,1-1.63,2.48c-.59.76-1.23,1.48-1.89,2.18a30.06,30.06,0,0,1-4.86,4.07c-1.06.72-.06,2.46,1,1.73a31.35,31.35,0,0,0,8-7.75c1-1.45,2.17-3.35.76-5a5.28,5.28,0,0,0-2-1.3c-1-.41-1.95-.77-2.93-1.15l-6.87-2.69a1,1,0,0,0-1.23.7,1,1,0,0,0,.7,1.23Z" transform="translate(0 -0.02)"/>
        <path class="cls-1" d="M10.88,88.37c19.51,1,39.05,1.49,58.59,1.28,15-.16,29.88-1.14,44.83-1.72,7.8-.3,15.59-.41,23.39-.4,9.12,0,18.25-.06,27.36.32q6.16.27,12.28,1c4.18.47,8.34,1.11,12.55,1.27,8.79.34,17.56-.79,26.36-.57,6.26.15,12.5.68,18.76.88,8.36.26,16.72.31,25.07.27l8.26-.07a1,1,0,0,0,0-2c-15.34.18-30.67.1-46-.82-4.74-.28-9.5-.39-14.25-.26-3.91.11-7.81.47-11.72.59-8.62.28-17-1.26-25.61-1.9-8.94-.67-17.92-.59-26.88-.64-7.85,0-15.71,0-23.57.18-15.12.42-30.21,1.56-45.33,1.84-18.52.34-37.05,0-55.55-.81q-4.28-.18-8.55-.39c-1.29-.06-1.28,1.94,0,2Z" transform="translate(0 -0.02)"/>
      </g>
      <g>
        <path class="cls-1" d="M123.72,15.05A74.33,74.33,0,0,1,130.38,4.8c.61-.79,1.22-1.6,1.9-2.34.13-.14.42-.5.64-.43s.42.76.5,1a46.06,46.06,0,0,1,2.05,6c.48,1.79.69,4.38,3,4.64a1,1,0,0,0,1-1,1,1,0,0,0-1-1c-.41-.05-.61-1.42-.68-1.7-.25-1.06-.54-2.12-.87-3.16s-.71-2.15-1.12-3.21A9.82,9.82,0,0,0,134.48.8a2.1,2.1,0,0,0-2.65-.52,7.75,7.75,0,0,0-2.16,2.22q-2,2.54-3.86,5.23c-1.38,2-2.64,4.15-3.81,6.31-.61,1.13,1.11,2.14,1.72,1Z" transform="translate(0 -0.02)"/>
        <path class="cls-1" d="M121.5,150.73a44.77,44.77,0,0,0,8.86,15.48,1,1,0,0,0,1.68-.44,37.73,37.73,0,0,1,7.17-12.61c.83-1-.58-2.39-1.42-1.42a40.6,40.6,0,0,0-7.68,13.49l1.67-.44a42.06,42.06,0,0,1-8.35-14.59c-.4-1.21-2.33-.69-1.93.53Z" transform="translate(0 -0.02)"/>
        <path class="cls-1" d="M131.83,2.48l-.93,62.69c-.31,21-.64,42-.8,63q-.14,17.7-.08,35.39a1,1,0,0,0,2,0c-.08-21,.1-42,.37-63s.61-41.84.92-62.76l.52-35.25a1,1,0,0,0-2,0Z" transform="translate(0 -0.02)"/>
      </g>
      <path class="cls-2" d="M7.82,162.83a202.73,202.73,0,0,1,18-46.35,134.14,134.14,0,0,1,11.4-18c2.87-3.69,8.51-10.79,13.7-6.67,2.76,2.19,4.4,5.78,5.78,8.93a74.65,74.65,0,0,1,4,10.93A64.75,64.75,0,0,0,63.9,122c1.59,3.57,3.42,7.73,6.29,10.48,6.34,6.07,13.47-2.2,17.23-7.09A47.1,47.1,0,0,0,93,115.42c1.74-4,3.41-8,5.09-11.93a225.36,225.36,0,0,0,11.87-36.84c.07-.31.13-.63.21-.94l-1.93-.53c-.41,2-1,4-1.55,6.06l-1.08,4.13-.39,1.48c0,.16-.32.93-.09.46l1.86.5c0,.52,0-.07.08-.2.09-.35.17-.72.26-1.07.34-1.35.69-2.7,1-4q1.42-5.5,2.89-11a132.59,132.59,0,0,1,5-15.74,86,86,0,0,1,5.57-11.06,29.33,29.33,0,0,1,5-7A17.43,17.43,0,0,1,141,23.33c6.36,1.12,11.2,6.64,14,12.16a29,29,0,0,1,2.44,7.37c.7,3.52,1.39,7,2.1,10.55.91,4.55,1.8,9.11,2.89,13.62a36.67,36.67,0,0,0,2,6.32A37.28,37.28,0,0,0,168,79.26c3.17,4.57,7.24,8.61,12.74,10.15a23.29,23.29,0,0,0,7.44.59,34.76,34.76,0,0,1,8.51.64c5,1,10.43,2.85,14.33,6.3,2.43,2.14,4.24,5,6.39,7.47,3.92,4.43,8.26,9.94,14.66,10.28,10.6.56,15.92-12.22,19.17-20.29,4.82-12,7.54-24.71,11.67-37,1.36-4,2.77-8,3.92-12.1,1.84-6.56,3.27-13.24,4.49-20q.78-4.34,1.43-8.69c.18-1.26-1.74-1.81-1.93-.53A205.43,205.43,0,0,1,263,51.08c-1.54,4.62-3.15,9.21-4.56,13.87-1.91,6.3-3.54,12.69-5.54,19a105.76,105.76,0,0,1-7.5,18.55c-2,3.63-4.85,7.67-8.7,9.46a10.2,10.2,0,0,1-8.65-.36c-2.9-1.5-5.12-4.12-7.3-6.48-1.73-1.87-3.41-3.78-5-5.77-.84-1-1.63-2.16-2.57-3.13-3.44-3.54-8.54-5.59-13.21-6.85a41.06,41.06,0,0,0-7.3-1.3c-2.64-.22-5.26.15-7.9,0-6-.31-10.86-4.12-14.3-8.82a40.52,40.52,0,0,1-4.17-6.57,33,33,0,0,1-1.82-5.81c-1-4.25-1.88-8.55-2.75-12.84l-2.19-11A33.86,33.86,0,0,0,157.45,36c-2.3-5.29-6.57-10.84-11.92-13.3s-11.61-1.74-16.72,1.13c-4.77,2.67-7.32,7.34-9.94,11.94-6.57,11.55-9.48,24.58-12.75,37.33A30.8,30.8,0,0,0,105,77.81a1,1,0,0,0,1.87.51,11.18,11.18,0,0,0,.58-2L108.52,72c.54-2.1,1.19-4.2,1.62-6.32a1,1,0,0,0-1.93-.53c-1.21,4.28-2.11,8.65-3.34,12.94A197.42,197.42,0,0,1,98,98.49c-1.43,3.48-2.91,6.94-4.38,10.4a107,107,0,0,1-5.3,11.51,40.26,40.26,0,0,1-7.4,9.24,10.09,10.09,0,0,1-5,2.91,5.18,5.18,0,0,1-4.57-1.77,21.52,21.52,0,0,1-3.33-5,59.69,59.69,0,0,1-3.07-6.4c-1.26-3.25-1.88-6.69-2.87-10a80.14,80.14,0,0,0-4.2-10.84c-1.41-3-3.11-6.21-5.78-8.3-4.85-3.79-10-.18-13.52,3.58-5,5.34-8.85,11.79-12.48,18.09A198.43,198.43,0,0,0,7.88,155.08c-.7,2.39-1.36,4.8-2,7.21a1,1,0,0,0,1.93.54Z" transform="translate(0 -0.02)"/>
      <path class="cls-2" d="M0,151.25a52.4,52.4,0,0,0,5.87,13.62,1,1,0,0,0,1.57.2l7.1-5.93c1-.83-.43-2.23-1.42-1.41l-7.09,5.93,1.57.2A50.25,50.25,0,0,1,2,150.72a1,1,0,0,0-1.93.53Z" transform="translate(0 -0.02)"/>
      <path class="cls-2" d="M263.34,24.41q2.34-2.44,4.72-4.85l2.38-2.39A12.47,12.47,0,0,0,271.65,16a.48.48,0,0,1-.37-.14,1.13,1.13,0,0,1,.12.21c.08.18.14.37.21.56a64.08,64.08,0,0,0,5.45,11.62,1,1,0,0,0,1.72-1,65.69,65.69,0,0,1-3.39-6.5c-.46-1-.9-2.08-1.3-3.14a9.63,9.63,0,0,0-1.33-3.08,1.64,1.64,0,0,0-1.33-.55,2.49,2.49,0,0,0-1.54,1c-.86.84-1.72,1.7-2.57,2.55q-2.71,2.74-5.39,5.53c-.89.93.52,2.35,1.41,1.42Z" transform="translate(0 -0.02)"/>
    </g>
  </g>
</svg>
