<svg xmlns="http://www.w3.org/2000/svg" viewBox="0 0 247.37 174.25">
  <defs>
    <style>
      .cls-1 {
        fill: #808285;
      }

      .cls-2 {
        fill: #231f20;
      }

      .cls-3 {
        fill: #ed1c24;
      }
    </style>
  </defs>
  <title>Asset 3</title>
  <g id="Layer_2" data-name="Layer 2">
    <g id="Layer_1-2" data-name="Layer 1">
      <g>
        <path class="cls-1" d="M10,72.18c-1.73,1.43-3.42,2.92-5,4.47Q3.72,77.81,2.54,79A12.32,12.32,0,0,0,.45,81.43c-1,1.85,0,3.6,1.75,4.43.86.4,1.77.68,2.65,1a28.5,28.5,0,0,1,2.78,1.35,32,32,0,0,1,5.79,4c1,.84,2.38-.57,1.41-1.42a35.12,35.12,0,0,0-9.83-6c-.79-.31-3.47-.88-2.91-2.21A8.23,8.23,0,0,1,4,80.43C4.66,79.71,5.37,79,6.1,78.3q2.56-2.44,5.3-4.7c1-.82-.42-2.23-1.41-1.42Z" transform="translate(-0.03 -0.01)"/>
        <path class="cls-1" d="M235.42,79.78l6.25,3.92c.92.57,1.86,1.12,2.75,1.74.72.51,1.29,1,.7,1.88A13.13,13.13,0,0,1,243,89.47a26.81,26.81,0,0,1-2.23,1.75,31.45,31.45,0,0,1-5.59,3.1,1,1,0,0,0-.36,1.37,1,1,0,0,0,1.37.35,30.62,30.62,0,0,0,9.12-6c1.27-1.21,2.77-2.83,1.78-4.68a5.55,5.55,0,0,0-1.9-1.83c-.86-.56-1.74-1.09-2.6-1.63l-6.15-3.85c-1.1-.69-2.1,1-1,1.72Z" transform="translate(-0.03 -0.01)"/>
        <path class="cls-1" d="M2.16,84.56c20,1.42,40.13,2.15,60.21,1.63,13.83-.36,27.6-1.74,41.44-2.1,15.42-.41,30.92-.49,46.33.27,5,.24,9.55,1,14.48,1.21,8.26.43,16.54.46,24.81.46,7.17,0,14.25.73,21.4,1.13,8.43.46,16.87.55,25.3.5q4.32,0,8.64-.1a1,1,0,0,0,0-2c-9.69.17-19.39.19-29.08-.18-6.68-.25-13.33-1-20-1.29-8.37-.3-16.76,0-25.14-.29-3.65-.11-7.31-.21-11-.61-1.9-.2-3.78-.47-5.69-.61-14.59-1-29.33-.88-43.94-.63-7.65.13-15.3.35-22.93.89-6.45.45-12.89.93-19.35,1.18-18.86.71-37.75.25-56.59-.88q-4.47-.27-8.94-.58c-1.28-.09-1.27,1.91,0,2Z" transform="translate(-0.03 -0.01)"/>
      </g>
      <g>
        <path class="cls-1" d="M108.36,13.06a52.57,52.57,0,0,1,5.92-8.58c.6-.72,1.17-1.5,1.84-2.16.18-.18.34-.38.54-.24s.39.74.51,1c.68,1.51,1.5,3,2.27,4.42A41.69,41.69,0,0,1,122,12.92c.43,1.2,2.37.68,1.93-.53-1.33-3.68-3.53-6.95-5.11-10.51a2.66,2.66,0,0,0-2-1.86c-1.18-.11-2,.77-2.69,1.59-1.3,1.55-2.6,3.1-3.82,4.72a45.41,45.41,0,0,0-3.63,5.73c-.61,1.13,1.11,2.14,1.73,1Z" transform="translate(-0.03 -0.01)"/>
        <path class="cls-1" d="M105.5,158.49A44.66,44.66,0,0,0,114.36,174a1,1,0,0,0,1.67-.44,38.27,38.27,0,0,1,7.17-12.61c.84-1-.57-2.39-1.41-1.41A40.42,40.42,0,0,0,114.1,173l1.68-.44A42.24,42.24,0,0,1,107.43,158c-.4-1.22-2.33-.7-1.93.53Z" transform="translate(-0.03 -0.01)"/>
        <path class="cls-1" d="M115.52,2.11l-.93,66c-.31,22.08-.63,44.17-.79,66.26q-.14,18.62-.08,37.23a1,1,0,0,0,2,0c-.08-22.11.1-44.22.37-66.33s.6-44,.9-66l.53-37.08a1,1,0,0,0-2,0Z" transform="translate(-0.03 -0.01)"/>
      </g>
      <g>
        <path class="cls-2" d="M103.73,79c-.29,1.56-.54,3.13-.75,4.7a17.49,17.49,0,0,0-.26,2.28c0,.53.4,1.21,1,1s.34-1.19-.26-1a.33.33,0,0,1,.26.11.36.36,0,0,1,0-.1,1.67,1.67,0,0,0,0-.39c0-.28.07-.56.1-.85.07-.61.15-1.23.24-1.84.18-1.22.38-2.44.61-3.66.12-.62-.85-.89-1-.26Z" transform="translate(-0.03 -0.01)"/>
        <path class="cls-2" d="M90.8,79.31l-.59,5.46-.15,1.34a9.71,9.71,0,0,0-.14,1.31c0,.59.68,1.26,1.21.7s-.27-1.18-.71-.71l.11-.06.38.05a17.75,17.75,0,0,1,.2-1.79l.23-2.1.46-4.2c.07-.64-.93-.64-1,0Z" transform="translate(-0.03 -0.01)"/>
        <path class="cls-2" d="M75.5,80.33a46.7,46.7,0,0,0-1,7.82c0,.64,1,.64,1,0a45.67,45.67,0,0,1,.93-7.56c.13-.63-.83-.89-1-.26Z" transform="translate(-0.03 -0.01)"/>
        <path class="cls-2" d="M56.87,81.05a.66.66,0,0,0-.83-.47.84.84,0,0,0-.57.8c-.12,1-.21,2-.32,3l-.32,2.91-.07.73a1.19,1.19,0,0,0,0,.62.69.69,0,0,0,1,.29c.57-.3.06-1.16-.51-.87l.35,0,.15.35a12.69,12.69,0,0,1,.18-1.73l.19-1.82.19-1.75.1-.87,0-.51,0-.22c0-.25-.13-.32-.55-.22.12.63,1.09.37,1-.26Z" transform="translate(-0.03 -0.01)"/>
        <path class="cls-2" d="M134,79.37c-.25,1.72-.43,3.45-.52,5.19,0,.57-.29,1.81.54,1.94s1-1.2.13-1.19a.5.5,0,0,0,0,1h0l-.36-.14,0,0-.13-.22,0-.14.13-.22,0,0,.25-.06h-.05l.26.07c.08.17.11.2.1.07v-.13c0-.12,0-.25,0-.38l0-.77c0-.54.07-1.07.11-1.61q.14-1.56.36-3.12a.52.52,0,0,0-.35-.62.5.5,0,0,0-.61.35Z" transform="translate(-0.03 -0.01)"/>
        <path class="cls-2" d="M156.57,80.2l-.13,7.88a.5.5,0,0,0,.75.43,1.25,1.25,0,0,0,.72-.79c.19-.62-.77-.88-1-.27,0,.11-.17.15-.26.2l.75.43.13-7.88c0-.64-1-.64-1,0Z" transform="translate(-0.03 -0.01)"/>
        <path class="cls-2" d="M177.37,81.49a61.7,61.7,0,0,0-.77,6.9c0,.65,1,.64,1,0a59.2,59.2,0,0,1,.73-6.63c.1-.63-.86-.9-1-.27Z" transform="translate(-0.03 -0.01)"/>
        <path class="cls-2" d="M46.75,98.88a6.49,6.49,0,0,1,3.33-1.11.5.5,0,0,0,0-1A7.47,7.47,0,0,0,46.25,98a.5.5,0,0,0,.5.87Z" transform="translate(-0.03 -0.01)"/>
        <path class="cls-2" d="M52.72,92.69l-.83,2.5a5.07,5.07,0,0,0-.35,1.19.84.84,0,0,0,.67.83,3.1,3.1,0,0,0,1.13-.1l1.24-.23,2.57-.48a.5.5,0,1,0-.27-1l-2.19.4c-.69.13-1.42.3-2.09.39h-.11c-.16,0,0,0,0,0a.19.19,0,0,1,0,.1c0,.12,0,.12.05,0a1.41,1.41,0,0,0,.06-.22L53,95.09,53.69,93c.2-.61-.76-.87-1-.26Z" transform="translate(-0.03 -0.01)"/>
        <path class="cls-2" d="M54.44,92.27l-1.28,9.52c-.06.46.57.61.86.35l.55-.5c.47-.44-.24-1.14-.71-.71l-.55.51.85.35,1.28-9.52c.08-.63-.92-.63-1,0Z" transform="translate(-0.03 -0.01)"/>
        <path class="cls-2" d="M152.11,70.89a4.8,4.8,0,0,0,1.36.18,1.83,1.83,0,0,1,1.19.29c.57.48.32,1.45-.1,1.93a6,6,0,0,1-2.41,1.41L149,76c-.42.17-.26.81.11.91a17.28,17.28,0,0,0,4.19.34,5.33,5.33,0,0,1,3.35,1c.48.41,1.19-.29.7-.71a6,6,0,0,0-3.56-1.26,22.36,22.36,0,0,1-4.41-.32l.12.91c1.25-.53,2.52-1.05,3.76-1.59a4.5,4.5,0,0,0,2.44-1.94,2.38,2.38,0,0,0-.26-2.65c-.83-.89-2.05-.45-3.06-.79-.62-.21-.88.76-.27,1Z" transform="translate(-0.03 -0.01)"/>
        <path class="cls-1" d="M187.52,84.06a12.32,12.32,0,0,0-.54,4.09.52.52,0,0,0,.5.5.5.5,0,0,0,.5-.5,11.32,11.32,0,0,1,.51-3.83c.19-.61-.77-.87-1-.26Z" transform="translate(-0.03 -0.01)"/>
        <g>
          <path class="cls-2" d="M181.28,94.25a2.43,2.43,0,0,1,1.35-.17c.22.07.52.29.47.55s-.21.28-.32.37-.35.27-.53.4c-.4.28-.81.53-1.23.77a.51.51,0,0,0-.1.79c.38.46,1,.54,1.46.79a1.15,1.15,0,0,1,.65,1.06.72.72,0,0,1-.62.73.74.74,0,0,1-.84-.39.49.49,0,0,0-.68-.18.51.51,0,0,0-.18.68,1.7,1.7,0,0,0,1.67.9,1.75,1.75,0,0,0,1.56-1.17,2.17,2.17,0,0,0-.47-2,2.3,2.3,0,0,0-.93-.6,1.91,1.91,0,0,1-.91-.48l-.1.78a12.24,12.24,0,0,0,1.66-1.1c.49-.37,1-.81.9-1.48a1.6,1.6,0,0,0-1-1.28,3.15,3.15,0,0,0-2,.11.5.5,0,0,0,.26,1Z" transform="translate(-0.03 -0.01)"/>
          <path class="cls-2" d="M184.76,99.41v0l0-.14h0l.05-.12v0l.08-.11v0L185,99h0l.12-.05h0l.13,0a0,0,0,0,1,0,0l.13,0h0l.12.05h0l.1.07h0l.08.11v0l.05.12h0v.13h0a.31.31,0,0,0,0-.19.29.29,0,0,0-.1-.16.42.42,0,0,0-.16-.11.45.45,0,0,0-.2,0l-.13,0a.42.42,0,0,0-.22.13l-.08.1a.52.52,0,0,0-.07.25h0a.35.35,0,0,0,0,.07s0,.05,0,.07h0l0,.07,0,.06h0l.08.1h0l0,0,.05,0h0l.12,0h0a.76.76,0,0,0,.16,0h.18l.12,0h0a.39.39,0,0,0,.1-.08h0a.38.38,0,0,0,.09-.12s0-.09.05-.13,0-.13,0-.14h0a.41.41,0,0,0,0-.19.36.36,0,0,0-.11-.16.31.31,0,0,0-.16-.11.41.41,0,0,0-.19,0l-.13,0a.45.45,0,0,0-.22.13l-.08.1a.45.45,0,0,0-.07.25Z" transform="translate(-0.03 -0.01)"/>
          <path class="cls-2" d="M187.12,93.79l-.68,5.36a.51.51,0,0,0,.31.46.53.53,0,0,0,.55-.1l.4-.32a.51.51,0,0,0,0-.71.52.52,0,0,0-.71,0l-.4.32.85.35.68-5.36a.5.5,0,0,0-1,0Z" transform="translate(-0.03 -0.01)"/>
          <path class="cls-2" d="M190.08,99.49c.37-.86,1-1.55,1.39-2.41a2.56,2.56,0,0,0-.15-2.62,1.8,1.8,0,0,0-2-.56,1.51,1.51,0,0,0-.64,2.11,2.38,2.38,0,0,0,2.61,1,.51.51,0,0,0,.35-.62A.52.52,0,0,0,191,96a1.43,1.43,0,0,1-1.4-.39.84.84,0,0,1-.13-.55.49.49,0,0,1,.1-.19.27.27,0,0,1,.18-.1l.08,0s-.06,0,0,0a.6.6,0,0,1,.19,0l.08,0,.12,0a.81.81,0,0,1,.44.41,2,2,0,0,1-.21,1.66c-.38.71-.91,1.32-1.23,2.06a.51.51,0,0,0,.18.69.5.5,0,0,0,.68-.18Z" transform="translate(-0.03 -0.01)"/>
          <path class="cls-2" d="M194.34,94.71,193,94a.51.51,0,0,0-.73.3,9.33,9.33,0,0,0-.11,2.74.5.5,0,0,0,.63.48,4.33,4.33,0,0,1,.92-.25.53.53,0,0,1,.36.15,1.1,1.1,0,0,1,.33.93c-.14.89-1.4,1.06-2.12.72a.5.5,0,0,0-.51.87,3,3,0,0,0,2.24.14,2,2,0,0,0,1.37-1.52,2.11,2.11,0,0,0-.6-1.85,1.64,1.64,0,0,0-.93-.43,3.55,3.55,0,0,0-1.32.28l.63.48a8.52,8.52,0,0,1,.07-2.47l-.73.3,1.35.7c.57.3,1.07-.56.5-.86Z" transform="translate(-0.03 -0.01)"/>
        </g>
      </g>
      <g>
        <path class="cls-3" d="M14.49,164.18a226.89,226.89,0,0,1,11.42-47.45A108.64,108.64,0,0,1,34.49,98c2-3.42,4.41-6.92,7.57-9.43A9.65,9.65,0,0,1,45,86.88a2.92,2.92,0,0,1,1.14-.18c1.27,0,2.54,0,3.81,0,3.54-.11,7.13-.25,10.64-.71a18.89,18.89,0,0,0,8.32-3.62A34.4,34.4,0,0,0,81.54,65.57c.86-2.63,1.43-5.34,2.19-8A58.22,58.22,0,0,1,88,46.91c1-1.83,2-3.83,3.7-5A6.28,6.28,0,0,1,96.77,41c4,.93,6.5,4.33,7.93,8A104.08,104.08,0,0,1,108,60.65c1,3.87,2,7.75,3.13,11.6,4.27,15,10,30.68,21.36,41.84,2.73,2.68,6.3,4.66,10.17,3.27,3.46-1.24,6-4.32,7.76-7.45,4-7.13,5.63-15.38,7.28-23.28,1.7-8.13,3.33-16.47,7.25-23.88.84-1.6,1.82-3.49,3.49-4.37s3.73,0,5,1.36c1.44,1.56,1.92,3.72,2.29,5.74a46.2,46.2,0,0,0,1.3,6A27.17,27.17,0,0,0,183.22,82a6.65,6.65,0,0,0,4.91,2.45,8.9,8.9,0,0,0,5.34-2.6c4.9-4.34,7.11-11.15,9.06-17.21,4.09-12.7,7.28-25.69,11-38.5q1.92-6.63,3.93-13.24a1,1,0,0,0-1.92-.53C211,27.3,207,42.35,202.67,57.31a117.4,117.4,0,0,1-5.07,15c-1.58,3.55-3.73,7.4-7.18,9.44a4.55,4.55,0,0,1-3,.75,5,5,0,0,1-2.57-1.59,23.94,23.94,0,0,1-3.76-5A25.49,25.49,0,0,1,178.68,70c-.58-2.06-.79-4.19-1.25-6.28-.78-3.5-3-7.37-6.92-7.74s-6.35,3.81-7.88,6.93a62.9,62.9,0,0,0-4.21,11.58c-2.15,8-3.28,16.3-5.66,24.27A45.4,45.4,0,0,1,148.09,110c-1.85,2.94-4.91,6.24-8.72,5.86-2.11-.21-3.86-1.59-5.33-3a53.18,53.18,0,0,1-4-4.47,66.69,66.69,0,0,1-6.53-9.76,114.51,114.51,0,0,1-9-22.11C112.09,68.7,110.2,60.8,108.07,53c-1-3.83-2.35-7.83-5.19-10.73A10.72,10.72,0,0,0,93.28,39c-4,.88-6,4.86-7.7,8.24a60.9,60.9,0,0,0-4,10.41c-.74,2.66-1.31,5.37-2.22,8a30.29,30.29,0,0,1-5.17,8.92,31.46,31.46,0,0,1-8.31,7.33,17.41,17.41,0,0,1-7.65,2.29c-3.79.32-7.6.5-11.4.53a8.31,8.31,0,0,0-3.45.65c-3,1.31-5.28,4-7.21,6.47a71.76,71.76,0,0,0-8.28,14.53c-6.32,14.13-10.46,29.36-13.33,44.54q-1.25,6.62-2.12,13.29c-.17,1.27,1.83,1.26,2,0Z" transform="translate(-0.03 -0.01)"/>
        <path class="cls-3" d="M208.36,19.61a37.64,37.64,0,0,1,8-7c.12-.08.49-.23.56-.36.17-.32,0,.28-.07-.1.05.28.17.58.22.87.18,1,.31,1.9.4,2.86a36.19,36.19,0,0,1,0,6,1,1,0,0,0,2,0,36.74,36.74,0,0,0,0-5.35c-.06-.9-.17-1.79-.3-2.67a8.79,8.79,0,0,0-.53-2.44,1.86,1.86,0,0,0-1.67-1.2,4.41,4.41,0,0,0-2.3,1.1,40.26,40.26,0,0,0-3.87,3A38.41,38.41,0,0,0,207,18.2c-.84,1,.57,2.39,1.41,1.41Z" transform="translate(-0.03 -0.01)"/>
        <path class="cls-3" d="M5.86,156.21l3.67,6.65,1.77,3.23c.52.93,1.43,1.82,2.56,1.17a6.72,6.72,0,0,0,1.26-1.13l1.42-1.39,2.66-2.61c.88-.86,1.76-1.7,2.63-2.57a4.28,4.28,0,0,0,1.46-2.8c.06-1.29-1.94-1.28-2,0,0,.76-.87,1.38-1.37,1.87l-2.31,2.26c-1.51,1.48-3,3-4.53,4.44l-.22.21c.36.09.49.07.39-.07s-.3-.53-.34-.61l-.71-1.29-1.54-2.79L7.59,155.2c-.62-1.13-2.35-.12-1.73,1Z" transform="translate(-0.03 -0.01)"/>
      </g>
      <g>
        <path class="cls-3" d="M54.07,85.9s0-.09,0-.09S54,86,54,86a.59.59,0,0,0,0-.08c0-.07-.08.13-.1.12l.06-.06c.05,0,.14-.06-.11.08l.14-.09c.14-.07-.24.08-.06,0l.15,0c-.27.09-.18,0,0,0h.06c.18,0-.11,0-.12,0l.15,0c.11,0-.22-.11-.12,0l.05,0,.07,0s-.19-.18-.1-.07-.09-.18,0,0l.05.09s-.07-.24-.06-.13a.24.24,0,0,0,0,.08c0,.1,0-.16,0-.15s0,.17,0,.19,0,.13,0,0,0,0,0,0-.08.23,0,.06,0,0,0,0a.56.56,0,0,1-.05.08s.17-.19.07-.09l-.14.13s.21-.13.09-.07,0,0-.06,0-.15.06,0,0,.06,0,0,0c-.24,0,.18,0,0,0h-.08c-.12,0,.24.06.08,0s-.25-.08-.09,0,0,0-.08,0,.06,0,.07.06L53.8,86,53.74,86c-.12-.13,0,0,0,.05s-.08-.12-.11-.17c-.1-.2,0,.16,0,0l0-.11c0-.1,0-.1,0,.1a.27.27,0,0,0,0-.09c0-.17,0,0,0,.07a1.29,1.29,0,0,0,0-.21c.05-.15,0,.07,0,.08a1.34,1.34,0,0,0,.06-.12l.05-.07c.1-.16-.12.12,0,0a1.49,1.49,0,0,0,.18-.17s-.17.12-.09.07l.12-.08.1-.05c.12-.07,0,0-.08,0a1.05,1.05,0,0,0,.24-.06c.1,0-.13,0-.13,0a1,1,0,0,0,.17,0l-.86-.49a1.24,1.24,0,0,1,.1.2c.06.08-.08-.25,0-.08l0,.09a1.6,1.6,0,0,0,.05.21c0,.1,0-.23,0-.12s0,.08,0,.12v.22s0,.07,0,.1.05-.26,0-.09a3.31,3.31,0,0,1-.12.42c0,.13,0-.08.05-.1a.36.36,0,0,0,0,.09l-.11.2a.86.86,0,0,0-.07.1c-.07.11.05-.07.07-.09s-.1.12-.15.17a1.14,1.14,0,0,0-.16.15s.2-.14.07-.06l-.09.06-.19.1s.23-.08.1,0l-.14,0,1,.26c-.11-.13.12.17,0,0l-.11-.18a.2.2,0,0,0,0-.08c0-.09,0,.09,0,.1s-.06-.18-.08-.23-.05-.27,0-.1,0-.06,0-.1,0-.12,0-.18-.05.25,0,.1l0-.11c0-.16-.11.2,0,0l.05-.07c0-.08.09,0-.07.08a.9.9,0,0,0,.09-.1c.06-.06.12,0-.09.07l.08-.06s.23-.11,0,0,0,0,.07,0,.12,0,.14,0-.29,0-.13,0h.17c.12,0-.25,0-.13,0l.13,0c.11,0-.21-.11-.11,0l.06,0c.07,0,.06.1-.09-.08,0,0,0,0,.06.06s.09.1,0,0,0,0,0,0l0,.06s-.07-.22-.06-.14a.19.19,0,0,0,0,.08c0,.07,0-.16,0-.16v.08c0,.12,0-.13,0-.15a.7.7,0,0,0,0,.14c0,.08.05-.14.06-.14l0,.06-.08.13c0,.07-.09,0,.08-.1l-.06.07-.12.11c-.07.07.12-.11.12-.09l-.06,0-.14.08-.06,0c-.1.06.24-.08.09,0l-.15,0c-.08,0,.15,0,.16,0h-.23s.24,0,.16,0-.11,0-.11,0,.21.11.14.06l-.09,0s-.18-.13,0,0,0,0,0,0l0,0c-.08-.08.14.2,0,.07s-.06-.1-.08-.15-.1-.2,0,0,0,0,0-.06a1.42,1.42,0,0,1,0-.2c0-.16,0,.24,0,.07s0-.12,0-.18,0-.12,0-.18,0-.13,0,0,0,0,0,0a3,3,0,0,1,.08-.32c.07-.22-.08.17,0,0a1.62,1.62,0,0,1,.1-.18l.09-.13c-.1.19-.12.14-.06.08l.06-.06a1.59,1.59,0,0,1,.13-.13s.11-.08,0,0,0,0,0,0,.21-.11.31-.17-.12,0-.12,0a.3.3,0,0,0,.1,0l.21,0c.16-.05-.23,0-.06,0h.25c.17,0-.13,0-.12,0s.17,0,.2,0,.12,0,0,0,0,0,0,0l.07,0c.08,0-.13-.13-.09-.07l.06.06c.06,0-.1-.17-.08-.1s0,0,0,.05-.05-.17,0-.11,0,.26,0,.05,0,0,0,0v.07c0,.13,0-.14,0-.14s0,.14,0,.16l0,.08c0,.13,0-.12,0-.12l-.08.14,0,.06c-.06.09.17-.2.07-.1s-.1.12-.12.11.22-.13.13-.1l-.08,0s.23-.07.15-.07l-.07,0c-.1,0,.27,0,.16,0h-.08c-.08,0,.19,0,.17,0s-.25-.1.09,0l.36.36a2.7,2.7,0,0,0-4.69-.07,2.79,2.79,0,0,0,.21,2.75,2.46,2.46,0,0,0,2.78,1,2.74,2.74,0,0,0,2-2.73A1.1,1.1,0,0,0,55,85a1,1,0,0,0-.71-.29,1,1,0,0,0-1,1,1.15,1.15,0,0,1,0,.19s0,.23,0,0,0,0,0,.07-.08.24,0,.07,0,0,0,.07a1,1,0,0,0-.09.13c.07-.17.12-.14,0-.07l0,.06c-.05,0-.11.09-.15.14s.09-.07.09-.07l-.06,0-.16.09-.07,0c-.08,0,.11,0,.11,0s-.13,0-.2.06l-.07,0c-.12,0,.23,0,.11,0h-.24c-.17,0,.12,0,.11,0a.41.41,0,0,1-.18,0c-.2-.05.17.1,0,0l-.12-.06s-.07,0-.08-.06.18.17.11.09a1.59,1.59,0,0,0-.13-.13s-.14-.17,0,0,0,0,0-.06a.75.75,0,0,1-.07-.12c0-.07,0-.16,0,.11l0-.09c0-.1,0-.2-.08-.3s0,.17,0,.15A.25.25,0,0,1,52,86v-.17a.27.27,0,0,0,0-.09c0-.1,0,.17,0,.15a.31.31,0,0,1,0-.13c0-.06,0-.11,0-.16s-.05.16-.05.13,0-.08.05-.1l.07-.12c.05-.1-.09.13-.09.11a.23.23,0,0,1,.07-.07.94.94,0,0,1,.1-.1c.07-.06.09,0-.09.07l.08,0,.12-.07c.13-.07-.24.08-.05,0l.16,0h.07c.09,0-.23,0-.13,0h.4s-.25,0-.15,0l.18,0,.14,0c.1,0-.16-.06-.13-.06s.06,0,.08,0l.13.07.07.05c.12.07-.09-.07-.09-.07s.28.29.15.13,0,0,0,.05a1.42,1.42,0,0,0,.14.23,1.36,1.36,0,0,0,1.16.46,1.94,1.94,0,0,0,1.54-1.06,2.22,2.22,0,0,0,.17-1.76,2,2,0,0,0-1.55-1.29,3,3,0,0,0-3.28,2,2.86,2.86,0,0,0,1,3.36,2.28,2.28,0,0,0,3.2-1,1.87,1.87,0,0,0-.26-2.1,2.11,2.11,0,0,0-2-.58,2.4,2.4,0,0,0-1.63,3.28,3.42,3.42,0,0,0,.61,1,1,1,0,0,0,1,.26,3.24,3.24,0,0,0,2.25-3,3.13,3.13,0,0,0-.09-.92,1.68,1.68,0,0,0-.8-1.17,2,2,0,0,0-1.5.17,2.27,2.27,0,0,0-.83.61,2.32,2.32,0,0,0-.53,2.27A2.41,2.41,0,0,0,53.48,88a2.17,2.17,0,0,0,2.44-2.93A1.93,1.93,0,0,0,54,84a2,2,0,0,0-1.86,1.41,1,1,0,0,0,1.93.54Z" transform="translate(-0.03 -0.01)"/>
        <path class="cls-3" d="M114.46,82.56c.16-.09-.25.08,0,0s-.23,0-.05,0,.16.06-.07,0a.35.35,0,0,0,.14,0c.17,0-.22-.13,0,0a.46.46,0,0,0,.15.09c-.08,0-.18-.15,0,0s.07.08.11.11c-.19-.16-.1-.13,0,0a.41.41,0,0,1,0,.09l0-.12a.19.19,0,0,0,0,.07c0,.11,0,.07,0-.11a.85.85,0,0,0,0,.16c0,.19.06-.21,0,0l0,.1c.06-.14.08-.18,0-.11l-.09.17c-.09.16.15-.16,0,0l-.13.12c-.14.14.18-.1,0,0l-.17.1c-.21.11.18-.05,0,0l-.17,0c-.19,0,.23,0,0,0h-.21l.11,0-.12,0-.18,0c-.2-.06.2.11,0,0l-.17-.09-.1-.06c-.09-.06-.07,0,0,0s-.23-.21-.27-.25,0,0,0,0-.12-.18-.13-.2l.1.77a1,1,0,0,0,.05-.16s-.1.2-.05.12a.93.93,0,0,1,.05-.1s0-.1.08-.14l0-.07c.07-.11,0,0-.06.07s.16-.18.25-.25l.06-.06s-.18.13-.1.08l.16-.11.17-.09s.06,0,.07,0-.21.08-.11,0a3.37,3.37,0,0,1,.34-.1l.1,0s-.23,0-.13,0h.32c.1,0-.13,0-.13,0a.5.5,0,0,0,.13,0l.16,0c.09,0-.12-.06-.12-.06s0,0,.06,0l.13.08.09,0c.09,0-.16-.14-.09-.06s.15.13.22.21-.11-.17,0,0l.09.15a.91.91,0,0,1,.07.14c.06.08,0-.13,0-.13l0,.07c0,.12.06.23.09.34s0-.16,0-.14,0,.06,0,.07a1.08,1.08,0,0,1,0,.18.65.65,0,0,1,0,.14s0-.24,0-.14,0,.07,0,.1a1,1,0,0,1,0,.16c0,.16.11-.19,0-.06s0,.09-.07.13.16-.17,0,0a.57.57,0,0,1-.11.11c-.11.12.19-.12,0,0l-.12.08c-.09,0-.24.06,0,0l-.27.09h-.07c-.1,0,.17,0,.15,0s-.15,0-.19,0h-.21c-.1,0,.17,0,.15,0s-.26-.07-.32-.08.21.1.07,0l-.12-.06s-.2-.14,0,0,0,0,0,0l0,0c-.07-.06.09.11.08.11a.75.75,0,0,0-.07-.12.73.73,0,0,0,0-.09s.07.21.06.13a.84.84,0,0,0,0-.17c0-.15,0,.24,0,.08v-.24s0,.25,0,.14,0-.11,0-.16,0-.09,0-.14c-.08.28,0,.13,0,0l.08-.13c.11-.17-.12.14,0,0l.12-.12s.17-.14,0,0,0,0,0,0,.25-.12.07,0,0,0,0,0,.22,0,0,0,0,0,0,0c.21,0-.21-.06,0,0l.12,0c.1,0-.17,0-.14-.06s.05,0,.05,0,.12,0,.12.07-.18-.16-.12-.1l.06.06a.6.6,0,0,1,.08.08l0,0s-.14-.22-.09-.12l.07.12s.1.21,0,0,0,0,0,0,0,.09,0,.14a.5.5,0,0,1,0,.12c0,.14,0-.27,0-.08a2.61,2.61,0,0,1,0,.28c0,.16,0-.25,0-.1a1583177031505.3,1583177031505.3,0,0,1-.08.28c0,.15.11-.22,0-.09l-.06.11,0,0c0,.09.15-.17.08-.1a.94.94,0,0,1-.1.1c-.14.14.07-.06.08,0l-.12.07-.06,0c-.08,0,.24-.08.08,0l-.14,0c-.16,0,.23,0,.07,0h-.24c-.14,0,.13,0,.13,0S114.06,84,114,84l-.07,0c-.11,0,.21.1.11,0l-.16-.08-.12-.08c-.14-.09.16.15,0,0s-.16-.18-.24-.25.13.19.08.1l0-.06-.09-.15a.33.33,0,0,0,0-.06s.08.21.05.12,0-.11-.05-.16,0,0,0-.07,0,.17,0,.14a.47.47,0,0,1,0-.17s0-.23,0,0a.63.63,0,1,0,0-.07c0-.06,0-.12,0-.17s0,.12,0,.12,0,0,0-.07l.08-.14,0-.06a.56.56,0,1,0-.06.08c.09-.07.16-.18.24-.25l.06,0s-.18.13-.1.08l.18-.12.14-.08s0,0,.07,0l-.12,0,.36-.1.08,0s-.24,0-.14,0h.16s.13,0,.18,0l-.13,0,.1,0,.16,0,.08,0-.1,0,.18.1s.22.16.09.06,0,0,0,.06a1,1,0,0,0,.14.15s-.12-.17-.07-.09a.35.35,0,0,0,0,.08s.12.24,0,.08,0,0,0,.07l0,.11c0,.1,0-.12,0-.12a1,1,0,0,0,0,.17s0,.15,0,0,0,0,0,0a.24.24,0,0,1,0,.08c0,.16,0-.06,0-.08s0,.11-.08.15.14-.14,0,0-.2.17-.07.07l-.08,0c-.14.09.19,0,0,0l-.07,0c-.09,0,.12,0,.13,0h-.09c-.17,0,0,0,.07,0a.5.5,0,0,1-.13,0s.26.11.08,0,.16.15.06,0l-.06-.07c-.11-.1.08.1.07.1s-.06-.1-.07-.12.07.22,0,.07a.83.83,0,0,0,0-.15c0-.08,0,.15,0,.16v-.16c0-.08,0,.16,0,.16a.93.93,0,0,1,0-.13c0,.22-.1.2,0,.12l0-.05c0-.09-.08.13-.09.11l.07-.06a1,1,0,0,0,0-1.41,1,1,0,0,0-1.42,0,2,2,0,0,0,.06,2.81,2,2,0,0,0,3-.19,2.37,2.37,0,0,0,.61-1.6,2.63,2.63,0,0,0-.66-1.6,2.88,2.88,0,0,0-2.82-.92,3.13,3.13,0,0,0-2.09,1.61,2.52,2.52,0,0,0-.27,1.4,2.73,2.73,0,0,0,.62,1.46,2.83,2.83,0,0,0,2.34,1,2.36,2.36,0,0,0,2.08-1.66,2.76,2.76,0,0,0-.32-2.26,2.19,2.19,0,0,0-2.48-1,2.67,2.67,0,0,0-1.77,2,2.35,2.35,0,0,0,1.14,2.54,2.93,2.93,0,0,0,2.66,0,2.51,2.51,0,0,0,1.34-2.27A3.06,3.06,0,0,0,115.83,81,2.9,2.9,0,0,0,113,80.8a3.1,3.1,0,0,0-1,.77,2.09,2.09,0,0,0-.67,1.73,2.23,2.23,0,0,0,.55.84,3.87,3.87,0,0,0,.63.52,2.92,2.92,0,0,0,1.57.5,2.6,2.6,0,0,0,2.49-1.86A2.22,2.22,0,0,0,115,80.68a2,2,0,0,0-1.58.16,1,1,0,0,0-.36,1.36,1,1,0,0,0,1.37.36Z" transform="translate(-0.03 -0.01)"/>
        <path class="cls-3" d="M156.88,84.57a.56.56,0,0,1,0-.12c0-.1.06-.06,0,.15v-.1c0-.12-.05.3,0,.14s-.13.23,0,0l0-.07c-.08.21-.15.17,0,.07l.07-.06c-.16.18-.18.13-.1.08l.18-.1c-.23.14-.2.07-.1.05l.1,0,.08,0c.22,0-.15,0-.08,0h.19c.18,0-.26-.06-.1,0l.08,0c.15,0,0,.08-.08,0l.07,0s.15.11,0,0,0,0,0,0-.13-.2-.06-.07a.41.41,0,0,1,.07.11c.07.1,0,.13,0-.08a.38.38,0,0,0,0,.1.4.4,0,0,1,0,.15s0-.28,0-.11,0,.21,0,.31c0-.22,0-.19,0-.1l0,.15c0,.06-.12.3,0,.14s0,.09-.07.13l-.09.14c0,.07-.16.19,0,0l-.19.21-.08.07,0,0,.08-.06a1.37,1.37,0,0,0-.2.13l-.12.06c-.17.09.23-.08,0,0l-.26.07-.1,0c-.2,0,.26,0,.05,0h-.36c.26,0,.17,0,.07,0l-.15,0c-.08,0-.06-.08.11,0l-.21-.12c.21.11.14.12.09.06l-.11-.11s.12.21.07.08l-.06-.12.05.11s-.05-.18-.06-.2,0,.06,0,.06,0-.3,0-.34,0,.08,0,.1a1.22,1.22,0,0,0,0-.17,2.81,2.81,0,0,1,.1-.31c0-.13-.12.23,0,0a.47.47,0,0,0,.05-.1l.15-.25s.13-.19,0,0l0,0a2.39,2.39,0,0,1,.23-.22c.1-.09.1,0-.05,0a.5.5,0,0,0,.12-.08l.23-.12c.18-.1-.23.07,0,0l.1,0,.14,0c.24,0-.21,0,0,0H157c.13,0-.26-.06-.08,0l.11,0a.88.88,0,0,0,.15,0l-.09,0,.28.17c.13.08-.07-.05-.08-.06a.69.69,0,0,0,.13.11s.19.24.1.1.05.08.07.12a1,1,0,0,1,.08.14c.09.16-.07-.22,0,0a1.82,1.82,0,0,1,.07.25c0,.09,0,.09,0-.11a.76.76,0,0,0,0,.15s0,.08,0,.11c0-.2,0-.21,0-.09l0,.13c-.05.19.1-.19,0-.06a1.18,1.18,0,0,1-.11.19c.16-.26.08-.1,0,0l-.07.06c.21-.2.16-.11.09-.07l-.21.11c.29-.16.09,0,0,0l-.21,0c.34-.07.12,0,0,0h-.22c.37,0,.08,0,0,0l-.08,0c.29.07.15.07,0,0l-.07,0c-.14-.07.18.17.07.06a.76.76,0,0,0-.09-.09c-.11-.09.14.22.06.08l0-.08c-.11-.19,0,.16,0,.06a.65.65,0,0,0,0-.13c0-.08,0-.08,0,0s0,.1,0,0v-.14c0-.24-.05.21,0,0l0-.11,0-.1c-.06.14-.08.17-.05.1a2.4,2.4,0,0,0,.16-.27c-.09.19-.1.13,0,0a.93.93,0,0,1,.14-.14c.07-.08.07,0-.07,0a.71.71,0,0,0,.14-.1l.06,0c.1,0,.08,0-.06,0a.6.6,0,0,1,.19-.06l.13,0c.2,0-.23,0,0,0s.25,0,.37,0-.22,0,0,0l.2,0,.13,0c.06,0,.35.13.08,0l-.46-1.13c-.06.26-.11.53-.19.79a1.59,1.59,0,0,1-.07.2s-.08.21,0,.06,0,.07-.05.1a.64.64,0,0,1-.08.14l-.07.11.07-.09a1.54,1.54,0,0,0-.12.13c-.06.07-.18.12,0,0l-.14.09s-.12,0-.15.08.22-.08.05,0l-.16,0c-.09,0,.26,0,0,0h-.14c.18,0,.21,0,.11,0l0,0c-.19,0,.21.1,0,0s.16.15.05,0,.14.21,0,.07,0-.15,0,.09l0-.1c0-.09,0,.3,0,.1,0,0,0-.07,0-.1,0,.26,0,.21,0,.1s0-.08,0-.12c-.06.27-.08.17,0,.09s-.18.2-.06.08-.23.14-.09.06-.22.09-.11,0-.26,0-.09,0a1,1,0,0,0,0-2A1.71,1.71,0,0,0,155,85.15,1.81,1.81,0,0,0,156.36,87a2.45,2.45,0,0,0,2.37-.71,4.69,4.69,0,0,0,1-2.29,1,1,0,0,0-.46-1.13,3.79,3.79,0,0,0-2.25-.31,2.74,2.74,0,0,0-1.78,1.16,2.34,2.34,0,0,0,.63,3.36,2.73,2.73,0,0,0,3.08-.36,2.49,2.49,0,0,0,.19-3.29,3,3,0,0,0-1.6-1.16,2.86,2.86,0,0,0-2,.21,3.46,3.46,0,0,0-1.92,3.07A2.32,2.32,0,0,0,156.3,88a3.25,3.25,0,0,0,1.8-.75,3.32,3.32,0,0,0,1-1.53,2.32,2.32,0,0,0-1.46-3,2.28,2.28,0,0,0-2.71,1.49,1.71,1.71,0,0,0,0,.95,1,1,0,1,0,1.93-.53Z" transform="translate(-0.03 -0.01)"/>
        <path class="cls-3" d="M188,84.52l.16.12c-.05,0,0,0,0,.06s.06.08,0,0l.1.24a.19.19,0,0,1,0-.07l0,.26v-.1l0,.26a.5.5,0,0,1,0-.13l-.1.24.06-.11c.05-.08,0,0-.1.13l0,0s0,0,0,0l-.13.1a.93.93,0,0,0,.1,0l-.24.1.14,0-.27,0h.11l-.27,0,.07,0-.23-.1c.08,0,.09.1-.12-.09.1.09-.14-.23-.07-.09l-.1-.24v0l0-.27s0,.05,0,.07l0-.27a.14.14,0,0,1,0,.07l.1-.24,0,.07c.12-.15.15-.19.08-.12.22-.21.12-.09,0,0l.24-.1a.73.73,0,0,1-.21.06l.27,0h-.2l.27,0a1,1,0,0,1-.29-.08l.24.1-.22-.13c.25.15.16.13.09.07l-.09-.09c-.07-.07-.12-.2.05.07l-.07-.09-.12-.24.1.24a1.69,1.69,0,0,1-.12-.44l0,.27a1.15,1.15,0,0,1,0-.37l0,.26a2,2,0,0,1,.09-.35l-.1.24c0-.07.07-.12.1-.18s0,.09-.08.1a.65.65,0,0,0,.08-.09s.14-.11,0,0-.05,0,0,0l.19-.1-.24.1a1.19,1.19,0,0,1,.36-.09l-.27,0a2,2,0,0,1,.42,0l-.27,0a1.69,1.69,0,0,1,.44.12l-.24-.1a1.34,1.34,0,0,1,.24.12s.18.13,0,0,0,0,0,0a.6.6,0,0,1,.08.08c.15.16-.12-.19,0-.06a1.67,1.67,0,0,1,.12.23l-.1-.24a1.09,1.09,0,0,1,.08.31l0-.26a1.07,1.07,0,0,1,0,.31l0-.27a1.66,1.66,0,0,1-.11.38l.1-.24a1.43,1.43,0,0,1-.15.27c-.09.15.17-.18.05-.06l-.11.12s-.09.1-.12.1.23-.16.06,0l-.28.14.24-.1a1.6,1.6,0,0,1-.39.11l.27,0a1,1,0,0,1-.35,0l.26,0-.17,0,.69.7a2.44,2.44,0,0,1-.06-.26l0,.26a1.15,1.15,0,0,1,0-.37l0,.26a1.9,1.9,0,0,1,.11-.39l-.1.24a1.74,1.74,0,0,1,.18-.33c.13-.19-.16.19,0,0a.86.86,0,0,1,.13-.14s.13-.09.15-.13l-.11.08.08-.06a2,2,0,0,1,.36-.19l-.24.1a2.46,2.46,0,0,1,.51-.15l-.26,0a1.7,1.7,0,0,1,.45,0l-.27,0a2.42,2.42,0,0,1,.36.1l-.24-.1a1.83,1.83,0,0,1,.3.18l-.46-1.13a2.19,2.19,0,0,1-.12.33l.1-.24a3.37,3.37,0,0,1-.3.56l-.09.12c-.1.15.17-.2,0,0l-.21.24-.22.2-.08.06c.13-.1.17-.12.1-.08l-.14.1a3.37,3.37,0,0,1-.56.3l.24-.1a3.45,3.45,0,0,1-.42.14l1.26,1a3,3,0,0,1,0-.52l0,.26a2.73,2.73,0,0,1,.18-.68l-.1.24a4,4,0,0,1,.24-.46.36.36,0,0,0,.07-.1c.1-.13,0,.06,0,.07s.12-.14.17-.19a1.29,1.29,0,0,1,.17-.16l.09-.08c-.21.2-.12.09,0,0a3.37,3.37,0,0,1,.46-.25l-.24.1a4,4,0,0,1,.49-.15l-1.23-1.23a2,2,0,0,1-.13.41l.1-.24a2.13,2.13,0,0,1-.23.42.35.35,0,0,1-.05.08c.15-.24.1-.13.05-.07a1.29,1.29,0,0,1-.16.17,1.14,1.14,0,0,1-.16.15c-.13.12.16-.11.07-.05l-.09.07a4.36,4.36,0,0,1-.42.23l.24-.11a2.41,2.41,0,0,1-.65.18l.27,0h0l.86.5-.07-.15.1.24a1.48,1.48,0,0,1-.1-.36l0,.27a2.41,2.41,0,0,1,0-.38l0,.27a1.09,1.09,0,0,1,.08-.31l-.1.24,0-.05-.87.49,1.07,0a1,1,0,0,0,0-2l-1.07,0a1,1,0,0,0-.86.5,2.56,2.56,0,0,0-.25,1.13,2.46,2.46,0,0,0,.32,1.12,1,1,0,0,0,.86.49,4,4,0,0,0,1.22-.33,3.34,3.34,0,0,0,.86-.58,3.39,3.39,0,0,0,1.06-1.76,1,1,0,0,0-.26-1,1,1,0,0,0-1-.26,3.75,3.75,0,0,0-2.88,3.81,1,1,0,0,0,.4.78.94.94,0,0,0,.87.18,4.46,4.46,0,0,0,3.08-3,1,1,0,0,0-.05-.65,1.12,1.12,0,0,0-.41-.48,2.51,2.51,0,0,0-2.39-.23,3.2,3.2,0,0,0-1.85,1.84,2.36,2.36,0,0,0-.08,1.34,1.08,1.08,0,0,0,.85.92,2.59,2.59,0,0,0,1,0,2.66,2.66,0,0,0,2-1.94A2.3,2.3,0,0,0,189,81.83a2.58,2.58,0,0,0-2.55,0,2.3,2.3,0,0,0-1,2.53,2.44,2.44,0,0,0,1.72,1.83,1.69,1.69,0,0,0,1.9-.77,1.26,1.26,0,0,0-.21-1.47,1.36,1.36,0,0,0-1-.41,1.64,1.64,0,0,0-1.39.86,1.61,1.61,0,0,0-.2.8,1.39,1.39,0,0,0,.65,1.09,1,1,0,0,0,.77.1,1,1,0,0,0,.6-.46,1,1,0,0,0-.36-1.37Z" transform="translate(-0.03 -0.01)"/>
      </g>
    </g>
  </g>
</svg>
