<svg xmlns="http://www.w3.org/2000/svg" viewBox="0 0 247.37 184.53">
  <defs>
    <style>
      .cls-1 {
        fill: #808285;
      }

      .cls-2 {
        fill: #ed1c24;
      }
    </style>
  </defs>
  <title>Asset 1</title>
  <g id="Layer_2" data-name="Layer 2">
    <g id="Layer_1-2" data-name="Layer 1">
      <g>
        <path class="cls-1" d="M10,82.45c-1.73,1.43-3.42,2.92-5,4.46q-1.22,1.17-2.4,2.37A12.92,12.92,0,0,0,.45,91.69c-1,1.85,0,3.61,1.75,4.43.86.4,1.77.68,2.65,1s1.88.86,2.78,1.35a32.49,32.49,0,0,1,5.79,4c1,.84,2.38-.57,1.41-1.41a34.66,34.66,0,0,0-9.83-6c-.79-.32-3.47-.88-2.91-2.21A8.12,8.12,0,0,1,4,90.69c.71-.72,1.42-1.42,2.15-2.12,1.71-1.64,3.48-3.2,5.3-4.71,1-.81-.42-2.22-1.41-1.41Z" transform="translate(-0.03)"/>
        <path class="cls-1" d="M235.42,90.05,241.67,94c.92.58,1.86,1.12,2.75,1.74.72.52,1.29,1,.7,1.89A12.68,12.68,0,0,1,243,99.73a24.86,24.86,0,0,1-2.23,1.75,31.45,31.45,0,0,1-5.59,3.1,1,1,0,0,0-.36,1.37,1,1,0,0,0,1.37.36,30.62,30.62,0,0,0,9.12-6c1.27-1.22,2.77-2.83,1.78-4.68a5.46,5.46,0,0,0-1.9-1.83c-.86-.57-1.74-1.09-2.6-1.64l-6.15-3.85c-1.1-.68-2.1,1.05-1,1.73Z" transform="translate(-0.03)"/>
        <path class="cls-1" d="M2.16,94.82c20,1.42,40.13,2.16,60.21,1.63,13.83-.36,27.6-1.73,41.44-2.1,15.42-.41,30.92-.48,46.33.27,5,.25,9.55.95,14.48,1.21,8.26.44,16.54.46,24.81.46,7.17,0,14.25.74,21.4,1.13,8.43.46,16.87.56,25.3.51q4.32,0,8.64-.11a1,1,0,0,0,0-2c-9.69.17-19.39.2-29.08-.17-6.68-.26-13.33-1.05-20-1.3-8.37-.3-16.76,0-25.14-.28-3.65-.11-7.31-.22-11-.61-1.9-.21-3.78-.48-5.69-.61-14.59-1-29.33-.88-43.94-.63-7.65.13-15.3.34-22.93.88-6.45.46-12.89.94-19.35,1.18-18.86.72-37.75.25-56.59-.87q-4.47-.27-8.94-.59c-1.28-.09-1.27,1.91,0,2Z" transform="translate(-0.03)"/>
      </g>
      <g>
        <path class="cls-1" d="M108.36,23.33a52.66,52.66,0,0,1,5.92-8.59,27.06,27.06,0,0,1,1.84-2.15c.18-.19.34-.39.54-.24s.39.74.51,1c.68,1.51,1.5,2.95,2.27,4.42a41.57,41.57,0,0,1,2.55,5.4c.43,1.21,2.37.69,1.93-.53-1.33-3.68-3.53-6.94-5.11-10.5a2.69,2.69,0,0,0-2-1.87c-1.18-.11-2,.77-2.69,1.6-1.3,1.55-2.6,3.1-3.82,4.71a46.89,46.89,0,0,0-3.63,5.73c-.61,1.13,1.11,2.14,1.73,1Z" transform="translate(-0.03)"/>
        <path class="cls-1" d="M105.5,168.75a44.7,44.7,0,0,0,8.86,15.48,1,1,0,0,0,1.67-.45,38.13,38.13,0,0,1,7.17-12.6c.84-1-.57-2.4-1.41-1.42a40.62,40.62,0,0,0-7.69,13.49l1.68-.44a42.06,42.06,0,0,1-8.35-14.59c-.4-1.21-2.33-.69-1.93.53Z" transform="translate(-0.03)"/>
        <path class="cls-1" d="M115.52,12.37l-.93,65.95c-.31,22.09-.63,44.18-.79,66.27q-.14,18.61-.08,37.22a1,1,0,0,0,2,0c-.08-22.11.1-44.22.37-66.33s.6-44,.9-66l.53-37.08a1,1,0,0,0-2,0Z" transform="translate(-0.03)"/>
      </g>
      <g>
        <path class="cls-2" d="M20.8,151.1A176.17,176.17,0,0,0,9.38,174.89c-.44,1.13-.86,2.26-1.28,3.39L7.47,180c-.11.29-.21.58-.31.88l-.12.33c-.11.32-.12.23,0,.2l.5-.14,0,0,.6.46,0,.63-.36.36,0,0-.51.13H7.4l-.71-.3,0,.06c.88.94,2.29-.47,1.42-1.41s-2.22.17-1.9,1.26a1.18,1.18,0,0,0,1.36.8,1.75,1.75,0,0,0,1.25-1.23c1-2.49,1.8-5,2.78-7.51,1.95-4.92,4.14-9.74,6.53-14.44q2.07-4.06,4.34-8a1,1,0,0,0-1.72-1Z" transform="translate(-0.03)"/>
        <path class="cls-2" d="M2.19,171.48a1.13,1.13,0,0,0,.74-1.95,1.2,1.2,0,0,0-2,1,3.55,3.55,0,0,0,.39,1.3l.64,1.6,1.23,3.09,1.22,3.09c.4,1,.74,2.05,1.22,3a2.52,2.52,0,0,0,2.17,1.47,6.13,6.13,0,0,0,2.81-.93l6.82-3.32c1.15-.56.14-2.29-1-1.72l-5.28,2.57c-.84.4-1.66.87-2.53,1.22-.24.1-.69.3-.95.13s-.35-.55-.45-.79c-.75-1.82-1.46-3.66-2.19-5.49L3.92,173l-.54-1.38-.28-.68L3,170.58c-.05-.18-.06-.19-.05,0l-.26.44.09-.09-.44.25.08,0H1.86l.07,0-.44-.26-.07-.06-.13-.5v.07l.14-.5,0,.05.87-.5H2.19c-1.28.06-1.29,2.07,0,2Z" transform="translate(-0.03)"/>
      </g>
      <g>
        <path class="cls-2" d="M227.64,26.48l.06.08-.1-.77,0,.09.26-.44.34-.14.5.14-.09-.07.36.36-.07-.14.13.5c0-.38.41-1,.59-1.36s.47-.95.71-1.42c.51-1,1-2,1.58-3,1.1-2,2.26-4,3.48-6a115,115,0,0,1,7.92-11.17,1,1,0,0,0,0-1.42,1,1,0,0,0-1.42,0,118.5,118.5,0,0,0-14.1,22.19c-.44.91-1.37,2.41-.19,3.18,1,.66,2.53-.51,1.79-1.63s-2.44-.07-1.73,1Z" transform="translate(-0.03)"/>
        <path class="cls-2" d="M230.85,8.73l6.69-3.87L240.77,3l.87-.5a4.63,4.63,0,0,0,.83-.47c-.21-.13-.29-.14-.22,0a.67.67,0,0,1,.09.21c.1.25.16.51.24.77a17.83,17.83,0,0,1,.53,7c-.11.92-.05,2.27,1.22,2.27s1.81-1.71.67-2.28-2.17,1.16-1,1.73l.08,0-.46-.59,0,.07v-.53l.08-.18.44-.26-.1,0h.53l-.1,0,.44.26c.08.27.11.3.1.07s0-.24.05-.37.06-.46.08-.69c.05-.54.08-1.08.08-1.62A19.85,19.85,0,0,0,245,4.58c-.24-1.49-.69-5.13-3-4.51a6.37,6.37,0,0,0-1.47.75L239,1.69l-3,1.75L229.84,7a1,1,0,0,0,1,1.73Z" transform="translate(-0.03)"/>
      </g>
    </g>
  </g>
</svg>
