<?xml version="1.0" encoding="utf-8" standalone="no"?>
<!DOCTYPE svg PUBLIC "-//W3C//DTD SVG 1.1//EN"
  "http://www.w3.org/Graphics/SVG/1.1/DTD/svg11.dtd">
<!-- Created with matplotlib (http://matplotlib.org/) -->
<svg height="280.8pt" version="1.1" viewBox="0 0 424.8 280.8" width="424.8pt" xmlns="http://www.w3.org/2000/svg" xmlns:xlink="http://www.w3.org/1999/xlink">
 <defs>
  <style type="text/css">
*{stroke-linecap:butt;stroke-linejoin:round;}
  </style>
 </defs>
 <g id="figure_1">
  <g id="patch_1">
   <path d="M 0 280.8 
L 424.8 280.8 
L 424.8 0 
L 0 0 
z
" style="fill:#ffffff;"/>
  </g>
  <g id="axes_1">
   <g id="patch_2">
    <path d="M 10.7 270.1 
L 414.1 270.1 
L 414.1 10.7 
L 10.7 10.7 
z
" style="fill:#ffffff;"/>
   </g>
   <g id="matplotlib.axis_1">
    <g id="xtick_1">
     <g id="line2d_1">
      <defs>
       <path d="M 0 0 
L 0 3.5 
" id="mad9e864ab7" style="stroke:#808080;stroke-width:0.8;"/>
      </defs>
      <g>
       <use style="fill:#808080;stroke:#808080;stroke-width:0.8;" x="18.457692" xlink:href="#mad9e864ab7" y="140.4"/>
      </g>
     </g>
     <g id="text_1">
      <!-- -4 -->
      <defs>
       <path d="M 4.890625 31.390625 
L 31.203125 31.390625 
L 31.203125 23.390625 
L 4.890625 23.390625 
z
" id="DejaVuSans-2d"/>
       <path d="M 37.796875 64.3125 
L 12.890625 25.390625 
L 37.796875 25.390625 
z
M 35.203125 72.90625 
L 47.609375 72.90625 
L 47.609375 25.390625 
L 58.015625 25.390625 
L 58.015625 17.1875 
L 47.609375 17.1875 
L 47.609375 0 
L 37.796875 0 
L 37.796875 17.1875 
L 4.890625 17.1875 
L 4.890625 26.703125 
z
" id="DejaVuSans-34"/>
      </defs>
      <g transform="translate(9.484411 161.077188)scale(0.18 -0.18)">
       <use xlink:href="#DejaVuSans-2d"/>
       <use x="36.083984" xlink:href="#DejaVuSans-34"/>
      </g>
     </g>
    </g>
    <g id="xtick_2">
     <g id="line2d_2">
      <g>
       <use style="fill:#808080;stroke:#808080;stroke-width:0.8;" x="73.86978" xlink:href="#mad9e864ab7" y="140.4"/>
      </g>
     </g>
     <g id="text_2">
      <!-- -3 -->
      <defs>
       <path d="M 40.578125 39.3125 
Q 47.65625 37.796875 51.625 33 
Q 55.609375 28.21875 55.609375 21.1875 
Q 55.609375 10.40625 48.1875 4.484375 
Q 40.765625 -1.421875 27.09375 -1.421875 
Q 22.515625 -1.421875 17.65625 -0.515625 
Q 12.796875 0.390625 7.625 2.203125 
L 7.625 11.71875 
Q 11.71875 9.328125 16.59375 8.109375 
Q 21.484375 6.890625 26.8125 6.890625 
Q 36.078125 6.890625 40.9375 10.546875 
Q 45.796875 14.203125 45.796875 21.1875 
Q 45.796875 27.640625 41.28125 31.265625 
Q 36.765625 34.90625 28.71875 34.90625 
L 20.21875 34.90625 
L 20.21875 43.015625 
L 29.109375 43.015625 
Q 36.375 43.015625 40.234375 45.921875 
Q 44.09375 48.828125 44.09375 54.296875 
Q 44.09375 59.90625 40.109375 62.90625 
Q 36.140625 65.921875 28.71875 65.921875 
Q 24.65625 65.921875 20.015625 65.03125 
Q 15.375 64.15625 9.8125 62.3125 
L 9.8125 71.09375 
Q 15.4375 72.65625 20.34375 73.4375 
Q 25.25 74.21875 29.59375 74.21875 
Q 40.828125 74.21875 47.359375 69.109375 
Q 53.90625 64.015625 53.90625 55.328125 
Q 53.90625 49.265625 50.4375 45.09375 
Q 46.96875 40.921875 40.578125 39.3125 
z
" id="DejaVuSans-33"/>
      </defs>
      <g transform="translate(64.896499 161.077188)scale(0.18 -0.18)">
       <use xlink:href="#DejaVuSans-2d"/>
       <use x="36.083984" xlink:href="#DejaVuSans-33"/>
      </g>
     </g>
    </g>
    <g id="xtick_3">
     <g id="line2d_3">
      <g>
       <use style="fill:#808080;stroke:#808080;stroke-width:0.8;" x="129.281868" xlink:href="#mad9e864ab7" y="140.4"/>
      </g>
     </g>
     <g id="text_3">
      <!-- -2 -->
      <defs>
       <path d="M 19.1875 8.296875 
L 53.609375 8.296875 
L 53.609375 0 
L 7.328125 0 
L 7.328125 8.296875 
Q 12.9375 14.109375 22.625 23.890625 
Q 32.328125 33.6875 34.8125 36.53125 
Q 39.546875 41.84375 41.421875 45.53125 
Q 43.3125 49.21875 43.3125 52.78125 
Q 43.3125 58.59375 39.234375 62.25 
Q 35.15625 65.921875 28.609375 65.921875 
Q 23.96875 65.921875 18.8125 64.3125 
Q 13.671875 62.703125 7.8125 59.421875 
L 7.8125 69.390625 
Q 13.765625 71.78125 18.9375 73 
Q 24.125 74.21875 28.421875 74.21875 
Q 39.75 74.21875 46.484375 68.546875 
Q 53.21875 62.890625 53.21875 53.421875 
Q 53.21875 48.921875 51.53125 44.890625 
Q 49.859375 40.875 45.40625 35.40625 
Q 44.1875 33.984375 37.640625 27.21875 
Q 31.109375 20.453125 19.1875 8.296875 
z
" id="DejaVuSans-32"/>
      </defs>
      <g transform="translate(120.308587 161.077188)scale(0.18 -0.18)">
       <use xlink:href="#DejaVuSans-2d"/>
       <use x="36.083984" xlink:href="#DejaVuSans-32"/>
      </g>
     </g>
    </g>
    <g id="xtick_4">
     <g id="line2d_4">
      <g>
       <use style="fill:#808080;stroke:#808080;stroke-width:0.8;" x="184.693956" xlink:href="#mad9e864ab7" y="140.4"/>
      </g>
     </g>
     <g id="text_4">
      <!-- -1 -->
      <defs>
       <path d="M 12.40625 8.296875 
L 28.515625 8.296875 
L 28.515625 63.921875 
L 10.984375 60.40625 
L 10.984375 69.390625 
L 28.421875 72.90625 
L 38.28125 72.90625 
L 38.28125 8.296875 
L 54.390625 8.296875 
L 54.390625 0 
L 12.40625 0 
z
" id="DejaVuSans-31"/>
      </defs>
      <g transform="translate(175.720675 161.077188)scale(0.18 -0.18)">
       <use xlink:href="#DejaVuSans-2d"/>
       <use x="36.083984" xlink:href="#DejaVuSans-31"/>
      </g>
     </g>
    </g>
    <g id="xtick_5">
     <g id="line2d_5">
      <g>
       <use style="fill:#808080;stroke:#808080;stroke-width:0.8;" x="240.106044" xlink:href="#mad9e864ab7" y="140.4"/>
      </g>
     </g>
    </g>
    <g id="xtick_6">
     <g id="line2d_6">
      <g>
       <use style="fill:#808080;stroke:#808080;stroke-width:0.8;" x="295.518132" xlink:href="#mad9e864ab7" y="140.4"/>
      </g>
     </g>
     <g id="text_5">
      <!-- 1 -->
      <g transform="translate(289.791882 161.077188)scale(0.18 -0.18)">
       <use xlink:href="#DejaVuSans-31"/>
      </g>
     </g>
    </g>
    <g id="xtick_7">
     <g id="line2d_7">
      <g>
       <use style="fill:#808080;stroke:#808080;stroke-width:0.8;" x="350.93022" xlink:href="#mad9e864ab7" y="140.4"/>
      </g>
     </g>
     <g id="text_6">
      <!-- 2 -->
      <g transform="translate(345.20397 161.077188)scale(0.18 -0.18)">
       <use xlink:href="#DejaVuSans-32"/>
      </g>
     </g>
    </g>
    <g id="xtick_8">
     <g id="line2d_8">
      <g>
       <use style="fill:#808080;stroke:#808080;stroke-width:0.8;" x="406.342308" xlink:href="#mad9e864ab7" y="140.4"/>
      </g>
     </g>
     <g id="text_7">
      <!-- 3 -->
      <g transform="translate(400.616058 161.077188)scale(0.18 -0.18)">
       <use xlink:href="#DejaVuSans-33"/>
      </g>
     </g>
    </g>
   </g>
   <g id="matplotlib.axis_2"/>
   <g id="patch_3">
    <path d="M 240.106044 270.1 
L 240.106044 10.7 
" style="fill:none;stroke:#808080;stroke-linecap:square;stroke-linejoin:miter;stroke-width:2;"/>
   </g>
   <g id="patch_4">
    <path d="M 10.7 140.4 
L 414.1 140.4 
" style="fill:none;stroke:#808080;stroke-linecap:square;stroke-linejoin:miter;stroke-width:2;"/>
   </g>
   <g id="line2d_9">
    <path clip-path="url(#pfc9006fac6)" d="M 67.168309 281.8 
L 69.797908 254.156005 
L 72.563677 227.215375 
L 75.316028 202.485246 
L 78.11212 179.39206 
L 80.894337 158.351424 
L 83.582405 139.773417 
L 86.228355 123.08785 
L 88.608018 109.376161 
L 91.041439 96.564845 
L 93.576647 84.459111 
L 95.783091 74.906637 
L 98.258376 65.227425 
L 100.519127 57.300014 
L 102.841758 50.018321 
L 104.827075 44.454311 
L 106.935059 39.180735 
L 109.086172 34.440434 
L 111.002724 30.736003 
L 112.951881 27.445589 
L 115.009995 24.467443 
L 116.634968 22.458571 
L 118.387087 20.614695 
L 119.98968 19.207465 
L 121.464936 18.137104 
L 123.30958 17.087661 
L 124.966643 16.404946 
L 126.627578 15.954287 
L 128.323358 15.722434 
L 130.144899 15.715406 
L 132.063703 15.961954 
L 134.095475 16.487116 
L 136.215202 17.302152 
L 138.471268 18.44346 
L 141.003111 20.027338 
L 143.487478 21.858255 
L 146.514408 24.409766 
L 149.831181 27.544088 
L 153.13453 30.945922 
L 158.238421 36.590806 
L 177.266154 58.278053 
L 181.59764 62.673281 
L 185.353355 66.16136 
L 189.044175 69.247167 
L 192.001599 71.447642 
L 195.393328 73.648068 
L 197.906206 75.042555 
L 200.953218 76.451546 
L 203.614562 77.420851 
L 205.874062 78.047689 
L 208.376469 78.528138 
L 211.061031 78.790914 
L 213.39031 78.805754 
L 215.452949 78.65344 
L 217.967812 78.258346 
L 220.655545 77.584156 
L 223.029271 76.775577 
L 225.388826 75.777786 
L 227.867758 74.526543 
L 231.043035 72.630989 
L 233.884625 70.668951 
L 237.47775 67.852422 
L 238.958154 66.590188 
L 238.958154 66.590188 
" style="fill:none;stroke:#ff0000;stroke-linecap:square;stroke-width:5;"/>
   </g>
   <g id="line2d_10">
    <path clip-path="url(#pfc9006fac6)" d="M 242.113814 63.717676 
L 246.035519 59.838874 
L 250.811548 54.736234 
L 256.41239 48.382555 
L 270.292415 32.425507 
L 274.254725 28.258241 
L 277.368115 25.244373 
L 280.625434 22.408368 
L 283.668757 20.115367 
L 286.109348 18.568511 
L 288.210824 17.472522 
L 290.330613 16.611719 
L 292.26817 16.05961 
L 294.044979 15.766391 
L 295.729512 15.690099 
L 297.656806 15.859989 
L 299.131132 16.186602 
L 300.992879 16.857457 
L 302.620367 17.693251 
L 304.448551 18.925406 
L 306.108217 20.327003 
L 307.555349 21.779821 
L 309.428154 23.994518 
L 311.265998 26.552693 
L 313.205355 29.686986 
L 315.34934 33.699047 
L 317.310095 37.897379 
L 319.290949 42.678195 
L 321.132808 47.632822 
L 323.406872 54.45967 
L 325.732241 62.291462 
L 327.892838 70.37831 
L 329.96052 78.882695 
L 332.405827 89.951709 
L 334.757828 101.681219 
L 337.212404 115.109414 
L 339.705436 130.047991 
L 342.317099 147.169756 
L 344.801919 164.923938 
L 347.274742 184.074009 
L 350.090327 207.759924 
L 352.749915 232.05694 
L 355.4597 258.821994 
L 357.63164 281.8 
L 357.63164 281.8 
" style="fill:none;stroke:#ff0000;stroke-linecap:square;stroke-width:5;"/>
   </g>
  </g>
 </g>
 <defs>
  <clipPath id="pfc9006fac6">
   <rect height="259.4" width="403.4" x="10.7" y="10.7"/>
  </clipPath>
 </defs>
</svg>
