<svg xmlns="http://www.w3.org/2000/svg" viewBox="0 0 261.57 160.28">
  <defs>
    <style>
      .cls-1 {
        fill: #808285;
      }

      .cls-2 {
        fill: #ed1c24;
      }

      .cls-3 {
        fill: #231f20;
      }
    </style>
  </defs>
  <title>Asset 4</title>
  <g id="Layer_2" data-name="Layer 2">
    <g id="Layer_1-2" data-name="Layer 1">
      <g>
        <path class="cls-1" d="M19.19,74.65c-1.73,1.43-3.42,2.92-5.05,4.47q-1.21,1.16-2.4,2.37A12.32,12.32,0,0,0,9.65,83.9c-1.05,1.85,0,3.6,1.75,4.43.86.4,1.77.68,2.65,1s1.88.85,2.78,1.34a32.54,32.54,0,0,1,5.79,4c1,.84,2.38-.57,1.41-1.42a34.89,34.89,0,0,0-9.83-6c-.79-.32-3.47-.88-2.91-2.21a8.23,8.23,0,0,1,1.86-2.18c.71-.72,1.42-1.43,2.15-2.13q2.57-2.44,5.31-4.7c1-.82-.43-2.23-1.42-1.42Z" transform="translate(-0.07 -2.08)"/>
        <path class="cls-1" d="M244.62,82.25l6.25,3.92c.92.57,1.86,1.12,2.75,1.74.73.51,1.29,1,.7,1.88a13.13,13.13,0,0,1-2.13,2.15A26.81,26.81,0,0,1,250,93.69a32.09,32.09,0,0,1-5.59,3.1,1,1,0,0,0-.36,1.37,1,1,0,0,0,1.37.35,30.62,30.62,0,0,0,9.12-6c1.27-1.21,2.77-2.83,1.78-4.68a5.55,5.55,0,0,0-1.9-1.83c-.86-.56-1.74-1.09-2.6-1.63l-6.15-3.85c-1.1-.69-2.1,1-1,1.72Z" transform="translate(-0.07 -2.08)"/>
        <path class="cls-1" d="M11.36,87c20,1.42,40.13,2.15,60.21,1.63,13.83-.36,27.6-1.74,41.44-2.1,15.42-.41,30.92-.49,46.33.27,4.95.24,9.55,1,14.48,1.21,8.26.43,16.54.45,24.81.46,7.17,0,14.25.73,21.4,1.13,8.43.46,16.87.55,25.3.5q4.32,0,8.64-.1a1,1,0,0,0,0-2c-9.69.17-19.39.19-29.08-.18-6.68-.26-13.33-1-20-1.29-8.37-.3-16.76,0-25.14-.29-3.65-.11-7.31-.21-10.95-.61-1.9-.2-3.78-.47-5.69-.61-14.59-1-29.33-.88-43.94-.63-7.65.13-15.3.35-22.93.89-6.45.45-12.89.93-19.35,1.18-18.86.71-37.75.25-56.58-.88q-4.48-.27-8.95-.58c-1.28-.09-1.27,1.91,0,2Z" transform="translate(-0.07 -2.08)"/>
      </g>
      <g>
        <path class="cls-1" d="M107.68,23.92a52.23,52.23,0,0,1,5.92-8.59c.6-.72,1.17-1.5,1.84-2.16.18-.18.34-.38.54-.24s.39.75.51,1c.68,1.5,1.5,2.95,2.27,4.41a41,41,0,0,1,2.55,5.41c.43,1.2,2.37.69,1.93-.53-1.33-3.68-3.53-6.94-5.11-10.5a2.66,2.66,0,0,0-2-1.87c-1.17-.11-2,.77-2.69,1.59-1.3,1.55-2.6,3.1-3.82,4.72A45.41,45.41,0,0,0,106,22.91c-.61,1.13,1.11,2.14,1.73,1Z" transform="translate(-0.07 -2.08)"/>
        <path class="cls-1" d="M104.52,146.59a44.66,44.66,0,0,0,8.86,15.47,1,1,0,0,0,1.67-.44A38.07,38.07,0,0,1,122.22,149c.84-1-.57-2.39-1.41-1.41a40.42,40.42,0,0,0-7.69,13.49l1.68-.44a42.24,42.24,0,0,1-8.35-14.59c-.4-1.22-2.33-.7-1.93.53Z" transform="translate(-0.07 -2.08)"/>
        <path class="cls-1" d="M114.84,13.33l-.93,56.6c-.31,19-.63,37.91-.79,56.87q-.14,16-.08,32a1,1,0,0,0,2,0c-.08-19,.1-37.95.37-56.93s.6-37.78.91-56.66l.52-31.83a1,1,0,0,0-2,0Z" transform="translate(-0.07 -2.08)"/>
      </g>
      <g>
        <path class="cls-2" d="M21,149.25c4-16.27,8.5-32.42,13.63-48.38a502.5,502.5,0,0,1,19.3-51.06c5-11.3,12-25.44,25.74-27.42C87.41,21.27,95.71,24,102,28.52A28.9,28.9,0,0,1,109,36a104.12,104.12,0,0,1,6.2,10.48c3.17,6.13,5.13,12.71,7.9,19a60.63,60.63,0,0,0,5.47,9.84,40.27,40.27,0,0,0,6.92,8.25A9.88,9.88,0,0,0,140.29,86a9.45,9.45,0,0,0,7.34-2.54,38.52,38.52,0,0,0,7.11-8.7,53.51,53.51,0,0,0,5.2-10.37,62.44,62.44,0,0,0,2.44-8c.63-2.75,1-5.88,2.74-8.18a10.55,10.55,0,0,1,7-4,10.16,10.16,0,0,1,8.09,3.16,14.17,14.17,0,0,1,3.48,6.79c1,3.82,1.92,7.68,2.91,11.51a62.2,62.2,0,0,0,1.91,6.69A42.1,42.1,0,0,0,191,77.61c2.91,5.18,7.34,10.25,13.6,11,1.69.19,3.39,0,5.09,0A11.49,11.49,0,0,1,215,90.12c3.44,1.92,5.86,5.42,7.85,8.73,3.14,5.24,4.62,10.93,6.24,16.76q3.1,11.13,6,22.31,1.68,6.53,3.27,13.06a1,1,0,0,0,1.93-.53q-3.13-12.85-6.58-25.64c-1.64-6.09-3.12-12.3-5.11-18.28a43.69,43.69,0,0,0-4.2-9c-2-3.34-4.53-6.83-8-8.88a13.75,13.75,0,0,0-4.94-1.88,30.29,30.29,0,0,0-5-.11A12.7,12.7,0,0,1,197.6,83c-8.73-8.17-9-20.55-12.55-31.28-1.71-5.25-6.41-9.76-12.25-9.62a12.34,12.34,0,0,0-8,3.46,13.14,13.14,0,0,0-3.63,6.94c-.67,2.88-1.27,5.76-2.19,8.57a55.07,55.07,0,0,1-4.36,10,46.56,46.56,0,0,1-7,9.66c-1.84,1.88-4.54,3.76-7.13,3.27A10,10,0,0,1,135.68,81a49.91,49.91,0,0,1-7.33-9.77c-3.55-5.9-5.56-12.38-8.15-18.7a87.39,87.39,0,0,0-5.36-10.9,77.49,77.49,0,0,0-6.19-9.51c-4.67-5.78-11.71-9.6-18.91-11.16S75.07,20.28,69,24.59c-5.44,3.87-9.36,9.51-12.5,15.31a217.11,217.11,0,0,0-9.48,21Q41.69,73.78,37.14,87c-5.78,16.61-10.8,33.47-15.25,50.48q-1.47,5.63-2.86,11.28c-.3,1.25,1.63,1.79,1.93.53Z" transform="translate(-0.07 -2.08)"/>
        <path class="cls-2" d="M13.37,140.23l3.1,6.14c.51,1,1,2.06,1.55,3.08.44.86,1.25,1.6,2.26,1a19.08,19.08,0,0,0,2.46-2l2.64-2.23,5.29-4.44c1-.83-.44-2.24-1.42-1.41l-5.09,4.28-2.45,2.06-1.32,1.12-.57.47-.38.32c-.2.18-.24.21-.14.11h.53c.11.13.14.13.07,0a2.69,2.69,0,0,1-.16-.29l-.33-.66-.55-1.1-1.27-2.52-2.5-4.94c-.58-1.15-2.3-.14-1.72,1Z" transform="translate(-0.07 -2.08)"/>
        <path class="cls-2" d="M230.83,146.52l4.26,3.92,2.13,2c.63.58,1.29,1.39,2.23,1.38a2,2,0,0,0,1.75-1.42c.39-.88.78-1.76,1.16-2.64l2.38-5.39a1,1,0,0,0-.36-1.37,1,1,0,0,0-1.37.36l-2,4.62-1,2.2c-.16.37-.32.73-.49,1.1a4.3,4.3,0,0,0-.25.53c0,.18.23.07.24,0s-.71-.65-.79-.72l-.89-.82L236,148.54l-3.73-3.44c-.94-.87-2.36.54-1.41,1.42Z" transform="translate(-0.07 -2.08)"/>
      </g>
      <g>
        <g>
          <g>
            <g>
              <path class="cls-3" d="M201.06,47.81c-1.28-1.88-.26-4.54.75-6.32s2.82-3.47,5.1-3.47a3.82,3.82,0,0,1,2.71,1A5.6,5.6,0,0,1,211,42c.35,1.85.46,4.28-1,5.74-2.15,2.21-5.5.57-7.7-.61-.57-.3-1.07.56-.51.86,2.41,1.29,5.52,2.75,8.13,1.09,2.14-1.35,2.44-4.12,2.15-6.42-.32-2.5-1.35-5.07-4.1-5.58A6.53,6.53,0,0,0,201.55,40c-1.56,2.15-3,5.82-1.35,8.27.36.53,1.23,0,.86-.5Z" transform="translate(-0.07 -2.08)"/>
              <path class="cls-3" d="M219.75,35a54.56,54.56,0,0,1-.54,8.94l.91-.12c-.73-1.25-1.84-2.76-3.52-2.41s-2.25,2.5-2.45,3.88a3.16,3.16,0,0,0,.2,2.1,2.82,2.82,0,0,0,1.94,1.09,4.54,4.54,0,0,0,4-1.23c.46-.45-.25-1.16-.71-.71a3.49,3.49,0,0,1-2.76,1,2.74,2.74,0,0,1-1.31-.42c-.54-.4-.41-1.21-.31-1.79.14-.86.57-2.59,1.54-2.92,1.21-.4,2.08,1.07,2.57,1.91.2.34.85.33.92-.12a57.78,57.78,0,0,0,.57-9.2.5.5,0,0,0-1,0Z" transform="translate(-0.07 -2.08)"/>
              <path class="cls-3" d="M226,33.43l1.29,13.33.75-.43c-1-.76-1.73-2-3.1-2.23A2.92,2.92,0,0,0,222,45.5a2.11,2.11,0,0,0,1,3.09,12.29,12.29,0,0,0,4.84.76.5.5,0,0,0,0-1A13.56,13.56,0,0,1,224.3,48c-.53-.14-1.32-.27-1.55-.85a1.43,1.43,0,0,1,.33-1.38,1.8,1.8,0,0,1,2.3-.4c.81.48,1.37,1.31,2.13,1.86a.5.5,0,0,0,.75-.43L227,33.43c-.06-.63-1.06-.64-1,0Z" transform="translate(-0.07 -2.08)"/>
            </g>
            <g>
              <path class="cls-3" d="M239.93,35.52a11.57,11.57,0,0,0-3.77,7.54c-.22,2.7,1.09,5.79,4,6.31a.55.55,0,0,0,.57-.23l.46-.65c.38-.53-.49-1-.86-.51l-.46.65.56-.23c-2.72-.47-3.58-3.45-3.22-5.85a10.73,10.73,0,0,1,3.42-6.32c.47-.44-.23-1.14-.71-.71Z" transform="translate(-0.07 -2.08)"/>
              <path class="cls-3" d="M243.28,37.76a.76.76,0,0,0,0,1.24,3.79,3.79,0,0,0,1.75.58l2.27.54a2.6,2.6,0,0,1,.88.23c.23.2-.14.56-.28.75a40,40,0,0,1-2.74,3.35c-.72.78-2.29,1.91-1.76,3.16.24.58,1.21.33,1-.27s.5-1.13.86-1.5.9-1,1.33-1.45A27.15,27.15,0,0,0,249,41.28a1.25,1.25,0,0,0,.1-1.43,2.06,2.06,0,0,0-1.35-.65l-2.1-.5-1-.25c-.15,0-.3-.06-.44-.11a.32.32,0,0,1-.18-.06c-.13-.15-.19,0-.17.35.52-.37,0-1.24-.51-.87Z" transform="translate(-0.07 -2.08)"/>
              <path class="cls-3" d="M253.62,40.57a10.86,10.86,0,0,1,3.67-3.68l-.76-.43a22.2,22.2,0,0,1-2.62,8.16c-.31.57.55,1.07.86.51a23.55,23.55,0,0,0,2.76-8.67c.05-.38-.45-.61-.75-.43a11.86,11.86,0,0,0-4,4c-.34.55.53,1,.86.5Z" transform="translate(-0.07 -2.08)"/>
              <path class="cls-3" d="M251.63,46.1l5.73-1a.5.5,0,0,0-.27-1l-5.73,1a.52.52,0,0,0-.35.62.52.52,0,0,0,.62.35Z" transform="translate(-0.07 -2.08)"/>
              <path class="cls-3" d="M259.54,33.32a21.54,21.54,0,0,1,1,8.24,20.31,20.31,0,0,1-.69,4.1c-.24.91-.63,2.58-1.79,2.71-.63.07-.63,1.07,0,1a3,3,0,0,0,2.37-2.2,18.64,18.64,0,0,0,1-4.48,22.5,22.5,0,0,0-1-9.64c-.2-.61-1.16-.35-1,.27Z" transform="translate(-0.07 -2.08)"/>
            </g>
            <g>
              <path class="cls-3" d="M194.86,66.69a15.5,15.5,0,0,1,2.67-10.45l-.91-.12a14,14,0,0,1,.92,5.9.51.51,0,0,0,.75.44,5.77,5.77,0,0,0,2.13-2.53,10.35,10.35,0,0,1,1.67-2.81,2.25,2.25,0,0,1,.55-.41c.31-.16.6-.32.65.13a27.07,27.07,0,0,1,.16,2.85,27.68,27.68,0,0,1-.59,5.74c-.14.63.83.9,1,.27a27.89,27.89,0,0,0,.61-5q0-1.27,0-2.55a5.18,5.18,0,0,0-.33-2.22c-.62-1-2.1-.1-2.69.48a8.65,8.65,0,0,0-1.57,2.5,5.73,5.73,0,0,1-2,2.67l.75.43a14.62,14.62,0,0,0-1-6.17.5.5,0,0,0-.91-.12,16.4,16.4,0,0,0-2.81,11c.07.63,1.07.64,1,0Z" transform="translate(-0.07 -2.08)"/>
              <path class="cls-3" d="M206.85,58.13a10,10,0,0,0,.17,7.33,2,2,0,0,0,2.66,1.06,4.14,4.14,0,0,0,1.93-2.71,13.7,13.7,0,0,0,.7-4.44.5.5,0,0,0-1,0,12.75,12.75,0,0,1-.64,4.11,5,5,0,0,1-.84,1.71,1.28,1.28,0,0,1-1.37.47c-.49-.22-.66-.88-.8-1.34a9.35,9.35,0,0,1-.38-2,9.47,9.47,0,0,1,.54-3.91c.21-.6-.75-.87-1-.26Z" transform="translate(-0.07 -2.08)"/>
              <path class="cls-3" d="M214.43,55.15l-.34,9.57c0,.64,1,.64,1,0l.34-9.57a.5.5,0,0,0-1,0Z" transform="translate(-0.07 -2.08)"/>
              <path class="cls-3" d="M216.14,58.73a16.68,16.68,0,0,1,6.22,0c.63.11.9-.85.26-1a18.18,18.18,0,0,0-6.74,0c-.64.13-.37,1.09.26,1Z" transform="translate(-0.07 -2.08)"/>
              <path class="cls-3" d="M219.58,52.89,219,60.23c-.11,1.2-.23,2.41-.31,3.61a3.71,3.71,0,0,0,.53,2.61c.38.51,1.25,0,.86-.5a3.88,3.88,0,0,1-.34-2.79l.3-3.42.59-6.85c.06-.64-.94-.64-1,0Z" transform="translate(-0.07 -2.08)"/>
              <path class="cls-3" d="M224.85,65.16a23.45,23.45,0,0,1-.15-5.23.5.5,0,0,0-1,0,24.09,24.09,0,0,0,.19,5.5.5.5,0,0,0,.61.35.52.52,0,0,0,.35-.62Z" transform="translate(-0.07 -2.08)"/>
              <path class="cls-3" d="M224.46,57.62a.5.5,0,0,0,0-1,.5.5,0,0,0,0,1Z" transform="translate(-0.07 -2.08)"/>
              <path class="cls-3" d="M228.72,58.38a81.58,81.58,0,0,0-1.39,14.79.5.5,0,0,0,1,0,79.42,79.42,0,0,1,1.36-14.52c.11-.63-.85-.9-1-.27Z" transform="translate(-0.07 -2.08)"/>
              <path class="cls-3" d="M228.69,59.11l.17-.17.07-.06c-.06,0,0,0,0,0l.19-.12.09,0s.14-.06,0,0a1.85,1.85,0,0,1,.4-.12l.11,0c.09,0-.12,0,0,0h.57a2.37,2.37,0,0,1,.46.11l.09,0,.07,0,.07,0,.09,0,.18.1.1.07,0,0a2.7,2.7,0,0,1,.31.28l.06.07c-.06-.06,0,0,0,0s.1.14.14.21a1.59,1.59,0,0,1,.17.77,1.78,1.78,0,0,1-.22.79,2.31,2.31,0,0,1-.63.73,2.38,2.38,0,0,1-.89.43,1.6,1.6,0,0,1-.51,0,2.06,2.06,0,0,1-.5-.13.5.5,0,0,0-.61.35.52.52,0,0,0,.35.62,3.16,3.16,0,0,0,4-2.41,2.6,2.6,0,0,0-.72-2.28,3.35,3.35,0,0,0-2.07-.93,2.83,2.83,0,0,0-2.33.86.51.51,0,0,0,0,.71.5.5,0,0,0,.7,0Z" transform="translate(-0.07 -2.08)"/>
              <path class="cls-3" d="M235.72,54l-1.16,8-.28,1.88a4.25,4.25,0,0,0-.14,1.62.71.71,0,0,0,1.4-.27c-.12-.63-1.08-.36-1,.27l0,.09,0-.39c.37.12.53,0,.49-.28l0-.22c0-.26.07-.51.11-.77l.19-1.33.4-2.77.81-5.54c.09-.63-.87-.9-1-.26Z" transform="translate(-0.07 -2.08)"/>
              <path class="cls-3" d="M238.53,64.76a48.53,48.53,0,0,1,1.15-6.12.5.5,0,0,0-1-.27,51,51,0,0,0-1.18,6.39.51.51,0,0,0,.5.5.51.51,0,0,0,.5-.5Z" transform="translate(-0.07 -2.08)"/>
              <path class="cls-3" d="M242.07,57.58a6.06,6.06,0,0,0-1.53,2.36,12.49,12.49,0,0,0-.8,2.76,2.35,2.35,0,0,0,.86,2.41,1.61,1.61,0,0,0,2.1-.14c.42-.48-.29-1.19-.71-.71s-.8.13-1.05-.17c-.47-.55-.2-1.46,0-2.07a7.56,7.56,0,0,1,1.87-3.73c.48-.43-.23-1.13-.71-.71Z" transform="translate(-0.07 -2.08)"/>
              <path class="cls-3" d="M245.57,65.46a24.09,24.09,0,0,0,.2-5.5.52.52,0,0,0-.5-.5.5.5,0,0,0-.5.5,22.88,22.88,0,0,1-.16,5.23.5.5,0,1,0,1,.27Z" transform="translate(-0.07 -2.08)"/>
              <path class="cls-3" d="M246.81,56.67a5.49,5.49,0,0,1,3.8.42.5.5,0,1,0,.51-.86,6.55,6.55,0,0,0-4.58-.52.5.5,0,0,0,.27,1Z" transform="translate(-0.07 -2.08)"/>
              <path class="cls-3" d="M248.94,54l-1.28,10.43c-.08.64.92.63,1,0L249.94,54c.08-.64-.92-.63-1,0Z" transform="translate(-0.07 -2.08)"/>
              <path class="cls-3" d="M251.55,58.55a5.48,5.48,0,0,0,.62,2.54.52.52,0,0,0,.69.18,11.36,11.36,0,0,0,3-2l-.78-.61a101.32,101.32,0,0,1-8.39,13.59c-.38.52.48,1,.86.5A101.84,101.84,0,0,0,256,59.21a.5.5,0,0,0-.78-.61,10.38,10.38,0,0,1-2.83,1.8l.68.18a4.34,4.34,0,0,1-.48-2,.5.5,0,0,0-1,0Z" transform="translate(-0.07 -2.08)"/>
            </g>
          </g>
          <path class="cls-3" d="M206.24,85.65a105.1,105.1,0,0,1,7.47-16.33l-.93-.26-.09.73c-.07.64.93.63,1,0l.09-.73c.06-.51-.7-.65-.93-.25a105.36,105.36,0,0,0-7.57,16.57c-.22.61.75.87,1,.27Z" transform="translate(-0.07 -2.08)"/>
        </g>
        <g>
          <g>
            <g>
              <path class="cls-3" d="M134.9,112.24a13.83,13.83,0,0,0,6-5.32c.62-1,1.46-2.44.9-3.66a2.56,2.56,0,0,0-2.54-1.31,3.9,3.9,0,0,0-2.81,1.94,14.45,14.45,0,0,0-1.86,4.28c-.68,2.58-.42,5.59,1.56,7.56s5.21,2.09,6.93-.07c.39-.5-.31-1.21-.71-.71a3.71,3.71,0,0,1-5.06.47c-1.81-1.36-2.31-3.86-2-6a13.55,13.55,0,0,1,1.22-3.67,5.55,5.55,0,0,1,1.89-2.53,1.79,1.79,0,0,1,2.38.33c.56.92-.5,2.4-1,3.17a12.91,12.91,0,0,1-5.39,4.64c-.58.27-.08,1.13.5.86Z" transform="translate(-0.07 -2.08)"/>
              <path class="cls-3" d="M143.73,105.68a58.7,58.7,0,0,0,1.62,6.91c.48,1.62.88,4,2.63,4.69a.49.49,0,0,0,.56-.23c1.79-3.57,1.08-7.84,3-11.35.3-.56-.56-1.07-.86-.5-1.91,3.53-1.19,7.79-3,11.34l.56-.23c-.7-.29-1-1.14-1.23-1.8-.34-1-.65-2-.94-3a60.07,60.07,0,0,1-1.38-6.08c-.11-.63-1.07-.36-1,.27Z" transform="translate(-0.07 -2.08)"/>
              <path class="cls-3" d="M152.89,112.14a6.83,6.83,0,0,0,2.74-4,1.7,1.7,0,0,0-.6-2,1.64,1.64,0,0,0-1.93.44,5.35,5.35,0,0,0-1,2.48,11.76,11.76,0,0,0,.21,5.73,3.81,3.81,0,0,0,1.19,2,2,2,0,0,0,2.18.19,1.53,1.53,0,0,0,.68-.86,4.63,4.63,0,0,1,.37-1.32c.37-.52-.5-1-.86-.5a2.32,2.32,0,0,0-.36,1c-.05.29-.07.64-.33.81-.59.38-1.24-.17-1.53-.66a6.73,6.73,0,0,1-.68-2.33,10.69,10.69,0,0,1-.07-2.71,9.13,9.13,0,0,1,.59-2.58,1.32,1.32,0,0,1,.63-.81c.41-.16.62.1.6.5a5.42,5.42,0,0,1-2.35,3.75c-.52.37,0,1.24.51.87Z" transform="translate(-0.07 -2.08)"/>
              <path class="cls-3" d="M156.89,107.52l.17,8.21c0,.53.9.71,1,.13l.72-5.08c.12-.83.19-1.68.36-2.5.09-.44.41-1.22.83-.54a6,6,0,0,1,.53,2.05c.15.84.26,1.68.34,2.52a31.67,31.67,0,0,1,0,5.06c0,.64,1,.64,1,0a31.5,31.5,0,0,0-.16-6.14c-.12-1-.28-1.93-.49-2.87a2.49,2.49,0,0,0-1-1.75,1.26,1.26,0,0,0-1.67.43,5,5,0,0,0-.58,2.25l-.89,6.3,1,.14-.17-8.21a.5.5,0,0,0-1,0Z" transform="translate(-0.07 -2.08)"/>
            </g>
            <g>
              <path class="cls-3" d="M121.09,134.82a27.29,27.29,0,0,1,.42-7.27,24.66,24.66,0,0,1,.91-3.37c.11-.31.47-1.27.91-1.09s.43,1.21.5,1.54c.18.76.24,2,1.06,2.43s1.83-.7,2.43-1.22l1.34-1.16.62-.54c.31-.26.63-.55.87-.08a4.64,4.64,0,0,1,.25,1.48c.06.62.11,1.24.13,1.85a25.94,25.94,0,0,1-1,8.13.5.5,0,0,0,1,.27,27.13,27.13,0,0,0,1-8.16,14.14,14.14,0,0,0-.42-3.84,1.32,1.32,0,0,0-2.2-.64c-1.09.81-2,1.9-3.11,2.67-.14.1-.33.39-.55.27-.06,0-.12-.29-.14-.33-.08-.27-.13-.55-.19-.83a16.63,16.63,0,0,0-.48-2,1.24,1.24,0,0,0-2-.57c-.91.74-1.16,2.12-1.45,3.2a27.61,27.61,0,0,0-.86,9.23c0,.64,1,.65,1,0Z" transform="translate(-0.07 -2.08)"/>
              <path class="cls-3" d="M132.67,127.36a12.83,12.83,0,0,0,0,4,8.51,8.51,0,0,0,1.17,3.47c.59.86,1.65,1.52,2.64.87a2.79,2.79,0,0,0,.94-1.23,13.74,13.74,0,0,0,1.12-6.36c0-.64-1-.64-1,0a13.17,13.17,0,0,1-.4,4.15,10.3,10.3,0,0,1-.7,1.95c-.21.4-.53.89-1,.72a2.1,2.1,0,0,1-1-1.15,9.13,9.13,0,0,1-.61-1.92,11.35,11.35,0,0,1-.13-4.19c.1-.63-.86-.9-1-.27Z" transform="translate(-0.07 -2.08)"/>
              <path class="cls-3" d="M140.07,121.31c0,2.4-.06,4.8,0,7.2,0,1.18,0,2.37.12,3.54,0,.65.49,1.56,1.29,1.26.59-.23.34-1.2-.27-1,.1,0,0-.13,0-.29a5.29,5.29,0,0,1,0-.8c0-.45,0-.91,0-1.37q0-1.42-.06-2.85c0-1.91,0-3.81,0-5.72a.5.5,0,0,0-1,0Z" transform="translate(-0.07 -2.08)"/>
              <path class="cls-3" d="M142.09,125.73a13.57,13.57,0,0,1,6.34-.8.5.5,0,0,0,.5-.5.51.51,0,0,0-.5-.5,14.19,14.19,0,0,0-6.61.84.52.52,0,0,0-.35.61.5.5,0,0,0,.62.35Z" transform="translate(-0.07 -2.08)"/>
              <path class="cls-3" d="M146.17,120.2l-.41,8.78-.21,4.32a20.28,20.28,0,0,0-.09,2.06.92.92,0,0,0,.67,1c.63.14.9-.82.27-1,0,0,.22-3.45.23-3.79l.18-3.71.36-7.66c0-.64-1-.64-1,0Z" transform="translate(-0.07 -2.08)"/>
              <path class="cls-3" d="M151.73,134.54a35.84,35.84,0,0,0-.28-7.17.5.5,0,0,0-.61-.35.52.52,0,0,0-.35.62,33.87,33.87,0,0,1,.24,6.9c0,.65,1,.64,1,0Z" transform="translate(-0.07 -2.08)"/>
              <path class="cls-3" d="M154.71,127.23l-.34,14.35a.5.5,0,0,0,1,0l.34-14.35a.5.5,0,0,0-1,0Z" transform="translate(-0.07 -2.08)"/>
              <path class="cls-3" d="M156.65,127.5a2.31,2.31,0,0,1,3.26,1,2.44,2.44,0,0,1-.1,1.93,2.11,2.11,0,0,1-1.55,1.13,2.35,2.35,0,0,1-2-.62c-.45-.45-1.16.26-.71.71a3.31,3.31,0,0,0,5-.46,3.4,3.4,0,0,0,.44-2.69,3.09,3.09,0,0,0-1.74-2,3.38,3.38,0,0,0-3.08.14.5.5,0,0,0,.51.86Z" transform="translate(-0.07 -2.08)"/>
              <path class="cls-3" d="M162.49,121.31,162,133.42c0,.64,1,.64,1,0l.47-12.11c0-.64-1-.64-1,0Z" transform="translate(-0.07 -2.08)"/>
              <path class="cls-3" d="M167.83,133.42a31.76,31.76,0,0,1,.14-5.93.5.5,0,0,0-.5-.5.51.51,0,0,0-.5.5,31.76,31.76,0,0,0-.14,5.93c0,.64,1,.64,1,0Z" transform="translate(-0.07 -2.08)"/>
              <path class="cls-3" d="M171.44,126.57a4.82,4.82,0,0,0-1.27,2.29,7.06,7.06,0,0,0-.3,2.58,2.19,2.19,0,0,0,1.36,1.89,1.6,1.6,0,0,0,2-.58c.34-.55-.52-1.05-.86-.5-.18.29-.64.23-.95.05a1.62,1.62,0,0,1-.52-1.48,8,8,0,0,1,.36-1.94,3.51,3.51,0,0,1,.94-1.6c.47-.45-.24-1.15-.71-.71Z" transform="translate(-0.07 -2.08)"/>
              <path class="cls-3" d="M176.06,132.44a18.12,18.12,0,0,1-.24-4.65.5.5,0,0,0-1,0,19.77,19.77,0,0,0,.27,4.92.51.51,0,0,0,.62.35.52.52,0,0,0,.35-.62Z" transform="translate(-0.07 -2.08)"/>
              <path class="cls-3" d="M176.31,126a12.17,12.17,0,0,1,3.52,1.4.5.5,0,1,0,.51-.86,13.41,13.41,0,0,0-3.77-1.51.5.5,0,0,0-.26,1Z" transform="translate(-0.07 -2.08)"/>
              <path class="cls-3" d="M178,123c-.32,3.55-.51,7.12-.55,10.69a.5.5,0,0,0,1,0c0-3.57.23-7.14.55-10.69.06-.64-.94-.64-1,0Z" transform="translate(-0.07 -2.08)"/>
              <path class="cls-3" d="M180.75,127.64c.19.77.34,1.57.58,2.33a1.11,1.11,0,0,0,1.07.91c.58,0,.88-.58,1.07-1.06.34-.85.64-1.71,1-2.56l-1-.26a59.65,59.65,0,0,1-5,12.73c-.3.57.56,1.07.86.51a60.76,60.76,0,0,0,5.15-13,.5.5,0,0,0-1-.26l-.52,1.39-.26.7c-.06.16-.14.6-.29.71s-.13-.21-.16-.35-.11-.44-.17-.66l-.34-1.42a.5.5,0,0,0-1,.27Z" transform="translate(-0.07 -2.08)"/>
              <path class="cls-3" d="M166.78,123.57a2.62,2.62,0,0,1,0,.28l0-.13a1.33,1.33,0,0,1,0,.19l0-.12-.06.11.08-.1-.07.07.1-.08-.06,0,.12,0h-.05l.13,0h0l.13,0-.07,0,.12,0-.08,0,.11.07s0,0-.07-.06l.08.1,0-.06,0,.12a.43.43,0,0,0,0,0l0,.13v0l0,.14a0,0,0,0,1,0,0l0,.11s0,0,0,0l-.07.1s0,0,0,0l-.1.08h0a.5.5,0,0,0,.23-.3.34.34,0,0,0,0-.2.33.33,0,0,0-.06-.19.53.53,0,0,0-.3-.23.56.56,0,0,0-.38,0,.65.65,0,0,0-.3.74.77.77,0,0,0,.19.31.12.12,0,0,0,.05,0l.15.11a.69.69,0,0,0,.37.1h0l.16,0a.71.71,0,0,0,.18-.08,1,1,0,0,0,.41-.56,1.88,1.88,0,0,0,.05-.33v-.21a.49.49,0,0,0-.15-.36.29.29,0,0,0-.16-.1.31.31,0,0,0-.19,0,.46.46,0,0,0-.35.14.53.53,0,0,0-.15.36Z" transform="translate(-0.07 -2.08)"/>
            </g>
          </g>
          <path class="cls-3" d="M142.37,87.69a22.87,22.87,0,0,0,0,11.56.5.5,0,0,0,1-.26,21.85,21.85,0,0,1,0-11,.5.5,0,0,0-1-.26Z" transform="translate(-0.07 -2.08)"/>
        </g>
        <g>
          <g>
            <g>
              <path class="cls-3" d="M.93,21.77l-.61.44.75.44A122.22,122.22,0,0,1,4.14,2.7h-1L4.85,13.43a.5.5,0,0,0,.83.22A13,13,0,0,0,8,8.42C8.49,6.51,9,4.48,10.27,3l-.84-.22a46.92,46.92,0,0,1,.63,10.45,46.59,46.59,0,0,1-.56,5.15c-.15.9-.15,2.3,1.07,2.34a.5.5,0,0,0,0-1c-.41,0,.2-3.24.25-3.6.17-1.52.27-3.05.3-4.58a48.84,48.84,0,0,0-.73-9,.5.5,0,0,0-.83-.22A12.59,12.59,0,0,0,7.21,7.45c-.5,1.91-.94,3.94-2.23,5.49l.83.22L4.14,2.44c-.08-.5-.86-.46-1,0A124.14,124.14,0,0,0,.07,22.65a.5.5,0,0,0,.75.43l.61-.44c.51-.38,0-1.25-.5-.87Z" transform="translate(-0.07 -2.08)"/>
              <path class="cls-3" d="M13.12,12.5a18.45,18.45,0,0,0-.31,4.75,6,6,0,0,0,1,3.42,2,2,0,0,0,2.84.43,4,4,0,0,0,1.07-1.42,17.34,17.34,0,0,0,.89-2.08,17.3,17.3,0,0,0,1-5c0-.65-1-.65-1,0a16.05,16.05,0,0,1-.95,4.79,13,13,0,0,1-.92,2.05c-.27.49-.69,1.13-1.34,1.08C14.32,20.46,14,18.8,13.87,18a16.86,16.86,0,0,1,.22-5.21c.12-.63-.84-.9-1-.27Z" transform="translate(-0.07 -2.08)"/>
              <path class="cls-3" d="M23.23,5.18q-1.41,8.19-2.33,16.46c-.07.63.93.63,1,0q.92-8.13,2.3-16.2c.1-.62-.86-.9-1-.26Z" transform="translate(-0.07 -2.08)"/>
              <path class="cls-3" d="M26.18,14.53A14.73,14.73,0,0,1,34,10.87a.5.5,0,0,0-.26-1,15.64,15.64,0,0,0-8.24,3.93c-.47.43.24,1.14.71.7Z" transform="translate(-0.07 -2.08)"/>
              <path class="cls-3" d="M29.72,6a110.57,110.57,0,0,0-2.37,17,.5.5,0,0,0,.75.43l.68-.47c.52-.36,0-1.23-.51-.86l-.68.47.76.43A108.59,108.59,0,0,1,30.68,6.29c.14-.63-.83-.89-1-.26Z" transform="translate(-0.07 -2.08)"/>
              <path class="cls-3" d="M33.9,21.52c0,.1,0,.15-.13.15l.48.63.67-3.64.33-1.79a5.06,5.06,0,0,0,.17-.93c0-.15,0-.18,0-.06s-.07.09,0,0a1.3,1.3,0,0,0,.3-.13c.58-.27.07-1.13-.51-.86a1.41,1.41,0,0,0-.56.34,1.64,1.64,0,0,0-.25.81l-.37,2-.73,4a.5.5,0,0,0,.48.63,1.12,1.12,0,0,0,1.1-.89c.1-.63-.86-.9-1-.26Z" transform="translate(-0.07 -2.08)"/>
              <path class="cls-3" d="M36.47,11.23l0,0,.08-.1-.06.05.1-.08-.06,0,.12,0-.07,0,.13,0h-.11l.14,0-.13,0,.12.05-.14-.08.1.08-.1-.1.08.1-.06-.1,0,.12a.29.29,0,0,1,0-.09l0,.14a.11.11,0,0,1,0-.08l0,.14a.24.24,0,0,1,0-.08l0,.12a.21.21,0,0,1,0-.06.41.41,0,0,0,0-.19.34.34,0,0,0,0-.2.62.62,0,0,0-.23-.3.53.53,0,0,0-.39-.05l-.12.05a.77.77,0,0,0-.18.18.72.72,0,0,0-.1.24.77.77,0,0,0,0,.37.83.83,0,0,0,.23.43,1.23,1.23,0,0,0,.43.28l.13,0,.19,0,.18,0a.63.63,0,0,0,.24-.09.83.83,0,0,0,.28-.28.58.58,0,0,0,0-.39.62.62,0,0,0-.23-.3.53.53,0,0,0-.39-.05.57.57,0,0,0-.3.23Z" transform="translate(-0.07 -2.08)"/>
              <path class="cls-3" d="M38,12.62a146.4,146.4,0,0,0-4.53,17.74c-.12.62.84.89,1,.26A146.29,146.29,0,0,1,39,12.89c.2-.62-.77-.88-1-.27Z" transform="translate(-0.07 -2.08)"/>
              <path class="cls-3" d="M39.54,12.93c0-.25.21-.38.46-.41a.74.74,0,0,1,.65.4A3.73,3.73,0,0,1,41,15.34a3.24,3.24,0,0,1-1.15,2.17,2.3,2.3,0,0,1-2.17.41c-.61-.21-.87.76-.27,1a3.59,3.59,0,0,0,4.34-2.41A5.74,5.74,0,0,0,42,13.63a2.45,2.45,0,0,0-1.49-2.05,1.49,1.49,0,0,0-1.93,1.35c.06.64,1.06.64,1,0Z" transform="translate(-0.07 -2.08)"/>
              <path class="cls-3" d="M44,5.3l-1,8.36c-.16,1.35-.34,2.7-.47,4.06-.07.74.28,1.83,1.23,1.56a.5.5,0,0,0-.27-1c.12,0,0-.31,0-.48s.05-.5.08-.74l.2-1.72.38-3.32L45,5.3c.07-.64-.93-.63-1,0Z" transform="translate(-0.07 -2.08)"/>
              <path class="cls-3" d="M47.48,20l.36-4.36c.06-.68.08-1.37.18-2,0-.37.14-.9.57-1,.63-.12.36-1.09-.27-1-1.38.27-1.32,2.15-1.41,3.21L46.48,20c0,.64,1,.63,1,0Z" transform="translate(-0.07 -2.08)"/>
              <path class="cls-3" d="M52.45,12.22A8.72,8.72,0,0,0,49.67,16c-.43,1.24-.79,3.89,1.06,4.15A3.76,3.76,0,0,0,53.58,19c.48-.43-.23-1.13-.71-.71a3.77,3.77,0,0,1-1.35.83c-.27.08-.67.18-.92,0s-.25-.62-.26-.9a5.13,5.13,0,0,1,.1-1.18,7.3,7.3,0,0,1,2.71-4.06c.5-.41-.21-1.12-.7-.71Z" transform="translate(-0.07 -2.08)"/>
              <path class="cls-3" d="M56,19.53a17.56,17.56,0,0,0,.54-6.33.51.51,0,0,0-.5-.5.5.5,0,0,0-.5.5,16.74,16.74,0,0,1-.51,6.06.5.5,0,0,0,1,.27Z" transform="translate(-0.07 -2.08)"/>
              <path class="cls-3" d="M57.33,11.34a12.27,12.27,0,0,1,4.79.18c.63.14.9-.82.27-1a14.06,14.06,0,0,0-5.33-.18.51.51,0,0,0-.35.62.52.52,0,0,0,.62.35Z" transform="translate(-0.07 -2.08)"/>
              <path class="cls-3" d="M59.88,7.72A92.91,92.91,0,0,0,58.32,19.1c0,.64,1,.64,1,0A90.46,90.46,0,0,1,60.85,8c.12-.63-.84-.9-1-.27Z" transform="translate(-0.07 -2.08)"/>
              <path class="cls-3" d="M61.5,13.48c-.13,1.16-.19,4.25,1.64,4.11a2.08,2.08,0,0,0,1.58-1.23c.35-.73.23-1.7.85-2.3l-.84-.49a45.77,45.77,0,0,1-8,16c-.39.5.31,1.22.7.71a47.18,47.18,0,0,0,8.23-16.4.51.51,0,0,0-.84-.49,2.83,2.83,0,0,0-.73,1.35,3.27,3.27,0,0,1-.56,1.59c-.15.15-.42.38-.63.27s-.28-.56-.34-.79a6.78,6.78,0,0,1-.1-2.29c.08-.64-.92-.63-1,0Z" transform="translate(-0.07 -2.08)"/>
            </g>
            <g>
              <path class="cls-3" d="M73.5,10.53A14.15,14.15,0,0,1,78,4.59l-.85-.35a49.93,49.93,0,0,1-1.37,13.94.5.5,0,0,0,1,.27l.32-.91c.22-.61-.75-.87-1-.27l-.32.91,1,.27A51.11,51.11,0,0,0,78.16,4.24a.5.5,0,0,0-.85-.35,15,15,0,0,0-4.77,6.37c-.24.6.73.86,1,.27Z" transform="translate(-0.07 -2.08)"/>
              <path class="cls-3" d="M71.91,21.25a14.45,14.45,0,0,1,5.53-2.11A13.31,13.31,0,0,1,80.33,19,4.63,4.63,0,0,0,83,18.74c.56-.3.06-1.17-.51-.86-.81.44-1.9.12-2.78.11a13.9,13.9,0,0,0-2.88.25,15.36,15.36,0,0,0-5.39,2.15c-.54.34,0,1.2.51.86Z" transform="translate(-0.07 -2.08)"/>
            </g>
          </g>
          <g>
            <path class="cls-3" d="M28.84,77a19.64,19.64,0,0,0,5,7.39.52.52,0,0,0,.79-.1,44.86,44.86,0,0,0,3.65-10c.15-.63-.82-.89-1-.27a43.22,43.22,0,0,1-3.56,9.8l.79-.1a18.62,18.62,0,0,1-4.71-6.94c-.23-.6-1.19-.34-1,.26Z" transform="translate(-0.07 -2.08)"/>
            <path class="cls-3" d="M34.54,82.34A147.26,147.26,0,0,1,29.8,37.13q.33-6.45,1.22-12.85c.09-.63-.87-.9-1-.27a148.19,148.19,0,0,0,.73,45.86q1.11,6.42,2.79,12.74a.5.5,0,0,0,1-.27Z" transform="translate(-0.07 -2.08)"/>
          </g>
        </g>
        <path class="cls-3" d="M204,78l.56,4.94a21.27,21.27,0,0,0,.28,2.25A1.43,1.43,0,0,0,206,86.33a1.9,1.9,0,0,0,1.64-.81c.48-.56.88-1.19,1.33-1.76a39,39,0,0,1,3-3.4.5.5,0,0,0-.71-.71c-.93.94-1.82,1.93-2.66,3-.38.47-.76,1-1.12,1.44s-.67,1.12-1.19,1.27-.5-.65-.54-1l-.24-2.09L205,78c-.08-.63-1.08-.64-1,0Z" transform="translate(-0.07 -2.08)"/>
        <path class="cls-3" d="M139.1,93.18l1.91-4c.17-.36,1.31-3.06,1.91-1.86a13.59,13.59,0,0,1,.65,1.89l.73,2.21a2.3,2.3,0,0,0,.84,1.35.85.85,0,0,0,1.27-.24.5.5,0,0,0-.87-.5c.2-.36.24.1.1-.13s-.13-.13-.18-.21a4.48,4.48,0,0,1-.34-1l-.68-2.07c-.32-1-.62-2.81-2-2.65s-1.81,1.68-2.28,2.65l-1.91,4c-.27.58.59,1.08.87.5Z" transform="translate(-0.07 -2.08)"/>
      </g>
    </g>
  </g>
</svg>
