<?xml version="1.0" encoding="utf-8" standalone="no"?>
<!DOCTYPE svg PUBLIC "-//W3C//DTD SVG 1.1//EN"
  "http://www.w3.org/Graphics/SVG/1.1/DTD/svg11.dtd">
<!-- Created with matplotlib (http://matplotlib.org/) -->
<svg height="280.8pt" version="1.1" viewBox="0 0 424.8 280.8" width="424.8pt" xmlns="http://www.w3.org/2000/svg" xmlns:xlink="http://www.w3.org/1999/xlink">
 <defs>
  <style type="text/css">
*{stroke-linecap:butt;stroke-linejoin:round;}
  </style>
 </defs>
 <g id="figure_1">
  <g id="patch_1">
   <path d="M 0 280.8 
L 424.8 280.8 
L 424.8 0 
L 0 0 
z
" style="fill:#ffffff;"/>
  </g>
  <g id="axes_1">
   <g id="patch_2">
    <path d="M 10.7 270.1 
L 414.1 270.1 
L 414.1 10.7 
L 10.7 10.7 
z
" style="fill:#ffffff;"/>
   </g>
   <g id="matplotlib.axis_1">
    <g id="xtick_1">
     <g id="line2d_1">
      <defs>
       <path d="M 0 0 
L 0 3.5 
" id="m10d0bcab39" style="stroke:#808080;stroke-width:0.8;"/>
      </defs>
      <g>
       <use style="fill:#808080;stroke:#808080;stroke-width:0.8;" x="18.457692" xlink:href="#m10d0bcab39" y="171.577885"/>
      </g>
     </g>
     <g id="text_1">
      <!-- -3 -->
      <defs>
       <path d="M 4.890625 31.390625 
L 31.203125 31.390625 
L 31.203125 23.390625 
L 4.890625 23.390625 
z
" id="DejaVuSans-2d"/>
       <path d="M 40.578125 39.3125 
Q 47.65625 37.796875 51.625 33 
Q 55.609375 28.21875 55.609375 21.1875 
Q 55.609375 10.40625 48.1875 4.484375 
Q 40.765625 -1.421875 27.09375 -1.421875 
Q 22.515625 -1.421875 17.65625 -0.515625 
Q 12.796875 0.390625 7.625 2.203125 
L 7.625 11.71875 
Q 11.71875 9.328125 16.59375 8.109375 
Q 21.484375 6.890625 26.8125 6.890625 
Q 36.078125 6.890625 40.9375 10.546875 
Q 45.796875 14.203125 45.796875 21.1875 
Q 45.796875 27.640625 41.28125 31.265625 
Q 36.765625 34.90625 28.71875 34.90625 
L 20.21875 34.90625 
L 20.21875 43.015625 
L 29.109375 43.015625 
Q 36.375 43.015625 40.234375 45.921875 
Q 44.09375 48.828125 44.09375 54.296875 
Q 44.09375 59.90625 40.109375 62.90625 
Q 36.140625 65.921875 28.71875 65.921875 
Q 24.65625 65.921875 20.015625 65.03125 
Q 15.375 64.15625 9.8125 62.3125 
L 9.8125 71.09375 
Q 15.4375 72.65625 20.34375 73.4375 
Q 25.25 74.21875 29.59375 74.21875 
Q 40.828125 74.21875 47.359375 69.109375 
Q 53.90625 64.015625 53.90625 55.328125 
Q 53.90625 49.265625 50.4375 45.09375 
Q 46.96875 40.921875 40.578125 39.3125 
z
" id="DejaVuSans-33"/>
      </defs>
      <g transform="translate(9.484411 192.255072)scale(0.18 -0.18)">
       <use xlink:href="#DejaVuSans-2d"/>
       <use x="36.083984" xlink:href="#DejaVuSans-33"/>
      </g>
     </g>
    </g>
    <g id="xtick_2">
     <g id="line2d_2">
      <g>
       <use style="fill:#808080;stroke:#808080;stroke-width:0.8;" x="83.105128" xlink:href="#m10d0bcab39" y="171.577885"/>
      </g>
     </g>
     <g id="text_2">
      <!-- -2 -->
      <defs>
       <path d="M 19.1875 8.296875 
L 53.609375 8.296875 
L 53.609375 0 
L 7.328125 0 
L 7.328125 8.296875 
Q 12.9375 14.109375 22.625 23.890625 
Q 32.328125 33.6875 34.8125 36.53125 
Q 39.546875 41.84375 41.421875 45.53125 
Q 43.3125 49.21875 43.3125 52.78125 
Q 43.3125 58.59375 39.234375 62.25 
Q 35.15625 65.921875 28.609375 65.921875 
Q 23.96875 65.921875 18.8125 64.3125 
Q 13.671875 62.703125 7.8125 59.421875 
L 7.8125 69.390625 
Q 13.765625 71.78125 18.9375 73 
Q 24.125 74.21875 28.421875 74.21875 
Q 39.75 74.21875 46.484375 68.546875 
Q 53.21875 62.890625 53.21875 53.421875 
Q 53.21875 48.921875 51.53125 44.890625 
Q 49.859375 40.875 45.40625 35.40625 
Q 44.1875 33.984375 37.640625 27.21875 
Q 31.109375 20.453125 19.1875 8.296875 
z
" id="DejaVuSans-32"/>
      </defs>
      <g transform="translate(74.131847 192.255072)scale(0.18 -0.18)">
       <use xlink:href="#DejaVuSans-2d"/>
       <use x="36.083984" xlink:href="#DejaVuSans-32"/>
      </g>
     </g>
    </g>
    <g id="xtick_3">
     <g id="line2d_3">
      <g>
       <use style="fill:#808080;stroke:#808080;stroke-width:0.8;" x="147.752564" xlink:href="#m10d0bcab39" y="171.577885"/>
      </g>
     </g>
     <g id="text_3">
      <!-- -1 -->
      <defs>
       <path d="M 12.40625 8.296875 
L 28.515625 8.296875 
L 28.515625 63.921875 
L 10.984375 60.40625 
L 10.984375 69.390625 
L 28.421875 72.90625 
L 38.28125 72.90625 
L 38.28125 8.296875 
L 54.390625 8.296875 
L 54.390625 0 
L 12.40625 0 
z
" id="DejaVuSans-31"/>
      </defs>
      <g transform="translate(138.779283 192.255072)scale(0.18 -0.18)">
       <use xlink:href="#DejaVuSans-2d"/>
       <use x="36.083984" xlink:href="#DejaVuSans-31"/>
      </g>
     </g>
    </g>
    <g id="xtick_4">
     <g id="line2d_4">
      <g>
       <use style="fill:#808080;stroke:#808080;stroke-width:0.8;" x="212.4" xlink:href="#m10d0bcab39" y="171.577885"/>
      </g>
     </g>
    </g>
    <g id="xtick_5">
     <g id="line2d_5">
      <g>
       <use style="fill:#808080;stroke:#808080;stroke-width:0.8;" x="277.047436" xlink:href="#m10d0bcab39" y="171.577885"/>
      </g>
     </g>
     <g id="text_4">
      <!-- 1 -->
      <g transform="translate(271.321186 192.255072)scale(0.18 -0.18)">
       <use xlink:href="#DejaVuSans-31"/>
      </g>
     </g>
    </g>
    <g id="xtick_6">
     <g id="line2d_6">
      <g>
       <use style="fill:#808080;stroke:#808080;stroke-width:0.8;" x="341.694872" xlink:href="#m10d0bcab39" y="171.577885"/>
      </g>
     </g>
     <g id="text_5">
      <!-- 2 -->
      <g transform="translate(335.968622 192.255072)scale(0.18 -0.18)">
       <use xlink:href="#DejaVuSans-32"/>
      </g>
     </g>
    </g>
    <g id="xtick_7">
     <g id="line2d_7">
      <g>
       <use style="fill:#808080;stroke:#808080;stroke-width:0.8;" x="406.342308" xlink:href="#m10d0bcab39" y="171.577885"/>
      </g>
     </g>
     <g id="text_6">
      <!-- 3 -->
      <g transform="translate(400.616058 192.255072)scale(0.18 -0.18)">
       <use xlink:href="#DejaVuSans-33"/>
      </g>
     </g>
    </g>
   </g>
   <g id="matplotlib.axis_2"/>
   <g id="patch_3">
    <path d="M 212.4 270.1 
L 212.4 10.7 
" style="fill:none;stroke:#808080;stroke-linecap:square;stroke-linejoin:miter;stroke-width:2;"/>
   </g>
   <g id="patch_4">
    <path d="M 10.7 171.577885 
L 414.1 171.577885 
" style="fill:none;stroke:#808080;stroke-linecap:square;stroke-linejoin:miter;stroke-width:2;"/>
   </g>
   <g id="line2d_8">
    <path clip-path="url(#p7361493dd5)" d="M 63.708285 -1 
L 66.033374 26.723673 
L 68.666033 55.606348 
L 71.223432 81.220411 
L 73.568813 102.682738 
L 75.790319 121.294308 
L 78.29635 140.366706 
L 80.686454 156.73796 
L 82.797358 169.78327 
L 84.932278 181.684574 
L 87.15163 192.736019 
L 89.01529 201.019176 
L 90.966143 208.75463 
L 92.958353 215.706681 
L 94.917826 221.649939 
L 96.663659 226.229064 
L 98.24407 229.815498 
L 100.029304 233.253229 
L 101.533048 235.663392 
L 103.165624 237.797485 
L 104.390056 239.080361 
L 105.904367 240.304374 
L 107.07157 240.983555 
L 108.457112 241.502031 
L 109.843243 241.719463 
L 111.011625 241.677369 
L 112.377401 241.376699 
L 113.549779 240.910337 
L 115.12221 239.995349 
L 116.230835 239.158909 
L 117.647978 237.869411 
L 119.149209 236.245784 
L 121.029344 233.858986 
L 123.161143 230.708338 
L 125.125551 227.418006 
L 127.352471 223.276159 
L 129.750335 218.371991 
L 132.704949 211.767028 
L 135.809743 204.249651 
L 138.958215 196.12409 
L 143.83056 182.783787 
L 150.142234 164.626648 
L 162.492925 128.697545 
L 167.373476 115.151878 
L 171.71288 103.723257 
L 175.374929 94.645405 
L 178.850585 86.588939 
L 182.047192 79.7159 
L 185.051291 73.766693 
L 188.161452 68.164505 
L 190.855499 63.795348 
L 193.545704 59.900505 
L 196.162626 56.576614 
L 198.783595 53.72073 
L 200.736322 51.907715 
L 202.584126 50.443725 
L 204.055547 49.454918 
L 205.673522 48.55037 
L 207.198499 47.874226 
L 209.199704 47.248186 
L 210.791347 46.962859 
L 211.321895 46.909698 
L 211.321895 46.909698 
" style="fill:none;stroke:#ff0000;stroke-linecap:square;stroke-width:5;"/>
   </g>
   <g id="line2d_9">
    <path clip-path="url(#p7361493dd5)" d="M 213.131058 46.886281 
L 214.771092 47.075996 
L 216.35396 47.449058 
L 218.366705 48.192038 
L 219.833563 48.922038 
L 221.383634 49.865078 
L 223.674993 51.579336 
L 226.103236 53.807634 
L 228.326113 56.212435 
L 230.364553 58.718227 
L 232.066718 61.02637 
L 234.095898 64.028609 
L 237.112363 68.980032 
L 239.673101 73.623645 
L 242.334641 78.857331 
L 245.555388 85.712934 
L 248.959317 93.532667 
L 252.962051 103.404091 
L 256.565638 112.833017 
L 261.420709 126.192783 
L 267.384322 143.32051 
L 281.910294 185.418823 
L 286.722663 198.442604 
L 290.572613 208.148616 
L 293.754875 215.549253 
L 296.528939 221.449302 
L 298.595126 225.462883 
L 300.726331 229.224197 
L 302.984504 232.750237 
L 304.632634 235.000567 
L 306.29917 236.978693 
L 308.043013 238.708475 
L 309.405813 239.804504 
L 310.768614 240.664718 
L 311.972002 241.219797 
L 313.568544 241.647024 
L 314.748003 241.726835 
L 315.750734 241.631096 
L 316.753465 241.380315 
L 318.213631 240.728609 
L 319.724632 239.683129 
L 321.282423 238.193648 
L 322.752148 236.389655 
L 324.136707 234.322434 
L 325.439004 232.040886 
L 327.1754 228.471682 
L 328.800841 224.563873 
L 330.50224 219.862817 
L 332.394387 213.871455 
L 334.00963 208.095878 
L 335.920362 200.446151 
L 338.047167 190.846787 
L 340.074813 180.585563 
L 342.045318 169.532297 
L 344.27514 155.685455 
L 346.60873 139.606806 
L 348.918056 122.027034 
L 351.251397 102.505855 
L 353.417371 82.73764 
L 355.747812 59.625664 
L 358.433227 30.526286 
L 361.091756 -1 
L 361.091756 -1 
" style="fill:none;stroke:#ff0000;stroke-linecap:square;stroke-width:5;"/>
   </g>
  </g>
 </g>
 <defs>
  <clipPath id="p7361493dd5">
   <rect height="259.4" width="403.4" x="10.7" y="10.7"/>
  </clipPath>
 </defs>
</svg>
