<?xml version="1.0" encoding="utf-8" standalone="no"?>
<!DOCTYPE svg PUBLIC "-//W3C//DTD SVG 1.1//EN"
  "http://www.w3.org/Graphics/SVG/1.1/DTD/svg11.dtd">
<!-- Created with matplotlib (http://matplotlib.org/) -->
<svg height="280.8pt" version="1.1" viewBox="0 0 424.8 280.8" width="424.8pt" xmlns="http://www.w3.org/2000/svg" xmlns:xlink="http://www.w3.org/1999/xlink">
 <defs>
  <style type="text/css">
*{stroke-linecap:butt;stroke-linejoin:round;}
  </style>
 </defs>
 <g id="figure_1">
  <g id="patch_1">
   <path d="M 0 280.8 
L 424.8 280.8 
L 424.8 0 
L 0 0 
z
" style="fill:#ffffff;"/>
  </g>
  <g id="axes_1">
   <g id="patch_2">
    <path d="M 10.7 270.1 
L 414.1 270.1 
L 414.1 10.7 
L 10.7 10.7 
z
" style="fill:#ffffff;"/>
   </g>
   <g id="matplotlib.axis_1">
    <g id="xtick_1">
     <g id="line2d_1">
      <defs>
       <path d="M 0 0 
L 0 3.5 
" id="m19190b6cba" style="stroke:#808080;stroke-width:0.8;"/>
      </defs>
      <g>
       <use style="fill:#808080;stroke:#808080;stroke-width:0.8;" x="18.457692" xlink:href="#m19190b6cba" y="191.75181"/>
      </g>
     </g>
     <g id="text_1">
      <!-- -4 -->
      <defs>
       <path d="M 4.890625 31.390625 
L 31.203125 31.390625 
L 31.203125 23.390625 
L 4.890625 23.390625 
z
" id="DejaVuSans-2d"/>
       <path d="M 37.796875 64.3125 
L 12.890625 25.390625 
L 37.796875 25.390625 
z
M 35.203125 72.90625 
L 47.609375 72.90625 
L 47.609375 25.390625 
L 58.015625 25.390625 
L 58.015625 17.1875 
L 47.609375 17.1875 
L 47.609375 0 
L 37.796875 0 
L 37.796875 17.1875 
L 4.890625 17.1875 
L 4.890625 26.703125 
z
" id="DejaVuSans-34"/>
      </defs>
      <g transform="translate(9.484411 212.428997)scale(0.18 -0.18)">
       <use xlink:href="#DejaVuSans-2d"/>
       <use x="36.083984" xlink:href="#DejaVuSans-34"/>
      </g>
     </g>
    </g>
    <g id="xtick_2">
     <g id="line2d_2">
      <g>
       <use style="fill:#808080;stroke:#808080;stroke-width:0.8;" x="61.555983" xlink:href="#m19190b6cba" y="191.75181"/>
      </g>
     </g>
     <g id="text_2">
      <!-- -3 -->
      <defs>
       <path d="M 40.578125 39.3125 
Q 47.65625 37.796875 51.625 33 
Q 55.609375 28.21875 55.609375 21.1875 
Q 55.609375 10.40625 48.1875 4.484375 
Q 40.765625 -1.421875 27.09375 -1.421875 
Q 22.515625 -1.421875 17.65625 -0.515625 
Q 12.796875 0.390625 7.625 2.203125 
L 7.625 11.71875 
Q 11.71875 9.328125 16.59375 8.109375 
Q 21.484375 6.890625 26.8125 6.890625 
Q 36.078125 6.890625 40.9375 10.546875 
Q 45.796875 14.203125 45.796875 21.1875 
Q 45.796875 27.640625 41.28125 31.265625 
Q 36.765625 34.90625 28.71875 34.90625 
L 20.21875 34.90625 
L 20.21875 43.015625 
L 29.109375 43.015625 
Q 36.375 43.015625 40.234375 45.921875 
Q 44.09375 48.828125 44.09375 54.296875 
Q 44.09375 59.90625 40.109375 62.90625 
Q 36.140625 65.921875 28.71875 65.921875 
Q 24.65625 65.921875 20.015625 65.03125 
Q 15.375 64.15625 9.8125 62.3125 
L 9.8125 71.09375 
Q 15.4375 72.65625 20.34375 73.4375 
Q 25.25 74.21875 29.59375 74.21875 
Q 40.828125 74.21875 47.359375 69.109375 
Q 53.90625 64.015625 53.90625 55.328125 
Q 53.90625 49.265625 50.4375 45.09375 
Q 46.96875 40.921875 40.578125 39.3125 
z
" id="DejaVuSans-33"/>
      </defs>
      <g transform="translate(52.582702 212.428997)scale(0.18 -0.18)">
       <use xlink:href="#DejaVuSans-2d"/>
       <use x="36.083984" xlink:href="#DejaVuSans-33"/>
      </g>
     </g>
    </g>
    <g id="xtick_3">
     <g id="line2d_3">
      <g>
       <use style="fill:#808080;stroke:#808080;stroke-width:0.8;" x="104.654274" xlink:href="#m19190b6cba" y="191.75181"/>
      </g>
     </g>
     <g id="text_3">
      <!-- -2 -->
      <defs>
       <path d="M 19.1875 8.296875 
L 53.609375 8.296875 
L 53.609375 0 
L 7.328125 0 
L 7.328125 8.296875 
Q 12.9375 14.109375 22.625 23.890625 
Q 32.328125 33.6875 34.8125 36.53125 
Q 39.546875 41.84375 41.421875 45.53125 
Q 43.3125 49.21875 43.3125 52.78125 
Q 43.3125 58.59375 39.234375 62.25 
Q 35.15625 65.921875 28.609375 65.921875 
Q 23.96875 65.921875 18.8125 64.3125 
Q 13.671875 62.703125 7.8125 59.421875 
L 7.8125 69.390625 
Q 13.765625 71.78125 18.9375 73 
Q 24.125 74.21875 28.421875 74.21875 
Q 39.75 74.21875 46.484375 68.546875 
Q 53.21875 62.890625 53.21875 53.421875 
Q 53.21875 48.921875 51.53125 44.890625 
Q 49.859375 40.875 45.40625 35.40625 
Q 44.1875 33.984375 37.640625 27.21875 
Q 31.109375 20.453125 19.1875 8.296875 
z
" id="DejaVuSans-32"/>
      </defs>
      <g transform="translate(95.680992 212.428997)scale(0.18 -0.18)">
       <use xlink:href="#DejaVuSans-2d"/>
       <use x="36.083984" xlink:href="#DejaVuSans-32"/>
      </g>
     </g>
    </g>
    <g id="xtick_4">
     <g id="line2d_4">
      <g>
       <use style="fill:#808080;stroke:#808080;stroke-width:0.8;" x="147.752564" xlink:href="#m19190b6cba" y="191.75181"/>
      </g>
     </g>
     <g id="text_4">
      <!-- -1 -->
      <defs>
       <path d="M 12.40625 8.296875 
L 28.515625 8.296875 
L 28.515625 63.921875 
L 10.984375 60.40625 
L 10.984375 69.390625 
L 28.421875 72.90625 
L 38.28125 72.90625 
L 38.28125 8.296875 
L 54.390625 8.296875 
L 54.390625 0 
L 12.40625 0 
z
" id="DejaVuSans-31"/>
      </defs>
      <g transform="translate(138.779283 212.428997)scale(0.18 -0.18)">
       <use xlink:href="#DejaVuSans-2d"/>
       <use x="36.083984" xlink:href="#DejaVuSans-31"/>
      </g>
     </g>
    </g>
    <g id="xtick_5">
     <g id="line2d_5">
      <g>
       <use style="fill:#808080;stroke:#808080;stroke-width:0.8;" x="190.850855" xlink:href="#m19190b6cba" y="191.75181"/>
      </g>
     </g>
    </g>
    <g id="xtick_6">
     <g id="line2d_6">
      <g>
       <use style="fill:#808080;stroke:#808080;stroke-width:0.8;" x="233.949145" xlink:href="#m19190b6cba" y="191.75181"/>
      </g>
     </g>
     <g id="text_5">
      <!-- 1 -->
      <g transform="translate(228.222895 212.428997)scale(0.18 -0.18)">
       <use xlink:href="#DejaVuSans-31"/>
      </g>
     </g>
    </g>
    <g id="xtick_7">
     <g id="line2d_7">
      <g>
       <use style="fill:#808080;stroke:#808080;stroke-width:0.8;" x="277.047436" xlink:href="#m19190b6cba" y="191.75181"/>
      </g>
     </g>
     <g id="text_6">
      <!-- 2 -->
      <g transform="translate(271.321186 212.428997)scale(0.18 -0.18)">
       <use xlink:href="#DejaVuSans-32"/>
      </g>
     </g>
    </g>
    <g id="xtick_8">
     <g id="line2d_8">
      <g>
       <use style="fill:#808080;stroke:#808080;stroke-width:0.8;" x="320.145726" xlink:href="#m19190b6cba" y="191.75181"/>
      </g>
     </g>
     <g id="text_7">
      <!-- 3 -->
      <g transform="translate(314.419476 212.428997)scale(0.18 -0.18)">
       <use xlink:href="#DejaVuSans-33"/>
      </g>
     </g>
    </g>
    <g id="xtick_9">
     <g id="line2d_9">
      <g>
       <use style="fill:#808080;stroke:#808080;stroke-width:0.8;" x="363.244017" xlink:href="#m19190b6cba" y="191.75181"/>
      </g>
     </g>
     <g id="text_8">
      <!-- 4 -->
      <g transform="translate(357.517767 212.428997)scale(0.18 -0.18)">
       <use xlink:href="#DejaVuSans-34"/>
      </g>
     </g>
    </g>
    <g id="xtick_10">
     <g id="line2d_10">
      <g>
       <use style="fill:#808080;stroke:#808080;stroke-width:0.8;" x="406.342308" xlink:href="#m19190b6cba" y="191.75181"/>
      </g>
     </g>
     <g id="text_9">
      <!-- 5 -->
      <defs>
       <path d="M 10.796875 72.90625 
L 49.515625 72.90625 
L 49.515625 64.59375 
L 19.828125 64.59375 
L 19.828125 46.734375 
Q 21.96875 47.46875 24.109375 47.828125 
Q 26.265625 48.1875 28.421875 48.1875 
Q 40.625 48.1875 47.75 41.5 
Q 54.890625 34.8125 54.890625 23.390625 
Q 54.890625 11.625 47.5625 5.09375 
Q 40.234375 -1.421875 26.90625 -1.421875 
Q 22.3125 -1.421875 17.546875 -0.640625 
Q 12.796875 0.140625 7.71875 1.703125 
L 7.71875 11.625 
Q 12.109375 9.234375 16.796875 8.0625 
Q 21.484375 6.890625 26.703125 6.890625 
Q 35.15625 6.890625 40.078125 11.328125 
Q 45.015625 15.765625 45.015625 23.390625 
Q 45.015625 31 40.078125 35.4375 
Q 35.15625 39.890625 26.703125 39.890625 
Q 22.75 39.890625 18.8125 39.015625 
Q 14.890625 38.140625 10.796875 36.28125 
z
" id="DejaVuSans-35"/>
      </defs>
      <g transform="translate(400.616058 212.428997)scale(0.18 -0.18)">
       <use xlink:href="#DejaVuSans-35"/>
      </g>
     </g>
    </g>
   </g>
   <g id="matplotlib.axis_2"/>
   <g id="patch_3">
    <path d="M 190.850855 270.1 
L 190.850855 10.7 
" style="fill:none;stroke:#808080;stroke-linecap:square;stroke-linejoin:miter;stroke-width:2;"/>
   </g>
   <g id="patch_4">
    <path d="M 10.7 191.75181 
L 414.1 191.75181 
" style="fill:none;stroke:#808080;stroke-linecap:square;stroke-linejoin:miter;stroke-width:2;"/>
   </g>
   <g id="line2d_11">
    <path clip-path="url(#p1341f45c8c)" d="M 66.154998 281.8 
L 68.273415 268.868034 
L 70.332775 257.596831 
L 72.423368 247.378893 
L 74.430474 238.651515 
L 76.364419 231.177118 
L 78.296007 224.564789 
L 80.218115 218.771795 
L 82.079022 213.857446 
L 83.891414 209.679777 
L 85.674018 206.113188 
L 87.419164 203.103296 
L 89.189506 200.49892 
L 90.913184 198.362583 
L 92.542752 196.675258 
L 94.170535 195.28503 
L 95.818092 194.152073 
L 97.614181 193.201192 
L 99.316431 192.545462 
L 101.223313 192.061816 
L 103.215143 191.80315 
L 105.22969 191.759513 
L 107.525846 191.929764 
L 110.05478 192.328875 
L 113.306894 193.067278 
L 126.29596 196.306398 
L 129.348082 196.693584 
L 132.065774 196.80862 
L 134.462187 196.701556 
L 136.914352 196.367294 
L 139.157721 195.846448 
L 141.441228 195.092214 
L 143.812581 194.058358 
L 146.113775 192.802097 
L 148.312061 191.363196 
L 150.591721 189.620293 
L 153.090677 187.413557 
L 155.534011 184.955773 
L 158.064091 182.09972 
L 160.547971 178.992144 
L 163.344641 175.141199 
L 166.387614 170.541589 
L 169.517691 165.385897 
L 172.845298 159.462562 
L 176.586994 152.303739 
L 180.404097 144.518199 
L 184.993206 134.615469 
L 189.977557 123.343086 
L 189.977557 123.343086 
" style="fill:none;stroke:#ff0000;stroke-linecap:square;stroke-width:5;"/>
   </g>
   <g id="line2d_12">
    <path clip-path="url(#p1341f45c8c)" d="M 191.797593 119.129415 
L 212.441933 71.304578 
L 216.815641 62.042236 
L 220.509127 54.715023 
L 223.982758 48.321499 
L 226.994804 43.22457 
L 229.829184 38.849887 
L 232.468619 35.175998 
L 234.949481 32.099901 
L 237.212594 29.631502 
L 239.390445 27.575534 
L 241.489665 25.902919 
L 243.327786 24.696431 
L 245.249374 23.700763 
L 246.985475 23.040767 
L 248.800335 22.599656 
L 250.462122 22.423278 
L 252.172671 22.472914 
L 253.869726 22.757433 
L 255.507489 23.257112 
L 257.29642 24.058383 
L 258.980816 25.058853 
L 260.799858 26.409209 
L 262.579407 28.002796 
L 264.527569 30.057271 
L 266.459449 32.414449 
L 268.565801 35.346397 
L 270.80161 38.868834 
L 273.096351 42.918607 
L 275.478615 47.58088 
L 278.054829 53.135898 
L 280.816532 59.664591 
L 283.537451 66.653544 
L 286.518004 74.909247 
L 289.762681 84.558568 
L 293.309551 95.818296 
L 297.289662 109.213892 
L 302.084888 126.186734 
L 309.128082 152.058765 
L 317.207819 181.534967 
L 321.39163 195.948503 
L 324.751794 206.751852 
L 327.666487 215.375467 
L 330.143487 222.033487 
L 332.428962 227.535533 
L 334.411758 231.742423 
L 336.194404 235.024877 
L 337.857905 237.620949 
L 339.328282 239.510029 
L 340.693242 240.899091 
L 341.938297 241.841284 
L 343.068011 242.413506 
L 344.149767 242.697146 
L 345.176264 242.716651 
L 346.133687 242.506788 
L 347.019771 242.109114 
L 348.082789 241.36441 
L 349.106707 240.360826 
L 350.1685 239.01197 
L 351.320287 237.180218 
L 352.51488 234.858897 
L 353.819682 231.812327 
L 355.180746 228.040904 
L 356.60901 223.402092 
L 358.132492 217.649194 
L 359.683772 210.896941 
L 361.31723 202.764 
L 363.041982 192.980946 
L 364.84018 181.407037 
L 366.651065 168.260712 
L 368.515239 153.084278 
L 370.422406 135.744039 
L 372.424423 115.465412 
L 374.498775 92.093223 
L 376.610412 65.701992 
L 378.738934 36.305713 
L 380.934673 2.886845 
L 381.176922 -1 
L 381.176922 -1 
" style="fill:none;stroke:#ff0000;stroke-linecap:square;stroke-width:5;"/>
   </g>
  </g>
 </g>
 <defs>
  <clipPath id="p1341f45c8c">
   <rect height="259.4" width="403.4" x="10.7" y="10.7"/>
  </clipPath>
 </defs>
</svg>
