<?xml version="1.0" encoding="utf-8" standalone="no"?>
<!DOCTYPE svg PUBLIC "-//W3C//DTD SVG 1.1//EN"
  "http://www.w3.org/Graphics/SVG/1.1/DTD/svg11.dtd">
<!-- Created with matplotlib (http://matplotlib.org/) -->
<svg height="280.8pt" version="1.1" viewBox="0 0 424.8 280.8" width="424.8pt" xmlns="http://www.w3.org/2000/svg" xmlns:xlink="http://www.w3.org/1999/xlink">
 <defs>
  <style type="text/css">
*{stroke-linecap:butt;stroke-linejoin:round;}
  </style>
 </defs>
 <g id="figure_1">
  <g id="patch_1">
   <path d="M 0 280.8 
L 424.8 280.8 
L 424.8 0 
L 0 0 
z
" style="fill:#ffffff;"/>
  </g>
  <g id="axes_1">
   <g id="patch_2">
    <path d="M 10.7 270.1 
L 414.1 270.1 
L 414.1 10.7 
L 10.7 10.7 
z
" style="fill:#ffffff;"/>
   </g>
   <g id="matplotlib.axis_1">
    <g id="xtick_1">
     <g id="line2d_1">
      <defs>
       <path d="M 0 0 
L 0 3.5 
" id="m217fccd705" style="stroke:#808080;stroke-width:0.8;"/>
      </defs>
      <g>
       <use style="fill:#808080;stroke:#808080;stroke-width:0.8;" x="18.457692" xlink:href="#m217fccd705" y="140.4"/>
      </g>
     </g>
     <g id="text_1">
      <!-- -2 -->
      <defs>
       <path d="M 4.890625 31.390625 
L 31.203125 31.390625 
L 31.203125 23.390625 
L 4.890625 23.390625 
z
" id="DejaVuSans-2d"/>
       <path d="M 19.1875 8.296875 
L 53.609375 8.296875 
L 53.609375 0 
L 7.328125 0 
L 7.328125 8.296875 
Q 12.9375 14.109375 22.625 23.890625 
Q 32.328125 33.6875 34.8125 36.53125 
Q 39.546875 41.84375 41.421875 45.53125 
Q 43.3125 49.21875 43.3125 52.78125 
Q 43.3125 58.59375 39.234375 62.25 
Q 35.15625 65.921875 28.609375 65.921875 
Q 23.96875 65.921875 18.8125 64.3125 
Q 13.671875 62.703125 7.8125 59.421875 
L 7.8125 69.390625 
Q 13.765625 71.78125 18.9375 73 
Q 24.125 74.21875 28.421875 74.21875 
Q 39.75 74.21875 46.484375 68.546875 
Q 53.21875 62.890625 53.21875 53.421875 
Q 53.21875 48.921875 51.53125 44.890625 
Q 49.859375 40.875 45.40625 35.40625 
Q 44.1875 33.984375 37.640625 27.21875 
Q 31.109375 20.453125 19.1875 8.296875 
z
" id="DejaVuSans-32"/>
      </defs>
      <g transform="translate(9.484411 161.077188)scale(0.18 -0.18)">
       <use xlink:href="#DejaVuSans-2d"/>
       <use x="36.083984" xlink:href="#DejaVuSans-32"/>
      </g>
     </g>
    </g>
    <g id="xtick_2">
     <g id="line2d_2">
      <g>
       <use style="fill:#808080;stroke:#808080;stroke-width:0.8;" x="96.034615" xlink:href="#m217fccd705" y="140.4"/>
      </g>
     </g>
     <g id="text_2">
      <!-- -1 -->
      <defs>
       <path d="M 12.40625 8.296875 
L 28.515625 8.296875 
L 28.515625 63.921875 
L 10.984375 60.40625 
L 10.984375 69.390625 
L 28.421875 72.90625 
L 38.28125 72.90625 
L 38.28125 8.296875 
L 54.390625 8.296875 
L 54.390625 0 
L 12.40625 0 
z
" id="DejaVuSans-31"/>
      </defs>
      <g transform="translate(87.061334 161.077188)scale(0.18 -0.18)">
       <use xlink:href="#DejaVuSans-2d"/>
       <use x="36.083984" xlink:href="#DejaVuSans-31"/>
      </g>
     </g>
    </g>
    <g id="xtick_3">
     <g id="line2d_3">
      <g>
       <use style="fill:#808080;stroke:#808080;stroke-width:0.8;" x="173.611538" xlink:href="#m217fccd705" y="140.4"/>
      </g>
     </g>
    </g>
    <g id="xtick_4">
     <g id="line2d_4">
      <g>
       <use style="fill:#808080;stroke:#808080;stroke-width:0.8;" x="251.188462" xlink:href="#m217fccd705" y="140.4"/>
      </g>
     </g>
     <g id="text_3">
      <!-- 1 -->
      <g transform="translate(245.462212 161.077188)scale(0.18 -0.18)">
       <use xlink:href="#DejaVuSans-31"/>
      </g>
     </g>
    </g>
    <g id="xtick_5">
     <g id="line2d_5">
      <g>
       <use style="fill:#808080;stroke:#808080;stroke-width:0.8;" x="328.765385" xlink:href="#m217fccd705" y="140.4"/>
      </g>
     </g>
     <g id="text_4">
      <!-- 2 -->
      <g transform="translate(323.039135 161.077188)scale(0.18 -0.18)">
       <use xlink:href="#DejaVuSans-32"/>
      </g>
     </g>
    </g>
    <g id="xtick_6">
     <g id="line2d_6">
      <g>
       <use style="fill:#808080;stroke:#808080;stroke-width:0.8;" x="406.342308" xlink:href="#m217fccd705" y="140.4"/>
      </g>
     </g>
     <g id="text_5">
      <!-- 3 -->
      <defs>
       <path d="M 40.578125 39.3125 
Q 47.65625 37.796875 51.625 33 
Q 55.609375 28.21875 55.609375 21.1875 
Q 55.609375 10.40625 48.1875 4.484375 
Q 40.765625 -1.421875 27.09375 -1.421875 
Q 22.515625 -1.421875 17.65625 -0.515625 
Q 12.796875 0.390625 7.625 2.203125 
L 7.625 11.71875 
Q 11.71875 9.328125 16.59375 8.109375 
Q 21.484375 6.890625 26.8125 6.890625 
Q 36.078125 6.890625 40.9375 10.546875 
Q 45.796875 14.203125 45.796875 21.1875 
Q 45.796875 27.640625 41.28125 31.265625 
Q 36.765625 34.90625 28.71875 34.90625 
L 20.21875 34.90625 
L 20.21875 43.015625 
L 29.109375 43.015625 
Q 36.375 43.015625 40.234375 45.921875 
Q 44.09375 48.828125 44.09375 54.296875 
Q 44.09375 59.90625 40.109375 62.90625 
Q 36.140625 65.921875 28.71875 65.921875 
Q 24.65625 65.921875 20.015625 65.03125 
Q 15.375 64.15625 9.8125 62.3125 
L 9.8125 71.09375 
Q 15.4375 72.65625 20.34375 73.4375 
Q 25.25 74.21875 29.59375 74.21875 
Q 40.828125 74.21875 47.359375 69.109375 
Q 53.90625 64.015625 53.90625 55.328125 
Q 53.90625 49.265625 50.4375 45.09375 
Q 46.96875 40.921875 40.578125 39.3125 
z
" id="DejaVuSans-33"/>
      </defs>
      <g transform="translate(400.616058 161.077188)scale(0.18 -0.18)">
       <use xlink:href="#DejaVuSans-33"/>
      </g>
     </g>
    </g>
   </g>
   <g id="matplotlib.axis_2"/>
   <g id="patch_3">
    <path d="M 173.611538 270.1 
L 173.611538 10.7 
" style="fill:none;stroke:#808080;stroke-linecap:square;stroke-linejoin:miter;stroke-width:2;"/>
   </g>
   <g id="patch_4">
    <path d="M 10.7 140.4 
L 414.1 140.4 
" style="fill:none;stroke:#808080;stroke-linecap:square;stroke-linejoin:miter;stroke-width:2;"/>
   </g>
   <g id="line2d_7">
    <path clip-path="url(#p727952b28c)" d="M 72.465311 -1 
L 74.828035 16.784442 
L 77.04883 31.932326 
L 79.457119 46.756918 
L 81.715607 59.246052 
L 83.703179 69.180897 
L 86.065363 79.790109 
L 88.095652 87.939507 
L 90.102726 95.177097 
L 92.353123 102.39338 
L 94.489985 108.43227 
L 96.570296 113.61023 
L 98.574721 117.996584 
L 100.181939 121.118541 
L 101.963076 124.197891 
L 104.209169 127.556589 
L 105.898261 129.729674 
L 107.82852 131.876089 
L 109.89982 133.816707 
L 111.929191 135.391635 
L 114.266978 136.852322 
L 116.078117 137.755093 
L 118.209457 138.595314 
L 120.830472 139.348463 
L 123.544046 139.863544 
L 126.663439 140.203018 
L 130.742652 140.376351 
L 142.560092 140.542554 
L 146.352597 140.852708 
L 149.924787 141.377878 
L 153.432698 142.158783 
L 156.812124 143.190705 
L 159.835364 144.364129 
L 162.483307 145.594361 
L 165.511144 147.237722 
L 168.34032 149.002471 
L 171.66199 151.353816 
L 172.443386 151.949978 
L 172.443386 151.949978 
" style="fill:none;stroke:#ff0000;stroke-linecap:square;stroke-width:5;"/>
   </g>
   <g id="line2d_8">
    <path clip-path="url(#p727952b28c)" d="M 175.457278 154.398429 
L 178.664414 157.253584 
L 182.35781 160.8378 
L 185.532827 164.148259 
L 189.357257 168.380562 
L 195.143921 175.187928 
L 201.944243 183.575331 
L 213.036585 197.285565 
L 218.153376 203.247392 
L 222.306632 207.762143 
L 226.078095 211.534049 
L 229.85653 214.937317 
L 232.616494 217.152283 
L 235.754612 219.362524 
L 238.530574 221.021813 
L 241.233722 222.351983 
L 243.655311 223.291204 
L 246.338474 224.040464 
L 248.703229 224.43739 
L 251.212784 224.580275 
L 253.295266 224.476222 
L 255.316859 224.178765 
L 257.350567 223.682002 
L 259.461392 222.955327 
L 261.732428 221.932639 
L 263.64379 220.878715 
L 266.008512 219.33204 
L 268.602195 217.330857 
L 271.385437 214.836718 
L 273.957978 212.22252 
L 276.430785 209.441843 
L 279.789757 205.269191 
L 283.284761 200.485524 
L 287.135394 194.761519 
L 291.432795 187.923262 
L 296.988159 178.627674 
L 306.203451 163.146248 
L 309.66058 157.716609 
L 313.175997 152.639754 
L 315.702533 149.364325 
L 318.158233 146.554725 
L 320.276565 144.480125 
L 322.113628 142.980442 
L 323.76802 141.895415 
L 325.395371 141.097777 
L 326.849953 140.630618 
L 327.969384 140.440528 
L 329.427313 140.428665 
L 330.442805 140.58698 
L 331.787839 141.019668 
L 333.046217 141.667049 
L 334.221204 142.49487 
L 335.681014 143.840363 
L 337.214481 145.653764 
L 338.83704 148.04637 
L 340.421373 150.881674 
L 341.698974 153.547456 
L 343.351471 157.525649 
L 345.105193 162.438133 
L 346.858915 168.104371 
L 348.56496 174.382437 
L 350.369197 181.891136 
L 352.183096 190.392144 
L 354.150291 200.753515 
L 356.017161 211.748369 
L 358.0225 224.892098 
L 360.011489 239.370042 
L 362.175313 256.845488 
L 364.381471 276.621548 
L 364.92372 281.8 
L 364.92372 281.8 
" style="fill:none;stroke:#ff0000;stroke-linecap:square;stroke-width:5;"/>
   </g>
  </g>
 </g>
 <defs>
  <clipPath id="p727952b28c">
   <rect height="259.4" width="403.4" x="10.7" y="10.7"/>
  </clipPath>
 </defs>
</svg>
