<svg xmlns="http://www.w3.org/2000/svg" viewBox="0 0 142.6 189.35">
  <defs>
    <style>
      .cls-1 {
        fill: #808285;
      }

      .cls-2 {
        fill: #ed1c24;
      }
    </style>
  </defs>
  <title>Asset 1</title>
  <g id="Layer_2" data-name="Layer 2">
    <g id="Layer_1-2" data-name="Layer 1">
      <g>
        <path class="cls-1" d="M5.49,132.28c-1.24,1.48-2.41,3-3.51,4.58-.89,1.28-2.48,3-1.82,4.68.49,1.3,2.17,1.79,3.22,2.53a19.2,19.2,0,0,1,4,3.85c.4.5,1.1-.21.7-.71a20.33,20.33,0,0,0-3.36-3.39,17.6,17.6,0,0,0-1.84-1.26,6.2,6.2,0,0,1-1.54-1,1.77,1.77,0,0,1,.15-2.19c.44-.73.93-1.43,1.42-2.12C4,135.8,5,134.37,6.2,133c.41-.49-.3-1.21-.71-.71Z" transform="translate(0 -0.01)"/>
        <path class="cls-1" d="M120.56,138.77l4,2.27a9.18,9.18,0,0,1,1.78,1.08,1.58,1.58,0,0,1,.27,1.86A19.43,19.43,0,0,1,122,150.8a.5.5,0,0,0,.71.71,21.81,21.81,0,0,0,3-3.66,23,23,0,0,0,1.18-2,8.84,8.84,0,0,0,.88-2.16c.29-1.49-.65-2.32-1.83-3l-4.84-2.74a.5.5,0,0,0-.5.86Z" transform="translate(0 -0.01)"/>
        <path class="cls-1" d="M1.14,141.56a257.93,257.93,0,0,0,31.2,1.06c7.18-.23,14.3-1.13,21.48-1.37,8-.27,16-.32,24,.18,2.52.15,5,.62,7.5.79,4.28.28,8.58.29,12.86.3a60.72,60.72,0,0,1,6.74.33c1.45.16,2.9.3,4.35.4,4.36.3,8.74.36,13.11.33,1.5,0,3,0,4.48-.07a.5.5,0,0,0,0-1c-5,.12-10.05.13-15.07-.11-3.46-.17-6.9-.69-10.37-.84-4.33-.2-8.68,0-13-.19a56.24,56.24,0,0,1-5.65-.39c-1-.14-2-.32-3-.41-3.31-.29-6.64-.37-10-.43q-6.4-.12-12.81,0c-4,.09-7.93.23-11.88.58-3.34.3-6.68.61-10,.77a239.28,239.28,0,0,1-29.33-.57l-4.63-.38c-.64-.06-.64.94,0,1Z" transform="translate(0 -0.01)"/>
      </g>
      <g>
        <path class="cls-1" d="M53.75,111.86a31.23,31.23,0,0,1,3.29-4c.58-.59,1.19-1.17,1.8-1.74A11.72,11.72,0,0,1,61,104.26c.92-.49,1.29.62,1.68,1.23s.93,1.4,1.41,2.09a31.34,31.34,0,0,1,2.69,4.34c.27.59,1.13.08.86-.5a35.79,35.79,0,0,0-3.12-5c-.5-.72-1-1.45-1.44-2.21a1.81,1.81,0,0,0-1.91-1.08,5.37,5.37,0,0,0-2.36,1.67c-.75.7-1.5,1.39-2.23,2.11a34.66,34.66,0,0,0-3.7,4.42c-.37.53.5,1,.87.51Z" transform="translate(0 -0.01)"/>
        <path class="cls-1" d="M50.93,178.72a29.69,29.69,0,0,0,7.81,10.49.51.51,0,0,0,.79-.1,26.08,26.08,0,0,1,6.59-8.92c.48-.43-.23-1.13-.71-.7a26.76,26.76,0,0,0-6.75,9.12l.79-.1a29.14,29.14,0,0,1-7.65-10.29c-.26-.59-1.12-.08-.87.5Z" transform="translate(0 -0.01)"/>
        <path class="cls-1" d="M60.67,104.27l-.83,32.4c-.28,10.82-.57,21.64-.71,32.46q-.12,9.15-.07,18.31a.5.5,0,0,0,1,0c-.08-10.88.08-21.76.33-32.64s.53-21.52.81-32.28l.47-18.25c0-.64-1-.64-1,0Z" transform="translate(0 -0.01)"/>
      </g>
      <g>
        <path class="cls-2" d="M11.74,1c1,15.58,2.34,31.16,4.39,46.63C17.92,61.15,20.38,74.57,22.84,88c.92,5,1.76,10.11,2.85,15.12q1.85,8.43,4.44,16.68a129.36,129.36,0,0,0,8.87,22,40.92,40.92,0,0,0,7,9.83,39.79,39.79,0,0,0,8.42,6.89A7.91,7.91,0,0,0,60,159.52c3-.54,5.45-2.64,7.26-5A15.23,15.23,0,0,0,70,149.88c1-3.16,1.71-6.47,2.46-9.71a20.53,20.53,0,0,1,1.51-4.91c.73-1.39,2.19-3.11,3.93-3.1s2.86,1.74,3.57,3c.86,1.56,1.17,3.37,2,5,1.33,2.5,3.69,5.59,6.8,5.7,2.57.09,5-1.93,6.85-3.48a39.33,39.33,0,0,0,7.78-9.09,53,53,0,0,0,3.5-7.14c2.87-6.59,5.54-13.28,7.83-20.1,1.28-3.81,2.31-7.68,3.38-11.55Q122,85.72,124.44,77c.81-2.87,1.72-5.73,2.4-8.64a396.24,396.24,0,0,0,7.58-44.75q.79-7,1.35-14.07c.1-1.28-1.9-1.28-2,0a404.6,404.6,0,0,1-7.2,50.68c-.84,4.06-1.73,8.06-2.87,12-2.71,9.53-5.19,19.13-8,28.64-1.2,4.12-2.65,8.17-4.17,12.19q-2.16,5.67-4.57,11.25a62.79,62.79,0,0,1-3.49,7.37,38,38,0,0,1-7.37,8.86,15.79,15.79,0,0,1-4.3,2.94,3.27,3.27,0,0,1-1.82.33c.4,0-.24-.07-.34-.1a3.29,3.29,0,0,1-.86-.37,7.7,7.7,0,0,1-2.07-1.83,14.06,14.06,0,0,1-2.45-4.39,14.56,14.56,0,0,0-2.37-4.72,5.23,5.23,0,0,0-4.57-2.21c-3.76.43-5.65,4.42-6.44,7.64-.85,3.45-1.55,6.93-2.53,10.34a13.08,13.08,0,0,1-2,4.36c-1.56,2.22-3.73,4.33-6.45,5a5.88,5.88,0,0,1-1.73.17l-.33,0c.32,0-.13,0-.23,0a8.8,8.8,0,0,1-2.73-1.22,31.8,31.8,0,0,1-4.5-3.51c-1.26-1.13-2.51-2.27-3.67-3.5a42,42,0,0,1-6.65-9.95,111.47,111.47,0,0,1-4.74-10.8,170.22,170.22,0,0,1-8.37-29.39c-2.74-14.58-5.49-29.19-7.71-43.86s-3.7-29.74-4.82-44.68Q14,5.86,13.74,1c-.08-1.28-2.08-1.29-2,0Z" transform="translate(0 -0.01)"/>
        <path class="cls-2" d="M7.65,15.6a58.85,58.85,0,0,1,2.26-7q.67-1.7,1.47-3.33c.26-.55.54-1.1.82-1.64A6.9,6.9,0,0,1,13,2.19c.53-.61,1.22.77,1.43,1.16.61,1.17,1.18,2.36,1.77,3.54L19.78,14c.57,1.15,2.3.14,1.72-1l-3.16-6.3L16.79,3.56A10.23,10.23,0,0,0,15.16.9,2.55,2.55,0,0,0,12.7.08c-1,.25-1.47,1.15-1.91,2A59.39,59.39,0,0,0,8,8a58.37,58.37,0,0,0-2.31,7.07,1,1,0,0,0,1.93.53Z" transform="translate(0 -0.01)"/>
        <path class="cls-2" d="M126.68,19.29l3.79-6.1,1.83-2.94c.38-.6.88-1.76,1.64-2s1.64.8,2.11,1.32a22.08,22.08,0,0,1,1.81,2.28,23,23,0,0,1,2.75,5.42c.42,1.2,2.35.68,1.93-.54a25.14,25.14,0,0,0-2.37-5,20.78,20.78,0,0,0-3.43-4.32c-1.39-1.25-3.24-1.66-4.69-.27a11,11,0,0,0-1.54,2.17l-1.7,2.74L125,18.28c-.68,1.09,1,2.1,1.73,1Z" transform="translate(0 -0.01)"/>
      </g>
    </g>
  </g>
</svg>
