<?xml version="1.0" encoding="utf-8" standalone="no"?>
<!DOCTYPE svg PUBLIC "-//W3C//DTD SVG 1.1//EN"
  "http://www.w3.org/Graphics/SVG/1.1/DTD/svg11.dtd">
<!-- Created with matplotlib (http://matplotlib.org/) -->
<svg height="280.8pt" version="1.1" viewBox="0 0 424.8 280.8" width="424.8pt" xmlns="http://www.w3.org/2000/svg" xmlns:xlink="http://www.w3.org/1999/xlink">
 <defs>
  <style type="text/css">
*{stroke-linecap:butt;stroke-linejoin:round;}
  </style>
 </defs>
 <g id="figure_1">
  <g id="patch_1">
   <path d="M 0 280.8 
L 424.8 280.8 
L 424.8 0 
L 0 0 
z
" style="fill:#ffffff;"/>
  </g>
  <g id="axes_1">
   <g id="patch_2">
    <path d="M 10.7 270.1 
L 414.1 270.1 
L 414.1 10.7 
L 10.7 10.7 
z
" style="fill:#ffffff;"/>
   </g>
   <g id="matplotlib.axis_1">
    <g id="xtick_1">
     <g id="line2d_1">
      <defs>
       <path d="M 0 0 
L 0 3.5 
" id="md8c9343add" style="stroke:#808080;stroke-width:0.8;"/>
      </defs>
      <g>
       <use style="fill:#808080;stroke:#808080;stroke-width:0.8;" x="18.457692" xlink:href="#md8c9343add" y="242.436713"/>
      </g>
     </g>
     <g id="text_1">
      <!-- -4 -->
      <defs>
       <path d="M 4.890625 31.390625 
L 31.203125 31.390625 
L 31.203125 23.390625 
L 4.890625 23.390625 
z
" id="DejaVuSans-2d"/>
       <path d="M 37.796875 64.3125 
L 12.890625 25.390625 
L 37.796875 25.390625 
z
M 35.203125 72.90625 
L 47.609375 72.90625 
L 47.609375 25.390625 
L 58.015625 25.390625 
L 58.015625 17.1875 
L 47.609375 17.1875 
L 47.609375 0 
L 37.796875 0 
L 37.796875 17.1875 
L 4.890625 17.1875 
L 4.890625 26.703125 
z
" id="DejaVuSans-34"/>
      </defs>
      <g transform="translate(9.484411 263.113901)scale(0.18 -0.18)">
       <use xlink:href="#DejaVuSans-2d"/>
       <use x="36.083984" xlink:href="#DejaVuSans-34"/>
      </g>
     </g>
    </g>
    <g id="xtick_2">
     <g id="line2d_2">
      <g>
       <use style="fill:#808080;stroke:#808080;stroke-width:0.8;" x="66.943269" xlink:href="#md8c9343add" y="242.436713"/>
      </g>
     </g>
     <g id="text_2">
      <!-- -3 -->
      <defs>
       <path d="M 40.578125 39.3125 
Q 47.65625 37.796875 51.625 33 
Q 55.609375 28.21875 55.609375 21.1875 
Q 55.609375 10.40625 48.1875 4.484375 
Q 40.765625 -1.421875 27.09375 -1.421875 
Q 22.515625 -1.421875 17.65625 -0.515625 
Q 12.796875 0.390625 7.625 2.203125 
L 7.625 11.71875 
Q 11.71875 9.328125 16.59375 8.109375 
Q 21.484375 6.890625 26.8125 6.890625 
Q 36.078125 6.890625 40.9375 10.546875 
Q 45.796875 14.203125 45.796875 21.1875 
Q 45.796875 27.640625 41.28125 31.265625 
Q 36.765625 34.90625 28.71875 34.90625 
L 20.21875 34.90625 
L 20.21875 43.015625 
L 29.109375 43.015625 
Q 36.375 43.015625 40.234375 45.921875 
Q 44.09375 48.828125 44.09375 54.296875 
Q 44.09375 59.90625 40.109375 62.90625 
Q 36.140625 65.921875 28.71875 65.921875 
Q 24.65625 65.921875 20.015625 65.03125 
Q 15.375 64.15625 9.8125 62.3125 
L 9.8125 71.09375 
Q 15.4375 72.65625 20.34375 73.4375 
Q 25.25 74.21875 29.59375 74.21875 
Q 40.828125 74.21875 47.359375 69.109375 
Q 53.90625 64.015625 53.90625 55.328125 
Q 53.90625 49.265625 50.4375 45.09375 
Q 46.96875 40.921875 40.578125 39.3125 
z
" id="DejaVuSans-33"/>
      </defs>
      <g transform="translate(57.969988 263.113901)scale(0.18 -0.18)">
       <use xlink:href="#DejaVuSans-2d"/>
       <use x="36.083984" xlink:href="#DejaVuSans-33"/>
      </g>
     </g>
    </g>
    <g id="xtick_3">
     <g id="line2d_3">
      <g>
       <use style="fill:#808080;stroke:#808080;stroke-width:0.8;" x="115.428846" xlink:href="#md8c9343add" y="242.436713"/>
      </g>
     </g>
     <g id="text_3">
      <!-- -2 -->
      <defs>
       <path d="M 19.1875 8.296875 
L 53.609375 8.296875 
L 53.609375 0 
L 7.328125 0 
L 7.328125 8.296875 
Q 12.9375 14.109375 22.625 23.890625 
Q 32.328125 33.6875 34.8125 36.53125 
Q 39.546875 41.84375 41.421875 45.53125 
Q 43.3125 49.21875 43.3125 52.78125 
Q 43.3125 58.59375 39.234375 62.25 
Q 35.15625 65.921875 28.609375 65.921875 
Q 23.96875 65.921875 18.8125 64.3125 
Q 13.671875 62.703125 7.8125 59.421875 
L 7.8125 69.390625 
Q 13.765625 71.78125 18.9375 73 
Q 24.125 74.21875 28.421875 74.21875 
Q 39.75 74.21875 46.484375 68.546875 
Q 53.21875 62.890625 53.21875 53.421875 
Q 53.21875 48.921875 51.53125 44.890625 
Q 49.859375 40.875 45.40625 35.40625 
Q 44.1875 33.984375 37.640625 27.21875 
Q 31.109375 20.453125 19.1875 8.296875 
z
" id="DejaVuSans-32"/>
      </defs>
      <g transform="translate(106.455565 263.113901)scale(0.18 -0.18)">
       <use xlink:href="#DejaVuSans-2d"/>
       <use x="36.083984" xlink:href="#DejaVuSans-32"/>
      </g>
     </g>
    </g>
    <g id="xtick_4">
     <g id="line2d_4">
      <g>
       <use style="fill:#808080;stroke:#808080;stroke-width:0.8;" x="163.914423" xlink:href="#md8c9343add" y="242.436713"/>
      </g>
     </g>
     <g id="text_4">
      <!-- -1 -->
      <defs>
       <path d="M 12.40625 8.296875 
L 28.515625 8.296875 
L 28.515625 63.921875 
L 10.984375 60.40625 
L 10.984375 69.390625 
L 28.421875 72.90625 
L 38.28125 72.90625 
L 38.28125 8.296875 
L 54.390625 8.296875 
L 54.390625 0 
L 12.40625 0 
z
" id="DejaVuSans-31"/>
      </defs>
      <g transform="translate(154.941142 263.113901)scale(0.18 -0.18)">
       <use xlink:href="#DejaVuSans-2d"/>
       <use x="36.083984" xlink:href="#DejaVuSans-31"/>
      </g>
     </g>
    </g>
    <g id="xtick_5">
     <g id="line2d_5">
      <g>
       <use style="fill:#808080;stroke:#808080;stroke-width:0.8;" x="212.4" xlink:href="#md8c9343add" y="242.436713"/>
      </g>
     </g>
    </g>
    <g id="xtick_6">
     <g id="line2d_6">
      <g>
       <use style="fill:#808080;stroke:#808080;stroke-width:0.8;" x="260.885577" xlink:href="#md8c9343add" y="242.436713"/>
      </g>
     </g>
     <g id="text_5">
      <!-- 1 -->
      <g transform="translate(255.159327 263.113901)scale(0.18 -0.18)">
       <use xlink:href="#DejaVuSans-31"/>
      </g>
     </g>
    </g>
    <g id="xtick_7">
     <g id="line2d_7">
      <g>
       <use style="fill:#808080;stroke:#808080;stroke-width:0.8;" x="309.371154" xlink:href="#md8c9343add" y="242.436713"/>
      </g>
     </g>
     <g id="text_6">
      <!-- 2 -->
      <g transform="translate(303.644904 263.113901)scale(0.18 -0.18)">
       <use xlink:href="#DejaVuSans-32"/>
      </g>
     </g>
    </g>
    <g id="xtick_8">
     <g id="line2d_8">
      <g>
       <use style="fill:#808080;stroke:#808080;stroke-width:0.8;" x="357.856731" xlink:href="#md8c9343add" y="242.436713"/>
      </g>
     </g>
     <g id="text_7">
      <!-- 3 -->
      <g transform="translate(352.130481 263.113901)scale(0.18 -0.18)">
       <use xlink:href="#DejaVuSans-33"/>
      </g>
     </g>
    </g>
    <g id="xtick_9">
     <g id="line2d_9">
      <g>
       <use style="fill:#808080;stroke:#808080;stroke-width:0.8;" x="406.342308" xlink:href="#md8c9343add" y="242.436713"/>
      </g>
     </g>
     <g id="text_8">
      <!-- 4 -->
      <g transform="translate(400.616058 263.113901)scale(0.18 -0.18)">
       <use xlink:href="#DejaVuSans-34"/>
      </g>
     </g>
    </g>
   </g>
   <g id="matplotlib.axis_2"/>
   <g id="patch_3">
    <path d="M 212.4 270.1 
L 212.4 10.7 
" style="fill:none;stroke:#808080;stroke-linecap:square;stroke-linejoin:miter;stroke-width:2;"/>
   </g>
   <g id="patch_4">
    <path d="M 10.7 242.436713 
L 414.1 242.436713 
" style="fill:none;stroke:#808080;stroke-linecap:square;stroke-linejoin:miter;stroke-width:2;"/>
   </g>
   <g id="line2d_10">
    <path clip-path="url(#p61124c491d)" d="M 18.457692 28.159615 
L 21.196708 53.012817 
L 23.871267 75.266305 
L 26.555352 95.713831 
L 29.144698 113.754321 
L 31.710229 130.09277 
L 34.259093 144.900673 
L 36.783173 158.249656 
L 39.272614 170.211987 
L 41.715777 180.861611 
L 44.123433 190.365616 
L 46.466001 198.727763 
L 48.801153 206.249776 
L 51.13706 213.013759 
L 53.420704 218.939357 
L 55.630848 224.070227 
L 57.861044 228.685787 
L 60.048151 232.701316 
L 62.218453 236.220758 
L 64.416678 239.346808 
L 66.505639 241.938094 
L 68.522347 244.114712 
L 70.622448 246.067253 
L 72.690388 247.700852 
L 74.897104 249.153719 
L 77.013719 250.289675 
L 79.329822 251.270413 
L 81.686751 252.014863 
L 84.225333 252.562045 
L 86.895825 252.887359 
L 89.483652 252.990514 
L 92.610607 252.87957 
L 96.070727 252.511332 
L 99.774787 251.896453 
L 104.458898 250.890337 
L 111.210524 249.199667 
L 122.743206 246.31057 
L 128.414871 245.106441 
L 133.930753 244.147531 
L 139.383867 243.425159 
L 144.6577 242.937307 
L 150.825671 242.601473 
L 157.477921 242.457181 
L 178.196065 242.190365 
L 183.191349 241.821314 
L 187.687827 241.268632 
L 191.59877 240.576135 
L 195.337424 239.697384 
L 198.878847 238.643311 
L 202.194165 237.440023 
L 205.706716 235.916125 
L 209.007488 234.232977 
L 212.021938 232.469939 
L 212.021938 232.469939 
" style="fill:none;stroke:#ff0000;stroke-linecap:square;stroke-width:5;"/>
   </g>
   <g id="line2d_11">
    <path clip-path="url(#p61124c491d)" d="M 212.640107 232.080729 
L 215.927896 229.847147 
L 219.156358 227.378017 
L 222.358104 224.650186 
L 225.709144 221.489722 
L 228.9027 218.181934 
L 232.371612 214.258695 
L 235.829367 210.005762 
L 239.32779 205.358502 
L 243.004393 200.1096 
L 246.913044 194.134625 
L 251.116636 187.281313 
L 255.644558 179.447715 
L 260.72762 170.17256 
L 266.355476 159.441699 
L 276.373603 139.743172 
L 283.78578 125.38178 
L 288.426442 116.84105 
L 292.237353 110.262782 
L 295.535973 104.992264 
L 298.477521 100.701193 
L 301.141629 97.207381 
L 303.456893 94.517667 
L 305.57115 92.376402 
L 307.565201 90.66001 
L 309.340277 89.401179 
L 311.015105 88.463632 
L 312.600464 87.8152 
L 314.186849 87.413746 
L 315.66296 87.275503 
L 317.099389 87.370733 
L 318.482167 87.687437 
L 319.859292 88.232922 
L 321.2881 89.053086 
L 322.667416 90.101808 
L 324.073975 91.44307 
L 325.606914 93.231736 
L 327.11085 95.333158 
L 328.637563 97.833799 
L 330.338808 101.076868 
L 332.044095 104.833795 
L 333.796876 109.249429 
L 335.641601 114.533329 
L 337.510298 120.584768 
L 339.460829 127.689401 
L 341.445227 135.785428 
L 343.513001 145.200834 
L 345.60509 155.796265 
L 347.716628 167.636729 
L 349.934137 181.375164 
L 352.152165 196.521468 
L 354.471447 213.939559 
L 356.796698 233.107915 
L 359.227525 255.06728 
L 361.619819 278.694116 
L 361.919498 281.8 
L 361.919498 281.8 
" style="fill:none;stroke:#ff0000;stroke-linecap:square;stroke-width:5;"/>
   </g>
  </g>
 </g>
 <defs>
  <clipPath id="p61124c491d">
   <rect height="259.4" width="403.4" x="10.7" y="10.7"/>
  </clipPath>
 </defs>
</svg>
