<?xml version="1.0" encoding="utf-8" standalone="no"?>
<!DOCTYPE svg PUBLIC "-//W3C//DTD SVG 1.1//EN"
  "http://www.w3.org/Graphics/SVG/1.1/DTD/svg11.dtd">
<!-- Created with matplotlib (http://matplotlib.org/) -->
<svg height="280.8pt" version="1.1" viewBox="0 0 424.8 280.8" width="424.8pt" xmlns="http://www.w3.org/2000/svg" xmlns:xlink="http://www.w3.org/1999/xlink">
 <defs>
  <style type="text/css">
*{stroke-linecap:butt;stroke-linejoin:round;}
  </style>
 </defs>
 <g id="figure_1">
  <g id="patch_1">
   <path d="M 0 280.8 
L 424.8 280.8 
L 424.8 0 
L 0 0 
z
" style="fill:#ffffff;"/>
  </g>
  <g id="axes_1">
   <g id="patch_2">
    <path d="M 10.7 270.1 
L 414.1 270.1 
L 414.1 10.7 
L 10.7 10.7 
z
" style="fill:#ffffff;"/>
   </g>
   <g id="matplotlib.axis_1">
    <g id="xtick_1">
     <g id="line2d_1">
      <defs>
       <path d="M 0 0 
L 0 3.5 
" id="med4b5dee35" style="stroke:#808080;stroke-width:0.8;"/>
      </defs>
      <g>
       <use style="fill:#808080;stroke:#808080;stroke-width:0.8;" x="18.457692" xlink:href="#med4b5dee35" y="140.4"/>
      </g>
     </g>
     <g id="text_1">
      <!-- -3 -->
      <defs>
       <path d="M 4.890625 31.390625 
L 31.203125 31.390625 
L 31.203125 23.390625 
L 4.890625 23.390625 
z
" id="DejaVuSans-2d"/>
       <path d="M 40.578125 39.3125 
Q 47.65625 37.796875 51.625 33 
Q 55.609375 28.21875 55.609375 21.1875 
Q 55.609375 10.40625 48.1875 4.484375 
Q 40.765625 -1.421875 27.09375 -1.421875 
Q 22.515625 -1.421875 17.65625 -0.515625 
Q 12.796875 0.390625 7.625 2.203125 
L 7.625 11.71875 
Q 11.71875 9.328125 16.59375 8.109375 
Q 21.484375 6.890625 26.8125 6.890625 
Q 36.078125 6.890625 40.9375 10.546875 
Q 45.796875 14.203125 45.796875 21.1875 
Q 45.796875 27.640625 41.28125 31.265625 
Q 36.765625 34.90625 28.71875 34.90625 
L 20.21875 34.90625 
L 20.21875 43.015625 
L 29.109375 43.015625 
Q 36.375 43.015625 40.234375 45.921875 
Q 44.09375 48.828125 44.09375 54.296875 
Q 44.09375 59.90625 40.109375 62.90625 
Q 36.140625 65.921875 28.71875 65.921875 
Q 24.65625 65.921875 20.015625 65.03125 
Q 15.375 64.15625 9.8125 62.3125 
L 9.8125 71.09375 
Q 15.4375 72.65625 20.34375 73.4375 
Q 25.25 74.21875 29.59375 74.21875 
Q 40.828125 74.21875 47.359375 69.109375 
Q 53.90625 64.015625 53.90625 55.328125 
Q 53.90625 49.265625 50.4375 45.09375 
Q 46.96875 40.921875 40.578125 39.3125 
z
" id="DejaVuSans-33"/>
      </defs>
      <g transform="translate(9.484411 161.077188)scale(0.18 -0.18)">
       <use xlink:href="#DejaVuSans-2d"/>
       <use x="36.083984" xlink:href="#DejaVuSans-33"/>
      </g>
     </g>
    </g>
    <g id="xtick_2">
     <g id="line2d_2">
      <g>
       <use style="fill:#808080;stroke:#808080;stroke-width:0.8;" x="83.105128" xlink:href="#med4b5dee35" y="140.4"/>
      </g>
     </g>
     <g id="text_2">
      <!-- -2 -->
      <defs>
       <path d="M 19.1875 8.296875 
L 53.609375 8.296875 
L 53.609375 0 
L 7.328125 0 
L 7.328125 8.296875 
Q 12.9375 14.109375 22.625 23.890625 
Q 32.328125 33.6875 34.8125 36.53125 
Q 39.546875 41.84375 41.421875 45.53125 
Q 43.3125 49.21875 43.3125 52.78125 
Q 43.3125 58.59375 39.234375 62.25 
Q 35.15625 65.921875 28.609375 65.921875 
Q 23.96875 65.921875 18.8125 64.3125 
Q 13.671875 62.703125 7.8125 59.421875 
L 7.8125 69.390625 
Q 13.765625 71.78125 18.9375 73 
Q 24.125 74.21875 28.421875 74.21875 
Q 39.75 74.21875 46.484375 68.546875 
Q 53.21875 62.890625 53.21875 53.421875 
Q 53.21875 48.921875 51.53125 44.890625 
Q 49.859375 40.875 45.40625 35.40625 
Q 44.1875 33.984375 37.640625 27.21875 
Q 31.109375 20.453125 19.1875 8.296875 
z
" id="DejaVuSans-32"/>
      </defs>
      <g transform="translate(74.131847 161.077188)scale(0.18 -0.18)">
       <use xlink:href="#DejaVuSans-2d"/>
       <use x="36.083984" xlink:href="#DejaVuSans-32"/>
      </g>
     </g>
    </g>
    <g id="xtick_3">
     <g id="line2d_3">
      <g>
       <use style="fill:#808080;stroke:#808080;stroke-width:0.8;" x="147.752564" xlink:href="#med4b5dee35" y="140.4"/>
      </g>
     </g>
     <g id="text_3">
      <!-- -1 -->
      <defs>
       <path d="M 12.40625 8.296875 
L 28.515625 8.296875 
L 28.515625 63.921875 
L 10.984375 60.40625 
L 10.984375 69.390625 
L 28.421875 72.90625 
L 38.28125 72.90625 
L 38.28125 8.296875 
L 54.390625 8.296875 
L 54.390625 0 
L 12.40625 0 
z
" id="DejaVuSans-31"/>
      </defs>
      <g transform="translate(138.779283 161.077188)scale(0.18 -0.18)">
       <use xlink:href="#DejaVuSans-2d"/>
       <use x="36.083984" xlink:href="#DejaVuSans-31"/>
      </g>
     </g>
    </g>
    <g id="xtick_4">
     <g id="line2d_4">
      <g>
       <use style="fill:#808080;stroke:#808080;stroke-width:0.8;" x="212.4" xlink:href="#med4b5dee35" y="140.4"/>
      </g>
     </g>
    </g>
    <g id="xtick_5">
     <g id="line2d_5">
      <g>
       <use style="fill:#808080;stroke:#808080;stroke-width:0.8;" x="277.047436" xlink:href="#med4b5dee35" y="140.4"/>
      </g>
     </g>
     <g id="text_4">
      <!-- 1 -->
      <g transform="translate(271.321186 161.077188)scale(0.18 -0.18)">
       <use xlink:href="#DejaVuSans-31"/>
      </g>
     </g>
    </g>
    <g id="xtick_6">
     <g id="line2d_6">
      <g>
       <use style="fill:#808080;stroke:#808080;stroke-width:0.8;" x="341.694872" xlink:href="#med4b5dee35" y="140.4"/>
      </g>
     </g>
     <g id="text_5">
      <!-- 2 -->
      <g transform="translate(335.968622 161.077188)scale(0.18 -0.18)">
       <use xlink:href="#DejaVuSans-32"/>
      </g>
     </g>
    </g>
    <g id="xtick_7">
     <g id="line2d_7">
      <g>
       <use style="fill:#808080;stroke:#808080;stroke-width:0.8;" x="406.342308" xlink:href="#med4b5dee35" y="140.4"/>
      </g>
     </g>
     <g id="text_6">
      <!-- 3 -->
      <g transform="translate(400.616058 161.077188)scale(0.18 -0.18)">
       <use xlink:href="#DejaVuSans-33"/>
      </g>
     </g>
    </g>
   </g>
   <g id="matplotlib.axis_2"/>
   <g id="patch_3">
    <path d="M 212.4 270.1 
L 212.4 10.7 
" style="fill:none;stroke:#808080;stroke-linecap:square;stroke-linejoin:miter;stroke-width:2;"/>
   </g>
   <g id="patch_4">
    <path d="M 10.7 140.4 
L 414.1 140.4 
" style="fill:none;stroke:#808080;stroke-linecap:square;stroke-linejoin:miter;stroke-width:2;"/>
   </g>
   <g id="line2d_8">
    <path clip-path="url(#pff4682a13f)" d="M 72.168535 281.8 
L 74.330426 246.895527 
L 76.433356 216.449415 
L 78.442016 190.40208 
L 80.356281 168.176196 
L 82.403604 147.043872 
L 84.415913 128.768007 
L 86.279039 113.914728 
L 88.124685 101.039355 
L 89.844275 90.590117 
L 91.507263 81.818571 
L 93.20873 74.119531 
L 94.677845 68.448367 
L 96.07139 63.857121 
L 97.412189 60.1245 
L 98.829544 56.86854 
L 100.155081 54.429052 
L 101.404611 52.635071 
L 102.426121 51.513875 
L 103.433043 50.697815 
L 104.155411 50.281677 
L 105.118567 49.937482 
L 105.927456 49.826895 
L 107.014509 49.922762 
L 107.849001 50.177741 
L 108.941553 50.737213 
L 110.034105 51.538668 
L 111.20504 52.649571 
L 112.899309 54.683479 
L 114.66064 57.283182 
L 116.462949 60.398543 
L 118.280153 63.948819 
L 120.568517 68.91923 
L 123.456407 75.836537 
L 126.820585 84.562398 
L 132.237082 99.457056 
L 139.914521 120.672161 
L 144.157112 131.713712 
L 147.749379 140.392625 
L 150.739155 147.035826 
L 153.680845 152.987277 
L 156.503138 158.103398 
L 158.798799 161.810608 
L 161.099863 165.101579 
L 163.123523 167.635618 
L 165.425324 170.101761 
L 167.61877 172.036478 
L 169.582225 173.424251 
L 171.520574 174.477118 
L 173.108689 175.107127 
L 174.809951 175.552667 
L 176.254503 175.747625 
L 178.067439 175.758751 
L 179.65734 175.559477 
L 181.513669 175.086807 
L 183.405913 174.34793 
L 185.128 173.45888 
L 186.821018 172.392392 
L 189.077375 170.690035 
L 191.046225 168.958521 
L 193.79799 166.186147 
L 196.84405 162.68977 
L 200.064367 158.577234 
L 203.581573 153.69396 
L 207.601581 147.754373 
L 210.307784 143.624653 
L 210.307784 143.624653 
" style="fill:none;stroke:#ff0000;stroke-linecap:square;stroke-width:5;"/>
   </g>
   <g id="line2d_9">
    <path clip-path="url(#pff4682a13f)" d="M 214.613709 136.988629 
L 220.713989 127.833558 
L 224.526027 122.503344 
L 227.856868 118.230783 
L 230.610907 115.0389 
L 233.006695 112.555016 
L 235.708929 110.121238 
L 237.534862 108.717854 
L 239.849782 107.240047 
L 241.297304 106.496647 
L 243.038083 105.795553 
L 244.693119 105.331556 
L 246.653821 105.046566 
L 248.427701 105.04381 
L 250.366214 105.325601 
L 252.067845 105.823435 
L 253.582209 106.466694 
L 255.444946 107.519726 
L 257.175828 108.759258 
L 258.423896 109.809757 
L 260.067877 111.394059 
L 262.261536 113.862 
L 264.593703 116.925097 
L 266.895244 120.38353 
L 269.301367 124.44836 
L 271.730769 128.999579 
L 274.262467 134.193998 
L 277.316912 141.025973 
L 280.307087 148.246105 
L 283.417459 156.225653 
L 287.626016 167.589155 
L 299.809528 201.057876 
L 302.704024 208.300758 
L 305.08176 213.786756 
L 307.717818 219.234998 
L 309.62346 222.669615 
L 311.463782 225.515664 
L 313.075805 227.578956 
L 314.719607 229.222256 
L 315.960146 230.125308 
L 317.151112 230.69733 
L 318.317292 230.958347 
L 319.483471 230.904349 
L 320.436434 230.612792 
L 321.441747 230.05114 
L 322.339582 229.318564 
L 323.525118 228.000682 
L 324.774745 226.156912 
L 326.024372 223.82009 
L 327.480729 220.437719 
L 328.85672 216.551685 
L 330.20554 212.053022 
L 331.586591 206.699936 
L 333.152152 199.665365 
L 334.816213 190.995015 
L 336.452578 181.196206 
L 338.161327 169.534029 
L 339.965873 155.534509 
L 341.684976 140.491605 
L 343.554582 122.126667 
L 345.390509 101.938252 
L 347.400801 77.234018 
L 349.386081 50.009174 
L 351.50406 17.673623 
L 352.631496 -1 
L 352.631496 -1 
" style="fill:none;stroke:#ff0000;stroke-linecap:square;stroke-width:5;"/>
   </g>
  </g>
 </g>
 <defs>
  <clipPath id="pff4682a13f">
   <rect height="259.4" width="403.4" x="10.7" y="10.7"/>
  </clipPath>
 </defs>
</svg>
