<?xml version="1.0" encoding="utf-8" standalone="no"?>
<!DOCTYPE svg PUBLIC "-//W3C//DTD SVG 1.1//EN"
  "http://www.w3.org/Graphics/SVG/1.1/DTD/svg11.dtd">
<!-- Created with matplotlib (http://matplotlib.org/) -->
<svg height="280.8pt" version="1.1" viewBox="0 0 424.8 280.8" width="424.8pt" xmlns="http://www.w3.org/2000/svg" xmlns:xlink="http://www.w3.org/1999/xlink">
 <defs>
  <style type="text/css">
*{stroke-linecap:butt;stroke-linejoin:round;}
  </style>
 </defs>
 <g id="figure_1">
  <g id="patch_1">
   <path d="M 0 280.8 
L 424.8 280.8 
L 424.8 0 
L 0 0 
z
" style="fill:#ffffff;"/>
  </g>
  <g id="axes_1">
   <g id="patch_2">
    <path d="M 10.7 270.1 
L 414.1 270.1 
L 414.1 10.7 
L 10.7 10.7 
z
" style="fill:#ffffff;"/>
   </g>
   <g id="matplotlib.axis_1">
    <g id="xtick_1">
     <g id="line2d_1">
      <defs>
       <path d="M 0 0 
L 0 3.5 
" id="mcd0fe2cf2b" style="stroke:#808080;stroke-width:0.8;"/>
      </defs>
      <g>
       <use style="fill:#808080;stroke:#808080;stroke-width:0.8;" x="18.457692" xlink:href="#mcd0fe2cf2b" y="181.970513"/>
      </g>
     </g>
     <g id="text_1">
      <!-- -1 -->
      <defs>
       <path d="M 4.890625 31.390625 
L 31.203125 31.390625 
L 31.203125 23.390625 
L 4.890625 23.390625 
z
" id="DejaVuSans-2d"/>
       <path d="M 12.40625 8.296875 
L 28.515625 8.296875 
L 28.515625 63.921875 
L 10.984375 60.40625 
L 10.984375 69.390625 
L 28.421875 72.90625 
L 38.28125 72.90625 
L 38.28125 8.296875 
L 54.390625 8.296875 
L 54.390625 0 
L 12.40625 0 
z
" id="DejaVuSans-31"/>
      </defs>
      <g transform="translate(9.484411 202.6477)scale(0.18 -0.18)">
       <use xlink:href="#DejaVuSans-2d"/>
       <use x="36.083984" xlink:href="#DejaVuSans-31"/>
      </g>
     </g>
    </g>
    <g id="xtick_2">
     <g id="line2d_2">
      <g>
       <use style="fill:#808080;stroke:#808080;stroke-width:0.8;" x="83.105128" xlink:href="#mcd0fe2cf2b" y="181.970513"/>
      </g>
     </g>
    </g>
    <g id="xtick_3">
     <g id="line2d_3">
      <g>
       <use style="fill:#808080;stroke:#808080;stroke-width:0.8;" x="147.752564" xlink:href="#mcd0fe2cf2b" y="181.970513"/>
      </g>
     </g>
     <g id="text_2">
      <!-- 1 -->
      <g transform="translate(142.026314 202.6477)scale(0.18 -0.18)">
       <use xlink:href="#DejaVuSans-31"/>
      </g>
     </g>
    </g>
    <g id="xtick_4">
     <g id="line2d_4">
      <g>
       <use style="fill:#808080;stroke:#808080;stroke-width:0.8;" x="212.4" xlink:href="#mcd0fe2cf2b" y="181.970513"/>
      </g>
     </g>
     <g id="text_3">
      <!-- 2 -->
      <defs>
       <path d="M 19.1875 8.296875 
L 53.609375 8.296875 
L 53.609375 0 
L 7.328125 0 
L 7.328125 8.296875 
Q 12.9375 14.109375 22.625 23.890625 
Q 32.328125 33.6875 34.8125 36.53125 
Q 39.546875 41.84375 41.421875 45.53125 
Q 43.3125 49.21875 43.3125 52.78125 
Q 43.3125 58.59375 39.234375 62.25 
Q 35.15625 65.921875 28.609375 65.921875 
Q 23.96875 65.921875 18.8125 64.3125 
Q 13.671875 62.703125 7.8125 59.421875 
L 7.8125 69.390625 
Q 13.765625 71.78125 18.9375 73 
Q 24.125 74.21875 28.421875 74.21875 
Q 39.75 74.21875 46.484375 68.546875 
Q 53.21875 62.890625 53.21875 53.421875 
Q 53.21875 48.921875 51.53125 44.890625 
Q 49.859375 40.875 45.40625 35.40625 
Q 44.1875 33.984375 37.640625 27.21875 
Q 31.109375 20.453125 19.1875 8.296875 
z
" id="DejaVuSans-32"/>
      </defs>
      <g transform="translate(206.67375 202.6477)scale(0.18 -0.18)">
       <use xlink:href="#DejaVuSans-32"/>
      </g>
     </g>
    </g>
    <g id="xtick_5">
     <g id="line2d_5">
      <g>
       <use style="fill:#808080;stroke:#808080;stroke-width:0.8;" x="277.047436" xlink:href="#mcd0fe2cf2b" y="181.970513"/>
      </g>
     </g>
     <g id="text_4">
      <!-- 3 -->
      <defs>
       <path d="M 40.578125 39.3125 
Q 47.65625 37.796875 51.625 33 
Q 55.609375 28.21875 55.609375 21.1875 
Q 55.609375 10.40625 48.1875 4.484375 
Q 40.765625 -1.421875 27.09375 -1.421875 
Q 22.515625 -1.421875 17.65625 -0.515625 
Q 12.796875 0.390625 7.625 2.203125 
L 7.625 11.71875 
Q 11.71875 9.328125 16.59375 8.109375 
Q 21.484375 6.890625 26.8125 6.890625 
Q 36.078125 6.890625 40.9375 10.546875 
Q 45.796875 14.203125 45.796875 21.1875 
Q 45.796875 27.640625 41.28125 31.265625 
Q 36.765625 34.90625 28.71875 34.90625 
L 20.21875 34.90625 
L 20.21875 43.015625 
L 29.109375 43.015625 
Q 36.375 43.015625 40.234375 45.921875 
Q 44.09375 48.828125 44.09375 54.296875 
Q 44.09375 59.90625 40.109375 62.90625 
Q 36.140625 65.921875 28.71875 65.921875 
Q 24.65625 65.921875 20.015625 65.03125 
Q 15.375 64.15625 9.8125 62.3125 
L 9.8125 71.09375 
Q 15.4375 72.65625 20.34375 73.4375 
Q 25.25 74.21875 29.59375 74.21875 
Q 40.828125 74.21875 47.359375 69.109375 
Q 53.90625 64.015625 53.90625 55.328125 
Q 53.90625 49.265625 50.4375 45.09375 
Q 46.96875 40.921875 40.578125 39.3125 
z
" id="DejaVuSans-33"/>
      </defs>
      <g transform="translate(271.321186 202.6477)scale(0.18 -0.18)">
       <use xlink:href="#DejaVuSans-33"/>
      </g>
     </g>
    </g>
    <g id="xtick_6">
     <g id="line2d_6">
      <g>
       <use style="fill:#808080;stroke:#808080;stroke-width:0.8;" x="341.694872" xlink:href="#mcd0fe2cf2b" y="181.970513"/>
      </g>
     </g>
     <g id="text_5">
      <!-- 4 -->
      <defs>
       <path d="M 37.796875 64.3125 
L 12.890625 25.390625 
L 37.796875 25.390625 
z
M 35.203125 72.90625 
L 47.609375 72.90625 
L 47.609375 25.390625 
L 58.015625 25.390625 
L 58.015625 17.1875 
L 47.609375 17.1875 
L 47.609375 0 
L 37.796875 0 
L 37.796875 17.1875 
L 4.890625 17.1875 
L 4.890625 26.703125 
z
" id="DejaVuSans-34"/>
      </defs>
      <g transform="translate(335.968622 202.6477)scale(0.18 -0.18)">
       <use xlink:href="#DejaVuSans-34"/>
      </g>
     </g>
    </g>
    <g id="xtick_7">
     <g id="line2d_7">
      <g>
       <use style="fill:#808080;stroke:#808080;stroke-width:0.8;" x="406.342308" xlink:href="#mcd0fe2cf2b" y="181.970513"/>
      </g>
     </g>
     <g id="text_6">
      <!-- 5 -->
      <defs>
       <path d="M 10.796875 72.90625 
L 49.515625 72.90625 
L 49.515625 64.59375 
L 19.828125 64.59375 
L 19.828125 46.734375 
Q 21.96875 47.46875 24.109375 47.828125 
Q 26.265625 48.1875 28.421875 48.1875 
Q 40.625 48.1875 47.75 41.5 
Q 54.890625 34.8125 54.890625 23.390625 
Q 54.890625 11.625 47.5625 5.09375 
Q 40.234375 -1.421875 26.90625 -1.421875 
Q 22.3125 -1.421875 17.546875 -0.640625 
Q 12.796875 0.140625 7.71875 1.703125 
L 7.71875 11.625 
Q 12.109375 9.234375 16.796875 8.0625 
Q 21.484375 6.890625 26.703125 6.890625 
Q 35.15625 6.890625 40.078125 11.328125 
Q 45.015625 15.765625 45.015625 23.390625 
Q 45.015625 31 40.078125 35.4375 
Q 35.15625 39.890625 26.703125 39.890625 
Q 22.75 39.890625 18.8125 39.015625 
Q 14.890625 38.140625 10.796875 36.28125 
z
" id="DejaVuSans-35"/>
      </defs>
      <g transform="translate(400.616058 202.6477)scale(0.18 -0.18)">
       <use xlink:href="#DejaVuSans-35"/>
      </g>
     </g>
    </g>
   </g>
   <g id="matplotlib.axis_2"/>
   <g id="patch_3">
    <path d="M 83.105128 270.1 
L 83.105128 10.7 
" style="fill:none;stroke:#808080;stroke-linecap:square;stroke-linejoin:miter;stroke-width:2;"/>
   </g>
   <g id="patch_4">
    <path d="M 10.7 181.970513 
L 414.1 181.970513 
" style="fill:none;stroke:#808080;stroke-linecap:square;stroke-linejoin:miter;stroke-width:2;"/>
   </g>
   <g id="line2d_8">
    <path clip-path="url(#p1ef2b114e0)" d="M 49.474708 281.8 
L 49.793371 281.019087 
L 50.245897 279.917563 
L 50.698423 278.82217 
L 51.15095 277.732891 
L 51.603476 276.649709 
L 52.237863 275.14145 
L 52.87225 273.645093 
L 53.506637 272.16059 
L 54.141024 270.687893 
L 54.54975 269.745287 
L 55.207887 268.237719 
L 55.866023 266.742721 
L 56.524159 265.260242 
L 57.182295 263.79023 
L 57.974425 262.037385 
L 58.766555 260.302431 
L 59.411455 258.903094 
L 60.056354 257.515506 
L 60.701254 256.139616 
L 61.346154 254.775374 
L 61.869578 253.676635 
L 62.393003 252.58551 
L 62.916428 251.501973 
L 63.439852 250.425998 
L 63.883294 249.520336 
L 64.326737 248.620065 
L 64.770179 247.725171 
L 65.213621 246.835637 
L 65.659337 245.946926 
L 66.105053 245.063598 
L 66.550769 244.185636 
L 66.996485 243.313023 
L 67.828103 241.699146 
L 68.659722 240.10373 
L 69.185709 239.104134 
L 69.711696 238.111854 
L 70.237683 237.126862 
L 70.76367 236.149132 
L 71.252354 235.247227 
L 71.741037 234.351547 
L 72.229721 233.462068 
L 72.718405 232.578769 
L 73.270254 231.588702 
L 73.822104 230.606457 
L 74.373953 229.632004 
L 74.925803 228.665313 
L 75.554531 227.573369 
L 76.183259 226.491413 
L 76.745002 225.533141 
L 77.306744 224.582772 
L 77.868487 223.640275 
L 78.43023 222.705615 
L 79.071099 221.648829 
L 79.711969 220.602154 
L 80.352839 219.565541 
L 80.993709 218.538941 
L 81.546605 217.661273 
L 82.099502 216.79099 
" style="fill:none;stroke:#ff0000;stroke-linecap:square;stroke-width:5;"/>
   </g>
   <g id="line2d_9">
    <path clip-path="url(#p1ef2b114e0)" d="M 83.756931 214.226071 
L 87.926146 208.060706 
L 92.337541 201.971895 
L 96.615154 196.479856 
L 100.193482 192.186713 
L 103.795603 188.132929 
L 107.678686 184.054117 
L 111.74225 180.097728 
L 116.015585 176.267929 
L 120.266909 172.780351 
L 124.14589 169.866825 
L 128.392469 166.957937 
L 132.345421 164.501844 
L 136.511956 162.162841 
L 140.519791 160.142608 
L 144.698595 158.263028 
L 148.936795 156.579623 
L 153.464239 155.013487 
L 158.788781 153.455742 
L 163.762487 152.254692 
L 168.200189 151.371293 
L 174.104217 150.442383 
L 179.164386 149.843827 
L 185.174269 149.335115 
L 191.725365 148.986044 
L 201.201298 148.757321 
L 215.510891 148.713176 
L 228.33655 148.589552 
L 235.333797 148.342918 
L 241.287131 147.972323 
L 247.240012 147.412746 
L 252.956501 146.66132 
L 257.83686 145.827504 
L 262.858958 144.760652 
L 267.887412 143.457019 
L 272.91915 141.89323 
L 277.294198 140.30443 
L 281.991677 138.342798 
L 286.539195 136.173885 
L 290.39562 134.113455 
L 294.811088 131.490722 
L 299.2164 128.5784 
L 303.219476 125.662642 
L 307.374265 122.352046 
L 311.48925 118.77484 
L 315.79761 114.697341 
L 320.044888 110.330856 
L 324.109622 105.816481 
L 327.886762 101.316313 
L 332.123378 95.906269 
L 335.794055 90.898618 
L 339.834578 85.031131 
L 344.254895 78.171701 
L 348.606754 70.953898 
L 353.017127 63.153049 
L 357.083534 55.513484 
L 361.235055 47.258236 
L 365.69718 37.856888 
L 370.242426 27.700913 
L 374.64655 17.28611 
L 378.855738 6.78947 
L 381.846617 -1 
L 381.846617 -1 
" style="fill:none;stroke:#ff0000;stroke-linecap:square;stroke-width:5;"/>
   </g>
  </g>
 </g>
 <defs>
  <clipPath id="p1ef2b114e0">
   <rect height="259.4" width="403.4" x="10.7" y="10.7"/>
  </clipPath>
 </defs>
</svg>
