<?xml version="1.0" encoding="utf-8"?>
<!-- Generator: Adobe Illustrator 23.1.1, SVG Export Plug-In . SVG Version: 6.00 Build 0)  -->
<svg version="1.1" id="Layer_1" xmlns="http://www.w3.org/2000/svg" xmlns:xlink="http://www.w3.org/1999/xlink" x="0px" y="0px"
	 viewBox="0 0 288 216" style="enable-background:new 0 0 288 216;" xml:space="preserve">
<style type="text/css">
	.st0{fill:#808285;}
	.st1{fill:none;stroke:#808285;stroke-width:2;stroke-miterlimit:10;}
	.st2{display:none;}
	.st3{display:inline;}
	.st4{fill:#ED1C24;}
</style>
<g>
	<g>
		<g>
			<path class="st0" d="M59.23,101c-1.74,1.43-3.42,2.92-5.05,4.46c-0.81,0.77-1.61,1.56-2.4,2.37c-0.73,0.75-1.57,1.5-2.09,2.41
				c-1.05,1.85-0.03,3.61,1.74,4.43c0.86,0.4,1.78,0.68,2.65,1.05c0.95,0.4,1.88,0.86,2.79,1.35c2.07,1.12,4.01,2.47,5.78,4.01
				c0.97,0.84,2.39-0.57,1.41-1.41c-2.93-2.55-6.23-4.58-9.83-6.03c-0.79-0.32-3.47-0.88-2.91-2.21c0.35-0.84,1.24-1.54,1.87-2.18
				c0.7-0.72,1.42-1.43,2.15-2.13c1.71-1.64,3.48-3.2,5.3-4.71C61.64,101.59,60.22,100.19,59.23,101L59.23,101z"/>
		</g>
	</g>
	<g>
		<g>
			<path class="st0" d="M268.38,109.81c2.29,0.89,4.58,1.79,6.87,2.68c0.97,0.38,1.97,0.71,2.91,1.15c0.72,0.34,1.49,0.72,1.14,1.62
				c-0.35,0.89-1.05,1.73-1.63,2.48c-0.59,0.76-1.23,1.49-1.89,2.18c-1.47,1.53-3.1,2.89-4.85,4.08c-1.06,0.72-0.06,2.45,1.01,1.73
				c3.11-2.11,5.86-4.68,8.04-7.75c1.03-1.46,2.17-3.35,0.76-4.97c-0.54-0.61-1.28-0.98-2.02-1.3c-0.97-0.41-1.95-0.77-2.93-1.15
				c-2.29-0.89-4.58-1.79-6.87-2.68c-0.5-0.2-1.1,0.22-1.23,0.7C267.53,109.15,267.88,109.61,268.38,109.81L268.38,109.81z"/>
		</g>
	</g>
	<g>
		<g>
			<path class="st0" d="M51.41,113.24c18.85,1.16,37.76,1.76,56.64,1.33c13.01-0.29,25.97-1.42,38.98-1.72
				c14.52-0.33,29.08-0.4,43.59,0.22c4.56,0.19,9.07,0.78,13.62,0.98c7.77,0.36,15.56,0.37,23.34,0.37c6.74,0,13.41,0.6,20.14,0.92
				c7.93,0.38,15.87,0.45,23.8,0.41c2.71-0.01,5.42-0.04,8.13-0.09c1.29-0.02,1.29-2.02,0-2c-9.12,0.14-18.25,0.16-27.36-0.14
				c-6.28-0.21-12.54-0.86-18.82-1.05c-7.88-0.25-15.77-0.04-23.65-0.24c-3.43-0.09-6.88-0.17-10.3-0.5
				c-1.79-0.17-3.56-0.39-5.36-0.5c-13.74-0.85-27.59-0.72-41.34-0.51c-7.19,0.11-14.39,0.28-21.57,0.72
				c-6.07,0.37-12.13,0.77-18.21,0.97c-17.74,0.58-35.51,0.2-53.24-0.71c-2.8-0.15-5.61-0.31-8.41-0.48
				C50.12,111.16,50.13,113.16,51.41,113.24L51.41,113.24z"/>
		</g>
	</g>
	<path class="st1" d="M171.28,111.5"/>
</g>
<g>
	<g>
		<g>
			<path class="st0" d="M123.04,25.49c1.67-3.09,3.68-5.89,5.92-8.59c0.6-0.72,1.17-1.5,1.84-2.16c0.18-0.18,0.34-0.38,0.54-0.24
				c0.25,0.18,0.39,0.74,0.51,1.01c0.68,1.51,1.5,2.96,2.28,4.42c0.93,1.76,1.87,3.53,2.55,5.41c0.43,1.2,2.37,0.68,1.93-0.53
				c-1.32-3.68-3.53-6.94-5.11-10.5c-0.4-0.89-0.97-1.76-2.04-1.86c-1.17-0.11-1.99,0.77-2.68,1.59c-1.3,1.55-2.61,3.1-3.82,4.72
				c-1.36,1.81-2.56,3.73-3.63,5.73C120.7,25.61,122.42,26.62,123.04,25.49L123.04,25.49z"/>
		</g>
	</g>
	<g>
		<g>
			<path class="st0" d="M119.88,148.15c1.88,5.7,4.9,10.96,8.86,15.47c0.53,0.6,1.45,0.22,1.67-0.44c1.55-4.61,4-8.91,7.17-12.61
				c0.83-0.97-0.57-2.39-1.41-1.41c-3.41,3.97-6.02,8.53-7.68,13.49c0.56-0.15,1.11-0.29,1.67-0.44c-3.73-4.24-6.57-9.23-8.35-14.59
				C121.41,146.41,119.48,146.93,119.88,148.15L119.88,148.15z"/>
		</g>
	</g>
	<g>
		<g>
			<path class="st0" d="M130.2,14.9c-0.31,18.87-0.62,37.73-0.93,56.6c-0.31,18.96-0.63,37.91-0.79,56.87
				c-0.09,10.65-0.12,21.3-0.08,31.95c0.01,1.29,2.01,1.29,2,0c-0.08-18.98,0.1-37.95,0.36-56.93c0.27-18.89,0.6-37.78,0.91-56.67
				c0.17-10.61,0.35-21.22,0.52-31.82C132.22,13.61,130.22,13.61,130.2,14.9L130.2,14.9z"/>
		</g>
	</g>
</g>
<g class="st2">
	<g class="st3">
		<g>
			<g>
				<g>
					<path d="M52.22,40.41c1.03-4.07,2.16-8.12,3.39-12.14c0.61-2.01,1.25-4.01,1.92-6.01c0.17-0.5,0.33-1,0.5-1.49
						c0.15-0.42,0.4-0.9,0.61-0.22c0.29,0.91,0.32,1.98,0.46,2.93c0.36,2.4,0.71,4.79,1.07,7.19c0.07,0.48,0.88,0.47,0.96,0
						c0.35-1.98,0.96-3.9,1.85-5.7c0.44-0.88,0.93-1.75,1.5-2.55c0.22-0.31,0.65-0.95,1.04-0.53c0.25,0.27,0.23,0.86,0.24,1.19
						c0.16,4.35-0.36,8.71-1.47,12.92c-0.16,0.62,0.8,0.89,0.96,0.27c1.04-3.94,1.56-8.02,1.53-12.1c-0.01-1.1,0.13-3.48-1.56-3.43
						c-0.76,0.02-1.27,0.7-1.66,1.27c-0.51,0.75-0.97,1.55-1.38,2.36c-0.96,1.9-1.63,3.94-2,6.03c0.32,0,0.64,0,0.96,0
						c-0.36-2.44-0.72-4.88-1.09-7.31c-0.15-1-0.14-2.21-0.57-3.14c-0.29-0.64-0.98-1.06-1.65-0.65c-0.75,0.46-0.94,1.71-1.19,2.47
						c-0.38,1.15-0.76,2.3-1.13,3.46c-0.74,2.31-1.44,4.63-2.11,6.96c-0.76,2.64-1.47,5.29-2.15,7.96
						C51.09,40.77,52.06,41.03,52.22,40.41L52.22,40.41z"/>
				</g>
			</g>
			<g>
				<g>
					<path d="M68.35,34.6c0.08-2.39,0.35-4.76,0.82-7.1c0.23-1.14,0.51-2.28,0.83-3.4c0.21-0.73,0.54-2.61,1.7-2.16
						c-0.12-0.12-0.23-0.23-0.35-0.35c0.61,3.31,0.89,6.67,1.17,10.02c0.1,1.16,0.18,2.31,0.3,3.47c0.02,0.24,0.02,0.54,0.1,0.77
						c0.17,0.48,0.82,0.52,0.99,0.01c0.2-0.61-0.77-0.88-0.96-0.27c0.01-0.03,0.03-0.07,0.04-0.1c0.1-0.08,0.2-0.15,0.3-0.23
						c0,0,0,0,0,0c0.16,0.04,0.32,0.09,0.49,0.13c0.52,0.46,0.03,0.2,0.1,0.12c0.02-0.02,0,0.03-0.01-0.08
						c-0.03-0.21-0.04-0.41-0.06-0.62c-0.06-0.66-0.11-1.31-0.17-1.97c-0.16-1.88-0.32-3.77-0.52-5.64c-0.2-1.9-0.33-3.88-0.77-5.74
						c-0.25-1.04-1.69-0.54-2.23-0.04c-0.89,0.83-1.08,2.34-1.37,3.46c-0.83,3.17-1.3,6.44-1.4,9.72
						C67.32,35.25,68.32,35.25,68.35,34.6L68.35,34.6z"/>
				</g>
			</g>
			<g>
				<g>
					<path d="M67.68,28.44c0.45,0.74,1.43,0.96,2.23,1.03c0.87,0.08,1.82-0.05,2.52-0.6c0.21-0.17,0.17-0.53,0-0.71
						c-0.21-0.21-0.49-0.17-0.71,0c0.1-0.08,0.01-0.01-0.02,0.01c-0.03,0.02-0.06,0.04-0.1,0.06c-0.03,0.02-0.07,0.03-0.11,0.05
						c-0.11,0.06,0.09-0.03-0.03,0.01c-0.16,0.06-0.32,0.1-0.48,0.14c-0.05,0.01-0.09,0.02-0.14,0.02c-0.04,0.01-0.03,0,0.02,0
						c-0.02,0-0.05,0.01-0.07,0.01c-0.09,0.01-0.17,0.02-0.26,0.02c-0.19,0.01-0.39,0.01-0.58-0.01c-0.05,0-0.1-0.01-0.14-0.01
						c-0.11-0.01,0.06,0.01-0.06-0.01c-0.08-0.01-0.17-0.03-0.25-0.05c-0.17-0.04-0.33-0.09-0.49-0.14
						c-0.11-0.04,0.06,0.03-0.03-0.01c-0.04-0.02-0.07-0.03-0.11-0.05c-0.07-0.03-0.13-0.08-0.19-0.12
						c-0.08-0.05,0.06,0.07-0.01-0.01c-0.02-0.02-0.05-0.04-0.07-0.07c-0.02-0.02-0.03-0.04-0.05-0.06c-0.02-0.01,0.06,0.09,0-0.01
						C68.21,27.38,67.34,27.89,67.68,28.44L67.68,28.44z"/>
				</g>
			</g>
			<g>
				<g>
					<path d="M74.89,24.65c1.76,3.53,3.93,6.83,6.45,9.86c0.41,0.5,1.12-0.22,0.71-0.71c-2.47-2.96-4.57-6.21-6.29-9.66
						C75.46,23.57,74.6,24.07,74.89,24.65L74.89,24.65z"/>
				</g>
			</g>
			<g>
				<g>
					<path d="M81.37,23.39c-1.44,2.6-2.87,5.21-4.31,7.81c-0.35,0.64-0.71,1.28-1.06,1.93c-0.22,0.41-0.47,0.93-0.11,1.35
						c0.68,0.78,1.77-0.66,0.73-1.02c-0.61-0.21-0.87,0.75-0.27,0.96c0.02,0.01,0.04,0.02,0.07,0.02c-0.12-0.12-0.23-0.23-0.35-0.35
						c0.05-0.12,0.1-0.24,0.15-0.36c0.13,0.02,0.26,0.03,0.39,0.05c0.06,0.22,0.11,0.23,0.15,0.04c0.07-0.12,0.14-0.25,0.2-0.37
						c0.1-0.18,0.2-0.37,0.3-0.55c0.24-0.43,0.47-0.86,0.71-1.29c0.47-0.86,0.95-1.72,1.42-2.57c0.95-1.72,1.89-3.43,2.84-5.15
						C82.54,23.33,81.68,22.82,81.37,23.39L81.37,23.39z"/>
				</g>
			</g>
			<g>
				<g>
					<path d="M84.97,33.85c-0.2-3.48,0.01-6.96,0.66-10.39c0.12-0.63-0.84-0.9-0.96-0.27c-0.66,3.51-0.9,7.08-0.7,10.65
						C84,34.49,85,34.49,84.97,33.85L84.97,33.85z"/>
				</g>
			</g>
			<g>
				<g>
					<path d="M87.97,33.47c-0.16-2.77,0.22-5.52,1.11-8.15c-0.32,0-0.64,0-0.96,0c0.37,1.23,0.73,2.46,1.1,3.69
						c0.14,0.47,0.82,0.48,0.96,0c0.36-1.22,0.72-2.45,1.07-3.67c0.12-0.4,0.27-1.07,0.68-1.3c0.42-0.23,0.57,0.74,0.66,1.03
						c0.72,2.36,0.95,4.82,0.7,7.27c-0.06,0.64,0.94,0.64,1,0c0.15-1.53,0.12-3.07-0.09-4.6c-0.11-0.75-0.25-1.5-0.45-2.24
						c-0.17-0.65-0.33-1.44-0.71-2c-0.79-1.14-2.02-0.21-2.46,0.7c-0.32,0.67-0.47,1.44-0.68,2.15c-0.23,0.79-0.47,1.59-0.7,2.38
						c0.32,0,0.64,0,0.96,0c-0.37-1.23-0.73-2.46-1.1-3.69c-0.15-0.49-0.81-0.46-0.96,0c-0.92,2.7-1.31,5.56-1.15,8.41
						C87.01,34.11,88.01,34.12,87.97,33.47L87.97,33.47z"/>
				</g>
			</g>
			<g>
				<g>
					<path d="M102.83,36.76c-0.07-4.66,0.79-9.39,2.83-13.6c-0.3-0.04-0.61-0.08-0.91-0.12c0.68,1.98,1.24,4,1.71,6.04
						c0.08,0.37,0.58,0.48,0.84,0.22c0.73-0.76,1.05-1.78,1.39-2.75c0.17-0.5,1.1-3.05,1.96-2.18c0.4,0.41,0.47,1.23,0.58,1.76
						c0.14,0.7,0.25,1.41,0.34,2.12c0.18,1.45,0.25,2.91,0.25,4.37c0,0.64,1,0.64,1,0c0.01-1.75-0.11-3.49-0.36-5.22
						c-0.12-0.83-0.25-1.69-0.47-2.5c-0.16-0.57-0.42-1.21-0.96-1.52c-1.11-0.65-2.21,0.52-2.69,1.41c-0.65,1.21-0.76,2.78-1.74,3.8
						c0.28,0.07,0.56,0.15,0.84,0.22c-0.46-2.04-1.03-4.06-1.71-6.04c-0.13-0.37-0.71-0.53-0.91-0.12
						c-2.12,4.37-3.04,9.26-2.97,14.1C101.84,37.4,102.84,37.4,102.83,36.76L102.83,36.76z"/>
				</g>
			</g>
			<g>
				<g>
					<path d="M95.27,24.84c-0.16,1.21-0.06,2.46,0.29,3.64c0.33,1.09,0.87,2.27,1.69,3.08c0.84,0.82,2.01,0.83,2.7-0.17
						c0.32-0.45,0.49-1,0.66-1.52c0.21-0.64,0.38-1.29,0.52-1.94c0.32-1.51,0.45-3.05,0.4-4.59c-0.02-0.64-1.02-0.64-1,0
						c0.05,1.45-0.06,2.9-0.36,4.33c-0.15,0.71-0.34,1.4-0.57,2.09c-0.15,0.43-0.32,1.12-0.76,1.36c-0.51,0.28-1-0.35-1.26-0.72
						c-0.37-0.53-0.68-1.12-0.9-1.73c-0.45-1.23-0.58-2.53-0.41-3.83c0.04-0.27-0.26-0.5-0.5-0.5
						C95.47,24.34,95.31,24.57,95.27,24.84L95.27,24.84z"/>
				</g>
			</g>
		</g>
		<g>
			<g>
				<g>
					<path d="M91.12,37.32c0.04,4.91,0.78,9.83,2.39,14.47c0.21,0.6,1.18,0.34,0.96-0.27c-1.58-4.56-2.32-9.38-2.35-14.21
						C92.12,36.68,91.12,36.68,91.12,37.32L91.12,37.32z"/>
				</g>
			</g>
			<g>
				<g>
					<path d="M89.43,47.23c0.85,1.16,1.7,2.32,2.55,3.48c0.22,0.3,0.44,0.6,0.66,0.9c0.18,0.25,0.35,0.52,0.59,0.71
						c0.48,0.38,1.06,0.21,1.37-0.29c0.35-0.55,0.6-1.18,0.89-1.77c0.33-0.66,0.66-1.32,0.99-1.98c0.48-0.96,1.48-2.33,0.79-3.41
						c-0.35-0.54-1.22-0.04-0.86,0.5c0.23,0.36,0,0.82-0.17,1.16c-0.24,0.5-0.49,0.99-0.74,1.48c-0.51,1.03-1.03,2.06-1.54,3.09
						c-0.05,0.11-0.1,0.22-0.17,0.33c-0.02,0.04-0.04,0.07-0.06,0.1c-0.05,0.06-0.01,0.06,0.14,0.01c0.01-0.03-0.4-0.52-0.44-0.57
						c-0.36-0.49-0.71-0.97-1.07-1.46c-0.68-0.94-1.37-1.87-2.05-2.81C89.92,46.21,89.05,46.7,89.43,47.23L89.43,47.23z"/>
				</g>
			</g>
		</g>
	</g>
	<g class="st3">
		<g>
			<g>
				<g>
					<path d="M169.2,38.15c-0.18,0.33-0.37,0.65-0.55,0.98c0.3,0.13,0.61,0.26,0.91,0.39c0.98-4.55,2.57-8.94,4.74-13.05
						c-0.3-0.04-0.61-0.08-0.91-0.12c0.78,2.31,1.14,4.7,1.07,7.13c-0.01,0.49,0.7,0.69,0.93,0.25c1.17-2.22,2.49-4.35,3.97-6.38
						c-0.3-0.04-0.61-0.08-0.91-0.12c1.27,3.2,1.57,6.69,0.83,10.06c-0.14,0.63,0.83,0.9,0.96,0.27c0.78-3.53,0.5-7.22-0.83-10.59
						c-0.16-0.41-0.65-0.48-0.91-0.12c-1.47,2.03-2.8,4.16-3.97,6.38c0.31,0.08,0.62,0.17,0.93,0.25c0.07-2.51-0.31-5.02-1.11-7.4
						c-0.13-0.39-0.7-0.52-0.91-0.12c-2.21,4.19-3.84,8.66-4.84,13.29c-0.12,0.54,0.63,0.9,0.91,0.39c0.18-0.33,0.37-0.65,0.55-0.98
						C170.38,38.09,169.52,37.59,169.2,38.15L169.2,38.15z"/>
				</g>
			</g>
			<g>
				<g>
					<path d="M183.34,37.15c0.3-3.12,0.63-6.29,2.02-9.15c-0.3-0.04-0.61-0.08-0.91-0.12c0.96,3.34,1.53,6.77,1.68,10.24
						c0.03,0.64,1.03,0.64,1,0c-0.16-3.56-0.74-7.08-1.72-10.51c-0.11-0.39-0.72-0.52-0.91-0.12c-1.47,3.02-1.84,6.35-2.16,9.65
						C182.27,37.79,183.27,37.78,183.34,37.15L183.34,37.15z"/>
				</g>
			</g>
			<g>
				<g>
					<path d="M183.48,32.88c0.75,1.29,2.8,1.52,3.78,0.37c0.17-0.2,0.21-0.51,0-0.71c-0.19-0.17-0.53-0.21-0.71,0
						c-0.05,0.05-0.09,0.11-0.15,0.15c-0.03,0.02-0.05,0.05-0.08,0.07c0.05-0.04,0.06-0.04,0-0.01c-0.05,0.03-0.11,0.07-0.17,0.1
						c-0.03,0.02-0.06,0.03-0.1,0.05c0.12-0.06,0.01-0.01-0.01,0c-0.06,0.02-0.12,0.04-0.19,0.05c-0.03,0.01-0.06,0.01-0.09,0.02
						c-0.02,0-0.05,0.01-0.07,0.01c0.02,0,0.04-0.01,0.06-0.01c-0.05,0.03-0.16,0.01-0.21,0.01c-0.07,0-0.13,0-0.2-0.01
						c-0.03,0-0.06,0-0.09-0.01c0.11,0.04,0.03,0-0.01,0c-0.06-0.01-0.13-0.03-0.19-0.05c-0.06-0.02-0.12-0.04-0.18-0.06
						c0.12,0.05,0.02,0.01-0.01-0.01c-0.03-0.02-0.06-0.03-0.09-0.05c-0.06-0.03-0.11-0.07-0.16-0.1c-0.03-0.02,0.07,0.07-0.01-0.01
						c-0.02-0.02-0.04-0.04-0.07-0.06c-0.05-0.05-0.1-0.1-0.14-0.15c0.05,0.06,0.03,0.04-0.01-0.01c-0.02-0.03-0.04-0.06-0.06-0.09
						c-0.13-0.23-0.46-0.33-0.68-0.18C183.44,32.34,183.34,32.64,183.48,32.88L183.48,32.88z"/>
				</g>
			</g>
			<g>
				<g>
					<path d="M188.78,29.77c0.72,2.73,2.05,5.26,3.88,7.42c0.42,0.49,1.12-0.22,0.71-0.71c-1.72-2.02-2.95-4.41-3.62-6.97
						C189.58,28.88,188.61,29.14,188.78,29.77L188.78,29.77z"/>
				</g>
			</g>
			<g>
				<g>
					<path d="M193.55,29.82c-2.23,2.32-4.14,4.95-5.57,7.84c-0.28,0.58,0.58,1.08,0.86,0.5c1.39-2.82,3.24-5.38,5.41-7.64
						C194.7,30.06,194,29.35,193.55,29.82L193.55,29.82z"/>
				</g>
			</g>
			<g>
				<g>
					<path d="M196.33,36.71c-0.42-2.31-0.3-4.68,0.34-6.93c0.17-0.62-0.79-0.89-0.96-0.27c-0.68,2.43-0.79,4.98-0.34,7.47
						C195.48,37.61,196.44,37.34,196.33,36.71L196.33,36.71z"/>
				</g>
			</g>
			<g>
				<g>
					<path d="M198.75,37.03c0.22-1.51,0.5-3.01,0.82-4.51c0.16-0.73,0.33-1.46,0.51-2.18c0.09-0.36,0.19-0.72,0.28-1.09
						c0.05-0.17,0.08-0.35,0.14-0.51c0.04-0.11,0.17-0.25,0.07-0.24c-0.17-0.17-0.33-0.33-0.5-0.5c0.12,1.95,0.24,3.89,0.36,5.84
						c0.02,0.28,0.22,0.48,0.5,0.5c0.87,0.05,1.15-0.97,1.42-1.6c0.41-0.96,0.82-1.92,1.23-2.88c-0.19,0.08-0.38,0.15-0.56,0.23
						c0.45,0.12,0.44,1.09,0.48,1.44c0.08,0.69,0.14,1.37,0.17,2.06c0.06,1.38,0.01,2.76-0.13,4.14c-0.07,0.64,0.94,0.64,1,0
						c0.17-1.69,0.2-3.39,0.07-5.08c-0.06-0.75-0.1-1.53-0.27-2.26c-0.13-0.58-0.45-1.11-1.06-1.27c-0.19-0.05-0.48,0.03-0.56,0.23
						c-0.31,0.73-0.62,1.45-0.93,2.18c-0.15,0.35-0.3,0.7-0.45,1.05c-0.04,0.09-0.25,0.77-0.41,0.76c0.17,0.17,0.33,0.33,0.5,0.5
						c-0.12-1.95-0.24-3.89-0.36-5.84c-0.02-0.25-0.22-0.53-0.5-0.5c-0.77,0.08-0.97,0.73-1.15,1.39c-0.23,0.84-0.44,1.69-0.63,2.54
						c-0.4,1.76-0.74,3.54-1,5.33C197.69,37.4,198.65,37.67,198.75,37.03L198.75,37.03z"/>
				</g>
			</g>
			<g>
				<g>
					<path d="M206.57,28.58c-0.13,1.5-0.09,3.01,0.12,4.5c0.2,1.41,0.51,2.89,1.12,4.19c0.23,0.49,0.59,1,1.17,1.09
						c0.55,0.09,1-0.25,1.3-0.67c0.36-0.5,0.56-1.1,0.73-1.68c0.23-0.75,0.43-1.51,0.61-2.28c0.41-1.71,0.72-3.44,0.94-5.19
						c0.08-0.64-0.92-0.63-1,0c-0.21,1.66-0.52,3.3-0.91,4.92c-0.19,0.79-0.4,1.58-0.64,2.36c-0.1,0.33-0.2,0.66-0.36,0.97
						c-0.07,0.14-0.28,0.58-0.49,0.58c-0.47,0.01-0.78-1.36-0.88-1.7c-0.23-0.75-0.41-1.51-0.54-2.28
						c-0.27-1.59-0.32-3.22-0.17-4.82C207.63,27.94,206.63,27.94,206.57,28.58L206.57,28.58z"/>
				</g>
			</g>
			<g>
				<g>
					<path d="M214.87,37.88c0.23-1.7,0.46-3.41,0.69-5.11c0.11-0.84,0.23-1.67,0.34-2.51c0.03-0.23,0.13-1.96,0.44-1.94
						c-0.16-0.12-0.32-0.24-0.48-0.37c0.27,1.48,0.55,2.96,0.82,4.43c0.1,0.54,0.09,1.37,0.45,1.81c0.37,0.45,0.95,0.26,1.28-0.13
						c0.68-0.83,1.08-1.95,1.58-2.89c0.51-0.95,1.11-1.9,2.03-2.5c-0.25-0.14-0.5-0.29-0.75-0.43c0.31,2.8,0.14,5.63-0.51,8.38
						c-0.15,0.63,0.81,0.89,0.96,0.27c0.67-2.83,0.86-5.75,0.55-8.64c-0.04-0.35-0.4-0.66-0.75-0.43c-1.64,1.07-2.4,2.9-3.27,4.57
						c-0.11,0.22-0.23,0.43-0.35,0.64c-0.04,0.08-0.12,0.17-0.15,0.25c-0.12,0.1-0.1,0.17,0.05,0.22c0.13,0.15,0.16,0.14,0.1-0.03
						c0.04-0.27-0.13-0.69-0.18-0.96c-0.05-0.29-0.11-0.58-0.16-0.87c-0.24-1.32-0.49-2.63-0.73-3.95
						c-0.04-0.22-0.28-0.36-0.48-0.37c-0.73-0.03-1.09,0.67-1.21,1.3c-0.19,0.96-0.27,1.95-0.4,2.92c-0.27,2.03-0.55,4.05-0.82,6.08
						C213.82,38.24,214.78,38.51,214.87,37.88L214.87,37.88z"/>
				</g>
			</g>
		</g>
		<g>
			<g>
				<g>
					<path d="M193.17,38.59c-0.19,2.36-0.22,4.74-0.06,7.11c0.07,1.12,0.19,2.24,0.34,3.35c0.14,0.99,0.15,2.32,0.72,3.17
						c0.35,0.53,1.22,0.03,0.86-0.5c-0.29-0.43-0.32-1.02-0.4-1.52c-0.1-0.58-0.18-1.17-0.26-1.75c-0.14-1.07-0.23-2.15-0.29-3.23
						c-0.12-2.21-0.09-4.42,0.09-6.62C194.22,37.94,193.22,37.95,193.17,38.59L193.17,38.59z"/>
				</g>
			</g>
			<g>
				<g>
					<path d="M189.56,48c0.72,0.85,1.46,1.67,2.23,2.48c0.38,0.4,0.77,0.8,1.17,1.19c0.37,0.36,0.73,0.76,1.14,1.08
						c0.39,0.3,0.91,0.37,1.29,0.02c0.36-0.32,0.43-0.85,0.53-1.3c0.27-1.15,0.54-2.29,0.81-3.44c0.15-0.63-0.82-0.89-0.96-0.27
						c-0.23,0.98-0.47,1.96-0.7,2.95c-0.1,0.42-0.2,0.83-0.31,1.24c-0.04,0.13-0.08,0.04-0.01,0.06c0.06,0.02-0.09-0.1-0.11-0.11
						c-0.18-0.15-0.34-0.32-0.51-0.48c-1.36-1.31-2.65-2.68-3.87-4.12C189.85,46.8,189.15,47.51,189.56,48L189.56,48z"/>
				</g>
			</g>
		</g>
	</g>
	<g class="st3">
		<g>
			<g>
				<g>
					<path d="M139.3,142.2c0.18-2.26,0.54-4.51,1.08-6.72c0.26-1.07,0.56-2.13,0.91-3.17c0.29-0.86,0.66-1.75,1.46-2.26
						c-0.24-0.1-0.49-0.2-0.73-0.3c0.55,2.55,0.98,5.13,1.3,7.72c0.05,0.41,0.52,0.68,0.85,0.35c2.14-2.07,1.91-5.58,4.18-7.52
						c-0.28-0.07-0.56-0.15-0.84-0.22c0.66,1.68,0.39,3.52,0.21,5.27c-0.2,1.92-0.48,3.83-0.82,5.72c-0.11,0.63,0.85,0.9,0.96,0.27
						c0.36-1.99,0.64-3.98,0.85-5.99c0.19-1.83,0.45-3.77-0.25-5.54c-0.14-0.36-0.53-0.48-0.84-0.22c-2.31,1.97-2.05,5.45-4.18,7.52
						c0.28,0.12,0.57,0.24,0.85,0.35c-0.33-2.68-0.77-5.34-1.34-7.99c-0.07-0.31-0.47-0.47-0.73-0.3c-1.78,1.13-2.23,3.68-2.71,5.57
						c-0.63,2.44-1.03,4.94-1.23,7.45C138.25,142.84,139.25,142.84,139.3,142.2L139.3,142.2z"/>
				</g>
			</g>
			<g>
				<g>
					<path d="M151.08,141.03c-0.11-3.36-0.01-6.73,0.3-10.08c-0.25,0.14-0.5,0.29-0.75,0.43c0.16,0.08,0.32,0.16,0.48,0.24
						c0.57,0.29,1.08-0.58,0.5-0.86c-0.16-0.08-0.32-0.16-0.48-0.24c-0.36-0.18-0.72,0.04-0.75,0.43c-0.31,3.35-0.41,6.72-0.3,10.08
						C150.1,141.67,151.1,141.67,151.08,141.03L151.08,141.03z"/>
				</g>
			</g>
			<g>
				<g>
					<path d="M153.62,141.31c0.03-2.81,0.38-5.6,1.04-8.34c-0.32,0-0.64,0-0.96,0c0.3,1.4,0.61,2.79,0.91,4.19
						c0.27,1.23,0.39,2.66,1.11,3.72c0.23,0.34,0.8,0.32,0.91-0.12c0.83-3.37,1.45-6.79,1.85-10.24c0.07-0.64-0.93-0.63-1,0
						c-0.39,3.36-1,6.69-1.81,9.97c0.3-0.04,0.61-0.08,0.91-0.12c-0.7-1.03-0.8-2.49-1.06-3.69c-0.29-1.33-0.58-2.66-0.87-3.99
						c-0.1-0.48-0.85-0.47-0.96,0c-0.68,2.82-1.04,5.71-1.07,8.61C152.61,141.96,153.61,141.96,153.62,141.31L153.62,141.31z"/>
				</g>
			</g>
			<g>
				<g>
					<path d="M161.07,141.7c-0.1-3.21,0.05-6.42,0.45-9.61c0.08-0.64-0.92-0.63-1,0c-0.4,3.19-0.55,6.4-0.45,9.61
						C160.08,142.35,161.08,142.35,161.07,141.7L161.07,141.7z"/>
				</g>
			</g>
			<g>
				<g>
					<path d="M162.68,141.85c0.51-3.18,1.32-6.31,2.43-9.34c-0.32,0-0.64,0-0.96,0c0.35,1.59,0.55,3.21,0.6,4.84
						c0.01,0.46,0.71,0.73,0.93,0.25c0.45-0.97,0.89-1.94,1.34-2.91c0.06-0.13,0.16-0.47,0.29-0.56c0.17-0.12,0.2,0.03,0.29,0.21
						c0.17,0.38,0.23,0.79,0.24,1.21c0.03,1.68-0.65,3.33-0.1,4.99c0.2,0.61,1.17,0.35,0.96-0.27c-0.68-2.03,0.67-4.17-0.14-6.19
						c-0.18-0.45-0.45-0.9-0.95-1.02c-0.46-0.12-0.87,0.15-1.13,0.52c-0.34,0.48-0.54,1.08-0.78,1.61
						c-0.29,0.64-0.59,1.27-0.88,1.91c0.31,0.08,0.62,0.17,0.93,0.25c-0.06-1.72-0.27-3.42-0.64-5.1c-0.11-0.52-0.81-0.43-0.96,0
						c-1.11,3.03-1.92,6.15-2.43,9.34C161.62,142.21,162.58,142.48,162.68,141.85L162.68,141.85z"/>
				</g>
			</g>
			<g>
				<g>
					<path d="M170.22,134.83c-0.25,1.21-0.27,2.44-0.05,3.65c0.19,1.01,0.54,2.23,1.42,2.86c0.94,0.66,1.89-0.01,2.38-0.86
						c0.57-1,0.88-2.16,1.04-3.29c0.2-1.36,0.23-2.72,0.25-4.09c0.01-0.64-0.99-0.64-1,0c-0.01,1.25-0.03,2.51-0.2,3.76
						c-0.16,1.13-0.43,2.38-1.09,3.33c-0.29,0.43-0.64,0.57-1.01,0.16c-0.36-0.4-0.54-0.93-0.67-1.44c-0.34-1.24-0.37-2.55-0.11-3.8
						C171.31,134.47,170.35,134.2,170.22,134.83L170.22,134.83z"/>
				</g>
			</g>
			<g>
				<g>
					<path d="M177.12,141.12c-0.09-2.24,0-4.48,0.29-6.7c-0.33,0.04-0.65,0.09-0.98,0.13c0.28,0.96,0.55,1.93,0.83,2.89
						c0.11,0.38,0.55,0.46,0.84,0.22c0.64-0.55,0.87-1.41,1.08-2.19c0.14-0.51,0.38-1.75,1.07-1.81c-0.16-0.12-0.32-0.24-0.48-0.37
						c0.32,2.12,0.39,4.27,0.25,6.41c-0.04,0.64,0.96,0.64,1,0c0.15-2.23,0.04-4.46-0.29-6.67c-0.03-0.2-0.28-0.38-0.48-0.37
						c-0.96,0.09-1.48,0.9-1.79,1.74c-0.31,0.84-0.33,1.94-1.06,2.55c0.28,0.07,0.56,0.15,0.84,0.22c-0.28-0.96-0.55-1.93-0.83-2.89
						c-0.17-0.58-0.91-0.4-0.98,0.13c-0.29,2.22-0.39,4.46-0.29,6.7C176.14,141.76,177.14,141.76,177.12,141.12L177.12,141.12z"/>
				</g>
			</g>
		</g>
		<g>
			<g>
				<g>
					<path d="M146.52,112.95c-0.18,0.35-0.36,0.7-0.53,1.05c0.3,0.13,0.61,0.26,0.91,0.39c0.51-2.09,1.2-4.18,2.14-6.13
						c0.14-0.28,0.32-0.7,0.64-0.38c0.32,0.32,0.49,0.82,0.7,1.22c0.53,1.02,1.07,2.05,1.6,3.07c0.3,0.57,1.16,0.07,0.86-0.5
						c-0.62-1.19-1.24-2.38-1.86-3.57c-0.24-0.47-0.51-0.98-1-1.23c-0.48-0.25-1.04-0.12-1.41,0.27c-0.38,0.41-0.58,0.99-0.8,1.5
						c-0.25,0.58-0.49,1.17-0.71,1.77c-0.45,1.21-0.82,2.45-1.13,3.71c-0.13,0.53,0.65,0.91,0.91,0.39c0.18-0.35,0.36-0.7,0.53-1.05
						C147.67,112.88,146.81,112.38,146.52,112.95L146.52,112.95z"/>
				</g>
			</g>
			<g>
				<g>
					<path d="M149,107.85c-0.12,6.59,0.25,13.18,1.13,19.71c0.08,0.63,1.09,0.64,1,0c-0.88-6.53-1.25-13.12-1.13-19.71
						C150.01,107.21,149.01,107.21,149,107.85L149,107.85z"/>
				</g>
			</g>
		</g>
	</g>
	<g class="st3">
		<g>
			<g>
				<g>
					<path d="M214.66,131.8c0.12-3.1,0.69-6.16,1.72-9.08c0.12-0.34,0.25-0.69,0.38-1.03c0.11-0.29,0.22-0.74,0.43-0.98
						c0.35-0.4,0.36,0.24,0.41,0.52c0.06,0.37,0.12,0.75,0.18,1.12c0.26,1.64,0.5,3.28,0.71,4.93c0.07,0.56,0.77,0.68,0.98,0.13
						c0.47-1.22,0.95-2.45,1.42-3.67c0.22-0.57,0.4-1.2,0.69-1.73c0.12-0.21,0.24-0.46,0.48-0.28c0.15,0.11,0.2,0.49,0.23,0.65
						c0.53,2.6,0.54,5.39,0.34,8.03c-0.05,0.64,0.95,0.64,1,0c0.13-1.77,0.13-3.55-0.01-5.33c-0.07-0.81-0.16-1.63-0.28-2.44
						c-0.09-0.59-0.18-1.25-0.63-1.68c-0.37-0.35-0.9-0.43-1.35-0.18c-0.51,0.29-0.73,0.88-0.93,1.39
						c-0.64,1.65-1.28,3.31-1.92,4.97c0.33,0.04,0.65,0.09,0.98,0.13c-0.26-2-0.55-3.99-0.88-5.98c-0.11-0.66-0.17-1.63-0.97-1.82
						c-0.7-0.17-1.2,0.44-1.47,1c-1.63,3.48-2.37,7.49-2.52,11.31C213.63,132.45,214.63,132.45,214.66,131.8L214.66,131.8z"/>
				</g>
			</g>
			<g>
				<g>
					<path d="M227.45,130.96c-0.44-2.66-0.42-5.4,0.05-8.06c0.11-0.63-0.85-0.9-0.96-0.27c-0.51,2.85-0.52,5.74-0.05,8.59
						C226.59,131.86,227.55,131.59,227.45,130.96L227.45,130.96z"/>
				</g>
			</g>
			<g>
				<g>
					<path d="M230.32,131.8c0.07-2.19,0.39-4.35,0.93-6.47c-0.32,0-0.64,0-0.96,0c0.5,1.79,1.14,3.54,1.9,5.23
						c0.23,0.51,0.88,0.17,0.93-0.25c0.39-2.94,0.81-5.89,1.24-8.83c0.09-0.63-0.87-0.9-0.96-0.27c-0.45,3.03-0.87,6.06-1.27,9.09
						c0.31-0.08,0.62-0.17,0.93-0.25c-0.72-1.62-1.32-3.29-1.8-5c-0.13-0.47-0.84-0.48-0.96,0c-0.56,2.21-0.89,4.46-0.96,6.74
						C229.3,132.45,230.3,132.44,230.32,131.8L230.32,131.8z"/>
				</g>
			</g>
			<g>
				<g>
					<path d="M236.49,131.33c-0.09-2.61-0.07-5.22,0.08-7.82c0.04-0.64-0.96-0.64-1,0c-0.14,2.6-0.17,5.21-0.08,7.82
						C235.51,131.97,236.51,131.97,236.49,131.33L236.49,131.33z"/>
				</g>
			</g>
			<g>
				<g>
					<path d="M239.59,131.09c-0.25-2.58-0.06-5.17,0.57-7.68c-0.32,0-0.64,0-0.96,0c0.41,0.99,0.83,1.98,1.24,2.97
						c0.18,0.43,0.81,0.51,0.96,0c0.3-0.98,0.69-1.92,1.2-2.81c0.15-0.26,0.49-1.05,0.87-1.01c0.26,0.03,0.41,0.44,0.48,0.65
						c0.15,0.42,0.17,0.85,0.22,1.29c0.06,0.55,0.12,1.1,0.18,1.65c0.12,1.13,0.24,2.26,0.36,3.4c0.07,0.63,1.07,0.64,1,0
						c-0.16-1.45-0.31-2.9-0.47-4.35c-0.11-1.03-0.08-2.33-0.82-3.15c-0.3-0.34-0.73-0.54-1.19-0.46c-0.54,0.09-0.88,0.5-1.17,0.94
						c-0.72,1.1-1.26,2.33-1.64,3.59c0.32,0,0.64,0,0.96,0c-0.41-0.99-0.83-1.98-1.24-2.97c-0.17-0.42-0.83-0.53-0.96,0
						c-0.65,2.6-0.86,5.28-0.6,7.95C238.65,131.72,239.65,131.73,239.59,131.09L239.59,131.09z"/>
				</g>
			</g>
			<g>
				<g>
					<path d="M247.27,123.61c-0.19,1.07-0.24,2.15-0.11,3.23c0.11,0.9,0.23,1.98,0.8,2.72c0.57,0.75,1.58,0.77,2.21,0.07
						c0.64-0.7,0.94-1.74,1.16-2.64c0.28-1.13,0.38-2.31,0.3-3.47c-0.05-0.64-1.05-0.64-1,0c0.08,1.06,0.01,2.12-0.25,3.15
						c-0.13,0.53-0.3,1.05-0.51,1.55c-0.13,0.31-0.33,0.78-0.67,0.91c-0.7,0.26-0.92-1.57-0.98-1.91c-0.18-1.1-0.17-2.24,0.02-3.34
						c0.05-0.27-0.07-0.54-0.35-0.62C247.64,123.19,247.31,123.34,247.27,123.61L247.27,123.61z"/>
				</g>
			</g>
			<g>
				<g>
					<path d="M253.53,130.85c0-2.89,0.73-5.73,2.13-8.26c-0.31-0.08-0.62-0.17-0.93-0.25c-0.05,1.53,0.04,3.06,0.27,4.58
						c0.06,0.41,0.58,0.43,0.84,0.22c0.7-0.58,1-1.46,1.28-2.29c0.23-0.67,0.47-1.59,1.23-1.82c-0.21-0.16-0.42-0.32-0.63-0.48
						c0.25,2.3,0.5,4.6,0.75,6.89c0.07,0.63,1.07,0.64,1,0c-0.25-2.3-0.5-4.6-0.75-6.89c-0.03-0.31-0.29-0.59-0.63-0.48
						c-2.03,0.62-1.53,3.19-2.95,4.36c0.28,0.07,0.56,0.15,0.84,0.22c-0.21-1.43-0.29-2.87-0.24-4.31c0.02-0.5-0.69-0.68-0.93-0.25
						c-1.48,2.68-2.26,5.7-2.26,8.76C252.53,131.5,253.53,131.5,253.53,130.85L253.53,130.85z"/>
				</g>
			</g>
		</g>
		<g>
			<g>
				<g>
					<path d="M231.06,96.78c0.39-1.98,1.32-4.01,2.8-5.42c0.14-0.13,0.35-0.33,0.56-0.32c0.2,0.01,0.33,0.2,0.43,0.34
						c0.31,0.43,0.57,0.91,0.81,1.38c0.5,1,0.84,2.06,1.05,3.15c0.12,0.63,1.08,0.36,0.96-0.27c-0.19-0.99-0.5-1.95-0.91-2.87
						c-0.2-0.46-0.43-0.9-0.69-1.33c-0.23-0.39-0.48-0.82-0.85-1.11c-0.9-0.7-1.84,0.01-2.45,0.72c-0.64,0.73-1.19,1.54-1.63,2.41
						c-0.49,0.97-0.85,2-1.05,3.06C229.97,97.14,230.93,97.41,231.06,96.78L231.06,96.78z"/>
				</g>
			</g>
			<g>
				<g>
					<path d="M233.3,91.11c0.06,9.72,0.46,19.44,1.22,29.13c0.05,0.64,1.05,0.64,1,0c-0.76-9.69-1.16-19.41-1.22-29.13
						C234.3,90.47,233.3,90.47,233.3,91.11L233.3,91.11z"/>
				</g>
			</g>
		</g>
	</g>
</g>
<g>
	<g>
		<g>
			<path class="st4" d="M50.11,155.12c1.25,3.59,2.84,7.1,4.82,10.34c0.4,0.66,0.91,1.33,1.69,1.56c0.91,0.27,1.77-0.14,2.42-0.76
				c1.08-1.02,1.87-2.36,2.73-3.56c0.87-1.22,1.88-2.5,3.32-3.04c1.19-0.45,0.68-2.38-0.53-1.93c-1.67,0.62-2.88,1.79-3.95,3.19
				c-0.54,0.7-1.03,1.43-1.54,2.15c-0.45,0.63-0.94,1.43-1.57,1.88c-0.28,0.2-0.34,0.21-0.57-0.07c-0.3-0.36-0.51-0.81-0.74-1.21
				c-0.55-0.96-1.07-1.93-1.56-2.91c-0.99-2-1.86-4.06-2.59-6.17C51.62,153.38,49.69,153.9,50.11,155.12L50.11,155.12z"/>
		</g>
	</g>
	<g>
		<g>
			<path class="st4" d="M259.99,37.43c1.06-1.67,2.26-3.23,3.61-4.68c0.68-0.72,1.39-1.42,2.14-2.07c0.35-0.31,0.7-0.6,1.06-0.89
				c0.21-0.17,0.56-0.54,0.86-0.49c0.58,0.1,0.89,1.11,1.05,1.57c0.27,0.8,0.44,1.63,0.64,2.45c0.39,1.64,0.9,3.28,2.15,4.48
				c0.93,0.89,2.35-0.52,1.41-1.41c-1.31-1.25-1.51-3.16-1.93-4.83c-0.42-1.69-1.25-4.32-3.44-4.26c-1.09,0.03-1.95,0.89-2.73,1.55
				c-0.84,0.71-1.64,1.47-2.4,2.26c-1.55,1.62-2.94,3.41-4.14,5.31C257.57,37.51,259.3,38.51,259.99,37.43L259.99,37.43z"/>
		</g>
	</g>
	<g>
		<g>
			<path class="st4" d="M266.68,29.41c-2.61,10.67-4.78,21.42-8.99,31.61c-1.29,3.13-2.7,6.21-4.15,9.27
				c-1.19,2.53-2.49,5.04-4.31,7.19c-1.65,1.95-3.61,3.63-5.51,5.33c-2.34,2.11-5.19,3.41-8.3,3.94
				c-6.17,1.05-12.11-1.53-16.85-5.37c-2.1-1.69-3.91-3.71-5.36-5.98c-1.66-2.6-2.63-5.41-3.81-8.23c-2.16-5.16-5.94-11-11.7-12.51
				c-2.78-0.73-5.8-0.18-8.21,1.36c-2.83,1.81-4.74,4.73-6.38,7.59c-6.91,12.07-9.59,27.54-21.43,36.18
				c-5.11,3.72-11.35,5.23-17.46,3.23c-6.12-2-11.08-6.81-14.83-11.9c-7.9-10.73-11.48-25.17-22.61-33.36
				c-2.61-1.92-5.79-3.39-9.08-3.4c-3.36-0.01-6.26,1.69-8.55,4.04c-2.4,2.46-4.4,5.41-6.2,8.33c-1.87,3.03-3.51,6.2-4.95,9.45
				c-5.87,13.25-8.65,27.58-11.95,41.62c-2.78,11.83-5.49,23.66-7.7,35.6c-0.66,3.59-1.3,7.18-1.91,10.78
				c-0.21,1.26,1.71,1.8,1.93,0.53c2.14-12.56,4.64-25.04,7.52-37.46c1.55-6.69,3.14-13.38,4.69-20.08
				c1.62-7.02,3.34-14.02,5.63-20.86c2.28-6.8,5.15-13.43,9.03-19.49c1.83-2.86,3.83-5.83,6.42-8.06c2.74-2.37,6.1-2.95,9.51-1.79
				c6.47,2.2,11.03,8.6,14.42,14.19c3.56,5.88,6.35,12.2,10.05,18c6.5,10.17,17.92,20.21,30.83,15.65
				c13.41-4.74,18.76-19.16,23.92-31.06c1.5-3.45,3.08-6.88,5.02-10.11c1.69-2.81,3.77-5.71,7-6.83c6.13-2.12,11.09,3.35,13.76,8.21
				c1.5,2.73,2.34,5.73,3.71,8.52c1.23,2.49,2.79,4.81,4.69,6.84c1.9,2.03,4.14,3.73,6.53,5.14c2.63,1.55,5.4,2.82,8.45,3.25
				c3.04,0.43,6.19,0.19,9.11-0.77c2.95-0.97,5.24-2.67,7.52-4.72c1.84-1.66,3.68-3.33,5.2-5.3c1.82-2.36,3.12-5.04,4.38-7.73
				c2.46-5.26,4.81-10.59,6.64-16.11c1.58-4.77,2.75-9.67,3.9-14.55c0.76-3.22,1.52-6.44,2.31-9.65
				C268.92,28.69,266.99,28.16,266.68,29.41L266.68,29.41z"/>
		</g>
	</g>
</g>
<g>
	<g>
		<g>
			<path d="M146.3,160.82c-3.89,7.66-7.79,15.32-11.68,22.97c-0.2,0.39,0.13,0.84,0.56,0.73c3.18-0.78,6.19-2.06,9.31-3.02
				c1.53-0.47,3.1-0.87,4.7-1.06c0.8-0.09,1.6-0.13,2.4-0.11c0.87,0.02,1.71,0.07,2.57-0.11c0.63-0.13,0.36-1.1-0.27-0.96
				c-0.87,0.18-1.76,0.07-2.64,0.07c-0.8,0-1.6,0.05-2.39,0.16c-1.58,0.2-3.12,0.58-4.64,1.05c-3.12,0.96-6.13,2.25-9.31,3.02
				c0.19,0.24,0.38,0.49,0.56,0.73c3.89-7.66,7.79-15.32,11.68-22.97C147.45,160.75,146.59,160.24,146.3,160.82L146.3,160.82z"/>
		</g>
	</g>
	<g>
		<g>
			<path d="M142.82,169c3.13-0.2,6.18-1.04,8.97-2.48c0.57-0.3,0.07-1.16-0.5-0.86c-2.63,1.36-5.51,2.16-8.46,2.34
				C142.18,168.04,142.17,169.04,142.82,169L142.82,169z"/>
		</g>
	</g>
	<g>
		<g>
			<path d="M146.1,160.78c2.74-1.83,6.12-2.56,9.37-1.96c0.63,0.12,0.9-0.85,0.27-0.96c-3.5-0.65-7.17,0.08-10.14,2.06
				C145.06,160.27,145.56,161.14,146.1,160.78L146.1,160.78z"/>
		</g>
	</g>
	<g>
		<g>
			<path d="M156.46,165.92c2.4,5.33,5.45,10.34,9.06,14.94c0.4,0.51,1.1-0.21,0.71-0.71c-3.55-4.53-6.54-9.49-8.9-14.73
				C157.06,164.83,156.19,165.34,156.46,165.92L156.46,165.92z"/>
		</g>
	</g>
	<g>
		<g>
			<path d="M166.88,163.8c-4.55,5.74-8.45,11.97-11.6,18.59c-0.28,0.58,0.59,1.09,0.86,0.5c3.11-6.53,6.95-12.71,11.44-18.39
				C167.98,164.01,167.28,163.3,166.88,163.8L166.88,163.8z"/>
		</g>
	</g>
	<g>
		<g>
			<path d="M170.9,166.88c1.26-1.66,3.38-2.3,5.3-2.84c1.19-0.33,2.38-0.65,3.57-0.97c0.65-0.18,1.3-0.35,1.95-0.53
				c0.47-0.13,0.9-0.27,1.23-0.64c0.42-0.48-0.28-1.19-0.71-0.71c-0.38,0.43-1.17,0.49-1.71,0.64c-0.65,0.18-1.3,0.35-1.95,0.53
				c-1.18,0.32-2.36,0.62-3.53,0.97c-1.92,0.58-3.77,1.4-5.01,3.04C169.65,166.89,170.52,167.39,170.9,166.88L170.9,166.88z"/>
		</g>
	</g>
	<g>
		<g>
			<path d="M176.08,163.55c-1.13,5.51-2.02,11.07-2.67,16.65c-0.07,0.64,0.93,0.63,1,0c0.64-5.5,1.53-10.96,2.64-16.39
				C177.17,163.19,176.21,162.92,176.08,163.55L176.08,163.55z"/>
		</g>
	</g>
	<g>
		<g>
			<path d="M181.98,181.34c0.24-2.9-0.1-5.8-0.01-8.71c0.08-2.55,0.51-5.74,2.59-7.49c0.86-0.72,2.34-1.34,3.23-0.32
				c0.8,0.91,0.3,2.34-0.28,3.22c-0.69,1.05-1.85,1.7-2.84,2.44c-0.91,0.68-2.19,1.65-2.4,2.85c-0.12,0.66,0.3,1.16,0.81,1.52
				c0.64,0.46,1.34,0.86,2.04,1.23c1.53,0.83,3.15,1.51,4.81,2.03c0.62,0.19,0.88-0.77,0.27-0.96c-1.62-0.51-3.18-1.17-4.67-1.98
				c-0.65-0.35-1.36-0.72-1.94-1.18c-0.4-0.32-0.34-0.59-0.08-0.99c0.23-0.36,0.52-0.67,0.83-0.95c1.04-0.96,2.33-1.62,3.34-2.62
				c0.83-0.83,1.42-1.96,1.52-3.13c0.09-1.11-0.4-2.22-1.42-2.73c-1.05-0.53-2.29-0.22-3.24,0.38c-2.34,1.48-3.18,4.48-3.45,7.08
				c-0.35,3.43,0.2,6.89-0.09,10.32C180.93,181.98,181.93,181.98,181.98,181.34L181.98,181.34z"/>
		</g>
	</g>
	<g>
		<g>
			<path d="M194.92,167.08c-0.25,4.02-0.86,8.01-1.83,11.92c-0.09,0.35,0.24,0.74,0.62,0.62c2.38-0.81,4.76-1.62,7.14-2.43
				c0.61-0.21,0.35-1.17-0.27-0.96c-2.38,0.81-4.76,1.62-7.14,2.43c0.21,0.21,0.41,0.41,0.62,0.62c0.99-4,1.61-8.07,1.87-12.18
				C195.96,166.43,194.95,166.44,194.92,167.08L194.92,167.08z"/>
		</g>
	</g>
	<g>
		<g>
			<path d="M195,172.03c1.63-0.14,3.25-0.27,4.88-0.41c0.27-0.02,0.5-0.21,0.5-0.5c0-0.25-0.23-0.52-0.5-0.5
				c-1.63,0.14-3.25,0.27-4.88,0.41c-0.27,0.02-0.5,0.21-0.5,0.5C194.5,171.79,194.73,172.06,195,172.03L195,172.03z"/>
		</g>
	</g>
	<g>
		<g>
			<path d="M196.25,167.13c1.43-0.38,2.91-0.48,4.38-0.29c0.27,0.03,0.5-0.25,0.5-0.5c0-0.3-0.23-0.47-0.5-0.5
				c-1.55-0.2-3.14-0.08-4.65,0.32C195.36,166.34,195.63,167.3,196.25,167.13L196.25,167.13z"/>
		</g>
	</g>
	<g>
		<g>
			<path d="M204.42,177.58c0.49-4.79,1.82-9.47,3.91-13.8c-0.3-0.04-0.61-0.08-0.91-0.12c0.81,2.46,1.21,5.01,1.18,7.61
				c0,0.48,0.7,0.7,0.93,0.25c0.88-1.67,1.77-3.34,2.65-5.01c0.23-0.44,0.46-0.87,0.69-1.31c0.17-0.3,0.34-0.68,0.65-0.85
				c1.05-0.56,1.29,1.22,1.28,1.84c-0.11,3.8-0.47,7.62-0.7,11.41c-0.04,0.64,0.96,0.64,1,0c0.14-2.33,0.29-4.65,0.43-6.98
				c0.07-1.16,0.14-2.33,0.22-3.49c0.06-0.95,0.19-2-0.31-2.86c-0.37-0.64-1.13-1.13-1.89-0.99c-0.85,0.15-1.28,0.93-1.65,1.63
				c-1.08,2.03-2.15,4.06-3.23,6.09c0.31,0.08,0.62,0.17,0.93,0.25c0.02-2.67-0.39-5.33-1.22-7.87c-0.12-0.38-0.72-0.53-0.91-0.12
				c-2.17,4.51-3.53,9.33-4.05,14.31C203.36,178.22,204.36,178.21,204.42,177.58L204.42,177.58z"/>
		</g>
	</g>
	<g>
		<g>
			<path d="M218.84,177.6c0.23-2.48,0.62-4.94,1.18-7.37c0.27-1.16,0.57-2.31,0.91-3.45c0.22-0.75,0.57-2.55,1.68-2.41
				c0.61,0.07,0.65,0.88,0.74,1.35c0.1,0.56,0.2,1.12,0.3,1.68c0.21,1.2,0.41,2.4,0.61,3.61c0.4,2.49,0.78,4.98,1.12,7.48
				c0.09,0.63,1.05,0.36,0.96-0.27c-0.31-2.25-0.65-4.51-1.01-6.75c-0.35-2.19-0.61-4.45-1.14-6.6c-0.18-0.73-0.63-1.38-1.42-1.48
				c-0.78-0.1-1.5,0.33-1.94,0.95c-0.54,0.76-0.75,1.76-1,2.64c-0.31,1.07-0.58,2.14-0.83,3.22c-0.55,2.44-0.93,4.92-1.16,7.41
				C217.78,178.24,218.78,178.23,218.84,177.6L218.84,177.6z"/>
		</g>
	</g>
	<g>
		<g>
			<path d="M220.28,171.65c2.14-0.51,4.36-0.47,6.48,0.1c0.62,0.17,0.89-0.79,0.27-0.96c-2.29-0.63-4.7-0.66-7.01-0.1
				C219.39,170.84,219.65,171.8,220.28,171.65L220.28,171.65z"/>
		</g>
	</g>
</g>
<g>
	<g>
		<g>
			<path d="M96.21,59.77c6.18,12.57,12.46,25.09,18.86,37.55c6.41,12.48,12.93,24.9,19.56,37.26c3.35,6.25,6.6,12.7,11.59,17.83
				c0.45,0.46,1.16-0.25,0.71-0.71c-4.42-4.54-7.41-10.14-10.38-15.68c-3.3-6.15-6.58-12.31-9.83-18.48
				c-6.49-12.33-12.87-24.72-19.14-37.17c-3.54-7.02-7.04-14.06-10.5-21.11C96.79,58.69,95.93,59.19,96.21,59.77L96.21,59.77z"/>
		</g>
	</g>
	<g>
		<g>
			<path d="M93.51,70.69c0.27-2.02,0.63-4.03,1.06-6.03c0.21-0.96,0.44-1.92,0.68-2.87c0.13-0.51,0.26-1.03,0.42-1.53
				c0.09-0.32,0.19-0.74,0.48-0.94c0.58-0.42,1.92,0.85,2.36,1.2c0.68,0.52,1.32,1.09,1.94,1.68c1.3,1.25,2.45,2.64,3.45,4.14
				c0.35,0.53,1.22,0.03,0.86-0.5c-1.11-1.68-2.41-3.24-3.89-4.62c-0.75-0.7-1.55-1.36-2.38-1.96c-0.68-0.5-1.54-1.25-2.46-0.99
				c-0.78,0.22-1.11,1.02-1.32,1.73c-0.33,1.12-0.61,2.26-0.88,3.4c-0.54,2.32-0.96,4.66-1.29,7.02
				C92.46,71.06,93.43,71.33,93.51,70.69L93.51,70.69z"/>
		</g>
	</g>
</g>
<g>
	<g>
		<g>
			<path d="M193.79,58.97c-1.1,12.38-2.43,24.75-3.99,37.08c-1.56,12.36-3.36,24.69-5.38,36.98c-1.13,6.87-2.33,13.73-3.61,20.57
				c-0.12,0.63,0.85,0.9,0.96,0.27c2.28-12.24,4.33-24.53,6.15-36.85c1.82-12.3,3.41-24.63,4.77-36.98
				c0.77-7.02,1.47-14.04,2.1-21.07C194.85,58.33,193.85,58.34,193.79,58.97L193.79,58.97z"/>
		</g>
	</g>
	<g>
		<g>
			<path d="M190.91,65.07c0.93-2.58,2.32-4.98,4.08-7.08c-0.28-0.07-0.56-0.15-0.84-0.22c1.32,3.29,2.64,6.58,3.96,9.86
				c0.24,0.59,1.2,0.33,0.96-0.27c-1.32-3.29-2.64-6.58-3.96-9.86c-0.13-0.31-0.57-0.54-0.84-0.22c-1.88,2.24-3.35,4.77-4.34,7.52
				C189.72,65.41,190.69,65.67,190.91,65.07L190.91,65.07z"/>
		</g>
	</g>
</g>
<g>
	<g>
		<g>
			<path d="M230.64,92.03c-4.27,8.08-8.44,16.22-12.49,24.42c-4.05,8.2-8,16.45-11.83,24.75c-2.17,4.7-4.3,9.42-6.4,14.15
				c-0.26,0.58,0.6,1.09,0.86,0.5c3.7-8.36,7.52-16.67,11.45-24.92c3.93-8.26,7.97-16.46,12.12-24.61
				c2.35-4.61,4.74-9.21,7.15-13.79C231.81,91.97,230.94,91.46,230.64,92.03L230.64,92.03z"/>
		</g>
	</g>
	<g>
		<g>
			<path d="M224.65,96.05c2.56-1.53,5.12-3.05,7.68-4.58c-0.25-0.14-0.5-0.29-0.75-0.43c0.39,2.95,1.09,5.83,2.14,8.61
				c0.22,0.6,1.19,0.34,0.96-0.27c-1.01-2.69-1.73-5.49-2.1-8.34c-0.05-0.36-0.39-0.65-0.75-0.43c-2.56,1.53-5.12,3.05-7.68,4.58
				C223.59,95.51,224.09,96.38,224.65,96.05L224.65,96.05z"/>
		</g>
	</g>
</g>
<g>
	<g>
		<g>
			<path d="M148.01,115.93c0.66-1.33,1.32-2.66,1.98-3.99c0.32-0.65,0.65-1.3,0.97-1.95c0.16-0.32,0.3-0.66,0.49-0.96
				c0.05-0.09,0.12-0.22,0.21-0.27c0.24-0.16,0.4-0.02,0.6,0.14c2.17,1.71,4.11,3.8,5.85,5.94c0.15,0.18,0.42,0.16,0.61,0.08
				c0.56-0.25,0.68-0.86,0.45-1.39c-0.25-0.59-1.12-0.08-0.86,0.5c0-0.06-0.03-0.05-0.09,0.02c0.2,0.03,0.4,0.05,0.61,0.08
				c-1.03-1.26-2.12-2.47-3.28-3.61c-0.58-0.57-1.18-1.12-1.79-1.66c-0.49-0.43-1.06-1.09-1.74-1.17c-0.64-0.08-1.1,0.34-1.42,0.84
				c-0.43,0.7-0.75,1.49-1.12,2.22c-0.77,1.56-1.55,3.11-2.32,4.67C146.86,116,147.72,116.5,148.01,115.93L148.01,115.93z"/>
		</g>
	</g>
	<g>
		<g>
			<path d="M151.42,108.45c3.12,11.8,5.89,23.7,8.3,35.66c0.68,3.38,1.33,6.76,1.95,10.14c0.12,0.63,1.08,0.36,0.96-0.27
				c-2.2-11.98-4.76-23.88-7.67-35.7c-0.83-3.38-1.69-6.74-2.58-10.1C152.22,107.56,151.25,107.82,151.42,108.45L151.42,108.45z"/>
		</g>
	</g>
</g>
</svg>
