<?xml version="1.0" encoding="utf-8" standalone="no"?>
<!DOCTYPE svg PUBLIC "-//W3C//DTD SVG 1.1//EN"
  "http://www.w3.org/Graphics/SVG/1.1/DTD/svg11.dtd">
<!-- Created with matplotlib (http://matplotlib.org/) -->
<svg height="280.8pt" version="1.1" viewBox="0 0 424.8 280.8" width="424.8pt" xmlns="http://www.w3.org/2000/svg" xmlns:xlink="http://www.w3.org/1999/xlink">
 <defs>
  <style type="text/css">
*{stroke-linecap:butt;stroke-linejoin:round;}
  </style>
 </defs>
 <g id="figure_1">
  <g id="patch_1">
   <path d="M 0 280.8 
L 424.8 280.8 
L 424.8 0 
L 0 0 
z
" style="fill:#ffffff;"/>
  </g>
  <g id="axes_1">
   <g id="patch_2">
    <path d="M 10.7 270.1 
L 414.1 270.1 
L 414.1 10.7 
L 10.7 10.7 
z
" style="fill:#ffffff;"/>
   </g>
   <g id="matplotlib.axis_1">
    <g id="xtick_1">
     <g id="line2d_1">
      <defs>
       <path d="M 0 0 
L 0 3.5 
" id="m09ad919d8f" style="stroke:#808080;stroke-width:0.8;"/>
      </defs>
      <g>
       <use style="fill:#808080;stroke:#808080;stroke-width:0.8;" x="18.457692" xlink:href="#m09ad919d8f" y="215.226923"/>
      </g>
     </g>
     <g id="text_1">
      <!-- -5 -->
      <defs>
       <path d="M 4.890625 31.390625 
L 31.203125 31.390625 
L 31.203125 23.390625 
L 4.890625 23.390625 
z
" id="DejaVuSans-2d"/>
       <path d="M 10.796875 72.90625 
L 49.515625 72.90625 
L 49.515625 64.59375 
L 19.828125 64.59375 
L 19.828125 46.734375 
Q 21.96875 47.46875 24.109375 47.828125 
Q 26.265625 48.1875 28.421875 48.1875 
Q 40.625 48.1875 47.75 41.5 
Q 54.890625 34.8125 54.890625 23.390625 
Q 54.890625 11.625 47.5625 5.09375 
Q 40.234375 -1.421875 26.90625 -1.421875 
Q 22.3125 -1.421875 17.546875 -0.640625 
Q 12.796875 0.140625 7.71875 1.703125 
L 7.71875 11.625 
Q 12.109375 9.234375 16.796875 8.0625 
Q 21.484375 6.890625 26.703125 6.890625 
Q 35.15625 6.890625 40.078125 11.328125 
Q 45.015625 15.765625 45.015625 23.390625 
Q 45.015625 31 40.078125 35.4375 
Q 35.15625 39.890625 26.703125 39.890625 
Q 22.75 39.890625 18.8125 39.015625 
Q 14.890625 38.140625 10.796875 36.28125 
z
" id="DejaVuSans-35"/>
      </defs>
      <g transform="translate(9.484411 235.904111)scale(0.18 -0.18)">
       <use xlink:href="#DejaVuSans-2d"/>
       <use x="36.083984" xlink:href="#DejaVuSans-35"/>
      </g>
     </g>
    </g>
    <g id="xtick_2">
     <g id="line2d_2">
      <g>
       <use style="fill:#808080;stroke:#808080;stroke-width:0.8;" x="73.86978" xlink:href="#m09ad919d8f" y="215.226923"/>
      </g>
     </g>
     <g id="text_2">
      <!-- -4 -->
      <defs>
       <path d="M 37.796875 64.3125 
L 12.890625 25.390625 
L 37.796875 25.390625 
z
M 35.203125 72.90625 
L 47.609375 72.90625 
L 47.609375 25.390625 
L 58.015625 25.390625 
L 58.015625 17.1875 
L 47.609375 17.1875 
L 47.609375 0 
L 37.796875 0 
L 37.796875 17.1875 
L 4.890625 17.1875 
L 4.890625 26.703125 
z
" id="DejaVuSans-34"/>
      </defs>
      <g transform="translate(64.896499 235.904111)scale(0.18 -0.18)">
       <use xlink:href="#DejaVuSans-2d"/>
       <use x="36.083984" xlink:href="#DejaVuSans-34"/>
      </g>
     </g>
    </g>
    <g id="xtick_3">
     <g id="line2d_3">
      <g>
       <use style="fill:#808080;stroke:#808080;stroke-width:0.8;" x="129.281868" xlink:href="#m09ad919d8f" y="215.226923"/>
      </g>
     </g>
     <g id="text_3">
      <!-- -3 -->
      <defs>
       <path d="M 40.578125 39.3125 
Q 47.65625 37.796875 51.625 33 
Q 55.609375 28.21875 55.609375 21.1875 
Q 55.609375 10.40625 48.1875 4.484375 
Q 40.765625 -1.421875 27.09375 -1.421875 
Q 22.515625 -1.421875 17.65625 -0.515625 
Q 12.796875 0.390625 7.625 2.203125 
L 7.625 11.71875 
Q 11.71875 9.328125 16.59375 8.109375 
Q 21.484375 6.890625 26.8125 6.890625 
Q 36.078125 6.890625 40.9375 10.546875 
Q 45.796875 14.203125 45.796875 21.1875 
Q 45.796875 27.640625 41.28125 31.265625 
Q 36.765625 34.90625 28.71875 34.90625 
L 20.21875 34.90625 
L 20.21875 43.015625 
L 29.109375 43.015625 
Q 36.375 43.015625 40.234375 45.921875 
Q 44.09375 48.828125 44.09375 54.296875 
Q 44.09375 59.90625 40.109375 62.90625 
Q 36.140625 65.921875 28.71875 65.921875 
Q 24.65625 65.921875 20.015625 65.03125 
Q 15.375 64.15625 9.8125 62.3125 
L 9.8125 71.09375 
Q 15.4375 72.65625 20.34375 73.4375 
Q 25.25 74.21875 29.59375 74.21875 
Q 40.828125 74.21875 47.359375 69.109375 
Q 53.90625 64.015625 53.90625 55.328125 
Q 53.90625 49.265625 50.4375 45.09375 
Q 46.96875 40.921875 40.578125 39.3125 
z
" id="DejaVuSans-33"/>
      </defs>
      <g transform="translate(120.308587 235.904111)scale(0.18 -0.18)">
       <use xlink:href="#DejaVuSans-2d"/>
       <use x="36.083984" xlink:href="#DejaVuSans-33"/>
      </g>
     </g>
    </g>
    <g id="xtick_4">
     <g id="line2d_4">
      <g>
       <use style="fill:#808080;stroke:#808080;stroke-width:0.8;" x="184.693956" xlink:href="#m09ad919d8f" y="215.226923"/>
      </g>
     </g>
     <g id="text_4">
      <!-- -2 -->
      <defs>
       <path d="M 19.1875 8.296875 
L 53.609375 8.296875 
L 53.609375 0 
L 7.328125 0 
L 7.328125 8.296875 
Q 12.9375 14.109375 22.625 23.890625 
Q 32.328125 33.6875 34.8125 36.53125 
Q 39.546875 41.84375 41.421875 45.53125 
Q 43.3125 49.21875 43.3125 52.78125 
Q 43.3125 58.59375 39.234375 62.25 
Q 35.15625 65.921875 28.609375 65.921875 
Q 23.96875 65.921875 18.8125 64.3125 
Q 13.671875 62.703125 7.8125 59.421875 
L 7.8125 69.390625 
Q 13.765625 71.78125 18.9375 73 
Q 24.125 74.21875 28.421875 74.21875 
Q 39.75 74.21875 46.484375 68.546875 
Q 53.21875 62.890625 53.21875 53.421875 
Q 53.21875 48.921875 51.53125 44.890625 
Q 49.859375 40.875 45.40625 35.40625 
Q 44.1875 33.984375 37.640625 27.21875 
Q 31.109375 20.453125 19.1875 8.296875 
z
" id="DejaVuSans-32"/>
      </defs>
      <g transform="translate(175.720675 235.904111)scale(0.18 -0.18)">
       <use xlink:href="#DejaVuSans-2d"/>
       <use x="36.083984" xlink:href="#DejaVuSans-32"/>
      </g>
     </g>
    </g>
    <g id="xtick_5">
     <g id="line2d_5">
      <g>
       <use style="fill:#808080;stroke:#808080;stroke-width:0.8;" x="240.106044" xlink:href="#m09ad919d8f" y="215.226923"/>
      </g>
     </g>
     <g id="text_5">
      <!-- -1 -->
      <defs>
       <path d="M 12.40625 8.296875 
L 28.515625 8.296875 
L 28.515625 63.921875 
L 10.984375 60.40625 
L 10.984375 69.390625 
L 28.421875 72.90625 
L 38.28125 72.90625 
L 38.28125 8.296875 
L 54.390625 8.296875 
L 54.390625 0 
L 12.40625 0 
z
" id="DejaVuSans-31"/>
      </defs>
      <g transform="translate(231.132763 235.904111)scale(0.18 -0.18)">
       <use xlink:href="#DejaVuSans-2d"/>
       <use x="36.083984" xlink:href="#DejaVuSans-31"/>
      </g>
     </g>
    </g>
    <g id="xtick_6">
     <g id="line2d_6">
      <g>
       <use style="fill:#808080;stroke:#808080;stroke-width:0.8;" x="295.518132" xlink:href="#m09ad919d8f" y="215.226923"/>
      </g>
     </g>
    </g>
    <g id="xtick_7">
     <g id="line2d_7">
      <g>
       <use style="fill:#808080;stroke:#808080;stroke-width:0.8;" x="350.93022" xlink:href="#m09ad919d8f" y="215.226923"/>
      </g>
     </g>
     <g id="text_6">
      <!-- 1 -->
      <g transform="translate(345.20397 235.904111)scale(0.18 -0.18)">
       <use xlink:href="#DejaVuSans-31"/>
      </g>
     </g>
    </g>
    <g id="xtick_8">
     <g id="line2d_8">
      <g>
       <use style="fill:#808080;stroke:#808080;stroke-width:0.8;" x="406.342308" xlink:href="#m09ad919d8f" y="215.226923"/>
      </g>
     </g>
     <g id="text_7">
      <!-- 2 -->
      <g transform="translate(400.616058 235.904111)scale(0.18 -0.18)">
       <use xlink:href="#DejaVuSans-32"/>
      </g>
     </g>
    </g>
   </g>
   <g id="matplotlib.axis_2"/>
   <g id="patch_3">
    <path d="M 295.518132 270.1 
L 295.518132 10.7 
" style="fill:none;stroke:#808080;stroke-linecap:square;stroke-linejoin:miter;stroke-width:2;"/>
   </g>
   <g id="patch_4">
    <path d="M 10.7 215.226923 
L 414.1 215.226923 
" style="fill:none;stroke:#808080;stroke-linecap:square;stroke-linejoin:miter;stroke-width:2;"/>
   </g>
   <g id="line2d_9">
    <path clip-path="url(#p4a37a492c3)" d="M 60.821756 -1 
L 63.703991 28.794825 
L 66.430718 54.779967 
L 69.015035 77.509435 
L 71.770471 99.78836 
L 74.442716 119.543558 
L 77.039704 137.067162 
L 79.570414 152.619416 
L 82.009439 166.242013 
L 84.400297 178.346391 
L 86.786786 189.245125 
L 89.066284 198.595833 
L 91.131542 206.209322 
L 93.177696 212.978623 
L 95.364369 219.394556 
L 97.191606 224.132329 
L 98.991027 228.26406 
L 100.783502 231.872009 
L 102.656113 235.119973 
L 104.252447 237.483514 
L 105.91042 239.557866 
L 107.465707 241.163686 
L 109.03793 242.464315 
L 110.599287 243.446345 
L 111.898606 244.03648 
L 113.207852 244.429405 
L 114.524668 244.626891 
L 115.841485 244.6326 
L 117.433395 244.392637 
L 119.116129 243.856937 
L 120.719824 243.088384 
L 122.270826 242.116206 
L 124.049732 240.737042 
L 125.922881 238.995296 
L 127.930105 236.818132 
L 130.160052 234.046665 
L 132.702901 230.467063 
L 135.3912 226.238977 
L 138.361958 221.089936 
L 141.178048 215.799109 
L 144.63639 208.829216 
L 148.72613 200.027185 
L 152.944808 190.450819 
L 159.151617 175.741916 
L 177.766465 130.988009 
L 183.181153 118.755378 
L 187.845141 108.78372 
L 191.857278 100.709455 
L 195.725524 93.425128 
L 199.449655 86.921487 
L 202.535387 81.938629 
L 205.902134 76.945349 
L 208.551391 73.355062 
L 211.550543 69.663143 
L 214.43456 66.495982 
L 216.831451 64.155465 
L 219.518874 61.851042 
L 221.776649 60.179166 
L 223.984058 58.779465 
L 226.268597 57.576389 
L 228.630768 56.595397 
L 230.726689 55.948528 
L 232.948784 55.491358 
L 235.014616 55.276083 
L 236.893066 55.254292 
L 239.106026 55.438904 
L 241.293066 55.841825 
L 243.698484 56.533615 
L 246.053081 57.457686 
L 248.688134 58.77377 
L 251.316623 60.373806 
L 254.17972 62.430202 
L 256.944967 64.712258 
L 260.179089 67.728798 
L 263.180643 70.840583 
L 266.476512 74.573986 
L 270.088369 79.005242 
L 274.330058 84.59662 
L 278.624187 90.59645 
L 284.710531 99.487082 
L 294.445381 113.905388 
L 294.445381 113.905388 
" style="fill:none;stroke:#ff0000;stroke-linecap:square;stroke-width:5;"/>
   </g>
   <g id="line2d_10">
    <path clip-path="url(#p4a37a492c3)" d="M 296.821424 117.323259 
L 301.274806 123.477134 
L 305.432356 128.803415 
L 308.787879 132.709192 
L 311.592403 135.643537 
L 313.83029 137.735857 
L 315.979935 139.512647 
L 318.473505 141.257726 
L 320.566821 142.435747 
L 322.607571 143.310011 
L 324.301435 143.815226 
L 326.070985 144.115575 
L 327.794863 144.1716 
L 329.269348 144.024286 
L 330.788983 143.674809 
L 332.363544 143.09128 
L 334.07767 142.187739 
L 335.464716 141.242787 
L 337.103749 139.868821 
L 338.724773 138.224311 
L 340.57524 135.984292 
L 342.500614 133.224237 
L 344.430085 129.998321 
L 346.41241 126.182005 
L 348.413416 121.789921 
L 350.540997 116.497592 
L 352.463958 111.13775 
L 354.714193 104.139271 
L 356.931057 96.4444 
L 359.314539 87.243989 
L 361.603906 77.461105 
L 363.909016 66.632669 
L 366.240641 54.637784 
L 368.796678 40.231607 
L 371.414565 24.053395 
L 374.030107 6.386222 
L 375.060313 -1 
L 375.060313 -1 
" style="fill:none;stroke:#ff0000;stroke-linecap:square;stroke-width:5;"/>
   </g>
  </g>
 </g>
 <defs>
  <clipPath id="p4a37a492c3">
   <rect height="259.4" width="403.4" x="10.7" y="10.7"/>
  </clipPath>
 </defs>
</svg>
