<svg xmlns="http://www.w3.org/2000/svg" viewBox="0 0 247.37 151.5">
  <defs>
    <style>
      .cls-1 {
        fill: #808285;
      }

      .cls-2 {
        fill: #ed1c24;
      }

      .cls-3 {
        fill: #231f20;
      }
    </style>
  </defs>
  <title>Asset 3</title>
  <g id="Layer_2" data-name="Layer 2">
    <g id="Layer_1-2" data-name="Layer 1">
      <g>
        <path class="cls-1" d="M10,63.8c-1.73,1.43-3.42,2.92-5,4.47-.81.77-1.61,1.56-2.4,2.36A12.92,12.92,0,0,0,.45,73c-1,1.86,0,3.61,1.75,4.43.86.4,1.77.68,2.65,1s1.88.86,2.78,1.35a33,33,0,0,1,5.79,4c1,.85,2.38-.56,1.41-1.41a34.66,34.66,0,0,0-9.83-6c-.79-.32-3.47-.88-2.91-2.21A8.23,8.23,0,0,1,4,72.05c.71-.72,1.42-1.43,2.15-2.13q2.56-2.44,5.3-4.7C12.4,64.4,11,63,10,63.8Z" transform="translate(-0.03 -0.01)"/>
        <path class="cls-1" d="M235.42,71.4l6.25,3.92c.92.57,1.86,1.11,2.75,1.73.72.52,1.29,1,.7,1.89A12.68,12.68,0,0,1,243,81.08a26.93,26.93,0,0,1-2.23,1.76,31.4,31.4,0,0,1-5.59,3.09,1,1,0,0,0,1,1.73,30.62,30.62,0,0,0,9.12-6c1.27-1.21,2.77-2.83,1.78-4.68a5.46,5.46,0,0,0-1.9-1.83c-.86-.56-1.74-1.09-2.6-1.64l-6.15-3.85c-1.1-.68-2.1,1-1,1.73Z" transform="translate(-0.03 -0.01)"/>
        <path class="cls-1" d="M2.16,76.17c20,1.42,40.13,2.16,60.21,1.64,13.83-.36,27.6-1.74,41.44-2.11,15.42-.4,30.92-.48,46.33.28,5,.24,9.55.94,14.48,1.2,8.26.44,16.54.46,24.81.46,7.17,0,14.25.74,21.4,1.13,8.43.47,16.87.56,25.3.51q4.32,0,8.64-.11a1,1,0,0,0,0-2c-9.69.17-19.39.2-29.08-.17-6.68-.26-13.33-1-20-1.29-8.37-.31-16.76,0-25.14-.29-3.65-.11-7.31-.22-11-.61-1.9-.21-3.78-.48-5.69-.61-14.59-1-29.33-.88-43.94-.63-7.65.13-15.3.34-22.93.88-6.45.46-12.89.94-19.35,1.19-18.86.71-37.75.24-56.59-.88q-4.47-.27-8.94-.59c-1.28-.09-1.27,1.91,0,2Z" transform="translate(-0.03 -0.01)"/>
      </g>
      <g>
        <path class="cls-1" d="M98.48,13.06a52.57,52.57,0,0,1,5.92-8.58c.6-.72,1.17-1.5,1.84-2.16.18-.18.33-.38.54-.24s.39.74.51,1c.68,1.51,1.5,3,2.27,4.42a41.69,41.69,0,0,1,2.55,5.41c.43,1.2,2.37.68,1.93-.53-1.33-3.68-3.53-6.95-5.11-10.51a2.66,2.66,0,0,0-2-1.86c-1.18-.11-2,.77-2.69,1.59-1.3,1.55-2.6,3.1-3.82,4.72a45.41,45.41,0,0,0-3.63,5.73c-.61,1.13,1.11,2.14,1.73,1Z" transform="translate(-0.03 -0.01)"/>
        <path class="cls-1" d="M95.32,135.73a44.61,44.61,0,0,0,8.86,15.48,1,1,0,0,0,1.67-.44A38.07,38.07,0,0,1,113,138.16c.84-1-.57-2.39-1.41-1.42a40.62,40.62,0,0,0-7.69,13.49l1.68-.44a42.06,42.06,0,0,1-8.35-14.59c-.4-1.21-2.33-.69-1.93.53Z" transform="translate(-0.03 -0.01)"/>
        <path class="cls-1" d="M105.64,2.48l-.93,56.6c-.31,19-.63,37.91-.79,56.87q-.14,16-.08,32a1,1,0,0,0,2,0c-.08-19,.1-38,.37-56.93s.6-37.78.9-56.67l.53-31.82a1,1,0,0,0-2,0Z" transform="translate(-0.03 -0.01)"/>
      </g>
      <g>
        <path class="cls-2" d="M11.76,138.4c4-16.27,8.49-32.43,13.63-48.38A501.6,501.6,0,0,1,44.69,39c5.05-11.3,12-25.45,25.74-27.42,7.78-1.12,16.08,1.59,22.37,6.12a29.1,29.1,0,0,1,7,7.44A104.12,104.12,0,0,1,106,35.58c3.17,6.12,5.13,12.71,7.9,19a61.05,61.05,0,0,0,5.47,9.84,40,40,0,0,0,6.92,8.24,9.89,9.89,0,0,0,4.77,2.48,9.45,9.45,0,0,0,7.34-2.54,39,39,0,0,0,7.11-8.7,53.51,53.51,0,0,0,5.2-10.37,62.11,62.11,0,0,0,2.44-8c.63-2.74.95-5.88,2.74-8.17a10.6,10.6,0,0,1,7-4A10.17,10.17,0,0,1,171,36.48a14.12,14.12,0,0,1,3.48,6.79c1,3.82,1.92,7.68,2.91,11.51a62,62,0,0,0,1.91,6.68,40.81,40.81,0,0,0,2.54,5.29c2.91,5.19,7.34,10.26,13.6,11,1.69.18,3.39,0,5.09,0a11.62,11.62,0,0,1,5.32,1.54c3.44,1.91,5.86,5.41,7.85,8.72,3.14,5.24,4.62,10.93,6.24,16.76q3.1,11.13,6,22.32,1.68,6.52,3.27,13.06a1,1,0,0,0,1.93-.53Q228,126.75,224.53,114c-1.64-6.08-3.12-12.29-5.11-18.27a43.21,43.21,0,0,0-4.2-9c-2.05-3.35-4.53-6.84-8-8.89a13.94,13.94,0,0,0-4.94-1.88,31.41,31.41,0,0,0-5-.1,12.72,12.72,0,0,1-8.88-3.63c-8.73-8.18-9-20.55-12.55-31.28-1.71-5.25-6.41-9.77-12.25-9.62a12.38,12.38,0,0,0-8,3.45,13.26,13.26,0,0,0-3.62,7c-.67,2.88-1.27,5.75-2.19,8.56a55.16,55.16,0,0,1-4.36,10,46.56,46.56,0,0,1-7,9.66c-1.84,1.88-4.54,3.76-7.13,3.26a9.85,9.85,0,0,1-4.81-3.06,49.62,49.62,0,0,1-7.33-9.77C115.6,54.43,113.59,48,111,41.62a88.78,88.78,0,0,0-5.36-10.9,76.62,76.62,0,0,0-6.19-9.5c-4.67-5.78-11.71-9.6-18.91-11.17s-14.67-.62-20.76,3.69c-5.44,3.86-9.36,9.5-12.5,15.31A216,216,0,0,0,37.8,50q-5.31,12.9-9.86,26.08c-5.78,16.6-10.8,33.47-15.25,50.48q-1.47,5.63-2.86,11.28c-.3,1.25,1.63,1.78,1.93.53Z" transform="translate(-0.03 -0.01)"/>
        <path class="cls-2" d="M4.17,129.37l3.1,6.15c.51,1,1,2.06,1.55,3.08.44.86,1.25,1.6,2.26,1a19.16,19.16,0,0,0,2.46-2l2.64-2.22,5.29-4.44c1-.83-.44-2.24-1.42-1.41L15,133.78l-2.45,2.06L11.19,137l-.57.48-.38.32c-.2.18-.24.21-.14.1h.53c.11.13.14.14.07,0l-.16-.29-.33-.66-.55-1.1L8.39,133.3l-2.5-4.94c-.58-1.15-2.3-.14-1.72,1Z" transform="translate(-0.03 -0.01)"/>
        <path class="cls-2" d="M221.63,135.66l4.26,3.93,2.13,2c.63.58,1.29,1.38,2.23,1.38a2,2,0,0,0,1.75-1.42c.39-.88.78-1.76,1.16-2.64l2.38-5.39a1,1,0,0,0-.36-1.37,1,1,0,0,0-1.37.36l-2,4.62-1,2.2c-.16.36-.32.73-.49,1.1a4.3,4.3,0,0,0-.25.53c0,.18.23.07.24,0a5.62,5.62,0,0,0-.79-.71l-.89-.82-1.86-1.72L223,134.25c-.95-.87-2.36.54-1.41,1.41Z" transform="translate(-0.03 -0.01)"/>
      </g>
      <g>
        <g>
          <g>
            <path class="cls-3" d="M122.08,97.55a33.18,33.18,0,0,0,.66,12.63l1-.27c-.87-2.18-4.1-6.92-6.72-4-2.28,2.51.1,6,2.73,6.93a10.34,10.34,0,0,0,6.41-.23.5.5,0,0,0-.27-1,9.69,9.69,0,0,1-5.71.3,4.44,4.44,0,0,1-3-3.1c-.28-1.35.76-3.45,2.39-2.62a7.72,7.72,0,0,1,3.19,4,.5.5,0,0,0,1-.27A31.78,31.78,0,0,1,123,97.82c.09-.63-.87-.91-1-.27Z" transform="translate(-0.03 -0.01)"/>
            <path class="cls-3" d="M128.66,106.28c1.44-1.32,3.93-2.09,4-4.41a2.55,2.55,0,0,0-3.33-2.33c-1.87.46-2.65,2.6-2.64,4.33a10.55,10.55,0,0,0,2.38,6.16c1.3,1.75,3.2,3.38,5.53,3,.63-.11.36-1.07-.27-1-2.11.37-3.84-1.63-4.88-3.2-1.18-1.77-2.16-4-1.63-6.19a2.82,2.82,0,0,1,1.63-2.11,1.81,1.81,0,0,1,2,.57c.57.9-.22,2-.89,2.56-.84.71-1.84,1.16-2.65,1.9-.48.44.23,1.15.71.71Z" transform="translate(-0.03 -0.01)"/>
            <path class="cls-3" d="M136.84,105.71c1.14-1,2.46-2.47,1.86-4.15a1.92,1.92,0,0,0-3.2-.92c-1.13,1.15-1.1,3.24-1,4.74a12.24,12.24,0,0,0,1.71,5.24,4.44,4.44,0,0,0,2,2,1.91,1.91,0,0,0,2.24-.63c.38-.52-.49-1-.87-.51-.6.82-1.66-.17-2-.69a10.81,10.81,0,0,1-1.2-2.12,11.35,11.35,0,0,1-.89-4.88,4.86,4.86,0,0,1,.42-2.07c.28-.55.87-1,1.43-.51,1.42,1.19-.33,2.92-1.22,3.74-.47.43.24,1.14.71.71Z" transform="translate(-0.03 -0.01)"/>
            <path class="cls-3" d="M140.67,102.19a66.84,66.84,0,0,0,1.15,9.36.5.5,0,0,0,1-.13,29.15,29.15,0,0,1,.08-3.74,16,16,0,0,1,.59-3.64,1.77,1.77,0,0,1,2.16-1.15,5.76,5.76,0,0,1,2.66,1.73c.47.44,1.18-.27.7-.71a6.72,6.72,0,0,0-3.16-2,2.89,2.89,0,0,0-2.9,1,4.18,4.18,0,0,0-.62,1.65c-.14.74-.25,1.49-.34,2.24a29.88,29.88,0,0,0-.17,4.63l1-.13a66.12,66.12,0,0,1-1.11-9.1c0-.64-1-.64-1,0Z" transform="translate(-0.03 -0.01)"/>
          </g>
          <g>
            <path class="cls-3" d="M128.41,83.47a10.56,10.56,0,0,1,1-2.66,10.83,10.83,0,0,1,.74-1.23l.38-.51c.11-.14.27-.41.43-.49s0,0,.05,0,.08.08.11.11a5.11,5.11,0,0,1,.41.62c.28.42.55.86.79,1.3a21.52,21.52,0,0,1,1.27,2.76.52.52,0,0,0,.61.35.5.5,0,0,0,.35-.62,19.83,19.83,0,0,0-2.57-4.91,1.29,1.29,0,0,0-1-.63,1.43,1.43,0,0,0-1,.66,11.4,11.4,0,0,0-2.46,5c-.14.62.83.89,1,.26Z" transform="translate(-0.03 -0.01)"/>
            <path class="cls-3" d="M130.62,78.72q-.26,8.43,0,16.86c0,.53.89.71,1,.13a.78.78,0,0,1,.15-.44c.39-.5-.31-1.21-.71-.71a1.93,1.93,0,0,0-.41.88l1,.14q-.3-8.43,0-16.86c0-.64-1-.64-1,0Z" transform="translate(-0.03 -0.01)"/>
          </g>
        </g>
        <g>
          <g>
            <path class="cls-3" d="M198.77,35a60.75,60.75,0,0,0,1.14,15l.91-.39a9.89,9.89,0,0,0-3.73-3.81c-1.53-.87-3.46-1.38-4.7.22a4.4,4.4,0,0,0-.19,4.73,6.11,6.11,0,0,0,4.19,2.92c2.42.52,4.87-.08,7.2-.74a.5.5,0,0,0-.27-1c-2.14.6-4.43,1.22-6.67.74a4.87,4.87,0,0,1-4-3.45,3.16,3.16,0,0,1,.41-2.54c.7-1,1.8-.86,2.8-.4a8.87,8.87,0,0,1,4.05,3.8c.28.52,1,.15.91-.39A59.52,59.52,0,0,1,199.77,35c0-.65-1-.65-1,0Z" transform="translate(-0.03 -0.01)"/>
            <path class="cls-3" d="M206.19,48.9a3.78,3.78,0,0,1,.53-2.76,3.63,3.63,0,0,1,.94-1c.29-.23.91-.67,1.3-.51s.6.84.72,1.21a5,5,0,0,1,.29,1.62,2.94,2.94,0,0,1-1.18,2.53,2.18,2.18,0,0,1-2.61,0c-.47-.43-1.18.28-.7.71a3.09,3.09,0,0,0,3.39.37,3.74,3.74,0,0,0,2.07-3.14,5.66,5.66,0,0,0-.2-2.09,3.92,3.92,0,0,0-1-1.87c-1.11-1-2.73.18-3.49,1.1a4.91,4.91,0,0,0-1.05,4.12c.13.63,1.09.37,1-.26Z" transform="translate(-0.03 -0.01)"/>
            <path class="cls-3" d="M214.87,44a9.77,9.77,0,0,0-.87,5.45c.21,1.18,1.22,2.64,2.59,1.94s1.52-2.7,1.44-4a3.05,3.05,0,0,0-2.77-3.1c-.47,0-.72.73-.26.93,3.62,1.6,3.46,6.35,3.08,9.64a5.57,5.57,0,0,1-2.39,4.38,13.87,13.87,0,0,1-4.47,1.58c-.63.14-.36,1.11.26,1a13.4,13.4,0,0,0,5-1.87,6.56,6.56,0,0,0,2.58-4.84c.46-3.68.47-8.93-3.55-10.71l-.25.93c1.25,0,1.77,1.35,1.77,2.42,0,.72-.07,2.51-1,2.79s-1.15-1.62-1.15-2.2a9.49,9.49,0,0,1,.81-3.82c.26-.58-.6-1.09-.86-.51Z" transform="translate(-0.03 -0.01)"/>
          </g>
          <g>
            <path class="cls-3" d="M196.71,67.6c.13,1,.29,2,.49,3,.1.49.21,1,.32,1.47A2.72,2.72,0,0,0,198,73.3c.66.72,1.53-.08,2-.57s1-1.08,1.49-1.62a4,4,0,0,1,1.83-1.25.5.5,0,0,0-.26-1c-1.68.45-2.58,2-3.77,3.12-.13.12-.26.24-.4.35s-.25.14-.27.19,0,0,.05,0,0,0,0,0a1.49,1.49,0,0,0-.09-.3c0-.12-.06-.23-.08-.34-.08-.3-.15-.6-.21-.91-.25-1.12-.45-2.26-.6-3.41a.5.5,0,0,0-1,0Z" transform="translate(-0.03 -0.01)"/>
            <path class="cls-3" d="M199,72.11a8.66,8.66,0,0,1,1.38-4.47c.74-1.46,1.53-2.89,2.35-4.31,1.62-2.8,3.35-5.54,5.08-8.28.35-.54-.52-1-.86-.5-1.82,2.87-3.63,5.74-5.32,8.69-.83,1.46-1.64,2.93-2.39,4.43A8.65,8.65,0,0,0,198,72.11c0,.63,1,.64,1,0Z" transform="translate(-0.03 -0.01)"/>
          </g>
        </g>
        <g>
          <g>
            <path class="cls-3" d="M39.76,103.36a12.3,12.3,0,0,0-7.21,7.24,7.57,7.57,0,0,0-.1,4.75,5,5,0,0,0,3.7,3.2,11.58,11.58,0,0,0,6.14-.53c.61-.19.35-1.16-.26-1a10,10,0,0,1-6.14.38,4.24,4.24,0,0,1-2.76-4.51c.16-4,3.41-7.15,6.89-8.6.59-.24.33-1.21-.26-1Z" transform="translate(-0.03 -0.01)"/>
            <path class="cls-3" d="M41.64,113.58c.71,1.63,2.55,3.73,4.54,3s2.93-2.83,3.11-4.74a6.66,6.66,0,0,0-1.72-5.13,1.88,1.88,0,0,0-.91-.64,4.12,4.12,0,0,0-3.67,1,6.18,6.18,0,0,0-1.4,6.38c.24.59,1.21.34,1-.26a5.18,5.18,0,0,1,.67-4.84,2.8,2.8,0,0,1,1.47-1.2,2.56,2.56,0,0,1,1.84-.06,4.15,4.15,0,0,1,1.29,1.77,6,6,0,0,1,.48,2.2,5.15,5.15,0,0,1-1.66,4.07,1.82,1.82,0,0,1-2.45.13,5.21,5.21,0,0,1-1.69-2.19C42.25,112.49,41.39,113,41.64,113.58Z" transform="translate(-0.03 -0.01)"/>
            <path class="cls-3" d="M51,106.59a7.64,7.64,0,0,0-.54,4.09c.16.93.8,1.9,1.86,1.77s1.62-1.29,2-2.18c.6-1.47,1.21-2.94,1.81-4.42l-1-.13c.33,7-2.95,13.33-6.14,19.28-.31.56.56,1.07.86.5,3.28-6.1,6.62-12.66,6.28-19.78a.5.5,0,0,0-1-.13l-1.27,3.09a7.29,7.29,0,0,1-1.26,2.54c-.85.81-1.2-.58-1.23-1.22a7.44,7.44,0,0,1,.58-3.15c.24-.59-.73-.85-1-.26Z" transform="translate(-0.03 -0.01)"/>
            <path class="cls-3" d="M58.8,113.5a6,6,0,0,1,.61-3.59,4.34,4.34,0,0,1,1.07-1.44,1.22,1.22,0,0,1,1.45,0c1.85,1.13,2,4.45.1,5.59a2.6,2.6,0,0,1-3-.08c-.49-.41-1.2.29-.71.71a3.54,3.54,0,0,0,3.71.46,3.88,3.88,0,0,0,2.28-3.24,4.66,4.66,0,0,0-1.49-4,2.55,2.55,0,0,0-2.07-.66A3,3,0,0,0,59,108.64a7.11,7.11,0,0,0-1.18,5.13.5.5,0,0,0,.62.35.52.52,0,0,0,.35-.62Z" transform="translate(-0.03 -0.01)"/>
            <path class="cls-3" d="M64.6,105.79a17,17,0,0,0,5.87-2c.56-.31.06-1.17-.51-.86a16.48,16.48,0,0,1-5.63,1.87.5.5,0,1,0,.27,1Z" transform="translate(-0.03 -0.01)"/>
            <path class="cls-3" d="M68.05,99.55l-.84,8.94-.4,4.35a1.23,1.23,0,0,0,.38,1.23.61.61,0,0,0,.94-.19.5.5,0,0,0-.86-.51l0,.08.3-.23-.08,0,.39.05c-.18-.1.06-1.31.08-1.57l.16-1.74.33-3.48.65-7c0-.64-1-.64-1,0Z" transform="translate(-0.03 -0.01)"/>
            <path class="cls-3" d="M72,110a3.88,3.88,0,0,0,2.6-3.54,1.69,1.69,0,0,0-1.07-1.57,2.07,2.07,0,0,0-2.08,1A5.63,5.63,0,0,0,72.75,114a5.72,5.72,0,0,0,5,.52c.59-.23.33-1.2-.27-1a4.69,4.69,0,0,1-5.84-2.18,4.78,4.78,0,0,1-.24-3.39,4.14,4.14,0,0,1,.83-1.58c.26-.32.89-.9,1.21-.33.64,1.14-.81,2.57-1.76,3-.58.24-.33,1.21.27,1Z" transform="translate(-0.03 -0.01)"/>
          </g>
          <g>
            <path class="cls-3" d="M31.92,88.46a25.48,25.48,0,0,1-.55-3.89c0-.63-.06-1.27-.05-1.91a7.79,7.79,0,0,1,.1-1.74c.12-.52.36-.73.86-.42a14.86,14.86,0,0,1,1.46,1.16,37.68,37.68,0,0,1,2.83,2.68.51.51,0,0,0,.79-.1A1.06,1.06,0,0,0,37.19,83c-.41-.5-1.12.21-.71.7h0l.79-.1a38.68,38.68,0,0,0-3.46-3.19,4.08,4.08,0,0,0-1.75-1.09A1.33,1.33,0,0,0,30.7,80a3.42,3.42,0,0,0-.35,1.64,22.44,22.44,0,0,0,0,2.32A26.08,26.08,0,0,0,31,88.73c.14.63,1.1.36,1-.27Z" transform="translate(-0.03 -0.01)"/>
            <path class="cls-3" d="M31.18,81c1.27,3.38,3.62,6.14,5.78,9a35.06,35.06,0,0,1,5.45,10c.2.61,1.17.35,1-.26a34.81,34.81,0,0,0-5.29-9.89c-2.16-2.88-4.65-5.66-5.94-9.07-.22-.6-1.19-.34-1,.26Z" transform="translate(-0.03 -0.01)"/>
          </g>
        </g>
      </g>
    </g>
  </g>
</svg>
