<svg xmlns="http://www.w3.org/2000/svg" viewBox="0 0 267.31 202.86">
  <defs>
    <style>
      .cls-1 {
        fill: #a7a9ac;
      }

      .cls-2 {
        fill: none;
        stroke: #231f20;
        stroke-miterlimit: 10;
      }

      .cls-3 {
        fill: #ed1c24;
      }

      .cls-4 {
        fill: #231f20;
      }
    </style>
  </defs>
  <title>Asset 1</title>
  <g id="Layer_2" data-name="Layer 2">
    <g id="Layer_1-2" data-name="Layer 1">
      <g>
        <path class="cls-1" d="M235.13,178.21q6.39-5.66,12.42-11.71L249,165a4,4,0,0,0,1.25-1.68c.31-1.29-.92-2.05-1.85-2.65a39.16,39.16,0,0,0-5.64-2.65,12.52,12.52,0,0,1-5.5-3.79l-.36,1.36a.6.6,0,0,1,.85.09c.89.93,2.31-.49,1.41-1.41a2.57,2.57,0,0,0-3.26-.4,1,1,0,0,0-.36,1.37c2.44,3.38,6.34,4.4,9.93,6.11a16.06,16.06,0,0,1,2.57,1.49c.07.05.14.13.21.17l.06.06c.12.13.12.06,0-.23,0,0-.57.6-.63.66L246.22,165q-2.85,2.87-5.77,5.64-3.31,3.13-6.74,6.15c-1,.85.46,2.26,1.42,1.42Z" transform="translate(-0.02)"/>
        <path class="cls-1" d="M13.63,148.66A55,55,0,0,0,2.74,155.1,12,12,0,0,0,.41,157a2,2,0,0,0,.31,2.65c1.49,1.69,3.14,3.26,4.74,4.84q2.71,2.67,5.52,5.24c.95.87,2.37-.54,1.42-1.41-3-2.73-5.9-5.56-8.72-8.46l-1-1c-.17-.17-.34-.33-.5-.51s-.12-.18-.16-.19,0,.09,0,.1a7.44,7.44,0,0,0,1-.81l1.15-.88a56.74,56.74,0,0,1,4.78-3.19,54.83,54.83,0,0,1,5.75-3A1,1,0,0,0,15,149a1,1,0,0,0-1.37-.36Z" transform="translate(-0.02)"/>
        <path class="cls-1" d="M.9,159.7c15.14,4.13,30.92,4.09,46.49,3.93l49-.5,49-.5c16.24-.17,32.48-.42,48.72-.27a541,541,0,0,1,54.88,2.91,1,1,0,0,0,1-.74,2.91,2.91,0,0,0-2.77-3.6c-1.28,0-1.29,2,0,2A.87.87,0,0,1,248,164l1-.73c-32.26-3.59-64.77-3-97.17-2.71l-98,1c-17.49.18-35.33.85-52.37-3.79A1,1,0,0,0,.9,159.7Z" transform="translate(-0.02)"/>
      </g>
      <g>
        <path class="cls-1" d="M39.39,52.78a95.45,95.45,0,0,1,6.68-13.62c.67-1.13,1.36-2.25,2.07-3.35a16.9,16.9,0,0,1,1-1.5c.14-.16.27-.13.06-.2.19.07.34.33.46.48,1.64,2.2,3.2,4.48,4.8,6.71l5.45,7.62a1,1,0,0,0,1.73,0l1.11-2.07c.62-1.13-1.11-2.14-1.72-1L59.9,47.91h1.73l-5.38-7.52-2.62-3.66c-.87-1.21-1.69-2.51-2.64-3.66a2.06,2.06,0,0,0-3.21-.24,11,11,0,0,0-1.05,1.48c-.4.62-.79,1.23-1.18,1.86q-2.23,3.57-4.16,7.34-2.18,4.27-3.93,8.74a1,1,0,0,0,.7,1.23,1,1,0,0,0,1.23-.7Z" transform="translate(-0.02)"/>
        <path class="cls-1" d="M41.33,190a57.32,57.32,0,0,0,6.54,10.23,14.66,14.66,0,0,0,2,2.26,1.84,1.84,0,0,0,2.56-.24c.75-.72,1.41-1.57,2.1-2.36s1.41-1.63,2.1-2.45c1.59-1.88,3.14-3.8,4.66-5.74a1,1,0,0,0,0-1.41,1,1,0,0,0-1.41,0q-2.28,2.91-4.66,5.74c-.82,1-1.65,1.94-2.5,2.89l-1.26,1.43a4.16,4.16,0,0,0-.58.61c.26.05.31,0,.17-.09l-.2-.22a53.77,53.77,0,0,1-7.75-11.66c-.57-1.15-2.3-.14-1.73,1Z" transform="translate(-0.02)"/>
        <path class="cls-1" d="M48,33.62q-.62,32.6-.5,65.2.12,32.45.95,64.87.47,18.3,1.17,36.59c0,1.28,2,1.29,2,0q-1.24-32.59-1.76-65.2-.52-32.43-.32-64.87.12-18.28.46-36.59a1,1,0,0,0-2,0Z" transform="translate(-0.02)"/>
      </g>
      <line class="cls-2" x1="266.96" y1="66.14" x2="266.58" y2="66.51"/>
      <g>
        <path class="cls-3" d="M50.56,163.21c.8-14.72,8.84-27.86,16.92-39.73,7.74-11.38,15.87-22.68,25.81-32.27a94.78,94.78,0,0,1,16.63-13,107.44,107.44,0,0,1,19.46-9.11c14-5,28.62-7.94,43.14-11,15.85-3.29,31.74-6.51,47.85-8.26,2-.22,4-.42,6-.59,1.27-.11,1.28-2.11,0-2-16.45,1.41-32.69,4.46-48.84,7.77C162.6,58.18,147.49,61,133,65.8a123.27,123.27,0,0,0-20,8.39,93.66,93.66,0,0,0-17.63,12.4C84.91,95.81,76.49,107,68.56,118.39c-8.32,12-17,24.8-19.42,39.46a48.24,48.24,0,0,0-.58,5.36c-.07,1.28,1.93,1.28,2,0Z" transform="translate(-0.02)"/>
        <path class="cls-3" d="M218.93,41.44l0,.07.7-.7h-.06l.77.1.18.19.13.5v-.08l-.14.51,0-.07-.59.46.16,0h-.53c.29.08.73.7.94.91l1,.94c.7.65,1.41,1.29,2.13,1.91,1.45,1.25,3,2.44,4.5,3.58V48a52.75,52.75,0,0,0-7.42,6.91c-.84,1,.56,2.38,1.42,1.42a49.19,49.19,0,0,1,7-6.6,1,1,0,0,0,0-1.73,70.11,70.11,0,0,1-6.81-5.72c-.77-.73-2.49-2.91-3.53-1.31-.9,1.37,1.53,2.68,2,1,.38-1.24-1.55-1.76-1.93-.53Z" transform="translate(-0.02)"/>
        <path class="cls-3" d="M51.06,159.83a.71.71,0,0,1-.3.72c.13-.08-.07,0-.09,0s.15,0-.09,0a.57.57,0,0,1-.28-.08s-.13-.15,0,0c0,0-.08-.17,0,0s0-.12,0,0,.1.35.13.53a.5.5,0,0,1,0,.12c0,.17,0-.06,0-.08a1.43,1.43,0,0,0,0,.29,4.51,4.51,0,0,1,0,.52s0,.09,0,.13,0-.11,0-.11a1.45,1.45,0,0,0-.06.3.94.94,0,0,0-.07.22s.11-.21,0-.08a.43.43,0,0,0,0,.07c-.09.18.15-.13,0,0a.27.27,0,0,0-.08.07c-.06.08.2-.13.06,0s.23-.09,0,0,.13-.06.1,0a1,1,0,0,1-.17,0s.19.05,0,0-.15-.07,0,0l-.29-.17c.14.09,0,0,0,0l-.13-.11a2.72,2.72,0,0,1-.24-.24l-.23-.25h0l-.12-.17a4.88,4.88,0,0,1-.31-.55c-.08-.17,0,0,0,0l-.06-.15c0-.13-.07-.26-.1-.4s0,0,0,0a.57.57,0,0,1,0-.13c0-.11,0-.21,0-.32s0,.14,0,0,0-.09,0-.14l0-.13c0-.11-.1.17,0,0l.13-.24c.05-.08,0-.1,0,0l.09-.1.17-.17s.16-.09,0,0,0,0,.06,0,.2-.14.24-.12-.2.06,0,0l.13,0,.12,0s-.25,0-.07,0h.13c.18,0-.14-.05,0,0a.61.61,0,0,0,.13,0h0c-.1,0,0-.05,0,0l.09.05s-.19-.15-.09-.06,0,.07.07.07c-.13,0-.12-.19-.07-.08a.33.33,0,0,0,.06.1c.07.09-.07-.21,0-.1l0,.09c0,.05.05.29,0,.09s0,.06,0,.1v.08c0,.15-.07.07,0-.07a.73.73,0,0,0,0,.2s0,.09,0,.09.12-.23,0-.1a1,1,0,0,0-.08.14c0,.11.15-.16.07-.08a.3.3,0,0,0-.08.08c-.08.1.07-.07.1-.07s-.06,0-.08,0,.26-.07,0,0,.27,0,0,0,0,0,.11,0-.21-.07,0,0-.06,0-.07,0,.17.15.09,0a.46.46,0,0,0-.07-.07c.14.08.11.16.06.07l-.06-.09c-.08-.13,0,.06,0,.09a.65.65,0,0,0,0-.13l0-.11c0-.12,0,.23,0,.1v-.21c0-.1,0,.12,0,.13a.36.36,0,0,0,0-.11l0-.1c-.07.15-.08.19,0,.12a.25.25,0,0,0,0-.07s-.17.18,0,.08.14-.14,0,0,0,0,0,0-.23.05,0,0l.12,0s-.26,0-.06,0a.48.48,0,0,0,.12,0c.11,0-.23,0-.06,0l.12,0h0c-.22,0,.18.09.15.1s-.16-.14-.06,0l.11.11c.09.07-.1-.17,0-.06l.08.12c.1.15,0-.05,0-.07l0,.18s0-.21,0-.1a.54.54,0,0,1,0,.18c0-.07,0-.17,0-.06a.45.45,0,0,1,0,.11c0,.07,0,0,0-.08s-.07.13-.07.13c-.08.16.09-.08,0,0s-.27.3-.09.12a1.28,1.28,0,0,1-.28.16c-.12.07.17,0,0,0l-.17,0s.25,0,0,0h-.22l.71.29s-.1-.1,0,0,0-.1,0,.08,0-.22,0,0,0-.07,0-.08,0,.21,0,.12,0-.07,0-.1,0,.09,0,.1,0-.09,0-.1a.56.56,0,0,0,0-.08c0-.08,0,.08-.07.09a.67.67,0,0,0,.14-.15c.06-.07-.08.08-.09.07s.08,0,.1,0-.21,0,0,0-.14,0-.13,0h.08c.1,0-.12,0-.12,0s.1,0,.11,0l-.11,0s.12.1,0,0,0,.06.06.07-.11-.18-.07-.09l0,.07,0,.07c.07.1,0-.2,0-.08s0,.13.05.19,0-.22,0,0c0,0,0,.24,0,.06s0,.05,0,.1.08-.21,0,0-.1.12,0,0h0l-.06.06c-.06.08.07-.08.08-.06s-.26.18-.11.07-.13,0-.12,0,.26,0,.08,0h-.1s-.25,0-.09,0-.07,0-.12,0l-.09,0c-.11,0,.15.09.06,0a1,1,0,0,1-.2-.11s.15.13.07.05l-.07-.06-.09-.09s.11.17.06.07a1.76,1.76,0,0,0-.12-.2c.07,0,.06.17,0,0l0-.14s0-.15,0,0,0-.06,0-.08,0-.29,0-.15,0,0,0,0,0-.12,0-.17,0-.07,0-.11,0,0,0,0,.11-.2.14-.25.08-.13,0,0,0,0,0,0a1.7,1.7,0,0,1,.24-.22l-1.58-.2a2.2,2.2,0,0,1,.15.26c0,.07,0,.06,0,0a.56.56,0,0,1,0,.12c0,.1.06.19.08.29s0,.31,0,.08c0,.18,0,.35,0,.52s0-.13,0,.08l-.09.34,1.67-.44-.1-.1.07.09a.64.64,0,0,1-.1-.18c0,.12.06.15,0,.08l0-.1a.44.44,0,0,1,0-.1c0-.08,0-.05,0,.09s0-.21,0-.21-.06.23,0,0c0,0,.11-.19,0-.08l.09-.12a1,1,0,0,0-.36-1.37,1,1,0,0,0-1.37.36A2.44,2.44,0,0,0,49,161.8a1,1,0,0,0,1.67-.44,4,4,0,0,0-.38-3.2,1,1,0,0,0-1.57-.21,3.08,3.08,0,0,0-1,2.83,2.54,2.54,0,0,0,1.91,2,2.3,2.3,0,0,0,2.61-1,2.41,2.41,0,0,0-.32-2.72,1.94,1.94,0,0,0-2.72-.1,2.05,2.05,0,0,0-.46,2.62,1.25,1.25,0,0,0,1.09.59,2.21,2.21,0,0,0,.76-.13,2.83,2.83,0,0,0,1.33-.95,2.31,2.31,0,0,0-.09-3,2.43,2.43,0,0,0-2.56-.68,2.14,2.14,0,0,0-1.29,2.45,2.1,2.1,0,0,0,1.89,1.74,2,2,0,0,0,2-1.46,2.47,2.47,0,0,0-.26-2.18,2.31,2.31,0,0,0-2.63-.83,3.21,3.21,0,0,0-2,2,3.83,3.83,0,0,0,.44,3,4.33,4.33,0,0,0,2.44,2.13,2,2,0,0,0,1.56-.23,2.35,2.35,0,0,0,.9-1.16,4.62,4.62,0,0,0,.11-2.42,2.75,2.75,0,0,0-.61-1.42,1.55,1.55,0,0,0-1.85-.33,1.37,1.37,0,0,0-.72,1.6,1,1,0,0,0,1.93-.54Z" transform="translate(-0.02)"/>
      </g>
      <g>
        <path class="cls-4" d="M70.39,33.2a189.22,189.22,0,0,1-1.12-19c.06-3.91.76-10.75,6-10.93a5.77,5.77,0,0,1,5.34,3.48c.27.58,1.13.07.86-.51a6.77,6.77,0,0,0-4.92-3.87,6,6,0,0,0-5.6,2,12.89,12.89,0,0,0-2.53,7.25,67.38,67.38,0,0,0,.07,9.74c.21,4,.57,7.93.92,11.89.06.64,1.06.64,1,0Z" transform="translate(-0.02)"/>
        <path class="cls-4" d="M63.88,16.76c2.13,1.41,4.82,1.11,7.25,1l9.16-.41c.64,0,.64-1,0-1l-8.67.39c-2.37.1-5.14.53-7.24-.85-.54-.36-1,.51-.5.86Z" transform="translate(-0.02)"/>
        <path class="cls-4" d="M88.49,5.16a30.5,30.5,0,0,0-4,10.92c-.36,1.92-.62,3.87-.83,5.81-.19,1.79-.33,3.84.69,5.43a3.72,3.72,0,0,0,4.3,1.73c.59-.24.34-1.2-.26-1-2.13.83-3.64-1.48-3.82-3.3a15,15,0,0,1,.13-3.21c.12-1.14.27-2.28.44-3.41A31.8,31.8,0,0,1,89.36,5.67c.34-.55-.52-1-.87-.51Z" transform="translate(-0.02)"/>
        <path class="cls-4" d="M92.7,11.15a29.55,29.55,0,0,0,9.24,14.32c.49.42,1.2-.29.71-.7a28.57,28.57,0,0,1-9-13.89.5.5,0,0,0-1,.27Z" transform="translate(-0.02)"/>
        <path class="cls-4" d="M104.65,8.92l-12,18.77c-.35.55.52,1,.86.51l12-18.77c.35-.54-.52-1-.86-.51Z" transform="translate(-0.02)"/>
        <path class="cls-4" d="M107.65,5.3a35.92,35.92,0,0,1,3.55,11.53c.46,3.64.47,7.75-2,10.74a8.26,8.26,0,0,1-4.62,2.9c-.63.14-.36,1.1.27,1a9.74,9.74,0,0,0,7.06-7.06,17.94,17.94,0,0,0,.38-6.41,36.44,36.44,0,0,0-1.15-6.29,37.51,37.51,0,0,0-2.66-6.88c-.29-.57-1.15-.07-.86.51Z" transform="translate(-0.02)"/>
        <path class="cls-4" d="M120.24,18.35a19.45,19.45,0,0,1,7-.59c.64.06.64-.94,0-1a20,20,0,0,0-7.26.63.5.5,0,0,0,.26,1Z" transform="translate(-0.02)"/>
        <path class="cls-4" d="M120.85,24.41l8.25-.88c.63-.07.64-1.07,0-1l-8.25.88c-.63.07-.64,1.07,0,1Z" transform="translate(-0.02)"/>
        <path class="cls-4" d="M136.62,20.13a3.09,3.09,0,0,1,3.69-.94,5.31,5.31,0,0,1,3,3.46c1.18,3.21,1,6.91,3.27,9.64.29.35.84.05.85-.35l.44-20L148,7c0-.58-.1-1.46.32-1.93s1.63-.5,2.25-.6l9.83-1.65,5.32-.89a16.69,16.69,0,0,1,5.68-.18l-.37-.48q-.5,6-1.43,12c-.09.63.87.9,1,.27q.94-6.1,1.46-12.27a.49.49,0,0,0-.36-.48c-3.34-.63-6.79.27-10.08.82L151.17,3.33c-1.21.21-3.13.16-3.82,1.38A4,4,0,0,0,147,6.59c0,.91,0,1.82-.05,2.74l-.24,10.56-.26,12.05.86-.36c-2.63-3.09-1.74-7.68-3.89-11a5.36,5.36,0,0,0-3.9-2.55,3.81,3.81,0,0,0-3.79,1.63c-.34.54.53,1.05.87.5Z" transform="translate(-0.02)"/>
        <path class="cls-4" d="M152.4,10.53A43.14,43.14,0,0,1,164,26.2a.5.5,0,0,0,1-.27l-.72-2.71a.5.5,0,0,0-1,.26L164,26.2l1-.27A44.2,44.2,0,0,0,153.11,9.82c-.49-.42-1.2.28-.71.71Z" transform="translate(-0.02)"/>
        <path class="cls-4" d="M164.1,9a57,57,0,0,1-4.87,10.87q-.75,1.29-1.56,2.55c-.52.79-1.11,1.54-1.59,2.36-.63,1.09-.61,2.53.82,2.88.62.15.89-.82.26-1-1.43-.35.7-2.74,1.05-3.28,1-1.5,1.91-3.05,2.77-4.63a57.47,57.47,0,0,0,4.08-9.51c.2-.61-.76-.88-1-.27Z" transform="translate(-0.02)"/>
        <path class="cls-4" d="M176.54,15.3a21.79,21.79,0,0,1,5.87-.36c.64.05.64-.95,0-1a23,23,0,0,0-6.14.39c-.63.13-.36,1.09.27,1Z" transform="translate(-0.02)"/>
        <path class="cls-4" d="M176.1,18.71A10,10,0,0,0,184,19c.59-.23.34-1.2-.26-1a9.11,9.11,0,0,1-7.15-.17c-.58-.27-1.09.59-.51.86Z" transform="translate(-0.02)"/>
        <path class="cls-4" d="M192.16,10.58a113.5,113.5,0,0,0,9.3,17.4c.35.53,1.21,0,.86-.51A112,112,0,0,1,193,10.08c-.26-.59-1.12-.08-.87.5Z" transform="translate(-0.02)"/>
        <path class="cls-4" d="M202.44,9.34a129.47,129.47,0,0,0-10.56,20l.91.39.36-.87c.25-.59-.72-.85-1-.26l-.36.86c-.22.52.69.91.91.39a130.09,130.09,0,0,1,10.57-20c.35-.54-.52-1-.87-.5Z" transform="translate(-0.02)"/>
        <path class="cls-4" d="M204.52,1.14a7.47,7.47,0,0,0,.39,5.32.51.51,0,0,0,.69.18.51.51,0,0,0,.18-.68,6.46,6.46,0,0,1-.3-4.56c.19-.62-.77-.88-1-.26Z" transform="translate(-0.02)"/>
        <path class="cls-4" d="M210,.34l-3.52,9.1c-.23.6.74.86,1,.26L211,.6c.23-.6-.73-.86-1-.26Z" transform="translate(-0.02)"/>
        <path class="cls-4" d="M213.18,4.61l.07-.13.05,0a.21.21,0,0,1,.13,0,.81.81,0,0,1,.53.15.69.69,0,0,1,.3.39,1.14,1.14,0,0,1-.16.78A3.65,3.65,0,0,1,212.49,7a7.15,7.15,0,0,0-2,1.24.5.5,0,0,0,.35.85l5.46.33c.64,0,.64-1,0-1l-5.46-.33.35.86a7,7,0,0,1,1.88-1.15,4.68,4.68,0,0,0,1.7-1.35,2.13,2.13,0,0,0,.36-1.94,1.85,1.85,0,0,0-1.24-1.07,1.36,1.36,0,0,0-1.61.64.5.5,0,0,0,.18.68.49.49,0,0,0,.68-.18Z" transform="translate(-0.02)"/>
      </g>
    </g>
  </g>
</svg>
