<svg xmlns="http://www.w3.org/2000/svg" viewBox="0 0 499.51 122.62">
  <defs>
    <style>
      .cls-1 {
        fill: #a7a9ac;
      }

      .cls-2 {
        fill: #231f20;
      }

      .cls-3 {
        fill: #ed1c24;
      }

      .cls-4 {
        fill: none;
        stroke: #231f20;
        stroke-miterlimit: 10;
      }
    </style>
  </defs>
  <title>Asset 1</title>
  <g id="Layer_2" data-name="Layer 2">
    <g id="Layer_1-2" data-name="Layer 1">
      <g>
        <path class="cls-1" d="M88.67,81.83c1-.92,2.08-1.87,3.09-2.84.51-.49,1-1,1.5-1.48s1.17-1,1.23-1.69c.1-1.3-1.72-1.9-2.68-2.3a5.29,5.29,0,0,1-2.25-1.37l-.35,1.37a.48.48,0,0,1-.45-.07c.93.89,2.35-.52,1.41-1.41a1.61,1.61,0,0,0-2-.25,1,1,0,0,0-.36,1.37A5.77,5.77,0,0,0,90.32,75c.48.21.89.37,1.32.57a3.61,3.61,0,0,1,1.13.68l-.26-.44,0,.1v-.53c.14-.17.14-.18,0,0l-.11.12c-.12.11-.23.23-.35.35s-.45.46-.68.68c-.44.44-.89.87-1.34,1.3-.91.88-1.84,1.73-2.79,2.57a1,1,0,0,0,0,1.41,1,1,0,0,0,1.41,0Z" transform="translate(0 -0.02)"/>
        <path class="cls-1" d="M5.39,69.84a20.57,20.57,0,0,0-2.7,1.45c-.44.28-.86.57-1.28.88A4.47,4.47,0,0,0,.16,73.29c-.4.71,0,1.36.51,1.86s.78.81,1.18,1.21c.79.79,1.6,1.57,2.43,2.32a1,1,0,0,0,1.41-1.41c-.69-.63-1.37-1.27-2-1.93l-.94-.94-.49-.51L2,73.64l-.1-.1c0,.06,0,0,0-.06L2,74c-.22.36-.27.48-.13.35L2,74.22l.21-.16c.17-.14.34-.26.52-.39.38-.28.77-.54,1.18-.79A20.26,20.26,0,0,1,6.4,71.56a1,1,0,0,0,.36-1.36,1,1,0,0,0-1.37-.36Z" transform="translate(0 -0.02)"/>
        <path class="cls-1" d="M.8,75.1c5.67,1.54,11.59,1.55,17.42,1.49l18.21-.19C48.6,76.27,60.78,76,73,76.11a201.79,201.79,0,0,1,20.42,1.08c.58.07.94-.51,1-1a1.7,1.7,0,0,0-1.67-1.87,1,1,0,0,0,0,2c-.23-.37-.34-.41-.33-.13l1-1c-12-1.33-24.07-1.13-36.11-1l-36.43.37c-6.51.07-13.16.34-19.5-1.39A1,1,0,0,0,.8,75.1Z" transform="translate(0 -0.02)"/>
      </g>
      <g>
        <path class="cls-1" d="M44.1,47.44c.46-1.36,1-2.7,1.56-4,.29-.65.6-1.3.93-1.94l.5-.94c.08-.16.17-.32.26-.47l.15-.27c.12-.19,0-.15-.23.12h-.53c-.13,0-.25-.27-.07,0l.26.43.43.71,1,1.63,1.94,3.2a1,1,0,0,0,1.72,0l.4-.87a1,1,0,0,0-.36-1.37,1,1,0,0,0-1.36.36l-.4.87H52l-2.58-4.26c-.39-.65-.76-1.33-1.19-2a1.37,1.37,0,0,0-2.35-.09,15.72,15.72,0,0,0-1.06,1.93c-.33.64-.64,1.29-.93,1.94-.65,1.45-1.22,2.92-1.73,4.42a1,1,0,1,0,1.93.53Z" transform="translate(0 -0.02)"/>
        <path class="cls-1" d="M43.52,105.46a27.38,27.38,0,0,0,1.54,3.12c.26.45.53.88.82,1.31A4.18,4.18,0,0,0,47,111.3a1.25,1.25,0,0,0,1.24,0,2.59,2.59,0,0,0,.64-.68c.34-.45.68-.91,1-1.37.7-1,1.36-1.92,2-2.9a1,1,0,1,0-1.72-1c-.53.79-1.06,1.57-1.61,2.34l-.81,1.12-.42.56-.22.3,0,0h0l.5-.14c.31,0,.55.34.39.11l-.21-.29-.4-.59c-.27-.41-.53-.83-.77-1.26a23.31,23.31,0,0,1-1.25-2.5,1,1,0,0,0-1.23-.69,1,1,0,0,0-.7,1.23Z" transform="translate(0 -0.02)"/>
        <path class="cls-1" d="M45.94,39.17Q45.72,53,45.76,66.74t.34,27.45q.16,7.8.42,15.59c0,1.28,2,1.29,2,0Q48.07,96,47.89,82.21t-.12-27.45q0-7.8.17-15.59a1,1,0,0,0-2,0Z" transform="translate(0 -0.02)"/>
      </g>
      <g>
        <path class="cls-1" d="M212.43,83.46c1-.92,2.07-1.87,3.08-2.84.51-.49,1-1,1.5-1.48s1.17-1,1.23-1.69c.1-1.29-1.71-1.9-2.68-2.3a5.15,5.15,0,0,1-2.24-1.37L213,75.15a.47.47,0,0,1-.45-.06c.93.88,2.35-.53,1.41-1.42a1.61,1.61,0,0,0-2-.25,1,1,0,0,0-.36,1.37,5.93,5.93,0,0,0,2.48,1.89c.48.2.89.36,1.32.56a3.44,3.44,0,0,1,1.13.69l-.26-.44,0,.09v-.53c.14-.17.14-.18,0,0l-.11.12-.34.35-.69.69-1.33,1.29c-.92.88-1.85,1.73-2.8,2.57a1,1,0,0,0,0,1.41,1,1,0,0,0,1.42,0Z" transform="translate(0 -0.02)"/>
        <path class="cls-1" d="M129.14,71.47a21.23,21.23,0,0,0-2.7,1.45c-.44.28-.86.57-1.27.88a4.38,4.38,0,0,0-1.26,1.12c-.4.71,0,1.36.51,1.87L125.6,78c.79.79,1.6,1.57,2.43,2.32a1,1,0,1,0,1.41-1.41c-.69-.63-1.36-1.27-2-1.93l-.94-.94-.49-.51-.24-.25-.1-.1c0,.07,0,0,0-.06l.14.5c-.22.36-.27.48-.13.35l.13-.11.21-.16.52-.39c.38-.28.78-.54,1.18-.79a20.2,20.2,0,0,1,2.48-1.31,1,1,0,0,0,.36-1.37,1,1,0,0,0-1.37-.36Z" transform="translate(0 -0.02)"/>
        <path class="cls-1" d="M124.55,76.73c5.67,1.54,11.59,1.55,17.42,1.49L160.18,78c12.17-.12,24.35-.4,36.52-.29a201.8,201.8,0,0,1,20.42,1.09c.59.06.94-.52,1-1A1.7,1.7,0,0,0,216.45,76a1,1,0,0,0,0,2q-.34-.56-.33-.12l1-1c-12-1.34-24.07-1.14-36.11-1l-36.43.37c-6.51.07-13.15.34-19.5-1.39a1,1,0,0,0-.53,1.93Z" transform="translate(0 -0.02)"/>
      </g>
      <g>
        <path class="cls-1" d="M167.85,49.07c.46-1.36,1-2.7,1.56-4,.3-.65.61-1.3.93-1.93.16-.32.33-.64.5-1,.09-.16.17-.32.26-.47l.15-.27c.13-.18.05-.15-.23.12h-.53c-.13,0-.25-.26-.07,0l.26.43.43.71,1,1.63,1.94,3.2a1,1,0,0,0,1.72,0l.4-.87a1,1,0,0,0-.35-1.37,1,1,0,0,0-1.37.36l-.4.87h1.72l-2.58-4.26c-.39-.65-.76-1.33-1.19-2a1.37,1.37,0,0,0-2.35-.09,15.72,15.72,0,0,0-1.06,1.93c-.32.64-.63,1.29-.93,1.94q-1,2.18-1.73,4.42a1,1,0,0,0,1.93.53Z" transform="translate(0 -0.02)"/>
        <path class="cls-1" d="M167.28,107.09a28.29,28.29,0,0,0,1.53,3.13c.26.44.53.87.82,1.3a4.09,4.09,0,0,0,1.16,1.41,1.23,1.23,0,0,0,1.23,0,2.44,2.44,0,0,0,.64-.68c.35-.45.68-.91,1-1.36q1-1.44,2-2.91a1,1,0,1,0-1.73-1c-.52.79-1.06,1.57-1.61,2.34l-.81,1.12c-.14.19-.28.37-.41.56l-.23.3,0,0h0l.5-.14c.31,0,.55.34.39.11l-.21-.29c-.13-.19-.27-.39-.39-.59-.28-.41-.53-.83-.78-1.26a25.19,25.19,0,0,1-1.25-2.49,1,1,0,0,0-1.23-.7,1,1,0,0,0-.69,1.23Z" transform="translate(0 -0.02)"/>
        <path class="cls-1" d="M169.69,40.8q-.23,13.79-.18,27.57t.34,27.45q.17,7.8.42,15.59c0,1.29,2,1.29,2,0q-.45-13.78-.63-27.57t-.12-27.45q0-7.78.17-15.59a1,1,0,0,0-2,0Z" transform="translate(0 -0.02)"/>
      </g>
      <g>
        <path class="cls-1" d="M335,84.17c1-.93,2.08-1.87,3.09-2.84l1.5-1.48c.47-.47,1.17-1,1.23-1.69.1-1.3-1.72-1.9-2.68-2.3a5.29,5.29,0,0,1-2.25-1.37l-.36,1.37a.46.46,0,0,1-.44-.07c.93.89,2.35-.52,1.41-1.41a1.62,1.62,0,0,0-2-.25,1,1,0,0,0-.35,1.37,5.77,5.77,0,0,0,2.48,1.88c.48.21.89.37,1.32.57a3.61,3.61,0,0,1,1.13.68l-.26-.44,0,.1v-.53c.14-.17.14-.18,0,0l-.12.12c-.11.11-.22.23-.34.34s-.45.47-.68.69c-.44.44-.89.87-1.34,1.3-.91.87-1.84,1.73-2.79,2.57a1,1,0,0,0,0,1.41,1,1,0,0,0,1.41,0Z" transform="translate(0 -0.02)"/>
        <path class="cls-1" d="M251.76,72.18a19.45,19.45,0,0,0-2.7,1.45c-.44.28-.86.57-1.28.88a4.47,4.47,0,0,0-1.25,1.12c-.4.7,0,1.36.51,1.86s.78.81,1.18,1.21c.79.79,1.6,1.56,2.42,2.32a1,1,0,0,0,1.42,0,1,1,0,0,0,0-1.41c-.69-.63-1.37-1.28-2-1.93l-.94-.94-.49-.51c-.08-.08-.16-.17-.25-.25l-.09-.1c0,.06,0,0,0-.06l.14.5c-.22.36-.27.47-.13.35l.13-.11.2-.16c.18-.14.35-.27.53-.39.38-.28.77-.54,1.18-.79a20.26,20.26,0,0,1,2.48-1.32,1,1,0,0,0,.36-1.37,1,1,0,0,0-1.37-.35Z" transform="translate(0 -0.02)"/>
        <path class="cls-1" d="M247.17,77.44c5.67,1.54,11.58,1.54,17.42,1.49l18.2-.19c12.18-.13,24.36-.4,36.53-.29a201.79,201.79,0,0,1,20.42,1.08c.58.07.94-.51,1-1a1.69,1.69,0,0,0-1.67-1.87,1,1,0,0,0,0,2c-.23-.37-.34-.42-.33-.13l1-1c-12-1.33-24.07-1.13-36.11-1l-36.43.38c-6.51.07-13.16.33-19.5-1.39a1,1,0,0,0-.53,1.93Z" transform="translate(0 -0.02)"/>
      </g>
      <g>
        <path class="cls-1" d="M290.47,49.78c.46-1.36,1-2.7,1.56-4,.29-.65.6-1.3.93-1.94.16-.32.33-.63.5-.95l.26-.46.15-.27c.12-.19.05-.15-.23.12h-.53c-.13,0-.25-.27-.07,0,.08.14.17.28.26.42l.43.72,1,1.63,1.94,3.2a1,1,0,0,0,1.72,0l.4-.88a1,1,0,0,0-.36-1.36,1,1,0,0,0-1.36.35l-.4.88h1.72L295.8,43c-.4-.65-.76-1.34-1.19-2a1.37,1.37,0,0,0-2.35-.09,15.72,15.72,0,0,0-1.06,1.93c-.33.64-.64,1.29-.93,1.94a46.52,46.52,0,0,0-1.73,4.42,1,1,0,0,0,1.93.53Z" transform="translate(0 -0.02)"/>
        <path class="cls-1" d="M289.89,107.8a25.81,25.81,0,0,0,1.54,3.12c.26.45.53.88.82,1.31a4.18,4.18,0,0,0,1.15,1.41,1.25,1.25,0,0,0,1.24,0,2.59,2.59,0,0,0,.64-.68c.34-.46.68-.91,1-1.37.69-.95,1.36-1.92,2-2.9a1,1,0,1,0-1.72-1c-.53.79-1.06,1.57-1.61,2.34l-.81,1.12-.42.56-.22.3,0,0c-.08.09-.07.08,0,0l.5-.14c.3,0,.55.34.39.11l-.21-.29-.4-.59c-.27-.41-.53-.83-.77-1.26a23.31,23.31,0,0,1-1.25-2.5,1,1,0,0,0-1.23-.7,1,1,0,0,0-.7,1.24Z" transform="translate(0 -0.02)"/>
        <path class="cls-1" d="M292.3,41.51q-.21,13.79-.17,27.57t.34,27.45q.16,7.78.42,15.59c0,1.28,2,1.29,2,0q-.45-13.78-.63-27.57t-.12-27.45q0-7.8.16-15.59a1,1,0,0,0-2,0Z" transform="translate(0 -0.02)"/>
      </g>
      <g>
        <g>
          <path class="cls-1" d="M493.7,86c1.05-.92,2.07-1.87,3.08-2.84.51-.49,1-1,1.5-1.48s1.18-1,1.23-1.69c.11-1.29-1.71-1.9-2.68-2.3a5.23,5.23,0,0,1-2.24-1.36l-.36,1.36a.48.48,0,0,1-.45-.06c.93.88,2.35-.53,1.42-1.42a1.63,1.63,0,0,0-2-.24,1,1,0,0,0-.36,1.36,5.77,5.77,0,0,0,2.48,1.89c.48.21.89.36,1.33.56a3.68,3.68,0,0,1,1.12.69l-.26-.44,0,.1v-.54c.13-.17.13-.17,0,0l-.11.11-.34.35-.69.69L495.08,82c-.92.87-1.85,1.72-2.8,2.56A1,1,0,0,0,493.7,86Z" transform="translate(0 -0.02)"/>
          <path class="cls-1" d="M410.41,74a21.23,21.23,0,0,0-2.7,1.45c-.43.28-.86.58-1.27.89a4.17,4.17,0,0,0-1.25,1.11c-.41.71,0,1.36.5,1.87s.78.81,1.18,1.2c.79.8,1.6,1.57,2.43,2.33a1,1,0,1,0,1.41-1.42c-.69-.63-1.36-1.27-2-1.93l-.94-.94-.49-.5L407,77.8l-.1-.1c0,.07,0,0,0-.06l.13.51c-.22.35-.26.47-.13.35l.13-.12.21-.16.52-.39c.38-.27.78-.54,1.18-.79a21.76,21.76,0,0,1,2.48-1.31,1,1,0,0,0,.36-1.37,1,1,0,0,0-1.37-.36Z" transform="translate(0 -0.02)"/>
          <path class="cls-1" d="M405.82,79.26c5.68,1.55,11.59,1.55,17.43,1.49l18.2-.19c12.17-.12,24.35-.4,36.52-.28a198.92,198.92,0,0,1,20.42,1.08c.59.06.94-.52,1-1a1.69,1.69,0,0,0-1.67-1.87,1,1,0,0,0,0,2c-.23-.38-.33-.42-.33-.13l1-1c-12-1.33-24.06-1.13-36.11-1l-36.43.37c-6.51.07-13.15.34-19.5-1.39a1,1,0,0,0-.53,1.93Z" transform="translate(0 -0.02)"/>
        </g>
        <g>
          <path class="cls-1" d="M450.62,48.62c.46-1.36,1-2.7,1.56-4,.3-.66.61-1.3.94-1.94.16-.32.32-.64.49-1l.26-.47L454,41c.13-.18.05-.14-.23.12h-.53c-.12,0-.24-.26-.07,0l.26.43.43.71,1,1.64,1.94,3.2a1,1,0,0,0,1.73,0l.4-.88a1,1,0,0,0-.36-1.37,1,1,0,0,0-1.37.36l-.4.88h1.73L456,41.85c-.39-.65-.75-1.33-1.19-2a1.36,1.36,0,0,0-2.34-.09,15.2,15.2,0,0,0-1.07,1.94c-.32.64-.63,1.28-.92,1.94a46.33,46.33,0,0,0-1.73,4.41,1,1,0,1,0,1.92.53Z" transform="translate(0 -0.02)"/>
          <path class="cls-1" d="M450.05,116.64a26.7,26.7,0,0,0,1.54,3.13c.25.44.53.88.81,1.3a4.2,4.2,0,0,0,1.16,1.41,1.25,1.25,0,0,0,1.23,0,2.52,2.52,0,0,0,.65-.69c.34-.45.68-.9,1-1.36.69-1,1.36-1.92,2-2.91a1,1,0,0,0-.36-1.36,1,1,0,0,0-1.37.35c-.52.79-1.06,1.58-1.6,2.35-.27.37-.54.75-.82,1.12l-.41.55-.23.3,0,0h0l.51-.13c.3,0,.54.34.38.1s-.14-.19-.2-.29-.27-.39-.4-.58c-.27-.42-.53-.84-.78-1.27a24,24,0,0,1-1.24-2.49,1,1,0,0,0-1.23-.7,1,1,0,0,0-.7,1.23Z" transform="translate(0 -0.02)"/>
          <path class="cls-1" d="M451.93,40.37q0,15.62.27,31.21t.66,31.34q.24,8.81.54,17.61c0,1.28,2,1.29,2,0q-.52-15.6-.87-31.22T454,58q-.09-8.79-.11-17.6a1,1,0,0,0-2,0Z" transform="translate(0 -0.02)"/>
        </g>
        <g>
          <path class="cls-2" d="M417.28,30.41a26.37,26.37,0,0,1,.29-10.87,18.9,18.9,0,0,1,1.76-5,1.62,1.62,0,0,1,2.15-.63,5.33,5.33,0,0,1,2,1.87c.38.51,1.25,0,.86-.5-1.05-1.4-2.6-3.1-4.56-2.4a3.19,3.19,0,0,0-1.69,2A26.94,26.94,0,0,0,417,17.77a27.62,27.62,0,0,0-.7,12.9c.12.63,1.08.37,1-.26Z" transform="translate(0 -0.02)"/>
          <path class="cls-2" d="M412.65,23.94l12-.88c.64,0,.64-1,0-1l-12,.88c-.64,0-.65,1,0,1Z" transform="translate(0 -0.02)"/>
          <path class="cls-2" d="M429.83,14.14a32.61,32.61,0,0,0-2.78,10.67,5.93,5.93,0,0,0,1,4.4,3,3,0,0,0,3.62.9c.58-.29.07-1.15-.5-.86-1.21.6-2.48-.5-2.87-1.6a9.3,9.3,0,0,1-.06-4.2,31.55,31.55,0,0,1,2.49-8.81c.26-.58-.6-1.09-.86-.5Z" transform="translate(0 -0.02)"/>
          <path class="cls-2" d="M433.41,19.78l6.08,8.48c.37.52,1.24,0,.86-.51l-6.08-8.47c-.37-.52-1.24,0-.86.5Z" transform="translate(0 -0.02)"/>
          <path class="cls-2" d="M438.86,17.9l-6.87,12a.5.5,0,0,0,.87.5l6.86-12a.5.5,0,0,0-.86-.5Z" transform="translate(0 -0.02)"/>
          <path class="cls-2" d="M441.06,15.24a12.9,12.9,0,0,1,.71,14.86c-.35.54.52,1,.87.5a13.92,13.92,0,0,0-.87-16.06c-.41-.5-1.11.21-.71.7Z" transform="translate(0 -0.02)"/>
          <path class="cls-2" d="M449.81,20.91h4.51a.5.5,0,0,0,0-1h-4.51a.5.5,0,0,0,0,1Z" transform="translate(0 -0.02)"/>
          <path class="cls-2" d="M448.69,24.32a14.1,14.1,0,0,1,4.76.23c.63.14.9-.82.27-1a14.43,14.43,0,0,0-5-.27.5.5,0,0,0,0,1Z" transform="translate(0 -0.02)"/>
          <path class="cls-2" d="M459.44,14.15a63.17,63.17,0,0,1,10.71,14c.31.56,1.18.06.86-.51a64.06,64.06,0,0,0-10.86-14.14c-.46-.45-1.17.25-.71.7Z" transform="translate(0 -0.02)"/>
          <path class="cls-2" d="M470.87,11.8a112.19,112.19,0,0,0-11.35,15.86.5.5,0,0,0,.86.51,111.44,111.44,0,0,1,11.19-15.66c.42-.49-.28-1.2-.7-.71Z" transform="translate(0 -0.02)"/>
          <path class="cls-2" d="M477.85,5.57a2.19,2.19,0,0,0-2.36.27A4.1,4.1,0,0,0,474.19,8c-.53,1.71-1.12,3.82.05,5.41s3,1.34,4.46.4a5.69,5.69,0,0,0,2.57-4.4,3.67,3.67,0,0,0-3.18-3.77c-.64-.06-.64.94,0,1A2.61,2.61,0,0,1,480.25,9a4.36,4.36,0,0,1-1.51,3.51c-.82.79-2.29,1.52-3.34.7s-.88-2.64-.55-3.88a8,8,0,0,1,.78-2.18c.35-.54,1.07-1,1.72-.71s1.08-.56.5-.86Z" transform="translate(0 -0.02)"/>
          <path class="cls-2" d="M487.75,1.65a32.49,32.49,0,0,0,0,7.57l.63-.49L486,8.35a5.49,5.49,0,0,0-2.21-.06,2,2,0,0,0-1.62,2.41,2.92,2.92,0,0,0,2.5,1.75,6.06,6.06,0,0,0,3.86-.84.5.5,0,0,0-.5-.87,5.16,5.16,0,0,1-2.76.75,2.32,2.32,0,0,1-2.09-1c-.44-.93.85-1.35,1.52-1.34a22.78,22.78,0,0,1,3.38.5c.28,0,.68-.13.64-.48a32.49,32.49,0,0,1,0-7.57c.07-.64-.93-.63-1,0Z" transform="translate(0 -0.02)"/>
          <path class="cls-2" d="M493.67,2.39l.65,6.69.85-.35a3.35,3.35,0,0,0-3.38-1,2.29,2.29,0,0,0-1.5,2.71c.37,1.14,1.62,1.71,2.65,2.12a4,4,0,0,0,3.65,0c.54-.35,0-1.21-.51-.86a2.75,2.75,0,0,1-2.44.09,4.69,4.69,0,0,1-2.17-1.22,1.2,1.2,0,0,1,.58-1.84,2.34,2.34,0,0,1,2.41.72c.29.28.9.1.86-.35l-.65-6.69c-.06-.64-1.06-.65-1,0Z" transform="translate(0 -0.02)"/>
        </g>
        <g>
          <path class="cls-3" d="M413.36,118.58a42,42,0,0,1,1.41-8,42.67,42.67,0,0,1,20.6-26.18A28,28,0,0,1,447,80.81c1.6-.07,3.19-.09,4.79-.29,1.78-.23,3.56-.56,5.32-.91,8.72-1.77,17.3-5.35,23.24-12.2a39.24,39.24,0,0,0,8.77-19.87c.09-.57.16-1.13.23-1.69a1,1,0,0,0-1-1,1,1,0,0,0-1,1c0,.11,0,.23,0,.34s-.06.42,0,.19q0,.4-.12.81c-.09.64-.21,1.27-.33,1.9a45.53,45.53,0,0,1-1.19,4.63,36,36,0,0,1-5.32,10.55c-5.45,7.36-13.9,11.27-22.64,13.18a54.92,54.92,0,0,1-10.13,1.34A29.11,29.11,0,0,0,436,81.88a43.87,43.87,0,0,0-16,13.41,45,45,0,0,0-8.53,21.85c-.06.48-.1,1-.14,1.44-.1,1.28,1.9,1.27,2,0Z" transform="translate(0 -0.02)"/>
          <g>
            <path class="cls-1" d="M420.54,114.3a.5.5,0,0,0,0-1,.5.5,0,0,0,0,1Z" transform="translate(0 -0.02)"/>
            <path class="cls-3" d="M406.68,113.78l2,3.93,1,2a3.94,3.94,0,0,0,1.16,1.67c1.34.88,2.61-.27,3.48-1.21l3.11-3.36c.87-.94-.54-2.36-1.42-1.41l-2.61,2.82a11.43,11.43,0,0,1-1.23,1.28,1.51,1.51,0,0,1-.34.2c.07,0,.17.08.12,0a1.1,1.1,0,0,1-.15-.26c-1.19-2.19-2.25-4.47-3.37-6.7a1,1,0,0,0-1.37-.36,1,1,0,0,0-.36,1.37Z" transform="translate(0 -0.02)"/>
            <path class="cls-3" d="M482.46,52.27c1.1-1.19,2.25-2.34,3.45-3.42.61-.55,1.22-1.08,1.85-1.59.28-.24.58-.47.87-.7s.53-.5.74-.48l-.51-.14s-.07-.23,0-.07.08.23.12.34l.28.87.6,1.83L491,52.48c.39,1.22,2.33.7,1.93-.53l-1.64-5a8.17,8.17,0,0,0-.82-2.23,1.63,1.63,0,0,0-2.25-.32,16.23,16.23,0,0,0-1.87,1.46c-.62.51-1.24,1-1.84,1.58q-1.8,1.64-3.45,3.43c-.87.94.54,2.36,1.41,1.41Z" transform="translate(0 -0.02)"/>
          </g>
        </g>
      </g>
      <g>
        <line class="cls-4" x1="371.89" y1="60.06" x2="371.51" y2="60.44"/>
        <path class="cls-2" d="M357.75,69.36c3.08-.22,4.65-3.19,5.5-5.81.92-2.82,2.1-7.47-1.49-8.94a2.86,2.86,0,0,0-3.69,1.53,21.86,21.86,0,0,0-2,5.54,18.26,18.26,0,0,0,.63,11.11,13.29,13.29,0,0,0,7.62,7.56c.61.21.87-.75.27-1a11.91,11.91,0,0,1-6.25-5.49,15.68,15.68,0,0,1-1.77-9.12,22.63,22.63,0,0,1,1.11-5.07,23.66,23.66,0,0,1,.92-2.37A3.32,3.32,0,0,1,360,55.5c1.21-.52,2.55.59,3,1.66.61,1.58.06,3.45-.35,5-.65,2.42-1.9,6-4.87,6.19-.64,0-.65,1,0,1Z" transform="translate(0 -0.02)"/>
        <path class="cls-2" d="M366.05,59.87a23.6,23.6,0,0,0,15.6-.67c.59-.23.33-1.2-.26-1a22.74,22.74,0,0,1-15.07.66c-.62-.19-.88.78-.27,1Z" transform="translate(0 -0.02)"/>
        <path class="cls-2" d="M374.75,53.88q-1.06,6.61-2.14,13.22l-1.07,6.61c-.16,1-.37,2-.48,3.06a16.2,16.2,0,0,0,.21,3.26c.06.64,1.06.65,1,0a16.25,16.25,0,0,1-.22-3.19c.12-1.12.36-2.24.54-3.36l1-6.36q1-6.48,2.09-13c.11-.63-.86-.9-1-.27Z" transform="translate(0 -0.02)"/>
        <path class="cls-2" d="M389,59.59c-7.35.82-12.85,14.08-4.35,17.27a5.15,5.15,0,0,0,5.09-.68c.5-.41-.21-1.11-.71-.71-2.25,1.8-5.7.27-7-2-1.76-3.16-.16-7.27,2-9.83a7.79,7.79,0,0,1,5-3c.63-.07.64-1.07,0-1Z" transform="translate(0 -0.02)"/>
        <path class="cls-2" d="M393.24,77.7h.84a.53.53,0,0,0,.36-.15.51.51,0,0,0,0-.7.53.53,0,0,0-.36-.15h-.84a.55.55,0,0,0-.36.15.51.51,0,0,0,0,.7.53.53,0,0,0,.36.15Z" transform="translate(0 -0.02)"/>
      </g>
      <path class="cls-3" d="M5.82,107.82A117.82,117.82,0,0,1,21.25,88.48a48.52,48.52,0,0,1,7.81-6.35,37.74,37.74,0,0,1,8.58-4.32,32.56,32.56,0,0,1,6-1.43c1.74-.24,3.49-.17,5.24-.36A33,33,0,0,0,60,72.68,55.54,55.54,0,0,0,74.89,61.56,54.69,54.69,0,0,0,86.15,44.18c.21-.51.4-1,.6-1.53.45-1.21-1.48-1.73-1.93-.53A52.29,52.29,0,0,1,75.08,58.4,59.36,59.36,0,0,1,68,65.11a48.42,48.42,0,0,1-7.51,5.1,32.8,32.8,0,0,1-10.52,3.68c-1.68.26-3.37.22-5.06.36a31.58,31.58,0,0,0-6.25,1.16A43.81,43.81,0,0,0,21.46,85.48,100.88,100.88,0,0,0,13,94.67a115,115,0,0,0-7.52,10c-.47.7-.93,1.4-1.39,2.11-.69,1.09,1,2.1,1.73,1Z" transform="translate(0 -0.02)"/>
      <path class="cls-3" d="M260.09,108.55a35.39,35.39,0,0,1,6.47-20,27.66,27.66,0,0,1,7.28-7.31,19.43,19.43,0,0,1,5.19-2.5,14.22,14.22,0,0,1,3.17-.48c4.32-.31,8.69-.27,13-.27,3.06,0,6.13.23,9.18.12a15.92,15.92,0,0,0,7.43-2.28c3.5-2,6.1-5.13,8.46-8.36a43,43,0,0,0,6.46-12.75,47.68,47.68,0,0,0,2-11.18c0-.67.06-1.34.07-2a1,1,0,0,0-2,0A42.72,42.72,0,0,1,320,64.37c-2.14,3.24-4.61,6.56-7.8,8.82a16.68,16.68,0,0,1-5.09,2.51,11.11,11.11,0,0,1-1.27.29l-.29,0h-.1q-.35,0-.69.06c-2.84.17-5.72-.07-8.56-.09-4.46,0-8.94,0-13.39.22a25.69,25.69,0,0,0-3.82.45,18.25,18.25,0,0,0-4.85,2,28.11,28.11,0,0,0-8.27,7.39A37.43,37.43,0,0,0,258.19,106c-.06.85-.09,1.7-.1,2.55a1,1,0,0,0,2,0Z" transform="translate(0 -0.02)"/>
      <g>
        <path class="cls-3" d="M78,46.33c1.26-.71,2.54-1.38,3.84-2a35.3,35.3,0,0,1,3.87-1.75c.28-.1.68-.31.8,0a2.86,2.86,0,0,1,.08.83l.06,1.12.25,4.55c.07,1.28,2.07,1.29,2,0l-.29-5.26a5.3,5.3,0,0,0-.4-2.37,2.12,2.12,0,0,0-2-1,6.78,6.78,0,0,0-2.23.72c-.79.34-1.56.69-2.33,1.06Q79.31,43.33,77,44.6a1,1,0,0,0,1,1.73Z" transform="translate(0 -0.02)"/>
        <path class="cls-3" d="M4,99.29,3.3,104.6c-.11.81-.24,1.62-.31,2.43a2.83,2.83,0,0,0,.47,2,2,2,0,0,0,2.3.61c.81-.24,1.6-.59,2.4-.89l5.07-1.9a1,1,0,0,0,.69-1.23,1,1,0,0,0-1.23-.7l-4.36,1.64-2.28.85-.52.2a3,3,0,0,0-.45.14s-.07,0-.09,0,0,.19,0,0,0-.14,0-.19a2.06,2.06,0,0,1,0-.43c0-.3.06-.6.1-.9L5.38,104,6,99.29a1,1,0,0,0-1-1,1,1,0,0,0-1,1Z" transform="translate(0 -0.02)"/>
      </g>
      <g>
        <path class="cls-3" d="M135.12,115.89a42.15,42.15,0,0,1,1.41-8,43.17,43.17,0,0,1,5.25-11.84,42.57,42.57,0,0,1,15.35-14.34,28.11,28.11,0,0,1,11.64-3.64c1.61-.07,3.2-.09,4.79-.29,1.79-.23,3.57-.56,5.33-.91,8.72-1.77,17.29-5.34,23.23-12.2a39.22,39.22,0,0,0,8.78-19.87c.08-.56.16-1.13.23-1.69a1,1,0,0,0-2,0c0,.11,0,.23,0,.34s-.06.42,0,.19l-.12.82c-.1.63-.21,1.26-.34,1.9A43.48,43.48,0,0,1,207.41,51a36,36,0,0,1-5.31,10.56c-5.45,7.36-13.9,11.26-22.64,13.17a54.92,54.92,0,0,1-10.13,1.34,29.11,29.11,0,0,0-11.54,3.09,43.71,43.71,0,0,0-16,13.41,44.79,44.79,0,0,0-8.53,21.85c-.06.48-.1,1-.14,1.44-.11,1.28,1.9,1.28,2,0Z" transform="translate(0 -0.02)"/>
        <g>
          <path class="cls-1" d="M142.3,111.61a.5.5,0,0,0,0-1,.5.5,0,0,0,0,1Z" transform="translate(0 -0.02)"/>
          <path class="cls-3" d="M128.44,111.09l2,3.93,1,2a4,4,0,0,0,1.16,1.68c1.34.87,2.6-.28,3.48-1.22l3.1-3.35c.88-1-.53-2.36-1.41-1.42l-2.61,2.82a12.5,12.5,0,0,1-1.23,1.29,1.68,1.68,0,0,1-.34.19c.06,0,.16.08.12,0a2.26,2.26,0,0,1-.16-.26c-1.18-2.2-2.24-4.48-3.36-6.71a1,1,0,1,0-1.73,1Z" transform="translate(0 -0.02)"/>
          <path class="cls-3" d="M205,50.21a51.58,51.58,0,0,1,4.88-6.41c.19-.21.57-.49.68-.74s-.44.2-.4-.16c0,.06.11.23.14.3l1.05,2,2.08,3.94c.6,1.14,2.33.13,1.72-1l-2.46-4.66a7.26,7.26,0,0,0-1.2-2,1.67,1.67,0,0,0-2.28.18,17.87,17.87,0,0,0-1.54,1.71c-.53.61-1,1.24-1.54,1.88-1,1.3-2,2.63-2.86,4-.7,1.08,1,2.08,1.73,1Z" transform="translate(0 -0.02)"/>
        </g>
      </g>
      <g>
        <path class="cls-3" d="M323.86,46.44l2.39-3.29a16.5,16.5,0,0,1,1-1.38,3,3,0,0,1,.44-.39s.29-.17.17-.09a.17.17,0,0,1,.13,0s.1,0,.11.06a.84.84,0,0,1,.2.19,4.5,4.5,0,0,1,.35.51,7.71,7.71,0,0,1,.69,1.45,8.29,8.29,0,0,1,.45,3.27,1,1,0,0,0,1,1,1,1,0,0,0,1-1,10,10,0,0,0-.66-4.18c-.48-1.22-1.26-2.94-2.68-3.24-1.61-.33-2.68,1.06-3.5,2.2l-2.85,3.92a1,1,0,1,0,1.73,1Z" transform="translate(0 -0.02)"/>
        <path class="cls-3" d="M253.82,101.66l1.76,5.11c.48,1.4.82,3.71,2.64,3.89,1.65.17,2.9-1.46,3.94-2.5L266,104.3a1,1,0,0,0-1.41-1.41l-3.22,3.2-1.61,1.6c-.26.26-.88,1-1.3,1s-.4-.73-.48-1l-.75-2.17-1.52-4.42c-.42-1.21-2.35-.69-1.93.53Z" transform="translate(0 -0.02)"/>
      </g>
      <g>
        <path class="cls-2" d="M22.87,23.41a45.29,45.29,0,0,1,0-12.47c.25-1.73.77-3.62,2.27-4.68a2.63,2.63,0,0,1,4,.8c.26.58,1.12.08.86-.51a3.51,3.51,0,0,0-4.29-1.71,5.86,5.86,0,0,0-3.45,4.07,27.37,27.37,0,0,0-.78,6.94,49.08,49.08,0,0,0,.42,7.56c.08.62,1.08.63,1,0Z" transform="translate(0 -0.02)"/>
        <path class="cls-2" d="M19.12,15.66l8.46,1.6c.63.12.9-.85.27-1L19.38,14.7c-.63-.12-.9.84-.26,1Z" transform="translate(0 -0.02)"/>
        <path class="cls-2" d="M34.47,5.81A25,25,0,0,0,32,16.24c0,3,1.23,6.24,4.31,7.23.61.2.87-.77.26-1-2.9-.94-3.66-4.25-3.55-6.94a24.53,24.53,0,0,1,2.3-9.25c.27-.58-.59-1.09-.86-.51Z" transform="translate(0 -0.02)"/>
        <path class="cls-2" d="M37.7,10.59a42.29,42.29,0,0,0,5.68,8.29c.43.48,1.13-.22.71-.71a41.29,41.29,0,0,1-5.53-8.08c-.3-.57-1.16-.07-.86.5Z" transform="translate(0 -0.02)"/>
        <path class="cls-2" d="M43.6,8.12c-1.48,2.19-2.89,4.44-4.19,6.75-.65,1.13-1.3,2.27-1.87,3.45a1.44,1.44,0,0,0-.15,1.33.9.9,0,0,0,1.08.42c.59-.23.33-1.19-.27-1,.19-.07.3-.49.4-.67l.34-.65c.25-.47.5-.94.76-1.4q.72-1.31,1.47-2.58,1.57-2.64,3.29-5.19c.37-.53-.5-1-.86-.5Z" transform="translate(0 -0.02)"/>
        <path class="cls-2" d="M46.19,5.49A19.94,19.94,0,0,1,48.86,15a10,10,0,0,1-3.4,7.53c-.5.41.21,1.11.71.7a10.94,10.94,0,0,0,3.69-8C50,11.59,48.67,8.12,47.05,5c-.29-.57-1.16-.06-.86.51Z" transform="translate(0 -0.02)"/>
        <path class="cls-2" d="M54.77,13.92a3,3,0,0,1,3.67.06.5.5,0,1,0,.71-.71,3.93,3.93,0,0,0-4.88-.21.5.5,0,0,0-.18.68.5.5,0,0,0,.68.18Z" transform="translate(0 -0.02)"/>
        <path class="cls-2" d="M53.77,17.28a11.28,11.28,0,0,1,4.93-.5.5.5,0,0,0,0-1,11.93,11.93,0,0,0-5.2.54c-.61.2-.35,1.17.27,1Z" transform="translate(0 -0.02)"/>
        <path class="cls-2" d="M63.81,9.42l4.58,5,2.25,2.46c.57.63,1.89,1.64,1.66,2.62-.15.62.82.89,1,.26a2.92,2.92,0,0,0-1-2.59c-.86-.95-1.74-1.89-2.6-2.84L64.52,8.71c-.44-.47-1.14.23-.71.71Z" transform="translate(0 -0.02)"/>
        <path class="cls-2" d="M72.29,7.82q-2.12,3.09-4.13,6.25c-.66,1-1.31,2.09-2,3.14a3.44,3.44,0,0,0-.74,2.84c.19.61,1.16.35,1-.26-.32-1,.7-2.16,1.19-3s1.17-1.9,1.77-2.84q1.83-2.86,3.77-5.67c.36-.53-.51-1-.87-.5Z" transform="translate(0 -0.02)"/>
        <path class="cls-2" d="M73.6,2.78c1.15-.24,3-.64,3.68.68a1.17,1.17,0,0,1,0,1.26c-.32.36-.91.43-1.29.72a1,1,0,0,0-.35,1.23c.29.58,1.11.81,1.6,1.19a1.94,1.94,0,0,1,.93,1.69c-.06.58-.54.8-1,.91-1.08.24-2.31.12-3,1.18-.34.54.52,1,.86.5s.84-.49,1.3-.55A5.94,5.94,0,0,0,78,11.22a2.19,2.19,0,0,0,.62-3.37,5.52,5.52,0,0,0-1.77-1.41c-.06,0-.34-.21-.34-.18s.17-.1.23-.13c.27-.15.57-.25.84-.4a2.11,2.11,0,0,0,.41-3c-1-1.53-3.11-1.22-4.66-.89-.63.13-.37,1.09.26,1Z" transform="translate(0 -0.02)"/>
      </g>
      <g>
        <path class="cls-2" d="M143,21.52A23,23,0,0,1,142.41,10c.38-1.67,1-3.52,2.66-4.35,1.45-.74,3.63,0,3.38,1.89-.08.63.92.63,1,0a3,3,0,0,0-3.19-3.22c-2.08.08-3.55,1.76-4.26,3.57a18.57,18.57,0,0,0-1.09,6.81A25.62,25.62,0,0,0,142,21.79a.5.5,0,0,0,1-.27Z" transform="translate(0 -0.02)"/>
        <path class="cls-2" d="M139.27,15.22a11.64,11.64,0,0,0,6.7,1.72c.64,0,.64-1,0-1a10.71,10.71,0,0,1-6.19-1.58c-.55-.34-1.05.53-.51.86Z" transform="translate(0 -0.02)"/>
        <path class="cls-2" d="M153,5.52a28.39,28.39,0,0,0-3.26,9.89,9.49,9.49,0,0,0,.2,4.88A3.37,3.37,0,0,0,153,22.5a.5.5,0,0,0,0-1c-1.5,0-2.32-1.45-2.46-2.77a15.4,15.4,0,0,1,.33-4.33,27.34,27.34,0,0,1,3-8.37c.31-.57-.56-1.07-.87-.51Z" transform="translate(0 -0.02)"/>
        <path class="cls-2" d="M155.61,11.33A43.2,43.2,0,0,0,159,19.62c.31.57,1.17.07.87-.5a41.49,41.49,0,0,1-3.32-8,.5.5,0,0,0-1,.26Z" transform="translate(0 -0.02)"/>
        <path class="cls-2" d="M159.32,11.23a62,62,0,0,1-5.8,8.93c-.27.35,0,1,.49.83l.56-.18c.61-.21.35-1.17-.26-1l-.57.19.49.83a63,63,0,0,0,6-9.13c.31-.57-.55-1.07-.86-.5Z" transform="translate(0 -0.02)"/>
        <path class="cls-2" d="M161.53,6.41a19.88,19.88,0,0,1,2.24,8.64c0,2-.07,5.36-2.45,6.14-.6.2-.34,1.16.27,1,2.65-.86,3.17-4,3.19-6.43a21.06,21.06,0,0,0-2.39-9.81c-.29-.58-1.16-.07-.86.5Z" transform="translate(0 -0.02)"/>
        <path class="cls-2" d="M170.35,14.83l3.32-.29a3.69,3.69,0,0,1,1.1,0,1,1,0,0,1,.37.16s0,0,0,0,0,0,0,0,0,.06,0,0a.5.5,0,1,0,1,.26c.16-1.07-.93-1.5-1.83-1.48-.63,0-1.27.1-1.9.15l-2.05.18a.5.5,0,0,0,0,1Z" transform="translate(0 -0.02)"/>
        <path class="cls-2" d="M169.92,18.17a1.46,1.46,0,0,1,1.16-.27,9.64,9.64,0,0,1,1.54.33,3.24,3.24,0,0,0,3.11-.35c.48-.43-.23-1.14-.71-.71a1.38,1.38,0,0,1-1.13.28,10.54,10.54,0,0,1-1.54-.32,3.28,3.28,0,0,0-3.13.33c-.49.42.22,1.13.7.71Z" transform="translate(0 -0.02)"/>
        <path class="cls-2" d="M180.24,8.72l7,12a.5.5,0,0,0,.86-.5l-7-12a.5.5,0,0,0-.87.5Z" transform="translate(0 -0.02)"/>
        <path class="cls-2" d="M187.39,8.16a100.81,100.81,0,0,0-6.76,13.66c-.24.59.72.85,1,.26a100.2,100.2,0,0,1,6.66-13.41.5.5,0,0,0-.86-.51Z" transform="translate(0 -0.02)"/>
        <path class="cls-2" d="M194.82,1.52A21.35,21.35,0,0,0,192.31.21a1.39,1.39,0,0,0-1.83.35,4.25,4.25,0,0,0-.34,2.29c0,1,0,2,0,3a1.22,1.22,0,0,0,1.17,1.38c.91.08,1.84-.07,2.75,0,.63,0,2.42.14,2.1,1.13a3.1,3.1,0,0,1-1.51,1.52,10.18,10.18,0,0,1-4.82.78.5.5,0,0,0,0,1c2.48,0,6.15-.19,7.25-2.92.75-1.84-1.58-2.46-2.93-2.51-.89,0-1.82.16-2.7,0-.24,0-.3,0-.31-.31s0-.47,0-.7V3.78c0-.58,0-1.17,0-1.76,0-.31,0-.93.34-1s1.06.4,1.41.58.95.51,1.42.78a.5.5,0,0,0,.5-.86Z" transform="translate(0 -0.02)"/>
      </g>
      <g>
        <path class="cls-2" d="M268.68,22.52a19.27,19.27,0,0,1-.8-9.7c.25-1.41.57-3.11,1.66-4.14a2.35,2.35,0,0,1,2.09-.7,1.46,1.46,0,0,1,1.12,1.54c-.11.62.85.9,1,.26A2.51,2.51,0,0,0,270.85,7c-1.82.24-2.91,1.87-3.43,3.49a19.8,19.8,0,0,0,.3,12.34c.21.6,1.17.34,1-.27Z" transform="translate(0 -0.02)"/>
        <path class="cls-2" d="M265.14,16.77a14.1,14.1,0,0,0,6.63.73.5.5,0,0,0,0-1,13.54,13.54,0,0,1-6.37-.69c-.6-.22-.87.75-.26,1Z" transform="translate(0 -0.02)"/>
        <path class="cls-2" d="M280.22,6.7c-1.38,0-1.91,1.51-2.31,2.56a25.53,25.53,0,0,0-1.34,5.08,8.8,8.8,0,0,0,.17,4.64,3.81,3.81,0,0,0,2.79,2.43c.63.11.9-.86.27-1-2.8-.48-2.58-4-2.23-6.08a25.21,25.21,0,0,1,.92-3.74c.19-.59.4-1.18.64-1.75s.49-1.2,1.09-1.18.65-1,0-1Z" transform="translate(0 -0.02)"/>
        <path class="cls-2" d="M280.37,10.39q1.25,3.15,2.67,6.22c.7,1.49,1.46,3.53,3.37,3.68.64.05.63-.95,0-1A2.24,2.24,0,0,1,284.84,18a25.35,25.35,0,0,1-1.17-2.4c-.83-1.8-1.6-3.63-2.34-5.47-.23-.6-1.2-.34-1,.26Z" transform="translate(0 -0.02)"/>
        <path class="cls-2" d="M284.88,11.17a68,68,0,0,0-5.66,8.71c-.31.57.55,1.07.86.51a67.65,67.65,0,0,1,5.66-8.71c.39-.51-.47-1-.86-.51Z" transform="translate(0 -0.02)"/>
        <path class="cls-2" d="M286.7,7.19a12.3,12.3,0,0,1,3,7,12.43,12.43,0,0,1-.22,3.75c-.21.94-.65,2.82-1.94,2.66-.64-.08-.63.92,0,1,1.36.17,2.21-1.17,2.6-2.29a12.55,12.55,0,0,0,.6-4.55,13.4,13.4,0,0,0-3.33-8.24c-.43-.49-1.14.22-.71.7Z" transform="translate(0 -0.02)"/>
        <path class="cls-2" d="M296.26,13.08a8.06,8.06,0,0,1,4.9-.36.5.5,0,0,0,.26-1,9,9,0,0,0-5.43.36.53.53,0,0,0-.35.62.51.51,0,0,0,.62.35Z" transform="translate(0 -0.02)"/>
        <path class="cls-2" d="M296.32,16.73a23.27,23.27,0,0,1,4.64-.32.5.5,0,0,0,0-1,24.56,24.56,0,0,0-4.91.36.51.51,0,0,0-.35.61.52.52,0,0,0,.62.35Z" transform="translate(0 -0.02)"/>
        <path class="cls-2" d="M305.92,10q3.87,5,8.07,9.82c.43.48,1.13-.23.71-.71q-4.12-4.66-7.92-9.61c-.39-.5-1.26,0-.86.5Z" transform="translate(0 -0.02)"/>
        <path class="cls-2" d="M313.22,6.74l-7.13,13.47c-.3.56.56,1.07.87.5l7.13-13.46c.3-.57-.56-1.08-.87-.51Z" transform="translate(0 -0.02)"/>
        <path class="cls-2" d="M315.3,1.78l4.44.05,1.13,0c.22,0,.7-.08.89,0,.42.27-.3,1.21-.46,1.47-.74,1.21-1.5,2.4-2.3,3.57-.42.61-.85,1.22-1.28,1.82l-.65.9c-.14.18-.48.82-.7.87l.39.05.12.33-.23.3.06,0c.57-.29.07-1.15-.51-.87a.64.64,0,0,0,.05,1.13c.65.3,1.09-.49,1.4-.91,1-1.28,1.89-2.59,2.78-3.93.42-.64.84-1.29,1.25-1.94a10.93,10.93,0,0,0,1.06-1.85,1.5,1.5,0,0,0-.17-1.54,2.16,2.16,0,0,0-1.7-.42L315.3.78a.5.5,0,0,0,0,1Z" transform="translate(0 -0.02)"/>
      </g>
    </g>
  </g>
</svg>
