<svg id="Layer_1" data-name="Layer 1" xmlns="http://www.w3.org/2000/svg" viewBox="0 0 225.71 212.44"><defs><style>.cls-1{fill:#231f20;}.cls-2{fill:#939598;}.cls-3{fill:#ed1c24;}</style></defs><title>completing-the-square-example-2-1</title><path class="cls-1" d="M42,32.31c1.19-2.29,2.37-4.58,3.7-6.78a32.1,32.1,0,0,1,4.5-6.11c1.53-1.54,3.82-2.84,6-1.85a4.73,4.73,0,0,1,2,2.49l1.89,3.8,4.28,8.59c.28.58,1.15.07.86-.51l-4.11-8.25c-.71-1.42-1.41-2.83-2.12-4.24a5.61,5.61,0,0,0-2-2.58,5.72,5.72,0,0,0-6.19.69,22.21,22.21,0,0,0-5,5.93,93.89,93.89,0,0,0-4.66,8.31c-.3.57.57,1.08.86.51Z" transform="translate(-25.69 -2.29)"/><path class="cls-1" d="M53.82,17.38c-.29,25.71,2.1,51.33,3.52,77,.7,12.7,1.14,25.42.92,38.14s-1,25.71-1.53,38.56c-.62,14.39-1,28.81,0,43.19l.85-.35A96.61,96.61,0,0,1,41.6,197l-.79.61c2.4,3,4.92,5.9,7.59,8.67q2,2.08,4.09,4.06a37.43,37.43,0,0,0,4,3.62c1.31.9,2.43.33,3.43-.7,1.46-1.48,2.86-3,4.29-4.52l8.56-9c.44-.46-.26-1.17-.71-.7l-7.76,8.2-4,4.24a9.58,9.58,0,0,1-1.87,1.84c-1,.55-1.94-.6-2.61-1.2a123.09,123.09,0,0,1-14.33-15.17c-.35-.44-1.12.15-.78.61a97.61,97.61,0,0,0,16.17,17.14c.3.25.88.12.85-.36-1.76-25.69.72-51.39,1.4-77.08s-1.38-51.1-2.95-76.62c-.88-14.38-1.56-28.77-1.39-43.17a.5.5,0,0,0-1,0Z" transform="translate(-25.69 -2.29)"/><path class="cls-2" d="M239.79,118.28a131.86,131.86,0,0,0,10.78,14.36c.42.49,1.12-.22.7-.71a131,131,0,0,1-10.62-14.16c-.35-.53-1.22,0-.86.51Z" transform="translate(-25.69 -2.29)"/><path class="cls-2" d="M240.09,132.79a62,62,0,0,1,4.63-7.37c.85-1.16,1.74-2.31,2.69-3.4a5.2,5.2,0,0,1,3.1-2.08c.63-.09.36-1-.27-1a5.62,5.62,0,0,0-3.21,2,43.1,43.1,0,0,0-2.77,3.42,61.2,61.2,0,0,0-5,7.92c-.31.57.56,1.07.86.5Z" transform="translate(-25.69 -2.29)"/><path class="cls-2" d="M52.73,3.83C52.8,5,52.51,6.28,53,7.4a2.25,2.25,0,0,0,2.25,1.46c1-.15,1.55-1.1,2-1.93L59.34,3l-.92-.38a53.67,53.67,0,0,1-5,12.67c-.31.56.55,1.07.86.5A54.81,54.81,0,0,0,59.39,2.92a.5.5,0,0,0-.92-.38L57,5.24a9.68,9.68,0,0,1-1.36,2.33c-.75.72-1.59,0-1.85-.81a11.47,11.47,0,0,1-.1-2.93c0-.64-1-.64-1,0Z" transform="translate(-25.69 -2.29)"/><path class="cls-1" d="M29.4,127.22q40.76,0,81.5-.49,40.54-.45,81.08-1.31,22.89-.48,45.78-1.1a.5.5,0,0,0,.43-.75,47,47,0,0,0-12.72-13.66c-.53-.38-1,.49-.51.87a72.42,72.42,0,0,1,14.27,14l.08-.6q-6.24,6.93-13.09,13.28c-.48.44.23,1.14.7.7q6.86-6.33,13.09-13.28a.48.48,0,0,0,.08-.6,74.17,74.17,0,0,0-14.62-14.35l-.51.87a45.64,45.64,0,0,1,12.37,13.3l.43-.76q-40.74,1.09-81.48,1.78-40.54.68-81.09.94-22.89.15-45.79.18a.5.5,0,0,0,0,1Z" transform="translate(-25.69 -2.29)"/><path class="cls-1" d="M43.75,110.36A104.27,104.27,0,0,0,32,122.65c-.86,1.06-1.76,2.13-2.54,3.27a2.3,2.3,0,0,0-.07,2.82,13.57,13.57,0,0,0,3,2.49l3.8,2.82,8.4,6.23c.45.33.87-.28.69-.68a3.6,3.6,0,0,1-.29-1.94c.07-.64-.93-.64-1,0a4.65,4.65,0,0,0,.42,2.44l.69-.68c-4.64-3.44-9.28-6.86-13.9-10.31a4,4,0,0,1-1.18-1.17c-.33-.61,0-1.17.38-1.68.76-1.05,1.59-2.07,2.41-3.08,1.67-2.06,3.43-4,5.25-6q3-3.21,6.37-6.15c.48-.43-.23-1.13-.71-.71Z" transform="translate(-25.69 -2.29)"/><path class="cls-3" d="M37.36,59.66a94,94,0,0,1,6.09-27.13q1.38-3.53,3.07-6.91H43.93l6.26,13,3.13,6.51c.5,1.06,1,2.15,1.53,3.18a2.61,2.61,0,0,0,2.88,1.57,2,2,0,0,0,1.2-2.68,1.74,1.74,0,0,0-3.17-.46,1.5,1.5,0,0,0,2.59,1.52l-.12.17-.67.39.06,0h-.8a1,1,0,0,1-.75-.71c0,.16,0,.13,0-.1,0-.39.28-.56.83-.52.78,0,1-.17.67-.44A9.64,9.64,0,0,0,57,45.91l-1.51-3.15-3-6.18-6-12.48a1.51,1.51,0,0,0-2.59,0,93.66,93.66,0,0,0-8.61,27.21q-.65,4.15-1,8.35a1.51,1.51,0,0,0,1.5,1.5,1.53,1.53,0,0,0,1.5-1.5Z" transform="translate(-25.69 -2.29)"/><path class="cls-3" d="M42.25,32.86a370.39,370.39,0,0,0,7.85,40.7,289.73,289.73,0,0,0,11.43,36.17A165.23,165.23,0,0,0,78,141.55c6.46,9.5,14.2,18.2,23.62,24.86a66.72,66.72,0,0,0,30.28,12.09,48.48,48.48,0,0,0,30.25-6.17c9-5.28,16.15-13.18,21.91-21.78,6.27-9.37,11-19.71,15.09-30.2,4.64-12,8.49-24.29,12-36.64q5.59-19.78,9.61-39.95,1-5,1.88-9.94a1.54,1.54,0,0,0-1-1.85A1.52,1.52,0,0,0,219.68,33q-3.6,20-8.73,39.72c-3.33,12.76-7.11,25.41-11.46,37.86a192.18,192.18,0,0,1-13.31,30.63c-5.05,9.05-11.25,17.64-19.36,24.2a45.85,45.85,0,0,1-27.48,10.42c-10.45.3-20.75-2.85-29.8-7.94A83.75,83.75,0,0,1,84.7,145.78a144.23,144.23,0,0,1-17.39-30,252.39,252.39,0,0,1-12-34.33,366.36,366.36,0,0,1-8.7-39.57q-.8-4.92-1.47-9.85A1.5,1.5,0,0,0,43.3,31a1.54,1.54,0,0,0-1,1.84Z" transform="translate(-25.69 -2.29)"/><path class="cls-3" d="M204.34,61.25Q210,50.39,216.66,40.08,218.31,37.53,220,35a10.31,10.31,0,0,1,.67-.92c.14-.16.45-.53.54-.45s-.11,0-.11,0c-.17,0-.05-.08-.06,0s.12.08,0,0a1,1,0,0,1,.18.17,3.27,3.27,0,0,1,.54.81A46.19,46.19,0,0,1,224,39.82c.72,1.87,1.37,3.76,2,5.67a98.58,98.58,0,0,1,3.15,13.36,1.5,1.5,0,0,0,2.9-.79,98.77,98.77,0,0,0-2.92-12.6,82.49,82.49,0,0,0-4.53-12c-.89-1.83-2.66-3.52-4.79-2.45a6,6,0,0,0-2.07,2.1c-.62.9-1.23,1.8-1.83,2.71q-3.6,5.41-6.92,11-3.78,6.35-7.19,12.9a1.5,1.5,0,1,0,2.59,1.52Z" transform="translate(-25.69 -2.29)"/><path class="cls-2" d="M72.16,118.59q-1,8.66-1.39,17.35c0,.64,1,.64,1,0q.41-8.7,1.39-17.35c.07-.64-.93-.63-1,0Z" transform="translate(-25.69 -2.29)"/><path class="cls-2" d="M73.66,99.86a5.71,5.71,0,0,1-3.45-1.09.5.5,0,0,0-.73.3l-2.11,7.51a.51.51,0,0,0,.48.64,10,10,0,0,1,3.35.92,10.62,10.62,0,0,1,1.27.72c.41.27,1.21.7,1.2,1.28,0,1-1.79,1.65-2.53,1.92a10,10,0,0,1-3.55.61.5.5,0,0,0,0,1,11,11,0,0,0,4.45-.9c1.07-.46,2.62-1.26,2.63-2.63s-1.61-2.15-2.59-2.67a11.43,11.43,0,0,0-4.23-1.25l.48.63,2.11-7.51-.73.3a6.64,6.64,0,0,0,4,1.22.5.5,0,0,0,0-1Z" transform="translate(-25.69 -2.29)"/><path class="cls-2" d="M76.19,107.83a8.15,8.15,0,0,1,3.11.12.5.5,0,0,0,.61-.35.5.5,0,0,0-.34-.61,9.11,9.11,0,0,0-3.64-.12.5.5,0,0,0-.35.62.5.5,0,0,0,.61.34Z" transform="translate(-25.69 -2.29)"/><path class="cls-2" d="M80.92,111.42c0-.26.31-.32.55-.24s.47.54.56.82c.23.7.36,1.45.54,2.17a.5.5,0,0,0,1-.14l0-10.94c0-.45,0-.9,0-1.35s-.08-.83.28-1a4.25,4.25,0,0,1,1.29-.2l1.34-.18L92,99.62l-.5-.5-.25,5.39c0,.65,1,.64,1,0l.25-5.39a.5.5,0,0,0-.5-.5l-6.12.8a7.46,7.46,0,0,0-2.62.47,1.81,1.81,0,0,0-.68,1.72c0,4.14,0,8.28,0,12.42l1-.13c-.26-1.09-.37-2.83-1.43-3.51a1.4,1.4,0,0,0-2.14.76c-.11.63.85.9,1,.27Z" transform="translate(-25.69 -2.29)"/><path class="cls-2" d="M86,103.88a2.82,2.82,0,0,1,3.13,3.35,3,3,0,0,1-1.64,2,11.07,11.07,0,0,0-2.59,1.48c-.35.32,0,.8.36.85l5.28.6c.63.07.63-.93,0-1l-5.28-.6.35.85c.86-.79,2.07-1,3-1.71a3.88,3.88,0,0,0,1.56-2.83,3.81,3.81,0,0,0-4.18-4c-.64.07-.64,1.07,0,1Z" transform="translate(-25.69 -2.29)"/><path class="cls-2" d="M192.64,114.39a47.35,47.35,0,0,0,1.46,12,45.41,45.41,0,0,0,1.85,5.72c.23.56.48,1.81,1.19,2s1.12-.71.59-1.12-1.22.31-.71.7l.07.06-.15-.35v-.06l.3-.23-.1,0,.39.05c-.29-.12-.41-.81-.53-1.09s-.31-.79-.46-1.19c-.28-.76-.54-1.52-.78-2.29-.47-1.51-.87-3-1.19-4.59a46.51,46.51,0,0,1-.93-9.63.5.5,0,0,0-1,0Z" transform="translate(-25.69 -2.29)"/><path class="cls-2" d="M180,95.73,178.22,95a5.28,5.28,0,0,0-1.64-.58c-1.1,0-1.21,1.38-1.37,2.16-.23,1.18-.43,2.36-.59,3.55-.13.92-.37,1.94.6,2.48s2.15.62,3.13,1.16a2.21,2.21,0,0,1,1.28,2.44c-.77,2.44-4.07,1.35-5.84,1.26l.49.64a.5.5,0,0,1,.38-.42.5.5,0,0,0-.27-1,1.49,1.49,0,0,0-1.08,1.11.5.5,0,0,0,.48.63c2,.1,4.12.88,5.83-.56a2.9,2.9,0,0,0-.14-4.56,7.69,7.69,0,0,0-2.72-1.22,7.52,7.52,0,0,1-.8-.27c-.39-.17-.49-.3-.47-.71,0-.6.16-1.22.25-1.82s.19-1.19.3-1.78a8.43,8.43,0,0,1,.37-1.81c.18-.38.3-.28.66-.14L178,96l1.78.73c.59.24.85-.73.26-1Z" transform="translate(-25.69 -2.29)"/><path class="cls-2" d="M181.64,101.09l3.84-.47a3.53,3.53,0,0,0,1.56-.39.93.93,0,0,0,.4-1.28.5.5,0,0,0-.87.5s0-.16,0-.15-.09.09-.1.09a1,1,0,0,1-.41.15c-.48.09-1,.12-1.45.18l-3,.37a.5.5,0,0,0,0,1Z" transform="translate(-25.69 -2.29)"/><path class="cls-2" d="M183.94,96.58a22.48,22.48,0,0,0-.6,7.53.51.51,0,0,0,.85.36l.48-.39c.51-.4-.21-1.11-.7-.71l-.49.39.86.35a21.65,21.65,0,0,1,.57-7.26c.15-.62-.81-.89-1-.27Z" transform="translate(-25.69 -2.29)"/><path class="cls-2" d="M187.83,105a.72.72,0,0,1,1-.19,1.61,1.61,0,0,1,.64,1.35,17.74,17.74,0,0,0,.06,3.26.5.5,0,0,0,1-.13l.48-7.12.23-3.44.12-1.72c0-.24,0-.49,0-.73s0-.33,0-.18l.5,0,3.48.09,1.74,0a1.57,1.57,0,0,1,1.29.42c.51.67.28,2,.27,2.73l0,3.58.37-.48.16-.09c-.07-.63-1.07-.64-1,0s.4,1.19,1.11,1a.5.5,0,0,0,.36-.48l0-3.1a15.78,15.78,0,0,0-.05-2.75,2.06,2.06,0,0,0-1.09-1.62,6.57,6.57,0,0,0-2.65-.29l-3.24-.09c-.66,0-1.9-.31-2.19.53a5.49,5.49,0,0,0-.13,1.34l-.11,1.6L190,101.9l-.5,7.37,1-.13c-.41-1.56.51-3.34-.6-4.73a1.79,1.79,0,0,0-2.93.07c-.31.56.56,1.07.87.5Z" transform="translate(-25.69 -2.29)"/><path class="cls-2" d="M192.61,99.85c1.5.63,3.5,1.74,3.55,3.6.06,2.29-2.36,3.48-4.18,4.16-.41.15-.54.88,0,1l5.53.81c.62.09.9-.87.26-1l-5.52-.81v1c2.25-.83,5-2.33,4.91-5.12-.06-2.38-2.34-3.75-4.29-4.56-.59-.25-.85.72-.26,1Z" transform="translate(-25.69 -2.29)"/><path class="cls-2" d="M48.59,88.61l9.71-.28,2.33-.06a7.89,7.89,0,0,0,2.12-.14c.9-.29.93-1.84-.14-1.73-.63.07-.64,1.07,0,1a.5.5,0,0,0-.5-.18l-.5,0-.73,0-1.72,0-3.57.1-7,.2c-.64,0-.64,1,0,1Z" transform="translate(-25.69 -2.29)"/><path class="cls-2" d="M28.78,81.74c1.79-.88,4.32-2,6.2-.74,1.57,1,1.75,3.24,1.09,4.85-.81,2-2.72,3.23-4.51,4.21a31,31,0,0,0-5.72,3.44.5.5,0,0,0,.35.85L36.61,94c.64,0,.64-1,0-1l-10.42.36.36.85c3-2.57,7.22-3.33,9.64-6.59,1.89-2.55,1.7-7-1.85-8-2.06-.55-4.24.35-6.06,1.24-.58.29-.07,1.15.5.87Z" transform="translate(-25.69 -2.29)"/><path class="cls-2" d="M41.29,81.39c1,.22,2.14.1,3,.63,1.16.72.48,1.72-.09,2.59A18.36,18.36,0,0,1,40.11,89a.51.51,0,0,0,0,.71,6.5,6.5,0,0,0,2.28,1.09c.69.22,1.77.48,1.83,1.37.08,1.15-1.48,1.64-2.36,1.8A6.78,6.78,0,0,0,38.67,95c-.51.39.2,1.09.71.71,1.09-.85,2.64-.62,3.87-1.13a2.83,2.83,0,0,0,2-2.45c0-2.33-3.08-2-4.4-3.18v.71a16.82,16.82,0,0,0,4.88-5.63,2.08,2.08,0,0,0-.55-2.66c-1-.84-2.37-.71-3.59-1-.63-.14-.9.82-.27,1Z" transform="translate(-25.69 -2.29)"/></svg>