<svg id="Layer_1" data-name="Layer 1" xmlns="http://www.w3.org/2000/svg" viewBox="0 0 226.08 212.44"><defs><style>.cls-1{fill:#231f20;}.cls-2{fill:#939598;}.cls-3{fill:#ed1c24;}</style></defs><title>completing-the-square-example-1</title><path class="cls-1" d="M42,32.31c1.19-2.29,2.37-4.58,3.7-6.78a32.1,32.1,0,0,1,4.5-6.11c1.53-1.54,3.82-2.84,6-1.85a4.73,4.73,0,0,1,2,2.49l1.89,3.8,4.28,8.59c.28.58,1.15.07.86-.51l-4.11-8.25c-.71-1.42-1.41-2.83-2.12-4.24a5.61,5.61,0,0,0-2-2.58,5.72,5.72,0,0,0-6.19.69,22.21,22.21,0,0,0-5,5.93,93.89,93.89,0,0,0-4.66,8.31c-.3.57.57,1.08.86.51Z" transform="translate(-17.84 -2.29)"/><path class="cls-1" d="M53.82,17.38c-.29,25.71,2.1,51.33,3.52,77,.7,12.7,1.14,25.42.92,38.14s-1,25.71-1.53,38.56c-.62,14.39-1,28.81,0,43.19l.85-.35A96.61,96.61,0,0,1,41.6,197l-.79.61c2.4,3,4.92,5.9,7.59,8.67q2,2.08,4.09,4.06a37.43,37.43,0,0,0,4,3.62c1.31.9,2.43.33,3.43-.7,1.46-1.48,2.86-3,4.29-4.52l8.56-9c.44-.46-.26-1.17-.71-.7l-7.76,8.2-4,4.24a9.58,9.58,0,0,1-1.87,1.84c-1,.55-1.94-.6-2.61-1.2a123.09,123.09,0,0,1-14.33-15.17c-.35-.44-1.12.15-.78.61a97.61,97.61,0,0,0,16.17,17.14c.3.25.88.12.85-.36-1.76-25.69.72-51.39,1.4-77.08s-1.38-51.1-2.95-76.62c-.88-14.38-1.56-28.77-1.39-43.17a.5.5,0,0,0-1,0Z" transform="translate(-17.84 -2.29)"/><path class="cls-2" d="M232.3,166.48a131.22,131.22,0,0,0,10.78,14.36c.42.49,1.13-.22.71-.7A131.76,131.76,0,0,1,233.16,166c-.34-.54-1.21,0-.86.5Z" transform="translate(-17.84 -2.29)"/><path class="cls-2" d="M232.61,181a62.36,62.36,0,0,1,4.62-7.37c.86-1.17,1.75-2.31,2.7-3.41a5.24,5.24,0,0,1,3.09-2.08c.64-.09.37-1-.26-1a5.57,5.57,0,0,0-3.22,2c-1,1.08-1.89,2.26-2.77,3.43a62.59,62.59,0,0,0-5,7.91c-.3.57.56,1.08.87.51Z" transform="translate(-17.84 -2.29)"/><path class="cls-2" d="M52.73,3.83C52.8,5,52.51,6.28,53,7.4a2.25,2.25,0,0,0,2.25,1.46c1-.15,1.55-1.1,2-1.93L59.34,3l-.92-.38a53.67,53.67,0,0,1-5,12.67c-.31.56.55,1.07.86.5A54.81,54.81,0,0,0,59.39,2.92a.5.5,0,0,0-.92-.38L57,5.24a9.68,9.68,0,0,1-1.36,2.33c-.75.72-1.59,0-1.85-.81a11.47,11.47,0,0,1-.1-2.93c0-.64-1-.64-1,0Z" transform="translate(-17.84 -2.29)"/><path class="cls-1" d="M18.32,174.82q40.76,0,81.51-.49,40.53-.45,81.07-1.3,22.89-.5,45.79-1.1a.51.51,0,0,0,.43-.75,47,47,0,0,0-12.73-13.66c-.53-.38-1,.48-.51.86a72.2,72.2,0,0,1,14.27,14l.08-.61Q222,178.71,215.14,185c-.47.44.23,1.15.71.71q6.84-6.33,13.09-13.28a.51.51,0,0,0,.07-.61,74.12,74.12,0,0,0-14.62-14.34l-.51.86a45.63,45.63,0,0,1,12.37,13.3l.44-.75Q186,172,145.2,172.7q-40.54.68-81.08,1-22.9.15-45.8.17a.5.5,0,0,0,0,1Z" transform="translate(-17.84 -2.29)"/><path class="cls-1" d="M32.67,158a105,105,0,0,0-11.76,12.28c-.86,1.07-1.76,2.14-2.54,3.27a2.31,2.31,0,0,0-.07,2.82,13.4,13.4,0,0,0,3.05,2.5l3.8,2.82,8.39,6.23c.45.33.87-.29.69-.69a3.68,3.68,0,0,1-.29-1.94c.07-.64-.93-.63-1,0a4.69,4.69,0,0,0,.42,2.45l.69-.69c-4.63-3.43-9.28-6.85-13.9-10.31A4,4,0,0,1,19,175.55c-.33-.62,0-1.18.38-1.68.76-1.06,1.59-2.08,2.41-3.09q2.52-3.08,5.25-6,3-3.21,6.37-6.14c.48-.43-.23-1.14-.71-.71Z" transform="translate(-17.84 -2.29)"/><path class="cls-3" d="M22.07,54.6a94.44,94.44,0,0,1,6.11-27.25c.91-2.36,1.94-4.67,3.07-6.94H28.66l6.26,13.07L38,40c.51,1.06,1,2.14,1.53,3.18a2.68,2.68,0,0,0,2.93,1.67,2,2,0,0,0,1.19-2.7,1.73,1.73,0,0,0-3.16-.45,1.5,1.5,0,0,0,2.59,1.51l-.13.18-.66.38h-.74a1.05,1.05,0,0,1-.75-.72c0,.17,0,.13,0-.09.06-.67.59-1,1.62-.83L42.33,42c-.14-.35-.4-.78-.58-1.16l-1.5-3.13-3-6.26-6-12.52a1.51,1.51,0,0,0-2.59,0A94.48,94.48,0,0,0,20,46.21q-.64,4.17-1,8.39a1.5,1.5,0,0,0,3,0Z" transform="translate(-17.84 -2.29)"/><path class="cls-3" d="M27,27.69a370.92,370.92,0,0,0,7.87,40.86A290.15,290.15,0,0,0,46.37,105,164.13,164.13,0,0,0,62.85,137c6.5,9.58,14.31,18.33,23.82,25a66.48,66.48,0,0,0,30.24,12,48.41,48.41,0,0,0,30.39-6.33c9-5.35,16.16-13.32,21.91-22,6.27-9.44,11-19.83,15.08-30.38,4.61-12,8.43-24.23,11.9-36.55q5.61-19.86,9.62-40.12,1-5,1.88-9.93a1.54,1.54,0,0,0-1.05-1.85,1.51,1.51,0,0,0-1.84,1.05q-3.6,20-8.7,39.72-5,19.23-11.48,38.05a193.4,193.4,0,0,1-13.32,30.79c-5,9-11.17,17.62-19.21,24.2a45.94,45.94,0,0,1-27.54,10.67c-10.52.36-20.89-2.78-30-7.9a83.92,83.92,0,0,1-24.91-22.14,144.09,144.09,0,0,1-17.48-30.11,252.36,252.36,0,0,1-12-34.45,370.24,370.24,0,0,1-8.77-39.91q-.8-4.93-1.47-9.89A1.51,1.51,0,0,0,28,25.84,1.54,1.54,0,0,0,27,27.69Z" transform="translate(-17.84 -2.29)"/><path class="cls-3" d="M189.42,56.2c3.81-7.3,7.94-14.44,12.41-21.36q1.65-2.55,3.36-5.07a7.51,7.51,0,0,1,.67-.9l.23-.26c.1-.08.19-.13.22-.11h-.13c-.12,0,0-.07.06,0-.1-.12.16.15.19.19a5,5,0,0,1,.57.92c.84,1.67,1.51,3.46,2.18,5.2s1.35,3.75,1.94,5.65a99.19,99.19,0,0,1,3.13,13.3,1.51,1.51,0,0,0,1.84,1.05,1.54,1.54,0,0,0,1-1.85,93,93,0,0,0-7.43-24.61c-.85-1.78-2.52-3.54-4.66-2.61a5.64,5.64,0,0,0-2.2,2.11c-.61.89-1.21,1.79-1.81,2.69Q197.43,36,194.1,41.63q-3.82,6.42-7.27,13.06a1.5,1.5,0,1,0,2.59,1.51Z" transform="translate(-17.84 -2.29)"/><path class="cls-2" d="M50.69,127.83l9.7-.28,2.34-.06a7.53,7.53,0,0,0,2.12-.14c.89-.29.93-1.84-.15-1.73-.63.07-.64,1.07,0,1a.5.5,0,0,0-.5-.18l-.49,0-.74,0-1.72,0-3.56.1-7,.2c-.64,0-.65,1,0,1Z" transform="translate(-17.84 -2.29)"/><path class="cls-2" d="M69.9,114.76l-2.31,9.73a.5.5,0,0,0,.35.61,13.91,13.91,0,0,0,5.52-.35,31.92,31.92,0,0,1,5.93-.71c1,0,1.92,0,2.87.11a3.84,3.84,0,0,0,2.15-.23c.94-.51,1.31-2.15.17-2.67-.58-.27-1.09.6-.5.86s0,.85-.29,1a4.65,4.65,0,0,1-2,0,28.92,28.92,0,0,0-4.56,0,41.22,41.22,0,0,0-4.27.68,12.29,12.29,0,0,1-4.75.31l.35.61L70.87,115c.14-.63-.82-.9-1-.27Z" transform="translate(-17.84 -2.29)"/><path class="cls-2" d="M79,114.72a105,105,0,0,0-3.23,21.35.51.51,0,0,0,1,.14l.38-1.71c.14-.63-.82-.9-1-.27l-.39,1.71,1,.13A102.9,102.9,0,0,1,80,115a.5.5,0,0,0-1-.27Z" transform="translate(-17.84 -2.29)"/><path class="cls-2" d="M123.05,162.6q-1,8.66-1.39,17.35c0,.65,1,.64,1,0q.42-8.69,1.39-17.35c.08-.63-.92-.63-1,0Z" transform="translate(-17.84 -2.29)"/><path class="cls-2" d="M112.79,183.89a54,54,0,0,1,8.14-.32c1.37.05,2.74.15,4.09.32,1,.12,2.19.33,2.74,1.24a2.87,2.87,0,0,1-.44,3,10.58,10.58,0,0,1-2.36,2.41,32.52,32.52,0,0,1-6.23,3.75c-2.64,1.28-5.32,2.49-8,3.72a.51.51,0,0,0,0,.87,5.41,5.41,0,0,0,3.49.65c1.55-.11,3.09-.26,4.63-.39l9.46-.82c.64,0,.64-1.06,0-1l-9,.77-4.36.38c-1.26.11-2.64.29-3.76-.46v.87c2.63-1.22,5.28-2.41,7.89-3.68a33.13,33.13,0,0,0,6.78-4.15c1.57-1.31,3.59-3.38,3-5.65-.63-2.5-3.91-2.52-5.94-2.68a53.56,53.56,0,0,0-10.21.2c-.64.07-.64,1.07,0,1Z" transform="translate(-17.84 -2.29)"/><path class="cls-1" d="M122.74,125.56l3.84-8-.69-.09a22.21,22.21,0,0,1,1.73,7.87c0,.48.77.48.75,0a23.09,23.09,0,0,0-1.75-8.07c-.11-.26-.53-.41-.69-.09l-3.84,8c-.21.43.44.81.65.37Z" transform="translate(-17.84 -2.29)"/><path class="cls-1" d="M124.18,122.79h3.61c.72,0,2.27.24,2.33-.85,0-.48-.72-.48-.75,0,0,0,0,0-.07,0a.64.64,0,0,1-.17.05,2.82,2.82,0,0,1-.58,0h-4.37a.38.38,0,0,0,0,.75Z" transform="translate(-17.84 -2.29)"/><path class="cls-1" d="M131.36,118.88l-1.12,6a.37.37,0,0,0,.36.47l4.57-.12c.48,0,.48-.77,0-.75l-4.57.12.36.48,1.12-6c.09-.48-.63-.68-.72-.2Z" transform="translate(-17.84 -2.29)"/><path class="cls-1" d="M139.88,117.67a4.64,4.64,0,0,0-2.33,1.42c-.47.54-1.33,1.69-.52,2.3a2.31,2.31,0,0,0,1.24.31,4.54,4.54,0,0,1,1.64.3c.36.18.78.56.71,1s-.53.67-.87.84-2.51,1.24-2.6.7-.8-.27-.72.2c.15.91,1.34.74,1.95.48s1.15-.45,1.7-.71a2.55,2.55,0,0,0,1.07-.85,1.67,1.67,0,0,0-.86-2.33,4.41,4.41,0,0,0-1.64-.37,8.08,8.08,0,0,1-.86-.08c-.08,0-.27,0-.32-.11s0-.22.06-.32a3.83,3.83,0,0,1,2.55-2.07.38.38,0,0,0-.2-.73Z" transform="translate(-17.84 -2.29)"/><path class="cls-1" d="M143.75,118.81a11.47,11.47,0,0,0-1.21,3.74,4.37,4.37,0,0,0,0,1.87,1.34,1.34,0,0,0,1.14,1,3.13,3.13,0,0,0,2.71-1.53,3.28,3.28,0,0,0,.39-3.14,3,3,0,0,0-2.81-1.81c-.48,0-.48.77,0,.75a2.18,2.18,0,0,1,2,1.12,2.38,2.38,0,0,1,0,2.38,2.75,2.75,0,0,1-1.91,1.49.67.67,0,0,1-.81-.59,5.42,5.42,0,0,1,.09-1.45,10.85,10.85,0,0,1,1.12-3.41c.22-.43-.43-.81-.65-.38Z" transform="translate(-17.84 -2.29)"/><path class="cls-1" d="M152.38,125.3c.18-1.54.43-3.07.75-4.58.16-.75.32-1.5.52-2.24.12-.45.27-1.07.79-1.21L154,117a49.14,49.14,0,0,1,1.7,8,.38.38,0,0,0,.75,0l.06-.83c0-.48-.71-.48-.75,0l-.06.83h.75a51.33,51.33,0,0,0-1.72-8.24.38.38,0,0,0-.46-.26,1.75,1.75,0,0,0-1.13,1.16,14.23,14.23,0,0,0-.6,2.33q-.57,2.61-.88,5.26c-.06.48.69.47.75,0Z" transform="translate(-17.84 -2.29)"/><path class="cls-1" d="M153,122a16.07,16.07,0,0,0,4,.2.38.38,0,0,0,.37-.38.37.37,0,0,0-.37-.37,15.93,15.93,0,0,1-3.78-.17.4.4,0,0,0-.47.26.38.38,0,0,0,.27.46Z" transform="translate(-17.84 -2.29)"/><path class="cls-1" d="M162.48,125.22l.68-7.93-.64.26a19.65,19.65,0,0,1,2.76,5.32c.12.31.63.4.72,0l1.16-5.5-.69.09c1.48,2.29,1.39,5.14,1.29,7.76,0,.48.73.48.75,0,.11-2.75.17-5.73-1.39-8.14a.38.38,0,0,0-.69.09l-1.15,5.5H166a20.86,20.86,0,0,0-2.95-5.65c-.22-.28-.61,0-.64.27l-.68,7.93c0,.49.71.48.75,0Z" transform="translate(-17.84 -2.29)"/><path class="cls-1" d="M170.5,125.3c-.12-1.14-.21-2.28-.24-3.43,0-.56,0-1.12,0-1.68,0-.27,0-.54,0-.81s0-.26,0-.4,0-.16,0-.24,0-.16-.33-.12c.21.44.85.06.65-.37s-.92-.14-1,.29a4.6,4.6,0,0,0-.06,1c0,.38,0,.76,0,1.14a41,41,0,0,0,.25,4.57c.06.47.81.48.75,0Z" transform="translate(-17.84 -2.29)"/><path class="cls-1" d="M172.49,124.87l.28-6.25-.74.1c.55,2.16,1.18,4.45,2.86,6a.38.38,0,0,0,.64-.27l.35-6.72c0-.48-.72-.48-.75,0l-.35,6.72.64-.26c-1.58-1.49-2.15-3.66-2.67-5.7a.37.37,0,0,0-.73.1l-.28,6.25c0,.48.73.48.75,0Z" transform="translate(-17.84 -2.29)"/><path class="cls-1" d="M178.11,124.86l-.1-3.36-.06-1.68a2.2,2.2,0,0,1,.16-1.32c.26-.41-.39-.78-.65-.38a2.19,2.19,0,0,0-.27,1.31l.06,1.81.11,3.62c0,.48.77.48.75,0Z" transform="translate(-17.84 -2.29)"/><path class="cls-1" d="M180.52,125.09a24.74,24.74,0,0,1,.12-6.49l-.63.17a3.18,3.18,0,0,1,.79,2.09,2.86,2.86,0,0,0,1,2,.38.38,0,0,0,.55-.22,23.58,23.58,0,0,1,1.17-4.68l-.68.09c1.07,2,1.1,4.25,1.12,6.42,0,.31.43.53.64.27l.21-.25c.31-.37-.22-.9-.53-.53l-.21.25.64.26c0-2.31-.08-4.72-1.23-6.8a.38.38,0,0,0-.68.09,23.58,23.58,0,0,0-1.17,4.68l.55-.23c-.59-.43-.63-1.33-.74-2a3,3,0,0,0-.91-2c-.19-.16-.58-.15-.62.16a25,25,0,0,0-.15,6.69c.06.48.81.48.75,0Z" transform="translate(-17.84 -2.29)"/><path class="cls-1" d="M185.69,119.45a7,7,0,0,0-.45,2.79,5.49,5.49,0,0,0,.66,2.57,1.39,1.39,0,0,0,2,.55,3.7,3.7,0,0,0,1.25-2.11,8.77,8.77,0,0,0,.34-3.26c0-.48-.79-.49-.75,0a8.34,8.34,0,0,1-.3,3,4.47,4.47,0,0,1-.52,1.26c-.18.28-.48.63-.85.56s-.55-.47-.67-.77a5.42,5.42,0,0,1-.34-1.43,6.49,6.49,0,0,1,.39-3c.18-.45-.55-.64-.72-.19Z" transform="translate(-17.84 -2.29)"/><path class="cls-1" d="M190.58,125.46a25.66,25.66,0,0,0,.07-6.61l-.73.1a12.7,12.7,0,0,0,1.29,3.68c.14.27.64.24.68-.09a14.34,14.34,0,0,1,1.59-4.85h-.64a10.79,10.79,0,0,1,1.37,6.58c-.05.48.7.47.75,0a11.38,11.38,0,0,0-1.48-7,.37.37,0,0,0-.64,0,15,15,0,0,0-1.67,5l.68-.09a12.32,12.32,0,0,1-1.21-3.5c-.08-.41-.79-.32-.74.1a25,25,0,0,1,0,6.41c-.07.48.66.68.72.2Z" transform="translate(-17.84 -2.29)"/><path class="cls-1" d="M151.45,110.91A2.4,2.4,0,0,1,152,109a7.43,7.43,0,0,1,1.42-1.54,2.48,2.48,0,0,1,3.45.58,5.73,5.73,0,0,1,1,1.75,2.44,2.44,0,0,1,.15,1.94,3.42,3.42,0,0,1-3.19,1.44,1.93,1.93,0,0,1-1.62-.91,1.34,1.34,0,0,1,.11-1.6.38.38,0,0,0-.53-.53,2.25,2.25,0,0,0,.86,3.5,4.35,4.35,0,0,0,4.49-.83c1.36-1.27.63-3.24-.22-4.6s-2.58-2.48-4.23-1.77a5.83,5.83,0,0,0-2.14,1.93,3.22,3.22,0,0,0-.79,2.77.37.37,0,0,0,.72-.19Z" transform="translate(-17.84 -2.29)"/><path class="cls-1" d="M161.33,113.05l-.43-7.39-.48.37,4.53.9c.47.09.67-.63.2-.73l-4.53-.9a.38.38,0,0,0-.47.36l.43,7.39c0,.48.77.48.75,0Z" transform="translate(-17.84 -2.29)"/><path class="cls-1" d="M160.85,109.87A20.88,20.88,0,0,0,165,110c.48,0,.49-.79,0-.75a20.88,20.88,0,0,1-4.18-.13c-.2,0-.37.19-.37.38a.38.38,0,0,0,.37.37Z" transform="translate(-17.84 -2.29)"/><path class="cls-1" d="M170.62,113.8a52.28,52.28,0,0,1,2.71-9.34l-.68.09a17.81,17.81,0,0,1,1.19,5.31.37.37,0,0,0,.73.1l1.63-5.44h-.73a51.53,51.53,0,0,1,1.24,9.33.38.38,0,0,0,.75,0V113a.38.38,0,0,0-.75,0v.81h.75a52.72,52.72,0,0,0-1.26-9.53.38.38,0,0,0-.73,0l-1.62,5.44.74.1a18.77,18.77,0,0,0-1.3-5.69c-.15-.33-.58-.18-.68.09a51.46,51.46,0,0,0-2.71,9.34c-.09.47.63.68.72.2Z" transform="translate(-17.84 -2.29)"/><path class="cls-1" d="M178.48,106.48a8.59,8.59,0,0,0-.17,3.31,5.24,5.24,0,0,0,1.08,2.82,2,2,0,0,0,2.44.48,2.78,2.78,0,0,0,.87-1.11,9.51,9.51,0,0,0,.55-1.46,8.59,8.59,0,0,0,.2-3.6c-.07-.48-.79-.28-.72.19a7.78,7.78,0,0,1-.25,3.36c-.23.78-.67,2.31-1.74,2.1s-1.41-1.47-1.6-2.36a7.8,7.8,0,0,1,.07-3.53.38.38,0,0,0-.73-.2Z" transform="translate(-17.84 -2.29)"/><path class="cls-1" d="M184.71,106.05c-.41,1.89-.83,3.79-1.23,5.68a1,1,0,0,0,.19,1,1.94,1.94,0,0,0,1.14.25,12.23,12.23,0,0,0,2.77-.2c.47-.09.27-.81-.2-.72a11.33,11.33,0,0,1-2.33.18l-.54,0c-.15,0-.32,0-.34-.13a1.85,1.85,0,0,1,.11-.55l.14-.62,1-4.69c.1-.47-.62-.67-.72-.2Z" transform="translate(-17.84 -2.29)"/><path class="cls-1" d="M187.44,107.85a14.23,14.23,0,0,0,5.14-1.18.37.37,0,0,0,.14-.51.39.39,0,0,0-.52-.13,13.63,13.63,0,0,1-4.76,1.07c-.48,0-.48.77,0,.75Z" transform="translate(-17.84 -2.29)"/><path class="cls-1" d="M190.31,107.77a18,18,0,0,0-.36,5.94c.05.47.8.48.75,0A17.3,17.3,0,0,1,191,108c.11-.47-.62-.67-.72-.2Z" transform="translate(-17.84 -2.29)"/><path class="cls-1" d="M194.5,113.26l.26-5.6c0-.48-.72-.48-.75,0l-.26,5.6c0,.48.73.48.75,0Z" transform="translate(-17.84 -2.29)"/><path class="cls-1" d="M198.05,114.11c-.28-2.39-.47-4.78-.57-7.19,0-.29-.12-.94.14-1.17s1,.43,1.15.73a1.23,1.23,0,0,1-.07,1.32,1,1,0,0,1-1.11.32c-.44-.21-.82.43-.38.64a1.75,1.75,0,0,0,2.45-1.42c.11-1-1-2.9-2.25-2.35a1.4,1.4,0,0,0-.69,1.27,21.75,21.75,0,0,0,.11,2.55c.1,1.77.26,3.54.47,5.3,0,.48.8.48.75,0Z" transform="translate(-17.84 -2.29)"/><path class="cls-1" d="M200.56,106.38l-.87,6.87a.38.38,0,0,0,.48.36c1.14-.31,2.27-.68,3.38-1.1.45-.17.26-.9-.2-.73-1.11.42-2.24.79-3.38,1.11l.47.36.87-6.87c.06-.48-.69-.47-.75,0Z" transform="translate(-17.84 -2.29)"/><path class="cls-1" d="M204.57,106.15l-.11,4.83,0,1.17a3.48,3.48,0,0,0,0,1,.47.47,0,1,0,.92-.23.38.38,0,0,0-.26-.26h0c-.46-.16-.66.57-.2.72h0l-.26-.26,0-.23.27-.11c.18.18.25.17.22,0v-.62l0-.82,0-1.73.08-3.45a.38.38,0,0,0-.75,0Z" transform="translate(-17.84 -2.29)"/><path class="cls-1" d="M209.13,106.93a10.67,10.67,0,0,0-1.69,2,11.19,11.19,0,0,0-.65,1.17,4.93,4.93,0,0,0-.46,1.23,1.35,1.35,0,0,0,1.06,1.7,2.48,2.48,0,0,0,1.93-.69c.35-.33-.18-.86-.53-.53a1.71,1.71,0,0,1-1.3.48c-.68-.12-.41-1-.24-1.4a9.77,9.77,0,0,1,2.41-3.41c.35-.33-.18-.86-.53-.53Z" transform="translate(-17.84 -2.29)"/><path class="cls-1" d="M211.47,113.26l-.07-6a.38.38,0,0,0-.75,0l.07,6a.38.38,0,0,0,.75,0Z" transform="translate(-17.84 -2.29)"/><path class="cls-1" d="M212.23,107.17a13.79,13.79,0,0,0,4.19-.45.38.38,0,0,0-.2-.73,13.14,13.14,0,0,1-4,.43c-.49,0-.49.73,0,.75Z" transform="translate(-17.84 -2.29)"/><path class="cls-1" d="M214.43,107.66a26.77,26.77,0,0,0-.22,4.1c0,.33,0,.65,0,1a.81.81,0,0,0,.3.65c.49.33,1.16-.39.68-.78s-.91.22-.53.53.3-.39.29-.48,0-.22,0-.32,0-.46,0-.69c0-.44,0-.88,0-1.31a24,24,0,0,1,.21-2.68.38.38,0,1,0-.75,0Z" transform="translate(-17.84 -2.29)"/><path class="cls-1" d="M217.84,107.33l.27,1.16a4.62,4.62,0,0,0,.28,1,.83.83,0,0,0,.77.45,1.32,1.32,0,0,0,.81-.41,4.89,4.89,0,0,0,.59-.84l.62-1,1.25-2-.69-.29-.18.61c-.14.46.59.66.73.2l.18-.61a.38.38,0,0,0-.69-.29c-.7,1.13-1.39,2.28-2.12,3.39a1.16,1.16,0,0,1-.43.45c-.14.07-.16,0-.21-.12a7.54,7.54,0,0,1-.22-.94l-.23-1c-.11-.47-.83-.27-.73.2Z" transform="translate(-17.84 -2.29)"/><path class="cls-1" d="M219.16,108.72a7.87,7.87,0,0,0-.78,5.28c.1.47.82.27.73-.2a7,7,0,0,1,.7-4.7c.23-.42-.42-.8-.65-.38Z" transform="translate(-17.84 -2.29)"/><path class="cls-1" d="M227.41,107.24a3.82,3.82,0,0,1,2.38,1.45,1.92,1.92,0,0,1,0,2.33,4.84,4.84,0,0,1-1.85,1,6.8,6.8,0,0,0-2,1.11.38.38,0,0,0,.17.63,14.54,14.54,0,0,0,5.84,0c.48-.1.28-.82-.19-.72a13.7,13.7,0,0,1-5.45,0l.16.63c1.26-1.11,3.4-1.06,4.25-2.67a2.75,2.75,0,0,0-.28-2.84,4.66,4.66,0,0,0-2.75-1.67.37.37,0,0,0-.2.72Z" transform="translate(-17.84 -2.29)"/><path class="cls-1" d="M122.51,115.34l-.51-4.72-.24-2.27a2.77,2.77,0,0,1,0-1.11,1.21,1.21,0,0,1,.8-.63c1-.37,2.8-.06,3.19,1.13.23.7-.74,1.05-1.22,1.3-.71.35-1.43.68-2.16,1a.38.38,0,0,0-.17.63,11.85,11.85,0,0,0,4.78,3c.46.15.65-.57.2-.73a10.88,10.88,0,0,1-4.45-2.85l-.16.62c.69-.28,1.37-.58,2-.91a4.61,4.61,0,0,0,1.59-1c.87-1-.14-2.26-1.11-2.74a3.48,3.48,0,0,0-3.3.06,1.6,1.6,0,0,0-.82,1.41,21.14,21.14,0,0,0,.24,2.37l.58,5.41c0,.47.8.48.75,0Z" transform="translate(-17.84 -2.29)"/><path class="cls-1" d="M130.12,106.88a8.54,8.54,0,0,0-1.49,3.93c-.13,1.11-.16,2.7.87,3.43s2.46,0,3.06-1a5.87,5.87,0,0,0,.66-4.06,3.77,3.77,0,0,0-2.68-2.88c-.47-.12-.67.61-.2.72a2.92,2.92,0,0,1,2,1.89,4.9,4.9,0,0,1-.2,3.43c-.31.78-1.27,2-2.24,1.32-.78-.55-.64-2-.54-2.8a7.88,7.88,0,0,1,1.39-3.55c.28-.4-.37-.77-.65-.38Z" transform="translate(-17.84 -2.29)"/><path class="cls-1" d="M134.63,108.13a9.35,9.35,0,0,0-.39,4.1c.18,1.06.93,2.09,2.12,1.91a2.82,2.82,0,0,0,2.12-2.36,4.34,4.34,0,0,0-.6-3,4.16,4.16,0,0,0-2.8-2c-.48-.07-.68.65-.2.73a3.62,3.62,0,0,1,2.91,3.45,2.44,2.44,0,0,1-1.16,2.26c-.91.47-1.5-.36-1.65-1.17a6.26,6.26,0,0,1,0-1.73,10.91,10.91,0,0,1,.39-2,.37.37,0,0,0-.72-.2Z" transform="translate(-17.84 -2.29)"/><path class="cls-1" d="M138.22,108.51a22.37,22.37,0,0,0,5.94-1.29c.45-.16.26-.88-.2-.72a22.16,22.16,0,0,1-5.74,1.26c-.48,0-.48.79,0,.75Z" transform="translate(-17.84 -2.29)"/><path class="cls-1" d="M141.7,107.76a15.17,15.17,0,0,0-.11,6.67c.09.47.82.27.72-.2a14.27,14.27,0,0,1,.11-6.27c.11-.47-.61-.67-.72-.2Z" transform="translate(-17.84 -2.29)"/><path class="cls-2" d="M111.72,155.15a43.91,43.91,0,0,0,3.71,3.88c.95.88,2.5,2.53,3.81,1.3a4,4,0,0,0,.91-1.76c.32-.92.62-1.84.91-2.76q.84-2.69,1.54-5.4a.5.5,0,0,0-1-.27c-.4,1.56-.83,3.12-1.3,4.66-.24.77-.48,1.54-.74,2.31a13.22,13.22,0,0,1-.74,2.08c-.35.67-.87.66-1.46.23a18.1,18.1,0,0,1-1.79-1.6c-1.12-1.07-2.17-2.2-3.18-3.37-.41-.5-1.12.21-.7.7Z" transform="translate(-17.84 -2.29)"/><path class="cls-2" d="M118.47,160.47c.3-4.15.56-8.31.94-12.45a60.5,60.5,0,0,1,2-11.51,30.14,30.14,0,0,1,2.41-5.92c.31-.57-.55-1.07-.86-.51-3.8,7-4.35,15.11-4.91,22.85-.19,2.51-.37,5-.55,7.54,0,.65,1,.64,1,0Z" transform="translate(-17.84 -2.29)"/></svg>