<?xml version="1.0" encoding="utf-8"?>
<!-- Generator: Adobe Illustrator 23.1.1, SVG Export Plug-In . SVG Version: 6.00 Build 0)  -->
<svg version="1.1" id="Layer_1" xmlns="http://www.w3.org/2000/svg" xmlns:xlink="http://www.w3.org/1999/xlink" x="0px" y="0px"
	 viewBox="0 0 288 216" style="enable-background:new 0 0 288 216;" xml:space="preserve">
<style type="text/css">
	.st0{fill:#A7A9AC;}
	.st1{fill:none;stroke:#000000;stroke-miterlimit:10;}
	.st2{fill:#ED1C24;}
</style>
<g>
	<g>
		<g>
			<path class="st0" d="M243.21,129.34c3.93-3.47,7.75-7.07,11.44-10.79c0.45-0.45,0.9-0.91,1.34-1.36
				c0.42-0.43,0.93-0.86,1.11-1.46c0.35-1.2-0.7-1.94-1.57-2.52c-1.63-1.07-3.47-1.73-5.25-2.49c-1.91-0.81-3.86-1.78-5.1-3.5
				c-0.12,0.46-0.24,0.91-0.36,1.37c0.26-0.17,0.46-0.16,0.68,0.07c0.9,0.92,2.32-0.49,1.41-1.41c-0.82-0.84-2.1-1.03-3.1-0.38
				c-0.42,0.27-0.69,0.91-0.36,1.37c2.27,3.15,5.9,4.08,9.23,5.68c0.81,0.39,1.64,0.82,2.35,1.38c0.02,0.02,0.16,0.15,0.19,0.16
				c0.02,0.02,0.04,0.04,0.06,0.05c-0.02-0.12-0.04-0.25-0.07-0.37c-0.07-0.01-0.56,0.58-0.62,0.64c-0.45,0.46-0.89,0.91-1.34,1.36
				c-1.74,1.75-3.5,3.47-5.3,5.17c-2.02,1.91-4.07,3.78-6.15,5.62C240.83,128.78,242.25,130.19,243.21,129.34L243.21,129.34z"/>
		</g>
	</g>
	<g>
		<g>
			<path class="st0" d="M39.43,102.04c-3.54,1.58-6.89,3.56-9.98,5.89c-0.72,0.54-1.6,1.09-2.17,1.79c-0.67,0.81-0.44,1.77,0.2,2.51
				c1.36,1.58,2.91,3.03,4.39,4.49c1.67,1.65,3.37,3.26,5.1,4.85c0.95,0.87,2.37-0.54,1.41-1.41c-1.76-1.61-3.49-3.26-5.19-4.93
				c-0.85-0.84-1.7-1.69-2.53-2.55c-0.42-0.43-0.83-0.86-1.25-1.29c-0.1-0.11-0.39-0.54-0.53-0.56c-0.08-0.16-0.11-0.1-0.09,0.18
				c0.08-0.09,0.17-0.16,0.26-0.24c3.34-2.9,7.36-5.2,11.38-6.99c0.49-0.22,0.61-0.94,0.36-1.37
				C40.5,101.89,39.92,101.82,39.43,102.04L39.43,102.04z"/>
		</g>
	</g>
	<g>
		<g>
			<path class="st0" d="M27.74,112.35c13.93,3.8,28.45,3.76,42.78,3.62c15.01-0.15,30.01-0.31,45.02-0.46
				c15.01-0.15,30.03-0.31,45.04-0.46c14.93-0.15,29.87-0.38,44.8-0.25c16.85,0.15,33.71,0.81,50.47,2.67
				c0.39,0.04,0.9-0.34,0.96-0.73c0.27-1.68-0.76-3.47-2.62-3.42c-1.28,0.04-1.29,2.04,0,2c0.47-0.01,0.77,0.42,0.7,0.89
				c0.32-0.24,0.64-0.49,0.96-0.73c-29.66-3.3-59.56-2.79-89.35-2.49c-30.03,0.31-60.06,0.62-90.09,0.93
				c-16.08,0.17-32.47,0.79-48.14-3.49C27.03,110.08,26.5,112.01,27.74,112.35L27.74,112.35z"/>
		</g>
	</g>
</g>
<g>
	<g>
		<g>
			<path class="st0" d="M132.66,38.31c1.64-4.9,3.62-9.69,5.94-14.31c0.57-1.13,1.15-2.25,1.76-3.36c0.27-0.5,0.55-1.01,0.84-1.5
				c0,0,0.26-0.41,0.27-0.4c-0.1,0.01-0.19,0.02-0.29,0.03c0.02,0.02,0.03,0.04,0.05,0.05c0.01,0.06,0.22,0.31,0.25,0.36
				c1.45,2.32,2.83,4.68,4.25,7.01c1.63,2.69,3.26,5.39,4.89,8.08c0.36,0.59,1.4,0.71,1.73,0c0.33-0.72,0.66-1.44,0.99-2.16
				c0.22-0.49,0.14-1.08-0.36-1.37c-0.43-0.25-1.14-0.13-1.37,0.36c-0.33,0.72-0.66,1.44-0.99,2.16c0.58,0,1.15,0,1.73,0
				c-1.59-2.62-3.18-5.24-4.76-7.87c-0.79-1.31-1.59-2.62-2.38-3.93c-0.75-1.23-1.43-2.57-2.29-3.73c-0.77-1.03-2.11-1.3-3-0.24
				c-0.41,0.49-0.69,1.08-0.99,1.63c-0.35,0.64-0.7,1.28-1.04,1.92c-1.31,2.48-2.52,5.02-3.63,7.6c-1.29,3-2.46,6.04-3.5,9.14
				C130.32,39,132.25,39.53,132.66,38.31L132.66,38.31z"/>
		</g>
	</g>
	<g>
		<g>
			<path class="st0" d="M134.07,181.51c1.59,3.79,3.51,7.42,5.82,10.82c0.54,0.79,1.06,1.7,1.74,2.39c0.76,0.77,1.84,0.61,2.52-0.16
				c1.39-1.59,2.58-3.41,3.8-5.13c1.44-2.01,2.84-4.05,4.2-6.11c0.71-1.08-1.02-2.08-1.73-1.01c-1.36,2.06-2.76,4.1-4.2,6.11
				c-0.69,0.97-1.4,1.93-2.11,2.89c-0.33,0.45-0.66,0.89-1,1.33c-0.05,0.07-0.51,0.56-0.5,0.63c0.42,0.13,0.54,0.12,0.36-0.04
				c-0.09-0.12-0.18-0.24-0.26-0.36c-2.68-3.69-4.94-7.69-6.7-11.9c-0.21-0.5-0.66-0.85-1.23-0.7
				C134.3,180.41,133.86,181.01,134.07,181.51L134.07,181.51z"/>
		</g>
	</g>
	<g>
		<g>
			<path class="st0" d="M140.07,18.29c-0.36,22.73-0.5,45.45-0.44,68.18c0.07,22.62,0.35,45.23,0.84,67.84
				c0.28,12.76,0.62,25.51,1.03,38.26c0.04,1.28,2.04,1.29,2,0c-0.73-22.72-1.25-45.45-1.56-68.18c-0.3-22.61-0.4-45.23-0.28-67.84
				c0.07-12.75,0.2-25.51,0.4-38.26C142.09,17,140.09,17,140.07,18.29L140.07,18.29z"/>
		</g>
	</g>
</g>
<line class="st1" x1="278.19" y1="73" x2="277.82" y2="73.37"/>
<g>
	<g>
		<g>
			<path class="st2" d="M39.59,183.01c9.32-0.01,18.69-0.33,27.89-1.95c7.93-1.4,15.56-3.93,22.84-7.36
				c8.26-3.89,16.23-8.61,23.65-13.93c3.53-2.53,6.99-5.22,10.02-8.35c2.65-2.74,4.89-5.9,6.94-9.1
				c4.76-7.47,8.81-15.97,10.17-24.79c0.66-4.25,0.41-8.57,1.07-12.83c0.62-3.99,1.7-7.93,3.31-11.63
				c3.35-7.71,8.78-14.22,14.94-19.85c3.44-3.15,7.04-5.85,11.26-7.89c4.4-2.13,9.07-3.66,13.64-5.38
				c18.83-7.08,37.76-13.89,57.56-17.72c2.69-0.52,5.39-0.99,8.1-1.4c1.27-0.19,0.73-2.12-0.53-1.93
				c-20.43,3.12-40.06,9.54-59.36,16.75c-4.47,1.67-8.95,3.31-13.41,5c-4.3,1.63-8.57,3.42-12.39,6.01
				c-3.68,2.49-7.01,5.64-10.09,8.82c-2.9,3-5.57,6.25-7.82,9.77c-4.38,6.85-6.89,14.61-7.62,22.69c-0.2,2.19-0.16,4.4-0.32,6.59
				c-0.16,2.14-0.55,4.25-1.07,6.32c-1.12,4.47-2.85,8.78-4.91,12.9c-3.61,7.23-8.14,14.11-14.29,19.43
				c-7.01,6.05-15.07,10.98-23.19,15.38c-7.29,3.96-14.9,7.25-22.96,9.26c-8.42,2.1-17.09,2.83-25.75,3.07
				c-2.56,0.07-5.12,0.1-7.68,0.1C38.3,181.01,38.3,183.01,39.59,183.01L39.59,183.01z"/>
		</g>
	</g>
	<g>
		<g>
			<path class="st2" d="M241.48,47.57c3.77-1.88,7.55-3.75,11.32-5.64c0.81-0.41,1.57-1.07,1.23-2.06c-0.28-0.8-1.21-1.2-1.93-1.52
				c-1.42-0.63-2.91-1.04-4.39-1.5c-1.41-0.44-2.99-0.91-4.04-2.02c-0.89-0.94-2.3,0.48-1.41,1.41c1.27,1.34,3.12,1.96,4.84,2.5
				c0.93,0.29,1.87,0.56,2.79,0.87c0.4,0.14,0.81,0.28,1.2,0.45c0.31,0.13,1.02,0.36,1.16,0.68c-0.05-0.17-0.09-0.34-0.14-0.5
				c0.18-0.29,0.16-0.35-0.05-0.19c-0.13,0.06-0.25,0.13-0.38,0.19c-0.22,0.11-0.43,0.21-0.65,0.32c-0.5,0.25-1.01,0.5-1.51,0.75
				c-1.01,0.5-2.01,1-3.02,1.5c-2.01,1-4.02,2-6.04,3.01C239.32,46.41,240.33,48.14,241.48,47.57L241.48,47.57z"/>
		</g>
	</g>
	<g>
		<g>
			<path class="st2" d="M47.56,187.57c0.27,0.33,0.54,0.67,0.81,1c0.4-0.52,0.81-1.05,1.21-1.57c-2.03-0.93-4.06-1.86-6.08-2.78
				c-0.98-0.45-1.95-0.89-2.93-1.34c-0.21-0.1-0.43-0.19-0.64-0.29c-0.12-0.06-0.24-0.12-0.35-0.19c0.03,0.1,0.07,0.21,0.1,0.31
				c0.06,0.02,0.82-0.84,0.93-0.95c2.6-2.46,5.83-4.22,9.17-5.44c1.2-0.44,0.68-2.37-0.53-1.93c-3.94,1.44-7.79,3.53-10.71,6.6
				c-0.77,0.81-1.32,1.98-0.33,2.86c0.45,0.4,1.04,0.61,1.57,0.85c0.6,0.27,1.2,0.55,1.8,0.82c2.33,1.07,4.66,2.13,6.98,3.2
				c1.05,0.48,1.93-0.67,1.21-1.57c-0.27-0.33-0.54-0.67-0.81-1c-0.34-0.42-1.06-0.35-1.41,0
				C47.14,186.57,47.22,187.15,47.56,187.57L47.56,187.57z"/>
		</g>
	</g>
</g>
<g>
	<g>
		<g>
			<path d="M170.83,63.66c0.15-0.23,0.39-0.36,0.7-0.38c0.2,0.04,0.26,0.05,0.16,0.02c0.09,0.02,0.17,0.06,0.23,0.12
				c0.08,0.06,0.09,0.07,0.04,0.02c0.11,0.15,0.13,0.18,0.08,0.1c0.05,0.08,0.08,0.16,0.08,0.25c0.02,0.09,0.01,0.18-0.02,0.27
				c-0.08,0.16-0.09,0.19-0.04,0.1c-0.11,0.13-0.12,0.16-0.05,0.08c-0.04,0.03-0.08,0.06-0.12,0.09c0.03-0.02,0.06-0.04,0.1-0.05
				c-0.15,0.06-0.18,0.08-0.08,0.04c0.13-0.03,0.26-0.06,0.4-0.08c-0.42-0.32-0.84-0.64-1.27-0.96c0.03-0.33,0.04-0.2,0.01-0.11
				c0.1-0.28,0.1-0.21,0.06-0.14c-0.08,0.14,0.18-0.2,0.07-0.09c-0.1,0.09,0.12-0.1,0.12-0.09c0,0.02-0.08,0.04-0.09,0.05
				c0.2-0.18,0.22-0.07,0.13-0.06c-0.03,0-0.09,0.01-0.11,0.03c0.2-0.09,0.24-0.01,0.11-0.02c-0.02,0-0.1,0.01-0.12,0
				c-0.02-0.01,0.29,0.07,0.14,0.02c-0.05-0.02-0.14-0.06-0.2-0.06c0.17,0,0.22,0.11,0.09,0.03c-0.02-0.01-0.05-0.04-0.07-0.04
				c0.15,0.02,0.18,0.17,0.08,0.05c-0.1-0.12,0.14,0.22,0.06,0.08c-0.12-0.2,0.08,0.25,0.01,0.02c-0.06-0.19,0,0.18,0.01,0.05
				c0.02-0.16,0.04-0.04-0.02,0.06c0.02-0.03,0.02-0.1,0.03-0.14c0.05-0.18,0.04,0.03-0.02,0.05c0.02-0.01,0.06-0.11,0.08-0.13
				c0.13-0.21-0.12,0.12,0.01-0.02c0.03-0.03,0.06-0.06,0.09-0.09c0.02-0.01,0.03-0.03,0.05-0.04c0.08-0.07,0.06-0.06-0.05,0.04
				c0.09-0.03,0.19-0.12,0.27-0.16c0.19-0.11-0.16,0.05-0.03,0.01c0.05-0.01,0.1-0.03,0.15-0.05c0.05-0.01,0.11-0.02,0.16-0.03
				c0.08-0.01,0.05-0.01-0.08,0.01c0.05,0,0.1-0.01,0.15-0.01c0.01,0,0.14-0.01,0.15,0.01c-0.04-0.01-0.08-0.01-0.11-0.02
				c0.05,0.01,0.1,0.02,0.15,0.03c0.18,0.03-0.01,0-0.05-0.03c0.03,0.03,0.08,0.04,0.12,0.06c0.21,0.13-0.17-0.16,0.01,0.01
				c0.02,0.02,0.04,0.04,0.06,0.06c0.11,0.11-0.15-0.23-0.03-0.03c0.01,0.03,0.03,0.05,0.04,0.08c0.09,0.15-0.08-0.25-0.03-0.08
				c0.02,0.07,0.05,0.14,0.06,0.22c0.05,0.24-0.01-0.25,0,0.01c0,0.09-0.01,0.17-0.01,0.26c0,0.13,0.05-0.28,0.01-0.1
				c-0.01,0.04-0.01,0.08-0.02,0.12c-0.02,0.08-0.05,0.15-0.07,0.22c-0.03,0.12,0.12-0.24,0.04-0.09c-0.02,0.03-0.03,0.07-0.05,0.1
				c-0.02,0.03-0.04,0.07-0.06,0.1c-0.1,0.15-0.01-0.01,0.05-0.05c-0.06,0.04-0.11,0.11-0.16,0.16c-0.13,0.13,0.21-0.13,0.06-0.04
				c-0.03,0.02-0.05,0.03-0.08,0.05c-0.12,0.07-0.11,0,0.05-0.01c-0.03,0-0.08,0.03-0.11,0.04c-0.05,0.02-0.11,0.03-0.17,0.04
				c-0.19,0.06,0.24-0.01,0.04,0c-0.1,0-0.19,0.01-0.28,0c-0.02,0-0.04,0-0.06,0c-0.11-0.01-0.08-0.01,0.1,0.01
				c-0.02-0.01-0.09-0.02-0.11-0.02c-0.09-0.02-0.19-0.05-0.28-0.08c-0.2-0.07,0.21,0.11,0.02,0.01c-0.05-0.03-0.11-0.05-0.16-0.08
				c-0.09-0.05-0.17-0.1-0.25-0.16c-0.17-0.11,0.14,0.12,0.04,0.03c-0.04-0.03-0.08-0.06-0.11-0.1c-0.07-0.07-0.14-0.14-0.21-0.22
				c-0.14-0.15,0.1,0.15,0.03,0.04c-0.04-0.06-0.08-0.11-0.11-0.17c-0.02-0.03-0.04-0.07-0.06-0.1c-0.03-0.06-0.14-0.19-0.01,0
				c-0.03-0.05-0.03-0.12-0.06-0.18c-0.05-0.12-0.01,0.23,0.01,0.01c-0.02,0.28-0.03,0.16,0,0.08c0.04-0.12-0.12,0.23-0.03,0.07
				c0.09-0.16-0.14,0.12-0.04,0.05c0.02-0.02,0.04-0.04,0.06-0.06c0.08-0.07,0.05-0.05-0.07,0.05c0.05-0.01,0.22-0.11,0.25-0.14
				c-0.13,0.11-0.17,0.06-0.07,0.04c0.06-0.01,0.11-0.03,0.17-0.05c0.03-0.01,0.09-0.01,0.12-0.02c-0.05,0.01-0.1,0.01-0.15,0.02
				c0.04,0,0.08-0.01,0.12-0.01c0.04,0,0.08,0,0.13,0c0.04,0,0.08,0,0.13,0.01c0.11,0.01,0.08,0.01-0.08-0.01
				c0.07,0.05,0.23,0.04,0.31,0.07c0.04,0.01,0.08,0.03,0.12,0.04c0.21,0.07-0.2-0.11-0.01,0c0.09,0.05,0.18,0.1,0.27,0.15
				c0.12,0.07-0.06,0.01-0.06-0.04c0,0.02,0.13,0.13,0.16,0.15c0.13,0.14-0.04,0.02-0.02-0.04c0,0.01,0.07,0.11,0.08,0.13
				c0.02,0.04,0.04,0.09,0.06,0.12c-0.13-0.18-0.06-0.17-0.04-0.06c0.01,0.04,0.02,0.09,0.03,0.13c0.05,0.19,0-0.2-0.01-0.08
				c0,0.04,0,0.09,0,0.13c0,0.04,0,0.07-0.01,0.11c0.01-0.05,0.02-0.11,0.02-0.16c-0.03,0.08-0.04,0.18-0.06,0.26
				c-0.05,0.19,0.12-0.21,0.02-0.04c-0.02,0.03-0.03,0.06-0.05,0.09c-0.01,0.01-0.02,0.03-0.03,0.04c-0.06,0.08-0.04,0.06,0.06-0.08
				c-0.02,0.01-0.06,0.06-0.07,0.07c-0.12,0.14,0.2-0.12,0.04-0.03c-0.04,0.02-0.11,0.05-0.14,0.08c0.05-0.02,0.09-0.04,0.14-0.06
				c-0.03,0.01-0.07,0.02-0.1,0.03c0.02-0.02,0.26-0.01,0.11-0.02c-0.02,0-0.04,0-0.05,0c-0.11-0.01-0.07,0,0.11,0.02
				c-0.02-0.01-0.09-0.02-0.1-0.03c-0.19-0.04,0.2,0.12,0.04,0.02c-0.03-0.02-0.06-0.04-0.09-0.05c-0.17-0.09,0.16,0.17,0.03,0.03
				c-0.03-0.03-0.07-0.09-0.11-0.12c0.13,0.08,0.12,0.17,0.05,0.05c-0.11-0.19,0.04,0.2,0.01,0.03c-0.03-0.16,0.01,0.11,0.01,0.12
				c0-0.03,0-0.07,0-0.1c-0.03,0.18-0.03,0.22-0.01,0.11c0.01-0.03,0.03-0.07,0.03-0.1c-0.08,0.17-0.09,0.21-0.04,0.12
				c0.04-0.06,0.03-0.05-0.03,0.03c-0.12,0.15-0.02,0.03,0.01,0.01c0.12-0.12-0.23,0.15-0.05,0.04c0.09-0.05,0.13-0.02-0.1,0.04
				c0.04-0.01,0.08-0.03,0.13-0.04c0.11-0.03,0.17,0.02-0.09,0.01c0.04,0,0.09-0.01,0.14-0.01c0.04,0,0.1,0.01,0.14,0.01
				c-0.08,0.01-0.26-0.05-0.08,0c0.04,0.01,0.08,0.02,0.11,0.03c0.21,0.05-0.19-0.11-0.04-0.02c0.03,0.02,0.06,0.03,0.08,0.04
				c0.03,0.02,0.05,0.03,0.08,0.05c0.08,0.06,0.05,0.04-0.09-0.07c0.02,0.02,0.05,0.05,0.07,0.06c0.02,0.02,0.04,0.05,0.06,0.07
				c-0.1-0.14-0.13-0.17-0.09-0.11c0.01,0.04,0.05,0.09,0.07,0.12c0.1,0.18-0.04-0.17,0,0.01c0,0.01,0.06,0.19,0.05,0.2
				c-0.02-0.14-0.02-0.18-0.01-0.1c0,0.03,0.01,0.07,0.01,0.1c0,0.07,0,0.14,0,0.2c0,0.02,0,0.05,0,0.07
				c-0.01,0.11-0.01,0.09,0.01-0.06c0.03,0.04-0.09,0.36-0.1,0.41c-0.01,0.05-0.03,0.09-0.05,0.13c-0.02,0.04-0.03,0.09-0.05,0.13
				c0.05-0.13,0.06-0.14,0.01-0.04c-0.07,0.12-0.13,0.25-0.2,0.37c0.46-0.12,0.91-0.24,1.37-0.36c-0.11-0.08,0.04,0.02,0.06,0.05
				c-0.02-0.03-0.08-0.07-0.11-0.1c-0.03-0.03-0.05-0.06-0.08-0.09c-0.08-0.08,0.11,0.17,0.05,0.06c-0.04-0.07-0.08-0.17-0.13-0.23
				c0.02,0.03,0.07,0.21,0.04,0.08c-0.01-0.05-0.03-0.09-0.04-0.14c-0.01-0.04-0.01-0.08-0.02-0.11c-0.03-0.12,0.01,0.21,0.01,0.09
				c0-0.09,0-0.17,0-0.26c0.01-0.14,0,0.06-0.01,0.09c0.02-0.03,0.02-0.08,0.03-0.11c0.01-0.05,0.03-0.09,0.04-0.14
				c0.03-0.11-0.11,0.23-0.02,0.05c0.24-0.46,0.14-1.11-0.36-1.37c-0.46-0.24-1.11-0.14-1.37,0.36c-0.64,1.23-0.24,2.71,0.9,3.49
				c0.45,0.3,1.11,0.08,1.37-0.36c0.39-0.66,0.69-1.45,0.65-2.23c-0.04-0.83-0.39-1.59-1.1-2.04c-0.54-0.34-1.3-0.46-1.91-0.27
				c-0.75,0.24-1.35,0.91-1.33,1.73c0.01,0.84,0.57,1.53,1.33,1.85c0.76,0.32,1.66,0.14,2.23-0.47c0.55-0.6,0.73-1.4,0.59-2.19
				c-0.13-0.73-0.67-1.38-1.31-1.73c-0.69-0.38-1.5-0.5-2.27-0.36c-0.77,0.14-1.52,0.7-1.73,1.48c-0.23,0.86,0.24,1.73,0.81,2.35
				c0.45,0.49,1.09,0.88,1.75,1.02c0.71,0.16,1.52,0.1,2.15-0.3c0.55-0.35,0.94-0.9,1.12-1.52c0.37-1.27-0.21-2.78-1.57-3.13
				c-1.71-0.44-3.78,0.95-3.42,2.84c0.26,1.38,2.24,1.9,3.21,0.94c0.3-0.3,0.42-0.66,0.45-1.07c0.03-0.31-0.16-0.61-0.39-0.79
				c-0.27-0.21-0.54-0.23-0.87-0.18c-0.42,0.06-0.81,0.21-1.14,0.48c-0.4,0.33-0.6,0.87-0.47,1.38c0.26,1.07,1.8,1.54,2.4,0.47
				c0.26-0.46,0.13-1.11-0.36-1.37C171.73,63.06,171.1,63.18,170.83,63.66L170.83,63.66z"/>
		</g>
	</g>
	<g>
		<g>
			<g>
				<path d="M179.01,65.61c-1.62,2.47-2.87,5.37-3.25,8.31c-0.16,1.26-0.03,2.63,0.88,3.59c0.8,0.84,1.99,1.17,3.06,0.68
					c0.58-0.27,0.08-1.13-0.5-0.86c-0.93,0.43-1.94-0.37-2.28-1.21c-0.44-1.11-0.16-2.38,0.11-3.49c0.57-2.32,1.54-4.52,2.85-6.51
					C180.23,65.57,179.36,65.07,179.01,65.61L179.01,65.61z"/>
			</g>
		</g>
		<g>
			<g>
				<path d="M181.91,68.99c-0.41,2.27-0.57,4.58-0.43,6.88c0.04,0.64,1.04,0.64,1,0c-0.13-2.21,0-4.43,0.4-6.62
					C182.99,68.63,182.02,68.36,181.91,68.99L181.91,68.99z"/>
			</g>
		</g>
		<g>
			<g>
				<path d="M185.23,75.96c-0.86,1.64-1.72,3.27-2.58,4.91c-0.3,0.57,0.56,1.08,0.86,0.5c0.86-1.64,1.72-3.27,2.58-4.91
					C186.39,75.9,185.53,75.39,185.23,75.96L185.23,75.96z"/>
			</g>
		</g>
		<g>
			<g>
				<path d="M188.53,68.59c-0.38,1.9-0.48,3.85-0.28,5.78c0.03,0.27,0.21,0.5,0.5,0.5c0.25,0,0.53-0.23,0.5-0.5
					c-0.19-1.84-0.12-3.7,0.24-5.51C189.62,68.23,188.66,67.96,188.53,68.59L188.53,68.59z"/>
			</g>
		</g>
		<g>
			<g>
				<path d="M190.47,67.38c0.71,2.04,1.1,4.16,1.12,6.32c0.01,1.05-0.06,2.11-0.23,3.15c-0.1,0.62-0.31,1.84-1.12,1.88
					c-0.64,0.03-0.64,1.03,0,1c2.2-0.11,2.25-3.36,2.33-4.93c0.12-2.61-0.28-5.23-1.14-7.69C191.22,66.51,190.26,66.77,190.47,67.38
					L190.47,67.38z"/>
			</g>
		</g>
	</g>
</g>
<g>
	<g>
		<g>
			<g>
				<path d="M92.76,144.27c-2.03,2.12-3.13,5.05-3.03,7.98c0.05,1.33,0.27,2.91,0.99,4.06c0.62,0.99,1.97,1.93,3.01,0.95
					c0.47-0.44-0.24-1.15-0.71-0.71c-0.39,0.37-0.94-0.13-1.21-0.44c-0.39-0.44-0.57-1.02-0.73-1.57c-0.31-1.1-0.42-2.24-0.34-3.38
					c0.16-2.3,1.12-4.52,2.72-6.18C93.91,144.51,93.21,143.8,92.76,144.27L92.76,144.27z"/>
			</g>
		</g>
		<g>
			<g>
				<path d="M96.56,145.96c0.08,2.75,0.16,5.5,0.25,8.25c0.02,0.64,1.02,0.64,1,0c-0.08-2.75-0.16-5.5-0.25-8.25
					C97.54,145.32,96.54,145.32,96.56,145.96L96.56,145.96z"/>
			</g>
		</g>
		<g>
			<g>
				<path d="M100,152.59c-0.58,1.77-1.15,3.54-1.73,5.3c-0.2,0.61,0.77,0.88,0.96,0.27c0.58-1.77,1.15-3.54,1.73-5.3
					C101.17,152.25,100.2,151.98,100,152.59L100,152.59z"/>
			</g>
		</g>
		<g>
			<g>
				<path d="M107.22,145.46c0,3.13,0,6.26,0,9.39c0,0.64,1,0.64,1,0c0-3.13,0-6.26,0-9.39
					C108.22,144.82,107.22,144.81,107.22,145.46L107.22,145.46z"/>
			</g>
		</g>
		<g>
			<g>
				<path d="M109.52,143.47c0.83,2.43,1.65,4.96,1.47,7.56c-0.15,2.19-1.07,4.25-2.77,5.67c-0.49,0.41,0.22,1.12,0.71,0.71
					c1.8-1.5,2.79-3.69,3.03-6c0.29-2.8-0.58-5.58-1.47-8.2C110.27,142.59,109.31,142.85,109.52,143.47L109.52,143.47z"/>
			</g>
		</g>
		<g>
			<g>
				<path d="M92.57,150.92c0.63-0.25,1.25-0.5,1.88-0.75c0.13-0.05,0.23-0.11,0.3-0.23c0.06-0.11,0.09-0.27,0.05-0.39
					c-0.08-0.23-0.35-0.45-0.62-0.35c-0.63,0.25-1.25,0.5-1.88,0.75c-0.13,0.05-0.23,0.11-0.3,0.23c-0.06,0.11-0.09,0.27-0.05,0.39
					C92.03,150.81,92.31,151.03,92.57,150.92L92.57,150.92z"/>
			</g>
		</g>
		<g>
			<g>
				<path d="M103.1,151.09c0.63-0.25,1.25-0.5,1.88-0.75c0.13-0.05,0.23-0.11,0.3-0.23c0.06-0.11,0.09-0.27,0.05-0.39
					c-0.08-0.23-0.35-0.45-0.62-0.35c-0.63,0.25-1.25,0.5-1.88,0.75c-0.13,0.05-0.23,0.11-0.3,0.23c-0.06,0.11-0.09,0.27-0.05,0.39
					C102.56,150.98,102.84,151.2,103.1,151.09L103.1,151.09z"/>
			</g>
		</g>
	</g>
	<g>
		<g>
			<path d="M116.5,157.33C116.4,157.51,116.66,157.18,116.5,157.33c0.08-0.08,0.15-0.11,0.24-0.15c-0.05,0.02-0.29,0.07,0.03,0.01
				c-0.03,0.01-0.23,0.02-0.06,0.01c0.13-0.01,0.01,0-0.05-0.03c0.04,0.02,0.08,0.03,0.12,0.05c-0.07-0.04-0.07-0.04,0,0.01
				c0.07,0.06,0.07,0.06,0.01,0c0.03,0.04,0.05,0.07,0.08,0.11c-0.09-0.14,0.03,0.19,0.04,0.22c-0.17,0.29-0.33,0.58-0.5,0.86
				c0.08-0.06,0.16-0.11,0.25-0.16c-0.12,0.06,0.02,0,0.08-0.02c0.05-0.01,0.24-0.02,0.07-0.02c0.05,0,0.31,0.03,0.12,0
				c1.01,0.18,1.62-0.88,0.97-1.67c0.08,0.11,0.09,0.12,0.03,0.03c0.02,0.04,0.03,0.07,0.05,0.11c-0.02-0.04-0.03-0.09-0.04-0.13
				c0.01,0.14,0.02,0.17,0.02,0.09c0-0.03,0-0.07,0-0.1c-0.02,0.14-0.03,0.17-0.01,0.09c0.02-0.05,0.05-0.15,0.06-0.21
				c0.03-0.07,0.02-0.05-0.03,0.07c0.02-0.04,0.05-0.08,0.07-0.12c0.09-0.17-0.13,0.12,0.02-0.02c0.14-0.13-0.17,0.06,0.02-0.02
				c0.18-0.08-0.2,0.03,0.01-0.01c0.2-0.04-0.21,0.05,0.01,0c0.19-0.05-0.17-0.03,0.01,0.01c-0.2-0.04-0.1-0.02,0,0.02
				c-0.16-0.07-0.1-0.06,0,0.02c-0.17-0.14-0.05-0.07,0,0.01c0.07,0.13,0.04,0.14,0.01,0.01c0,0.01,0.06,0.19,0.05,0.2
				c-0.02-0.15-0.02-0.17-0.01-0.06c0,0.03,0,0.07,0,0.1c0,0.08,0,0.05,0.02-0.1c-0.01,0.03-0.01,0.07-0.02,0.1
				c-0.07,0.22,0.04-0.08,0,0c-0.08,0.19,0.04-0.04,0,0.01c-0.05,0.05-0.03,0.03,0.06-0.04c-0.04,0.03-0.08,0.05-0.13,0.07
				c0.2-0.11,0.01,0.03-0.03-0.01c0.04-0.01,0.09-0.01,0.13-0.02c-0.05,0-0.09,0-0.14,0c0.01,0.03,0.23,0.04-0.01-0.02
				c-0.2-0.05,0.15,0.1-0.03-0.02c-0.04-0.03-0.23-0.17-0.05-0.01c-0.06-0.05-0.12-0.1-0.17-0.16c-0.06-0.06-0.15-0.18-0.05-0.04
				c-0.05-0.07-0.09-0.13-0.13-0.2c-0.05-0.08-0.09-0.21-0.04-0.05c-0.03-0.07-0.04-0.15-0.07-0.23c-0.02-0.11-0.02-0.1-0.01,0.03
				c0-0.04-0.01-0.08-0.01-0.12c0-0.09,0-0.18,0.01-0.27c-0.05,0.17-0.09,0.34-0.14,0.5c-0.14,0.2-0.06,0.06-0.01,0.02
				c0.1-0.07-0.18,0.11-0.03,0.02c0.15-0.08-0.15,0.02-0.04,0.01c0.02,0,0.14-0.05,0.15-0.04c0.01,0.01-0.25,0-0.08,0.02
				c0.04,0,0.12,0.01,0.16,0c0.11-0.01-0.21-0.06-0.04,0c0.05,0.02,0.11,0.04,0.16,0.05c0.11,0.01-0.2-0.11-0.02-0.01
				c0.04,0.02,0.08,0.04,0.12,0.06c0.08,0.05,0.17,0.16,0.02,0c0.03,0.03,0.07,0.06,0.1,0.09c0.02,0.02,0.14,0.18,0.05,0.05
				c-0.09-0.13,0.01,0.03,0.03,0.06c0.1,0.15-0.05-0.14-0.01-0.03c0.07,0.18-0.03-0.04,0.01-0.04c0,0,0,0.13,0,0.14
				c0.01,0.2,0.04-0.08,0,0c-0.03,0.05-0.03,0.12-0.05,0.18c0.04-0.12,0.05-0.11-0.01-0.01c-0.04,0.06-0.14,0.14,0,0.01
				c-0.05,0.04-0.09,0.09-0.13,0.13c-0.05,0.05-0.18,0.1,0,0.01c-0.04,0.02-0.09,0.06-0.13,0.08c-0.05,0.03-0.12,0.06-0.17,0.09
				c-0.09,0.06,0.16-0.04-0.01,0c-0.06,0.01-0.13,0.03-0.19,0.05c-0.08,0.02-0.2-0.01,0,0c-0.05,0-0.1,0.01-0.16,0.01
				c-0.01,0-0.26-0.01-0.1,0c0.15,0.01-0.06-0.02-0.09-0.02c-0.06-0.02-0.27-0.11-0.05-0.01c0.17,0.29,0.33,0.58,0.5,0.86
				c-0.01-0.15-0.01-0.29,0-0.44c0-0.02,0.02-0.21,0.01-0.11c-0.01,0.1,0.02-0.09,0.02-0.11c0.03-0.14,0.06-0.29,0.11-0.43
				c0.02-0.06,0.04-0.12,0.06-0.18c0.06-0.16-0.01,0.02,0.03-0.08c0.06-0.12,0.12-0.23,0.18-0.34c0.04-0.07,0.09-0.14,0.13-0.2
				c0.03-0.05,0.09-0.11,0.02-0.03c0.18-0.23,0.4-0.43,0.63-0.61c-0.56-0.15-1.11-0.29-1.67-0.44c0.04,0.11,0.07,0.21,0.09,0.33
				c-0.05-0.24-0.01,0.1-0.01,0.15c-0.01,0.12-0.01,0.11,0.01-0.01c-0.01,0.06-0.02,0.11-0.03,0.17c-0.01,0.03-0.1,0.32-0.05,0.2
				c0.04-0.11-0.08,0.16-0.1,0.19c-0.03,0.05-0.06,0.1-0.09,0.14c0.07-0.09,0.07-0.09,0,0c-0.03,0.03-0.3,0.25-0.11,0.12
				c-0.09,0.07-0.19,0.12-0.29,0.17c0.4,0.05,0.81,0.1,1.21,0.16c-0.07-0.06-0.14-0.13-0.2-0.19c-0.07-0.08-0.06-0.07,0.03,0.04
				c-0.03-0.04-0.05-0.08-0.07-0.11c-0.03-0.06-0.06-0.12-0.09-0.18c0.12,0.26,0.01-0.02-0.01-0.08c-0.01-0.04-0.02-0.09-0.03-0.13
				c-0.02-0.11-0.02-0.09,0.01,0.06c-0.02-0.01-0.01-0.19-0.01-0.21c0-0.09,0.01-0.19,0.02-0.28c-0.02,0.28,0,0.02,0.02-0.05
				c0.02-0.08,0.05-0.16,0.07-0.24c0.04-0.1,0.03-0.09-0.02,0.04c0.02-0.04,0.04-0.08,0.06-0.13c0.03-0.06,0.07-0.12,0.1-0.18
				c0.02-0.04,0.05-0.08,0.08-0.11c-0.09,0.11-0.1,0.12-0.03,0.04c0.06-0.07,0.13-0.13,0.19-0.19c0.14-0.13-0.17,0.09,0.01-0.01
				c0.06-0.03,0.33-0.15,0.07-0.05c0.09-0.03,0.18-0.06,0.27-0.08c-0.32-0.09-0.65-0.17-0.97-0.26c0.08,0.08,0.07,0.08-0.01-0.02
				c0.05,0.1,0.05,0.09-0.01-0.04c0.02,0.09,0.03,0.09,0.01,0.01c-0.01-0.08-0.01-0.08,0,0.01c-0.01,0.11,0,0.1,0.02-0.04
				c-0.01,0.05-0.02,0.1-0.04,0.15c-0.03,0.19,0.09-0.12-0.02,0.06c-0.04,0.07-0.08,0.15-0.13,0.22c-0.07,0.09-0.07,0.09,0,0
				c-0.04,0.04-0.08,0.08-0.12,0.12c-0.03,0.03-0.23,0.17-0.06,0.06c-0.09,0.06-0.18,0.11-0.28,0.16c0.15-0.07,0.08-0.03-0.04,0
				c-0.04,0.01-0.31,0.05-0.16,0.04c0.16-0.01-0.14,0-0.17,0c-0.07,0-0.15-0.01-0.22-0.01c0.28,0.03-0.03-0.02-0.09-0.04
				c-0.08-0.02-0.23-0.13-0.02,0c-0.02-0.01-0.26-0.16-0.13-0.06c0.13,0.09-0.06-0.07-0.09-0.1c0.09,0.12,0.11,0.13,0.05,0.04
				c0.02,0.04,0.03,0.08,0.05,0.12c-0.02-0.04-0.03-0.08-0.04-0.13c0.02,0.15,0.02,0.18,0.01,0.06c0.01-0.1,0-0.1,0-0.02
				c-0.01,0.08-0.01,0.08,0.01-0.01c-0.06,0.12-0.06,0.14-0.01,0.04c0.05-0.08,0.05-0.08,0.01-0.02c-0.12,0.13,0.26-0.15,0,0
				c0.07-0.04,0.13-0.08,0.2-0.12c-0.22,0.11,0.09-0.01,0.14-0.02c-0.18,0.07-0.05,0,0.06,0c0.05,0,0.11,0,0.16,0.01
				c-0.13-0.02-0.14-0.02-0.03,0c0.04,0.02,0.27,0.11,0.11,0.03c0.1,0.05,0.2,0.1,0.29,0.17c0.04,0.03,0.08,0.05,0.12,0.08
				c-0.08-0.06-0.07-0.05,0.02,0.03c0.16,0.16,0.32,0.32,0.47,0.5c0.02,0.02,0.19,0.24,0.09,0.11c0.08,0.1,0.16,0.21,0.23,0.32
				c0-0.34,0-0.67,0-1.01c-0.04,0.07-0.08,0.13-0.13,0.2c-0.06,0.09,0.07-0.07-0.04,0.06c-0.1,0.12-0.21,0.23-0.32,0.34
				c-0.02,0.01-0.2,0.17-0.11,0.1c0.08-0.06-0.13,0.09-0.13,0.09c-0.13,0.09-0.27,0.17-0.41,0.24c-0.06,0.03-0.11,0.06-0.17,0.08
				c0.18-0.08-0.1,0.03-0.11,0.04c-0.13,0.04-0.27,0.08-0.41,0.11c-0.08,0.02-0.15,0.03-0.23,0.04c0.19-0.02-0.02-0.01-0.06,0
				c-0.17,0.01-0.34,0-0.52-0.01c0.33,0.33,0.67,0.67,1,1c-0.02-0.13-0.02-0.26-0.02-0.39c0-0.22-0.06,0.11,0,0
				c0.03-0.05,0.03-0.13,0.05-0.18c0.01-0.05,0.03-0.1,0.05-0.14c-0.08,0.21-0.02,0.05,0.01,0c0.03-0.05,0.06-0.11,0.1-0.17
				c0.03-0.05,0.18-0.2,0.03-0.05c0.09-0.09,0.18-0.19,0.27-0.28c0.03-0.03,0.15-0.12-0.02,0.01c0.05-0.04,0.11-0.08,0.16-0.11
				c0.1-0.06,0.2-0.12,0.31-0.17c0.22-0.12-0.19,0.04,0.05-0.02c0.08-0.02,0.15-0.05,0.22-0.06c0.05-0.01,0.1-0.02,0.15-0.03
				c-0.23,0.05-0.07,0.01,0,0.01c0.11,0,0.23,0,0.34,0.01c-0.27-0.03,0.11,0.05,0.18,0.07c-0.18-0.05-0.08-0.04-0.02-0.01
				c0.07,0.04,0.14,0.1,0.22,0.13c0.11,0.05-0.16-0.16-0.01-0.01c0.03,0.03,0.07,0.06,0.1,0.1c0.05,0.05,0.15,0.22,0.02,0.01
				c0.02,0.04,0.05,0.07,0.07,0.11c0.04,0.07,0.17,0.39,0.08,0.13c0.04,0.11,0.07,0.22,0.1,0.33c0.01,0.04,0.05,0.16,0.04,0.2
				c0,0-0.02-0.26-0.01-0.06c0,0.12,0.01,0.23,0,0.35c0,0.05-0.01,0.09-0.01,0.14c0.01-0.25,0.02-0.09,0-0.02
				c-0.03,0.12-0.07,0.25-0.1,0.37c-0.06,0.21,0.08-0.13,0.01-0.01c-0.03,0.05-0.05,0.1-0.08,0.15c-0.02,0.04-0.05,0.08-0.07,0.12
				c-0.01,0.02-0.14,0.2-0.04,0.07c0.1-0.13-0.04,0.04-0.05,0.05c-0.03,0.03-0.06,0.06-0.1,0.1c-0.05,0.05-0.22,0.14-0.01,0.01
				c-0.06,0.04-0.11,0.08-0.18,0.11c-0.04,0.02-0.08,0.04-0.13,0.06c0.19-0.08-0.03,0-0.08,0.01c-0.04,0.01-0.26,0.04-0.1,0.02
				c-0.14,0.02-0.13,0.01-0.05,0.02c-0.05,0-0.31-0.12-0.13-0.02c-0.04-0.02-0.08-0.05-0.12-0.07c0.15,0.08,0.1,0.08,0.04,0.03
				c-0.14-0.14,0.1,0.18-0.03-0.04c-0.04-0.08-0.05-0.19,0,0.03c-0.01-0.04-0.03-0.09-0.04-0.13c-0.02-0.08-0.01-0.27-0.01-0.01
				c0-0.05-0.01-0.1-0.01-0.14c0-0.05,0-0.1,0-0.15c-0.01-0.24-0.05,0.21,0-0.03c0.03-0.13,0.06-0.25,0.1-0.38
				c0.01-0.04,0.12-0.28,0.01-0.06c0.03-0.07,0.07-0.14,0.11-0.21c0.06-0.11,0.13-0.22,0.21-0.33c-0.14,0.2,0.01,0,0.04-0.03
				c0.07-0.07,0.14-0.15,0.22-0.21c0.05-0.05,0.1-0.09,0.15-0.14c0.01-0.01,0.24-0.19,0.12-0.1c0.16-0.12,0.34-0.23,0.51-0.33
				c0.06-0.03,0.12-0.06,0.18-0.1c0.06-0.03,0.12-0.06,0.18-0.09c-0.07,0.03-0.07,0.03,0,0c0.17-0.07,0.35-0.13,0.53-0.18
				c0.07-0.02,0.13-0.03,0.2-0.05c0.03-0.01,0.41-0.08,0.23-0.05c-0.29-0.17-0.58-0.33-0.86-0.5c0.14,0.3-0.06-0.17,0.06,0.14
				c0.04,0.1,0.07,0.2,0.11,0.29c0.07,0.2,0.12,0.4,0.16,0.61c0,0,0.06,0.34,0.03,0.14c0.01,0.1,0.02,0.21,0.02,0.31
				c0,0.1,0,0.2,0,0.31c0,0.07-0.01,0.13-0.01,0.2c0.02-0.1,0.01-0.09-0.01,0.03c-0.02,0.1-0.04,0.2-0.07,0.29
				c0,0.01-0.12,0.3-0.04,0.14c-0.04,0.09-0.1,0.18-0.15,0.27c-0.09,0.21,0.13-0.12-0.03,0.04c-0.05,0.05-0.11,0.11-0.16,0.16
				c-0.16,0.17,0.17-0.09-0.04,0.03c-0.07,0.04-0.13,0.08-0.2,0.12c-0.05,0.02-0.09,0.05-0.14,0.07c0.11-0.04,0.13-0.05,0.06-0.03
				c-0.13,0.01-0.28,0.08-0.41,0.11c0.26-0.05,0.03-0.01-0.04,0c-0.07,0-0.15,0-0.22,0c-0.24,0,0.2,0.07-0.02-0.01
				c-0.07-0.02-0.14-0.04-0.21-0.06c0.24,0.08,0.04,0-0.02-0.02c-0.09-0.06-0.08-0.05,0.03,0.03c-0.04-0.03-0.07-0.06-0.11-0.1
				c-0.16-0.13,0.07,0.16-0.03-0.03c-0.03-0.07-0.08-0.26-0.03-0.04c-0.01-0.06-0.05-0.29-0.03-0.03c-0.01-0.08,0-0.15-0.01-0.23
				c-0.01-0.23-0.07,0.18,0.01-0.04c0.03-0.07,0.04-0.15,0.07-0.22c-0.08,0.23,0.01,0,0.03-0.04c0.03-0.05,0.05-0.09,0.08-0.13
				c-0.08,0.1-0.08,0.1-0.01,0.02c0.04-0.03,0.08-0.07,0.11-0.11c0.15-0.17-0.16,0.07,0.04-0.03c0.04-0.02,0.27-0.13,0.04-0.04
				c0.07-0.03,0.15-0.04,0.22-0.07c-0.24,0.07-0.01,0.01,0.07,0.01c0.23-0.02-0.14-0.07,0.08,0.01c0.03,0.01,0.29,0.11,0.09,0.02
				c0.1,0.05,0.21,0.11,0.3,0.18c-0.17-0.13,0.05,0.06,0.06,0.08c0.02,0.02,0.18,0.25,0.07,0.07c0.05,0.08,0.09,0.15,0.14,0.23
				c0.12,0.21-0.01-0.15,0.03,0.09c0.01,0.03,0.06,0.32,0.03,0.08c0.01,0.09,0.01,0.18,0.01,0.27c0-0.22-0.01,0.03-0.02,0.08
				c-0.02,0.06-0.03,0.11-0.05,0.17c0.05-0.1,0.04-0.1-0.01,0c-0.04,0.06-0.07,0.13-0.11,0.19c-0.09,0.13,0.16-0.15-0.03,0.04
				c-0.06,0.06-0.13,0.13-0.19,0.19c-0.19,0.18,0.14-0.06-0.08,0.06c-0.08,0.04-0.16,0.09-0.23,0.13c-0.23,0.12,0.16-0.02-0.09,0.03
				c-0.09,0.02-0.17,0.05-0.26,0.07c0.22-0.05-0.12,0-0.18,0c-0.04,0-0.31-0.05-0.1,0c-0.09-0.02-0.18-0.05-0.26-0.07
				c-0.25-0.06,0.13,0.09-0.1-0.04c-0.08-0.04-0.16-0.09-0.24-0.13c-0.23-0.15-0.4-0.32-0.58-0.64c-0.01-0.02-0.13-0.29-0.06-0.09
				c-0.03-0.09-0.06-0.17-0.09-0.26c-0.01-0.02-0.06-0.32-0.04-0.11c-0.02-0.13-0.01-0.26-0.01-0.39c0-0.25-0.07,0.12,0.02-0.11
				c0.02-0.06,0.03-0.12,0.06-0.18c-0.04,0.1-0.03,0.09,0.02-0.01c0.02-0.03,0.03-0.05,0.05-0.08c-0.06,0.08-0.05,0.07,0.02,0
				c-0.1,0.07-0.1,0.07,0,0.01c0.1-0.05,0.1-0.05-0.01,0c0.07-0.02,0.29-0.03,0.06-0.03c0.05,0,0.11,0,0.16,0
				c-0.13-0.02-0.14-0.02-0.03,0.01c-0.03-0.01-0.06-0.03-0.09-0.04c0.09,0.06,0.09,0.05-0.01-0.02c-0.07-0.11-0.08-0.12-0.02-0.03
				c-0.05-0.14-0.06-0.15-0.03-0.05c-0.01-0.04-0.01-0.09-0.02-0.13c0,0.11,0,0.09,0.02-0.06c-0.01,0.05-0.02,0.09-0.04,0.13
				c0.06-0.13,0.06-0.15,0.01-0.05c0.03-0.03,0.05-0.06,0.08-0.09c-0.08,0.08-0.06,0.07,0.06-0.03c-0.09,0.05-0.07,0.04,0.06-0.02
				c0.16-0.01,0.18-0.02,0.07-0.02c-0.52-0.03-1.02,0.48-1,1c0.03,0.56,0.44,0.97,1,1c1.56,0.08,2.27-2.03,1.23-3.06
				c-0.52-0.51-1.31-0.65-2-0.45c-0.74,0.21-1.26,0.79-1.52,1.5c-0.45,1.26,0.1,2.78,1.07,3.64c1.07,0.93,2.49,1.18,3.78,0.55
				c1.22-0.61,1.95-1.99,1.65-3.34c-0.29-1.28-1.57-2.38-2.91-2.27c-1.34,0.11-2.35,1.23-2.47,2.54c-0.11,1.23,0.79,2.34,1.99,2.55
				c1.33,0.23,2.78-0.39,3.41-1.61c0.76-1.47,0.45-3.13-0.21-4.57c-0.13-0.28-0.55-0.54-0.86-0.5c-1.82,0.24-3.73,1.22-4.48,2.99
				c-0.3,0.71-0.44,1.58-0.15,2.31c0.39,1,1.35,1.59,2.42,1.44c1.68-0.23,2.77-1.78,2.69-3.43c-0.07-1.64-1.26-3.09-2.98-3.09
				c-1.83,0-3.72,1.68-3.48,3.6c0.07,0.57,0.4,0.95,1,1c1.74,0.14,3.46-0.8,4.36-2.27c0.17-0.28,0.2-0.73,0-1.01
				c-0.52-0.71-1.06-1.45-1.85-1.87c-0.81-0.43-1.71-0.46-2.54-0.06c-0.74,0.36-1.27,1.15-1.19,1.99c0.08,0.88,0.68,1.5,1.49,1.8
				c1.56,0.58,3.33-0.33,3.84-1.89c0.12-0.38,0.15-0.82,0.05-1.21c-0.14-0.56-0.58-1.19-1.22-1.19c-0.78,0-1.5,0.61-1.93,1.19
				c-0.9,1.22-0.88,3.22,0.33,4.24c0.36,0.31,0.78,0.37,1.21,0.16c1.31-0.65,2-2.34,1.51-3.71c-0.27-0.76-1.06-0.91-1.67-0.44
				c-1.18,0.92-1.85,2.46-1.77,3.94c0.02,0.33,0.17,0.71,0.5,0.86c0.88,0.4,1.79,0.38,2.66-0.04c0.82-0.4,1.41-1.25,1.45-2.17
				c0.08-1.75-2.13-3-3.62-2.12c-1.92,1.13-0.22,4.01,1.52,4.24c0.98,0.13,1.92-0.43,2.22-1.38c0.25-0.8-0.01-1.8-0.64-2.36
				c-0.82-0.74-2.07-0.69-2.82,0.14c-0.78,0.86-0.85,2.07-0.12,2.97c0.32-0.56,0.65-1.11,0.97-1.67c-0.72-0.13-1.46-0.04-2.06,0.4
				c-0.26,0.19-0.54,0.5-0.5,0.86c0.1,0.78,0.57,1.41,1.37,1.57c0.75,0.15,1.57-0.1,1.94-0.8c0.25-0.46,0.13-1.11-0.36-1.37
				C117.41,156.72,116.77,156.84,116.5,157.33L116.5,157.33z"/>
		</g>
	</g>
</g>
<g>
	<g>
		<g>
			<path d="M140.78,113.9c-0.15-0.3-0.03-0.65,0.24-0.87c-0.26-0.03-0.52-0.07-0.79-0.1c0.61,0.8,1.39,1.84,1.13,2.88
				c-0.1,0.39-0.3,0.75-0.66,0.92c-0.32,0.15-0.69,0.07-0.98-0.18c-0.74-0.61-0.62-1.59,0.01-2.23c0.61-0.62,1.7-1.04,2.54-0.67
				c0.17,0.07,0.36,0.22,0.42,0.32c0.06,0.09,0.1,0.17,0.11,0.21c0.01,0.03,0.02,0.07,0.03,0.1c0.01,0.02,0.04,0.2,0.03,0.13
				c0.04,0.37-0.05,0.69-0.28,0.92c-0.1,0.1-0.22,0.17-0.39,0.2c0.08-0.01-0.09,0.01-0.09,0.01c-0.05,0-0.09,0-0.14-0.01
				c-0.1-0.01,0.1,0.03-0.06-0.01c-0.07-0.02-0.15-0.04-0.21-0.07c-0.12-0.05-0.26-0.16-0.38-0.29c-0.04-0.04-0.07-0.09-0.11-0.17
				c-0.07-0.13,0.01,0.06-0.04-0.08c-0.01-0.02-0.04-0.19-0.04-0.14c-0.01-0.05-0.01-0.11,0-0.17c0,0.02-0.02,0.07,0.01-0.02
				c0.01-0.05,0.02-0.1,0.04-0.14c-0.04,0.09,0.03-0.05,0.04-0.05c0.07-0.12-0.06,0.06,0.04-0.05c0.02-0.02,0.04-0.05,0.07-0.07
				c0,0,0.12-0.1,0.05-0.05c0.05-0.04,0.11-0.07,0.17-0.1c0,0,0.15-0.07,0.06-0.03c0.03-0.01,0.06-0.02,0.09-0.03
				c0.05-0.01,0.1-0.03,0.14-0.04c0.15-0.03-0.09,0,0.06-0.01c0.08,0,0.16-0.01,0.24,0c-0.11-0.01,0.05,0.02,0.05,0.02
				c0.03,0.01,0.06,0.02,0.09,0.03c-0.05-0.02-0.04-0.02,0.01,0.01c-0.01,0,0.12,0.08,0.07,0.04c-0.05-0.04,0.07,0.06,0.06,0.05
				c0.07,0.07,0.1,0.11,0.14,0.21c0.04,0.1,0.05,0.32,0.02,0.45c-0.08,0.37-0.3,0.67-0.7,0.78c-0.46,0.13-0.98-0.02-1.35-0.32
				c-0.2-0.16-0.39-0.39-0.44-0.64c-0.02-0.11-0.02-0.21,0.03-0.32c-0.03,0.08,0,0.02,0.01,0c0.01-0.02,0.03-0.05,0.05-0.07
				c-0.04,0.05-0.04,0.05,0,0.01c0.1-0.09-0.08,0.06,0.02-0.02c0.02-0.01,0.05-0.03,0.07-0.04c-0.05,0.02-0.06,0.03-0.03,0.01
				c0.03-0.01,0.07-0.02,0.1-0.03c0.06-0.01,0.05-0.01-0.01,0c0.03,0,0.06,0,0.08,0c0.04,0,0.09,0,0.13,0
				c-0.11-0.01,0.02,0,0.04,0.01c0.04,0.01,0.09,0.02,0.13,0.03c0.02,0.01,0.19,0.07,0.1,0.03c0.09,0.04,0.17,0.09,0.25,0.14
				c0.12,0.08-0.06-0.06,0.05,0.04c0.05,0.04,0.09,0.09,0.13,0.13c0.06,0.07,0.02,0.03,0.01,0.01c0.04,0.05,0.07,0.1,0.1,0.16
				c0.07,0.12-0.02-0.09,0.02,0.05c0.01,0.02,0.05,0.2,0.03,0.09c0.17-0.17,0.33-0.33,0.5-0.5c-0.52,0.05-1.06-0.14-1.37-0.57
				c-0.16-0.22-0.44-0.32-0.68-0.18c-0.22,0.13-0.34,0.46-0.18,0.68c0.51,0.71,1.35,1.15,2.23,1.07c0.24-0.02,0.54-0.21,0.5-0.5
				c-0.08-0.6-0.41-1.08-0.92-1.39c-0.45-0.27-1.04-0.41-1.55-0.22c-0.67,0.24-0.95,0.93-0.81,1.6c0.17,0.78,0.86,1.36,1.58,1.63
				c0.67,0.25,1.5,0.2,2.08-0.23c0.54-0.4,0.88-1.09,0.82-1.76c-0.06-0.67-0.49-1.27-1.16-1.44c-0.57-0.15-1.2,0.01-1.66,0.37
				c-0.52,0.4-0.76,1.06-0.59,1.7c0.18,0.64,0.73,1.13,1.35,1.33c0.63,0.2,1.34,0.04,1.79-0.45c0.44-0.48,0.61-1.16,0.5-1.8
				c-0.26-1.57-2.08-1.94-3.38-1.48c-1.32,0.47-2.52,1.74-2.21,3.24c0.14,0.68,0.63,1.33,1.26,1.64c0.67,0.32,1.42,0.26,2-0.2
				c0.56-0.44,0.85-1.13,0.91-1.82c0.07-0.77-0.24-1.54-0.63-2.18c-0.2-0.34-0.44-0.65-0.68-0.97c-0.21-0.27-0.51-0.32-0.79-0.1
				c-0.62,0.5-0.74,1.39-0.4,2.08c0.12,0.24,0.46,0.31,0.68,0.18C140.85,114.44,140.9,114.15,140.78,113.9L140.78,113.9z"/>
		</g>
	</g>
	<g>
		<g>
			<g>
				<path d="M149.5,119.5c-1.91,2.06-2.94,4.84-2.88,7.65c0.03,1.34,0.28,2.74,0.86,3.96c0.25,0.52,0.69,1.03,1.32,1.01
					c0.57-0.02,1.06-0.46,1.04-1.04c-0.02-0.64-1.02-0.64-1,0c0.01,0.17-0.39-0.27-0.42-0.32c-0.13-0.23-0.22-0.5-0.3-0.75
					c-0.16-0.47-0.28-0.94-0.36-1.43c-0.17-0.99-0.18-2.02-0.05-3.02c0.27-1.99,1.14-3.87,2.5-5.35
					C150.64,119.73,149.94,119.02,149.5,119.5L149.5,119.5z"/>
			</g>
		</g>
		<g>
			<g>
				<path d="M152.85,122.7c-0.81,1.16-1.68,2.51-1.4,4c0.22,1.2,1.24,2.3,2.54,2.15c1.28-0.15,2.02-1.37,2.47-2.45
					c0.51-1.23,1.11-2.96,0.34-4.2c-0.67-1.08-2.41-1.51-3.2-0.34c-0.36,0.53,0.5,1.03,0.86,0.5c0.36-0.54,1.28-0.04,1.51,0.4
					c0.26,0.48,0.2,1.09,0.09,1.61c-0.12,0.54-0.3,1.08-0.5,1.6c-0.28,0.7-0.74,1.67-1.55,1.87c-0.85,0.2-1.45-0.62-1.58-1.36
					c-0.22-1.19,0.65-2.35,1.3-3.27C154.08,122.67,153.22,122.17,152.85,122.7L152.85,122.7z"/>
			</g>
		</g>
		<g>
			<g>
				<path d="M157.17,127.9c-0.15,0.49-0.28,0.98-0.43,1.46c-0.16,0.5-0.29,0.84-0.53,1.28c-0.11,0.2-0.2,0.51-0.12,0.75
					c0.12,0.37,0.58,0.51,0.87,0.22c0.19-0.19,0.26-0.48,0.38-0.71c0.12-0.23,0.07-0.55-0.18-0.68c-0.23-0.12-0.56-0.07-0.68,0.18
					c-0.06,0.11-0.1,0.22-0.15,0.33c-0.03,0.06-0.05,0.11-0.08,0.17c-0.01,0.02-0.03,0.04-0.04,0.06c-0.03,0.04-0.01,0.02,0.05-0.06
					c-0.06,0.06,0,0.03,0.19-0.11c0.09,0,0.18,0,0.27,0c0,0,0,0-0.01,0c0.07,0.04,0.15,0.09,0.22,0.13c0.01,0.01,0.12,0.35,0.13,0.3
					c0-0.02,0-0.04,0-0.06c0-0.02,0.01-0.04,0.01-0.06c0.01-0.04,0-0.02-0.01,0.04c-0.02,0.07-0.02,0.08,0,0.04
					c0.1-0.1,0.16-0.3,0.22-0.43c0.13-0.29,0.25-0.59,0.35-0.89c0.19-0.56,0.33-1.13,0.51-1.7c0.08-0.25-0.09-0.56-0.35-0.62
					C157.51,127.49,157.25,127.63,157.17,127.9L157.17,127.9z"/>
			</g>
		</g>
		<g>
			<g>
				<path d="M161.74,123.34c-1.15,0.37-1.53,1.64-1.24,2.73c0.15,0.56,0.47,1.07,0.94,1.41c0.55,0.4,1.28,0.48,1.93,0.37
					c2.97-0.51,4.31-5.04,1.73-6.85c-1.2-0.85-3.12-0.61-3.88,0.71c-0.32,0.56,0.54,1.06,0.86,0.5c0.43-0.74,1.45-0.88,2.18-0.55
					c0.97,0.43,1.29,1.62,1.17,2.6c-0.13,1.05-0.81,2.03-1.79,2.46c-0.44,0.19-0.95,0.24-1.4,0.08c-0.3-0.11-0.53-0.36-0.68-0.67
					c-0.16-0.32-0.22-0.77-0.15-1.09c0.05-0.22,0.08-0.33,0.22-0.5c0.06-0.08,0.23-0.19,0.36-0.23
					C162.61,124.11,162.35,123.14,161.74,123.34L161.74,123.34z"/>
			</g>
		</g>
		<g>
			<g>
				<path d="M168.05,120.06c1.76,2.97,1.99,6.65,0.65,9.83c-0.25,0.59,0.72,0.85,0.96,0.27c1.44-3.41,1.14-7.42-0.75-10.6
					C168.58,119,167.72,119.5,168.05,120.06L168.05,120.06z"/>
			</g>
		</g>
	</g>
</g>
</svg>
