<?xml version="1.0" encoding="utf-8"?>
<!-- Generator: Adobe Illustrator 23.1.1, SVG Export Plug-In . SVG Version: 6.00 Build 0)  -->
<svg version="1.1" id="Layer_1" xmlns="http://www.w3.org/2000/svg" xmlns:xlink="http://www.w3.org/1999/xlink" x="0px" y="0px"
	 viewBox="0 0 288 216" style="enable-background:new 0 0 288 216;" xml:space="preserve">
<style type="text/css">
	.st0{fill:#A7A9AC;}
	.st1{fill:none;stroke:#000000;stroke-miterlimit:10;}
	.st2{fill:#808285;}
	.st3{fill:#ED1C24;}
</style>
<g>
	<g>
		<g>
			<path class="st0" d="M242.24,129.32c4.23-3.48,8.34-7.09,12.33-10.84c0.46-0.44,0.92-0.87,1.38-1.31
				c0.45-0.43,1.02-0.88,1.18-1.52c0.31-1.27-0.95-2-1.87-2.55c-1.79-1.06-3.77-1.72-5.69-2.49c-2.05-0.82-4.04-1.82-5.42-3.6
				c-0.07,0.52-0.13,1.05-0.2,1.57c0.29-0.17,0.56-0.16,0.81,0.07c0.93,0.89,2.35-0.52,1.41-1.41c-0.89-0.84-2.18-1.02-3.24-0.38
				c-0.61,0.36-0.59,1.07-0.2,1.57c2.41,3.11,6.37,3.97,9.78,5.52c0.86,0.39,1.69,0.83,2.47,1.36c0.06,0.04,0.19,0.18,0.24,0.18
				c0.04,0-0.03-0.35-0.05-0.35c-0.1-0.02-0.56,0.55-0.64,0.62c-0.49,0.47-0.98,0.93-1.47,1.39c-1.85,1.74-3.73,3.45-5.64,5.13
				c-2.17,1.92-4.38,3.79-6.61,5.63C239.83,128.73,241.25,130.13,242.24,129.32L242.24,129.32z"/>
		</g>
	</g>
	<g>
		<g>
			<path class="st0" d="M23.97,101.68c-3.78,1.57-7.38,3.5-10.74,5.84c-0.79,0.55-1.71,1.1-2.39,1.78c-0.8,0.81-0.61,1.87,0.1,2.65
				c1.43,1.57,3.08,2.99,4.64,4.42c1.82,1.68,3.67,3.32,5.56,4.92c0.97,0.83,2.39-0.58,1.41-1.41c-1.88-1.61-3.74-3.25-5.56-4.92
				c-0.94-0.87-1.87-1.74-2.8-2.63c-0.4-0.39-0.81-0.78-1.21-1.17c-0.12-0.12-0.48-0.61-0.64-0.63c-0.1-0.15-0.13-0.1-0.1,0.18
				c0.08-0.08,0.16-0.15,0.26-0.22c1.8-1.45,3.81-2.69,5.81-3.84c1.99-1.15,4.06-2.17,6.19-3.06c0.5-0.21,0.85-0.66,0.7-1.23
				C25.07,101.91,24.47,101.47,23.97,101.68L23.97,101.68z"/>
		</g>
	</g>
	<g>
		<g>
			<path class="st0" d="M11.18,112.07c15.13,3.86,30.82,3.79,46.33,3.66c16.1-0.14,32.21-0.27,48.31-0.41
				c32.11-0.27,64.24-0.91,96.35-0.59c17.91,0.18,35.83,0.86,53.65,2.73c0.39,0.04,0.9-0.34,0.96-0.73
				c0.29-1.77-0.86-3.45-2.75-3.42c-1.29,0.02-1.29,2.02,0,2c0.47-0.01,0.9,0.36,0.82,0.89c0.32-0.24,0.64-0.49,0.96-0.73
				c-31.83-3.34-63.88-2.86-95.84-2.59c-32.04,0.27-64.09,0.54-96.13,0.82c-17.4,0.15-35.13,0.8-52.14-3.54
				C10.47,109.83,9.94,111.76,11.18,112.07L11.18,112.07z"/>
		</g>
	</g>
</g>
<g>
	<g>
		<g>
			<path class="st0" d="M132.66,38.31c1.64-4.9,3.62-9.69,5.94-14.31c0.57-1.13,1.15-2.25,1.76-3.36c0.27-0.5,0.55-1.01,0.84-1.5
				c0,0,0.26-0.41,0.27-0.4c-0.1,0.01-0.19,0.02-0.29,0.03c0.02,0.02,0.03,0.04,0.05,0.05c0.01,0.06,0.22,0.31,0.25,0.36
				c1.45,2.32,2.83,4.68,4.25,7.01c1.63,2.69,3.26,5.39,4.89,8.08c0.36,0.59,1.4,0.71,1.73,0c0.33-0.72,0.66-1.44,0.99-2.16
				c0.22-0.49,0.14-1.08-0.36-1.37c-0.43-0.25-1.14-0.13-1.37,0.36c-0.33,0.72-0.66,1.44-0.99,2.16c0.58,0,1.15,0,1.73,0
				c-1.59-2.62-3.18-5.24-4.76-7.87c-0.79-1.31-1.59-2.62-2.38-3.93c-0.75-1.23-1.43-2.57-2.29-3.73c-0.77-1.03-2.11-1.3-3-0.24
				c-0.41,0.49-0.69,1.08-0.99,1.63c-0.35,0.64-0.7,1.28-1.04,1.92c-1.31,2.48-2.52,5.02-3.63,7.6c-1.29,3-2.46,6.04-3.5,9.14
				C130.32,39,132.25,39.53,132.66,38.31L132.66,38.31z"/>
		</g>
	</g>
	<g>
		<g>
			<path class="st0" d="M134.07,181.51c1.59,3.79,3.51,7.42,5.82,10.82c0.54,0.79,1.06,1.7,1.74,2.39c0.76,0.77,1.84,0.61,2.52-0.16
				c1.39-1.59,2.58-3.41,3.8-5.13c1.44-2.01,2.84-4.05,4.2-6.11c0.71-1.08-1.02-2.08-1.73-1.01c-1.36,2.06-2.76,4.1-4.2,6.11
				c-0.69,0.97-1.4,1.93-2.11,2.89c-0.33,0.45-0.66,0.89-1,1.33c-0.05,0.07-0.51,0.56-0.5,0.63c0.42,0.13,0.54,0.12,0.36-0.04
				c-0.09-0.12-0.18-0.24-0.26-0.36c-2.68-3.69-4.94-7.69-6.7-11.9c-0.21-0.5-0.66-0.85-1.23-0.7
				C134.3,180.41,133.86,181.01,134.07,181.51L134.07,181.51z"/>
		</g>
	</g>
	<g>
		<g>
			<path class="st0" d="M140.07,18.29c-0.36,22.73-0.5,45.45-0.44,68.18c0.07,22.62,0.35,45.23,0.84,67.84
				c0.28,12.76,0.62,25.51,1.03,38.26c0.04,1.28,2.04,1.29,2,0c-0.73-22.72-1.25-45.45-1.56-68.18c-0.3-22.61-0.4-45.23-0.28-67.84
				c0.07-12.75,0.2-25.51,0.4-38.26C142.09,17,140.09,17,140.07,18.29L140.07,18.29z"/>
		</g>
	</g>
</g>
<line class="st1" x1="278.19" y1="73" x2="277.82" y2="73.37"/>
<g>
	<g>
		<g>
			<path class="st2" d="M230.12,47.62c-0.59-1.73-1.17-3.47-1.76-5.2c-0.46-1.35-0.8-3.11-2.07-3.97c-0.62-0.42-1.39-0.48-2.07-0.17
				c-0.31,0.14-0.6,0.35-0.84,0.6c-0.08,0.09-0.15,0.18-0.23,0.28c-0.22,0.29,0.01-0.01-0.08,0.11c-0.51,0.62-1.07,1.18-1.66,1.72
				c-1.19,1.09-2.45,2.1-3.73,3.08c-0.43,0.33-0.66,0.86-0.36,1.37c0.25,0.42,0.94,0.69,1.37,0.36c2.04-1.57,4.27-3.17,5.88-5.22
				c0.07-0.08,0.13-0.17,0.2-0.25c-0.08,0.1-0.1,0.12-0.04,0.05c0.07-0.08,0.14-0.17,0.23-0.23c0.19-0.12,0.15-0.1,0.28,0
				c0.56,0.44,0.74,1.46,0.95,2.09c0.67,1.97,1.33,3.94,2,5.92C228.6,49.36,230.53,48.84,230.12,47.62L230.12,47.62z"/>
		</g>
	</g>
	<g>
		<g>
			<path class="st2" d="M42.22,173.07c1.38,3.95,2.77,7.89,4.15,11.84c0.28,0.8,1.36,1.01,1.83,0.24c2.23-3.7,5.88-6.37,10.06-7.42
				c1.25-0.31,0.72-2.24-0.53-1.93c-4.68,1.17-8.77,4.21-11.26,8.34c0.61,0.08,1.22,0.16,1.83,0.24c-1.38-3.95-2.77-7.89-4.15-11.84
				C43.73,171.33,41.8,171.85,42.22,173.07L42.22,173.07z"/>
		</g>
	</g>
	<g>
		<g>
			<path class="st2" d="M48.47,182.56c3.66-10.15,7.31-20.3,10.97-30.46c3.42-9.48,6.73-19.01,10.31-28.44
				c3.13-8.24,6.6-16.41,11.13-23.99c4.43-7.42,10.03-14.78,17.21-19.74c3.65-2.51,7.94-4.49,12.45-4.34
				c4.8,0.16,8.72,3.1,12.37,5.93c6.94,5.38,13.49,11.32,20.93,16.02c7.38,4.66,15.68,7.84,24.51,7.67
				c9.1-0.18,17.79-3.61,24.67-9.55c7.08-6.12,12.43-14.24,17.36-22.11c5.23-8.36,9.8-17.12,13.66-26.19
				c0.92-2.17,1.81-4.36,2.66-6.57c0.46-1.2-1.47-1.72-1.93-0.53c-3.54,9.22-7.82,18.16-12.76,26.71c-2.5,4.31-5.16,8.53-7.99,12.63
				c-2.64,3.83-5.41,7.59-8.6,10.98c-3.14,3.34-6.68,6.29-10.74,8.43c-3.99,2.11-8.42,3.47-12.91,3.97
				c-8.93,0.99-17.45-1.55-25.09-6.06c-7.56-4.46-14.13-10.33-20.99-15.75c-3.55-2.81-7.25-5.93-11.73-7.09
				c-4.36-1.13-8.88-0.16-12.86,1.77c-4.01,1.94-7.48,4.83-10.61,7.97c-3.09,3.1-5.85,6.53-8.32,10.13
				c-4.97,7.24-8.75,15.22-12.05,23.33c-3.61,8.86-6.72,17.93-9.96,26.92c-3.66,10.15-7.31,20.3-10.97,30.46
				c-0.88,2.45-1.77,4.91-2.65,7.36C46.11,183.24,48.04,183.76,48.47,182.56L48.47,182.56z"/>
		</g>
	</g>
</g>
<g>
	<g>
		<g>
			<path class="st2" d="M236.22,44.7c-0.61-3.53-0.57-7.19,0.17-10.7c0.29-1.36,0.76-2.88,2.26-3.28c1.11-0.29,2.41,0.08,3.07,1.05
				c0.36,0.53,1.23,0.03,0.86-0.5c-0.8-1.18-2.2-1.77-3.62-1.61c-1.57,0.18-2.62,1.24-3.16,2.69c-0.69,1.88-0.88,4.06-0.98,6.04
				c-0.11,2.2,0.05,4.41,0.43,6.58C235.37,45.6,236.33,45.33,236.22,44.7L236.22,44.7z"/>
		</g>
	</g>
	<g>
		<g>
			<path class="st2" d="M232.68,37.48c2.47,0.4,4.97,0.65,7.47,0.75c0.64,0.03,0.64-0.97,0-1c-2.41-0.1-4.82-0.33-7.2-0.72
				c-0.27-0.04-0.53,0.07-0.62,0.35C232.26,37.1,232.41,37.44,232.68,37.48L232.68,37.48z"/>
		</g>
	</g>
	<g>
		<g>
			<path class="st2" d="M247.61,29.9c-1.87,2.93-3.26,6.16-4.15,9.52c-0.41,1.54-0.84,3.3-0.19,4.84c0.51,1.2,1.71,2.16,3.06,2.01
				c0.63-0.07,0.64-1.07,0-1c-1.42,0.17-2.29-1.19-2.38-2.46c-0.1-1.47,0.42-3.01,0.84-4.41c0.86-2.82,2.09-5.51,3.68-7.99
				C248.82,29.86,247.95,29.36,247.61,29.9L247.61,29.9z"/>
		</g>
	</g>
	<g>
		<g>
			<path class="st2" d="M250.62,35.51c1.52,2.8,3.04,5.61,4.56,8.41c0.31,0.57,1.17,0.06,0.86-0.5c-1.52-2.8-3.04-5.61-4.56-8.41
				C251.17,34.43,250.31,34.94,250.62,35.51L250.62,35.51z"/>
		</g>
	</g>
	<g>
		<g>
			<path class="st2" d="M256,35c-1.59,1.75-3.19,3.51-4.78,5.26c-0.39,0.43-0.79,0.87-1.18,1.3c-0.32,0.35-0.81,0.74-0.93,1.21
				c-0.27,1.05,1.47,1.17,1.28,0.09c-0.11-0.63-1.08-0.36-0.96,0.27c0,0.02,0.01,0.04,0.01,0.05c0.02-0.13,0.03-0.26,0.05-0.39
				c0.2,0.07,0.39,0.14,0.59,0.22c0.02-0.02,0.04-0.05,0.05-0.07c0.08-0.05,0.15-0.16,0.21-0.23c0.14-0.15,0.27-0.3,0.41-0.45
				c0.29-0.32,0.58-0.64,0.87-0.96c0.57-0.62,1.13-1.24,1.7-1.87c1.13-1.24,2.26-2.49,3.39-3.73C257.14,35.24,256.43,34.53,256,35
				L256,35z"/>
		</g>
	</g>
	<g>
		<g>
			<path class="st2" d="M258.51,29.69c0.9,3.13,1.39,6.35,1.44,9.61c0.03,2.49,0.2,6.95-3.03,7.55c-0.63,0.12-0.36,1.08,0.27,0.96
				c3.44-0.63,3.73-4.79,3.77-7.57c0.05-3.65-0.46-7.31-1.47-10.81C259.3,28.81,258.33,29.07,258.51,29.69L258.51,29.69z"/>
		</g>
	</g>
</g>
<g>
	<g>
		<g>
			<path class="st3" d="M194.51,46.46c-0.59-1.73-1.17-3.47-1.76-5.2c-0.46-1.35-0.8-3.11-2.07-3.97c-0.62-0.42-1.39-0.48-2.07-0.17
				c-0.31,0.14-0.6,0.35-0.84,0.6c-0.08,0.09-0.15,0.18-0.23,0.28c-0.22,0.29,0.01-0.01-0.08,0.11c-0.51,0.62-1.07,1.18-1.66,1.72
				c-1.19,1.09-2.45,2.1-3.73,3.08c-0.43,0.33-0.66,0.86-0.36,1.37c0.25,0.42,0.94,0.69,1.37,0.36c2.04-1.57,4.27-3.17,5.88-5.22
				c0.07-0.08,0.13-0.17,0.2-0.25c-0.08,0.1-0.1,0.12-0.04,0.05c0.07-0.08,0.14-0.17,0.23-0.23c0.19-0.12,0.15-0.1,0.28,0
				c0.56,0.44,0.74,1.46,0.95,2.09c0.67,1.97,1.33,3.94,2,5.92C192.99,48.2,194.93,47.68,194.51,46.46L194.51,46.46z"/>
		</g>
	</g>
	<g>
		<g>
			<path class="st3" d="M6.62,171.91c1.38,3.95,2.77,7.89,4.15,11.84c0.28,0.8,1.36,1.01,1.83,0.24c2.23-3.7,5.88-6.37,10.06-7.42
				c1.25-0.31,0.72-2.24-0.53-1.93c-4.68,1.17-8.77,4.21-11.26,8.34c0.61,0.08,1.22,0.16,1.83,0.24c-1.38-3.95-2.77-7.89-4.15-11.84
				C8.12,170.18,6.19,170.69,6.62,171.91L6.62,171.91z"/>
		</g>
	</g>
	<g>
		<g>
			<path class="st3" d="M12.86,181.4c3.66-10.15,7.31-20.3,10.97-30.46c3.42-9.48,6.73-19.01,10.31-28.44
				c3.13-8.24,6.6-16.41,11.13-23.99c4.43-7.42,10.03-14.78,17.21-19.74c3.65-2.51,7.94-4.49,12.45-4.34
				c4.8,0.16,8.72,3.1,12.37,5.93c6.94,5.38,13.49,11.32,20.93,16.02c7.38,4.66,15.68,7.84,24.51,7.67
				c9.1-0.18,17.79-3.61,24.67-9.55c7.08-6.12,12.43-14.24,17.36-22.11c5.23-8.36,9.8-17.12,13.66-26.19
				c0.92-2.17,1.81-4.36,2.66-6.57c0.46-1.2-1.47-1.72-1.93-0.53c-3.54,9.22-7.82,18.16-12.76,26.71c-2.5,4.31-5.16,8.53-7.99,12.63
				c-2.64,3.83-5.41,7.59-8.6,10.98c-3.14,3.34-6.68,6.29-10.74,8.43c-3.99,2.11-8.42,3.47-12.91,3.97
				c-8.93,0.99-17.45-1.55-25.09-6.06c-7.56-4.46-14.13-10.33-20.99-15.75c-3.55-2.81-7.25-5.93-11.73-7.09
				c-4.36-1.13-8.88-0.16-12.86,1.77c-4.01,1.94-7.48,4.83-10.61,7.97c-3.09,3.1-5.85,6.53-8.32,10.13
				c-4.97,7.24-8.75,15.22-12.05,23.33c-3.61,8.86-6.72,17.93-9.96,26.92c-3.66,10.15-7.31,20.3-10.97,30.46
				c-0.88,2.45-1.77,4.91-2.65,7.36C10.5,182.08,12.43,182.61,12.86,181.4L12.86,181.4z"/>
		</g>
	</g>
</g>
<g>
	<g>
		<g>
			<path class="st3" d="M177.5,30.38c-0.61-3.53-0.57-7.19,0.17-10.7c0.29-1.36,0.76-2.88,2.26-3.28c1.11-0.29,2.41,0.08,3.07,1.05
				c0.36,0.53,1.23,0.03,0.86-0.5c-0.8-1.18-2.2-1.77-3.62-1.61c-1.57,0.18-2.62,1.24-3.16,2.69c-0.69,1.88-0.88,4.06-0.98,6.04
				c-0.11,2.2,0.05,4.41,0.43,6.58C176.65,31.28,177.61,31.01,177.5,30.38L177.5,30.38z"/>
		</g>
	</g>
	<g>
		<g>
			<path class="st3" d="M173.96,23.16c2.47,0.4,4.97,0.65,7.47,0.75c0.64,0.03,0.64-0.97,0-1c-2.41-0.1-4.82-0.33-7.2-0.72
				c-0.27-0.04-0.53,0.07-0.62,0.35C173.54,22.78,173.69,23.12,173.96,23.16L173.96,23.16z"/>
		</g>
	</g>
	<g>
		<g>
			<path class="st3" d="M188.89,15.58c-1.87,2.93-3.26,6.16-4.15,9.52c-0.41,1.54-0.84,3.3-0.19,4.84c0.51,1.2,1.71,2.16,3.06,2.01
				c0.63-0.07,0.64-1.07,0-1c-1.42,0.17-2.29-1.19-2.38-2.46c-0.1-1.47,0.42-3.01,0.84-4.41c0.86-2.82,2.09-5.51,3.68-7.99
				C190.1,15.54,189.24,15.04,188.89,15.58L188.89,15.58z"/>
		</g>
	</g>
	<g>
		<g>
			<path class="st3" d="M191.9,21.18c1.52,2.8,3.04,5.61,4.56,8.41c0.31,0.57,1.17,0.06,0.86-0.5c-1.52-2.8-3.04-5.61-4.56-8.41
				C192.46,20.11,191.59,20.62,191.9,21.18L191.9,21.18z"/>
		</g>
	</g>
	<g>
		<g>
			<path class="st3" d="M197.28,20.68c-1.59,1.75-3.19,3.51-4.78,5.26c-0.39,0.43-0.79,0.87-1.18,1.3
				c-0.32,0.35-0.81,0.74-0.93,1.21c-0.27,1.05,1.47,1.17,1.28,0.09c-0.11-0.63-1.08-0.36-0.96,0.27c0,0.02,0.01,0.04,0.01,0.05
				c0.02-0.13,0.03-0.26,0.05-0.39c0.2,0.07,0.39,0.14,0.59,0.22c0.02-0.02,0.04-0.05,0.05-0.07c0.08-0.05,0.15-0.16,0.21-0.23
				c0.14-0.15,0.27-0.3,0.41-0.45c0.29-0.32,0.58-0.64,0.87-0.96c0.57-0.62,1.13-1.24,1.7-1.87c1.13-1.24,2.26-2.49,3.39-3.73
				C198.42,20.91,197.72,20.2,197.28,20.68L197.28,20.68z"/>
		</g>
	</g>
	<g>
		<g>
			<path class="st3" d="M216.45,16.87c3.03,5.01,1.91,11.95-2.51,15.78c-0.49,0.42,0.22,1.13,0.71,0.71
				c4.75-4.11,5.91-11.62,2.66-16.99C216.98,15.82,216.11,16.32,216.45,16.87L216.45,16.87z"/>
		</g>
	</g>
	<g>
		<g>
			<path class="st3" d="M200.15,25.45c1.9,0.15,3.81,0.18,5.71,0.11c0.42-0.02,0.68-0.54,0.35-0.85c-0.1-0.1-0.21-0.2-0.31-0.3
				c-0.46-0.45-1.17,0.26-0.71,0.71c0.1,0.1,0.21,0.2,0.31,0.3c0.12-0.28,0.24-0.57,0.35-0.85c-1.9,0.07-3.81,0.04-5.71-0.11
				C199.51,24.4,199.51,25.4,200.15,25.45L200.15,25.45z"/>
		</g>
	</g>
	<g>
		<g>
			<path class="st3" d="M202.72,21.55c-0.41,1.63-0.61,3.32-0.56,5c0.01,0.36-0.02,0.79,0.1,1.14c0.11,0.34,0.45,0.62,0.83,0.51
				c0.78-0.22,0.39-1.53-0.41-1.13c-0.57,0.29-0.07,1.15,0.5,0.86c0.01-0.01,0.02-0.01,0.03-0.02c-0.13,0.02-0.26,0.03-0.39,0.05
				c0.01,0,0.02,0,0.03,0c-0.07-0.04-0.15-0.09-0.22-0.13c0.01,0.01,0.01,0.01,0.02,0.02c-0.04-0.07-0.09-0.15-0.13-0.22
				c-0.01-0.07,0-0.14,0.03-0.2c0.06-0.06,0.12-0.12,0.18-0.18c-0.01,0.01-0.02,0.01-0.03,0.02c0.08-0.02,0.17-0.05,0.25-0.07
				c0.01,0,0.02,0,0.03,0c0.07,0.04,0.15,0.09,0.22,0.13c-0.04-0.03-0.03-0.36-0.04-0.45c-0.01-0.23-0.02-0.46-0.02-0.69
				c0-0.5,0.01-0.99,0.05-1.49c0.07-0.98,0.24-1.95,0.48-2.91C203.84,21.19,202.88,20.93,202.72,21.55L202.72,21.55z"/>
		</g>
	</g>
	<g>
		<g>
			<path class="st3" d="M207.23,18.34c0.25,3.64,0.51,7.28,0.76,10.92c0.04,0.57,0.79,0.67,0.98,0.13c0.31-0.85,0.72-1.65,1.23-2.4
				c0.27-0.4,0.57-0.77,0.9-1.13c0.12-0.13,0.33-0.44,0.5-0.48c0.32-0.08,0.37,0.28,0.42,0.49c0.42,1.93,0.36,3.94-0.09,5.86
				c-0.15,0.63,0.82,0.89,0.96,0.27c0.32-1.34,0.47-2.73,0.39-4.11c-0.03-0.65-0.11-1.31-0.23-1.95c-0.1-0.51-0.18-1.11-0.61-1.44
				c-0.99-0.76-2.05,0.63-2.59,1.3c-0.8,1.01-1.41,2.13-1.85,3.33c0.33,0.04,0.65,0.09,0.98,0.13c-0.25-3.64-0.51-7.28-0.76-10.92
				C208.19,17.7,207.19,17.69,207.23,18.34L207.23,18.34z"/>
		</g>
	</g>
</g>
</svg>
