<?xml version="1.0" encoding="utf-8"?>
<!-- Generator: Adobe Illustrator 23.1.1, SVG Export Plug-In . SVG Version: 6.00 Build 0)  -->
<svg version="1.1" id="Layer_1" xmlns="http://www.w3.org/2000/svg" xmlns:xlink="http://www.w3.org/1999/xlink" x="0px" y="0px"
	 viewBox="0 0 288 216" style="enable-background:new 0 0 288 216;" xml:space="preserve">
<style type="text/css">
	.st0{fill:#A7A9AC;}
	.st1{fill:none;stroke:#000000;stroke-miterlimit:10;}
	.st2{fill:#ED1C24;}
</style>
<g>
	<g>
		<g>
			<path class="st0" d="M245.22,120.12c4.27-3.76,8.41-7.67,12.42-11.7c0.48-0.49,0.96-0.97,1.44-1.46c0.47-0.48,1.1-0.99,1.26-1.68
				c0.3-1.29-0.93-2.06-1.85-2.65c-1.76-1.12-3.73-1.83-5.64-2.65c-2.06-0.88-4.15-1.94-5.49-3.8c-0.12,0.46-0.24,0.91-0.36,1.37
				c0.31-0.21,0.58-0.18,0.84,0.09c0.9,0.92,2.31-0.49,1.41-1.41c-0.86-0.89-2.22-1.08-3.26-0.4c-0.42,0.27-0.69,0.91-0.36,1.37
				c2.44,3.38,6.35,4.4,9.93,6.11c0.89,0.43,1.78,0.9,2.58,1.5c0.07,0.05,0.14,0.12,0.21,0.16c0.02,0.02,0.04,0.04,0.06,0.06
				c0.12,0.13,0.11,0.06-0.01-0.22c-0.03-0.01-0.57,0.6-0.64,0.66c-0.48,0.49-0.96,0.98-1.44,1.46c-1.89,1.91-3.82,3.79-5.77,5.64
				c-2.21,2.09-4.45,4.14-6.73,6.15C242.83,119.56,244.25,120.97,245.22,120.12L245.22,120.12z"/>
		</g>
	</g>
	<g>
		<g>
			<path class="st0" d="M23.72,90.57c-3.86,1.72-7.52,3.89-10.9,6.44c-0.77,0.58-1.73,1.16-2.32,1.92c-0.69,0.88-0.38,1.88,0.3,2.65
				c1.5,1.68,3.14,3.26,4.75,4.84c1.81,1.78,3.65,3.53,5.52,5.24c0.95,0.87,2.37-0.54,1.41-1.41c-2.99-2.73-5.89-5.56-8.71-8.46
				c-0.33-0.34-0.66-0.69-0.99-1.03c-0.16-0.17-0.34-0.34-0.5-0.52c-0.03-0.03-0.13-0.18-0.16-0.19c-0.11-0.04-0.03,0.09-0.04,0.1
				c0.34-0.18,0.67-0.57,0.97-0.81c0.38-0.3,0.76-0.59,1.15-0.88c1.54-1.14,3.14-2.21,4.78-3.19c1.86-1.1,3.78-2.09,5.75-2.97
				c0.49-0.22,0.61-0.94,0.36-1.37C24.79,90.43,24.21,90.35,23.72,90.57L23.72,90.57z"/>
		</g>
	</g>
	<g>
		<g>
			<path class="st0" d="M10.99,101.62c15.14,4.13,30.92,4.09,46.49,3.93c16.32-0.17,32.64-0.34,48.96-0.5
				c16.33-0.17,32.65-0.34,48.98-0.5c16.24-0.17,32.48-0.41,48.71-0.27c18.32,0.17,36.66,0.88,54.88,2.91
				c0.39,0.04,0.9-0.34,0.96-0.73c0.29-1.78-0.8-3.67-2.77-3.61c-1.28,0.04-1.29,2.04,0,2c0.58-0.02,0.93,0.52,0.84,1.07
				c0.32-0.24,0.64-0.49,0.96-0.73c-32.26-3.59-64.77-3.04-97.16-2.71c-32.65,0.34-65.31,0.67-97.96,1.01
				c-17.49,0.18-35.33,0.85-52.37-3.79C10.28,99.35,9.75,101.28,10.99,101.62L10.99,101.62z"/>
		</g>
	</g>
</g>
<g>
	<g>
		<g>
			<path class="st0" d="M34.83,30.85c1.86-5.6,4.1-11.06,6.73-16.35c0.65-1.31,1.33-2.61,2.03-3.9c0.32-0.59,0.63-1.19,0.98-1.76
				c-0.01,0.01,0.19-0.27,0.19-0.28c0.02-0.02,0.04-0.04,0.06-0.06c-0.07,0.03-0.15,0.02-0.23-0.01c0.03,0.11,0.35,0.42,0.43,0.55
				c1.65,2.66,3.23,5.37,4.85,8.06c1.83,3.04,3.66,6.08,5.48,9.12c0.36,0.59,1.4,0.71,1.73,0c0.37-0.82,0.74-1.64,1.12-2.46
				c0.22-0.49,0.14-1.08-0.36-1.37c-0.43-0.25-1.14-0.14-1.37,0.36c-0.37,0.82-0.74,1.64-1.12,2.46c0.58,0,1.15,0,1.73,0
				c-1.79-2.97-3.57-5.94-5.36-8.91c-0.87-1.45-1.74-2.9-2.61-4.35c-0.84-1.4-1.62-2.87-2.55-4.22c-0.84-1.23-2.33-1.68-3.37-0.39
				c-0.45,0.56-0.76,1.23-1.1,1.85c-0.41,0.74-0.81,1.49-1.2,2.24c-1.47,2.81-2.82,5.68-4.07,8.59c-1.45,3.38-2.75,6.81-3.91,10.29
				C32.5,31.55,34.43,32.07,34.83,30.85L34.83,30.85z"/>
		</g>
	</g>
	<g>
		<g>
			<path class="st0" d="M36.68,193.83c1.76,4.23,3.88,8.29,6.43,12.1c0.62,0.93,1.23,1.92,1.97,2.76c0.8,0.91,1.99,0.82,2.76-0.07
				c0.77-0.9,1.44-1.91,2.14-2.86c0.71-0.97,1.42-1.94,2.11-2.93c1.63-2.3,3.22-4.62,4.76-6.98c0.71-1.08-1.02-2.08-1.73-1.01
				c-2.38,3.63-4.86,7.19-7.45,10.68c-0.31,0.42-0.62,0.83-0.93,1.25c-0.05,0.07-0.47,0.55-0.46,0.58c0.04,0.07,0.28,0.01,0.27,0.02
				c0-0.01-0.15-0.19-0.14-0.18c-0.6-0.8-1.16-1.63-1.71-2.46c-1.11-1.67-2.15-3.4-3.11-5.17c-1.1-2.04-2.11-4.13-3-6.27
				c-0.21-0.5-0.66-0.85-1.23-0.7C36.9,192.73,36.47,193.33,36.68,193.83L36.68,193.83z"/>
		</g>
	</g>
	<g>
		<g>
			<path class="st0" d="M43.46,8.11c-0.4,25.86-0.57,51.73-0.49,77.6c0.08,25.74,0.39,51.48,0.95,77.21
				c0.31,14.52,0.7,29.03,1.17,43.54c0.04,1.28,2.04,1.29,2,0c-0.83-25.86-1.41-51.72-1.76-77.59c-0.34-25.73-0.45-51.47-0.31-77.21
				c0.08-14.52,0.23-29.03,0.45-43.55C45.48,6.82,43.48,6.82,43.46,8.11L43.46,8.11z"/>
		</g>
	</g>
</g>
<line class="st1" x1="278.19" y1="73" x2="277.82" y2="73.37"/>
<g>
	<g>
		<g>
			<path class="st2" d="M50.84,192.79c0.01-10.98,0.93-21.95,2.88-32.76c1.65-9.17,4.02-18.21,7.08-27.02
				c2.5-7.19,5.45-14.21,8.85-21.02c3.16-6.35,6.64-12.59,10.37-18.63c4.8-7.77,10.33-15.06,16.68-21.63
				c5.43-5.61,11.39-10.74,17.74-15.29c5-3.58,10.24-6.83,15.6-9.85c8.7-4.89,17.76-9.13,27.06-12.75
				c10.79-4.21,21.89-7.59,33.16-10.22c9.28-2.16,18.67-3.82,28.12-4.98c1.89-0.23,3.78-0.44,5.68-0.64c1.27-0.13,1.28-2.13,0-2
				c-8.9,0.91-17.75,2.22-26.52,3.99c-11.12,2.24-22.1,5.19-32.82,8.91c-10.28,3.57-20.33,7.85-29.99,12.88
				c-6.43,3.34-12.7,7.02-18.69,11.1c-5.31,3.62-10.37,7.62-15.11,11.95c-7.25,6.61-13.67,14.06-19.18,22.17
				c-4.31,6.35-8.11,13.05-11.7,19.83c-3.4,6.41-6.42,13.03-9.04,19.8c-3.25,8.4-5.86,17.04-7.81,25.83
				c-2.32,10.44-3.7,21.09-4.18,31.77c-0.13,2.85-0.19,5.69-0.19,8.54C48.84,194.08,50.84,194.08,50.84,192.79L50.84,192.79z"/>
		</g>
	</g>
	<g>
		<g>
			<path class="st2" d="M217.83,23.08c1.61-1.08,3.23-2.15,4.84-3.23c1.26-0.84,3.54-1.92,2.71-3.81c-0.66-1.5-2.61-2.1-4.02-2.64
				c-1.73-0.66-3.51-1.19-5.31-1.62c-1.25-0.3-1.79,1.63-0.53,1.93c1.51,0.36,3.01,0.79,4.47,1.31c0.69,0.24,1.37,0.5,2.04,0.79
				c0.5,0.22,1.13,0.51,1.46,0.93c0.08,0.1,0.06,0.02,0.08,0.15c0-0.04-0.03-0.09,0-0.13c-0.16,0.2-0.38,0.33-0.59,0.47
				c-0.68,0.45-1.35,0.9-2.03,1.35c-1.38,0.92-2.76,1.84-4.14,2.76c-0.45,0.3-0.64,0.88-0.36,1.37
				C216.73,23.16,217.38,23.38,217.83,23.08L217.83,23.08z"/>
		</g>
	</g>
	<g>
		<g>
			<path class="st2" d="M55.99,187.67c-1.1,0.98-2.25,1.9-3.45,2.74c-0.62,0.44-1.26,0.86-1.9,1.26c-0.51,0.32-1.17,0.86-1.81,0.78
				c-1.07-0.14-1.72-1.75-2.16-2.55c-0.78-1.4-1.46-2.84-2.05-4.33c-0.33-0.84-1.3-0.96-1.83-0.24c-0.24,0.33-0.48,0.65-0.72,0.98
				c-0.32,0.43-0.07,1.12,0.36,1.37c0.51,0.3,1.05,0.08,1.37-0.36c0.24-0.33,0.48-0.65,0.72-0.98c-0.61-0.08-1.22-0.16-1.83-0.24
				c0.69,1.76,1.49,3.48,2.42,5.12c0.75,1.32,1.63,2.87,3.26,3.17c1.77,0.33,3.43-1.06,4.8-2c1.48-1.01,2.89-2.12,4.23-3.31
				C58.37,188.23,56.95,186.82,55.99,187.67L55.99,187.67z"/>
		</g>
	</g>
</g>
<g>
	<g>
		<g>
			<path d="M70.64,105.16c0.1-0.05,0.06-0.03-0.02,0c0.06-0.02,0.13-0.04,0.19-0.06c0.05-0.01,0.11-0.02,0.16-0.04
				c0.11-0.04-0.15-0.01-0.03,0c0.12,0.01,0.24-0.01,0.36,0c0.12,0.01,0.05,0.02-0.02,0c0.06,0.02,0.13,0.03,0.2,0.05
				c0.05,0.01,0.1,0.03,0.16,0.05c0.06,0.02,0.19,0.11,0.02,0.01c0.09,0.06,0.19,0.1,0.28,0.16c0.09,0.06,0.05,0.05-0.01-0.01
				c0.05,0.05,0.1,0.09,0.15,0.14c0.02,0.01,0.14,0.14,0.06,0.05c-0.09-0.09,0.06,0.09,0.06,0.1c0.03,0.05,0.05,0.09,0.08,0.14
				c0.05,0.1,0.02,0.06,0-0.02c0.03,0.12,0.06,0.24,0.09,0.35c0.03,0.11,0.02-0.14-0.01-0.02c-0.01,0.06,0.01,0.15,0.01,0.2
				c0,0.05-0.01,0.11-0.01,0.16c0-0.08,0.03-0.14,0-0.02c-0.03,0.12-0.08,0.24-0.1,0.35c-0.02,0.12,0.07-0.12,0.01-0.01
				c-0.04,0.06-0.06,0.12-0.09,0.18c-0.03,0.05-0.06,0.09-0.09,0.14c0.04-0.07,0.08-0.09,0.01-0.01c-0.05,0.05-0.09,0.1-0.14,0.15
				c-0.03,0.03-0.18,0.15-0.02,0.02c0.34,0,0.67,0,1.01,0c0.13,0.1-0.03-0.03-0.06-0.05c-0.06-0.05-0.12-0.11-0.18-0.16
				c-0.1-0.09-0.19-0.18-0.28-0.27c-0.11-0.12-0.22-0.24-0.32-0.37c0.03,0.03,0.09,0.13-0.02-0.03c-0.06-0.08-0.11-0.16-0.16-0.24
				c-0.08-0.12-0.15-0.25-0.22-0.38c-0.04-0.07-0.07-0.14-0.11-0.22c0.02,0.04,0.06,0.16-0.01-0.03c-0.05-0.13-0.09-0.27-0.13-0.41
				c-0.02-0.08-0.03-0.15-0.05-0.23c-0.05-0.21,0,0.13-0.02-0.11c-0.01-0.14-0.01-0.28-0.01-0.42c0-0.08,0.01-0.16,0.02-0.24
				c-0.01,0.04-0.04,0.15,0.01,0c0.03-0.1,0.08-0.23,0.1-0.33c0.02-0.13-0.11,0.19,0.01-0.01c0.04-0.07,0.07-0.14,0.11-0.2
				c0.04-0.07,0.2-0.28,0.07-0.11c0.08-0.1,0.17-0.19,0.26-0.28c0.06-0.06,0.27-0.21,0.09-0.09c0.12-0.08,0.23-0.16,0.36-0.22
				c0.06-0.03,0.11-0.06,0.17-0.08c-0.03,0.02-0.2,0.07-0.03,0.02c0.11-0.03,0.21-0.06,0.32-0.09c0.07-0.02,0.23-0.02-0.01,0
				c0.05,0,0.1-0.01,0.15-0.01c0.05,0,0.1,0,0.14,0c0.05,0,0.1,0.01,0.14,0.01c-0.04-0.01-0.08-0.01-0.12-0.02
				c0.04-0.03,0.3,0.08,0.35,0.1c-0.21-0.08,0.01,0.03,0.09,0.07c0.19,0.1-0.06-0.09,0.01,0c0.03,0.04,0.1,0.1,0.13,0.13
				c0.04,0.03,0.11,0.15-0.01-0.03c0.04,0.06,0.08,0.12,0.12,0.19c0.03,0.04,0.05,0.09,0.07,0.13c0.12,0.21-0.04-0.19,0.01,0.04
				c0.02,0.1,0.05,0.2,0.08,0.29c0.06,0.23,0.01-0.14,0,0c0,0.06,0.01,0.13,0.01,0.19c0,0.13-0.01,0.26-0.02,0.39
				c0.02-0.26-0.03,0.08-0.05,0.15c-0.02,0.08-0.16,0.37-0.05,0.16c-0.06,0.1-0.11,0.2-0.17,0.3c-0.03,0.05-0.14,0.18,0,0.02
				c-0.05,0.06-0.11,0.12-0.17,0.18c-0.04,0.04-0.09,0.08-0.14,0.12c0.12-0.1,0.01-0.01-0.02,0.01c-0.07,0.04-0.13,0.08-0.2,0.12
				c-0.04,0.02-0.23,0.09-0.06,0.03c-0.12,0.04-0.23,0.08-0.35,0.09c0.2-0.03,0-0.01-0.05-0.01c-0.05,0-0.09,0-0.14-0.01
				c0.1,0.01,0.11,0.01,0.04,0c-0.05-0.02-0.22-0.1-0.03,0c-0.05-0.03-0.09-0.06-0.14-0.08c0.14,0.06,0.06,0.06,0.01,0
				c0,0-0.18-0.2-0.09-0.08c0.09,0.12-0.06-0.1-0.06-0.1c-0.04-0.07-0.02-0.14,0,0.02c-0.01-0.05-0.03-0.1-0.04-0.15
				c0.06,0.23,0.01,0.03,0.02-0.05c-0.02,0.32,0.05-0.09-0.01,0.08c-0.06,0.15,0.02-0.06,0.05-0.06c0.02,0-0.15,0.16-0.03,0.05
				c-0.19,0.16-0.08,0.06-0.02,0.02c0.18-0.1-0.03-0.01-0.03,0c0-0.01,0.14-0.04,0.13-0.04c0.19-0.06-0.07,0.03-0.06,0.01
				c0,0,0.2,0,0.2,0c0-0.02-0.24-0.03-0.04,0.01c0.21,0.03-0.05,0.02-0.02-0.02c0.01-0.01,0.11,0.08,0.11,0.07
				c0-0.09-0.17-0.1-0.05-0.02c-0.02-0.03-0.05-0.06-0.07-0.1c0.04,0.08,0.05,0.08,0.02,0.01c-0.11-0.13,0.06,0.05,0.02,0.08
				c-0.03,0.02,0.02-0.27-0.02-0.06c-0.04,0.23,0.08-0.21,0,0.01c-0.02,0.04-0.03,0.09-0.04,0.14c0.08-0.22,0.03-0.07-0.01-0.01
				c-0.09,0.11,0.18-0.16,0,0c-0.03,0.03-0.07,0.07-0.1,0.1c0.13-0.13,0.09-0.08,0.03-0.04c-0.18,0.13,0.14-0.05,0.01-0.01
				c-0.15,0.04,0.26-0.03,0.02,0c-0.03,0-0.06,0-0.08,0c0.13,0.02,0.14,0.01,0.03-0.01c0.01,0,0.22,0.09,0.02,0.01
				c-0.14-0.06-0.04-0.01,0,0.02c-0.05-0.04-0.1-0.09-0.15-0.14c-0.04-0.04-0.13-0.19-0.03-0.03c-0.06-0.1-0.12-0.2-0.17-0.3
				c0.09,0.17,0,0.01-0.01-0.04c-0.03-0.08-0.05-0.16-0.07-0.25c-0.01-0.04-0.04-0.22-0.02-0.06c-0.01-0.07-0.01-0.14-0.01-0.21
				c-0.01,0.02-0.01,0.04-0.02,0.06c0.03-0.11,0.04-0.13,0.01-0.06c-0.01,0.01-0.01,0.03-0.02,0.04c0.06-0.09,0.04-0.08-0.05,0.04
				c0.02-0.03,0.06-0.06,0.09-0.09c-0.2,0.16-0.11,0.09-0.05,0.06c-0.23,0.12-0.12,0.04-0.04,0.03c0.08-0.01-0.25-0.01-0.02,0
				c0.02,0,0.16,0,0.16,0.01c-0.01,0.02-0.26-0.06-0.07,0c0.04,0.01,0.09,0.02,0.13,0.04c0.02,0.01,0.21,0.1,0.08,0.03
				c-0.14-0.08,0.06,0.04,0.07,0.05c0.04,0.02,0.08,0.05,0.12,0.08c0.15,0.09,0,0-0.03-0.03c0.05,0.05,0.1,0.1,0.16,0.15
				c0.16,0.14-0.04-0.12,0-0.01c0.02,0.06,0.08,0.13,0.11,0.19c0.03,0.05,0.08,0.22,0.01,0c0.03,0.07,0.05,0.14,0.07,0.22
				c0.01,0.05,0.03,0.1,0.04,0.15c0.02,0.07,0.01,0.27,0.01,0.04c0,0.13,0.01,0.25,0.01,0.38c0,0.02-0.04,0.25-0.01,0.09
				c0.04-0.15-0.03,0.1-0.03,0.12c-0.02,0.06-0.04,0.12-0.05,0.18c-0.06,0.19,0.1-0.15-0.02,0.03c-0.03,0.04-0.05,0.09-0.07,0.13
				c-0.1,0.19,0.14-0.13-0.02,0.03c-0.03,0.03-0.07,0.07-0.1,0.1c-0.13,0.15,0.14-0.06-0.03,0.02c-0.01,0.01-0.22,0.13-0.08,0.05
				c0.07-0.03,0.07-0.03-0.01,0c-0.11,0.02-0.09,0.03,0.07,0c0,0-0.14,0.01-0.13,0.01c-0.19,0.02,0.19,0.06,0,0
				c-0.04-0.01-0.09-0.03-0.13-0.04c-0.2-0.05,0.15,0.1-0.01-0.01c-0.04-0.03-0.1-0.07-0.15-0.09c-0.06-0.04-0.04-0.02,0.07,0.05
				c-0.03-0.02-0.05-0.04-0.08-0.07c-0.04-0.04-0.08-0.08-0.12-0.12c0.1,0.09,0.07,0.11,0-0.01c-0.01-0.01-0.07-0.11-0.06-0.11
				c-0.02,0.01,0.1,0.21,0.01,0c-0.08-0.18,0.03,0.09,0,0.08c0,0-0.02-0.16,0-0.18c-0.01,0.05-0.01,0.1-0.02,0.15
				c0.02-0.08,0.02-0.08-0.01,0c-0.04,0.08-0.04,0.08,0,0.01c0.06-0.09,0.04-0.07-0.04,0.04c-0.32,0.09-0.65,0.17-0.97,0.26
				c0.18,0.03-0.07-0.05-0.12-0.12c-0.03-0.04-0.05-0.08-0.06-0.13c0.04,0.17,0.05,0.1,0.02-0.22c0.41-0.23,0.82-0.47,1.23-0.7
				c-0.1-0.03-0.08-0.02,0.08,0.04c-0.09-0.06-0.06-0.04,0.08,0.06c0.18,0.18,0.08,0.12,0.03,0.03c0.06,0.16,0.08,0.19,0.04,0.09
				c-0.02-0.08-0.02-0.07,0,0.02c0.02,0.22-0.01-0.09,0.01-0.09c-0.03,0.17-0.03,0.2-0.01,0.1c0-0.02,0.01-0.04,0.01-0.05
				c0.05-0.16-0.14,0.2,0.02-0.01c-0.03,0.04-0.06,0.08-0.09,0.12c0.07-0.07,0.05-0.05-0.08,0.05c0.09-0.05,0.06-0.04-0.1,0.03
				c0.1-0.02,0.07-0.02-0.1,0.01c0.52-0.03,1.03-0.44,1-1c-0.02-0.52-0.44-1.03-1-1c-0.94,0.05-1.57,0.78-1.65,1.7
				c-0.07,0.82,0.41,1.61,1.22,1.84c0.47,0.13,1.15-0.16,1.23-0.7c0.06-0.45,0.04-0.87-0.21-1.26c-0.23-0.36-0.6-0.64-1.02-0.73
				c-0.33-0.07-0.74-0.02-0.97,0.26c-0.6,0.72-0.69,1.66-0.17,2.46c0.46,0.72,1.25,1.23,2.12,1.24c1.94,0.03,2.8-2.25,2.35-3.86
				c-0.23-0.81-0.76-1.51-1.52-1.87c-0.81-0.39-1.83-0.45-2.53,0.19c-0.84,0.77-0.66,2.06-0.21,2.98c0.44,0.9,1.37,1.56,2.39,1.42
				c1.02-0.14,1.7-1.04,1.81-2.02c0.1-0.95-0.58-1.83-1.5-2.05c-0.9-0.21-1.91,0.13-2.4,0.94c-0.53,0.88-0.24,2.09,0.51,2.75
				c0.86,0.75,1.99,0.79,2.99,0.32c0.84-0.39,1.44-1.16,1.74-2.02c0.57-1.66-0.19-3.63-1.91-4.2c-1.58-0.52-3.41,0.5-4.14,1.92
				c-0.93,1.8-0.19,3.89,1.09,5.32c0.32,0.36,0.69,0.66,1.07,0.94c0.26,0.19,0.75,0.19,1.01,0c0.66-0.49,1.16-1.15,1.33-1.97
				c0.17-0.8,0.08-1.67-0.35-2.38c-0.89-1.45-2.82-1.91-4.3-1.15c-0.47,0.24-0.64,0.93-0.36,1.37
				C69.58,105.28,70.14,105.42,70.64,105.16L70.64,105.16z"/>
		</g>
	</g>
	<g>
		<g>
			<g>
				<path d="M79.5,109.75c-1.95,3.17-3.02,6.85-3.03,10.57c0,1.53,0.04,3.5,1.35,4.55c0.99,0.79,2.52,0.75,3.27-0.32
					c0.37-0.53-0.5-1.03-0.86-0.5c-0.31,0.44-0.93,0.45-1.39,0.27c-0.63-0.24-0.96-0.86-1.14-1.47c-0.38-1.34-0.28-2.89-0.15-4.25
					c0.27-2.95,1.26-5.81,2.81-8.33C80.7,109.7,79.83,109.2,79.5,109.75L79.5,109.75z"/>
			</g>
		</g>
		<g>
			<g>
				<path d="M81.5,117.02c0.47-0.9,1.04-1.73,1.73-2.48c0.33-0.35,0.68-0.69,1.05-1c0.09-0.08,0.47-0.46,0.6-0.42
					c0.11,0.04,0.12,0.41,0.13,0.49c0.24,2.29,0.13,4.65-0.17,6.92c-0.04,0.27,0.26,0.5,0.5,0.5c0.3,0,0.46-0.23,0.5-0.5
					c0.19-1.41,0.28-2.83,0.28-4.26c0-0.71-0.02-1.42-0.07-2.13c-0.04-0.53-0.02-1.16-0.36-1.61c-0.86-1.13-2.25,0.37-2.89,1.01
					c-0.86,0.87-1.59,1.88-2.16,2.97C80.34,117.09,81.2,117.59,81.5,117.02L81.5,117.02z"/>
			</g>
		</g>
		<g>
			<g>
				<path d="M82.22,122.3c2.04,0.26,4.14-0.22,5.87-1.32c0.54-0.34,0.04-1.21-0.5-0.86c-1.6,1.02-3.49,1.43-5.37,1.18
					c-0.27-0.03-0.5,0.25-0.5,0.5C81.72,122.1,81.95,122.27,82.22,122.3L82.22,122.3z"/>
			</g>
		</g>
		<g>
			<g>
				<path d="M89.98,121.75c-0.73,1.51-1.46,3.02-2.19,4.53c-0.12,0.24-0.07,0.54,0.18,0.68c0.22,0.13,0.57,0.06,0.68-0.18
					c0.73-1.51,1.46-3.02,2.19-4.53c0.12-0.24,0.07-0.54-0.18-0.68C90.45,121.45,90.1,121.51,89.98,121.75L89.98,121.75z"/>
			</g>
		</g>
		<g>
			<g>
				<path d="M99.85,111.84c1.42,2.14,2.33,4.68,2.39,7.26c0.03,1.16-0.15,2.5-1.02,3.36c-0.7,0.69-1.97,1.03-2.79,0.35
					c-0.49-0.41-1.2,0.3-0.71,0.71c0.99,0.82,2.31,0.82,3.42,0.23c1.24-0.67,1.86-2.01,2.04-3.35c0.41-3.11-0.75-6.49-2.46-9.05
					C100.36,110.8,99.49,111.3,99.85,111.84L99.85,111.84z"/>
			</g>
		</g>
		<g>
			<g>
				<path d="M93.17,113.14c-0.69,1.87-0.96,3.9-0.78,5.89c0.13,1.48,0.57,3.76,2.44,3.87c1.89,0.11,2.83-2.03,3.16-3.55
					c0.38-1.74,0.66-3.86-0.25-5.49c-0.78-1.41-2.87-1.93-3.79-0.37c-0.33,0.56,0.54,1.06,0.86,0.5c0.62-1.05,1.83-0.19,2.18,0.62
					c0.57,1.32,0.33,2.96,0.05,4.31c-0.15,0.71-0.35,1.43-0.75,2.05c-0.31,0.48-0.87,0.99-1.49,0.92c-1.3-0.14-1.42-2.4-1.47-3.34
					c-0.09-1.75,0.17-3.5,0.78-5.14C94.35,112.8,93.39,112.54,93.17,113.14L93.17,113.14z"/>
			</g>
		</g>
	</g>
</g>
<g>
	<g>
		<g>
			<path d="M98.29,69.1c-0.02-0.01-0.14-0.11-0.14-0.12c0,0,0.15,0.24,0.06,0.07c-0.01-0.02-0.03-0.06-0.05-0.08
				c-0.06-0.07,0.06,0.2,0.05,0.11c-0.01-0.03-0.02-0.06-0.03-0.09c-0.01-0.03-0.01-0.06-0.02-0.09c-0.03-0.09,0.01,0.27,0.02,0.1
				c0-0.02-0.02-0.17,0.01-0.19c0.01-0.01-0.06,0.27-0.01,0.13c0.01-0.03,0.02-0.06,0.02-0.09c0.03-0.14-0.04,0.12-0.05,0.11
				c-0.01-0.01,0.05-0.08,0.06-0.1c0.03-0.04,0.01-0.03-0.04,0.05c-0.06,0.07-0.07,0.09-0.04,0.05c0.03-0.02,0.06-0.06,0.08-0.08
				c-0.47,0-0.94,0-1.41,0c0.08,0.07,0.24,0.18,0.27,0.28c0,0-0.15-0.22-0.07-0.09c0.02,0.03,0.04,0.05,0.05,0.08
				c0.04,0.06,0.08,0.13,0.11,0.19c0.01,0.02,0.02,0.04,0.03,0.07c0.08,0.14-0.04-0.1-0.04-0.1c0.03,0.05,0.05,0.13,0.07,0.18
				c0.02,0.06,0.04,0.13,0.05,0.19c0.01,0.05,0.05,0.31,0.02,0.11c-0.03-0.2,0,0.04,0,0.08c0,0.06,0,0.11,0,0.17
				c0,0.03-0.01,0.06-0.01,0.1c-0.01,0.16,0.01-0.13,0.02-0.12c0.02,0.03-0.04,0.2-0.05,0.23c-0.01,0.04-0.09,0.23-0.01,0.06
				c0.08-0.18-0.02,0.03-0.04,0.07c-0.02,0.03-0.16,0.23-0.04,0.07c0.11-0.15-0.04,0.04-0.08,0.08c-0.01,0.01-0.06,0.05-0.06,0.05
				c0-0.01,0.22-0.15,0.11-0.08c-0.04,0.02-0.08,0.05-0.12,0.07c-0.16,0.1,0.24-0.08,0.06-0.02c-0.06,0.02-0.11,0.03-0.17,0.05
				c-0.02,0-0.06,0.01-0.08,0.01c0,0,0.29-0.02,0.15-0.02c-0.05,0-0.11,0-0.16,0c-0.05,0-0.11-0.02-0.16-0.01
				c-0.01,0,0.25,0.04,0.17,0.02c-0.03-0.01-0.07-0.01-0.1-0.02c-0.05-0.01-0.1-0.03-0.15-0.04c-0.03-0.01-0.05-0.02-0.08-0.03
				c-0.13-0.04,0.13,0.05,0.13,0.05c-0.02-0.03-0.11-0.05-0.14-0.07c-0.05-0.03-0.1-0.06-0.15-0.1c-0.05-0.03,0.21,0.18,0.07,0.05
				c-0.04-0.03-0.07-0.07-0.1-0.11c-0.09-0.09,0.09,0.11,0.09,0.11c0-0.01-0.03-0.05-0.04-0.06c-0.03-0.04-0.11-0.24-0.03-0.05
				c0.08,0.19,0.01,0.01,0-0.04c-0.01-0.04-0.02-0.15,0,0.04c0.03,0.19,0.01,0.08,0.01,0.04c0-0.05,0.01-0.09,0-0.14
				c0.01,0.24-0.03,0.2-0.01,0.11c0.01-0.05,0.03-0.1,0.04-0.15c0.05-0.16-0.11,0.22-0.01,0.03c0.03-0.06,0.07-0.11,0.11-0.17
				c0.07-0.1-0.15,0.17-0.06,0.08c0.02-0.02,0.05-0.05,0.07-0.08c0.05-0.06,0.11-0.11,0.17-0.16c0.01-0.01,0.07-0.07,0.08-0.07
				c0,0-0.21,0.15-0.07,0.06c0.06-0.04,0.12-0.08,0.18-0.12c0.12-0.08,0.25-0.15,0.37-0.22c0.13-0.07,0.26-0.14,0.4-0.2
				c0.04-0.02,0.08-0.04,0.11-0.05c0.13-0.06-0.02,0.04-0.06,0.03c0.03,0.01,0.19-0.07,0.24-0.09c0.08-0.03,0.16-0.04,0.24-0.06
				c0.16-0.04-0.06,0.01-0.09,0.01c0.04,0,0.08-0.01,0.12-0.01c0.01,0,0.1-0.01,0.12,0c0,0-0.26-0.07-0.09-0.01
				c0.02,0.01,0.1,0.03,0.11,0.03c-0.04,0-0.22-0.1-0.06-0.02c0.04,0.02,0.12,0.09-0.02-0.02c-0.14-0.11-0.06-0.05-0.03-0.02
				c0.01,0.01,0.03,0.03,0.04,0.04c0.11,0.08-0.12-0.12-0.09-0.12c0.02,0,0.06,0.11,0.07,0.12c-0.17-0.27-0.08-0.22-0.06-0.14
				c0.01,0.03,0.01,0.06,0.02,0.08c0.03,0.11-0.02-0.27-0.02-0.16c0,0.02,0,0.05,0,0.07c0,0.05,0,0.1-0.01,0.15
				c0,0.06,0.05-0.29,0.01-0.1c-0.01,0.05-0.06,0.14-0.06,0.18c0,0,0.12-0.25,0.06-0.13c-0.01,0.02-0.02,0.05-0.03,0.07
				c-0.02,0.04-0.04,0.08-0.07,0.12c-0.01,0.02-0.03,0.04-0.04,0.07c-0.06,0.09,0.16-0.19,0.08-0.11c-0.04,0.04-0.08,0.09-0.12,0.13
				c-0.16,0.15,0.19-0.12,0.04-0.02c-0.05,0.03-0.1,0.06-0.15,0.09c-0.11,0.06,0.13-0.06,0.13-0.06c-0.02-0.01-0.07,0.02-0.09,0.03
				c-0.02,0.01-0.05,0.01-0.08,0.02c-0.11,0.03,0.28-0.02,0.13-0.02c-0.06,0-0.3-0.02-0.11,0.01c0.19,0.03-0.07-0.02-0.12-0.03
				c-0.03-0.01-0.06-0.02-0.1-0.03c-0.18-0.05,0.22,0.11,0.05,0.02c-0.06-0.03-0.12-0.06-0.18-0.1c-0.02-0.02-0.06-0.05-0.08-0.06
				c0.13,0.1,0.16,0.13,0.1,0.08c-0.02-0.02-0.04-0.03-0.06-0.05c-0.05-0.05-0.1-0.09-0.15-0.14c-0.02-0.03-0.05-0.05-0.07-0.08
				c-0.06-0.07-0.11-0.19,0.02,0.04c-0.04-0.07-0.09-0.13-0.14-0.2c-0.04-0.07-0.08-0.14-0.12-0.21c-0.02-0.03-0.03-0.06-0.05-0.1
				c-0.02-0.04-0.08-0.19-0.02-0.03c0.06,0.15,0.01,0.03,0-0.01c-0.02-0.04-0.03-0.08-0.04-0.13c-0.03-0.08-0.05-0.17-0.07-0.26
				c-0.03,0.26-0.07,0.51-0.1,0.77c0.02-0.04,0.05-0.08,0.07-0.13c0-0.01,0.04-0.04,0.03-0.05c0,0.01-0.18,0.2-0.08,0.11
				c0.03-0.03,0.06-0.05,0.08-0.08c-0.15,0.18-0.18,0.13-0.11,0.08c0.02-0.01,0.04-0.03,0.07-0.04c0.04-0.03,0.2-0.09,0.02-0.02
				c-0.18,0.08-0.02,0.01,0.03,0c0.05-0.01,0.09-0.02,0.14-0.03c0.08-0.02-0.17,0.02-0.16,0.02c0.01,0.01,0.07-0.01,0.08-0.01
				c0.05,0,0.1,0,0.15,0c0.03,0,0.06,0.01,0.08,0.01c0.08,0-0.16-0.02-0.16-0.02c0.03,0.04,0.25,0.06,0.31,0.08
				c0.01,0,0.06,0.02,0.06,0.02c0,0-0.21-0.1-0.14-0.06c0.04,0.03,0.09,0.04,0.13,0.07c0.04,0.03,0.19,0.13,0.04,0.02
				c-0.15-0.12,0.01,0.01,0.04,0.05c0.07,0.08,0.1,0.18-0.04-0.06c0.03,0.05,0.06,0.09,0.09,0.14c0.02,0.03,0.12,0.25,0.05,0.08
				c-0.07-0.16,0.02,0.07,0.03,0.12c0.02,0.06,0.03,0.13,0.04,0.19c0.04,0.17-0.02-0.22-0.01-0.04c0.01,0.14,0,0.28-0.01,0.43
				c0,0.11,0.02-0.14,0.02-0.12c0,0.03-0.01,0.08-0.02,0.11c-0.01,0.07-0.03,0.13-0.04,0.2c-0.03,0.13-0.08,0.26-0.12,0.39
				c-0.04,0.12,0.09-0.19,0.03-0.08c-0.01,0.03-0.02,0.05-0.04,0.08c-0.03,0.06-0.06,0.12-0.09,0.18c-0.03,0.06-0.07,0.12-0.1,0.17
				c-0.05,0.08-0.2,0.24-0.01,0.03c-0.04,0.04-0.07,0.09-0.11,0.13c-0.03,0.03-0.2,0.17-0.07,0.07c0.13-0.1-0.05,0.02-0.09,0.05
				c-0.03,0.02-0.13,0.06,0.03-0.01c0.17-0.07,0.02-0.01-0.01,0c-0.04,0.01-0.09,0.02-0.14,0.03c0.27-0.08,0.17-0.02,0.06-0.02
				c-0.02,0-0.05,0-0.07,0c-0.16,0,0.14,0.01,0.13,0.02C96.86,71.06,96.71,71,96.69,71c-0.02-0.01-0.04-0.02-0.07-0.02
				c-0.11-0.03,0.21,0.1,0.11,0.05c-0.04-0.02-0.09-0.04-0.13-0.07c-0.03-0.02-0.12-0.06-0.14-0.09c0,0,0.2,0.18,0.09,0.07
				c-0.02-0.02-0.05-0.04-0.07-0.07c-0.03-0.03-0.16-0.19-0.05-0.04c0.11,0.15-0.01-0.02-0.03-0.06c-0.01-0.02-0.02-0.05-0.03-0.06
				c-0.07-0.07,0.06,0.14,0.05,0.13c-0.04-0.05-0.05-0.14-0.06-0.2c0-0.01-0.02-0.1-0.02-0.11c0.01,0,0.02,0.23,0.02,0.13
				c0-0.06-0.01-0.12-0.01-0.19c0-0.05,0.01-0.11,0.01-0.16c-0.01,0.31-0.01,0.1,0.01,0c0.02-0.06,0.04-0.12,0.06-0.18
				c0.03-0.11-0.05,0.13-0.05,0.11c0-0.02,0.04-0.08,0.05-0.1c0.06-0.12,0.13-0.22,0.2-0.33c-0.15,0.24-0.06,0.08,0,0.01
				c0.04-0.05,0.09-0.09,0.14-0.13c0.02-0.02,0.1-0.08-0.02,0.01c-0.13,0.09-0.02,0.02,0.01,0c0.06-0.04,0.13-0.07,0.2-0.12
				c0.09-0.05-0.11,0.04-0.11,0.04c0.03-0.01,0.05-0.02,0.08-0.03c0.06-0.02,0.13-0.04,0.19-0.05c0.1-0.02,0.08,0.04-0.1,0.01
				c0.03,0,0.06,0,0.08,0c0.01,0,0.08,0,0.08,0c0,0.01-0.28-0.06-0.08-0.01c0.01,0,0.08,0.02,0.08,0.02c0-0.03-0.25-0.1-0.07-0.02
				c0.09,0.04-0.12-0.08-0.12-0.09c0.01,0.01,0.02,0.02,0.03,0.03c0.05,0.05,0.04,0.04-0.03-0.04c-0.12-0.15-0.02-0.01,0,0.03
				c-0.15-0.22-0.08-0.21-0.06-0.13c0.01,0.02,0.01,0.05,0.02,0.07c0.04,0.13-0.02-0.14-0.02-0.15c-0.01,0.01,0,0.06,0,0.08
				c0,0.02-0.01,0.06,0,0.08c0,0,0.04-0.28,0.02-0.15c0,0.01-0.02,0.07-0.02,0.07c0,0,0.11-0.25,0.06-0.14
				c-0.01,0.02-0.02,0.03-0.03,0.05c-0.04,0.1,0.18-0.2,0.08-0.11c-0.03,0.02,0.22-0.16,0.13-0.1c-0.12,0.08,0.11-0.04,0.13-0.05
				c-0.04,0.01-0.12,0.02,0.06,0c0.1-0.01,0.12-0.01,0.07-0.01c-0.02,0-0.05,0-0.07,0c0,0,0.24,0.02,0.16,0.02
				c-0.11-0.01-0.06-0.11,0.09,0.04c-0.01-0.01-0.04-0.02-0.06-0.03c-0.08-0.05,0.18,0.19,0.08,0.06c-0.01-0.01-0.03-0.04-0.05-0.05
				c-0.06-0.04,0.1,0.16,0.07,0.09c-0.01-0.03-0.03-0.06-0.05-0.08c-0.05-0.06,0.05,0.19,0.05,0.11c0-0.03-0.01-0.06-0.02-0.09
				c-0.04-0.11,0.04,0.24,0.02,0.13c0-0.02,0-0.05,0-0.07c-0.03,0.18-0.04,0.23-0.02,0.15c0.02-0.08,0-0.03-0.06,0.13
				c-0.61-0.08-1.22-0.16-1.83-0.24c0.05,0.17-0.02-0.27,0,0c0.01,0.19,0.04-0.26,0-0.02c-0.02,0.07-0.01,0.04,0.05-0.11
				c-0.02,0.03-0.03,0.07-0.05,0.1c-0.06,0.09-0.04,0.06,0.06-0.07c-0.02,0.03-0.05,0.05-0.08,0.08c-0.39,0.35-0.38,1.06,0,1.41
				c0.42,0.38,1,0.37,1.41,0c0.53-0.48,0.72-1.24,0.54-1.92c-0.1-0.38-0.45-0.66-0.83-0.72c-0.36-0.05-0.84,0.12-1,0.48
				c-0.12,0.27-0.21,0.53-0.2,0.84c0.01,0.3,0.1,0.61,0.26,0.87c0.31,0.51,0.81,0.83,1.4,0.88c0.55,0.05,1.09-0.24,1.38-0.7
				c0.26-0.41,0.3-0.9,0.2-1.37c-0.23-1.11-1.53-1.56-2.52-1.21c-0.93,0.34-1.66,1.11-1.92,2.07c-0.25,0.92-0.03,1.96,0.7,2.6
				c0.74,0.65,1.78,0.87,2.68,0.42c0.83-0.42,1.36-1.41,1.57-2.28c0.24-1,0.11-2.05-0.55-2.86c-0.47-0.58-1.31-0.91-2.05-0.85
				c-0.4,0.03-0.81,0.12-1.14,0.35c-0.51,0.35-0.96,0.92-0.8,1.58c0.2,0.84,0.69,1.62,1.37,2.14c0.75,0.58,1.73,0.75,2.6,0.33
				c0.63-0.31,1.13-1.01,1.24-1.7c0.08-0.47,0.05-0.91-0.17-1.34c-0.22-0.43-0.64-0.73-1.09-0.88c-0.95-0.31-1.97,0.17-2.78,0.64
				c-0.73,0.42-1.48,1.06-1.65,1.93c-0.1,0.5-0.05,0.96,0.16,1.42c0.17,0.35,0.45,0.62,0.76,0.85c0.6,0.44,1.41,0.56,2.13,0.41
				c0.86-0.17,1.48-0.89,1.75-1.69c0.27-0.81,0.11-1.71-0.27-2.46c-0.17-0.33-0.41-0.65-0.69-0.89c-0.42-0.36-1-0.39-1.41,0
				c-0.41,0.39-0.64,0.98-0.62,1.54c0.03,0.55,0.24,1.15,0.69,1.51c0.22,0.17,0.42,0.29,0.71,0.29c0.25,0,0.54-0.11,0.71-0.29
				C98.62,70.16,98.73,69.45,98.29,69.1L98.29,69.1z"/>
		</g>
	</g>
	<g>
		<g>
			<g>
				<path d="M106.53,66.96c-1.55,3.24-2.43,6.77-2.52,10.36c-0.04,1.58,0.02,3.35,0.99,4.69c0.82,1.13,2.23,1.82,3.61,1.41
					c0.62-0.18,0.35-1.15-0.27-0.96c-1.4,0.42-2.6-0.75-3.02-2c-0.45-1.34-0.36-2.87-0.26-4.26c0.21-3.03,1.02-6,2.33-8.73
					C107.67,66.89,106.8,66.38,106.53,66.96L106.53,66.96z"/>
			</g>
		</g>
		<g>
			<g>
				<path d="M110.71,75.14c1.58-0.07,3-1.35,3.14-2.95c0.12-1.47-1.06-2.55-2.45-2.69c-1.56-0.15-2.66,0.99-2.65,2.53
					c0.01,0.98,0.3,2,0.61,2.92c0.31,0.93,0.71,1.83,1.2,2.69c0.28,0.48,0.58,0.95,0.91,1.4c0.29,0.39,0.6,0.78,1.06,0.98
					c0.84,0.37,1.99-0.3,1.69-1.29c-0.19-0.61-1.15-0.35-0.96,0.27c0.07,0.24-0.37,0.09-0.45,0.04c-0.27-0.18-0.46-0.49-0.65-0.75
					c-0.41-0.58-0.77-1.19-1.09-1.83c-0.61-1.21-1.08-2.56-1.27-3.91c-0.14-1.02,0.15-2.05,1.33-2.06c0.79-0.01,1.62,0.46,1.73,1.3
					c0.15,1.19-1,2.3-2.14,2.35C110.07,74.17,110.07,75.17,110.71,75.14L110.71,75.14z"/>
			</g>
		</g>
		<g>
			<g>
				<path d="M116.71,79.75c-1.09,1.69-1.99,3.48-2.73,5.35c-0.1,0.25,0.11,0.55,0.35,0.62c0.28,0.08,0.52-0.1,0.62-0.35
					c0.71-1.78,1.59-3.49,2.63-5.11C117.92,79.71,117.05,79.21,116.71,79.75L116.71,79.75z"/>
			</g>
		</g>
		<g>
			<g>
				<path d="M120.2,73.35c0.55-1.58,1.46-3,2.65-4.18c-0.28-0.07-0.56-0.15-0.84-0.22c0.43,2.98,0.33,6.04-0.28,8.99
					c-0.13,0.63,0.83,0.9,0.96,0.27c0.64-3.14,0.73-6.35,0.28-9.52c-0.06-0.39-0.59-0.46-0.84-0.22c-1.32,1.3-2.3,2.87-2.91,4.62
					C119.02,73.69,119.98,73.95,120.2,73.35L120.2,73.35z"/>
			</g>
		</g>
		<g>
			<g>
				<path d="M120.09,80c1.52-0.88,3.26-1.27,5.01-1.16c0.64,0.04,0.64-0.96,0-1c-1.92-0.12-3.85,0.34-5.51,1.3
					C119.03,79.46,119.53,80.32,120.09,80L120.09,80z"/>
			</g>
		</g>
		<g>
			<g>
				<path d="M127.48,67.9c1.28,2.93,2.62,6.05,2.43,9.31c-0.16,2.77-1.59,5.4-3.8,7.08c-0.51,0.38-0.01,1.25,0.5,0.86
					c2.38-1.81,3.95-4.5,4.26-7.48c0.37-3.6-1.12-7.05-2.53-10.27C128.08,66.81,127.22,67.32,127.48,67.9L127.48,67.9z"/>
			</g>
		</g>
	</g>
</g>
</svg>
