<?xml version="1.0" encoding="utf-8"?>
<!-- Generator: Adobe Illustrator 23.1.1, SVG Export Plug-In . SVG Version: 6.00 Build 0)  -->
<svg version="1.1" id="Layer_1" xmlns="http://www.w3.org/2000/svg" xmlns:xlink="http://www.w3.org/1999/xlink" x="0px" y="0px"
	 viewBox="0 0 288 216" style="enable-background:new 0 0 288 216;" xml:space="preserve">
<style type="text/css">
	.st0{fill:#A7A9AC;}
	.st1{fill:none;stroke:#000000;stroke-miterlimit:10;}
	.st2{fill:#ED1C24;}
</style>
<g>
	<g>
		<g>
			<path class="st0" d="M260.53,120.37c4.73-3.78,9.35-7.71,13.82-11.8c0.53-0.48,1.06-0.97,1.58-1.46c0.53-0.49,1.12-0.95,1.25-1.7
				c0.25-1.35-1.28-2.11-2.26-2.65c-1.98-1.1-4.14-1.81-6.24-2.63c-2.27-0.89-4.48-1.97-6.03-3.91c-0.07,0.52-0.13,1.05-0.2,1.57
				c0.35-0.21,0.75-0.19,1.05,0.09c0.94,0.88,2.36-0.53,1.41-1.41c-0.95-0.89-2.35-1.08-3.48-0.4c-0.6,0.36-0.6,1.07-0.2,1.57
				c2.69,3.38,7.07,4.31,10.84,5.95c0.97,0.42,1.92,0.9,2.81,1.49c0.08,0.05,0.21,0.17,0.29,0.2c0.01,0.01,0.03,0.02,0.04,0.03
				c0.1,0.11,0.09,0.02-0.04-0.25c-0.07-0.02-0.6,0.57-0.67,0.63c-0.56,0.52-1.11,1.03-1.67,1.54c-2.09,1.91-4.21,3.78-6.36,5.62
				c-2.42,2.07-4.88,4.11-7.37,6.1c-0.42,0.34-0.35,1.06,0,1.41C259.53,120.79,260.1,120.71,260.53,120.37L260.53,120.37z"/>
		</g>
	</g>
	<g>
		<g>
			<path class="st0" d="M16.24,90.35c-4.18,1.68-8.19,3.77-11.93,6.29c-0.88,0.6-1.9,1.18-2.67,1.92c-0.87,0.85-0.72,1.96,0.06,2.8
				c0.8,0.86,1.72,1.64,2.59,2.44c0.88,0.81,1.77,1.62,2.66,2.42c2.03,1.81,4.09,3.58,6.18,5.32c0.98,0.82,2.41-0.59,1.41-1.41
				c-3.32-2.75-6.56-5.6-9.72-8.55c-0.35-0.33-0.7-0.66-1.05-0.99c-0.19-0.18-0.38-0.4-0.59-0.56c-0.04-0.03-0.11-0.16-0.16-0.17
				c0.09,0.03-0.13,0.13,0.03,0.13c0.1,0,0.41-0.31,0.51-0.39c0.18-0.13,0.36-0.26,0.55-0.39c0.43-0.3,0.86-0.6,1.3-0.89
				c1.68-1.13,3.41-2.17,5.19-3.13c2-1.08,4.06-2.05,6.17-2.9c0.5-0.2,0.85-0.67,0.7-1.23C17.34,90.57,16.74,90.14,16.24,90.35
				L16.24,90.35z"/>
		</g>
	</g>
	<g>
		<g>
			<path class="st0" d="M1.93,101.47c16.95,4.21,34.5,4.14,51.84,4.01c18.03-0.14,36.06-0.28,54.09-0.42
				c35.95-0.28,71.93-0.96,107.88-0.59c20.05,0.2,40.11,0.95,60.07,2.99c0.4,0.04,0.9-0.34,0.96-0.73c0.32-1.9-0.97-3.64-2.96-3.61
				c-1.29,0.02-1.29,2.02,0,2c0.57-0.01,1.14,0.42,1.03,1.08c0.32-0.24,0.64-0.49,0.96-0.73c-35.65-3.65-71.53-3.15-107.31-2.87
				c-35.88,0.28-71.76,0.56-107.64,0.84c-19.49,0.15-39.34,0.86-58.41-3.88C1.21,99.23,0.68,101.16,1.93,101.47L1.93,101.47z"/>
		</g>
	</g>
</g>
<g>
	<g>
		<g>
			<path class="st0" d="M125.96,44.53c1.94-4.3,4.26-8.42,6.9-12.32c0.67-0.99,1.37-1.97,2.08-2.93c0.23-0.3,0.57-1.02,0.93-1.18
				c0.19-0.09,0.35,0.17,0.54,0.39c1.66,1.95,3.24,3.96,4.85,5.94c1.83,2.24,3.65,4.47,5.48,6.71c0.42,0.52,1.26,0.3,1.57-0.2
				c0.37-0.6,0.74-1.21,1.12-1.81c0.68-1.1-1.05-2.1-1.73-1.01c-0.37,0.6-0.74,1.21-1.12,1.81c0.52-0.07,1.05-0.13,1.57-0.2
				c-1.77-2.17-3.55-4.34-5.32-6.52c-0.86-1.05-1.72-2.11-2.58-3.16c-0.85-1.05-1.66-2.17-2.58-3.15c-0.76-0.82-1.91-1.15-2.88-0.47
				c-0.48,0.33-0.8,0.83-1.15,1.29c-0.4,0.53-0.79,1.06-1.17,1.59c-1.52,2.12-2.95,4.31-4.27,6.56c-1.45,2.48-2.77,5.04-3.96,7.66
				c-0.22,0.49-0.14,1.08,0.36,1.37C125.02,45.14,125.73,45.03,125.96,44.53L125.96,44.53z"/>
		</g>
	</g>
	<g>
		<g>
			<path class="st0" d="M128,164.56c1.84,3.25,4.07,6.29,6.59,9.05c0.6,0.66,1.2,1.4,1.91,1.93c0.81,0.61,1.75,0.47,2.49-0.16
				c1.51-1.28,2.87-2.82,4.24-4.24c1.6-1.66,3.16-3.34,4.69-5.06c0.85-0.96-0.56-2.38-1.41-1.41c-1.53,1.72-3.09,3.41-4.69,5.06
				c-0.83,0.86-1.67,1.71-2.52,2.56c-0.4,0.4-0.79,0.79-1.19,1.18c-0.15,0.15-0.42,0.32-0.54,0.5c0.2,0.06,0.24,0.05,0.1-0.02
				c-0.07-0.06-0.14-0.13-0.2-0.2c-3.03-3.02-5.64-6.46-7.75-10.19C129.09,162.43,127.37,163.44,128,164.56L128,164.56z"/>
		</g>
	</g>
	<g>
		<g>
			<path class="st0" d="M134.69,27.48c-0.4,19.05-0.57,38.1-0.49,57.15c0.08,18.96,0.39,37.91,0.95,56.86
				c0.31,10.69,0.7,21.38,1.17,32.07c0.06,1.28,2.06,1.29,2,0c-0.83-19.04-1.41-38.09-1.76-57.14c-0.34-18.95-0.45-37.91-0.31-56.86
				c0.08-10.69,0.23-21.38,0.45-32.07C136.72,26.19,134.72,26.19,134.69,27.48L134.69,27.48z"/>
		</g>
	</g>
</g>
<line class="st1" x1="278.19" y1="73" x2="277.82" y2="73.37"/>
<g>
	<g>
		<g>
			<path d="M131.72,55.92c1.63,0.2,3.27,0.25,4.91,0.14c0.27-0.02,0.5-0.22,0.5-0.5c0-0.26-0.23-0.52-0.5-0.5
				c-1.64,0.11-3.28,0.07-4.91-0.14c-0.27-0.03-0.5,0.25-0.5,0.5C131.22,55.72,131.45,55.89,131.72,55.92L131.72,55.92z"/>
		</g>
	</g>
	<g>
		<g>
			<g>
				<path d="M128.3,51.68c-0.42,2.53-0.66,5.09-0.7,7.65c-0.01,0.64,0.99,0.64,1,0c0.04-2.48,0.26-4.95,0.66-7.39
					C129.37,51.31,128.41,51.04,128.3,51.68L128.3,51.68z"/>
			</g>
		</g>
	</g>
</g>
<g>
	<g>
		<g>
			<path d="M134.63,158.13c1.51-0.88,3.26-1.24,5-1.06c0.27,0.03,0.5-0.25,0.5-0.5c0-0.29-0.23-0.47-0.5-0.5
				c-1.91-0.2-3.85,0.23-5.5,1.2C133.57,157.59,134.07,158.45,134.63,158.13L134.63,158.13z"/>
		</g>
	</g>
	<g>
		<g>
			<g>
				<path d="M142.42,156.6c0.77,0.21,1.6,0.24,2.39,0.13c0.73-0.1,1.45-0.3,2.04-0.75c0.21-0.17,0.17-0.53,0-0.71
					c-0.21-0.21-0.49-0.17-0.71,0c0.08-0.06-0.06,0.03-0.09,0.05c-0.06,0.04-0.12,0.07-0.18,0.1c-0.14,0.07-0.15,0.07-0.32,0.13
					c-0.28,0.09-0.66,0.18-0.9,0.2c-0.69,0.08-1.34,0.06-1.97-0.12C142.06,155.47,141.8,156.43,142.42,156.6L142.42,156.6z"/>
			</g>
		</g>
		<g>
			<g>
				<path d="M148.14,152.56c0,2.75,0,5.51,0,8.26c0,0.64,1,0.64,1,0c0-2.75,0-5.51,0-8.26
					C149.14,151.92,148.14,151.91,148.14,152.56L148.14,152.56z"/>
			</g>
		</g>
	</g>
</g>
<g>
	<g>
		<g>
			<g>
				<path d="M159.42,88.89c-0.11,1.85-0.14,3.69-0.09,5.54c0.02,0.64,1.01,0.65,1,0c0-0.15,0.02-0.29,0.12-0.41
					c0.18-0.21,0.2-0.51,0-0.71c-0.18-0.18-0.53-0.21-0.71,0c-0.27,0.32-0.42,0.69-0.42,1.11c0.33,0,0.67,0,1,0
					c-0.05-1.85-0.02-3.7,0.09-5.54C160.46,88.25,159.46,88.25,159.42,88.89L159.42,88.89z"/>
			</g>
		</g>
		<g>
			<g>
				<path d="M162.05,87.76c-0.57,1.81-0.68,3.72-0.38,5.58c0.04,0.27,0.37,0.42,0.62,0.35c0.28-0.08,0.39-0.35,0.35-0.62
					c-0.28-1.69-0.13-3.42,0.38-5.05C163.21,87.41,162.24,87.15,162.05,87.76L162.05,87.76z"/>
			</g>
		</g>
		<g>
			<g>
				<path d="M158.04,89.82c1.1-0.45,2.19-0.91,3.29-1.36c1-0.41,2.02-0.82,2.93-1.42c0.54-0.35,0.04-1.22-0.5-0.86
					c-0.87,0.57-1.84,0.97-2.8,1.36c-1.06,0.44-2.12,0.87-3.18,1.31c-0.25,0.1-0.43,0.33-0.35,0.62
					C157.49,89.71,157.79,89.93,158.04,89.82L158.04,89.82z"/>
			</g>
		</g>
		<g>
			<g>
				<path d="M166.1,90.28c-2.37,1.96-4.41,4.38-5.69,7.19c-0.27,0.58,0.6,1.09,0.86,0.5c1.26-2.75,3.22-5.07,5.54-6.99
					C167.31,90.57,166.59,89.87,166.1,90.28L166.1,90.28z"/>
			</g>
		</g>
		<g>
			<g>
				<path d="M164.85,94.87c0.13-0.08,0.18-0.11,0.34-0.14c-0.07,0.01,0.08-0.01,0.09-0.01c0.07,0,0.15,0,0.22,0.01
					c-0.06-0.01,0.12,0.03,0.14,0.04c0.05,0.02,0.11,0.03,0.16,0.06c0.04,0.02,0.2,0.11,0.28,0.17c0.37,0.29,0.52,0.8,0.4,1.3
					c-0.13,0.56-0.49,0.96-1.01,1.2c-0.62,0.29-1.25,0.7-1.09,1.48c0.05,0.23,0.27,0.34,0.48,0.37c1.25,0.13,2.51,0.19,3.76,0.18
					c0.64-0.01,0.64-1.01,0-1c-1.26,0.01-2.51-0.05-3.76-0.18c0.16,0.12,0.32,0.24,0.48,0.37c0.02,0.07-0.04,0.03,0,0.01
					c-0.06,0.03,0.05-0.03,0,0.01c0.09-0.08,0.14-0.12,0.27-0.19c0.22-0.12,0.46-0.21,0.67-0.35c0.51-0.34,0.88-0.84,1.08-1.41
					c0.41-1.16-0.12-2.42-1.27-2.89c-0.57-0.24-1.24-0.21-1.77,0.12C163.8,94.35,164.3,95.22,164.85,94.87L164.85,94.87z"/>
			</g>
		</g>
	</g>
</g>
<g>
	<g>
		<g>
			<path d="M183.28,99.54c-0.39,3.3-0.59,6.63-0.6,9.95c0,0.64,1,0.64,1,0c0.01-3.33,0.21-6.65,0.6-9.95
				C184.36,98.91,183.36,98.91,183.28,99.54L183.28,99.54z"/>
		</g>
	</g>
	<g>
		<g>
			<g>
				<path d="M178.43,95.82c-0.48,2.01-0.61,4.09-0.34,6.14c0.04,0.27,0.2,0.5,0.5,0.5c0.24,0,0.54-0.23,0.5-0.5
					c-0.26-1.96-0.16-3.95,0.3-5.88C179.55,95.46,178.58,95.19,178.43,95.82L178.43,95.82z"/>
			</g>
		</g>
		<g>
			<g>
				<path d="M181.34,95.18c-0.2,2.31-0.1,4.62,0.27,6.9c0.1,0.63,1.07,0.36,0.96-0.27c-0.35-2.19-0.42-4.42-0.23-6.64
					C182.4,94.53,181.4,94.54,181.34,95.18L181.34,95.18z"/>
			</g>
		</g>
		<g>
			<g>
				<path d="M175.56,98.45c2.59-1.85,5.54-3.1,8.67-3.69c0.63-0.12,0.36-1.08-0.27-0.96c-3.2,0.6-6.26,1.89-8.91,3.79
					C174.54,97.95,175.04,98.82,175.56,98.45L175.56,98.45z"/>
			</g>
		</g>
	</g>
</g>
<g>
	<g>
		<g>
			<g>
				<path d="M217.16,87.58c0.65-0.39,1.36-0.68,2.1-0.84c0.59-0.13,1.39-0.21,1.9,0.18c0.63,0.48-0.19,1.12-0.63,1.35
					c-0.79,0.41-1.72,0.54-2.58,0.7c-0.51,0.09-0.44,0.83,0,0.96c0.67,0.2,1.33,0.43,1.94,0.77c0.46,0.26,1.03,0.62,1.22,1.15
					c0.13,0.37-0.07,0.75-0.32,1c-0.4,0.4-0.96,0.55-1.51,0.53c-0.64-0.01-0.64,0.99,0,1c1.4,0.03,3.13-1,2.84-2.61
					c-0.13-0.74-0.75-1.31-1.35-1.71c-0.77-0.52-1.67-0.84-2.56-1.1c0,0.32,0,0.64,0,0.96c1.08-0.2,2.28-0.39,3.2-1.03
					c0.81-0.56,1.35-1.66,0.63-2.52c-0.62-0.73-1.69-0.82-2.57-0.7c-1,0.13-1.96,0.51-2.83,1.02
					C216.1,87.05,216.6,87.91,217.16,87.58L217.16,87.58z"/>
			</g>
		</g>
		<g>
			<g>
				<path d="M224.43,88.07c0,1.24,0.01,2.48,0.01,3.72c0,0.64,1,0.64,1,0c0-1.24-0.01-2.48-0.01-3.72
					C225.43,87.43,224.43,87.43,224.43,88.07L224.43,88.07z"/>
			</g>
		</g>
		<g>
			<g>
				<path d="M226.68,86.83c0,1.14,0,2.27,0,3.41c0,0.27,0.23,0.5,0.5,0.5c0.27,0,0.5-0.23,0.5-0.5c0-1.14,0-2.27,0-3.41
					c0-0.27-0.23-0.5-0.5-0.5C226.91,86.33,226.68,86.56,226.68,86.83L226.68,86.83z"/>
			</g>
		</g>
		<g>
			<g>
				<path d="M223.41,88.95c1.67-0.83,3.34-1.66,5-2.49c0.58-0.29,0.07-1.15-0.5-0.86c-1.67,0.83-3.34,1.66-5,2.49
					C222.33,88.38,222.84,89.24,223.41,88.95L223.41,88.95z"/>
			</g>
		</g>
		<g>
			<g>
				<path d="M218.46,96.88c2.77-1.55,5.74-2.7,8.82-3.47c0.62-0.16,0.36-1.12-0.27-0.96c-3.16,0.79-6.22,1.98-9.06,3.57
					C217.39,96.33,217.9,97.2,218.46,96.88L218.46,96.88z"/>
			</g>
		</g>
		<g>
			<g>
				<path d="M221.82,96.96c0.66-0.1,1.47-0.21,2.09,0.09c0.61,0.3,0.48,0.9,0.11,1.35c-0.47,0.6-1.21,0.88-1.89,1.17
					c-0.75,0.32-1.49,0.64-2.09,1.2c-0.44,0.42,0.12,1,0.61,0.79c1.92-0.84,4.12-1.08,6.17-0.73c0.63,0.11,0.9-0.86,0.27-0.96
					c-2.35-0.4-4.76-0.13-6.94,0.83c0.2,0.26,0.4,0.52,0.61,0.79c0.7-0.66,1.69-0.93,2.55-1.34c0.82-0.39,1.59-0.97,1.92-1.85
					c0.32-0.84-0.05-1.72-0.85-2.12c-0.87-0.43-1.9-0.31-2.82-0.18c-0.27,0.04-0.42,0.38-0.35,0.62
					C221.28,96.9,221.55,97,221.82,96.96L221.82,96.96z"/>
			</g>
		</g>
	</g>
</g>
<g>
	<g>
		<g>
			<path class="st2" d="M151.9,33.81c0.31,6.72,0.3,13.46-0.03,20.19c-0.28,5.65-0.84,11.28-1.47,16.9
				c-0.53,4.76-1.09,9.61-2.63,14.17c-1.07,3.18-2.81,6.24-4.91,8.69c-2.2,2.56-4.68,4.87-6.91,7.41c-2.09,2.37-4.07,4.84-6.03,7.33
				c-1.75,2.23-3.52,4.45-5.16,6.76c-2.19,3.08-4.04,6.37-5.4,9.9c-1.54,4.01-2.42,8.25-3.14,12.47c-2.02,11.98-3,24.2-3.36,36.33
				c-0.05,1.79-0.09,3.58-0.11,5.38c-0.02,1.29,1.98,1.29,2,0c0.15-12.44,1.02-24.9,2.79-37.22c0.69-4.8,1.5-9.63,2.99-14.26
				c1.08-3.36,2.62-6.51,4.54-9.5c1.33-2.07,2.82-4.04,4.33-5.98c2.03-2.61,4.07-5.22,6.2-7.76c2.49-2.95,5.2-5.66,7.82-8.49
				c2.19-2.37,4.03-5.06,5.31-8.02c1.79-4.13,2.56-8.57,3.16-13.01c1.59-11.9,2.44-23.92,2.19-35.93c-0.04-1.79-0.1-3.57-0.18-5.36
				C153.84,32.53,151.84,32.52,151.9,33.81L151.9,33.81z"/>
		</g>
	</g>
	<g>
		<g>
			<path class="st2" d="M148.7,40.81c0.6-1.37,1.25-2.72,1.97-4.03c0.36-0.66,0.73-1.3,1.12-1.94c0.32-0.52,0.61-1.15,1.08-1.57
				c0.29-0.26,0.3-0.25,0.55,0.1c0.42,0.57,0.77,1.21,1.11,1.84c0.69,1.26,1.24,2.56,1.68,3.93c0.39,1.22,2.32,0.7,1.93-0.53
				c-0.54-1.68-1.25-3.31-2.13-4.84c-0.74-1.29-1.78-3.22-3.59-2.54c-0.76,0.29-1.29,0.92-1.72,1.59c-0.47,0.72-0.91,1.47-1.34,2.21
				c-0.88,1.55-1.68,3.15-2.39,4.78c-0.22,0.49-0.15,1.07,0.36,1.37C147.75,41.42,148.48,41.31,148.7,40.81L148.7,40.81z"/>
		</g>
	</g>
	<g>
		<g>
			<path class="st2" d="M107.26,174.32c2.16,1.93,3.97,4.19,5.37,6.73c0.33,0.6,1.1,0.61,1.57,0.2c1.9-1.64,3.5-3.63,4.71-5.83
				c0.62-1.13-1.11-2.14-1.73-1.01c-1.13,2.07-2.61,3.89-4.4,5.43c0.52,0.07,1.05,0.13,1.57,0.2c-1.48-2.67-3.41-5.1-5.68-7.14
				C107.71,172.05,106.29,173.46,107.26,174.32L107.26,174.32z"/>
		</g>
	</g>
</g>
<g>
	<g>
		<g>
			<path class="st2" d="M200.63,34.51c0.31,6.72,0.3,13.46-0.03,20.19c-0.28,5.65-0.84,11.28-1.47,16.9
				c-0.53,4.76-1.09,9.61-2.63,14.17c-1.07,3.18-2.81,6.24-4.91,8.69c-2.2,2.56-4.68,4.87-6.91,7.41c-2.09,2.37-4.07,4.84-6.03,7.33
				c-1.75,2.23-3.52,4.45-5.16,6.76c-2.19,3.08-4.04,6.37-5.4,9.9c-1.54,4.01-2.42,8.25-3.14,12.47c-2.02,11.98-3,24.2-3.36,36.33
				c-0.05,1.79-0.09,3.58-0.11,5.38c-0.02,1.29,1.98,1.29,2,0c0.15-12.44,1.02-24.9,2.79-37.22c0.69-4.8,1.5-9.63,2.99-14.26
				c1.08-3.36,2.62-6.51,4.54-9.5c1.33-2.07,2.82-4.04,4.33-5.98c2.03-2.61,4.07-5.22,6.2-7.76c2.49-2.95,5.2-5.66,7.82-8.49
				c2.19-2.37,4.03-5.06,5.31-8.02c1.79-4.13,2.56-8.57,3.16-13.01c1.59-11.9,2.44-23.92,2.19-35.93c-0.04-1.79-0.1-3.57-0.18-5.36
				C202.57,33.23,200.57,33.22,200.63,34.51L200.63,34.51z"/>
		</g>
	</g>
	<g>
		<g>
			<path class="st2" d="M197.44,41.51c0.6-1.37,1.25-2.72,1.97-4.03c0.36-0.66,0.73-1.3,1.12-1.94c0.32-0.52,0.61-1.15,1.08-1.57
				c0.29-0.26,0.3-0.25,0.55,0.1c0.42,0.57,0.77,1.21,1.11,1.84c0.69,1.26,1.24,2.56,1.68,3.93c0.39,1.22,2.32,0.7,1.93-0.53
				c-0.54-1.68-1.25-3.31-2.13-4.84c-0.74-1.29-1.78-3.22-3.59-2.54c-0.76,0.29-1.29,0.92-1.72,1.59c-0.47,0.72-0.91,1.47-1.34,2.21
				c-0.88,1.55-1.68,3.15-2.39,4.78c-0.22,0.49-0.15,1.07,0.36,1.37C196.49,42.12,197.22,42.01,197.44,41.51L197.44,41.51z"/>
		</g>
	</g>
	<g>
		<g>
			<path class="st2" d="M155.99,175.02c2.16,1.93,3.97,4.19,5.37,6.73c0.33,0.6,1.1,0.61,1.57,0.2c1.9-1.64,3.5-3.63,4.71-5.83
				c0.62-1.13-1.11-2.14-1.73-1.01c-1.13,2.07-2.61,3.89-4.4,5.43c0.52,0.07,1.05,0.13,1.57,0.2c-1.48-2.67-3.41-5.1-5.68-7.14
				C156.45,172.75,155.03,174.16,155.99,175.02L155.99,175.02z"/>
		</g>
	</g>
</g>
<g>
	<g>
		<g>
			<path class="st2" d="M103.06,36.2c0.31,6.72,0.3,13.46-0.03,20.19c-0.28,5.65-0.84,11.28-1.47,16.9
				c-0.53,4.76-1.09,9.61-2.63,14.17c-1.07,3.18-2.81,6.24-4.91,8.69c-2.2,2.56-4.68,4.87-6.91,7.41c-2.09,2.37-4.07,4.84-6.03,7.33
				c-1.75,2.23-3.52,4.45-5.16,6.76c-2.19,3.08-4.04,6.37-5.4,9.9c-1.54,4.01-2.42,8.25-3.14,12.47c-2.02,11.98-3,24.2-3.36,36.33
				c-0.05,1.79-0.09,3.58-0.11,5.38c-0.02,1.29,1.98,1.29,2,0c0.15-12.44,1.02-24.9,2.79-37.22c0.69-4.8,1.5-9.63,2.99-14.26
				c1.08-3.36,2.62-6.51,4.54-9.5c1.33-2.07,2.82-4.04,4.33-5.98c2.03-2.61,4.07-5.22,6.2-7.76c2.49-2.95,5.2-5.66,7.82-8.49
				c2.19-2.37,4.03-5.06,5.31-8.02c1.79-4.13,2.56-8.57,3.16-13.01c1.59-11.9,2.44-23.92,2.19-35.93c-0.04-1.79-0.1-3.57-0.18-5.36
				C105,34.92,103,34.91,103.06,36.2L103.06,36.2z"/>
		</g>
	</g>
	<g>
		<g>
			<path class="st2" d="M99.86,43.2c0.6-1.37,1.25-2.72,1.97-4.03c0.36-0.66,0.73-1.3,1.12-1.94c0.32-0.52,0.61-1.15,1.08-1.57
				c0.29-0.26,0.3-0.25,0.55,0.1c0.42,0.57,0.77,1.21,1.11,1.84c0.69,1.26,1.24,2.56,1.68,3.93c0.39,1.22,2.32,0.7,1.93-0.53
				c-0.54-1.68-1.25-3.31-2.13-4.84c-0.74-1.29-1.78-3.22-3.59-2.54c-0.76,0.29-1.29,0.92-1.72,1.59c-0.47,0.72-0.91,1.47-1.34,2.21
				c-0.88,1.55-1.68,3.15-2.39,4.78c-0.22,0.49-0.15,1.07,0.36,1.37C98.92,43.81,99.65,43.7,99.86,43.2L99.86,43.2z"/>
		</g>
	</g>
	<g>
		<g>
			<path class="st2" d="M58.42,176.71c2.16,1.93,3.97,4.19,5.37,6.73c0.33,0.6,1.1,0.61,1.57,0.2c1.9-1.64,3.5-3.63,4.71-5.83
				c0.62-1.13-1.11-2.14-1.73-1.01c-1.13,2.07-2.61,3.89-4.4,5.43c0.52,0.07,1.05,0.13,1.57,0.2c-1.48-2.67-3.41-5.1-5.68-7.14
				C58.88,174.44,57.46,175.85,58.42,176.71L58.42,176.71z"/>
		</g>
	</g>
</g>
<g>
	<g>
		<g>
			<path class="st2" d="M51.87,36.48c0.31,6.72,0.3,13.46-0.03,20.19c-0.28,5.65-0.84,11.28-1.47,16.9
				c-0.53,4.76-1.09,9.61-2.63,14.17c-1.07,3.18-2.81,6.24-4.91,8.69c-2.2,2.56-4.68,4.87-6.91,7.41c-2.09,2.37-4.07,4.84-6.03,7.33
				c-1.75,2.23-3.52,4.45-5.16,6.76c-2.19,3.08-4.04,6.37-5.4,9.9c-1.54,4.01-2.42,8.25-3.14,12.47c-2.02,11.98-3,24.2-3.36,36.33
				c-0.05,1.79-0.09,3.58-0.11,5.38c-0.02,1.29,1.98,1.29,2,0c0.15-12.44,1.02-24.9,2.79-37.22c0.69-4.8,1.5-9.63,2.99-14.26
				c1.08-3.36,2.62-6.51,4.54-9.5c1.33-2.07,2.82-4.04,4.33-5.98c2.03-2.61,4.07-5.22,6.2-7.76c2.49-2.95,5.2-5.66,7.82-8.49
				c2.19-2.37,4.03-5.06,5.31-8.02c1.79-4.13,2.56-8.57,3.16-13.01c1.59-11.9,2.44-23.92,2.19-35.93c-0.04-1.79-0.1-3.57-0.18-5.36
				C53.81,35.2,51.81,35.19,51.87,36.48L51.87,36.48z"/>
		</g>
	</g>
	<g>
		<g>
			<path class="st2" d="M48.68,43.49c0.6-1.37,1.25-2.72,1.97-4.03c0.36-0.66,0.73-1.3,1.12-1.94c0.32-0.52,0.61-1.15,1.08-1.57
				c0.29-0.26,0.3-0.25,0.55,0.1c0.42,0.57,0.77,1.21,1.11,1.84c0.69,1.26,1.24,2.56,1.68,3.93c0.39,1.22,2.32,0.7,1.93-0.53
				c-0.54-1.68-1.25-3.31-2.13-4.84c-0.74-1.29-1.78-3.22-3.59-2.54c-0.76,0.29-1.29,0.92-1.72,1.59c-0.47,0.72-0.91,1.47-1.34,2.21
				c-0.88,1.55-1.68,3.15-2.39,4.78c-0.22,0.49-0.15,1.07,0.36,1.37C47.73,44.09,48.46,43.98,48.68,43.49L48.68,43.49z"/>
		</g>
	</g>
	<g>
		<g>
			<path class="st2" d="M7.23,176.99c2.16,1.93,3.97,4.19,5.37,6.73c0.33,0.6,1.1,0.61,1.57,0.2c1.9-1.64,3.5-3.63,4.71-5.83
				c0.62-1.13-1.11-2.14-1.73-1.01c-1.13,2.07-2.61,3.89-4.4,5.43c0.52,0.07,1.05,0.13,1.57,0.2c-1.48-2.67-3.41-5.1-5.68-7.14
				C7.69,174.72,6.27,176.13,7.23,176.99L7.23,176.99z"/>
		</g>
	</g>
</g>
<g>
	<g>
		<g>
			<path class="st2" d="M259.85,31.98c0.31,6.72,0.3,13.46-0.03,20.19c-0.28,5.65-0.84,11.28-1.47,16.9
				c-0.53,4.76-1.09,9.61-2.63,14.17c-1.07,3.18-2.81,6.24-4.91,8.69c-2.2,2.56-4.68,4.87-6.91,7.41c-2.09,2.37-4.07,4.84-6.03,7.33
				c-1.75,2.23-3.52,4.45-5.16,6.76c-2.19,3.08-4.04,6.37-5.4,9.9c-1.54,4.01-2.42,8.25-3.14,12.47c-2.02,11.98-3,24.2-3.36,36.33
				c-0.05,1.79-0.09,3.58-0.11,5.38c-0.02,1.29,1.98,1.29,2,0c0.15-12.44,1.02-24.9,2.79-37.22c0.69-4.8,1.5-9.63,2.99-14.26
				c1.08-3.36,2.62-6.51,4.54-9.5c1.33-2.07,2.82-4.04,4.33-5.98c2.03-2.61,4.07-5.22,6.2-7.76c2.49-2.95,5.2-5.66,7.82-8.49
				c2.19-2.37,4.03-5.06,5.31-8.02c1.79-4.13,2.56-8.57,3.16-13.01c1.59-11.9,2.44-23.92,2.19-35.93c-0.04-1.79-0.1-3.57-0.18-5.36
				C261.79,30.7,259.79,30.69,259.85,31.98L259.85,31.98z"/>
		</g>
	</g>
	<g>
		<g>
			<path class="st2" d="M256.65,38.98c0.6-1.37,1.25-2.72,1.97-4.03c0.36-0.66,0.73-1.3,1.12-1.94c0.32-0.52,0.61-1.15,1.08-1.57
				c0.29-0.26,0.3-0.25,0.55,0.1c0.42,0.57,0.77,1.21,1.11,1.84c0.69,1.26,1.24,2.56,1.68,3.93c0.39,1.22,2.32,0.7,1.93-0.53
				c-0.54-1.68-1.25-3.31-2.13-4.84c-0.74-1.29-1.78-3.22-3.59-2.54c-0.76,0.29-1.29,0.92-1.72,1.59c-0.47,0.72-0.91,1.47-1.34,2.21
				c-0.88,1.55-1.68,3.15-2.39,4.78c-0.22,0.49-0.15,1.07,0.36,1.37C255.71,39.59,256.43,39.48,256.65,38.98L256.65,38.98z"/>
		</g>
	</g>
	<g>
		<g>
			<path class="st2" d="M215.21,172.49c2.16,1.93,3.97,4.19,5.37,6.73c0.33,0.6,1.1,0.61,1.57,0.2c1.9-1.64,3.5-3.63,4.71-5.83
				c0.62-1.13-1.11-2.14-1.73-1.01c-1.13,2.07-2.61,3.89-4.4,5.43c0.52,0.07,1.05,0.13,1.57,0.2c-1.48-2.67-3.41-5.1-5.68-7.14
				C215.66,170.22,214.25,171.63,215.21,172.49L215.21,172.49z"/>
		</g>
	</g>
</g>
<g>
	<g>
		<g>
			<path d="M154.92,29.21c0.09,0.94,0.18,1.88,0.28,2.82c0.03,0.26,0.21,0.51,0.5,0.5c0.25-0.01,0.53-0.22,0.5-0.5
				c-0.09-0.94-0.18-1.88-0.28-2.82c-0.03-0.26-0.21-0.51-0.5-0.5C155.17,28.72,154.89,28.93,154.92,29.21L154.92,29.21z"/>
		</g>
	</g>
	<g>
		<g>
			<path d="M154.96,39.05c-0.02,1.01,0.16,2.03,0.55,2.96c0.1,0.24,0.34,0.44,0.62,0.35c0.23-0.07,0.46-0.36,0.35-0.62
				c-0.18-0.44-0.32-0.89-0.41-1.36c-0.02-0.11-0.04-0.22-0.06-0.33c0.01,0.08-0.01-0.11-0.01-0.12c-0.01-0.05-0.01-0.1-0.01-0.15
				c-0.02-0.24-0.03-0.48-0.02-0.72c0.01-0.26-0.23-0.51-0.5-0.5C155.18,38.57,154.97,38.77,154.96,39.05L154.96,39.05z"/>
		</g>
	</g>
	<g>
		<g>
			<path d="M155.53,47.93c-0.45,1.16-0.46,2.5-0.02,3.66c0.1,0.25,0.34,0.43,0.62,0.35c0.24-0.07,0.45-0.36,0.35-0.62
				c-0.39-1.03-0.38-2.1,0.02-3.13c0.1-0.25-0.11-0.55-0.35-0.62C155.86,47.5,155.63,47.67,155.53,47.93L155.53,47.93z"/>
		</g>
	</g>
	<g>
		<g>
			<path d="M155.21,56.8c0.12,1.12,0.23,2.25,0.35,3.37c0.03,0.27,0.21,0.5,0.5,0.5c0.25,0,0.53-0.23,0.5-0.5
				c-0.12-1.12-0.23-2.25-0.35-3.37c-0.03-0.27-0.21-0.5-0.5-0.5C155.47,56.3,155.19,56.53,155.21,56.8L155.21,56.8z"/>
		</g>
	</g>
	<g>
		<g>
			<path d="M155.91,65.98c-0.4,1.46-0.42,2.99-0.05,4.46c0.15,0.62,1.12,0.36,0.96-0.27c-0.32-1.29-0.3-2.64,0.05-3.93
				C157.05,65.62,156.08,65.35,155.91,65.98L155.91,65.98z"/>
		</g>
	</g>
	<g>
		<g>
			<path d="M155.75,75.52c0.21,1.12,0.42,2.24,0.63,3.37c0.05,0.27,0.37,0.42,0.62,0.35c0.28-0.08,0.4-0.35,0.35-0.62
				c-0.21-1.12-0.42-2.24-0.63-3.37c-0.05-0.27-0.37-0.42-0.62-0.35C155.83,74.98,155.7,75.26,155.75,75.52L155.75,75.52z"/>
		</g>
	</g>
	<g>
		<g>
			<path d="M156.06,83.11c-0.29,1.24-0.38,2.53-0.23,3.8c0.03,0.27,0.21,0.5,0.5,0.5c0.25,0,0.53-0.23,0.5-0.5
				c-0.14-1.18-0.08-2.38,0.19-3.54c0.06-0.26-0.08-0.54-0.35-0.62C156.42,82.7,156.12,82.85,156.06,83.11L156.06,83.11z"/>
		</g>
	</g>
	<g>
		<g>
			<path d="M156.41,92.14c-0.17,1.13-0.11,2.27,0.2,3.37c0.07,0.25,0.36,0.43,0.62,0.35c0.26-0.08,0.43-0.35,0.35-0.62
				c-0.26-0.92-0.34-1.93-0.2-2.84c0.04-0.26-0.06-0.55-0.35-0.62C156.79,91.74,156.46,91.86,156.41,92.14L156.41,92.14z"/>
		</g>
	</g>
	<g>
		<g>
			<path d="M156.37,101.56c0,1.31,0,2.63,0,3.94c0,0.64,1,0.64,1,0c0-1.31,0-2.63,0-3.94C157.37,100.92,156.37,100.92,156.37,101.56
				L156.37,101.56z"/>
		</g>
	</g>
	<g>
		<g>
			<path d="M156.1,111.13c-0.1,0.99,0.01,2,0.29,2.95c0.07,0.25,0.35,0.43,0.62,0.35c0.25-0.08,0.43-0.35,0.35-0.62
				c-0.06-0.22-0.12-0.44-0.17-0.67c-0.02-0.12-0.04-0.24-0.06-0.36c-0.03-0.17,0.01,0.09-0.01-0.08c-0.01-0.06-0.01-0.12-0.02-0.18
				c-0.04-0.46-0.04-0.93,0.01-1.4c0.03-0.26-0.25-0.51-0.5-0.5C156.3,110.65,156.12,110.86,156.1,111.13L156.1,111.13z"/>
		</g>
	</g>
	<g>
		<g>
			<path d="M156.94,118.17c-0.14,1.66,0.06,3.34,0.58,4.92c0.2,0.61,1.17,0.35,0.96-0.27c-0.49-1.5-0.67-3.07-0.54-4.65
				c0.02-0.27-0.25-0.5-0.5-0.5C157.15,117.67,156.97,117.9,156.94,118.17L156.94,118.17z"/>
		</g>
	</g>
	<g>
		<g>
			<path d="M157.75,127.33c0.28,1.25,0.38,2.52,0.31,3.8c-0.02,0.27,0.24,0.5,0.5,0.5c0.28,0,0.48-0.23,0.5-0.5
				c0.08-1.36-0.04-2.73-0.34-4.06c-0.06-0.26-0.36-0.42-0.62-0.35C157.83,126.79,157.69,127.06,157.75,127.33L157.75,127.33z"/>
		</g>
	</g>
	<g>
		<g>
			<path d="M158.06,135.07c0,1.41,0,2.82,0,4.22c0,0.64,1,0.64,1,0c0-1.41,0-2.82,0-4.22C159.06,134.42,158.06,134.42,158.06,135.07
				L158.06,135.07z"/>
		</g>
	</g>
	<g>
		<g>
			<path d="M158.34,143.8c0,1.22,0,2.44,0,3.66c0,0.64,1,0.64,1,0c0-1.22,0-2.44,0-3.66C159.34,143.15,158.34,143.15,158.34,143.8
				L158.34,143.8z"/>
		</g>
	</g>
	<g>
		<g>
			<path d="M158.97,151.4c-0.12,1.5-0.24,3-0.35,4.5c-0.02,0.27,0.24,0.5,0.5,0.5c0.29,0,0.48-0.23,0.5-0.5
				c0.12-1.5,0.24-3,0.35-4.5c0.02-0.27-0.24-0.5-0.5-0.5C159.18,150.9,158.99,151.13,158.97,151.4L158.97,151.4z"/>
		</g>
	</g>
	<g>
		<g>
			<path d="M159.2,159.56c-0.14,1.08-0.04,2.19,0.27,3.23c0.07,0.25,0.35,0.43,0.62,0.35c0.25-0.08,0.43-0.35,0.35-0.62
				c-0.29-0.98-0.36-1.94-0.23-2.97c0.03-0.26-0.25-0.51-0.5-0.5C159.4,159.08,159.24,159.29,159.2,159.56L159.2,159.56z"/>
		</g>
	</g>
	<g>
		<g>
			<path d="M159.75,167.45c0,1.03,0,2.06,0,3.1c0,0.26,0.23,0.51,0.5,0.5c0.27-0.01,0.5-0.22,0.5-0.5c0-1.03,0-2.06,0-3.1
				c0-0.26-0.23-0.51-0.5-0.5C159.98,166.96,159.75,167.17,159.75,167.45L159.75,167.45z"/>
		</g>
	</g>
	<g>
		<g>
			<path d="M159.75,174.77c0,1.13,0,2.25,0,3.38c0,0.27,0.23,0.5,0.5,0.5c0.27,0,0.5-0.23,0.5-0.5c0-1.13,0-2.25,0-3.38
				c0-0.27-0.23-0.5-0.5-0.5C159.98,174.27,159.75,174.5,159.75,174.77L159.75,174.77z"/>
		</g>
	</g>
</g>
<g>
	<g>
		<g>
			<path d="M105.86,31.15c0.09,0.94,0.18,1.88,0.28,2.82c0.03,0.26,0.21,0.51,0.5,0.5c0.25-0.01,0.53-0.22,0.5-0.5
				c-0.09-0.94-0.18-1.88-0.28-2.82c-0.03-0.26-0.21-0.51-0.5-0.5C106.11,30.66,105.83,30.87,105.86,31.15L105.86,31.15z"/>
		</g>
	</g>
	<g>
		<g>
			<path d="M105.9,41c-0.02,1.01,0.16,2.03,0.55,2.96c0.1,0.24,0.34,0.44,0.62,0.35c0.23-0.07,0.46-0.36,0.35-0.62
				c-0.18-0.44-0.32-0.89-0.41-1.36c-0.02-0.11-0.04-0.22-0.06-0.33c0.01,0.08-0.01-0.11-0.01-0.12c-0.01-0.05-0.01-0.1-0.01-0.15
				c-0.02-0.24-0.03-0.48-0.02-0.72c0.01-0.26-0.23-0.51-0.5-0.5C106.13,40.51,105.91,40.72,105.9,41L105.9,41z"/>
		</g>
	</g>
	<g>
		<g>
			<path d="M106.47,49.87c-0.45,1.16-0.46,2.5-0.02,3.66c0.1,0.25,0.34,0.43,0.62,0.35c0.24-0.07,0.45-0.36,0.35-0.62
				c-0.39-1.03-0.38-2.1,0.02-3.13c0.1-0.25-0.11-0.55-0.35-0.62C106.81,49.44,106.57,49.62,106.47,49.87L106.47,49.87z"/>
		</g>
	</g>
	<g>
		<g>
			<path d="M106.16,58.74c0.12,1.12,0.23,2.25,0.35,3.37c0.03,0.27,0.21,0.5,0.5,0.5c0.25,0,0.53-0.23,0.5-0.5
				c-0.12-1.12-0.23-2.25-0.35-3.37c-0.03-0.27-0.21-0.5-0.5-0.5C106.41,58.24,106.13,58.47,106.16,58.74L106.16,58.74z"/>
		</g>
	</g>
	<g>
		<g>
			<path d="M106.85,67.92c-0.4,1.46-0.42,2.99-0.05,4.46c0.15,0.62,1.12,0.36,0.96-0.27c-0.32-1.29-0.3-2.64,0.05-3.93
				C107.99,67.56,107.02,67.3,106.85,67.92L106.85,67.92z"/>
		</g>
	</g>
	<g>
		<g>
			<path d="M106.7,77.46c0.21,1.12,0.42,2.24,0.63,3.37c0.05,0.27,0.37,0.42,0.62,0.35c0.28-0.08,0.4-0.35,0.35-0.62
				c-0.21-1.12-0.42-2.24-0.63-3.37c-0.05-0.27-0.37-0.42-0.62-0.35C106.77,76.93,106.65,77.2,106.7,77.46L106.7,77.46z"/>
		</g>
	</g>
	<g>
		<g>
			<path d="M107,85.06c-0.29,1.24-0.38,2.53-0.23,3.8c0.03,0.27,0.21,0.5,0.5,0.5c0.25,0,0.53-0.23,0.5-0.5
				c-0.14-1.18-0.08-2.38,0.19-3.54c0.06-0.26-0.08-0.54-0.35-0.62C107.36,84.64,107.06,84.79,107,85.06L107,85.06z"/>
		</g>
	</g>
	<g>
		<g>
			<path d="M107.36,94.08c-0.17,1.13-0.11,2.27,0.2,3.37c0.07,0.25,0.36,0.43,0.62,0.35c0.26-0.08,0.43-0.35,0.35-0.62
				c-0.26-0.92-0.34-1.93-0.2-2.84c0.04-0.26-0.06-0.55-0.35-0.62C107.73,93.68,107.4,93.81,107.36,94.08L107.36,94.08z"/>
		</g>
	</g>
	<g>
		<g>
			<path d="M107.31,103.5c0,1.31,0,2.63,0,3.94c0,0.64,1,0.64,1,0c0-1.31,0-2.63,0-3.94C108.31,102.86,107.31,102.86,107.31,103.5
				L107.31,103.5z"/>
		</g>
	</g>
	<g>
		<g>
			<path d="M107.04,113.08c-0.1,0.99,0.01,2,0.29,2.95c0.07,0.25,0.35,0.43,0.62,0.35c0.25-0.08,0.43-0.35,0.35-0.62
				c-0.06-0.22-0.12-0.44-0.17-0.67c-0.02-0.12-0.04-0.24-0.06-0.36c-0.03-0.17,0.01,0.09-0.01-0.08c-0.01-0.06-0.01-0.12-0.02-0.18
				c-0.04-0.46-0.04-0.93,0.01-1.4c0.03-0.26-0.25-0.51-0.5-0.5C107.25,112.59,107.07,112.8,107.04,113.08L107.04,113.08z"/>
		</g>
	</g>
	<g>
		<g>
			<path d="M107.88,120.12c-0.14,1.66,0.06,3.34,0.58,4.92c0.2,0.61,1.17,0.35,0.96-0.27c-0.49-1.5-0.67-3.07-0.54-4.65
				c0.02-0.27-0.25-0.5-0.5-0.5C108.1,119.62,107.91,119.85,107.88,120.12L107.88,120.12z"/>
		</g>
	</g>
	<g>
		<g>
			<path d="M108.7,129.27c0.28,1.25,0.38,2.52,0.31,3.8c-0.02,0.27,0.24,0.5,0.5,0.5c0.28,0,0.48-0.23,0.5-0.5
				c0.08-1.36-0.04-2.73-0.34-4.06c-0.06-0.26-0.36-0.42-0.62-0.35C108.77,128.73,108.64,129,108.7,129.27L108.7,129.27z"/>
		</g>
	</g>
	<g>
		<g>
			<path d="M109,137.01c0,1.41,0,2.82,0,4.22c0,0.64,1,0.64,1,0c0-1.41,0-2.82,0-4.22C110,136.37,109,136.36,109,137.01L109,137.01z
				"/>
		</g>
	</g>
	<g>
		<g>
			<path d="M109.29,145.74c0,1.22,0,2.44,0,3.66c0,0.64,1,0.64,1,0c0-1.22,0-2.44,0-3.66C110.29,145.09,109.29,145.09,109.29,145.74
				L109.29,145.74z"/>
		</g>
	</g>
	<g>
		<g>
			<path d="M109.91,153.34c-0.12,1.5-0.24,3-0.35,4.5c-0.02,0.27,0.24,0.5,0.5,0.5c0.29,0,0.48-0.23,0.5-0.5
				c0.12-1.5,0.24-3,0.35-4.5c0.02-0.27-0.24-0.5-0.5-0.5C110.12,152.84,109.93,153.07,109.91,153.34L109.91,153.34z"/>
		</g>
	</g>
	<g>
		<g>
			<path d="M110.14,161.51c-0.14,1.08-0.04,2.19,0.27,3.23c0.07,0.25,0.35,0.43,0.62,0.35c0.25-0.08,0.43-0.35,0.35-0.62
				c-0.29-0.98-0.36-1.94-0.23-2.97c0.03-0.26-0.25-0.51-0.5-0.5C110.34,161.02,110.18,161.23,110.14,161.51L110.14,161.51z"/>
		</g>
	</g>
	<g>
		<g>
			<path d="M110.69,169.39c0,1.03,0,2.06,0,3.1c0,0.26,0.23,0.51,0.5,0.5c0.27-0.01,0.5-0.22,0.5-0.5c0-1.03,0-2.06,0-3.1
				c0-0.26-0.23-0.51-0.5-0.5C110.92,168.9,110.69,169.11,110.69,169.39L110.69,169.39z"/>
		</g>
	</g>
	<g>
		<g>
			<path d="M110.69,176.71c0,1.13,0,2.25,0,3.38c0,0.27,0.23,0.5,0.5,0.5c0.27,0,0.5-0.23,0.5-0.5c0-1.13,0-2.25,0-3.38
				c0-0.27-0.23-0.5-0.5-0.5C110.92,176.21,110.69,176.44,110.69,176.71L110.69,176.71z"/>
		</g>
	</g>
</g>
<g>
	<g>
		<g>
			<path d="M57.48,33.23c0.09,0.94,0.18,1.88,0.28,2.82c0.03,0.26,0.21,0.51,0.5,0.5c0.25-0.01,0.53-0.22,0.5-0.5
				c-0.09-0.94-0.18-1.88-0.28-2.82c-0.03-0.26-0.21-0.51-0.5-0.5C57.73,32.74,57.45,32.95,57.48,33.23L57.48,33.23z"/>
		</g>
	</g>
	<g>
		<g>
			<path d="M57.53,43.08c-0.02,1.01,0.16,2.03,0.55,2.96c0.1,0.24,0.34,0.44,0.62,0.35c0.23-0.07,0.46-0.36,0.35-0.62
				c-0.18-0.44-0.32-0.89-0.41-1.36c-0.02-0.11-0.04-0.22-0.06-0.33c0.01,0.08-0.01-0.11-0.01-0.12c-0.01-0.05-0.01-0.1-0.01-0.15
				c-0.02-0.24-0.03-0.48-0.02-0.72c0.01-0.26-0.23-0.51-0.5-0.5C57.75,42.59,57.53,42.8,57.53,43.08L57.53,43.08z"/>
		</g>
	</g>
	<g>
		<g>
			<path d="M58.1,51.95c-0.45,1.16-0.46,2.5-0.02,3.66c0.1,0.25,0.34,0.43,0.62,0.35c0.24-0.07,0.45-0.36,0.35-0.62
				c-0.39-1.03-0.38-2.1,0.02-3.13c0.1-0.25-0.11-0.55-0.35-0.62C58.43,51.52,58.2,51.7,58.1,51.95L58.1,51.95z"/>
		</g>
	</g>
	<g>
		<g>
			<path d="M57.78,60.82c0.12,1.12,0.23,2.25,0.35,3.37c0.03,0.27,0.21,0.5,0.5,0.5c0.25,0,0.53-0.23,0.5-0.5
				c-0.12-1.12-0.23-2.25-0.35-3.37c-0.03-0.27-0.21-0.5-0.5-0.5C58.03,60.32,57.75,60.55,57.78,60.82L57.78,60.82z"/>
		</g>
	</g>
	<g>
		<g>
			<path d="M58.48,70c-0.4,1.46-0.42,2.99-0.05,4.46c0.15,0.62,1.12,0.36,0.96-0.27c-0.32-1.29-0.3-2.64,0.05-3.93
				C59.61,69.64,58.65,69.38,58.48,70L58.48,70z"/>
		</g>
	</g>
	<g>
		<g>
			<path d="M58.32,79.55c0.21,1.12,0.42,2.24,0.63,3.37c0.05,0.27,0.37,0.42,0.62,0.35c0.28-0.08,0.4-0.35,0.35-0.62
				c-0.21-1.12-0.42-2.24-0.63-3.37c-0.05-0.27-0.37-0.42-0.62-0.35C58.39,79.01,58.27,79.28,58.32,79.55L58.32,79.55z"/>
		</g>
	</g>
	<g>
		<g>
			<path d="M58.62,87.14c-0.29,1.24-0.38,2.53-0.23,3.8c0.03,0.27,0.21,0.5,0.5,0.5c0.25,0,0.53-0.23,0.5-0.5
				c-0.14-1.18-0.08-2.38,0.19-3.54c0.06-0.26-0.08-0.54-0.35-0.62C58.98,86.72,58.68,86.87,58.62,87.14L58.62,87.14z"/>
		</g>
	</g>
	<g>
		<g>
			<path d="M58.98,96.16c-0.17,1.13-0.11,2.27,0.2,3.37c0.07,0.25,0.36,0.43,0.62,0.35c0.26-0.08,0.43-0.35,0.35-0.62
				c-0.26-0.92-0.34-1.93-0.2-2.84c0.04-0.26-0.06-0.55-0.35-0.62C59.36,95.76,59.02,95.89,58.98,96.16L58.98,96.16z"/>
		</g>
	</g>
	<g>
		<g>
			<path d="M58.94,105.58c0,1.31,0,2.63,0,3.94c0,0.64,1,0.64,1,0c0-1.31,0-2.63,0-3.94C59.94,104.94,58.94,104.94,58.94,105.58
				L58.94,105.58z"/>
		</g>
	</g>
	<g>
		<g>
			<path d="M58.66,115.16c-0.1,0.99,0.01,2,0.29,2.95c0.07,0.25,0.35,0.43,0.62,0.35c0.25-0.08,0.43-0.35,0.35-0.62
				c-0.06-0.22-0.12-0.44-0.17-0.67c-0.02-0.12-0.04-0.24-0.06-0.36c-0.03-0.17,0.01,0.09-0.01-0.08c-0.01-0.06-0.01-0.12-0.02-0.18
				c-0.04-0.46-0.04-0.93,0.01-1.4c0.03-0.26-0.25-0.51-0.5-0.5C58.87,114.67,58.69,114.88,58.66,115.16L58.66,115.16z"/>
		</g>
	</g>
	<g>
		<g>
			<path d="M59.51,122.2c-0.14,1.66,0.06,3.34,0.58,4.92c0.2,0.61,1.17,0.35,0.96-0.27c-0.49-1.5-0.67-3.07-0.54-4.65
				c0.02-0.27-0.25-0.5-0.5-0.5C59.72,121.7,59.53,121.93,59.51,122.2L59.51,122.2z"/>
		</g>
	</g>
	<g>
		<g>
			<path d="M60.32,131.35c0.28,1.25,0.38,2.52,0.31,3.8c-0.02,0.27,0.24,0.5,0.5,0.5c0.28,0,0.48-0.23,0.5-0.5
				c0.08-1.36-0.04-2.73-0.34-4.06c-0.06-0.26-0.36-0.42-0.62-0.35C60.4,130.81,60.26,131.09,60.32,131.35L60.32,131.35z"/>
		</g>
	</g>
	<g>
		<g>
			<path d="M60.63,139.09c0,1.41,0,2.82,0,4.22c0,0.64,1,0.64,1,0c0-1.41,0-2.82,0-4.22C61.63,138.45,60.63,138.45,60.63,139.09
				L60.63,139.09z"/>
		</g>
	</g>
	<g>
		<g>
			<path d="M60.91,147.82c0,1.22,0,2.44,0,3.66c0,0.64,1,0.64,1,0c0-1.22,0-2.44,0-3.66C61.91,147.18,60.91,147.17,60.91,147.82
				L60.91,147.82z"/>
		</g>
	</g>
	<g>
		<g>
			<path d="M61.53,155.43c-0.12,1.5-0.24,3-0.35,4.5c-0.02,0.27,0.24,0.5,0.5,0.5c0.29,0,0.48-0.23,0.5-0.5
				c0.12-1.5,0.24-3,0.35-4.5c0.02-0.27-0.24-0.5-0.5-0.5C61.74,154.93,61.55,155.16,61.53,155.43L61.53,155.43z"/>
		</g>
	</g>
	<g>
		<g>
			<path d="M61.77,163.59c-0.14,1.08-0.04,2.19,0.27,3.23c0.07,0.25,0.35,0.43,0.62,0.35c0.25-0.08,0.43-0.35,0.35-0.62
				c-0.29-0.98-0.36-1.94-0.23-2.97c0.03-0.26-0.25-0.51-0.5-0.5C61.97,163.1,61.8,163.31,61.77,163.59L61.77,163.59z"/>
		</g>
	</g>
	<g>
		<g>
			<path d="M62.32,171.47c0,1.03,0,2.06,0,3.1c0,0.26,0.23,0.51,0.5,0.5c0.27-0.01,0.5-0.22,0.5-0.5c0-1.03,0-2.06,0-3.1
				c0-0.26-0.23-0.51-0.5-0.5C62.55,170.98,62.32,171.19,62.32,171.47L62.32,171.47z"/>
		</g>
	</g>
	<g>
		<g>
			<path d="M62.32,178.79c0,1.13,0,2.25,0,3.38c0,0.27,0.23,0.5,0.5,0.5c0.27,0,0.5-0.23,0.5-0.5c0-1.13,0-2.25,0-3.38
				c0-0.27-0.23-0.5-0.5-0.5C62.55,178.29,62.32,178.52,62.32,178.79L62.32,178.79z"/>
		</g>
	</g>
</g>
<g>
	<g>
		<g>
			<path d="M213.47,31.54c0.09,0.94,0.18,1.88,0.28,2.82c0.03,0.26,0.21,0.51,0.5,0.5c0.25-0.01,0.53-0.22,0.5-0.5
				c-0.09-0.94-0.18-1.88-0.28-2.82c-0.03-0.26-0.21-0.51-0.5-0.5C213.72,31.05,213.44,31.26,213.47,31.54L213.47,31.54z"/>
		</g>
	</g>
	<g>
		<g>
			<path d="M213.51,41.39c-0.02,1.01,0.16,2.03,0.55,2.96c0.1,0.24,0.34,0.44,0.62,0.35c0.23-0.07,0.46-0.36,0.35-0.62
				c-0.18-0.44-0.32-0.89-0.41-1.36c-0.02-0.11-0.04-0.22-0.06-0.33c0.01,0.08-0.01-0.11-0.01-0.12c-0.01-0.05-0.01-0.1-0.01-0.15
				c-0.02-0.24-0.03-0.48-0.02-0.72c0.01-0.26-0.23-0.51-0.5-0.5C213.73,40.9,213.52,41.11,213.51,41.39L213.51,41.39z"/>
		</g>
	</g>
	<g>
		<g>
			<path d="M214.08,50.26c-0.45,1.16-0.46,2.5-0.02,3.66c0.1,0.25,0.34,0.43,0.62,0.35c0.24-0.07,0.45-0.36,0.35-0.62
				c-0.39-1.03-0.38-2.1,0.02-3.13c0.1-0.25-0.11-0.55-0.35-0.62C214.41,49.83,214.18,50.01,214.08,50.26L214.08,50.26z"/>
		</g>
	</g>
	<g>
		<g>
			<path d="M213.76,59.13c0.12,1.12,0.23,2.25,0.35,3.37c0.03,0.27,0.21,0.5,0.5,0.5c0.25,0,0.53-0.23,0.5-0.5
				c-0.12-1.12-0.23-2.25-0.35-3.37c-0.03-0.27-0.21-0.5-0.5-0.5C214.01,58.63,213.74,58.86,213.76,59.13L213.76,59.13z"/>
		</g>
	</g>
	<g>
		<g>
			<path d="M214.46,68.31c-0.4,1.46-0.42,2.99-0.05,4.46c0.15,0.62,1.12,0.36,0.96-0.27c-0.32-1.29-0.3-2.64,0.05-3.93
				C215.6,67.95,214.63,67.69,214.46,68.31L214.46,68.31z"/>
		</g>
	</g>
	<g>
		<g>
			<path d="M214.3,77.86c0.21,1.12,0.42,2.24,0.63,3.37c0.05,0.27,0.37,0.42,0.62,0.35c0.28-0.08,0.4-0.35,0.35-0.62
				c-0.21-1.12-0.42-2.24-0.63-3.37c-0.05-0.27-0.37-0.42-0.62-0.35C214.38,77.32,214.25,77.59,214.3,77.86L214.3,77.86z"/>
		</g>
	</g>
	<g>
		<g>
			<path d="M214.61,85.45c-0.29,1.24-0.38,2.53-0.23,3.8c0.03,0.27,0.21,0.5,0.5,0.5c0.25,0,0.53-0.23,0.5-0.5
				c-0.14-1.18-0.08-2.38,0.19-3.54c0.06-0.26-0.08-0.54-0.35-0.62C214.97,85.03,214.67,85.18,214.61,85.45L214.61,85.45z"/>
		</g>
	</g>
	<g>
		<g>
			<path d="M214.96,94.47c-0.17,1.13-0.11,2.27,0.2,3.37c0.07,0.25,0.36,0.43,0.62,0.35c0.26-0.08,0.43-0.35,0.35-0.62
				c-0.26-0.92-0.34-1.93-0.2-2.84c0.04-0.26-0.06-0.55-0.35-0.62C215.34,94.07,215,94.2,214.96,94.47L214.96,94.47z"/>
		</g>
	</g>
	<g>
		<g>
			<path d="M214.92,103.9c0,1.31,0,2.63,0,3.94c0,0.64,1,0.64,1,0c0-1.31,0-2.63,0-3.94C215.92,103.25,214.92,103.25,214.92,103.9
				L214.92,103.9z"/>
		</g>
	</g>
	<g>
		<g>
			<path d="M214.65,113.47c-0.1,0.99,0.01,2,0.29,2.95c0.07,0.25,0.35,0.43,0.62,0.35c0.25-0.08,0.43-0.35,0.35-0.62
				c-0.06-0.22-0.12-0.44-0.17-0.67c-0.02-0.12-0.04-0.24-0.06-0.36c-0.03-0.17,0.01,0.09-0.01-0.08c-0.01-0.06-0.01-0.12-0.02-0.18
				c-0.04-0.46-0.04-0.93,0.01-1.4c0.03-0.26-0.25-0.51-0.5-0.5C214.85,112.98,214.67,113.19,214.65,113.47L214.65,113.47z"/>
		</g>
	</g>
	<g>
		<g>
			<path d="M215.49,120.51c-0.14,1.66,0.06,3.34,0.58,4.92c0.2,0.61,1.17,0.35,0.96-0.27c-0.49-1.5-0.67-3.07-0.54-4.65
				c0.02-0.27-0.25-0.5-0.5-0.5C215.7,120.01,215.52,120.24,215.49,120.51L215.49,120.51z"/>
		</g>
	</g>
	<g>
		<g>
			<path d="M216.3,129.66c0.28,1.25,0.38,2.52,0.31,3.8c-0.02,0.27,0.24,0.5,0.5,0.5c0.28,0,0.48-0.23,0.5-0.5
				c0.08-1.36-0.04-2.73-0.34-4.06c-0.06-0.26-0.36-0.42-0.62-0.35C216.38,129.12,216.24,129.4,216.3,129.66L216.3,129.66z"/>
		</g>
	</g>
	<g>
		<g>
			<path d="M216.61,137.4c0,1.41,0,2.82,0,4.22c0,0.64,1,0.64,1,0c0-1.41,0-2.82,0-4.22C217.61,136.76,216.61,136.76,216.61,137.4
				L216.61,137.4z"/>
		</g>
	</g>
	<g>
		<g>
			<path d="M216.89,146.13c0,1.22,0,2.44,0,3.66c0,0.64,1,0.64,1,0c0-1.22,0-2.44,0-3.66C217.89,145.49,216.89,145.48,216.89,146.13
				L216.89,146.13z"/>
		</g>
	</g>
	<g>
		<g>
			<path d="M217.52,153.74c-0.12,1.5-0.24,3-0.35,4.5c-0.02,0.27,0.24,0.5,0.5,0.5c0.29,0,0.48-0.23,0.5-0.5
				c0.12-1.5,0.24-3,0.35-4.5c0.02-0.27-0.24-0.5-0.5-0.5C217.73,153.24,217.54,153.47,217.52,153.74L217.52,153.74z"/>
		</g>
	</g>
	<g>
		<g>
			<path d="M217.75,161.9c-0.14,1.08-0.04,2.19,0.27,3.23c0.07,0.25,0.35,0.43,0.62,0.35c0.25-0.08,0.43-0.35,0.35-0.62
				c-0.29-0.98-0.36-1.94-0.23-2.97c0.03-0.26-0.25-0.51-0.5-0.5C217.95,161.41,217.79,161.62,217.75,161.9L217.75,161.9z"/>
		</g>
	</g>
	<g>
		<g>
			<path d="M218.3,169.78c0,1.03,0,2.06,0,3.1c0,0.26,0.23,0.51,0.5,0.5c0.27-0.01,0.5-0.22,0.5-0.5c0-1.03,0-2.06,0-3.1
				c0-0.26-0.23-0.51-0.5-0.5C218.53,169.29,218.3,169.5,218.3,169.78L218.3,169.78z"/>
		</g>
	</g>
	<g>
		<g>
			<path d="M218.3,177.1c0,1.13,0,2.25,0,3.38c0,0.27,0.23,0.5,0.5,0.5c0.27,0,0.5-0.23,0.5-0.5c0-1.13,0-2.25,0-3.38
				c0-0.27-0.23-0.5-0.5-0.5C218.53,176.6,218.3,176.83,218.3,177.1L218.3,177.1z"/>
		</g>
	</g>
</g>
</svg>
