<?xml version="1.0" encoding="utf-8"?>
<!-- Generator: Adobe Illustrator 23.1.1, SVG Export Plug-In . SVG Version: 6.00 Build 0)  -->
<svg version="1.1" id="Layer_1" xmlns="http://www.w3.org/2000/svg" xmlns:xlink="http://www.w3.org/1999/xlink" x="0px" y="0px"
	 viewBox="0 0 288 216" style="enable-background:new 0 0 288 216;" xml:space="preserve">
<style type="text/css">
	.st0{fill:#A7A9AC;}
	.st1{fill:none;stroke:#000000;stroke-miterlimit:10;}
	.st2{fill:#ED1C24;}
</style>
<g>
	<g>
		<g>
			<path class="st0" d="M243.21,129.34c3.93-3.47,7.75-7.07,11.44-10.79c0.45-0.45,0.9-0.91,1.34-1.36
				c0.42-0.43,0.93-0.86,1.11-1.46c0.35-1.2-0.7-1.94-1.57-2.52c-1.63-1.07-3.47-1.73-5.25-2.49c-1.91-0.81-3.86-1.78-5.1-3.5
				c-0.12,0.46-0.24,0.91-0.36,1.37c0.26-0.17,0.46-0.16,0.68,0.07c0.9,0.92,2.32-0.49,1.41-1.41c-0.82-0.84-2.1-1.03-3.1-0.38
				c-0.42,0.27-0.69,0.91-0.36,1.37c2.27,3.15,5.9,4.08,9.23,5.68c0.81,0.39,1.64,0.82,2.35,1.38c0.02,0.02,0.16,0.15,0.19,0.16
				c0.02,0.02,0.04,0.04,0.06,0.05c-0.02-0.12-0.04-0.25-0.07-0.37c-0.07-0.01-0.56,0.58-0.62,0.64c-0.45,0.46-0.89,0.91-1.34,1.36
				c-1.74,1.75-3.5,3.47-5.3,5.17c-2.02,1.91-4.07,3.78-6.15,5.62C240.83,128.78,242.25,130.19,243.21,129.34L243.21,129.34z"/>
		</g>
	</g>
	<g>
		<g>
			<path class="st0" d="M39.43,102.04c-3.54,1.58-6.89,3.56-9.98,5.89c-0.72,0.54-1.6,1.09-2.17,1.79c-0.67,0.81-0.44,1.77,0.2,2.51
				c1.36,1.58,2.91,3.03,4.39,4.49c1.67,1.65,3.37,3.26,5.1,4.85c0.95,0.87,2.37-0.54,1.41-1.41c-1.76-1.61-3.49-3.26-5.19-4.93
				c-0.85-0.84-1.7-1.69-2.53-2.55c-0.42-0.43-0.83-0.86-1.25-1.29c-0.1-0.11-0.39-0.54-0.53-0.56c-0.08-0.16-0.11-0.1-0.09,0.18
				c0.08-0.09,0.17-0.16,0.26-0.24c3.34-2.9,7.36-5.2,11.38-6.99c0.49-0.22,0.61-0.94,0.36-1.37
				C40.5,101.89,39.92,101.82,39.43,102.04L39.43,102.04z"/>
		</g>
	</g>
	<g>
		<g>
			<path class="st0" d="M27.74,112.35c13.93,3.8,28.45,3.76,42.78,3.62c15.01-0.15,30.01-0.31,45.02-0.46
				c15.01-0.15,30.03-0.31,45.04-0.46c14.93-0.15,29.87-0.38,44.8-0.25c16.85,0.15,33.71,0.81,50.47,2.67
				c0.39,0.04,0.9-0.34,0.96-0.73c0.27-1.68-0.76-3.47-2.62-3.42c-1.28,0.04-1.29,2.04,0,2c0.47-0.01,0.77,0.42,0.7,0.89
				c0.32-0.24,0.64-0.49,0.96-0.73c-29.66-3.3-59.56-2.79-89.35-2.49c-30.03,0.31-60.06,0.62-90.09,0.93
				c-16.08,0.17-32.47,0.79-48.14-3.49C27.03,110.08,26.5,112.01,27.74,112.35L27.74,112.35z"/>
		</g>
	</g>
</g>
<g>
	<g>
		<g>
			<path class="st0" d="M132.66,38.31c1.64-4.9,3.62-9.69,5.94-14.31c0.57-1.13,1.15-2.25,1.76-3.36c0.27-0.5,0.55-1.01,0.84-1.5
				c0,0,0.26-0.41,0.27-0.4c-0.1,0.01-0.19,0.02-0.29,0.03c0.02,0.02,0.03,0.04,0.05,0.05c0.01,0.06,0.22,0.31,0.25,0.36
				c1.45,2.32,2.83,4.68,4.25,7.01c1.63,2.69,3.26,5.39,4.89,8.08c0.36,0.59,1.4,0.71,1.73,0c0.33-0.72,0.66-1.44,0.99-2.16
				c0.22-0.49,0.14-1.08-0.36-1.37c-0.43-0.25-1.14-0.13-1.37,0.36c-0.33,0.72-0.66,1.44-0.99,2.16c0.58,0,1.15,0,1.73,0
				c-1.59-2.62-3.18-5.24-4.76-7.87c-0.79-1.31-1.59-2.62-2.38-3.93c-0.75-1.23-1.43-2.57-2.29-3.73c-0.77-1.03-2.11-1.3-3-0.24
				c-0.41,0.49-0.69,1.08-0.99,1.63c-0.35,0.64-0.7,1.28-1.04,1.92c-1.31,2.48-2.52,5.02-3.63,7.6c-1.29,3-2.46,6.04-3.5,9.14
				C130.32,39,132.25,39.53,132.66,38.31L132.66,38.31z"/>
		</g>
	</g>
	<g>
		<g>
			<path class="st0" d="M134.07,181.51c1.59,3.79,3.51,7.42,5.82,10.82c0.54,0.79,1.06,1.7,1.74,2.39c0.76,0.77,1.84,0.61,2.52-0.16
				c1.39-1.59,2.58-3.41,3.8-5.13c1.44-2.01,2.84-4.05,4.2-6.11c0.71-1.08-1.02-2.08-1.73-1.01c-1.36,2.06-2.76,4.1-4.2,6.11
				c-0.69,0.97-1.4,1.93-2.11,2.89c-0.33,0.45-0.66,0.89-1,1.33c-0.05,0.07-0.51,0.56-0.5,0.63c0.42,0.13,0.54,0.12,0.36-0.04
				c-0.09-0.12-0.18-0.24-0.26-0.36c-2.68-3.69-4.94-7.69-6.7-11.9c-0.21-0.5-0.66-0.85-1.23-0.7
				C134.3,180.41,133.86,181.01,134.07,181.51L134.07,181.51z"/>
		</g>
	</g>
	<g>
		<g>
			<path class="st0" d="M140.07,18.29c-0.36,22.73-0.5,45.45-0.44,68.18c0.07,22.62,0.35,45.23,0.84,67.84
				c0.28,12.76,0.62,25.51,1.03,38.26c0.04,1.28,2.04,1.29,2,0c-0.73-22.72-1.25-45.45-1.56-68.18c-0.3-22.61-0.4-45.23-0.28-67.84
				c0.07-12.75,0.2-25.51,0.4-38.26C142.09,17,140.09,17,140.07,18.29L140.07,18.29z"/>
		</g>
	</g>
</g>
<line class="st1" x1="278.19" y1="73" x2="277.82" y2="73.37"/>
<g>
	<g>
		<g>
			<path class="st2" d="M55.44,185.25c9.58-9.4,19.73-18.18,30.15-26.64c10.4-8.45,21.06-16.58,31.68-24.74
				c10.7-8.21,21.37-16.47,31.76-25.08c10.81-8.96,21.35-18.22,31.75-27.65c10.4-9.43,20.66-19.02,30.9-28.62
				c1.28-1.2,2.55-2.39,3.82-3.59c0.94-0.88-0.48-2.29-1.41-1.41c-10.27,9.64-20.55,19.28-30.96,28.78
				c-10.36,9.46-20.86,18.78-31.61,27.81c-10.41,8.75-21.1,17.14-31.87,25.43c-10.6,8.16-21.26,16.24-31.7,24.61
				c-10.43,8.35-20.65,16.99-30.33,26.21c-1.21,1.15-2.4,2.31-3.59,3.47C53.11,184.74,54.52,186.16,55.44,185.25L55.44,185.25z"/>
		</g>
	</g>
	<g>
		<g>
			<path class="st2" d="M199.83,47.2c4.15-0.56,8.37-0.61,12.53-0.19c0.74,0.08,1.57,0.13,2.24,0.49c0.69,0.37,0.86,1.03,0.83,1.77
				c-0.03,0.91-0.31,1.82-0.55,2.69c-0.25,0.93-0.55,1.85-0.88,2.76c-0.75,2.05-1.71,4.01-2.84,5.88c-0.67,1.1,1.06,2.11,1.73,1.01
				c1.14-1.89,2.1-3.88,2.89-5.94c0.74-1.95,1.5-4.1,1.64-6.21c0.15-2.16-1.14-3.75-3.23-4.21c-2.19-0.48-4.55-0.5-6.78-0.52
				c-2.72-0.02-5.42,0.17-8.11,0.53c-0.54,0.07-0.83,0.76-0.7,1.23C198.76,47.08,199.29,47.27,199.83,47.2L199.83,47.2z"/>
		</g>
	</g>
	<g>
		<g>
			<path class="st2" d="M52.15,167.64c0.06,6.35,0.13,12.71,0.19,19.06c0.01,0.76,0.84,1.25,1.5,0.86
				c5.06-2.96,10.55-5.08,16.28-6.29c1.26-0.27,0.73-2.19-0.53-1.93c-5.89,1.25-11.57,3.45-16.76,6.5c0.5,0.29,1,0.58,1.5,0.86
				c-0.06-6.35-0.13-12.71-0.19-19.06C54.14,166.35,52.14,166.35,52.15,167.64L52.15,167.64z"/>
		</g>
	</g>
</g>
</svg>
