<?xml version="1.0" encoding="utf-8"?>
<!-- Generator: Adobe Illustrator 23.1.1, SVG Export Plug-In . SVG Version: 6.00 Build 0)  -->
<svg version="1.1" id="Layer_1" xmlns="http://www.w3.org/2000/svg" xmlns:xlink="http://www.w3.org/1999/xlink" x="0px" y="0px"
	 viewBox="0 0 288 288" style="enable-background:new 0 0 288 288;" xml:space="preserve">
<style type="text/css">
	.st0{fill:#A7A9AC;}
	.st1{fill:#ED1C24;}
	.st2{display:none;}
	.st3{display:inline;}
	.st4{fill:none;stroke:#000000;stroke-miterlimit:10;}
</style>
<g>
	<g>
		<g>
			<path class="st0" d="M247.09,194.04c4.27-3.76,8.41-7.67,12.42-11.7c0.48-0.49,0.96-0.97,1.44-1.46c0.47-0.48,1.1-0.99,1.26-1.68
				c0.3-1.29-0.93-2.06-1.85-2.65c-1.76-1.12-3.73-1.83-5.64-2.65c-2.06-0.88-4.15-1.94-5.49-3.8c-0.12,0.46-0.24,0.91-0.36,1.37
				c0.31-0.21,0.58-0.18,0.84,0.09c0.9,0.92,2.31-0.49,1.41-1.41c-0.86-0.89-2.22-1.08-3.26-0.4c-0.42,0.27-0.69,0.91-0.36,1.37
				c2.44,3.38,6.35,4.4,9.93,6.11c0.89,0.43,1.78,0.9,2.58,1.5c0.07,0.05,0.14,0.12,0.21,0.16c0.02,0.02,0.04,0.04,0.06,0.06
				c0.12,0.13,0.11,0.06-0.01-0.22c-0.03-0.01-0.57,0.6-0.64,0.66c-0.48,0.49-0.96,0.98-1.44,1.46c-1.89,1.91-3.82,3.79-5.77,5.64
				c-2.21,2.09-4.45,4.14-6.73,6.15C244.71,193.48,246.13,194.89,247.09,194.04L247.09,194.04z"/>
		</g>
	</g>
	<g>
		<g>
			<path class="st0" d="M25.6,164.49c-3.86,1.72-7.52,3.89-10.9,6.44c-0.77,0.58-1.73,1.16-2.32,1.92c-0.69,0.88-0.38,1.88,0.3,2.65
				c1.5,1.68,3.14,3.26,4.75,4.84c1.81,1.78,3.65,3.53,5.52,5.24c0.95,0.87,2.37-0.54,1.41-1.41c-2.99-2.73-5.89-5.56-8.71-8.46
				c-0.33-0.34-0.66-0.69-0.99-1.03c-0.16-0.17-0.34-0.34-0.5-0.52c-0.03-0.03-0.13-0.18-0.16-0.19c-0.11-0.04-0.03,0.09-0.04,0.1
				c0.34-0.18,0.67-0.57,0.97-0.81c0.38-0.3,0.76-0.59,1.15-0.88c1.54-1.14,3.14-2.21,4.78-3.19c1.86-1.1,3.78-2.09,5.75-2.97
				c0.49-0.22,0.61-0.94,0.36-1.37C26.67,164.34,26.09,164.27,25.6,164.49L25.6,164.49z"/>
		</g>
	</g>
	<g>
		<g>
			<path class="st0" d="M12.86,175.54c15.14,4.13,30.92,4.09,46.49,3.93c16.32-0.17,32.64-0.34,48.96-0.5
				c16.33-0.17,32.65-0.34,48.98-0.5c16.24-0.17,32.48-0.41,48.71-0.27c18.32,0.17,36.66,0.88,54.88,2.91
				c0.39,0.04,0.9-0.34,0.96-0.73c0.29-1.78-0.8-3.67-2.77-3.61c-1.28,0.04-1.29,2.04,0,2c0.58-0.02,0.93,0.52,0.84,1.07
				c0.32-0.24,0.64-0.49,0.96-0.73c-32.26-3.59-64.77-3.04-97.16-2.71c-32.65,0.34-65.31,0.67-97.96,1.01
				c-17.49,0.18-35.33,0.85-52.37-3.79C12.15,173.27,11.62,175.2,12.86,175.54L12.86,175.54z"/>
		</g>
	</g>
</g>
<g>
	<g>
		<g>
			<path class="st0" d="M131.31,68.75c1.86-5.56,4.1-10.98,6.73-16.22c0.64-1.27,1.29-2.52,1.97-3.77c0.34-0.62,0.67-1.25,1.03-1.85
				c0.04-0.07,0.24-0.4,0.2-0.32c-0.15,0.31-0.19-0.26-0.06,0.08c0.04,0.12,0.2,0.25,0.27,0.36c1.66,2.62,3.22,5.31,4.82,7.96
				c1.85,3.05,3.7,6.11,5.55,9.16c0.36,0.59,1.4,0.71,1.73,0c0.37-0.81,0.74-1.63,1.12-2.44c0.22-0.49,0.14-1.08-0.36-1.37
				c-0.43-0.25-1.14-0.13-1.37,0.36c-0.37,0.81-0.74,1.63-1.12,2.44c0.58,0,1.15,0,1.73,0c-1.79-2.95-3.57-5.9-5.36-8.84
				c-0.88-1.46-1.76-2.91-2.65-4.37c-0.86-1.42-1.64-2.95-2.62-4.28c-0.9-1.22-2.38-1.42-3.34-0.14c-0.89,1.19-1.53,2.65-2.22,3.96
				c-1.47,2.79-2.82,5.64-4.07,8.53c-1.45,3.35-2.75,6.76-3.91,10.22C128.97,69.44,130.91,69.96,131.31,68.75L131.31,68.75z"/>
		</g>
	</g>
	<g>
		<g>
			<path class="st0" d="M133.16,230.51c1.79,4.25,3.94,8.34,6.53,12.16c0.6,0.88,1.18,1.89,1.92,2.66c0.82,0.84,1.95,0.73,2.71-0.14
				c0.8-0.92,1.49-1.96,2.22-2.94c0.71-0.96,1.42-1.93,2.11-2.9c1.61-2.25,3.17-4.52,4.69-6.83c0.71-1.08-1.02-2.08-1.73-1.01
				c-2.38,3.6-4.86,7.14-7.45,10.6c-0.29,0.38-0.57,0.76-0.86,1.15c-0.12,0.16-0.42,0.41-0.46,0.59c-0.02,0.02-0.04,0.05-0.07,0.07
				c0.1,0.02,0.2,0.03,0.29,0.05c0.01-0.02-0.09-0.1-0.1-0.12c-0.05-0.2-0.33-0.45-0.46-0.63c-0.13-0.18-0.26-0.36-0.39-0.55
				c-0.3-0.43-0.6-0.86-0.89-1.29c-1.13-1.68-2.18-3.42-3.15-5.2c-1.1-2.02-2.11-4.09-2.99-6.21c-0.21-0.5-0.66-0.85-1.23-0.7
				C133.39,229.4,132.95,230,133.16,230.51L133.16,230.51z"/>
		</g>
	</g>
	<g>
		<g>
			<path class="st0" d="M139.94,46.17c-0.4,25.67-0.57,51.34-0.49,77.02c0.08,25.55,0.39,51.09,0.95,76.63
				c0.31,14.41,0.7,28.81,1.17,43.22c0.04,1.28,2.04,1.29,2,0c-0.83-25.67-1.41-51.34-1.76-77.01c-0.34-25.54-0.45-51.09-0.31-76.63
				c0.08-14.41,0.23-28.81,0.45-43.22C141.96,44.88,139.96,44.88,139.94,46.17L139.94,46.17z"/>
		</g>
	</g>
</g>
<g>
	<g>
		<g>
			<g>
				<path class="st1" d="M130.9,69.66c-0.28,6.87-0.69,13.74-1.25,20.59c-0.6,7.46-1.33,14.92-2.41,22.33
					c-0.7,4.77-1.52,9.53-2.72,14.2c-0.41,1.58-0.86,3.16-1.39,4.7c-0.21,0.63-0.44,1.25-0.69,1.87c-0.05,0.14-0.11,0.28-0.17,0.42
					c-0.04,0.1-0.21,0.51-0.1,0.25c-0.11,0.25-0.22,0.5-0.33,0.75c-0.73,1.6-1.6,3.12-2.58,4.57c-3.87,5.69-8.91,10.52-14.49,14.52
					c-5.09,3.65-10.55,6.84-16.25,9.43c-6.62,3-13.6,5.19-20.7,6.71c-6.01,1.28-12.12,2.07-18.25,2.43
					c-4.49,0.26-8.99,0.3-13.48,0.1c-0.74-0.03-1.49-0.07-2.23-0.12c-1.29-0.08-1.28,1.92,0,2c4,0.24,8.02,0.3,12.02,0.18
					c5.95-0.18,11.9-0.76,17.77-1.76c7.03-1.2,13.97-3.04,20.63-5.61c6.47-2.5,12.58-5.71,18.39-9.5
					c5.39-3.52,10.43-7.63,14.62-12.54c2.1-2.46,4.11-5.11,5.6-8c1.19-2.3,2.09-4.76,2.83-7.24c1.23-4.11,2.07-8.32,2.78-12.55
					c1.14-6.79,1.93-13.64,2.57-20.49c0.73-7.71,1.28-15.44,1.65-23.17c0.07-1.35,0.12-2.71,0.18-4.06
					C132.95,68.37,130.95,68.37,130.9,69.66L130.9,69.66z"/>
			</g>
		</g>
		<g>
			<g>
				<path class="st1" d="M47.04,181.12c-4.61-2.77-9.23-5.54-13.84-8.31c0,0.58,0,1.15,0,1.73c5.51-3.09,11.03-6.19,16.54-9.28
					c1.12-0.63,0.12-2.36-1.01-1.73c-5.51,3.09-11.03,6.19-16.54,9.28c-0.66,0.37-0.63,1.35,0,1.73c4.61,2.77,9.23,5.54,13.84,8.31
					C47.14,183.51,48.15,181.78,47.04,181.12L47.04,181.12z"/>
			</g>
		</g>
		<g>
			<g>
				<path class="st1" d="M120.82,77.9c3.92-3.35,8.27-6.15,12.88-8.45c-0.46-0.12-0.91-0.24-1.37-0.36
					c1.58,3.34,3.86,6.31,6.56,8.82c0.94,0.87,2.36-0.54,1.41-1.41c-2.59-2.41-4.73-5.22-6.25-8.42c-0.24-0.51-0.92-0.58-1.37-0.36
					c-4.76,2.37-9.24,5.3-13.28,8.76C118.42,77.32,119.84,78.73,120.82,77.9L120.82,77.9z"/>
			</g>
		</g>
	</g>
	<g>
		<g>
			<g>
				<g>
					<path class="st1" d="M148.93,69.92c0.22,6.47,0.54,12.94,0.97,19.4c0.49,7.38,1.09,14.76,1.95,22.1
						c0.57,4.86,1.23,9.71,2.19,14.51c0.59,2.92,1.28,5.84,2.25,8.66c0.61,1.75,1.33,3.47,2.21,5.1c2.6,4.81,6.03,9.2,9.93,13.01
						c3.93,3.84,8.4,7.25,13.06,10.16c5.92,3.71,12.39,6.54,19.1,8.5c5.67,1.66,11.52,2.7,17.41,3.2c4.2,0.36,8.42,0.43,12.63,0.22
						c0.69-0.03,1.38-0.08,2.07-0.13c1.28-0.09,1.29-2.09,0-2c-3.64,0.26-7.29,0.31-10.94,0.15c-5.41-0.24-10.79-0.95-16.06-2.17
						c-6.46-1.5-12.74-3.76-18.61-6.86c-5.1-2.7-9.92-6.03-14.3-9.79c-4.81-4.14-8.96-8.99-12.11-14.5c-0.35-0.62-0.69-1.25-1-1.88
						c-0.18-0.38-0.36-0.76-0.53-1.14c-0.04-0.1-0.08-0.2-0.13-0.29c-0.07-0.16,0.08,0.2,0.02,0.04c-0.02-0.06-0.05-0.12-0.07-0.18
						c-0.09-0.22-0.18-0.45-0.27-0.67c-0.94-2.44-1.63-4.98-2.21-7.53c-0.95-4.17-1.61-8.4-2.17-12.64
						c-0.88-6.66-1.49-13.35-2-20.04c-0.54-7.16-0.96-14.33-1.25-21.5c-0.05-1.24-0.1-2.48-0.14-3.73
						C150.88,68.64,148.88,68.64,148.93,69.92L148.93,69.92z"/>
				</g>
			</g>
			<g>
				<g>
					<path class="st1" d="M222.49,183.11c3.89-2.77,7.79-5.54,11.68-8.31c0.62-0.44,0.66-1.29,0-1.73
						c-4.65-3.09-9.31-6.19-13.96-9.28c-1.07-0.71-2.08,1.02-1.01,1.73c4.65,3.09,9.31,6.19,13.96,9.28c0-0.58,0-1.15,0-1.73
						c-3.89,2.77-7.79,5.54-11.68,8.31c-0.44,0.31-0.65,0.87-0.36,1.37C221.38,183.18,222.05,183.42,222.49,183.11L222.49,183.11z"
						/>
				</g>
			</g>
			<g>
				<g>
					<path class="st1" d="M160.59,76.75c-3.35-3.39-7.14-6.33-11.25-8.76c-0.61-0.36-1.23,0.01-1.47,0.6
						c-1.21,3.01-2.97,5.78-5.15,8.18c-0.86,0.95,0.55,2.37,1.41,1.41c2.42-2.67,4.32-5.72,5.67-9.06c-0.49,0.2-0.98,0.4-1.47,0.6
						c3.97,2.34,7.6,5.17,10.84,8.45C160.08,79.08,161.49,77.67,160.59,76.75L160.59,76.75z"/>
				</g>
			</g>
		</g>
	</g>
</g>
<g class="st2">
	<g class="st3">
		<g>
			<path d="M169.26,153.09c0.15-0.23,0.39-0.36,0.7-0.38c0.2,0.04,0.26,0.05,0.16,0.02c0.09,0.02,0.17,0.06,0.23,0.12
				c0.08,0.06,0.09,0.07,0.04,0.02c0.11,0.15,0.13,0.18,0.08,0.1c0.05,0.08,0.08,0.16,0.08,0.25c0.02,0.09,0.01,0.18-0.02,0.27
				c-0.08,0.16-0.09,0.19-0.04,0.1c-0.11,0.13-0.12,0.16-0.05,0.08c-0.04,0.03-0.08,0.06-0.12,0.09c0.03-0.02,0.06-0.04,0.1-0.05
				c-0.15,0.06-0.18,0.08-0.08,0.04c0.13-0.03,0.26-0.06,0.4-0.08c-0.42-0.32-0.84-0.64-1.27-0.96c0.03-0.33,0.04-0.2,0.01-0.11
				c0.1-0.28,0.1-0.21,0.06-0.14c-0.08,0.14,0.18-0.2,0.07-0.09c-0.1,0.09,0.12-0.1,0.12-0.09c0,0.02-0.08,0.04-0.09,0.05
				c0.2-0.18,0.22-0.07,0.13-0.06c-0.03,0-0.09,0.01-0.11,0.03c0.2-0.09,0.24-0.01,0.11-0.02c-0.02,0-0.1,0.01-0.12,0
				c-0.02-0.01,0.29,0.07,0.14,0.02c-0.05-0.02-0.14-0.06-0.2-0.06c0.17,0,0.22,0.11,0.09,0.03c-0.02-0.01-0.05-0.04-0.07-0.04
				c0.15,0.02,0.18,0.17,0.08,0.05c-0.1-0.12,0.14,0.22,0.06,0.08c-0.12-0.2,0.08,0.25,0.01,0.02c-0.06-0.19,0,0.18,0.01,0.05
				c0.02-0.16,0.04-0.04-0.02,0.06c0.02-0.03,0.02-0.1,0.03-0.14c0.05-0.18,0.04,0.03-0.02,0.05c0.02-0.01,0.06-0.11,0.08-0.13
				c0.13-0.21-0.12,0.12,0.01-0.02c0.03-0.03,0.06-0.06,0.09-0.09c0.02-0.01,0.03-0.03,0.05-0.04c0.08-0.07,0.06-0.06-0.05,0.04
				c0.09-0.03,0.19-0.12,0.27-0.16c0.19-0.11-0.16,0.05-0.03,0.01c0.05-0.01,0.1-0.03,0.15-0.05c0.05-0.01,0.11-0.02,0.16-0.03
				c0.08-0.01,0.05-0.01-0.08,0.01c0.05,0,0.1-0.01,0.15-0.01c0.01,0,0.14-0.01,0.15,0.01c-0.04-0.01-0.08-0.01-0.11-0.02
				c0.05,0.01,0.1,0.02,0.15,0.03c0.18,0.03-0.01,0-0.05-0.03c0.03,0.03,0.08,0.04,0.12,0.06c0.21,0.13-0.17-0.16,0.01,0.01
				c0.02,0.02,0.04,0.04,0.06,0.06c0.11,0.11-0.15-0.23-0.03-0.03c0.01,0.03,0.03,0.05,0.04,0.08c0.09,0.15-0.08-0.25-0.03-0.08
				c0.02,0.07,0.05,0.14,0.06,0.22c0.05,0.24-0.01-0.25,0,0.01c0,0.09-0.01,0.17-0.01,0.26c0,0.13,0.05-0.28,0.01-0.1
				c-0.01,0.04-0.01,0.08-0.02,0.12c-0.02,0.08-0.05,0.15-0.07,0.22c-0.03,0.12,0.12-0.24,0.04-0.09c-0.02,0.03-0.03,0.07-0.05,0.1
				c-0.02,0.03-0.04,0.07-0.06,0.1c-0.1,0.15-0.01-0.01,0.05-0.05c-0.06,0.04-0.11,0.11-0.16,0.16c-0.13,0.13,0.21-0.13,0.06-0.04
				c-0.03,0.02-0.05,0.03-0.08,0.05c-0.12,0.07-0.11,0,0.05-0.01c-0.03,0-0.08,0.03-0.11,0.04c-0.05,0.02-0.11,0.03-0.17,0.04
				c-0.19,0.06,0.24-0.01,0.04,0c-0.1,0-0.19,0.01-0.28,0c-0.02,0-0.04,0-0.06,0c-0.11-0.01-0.08-0.01,0.1,0.01
				c-0.02-0.01-0.09-0.02-0.11-0.02c-0.09-0.02-0.19-0.05-0.28-0.08c-0.2-0.07,0.21,0.11,0.02,0.01c-0.05-0.03-0.11-0.05-0.16-0.08
				c-0.09-0.05-0.17-0.1-0.25-0.16c-0.17-0.11,0.14,0.12,0.04,0.03c-0.04-0.03-0.08-0.06-0.11-0.1c-0.07-0.07-0.14-0.14-0.21-0.22
				c-0.14-0.15,0.1,0.15,0.03,0.04c-0.04-0.06-0.08-0.11-0.11-0.17c-0.02-0.03-0.04-0.07-0.06-0.1c-0.03-0.06-0.14-0.19-0.01,0
				c-0.03-0.05-0.03-0.12-0.06-0.18c-0.05-0.12-0.01,0.23,0.01,0.01c-0.02,0.28-0.03,0.16,0,0.08c0.04-0.12-0.12,0.23-0.03,0.07
				c0.09-0.16-0.14,0.12-0.04,0.05c0.02-0.02,0.04-0.04,0.06-0.06c0.08-0.07,0.05-0.05-0.07,0.05c0.05-0.01,0.22-0.11,0.25-0.14
				c-0.13,0.11-0.17,0.06-0.07,0.04c0.06-0.01,0.11-0.03,0.17-0.05c0.03-0.01,0.09-0.01,0.12-0.02c-0.05,0.01-0.1,0.01-0.15,0.02
				c0.04,0,0.08-0.01,0.12-0.01c0.04,0,0.08,0,0.13,0c0.04,0,0.08,0,0.13,0.01c0.11,0.01,0.08,0.01-0.08-0.01
				c0.07,0.05,0.23,0.04,0.31,0.07c0.04,0.01,0.08,0.03,0.12,0.04c0.21,0.07-0.2-0.11-0.01,0c0.09,0.05,0.18,0.1,0.27,0.15
				c0.12,0.07-0.06,0.01-0.06-0.04c0,0.02,0.13,0.13,0.16,0.15c0.13,0.14-0.04,0.02-0.02-0.04c0,0.01,0.07,0.11,0.08,0.13
				c0.02,0.04,0.04,0.09,0.06,0.12c-0.13-0.18-0.06-0.17-0.04-0.06c0.01,0.04,0.02,0.09,0.03,0.13c0.05,0.19,0-0.2-0.01-0.08
				c0,0.04,0,0.09,0,0.13c0,0.04,0,0.07-0.01,0.11c0.01-0.05,0.02-0.11,0.02-0.16c-0.03,0.08-0.04,0.18-0.06,0.26
				c-0.05,0.19,0.12-0.21,0.02-0.04c-0.02,0.03-0.03,0.06-0.05,0.09c-0.01,0.01-0.02,0.03-0.03,0.04c-0.06,0.08-0.04,0.06,0.06-0.08
				c-0.02,0.01-0.06,0.06-0.07,0.07c-0.12,0.14,0.2-0.12,0.04-0.03c-0.04,0.02-0.11,0.05-0.14,0.08c0.05-0.02,0.09-0.04,0.14-0.06
				c-0.03,0.01-0.07,0.02-0.1,0.03c0.02-0.02,0.26-0.01,0.11-0.02c-0.02,0-0.04,0-0.05,0c-0.11-0.01-0.07,0,0.11,0.02
				c-0.02-0.01-0.09-0.02-0.1-0.03c-0.19-0.04,0.2,0.12,0.04,0.02c-0.03-0.02-0.06-0.04-0.09-0.05c-0.17-0.09,0.16,0.17,0.03,0.03
				c-0.03-0.03-0.07-0.09-0.11-0.12c0.13,0.08,0.12,0.17,0.05,0.05c-0.11-0.19,0.04,0.2,0.01,0.03c-0.03-0.16,0.01,0.11,0.01,0.12
				c0-0.03,0-0.07,0-0.1c-0.03,0.18-0.03,0.22-0.01,0.11c0.01-0.03,0.03-0.07,0.03-0.1c-0.08,0.17-0.09,0.21-0.04,0.12
				c0.04-0.06,0.03-0.05-0.03,0.03c-0.12,0.15-0.02,0.03,0.01,0.01c0.12-0.12-0.23,0.15-0.05,0.04c0.09-0.05,0.13-0.02-0.1,0.04
				c0.04-0.01,0.08-0.03,0.13-0.04c0.11-0.03,0.17,0.02-0.09,0.01c0.04,0,0.09-0.01,0.14-0.01c0.04,0,0.1,0.01,0.14,0.01
				c-0.08,0.01-0.26-0.05-0.08,0c0.04,0.01,0.08,0.02,0.11,0.03c0.21,0.05-0.19-0.11-0.04-0.02c0.03,0.02,0.06,0.03,0.08,0.04
				c0.03,0.02,0.05,0.03,0.08,0.05c0.08,0.06,0.05,0.04-0.09-0.07c0.02,0.02,0.05,0.05,0.07,0.06c0.02,0.02,0.04,0.05,0.06,0.07
				c-0.1-0.14-0.13-0.17-0.09-0.11c0.01,0.04,0.05,0.09,0.07,0.12c0.1,0.18-0.04-0.17,0,0.01c0,0.01,0.06,0.19,0.05,0.2
				c-0.02-0.14-0.02-0.18-0.01-0.1c0,0.03,0.01,0.07,0.01,0.1c0,0.07,0,0.14,0,0.2c0,0.02,0,0.05,0,0.07
				c-0.01,0.11-0.01,0.09,0.01-0.06c0.03,0.04-0.09,0.36-0.1,0.41c-0.01,0.05-0.03,0.09-0.05,0.13c-0.02,0.04-0.03,0.09-0.05,0.13
				c0.05-0.13,0.06-0.14,0.01-0.04c-0.07,0.12-0.13,0.25-0.2,0.37c0.46-0.12,0.91-0.24,1.37-0.36c-0.11-0.08,0.04,0.02,0.06,0.05
				c-0.02-0.03-0.08-0.07-0.11-0.1c-0.03-0.03-0.05-0.06-0.08-0.09c-0.08-0.08,0.11,0.17,0.05,0.06c-0.04-0.07-0.08-0.17-0.13-0.23
				c0.02,0.03,0.07,0.21,0.04,0.08c-0.01-0.05-0.03-0.09-0.04-0.14c-0.01-0.04-0.01-0.08-0.02-0.11c-0.03-0.12,0.01,0.21,0.01,0.09
				c0-0.09,0-0.17,0-0.26c0.01-0.14,0,0.06-0.01,0.09c0.02-0.03,0.02-0.08,0.03-0.11c0.01-0.05,0.03-0.09,0.04-0.14
				c0.03-0.11-0.11,0.23-0.02,0.05c0.24-0.46,0.14-1.11-0.36-1.37c-0.46-0.24-1.11-0.14-1.37,0.36c-0.64,1.23-0.24,2.71,0.9,3.49
				c0.45,0.3,1.11,0.08,1.37-0.36c0.39-0.66,0.69-1.45,0.65-2.23c-0.04-0.83-0.39-1.59-1.1-2.04c-0.54-0.34-1.3-0.46-1.91-0.27
				c-0.75,0.24-1.35,0.91-1.33,1.73c0.01,0.84,0.57,1.53,1.33,1.85c0.76,0.32,1.66,0.14,2.23-0.47c0.55-0.6,0.73-1.4,0.59-2.19
				c-0.13-0.73-0.67-1.38-1.31-1.73c-0.69-0.38-1.5-0.5-2.27-0.36c-0.77,0.14-1.52,0.7-1.73,1.48c-0.23,0.86,0.24,1.73,0.81,2.35
				c0.45,0.49,1.09,0.88,1.75,1.02c0.71,0.16,1.52,0.1,2.15-0.3c0.55-0.35,0.94-0.9,1.12-1.52c0.37-1.27-0.21-2.78-1.57-3.13
				c-1.71-0.44-3.78,0.95-3.42,2.84c0.26,1.38,2.24,1.9,3.21,0.94c0.3-0.3,0.42-0.66,0.45-1.07c0.03-0.31-0.16-0.61-0.39-0.79
				c-0.27-0.21-0.54-0.23-0.87-0.18c-0.42,0.06-0.81,0.21-1.14,0.48c-0.4,0.33-0.6,0.87-0.47,1.38c0.26,1.07,1.8,1.54,2.4,0.47
				c0.26-0.46,0.13-1.11-0.36-1.37C170.15,152.48,169.53,152.6,169.26,153.09L169.26,153.09z"/>
		</g>
	</g>
	<g class="st3">
		<g>
			<g>
				<path d="M179.66,139.35c-1.62,2.47-2.87,5.37-3.25,8.31c-0.16,1.26-0.03,2.63,0.88,3.59c0.8,0.84,1.99,1.17,3.06,0.68
					c0.58-0.27,0.08-1.13-0.5-0.86c-0.93,0.43-1.94-0.37-2.28-1.21c-0.44-1.11-0.16-2.38,0.11-3.49c0.57-2.32,1.54-4.52,2.85-6.51
					C180.88,139.31,180.01,138.81,179.66,139.35L179.66,139.35z"/>
			</g>
		</g>
		<g>
			<g>
				<path d="M182.56,142.73c-0.41,2.27-0.57,4.58-0.43,6.88c0.04,0.64,1.04,0.64,1,0c-0.13-2.21,0-4.43,0.4-6.62
					C183.64,142.37,182.67,142.1,182.56,142.73L182.56,142.73z"/>
			</g>
		</g>
		<g>
			<g>
				<path d="M185.88,149.71c-0.86,1.64-1.72,3.27-2.58,4.91c-0.3,0.57,0.56,1.08,0.86,0.5c0.86-1.64,1.72-3.27,2.58-4.91
					C187.04,149.64,186.18,149.13,185.88,149.71L185.88,149.71z"/>
			</g>
		</g>
		<g>
			<g>
				<path d="M189.19,142.33c-0.38,1.9-0.48,3.85-0.28,5.78c0.03,0.27,0.21,0.5,0.5,0.5c0.25,0,0.53-0.23,0.5-0.5
					c-0.19-1.84-0.12-3.7,0.24-5.51C190.28,141.97,189.31,141.7,189.19,142.33L189.19,142.33z"/>
			</g>
		</g>
		<g>
			<g>
				<path d="M191.12,141.12c0.71,2.04,1.1,4.16,1.12,6.32c0.01,1.05-0.06,2.11-0.23,3.15c-0.1,0.62-0.31,1.84-1.12,1.88
					c-0.64,0.03-0.64,1.03,0,1c2.2-0.11,2.25-3.36,2.33-4.93c0.12-2.61-0.28-5.23-1.14-7.69
					C191.88,140.25,190.91,140.51,191.12,141.12L191.12,141.12z"/>
			</g>
		</g>
	</g>
</g>
<g class="st2">
	<g class="st3">
		<g>
			<path d="M110.51,149.01c0.04,0.01,0.08,0.03,0.12,0.04c0.14,0.02-0.13-0.08-0.01-0.01c0.07,0.04,0.14,0.09,0.22,0.12
				c0.09,0.05-0.02-0.02-0.04-0.03c0.04,0.04,0.08,0.07,0.12,0.11c0.03,0.03,0.06,0.06,0.09,0.09c0.1,0.08-0.07-0.12,0-0.01
				c0.05,0.08,0.1,0.17,0.15,0.25c-0.09-0.14-0.01-0.02,0.02,0.07c0.03,0.1,0.02,0.23,0.02,0.06c0,0.05,0,0.11,0,0.17
				c0.01,0.17-0.03-0.02,0.02-0.06c-0.02,0.02-0.03,0.14-0.04,0.17c-0.03,0.15,0.11-0.17,0,0c-0.03,0.04-0.14,0.17-0.03,0.07
				c0.12-0.12-0.07,0.06-0.1,0.09c0,0-0.06,0.06-0.07,0.06c-0.01,0,0.18-0.12,0.09-0.07c-0.06,0.04-0.12,0.08-0.18,0.11
				c-0.04,0.02-0.14,0.05-0.16,0.08c0.01-0.02,0.23-0.08,0.07-0.03c-0.04,0.01-0.08,0.03-0.12,0.04c-0.06,0.02-0.12,0.03-0.18,0.04
				c-0.17,0.05,0.22-0.01-0.01,0c-0.06,0-0.12,0.01-0.18,0c-0.03,0-0.06,0-0.09,0c-0.19,0,0.16,0.04,0.06,0.01
				c-0.05-0.02-0.12-0.02-0.17-0.04c-0.03-0.01-0.06-0.02-0.08-0.03c-0.17-0.04,0.09,0.02,0.08,0.03c0,0.01-0.14-0.08-0.15-0.08
				c-0.03-0.01-0.1-0.08,0.01,0.01c0.13,0.11-0.01-0.01-0.03-0.04c-0.15-0.16,0.01,0.01,0,0.02c-0.01,0-0.16-0.29-0.08-0.12
				c0.07,0.13-0.01-0.07-0.02-0.11c-0.05-0.1,0.03,0.1,0.01,0.1c0,0-0.01-0.16-0.01-0.17c0-0.01,0-0.1,0-0.1
				c0.01,0-0.05,0.21-0.01,0.1c0.02-0.07,0.04-0.16,0.06-0.23c0.04-0.17-0.08,0.14,0-0.02c0.05-0.08,0.09-0.16,0.14-0.24
				c0.09-0.15-0.11,0.11,0.02-0.02c0.05-0.05,0.1-0.1,0.15-0.15c0.03-0.03,0.07-0.06,0.11-0.09c-0.01,0.01-0.16,0.09-0.06,0.05
				c0.07-0.03,0.14-0.08,0.21-0.12c0.17-0.1-0.05,0.03-0.05,0.02c0-0.01,0.09-0.03,0.1-0.03c0.05-0.01,0.24-0.09,0.1-0.03
				c-0.2,0.08,0.14-0.04,0.13,0.01c0,0.02-0.21-0.05-0.1-0.01c0.04,0.01,0.09,0.02,0.13,0.03c0.01,0,0.02,0.01,0.03,0.01
				c0.09,0.03,0.09,0.03,0,0c-0.05,0.02-0.09-0.05-0.01,0c0.02,0.02,0.05,0.04,0.08,0.05c0.1,0.04-0.1-0.06-0.08-0.07
				c0.03-0.01,0.12,0.12,0.15,0.14c0.1,0.06-0.09-0.09-0.06-0.09c0.01,0,0.06,0.09,0.07,0.1c0.03,0.06,0.09,0.23,0.06,0.09
				c-0.04-0.16,0.01,0.04,0.02,0.08c0.02,0.07,0.03,0.14,0.05,0.21c0.04,0.16,0-0.22,0,0.01c0,0.07,0.01,0.14,0,0.21
				c0,0.03-0.01,0.06-0.01,0.09c0,0.1,0.01-0.11,0.02-0.11c-0.03,0.04-0.12,0.36-0.11,0.41c0-0.01,0.09-0.18,0.04-0.1
				c-0.02,0.03-0.04,0.07-0.06,0.11c-0.02,0.04-0.14,0.19-0.04,0.07c0.11-0.13-0.06,0.05-0.08,0.07c-0.09,0.11,0.17-0.1-0.01,0.01
				c-0.03,0.01-0.05,0.03-0.08,0.05c-0.12,0.08,0.04-0.08,0.07-0.03c-0.01-0.01-0.19,0.07-0.19,0.06c-0.01-0.02,0.21,0,0.1-0.01
				c-0.03,0-0.07,0-0.1,0c0.01,0-0.13,0-0.13-0.01c0-0.02,0.23,0.06,0.07,0c-0.02-0.01-0.19-0.04-0.19-0.06
				c0-0.02,0.19,0.11,0.06,0.02c-0.03-0.02-0.06-0.03-0.09-0.05c-0.04-0.03-0.18-0.15-0.09-0.06c0.1,0.1,0-0.01-0.03-0.03
				c-0.03-0.03-0.07-0.07-0.1-0.1c-0.02-0.02-0.04-0.05-0.07-0.08c0.01,0.01,0.1,0.16,0.05,0.06c-0.04-0.07-0.09-0.13-0.13-0.21
				c-0.02-0.03-0.03-0.06-0.05-0.09c-0.07-0.1,0.04,0.09,0.03,0.08c-0.04-0.02-0.06-0.21-0.08-0.26c-0.05-0.17,0,0.18,0,0
				c0-0.04,0-0.09,0-0.13c0-0.07,0.04-0.09-0.01,0c-0.07,0.12,0.03-0.03,0.03-0.09c0.01-0.12-0.03,0.1-0.04,0.08
				c-0.01-0.04,0.08-0.11,0.08-0.15c0.01-0.08-0.02,0.03-0.05,0.06c0.03-0.03,0.05-0.05,0.07-0.08c0.02-0.03,0.06-0.05,0.08-0.07
				c-0.12,0.13-0.09,0.06-0.03,0.03c0.06-0.03,0.13-0.07,0.19-0.1c-0.19,0.1,0.01,0.01,0.11-0.01c0.18-0.05-0.16-0.01,0.02,0
				c0.03,0,0.08,0.01,0.11,0c0.12-0.03-0.17-0.05-0.05-0.01c0.04,0.01,0.25,0.04,0.12,0.02c-0.11-0.02-0.04-0.02,0.01,0.01
				c0.05,0.03,0.14,0.14,0.07,0.04c-0.06-0.09-0.04-0.01,0,0.02c-0.02-0.01-0.08-0.14-0.03-0.04c0.02,0.04,0.05,0.08,0.07,0.12
				c-0.02-0.04-0.05-0.16,0,0.02c0.02,0.06,0.04,0.27,0.03,0.1c0.01,0.12,0.01,0.23,0,0.35c-0.01,0.19,0.04-0.12-0.01,0.06
				c-0.02,0.08-0.04,0.16-0.07,0.24c-0.05,0.18-0.01,0.03,0.01-0.01c-0.02,0.04-0.04,0.07-0.06,0.11c-0.05,0.08-0.1,0.16-0.15,0.24
				c0.12-0.17-0.04,0.03-0.08,0.07c-0.03,0.03-0.06,0.05-0.09,0.08c0.01-0.01,0.14-0.08,0.04-0.04c-0.08,0.04-0.26,0.12-0.08,0.06
				c-0.04,0.01-0.08,0.03-0.11,0.04c-0.02,0.01-0.2,0.05-0.06,0.02c0.14-0.03-0.03,0.01-0.06,0c-0.07-0.04,0.04,0.01,0.08,0.02
				c-0.08-0.02-0.15-0.04-0.22-0.06c0.04,0.01,0.18,0.1,0.03,0.01c-0.02-0.02-0.07-0.05-0.1-0.06c-0.08-0.02,0.02,0.02,0.05,0.04
				c-0.04-0.03-0.08-0.07-0.11-0.1c-0.04-0.04-0.07-0.07-0.1-0.11c0.02,0.02,0.12,0.09,0.05,0.05c-0.03-0.02-0.04-0.07-0.06-0.1
				c0.02,0.02,0.04,0.17,0.03,0.07c0-0.03-0.02-0.08-0.03-0.1c-0.07-0.21,0.02,0.06,0,0.05c-0.01,0,0-0.1,0-0.11
				c0-0.14-0.03,0.18,0,0.05c0.03-0.11-0.03,0.06-0.04,0.07c-0.01,0.01,0.06-0.11,0.06-0.11c0,0-0.13,0.16-0.06,0.08
				c0-0.01,0.07-0.06,0.07-0.07c0.01,0.01-0.18,0.11-0.08,0.06c0.03-0.02,0.08-0.04,0.11-0.06c0.08-0.06-0.08,0.05-0.1,0.04
				c0,0,0.11-0.04,0.12-0.04c0.03-0.01,0.06-0.01,0.09-0.02c0.12-0.04-0.2,0-0.07,0.01c0.06,0.01,0.13,0,0.2,0
				c0.23,0-0.13-0.04,0.03,0.01c0.03,0.01,0.07,0.02,0.1,0.03c0.02,0.01,0.04,0.01,0.06,0.02c0.05,0.02,0.04,0.01-0.03-0.01
				c-0.07,0.01-0.07-0.04,0,0c0.04,0.02,0.08,0.04,0.12,0.06c0.03,0.02,0.05,0.04,0.08,0.05c0.1,0.05-0.09-0.04-0.07-0.05
				c0,0,0.14,0.13,0.14,0.14c0,0-0.11-0.19-0.03-0.02c0.03,0.05,0.06,0.1,0.08,0.16c-0.08-0.15,0,0.03,0.02,0.09
				c0.02,0.06,0.03,0.11,0.04,0.17c0-0.02-0.01-0.16-0.01-0.05c0,0.09,0.01,0.18,0,0.27c0,0.03-0.01,0.22,0,0.09
				c0.01-0.11-0.01,0.07-0.02,0.09c-0.04,0.2-0.1,0.39-0.17,0.58c0.06-0.15-0.03,0.05-0.06,0.1c-0.06,0.11-0.12,0.21-0.19,0.31
				c-0.04,0.05-0.17,0.2-0.05,0.08c-0.07,0.08-0.14,0.15-0.21,0.23c-0.03,0.03-0.21,0.17-0.13,0.12c0.09-0.06-0.03,0.02-0.04,0.02
				c-0.06,0.04-0.12,0.07-0.19,0.1c-0.1,0.06,0.03-0.02,0.04-0.02c-0.04,0.01-0.09,0.02-0.12,0.04c-0.09,0.04,0.03,0,0.06,0
				c-0.05,0.01-0.11,0.01-0.16,0.01c-0.03,0-0.07-0.01-0.11-0.01c-0.12,0.01,0.1,0,0.09,0.01c0,0-0.09-0.02-0.1-0.02
				c-0.2-0.07,0.01,0.03,0.02,0.02c-0.01,0.01-0.16-0.09-0.17-0.1c-0.14-0.08,0.13,0.14-0.04-0.03c-0.05-0.05-0.09-0.11-0.14-0.15
				c-0.08-0.07,0.04,0.05,0.05,0.06c-0.03-0.05-0.07-0.1-0.1-0.15c-0.04-0.06-0.07-0.13-0.11-0.19c-0.02-0.03-0.03-0.07-0.05-0.1
				c0.01,0.03,0.07,0.2,0.01,0.03c-0.06-0.17-0.11-0.34-0.15-0.52c-0.02-0.1-0.03-0.22-0.01-0.04c-0.01-0.08-0.02-0.15-0.02-0.23
				c-0.01-0.18,0-0.36,0.01-0.54c0.02-0.2,0.01-0.05,0-0.01c0.01-0.05,0.01-0.09,0.02-0.14c0.02-0.09,0.04-0.18,0.06-0.27
				c0.03-0.1,0.05-0.21,0.09-0.31c0.01-0.04,0.03-0.09,0.05-0.13c0.04-0.14-0.06,0.12,0-0.01c0.09-0.18,0.18-0.34,0.29-0.51
				c-0.1,0.15,0.06-0.07,0.1-0.11c0.05-0.05,0.25-0.2,0.09-0.1c0.08-0.06,0.17-0.11,0.26-0.16c0.04-0.02,0.08-0.04,0.12-0.06
				c-0.02,0.01-0.14,0.04-0.04,0.02c0.1-0.02,0.19-0.06,0.29-0.08c0.02-0.01,0.15-0.01,0.03-0.01c-0.13,0.01,0.05,0,0.08,0
				c0.04,0,0.08,0,0.13,0c0.19,0,0.02,0.01-0.02,0c0.08,0.02,0.16,0.04,0.24,0.07c-0.02-0.01-0.14-0.08-0.05-0.02
				c0.04,0.03,0.1,0.06,0.14,0.09c0.11,0.06-0.05-0.03-0.06-0.05c0.01,0.01,0.1,0.08,0.1,0.1c0,0.01-0.1-0.17-0.05-0.07
				c0.02,0.04,0.05,0.08,0.07,0.12c0.01,0.01,0.05,0.08,0.05,0.09c0,0.02-0.05-0.2-0.04-0.08c0,0.03,0.08,0.21,0.06,0.24
				c-0.02,0.02,0-0.22-0.02-0.09c-0.01,0.04,0,0.09,0,0.14c0,0.01,0,0.1-0.01,0.1c-0.03,0,0.07-0.26,0-0.07
				c-0.01,0.02-0.03,0.07-0.03,0.1c0,0.12,0.01-0.1,0.04-0.09c0,0-0.04,0.08-0.05,0.09c-0.07,0.08,0.07-0.06,0.06-0.07
				c-0.01-0.01-0.08,0.1-0.09,0.1c0,0,0.21-0.14,0.04-0.03c0.17-0.05,0.34-0.09,0.5-0.14c-0.13,0-0.04-0.01,0.03,0.01
				c0.1,0.05,0.13,0.06,0.06,0.02c-0.05-0.03-0.04-0.03,0.01,0.01c0.01,0.01,0.14,0.16,0.08,0.07c-0.03-0.05-0.03-0.05,0,0.01
				c0.03,0.05,0.04,0.1,0.04,0.16c0,0.08-0.03,0.13-0.06,0.21c0.03-0.1,0.04-0.06-0.02,0.01c-0.03,0.02-0.05,0.04-0.08,0.06
				c0.08-0.05,0.09-0.05,0.02-0.02c-0.04,0-0.27,0.03-0.08,0.04c-0.24-0.1-0.47-0.2-0.71-0.29c0.04,0.04,0.08,0.07,0.11,0.11
				c-0.07-0.1-0.08-0.11-0.01-0.02c0.05,0.09,0.11,0.18,0.15,0.28c-0.11-0.23,0.01,0.09,0.02,0.13c0.02,0.11,0.02,0.1,0-0.03
				c0.01,0.05,0.01,0.11,0.01,0.16c0,0.11,0,0.21-0.01,0.32c0.03-0.27-0.03,0.07-0.04,0.12c-0.04,0.11-0.03,0.1,0.02-0.02
				c-0.02,0.05-0.05,0.09-0.07,0.14c-0.03,0.05-0.05,0.09-0.08,0.13c0.08-0.1,0.08-0.1,0.01-0.02c0.47,0,0.94,0,1.41,0
				c-0.04-0.04-0.08-0.08-0.12-0.13c0.07,0.09,0.07,0.08,0.01-0.01c-0.05-0.1-0.06-0.1-0.01,0c-0.02-0.05-0.04-0.11-0.06-0.17
				c-0.02-0.06-0.03-0.11-0.04-0.17c0.02,0.12,0.02,0.12,0.01,0c0-0.06,0-0.12,0.01-0.17c-0.02,0.12-0.01,0.12,0.01,0.01
				c0.12-0.51-0.16-1.11-0.7-1.23c-0.51-0.12-1.1,0.15-1.23,0.7c-0.22,0.94,0.03,1.89,0.71,2.59c0.36,0.37,1.06,0.41,1.41,0
				c0.99-1.15,1.03-2.89,0-4.03c-0.71-0.79-2.01-0.32-2.42,0.56c-0.42,0.9-0.02,1.93,0.9,2.32c0.49,0.21,0.98,0.18,1.41-0.16
				c0.32-0.25,0.52-0.57,0.67-0.94c0.25-0.63,0.15-1.36-0.14-1.97c-0.69-1.44-2.62-1.62-3.87-0.86c-1.25,0.76-1.84,2.29-1.86,3.7
				c-0.02,1.24,0.5,2.65,1.6,3.31c0.61,0.36,1.39,0.44,2.05,0.19c0.74-0.28,1.32-0.83,1.74-1.49c0.79-1.24,0.99-3.05-0.08-4.2
				c-0.88-0.95-2.61-1.09-3.54-0.14c-1.2,1.22-0.35,3.12,1.11,3.63c1.5,0.53,2.96-0.67,3.34-2.08c0.2-0.75,0.14-1.64-0.3-2.3
				c-0.43-0.64-1.15-1.01-1.92-0.99c-1.38,0.04-2.6,1.19-2.45,2.62c0.14,1.35,1.22,2.54,2.61,2.64c2.69,0.2,3.48-3.92,1.24-5.08
				c-1.28-0.66-2.74-0.02-3.47,1.14c-0.71,1.13-0.51,2.67,0.63,3.43c0.91,0.61,2.26,0.53,3.15-0.09c0.5-0.35,0.91-0.82,1.07-1.43
				c0.18-0.69,0.04-1.47-0.34-2.07c-0.4-0.64-1.02-1.11-1.74-1.31c-0.5-0.14-1.11,0.17-1.23,0.7
				C109.69,148.31,109.97,148.86,110.51,149.01L110.51,149.01z"/>
		</g>
	</g>
	<g class="st3">
		<g>
			<g>
				<path d="M83.95,138.41c-2.03,2.12-3.13,5.05-3.03,7.98c0.05,1.33,0.27,2.91,0.99,4.06c0.62,0.99,1.97,1.93,3.01,0.95
					c0.47-0.44-0.24-1.15-0.71-0.71c-0.39,0.37-0.94-0.13-1.21-0.44c-0.39-0.44-0.57-1.02-0.73-1.57c-0.31-1.1-0.42-2.24-0.34-3.38
					c0.16-2.3,1.12-4.52,2.72-6.18C85.11,138.65,84.4,137.94,83.95,138.41L83.95,138.41z"/>
			</g>
		</g>
		<g>
			<g>
				<path d="M89.75,140.1c0.08,2.75,0.16,5.5,0.25,8.25c0.02,0.64,1.02,0.64,1,0c-0.08-2.75-0.16-5.5-0.25-8.25
					C90.73,139.46,89.73,139.46,89.75,140.1L89.75,140.1z"/>
			</g>
		</g>
		<g>
			<g>
				<path d="M94.2,146.73c-0.58,1.77-1.15,3.54-1.73,5.3c-0.2,0.61,0.77,0.88,0.96,0.27c0.58-1.77,1.15-3.54,1.73-5.3
					C95.36,146.39,94.39,146.12,94.2,146.73L94.2,146.73z"/>
			</g>
		</g>
		<g>
			<g>
				<path d="M97.41,139.6c0,3.13,0,6.26,0,9.39c0,0.64,1,0.64,1,0c0-3.13,0-6.26,0-9.39C98.41,138.96,97.41,138.95,97.41,139.6
					L97.41,139.6z"/>
			</g>
		</g>
		<g>
			<g>
				<path d="M101.71,137.61c0.83,2.43,1.65,4.96,1.47,7.56c-0.15,2.19-1.07,4.25-2.77,5.67c-0.49,0.41,0.22,1.12,0.71,0.71
					c1.8-1.5,2.79-3.69,3.03-6c0.29-2.8-0.58-5.58-1.47-8.2C102.47,136.73,101.5,136.99,101.71,137.61L101.71,137.61z"/>
			</g>
		</g>
		<g>
			<g>
				<path d="M84.86,145.32c0.63-0.25,1.25-0.5,1.88-0.75c0.13-0.05,0.23-0.11,0.3-0.23c0.06-0.11,0.09-0.27,0.05-0.39
					c-0.08-0.23-0.35-0.45-0.62-0.35c-0.63,0.25-1.25,0.5-1.88,0.75c-0.13,0.05-0.23,0.11-0.3,0.23c-0.06,0.11-0.09,0.27-0.05,0.39
					C84.32,145.21,84.6,145.42,84.86,145.32L84.86,145.32z"/>
			</g>
		</g>
	</g>
</g>
<g>
	<g>
		<g>
			<path d="M94.66,33.04c-0.4-4.29-1.98-8.49-1.55-12.84c0.19-1.9,0.8-3.85,2.06-5.32c1.25-1.46,3-2.33,4.82-2.88
				c0.71-0.21,5.24-1.59,5.19,0c-0.02,0.64,0.98,0.64,1,0c0.06-1.96-2.56-1.8-3.84-1.57c-2.12,0.37-4.3,0.96-6.11,2.18
				c-3.78,2.56-4.56,7.28-4.05,11.53c0.36,2.99,1.19,5.89,1.47,8.89C93.72,33.68,94.73,33.68,94.66,33.04L94.66,33.04z"/>
		</g>
	</g>
	<g>
		<g>
			<path d="M90.45,21.8c4.38,0.07,8.77,0.15,13.15,0.22c0.64,0.01,0.64-0.99,0-1c-4.38-0.07-8.77-0.15-13.15-0.22
				C89.8,20.78,89.8,21.78,90.45,21.8L90.45,21.8z"/>
		</g>
	</g>
	<g>
		<g>
			<path d="M112.86,11.35c-2.05,3.07-3.61,6.46-4.6,10.02c-0.49,1.75-0.83,3.53-1.03,5.33c-0.19,1.68-0.45,3.6,0.18,5.22
				c0.59,1.53,2.24,2.78,3.92,2.17c0.6-0.22,0.34-1.18-0.27-0.96c-0.91,0.33-1.85-0.14-2.38-0.9c-0.59-0.85-0.66-1.96-0.64-2.96
				c0.04-2.03,0.34-4.07,0.79-6.06c0.92-4.05,2.58-7.9,4.89-11.35C114.08,11.31,113.21,10.81,112.86,11.35L112.86,11.35z"/>
		</g>
	</g>
	<g>
		<g>
			<path d="M115.57,15.64c2.21,5.15,5.27,9.89,9.04,14.02c0.43,0.48,1.14-0.23,0.71-0.71c-3.71-4.08-6.71-8.75-8.88-13.82
				C116.18,14.54,115.32,15.05,115.57,15.64L115.57,15.64z"/>
		</g>
	</g>
	<g>
		<g>
			<path d="M124.56,15.9c-3.83,6.04-7.66,12.07-11.49,18.11c-0.35,0.54,0.52,1.05,0.86,0.5c3.83-6.04,7.66-12.07,11.49-18.11
				C125.77,15.86,124.9,15.35,124.56,15.9L124.56,15.9z"/>
		</g>
	</g>
	<g>
		<g>
			<path d="M128.08,15.69c2.36,2.56,3.3,6.01,3.62,9.41c0.16,1.73,0.24,3.51,0.13,5.25c-0.11,1.63-0.78,3.82-2.71,4.02
				c-0.63,0.07-0.64,1.07,0,1c4.43-0.46,3.88-6.54,3.64-9.68c-0.29-3.86-1.27-7.79-3.96-10.71
				C128.35,14.51,127.65,15.21,128.08,15.69L128.08,15.69z"/>
		</g>
	</g>
	<g>
		<g>
			<path d="M139.26,19.28c2.62,0.1,5.25,0.19,7.87,0.29c0.64,0.02,0.64-0.98,0-1c-2.62-0.1-5.25-0.19-7.87-0.29
				C138.62,18.25,138.62,19.25,139.26,19.28L139.26,19.28z"/>
		</g>
	</g>
	<g>
		<g>
			<path d="M140.41,24.11c3.09,0.26,6.22-0.09,9.18-1.02c0.61-0.19,0.35-1.16-0.27-0.96c-2.89,0.91-5.9,1.24-8.92,0.98
				C139.77,23.06,139.77,24.06,140.41,24.11L140.41,24.11z"/>
		</g>
	</g>
	<g>
		<g>
			<path d="M164.3,7.02c-0.25,3.34,0.11,6.7,1.06,9.91c0.18,0.62,1.15,0.35,0.96-0.27c-0.93-3.13-1.27-6.39-1.03-9.64
				C165.35,6.37,164.35,6.38,164.3,7.02L164.3,7.02z"/>
		</g>
	</g>
	<g>
		<g>
			<path d="M157.17,21.58c3.15-0.44,6.3-0.89,9.45-1.33c1.5-0.21,3.04-0.34,4.52-0.64c0.9-0.18,1.91-0.7,1.87-1.75
				c-0.02-0.64-1.02-0.64-1,0c0.03,0.92-2.14,0.93-2.72,1.02c-1.39,0.2-2.78,0.39-4.17,0.59c-2.74,0.39-5.48,0.77-8.22,1.16
				C156.26,20.7,156.53,21.67,157.17,21.58L157.17,21.58z"/>
		</g>
	</g>
	<g>
		<g>
			<path d="M160.66,26.53c2.97,3.05,5.63,6.37,7.97,9.92c0.35,0.54,1.22,0.04,0.86-0.5c-2.38-3.62-5.1-7.02-8.13-10.12
				C160.91,25.36,160.21,26.07,160.66,26.53L160.66,26.53z"/>
		</g>
	</g>
	<g>
		<g>
			<path d="M166.96,24.39c-2.14,3.87-4.29,7.74-6.43,11.61c-0.31,0.56,0.55,1.07,0.86,0.5c2.14-3.87,4.29-7.74,6.43-11.61
				C168.13,24.34,167.27,23.83,166.96,24.39L166.96,24.39z"/>
		</g>
	</g>
	<g>
		<g>
			<path d="M170.57,22.26c0.91-0.19,1.49,1.08,1.36,1.85c-0.21,1.23-1.48,2.06-2.43,2.7c-0.4,0.27-0.26,0.92,0.25,0.93
				c1.6,0.02,3.19,0.05,4.79,0.07c0.64,0.01,0.64-0.99,0-1c-1.6-0.02-3.19-0.05-4.79-0.07c0.08,0.31,0.17,0.62,0.25,0.93
				c1.29-0.87,2.85-2,2.94-3.71c0.07-1.43-1.1-2.99-2.64-2.67C169.68,21.42,169.94,22.39,170.57,22.26L170.57,22.26z"/>
		</g>
	</g>
</g>
<g>
	<g>
		<g>
			<path d="M148.86,81.53c-3.23,2.64-6.09,5.7-8.51,9.09c-0.6,0.85-1.18,1.71-1.72,2.6c-0.41,0.66-0.83,1.46-0.11,2.08
				c0.7,0.59,1.92,0.54,2.78,0.66c1.18,0.16,2.37,0.31,3.56,0.45c2.69,0.32,5.39,0.58,8.1,0.8c0.16,0.01,0.37-0.1,0.43-0.25
				c0.29-0.66,0.2-1.37-0.36-1.86c-0.48-0.42-1.2,0.29-0.71,0.71c0.19,0.17,0.32,0.39,0.21,0.65c0.14-0.08,0.29-0.17,0.43-0.25
				c-4.26-0.34-8.5-0.8-12.73-1.4c-0.32-0.04-0.97-0.04-1.03-0.4c-0.06-0.35,0.46-0.93,0.65-1.23c0.5-0.79,1.02-1.56,1.57-2.31
				c1.09-1.5,2.27-2.94,3.54-4.3c1.44-1.55,2.99-2.99,4.63-4.33C150.07,81.83,149.36,81.13,148.86,81.53L148.86,81.53z"/>
		</g>
	</g>
	<g>
		<g>
			<path d="M139.76,94.69c5.47-0.94,10.31-3.75,15.41-5.75c2.6-1.02,5.31-1.82,8.12-2.01c3.22-0.21,6.43,0.23,9.65,0.22
				c0.88,0,1.77-0.04,2.64-0.14c0.5-0.05,1.19-0.15,1.31-0.76c0.21-1.09-1.76-1.01-1.27,0.11c0.26,0.59,1.12,0.08,0.86-0.5
				c-0.01-0.02-0.02-0.04-0.03-0.07c0,0.17,0,0.34,0,0.5c0.19-0.44-1.22-0.25-1.36-0.24c-0.36,0.03-0.72,0.05-1.08,0.07
				c-0.68,0.03-1.37,0.03-2.05,0.01c-1.37-0.03-2.74-0.12-4.11-0.19c-2.58-0.13-5.15-0.12-7.7,0.4c-4.61,0.95-8.8,3.2-13.11,5.01
				c-2.44,1.03-4.95,1.91-7.57,2.36C138.86,93.83,139.13,94.8,139.76,94.69L139.76,94.69z"/>
		</g>
	</g>
</g>
<g>
	<line class="st4" x1="282.31" y1="115.01" x2="281.93" y2="115.38"/>
	<g>
		<g>
			<path d="M180.9,85.1c4.99-2.42,10.18-4.37,15.53-5.83c0.62-0.17,0.36-1.13-0.27-0.96c-5.43,1.48-10.71,3.47-15.77,5.93
				C179.82,84.52,180.32,85.38,180.9,85.1L180.9,85.1z"/>
		</g>
	</g>
	<g>
		<g>
			<path d="M188.81,70.44c-1.71,9.21-2.79,18.53-3.21,27.88c-0.02,0.33,0.33,0.56,0.63,0.48c0.74-0.18,1.28-0.72,1.46-1.47
				c0.15-0.63-0.81-0.89-0.96-0.27c-0.1,0.41-0.35,0.67-0.76,0.77c0.21,0.16,0.42,0.32,0.63,0.48c0.42-9.27,1.47-18.5,3.17-27.62
				C189.89,70.08,188.93,69.81,188.81,70.44L188.81,70.44z"/>
		</g>
	</g>
	<g>
		<g>
			<path d="M194.49,93.83c-0.05-1.82,0.54-3.65,1.7-5.07c1.02-1.25,3.05-2.89,4.43-1.2c1.93,2.35,0.78,7.15-2.43,7.67
				c-1.48,0.24-3.26-0.44-3.76-1.96c-0.2-0.61-1.17-0.35-0.96,0.27c0.58,1.74,2.33,2.73,4.11,2.73c1.92,0.01,3.56-1.2,4.34-2.92
				c0.83-1.81,0.87-4.14-0.15-5.89c-0.5-0.86-1.32-1.55-2.34-1.64c-1.18-0.1-2.25,0.6-3.09,1.35c-1.86,1.66-2.91,4.17-2.84,6.66
				C193.51,94.47,194.51,94.47,194.49,93.83L194.49,93.83z"/>
		</g>
	</g>
	<g>
		<g>
			<path d="M208.67,85.7c-0.63,1.43-1,3.06-0.81,4.63c0.12,1,0.81,2.4,1.97,2.45c1.29,0.06,1.67-1.27,1.48-2.3
				c-0.13-0.7-0.44-1.37-0.69-2.04c-0.32-0.86-0.64-1.71-0.97-2.57c-0.24,0.19-0.49,0.38-0.73,0.56c4.29,2.58,4.74,8.93,3.58,13.29
				c-1.15,4.3-4.59,9.22-9.51,9.32c-2.39,0.05-4.81-1.1-5.88-3.31c-0.28-0.58-1.14-0.07-0.86,0.5c1.03,2.14,3.23,3.43,5.54,3.73
				c2.46,0.32,4.84-0.58,6.76-2.11c4.37-3.48,6.16-9.66,5.26-15.04c-0.48-2.85-1.83-5.71-4.38-7.25c-0.35-0.21-0.89,0.15-0.73,0.56
				c0.42,1.12,0.84,2.23,1.26,3.35c0.16,0.43,0.91,2.16,0.02,2.29c-0.38,0.06-0.7-0.44-0.85-0.72c-0.23-0.43-0.29-0.87-0.3-1.36
				c-0.02-1.21,0.22-2.4,0.71-3.51C209.79,85.62,208.93,85.11,208.67,85.7L208.67,85.7z"/>
		</g>
	</g>
	<g>
		<g>
			<path d="M218.58,90.5c2.01-0.58,4.2-2.27,3.89-4.61c-0.26-2-2.43-3.66-4.31-2.38c-1.84,1.25-2.02,4.01-1.75,6.01
				c0.32,2.3,1.41,4.51,3.06,6.14c0.84,0.83,1.91,1.71,3.09,1.98c1,0.23,2.1,0.04,2.47-1.03c0.21-0.61-0.75-0.87-0.96-0.27
				c-0.24,0.68-1.38,0.34-1.83,0.13c-0.76-0.36-1.45-0.93-2.05-1.52c-1.23-1.22-2.12-2.78-2.56-4.46c-0.42-1.59-0.53-3.52,0.2-5.04
				c0.34-0.71,0.94-1.41,1.79-1.41c0.79,0,1.43,0.67,1.71,1.35c0.85,2.03-1.3,3.64-3.01,4.14C217.69,89.72,217.96,90.68,218.58,90.5
				L218.58,90.5z"/>
		</g>
	</g>
	<g>
		<g>
			<path d="M223.08,81.51c3.89-0.68,7.78-1.36,11.68-2.04c0.63-0.11,0.36-1.07-0.27-0.96c-3.89,0.68-7.78,1.36-11.68,2.04
				C222.19,80.65,222.45,81.62,223.08,81.51L223.08,81.51z"/>
		</g>
	</g>
	<g>
		<g>
			<path d="M228.87,72.81c-0.98,8.26-1.35,16.59-1.11,24.91c0.01,0.49,0.67,0.69,0.93,0.25c0.24-0.41,0.49-0.83,0.73-1.24
				c0.33-0.56-0.54-1.06-0.86-0.5c-0.24,0.41-0.49,0.83-0.73,1.24c0.31,0.08,0.62,0.17,0.93,0.25c-0.24-8.32,0.13-16.65,1.11-24.91
				C229.95,72.17,228.95,72.18,228.87,72.81L228.87,72.81z"/>
		</g>
	</g>
	<g>
		<g>
			<path d="M236.17,73.39c-1.23,7.57-1.96,15.22-2.18,22.88c-0.02,0.66,0.92,0.62,1,0c0.41-3.34,1.76-6.58,3.87-9.2
				c0.19-0.23,0.63-0.93,0.97-0.93c0.26,0,0.37,0.29,0.45,0.49c0.25,0.66,0.1,1.41,0.02,2.09c-0.23,1.92-0.62,3.81-1.12,5.67
				c-0.17,0.62,0.8,0.89,0.96,0.27c0.6-2.23,1.1-4.56,1.26-6.88c0.09-1.23-0.7-3.43-2.31-2.39c-0.77,0.49-1.39,1.52-1.89,2.26
				c-0.59,0.87-1.11,1.79-1.55,2.74c-0.86,1.87-1.41,3.85-1.66,5.89c0.33,0,0.67,0,1,0c0.22-7.58,0.94-15.14,2.15-22.62
				C237.24,73.03,236.27,72.76,236.17,73.39L236.17,73.39z"/>
		</g>
	</g>
	<g>
		<g>
			<path d="M247.24,88.27c1.02-0.51,2.07-1.16,2.51-2.27c0.37-0.93,0.23-2.08-0.61-2.72c-1.72-1.3-3.84,0.69-4.53,2.2
				c-1.67,3.62-0.48,8.29,2.76,10.64c1.03,0.75,2.4,1.35,3.7,0.99c1.1-0.31,2-1.34,1.9-2.52c-0.06-0.64-1.06-0.64-1,0
				c0.08,0.92-0.73,1.59-1.62,1.62c-0.9,0.03-1.76-0.43-2.47-0.95c-1.18-0.87-2.06-2.15-2.54-3.52c-0.47-1.35-0.62-2.82-0.34-4.22
				c0.28-1.39,0.97-2.99,2.4-3.51c0.94-0.34,1.72,0.3,1.53,1.31c-0.2,1.07-1.3,1.65-2.18,2.1C246.16,87.7,246.67,88.56,247.24,88.27
				L247.24,88.27z"/>
		</g>
	</g>
	<g>
		<g>
			<path d="M253.88,81.82c0.42,4.85,0.84,9.71,1.26,14.56c0.33,0,0.67,0,1,0c-0.31-3.34,0.05-6.71,1.12-9.89
				c0.22-0.66,0.49-1.38,1.08-1.8c0.57-0.41,1.33-0.44,1.99-0.27c1.51,0.38,2.47,1.77,3.32,2.97c0.37,0.52,1.24,0.02,0.86-0.5
				c-0.97-1.38-2.05-2.87-3.74-3.38c-1.5-0.46-3.09-0.01-3.9,1.37c-0.44,0.75-0.68,1.62-0.91,2.45c-0.27,0.96-0.48,1.94-0.63,2.93
				c-0.31,2.03-0.37,4.08-0.18,6.12c0.06,0.63,1.06,0.64,1,0c-0.42-4.85-0.84-9.71-1.26-14.56
				C254.83,81.19,253.83,81.18,253.88,81.82L253.88,81.82z"/>
		</g>
	</g>
	<g>
		<g>
			<path d="M267.57,72.93c0.75,4.8,0.96,9.67,0.67,14.51c-0.04,0.64,0.96,0.64,1,0c0.3-4.94,0.06-9.89-0.7-14.78
				C268.43,72.03,267.47,72.3,267.57,72.93L267.57,72.93z"/>
		</g>
	</g>
	<g>
		<g>
			<path d="M268.87,93.83c0-0.07-0.01-0.14-0.01-0.2c0-0.02,0-0.16,0.01-0.17c-0.01,0.08-0.01,0.09,0,0.03c0-0.01,0-0.02,0.01-0.03
				c0.01-0.03,0.01-0.07,0.02-0.1c0.01-0.06,0.03-0.12,0.05-0.18c0.01-0.02,0.01-0.07,0.03-0.08c-0.03,0.06-0.03,0.08-0.02,0.04
				c0.01-0.02,0.01-0.03,0.02-0.05c0.03-0.06,0.06-0.11,0.09-0.16c0.03-0.05,0.08-0.1,0.1-0.16c-0.04,0.05-0.05,0.06-0.03,0.03
				c0.01-0.01,0.02-0.03,0.03-0.04c0.02-0.03,0.05-0.05,0.07-0.08c-0.26-0.03-0.52-0.07-0.79-0.1c0.03,0.05,0.06,0.1,0.08,0.16
				c0.01,0.02,0.02,0.03,0.02,0.05c0.02,0.03,0.01,0.02-0.02-0.04c0.02,0.02,0.02,0.06,0.03,0.08c0.02,0.06,0.04,0.11,0.05,0.17
				c0.01,0.05,0.01,0.15,0.04,0.19c-0.02-0.03-0.01-0.09,0-0.01c0,0.03,0.01,0.06,0.01,0.09c0,0.06,0,0.12,0,0.18
				c0,0.04,0,0.07-0.01,0.11c0,0.02-0.01,0.12,0,0.04c0.01-0.08-0.01,0.03-0.01,0.04c-0.01,0.04-0.01,0.07-0.02,0.11
				c0.24-0.1,0.49-0.2,0.73-0.3c-0.01-0.01-0.03-0.02-0.04-0.03c0.07,0.05,0.09,0.07,0.06,0.04c-0.01-0.01-0.02-0.02-0.02-0.02
				c-0.03-0.04-0.02-0.02,0.04,0.05c-0.01-0.02-0.02-0.04-0.04-0.06c-0.03-0.05-0.01-0.07,0.01,0.04c0-0.02-0.01-0.04-0.02-0.06
				c-0.03-0.11,0,0.07,0,0.03c0-0.05,0-0.1,0-0.15c0,0.13-0.02,0.1,0,0.04c0.01-0.02,0.01-0.04,0.02-0.07
				c0.03-0.11-0.03,0.05-0.01,0.03c0.01-0.02,0.03-0.05,0.04-0.07c0.04-0.07-0.09,0.09-0.02,0.03c0.01-0.01,0.04-0.03,0.05-0.05
				c-0.07,0.09-0.08,0.06-0.03,0.03c0.11-0.06-0.1,0.03-0.02,0c-0.21-0.12-0.41-0.23-0.62-0.35c0,0.02,0.02,0.11,0.01,0.02
				c-0.01-0.08,0-0.01,0,0.01c0,0.04,0.01,0.09,0,0.13c0,0.03-0.01,0.16,0,0.08c0.01-0.09-0.01,0.05-0.02,0.07
				c-0.01,0.04-0.02,0.08-0.04,0.12c-0.01,0.02-0.01,0.04-0.02,0.05c-0.03,0.08-0.01,0,0.01-0.03c-0.05,0.07-0.08,0.15-0.13,0.23
				c-0.01,0.02-0.03,0.03-0.03,0.05c0.01-0.02,0.07-0.08,0.03-0.03c-0.03,0.03-0.06,0.07-0.09,0.1c-0.03,0.03-0.06,0.06-0.09,0.09
				c-0.01,0.01-0.09,0.07-0.02,0.02c0.06-0.05,0.01-0.01-0.01,0c-0.04,0.02-0.07,0.05-0.11,0.07c-0.02,0.01-0.04,0.02-0.06,0.03
				c-0.02,0.01-0.08,0.04-0.01,0c0.08-0.03-0.01,0-0.02,0.01c-0.02,0.01-0.04,0.01-0.05,0.02c-0.05,0.01-0.09,0.02-0.14,0.03
				c0.13,0.3,0.26,0.61,0.39,0.91c0.33-0.22,0.66-0.43,0.99-0.65c0.22-0.14,0.33-0.45,0.18-0.68c-0.14-0.22-0.45-0.33-0.68-0.18
				c-0.33,0.22-0.66,0.43-0.99,0.65c-0.21,0.14-0.3,0.39-0.2,0.62c0.1,0.24,0.34,0.34,0.59,0.29c0.5-0.09,0.92-0.43,1.21-0.84
				c0.29-0.43,0.38-0.95,0.28-1.45c-0.05-0.25-0.37-0.43-0.62-0.35c-0.45,0.15-0.7,0.53-0.75,0.99c-0.04,0.41,0.15,0.82,0.5,1.04
				c0.27,0.17,0.66,0.01,0.73-0.3c0.16-0.66,0.06-1.36-0.28-1.95c-0.16-0.27-0.56-0.33-0.79-0.1c-0.47,0.49-0.73,1.17-0.68,1.84
				c0.02,0.26,0.22,0.51,0.5,0.5C268.63,94.32,268.89,94.11,268.87,93.83L268.87,93.83z"/>
		</g>
	</g>
</g>
</svg>
