<?xml version="1.0" encoding="utf-8"?>
<!-- Generator: Adobe Illustrator 23.1.1, SVG Export Plug-In . SVG Version: 6.00 Build 0)  -->
<svg version="1.1" id="Layer_1" xmlns="http://www.w3.org/2000/svg" xmlns:xlink="http://www.w3.org/1999/xlink" x="0px" y="0px"
	 viewBox="0 0 288 216" style="enable-background:new 0 0 288 216;" xml:space="preserve">
<style type="text/css">
	.st0{fill:#A7A9AC;}
	.st1{fill:#ED1C24;}
</style>
<g>
	<g>
		<g>
			<g>
				<path class="st0" d="M251.03,130.45c4.27-3.76,8.41-7.67,12.42-11.7c0.48-0.49,0.96-0.97,1.44-1.46
					c0.47-0.48,1.1-0.99,1.26-1.68c0.3-1.29-0.93-2.06-1.85-2.65c-1.76-1.12-3.73-1.83-5.64-2.65c-2.06-0.88-4.15-1.94-5.49-3.8
					c-0.12,0.46-0.24,0.91-0.36,1.37c0.31-0.21,0.58-0.18,0.84,0.09c0.9,0.92,2.31-0.49,1.41-1.41c-0.86-0.89-2.22-1.08-3.26-0.4
					c-0.42,0.27-0.69,0.91-0.36,1.37c2.44,3.38,6.35,4.4,9.93,6.11c0.89,0.43,1.78,0.9,2.58,1.5c0.07,0.05,0.14,0.12,0.21,0.16
					c0.02,0.02,0.04,0.04,0.06,0.06c0.12,0.13,0.11,0.06-0.01-0.22c-0.03-0.01-0.57,0.6-0.64,0.66c-0.48,0.49-0.96,0.98-1.44,1.46
					c-1.89,1.91-3.82,3.79-5.77,5.64c-2.21,2.09-4.45,4.14-6.73,6.15C248.65,129.88,250.07,131.29,251.03,130.45L251.03,130.45z"/>
			</g>
		</g>
		<g>
			<g>
				<path class="st0" d="M29.54,100.9c-3.86,1.72-7.52,3.89-10.9,6.44c-0.77,0.58-1.73,1.16-2.32,1.92
					c-0.69,0.88-0.38,1.88,0.3,2.65c1.5,1.68,3.14,3.26,4.75,4.84c1.81,1.78,3.65,3.53,5.52,5.24c0.95,0.87,2.37-0.54,1.41-1.41
					c-2.99-2.73-5.89-5.56-8.71-8.46c-0.33-0.34-0.66-0.69-0.99-1.03c-0.16-0.17-0.34-0.34-0.5-0.52c-0.03-0.03-0.13-0.18-0.16-0.19
					c-0.11-0.04-0.03,0.09-0.04,0.1c0.34-0.18,0.67-0.57,0.97-0.81c0.38-0.3,0.76-0.59,1.15-0.88c1.54-1.14,3.14-2.21,4.78-3.19
					c1.86-1.1,3.78-2.09,5.75-2.97c0.49-0.22,0.61-0.94,0.36-1.37C30.61,100.75,30.03,100.68,29.54,100.9L29.54,100.9z"/>
			</g>
		</g>
		<g>
			<g>
				<path class="st0" d="M16.81,111.94c15.14,4.13,30.92,4.09,46.49,3.93c16.32-0.17,32.64-0.34,48.96-0.5
					c16.33-0.17,32.65-0.34,48.98-0.5c16.24-0.17,32.48-0.41,48.71-0.27c18.32,0.17,36.66,0.88,54.88,2.91
					c0.39,0.04,0.9-0.34,0.96-0.73c0.29-1.78-0.8-3.67-2.77-3.61c-1.28,0.04-1.29,2.04,0,2c0.58-0.02,0.93,0.52,0.84,1.07
					c0.32-0.24,0.64-0.49,0.96-0.73c-32.26-3.59-64.77-3.04-97.16-2.71c-32.65,0.34-65.31,0.67-97.96,1.01
					c-17.49,0.18-35.33,0.85-52.37-3.79C16.09,109.68,15.56,111.61,16.81,111.94L16.81,111.94z"/>
			</g>
		</g>
	</g>
	<g>
		<g>
			<g>
				<path class="st0" d="M205.65,35.37c1.86-5.56,4.1-10.98,6.73-16.22c0.64-1.27,1.29-2.52,1.97-3.77
					c0.34-0.62,0.67-1.25,1.03-1.85c0.04-0.07,0.24-0.4,0.2-0.32c-0.15,0.31-0.19-0.26-0.06,0.08c0.04,0.12,0.2,0.25,0.27,0.36
					c1.66,2.62,3.22,5.31,4.82,7.96c1.85,3.05,3.7,6.11,5.55,9.16c0.36,0.59,1.4,0.71,1.73,0c0.37-0.81,0.74-1.63,1.12-2.44
					c0.22-0.49,0.14-1.08-0.36-1.37c-0.43-0.25-1.14-0.13-1.37,0.36c-0.37,0.81-0.74,1.63-1.12,2.44c0.58,0,1.15,0,1.73,0
					c-1.79-2.95-3.57-5.9-5.36-8.84c-0.88-1.46-1.76-2.91-2.65-4.37c-0.86-1.42-1.64-2.95-2.62-4.28c-0.9-1.22-2.38-1.42-3.34-0.14
					c-0.89,1.19-1.53,2.65-2.22,3.96c-1.47,2.79-2.82,5.64-4.07,8.53c-1.45,3.35-2.75,6.76-3.91,10.22
					C203.31,36.06,205.24,36.59,205.65,35.37L205.65,35.37z"/>
			</g>
		</g>
		<g>
			<g>
				<path class="st0" d="M207.49,197.13c1.79,4.25,3.94,8.34,6.53,12.16c0.6,0.88,1.18,1.89,1.92,2.66
					c0.82,0.84,1.95,0.73,2.71-0.14c0.8-0.92,1.49-1.96,2.22-2.94c0.71-0.96,1.42-1.93,2.11-2.9c1.61-2.25,3.17-4.52,4.69-6.83
					c0.71-1.08-1.02-2.08-1.73-1.01c-2.38,3.6-4.86,7.14-7.45,10.6c-0.29,0.38-0.57,0.76-0.86,1.15c-0.12,0.16-0.42,0.41-0.46,0.59
					c-0.02,0.02-0.04,0.05-0.07,0.07c0.1,0.02,0.2,0.03,0.29,0.05c0.01-0.02-0.09-0.1-0.1-0.12c-0.05-0.2-0.33-0.45-0.46-0.63
					c-0.13-0.18-0.26-0.36-0.39-0.55c-0.3-0.43-0.6-0.86-0.89-1.29c-1.13-1.68-2.18-3.42-3.15-5.2c-1.1-2.02-2.11-4.09-2.99-6.21
					c-0.21-0.5-0.66-0.85-1.23-0.7C207.72,196.03,207.28,196.63,207.49,197.13L207.49,197.13z"/>
			</g>
		</g>
		<g>
			<g>
				<path class="st0" d="M214.28,12.8c-0.4,25.67-0.57,51.34-0.49,77.02c0.08,25.55,0.39,51.09,0.95,76.63
					c0.31,14.41,0.7,28.81,1.17,43.22c0.04,1.28,2.04,1.29,2,0c-0.83-25.67-1.41-51.34-1.76-77.01
					c-0.34-25.54-0.45-51.09-0.31-76.63c0.08-14.41,0.23-28.81,0.45-43.22C216.3,11.51,214.3,11.51,214.28,12.8L214.28,12.8z"/>
			</g>
		</g>
	</g>
</g>
<g>
	<g>
		<g>
			<path class="st1" d="M32.21,198.38c2.74-11.21,5.91-22.32,9.66-33.24c2.25-6.55,4.7-13.04,7.46-19.39
				c2.47-5.69,5.09-11.38,8.28-16.71c2.7-4.51,5.98-9.05,10.48-11.72c2.36-1.4,4.99-2.13,7.9-1.98c2.33,0.12,4.43,0.74,6.49,1.99
				c5.51,3.35,8.64,9.35,10.46,15.36c0.83,2.74,1.45,5.76,1.72,8.34c0.22,2.08,0.22,4.17,0.25,6.26c0.2,13.55,0.38,27.11,0.42,40.66
				c0.01,1.97,0.01,3.93,0.01,5.9c0,1.93,3,1.93,3,0c0-14.37-0.17-28.73-0.38-43.1c-0.04-2.52-0.01-5.04-0.13-7.56
				c-0.13-2.59-0.5-5.17-1.05-7.7c-1.45-6.58-4.17-13.29-9.17-17.98c-2.07-1.94-4.64-3.74-7.41-4.51c-2.94-0.82-6.18-0.93-9.14-0.17
				c-5.62,1.46-9.9,5.84-13.21,10.39c-3.45,4.74-6.07,10.05-8.54,15.34c-3.08,6.58-5.83,13.31-8.32,20.14
				c-4.26,11.67-7.81,23.59-10.85,35.63c-0.27,1.08-0.54,2.17-0.81,3.25C28.85,199.46,31.75,200.26,32.21,198.38L32.21,198.38z"/>
		</g>
	</g>
	<g>
		<g>
			<path class="st1" d="M20.91,189.31c2.4,4.5,4.96,8.91,7.68,13.23c0.52,0.83,1.64,0.99,2.36,0.3c3.39-3.25,7.28-5.9,11.53-7.89
				c0.73-0.34,0.92-1.4,0.54-2.05c-0.44-0.75-1.32-0.88-2.05-0.54c-4.47,2.09-8.58,4.94-12.14,8.36c0.79,0.1,1.57,0.2,2.36,0.3
				c-2.71-4.32-5.27-8.73-7.68-13.23C22.59,186.1,20,187.61,20.91,189.31L20.91,189.31z"/>
		</g>
	</g>
	<g>
		<g>
			<path class="st1" d="M89.97,187.34c-0.27-0.21-0.55-0.43-0.82-0.64c-0.64-0.5-1.5-0.62-2.12,0c-0.54,0.54-0.62,1.59,0,2.12
				c3.24,2.78,6.13,5.94,8.57,9.45c0.67,0.97,1.92,0.95,2.59,0c2.45-3.47,5.25-6.69,8.33-9.62c1.4-1.34-0.72-3.45-2.12-2.12
				c-3.26,3.11-6.2,6.55-8.8,10.23c0.86,0,1.73,0,2.59,0c-2.58-3.72-5.6-7.11-9.04-10.06c-0.71,0.71-1.41,1.41-2.12,2.12
				c0.27,0.21,0.55,0.43,0.82,0.64c0.64,0.5,1.5,0.62,2.12,0C90.49,188.94,90.62,187.84,89.97,187.34L89.97,187.34z"/>
		</g>
	</g>
</g>
<g>
	<g>
		<g>
			<path class="st1" d="M104.22,7.32c0.1,9.82,0.64,19.64,1.64,29.41c0.88,8.6,2.01,17.22,3.79,25.69
				c1.23,5.83,2.76,11.74,5.51,17.06c1.77,3.44,4.19,6.37,6.92,9.09c5.36,5.35,12,9.43,19.68,10.08c7.97,0.68,15.53-2.67,21.62-7.59
				c2.96-2.39,5.78-5.18,7.92-8.34c2.69-3.98,4.31-8.65,5.55-13.25c2.22-8.2,3.39-16.7,4.33-25.14c1.01-9.07,1.54-18.18,1.63-27.3
				c0.02-2.66,0.01-5.32-0.04-7.98c-0.04-1.93-3.04-1.93-3,0c0.19,9.67-0.12,19.36-0.96,29c-0.73,8.39-1.77,16.8-3.51,25.04
				c-0.68,3.22-1.48,6.42-2.53,9.55c-0.21,0.62-0.43,1.24-0.66,1.86c-0.11,0.28-0.21,0.56-0.32,0.83c-0.05,0.13-0.11,0.27-0.16,0.4
				c-0.03,0.07-0.05,0.13-0.08,0.2c-0.11,0.26,0.08-0.19,0.01-0.02c-0.42,0.97-0.86,1.92-1.36,2.85c-0.43,0.8-0.89,1.58-1.4,2.33
				c-0.22,0.32-0.44,0.64-0.67,0.95c-0.11,0.15-0.45,0.58-0.14,0.19c-0.13,0.16-0.25,0.32-0.38,0.47c-0.98,1.2-2.06,2.32-3.17,3.4
				c-0.92,0.9-1.87,1.76-2.86,2.58c-0.28,0.23-0.56,0.46-0.85,0.68c-0.03,0.03-0.22,0.17-0.03,0.02c-0.08,0.06-0.15,0.11-0.23,0.17
				c-0.17,0.13-0.35,0.26-0.52,0.39c-0.67,0.49-1.36,0.96-2.06,1.4c-3.19,2.01-6.46,3.41-10.19,4.07c-3.96,0.7-8.18,0.25-12.02-1.17
				c-1.66-0.61-3.32-1.46-4.89-2.45c-0.74-0.46-1.46-0.96-2.17-1.48c-0.51-0.38-1.08-0.83-1.72-1.37c-1.76-1.5-3.41-3.14-4.96-4.86
				c-0.28-0.31-0.56-0.63-0.82-0.95c-0.12-0.14-0.24-0.29-0.36-0.44c-0.06-0.08-0.13-0.16-0.19-0.24c-0.19-0.24,0.2,0.27-0.02-0.03
				c-0.54-0.71-1.05-1.44-1.52-2.2c-0.54-0.86-1.03-1.75-1.48-2.65c-0.25-0.49-0.48-0.99-0.71-1.49c-0.06-0.13-0.11-0.26-0.17-0.38
				c-0.04-0.09-0.21-0.5-0.06-0.13c-0.12-0.29-0.24-0.58-0.35-0.87c-1.07-2.7-1.9-5.5-2.62-8.31c-0.98-3.87-1.75-7.8-2.41-11.74
				c-0.74-4.39-1.28-8.36-1.8-12.67c-1.07-8.95-1.75-17.95-2.05-26.96c-0.09-2.57-0.14-5.14-0.17-7.72
				C107.2,5.39,104.2,5.38,104.22,7.32L104.22,7.32z"/>
		</g>
	</g>
	<g>
		<g>
			<path class="st1" d="M99.81,17.97c0.84-1.87,1.67-3.75,2.51-5.62c0.42-0.94,0.84-1.87,1.26-2.81c0.32-0.71,0.6-1.59,1.08-2.18
				c0.28-0.35,0.7-0.43,1.21-0.35c0.56,0.09,1.07,0.4,1.53,0.88c1.15,1.21,1.73,2.99,2.43,4.48c0.99,2.1,2.02,4.17,3.08,6.23
				c0.37,0.72,1.38,0.93,2.05,0.54c0.73-0.43,0.91-1.33,0.54-2.05c-1.05-2.02-2.06-4.06-3.03-6.12c-0.87-1.84-1.6-3.88-3.09-5.33
				c-1.35-1.32-3.44-2.05-5.28-1.39c-2.16,0.77-2.82,3.13-3.66,5.03c-1.07,2.4-2.14,4.8-3.22,7.19c-0.33,0.74-0.21,1.61,0.54,2.05
				C98.4,18.88,99.48,18.71,99.81,17.97L99.81,17.97z"/>
		</g>
	</g>
	<g>
		<g>
			<path class="st1" d="M172.91,17.07c-0.04,0.01-0.07,0.01-0.11,0.02c0.27,0,0.53,0,0.8,0c-0.03-0.01-0.06-0.02-0.09-0.02
				c0.22,0.13,0.44,0.26,0.66,0.39c0.14,0.16,0.22,0.33,0.25,0.53c0.01,0.05,0,0.11-0.02,0.16c-0.03-0.02,0.36-0.75,0.39-0.82
				c0.27-0.54,0.55-1.08,0.83-1.62c0.54-1,1.11-1.98,1.72-2.94c0.61-0.96,1.25-1.9,1.92-2.82c0.27-0.36,0.53-0.73,0.82-1.07
				c0.25-0.28,0.65-0.56,0.82-0.68c0.19-0.05,0.21-0.06,0.08-0.02c-0.11,0.01-0.21-0.03-0.29-0.12c0.05-0.03,0.29,0.45,0.32,0.5
				c0.27,0.51,0.54,1.03,0.81,1.54c0.58,1.1,1.15,2.21,1.73,3.31s1.15,2.21,1.73,3.31c0.3,0.57,0.64,1.13,0.89,1.71
				c0.07,0.15,0.18,0.36,0.18,0.54c0-0.12,0.1-0.24-0.08,0c-0.49,0.64-0.1,1.68,0.54,2.05c0.77,0.45,1.56,0.11,2.05-0.54
				c0.82-1.07,0.43-2.47-0.1-3.57c-0.55-1.14-1.17-2.25-1.76-3.36c-0.62-1.18-1.23-2.35-1.85-3.53c-0.58-1.1-1.09-2.27-1.75-3.33
				c-0.73-1.17-1.95-1.78-3.31-1.4c-1.11,0.31-1.95,1.19-2.64,2.07c-1.48,1.91-2.82,3.92-4.01,6.02c-0.68,1.2-1.47,2.48-1.91,3.8
				c-0.52,1.52,0.47,3.06,2.14,2.78c0.8-0.13,1.25-1.12,1.05-1.85C174.53,17.27,173.72,16.94,172.91,17.07L172.91,17.07z"/>
		</g>
	</g>
</g>
<g>
	<g>
		<g>
			<path class="st1" d="M189.66,200.8c0.08-9.2,0.16-18.41,0.24-27.61c0.04-4.56,0.08-9.12,0.12-13.68
				c0.04-4.19,0.03-8.38,0.2-12.56c0.32-7.59,1.33-15.46,5.33-22.08c1.84-3.04,4.3-5.77,7.48-7.43c3.28-1.72,7.19-2.02,10.78-1.29
				c2.33,0.47,4.55,1.35,6.63,2.49c2.43,1.34,4.31,2.81,6.25,4.76c4.05,4.07,6.83,9.18,9.14,14.38c0.13,0.29,0.26,0.58,0.39,0.88
				c0.07,0.16,0.14,0.32,0.21,0.48c0.03,0.07,0.06,0.14,0.09,0.21c0.1,0.23-0.07-0.18,0.02,0.05c0.27,0.65,0.54,1.3,0.8,1.96
				c0.53,1.32,1.03,2.65,1.51,3.98c1,2.78,1.92,5.59,2.78,8.41c1.7,5.58,3.17,11.23,4.49,16.92c1.11,4.75,2.11,9.52,3.02,14.32
				c0.55,2.88,1.06,5.76,1.53,8.65c0.05,0.29,0.09,0.58,0.14,0.88c0.12,0.8,1.13,1.24,1.85,1.05c0.85-0.23,1.17-1.04,1.05-1.85
				c-0.36-2.33-0.77-4.65-1.19-6.96c-0.83-4.57-1.75-9.12-2.76-13.66c-1.27-5.7-2.67-11.36-4.29-16.97
				c-1.65-5.72-3.5-11.4-5.77-16.9c-2.15-5.22-4.63-10.36-8.13-14.83c-3.24-4.13-7.37-7.51-12.2-9.61
				c-3.89-1.68-8.11-2.38-12.32-1.75c-3.95,0.59-7.52,2.6-10.31,5.43c-5.68,5.76-8.04,13.86-8.98,21.7
				c-0.48,3.99-0.6,8.01-0.65,12.02c-0.06,4.56-0.08,9.12-0.12,13.68c-0.08,9.37-0.17,18.74-0.25,28.11
				c-0.02,2.28-0.04,4.56-0.06,6.84C186.65,202.73,189.65,202.73,189.66,200.8L189.66,200.8z"/>
		</g>
	</g>
	<g>
		<g>
			<path class="st1" d="M180.5,195.84c1.3,0.94,1.8,3.07,2.56,4.55c0.95,1.87,2.86,3.71,5.09,3.68c2.6-0.03,3.87-2.49,5.14-4.38
				c1.42-2.13,2.85-4.25,4.27-6.38c0.45-0.67,0.13-1.66-0.54-2.05c-0.74-0.43-1.6-0.14-2.05,0.54c-1.27,1.89-2.53,3.78-3.8,5.67
				c-0.6,0.9-1.18,1.85-1.83,2.72c-0.45,0.6-0.92,0.96-1.42,0.88c-0.21-0.03-0.51-0.18-0.81-0.38c-0.27-0.19-0.58-0.49-0.81-0.77
				c-0.52-0.62-0.84-1.39-1.16-2.13c-0.76-1.76-1.54-3.38-3.14-4.53c-0.66-0.47-1.67-0.11-2.05,0.54
				C179.52,194.54,179.84,195.36,180.5,195.84L180.5,195.84z"/>
		</g>
	</g>
	<g>
		<g>
			<path class="st1" d="M244.09,189.13c1.31,2.08,2.63,4.16,3.94,6.24c1.02,1.62,2.86,5.61,5.35,3.66c0.5-0.39,0.79-0.97,1.12-1.5
				c0.3-0.49,0.6-0.98,0.9-1.47c0.64-1.05,1.29-2.1,1.93-3.16c1.29-2.1,2.57-4.21,3.86-6.31c1.01-1.65-1.58-3.16-2.59-1.51
				c-2.21,3.61-4.41,7.23-6.62,10.84c-0.13,0.21-0.26,0.42-0.39,0.63c-0.05,0.09-0.11,0.18-0.17,0.27c0.53-0.44,0.87-0.5,1.02-0.18
				c-0.01-0.02-0.23-0.27-0.24-0.28c-0.14-0.2-0.26-0.42-0.39-0.62c-0.57-0.9-1.14-1.8-1.71-2.7c-1.14-1.8-2.28-3.61-3.41-5.41
				C245.65,185.99,243.05,187.49,244.09,189.13L244.09,189.13z"/>
		</g>
	</g>
</g>
</svg>
