<?xml version="1.0" encoding="utf-8"?>
<!-- Generator: Adobe Illustrator 23.1.1, SVG Export Plug-In . SVG Version: 6.00 Build 0)  -->
<svg version="1.1" id="Layer_1" xmlns="http://www.w3.org/2000/svg" xmlns:xlink="http://www.w3.org/1999/xlink" x="0px" y="0px"
	 viewBox="0 0 432 288" style="enable-background:new 0 0 432 288;" xml:space="preserve">
<style type="text/css">
	.st0{fill:#A7A9AC;}
	.st1{fill:#ED1C24;}
</style>
<g>
	<g>
		<g>
			<path class="st0" d="M368.85,177.04c1.7-2.18,3.38-4.37,5.03-6.59c0.49-0.66,0.97-1.31,1.44-1.98c0.42-0.6,0.89-1.18,1.01-1.92
				c0.26-1.56-1-2.83-2.07-3.77c-2.13-1.86-4.55-3.44-7-4.85c-1.12-0.64-2.13,1.09-1.01,1.73c2.01,1.15,3.96,2.43,5.78,3.86
				c0.7,0.56,1.44,1.14,1.99,1.85c0.03,0.04,0.09,0.12,0.16,0.23c0.03,0.05,0.17,0.32,0.14,0.24c-0.04-0.09,0.05,0.18,0.06,0.22
				c-0.03-0.13,0.04-0.02,0,0.13c-0.13,0.44-0.56,0.94-0.85,1.34c-0.42,0.59-0.85,1.18-1.29,1.77c-0.98,1.32-1.97,2.62-2.97,3.93
				c-0.65,0.85-1.17,1.52-1.84,2.37c-0.33,0.43-0.41,1,0,1.41C367.78,177.39,368.51,177.47,368.85,177.04L368.85,177.04z"/>
		</g>
	</g>
	<g>
		<g>
			<path class="st0" d="M71.74,154.89c-1.74,0.72-3.44,1.53-5.07,2.47c-0.84,0.49-1.67,1-2.48,1.55c-0.68,0.46-1.67,0.96-2.11,1.68
				c-0.57,0.94,0.07,1.73,0.74,2.37c0.72,0.68,1.44,1.36,2.17,2.03c1.49,1.36,3.01,2.69,4.56,3.98c0.98,0.82,2.4-0.59,1.41-1.41
				c-1.28-1.07-2.53-2.15-3.77-3.26c-0.59-0.53-1.17-1.06-1.75-1.6c-0.32-0.3-0.64-0.59-0.95-0.89c-0.26-0.25-0.61-0.49-0.76-0.82
				c0.05,0.17,0.09,0.34,0.14,0.5c-0.09,0.15-0.09,0.18,0,0.11c0.08-0.06,0.16-0.11,0.23-0.17c0.18-0.13,0.36-0.26,0.55-0.39
				c0.31-0.22,0.62-0.43,0.93-0.63c0.72-0.48,1.45-0.93,2.2-1.36c1.45-0.83,2.95-1.57,4.5-2.21c0.5-0.21,0.85-0.66,0.7-1.23
				C72.84,155.12,72.24,154.69,71.74,154.89L71.74,154.89z"/>
		</g>
	</g>
	<g>
		<g>
			<path class="st0" d="M63.99,162.62c23.35,2.98,46.99,2.46,70.48,2.47c19.94,0.01,39.88,0.05,59.83,0.07
				c19.31,0.02,38.63,0.01,57.94-0.06c16.52-0.06,33.05-0.08,49.57,0.06c20.95,0.18,41.89,0.56,62.83,1.13
				c2.95,0.08,5.91,0.16,8.86,0.25c1.29,0.04,1.29-1.96,0-2c-21.65-0.64-43.31-1.09-64.97-1.32c-16.1-0.17-32.2-0.23-48.3-0.16
				c-19.68,0.08-39.36,0.11-59.04,0.1c-19.58-0.01-39.16-0.06-58.74-0.07c-23.26-0.02-46.67,0.62-69.86-1.53
				c-2.87-0.27-5.74-0.58-8.59-0.95C62.72,160.46,62.73,162.46,63.99,162.62L63.99,162.62z"/>
		</g>
	</g>
</g>
<g>
	<g>
		<g>
			<path class="st0" d="M214.08,23.03c2.07-3.39,4.17-6.76,6.18-10.18c0.11-0.19,0.22-0.37,0.33-0.56c0.07-0.12,0.38-0.49,0.37-0.59
				c-0.02-0.23,0.08,0.15-0.09-0.03c-0.21-0.22-0.03,0.1-0.04,0.03c0,0.05,0.26,0.29,0.31,0.36c0.15,0.2,0.28,0.42,0.42,0.62
				c0.83,1.24,1.65,2.48,2.48,3.73c1.5,2.26,3,4.53,4.5,6.79c0.71,1.07,2.44,0.07,1.73-1.01c-2.35-3.56-4.71-7.12-7.08-10.67
				c-0.46-0.69-0.94-1.48-1.77-1.75c-1.12-0.37-1.96,0.48-2.48,1.37c-0.69,1.21-1.41,2.39-2.14,3.58c-1.48,2.44-2.97,4.87-4.46,7.3
				C211.68,23.12,213.41,24.13,214.08,23.03L214.08,23.03z"/>
		</g>
	</g>
	<g>
		<g>
			<path class="st0" d="M211.91,257.47c1.76,3.95,3.9,7.72,6.42,11.24c0.61,0.85,1.2,1.83,1.95,2.56c0.84,0.83,1.97,0.61,2.7-0.23
				c1.46-1.71,2.79-3.55,4.14-5.35c1.57-2.1,3.1-4.23,4.59-6.38c0.73-1.06-1-2.06-1.73-1.01c-2.32,3.36-4.73,6.65-7.25,9.86
				c-0.29,0.37-0.59,0.75-0.88,1.12c-0.09,0.11-0.38,0.35-0.4,0.49c-0.02,0.02-0.04,0.05-0.06,0.07c0.11,0.01,0.21,0.02,0.32,0.03
				c0.01-0.01-0.23-0.27-0.26-0.29c-0.6-0.74-1.16-1.54-1.71-2.32c-1.1-1.57-2.12-3.18-3.08-4.84c-1.11-1.93-2.11-3.91-3.01-5.94
				c-0.22-0.49-0.94-0.61-1.37-0.36C211.76,256.4,211.69,256.98,211.91,257.47L211.91,257.47z"/>
		</g>
	</g>
	<g>
		<g>
			<path class="st0" d="M220.09,11.69c-1.13,33.78-1.77,67.58-1.91,101.38c-0.14,33.62,0.21,67.25,1.05,100.86
				c0.47,18.96,1.11,37.92,1.89,56.88c0.05,1.28,2.05,1.29,2,0c-1.4-33.77-2.31-67.56-2.72-101.35
				c-0.41-33.62-0.32-67.25,0.25-100.86c0.32-18.97,0.81-37.93,1.44-56.89C222.13,10.4,220.13,10.41,220.09,11.69L220.09,11.69z"/>
		</g>
	</g>
</g>
<g>
	<g>
		<g>
			<path class="st1" d="M98.08,19.59c0.11,23.5,0.26,47.3,5.62,70.31c4.44,19.03,12.81,37.33,26.21,51.75
				c6.25,6.72,13.59,12.51,21.79,16.66c4.54,2.3,9.31,4.03,14.21,5.37c5.72,1.56,11.56,2.71,17.24,4.41
				c8.12,2.43,15.48,6.63,22.18,11.79c7.72,5.95,14.58,13.15,20.03,21.24c5.78,8.58,9.53,18.12,12.29,28.04
				c2.76,9.91,4.26,20.14,4.5,30.43c0.04,1.87,0.04,3.74,0.01,5.61c-0.03,1.29,1.97,1.29,2,0c0.18-9.15-0.61-18.32-2.38-27.3
				c-2.04-10.33-5.21-20.77-10.11-30.12c-4.59-8.76-10.84-16.66-18.03-23.42c-6.32-5.94-13.47-11.2-21.33-14.92
				c-9.53-4.51-20.12-5.7-30.07-8.93c-9.05-2.93-17.36-7.83-24.53-14.07c-14.4-12.55-24.19-29.83-29.66-47.98
				c-6.85-22.68-7.71-46.58-7.91-70.11c-0.03-2.92-0.04-5.84-0.05-8.76C100.07,18.31,98.07,18.3,98.08,19.59L98.08,19.59z"/>
		</g>
	</g>
	<g>
		<g>
			<path class="st1" d="M93.5,33.65c1.14-3.9,2.4-7.75,3.8-11.56c0.27-0.74,0.48-1.7,0.97-2.34c0.05-0.07,0.11-0.17,0.19-0.2
				c0.09-0.03-0.07-0.04,0.07,0.01c0.25,0.09,0.43,0.53,0.55,0.73c1.03,1.79,2.03,3.6,3.04,5.4c1.18,2.09,2.35,4.17,3.53,6.26
				c0.63,1.12,2.36,0.11,1.73-1.01c-1.18-2.09-2.35-4.17-3.53-6.26c-0.57-1.01-1.13-2.01-1.7-3.02c-0.54-0.96-1.02-1.99-1.66-2.88
				c-0.56-0.78-1.39-1.4-2.4-1.19c-0.87,0.18-1.46,0.9-1.83,1.66c-0.47,0.99-0.81,2.07-1.18,3.1c-0.38,1.06-0.76,2.12-1.12,3.18
				c-0.86,2.51-1.65,5.04-2.39,7.59C91.21,34.35,93.14,34.88,93.5,33.65L93.5,33.65z"/>
		</g>
	</g>
	<g>
		<g>
			<path class="st1" d="M236.8,256.71c0.88-0.22,1.07-1.29,0.48-1.91c-0.61-0.64-1.6-0.4-1.95,0.38c-0.35,0.78,0.18,1.61,0.5,2.3
				c0.38,0.82,0.78,1.63,1.2,2.44c1.63,3.15,3.55,6.14,5.72,8.95c0.44,0.57,1.32,0.72,1.73,0c2.13-3.73,4.4-7.37,6.83-10.91
				c0.73-1.06-1-2.07-1.73-1.01c-2.43,3.54-4.71,7.18-6.83,10.91c0.58,0,1.15,0,1.73,0c-1.47-1.91-2.83-3.91-4.07-5.99
				c-0.62-1.04-1.2-2.09-1.75-3.17c-0.28-0.54-0.54-1.08-0.8-1.62c-0.13-0.27-0.26-0.55-0.38-0.82c-0.06-0.14-0.13-0.27-0.19-0.41
				c-0.05-0.18-0.08-0.15-0.08,0.1c-0.2,0.15-0.4,0.31-0.6,0.46c0.03-0.01,0.06-0.02,0.09-0.03c-0.18,0-0.35,0-0.53,0
				c0.03,0.01,0.06,0.02,0.08,0.02c-0.15-0.09-0.29-0.17-0.44-0.26c-0.04-0.07-0.08-0.14-0.12-0.22c0-0.18,0-0.35,0-0.53
				c-0.01,0.02-0.02,0.04-0.03,0.06c0.23-0.23,0.47-0.47,0.7-0.7c-0.03,0.01-0.05,0.01-0.08,0.02
				C235.03,255.1,235.55,257.03,236.8,256.71L236.8,256.71z"/>
		</g>
	</g>
</g>
<g>
	<g>
		<g>
			<path class="st1" d="M246.46,14.64c-0.51,8.33-0.75,16.68-0.73,25.03c0.02,8.31,0.3,16.61,0.85,24.9
				c0.54,8.3,1.33,16.59,2.42,24.84c0.72,5.49,2.08,11.34,5.57,15.78c1.6,2.03,3.73,3.63,6.23,4.35c3.66,1.04,7.4-0.02,10.8-1.44
				c6.24-2.61,12.16-5.98,17.62-9.97c5.41-3.96,10.38-8.51,14.77-13.59c4.55-5.26,8.45-11.04,11.64-17.21
				c3.45-6.68,6.13-13.74,8.33-20.93c2.2-7.19,3.95-14.52,5.59-21.85c0.41-1.81,0.81-3.63,1.21-5.44c0.28-1.25-1.65-1.79-1.93-0.53
				c-3.17,14.38-6.36,28.95-12.38,42.45c-2.84,6.36-6.31,12.43-10.52,17.98c-3.94,5.2-8.52,9.94-13.53,14.12
				c-5.01,4.18-10.52,7.79-16.35,10.73c-5.33,2.69-12.41,6.39-17.9,2.13c-4.11-3.19-5.75-8.89-6.69-13.77
				c-0.67-3.48-1-7.04-1.39-10.56c-0.44-4.01-0.82-8.02-1.13-12.04c-1.28-16.32-1.55-32.72-0.79-49.07c0.09-1.97,0.2-3.94,0.32-5.91
				C248.54,13.36,246.54,13.36,246.46,14.64L246.46,14.64z"/>
		</g>
	</g>
	<g>
		<g>
			<path class="st1" d="M239.68,30.97c1.92-4.42,3.83-8.84,5.75-13.26c0.33-0.76,1.33-4.03,2.68-2.96c0.65,0.52,0.98,1.43,1.31,2.16
				c0.51,1.14,1.02,2.27,1.54,3.41c1.13,2.5,2.25,5,3.38,7.5c0.22,0.49,0.94,0.61,1.37,0.36c0.51-0.3,0.58-0.87,0.36-1.37
				c-1.11-2.46-2.22-4.93-3.33-7.39c-0.55-1.21-1.09-2.42-1.64-3.64c-0.41-0.92-0.87-1.88-1.67-2.54c-0.78-0.64-1.8-0.92-2.77-0.56
				c-0.92,0.35-1.58,1.14-2.04,1.99c-0.57,1.04-0.98,2.18-1.45,3.26c-0.54,1.25-1.08,2.49-1.62,3.74c-1.2,2.76-2.39,5.51-3.59,8.27
				c-0.21,0.5-0.15,1.07,0.36,1.37C238.74,31.58,239.47,31.47,239.68,30.97L239.68,30.97z"/>
		</g>
	</g>
	<g>
		<g>
			<path class="st1" d="M322.92,28.86c1.2-2,2.4-4,3.6-6c0.6-1,1.19-2.01,1.8-3c0.28-0.45,0.93-1.56,1.59-1.5
				c0.6,0.05,0.81,1.2,0.96,1.63c0.37,1.09,0.75,2.19,1.12,3.28c0.75,2.19,1.5,4.37,2.25,6.56c0.41,1.21,2.35,0.69,1.93-0.53
				c-0.67-1.95-1.34-3.91-2.01-5.86c-0.33-0.98-0.67-1.95-1-2.93c-0.29-0.86-0.54-1.76-0.95-2.58c-0.84-1.66-2.71-2-4.14-0.86
				c-0.68,0.54-1.17,1.25-1.61,1.98c-0.54,0.89-1.07,1.79-1.61,2.68c-1.22,2.04-2.44,4.07-3.66,6.11
				C320.53,28.96,322.25,29.96,322.92,28.86L322.92,28.86z"/>
		</g>
	</g>
</g>
</svg>
