<?xml version="1.0" encoding="utf-8"?>
<!-- Generator: Adobe Illustrator 23.1.1, SVG Export Plug-In . SVG Version: 6.00 Build 0)  -->
<svg version="1.1" id="Layer_1" xmlns="http://www.w3.org/2000/svg" xmlns:xlink="http://www.w3.org/1999/xlink" x="0px" y="0px"
	 viewBox="0 0 288 216" style="enable-background:new 0 0 288 216;" xml:space="preserve">
<style type="text/css">
	.st0{fill:#A7A9AC;}
	.st1{fill:#ED1C24;}
</style>
<g>
	<g>
		<g>
			<g>
				<path class="st0" d="M248.41,120.85c4.79-3.97,9.44-8.12,13.93-12.44c0.46-0.44,1.02-0.89,1.19-1.54
					c0.17-0.67-0.13-1.31-0.65-1.73c-0.47-0.39-0.79-0.57-1.24-1.07c-1.01-1.12-2.18-1.94-3.5-2.67c-2.61-1.44-5.37-2.62-8.19-3.58
					c-1.22-0.42-1.74,1.51-0.53,1.93c2.27,0.78,4.49,1.7,6.63,2.8c1.43,0.73,2.85,1.45,3.88,2.58c0.28,0.31,0.54,0.62,0.85,0.89
					c0.24,0.21,0.54,0.51,0.83,0.64c-0.13-0.05,0.14-0.06,0.06,0.06c-0.01-0.06-0.03-0.12-0.04-0.18c0-0.22-0.06-0.24-0.17-0.05
					c-0.31,0.15-0.62,0.59-0.86,0.83c-2.05,1.96-4.13,3.89-6.24,5.78c-2.41,2.16-4.86,4.26-7.34,6.33
					C246,120.26,247.42,121.67,248.41,120.85L248.41,120.85z"/>
			</g>
		</g>
		<g>
			<g>
				<path class="st0" d="M27.15,92.89c-3.85,1.61-7.51,3.6-10.92,6c-0.79,0.56-1.71,1.11-2.39,1.8c-0.8,0.81-0.62,1.89,0.1,2.68
					c1.46,1.6,3.13,3.05,4.71,4.52c1.84,1.71,3.72,3.38,5.62,5.02c0.97,0.84,2.39-0.57,1.41-1.41c-1.93-1.66-3.84-3.36-5.71-5.1
					c-0.88-0.82-1.75-1.64-2.61-2.47c-0.46-0.44-0.92-0.89-1.37-1.34c-0.12-0.12-0.48-0.61-0.64-0.63c-0.09-0.16-0.12-0.11-0.1,0.15
					c0.08-0.08,0.17-0.16,0.26-0.22c1.79-1.46,3.8-2.71,5.8-3.88c2.05-1.2,4.18-2.27,6.38-3.19c0.5-0.21,0.85-0.66,0.7-1.23
					C28.25,93.12,27.65,92.68,27.15,92.89L27.15,92.89z"/>
			</g>
		</g>
		<g>
			<g>
				<path class="st0" d="M14.2,102.35c14.63,5.03,30.2,5.04,45.49,4.77c16.43-0.3,32.87-0.61,49.3-0.92
					c16.3-0.3,32.61-0.61,48.91-0.91c16.31-0.3,32.63-0.71,48.94-0.62c18.28,0.1,36.59,0.89,54.71,3.37
					c1.26,0.17,1.8-1.75,0.53-1.93c-32.24-4.41-64.83-3.56-97.27-2.95c-32.77,0.61-65.55,1.22-98.32,1.84
					c-17.34,0.32-35.12,1.15-51.77-4.57C13.51,100,12.99,101.93,14.2,102.35L14.2,102.35z"/>
			</g>
		</g>
	</g>
	<g>
		<g>
			<g>
				<path class="st0" d="M129.62,27.43c1.86-5.21,4.1-10.28,6.7-15.17c0.65-1.22,1.32-2.42,2.01-3.62c0.31-0.53,0.61-1.06,0.94-1.58
					c0.05-0.08,0.22-0.27,0.24-0.35c0.02-0.11,0.23-0.07,0.01-0.08c-0.22-0.02,0.06,0.16,0.11,0.22c0.09,0.11,0.17,0.24,0.24,0.36
					c1.62,2.49,3.22,4.99,4.83,7.49c1.81,2.81,3.62,5.62,5.43,8.43c0.38,0.59,1.38,0.71,1.73,0c0.37-0.77,0.74-1.53,1.12-2.3
					c0.56-1.15-1.16-2.17-1.73-1.01c-0.37,0.77-0.74,1.53-1.12,2.3c0.58,0,1.15,0,1.73,0c-1.77-2.74-3.53-5.48-5.3-8.22
					c-0.87-1.35-1.74-2.7-2.62-4.06c-0.87-1.35-1.68-2.77-2.63-4.06c-0.88-1.2-2.36-1.56-3.38-0.29c-0.89,1.11-1.55,2.5-2.24,3.74
					c-1.48,2.65-2.86,5.36-4.12,8.11c-1.43,3.13-2.73,6.32-3.88,9.55C127.26,28.11,129.19,28.64,129.62,27.43L129.62,27.43z"/>
			</g>
		</g>
		<g>
			<g>
				<path class="st0" d="M131.57,179.68c1.76,3.94,3.91,7.7,6.43,11.2c0.61,0.85,1.21,1.83,1.96,2.55c0.86,0.83,1.99,0.6,2.72-0.25
					c1.5-1.72,2.86-3.59,4.25-5.4c1.61-2.12,3.18-4.27,4.71-6.44c0.74-1.05-0.99-2.06-1.73-1.01c-2.39,3.39-4.87,6.71-7.45,9.96
					c-0.3,0.38-0.6,0.75-0.91,1.13c-0.1,0.12-0.38,0.35-0.41,0.49c-0.02,0.02-0.04,0.05-0.07,0.07c0.1,0.01,0.2,0.02,0.3,0.04
					c0-0.01-0.24-0.27-0.26-0.29c-0.61-0.74-1.17-1.53-1.72-2.31c-1.1-1.56-2.13-3.17-3.09-4.82c-1.11-1.92-2.11-3.9-3.02-5.92
					c-0.22-0.49-0.94-0.61-1.37-0.36C131.42,178.6,131.35,179.18,131.57,179.68L131.57,179.68z"/>
			</g>
		</g>
		<g>
			<g>
				<path class="st0" d="M138.25,6.2c-0.4,24.12-0.57,48.25-0.49,72.37c0.08,24.01,0.39,48.01,0.95,72.01
					c0.31,13.54,0.7,27.08,1.17,40.61c0.04,1.28,2.04,1.29,2,0c-0.83-24.12-1.41-48.24-1.76-72.37c-0.34-24-0.45-48.01-0.31-72.01
					c0.08-13.54,0.23-27.08,0.45-40.62C140.28,4.91,138.28,4.91,138.25,6.2L138.25,6.2z"/>
			</g>
		</g>
	</g>
</g>
<g>
	<g>
		<g>
			<path class="st1" d="M17.62,88.61c8.26-0.13,16.52-0.87,24.67-2.28c3.47-0.6,6.96-1.31,10.31-2.45c1.99-0.68,3.96-1.53,5.71-2.71
				c5.55-3.75,9.49-9.91,11.45-16.25c2.27-7.31,1.83-15.19,1.98-22.75c0.15-7.83,0.45-15.66,0.87-23.49
				c0.07-1.22,0.13-2.43,0.2-3.65c0.05-0.81-0.72-1.5-1.5-1.5c-0.85,0-1.45,0.69-1.5,1.5c-0.48,8.14-0.82,16.3-1.01,24.45
				c-0.08,3.38-0.11,6.75-0.17,10.13c-0.07,3.81-0.19,7.64-0.94,11.32c-0.71,3.5-2.01,6.75-3.83,9.82
				c-0.78,1.31-1.63,2.58-2.59,3.71c-0.68,0.8-1.41,1.56-2.18,2.27c-0.4,0.36-0.8,0.72-1.22,1.05c-0.07,0.05-0.13,0.11-0.2,0.16
				c-0.23,0.19-0.01,0.01,0.01-0.01c-0.66,0.45-1.29,0.92-1.98,1.32c-0.41,0.23-0.82,0.45-1.25,0.66c-0.22,0.1-0.43,0.21-0.65,0.3
				c-0.05,0.02-0.42,0.18-0.22,0.1c0.18-0.08-0.21,0.08-0.29,0.12c-2.8,1.13-5.77,1.84-8.73,2.43c-7.75,1.56-15.46,2.36-23.43,2.65
				c-1.17,0.04-2.33,0.07-3.5,0.09C15.69,85.64,15.69,88.64,17.62,88.61L17.62,88.61z"/>
		</g>
	</g>
	<g>
		<g>
			<path class="st1" d="M67.12,22.31c0.85-2.17,1.7-4.34,2.55-6.51c0.18-0.47,0.35-0.95,0.55-1.4c-0.09,0.19,0.16-0.3,0.19-0.35
				c0.05-0.09,0.11-0.18,0.16-0.26c-0.08,0.1-0.07,0.08,0.05-0.05c0.13-0.12,0.14-0.13,0.03-0.04c0.15-0.09,0.16-0.09,0.02-0.02
				c-0.05,0.02-0.1,0.02-0.14,0c-0.08-0.03-0.03-0.02,0.14,0.04c0.12,0.06,0.47,0.42,0.66,0.64c0.07,0.08,0.13,0.16,0.2,0.24
				c-0.08-0.1-0.07-0.08,0.04,0.07c0.11,0.17,0.23,0.34,0.33,0.52c0.18,0.31,0.35,0.64,0.51,0.96c0.09,0.19,0.18,0.38,0.26,0.57
				c0.04,0.1,0.08,0.19,0.13,0.29c-0.05-0.12-0.04-0.09,0.03,0.08c0.17,0.41,0.34,0.83,0.52,1.24c0.65,1.53,1.42,3.06,2.73,4.13
				c0.63,0.51,1.51,0.61,2.12,0c0.53-0.53,0.63-1.61,0-2.12c-0.6-0.49-0.85-0.8-1.2-1.36c-0.37-0.59-0.66-1.23-0.94-1.87
				c-0.1-0.22,0,0-0.09-0.22c-0.07-0.17-0.14-0.34-0.21-0.51c-0.17-0.41-0.34-0.82-0.52-1.23c-0.28-0.64-0.59-1.27-0.98-1.86
				c-0.95-1.43-2.54-3.06-4.44-2.46c-1.87,0.59-2.43,2.68-3.07,4.3c-0.84,2.14-1.67,4.27-2.51,6.41c-0.3,0.75,0.32,1.65,1.05,1.85
				C66.12,23.59,66.82,23.07,67.12,22.31L67.12,22.31z"/>
		</g>
	</g>
	<g>
		<g>
			<path class="st1" d="M21.59,75.99c-2.49,4.06-4.68,8.29-6.56,12.66c-0.38,0.88-0.12,1.91,0.9,2.2c2.28,0.65,4.49,1.48,6.61,2.54
				c1.07,0.53,2.11,1.12,3.12,1.74c0.49,0.3,0.98,0.62,1.45,0.95c0.27,0.18,0.53,0.37,0.8,0.56c0.12,0.08,0.23,0.17,0.35,0.26
				c0.14,0.11,0.33,0.38,0.12,0.04c-0.07-0.25-0.14-0.5-0.2-0.76c0,0.05,0,0.1,0,0.15c0.15-0.35,0.29-0.71,0.44-1.06
				c-0.02,0.02-0.04,0.04-0.06,0.06c0.35-0.15,0.71-0.29,1.06-0.44c-0.03,0-0.06,0-0.09,0c0.25,0.07,0.5,0.14,0.76,0.2
				c-0.03-0.01-0.05-0.03-0.08-0.04c0.18,0.18,0.36,0.36,0.54,0.54c-0.01-0.02-0.02-0.04-0.04-0.06c0,0.5,0,1.01,0,1.51
				c0.01-0.02,0.03-0.04,0.04-0.06c0.47-0.66,0.12-1.67-0.54-2.05c-0.75-0.44-1.58-0.13-2.05,0.54c-0.01,0.02-0.03,0.04-0.04,0.06
				c-0.3,0.42-0.26,1.09,0,1.51c0.61,0.99,2.01,1.15,2.74,0.2c0.83-1.09-0.02-2.15-0.9-2.81c-1.3-0.97-2.67-1.86-4.08-2.66
				c-2.87-1.63-5.96-2.91-9.14-3.81c0.3,0.73,0.6,1.47,0.9,2.2c1.89-4.37,4.08-8.6,6.56-12.66C25.19,75.85,22.6,74.35,21.59,75.99
				L21.59,75.99z"/>
		</g>
	</g>
</g>
<g>
	<g>
		<g>
			<path class="st1" d="M109,24.94c0.77-2.2,1.54-4.4,2.32-6.61c0.39-1.1,0.77-2.2,1.16-3.3c0.19-0.55,0.37-1.11,0.58-1.65
				c0.01-0.02,0.21-0.35,0.19-0.4c0.05,0.13-0.49,0.09-0.43,0.08c-0.28-0.06-0.3-0.04-0.06,0.08c0.04,0.06,0.1,0.1,0.15,0.14
				c0.22,0.18,0.42,0.39,0.63,0.58c0.42,0.39,0.84,0.78,1.26,1.17c0.84,0.78,1.68,1.56,2.52,2.34c1.71,1.59,3.42,3.17,5.12,4.76
				c1.27,1.18,3.12-0.3,2.36-1.82c-0.09-0.18-0.18-0.35-0.27-0.53c-0.36-0.72-1.38-0.93-2.05-0.54c-0.74,0.43-0.9,1.33-0.54,2.05
				c0.09,0.18,0.18,0.35,0.27,0.53c0.79-0.61,1.57-1.21,2.36-1.82c-3-2.78-5.99-5.57-8.99-8.35c-0.78-0.72-1.55-1.51-2.68-1.54
				c-1.03-0.03-1.91,0.68-2.36,1.57c-0.45,0.88-0.71,1.86-1.04,2.78c-0.34,0.98-0.69,1.97-1.03,2.95c-0.79,2.24-1.57,4.48-2.36,6.72
				c-0.27,0.76,0.3,1.64,1.05,1.85C107.98,26.21,108.73,25.71,109,24.94L109,24.94z"/>
		</g>
	</g>
	<g>
		<g>
			<path class="st1" d="M69.45,177.24c-1.56-1.42-3.68,0.32-2.97,2.18c0.26,0.68,0.7,1.31,1.08,1.93c0.38,0.63,0.77,1.27,1.16,1.89
				c1.56,2.48,3.22,4.88,4.97,7.23c0.61,0.82,2.05,1.12,2.59,0c1.95-4.02,4.08-7.96,6.37-11.8c0.99-1.66-1.6-3.17-2.59-1.51
				c-2.29,3.84-4.42,7.78-6.37,11.8c0.86,0,1.73,0,2.59,0c-1.31-1.75-2.56-3.53-3.77-5.36c-0.6-0.91-1.19-1.83-1.76-2.76
				c-0.29-0.46-0.57-0.93-0.85-1.4c-0.12-0.2-0.24-0.4-0.36-0.6c-0.08-0.13-0.16-0.27-0.24-0.4c-0.13-0.24-0.12-0.22,0.01,0.05
				c-0.07,0.25-0.14,0.5-0.2,0.76c-0.17,0.14-0.35,0.27-0.52,0.41c-0.27,0-0.53,0-0.8,0c0.04,0.01,0.07,0.02,0.11,0.03
				c-0.22-0.13-0.44-0.26-0.66-0.39c0.03,0.03,0.06,0.05,0.08,0.08c0.6,0.55,1.53,0.59,2.12,0
				C70.01,178.81,70.05,177.79,69.45,177.24L69.45,177.24z"/>
		</g>
	</g>
	<g>
		<g>
			<path class="st1" d="M111.98,14.28c1.33,11.53,0.47,23.23-2.53,34.44c-1.53,5.71-3.58,11.27-6.14,16.6
				c-2.59,5.4-5.63,10.57-8.61,15.76c-2.99,5.21-5.92,10.46-8.36,15.95c-2.37,5.34-4.37,10.85-6,16.46
				c-3.2,11.06-5,22.48-6.02,33.94c-1.02,11.46-1.25,22.97-1.32,34.47c-0.01,1.43-0.02,2.85-0.02,4.28c-0.01,1.93,2.99,1.93,3,0
				c0.05-11.49,0.17-23,1-34.46c0.83-11.41,2.38-22.79,5.28-33.87c1.47-5.61,3.28-11.13,5.48-16.5c2.26-5.51,5.02-10.77,7.95-15.95
				c2.96-5.22,6.04-10.36,8.78-15.7c2.73-5.32,5.05-10.85,6.82-16.57c3.45-11.12,4.88-22.91,4.08-34.53
				c-0.1-1.44-0.24-2.88-0.4-4.31c-0.09-0.8-0.62-1.5-1.5-1.5C112.74,12.78,111.89,13.47,111.98,14.28L111.98,14.28z"/>
		</g>
	</g>
</g>
<g>
	<g>
		<g>
			<path class="st1" d="M110.48,180.59c1.13,3.75,2.66,7.39,4.56,10.82c0.49,0.88,1.66,0.94,2.36,0.3c3.19-2.93,6.38-5.85,9.56-8.78
				c0.6-0.55,0.56-1.57,0-2.12c-0.59-0.59-1.52-0.55-2.12,0c-3.19,2.93-6.38,5.85-9.56,8.78c0.79,0.1,1.57,0.2,2.36,0.3
				c-1.78-3.21-3.2-6.58-4.26-10.1C112.82,177.95,109.93,178.73,110.48,180.59L110.48,180.59z"/>
		</g>
	</g>
	<g>
		<g>
			<path class="st1" d="M173.9,23.78c1.91-3.45,3.41-7.12,4.46-10.91c-0.84,0.22-1.67,0.44-2.51,0.66c3.36,3.1,6.46,6.49,9.18,10.17
				c0.7,0.95,1.89,0.96,2.59,0c0.57-0.78,0.36-1.88-0.29-2.54c-1.36-1.37-3.48,0.75-2.12,2.12c-0.06-0.37-0.12-0.73-0.18-1.1
				c0.86,0,1.73,0,2.59,0c-2.88-3.88-6.09-7.5-9.65-10.78c-0.82-0.76-2.2-0.46-2.51,0.66c-0.98,3.56-2.37,6.97-4.16,10.2
				C170.38,23.95,172.97,25.47,173.9,23.78L173.9,23.78z"/>
		</g>
	</g>
	<g>
		<g>
			<path class="st1" d="M176.41,14.11c0.42,11.36,0.57,22.76-0.37,34.11c-0.95,11.37-3.07,22.67-7.03,33.39
				c-4.21,11.41-10.61,21.95-18.75,30.98c-4.56,5.05-9.6,9.67-13.71,15.13c-4.11,5.46-7.17,11.64-9.92,17.88
				c-5.58,12.66-9.58,26.01-11.52,39.73c-0.24,1.67-0.45,3.35-0.63,5.03c-0.09,0.81,0.75,1.5,1.5,1.5c0.88,0,1.41-0.69,1.5-1.5
				c1.48-13.65,5.04-27.04,10.24-39.74c2.58-6.3,5.49-12.58,9.23-18.28c3.77-5.75,8.73-10.49,13.43-15.47
				c8.58-9.09,15.46-19.53,20.21-31.1c4.36-10.64,6.8-21.94,8.04-33.35c1.23-11.33,1.26-22.75,0.92-34.13
				c-0.04-1.39-0.09-2.78-0.14-4.17C179.34,12.18,176.34,12.17,176.41,14.11L176.41,14.11z"/>
		</g>
	</g>
</g>
<g>
	<g>
		<g>
			<path class="st1" d="M265.08,84.83c-0.27-0.17-0.54-0.35-0.8-0.52c-1.42-0.91-3.11,1.23-1.82,2.36c2.6,2.27,5.19,4.55,7.79,6.82
				c0.1-0.79,0.2-1.57,0.3-2.36c-1.75,1.13-3.43,2.37-5.02,3.72c-0.75,0.64-1.72,1.31-1.99,2.31c-0.33,1.24,0.7,2.66,2.03,2.52
				c0.81-0.09,1.5-0.63,1.5-1.5c0-0.74-0.69-1.59-1.5-1.5c0.23,0.12,0.47,0.24,0.7,0.36c0.07,0.25,0.14,0.5,0.2,0.76
				c0,0.04-0.13,0.26-0.08,0.28c0.01,0.01,0.29-0.26,0.31-0.29c0.25-0.23,0.51-0.45,0.77-0.68c0.49-0.42,0.99-0.83,1.5-1.23
				c0.99-0.77,2.03-1.48,3.08-2.17c0.76-0.49,1.06-1.69,0.3-2.36c-2.6-2.27-5.19-4.55-7.79-6.82c-0.61,0.79-1.21,1.57-1.82,2.36
				c0.27,0.17,0.54,0.35,0.8,0.52c0.68,0.44,1.66,0.14,2.05-0.54C266.04,86.16,265.76,85.27,265.08,84.83L265.08,84.83z"/>
		</g>
	</g>
	<g>
		<g>
			<path class="st1" d="M172.58,184.92c1.34,1.52,2.68,3.03,4.02,4.55c0.66,0.75,1.29,1.55,2,2.26c0.72,0.72,1.67,1.04,2.65,0.69
				c0.92-0.33,1.45-1.11,2.01-1.86c0.46-0.63,0.98-1.23,1.51-1.8c1.19-1.27,2.51-2.4,3.95-3.37c0.67-0.45,0.97-1.32,0.54-2.05
				c-0.39-0.66-1.38-0.99-2.05-0.54c-1.35,0.92-2.65,1.94-3.82,3.08c-0.56,0.54-1.09,1.11-1.59,1.71c-0.46,0.55-0.99,1.33-1.36,1.77
				c-0.33,0.4-0.22,0.13,0.16,0.25c0.43,0.13,0.17,0.07,0-0.11c-0.17-0.18-0.33-0.37-0.49-0.56c-0.6-0.68-1.2-1.36-1.81-2.04
				c-1.2-1.36-2.41-2.72-3.61-4.09c-0.54-0.61-1.57-0.55-2.12,0C171.97,183.4,172.04,184.31,172.58,184.92L172.58,184.92z"/>
		</g>
	</g>
	<g>
		<g>
			<path class="st1" d="M182.05,191.1c0.1-12.85,0.53-25.7,1.36-38.53c0.19-3,0.41-5.99,0.68-8.98c0.11-1.21,0.23-2.43,0.37-3.64
				c0.06-0.53,0.12-1.05,0.19-1.58c0.03-0.22,0.06-0.43,0.08-0.65c0.05-0.43-0.04,0.32,0.01-0.1c0.02-0.16,0.04-0.33,0.07-0.49
				c0.4-2.81,0.91-5.62,1.81-8.32c0.17-0.51,0.35-1.01,0.55-1.5c0.09-0.23,0.18-0.46,0.28-0.68c0.1-0.25-0.16,0.36-0.05,0.11
				c0.03-0.06,0.05-0.12,0.08-0.18c0.05-0.12,0.11-0.24,0.16-0.36c0.55-1.23,1.12-2.46,1.74-3.66c0.91-1.78,1.91-3.51,3.01-5.18
				c1.37-2.08,2.66-3.77,4.31-5.61c4.03-4.51,8.91-8.21,14.34-10.86c5.65-2.76,11.85-4.05,17.97-5.3c4.8-0.98,9.24-1.61,14.07-2.02
				c6.44-0.55,12.93-0.61,19.38-0.23c1.86,0.11,3.71,0.26,5.56,0.44c0.81,0.08,1.5-0.75,1.5-1.5c0-0.88-0.69-1.42-1.5-1.5
				c-12.34-1.2-24.82-0.81-37.03,1.38c-5.71,1.03-11.52,2.18-16.97,4.21c-6.15,2.29-11.8,5.81-16.57,10.31
				c-5.79,5.45-10.19,12.34-13.12,19.72c-0.93,2.35-1.54,4.8-1.98,7.28c-0.81,4.52-1.22,9.12-1.57,13.7
				c-0.98,12.68-1.46,25.41-1.66,38.13c-0.03,1.87-0.05,3.74-0.06,5.61C179.03,193.03,182.03,193.03,182.05,191.1L182.05,191.1z"/>
		</g>
	</g>
</g>
<g>
	<g>
		<g>
			<path d="M4.61,89.81c2.38-0.08,4.75-0.15,7.13-0.23c0.64-0.02,0.64-1.02,0-1c-2.38,0.08-4.75,0.15-7.13,0.23
				C3.97,88.83,3.97,89.83,4.61,89.81L4.61,89.81z"/>
		</g>
	</g>
	<g>
		<g>
			<path d="M19.62,90c1.75-0.15,3.5-0.3,5.25-0.45c0.27-0.02,0.5-0.21,0.5-0.5c0-0.25-0.23-0.52-0.5-0.5
				c-1.75,0.15-3.5,0.3-5.25,0.45c-0.27,0.02-0.5,0.21-0.5,0.5C19.12,89.75,19.35,90.02,19.62,90L19.62,90z"/>
		</g>
	</g>
	<g>
		<g>
			<path d="M31.64,89.38c2.21,0.08,4.42-0.17,6.55-0.75c0.62-0.17,0.36-1.13-0.27-0.96c-2.05,0.55-4.16,0.79-6.28,0.71
				C31,88.35,31,89.35,31.64,89.38L31.64,89.38z"/>
		</g>
	</g>
	<g>
		<g>
			<path d="M46.65,88.72c3.56,0.06,7.11-0.19,10.63-0.74c0.63-0.1,0.36-1.06-0.27-0.96c-3.43,0.53-6.9,0.76-10.37,0.7
				C46,87.71,46,88.71,46.65,88.72L46.65,88.72z"/>
		</g>
	</g>
	<g>
		<g>
			<path d="M61.3,88.37c2.38-0.11,4.75-0.21,7.13-0.32c0.64-0.03,0.64-1.03,0-1c-2.38,0.11-4.75,0.21-7.13,0.32
				C60.65,87.4,60.65,88.4,61.3,88.37L61.3,88.37z"/>
		</g>
	</g>
	<g>
		<g>
			<path d="M87.57,87.25c3.33,0.15,6.67-0.19,9.9-0.98c0.62-0.15,0.36-1.12-0.27-0.96c-3.16,0.77-6.39,1.09-9.64,0.94
				C86.93,86.22,86.93,87.22,87.57,87.25L87.57,87.25z"/>
		</g>
	</g>
	<g>
		<g>
			<path d="M105.85,88c2.03,0.35,4.09,0.44,6.14,0.23c0.27-0.03,0.5-0.21,0.5-0.5c0-0.25-0.23-0.53-0.5-0.5
				c-1.96,0.19-3.93,0.13-5.87-0.2c-0.27-0.05-0.54,0.07-0.62,0.35C105.43,87.63,105.58,87.96,105.85,88L105.85,88z"/>
		</g>
	</g>
	<g>
		<g>
			<path d="M119.09,87.94c2.83,0.2,5.69-0.14,8.4-0.99c0.61-0.19,0.35-1.16-0.27-0.96c-2.63,0.83-5.38,1.15-8.13,0.96
				C118.45,86.9,118.45,87.9,119.09,87.94L119.09,87.94z"/>
		</g>
	</g>
	<g>
		<g>
			<path d="M135.62,87.36c1.88,0,3.75,0,5.63,0c0.64,0,0.64-1,0-1c-1.88,0-3.75,0-5.63,0C134.98,86.36,134.98,87.36,135.62,87.36
				L135.62,87.36z"/>
		</g>
	</g>
	<g>
		<g>
			<path d="M149.89,89.24c2.13,0,4.25,0,6.38,0c0.64,0,0.64-1,0-1c-2.13,0-4.25,0-6.38,0C149.24,88.24,149.24,89.24,149.89,89.24
				L149.89,89.24z"/>
		</g>
	</g>
	<g>
		<g>
			<path d="M164.16,88.84c2.19,0.27,4.43-0.01,6.49-0.81c0.25-0.1,0.43-0.34,0.35-0.62c-0.07-0.24-0.36-0.45-0.62-0.35
				c-1.99,0.77-4.11,1.03-6.22,0.77c-0.27-0.03-0.5,0.25-0.5,0.5C163.66,88.64,163.89,88.81,164.16,88.84L164.16,88.84z"/>
		</g>
	</g>
	<g>
		<g>
			<path d="M183.68,88.46c2.18,0.2,4.37,0.1,6.53-0.27c0.63-0.11,0.36-1.07-0.27-0.96c-2.07,0.36-4.17,0.43-6.26,0.24
				c-0.27-0.02-0.5,0.25-0.5,0.5C183.18,88.25,183.41,88.43,183.68,88.46L183.68,88.46z"/>
		</g>
	</g>
	<g>
		<g>
			<path d="M197.8,88.87c2.62,0.84,5.52,0.54,7.93-0.77c0.56-0.31,0.06-1.17-0.5-0.86c-2.19,1.2-4.79,1.43-7.16,0.67
				C197.45,87.71,197.19,88.68,197.8,88.87L197.8,88.87z"/>
		</g>
	</g>
	<g>
		<g>
			<path d="M217.08,89.72c1.88,0.11,3.76,0.23,5.63,0.34c0.64,0.04,0.64-0.96,0-1c-1.88-0.11-3.76-0.23-5.63-0.34
				C216.44,88.68,216.44,89.68,217.08,89.72L217.08,89.72z"/>
		</g>
	</g>
	<g>
		<g>
			<path d="M229.24,89.86c2.46-1.03,5.08-1.55,7.74-1.52c0.64,0.01,0.64-0.99,0-1c-2.74-0.03-5.48,0.49-8.01,1.55
				c-0.25,0.11-0.42,0.33-0.35,0.62C228.69,89.75,228.99,89.97,229.24,89.86L229.24,89.86z"/>
		</g>
	</g>
	<g>
		<g>
			<path d="M245.11,89.21c2.31,0.06,4.62-0.21,6.85-0.8c0.62-0.16,0.36-1.13-0.27-0.96c-2.15,0.57-4.36,0.82-6.58,0.76
				C244.47,88.19,244.47,89.19,245.11,89.21L245.11,89.21z"/>
		</g>
	</g>
	<g>
		<g>
			<path d="M260.64,89.31c2.95,0,5.88-0.52,8.64-1.55c0.6-0.22,0.34-1.19-0.27-0.96c-2.68,1-5.51,1.51-8.37,1.51
				C259.99,88.31,259.99,89.31,260.64,89.31L260.64,89.31z"/>
		</g>
	</g>
	<g>
		<g>
			<path d="M277.37,88.53c1.59,0.67,3.49,0.48,4.93-0.46c0.54-0.35,0.04-1.22-0.5-0.86c-1.24,0.81-2.8,0.93-4.16,0.36
				c-0.25-0.1-0.55,0.11-0.62,0.35C276.94,88.2,277.12,88.42,277.37,88.53L277.37,88.53z"/>
		</g>
	</g>
	<g>
		<g>
			<path d="M74.25,87.9c2.38-0.11,4.75-0.21,7.13-0.32c0.64-0.03,0.64-1.03,0-1c-2.38,0.11-4.75,0.21-7.13,0.32
				C73.6,86.92,73.6,87.92,74.25,87.9L74.25,87.9z"/>
		</g>
	</g>
</g>
<g>
	<g>
		<g>
			<path d="M140.75,78.76c-0.07,1.01,0.12,2.02,0.54,2.95c0.31,0.67,0.94,1.83,1.85,1.65c0.45-0.09,0.74-0.52,1.03-0.84
				c0.39-0.44,0.78-0.89,1.17-1.33c0.81-0.92,1.62-1.84,2.43-2.76c0.21-0.24-0.14-0.6-0.35-0.35c-1.32,1.5-2.61,3.04-3.97,4.51
				c-0.15,0.16-0.3,0.31-0.53,0.29c-0.22-0.02-0.4-0.19-0.54-0.34c-0.3-0.33-0.52-0.76-0.7-1.17c-0.35-0.82-0.49-1.71-0.42-2.59
				C141.27,78.44,140.77,78.44,140.75,78.76L140.75,78.76z"/>
		</g>
	</g>
	<g>
		<g>
			<path d="M142.91,83.16c0.59-4.96,3.33-9.55,7.42-12.41c0.26-0.18,0.01-0.62-0.25-0.43c-4.25,2.98-7.06,7.7-7.67,12.85
				C142.37,83.48,142.87,83.48,142.91,83.16L142.91,83.16z"/>
		</g>
	</g>
</g>
<g>
	<g>
		<g>
			<path d="M151.51,60.47c-0.24,0.94-0.47,1.93-0.32,2.9c0.12,0.75,0.56,1.75,1.4,1.9c0.93,0.16,1.69-0.84,2.19-1.47
				c0.66-0.83,1.18-1.74,1.58-2.72c-0.16,0-0.32,0-0.48,0c0.35,1.93-0.45,3.76-1.47,5.36c-1.04,1.65-2.3,3.16-3.48,4.71
				c-0.2,0.26,0.24,0.5,0.43,0.25c1.29-1.69,2.69-3.34,3.77-5.18c0.94-1.61,1.56-3.4,1.23-5.27c-0.05-0.27-0.4-0.2-0.48,0
				c-0.31,0.75-0.69,1.47-1.17,2.13c-0.39,0.55-1.09,1.6-1.81,1.69c-0.91,0.12-1.24-1.23-1.26-1.91c-0.02-0.77,0.16-1.52,0.35-2.25
				C152.08,60.3,151.59,60.16,151.51,60.47L151.51,60.47z"/>
		</g>
	</g>
	<g>
		<g>
			<path d="M158.17,65.25c0.7-0.48,1.51-0.81,2.35-0.92c0.13-0.02,0.25-0.1,0.25-0.25c0-0.12-0.12-0.27-0.25-0.25
				c-0.94,0.12-1.83,0.45-2.61,0.99c-0.11,0.08-0.16,0.22-0.09,0.34C157.89,65.27,158.06,65.33,158.17,65.25L158.17,65.25z"/>
		</g>
	</g>
	<g>
		<g>
			<path d="M157.39,67.72c1.24-0.1,2.46-0.33,3.65-0.67c0.31-0.09,0.18-0.57-0.13-0.48c-1.15,0.33-2.33,0.56-3.52,0.65
				C157.07,67.25,157.06,67.75,157.39,67.72L157.39,67.72z"/>
		</g>
	</g>
	<g>
		<g>
			<path d="M166.13,59.93c-0.24,0.33-0.84-0.06-1.06-0.23c-0.35-0.28-0.71-0.59-1.17-0.66c-0.45-0.07-0.81,0.18-0.98,0.59
				c-0.19,0.47-0.29,1.06-0.29,1.57c0.01,0.89,0.6,1.82,1.59,1.71c0.36-0.04,0.91-0.27,1.18,0.08c0.17,0.23,0.15,0.58,0.05,0.84
				c-0.4,1.11-1.93,0.66-2.74,0.4c-0.31-0.1-0.44,0.38-0.13,0.48c0.9,0.29,2.12,0.62,2.93-0.08c0.5-0.43,0.7-1.31,0.34-1.88
				c-0.21-0.32-0.56-0.47-0.94-0.45c-0.52,0.02-1.03,0.29-1.44-0.17c-0.37-0.41-0.36-1.01-0.27-1.52c0.05-0.27,0.1-0.57,0.2-0.82
				c0.11-0.27,0.33-0.31,0.58-0.23c0.51,0.17,0.84,0.64,1.34,0.85c0.45,0.19,0.93,0.18,1.24-0.24
				C166.76,59.93,166.32,59.68,166.13,59.93L166.13,59.93z"/>
		</g>
	</g>
	<g>
		<g>
			<path d="M168.45,60.41c-1.56,2.84-3.02,5.74-4.36,8.69c-0.11,0.24,0.19,0.53,0.39,0.3c0.17-0.19,0.34-0.38,0.52-0.57
				c0.21-0.24-0.14-0.59-0.35-0.35c-0.17,0.19-0.34,0.38-0.52,0.57c0.13,0.1,0.26,0.2,0.39,0.3c1.35-2.95,2.8-5.85,4.36-8.69
				C169.03,60.38,168.6,60.13,168.45,60.41L168.45,60.41z"/>
		</g>
	</g>
	<g>
		<g>
			<path d="M168.87,64.08c-0.48,1.26-0.9,2.55-1.25,3.85c-0.14,0.5-0.37,1.1-0.24,1.63c0.11,0.48,0.55,0.75,1.03,0.69
				c0.52-0.07,0.94-0.42,1.29-0.79c0.38-0.4,0.71-0.85,0.97-1.34c0.21-0.4,0.61-1.07,0.4-1.53c-0.18-0.4-0.65-0.4-1-0.25
				c-0.51,0.21-0.89,0.71-1.21,1.14c-0.4,0.54-0.69,1.14-0.9,1.78c-0.1,0.31,0.38,0.44,0.48,0.13c0.28-0.86,0.76-1.65,1.4-2.29
				c0.12-0.12,0.59-0.54,0.77-0.32c0.09,0.11-0.12,0.52-0.17,0.63c-0.09,0.21-0.19,0.42-0.3,0.61c-0.22,0.39-0.49,0.75-0.8,1.07
				c-0.27,0.28-0.6,0.6-1.01,0.65c-0.51,0.06-0.52-0.49-0.45-0.85c0.1-0.48,0.24-0.95,0.37-1.41c0.32-1.11,0.68-2.2,1.09-3.28
				C169.47,63.91,168.99,63.78,168.87,64.08L168.87,64.08z"/>
		</g>
	</g>
</g>
</svg>
