<?xml version="1.0" encoding="utf-8"?>
<!-- Generator: Adobe Illustrator 23.1.1, SVG Export Plug-In . SVG Version: 6.00 Build 0)  -->
<svg version="1.1" id="Layer_1" xmlns="http://www.w3.org/2000/svg" xmlns:xlink="http://www.w3.org/1999/xlink" x="0px" y="0px"
	 viewBox="0 0 432 288" style="enable-background:new 0 0 432 288;" xml:space="preserve">
<style type="text/css">
	.st0{fill:#A7A9AC;}
	.st1{fill:#ED1C24;}
</style>
<g>
	<g>
		<g>
			<path class="st0" d="M368.85,177.04c1.7-2.18,3.38-4.37,5.03-6.59c0.49-0.66,0.97-1.31,1.44-1.98c0.42-0.6,0.89-1.18,1.01-1.92
				c0.26-1.56-1-2.83-2.07-3.77c-2.13-1.86-4.55-3.44-7-4.85c-1.12-0.64-2.13,1.09-1.01,1.73c2.01,1.15,3.96,2.43,5.78,3.86
				c0.7,0.56,1.44,1.14,1.99,1.85c0.03,0.04,0.09,0.12,0.16,0.23c0.03,0.05,0.17,0.32,0.14,0.24c-0.04-0.09,0.05,0.18,0.06,0.22
				c-0.03-0.13,0.04-0.02,0,0.13c-0.13,0.44-0.56,0.94-0.85,1.34c-0.42,0.59-0.85,1.18-1.29,1.77c-0.98,1.32-1.97,2.62-2.97,3.93
				c-0.65,0.85-1.17,1.52-1.84,2.37c-0.33,0.43-0.41,1,0,1.41C367.78,177.39,368.51,177.47,368.85,177.04L368.85,177.04z"/>
		</g>
	</g>
	<g>
		<g>
			<path class="st0" d="M71.74,154.89c-1.74,0.72-3.44,1.53-5.07,2.47c-0.84,0.49-1.67,1-2.48,1.55c-0.68,0.46-1.67,0.96-2.11,1.68
				c-0.57,0.94,0.07,1.73,0.74,2.37c0.72,0.68,1.44,1.36,2.17,2.03c1.49,1.36,3.01,2.69,4.56,3.98c0.98,0.82,2.4-0.59,1.41-1.41
				c-1.28-1.07-2.53-2.15-3.77-3.26c-0.59-0.53-1.17-1.06-1.75-1.6c-0.32-0.3-0.64-0.59-0.95-0.89c-0.26-0.25-0.61-0.49-0.76-0.82
				c0.05,0.17,0.09,0.34,0.14,0.5c-0.09,0.15-0.09,0.18,0,0.11c0.08-0.06,0.16-0.11,0.23-0.17c0.18-0.13,0.36-0.26,0.55-0.39
				c0.31-0.22,0.62-0.43,0.93-0.63c0.72-0.48,1.45-0.93,2.2-1.36c1.45-0.83,2.95-1.57,4.5-2.21c0.5-0.21,0.85-0.66,0.7-1.23
				C72.84,155.12,72.24,154.69,71.74,154.89L71.74,154.89z"/>
		</g>
	</g>
	<g>
		<g>
			<path class="st0" d="M63.99,162.62c23.35,2.98,46.99,2.46,70.48,2.47c19.94,0.01,39.88,0.05,59.83,0.07
				c19.31,0.02,38.63,0.01,57.94-0.06c16.52-0.06,33.05-0.08,49.57,0.06c20.95,0.18,41.89,0.56,62.83,1.13
				c2.95,0.08,5.91,0.16,8.86,0.25c1.29,0.04,1.29-1.96,0-2c-21.65-0.64-43.31-1.09-64.97-1.32c-16.1-0.17-32.2-0.23-48.3-0.16
				c-19.68,0.08-39.36,0.11-59.04,0.1c-19.58-0.01-39.16-0.06-58.74-0.07c-23.26-0.02-46.67,0.62-69.86-1.53
				c-2.87-0.27-5.74-0.58-8.59-0.95C62.72,160.46,62.73,162.46,63.99,162.62L63.99,162.62z"/>
		</g>
	</g>
</g>
<g>
	<g>
		<g>
			<path class="st0" d="M214.08,23.03c2.07-3.39,4.17-6.76,6.18-10.18c0.11-0.19,0.22-0.37,0.33-0.56c0.07-0.12,0.38-0.49,0.37-0.59
				c-0.02-0.23,0.08,0.15-0.09-0.03c-0.21-0.22-0.03,0.1-0.04,0.03c0,0.05,0.26,0.29,0.31,0.36c0.15,0.2,0.28,0.42,0.42,0.62
				c0.83,1.24,1.65,2.48,2.48,3.73c1.5,2.26,3,4.53,4.5,6.79c0.71,1.07,2.44,0.07,1.73-1.01c-2.35-3.56-4.71-7.12-7.08-10.67
				c-0.46-0.69-0.94-1.48-1.77-1.75c-1.12-0.37-1.96,0.48-2.48,1.37c-0.69,1.21-1.41,2.39-2.14,3.58c-1.48,2.44-2.97,4.87-4.46,7.3
				C211.68,23.12,213.41,24.13,214.08,23.03L214.08,23.03z"/>
		</g>
	</g>
	<g>
		<g>
			<path class="st0" d="M211.91,257.47c1.76,3.95,3.9,7.72,6.42,11.24c0.61,0.85,1.2,1.83,1.95,2.56c0.84,0.83,1.97,0.61,2.7-0.23
				c1.46-1.71,2.79-3.55,4.14-5.35c1.57-2.1,3.1-4.23,4.59-6.38c0.73-1.06-1-2.06-1.73-1.01c-2.32,3.36-4.73,6.65-7.25,9.86
				c-0.29,0.37-0.59,0.75-0.88,1.12c-0.09,0.11-0.38,0.35-0.4,0.49c-0.02,0.02-0.04,0.05-0.06,0.07c0.11,0.01,0.21,0.02,0.32,0.03
				c0.01-0.01-0.23-0.27-0.26-0.29c-0.6-0.74-1.16-1.54-1.71-2.32c-1.1-1.57-2.12-3.18-3.08-4.84c-1.11-1.93-2.11-3.91-3.01-5.94
				c-0.22-0.49-0.94-0.61-1.37-0.36C211.76,256.4,211.69,256.98,211.91,257.47L211.91,257.47z"/>
		</g>
	</g>
	<g>
		<g>
			<path class="st0" d="M220.09,11.69c-1.13,33.78-1.77,67.58-1.91,101.38c-0.14,33.62,0.21,67.25,1.05,100.86
				c0.47,18.96,1.11,37.92,1.89,56.88c0.05,1.28,2.05,1.29,2,0c-1.4-33.77-2.31-67.56-2.72-101.35
				c-0.41-33.62-0.32-67.25,0.25-100.86c0.32-18.97,0.81-37.93,1.44-56.89C222.13,10.4,220.13,10.41,220.09,11.69L220.09,11.69z"/>
		</g>
	</g>
</g>
<g>
	<g>
		<g>
			<path class="st1" d="M97.58,19.59c0.11,23.55,0.26,47.39,5.64,70.45c4.46,19.12,12.88,37.49,26.34,51.97
				c6.28,6.75,13.65,12.57,21.89,16.74c4.58,2.32,9.39,4.07,14.33,5.42c5.72,1.56,11.56,2.71,17.24,4.41
				c8.08,2.42,15.41,6.6,22.06,11.74c7.65,5.91,14.44,13.04,19.85,21.06c5.76,8.55,9.49,18.03,12.24,27.92
				c2.75,9.87,4.25,20.05,4.48,30.29c0.04,1.87,0.04,3.74,0.01,5.61c-0.04,1.93,2.96,1.93,3,0c0.18-9.2-0.62-18.41-2.4-27.43
				c-2.05-10.37-5.24-20.85-10.16-30.24c-4.61-8.79-10.89-16.73-18.11-23.52c-6.35-5.96-13.54-11.26-21.43-15
				c-9.57-4.53-20.19-5.74-30.19-8.98c-8.97-2.91-17.21-7.76-24.31-13.95c-14.34-12.49-24.08-29.69-29.54-47.76
				c-6.83-22.64-7.69-46.49-7.9-69.98c-0.03-2.92-0.04-5.84-0.05-8.76C100.57,17.66,97.57,17.66,97.58,19.59L97.58,19.59z"/>
		</g>
	</g>
	<g>
		<g>
			<path class="st1" d="M93.98,33.78c1.14-3.9,2.4-7.75,3.8-11.56c0.31-0.85,0.49-1.57,0.92-2.22c-0.08,0.13-0.02-0.07,0.07-0.06
				c-0.04,0-0.07,0.08-0.11,0.07c-0.03-0.01-0.11,0.03-0.15,0.03c-0.05-0.01-0.1-0.03-0.15-0.04c-0.17-0.06-0.2-0.06-0.08,0
				c0,0,0.1,0.1,0.12,0.13c0.05,0.07,0.18,0.29,0.26,0.42c1.03,1.79,2.03,3.6,3.04,5.4c1.18,2.09,2.35,4.17,3.53,6.26
				c0.95,1.68,3.54,0.17,2.59-1.51c-1.18-2.09-2.35-4.17-3.53-6.26c-0.57-1.01-1.13-2.01-1.7-3.02c-0.54-0.96-1.02-1.98-1.66-2.88
				c-0.68-0.97-1.72-1.69-2.96-1.42c-1,0.22-1.7,1.01-2.12,1.89c-0.5,1.03-0.84,2.15-1.23,3.22c-0.38,1.06-0.76,2.12-1.12,3.18
				c-0.86,2.51-1.65,5.04-2.39,7.59C90.55,34.84,93.44,35.63,93.98,33.78L93.98,33.78z"/>
		</g>
	</g>
	<g>
		<g>
			<path class="st1" d="M236.94,257.2c1.25-0.32,1.55-1.87,0.7-2.75c-0.86-0.89-2.28-0.55-2.76,0.54c-0.42,0.96,0.13,1.89,0.53,2.75
				c0.38,0.82,0.78,1.63,1.2,2.44c1.63,3.15,3.55,6.14,5.72,8.95c0.66,0.85,1.98,1.07,2.59,0c2.13-3.73,4.4-7.37,6.83-10.91
				c0.46-0.67,0.13-1.66-0.54-2.05c-0.74-0.43-1.59-0.13-2.05,0.54c-2.43,3.54-4.71,7.18-6.83,10.91c0.86,0,1.73,0,2.59,0
				c-1.47-1.91-2.83-3.91-4.07-5.99c-0.62-1.04-1.2-2.09-1.75-3.17c-0.28-0.54-0.54-1.08-0.8-1.62c-0.13-0.27-0.26-0.55-0.38-0.82
				c-0.06-0.14-0.13-0.27-0.19-0.41c0.06,0.19,0.03,0.4-0.08,0.61c-0.3,0.23-0.6,0.46-0.9,0.69c0.03-0.01,0.06-0.02,0.09-0.03
				c-0.27,0-0.53,0-0.8,0c0.03,0.01,0.06,0.02,0.08,0.02c-0.22-0.13-0.44-0.26-0.66-0.39c-0.08-0.15-0.16-0.29-0.25-0.44
				c0-0.27,0-0.53,0-0.8c-0.01,0.02-0.02,0.04-0.03,0.06c0.35-0.35,0.7-0.7,1.05-1.05c-0.03,0.01-0.05,0.01-0.08,0.02
				C234.27,254.78,235.06,257.67,236.94,257.2L236.94,257.2z"/>
		</g>
	</g>
</g>
<g>
	<g>
		<g>
			<path class="st1" d="M245.96,14.64c-0.51,8.33-0.75,16.68-0.73,25.03c0.02,8.31,0.3,16.61,0.85,24.9
				c0.54,8.3,1.34,16.59,2.42,24.84c0.74,5.64,2.13,11.57,5.71,16.14c1.65,2.1,3.87,3.74,6.45,4.48c3.75,1.07,7.58,0.02,11.07-1.44
				c6.28-2.63,12.25-6,17.74-10.02c5.45-3.99,10.45-8.56,14.87-13.66c4.57-5.29,8.5-11.1,11.72-17.32
				c3.47-6.72,6.16-13.82,8.38-21.04c2.2-7.19,3.95-14.52,5.59-21.85c0.41-1.81,0.81-3.63,1.21-5.44c0.17-0.79-0.24-1.62-1.05-1.85
				c-0.75-0.21-1.67,0.25-1.85,1.05c-3.16,14.34-6.32,28.87-12.33,42.34c-2.84,6.36-6.31,12.43-10.52,17.98
				c-3.92,5.17-8.47,9.87-13.45,14.02c-4.98,4.16-10.45,7.73-16.24,10.65c-3.11,1.57-6.4,3.22-9.86,3.86
				c-1.5,0.28-3.02,0.25-4.47-0.17c-0.29-0.08-0.58-0.18-0.86-0.29c-0.45-0.17,0.25,0.12-0.19-0.08c-0.13-0.06-0.27-0.13-0.4-0.19
				c-0.57-0.29-1.11-0.63-1.62-1.01c0.23,0.17-0.15-0.13-0.16-0.13c-0.11-0.1-0.22-0.19-0.33-0.29c-0.22-0.2-0.43-0.41-0.64-0.62
				c-0.48-0.5-0.81-0.91-1.11-1.34c-0.77-1.08-1.41-2.25-1.95-3.45c-1-2.22-1.77-5.06-2.26-7.64c-0.3-1.58-0.46-2.81-0.65-4.3
				c-0.26-2.04-0.5-4.08-0.72-6.13c-0.44-4.01-0.82-8.02-1.13-12.04c-1.28-16.32-1.55-32.72-0.79-49.07
				c0.09-1.97,0.2-3.94,0.32-5.91c0.05-0.81-0.72-1.5-1.5-1.5C246.6,13.14,246.01,13.83,245.96,14.64L245.96,14.64z"/>
		</g>
	</g>
	<g>
		<g>
			<path class="st1" d="M240.11,31.22c1.92-4.42,3.83-8.84,5.75-13.26c0.37-0.86,0.69-1.86,1.27-2.6c-0.07,0.09,0.2-0.21,0.26-0.25
				c0.01-0.01,0.18-0.06,0.07-0.05c0.15-0.02,0.14-0.06,0.2-0.02c-0.24-0.17,0.19,0.14,0.15,0.11c0.21,0.17,0.36,0.41,0.53,0.71
				c0.25,0.42,0.44,0.87,0.64,1.32c0.51,1.14,1.02,2.27,1.54,3.41c1.13,2.5,2.25,5,3.38,7.5c0.33,0.74,1.41,0.92,2.05,0.54
				c0.76-0.44,0.87-1.31,0.54-2.05c-1.11-2.46-2.22-4.93-3.33-7.39c-0.55-1.21-1.09-2.42-1.64-3.64c-0.43-0.96-0.92-1.95-1.74-2.64
				c-0.9-0.76-2.12-1.1-3.26-0.68c-1.05,0.38-1.81,1.25-2.34,2.22c-0.57,1.04-0.98,2.18-1.45,3.26c-0.54,1.25-1.08,2.49-1.62,3.74
				c-1.2,2.76-2.39,5.51-3.59,8.27c-0.32,0.74-0.22,1.61,0.54,2.05C238.7,32.13,239.79,31.97,240.11,31.22L240.11,31.22z"/>
		</g>
	</g>
	<g>
		<g>
			<path class="st1" d="M323.35,29.11c1.2-2,2.4-4,3.6-6c0.6-1,1.19-2.01,1.8-3c0.19-0.31,0.39-0.6,0.64-0.86
				c0.17-0.17,0.53-0.48,0.59-0.4c-0.01-0.02-0.14,0.04-0.18-0.03c0.1,0.19,0.06,0.05,0.17,0.23c0.19,0.32,0.27,0.66,0.42,1.08
				c0.37,1.09,0.75,2.19,1.12,3.28c0.75,2.19,1.5,4.37,2.25,6.56c0.26,0.77,1.03,1.27,1.85,1.05c0.75-0.2,1.31-1.08,1.05-1.85
				c-0.67-1.95-1.34-3.91-2.01-5.86c-0.33-0.98-0.67-1.95-1-2.93c-0.31-0.9-0.57-1.84-1-2.69c-0.42-0.83-1.14-1.5-2.05-1.74
				c-1.02-0.27-2.02,0.11-2.82,0.73c-1.51,1.19-2.38,3.19-3.35,4.8c-1.22,2.04-2.44,4.07-3.66,6.11
				C319.76,29.26,322.36,30.77,323.35,29.11L323.35,29.11z"/>
		</g>
	</g>
</g>
</svg>
