<?xml version="1.0" encoding="utf-8"?>
<!-- Generator: Adobe Illustrator 23.1.1, SVG Export Plug-In . SVG Version: 6.00 Build 0)  -->
<svg version="1.1" id="Layer_1" xmlns="http://www.w3.org/2000/svg" xmlns:xlink="http://www.w3.org/1999/xlink" x="0px" y="0px"
	 viewBox="0 0 288 216" style="enable-background:new 0 0 288 216;" xml:space="preserve">
<style type="text/css">
	.st0{fill:#A7A9AC;}
	.st1{fill:#ED1C24;}
</style>
<g>
	<g>
		<g>
			<g>
				<path class="st0" d="M259.33,95.29c2.97-2.18,5.92-4.4,8.77-6.73c0.77-0.63,1.53-1.26,2.26-1.93c0.66-0.61,1.45-1.27,1.62-2.19
					c0.19-1.03-0.45-1.93-1.21-2.56c-1.03-0.85-2.22-1.47-3.4-2.09c-2.92-1.54-5.84-3.05-8.75-4.61c-1.13-0.61-2.14,1.12-1.01,1.73
					c2.32,1.25,4.65,2.48,6.98,3.7c1.28,0.67,2.59,1.31,3.82,2.07c0.39,0.24,0.79,0.49,1.13,0.8c0.07,0.07,0.34,0.34,0.31,0.3
					c0.06,0.08,0.11,0.16,0.15,0.25c-0.08-0.16,0.03,0.03,0.02,0.09c0.04-0.23-0.04,0.06-0.07,0.1c-0.1,0.11-0.2,0.22-0.31,0.33
					c-0.26,0.26-0.53,0.51-0.8,0.76c-0.67,0.61-1.36,1.19-2.06,1.77c-1.59,1.3-3.21,2.56-4.85,3.8c-1.2,0.91-2.41,1.82-3.63,2.71
					c-0.43,0.32-0.65,0.87-0.36,1.37C258.22,95.36,258.9,95.61,259.33,95.29L259.33,95.29z"/>
			</g>
		</g>
		<g>
			<g>
				<path class="st0" d="M34.04,68.61c-3.86,1.72-7.52,3.89-10.9,6.44c-0.77,0.58-1.73,1.16-2.32,1.92
					c-0.69,0.88-0.38,1.88,0.3,2.65c1.5,1.68,3.14,3.26,4.75,4.84c1.81,1.78,3.65,3.53,5.52,5.24c0.95,0.87,2.37-0.54,1.41-1.41
					c-2.99-2.73-5.89-5.56-8.71-8.46c-0.33-0.34-0.66-0.69-0.99-1.03c-0.16-0.17-0.34-0.34-0.5-0.52c-0.03-0.03-0.13-0.18-0.16-0.19
					c-0.11-0.04-0.03,0.09-0.04,0.1c0.34-0.18,0.67-0.57,0.97-0.81c0.38-0.3,0.76-0.59,1.15-0.88c1.54-1.14,3.14-2.21,4.78-3.19
					c1.86-1.1,3.78-2.09,5.75-2.97c0.49-0.22,0.61-0.94,0.36-1.37C35.11,68.46,34.54,68.39,34.04,68.61L34.04,68.61z"/>
			</g>
		</g>
		<g>
			<g>
				<path class="st0" d="M21.31,79.66c15.14,4.13,30.92,4.09,46.49,3.93c16.32-0.17,32.64-0.34,48.96-0.5
					c16.33-0.17,32.65-0.34,48.98-0.5c16.24-0.17,32.48-0.41,48.71-0.27c18.32,0.17,36.66,0.88,54.88,2.91c1.28,0.14,1.27-1.86,0-2
					c-32.26-3.59-64.77-3.04-97.16-2.71c-32.65,0.34-65.31,0.67-97.96,1.01c-17.49,0.18-35.33,0.85-52.37-3.79
					C20.6,77.39,20.07,79.32,21.31,79.66L21.31,79.66z"/>
			</g>
		</g>
	</g>
	<g>
		<g>
			<g>
				<path class="st0" d="M139.79,28.39c2.53-4.64,5.08-9.28,7.61-13.92c0.33-0.61,0.67-1.22,1-1.83c0.21-0.39,0.55-0.83,0.71-1.24
					c0.07-0.18,0.11,0,0.04-0.07c-0.06-0.01-0.12-0.01-0.18-0.02c0.07,0.04,0.13,0.1,0.18,0.16c0.16,0.27,0.35,0.53,0.51,0.8
					c0.43,0.71,0.86,1.42,1.29,2.13c0.9,1.49,1.81,2.98,2.71,4.48c2.02,3.34,4.05,6.68,6.07,10.02c0.67,1.1,2.4,0.1,1.73-1.01
					c-1.94-3.2-3.87-6.39-5.81-9.59c-0.95-1.56-1.89-3.13-2.84-4.69c-0.47-0.78-0.95-1.56-1.42-2.34c-0.39-0.64-0.78-1.35-1.47-1.72
					c-1.9-1-2.89,1.46-3.6,2.76c-1.01,1.85-2.02,3.69-3.03,5.54c-1.74,3.18-3.47,6.35-5.21,9.53
					C137.45,28.52,139.17,29.53,139.79,28.39L139.79,28.39z"/>
			</g>
		</g>
		<g>
			<g>
				<path class="st0" d="M141.04,195.26c1.79,4.25,3.94,8.34,6.53,12.16c0.6,0.88,1.18,1.89,1.92,2.66
					c0.82,0.84,1.95,0.73,2.71-0.14c0.8-0.92,1.49-1.96,2.22-2.94c0.71-0.96,1.42-1.93,2.11-2.9c1.61-2.25,3.17-4.52,4.69-6.83
					c0.71-1.08-1.02-2.08-1.73-1.01c-2.38,3.6-4.86,7.14-7.45,10.6c-0.29,0.38-0.57,0.76-0.86,1.15c-0.12,0.16-0.42,0.41-0.46,0.59
					c-0.02,0.02-0.04,0.05-0.07,0.07c0.1,0.02,0.2,0.03,0.29,0.05c0.01-0.02-0.09-0.1-0.1-0.12c-0.05-0.2-0.33-0.45-0.46-0.63
					c-0.13-0.18-0.26-0.36-0.39-0.55c-0.3-0.43-0.6-0.86-0.89-1.29c-1.13-1.68-2.18-3.42-3.15-5.2c-1.1-2.02-2.11-4.09-2.99-6.21
					c-0.21-0.5-0.66-0.85-1.23-0.7C141.27,194.15,140.83,194.75,141.04,195.26L141.04,195.26z"/>
			</g>
		</g>
		<g>
			<g>
				<path class="st0" d="M147.83,10.92c-0.4,25.67-0.57,51.34-0.49,77.02c0.08,25.55,0.39,51.09,0.95,76.63
					c0.31,14.41,0.7,28.81,1.17,43.22c0.04,1.28,2.04,1.29,2,0c-0.83-25.67-1.41-51.34-1.76-77.01
					c-0.34-25.54-0.45-51.09-0.31-76.63c0.08-14.41,0.23-28.82,0.45-43.22C149.85,9.63,147.85,9.63,147.83,10.92L147.83,10.92z"/>
			</g>
		</g>
	</g>
</g>
<g>
	<g>
		<g>
			<path d="M280.06,117.93c-2.68-0.34-5.39-0.43-8.09-0.28c-0.64,0.04-0.64,1.04,0,1c2.7-0.15,5.41-0.06,8.09,0.28
				c0.27,0.03,0.5-0.25,0.5-0.5C280.56,118.13,280.33,117.97,280.06,117.93L280.06,117.93z"/>
		</g>
	</g>
	<g>
		<g>
			<path d="M266.75,117.56c-2.06-0.02-4.11-0.05-6.17-0.07c-0.64-0.01-0.64,0.99,0,1c2.06,0.02,4.11,0.05,6.17,0.07
				C267.39,118.57,267.39,117.57,266.75,117.56L266.75,117.56z"/>
		</g>
	</g>
	<g>
		<g>
			<path d="M254.42,117.05c-2.37-0.03-4.74-0.05-7.12-0.08c-0.64-0.01-0.64,0.99,0,1c2.37,0.03,4.74,0.05,7.12,0.08
				C255.06,118.05,255.06,117.05,254.42,117.05L254.42,117.05z"/>
		</g>
	</g>
	<g>
		<g>
			<path d="M241.27,117.63c-2.38-0.56-4.81-0.84-7.26-0.82c-0.64,0-0.64,1,0,1c2.36-0.02,4.7,0.24,6.99,0.78
				C241.63,118.75,241.9,117.78,241.27,117.63L241.27,117.63z"/>
		</g>
	</g>
	<g>
		<g>
			<path d="M226.89,117.52c-2.21-0.18-4.42-0.36-6.63-0.53c-0.64-0.05-0.64,0.95,0,1c2.21,0.18,4.42,0.36,6.63,0.53
				C227.53,118.58,227.53,117.58,226.89,117.52L226.89,117.52z"/>
		</g>
	</g>
	<g>
		<g>
			<path d="M213.28,117.71c-1.42-0.43-2.94-0.56-4.41-0.39c-0.27,0.03-0.5,0.21-0.5,0.5c0,0.25,0.23,0.53,0.5,0.5
				c1.39-0.16,2.8-0.05,4.14,0.36C213.63,118.86,213.89,117.89,213.28,117.71L213.28,117.71z"/>
		</g>
	</g>
	<g>
		<g>
			<path d="M202.2,118.05c-1.89-0.17-3.79-0.34-5.68-0.51c-0.27-0.02-0.5,0.25-0.5,0.5c0,0.29,0.23,0.48,0.5,0.5
				c1.89,0.17,3.79,0.34,5.68,0.51c0.27,0.02,0.5-0.25,0.5-0.5C202.7,118.26,202.47,118.07,202.2,118.05L202.2,118.05z"/>
		</g>
	</g>
	<g>
		<g>
			<path d="M187.98,118.2c-2.21-0.02-4.43-0.05-6.64-0.07c-0.64-0.01-0.64,0.99,0,1c2.21,0.02,4.43,0.05,6.64,0.07
				C188.62,119.2,188.62,118.2,187.98,118.2L187.98,118.2z"/>
		</g>
	</g>
	<g>
		<g>
			<path d="M173.26,118.79c-2.06-0.02-4.11-0.05-6.17-0.07c-0.64-0.01-0.64,0.99,0,1c2.06,0.02,4.11,0.05,6.17,0.07
				C173.9,119.8,173.9,118.8,173.26,118.79L173.26,118.79z"/>
		</g>
	</g>
	<g>
		<g>
			<path d="M160.45,118.27c-2.37-0.03-4.74-0.05-7.12-0.08c-0.64-0.01-0.64,0.99,0,1c2.37,0.03,4.74,0.05,7.12,0.08
				C161.1,119.28,161.1,118.28,160.45,118.27L160.45,118.27z"/>
		</g>
	</g>
	<g>
		<g>
			<path d="M146.22,118.11c-2.53-0.03-5.06-0.06-7.59-0.08c-0.64-0.01-0.64,0.99,0,1c2.53,0.03,5.06,0.06,7.59,0.08
				C146.86,119.12,146.87,118.12,146.22,118.11L146.22,118.11z"/>
		</g>
	</g>
	<g>
		<g>
			<path d="M130.71,118.3c-2.42-0.61-4.97-0.63-7.4-0.06c-0.63,0.15-0.36,1.11,0.27,0.96c2.26-0.53,4.62-0.51,6.87,0.06
				C131.07,119.42,131.33,118.46,130.71,118.3L130.71,118.3z"/>
		</g>
	</g>
	<g>
		<g>
			<path d="M117.28,117.83c-2.05-0.18-4.1-0.36-6.15-0.55c-0.27-0.02-0.5,0.25-0.5,0.5c0,0.29,0.23,0.48,0.5,0.5
				c2.05,0.18,4.1,0.36,6.15,0.55c0.27,0.02,0.5-0.25,0.5-0.5C117.78,118.04,117.55,117.85,117.28,117.83L117.28,117.83z"/>
		</g>
	</g>
	<g>
		<g>
			<path d="M102.1,117.63c-1.9-0.02-3.8-0.04-5.69-0.06c-0.64-0.01-0.64,0.99,0,1c1.9,0.02,3.8,0.04,5.69,0.06
				C102.74,118.63,102.74,117.63,102.1,117.63L102.1,117.63z"/>
		</g>
	</g>
	<g>
		<g>
			<path d="M89.76,117.83c-2.7,0.14-5.4,0.06-8.09-0.25c-0.64-0.07-0.63,0.93,0,1c2.69,0.31,5.39,0.4,8.09,0.25
				C90.4,118.8,90.4,117.8,89.76,117.83L89.76,117.83z"/>
		</g>
	</g>
	<g>
		<g>
			<path d="M73.64,116.56c-1.42-0.02-2.85-0.03-4.27-0.05c-0.64-0.01-0.64,0.99,0,1c1.42,0.02,2.85,0.03,4.27,0.05
				C74.28,117.57,74.28,116.57,73.64,116.56L73.64,116.56z"/>
		</g>
	</g>
	<g>
		<g>
			<path d="M60.34,116.74c-1.42,0.14-2.84,0.29-4.26,0.43c-0.27,0.03-0.5,0.21-0.5,0.5c0,0.25,0.23,0.53,0.5,0.5
				c1.42-0.14,2.84-0.29,4.26-0.43c0.27-0.03,0.5-0.21,0.5-0.5C60.84,116.99,60.61,116.71,60.34,116.74L60.34,116.74z"/>
		</g>
	</g>
	<g>
		<g>
			<path d="M48.47,117.17c-1.11-0.01-2.21-0.02-3.32-0.04c-0.26,0-0.51,0.23-0.5,0.5c0.01,0.27,0.22,0.5,0.5,0.5
				c1.11,0.01,2.21,0.02,3.32,0.04c0.26,0,0.51-0.23,0.5-0.5C48.96,117.39,48.75,117.17,48.47,117.17L48.47,117.17z"/>
		</g>
	</g>
	<g>
		<g>
			<path d="M38.51,117.43c-1.27-0.01-2.53-0.03-3.8-0.04c-0.64-0.01-0.64,0.99,0,1c1.27,0.01,2.53,0.03,3.8,0.04
				C39.15,118.44,39.15,117.44,38.51,117.43L38.51,117.43z"/>
		</g>
	</g>
	<g>
		<g>
			<path d="M28.95,116.67c-0.95,0.12-1.9,0.25-2.85,0.37c-0.26,0.03-0.51,0.21-0.5,0.5c0.01,0.24,0.22,0.54,0.5,0.5
				c0.95-0.12,1.9-0.25,2.85-0.37c0.26-0.03,0.51-0.21,0.5-0.5C29.44,116.92,29.23,116.63,28.95,116.67L28.95,116.67z"/>
		</g>
	</g>
	<g>
		<g>
			<path d="M21.69,116.28c-1.59-0.6-3.41-0.64-5.03-0.11c-0.61,0.2-0.35,1.16,0.27,0.96c1.46-0.47,3.06-0.43,4.49,0.11
				c0.25,0.1,0.55-0.11,0.62-0.35C22.12,116.62,21.95,116.38,21.69,116.28L21.69,116.28z"/>
		</g>
	</g>
	<g>
		<g>
			<path d="M12.66,115.87c-1.11-0.01-2.21-0.02-3.32-0.04c-0.26,0-0.51,0.23-0.5,0.5c0.01,0.27,0.22,0.5,0.5,0.5
				c1.11,0.01,2.21,0.02,3.32,0.04c0.26,0,0.51-0.23,0.5-0.5C13.14,116.09,12.94,115.87,12.66,115.87L12.66,115.87z"/>
		</g>
	</g>
</g>
<g>
	<g>
		<g>
			<path class="st1" d="M21.37,116.02c6.01,0.51,12.05,0.69,18.08,0.41c7.57-0.35,15.34-1.3,22.54-3.72
				c2.23-0.75,4.46-1.67,6.42-2.99c2.16-1.45,3.99-3.34,5.7-5.29c2.49-2.84,4.82-5.84,6.95-8.96c1.74-2.56,3.31-4.77,5.69-6.81
				c1.22-1.05,2.47-2.08,3.92-2.81c0.62-0.31,1.32-0.55,2.01-0.63c0.71-0.08,1.33-0.01,1.97,0.17c2.55,0.71,4.48,3.25,6.02,5.48
				c3.21,4.67,5.6,9.75,6.8,15.29c1.34,6.16,1.97,12.43,2.37,18.72c0.3,4.79,0.45,9.59,0.45,14.39
				c-0.01,12.18-0.76,24.35-0.52,36.53c0.04,1.97,0.1,3.94,0.2,5.91c0.04,0.81,0.66,1.5,1.5,1.5c0.78,0,1.54-0.69,1.5-1.5
				c-0.38-8.02-0.24-16.04-0.02-24.06c0.15-5.62,0.28-11.23,0.34-16.85c0.04-4.06-0.05-8.11-0.23-12.16
				c-0.3-6.49-0.85-13-1.94-19.41c-0.95-5.58-2.54-10.95-5.33-15.91c-0.87-1.55-1.86-3.03-2.88-4.49c-0.92-1.3-1.9-2.58-3.05-3.68
				c-2.45-2.33-5.74-3.62-9.08-2.55c-1.74,0.56-3.24,1.58-4.66,2.71c-1.28,1.01-2.53,2.07-3.63,3.27c-2.17,2.35-3.74,5.16-5.64,7.71
				c-2.2,2.95-4.51,5.87-7.13,8.47c-0.53,0.53-1.08,1.04-1.66,1.52c-0.08,0.07-0.48,0.39-0.31,0.25c0.19-0.15-0.05,0.04-0.1,0.07
				c-0.09,0.06-0.17,0.13-0.26,0.19c-0.74,0.53-1.51,1-2.32,1.42c-1.22,0.63-2.01,0.95-3.27,1.4c-1.62,0.57-3.27,1.04-4.94,1.45
				c-3.8,0.93-7.67,1.56-11.57,1.95c-6.77,0.68-13.6,0.7-20.38,0.28c-1.18-0.07-2.36-0.16-3.53-0.26c-0.81-0.07-1.5,0.74-1.5,1.5
				C19.87,115.39,20.56,115.95,21.37,116.02L21.37,116.02z"/>
		</g>
	</g>
	<g>
		<g>
			<path class="st1" d="M28,103.63c-1.67,1.78-3.47,3.43-5.39,4.94c-0.95,0.74-1.93,1.43-2.94,2.1c-0.94,0.62-2.29,1.15-2.83,2.19
				c-0.74,1.43,0.46,2.63,1.47,3.48c0.82,0.7,1.72,1.32,2.63,1.89c1.66,1.04,3.46,1.97,4.86,3.28c0.95,0.9,1.94,2.77,3.54,1.87
				c1.88-1.05,0.19-4.16-1.62-2.94c-0.67,0.45-0.97,1.32-0.54,2.05c0.39,0.67,1.38,0.99,2.05,0.54c0.02-0.01,0.04-0.03,0.06-0.04
				c-0.39,0.05-0.77,0.1-1.16,0.15c0.02,0.01,0.04,0.01,0.06,0.02c-0.22-0.13-0.44-0.26-0.66-0.39c0.02,0.02,0.03,0.04,0.05,0.06
				c-0.13-0.22-0.26-0.44-0.39-0.66c0-0.18,0-0.36,0-0.54c0.23-0.3,0.46-0.6,0.69-0.9c-0.02,0.02-0.05,0.03-0.07,0.05
				c0.25-0.07,0.5-0.14,0.76-0.2c-0.06,0-0.11,0-0.17,0c0.25,0.07,0.5,0.14,0.76,0.2c-0.18-0.09-0.62-0.76-0.87-1.02
				c-0.38-0.39-0.78-0.75-1.21-1.09c-0.9-0.71-1.84-1.34-2.82-1.93c-0.9-0.55-1.81-1.08-2.68-1.67c-0.42-0.28-0.81-0.57-1.17-0.87
				c-0.19-0.16-0.37-0.32-0.55-0.49c-0.11-0.1-0.21-0.23-0.32-0.32c-0.2-0.15-0.01-0.02-0.01-0.03c0,0.27,0,0.53,0,0.8
				c-0.04,0.12-0.11,0.19-0.21,0.24c0.11-0.07,0.22-0.14,0.34-0.21c0.25-0.15,0.5-0.31,0.75-0.47c0.5-0.32,0.99-0.64,1.48-0.98
				c1.02-0.7,2.01-1.44,2.98-2.21c1.86-1.47,3.6-3.08,5.22-4.8C31.45,104.35,29.33,102.23,28,103.63L28,103.63z"/>
		</g>
	</g>
	<g>
		<g>
			<path class="st1" d="M102.29,176.67c3.19,2.95,6.12,6.17,8.7,9.66c0.8,1.07,2.26,0.9,2.74-0.36c1.25-3.25,3.01-6.35,5.17-9.08
				c0.5-0.63,0.62-1.5,0-2.12c-0.52-0.52-1.62-0.64-2.12,0c-2.51,3.17-4.49,6.64-5.94,10.41c0.91-0.12,1.83-0.24,2.74-0.36
				c-2.74-3.7-5.79-7.14-9.17-10.27c-0.59-0.55-1.53-0.59-2.12,0C101.73,175.1,101.69,176.12,102.29,176.67L102.29,176.67z"/>
		</g>
	</g>
</g>
<g>
	<g>
		<g>
			<path class="st1" d="M127.61,182.09c-0.31-11.75-0.25-23.5,0.2-35.24c0.09-2.25,0.19-4.49,0.3-6.74c0.02-0.4,0.03-0.76,0.01-1.15
				c-0.06-1.4-0.07-2.81-0.06-4.21c0.03-6.5,0.51-12.99,1.29-19.44c1.21-10.06,3.26-20.23,6.02-30.07
				c1.69-6.01,3.65-11.94,5.9-17.77c1.19-3.09,2.46-6.15,3.82-9.17c1.19-2.66,2.41-5.33,3.97-7.81c1.44-2.3,3.23-4.5,5.45-6.09
				c2.2-1.58,4.73-2.67,7.4-3.13c4.84-0.84,9.47,1.08,12.46,4.92c3.12,3.99,4.49,9.07,6.12,13.78c2.25,6.5,4.51,13,6.76,19.49
				c1.86,5.37,3.58,10.82,5.83,16.04c1.9,4.41,4.31,8.67,7.69,12.12c3.74,3.82,8.53,6.22,13.7,7.47c5.08,1.23,10.32,1.1,15.51,1.1
				c10.12,0.01,20.24,0.06,30.36,0.14c3.18,0.02,6.37,0.05,9.55,0.08c1.93,0.02,1.93-2.98,0-3c-11.29-0.1-22.58-0.18-33.88-0.21
				c-4.61-0.01-9.25,0.13-13.86-0.09c-5.32-0.25-10.77-1.44-15.3-4.35c-8.39-5.39-11.64-15.48-14.74-24.41
				c-2.27-6.54-4.54-13.09-6.81-19.63c-1.14-3.29-2.28-6.59-3.43-9.88c-0.78-2.24-1.62-4.47-2.7-6.58
				c-2.24-4.38-5.7-8.14-10.53-9.56c-5.51-1.61-11.71,0.08-16.18,3.51c-4.79,3.67-7.49,9.08-9.9,14.46
				c-2.72,6.06-5.14,12.26-7.24,18.56c-3.54,10.63-6.19,21.57-7.93,32.64c-1.2,7.67-2.01,15.41-2.25,23.17
				c-0.07,2.1-0.09,4.19-0.05,6.29c0.02,0.93,0.08,1.86,0.03,2.79c-0.55,10.76-0.77,21.53-0.67,32.3c0.03,3.23,0.09,6.46,0.17,9.68
				C124.67,184.02,127.67,184.03,127.61,182.09L127.61,182.09z"/>
		</g>
	</g>
	<g>
		<g>
			<path class="st1" d="M118.32,179.38c1.38,1.61,2.76,3.22,4.15,4.82c0.63,0.73,1.23,1.64,2.08,2.12c1.06,0.6,2.22,0.25,3.03-0.57
				c1.1-1.11,1.92-2.49,2.84-3.75c0.72-0.99,1.71-2.06,2.78-2.44c0.76-0.27,1.27-1.02,1.05-1.85c-0.2-0.74-1.08-1.32-1.85-1.05
				c-2.95,1.05-4.37,3.7-6.17,6.06c-0.09,0.12-0.31,0.39-0.48,0.58c-0.06,0.07-0.35,0.3-0.37,0.4c-0.03,0.22,0.57-0.16,0.69,0.07
				c-0.06-0.11-0.29-0.29-0.37-0.39c-0.16-0.18-0.32-0.37-0.48-0.56c-0.32-0.37-0.64-0.74-0.96-1.11c-1.28-1.48-2.55-2.97-3.83-4.45
				c-0.53-0.61-1.58-0.54-2.12,0C117.71,177.87,117.79,178.76,118.32,179.38L118.32,179.38z"/>
		</g>
	</g>
	<g>
		<g>
			<path class="st1" d="M262.94,108.79c1.85,1.25,3.69,2.49,5.54,3.74c0.92,0.62,1.85,1.25,2.77,1.87c0.24,0.16,0.48,0.33,0.72,0.48
				c-0.05-0.03,0.35,0.23,0.31,0.23c0.16-0.96,0.08-1.24-0.23-0.83c-0.09,0.09-0.17,0.18-0.26,0.27c-0.2,0.21-0.4,0.42-0.61,0.63
				c-1.56,1.62-3.12,3.24-4.67,4.86c-1.22,1.27-3.86,3.5-1.9,5.33c1.41,1.32,3.54-0.8,2.12-2.12c0.16,0.22,0.23,0.45,0.21,0.7
				c-0.04,0.11-0.02,0.09,0.06-0.08c-0.12,0.06,0.25-0.27,0.24-0.26c0.4-0.42,0.81-0.84,1.21-1.26c0.81-0.84,1.62-1.68,2.42-2.52
				c0.75-0.78,1.5-1.56,2.25-2.34c0.8-0.83,1.96-1.72,1.92-2.99c-0.04-1.27-1.15-1.91-2.08-2.54c-0.92-0.62-1.85-1.25-2.77-1.87
				c-1.91-1.29-3.83-2.59-5.74-3.88c-0.67-0.45-1.66-0.13-2.05,0.54C261.97,107.47,262.27,108.33,262.94,108.79L262.94,108.79z"/>
		</g>
	</g>
</g>
</svg>
