<?xml version="1.0" encoding="utf-8"?>
<!-- Generator: Adobe Illustrator 23.1.1, SVG Export Plug-In . SVG Version: 6.00 Build 0)  -->
<svg version="1.1" id="Layer_1" xmlns="http://www.w3.org/2000/svg" xmlns:xlink="http://www.w3.org/1999/xlink" x="0px" y="0px"
	 viewBox="0 0 432 288" style="enable-background:new 0 0 432 288;" xml:space="preserve">
<style type="text/css">
	.st0{fill:#A7A9AC;}
	.st1{fill:#ED1C24;}
</style>
<g>
	<g>
		<g>
			<path class="st0" d="M368.85,152.04c1.7-2.18,3.38-4.37,5.03-6.59c0.49-0.66,0.97-1.31,1.44-1.98c0.42-0.6,0.89-1.18,1.01-1.92
				c0.26-1.56-1-2.83-2.07-3.77c-2.13-1.86-4.55-3.44-7-4.85c-1.12-0.64-2.13,1.09-1.01,1.73c2.01,1.15,3.96,2.43,5.78,3.86
				c0.7,0.56,1.44,1.14,1.99,1.85c0.03,0.04,0.09,0.12,0.16,0.23c0.03,0.05,0.17,0.32,0.14,0.24c-0.04-0.09,0.05,0.18,0.06,0.22
				c-0.03-0.13,0.04-0.02,0,0.13c-0.13,0.44-0.56,0.94-0.85,1.34c-0.42,0.59-0.85,1.18-1.29,1.77c-0.98,1.32-1.97,2.62-2.97,3.93
				c-0.65,0.85-1.17,1.52-1.84,2.37c-0.33,0.43-0.41,1,0,1.41C367.78,152.39,368.51,152.47,368.85,152.04L368.85,152.04z"/>
		</g>
	</g>
	<g>
		<g>
			<path class="st0" d="M71.74,129.89c-1.74,0.72-3.44,1.53-5.07,2.47c-0.84,0.49-1.67,1-2.48,1.55c-0.68,0.46-1.67,0.96-2.11,1.68
				c-0.57,0.94,0.07,1.73,0.74,2.37c0.72,0.68,1.44,1.36,2.17,2.03c1.49,1.36,3.01,2.69,4.56,3.98c0.98,0.82,2.4-0.59,1.41-1.41
				c-1.28-1.07-2.53-2.15-3.77-3.26c-0.59-0.53-1.17-1.06-1.75-1.6c-0.32-0.3-0.64-0.59-0.95-0.89c-0.26-0.25-0.61-0.49-0.76-0.82
				c0.05,0.17,0.09,0.34,0.14,0.5c-0.09,0.15-0.09,0.18,0,0.11c0.08-0.06,0.16-0.11,0.23-0.17c0.18-0.13,0.36-0.26,0.55-0.39
				c0.31-0.22,0.62-0.43,0.93-0.63c0.72-0.48,1.45-0.93,2.2-1.36c1.45-0.83,2.95-1.57,4.5-2.21c0.5-0.21,0.85-0.66,0.7-1.23
				C72.84,130.12,72.24,129.69,71.74,129.89L71.74,129.89z"/>
		</g>
	</g>
	<g>
		<g>
			<path class="st0" d="M63.99,137.62c23.35,2.98,46.99,2.46,70.48,2.47c19.94,0.01,39.88,0.05,59.83,0.07
				c19.31,0.02,38.63,0.01,57.94-0.06c16.52-0.06,33.05-0.08,49.57,0.06c20.95,0.18,41.89,0.56,62.83,1.13
				c2.95,0.08,5.91,0.16,8.86,0.25c1.29,0.04,1.29-1.96,0-2c-21.65-0.64-43.31-1.09-64.97-1.32c-16.1-0.17-32.2-0.23-48.3-0.16
				c-19.68,0.08-39.36,0.11-59.04,0.1c-19.58-0.01-39.16-0.06-58.74-0.07c-23.26-0.02-46.67,0.62-69.86-1.53
				c-2.87-0.27-5.74-0.58-8.59-0.95C62.72,135.46,62.73,137.46,63.99,137.62L63.99,137.62z"/>
		</g>
	</g>
</g>
<g>
	<g>
		<g>
			<path class="st0" d="M214.08,23.03c2.07-3.39,4.17-6.76,6.18-10.18c0.11-0.19,0.22-0.37,0.33-0.56c0.07-0.12,0.38-0.49,0.37-0.59
				c-0.02-0.23,0.08,0.15-0.09-0.03c-0.21-0.22-0.03,0.1-0.04,0.03c0,0.05,0.26,0.29,0.31,0.36c0.15,0.2,0.28,0.42,0.42,0.62
				c0.83,1.24,1.65,2.48,2.48,3.73c1.5,2.26,3,4.53,4.5,6.79c0.71,1.07,2.44,0.07,1.73-1.01c-2.35-3.56-4.71-7.12-7.08-10.67
				c-0.46-0.69-0.94-1.48-1.77-1.75c-1.12-0.37-1.96,0.48-2.48,1.37c-0.69,1.21-1.41,2.39-2.14,3.58c-1.48,2.44-2.97,4.87-4.46,7.3
				C211.68,23.12,213.41,24.13,214.08,23.03L214.08,23.03z"/>
		</g>
	</g>
	<g>
		<g>
			<path class="st0" d="M211.91,257.47c1.76,3.95,3.9,7.72,6.42,11.24c0.61,0.85,1.2,1.83,1.95,2.56c0.84,0.83,1.97,0.61,2.7-0.23
				c1.46-1.71,2.79-3.55,4.14-5.35c1.57-2.1,3.1-4.23,4.59-6.38c0.73-1.06-1-2.06-1.73-1.01c-2.32,3.36-4.73,6.65-7.25,9.86
				c-0.29,0.37-0.59,0.75-0.88,1.12c-0.09,0.11-0.38,0.35-0.4,0.49c-0.02,0.02-0.04,0.05-0.06,0.07c0.11,0.01,0.21,0.02,0.32,0.03
				c0.01-0.01-0.23-0.27-0.26-0.29c-0.6-0.74-1.16-1.54-1.71-2.32c-1.1-1.57-2.12-3.18-3.08-4.84c-1.11-1.93-2.11-3.91-3.01-5.94
				c-0.22-0.49-0.94-0.61-1.37-0.36C211.76,256.4,211.69,256.98,211.91,257.47L211.91,257.47z"/>
		</g>
	</g>
	<g>
		<g>
			<path class="st0" d="M220.09,11.69c-1.13,33.78-1.77,67.58-1.91,101.38c-0.14,33.62,0.21,67.25,1.05,100.86
				c0.47,18.96,1.11,37.92,1.89,56.88c0.05,1.28,2.05,1.29,2,0c-1.4-33.77-2.31-67.56-2.72-101.35
				c-0.41-33.62-0.32-67.25,0.25-100.86c0.32-18.97,0.81-37.93,1.44-56.89C222.13,10.4,220.13,10.41,220.09,11.69L220.09,11.69z"/>
		</g>
	</g>
</g>
<g>
	<g>
		<g>
			<path d="M348.92,22.39c-2.25,2.25-4.51,4.5-6.76,6.75c-0.46,0.46,0.25,1.16,0.71,0.71c2.25-2.25,4.51-4.5,6.76-6.75
				C350.09,22.64,349.38,21.94,348.92,22.39L348.92,22.39z"/>
		</g>
	</g>
	<g>
		<g>
			<path d="M318.55,50.58c-2.42,2.97-5.17,5.66-8.22,7.98c-0.51,0.38-0.01,1.25,0.5,0.86c3.12-2.37,5.95-5.09,8.43-8.13
				C319.66,50.8,318.96,50.08,318.55,50.58L318.55,50.58z"/>
		</g>
	</g>
	<g>
		<g>
			<path d="M284.03,80.25c-2.5,2.57-4.99,5.13-7.49,7.7c-0.45,0.46,0.26,1.17,0.71,0.71c2.5-2.57,4.99-5.13,7.49-7.7
				C285.18,80.49,284.48,79.78,284.03,80.25L284.03,80.25z"/>
		</g>
	</g>
	<g>
		<g>
			<path d="M263.36,102.11c-2.42,2.45-5.08,4.65-7.93,6.58c-0.53,0.36-0.03,1.23,0.5,0.86c2.92-1.98,5.65-4.23,8.13-6.74
				C264.52,102.36,263.82,101.65,263.36,102.11L263.36,102.11z"/>
		</g>
	</g>
	<g>
		<g>
			<path d="M249.51,114.15c-2.89,2.75-5.78,5.49-8.67,8.24c-0.47,0.44,0.24,1.15,0.71,0.71c2.89-2.75,5.78-5.49,8.67-8.24
				C250.68,114.41,249.97,113.71,249.51,114.15L249.51,114.15z"/>
		</g>
	</g>
	<g>
		<g>
			<path d="M237.28,124.85c-2.46,1.82-4.51,4.13-6,6.8c-0.31,0.56,0.55,1.07,0.86,0.5c1.41-2.51,3.33-4.73,5.65-6.44
				c0.22-0.16,0.32-0.43,0.18-0.68C237.84,124.81,237.5,124.69,237.28,124.85L237.28,124.85z"/>
		</g>
	</g>
	<g>
		<g>
			<path d="M225.79,134.33c-5.22,4.13-10.18,8.59-14.84,13.35c-0.45,0.46,0.26,1.17,0.71,0.71c4.66-4.75,9.62-9.21,14.84-13.35
				C227,134.64,226.29,133.94,225.79,134.33L225.79,134.33z"/>
		</g>
	</g>
	<g>
		<g>
			<path d="M205.71,154.48c-3.74,3.48-7.48,6.95-11.22,10.43c-0.47,0.44,0.24,1.15,0.71,0.71c3.74-3.48,7.48-6.95,11.22-10.43
				C206.89,154.74,206.19,154.04,205.71,154.48L205.71,154.48z"/>
		</g>
	</g>
	<g>
		<g>
			<path d="M190.31,168.09c-1.68,2.29-4.04,4.06-6.71,5.03c-0.6,0.22-0.34,1.18,0.27,0.96c2.93-1.06,5.47-2.97,7.31-5.49
				C191.55,168.07,190.68,167.57,190.31,168.09L190.31,168.09z"/>
		</g>
	</g>
	<g>
		<g>
			<path d="M175.78,180.05c-2.94,2.34-5.88,4.67-8.81,7.01c-0.5,0.4,0.21,1.1,0.71,0.71c2.94-2.34,5.88-4.67,8.81-7.01
				C177,180.35,176.28,179.65,175.78,180.05L175.78,180.05z"/>
		</g>
	</g>
	<g>
		<g>
			<path d="M148.9,205.14c-3.36,3.26-7.47,5.66-11.96,7c-0.62,0.18-0.35,1.15,0.27,0.96c4.65-1.39,8.91-3.88,12.4-7.25
				C150.08,205.39,149.37,204.69,148.9,205.14L148.9,205.14z"/>
		</g>
	</g>
	<g>
		<g>
			<path d="M130.91,217.59c-4.03,2.77-8.07,5.54-12.1,8.31c-0.53,0.36-0.03,1.23,0.5,0.86c4.03-2.77,8.07-5.54,12.1-8.31
				C131.94,218.09,131.44,217.22,130.91,217.59L130.91,217.59z"/>
		</g>
	</g>
	<g>
		<g>
			<path d="M112.01,233.8c-2.66,2.21-5.33,4.42-7.99,6.63c-0.5,0.41,0.22,1.12,0.71,0.71c2.66-2.21,5.33-4.42,7.99-6.63
				C113.22,234.09,112.51,233.39,112.01,233.8L112.01,233.8z"/>
		</g>
	</g>
	<g>
		<g>
			<path d="M96.6,247.51c-2.97,0.21-5.83,1.65-7.56,4.11c-0.37,0.53,0.5,1.03,0.86,0.5c1.51-2.15,4.11-3.42,6.7-3.61
				C97.24,248.47,97.25,247.47,96.6,247.51L96.6,247.51z"/>
		</g>
	</g>
	<g>
		<g>
			<path d="M86.09,257.41c-2.41,2.76-4.82,5.51-7.24,8.27c-0.42,0.48,0.28,1.19,0.71,0.71c2.41-2.76,4.82-5.51,7.24-8.27
				C87.21,257.64,86.51,256.93,86.09,257.41L86.09,257.41z"/>
		</g>
	</g>
	<g>
		<g>
			<path d="M154.15,202.38c1.87-2.26,3.74-4.51,5.61-6.77c0.41-0.49-0.3-1.2-0.71-0.71c-1.87,2.26-3.74,4.51-5.61,6.77
				C153.04,202.16,153.74,202.87,154.15,202.38L154.15,202.38z"/>
		</g>
	</g>
	<g>
		<g>
			<path d="M298.28,70.91c1.89-3.15,4.5-5.83,7.6-7.81c0.54-0.35,0.04-1.21-0.5-0.86c-3.24,2.07-5.97,4.87-7.96,8.17
				C297.09,70.96,297.95,71.46,298.28,70.91L298.28,70.91z"/>
		</g>
	</g>
	<g>
		<g>
			<path d="M338.48,33.04c-2.42,2.97-5.17,5.66-8.22,7.98c-0.51,0.38-0.01,1.25,0.5,0.86c3.12-2.37,5.95-5.09,8.43-8.13
				C339.58,33.25,338.88,32.54,338.48,33.04L338.48,33.04z"/>
		</g>
	</g>
	<g>
		<g>
			<path d="M288.51,77.62c1.76-1.25,3.52-2.5,5.28-3.76c0.22-0.16,0.32-0.44,0.18-0.68c-0.13-0.22-0.46-0.34-0.68-0.18
				c-1.76,1.25-3.52,2.5-5.28,3.76c-0.22,0.16-0.32,0.44-0.18,0.68C287.96,77.66,288.29,77.78,288.51,77.62L288.51,77.62z"/>
		</g>
	</g>
	<g>
		<g>
			<path d="M322.74,48.39c0.78-1.57,2.17-2.81,3.82-3.38c0.26-0.09,0.42-0.34,0.35-0.62c-0.07-0.25-0.36-0.44-0.62-0.35
				c-1.9,0.65-3.52,2.03-4.42,3.84c-0.12,0.24-0.06,0.54,0.18,0.68C322.28,48.7,322.62,48.63,322.74,48.39L322.74,48.39z"/>
		</g>
	</g>
	<g>
		<g>
			<path d="M267.05,99.67c1.32-2.04,2.94-3.87,4.79-5.44c0.21-0.17,0.18-0.53,0-0.71c-0.2-0.2-0.5-0.18-0.71,0
				c-1.92,1.62-3.58,3.53-4.95,5.64C265.84,99.71,266.7,100.21,267.05,99.67L267.05,99.67z"/>
		</g>
	</g>
	<g>
		<g>
			<path d="M358.49,12.27c-2.25,2.25-4.51,4.5-6.76,6.75c-0.46,0.46,0.25,1.16,0.71,0.71c2.25-2.25,4.51-4.5,6.76-6.75
				C359.66,12.52,358.95,11.81,358.49,12.27L358.49,12.27z"/>
		</g>
	</g>
</g>
<g>
	<g>
		<g>
			<path d="M256.31,13c0,3,0,6.01,0,9.01c0,0.64,1,0.64,1,0c0-3,0-6.01,0-9.01C257.31,12.35,256.31,12.35,256.31,13L256.31,13z"/>
		</g>
	</g>
	<g>
		<g>
			<path d="M258.71,32.03c-0.48,3.36-0.97,6.73-1.45,10.09c-0.09,0.63,0.87,0.9,0.96,0.27c0.48-3.36,0.97-6.73,1.45-10.09
				C259.76,31.66,258.8,31.39,258.71,32.03L258.71,32.03z"/>
		</g>
	</g>
	<g>
		<g>
			<path d="M258.81,49.2c1.27,2.69,1.13,5.93-0.33,8.51c-0.32,0.56,0.55,1.07,0.86,0.5c1.64-2.92,1.75-6.5,0.33-9.52
				C259.4,48.11,258.54,48.62,258.81,49.2L258.81,49.2z"/>
		</g>
	</g>
	<g>
		<g>
			<path d="M258.56,64.8c0,3,0,6.01,0,9.01c0,0.64,1,0.64,1,0c0-3,0-6.01,0-9.01C259.56,64.16,258.56,64.16,258.56,64.8L258.56,64.8
				z"/>
		</g>
	</g>
	<g>
		<g>
			<path d="M258.4,83.65c-1.58,3.25-2.35,6.83-2.22,10.44c0.02,0.64,1.02,0.64,1,0c-0.12-3.43,0.59-6.84,2.09-9.93
				C259.54,83.57,258.68,83.07,258.4,83.65L258.4,83.65z"/>
		</g>
	</g>
	<g>
		<g>
			<path d="M257.31,101.12c0,3.83,0,7.65,0,11.48c0,0.64,1,0.64,1,0c0-3.83,0-7.65,0-11.48
				C258.31,100.48,257.31,100.48,257.31,101.12L257.31,101.12z"/>
		</g>
	</g>
	<g>
		<g>
			<path d="M259.16,116.44c-0.77,3.37-1.54,6.75-2.32,10.12c-0.14,0.63,0.82,0.89,0.96,0.27c0.77-3.37,1.54-6.75,2.32-10.12
				C260.27,116.08,259.3,115.81,259.16,116.44L259.16,116.44z"/>
		</g>
	</g>
	<g>
		<g>
			<path d="M257.05,134.63c0,3.26,0,6.52,0,9.79c0,0.64,1,0.64,1,0c0-3.26,0-6.52,0-9.79C258.05,133.99,257.05,133.98,257.05,134.63
				L257.05,134.63z"/>
		</g>
	</g>
	<g>
		<g>
			<path d="M257.05,149.27c0,3,0,6.01,0,9.01c0,0.64,1,0.64,1,0c0-3,0-6.01,0-9.01C258.05,148.63,257.05,148.63,257.05,149.27
				L257.05,149.27z"/>
		</g>
	</g>
	<g>
		<g>
			<path d="M257.84,168.24c-0.37,1.88-0.75,3.76-1.12,5.63c-0.12,0.63,0.84,0.9,0.96,0.27c0.37-1.88,0.75-3.76,1.12-5.63
				C258.93,167.88,257.97,167.61,257.84,168.24L257.84,168.24z"/>
		</g>
	</g>
	<g>
		<g>
			<path d="M258.87,181.91c-0.4,1.87-0.81,3.74-1.21,5.61c-0.14,0.63,0.83,0.9,0.96,0.27c0.4-1.87,0.81-3.74,1.21-5.61
				C259.97,181.55,259.01,181.28,258.87,181.91L258.87,181.91z"/>
		</g>
	</g>
	<g>
		<g>
			<path d="M257.8,196.7c0,2.63,0,5.26,0,7.88c0,0.64,1,0.64,1,0c0-2.63,0-5.26,0-7.88C258.8,196.06,257.8,196.05,257.8,196.7
				L257.8,196.7z"/>
		</g>
	</g>
	<g>
		<g>
			<path d="M257.73,210.37c0.59,2.53,0.3,5.22-0.83,7.56c-0.28,0.58,0.58,1.08,0.86,0.5c1.25-2.59,1.59-5.52,0.93-8.33
				C258.55,209.47,257.59,209.74,257.73,210.37L257.73,210.37z"/>
		</g>
	</g>
	<g>
		<g>
			<path d="M256.67,225.98c0,2.63,0,5.26,0,7.88c0,0.64,1,0.64,1,0c0-2.63,0-5.26,0-7.88C257.67,225.34,256.67,225.34,256.67,225.98
				L256.67,225.98z"/>
		</g>
	</g>
	<g>
		<g>
			<path d="M256.67,239.5c0,3,0,6.01,0,9.01c0,0.64,1,0.64,1,0c0-3,0-6.01,0-9.01C257.67,238.85,256.67,238.85,256.67,239.5
				L256.67,239.5z"/>
		</g>
	</g>
	<g>
		<g>
			<path d="M256.44,256.17c-0.38,1.13-0.75,2.25-1.13,3.38c-0.09,0.26,0.1,0.55,0.35,0.62c0.27,0.07,0.53-0.09,0.62-0.35
				c0.38-1.13,0.75-2.25,1.13-3.38c0.09-0.26-0.1-0.55-0.35-0.62C256.78,255.75,256.52,255.91,256.44,256.17L256.44,256.17z"/>
		</g>
	</g>
	<g>
		<g>
			<path d="M255.49,264.76c-0.4,2.25-0.8,4.5-1.21,6.74c-0.11,0.63,0.85,0.9,0.96,0.27c0.4-2.25,0.8-4.5,1.21-6.74
				C256.57,264.39,255.61,264.12,255.49,264.76L255.49,264.76z"/>
		</g>
	</g>
</g>
<g>
	<g>
		<path class="st1" d="M217.23,138.08c-0.09-0.46,0.1-1.1,0.44-1.52c0.44-0.54,0.98-0.89,1.67-0.97c-0.14,0.02,0.1,0,0.13,0
			c0.09,0,0.19,0,0.28,0.01c-0.12-0.01,0.06,0.01,0.07,0.01c0.1,0.02,0.2,0.05,0.3,0.08c0.02,0.01,0.18,0.06,0.05,0.01
			c0.08,0.03,0.16,0.07,0.23,0.11c0.08,0.04,0.15,0.09,0.22,0.13c0.26,0.16-0.11-0.11,0.13,0.09c0.13,0.11,0.25,0.23,0.37,0.36
			c0.07,0.07,0.11,0.13,0.22,0.3c0.22,0.34,0.27,0.46,0.37,0.81c0.11,0.39,0.12,0.45,0.12,0.82c0,0.35-0.02,0.52-0.17,0.91
			c0.04-0.12-0.02,0.05-0.03,0.06c-0.05,0.1-0.1,0.19-0.16,0.29c-0.04,0.06-0.08,0.12-0.12,0.18c-0.2,0.28,0.05-0.05-0.08,0.1
			c-0.26,0.31-0.45,0.47-0.75,0.66c-0.56,0.35-1.17,0.54-1.8,0.55c-0.53,0.01-1.38-0.05-1.79-0.59c-0.11-0.15-0.12-0.27-0.1-0.49
			c-0.01,0.18,0.03-0.16,0.03-0.16c0.02-0.07,0.04-0.15,0.07-0.22c0.05-0.14,0.16-0.33,0.27-0.51c0.38-0.62,1.01-1.22,1.53-1.6
			c0.62-0.44,1.23-0.79,1.94-0.95c0.43-0.09,0.89-0.07,1.11,0.38c0.27,0.54,0,1.37-0.25,2.03c-0.24,0.65-0.6,1.35-1.05,1.97
			c-0.18,0.25-0.44,0.54-0.71,0.77c-0.09,0.08-0.17,0.14-0.33,0.23c-0.18,0.11-0.12,0.09-0.33,0.15c-0.02,0.01-0.33,0.05-0.13,0.04
			c-0.07,0.01-0.13,0.01-0.2,0c-0.3-0.01,0.08,0.03-0.09-0.01c-0.09-0.02-0.18-0.04-0.26-0.08c-0.16-0.07-0.43-0.34-0.57-0.55
			c-0.43-0.66-0.57-1.47-0.31-2.17c0.1-0.27,0.31-0.53,0.51-0.64c0.06-0.03,0.12-0.07,0.18-0.09c-0.15,0.07,0.11-0.03,0.14-0.04
			c0.01,0,0.33-0.06,0.13-0.04c0.1-0.01,0.2,0,0.3-0.01c0.17-0.01,0.1,0,0.03-0.01c0.11,0.01,0.23,0.05,0.33,0.08
			c0.16,0.05-0.18-0.11,0.07,0.03c0.02,0.01,0.24,0.17,0.11,0.06c-0.01-0.01,0.19,0.21,0.12,0.11c-0.09-0.11,0.17,0.24,0.07,0.12
			c-0.07-0.09,0.03,0.2,0-0.02c0.01,0.09,0.01,0.2,0,0.28c0.03-0.19-0.01,0.02-0.03,0.06c-0.02,0.07-0.02,0.06,0.02-0.01
			c-0.03,0.06-0.06,0.12-0.09,0.17c-0.11,0.19-0.05,0.1-0.2,0.25c-0.22,0.2,0.15-0.1-0.1,0.06c-0.03,0.01-0.05,0.03-0.08,0.04
			c0.1-0.04,0.1-0.04-0.01-0.01c0.06,0.11,0.12-0.09,0,0c-0.12-0.01-0.12,0-0.01,0c-0.06-0.02-0.12-0.04-0.18-0.06
			c0.2,0.15,0.4,0.31,0.6,0.46c-0.26-0.39-0.24-0.77,0.13-1.1c-0.4,0.05-0.81,0.1-1.21,0.16c0.55,0.3,0.91,0.81,0.94,1.37
			c0.5-0.29,1-0.58,1.5-0.86c-0.48-0.26-0.78-0.62-1-1.12c-0.22-0.5-0.94-0.61-1.37-0.36c-0.51,0.3-0.57,0.87-0.36,1.37
			c0.34,0.78,0.97,1.43,1.71,1.84c0.62,0.34,1.56-0.07,1.5-0.86c-0.09-1.3-0.78-2.47-1.93-3.1c-0.41-0.22-0.87-0.15-1.21,0.16
			c-0.96,0.87-1.18,2.45-0.44,3.53c0.41,0.59,1.28,0.7,1.93,0.49c0.58-0.18,1.05-0.58,1.4-1.07c0.71-1,0.65-2.41-0.25-3.27
			c-0.83-0.79-2.15-0.99-3.21-0.59c-2.65,1.01-2.72,4.57-0.98,6.45c0.93,1,2.32,1.24,3.54,0.68c1.06-0.49,1.86-1.5,2.44-2.48
			c1.15-1.96,2.31-5.54-0.56-6.63c-1.13-0.43-2.4-0.02-3.41,0.51c-1.05,0.55-2,1.34-2.73,2.27c-0.79,1.01-1.42,2.35-0.89,3.63
			c0.53,1.28,1.9,1.84,3.2,1.95c2.29,0.2,4.7-1.2,5.41-3.43c0.67-2.1-0.42-4.72-2.44-5.64c-2.32-1.06-5.11,0.36-5.83,2.78
			c-0.18,0.61-0.18,1.23-0.05,1.85c0.11,0.53,0.74,0.83,1.23,0.7C217.09,139.15,217.34,138.61,217.23,138.08L217.23,138.08z"/>
	</g>
</g>
<g>
	<g>
		<path class="st1" d="M184.58,138.61c0.18-0.96,0.97-1.62,1.87-1.62c-0.24-0.1-0.47-0.2-0.71-0.29c0.08,0.07,0.15,0.15,0.22,0.22
			c0.02,0.02,0.13,0.16,0.06,0.07c-0.07-0.09,0.02,0.03,0.03,0.04c0.05,0.09,0.11,0.17,0.16,0.26c0.03,0.05,0.05,0.1,0.08,0.15
			c0.01,0.02,0.08,0.18,0.04,0.08c-0.04-0.09,0.05,0.16,0.07,0.2c0.03,0.1,0.06,0.19,0.08,0.29c0.02,0.07,0.06,0.32,0.03,0.12
			c0.02,0.13,0.02,0.26,0.03,0.39c0.01,0.21-0.01,0.41-0.03,0.62c-0.01,0.12,0-0.03,0.01-0.05c-0.01,0.06-0.02,0.12-0.03,0.17
			c-0.02,0.12-0.05,0.23-0.08,0.34c-0.03,0.1-0.06,0.2-0.1,0.29c-0.01,0.04-0.03,0.08-0.05,0.12c0.07-0.17,0.01-0.03,0,0
			c-0.1,0.2-0.2,0.39-0.32,0.57c-0.03,0.05-0.2,0.25-0.08,0.11c-0.07,0.08-0.13,0.15-0.2,0.23c-0.07,0.07-0.15,0.14-0.22,0.21
			c-0.03,0.03-0.15,0.12,0,0.01c-0.05,0.03-0.09,0.07-0.14,0.1c-0.08,0.06-0.17,0.11-0.26,0.16c-0.05,0.03-0.29,0.13-0.12,0.06
			c-0.1,0.04-0.2,0.07-0.3,0.1c-0.07,0.02-0.13,0.03-0.2,0.05c-0.03,0.01-0.25,0.03-0.09,0.02c-0.1,0.01-0.2,0.01-0.3,0.01
			c-0.04,0-0.4-0.02-0.24,0c-0.25-0.03-0.49-0.11-0.73-0.19c-0.11-0.04-0.02,0,0,0.01c-0.06-0.03-0.12-0.06-0.18-0.09
			c-0.11-0.05-0.21-0.11-0.31-0.17c-0.1-0.06-0.2-0.13-0.3-0.2c0.08,0.06-0.15-0.13-0.2-0.17c-0.09-0.08-0.17-0.17-0.26-0.26
			c-0.03-0.03-0.23-0.26-0.14-0.15c-0.16-0.2-0.29-0.43-0.41-0.65c-0.01-0.02-0.1-0.21-0.06-0.11c0.04,0.08-0.03-0.07-0.03-0.07
			c-0.04-0.11-0.08-0.22-0.11-0.34c-0.03-0.11-0.06-0.23-0.07-0.34c0.02,0.17-0.01-0.18-0.01-0.24c0-0.05,0.01-0.32,0.01-0.27
			c0,0.04,0.04-0.21,0.06-0.27c0.02-0.1,0.05-0.19,0.09-0.28c0.01-0.03,0.08-0.19,0.03-0.07c-0.06,0.13,0.05-0.1,0.05-0.1
			c0.04-0.08,0.09-0.16,0.14-0.24c0.03-0.05,0.2-0.25,0.06-0.09c0.13-0.15,0.27-0.29,0.42-0.43c0.17-0.15-0.06,0.02,0.09-0.07
			c0.08-0.05,0.16-0.11,0.24-0.15c0.08-0.05,0.17-0.09,0.25-0.14c0.06-0.03,0.33-0.14,0.14-0.07c0.18-0.07,0.36-0.13,0.55-0.18
			c0.09-0.02,0.19-0.05,0.28-0.06c0.04-0.01,0.08-0.01,0.12-0.02c0.26-0.05-0.13,0.01,0.02,0c0.19-0.02,0.39-0.03,0.58-0.02
			c0.1,0,0.19,0.01,0.29,0.01c0.06,0,0.11,0.01,0.16,0.02c-0.09-0.01-0.13-0.02-0.02,0c0.19,0.04,0.37,0.08,0.56,0.14
			c0.05,0.02,0.35,0.14,0.14,0.04c0.1,0.04,0.19,0.09,0.29,0.14c0.08,0.05,0.16,0.1,0.24,0.15c0.19,0.12-0.04-0.05,0.09,0.06
			c0.07,0.06,0.14,0.13,0.21,0.19c0.03,0.03,0.06,0.06,0.08,0.09c0.02,0.02,0.16,0.19,0.08,0.09c-0.06-0.08,0.08,0.13,0.11,0.17
			c0.06,0.09,0.11,0.19,0.16,0.29c0.05,0.1,0-0.01-0.01-0.02c0.02,0.06,0.04,0.12,0.06,0.17c0.04,0.12,0.07,0.24,0.09,0.36
			c0.01,0.06,0.02,0.12,0.03,0.18c0-0.02-0.02-0.16-0.01-0.04c0.01,0.11,0.01,0.21,0.01,0.32c0,0.11-0.01,0.21-0.02,0.32
			c-0.01,0.16,0.03-0.15,0,0.01c-0.01,0.06-0.02,0.12-0.03,0.18c-0.05,0.21-0.11,0.42-0.18,0.63c-0.01,0.02-0.08,0.2-0.04,0.1
			c0.04-0.09-0.02,0.05-0.03,0.05c-0.06,0.11-0.11,0.23-0.18,0.33c-0.06,0.11-0.13,0.22-0.2,0.32c-0.03,0.04-0.05,0.08-0.08,0.12
			c-0.1,0.13,0.09-0.1-0.02,0.02c-0.15,0.18-0.31,0.35-0.49,0.51c-0.04,0.03-0.07,0.06-0.11,0.09c-0.12,0.11,0.11-0.08-0.02,0.02
			c-0.09,0.06-0.18,0.13-0.27,0.18c-0.09,0.06-0.19,0.11-0.28,0.16c-0.04,0.02-0.08,0.04-0.12,0.06c-0.25,0.13,0.09-0.03-0.06,0.02
			c-0.2,0.07-0.41,0.13-0.62,0.17c-0.12,0.02,0.02,0,0.04,0c-0.06,0.01-0.12,0.01-0.18,0.01c-0.13,0.01-0.25,0-0.37,0
			c-0.03,0-0.19-0.02-0.02,0c-0.06-0.01-0.12-0.02-0.19-0.04c-0.14-0.03-0.29-0.07-0.43-0.12c-0.21-0.08-0.41-0.21-0.56-0.4
			c0.08,0.1-0.06-0.1-0.08-0.13c-0.09-0.14-0.05-0.09-0.03-0.04c-0.03-0.06-0.05-0.13-0.06-0.19c-0.01-0.04-0.06-0.28-0.04-0.14
			c-0.02-0.15-0.02-0.31-0.01-0.47c0-0.05,0.01-0.11,0.01-0.16c-0.01,0.06-0.03,0.13,0.02-0.05c0.03-0.12,0.06-0.24,0.1-0.36
			c0.04-0.11,0.01-0.03,0-0.01c0.03-0.06,0.06-0.13,0.09-0.19c0.03-0.05,0.2-0.32,0.14-0.24c0.62-0.82,1.75-1.18,2.69-1.31
			c0.28-0.04,0.57-0.06,0.86-0.05c0.23,0,0.47,0.03,0.66,0.14c0.31,0.2,0.39,0.62,0.36,1.03c-0.02,0.27-0.24,0.73-0.49,0.99
			c-0.34,0.36-0.64,0.52-1.1,0.63c-0.17,0.04,0.12-0.01-0.06,0.01c-0.05,0.01-0.11,0.01-0.16,0.01c-0.07,0-0.15,0-0.22-0.01
			c0.02,0,0.12,0.02,0,0c-0.12-0.02-0.23-0.06-0.35-0.09c-0.02-0.01-0.17-0.07-0.04-0.01c-0.06-0.03-0.12-0.06-0.18-0.09
			c-0.04-0.02-0.3-0.21-0.22-0.14c-0.08-0.06-0.15-0.14-0.23-0.21c-0.05-0.05-0.09-0.1-0.14-0.15c0.03,0.03,0.09,0.13-0.03-0.04
			c-0.08-0.11-0.15-0.23-0.21-0.35c-0.05-0.09-0.12-0.3-0.17-0.53c0,0-0.03-0.17-0.01-0.07c0.01,0.11,0-0.1-0.01-0.12
			c0-0.05,0-0.1,0-0.15c0-0.02,0.02-0.28,0.01-0.17c0.05-0.34,0.25-0.74,0.62-1.01c0.24-0.17,0.58-0.23,0.82-0.13
			c0.14,0.06,0.29,0.17,0.35,0.25c0.07,0.09,0.16,0.26,0.11,0.35c0.09-0.15-0.01,0-0.02,0.02c0.02-0.03,0.07-0.16-0.02,0.03
			c-0.07,0.14,0.03-0.01-0.08,0.11c-0.12,0.13-0.07,0.06-0.02,0.03c-0.05,0.04-0.11,0.07-0.17,0.1c0.02-0.01,0.12-0.06,0.02-0.01
			c-0.03,0.01-0.06,0.02-0.09,0.03c-0.07,0.02-0.06,0.02,0.03,0c-0.05,0.04-0.12-0.06-0.05,0.01c0.08,0.07-0.05-0.09-0.02-0.01
			c0.01,0.03,0.01,0.01-0.04-0.03c0.21,0.16,0.04,0.01,0.03,0c0.01,0,0.11,0.14,0.05,0.05c-0.04-0.07-0.03,0.08,0.01,0.03
			c0.01-0.01-0.03-0.1-0.03-0.11c0.02,0.24,0.01,0.04,0.01-0.01c-0.01-0.23-0.04,0.07,0.01-0.09c0.02-0.05,0.04-0.19-0.02,0.02
			c0-0.02,0.04-0.09,0.05-0.1c0.09-0.04-0.04,0.05-0.05,0.05c0.18-0.09-0.04,0.01-0.04,0.01c0.05-0.01,0.17-0.04-0.04,0
			c0.05-0.01,0.1-0.02,0.15-0.03c0.53-0.09,0.83-0.75,0.7-1.23c-0.16-0.57-0.69-0.78-1.23-0.7c-1.77,0.28-2.01,2.86-0.68,3.79
			c1.64,1.14,3.78-0.62,3.49-2.42c-0.31-1.9-2.63-2.7-4.18-1.76c-1.61,0.97-2.05,2.98-1.3,4.63c0.7,1.54,2.34,2.49,4.02,2.21
			c1.7-0.28,3.07-1.82,3.22-3.53c0.08-0.96-0.28-1.99-1.04-2.6c-0.76-0.61-1.76-0.69-2.7-0.59c-1.75,0.19-3.57,0.81-4.57,2.37
			c-0.88,1.38-0.86,3.44,0.43,4.56c1.31,1.14,3.26,1.14,4.74,0.35c2.46-1.31,3.88-4.86,2.12-7.27c-1.55-2.13-4.8-2.4-6.93-0.98
			c-1.18,0.78-1.94,2.01-1.99,3.44c-0.06,1.54,0.78,3.05,1.97,3.99c1.22,0.96,2.88,1.46,4.4,0.92c1.37-0.49,2.33-1.58,2.84-2.92
			c0.48-1.28,0.44-2.74-0.12-3.98c-0.31-0.68-0.9-1.57-1.73-1.55c-0.9,0.02-1.75,0.39-2.43,0.96c-0.63,0.53-1.1,1.31-1.26,2.12
			c-0.1,0.53,0.15,1.08,0.7,1.23C183.84,139.44,184.48,139.14,184.58,138.61L184.58,138.61z"/>
	</g>
</g>
<g>
	<g>
		<g>
			<path d="M178.77,128.46c1.45,0.08,2.91,0.17,4.36,0.25c0.27,0.02,0.5-0.24,0.5-0.5c0-0.28-0.23-0.48-0.5-0.5
				c-1.45-0.08-2.91-0.17-4.36-0.25c-0.27-0.02-0.5,0.24-0.5,0.5C178.27,128.25,178.5,128.45,178.77,128.46L178.77,128.46z"/>
		</g>
	</g>
	<g>
		<g>
			<path d="M185.08,125.68c0.43-1.12,1.22-2.05,2.23-2.69c-0.24-0.1-0.49-0.2-0.73-0.3c0.71,2.93,0.53,5.99-0.47,8.83
				c-0.22,0.61,0.75,0.87,0.96,0.27c1.06-3,1.22-6.27,0.47-9.36c-0.07-0.31-0.47-0.47-0.73-0.3c-1.25,0.79-2.16,1.92-2.69,3.29
				C183.88,126.02,184.85,126.28,185.08,125.68L185.08,125.68z"/>
		</g>
	</g>
	<g>
		<g>
			<path d="M183.13,132.07c2.31-0.12,4.61-0.24,6.92-0.36c0.64-0.03,0.64-1.03,0-1c-2.31,0.12-4.61,0.24-6.92,0.36
				C182.49,131.1,182.49,132.1,183.13,132.07L183.13,132.07z"/>
		</g>
	</g>
</g>
<g>
	<g>
		<g>
			<path d="M260.29,129.11c1.41,0.07,2.82,0.11,4.23,0.11c0.56,0,1.4,0.14,1.82-0.32c0.46-0.5-0.01-1.36-0.68-1.18
				c-0.62,0.16-0.36,1.13,0.27,0.96c0.02,0,0.04-0.01,0.05-0.01c-0.09,0-0.18,0-0.27,0c0.12-0.39,0.08-0.54-0.12-0.46
				c-0.01,0-0.02,0-0.03,0c-0.11-0.02-0.25,0-0.36,0.01c-0.23,0-0.45,0-0.68,0.01c-0.47,0-0.94,0-1.41-0.01
				c-0.94-0.01-1.88-0.05-2.82-0.1C259.64,128.08,259.64,129.08,260.29,129.11L260.29,129.11z"/>
		</g>
	</g>
	<g>
		<g>
			<path d="M262.53,125.48c-0.16,1.94-0.18,3.89-0.06,5.83c0.04,0.64,1.04,0.64,1,0c-0.13-1.94-0.11-3.89,0.06-5.83
				C263.58,124.84,262.58,124.84,262.53,125.48L262.53,125.48z"/>
		</g>
	</g>
	<g>
		<g>
			<path d="M267.42,126.18c1.95-0.05,3.23,2.06,2.2,3.75c-0.42,0.68-1.18,1.06-1.81,1.52c-0.64,0.47-1.22,1.01-1.41,1.82
				c-0.07,0.3,0.14,0.65,0.48,0.63c2.23-0.12,4.47,0.01,6.67,0.39c0.63,0.11,0.9-0.85,0.27-0.96c-2.29-0.4-4.61-0.55-6.93-0.43
				c0.16,0.21,0.32,0.42,0.48,0.63c0.2-0.86,1.07-1.29,1.73-1.76c0.85-0.59,1.55-1.3,1.79-2.34c0.51-2.2-1.21-4.31-3.47-4.25
				C266.78,125.19,266.78,126.19,267.42,126.18L267.42,126.18z"/>
		</g>
	</g>
</g>
<g>
	<g>
		<path d="M239.9,134c-0.3,3.44-0.17,6.88,0.35,10.29c0.1,0.63,1.06,0.36,0.96-0.27c-0.51-3.32-0.6-6.68-0.31-10.03
			C240.96,133.36,239.96,133.37,239.9,134L239.9,134z"/>
	</g>
</g>
<g>
	<g>
		<path d="M151.21,133.72c-0.31,3.81-0.17,7.63,0.39,11.41c0.09,0.63,1.06,0.36,0.96-0.27c-0.55-3.69-0.66-7.43-0.35-11.15
			C152.26,133.08,151.26,133.08,151.21,133.72L151.21,133.72z"/>
	</g>
</g>
<g>
	<g>
		<path d="M116.57,135.13c-0.3,2.87-0.14,5.77,0.44,8.6c0.13,0.63,1.09,0.36,0.96-0.27c-0.56-2.74-0.69-5.55-0.4-8.33
			C117.64,134.49,116.63,134.49,116.57,135.13L116.57,135.13z"/>
	</g>
</g>
<g>
	<g>
		<path d="M281.52,135.12c0,2.82,0,5.63,0,8.45c0,0.64,1,0.64,1,0c0-2.82,0-5.63,0-8.45C282.52,134.48,281.52,134.48,281.52,135.12
			L281.52,135.12z"/>
	</g>
</g>
</svg>
