<?xml version="1.0" encoding="utf-8"?>
<!-- Generator: Adobe Illustrator 23.1.1, SVG Export Plug-In . SVG Version: 6.00 Build 0)  -->
<svg version="1.1" id="Layer_1" xmlns="http://www.w3.org/2000/svg" xmlns:xlink="http://www.w3.org/1999/xlink" x="0px" y="0px"
	 viewBox="0 0 432 288" style="enable-background:new 0 0 432 288;" xml:space="preserve">
<style type="text/css">
	.st0{fill:#A7A9AC;}
	.st1{fill:#ED1C24;}
	.st2{display:none;}
	.st3{display:inline;}
	.st4{fill:#00AEEF;}
</style>
<g>
	<g>
		<g>
			<path class="st0" d="M387.86,134.04c1.69-1.57,3.37-3.15,5.01-4.76c0.79-0.78,2.18-1.79,2.09-3.02
				c-0.09-1.34-1.58-2.19-2.59-2.79c-2.02-1.21-4.17-2.21-6.34-3.12c-0.5-0.21-1.1,0.23-1.23,0.7c-0.16,0.58,0.2,1.02,0.7,1.23
				c1.68,0.7,3.32,1.5,4.91,2.38c0.69,0.38,1.43,0.79,2.04,1.26c0.14,0.11,0.31,0.27,0.44,0.41c0.13,0.13-0.09-0.07,0.06,0.08
				c0.15,0.15-0.02-0.13,0.03,0.05c-0.01-0.04,0.04-0.16-0.05-0.09c-0.18,0.15-0.33,0.35-0.49,0.52c-0.4,0.41-0.81,0.82-1.23,1.22
				c-0.95,0.93-1.92,1.86-2.89,2.77c-0.62,0.59-1.25,1.17-1.87,1.75C385.5,133.5,386.92,134.91,387.86,134.04L387.86,134.04z"/>
		</g>
	</g>
	<g>
		<g>
			<path class="st0" d="M90.38,114.89c-1.74,0.72-3.44,1.53-5.07,2.47c-0.84,0.49-1.67,1-2.48,1.55c-0.68,0.46-1.67,0.96-2.11,1.68
				c-0.57,0.94,0.07,1.73,0.74,2.37c0.72,0.68,1.44,1.36,2.17,2.03c1.49,1.36,3.01,2.69,4.56,3.98c0.98,0.82,2.4-0.59,1.41-1.41
				c-1.28-1.07-2.53-2.15-3.77-3.26c-0.59-0.53-1.17-1.06-1.75-1.6c-0.32-0.3-0.64-0.59-0.95-0.89c-0.26-0.25-0.61-0.49-0.76-0.82
				c0.05,0.17,0.09,0.34,0.14,0.5c-0.09,0.15-0.09,0.18,0,0.11c0.08-0.06,0.16-0.11,0.23-0.17c0.18-0.13,0.36-0.26,0.55-0.39
				c0.31-0.22,0.62-0.43,0.93-0.63c0.72-0.48,1.45-0.93,2.2-1.36c1.45-0.83,2.95-1.57,4.5-2.21c0.5-0.21,0.85-0.66,0.7-1.23
				C91.48,115.11,90.89,114.68,90.38,114.89L90.38,114.89z"/>
		</g>
	</g>
	<g>
		<g>
			<path class="st0" d="M82.64,122.61c23.35,2.98,46.99,2.46,70.48,2.47c19.94,0.01,39.88,0.05,59.83,0.07
				c19.31,0.02,38.63,0.01,57.94-0.06c16.52-0.06,33.05-0.08,49.57,0.06c20.95,0.18,41.89,0.56,62.83,1.13
				c2.95,0.08,5.91,0.16,8.86,0.25c1.29,0.04,1.29-1.96,0-2c-21.65-0.64-43.31-1.09-64.97-1.32c-16.1-0.17-32.2-0.23-48.3-0.16
				c-19.68,0.08-39.36,0.11-59.04,0.1c-19.58-0.01-39.16-0.06-58.74-0.07c-23.26-0.02-46.67,0.62-69.86-1.53
				c-2.87-0.27-5.74-0.58-8.59-0.95C81.37,120.45,81.38,122.45,82.64,122.61L82.64,122.61z"/>
		</g>
	</g>
</g>
<g>
	<g>
		<g>
			<path class="st0" d="M246.18,19.65c2.07-3.39,4.17-6.76,6.18-10.18c0.11-0.19,0.22-0.37,0.33-0.56c0.07-0.12,0.38-0.49,0.37-0.59
				c-0.02-0.23,0.08,0.15-0.09-0.03c-0.21-0.22-0.03,0.1-0.04,0.03c0,0.05,0.26,0.29,0.31,0.36c0.15,0.2,0.28,0.42,0.42,0.62
				c0.83,1.24,1.65,2.48,2.48,3.73c1.5,2.26,3,4.53,4.5,6.79c0.71,1.07,2.44,0.07,1.73-1.01c-2.35-3.56-4.71-7.12-7.08-10.67
				c-0.46-0.69-0.94-1.48-1.77-1.75c-1.12-0.37-1.96,0.48-2.48,1.37c-0.69,1.21-1.41,2.39-2.14,3.58c-1.48,2.44-2.97,4.87-4.46,7.3
				C243.78,19.75,245.51,20.75,246.18,19.65L246.18,19.65z"/>
		</g>
	</g>
	<g>
		<g>
			<path class="st0" d="M244,254.09c1.76,3.95,3.9,7.72,6.42,11.24c0.61,0.85,1.2,1.83,1.95,2.56c0.84,0.83,1.97,0.61,2.7-0.23
				c1.46-1.71,2.79-3.55,4.14-5.35c1.57-2.1,3.1-4.23,4.59-6.38c0.73-1.06-1-2.06-1.73-1.01c-2.32,3.36-4.73,6.65-7.25,9.86
				c-0.29,0.37-0.59,0.75-0.88,1.12c-0.09,0.11-0.38,0.35-0.4,0.49c-0.02,0.02-0.04,0.05-0.06,0.07c0.11,0.01,0.21,0.02,0.32,0.03
				c0.01-0.01-0.23-0.27-0.26-0.29c-0.6-0.74-1.16-1.54-1.71-2.32c-1.1-1.57-2.12-3.18-3.08-4.84c-1.11-1.93-2.11-3.91-3.01-5.94
				c-0.22-0.49-0.94-0.61-1.37-0.36C243.85,253.02,243.78,253.6,244,254.09L244,254.09z"/>
		</g>
	</g>
	<g>
		<g>
			<path class="st0" d="M252.19,8.31c-1.13,33.78-1.77,67.58-1.91,101.38c-0.14,33.62,0.21,67.25,1.05,100.86
				c0.47,18.96,1.11,37.92,1.89,56.88c0.05,1.28,2.05,1.29,2,0c-1.4-33.77-2.31-67.56-2.72-101.35
				c-0.41-33.62-0.32-67.25,0.25-100.86c0.32-18.97,0.81-37.93,1.44-56.89C254.23,7.03,252.23,7.03,252.19,8.31L252.19,8.31z"/>
		</g>
	</g>
</g>
<g>
	<g>
		<g>
			<path d="M180.42,16.56c-1.13,2.44-1.33,5.23-0.5,7.79c0.2,0.61,1.16,0.35,0.96-0.27c-0.74-2.3-0.62-4.83,0.4-7.02
				C181.55,16.49,180.69,15.98,180.42,16.56L180.42,16.56z"/>
		</g>
	</g>
	<g>
		<g>
			<path d="M180.34,29.33c0,1.39,0,2.78,0,4.17c0,0.64,1,0.64,1,0c0-1.39,0-2.78,0-4.17C181.34,28.69,180.34,28.69,180.34,29.33
				L180.34,29.33z"/>
		</g>
	</g>
	<g>
		<g>
			<path d="M180.93,41.63c-1.44,2.03-1.46,4.92-0.08,6.98c0.36,0.53,1.22,0.03,0.86-0.5c-1.21-1.79-1.17-4.21,0.08-5.97
				C182.16,41.61,181.3,41.11,180.93,41.63L180.93,41.63z"/>
		</g>
	</g>
	<g>
		<g>
			<path d="M182.19,55.92c-1,1.64-1.3,3.65-0.84,5.52c0.15,0.62,1.12,0.36,0.96-0.27c-0.4-1.61-0.12-3.33,0.74-4.75
				C183.39,55.87,182.52,55.37,182.19,55.92L182.19,55.92z"/>
		</g>
	</g>
	<g>
		<g>
			<path d="M182.59,70.42c-0.69,1.78-0.6,3.77,0.15,5.51c0.11,0.25,0.47,0.3,0.68,0.18c0.26-0.15,0.29-0.44,0.18-0.68
				c-0.65-1.5-0.64-3.23-0.05-4.74c0.1-0.25-0.11-0.55-0.35-0.62C182.93,70,182.69,70.17,182.59,70.42L182.59,70.42z"/>
		</g>
	</g>
	<g>
		<g>
			<path d="M183.02,85.74c-0.15,1.08-0.29,2.17-0.44,3.25c-0.03,0.26,0.06,0.55,0.35,0.62c0.23,0.05,0.58-0.07,0.62-0.35
				c0.15-1.08,0.29-2.17,0.44-3.25c0.03-0.26-0.06-0.55-0.35-0.62C183.4,85.34,183.06,85.46,183.02,85.74L183.02,85.74z"/>
		</g>
	</g>
	<g>
		<g>
			<path d="M183.47,96.85c-0.44,1.88-0.54,3.81-0.3,5.72c0.03,0.27,0.21,0.5,0.5,0.5c0.24,0,0.53-0.23,0.5-0.5
				c-0.23-1.82-0.15-3.67,0.26-5.46C184.58,96.49,183.61,96.22,183.47,96.85L183.47,96.85z"/>
		</g>
	</g>
	<g>
		<g>
			<path d="M183.13,111.85c0,1.7,0,3.4,0,5.1c0,0.64,1,0.64,1,0c0-1.7,0-3.4,0-5.1C184.13,111.21,183.13,111.21,183.13,111.85
				L183.13,111.85z"/>
		</g>
	</g>
	<g>
		<g>
			<path d="M182.89,124.68c-0.47,2.18-0.59,4.42-0.35,6.64c0.03,0.27,0.21,0.5,0.5,0.5c0.25,0,0.53-0.23,0.5-0.5
				c-0.24-2.13-0.14-4.28,0.31-6.37C183.99,124.32,183.03,124.05,182.89,124.68L182.89,124.68z"/>
		</g>
	</g>
	<g>
		<g>
			<path d="M183.07,138.59c-0.48,2.46-0.61,4.97-0.37,7.46c0.06,0.63,1.06,0.64,1,0c-0.23-2.4-0.13-4.83,0.33-7.2
				C184.16,138.22,183.2,137.96,183.07,138.59L183.07,138.59z"/>
		</g>
	</g>
	<g>
		<g>
			<path d="M182.35,154.82c-0.73,1.86-0.74,3.99-0.03,5.86c0.09,0.25,0.34,0.43,0.62,0.35c0.24-0.07,0.44-0.36,0.35-0.62
				c-0.65-1.73-0.64-3.61,0.03-5.33c0.1-0.25-0.11-0.55-0.35-0.62C182.68,154.4,182.45,154.57,182.35,154.82L182.35,154.82z"/>
		</g>
	</g>
	<g>
		<g>
			<path d="M183.68,168.25c-0.67,1.89-0.66,4,0.03,5.88c0.09,0.25,0.34,0.43,0.62,0.35c0.24-0.07,0.44-0.36,0.35-0.62
				c-0.64-1.73-0.65-3.61-0.03-5.35C184.86,167.91,183.9,167.64,183.68,168.25L183.68,168.25z"/>
		</g>
	</g>
	<g>
		<g>
			<path d="M184.63,178.46c-0.49,2.02-0.63,4.11-0.38,6.17c0.03,0.27,0.21,0.5,0.5,0.5c0.25,0,0.53-0.23,0.5-0.5
				c-0.24-1.98-0.13-3.97,0.34-5.91C185.75,178.1,184.78,177.84,184.63,178.46L184.63,178.46z"/>
		</g>
	</g>
	<g>
		<g>
			<path d="M184.21,192.38c-0.48,1.86-0.64,3.79-0.44,5.7c0.03,0.27,0.21,0.5,0.5,0.5c0.25,0,0.53-0.23,0.5-0.5
				c-0.19-1.83-0.06-3.66,0.4-5.43C185.34,192.02,184.37,191.76,184.21,192.38L184.21,192.38z"/>
		</g>
	</g>
	<g>
		<g>
			<path d="M184.08,205.33c-0.42,2.03-0.53,4.12-0.29,6.19c0.03,0.27,0.21,0.5,0.5,0.5c0.25,0,0.53-0.23,0.5-0.5
				c-0.23-1.98-0.15-3.97,0.25-5.92C185.18,204.97,184.21,204.7,184.08,205.33L184.08,205.33z"/>
		</g>
	</g>
	<g>
		<g>
			<path d="M183.79,219.74c-0.34,1.85-0.68,3.7-1.01,5.55c-0.05,0.27,0.07,0.54,0.35,0.62c0.24,0.07,0.57-0.08,0.62-0.35
				c0.34-1.85,0.68-3.7,1.01-5.55c0.05-0.27-0.07-0.54-0.35-0.62C184.16,219.33,183.84,219.48,183.79,219.74L183.79,219.74z"/>
		</g>
	</g>
	<g>
		<g>
			<path d="M183.27,231.78c-0.53,1.42-0.65,2.95-0.4,4.45c0.04,0.27,0.37,0.42,0.62,0.35c0.28-0.08,0.39-0.35,0.35-0.62
				c-0.21-1.32-0.06-2.67,0.4-3.92c0.09-0.25-0.1-0.55-0.35-0.62C183.6,231.35,183.36,231.52,183.27,231.78L183.27,231.78z"/>
		</g>
	</g>
	<g>
		<g>
			<path d="M183.29,243.52c0,2.16,0,4.33,0,6.49c0,0.64,1,0.64,1,0c0-2.16,0-4.33,0-6.49C184.29,242.87,183.29,242.87,183.29,243.52
				L183.29,243.52z"/>
		</g>
	</g>
	<g>
		<g>
			<path d="M184.2,259.6c-0.53,1.42-0.65,2.95-0.4,4.45c0.04,0.27,0.37,0.42,0.62,0.35c0.28-0.08,0.39-0.35,0.35-0.62
				c-0.21-1.32-0.06-2.67,0.4-3.92c0.09-0.25-0.1-0.55-0.35-0.62C184.53,259.17,184.29,259.34,184.2,259.6L184.2,259.6z"/>
		</g>
	</g>
</g>
<g>
	<g>
		<g>
			<path d="M227.93,266.45c-1.32-1.76-1.67-4.07-0.93-6.14c0.22-0.61-0.75-0.87-0.96-0.27c-0.82,2.29-0.42,4.96,1.03,6.91
				c0.16,0.22,0.43,0.32,0.68,0.18C227.97,267.02,228.1,266.67,227.93,266.45L227.93,266.45z"/>
		</g>
	</g>
	<g>
		<g>
			<path d="M228.05,255.1c-0.24-2.13-0.13-4.28,0.35-6.37c0.14-0.63-0.82-0.89-0.96-0.27c-0.49,2.17-0.63,4.42-0.38,6.63
				c0.03,0.27,0.21,0.5,0.5,0.5C227.8,255.6,228.08,255.37,228.05,255.1L228.05,255.1z"/>
		</g>
	</g>
	<g>
		<g>
			<path d="M229.35,238.62c-1.04-1.7-1.18-3.8-0.41-5.63c0.1-0.25-0.11-0.55-0.35-0.62c-0.29-0.08-0.51,0.1-0.62,0.35
				c-0.86,2.06-0.65,4.5,0.52,6.4C228.83,239.67,229.69,239.17,229.35,238.62L229.35,238.62z"/>
		</g>
	</g>
	<g>
		<g>
			<path d="M228.86,224.39c-0.62-2.2-0.57-4.51,0.13-6.68c0.2-0.61-0.77-0.88-0.96-0.27c-0.75,2.33-0.79,4.86-0.13,7.21
				C228.07,225.28,229.04,225.01,228.86,224.39L228.86,224.39z"/>
		</g>
	</g>
	<g>
		<g>
			<path d="M228.84,209.09c-0.45-2.09-0.56-4.24-0.32-6.37c0.03-0.27-0.25-0.5-0.5-0.5c-0.29,0-0.47,0.23-0.5,0.5
				c-0.24,2.22-0.11,4.46,0.36,6.64C228.01,209.99,228.98,209.72,228.84,209.09L228.84,209.09z"/>
		</g>
	</g>
	<g>
		<g>
			<path d="M228.94,194.84c0-1.85,0-3.71,0-5.56c0-0.64-1-0.64-1,0c0,1.85,0,3.71,0,5.56C227.94,195.48,228.94,195.48,228.94,194.84
				L228.94,194.84z"/>
		</g>
	</g>
	<g>
		<g>
			<path d="M228.03,182.32c-0.19-1.52-0.05-3.05,0.41-4.51c0.2-0.61-0.77-0.88-0.96-0.27c-0.49,1.54-0.65,3.17-0.45,4.77
				c0.03,0.27,0.21,0.5,0.5,0.5C227.78,182.82,228.07,182.59,228.03,182.32L228.03,182.32z"/>
		</g>
	</g>
	<g>
		<g>
			<path d="M230.69,172.47c-0.55-2.09-0.82-4.22-0.83-6.38c0-0.64-1-0.64-1,0c0.01,2.24,0.3,4.48,0.86,6.65
				C229.89,173.36,230.86,173.1,230.69,172.47L230.69,172.47z"/>
		</g>
	</g>
	<g>
		<g>
			<path d="M230.8,160.53c0-1.08,0-2.16,0-3.25c0-0.26-0.23-0.51-0.5-0.5c-0.27,0.01-0.5,0.22-0.5,0.5c0,1.08,0,2.16,0,3.25
				c0,0.26,0.23,0.51,0.5,0.5C230.57,161.02,230.8,160.81,230.8,160.53L230.8,160.53z"/>
		</g>
	</g>
	<g>
		<g>
			<path d="M230.69,150.68c-0.45-2.25-0.55-4.55-0.31-6.84c0.03-0.27-0.25-0.5-0.5-0.5c-0.29,0-0.47,0.23-0.5,0.5
				c-0.24,2.37-0.12,4.76,0.35,7.1C229.85,151.58,230.81,151.31,230.69,150.68L230.69,150.68z"/>
		</g>
	</g>
	<g>
		<g>
			<path d="M231.71,138.92c-0.97-1.72-1.16-3.77-0.55-5.64c0.2-0.61-0.77-0.88-0.96-0.27c-0.69,2.12-0.44,4.47,0.66,6.41
				C231.16,139.99,232.03,139.48,231.71,138.92L231.71,138.92z"/>
		</g>
	</g>
	<g>
		<g>
			<path d="M231.73,126.22c0-2.01,0-4.02,0-6.03c0-0.64-1-0.64-1,0c0,2.01,0,4.02,0,6.03C230.73,126.87,231.73,126.87,231.73,126.22
				L231.73,126.22z"/>
		</g>
	</g>
	<g>
		<g>
			<path d="M231.26,113.71c0-1.85,0-3.71,0-5.56c0-0.64-1-0.64-1,0c0,1.85,0,3.71,0,5.56C230.26,114.35,231.26,114.35,231.26,113.71
				L231.26,113.71z"/>
		</g>
	</g>
	<g>
		<g>
			<path d="M229.9,102.93c-0.45-2.25-0.55-4.56-0.3-6.84c0.03-0.27-0.25-0.5-0.5-0.5c-0.29,0-0.47,0.23-0.5,0.5
				c-0.25,2.37-0.13,4.77,0.34,7.1C229.07,103.83,230.03,103.56,229.9,102.93L229.9,102.93z"/>
		</g>
	</g>
	<g>
		<g>
			<path d="M229.26,89.6c0-1.33,0-2.66,0-3.98c0-0.64-1-0.64-1,0c0,1.33,0,2.66,0,3.98C228.26,90.24,229.26,90.24,229.26,89.6
				L229.26,89.6z"/>
		</g>
	</g>
	<g>
		<g>
			<path d="M230.99,76.86c-0.85-1.41-1.14-3.12-0.78-4.74c0.14-0.63-0.82-0.89-0.96-0.27c-0.42,1.87-0.11,3.86,0.88,5.51
				C230.46,77.92,231.32,77.41,230.99,76.86L230.99,76.86z"/>
		</g>
	</g>
	<g>
		<g>
			<path d="M231.11,65.49c0-1.55,0-3.09,0-4.64c0-0.64-1-0.64-1,0c0,1.55,0,3.09,0,4.64C230.11,66.13,231.11,66.14,231.11,65.49
				L231.11,65.49z"/>
		</g>
	</g>
	<g>
		<g>
			<path d="M231.47,54.71c-0.46-2.09-0.56-4.24-0.32-6.37c0.03-0.27-0.25-0.5-0.5-0.5c-0.29,0-0.47,0.23-0.5,0.5
				c-0.24,2.22-0.12,4.46,0.36,6.64C230.64,55.61,231.61,55.34,231.47,54.71L231.47,54.71z"/>
		</g>
	</g>
	<g>
		<g>
			<path d="M231.57,39.53c0-1.85,0-3.71,0-5.56c0-0.64-1-0.64-1,0c0,1.85,0,3.71,0,5.56C230.57,40.17,231.57,40.17,231.57,39.53
				L231.57,39.53z"/>
		</g>
	</g>
	<g>
		<g>
			<path d="M232.03,27.34c-0.65-1.87-0.66-3.88-0.04-5.77c0.2-0.61-0.76-0.88-0.96-0.27c-0.67,2.04-0.66,4.27,0.04,6.3
				C231.28,28.21,232.25,27.95,232.03,27.34L232.03,27.34z"/>
		</g>
	</g>
	<g>
		<g>
			<path d="M232.96,15.88c0-1.55,0-3.09,0-4.64c0-0.64-1-0.64-1,0c0,1.55,0,3.09,0,4.64C231.96,16.53,232.96,16.53,232.96,15.88
				L232.96,15.88z"/>
		</g>
	</g>
</g>
<g>
	<g>
		<path d="M282.67,116.93c0.39,3.04,0.3,6.13-0.29,9.14c-0.12,0.63,0.84,0.9,0.96,0.27c0.61-3.1,0.72-6.27,0.32-9.4
			C283.59,116.3,282.59,116.29,282.67,116.93L282.67,116.93z"/>
	</g>
</g>
<g>
	<g>
		<path class="st1" d="M253.46,177.54c-0.01,0.01,0.07-0.11,0.07-0.11c-0.08-0.08-0.1,0.2-0.04,0.06c0.01-0.01,0.09-0.08,0.09-0.08
			c0.02,0.01-0.22,0.13-0.06,0.05c0.03-0.02,0.08-0.04,0.1-0.06c0.13-0.11-0.1,0.1-0.07,0.03c0.01-0.03,0.19-0.06,0.23-0.07
			c0.16-0.05-0.06,0.02-0.08,0.01c0.01,0.01,0.1-0.01,0.12-0.01c0.04,0,0.23,0.03,0.25,0.01c-0.01,0.01-0.26-0.05-0.08-0.01
			c0.04,0.01,0.08,0.02,0.12,0.03c0.04,0.01,0.08,0.02,0.12,0.03c0.06,0.02,0.16,0.1,0.06,0.02c-0.11-0.1,0.06,0.03,0.11,0.06
			c0.04,0.02,0.07,0.04,0.11,0.07c0.16,0.09-0.05-0.04-0.05-0.05c0.06,0.02,0.13,0.13,0.18,0.17c0.12,0.11-0.07-0.06-0.04-0.06
			c0.02,0,0.07,0.11,0.08,0.13c0.11,0.18-0.03-0.17,0.01,0.05c0.04,0.22,0.02-0.17,0.01,0.02c0,0.04,0,0.09,0,0.14
			c0,0.2-0.01-0.07,0.01-0.07c0,0-0.03,0.11-0.03,0.13c-0.04,0.19,0.07-0.11,0.02-0.02c-0.05,0.07-0.09,0.15-0.14,0.23
			c-0.06,0.11,0.13-0.12,0.03-0.05c-0.03,0.03-0.06,0.07-0.09,0.1c-0.08,0.07-0.2,0.14-0.03,0.04c-0.1,0.06-0.2,0.12-0.3,0.18
			c-0.15,0.08,0.17-0.04-0.05,0.02c-0.09,0.02-0.18,0.04-0.27,0.07c-0.13,0.04,0.2,0,0.06-0.01c-0.04,0-0.09,0.01-0.14,0.01
			c-0.03,0-0.07,0-0.1,0c-0.21,0.01,0.2,0.06,0,0c-0.04-0.01-0.24-0.03-0.26-0.08c-0.01-0.01,0.22,0.13,0.06,0.01
			c-0.02-0.02-0.06-0.05-0.09-0.05c-0.11-0.03,0.11,0.12,0.04,0.03c-0.03-0.04-0.07-0.07-0.1-0.1c-0.05-0.05-0.07-0.14-0.03-0.03
			c0.04,0.13-0.01-0.03-0.03-0.07c-0.01-0.02-0.07-0.11-0.06-0.12c0.01-0.01,0.07,0.25,0.03,0.05c0-0.02-0.08-0.26-0.06-0.26
			c0.02-0.01,0.01,0.21,0.02,0.1c0-0.04-0.01-0.09-0.01-0.14c0-0.05,0-0.09,0-0.14c0-0.21-0.03,0.01-0.01,0.03
			c-0.02-0.02,0.05-0.24,0.06-0.27c0.03-0.09,0.15-0.3,0.02-0.09c0.05-0.08,0.08-0.17,0.13-0.24c0.02-0.03,0.04-0.06,0.06-0.09
			c0.04-0.1-0.13,0.14-0.01,0.01c0.06-0.06,0.13-0.13,0.2-0.19c-0.17,0.17,0,0.02,0.08-0.04c0.05-0.04,0.16-0.05-0.05,0.01
			c0.04-0.01,0.09-0.03,0.13-0.04c0.05-0.01,0.1-0.02,0.15-0.04c-0.13,0.03-0.09,0,0.02,0.01c0.09,0,0.3,0.04,0.1-0.01
			c0.11,0.03,0.21,0.06,0.31,0.09c-0.18-0.05-0.06-0.03-0.01,0c0.05,0.03,0.1,0.05,0.14,0.08c0.05,0.03,0.09,0.06,0.14,0.09
			c-0.12-0.08-0.04-0.04,0.02,0.03c0.08,0.08,0.16,0.16,0.23,0.24c0.08,0.08-0.02-0.02-0.03-0.04c0.03,0.05,0.06,0.09,0.09,0.14
			c0.03,0.06,0.15,0.33,0.08,0.14c0.04,0.12,0.06,0.24,0.1,0.36c0.04,0.13,0.02-0.15-0.01-0.02c-0.01,0.04-0.01,0.12,0,0.17
			c0.03,0.13,0.04-0.15,0.01-0.02c-0.01,0.05-0.02,0.09-0.03,0.14c-0.01,0.03-0.02,0.06-0.03,0.1c-0.05,0.19,0.02-0.06,0.03-0.05
			c0.01,0.01-0.15,0.29-0.17,0.28c-0.01,0,0.14-0.15,0.06-0.07c-0.03,0.03-0.06,0.07-0.09,0.1c-0.03,0.03-0.22,0.24-0.12,0.12
			c0.08-0.1,0.01-0.01-0.03,0.02c-0.04,0.02-0.07,0.05-0.11,0.07c-0.05,0.03-0.21,0.15-0.27,0.14c0,0,0.24-0.08,0.05-0.03
			c-0.04,0.01-0.09,0.03-0.13,0.04c-0.08,0.02-0.15,0.04-0.23,0.06c-0.24,0.06,0.18,0-0.07,0.01c-0.1,0-0.2,0.01-0.3,0
			c-0.02,0-0.13-0.01-0.13-0.01c0-0.02,0.26,0.05,0.07,0.01c-0.09-0.02-0.17-0.04-0.25-0.07c-0.03-0.01-0.06-0.03-0.09-0.03
			c-0.12-0.03,0.16,0.1,0.06,0.02c-0.08-0.05-0.17-0.1-0.25-0.15c0.22,0.13,0.01,0-0.05-0.06c-0.03-0.03-0.06-0.07-0.09-0.1
			c0.03,0.03,0.11,0.17,0.03,0.03c-0.04-0.08-0.12-0.31-0.05-0.07c-0.02-0.09-0.05-0.18-0.08-0.27c-0.06-0.2,0.01,0.07,0,0.06
			c-0.01-0.01-0.01-0.12-0.01-0.14c0-0.09,0-0.19,0.01-0.28c0.01-0.15-0.02,0.04-0.01,0.06c-0.01-0.01,0.03-0.14,0.03-0.14
			c0.02-0.1,0.07-0.2,0.09-0.31c0.02-0.1-0.03,0.06-0.03,0.07c0.02-0.04,0.04-0.09,0.06-0.13c0.04-0.08,0.09-0.17,0.14-0.25
			c0.03-0.04,0.05-0.08,0.08-0.12c-0.02,0.03-0.14,0.16-0.02,0.04c0.07-0.07,0.16-0.15,0.23-0.22c0.08-0.1-0.15,0.09-0.04,0.03
			c0.04-0.02,0.08-0.05,0.12-0.08c0.07-0.04,0.14-0.08,0.21-0.11c-0.22,0.12,0,0.01,0.09-0.01c0.01,0,0.12-0.04,0.14-0.03
			c-0.05-0.03-0.21,0.01-0.02,0.01c0.03,0,0.21,0,0.1,0c-0.11-0.01,0.08,0.02,0.11,0.03c0.16,0.04-0.12-0.05,0.03,0.01
			c0.09,0.04,0-0.06,0.02,0.01c0.03,0.1-0.02-0.03-0.03-0.04c0.07,0.18,0.01,0,0-0.03c0.01,0.05,0.03,0.1,0.04,0.15
			c-0.06-0.21-0.02-0.02-0.02,0.06c0,0.02-0.02,0.15,0,0.03c0.02-0.13-0.01,0.05-0.02,0.08c-0.03,0.12-0.07,0.23-0.11,0.34
			c-0.05,0.15,0.06-0.13,0,0.01c-0.02,0.04-0.04,0.08-0.06,0.12c-0.07,0.14-0.14,0.27-0.21,0.4c-0.12,0.22-0.25,0.43-0.38,0.65
			c-0.07,0.11-0.14,0.22-0.22,0.33c-0.04,0.05-0.08,0.11-0.12,0.16c-0.11,0.14,0.15-0.16-0.06,0.07c-0.09,0.1-0.17,0.2-0.27,0.29
			c-0.05,0.05-0.1,0.09-0.14,0.13c-0.02,0.02-0.14,0.12-0.02,0.03c-0.09,0.07-0.18,0.13-0.28,0.18c-0.05,0.03-0.1,0.05-0.14,0.08
			c-0.09,0.06,0.15-0.04-0.02,0.01c-0.11,0.03-0.21,0.06-0.32,0.08c-0.07,0.02-0.17,0,0.02,0c-0.05,0-0.11,0.01-0.16,0.01
			c-0.08,0-0.37-0.05-0.13,0.01c-0.1-0.02-0.2-0.05-0.31-0.08c-0.18-0.05-0.01-0.01,0.02,0.01c-0.04-0.03-0.09-0.05-0.13-0.08
			c-0.15-0.09-0.01-0.01,0.02,0.02c-0.04-0.04-0.07-0.07-0.11-0.11c0.03,0.03,0.1,0.17,0.01,0.01c-0.03-0.06-0.07-0.11-0.1-0.17
			c0.02,0.05,0.04,0.13,0-0.04c-0.02-0.06-0.03-0.13-0.05-0.19c-0.04-0.19-0.02-0.08-0.01-0.03c-0.01-0.07-0.01-0.13-0.02-0.2
			c-0.01-0.13-0.02-0.26-0.02-0.39c0-0.13,0-0.26,0-0.39c0-0.07,0.01-0.13,0.01-0.2c0-0.02,0.03-0.28,0.02-0.16
			c-0.02,0.12,0.02-0.08,0.02-0.11c0.01-0.05,0.02-0.1,0.03-0.14c0.03-0.13,0.07-0.25,0.11-0.37c0.06-0.18,0.02-0.07,0.01-0.03
			c0.03-0.06,0.05-0.12,0.08-0.17c0.03-0.06,0.06-0.11,0.09-0.17c0.01-0.02,0.15-0.22,0.09-0.13c-0.06,0.08,0.05-0.06,0.07-0.08
			c0.04-0.04,0.09-0.07,0.12-0.11c0.07-0.11-0.13,0.07-0.01,0.01c0.03-0.02,0.07-0.05,0.1-0.07c0.06-0.03,0.33-0.16,0.12-0.08
			c0.13-0.05,0.26-0.08,0.39-0.12c0.02-0.01,0.16-0.02,0.03-0.01c-0.14,0.01,0.03,0,0.07,0c0.05,0,0.11,0,0.16,0
			c0.04,0,0.2,0.04,0.06,0c-0.14-0.03,0.13,0.05,0.17,0.05c-0.16-0.02-0.1-0.05-0.03-0.01c0.04,0.03,0.23,0.16,0.05,0.01
			c0.05,0.04,0.2,0.23,0.13,0.12c-0.08-0.12,0.01,0.01,0.02,0.04c0.04,0.13-0.04-0.19-0.02-0.06c0.01,0.04,0.02,0.09,0.03,0.12
			c0.05,0.11,0.01-0.2-0.01-0.08c0,0.04-0.01,0.09,0,0.13c0.02,0.1,0.06-0.23,0.01-0.04c-0.02,0.09-0.05,0.17-0.07,0.26
			c0.06-0.18,0.03-0.06-0.03,0.04c-0.02,0.04-0.05,0.08-0.07,0.12c-0.05,0.12,0.13-0.13,0.03-0.04c-0.07,0.07-0.15,0.15-0.22,0.22
			c0.12-0.14,0.11-0.07,0.04-0.03c-0.04,0.02-0.07,0.05-0.11,0.07c-0.01,0.01-0.11,0.06-0.12,0.06c-0.01-0.02,0.25-0.07,0.06-0.03
			c-0.02,0-0.13,0.03-0.12,0.03c0-0.02,0.21,0,0.11-0.02c-0.04,0-0.09,0-0.13,0c-0.08,0-0.04,0,0.1,0.02
			c-0.02,0-0.04-0.01-0.06-0.01c-0.11-0.09,0,0.01,0.05,0.03c-0.03-0.02-0.08-0.05-0.11-0.06c-0.18-0.06,0.09,0.03,0.06,0.05
			c-0.01,0-0.09-0.09-0.08-0.08c-0.06-0.13-0.05,0.13,0.05,0.07c0,0-0.07-0.1-0.06-0.1c-0.01-0.02-0.06-0.09-0.05-0.1
			c0,0,0.06,0.23,0.04,0.08c0-0.02-0.06-0.23-0.05-0.23c0.07,0,0.01,0.24,0.02,0.09c0-0.04,0-0.08,0-0.12
			c0-0.04,0.01-0.08,0.01-0.12c0-0.16,0.02,0.1-0.01,0.08c-0.02-0.01,0.06-0.24,0.07-0.27c0.06-0.22-0.08,0.12,0-0.01
			c0.04-0.07,0.08-0.14,0.12-0.21c0.09-0.16-0.04,0.07-0.05,0.06c0,0,0.07-0.07,0.08-0.09c0.01-0.01,0.08-0.08,0.09-0.08
			c0,0-0.22,0.15-0.04,0.04c0.2-0.12-0.2,0.08,0.02-0.01c0.2-0.08-0.15-0.02,0-0.01c0.05,0,0.11,0,0.16,0
			c-0.17-0.01-0.02,0,0.02,0.01c0.18,0.05,0.08,0.02,0.03,0c0.07,0.03,0.14,0.08,0.21,0.12c0.13,0.08-0.09-0.09,0.03,0.02
			c0.05,0.04,0.09,0.09,0.14,0.14c0.12,0.1-0.06-0.11,0,0.01c0.03,0.04,0.05,0.1,0.08,0.14c0.08,0.09-0.03-0.14-0.01-0.02
			c0.01,0.04,0.03,0.08,0.04,0.11c0.01,0.05,0.03,0.1,0.04,0.15c0.06,0.23,0.01-0.19,0,0.05c0,0.05-0.01,0.31,0,0.18
			c0.02-0.14-0.01,0.03-0.02,0.06c-0.01,0.05-0.04,0.1-0.04,0.15c-0.01,0.13,0.09-0.12,0.01-0.02c-0.03,0.03-0.06,0.09-0.08,0.13
			c-0.03,0.09,0.02-0.02,0.04-0.05c-0.05,0.06-0.1,0.11-0.16,0.17c0.03-0.03,0.16-0.1,0.02-0.02c-0.06,0.03-0.14,0.04,0.04-0.01
			c-0.05,0.01-0.29,0.08-0.15,0.05c0.15-0.03-0.15-0.01-0.19-0.01c-0.13,0.01,0.17,0.06,0.05,0c-0.05-0.02-0.12-0.04-0.17-0.05
			c0.03,0.01,0.19,0.1,0.04,0.02c-0.04-0.02-0.08-0.05-0.12-0.07c-0.07-0.04-0.08-0.11,0.03,0.03c-0.03-0.03-0.07-0.07-0.1-0.1
			c-0.07-0.07-0.02-0.1,0.03,0.04c-0.01-0.03-0.04-0.06-0.05-0.09c-0.05-0.1,0,0.15,0.02,0.04c0.01-0.04-0.03-0.13-0.04-0.18
			c-0.08-0.52-0.76-0.85-1.23-0.7c-0.57,0.18-0.78,0.67-0.7,1.23c0.24,1.55,2.27,2.27,3.55,1.51c1.45-0.86,1.56-2.94,0.51-4.15
			c-0.56-0.64-1.44-1-2.28-0.89c-0.66,0.09-1.21,0.49-1.57,1.04c-0.66,0.99-0.64,2.51,0.28,3.34c1.17,1.06,2.87,0.46,3.62-0.78
			c0.34-0.57,0.49-1.29,0.31-1.94c-0.21-0.76-0.84-1.32-1.57-1.56c-1.51-0.5-3.15,0.41-3.79,1.79c-0.35,0.75-0.49,1.58-0.47,2.41
			c0.02,0.86,0.16,1.78,0.77,2.43c1.05,1.12,2.89,0.99,4.04,0.12c0.67-0.51,1.17-1.17,1.59-1.89c0.37-0.62,0.75-1.28,0.87-2
			c0.15-0.91-0.13-1.87-1-2.33c-0.76-0.4-1.66-0.34-2.42,0.02c-1.14,0.54-1.87,1.86-1.86,3.1c0.01,1.35,0.97,2.55,2.32,2.79
			c1.31,0.23,2.67-0.24,3.46-1.33c0.88-1.2,0.52-2.9-0.52-3.88c-1.12-1.06-2.93-1.24-4.04-0.07c-0.91,0.95-1.21,2.54-0.5,3.69
			c0.78,1.27,2.35,1.48,3.61,0.86c1.26-0.62,1.93-2.17,1.25-3.45c-0.59-1.11-2.01-1.61-3.2-1.33c-0.62,0.15-1.16,0.55-1.48,1.1
			c-0.26,0.45-0.12,1.12,0.36,1.37C252.58,178.15,253.18,178.02,253.46,177.54L253.46,177.54z"/>
	</g>
</g>
<g>
	<g>
		<path class="st1" d="M280.14,123.17c0.36,0.22,0.55,0.3,0.8,0.6c-0.08-0.1,0.02,0.05,0.05,0.09c0.05,0.09,0.01-0.1,0.02,0.08
			c-0.01-0.19,0.01,0.04-0.01-0.06c-0.02-0.09-0.05,0.1,0.02-0.04c-0.04,0.08-0.16,0.19-0.04,0.07c0.03-0.02,0.05-0.04,0.08-0.05
			c-0.08,0.05-0.09,0.05-0.02,0.02c-0.01,0,0.44-0.03,0.37,0.04c-0.01,0.01-0.48-0.9-0.51-0.99c-0.14-0.41-0.19-0.68-0.15-1.09
			c-0.01,0.11,0.02-0.11,0.03-0.14c0.02-0.1,0.05-0.19,0.08-0.29c-0.06,0.17,0.05-0.09,0.06-0.11c0.01-0.02,0.15-0.22,0.09-0.14
			c-0.06,0.08,0.1-0.1,0.11-0.12c0.01-0.01,0.23-0.19,0.09-0.09c0.05-0.04,0.11-0.07,0.16-0.1c0.02-0.01,0.28-0.13,0.1-0.06
			c0.07-0.03,0.15-0.05,0.22-0.07c0.09-0.02,0.2-0.01,0.05-0.01c0.03,0,0.31,0.02,0.1-0.01c0.04,0.01,0.29,0.08,0.12,0.01
			c-0.15-0.2-0.31-0.4-0.46-0.6c0.12,0.44,0.16,0.6,0.16,1.01c0,0.11,0,0.21-0.02,0.32c0.02-0.19-0.03,0.14-0.03,0.15
			c-0.02,0.1-0.05,0.2-0.09,0.3c0.06-0.15-0.07,0.12-0.08,0.13c-0.11,0.2,0.07-0.04-0.09,0.13c-0.04,0.04-0.23,0.16-0.04,0.05
			c-0.04,0.03-0.09,0.05-0.14,0.08c-0.19,0.12,0.17-0.02-0.06,0.02c-0.08,0.01-0.15,0.04-0.23,0.05c0.25-0.04,0-0.01-0.05-0.01
			c-0.05,0-0.11,0-0.16-0.01c0.27,0.02-0.05-0.03-0.11-0.04c0.22,0.06,0.03,0-0.03-0.02c-0.21-0.1,0.11,0.09,0,0
			c-0.07-0.05-0.1-0.17-0.01,0.01c-0.05-0.09-0.05-0.22-0.02-0.03c-0.04-0.26,0.01,0.21-0.01-0.07c0.01,0.17-0.01,0.09,0,0.02
			c0.01-0.03,0.02-0.05,0.03-0.08c-0.05,0.11-0.04,0.12,0.01,0.01c0.06-0.09,0.06-0.09,0,0c0.04-0.04,0.08-0.08,0.12-0.12
			c-0.17,0.15,0.31-0.13,0.09-0.05c0.08-0.03,0.17-0.05,0.26-0.07c-0.23,0.04,0.05,0.01,0.09,0.02c-0.21-0.01-0.02-0.01,0.04,0.02
			c0.14,0.08-0.18-0.13,0.06,0.03c0.02,0.01,0.24,0.19,0.1,0.06c0.03,0.03,0.25,0.3,0.15,0.14c0.04,0.05,0.07,0.1,0.1,0.16
			c0.01,0.01,0.14,0.29,0.06,0.1c0.04,0.09,0.06,0.18,0.09,0.27c0,0.02,0.06,0.33,0.03,0.11c0.05,0.39,0,0.65-0.12,1.02
			c-0.24,0.74-0.81,1.53-1.33,2.04c-0.08,0.07-0.18,0.16-0.27,0.15c0.18,0.03-0.08-0.08-0.01-0.02c0,0,0.23,0.12-0.03-0.03
			c-0.19-0.1-0.2-0.12-0.37-0.29c-0.05-0.05-0.09-0.1-0.14-0.15c-0.04-0.05-0.09-0.1-0.13-0.15c0.06,0.07,0.05,0.06-0.02-0.04
			c-0.1-0.16-0.19-0.31-0.27-0.48c-0.08-0.17,0.07,0.21-0.04-0.08c-0.03-0.09-0.07-0.19-0.1-0.29c-0.03-0.1-0.05-0.19-0.07-0.29
			c0,0.02-0.05-0.3-0.03-0.16c0.02,0.14-0.02-0.19-0.01-0.17c-0.01-0.13-0.01-0.27-0.01-0.4c0-0.1,0.01-0.2,0.02-0.3
			c-0.01,0.05-0.04,0.16,0.01-0.03c0.05-0.2,0.09-0.39,0.16-0.58c-0.07,0.17,0.06-0.12,0.06-0.13c0.03-0.06,0.06-0.12,0.1-0.18
			c0.05-0.09,0.11-0.17,0.17-0.25c-0.09,0.12,0.14-0.16,0.17-0.18c0.05-0.05,0.09-0.1,0.14-0.14c0,0,0.25-0.21,0.11-0.1
			c0.16-0.12,0.33-0.23,0.51-0.32c0.06-0.03,0.12-0.06,0.18-0.09c-0.17,0.08,0.13-0.04,0.13-0.04c0.09-0.03,0.19-0.06,0.29-0.08
			c0.06-0.01,0.13-0.03,0.19-0.04c-0.09,0.01-0.09,0.01-0.02,0c0.18-0.02,0.36-0.02,0.55,0c-0.2-0.02,0.11,0.02,0.13,0.03
			c0.06,0.01,0.13,0.03,0.19,0.05c0.01,0,0.3,0.12,0.13,0.04c0.09,0.04,0.18,0.09,0.26,0.14c0.08,0.05,0.17,0.1,0.24,0.16
			c-0.14-0.11,0.1,0.09,0.1,0.1c0.07,0.07,0.14,0.14,0.2,0.21c0.19,0.21-0.07-0.13,0.08,0.11c0.09,0.14,0.17,0.28,0.24,0.42
			c-0.08-0.18,0.04,0.11,0.04,0.12c0.03,0.09,0.05,0.19,0.07,0.28c0.05,0.18,0.02,0.07,0.01,0.02c0.01,0.13,0.01,0.26,0.01,0.39
			c0.01,0.27,0.05-0.14-0.01,0.12c-0.02,0.09-0.05,0.18-0.07,0.27c-0.01,0.04-0.08,0.17,0,0.01c-0.04,0.08-0.08,0.16-0.13,0.23
			c-0.02,0.03-0.19,0.24-0.05,0.08c-0.05,0.06-0.1,0.11-0.15,0.16c-0.05,0.05-0.11,0.1-0.16,0.15c-0.09,0.07-0.09,0.08-0.01,0.01
			c-0.05,0.03-0.1,0.07-0.15,0.1c-0.06,0.03-0.43,0.21-0.24,0.13c-0.17,0.06-0.33,0.11-0.51,0.14c0.22-0.04-0.18,0-0.25,0
			c-0.05,0-0.3-0.05-0.08,0c-0.11-0.03-0.22-0.05-0.33-0.09c0.17,0.06,0.04,0.02,0,0c-0.08-0.05-0.16-0.09-0.23-0.14
			c0.17,0.12-0.05-0.06-0.07-0.08c-0.02-0.02-0.19-0.24-0.07-0.07c-0.09-0.12-0.16-0.26-0.22-0.39c0.09,0.2-0.02-0.08-0.02-0.1
			c-0.01-0.03-0.07-0.34-0.05-0.22c0.02,0.15,0-0.14,0-0.14c0-0.09,0-0.18,0.01-0.27c-0.03,0.23,0.02-0.05,0.03-0.08
			c0,0,0.1-0.26,0.04-0.13c-0.06,0.13,0.08-0.13,0.07-0.12c0.11-0.21-0.11,0.07,0.06-0.07c0.03-0.03,0.24-0.18,0.05-0.06
			c0.07-0.05,0.14-0.09,0.21-0.13c0.21-0.12-0.17,0.03,0.07-0.03c0.05-0.01,0.4-0.08,0.15-0.05c0.06-0.01,0.11-0.01,0.17-0.01
			c0.05,0,0.4,0.03,0.15-0.01c0.08,0.01,0.16,0.03,0.24,0.05c0.05,0.02,0.11,0.03,0.16,0.05c-0.1-0.04-0.12-0.05-0.05-0.02
			c0.06,0.03,0.12,0.07,0.18,0.1c0.09,0.06,0.09,0.06-0.01-0.01c0.04,0.04,0.08,0.07,0.12,0.12c0.02,0.02,0.04,0.04,0.05,0.06
			c-0.07-0.09-0.08-0.09-0.01,0c0.01,0.03,0.03,0.05,0.04,0.08c-0.04-0.11-0.05-0.11-0.01,0c0.01,0.06,0.02,0.3,0.02,0.06
			c0,0.06-0.04,0.39,0.01,0.15c-0.01,0.06-0.02,0.11-0.04,0.17c-0.02,0.06-0.03,0.11-0.05,0.16c0.05-0.11,0.05-0.11,0,0
			c-0.05,0.07-0.09,0.15-0.13,0.22c0.12-0.17-0.03,0.02-0.06,0.06c-0.03,0.03-0.24,0.17-0.06,0.06c-0.06,0.04-0.34,0.15-0.13,0.08
			c-0.01,0-0.27,0.07-0.11,0.04c0.13-0.02-0.17,0-0.2-0.01c0.26,0.02,0.04-0.01-0.02-0.03c0.24,0.07-0.01-0.02-0.08-0.07
			c0.04,0.03,0.14,0.14,0.04,0.02c-0.03-0.03-0.07-0.07-0.1-0.11c0.08,0.11,0.09,0.12,0.02,0.02c-0.03-0.06-0.07-0.14-0.11-0.19
			c0.11,0.17,0.02,0.04-0.01-0.04c-0.02-0.07-0.04-0.14-0.05-0.22c0.06,0.27,0.01-0.03,0.01-0.1c-0.02-0.21-0.06,0.12-0.01,0.01
			c0.03-0.07,0.04-0.16,0.07-0.24c-0.1,0.28-0.01,0,0.03-0.01c-0.09,0.11-0.09,0.12-0.02,0.04c0.08-0.07,0.07-0.07-0.03,0.01
			c-0.4-0.05-0.81-0.1-1.21-0.16c0.33,0.35,0.66,0.69,1,1.04c0.37,0.39,1.04,0.38,1.41,0c0.39-0.39,0.38-1.02,0-1.41
			c-0.33-0.35-0.66-0.69-1-1.04c-0.28-0.29-0.86-0.41-1.21-0.16c-0.61,0.44-0.95,1.02-1.02,1.77c-0.06,0.59,0.12,1.24,0.45,1.74
			c0.84,1.28,2.53,1.47,3.67,0.45c1.1-1,1.3-2.76,0.28-3.88c-0.91-1-2.62-1.14-3.74-0.43c-1.32,0.84-1.62,2.52-1.01,3.89
			c0.6,1.37,2.03,2.03,3.47,1.8c1.32-0.21,2.51-1.22,2.89-2.51c0.42-1.42-0.19-3.04-1.31-3.97c-1.2-1-2.78-1.2-4.22-0.59
			c-1.36,0.57-2.44,1.79-2.73,3.25c-0.29,1.49,0.08,3.01,1.04,4.18c0.51,0.62,1.23,1.16,2.05,1.2c0.84,0.04,1.58-0.49,2.09-1.12
			c1.03-1.27,1.93-2.83,1.6-4.53c-0.29-1.51-1.68-2.75-3.26-2.38c-1.57,0.37-2.53,2.29-1.37,3.59c0.92,1.03,2.69,0.99,3.66,0.07
			c0.61-0.57,0.9-1.38,0.97-2.2c0.03-0.38,0-0.75-0.06-1.12c-0.07-0.49-0.16-1.05-0.62-1.33c-0.7-0.43-1.65-0.31-2.36,0.02
			c-0.64,0.29-1.21,0.83-1.51,1.47c-0.39,0.81-0.43,1.72-0.24,2.59c0.17,0.78,0.55,1.67,1.12,2.24c0.68,0.69,1.72,0.71,2.41,0.03
			c0.62-0.61,0.74-1.57,0.39-2.33c-0.33-0.7-0.98-1.15-1.63-1.54c-0.46-0.28-1.1-0.1-1.37,0.36
			C279.5,122.27,279.67,122.89,280.14,123.17L280.14,123.17z"/>
	</g>
</g>
<g>
	<g>
		<g>
			<path d="M260.56,178.35c1.87-0.21,3.75-0.26,5.63-0.16c0.64,0.03,0.64-0.97,0-1c-1.88-0.1-3.76-0.05-5.63,0.16
				c-0.27,0.03-0.5,0.21-0.5,0.5C260.06,178.09,260.29,178.38,260.56,178.35L260.56,178.35z"/>
		</g>
	</g>
	<g>
		<g>
			<path d="M274.58,171.92c-1.17-0.52-2.34-1.04-3.51-1.55c-0.28-0.12-0.66-0.05-0.73,0.3c-0.26,1.15-0.39,2.31-0.4,3.49
				c0,0.28,0.23,0.49,0.5,0.5c0.65,0.02,1.37,0.02,1.98,0.29c0.35,0.16,0.9,0.54,0.6,0.97c-0.3,0.43-0.94,0.62-1.42,0.74
				c-0.72,0.18-1.45,0.25-2.18,0.22c-0.64-0.02-0.64,0.98,0,1c0.94,0.03,1.92-0.07,2.82-0.36c0.73-0.24,1.55-0.66,1.82-1.44
				c0.27-0.79-0.29-1.53-0.94-1.91c-0.8-0.46-1.77-0.49-2.66-0.52c0.17,0.17,0.33,0.33,0.5,0.5c0.01-1.09,0.13-2.16,0.37-3.22
				c-0.24,0.1-0.49,0.2-0.73,0.3c1.17,0.52,2.34,1.04,3.51,1.55c0.25,0.11,0.53,0.07,0.68-0.18
				C274.89,172.39,274.83,172.03,274.58,171.92L274.58,171.92z"/>
		</g>
	</g>
	<g>
		<g>
			<path d="M277.96,174.58c-2.32,2.88-4.5,5.88-6.51,8.98c-0.35,0.54,0.51,1.04,0.86,0.5c1.97-3.03,4.09-5.96,6.36-8.78
				C279.06,174.79,278.36,174.08,277.96,174.58L277.96,174.58z"/>
		</g>
	</g>
	<g>
		<g>
			<path d="M278.86,176.75c-0.43,0.72-0.76,1.51-0.96,2.33c-0.09,0.37-0.2,0.79-0.19,1.17c0.02,0.47,0.37,0.76,0.81,0.81
				c0.37,0.04,0.76-0.03,1.13-0.08c0.43-0.05,0.86-0.12,1.29-0.2c0.85-0.16,1.7-0.36,2.53-0.63c0.61-0.19,0.35-1.16-0.27-0.96
				c-1.34,0.42-2.73,0.71-4.13,0.85c-0.12,0.01-0.29-0.01-0.41,0.03c-0.04,0.02-0.07,0.02-0.07-0.01c0.04,0.04,0.08,0.08,0.11,0.13
				c0.02-0.01,0.02-0.12,0.02-0.14c0.04-0.33,0.12-0.65,0.21-0.97c0.18-0.64,0.45-1.25,0.79-1.82
				C280.05,176.7,279.19,176.2,278.86,176.75L278.86,176.75z"/>
		</g>
	</g>
	<g>
		<g>
			<path d="M281.59,177.61c-0.63,2.35-1.27,4.7-1.9,7.05c-0.17,0.62,0.8,0.89,0.96,0.27c0.63-2.35,1.27-4.7,1.9-7.05
				C282.72,177.26,281.76,176.99,281.59,177.61L281.59,177.61z"/>
		</g>
	</g>
</g>
<g>
	<g>
		<g>
			<path d="M272.28,105.58c2.57-0.56,5.17-0.98,7.8-1.25c0.63-0.06,0.64-1.07,0-1c-2.71,0.28-5.4,0.7-8.06,1.28
				C271.39,104.75,271.66,105.72,272.28,105.58L272.28,105.58z"/>
		</g>
	</g>
	<g>
		<g>
			<path d="M276.17,100.72c0,2.64,0,5.28,0,7.93c0,0.64,1,0.64,1,0c0-2.64,0-5.28,0-7.93C277.17,100.08,276.17,100.08,276.17,100.72
				L276.17,100.72z"/>
		</g>
	</g>
	<g>
		<g>
			<path d="M286.73,98.42c-0.82-0.35-1.82-0.84-2.73-0.85c-0.82-0.01-1.16,0.66-1.25,1.38c-0.26,2.09-0.25,4.23-0.11,6.33
				c0.02,0.38,0.41,0.63,0.75,0.43c0.92-0.52,1.95-0.77,3.01-0.72c0.4,0.02,1.13,0.02,1.2,0.53c0.05,0.39-0.16,0.84-0.35,1.16
				c-1.08,1.76-3.42,1.85-5.26,1.91c-0.64,0.02-0.64,1.02,0,1c2.43-0.08,5.67-0.45,6.49-3.23c0.16-0.53,0.2-1.14-0.12-1.62
				c-0.31-0.47-0.87-0.63-1.39-0.7c-1.41-0.2-2.83,0.11-4.08,0.8c0.25,0.14,0.5,0.29,0.75,0.43c-0.1-1.55-0.12-3.09-0.03-4.64
				c0.02-0.36,0.05-0.72,0.08-1.08c0.02-0.25-0.03-0.91,0.31-0.99c0.26-0.06,0.76,0.19,1.01,0.26c0.41,0.13,0.82,0.28,1.22,0.45
				C286.81,99.54,287.32,98.68,286.73,98.42L286.73,98.42z"/>
		</g>
	</g>
</g>
<g>
	<g>
		<g>
			<path d="M210.96,114.61c2.3-0.32,4.6-0.63,6.9-0.95c0.27-0.04,0.41-0.38,0.35-0.62c-0.08-0.29-0.35-0.39-0.62-0.35
				c-2.3,0.32-4.6,0.63-6.9,0.95c-0.27,0.04-0.41,0.38-0.35,0.62C210.42,114.55,210.69,114.64,210.96,114.61L210.96,114.61z"/>
		</g>
	</g>
	<g>
		<g>
			<path d="M219.08,109.56c1.31,0.13,3.11-0.47,4.22,0.46c1.04,0.87,0.92,2.54,0.39,3.65c-0.56,1.19-1.55,2.12-2.56,2.93
				c-1.24,0.99-2.59,1.84-3.9,2.74c-0.3,0.21-0.34,0.66,0,0.86c1.35,0.79,2.88,0.63,4.33,0.26c1.68-0.42,3.26-0.95,5-1.02
				c0.64-0.03,0.64-1.03,0-1c-1.58,0.06-3.05,0.43-4.56,0.86c-1.38,0.39-2.94,0.81-4.27,0.04c0,0.29,0,0.58,0,0.86
				c1.51-1.04,3.07-2.02,4.47-3.21c1.15-0.97,2.22-2.17,2.67-3.64c0.43-1.41,0.22-3.17-0.99-4.14c-1.38-1.11-3.21-0.5-4.81-0.65
				C218.44,108.5,218.44,109.5,219.08,109.56L219.08,109.56z"/>
		</g>
	</g>
</g>
<g>
	<g>
		<g>
			<path d="M183.34,110.03c1.37-0.41,2.74-0.82,4.11-1.23c0.61-0.18,0.35-1.15-0.27-0.96c-1.37,0.41-2.74,0.82-4.11,1.23
				C182.46,109.25,182.72,110.21,183.34,110.03L183.34,110.03z"/>
		</g>
	</g>
	<g>
		<g>
			<path d="M189.27,102.65c-0.28,1.24-0.49,2.49-0.63,3.75c-0.07,0.65-0.13,1.3-0.16,1.96c-0.03,0.54,0.01,1.12,0.51,1.45
				c0.41,0.28,0.92,0.26,1.39,0.19c0.59-0.1,1.19-0.25,1.77-0.39c1.25-0.3,2.48-0.64,3.7-1.02c0.61-0.19,0.35-1.16-0.27-0.96
				c-1.04,0.33-2.08,0.62-3.13,0.88c-0.55,0.14-1.1,0.27-1.65,0.38c-0.32,0.07-0.86,0.27-1.18,0.13c-0.31-0.14-0.13-0.91-0.11-1.18
				c0.04-0.54,0.09-1.09,0.15-1.63c0.13-1.1,0.32-2.2,0.57-3.29C190.38,102.29,189.41,102.03,189.27,102.65L189.27,102.65z"/>
		</g>
	</g>
	<g>
		<g>
			<path d="M192.52,102.15c-0.85,4.6-1.2,9.27-1.04,13.94c0.01,0.42,0.54,0.68,0.85,0.35c0.15-0.15,0.29-0.31,0.44-0.46
				c0.44-0.47-0.26-1.17-0.71-0.71c-0.15,0.15-0.29,0.31-0.44,0.46c0.28,0.12,0.57,0.24,0.85,0.35c-0.16-4.58,0.17-9.16,1-13.67
				C193.6,101.78,192.64,101.51,192.52,102.15L192.52,102.15z"/>
		</g>
	</g>
</g>
<g>
	<g>
		<g>
			<path d="M74.36,126.83c3.45-0.01,6.9-0.01,10.35-0.02c0.64,0,0.64-1,0-1c-3.45,0.01-6.9,0.01-10.35,0.02
				C73.72,125.83,73.71,126.83,74.36,126.83L74.36,126.83z"/>
		</g>
	</g>
	<g>
		<g>
			<path d="M91.12,125.87c3.19,0.37,6.37,0.74,9.56,1.12c0.64,0.07,0.63-0.93,0-1c-3.19-0.37-6.37-0.74-9.56-1.12
				C90.48,124.79,90.49,125.8,91.12,125.87L91.12,125.87z"/>
		</g>
	</g>
	<g>
		<g>
			<path d="M111.27,126.34c2.72,0.23,5.44,0.46,8.16,0.68c0.64,0.05,0.64-0.95,0-1c-2.72-0.23-5.44-0.46-8.16-0.68
				C110.63,125.28,110.63,126.28,111.27,126.34L111.27,126.34z"/>
		</g>
	</g>
	<g>
		<g>
			<path d="M127.43,128.55c3.38-0.03,6.76-0.07,10.14-0.1c0.64-0.01,0.64-1.01,0-1c-3.38,0.03-6.76,0.07-10.14,0.1
				C126.78,127.56,126.78,128.56,127.43,128.55L127.43,128.55z"/>
		</g>
	</g>
	<g>
		<g>
			<path d="M143.22,128.6c3.38-0.4,6.75-0.8,10.13-1.2c0.63-0.07,0.64-1.08,0-1c-3.38,0.4-6.75,0.8-10.13,1.2
				C142.59,127.67,142.58,128.67,143.22,128.6L143.22,128.6z"/>
		</g>
	</g>
	<g>
		<g>
			<path d="M169.83,127.04c2.25-0.02,4.5-0.04,6.76-0.07c0.64-0.01,0.64-1.01,0-1c-2.25,0.02-4.5,0.04-6.76,0.07
				C169.19,126.04,169.19,127.04,169.83,127.04L169.83,127.04z"/>
		</g>
	</g>
	<g>
		<g>
			<path d="M181.85,127.68c3.19,0.54,6.43,0.16,9.42-1.1c0.59-0.25,0.08-1.11-0.5-0.86c-2.71,1.15-5.75,1.5-8.65,1
				C181.49,126.61,181.22,127.58,181.85,127.68L181.85,127.68z"/>
		</g>
	</g>
	<g>
		<g>
			<path d="M196.39,127.37c3.32-0.61,6.74-0.32,9.92,0.79c0.61,0.21,0.87-0.75,0.27-0.96c-3.36-1.18-6.96-1.43-10.45-0.79
				C195.49,126.52,195.76,127.49,196.39,127.37L196.39,127.37z"/>
		</g>
	</g>
	<g>
		<g>
			<path d="M225.91,127.2c3.38-0.03,6.76-0.07,10.14-0.1c0.64-0.01,0.64-1.01,0-1c-3.38,0.03-6.76,0.07-10.14,0.1
				C225.26,126.21,225.26,127.21,225.91,127.2L225.91,127.2z"/>
		</g>
	</g>
	<g>
		<g>
			<path d="M247.28,126.74c3-0.03,6.01-0.06,9.01-0.09c0.64-0.01,0.64-1.01,0-1c-3,0.03-6.01,0.06-9.01,0.09
				C246.64,125.74,246.64,126.74,247.28,126.74L247.28,126.74z"/>
		</g>
	</g>
	<g>
		<g>
			<path d="M266.81,127.55c1.64-1.46,4.36-1.53,6.06-0.13c0.21,0.17,0.5,0.2,0.71,0c0.18-0.17,0.21-0.54,0-0.71
				c-2.14-1.76-5.4-1.71-7.48,0.13C265.62,127.27,266.33,127.98,266.81,127.55L266.81,127.55z"/>
		</g>
	</g>
	<g>
		<g>
			<path d="M280.71,127.91c1.5-0.01,3-0.03,4.5-0.04c0.64-0.01,0.64-1.01,0-1c-1.5,0.01-3,0.03-4.5,0.04
				C280.06,126.91,280.06,127.91,280.71,127.91L280.71,127.91z"/>
		</g>
	</g>
	<g>
		<g>
			<path d="M288.96,127.67c3-0.03,6.01-0.06,9.01-0.09c0.64-0.01,0.64-1.01,0-1c-3,0.03-6.01,0.06-9.01,0.09
				C288.31,126.68,288.31,127.68,288.96,127.67L288.96,127.67z"/>
		</g>
	</g>
	<g>
		<g>
			<path d="M315.65,126.95c1.5,0.38,3,0.77,4.5,1.15c0.62,0.16,0.89-0.8,0.27-0.96c-1.5-0.38-3-0.77-4.5-1.15
				C315.29,125.83,315.03,126.79,315.65,126.95L315.65,126.95z"/>
		</g>
	</g>
	<g>
		<g>
			<path d="M303.3,126.56c0.09,0.11,0.12,0.27,0.05,0.42c-0.04,0.09-0.15,0.11,0,0.04c0.07-0.03-0.11,0.03,0.02-0.01
				c0.04-0.01,0.09-0.03,0.13-0.04c0.11-0.03,0.23-0.06,0.34-0.08c0.59-0.12,1.23-0.16,1.89-0.19c0.77-0.04,1.54-0.04,2.31-0.02
				c0.63,0.02,1.36,0.06,1.89,0.15c0.13,0.02,0.27,0.05,0.4,0.08c0.05,0.01,0.1,0.03,0.15,0.04c0.12,0.03,0.03,0.01,0.05,0.01
				c0.01,0,0.09,0.04,0.09,0.05c-0.01,0.05-0.12-0.14-0.1-0.1c-0.09-0.17-0.04-0.21,0-0.38c0,0.01,0.1-0.1,0-0.01
				c-0.48,0.43,0.23,1.13,0.71,0.71c0.57-0.5,0.04-1.08-0.49-1.25c-0.68-0.22-1.45-0.25-2.16-0.29c-1.68-0.09-3.5-0.13-5.15,0.25
				c-0.61,0.14-1.41,0.61-0.84,1.31C303,127.76,303.71,127.05,303.3,126.56L303.3,126.56z"/>
		</g>
	</g>
	<g>
		<g>
			<path d="M325.67,126.7c1.77-0.19,3.55-0.37,5.32-0.56c0.27-0.03,0.5-0.21,0.5-0.5c0-0.25-0.23-0.53-0.5-0.5
				c-1.77,0.19-3.55,0.37-5.32,0.56c-0.27,0.03-0.5,0.21-0.5,0.5C325.17,126.45,325.4,126.73,325.67,126.7L325.67,126.7z"/>
		</g>
	</g>
	<g>
		<g>
			<path d="M336.47,127.09c1.74-0.55,3.6-0.6,5.37-0.15c0.62,0.16,0.89-0.8,0.27-0.96c-1.94-0.5-3.99-0.45-5.9,0.15
				C335.59,126.32,335.86,127.29,336.47,127.09L336.47,127.09z"/>
		</g>
	</g>
	<g>
		<g>
			<path d="M347.34,127.77c1.79-0.12,3.58-0.08,5.36,0.11c0.27,0.03,0.5-0.25,0.5-0.5c0-0.29-0.23-0.47-0.5-0.5
				c-1.78-0.19-3.58-0.23-5.36-0.11C346.7,126.81,346.7,127.81,347.34,127.77L347.34,127.77z"/>
		</g>
	</g>
	<g>
		<g>
			<path d="M360.46,127.93c1.05,0.28,2.15,0.36,3.23,0.24c0.26-0.03,0.51-0.21,0.5-0.5c-0.01-0.24-0.22-0.53-0.5-0.5
				c-1.02,0.12-1.99,0.06-2.96-0.2c-0.25-0.07-0.55,0.08-0.62,0.35C360.05,127.58,360.19,127.86,360.46,127.93L360.46,127.93z"/>
		</g>
	</g>
	<g>
		<g>
			<path d="M370.43,126.9c1.87,0.9,3.99,1.14,6.02,0.68c0.63-0.14,0.36-1.11-0.27-0.96c-1.75,0.4-3.62,0.2-5.24-0.58
				c-0.24-0.12-0.54-0.07-0.68,0.18C370.12,126.43,370.18,126.78,370.43,126.9L370.43,126.9z"/>
		</g>
	</g>
	<g>
		<g>
			<path d="M382.54,128.32c1.69-0.03,3.38-0.05,5.07-0.08c0.64-0.01,0.64-1.01,0-1c-1.69,0.03-3.38,0.05-5.07,0.08
				C381.89,127.33,381.89,128.33,382.54,128.32L382.54,128.32z"/>
		</g>
	</g>
	<g>
		<g>
			<path d="M392.38,128.94c1.03,0.09,2.07,0.17,3.1,0.26c0.26,0.02,0.51-0.25,0.5-0.5c-0.01-0.29-0.22-0.48-0.5-0.5
				c-1.03-0.09-2.07-0.17-3.1-0.26c-0.26-0.02-0.51,0.25-0.5,0.5C391.9,128.73,392.1,128.92,392.38,128.94L392.38,128.94z"/>
		</g>
	</g>
	<g>
		<g>
			<path d="M213.26,126.7c0.72-0.2,1.46-0.27,2.21-0.22c0.73,0.05,1.4,0.26,2.09,0.49c1.07,0.36,2.37,0.63,3.13-0.42
				c0.38-0.52-0.49-1.02-0.86-0.5c-0.24,0.33-0.74,0.28-1.09,0.21c-0.56-0.11-1.08-0.33-1.62-0.49c-1.34-0.4-2.77-0.39-4.12-0.03
				C212.37,125.9,212.64,126.87,213.26,126.7L213.26,126.7z"/>
		</g>
	</g>
	<g>
		<g>
			<path d="M158.73,126.61c1.6,0,3.19,0,4.79,0c0.64,0,0.64-1,0-1c-1.6,0-3.19,0-4.79,0C158.08,125.61,158.08,126.61,158.73,126.61
				L158.73,126.61z"/>
		</g>
	</g>
</g>
<g>
	<g>
		<g>
			<g>
				<path class="st1" d="M183.71,15.38c0.16,2.99,0.25,5.99,0.41,8.98c0.32,5.97,0.74,11.94,1.31,17.89
					c0.65,6.89,1.48,13.78,2.72,20.59c1.02,5.57,2.22,11.29,4.62,16.46c1.85,3.98,4.36,8.23,8.06,10.75
					c1.01,0.69,2.24,1.15,3.41,1.5c2.13,0.65,4.39,0.83,6.58,0.4c6.33-1.23,9.64-7.54,11.31-13.2c1.57-5.35,2.37-10.93,3.05-16.45
					c0.81-6.53,1.34-13.09,1.75-19.66c0.37-5.92,0.63-11.85,0.81-17.78c0.11-3.56,0.19-7.11,0.23-10.67c0-0.3,0.01-0.6,0.01-0.9
					c0.01-1.29-1.99-1.29-2,0c-0.02,2.64-0.07,5.27-0.14,7.91c-0.13,5.36-0.33,10.73-0.61,16.09c-0.33,6.47-0.77,12.93-1.42,19.38
					c-0.59,5.82-1.3,11.66-2.55,17.38c-0.48,2.2-1.04,4.4-1.82,6.52c-0.08,0.21-0.16,0.42-0.24,0.64c-0.04,0.1-0.08,0.2-0.12,0.31
					c0.09-0.22-0.06,0.14-0.09,0.2c-0.2,0.44-0.41,0.88-0.63,1.32c-0.69,1.35-1.49,2.66-2.51,3.78c-1.44,1.58-3.23,2.73-5.33,3.18
					c-2.03,0.44-4.16,0.17-6.11-0.48c-1.14-0.38-2.22-0.87-3.14-1.64c-1.75-1.44-3.17-3.24-4.37-5.16
					c-3.18-5.08-4.8-10.66-6.05-16.57c-1.38-6.49-2.27-13.09-2.98-19.69c-0.67-6.21-1.16-12.45-1.54-18.68
					c-0.23-3.8-0.41-7.6-0.57-11.41c-0.01-0.33-0.03-0.65-0.04-0.98C185.64,14.1,183.64,14.09,183.71,15.38L183.71,15.38z"/>
			</g>
		</g>
		<g>
			<g>
				<path class="st1" d="M179.06,26.92c1.5-3.52,3.29-6.92,5.37-10.13c0.11-0.18,0.34-0.64,0.56-0.69c0,0-0.02,0,0.08,0.07
					c0.16,0.11,0.29,0.3,0.41,0.45c0.56,0.65,1.04,1.36,1.48,2.1c0.45,0.77,0.84,1.57,1.14,2.41c0.26,0.73,0.42,1.58,1.08,2.06
					c0.78,0.57,1.86,0.3,2.18-0.65c0.26-0.8-0.21-1.83-1.17-1.74c-0.54,0.05-1,0.42-1,1c0,0.5,0.46,1.05,1,1
					c-0.04-0.01-0.07-0.01-0.11-0.02c-0.15-0.09-0.29-0.17-0.44-0.26c-0.41-0.65-0.16-0.95,0.75-0.91
					c-0.03-0.05-0.05-0.11-0.08-0.16c-0.02-0.19-0.12-0.39-0.18-0.57c-0.16-0.46-0.34-0.92-0.53-1.37c-0.4-0.93-0.88-1.82-1.44-2.65
					c-0.99-1.47-2.68-3.86-4.59-2.16c-0.72,0.63-1.19,1.6-1.69,2.41c-0.58,0.94-1.13,1.9-1.66,2.86c-1.06,1.94-2.02,3.93-2.89,5.96
					c-0.21,0.5-0.15,1.07,0.36,1.37C178.11,27.52,178.85,27.42,179.06,26.92L179.06,26.92z"/>
			</g>
		</g>
		<g>
			<g>
				<path class="st1" d="M221.76,22.82c0.85-1.79,1.72-3.57,2.62-5.34c0.45-0.88,0.9-1.77,1.36-2.65c0.34-0.65,0.63-1.46,1.19-1.96
					c0.13-0.11,0.08-0.08,0.24,0.15c0.25,0.35,0.43,0.76,0.63,1.13c0.5,0.9,1,1.8,1.49,2.7c0.96,1.73,1.91,3.46,2.87,5.18
					c0.62,1.13,2.35,0.12,1.73-1.01c-1.11-2-2.22-4.01-3.33-6.01c-0.55-0.99-1.05-2.04-1.67-3c-0.52-0.8-1.33-1.37-2.32-1.15
					c-0.85,0.19-1.46,0.94-1.87,1.66c-0.58,1.01-1.09,2.07-1.61,3.1c-1.05,2.05-2.06,4.11-3.05,6.19
					C219.49,22.97,221.21,23.98,221.76,22.82L221.76,22.82z"/>
			</g>
		</g>
	</g>
	<g class="st2">
		<g class="st3">
			<g>
				<path class="st1" d="M104.51,127.57c12.65-0.02,25.36,2.19,37.03,7.15c3.09,1.31,6.07,2.84,9.01,4.46
					c2.51,1.38,4.96,2.86,7.25,4.58c3.94,2.94,7.34,6.53,9.89,10.61c2.1,3.37,3.58,7.07,4.75,10.85c1.95,6.29,3.18,12.81,4.15,19.32
					c1.87,12.56,1.99,25.19,2.05,37.85c0.07,13.28,0.07,26.55-0.01,39.83c-0.01,1.37-0.02,2.75-0.03,4.12c-0.01,1.29,1.99,1.29,2,0
					c0.09-13.04,0.11-26.09,0.06-39.13c-0.05-12.93,0.05-25.89-1.54-38.75c-0.87-6.99-2.05-13.98-3.89-20.78
					c-1.17-4.33-2.64-8.64-4.8-12.58c-2.09-3.82-4.91-7.26-8.12-10.19c-4.49-4.1-9.85-7.14-15.27-9.84
					c-11.95-5.94-25.16-8.96-38.47-9.43c-1.35-0.05-2.71-0.07-4.07-0.07C103.22,125.57,103.22,127.57,104.51,127.57L104.51,127.57z"
					/>
			</g>
		</g>
		<g class="st3">
			<g>
				<path class="st1" d="M111.52,120.35c-3.75,1.27-7.13,3.46-9.78,6.4c-0.54,0.6-0.26,1.39,0.44,1.67c2.93,1.18,5.57,3.01,7.74,5.3
					c0.89,0.94,2.3-0.48,1.41-1.41c-2.42-2.56-5.36-4.51-8.62-5.82c0.15,0.56,0.29,1.11,0.44,1.67c2.42-2.68,5.47-4.72,8.9-5.88
					C113.26,121.87,112.74,119.94,111.52,120.35L111.52,120.35z"/>
			</g>
		</g>
		<g class="st3">
			<g>
				<path class="st1" d="M170.22,256.45c2.24,4.47,4.88,8.72,7.89,12.71c0.48,0.63,1.25,0.64,1.73,0c2.82-3.78,5.59-7.59,8.3-11.45
					c0.74-1.06-0.99-2.06-1.73-1.01c-2.71,3.86-5.48,7.67-8.3,11.45c0.58,0,1.15,0,1.73,0c-3.01-3.99-5.65-8.25-7.89-12.71
					C171.37,254.29,169.64,255.31,170.22,256.45L170.22,256.45z"/>
			</g>
		</g>
	</g>
	<g>
		<g>
			<g>
				<path class="st1" d="M233,267.74c-0.03-9.45,0.59-18.91,1.89-28.27c1.32-9.44,3.26-18.82,6.08-27.93
					c2.53-8.17,5.75-16.1,9.16-23.94c4.43-10.16,8.99-20.28,13.81-30.26c4.34-9,8.97-17.88,14.2-26.39
					c4.49-7.3,9.44-14.33,15.06-20.82c2.68-3.09,5.49-6.06,8.45-8.89c3.56-3.4,7.29-6.81,11.7-9.08c4.12-2.13,8.94-2.91,13.35-1.18
					c3.74,1.47,6.61,4.57,9.27,7.47c3.49,3.8,6.9,7.65,10.93,10.9c2.38,1.92,4.9,3.65,7.56,5.15c7.43,4.2,15.74,6.68,24.15,7.92
					c2.69,0.39,5.39,0.67,8.11,0.85c1.29,0.08,1.28-1.92,0-2c-9.48-0.62-19.02-2.52-27.64-6.62c-2.99-1.42-5.86-3.1-8.55-5.03
					c-3.67-2.63-6.91-5.78-9.97-9.09c-2.97-3.22-5.79-6.71-9.37-9.3c-3.48-2.52-7.68-3.62-11.95-3.06
					c-5.05,0.67-9.46,3.45-13.34,6.59c-3.52,2.85-6.8,6.04-9.92,9.32c-5.84,6.13-11.06,12.84-15.76,19.88
					c-5.35,8.02-10.04,16.47-14.41,25.06c-5.15,10.14-9.83,20.52-14.47,30.9c-3.74,8.34-7.41,16.74-10.43,25.37
					c-2.89,8.26-5.06,16.73-6.63,25.34c-1.87,10.26-2.95,20.67-3.23,31.1c-0.05,2-0.07,3.99-0.07,5.99
					C231,269.03,233,269.03,233,267.74L233,267.74z"/>
			</g>
		</g>
		<g>
			<g>
				<path class="st1" d="M225.99,257.07c-0.26-0.6-1.02-0.83-1.58-0.51c-0.51,0.3-0.76,0.96-0.76,1.52
					c-0.01,0.74,0.49,1.27,0.9,1.85c0.51,0.71,1.01,1.41,1.52,2.12c1.97,2.76,3.95,5.52,5.92,8.28c0.52,0.72,1.52,0.6,1.83-0.24
					c1.42-3.81,3.86-7.17,6.99-9.75c0.99-0.82-0.43-2.23-1.41-1.41c-3.41,2.81-5.97,6.5-7.51,10.64c0.61-0.08,1.22-0.16,1.83-0.24
					c-1.47-2.05-2.94-4.11-4.4-6.16c-0.72-1.01-1.44-2.02-2.17-3.03c-0.36-0.5-0.72-1.01-1.08-1.51c-0.1-0.13-0.19-0.27-0.29-0.4
					c-0.14-0.25-0.18-0.28-0.12-0.06c-0.22-0.01,0.22-0.22-0.02-0.02c-0.15,0.09-0.29,0.17-0.44,0.26c0.02-0.01,0.04-0.01,0.06-0.02
					c-0.18,0-0.35,0-0.53,0c0.02,0,0.04,0.01,0.06,0.01c-0.15-0.09-0.29-0.17-0.44-0.26c-0.02-0.02-0.04-0.03-0.06-0.05
					c0.21,0.5,0.94,0.61,1.37,0.36C226.14,258.14,226.2,257.57,225.99,257.07L225.99,257.07z"/>
			</g>
		</g>
		<g>
			<g>
				<path class="st1" d="M377.78,115.06c-0.02,0.02-0.03,0.05-0.05,0.07c0.2-0.15,0.4-0.31,0.6-0.46c-0.02,0.01-0.05,0.01-0.07,0.02
					c0.18,0,0.35,0,0.53,0c-0.03-0.01-0.05-0.02-0.08-0.03c0.15,0.09,0.29,0.17,0.44,0.26c0.05,0.12,0.09,0.24,0.14,0.36
					c-0.05,0.17-0.09,0.34-0.14,0.5c0.02-0.03,0.04-0.05,0.06-0.08c-0.12,0.12-0.24,0.24-0.36,0.36c0.05-0.03,0.1-0.05,0.15-0.08
					c-0.17,0.05-0.34,0.09-0.5,0.14c0.31-0.02,0.77,0.41,1.04,0.57c0.39,0.24,0.78,0.47,1.18,0.71c0.82,0.49,1.64,0.98,2.46,1.48
					c0.78,0.47,1.57,0.94,2.35,1.41c0.74,0.45,1.57,0.84,2.26,1.37c0.18,0.13,0.33,0.26,0.32,0.38c-0.03,0.23-0.46,0.51-0.61,0.65
					c-0.69,0.63-1.39,1.26-2.08,1.89c-1.39,1.26-2.77,2.52-4.16,3.78c-0.95,0.87,0.46,2.28,1.41,1.41c1.57-1.42,3.13-2.85,4.7-4.27
					c1.19-1.08,3.55-2.62,2.47-4.52c-0.44-0.78-1.29-1.21-2.03-1.65c-0.93-0.56-1.86-1.11-2.78-1.67c-0.96-0.58-1.93-1.16-2.89-1.73
					c-0.9-0.54-1.79-1.18-2.75-1.62c-0.95-0.43-2.4,0.06-2.09,1.33c0.26,1.07,1.57,1.32,2.19,0.43
					C380.24,115.01,378.51,114.01,377.78,115.06L377.78,115.06z"/>
			</g>
		</g>
	</g>
	<g class="st2">
		<g class="st3">
			<g>
				<path class="st1" d="M186.92,239.55c0.14-3.35,0.21-6.69,0.34-10.04c0.27-6.8,0.62-13.59,1.08-20.38
					c0.54-7.86,1.21-15.72,2.21-23.53c0.83-6.55,1.81-13.19,3.72-19.53c0.53-1.74,1.16-3.46,1.87-5.14c1.05-2.51,2.3-5.04,4.03-7.16
					c0.37-0.45,0.76-0.88,1.17-1.29c0.09-0.09,0.17-0.16,0.26-0.24c0.17-0.16-0.12,0.08,0.12-0.09c0.66-0.46,1.35-0.87,2.09-1.18
					c2.13-0.91,4.54-1.01,6.59,0.18c3.17,1.83,4.78,5.65,5.9,8.96c0.76,2.24,1.26,4.56,1.7,6.88c1.22,6.43,1.87,12.89,2.43,19.43
					c0.64,7.53,1.07,15.08,1.41,22.63c0.29,6.68,0.51,13.37,0.65,20.06c0.09,3.97,0.15,7.94,0.19,11.91c0,0.34,0.01,0.69,0.01,1.03
					c0.01,1.29,2.01,1.29,2,0c-0.02-3.12-0.06-6.24-0.12-9.36c-0.12-6.33-0.29-12.67-0.54-19c-0.29-7.64-0.68-15.28-1.25-22.91
					c-0.53-7.04-1.17-14.09-2.28-21.07c-0.87-5.46-1.95-11.28-4.93-16.04c-1.31-2.09-3.05-3.91-5.37-4.85
					c-2.31-0.93-4.88-0.66-7.13,0.29c-1.54,0.65-2.82,1.53-3.92,2.79c-1.84,2.1-3.2,4.58-4.34,7.12
					c-2.84,6.36-4.25,13.13-5.32,19.98c-1.23,7.86-2.03,15.79-2.66,23.73c-0.59,7.37-1.03,14.76-1.36,22.14
					c-0.2,4.51-0.36,9.02-0.5,13.53c-0.01,0.38-0.02,0.76-0.04,1.14C184.86,240.84,186.86,240.84,186.92,239.55L186.92,239.55z"/>
			</g>
		</g>
		<g class="st3">
			<g>
				<path class="st1" d="M179.13,226.67c0.74,2.3,1.56,4.58,2.47,6.82c0.47,1.15,0.96,2.29,1.47,3.42c0.45,0.99,0.85,2.1,1.49,2.99
					c0.63,0.88,1.65,1.32,2.61,0.64c0.83-0.59,1.36-1.75,1.82-2.63c0.52-0.99,0.96-2.03,1.32-3.09c0.19-0.55,0.36-1.11,0.51-1.68
					c0.07-0.27,0.13-0.54,0.2-0.81c0.03-0.11,0.06-0.23,0.1-0.34c0.1-0.18-0.02-0.15-0.35,0.08c-0.17-0.05-0.34-0.09-0.5-0.14
					c-0.34-0.14-0.19-0.55-0.02-0.74c0.15-0.09,0.29-0.17,0.44-0.26c-0.02,0.01-0.04,0.01-0.06,0.02c0.18,0,0.35,0,0.53,0
					c-0.02,0-0.05-0.01-0.07-0.01c-0.53-0.08-1.07,0.13-1.23,0.7c-0.13,0.47,0.16,1.15,0.7,1.23c2.08,0.3,1.82-3.04,0-2.79
					c-0.94,0.13-1.3,1.07-1.5,1.88c-0.25,0.99-0.53,1.98-0.89,2.93c-0.33,0.88-0.74,1.73-1.2,2.55c-0.22,0.39-0.44,0.78-0.69,1.14
					c-0.12,0.18-0.34,0.31-0.09,0.33c0.27,0.02,0.01-0.16-0.09-0.33c-1.03-1.75-1.79-3.75-2.55-5.63c-0.91-2.24-1.73-4.52-2.47-6.82
					C180.67,224.92,178.74,225.44,179.13,226.67L179.13,226.67z"/>
			</g>
		</g>
		<g class="st3">
			<g>
				<path class="st1" d="M217.28,231.56c0.87,2.44,1.76,4.87,2.69,7.29c0.46,1.2,0.92,2.41,1.4,3.6c0.36,0.89,0.85,1.96,1.85,2.27
					c1.11,0.35,1.92-0.51,2.34-1.43c0.53-1.17,0.99-2.38,1.49-3.57c1-2.41,2-4.81,3-7.22c0.21-0.5-0.22-1.1-0.7-1.23
					c-0.58-0.16-1.02,0.2-1.23,0.7c-0.84,2.03-1.69,4.06-2.53,6.09c-0.41,0.98-0.81,1.95-1.22,2.93c-0.2,0.49-0.39,1-0.62,1.47
					c0-0.01-0.24,0.42-0.24,0.41c0.14-0.09,0.27-0.1,0.38-0.01c-0.05-0.04-0.1-0.09-0.14-0.15c-0.52-0.79-0.81-1.72-1.15-2.6
					c-0.38-0.98-0.76-1.96-1.13-2.94c-0.77-2.04-1.53-4.1-2.26-6.16C218.78,229.82,216.85,230.34,217.28,231.56L217.28,231.56z"/>
			</g>
		</g>
	</g>
	<g class="st2">
		<g class="st3">
			<g>
				<path class="st1" d="M98.23,117.96c9.61,0.01,19.24-0.76,28.69-2.53c5.38-1.01,10.69-2.35,15.88-4.08
					c4.44-1.48,8.87-3.05,12.96-5.36c3.09-1.75,6.06-3.9,8.39-6.6c2.39-2.77,4.07-6.02,5.4-9.4c3.46-8.83,4.63-18.22,4.76-27.65
					c0.14-9.83,0.14-19.66,0.05-29.49c-0.01-1.02-0.02-2.05-0.03-3.07c-0.01-1.29-2.01-1.29-2,0c0.11,9.51,0.11,19.03,0.03,28.54
					c-0.04,4.25-0.06,8.5-0.45,12.73c-0.46,4.91-1.45,9.75-2.91,14.46c-1.18,3.81-2.69,7.58-5,10.85c-1.68,2.39-3.86,4.36-6.25,6.02
					c-3.9,2.71-8.26,4.56-12.72,6.11c-4.9,1.7-9.87,3.16-14.94,4.26c-9.45,2.06-19.13,3.02-28.79,3.18
					c-1.02,0.02-2.03,0.02-3.05,0.02C96.95,115.96,96.94,117.96,98.23,117.96L98.23,117.96z"/>
			</g>
		</g>
		<g class="st3">
			<g>
				<path class="st1" d="M105.77,119.28c-3.23-0.68-6.37-1.84-9.1-3.73c-0.08,0.61-0.16,1.22-0.24,1.83
					c2.96-0.74,5.86-1.88,8.42-3.57c0.45-0.3,0.64-0.88,0.36-1.37c-0.26-0.45-0.92-0.66-1.37-0.36c-2.42,1.6-5.13,2.66-7.94,3.37
					c-0.89,0.22-0.91,1.36-0.24,1.83c2.85,1.97,6.2,3.22,9.58,3.93c0.53,0.11,1.08-0.16,1.23-0.7
					C106.61,120.01,106.3,119.39,105.77,119.28L105.77,119.28z"/>
			</g>
		</g>
		<g class="st3">
			<g>
				<path class="st1" d="M165.51,36.97c2.34-2.91,5.01-5.55,7.89-7.93c-0.47,0-0.94,0-1.41,0c2.8,2.34,5.57,4.72,8.3,7.14
					c0.96,0.85,2.38-0.56,1.41-1.41c-2.73-2.42-5.5-4.8-8.3-7.14c-0.45-0.37-0.97-0.37-1.41,0c-2.88,2.38-5.54,5.02-7.89,7.93
					c-0.34,0.42-0.41,1,0,1.41C164.45,37.32,165.17,37.4,165.51,36.97L165.51,36.97z"/>
			</g>
		</g>
	</g>
</g>
<g class="st2">
	<g class="st3">
		<g>
			<g>
				<path class="st4" d="M188.42,28.08c1.11-1.79,2.86-3.15,4.88-3.77c1.55-0.48,4.38-0.8,5.03,1.2c0.62,1.9-1.1,3.68-2.58,4.54
					c-1.02,0.6-2.13,1.03-3.21,1.52c-0.94,0.42-2.31,0.93-2.31,2.17c0,0.77,0.6,1.48,0.98,2.1c0.38,0.63,0.77,1.26,1.15,1.88
					c0.85,1.4,1.71,2.79,2.56,4.19c0.46-0.46,0.91-0.91,1.37-1.37c-0.35-0.17-0.7-0.32-1.07-0.46c-1.21-0.45-1.73,1.48-0.53,1.93
					c0.2,0.08,0.39,0.16,0.59,0.25c0.85,0.42,1.92-0.46,1.37-1.37c-0.77-1.26-1.53-2.51-2.3-3.77c-0.36-0.59-0.72-1.19-1.09-1.78
					c-0.33-0.54-0.97-1.26-1.07-1.88c0,0.18,0,0.35,0,0.53c0.02-0.1-0.04-0.01-0.05-0.01c0.05,0,0.25-0.15,0.27-0.16
					c0.21-0.12,0.44-0.22,0.66-0.32c0.51-0.24,1.02-0.46,1.53-0.68c0.98-0.43,1.97-0.88,2.85-1.5c1.59-1.11,2.76-2.75,2.95-4.72
					c0.19-2.02-1.03-3.72-2.92-4.36c-1.83-0.62-3.96-0.24-5.7,0.48c-2.11,0.88-3.89,2.39-5.1,4.33
					C186.02,28.17,187.74,29.18,188.42,28.08L188.42,28.08z"/>
			</g>
		</g>
		<g>
			<g>
				<path class="st4" d="M197.76,44.97c-0.1-0.02-0.21-0.04-0.31-0.04c-0.01,0-0.02,0-0.03,0c-0.08,0-0.21,0.02-0.29,0.04
					c-0.06,0.01-0.11,0.04-0.17,0.06c-0.05,0.02-0.11,0.04-0.16,0.07c-0.08,0.05-0.17,0.12-0.24,0.19
					c-0.01,0.01-0.03,0.03-0.04,0.04c-0.08,0.09-0.16,0.19-0.22,0.3c-0.05,0.11-0.11,0.23-0.14,0.35c-0.03,0.13-0.05,0.26-0.06,0.39
					c0,0.04,0,0.09,0,0.13c0.02,0.14,0.04,0.29,0.06,0.43c-0.01-0.09-0.02-0.18-0.04-0.27c0.02,0.11,0.03,0.23,0.01,0.34
					c0.01-0.09,0.02-0.18,0.04-0.27c-0.01,0.04-0.02,0.09-0.03,0.13c0.03-0.08,0.07-0.16,0.1-0.24c-0.01,0.03-0.03,0.06-0.05,0.08
					c0.05-0.07,0.1-0.13,0.16-0.2c-0.01,0.02-0.02,0.03-0.04,0.04c0.07-0.05,0.13-0.1,0.2-0.16c-0.01,0.01-0.03,0.02-0.04,0.02
					c0.08-0.03,0.16-0.07,0.24-0.1c-0.02,0.01-0.04,0.01-0.06,0.02c0.09-0.01,0.18-0.02,0.27-0.04c-0.02,0-0.05,0-0.07,0
					c0.09,0.01,0.18,0.02,0.27,0.04c-0.03,0-0.05-0.01-0.08-0.02c0.08,0.03,0.16,0.07,0.24,0.1c-0.03-0.01-0.06-0.03-0.08-0.05
					c0.07,0.05,0.13,0.1,0.2,0.16c-0.02-0.01-0.03-0.03-0.05-0.05c0.05,0.07,0.1,0.13,0.16,0.2c-0.01-0.01-0.02-0.03-0.03-0.04
					c0.03,0.08,0.07,0.16,0.1,0.24c0-0.01-0.01-0.02-0.01-0.03c0.01,0.09,0.02,0.18,0.04,0.27c0-0.01,0-0.02,0-0.03
					c-0.01,0.09-0.02,0.18-0.04,0.27c0-0.01,0-0.01,0-0.02c-0.03,0.08-0.07,0.16-0.1,0.24c0-0.01,0.01-0.02,0.01-0.02
					c-0.05,0.07-0.1,0.13-0.16,0.2c0.01-0.01,0.02-0.02,0.03-0.03c-0.07,0.05-0.13,0.1-0.2,0.16c0,0,0.01,0,0.01-0.01
					c0.12-0.06,0.21-0.15,0.28-0.26c0.09-0.1,0.15-0.21,0.18-0.34c0.04-0.13,0.05-0.27,0.02-0.4c-0.01-0.13-0.05-0.26-0.12-0.37
					c-0.14-0.21-0.34-0.4-0.6-0.46c-0.25-0.06-0.55-0.05-0.77,0.1c-0.08,0.05-0.16,0.11-0.23,0.18c0,0-0.01,0.01-0.01,0.02
					c-0.05,0.07-0.1,0.13-0.16,0.2c-0.1,0.18-0.15,0.34-0.15,0.55c-0.01,0.21,0.06,0.44,0.17,0.61c0.12,0.18,0.27,0.34,0.47,0.44
					c0.1,0.05,0.2,0.1,0.31,0.13c0.05,0.01,0.12,0.02,0.17,0.03c0.05,0.01,0.11,0.02,0.17,0.02c0.11,0,0.23-0.02,0.33-0.04
					c0.01,0,0.01,0,0.02-0.01c0.08-0.03,0.16-0.07,0.24-0.1c0.01-0.01,0.03-0.02,0.04-0.02c0.28-0.18,0.46-0.44,0.56-0.76
					c0.11-0.35,0.04-0.7-0.01-1.05c0.01,0.09,0.02,0.18,0.04,0.27c-0.01-0.08-0.02-0.16-0.01-0.25c-0.01,0.09-0.02,0.18-0.04,0.27
					c0.01-0.06,0.02-0.12,0.05-0.17c-0.03,0.08-0.07,0.16-0.1,0.24c0.02-0.04,0.04-0.08,0.07-0.12c-0.05,0.07-0.1,0.13-0.16,0.2
					c0.02-0.02,0.04-0.04,0.06-0.06c-0.07,0.05-0.13,0.1-0.2,0.16c0.02-0.01,0.04-0.02,0.06-0.03c-0.08,0.03-0.16,0.07-0.24,0.1
					c0.02-0.01,0.03-0.01,0.05-0.01c-0.09,0.01-0.18,0.02-0.27,0.04c0.02,0,0.05,0,0.07,0c-0.09-0.01-0.18-0.02-0.27-0.04
					c0.01,0,0.01,0,0.02,0c0.13,0.04,0.27,0.05,0.4,0.02c0.13-0.01,0.26-0.05,0.37-0.12c0.12-0.06,0.21-0.15,0.28-0.26
					c0.09-0.1,0.15-0.21,0.18-0.34c0.06-0.26,0.05-0.54-0.1-0.77C198.23,45.22,198.02,45.01,197.76,44.97L197.76,44.97z"/>
			</g>
		</g>
		<g>
			<g>
				<path class="st4" d="M204.26,20.49c1.08-0.66,2.49-0.29,3.33,0.61c1.09,1.17,0.98,3.06,0.31,4.41c-0.74,1.5-2.11,2.55-3.57,3.31
					c-0.76,0.4-1.7,0.68-2.01,1.58c-0.31,0.94,0.22,1.75,0.79,2.46c1.47,1.83,3.01,3.6,4.6,5.34c0.4-0.52,0.81-1.05,1.21-1.57
					c-0.29-0.13-0.58-0.26-0.87-0.38c-0.49-0.22-1.07-0.14-1.37,0.36c-0.25,0.43-0.14,1.15,0.36,1.37c0.29,0.13,0.58,0.26,0.87,0.38
					c1.01,0.45,2.02-0.69,1.21-1.57c-1.48-1.62-2.91-3.27-4.29-4.97c-0.15-0.19-0.32-0.37-0.46-0.58c-0.05-0.07-0.08-0.17-0.13-0.23
					c-0.09-0.12-0.08,0.09,0.01,0.07c0.38-0.06,0.84-0.4,1.18-0.58c0.84-0.44,1.63-0.99,2.34-1.62c2.67-2.37,3.93-7.16,0.7-9.67
					c-1.48-1.15-3.58-1.46-5.22-0.46C202.16,19.43,203.16,21.17,204.26,20.49L204.26,20.49z"/>
			</g>
		</g>
		<g>
			<g>
				<path class="st4" d="M210.87,41.49c-0.03-0.02-0.06-0.03-0.08-0.05c0.07,0.05,0.13,0.1,0.2,0.16c-0.05-0.04-0.09-0.08-0.12-0.12
					c0.05,0.07,0.1,0.13,0.16,0.2c-0.03-0.05-0.06-0.1-0.09-0.15c0.03,0.08,0.07,0.16,0.1,0.24c-0.03-0.06-0.04-0.13-0.05-0.19
					c0.01,0.09,0.02,0.18,0.04,0.27c-0.01-0.07-0.01-0.13,0-0.2c-0.01,0.09-0.02,0.18-0.04,0.27c0.01-0.06,0.02-0.11,0.05-0.17
					c-0.03,0.08-0.07,0.16-0.1,0.24c0.01-0.02,0.02-0.04,0.03-0.07c-0.58,0-1.15,0-1.73,0c0.03,0.06,0.05,0.12,0.08,0.18
					c-0.03-0.08-0.07-0.16-0.1-0.24c0.12,0.29,0.23,0.59,0.27,0.9c-0.01-0.09-0.02-0.18-0.04-0.27c0.02,0.13,0.02,0.26,0,0.4
					c0.01-0.09,0.02-0.18,0.04-0.27c-0.01,0.11-0.04,0.22-0.09,0.32c0.03-0.08,0.07-0.16,0.1-0.24c-0.03,0.06-0.06,0.13-0.1,0.18
					c0.05-0.07,0.1-0.13,0.16-0.2c-0.03,0.04-0.07,0.08-0.12,0.12c0.07-0.05,0.13-0.1,0.2-0.16c-0.05,0.04-0.1,0.07-0.16,0.09
					c0.08-0.03,0.16-0.07,0.24-0.1c-0.07,0.03-0.14,0.05-0.22,0.06c0.09-0.01,0.18-0.02,0.27-0.04c-0.09,0.01-0.18,0.01-0.26,0
					c0.09,0.01,0.18,0.02,0.27,0.04c-0.08-0.01-0.17-0.03-0.25-0.07c0.08,0.03,0.16,0.07,0.24,0.1c-0.05-0.02-0.1-0.05-0.15-0.08
					c0.07,0.05,0.13,0.1,0.2,0.16c-0.04-0.03-0.07-0.06-0.1-0.1c0.05,0.07,0.1,0.13,0.16,0.2c-0.02-0.03-0.04-0.06-0.05-0.09
					c0.03,0.08,0.07,0.16,0.1,0.24c-0.01-0.03-0.02-0.06-0.03-0.09c0.01,0.09,0.02,0.18,0.04,0.27c-0.01-0.04-0.01-0.08,0-0.11
					c-0.01,0.09-0.02,0.18-0.04,0.27c0-0.03,0.01-0.06,0.02-0.09c0.07-0.25,0.03-0.55-0.1-0.77c-0.12-0.21-0.36-0.41-0.6-0.46
					c-0.26-0.06-0.54-0.05-0.77,0.1c-0.22,0.14-0.38,0.34-0.46,0.6c-0.15,0.5,0,1.09,0.39,1.44c0.35,0.31,0.79,0.47,1.26,0.47
					c0.47,0,0.93-0.17,1.27-0.5c0.22-0.21,0.36-0.49,0.45-0.78c0.08-0.24,0.11-0.52,0.1-0.77c-0.04-0.61-0.25-1.15-0.49-1.7
					c-0.09-0.15-0.21-0.27-0.36-0.36c-0.16-0.09-0.32-0.14-0.5-0.14c-0.35,0-0.69,0.19-0.86,0.5c-0.45,0.79-0.18,1.87,0.63,2.32
					c0.23,0.13,0.52,0.17,0.77,0.1c0.23-0.06,0.48-0.24,0.6-0.46c0.12-0.23,0.18-0.51,0.1-0.77
					C211.25,41.84,211.1,41.62,210.87,41.49L210.87,41.49z"/>
			</g>
		</g>
		<g>
			<g>
				<path class="st4" d="M213.45,22.4c1.41-0.75,3.05-1.54,4.68-1.14c1.35,0.33,2.12,1.4,1.99,2.79c-0.32,3.26-4.02,4.3-6.65,5.04
					c-0.86,0.24-0.95,1.37-0.24,1.83c1.93,1.25,3.75,2.65,5.46,4.2c0.79,0.72,2.27-0.24,1.57-1.21c-0.2-0.28-0.41-0.56-0.61-0.85
					c-0.32-0.44-0.87-0.65-1.37-0.36c-0.43,0.25-0.68,0.93-0.36,1.37c0.2,0.28,0.41,0.56,0.61,0.85c0.52-0.4,1.05-0.81,1.57-1.21
					c-1.83-1.66-3.79-3.17-5.87-4.51c-0.08,0.61-0.16,1.22-0.24,1.83c2.01-0.56,4.05-1.18,5.7-2.5c1.49-1.18,2.5-3.05,2.42-4.98
					c-0.08-2.03-1.42-3.66-3.38-4.19c-2.21-0.59-4.39,0.29-6.31,1.32C211.3,21.28,212.31,23.01,213.45,22.4L213.45,22.4z"/>
			</g>
		</g>
		<g>
			<g>
				<path class="st4" d="M221.41,39.32c-0.03-0.02-0.07-0.04-0.1-0.06c0.07,0.05,0.13,0.1,0.2,0.16c-0.04-0.03-0.08-0.07-0.12-0.12
					c0.05,0.07,0.1,0.13,0.16,0.2c-0.04-0.05-0.06-0.1-0.09-0.16c0.03,0.08,0.07,0.16,0.1,0.24c-0.03-0.07-0.04-0.13-0.05-0.2
					c0.01,0.09,0.02,0.18,0.04,0.27c-0.01-0.08-0.01-0.15,0-0.23c-0.01,0.09-0.02,0.18-0.04,0.27c0.01-0.07,0.03-0.14,0.05-0.2
					c-0.03,0.08-0.07,0.16-0.1,0.24c0.02-0.06,0.05-0.11,0.09-0.15c-0.05,0.07-0.1,0.13-0.16,0.2c0.03-0.04,0.07-0.07,0.11-0.11
					c-0.07,0.05-0.13,0.1-0.2,0.16c0.03-0.02,0.05-0.04,0.08-0.05c-0.34,0-0.67,0-1.01,0c0.03,0.02,0.06,0.04,0.08,0.06
					c-0.07-0.05-0.13-0.1-0.2-0.16c0.05,0.04,0.09,0.08,0.13,0.13c-0.05-0.07-0.1-0.13-0.16-0.2c0.04,0.06,0.07,0.11,0.1,0.18
					c-0.03-0.08-0.07-0.16-0.1-0.24c0.03,0.07,0.05,0.14,0.06,0.21c-0.01-0.09-0.02-0.18-0.04-0.27c0.01,0.07,0.01,0.14,0,0.2
					c0.01-0.09,0.02-0.18,0.04-0.27c-0.01,0.06-0.02,0.11-0.04,0.16c-0.04,0.13-0.05,0.27-0.02,0.4c0.01,0.13,0.05,0.26,0.12,0.37
					c0.06,0.12,0.15,0.21,0.26,0.28c0.1,0.09,0.21,0.15,0.34,0.18c0.26,0.06,0.54,0.05,0.77-0.1c0.07-0.05,0.13-0.1,0.2-0.16
					c0.12-0.12,0.21-0.27,0.26-0.44c0.02-0.05,0.03-0.1,0.04-0.15c0.02-0.13,0.05-0.28,0.05-0.42c-0.01-0.13-0.02-0.27-0.05-0.4
					c-0.02-0.09-0.06-0.18-0.1-0.27c-0.03-0.08-0.07-0.17-0.11-0.24c-0.07-0.11-0.16-0.22-0.25-0.32c-0.09-0.09-0.2-0.17-0.31-0.25
					c-0.32-0.22-0.76-0.22-1.09-0.03c-0.1,0.06-0.2,0.14-0.29,0.22c-0.09,0.08-0.16,0.19-0.24,0.29c-0.02,0.03-0.05,0.07-0.07,0.1
					c-0.06,0.11-0.11,0.23-0.15,0.35c-0.1,0.32-0.1,0.7,0,1.02c0.04,0.12,0.09,0.24,0.15,0.36c0.06,0.12,0.15,0.22,0.23,0.32
					c0.11,0.14,0.26,0.25,0.41,0.33c0.11,0.07,0.24,0.11,0.37,0.12c0.13,0.03,0.27,0.02,0.4-0.02c0.13-0.03,0.24-0.09,0.34-0.18
					c0.11-0.07,0.19-0.16,0.26-0.28c0.12-0.23,0.18-0.51,0.1-0.77C221.79,39.68,221.64,39.44,221.41,39.32L221.41,39.32z"/>
			</g>
		</g>
	</g>
	<g class="st3">
		<g>
			<g>
				<path class="st4" d="M196.27,222.23c0-0.06,0-0.12,0.01-0.18c-0.01,0.09-0.02,0.18-0.04,0.27c0.02-0.13,0.05-0.26,0.11-0.39
					c-0.03,0.08-0.07,0.16-0.1,0.24c0.05-0.12,0.12-0.24,0.2-0.35c-0.05,0.07-0.1,0.13-0.16,0.2c0.08-0.11,0.18-0.2,0.28-0.28
					c-0.07,0.05-0.13,0.1-0.2,0.16c0.1-0.07,0.2-0.13,0.31-0.18c-0.08,0.03-0.16,0.07-0.24,0.1c0.01,0,0.01-0.01,0.02-0.01
					c-0.32-0.09-0.65-0.17-0.97-0.26c0.04,0.04,0.07,0.08,0.1,0.12c-0.05-0.07-0.1-0.13-0.16-0.2c0.08,0.11,0.15,0.23,0.21,0.35
					c-0.03-0.08-0.07-0.16-0.1-0.24c0.06,0.13,0.09,0.27,0.12,0.42c-0.01-0.09-0.02-0.18-0.04-0.27c0,0.04,0.01,0.08,0.01,0.11
					c0.33-0.33,0.67-0.67,1-1c-0.05,0-0.1,0-0.15,0c0.09,0.01,0.18,0.02,0.27,0.04c-0.08-0.01-0.15-0.03-0.22-0.06
					c0.08,0.03,0.16,0.07,0.24,0.1c-0.08-0.03-0.15-0.08-0.22-0.13c0.07,0.05,0.13,0.1,0.2,0.16c-0.07-0.05-0.13-0.11-0.18-0.18
					c0.05,0.07,0.1,0.13,0.16,0.2c-0.05-0.06-0.09-0.13-0.12-0.2c0.03,0.08,0.07,0.16,0.1,0.24c-0.03-0.07-0.05-0.13-0.06-0.2
					c0.01,0.09,0.02,0.18,0.04,0.27c0-0.01,0-0.01,0-0.02c0.01-0.14-0.02-0.27-0.09-0.39c-0.04-0.12-0.11-0.23-0.21-0.32
					c-0.09-0.1-0.2-0.17-0.32-0.21c-0.12-0.06-0.25-0.09-0.39-0.09c-0.26,0.01-0.53,0.1-0.71,0.29c-0.05,0.07-0.1,0.13-0.16,0.2
					c-0.09,0.16-0.14,0.32-0.14,0.5c0.02,0.14,0.03,0.29,0.07,0.43c0.04,0.13,0.1,0.27,0.17,0.39c0.07,0.12,0.16,0.23,0.25,0.34
					c0.04,0.05,0.08,0.09,0.13,0.13c0.1,0.09,0.21,0.18,0.33,0.25c0.12,0.07,0.26,0.12,0.39,0.17c0.06,0.02,0.12,0.04,0.18,0.05
					c0.14,0.02,0.29,0.05,0.44,0.04c0.25-0.01,0.53-0.1,0.71-0.29c0.17-0.19,0.31-0.44,0.29-0.71c-0.01-0.18-0.03-0.36-0.08-0.54
					c-0.04-0.17-0.12-0.34-0.19-0.5c-0.11-0.25-0.28-0.48-0.47-0.68c-0.12-0.12-0.27-0.21-0.44-0.26c-0.18-0.05-0.35-0.05-0.53,0
					c-0.15,0.06-0.3,0.12-0.44,0.2c-0.13,0.08-0.25,0.18-0.37,0.27c-0.18,0.15-0.33,0.34-0.46,0.54c-0.13,0.19-0.22,0.42-0.3,0.63
					c-0.07,0.23-0.11,0.47-0.11,0.71c0,0.25,0.11,0.53,0.29,0.71c0.09,0.1,0.2,0.17,0.32,0.21c0.12,0.06,0.25,0.09,0.39,0.09
					c0.26-0.01,0.53-0.1,0.71-0.29C196.16,222.74,196.26,222.5,196.27,222.23L196.27,222.23z"/>
			</g>
		</g>
		<g>
			<g>
				<path class="st4" d="M200.39,203.99c0.57-0.51,1.47-0.53,2.15-0.23c0.72,0.32,1.14,1.07,1.23,1.83c0.22,1.9-1.49,3.31-3.26,3.45
					c-0.76,0.06-1.24,0.8-0.86,1.5c0.43,0.78,0.93,1.51,1.5,2.2c0.52,0.63,1.13,1.33,1.83,1.75c0.89,0.54,2.26-0.04,1.97-1.22
					c-0.24-0.99-1.54-1.29-2.1-0.38c-0.68,1.1,1.05,2.1,1.73,1.01c0.01-0.02,0.02-0.04,0.04-0.06c-0.2,0.15-0.4,0.31-0.6,0.46
					c0.02,0,0.03-0.01,0.05-0.01c-0.18,0-0.35,0-0.53,0c0.02,0.01,0.04,0.02,0.06,0.02c-0.15-0.09-0.29-0.17-0.44-0.26
					c-0.06-0.15-0.12-0.3-0.18-0.45c0.1-0.24,0.2-0.47,0.29-0.71c-0.02,0.02-0.03,0.04-0.05,0.06c0.15-0.09,0.29-0.17,0.44-0.26
					c0.25,0.08,0.33,0.07,0.22-0.02c-0.06-0.06-0.13-0.11-0.19-0.17c-0.13-0.12-0.25-0.24-0.37-0.36c-0.26-0.26-0.52-0.54-0.75-0.83
					c-0.46-0.55-0.84-1.16-1.18-1.8c-0.29,0.5-0.58,1-0.86,1.5c3.14-0.24,5.76-2.79,5.18-6.06c-0.54-3.07-4.36-4.48-6.71-2.4
					C198.01,203.43,199.43,204.84,200.39,203.99L200.39,203.99z"/>
			</g>
		</g>
		<g>
			<g>
				<path class="st4" d="M205.94,219.15c-0.1-0.02-0.2-0.03-0.29-0.04c-0.01,0-0.02,0-0.03,0c0,0-0.01,0-0.01,0
					c-0.05,0.01-0.22,0.03-0.27,0.04c0,0-0.01,0-0.01,0c-0.01,0-0.02,0.01-0.03,0.01c-0.09,0.03-0.18,0.07-0.26,0.11
					c-0.01,0-0.02,0.01-0.03,0.02c-0.08,0.05-0.15,0.11-0.22,0.17c-0.01,0.01-0.02,0.02-0.03,0.02c0,0-0.01,0.01-0.01,0.01
					c-0.06,0.07-0.11,0.14-0.16,0.21c-0.01,0.01-0.01,0.02-0.02,0.03c-0.01,0.01-0.01,0.02-0.01,0.03
					c-0.02,0.04-0.04,0.09-0.06,0.13c-0.02,0.04-0.04,0.09-0.06,0.13c0,0.01-0.01,0.02-0.01,0.03c0,0.01,0,0.01,0,0.02
					c0,0,0,0.01,0,0.01c-0.01,0.08-0.03,0.19-0.04,0.27c0,0.02,0,0.04,0,0.06c0.01,0.05,0.03,0.21,0.04,0.27c0,0,0,0.01,0,0.01
					c0,0,0,0.01,0,0.01c0,0.01,0.01,0.02,0.01,0.03c0.02,0.05,0.08,0.2,0.1,0.24c0,0,0,0.01,0,0.01c0,0,0,0.01,0.01,0.01
					c0,0,0,0.01,0.01,0.01c0,0,0,0,0.01,0.01c0.05,0.07,0.1,0.13,0.16,0.2c0,0,0,0,0,0.01c0.01,0.01,0.01,0.01,0.02,0.02
					c0,0,0,0,0.01,0.01c0.05,0.04,0.15,0.12,0.21,0.16c0.01,0,0.01,0.01,0.02,0.01c0.04,0.03,0.11,0.05,0.14,0.06
					c0.04,0.02,0.1,0.05,0.15,0.06c0.1,0.02,0.19,0.03,0.29,0.04c0.01,0,0.02,0,0.03,0c0.01,0,0.01,0,0.02,0
					c0.08-0.01,0.19-0.02,0.27-0.04c0,0,0,0,0.01,0c0.01,0,0.02,0,0.03-0.01c0.23-0.08,0.37-0.16,0.55-0.32
					c0.01-0.01,0.02-0.02,0.03-0.03c0,0,0.01-0.01,0.01-0.01c0.05-0.06,0.11-0.14,0.16-0.21c0,0,0,0,0.01-0.01
					c0.01-0.01,0.01-0.02,0.02-0.03c0.04-0.09,0.08-0.18,0.11-0.27c0-0.01,0.01-0.02,0.01-0.03c0.01-0.07,0.03-0.2,0.04-0.27
					c0,0,0-0.01,0-0.01c0-0.01,0-0.01,0-0.02c0-0.01,0-0.01,0-0.02c0-0.05-0.03-0.22-0.04-0.27c0,0,0-0.01,0-0.01
					c0-0.01-0.01-0.03-0.01-0.04c-0.03-0.13-0.09-0.24-0.18-0.34c-0.07-0.11-0.16-0.19-0.28-0.26c-0.11-0.07-0.24-0.11-0.37-0.12
					c-0.13-0.03-0.27-0.02-0.4,0.02c-0.08,0.03-0.16,0.07-0.24,0.1c-0.15,0.09-0.27,0.21-0.36,0.36c-0.03,0.08-0.07,0.16-0.1,0.24
					c-0.05,0.18-0.05,0.35,0,0.53c0.01,0.02,0.01,0.03,0.01,0.05c-0.01-0.09-0.02-0.18-0.04-0.27c0,0.02,0,0.03,0,0.05
					c0.01-0.09,0.02-0.18,0.04-0.27c0,0.02-0.01,0.03-0.01,0.05c0.03-0.08,0.07-0.16,0.1-0.24c-0.01,0.02-0.02,0.04-0.03,0.06
					c0.05-0.07,0.1-0.13,0.16-0.2c-0.02,0.02-0.03,0.04-0.05,0.05c0.07-0.05,0.13-0.1,0.2-0.16c-0.02,0.02-0.05,0.03-0.07,0.04
					c0.08-0.03,0.16-0.07,0.24-0.1c-0.02,0.01-0.04,0.01-0.07,0.02c0.09-0.01,0.18-0.02,0.27-0.04c-0.02,0-0.04,0-0.06,0
					c0.09,0.01,0.18,0.02,0.27,0.04c-0.02,0-0.03-0.01-0.05-0.01c0.08,0.03,0.16,0.07,0.24,0.1c-0.02-0.01-0.03-0.02-0.04-0.03
					c0.07,0.05,0.13,0.1,0.2,0.16c-0.01-0.01-0.02-0.02-0.03-0.03c0.05,0.07,0.1,0.13,0.16,0.2c-0.01-0.01-0.02-0.03-0.02-0.04
					c0.03,0.08,0.07,0.16,0.1,0.24c-0.01-0.02-0.01-0.03-0.01-0.05c0.01,0.09,0.02,0.18,0.04,0.27c0-0.02,0-0.04,0-0.06
					c-0.01,0.09-0.02,0.18-0.04,0.27c0-0.03,0.01-0.05,0.02-0.07c-0.03,0.08-0.07,0.16-0.1,0.24c0.01-0.02,0.02-0.05,0.04-0.07
					c-0.05,0.07-0.1,0.13-0.16,0.2c0.01-0.02,0.03-0.04,0.05-0.05c-0.07,0.05-0.13,0.1-0.2,0.16c0.02-0.01,0.03-0.02,0.05-0.03
					c-0.08,0.03-0.16,0.07-0.24,0.1c0.02-0.01,0.03-0.01,0.05-0.01c-0.09,0.01-0.18,0.02-0.27,0.04c0.02,0,0.03,0,0.05,0
					c-0.09-0.01-0.18-0.02-0.27-0.04c0.01,0,0.01,0,0.02,0c0.13,0.04,0.27,0.05,0.4,0.02c0.13-0.01,0.26-0.05,0.37-0.12
					c0.12-0.06,0.21-0.15,0.28-0.26c0.09-0.1,0.15-0.21,0.18-0.34c0.01-0.09,0.02-0.18,0.04-0.27c0-0.18-0.05-0.35-0.14-0.5
					c-0.05-0.07-0.1-0.13-0.16-0.2C206.26,219.29,206.11,219.2,205.94,219.15L205.94,219.15z"/>
			</g>
		</g>
		<g>
			<g>
				<path class="st4" d="M213.67,219.8c-0.18,0.14-0.35,0.29-0.53,0.43c0.57,0.24,1.14,0.47,1.71,0.71
					c-0.03-0.33-0.06-0.66-0.09-0.99c0.01-0.14-0.02-0.27-0.09-0.39c-0.04-0.12-0.11-0.23-0.21-0.32c-0.09-0.1-0.2-0.17-0.32-0.21
					c-0.12-0.06-0.25-0.09-0.39-0.09c-0.09,0.01-0.18,0.02-0.27,0.04c-0.17,0.05-0.32,0.13-0.44,0.26c-0.05,0.07-0.1,0.13-0.16,0.2
					c-0.09,0.16-0.14,0.32-0.14,0.5c0.03,0.33,0.06,0.66,0.09,0.99c0.01,0.09,0.02,0.18,0.04,0.27c0.03,0.08,0.07,0.16,0.1,0.24
					c0.05,0.07,0.1,0.13,0.16,0.2c0.09,0.1,0.2,0.17,0.32,0.21c0.08,0.05,0.16,0.07,0.25,0.07c0.09,0.02,0.18,0.02,0.27,0
					c0.09,0,0.17-0.02,0.25-0.07c0.12-0.04,0.23-0.11,0.32-0.21c0.18-0.14,0.35-0.29,0.53-0.43c0.1-0.09,0.17-0.2,0.21-0.32
					c0.06-0.12,0.09-0.25,0.09-0.39c0.01-0.14-0.02-0.27-0.09-0.39c-0.04-0.12-0.11-0.23-0.21-0.32c-0.19-0.17-0.44-0.3-0.71-0.29
					c-0.09,0.01-0.18,0.02-0.27,0.04C213.95,219.59,213.8,219.67,213.67,219.8L213.67,219.8z"/>
			</g>
		</g>
		<g>
			<g>
				<path class="st4" d="M187.92,204.92c1.17-0.23,2.35-0.37,3.54-0.4c0.96-0.03,2.06-0.11,2.98,0.2c0.68,0.23,0.9,0.7,0.5,1.33
					c-0.49,0.77-1.32,1.07-2.13,1.36c-1.67,0.61-4.67,2.01-3.1,4.25c0.68,0.98,1.59,1.83,2.39,2.72c0.82,0.92,1.64,1.84,2.46,2.75
					c0.86,0.96,2.27-0.46,1.41-1.41c-0.87-0.98-1.75-1.96-2.62-2.94c-0.44-0.49-0.87-0.98-1.31-1.47c-0.18-0.2-0.52-0.46-0.63-0.7
					c-0.12-0.27-0.12-0.06-0.03-0.25c0.18-0.35,0.87-0.61,1.21-0.75c0.49-0.21,1-0.36,1.5-0.56c1-0.4,1.87-0.95,2.48-1.85
					c0.58-0.85,0.78-1.93,0.33-2.87c-0.42-0.89-1.32-1.41-2.26-1.62c-2.32-0.51-4.96-0.17-7.25,0.28
					C186.13,203.24,186.66,205.17,187.92,204.92L187.92,204.92z"/>
			</g>
		</g>
		<g>
			<g>
				<path class="st4" d="M210.22,201.75c-1.05,0.26-2.09,0.52-3.14,0.79c0.18,0.64,0.35,1.29,0.53,1.93
					c2.17-0.67,4.34-1.48,6.56-1.97c0.89-0.2,1.9-0.31,2.77,0.06c0.64,0.27,1.31,0.84,1.42,1.55c0.12,0.8-0.53,1.56-1.02,2.13
					c-0.58,0.67-1.24,1.28-1.96,1.8c-1.53,1.09-3.27,1.77-5.13,2.06c-0.71,0.11-1,1.22-0.44,1.67c1.1,0.88,2.2,1.77,3.3,2.65
					c0.38,0.3,0.83,0.6,1.12,0.99c0.06,0.08,0.11,0.25,0.15,0.31c0,0-0.05,0.03-0.05,0.02c0.01,0.01,0.28-0.05,0.39,0.05
					c-0.91-0.91-2.33,0.5-1.41,1.41c0.7,0.69,1.76,0.62,2.46-0.05c0.69-0.67,0.78-1.61,0.38-2.45c-0.42-0.86-1.27-1.42-1.99-2.01
					c-0.97-0.78-1.94-1.56-2.91-2.34c-0.15,0.56-0.29,1.11-0.44,1.67c3.48-0.53,6.91-2.54,8.86-5.51c1.02-1.55,0.93-3.42-0.4-4.76
					c-1.4-1.41-3.39-1.59-5.26-1.24c-1.14,0.21-2.25,0.6-3.36,0.95c-1.18,0.36-2.36,0.73-3.54,1.09c-1.23,0.38-0.72,2.24,0.53,1.93
					c1.05-0.26,2.09-0.52,3.14-0.79C212,203.37,211.47,201.44,210.22,201.75L210.22,201.75z"/>
			</g>
		</g>
	</g>
</g>
<g class="st2">
	<g class="st3">
		<g>
			<g>
				<path class="st4" d="M129.72,83.6c1.11-1.79,2.86-3.15,4.88-3.77c1.55-0.48,4.38-0.8,5.03,1.2c0.62,1.9-1.1,3.68-2.58,4.54
					c-1.02,0.6-2.13,1.03-3.21,1.52c-0.94,0.42-2.31,0.93-2.31,2.17c0,0.77,0.6,1.48,0.98,2.1c0.38,0.63,0.77,1.26,1.15,1.88
					c0.85,1.4,1.71,2.79,2.56,4.19c0.46-0.46,0.91-0.91,1.37-1.37c-0.35-0.17-0.7-0.32-1.07-0.46c-1.21-0.45-1.73,1.48-0.53,1.93
					c0.2,0.08,0.39,0.16,0.59,0.25c0.85,0.42,1.92-0.46,1.37-1.37c-0.77-1.26-1.53-2.51-2.3-3.77c-0.36-0.59-0.72-1.19-1.09-1.78
					c-0.33-0.54-0.97-1.26-1.07-1.88c0,0.18,0,0.35,0,0.53c0.02-0.1-0.04-0.01-0.05-0.01c0.05,0,0.25-0.15,0.27-0.16
					c0.21-0.12,0.44-0.22,0.66-0.32c0.51-0.24,1.02-0.46,1.53-0.68c0.98-0.43,1.97-0.88,2.85-1.5c1.59-1.11,2.76-2.75,2.95-4.72
					c0.19-2.02-1.03-3.72-2.92-4.36c-1.83-0.62-3.96-0.24-5.7,0.48c-2.11,0.88-3.89,2.39-5.1,4.33
					C127.32,83.69,129.05,84.69,129.72,83.6L129.72,83.6z"/>
			</g>
		</g>
		<g>
			<g>
				<path class="st4" d="M139.07,100.49c-0.1-0.02-0.21-0.04-0.31-0.04c-0.01,0-0.02,0-0.03,0c-0.08,0-0.21,0.02-0.29,0.04
					c-0.06,0.01-0.11,0.04-0.17,0.06c-0.05,0.02-0.11,0.04-0.16,0.07c-0.08,0.05-0.17,0.12-0.24,0.19
					c-0.01,0.01-0.03,0.03-0.04,0.04c-0.08,0.09-0.16,0.19-0.22,0.3c-0.05,0.11-0.11,0.23-0.14,0.35c-0.03,0.13-0.05,0.26-0.06,0.39
					c0,0.04,0,0.09,0,0.13c0.01,0.14,0.04,0.29,0.06,0.43c-0.01-0.09-0.02-0.18-0.04-0.27c0.02,0.11,0.03,0.23,0.01,0.34
					c0.01-0.09,0.02-0.18,0.04-0.27c-0.01,0.04-0.02,0.09-0.03,0.13c0.03-0.08,0.07-0.16,0.1-0.24c-0.01,0.03-0.03,0.06-0.05,0.08
					c0.05-0.07,0.1-0.13,0.16-0.2c-0.01,0.02-0.02,0.03-0.04,0.04c0.07-0.05,0.13-0.1,0.2-0.16c-0.01,0.01-0.03,0.02-0.04,0.02
					c0.08-0.03,0.16-0.07,0.24-0.1c-0.02,0.01-0.04,0.01-0.06,0.02c0.09-0.01,0.18-0.02,0.27-0.04c-0.02,0-0.05,0-0.07,0
					c0.09,0.01,0.18,0.02,0.27,0.04c-0.03,0-0.05-0.01-0.08-0.02c0.08,0.03,0.16,0.07,0.24,0.1c-0.03-0.01-0.06-0.03-0.08-0.05
					c0.07,0.05,0.13,0.1,0.2,0.16c-0.02-0.01-0.03-0.03-0.05-0.05c0.05,0.07,0.1,0.13,0.16,0.2c-0.01-0.01-0.02-0.03-0.03-0.04
					c0.03,0.08,0.07,0.16,0.1,0.24c0-0.01-0.01-0.02-0.01-0.03c0.01,0.09,0.02,0.18,0.04,0.27c0-0.01,0-0.02,0-0.03
					c-0.01,0.09-0.02,0.18-0.04,0.27c0-0.01,0-0.01,0-0.02c-0.03,0.08-0.07,0.16-0.1,0.24c0-0.01,0.01-0.02,0.01-0.02
					c-0.05,0.07-0.1,0.13-0.16,0.2c0.01-0.01,0.02-0.02,0.03-0.03c-0.07,0.05-0.13,0.1-0.2,0.16c0,0,0.01,0,0.01-0.01
					c0.12-0.06,0.21-0.15,0.28-0.26c0.09-0.1,0.15-0.21,0.18-0.34c0.04-0.13,0.05-0.27,0.02-0.4c-0.01-0.13-0.05-0.26-0.12-0.37
					c-0.14-0.21-0.34-0.4-0.6-0.46c-0.25-0.06-0.55-0.05-0.77,0.1c-0.08,0.05-0.16,0.11-0.23,0.18c0,0-0.01,0.01-0.01,0.02
					c-0.05,0.07-0.1,0.13-0.16,0.2c-0.1,0.18-0.15,0.34-0.15,0.55c-0.01,0.21,0.06,0.44,0.17,0.61c0.12,0.18,0.27,0.34,0.47,0.44
					c0.1,0.05,0.2,0.1,0.31,0.13c0.05,0.01,0.12,0.02,0.17,0.03c0.05,0.01,0.11,0.02,0.17,0.02c0.11,0,0.23-0.02,0.33-0.04
					c0.01,0,0.01,0,0.02-0.01c0.08-0.03,0.16-0.07,0.24-0.1c0.01-0.01,0.03-0.02,0.04-0.02c0.28-0.18,0.46-0.44,0.56-0.76
					c0.11-0.35,0.04-0.7-0.01-1.05c0.01,0.09,0.02,0.18,0.04,0.27c-0.01-0.08-0.02-0.16-0.01-0.25c-0.01,0.09-0.02,0.18-0.04,0.27
					c0.01-0.06,0.02-0.12,0.05-0.17c-0.03,0.08-0.07,0.16-0.1,0.24c0.02-0.04,0.04-0.08,0.07-0.12c-0.05,0.07-0.1,0.13-0.16,0.2
					c0.02-0.02,0.04-0.04,0.06-0.06c-0.07,0.05-0.13,0.1-0.2,0.16c0.02-0.01,0.04-0.02,0.06-0.03c-0.08,0.03-0.16,0.07-0.24,0.1
					c0.02-0.01,0.03-0.01,0.05-0.01c-0.09,0.01-0.18,0.02-0.27,0.04c0.02,0,0.05,0,0.07,0c-0.09-0.01-0.18-0.02-0.27-0.04
					c0.01,0,0.01,0,0.02,0c0.13,0.04,0.27,0.05,0.4,0.02c0.13-0.01,0.26-0.05,0.37-0.12c0.12-0.06,0.21-0.15,0.28-0.26
					c0.09-0.1,0.15-0.21,0.18-0.34c0.06-0.26,0.05-0.54-0.1-0.77C139.53,100.74,139.32,100.53,139.07,100.49L139.07,100.49z"/>
			</g>
		</g>
		<g>
			<g>
				<path class="st4" d="M145.56,76.01c1.08-0.66,2.49-0.29,3.33,0.61c1.09,1.17,0.98,3.06,0.31,4.41c-0.74,1.5-2.11,2.55-3.57,3.31
					c-0.76,0.4-1.7,0.68-2.01,1.58c-0.31,0.94,0.22,1.75,0.79,2.46c1.47,1.83,3.01,3.6,4.6,5.34c0.4-0.52,0.81-1.05,1.21-1.57
					c-0.29-0.13-0.58-0.26-0.87-0.38c-0.49-0.22-1.07-0.14-1.37,0.36c-0.25,0.43-0.14,1.15,0.36,1.37c0.29,0.13,0.58,0.26,0.87,0.38
					c1.01,0.45,2.02-0.69,1.21-1.57c-1.48-1.62-2.91-3.27-4.29-4.97c-0.15-0.19-0.32-0.37-0.46-0.58c-0.05-0.07-0.08-0.17-0.13-0.23
					c-0.08-0.12-0.08,0.09,0.01,0.07c0.38-0.06,0.84-0.4,1.18-0.58c0.84-0.44,1.63-0.99,2.34-1.62c2.67-2.37,3.93-7.16,0.7-9.67
					c-1.48-1.15-3.58-1.46-5.22-0.46C143.46,74.95,144.46,76.68,145.56,76.01L145.56,76.01z"/>
			</g>
		</g>
		<g>
			<g>
				<path class="st4" d="M152.17,97.01c-0.03-0.02-0.06-0.03-0.08-0.05c0.07,0.05,0.13,0.1,0.2,0.16c-0.05-0.04-0.09-0.08-0.12-0.12
					c0.05,0.07,0.1,0.13,0.16,0.2c-0.03-0.05-0.06-0.1-0.09-0.15c0.03,0.08,0.07,0.16,0.1,0.24c-0.03-0.06-0.04-0.13-0.05-0.19
					c0.01,0.09,0.02,0.18,0.04,0.27c-0.01-0.07-0.01-0.13,0-0.2c-0.01,0.09-0.02,0.18-0.04,0.27c0.01-0.06,0.02-0.11,0.05-0.17
					c-0.03,0.08-0.07,0.16-0.1,0.24c0.01-0.02,0.02-0.04,0.03-0.07c-0.58,0-1.15,0-1.73,0c0.03,0.06,0.05,0.12,0.08,0.18
					c-0.03-0.08-0.07-0.16-0.1-0.24c0.12,0.29,0.23,0.59,0.27,0.9c-0.01-0.09-0.02-0.18-0.04-0.27c0.02,0.13,0.02,0.27,0,0.4
					c0.01-0.09,0.02-0.18,0.04-0.27c-0.01,0.11-0.04,0.22-0.09,0.32c0.03-0.08,0.07-0.16,0.1-0.24c-0.03,0.06-0.06,0.13-0.1,0.18
					c0.05-0.07,0.1-0.13,0.16-0.2c-0.03,0.04-0.07,0.08-0.12,0.12c0.07-0.05,0.13-0.1,0.2-0.16c-0.05,0.04-0.1,0.07-0.16,0.09
					c0.08-0.03,0.16-0.07,0.24-0.1c-0.07,0.03-0.14,0.05-0.22,0.06c0.09-0.01,0.18-0.02,0.27-0.04c-0.09,0.01-0.18,0.01-0.26,0
					c0.09,0.01,0.18,0.02,0.27,0.04c-0.08-0.01-0.17-0.03-0.25-0.07c0.08,0.03,0.16,0.07,0.24,0.1c-0.05-0.02-0.1-0.05-0.15-0.08
					c0.07,0.05,0.13,0.1,0.2,0.16c-0.04-0.03-0.07-0.06-0.1-0.1c0.05,0.07,0.1,0.13,0.16,0.2c-0.02-0.03-0.04-0.06-0.05-0.09
					c0.03,0.08,0.07,0.16,0.1,0.24c-0.01-0.03-0.02-0.06-0.03-0.09c0.01,0.09,0.02,0.18,0.04,0.27c-0.01-0.04-0.01-0.08,0-0.11
					c-0.01,0.09-0.02,0.18-0.04,0.27c0-0.03,0.01-0.06,0.02-0.09c0.07-0.25,0.03-0.55-0.1-0.77c-0.12-0.21-0.36-0.41-0.6-0.46
					c-0.26-0.06-0.54-0.05-0.77,0.1c-0.22,0.14-0.38,0.34-0.46,0.6c-0.15,0.5,0,1.09,0.39,1.44c0.35,0.31,0.79,0.47,1.26,0.47
					c0.47,0,0.93-0.17,1.27-0.5c0.22-0.21,0.36-0.49,0.45-0.78c0.08-0.24,0.11-0.52,0.1-0.77c-0.04-0.61-0.25-1.15-0.49-1.7
					c-0.09-0.15-0.21-0.27-0.36-0.36c-0.16-0.09-0.32-0.14-0.5-0.14c-0.35,0-0.69,0.19-0.86,0.5c-0.45,0.79-0.18,1.87,0.63,2.32
					c0.23,0.13,0.52,0.17,0.77,0.1c0.23-0.06,0.48-0.24,0.6-0.46c0.12-0.23,0.18-0.51,0.1-0.77
					C152.55,97.36,152.4,97.14,152.17,97.01L152.17,97.01z"/>
			</g>
		</g>
		<g>
			<g>
				<path class="st4" d="M154.75,77.92c1.41-0.75,3.05-1.54,4.68-1.14c1.35,0.33,2.12,1.4,1.99,2.79c-0.32,3.26-4.02,4.3-6.65,5.04
					c-0.86,0.24-0.95,1.37-0.24,1.83c1.93,1.25,3.75,2.65,5.46,4.2c0.79,0.72,2.27-0.24,1.57-1.21c-0.2-0.28-0.41-0.56-0.61-0.85
					c-0.32-0.44-0.87-0.65-1.37-0.36c-0.43,0.25-0.68,0.93-0.36,1.37c0.2,0.28,0.41,0.56,0.61,0.85c0.52-0.4,1.05-0.81,1.57-1.21
					c-1.83-1.66-3.79-3.17-5.87-4.51c-0.08,0.61-0.16,1.22-0.24,1.83c2.01-0.56,4.05-1.18,5.7-2.5c1.49-1.18,2.5-3.05,2.42-4.98
					c-0.08-2.03-1.42-3.66-3.38-4.19c-2.21-0.59-4.39,0.29-6.31,1.32C152.61,76.8,153.62,78.53,154.75,77.92L154.75,77.92z"/>
			</g>
		</g>
		<g>
			<g>
				<path class="st4" d="M162.71,94.84c-0.03-0.02-0.07-0.04-0.1-0.06c0.07,0.05,0.13,0.1,0.2,0.16c-0.04-0.03-0.08-0.07-0.12-0.12
					c0.05,0.07,0.1,0.13,0.16,0.2c-0.04-0.05-0.06-0.1-0.09-0.16c0.03,0.08,0.07,0.16,0.1,0.24c-0.03-0.07-0.04-0.13-0.05-0.2
					c0.01,0.09,0.02,0.18,0.04,0.27c-0.01-0.08-0.01-0.15,0-0.23c-0.01,0.09-0.02,0.18-0.04,0.27c0.01-0.07,0.03-0.14,0.05-0.2
					c-0.03,0.08-0.07,0.16-0.1,0.24c0.02-0.06,0.05-0.11,0.09-0.15c-0.05,0.07-0.1,0.13-0.16,0.2c0.03-0.04,0.07-0.07,0.11-0.11
					c-0.07,0.05-0.13,0.1-0.2,0.16c0.03-0.02,0.05-0.04,0.08-0.05c-0.34,0-0.67,0-1.01,0c0.03,0.02,0.06,0.04,0.08,0.06
					c-0.07-0.05-0.13-0.1-0.2-0.16c0.05,0.04,0.09,0.08,0.13,0.13c-0.05-0.07-0.1-0.13-0.16-0.2c0.04,0.06,0.07,0.11,0.1,0.18
					c-0.03-0.08-0.07-0.16-0.1-0.24c0.03,0.07,0.05,0.14,0.06,0.21c-0.01-0.09-0.02-0.18-0.04-0.27c0.01,0.07,0.01,0.14,0,0.2
					c0.01-0.09,0.02-0.18,0.04-0.27c-0.01,0.06-0.02,0.11-0.04,0.16c-0.04,0.13-0.05,0.27-0.02,0.4c0.01,0.13,0.05,0.26,0.12,0.37
					c0.06,0.12,0.15,0.21,0.26,0.28c0.1,0.09,0.21,0.15,0.34,0.18c0.26,0.06,0.54,0.05,0.77-0.1c0.07-0.05,0.13-0.1,0.2-0.16
					c0.12-0.12,0.21-0.27,0.26-0.44c0.02-0.05,0.03-0.1,0.04-0.15c0.02-0.13,0.05-0.28,0.05-0.42c-0.01-0.13-0.02-0.27-0.05-0.4
					c-0.02-0.09-0.06-0.18-0.1-0.27c-0.03-0.08-0.07-0.17-0.11-0.24c-0.07-0.11-0.16-0.22-0.25-0.32c-0.09-0.09-0.2-0.17-0.31-0.25
					c-0.32-0.22-0.76-0.22-1.09-0.03c-0.1,0.06-0.2,0.14-0.29,0.22c-0.09,0.08-0.16,0.19-0.24,0.29c-0.02,0.03-0.05,0.07-0.07,0.1
					c-0.06,0.11-0.11,0.23-0.15,0.35c-0.1,0.32-0.1,0.7,0,1.02c0.04,0.12,0.09,0.24,0.15,0.36c0.06,0.12,0.15,0.22,0.23,0.32
					c0.11,0.14,0.26,0.25,0.41,0.33c0.11,0.07,0.24,0.11,0.37,0.12c0.13,0.03,0.27,0.02,0.4-0.02c0.13-0.03,0.24-0.09,0.34-0.18
					c0.11-0.07,0.19-0.16,0.26-0.28c0.12-0.23,0.18-0.51,0.1-0.77C163.09,95.2,162.94,94.95,162.71,94.84L162.71,94.84z"/>
			</g>
		</g>
	</g>
	<g class="st3">
		<g>
			<g>
				<path class="st4" d="M135.13,166.99c0-0.06,0-0.12,0.01-0.18c-0.01,0.09-0.02,0.18-0.04,0.27c0.02-0.13,0.05-0.26,0.11-0.39
					c-0.03,0.08-0.07,0.16-0.1,0.24c0.05-0.12,0.12-0.24,0.2-0.35c-0.05,0.07-0.1,0.13-0.16,0.2c0.08-0.11,0.18-0.2,0.28-0.28
					c-0.07,0.05-0.13,0.1-0.2,0.16c0.1-0.07,0.2-0.13,0.31-0.18c-0.08,0.03-0.16,0.07-0.24,0.1c0.01,0,0.01-0.01,0.02-0.01
					c-0.32-0.09-0.65-0.17-0.97-0.26c0.04,0.04,0.07,0.08,0.1,0.12c-0.05-0.07-0.1-0.13-0.16-0.2c0.08,0.11,0.15,0.23,0.21,0.35
					c-0.03-0.08-0.07-0.16-0.1-0.24c0.06,0.13,0.09,0.27,0.12,0.42c-0.01-0.09-0.02-0.18-0.04-0.27c0,0.04,0.01,0.08,0.01,0.11
					c0.33-0.33,0.67-0.67,1-1c-0.05,0-0.1,0-0.15,0c0.09,0.01,0.18,0.02,0.27,0.04c-0.08-0.01-0.15-0.03-0.22-0.06
					c0.08,0.03,0.16,0.07,0.24,0.1c-0.08-0.03-0.15-0.08-0.22-0.13c0.07,0.05,0.13,0.1,0.2,0.16c-0.07-0.05-0.13-0.11-0.18-0.18
					c0.05,0.07,0.1,0.13,0.16,0.2c-0.05-0.06-0.09-0.13-0.12-0.2c0.03,0.08,0.07,0.16,0.1,0.24c-0.03-0.07-0.05-0.13-0.06-0.2
					c0.01,0.09,0.02,0.18,0.04,0.27c0-0.01,0-0.01,0-0.02c0.01-0.14-0.02-0.27-0.09-0.39c-0.04-0.12-0.11-0.23-0.21-0.32
					c-0.09-0.1-0.2-0.17-0.32-0.21c-0.12-0.06-0.25-0.09-0.39-0.09c-0.26,0.01-0.53,0.1-0.71,0.29c-0.05,0.07-0.1,0.13-0.16,0.2
					c-0.09,0.16-0.14,0.32-0.14,0.5c0.02,0.14,0.03,0.29,0.07,0.43c0.04,0.13,0.1,0.27,0.17,0.39c0.07,0.12,0.16,0.23,0.25,0.34
					c0.04,0.05,0.08,0.09,0.13,0.13c0.1,0.09,0.21,0.18,0.33,0.25c0.12,0.07,0.26,0.12,0.39,0.17c0.06,0.02,0.12,0.04,0.18,0.05
					c0.14,0.02,0.29,0.05,0.44,0.04c0.25-0.01,0.53-0.1,0.71-0.29c0.17-0.19,0.31-0.44,0.29-0.71c-0.01-0.18-0.03-0.36-0.08-0.54
					c-0.04-0.17-0.12-0.34-0.19-0.5c-0.11-0.25-0.28-0.48-0.47-0.68c-0.12-0.12-0.27-0.21-0.44-0.26c-0.18-0.05-0.35-0.05-0.53,0
					c-0.15,0.06-0.3,0.12-0.44,0.2c-0.13,0.08-0.25,0.18-0.37,0.27c-0.18,0.15-0.33,0.34-0.46,0.54c-0.13,0.19-0.22,0.42-0.3,0.63
					c-0.07,0.23-0.11,0.47-0.11,0.71c0,0.25,0.11,0.53,0.29,0.71c0.09,0.1,0.2,0.17,0.32,0.21c0.12,0.06,0.25,0.09,0.39,0.09
					c0.26-0.01,0.53-0.1,0.71-0.29C135.02,167.5,135.13,167.26,135.13,166.99L135.13,166.99z"/>
			</g>
		</g>
		<g>
			<g>
				<path class="st4" d="M139.25,148.75c0.57-0.51,1.47-0.53,2.15-0.23c0.72,0.32,1.14,1.07,1.23,1.83c0.22,1.9-1.49,3.31-3.26,3.45
					c-0.76,0.06-1.24,0.8-0.86,1.5c0.43,0.78,0.93,1.51,1.5,2.2c0.52,0.63,1.13,1.33,1.83,1.75c0.89,0.54,2.26-0.04,1.97-1.22
					c-0.24-0.99-1.54-1.29-2.1-0.38c-0.68,1.1,1.05,2.1,1.73,1.01c0.01-0.02,0.02-0.04,0.04-0.06c-0.2,0.15-0.4,0.31-0.6,0.46
					c0.02,0,0.03-0.01,0.05-0.01c-0.18,0-0.35,0-0.53,0c0.02,0.01,0.04,0.02,0.06,0.02c-0.15-0.09-0.29-0.17-0.44-0.26
					c-0.06-0.15-0.12-0.3-0.18-0.45c0.1-0.24,0.2-0.47,0.29-0.71c-0.02,0.02-0.03,0.04-0.05,0.06c0.15-0.09,0.29-0.17,0.44-0.26
					c0.25,0.08,0.33,0.07,0.22-0.02c-0.06-0.06-0.13-0.11-0.19-0.17c-0.13-0.12-0.25-0.24-0.37-0.36c-0.26-0.26-0.52-0.54-0.75-0.83
					c-0.46-0.55-0.84-1.16-1.18-1.8c-0.29,0.5-0.58,1-0.86,1.5c3.14-0.24,5.76-2.79,5.18-6.06c-0.54-3.07-4.36-4.48-6.71-2.4
					C136.87,148.19,138.29,149.6,139.25,148.75L139.25,148.75z"/>
			</g>
		</g>
		<g>
			<g>
				<path class="st4" d="M144.81,163.91c-0.1-0.02-0.2-0.03-0.29-0.04c-0.01,0-0.02,0-0.03,0c0,0-0.01,0-0.01,0
					c-0.05,0.01-0.22,0.03-0.27,0.04c0,0-0.01,0-0.01,0c-0.01,0-0.02,0.01-0.03,0.01c-0.09,0.03-0.18,0.07-0.26,0.11
					c-0.01,0-0.02,0.01-0.03,0.02c-0.08,0.05-0.15,0.11-0.22,0.17c-0.01,0.01-0.02,0.02-0.03,0.02c0,0-0.01,0.01-0.01,0.01
					c-0.06,0.07-0.11,0.14-0.16,0.21c-0.01,0.01-0.01,0.02-0.02,0.03c-0.01,0.01-0.01,0.02-0.01,0.03
					c-0.02,0.04-0.04,0.09-0.06,0.13c-0.02,0.04-0.04,0.09-0.06,0.13c0,0.01-0.01,0.02-0.01,0.03c0,0.01,0,0.01,0,0.02
					c0,0,0,0.01,0,0.01c-0.01,0.08-0.03,0.19-0.04,0.27c0,0.02,0,0.04,0,0.06c0.01,0.05,0.03,0.21,0.04,0.27c0,0,0,0.01,0,0.01
					c0,0,0,0.01,0,0.01c0,0.01,0.01,0.02,0.01,0.03c0.02,0.05,0.08,0.2,0.1,0.24c0,0,0,0.01,0,0.01c0,0,0,0.01,0.01,0.01
					c0,0,0,0.01,0.01,0.01c0,0,0,0,0.01,0.01c0.05,0.07,0.1,0.13,0.16,0.2c0,0,0,0,0,0.01c0.01,0.01,0.01,0.01,0.02,0.02
					c0,0,0,0,0.01,0.01c0.05,0.04,0.15,0.12,0.21,0.16c0.01,0,0.01,0.01,0.02,0.01c0.04,0.03,0.11,0.05,0.14,0.06
					c0.04,0.02,0.1,0.05,0.15,0.06c0.1,0.02,0.19,0.03,0.29,0.04c0.01,0,0.02,0,0.03,0c0.01,0,0.01,0,0.02,0
					c0.08-0.01,0.19-0.02,0.27-0.04c0,0,0,0,0.01,0c0.01,0,0.02,0,0.03-0.01c0.23-0.08,0.37-0.16,0.55-0.32
					c0.01-0.01,0.02-0.02,0.03-0.03c0,0,0.01-0.01,0.01-0.01c0.05-0.06,0.11-0.14,0.16-0.21c0,0,0,0,0.01-0.01
					c0.01-0.01,0.01-0.02,0.02-0.03c0.04-0.09,0.08-0.18,0.11-0.27c0-0.01,0.01-0.02,0.01-0.03c0.01-0.07,0.03-0.2,0.04-0.27
					c0,0,0-0.01,0-0.01c0-0.01,0-0.01,0-0.02c0-0.01,0-0.01,0-0.02c0-0.05-0.03-0.22-0.04-0.27c0,0,0-0.01,0-0.01
					c0-0.01-0.01-0.03-0.01-0.04c-0.03-0.13-0.09-0.24-0.18-0.34c-0.07-0.11-0.16-0.19-0.28-0.26c-0.11-0.07-0.24-0.11-0.37-0.12
					c-0.13-0.03-0.27-0.02-0.4,0.02c-0.08,0.03-0.16,0.07-0.24,0.1c-0.15,0.09-0.27,0.21-0.36,0.36c-0.03,0.08-0.07,0.16-0.1,0.24
					c-0.05,0.18-0.05,0.35,0,0.53c0.01,0.02,0.01,0.03,0.01,0.05c-0.01-0.09-0.02-0.18-0.04-0.27c0,0.02,0,0.03,0,0.05
					c0.01-0.09,0.02-0.18,0.04-0.27c0,0.02-0.01,0.03-0.01,0.05c0.03-0.08,0.07-0.16,0.1-0.24c-0.01,0.02-0.02,0.04-0.03,0.06
					c0.05-0.07,0.1-0.13,0.16-0.2c-0.02,0.02-0.03,0.04-0.05,0.05c0.07-0.05,0.13-0.1,0.2-0.16c-0.02,0.02-0.05,0.03-0.07,0.04
					c0.08-0.03,0.16-0.07,0.24-0.1c-0.02,0.01-0.04,0.01-0.07,0.02c0.09-0.01,0.18-0.02,0.27-0.04c-0.02,0-0.04,0-0.06,0
					c0.09,0.01,0.18,0.02,0.27,0.04c-0.02,0-0.03-0.01-0.05-0.01c0.08,0.03,0.16,0.07,0.24,0.1c-0.02-0.01-0.03-0.02-0.04-0.03
					c0.07,0.05,0.13,0.1,0.2,0.16c-0.01-0.01-0.02-0.02-0.03-0.03c0.05,0.07,0.1,0.13,0.16,0.2c-0.01-0.01-0.02-0.03-0.02-0.04
					c0.03,0.08,0.07,0.16,0.1,0.24c-0.01-0.02-0.01-0.03-0.01-0.05c0.01,0.09,0.02,0.18,0.04,0.27c0-0.02,0-0.04,0-0.06
					c-0.01,0.09-0.02,0.18-0.04,0.27c0-0.03,0.01-0.05,0.02-0.07c-0.03,0.08-0.07,0.16-0.1,0.24c0.01-0.02,0.02-0.05,0.04-0.07
					c-0.05,0.07-0.1,0.13-0.16,0.2c0.01-0.02,0.03-0.04,0.05-0.05c-0.07,0.05-0.13,0.1-0.2,0.16c0.02-0.01,0.03-0.02,0.05-0.03
					c-0.08,0.03-0.16,0.07-0.24,0.1c0.02-0.01,0.03-0.01,0.05-0.01c-0.09,0.01-0.18,0.02-0.27,0.04c0.02,0,0.03,0,0.05,0
					c-0.09-0.01-0.18-0.02-0.27-0.04c0.01,0,0.01,0,0.02,0c0.13,0.04,0.27,0.05,0.4,0.02c0.13-0.01,0.26-0.05,0.37-0.12
					c0.12-0.06,0.21-0.15,0.28-0.26c0.09-0.1,0.15-0.21,0.18-0.34c0.01-0.09,0.02-0.18,0.04-0.27c0-0.18-0.05-0.35-0.14-0.5
					c-0.05-0.07-0.1-0.13-0.16-0.2C145.12,164.05,144.98,163.96,144.81,163.91L144.81,163.91z"/>
			</g>
		</g>
		<g>
			<g>
				<path class="st4" d="M152.54,164.56c-0.18,0.14-0.35,0.29-0.53,0.43c0.57,0.24,1.14,0.47,1.71,0.71
					c-0.03-0.33-0.06-0.66-0.09-0.99c0.01-0.14-0.02-0.27-0.09-0.39c-0.04-0.12-0.11-0.23-0.21-0.32c-0.09-0.1-0.2-0.17-0.32-0.21
					c-0.12-0.06-0.25-0.09-0.39-0.09c-0.09,0.01-0.18,0.02-0.27,0.04c-0.17,0.05-0.32,0.13-0.44,0.26c-0.05,0.07-0.1,0.13-0.16,0.2
					c-0.09,0.16-0.14,0.32-0.14,0.5c0.03,0.33,0.06,0.66,0.09,0.99c0.01,0.09,0.02,0.18,0.04,0.27c0.03,0.08,0.07,0.16,0.1,0.24
					c0.05,0.07,0.1,0.13,0.16,0.2c0.09,0.1,0.2,0.17,0.32,0.21c0.08,0.05,0.16,0.07,0.25,0.07c0.09,0.02,0.18,0.02,0.27,0
					c0.09,0,0.17-0.02,0.25-0.07c0.12-0.04,0.23-0.11,0.32-0.21c0.18-0.14,0.35-0.29,0.53-0.43c0.1-0.09,0.17-0.2,0.21-0.32
					c0.06-0.12,0.09-0.25,0.09-0.39c0.01-0.14-0.02-0.27-0.09-0.39c-0.04-0.12-0.11-0.23-0.21-0.32c-0.19-0.17-0.44-0.3-0.71-0.29
					c-0.09,0.01-0.18,0.02-0.27,0.04C152.81,164.35,152.66,164.43,152.54,164.56L152.54,164.56z"/>
			</g>
		</g>
		<g>
			<g>
				<path class="st4" d="M126.79,149.68c1.17-0.23,2.35-0.37,3.54-0.4c0.96-0.03,2.06-0.11,2.98,0.2c0.68,0.23,0.9,0.7,0.5,1.33
					c-0.49,0.77-1.32,1.07-2.13,1.36c-1.67,0.61-4.67,2.01-3.1,4.25c0.69,0.98,1.59,1.83,2.39,2.72c0.82,0.92,1.64,1.84,2.46,2.75
					c0.86,0.96,2.27-0.46,1.41-1.41c-0.87-0.98-1.75-1.96-2.62-2.94c-0.44-0.49-0.87-0.98-1.31-1.47c-0.18-0.2-0.52-0.46-0.63-0.7
					c-0.12-0.27-0.12-0.06-0.03-0.25c0.18-0.35,0.87-0.61,1.21-0.75c0.49-0.21,1-0.36,1.5-0.56c1-0.4,1.87-0.95,2.48-1.85
					c0.58-0.85,0.78-1.93,0.33-2.87c-0.42-0.89-1.32-1.41-2.26-1.62c-2.32-0.51-4.96-0.17-7.25,0.28
					C124.99,148,125.53,149.93,126.79,149.68L126.79,149.68z"/>
			</g>
		</g>
		<g>
			<g>
				<path class="st4" d="M149.09,146.51c-1.05,0.26-2.09,0.52-3.14,0.79c0.18,0.64,0.35,1.29,0.53,1.93
					c2.17-0.67,4.34-1.48,6.56-1.97c0.89-0.2,1.9-0.31,2.77,0.06c0.64,0.27,1.31,0.84,1.42,1.55c0.12,0.8-0.53,1.56-1.02,2.13
					c-0.58,0.67-1.24,1.28-1.96,1.8c-1.53,1.09-3.27,1.77-5.13,2.06c-0.71,0.11-1,1.22-0.44,1.67c1.1,0.88,2.2,1.77,3.3,2.65
					c0.37,0.3,0.83,0.6,1.12,0.99c0.06,0.08,0.11,0.25,0.15,0.31c0,0-0.05,0.03-0.05,0.02c0.01,0.01,0.28-0.05,0.39,0.05
					c-0.91-0.91-2.33,0.5-1.41,1.41c0.7,0.69,1.76,0.62,2.46-0.05c0.69-0.67,0.78-1.61,0.38-2.45c-0.42-0.86-1.27-1.42-1.99-2.01
					c-0.97-0.78-1.94-1.56-2.91-2.34c-0.15,0.56-0.29,1.11-0.44,1.67c3.48-0.53,6.91-2.54,8.86-5.51c1.02-1.55,0.93-3.42-0.4-4.76
					c-1.4-1.41-3.39-1.59-5.26-1.24c-1.14,0.21-2.25,0.6-3.36,0.95c-1.18,0.36-2.36,0.73-3.54,1.09c-1.23,0.38-0.72,2.24,0.53,1.93
					c1.05-0.26,2.09-0.52,3.14-0.79C150.87,148.13,150.34,146.2,149.09,146.51L149.09,146.51z"/>
			</g>
		</g>
	</g>
</g>
</svg>
