<?xml version="1.0" encoding="utf-8" standalone="no"?>
<!DOCTYPE svg PUBLIC "-//W3C//DTD SVG 1.1//EN"
  "http://www.w3.org/Graphics/SVG/1.1/DTD/svg11.dtd">
<svg xmlns:xlink="http://www.w3.org/1999/xlink" width="421.091284pt" height="280.8pt" viewBox="0 0 421.091284 280.8" xmlns="http://www.w3.org/2000/svg" version="1.1">
 <metadata>
  <rdf:RDF xmlns:dc="http://purl.org/dc/elements/1.1/" xmlns:cc="http://creativecommons.org/ns#" xmlns:rdf="http://www.w3.org/1999/02/22-rdf-syntax-ns#">
   <cc:Work>
    <dc:type rdf:resource="http://purl.org/dc/dcmitype/StillImage"/>
    <dc:date>2022-09-10T23:29:31.178659</dc:date>
    <dc:format>image/svg+xml</dc:format>
    <dc:creator>
     <cc:Agent>
      <dc:title>Matplotlib v3.5.1, https://matplotlib.org/</dc:title>
     </cc:Agent>
    </dc:creator>
   </cc:Work>
  </rdf:RDF>
 </metadata>
 <defs>
  <style type="text/css">*{stroke-linejoin: round; stroke-linecap: butt}</style>
 </defs>
 <g id="figure_1">
  <g id="patch_1">
   <path d="M 0 280.8 
L 421.091284 280.8 
L 421.091284 0 
L 0 0 
L 0 280.8 
z
" style="fill: none"/>
  </g>
  <g id="axes_1">
   <g id="patch_2">
    <path d="M 9.715774 273.6 
L 411.37551 273.6 
L 411.37551 7.2 
L 9.715774 7.2 
z
" style="fill: #ffffff"/>
   </g>
   <g id="matplotlib.axis_1">
    <g id="xtick_1">
     <g id="line2d_1">
      <defs>
       <path id="mf89fb18ebd" d="M 0 0 
L 0 3.5 
" style="stroke: #808080; stroke-width: 0.8"/>
      </defs>
      <g>
       <use xlink:href="#mf89fb18ebd" x="17.44" y="183.092308" style="fill: #808080; stroke: #808080; stroke-width: 0.8"/>
      </g>
     </g>
     <g id="text_1">
      <!-- $-2$ -->
      <g transform="translate(7.2 202.249808)scale(0.16 -0.16)">
       <defs>
        <path id="Cmsy10-a1" d="M 653 1472 
Q 600 1472 565 1512 
Q 531 1553 531 1600 
Q 531 1647 565 1687 
Q 600 1728 653 1728 
L 4325 1728 
Q 4375 1728 4408 1687 
Q 4441 1647 4441 1600 
Q 4441 1553 4408 1512 
Q 4375 1472 4325 1472 
L 653 1472 
z
" transform="scale(0.015625)"/>
        <path id="Cmr10-32" d="M 319 0 
L 319 172 
Q 319 188 331 206 
L 1325 1306 
Q 1550 1550 1690 1715 
Q 1831 1881 1968 2097 
Q 2106 2313 2186 2536 
Q 2266 2759 2266 3009 
Q 2266 3272 2169 3511 
Q 2072 3750 1880 3894 
Q 1688 4038 1416 4038 
Q 1138 4038 916 3870 
Q 694 3703 603 3438 
Q 628 3444 672 3444 
Q 816 3444 917 3347 
Q 1019 3250 1019 3097 
Q 1019 2950 917 2848 
Q 816 2747 672 2747 
Q 522 2747 420 2851 
Q 319 2956 319 3097 
Q 319 3338 409 3548 
Q 500 3759 670 3923 
Q 841 4088 1055 4175 
Q 1269 4263 1509 4263 
Q 1875 4263 2190 4108 
Q 2506 3953 2690 3670 
Q 2875 3388 2875 3009 
Q 2875 2731 2753 2481 
Q 2631 2231 2440 2026 
Q 2250 1822 1953 1562 
Q 1656 1303 1563 1216 
L 838 519 
L 1453 519 
Q 1906 519 2211 526 
Q 2516 534 2534 550 
Q 2609 631 2688 1141 
L 2875 1141 
L 2694 0 
L 319 0 
z
" transform="scale(0.015625)"/>
       </defs>
       <use xlink:href="#Cmsy10-a1" transform="translate(0 0.390625)"/>
       <use xlink:href="#Cmr10-32" transform="translate(77.685547 0.390625)"/>
      </g>
     </g>
    </g>
    <g id="xtick_2">
     <g id="line2d_2">
      <g>
       <use xlink:href="#mf89fb18ebd" x="65.716411" y="183.092308" style="fill: #808080; stroke: #808080; stroke-width: 0.8"/>
      </g>
     </g>
     <g id="text_2">
      <!-- $-1$ -->
      <g transform="translate(55.476411 202.249808)scale(0.16 -0.16)">
       <defs>
        <path id="Cmr10-31" d="M 594 0 
L 594 225 
Q 1394 225 1394 428 
L 1394 3788 
Q 1063 3628 556 3628 
L 556 3853 
Q 1341 3853 1741 4263 
L 1831 4263 
Q 1853 4263 1873 4245 
Q 1894 4228 1894 4206 
L 1894 428 
Q 1894 225 2694 225 
L 2694 0 
L 594 0 
z
" transform="scale(0.015625)"/>
       </defs>
       <use xlink:href="#Cmsy10-a1" transform="translate(0 0.390625)"/>
       <use xlink:href="#Cmr10-31" transform="translate(77.685547 0.390625)"/>
      </g>
     </g>
    </g>
    <g id="xtick_3">
     <g id="line2d_3">
      <g>
       <use xlink:href="#mf89fb18ebd" x="113.992821" y="183.092308" style="fill: #808080; stroke: #808080; stroke-width: 0.8"/>
      </g>
     </g>
    </g>
    <g id="xtick_4">
     <g id="line2d_4">
      <g>
       <use xlink:href="#mf89fb18ebd" x="162.269232" y="183.092308" style="fill: #808080; stroke: #808080; stroke-width: 0.8"/>
      </g>
     </g>
     <g id="text_3">
      <!-- $+1$ -->
      <g transform="translate(152.029232 202.249808)scale(0.16 -0.16)">
       <defs>
        <path id="Cmr10-2b" d="M 481 1472 
Q 428 1472 393 1512 
Q 359 1553 359 1600 
Q 359 1647 393 1687 
Q 428 1728 481 1728 
L 2363 1728 
L 2363 3616 
Q 2363 3666 2400 3698 
Q 2438 3731 2491 3731 
Q 2538 3731 2578 3698 
Q 2619 3666 2619 3616 
L 2619 1728 
L 4500 1728 
Q 4547 1728 4581 1687 
Q 4616 1647 4616 1600 
Q 4616 1553 4581 1512 
Q 4547 1472 4500 1472 
L 2619 1472 
L 2619 -416 
Q 2619 -466 2578 -498 
Q 2538 -531 2491 -531 
Q 2438 -531 2400 -498 
Q 2363 -466 2363 -416 
L 2363 1472 
L 481 1472 
z
" transform="scale(0.015625)"/>
       </defs>
       <use xlink:href="#Cmr10-2b" transform="translate(0 0.390625)"/>
       <use xlink:href="#Cmr10-31" transform="translate(77.685547 0.390625)"/>
      </g>
     </g>
    </g>
    <g id="xtick_5">
     <g id="line2d_5">
      <g>
       <use xlink:href="#mf89fb18ebd" x="210.545642" y="183.092308" style="fill: #808080; stroke: #808080; stroke-width: 0.8"/>
      </g>
     </g>
     <g id="text_4">
      <!-- $+2$ -->
      <g transform="translate(200.305642 202.249808)scale(0.16 -0.16)">
       <use xlink:href="#Cmr10-2b" transform="translate(0 0.390625)"/>
       <use xlink:href="#Cmr10-32" transform="translate(77.685547 0.390625)"/>
      </g>
     </g>
    </g>
    <g id="xtick_6">
     <g id="line2d_6">
      <g>
       <use xlink:href="#mf89fb18ebd" x="258.822053" y="183.092308" style="fill: #808080; stroke: #808080; stroke-width: 0.8"/>
      </g>
     </g>
     <g id="text_5">
      <!-- $+3$ -->
      <g transform="translate(248.582053 202.249808)scale(0.16 -0.16)">
       <defs>
        <path id="Cmr10-33" d="M 609 494 
Q 759 275 1012 169 
Q 1266 63 1556 63 
Q 1928 63 2084 380 
Q 2241 697 2241 1100 
Q 2241 1281 2208 1462 
Q 2175 1644 2097 1800 
Q 2019 1956 1883 2050 
Q 1747 2144 1550 2144 
L 1125 2144 
Q 1069 2144 1069 2203 
L 1069 2259 
Q 1069 2309 1125 2309 
L 1478 2338 
Q 1703 2338 1851 2506 
Q 2000 2675 2069 2917 
Q 2138 3159 2138 3378 
Q 2138 3684 1994 3881 
Q 1850 4078 1556 4078 
Q 1313 4078 1091 3986 
Q 869 3894 738 3706 
Q 750 3709 759 3711 
Q 769 3713 781 3713 
Q 925 3713 1022 3613 
Q 1119 3513 1119 3372 
Q 1119 3234 1022 3134 
Q 925 3034 781 3034 
Q 641 3034 541 3134 
Q 441 3234 441 3372 
Q 441 3647 606 3850 
Q 772 4053 1033 4158 
Q 1294 4263 1556 4263 
Q 1750 4263 1965 4205 
Q 2181 4147 2356 4039 
Q 2531 3931 2642 3762 
Q 2753 3594 2753 3378 
Q 2753 3109 2633 2881 
Q 2513 2653 2303 2487 
Q 2094 2322 1844 2241 
Q 2122 2188 2372 2031 
Q 2622 1875 2773 1631 
Q 2925 1388 2925 1106 
Q 2925 753 2731 467 
Q 2538 181 2222 20 
Q 1906 -141 1556 -141 
Q 1256 -141 954 -26 
Q 653 88 461 316 
Q 269 544 269 863 
Q 269 1022 375 1128 
Q 481 1234 641 1234 
Q 744 1234 830 1186 
Q 916 1138 964 1050 
Q 1013 963 1013 863 
Q 1013 706 903 600 
Q 794 494 641 494 
L 609 494 
z
" transform="scale(0.015625)"/>
       </defs>
       <use xlink:href="#Cmr10-2b" transform="translate(0 0.390625)"/>
       <use xlink:href="#Cmr10-33" transform="translate(77.685547 0.390625)"/>
      </g>
     </g>
    </g>
    <g id="xtick_7">
     <g id="line2d_7">
      <g>
       <use xlink:href="#mf89fb18ebd" x="307.098463" y="183.092308" style="fill: #808080; stroke: #808080; stroke-width: 0.8"/>
      </g>
     </g>
     <g id="text_6">
      <!-- $+4$ -->
      <g transform="translate(296.858463 202.249808)scale(0.16 -0.16)">
       <defs>
        <path id="Cmr10-34" d="M 178 1056 
L 178 1281 
L 2156 4231 
Q 2178 4263 2222 4263 
L 2316 4263 
Q 2388 4263 2388 4191 
L 2388 1281 
L 3016 1281 
L 3016 1056 
L 2388 1056 
L 2388 428 
Q 2388 297 2575 261 
Q 2763 225 3009 225 
L 3009 0 
L 1247 0 
L 1247 225 
Q 1494 225 1681 261 
Q 1869 297 1869 428 
L 1869 1056 
L 178 1056 
z
M 391 1281 
L 1906 1281 
L 1906 3547 
L 391 1281 
z
" transform="scale(0.015625)"/>
       </defs>
       <use xlink:href="#Cmr10-2b" transform="translate(0 0.390625)"/>
       <use xlink:href="#Cmr10-34" transform="translate(77.685547 0.390625)"/>
      </g>
     </g>
    </g>
    <g id="xtick_8">
     <g id="line2d_8">
      <g>
       <use xlink:href="#mf89fb18ebd" x="355.374874" y="183.092308" style="fill: #808080; stroke: #808080; stroke-width: 0.8"/>
      </g>
     </g>
     <g id="text_7">
      <!-- $+5$ -->
      <g transform="translate(345.134874 202.249808)scale(0.16 -0.16)">
       <defs>
        <path id="Cmr10-35" d="M 556 728 
Q 622 541 758 387 
Q 894 234 1080 148 
Q 1266 63 1466 63 
Q 1928 63 2103 422 
Q 2278 781 2278 1294 
Q 2278 1516 2270 1667 
Q 2263 1819 2228 1959 
Q 2169 2184 2020 2353 
Q 1872 2522 1656 2522 
Q 1441 2522 1286 2456 
Q 1131 2391 1034 2303 
Q 938 2216 863 2119 
Q 788 2022 769 2016 
L 697 2016 
Q 681 2016 657 2036 
Q 634 2056 634 2075 
L 634 4213 
Q 634 4228 654 4245 
Q 675 4263 697 4263 
L 716 4263 
Q 1147 4056 1631 4056 
Q 2106 4056 2547 4263 
L 2566 4263 
Q 2588 4263 2606 4247 
Q 2625 4231 2625 4213 
L 2625 4153 
Q 2625 4122 2613 4122 
Q 2394 3831 2064 3668 
Q 1734 3506 1381 3506 
Q 1125 3506 856 3578 
L 856 2369 
Q 1069 2541 1236 2614 
Q 1403 2688 1663 2688 
Q 2016 2688 2295 2484 
Q 2575 2281 2725 1954 
Q 2875 1628 2875 1288 
Q 2875 903 2686 575 
Q 2497 247 2172 53 
Q 1847 -141 1466 -141 
Q 1150 -141 886 21 
Q 622 184 470 459 
Q 319 734 319 1044 
Q 319 1188 412 1278 
Q 506 1369 647 1369 
Q 788 1369 883 1276 
Q 978 1184 978 1044 
Q 978 906 883 811 
Q 788 716 647 716 
Q 625 716 597 720 
Q 569 725 556 728 
z
" transform="scale(0.015625)"/>
       </defs>
       <use xlink:href="#Cmr10-2b" transform="translate(0 0.390625)"/>
       <use xlink:href="#Cmr10-35" transform="translate(77.685547 0.390625)"/>
      </g>
     </g>
    </g>
    <g id="xtick_9">
     <g id="line2d_9">
      <g>
       <use xlink:href="#mf89fb18ebd" x="403.651284" y="183.092308" style="fill: #808080; stroke: #808080; stroke-width: 0.8"/>
      </g>
     </g>
     <g id="text_8">
      <!-- $+6$ -->
      <g transform="translate(393.411284 202.249808)scale(0.16 -0.16)">
       <defs>
        <path id="Cmr10-36" d="M 1600 -141 
Q 1203 -141 937 70 
Q 672 281 526 617 
Q 381 953 325 1322 
Q 269 1691 269 2069 
Q 269 2575 466 3084 
Q 663 3594 1045 3928 
Q 1428 4263 1953 4263 
Q 2172 4263 2361 4180 
Q 2550 4097 2658 3936 
Q 2766 3775 2766 3547 
Q 2766 3416 2677 3327 
Q 2588 3238 2456 3238 
Q 2331 3238 2240 3328 
Q 2150 3419 2150 3547 
Q 2150 3672 2240 3762 
Q 2331 3853 2456 3853 
L 2491 3853 
Q 2409 3969 2261 4023 
Q 2113 4078 1953 4078 
Q 1759 4078 1595 3993 
Q 1431 3909 1300 3765 
Q 1169 3622 1081 3448 
Q 994 3275 945 3053 
Q 897 2831 884 2637 
Q 872 2444 872 2150 
Q 984 2413 1190 2580 
Q 1397 2747 1656 2747 
Q 1941 2747 2175 2631 
Q 2409 2516 2578 2311 
Q 2747 2106 2836 1843 
Q 2925 1581 2925 1313 
Q 2925 938 2758 598 
Q 2591 259 2287 59 
Q 1984 -141 1600 -141 
z
M 1600 63 
Q 1847 63 1997 175 
Q 2147 288 2217 473 
Q 2288 659 2305 848 
Q 2322 1038 2322 1313 
Q 2322 1675 2287 1931 
Q 2253 2188 2100 2383 
Q 1947 2578 1631 2578 
Q 1372 2578 1205 2403 
Q 1038 2228 961 1961 
Q 884 1694 884 1447 
Q 884 1363 891 1319 
Q 891 1309 889 1303 
Q 888 1297 884 1288 
Q 884 1013 940 731 
Q 997 450 1156 256 
Q 1316 63 1600 63 
z
" transform="scale(0.015625)"/>
       </defs>
       <use xlink:href="#Cmr10-2b" transform="translate(0 0.390625)"/>
       <use xlink:href="#Cmr10-36" transform="translate(77.685547 0.390625)"/>
      </g>
     </g>
    </g>
   </g>
   <g id="matplotlib.axis_2"/>
   <g id="patch_3">
    <path d="M 113.992821 273.6 
L 113.992821 7.2 
" style="fill: none; stroke: #808080; stroke-width: 2; stroke-linejoin: miter; stroke-linecap: square"/>
   </g>
   <g id="patch_4">
    <path d="M 9.715774 183.092308 
L 411.37551 183.092308 
" style="fill: none; stroke: #808080; stroke-width: 2; stroke-linejoin: miter; stroke-linecap: square"/>
   </g>
   <g id="line2d_10">
    <path d="M 17.44 184.204087 
L 33.829052 184.672099 
L 46.046258 185.221689 
L 55.668929 185.866541 
L 63.092141 186.573892 
L 70.416082 187.560883 
L 75.794416 188.572267 
L 80.517196 189.770952 
L 83.466042 190.732561 
L 86.831995 192.114899 
L 89.857329 193.719583 
L 92.278909 195.353825 
L 94.503539 197.239203 
L 96.082989 198.879792 
L 97.893659 201.177978 
L 99.302322 203.376001 
L 100.509982 205.640629 
L 101.717642 208.366304 
L 102.796157 211.312431 
L 103.968373 215.252021 
L 105.111462 220.117102 
L 105.968779 224.691867 
L 106.877707 230.76385 
L 107.812439 238.893736 
L 108.539453 247.162465 
L 109.266467 257.994425 
L 109.923431 271.131546 
L 110.335248 281.8 
L 110.335248 281.8 
" clip-path="url(#pac840895fb)" style="fill: none; stroke: #ff0000; stroke-width: 3; stroke-linecap: square"/>
   </g>
   <g id="line2d_11">
    <path d="M 116.182818 -1 
L 116.656797 30.396279 
L 117.304616 58.696749 
L 117.984892 78.500618 
L 118.725507 93.559973 
L 119.466122 104.517825 
L 120.312539 113.867697 
L 121.243705 121.600363 
L 122.111097 127.179911 
L 122.998311 131.74911 
L 124.181264 136.565899 
L 125.26896 140.067083 
L 126.356655 142.919274 
L 127.450592 145.290718 
L 128.720245 147.562486 
L 129.625252 148.931271 
L 131.110924 150.820372 
L 132.876234 152.60955 
L 134.27138 153.749903 
L 135.884798 154.828618 
L 137.658734 155.77184 
L 140.003139 156.702974 
L 142.02543 157.269243 
L 144.674107 157.735045 
L 146.643915 157.904648 
L 150.290858 157.864716 
L 152.693263 157.602447 
L 155.401247 157.085121 
L 158.643251 156.143811 
L 161.685294 154.910331 
L 164.305723 153.536573 
L 166.396275 152.200884 
L 168.929654 150.246235 
L 171.05901 148.264809 
L 173.008687 146.124223 
L 175.231052 143.222365 
L 177.077164 140.355003 
L 178.732805 137.351638 
L 180.22594 134.219986 
L 181.986292 129.899301 
L 183.466298 125.621914 
L 184.576302 121.943697 
L 186.228982 115.550832 
L 187.497302 109.731129 
L 188.693014 103.338455 
L 189.738664 96.867544 
L 191.021121 87.542091 
L 192.12037 78.030655 
L 193.351143 65.25299 
L 194.465021 51.196291 
L 195.522804 34.98983 
L 196.580587 15.134258 
L 197.297483 -1 
M 220.90725 -1 
L 221.800454 30.425424 
L 222.776009 56.901366 
L 223.70522 76.629136 
L 224.687613 93.222078 
L 225.803173 108.137242 
L 226.918732 119.957198 
L 227.978392 129.035289 
L 229.233094 137.736236 
L 230.403416 144.318644 
L 231.48092 149.3638 
L 232.773926 154.408315 
L 234.13822 158.791375 
L 235.64509 162.762195 
L 237.377018 166.45935 
L 238.953427 169.204289 
L 240.833828 171.886198 
L 242.243115 173.563078 
L 244.200608 175.520951 
L 245.592475 176.700395 
L 247.532737 178.109041 
L 250.441354 179.820717 
L 253.223762 181.124064 
L 255.712969 182.087076 
L 259.350475 183.245846 
L 263.598545 184.344897 
L 271.277791 185.971467 
L 280.822544 187.97355 
L 284.037248 188.811001 
L 287.056065 189.771615 
L 289.57293 190.778502 
L 291.819369 191.923892 
L 293.847837 193.265812 
L 294.958415 194.18064 
L 296.284446 195.510017 
L 297.567738 197.139177 
L 298.470743 198.570392 
L 299.658848 200.975256 
L 300.628789 203.586742 
L 301.361109 206.13934 
L 302.093429 209.435131 
L 302.825749 213.856534 
L 303.485456 219.370168 
L 304.053139 226.023582 
L 304.568715 234.650761 
L 305.084291 247.691125 
L 305.513938 265.037376 
L 305.784042 281.8 
L 305.784042 281.8 
" clip-path="url(#pac840895fb)" style="fill: none; stroke: #ff0000; stroke-width: 3; stroke-linecap: square"/>
   </g>
   <g id="line2d_12">
    <path d="M 307.795976 -1 
L 307.864798 15.675483 
L 307.937373 30.21803 
L 308.009948 42.444843 
L 308.082524 52.868283 
L 308.155099 61.859945 
L 308.227674 69.695892 
L 308.300249 76.585503 
L 308.372824 82.69046 
L 308.4454 88.137597 
L 308.517975 93.02781 
L 308.59055 97.442367 
L 308.663125 101.447454 
L 308.735701 105.097525 
L 308.808276 108.437785 
L 308.880851 111.50608 
L 308.953426 114.334331 
L 309.020622 116.762573 
L 309.087818 119.026814 
L 309.155014 121.143127 
L 309.22221 123.125556 
L 309.289405 124.986417 
L 309.356601 126.736564 
L 309.423797 128.385594 
L 309.490993 129.942026 
L 309.558189 131.41345 
L 309.625384 132.806646 
L 309.69258 134.127694 
L 309.759776 135.382058 
L 309.826972 136.574666 
L 309.894168 137.709969 
L 309.961363 138.792002 
L 310.028559 139.824432 
L 310.095755 140.810592 
L 310.162951 141.753527 
L 310.230146 142.65602 
L 310.297342 143.520618 
L 310.431734 145.145297 
L 310.566125 146.644122 
L 310.700517 148.031178 
L 310.834909 149.318524 
L 310.9693 150.516545 
L 311.103692 151.634232 
L 311.205441 152.431828 
L 311.30719 153.190893 
L 311.510689 154.604089 
L 311.714187 155.892791 
L 311.917686 157.072768 
L 312.068913 157.887142 
L 312.220141 158.653479 
L 312.371369 159.375911 
L 312.522597 160.058108 
L 312.825052 161.314549 
L 313.127508 162.445097 
L 313.429964 163.467788 
L 313.732419 164.39737 
L 314.034875 165.246016 
L 314.33733 166.023867 
L 314.647581 166.757121 
L 314.957831 167.432593 
L 315.268081 168.056862 
L 315.578331 168.635544 
L 315.936783 169.253653 
L 316.295235 169.823683 
L 316.653687 170.35104 
L 317.012138 170.840348 
L 317.729042 171.720195 
L 318.445945 172.489124 
L 318.995693 173.016137 
L 319.545441 173.496706 
L 320.212107 174.025546 
L 320.878774 174.50333 
L 321.54544 174.93711 
L 322.212106 175.332696 
L 323.347758 175.931944 
L 324.63901 176.519139 
L 325.930262 177.025855 
L 327.050075 177.41218 
L 328.169888 177.7574 
L 329.161481 178.033781 
L 331.389461 178.572197 
L 333.53995 179.005393 
L 335.421838 179.330096 
L 337.174322 179.595548 
L 338.756704 179.809652 
L 341.927551 180.179173 
L 342.588306 180.247694 
L 345.439029 180.515585 
L 346.409972 180.597713 
L 349.281017 180.817741 
L 352.066296 181.003377 
L 353.751888 181.104498 
L 355.987784 181.227359 
L 356.493651 181.253533 
L 359.515316 181.398762 
L 360.637417 181.448267 
L 363.642614 181.570538 
L 365.710454 181.646873 
L 367.105826 181.695179 
L 369.03707 181.758151 
L 371.34625 181.828046 
L 372.401589 181.858191 
L 374.301437 181.909842 
L 376.886095 181.97514 
L 377.596357 181.992155 
L 380.206592 182.05153 
L 382.953614 182.109094 
L 383.905065 182.127953 
L 386.201191 182.171357 
L 388.945101 182.219611 
L 390.403031 182.243776 
L 391.086204 182.254769 
L 393.558343 182.292881 
L 395.751832 182.324649 
L 398.042004 182.355923 
L 400.111036 182.382636 
L 402.459154 182.41131 
L 403.651284 182.42524 
" clip-path="url(#pac840895fb)" style="fill: none; stroke: #ff0000; stroke-width: 3; stroke-linecap: square"/>
   </g>
  </g>
 </g>
 <defs>
  <clipPath id="pac840895fb">
   <rect x="9.715774" y="7.2" width="401.659736" height="266.4"/>
  </clipPath>
 </defs>
</svg>
