<?xml version="1.0" encoding="utf-8"?>
<!-- Generator: Adobe Illustrator 23.1.1, SVG Export Plug-In . SVG Version: 6.00 Build 0)  -->
<svg version="1.1" id="Layer_1" xmlns="http://www.w3.org/2000/svg" xmlns:xlink="http://www.w3.org/1999/xlink" x="0px" y="0px"
	 viewBox="0 0 432 288" style="enable-background:new 0 0 432 288;" xml:space="preserve">
<style type="text/css">
	.st0{fill:#A7A9AC;}
	.st1{fill:#ED1C24;}
	.st2{display:none;}
	.st3{display:inline;}
</style>
<g>
	<g>
		<g>
			<g>
				<path class="st0" d="M276.61,160.12c1.37-1.27,2.73-2.55,4.05-3.86c0.69-0.68,1.82-1.52,1.75-2.58
					c-0.07-1.16-1.31-1.89-2.19-2.43c-1.65-0.99-3.41-1.81-5.18-2.55c-0.5-0.21-1.1,0.23-1.23,0.7c-0.16,0.58,0.2,1.02,0.7,1.23
					c1.34,0.56,2.65,1.2,3.93,1.9c0.32,0.18,0.64,0.36,0.96,0.55c0.21,0.13,0.55,0.35,0.68,0.45c-0.04-0.03,0.14,0.12,0.18,0.15
					c0.05,0.05,0.1,0.12,0.16,0.16c0.13,0.1-0.07-0.15,0.02,0.02c0.1,0.2-0.04-0.2,0-0.01c0.01,0.03,0.01-0.26-0.01-0.07
					c0-0.01,0.04-0.22,0.05-0.21c-0.02-0.02,0.04,0-0.03,0.03c-0.14,0.07-0.29,0.31-0.4,0.42c-0.33,0.34-0.66,0.66-0.99,0.99
					c-0.77,0.76-1.56,1.5-2.34,2.24c-0.5,0.48-1.01,0.95-1.52,1.42C274.25,159.58,275.66,161,276.61,160.12L276.61,160.12z"/>
			</g>
		</g>
		<g>
			<g>
				<path class="st0" d="M94.43,145.43c-1.41,0.6-2.77,1.3-4.08,2.09c-0.67,0.41-1.33,0.84-1.97,1.29
					c-0.55,0.39-1.35,0.82-1.69,1.43c-0.46,0.84,0.09,1.56,0.67,2.14c0.57,0.56,1.15,1.12,1.73,1.67c1.21,1.15,2.45,2.27,3.71,3.36
					c0.97,0.84,2.39-0.57,1.41-1.41c-1.03-0.9-2.05-1.81-3.06-2.74c-0.49-0.46-0.97-0.92-1.46-1.38c-0.24-0.23-0.48-0.47-0.72-0.7
					c-0.2-0.2-0.49-0.4-0.6-0.66c0.05,0.17,0.09,0.34,0.14,0.5c0.02,0.21-0.23,0.33,0.1,0.08c0.15-0.11,0.3-0.23,0.45-0.34
					c0.25-0.19,0.51-0.37,0.77-0.54c0.59-0.41,1.2-0.8,1.82-1.16c1.21-0.72,2.47-1.35,3.76-1.9c0.5-0.21,0.61-0.94,0.36-1.37
					C95.5,145.27,94.93,145.21,94.43,145.43L94.43,145.43z"/>
			</g>
		</g>
		<g>
			<g>
				<path class="st0" d="M88.29,152.19c14.25,2.06,28.7,1.71,43.05,1.68c12.4-0.03,24.81-0.03,37.21-0.04
					c12.01-0.02,24.03-0.05,36.04-0.13c10.21-0.07,20.42-0.11,30.63-0.03c12.98,0.1,25.96,0.34,38.93,0.71
					c1.82,0.05,3.65,0.11,5.47,0.17c1.29,0.04,1.29-1.96,0-2c-13.37-0.42-26.73-0.71-40.11-0.84c-9.94-0.1-19.88-0.11-29.82-0.04
					c-12.15,0.09-24.3,0.14-36.45,0.16c-12.09,0.02-24.18,0.02-36.26,0.04c-14.25,0.02-28.61,0.5-42.82-0.95
					c-1.79-0.18-3.57-0.4-5.35-0.66C87.56,150.08,87.02,152,88.29,152.19L88.29,152.19z"/>
			</g>
		</g>
	</g>
	<g>
		<g>
			<g>
				<path class="st0" d="M193.06,65.54c1.67-2.74,3.37-5.46,4.99-8.22c0.11-0.19,0.54-0.71,0.54-0.92c0-0.01,0.04,0,0.03-0.02
					c-0.07,0-0.13,0-0.2,0c-0.21-0.04-0.26-0.02-0.14,0.06c0,0.05,0.15,0.17,0.19,0.23c0.11,0.15,0.21,0.32,0.32,0.48
					c0.68,1.02,1.36,2.04,2.03,3.06c1.21,1.82,2.41,3.64,3.61,5.46c0.71,1.07,2.44,0.07,1.73-1.01c-1.92-2.9-3.84-5.8-5.77-8.7
					c-0.4-0.6-0.85-1.29-1.6-1.47c-0.94-0.23-1.65,0.41-2.09,1.16c-0.56,0.95-1.12,1.91-1.7,2.85c-1.22,2.01-2.45,4.02-3.67,6.02
					C190.66,65.63,192.39,66.63,193.06,65.54L193.06,65.54z"/>
			</g>
		</g>
		<g>
			<g>
				<path class="st0" d="M191.77,240.8c0.92,2.06,1.96,4.06,3.13,5.98c0.58,0.96,1.2,1.9,1.84,2.81c0.34,0.49,0.7,0.97,1.06,1.45
					c0.33,0.43,0.64,0.95,1.11,1.23c1.18,0.71,2.02-0.32,2.69-1.17c0.75-0.95,1.49-1.9,2.22-2.87c1.48-1.95,2.92-3.94,4.31-5.96
					c0.73-1.06-1-2.06-1.73-1.01c-1.14,1.65-2.31,3.29-3.51,4.9c-0.57,0.77-1.15,1.53-1.74,2.29c-0.29,0.38-0.59,0.76-0.89,1.14
					c-0.25,0.32-0.55,0.87-0.93,1.04c0.17-0.05,0.34-0.09,0.5-0.14c0.13,0.04,0.11,0-0.05-0.14c-0.08-0.11-0.17-0.22-0.25-0.33
					c-0.14-0.18-0.27-0.36-0.4-0.54c-0.31-0.42-0.61-0.85-0.91-1.28c-0.62-0.89-1.2-1.81-1.76-2.74c-1.1-1.84-2.09-3.74-2.96-5.69
					c-0.22-0.49-0.94-0.61-1.37-0.36C191.62,239.73,191.55,240.31,191.77,240.8L191.77,240.8z"/>
			</g>
		</g>
		<g>
			<g>
				<path class="st0" d="M197.56,56.26c-0.75,25.26-1.16,50.53-1.21,75.8c-0.05,25.14,0.25,50.28,0.89,75.41
					c0.36,14.18,0.84,28.36,1.42,42.53c0.05,1.28,2.05,1.29,2,0c-1.04-25.25-1.74-50.52-2.07-75.79
					c-0.34-25.14-0.33-50.28,0.03-75.42c0.2-14.18,0.52-28.36,0.94-42.54C199.6,54.97,197.6,54.97,197.56,56.26L197.56,56.26z"/>
			</g>
		</g>
	</g>
</g>
<g>
	<g>
		<g>
			<path d="M158.91,248.4c0.26-2.14,0.52-4.28,0.78-6.42c0.03-0.27-0.25-0.5-0.5-0.5c-0.3,0-0.47,0.23-0.5,0.5
				c-0.26,2.14-0.52,4.28-0.78,6.42c-0.03,0.27,0.25,0.5,0.5,0.5C158.7,248.9,158.87,248.67,158.91,248.4L158.91,248.4z"/>
		</g>
	</g>
	<g>
		<g>
			<path d="M159.76,238.56c0-1.07,0-2.14,0-3.21c0-0.26-0.23-0.51-0.5-0.5c-0.27,0.01-0.5,0.22-0.5,0.5c0,1.07,0,2.14,0,3.21
				c0,0.26,0.23,0.51,0.5,0.5C159.53,239.05,159.76,238.84,159.76,238.56L159.76,238.56z"/>
		</g>
	</g>
	<g>
		<g>
			<path d="M159.76,230.86c0-1.07,0-2.14,0-3.21c0-0.26-0.23-0.51-0.5-0.5c-0.27,0.01-0.5,0.22-0.5,0.5c0,1.07,0,2.14,0,3.21
				c0,0.26,0.23,0.51,0.5,0.5C159.53,231.35,159.76,231.14,159.76,230.86L159.76,230.86z"/>
		</g>
	</g>
	<g>
		<g>
			<path d="M159.76,223.16c0-1.5,0-2.99,0-4.49c0-0.64-1-0.64-1,0c0,1.5,0,2.99,0,4.49C158.76,223.8,159.76,223.81,159.76,223.16
				L159.76,223.16z"/>
		</g>
	</g>
	<g>
		<g>
			<path d="M159.76,214.82c0-1.92,0-3.85,0-5.77c0-0.64-1-0.64-1,0c0,1.92,0,3.85,0,5.77C158.76,215.46,159.76,215.47,159.76,214.82
				L159.76,214.82z"/>
		</g>
	</g>
	<g>
		<g>
			<path d="M158.84,203.31c-0.01-1.64-0.01-3.28-0.02-4.93c0-0.64-1-0.64-1,0c0.01,1.64,0.01,3.28,0.02,4.93
				C157.84,203.95,158.84,203.95,158.84,203.31L158.84,203.31z"/>
		</g>
	</g>
	<g>
		<g>
			<path d="M158.07,193.13c0.3-1.5,0.59-2.99,0.89-4.49c0.05-0.26-0.08-0.54-0.35-0.62c-0.25-0.07-0.56,0.08-0.62,0.35
				c-0.3,1.5-0.59,2.99-0.89,4.49c-0.05,0.26,0.08,0.54,0.35,0.62C157.7,193.54,158.02,193.39,158.07,193.13L158.07,193.13z"/>
		</g>
	</g>
	<g>
		<g>
			<path d="M158.07,183.39c0-1.07,0-2.14,0-3.21c0-0.26-0.23-0.51-0.5-0.5c-0.27,0.01-0.5,0.22-0.5,0.5c0,1.07,0,2.14,0,3.21
				c0,0.26,0.23,0.51,0.5,0.5C157.84,183.88,158.07,183.67,158.07,183.39L158.07,183.39z"/>
		</g>
	</g>
	<g>
		<g>
			<path d="M158.1,175.83c0.28-1.28,0.56-2.57,0.85-3.85c0.06-0.26-0.08-0.54-0.35-0.62c-0.25-0.07-0.56,0.08-0.62,0.35
				c-0.28,1.28-0.56,2.57-0.85,3.85c-0.06,0.26,0.08,0.54,0.35,0.62C157.73,176.25,158.04,176.09,158.1,175.83L158.1,175.83z"/>
		</g>
	</g>
	<g>
		<g>
			<path d="M159.38,168.54c-0.11-2.14-0.21-4.28-0.32-6.43c-0.03-0.64-1.03-0.64-1,0c0.11,2.14,0.21,4.28,0.32,6.43
				C158.42,169.18,159.42,169.18,159.38,168.54L159.38,168.54z"/>
		</g>
	</g>
	<g>
		<g>
			<path d="M158.1,158.51c0.28-1.28,0.56-2.57,0.85-3.85c0.06-0.26-0.08-0.54-0.35-0.62c-0.25-0.07-0.56,0.08-0.62,0.35
				c-0.28,1.28-0.56,2.57-0.85,3.85c-0.06,0.26,0.08,0.54,0.35,0.62C157.73,158.93,158.04,158.77,158.1,158.51L158.1,158.51z"/>
		</g>
	</g>
	<g>
		<g>
			<path d="M159.76,150.03c0-1.58,0-3.16,0-4.74c0-0.64-1-0.64-1,0c0,1.58,0,3.16,0,4.74C158.76,150.67,159.76,150.67,159.76,150.03
				L159.76,150.03z"/>
		</g>
	</g>
	<g>
		<g>
			<path d="M158.91,130.86c0-1.5,0-2.99,0-4.49c0-0.64-1-0.64-1,0c0,1.5,0,2.99,0,4.49C157.91,131.5,158.91,131.5,158.91,130.86
				L158.91,130.86z"/>
		</g>
	</g>
	<g>
		<g>
			<path d="M158.53,122.3c0.4-1.59,0.81-3.18,1.21-4.78c0.16-0.62-0.81-0.89-0.96-0.27c-0.4,1.59-0.81,3.18-1.21,4.78
				C157.4,122.65,158.37,122.92,158.53,122.3L158.53,122.3z"/>
		</g>
	</g>
	<g>
		<g>
			<path d="M159.76,112.18c0-1.92,0-3.85,0-5.77c0-0.64-1-0.64-1,0c0,1.92,0,3.85,0,5.77C158.76,112.82,159.76,112.82,159.76,112.18
				L159.76,112.18z"/>
		</g>
	</g>
	<g>
		<g>
			<path d="M158.91,101.91c0-1.07,0-2.14,0-3.21c0-0.26-0.23-0.51-0.5-0.5c-0.27,0.01-0.5,0.22-0.5,0.5c0,1.07,0,2.14,0,3.21
				c0,0.26,0.23,0.51,0.5,0.5C158.69,102.4,158.91,102.2,158.91,101.91L158.91,101.91z"/>
		</g>
	</g>
	<g>
		<g>
			<path d="M158.91,94.86c0-1.5,0-2.99,0-4.49c0-0.64-1-0.64-1,0c0,1.5,0,2.99,0,4.49C157.91,95.5,158.91,95.5,158.91,94.86
				L158.91,94.86z"/>
		</g>
	</g>
	<g>
		<g>
			<path d="M158.1,84.43c0.27-1.18,0.55-2.35,0.82-3.53c0.06-0.26-0.08-0.54-0.35-0.62c-0.25-0.07-0.55,0.09-0.62,0.35
				c-0.27,1.18-0.55,2.35-0.82,3.53c-0.06,0.26,0.08,0.54,0.35,0.62C157.74,84.85,158.04,84.69,158.1,84.43L158.1,84.43z"/>
		</g>
	</g>
	<g>
		<g>
			<path d="M157.16,74.47c0.29-1.92,0.58-3.85,0.87-5.77c0.04-0.27-0.07-0.54-0.35-0.62c-0.24-0.06-0.57,0.08-0.62,0.35
				c-0.29,1.92-0.58,3.85-0.87,5.77c-0.04,0.27,0.07,0.54,0.35,0.62C156.78,74.89,157.12,74.74,157.16,74.47L157.16,74.47z"/>
		</g>
	</g>
	<g>
		<g>
			<path d="M157.27,64.85c0.39-1.73,0.78-3.47,1.16-5.2c0.14-0.63-0.82-0.89-0.96-0.27c-0.39,1.73-0.78,3.47-1.16,5.2
				C156.16,65.21,157.13,65.48,157.27,64.85L157.27,64.85z"/>
		</g>
	</g>
	<g>
		<g>
			<path d="M158.14,139.97c0.28-1.28,0.56-2.57,0.85-3.85c0.06-0.26-0.08-0.54-0.35-0.62c-0.25-0.07-0.56,0.08-0.62,0.35
				c-0.28,1.28-0.56,2.57-0.85,3.85c-0.06,0.26,0.08,0.54,0.35,0.62C157.78,140.39,158.09,140.23,158.14,139.97L158.14,139.97z"/>
		</g>
	</g>
</g>
<g>
	<g>
		<g>
			<path d="M214.94,147.7c-0.49,3.32-0.62,6.66-0.38,10.01c0.04,0.52,0.64,0.65,0.93,0.25c0.11-0.15,0.22-0.29,0.32-0.44
				c0.38-0.52-0.48-1.02-0.86-0.5c-0.11,0.15-0.22,0.29-0.32,0.44c0.31,0.08,0.62,0.17,0.93,0.25c-0.24-3.25-0.13-6.52,0.34-9.74
				C216,147.34,215.03,147.07,214.94,147.7L214.94,147.7z"/>
		</g>
	</g>
	<g>
		<g>
			<path d="M242.26,147.36c-1.06,3.31-1.42,6.82-1.04,10.28c0.07,0.63,1.07,0.64,1,0c-0.37-3.38-0.03-6.78,1.01-10.02
				C243.42,147.01,242.45,146.75,242.26,147.36L242.26,147.36z"/>
		</g>
	</g>
	<g>
		<g>
			<path d="M265.53,147.44c-0.21,2.4-0.43,4.8-0.64,7.21c-0.09,1.05-0.82,4.55,1.28,4.18c0.63-0.11,0.36-1.08-0.27-0.96
				c-0.35,0.06-0.15-1.72-0.14-1.81c0.09-0.97,0.17-1.94,0.26-2.9c0.17-1.9,0.34-3.8,0.51-5.7
				C266.59,146.79,265.59,146.8,265.53,147.44L265.53,147.44z"/>
		</g>
	</g>
	<g>
		<g>
			<path d="M180.66,148.14c-0.77,3.25-1.31,6.56-1.62,9.88c-0.06,0.64,0.94,0.64,1,0c0.3-3.24,0.83-6.45,1.58-9.62
				C181.77,147.78,180.81,147.51,180.66,148.14L180.66,148.14z"/>
		</g>
	</g>
	<g>
		<g>
			<path d="M158.85,148.1c-1.07,3.97-1.37,8.12-0.86,12.2c0.08,0.63,1.08,0.64,1,0c-0.5-4-0.22-8.04,0.82-11.94
				C159.99,147.74,159.02,147.48,158.85,148.1L158.85,148.1z"/>
		</g>
	</g>
	<g>
		<g>
			<path d="M133.41,147.89c-0.28,3.5-0.56,7-0.84,10.5c-0.05,0.64,0.95,0.64,1,0c0.28-3.5,0.56-7,0.84-10.5
				C134.46,147.25,133.46,147.25,133.41,147.89L133.41,147.89z"/>
		</g>
	</g>
	<g>
		<g>
			<path d="M110.93,148.27c-0.17,4.26-0.12,8.52,0.15,12.77c0.04,0.64,1.04,0.64,1,0c-0.27-4.25-0.32-8.52-0.15-12.77
				C111.96,147.62,110.96,147.62,110.93,148.27L110.93,148.27z"/>
		</g>
	</g>
</g>
<g>
	<g>
		<g>
			<g>
				<path class="st1" d="M163.19,53.95c1.3,12.5,3.22,24.94,5.77,37.26c1.23,5.94,2.53,11.89,4.19,17.73
					c1.54,5.43,3.53,10.82,6.6,15.59c4.84,7.51,12.22,12.94,20.33,16.48c3,1.31,6.09,2.39,9.24,3.29c2.93,0.84,5.87,1.61,8.87,2.16
					c4.83,0.89,9.73,1.36,14.62,1.85c5.46,0.55,10.92,1,16.4,1.22c0.99,0.04,1.98,0.07,2.98,0.1c1.29,0.04,1.29-1.96,0-2
					c-4.86-0.14-9.73-0.42-14.57-0.85c-5.26-0.47-10.54-0.97-15.77-1.74c-6.19-0.91-12.39-2.51-18.24-4.74
					c-7.71-2.95-14.95-7.48-20.13-14c-3.36-4.22-5.61-9.21-7.29-14.31c-1.82-5.53-3.09-11.24-4.34-16.92
					c-2.66-12.06-4.71-24.26-6.14-36.53c-0.18-1.53-0.35-3.07-0.51-4.61c-0.06-0.54-0.42-1-1-1
					C163.69,52.95,163.13,53.41,163.19,53.95L163.19,53.95z"/>
			</g>
		</g>
		<g>
			<g>
				<path class="st1" d="M156.29,60.89c-0.48,0.45-0.96,0.9-1.44,1.36c0.47,0.47,0.94,0.94,1.41,1.41
					c2.68-3.41,5.36-6.82,8.04-10.22c0.14-0.18,0.28-0.42,0.46-0.57c0.11-0.09-0.1-0.16,0.09-0.01c0.35,0.28,0.64,0.63,0.95,0.95
					c0.65,0.69,1.28,1.41,1.88,2.15c1.22,1.5,2.3,3.11,3.26,4.78c0.64,1.11,2.37,0.11,1.73-1.01c-1.11-1.91-2.38-3.73-3.79-5.44
					c-0.7-0.85-1.43-1.67-2.21-2.45c-0.74-0.74-1.74-1.42-2.79-0.81c-0.9,0.52-1.52,1.65-2.15,2.45c-0.77,0.97-1.53,1.95-2.3,2.92
					c-1.53,1.95-3.06,3.9-4.59,5.84c-0.78,0.99,0.45,2.32,1.41,1.41c0.48-0.45,0.96-0.9,1.44-1.36
					C158.64,61.42,157.23,60.01,156.29,60.89L156.29,60.89z"/>
			</g>
		</g>
		<g>
			<g>
				<path class="st1" d="M245.56,141.18c0.76,3.01,3.69,4.43,6.07,6c0.3,0.2,0.61,0.41,0.9,0.63c0.13,0.1,0.56,0.35,0.6,0.5
					c0.05,0.24-0.52,0.81-0.67,0.99c-0.29,0.35-0.59,0.69-0.9,1.02c-1.26,1.33-2.69,2.48-4.26,3.42c-0.79,0.47-2.04,0.83-2.04,1.94
					c0,1.18,1.62,1.44,2.18,0.5c0.18-0.31,0.18-0.7,0-1.01c-0.01-0.02-0.02-0.04-0.03-0.06c-0.63-1.12-2.36-0.11-1.73,1.01
					c0.01,0.02,0.02,0.04,0.03,0.06c0-0.34,0-0.67,0-1.01c-0.01,0.02-0.02,0.04-0.03,0.05c0.12-0.12,0.24-0.24,0.36-0.36
					c-0.02,0.01-0.05,0.02-0.07,0.04c0.17-0.05,0.34-0.09,0.5-0.14c0.03,0.01,0.07,0.01,0.1,0.02c0.2,0.15,0.4,0.31,0.6,0.46
					c-0.01-0.02-0.03-0.05-0.04-0.07c0.05,0.17,0.09,0.34,0.14,0.5c0.01-0.05,0.01-0.09,0.02-0.14c-0.05,0.17-0.09,0.34-0.14,0.5
					c-0.1,0.14,0.46-0.18,0.53-0.22c0.24-0.13,0.49-0.27,0.72-0.41c0.48-0.29,0.94-0.59,1.4-0.92c0.86-0.62,1.68-1.29,2.45-2.02
					c0.75-0.72,1.45-1.5,2.09-2.33c0.69-0.89,1.13-1.96,0.4-2.98c-0.51-0.71-1.37-1.23-2.09-1.7c-0.71-0.47-1.45-0.91-2.16-1.37
					c-1.3-0.85-2.59-1.85-2.99-3.43C247.18,139.4,245.25,139.93,245.56,141.18L245.56,141.18z"/>
			</g>
		</g>
	</g>
	<g class="st2">
		<g class="st3">
			<g>
				<path class="st1" d="M153.58,243.52c0.73-4.62,1.01-9.31,0.95-13.98c-0.1-8.46-1.36-16.95-4-24.99
					c-3.34-10.18-8.95-19.52-16.6-27.04c-7.23-7.12-16.01-12.52-25.38-16.34c-8.48-3.46-17.48-5.54-26.63-6.07
					c-1.06-0.06-2.13-0.1-3.19-0.12c-1.29-0.03-1.29,1.97,0,2c9.06,0.18,18.01,1.91,26.5,5.04c8.79,3.24,17.15,7.92,24.24,14.09
					c8.08,7.03,14.29,15.97,18.07,25.98c3.03,8.01,4.59,16.52,4.93,25.06c0.12,3.15,0.08,6.31-0.13,9.46
					c-0.08,1.14-0.17,2.27-0.3,3.4c-0.05,0.47-0.11,0.93-0.16,1.4c-0.01,0.09-0.02,0.17-0.03,0.26c-0.03,0.22,0.03-0.24-0.01,0.06
					c-0.02,0.17-0.05,0.34-0.07,0.51c-0.04,0.25-0.08,0.51-0.12,0.76c-0.08,0.53,0.14,1.08,0.7,1.23
					C152.83,244.35,153.5,244.05,153.58,243.52L153.58,243.52z"/>
			</g>
		</g>
		<g class="st3">
			<g>
				<path class="st1" d="M84.53,148.51c-2.69,2.26-5.37,4.53-8.06,6.79c-0.51,0.43-0.31,1.26,0.2,1.57
					c2.98,1.81,5.62,4.09,7.87,6.76c0.83,0.99,2.24-0.44,1.41-1.41c-2.35-2.79-5.15-5.17-8.27-7.07c0.07,0.52,0.13,1.05,0.2,1.57
					c2.69-2.26,5.37-4.53,8.06-6.79C86.93,149.09,85.51,147.68,84.53,148.51L84.53,148.51z"/>
			</g>
		</g>
		<g class="st3">
			<g>
				<path class="st1" d="M145.53,239.89c1.22,1.3,2.44,2.59,3.66,3.89c0.99,1.05,2.24,3,3.93,2.54c0.78-0.21,1.37-0.87,1.96-1.39
					c0.67-0.6,1.35-1.21,2.02-1.81c1.38-1.23,2.76-2.47,4.14-3.7c0.96-0.86-0.46-2.27-1.41-1.41c-1.16,1.04-2.33,2.08-3.49,3.12
					c-1.15,1.03-2.26,2.21-3.51,3.13c-0.21,0.16-0.19,0.15-0.39,0.04c-0.24-0.14-0.48-0.49-0.67-0.69
					c-0.53-0.56-1.05-1.12-1.58-1.68c-1.08-1.15-2.16-2.3-3.24-3.45C146.06,237.54,144.65,238.95,145.53,239.89L145.53,239.89z"/>
			</g>
		</g>
	</g>
</g>
<g>
	<g>
		<path d="M192.48,137.92c3.14-0.2,6.3-0.09,9.42,0.31c0.64,0.08,0.63-0.92,0-1c-3.12-0.4-6.28-0.51-9.42-0.31
			C191.84,136.96,191.83,137.96,192.48,137.92L192.48,137.92z"/>
	</g>
</g>
<g>
	<g>
		<g>
			<path d="M207.29,130.38c1.14-0.47,2.41-0.46,3.55,0.03c0.58,0.25,1.1,0.62,1.53,1.09c0.44,0.48,0.98,1.27,0.61,1.93
				c-0.33,0.59-1.1,0.93-1.67,1.23c-0.73,0.39-1.47,0.75-2.24,1.05c-1.53,0.61-3.12,1.05-4.75,1.33c-0.61,0.1-0.37,0.92,0.13,0.98
				c3.36,0.42,6.71,0.83,10.07,1.25c0.64,0.08,0.63-0.92,0-1c-3.36-0.42-6.71-0.83-10.07-1.25c0.04,0.33,0.09,0.65,0.13,0.98
				c1.54-0.26,3.04-0.67,4.5-1.23c1.35-0.52,2.79-1.12,3.96-2c2.47-1.85-0.05-4.64-2.13-5.41c-1.24-0.46-2.66-0.47-3.88,0.04
				C206.44,129.66,206.7,130.63,207.29,130.38L207.29,130.38z"/>
		</g>
	</g>
	<g>
		<g>
			<path d="M217.89,136.82c-0.03,0-0.05,0-0.08,0c0.04,0.01,0.09,0.01,0.13,0.02c-0.03,0-0.05-0.01-0.08-0.02
				c0.04,0.02,0.08,0.03,0.12,0.05c-0.02-0.01-0.04-0.02-0.06-0.04c0.03,0.03,0.07,0.05,0.1,0.08c-0.02-0.02-0.05-0.04-0.06-0.06
				c0.03,0.03,0.05,0.07,0.08,0.1c-0.03-0.03-0.05-0.07-0.06-0.11c0.02,0.04,0.03,0.08,0.05,0.12c-0.02-0.05-0.03-0.1-0.04-0.15
				c0.01,0.04,0.01,0.09,0.02,0.13c-0.01-0.06-0.01-0.13,0-0.19c-0.01,0.04-0.01,0.09-0.02,0.13c0.01-0.05,0.02-0.1,0.04-0.15
				c-0.02,0.04-0.03,0.08-0.05,0.12c0.02-0.04,0.04-0.07,0.06-0.11c-0.03,0.03-0.05,0.07-0.08,0.1c0.02-0.02,0.04-0.04,0.06-0.06
				c-0.03,0.03-0.07,0.05-0.1,0.08c0.02-0.01,0.04-0.03,0.06-0.04c-0.04,0.02-0.08,0.03-0.12,0.05c0.03-0.01,0.05-0.02,0.08-0.02
				c-0.04,0.01-0.09,0.01-0.13,0.02c0.03,0,0.05,0,0.08,0c-0.14-0.08-0.29-0.17-0.43-0.25c0.02,0.03,0.03,0.05,0.04,0.08
				c-0.02-0.04-0.03-0.08-0.05-0.12c0.02,0.04,0.03,0.08,0.03,0.12c-0.01-0.04-0.01-0.09-0.02-0.13c0,0.04,0,0.08,0,0.12
				c0.01-0.04,0.01-0.09,0.02-0.13c-0.01,0.05-0.02,0.11-0.04,0.16c0.02-0.04,0.03-0.08,0.05-0.12c-0.03,0.06-0.06,0.11-0.1,0.17
				c0.03-0.03,0.05-0.07,0.08-0.1c-0.04,0.05-0.09,0.1-0.14,0.14c0.03-0.03,0.07-0.05,0.1-0.08c-0.05,0.04-0.11,0.07-0.17,0.1
				c0.04-0.02,0.08-0.03,0.12-0.05c-0.05,0.02-0.1,0.04-0.16,0.04c0.04-0.01,0.09-0.01,0.13-0.02c-0.04,0.01-0.09,0.01-0.13,0
				c0.04,0.01,0.09,0.01,0.13,0.02c-0.04-0.01-0.08-0.02-0.12-0.03c0.04,0.02,0.08,0.03,0.12,0.05c-0.04-0.02-0.07-0.04-0.1-0.06
				c0.03,0.03,0.07,0.05,0.1,0.08c-0.03-0.03-0.06-0.05-0.09-0.09c0.03,0.03,0.05,0.07,0.08,0.1c-0.02-0.03-0.04-0.06-0.05-0.09
				c0.02,0.04,0.03,0.08,0.05,0.12c-0.02-0.04-0.03-0.09-0.04-0.14c0.01,0.04,0.01,0.09,0.02,0.13c-0.01-0.06-0.01-0.11,0-0.17
				c-0.01,0.04-0.01,0.09-0.02,0.13c0.01-0.07,0.03-0.14,0.06-0.2c-0.02,0.04-0.03,0.08-0.05,0.12c0.03-0.06,0.06-0.12,0.1-0.17
				c-0.03,0.03-0.05,0.07-0.08,0.1c0.04-0.05,0.08-0.09,0.13-0.13c-0.03,0.03-0.07,0.05-0.1,0.08c0.04-0.03,0.08-0.05,0.12-0.07
				c-0.04,0.02-0.08,0.03-0.12,0.05c0.04-0.02,0.08-0.03,0.12-0.03c-0.04,0.01-0.09,0.01-0.13,0.02c0.04,0,0.08-0.01,0.12,0
				c-0.04-0.01-0.09-0.01-0.13-0.02c0.03,0,0.05,0.01,0.07,0.02c-0.1-0.08-0.2-0.15-0.3-0.23c0.02,0.03,0.03,0.06,0.05,0.09
				c-0.02-0.04-0.03-0.08-0.05-0.12c0.02,0.06,0.04,0.12,0.05,0.18c-0.01-0.04-0.01-0.09-0.02-0.13c0.01,0.07,0.01,0.14,0,0.21
				c0.01-0.04,0.01-0.09,0.02-0.13c-0.01,0.06-0.03,0.12-0.05,0.18c0.02-0.04,0.03-0.08,0.05-0.12c-0.03,0.06-0.06,0.11-0.1,0.16
				c0.03-0.03,0.05-0.07,0.08-0.1c-0.01,0.01-0.02,0.03-0.03,0.04c-0.09,0.1-0.15,0.22-0.15,0.35c0,0.12,0.05,0.27,0.15,0.35
				c0.1,0.09,0.22,0.15,0.35,0.15c0.13-0.01,0.26-0.05,0.35-0.15c0.14-0.16,0.26-0.36,0.3-0.57c0.04-0.22,0.05-0.45-0.03-0.66
				c-0.08-0.21-0.18-0.4-0.41-0.47c-0.09-0.03-0.18-0.04-0.27-0.04c-0.18,0-0.36,0.05-0.51,0.15c-0.58,0.36-0.81,1.23-0.32,1.76
				c0.25,0.27,0.66,0.36,1.01,0.24c0.31-0.1,0.59-0.32,0.74-0.62c0.08-0.16,0.14-0.34,0.13-0.53c-0.01-0.29-0.14-0.63-0.45-0.72
				c-0.19-0.05-0.41-0.01-0.58,0.09c-0.13,0.08-0.25,0.2-0.32,0.33c-0.14,0.27-0.18,0.61-0.08,0.89c0.06,0.16,0.13,0.31,0.26,0.42
				c0.16,0.13,0.36,0.22,0.58,0.21c0.13-0.01,0.26-0.05,0.35-0.15c0.09-0.09,0.15-0.23,0.15-0.35c-0.01-0.13-0.05-0.26-0.15-0.35
				C218.15,136.88,218.02,136.81,217.89,136.82L217.89,136.82z"/>
		</g>
	</g>
	<g>
		<g>
			<path d="M223.81,129.13c-1.25,0.3-2.51,0.06-3.57-0.64c-0.27-0.18-0.65,0-0.73,0.3c-0.56,1.97-0.74,4.02-0.51,6.06
				c0.03,0.3,0.3,0.6,0.63,0.48c0.9-0.32,2.26-0.78,2.88,0.24c0.38,0.62,0.3,1.47,0.01,2.11c-0.91,2.02-3.77,1.69-5.52,1.34
				c-0.63-0.12-0.9,0.84-0.27,0.96c2.42,0.47,5.87,0.6,6.84-2.26c0.32-0.96,0.26-2.13-0.39-2.94c-0.96-1.19-2.56-0.86-3.82-0.42
				c0.21,0.16,0.42,0.32,0.63,0.48c-0.22-1.95-0.07-3.9,0.47-5.79c-0.24,0.1-0.49,0.2-0.73,0.3c1.29,0.85,2.85,1.1,4.34,0.74
				C224.7,129.94,224.44,128.97,223.81,129.13L223.81,129.13z"/>
		</g>
	</g>
</g>
<g>
	<g>
		<path d="M159.91,138.75c0.01,0.02,0.01,0.04,0,0.07c0.02-0.08,0.05-0.17,0.07-0.25c0.11-0.15,0.24-0.21,0.38-0.17
			c-0.05-0.02-0.05-0.01,0.02,0.01c0.11,0.07,0.16,0.19,0.13,0.36c-0.01,0.03-0.02,0.06-0.05,0.09c0,0.01-0.01,0.01-0.02,0.01
			c0.04-0.01,0.08-0.02,0.12-0.03c0.07-0.01,0.11-0.01,0.2-0.02c0.43-0.03,0.86-0.05,1.28-0.08c0.89-0.05,1.77-0.1,2.66-0.16
			c0.27-0.02,0.5-0.22,0.5-0.5c0-0.26-0.23-0.52-0.5-0.5c-0.72,0.04-1.44,0.08-2.15,0.13c-0.71,0.04-1.43,0.03-2.13,0.14
			c-0.28,0.04-0.55,0.15-0.73,0.39c-0.2,0.27-0.23,0.64,0.01,0.89c0.16,0.18,0.4,0.28,0.64,0.26c0.32-0.02,0.62-0.29,0.58-0.63
			c-0.03-0.27-0.21-0.5-0.5-0.5C160.17,138.25,159.88,138.48,159.91,138.75L159.91,138.75z"/>
	</g>
</g>
<g>
	<g>
		<path d="M165.95,134.66c0.65-1.41,2.83-1.36,3.71-0.21c1.33,1.74,0.17,4.18-1.4,5.29c-1.03,0.72-2.23,1.13-3.45,1.4
			c-0.53,0.12-0.42,0.8,0,0.96c2.53,1,5.42,1.01,7.95,0.02c0.59-0.23,0.33-1.2-0.27-0.96c-2.39,0.94-5.03,0.93-7.42-0.02
			c0,0.32,0,0.64,0,0.96c2.54-0.57,5.26-1.91,5.98-4.63c0.31-1.18,0.2-2.52-0.53-3.53c-0.61-0.85-1.6-1.31-2.64-1.35
			c-1.13-0.04-2.31,0.49-2.8,1.56C164.82,134.74,165.68,135.25,165.95,134.66L165.95,134.66z"/>
	</g>
</g>
<g>
	<g>
		<path class="st1" d="M195.81,137.84c-0.03-0.13-0.07-0.27-0.1-0.4c0.08-0.2,0.16-0.4,0.24-0.6c0.07-0.09,0.21-0.16,0.31-0.19
			c-0.04,0.01-0.12,0.02,0.05,0c0.19-0.03-0.04-0.05,0.14,0c0.29,0.08,0.5,0.23,0.61,0.53c0.05,0.13,0.03,0.33-0.05,0.46
			c-0.03,0.03-0.05,0.06-0.08,0.09c0.06-0.06,0.07-0.07,0-0.01c-0.1,0.09,0.02,0,0.05-0.02c0.1-0.07-0.07,0.04-0.07,0.03
			c0-0.01,0.1-0.03,0.12-0.03c0.1-0.03,0.07,0.05-0.1,0.01c0.05,0.01,0.14,0,0.19,0c0.21,0-0.23-0.06,0.02,0.01
			c0.06,0.02,0.12,0.04,0.18,0.06c0.12,0.03-0.19-0.11-0.09-0.04c0.02,0.01,0.05,0.02,0.07,0.04c0.05,0.03,0.13,0.1,0.18,0.12
			c-0.02,0-0.19-0.16-0.07-0.06c0.03,0.02,0.06,0.05,0.08,0.07c0.05,0.05,0.1,0.11,0.15,0.16c0.12,0.12-0.12-0.18,0,0
			c0.08,0.13,0.15,0.26,0.22,0.39c0.06,0.11-0.06-0.2-0.04-0.08c0.01,0.03,0.02,0.05,0.03,0.08c0.02,0.07,0.04,0.14,0.06,0.22
			c0.01,0.05,0.05,0.27,0.02,0.09c-0.03-0.18,0,0.09,0,0.14c0,0.05-0.02,0.27,0,0.09c0.03-0.19-0.01,0.04-0.02,0.08
			c-0.01,0.04-0.02,0.07-0.03,0.11c-0.04,0.15,0.03-0.07,0.04-0.08c-0.04,0.05-0.07,0.14-0.11,0.2c-0.01,0.02-0.06,0.07-0.06,0.09
			c0.01-0.02,0.16-0.18,0.05-0.07c-0.05,0.04-0.09,0.09-0.14,0.14c-0.16,0.16,0.14-0.08,0.01-0.01c-0.07,0.04-0.14,0.08-0.21,0.12
			c-0.2,0.11,0.17-0.05,0.01-0.01c-0.07,0.02-0.14,0.04-0.21,0.06c-0.05,0.01-0.26,0.05-0.08,0.02c0.18-0.02-0.09,0-0.14,0
			c-0.07,0-0.13,0-0.2,0c-0.04,0-0.07-0.01-0.11-0.01c-0.1,0,0.13,0.02,0.13,0.02c-0.14-0.05-0.3-0.06-0.44-0.1
			c-0.04-0.01-0.07-0.03-0.11-0.04c-0.15-0.05,0.07,0.03,0.08,0.04c-0.05-0.04-0.12-0.06-0.18-0.09c-0.07-0.04-0.13-0.07-0.19-0.12
			c-0.02-0.02-0.05-0.03-0.07-0.05c-0.16-0.11,0.13,0.11,0.05,0.04c-0.08-0.08-0.2-0.24-0.3-0.3c0.02,0.01,0.14,0.2,0.06,0.07
			c-0.01-0.02-0.03-0.05-0.05-0.07c-0.04-0.06-0.07-0.18-0.12-0.22c0.01,0.01,0.08,0.24,0.04,0.08c-0.01-0.03-0.02-0.06-0.03-0.09
			c-0.03-0.08-0.04-0.17-0.06-0.25c-0.04-0.1,0.02,0.09,0.01,0.11c0.01-0.01-0.01-0.11-0.01-0.13c-0.01-0.1,0-0.19,0-0.29
			c0-0.23-0.04,0.15,0-0.02c0.02-0.08,0.03-0.17,0.06-0.25c0.02-0.07,0.05-0.15,0.07-0.22c0-0.01,0.03-0.09,0.03-0.09
			c0,0-0.1,0.2-0.01,0.03c0.08-0.15,0.16-0.29,0.25-0.43c0.08-0.12-0.04,0.01-0.04,0.04c0-0.01,0.08-0.1,0.09-0.1
			c0.06-0.07,0.12-0.13,0.18-0.19c0.03-0.03,0.16-0.18,0.2-0.18c0.01,0-0.17,0.11-0.07,0.06c0.04-0.02,0.07-0.05,0.11-0.08
			c0.06-0.04,0.13-0.08,0.2-0.12c0.04-0.02,0.08-0.04,0.12-0.06c0.16-0.09-0.14,0.04-0.03,0.01c0.04-0.01,0.47-0.16,0.48-0.13
			c0,0.01-0.21,0.02-0.09,0.01c0.05,0,0.09-0.01,0.14-0.01c0.09,0,0.23,0.03,0.31,0.01c-0.01,0-0.2-0.04-0.09-0.01
			c0.05,0.02,0.11,0.03,0.17,0.04c0.16,0.03-0.07-0.02-0.05-0.03c0.02-0.01,0.12,0.07,0.15,0.08c0.11,0.04-0.09-0.05-0.07-0.06
			c-0.02,0.01,0.2,0.15,0.06,0.04c-0.11-0.08,0,0.02,0.03,0.06c0.06,0.07-0.03-0.14,0.01,0.03c0.01,0.05,0.03,0.11,0.04,0.16
			c0.03,0.11,0.03,0.06,0-0.02c0.03,0.1,0.02,0.26,0.02,0.36c0,0.12,0,0.24-0.01,0.36c0,0.04-0.01,0.08-0.01,0.12
			c-0.01,0.12,0,0.14,0,0.01c0,0.23-0.09,0.49-0.16,0.7c-0.03,0.1-0.07,0.2-0.1,0.3c-0.02,0.04-0.08,0.17,0.01-0.02
			c-0.03,0.06-0.06,0.12-0.08,0.18c-0.1,0.2-0.21,0.4-0.34,0.59c-0.03,0.04-0.06,0.09-0.09,0.13c0.05-0.07,0.08-0.1,0.01-0.01
			c-0.09,0.1-0.18,0.2-0.27,0.3c0.52,0.07,1.05,0.13,1.57,0.2c-0.1-0.18-0.21-0.36-0.31-0.55c-0.06-0.11-0.11-0.21-0.16-0.32
			c-0.1-0.21,0.03,0.11-0.03-0.09c-0.03-0.11-0.07-0.22-0.1-0.33c-0.02-0.08-0.05-0.26-0.03-0.08c-0.01-0.12-0.01-0.23-0.01-0.35
			c-0.01-0.25-0.06,0.16,0-0.03c0.01-0.05,0.02-0.09,0.04-0.13c0.04-0.1,0.03-0.09-0.02,0.05c-0.01-0.03,0.08-0.15,0.1-0.18
			c0.06-0.09,0.05-0.08-0.03,0.03c0.03-0.04,0.06-0.07,0.09-0.1c0.03-0.03,0.07-0.06,0.1-0.09c-0.03,0.02-0.06,0.05-0.09,0.07
			c0.04-0.03,0.07-0.05,0.11-0.07c0.1-0.05,0.08-0.04-0.06,0.02c-0.01-0.02,0.18-0.03,0.19-0.05c-0.16,0.02-0.19,0.03-0.07,0.02
			c0.11,0.01,0.09,0-0.07-0.01c0.21,0.04-0.18-0.12-0.01-0.01c0.06,0.04-0.2-0.19-0.05-0.03c-0.11-0.15-0.14-0.18-0.08-0.1
			c0.03,0.06,0.03,0.05-0.01-0.04c-0.09-0.21,0,0.04,0,0.05c-0.02-0.19-0.03-0.24-0.02-0.13c0,0.02,0,0.05,0,0.07
			c0,0.02,0,0.05,0,0.07c-0.01,0.1,0,0.06,0.02-0.13c-0.02,0.02-0.03,0.12-0.04,0.15c-0.01,0.06,0.13-0.24,0.02-0.06
			c-0.11,0.19,0.09-0.1,0.05-0.05c-0.13,0.15,0.2-0.12,0.06-0.05c0.18-0.07,0.23-0.09,0.13-0.06c0.2-0.02,0.25-0.03,0.17-0.02
			c-0.21,0.01,0.25,0.06,0.07,0.01c-0.11-0.02-0.21-0.04-0.32-0.04c0.08-0.01,0.16,0.01,0.22,0.04c0.08,0.04,0.09,0.04,0.02,0
			c0.13,0.1,0.15,0.12,0.07,0.05c0.09,0.13,0.11,0.15,0.06,0.06c-0.04-0.07-0.04-0.07,0,0.02c0.03,0.08,0.04,0.09,0.02,0.01
			c0.02,0.17,0.02,0.21,0.02,0.1c-0.03,0.17-0.03,0.21-0.01,0.1c-0.07,0.15-0.08,0.18-0.02,0.09c0.29-0.44,0.1-1.13-0.36-1.37
			c-0.5-0.27-1.06-0.11-1.37,0.36c-0.33,0.5-0.3,1.16-0.02,1.68c0.14,0.25,0.34,0.46,0.58,0.61c0.12,0.08,0.25,0.14,0.39,0.18
			c0.07,0.02,0.13,0.03,0.21,0.04c0.06,0.01,0.13,0.02,0.19,0.03c-0.05-0.01-0.11-0.01-0.16-0.02c0.12-0.02,0.27,0.05,0.39,0.05
			c0.12,0,0.26-0.02,0.38-0.05c0.24-0.06,0.48-0.21,0.66-0.38c0.27-0.26,0.46-0.63,0.52-1c0.16-0.95-0.28-1.99-1.32-2.18
			c-1.19-0.22-2.21,0.58-2.62,1.66c-0.45,1.19,0.18,2.46,0.77,3.48c0.32,0.55,1.12,0.66,1.57,0.2c0.91-0.93,1.44-2.11,1.59-3.4
			c0.07-0.61,0.06-1.29-0.16-1.87c-0.27-0.69-0.82-1.19-1.54-1.38c-2.29-0.6-4.66,1.61-4.54,3.89c0.06,1.1,0.63,2.07,1.58,2.64
			c0.82,0.49,1.9,0.67,2.82,0.38c1.04-0.32,1.83-1.17,1.98-2.26c0.13-1-0.26-2.05-0.98-2.75c-0.95-0.91-2.65-1.19-3.54-0.03
			c-0.33,0.43-0.42,1.04-0.15,1.52c0.22,0.39,0.65,0.63,1.1,0.64c0.94,0.01,1.7-0.92,1.19-1.81c-0.26-0.45-0.92-0.65-1.37-0.36
			C195.71,136.76,195.53,137.35,195.81,137.84L195.81,137.84z"/>
	</g>
</g>
</svg>
