<?xml version="1.0" encoding="utf-8"?>
<!-- Generator: Adobe Illustrator 23.1.1, SVG Export Plug-In . SVG Version: 6.00 Build 0)  -->
<svg version="1.1" id="Layer_1" xmlns="http://www.w3.org/2000/svg" xmlns:xlink="http://www.w3.org/1999/xlink" x="0px" y="0px"
	 viewBox="0 0 432 288" style="enable-background:new 0 0 432 288;" xml:space="preserve">
<style type="text/css">
	.st0{fill:#A7A9AC;}
	.st1{display:none;}
	.st2{display:inline;}
	.st3{fill:#ED1C24;}
	.st4{fill:#00AEEF;}
</style>
<g>
	<g>
		<g>
			<path class="st0" d="M368.85,152.04c1.7-2.18,3.38-4.37,5.03-6.59c0.49-0.66,0.97-1.31,1.44-1.98c0.42-0.6,0.89-1.18,1.01-1.92
				c0.26-1.56-1-2.83-2.07-3.77c-2.13-1.86-4.55-3.44-7-4.85c-1.12-0.64-2.13,1.09-1.01,1.73c2.01,1.15,3.96,2.43,5.78,3.86
				c0.7,0.56,1.44,1.14,1.99,1.85c0.03,0.04,0.09,0.12,0.16,0.23c0.03,0.05,0.17,0.32,0.14,0.24c-0.04-0.09,0.05,0.18,0.06,0.22
				c-0.03-0.13,0.04-0.02,0,0.13c-0.13,0.44-0.56,0.94-0.85,1.34c-0.42,0.59-0.85,1.18-1.29,1.77c-0.98,1.32-1.97,2.62-2.97,3.93
				c-0.65,0.85-1.17,1.52-1.84,2.37c-0.33,0.43-0.41,1,0,1.41C367.78,152.39,368.51,152.47,368.85,152.04L368.85,152.04z"/>
		</g>
	</g>
	<g>
		<g>
			<path class="st0" d="M71.74,129.89c-1.74,0.72-3.44,1.53-5.07,2.47c-0.84,0.49-1.67,1-2.48,1.55c-0.68,0.46-1.67,0.96-2.11,1.68
				c-0.57,0.94,0.07,1.73,0.74,2.37c0.72,0.68,1.44,1.36,2.17,2.03c1.49,1.36,3.01,2.69,4.56,3.98c0.98,0.82,2.4-0.59,1.41-1.41
				c-1.28-1.07-2.53-2.15-3.77-3.26c-0.59-0.53-1.17-1.06-1.75-1.6c-0.32-0.3-0.64-0.59-0.95-0.89c-0.26-0.25-0.61-0.49-0.76-0.82
				c0.05,0.17,0.09,0.34,0.14,0.5c-0.09,0.15-0.09,0.18,0,0.11c0.08-0.06,0.16-0.11,0.23-0.17c0.18-0.13,0.36-0.26,0.55-0.39
				c0.31-0.22,0.62-0.43,0.93-0.63c0.72-0.48,1.45-0.93,2.2-1.36c1.45-0.83,2.95-1.57,4.5-2.21c0.5-0.21,0.85-0.66,0.7-1.23
				C72.84,130.12,72.24,129.69,71.74,129.89L71.74,129.89z"/>
		</g>
	</g>
	<g>
		<g>
			<path class="st0" d="M63.99,137.62c23.35,2.98,46.99,2.46,70.48,2.47c19.94,0.01,39.88,0.05,59.83,0.07
				c19.31,0.02,38.63,0.01,57.94-0.06c16.52-0.06,33.05-0.08,49.57,0.06c20.95,0.18,41.89,0.56,62.83,1.13
				c2.95,0.08,5.91,0.16,8.86,0.25c1.29,0.04,1.29-1.96,0-2c-21.65-0.64-43.31-1.09-64.97-1.32c-16.1-0.17-32.2-0.23-48.3-0.16
				c-19.68,0.08-39.36,0.11-59.04,0.1c-19.58-0.01-39.16-0.06-58.74-0.07c-23.26-0.02-46.67,0.62-69.86-1.53
				c-2.87-0.27-5.74-0.58-8.59-0.95C62.72,135.46,62.73,137.46,63.99,137.62L63.99,137.62z"/>
		</g>
	</g>
</g>
<g>
	<g>
		<g>
			<path class="st0" d="M214.08,23.03c2.07-3.39,4.17-6.76,6.18-10.18c0.11-0.19,0.22-0.37,0.33-0.56c0.07-0.12,0.38-0.49,0.37-0.59
				c-0.02-0.23,0.08,0.15-0.09-0.03c-0.21-0.22-0.03,0.1-0.04,0.03c0,0.05,0.26,0.29,0.31,0.36c0.15,0.2,0.28,0.42,0.42,0.62
				c0.83,1.24,1.65,2.48,2.48,3.73c1.5,2.26,3,4.53,4.5,6.79c0.71,1.07,2.44,0.07,1.73-1.01c-2.35-3.56-4.71-7.12-7.08-10.67
				c-0.46-0.69-0.94-1.48-1.77-1.75c-1.12-0.37-1.96,0.48-2.48,1.37c-0.69,1.21-1.41,2.39-2.14,3.58c-1.48,2.44-2.97,4.87-4.46,7.3
				C211.68,23.12,213.41,24.13,214.08,23.03L214.08,23.03z"/>
		</g>
	</g>
	<g>
		<g>
			<path class="st0" d="M211.91,257.47c1.76,3.95,3.9,7.72,6.42,11.24c0.61,0.85,1.2,1.83,1.95,2.56c0.84,0.83,1.97,0.61,2.7-0.23
				c1.46-1.71,2.79-3.55,4.14-5.35c1.57-2.1,3.1-4.23,4.59-6.38c0.73-1.06-1-2.06-1.73-1.01c-2.32,3.36-4.73,6.65-7.25,9.86
				c-0.29,0.37-0.59,0.75-0.88,1.12c-0.09,0.11-0.38,0.35-0.4,0.49c-0.02,0.02-0.04,0.05-0.06,0.07c0.11,0.01,0.21,0.02,0.32,0.03
				c0.01-0.01-0.23-0.27-0.26-0.29c-0.6-0.74-1.16-1.54-1.71-2.32c-1.1-1.57-2.12-3.18-3.08-4.84c-1.11-1.93-2.11-3.91-3.01-5.94
				c-0.22-0.49-0.94-0.61-1.37-0.36C211.76,256.4,211.69,256.98,211.91,257.47L211.91,257.47z"/>
		</g>
	</g>
	<g>
		<g>
			<path class="st0" d="M220.09,11.69c-1.13,33.78-1.77,67.58-1.91,101.38c-0.14,33.62,0.21,67.25,1.05,100.86
				c0.47,18.96,1.11,37.92,1.89,56.88c0.05,1.28,2.05,1.29,2,0c-1.4-33.77-2.31-67.56-2.72-101.35
				c-0.41-33.62-0.32-67.25,0.25-100.86c0.32-18.97,0.81-37.93,1.44-56.89C222.13,10.4,220.13,10.41,220.09,11.69L220.09,11.69z"/>
		</g>
	</g>
</g>
<g>
	<g>
		<path d="M151.21,133.72c-0.31,3.81-0.17,7.63,0.39,11.41c0.09,0.63,1.06,0.36,0.96-0.27c-0.55-3.69-0.66-7.43-0.35-11.15
			C152.26,133.08,151.26,133.08,151.21,133.72L151.21,133.72z"/>
	</g>
</g>
<g>
	<g>
		<path d="M116.57,135.13c-0.3,2.87-0.14,5.77,0.44,8.6c0.13,0.63,1.09,0.36,0.96-0.27c-0.56-2.74-0.69-5.55-0.4-8.33
			C117.64,134.49,116.63,134.49,116.57,135.13L116.57,135.13z"/>
	</g>
</g>
<g>
	<g>
		<path d="M286.52,135.12c0,2.82,0,5.63,0,8.45c0,0.64,1,0.64,1,0c0-2.82,0-5.63,0-8.45C287.52,134.48,286.52,134.48,286.52,135.12
			L286.52,135.12z"/>
	</g>
</g>
<g class="st1">
	<g class="st2">
		<g>
			<path class="st3" d="M263.18,262.17c3.61-17.44,3.7-35.29,3.98-53.02c0.26-16.47,0.97-32.87,4.26-49.05
				c2.92-14.38,7.44-28.43,13.44-41.82c5.99-13.37,13.42-26.09,22.12-37.87c8.68-11.75,18.68-22.55,29.75-32.08
				c1.39-1.2,2.8-2.38,4.23-3.54c1-0.81-0.42-2.22-1.41-1.41c-11.45,9.31-21.82,19.93-30.91,31.56
				c-9.04,11.57-16.83,24.09-23.19,37.32c-6.38,13.28-11.35,27.23-14.71,41.58c-3.66,15.63-5.05,31.51-5.43,47.53
				c-0.43,17.9-0.02,35.94-2.85,53.68c-0.35,2.2-0.76,4.4-1.21,6.59C260.99,262.9,262.92,263.43,263.18,262.17L263.18,262.17z"/>
		</g>
	</g>
	<g class="st2">
		<g>
			<path class="st3" d="M327.32,47.31c4.17-1.54,8.53-2.47,12.97-2.73c-0.32-0.42-0.64-0.84-0.96-1.27
				c-0.89,4.46-1.72,8.94-2.51,13.42c-0.09,0.53,0.14,1.08,0.7,1.23c0.48,0.13,1.14-0.16,1.23-0.7c0.79-4.48,1.62-8.96,2.51-13.42
				c0.12-0.6-0.27-1.31-0.96-1.27c-4.61,0.26-9.17,1.2-13.5,2.8C325.59,45.83,326.11,47.76,327.32,47.31L327.32,47.31z"/>
		</g>
	</g>
	<g class="st2">
		<g>
			<path class="st3" d="M255.57,255.26c1.94,2.85,3.88,5.7,5.83,8.55c0.44,0.65,1.28,0.63,1.73,0c1.71-2.39,3.41-4.78,5.12-7.17
				c0.31-0.44,0.08-1.11-0.36-1.37c-0.5-0.29-1.05-0.08-1.37,0.36c-1.71,2.39-3.41,4.78-5.12,7.17c0.58,0,1.15,0,1.73,0
				c-1.94-2.85-3.88-5.7-5.83-8.55C256.57,253.2,254.84,254.2,255.57,255.26L255.57,255.26z"/>
		</g>
	</g>
</g>
<g class="st1">
	<g class="st2">
		<g>
			<g>
				<path class="st4" d="M275.4,29.21c1.21-0.97,3.01-1.2,4.51-1.19c1.23,0.01,2.8,0.34,3.13,1.74c0.29,1.25-0.43,2.59-1.47,3.27
					c-1.36,0.88-3.02,0.99-4.59,0.92c-0.81-0.04-1.18,0.87-0.86,1.5c1.18,2.38,1.68,5.01,1.52,7.66c0.62-0.17,1.24-0.34,1.86-0.5
					c-0.13-0.23-0.27-0.46-0.4-0.69c-0.64-1.11-2.37-0.11-1.73,1.01c0.13,0.23,0.27,0.46,0.4,0.69c0.52,0.89,1.81,0.46,1.86-0.5
					c0.17-3-0.47-5.98-1.8-8.67c-0.29,0.5-0.58,1-0.86,1.5c3.2,0.16,6.97-0.84,7.93-4.31c0.41-1.48,0.13-3.17-1.02-4.26
					c-1.15-1.09-2.81-1.39-4.34-1.35c-1.99,0.06-3.98,0.51-5.56,1.77c-0.42,0.34-0.35,1.06,0,1.41
					C274.4,29.63,274.97,29.55,275.4,29.21L275.4,29.21z"/>
			</g>
		</g>
		<g>
			<g>
				<path class="st4" d="M279.64,47.65c0-0.04,0-0.09,0.01-0.13c-0.01,0.09-0.02,0.18-0.04,0.27c0.01-0.09,0.04-0.17,0.07-0.25
					c-0.03,0.08-0.07,0.16-0.1,0.24c0.04-0.09,0.09-0.17,0.15-0.25c-0.05,0.07-0.1,0.13-0.16,0.2c0.06-0.07,0.12-0.13,0.19-0.18
					c-0.07,0.05-0.13,0.1-0.2,0.16c0.06-0.05,0.13-0.08,0.2-0.11c-0.08,0.03-0.16,0.07-0.24,0.1c0.01,0,0.02-0.01,0.03-0.01
					c-0.41-0.23-0.82-0.47-1.23-0.7c0.01,0.03,0.01,0.06,0.02,0.09c-0.01-0.09-0.02-0.18-0.04-0.27c0.02,0.15,0.02,0.29,0,0.44
					c0.01-0.09,0.02-0.18,0.04-0.27c-0.02,0.16-0.06,0.31-0.12,0.45c0.03-0.08,0.07-0.16,0.1-0.24c-0.06,0.14-0.14,0.28-0.24,0.41
					c0.05-0.07,0.1-0.13,0.16-0.2c-0.09,0.12-0.19,0.22-0.31,0.31c0.07-0.05,0.13-0.1,0.2-0.16c-0.11,0.08-0.22,0.15-0.35,0.21
					c0.08-0.03,0.16-0.07,0.24-0.1c-0.04,0.02-0.08,0.03-0.12,0.04c0.26,0.03,0.51,0.07,0.77,0.1c-0.01-0.01-0.03-0.02-0.04-0.03
					c0.07,0.05,0.13,0.1,0.2,0.16c-0.03-0.03-0.06-0.06-0.09-0.09c0.05,0.07,0.1,0.13,0.16,0.2c-0.02-0.03-0.04-0.07-0.06-0.11
					c0.03,0.08,0.07,0.16,0.1,0.24c-0.02-0.05-0.04-0.11-0.04-0.17c0.01,0.09,0.02,0.18,0.04,0.27c-0.01-0.06-0.01-0.12,0-0.18
					c-0.01,0.09-0.02,0.18-0.04,0.27c0.01-0.06,0.02-0.12,0.05-0.17c-0.03,0.08-0.07,0.16-0.1,0.24c0.02-0.05,0.05-0.1,0.09-0.15
					c-0.05,0.07-0.1,0.13-0.16,0.2c0.03-0.03,0.06-0.06,0.09-0.09c-0.07,0.05-0.13,0.1-0.2,0.16c0.03-0.03,0.07-0.05,0.11-0.07
					c-0.08,0.03-0.16,0.07-0.24,0.1c0.05-0.02,0.09-0.03,0.14-0.04c-0.09,0.01-0.18,0.02-0.27,0.04c0.06-0.01,0.11-0.01,0.17,0
					c-0.09-0.01-0.18-0.02-0.27-0.04c0.06,0.01,0.11,0.02,0.17,0.05c-0.08-0.03-0.16-0.07-0.24-0.1c0.06,0.03,0.12,0.06,0.18,0.1
					c-0.07-0.05-0.13-0.1-0.2-0.16c0.05,0.04,0.1,0.09,0.14,0.14c-0.05-0.07-0.1-0.13-0.16-0.2c0.03,0.05,0.06,0.1,0.09,0.15
					c-0.03-0.08-0.07-0.16-0.1-0.24c0.02,0.05,0.03,0.09,0.04,0.14c-0.01-0.09-0.02-0.18-0.04-0.27c0.01,0.06,0.01,0.12,0,0.19
					c0.01-0.09,0.02-0.18,0.04-0.27c-0.01,0.05-0.02,0.1-0.04,0.15c0.03-0.08,0.07-0.16,0.1-0.24c-0.03,0.07-0.07,0.13-0.11,0.19
					c0.05-0.07,0.1-0.13,0.16-0.2c-0.04,0.05-0.09,0.09-0.14,0.14c0.07-0.05,0.13-0.1,0.2-0.16c-0.06,0.05-0.12,0.08-0.19,0.11
					c0.08-0.03,0.16-0.07,0.24-0.1c-0.06,0.02-0.12,0.04-0.18,0.05c0.09-0.01,0.18-0.02,0.27-0.04c-0.06,0.01-0.13,0.01-0.19,0
					c0.09,0.01,0.18,0.02,0.27,0.04c-0.06-0.01-0.12-0.03-0.18-0.05c0.08,0.03,0.16,0.07,0.24,0.1c-0.04-0.02-0.07-0.04-0.11-0.06
					c0.07,0.05,0.13,0.1,0.2,0.16c-0.03-0.03-0.06-0.05-0.09-0.09c0.05,0.07,0.1,0.13,0.16,0.2c-0.02-0.03-0.03-0.05-0.05-0.08
					c0.03,0.08,0.07,0.16,0.1,0.24c-0.01-0.03-0.02-0.05-0.03-0.08c0.01,0.09,0.02,0.18,0.04,0.27c0-0.04,0-0.07,0-0.11
					c-0.01,0.09-0.02,0.18-0.04,0.27c0.01-0.03,0.01-0.05,0.02-0.08c-0.03,0.08-0.07,0.16-0.1,0.24c0.01-0.03,0.03-0.06,0.05-0.09
					c-0.05,0.07-0.1,0.13-0.16,0.2c0.02-0.02,0.04-0.04,0.06-0.05c-0.07,0.05-0.13,0.1-0.2,0.16c0.01-0.01,0.03-0.02,0.04-0.03
					c-0.08,0.03-0.16,0.07-0.24,0.1c0.03-0.01,0.05-0.02,0.07-0.02c-0.09,0.01-0.18,0.02-0.27,0.04c0.01,0,0.02,0,0.03,0
					c0.26-0.01,0.52-0.11,0.71-0.29c0.17-0.17,0.3-0.46,0.29-0.71c-0.01-0.26-0.1-0.53-0.29-0.71c-0.19-0.18-0.44-0.3-0.71-0.29
					c-0.44,0.02-0.86,0.24-1.09,0.63c-0.18,0.32-0.25,0.72-0.14,1.07c0.11,0.35,0.37,0.68,0.7,0.85c0.27,0.14,0.58,0.23,0.89,0.19
					c0.31-0.04,0.6-0.1,0.86-0.28c0.25-0.17,0.48-0.38,0.61-0.66c0.13-0.27,0.23-0.58,0.2-0.88c-0.03-0.26-0.07-0.41-0.18-0.64
					c-0.06-0.14-0.16-0.25-0.25-0.36c-0.14-0.16-0.32-0.3-0.51-0.39c-0.13-0.06-0.26-0.12-0.4-0.15c-0.21-0.04-0.36-0.05-0.57-0.02
					c-0.62,0.08-1.08,0.52-1.27,1.11c-0.09,0.28-0.08,0.56-0.03,0.85c0.05,0.27,0.2,0.52,0.38,0.72c0.09,0.1,0.2,0.19,0.31,0.26
					c0.22,0.13,0.54,0.18,0.79,0.1c0.08-0.03,0.15-0.06,0.22-0.09c0.26-0.11,0.45-0.24,0.67-0.41c0.39-0.31,0.64-0.73,0.81-1.19
					c0.19-0.47,0.19-0.99,0.1-1.48c-0.04-0.23-0.26-0.49-0.46-0.6c-0.22-0.12-0.53-0.2-0.77-0.1c-0.28,0.11-0.45,0.2-0.68,0.39
					c-0.15,0.12-0.26,0.27-0.37,0.43c-0.1,0.15-0.18,0.33-0.23,0.5c-0.06,0.18-0.09,0.39-0.09,0.59c0,0.26,0.11,0.53,0.29,0.71
					c0.17,0.17,0.46,0.3,0.71,0.29C279.19,48.63,279.64,48.21,279.64,47.65L279.64,47.65z"/>
			</g>
		</g>
		<g>
			<g>
				<path class="st4" d="M288.83,27.34c0.8-0.26,1.58,0,2.16,0.6c0.67,0.69,0.75,1.66,0.48,2.55c-0.64,2.1-2.91,2.96-4.91,3.07
					c-0.68,0.04-1.34,0.85-0.86,1.5c0.51,0.69,0.96,1.42,1.34,2.19c0.18,0.37,0.35,0.75,0.49,1.14c0.09,0.23,0.27,0.52,0.18,0.76
					c0.09-0.15,0.17-0.29,0.26-0.44c0.01-0.01,0.03-0.01,0.04-0.02c0.17-0.05,0.34-0.09,0.5-0.14c-0.04,0-0.08,0-0.12,0
					c-1.28,0.03-1.29,2.03,0,2c0.66-0.02,1.15-0.42,1.31-1.06c0.16-0.63-0.09-1.25-0.31-1.84c-0.5-1.29-1.14-2.49-1.96-3.61
					c-0.29,0.5-0.58,1-0.86,1.5c3.07-0.17,6.4-1.76,6.97-5.09c0.26-1.48-0.12-3.02-1.25-4.06c-1.06-0.99-2.58-1.46-3.98-0.99
					C287.08,25.81,287.6,27.74,288.83,27.34L288.83,27.34z"/>
			</g>
		</g>
		<g>
			<g>
				<path class="st4" d="M288.06,44.94c0,0,0-0.01,0-0.01c0.01,0.09,0.02,0.18,0.04,0.27c-0.01-0.06-0.01-0.12,0-0.18
					c-0.01,0.09-0.02,0.18-0.04,0.27c0.01-0.05,0.02-0.11,0.04-0.16c-0.03,0.08-0.07,0.16-0.1,0.24c0.02-0.05,0.05-0.1,0.09-0.15
					c-0.05,0.07-0.1,0.13-0.16,0.2c0.03-0.03,0.05-0.06,0.08-0.09c-0.52-0.07-1.05-0.13-1.57-0.2c0.03,0.05,0.06,0.11,0.09,0.17
					c-0.03-0.08-0.07-0.16-0.1-0.24c0.04,0.09,0.06,0.19,0.08,0.29c-0.01-0.09-0.02-0.18-0.04-0.27c0.01,0.1,0.01,0.2,0,0.3
					c0.01-0.09,0.02-0.18,0.04-0.27c-0.01,0.05-0.02,0.1-0.03,0.15c0.64,0,1.29,0,1.93,0c0-0.01,0-0.03-0.01-0.04
					c0.01,0.09,0.02,0.18,0.04,0.27c0-0.04,0-0.09,0-0.13c-0.01,0.09-0.02,0.18-0.04,0.27c0.01-0.05,0.02-0.09,0.04-0.14
					c-0.03,0.08-0.07,0.16-0.1,0.24c0.02-0.04,0.04-0.08,0.07-0.11c-0.05,0.07-0.1,0.13-0.16,0.2c0.03-0.03,0.06-0.07,0.09-0.09
					c0.1-0.09,0.17-0.2,0.21-0.32c0.06-0.12,0.09-0.25,0.09-0.39c0.01-0.14-0.02-0.27-0.09-0.39c-0.04-0.12-0.11-0.23-0.21-0.32
					c-0.07-0.05-0.13-0.1-0.2-0.16c-0.16-0.09-0.32-0.14-0.5-0.14c-0.09,0.01-0.18,0.02-0.27,0.04c-0.17,0.05-0.32,0.13-0.44,0.26
					c-0.02,0.02-0.04,0.03-0.06,0.05c-0.07,0.08-0.14,0.17-0.2,0.25c-0.08,0.11-0.12,0.24-0.17,0.37c-0.01,0.02-0.02,0.05-0.02,0.08
					c-0.02,0.11-0.04,0.22-0.05,0.33c0,0.02,0,0.05,0,0.07c0,0.06,0.01,0.11,0.02,0.17c0.01,0.06,0.01,0.12,0.02,0.17
					c0.03,0.08,0.07,0.16,0.1,0.24c0.06,0.12,0.15,0.21,0.26,0.28c0.06,0.06,0.14,0.1,0.22,0.13c0.12,0.06,0.25,0.09,0.39,0.09
					c0.09-0.01,0.18-0.02,0.27-0.04c0.08-0.03,0.16-0.07,0.24-0.1c0.12-0.06,0.21-0.15,0.28-0.26c0.09-0.1,0.15-0.21,0.18-0.34
					c0.04-0.16,0.06-0.33,0.07-0.49c0.01-0.17-0.02-0.33-0.05-0.5c-0.01-0.08-0.03-0.16-0.06-0.23c-0.04-0.12-0.09-0.23-0.14-0.34
					c-0.02-0.04-0.04-0.07-0.06-0.11c-0.09-0.15-0.21-0.27-0.36-0.36c-0.11-0.07-0.24-0.11-0.37-0.12c-0.13-0.03-0.27-0.02-0.4,0.02
					c-0.17,0.05-0.32,0.13-0.44,0.26c-0.11,0.09-0.19,0.21-0.27,0.32c-0.02,0.02-0.03,0.05-0.04,0.08c-0.05,0.1-0.09,0.2-0.13,0.31
					c-0.05,0.13-0.06,0.29-0.07,0.42c-0.01,0.14,0.02,0.3,0.04,0.43c0.03,0.13,0.09,0.24,0.18,0.34c0.07,0.11,0.16,0.19,0.28,0.26
					c0.11,0.07,0.24,0.11,0.37,0.12c0.13,0.03,0.27,0.02,0.4-0.02c0.08-0.03,0.16-0.07,0.24-0.1c0.15-0.09,0.27-0.21,0.36-0.36
					c0.03-0.08,0.07-0.16,0.1-0.24C288.11,45.3,288.11,45.12,288.06,44.94L288.06,44.94z"/>
			</g>
		</g>
		<g>
			<g>
				<path class="st4" d="M297.66,27.53c1.38-0.24,3.06,0.01,3.8,1.34c0.74,1.34-0.33,2.66-1.56,3.21c-0.69,0.31-1.41,0.24-2.11,0.44
					c-0.81,0.23-1.44,0.87-1.48,1.73c-0.03,0.86,0.55,1.49,0.88,2.24c0.32,0.7,0.39,1.5,0.24,2.25c-0.25,1.26,1.67,1.79,1.93,0.53
					c0.2-0.99,0.2-2.01-0.11-2.98c-0.15-0.47-0.37-0.91-0.62-1.34c-0.1-0.18-0.19-0.39-0.3-0.57c-0.04-0.06-0.11,0.06-0.01,0.06
					c1.83,0.02,3.75-1.01,4.75-2.53c1.06-1.6,0.72-3.64-0.59-4.99c-1.39-1.44-3.48-1.66-5.36-1.33c-0.53,0.09-0.83,0.74-0.7,1.23
					C296.59,27.39,297.13,27.62,297.66,27.53L297.66,27.53z"/>
			</g>
		</g>
		<g>
			<g>
				<path class="st4" d="M299.03,44.33c-0.03-0.06-0.06-0.11-0.09-0.17c0.03,0.08,0.07,0.16,0.1,0.24c-0.05-0.11-0.08-0.23-0.1-0.36
					c0.01,0.09,0.02,0.18,0.04,0.27c-0.01-0.08-0.01-0.17-0.01-0.25c-0.67,0-1.33,0-2,0c0,0.21,0.01,0.41,0.01,0.62
					c0.65-0.09,1.31-0.18,1.96-0.27c-0.01-0.04-0.02-0.09-0.02-0.13c0.01,0.09,0.02,0.18,0.04,0.27c-0.01-0.11-0.01-0.23,0-0.34
					c-0.01,0.09-0.02,0.18-0.04,0.27c0.02-0.11,0.05-0.22,0.09-0.33c-0.03,0.08-0.07,0.16-0.1,0.24c0.03-0.06,0.05-0.12,0.09-0.17
					c0.07-0.11,0.11-0.24,0.12-0.37c0.03-0.13,0.02-0.27-0.02-0.4c-0.03-0.13-0.09-0.24-0.18-0.34c-0.07-0.11-0.16-0.19-0.28-0.26
					c-0.23-0.12-0.51-0.18-0.77-0.1c-0.25,0.08-0.46,0.23-0.6,0.46c-0.09,0.14-0.15,0.3-0.21,0.46c-0.03,0.08-0.05,0.17-0.07,0.26
					c-0.03,0.17-0.06,0.34-0.05,0.51c0.01,0.17,0.03,0.34,0.07,0.51c0.03,0.13,0.09,0.24,0.18,0.34c0.07,0.11,0.16,0.19,0.28,0.26
					c0.08,0.03,0.16,0.07,0.24,0.1c0.13,0.04,0.27,0.05,0.4,0.02c0.09,0,0.17-0.02,0.25-0.07c0.12-0.04,0.23-0.11,0.32-0.21
					c0.18-0.19,0.3-0.44,0.29-0.71c0-0.21-0.01-0.41-0.01-0.62c-0.01-0.26-0.11-0.52-0.29-0.71c-0.09-0.1-0.2-0.17-0.32-0.21
					c-0.12-0.06-0.25-0.09-0.39-0.09c-0.26,0.01-0.53,0.1-0.71,0.29c-0.05,0.07-0.1,0.13-0.16,0.2c-0.09,0.16-0.14,0.32-0.14,0.5
					c-0.01,0.22,0.02,0.45,0.07,0.67c0.02,0.07,0.04,0.14,0.07,0.2c0.06,0.14,0.11,0.28,0.19,0.41c0.13,0.22,0.35,0.39,0.6,0.46
					c0.13,0.04,0.27,0.05,0.4,0.02c0.13-0.01,0.26-0.05,0.37-0.12c0.21-0.14,0.4-0.34,0.46-0.6
					C299.19,44.84,299.17,44.56,299.03,44.33L299.03,44.33z"/>
			</g>
		</g>
	</g>
	<g class="st2">
		<g>
			<g>
				<path class="st4" d="M313.1,89.96c0.96-0.62,1.98-1.08,3.09-1.34c0.64-0.15,2.05-0.54,2.6,0.01c0.52,0.52-0.01,1.52-0.35,1.99
					c-0.51,0.71-1.25,1.23-2,1.66c-1.49,0.85-4.11,1.32-4.26,3.41c-0.08,1.16,0.58,2.43,0.94,3.51c0.41,1.24,0.83,2.49,1.24,3.73
					c0.4,1.22,2.34,0.69,1.93-0.53c-0.68-2.05-1.48-4.09-2.04-6.17c-0.1-0.37-0.1-0.55,0.21-0.77c0.31-0.22,0.68-0.35,1.03-0.5
					c0.78-0.34,1.56-0.7,2.28-1.15c1.38-0.85,2.77-2.14,3.11-3.81c0.39-1.93-0.75-3.47-2.73-3.6c-2.09-0.14-4.35,0.71-6.07,1.83
					C311.01,88.93,312.01,90.67,313.1,89.96L313.1,89.96z"/>
			</g>
		</g>
		<g>
			<g>
				<path class="st4" d="M314.35,107.3c0.1,0.08,0.18,0.17,0.26,0.26c-0.05-0.07-0.1-0.13-0.16-0.2c0.08,0.1,0.14,0.22,0.19,0.33
					c-0.03-0.08-0.07-0.16-0.1-0.24c0.05,0.13,0.09,0.26,0.11,0.39c-0.01-0.09-0.02-0.18-0.04-0.27c0,0.03,0.01,0.06,0.01,0.09
					c0.65-0.09,1.31-0.18,1.96-0.27c0-0.02-0.01-0.04-0.01-0.06c0.01,0.09,0.02,0.18,0.04,0.27c0-0.04,0-0.08,0-0.12
					c-0.01,0.09-0.02,0.18-0.04,0.27c0.01-0.04,0.02-0.09,0.04-0.13c-0.03,0.08-0.07,0.16-0.1,0.24c0.02-0.05,0.05-0.09,0.08-0.13
					c-0.05,0.07-0.1,0.13-0.16,0.2c0.03-0.04,0.07-0.08,0.11-0.11c-0.07,0.05-0.13,0.1-0.2,0.16c0.04-0.03,0.08-0.06,0.13-0.08
					c-0.08,0.03-0.16,0.07-0.24,0.1c0.04-0.01,0.07-0.03,0.11-0.03c-0.09,0.01-0.18,0.02-0.27,0.04c0.04,0,0.07-0.01,0.1,0
					c0.14,0.01,0.27-0.02,0.39-0.09c0.12-0.04,0.23-0.11,0.32-0.21c0.1-0.09,0.17-0.2,0.21-0.32c0.06-0.12,0.09-0.25,0.09-0.39
					c-0.01-0.26-0.1-0.53-0.29-0.71c-0.07-0.05-0.13-0.1-0.2-0.16c-0.16-0.09-0.32-0.14-0.5-0.14c-0.02,0-0.05,0-0.07,0
					c-0.11,0.01-0.21,0.02-0.32,0.04c-0.12,0.02-0.24,0.08-0.35,0.14c-0.04,0.02-0.08,0.04-0.12,0.07
					c-0.09,0.07-0.21,0.15-0.29,0.25c-0.08,0.09-0.17,0.19-0.22,0.3c-0.05,0.09-0.09,0.19-0.12,0.29c-0.01,0.02-0.02,0.04-0.02,0.06
					c-0.01,0.02-0.01,0.04-0.01,0.07c-0.02,0.1-0.04,0.21-0.04,0.32c0,0.02,0,0.04,0,0.07c0.01,0.11,0.02,0.22,0.05,0.33
					c0.03,0.13,0.09,0.24,0.18,0.34c0.07,0.11,0.16,0.19,0.28,0.26c0.08,0.03,0.16,0.07,0.24,0.1c0.13,0.04,0.27,0.05,0.4,0.02
					c0.09,0,0.17-0.02,0.25-0.07c0.12-0.04,0.23-0.11,0.32-0.21c0.17-0.19,0.31-0.44,0.29-0.71c-0.01-0.19-0.04-0.38-0.09-0.57
					c-0.01-0.05-0.03-0.1-0.05-0.15c-0.05-0.13-0.1-0.25-0.16-0.37c-0.09-0.16-0.2-0.31-0.32-0.45c-0.07-0.09-0.15-0.17-0.24-0.24
					c-0.09-0.1-0.2-0.17-0.32-0.21c-0.12-0.06-0.25-0.09-0.39-0.09c-0.14-0.01-0.27,0.02-0.39,0.09c-0.12,0.04-0.23,0.11-0.32,0.21
					c-0.17,0.19-0.3,0.44-0.29,0.71c0.01,0.09,0.02,0.18,0.04,0.27C314.14,107.03,314.22,107.18,314.35,107.3L314.35,107.3z"/>
			</g>
		</g>
		<g>
			<g>
				<path class="st4" d="M325.09,87.53c1.36,0.45,3.32,1.05,3.71,2.65c0.4,1.61-1.18,2.85-2.47,3.42c-1.28,0.56-3.25,0.74-3.62,2.38
					c-0.2,0.88,0.35,1.73,0.71,2.5c0.44,0.96,0.89,1.93,1.33,2.89c0.41,0.9,1.93,0.46,1.86-0.5c-0.02-0.28-0.04-0.56-0.06-0.85
					c-0.09-1.28-2.09-1.29-2,0c0.02,0.28,0.04,0.56,0.06,0.85c0.62-0.17,1.24-0.34,1.86-0.5c-0.46-1-0.92-2-1.38-3
					c-0.11-0.25-0.46-0.7-0.42-0.99c-0.02,0.18-0.01,0.01,0.1-0.05c0.17-0.09,0.32-0.17,0.49-0.24c1.67-0.64,3.34-1.11,4.51-2.58
					c1.13-1.42,1.46-3.35,0.49-4.94c-1.02-1.67-2.88-2.38-4.64-2.96C324.4,85.2,323.88,87.13,325.09,87.53L325.09,87.53z"/>
			</g>
		</g>
		<g>
			<g>
				<path class="st4" d="M327.05,105.24c0,0,0-0.01,0-0.01c0-0.04-0.03-0.23-0.04-0.27c0,0,0-0.01,0-0.01c0,0,0-0.01,0-0.01
					c0,0,0,0,0-0.01c-0.02-0.05-0.08-0.19-0.1-0.24c0-0.01-0.01-0.02-0.01-0.02c0,0,0,0,0,0c-0.01-0.02-0.15-0.19-0.16-0.2
					c0,0-0.01-0.01-0.01-0.01c0,0-0.01-0.01-0.01-0.01c-0.02-0.01-0.19-0.14-0.2-0.16c0,0,0,0,0,0c-0.01-0.01-0.01-0.01-0.02-0.01
					c0,0-0.01,0-0.01,0c-0.03-0.01-0.21-0.09-0.24-0.1c0,0-0.01,0-0.01,0c-0.01,0-0.02-0.01-0.03-0.01
					c-0.08-0.02-0.19-0.03-0.27-0.04c0,0-0.01,0-0.01,0c-0.01,0-0.02,0-0.03,0c-0.05,0-0.11,0.01-0.16,0.02
					c-0.05,0.01-0.11,0.01-0.16,0.02c-0.01,0-0.02,0-0.03,0.01c-0.01,0-0.01,0-0.02,0.01c-0.08,0.03-0.17,0.07-0.25,0.11
					c-0.02,0.01-0.04,0.02-0.05,0.03c-0.07,0.05-0.15,0.11-0.21,0.16c0,0-0.01,0.01-0.01,0.01c-0.01,0.01-0.01,0.01-0.02,0.02
					c-0.03,0.03-0.13,0.17-0.16,0.2c0,0,0,0,0,0.01c0,0-0.01,0.01-0.01,0.01c0,0,0,0.01-0.01,0.01c0,0,0,0,0,0.01
					c-0.02,0.04-0.09,0.2-0.1,0.24c0,0.01-0.01,0.02-0.01,0.03c0,0,0,0.01,0,0.01c-0.01,0.03-0.03,0.23-0.04,0.27c0,0,0,0.01,0,0.01
					c0,0.01,0,0.02,0,0.03c0.01,0.09,0.02,0.19,0.04,0.28c0,0.01,0,0.02,0.01,0.02c0,0.01,0,0.01,0.01,0.02
					c0.03,0.08,0.07,0.17,0.11,0.25c0.01,0.01,0.01,0.02,0.02,0.04c0,0,0.01,0.01,0.01,0.01c0.05,0.07,0.11,0.15,0.16,0.21
					c0.01,0.01,0.02,0.02,0.03,0.03c0,0,0.01,0.01,0.01,0.01c0.07,0.05,0.14,0.11,0.21,0.16c0.01,0.01,0.02,0.02,0.04,0.02
					c0.1,0.05,0.2,0.1,0.31,0.13c0.01,0,0.03,0.01,0.05,0.01c0.01,0,0.01,0,0.02,0c0.09,0.01,0.19,0.03,0.28,0.04
					c0.03,0,0.06,0,0.09,0c0.09-0.01,0.19-0.02,0.28-0.04c0.01,0,0.01,0,0.02,0c0.02,0,0.03-0.01,0.05-0.01
					c0.05-0.02,0.1-0.04,0.14-0.06c0.04-0.02,0.09-0.04,0.14-0.06c0.02-0.01,0.03-0.02,0.04-0.03c0.12-0.06,0.21-0.15,0.28-0.26
					c0.09-0.1,0.15-0.21,0.18-0.34c0.04-0.13,0.05-0.27,0.02-0.4c-0.01-0.13-0.05-0.26-0.12-0.37c-0.05-0.07-0.1-0.13-0.16-0.2
					c-0.12-0.12-0.27-0.21-0.44-0.26c-0.09-0.01-0.18-0.02-0.27-0.04c-0.18,0-0.35,0.05-0.5,0.14c-0.02,0.01-0.04,0.02-0.06,0.03
					c0.08-0.03,0.16-0.07,0.24-0.1c-0.03,0.01-0.06,0.02-0.09,0.02c0.09-0.01,0.18-0.02,0.27-0.04c-0.04,0.01-0.08,0.01-0.11,0
					c0.09,0.01,0.18,0.02,0.27,0.04c-0.04,0-0.07-0.01-0.1-0.03c0.08,0.03,0.16,0.07,0.24,0.1c-0.03-0.01-0.05-0.03-0.08-0.04
					c0.07,0.05,0.13,0.1,0.2,0.16c-0.02-0.01-0.04-0.03-0.05-0.05c0.05,0.07,0.1,0.13,0.16,0.2c-0.01-0.02-0.02-0.04-0.03-0.05
					c0.03,0.08,0.07,0.16,0.1,0.24c-0.01-0.02-0.01-0.04-0.02-0.06c0.01,0.09,0.02,0.18,0.04,0.27c0-0.02,0-0.03,0-0.05
					c-0.01,0.09-0.02,0.18-0.04,0.27c0-0.02,0.01-0.03,0.01-0.04c-0.03,0.08-0.07,0.16-0.1,0.24c0.01-0.01,0.01-0.03,0.02-0.04
					c-0.05,0.07-0.1,0.13-0.16,0.2c0.01-0.01,0.03-0.03,0.04-0.04c-0.07,0.05-0.13,0.1-0.2,0.16c0.02-0.01,0.04-0.03,0.06-0.04
					c-0.08,0.03-0.16,0.07-0.24,0.1c0.03-0.01,0.05-0.02,0.08-0.02c-0.09,0.01-0.18,0.02-0.27,0.04c0.02,0,0.05,0,0.07,0
					c-0.09-0.01-0.18-0.02-0.27-0.04c0.02,0,0.03,0.01,0.05,0.01c-0.08-0.03-0.16-0.07-0.24-0.1c0.01,0.01,0.02,0.01,0.04,0.02
					c-0.07-0.05-0.13-0.1-0.2-0.16c0.01,0.01,0.02,0.01,0.02,0.02c-0.05-0.07-0.1-0.13-0.16-0.2c0.01,0.01,0.01,0.02,0.02,0.03
					c-0.03-0.08-0.07-0.16-0.1-0.24c0,0.01,0.01,0.02,0.01,0.04c-0.01-0.09-0.02-0.18-0.04-0.27c0,0,0,0.01,0,0.01
					c-0.01,0.14,0.02,0.27,0.09,0.39c0.04,0.12,0.11,0.23,0.21,0.32c0.09,0.1,0.2,0.17,0.32,0.21c0.12,0.06,0.25,0.09,0.39,0.09
					c0.09-0.01,0.18-0.02,0.27-0.04c0.17-0.05,0.32-0.13,0.44-0.26c0.05-0.07,0.1-0.13,0.16-0.2
					C327,105.59,327.05,105.42,327.05,105.24L327.05,105.24z"/>
			</g>
		</g>
		<g>
			<g>
				<path class="st4" d="M334.77,87.87c1.17,0.06,2.18,1.07,2.14,2.26c-0.02,0.57-0.26,1.14-0.67,1.54
					c-0.55,0.56-1.37,0.69-2.03,1.09c-0.62,0.37-1.17,0.95-1.37,1.67c-0.23,0.87,0.18,1.61,0.6,2.34c0.81,1.45,1.32,3.06,1.49,4.71
					c0.65-0.09,1.31-0.18,1.96-0.27c-0.12-0.3-0.24-0.61-0.35-0.91c-0.19-0.5-0.67-0.85-1.23-0.7c-0.48,0.13-0.89,0.72-0.7,1.23
					c0.12,0.3,0.24,0.61,0.35,0.91c0.18,0.46,0.57,0.79,1.1,0.72c0.45-0.07,0.92-0.48,0.87-0.98c-0.19-1.94-0.72-3.81-1.65-5.53
					c-0.13-0.23-0.53-0.72-0.51-0.99c0.02-0.26,0.45-0.48,0.65-0.58c0.81-0.42,1.65-0.66,2.29-1.36c1.13-1.22,1.52-3.04,0.85-4.58
					c-0.66-1.52-2.16-2.48-3.8-2.57C333.49,85.8,333.49,87.8,334.77,87.87L334.77,87.87z"/>
			</g>
		</g>
		<g>
			<g>
				<path class="st4" d="M336.35,105.24c-0.01-0.01-0.01-0.02-0.02-0.03c-0.02-0.04-0.08-0.11-0.08-0.11c0,0-0.05-0.07-0.08-0.11
					c0-0.01-0.01-0.01-0.01-0.02c0,0-0.01-0.01-0.01-0.01c0,0,0,0-0.01,0c-0.05-0.04-0.15-0.12-0.21-0.16
					c-0.01-0.01-0.02-0.01-0.03-0.02c-0.09-0.04-0.2-0.1-0.3-0.12c-0.1-0.02-0.22-0.05-0.33-0.04c-0.01,0-0.01,0-0.02,0
					c-0.09,0.01-0.19,0.02-0.28,0.04c-0.01,0-0.03,0.01-0.04,0.01c-0.01,0-0.02,0.01-0.03,0.01c-0.08,0.03-0.17,0.07-0.25,0.11
					c-0.01,0-0.01,0.01-0.02,0.01c-0.01,0.01-0.02,0.01-0.03,0.02c-0.01,0-0.01,0.01-0.01,0.01c-0.07,0.05-0.15,0.11-0.21,0.17
					c-0.01,0.01-0.02,0.01-0.02,0.02c0,0-0.01,0.01-0.01,0.01c-0.03,0.04-0.13,0.17-0.16,0.2c0,0,0,0.01-0.01,0.01
					c-0.06,0.09-0.1,0.19-0.13,0.3c0,0.01,0,0.01,0,0.02c-0.01,0.04-0.03,0.23-0.04,0.27c0,0,0,0.01,0,0.01c0,0.01,0,0.03,0,0.04
					c0,0.04,0.02,0.13,0.02,0.14c0,0.01,0.01,0.1,0.02,0.14c0,0.01,0,0.01,0,0.02c0.03,0.09,0.07,0.19,0.11,0.27
					c0,0.01,0.01,0.02,0.02,0.03c0.02,0.04,0.07,0.1,0.08,0.11c0,0,0.05,0.07,0.08,0.1c0,0,0.01,0.01,0.01,0.01
					c0.04,0.04,0.09,0.07,0.12,0.1c0.04,0.03,0.08,0.07,0.13,0.1c0.05,0.03,0.11,0.05,0.15,0.06c0.05,0.02,0.1,0.05,0.15,0.06
					c0.01,0,0.02,0.01,0.03,0.01c0.09,0.02,0.19,0.03,0.28,0.04c0.01,0,0.01,0,0.02,0c0.01,0,0.02,0,0.03,0c0.01,0,0.01,0,0.02,0
					c0.09-0.01,0.19-0.02,0.28-0.04c0.03,0,0.05-0.01,0.08-0.02c0.08-0.03,0.17-0.07,0.25-0.11c0.01,0,0.01-0.01,0.02-0.01
					c0,0,0.01-0.01,0.01-0.01c0,0,0.01,0,0.01-0.01c0.06-0.04,0.15-0.11,0.21-0.16c0.01-0.01,0.02-0.02,0.03-0.03c0,0,0,0,0-0.01
					c0.05-0.06,0.12-0.15,0.16-0.21c0-0.01,0.01-0.01,0.01-0.02c0-0.01,0.01-0.01,0.01-0.02c0.02-0.04,0.06-0.13,0.05-0.12
					c0.01-0.02,0.04-0.08,0.05-0.13c0.01-0.01,0.01-0.03,0.01-0.04c0.05-0.18,0.05-0.35,0-0.53c-0.03-0.13-0.09-0.24-0.18-0.34
					c-0.07-0.11-0.16-0.19-0.28-0.26c-0.16-0.09-0.32-0.14-0.5-0.14c-0.19-0.02-0.37-0.04-0.56-0.06c-0.14-0.01-0.27,0.02-0.39,0.09
					c-0.12,0.04-0.23,0.11-0.32,0.21c-0.1,0.09-0.17,0.2-0.21,0.32c-0.06,0.12-0.09,0.25-0.09,0.39c0.01,0.09,0.02,0.18,0.04,0.27
					c0.05,0.17,0.13,0.32,0.26,0.44c0.07,0.05,0.13,0.1,0.2,0.16c0.16,0.09,0.32,0.14,0.5,0.14c0.19,0.02,0.37,0.04,0.56,0.06
					c-0.32-0.42-0.64-0.84-0.96-1.27c0,0.02-0.01,0.03-0.01,0.05c0.03-0.08,0.07-0.16,0.1-0.24c-0.01,0.01-0.01,0.03-0.02,0.04
					c0.05-0.07,0.1-0.13,0.16-0.2c-0.01,0.01-0.02,0.03-0.04,0.04c0.07-0.05,0.13-0.1,0.2-0.16c-0.02,0.01-0.04,0.02-0.06,0.03
					c0.08-0.03,0.16-0.07,0.24-0.1c-0.03,0.01-0.05,0.02-0.08,0.02c0.09-0.01,0.18-0.02,0.27-0.04c-0.03,0-0.06,0-0.09,0
					c0.09,0.01,0.18,0.02,0.27,0.04c-0.03,0-0.05-0.01-0.08-0.02c0.08,0.03,0.16,0.07,0.24,0.1c-0.02-0.01-0.04-0.02-0.06-0.03
					c0.07,0.05,0.13,0.1,0.2,0.16c-0.01-0.01-0.03-0.02-0.04-0.04c0.05,0.07,0.1,0.13,0.16,0.2c-0.01-0.01-0.02-0.02-0.02-0.04
					c0.03,0.08,0.07,0.16,0.1,0.24c-0.01-0.02-0.01-0.03-0.01-0.05c0.01,0.09,0.02,0.18,0.04,0.27c0-0.02,0-0.04,0-0.05
					c-0.01,0.09-0.02,0.18-0.04,0.27c0-0.02,0.01-0.03,0.01-0.05c-0.03,0.08-0.07,0.16-0.1,0.24c0.01-0.02,0.02-0.03,0.03-0.04
					c-0.05,0.07-0.1,0.13-0.16,0.2c0.01-0.02,0.03-0.03,0.05-0.05c-0.07,0.05-0.13,0.1-0.2,0.16c0.02-0.02,0.04-0.03,0.07-0.04
					c-0.08,0.03-0.16,0.07-0.24,0.1c0.03-0.01,0.06-0.02,0.09-0.02c-0.09,0.01-0.18,0.02-0.27,0.04c0.03,0,0.05,0,0.08,0
					c-0.09-0.01-0.18-0.02-0.27-0.04c0.02,0,0.04,0.01,0.06,0.02c-0.08-0.03-0.16-0.07-0.24-0.1c0.02,0.01,0.03,0.01,0.04,0.02
					c-0.07-0.05-0.13-0.1-0.2-0.16c0.01,0.01,0.03,0.02,0.04,0.04c-0.05-0.07-0.1-0.13-0.16-0.2c0.01,0.01,0.02,0.02,0.02,0.04
					c0.06,0.12,0.15,0.21,0.26,0.28c0.1,0.09,0.21,0.15,0.34,0.18c0.13,0.04,0.27,0.05,0.4,0.02c0.13-0.01,0.26-0.05,0.37-0.12
					c0.07-0.05,0.13-0.1,0.2-0.16c0.12-0.12,0.21-0.27,0.26-0.44c0.01-0.09,0.02-0.18,0.04-0.27
					C336.49,105.57,336.44,105.4,336.35,105.24L336.35,105.24z"/>
			</g>
		</g>
	</g>
</g>
<g>
	<g>
		<g>
			<path class="st3" d="M262.56,16.87c0.32,6.76,0.75,13.51,1.28,20.26c0.65,8.15,1.42,16.3,2.33,24.43
				c0.61,5.43,1.24,10.93,2.62,16.23c1.09,4.21,2.84,8.03,5.93,11.17c2.24,2.28,5.04,4,8.13,4.86c2.93,0.81,6.03,0.82,9,0.18
				c7.03-1.51,12.84-6.63,17.65-11.7c2.83-2.98,5.45-6.15,8.04-9.34c2.8-3.44,5.58-6.9,8.37-10.35c4.85-6,9.68-12.01,14.52-18.02
				c3.47-4.31,6.93-8.62,10.41-12.92c1.68-2.08,3.33-4.21,5.1-6.21c0.07-0.07,0.14-0.14,0.2-0.22c0.01-0.02,0.06-0.04,0.06-0.06
				c-0.06,0.19-0.82,0.25-0.92,0.22c-0.15-0.09-0.29-0.17-0.44-0.26c0,0,0,0,0,0c-0.09-0.15-0.17-0.29-0.26-0.44c0,0,0,0,0,0
				c0-0.18,0-0.35,0-0.53c0.04-0.23,0.12-0.23-0.01-0.04c-0.12,0.17-0.23,0.35-0.34,0.52c-0.56,0.82-1.13,1.62-1.7,2.43
				c-0.31,0.44-0.08,1.11,0.36,1.37c0.5,0.29,1.05,0.08,1.37-0.36c0.7-0.98,1.48-1.95,2.08-3c0.23-0.41,0.31-0.86,0-1.27
				c-0.39-0.51-1.07-0.49-1.52-0.09c-0.44,0.39-0.8,0.9-1.17,1.35c-2.42,2.9-4.77,5.85-7.14,8.79c-4.12,5.11-8.24,10.23-12.36,15.34
				c-5.41,6.72-10.83,13.44-16.26,20.14c-5.17,6.39-10.36,13.15-17.03,18.07c-2.76,2.03-5.79,3.74-9.14,4.54
				c-2.92,0.69-6,0.65-8.88-0.25c-3.11-0.98-5.78-2.96-7.85-5.45c-0.75-0.9-1.43-1.87-1.99-2.9c-0.2-0.36-0.38-0.72-0.55-1.09
				c-0.23-0.5-0.29-0.62-0.46-1.07c-1.73-4.37-2.44-9.13-3.08-13.76c-1.05-7.62-1.73-15.29-2.43-22.95
				c-0.71-7.78-1.28-15.58-1.7-23.38c-0.08-1.42-0.15-2.83-0.21-4.25C264.5,15.59,262.5,15.58,262.56,16.87L262.56,16.87z"/>
		</g>
	</g>
	<g>
		<g>
			<path class="st3" d="M344.43,27.07c-0.16-0.89-1.25-1.11-1.86-0.53c-0.45,0.42-0.64,1.16-0.3,1.71c0.49,0.81,1.58,0.66,2.24,0.19
				c0.69-0.5,1.38-0.97,2.12-1.4c3.21-1.85,6.72-3.12,10.36-3.82c-0.41-0.23-0.82-0.47-1.23-0.7c1.52,4.46,2.36,9.1,2.46,13.82
				c0.03,1.29,2.03,1.29,2,0c-0.11-4.88-0.96-9.73-2.53-14.35c-0.18-0.54-0.67-0.81-1.23-0.7c-2.48,0.48-4.88,1.23-7.2,2.21
				c-1.11,0.47-2.2,1-3.25,1.59c-0.54,0.3-1.08,0.62-1.6,0.95c-0.27,0.17-0.53,0.34-0.77,0.54c-0.07,0.05-0.19,0.12-0.23,0.19
				c-0.08,0.11-0.14-0.02,0.06,0.05c0.15,0.09,0.29,0.17,0.44,0.26c0.02,0.03,0.05,0.06,0.07,0.09c0.05,0.17,0.09,0.34,0.14,0.5
				c0.02,0.22-0.35,0.46-0.46,0.48c-0.18,0-0.35,0-0.53,0c0.01,0,0.03,0.01,0.04,0.01c-0.2-0.15-0.4-0.31-0.6-0.46
				c-0.02-0.04-0.04-0.07-0.06-0.11c0.09,0.53,0.74,0.83,1.23,0.7C344.3,28.14,344.53,27.6,344.43,27.07L344.43,27.07z"/>
		</g>
	</g>
	<g>
		<g>
			<path class="st3" d="M258.02,28.89c0.57-2.14,1.14-4.29,1.88-6.38c0.36-1.03,0.77-2.05,1.24-3.04c0.44-0.92,0.91-1.94,1.55-2.74
				c1.3-1.65,2.48,1.82,2.79,2.64c0.88,2.31,1.76,4.62,2.64,6.93c0.19,0.5,0.67,0.85,1.23,0.7c0.48-0.13,0.89-0.72,0.7-1.23
				c-0.81-2.12-1.61-4.24-2.42-6.36c-0.63-1.66-1.17-3.6-2.73-4.65c-0.68-0.46-1.53-0.61-2.32-0.36c-0.94,0.3-1.52,1.11-2.01,1.91
				c-1.04,1.71-1.85,3.57-2.53,5.46c-0.77,2.16-1.36,4.38-1.95,6.59C255.76,29.6,257.69,30.13,258.02,28.89L258.02,28.89z"/>
		</g>
	</g>
</g>
<g>
	<g>
		<g>
			<path class="st3" d="M62.23,239.76c9.5-9.43,19.39-18.47,29.66-27.07c5.07-4.24,10.23-8.38,15.47-12.4
				c5.21-3.99,10.47-7.96,15.91-11.63c4.84-3.26,11.24-6.94,17.19-4.41c4.45,1.89,6.78,6.65,8.52,10.86
				c1.49,3.62,2.66,7.32,3.15,11.22c0.55,4.39,0.48,8.84,0.35,13.25c-0.31,11.08-0.79,22.14-0.93,33.22
				c-0.02,1.69-0.04,3.39-0.05,5.08c-0.01,1.29,1.99,1.29,2,0c0.1-11.69,0.46-23.37,0.88-35.06c0.31-8.82,0.58-17.74-2.62-26.12
				c-1.69-4.43-3.65-9.3-7.41-12.38c-2.22-1.82-4.93-2.84-7.81-2.9c-3.19-0.07-6.29,1.02-9.11,2.43c-2.98,1.49-5.71,3.43-8.42,5.35
				c-2.74,1.95-5.46,3.94-8.16,5.95c-5.43,4.05-10.76,8.22-16.01,12.5c-10.5,8.58-20.63,17.62-30.35,27.07
				c-1.23,1.2-2.45,2.4-3.67,3.61C59.9,239.25,61.32,240.66,62.23,239.76L62.23,239.76z"/>
		</g>
	</g>
	<g>
		<g>
			<path class="st3" d="M145.45,253.59c1.38,0.45,1.96,2.22,2.53,3.4c0.71,1.45,1.94,2.95,3.6,3.31c0.85,0.19,1.73,0.02,2.43-0.51
				c0.73-0.55,1.15-1.36,1.58-2.15c1.07-1.95,2.15-3.91,3.22-5.86c0.62-1.13-1.11-2.14-1.73-1.01c-0.96,1.74-1.92,3.49-2.88,5.23
				c-0.37,0.67-0.71,1.61-1.31,2.12c-0.46,0.4-1,0.26-1.48-0.04c-1.27-0.78-1.74-2.24-2.39-3.5c-0.68-1.31-1.6-2.46-3.05-2.93
				C144.75,251.26,144.23,253.19,145.45,253.59L145.45,253.59z"/>
		</g>
	</g>
	<g>
		<g>
			<path class="st3" d="M59.88,225.18c-0.54,5.04-0.77,10.12-0.68,15.19c0.01,0.54,0.45,1,1,1c3.27,0,6.53-0.27,9.76-0.77
				c0.53-0.08,0.83-0.75,0.7-1.23c-0.16-0.57-0.69-0.78-1.23-0.7c-3.05,0.48-6.14,0.7-9.23,0.7c0.33,0.33,0.67,0.67,1,1
				c-0.09-5.07,0.13-10.15,0.68-15.19c0.06-0.54-0.5-1-1-1C60.29,224.18,59.94,224.64,59.88,225.18L59.88,225.18z"/>
		</g>
	</g>
</g>
<g>
	<g>
		<path class="st3" d="M158.35,20.81c-0.8,15.9,0.7,31.98,4.88,47.35c4.15,15.24,11.02,29.79,20.88,42.17
			c5.18,6.5,11.16,12.23,17.73,17.3c7.43,5.73,15.2,10.95,21.7,17.79c11.88,12.5,19.74,28.34,24.5,44.79
			c5.57,19.24,7.03,39.35,8.02,59.27c0.12,2.49,0.24,4.98,0.36,7.48c0.06,1.28,2.06,1.29,2,0c-0.94-20.07-1.91-40.29-6.53-59.92
			c-3.93-16.68-10.67-32.9-21.28-46.47c-5.57-7.12-12.18-13.03-19.4-18.43c-7.16-5.35-14.29-10.59-20.42-17.14
			c-10.92-11.65-18.78-25.91-23.73-41.04c-4.98-15.22-7.14-31.3-6.91-47.29c0.03-1.96,0.1-3.92,0.19-5.88
			C160.42,19.52,158.42,19.53,158.35,20.81L158.35,20.81z"/>
	</g>
</g>
<g>
	<g>
		<g>
			<path class="st3" d="M152.78,30.65c0.84-2.08,1.77-4.12,2.8-6.11c0.52-1.01,1.05-2.03,1.64-2.99c0.38-0.62,0.86-1.13,1.62-0.83
				c0.77,0.3,1.39,1.04,1.86,1.69c0.71,0.97,1.39,1.98,2.08,2.96c1.36,1.94,2.72,3.88,4.08,5.82c0.73,1.05,2.47,0.05,1.73-1.01
				c-1.22-1.74-2.44-3.48-3.66-5.22c-1.12-1.6-2.15-3.41-3.53-4.81c-1.17-1.19-2.94-2.08-4.53-1.11c-0.81,0.49-1.29,1.34-1.74,2.13
				c-0.5,0.88-0.97,1.77-1.43,2.66c-1.05,2.05-1.99,4.14-2.84,6.28c-0.2,0.5,0.22,1.1,0.7,1.23
				C152.12,31.51,152.58,31.16,152.78,30.65L152.78,30.65z"/>
		</g>
	</g>
	<g>
		<g>
			<path class="st3" d="M249.66,246.63c1.68,3.85,3.67,7.63,6.07,11.08c0.54,0.78,1.24,1.5,2.27,1.4c0.98-0.09,1.55-0.93,2.01-1.7
				c1.09-1.82,2.03-3.71,2.84-5.67c0.39-0.94,0.66-1.94,1.1-2.85c0.21-0.43,0.69-1.47,1.31-1.35c1.26,0.24,1.8-1.68,0.53-1.93
				c-1.72-0.33-2.92,0.9-3.61,2.35c-0.8,1.7-1.33,3.51-2.16,5.21c-0.43,0.9-0.9,1.78-1.4,2.64c-0.23,0.4-0.46,0.79-0.72,1.17
				c-0.03,0.05-0.1,0.13-0.16,0.16c0.03-0.01,0.17,0.04,0.06-0.03c-0.1-0.06-0.18-0.17-0.26-0.26c-0.6-0.76-1.1-1.65-1.6-2.47
				c-0.52-0.85-1.03-1.71-1.52-2.58c-1.12-2.01-2.14-4.07-3.06-6.18c-0.22-0.5-0.94-0.61-1.37-0.36
				C249.51,245.56,249.45,246.14,249.66,246.63L249.66,246.63z"/>
		</g>
	</g>
</g>
<g>
	<g>
		<path d="M184.74,132.59c-0.75,4.26-0.95,8.6-0.58,12.92c0.06,0.64,1.06,0.64,1,0c-0.37-4.22-0.2-8.47,0.54-12.65
			C185.81,132.23,184.85,131.96,184.74,132.59L184.74,132.59z"/>
	</g>
</g>
<g>
	<g>
		<path d="M257.08,132.86c-0.36,3.76-0.72,7.51-1.08,11.27c-0.06,0.64,0.94,0.64,1,0c0.36-3.76,0.72-7.51,1.08-11.27
			C258.14,132.22,257.14,132.23,257.08,132.86L257.08,132.86z"/>
	</g>
</g>
<g>
	<g>
		<path d="M312.68,134.76c-0.5,3.74-0.6,7.51-0.3,11.27c0.05,0.64,1.05,0.64,1,0c-0.3-3.76-0.19-7.53,0.3-11.27
			C313.77,134.12,312.77,134.13,312.68,134.76L312.68,134.76z"/>
	</g>
</g>
<g>
	<g>
		<path d="M335.73,136.11c-0.54,2.83-0.57,5.71-0.07,8.55c0.11,0.63,1.07,0.36,0.96-0.27c-0.46-2.65-0.44-5.38,0.07-8.02
			C336.81,135.75,335.85,135.48,335.73,136.11L335.73,136.11z"/>
	</g>
</g>
<g>
	<g>
		<path d="M90.75,133.88c-0.69,4.01-0.95,8.08-0.75,12.14c0.03,0.64,1.03,0.64,1,0c-0.19-3.97,0.04-7.95,0.72-11.87
			C91.82,133.52,90.86,133.25,90.75,133.88L90.75,133.88z"/>
	</g>
</g>
</svg>
