<?xml version="1.0" encoding="utf-8"?>
<!-- Generator: Adobe Illustrator 23.1.1, SVG Export Plug-In . SVG Version: 6.00 Build 0)  -->
<svg version="1.1" id="Layer_1" xmlns="http://www.w3.org/2000/svg" xmlns:xlink="http://www.w3.org/1999/xlink" x="0px" y="0px"
	 viewBox="0 0 432 360" style="enable-background:new 0 0 432 360;" xml:space="preserve">
<g>
	<g>
		<path d="M192.19,161.54c-2.98,6.05-5.81,12.17-8.5,18.36c-0.32,0.75-0.65,1.49-0.97,2.24c-0.28,0.65-0.65,1.33-0.78,2.03
			c-0.24,1.27,0.67,2,1.87,2c1.58-0.01,3.21-0.34,4.77-0.59c1.61-0.25,3.23-0.53,4.85-0.69c0.95-0.09,1.9-0.15,2.85-0.15
			c0.77,0,1.6,0.18,2.36,0.1c0.54-0.06,1.05-0.46,0.91-1.05c-0.12-0.53-0.65-0.8-1.13-0.54c-0.57,0.31-0.06,1.17,0.5,0.86
			c0.03-0.02,0.06-0.03,0.1-0.05c-0.13,0.02-0.26,0.03-0.39,0.05c-0.05-0.08-0.1-0.17-0.15-0.25c-0.05,0-0.1,0-0.16,0
			c-0.11-0.03-0.27-0.03-0.39-0.04c-0.32-0.03-0.63-0.05-0.95-0.06c-0.71-0.03-1.43-0.01-2.14,0.02c-1.28,0.07-2.55,0.23-3.81,0.41
			c-1.35,0.2-2.69,0.43-4.04,0.63c-0.67,0.1-1.34,0.19-2.01,0.26c-0.49,0.05-1.27,0.25-1.75,0.03c-0.65-0.29-0.25-1.09-0.05-1.56
			c0.28-0.67,0.57-1.35,0.86-2.02c0.53-1.23,1.07-2.46,1.61-3.69c1.1-2.49,2.23-4.97,3.38-7.44c1.3-2.8,2.64-5.58,4-8.35
			C193.34,161.47,192.48,160.96,192.19,161.54L192.19,161.54z"/>
	</g>
</g>
<g>
	<g>
		<path d="M203.41,184.54c0.04-3.29,0.27-6.58,0.7-9.85c0.22-1.65,0.49-3.29,0.8-4.92c0.15-0.79,0.31-1.58,0.5-2.36
			c0.16-0.69,0.35-1.35,0.92-1.81c0.5-0.4-0.21-1.11-0.71-0.71c-1.14,0.92-1.28,2.67-1.55,4.01c-0.35,1.71-0.64,3.44-0.88,5.17
			c-0.48,3.47-0.74,6.96-0.78,10.47C202.4,185.18,203.4,185.19,203.41,184.54L203.41,184.54z"/>
	</g>
</g>
<g>
	<g>
		<path d="M208.1,183.58c0.62-4.34,1.27-8.71,2.71-12.87c-0.32,0-0.64,0-0.96,0c1.27,4.45,2.54,8.91,3.8,13.36
			c0.14,0.5,0.8,0.45,0.96,0c2.12-5.93,3.92-11.96,5.38-18.09c0.15-0.63-0.81-0.89-0.96-0.27c-1.46,6.12-3.26,12.16-5.38,18.09
			c0.32,0,0.64,0,0.96,0c-1.27-4.45-2.54-8.91-3.8-13.36c-0.14-0.49-0.81-0.45-0.96,0c-1.45,4.16-2.09,8.53-2.71,12.87
			C207.04,183.94,208.01,184.22,208.1,183.58L208.1,183.58z"/>
	</g>
</g>
<g>
	<g>
		<path d="M223.9,165.76c-1.14,6.26-2.29,12.52-3.43,18.78c-0.08,0.44,0.33,0.76,0.73,0.56c2.64-1.3,5.54-1.96,8.48-1.95
			c0.47,0,0.61-0.53,0.35-0.85c-0.18-0.23-0.37-0.46-0.55-0.68c-0.41-0.5-1.11,0.21-0.71,0.71c0.18,0.23,0.37,0.46,0.55,0.68
			c0.12-0.28,0.24-0.57,0.35-0.85c-3.13-0.01-6.19,0.71-8.99,2.09c0.24,0.19,0.49,0.38,0.73,0.56c1.14-6.26,2.29-12.52,3.43-18.78
			C224.98,165.4,224.01,165.13,223.9,165.76L223.9,165.76z"/>
	</g>
</g>
<g>
	<g>
		<path d="M222.94,175.26c2.01,0.41,4.12,0.24,6.02-0.55c0.25-0.1,0.43-0.33,0.35-0.62c-0.06-0.24-0.36-0.45-0.62-0.35
			c-1.73,0.72-3.64,0.93-5.49,0.55C222.58,174.17,222.31,175.13,222.94,175.26L222.94,175.26z"/>
	</g>
</g>
<g>
	<g>
		<path d="M224.85,165.91c2.51-0.13,5.01-0.27,7.52-0.4c0.64-0.03,0.64-1.03,0-1c-2.51,0.13-5.01,0.27-7.52,0.4
			C224.21,164.94,224.21,165.95,224.85,165.91L224.85,165.91z"/>
	</g>
</g>
<g>
	<g>
		<path d="M241.72,166.34c-1.25,1.84-2.45,3.71-3.59,5.62c-0.81,1.36-2.22,3.24-1.52,4.91c0.35,0.83,1.12,1.2,1.9,1.55
			c0.93,0.41,1.9,0.78,2.8,1.25c0.37,0.19,0.82,0.45,0.94,0.88c0.14,0.47-0.18,0.9-0.5,1.22c-0.71,0.7-1.77,1.12-2.69,1.49
			c-2.27,0.91-4.68,1.36-7.12,1.35c-0.64,0-0.64,1,0,1c2.18,0.01,4.37-0.32,6.44-1.03c1.02-0.35,2.04-0.77,2.98-1.3
			c0.71-0.4,1.43-0.96,1.76-1.73c0.86-2.04-1.65-2.9-3.05-3.52c-0.78-0.34-2.25-0.7-2.57-1.6c-0.33-0.94,0.37-2.05,0.83-2.83
			c1.33-2.3,2.75-4.55,4.25-6.75C242.95,166.31,242.08,165.81,241.72,166.34L241.72,166.34z"/>
	</g>
</g>
<g>
	<g>
		<g>
			<path d="M166.01,194.83c-0.19,0.87-0.26,1.75-0.2,2.64c0.04,0.63,0.08,1.47,0.76,1.75c0.61,0.25,1.23-0.13,1.63-0.57
				c0.65-0.73,1.22-1.55,1.83-2.32c-0.14-0.08-0.28-0.16-0.42-0.24c-0.5,2.49-1.3,4.91-2.38,7.21c-0.11,0.24,0.19,0.52,0.39,0.3
				c0.13-0.14,0.26-0.28,0.39-0.41c0.22-0.23-0.13-0.59-0.35-0.35c-0.13,0.14-0.26,0.28-0.39,0.41c0.13,0.1,0.26,0.2,0.39,0.3
				c1.1-2.34,1.92-4.79,2.43-7.32c0.04-0.22-0.25-0.46-0.42-0.24c-0.44,0.56-0.87,1.11-1.31,1.67c-0.34,0.43-0.8,1.22-1.44,1.16
				c-0.69-0.07-0.62-1.24-0.63-1.72c-0.02-0.71,0.06-1.42,0.2-2.11C166.56,194.65,166.07,194.52,166.01,194.83L166.01,194.83z"/>
		</g>
	</g>
	<g>
		<g>
			<path d="M172.39,197.92c0.5-0.14,1-0.18,1.53-0.12c0.13,0.02,0.26-0.13,0.25-0.25c-0.01-0.15-0.11-0.23-0.25-0.25
				c-0.56-0.07-1.12-0.02-1.66,0.13c-0.13,0.04-0.22,0.18-0.17,0.31C172.12,197.88,172.26,197.96,172.39,197.92L172.39,197.92z"/>
		</g>
	</g>
	<g>
		<g>
			<path d="M170.65,199.5c1.25,0.22,2.51,0.22,3.76,0.02c0.32-0.05,0.18-0.53-0.13-0.48c-1.16,0.19-2.34,0.18-3.5-0.02
				C170.47,198.96,170.34,199.44,170.65,199.5L170.65,199.5z"/>
		</g>
	</g>
	<g>
		<g>
			<path d="M176.31,195.31c1.11,2.3,2.47,4.46,4.05,6.46c0.2,0.25,0.55-0.1,0.35-0.35c-1.55-1.97-2.88-4.1-3.97-6.36
				C176.6,194.77,176.17,195.02,176.31,195.31L176.31,195.31z"/>
		</g>
	</g>
	<g>
		<g>
			<path d="M179.68,194.73c-1.1,2.59-2.45,5.07-4.02,7.41c-0.18,0.27,0.24,0.5,0.43,0.25c0.07-0.09,0.14-0.18,0.2-0.27
				c0.19-0.26-0.24-0.51-0.43-0.25c-0.07,0.09-0.14,0.18-0.2,0.27c0.14,0.08,0.29,0.17,0.43,0.25c1.57-2.34,2.91-4.82,4.02-7.41
				C180.24,194.69,179.81,194.43,179.68,194.73L179.68,194.73z"/>
		</g>
	</g>
</g>
<g>
	<g>
		<g>
			<path d="M218.97,191.75c-0.44,1.14-1.57,5.3,0.94,4.87c1.04-0.18,1.82-1.09,2.44-1.87c0.78-0.98,1.41-2.06,2.04-3.15
				c-0.15-0.06-0.3-0.13-0.46-0.19c-1.17,4.97-3.42,9.57-5.66,14.12c-0.14,0.29,0.29,0.54,0.43,0.25c2.26-4.59,4.53-9.23,5.71-14.24
				c0.06-0.27-0.31-0.44-0.46-0.19c-0.87,1.51-1.79,3.31-3.23,4.36c-0.34,0.25-0.81,0.51-1.25,0.43c-0.63-0.13-0.65-0.79-0.64-1.3
				c0.02-1.02,0.25-2,0.61-2.95C219.57,191.58,219.08,191.45,218.97,191.75L218.97,191.75z"/>
		</g>
	</g>
	<g>
		<g>
			<path d="M226.99,196.93c0.84-0.15,1.71,0.05,2.42,0.52c0.27,0.18,0.52-0.26,0.25-0.43c-0.82-0.54-1.83-0.74-2.8-0.57
				c-0.13,0.02-0.21,0.19-0.17,0.31C226.72,196.9,226.86,196.95,226.99,196.93L226.99,196.93z"/>
		</g>
	</g>
	<g>
		<g>
			<path d="M223.97,200.35c1.52-0.18,3.05-0.09,4.54,0.27c0.31,0.08,0.45-0.41,0.13-0.48c-1.53-0.37-3.11-0.47-4.67-0.29
				C223.65,199.89,223.65,200.39,223.97,200.35L223.97,200.35z"/>
		</g>
	</g>
	<g>
		<g>
			<path d="M236.87,193.8c-0.85-0.15-1.69-0.4-2.47-0.78c-0.52-0.25-1.16-0.71-1.57-0.04c-0.42,0.69-0.64,1.58-0.87,2.35
				c-0.27,0.88-0.48,1.79-0.63,2.7c-0.03,0.14,0.04,0.25,0.17,0.31c0.82,0.32,1.69,0.36,2.56,0.44c0.84,0.08,2.31,0.21,2.71,1.11
				c0.48,1.08-0.95,1.99-1.81,2.21c-0.55,0.14-1.11,0.16-1.67,0.15c-0.3-0.01-0.6-0.02-0.9-0.05c-0.11-0.01-0.23-0.02-0.34-0.04
				c-0.14,0-0.23-0.07-0.26-0.2c-0.11-0.1-0.1-0.17,0.04-0.21c0.32,0.02,0.32-0.48,0-0.5c-0.45-0.03-0.73,0.47-0.58,0.88
				c0.2,0.59,1,0.57,1.5,0.61c1.44,0.09,3.11,0,4.1-1.2c0.4-0.49,0.66-1.19,0.4-1.81c-0.24-0.55-0.84-0.9-1.38-1.1
				c-1.36-0.51-2.87-0.24-4.23-0.76c0.06,0.1,0.12,0.21,0.17,0.31c0.26-1.47,0.65-2.91,1.19-4.3c0.06-0.15,0.14-0.45,0.23-0.56
				c0.23-0.28,0.39-0.11,0.62,0.01c0.27,0.14,0.54,0.26,0.81,0.38c0.67,0.28,1.36,0.47,2.07,0.6
				C237.05,194.34,237.19,193.86,236.87,193.8L236.87,193.8z"/>
		</g>
	</g>
	<g>
		<g>
			<path d="M239.23,197.78c0.96,1.81,2.08,3.53,3.36,5.13c0.2,0.25,0.55-0.1,0.35-0.35c-1.25-1.57-2.35-3.25-3.28-5.03
				C239.51,197.25,239.08,197.5,239.23,197.78L239.23,197.78z"/>
		</g>
	</g>
	<g>
		<g>
			<path d="M242.1,196.63c-1.3,2.34-2.74,4.6-4.31,6.76c-0.17,0.23,0.2,0.51,0.39,0.3c0.16-0.17,0.31-0.34,0.47-0.51
				c0.22-0.24-0.13-0.59-0.35-0.35c-0.16,0.17-0.31,0.34-0.47,0.51c0.13,0.1,0.26,0.2,0.39,0.3c1.57-2.17,3.01-4.42,4.31-6.76
				C242.69,196.6,242.25,196.35,242.1,196.63L242.1,196.63z"/>
		</g>
	</g>
	<g>
		<g>
			<path d="M246.47,198.67c1.58,0,3.16,0,4.73,0c0.32,0,0.32-0.48,0-0.5c-0.12-0.01-0.23-0.04-0.33-0.12
				c-0.25-0.2-0.61,0.16-0.35,0.35c0.21,0.16,0.42,0.25,0.68,0.27c0-0.17,0-0.33,0-0.5c-1.58,0-3.16,0-4.73,0
				C246.15,198.17,246.15,198.67,246.47,198.67L246.47,198.67z"/>
		</g>
	</g>
	<g>
		<g>
			<path d="M249.56,195.39c-0.63,1.73-1.16,3.49-1.59,5.29c-0.07,0.31,0.41,0.45,0.48,0.13c0.42-1.79,0.95-3.56,1.59-5.29
				C250.15,195.22,249.67,195.09,249.56,195.39L249.56,195.39z"/>
		</g>
	</g>
	<g>
		<g>
			<path d="M253.91,193.57c1.11,0,2.14,0.6,2.75,1.51c0.66,0.99,0.69,2.18,0.19,3.25c-0.48,1.02-1.31,1.85-2.17,2.56
				c-1.05,0.86-2.18,1.62-3.34,2.33c-0.23,0.14-0.11,0.44,0.13,0.47c2.55,0.3,5.32-1.05,7.76,0.08c0.29,0.13,0.54-0.3,0.25-0.43
				c-2.57-1.19-5.34,0.17-8.01-0.14c0.04,0.16,0.08,0.31,0.13,0.47c1.3-0.8,2.59-1.66,3.75-2.67c0.97-0.85,1.9-1.9,2.23-3.17
				c0.61-2.34-1.25-4.73-3.67-4.73C253.58,193.07,253.58,193.57,253.91,193.57L253.91,193.57z"/>
		</g>
	</g>
</g>
<g>
	<g>
		<g>
			<path d="M196.28,214.05c-0.14,0.79-0.27,1.63,0.07,2.4c0.28,0.61,0.85,1.06,1.54,1.05c0.74-0.02,1.37-0.54,1.87-1.03
				c0.73-0.73,1.42-1.51,2.12-2.26c-0.14-0.08-0.28-0.16-0.42-0.24c-1.19,3.34-2.64,6.59-4.34,9.71c0.14,0.08,0.29,0.17,0.43,0.25
				c0.27-0.51,0.59-0.97,0.98-1.4c0.22-0.24-0.14-0.59-0.35-0.35c-0.42,0.46-0.77,0.95-1.06,1.5c-0.15,0.28,0.28,0.54,0.43,0.25
				c1.71-3.16,3.18-6.45,4.39-9.83c0.08-0.24-0.25-0.42-0.42-0.24c-0.49,0.52-0.97,1.04-1.46,1.56c-0.45,0.48-0.89,1.02-1.47,1.35
				c-0.63,0.36-1.34,0.28-1.72-0.38c-0.38-0.67-0.24-1.48-0.11-2.19C196.82,213.87,196.33,213.73,196.28,214.05L196.28,214.05z"/>
		</g>
	</g>
	<g>
		<g>
			<path d="M204.55,216.99c0.64,0,1.28,0,1.91,0c0.32,0,0.32-0.5,0-0.5c-0.64,0-1.28,0-1.91,0
				C204.23,216.49,204.23,216.99,204.55,216.99L204.55,216.99z"/>
		</g>
	</g>
	<g>
		<g>
			<path d="M203.22,219.42c1.26-0.02,2.5-0.38,3.57-1.05c0.27-0.17,0.02-0.6-0.25-0.43c-1,0.62-2.14,0.96-3.31,0.98
				C202.9,218.92,202.9,219.42,203.22,219.42L203.22,219.42z"/>
		</g>
	</g>
	<g>
		<g>
			<path d="M209.74,213.43c-0.19,0.94-0.44,1.88-0.58,2.83c-0.11,0.78,0.56,0.97,1.2,0.88c1.99-0.28,3.98-0.6,5.98-0.9
				c0.16-0.02,0.23-0.24,0.15-0.37c-0.09-0.14-0.18-0.27-0.27-0.41c-0.18-0.27-0.61-0.02-0.43,0.25c0.09,0.14,0.18,0.27,0.27,0.41
				c0.05-0.12,0.1-0.24,0.15-0.37c-1.64,0.25-3.28,0.5-4.91,0.74c-0.39,0.06-0.78,0.15-1.18,0.17c-0.16,0.01-0.34,0.03-0.43-0.12
				c-0.09-0.16,0-0.38,0.04-0.55c0.17-0.81,0.33-1.62,0.5-2.43C210.29,213.25,209.81,213.12,209.74,213.43L209.74,213.43z"/>
		</g>
	</g>
	<g>
		<g>
			<path d="M213.02,212.26c-0.69,3.17-1.14,6.39-1.35,9.62c-0.02,0.32,0.48,0.32,0.5,0c0.21-3.19,0.65-6.36,1.33-9.49
				C213.57,212.08,213.09,211.95,213.02,212.26L213.02,212.26z"/>
		</g>
	</g>
</g>
<g>
	<g>
		<path d="M187.19,155.03c-5.35,1.49-10.75,2.99-15.75,5.47c-4.97,2.46-9.35,5.97-12.52,10.55c-1.41,2.05-2.49,4.28-3.43,6.57
			c-1.22,2.98-2.35,6.03-3.34,9.1c-1.05,3.25-1.88,6.59-2.16,9.99c-0.27,3.28,0.06,6.56,0.97,9.73c1.64,5.69,4.7,11.12,8.26,15.83
			c3.4,4.5,7.55,8.47,12.45,11.29c11.07,6.35,24.2,5.39,36.47,4.76c3.22-0.17,6.45-0.31,9.68-0.31c3.35,0.01,6.71,0.16,10.06,0.23
			c6.57,0.14,13.28-0.08,19.51-2.39c5.86-2.17,11.2-5.79,16.18-9.51c4.44-3.31,8.73-7.18,11.3-12.17
			c2.97-5.78,2.79-12.28,1.43-18.48c-1.38-6.29-3.5-12.57-6.38-18.33c-4.91-9.81-13.16-18.54-24.22-20.95
			c-2.71-0.59-5.44-0.5-8.2-0.5c-5.23,0.01-10.46-0.46-15.62-1.25c-3.97-0.6-7.85-1.72-11.84-2.22c-5.26-0.65-10.71-0.18-15.9,0.86
			C191.79,153.78,189.49,154.39,187.19,155.03c-0.62,0.17-0.36,1.14,0.27,0.96c5.18-1.44,10.39-2.58,15.79-2.77
			c2.26-0.08,4.54-0.05,6.78,0.23c1.66,0.21,3.3,0.57,4.93,0.93c5.17,1.12,10.4,1.88,15.67,2.28c3.53,0.27,7.03,0.17,10.56,0.24
			c9.06,0.17,17.2,5.75,22.66,12.67c3.83,4.85,6.52,10.53,8.56,16.34c1.05,2.99,1.97,6.04,2.7,9.12c0.76,3.22,1.27,6.52,1.14,9.83
			c-0.12,3.07-0.86,6.07-2.26,8.8c-1.26,2.44-2.95,4.62-4.87,6.58c-4.02,4.12-8.9,7.47-13.78,10.48c-2.68,1.65-5.47,3.15-8.44,4.23
			c-3.06,1.11-6.26,1.74-9.5,2.04c-6.52,0.6-13.06,0.01-19.59,0c-12.28-0.02-24.94,2.33-37.02-0.83c-5.6-1.47-10.68-4.25-14.97-8.12
			c-4.12-3.72-7.46-8.24-10.13-13.1c-1.5-2.73-2.82-5.58-3.71-8.57c-0.94-3.15-1.27-6.4-1-9.68c0.28-3.36,1.13-6.65,2.16-9.84
			c0.96-2.97,2.05-5.92,3.23-8.81c0.93-2.28,2.01-4.49,3.41-6.51c1.58-2.28,3.49-4.32,5.64-6.07c4.22-3.43,9.28-5.58,14.41-7.25
			c2.52-0.82,5.07-1.53,7.62-2.24C188.07,155.82,187.81,154.86,187.19,155.03z"/>
	</g>
</g>
<g>
	<g>
		<g>
			<path d="M140.64,135.28c-1.06-3.88,1.76-7.29,4.78-9.32c2.89-1.95,6.93-3.76,10.09-1.34c2.42,1.86,3.41,5.27,2.48,8.14
				c-1.01,3.12-3.85,5.42-6.91,6.37c-2.21,0.69-4.63,0.74-6.87,0.2c-1.01-0.24-2.04-0.61-2.81-1.33c-0.77-0.72-1.25-1.88-0.8-2.9
				c0.26-0.58-0.61-1.09-0.86-0.5c-0.83,1.89,0.24,3.86,1.93,4.83c1.95,1.12,4.49,1.4,6.69,1.22c3.91-0.31,7.79-2.33,9.79-5.8
				c1.82-3.16,1.5-7.11-0.86-9.91c-1.11-1.32-2.66-2.23-4.38-2.45c-2.28-0.29-4.52,0.56-6.48,1.66c-4,2.25-8.13,6.35-6.76,11.38
				C139.84,136.17,140.81,135.91,140.64,135.28L140.64,135.28z"/>
		</g>
	</g>
	<g>
		<g>
			<path d="M152.15,132.36c1.58,4.53,3.58,8.91,5.98,13.07c0.32,0.56,1.19,0.05,0.86-0.5c-2.36-4.09-4.33-8.38-5.88-12.83
				C152.91,131.5,151.94,131.75,152.15,132.36L152.15,132.36z"/>
		</g>
	</g>
	<g>
		<g>
			<path d="M161.54,124.94c-0.42,1.78-0.6,3.6-0.51,5.43c0.08,1.67,0.28,3.55,1.06,5.07c0.64,1.23,1.99,2.23,3.43,1.91
				c1.52-0.33,2.15-2.07,2.7-3.33c0.84-1.93,1.47-3.93,1.9-5.99c0.13-0.63-0.83-0.9-0.96-0.27c-0.4,1.94-0.98,3.83-1.76,5.65
				c-0.58,1.37-1.45,3.79-3.37,2.72c-1.58-0.89-1.8-3.4-1.94-5c-0.18-1.99-0.03-3.98,0.43-5.92
				C162.65,124.58,161.68,124.32,161.54,124.94L161.54,124.94z"/>
		</g>
	</g>
	<g>
		<g>
			<path d="M171.06,142.09c1.28-4.69,3-9.39,5.38-13.65c0.22-0.4,0.58-0.9,0.98-0.39c0.28,0.35,0.35,0.85,0.43,1.27
				c0.24,1.3,0.43,2.61,0.59,3.93c0.15,1.28,0.27,2.56,0.36,3.85c0.02,0.37,0.29,3.53,0.1,3.56c0.13,0.02,0.26,0.03,0.39,0.05
				c-0.04-0.02-0.07-0.04-0.11-0.05c-0.58-0.27-1.09,0.59-0.5,0.86c0.89,0.42,1.28-0.55,1.27-1.29c-0.01-1.25-0.09-2.5-0.18-3.74
				c-0.19-2.49-0.5-4.98-0.95-7.44c-0.14-0.76-0.39-1.66-1.11-2.07c-0.74-0.43-1.51,0.01-1.94,0.65c-0.65,0.96-1.12,2.12-1.62,3.17
				c-0.49,1.05-0.96,2.11-1.39,3.18c-1.05,2.56-1.93,5.18-2.65,7.85C169.92,142.45,170.89,142.71,171.06,142.09L171.06,142.09z"/>
		</g>
	</g>
	<g>
		<g>
			<path d="M173.61,135.68c1.8,0.53,3.67,0.82,5.54,0.85c0.64,0.01,0.64-0.99,0-1c-1.79-0.03-3.56-0.31-5.28-0.81
				C173.26,134.53,172.99,135.5,173.61,135.68L173.61,135.68z"/>
		</g>
	</g>
	<g>
		<g>
			<path d="M182.66,140.35c-0.2-2.3-0.2-4.62,0.04-6.92c0.13-1.22,0.31-2.44,0.58-3.64c0.16-0.71,0.45-1.9,1.35-1.93
				c0.99-0.03,1.92,1.01,2.42,1.76c0.53,0.79,0.89,1.69,1.14,2.61c0.56,2.05,0.73,4.41-0.19,6.38c-0.86,1.84-2.87,3.3-4.96,2.89
				c-0.63-0.12-0.9,0.84-0.27,0.96c2.16,0.42,4.26-0.65,5.53-2.39c1.48-2.03,1.55-4.74,1.09-7.12c-0.42-2.16-1.38-4.59-3.41-5.72
				c-0.91-0.5-2-0.54-2.74,0.26c-0.76,0.81-0.93,2.03-1.12,3.08c-0.59,3.22-0.74,6.51-0.45,9.77
				C181.71,140.99,182.71,140.99,182.66,140.35L182.66,140.35z"/>
		</g>
	</g>
	<g>
		<g>
			<path d="M192.49,141.55c-0.29-5,0.58-10.05,2.6-14.64c0.68-1.54,2.16-4.29,4.27-3.38c1.93,0.83,2.23,3.42,1.51,5.16
				c-0.95,2.29-3.51,3.42-5.83,3.68c-0.33,0.04-0.55,0.29-0.48,0.63c0.73,3.49,2.63,6.67,5.36,8.97c0.49,0.41,1.2-0.29,0.71-0.71
				c-2.61-2.2-4.4-5.18-5.1-8.53c-0.16,0.21-0.32,0.42-0.48,0.63c2.42-0.26,4.89-1.27,6.27-3.38c1.17-1.78,1.31-4.36,0-6.11
				c-0.7-0.93-1.79-1.6-2.99-1.5c-1.11,0.1-2.03,0.82-2.7,1.66c-0.78,0.96-1.28,2.09-1.75,3.23c-0.56,1.37-1.03,2.78-1.4,4.21
				c-0.84,3.28-1.17,6.69-0.97,10.07C191.53,142.19,192.53,142.19,192.49,141.55L192.49,141.55z"/>
		</g>
	</g>
	<g>
		<g>
			<path d="M202.54,141.97c1-5.15,3.09-10.03,6.11-14.32c-0.19,0.08-0.38,0.15-0.56,0.23c0.45,0.13,0.51,1,0.59,1.38
				c0.14,0.66,0.27,1.32,0.38,1.98c0.23,1.36,0.38,2.74,0.47,4.11c0.18,2.69,0.09,5.39-0.23,8.06c0.25-0.14,0.5-0.29,0.75-0.43
				c-0.27-0.15-0.54-0.3-0.81-0.45c-0.56-0.31-1.07,0.55-0.5,0.86c0.27,0.15,0.54,0.3,0.81,0.45c0.36,0.2,0.71-0.06,0.75-0.43
				c0.37-3.07,0.42-6.17,0.13-9.24c-0.14-1.46-0.34-2.92-0.63-4.36c-0.19-1-0.29-2.54-1.45-2.89c-0.23-0.07-0.44,0.05-0.56,0.23
				c-3.07,4.35-5.2,9.33-6.21,14.56C201.45,142.34,202.42,142.6,202.54,141.97L202.54,141.97z"/>
		</g>
	</g>
	<g>
		<g>
			<path d="M204.41,136.73c2.7-0.05,5.39-0.1,8.09-0.14c0.64-0.01,0.64-1.01,0-1c-2.7,0.05-5.39,0.1-8.09,0.14
				C203.77,135.74,203.77,136.74,204.41,136.73L204.41,136.73z"/>
		</g>
	</g>
	<g>
		<g>
			<path d="M214.32,129.62c3.17-0.83,6.43-1.14,9.7-0.94c0.64,0.04,0.64-0.96,0-1c-3.35-0.21-6.72,0.12-9.97,0.98
				C213.43,128.82,213.69,129.79,214.32,129.62L214.32,129.62z"/>
		</g>
	</g>
	<g>
		<g>
			<path d="M219.09,127.48c-1.95,5.3-3.13,10.85-3.53,16.48c-0.05,0.64,0.95,0.64,1,0c0.39-5.54,1.57-11,3.49-16.21
				C220.28,127.14,219.31,126.88,219.09,127.48L219.09,127.48z"/>
		</g>
	</g>
	<g>
		<g>
			<path d="M220.08,143.61c0.6-3.94,2.05-7.68,4.26-11c0.36-0.54-0.51-1.04-0.86-0.5c-2.26,3.37-3.76,7.22-4.37,11.23
				C219.02,143.98,219.98,144.25,220.08,143.61L220.08,143.61z"/>
		</g>
	</g>
	<g>
		<g>
			<path d="M230.97,127.66c-1.68,1.27-3.1,2.83-4.18,4.65c-0.94,1.59-1.71,3.4-1.76,5.27c-0.05,1.59,0.51,3.29,2.05,4
				c1.96,0.9,4.08-0.34,5.67-1.44c0.53-0.36,0.03-1.23-0.5-0.86c-1.32,0.91-3.28,2.23-4.91,1.32c-1.28-0.72-1.43-2.41-1.25-3.71
				c0.46-3.28,2.81-6.4,5.39-8.35C231.98,128.14,231.48,127.27,230.97,127.66L230.97,127.66z"/>
		</g>
	</g>
	<g>
		<g>
			<path d="M238.99,126.54c-1.34,0.88-2.8,2.06-3.14,3.72c-0.32,1.54,0.48,2.83,1.46,3.94c0.98,1.11,2.36,2.23,2.43,3.83
				c0.08,1.77-1.29,3.38-2.81,4.11c-2.19,1.05-4.8,0.72-7.12,0.45c-0.64-0.07-0.63,0.93,0,1c3.69,0.42,8.36,0.6,10.37-3.23
				c0.76-1.46,0.74-3.11-0.15-4.5c-0.83-1.3-2.16-2.21-2.9-3.57c-1.12-2.07,0.76-3.83,2.37-4.88
				C240.03,127.05,239.53,126.18,238.99,126.54L238.99,126.54z"/>
		</g>
	</g>
</g>
<g>
	<g>
		<g>
			<path d="M123.19,178.47c1.06,1.3,2.33,2.42,3.77,3.28c0.59,0.35,1.28,0.76,1.99,0.61c0.6-0.12,0.99-0.59,1.21-1.14
				c0.27-0.66,0.32-1.4,0.38-2.09c0.08-1.06,0.08-2.12,0.02-3.18c-0.12-1.99-0.43-3.96-0.74-5.92c-0.15,0.06-0.3,0.13-0.46,0.19
				c3.09,5.94,5.95,12,8.59,18.15c0.1,0.23,0.48,0.11,0.47-0.13c-0.02-0.31-0.04-0.61-0.06-0.92c-0.02-0.32-0.52-0.32-0.5,0
				c0.02,0.31,0.04,0.61,0.06,0.92c0.16-0.04,0.31-0.08,0.47-0.13c-2.64-6.15-5.5-12.21-8.59-18.15c-0.14-0.27-0.5-0.07-0.46,0.19
				c0.52,3.27,1.13,6.73,0.59,10.03c-0.1,0.61-0.31,1.47-1,1.66c-0.73,0.2-1.57-0.44-2.14-0.82c-1.23-0.8-2.31-1.79-3.23-2.93
				C123.34,177.86,122.99,178.22,123.19,178.47L123.19,178.47z"/>
		</g>
	</g>
	<g>
		<g>
			<path d="M137.02,173.07c0.95-1.16,2.04-2.2,3.25-3.08c0.11-0.08,0.16-0.22,0.09-0.34c-0.06-0.11-0.23-0.17-0.34-0.09
				c-1.25,0.91-2.38,1.97-3.35,3.16c-0.09,0.11-0.1,0.25,0,0.35C136.75,173.16,136.93,173.17,137.02,173.07L137.02,173.07z"/>
		</g>
	</g>
	<g>
		<g>
			<path d="M138.18,175.8c1.9-1.16,3.65-2.56,5.18-4.18c0.22-0.23-0.13-0.59-0.35-0.35c-1.51,1.58-3.21,2.96-5.08,4.1
				C137.65,175.54,137.9,175.97,138.18,175.8L138.18,175.8z"/>
		</g>
	</g>
	<g>
		<g>
			<path d="M139.86,162.79c2.97,1.41,6.05,2.55,9.23,3.39c1.59,0.42,3.21,0.77,4.84,1.03c0.73,0.12,1.47,0.27,2.21,0.31
				c0.49,0.02,0.96-0.06,1.3-0.45c0.21-0.24-0.14-0.6-0.35-0.35c-0.46,0.53-1.41,0.25-2,0.17c-0.72-0.1-1.44-0.22-2.16-0.36
				c-1.47-0.28-2.93-0.61-4.37-1.01c-2.9-0.81-5.72-1.86-8.44-3.15C139.83,162.23,139.57,162.66,139.86,162.79L139.86,162.79z"/>
		</g>
	</g>
	<g>
		<g>
			<path d="M145.07,158.94c1.73,4.38,2.99,8.93,3.76,13.58c0.05,0.28,0.51,0.21,0.49-0.07c-0.01-0.14-0.02-0.29-0.03-0.43
				c-0.02-0.32-0.52-0.32-0.5,0c0.01,0.14,0.02,0.29,0.03,0.43c0.16-0.02,0.33-0.04,0.49-0.07c-0.77-4.65-2.03-9.2-3.76-13.58
				C145.44,158.51,144.95,158.64,145.07,158.94L145.07,158.94z"/>
		</g>
	</g>
	<g>
		<g>
			<path d="M144.93,151.53c0.68-0.58,1.63-0.64,2.44-0.33c0.91,0.35,1.52,1.16,1.79,2.08c0.62,2.08-0.38,4.13-1.33,5.93
				c-0.1,0.18,0.07,0.44,0.28,0.37c2.41-0.83,4.55-2.29,6.19-4.24c0.21-0.24-0.15-0.6-0.35-0.35c-1.59,1.88-3.64,3.31-5.97,4.11
				c0.09,0.12,0.19,0.24,0.28,0.37c1.11-2.08,2.23-4.57,1.16-6.91c-0.82-1.79-3.22-2.78-4.85-1.38
				C144.33,151.39,144.68,151.74,144.93,151.53L144.93,151.53z"/>
		</g>
	</g>
</g>
<g>
	<g>
		<g>
			<path d="M270.71,149.06c-0.55,1.6-0.77,3.32-0.55,5c0.14,1.07,0.62,2.33,1.81,2.56c1.37,0.26,2.59-1.05,3.42-1.96
				c1.05-1.14,1.9-2.44,2.57-3.84c0.14-0.29-0.29-0.54-0.43-0.25c-2.42,5.1-4.28,10.45-5.52,15.96c-0.04,0.19,0.12,0.35,0.31,0.31
				c0.33-0.08,0.52-0.22,0.72-0.5c0.19-0.26-0.25-0.51-0.43-0.25c-0.14,0.09-0.28,0.18-0.42,0.27c0.1,0.1,0.21,0.21,0.31,0.31
				c1.24-5.46,3.07-10.78,5.47-15.84c-0.14-0.08-0.29-0.17-0.43-0.25c-0.54,1.14-1.2,2.22-2.01,3.19c-0.73,0.88-1.85,2.31-3.09,2.38
				c-1.42,0.09-1.75-1.64-1.82-2.71c-0.09-1.44,0.12-2.88,0.59-4.24C271.3,148.88,270.81,148.75,270.71,149.06L270.71,149.06z"/>
		</g>
	</g>
	<g>
		<g>
			<path d="M279.22,158c0.5,0,1.01,0,1.51-0.01c0.19,0,0.37-0.02,0.53,0.04c0.08,0.03,0.11,0.07,0.16,0.1
				c-0.01-0.02-0.01-0.02,0,0.01c-0.01-0.03-0.01-0.03,0,0c0-0.03-0.01-0.05,0.01-0.08c-0.09,0.1-0.1,0.25,0,0.35
				c0.09,0.09,0.26,0.1,0.35,0c0.18-0.2,0.17-0.46-0.02-0.65c-0.17-0.17-0.42-0.26-0.65-0.28c-0.3-0.02-0.61,0-0.91,0
				c-0.33,0-0.66,0-0.99,0C278.9,157.51,278.9,158.01,279.22,158L279.22,158z"/>
		</g>
	</g>
	<g>
		<g>
			<path d="M277.66,161.7c1.59,0.06,3.18-0.09,4.73-0.44c0.31-0.07,0.18-0.55-0.13-0.48c-1.51,0.34-3.05,0.47-4.6,0.42
				C277.34,161.19,277.34,161.69,277.66,161.7L277.66,161.7z"/>
		</g>
	</g>
	<g>
		<g>
			<path d="M285.64,156.69c1.88,1.7,3.75,3.4,5.63,5.09c0.24,0.22,0.59-0.14,0.35-0.35c-1.88-1.7-3.75-3.4-5.63-5.09
				C285.75,156.12,285.4,156.47,285.64,156.69L285.64,156.69z"/>
		</g>
	</g>
	<g>
		<g>
			<path d="M290.54,153.98c-1.6,2.99-3.2,5.98-4.8,8.97c-0.07,0.14-0.01,0.33,0.15,0.37c0.26,0.06,0.45,0.01,0.65-0.16
				c0.24-0.21-0.11-0.56-0.35-0.35c-0.05,0.01-0.11,0.02-0.16,0.04c0.05,0.12,0.1,0.24,0.15,0.37c1.6-2.99,3.2-5.98,4.8-8.97
				C291.13,153.95,290.69,153.69,290.54,153.98L290.54,153.98z"/>
		</g>
	</g>
	<g>
		<g>
			<path d="M292.97,150.23c0.71,0.23,1.47,0.52,1.99,1.07c0.59,0.62,0.58,1.47,0.14,2.17c-0.51,0.8-1.42,1.2-2.27,1.52
				c-0.31,0.11-0.72,0.22-0.56,0.65c0.11,0.29,0.45,0.42,0.74,0.45c0.53,0.07,1.11,0.01,1.64,0.01c0.62,0,1.23,0,1.85,0
				c0.32,0,0.32-0.5,0-0.5c-0.69,0-1.39,0-2.08,0c-0.33,0-0.65,0-0.98,0c-0.08,0-0.75,0.02-0.68-0.16
				c-0.06,0.06-0.12,0.12-0.17,0.17c1.45-0.52,3.31-1.33,3.35-3.14c0.04-1.56-1.57-2.3-2.83-2.72
				C292.79,149.65,292.66,150.13,292.97,150.23L292.97,150.23z"/>
		</g>
	</g>
	<g>
		<g>
			<path d="M298.05,159.06c1.04-0.08,2.08-0.05,3.12,0.07c0.13,0.02,0.25-0.13,0.25-0.25c0-0.15-0.12-0.23-0.25-0.25
				c-1.04-0.12-2.08-0.15-3.12-0.07C297.73,158.58,297.73,159.08,298.05,159.06L298.05,159.06z"/>
		</g>
	</g>
	<g>
		<g>
			<path d="M303.62,163.92c0.96-2.02,1.79-4.13,2.1-6.37c0.28-2.02,0.19-4.39-0.78-6.24c-0.31-0.58-0.96-0.97-1.44-0.34
				c-0.54,0.71-0.97,1.79-1.13,2.66c-0.14,0.76-0.06,1.59,0.35,2.27c0.54,0.9,1.51,1,2.35,1.5c0.28,0.16,0.53-0.27,0.25-0.43
				c-0.65-0.38-1.51-0.48-2.01-1.09c-0.53-0.64-0.59-1.55-0.41-2.32c0.08-0.35,0.8-2.64,1.41-2.29c0.31,0.17,0.47,0.93,0.56,1.24
				c0.12,0.38,0.22,0.77,0.3,1.17c0.66,3.45-0.5,6.91-1.97,9.99C303.05,163.96,303.48,164.21,303.62,163.92L303.62,163.92z"/>
		</g>
	</g>
</g>
<g>
	<g>
		<g>
			<path d="M172.43,242.57c-0.22,1.47-0.47,3.06,0.16,4.47c0.46,1.04,1.4,1.95,2.58,2.04c1.43,0.11,2.75-0.96,3.69-1.91
				c1.08-1.09,1.9-2.39,2.72-3.68c-0.14-0.08-0.29-0.17-0.43-0.25c-2.05,4.47-4.1,8.94-6.15,13.41c-0.13,0.29,0.3,0.54,0.43,0.25
				c2.05-4.47,4.1-8.94,6.15-13.41c0.13-0.29-0.26-0.53-0.43-0.25c-0.65,1.02-1.3,2.05-2.09,2.98c-0.81,0.94-1.88,2-3.12,2.29
				c-1.29,0.31-2.39-0.54-2.89-1.69c-0.56-1.29-0.33-2.78-0.12-4.11C172.96,242.39,172.48,242.26,172.43,242.57L172.43,242.57z"/>
		</g>
	</g>
	<g>
		<g>
			<path d="M182.88,248.21c0.73-0.38,1.63-0.33,2.33,0.1c0.28,0.17,0.53-0.26,0.25-0.43c-0.85-0.52-1.95-0.55-2.83-0.1
				C182.34,247.92,182.59,248.35,182.88,248.21L182.88,248.21z"/>
		</g>
	</g>
	<g>
		<g>
			<path d="M181.24,251.49c1.75,0.74,3.7,0.87,5.53,0.34c0.31-0.09,0.18-0.57-0.13-0.48c-1.69,0.5-3.52,0.4-5.15-0.29
				C181.2,250.93,180.95,251.36,181.24,251.49L181.24,251.49z"/>
		</g>
	</g>
	<g>
		<g>
			<path d="M193.72,244.05c-1.36,0.3-2.22-1.56-3.59-1.49c-0.63,0.03-0.77,0.55-0.83,1.09c-0.1,1.01-0.17,2.02-0.24,3.04
				c-0.03,0.45-0.05,0.91-0.08,1.36c-0.01,0.28-0.07,0.63,0.12,0.87c0.4,0.49,1.36,0.23,1.89,0.15c0.96-0.15,2.06-0.44,2.96,0.09
				c0.71,0.42,1.09,1.28,1.04,2.08c-0.07,0.99-0.82,1.83-1.72,2.18c-0.84,0.34-2,0.26-2.43-0.65c-0.14-0.29-0.57-0.04-0.43,0.25
				c0.6,1.3,2.35,1.29,3.44,0.68c1.28-0.71,1.99-2.23,1.45-3.64c-0.65-1.68-2.3-1.82-3.87-1.57c-0.46,0.07-0.99,0.23-1.46,0.19
				c-0.19-0.02-0.37,0.08-0.51-0.18c-0.02-0.04,0.01-0.36,0.01-0.34c0.01-0.28,0.03-0.56,0.04-0.84c0.06-1.05,0.14-2.1,0.23-3.14
				c0.03-0.35-0.03-0.75,0.27-0.98c0.27-0.21,0.56-0.07,0.85,0.07c0.37,0.18,0.69,0.44,1.02,0.67c0.6,0.42,1.21,0.76,1.96,0.6
				C194.17,244.47,194.04,243.98,193.72,244.05L193.72,244.05z"/>
		</g>
	</g>
	<g>
		<g>
			<path d="M202.45,241.26c1.22,0.04,2.08,1.28,2.03,2.44c-0.06,1.29-1.05,2.33-2.14,2.9c-0.19,0.1-0.14,0.4,0.06,0.46
				c1.19,0.32,2.38,0.65,3.56,0.97c0.31,0.08,0.44-0.4,0.13-0.48c-1.19-0.32-2.38-0.65-3.56-0.97c0.02,0.15,0.04,0.3,0.06,0.46
				c1.29-0.67,2.43-1.99,2.39-3.52c-0.04-1.38-1.11-2.71-2.53-2.75C202.13,240.75,202.13,241.25,202.45,241.26L202.45,241.26z"/>
		</g>
	</g>
	<g>
		<g>
			<path d="M207.53,249.27c2.38,0.36,4.78,0.39,7.17,0.08c0.31-0.04,0.32-0.54,0-0.5c-2.34,0.3-4.7,0.29-7.03-0.06
				C207.35,248.74,207.21,249.23,207.53,249.27L207.53,249.27z"/>
		</g>
	</g>
	<g>
		<g>
			<path d="M211.49,245.29c-0.75,2.7-1.09,5.49-1.01,8.29c0.01,0.32,0.51,0.32,0.5,0c-0.08-2.76,0.26-5.5,1-8.16
				C212.06,245.11,211.58,244.98,211.49,245.29L211.49,245.29z"/>
		</g>
	</g>
	<g>
		<g>
			<path d="M216.73,244.04c0.6-0.12,1.2-0.26,1.79-0.42c0.31-0.09,0.63-0.18,0.93-0.27c0.23-0.07,0.73-0.35,0.89-0.19
				c0.25,0.26-0.34,1.35-0.45,1.67c-0.23,0.63-0.45,1.26-0.68,1.89c-0.88,2.45-1.75,4.9-2.63,7.35c-0.11,0.3,0.37,0.43,0.48,0.13
				c1.05-2.94,2.1-5.88,3.16-8.82c0.22-0.62,0.56-1.29,0.67-1.94c0.05-0.32,0.02-0.72-0.3-0.88c-0.23-0.11-0.42,0.01-0.65,0.09
				c-0.34,0.12-0.69,0.22-1.03,0.33c-0.76,0.22-1.53,0.41-2.31,0.57C216.28,243.62,216.41,244.11,216.73,244.04L216.73,244.04z"/>
		</g>
	</g>
	<g>
		<g>
			<path d="M221.4,249.2c1.08,1.73,2.16,3.47,3.24,5.2c0.17,0.27,0.6,0.02,0.43-0.25c-1.08-1.73-2.16-3.47-3.24-5.2
				C221.66,248.68,221.23,248.93,221.4,249.2L221.4,249.2z"/>
		</g>
	</g>
	<g>
		<g>
			<path d="M223.93,247.57c-1.24,2.57-2.47,5.14-3.71,7.71c-0.14,0.29,0.29,0.54,0.43,0.25c1.24-2.57,2.47-5.14,3.71-7.71
				C224.5,247.54,224.07,247.28,223.93,247.57L223.93,247.57z"/>
		</g>
	</g>
	<g>
		<g>
			<path d="M226.98,248.9c0.79-0.17,1.59-0.34,2.38-0.52c0.31-0.07,0.18-0.55-0.13-0.48c-0.79,0.17-1.59,0.34-2.38,0.52
				C226.53,248.48,226.67,248.97,226.98,248.9L226.98,248.9z"/>
		</g>
	</g>
	<g>
		<g>
			<path d="M230.73,243.03c1.27-0.45,2.8-0.55,3.76,0.57c0.78,0.91,0.92,2.23,0.59,3.36c-0.81,2.7-3.62,4.12-5.54,5.93
				c-0.2,0.19,0.02,0.45,0.24,0.42c2.75-0.42,5.52-0.63,8.3-0.64c0.32,0,0.32-0.5,0-0.5c-2.82,0.01-5.64,0.23-8.43,0.66
				c0.08,0.14,0.16,0.28,0.24,0.42c2.14-2.02,5.47-3.71,5.84-6.97c0.13-1.19-0.25-2.51-1.17-3.31c-1.11-0.97-2.66-0.87-3.96-0.41
				C230.3,242.65,230.43,243.14,230.73,243.03L230.73,243.03z"/>
		</g>
	</g>
	<g>
		<g>
			<path d="M197.33,247.88c1.08,1.73,2.16,3.47,3.24,5.2c0.17,0.27,0.6,0.02,0.43-0.25c-1.08-1.73-2.16-3.47-3.24-5.2
				C197.59,247.36,197.16,247.61,197.33,247.88L197.33,247.88z"/>
		</g>
	</g>
	<g>
		<g>
			<path d="M199.86,246.25c-1.24,2.57-2.47,5.14-3.71,7.71c-0.14,0.29,0.29,0.54,0.43,0.25c1.24-2.57,2.47-5.14,3.71-7.71
				C200.43,246.22,200,245.96,199.86,246.25L199.86,246.25z"/>
		</g>
	</g>
</g>
<g>
	<g>
		<g>
			<path d="M85.9,114.68c-2.3-8.61-3.53-17.49-3.61-26.41c-0.01-0.85-0.33-2.43,0.54-2.92c0.7-0.4,1.69-0.45,2.47-0.44
				c1.68,0.01,3.34,0.55,4.73,1.49c2.91,1.96,4.05,5.6,3.09,8.93c-1.23,4.28-5.41,5.95-9.41,6.72c-0.55,0.11-0.43,1.04,0.13,0.98
				c0.2-0.02,0.39-0.04,0.59-0.06c0.64-0.06,0.64-1.06,0-1c-0.2,0.02-0.39,0.04-0.59,0.06c0.04,0.33,0.09,0.65,0.13,0.98
				c3.89-0.75,7.96-2.33,9.67-6.21c1.47-3.35,0.94-7.43-1.65-10.07c-1.27-1.3-2.95-2.21-4.72-2.6c-0.87-0.19-1.78-0.27-2.67-0.2
				c-0.86,0.07-1.85,0.2-2.55,0.74c-0.81,0.61-0.76,1.59-0.76,2.52c0,1.24,0.02,2.48,0.06,3.72c0.09,2.52,0.26,5.03,0.53,7.53
				c0.59,5.57,1.62,11.09,3.06,16.5C85.11,115.57,86.07,115.31,85.9,114.68L85.9,114.68z"/>
		</g>
	</g>
	<g>
		<g>
			<path d="M99.01,107.43c-1.13-2.87-0.38-5.99,0.78-8.73c1-2.36,2.42-4.77,4.58-6.26c0.92-0.63,2.62-1.7,3.64-0.76
				c0.85,0.79,0.97,2.25,1.12,3.32c0.38,2.83,0.47,6.03-1.06,8.57c-0.72,1.2-1.81,2.19-3.08,2.78c-0.59,0.27-1.25,0.46-1.9,0.49
				c-0.35,0.02-0.71,0.01-1.06-0.06c-0.11-0.02-0.23-0.05-0.34-0.08c-0.11-0.03-0.22-0.06-0.34-0.1c-0.14-0.12-0.3-0.12-0.46-0.01
				c0.62,0.17,0.89-0.79,0.27-0.96c-0.6-0.16-1.16,0.34-1.08,0.96c0.09,0.72,0.9,0.99,1.51,1.13c1.47,0.33,2.99,0.01,4.29-0.7
				c3.05-1.66,4.34-4.99,4.46-8.31c0.06-1.78-0.1-3.66-0.49-5.4c-0.29-1.28-0.97-2.76-2.43-2.97c-1.56-0.22-3.27,0.93-4.4,1.88
				c-1.24,1.05-2.23,2.38-3.02,3.79c-1.93,3.4-3.46,7.85-1.96,11.68C98.28,108.29,99.24,108.03,99.01,107.43L99.01,107.43z"/>
		</g>
	</g>
	<g>
		<g>
			<path d="M113.59,90.51c-0.25,2.3-0.43,4.62-0.53,6.93c-0.05,1.07-0.08,2.15-0.09,3.23c-0.01,1.07-0.11,2.19,0.03,3.25
				c0.09,0.7,0.5,1.26,1.22,1.4c0.8,0.16,1.6-0.25,2.32-0.53c2.14-0.86,4.28-1.72,6.42-2.57c0.59-0.24,0.33-1.2-0.27-0.96
				c-1.83,0.74-3.67,1.47-5.5,2.21c-0.76,0.31-1.59,0.78-2.41,0.89c-1.07,0.14-0.81-1.23-0.82-1.93c-0.01-3.97,0.21-7.94,0.63-11.89
				C114.66,89.87,113.66,89.87,113.59,90.51L113.59,90.51z"/>
		</g>
	</g>
	<g>
		<g>
			<path d="M122.28,88.11c0.1,1.37,0.33,2.73,0.72,4.05c0.19,0.64,0.42,1.27,0.68,1.88c0.24,0.56,0.47,1.16,0.89,1.61
				c0.85,0.92,2.06,0.51,2.78-0.33c0.41-0.48,0.71-1.03,1.02-1.57c0.38-0.65,0.77-1.31,1.15-1.96c0.86-1.46,1.71-2.91,2.57-4.37
				c0.33-0.56-0.54-1.06-0.86-0.5c-0.83,1.41-1.65,2.81-2.48,4.22c-0.41,0.7-0.83,1.41-1.24,2.11c-0.34,0.57-0.64,1.21-1.15,1.66
				c-0.52,0.46-0.98,0.29-1.31-0.28c-0.37-0.63-0.63-1.35-0.86-2.04c-0.5-1.45-0.8-2.95-0.91-4.48
				C123.23,87.47,122.23,87.47,122.28,88.11L122.28,88.11z"/>
		</g>
	</g>
	<g>
		<g>
			<path d="M125.16,95.24c-0.15,4.12,0.27,8.25,1.25,12.25c0.15,0.62,1.12,0.36,0.96-0.27c-0.96-3.92-1.37-7.95-1.22-11.99
				C126.18,94.6,125.18,94.6,125.16,95.24L125.16,95.24z"/>
		</g>
	</g>
	<g>
		<g>
			<path d="M137.07,104.87c-0.65-5.13-0.95-10.29-0.89-15.46c-0.28,0.12-0.57,0.24-0.85,0.35c1.35,1.63,2.02,3.71,2.79,5.65
				c0.85,2.14,1.7,4.29,2.54,6.43c0.2,0.5,0.97,0.47,0.98-0.13c0.06-2.96,0.2-5.92,0.44-8.88c0.12-1.44,0.25-2.87,0.41-4.3
				c0.04-0.4,0.39-4.22,0.76-4.13c0.62,0.17,0.89-0.8,0.27-0.96c-1.38-0.37-1.58,1.48-1.69,2.39c-0.23,1.75-0.43,3.51-0.59,5.28
				c-0.33,3.52-0.52,7.06-0.59,10.6c0.33-0.04,0.65-0.09,0.98-0.13c-0.91-2.3-1.82-4.6-2.73-6.89c-0.78-1.97-1.5-3.98-2.87-5.63
				c-0.29-0.35-0.85-0.05-0.85,0.35c-0.06,5.17,0.24,10.33,0.89,15.46C136.15,105.5,137.15,105.51,137.07,104.87L137.07,104.87z"/>
		</g>
	</g>
	<g>
		<g>
			<path d="M146.88,97.52c0.28-1.26,0.67-2.72,1.69-3.59c1.21-1.04,2.85-0.37,3.69,0.8c0.51,0.72,0.76,1.58,0.92,2.43
				c0.08,0.44,0.14,0.89,0.19,1.33c0.05,0.43,0.12,0.92-0.04,1.34c-0.46,1.17-2.22,1.02-3.18,0.71c-1.76-0.56-3.32-1.72-4.4-3.21
				c-0.37-0.52-1.24-0.02-0.86,0.5c1.18,1.62,2.79,2.87,4.68,3.56c1.41,0.51,3.47,0.64,4.45-0.74c0.6-0.85,0.4-1.94,0.27-2.9
				c-0.14-1.06-0.36-2.12-0.87-3.07c-0.87-1.63-2.82-2.83-4.65-2.05c-1.77,0.75-2.46,2.88-2.84,4.61
				C145.77,97.88,146.74,98.14,146.88,97.52L146.88,97.52z"/>
		</g>
	</g>
	<g>
		<g>
			<path d="M158.89,105.64c-0.75-5.42-0.66-10.95,0.26-16.35c-0.16,0.12-0.32,0.24-0.48,0.37c1.17,0.14,1.57,1.65,1.85,2.59
				c0.31,1.02,0.7,1.98,1.6,2.62c0.29,0.21,0.62-0.03,0.73-0.3c0.8-1.94,1.43-3.94,1.88-5.99c-0.21,0.12-0.41,0.23-0.62,0.35
				c0.91,0.33,1.18,1.42,1.33,2.27c0.23,1.32,0.28,2.67,0.41,4c0.28,2.84,0.56,5.67,0.83,8.51c0.06,0.63,1.06,0.64,1,0
				c-0.32-3.25-0.64-6.49-0.96-9.74c-0.2-2-0.05-5.16-2.36-6c-0.24-0.09-0.56,0.1-0.62,0.35c-0.45,2.05-1.08,4.05-1.88,5.99
				c0.24-0.1,0.49-0.2,0.73-0.3c-1.03-0.74-1.11-2.24-1.58-3.32c-0.45-1.04-1.2-1.88-2.37-2.02c-0.2-0.02-0.45,0.17-0.48,0.37
				c-0.95,5.59-1.04,11.27-0.26,16.88C158.01,106.54,158.98,106.27,158.89,105.64L158.89,105.64z"/>
		</g>
	</g>
	<g>
		<g>
			<path d="M172.14,105.03c-1.1-6.23-0.59-12.68,1.44-18.67c0.21-0.61-0.76-0.87-0.96-0.27c-2.09,6.17-2.57,12.79-1.44,19.2
				C171.29,105.93,172.25,105.66,172.14,105.03L172.14,105.03z"/>
		</g>
	</g>
	<g>
		<g>
			<path d="M178.34,102.19c-0.34-4.34,0.2-8.72,1.65-12.82c0.23-0.66,0.63-1.74,1.42-1.9c0.97-0.2,1.53,1.28,1.84,1.95
				c0.87,1.87,1.33,3.92,1.62,5.96c0.17,1.19,0.28,2.39,0.38,3.6c0.04,0.53,0.1,1.06,0.11,1.59c0.01,0.24,0.03,0.57-0.12,0.78
				c-0.02,0.03-0.38,0.34-0.39,0.16c-0.04-0.64-1.04-0.64-1,0c0.05,0.85,1,1.27,1.74,0.88c1.01-0.53,0.77-1.95,0.7-2.86
				c-0.2-2.7-0.45-5.43-1.22-8.04c-0.37-1.25-0.84-2.55-1.53-3.67c-0.51-0.82-1.35-1.57-2.39-1.3c-0.97,0.25-1.56,1.21-1.92,2.08
				c-0.54,1.3-0.91,2.7-1.21,4.07c-0.7,3.13-0.92,6.35-0.67,9.54C177.39,102.83,178.39,102.83,178.34,102.19L178.34,102.19z"/>
		</g>
	</g>
	<g>
		<g>
			<path d="M179.34,94.46c2.22-0.73,4.44-1.45,6.66-2.18c0.61-0.2,0.35-1.17-0.27-0.96c-2.22,0.73-4.44,1.45-6.66,2.18
				C178.46,93.69,178.72,94.66,179.34,94.46L179.34,94.46z"/>
		</g>
	</g>
	<g>
		<g>
			<path d="M193.55,82.3c-2.34,6.55-3.56,13.48-3.59,20.44c0,0.41,0.42,0.58,0.75,0.43c3.35-1.46,6.56-3.22,9.58-5.28
				c0.53-0.36,0.03-1.23-0.5-0.86c-3.02,2.06-6.23,3.82-9.58,5.28c0.25,0.14,0.5,0.29,0.75,0.43c0.04-6.88,1.24-13.7,3.56-20.18
				C194.74,81.96,193.77,81.69,193.55,82.3L193.55,82.3z"/>
		</g>
	</g>
	<g>
		<g>
			<path d="M210.45,79.99c-1.79,1.99-3.31,4.2-4.48,6.61c-0.88,1.81-2.11,4.56-0.13,6.11c0.91,0.72,2.15,0.92,3.21,1.34
				c1.16,0.46,2.6,1.04,3.44,2.01c1.92,2.19-1.63,4.97-3.21,6.09c-2.35,1.67-5.04,2.79-7.87,3.31c-0.63,0.12-0.36,1.08,0.27,0.96
				c2.5-0.46,4.92-1.39,7.08-2.73c1.97-1.22,4.32-2.9,5.06-5.21c0.87-2.7-1.67-4.17-3.77-5.09c-0.59-0.26-1.19-0.49-1.8-0.69
				c-0.58-0.19-1.21-0.35-1.72-0.71c-1.14-0.82-0.77-2.35-0.34-3.46c1.11-2.87,2.91-5.55,4.96-7.83
				C211.58,80.22,210.88,79.51,210.45,79.99L210.45,79.99z"/>
		</g>
	</g>
</g>
<g>
	<g>
		<g>
			<path d="M239.81,270.3c-0.16,1.38,0.05,2.76,0.61,4.03c0.36,0.81,1.22,2.66,2.39,2.18c0.5-0.2,0.8-0.72,1.06-1.16
				c0.41-0.68,0.79-1.39,1.13-2.1c0.7-1.46,1.28-2.97,1.86-4.48c-0.16-0.02-0.33-0.04-0.49-0.07c-0.02,3.97-0.36,7.94-1.05,11.86
				c-0.17,0.95-0.35,1.9-0.56,2.85c-0.1,0.46-0.26,0.94-0.31,1.4c-0.02,0.22-0.04,0.42,0.13,0.59c0.23,0.23,0.7,0.17,0.71-0.2
				c0.01-0.34-0.4-0.48-0.62-0.26c-0.23,0.23,0.12,0.58,0.35,0.35c0.02-0.02,0.04-0.04,0.05-0.05c-0.08,0.02-0.16,0.04-0.24,0.06
				c0.18,0.05,1.43-7.55,1.52-8.27c0.34-2.77,0.51-5.55,0.52-8.33c0-0.3-0.39-0.32-0.49-0.07c-0.88,2.29-1.73,4.72-3.12,6.76
				c-0.17,0.25-0.41,0.63-0.74,0.69c-0.45,0.08-0.83-0.55-1.03-0.84c-0.33-0.49-0.6-1.02-0.81-1.58c-0.39-1.08-0.51-2.22-0.38-3.36
				C240.35,269.98,239.85,269.98,239.81,270.3L239.81,270.3z"/>
		</g>
	</g>
	<g>
		<g>
			<path d="M250.62,273.95c0.94-0.36,1.88-0.71,2.82-1.07c0.13-0.05,0.21-0.17,0.17-0.31c-0.03-0.12-0.18-0.22-0.31-0.17
				c-0.94,0.36-1.88,0.71-2.82,1.07c-0.13,0.05-0.21,0.17-0.17,0.31C250.34,273.89,250.49,273.99,250.62,273.95L250.62,273.95z"/>
		</g>
	</g>
	<g>
		<g>
			<path d="M250.04,278.72c1.77-0.22,3.47-0.84,4.96-1.82c0.27-0.18,0.02-0.61-0.25-0.43c-1.41,0.94-3.03,1.55-4.71,1.76
				C249.72,278.25,249.72,278.75,250.04,278.72L250.04,278.72z"/>
		</g>
	</g>
	<g>
		<g>
			<path d="M257.85,268.17c3.32,3.37,7.01,6.36,11.01,8.9c0.27,0.17,0.52-0.26,0.25-0.43c-3.96-2.52-7.62-5.47-10.91-8.82
				C257.98,267.58,257.63,267.94,257.85,268.17L257.85,268.17z"/>
		</g>
	</g>
	<g>
		<g>
			<path d="M264.59,265.74c-1,4.36-2,8.72-3,13.08c0.16,0,0.32,0,0.48,0c-0.06-0.26-0.11-0.52-0.17-0.78
				c-0.07-0.31-0.55-0.18-0.48,0.13c0.06,0.26,0.11,0.52,0.17,0.78c0.05,0.24,0.43,0.24,0.48,0c1-4.36,2-8.72,3-13.08
				C265.14,265.56,264.66,265.42,264.59,265.74L264.59,265.74z"/>
		</g>
	</g>
	<g>
		<g>
			<path d="M270.45,261.67c-0.86-0.05-1.71-0.11-2.57-0.16c-0.13-0.01-0.25,0.12-0.25,0.25c0,0.65,0,1.3,0,1.95
				c0,0.57-0.08,1.2,0.06,1.75c0.2,0.8,0.94,0.97,1.66,0.96c0.68-0.01,1.91-0.14,1.81,0.9c-0.05,0.5-0.4,0.88-0.84,1.09
				c-0.25,0.13-0.53,0.2-0.81,0.27c-0.11,0.03-0.23,0.05-0.34,0.07c-0.08,0.01-0.15,0.03-0.23,0.04c-0.11-0.01-0.19,0.04-0.25,0.14
				c0.32,0.01,0.32-0.49,0-0.5c-0.33-0.01-0.51,0.37-0.35,0.64c0.22,0.36,0.74,0.2,1.07,0.13c0.88-0.18,1.83-0.53,2.15-1.46
				c0.25-0.74-0.06-1.52-0.83-1.75c-0.36-0.11-0.76-0.1-1.13-0.09c-0.36,0.01-0.8,0.06-1.12-0.13c-0.54-0.31-0.37-1.28-0.37-1.8
				c0-0.74,0-1.49,0-2.23c-0.08,0.08-0.17,0.17-0.25,0.25c0.86,0.05,1.71,0.11,2.57,0.16C270.77,262.19,270.77,261.69,270.45,261.67
				L270.45,261.67z"/>
		</g>
	</g>
	<g>
		<g>
			<path d="M275.53,269.23c1.01-0.31,1.98-0.77,2.85-1.37c0.26-0.18,0.01-0.61-0.25-0.43c-0.84,0.58-1.76,1.02-2.73,1.32
				C275.09,268.84,275.22,269.32,275.53,269.23L275.53,269.23z"/>
		</g>
	</g>
	<g>
		<g>
			<path d="M278.95,262.62c0.84-0.19,1.77-0.41,2.61-0.13c0.74,0.25,1.38,0.93,1.19,1.77c-0.26,1.13-1.49,1.82-1.96,2.86
				c-0.05,0.12-0.04,0.27,0.09,0.34c0.97,0.53,2.89,0.52,3.2,1.81c0.44,1.82-1.85,2.57-3.16,2.91c0.09,0.12,0.19,0.24,0.28,0.37
				c0.19-0.41,0.39-0.82,0.58-1.22c0.14-0.29-0.29-0.54-0.43-0.25c-0.19,0.41-0.39,0.82-0.58,1.22c-0.09,0.19,0.06,0.43,0.28,0.37
				c1.56-0.41,3.68-1.2,3.56-3.19c-0.12-1.83-2.25-1.78-3.48-2.45c0.03,0.11,0.06,0.23,0.09,0.34c0.56-1.26,2.31-2.18,2.04-3.74
				c-0.13-0.75-0.74-1.31-1.43-1.58c-0.97-0.38-2.04-0.15-3.02,0.07C278.5,262.21,278.63,262.69,278.95,262.62L278.95,262.62z"/>
		</g>
	</g>
	<g>
		<g>
			<path d="M286.85,264.88c1.74,2.1,3.54,4.14,5.41,6.11c0.22,0.23,0.57-0.12,0.35-0.35c-1.87-1.98-3.67-4.02-5.41-6.11
				C287,264.28,286.64,264.64,286.85,264.88L286.85,264.88z"/>
		</g>
	</g>
	<g>
		<g>
			<path d="M289.77,263.42c-0.51,2.68-1.02,5.35-1.53,8.03c-0.06,0.31,0.42,0.45,0.48,0.13c0.51-2.68,1.02-5.35,1.53-8.03
				C290.31,263.24,289.83,263.11,289.77,263.42L289.77,263.42z"/>
		</g>
	</g>
	<g>
		<g>
			<path d="M290.48,257.94c0.82-0.1,1.68,0.38,1.92,1.2c0.23,0.78-0.17,1.64-0.87,2.02c-0.26,0.14-0.08,0.52,0.19,0.46
				c0.47-0.11,1.01,0.22,1.07,0.71c0.03,0.26-0.08,0.52-0.27,0.71c-0.09,0.09-0.21,0.17-0.33,0.22c-0.06,0.02-0.67,0.08-0.54,0.24
				c-0.02-0.06-0.05-0.12-0.07-0.18c0,0.01,0,0.02,0,0.03c0.02-0.06,0.05-0.12,0.07-0.18c-0.01,0.01-0.02,0.02-0.02,0.03
				c-0.21,0.24,0.14,0.6,0.35,0.35c0.42-0.49-0.65-0.8-0.61-0.18c0.04,0.72,1.1,0.37,1.42,0.11c0.48-0.4,0.66-1.09,0.35-1.66
				c-0.3-0.54-0.95-0.82-1.55-0.68c0.06,0.15,0.13,0.3,0.19,0.46c0.9-0.48,1.39-1.6,1.1-2.58c-0.3-1.01-1.36-1.69-2.4-1.57
				C290.17,257.48,290.17,257.98,290.48,257.94L290.48,257.94z"/>
		</g>
	</g>
	<g>
		<g>
			<path d="M297.82,263.43c1.2-0.17,2.38-0.45,3.54-0.82c0.3-0.1,0.17-0.58-0.13-0.48c-1.15,0.38-2.34,0.65-3.54,0.82
				c-0.13,0.02-0.21,0.19-0.17,0.31C297.55,263.4,297.68,263.45,297.82,263.43L297.82,263.43z"/>
		</g>
	</g>
	<g>
		<g>
			<path d="M298.46,259.8c0.36,2.41,0.5,4.85,0.42,7.28c-0.01,0.32,0.49,0.32,0.5,0c0.08-2.48-0.07-4.96-0.43-7.41
				C298.9,259.35,298.42,259.49,298.46,259.8L298.46,259.8z"/>
		</g>
	</g>
	<g>
		<g>
			<path d="M303.77,258.72c1.94,2.57,4.07,4.99,6.38,7.23c0.23,0.22,0.58-0.13,0.35-0.35c-2.28-2.21-4.39-4.6-6.3-7.13
				C304.01,258.22,303.58,258.46,303.77,258.72L303.77,258.72z"/>
		</g>
	</g>
	<g>
		<g>
			<path d="M308.72,257.49c-0.73,2.92-1.78,5.74-3.14,8.42c-0.14,0.29,0.29,0.54,0.43,0.25c1.38-2.72,2.45-5.58,3.19-8.54
				C309.29,257.31,308.8,257.17,308.72,257.49L308.72,257.49z"/>
		</g>
	</g>
	<g>
		<g>
			<path d="M310.6,252.91c0.65-0.16,1.32-0.13,1.96,0.07c0.49,0.16,1.62,0.63,1.36,1.3c-0.13,0.33-0.36,0.63-0.55,0.92
				c-0.21,0.3-0.42,0.6-0.65,0.88c-0.46,0.57-0.97,1.1-1.51,1.58c-0.18,0.16-0.02,0.41,0.18,0.43c1.36,0.12,2.72-0.15,3.93-0.77
				c0.29-0.15,0.03-0.58-0.25-0.43c-1.14,0.58-2.41,0.82-3.68,0.7c0.06,0.14,0.12,0.28,0.18,0.43c0.64-0.57,1.22-1.2,1.74-1.88
				c0.27-0.35,0.53-0.72,0.77-1.1c0.21-0.33,0.45-0.7,0.4-1.11c-0.1-0.72-1.05-1.17-1.65-1.39c-0.75-0.27-1.57-0.3-2.34-0.11
				C310.15,252.5,310.28,252.99,310.6,252.91L310.6,252.91z"/>
		</g>
	</g>
	<g>
		<g>
			<path d="M318.3,258.44c0.89-0.26,1.78-0.53,2.66-0.79c0.22-0.06,0.43-0.13,0.65-0.19c0.18-0.05,0.35-0.1,0.5-0.21
				c0.26-0.21,0.38-0.57,0.06-0.78c-0.27-0.18-0.52,0.25-0.25,0.43c-0.01-0.13-0.03-0.16-0.06-0.1c-0.02,0.02-0.04,0.05-0.07,0.07
				c-0.03,0.02-0.06,0.04-0.1,0.05c-0.16,0.07-0.34,0.1-0.5,0.15c-0.34,0.1-0.67,0.2-1.01,0.3c-0.67,0.2-1.34,0.4-2.02,0.6
				C317.86,258.05,317.99,258.53,318.3,258.44L318.3,258.44z"/>
		</g>
	</g>
	<g>
		<g>
			<path d="M323.04,253.06c1.53-0.36,3.07-0.66,4.62-0.9c0.47-0.07,0.94-0.14,1.42-0.2c0.41-0.05,0.98-0.23,1.21,0.26
				c0.11,0.24-0.14,0.82-0.21,1.05c-0.1,0.35-0.2,0.7-0.3,1.04c-0.44,1.43-0.98,2.82-1.61,4.17c-0.31,0.66-0.64,1.3-0.99,1.93
				c-0.18,0.32-0.36,0.63-0.54,0.94c-0.14,0.23-0.46,0.98-0.72,1.05c0.08,0.02,0.16,0.04,0.24,0.06c0.01,0.05,0.02,0.09,0.03,0.14
				c-0.09,0.04-0.19,0.08-0.28,0.11c0.02,0,0.03,0.01,0.05,0.01c0.31,0.08,0.44-0.4,0.13-0.48c-0.02,0-0.03-0.01-0.05-0.01
				c-0.12-0.03-0.22,0.02-0.28,0.11c-0.11,0.16-0.09,0.33,0.05,0.47c0.06,0.06,0.16,0.09,0.24,0.06c0.32-0.09,0.44-0.34,0.61-0.61
				c0.25-0.39,0.48-0.78,0.71-1.18c0.46-0.8,0.88-1.62,1.27-2.45c0.76-1.63,1.39-3.32,1.87-5.05c0.15-0.54,0.48-1.33,0.15-1.87
				c-0.4-0.62-1.42-0.29-2-0.21c-1.93,0.26-3.85,0.61-5.74,1.06C322.6,252.65,322.73,253.13,323.04,253.06L323.04,253.06z"/>
		</g>
	</g>
</g>
<g>
	<g>
		<g>
			<path d="M95.18,199.84c-0.99,0.71-2.05,1.49-2.55,2.63c-0.48,1.09-0.27,2.28,0.42,3.22c1.79,2.45,5.01,2.08,7.63,1.64
				c-0.06-0.15-0.13-0.3-0.19-0.46c-4.61,2.67-9.38,5.06-14.28,7.17c-0.29,0.13-0.04,0.56,0.25,0.43c4.89-2.11,9.66-4.5,14.28-7.17
				c0.26-0.15,0.07-0.5-0.19-0.46c-2.31,0.38-5.15,0.79-6.88-1.18c-0.77-0.88-1.06-2.07-0.52-3.14c0.49-0.97,1.42-1.65,2.28-2.26
				C95.69,200.09,95.44,199.65,95.18,199.84L95.18,199.84z"/>
		</g>
	</g>
	<g>
		<g>
			<path d="M99.02,213.17c0.59,0.56,1.18,1.13,1.77,1.69c0.1,0.09,0.26,0.1,0.35,0c0.09-0.09,0.1-0.26,0-0.35
				c-0.59-0.56-1.18-1.13-1.77-1.69c-0.1-0.09-0.26-0.1-0.35,0C98.92,212.92,98.92,213.08,99.02,213.17L99.02,213.17z"/>
		</g>
	</g>
	<g>
		<g>
			<path d="M96.05,214.02c1.28,1.39,2.69,2.65,4.2,3.77c0.26,0.19,0.51-0.24,0.25-0.43c-1.48-1.1-2.85-2.34-4.1-3.7
				C96.19,213.43,95.83,213.78,96.05,214.02L96.05,214.02z"/>
		</g>
	</g>
	<g>
		<g>
			<path d="M106.37,216.38c-0.56,3.21-0.75,6.46-0.57,9.72c0.02,0.32,0.52,0.32,0.5,0c-0.18-3.21,0-6.42,0.55-9.58
				C106.9,216.19,106.42,216.06,106.37,216.38L106.37,216.38z"/>
		</g>
	</g>
	<g>
		<g>
			<path d="M111.28,219.47c-3.98,1.58-8.03,2.95-12.15,4.1c-0.31,0.09-0.18,0.57,0.13,0.48c4.12-1.15,8.18-2.52,12.15-4.1
				C111.71,219.84,111.58,219.35,111.28,219.47L111.28,219.47z"/>
		</g>
	</g>
	<g>
		<g>
			<path d="M117.79,217.51c-0.32-0.68-0.63-1.36-0.95-2.04c-0.05-0.1-0.18-0.14-0.28-0.11c-0.98,0.25-1.95,0.76-2.65,1.51
				c-0.33,0.36-0.45,0.76-0.25,1.23c0.2,0.48,0.53,0.89,0.82,1.32c0.45,0.67,1.05,1.9,0.24,2.56c-0.43,0.35-1.04,0.22-1.46-0.06
				c-0.22-0.15-0.41-0.34-0.58-0.54c-0.1-0.12-0.2-0.25-0.29-0.38c-0.08-0.11-0.13-0.3-0.28-0.24c-0.08,0-0.17,0-0.25,0
				c-0.01-0.05-0.03-0.11-0.04-0.16c0.08-0.06,0.16-0.12,0.24-0.18c-0.01,0-0.02,0-0.04,0c-0.31,0.04-0.32,0.54,0,0.5
				c0.01,0,0.02,0,0.04,0c0.11-0.01,0.21-0.07,0.24-0.18c0.07-0.28-0.25-0.58-0.51-0.37c-0.37,0.3,0.11,0.81,0.3,1.06
				c0.56,0.74,1.39,1.45,2.38,1.22c0.86-0.2,1.22-1.09,1.13-1.89c-0.11-1.02-0.86-1.75-1.34-2.61c-0.19-0.35-0.25-0.61,0.03-0.92
				c0.2-0.22,0.45-0.42,0.69-0.6c0.53-0.37,1.11-0.63,1.73-0.79c-0.09-0.04-0.19-0.08-0.28-0.11c0.32,0.68,0.63,1.36,0.95,2.04
				C117.49,218.06,117.92,217.8,117.79,217.51L117.79,217.51z"/>
		</g>
	</g>
	<g>
		<g>
			<path d="M120.51,219.71c-0.61,0.37-1.23,0.74-1.84,1.11c-0.23,0.14-0.51,0.28-0.6,0.55c-0.09,0.26,0.02,0.5,0.18,0.7
				c0.2,0.24,0.47,0.42,0.7,0.62c0.28,0.24,0.57,0.48,0.85,0.72c0.54,0.46,1.09,0.92,1.63,1.38c0.24,0.21,0.6-0.15,0.35-0.35
				c-0.92-0.78-1.85-1.57-2.77-2.35c-0.13-0.11-0.49-0.33-0.48-0.53c0.01-0.19,0.48-0.38,0.62-0.46c0.53-0.32,1.07-0.64,1.6-0.96
				C121.04,219.98,120.79,219.54,120.51,219.71L120.51,219.71z"/>
		</g>
	</g>
	<g>
		<g>
			<path d="M123.15,222.49c-2.64,0.56-5.13,1.69-7.22,3.41c-0.25,0.2,0.11,0.56,0.35,0.35c2.02-1.67,4.44-2.74,7-3.28
				C123.6,222.91,123.47,222.43,123.15,222.49L123.15,222.49z"/>
		</g>
	</g>
	<g>
		<g>
			<path d="M121.14,227.94c0.8-0.56,1.68-1.17,2.67-1.33c0.68-0.11,1.58,0.09,1.59,0.92c0.01,0.67-0.43,1.32-0.88,1.78
				c-0.53,0.55-1.23,0.96-2.01,0.95c-0.84-0.01-1.57-0.54-1.89-1.32c-0.12-0.29-0.61-0.16-0.48,0.13c0.34,0.82,1.02,1.48,1.91,1.64
				c0.95,0.17,1.86-0.19,2.56-0.8c0.63-0.55,1.19-1.34,1.28-2.19c0.09-0.9-0.55-1.53-1.41-1.63c-1.31-0.16-2.57,0.7-3.59,1.41
				C120.63,227.7,120.88,228.13,121.14,227.94L121.14,227.94z"/>
		</g>
	</g>
	<g>
		<g>
			<path d="M117.47,233.88c0.64,0.77,1.4,1.43,2.23,1.97c0.27,0.18,0.52-0.26,0.25-0.43c-0.8-0.52-1.52-1.16-2.13-1.9
				c-0.09-0.1-0.26-0.09-0.35,0C117.37,233.63,117.39,233.77,117.47,233.88L117.47,233.88z"/>
		</g>
	</g>
	<g>
		<g>
			<path d="M123.54,235.86c-0.5,2.48-0.81,4.98-0.94,7.51c-0.02,0.32,0.48,0.32,0.5,0c0.13-2.48,0.44-4.94,0.93-7.37
				C124.09,235.68,123.61,235.55,123.54,235.86L123.54,235.86z"/>
		</g>
	</g>
	<g>
		<g>
			<path d="M127.76,237.98c-1.63,0.58-3.28,1.1-4.95,1.56c-0.82,0.23-1.64,0.44-2.47,0.63c-0.41,0.1-0.83,0.19-1.24,0.28
				c-0.35,0.08-1.02,0.31-1.28-0.06c-0.19-0.26-0.62-0.01-0.43,0.25c0.4,0.56,1.06,0.45,1.65,0.33c0.99-0.21,1.98-0.45,2.95-0.7
				c1.99-0.52,3.96-1.13,5.9-1.82C128.2,238.35,128.07,237.87,127.76,237.98L127.76,237.98z"/>
		</g>
	</g>
	<g>
		<g>
			<path d="M130.15,240.17c1.18-0.59,2.27-1.34,3.23-2.24c0.48-0.45,0.93-0.93,1.34-1.44c0.38-0.47,0.76-0.95,1-1.5
				c0.38-0.86,0.41-2.11-0.73-2.35c-1.07-0.23-2.22,0.51-2.67,1.47c-0.56,1.18-0.1,2.57,0.9,3.35c0.25,0.2,0.5-0.24,0.25-0.43
				c-0.77-0.59-1.12-1.69-0.75-2.6c0.18-0.42,0.5-0.78,0.89-1.02c0.41-0.25,1.07-0.45,1.52-0.18c0.78,0.46,0.1,1.71-0.26,2.23
				c-0.59,0.85-1.3,1.63-2.07,2.32c-0.88,0.78-1.86,1.44-2.92,1.96C129.61,239.88,129.86,240.31,130.15,240.17L130.15,240.17z"/>
		</g>
	</g>
	<g>
		<g>
			<path d="M129.6,245.69c0.93,1.07,1.95,2.06,3.06,2.95c0.1,0.08,0.25,0.1,0.35,0c0.09-0.09,0.11-0.27,0-0.35
				c-1.1-0.89-2.13-1.88-3.06-2.95C129.74,245.09,129.39,245.45,129.6,245.69L129.6,245.69z"/>
		</g>
	</g>
	<g>
		<g>
			<path d="M132.92,245.15c-1.71,1.1-3.32,2.33-4.83,3.69c-0.24,0.22,0.12,0.57,0.35,0.35c1.47-1.33,3.05-2.54,4.73-3.62
				C133.44,245.41,133.19,244.98,132.92,245.15L132.92,245.15z"/>
		</g>
	</g>
	<g>
		<g>
			<path d="M139.46,246.14c-1.88,0.4-3.41,1.86-3.89,3.72c-0.3,1.15-0.21,2.44-0.77,3.51c-0.54,1.03-1.78,1.81-2.79,0.89
				c-0.38-0.34-1.05-1.03-1.02-1.58c0.04-0.62,0.91-0.76,1.38-0.87c1.29-0.28,2.59-0.41,3.91-0.42c1.56-0.02,3.61,0.02,4.59-1.44
				c0.99-1.48-0.13-3.59-1.84-3.79c-0.32-0.04-0.32,0.46,0,0.5c0.94,0.11,1.64,1.01,1.7,1.93c0.07,0.99-0.68,1.69-1.55,1.99
				c-0.92,0.31-1.93,0.29-2.9,0.3c-1.2,0.01-2.4,0.12-3.58,0.34c-0.75,0.14-1.9,0.29-2.16,1.16c-0.26,0.85,0.67,1.88,1.28,2.36
				c0.71,0.56,1.61,0.55,2.35,0.05c0.87-0.58,1.29-1.52,1.49-2.51c0.26-1.3,0.27-2.62,1.04-3.75c0.68-0.99,1.72-1.67,2.89-1.92
				C139.91,246.55,139.77,246.07,139.46,246.14L139.46,246.14z"/>
		</g>
	</g>
</g>
<g>
	<g>
		<g>
			<path d="M236.67,100.56c-0.98,1.3-2.82,5.29-0.06,5.75c1.24,0.2,2.3-0.71,3.24-1.38c1.39-0.98,2.78-1.96,4.16-2.94
				c-0.12-0.09-0.24-0.19-0.37-0.28c-1.76,4.51-5.24,8.01-8.69,11.29c-0.13,0.12-0.07,0.3,0.05,0.39c0.31,0.24,0.74,0.12,0.9-0.23
				c0.13-0.29-0.3-0.55-0.43-0.25c-0.07,0.02-0.15,0.03-0.22,0.05c0.02,0.13,0.03,0.26,0.05,0.39c3.51-3.35,7.02-6.91,8.82-11.51
				c0.08-0.2-0.2-0.4-0.37-0.28c-1.06,0.75-2.11,1.5-3.17,2.24c-0.92,0.65-1.88,1.54-2.95,1.92c-0.52,0.18-1.21,0.2-1.64-0.2
				c-0.44-0.42-0.36-1.08-0.26-1.63c0.19-1.12,0.67-2.15,1.36-3.06C237.29,100.56,236.86,100.31,236.67,100.56L236.67,100.56z"/>
		</g>
	</g>
	<g>
		<g>
			<path d="M244.98,107.02c0.81,0.18,1.6,0.41,2.38,0.7c0.13,0.05,0.27-0.05,0.31-0.17c0.04-0.14-0.05-0.26-0.17-0.31
				c-0.78-0.29-1.57-0.53-2.38-0.7C244.8,106.47,244.67,106.95,244.98,107.02L244.98,107.02z"/>
		</g>
	</g>
	<g>
		<g>
			<path d="M243.79,110.29c1.33,0.34,2.71,0.37,4.05,0.1c0.32-0.06,0.18-0.55-0.13-0.48c-1.25,0.25-2.55,0.22-3.79-0.1
				C243.61,109.73,243.48,110.21,243.79,110.29L243.79,110.29z"/>
		</g>
	</g>
	<g>
		<g>
			<path d="M254.22,104.46c-0.84,1.04-1.63,2.13-2.36,3.25c-0.71,1.1-1.44,2.24-1.9,3.46c-0.38,1.02-0.5,2.21,0.1,3.17
				c0.52,0.84,1.42,1.38,2.42,1.17c0.31-0.07,0.18-0.55-0.13-0.48c-1.04,0.22-1.94-0.71-2.15-1.67c-0.24-1.1,0.26-2.23,0.77-3.18
				c1.02-1.9,2.25-3.7,3.61-5.37C254.77,104.57,254.42,104.21,254.22,104.46L254.22,104.46z"/>
		</g>
	</g>
	<g>
		<g>
			<path d="M255.95,109.51c0.5,2.43,1.52,4.74,2.99,6.75c0.19,0.26,0.62,0.01,0.43-0.25c-1.44-1.98-2.45-4.23-2.94-6.63
				C256.37,109.07,255.89,109.2,255.95,109.51L255.95,109.51z"/>
		</g>
	</g>
	<g>
		<g>
			<path d="M259.75,109.76c-1.86,1.76-3.66,3.58-5.39,5.47c-0.22,0.24,0.14,0.59,0.35,0.35c1.73-1.89,3.53-3.71,5.39-5.47
				C260.34,109.9,259.99,109.54,259.75,109.76L259.75,109.76z"/>
		</g>
	</g>
	<g>
		<g>
			<path d="M261.05,112.56c1.37,0.06,2.74,0.13,4.11,0.19c0.32,0.01,0.32-0.49,0-0.5c-1.37-0.06-2.74-0.13-4.11-0.19
				C260.73,112.05,260.73,112.55,261.05,112.56L261.05,112.56z"/>
		</g>
	</g>
	<g>
		<g>
			<path d="M263.76,109.96c-0.55,1.23-1.09,2.46-1.64,3.69c-0.13,0.3-0.27,0.6-0.4,0.9c-0.1,0.24-0.27,0.5-0.21,0.77
				c0.08,0.4,0.75,0.51,0.83,0.05c0.05-0.31-0.43-0.45-0.48-0.13c0.05-0.03,0.1-0.06,0.15-0.1c0.02-0.07,0.05-0.14,0.08-0.21
				c0.04-0.09,0.08-0.19,0.13-0.28c0.1-0.22,0.2-0.44,0.29-0.66c0.18-0.41,0.36-0.82,0.55-1.23c0.38-0.85,0.76-1.7,1.13-2.56
				C264.32,109.92,263.89,109.67,263.76,109.96L263.76,109.96z"/>
		</g>
	</g>
	<g>
		<g>
			<path d="M266.89,110.95c0.53,0.09,0.89,0.5,1.03,1.01c0.16,0.57-0.03,1.15-0.36,1.62c-0.81,1.14-2.26,1.58-3.35,2.36
				c-0.12,0.09-0.18,0.28-0.05,0.39c1.19,1,3.12,0.88,4.14-0.32c0.21-0.24-0.14-0.6-0.35-0.35c-0.83,0.98-2.43,1.16-3.43,0.32
				c-0.02,0.13-0.03,0.26-0.05,0.39c1.27-0.91,3-1.41,3.75-2.9c0.29-0.58,0.37-1.24,0.13-1.86c-0.22-0.57-0.69-1.06-1.31-1.16
				C266.7,110.42,266.57,110.9,266.89,110.95L266.89,110.95z"/>
		</g>
	</g>
	<g>
		<g>
			<path d="M270.87,110.27c0.74,1.95,0.32,4.03-0.3,5.95c-0.45,1.38-1.18,3.33-2.85,3.52c-0.32,0.04-0.32,0.54,0,0.5
				c1.75-0.2,2.65-1.91,3.17-3.41c0.75-2.13,1.29-4.51,0.47-6.7C271.24,109.84,270.76,109.97,270.87,110.27L270.87,110.27z"/>
		</g>
	</g>
	<g>
		<g>
			<path d="M276.42,111.62c-1.58,1.57-3.04,3.44-3.96,5.48c-0.39,0.86-0.65,1.86-0.3,2.78c0.29,0.78,0.91,1.35,1.74,1.46
				c0.32,0.04,0.32-0.46,0-0.5c-0.86-0.11-1.37-0.99-1.4-1.79c-0.04-0.98,0.46-1.9,0.93-2.72c0.92-1.6,2.05-3.06,3.35-4.35
				C277,111.75,276.64,111.4,276.42,111.62L276.42,111.62z"/>
		</g>
	</g>
	<g>
		<g>
			<path d="M279.86,114.31c-1.68,2.98,0.28,6.18,2.23,8.45c0.21,0.24,0.56-0.11,0.35-0.35c-1.79-2.09-3.7-5.08-2.15-7.85
				C280.45,114.28,280.02,114.03,279.86,114.31L279.86,114.31z"/>
		</g>
	</g>
	<g>
		<g>
			<path d="M282.61,115.88c-1.85,1.49-3.57,3.13-5.14,4.92c-0.21,0.24,0.14,0.6,0.35,0.35c1.56-1.79,3.28-3.44,5.14-4.92
				C283.22,116.03,282.86,115.68,282.61,115.88L282.61,115.88z"/>
		</g>
	</g>
	<g>
		<g>
			<path d="M283.88,119.54c1.29,0.58,2.69,0.83,4.1,0.72c0.32-0.03,0.32-0.53,0-0.5c-1.31,0.11-2.64-0.11-3.85-0.65
				C283.84,118.98,283.58,119.41,283.88,119.54L283.88,119.54z"/>
		</g>
	</g>
	<g>
		<g>
			<path d="M294.31,121.21c-0.69-0.46-1.38-0.93-2.08-1.39c-0.41-0.28-1.11-0.95-1.49-0.29c-0.17,0.3-0.27,0.66-0.39,0.97
				c-0.16,0.41-0.32,0.82-0.48,1.23c-0.32,0.82-0.64,1.64-0.96,2.45c-0.05,0.14,0.09,0.34,0.24,0.32c0.79-0.1,1.55-0.47,2.35-0.5
				c0.79-0.03,1.54,0.37,1.53,1.24c-0.01,0.79-0.61,1.37-1.31,1.63c-0.35,0.13-0.73,0.21-1.1,0.22c-0.2,0.01-0.43,0-0.61-0.11
				c-0.19-0.11-0.35-0.39-0.18-0.59c0.21-0.24-0.14-0.6-0.35-0.35c-0.28,0.32-0.28,0.76-0.02,1.11c0.31,0.41,0.87,0.47,1.34,0.43
				c0.99-0.08,2.09-0.51,2.54-1.47c0.4-0.85,0.19-1.95-0.7-2.4c-1.14-0.57-2.33,0.14-3.48,0.29c0.08,0.11,0.16,0.21,0.24,0.32
				c0.51-1.3,1.02-2.6,1.53-3.9c0.06-0.14,0.11-0.29,0.17-0.43c0.11-0.27,0.19-0.21,0.39-0.08c0.27,0.18,0.55,0.37,0.82,0.55
				c0.59,0.39,1.17,0.79,1.76,1.18C294.32,121.82,294.57,121.39,294.31,121.21L294.31,121.21z"/>
		</g>
	</g>
	<g>
		<g>
			<path d="M298.29,119.63c-0.1,2.1-0.2,4.23-0.81,6.25c-0.54,1.8-1.72,4.28-4.03,3.73c-0.31-0.07-0.45,0.41-0.13,0.48
				c2.24,0.54,3.65-1.37,4.36-3.22c0.88-2.3,0.99-4.81,1.11-7.24C298.81,119.31,298.31,119.31,298.29,119.63L298.29,119.63z"/>
		</g>
	</g>
	<g>
		<g>
			<path d="M303.02,115.87c-0.47,0.7-0.94,1.39-1.41,2.09c-0.34,0.5-1.02,1.25-0.29,1.74c0.27,0.18,0.62,0.27,0.92,0.38
				c0.39,0.13,0.78,0.25,1.18,0.35c0.76,0.19,1.53,0.32,2.31,0.4c0.08,0.01,0.18-0.05,0.22-0.12c0.07-0.17,0.15-0.34,0.22-0.52
				c0.13-0.29-0.3-0.55-0.43-0.25c-0.07,0.17-0.15,0.34-0.22,0.52c0.07-0.04,0.14-0.08,0.22-0.12c-1.33-0.13-2.7-0.42-3.94-0.94
				c-0.09-0.04-0.23-0.09-0.28-0.17c-0.08-0.13,0.05-0.27,0.11-0.38c0.2-0.31,0.42-0.62,0.63-0.93c0.4-0.59,0.8-1.19,1.2-1.78
				C303.63,115.85,303.2,115.6,303.02,115.87L303.02,115.87z"/>
		</g>
	</g>
	<g>
		<g>
			<path d="M304.87,117.42c-1.22,2.12-2.44,4.24-3.66,6.35c-0.16,0.28,0.27,0.53,0.43,0.25c1.22-2.12,2.44-4.24,3.66-6.35
				C305.47,117.39,305.03,117.14,304.87,117.42L304.87,117.42z"/>
		</g>
	</g>
	<g>
		<g>
			<path d="M307.65,120.9c-1.74,1.75-3.2,3.78-4.28,6c-0.25,0.51-0.48,1.04-0.69,1.57c-0.21,0.52-0.49,1.1-0.5,1.67
				c-0.02,0.75,0.82,1.52,1.48,0.88c0.23-0.22-0.12-0.58-0.35-0.35c-0.24,0.23-0.55-0.07-0.61-0.3c-0.07-0.27,0.04-0.59,0.12-0.85
				c0.14-0.43,0.31-0.86,0.48-1.28c0.37-0.88,0.79-1.73,1.27-2.55c0.95-1.62,2.1-3.11,3.42-4.45
				C308.23,121.02,307.88,120.67,307.65,120.9L307.65,120.9z"/>
		</g>
	</g>
	<g>
		<g>
			<path d="M307.48,125.97c0.19,2.15,0.41,4.3,0.66,6.44c0.02,0.13,0.1,0.25,0.25,0.25c0.38-0.01,0.61-0.41,0.42-0.74
				c-0.16-0.28-0.6-0.03-0.43,0.25c0,0,0.01-0.01,0.01-0.01c0.08,0.08,0.17,0.17,0.25,0.25c-0.25-2.15-0.47-4.29-0.66-6.44
				C307.95,125.66,307.45,125.65,307.48,125.97L307.48,125.97z"/>
		</g>
	</g>
	<g>
		<g>
			<path d="M310.45,126.43c-1.26,1.18-2.53,2.35-3.79,3.53c-0.31,0.28-0.61,0.57-0.92,0.85c-0.16,0.15-0.32,0.3-0.48,0.45
				c-0.12,0.11-0.26,0.22-0.32,0.38c-0.1,0.25,0.08,0.54,0.37,0.48c0.26-0.06,0.33-0.33,0.17-0.52c-0.2-0.25-0.55,0.11-0.35,0.35
				c0.01,0.01,0.02,0.02,0.02,0.03c-0.02-0.08-0.04-0.16-0.06-0.24c0.04-0.04,0.07-0.08,0.11-0.11c0.06,0.02,0.12,0.05,0.18,0.07
				c0.09,0.09,0.08,0.04,0.16-0.01c0.06-0.04,0.11-0.1,0.16-0.15c0.12-0.11,0.24-0.22,0.36-0.33c0.23-0.21,0.45-0.42,0.68-0.63
				c0.45-0.42,0.9-0.84,1.36-1.26c0.9-0.84,1.81-1.68,2.71-2.53C311.04,126.56,310.69,126.21,310.45,126.43L310.45,126.43z"/>
		</g>
	</g>
	<g>
		<g>
			<path d="M310.6,129.46c0.62,0.38,1.38,0.49,2.08,0.29c0.31-0.08,0.18-0.57-0.13-0.48c-0.57,0.16-1.18,0.07-1.69-0.24
				C310.58,128.86,310.33,129.29,310.6,129.46L310.6,129.46z"/>
		</g>
	</g>
	<g>
		<g>
			<path d="M315.15,127.6c0.65-0.08,1.38-0.03,1.98,0.26c0.73,0.36-0.17,1.2-0.47,1.55c-0.45,0.51-0.91,1.02-1.38,1.51
				c-0.24,0.25-0.48,0.5-0.73,0.75c-0.12,0.12-0.23,0.24-0.35,0.35c-0.07,0.07-0.14,0.14-0.21,0.21c-0.02,0.02-0.05,0.05-0.07,0.07
				c-0.14,0.07-0.14,0.19-0.01,0.36c-0.06-0.01-0.13-0.02-0.19-0.03c0.01,0,0.01,0.01,0.02,0.01c-0.04-0.05-0.08-0.1-0.11-0.15
				c0,0.01,0.01,0.02,0.01,0.03c0.08,0.31,0.57,0.18,0.48-0.13c-0.07-0.25-0.36-0.29-0.53-0.11c-0.19,0.2-0.1,0.51,0.18,0.57
				c0.35,0.08,0.66-0.34,0.87-0.55c0.31-0.3,0.61-0.61,0.91-0.92c0.6-0.62,1.18-1.26,1.74-1.92c0.41-0.48,0.98-1.26,0.39-1.83
				c-0.28-0.28-0.76-0.39-1.13-0.47c-0.46-0.09-0.92-0.11-1.38-0.06C314.83,127.13,314.83,127.63,315.15,127.6L315.15,127.6z"/>
		</g>
	</g>
	<g>
		<g>
			<path d="M319.05,127.06c0.06,1.91,0.06,3.92-0.71,5.7c-0.3,0.7-0.73,1.36-1.26,1.91c-0.28,0.29-0.59,0.54-0.93,0.75
				c-0.18,0.11-0.37,0.21-0.56,0.29c-0.09,0.04-0.18,0.08-0.28,0.11c-0.04,0.02-0.08,0.03-0.13,0.04c-0.09,0.01-0.11,0.06-0.08,0.16
				c-0.07,0.04-0.14,0.08-0.22,0.12c0.02,0,0.04,0,0.07-0.01c0.32-0.03,0.32-0.53,0-0.5c-0.28,0.03-0.49,0.33-0.3,0.59
				c0.25,0.35,0.8,0.08,1.1-0.05c0.95-0.4,1.73-1.11,2.32-1.94c1.48-2.08,1.55-4.74,1.48-7.19
				C319.54,126.74,319.04,126.74,319.05,127.06L319.05,127.06z"/>
		</g>
	</g>
	<g>
		<g>
			<path d="M322.88,122.82c0.48,0.09,0.54,0.72,0.34,1.09c-0.3,0.54-1.05,0.71-1.61,0.85c-0.26,0.06-0.21,0.4,0,0.48
				c0.75,0.29,1.02,1.3,0.46,1.9c-0.24,0.26-0.66,0.48-1.02,0.4c-0.22-0.05-0.66-0.4-0.4-0.62c0.25-0.21-0.11-0.56-0.35-0.35
				c-0.46,0.39-0.14,1.02,0.27,1.3c0.51,0.34,1.19,0.17,1.64-0.18c1.07-0.82,0.75-2.45-0.47-2.93c0,0.16,0,0.32,0,0.48
				c0.76-0.19,1.72-0.47,2-1.3c0.21-0.61-0.03-1.47-0.74-1.6C322.69,122.28,322.56,122.76,322.88,122.82L322.88,122.82z"/>
		</g>
	</g>
	<g>
		<g>
			<path d="M325.44,124c-0.74,0.76-1.31,1.67-1.69,2.66c-0.18,0.47-0.33,1.01-0.16,1.51c0.13,0.38,0.44,0.65,0.81,0.78
				c0.89,0.32,1.74-0.2,2.26-0.9c0.3-0.41,0.53-0.87,0.72-1.33c0.21-0.51,0.37-1.06,0.33-1.62c-0.08-0.98-1.01-1.99-2.06-1.64
				c-0.3,0.1-0.17,0.59,0.13,0.48c0.73-0.24,1.36,0.48,1.42,1.16c0.08,0.85-0.37,1.75-0.81,2.45c-0.37,0.58-0.95,1.13-1.69,0.98
				c-0.3-0.06-0.57-0.25-0.66-0.56c-0.12-0.41,0.06-0.86,0.21-1.24c0.34-0.88,0.87-1.69,1.53-2.37
				C326.02,124.12,325.67,123.77,325.44,124L325.44,124z"/>
		</g>
	</g>
</g>
<g>
	<g>
		<g>
			<path d="M269.54,228.12c0.96,0.68,2.02,1.22,3.15,1.55c0.92,0.27,1.86,0.24,2.39-0.68c0.56-0.98,0.19-2.15-0.07-3.17
				c-0.35-1.39-0.7-2.78-1.05-4.18c-0.15,0.06-0.3,0.13-0.46,0.19c2.75,5.25,5.22,10.65,7.39,16.16c0.12,0.3,0.6,0.17,0.48-0.13
				c-2.18-5.56-4.67-10.99-7.44-16.28c-0.13-0.26-0.52-0.08-0.46,0.19c0.25,1.01,0.51,2.01,0.76,3.02c0.26,1.02,0.76,2.24,0.62,3.29
				c-0.34,2.57-3.93,0.4-5.06-0.4C269.53,227.5,269.28,227.94,269.54,228.12L269.54,228.12z"/>
		</g>
	</g>
	<g>
		<g>
			<path d="M279.09,226.7c0.54-0.88,1.26-1.65,2.12-2.24c0.11-0.08,0.16-0.22,0.09-0.34c-0.06-0.11-0.23-0.17-0.34-0.09
				c-0.93,0.64-1.71,1.46-2.3,2.42C278.49,226.72,278.92,226.97,279.09,226.7L279.09,226.7z"/>
		</g>
	</g>
	<g>
		<g>
			<path d="M280.16,228.63c0.93-1.41,1.87-2.82,2.8-4.23c0.18-0.27-0.25-0.52-0.43-0.25c-0.93,1.41-1.87,2.82-2.8,4.23
				C279.55,228.64,279.98,228.89,280.16,228.63L280.16,228.63z"/>
		</g>
	</g>
	<g>
		<g>
			<path d="M281.27,214.55c0.5,3.01,1.83,5.85,3.81,8.17c0.86,1.01,1.99,2.28,3.41,2.39c1.14,0.09,2.38-0.94,2.02-2.15
				c-0.09-0.31-0.58-0.18-0.48,0.13c0.21,0.69-0.37,1.3-1.01,1.48c-0.65,0.18-1.34-0.16-1.86-0.52c-1.03-0.73-1.9-1.81-2.62-2.83
				c-1.43-2.02-2.38-4.35-2.79-6.79C281.7,214.1,281.22,214.24,281.27,214.55L281.27,214.55z"/>
		</g>
	</g>
	<g>
		<g>
			<path d="M285.38,216.47c1.81,0.48,3.65,0.83,5.52,1.04c0.45,0.05,0.91,0.09,1.36,0.13c0.34,0.03,0.83,0.15,1.16,0
				c0.48-0.21,0.17-0.93-0.28-0.68c-0.28,0.15-0.03,0.58,0.25,0.43c-0.06-0.16-0.16-0.22-0.29-0.2c-0.08,0-0.15-0.01-0.23-0.01
				c-0.18-0.01-0.35-0.02-0.53-0.03c-0.3-0.02-0.61-0.05-0.91-0.08c-0.68-0.07-1.37-0.15-2.05-0.26c-1.3-0.2-2.59-0.48-3.87-0.82
				C285.2,215.9,285.07,216.39,285.38,216.47L285.38,216.47z"/>
		</g>
	</g>
	<g>
		<g>
			<path d="M288.04,212.34c1.11,3.08,1.84,6.29,2.14,9.55c0.03,0.32,0.53,0.32,0.5,0c-0.3-3.31-1.02-6.56-2.15-9.68
				C288.41,211.9,287.93,212.03,288.04,212.34L288.04,212.34z"/>
		</g>
	</g>
	<g>
		<g>
			<path d="M291.48,212.91c0.96-0.96,1.93-1.92,2.89-2.88c0.23-0.23-0.13-0.58-0.35-0.35c-0.96,0.96-1.93,1.92-2.89,2.88
				C290.9,212.78,291.25,213.14,291.48,212.91L291.48,212.91z"/>
		</g>
	</g>
	<g>
		<g>
			<path d="M290.84,209.51c1.18,1.4,2.37,2.79,3.55,4.19c0.21,0.25,0.56-0.11,0.35-0.35c-1.18-1.4-2.37-2.79-3.55-4.19
				C290.98,208.91,290.63,209.27,290.84,209.51L290.84,209.51z"/>
		</g>
	</g>
	<g>
		<g>
			<path d="M296.02,205c-0.9,0.26-1.79,0.53-2.69,0.79c-0.22,0.07-0.22,0.33-0.06,0.46c0.63,0.48,0.9,1.31,1.58,1.74
				c0.82,0.53,1.62,0,2.41-0.28c0.44-0.16,0.89-0.19,1.25,0.16c0.31,0.29,0.47,0.74,0.47,1.16c0,0.54-0.26,1.06-0.54,1.51
				c-0.14,0.23-0.3,0.45-0.47,0.66c-0.17,0.22-0.36,0.54-0.67,0.55c-0.32,0.01-0.32,0.51,0,0.5c0.43-0.02,0.71-0.29,0.96-0.61
				c0.29-0.38,0.59-0.77,0.81-1.2c0.39-0.73,0.56-1.57,0.2-2.35c-0.31-0.67-0.95-1.09-1.69-0.98c-0.76,0.11-1.6,0.9-2.37,0.51
				c-0.37-0.19-0.61-0.57-0.85-0.89c-0.25-0.34-0.5-0.66-0.83-0.91c-0.02,0.15-0.04,0.3-0.06,0.46c0.9-0.26,1.79-0.53,2.69-0.79
				C296.46,205.39,296.33,204.91,296.02,205L296.02,205z"/>
		</g>
	</g>
	<g>
		<g>
			<path d="M295.05,202.53c1.95,1.07,3.66,2.5,5.27,4.02c0.76,0.72,1.57,1.44,2.07,2.37c0.24,0.45,0.39,0.94,0.39,1.45
				c0,0.25-0.03,0.5-0.1,0.74c-0.03,0.11-0.36,0.94-0.55,0.4c-0.11-0.3-0.59-0.17-0.48,0.13c0.11,0.33,0.54,0.78,0.94,0.56
				c0.4-0.22,0.6-0.96,0.66-1.37c0.18-1.23-0.42-2.35-1.2-3.26c-0.94-1.08-2.05-2.06-3.15-2.98c-1.12-0.94-2.31-1.8-3.59-2.51
				C295.02,201.95,294.77,202.38,295.05,202.53L295.05,202.53z"/>
		</g>
	</g>
	<g>
		<g>
			<path d="M297.81,198.91c1.13,2.7,2.59,5.24,4.37,7.56c0.43,0.56,0.88,1.11,1.35,1.64c0.4,0.46,0.83,0.93,1.4,1.17
				c0.83,0.34,2.04-0.11,1.97-1.14c-0.02-0.32-0.52-0.32-0.5,0c0.04,0.67-0.73,0.88-1.25,0.69c-0.53-0.19-0.92-0.66-1.28-1.07
				c-0.79-0.9-1.54-1.85-2.22-2.84c-1.34-1.92-2.47-3.98-3.37-6.14C298.17,198.49,297.69,198.62,297.81,198.91L297.81,198.91z"/>
		</g>
	</g>
	<g>
		<g>
			<path d="M301.93,202.37c1.61,0.48,3.21,0.96,4.82,1.45c0.38,0.11,0.76,0.23,1.14,0.34c0.26,0.08,0.59,0.24,0.87,0.12
				c0.48-0.21,0.12-0.97-0.31-0.69c-0.27,0.18-0.02,0.61,0.25,0.43c0.02-0.01,0.03-0.02,0.05-0.03c-0.06,0.01-0.13,0.02-0.19,0.03
				c0.01-0.14-0.04-0.22-0.15-0.23c-0.06-0.02-0.13-0.04-0.19-0.06c-0.15-0.04-0.3-0.09-0.44-0.13c-0.25-0.08-0.51-0.15-0.76-0.23
				c-0.55-0.16-1.1-0.33-1.65-0.49c-1.1-0.33-2.2-0.66-3.3-0.99C301.75,201.79,301.62,202.27,301.93,202.37L301.93,202.37z"/>
		</g>
	</g>
	<g>
		<g>
			<path d="M303.72,199.54c0.84,2.12,1.38,4.35,1.59,6.62c0.03,0.32,0.53,0.32,0.5,0c-0.21-2.32-0.74-4.59-1.6-6.75
				C304.09,199.11,303.61,199.24,303.72,199.54L303.72,199.54z"/>
		</g>
	</g>
	<g>
		<g>
			<path d="M306.72,200.75c0.63-0.72,1.11-1.54,1.44-2.44c0.05-0.13-0.05-0.27-0.17-0.31c-0.14-0.04-0.26,0.05-0.31,0.17
				c-0.3,0.81-0.74,1.56-1.31,2.21c-0.09,0.1-0.1,0.25,0,0.35C306.46,200.84,306.63,200.86,306.72,200.75L306.72,200.75z"/>
		</g>
	</g>
	<g>
		<g>
			<path d="M307.41,194.93c1.43,1.56,2.87,3.12,4.3,4.68c0.22,0.24,0.57-0.12,0.35-0.35c-1.43-1.56-2.87-3.12-4.3-4.68
				C307.55,194.34,307.2,194.69,307.41,194.93L307.41,194.93z"/>
		</g>
	</g>
	<g>
		<g>
			<path d="M305.8,191.28c2.05,1.31,4.17,2.65,5.72,4.56c1.53,1.89,2.43,4.44,1.7,6.84c-0.09,0.31,0.39,0.44,0.48,0.13
				c0.73-2.42-0.07-5.01-1.56-6.98c-1.6-2.13-3.88-3.58-6.1-4.99C305.78,190.67,305.53,191.11,305.8,191.28L305.8,191.28z"/>
		</g>
	</g>
</g>
<g>
	<g>
		<path d="M142.26,116.59c1.75-1.21,3.89-1.76,5.95-2.18c2.92-0.6,5.92-0.85,8.89-0.99c7.18-0.35,14.4-0.04,21.56,0.45
			c9.71,0.67,19.42,1.68,29.05,3.1c9.24,1.35,18.49,2.58,27.74,3.84c5.63,0.77,11.25,1.6,16.76,3.02
			c9.67,2.49,18.95,6.36,28.03,10.47c5.57,2.53,11.25,4.97,16.6,7.93c5.35,2.96,9.87,6.8,13.45,11.77
			c6.47,8.97,10.88,20,12.38,30.95c1.53,11.15-0.46,22.63-8.03,31.3c-3.78,4.32-8.42,7.8-13.06,11.13
			c-4.91,3.52-9.99,6.82-15.2,9.89c-10.28,6.05-21.09,11.2-32.29,15.3c-11.03,4.04-22.48,7.2-34.1,8.97
			c-11.36,1.74-23.12,2.06-34.41-0.34c-11.09-2.36-21.16-7.52-29.63-15.05c-8.34-7.41-15.06-16.44-21.33-25.62
			c-3.11-4.56-6.12-9.2-9.17-13.8c-3.24-4.88-6.5-9.76-9.25-14.94c-2.72-5.12-4.96-10.58-5.82-16.34
			c-0.89-5.94-0.04-11.86,2.25-17.39c2.12-5.12,5.17-9.81,8.22-14.43c1.26-1.91,2.53-3.8,3.79-5.7c2.67-4.01,5.22-8.13,8.07-12.02
			C135.36,122.31,138.63,119.17,142.26,116.59c0.52-0.37,0.02-1.24-0.5-0.86c-3.71,2.63-7.02,5.79-9.73,9.44
			c-2.93,3.94-5.52,8.16-8.24,12.25c-1.65,2.48-3.33,4.96-4.94,7.47c-2.79,4.34-5.54,8.75-7.44,13.58
			c-2.1,5.35-2.84,11.03-2.06,16.73c1.62,11.8,8.63,22.05,15.06,31.75c12.11,18.26,24.23,38.88,44.35,49.34
			c21.06,10.95,46.09,8.51,68.27,2.69c23.45-6.16,45.69-16.8,65.36-30.95c4.7-3.38,9.4-6.92,13.19-11.33
			c3.57-4.16,6.1-9.03,7.41-14.36c2.6-10.61,0.7-21.99-3.07-32.08c-4.01-10.72-10.14-21.23-20.06-27.41
			c-5.33-3.33-11.22-5.78-16.92-8.4c-6-2.76-12.06-5.42-18.26-7.7c-6.19-2.28-12.52-4.17-19.01-5.36
			c-7.12-1.3-14.34-2.11-21.51-3.08c-11.59-1.57-23.12-3.38-34.76-4.52c-7.44-0.73-14.91-1.29-22.39-1.45
			c-6.47-0.14-13.17-0.16-19.53,1.22c-1.98,0.43-4.04,1.02-5.73,2.19C141.23,116.09,141.73,116.96,142.26,116.59z"/>
	</g>
</g>
<g>
	<g>
		<path d="M72.85,82.04c10.33-10.93,25.97-11.03,39.93-10.92c18.06,0.14,36.13,0.39,54.18,0.96c14.5,0.46,29,1.11,43.47,2.21
			c12.08,0.92,24.14,2.14,36.13,3.87c10.81,1.55,21.56,3.52,32.22,5.9c15.21,3.39,30.55,7.49,44.32,14.96
			c12.82,6.95,24.6,17.32,29.62,31.36c2.29,6.4,3.38,13.18,4.21,19.9c1.06,8.6,1.79,17.25,2.62,25.88
			c0.83,8.55,1.49,17.13,1.15,25.73c-0.39,9.62-2.12,19.11-5.06,28.27c-4.74,14.75-12.41,28.28-20.45,41.45
			c-2.95,4.83-6.15,9.42-10.53,13.07c-3.76,3.13-8.13,5.46-12.73,7.08c-11.64,4.1-24.45,4.33-36.65,4.21
			c-14.21-0.13-28.45-0.89-42.62-1.89c-15.98-1.13-31.89-3.06-47.72-5.54c-14.95-2.34-30.04-4.61-44.63-8.72
			c-13.46-3.79-26.44-9.47-38.13-17.17c-14.34-9.43-26.41-21.95-34.31-37.26c-8.15-15.79-11.46-33.34-11.97-50.98
			c-0.39-13.73,0.21-27.5,2.52-41.05c1.47-8.65,3.16-17.28,4.99-25.85c1.3-6.1,2.66-12.32,4.99-18.12
			C69.47,86.67,70.87,84.17,72.85,82.04c0.44-0.47-0.27-1.18-0.71-0.71c-2.02,2.18-3.46,4.7-4.59,7.44
			c-2.42,5.89-3.8,12.24-5.12,18.45c-1.86,8.71-3.58,17.48-5.06,26.26c-1.08,6.42-1.9,12.88-2.2,19.39
			c-0.72,15.69-0.71,31.57,2.6,46.99c3.76,17.58,11.87,34.11,24.22,47.24c11.38,12.1,25.68,21.23,40.93,27.67
			c11.65,4.92,23.87,8.01,36.26,10.38c17.77,3.41,35.73,6.15,53.72,8.11c12.88,1.41,25.78,2.21,38.72,2.86
			c15.09,0.76,30.46,1.68,45.52-0.14c10.21-1.23,20.44-4.06,28.43-10.81c4.35-3.67,7.53-8.27,10.47-13.09
			c3.7-6.05,7.32-12.19,10.63-18.47c8.43-16.02,14.23-33.31,15.01-51.5c0.38-8.85-0.33-17.69-1.18-26.49
			c-0.85-8.75-1.57-17.52-2.68-26.25c-0.85-6.7-1.97-13.44-4.32-19.79c-2.29-6.21-5.85-11.69-10.31-16.55
			c-10.84-11.81-25.74-18.89-40.77-23.77c-12.72-4.12-25.88-6.97-39.02-9.38c-11.28-2.08-22.65-3.67-34.06-4.9
			c-13.34-1.43-26.73-2.37-40.13-3.04c-16.57-0.83-33.15-1.26-49.74-1.54c-9.89-0.16-19.79-0.27-29.68-0.34
			c-6.42-0.05-12.85,0.08-19.15,1.43c-6.97,1.5-13.56,4.57-18.5,9.8C71.7,81.8,72.41,82.5,72.85,82.04z"/>
	</g>
</g>
<g>
	<g>
		<g>
			<path d="M37.12,67.5c-0.55-7.11-1.11-14.22-1.66-21.33c-0.37-4.76-1.26-12.5,4.76-14.17c2.5-0.69,5.32,0.11,6.82,2.29
				c1.47,2.13,1.57,5.02,0.13,7.19c-0.84,1.27-2.08,2.22-3.36,3.01c-1.34,0.83-2.77,1.55-4.24,2.14c-0.73,0.29-1.48,0.55-2.23,0.79
				c-0.62,0.19-1.25,0.36-1.81,0.69c-0.93,0.54-1.51,1.55-1.02,2.6c0.28,0.62,0.83,1.06,1.36,1.46c0.79,0.58,1.6,1.12,2.39,1.68
				c1.64,1.15,3.27,2.29,4.91,3.44c3.34,2.34,6.68,4.68,10.03,7.02c0.5,0.35,0.93-0.38,0.61-0.79c-0.39-0.48-0.77-0.97-1.16-1.45
				c-0.4-0.5-1.1,0.21-0.71,0.71c0.39,0.48,0.77,0.97,1.16,1.45c0.2-0.26,0.4-0.52,0.61-0.79c-3.07-2.15-6.14-4.3-9.21-6.45
				c-1.5-1.05-3-2.1-4.5-3.15c-0.75-0.53-1.5-1.05-2.25-1.58c-0.68-0.47-1.46-0.91-2.02-1.53c-1.3-1.44,0.97-2.07,1.99-2.39
				c1.55-0.48,3.05-1.09,4.5-1.82c2.57-1.3,5.36-3.02,6.49-5.82c0.92-2.29,0.54-5.07-0.9-7.07c-1.53-2.12-4.12-3.14-6.69-2.84
				c-2.58,0.31-4.73,1.91-5.83,4.26c-1.16,2.5-1.2,5.36-1.05,8.07c0.23,3.99,0.61,7.98,0.92,11.97c0.32,4.13,0.64,8.27,0.96,12.4
				C36.16,68.14,37.17,68.15,37.12,67.5L37.12,67.5z"/>
		</g>
	</g>
	<g>
		<g>
			<path d="M55.89,65.54c0.34-9.92,2.57-19.74,6.58-28.82c-0.29,0-0.58,0-0.86,0c4.45,5.93,6.33,13.21,7.56,20.4
				c0.35,2.06,0.65,4.12,0.95,6.18c0.08,0.55,1.03,0.43,0.98-0.13c-0.07-0.89-0.14-1.78-0.22-2.67c-0.05-0.64-1.05-0.64-1,0
				c0.07,0.89,0.14,1.78,0.22,2.67c0.33-0.04,0.65-0.09,0.98-0.13c-1.04-7.3-2.15-14.76-5.37-21.48c-0.9-1.88-1.98-3.67-3.23-5.34
				c-0.2-0.26-0.69-0.38-0.86,0c-3.16,7.17-5.26,14.76-6.2,22.54c-0.27,2.25-0.44,4.52-0.52,6.79
				C54.87,66.19,55.87,66.19,55.89,65.54L55.89,65.54z"/>
		</g>
	</g>
	<g>
		<g>
			<path d="M57.33,52.18c3.39-0.35,6.77-0.71,10.16-1.06c0.63-0.07,0.64-1.07,0-1c-3.39,0.35-6.77,0.71-10.16,1.06
				C56.7,51.25,56.69,52.25,57.33,52.18L57.33,52.18z"/>
		</g>
	</g>
	<g>
		<g>
			<path d="M72.22,45.92c4.02-1.33,8.03-2.71,12.01-4.15c1-0.36,1.99-0.72,2.99-1.09c0.46-0.17,0.92-0.34,1.38-0.51
				c0.47-0.17,1.11-0.55,1.61-0.49c0.49,0.06,1.39,0.36,1.44-0.46c0.02-0.37-0.35-0.87-0.75-0.84c-0.29,0.02-0.47,0.21-0.5,0.5
				c-0.01,0.09,0.01,0.17,0.05,0.25c0.24,0.59,1.21,0.33,0.96-0.27c0,0.01-0.01,0.01-0.01,0.02c-0.17,0.17-0.33,0.33-0.5,0.5
				c-0.25,0-0.3-0.11-0.15-0.32c0.15-0.2,0.11-0.29-0.1-0.29c-0.1-0.07-0.3-0.09-0.41-0.11c-0.36-0.05-0.65,0.07-0.99,0.2
				c-0.8,0.3-1.6,0.6-2.41,0.89c-1.64,0.61-3.29,1.2-4.94,1.79c-3.3,1.17-6.62,2.31-9.94,3.41C71.34,45.16,71.6,46.13,72.22,45.92
				L72.22,45.92z"/>
		</g>
	</g>
	<g>
		<g>
			<path d="M82.88,41.87c-0.86,7.58-2.34,15.08-4.41,22.42c-0.17,0.62,0.79,0.89,0.96,0.27c2.09-7.43,3.57-15.02,4.44-22.69
				C83.95,41.23,82.95,41.24,82.88,41.87L82.88,41.87z"/>
		</g>
	</g>
	<g>
		<g>
			<path d="M88.85,64.25c-0.24-6.67,0.57-13.37,2.51-19.76c0.19-0.62-0.78-0.88-0.96-0.27c-1.97,6.47-2.79,13.28-2.55,20.03
				C87.87,64.9,88.87,64.9,88.85,64.25L88.85,64.25z"/>
		</g>
	</g>
	<g>
		<g>
			<path d="M93.3,56.15c-0.41-4.01,1.24-8.08,4.24-10.76c1.19-1.07,2.82-2.1,4.47-2.15c2.12-0.07,3.52,1.8,4.4,3.5
				c1.52,2.96,2.2,6.67,1.26,9.9c-1.02,3.49-4.3,6.3-8,6.4c-1.92,0.05-3.74-0.73-4.86-2.33C93.87,59.37,93.47,57.75,93.3,56.15
				c-0.07-0.63-1.07-0.64-1,0c0.39,3.46,1.97,7.07,5.76,7.77c3.93,0.72,8.02-1.69,9.82-5.15c1.88-3.61,1.37-8.03-0.2-11.65
				c-0.74-1.71-1.86-3.57-3.59-4.42c-1.91-0.94-4.05-0.25-5.74,0.82c-4.13,2.62-6.55,7.8-6.05,12.63
				C92.36,56.78,93.36,56.79,93.3,56.15z"/>
		</g>
	</g>
	<g>
		<g>
			<path d="M113.31,64.14c-0.32-5.43,0.07-10.89,1.18-16.21c-0.32,0-0.64,0-0.96,0c1.88,5.66,3.76,11.31,5.64,16.97
				c0.18,0.55,0.93,0.43,0.98-0.13c0.37-3.99,0.73-7.99,1.36-11.96c0.3-1.92,0.66-3.83,1.11-5.72c0.23-0.98,0.49-1.96,0.77-2.93
				c0.13-0.45,0.27-0.89,0.41-1.34c0.07-0.22,0.14-0.44,0.22-0.66c0.05-0.15,0.1-0.29,0.15-0.44c0.16-0.2,0.09-0.38-0.2-0.53
				c0.1-0.08,0.2-0.15,0.3-0.23c-0.03,0.01-0.06,0.02-0.09,0.03c-0.6,0.21-0.34,1.18,0.27,0.96c0.51-0.18,0.66-0.75,0.3-1.17
				c-0.44-0.52-1.12-0.18-1.4,0.33c-0.42,0.77-0.61,1.73-0.86,2.56c-0.28,0.93-0.53,1.87-0.76,2.81c-0.92,3.79-1.49,7.66-1.92,11.53
				c-0.25,2.25-0.46,4.5-0.67,6.76c0.33-0.04,0.65-0.09,0.98-0.13c-1.88-5.66-3.76-11.31-5.64-16.97c-0.15-0.44-0.86-0.51-0.96,0
				c-1.13,5.41-1.55,10.96-1.22,16.48C112.34,64.78,113.34,64.78,113.31,64.14L113.31,64.14z"/>
		</g>
	</g>
	<g>
		<g>
			<path d="M124.94,64.95c0.26-7.65,1.91-15.21,4.84-22.29c-0.28,0.07-0.56,0.15-0.84,0.22c4.5,5.4,4.25,13.04,3.94,19.65
				c-0.03,0.64,0.97,0.64,1,0c0.32-6.93,0.47-14.72-4.23-20.36c-0.27-0.32-0.71-0.09-0.84,0.22c-2.97,7.16-4.61,14.81-4.88,22.56
				C123.92,65.6,124.92,65.6,124.94,64.95L124.94,64.95z"/>
		</g>
	</g>
	<g>
		<g>
			<path d="M126.34,53.96c2.11,1.14,4.82,0.81,6.6-0.79c0.48-0.43-0.23-1.14-0.71-0.71c-1.44,1.3-3.69,1.56-5.39,0.64
				C126.28,52.79,125.78,53.65,126.34,53.96L126.34,53.96z"/>
		</g>
	</g>
	<g>
		<g>
			<path d="M138.71,41.3c-0.1,7.95-0.87,15.89-2.36,23.7c-0.08,0.43,0.33,0.78,0.73,0.56c3.54-1.89,7.53-2.69,11.52-2.17
				c0.64,0.08,0.63-0.92,0-1c-4.16-0.54-8.34,0.33-12.02,2.31c0.24,0.19,0.49,0.38,0.73,0.56c1.5-7.9,2.29-15.93,2.39-23.97
				C139.72,40.65,138.72,40.65,138.71,41.3L138.71,41.3z"/>
		</g>
	</g>
	<g>
		<g>
			<path d="M160.37,41.21c-2.39,0.43-4.07,2.3-5.35,4.23c-0.68,1.03-1.57,2.22-1.79,3.45c-0.19,1.08,0.32,2.05,1.18,2.69
				c0.89,0.66,1.97,0.9,3.05,1.03c1.23,0.14,2.67,0.15,3.64,1.04c1.72,1.6,0.33,4.39-1.02,5.72c-2.16,2.13-5.67,2.87-8.59,2.38
				c-0.63-0.11-0.9,0.86-0.27,0.96c4.52,0.76,10.93-1.33,11.61-6.56c0.13-0.99-0.05-2.01-0.68-2.82c-0.76-0.98-1.93-1.37-3.11-1.55
				c-1.2-0.18-2.47-0.14-3.57-0.72c-0.48-0.25-0.97-0.61-1.18-1.13c-0.29-0.72,0.08-1.44,0.43-2.06c1.33-2.37,3.04-5.18,5.93-5.7
				C161.27,42.06,161,41.1,160.37,41.21L160.37,41.21z"/>
		</g>
	</g>
</g>
<g>
	<g>
		<g>
			<path d="M212.69,32.06c-0.11-0.53-0.7-0.78-1.2-0.59c-0.73,0.28-0.96,1.24-1.05,1.92c-0.12,0.89,0.01,1.81-0.02,2.71
				c-0.01,0.34-0.09,0.7-0.03,1.04c0.24,1.32,1.79,2.22,3.02,2.37c1.78,0.21,3.56-1.02,4.88-2.09c1.43-1.17,2.54-2.67,3.35-4.32
				c-0.14-0.08-0.29-0.17-0.43-0.25c-1.46,3.25-3.29,6.33-5.48,9.15c-1.06,1.36-2.2,2.66-3.4,3.89c-0.63,0.64-1.28,1.26-1.94,1.86
				c-0.61,0.55-1.32,1.03-1.9,1.61c-0.2,0.2,0.06,0.55,0.3,0.39c0.48-0.3,0.9-0.74,1.29-1.14c0.23-0.23-0.13-0.58-0.35-0.35
				c-0.36,0.37-0.75,0.78-1.19,1.06c0.1,0.13,0.2,0.26,0.3,0.39c0.58-0.58,1.28-1.06,1.9-1.61c0.67-0.6,1.31-1.22,1.94-1.86
				c1.26-1.28,2.44-2.63,3.53-4.05c2.16-2.8,3.99-5.85,5.43-9.08c0.13-0.29-0.29-0.54-0.43-0.25c-0.68,1.37-1.56,2.64-2.67,3.69
				c-1.28,1.21-3.36,2.78-5.23,2.46c-1.14-0.2-2.51-1.1-2.42-2.38c0.05-0.67,0.04-1.33,0.02-1.99c-0.02-0.5-0.02-1,0.09-1.5
				c0.05-0.23,0.12-0.5,0.23-0.71c0.14-0.26,0.84-0.88,0.97-0.21C212.27,32.51,212.75,32.38,212.69,32.06L212.69,32.06z"/>
		</g>
	</g>
	<g>
		<g>
			<path d="M220.95,41.1c2.07-0.05,4.14,0.06,6.19,0.34c0.31,0.04,0.45-0.44,0.13-0.48c-2.1-0.29-4.21-0.41-6.32-0.36
				C220.63,40.61,220.63,41.11,220.95,41.1L220.95,41.1z"/>
		</g>
	</g>
	<g>
		<g>
			<path d="M218.17,45.88c2.77-0.31,5.55-0.41,8.34-0.31c0.32,0.01,0.32-0.49,0-0.5c-2.78-0.11-5.57,0-8.34,0.31
				C217.85,45.41,217.85,45.91,218.17,45.88L218.17,45.88z"/>
		</g>
	</g>
	<g>
		<g>
			<path d="M238.57,34c1.09,3.44,2.71,6.69,4.81,9.63c0.19,0.26,0.62,0.01,0.43-0.25c-2.07-2.91-3.68-6.11-4.75-9.51
				C238.95,33.56,238.47,33.69,238.57,34L238.57,34z"/>
		</g>
	</g>
	<g>
		<g>
			<path d="M245.22,33.49c-3.25,2.97-6.42,6.02-9.52,9.15c-0.18,0.19,0.01,0.47,0.24,0.42c0.31-0.06,0.61-0.13,0.92-0.19
				c0.32-0.06,0.18-0.55-0.13-0.48c-0.31,0.06-0.61,0.13-0.92,0.19c0.08,0.14,0.16,0.28,0.24,0.42c3.1-3.12,6.27-6.17,9.52-9.15
				C245.81,33.63,245.46,33.27,245.22,33.49L245.22,33.49z"/>
		</g>
	</g>
	<g>
		<g>
			<path d="M253.57,32.4c-0.92-0.75-1.74-1.61-2.43-2.58c-0.09-0.13-0.27-0.17-0.39-0.05c-0.81,0.8-1.67,1.67-1.99,2.8
				c-0.24,0.85-0.09,1.86,0.5,2.53c0.67,0.77,1.62,0.58,2.48,0.9c0.52,0.19,0.67,0.72,0.28,1.13c-0.38,0.4-0.97,0.58-1.5,0.62
				c-1.53,0.12-3.07-0.22-4.42-0.93c-0.28-0.15-0.54,0.28-0.25,0.43c1.2,0.63,2.53,0.98,3.89,1.02c0.99,0.02,2.29-0.11,2.86-1.06
				c0.52-0.86-0.22-1.6-1.04-1.78c-0.5-0.11-1.07-0.1-1.53-0.35c-0.47-0.25-0.73-0.76-0.83-1.27c-0.28-1.51,0.93-2.72,1.91-3.68
				c-0.13-0.02-0.26-0.03-0.39-0.05c0.72,1,1.55,1.9,2.51,2.68C253.46,32.96,253.82,32.61,253.57,32.4L253.57,32.4z"/>
		</g>
	</g>
	<g>
		<g>
			<path d="M252.71,41.61c2.15,0.67,4.41,0.92,6.65,0.73c0.32-0.03,0.32-0.53,0-0.5c-2.2,0.19-4.41-0.05-6.52-0.71
				C252.54,41.03,252.4,41.51,252.71,41.61L252.71,41.61z"/>
		</g>
	</g>
	<g>
		<g>
			<path d="M257.91,38.65c-1.92,2.03-3.33,4.49-4.11,7.17c-0.09,0.31,0.39,0.44,0.48,0.13c0.75-2.6,2.12-4.99,3.98-6.95
				C258.49,38.77,258.13,38.41,257.91,38.65L257.91,38.65z"/>
		</g>
	</g>
	<g>
		<g>
			<path d="M263.39,39.43c1.29-0.41,2.96-0.6,4.14,0.21c1.24,0.85,0.53,2.37-0.2,3.32c-1.76,2.29-4.96,2.29-6.93,4.31
				c-0.1,0.11-0.1,0.32,0.05,0.39c2.35,1.07,4.71,2.15,7.06,3.22c0.29,0.13,0.55-0.3,0.25-0.43c-2.35-1.07-4.71-2.15-7.06-3.22
				c0.02,0.13,0.03,0.26,0.05,0.39c1.27-1.31,3.01-1.69,4.6-2.46c1.33-0.65,2.49-1.71,3.09-3.08c0.49-1.12,0.32-2.27-0.77-2.94
				c-1.31-0.79-3.02-0.64-4.42-0.19C262.95,39.04,263.08,39.52,263.39,39.43L263.39,39.43z"/>
		</g>
	</g>
	<g>
		<g>
			<path d="M272.61,43.28c0.48,2.97,1.53,5.81,3.09,8.38c0.17,0.27,0.6,0.02,0.43-0.25c-1.54-2.53-2.57-5.34-3.04-8.26
				C273.04,42.83,272.56,42.97,272.61,43.28L272.61,43.28z"/>
		</g>
	</g>
	<g>
		<g>
			<path d="M277.14,44.27c-2.69,2.04-5.33,4.16-7.91,6.35c-0.25,0.21,0.11,0.56,0.35,0.35c2.55-2.16,5.15-4.25,7.81-6.27
				C277.64,44.51,277.39,44.07,277.14,44.27L277.14,44.27z"/>
		</g>
	</g>
	<g>
		<g>
			<path d="M280.46,40.75c0.63-0.04,0.9,0.78,0.73,1.28c-0.25,0.72-1.07,1.09-1.7,1.4c-0.17,0.08-0.16,0.35,0,0.43
				c0.83,0.45,1.68,1.7,0.99,2.61c-0.46,0.59-1.61,0.74-1.97-0.02c-0.14-0.29-0.57-0.04-0.43,0.25c0.51,1.06,2.08,0.93,2.76,0.12
				c0.95-1.14,0.03-2.79-1.09-3.4c0,0.14,0,0.29,0,0.43c0.82-0.4,1.86-0.96,1.98-1.98c0.09-0.76-0.41-1.69-1.27-1.64
				C280.14,40.27,280.14,40.77,280.46,40.75L280.46,40.75z"/>
		</g>
	</g>
	<g>
		<g>
			<path d="M282.67,50.38c1.99,0.61,4.09,0.75,6.15,0.44c0.32-0.05,0.18-0.53-0.13-0.48c-1.97,0.3-3.98,0.14-5.88-0.44
				C282.49,49.81,282.36,50.29,282.67,50.38L282.67,50.38z"/>
		</g>
	</g>
	<g>
		<g>
			<path d="M295.09,44.64c-1.31,3.42-2.62,6.84-3.93,10.26c-0.12,0.3,0.37,0.43,0.48,0.13c1.31-3.42,2.62-6.84,3.93-10.26
				C295.69,44.47,295.21,44.34,295.09,44.64L295.09,44.64z"/>
		</g>
	</g>
	<g>
		<g>
			<path d="M298.1,47.82c0.83-1.01,2.45-1.59,3.46-0.47c0.88,0.97,0.8,2.61,0.34,3.75c-1.08,2.67-4.49,2.34-6.23,4.33
				c-0.13,0.15-0.07,0.35,0.11,0.42c2.24,0.77,4.48,1.54,6.72,2.32c0.3,0.11,0.44-0.38,0.13-0.48c-2.24-0.77-4.48-1.54-6.72-2.32
				c0.04,0.14,0.07,0.28,0.11,0.42c1.1-1.26,2.73-1.5,4.15-2.21c1.39-0.7,2.28-1.93,2.49-3.48c0.17-1.27-0.11-2.86-1.33-3.54
				c-1.25-0.71-2.75-0.12-3.61,0.92C297.54,47.72,297.9,48.07,298.1,47.82L298.1,47.82z"/>
		</g>
	</g>
	<g>
		<g>
			<path d="M234.29,45.96c9.23,2.16,18.47,4.33,27.7,6.49c9.1,2.13,18.2,4.26,27.34,6.16c5.14,1.07,10.29,2.07,15.47,2.97
				c0.31,0.05,0.45-0.43,0.13-0.48c-9.21-1.6-18.36-3.53-27.48-5.59c-9.17-2.07-18.32-4.25-27.47-6.39
				c-5.19-1.22-10.37-2.43-15.56-3.65C234.11,45.41,233.97,45.89,234.29,45.96L234.29,45.96z"/>
		</g>
	</g>
	<g>
		<g>
			<path d="M239.49,53.84c0.39,2.37,1.03,4.68,1.93,6.91c0.42,1.03,0.89,2.05,1.41,3.04c0.38,0.72,0.86,1.61,1.79,1.57
				c0.32-0.01,0.32-0.51,0-0.5c-0.96,0.03-1.48-1.53-1.83-2.24c-0.47-0.96-0.89-1.95-1.27-2.96c-0.71-1.93-1.23-3.92-1.56-5.95
				C239.92,53.39,239.44,53.52,239.49,53.84L239.49,53.84z"/>
		</g>
	</g>
	<g>
		<g>
			<path d="M246.42,55.6c-3.1,2.38-6.2,4.77-9.3,7.15c-0.25,0.19,0,0.63,0.25,0.43c3.1-2.38,6.2-4.77,9.3-7.15
				C246.93,55.84,246.68,55.41,246.42,55.6L246.42,55.6z"/>
		</g>
	</g>
	<g>
		<g>
			<path d="M249.93,52.94c-0.93,1.36-1.15,3.04-0.01,4.35c0.59,0.67,1.18,1.31,1.1,2.28c-0.07,0.79-0.86,1.8-1.66,1.04
				c-0.69-0.65-0.52-1.72,0.06-2.37c0.66-0.74,1.64-1.09,2.5-1.52c1.42-0.71,2.99-2.18,2.23-3.94c-0.37-0.85-1.27-1.53-2.22-1.43
				C251,51.46,250.42,52.23,249.93,52.94c-0.18,0.27,0.25,0.52,0.43,0.25c0.55-0.81,1.35-1.72,2.43-1.17
				c0.97,0.49,1.23,1.57,0.85,2.53c-0.75,1.88-3.38,1.97-4.62,3.4c-0.5,0.58-0.72,1.28-0.55,2.04c0.15,0.63,0.58,1.24,1.25,1.36
				c1.64,0.31,2.08-1.89,1.59-3.02c-0.37-0.85-1.23-1.36-1.54-2.23c-0.36-1.02,0.02-2.05,0.6-2.91
				C250.54,52.92,250.11,52.67,249.93,52.94z"/>
		</g>
	</g>
	<g>
		<g>
			<path d="M256.58,63.17c1.45-0.56,3.04-0.63,4.53-0.17c0.31,0.09,0.44-0.39,0.13-0.48c-1.56-0.48-3.27-0.42-4.79,0.17
				C256.15,62.8,256.28,63.29,256.58,63.17L256.58,63.17z"/>
		</g>
	</g>
	<g>
		<g>
			<path d="M266.03,58.72c-0.48,0.87-0.96,1.74-1.43,2.61c-0.04,0.07-0.05,0.18,0,0.25c0.32,0.44,0.79,0.63,1.3,0.73
				c0.77,0.15,1.55,0.26,2.33,0.39c1.62,0.27,3.24,0.53,4.86,0.8c0.31,0.05,0.45-0.43,0.13-0.48c-1.46-0.24-2.92-0.48-4.37-0.72
				c-0.7-0.12-1.4-0.23-2.11-0.35c-0.56-0.09-1.36-0.11-1.72-0.62c0,0.08,0,0.17,0,0.25c0.48-0.87,0.96-1.74,1.43-2.61
				C266.62,58.69,266.18,58.43,266.03,58.72L266.03,58.72z"/>
		</g>
	</g>
	<g>
		<g>
			<path d="M271.62,57.76c-2.5,3.67-4.38,7.74-5.56,12.03c-0.09,0.31,0.4,0.44,0.48,0.13c1.17-4.25,3.03-8.27,5.51-11.91
				C272.23,57.74,271.8,57.49,271.62,57.76L271.62,57.76z"/>
		</g>
	</g>
	<g>
		<g>
			<path d="M274.14,65.41c1,2.31,1.99,4.62,2.99,6.93c0.13,0.29,0.56,0.04,0.43-0.25c-1-2.31-1.99-4.62-2.99-6.93
				C274.45,64.86,274.02,65.11,274.14,65.41L274.14,65.41z"/>
		</g>
	</g>
	<g>
		<g>
			<path d="M278.41,65.2c-1.76,1.48-3.07,3.38-4.56,5.11c-0.32,0.37-0.71,0.69-1.07,1.02c-0.33,0.3-0.76,0.61-1.01,0.98
				c-0.12,0.18-0.07,0.45,0.19,0.45c0.21,0,0.45-0.2,0.62-0.31c0.27-0.18,0.02-0.61-0.25-0.43c-0.1,0.07-0.21,0.13-0.31,0.2
				c-0.14,0.08-0.1,0.01,0.01,0.05c0.05,0.04,0.1,0.08,0.15,0.11c-0.03,0.22-0.03,0.29,0.01,0.21c0.01-0.02,0.01-0.02,0,0
				c0.03-0.01,0.06-0.07,0.08-0.09c0.07-0.07,0.14-0.14,0.21-0.21c0.19-0.19,0.39-0.37,0.59-0.55c0.37-0.34,0.76-0.66,1.09-1.03
				c0.76-0.84,1.43-1.77,2.16-2.64c0.75-0.9,1.55-1.76,2.45-2.52C279.01,65.34,278.66,64.99,278.41,65.2L278.41,65.2z"/>
		</g>
	</g>
	<g>
		<g>
			<path d="M281.16,62.64c0.56-0.79,1.87-0.16,2.11,0.61c0.17,0.55-0.12,1.13-0.51,1.5c-0.45,0.43-1.06,0.67-1.68,0.67
				c-0.24,0-0.35,0.35-0.13,0.47c1.43,0.74,2.86,1.48,4.29,2.22c0.29,0.15,0.54-0.28,0.25-0.43c-1.43-0.74-2.86-1.48-4.29-2.22
				c-0.04,0.16-0.08,0.31-0.13,0.47c1.17,0,2.48-0.78,2.7-2c0.19-1.06-0.63-1.98-1.67-2.11c-0.55-0.07-1.06,0.12-1.39,0.58
				C280.54,62.65,280.97,62.9,281.16,62.64L281.16,62.64z"/>
		</g>
	</g>
	<g>
		<g>
			<path d="M288.57,70.61c1.18,0.07,2.36,0.14,3.54,0.21c0.68,0.04,1.97,0.33,2.26-0.55c0.1-0.31-0.38-0.44-0.48-0.13
				c-0.1,0.31-0.64,0.25-0.89,0.23c-0.48-0.03-0.96-0.06-1.44-0.09c-1-0.06-1.99-0.12-2.99-0.18
				C288.24,70.09,288.25,70.59,288.57,70.61L288.57,70.61z"/>
		</g>
	</g>
	<g>
		<g>
			<path d="M298.79,66.35c0.74,3.62,1.47,7.24,2.21,10.85c0.06,0.32,0.55,0.18,0.48-0.13c-0.74-3.62-1.47-7.24-2.21-10.85
				C299.21,65.9,298.73,66.03,298.79,66.35L298.79,66.35z"/>
		</g>
	</g>
	<g>
		<g>
			<path d="M303.19,68.01c-2.63,2.38-5.26,4.77-7.9,7.15c-0.24,0.22,0.12,0.57,0.35,0.35c2.63-2.38,5.26-4.77,7.9-7.15
				C303.79,68.14,303.43,67.79,303.19,68.01L303.19,68.01z"/>
		</g>
	</g>
</g>
<g>
	<g>
		<g>
			<path d="M66.57,274.91c-0.82,1.54-1.7,3.33-0.95,5.08c0.7,1.63,2.39,1.87,3.95,1.41c3.39-1.01,5.44-4.24,8.46-5.9
				c-0.11-0.11-0.23-0.23-0.34-0.34c-2.59,6.11-6.24,11.72-10.77,16.57c-0.22,0.23,0.13,0.59,0.35,0.35
				c4.56-4.87,8.24-10.52,10.85-16.67c0.09-0.22-0.1-0.47-0.34-0.34c-2.57,1.41-4.36,3.86-6.93,5.26c-1.38,0.75-3.61,1.45-4.61-0.22
				c-0.97-1.61-0.01-3.47,0.77-4.94C67.15,274.87,66.72,274.62,66.57,274.91L66.57,274.91z"/>
		</g>
	</g>
	<g>
		<g>
			<path d="M79.05,283.36c1.65,0.35,3.3,0.71,4.95,1.06c0.31,0.07,0.45-0.41,0.13-0.48c-1.65-0.35-3.3-0.71-4.95-1.06
				C78.87,282.81,78.73,283.29,79.05,283.36L79.05,283.36z"/>
		</g>
	</g>
	<g>
		<g>
			<path d="M77.47,288.46c2.02-0.63,4.18-0.66,6.22-0.09c0.31,0.09,0.44-0.4,0.13-0.48c-2.12-0.59-4.38-0.56-6.48,0.09
				C77.03,288.07,77.16,288.56,77.47,288.46L77.47,288.46z"/>
		</g>
	</g>
	<g>
		<g>
			<path d="M93.98,276.23c-1.38,1.73-2.34,3.76-2.78,5.93c-0.21,1.05-0.31,2.12-0.28,3.19c0.03,0.94,0.02,2.17,0.73,2.88
				c0.23,0.23,0.58-0.13,0.35-0.35c-0.68-0.68-0.6-2.09-0.59-3c0.01-0.99,0.12-1.99,0.35-2.96c0.45-1.94,1.33-3.77,2.57-5.33
				C94.53,276.33,94.18,275.98,93.98,276.23L93.98,276.23z"/>
		</g>
	</g>
	<g>
		<g>
			<path d="M95.31,280.3c-0.29,1.18,0.4,2.23,1.09,3.12c0.85,1.1,1.71,2.2,2.57,3.29c0.2,0.25,0.55-0.1,0.35-0.35
				c-0.77-0.98-1.53-1.96-2.3-2.95c-0.65-0.83-1.51-1.86-1.23-2.99C95.87,280.12,95.39,279.98,95.31,280.3L95.31,280.3z"/>
		</g>
	</g>
	<g>
		<g>
			<path d="M100.14,280.08c-2.05,1.84-4.01,3.79-5.85,5.84c-0.12,0.13-0.08,0.3,0.05,0.39c0.21,0.15,0.44,0.18,0.68,0.11
				c0.31-0.09,0.18-0.57-0.13-0.48c-0.12,0.04-0.2,0.01-0.3-0.06c0.02,0.13,0.03,0.26,0.05,0.39c1.85-2.05,3.8-4,5.85-5.84
				C100.73,280.22,100.38,279.87,100.14,280.08L100.14,280.08z"/>
		</g>
	</g>
	<g>
		<g>
			<path d="M102.09,283.98c0.93,0.46,1.93,0.8,2.95,0.99c0.13,0.02,0.27-0.04,0.31-0.17c0.03-0.12-0.04-0.28-0.17-0.31
				c-0.98-0.18-1.94-0.5-2.83-0.94C102.06,283.4,101.8,283.83,102.09,283.98L102.09,283.98z"/>
		</g>
	</g>
	<g>
		<g>
			<path d="M109.25,281.73c-0.39,1.46-0.79,2.93-1.18,4.39c-0.18,0.69-0.4,1.38-0.55,2.07c-0.09,0.44-0.09,0.92,0.33,1.18
				c0.27,0.17,0.52-0.26,0.25-0.43c-0.38-0.24,0.07-1.25,0.15-1.56c0.16-0.61,0.33-1.23,0.49-1.84c0.33-1.23,0.66-2.45,0.99-3.68
				C109.82,281.55,109.33,281.42,109.25,281.73L109.25,281.73z"/>
		</g>
	</g>
	<g>
		<g>
			<path d="M112.97,283.59c0.94-0.08,1.43,0.94,1.18,1.74c-0.27,0.88-1.08,1.41-1.87,1.78c-0.44,0.2-0.9,0.37-1.36,0.55
				c-0.25,0.1-0.5,0.2-0.75,0.3c-0.18,0.07-0.33,0.11-0.36,0.32c-0.04,0.33,0.23,0.54,0.5,0.65c0.44,0.17,0.96,0.22,1.42,0.31
				c1.18,0.24,2.36,0.48,3.54,0.72c0.31,0.06,0.45-0.42,0.13-0.48c-0.89-0.18-1.79-0.37-2.68-0.55c-0.24-0.05-2.45-0.4-2.42-0.59
				c-0.06,0.06-0.12,0.12-0.17,0.17c0.82-0.32,1.65-0.62,2.44-0.99c0.71-0.33,1.38-0.78,1.79-1.46c0.36-0.59,0.49-1.33,0.19-1.98
				c-0.28-0.61-0.9-1.05-1.59-0.99C112.65,283.12,112.65,283.62,112.97,283.59L112.97,283.59z"/>
		</g>
	</g>
	<g>
		<g>
			<path d="M117.19,283.01c0.81,1.72,1.15,3.63,0.98,5.52c-0.13,1.4-0.58,4.02-2.39,4.16c-0.32,0.02-0.32,0.52,0,0.5
				c1.95-0.15,2.59-2.48,2.82-4.07c0.31-2.17-0.04-4.38-0.98-6.36C117.48,282.46,117.05,282.72,117.19,283.01L117.19,283.01z"/>
		</g>
	</g>
	<g>
		<g>
			<path d="M120.51,280.01c0.82-0.01,1.62,0.66,1.65,1.5c0.04,0.84-0.69,1.6-1.51,1.65c-0.21,0.01-0.33,0.27-0.18,0.43
				c0.29,0.29,0.66,0.41,1.04,0.53c0.33,0.11,1.09,0.49,0.63,0.9c-0.34,0.3-0.89,0.47-1.31,0.62c-0.47,0.16-0.95,0.29-1.43,0.37
				c-0.32,0.06-0.18,0.54,0.13,0.48c0.62-0.11,1.22-0.28,1.8-0.51c0.45-0.18,1.16-0.41,1.38-0.89c0.2-0.43-0.06-0.88-0.41-1.15
				c-0.45-0.34-1.08-0.31-1.48-0.71c-0.06,0.14-0.12,0.28-0.18,0.43c1.09-0.07,2.06-1.03,2.01-2.15c-0.04-1.11-1.06-2.02-2.15-2
				C120.19,279.52,120.19,280.02,120.51,280.01L120.51,280.01z"/>
		</g>
	</g>
	<g>
		<g>
			<path d="M128.02,282.77c-1.81,2.02-3.24,4.39-4.11,6.96c-0.39,1.16-0.65,2.53-0.03,3.67c0.5,0.91,1.45,1.5,2.49,1.33
				c0.32-0.05,0.18-0.53-0.13-0.48c-1.23,0.2-2.12-1.02-2.22-2.12c-0.1-1.18,0.37-2.38,0.83-3.45c0.86-2.04,2.06-3.91,3.53-5.55
				C128.59,282.88,128.24,282.53,128.02,282.77L128.02,282.77z"/>
		</g>
	</g>
	<g>
		<g>
			<path d="M130.33,287.44c1.45,1.89,2.61,3.98,3.45,6.2c0.11,0.3,0.6,0.17,0.48-0.13c-0.85-2.27-2.02-4.4-3.5-6.32
				C130.56,286.94,130.13,287.19,130.33,287.44L130.33,287.44z"/>
		</g>
	</g>
	<g>
		<g>
			<path d="M135.18,287.59c-1.11,0.97-2.22,1.94-3.32,2.9c-0.27,0.24-0.54,0.47-0.81,0.71c-0.22,0.19-0.45,0.38-0.63,0.62
				c-0.27,0.37-0.48,0.94-0.05,1.28c0.25,0.2,0.61-0.15,0.35-0.35c-0.37-0.29,0.32-0.87,0.53-1.05c0.48-0.42,0.95-0.83,1.43-1.25
				c0.95-0.83,1.91-1.67,2.86-2.5C135.78,287.73,135.43,287.38,135.18,287.59L135.18,287.59z"/>
		</g>
	</g>
	<g>
		<g>
			<path d="M139.15,290.49c1.26-0.3,2.6-0.13,3.74,0.48c0.28,0.15,0.54-0.28,0.25-0.43c-1.26-0.67-2.74-0.86-4.13-0.53
				C138.71,290.08,138.84,290.56,139.15,290.49L139.15,290.49z"/>
		</g>
	</g>
	<g>
		<g>
			<path d="M141.77,288.28c-0.72,1.57-1.39,3.17-1.99,4.8c-0.11,0.3,0.37,0.43,0.48,0.13c0.59-1.58,1.24-3.14,1.94-4.68
				C142.33,288.24,141.9,287.98,141.77,288.28L141.77,288.28z"/>
		</g>
	</g>
	<g>
		<g>
			<path d="M147.79,289.75c-0.43-0.35-0.85-0.72-1.29-1.05c-0.32-0.24-0.72-0.31-1,0.03c-0.28,0.34-0.4,0.89-0.51,1.31
				c-0.13,0.48-0.21,0.99-0.13,1.49c0.13,0.79,0.66,1.51,1.47,1.66c0.45,0.08,0.86,0.15,0.93,0.68c0.06,0.45-0.2,0.83-0.57,1.07
				c-0.43,0.27-0.99,0.4-1.49,0.41c-0.58,0.01-1.29-0.27-1.22-0.96c0.03-0.32-0.47-0.32-0.5,0c-0.1,0.97,0.88,1.48,1.72,1.46
				c0.84-0.02,1.87-0.3,2.35-1.06c0.37-0.58,0.29-1.51-0.34-1.88c-0.43-0.25-0.96-0.13-1.34-0.48c-0.34-0.3-0.51-0.77-0.53-1.21
				c-0.03-0.66,0.2-1.33,0.44-1.93c0.09-0.22,0.24-0.33,0.47-0.16c0.14,0.1,0.27,0.22,0.4,0.33c0.27,0.22,0.53,0.43,0.8,0.65
				C147.69,290.3,148.04,289.95,147.79,289.75L147.79,289.75z"/>
		</g>
	</g>
	<g>
		<g>
			<path d="M149.31,286.54c0.82,2.47,1.77,5.23,1.09,7.84c-0.53,2.04-2.14,3.99-4.37,4.1c-0.32,0.02-0.32,0.52,0,0.5
				c2.27-0.11,3.98-1.9,4.69-3.96c0.99-2.83-0.04-5.91-0.94-8.62C149.69,286.11,149.21,286.24,149.31,286.54L149.31,286.54z"/>
		</g>
	</g>
	<g>
		<g>
			<path d="M88.82,291.2c8.32,2.05,16.75,3.29,25.29,3.96c4.29,0.34,8.58,0.72,12.75,1.85c2.12,0.57,4.21,1.22,6.35,1.68
				c2.09,0.45,4.2,0.76,6.32,1.06c4.88,0.69,9.76,1.36,14.65,2.03c0.31,0.04,0.45-0.44,0.13-0.48c-4.32-0.6-8.64-1.2-12.96-1.8
				c-2.16-0.3-4.32-0.59-6.46-0.99c-2.11-0.39-4.18-0.94-6.25-1.53c-4.07-1.16-8.16-1.79-12.37-2.15c-4.35-0.37-8.7-0.71-13.03-1.33
				c-4.8-0.69-9.57-1.62-14.28-2.78C88.64,290.64,88.5,291.12,88.82,291.2L88.82,291.2z"/>
		</g>
	</g>
	<g>
		<g>
			<path d="M91.91,295.47c-1.61,2.24-3.27,4.6-3.69,7.4c-0.18,1.18-0.17,2.51,0.31,3.63c0.4,0.94,1.33,1.68,2.38,1.32
				c0.3-0.1,0.17-0.59-0.13-0.48c-1.48,0.51-2.03-1.43-2.13-2.5c-0.11-1.11,0.06-2.22,0.39-3.28c0.67-2.15,2.01-4.01,3.31-5.83
				C92.53,295.46,92.1,295.21,91.91,295.47L91.91,295.47z"/>
		</g>
	</g>
	<g>
		<g>
			<path d="M94.4,297.52c-0.66,1.56-0.3,3.24,0.19,4.79c0.54,1.69,1.31,3.3,2.3,4.78c0.18,0.27,0.61,0.02,0.43-0.25
				c-0.9-1.35-1.63-2.8-2.14-4.34c-0.5-1.48-0.98-3.21-0.34-4.72C94.95,297.48,94.52,297.23,94.4,297.52L94.4,297.52z"/>
		</g>
	</g>
	<g>
		<g>
			<path d="M97.3,299.69c-1.57,1.91-3.26,3.71-5.06,5.4c-0.16,0.15-0.04,0.43,0.18,0.43c0.38,0,0.73-0.08,1.07-0.23
				c0.29-0.13,0.04-0.56-0.25-0.43c-0.26,0.11-0.53,0.16-0.82,0.16c0.06,0.14,0.12,0.28,0.18,0.43c1.8-1.69,3.49-3.49,5.06-5.4
				C97.86,299.8,97.5,299.45,97.3,299.69L97.3,299.69z"/>
		</g>
	</g>
	<g>
		<g>
			<path d="M99.08,302.28c1.2,0.03,2.4,0.06,3.61,0.09c0.32,0.01,0.32-0.49,0-0.5c-1.2-0.03-2.4-0.06-3.61-0.09
				C98.76,301.77,98.76,302.27,99.08,302.28L99.08,302.28z"/>
		</g>
	</g>
	<g>
		<g>
			<path d="M106.57,299.14c-0.61,1.05-1.11,2.16-1.45,3.33c-0.31,1.06-0.66,2.35-0.16,3.4c0.47,0.97,1.45,1.31,2.44,0.93
				c0.79-0.3,1.79-0.99,1.49-1.97c-0.4-1.33-2.1-1.02-3.13-1.1c-0.32-0.02-0.32,0.48,0,0.5c0.61,0.05,1.27-0.09,1.86,0.09
				c0.47,0.14,0.97,0.55,0.78,1.09c-0.17,0.48-0.75,0.77-1.19,0.93c-0.6,0.21-1.16,0.16-1.58-0.35c-0.76-0.92-0.35-2.31-0.05-3.33
				c0.33-1.15,0.81-2.24,1.42-3.27C107.16,299.11,106.73,298.86,106.57,299.14L106.57,299.14z"/>
		</g>
	</g>
	<g>
		<g>
			<path d="M111.15,298.98c1.13,1.31,1.39,3.1,1.36,4.77c-0.03,1.72-0.5,3.81-2.33,4.44c-0.3,0.1-0.17,0.59,0.13,0.48
				c1.93-0.67,2.6-2.71,2.69-4.58c0.09-1.92-0.2-3.96-1.49-5.47C111.29,298.38,110.94,298.74,111.15,298.98L111.15,298.98z"/>
		</g>
	</g>
	<g>
		<g>
			<path d="M120.61,298.74c-1.1,0.8-1.55,2.15-2.09,3.34c-0.67,1.46-1.46,2.93-1.92,4.48c-0.36,1.19-0.43,2.47,0.14,3.6
				c0.49,0.96,1.36,1.66,2.45,1.73c0.32,0.02,0.32-0.48,0-0.5c-1.1-0.07-1.9-0.97-2.22-1.97c-0.38-1.19-0.03-2.47,0.41-3.59
				c0.5-1.26,1.11-2.48,1.67-3.71c0.46-1.02,0.87-2.25,1.81-2.93C121.12,298.99,120.87,298.55,120.61,298.74L120.61,298.74z"/>
		</g>
	</g>
	<g>
		<g>
			<path d="M122.72,303.25c0.29,1.28,1.05,2.36,1.77,3.43c0.83,1.24,1.66,2.48,2.49,3.72c0.18,0.27,0.61,0.02,0.43-0.25
				c-0.8-1.2-1.61-2.41-2.41-3.61c-0.72-1.07-1.51-2.15-1.8-3.43C123.14,302.8,122.65,302.93,122.72,303.25L122.72,303.25z"/>
		</g>
	</g>
	<g>
		<g>
			<path d="M127.85,302.39c-2.26,2.59-4.44,5.24-6.54,7.96c-0.2,0.25,0.24,0.5,0.43,0.25c2.07-2.69,4.23-5.31,6.47-7.86
				C128.41,302.5,128.06,302.15,127.85,302.39L127.85,302.39z"/>
		</g>
	</g>
	<g>
		<g>
			<path d="M130.68,306.32c1.88,0.2,3.77,0.39,5.65,0.59c0.32,0.03,0.32-0.47,0-0.5c-1.88-0.2-3.77-0.39-5.65-0.59
				C130.36,305.78,130.37,306.28,130.68,306.32L130.68,306.32z"/>
		</g>
	</g>
	<g>
		<g>
			<path d="M134.08,303.34c-0.84,2.24-1.59,4.5-2.25,6.8c-0.09,0.31,0.39,0.44,0.48,0.13c0.65-2.3,1.4-4.57,2.25-6.8
				C134.68,303.18,134.2,303.04,134.08,303.34L134.08,303.34z"/>
		</g>
	</g>
	<g>
		<g>
			<path d="M140.54,303.85c-0.89,2.47-1.79,4.95-2.68,7.42c-0.1,0.29,0.3,0.4,0.46,0.19c0.11-0.15,0.22-0.29,0.33-0.44
				c0.19-0.26-0.24-0.51-0.43-0.25c-0.11,0.15-0.22,0.29-0.33,0.44c0.15,0.06,0.3,0.13,0.46,0.19c0.89-2.47,1.79-4.95,2.68-7.42
				C141.13,303.68,140.65,303.55,140.54,303.85L140.54,303.85z"/>
		</g>
	</g>
	<g>
		<g>
			<path d="M144,304.41c-1.32,2.75-2.41,5.61-3.27,8.54c-0.09,0.31,0.39,0.44,0.48,0.13c0.84-2.89,1.92-5.7,3.22-8.42
				C144.57,304.37,144.14,304.12,144,304.41L144,304.41z"/>
		</g>
	</g>
	<g>
		<g>
			<path d="M146.23,304.84c0.57,2.06,0.64,4.24,0.18,6.33c-0.23,1.03-0.57,2.03-1.04,2.97c-0.47,0.94-1.03,1.87-2,2.34
				c-0.29,0.14-0.04,0.57,0.25,0.43c1.88-0.93,2.77-3.51,3.22-5.41c0.53-2.24,0.48-4.58-0.13-6.79
				C146.62,304.4,146.14,304.53,146.23,304.84L146.23,304.84z"/>
		</g>
	</g>
	<g>
		<g>
			<path d="M149.52,304.24c0.47-0.07,1-0.12,1.46,0.04c0.49,0.17,0.75,0.62,0.62,1.12c-0.34,1.28-1.9,1.23-2.95,1.17
				c-0.28-0.02-0.34,0.43-0.07,0.49c1.4,0.3,2.8,0.61,4.15,1.09c0.33,0.12,0.65,0.25,0.97,0.38c0.23,0.1,0.53,0.28,0.77,0.1
				c0.38-0.28-0.14-0.87-0.45-0.45c-0.19,0.26,0.24,0.51,0.43,0.25c0.01-0.01,0.01-0.02,0.02-0.03c-0.07,0.04-0.14,0.08-0.22,0.12
				c-0.05-0.03-0.09-0.06-0.14-0.08c0.01-0.06,0.02-0.13,0.03-0.19c0.09-0.04,0.08-0.06-0.01-0.08c-0.07-0.03-0.14-0.06-0.2-0.08
				c-0.1-0.04-0.2-0.08-0.3-0.13c-0.24-0.1-0.47-0.19-0.72-0.28c-0.44-0.16-0.89-0.3-1.34-0.43c-0.94-0.27-1.9-0.47-2.85-0.68
				c-0.02,0.16-0.04,0.33-0.07,0.49c0.8,0.05,1.64,0.08,2.38-0.28c0.57-0.27,1.01-0.84,1.09-1.47c0.08-0.62-0.25-1.19-0.82-1.45
				c-0.6-0.27-1.29-0.2-1.92-0.12C149.07,303.8,149.21,304.29,149.52,304.24L149.52,304.24z"/>
		</g>
	</g>
</g>
<g>
	<g>
		<g>
			<path d="M346.5,271.18c-0.31,1.5-0.36,3.03-0.1,4.53c0.18,1.02,0.65,2.25,1.89,2.2c1.25-0.06,2.35-1.34,3.15-2.17
				c1.05-1.08,1.96-2.28,2.74-3.57c-0.15-0.02-0.3-0.04-0.46-0.06c0.22,0.7-0.26,1.49-0.52,2.13c-0.27,0.66-0.55,1.33-0.82,1.99
				c-0.59,1.41-1.21,2.82-1.83,4.22c-1.19,2.66-2.44,5.29-3.74,7.9c-0.06,0.12-0.04,0.28,0.09,0.34c0.48,0.25,0.97,0.23,1.41-0.09
				c0.26-0.19,0.01-0.62-0.25-0.43c-0.28,0.2-0.58,0.26-0.9,0.09c0.03,0.11,0.06,0.23,0.09,0.34c1.41-2.82,2.75-5.67,4.03-8.55
				c0.61-1.37,1.2-2.75,1.78-4.13c0.31-0.74,0.61-1.47,0.91-2.21c0.23-0.57,0.45-1.12,0.25-1.73c-0.06-0.2-0.34-0.25-0.46-0.06
				c-0.63,1.03-1.34,2.01-2.15,2.91c-0.72,0.81-1.54,1.74-2.49,2.28c-2.92,1.67-2.42-4.45-2.14-5.8
				C347.05,271,346.57,270.86,346.5,271.18L346.5,271.18z"/>
		</g>
	</g>
	<g>
		<g>
			<path d="M354.09,279.74c1.99,0.47,4.05,0.66,6.09,0.56c0.32-0.02,0.32-0.52,0-0.5c-2,0.1-4.01-0.08-5.96-0.54
				C353.91,279.18,353.77,279.66,354.09,279.74L354.09,279.74z"/>
		</g>
	</g>
	<g>
		<g>
			<path d="M353.09,284.12c2.09,0.46,4.25,0.48,6.35,0.07c0.32-0.06,0.18-0.54-0.13-0.48c-2.01,0.39-4.08,0.37-6.08-0.07
				C352.91,283.57,352.77,284.05,353.09,284.12L353.09,284.12z"/>
		</g>
	</g>
	<g>
		<g>
			<path d="M367.73,270.93c0.95-0.06,1.9-0.09,2.84-0.05c0.53,0.02,1.07,0.06,1.59,0.16c0.29,0.06,1.07,0.15,1.12,0.53
				c0.03,0.22-0.29,0.5-0.43,0.67c-0.18,0.23-0.36,0.46-0.54,0.69c-0.53,0.69-1.04,1.38-1.56,2.08c-0.85,1.14-1.69,2.28-2.54,3.43
				c-0.19,0.26,0.24,0.51,0.43,0.25c1.4-1.9,2.79-3.81,4.23-5.68c0.32-0.41,1.03-1.04,0.89-1.61c-0.09-0.35-0.43-0.53-0.74-0.65
				c-0.52-0.2-1.08-0.27-1.63-0.33c-1.22-0.12-2.45-0.08-3.67-0.01C367.41,270.45,367.41,270.95,367.73,270.93L367.73,270.93z"/>
		</g>
	</g>
	<g>
		<g>
			<path d="M377.25,271.41c-1.09,1.06-1.91,2.38-2.36,3.84c-0.41,1.31-0.61,3.05,0.92,3.68c1.31,0.54,2.65-0.23,3.36-1.34
				c0.36-0.57,0.61-1.32,0.35-1.97c-0.24-0.6-0.84-0.91-1.46-0.95c-0.8-0.05-1.5,0.41-2.1,0.9c-0.22,0.18-0.64,0.47-0.44,0.81
				c0.14,0.24,0.48,0.18,0.6-0.04c0.06-0.11,0.04-0.21-0.04-0.3c-0.01-0.01-0.02-0.02-0.03-0.03c-0.21-0.25-0.56,0.11-0.35,0.35
				c0.01,0.01,0.02,0.02,0.03,0.03c-0.01-0.1-0.03-0.2-0.04-0.3c0.03-0.02,0.06-0.03,0.09-0.05c0.06,0.02,0.12,0.05,0.18,0.07
				c-0.01-0.01-0.03-0.02-0.04-0.03c0.02,0.06,0.05,0.12,0.07,0.18c-0.01-0.16,0.5-0.46,0.61-0.55c0.24-0.17,0.5-0.33,0.78-0.43
				c0.44-0.16,0.98-0.16,1.37,0.13c0.98,0.72-0.05,2.23-0.74,2.75c-0.76,0.57-1.97,0.68-2.61-0.13c-0.68-0.85-0.17-2.29,0.18-3.19
				c0.45-1.16,1.15-2.2,2.04-3.07C377.83,271.54,377.48,271.19,377.25,271.41L377.25,271.41z"/>
		</g>
	</g>
	<g>
		<g>
			<path d="M364.55,280.75c3.16,0.02,6.32,0.04,9.49,0.07c1.54,0.01,3.08,0.02,4.62,0.03c0.75,0.01,1.5,0.01,2.25,0.02
				c0.5,0,1.16,0.13,1.62-0.09c0.1-0.05,0.14-0.18,0.11-0.28c-0.06-0.24-0.38-0.33-0.57-0.19c-0.26,0.18-0.01,0.62,0.25,0.43
				c-0.05-0.04-0.11-0.07-0.16-0.11c0.04-0.09,0.08-0.19,0.11-0.28c-0.26,0.12-0.74,0.03-1.03,0.02c-0.34,0-0.68,0-1.02-0.01
				c-0.73-0.01-1.47-0.01-2.2-0.02c-1.5-0.01-3-0.02-4.49-0.03c-3-0.02-5.99-0.04-8.99-0.06
				C364.22,280.25,364.22,280.75,364.55,280.75L364.55,280.75z"/>
		</g>
	</g>
	<g>
		<g>
			<path d="M368.54,285.64c2.02,2.42,3.74,5.08,5.11,7.92c0.12,0.26,0.54,0.08,0.46-0.19c-0.06-0.19-0.12-0.38-0.18-0.58
				c-0.1-0.31-0.58-0.18-0.48,0.13c0.06,0.19,0.12,0.38,0.18,0.58c0.15-0.06,0.3-0.13,0.46-0.19c-1.39-2.88-3.14-5.57-5.19-8.02
				C368.69,285.04,368.33,285.4,368.54,285.64L368.54,285.64z"/>
		</g>
	</g>
	<g>
		<g>
			<path d="M373.96,285.96c-2.49,2.98-4.87,6.04-7.15,9.18c-0.15,0.21,0.14,0.47,0.34,0.34c0.27-0.17,0.54-0.34,0.82-0.51
				c0.27-0.17,0.02-0.6-0.25-0.43c-0.27,0.17-0.54,0.34-0.82,0.51c0.11,0.11,0.23,0.23,0.34,0.34c2.25-3.11,4.61-6.14,7.07-9.08
				C374.52,286.07,374.17,285.71,373.96,285.96L373.96,285.96z"/>
		</g>
	</g>
	<g>
		<g>
			<path d="M379.33,283.95c-0.61-0.29-1.21-0.58-1.82-0.87c-0.41-0.2-1-0.6-1.38-0.15c-0.14,0.17-0.19,0.4-0.22,0.62
				c-0.05,0.31-0.08,0.61-0.11,0.92c-0.06,0.7-0.05,1.39,0.01,2.09c0.01,0.15,0.15,0.29,0.32,0.24c0.65-0.21,1.42-0.41,2.09-0.2
				c0.77,0.24,0.94,1.11,0.52,1.74c-0.47,0.72-1.47,0.84-2.25,0.69c-0.79-0.15-1.53-0.59-1.89-1.33c-0.14-0.29-0.57-0.04-0.43,0.25
				c0.68,1.41,2.68,2.02,4.09,1.41c0.68-0.3,1.17-0.93,1.22-1.68c0.04-0.71-0.42-1.32-1.08-1.54c-0.77-0.26-1.65-0.05-2.39,0.19
				c0.11,0.08,0.21,0.16,0.32,0.24c-0.09-1-0.12-2.1,0.11-3.08c0.03-0.11,0.04-0.25,0.2-0.26c0.08,0,0.28,0.12,0.36,0.16
				c0.22,0.11,0.44,0.21,0.66,0.32c0.48,0.23,0.96,0.46,1.44,0.68C379.37,284.52,379.62,284.09,379.33,283.95L379.33,283.95z"/>
		</g>
	</g>
</g>
</svg>
