<?xml version="1.0" encoding="UTF-8"?>
<svg id="Layer_2" data-name="Layer 2" xmlns="http://www.w3.org/2000/svg" viewBox="0 0 187.38 124.75">
  <defs>
    <style>
      .cls-1 {
        fill: #231f20;
      }

      .cls-2 {
        fill: #939598;
      }
    </style>
  </defs>
  <g id="Layer_1-2" data-name="Layer 1">
    <path class="cls-2" d="M112.65,75.15c0-.2.77-.36.9-.41.41-.14.82-.28,1.23-.41.76-.24,1.54-.46,2.34-.56.73-.09,1.51-.11,2.24-.01.16.02.35.05.48.1.09.04.05,0,.12.09.32.45.06,1.18-.11,1.64-.2.54-.48,1.07-.85,1.51-.73.86-1.74,1.43-2.79,1.8-.83.28-1.69.46-2.56.54l.25.93c1.55-1.16,3.45-1.68,5.38-1.57.89.05,2.05.3,2.31,1.3.31,1.22-.67,2.68-1.64,3.32-1.42.93-3.26.81-4.76.15-.58-.26-1.09.61-.5.86,1.61.71,3.45.93,5.1.21,1.44-.63,2.58-2.05,2.82-3.61.21-1.39-.52-2.51-1.83-2.97-1.06-.37-2.25-.32-3.35-.17-1.47.2-2.84.73-4.02,1.62-.35.26-.3.98.25.93,2.43-.22,5.07-1.06,6.49-3.18.66-1,1.51-2.88.58-3.96-.25-.29-.6-.41-.97-.48-.89-.15-1.82-.14-2.71-.03-1.12.14-2.2.47-3.26.83-.77.26-2.13.49-2.11,1.53,0,.64,1.01.64,1,0h0Z"/>
    <path class="cls-2" d="M125.66,72.51c-1.39,1.45-2.03,3.45-2.31,5.4-.24,1.67-.04,3.77,1.78,4.46,1.92.73,3.74-.69,4.6-2.31.97-1.8,1.28-4.14-.13-5.8-.64-.75-1.6-1.22-2.6-1.12-.93.09-1.81.6-2.23,1.45-.28.58.58,1.08.86.5.63-1.28,2.31-1.18,3.18-.22,1.15,1.27.84,3.17.12,4.57-.63,1.24-1.95,2.57-3.48,1.99-1.35-.51-1.29-2.33-1.1-3.49.28-1.7.8-3.45,2.02-4.72.45-.46-.26-1.17-.71-.71h0Z"/>
    <path class="cls-2" d="M133.25,69.13c-.89.11-1.29.86-1.58,1.63-.31.84-.5,1.85.04,2.64s1.48,1.05,2.27.51c.7-.49,1.12-1.36,1.3-2.18.22-.99.11-1.99-.3-2.92-.11-.25-.47-.3-.68-.18-.26.15-.29.44-.18.68.47,1.07.35,2.44-.33,3.4-.26.37-.69.66-1.07.33-.45-.39-.39-1.02-.24-1.53.09-.33.21-.66.37-.95.06-.12.12-.21.21-.3.06-.06.16-.12.19-.12.27-.03.5-.21.5-.5,0-.25-.23-.53-.5-.5h0Z"/>
    <path class="cls-2" d="M131.82,77.85c1.51-1.19,3.38-1.93,5.29-2.09.64-.05.64-1.05,0-1-2.2.19-4.27,1.01-6,2.38-.21.17-.18.53,0,.71.21.21.49.17.71,0h0Z"/>
    <path class="cls-2" d="M29.56,22.04c-1.99,1.33-3.15,3.47-3.76,5.74s-1.14,5.17.54,7.03c.75.83,1.91,1.29,3.01.97,1.17-.35,2.19-1.35,2.95-2.27s1.55-2.03,1.77-3.19c.2-1.02-.4-1.91-1.45-2.01-1.31-.13-2.73.68-3.81,1.32-.66.38-1.3.82-1.89,1.31-.4.33-.79.85-.42,1.35s1.25.01.86-.5c-.02-.03,2.21-1.44,2.42-1.56.75-.4,1.65-.91,2.52-.93,2.14-.05-.86,3.72-1.42,4.26-.63.61-1.48,1.41-2.43,1.33s-1.66-.85-1.97-1.68c-.63-1.69-.13-3.84.36-5.51.56-1.88,1.53-3.67,3.19-4.78.53-.36.03-1.22-.5-.86h0Z"/>
    <path class="cls-2" d="M38.66,22.8c-1.35,1.62-2.29,3.55-2.65,5.64-.31,1.81-.5,4.47,1.31,5.59s3.62-.81,4.27-2.39c.38-.93.55-1.92.63-2.91s.12-2.07-.13-3.06-.83-1.86-1.78-2.28c-.88-.4-1.82-.34-2.58.27-.5.41.21,1.11.71.71s1.19-.26,1.68.05c.65.4.95,1.13,1.08,1.86.25,1.45.08,3.18-.37,4.57-.38,1.16-1.78,3.42-3.21,2.16-.62-.55-.75-1.43-.78-2.22s.04-1.63.21-2.43c.37-1.78,1.16-3.45,2.33-4.85.41-.49-.29-1.2-.71-.71h0Z"/>
    <path class="cls-2" d="M45.27,22.48c-.55.51-.97,1.15-1.24,1.85s-.38,1.56-.01,2.25c.32.6,1.11.98,1.77.73.77-.29.96-1.21,1.08-1.94.17-.95.17-1.91.01-2.86-.04-.27-.38-.42-.62-.35-.28.08-.39.35-.35.62.1.62.11,1.27.05,1.89-.03.31-.09.62-.16.93-.06.24-.11.52-.24.69,0,0-.08.08-.07.07.02-.02-.04.02-.04.02,0,0,.06-.02,0,0-.07.03-.1.03-.16.01-.18-.05-.3-.12-.37-.25-.26-.43-.11-1,.05-1.44.2-.58.56-1.09,1.01-1.5.2-.18.19-.52,0-.71-.2-.2-.51-.18-.71,0h0Z"/>
    <path class="cls-2" d="M44.43,29.56c1.18-.55,2.45-.92,3.74-1.11.27-.04.41-.38.35-.62-.08-.29-.35-.39-.62-.35-1.38.2-2.71.62-3.98,1.21-.24.11-.31.47-.18.68.15.25.44.29.68.18h0Z"/>
    <path class="cls-1" d="M1.54,49.13l6.34-8.12-.79-.1c1.46,2.5,1.17,5.73.96,8.5-.24,3.21-.8,6.37-1.44,9.52l.98.13c.03-.27.13-.45.29-.67.38-.52-.49-1.02-.86-.5-.27.36-.38.73-.42,1.17-.06.56.87.68.98.13.68-3.31,1.26-6.65,1.5-10.03.21-2.9.4-6.16-1.12-8.76-.15-.25-.58-.36-.79-.1L.83,48.43c-.39.5.31,1.21.71.71h0Z"/>
    <path class="cls-1" d="M.04,60.76c-.17,1.25,1.42.93,2.17.82,1.31-.19,2.59-.53,3.85-.9,2.56-.74,5.1-1.62,7.79-1.73l-.13-.98c-.2.06-.41.11-.61.17-.62.17-.36,1.14.27.96.2-.06.41-.11.61-.17.53-.15.44-1-.13-.98-2.22.09-4.35.66-6.46,1.29-1.06.32-2.11.64-3.19.91-.53.13-1.07.25-1.61.35-.32.06-.63.11-.95.15-.06,0-.71.1-.71.1l.05.39.02-.12c.09-.63-.88-.9-.96-.27H.04Z"/>
    <path class="cls-1" d="M97.96,21.33c2.68-1.71,6.33-2.01,9.15-.44,3.15,1.75,1.57,5.64-.24,7.78s-4.47,3.75-6.94,5.27c-.75.46-2.93,1.38-2.06,2.59s2.97.27,4.01-.09c3.93-1.35,8.03-2.19,12.17-2.48.64-.05.64-1.05,0-1-3.68.26-7.33.92-10.86,2-.88.27-1.75.6-2.63.87-.37.11-.75.22-1.13.24-.1,0-.54.06-.61-.04-.16-.24.34-.43.48-.52,1.24-.78,2.5-1.52,3.73-2.33,2.39-1.57,4.75-3.45,6.06-6.05.64-1.27,1-2.74.74-4.16s-1.23-2.45-2.48-3.08c-3.12-1.56-6.98-1.28-9.9.58-.54.34-.04,1.21.5.86h0Z"/>
    <path class="cls-1" d="M87.31,119.27c1.28-1,2.38-2.14,3.43-3.36.15-.17.3-.39.51-.5.07-.04.22,0,.11-.02.11.01.22.1.37.25.75.75,1.24,1.82,1.72,2.75.8,1.53,1.52,3.1,2.18,4.69.16.4.87.55.96,0,1.23-7.35.38-14.89-2.38-21.81l-.62.62c5.09,1.07,10.18-.22,15.15-1.3,1.29-.28,2.6-.58,3.91-.77.32-.05.66-.11.81.23.07.16.05.41.05.59,0,.26-.01.51-.03.77-.11,1.54-.34,3.07-.56,4.6-.18,1.24-.38,2.48-.59,3.72-.11.63.86.9.96.27.47-2.79.96-5.6,1.18-8.42.05-.65.14-1.43-.13-2.04-.48-1.08-1.84-.69-2.75-.53-2.78.5-5.51,1.21-8.28,1.72-3.11.57-6.31.87-9.44.21-.33-.07-.77.23-.62.62,2.69,6.74,3.58,14.1,2.38,21.27h.96c-.75-1.81-1.56-3.58-2.48-5.31-.5-.93-1.03-2.06-1.87-2.75-.57-.47-1.26-.48-1.83.03-.68.61-1.22,1.41-1.87,2.06-.61.61-1.26,1.18-1.95,1.72-.51.4.21,1.1.71.71h0Z"/>
    <path class="cls-1" d="M99.73,106.7v.06c.12-.16.24-.32.37-.48h.13c.1.08.2.15.3.23l-.03-.06v.5c-.05.09.44-.03.55-.04.3-.05.61-.09.92-.12.55-.06,1.09-.12,1.64-.15.84-.06,1.94-.24,2.72.2,1.02.58.52,1.87-.14,2.52-.53.52-1.63.87-1.79,1.66-.18.89.82,1.48,1.45,1.87.83.51,1.74.92,2.43,1.62s.99,1.61.52,2.5c-.39.74-1.16,1.25-1.91,1.59-1.9.85-4.04.73-5.75,2.07-.51.4.21,1.1.71.71,1.87-1.46,4.54-1.07,6.48-2.44,1.74-1.23,2.29-3.31.79-4.98-.79-.88-1.88-1.35-2.86-1.97-.22-.14-.74-.39-.78-.68-.03-.22.05-.2.23-.32.14-.09.27-.18.41-.27.44-.31.86-.66,1.18-1.09.61-.81.86-1.97.32-2.88-.51-.86-1.52-1.11-2.45-1.14-1.45-.05-2.94.16-4.38.37-.45.07-1.14.1-1.21.69-.06.45.39.74.79.61.21-.06.37-.26.37-.48v-.06c0-.64-.99-.64-1,0h0Z"/>
    <g>
      <path class="cls-2" d="M33.55,10.76c-.27,1.42-1.11,2.33-2.24,3.18-1.22.92-2.44,1.86-3.71,2.7s-2.49.98-3.96,1.01c-1.69.03-3.37.06-5.06.08-1.29.02-1.29,2.02,0,2,1.84-.03,3.67-.04,5.51-.09,1.73-.05,3.25-.4,4.69-1.39s2.75-1.96,4.08-3,2.3-2.3,2.61-3.96c.24-1.26-1.69-1.8-1.93-.53h0Z"/>
      <path class="cls-2" d="M37.26,88.2l.99-14.29c.04-.54-.49-1-1-1-5.02.01-9.91-1.84-14.93-.86-1.26.25-.73,2.18.53,1.93,4.79-.94,9.6.94,14.4.93l-1-1-.99,14.29c-.09,1.28,1.91,1.28,2,0h0Z"/>
      <path class="cls-1" d="M184.82,91.38c-9.01-6.58-18.47-12.56-28.31-17.81-3.96-2.11-7.98-4.1-12.04-6.02-4.18-1.98-8.24-4.2-12.33-6.35-12.08-6.34-24.13-12.72-36.18-19.13s-24.14-12.89-36.18-19.38S35.78,9.72,23.81,3.18c-1.45-.79-2.9-1.58-4.35-2.38-.67-.37-1.49.09-1.5.86-.2,11.27-.14,22.54.17,33.81.33,11.82.94,23.63,1.84,35.42.49,6.45,1.06,12.88,1.72,19.31.05.5.42,1.06,1,1,12.08-1.15,24.27-1.18,36.35,0,4.43.43,8.84,1.04,13.27,1.47s8.52.69,12.78.83c8.4.27,16.8.01,25.2-.22,11.46-.32,22.92-.51,34.39-.39,12.05.13,24.09.33,36.13.35,1.17,0,2.34,0,3.51,0,1.29,0,1.29-2,0-2-11.61,0-23.23-.09-34.84-.28s-23.85-.09-35.78.23c-8.56.23-17.13.56-25.69.39-4.17-.08-8.33-.28-12.49-.62s-8.66-.9-12.99-1.38c-12.2-1.37-24.5-1.6-36.74-.64-1.04.08-2.08.17-3.12.27l1,1c-1.19-11.63-2.1-23.29-2.74-34.96-.63-11.62-1-23.26-1.08-34.9-.05-6.23-.01-12.46.1-18.69l-1.5.86c11.97,6.54,23.96,13.05,35.96,19.53s24.1,12.96,36.17,19.4,24.09,12.8,36.16,19.15c3.04,1.6,6.07,3.19,9.11,4.79,1.97,1.03,3.92,2.11,5.92,3.07,3.41,1.64,6.83,3.25,10.2,4.98,10.29,5.27,20.18,11.32,29.59,18.03.75.54,1.51,1.08,2.25,1.63.44.32,1.12.07,1.37-.36.3-.51.08-1.05-.36-1.37Z"/>
    </g>
  </g>
</svg>