<?xml version="1.0" encoding="UTF-8"?>
<svg id="Layer_2" data-name="Layer 2" xmlns="http://www.w3.org/2000/svg" viewBox="0 0 216.46 193.18">
  <defs>
    <style>
      .cls-1 {
        fill: #414042;
      }

      .cls-2 {
        fill: #00aeef;
      }

      .cls-3 {
        fill: #a7a9ac;
      }
    </style>
  </defs>
  <g id="Layer_1-2" data-name="Layer 1">
    <g>
      <path class="cls-3" d="M14.2,91.29c-2.71,2.33-5.41,4.67-8.12,7-1.32,1.14-2.64,2.28-3.97,3.42-1.06.92-2.47,2-2.03,3.6.22.79.88,1.35,1.45,1.9.46.44.92.88,1.38,1.32,1.49,1.43,2.97,2.86,4.45,4.29,2.49,2.42,4.97,4.86,7.43,7.32.91.91,2.33-.5,1.41-1.41-3.66-3.65-7.35-7.26-11.08-10.83-.84-.81-1.69-1.61-2.53-2.43-.2-.19-.62-.47-.61-.78.02-.48.94-1.06,1.25-1.32,1.29-1.11,2.58-2.23,3.87-3.34,2.83-2.44,5.67-4.88,8.5-7.33.98-.84-.44-2.25-1.41-1.41h0Z"/>
      <path class="cls-3" d="M1,106c9.87-.44,19.75-.75,29.63-.95,8.98-.18,17.96-.26,26.94-.23,6.02.01,12.04.08,18.06.19,3.26.06,6.51.14,9.77.19,3.82.06,7.64.11,11.46.14,4.8.04,9.59.06,14.39.07,5.89.01,11.78,0,17.67-.02,7.17-.02,14.34-.07,21.5-.13,8.53-.07,17.06-.16,25.59-.26,10.1-.12,20.2-.26,30.29-.41,2.7-.04,5.4-.08,8.09-.12,1.29-.02,1.29-2.02,0-2-10.49.17-20.98.32-31.48.45-8.92.11-17.84.21-26.76.29-7.46.07-14.93.12-22.39.16-6.18.03-12.36.04-18.55.04-5.05,0-10.11-.02-15.16-.05-4.04-.03-8.09-.07-12.13-.13-3.16-.05-6.32-.11-9.47-.18-5.23-.11-10.45-.18-15.68-.22-8.31-.06-16.61-.03-24.92.09-10.46.14-20.92.42-31.37.84-1.83.07-3.67.15-5.5.23-1.28.06-1.29,2.06,0,2h0Z"/>
      <path class="cls-3" d="M198.33,93.1c3.47,1.71,6.89,3.57,10.17,5.63,1.7,1.07,3.48,2.18,4.88,3.63.42.44.88.96,1.03,1.56.17.69-.3,1.16-.83,1.53-1.47,1.03-3.21,1.79-4.81,2.62-3.84,2.01-7.73,3.94-11.66,5.78-1.16.55-.15,2.27,1.01,1.73,3.71-1.74,7.38-3.56,11.02-5.45,1.74-.9,3.55-1.75,5.21-2.8,1.53-.97,2.58-2.5,1.85-4.34-.87-2.19-3.24-3.71-5.11-4.97-2.15-1.45-4.41-2.75-6.68-4-1.67-.92-3.36-1.81-5.07-2.66-1.15-.57-2.16,1.16-1.01,1.73h0Z"/>
      <path class="cls-3" d="M93.15,19.16c1.44-5.19,3.44-10.21,6.03-14.93.36-.66.98-2.35,1.95-2.22,1.12.15,2.08,1.56,2.73,2.35,1.28,1.54,2.27,3.2,3.07,5.04,1.06,2.45,1.89,5.01,2.55,7.6.32,1.25,2.25.72,1.93-.53-.66-2.61-1.51-5.15-2.56-7.63-.9-2.13-2.03-4.01-3.5-5.81-.88-1.08-1.84-2.24-3.16-2.78s-2.62-.14-3.49.95-1.51,2.47-2.15,3.72c-.69,1.36-1.34,2.73-1.95,4.13-1.34,3.11-2.47,6.3-3.38,9.57-.34,1.24,1.59,1.77,1.93.53h0Z"/>
      <path class="cls-3" d="M100.32,2.33c-.45,12.87,1.86,25.58,3.25,38.32s1.88,25.84,1.91,38.79-.37,25.89-.74,38.83-.75,26.12-1.12,39.18c-.19,6.53-.37,13.06-.56,19.59-.09,3.24-.19,6.49-.28,9.73l-.07,2.5c-.02.68-.11,1.42.09,2.08.37,1.27,2.17,1.85,2.69.35.38-1.11-.51-2.23-1.67-1.67s-.15,2.28,1.01,1.73l.08-.04-.5.14h.06c-.17-.05-.34-.09-.5-.14l-.11-.08-.26-.44c.03.1.04.09,0-.03,0-.23.14-.4.43-.5h.53c.24.04.08.22.16.08,0,0-.03-.35-.03-.31-.01-.3.01-.61.02-.91l.07-2.5c.04-1.54.09-3.08.13-4.62.09-3.12.18-6.24.27-9.36.18-6.24.36-12.48.53-18.72.35-12.4.71-24.79,1.06-37.19.35-12.36.73-24.72.71-37.08s-.42-24.51-1.63-36.71-3.45-24.24-3.59-36.48c-.02-1.51,0-3.02.06-4.53.05-1.29-1.95-1.29-2,0h0Z"/>
      <path class="cls-3" d="M96.14,180.29c1.93,4.42,4.65,8.44,7.86,12.03.47.53,1.21.28,1.57-.2,1.41-1.85,2.12-4.04,2.92-6.19.67-1.83,1.7-3.49,2.96-4.97.83-.97-.58-2.4-1.41-1.41-1.39,1.63-2.51,3.39-3.3,5.38-.85,2.15-1.47,4.32-2.89,6.19l1.57-.2c-3.09-3.47-5.68-7.36-7.55-11.62-.22-.5-.94-.61-1.37-.36-.51.3-.58.87-.36,1.37h0Z"/>
      <path class="cls-1" d="M86.18,35c8.86-1.82,17.97-1.55,26.77.47,5.81,1.34,11.41,3.4,16.94,5.61s11.07,4.93,16.12,8.28c6.94,4.61,13.04,10.41,17.92,17.16,3.14,4.34,5.96,8.89,8.13,13.8,3.33,7.53,5.1,15.71,5.07,23.94-.01,4.48-.64,8.97-1.67,13.32-1.98,8.36-5.61,16.33-10.86,23.15-5.19,6.75-12.01,12.28-19.22,16.76-5.83,3.62-12.13,6.6-18.71,8.56-7.7,2.3-15.84,3.09-23.85,2.55-7.17-.48-14.23-2.05-21.03-4.36-4.71-1.6-9.41-3.4-13.95-5.44-6.02-2.71-11.8-6.05-16.77-10.42-6.16-5.41-10.72-12.23-13.38-19.99-2.27-6.62-3.41-13.75-3.93-20.72-.59-7.99.04-16.06,2.1-23.81,1.63-6.11,4.12-11.96,7.34-17.39,3.49-5.88,7.8-11.27,12.85-15.9,6.53-5.98,14.28-10.6,22.65-13.5,2.45-.85,4.94-1.55,7.48-2.08.63-.13.36-1.09-.27-.96-7.25,1.51-14.26,4.38-20.56,8.26-6.88,4.24-12.93,9.75-17.88,16.13-3.35,4.32-6.23,9.01-8.52,13.98-3.6,7.78-5.7,16.19-6.25,24.74-.41,6.31.09,12.58,1.05,18.81,1.37,8.85,3.91,17.57,9.17,24.93,4.25,5.95,9.88,10.74,16.12,14.48,5.06,3.03,10.5,5.35,16,7.45s10.71,3.91,16.31,5.13c8.47,1.84,17.22,2.33,25.81,1.15,6.23-.86,12.2-2.62,17.96-5.12,7.72-3.35,14.86-7.91,21.29-13.33,7.07-5.96,12.7-13.44,16.39-21.93,2.74-6.3,4.47-13.05,5.1-19.89.56-6.1.07-12.3-1.34-18.26-1.6-6.81-4.43-13.29-8.13-19.21s-7.84-11.14-12.83-15.75c-5.37-4.97-11.52-9.05-18.08-12.27-4.74-2.33-9.7-4.25-14.68-6.01-7.38-2.61-15.06-4.36-22.9-4.56-4.71-.13-9.42.31-14.03,1.25-.63.13-.36,1.09.27.96Z"/>
    </g>
    <g>
      <path class="cls-2" d="M164.78,67.82s.04-.16,0-.06c.04-.11-.04.03.03-.05.03-.03.06-.05.11-.06.14-.04.21-.05.33.03.27.19.29.65.19.97-.1.34-.42.69-.73.82-.17.07-.35.1-.45.09s-.21-.05-.25-.07c-.03-.02-.06-.03-.09-.05-.03-.02-.06-.04-.09-.06.03.03.03.02-.02-.02-.26-.24-.37-.57-.37-.93,0-.39.1-.7.35-1.04.3-.4.74-.69,1.18-.93.21-.11.43-.23.65-.31l.07-.02c.09-.02.1-.02.02-.01,0,0-.1-.07-.1-.07v-.02s.02.07.02.11c0-.04,0,.12,0,.15-.02.47-.18.94-.43,1.34-.23.38-.6.84-1.04.97-.14.04-.29.04-.37-.06-.02-.02-.03-.05-.03-.09,0-.09.07-.19.13-.26.15-.19.38-.36.6-.44.21-.08.37-.06.53.03.31.17.44.51.3.79-.08.16-.2.28-.37.35-.14.06-.31.05-.46-.04-.31-.17-.45-.5-.3-.85.21-.47.72-.69,1.17-.83.15-.05.31-.09.46-.13,0,0,.27-.06.14-.09,0,0,.04.07.02.02,0,.02.05.18.04.14.02.14,0,.29,0,.44-.01.27-.03.6-.2.83-.05.07-.12.13-.19.17-.09.04-.14.04-.2.02.08.03-.06-.03-.06-.04.08.06-.1-.11-.04-.04-.02-.03-.04-.06-.06-.09-.01-.02-.08-.16-.07-.13-.05-.12-.08-.26-.11-.39-.01-.05-.02-.09-.03-.14,0-.02-.02-.18-.02-.11,0-.06-.01-.11,0-.17,0-.06,0-.07,0-.03.02-.06.02-.07,0-.02l-.07.08c-.08.06-.13.07-.16.02,0-.03.12.09.11.08.11.11.18.24.28.35.14.14.29.23.47.3.25.1.55-.11.62-.35.08-.28-.1-.51-.35-.62-.05-.02-.18-.24-.23-.3-.15-.18-.34-.34-.57-.41-.46-.15-.93.11-1.06.58-.09.34-.02.73.06,1.06s.23.7.47.97c.62.69,1.65.4,2.1-.32.24-.39.3-.86.32-1.3.02-.37,0-.78-.2-1.1-.28-.43-.76-.49-1.23-.38-.41.1-.82.22-1.2.41-.75.37-1.37,1.15-1.25,2.02.11.79.85,1.45,1.66,1.42s1.52-.73,1.57-1.56-.59-1.54-1.36-1.67c-.84-.14-1.79.43-2.13,1.2-.19.44-.16.96.2,1.31.32.32.78.42,1.21.35.78-.14,1.43-.86,1.81-1.52.2-.35.35-.73.44-1.12.08-.37.14-.79.03-1.16-.15-.48-.59-.75-1.08-.64-.38.09-.78.31-1.13.5-.67.37-1.33.9-1.67,1.6-.3.61-.36,1.35-.12,1.99s.76,1.18,1.46,1.28c.77.11,1.51-.27,1.97-.87s.62-1.48.29-2.2-1.17-1.03-1.88-.68c-.3.15-.55.44-.61.78-.05.27.07.54.35.62.24.07.57-.08.62-.35h0Z"/>
      <g>
        <path class="cls-2" d="M172.93,55.4c-1.43,2.72-2.5,5.61-3.2,8.61-.08.33.15.62.48.63,1.06.05,1.89-.58,2.67-1.21.91-.74,1.88-1.38,2.96-1.85s2.16-.75,3.28-.88c1.05-.12,2.14.08,3.16-.22.62-.18.35-1.15-.27-.96-.97.29-2.07.08-3.09.21-1.08.14-2.13.4-3.14.81s-1.91.89-2.75,1.51-1.69,1.66-2.82,1.6l.48.63c.68-2.91,1.71-5.72,3.1-8.37.3-.57-.56-1.08-.86-.5h0Z"/>
        <path class="cls-2" d="M177.57,53.73c-.99,4.71-1.79,9.46-2.4,14.23-.08.64.92.63,1,0,.6-4.68,1.39-9.34,2.36-13.96.13-.63-.83-.9-.96-.27h0Z"/>
        <path class="cls-2" d="M186.42,55.27c-1.29,1.78-2.16,3.84-2.52,6.01-.26,1.58-.57,3.97.9,5.09.78.59,1.83.54,2.67.1s1.46-1.32,1.91-2.15c.99-1.81,1.61-4.06,1.29-6.13-.15-1.01-.63-1.98-1.5-2.54-.83-.54-1.91-.64-2.77-.11-.55.34-.04,1.2.5.86.6-.37,1.35-.23,1.89.2.59.47.85,1.24.92,1.97.18,1.69-.31,3.51-1.07,5-.35.68-.77,1.41-1.41,1.87s-1.55.57-2.07-.09c-.41-.52-.47-1.27-.47-1.9,0-.82.1-1.64.26-2.44.39-1.9,1.19-3.67,2.32-5.23.38-.52-.49-1.02-.86-.5h0Z"/>
        <path class="cls-2" d="M194.94,53.4c-.62.92-1.11,1.92-1.46,2.98-.26.79-.47,1.79.02,2.54.25.38.67.61,1.14.61.54,0,1.04-.34,1.38-.73.56-.66.84-1.52.8-2.38-.04-.97-.45-1.94-1.21-2.56-.21-.17-.5-.2-.71,0-.18.18-.21.54,0,.71.94.77,1.21,2.21.58,3.26-.15.26-.37.53-.66.66-.24.1-.42.03-.51-.14-.28-.51-.02-1.25.16-1.78.32-.94.77-1.83,1.33-2.65.36-.54-.51-1.04-.86-.5h0Z"/>
        <path class="cls-2" d="M193.47,62.42c1.04-.66,2.3-.75,3.44-.27.25.1.55-.11.62-.35.08-.29-.1-.51-.35-.62-1.35-.57-2.98-.41-4.21.37-.23.14-.32.44-.18.68s.46.32.68.18h0Z"/>
      </g>
    </g>
  </g>
</svg>