<?xml version="1.0" encoding="UTF-8"?>
<svg id="Layer_2" data-name="Layer 2" xmlns="http://www.w3.org/2000/svg" viewBox="0 0 216.46 193.18">
  <defs>
    <style>
      .cls-1 {
        fill: #414042;
      }

      .cls-2 {
        fill: #ed1c24;
      }

      .cls-3 {
        fill: #a7a9ac;
      }
    </style>
  </defs>
  <g id="Layer_1-2" data-name="Layer 1">
    <g>
      <path class="cls-3" d="M14.2,91.29c-2.71,2.33-5.41,4.67-8.12,7-1.32,1.14-2.64,2.28-3.97,3.42-1.06.92-2.47,2-2.03,3.6.22.79.88,1.35,1.45,1.9.46.44.92.88,1.38,1.32,1.49,1.43,2.97,2.86,4.45,4.29,2.49,2.42,4.97,4.86,7.43,7.32.91.91,2.33-.5,1.41-1.41-3.66-3.65-7.35-7.26-11.08-10.83-.84-.81-1.69-1.61-2.53-2.43-.2-.19-.62-.47-.61-.78.02-.48.94-1.06,1.25-1.32,1.29-1.11,2.58-2.23,3.87-3.34,2.83-2.44,5.67-4.88,8.5-7.33.98-.84-.44-2.25-1.41-1.41h0Z"/>
      <path class="cls-3" d="M1,106c9.87-.44,19.75-.75,29.63-.95,8.98-.18,17.96-.26,26.94-.23,6.02.01,12.04.08,18.06.19,3.26.06,6.51.14,9.77.19,3.82.06,7.64.11,11.46.14,4.8.04,9.59.06,14.39.07,5.89.01,11.78,0,17.67-.02,7.17-.02,14.34-.07,21.5-.13,8.53-.07,17.06-.16,25.59-.26,10.1-.12,20.2-.26,30.29-.41,2.7-.04,5.4-.08,8.09-.12,1.29-.02,1.29-2.02,0-2-10.49.17-20.98.32-31.48.45-8.92.11-17.84.21-26.76.29-7.46.07-14.93.12-22.39.16-6.18.03-12.36.04-18.55.04-5.05,0-10.11-.02-15.16-.05-4.04-.03-8.09-.07-12.13-.13-3.16-.05-6.32-.11-9.47-.18-5.23-.11-10.45-.18-15.68-.22-8.31-.06-16.61-.03-24.92.09-10.46.14-20.92.42-31.37.84-1.83.07-3.67.15-5.5.23-1.28.06-1.29,2.06,0,2h0Z"/>
      <path class="cls-3" d="M198.33,93.1c3.47,1.71,6.89,3.57,10.17,5.63,1.7,1.07,3.48,2.18,4.88,3.63.42.44.88.96,1.03,1.56.17.69-.3,1.16-.83,1.53-1.47,1.03-3.21,1.79-4.81,2.62-3.84,2.01-7.73,3.94-11.66,5.78-1.16.55-.15,2.27,1.01,1.73,3.71-1.74,7.38-3.56,11.02-5.45,1.74-.9,3.55-1.75,5.21-2.8,1.53-.97,2.58-2.5,1.85-4.34-.87-2.19-3.24-3.71-5.11-4.97-2.15-1.45-4.41-2.75-6.68-4-1.67-.92-3.36-1.81-5.07-2.66-1.15-.57-2.16,1.16-1.01,1.73h0Z"/>
      <path class="cls-3" d="M93.15,19.16c1.44-5.19,3.44-10.21,6.03-14.93.36-.66.98-2.35,1.95-2.22,1.12.15,2.08,1.56,2.73,2.35,1.28,1.54,2.27,3.2,3.07,5.04,1.06,2.45,1.89,5.01,2.55,7.6.32,1.25,2.25.72,1.93-.53-.66-2.61-1.51-5.15-2.56-7.63-.9-2.13-2.03-4.01-3.5-5.81-.88-1.08-1.84-2.24-3.16-2.78s-2.62-.14-3.49.95-1.51,2.47-2.15,3.72c-.69,1.36-1.34,2.73-1.95,4.13-1.34,3.11-2.47,6.3-3.38,9.57-.34,1.24,1.59,1.77,1.93.53h0Z"/>
      <path class="cls-3" d="M100.32,2.33c-.45,12.87,1.86,25.58,3.25,38.32s1.88,25.84,1.91,38.79-.37,25.89-.74,38.83-.75,26.12-1.12,39.18c-.19,6.53-.37,13.06-.56,19.59-.09,3.24-.19,6.49-.28,9.73l-.07,2.5c-.02.68-.11,1.42.09,2.08.37,1.27,2.17,1.85,2.69.35.38-1.11-.51-2.23-1.67-1.67s-.15,2.28,1.01,1.73l.08-.04-.5.14h.06c-.17-.05-.34-.09-.5-.14l-.11-.08-.26-.44c.03.1.04.09,0-.03,0-.23.14-.4.43-.5h.53c.24.04.08.22.16.08,0,0-.03-.35-.03-.31-.01-.3.01-.61.02-.91l.07-2.5c.04-1.54.09-3.08.13-4.62.09-3.12.18-6.24.27-9.36.18-6.24.36-12.48.53-18.72.35-12.4.71-24.79,1.06-37.19.35-12.36.73-24.72.71-37.08s-.42-24.51-1.63-36.71-3.45-24.24-3.59-36.48c-.02-1.51,0-3.02.06-4.53.05-1.29-1.95-1.29-2,0h0Z"/>
      <path class="cls-3" d="M96.14,180.29c1.93,4.42,4.65,8.44,7.86,12.03.47.53,1.21.28,1.57-.2,1.41-1.85,2.12-4.04,2.92-6.19.67-1.83,1.7-3.49,2.96-4.97.83-.97-.58-2.4-1.41-1.41-1.39,1.63-2.51,3.39-3.3,5.38-.85,2.15-1.47,4.32-2.89,6.19l1.57-.2c-3.09-3.47-5.68-7.36-7.55-11.62-.22-.5-.94-.61-1.37-.36-.51.3-.58.87-.36,1.37h0Z"/>
      <path class="cls-1" d="M86.18,35c8.86-1.82,17.97-1.55,26.77.47,5.81,1.34,11.41,3.4,16.94,5.61s11.07,4.93,16.12,8.28c6.94,4.61,13.04,10.41,17.92,17.16,3.14,4.34,5.96,8.89,8.13,13.8,3.33,7.53,5.1,15.71,5.07,23.94-.01,4.48-.64,8.97-1.67,13.32-1.98,8.36-5.61,16.33-10.86,23.15-5.19,6.75-12.01,12.28-19.22,16.76-5.83,3.62-12.13,6.6-18.71,8.56-7.7,2.3-15.84,3.09-23.85,2.55-7.17-.48-14.23-2.05-21.03-4.36-4.71-1.6-9.41-3.4-13.95-5.44-6.02-2.71-11.8-6.05-16.77-10.42-6.16-5.41-10.72-12.23-13.38-19.99-2.27-6.62-3.41-13.75-3.93-20.72-.59-7.99.04-16.06,2.1-23.81,1.63-6.11,4.12-11.96,7.34-17.39,3.49-5.88,7.8-11.27,12.85-15.9,6.53-5.98,14.28-10.6,22.65-13.5,2.45-.85,4.94-1.55,7.48-2.08.63-.13.36-1.09-.27-.96-7.25,1.51-14.26,4.38-20.56,8.26-6.88,4.24-12.93,9.75-17.88,16.13-3.35,4.32-6.23,9.01-8.52,13.98-3.6,7.78-5.7,16.19-6.25,24.74-.41,6.31.09,12.58,1.05,18.81,1.37,8.85,3.91,17.57,9.17,24.93,4.25,5.95,9.88,10.74,16.12,14.48,5.06,3.03,10.5,5.35,16,7.45s10.71,3.91,16.31,5.13c8.47,1.84,17.22,2.33,25.81,1.15,6.23-.86,12.2-2.62,17.96-5.12,7.72-3.35,14.86-7.91,21.29-13.33,7.07-5.96,12.7-13.44,16.39-21.93,2.74-6.3,4.47-13.05,5.1-19.89.56-6.1.07-12.3-1.34-18.26-1.6-6.81-4.43-13.29-8.13-19.21s-7.84-11.14-12.83-15.75c-5.37-4.97-11.52-9.05-18.08-12.27-4.74-2.33-9.7-4.25-14.68-6.01-7.38-2.61-15.06-4.36-22.9-4.56-4.71-.13-9.42.31-14.03,1.25-.63.13-.36,1.09.27.96Z"/>
    </g>
    <g>
      <g>
        <path class="cls-2" d="M178.97,77.24c1.12-.57,2.42-1.21,3.71-.9,1.2.28,1.85,1.27,1.6,2.48s-1.04,2.32-1.8,3.28c-.8,1.02-1.72,1.93-2.73,2.75-.45.37.13,1.05.61.79,2.17-1.2,4.65-1.68,7.12-1.4.64.07.63-.93,0-1-2.63-.29-5.3.26-7.62,1.54l.61.79c1.21-.98,2.28-2.11,3.2-3.36.86-1.17,1.77-2.61,1.67-4.12-.09-1.39-1.11-2.42-2.45-2.71-1.56-.34-3.05.33-4.42,1.02-.57.29-.07,1.16.5.86h0Z"/>
        <path class="cls-2" d="M193.09,74.25c-1.38-.44-2.78.78-3.59,1.78-1.2,1.49-1.37,3.35-1.23,5.2.07.91.27,1.87.96,2.52.75.71,1.93.97,2.91.61.9-.33,1.36-1.14,1.76-1.96.37-.76.7-1.54.86-2.38.22-1.14.14-2.28-.09-3.41-.2-.98-.6-1.95-1.58-2.35-.59-.25-.85.72-.27.96s.76,1.11.88,1.66c.17.81.26,1.64.16,2.46-.08.7-.3,1.4-.59,2.04-.27.6-.54,1.34-1.04,1.78-.6.53-1.59.45-2.19-.03s-.72-1.26-.77-1.96c-.1-1.38-.08-2.8.67-4.02.29-.48.68-.89,1.1-1.25.47-.41,1.14-.88,1.79-.68.61.2.88-.77.27-.96Z"/>
        <path class="cls-2" d="M197.17,72.91c-.46.65-.65,1.44-.63,2.23.01.39.06.8.24,1.15.23.43.69.63,1.16.48.51-.17.91-.62,1.21-1.04.29-.4.48-.88.57-1.36s.11-.97.03-1.45c-.06-.35-.18-.73-.44-.98-.79-.76-1.72.38-2.15.98-.16.22-.04.56.18.68.25.15.53.04.68-.18.02-.03.04-.06.07-.09.01-.02.03-.03.04-.05.07-.1-.07.09.01-.02.1-.12.19-.23.3-.34.05-.05.1-.1.16-.14.07-.05-.09.06.02-.02.02-.02.05-.03.07-.05l.04-.02s.05-.02.01,0h-.02c.06,0,.05,0-.03,0,.09.03-.03-.01-.03-.01.1.05-.1-.06-.02-.01.08.05-.09-.08-.02-.01.03.03.03.05-.02-.03.03.05.06.1.09.14.01.02.03.08,0-.02.01.03.02.06.03.1.02.08.04.16.06.23.02.1.03.18.03.36,0,.09,0,.18,0,.27,0,.04,0,.07,0,.11,0,.04,0,.08-.01.11,0-.03,0-.03,0,0-.1.68-.44,1.41-.99,1.77-.03.02-.2.1-.12.08h-.04c-.06.03-.06.03,0,.02h-.02s-.03,0,.03,0c-.09-.05.01,0,.02.01-.1-.06.1.06,0,0,.02.01.05.09.01.02-.01-.03-.04-.07-.05-.1.05.11-.02-.08-.03-.11-.02-.06-.03-.13-.04-.19-.01-.08,0,.12,0-.02,0-.03,0-.06,0-.08,0-.08-.01-.16-.01-.24-.02-.65.13-1.18.49-1.68.16-.22.04-.56-.18-.68-.25-.15-.53-.04-.68.18Z"/>
        <path class="cls-2" d="M196.53,79.69c1.22-.97,2.9-1.32,4.41-.96.63.15.89-.82.27-.96-1.89-.45-3.87.02-5.38,1.22-.21.17-.18.53,0,.71.21.21.49.17.71,0h0Z"/>
      </g>
      <path class="cls-2" d="M174.74,83.63c.08-.02.14.02.19.07.06.05-.07.12.02.03.11-.1.22-.19.36-.25s.32-.11.48-.13c0,0,.14-.01.14-.01-.02,0,.05.06.03.02.13.22,0,.53-.13.73s-.36.38-.58.47c-.57.22-1.36.07-1.54-.59-.06-.23,0-.47.16-.65.06-.07.16-.14.27-.15.02,0,.06,0,.08,0,.05,0,.06.04.06.07.01.07.02.17-.03.29-.06.13-.15.26-.25.37-.23.26-.49.47-.79.64-.13.07-.27.14-.42.19-.08.03-.15.05-.23.07-.04.01-.1.01-.13.03-.04,0-.05,0-.02,0l.24.17s.13-.18.15-.21c.13-.13.28-.23.43-.31.15-.08.3-.15.46-.2.14-.04.36-.13.51-.09.16.04.16.34.15.45-.03.21-.12.38-.3.47.03-.01-.05.01-.08,0,0,0-.05-.02-.05-.03-.03-.04,0-.18.02-.25.11-.25.4-.39.64-.47.33-.11.73-.25,1.09-.2.11.02.21.06.29.13.06.05.08.08.11.14,0,.01.01.06,0,.09-.06.25-.45.34-.68.37-.71.11-1.47-.02-2.11-.34-.23-.12-.54-.29-.62-.53-.02-.07-.02-.13.05-.22.06-.08.18-.16.29-.22.27-.15.62-.3.93-.25.28.04.38.26.41.53.08.6-.21,1.27-.84,1.44-.12.03-.26.04-.35.02-.03,0-.1-.05-.08-.02.01.02,0,.04.01,0,.07-.25.53-.32.74-.36.28-.05.69-.05.9.17.05.05.09.12.07.16-.04.06-.17.11-.24.14-.53.17-1.07-.21-1.09-.74s.51-.96,1.04-1.01,1.2.22,1.43.72c.05.11.07.22.07.33,0,.05-.01.08,0,.07-.03.05,0,.04-.06.09-.2.16-.62.14-.84.06s-.37-.29-.33-.48h-.96c.03.1.03.19-.04.27-.43.48.27,1.19.71.71.31-.34.43-.8.29-1.24s-.84-.5-.96,0c-.16.65.18,1.32.78,1.61.56.27,1.33.28,1.86-.06s.67-1,.48-1.56-.6-.99-1.12-1.24c-1.05-.51-2.48-.29-3.1.79s.05,2.51,1.28,2.7c.62.09,1.41-.1,1.71-.7s-.09-1.33-.68-1.6-1.34-.23-1.96,0-1.16.82-.92,1.52,1.04.79,1.63.63,1.08-.58,1.34-1.13.33-1.24.12-1.83c-.23-.64-.83-1.02-1.51-.98-.6.04-1.31.32-1.72.78-.46.51-.44,1.19-.02,1.71.38.47.98.74,1.54.91.59.18,1.23.25,1.85.18.67-.08,1.35-.32,1.62-1,.23-.6-.09-1.25-.63-1.54-.6-.33-1.29-.2-1.91,0s-1.21.52-1.45,1.15.04,1.43.74,1.57c.6.12,1.17-.22,1.43-.76.24-.5.26-1.14-.04-1.63-.39-.63-1.15-.58-1.77-.38-.58.19-1.23.56-1.54,1.1-.17.3-.23.69-.06,1,.19.34.55.42.91.35.58-.11,1.13-.4,1.59-.76s.91-.86,1.01-1.44c.12-.69-.3-1.37-1.03-1.41-.66-.04-1.22.44-1.45,1.02-.22.55-.1,1.18.25,1.65.39.53,1.01.81,1.67.81,1.16,0,2.39-.95,2.28-2.2-.06-.71-.56-1.18-1.28-1.11-.61.06-1.36.34-1.66.92-.33.65.17,1.52.95,1.32.62-.17.36-1.13-.27-.96h0Z"/>
    </g>
  </g>
</svg>