<?xml version="1.0" encoding="UTF-8"?>
<svg id="Layer_2" data-name="Layer 2" xmlns="http://www.w3.org/2000/svg" viewBox="0 0 216.46 193.18">
  <defs>
    <style>
      .cls-1 {
        fill: #58595b;
      }

      .cls-2 {
        fill: #414042;
      }

      .cls-3 {
        fill: #ed1c24;
      }

      .cls-4 {
        fill: #a7a9ac;
      }
    </style>
  </defs>
  <g id="Layer_1-2" data-name="Layer 1">
    <g>
      <path class="cls-4" d="M14.2,91.29c-2.71,2.33-5.41,4.67-8.12,7-1.32,1.14-2.64,2.28-3.97,3.42-1.06.92-2.47,2-2.03,3.6.22.79.88,1.35,1.45,1.9.46.44.92.88,1.38,1.32,1.49,1.43,2.97,2.86,4.45,4.29,2.49,2.42,4.97,4.86,7.43,7.32.91.91,2.33-.5,1.41-1.41-3.66-3.65-7.35-7.26-11.08-10.83-.84-.81-1.69-1.61-2.53-2.43-.2-.19-.62-.47-.61-.78.02-.48.94-1.06,1.25-1.32,1.29-1.11,2.58-2.23,3.87-3.34,2.83-2.44,5.67-4.88,8.5-7.33.98-.84-.44-2.25-1.41-1.41h0Z"/>
      <path class="cls-4" d="M1,106c9.87-.44,19.75-.75,29.63-.95,8.98-.18,17.96-.26,26.94-.23,6.02.01,12.04.08,18.06.19,3.26.06,6.51.14,9.77.19,3.82.06,7.64.11,11.46.14,4.8.04,9.59.06,14.39.07,5.89.01,11.78,0,17.67-.02,7.17-.02,14.34-.07,21.5-.13,8.53-.07,17.06-.16,25.59-.26,10.1-.12,20.2-.26,30.29-.41,2.7-.04,5.4-.08,8.09-.12,1.29-.02,1.29-2.02,0-2-10.49.17-20.98.32-31.48.45-8.92.11-17.84.21-26.76.29-7.46.07-14.93.12-22.39.16-6.18.03-12.36.04-18.55.04-5.05,0-10.11-.02-15.16-.05-4.04-.03-8.09-.07-12.13-.13-3.16-.05-6.32-.11-9.47-.18-5.23-.11-10.45-.18-15.68-.22-8.31-.06-16.61-.03-24.92.09-10.46.14-20.92.42-31.37.84-1.83.07-3.67.15-5.5.23-1.28.06-1.29,2.06,0,2h0Z"/>
      <path class="cls-4" d="M198.33,93.1c3.47,1.71,6.89,3.57,10.17,5.63,1.7,1.07,3.48,2.18,4.88,3.63.42.44.88.96,1.03,1.56.17.69-.3,1.16-.83,1.53-1.47,1.03-3.21,1.79-4.81,2.62-3.84,2.01-7.73,3.94-11.66,5.78-1.16.55-.15,2.27,1.01,1.73,3.71-1.74,7.38-3.56,11.02-5.45,1.74-.9,3.55-1.75,5.21-2.8,1.53-.97,2.58-2.5,1.85-4.34-.87-2.19-3.24-3.71-5.11-4.97-2.15-1.45-4.41-2.75-6.68-4-1.67-.92-3.36-1.81-5.07-2.66-1.15-.57-2.16,1.16-1.01,1.73h0Z"/>
      <path class="cls-4" d="M93.15,19.16c1.44-5.19,3.44-10.21,6.03-14.93.36-.66.98-2.35,1.95-2.22,1.12.15,2.08,1.56,2.73,2.35,1.28,1.54,2.27,3.2,3.07,5.04,1.06,2.45,1.89,5.01,2.55,7.6.32,1.25,2.25.72,1.93-.53-.66-2.61-1.51-5.15-2.56-7.63-.9-2.13-2.03-4.01-3.5-5.81-.88-1.08-1.84-2.24-3.16-2.78s-2.62-.14-3.49.95-1.51,2.47-2.15,3.72c-.69,1.36-1.34,2.73-1.95,4.13-1.34,3.11-2.47,6.3-3.38,9.57-.34,1.24,1.59,1.77,1.93.53h0Z"/>
      <path class="cls-4" d="M100.32,2.33c-.45,12.87,1.86,25.58,3.25,38.32s1.88,25.84,1.91,38.79-.37,25.89-.74,38.83-.75,26.12-1.12,39.18c-.19,6.53-.37,13.06-.56,19.59-.09,3.24-.19,6.49-.28,9.73l-.07,2.5c-.02.68-.11,1.42.09,2.08.37,1.27,2.17,1.85,2.69.35.38-1.11-.51-2.23-1.67-1.67s-.15,2.28,1.01,1.73l.08-.04-.5.14h.06c-.17-.05-.34-.09-.5-.14l-.11-.08-.26-.44c.03.1.04.09,0-.03,0-.23.14-.4.43-.5h.53c.24.04.08.22.16.08,0,0-.03-.35-.03-.31-.01-.3.01-.61.02-.91l.07-2.5c.04-1.54.09-3.08.13-4.62.09-3.12.18-6.24.27-9.36.18-6.24.36-12.48.53-18.72.35-12.4.71-24.79,1.06-37.19.35-12.36.73-24.72.71-37.08s-.42-24.51-1.63-36.71-3.45-24.24-3.59-36.48c-.02-1.51,0-3.02.06-4.53.05-1.29-1.95-1.29-2,0h0Z"/>
      <path class="cls-4" d="M93.72,176.12c2.59,5.95,6.26,11.37,10.58,16.2.47.53,1.21.27,1.57-.2,1.9-2.49,2.85-5.42,3.92-8.32.93-2.53,2.34-4.81,4.09-6.86.83-.97-.58-2.39-1.41-1.41-1.87,2.2-3.39,4.59-4.43,7.28-1.12,2.89-1.98,5.8-3.89,8.3l1.57-.2c-4.2-4.71-7.74-10-10.26-15.8-.22-.5-.94-.61-1.37-.36-.51.3-.58.87-.36,1.37h0Z"/>
    </g>
    <path class="cls-2" d="M86.18,35c8.86-1.82,17.97-1.55,26.77.47,5.81,1.34,11.41,3.4,16.94,5.61s11.07,4.93,16.12,8.28c6.94,4.61,13.04,10.41,17.92,17.16,3.14,4.34,5.96,8.89,8.13,13.8,3.33,7.53,5.1,15.71,5.07,23.94-.01,4.48-.64,8.97-1.67,13.32-1.98,8.36-5.61,16.33-10.86,23.15-5.19,6.75-12.01,12.28-19.22,16.76-5.83,3.62-12.13,6.6-18.71,8.56-7.7,2.3-15.84,3.09-23.85,2.55-7.17-.48-14.23-2.05-21.03-4.36-4.71-1.6-9.41-3.4-13.95-5.44-6.02-2.71-11.8-6.05-16.77-10.42-6.16-5.41-10.72-12.23-13.38-19.99-2.27-6.62-3.41-13.75-3.93-20.72-.59-7.99.04-16.06,2.1-23.81,1.63-6.11,4.12-11.96,7.34-17.39,3.49-5.88,7.8-11.27,12.85-15.9,6.53-5.98,14.28-10.6,22.65-13.5,2.45-.85,4.94-1.55,7.48-2.08.63-.13.36-1.09-.27-.96-7.25,1.51-14.26,4.38-20.56,8.26-6.88,4.24-12.93,9.75-17.88,16.13-3.35,4.32-6.23,9.01-8.52,13.98-3.6,7.78-5.7,16.19-6.25,24.74-.41,6.31.09,12.58,1.05,18.81,1.37,8.85,3.91,17.57,9.17,24.93,4.25,5.95,9.88,10.74,16.12,14.48,5.06,3.03,10.5,5.35,16,7.45s10.71,3.91,16.31,5.13c8.47,1.84,17.22,2.33,25.81,1.15,6.23-.86,12.2-2.62,17.96-5.12,7.72-3.35,14.86-7.91,21.29-13.33,7.07-5.96,12.7-13.44,16.39-21.93,2.74-6.3,4.47-13.05,5.1-19.89.56-6.1.07-12.3-1.34-18.26-1.6-6.81-4.43-13.29-8.13-19.21s-7.84-11.14-12.83-15.75c-5.37-4.97-11.52-9.05-18.08-12.27-4.74-2.33-9.7-4.25-14.68-6.01-7.38-2.61-15.06-4.36-22.9-4.56-4.71-.13-9.42.31-14.03,1.25-.63.13-.36,1.09.27.96Z"/>
    <path class="cls-1" d="M101.18,53.9l5.46.05c1.39.01,3,.16,4.08-.89.46-.45-.25-1.16-.71-.71s-1.13.57-1.77.6c-.72.03-1.44,0-2.15,0l-4.91-.05c-.64,0-.64.99,0,1h0Z"/>
    <g>
      <path class="cls-1" d="M112.89,54.8l-.18.05.35.85c.66-.59,1.43-.97,2.29-1.18l-.62-.35c.28,1.12.73,2.19,1.34,3.17.26.42.93.25.93-.25.01-3.16.02-6.32.03-9.48l-.37.48c2.43-.38,4.86-.79,7.29-1.23l-.63-.48c-.13,1.64-.25,3.29-.38,4.93-.05.64.95.64,1,0,.13-1.64.25-3.29.38-4.93.03-.35-.34-.54-.63-.48-2.42.44-4.85.85-7.29,1.23-.21.03-.37.28-.37.48-.01,3.16-.02,6.32-.03,9.48l.93-.25c-.56-.92-.97-1.89-1.23-2.93-.07-.27-.36-.41-.62-.35-1.03.25-1.94.74-2.73,1.43-.34.3-.05.83.35.85.26.01.47-.04.68-.18.54-.35.04-1.21-.5-.86h0Z"/>
      <path class="cls-1" d="M118.4,51.33c.3-.12.62-.23.93-.32.2-.05.5-.13.64-.14.11-.01.22-.02.32-.02.05,0,.1,0,.15,0-.09-.01.03.01.06.02s-.04-.04,0,0c0,0,.12.14.07.07-.05-.07.02.05.03.07.02.07.01.16,0,.23-.02.11-.05.22-.09.32-.02.07-.05.13-.12.23-.21.3-.63.56-1.02.75-.27.14-.51.24-.85.33l.39.91c.36-.26.8-.38,1.22-.16.31.16.54.5.57.84.07.81-.99,1.02-1.59.71s-1.08.57-.5.86c.67.35,1.44.39,2.12.04.6-.3,1.01-.94.97-1.62s-.45-1.36-1.06-1.7c-.7-.39-1.58-.3-2.22.16-.2.14-.31.38-.2.62.1.22.35.36.59.29.91-.26,1.92-.74,2.47-1.55.39-.57.53-1.49.05-2.04-.44-.51-1.15-.46-1.75-.34-.49.09-.96.25-1.42.43-.25.1-.43.33-.35.62.07.24.36.45.62.35h0Z"/>
      <path class="cls-1" d="M126.66,49.63c-1.72,2.64-3.44,5.27-5.16,7.91l-2.55,3.9c-.24.36-.68.94-.13,1.27.36.22.83.01.92-.39.14-.63-.83-.9-.96-.27l-.02.08.35-.35h.1c.12.13.23.25.35.36l-.03-.07-.05.39c2.68-4.11,5.36-8.22,8.04-12.33.35-.54-.51-1.04-.86-.5h0Z"/>
      <path class="cls-1" d="M125,57.41c.38-.16,1.06-.49,1.44-.18s.15.95-.06,1.29c-.61,1.02-1.58,1.84-2.62,2.41-.5.27-.16,1.07.39.91,1.34-.39,2.83-.07,3.86.88.47.43,1.18-.27.71-.71-1.29-1.18-3.15-1.63-4.83-1.13l.39.91c.7-.38,1.35-.86,1.91-1.43s1.09-1.2,1.35-1.94.09-1.62-.59-2.06-1.53-.2-2.21.08c-.25.1-.43.33-.35.62.06.24.36.45.62.35h0Z"/>
    </g>
    <path class="cls-4" d="M149.02,55.38h2.3c.26,0,.51-.23.5-.5s-.22-.5-.5-.5h-2.3c-.26,0-.51.23-.5.5s.22.5.5.5h0Z"/>
    <g>
      <path class="cls-1" d="M128.57,53.44c.82.26,1.72.28,2.55.06.25-.07.43-.36.35-.62s-.34-.42-.62-.35c-.09.02-.19.05-.28.07-.04,0-.08.02-.12.02-.03,0-.05,0-.08.01.06,0,.07,0,0,0-.18.01-.36.03-.54.02-.09,0-.18,0-.27-.02-.05,0-.1,0-.14-.02.13.02-.01,0-.03,0-.19-.03-.38-.08-.56-.14-.25-.08-.56.09-.62.35-.06.27.08.53.35.62h0Z"/>
      <path class="cls-1" d="M133.83,53.48c.72.13,1.46.18,2.19.12.26-.02.51-.21.5-.5-.01-.25-.22-.52-.5-.5-.34.03-.67.03-1.01.02-.17,0-.33-.02-.49-.04-.04,0-.08,0-.12-.01-.12-.01.08.01-.02,0-.09-.01-.18-.03-.27-.05-.26-.05-.55.07-.62.35-.06.24.07.57.35.62h0Z"/>
      <path class="cls-1" d="M139.32,53.23c.22.24.54.41.86.47.16.03.32.04.49.02.21-.03.4-.08.59-.18.23-.12.32-.47.18-.68-.15-.24-.43-.31-.68-.18-.02.01-.05.02-.07.03l.12-.05c-.09.04-.18.06-.27.08l.13-.02c-.11.01-.21.01-.32,0l.13.02c-.1-.01-.2-.04-.29-.08l.12.05c-.09-.04-.17-.08-.24-.14l.1.08s-.1-.08-.14-.13c-.18-.19-.53-.19-.71,0-.19.21-.19.5,0,.71h0Z"/>
      <path class="cls-1" d="M143.39,53.16c.76.1,1.53.12,2.3.06.26-.02.51-.22.5-.5-.01-.25-.22-.52-.5-.5-.77.06-1.54.04-2.3-.06-.26-.03-.51.25-.5.5.01.3.22.46.5.5h0Z"/>
      <path class="cls-1" d="M151.46,52.45c.07-.22.16-.44.33-.6.14-.13.28-.16.39-.14,0,0,.15.06.09.03.07.03.03-.01.07.05-.03-.05.01.03.01.03.01.05.01.11,0,.16-.02.23-.11.47-.22.67-.21.39-.59.73-1.01.74-.36.01-.77-.15-.86-.53-.11-.45.22-.91.57-1.16.24-.17.51-.29.78-.39.15-.05.29-.1.44-.15,0,0,.15-.04.15-.05.03-.02,0-.03-.07-.03-.08-.09-.09-.09-.04-.02.01-.03.01.08,0,.03,0,.06,0,.13,0,.19,0,.13-.01.26-.04.39-.05.28-.13.55-.26.8-.18.35-.56,1.01-.99,1.04-.06,0-.05.03-.09-.04-.05-.08-.04-.2-.05-.29,0-.25.05-.5.16-.72s.27-.43.47-.58c.08-.06.19-.12.29-.13.03,0,.1.01.07,0,.04,0,.07.04.05.01.1.1.15.23.17.36.03.24,0,.39-.06.61-.16.52-.5.97-.9,1.33-.31.27-.87.68-1.28.37-.44-.34-.37-1.01-.24-1.48s.4-.94.75-1.31c.32-.33.78-.73,1.25-.81.19-.03.22.23.24.39.05.33.04.72.01,1.07s-.11.67-.21.99c-.09.29-.2.66-.42.88,0,0-.1.11-.11.09,0,0,.07-.01.06.01h.03s-.03,0-.04-.04c-.02-.06-.05-.13-.06-.19-.07-.25-.08-.52-.04-.78.08-.56.37-1.04.82-1.39l-.79-.1c.26.44.31.96.17,1.44-.06.23-.17.44-.32.63-.07.09-.17.2-.28.25-.08.03-.05.01-.12.02.07,0-.05-.05,0,0-.05-.03-.08-.05-.12-.12-.07-.11-.09-.17-.12-.28-.05-.2-.06-.43-.01-.67.04-.22.14-.49.39-.54.07-.01.08,0,.09.02-.04-.04.05.07.02.02.05.07-.01.05.02-.01-.12.24-.06.54.18.68.22.13.56.06.68-.18.42-.84-.38-1.72-1.26-1.5s-1.2,1.16-1.15,1.95c.05.69.4,1.5,1.16,1.61.85.12,1.46-.68,1.73-1.39.3-.79.22-1.71-.2-2.44-.18-.3-.54-.3-.79-.1-.65.51-1.02,1.29-1.11,2.09-.08.71.12,2.02,1.07,2s1.4-1.33,1.59-2.1c.11-.46.16-.93.16-1.4,0-.44-.04-.91-.24-1.31-.49-.97-1.63-.56-2.32-.08s-1.2,1.12-1.52,1.88c-.34.81-.48,1.85.07,2.61.27.37.67.64,1.13.69s.95-.14,1.34-.4c.73-.48,1.28-1.18,1.59-2,.25-.66.24-1.57-.32-2.08-.77-.7-1.79-.09-2.29.61-.46.65-.73,1.85-.12,2.5.72.77,1.77.04,2.26-.59.52-.67.87-1.58.83-2.44-.02-.44-.21-.9-.68-1.02-.42-.11-.94.16-1.33.32-.81.34-1.6.9-1.8,1.82s.26,1.69,1.1,2.01c.76.28,1.6.04,2.16-.53s1.07-1.67.66-2.44-1.52-.74-2.11-.2c-.31.28-.49.67-.62,1.06-.2.61.77.88.96.27h0Z"/>
    </g>
    <g>
      <path class="cls-1" d="M51.66,54.16c.33-.41.71-.76,1.18-1.01.21-.12.43-.21.66-.28.07-.02.14-.04.21-.06.13-.04.07.04.03-.01.03.05.06.13.08.19.3.82-.25,1.87-.98,2.33-.18.12-.37.2-.58.24-.16.03-.34.02-.47-.06-.35-.21-.34-.7-.21-1.05.18-.49.57-.91.94-1.28.39-.38.82-.71,1.29-.98.1-.06.22-.1.32-.17.02-.01.08-.04.08-.02l-.13-.05s0-.01.02.04c0,.04.04.18.05.25.02.17.03.34.03.51,0,.55-.08,1.12-.29,1.62-.15.36-.41.74-.81.78-.09.01-.28-.03-.4-.1-.17-.09-.33-.23-.44-.39-.26-.39-.26-.81-.11-1.27.16-.49.5-.93.87-1.28.12-.11.32-.29.47-.28.03,0,.11.07.06,0,.06.08.07.1.09.23.02.11.01.35,0,.5-.03.28-.09.59-.2.85-.09.22-.23.4-.44.51-.16.08-.32.09-.44.02-.08-.05.05.06-.04-.03-.04-.04-.04-.05-.01-.01-.02-.03-.03-.06-.05-.08.04.09-.01-.06-.01-.06-.03-.13,0,.07,0-.07,0-.15,0-.13.04-.28.05-.16-.02.03.02-.06.03-.06.06-.11.09-.17.08-.13-.05.04.05-.07.01-.02.14-.13.1-.1.03-.03.08-.06.12-.08.03-.01.14-.04.05-.03.09,0-.03-.03.04.02-.07-.04,0,.05-.03-.02,0,0,.06.14.03.05,0,.02.04.2.03.11,0,.05,0,.1,0,.15,0,.1.02-.04,0,.07-.01.05-.02.1-.04.15.04-.1-.07.1-.04.06-.07.09-.13.12-.22.18h.02c-.06,0-.07.01-.02,0-.06,0-.07,0-.01,0,.02,0,.03.01.05.02-.47-.43-1.18.27-.71.71.66.61,1.6.06,1.88-.67.23-.58.1-1.39-.49-1.71-.72-.39-1.52.25-1.8.89s-.21,1.47.43,1.88c.69.44,1.59.11,2.05-.49.25-.33.4-.73.48-1.14.07-.35.13-.72.1-1.08s-.14-.71-.41-.96c-.33-.29-.78-.35-1.19-.2-.73.28-1.34,1.06-1.67,1.75-.35.73-.45,1.56-.08,2.3.32.64.98,1.14,1.71,1.17.78.04,1.42-.55,1.75-1.22.36-.76.5-1.64.45-2.47-.03-.41-.06-.9-.36-1.21-.37-.38-.86-.28-1.28-.06-.69.36-1.34.85-1.87,1.42-.56.6-1.11,1.32-1.16,2.17-.04.77.42,1.56,1.2,1.74,1.51.35,2.92-1.21,3.15-2.58.12-.7,0-1.87-.82-2.1-.42-.12-.87.07-1.25.23-.35.15-.67.33-.97.55-.32.24-.6.51-.85.82-.17.21-.21.5,0,.71.17.17.54.21.71,0h0Z"/>
      <path class="cls-1" d="M63.74,54.38c1.18.13,2.36.08,3.53-.14.27-.05.42-.37.35-.62-.08-.28-.35-.4-.62-.35-1.07.2-2.18.23-3.26.11-.27-.03-.5.25-.5.5,0,.3.23.47.5.5h0Z"/>
      <path class="cls-1" d="M70.62,54.24c1.29,0,2.58-.07,3.86-.23.27-.03.5-.21.5-.5,0-.24-.23-.53-.5-.5-1.28.16-2.57.24-3.86.23-.64,0-.64,1,0,1h0Z"/>
      <path class="cls-1" d="M78,53.81c.23-.07.45-.12.69-.17.05,0,.11-.02.16-.03.06,0,.07-.01.03,0,.03,0,.05,0,.08,0,.12-.01.23-.02.35-.03.23-.01.47-.01.71,0,.26.01.41.03.62.07.26.05.55-.07.62-.35.06-.24-.07-.57-.35-.62-1.06-.19-2.14-.14-3.17.17-.25.07-.43.35-.35.62s.35.43.62.35h0Z"/>
      <path class="cls-1" d="M85.6,54.63c1.22.12,2.44.04,3.64-.21.26-.06.42-.37.35-.62-.08-.27-.35-.41-.62-.35-1.11.24-2.25.29-3.37.18-.27-.03-.5.25-.5.5,0,.29.23.47.5.5h0Z"/>
      <path class="cls-1" d="M95.75,53.86c.38,0,.76,0,1.14.05.04,0,.09,0,.13.02.02,0,.04,0,.07,0q-.06,0,0,0c.09.01.18.03.27.04.19.03.38.07.57.12.25.06.55-.08.62-.35s-.08-.55-.35-.62c-.8-.19-1.62-.28-2.44-.27-.26,0-.51.23-.5.5s.22.51.5.5h0Z"/>
      <path class="cls-1" d="M55.64,54.42l3.5-.4c.27-.03.5-.21.5-.5,0-.25-.23-.53-.5-.5l-3.5.4c-.27.03-.5.21-.5.5,0,.25.23.53.5.5h0Z"/>
    </g>
    <g>
      <g>
        <g>
          <path class="cls-3" d="M184.17,97.29c2.83,2.52,6.75,3.35,9.52,5.93v-1.41c-2.53,2.25-4.81,4.73-6.87,7.42-.33.43-.07,1.12.36,1.37.52.3,1.04.07,1.37-.36,1.95-2.54,4.16-4.88,6.56-7.01.39-.35.38-1.06,0-1.41-2.79-2.6-6.69-3.42-9.52-5.93-.96-.85-2.38.56-1.41,1.41h0Z"/>
          <path class="cls-3" d="M194.4,101.97c-6.85-.72-13.76-.61-20.64-.65-6.46-.03-12.92-.1-19.37.06-9.79.25-19.56,1.06-29.36,1.27-6.09.13-12.19.05-18.29-.16l.5.14c-5.34-3.97-10.46-8.26-15.28-12.85-4.12-3.93-7.99-8.13-12.16-12.01-3.24-3.01-6.73-5.7-10.17-8.46-4.5-3.61-8.88-7.38-13.16-11.26-5.83-5.28-11.47-10.76-16.93-16.43-.89-.93-2.31.49-1.41,1.41,8.45,8.78,17.35,17.14,26.72,24.94,3.38,2.81,6.9,5.45,10.25,8.29,3.77,3.2,7.23,6.73,10.7,10.25,4.38,4.44,8.92,8.68,13.75,12.64,1.19.97,2.39,1.93,3.6,2.87.53.42,1.07.83,1.61,1.24.47.36.95.81,1.47,1.1.43.24,1.14.16,1.63.17.64.02,1.27.04,1.91.06,1.52.04,3.04.07,4.57.09,5.94.09,11.88,0,17.81-.27,5.1-.23,10.2-.56,15.31-.78,6.38-.28,12.76-.37,19.15-.34,7.46.04,14.95-.09,22.4.28,1.8.09,3.6.22,5.39.41.54.06,1-.5,1-1,0-.59-.46-.94-1-1h0Z"/>
          <path class="cls-3" d="M40.95,52.66c-.46-3.59-.91-7.17-1.37-10.76l-1.27.96c3.11.94,6.22,1.87,9.32,2.81,1.23.37,1.76-1.56.53-1.93-3.11-.94-6.22-1.87-9.32-2.81-.56-.17-1.35.32-1.27.96.46,3.59.91,7.17,1.37,10.76.07.54.41,1,1,1,.49,0,1.07-.46,1-1h0Z"/>
          <path class="cls-3" d="M91.64,90.24c.28-.99,1.73-1.31,2.58-1.58,1.48-.48,2.96-.93,4.47-1.32,2.96-.75,6.02-1.24,9.08-.98,5.43.46,10.04,3.83,12.77,8.46,1.65,2.81,2.6,5.95,3.13,9.15.09.53.75.83,1.23.7.57-.16.79-.7.7-1.23-1.01-6.1-3.72-11.94-8.76-15.7-2.46-1.84-5.35-2.94-8.39-3.31-3.37-.4-6.79.11-10.06.93-1.78.45-3.56.97-5.3,1.57-1.43.49-2.92,1.21-3.37,2.78-.35,1.24,1.58,1.77,1.93.53h0Z"/>
        </g>
        <g>
          <path class="cls-3" d="M109.6,71.04l.06.12-.23.3c.84-.41,1.76-.59,2.68-.53.79.05,1.97.27,2.43,1.01s.09,1.65-.42,2.2c-.6.66-1.44,1.04-2.23,1.42-.42.2-.25.78.12.91,1.15.41,3.2,1.26,2.72,2.85-.59,1.96-3.18,1.72-4.74,1.55-.64-.07-.63.93,0,1,1.25.14,2.58.26,3.77-.25.92-.39,1.74-1.18,1.97-2.18.5-2.17-1.78-3.34-3.46-3.94l.12.91c1.2-.57,2.5-1.25,3.06-2.53.5-1.14.3-2.46-.76-3.19s-2.66-.91-3.96-.7c-.35.06-.7.14-1.04.26-.26.09-.68.21-.88.41-.46.48.02,1.15.51,1.33.6.23.86-.74.27-.96h0Z"/>
          <path class="cls-3" d="M123.22,70.45c-1.07-.72-2.48-.74-3.66-.3-1.28.48-2.09,1.45-2.59,2.69-.76,1.86-.95,3.88-.67,5.86.17,1.19.23,2.51.99,3.5.83,1.08,2.31,1.45,3.49.71,1.06-.67,1.84-1.92,2.38-3.01.42-.85.77-1.75.99-2.67.48-2.02,1.07-5.22-.83-6.7-.5-.39-1.21.31-.71.71,1.55,1.2.96,3.83.63,5.47-.29,1.44-.91,2.87-1.77,4.07-.68.95-1.75,2.09-2.98,1.23-.93-.65-.98-1.92-1.14-2.94-.21-1.36-.28-2.75-.01-4.11.24-1.23.75-2.8,1.86-3.52,1.03-.67,2.47-.83,3.52-.12.53.36,1.04-.5.5-.86Z"/>
          <path class="cls-3" d="M118.27,77.15c1.4-1.21,3.71-1.19,5.09.04.48.43,1.19-.28.71-.71-1.81-1.61-4.68-1.62-6.51-.04-.49.42.22,1.13.71.71h0Z"/>
        </g>
      </g>
      <g>
        <path class="cls-3" d="M22.83,31.38v5.83c0,.97,0,1.94,0,2.91,0,.71.05,1.43.47,2.03.37.52,1.23.02.86-.5-.43-.62-.33-1.43-.33-2.15v-2.71c0-1.8,0-3.61,0-5.41,0-.64-1-.64-1,0h0Z"/>
        <path class="cls-3" d="M26.2,33.24c.34-1.02,1.81-.71,2.42-.19.75.62,1.02,1.61.61,2.5-.38.82-1.12,1.42-1.77,2.02-.71.66-1.35,1.36-1.73,2.26-.08.19.05.47.23.56.74.37,1.5.16,2.27-.02.89-.2,1.77-.41,2.66-.61.15-.04.32-.19.35-.35.09-.51-.26-.84-.77-.77-.27.04-.41.38-.35.62.08.29.35.39.62.35h.07c-.13-.03-.26-.04-.39-.06l-.08-.08-.05-.39v.07c.11-.12.22-.23.34-.35-.74.17-1.48.34-2.22.51-.55.13-1.4.49-1.94.22l.23.56c.68-1.63,2.55-2.4,3.35-3.96.45-.87.5-1.85.08-2.75s-1.24-1.57-2.18-1.76c-1.1-.23-2.34.22-2.72,1.34-.21.61.76.87.96.27h0Z"/>
        <path class="cls-3" d="M35.3,30.77c-1.37.04-2.1,1.61-2.52,2.71-.53,1.39-.89,3-.79,4.49.05.78.27,1.57.93,2.05.86.63,2.13.64,2.96-.06.74-.63,1.12-1.7,1.44-2.59.21-.56.39-1.14.47-1.74.15-1.06.18-2.22-.34-3.19-.43-.81-1.18-1.63-2.15-1.68-.64-.03-.64.97,0,1,.57.03,1.04.72,1.28,1.18.41.77.31,1.69.22,2.53.02-.2-.02.1-.04.19-.05.26-.12.53-.2.78-.24.8-.57,1.62-1.01,2.34s-1.28.92-1.99.47c-.5-.32-.59-.94-.6-1.48-.03-1.18.22-2.39.58-3.51.2-.61.45-1.22.81-1.76.23-.34.58-.73.94-.74.64-.02.64-1.02,0-1Z"/>
        <path class="cls-3" d="M39.36,29.38c-.41.65-.83,1.38-.84,2.17-.01.85.53,1.57,1.32,1.86.39.14.85.17,1.23-.03s.56-.64.65-1.04c.2-.83.04-1.7-.39-2.43-.23-.39-.49-.72-.94-.85s-1.05-.02-1.05.56c0,.26.23.51.5.5s.5-.22.5-.5c0,.2-.13.32-.29.38.08-.03-.06.02-.06,0,0-.03.17.03.03,0,.05.01.09.02.14.04.02,0,.05.02.07.02-.05-.02-.07-.03,0,0,.1.05-.04-.06.02.01.01.02.06.08.09.12.09.13.18.27.25.42.1.19.2.51.22.73,0,.07.02.26.01.37,0,.06,0,.12-.01.18,0-.08,0,.01,0,.02,0,.05-.02.1-.03.15-.03.14-.07.28-.13.41.05-.11-.08.08,0,0,0,0,.09-.06-.02.02l-.04.02s.05-.02.02-.01c0,0-.11.03-.04.01.06-.01-.01,0-.02,0-.06,0-.12,0-.18,0,.09.01-.07-.02-.1-.03-.03,0-.06-.02-.09-.03,0,0-.14-.06-.06-.02-.05-.03-.11-.05-.16-.08-.02-.01-.05-.03-.07-.05.02.01.07.07,0,0-.1-.1-.15-.16-.21-.25,0-.02-.09-.18-.06-.1-.02-.06-.04-.12-.06-.18,0-.03-.01-.06-.02-.09.02.09,0,.01,0,0,0-.08,0-.16,0-.23,0-.02,0-.05,0-.07,0-.06-.01.06,0-.03.02-.08.04-.16.06-.24.05-.16.09-.26.13-.36.14-.31.32-.59.5-.88.14-.23.05-.55-.18-.68-.24-.14-.54-.05-.68.18h0Z"/>
        <path class="cls-3" d="M39.46,35.01s.09-.05.12-.06c-.06.03-.08.03-.04.02.02,0,.03-.01.05-.02.07-.03.15-.05.22-.08.15-.04.29-.07.44-.1.04,0,.02,0-.05,0,.02,0,.04,0,.07,0,.03,0,.07,0,.1,0,.08,0,.16,0,.23,0s.16,0,.23.01c.03,0,.07,0,.1,0,.06,0,.04,0-.03,0,.02,0,.04,0,.07.01.14.02.26.02.39-.05.1-.06.2-.18.23-.3.05-.24-.07-.57-.35-.62-.79-.13-1.56-.02-2.28.32-.24.11-.32.47-.18.68.16.24.43.3.68.18h0Z"/>
      </g>
    </g>
  </g>
</svg>