<?xml version="1.0" encoding="UTF-8"?>
<svg id="Layer_2" data-name="Layer 2" xmlns="http://www.w3.org/2000/svg" viewBox="0 0 216.46 193.18">
  <defs>
    <style>
      .cls-1 {
        fill: #662d91;
      }

      .cls-2 {
        fill: #58595b;
      }

      .cls-3 {
        fill: #414042;
      }

      .cls-4 {
        fill: #ed1c24;
      }

      .cls-5 {
        fill: #a7a9ac;
      }
    </style>
  </defs>
  <g id="Layer_1-2" data-name="Layer 1">
    <g>
      <path class="cls-5" d="M14.2,91.29c-2.71,2.33-5.41,4.67-8.12,7-1.32,1.14-2.64,2.28-3.97,3.42-1.06.92-2.47,2-2.03,3.6.22.79.88,1.35,1.45,1.9.46.44.92.88,1.38,1.32,1.49,1.43,2.97,2.86,4.45,4.29,2.49,2.42,4.97,4.86,7.43,7.32.91.91,2.33-.5,1.41-1.41-3.66-3.65-7.35-7.26-11.08-10.83-.84-.81-1.69-1.61-2.53-2.43-.2-.19-.62-.47-.61-.78.02-.48.94-1.06,1.25-1.32,1.29-1.11,2.58-2.23,3.87-3.34,2.83-2.44,5.67-4.88,8.5-7.33.98-.84-.44-2.25-1.41-1.41h0Z"/>
      <path class="cls-5" d="M1,106c9.87-.44,19.75-.75,29.63-.95,8.98-.18,17.96-.26,26.94-.23,6.02.01,12.04.08,18.06.19,3.26.06,6.51.14,9.77.19,3.82.06,7.64.11,11.46.14,4.8.04,9.59.06,14.39.07,5.89.01,11.78,0,17.67-.02,7.17-.02,14.34-.07,21.5-.13,8.53-.07,17.06-.16,25.59-.26,10.1-.12,20.2-.26,30.29-.41,2.7-.04,5.4-.08,8.09-.12,1.29-.02,1.29-2.02,0-2-10.49.17-20.98.32-31.48.45-8.92.11-17.84.21-26.76.29-7.46.07-14.93.12-22.39.16-6.18.03-12.36.04-18.55.04-5.05,0-10.11-.02-15.16-.05-4.04-.03-8.09-.07-12.13-.13-3.16-.05-6.32-.11-9.47-.18-5.23-.11-10.45-.18-15.68-.22-8.31-.06-16.61-.03-24.92.09-10.46.14-20.92.42-31.37.84-1.83.07-3.67.15-5.5.23-1.28.06-1.29,2.06,0,2h0Z"/>
      <path class="cls-5" d="M198.33,93.1c3.47,1.71,6.89,3.57,10.17,5.63,1.7,1.07,3.48,2.18,4.88,3.63.42.44.88.96,1.03,1.56.17.69-.3,1.16-.83,1.53-1.47,1.03-3.21,1.79-4.81,2.62-3.84,2.01-7.73,3.94-11.66,5.78-1.16.55-.15,2.27,1.01,1.73,3.71-1.74,7.38-3.56,11.02-5.45,1.74-.9,3.55-1.75,5.21-2.8,1.53-.97,2.58-2.5,1.85-4.34-.87-2.19-3.24-3.71-5.11-4.97-2.15-1.45-4.41-2.75-6.68-4-1.67-.92-3.36-1.81-5.07-2.66-1.15-.57-2.16,1.16-1.01,1.73h0Z"/>
      <path class="cls-5" d="M93.15,19.16c1.44-5.19,3.44-10.21,6.03-14.93.36-.66.98-2.35,1.95-2.22,1.12.15,2.08,1.56,2.73,2.35,1.28,1.54,2.27,3.2,3.07,5.04,1.06,2.45,1.89,5.01,2.55,7.6.32,1.25,2.25.72,1.93-.53-.66-2.61-1.51-5.15-2.56-7.63-.9-2.13-2.03-4.01-3.5-5.81-.88-1.08-1.84-2.24-3.16-2.78s-2.62-.14-3.49.95-1.51,2.47-2.15,3.72c-.69,1.36-1.34,2.73-1.95,4.13-1.34,3.11-2.47,6.3-3.38,9.57-.34,1.24,1.59,1.77,1.93.53h0Z"/>
      <path class="cls-5" d="M100.32,2.33c-.45,12.87,1.86,25.58,3.25,38.32s1.88,25.84,1.91,38.79-.37,25.89-.74,38.83-.75,26.12-1.12,39.18c-.19,6.53-.37,13.06-.56,19.59-.09,3.24-.19,6.49-.28,9.73l-.07,2.5c-.02.68-.11,1.42.09,2.08.37,1.27,2.17,1.85,2.69.35.38-1.11-.51-2.23-1.67-1.67s-.15,2.28,1.01,1.73l.08-.04-.5.14h.06c-.17-.05-.34-.09-.5-.14l-.11-.08-.26-.44c.03.1.04.09,0-.03,0-.23.14-.4.43-.5h.53c.24.04.08.22.16.08,0,0-.03-.35-.03-.31-.01-.3.01-.61.02-.91l.07-2.5c.04-1.54.09-3.08.13-4.62.09-3.12.18-6.24.27-9.36.18-6.24.36-12.48.53-18.72.35-12.4.71-24.79,1.06-37.19.35-12.36.73-24.72.71-37.08s-.42-24.51-1.63-36.71-3.45-24.24-3.59-36.48c-.02-1.51,0-3.02.06-4.53.05-1.29-1.95-1.29-2,0h0Z"/>
      <path class="cls-5" d="M93.72,176.12c2.59,5.95,6.26,11.37,10.58,16.2.47.53,1.21.27,1.57-.2,1.9-2.49,2.85-5.42,3.92-8.32.93-2.53,2.34-4.81,4.09-6.86.83-.97-.58-2.39-1.41-1.41-1.87,2.2-3.39,4.59-4.43,7.28-1.12,2.89-1.98,5.8-3.89,8.3l1.57-.2c-4.2-4.71-7.74-10-10.26-15.8-.22-.5-.94-.61-1.37-.36-.51.3-.58.87-.36,1.37h0Z"/>
    </g>
    <path class="cls-3" d="M86.18,35c8.86-1.82,17.97-1.55,26.77.47,5.81,1.34,11.41,3.4,16.94,5.61s11.07,4.93,16.12,8.28c6.94,4.61,13.04,10.41,17.92,17.16,3.14,4.34,5.96,8.89,8.13,13.8,3.33,7.53,5.1,15.71,5.07,23.94-.01,4.48-.64,8.97-1.67,13.32-1.98,8.36-5.61,16.33-10.86,23.15-5.19,6.75-12.01,12.28-19.22,16.76-5.83,3.62-12.13,6.6-18.71,8.56-7.7,2.3-15.84,3.09-23.85,2.55-7.17-.48-14.23-2.05-21.03-4.36-4.71-1.6-9.41-3.4-13.95-5.44-6.02-2.71-11.8-6.05-16.77-10.42-6.16-5.41-10.72-12.23-13.38-19.99-2.27-6.62-3.41-13.75-3.93-20.72-.59-7.99.04-16.06,2.1-23.81,1.63-6.11,4.12-11.96,7.34-17.39,3.49-5.88,7.8-11.27,12.85-15.9,6.53-5.98,14.28-10.6,22.65-13.5,2.45-.85,4.94-1.55,7.48-2.08.63-.13.36-1.09-.27-.96-7.25,1.51-14.26,4.38-20.56,8.26-6.88,4.24-12.93,9.75-17.88,16.13-3.35,4.32-6.23,9.01-8.52,13.98-3.6,7.78-5.7,16.19-6.25,24.74-.41,6.31.09,12.58,1.05,18.81,1.37,8.85,3.91,17.57,9.17,24.93,4.25,5.95,9.88,10.74,16.12,14.48,5.06,3.03,10.5,5.35,16,7.45s10.71,3.91,16.31,5.13c8.47,1.84,17.22,2.33,25.81,1.15,6.23-.86,12.2-2.62,17.96-5.12,7.72-3.35,14.86-7.91,21.29-13.33,7.07-5.96,12.7-13.44,16.39-21.93,2.74-6.3,4.47-13.05,5.1-19.89.56-6.1.07-12.3-1.34-18.26-1.6-6.81-4.43-13.29-8.13-19.21s-7.84-11.14-12.83-15.75c-5.37-4.97-11.52-9.05-18.08-12.27-4.74-2.33-9.7-4.25-14.68-6.01-7.38-2.61-15.06-4.36-22.9-4.56-4.71-.13-9.42.31-14.03,1.25-.63.13-.36,1.09.27.96Z"/>
    <path class="cls-2" d="M101.18,53.9l5.46.05c1.39.01,3,.16,4.08-.89.46-.45-.25-1.16-.71-.71s-1.13.57-1.77.6c-.72.03-1.44,0-2.15,0l-4.91-.05c-.64,0-.64.99,0,1h0Z"/>
    <g>
      <path class="cls-2" d="M112.89,54.8l-.18.05.35.85c.66-.59,1.43-.97,2.29-1.18l-.62-.35c.28,1.12.73,2.19,1.34,3.17.26.42.93.25.93-.25.01-3.16.02-6.32.03-9.48l-.37.48c2.43-.38,4.86-.79,7.29-1.23l-.63-.48c-.13,1.64-.25,3.29-.38,4.93-.05.64.95.64,1,0,.13-1.64.25-3.29.38-4.93.03-.35-.34-.54-.63-.48-2.42.44-4.85.85-7.29,1.23-.21.03-.37.28-.37.48-.01,3.16-.02,6.32-.03,9.48l.93-.25c-.56-.92-.97-1.89-1.23-2.93-.07-.27-.36-.41-.62-.35-1.03.25-1.94.74-2.73,1.43-.34.3-.05.83.35.85.26.01.47-.04.68-.18.54-.35.04-1.21-.5-.86h0Z"/>
      <path class="cls-2" d="M118.4,51.33c.3-.12.62-.23.93-.32.2-.05.5-.13.64-.14.11-.01.22-.02.32-.02.05,0,.1,0,.15,0-.09-.01.03.01.06.02s-.04-.04,0,0c0,0,.12.14.07.07-.05-.07.02.05.03.07.02.07.01.16,0,.23-.02.11-.05.22-.09.32-.02.07-.05.13-.12.23-.21.3-.63.56-1.02.75-.27.14-.51.24-.85.33l.39.91c.36-.26.8-.38,1.22-.16.31.16.54.5.57.84.07.81-.99,1.02-1.59.71s-1.08.57-.5.86c.67.35,1.44.39,2.12.04.6-.3,1.01-.94.97-1.62s-.45-1.36-1.06-1.7c-.7-.39-1.58-.3-2.22.16-.2.14-.31.38-.2.62.1.22.35.36.59.29.91-.26,1.92-.74,2.47-1.55.39-.57.53-1.49.05-2.04-.44-.51-1.15-.46-1.75-.34-.49.09-.96.25-1.42.43-.25.1-.43.33-.35.62.07.24.36.45.62.35h0Z"/>
      <path class="cls-2" d="M126.66,49.63c-1.72,2.64-3.44,5.27-5.16,7.91l-2.55,3.9c-.24.36-.68.94-.13,1.27.36.22.83.01.92-.39.14-.63-.83-.9-.96-.27l-.02.08.35-.35h.1c.12.13.23.25.35.36l-.03-.07-.05.39c2.68-4.11,5.36-8.22,8.04-12.33.35-.54-.51-1.04-.86-.5h0Z"/>
      <path class="cls-2" d="M125,57.41c.38-.16,1.06-.49,1.44-.18s.15.95-.06,1.29c-.61,1.02-1.58,1.84-2.62,2.41-.5.27-.16,1.07.39.91,1.34-.39,2.83-.07,3.86.88.47.43,1.18-.27.71-.71-1.29-1.18-3.15-1.63-4.83-1.13l.39.91c.7-.38,1.35-.86,1.91-1.43s1.09-1.2,1.35-1.94.09-1.62-.59-2.06-1.53-.2-2.21.08c-.25.1-.43.33-.35.62.06.24.36.45.62.35h0Z"/>
    </g>
    <path class="cls-5" d="M149.02,55.38h2.3c.26,0,.51-.23.5-.5s-.22-.5-.5-.5h-2.3c-.26,0-.51.23-.5.5s.22.5.5.5h0Z"/>
    <g>
      <path class="cls-2" d="M128.57,53.44c.82.26,1.72.28,2.55.06.25-.07.43-.36.35-.62s-.34-.42-.62-.35c-.09.02-.19.05-.28.07-.04,0-.08.02-.12.02-.03,0-.05,0-.08.01.06,0,.07,0,0,0-.18.01-.36.03-.54.02-.09,0-.18,0-.27-.02-.05,0-.1,0-.14-.02.13.02-.01,0-.03,0-.19-.03-.38-.08-.56-.14-.25-.08-.56.09-.62.35-.06.27.08.53.35.62h0Z"/>
      <path class="cls-2" d="M133.83,53.48c.72.13,1.46.18,2.19.12.26-.02.51-.21.5-.5-.01-.25-.22-.52-.5-.5-.34.03-.67.03-1.01.02-.17,0-.33-.02-.49-.04-.04,0-.08,0-.12-.01-.12-.01.08.01-.02,0-.09-.01-.18-.03-.27-.05-.26-.05-.55.07-.62.35-.06.24.07.57.35.62h0Z"/>
      <path class="cls-2" d="M139.32,53.23c.22.24.54.41.86.47.16.03.32.04.49.02.21-.03.4-.08.59-.18.23-.12.32-.47.18-.68-.15-.24-.43-.31-.68-.18-.02.01-.05.02-.07.03l.12-.05c-.09.04-.18.06-.27.08l.13-.02c-.11.01-.21.01-.32,0l.13.02c-.1-.01-.2-.04-.29-.08l.12.05c-.09-.04-.17-.08-.24-.14l.1.08s-.1-.08-.14-.13c-.18-.19-.53-.19-.71,0-.19.21-.19.5,0,.71h0Z"/>
      <path class="cls-2" d="M143.39,53.16c.76.1,1.53.12,2.3.06.26-.02.51-.22.5-.5-.01-.25-.22-.52-.5-.5-.77.06-1.54.04-2.3-.06-.26-.03-.51.25-.5.5.01.3.22.46.5.5h0Z"/>
      <path class="cls-2" d="M151.46,52.45c.07-.22.16-.44.33-.6.14-.13.28-.16.39-.14,0,0,.15.06.09.03.07.03.03-.01.07.05-.03-.05.01.03.01.03.01.05.01.11,0,.16-.02.23-.11.47-.22.67-.21.39-.59.73-1.01.74-.36.01-.77-.15-.86-.53-.11-.45.22-.91.57-1.16.24-.17.51-.29.78-.39.15-.05.29-.1.44-.15,0,0,.15-.04.15-.05.03-.02,0-.03-.07-.03-.08-.09-.09-.09-.04-.02.01-.03.01.08,0,.03,0,.06,0,.13,0,.19,0,.13-.01.26-.04.39-.05.28-.13.55-.26.8-.18.35-.56,1.01-.99,1.04-.06,0-.05.03-.09-.04-.05-.08-.04-.2-.05-.29,0-.25.05-.5.16-.72s.27-.43.47-.58c.08-.06.19-.12.29-.13.03,0,.1.01.07,0,.04,0,.07.04.05.01.1.1.15.23.17.36.03.24,0,.39-.06.61-.16.52-.5.97-.9,1.33-.31.27-.87.68-1.28.37-.44-.34-.37-1.01-.24-1.48s.4-.94.75-1.31c.32-.33.78-.73,1.25-.81.19-.03.22.23.24.39.05.33.04.72.01,1.07s-.11.67-.21.99c-.09.29-.2.66-.42.88,0,0-.1.11-.11.09,0,0,.07-.01.06.01h.03s-.03,0-.04-.04c-.02-.06-.05-.13-.06-.19-.07-.25-.08-.52-.04-.78.08-.56.37-1.04.82-1.39l-.79-.1c.26.44.31.96.17,1.44-.06.23-.17.44-.32.63-.07.09-.17.2-.28.25-.08.03-.05.01-.12.02.07,0-.05-.05,0,0-.05-.03-.08-.05-.12-.12-.07-.11-.09-.17-.12-.28-.05-.2-.06-.43-.01-.67.04-.22.14-.49.39-.54.07-.01.08,0,.09.02-.04-.04.05.07.02.02.05.07-.01.05.02-.01-.12.24-.06.54.18.68.22.13.56.06.68-.18.42-.84-.38-1.72-1.26-1.5s-1.2,1.16-1.15,1.95c.05.69.4,1.5,1.16,1.61.85.12,1.46-.68,1.73-1.39.3-.79.22-1.71-.2-2.44-.18-.3-.54-.3-.79-.1-.65.51-1.02,1.29-1.11,2.09-.08.71.12,2.02,1.07,2s1.4-1.33,1.59-2.1c.11-.46.16-.93.16-1.4,0-.44-.04-.91-.24-1.31-.49-.97-1.63-.56-2.32-.08s-1.2,1.12-1.52,1.88c-.34.81-.48,1.85.07,2.61.27.37.67.64,1.13.69s.95-.14,1.34-.4c.73-.48,1.28-1.18,1.59-2,.25-.66.24-1.57-.32-2.08-.77-.7-1.79-.09-2.29.61-.46.65-.73,1.85-.12,2.5.72.77,1.77.04,2.26-.59.52-.67.87-1.58.83-2.44-.02-.44-.21-.9-.68-1.02-.42-.11-.94.16-1.33.32-.81.34-1.6.9-1.8,1.82s.26,1.69,1.1,2.01c.76.28,1.6.04,2.16-.53s1.07-1.67.66-2.44-1.52-.74-2.11-.2c-.31.28-.49.67-.62,1.06-.2.61.77.88.96.27h0Z"/>
    </g>
    <g>
      <g>
        <path class="cls-4" d="M185.68,97.23l-.02.04,1.13-.46h-.04c.15.07.29.16.44.24l-.04-.05.26.44-.02-.06-.1.77.03-.05-.86.5h.1c-.17-.06-.34-.1-.5-.15.19.11.43.44.63.6.29.23.6.45.93.63.6.34,1.25.59,1.9.84.58.23,1.1.42,1.65.72.25.14.51.3.7.46.14.12.48.43.5.52v-.53l-.03.1.26-.44c-.35.42-.92.73-1.35,1.07-.51.41-1,.83-1.49,1.27-.96.86-1.87,1.77-2.74,2.72s.55,2.37,1.41,1.41c1.02-1.12,2.1-2.18,3.25-3.17.56-.48,1.12-.95,1.71-1.39.32-.24.65-.45.82-.82.19-.42.11-.89-.14-1.26-1.39-2.03-3.91-2.21-5.81-3.45-.56-.36-.99-1.15-1.74-1.14-1.32.03-1.38,1.75-.25,2.15.4.14.93-.09,1.13-.46l.02-.04c.62-1.13-1.11-2.14-1.73-1.01h0Z"/>
        <path class="cls-4" d="M191.14,101.51c-6.1.46-12.22.14-18.32-.21-6.13-.35-12.26-.62-18.41-.6s-12.18.26-18.25.73c-1.21.09-2.43.25-3.64.28-.9.02-1.81-.02-2.71-.05-2.59-.08-5.17-.08-7.76.12-2.77.22-5.51.55-8.29.6-2.55.05-5.1-.07-7.64-.33l.86,1.5c3.37-4.44,6.84-8.8,10.41-13.08,2.7-3.23,5.5-6.37,8.29-9.52,8.85-9.99,17.56-20.13,27.5-29.08,2.86-2.57,5.78-5.08,8.59-7.71s5.44-5.27,8.03-8.03c.56-.59.2-1.76-.71-1.71-3.32.21-6.63.41-9.95.62v2c3.32-.21,6.63-.41,9.95-.62l-1-1c-.01,2.8-.02,5.59-.03,8.39,0,1.29,1.99,1.29,2,0,.01-2.8.02-5.59.03-8.39,0-.52-.46-1.03-1-1-3.32.21-6.63.41-9.95.62-1.28.08-1.29,2.08,0,2,3.32-.21,6.63-.41,9.95-.62l-.71-1.71c-4.67,4.99-9.69,9.59-14.8,14.12s-9.95,9.29-14.6,14.27-9.02,9.99-13.48,15.03c-2.72,3.08-5.49,6.12-8.14,9.26-4.17,4.94-8.22,10-12.13,15.16-.51.67.21,1.44.86,1.5,4.7.49,9.37.36,14.07-.1,2.64-.26,5.27-.39,7.92-.34,1.95.04,3.89.17,5.84,0,12.15-1.05,24.34-1.13,36.52-.44,6.88.39,13.79.86,20.68.34,1.28-.1,1.29-2.1,0-2h0Z"/>
      </g>
      <path class="cls-4" d="M117.47,90.17c3.56.79,7.32,2.47,7.96,6.47.29,1.82.04,3.69.25,5.52.06.55.06,1.65.77,1.8.64.13.82-.59.49-1-.13-.17-.43-.18-.61-.08l-.04.03c-.55.34-.05,1.2.5.86l.04-.03-.61-.08.04.05-.15-.35v.07c.06-.12.11-.24.16-.35l-.05.04.49-.13-.1-.03.3.23c-.22-.31-.22-.88-.25-1.25-.04-.4-.06-.8-.07-1.2-.02-.84,0-1.68-.03-2.52-.05-1.53-.27-3.07-1.07-4.4-1.64-2.75-4.78-3.96-7.76-4.62-.63-.14-.89.82-.27.96h0Z"/>
      <g>
        <path class="cls-4" d="M126.54,86.79c.96-.77,2.17-1.25,3.4-1.32.28-.02.7-.07.97.05.16.07.17.13.18.32.02.36-.1.78-.25,1.11-.32.73-1.07,1.18-1.79,1.45-.33.12-.67.22-1.01.3-.13.03-.25.05-.38.08-.05,0-.35.05-.15.03l.13.98c1.39-.35,4.08-.44,4.36,1.48.15,1.03-.58,1.59-1.54,1.69-.51.05-1.04,0-1.55-.01-.46-.01-.93-.01-1.39-.1-.63-.12-.9.84-.27.96.59.11,1.2.12,1.8.14.68.02,1.36.07,2.03-.09,1.25-.3,2.05-1.31,1.91-2.61-.29-2.68-3.55-2.95-5.62-2.43-.53.13-.44,1.06.13.98,1.34-.18,2.85-.63,3.76-1.69.53-.62.87-1.54.81-2.37-.09-1.28-1.4-1.35-2.42-1.25-1.42.14-2.72.69-3.83,1.59-.5.4.21,1.11.71.71h0Z"/>
        <path class="cls-4" d="M134.64,85.11c-.57.58-.88,1.3-1.01,2.1-.15.92-.28,1.94-.19,2.86s.59,1.76,1.41,2.26c.68.41,1.5.48,2.27.35,1.95-.33,3.01-2.08,3.42-3.86.09-.4.16-.81.21-1.22.07-.48.14-.97.04-1.45-.15-.72-.71-1.3-1.35-1.64-1.55-.83-3.51-.61-4.8.6-.47.44.24,1.15.71.71.87-.82,2.15-1.01,3.25-.59.45.17.92.46,1.13.91.26.56.04,1.34-.06,1.92-.25,1.35-.75,2.89-2.12,3.47-1.22.52-2.85.1-3.09-1.36-.13-.79.01-1.71.12-2.5.09-.69.28-1.33.78-1.84.45-.46-.25-1.17-.71-.71Z"/>
      </g>
      <path class="cls-4" d="M134.17,89.37c1.92-.89,4.06-1.21,6.16-1,.27.03.5-.25.5-.5,0-.29-.23-.47-.5-.5-2.29-.24-4.59.17-6.67,1.13-.24.11-.31.47-.18.68.15.25.44.29.68.18h0Z"/>
      <g>
        <path class="cls-4" d="M159.52,48.04c-.87.69-1.54,1.61-1.96,2.64-.39.94-.67,2.14-.21,3.11.53,1.11,1.98,1.11,2.93.6.46-.25.86-.63,1.12-1.09.3-.52.47-1.21-.02-1.68-.57-.55-1.38-.37-2.03-.08-.61.27-1.17.65-1.64,1.12l.64.27s0-.09,0-.14c.01-.2-.18-.38-.38-.38-.21,0-.36.17-.38.38,0,.05,0,.09,0,.14-.02.33.42.48.64.27.34-.34.73-.63,1.16-.85.36-.19.91-.47,1.32-.28.11.05.21.16.23.28.02.2-.09.4-.18.56-.2.34-.48.62-.82.82s-.76.31-1.17.26c-.17-.02-.37-.09-.5-.2-.04-.03-.07-.06-.11-.1,0,0-.07-.08-.04-.05-.03-.04-.06-.09-.09-.14,0-.02-.02-.04-.03-.05,0,0-.03-.08-.02-.04-.07-.18-.1-.36-.12-.52,0-.1,0-.2,0-.31,0-.05,0-.1,0-.15,0-.03,0-.06,0-.09,0,0,.01-.09,0-.05.06-.44.19-.88.35-1.3.37-.94,1.01-1.77,1.8-2.39.16-.13.13-.4,0-.53-.16-.16-.37-.13-.53,0h0Z"/>
        <path class="cls-4" d="M163.91,48.82c-.65.8-1.17,1.69-1.54,2.66-.18.48-.35,1-.41,1.52s.15,1.05.63,1.34c.94.56,2.02-.06,2.67-.78s1.03-1.7.9-2.69-.96-2.17-2.09-2.19c-.2,0-.38.18-.38.38s.17.37.38.38c.17,0,.33.06.5.16.04.03.08.05.12.08.03.02,0,0,0,0,.02.02.04.03.06.05.08.07.15.14.21.21.07.08.06.07.12.16.05.08.1.16.14.25.02.04.04.08.06.12-.02-.05.02.06.03.07.03.1.06.19.09.29,0,.04.02.09.03.13,0,.02,0,.04,0,.06,0,.06,0-.05,0,.01,0,.1.01.19.01.29,0,.09,0,.18-.02.27,0-.05,0,.01,0,.02,0,.03,0,.05-.01.08-.01.05-.02.11-.03.16-.1.38-.25.68-.49,1.01-.19.26-.52.57-.82.75-.18.11-.33.18-.55.21.04,0-.07,0-.08,0-.04,0-.08,0-.13,0-.08,0-.02,0,0,0-.02,0-.05,0-.07-.01-.05-.01-.09-.03-.14-.04,0,0-.06-.02-.02,0,.04.02-.03-.02-.04-.02-.04-.02-.07-.04-.11-.07.05.04-.03-.03-.05-.04-.02-.02-.03-.03-.05-.05-.04-.04.03.04,0,0-.1-.15-.12-.29-.1-.5.02-.17.08-.41.14-.61.06-.21.12-.41.2-.61.31-.87.81-1.75,1.4-2.47.13-.16.15-.38,0-.53-.13-.13-.4-.16-.53,0h0Z"/>
        <path class="cls-4" d="M167.17,48.04c-.28.24-.48.55-.61.89-.07.17-.1.35-.12.53s-.02.37.02.54c.06.24.26.47.51.5.12.02.25.02.37-.02s.23-.11.32-.2c.16-.15.25-.35.34-.55.06-.15.11-.31.14-.48.07-.43.04-.87-.11-1.27-.04-.09-.08-.17-.17-.22-.08-.05-.2-.07-.29-.04s-.18.09-.22.17-.07.2-.04.29c.06.15.1.3.12.46v-.1c.01.19.01.38-.01.57v-.1c-.01.18-.06.35-.13.52l.04-.09c-.05.11-.1.22-.18.32l.06-.08s-.07.08-.11.11l.08-.06s-.06.04-.09.05l.09-.04s-.06.02-.09.03h.1s-.06,0-.1-.01h.1s-.05,0-.08,0l.09.04s-.04-.02-.06-.03l.08.06s-.04-.03-.05-.05l.06.08s-.03-.04-.04-.07l.04.09s-.03-.09-.03-.13v.1c0-.13,0-.27.02-.41v.1c0-.16.05-.32.11-.47l-.04.09c.06-.15.14-.28.24-.41l-.06.08c.07-.1.16-.18.25-.26.07-.06.11-.18.11-.27s-.04-.2-.11-.27-.17-.11-.27-.11-.19.04-.27.11h0Z"/>
        <path class="cls-4" d="M166.7,51.98s.07-.03.11-.05l-.09.04c.38-.16.77-.27,1.17-.32h-.1c.17,0,.34-.02.51-.03.1,0,.2-.04.27-.11.07-.07.11-.17.11-.27,0-.2-.16-.38-.38-.38-.34,0-.68.05-1.01.13s-.65.19-.96.33c-.08.04-.15.14-.17.22-.02.09-.01.21.04.29s.13.15.22.17h.1c.07.01.13,0,.19-.04h0Z"/>
      </g>
    </g>
    <g>
      <g>
        <path class="cls-1" d="M183.32,78.77c.48-.24.99-.5,1.52-.5.06,0,.12,0,.18,0,0,0,.11.01.06,0s.06.01.06.01c.05.01.11.02.16.04.03,0,.06.02.09.03.01,0,.11.04.04.01.1.04.19.09.27.16-.06-.05.03.03.03.03.02.02.03.03.05.05s.03.03.05.05c.03.03.03.04,0,0,.01.01.02.03.03.04.03.05.06.1.08.15-.02-.05,0,.02.01.04,0,.03.02.06.03.09,0,.02.01.05.02.07.02.12,0-.04,0,.03s0,.14,0,.21c0-.01-.01.12,0,.07s-.01.08-.01.07c-.01.06-.03.12-.04.18s-.03.12-.05.18c-.01.03-.02.06-.04.1,0,.02-.02.04-.02.06,0-.02,0-.02,0,0-.22.49-.56.96-.88,1.35-.4.48-.85.93-1.34,1.32-.14.12-.13.36-.03.49.12.15.32.19.48.1.56-.31,1.15-.53,1.8-.66.6-.12,1.26-.14,1.91-.07.2.02.38-.19.38-.38,0-.22-.17-.35-.38-.38-1.41-.16-2.85.14-4.09.83l.45.59c.49-.39.94-.84,1.34-1.32s.78-.99,1.02-1.56c.26-.6.38-1.29.05-1.88-.3-.54-.89-.81-1.48-.86-.75-.07-1.46.27-2.11.6-.18.09-.23.35-.13.51.11.18.33.23.51.13h0Z"/>
        <path class="cls-1" d="M190.76,76.99c-.75-.26-1.53.4-1.98.94-.36.43-.6.96-.68,1.52-.06.41-.06.82-.04,1.23.03.54.13,1.1.52,1.5.42.42,1.11.59,1.67.38s.8-.68,1.03-1.17c.19-.39.35-.8.43-1.22.12-.62.07-1.23-.05-1.84-.12-.55-.35-1.1-.91-1.32-.18-.07-.42.08-.46.26-.05.22.07.38.26.46-.09-.04.04.02.06.04.02.01.03.04-.01,0,.01.01.03.02.04.04.02.02.03.04.05.05.04.03-.04-.07,0,0,.03.04.05.08.08.12,0,.02.02.04.03.05,0,0,.04.09.02.04s.01.04.01.04c0,.02.01.04.02.06.03.1.06.2.08.3.1.43.14.84.1,1.29,0,.03,0,.06-.01.1,0-.02.01-.06,0,.01,0,.05-.02.11-.03.16-.02.11-.05.21-.08.32-.03.09-.06.18-.09.27-.02.04-.03.09-.05.13,0,.02-.03.07,0-.01-.01.02-.02.05-.03.07-.08.17-.16.34-.24.51-.05.09-.1.18-.16.27-.01.02-.02.04-.04.05-.05.08.03-.02,0,.01s-.08.08-.12.12c-.01.01-.06.04,0,0-.02.01-.03.02-.05.03-.02.01-.05.03-.07.04-.02,0-.08.04-.01,0-.05.02-.1.03-.15.05,0,0-.11.02-.06.01.03,0-.07,0-.08,0-.06,0-.11,0-.17,0,.06,0,0,0-.01,0-.03,0-.06-.01-.09-.02s-.06-.02-.09-.03c0,0-.07-.03-.01,0-.06-.02-.11-.05-.16-.09,0,0-.09-.06-.05-.03s-.05-.04-.04-.04c-.02-.02-.03-.03-.05-.05,0,0-.07-.08-.04-.04s-.03-.05-.03-.04c-.01-.02-.02-.04-.03-.06s-.02-.04-.03-.06c-.01-.02-.04-.09-.02-.03-.04-.09-.06-.19-.08-.29-.01-.06-.02-.11-.03-.17,0,.02,0,.07,0,0,0-.03,0-.07,0-.1-.03-.34-.04-.69-.02-1.03,0-.04,0-.09.01-.13,0-.1-.01.05,0,0,0-.03,0-.05.01-.08.02-.11.04-.21.07-.31.01-.05.03-.1.05-.15,0-.02.02-.05.02-.07,0,0,.04-.1.02-.06.03-.06.1-.21.16-.3.09-.14.14-.22.25-.34s.22-.23.34-.33c.02-.01.04-.03.05-.04.07-.06-.04.03.02-.02.04-.03.08-.06.12-.08s.08-.05.12-.07c.02-.01.04-.02.06-.03,0,0,.1-.05.05-.02-.06.02.03-.01.03-.01.03,0,.05-.02.08-.02.02,0,.04,0,.05-.01.03,0,.1,0,0,0,.04,0,.09,0,.13,0,.08,0-.05-.02,0,0,.02.01.06.02.09.03.19.06.42-.07.46-.26.05-.21-.06-.39-.26-.46Z"/>
        <path class="cls-1" d="M192.8,76.33c-.25.35-.36.78-.35,1.2,0,.23.04.45.13.66.13.28.45.44.75.33s.52-.35.7-.6c.15-.22.26-.48.31-.74.06-.28.06-.55.02-.83-.03-.2-.11-.43-.26-.57-.15-.13-.32-.18-.51-.15-.15.03-.28.12-.39.22-.16.13-.29.3-.4.47-.05.08-.06.2-.04.29s.09.18.17.22c.09.05.19.07.29.04s.16-.09.22-.17c.03-.04.05-.07.08-.11l-.06.08c.09-.11.18-.22.3-.31l-.08.06s.08-.06.12-.08l-.09.04s.05-.02.07-.02h-.1s.04.01.05.01h-.1s.03,0,.04,0l-.09-.04s.03.01.04.02l-.08-.06s.04.03.05.05l-.06-.08s.05.07.06.11l-.04-.09c.04.09.06.18.07.28v-.1c0,.16,0,.32-.02.49v-.1c0,.16-.05.32-.11.47l.04-.09c-.05.12-.12.24-.2.35l.06-.08c-.08.1-.16.19-.26.27l.08-.06s-.1.07-.15.09l.09-.04s-.06.02-.09.03h.1s-.04-.01-.07-.01h.1s-.03,0-.05,0l.09.04s-.03-.02-.05-.03l.08.06s-.03-.03-.04-.04l.06.08s-.04-.06-.05-.09l.04.09c-.03-.08-.05-.16-.06-.25v.1c0-.17-.01-.35.01-.53v.1c0-.14.04-.28.1-.41l-.04.09c.05-.11.1-.21.17-.3.05-.08.06-.2.04-.29s-.09-.18-.17-.22c-.09-.05-.19-.07-.29-.04s-.16.09-.22.17Z"/>
        <path class="cls-1" d="M192.63,80.05s.06-.05.01,0,0,0,.01,0c.02-.02.05-.04.08-.05.05-.04.11-.07.17-.11.06-.04.12-.07.18-.1.03-.01.06-.03.08-.04.02,0,.03-.01.05-.02.01,0,.07-.03.01,0-.06.02,0,0,0,0,.02,0,.03-.01.05-.02.03-.01.06-.02.1-.04.06-.02.12-.04.19-.06.13-.04.26-.06.39-.08h-.1c.27-.02.54-.02.8.01h-.1c.1,0,.2.02.3.04.19.05.42-.06.46-.26s-.06-.41-.26-.46c-.8-.19-1.64-.08-2.37.29-.21.11-.4.24-.59.39-.07.06-.11.18-.11.27,0,.09.04.2.11.27s.17.11.27.11c.11,0,.18-.04.27-.11h0Z"/>
      </g>
      <g>
        <path class="cls-1" d="M179.95,105.32c-.56.43-.79.99-.67,1.69.07.38.59.47.84.22,1.84-1.86,3.84-3.55,6.01-5.03.33-.23.31-.63,0-.86l-5-3.77c-.51-.39-1.01.48-.5.86l5,3.77.25-.93c-3.02.11-6.04.19-9.07.23-2.64.04-5.22-.24-7.85-.42-2.43-.16-4.87-.2-7.3-.23s-5.05-.15-7.58-.16c-2.66-.01-5.32.03-7.97.21s-5.26.58-7.92.58-5.09-.17-7.65,0c-1.97.12-3.94.33-5.92.38-5.02.14-10.04-.21-15.06-.07-.4.01-.8.02-1.2.03-.2,0-.58-.04-.67-.03-.13.02,0-.06-.02,0,.02-.09.1.31.08.25.11.28-.02.25.25.08.39-.24.84-.41,1.27-.58,2.52-.98,5.14-1.72,7.75-2.42,5.18-1.39,10.45-2.27,15.71-3.3,2.6-.51,5.2-1.09,7.76-1.79s5.19-1.47,7.86-1.97,5.5-.76,8.22-1.35c2.9-.63,5.74-1.54,8.56-2.45,4.99-1.62,9.94-3.37,14.87-5.17.58-.21,1.17-.43,1.75-.64s.34-1.19-.27-.96c-4.34,1.61-8.71,3.17-13.1,4.65-2.89.98-5.8,1.94-8.73,2.77-2.76.78-5.56,1.31-8.4,1.7s-5.74.98-8.54,1.76c-2.57.72-5.13,1.42-7.74,1.99-5.21,1.12-10.48,1.91-15.66,3.17-2.94.72-5.86,1.54-8.73,2.51-.55.19-4.69,1.33-3.56,2.51.33.34.98.28,1.4.28,1.08,0,2.16-.06,3.23-.08,2.4-.04,4.78.07,7.18.13s4.96.05,7.43-.07,5.04-.43,7.58-.42,5.09.17,7.66-.05c2.77-.23,5.52-.53,8.31-.6,5.14-.13,10.29.05,15.43.19,2.29.06,4.55.24,6.83.43,2.94.25,5.9.12,8.85.05,1.66-.04,3.31-.09,4.97-.15.53-.02.64-.64.25-.93l-5-3.77c-.51-.39-1.01.48-.5.86l5,3.77v-.86c-2.23,1.53-4.31,3.26-6.21,5.18l.84.22c-.04-.21.03-.43.21-.56.5-.39,0-1.26-.5-.86h0Z"/>
        <path class="cls-1" d="M176.43,80.57c.8.34,1.62.64,2.44.92.41.14.81.27,1.23.39.22.06.43.13.65.19.09.03.18.05.27.08.04.01.09.02.13.04.07.03.06,0-.03-.08v-.27c0,.05.05-.04.05-.04-.03.03-.06.08-.09.11-.02.02-.04.05-.05.07-.05.08-.11.15-.16.23-.18.26-.35.53-.51.8-.58.91-1.14,1.82-1.71,2.74-.34.55.52,1.05.86.5.54-.87,1.08-1.75,1.63-2.62.17-.27.34-.54.52-.81.06-.09.11-.17.17-.26.02-.03.14-.19.07-.1-.08.11.06-.06.08-.11.07-.11.11-.26.11-.39,0-.28-.18-.51-.42-.64s-.53-.18-.79-.26c-.29-.08-.57-.17-.86-.26-1.13-.35-2.25-.76-3.34-1.22-.25-.1-.55.11-.62.35-.08.29.1.51.35.62h0Z"/>
      </g>
      <path class="cls-1" d="M144.86,93.06c1.16.79,1.86,2.31,2.32,3.59.51,1.41.74,2.89.71,4.38-.01.64.99.64,1,0,.04-1.68-.24-3.36-.85-4.93-.57-1.46-1.36-3.01-2.68-3.91-.53-.36-1.03.5-.5.86h0Z"/>
      <path class="cls-1" d="M152.84,93.4c-.54.42-.91.95-1.18,1.57-.24.56-.46,1.16-.59,1.76s-.15,1.26.17,1.8.96.85,1.61.84c1.25-.02,2.39-.88,3.1-1.85s1.17-2.34.83-3.51c-.19-.68-.72-1.2-1.43-1.31s-1.41.15-2.09,0c-.63-.14-.9.83-.27.96.53.12,1.05.05,1.58,0,.38-.03.85-.06,1.1.29s.24.81.19,1.2c-.06.46-.21.91-.43,1.31-.43.79-1.15,1.52-2.02,1.8-.35.11-.81.19-1.13-.05s-.32-.7-.27-1.06c.08-.53.28-1.07.47-1.57s.45-1,.86-1.33c.21-.16.33-.43.18-.68-.12-.21-.47-.35-.68-.18h0Z"/>
      <path class="cls-1" d="M152.26,96.91c1.23-.2,2.44-.48,3.63-.85.26-.08.42-.35.35-.62-.07-.25-.36-.43-.62-.35-1.19.38-2.4.66-3.63.85-.27.04-.42.38-.35.62.08.28.35.39.62.35h0Z"/>
      <path class="cls-1" d="M174.74,83.63c.08-.02.14.02.19.07.06.05-.07.12.02.03.11-.1.22-.19.36-.25s.32-.11.48-.13c0,0,.14-.01.14-.01-.02,0,.05.06.03.02.13.22,0,.53-.13.73s-.36.38-.58.47c-.57.22-1.36.07-1.54-.59-.06-.23,0-.47.16-.65.06-.07.16-.14.27-.15.02,0,.06,0,.08,0,.05,0,.06.04.06.07.01.07.02.17-.03.29-.06.13-.15.26-.25.37-.23.26-.49.47-.79.64-.13.07-.27.14-.42.19-.08.03-.15.05-.23.07-.04.01-.1.01-.13.03-.04,0-.05,0-.02,0l.24.17s.13-.18.15-.21c.13-.13.28-.23.43-.31.15-.08.3-.15.46-.2.14-.04.36-.13.51-.09.16.04.16.34.15.45-.03.21-.12.38-.3.47.03-.01-.05.01-.08,0,0,0-.05-.02-.05-.03-.03-.04,0-.18.02-.25.11-.25.4-.39.64-.47.33-.11.73-.25,1.09-.2.11.02.21.06.29.13.06.05.08.08.11.14,0,.01.01.06,0,.09-.06.25-.45.34-.68.37-.71.11-1.47-.02-2.11-.34-.23-.12-.54-.29-.62-.53-.02-.07-.02-.13.05-.22.06-.08.18-.16.29-.22.27-.15.62-.3.93-.25.28.04.38.26.41.53.08.6-.21,1.27-.84,1.44-.12.03-.26.04-.35.02-.03,0-.1-.05-.08-.02.01.02,0,.04.01,0,.07-.25.53-.32.74-.36.28-.05.69-.05.9.17.05.05.09.12.07.16-.04.06-.17.11-.24.14-.53.17-1.07-.21-1.09-.74s.51-.96,1.04-1.01,1.2.22,1.43.72c.05.11.07.22.07.33,0,.05-.01.08,0,.07-.03.05,0,.04-.06.09-.2.16-.62.14-.84.06s-.37-.29-.33-.48h-.96c.03.1.03.19-.04.27-.43.48.27,1.19.71.71.31-.34.43-.8.29-1.24s-.84-.5-.96,0c-.16.65.18,1.32.78,1.61.56.27,1.33.28,1.86-.06s.67-1,.48-1.56-.6-.99-1.12-1.24c-1.05-.51-2.48-.29-3.1.79s.05,2.51,1.28,2.7c.62.09,1.41-.1,1.71-.7s-.09-1.33-.68-1.6-1.34-.23-1.96,0-1.16.82-.92,1.52,1.04.79,1.63.63,1.08-.58,1.34-1.13.33-1.24.12-1.83c-.23-.64-.83-1.02-1.51-.98-.6.04-1.31.32-1.72.78-.46.51-.44,1.19-.02,1.71.38.47.98.74,1.54.91.59.18,1.23.25,1.85.18.67-.08,1.35-.32,1.62-1,.23-.6-.09-1.25-.63-1.54-.6-.33-1.29-.2-1.91,0s-1.21.52-1.45,1.15.04,1.43.74,1.57c.6.12,1.17-.22,1.43-.76.24-.5.26-1.14-.04-1.63-.39-.63-1.15-.58-1.77-.38-.58.19-1.23.56-1.54,1.1-.17.3-.23.69-.06,1,.19.34.55.42.91.35.58-.11,1.13-.4,1.59-.76s.91-.86,1.01-1.44c.12-.69-.3-1.37-1.03-1.41-.66-.04-1.22.44-1.45,1.02-.22.55-.1,1.18.25,1.65.39.53,1.01.81,1.67.81,1.16,0,2.39-.95,2.28-2.2-.06-.71-.56-1.18-1.28-1.11-.61.06-1.36.34-1.66.92-.33.65.17,1.52.95,1.32.62-.17.36-1.13-.27-.96h0Z"/>
    </g>
  </g>
</svg>