<?xml version="1.0" encoding="utf-8" standalone="no"?>
<!DOCTYPE svg PUBLIC "-//W3C//DTD SVG 1.1//EN"
  "http://www.w3.org/Graphics/SVG/1.1/DTD/svg11.dtd">
<svg xmlns:xlink="http://www.w3.org/1999/xlink" width="453.6pt" height="96.004817pt" viewBox="0 0 453.6 96.004817" xmlns="http://www.w3.org/2000/svg" version="1.1">
 <metadata>
  <rdf:RDF xmlns:dc="http://purl.org/dc/elements/1.1/" xmlns:cc="http://creativecommons.org/ns#" xmlns:rdf="http://www.w3.org/1999/02/22-rdf-syntax-ns#">
   <cc:Work>
    <dc:type rdf:resource="http://purl.org/dc/dcmitype/StillImage"/>
    <dc:date>2025-05-20T12:00:10.427650</dc:date>
    <dc:format>image/svg+xml</dc:format>
    <dc:creator>
     <cc:Agent>
      <dc:title>Matplotlib v3.8.0, https://matplotlib.org/</dc:title>
     </cc:Agent>
    </dc:creator>
   </cc:Work>
  </rdf:RDF>
 </metadata>
 <defs>
  <style type="text/css">*{stroke-linejoin: round; stroke-linecap: butt}</style>
 </defs>
 <g id="figure_1">
  <g id="patch_1">
   <path d="M 0 96.004817 
L 453.6 96.004817 
L 453.6 0 
L 0 0 
z
" style="fill: #ffffff"/>
  </g>
  <g id="axes_1">
   <g id="patch_2">
    <path d="M 7.2 88.804817 
L 446.4 88.804817 
L 446.4 21.7 
L 7.2 21.7 
z
" style="fill: #ffffff"/>
   </g>
   <g id="matplotlib.axis_1">
    <g id="xtick_1">
     <g id="line2d_1">
      <defs>
       <path id="m5da307388d" d="M 0 0 
L 0 3.5 
" style="stroke: #000000; stroke-width: 0.8"/>
      </defs>
      <g>
       <use xlink:href="#m5da307388d" x="57.876923" y="55.252408" style="stroke: #000000; stroke-width: 0.8"/>
      </g>
     </g>
     <g id="text_1">
      <!-- $-2\pi$ -->
      <g transform="translate(48.626923 69.850846) scale(0.1 -0.1)">
       <defs>
        <path id="Cmsy10-a1" d="M 653 1472 
Q 600 1472 565 1512 
Q 531 1553 531 1600 
Q 531 1647 565 1687 
Q 600 1728 653 1728 
L 4325 1728 
Q 4375 1728 4408 1687 
Q 4441 1647 4441 1600 
Q 4441 1553 4408 1512 
Q 4375 1472 4325 1472 
L 653 1472 
z
" transform="scale(0.015625)"/>
        <path id="Cmr10-32" d="M 319 0 
L 319 172 
Q 319 188 331 206 
L 1325 1306 
Q 1550 1550 1690 1715 
Q 1831 1881 1968 2097 
Q 2106 2313 2186 2536 
Q 2266 2759 2266 3009 
Q 2266 3272 2169 3511 
Q 2072 3750 1880 3894 
Q 1688 4038 1416 4038 
Q 1138 4038 916 3870 
Q 694 3703 603 3438 
Q 628 3444 672 3444 
Q 816 3444 917 3347 
Q 1019 3250 1019 3097 
Q 1019 2950 917 2848 
Q 816 2747 672 2747 
Q 522 2747 420 2851 
Q 319 2956 319 3097 
Q 319 3338 409 3548 
Q 500 3759 670 3923 
Q 841 4088 1055 4175 
Q 1269 4263 1509 4263 
Q 1875 4263 2190 4108 
Q 2506 3953 2690 3670 
Q 2875 3388 2875 3009 
Q 2875 2731 2753 2481 
Q 2631 2231 2440 2026 
Q 2250 1822 1953 1562 
Q 1656 1303 1563 1216 
L 838 519 
L 1453 519 
Q 1906 519 2211 526 
Q 2516 534 2534 550 
Q 2609 631 2688 1141 
L 2875 1141 
L 2694 0 
L 319 0 
z
" transform="scale(0.015625)"/>
        <path id="Cmmi10-bc" d="M 647 109 
Q 647 144 672 213 
Q 850 584 1004 942 
Q 1159 1300 1282 1639 
Q 1406 1978 1509 2363 
L 1100 2363 
Q 866 2363 662 2216 
Q 459 2069 325 1844 
Q 313 1819 288 1819 
L 213 1819 
Q 153 1819 153 1881 
Q 153 1894 166 1919 
Q 375 2275 614 2517 
Q 853 2759 1153 2759 
L 3475 2759 
Q 3541 2759 3587 2715 
Q 3634 2672 3634 2597 
Q 3634 2503 3567 2433 
Q 3500 2363 3406 2363 
L 2591 2363 
Q 2488 1859 2478 1381 
Q 2478 766 2694 269 
Q 2713 231 2713 191 
Q 2713 122 2672 62 
Q 2631 3 2567 -34 
Q 2503 -72 2431 -72 
Q 2263 -72 2200 203 
Q 2138 478 2138 738 
Q 2138 1103 2200 1442 
Q 2263 1781 2400 2363 
L 1703 2363 
Q 1197 313 1094 103 
Q 1003 -72 844 -72 
Q 766 -72 706 -20 
Q 647 31 647 109 
z
" transform="scale(0.015625)"/>
       </defs>
       <use xlink:href="#Cmsy10-a1" transform="translate(0 0.390625)"/>
       <use xlink:href="#Cmr10-32" transform="translate(77.685547 0.390625)"/>
       <use xlink:href="#Cmmi10-bc" transform="translate(127.685547 0.390625)"/>
      </g>
     </g>
    </g>
    <g id="xtick_2">
     <g id="line2d_2">
      <g>
       <use xlink:href="#m5da307388d" x="142.338462" y="55.252408" style="stroke: #000000; stroke-width: 0.8"/>
      </g>
     </g>
     <g id="text_2">
      <!-- $-\pi$ -->
      <g transform="translate(135.588462 69.850846) scale(0.1 -0.1)">
       <use xlink:href="#Cmsy10-a1" transform="translate(0 0.890625)"/>
       <use xlink:href="#Cmmi10-bc" transform="translate(77.685547 0.890625)"/>
      </g>
     </g>
    </g>
    <g id="xtick_3">
     <g id="line2d_3">
      <g>
       <use xlink:href="#m5da307388d" x="226.8" y="55.252408" style="stroke: #000000; stroke-width: 0.8"/>
      </g>
     </g>
    </g>
    <g id="xtick_4">
     <g id="line2d_4">
      <g>
       <use xlink:href="#m5da307388d" x="311.261538" y="55.252408" style="stroke: #000000; stroke-width: 0.8"/>
      </g>
     </g>
     <g id="text_3">
      <!-- $\pi$ -->
      <g transform="translate(308.411538 69.850846) scale(0.1 -0.1)">
       <use xlink:href="#Cmmi10-bc" transform="translate(0 0.890625)"/>
      </g>
     </g>
    </g>
    <g id="xtick_5">
     <g id="line2d_5">
      <g>
       <use xlink:href="#m5da307388d" x="395.723077" y="55.252408" style="stroke: #000000; stroke-width: 0.8"/>
      </g>
     </g>
     <g id="text_4">
      <!-- $2\pi$ -->
      <g transform="translate(390.373077 69.850846) scale(0.1 -0.1)">
       <use xlink:href="#Cmr10-32" transform="translate(0 0.390625)"/>
       <use xlink:href="#Cmmi10-bc" transform="translate(50 0.390625)"/>
      </g>
     </g>
    </g>
   </g>
   <g id="matplotlib.axis_2">
    <g id="ytick_1">
     <g id="line2d_6">
      <defs>
       <path id="m71bf0899bb" d="M 0 0 
L -3.5 0 
" style="stroke: #000000; stroke-width: 0.8"/>
      </defs>
      <g>
       <use xlink:href="#m71bf0899bb" x="226.8" y="82.137351" style="stroke: #000000; stroke-width: 0.8"/>
      </g>
     </g>
     <g id="text_5">
      <!-- $-1$ -->
      <g transform="translate(207 85.93657) scale(0.1 -0.1)">
       <defs>
        <path id="Cmr10-31" d="M 594 0 
L 594 225 
Q 1394 225 1394 428 
L 1394 3788 
Q 1063 3628 556 3628 
L 556 3853 
Q 1341 3853 1741 4263 
L 1831 4263 
Q 1853 4263 1873 4245 
Q 1894 4228 1894 4206 
L 1894 428 
Q 1894 225 2694 225 
L 2694 0 
L 594 0 
z
" transform="scale(0.015625)"/>
       </defs>
       <use xlink:href="#Cmsy10-a1" transform="translate(0 0.390625)"/>
       <use xlink:href="#Cmr10-31" transform="translate(77.685547 0.390625)"/>
      </g>
     </g>
    </g>
    <g id="ytick_2">
     <g id="line2d_7">
      <g>
       <use xlink:href="#m71bf0899bb" x="226.8" y="28.367466" style="stroke: #000000; stroke-width: 0.8"/>
      </g>
     </g>
     <g id="text_6">
      <!-- $+1$ -->
      <g transform="translate(207 32.166685) scale(0.1 -0.1)">
       <defs>
        <path id="Cmr10-2b" d="M 481 1472 
Q 428 1472 393 1512 
Q 359 1553 359 1600 
Q 359 1647 393 1687 
Q 428 1728 481 1728 
L 2363 1728 
L 2363 3616 
Q 2363 3666 2400 3698 
Q 2438 3731 2491 3731 
Q 2538 3731 2578 3698 
Q 2619 3666 2619 3616 
L 2619 1728 
L 4500 1728 
Q 4547 1728 4581 1687 
Q 4616 1647 4616 1600 
Q 4616 1553 4581 1512 
Q 4547 1472 4500 1472 
L 2619 1472 
L 2619 -416 
Q 2619 -466 2578 -498 
Q 2538 -531 2491 -531 
Q 2438 -531 2400 -498 
Q 2363 -466 2363 -416 
L 2363 1472 
L 481 1472 
z
" transform="scale(0.015625)"/>
       </defs>
       <use xlink:href="#Cmr10-2b" transform="translate(0 0.390625)"/>
       <use xlink:href="#Cmr10-31" transform="translate(77.685547 0.390625)"/>
      </g>
     </g>
    </g>
   </g>
   <g id="line2d_8">
    <path d="M 15.646154 35.088701 
L 16.729069 35.132297 
L 18.132507 35.317988 
L 20.494272 35.953519 
L 22.319178 36.711256 
L 24.052335 37.632538 
L 26.65077 39.347128 
L 29.714034 41.802107 
L 32.811336 44.637577 
L 44.093415 55.504892 
L 47.304638 58.026111 
L 49.957387 59.707475 
L 52.50551 60.914679 
L 54.441077 61.536935 
L 56.002884 61.843224 
L 57.713758 61.972654 
L 59.251901 61.903385 
L 60.982225 61.616563 
L 62.71255 61.113229 
L 64.884495 60.188109 
L 66.822724 59.105231 
L 68.845237 57.741693 
L 71.570965 55.581223 
L 73.690946 53.696178 
L 78.233416 49.289661 
L 84.100742 43.544811 
L 87.006931 40.983013 
L 89.743714 38.889925 
L 91.182435 37.944442 
L 92.773714 37.040211 
L 95.249933 35.956925 
L 96.907947 35.467728 
L 98.454095 35.19028 
L 100.037367 35.088885 
L 102.128076 35.240246 
L 103.405127 35.491107 
L 104.682178 35.85957 
L 106.195949 36.444016 
L 108.607373 37.687533 
L 110.247823 38.735283 
L 111.888274 39.928737 
L 115.553689 43.02837 
L 120.488999 47.79746 
L 126.430361 53.609197 
L 128.941862 55.832728 
L 131.536477 57.862135 
L 133.734148 59.312646 
L 136.0626 60.535062 
L 137.428244 61.086778 
L 138.793888 61.509021 
L 140.833158 61.889449 
L 142.360588 61.973626 
L 144.492856 61.801373 
L 146.699405 61.272448 
L 148.204779 60.713795 
L 151.034554 59.257579 
L 153.317277 57.734041 
L 156.294457 55.356861 
L 158.965432 52.93665 
L 165.136667 46.852744 
L 169.47486 42.709475 
L 173.268718 39.565405 
L 175.767602 37.868706 
L 178.061987 36.6332 
L 179.791986 35.928684 
L 181.792781 35.374412 
L 184.235392 35.092847 
L 186.319378 35.202471 
L 187.479673 35.402544 
L 189.017156 35.81789 
L 191.539593 36.855751 
L 193.019441 37.65837 
L 194.693693 38.724559 
L 196.367945 39.942678 
L 199.669999 42.715242 
L 202.662792 45.534736 
L 211.210057 53.90233 
L 214.422038 56.666227 
L 216.843378 58.451814 
L 219.30387 59.937158 
L 221.637641 60.994508 
L 223.66201 61.609041 
L 225.538496 61.914495 
L 227.030038 61.971676 
L 228.532252 61.862186 
L 230.034466 61.586387 
L 231.424809 61.185891 
L 233.926641 60.128355 
L 236.716264 58.479003 
L 238.75272 57.000633 
L 241.944658 54.307504 
L 246.328593 50.114282 
L 251.795961 44.704271 
L 256.12113 40.825634 
L 258.060705 39.321927 
L 260.400546 37.765194 
L 262.887409 36.46823 
L 264.955058 35.701854 
L 266.944755 35.250232 
L 268.939463 35.089012 
L 269.774617 35.109277 
L 271.146765 35.254899 
L 272.518912 35.538731 
L 273.91274 35.965505 
L 276.424546 37.071354 
L 278.50805 38.293451 
L 280.192822 39.462719 
L 283.462868 42.119838 
L 284.933637 43.448304 
L 291.296628 49.680243 
L 295.484336 53.730153 
L 298.66497 56.491129 
L 301.377548 58.50068 
L 303.490304 59.789197 
L 305.39463 60.713545 
L 307.09205 61.332181 
L 308.78947 61.746978 
L 311.219265 61.973578 
L 313.151894 61.840947 
L 314.228881 61.647461 
L 315.734809 61.236199 
L 317.240737 60.665653 
L 319.989655 59.238247 
L 322.93885 57.21271 
L 324.683704 55.811249 
L 328.877171 51.991522 
L 338.000035 43.070624 
L 341.094654 40.411803 
L 343.215472 38.829404 
L 345.817996 37.220479 
L 347.564235 36.374782 
L 349.310475 35.733938 
L 351.394853 35.252005 
L 353.521785 35.088734 
L 355.688999 35.267788 
L 357.319573 35.62987 
L 359.052655 36.22239 
L 361.127928 37.199617 
L 363.795193 38.847453 
L 365.841166 40.372968 
L 368.44486 42.581973 
L 370.004302 44.017232 
L 382.207104 55.732213 
L 384.959606 57.88982 
L 387.585102 59.58463 
L 390.026596 60.784608 
L 391.824802 61.412351 
L 393.573494 61.80214 
L 395.335094 61.968045 
L 397.0505 61.908157 
L 398.759236 61.632221 
L 400.150862 61.250984 
L 402.364803 60.365963 
L 403.187118 59.954106 
L 405.828594 58.350735 
L 407.612601 57.049614 
L 410.904704 54.2741 
L 413.386539 51.945282 
L 423.615859 42.037278 
L 426.594868 39.609051 
L 428.860883 38.04861 
L 431.340497 36.682951 
L 433.313147 35.881824 
L 434.459259 35.540386 
L 436.862477 35.13298 
L 437.953846 35.088701 
L 437.953846 35.088701 
" clip-path="url(#p201408f43a)" style="fill: none; stroke: #ff0000; stroke-width: 3; stroke-linecap: square"/>
   </g>
   <g id="patch_3">
    <path d="M 226.8 88.804817 
L 226.8 21.7 
" style="fill: none; stroke: #000000; stroke-width: 0.8; stroke-linejoin: miter; stroke-linecap: square"/>
   </g>
   <g id="patch_4">
    <path d="M 7.2 55.252408 
L 446.4 55.252408 
" style="fill: none; stroke: #000000; stroke-width: 0.8; stroke-linejoin: miter; stroke-linecap: square"/>
   </g>
   <g id="text_7">
    <!-- $f(\theta) = (\sin\theta )^2 - \frac{1}{4}$ -->
    <g transform="translate(189.05 15.7) scale(0.1 -0.1)">
     <defs>
      <path id="Cmmi10-66" d="M 622 -1056 
Q 741 -1147 909 -1147 
Q 1138 -1147 1281 -641 
Q 1341 -397 1606 966 
L 1900 2534 
L 1350 2534 
Q 1288 2534 1288 2619 
Q 1313 2759 1369 2759 
L 1941 2759 
L 2016 3175 
Q 2053 3369 2084 3508 
Q 2116 3647 2152 3765 
Q 2188 3884 2259 4031 
Q 2369 4241 2555 4377 
Q 2741 4513 2956 4513 
Q 3097 4513 3230 4461 
Q 3363 4409 3447 4306 
Q 3531 4203 3531 4063 
Q 3531 3900 3423 3779 
Q 3316 3659 3163 3659 
Q 3059 3659 2986 3723 
Q 2913 3788 2913 3891 
Q 2913 4031 3008 4136 
Q 3103 4241 3244 4256 
Q 3125 4347 2950 4347 
Q 2853 4347 2767 4256 
Q 2681 4166 2656 4063 
Q 2616 3900 2478 3181 
L 2400 2759 
L 3059 2759 
Q 3122 2759 3122 2675 
Q 3119 2659 3109 2620 
Q 3100 2581 3083 2557 
Q 3066 2534 3041 2534 
L 2356 2534 
L 2059 972 
Q 2003 631 1929 279 
Q 1856 -72 1723 -442 
Q 1591 -813 1384 -1063 
Q 1178 -1313 897 -1313 
Q 681 -1313 511 -1189 
Q 341 -1066 341 -863 
Q 341 -700 445 -579 
Q 550 -459 709 -459 
Q 816 -459 887 -523 
Q 959 -588 959 -691 
Q 959 -828 857 -942 
Q 756 -1056 622 -1056 
z
" transform="scale(0.015625)"/>
      <path id="Cmr10-28" d="M 1984 -1588 
Q 1628 -1306 1370 -942 
Q 1113 -578 948 -165 
Q 784 247 703 697 
Q 622 1147 622 1600 
Q 622 2059 703 2509 
Q 784 2959 951 3375 
Q 1119 3791 1378 4153 
Q 1638 4516 1984 4788 
Q 1984 4800 2016 4800 
L 2075 4800 
Q 2094 4800 2109 4783 
Q 2125 4766 2125 4744 
Q 2125 4716 2113 4703 
Q 1800 4397 1592 4047 
Q 1384 3697 1257 3301 
Q 1131 2906 1075 2482 
Q 1019 2059 1019 1600 
Q 1019 -434 2106 -1491 
Q 2125 -1509 2125 -1544 
Q 2125 -1559 2108 -1579 
Q 2091 -1600 2075 -1600 
L 2016 -1600 
Q 1984 -1600 1984 -1588 
z
" transform="scale(0.015625)"/>
      <path id="Cmmi10-b5" d="M 1031 -72 
Q 741 -72 566 140 
Q 391 353 323 653 
Q 256 953 256 1247 
L 256 1253 
Q 256 1572 317 1915 
Q 378 2259 493 2601 
Q 609 2944 744 3213 
Q 838 3400 986 3631 
Q 1134 3863 1317 4064 
Q 1500 4266 1711 4389 
Q 1922 4513 2138 4513 
L 2144 4513 
Q 2375 4513 2529 4384 
Q 2684 4256 2770 4056 
Q 2856 3856 2890 3628 
Q 2925 3400 2925 3194 
Q 2925 2709 2794 2204 
Q 2663 1700 2431 1228 
Q 2344 1050 2189 809 
Q 2034 569 1861 378 
Q 1688 188 1472 58 
Q 1256 -72 1038 -72 
L 1031 -72 
z
M 1044 97 
Q 1256 97 1451 323 
Q 1647 550 1794 873 
Q 1941 1197 2052 1536 
Q 2163 1875 2216 2113 
L 909 2113 
Q 809 1709 753 1417 
Q 697 1125 697 844 
Q 697 97 1044 97 
z
M 959 2338 
L 2272 2338 
Q 2341 2619 2381 2808 
Q 2422 2997 2450 3206 
Q 2478 3416 2478 3597 
Q 2478 4347 2138 4347 
Q 1731 4347 1436 3692 
Q 1141 3038 959 2338 
z
" transform="scale(0.015625)"/>
      <path id="Cmr10-29" d="M 416 -1600 
Q 359 -1600 359 -1544 
Q 359 -1516 372 -1503 
Q 1466 -434 1466 1600 
Q 1466 3634 384 4691 
Q 359 4706 359 4744 
Q 359 4766 376 4783 
Q 394 4800 416 4800 
L 475 4800 
Q 494 4800 506 4788 
Q 966 4425 1272 3906 
Q 1578 3388 1720 2800 
Q 1863 2213 1863 1600 
Q 1863 1147 1786 708 
Q 1709 269 1542 -157 
Q 1375 -584 1119 -945 
Q 863 -1306 506 -1588 
Q 494 -1600 475 -1600 
L 416 -1600 
z
" transform="scale(0.015625)"/>
      <path id="Cmr10-3d" d="M 481 850 
Q 428 850 393 890 
Q 359 931 359 978 
Q 359 1031 393 1068 
Q 428 1106 481 1106 
L 4500 1106 
Q 4547 1106 4581 1068 
Q 4616 1031 4616 978 
Q 4616 931 4581 890 
Q 4547 850 4500 850 
L 481 850 
z
M 481 2094 
Q 428 2094 393 2131 
Q 359 2169 359 2222 
Q 359 2269 393 2309 
Q 428 2350 481 2350 
L 4500 2350 
Q 4547 2350 4581 2309 
Q 4616 2269 4616 2222 
Q 4616 2169 4581 2131 
Q 4547 2094 4500 2094 
L 481 2094 
z
" transform="scale(0.015625)"/>
      <path id="Cmr10-73" d="M 213 -19 
L 213 1025 
Q 213 1075 269 1075 
L 347 1075 
Q 384 1075 397 1025 
Q 575 97 1259 97 
Q 1563 97 1767 234 
Q 1972 372 1972 659 
Q 1972 866 1812 1011 
Q 1653 1156 1434 1209 
L 1006 1294 
Q 791 1341 614 1437 
Q 438 1534 325 1695 
Q 213 1856 213 2069 
Q 213 2350 361 2529 
Q 509 2709 746 2789 
Q 984 2869 1259 2869 
Q 1588 2869 1831 2694 
L 2016 2853 
Q 2016 2869 2047 2869 
L 2094 2869 
Q 2113 2869 2128 2851 
Q 2144 2834 2144 2816 
L 2144 1978 
Q 2144 1919 2094 1919 
L 2016 1919 
Q 1959 1919 1959 1978 
Q 1959 2313 1773 2516 
Q 1588 2719 1253 2719 
Q 966 2719 755 2612 
Q 544 2506 544 2247 
Q 544 2069 695 1955 
Q 847 1841 1050 1791 
L 1484 1709 
Q 1703 1659 1892 1540 
Q 2081 1422 2192 1240 
Q 2303 1059 2303 831 
Q 2303 600 2223 429 
Q 2144 259 2001 146 
Q 1859 34 1665 -19 
Q 1472 -72 1259 -72 
Q 859 -72 575 197 
L 341 -56 
Q 341 -72 306 -72 
L 269 -72 
Q 213 -72 213 -19 
z
" transform="scale(0.015625)"/>
      <path id="Cmr10-69" d="M 197 0 
L 197 225 
Q 416 225 556 259 
Q 697 294 697 428 
L 697 2175 
Q 697 2422 601 2478 
Q 506 2534 225 2534 
L 225 2759 
L 1147 2828 
L 1147 428 
Q 1147 294 1269 259 
Q 1391 225 1594 225 
L 1594 0 
L 197 0 
z
M 469 3928 
Q 469 4069 575 4175 
Q 681 4281 819 4281 
Q 909 4281 993 4234 
Q 1078 4188 1125 4103 
Q 1172 4019 1172 3928 
Q 1172 3791 1065 3684 
Q 959 3578 819 3578 
Q 681 3578 575 3684 
Q 469 3791 469 3928 
z
" transform="scale(0.015625)"/>
      <path id="Cmr10-6e" d="M 191 0 
L 191 225 
Q 409 225 550 259 
Q 691 294 691 428 
L 691 2175 
Q 691 2347 639 2423 
Q 588 2500 491 2517 
Q 394 2534 191 2534 
L 191 2759 
L 1119 2828 
L 1119 2203 
Q 1247 2478 1498 2653 
Q 1750 2828 2047 2828 
Q 2491 2828 2714 2615 
Q 2938 2403 2938 1966 
L 2938 428 
Q 2938 294 3078 259 
Q 3219 225 3438 225 
L 3438 0 
L 1972 0 
L 1972 225 
Q 2191 225 2331 259 
Q 2472 294 2472 428 
L 2472 1947 
Q 2472 2259 2381 2461 
Q 2291 2663 2009 2663 
Q 1638 2663 1398 2366 
Q 1159 2069 1159 1691 
L 1159 428 
Q 1159 294 1300 259 
Q 1441 225 1656 225 
L 1656 0 
L 191 0 
z
" transform="scale(0.015625)"/>
      <path id="Cmr10-34" d="M 178 1056 
L 178 1281 
L 2156 4231 
Q 2178 4263 2222 4263 
L 2316 4263 
Q 2388 4263 2388 4191 
L 2388 1281 
L 3016 1281 
L 3016 1056 
L 2388 1056 
L 2388 428 
Q 2388 297 2575 261 
Q 2763 225 3009 225 
L 3009 0 
L 1247 0 
L 1247 225 
Q 1494 225 1681 261 
Q 1869 297 1869 428 
L 1869 1056 
L 178 1056 
z
M 391 1281 
L 1906 1281 
L 1906 3547 
L 391 1281 
z
" transform="scale(0.015625)"/>
     </defs>
     <use xlink:href="#Cmmi10-66" transform="translate(0 0.109375)"/>
     <use xlink:href="#Cmr10-28" transform="translate(48.876953 0.109375)"/>
     <use xlink:href="#Cmmi10-b5" transform="translate(87.695312 0.109375)"/>
     <use xlink:href="#Cmr10-29" transform="translate(134.619141 0.109375)"/>
     <use xlink:href="#Cmr10-3d" transform="translate(190.996094 0.109375)"/>
     <use xlink:href="#Cmr10-28" transform="translate(286.240234 0.109375)"/>
     <use xlink:href="#Cmr10-73" transform="translate(325.058594 0.109375)"/>
     <use xlink:href="#Cmr10-69" transform="translate(364.462891 0.109375)"/>
     <use xlink:href="#Cmr10-6e" transform="translate(392.148438 0.109375)"/>
     <use xlink:href="#Cmmi10-b5" transform="translate(462.29847 0.109375)"/>
     <use xlink:href="#Cmr10-29" transform="translate(509.222298 0.109375)"/>
     <use xlink:href="#Cmr10-32" transform="translate(552.504798 38.373438) scale(0.7)"/>
     <use xlink:href="#Cmsy10-a1" transform="translate(611.440735 0.109375)"/>
     <use xlink:href="#Cmr10-31" transform="translate(706.684876 37.609375) scale(0.7)"/>
     <use xlink:href="#Cmr10-34" transform="translate(706.684876 -40.267187) scale(0.7)"/>
     <path d="M 706.684876 12.609375 
L 706.684876 18.859375 
L 741.684876 18.859375 
L 741.684876 12.609375 
L 706.684876 12.609375 
z
"/>
    </g>
   </g>
   <g id="PathCollection_1">
    <defs>
     <path id="C0_0_21ea3eeafc" d="M 0 2.738613 
C 0.726289 2.738613 1.422928 2.450055 1.936492 1.936492 
C 2.450055 1.422928 2.738613 0.726289 2.738613 -0 
C 2.738613 -0.726289 2.450055 -1.422928 1.936492 -1.936492 
C 1.422928 -2.450055 0.726289 -2.738613 0 -2.738613 
C -0.726289 -2.738613 -1.422928 -2.450055 -1.936492 -1.936492 
C -2.450055 -1.422928 -2.738613 -0.726289 -2.738613 0 
C -2.738613 0.726289 -2.450055 1.422928 -1.936492 1.936492 
C -1.422928 2.450055 -0.726289 2.738613 0 2.738613 
z
"/>
    </defs>
    <g clip-path="url(#p201408f43a)">
     <use xlink:href="#C0_0_21ea3eeafc" x="43.8" y="55.252408" style="fill: #0000ff"/>
    </g>
    <g clip-path="url(#p201408f43a)">
     <use xlink:href="#C0_0_21ea3eeafc" x="71.953846" y="55.252408" style="fill: #0000ff"/>
    </g>
    <g clip-path="url(#p201408f43a)">
     <use xlink:href="#C0_0_21ea3eeafc" x="128.261538" y="55.252408" style="fill: #0000ff"/>
    </g>
    <g clip-path="url(#p201408f43a)">
     <use xlink:href="#C0_0_21ea3eeafc" x="156.415385" y="55.252408" style="fill: #0000ff"/>
    </g>
    <g clip-path="url(#p201408f43a)">
     <use xlink:href="#C0_0_21ea3eeafc" x="212.723077" y="55.252408" style="fill: #0000ff"/>
    </g>
    <g clip-path="url(#p201408f43a)">
     <use xlink:href="#C0_0_21ea3eeafc" x="240.876923" y="55.252408" style="fill: #0000ff"/>
    </g>
    <g clip-path="url(#p201408f43a)">
     <use xlink:href="#C0_0_21ea3eeafc" x="297.184615" y="55.252408" style="fill: #0000ff"/>
    </g>
    <g clip-path="url(#p201408f43a)">
     <use xlink:href="#C0_0_21ea3eeafc" x="325.338462" y="55.252408" style="fill: #0000ff"/>
    </g>
    <g clip-path="url(#p201408f43a)">
     <use xlink:href="#C0_0_21ea3eeafc" x="381.646154" y="55.252408" style="fill: #0000ff"/>
    </g>
    <g clip-path="url(#p201408f43a)">
     <use xlink:href="#C0_0_21ea3eeafc" x="409.8" y="55.252408" style="fill: #0000ff"/>
    </g>
   </g>
  </g>
 </g>
 <defs>
  <clipPath id="p201408f43a">
   <rect x="7.2" y="21.7" width="439.2" height="67.104817"/>
  </clipPath>
 </defs>
</svg>
