<?xml version="1.0" encoding="UTF-8"?>
<svg id="Layer_2" data-name="Layer 2" xmlns="http://www.w3.org/2000/svg" viewBox="0 0 251.02 254.57">
  <defs>
    <style>
      .cls-1 {
        fill: #231f20;
      }

      .cls-2 {
        opacity: .29;
      }

      .cls-3 {
        fill: #939598;
      }
    </style>
  </defs>
  <g id="Layer_1-2" data-name="Layer 1">
    <g>
      <path class="cls-3" d="M28.68,208.88c9.04-1.68,17.99-3.77,26.83-6.29s17.53-5.49,26.13-8.7c8.67-3.24,17.26-6.67,25.92-9.91s17.49-6.33,26.29-9.31,17.72-5.88,26.6-8.75c1.09-.35,2.18-.71,3.27-1.06,1.22-.39.7-2.33-.53-1.93-8.88,2.88-17.76,5.75-26.61,8.72s-17.6,5.99-26.33,9.2-17.3,6.62-25.96,9.91c-8.59,3.26-17.25,6.34-26.06,8.96s-17.75,4.82-26.76,6.6c-1.11.22-2.21.43-3.32.63-1.26.23-.73,2.16.53,1.93h0Z"/>
      <path class="cls-3" d="M163.2,164.86c10.52,2.9,20.71,6.73,30.55,11.43,5.1,2.44,10.19,4.9,15.33,7.26,6.5,2.98,13.2,5.48,19.61,8.65,7.2,3.57,14.15,7.65,20.83,12.11,1.07.72,2.08-1.01,1.01-1.73-6.1-4.08-12.41-7.83-18.95-11.17-2.6-1.33-5.24-2.59-7.91-3.77-3.66-1.62-7.39-3.07-11.05-4.68-5.59-2.46-11.09-5.14-16.6-7.79-3.92-1.88-7.87-3.69-11.9-5.33-5.72-2.33-11.56-4.35-17.48-6.08-.97-.28-1.94-.56-2.91-.82-1.24-.34-1.77,1.59-.53,1.93h0Z"/>
      <path class="cls-3" d="M160.58,18.91c.05,9.43.11,18.85.16,28.28s.11,18.86.16,28.29.1,18.82.16,28.22.11,18.9.16,28.35c.05,9.45.11,18.9.16,28.35l.02,3.5c0,1.29,2.01,1.29,2,0-.05-9.45-.11-18.9-.16-28.35-.05-9.45-.11-18.9-.16-28.35s-.1-18.82-.16-28.22c-.05-9.43-.11-18.87-.16-28.3-.05-9.43-.11-18.85-.16-28.28l-.02-3.49c0-1.29-2.01-1.29-2,0h0Z"/>
    </g>
    <g>
      <g>
        <path class="cls-1" d="M58.06,104.94c1.41,3.76,2.87,7.5,4.38,11.23.75,1.84,1.5,3.68,2.27,5.51.38.9.76,1.8,1.14,2.71.36.84.6,2.02,1.57,2.32.4.12.94-.07,1.13-.46.13-.25.18-.47.17-.75-.05-1.28-2.05-1.29-2,0v.16c.05-.17.1-.34.14-.5l-.04.08,1.13-.46-.13-.04.44.26c-.24-.26-.35-.83-.5-1.17-.18-.41-.35-.82-.52-1.23-.36-.85-.72-1.71-1.08-2.57-.72-1.72-1.42-3.45-2.12-5.18-1.39-3.46-2.75-6.94-4.06-10.44-.19-.51-.68-.85-1.23-.7-.48.13-.89.72-.7,1.23h0Z"/>
        <path class="cls-1" d="M68.6,106.64c-3.46,5.13-7.67,9.84-12.38,13.85-.29.25-.59.49-.89.73-.17.14.13-.09.02-.02-.03.02-.08.05-.11.08-.08.1-.33.11.11-.02h.53,0c.24.32.49.64.73.96h0c-.05.16-.09.33-.14.5,0,0-.22.23-.05.07.1-.09.18-.19.27-.28.44-.45.9-.89,1.35-1.33.92-.9-.49-2.31-1.41-1.41-.5.49-1.01.98-1.5,1.48-.26.27-.55.56-.53.97s.29.88.73.96c.7.14,1.18-.38,1.68-.79.77-.63,1.52-1.29,2.25-1.97,2.55-2.35,4.94-4.88,7.14-7.56,1.38-1.68,2.69-3.43,3.9-5.23.72-1.07-1.01-2.07-1.73-1.01h0Z"/>
        <path class="cls-1" d="M75.26,98.32c.08,0,.15,0,.23.01.03,0,.26.03.11.01s.14.03.17.03c.46.1.91.22,1.32.44.92.48,1.54,1.29,1.8,2.18.39,1.3.06,2.61-1.12,3.36-1.31.83-2.91.82-4.35.37l-.27,1.96c-.46-.06-.09-.01.02.01.16.03.31.07.47.11.41.11.81.24,1.18.43.79.4,1.47.98,1.72,1.86s.32,1.95-.86,1.93c-.43,0-.91-.12-1.3-.31-.25-.12-.48-.28-.68-.46-.09-.08-.17-.17-.26-.26-.04-.04-.26-.31-.09-.1-.33-.43-.86-.66-1.37-.36-.42.25-.69.94-.36,1.37.98,1.29,2.42,2.09,4.06,2.12,1,.02,1.96-.36,2.53-1.2.51-.76.53-1.71.4-2.58-.42-2.71-2.92-4.21-5.46-4.54-1.16-.15-1.29,1.64-.27,1.96,1.92.6,4.15.54,5.89-.57s2.57-3.08,2.15-5.15c-.53-2.68-2.98-4.56-5.68-4.62-1.29-.03-1.29,1.97,0,2h0Z"/>
      </g>
      <g>
        <path class="cls-1" d="M71.68,189.38c-.97-1.53-2.02-3-3.13-4.43-.86-1.11-2.02-2.91-3.68-2.07-.72.36-.97.99-1.28,1.69l-1.18,2.72-2.25,5.2c-.18.41-.19.87.16,1.21,1.16,1.14,2.49,2.08,3.98,2.74,1.3.57,2.67,1.21,3.65,2.27.39.42.69.97.62,1.56-.09.74-.7,1.35-1.27,1.78-1.24.94-2.8,1.5-4.35,1.63-1.82.15-3.62-.21-5.2-1.13-1.12-.65-2.12,1.08-1.01,1.73,3.38,1.95,7.81,1.92,11.11-.2,1.65-1.06,3.12-2.76,2.61-4.86-.43-1.77-2.12-2.96-3.62-3.78-.8-.44-1.65-.74-2.45-1.16-.99-.52-1.87-1.21-2.66-1.99l.16,1.21,1.86-4.3.93-2.15c.31-.71.56-1.47.93-2.15.05-.1.19-.26.11-.25-.13.01.05.06.11.13s.13.14.19.21c.46.52.89,1.08,1.31,1.64.93,1.22,1.79,2.47,2.62,3.76.69,1.08,2.42.08,1.73-1.01h0Z"/>
        <path class="cls-1" d="M74.87,191.98c1.74,6.32,4.3,12.41,7.61,18.07.65,1.11,2.38.11,1.73-1.01-3.23-5.52-5.71-11.42-7.41-17.59-.34-1.24-2.27-.71-1.93.53h0Z"/>
        <path class="cls-1" d="M85.49,193.1c-2.24,2.22-4.45,4.46-6.62,6.74-1.06,1.11-2.11,2.23-3.16,3.35-.55.59-1.1,1.19-1.64,1.78-.25.27-.49.54-.74.81-.14.15-.27.3-.41.45-.05.05-.4.4-.28.36h.53l-.14-.03.44.26-.06-.07.29.71v-.09c-.04.17-.09.34-.13.5l-.05.06-.44.26h.06c-.32-.1-.65-.18-.97-.27l.05.06c.34.42,1.06.35,1.41,0,.42-.42.34-.99,0-1.41l-.05-.06c-.23-.29-.65-.32-.97-.26-.89.17-1.18,1.38-.55,1.98.8.77,1.72.03,2.28-.59,1.36-1.5,2.73-2.98,4.11-4.45,2.77-2.94,5.59-5.84,8.46-8.68.92-.91-.5-2.32-1.41-1.41h0Z"/>
        <path class="cls-1" d="M88.43,185.17c1.46.5,2.85,1.26,4.04,2.24.95.79,2.31,1.9,1.85,3.3s-1.91,2.24-3.13,2.85c-1.52.76-3.16,1.24-4.78,1.73-.87.26-1.03,1.76,0,1.93,3.55.57,7.04,1.41,10.46,2.52,1.23.4,1.75-1.53.53-1.93-3.42-1.11-6.91-1.96-10.46-2.52v1.93c1.99-.6,4.01-1.22,5.84-2.24,1.56-.87,3.19-2.24,3.55-4.09.38-1.99-.87-3.54-2.3-4.76-1.51-1.28-3.22-2.24-5.08-2.89-1.22-.42-1.74,1.51-.53,1.93h0Z"/>
      </g>
      <g>
        <path class="cls-1" d="M112.32,201.07c-1.4,7.3-2.79,14.6-4.19,21.9-.24,1.26,1.69,1.8,1.93.53,1.4-7.3,2.79-14.6,4.19-21.9.24-1.26-1.69-1.8-1.93-.53h0Z"/>
        <path class="cls-1" d="M130.27,206.42c-1.31-1.42-2.77-2.68-4.36-3.77-.77-.53-1.6-1.07-2.57-1.08-.87,0-1.63.44-2.12,1.13-.33.47-.55,1.04-.66,1.6-.04.21-.03.46-.1.65-.12.35-.38.86-.53,1.27-.77,2.04-1.53,4.08-2.3,6.12-.24.63.37,1.25.96,1.27,2.99.08,6.3,1.51,7.55,4.41s-.78,6.41-3.77,7.04c-2.35.5-4.8-.11-7.09-.66-1.25-.3-1.79,1.63-.53,1.93,2.49.59,5.03,1.15,7.59.76,2.17-.33,3.92-1.58,5.06-3.45,1.02-1.68,1.42-3.75.84-5.66-.53-1.74-1.7-3.18-3.14-4.26-1.87-1.41-4.2-2.07-6.52-2.13l.96,1.27c.64-1.69,1.27-3.38,1.91-5.08.31-.82.75-1.68.95-2.54.03-.12.03-.23.04-.35-.05.32,0,.02.01-.03.05-.2.08-.4.16-.59.11-.31.28-.68.65-.72.65-.07,1.41.65,1.89.99,1.35.95,2.57,2.06,3.68,3.27.87.95,2.28-.47,1.41-1.41h0Z"/>
        <path class="cls-1" d="M131.53,212.54c2,6.74,5.95,12.86,11.3,17.42.97.83,2.4-.58,1.41-1.41-5.1-4.35-8.88-10.11-10.79-16.54-.37-1.23-2.3-.71-1.93.53h0Z"/>
        <path class="cls-1" d="M144.05,213.27c-1.77.13-3.04,1.28-4.1,2.61-1.32,1.65-2.6,3.35-3.89,5.02s-2.62,3.37-3.91,5.06c-1.09,1.42-2.11,2.95-2.43,4.75-.09.53.14,1.08.7,1.23.48.13,1.14-.16,1.23-.7.28-1.6,1.2-2.92,2.16-4.19,1.16-1.52,2.34-3.03,3.51-4.54s2.34-3.02,3.51-4.53c.79-1.02,1.8-2.61,3.22-2.71,1.28-.09,1.29-2.1,0-2h0Z"/>
      </g>
      <g>
        <path class="cls-1" d="M125.54,59.51c2.3-.07,4.73-.05,6.88.88,1.67.72,3.21,2.11,3.7,3.91,1.13,4.09-3.52,6.72-6.77,7.57-2.62.69-5.33.95-7.9,1.86-.69.24-1.01,1.12-.44,1.67,1.09,1.05,2.51,1.44,3.98,1.56,1.68.14,3.37.03,5.06.12,3.73.19,7.41.79,11.01,1.75,1.24.33,1.78-1.6.53-1.93-3.46-.92-7.01-1.52-10.58-1.76-1.66-.12-3.32-.1-4.99-.13-1.25-.02-2.65-.11-3.6-1.02l-.44,1.67c4.74-1.67,10.31-1.33,14.06-5.19,1.58-1.63,2.5-3.79,2.14-6.08s-2.01-4.17-3.93-5.3c-2.61-1.53-5.76-1.67-8.71-1.58-1.28.04-1.29,2.04,0,2h0Z"/>
        <path class="cls-1" d="M143.9,61.48c.66,1.65,1.91,2.75,3.3,3.79s2.85,2.18,4.18,3.38c2.75,2.49,5.23,5.27,7.35,8.31.73,1.05,2.47.05,1.73-1.01-2.1-3-4.5-5.79-7.18-8.28-1.33-1.24-2.74-2.4-4.19-3.49-1.19-.89-2.69-1.8-3.26-3.24-.2-.5-.67-.85-1.23-.7-.48.13-.9.73-.7,1.23h0Z"/>
        <path class="cls-1" d="M162.18,61.25c-1.9-.46-3.58.5-4.96,1.74-1.51,1.37-2.84,2.98-4.22,4.47-3,3.23-5.99,6.46-8.99,9.69-.89.96.44,2.23,1.41,1.41.48-.4.96-.8,1.44-1.21.99-.83-.43-2.23-1.41-1.41-.48.4-.96.8-1.44,1.21l1.41,1.41c2.77-2.99,5.54-5.97,8.31-8.96,1.34-1.45,2.68-2.91,4.04-4.35.96-1.01,2.33-2.45,3.88-2.08,1.25.3,1.78-1.63.53-1.93h0Z"/>
        <path class="cls-1" d="M162.6,55.43c1.75.09,3.45.58,4.96,1.47,1.21.71,2.78,1.87,2.81,3.42s-1.63,2.83-2.78,3.63c-1.5,1.04-3.15,1.75-4.93,2.16-1.18.27-.79,1.86.27,1.96,3.32.34,6.64.68,9.95,1.02.54.05,1-.5,1-1,0-.59-.46-.94-1-1-3.32-.34-6.64-.68-9.95-1.02l.27,1.96c2.13-.49,4.17-1.41,5.91-2.73,1.63-1.24,3.39-2.94,3.25-5.17s-1.81-3.74-3.52-4.81c-1.88-1.17-4.04-1.79-6.24-1.9-1.29-.06-1.28,1.94,0,2h0Z"/>
      </g>
      <g>
        <path class="cls-1" d="M188.87,93.03c-.28-.57-.89-.86-1.51-.71-.57.13-.96.56-1.31.99-.79.98-1.53,1.99-2.22,3.04-1.45,2.2-2.67,4.54-3.68,6.96s-1.76,4.99-1.55,7.58c.1,1.28.47,2.49,1.31,3.48.66.78,1.55,1.31,2.49,1.68,2.19.87,4.7.86,6.89,0s4.32-2.4,5.06-4.71-.65-4.93-2.83-6c-1.95-.96-4.2-.64-6.04.43s-3.01,2.72-3.87,4.52c-.36.74-.66,1.51-.93,2.28-.08.24-.16.47-.25.71-.02.05-.04.09-.05.14-.04.14,0,.02,0,.01-.03-.03.08-.13,0-.02s.2-.21.11-.14l.44-.26.25-.03.5.14h0c.12.11.24.23.36.35.09.46.13.6.12.41,0-.09,0-.06-.02.1.03-.08.03-.19.05-.28.08-.4.19-.8.3-1.2.34-1.24-1.59-1.77-1.93-.53-.17.61-.43,1.33-.4,1.98.05.97,1.24,1.41,1.85.62.52-.67.68-1.74.99-2.51,1.05-2.56,3.23-5.6,6.4-5.29,2.01.2,3.77,2.28,2.93,4.28-.77,1.84-2.94,3.02-4.79,3.46s-3.99.21-5.53-.9c-1.79-1.28-1.59-3.87-1.21-5.79.52-2.63,1.69-5.11,2.95-7.45.62-1.16,1.3-2.28,2.04-3.37.36-.53.73-1.05,1.11-1.57.18-.24.37-.48.55-.71.08-.1.2-.21.26-.32.16-.27.24.02-.14-.12l-.44-.26v.02c.57,1.15,2.3.14,1.73-1.01h0Z"/>
        <path class="cls-1" d="M199.7,101.7c4.44,4.69,8.87,9.38,13.31,14.07.89.94,2.3-.48,1.41-1.41-4.44-4.69-8.87-9.38-13.31-14.07-.89-.94-2.3.48-1.41,1.41h0Z"/>
        <path class="cls-1" d="M211.8,98.86c-4.16,5.41-8.32,10.82-12.48,16.23-.33.43-.07,1.12.36,1.37.52.3,1.04.07,1.37-.36,4.16-5.41,8.32-10.82,12.48-16.23.33-.43.07-1.12-.36-1.37-.52-.3-1.04-.07-1.37.36h0Z"/>
      </g>
      <g>
        <path class="cls-1" d="M141.49,150.31c-.73,6.75-1.46,13.49-2.18,20.24-.06.54.5,1,1,1,.59,0,.94-.46,1-1,.73-6.75,1.46-13.49,2.18-20.24.06-.54-.5-1-1-1-.59,0-.94.46-1,1h0Z"/>
        <path class="cls-1" d="M146.57,163.48c-.87-2.53.44-5.26,2.22-7.05s4.72-3.19,7.1-1.91c1.25.67,2.07,1.95,2.57,3.24.58,1.49.88,3.18.49,4.75-.69,2.77-3.19,3.47-5.67,3.96-1.46.29-2.98.39-4.33-.36-1.03-.58-1.95-1.5-2.38-2.62-.19-.5-.67-.85-1.23-.7-.48.13-.89.72-.7,1.23,1.18,3.07,4.23,4.97,7.52,4.64,3.04-.3,6.67-1.15,8.16-4.12.94-1.87.97-4.03.47-6.03-.44-1.76-1.29-3.57-2.65-4.81-2.82-2.57-6.94-1.76-9.72.41s-5.03,6.27-3.77,9.92c.42,1.21,2.35.69,1.93-.53Z"/>
        <path class="cls-1" d="M161.49,153.55c2.3,5.41,5.02,10.63,8.15,15.6.68,1.09,2.41.08,1.73-1.01-3.13-4.98-5.85-10.19-8.15-15.6-.21-.5-.94-.61-1.37-.36-.51.3-.57.87-.36,1.37h0Z"/>
        <path class="cls-1" d="M171.94,153c-2.7,2.84-5.36,5.72-7.96,8.64-1.29,1.45-2.57,2.91-3.83,4.37-1.14,1.33-2.95,2.79-2.65,4.72.08.53.75.83,1.23.7.57-.16.78-.69.7-1.23-.04-.27.34-.65.49-.84.25-.31.52-.62.79-.92.58-.68,1.16-1.35,1.74-2.02,1.19-1.37,2.39-2.74,3.61-4.09,2.4-2.68,4.84-5.32,7.32-7.92.89-.93-.52-2.35-1.41-1.41h0Z"/>
      </g>
      <g>
        <path class="cls-1" d="M111.96,124.07c3.8,4.91,7.22,10.11,10.26,15.52.63,1.12,2.36.12,1.73-1.01-3.13-5.56-6.67-10.88-10.57-15.92-.33-.43-1.07-.35-1.41,0-.42.42-.33.99,0,1.41h0Z"/>
        <path class="cls-1" d="M122.14,124.09c-4.14,4.89-8.98,9.14-14.37,12.6-1.08.69-.08,2.42,1.01,1.73,5.53-3.55,10.53-7.9,14.78-12.91.83-.98-.58-2.4-1.41-1.41h0Z"/>
        <path class="cls-1" d="M127.33,117.7c2.39-.48,4.55,1.68,4.06,4.07-.56,2.72-3.66,3.23-5.96,3.59-1.05.17-.84,1.64,0,1.93,2.43.83,4.86,1.66,7.3,2.49,1.22.42,1.74-1.51.53-1.93-2.43-.83-4.86-1.66-7.3-2.49v1.93c1.69-.27,3.47-.59,4.92-1.55s2.4-2.47,2.56-4.24c.33-3.67-3.12-6.44-6.64-5.73-1.26.25-.73,2.18.53,1.93h0Z"/>
        <path class="cls-1" d="M96.2,118.05c1.97.35,3.86,1,5.61,1.97.83.46,1.64.98,2.39,1.57s1.56,1.25,1.89,2.13c.63,1.67-1.66,2.39-2.84,2.74-2.2.65-4.47,1.04-6.77,1.15-1.07.05-1.42,1.72-.27,1.96,1.86.39,3.69.93,5.46,1.65.63.26,1.36.53.97,1.34-.31.65-1.1,1.03-1.7,1.37-1.52.86-3.14,1.5-4.83,1.93-.83.21-1.68.38-2.53.48-.47.05-.94.09-1.42.11-.22,0-.44.02-.66.02-.11,0-.22,0-.33,0,.06.03.09.03.1-.02l.26.44-.04-.1v.53-.09c-.07.15-.16.29-.24.44l.08-.08c.87-.94-.54-2.36-1.41-1.41-.67.72-.34,1.67.48,2.09s2,.19,2.87.1c1.91-.19,3.79-.6,5.58-1.28,1.66-.63,3.66-1.42,4.92-2.72,1.35-1.4,1.35-3.6-.46-4.6-.98-.54-2.12-.9-3.17-1.24s-2.24-.65-3.38-.89l-.27,1.96c2.11-.1,4.22-.41,6.26-.94,1.61-.42,3.48-.91,4.61-2.23,2.86-3.36-2.03-6.79-4.63-8.21-1.87-1.02-3.9-1.74-6-2.12-.53-.1-1.08.14-1.23.7-.13.48.16,1.13.7,1.23h0Z"/>
      </g>
      <g>
        <path class="cls-1" d="M220.07,169.43c-1.44.03-2.49,1.1-3.26,2.21-1,1.46-1.63,3.22-2.08,4.92-.53,2.01-.82,4.11-.8,6.18.02,1.8.06,3.87,1.08,5.43,2.21,3.38,7.47,2.26,9.69-.52s1.94-6.61,1.14-9.81c-.41-1.64-1.03-3.23-1.78-4.74-.79-1.62-1.99-3.59-4-3.68-1.29-.06-1.28,1.94,0,2,1,.04,1.79,1.72,2.2,2.54.56,1.11.99,2.14,1.35,3.33.75,2.46,1.3,5.5.23,7.96-.53,1.21-1.51,2.11-2.73,2.6s-2.94.72-4.01-.26-1.11-2.71-1.15-4.04c-.06-1.69.05-3.37.38-5.04s.85-3.48,1.7-5.04c.3-.55.64-1.09,1.09-1.53.22-.22.29-.27.54-.41.12-.07-.01-.02.21-.08.05-.01.09-.02.14-.03.15-.03-.22.01.05,0,1.28-.03,1.29-2.03,0-2Z"/>
        <path class="cls-1" d="M198.9,168.33c2.14,0,4.24.36,6.25,1.09.96.35,1.89.79,2.77,1.3.66.39,1.45.89,1.75,1.64.64,1.55-1.63,2.6-2.68,3.12-2,.99-4.11,1.72-6.27,2.23-1.12.26-.84,1.94.27,1.96,1.96.05,3.92.26,5.84.71.65.15,1.19.41.9,1.17-.27.72-1.02,1.26-1.6,1.73-1.29,1.06-2.74,1.93-4.26,2.62-.75.35-1.53.63-2.32.88-.44.13-.88.25-1.32.36-.21.05-.41.09-.62.14-.39.08-.29-.03-.1.27l.14.5v-.09c-.05.17-.09.34-.14.5l.06-.1c.69-1.09-1.04-2.09-1.73-1.01-.53.83.11,1.72.96,1.93s1.95-.2,2.77-.43c1.8-.51,3.56-1.25,5.17-2.2s3.31-2.06,4.38-3.55c1.13-1.57.79-3.74-1.12-4.47-1.02-.39-2.18-.51-3.26-.66-1.25-.17-2.51-.28-3.77-.31l.27,1.96c2-.47,3.94-1.13,5.81-1.98,1.54-.7,3.28-1.51,4.21-3.01s.43-3.38-.85-4.56c-1.36-1.26-3.21-2.06-4.94-2.66-2.11-.73-4.34-1.09-6.57-1.08-1.29,0-1.29,2,0,2h0Z"/>
      </g>
    </g>
    <g>
      <path class="cls-1" d="M25.39,62.42c.81,1.32,2.06,2.2,3.42,2.89,1.51.78,3.06,1.48,4.6,2.2,3.21,1.52,6.44,3.03,9.67,4.52,6.53,3.02,13.1,5.97,19.69,8.86,13.12,5.75,26.34,11.24,39.67,16.46,7.18,2.81,14.74,5.19,20.91,9.98.43.33,1,.42,1.41,0,.34-.34.43-1.08,0-1.41-2.7-2.1-5.6-3.83-8.71-5.26s-6.44-2.66-9.69-3.92c-6.63-2.58-13.24-5.22-19.83-7.92-13.23-5.44-26.36-11.14-39.36-17.1-3.6-1.65-7.19-3.32-10.78-5.01-1.83-.86-3.65-1.73-5.48-2.6-1.39-.67-2.96-1.34-3.79-2.71-.67-1.1-2.4-.09-1.73,1.01h0Z"/>
      <path class="cls-1" d="M25.26,61.92c.17,9.49.35,18.98.52,28.46s.35,19.06.53,28.58.35,18.96.52,28.44.35,18.96.52,28.44.35,19.05.52,28.57l.06,3.49c.02,1.29,2.02,1.29,2,0-.17-9.48-.35-18.96-.52-28.44s-.35-19.05-.52-28.57-.35-18.96-.52-28.44-.35-18.97-.52-28.46l-.53-28.59-.06-3.5c-.02-1.29-2.02-1.29-2,0h0Z"/>
      <path class="cls-1" d="M124.5,106.9c8.19-2.45,16.37-4.92,24.54-7.41s16.33-5.01,24.48-7.55,16.28-5.1,24.41-7.69,16.16-5.17,24.23-7.79,16.19-5.29,24.28-7.96c1.01-.34,2.03-.67,3.04-1.01,1.22-.4.69-2.34-.53-1.93-8.08,2.68-16.17,5.34-24.27,7.98s-16.22,5.25-24.34,7.84c-8.13,2.59-16.26,5.16-24.4,7.7s-16.23,5.04-24.35,7.53-16.35,4.98-24.53,7.43c-1.03.31-2.06.62-3.09.92-1.23.37-.71,2.3.53,1.93h0Z"/>
      <path class="cls-1" d="M26.52,62.88c9.03-1.63,17.99-3.66,26.84-6.1s17.66-5.36,26.33-8.5c8.72-3.16,17.36-6.52,26.08-9.68s17.67-6.21,26.57-9.13,17.83-5.74,26.76-8.55c1.1-.35,2.19-.69,3.29-1.04,1.22-.38.7-2.32-.53-1.93-8.93,2.81-17.87,5.62-26.77,8.51s-17.79,5.88-26.6,9.03-17.41,6.47-26.12,9.68c-8.67,3.19-17.4,6.2-26.28,8.76s-17.76,4.67-26.77,6.4c-1.11.21-2.21.42-3.32.62-.53.1-.83.74-.7,1.23.15.56.7.79,1.23.7h0Z"/>
      <path class="cls-1" d="M161.86,19.88c6.5,2.14,12.87,4.66,19.04,7.61,4.09,1.95,8.08,4.09,12.01,6.34,5.21,2.99,10.42,5.98,15.69,8.87,6.46,3.54,13.18,6.54,19.51,10.32s12.18,7.81,17.89,12.24c.84.65,1.67,1.31,2.5,1.97.42.34,1,.41,1.41,0,.35-.35.42-1.07,0-1.41-5.95-4.76-12.15-9.21-18.64-13.21-2.5-1.54-5.04-3.02-7.62-4.41-3.68-1.99-7.46-3.76-11.17-5.68-5.82-3.01-11.49-6.33-17.16-9.6-3.92-2.25-7.86-4.44-11.92-6.43-5.85-2.87-11.88-5.37-18.02-7.52-.99-.35-1.99-.68-2.99-1.01-1.23-.4-1.75,1.53-.53,1.93h0Z"/>
      <path class="cls-1" d="M27.55,208.42c.74,1.27,1.91,2.15,3.19,2.85,1.47.81,3,1.51,4.51,2.26,3.19,1.58,6.4,3.14,9.61,4.68,6.35,3.05,12.72,6.04,19.13,8.97,12.88,5.88,25.88,11.5,38.99,16.86,7.08,2.89,14.53,5.35,20.55,10.23.42.34,1,.41,1.41,0,.35-.35.42-1.07,0-1.41-2.68-2.17-5.59-3.97-8.71-5.45s-6.22-2.66-9.35-3.93c-6.52-2.64-13.01-5.34-19.47-8.11-12.94-5.55-25.77-11.35-38.48-17.42-3.58-1.71-7.15-3.44-10.71-5.19-1.74-.86-3.49-1.72-5.23-2.59-1.39-.69-2.9-1.39-3.71-2.78-.65-1.11-2.38-.1-1.73,1.01h0Z"/>
      <path class="cls-1" d="M122.15,105.93l.34,28.74c.11,9.59.23,19.17.34,28.76s.23,19.22.34,28.84.23,19.22.34,28.84.23,19.22.34,28.84l.04,3.62c.02,1.29,2.02,1.29,2,0-.11-9.61-.23-19.22-.34-28.84s-.23-19.22-.34-28.84-.23-19.22-.34-28.84-.23-19.18-.34-28.77-.23-19.16-.34-28.74l-.04-3.61c-.02-1.29-2.02-1.29-2,0h0Z"/>
      <path class="cls-1" d="M124.5,254.53c8.23-3.11,16.45-6.24,24.65-9.4,8.25-3.18,16.48-6.39,24.7-9.62s16.36-6.47,24.52-9.76,16.31-6.59,24.45-9.93,16.27-6.71,24.39-10.11c1.02-.43,2.05-.86,3.07-1.29.5-.21.85-.66.7-1.23-.13-.47-.73-.91-1.23-.7-8.11,3.4-16.24,6.78-24.38,10.13s-16.36,6.7-24.56,10-16.33,6.55-24.51,9.78-16.37,6.43-24.58,9.6c-8.2,3.17-16.42,6.31-24.64,9.43-1.04.39-2.08.78-3.11,1.18-.51.19-.85.68-.7,1.23.13.48.72.89,1.23.7h0Z"/>
      <path class="cls-1" d="M248.21,66.52c-.01,8.91-.03,17.83-.04,26.74s-.03,17.83-.04,26.74c-.01,8.91-.03,17.82-.04,26.73s-.03,17.82-.04,26.73-.03,17.74-.04,26.61v3.37c0,1.29,1.99,1.29,1.99,0,.01-8.91.03-17.82.04-26.73s.03-17.82.04-26.73.03-17.82.04-26.73.03-17.83.04-26.74c.01-8.87.03-17.74.04-26.62v-3.37c0-1.29-1.99-1.29-1.99,0h0Z"/>
    </g>
    <g class="cls-2">
      <g>
        <path class="cls-1" d="M56.7,98.52c6.86,13.5,13.71,27.01,20.57,40.51l5.76,11.35c.68,1.33,2.45,1.77,3.75,1.23,1.41-.6,2.06-2.06,1.74-3.54-.11-.52-.23-1.03-.34-1.55-.34-1.53-2.2-2.58-3.69-2.1-1.61.52-2.46,2.05-2.1,3.69.11.52.23,1.03.34,1.55l5.48-2.31c-6.86-13.5-13.71-27.01-20.57-40.51l-5.76-11.35c-.71-1.4-2.8-1.92-4.1-1.08-1.43.92-1.84,2.6-1.08,4.1h0Z"/>
        <path class="cls-1" d="M56.34,147.3c.95-1.31,1.92-2.6,2.9-3.89.25-.32.49-.64.74-.97.28-.37-.44.57,0,0,.14-.18.27-.35.41-.53.5-.64,1.01-1.28,1.52-1.92,2.05-2.58,4.16-5.12,6.31-7.61,4.38-5.08,8.97-9.98,13.72-14.71,2.76-2.74,5.57-5.42,8.43-8.05,1.16-1.06,1.16-3.18,0-4.24-1.24-1.14-3.01-1.13-4.24,0-10.02,9.19-19.41,19.07-27.91,29.68-2.42,3.02-4.78,6.1-7.07,9.22-.93,1.27-.26,3.4,1.08,4.1,1.56.82,3.11.28,4.1-1.08h0Z"/>
        <path class="cls-1" d="M95.74,175.24c-4.98-1.9-9.97-3.79-14.98-5.64-2.67-.99-5.34-2.01-8.05-2.91-1.81-.61-3.85-.64-5.55.32-1.59.9-2.13,2.61-2.64,4.24-.45,1.43-.88,2.87-1.28,4.32-.8,2.91-1.47,5.84-2.03,8.8-.13.71-.26,1.41-.37,2.12-.14.85-.36,1.77-.37,2.63-.03,2.13,1.78,3.73,3.74,4.16,1.19.26,2.38.2,3.58.26,1.31.07,2.6.21,3.9.37.37.05-.87-.12-.36-.05.08.01.17.02.25.04.19.03.39.06.58.09.43.07.85.13,1.27.21.89.16,1.78.34,2.66.54,1.77.41,3.52.92,5.2,1.59.09.04.18.07.27.11.43.17-.31-.13-.32-.13.21.1.44.19.65.29.4.19.8.39,1.19.6.36.2.71.4,1.05.62.17.11.33.22.49.33.07.05.14.1.21.15.43.3-.6-.49-.2-.15.29.24.58.49.85.75.13.13.26.26.38.4.07.08.13.15.2.23.19.21.25.54-.17-.23.27.48.61.91.86,1.41.05.11.1.23.15.34-.03-.06-.26-.68-.1-.2.1.29.2.58.28.88s.13.6.2.91c.04.21,0,.52-.03-.25,0,.12.03.25.04.37.05.61.05,1.23,0,1.84,0,.1-.04.25-.04.36-.04-.7.07-.47.01-.17-.05.26-.11.52-.18.78-.06.23-.13.45-.21.67-.03.08-.24.63-.04.12s-.05.08-.1.18c-.16.32-.35.61-.55.9-.31.46.55-.63.12-.16-.12.13-.24.27-.37.4s-.25.24-.38.35c-.07.06-.15.15-.23.19-.02,0,.68-.49.3-.24-.39.26-.78.51-1.2.73-.19.1-.38.19-.57.28-.08.04-.6.24-.11.05s-.06.02-.13.05c-.56.22-1.12.41-1.7.58-.83.25-1.67.46-2.51.64-.67.14-1.35.27-2.03.37-.18.03-.37.05-.55.08,1.12-.16.35-.05.09-.02-.43.05-.87.09-1.3.13-2.03.17-4.07.17-6.09.03-.53-.04-1.06-.08-1.59-.14-.32-.03-.64-.07-.97-.11-.18-.02-.57-.1.21.03-.2-.03-.4-.06-.6-.09-1.35-.2-2.69-.47-4.01-.78s-2.76-.72-4.12-1.15c-1.5-.48-3.34.56-3.69,2.1-.37,1.64.49,3.18,2.1,3.69,8.27,2.63,17.34,3.51,25.81,1.25,2.45-.65,4.81-1.59,6.81-3.17,1.6-1.26,2.67-3.03,3.29-4.95,1.53-4.71.09-10.43-3.78-13.59-3.07-2.51-6.84-3.94-10.66-4.88-3.25-.8-6.61-1.29-9.95-1.53-.85-.06-1.69-.04-2.54-.09-.71-.04.69.19.04.01-.12-.03-.25-.07-.37-.09-.32-.07-.02-.2.28.13,0,0-.23-.15-.27-.15.53.12.86.95.91,1.41.02.18-.1,1.11,0,.46.04-.24.07-.47.11-.71.23-1.42.49-2.83.77-4.24.6-2.96,1.33-5.89,2.17-8.79.4-1.37.91-2.72,1.28-4.1-.2.74-.24.53-.09.28.19-.3-.45.52-.2.26s-.67.43-.14.14c-.03.02-.37.15-.35.16.05.02.74-.13.07-.04-.61.08,0,.01.11.01h.2c.33.03.29.02-.13-.03.15.13.67.19.87.26.43.14.86.29,1.29.45,1.37.48,2.73.98,4.09,1.48,4.53,1.66,9.05,3.37,13.57,5.08,1.36.52,2.72,1.03,4.08,1.55,1.47.56,3.35-.62,3.69-2.1.39-1.71-.52-3.09-2.1-3.69h0Z"/>
      </g>
      <g>
        <path class="cls-1" d="M140.72,39.18c-11.06,7.5-22.12,14.99-33.18,22.49l-9.27,6.28c-1.3.88-1.99,2.68-1.08,4.1.83,1.29,2.72,2.02,4.1,1.08,11.06-7.5,22.12-14.99,33.18-22.49l9.27-6.28c1.3-.88,1.99-2.68,1.08-4.1-.83-1.29-2.72-2.02-4.1-1.08h0Z"/>
        <path class="cls-1" d="M85.15,57.06c9.69.57,19.38.66,29.08.29,8.22-.32,16.42-.71,24.65-.47,5.88.17,11.75.58,17.59,1.2,1.57.17,3.07-1.5,3-3-.08-1.77-1.32-2.82-3-3-9.41-1-18.87-1.43-28.33-1.24-8.66.17-17.3.78-25.97.76-5.68-.01-11.36-.2-17.03-.53-1.57-.09-3.07,1.45-3,3,.08,1.7,1.32,2.9,3,3h0Z"/>
        <path class="cls-1" d="M166.23,66.5c.5-.11.99-.2,1.5-.28.27-.04,1.01-.11-.17.02.17-.02.34-.04.52-.06.45-.05.9-.09,1.34-.12.99-.06,1.99-.07,2.98-.01.49.03.98.09,1.47.13-1.05-.09-.02,0,.21.04.31.05.63.12.94.19.55.12,1.09.27,1.63.44.29.09.57.19.86.3.11.04.23.09.34.14-.8-.29-.23-.09-.04,0,.57.27,1.13.57,1.66.91.25.16.49.32.72.49.58.42-.26-.23.05.03.47.41.94.81,1.39,1.25.29.29.57.58.84.88.16.18.32.37.48.56.36.42-.36-.51-.14-.19.09.13.18.25.27.37.28.4.54.82.76,1.25.06.11.1.23.17.35.18.34-.27-.75-.1-.23.08.24.16.47.22.72.03.11.1.32.08.43,0,.02-.05-.85-.06-.36,0,.24-.02.49-.02.73-.01-.8.1-.6.03-.36-.02.08-.15.38-.13.46-.01-.05.34-.67.11-.25-.08.14-.17.29-.25.43-.27.5.4-.4.13-.15-.1.09-.18.21-.27.3-.18.19-.43.34-.6.54.02-.03.62-.44.23-.18-.09.06-.17.12-.26.18-.25.16-.51.32-.77.46-.36.2-.73.37-1.11.54-.1.04-.2.08-.3.13.03-.01.72-.28.27-.12-.3.11-.6.23-.91.32-.46.15-.94.27-1.41.38-.27.06-.54.11-.81.16-.11.02-.22.03-.33.05-.58.1.79-.09.06-.01-1.1.11-2.2.14-3.31.07-.58-.03-1.16-.13-1.74-.16.04,0,.78.12.27.03-.15-.02-.29-.05-.44-.07-.32-.05-.65-.11-.97-.18-1.19-.24-2.37-.56-3.53-.95-.65-.22-1.29-.45-1.92-.7-.12-.05-.23-.09-.35-.14-.56-.22.64.28-.06-.03-.32-.14-.63-.28-.94-.43-1.25-.59-2.46-1.25-3.64-1.98-.58-.36-1.16-.74-1.72-1.13-.31-.21-.61-.43-.91-.65-.1-.07-.2-.15-.3-.22-.5-.37.47.38.02.02-1.04-.84-2.04-1.71-2.98-2.65l-3.64,4.71c1.37.93,2.73,1.88,4.05,2.87.16.12.32.24.48.36.45.34-.14-.09-.15-.11,0,.13.68.54.8.63.51.41,1.01.82,1.51,1.25,1.37,1.18,2.7,2.43,3.84,3.85.48.59-.39-.54-.1-.13.09.13.19.25.27.38.16.23.31.46.45.7.12.2.23.4.33.61.04.08.07.22.13.29.04.05-.32-.82-.24-.56.02.07.05.13.07.2.05.15.1.3.14.45.02.07.03.14.05.2.13.54-.08-.87-.06-.51,0,.12.02.23.02.35,0,.39-.22.66.08-.46-.04.15-.08.3-.11.45-.04.17.43-.82.16-.41-.07.1-.16.22-.21.33.36-.73.49-.58.26-.36-.06.06-.12.12-.18.18-.04.04-.09.08-.13.12-.43.4.63-.42.25-.19-.28.17-.55.35-.85.49-.1.05-.2.08-.29.13.83-.44.63-.25.41-.18-.24.08-.47.17-.71.25-.91.29-1.85.46-2.8.61-.58.09.8-.09.21-.03-.1.01-.2.02-.3.03-.31.03-.62.06-.93.09-.6.05-1.19.08-1.79.1-1.29.04-2.57.03-3.86-.03s-2.6-.16-3.9-.3c-.38-.04-.75-.08-1.13-.13-.13-.02-.25-.03-.38-.05-.68-.09.72.1.04,0s-1.38-.21-2.07-.32c-3.26-.56-6.48-1.37-9.6-2.49-.78-.28-1.55-.58-2.31-.9-.65-.26.63.28,0,0-.17-.08-.35-.15-.52-.23-.34-.15-.67-.3-1-.46-1.2-.56-2.37-1.17-3.52-1.81-1.37-.77-3.34-.37-4.1,1.08s-.39,3.28,1.08,4.1c5.26,2.95,10.99,5.06,16.91,6.22,5.55,1.09,11.43,1.75,17.08,1.13,3.66-.4,8.91-1.37,10.02-5.59.56-2.12-.28-4.33-1.48-6.07s-2.7-3.33-4.3-4.76c-2.69-2.41-5.63-4.54-8.61-6.56-1.24-.84-3.01-.34-3.87.77-.91,1.17-.83,2.87.23,3.94,3.99,4.01,8.93,7.04,14.22,9.02,4.97,1.86,10.63,2.7,15.83,1.34,2.4-.63,4.97-1.77,6.76-3.53,1.29-1.27,2.03-2.86,2.23-4.65.17-1.51-.25-2.97-.86-4.33-.89-2-2.42-3.75-4.03-5.2-1.9-1.71-4.04-2.98-6.44-3.85-4.47-1.61-9.52-1.51-14.12-.53-1.54.33-2.57,2.21-2.1,3.69.52,1.62,2.04,2.45,3.69,2.1h0Z"/>
      </g>
      <g>
        <path class="cls-1" d="M131.33,128.09c6.25,10.48,12.5,20.97,18.27,31.73,2.91,5.41,5.69,10.89,8.3,16.45,1.33,2.85,2.62,5.72,3.86,8.61.06.15.12.29.19.44.31.74-.24-.58.07.16.14.33.27.66.41.98.32.76.63,1.52.93,2.29.59,1.46,1.16,2.93,1.72,4.4,2.52,6.62,4.76,13.34,6.73,20.14.44,1.51,2.13,2.6,3.69,2.1s2.56-2.08,2.1-3.69c-3.58-12.35-8.08-24.41-13.43-36.1s-11-22.05-17.15-32.72c-3.44-5.97-6.97-11.89-10.5-17.81-.8-1.35-2.73-1.96-4.1-1.08s-1.94,2.66-1.08,4.1h0Z"/>
        <path class="cls-1" d="M170.19,118.59c-4.55,14.18-9.1,28.37-13.66,42.55-4.55,14.18-9.1,28.37-13.66,42.55-2.57,8-5.14,16.01-7.71,24.01-.48,1.49.56,3.34,2.1,3.69,1.64.37,3.18-.49,3.69-2.1,4.55-14.18,9.1-28.37,13.66-42.55,4.55-14.18,9.1-28.37,13.66-42.55,2.57-8,5.14-16.01,7.71-24.01.48-1.49-.56-3.34-2.1-3.69-1.64-.37-3.18.49-3.69,2.1h0Z"/>
        <path class="cls-1" d="M195,122.91c.37-.34.76-.66,1.15-.98.08-.06.16-.12.24-.19-.89.71-.49.38-.28.22s.44-.33.66-.49c.49-.35.99-.68,1.5-1.01,1.2-.76,2.46-1.41,3.76-1.99.32-.15-.67.27-.34.14.09-.03.17-.07.26-.1.19-.08.39-.15.59-.22.38-.14.76-.27,1.14-.38.79-.24,1.59-.43,2.41-.57.1-.02.19-.03.29-.05.37-.06-.73.09-.36.05.2-.02.39-.05.59-.06.43-.04.85-.06,1.28-.06s.87.01,1.3.05c.12,0,.89.11.3.02s.23.04.38.07c.92.17,1.76.55,2.65.78-.82-.21-.21-.09.07.04.21.1.42.21.62.32.48.26.95.54,1.4.85.06.04.63.41.62.44,0,0-.5-.4-.15-.11.1.08.21.17.31.25.44.37.86.76,1.26,1.16.32.32.63.64.94.97.41.45.81.9,1.2,1.38.16.19.53.7-.09-.12.1.14.21.28.31.42.23.32.46.64.67.97.49.73.93,1.49,1.34,2.27.21.4.41.81.59,1.23.05.11.09.22.14.32.17.38-.29-.73-.06-.13.1.26.2.52.3.78.37,1.03.68,2.08.92,3.15.13.58.24,1.16.33,1.75.02.12.04.24.05.36.06.39-.08-.66-.04-.26.03.27.06.54.09.8.19,2.02.16,4.06-.07,6.08-.01.12-.03.24-.04.36-.06.51.03-.21.04-.26-.04.24-.07.48-.11.72-.09.54-.19,1.09-.3,1.63-.21,1.04-.47,2.07-.76,3.09-.6,2.11-1.35,4.18-2.19,6.22-.06.16-.12.32-.2.47.03-.07.27-.64.06-.15-.11.25-.22.51-.33.76-.24.54-.49,1.09-.74,1.63-.52,1.11-1.05,2.21-1.6,3.31-2.32,4.62-4.87,9.14-7.42,13.64-2.02,3.56-4.16,7.06-6.43,10.47-1.32,1.99-2.69,3.95-4.1,5.89-.76,1.04-1.54,2.08-2.33,3.1-.26.34.31-.39.04-.05-.1.12-.19.25-.29.37-.19.25-.39.5-.58.74-.42.53-.84,1.06-1.27,1.58-.88,1.08-1.77,2.14-2.67,3.19-.84.98-1.22,2.47-.47,3.64.66,1.03,2.14,1.88,3.39,1.38,11.57-4.65,23.14-9.3,34.71-13.95,3.24-1.3,6.48-2.6,9.72-3.91.75-.3,1.37-.65,1.79-1.38.38-.64.54-1.59.3-2.31-.45-1.4-2.13-2.72-3.69-2.1-11.57,4.65-23.14,9.3-34.71,13.95-3.24,1.3-6.48,2.6-9.72,3.91l2.92,5.01c6.56-7.62,12.39-15.87,17.45-24.56,2.55-4.38,5.02-8.82,7.37-13.31s4.55-9.11,6.15-13.92c1.41-4.25,2.31-8.78,2.2-13.27-.11-4.75-1.3-9.47-3.62-13.62-1.46-2.62-3.4-5.04-5.62-7.07-3.43-3.15-7.8-5.08-12.5-5.01-6.15.1-12.05,3.16-16.62,7.11-.13.11-.25.22-.37.33-1.15,1.07-1.17,3.17,0,4.24,1.23,1.13,3.02,1.15,4.24,0h0Z"/>
      </g>
    </g>
  </g>
</svg>