<?xml version="1.0" encoding="UTF-8"?>
<svg id="Layer_2" data-name="Layer 2" xmlns="http://www.w3.org/2000/svg" viewBox="0 0 260.54 189.29">
  <defs>
    <style>
      .cls-1 {
        fill: #231f20;
      }

      .cls-2 {
        fill: #a7a9ac;
      }
    </style>
  </defs>
  <g id="Layer_1-2" data-name="Layer 1">
    <g>
      <path class="cls-2" d="M19.6,99.17c-4.91,2.46-9.81,4.94-14.59,7.65-1.02.58-2.06,1.16-3.03,1.83-1.17.8-2.43,2.02-1.81,3.56.4,1.01,1.43,1.52,2.39,1.87.19.07.38.14.58.21.25.1-.05-.03.11.04.13.06.25.11.38.17,1.23.56,2.41,1.2,3.6,1.85,4.52,2.46,8.96,5.07,13.44,7.6,1.12.63,2.13-1.09,1.01-1.73-3.97-2.25-7.93-4.54-11.92-6.76-2.23-1.24-4.46-2.4-6.82-3.37-.26-.11-.69-.27-.85-.51-.05-.07-.04-.15-.07-.21,0,0-.06-.18,0,.02.04.15-.02-.01.03-.08-.05.07.1-.18.15-.24.14-.18.33-.32.5-.47-.25.21.22-.15.31-.22.91-.62,1.86-1.16,2.82-1.7,2.68-1.53,5.42-2.96,8.16-4.38,2.21-1.14,4.42-2.27,6.65-3.39,1.15-.58.14-2.3-1.01-1.73h0Z"/>
      <path class="cls-2" d="M1,112.25c13.52,0,27.03.23,40.54.68,5.83.2,11.66.47,17.49.72,2.38.1,4.76.17,7.13.24,3.5.1,6.99.18,10.49.25,4.86.1,9.72.18,14.58.25,6.42.1,12.84.18,19.26.25,8.14.09,16.29.18,24.43.25,10.16.09,20.33.17,30.49.25,12.36.09,24.71.17,37.07.24,14.76.08,29.52.16,44.28.22,3.92.02,7.85.03,11.77.05,1.29,0,1.29-1.99,0-2-15.37-.07-30.74-.14-46.1-.22-12.91-.07-25.83-.15-38.74-.23-10.67-.07-21.34-.15-32.01-.24-8.6-.07-17.2-.16-25.8-.25-6.83-.07-13.65-.16-20.48-.25-5.21-.07-10.43-.16-15.64-.25-3.8-.07-7.6-.15-11.4-.25-2.63-.07-5.26-.14-7.9-.24-3.89-.15-7.77-.35-11.65-.51-13.31-.53-26.63-.84-39.95-.92-2.62-.02-5.24-.03-7.87-.03-1.29,0-1.29,2,0,2h0Z"/>
      <path class="cls-2" d="M242.93,102.72c3.03,3.88,7.38,6.34,11.4,9.04,1,.67,2,1.37,2.95,2.12.39.31.95.66,1.17,1.13.2.43-.47.69-.8.92-2.26,1.57-4.6,3.04-7.01,4.37-2.73,1.52-5.54,2.88-8.43,4.07-.5.21-.85.66-.7,1.23.13.47.73.91,1.23.7,5.6-2.31,10.95-5.18,15.92-8.65,1.14-.8,2.32-1.73,1.7-3.28-.5-1.23-1.78-2.03-2.81-2.79-2.14-1.59-4.42-2.97-6.62-4.46-2.44-1.65-4.76-3.48-6.58-5.81-.33-.43-1.07-.35-1.41,0-.42.42-.33.99,0,1.41h0Z"/>
      <path class="cls-2" d="M117.01,18.18c3.67-4.73,7.33-9.48,11.2-14.05.45-.54.9-1.11,1.41-1.59.37-.35.91-.67,1.43-.48.6.22,1.03.9,1.34,1.42,1.56,2.61,2.56,5.59,3.44,8.48.36,1.18.68,2.37.98,3.57.14.56.23,1.57.8,1.88.52.28,1.03.08,1.37-.36.3-.38.09-1.17.04-1.58-.07-.54-.41-1-1-1-.49,0-1.07.46-1,1,.03.26.05.53.09.79.07.39-.17.18.15-.23l1.37-.36h0c.12.12.24.24.36.36.05.08.09.31.05.1-.02-.1-.06-.21-.08-.31-.09-.36-.18-.72-.27-1.08-.3-1.17-.62-2.33-.97-3.48-.92-3.04-1.99-6.25-3.68-8.96-.86-1.37-2.17-2.58-3.9-2.25-1.14.22-1.95,1.05-2.68,1.89-1.46,1.68-2.86,3.42-4.25,5.16-2.56,3.19-5.09,6.42-7.6,9.65-.33.43-.42,1,0,1.41.34.34,1.08.43,1.41,0h0Z"/>
      <path class="cls-2" d="M129.84,1c-.21,12.41-.42,24.83-.63,37.24s-.79,24.47.19,36.64c.49,6.1,1.34,12.16,1.99,18.24s.99,12.09,1.04,18.16c.1,12.04-.8,24.05-1.57,36.06s-1.41,24.19-.77,36.29c.08,1.46.18,2.92.29,4.38.1,1.27,2.1,1.29,2,0-.96-12.07-.52-24.2.2-36.27s1.71-24.02,1.83-36.07c.06-6.05-.09-12.1-.61-18.13s-1.38-12.16-2.01-18.24c-1.26-12.16-.89-24.36-.68-36.56l.63-37.24.08-4.5c.02-1.29-1.98-1.29-2,0h0Z"/>
      <path class="cls-2" d="M121.1,173.62c1.38,3.08,2.93,6.09,4.66,8.99.86,1.45,1.77,2.88,2.71,4.28.76,1.13,1.84,2.94,3.49,2.26.63-.26.97-.8,1.23-1.4-.1.23.07-.15.1-.2.07-.15.15-.3.24-.44.34-.59.75-1.15,1.15-1.71,1.18-1.65,2.29-3.34,3.21-5.16,1.52-3.02,2.63-6.25,3.46-9.52.32-1.25-1.61-1.78-1.93-.53-1.19,4.72-2.99,9.25-5.79,13.25-.73,1.04-1.57,2.05-2.12,3.21-.08.16-.14.33-.22.5.12-.25-.09.16-.09.15l-.02.02c-.07.06-.01.06.17-.01-.04-.11-.41-.36-.5-.47-.26-.33-.48-.7-.72-1.04-.88-1.3-1.72-2.63-2.53-3.98-1.77-2.96-3.36-6.03-4.78-9.19-.22-.49-.94-.61-1.37-.36-.51.3-.58.87-.36,1.37h0Z"/>
    </g>
    <path class="cls-1" d="M78.68,120.18c.36-4.58.72-9.16,1.09-13.75.05-.64-.95-.64-1,0-.36,4.58-.72,9.16-1.09,13.75-.05.64.95.64,1,0h0Z"/>
    <path class="cls-1" d="M78.62,101.56c1.38.31,2.74.74,4.05,1.28.25.1.55-.11.62-.35.08-.29-.1-.51-.35-.62-1.31-.54-2.67-.96-4.05-1.28-.26-.06-.54.08-.62.35-.07.25.08.56.35.62h0Z"/>
    <path class="cls-1" d="M84.41,99.5c.82.1,1.72-.07,2.52.18.44.14,1.07.59.98,1.13-.08.46-.67.63-1.04.78-.5.2-1.01.41-1.36.84-.21.26-.18.59.1.79,1.01.7,3.22,1.23,2.61,2.9-.7,1.91-3.11,1.65-4.7,1.37-.63-.11-.9.85-.27.96,1.23.22,2.53.42,3.75.02.97-.31,1.77-1.02,2.14-1.98s.15-1.93-.55-2.62-1.68-.97-2.48-1.52l.1.79c.43-.53,1.15-.62,1.72-.93.64-.35,1.07-.99.96-1.73s-.73-1.36-1.41-1.66c-.96-.41-2.06-.2-3.07-.32-.64-.08-.63.93,0,1h0Z"/>
    <path class="cls-1" d="M39.92,107.37c1.12,4.26,2.14,8.55,3.06,12.86.13.63,1.1.36.96-.27-.92-4.31-1.94-8.6-3.06-12.86-.16-.62-1.13-.36-.96.27h0Z"/>
    <path class="cls-1" d="M30.58,99.38l4.66.23c.64.03.64-.97,0-1l-4.66-.23c-.64-.03-.64.97,0,1h0Z"/>
    <path class="cls-1" d="M101.3,108.17c.66,3.9,1.33,7.81,1.99,11.71.11.63,1.07.36.96-.27-.66-3.9-1.33-7.81-1.99-11.71-.11-.63-1.07-.36-.96.27h0Z"/>
    <path class="cls-1" d="M100.6,125.57c1.2-.45,2.44-.77,3.71-.96.27-.04.41-.38.35-.62-.08-.29-.35-.39-.62-.35-1.27.19-2.51.51-3.71.96-.25.09-.43.34-.35.62.07.24.36.44.62.35h0Z"/>
    <path class="cls-1" d="M105.75,121.65c.75-.02,1.56-.04,2.26.26s1.08.92,1.07,1.66c-.02,1.72-1.71,2.63-3.16,3.04l.27.96c1.74-.58,3.54-.88,5.37-.89.64,0,.64-1,0-1-1.91,0-3.82.32-5.63.93-.61.2-.36,1.14.27.96,1.53-.43,3.08-1.27,3.68-2.83.26-.68.31-1.51.05-2.2-.28-.75-.85-1.29-1.59-1.58-.81-.32-1.71-.33-2.57-.31-.64.01-.64,1.01,0,1h0Z"/>
    <path class="cls-1" d="M41.01,96.1c-1.07.11-2.08-.18-2.94-.83-.33-.25-.72.1-.75.43-.16,1.74-.13,3.48.09,5.21.05.4.38.59.75.43.81-.36,1.73-.78,2.64-.58.82.18,1.39.86,1.13,1.72-.5,1.67-2.86,1.67-3.97.69-.48-.42-1.19.28-.71.71.9.79,2.09,1.12,3.27.89,1.1-.22,2.15-1.03,2.41-2.16.27-1.2-.38-2.29-1.51-2.72-1.28-.48-2.59.06-3.76.57l.75.43c-.22-1.73-.24-3.47-.09-5.21l-.75.43c.98.74,2.22,1.09,3.44.97.63-.06.64-1.06,0-1h0Z"/>
    <g>
      <path class="cls-1" d="M126.49,27.84c1.54-1.43,3.09-2.85,4.66-4.25.79-.7,1.58-1.39,2.37-2.08.26-.22.74-.81,1.11-.87.29-.05.5.2.7.4,1.06,1.06,1.5,2.54,1.9,3.94.44,1.57.85,3.16,1.64,4.59.62,1.13,2.35.12,1.73-1.01-.87-1.58-1.18-3.37-1.73-5.07s-1.36-3.54-2.91-4.51c-.93-.58-1.97-.39-2.81.24-.94.7-1.81,1.53-2.69,2.31-1.82,1.6-3.61,3.24-5.39,4.89-.94.88.47,2.29,1.41,1.41h0Z"/>
      <path class="cls-1" d="M28.79,144.35l-.14-.61c-.12-.53-.73-.84-1.23-.7-.57.16-.79.7-.7,1.23.41,2.47,1.02,4.9,1.85,7.27.38,1.09.79,2.2,1.29,3.24s1.42,1.73,2.58,1.4,2.01-1.43,2.84-2.18c.9-.82,1.8-1.64,2.69-2.46,1.9-1.76,3.79-3.53,5.66-5.33.93-.89-.48-2.31-1.41-1.41-3.21,3.08-6.42,6.18-9.79,9.09-.15.13-.44.43-.57.34-.27-.17-.44-.87-.55-1.14-.41-.97-.77-1.97-1.1-2.97-.68-2.08-1.2-4.22-1.55-6.38l-1.93.53.14.61c.29,1.25,2.21.72,1.93-.53h0Z"/>
      <path class="cls-1" d="M32.6,155.49c3.02-9.62,5.61-19.39,7.73-29.25,1.15-5.36,2.09-10.77,3.28-16.13s2.87-11.06,4.55-16.52,3.38-10.95,4.94-16.47c.48-1.7,1.38-3.29,2.71-4.46,1.79-1.58,4.3-1.5,6.31-.37,4.13,2.32,5.75,6.94,7.41,11.1,1.91,4.78,3.48,9.7,4.77,14.68.94,3.63,1.74,7.29,2.37,10.98.18,1.05.34,2.11.49,3.17.01.08.05.35,0,.01,0,.07.02.14.03.22.01.12.03.23.04.35.02.15.04.3.05.46.47,4.23,1.24,8.35,2.99,12.27,1.08,2.42,2.5,4.81,4.32,6.75.93,1,2.11,1.97,3.47,2.27,4.34.95,7.39-4.13,9.34-7.16,2.37-3.7,4.45-7.61,5.88-11.77.33-.97.58-1.96.85-2.96.74-2.76,1.53-5.5,2.36-8.24,1.68-5.55,3.51-11.04,5.42-16.51,3.8-10.88,7.92-21.64,11.82-32.48,3.31-9.22,6.32-18.55,9.58-27.79.91-2.59,1.83-5.17,2.77-7.75.44-1.21-1.49-1.73-1.93-.53-3.33,9.18-6.39,18.44-9.57,27.68-3.76,10.89-7.87,21.66-11.79,32.49s-7.65,21.72-10.64,32.84c-.71,2.66-1.65,5.19-2.85,7.67s-2.55,4.74-4.03,6.99c-1.21,1.85-2.56,4-4.52,5.14-.66.38-1.31.52-2.06.48-.08,0,.21.06-.05-.01-.1-.03-.2-.05-.3-.07s-.19-.06-.29-.1c.2.08-.17-.08-.24-.12-1.72-.92-2.97-2.77-3.98-4.39-2.47-3.94-3.77-8.43-4.35-13.02-.62-4.95-1.43-9.84-2.58-14.7s-2.53-9.53-4.22-14.16c-.95-2.61-2-5.19-3.15-7.72-.85-1.88-1.74-3.61-3.14-5.15-1.59-1.74-3.73-3.26-6.11-3.62-2.52-.38-4.84.48-6.56,2.36-1.24,1.37-2.1,3.05-2.59,4.83-.77,2.79-1.58,5.58-2.43,8.35-1.67,5.47-3.43,10.91-4.97,16.42s-2.67,11.11-3.79,16.73c-2.1,10.55-4.58,21-7.62,31.32-.53,1.8-1.08,3.6-1.64,5.39-.39,1.23,1.54,1.76,1.93.53h0Z"/>
    </g>
  </g>
</svg>