<?xml version="1.0" encoding="UTF-8"?>
<svg id="Layer_2" data-name="Layer 2" xmlns="http://www.w3.org/2000/svg" viewBox="0 0 260.54 189.29">
  <defs>
    <style>
      .cls-1 {
        fill: #231f20;
      }

      .cls-2 {
        fill: #a7a9ac;
      }
    </style>
  </defs>
  <g id="Layer_1-2" data-name="Layer 1">
    <g>
      <path class="cls-2" d="M19.6,99.17c-4.91,2.46-9.81,4.94-14.59,7.65-1.02.58-2.06,1.16-3.03,1.83-1.17.8-2.43,2.02-1.81,3.56.4,1.01,1.43,1.52,2.39,1.87.19.07.38.14.58.21.25.1-.05-.03.11.04.13.06.25.11.38.17,1.23.56,2.41,1.2,3.6,1.85,4.52,2.46,8.96,5.07,13.44,7.6,1.12.63,2.13-1.09,1.01-1.73-3.97-2.25-7.93-4.54-11.92-6.76-2.23-1.24-4.46-2.4-6.82-3.37-.26-.11-.69-.27-.85-.51-.05-.07-.04-.15-.07-.21,0,0-.06-.18,0,.02.04.15-.02-.01.03-.08-.05.07.1-.18.15-.24.14-.18.33-.32.5-.47-.25.21.22-.15.31-.22.91-.62,1.86-1.16,2.82-1.7,2.68-1.53,5.42-2.96,8.16-4.38,2.21-1.14,4.42-2.27,6.65-3.39,1.15-.58.14-2.3-1.01-1.73h0Z"/>
      <path class="cls-2" d="M1,112.25c13.52,0,27.03.23,40.54.68,5.83.2,11.66.47,17.49.72,2.38.1,4.76.17,7.13.24,3.5.1,6.99.18,10.49.25,4.86.1,9.72.18,14.58.25,6.42.1,12.84.18,19.26.25,8.14.09,16.29.18,24.43.25,10.16.09,20.33.17,30.49.25,12.36.09,24.71.17,37.07.24,14.76.08,29.52.16,44.28.22,3.92.02,7.85.03,11.77.05,1.29,0,1.29-1.99,0-2-15.37-.07-30.74-.14-46.1-.22-12.91-.07-25.83-.15-38.74-.23-10.67-.07-21.34-.15-32.01-.24-8.6-.07-17.2-.16-25.8-.25-6.83-.07-13.65-.16-20.48-.25-5.21-.07-10.43-.16-15.64-.25-3.8-.07-7.6-.15-11.4-.25-2.63-.07-5.26-.14-7.9-.24-3.89-.15-7.77-.35-11.65-.51-13.31-.53-26.63-.84-39.95-.92-2.62-.02-5.24-.03-7.87-.03-1.29,0-1.29,2,0,2h0Z"/>
      <path class="cls-2" d="M242.93,102.72c3.03,3.88,7.38,6.34,11.4,9.04,1,.67,2,1.37,2.95,2.12.39.31.95.66,1.17,1.13.2.43-.47.69-.8.92-2.26,1.57-4.6,3.04-7.01,4.37-2.73,1.52-5.54,2.88-8.43,4.07-.5.21-.85.66-.7,1.23.13.47.73.91,1.23.7,5.6-2.31,10.95-5.18,15.92-8.65,1.14-.8,2.32-1.73,1.7-3.28-.5-1.23-1.78-2.03-2.81-2.79-2.14-1.59-4.42-2.97-6.62-4.46-2.44-1.65-4.76-3.48-6.58-5.81-.33-.43-1.07-.35-1.41,0-.42.42-.33.99,0,1.41h0Z"/>
      <path class="cls-2" d="M117.01,18.18c3.67-4.73,7.33-9.48,11.2-14.05.45-.54.9-1.11,1.41-1.59.37-.35.91-.67,1.43-.48.6.22,1.03.9,1.34,1.42,1.56,2.61,2.56,5.59,3.44,8.48.36,1.18.68,2.37.98,3.57.14.56.23,1.57.8,1.88.52.28,1.03.08,1.37-.36.3-.38.09-1.17.04-1.58-.07-.54-.41-1-1-1-.49,0-1.07.46-1,1,.03.26.05.53.09.79.07.39-.17.18.15-.23l1.37-.36h0c.12.12.24.24.36.36.05.08.09.31.05.1-.02-.1-.06-.21-.08-.31-.09-.36-.18-.72-.27-1.08-.3-1.17-.62-2.33-.97-3.48-.92-3.04-1.99-6.25-3.68-8.96-.86-1.37-2.17-2.58-3.9-2.25-1.14.22-1.95,1.05-2.68,1.89-1.46,1.68-2.86,3.42-4.25,5.16-2.56,3.19-5.09,6.42-7.6,9.65-.33.43-.42,1,0,1.41.34.34,1.08.43,1.41,0h0Z"/>
      <path class="cls-2" d="M129.84,1c-.21,12.41-.42,24.83-.63,37.24s-.79,24.47.19,36.64c.49,6.1,1.34,12.16,1.99,18.24s.99,12.09,1.04,18.16c.1,12.04-.8,24.05-1.57,36.06s-1.41,24.19-.77,36.29c.08,1.46.18,2.92.29,4.38.1,1.27,2.1,1.29,2,0-.96-12.07-.52-24.2.2-36.27s1.71-24.02,1.83-36.07c.06-6.05-.09-12.1-.61-18.13s-1.38-12.16-2.01-18.24c-1.26-12.16-.89-24.36-.68-36.56l.63-37.24.08-4.5c.02-1.29-1.98-1.29-2,0h0Z"/>
      <path class="cls-2" d="M121.1,173.62c1.38,3.08,2.93,6.09,4.66,8.99.86,1.45,1.77,2.88,2.71,4.28.76,1.13,1.84,2.94,3.49,2.26.63-.26.97-.8,1.23-1.4-.1.23.07-.15.1-.2.07-.15.15-.3.24-.44.34-.59.75-1.15,1.15-1.71,1.18-1.65,2.29-3.34,3.21-5.16,1.52-3.02,2.63-6.25,3.46-9.52.32-1.25-1.61-1.78-1.93-.53-1.19,4.72-2.99,9.25-5.79,13.25-.73,1.04-1.57,2.05-2.12,3.21-.08.16-.14.33-.22.5.12-.25-.09.16-.09.15l-.02.02c-.07.06-.01.06.17-.01-.04-.11-.41-.36-.5-.47-.26-.33-.48-.7-.72-1.04-.88-1.3-1.72-2.63-2.53-3.98-1.77-2.96-3.36-6.03-4.78-9.19-.22-.49-.94-.61-1.37-.36-.51.3-.58.87-.36,1.37h0Z"/>
    </g>
    <g>
      <path class="cls-1" d="M8.09,47.44c.61-4.84,1.69-9.63,3.2-14.28.36-1.11.72-2.25,1.17-3.33.24-.58.64-1.49,1.41-1.2.44.16.8.58,1.12.9.46.47.9.95,1.35,1.43.89.94,1.77,1.87,2.66,2.81,2,2.12,4,4.23,6,6.35.89.94,2.3-.48,1.41-1.41-1.97-2.09-3.94-4.17-5.91-6.26-1-1.06-2-2.12-3-3.17-.83-.88-1.66-1.94-2.79-2.45-1.07-.48-2.28-.25-3.09.6s-1.14,2.01-1.52,3.07c-.92,2.56-1.7,5.18-2.34,7.82-.73,3-1.27,6.05-1.66,9.11-.07.54.51,1,1,1,.6,0,.93-.46,1-1h0Z"/>
      <path class="cls-1" d="M12.17,27.66c3.06,11.59,6.48,23.08,10.3,34.44,3.04,9.06,6.33,18.03,9.89,26.89,1.69,4.21,3.4,8.37,5.5,12.4,4.11,7.9,8.95,15.43,14.27,22.57,3.39,4.55,6.92,9.1,10.87,13.19,3.58,3.7,7.97,6.53,13.1,7.44,9.43,1.68,18.69-2.72,26.31-7.89,8.08-5.48,13.88-13.32,19.1-21.44,4.19-6.52,8.13-13.21,11.78-20.05,4.9-9.17,9.32-18.58,13.52-28.08s8.15-19,11.94-28.61c1.13-2.87,2.25-5.75,3.34-8.63.19-.5-.21-1.1-.7-1.23-.56-.15-1.04.19-1.23.7-3.88,10.18-7.96,20.29-12.26,30.3s-8.47,19.19-13.21,28.54c-3.52,6.94-7.3,13.75-11.36,20.39-4.87,7.96-9.93,16.14-16.9,22.45-2.89,2.62-6.13,4.78-9.5,6.72-4,2.3-8.3,4.17-12.88,4.92-5.32.86-10.77-.16-15.27-3.19-1.87-1.26-3.51-2.81-5.04-4.46-1.88-2.03-3.65-4.16-5.39-6.31-6.27-7.72-11.93-15.97-16.78-24.66-1.31-2.35-2.56-4.73-3.72-7.15-.28-.58-.55-1.16-.8-1.75-.05-.11-.09-.22-.14-.33.26.52-.04-.09-.1-.25-.19-.45-.37-.89-.56-1.34-3.4-8.21-6.57-16.52-9.51-24.9-3.75-10.66-7.14-21.44-10.2-32.31-.83-2.96-1.64-5.93-2.42-8.9-.33-1.24-2.26-.72-1.93.53h0Z"/>
      <path class="cls-1" d="M147.59,41.04c4.69-4.65,9.72-8.94,15.07-12.81l-1.47-.6c1.11,4.64,2.22,9.27,3.33,13.91.3,1.25,2.23.72,1.93-.53-1.11-4.64-2.22-9.27-3.33-13.91-.14-.58-.95-.97-1.47-.6-5.49,3.97-10.67,8.35-15.48,13.12-.92.91.5,2.32,1.41,1.41h0Z"/>
    </g>
    <path class="cls-1" d="M45.75,103.77c-.6,5.78-.86,11.6-.77,17.41.01.64,1.01.64,1,0-.09-5.81.17-11.63.77-17.41.07-.64-.93-.63-1,0h0Z"/>
    <g>
      <path class="cls-1" d="M41.24,95.08c1.71-.08,3.41-.05,5.12.09.27.02.5-.25.5-.5,0-.29-.23-.48-.5-.5-1.7-.15-3.41-.18-5.12-.09-.64.03-.64,1.03,0,1h0Z"/>
      <path class="cls-1" d="M47.92,92.45l3.82-.34c.28-.03.59-.09.87-.07.24,0,.28.05.28.29,0,.49-.27,1-.45,1.45-.9,2.31-1.91,4.58-3,6.81-.28.58.58,1.08.86.5.65-1.33,1.28-2.68,1.86-4.04.55-1.28,1.17-2.59,1.58-3.93.32-1.06,0-2.16-1.29-2.08-1.52.1-3.03.27-4.55.4-.64.06-.64,1.06,0,1h0Z"/>
      <path class="cls-1" d="M48.79,96.44c2.22-.3,4.48-.17,6.66.36.63.15.89-.81.27-.96-2.36-.58-4.78-.69-7.19-.36-.27.04-.41.38-.35.62.08.29.35.39.62.35h0Z"/>
    </g>
    <path class="cls-1" d="M119.7,105.74c-.26,5.17.38,10.36,1.91,15.32.19.61,1.15.35.96-.27-1.5-4.87-2.13-9.96-1.87-15.05.03-.64-.97-.64-1,0h0Z"/>
    <path class="cls-1" d="M113.73,95.4c1.38.31,2.74.74,4.05,1.28.25.1.55-.11.62-.35.08-.29-.1-.51-.35-.62-1.31-.54-2.67-.96-4.05-1.28-.26-.06-.54.08-.62.35-.07.25.08.56.35.62h0Z"/>
    <path class="cls-1" d="M119.61,91.81c.82.1,1.72-.07,2.52.18.44.14,1.07.59.98,1.13-.08.46-.67.63-1.04.78-.5.2-1.01.41-1.36.84-.21.26-.18.59.1.79,1.01.7,3.22,1.23,2.61,2.9-.7,1.91-3.11,1.65-4.7,1.37-.63-.11-.9.85-.27.96,1.23.22,2.53.42,3.75.02.97-.31,1.77-1.02,2.14-1.98s.15-1.93-.55-2.62-1.68-.97-2.48-1.52l.1.79c.43-.53,1.15-.62,1.72-.93.64-.35,1.07-.99.96-1.73s-.73-1.36-1.41-1.66c-.96-.41-2.06-.2-3.07-.32-.64-.08-.63.93,0,1h0Z"/>
  </g>
</svg>