<?xml version="1.0" encoding="UTF-8"?>
<svg id="Layer_2" data-name="Layer 2" xmlns="http://www.w3.org/2000/svg" viewBox="0 0 279.2 204.43">
  <defs>
    <style>
      .cls-1 {
        fill: #231f20;
        stroke-width: 0px;
      }
    </style>
  </defs>
  <g id="Layer_1-2" data-name="Layer 1">
    <g>
      <path class="cls-1" d="M102.3,72.2c-2.01,1.25-3.88,2.72-5.53,4.41-.69.71-1.69,1.56-1.94,2.56-.23.92.46,1.5,1.28,1.69,2.53.6,5.05-.26,7.59-.11.46.03.98.1,1.36.37.54.38.59,1.08.55,1.69-.07,1.07-.59,2.09-1.29,2.87-1.82,2.04-4.72,2.62-7.34,2.38-.64-.06-.64.94,0,1,2.29.21,4.77-.18,6.7-1.5,1.67-1.14,2.97-3.02,2.94-5.11-.02-1-.41-1.91-1.35-2.35s-2.12-.38-3.16-.3c-1.3.1-2.59.29-3.9.29-.66,0-1.37-.02-2-.22-.8-.25-.16-.96.19-1.36,1.84-2.13,4.02-3.95,6.41-5.43.55-.34.04-1.2-.5-.86h0Z"/>
      <path class="cls-1" d="M110.23,83.88c1.48.19,3.25-.47,3.88-1.91s-.03-3.03-1.4-3.64-3.07-.29-3.91.96c-.46.69-.65,1.59-.75,2.4-.11.89-.05,1.8.32,2.63.7,1.59,2.58,2.56,4.27,2.1.62-.17.36-1.13-.27-.96-1.07.29-2.29-.25-2.89-1.17-.73-1.12-.54-2.6-.14-3.81.18-.53.47-1,.99-1.24.46-.22,1.02-.26,1.51-.15,1,.22,1.72,1.16,1.45,2.19-.33,1.29-1.89,1.75-3.07,1.6-.27-.03-.5.25-.5.5,0,.3.23.47.5.5h0Z"/>
      <path class="cls-1" d="M116.53,78.21c.53,2.78,1.24,5.52,2.12,8.2.17.51,1.02.46.98-.13-.1-1.8-.74-3.54-.69-5.34.02-.8.2-1.61.65-2.28.4-.62,1.19-1.16,1.9-.67.53.37,1.03-.5.5-.86-.79-.55-1.85-.35-2.57.23s-1.17,1.54-1.35,2.45c-.44,2.19.44,4.3.57,6.47l.98-.13c-.88-2.69-1.59-5.43-2.12-8.2-.12-.63-1.08-.36-.96.27h0Z"/>
      <path class="cls-1" d="M125.9,85.9l.44-9.23c.03-.64-.97-.64-1,0l-.44,9.23c-.03.64.97.64,1,0h0Z"/>
      <path class="cls-1" d="M128,83.7c1.54-.39,2.96-1.39,3.71-2.81.35-.66.64-1.49.45-2.24-.2-.81-.97-1.23-1.77-1.17-1.72.14-2.64,1.81-2.71,3.37s.49,3.34,1.65,4.46c1.3,1.25,3.47,1.7,5.06.74.55-.33.05-1.2-.5-.86-1.04.62-2.41.43-3.39-.21-1.06-.7-1.62-1.98-1.78-3.21-.14-1.08.02-2.46,1.06-3.08.36-.21,1.11-.42,1.36.05.24.44-.05,1.14-.25,1.54-.62,1.25-1.82,2.1-3.16,2.44-.62.16-.36,1.12.27.96h0Z"/>
      <path class="cls-1" d="M137.57,77.1c-1.15.62-2.08,1.59-2.58,2.8-.24.59-.45,1.36-.28,1.99.16.57.64.92,1.16,1.13,1.09.44,2.57.45,3.27,1.55.11.18.28.51.12.7s-.73.26-.95.32c-.81.21-1.63.33-2.47.37-.64.03-.64,1.03,0,1,.81-.04,1.62-.15,2.42-.33.61-.14,1.5-.27,1.87-.85.74-1.17-.57-2.44-1.53-2.92-.6-.3-1.23-.45-1.87-.62-.27-.07-.56-.14-.79-.3-.33-.23-.31-.56-.25-.93.24-1.35,1.2-2.42,2.38-3.06.57-.31.06-1.17-.5-.86h0Z"/>
      <path class="cls-1" d="M81.73,98.91c.31-.82,1.37-1.39,2.06-1.85.85-.57,1.73-1.07,2.64-1.52s1.85-.83,2.81-1.17c.66-.23,1.55-.61,1.5-1.45-.04-.64-1.04-.64-1,0,.02.27-.56.42-.76.48-.45.16-.9.32-1.34.5-.92.37-1.82.8-2.68,1.27s-1.65.98-2.43,1.55c-.72.52-1.44,1.05-1.76,1.92-.23.6.74.86.96.27h0Z"/>
      <path class="cls-1" d="M85.6,91.95c.01,2.33.02,4.65.04,6.98,0,1.14.01,2.28.02,3.43,0,.93-.14,2.02.45,2.81.38.51,1.25.01.86-.5-.55-.74-.31-2.04-.31-2.92,0-1.1-.01-2.2-.02-3.3-.01-2.16-.02-4.32-.03-6.49,0-.64-1-.64-1,0h0Z"/>
      <path class="cls-1" d="M90.58,94.32c-.13,3.3.2,6.59.96,9.8l.96-.27c-.32-.93-.42-1.98.02-2.89.36-.75,1.03-1.22,1.87-1.16s1.39.6,1.51,1.39c.14.91-.29,1.8-.9,2.45-.44.47.27,1.18.71.71.86-.92,1.38-2.16,1.15-3.43-.21-1.13-1.08-1.94-2.21-2.1s-2.23.36-2.85,1.35c-.73,1.17-.71,2.67-.27,3.94.21.6,1.11.37.96-.27-.74-3.13-1.05-6.32-.92-9.53.03-.64-.97-.64-1,0h0Z"/>
      <path class="cls-1" d="M102.88,98.87l.64,5.28.98-.13c-.5-1.51-1.21-2.94-2.13-4.24-.44-.62-.91-1.28-1.47-1.8-.51-.46-1.36-.85-1.96-.31-.26.23-.37.57-.47.9-.13.42-.24.84-.31,1.28-.13.8-.18,1.63-.09,2.44.17,1.43.87,2.66,2.24,3.23,1.44.6,3.11.44,4.6.15.63-.12.36-1.09-.27-.96-1.96.38-4.85.52-5.47-1.91-.31-1.23-.14-2.63.23-3.83.05-.17.09-.54.3-.55.23-.01.5.28.64.42.46.48.87,1.01,1.25,1.55.84,1.2,1.5,2.51,1.96,3.9.17.5,1.05.46.98-.13l-.64-5.28c-.03-.27-.21-.5-.5-.5-.25,0-.53.23-.5.5h0Z"/>
      <path class="cls-1" d="M104.94,98.3c1.62-1.27,3.59-2.02,5.62-2.31.27-.04.41-.38.35-.62-.08-.29-.35-.39-.62-.35-2.21.32-4.3,1.19-6.06,2.57-.21.17-.17.53,0,.71.21.21.49.17.71,0h0Z"/>
      <path class="cls-1" d="M107.6,93.03v12.21c0,.64,1,.64,1,0v-12.21c0-.64-1-.64-1,0h0Z"/>
      <path class="cls-1" d="M125.74,93.88c-1.73-.29-3.08,1.06-4.13,2.26s-2.13,2.74-2.65,4.33c-.49,1.5-.05,3.06,1.43,3.77,1.57.76,3.26.24,4.8-.32.6-.22.34-1.19-.27-.96-1.21.45-2.61.99-3.9.48-.49-.19-.95-.55-1.15-1.05-.26-.63-.07-1.36.17-1.97.5-1.25,1.3-2.43,2.17-3.44.76-.88,1.95-2.35,3.27-2.13.63.11.9-.86.27-.96h0Z"/>
      <path class="cls-1" d="M128.09,102.6c-.17-.79.05-1.64.52-2.32.42-.61,1.39-1.41,2.17-.96.66.38,1.01,1.14,1.01,1.87s-.36,1.41-1.04,1.78c-.76.41-1.71.34-2.41-.19-.21-.16-.56-.03-.68.18-.15.26-.04.52.18.68.85.65,2.08.75,3.06.36,1.08-.44,1.77-1.36,1.89-2.51.11-1.06-.34-2.18-1.19-2.83-.6-.46-1.32-.59-2.03-.32-.55.21-1.04.54-1.44.98-.87.96-1.26,2.29-1,3.56.06.26.37.42.62.35.27-.08.41-.35.35-.62h0Z"/>
      <path class="cls-1" d="M134.05,98.32l-.13,5.83.98-.13c-.31-2,.19-4.1,1.33-5.76.1-.15.23-.41.41-.48-.13.05-.03-.05-.02.07,0,.09.06.2.08.29.11.58.15,1.18.2,1.76.1,1.23.13,2.47.08,3.71-.02.64.98.64,1,0,.04-1.19.02-2.38-.07-3.57-.05-.58-.11-1.16-.19-1.74-.06-.44-.12-.91-.45-1.24-.89-.87-1.77.45-2.18,1.13-.5.84-.87,1.77-1.07,2.72-.24,1.12-.26,2.26-.09,3.39.09.57.97.41.98-.13l.13-5.83c.01-.64-.99-.64-1,0h0Z"/>
      <path class="cls-1" d="M138.75,95.86c.34,2.78.95,5.51,1.85,8.16.16.48.79.46.96,0,.95-2.55,1.71-5.16,2.27-7.82.13-.63-.83-.9-.96-.27-.57,2.66-1.33,5.27-2.27,7.82h.96c-.87-2.56-1.49-5.21-1.81-7.89-.08-.63-1.08-.64-1,0h0Z"/>
      <path class="cls-1" d="M144.99,101.28c1.1-.45,2.33-1.29,2.7-2.48.15-.47.15-1.05-.18-1.44-.41-.48-1.09-.5-1.59-.14-.53.38-.81,1.02-1.04,1.62-.24.64-.36,1.33-.39,2.02-.06,1.34.28,2.82,1.07,3.92.41.57.97,1.05,1.69,1.15s1.36-.16,1.78-.74c.38-.52-.49-1.02-.86-.5-.27.38-.86.31-1.21.1-.47-.29-.77-.81-.99-1.29-.49-1.08-.62-2.35-.37-3.51.12-.56.3-1.17.63-1.64.09-.13.3-.43.49-.35.05.02.07.17.06.29-.04.46-.36.82-.67,1.13-.4.39-.87.71-1.39.92-.25.1-.42.33-.35.62.06.24.37.45.62.35h0Z"/>
      <path class="cls-1" d="M149.29,97.19c.11,2.04.44,4.07.98,6.04.16.58.92.4.98-.13.08-.71.17-1.43.25-2.14.08-.67.13-1.35.24-2.01.07-.43.2-1.02.62-1.24.27-.14.64-.16.78.13.29.57,1.15.07.86-.5-.3-.6-1.01-.8-1.64-.68-.7.14-1.16.69-1.41,1.33-.28.73-.3,1.57-.39,2.34-.11.92-.21,1.85-.32,2.77l.98-.13c-.52-1.89-.84-3.82-.95-5.77-.04-.64-1.04-.64-1,0h0Z"/>
      <path class="cls-1" d="M155.07,97.23c-.46,1.29-.71,2.69-.65,4.07.04.93.55,1.99,1.67,1.69s1.34-1.7,1.26-2.7c-.09-1.2-.58-2.28-1.37-3.18l-.71.71c1.98,1.8,2.51,4.86,2.1,7.41-.21,1.32-.84,2.45-2.01,3.15-1.04.62-2.28.81-3.44.46-.62-.19-.88.78-.27.96,2.88.86,5.94-.98,6.6-3.89s.04-6.69-2.28-8.8c-.48-.43-1.13.22-.71.71.49.56.83,1.22.99,1.95.1.47.31,2.16-.44,2.25-1.03.12.02-4,.21-4.52.22-.61-.75-.87-.96-.27h0Z"/>
      <path class="cls-1" d="M160.31,100.69c1.48.15,3-.55,3.59-1.97.52-1.25.08-2.96-1.37-3.33s-2.09,1.24-2.14,2.42c-.06,1.69,0,3.51.65,5.09.61,1.49,1.72,2.76,3.29,3.25.62.19.88-.77.27-.96-3-.94-3.31-4.75-3.21-7.38.02-.46.06-1.27.6-1.44.58-.19,1.07.54,1.13,1.02.2,1.59-1.45,2.43-2.81,2.29-.64-.06-.64.94,0,1h0Z"/>
    </g>
    <g>
      <path class="cls-1" d="M58.34,41.27c-1.3,1.12-2.37,2.68-2.75,4.38s.56,2.93,2.2,3.36c.75.19,1.52.21,2.27.38.63.15,2.14.79,1.43,1.66-.28.35-.78.55-1.17.76-.46.25-.94.48-1.42.7-.99.44-2.02.8-3.07,1.09-.62.17-.36,1.14.27.96,1.92-.53,3.97-1.28,5.63-2.41,1.56-1.07.86-2.86-.69-3.5-.75-.31-1.54-.36-2.33-.48-.72-.11-1.66-.3-2.05-.99-.5-.86.12-2.16.54-2.94.47-.88,1.1-1.63,1.85-2.28.49-.42-.22-1.13-.71-.71h0Z"/>
      <path class="cls-1" d="M65.49,49.54c1.04-.77,1.94-2.17,1.68-3.52-.13-.69-.74-1.14-1.43-1.11s-1.23.46-1.58,1.03c-1.3,2.13-.7,5.47,1.78,6.4,1.2.45,2.69.23,3.56-.75.43-.48-.28-1.19-.71-.71-.51.58-1.3.78-2.05.64-.85-.16-1.51-.68-1.9-1.45-.41-.82-.43-1.81-.2-2.68.12-.44.28-.93.62-1.25.2-.19.62-.37.85-.11.28.32.02,1.04-.11,1.36-.21.51-.57.97-1.01,1.29-.22.16-.33.43-.18.68.13.21.47.34.68.18h0Z"/>
      <path class="cls-1" d="M68.83,44.8c.42,1.91,1.19,3.74,2.27,5.37.35.53,1.18.06.86-.5-.62-1.12-1.06-2.37-1.2-3.64-.06-.48-.09-1.13.28-1.51.22-.22.63-.36.87-.11.44.47,1.15-.24.71-.71-.48-.51-1.23-.53-1.83-.22-.71.36-1.01,1.12-1.05,1.88-.04.81.15,1.66.37,2.43.24.83.58,1.63.99,2.39l.86-.5c-1.03-1.57-1.76-3.3-2.16-5.13-.14-.63-1.1-.36-.96.27h0Z"/>
      <path class="cls-1" d="M74.87,48.81c-.25-1.5-.22-3.05.07-4.54.05-.26-.08-.54-.35-.62-.25-.07-.56.08-.62.35-.33,1.68-.35,3.39-.07,5.08.04.27.37.42.62.35.28-.08.39-.35.35-.62h0Z"/>
      <path class="cls-1" d="M76.6,47.55c.87-.67,1.52-1.55,1.89-2.59.17-.49.33-1.08.24-1.6-.1-.61-.64-.94-1.23-.81-1,.22-1.44,1.33-1.43,2.26.02,1.1.53,2.2,1.3,2.98.44.44.98.81,1.61.89s1.27-.18,1.63-.73-.51-1.04-.86-.5c-.4.6-1.26.04-1.62-.3-.55-.53-.9-1.22-1.03-1.97-.08-.5-.04-1.22.4-1.54.08-.06.2-.12.31-.11-.11-.02-.05.03-.06.14-.02.35-.12.71-.23,1.03-.27.77-.78,1.49-1.43,1.99-.21.16-.33.43-.18.68.12.21.47.35.68.18h0Z"/>
      <path class="cls-1" d="M82.25,41.24c-.69.3-1.15.99-1.23,1.73s.32,1.48.94,1.9c.33.22.71.3,1.09.38.21.05.73.13.78.41.03.13-.1.25-.18.34-.15.17-.32.33-.47.49-.33.34-.65.67-.98,1.01-.45.46.26,1.17.71.71.31-.32.62-.64.93-.97.28-.29.63-.58.83-.94.44-.77-.09-1.56-.83-1.86-.63-.25-1.45-.17-1.75-.92-.24-.59.11-1.18.66-1.42.25-.11.3-.47.18-.68-.15-.26-.44-.29-.68-.18h0Z"/>
      <path class="cls-1" d="M90.29,40.51l-.49.14c-.26.07-.42.35-.35.62.26.96.65,1.89,1.16,2.74.46.77,1.02,1.59,1.82,2.04.74.41,1.92.48,2.12-.57.1-.49.06-1.04.07-1.53,0-.59-.01-1.18-.04-1.77l-.85.35c.32.39.64.78.96,1.17.28.34.53.71.87.98.59.48,1.46.63,1.9-.13.39-.68.43-1.69.39-2.46-.05-.89-.27-1.75-.65-2.56-.27-.58-1.14-.08-.86.5.54,1.15.68,2.5.36,3.73-.05.19-.05.37-.26.3-.23-.08-.43-.34-.57-.52-.47-.57-.94-1.15-1.41-1.73-.27-.34-.87-.06-.85.35.05.87.06,1.75.02,2.62,0,.12.05.42-.03.52-.05.05-.15.04-.23.03-.31-.05-.6-.25-.83-.46-1.07-.99-1.73-2.51-2.11-3.88l-.35.62.49-.14c.62-.17.36-1.14-.27-.96h0Z"/>
      <path class="cls-1" d="M96.97,34.54c.83,3.16,1.66,6.32,2.48,9.48.15.58.93.4.98-.13.07-.74.12-1.49.13-2.24,0-.34,0-.69,0-1.03,0-.3-.01-.6.35-.31.45.36.76,1.05,1,1.56.28.6.48,1.23.61,1.88s1.1.36.96-.27c-.19-.89-.5-1.76-.93-2.56-.37-.68-.89-1.64-1.75-1.73-.91-.1-1.25.65-1.23,1.42.02,1.09-.02,2.18-.12,3.27l.98-.13-2.48-9.48c-.16-.62-1.13-.36-.96.27h0Z"/>
      <path class="cls-1" d="M104.86,41.43c-.07,0-.05,0-.08-.01-.07-.03-.07-.03-.12-.11s-.12-.23-.15-.36c-.07-.3,0-.71.11-1.04.25-.71.85-1.29,1.61-1.4.7-.11,1.45.18,1.81.82.38.68.23,1.5-.33,2.01-.78.72-1.91.39-2.77,0-.25-.11-.54-.07-.68.18-.13.21-.07.57.18.68,1.16.53,2.57.9,3.7.08.99-.72,1.39-2,.92-3.14s-1.58-1.74-2.75-1.63-2.15.91-2.59,2.02c-.22.56-.31,1.23-.13,1.82s.63,1.09,1.29,1.1.64-1,0-1h0Z"/>
      <path class="cls-1" d="M112.26,36.26c-.83-.05-1.47.5-1.94,1.13-.22.3-.47.66-.59,1.02-.18.52.15.92.6,1.14s.89.36,1.37.44c.19.03.85.05.9.31.03.18-.61.41-.73.46-.43.18-.88.3-1.34.38-.27.05-.42.37-.35.62.08.28.35.4.62.35.46-.08.91-.21,1.34-.38.4-.16.84-.33,1.15-.65s.41-.8.2-1.22-.65-.66-1.1-.75-.91-.15-1.35-.32c-.1-.04-.19-.08-.28-.12-.02-.01-.12-.08-.13-.07.02.18.03.23.04.16.02-.04.04-.08.07-.12.04-.08.09-.16.14-.24.31-.52.74-1.14,1.38-1.11s.64-.96,0-1h0Z"/>
      <path class="cls-1" d="M114.28,39.4c.78-.32,1.69-.73,1.96-1.61.22-.71-.1-1.65-.86-1.88-.94-.28-1.67.63-1.8,1.46-.14.92.12,1.86.71,2.58.65.79,1.74,1.22,2.76,1.11.27-.03.5-.21.5-.5,0-.25-.23-.53-.5-.5-1.2.13-2.34-.67-2.5-1.9-.04-.29-.02-.59.08-.87.02-.06.1-.2.13-.24.02-.03.1-.11.11-.12.04-.04.07-.05.11-.06,0,0,.08-.02.04-.01-.05.01.1,0,.02,0-.05,0,.13.05.03,0,.02,0,.04.02.06.03.06.04-.05-.05,0,0,.02.02.03.03.05.05.09.09-.02-.04.02.02.01.02.07.14.04.07.02.05.03.11.05.16,0,.01.02.11.01.05,0-.05,0,.03,0,.03,0,.03,0,.07,0,.1,0,.09,0-.01,0,.04-.03.16-.03.16-.13.3-.06.08-.18.2-.27.27-.27.2-.59.34-.88.46-.25.1-.43.33-.35.62.06.24.36.45.62.35h0Z"/>
      <path class="cls-1" d="M121.89,35.01c-.13,1.75.55,3.54,1.81,4.76.58.56,1.61,1.24,2.29.42.3-.36.34-.89.41-1.33.08-.53.14-1.06.16-1.59.05-1.22-.06-2.44-.32-3.63-.14-.63-1.1-.36-.96.27.23,1.07.33,2.16.29,3.25-.02.54-.07,1.08-.15,1.62-.04.23-.07.49-.15.71-.05.14-.13.1-.27.04-.37-.17-.69-.53-.94-.84-.28-.33-.51-.71-.69-1.1-.38-.8-.53-1.69-.46-2.57.05-.64-.95-.64-1,0h0Z"/>
      <path class="cls-1" d="M127.22,35.32c.19,1.33.48,2.65.86,3.94.18.62,1.13.36.96-.27-.21-.81-.36-1.63-.43-2.47-.03-.4-.06-.8-.05-1.2,0-.11,0-.27.08-.36.03-.03.12-.05.16-.06.55-.05.92.86,1.11,1.27.32.68.54,1.43.63,2.18.03.27.21.5.5.5.24,0,.53-.23.5-.5-.1-.77-.27-1.51-.57-2.23-.26-.64-.58-1.38-1.13-1.83s-1.43-.59-1.95,0-.34,1.52-.28,2.22c.08.92.23,1.84.47,2.73l.96-.27c-.38-1.29-.67-2.61-.86-3.94-.04-.27-.38-.41-.62-.35-.29.08-.39.35-.35.62h0Z"/>
      <path class="cls-1" d="M131.87,30.59c.55,1.85.97,3.74,1.26,5.65l.84-.49c-.34-.35-.73-.67-1.15-.92s-.95-.56-1.44-.47c-.91.16-1.11,1.45-.93,2.19.45,1.87,2.92,2.15,3.94.61.36-.54-.51-1.04-.86-.5-.53.8-1.82.65-2.09-.29-.06-.21-.07-.42-.03-.63.02-.1.06-.21.11-.3.08-.14.07-.1.21-.04.58.28,1.09.59,1.54,1.06.38.39.9-.03.84-.49-.29-1.91-.71-3.8-1.26-5.65-.18-.62-1.15-.35-.96.27h0Z"/>
      <path class="cls-1" d="M136.06,35.58c.19-.38.53-.63.82-.93.31-.32.56-.7.63-1.14s-.02-.91-.37-1.23-.84-.36-1.26-.19c-1.06.42-1.11,1.6-.99,2.58s.4,2.02,1.26,2.65c.45.33,1,.44,1.55.35s1.07-.42,1.53-.73c.22-.15.32-.44.18-.68-.13-.22-.46-.33-.68-.18-.49.33-1.14.81-1.76.57s-.89-.94-1.01-1.54c-.07-.36-.11-.73-.12-1.1,0-.28.02-.64.19-.83.07-.08.15-.12.23-.15.04-.01.07-.02.11-.03-.02,0-.04,0,0,0,.02,0,.04,0,.07.01.06.03.08.04.09.13.01.06,0,.02,0,0,0,.04,0,.08,0,.11,0,.06,0,.08-.03.16-.08.29-.3.49-.53.72-.29.28-.59.57-.78.94-.12.24-.06.54.18.68.22.13.56.06.68-.18h0Z"/>
      <path class="cls-1" d="M138.76,32.5c.3,1.35.81,2.65,1.48,3.86.32.56,1.15.07.86-.5-.41-.81-.68-1.74-.68-2.65,0-.33.05-.73.3-.95.07-.06.19-.13.34-.15-.07,0,.03,0,.05,0,.09,0-.1-.03.05,0,.02,0,.07.02.03,0,.01,0,.11.08.07.04.2.18.51.2.71,0,.18-.18.2-.53,0-.71-.44-.4-1.05-.43-1.58-.17s-.84.81-.92,1.37c-.1.62-.02,1.25.11,1.86.14.64.37,1.26.67,1.85l.86-.5c-.64-1.14-1.1-2.35-1.38-3.62-.06-.26-.36-.42-.62-.35-.27.07-.41.35-.35.62h0Z"/>
      <path class="cls-1" d="M141.44,27.69c.49,2.74,1.04,5.48,1.62,8.2.11.49.84.46.96,0,.04-.14.07-.27.11-.41.17-.62-.8-.89-.96-.27-.04.14-.07.27-.11.41h.96c-.59-2.72-1.13-5.46-1.62-8.2-.11-.63-1.08-.36-.96.27h0Z"/>
      <path class="cls-1" d="M144.13,30.98c-.03.58.08,1.15.33,1.67.22.46.64,1.13,1.22,1.14.61,0,.85-.62.97-1.12.15-.62.13-1.24-.02-1.86l-.96.27c.23.82.41,1.66.51,2.51.09.8.18,1.65.09,2.45-.17,1.46-1.6,1.77-2.84,1.93-.27.03-.5.21-.5.5,0,.24.23.53.5.5,1.53-.19,3.29-.6,3.73-2.31.23-.89.13-1.88.04-2.78-.1-1.04-.29-2.06-.57-3.06-.17-.62-1.12-.36-.96.27.08.33.12.67.08,1.01-.02.17-.06.34-.1.5-.02.07-.05.14-.07.21.23.06.28.05.15-.05-.04-.12-.21-.27-.28-.39-.08-.14-.15-.28-.2-.44-.1-.31-.13-.62-.11-.95.03-.64-.97-.64-1,0h0Z"/>
      <path class="cls-1" d="M149.27,34.36l-.75-3.44c-.06-.26-.36-.42-.62-.35-.27.07-.41.35-.35.62l.75,3.44c.06.26.36.42.62.35.27-.07.41-.35.35-.62h0Z"/>
      <path class="cls-1" d="M149.27,31.21l.6,2.38c.06.24.31.39.55.36s.45-.24.43-.49c-.04-.56-.04-1.13,0-1.7.02-.27.05-.49.1-.74.02-.12.04-.23.08-.34-.05.13.02-.04.02-.03.03.11-.31.09-.29.09l-.3-.23c.67.89,1,1.91.98,2.98l.98-.13-.08-.31c-.06-.25-.36-.43-.62-.35s-.42.34-.35.62l.08.31c.14.55.97.43.98-.13.02-1.02-.25-2.05-.75-2.94-.12-.22-.26-.47-.44-.65-.26-.26-.71-.16-.94.09-.17.18-.26.42-.3.66-.06.3-.1.61-.13.91-.07.63-.07,1.26-.02,1.89l.98-.13-.6-2.38c-.06-.25-.36-.43-.62-.35s-.42.34-.35.62h0Z"/>
      <path class="cls-1" d="M152.63,29.85c.22.69.13,1.44.6,2.04.42.52,1.16.8,1.75.37s.6-1.22.28-1.82-.94-1.06-1.54-1.35l-.25.93c.63.02,1.1.58,1.42,1.07.4.62.68,1.31.81,2.04.11.6.01,1.18-.5,1.56-.47.35-1.08.49-1.65.62-.63.14-.36,1.11.27.96.75-.17,1.52-.39,2.12-.89.73-.61.88-1.51.74-2.41s-.53-1.85-1.08-2.61c-.51-.72-1.21-1.32-2.13-1.35-.48-.02-.71.72-.25.93.38.18.73.42,1.01.74.13.15.43.62.14.77-.18.1-.44-.3-.5-.48-.15-.46-.13-.95-.27-1.4-.2-.61-1.16-.35-.96.27h0Z"/>
      <path class="cls-1" d="M59.95,60.38c-1.2.15-1.76,1.21-2.13,2.25-.23.64-.39,1.34-.15,2,.2.53.63.93,1.13,1.16s1.03.35,1.57.46c.48.1,1.04.21,1.42.56.19.18.37.45.2.7-.16.23-.52.36-.77.44-.63.19-1.29.16-1.94.14s-.64.98,0,1c1.16.04,2.7.05,3.49-.96.9-1.15-.35-2.3-1.4-2.66-.81-.27-2.39-.23-2.77-1.19-.22-.57.12-1.33.36-1.85.18-.4.48-.99.98-1.06.27-.03.5-.21.5-.5,0-.24-.23-.53-.5-.5h0Z"/>
      <path class="cls-1" d="M63.7,66.38c.64-.62,1.36-1.41,1.22-2.38-.12-.85-.95-1.67-1.85-1.34s-1.05,1.35-.91,2.16.59,1.56,1.17,2.12c.7.67,1.59,1.07,2.55,1.14.27.02.5-.24.5-.5,0-.29-.23-.48-.5-.5-1.09-.08-2.13-.86-2.57-1.87-.06-.13-.1-.28-.14-.42-.04-.15-.06-.27-.07-.37,0-.26,0-.47.12-.66.05-.09.08-.12.15-.15.05-.02.1-.04.18,0,.02,0,.05.02.1.06-.02-.02.08.07.09.09.06.07.12.18.15.27.19.6-.49,1.24-.92,1.65-.46.45.25,1.16.71.71h0Z"/>
      <path class="cls-1" d="M66.58,65.05s-.02-.08-.03-.12c-.03-.12,0,.07,0,0s-.01-.15,0-.23c0-.03,0-.06,0-.08,0-.02.02-.16,0-.03.01-.08.03-.16.05-.24.02-.07.04-.13.07-.19-.04.1,0,.01,0-.01.02-.03.03-.06.05-.09.03-.06.07-.11.11-.17-.07.1,0,0,.02-.02.03-.03.05-.05.08-.08.08-.09-.09.05.01-.01.02-.01.04-.03.06-.04.03-.02.06-.03.1-.05-.1.05-.03.01,0,0,.04,0,.07-.02.11-.03-.09.01,0,0,.03,0,.04,0,.08,0,.12,0-.11-.01.05.01.07.02.04,0,.07.02.11.03.13.04-.08-.05.04.01.06.03.12.06.17.09.04.03.09.08.14.09-.09-.03-.07-.06-.03-.02.02.02.03.03.05.05.12.11.15.17.24.33.04.08.08.15.12.23.05.1.05.1.09.22.03.09.07.18.1.27.01.04.02.08.03.11.04.13,0-.08,0,.06,0,.03,0,.07,0,.1,0,.14.03-.07,0,.07,0,.03-.02.07-.03.1-.02.06-.02.07,0,.03-.01.03-.03.06-.04.08-.01.02-.03.04-.04.06.07-.1,0,0-.02.02-.02.02-.05.04-.07.07-.04.05.09-.05,0,0-.06.04-.11.07-.17.1-.11.06.09-.03-.03.01-.04.01-.08.03-.12.04s-.08.02-.12.03c-.09.02-.01,0,0,0-.08,0-.16.01-.23.01-.04,0-.07,0-.11,0-.13,0,.06.02-.02,0-.08-.02-.17-.04-.25-.06-.08-.02.1.05-.02,0-.04-.02-.09-.05-.13-.07-.03-.02-.06-.04-.09-.06.1.07-.02-.02-.04-.03-.05-.05-.1-.11-.15-.16s.06.1,0,0c-.02-.03-.04-.06-.06-.1-.03-.05-.06-.1-.09-.16,0-.02-.02-.04-.03-.06-.04-.08.04.12,0,.02-.02-.05-.04-.1-.05-.16-.07-.25-.36-.43-.62-.35s-.42.34-.35.62c.15.57.56,1.12,1.1,1.37.77.35,1.83.26,2.4-.42.34-.41.46-.97.31-1.49-.14-.49-.36-.98-.67-1.37-.51-.65-1.48-.97-2.23-.56-.84.46-1.13,1.6-.91,2.47.06.25.36.43.62.35s.42-.34.35-.62Z"/>
      <path class="cls-1" d="M68.05,60.77c.41,3.23,1.02,6.43,1.84,9.58.16.62,1.13.36.96-.27-.8-3.06-1.41-6.17-1.81-9.32-.08-.63-1.08-.64-1,0h0Z"/>
      <path class="cls-1" d="M69.72,62c.33,1.25,1.01,2.42,1.95,3.31.26.25.55.5.91.57s.72-.03.99-.28c.46-.44.54-1.16.58-1.76.05-.83-.06-1.68-.3-2.48-.19-.61-1.15-.35-.96.27.17.56.27,1.12.28,1.71,0,.29,0,.58-.04.87-.01.1-.03.2-.06.3-.01.05-.03.1-.04.15,0,.02-.02.05-.03.07.02-.05,0,0-.01.02-.02.04-.05.09-.08.13.05-.06-.03.03-.05.04,0,0,.05-.05,0-.01-.05.04.02,0,.02,0,0,0-.08.02-.03.01.06,0-.06,0-.04,0-.18-.03-.38-.25-.52-.4-.36-.36-.67-.75-.93-1.19-.3-.5-.52-1.03-.67-1.59-.17-.62-1.13-.36-.96.27h0Z"/>
      <path class="cls-1" d="M76.6,63.58c.57-.64,1.16-1.52.6-2.36-.25-.39-.68-.63-1.15-.55s-.77.47-.94.88c-.62,1.54.6,3.4,2.05,3.94.46.17,1.01.16,1.42-.13.44-.31.69-.82.55-1.36-.17-.62-1.14-.36-.96.27,0,0,.02.08.01.04,0-.06,0,.08,0,.02,0,0,0,.03-.01.04-.03.07-.02.05-.06.1-.02.02-.04.04-.06.06-.07.05.04-.02-.03.02-.08.05-.12.06-.21.06-.13,0-.24-.02-.37-.08-.44-.18-.84-.57-1.08-.94-.28-.42-.41-.83-.4-1.3,0,0,0-.1,0-.03,0-.03,0-.05.02-.08.01-.05.02-.11.04-.16.03-.11.06-.18.12-.26-.02.02.1-.1.06-.07.03-.03.06,0,.08-.03-.01.02-.06,0-.07,0,0,0,.08.03.03,0s.11.08.05.03c.08.07.12.15.14.23.02.06,0,.15-.03.27-.09.26-.31.5-.49.71s-.2.51,0,.71c.18.18.53.2.71,0h0Z"/>
      <path class="cls-1" d="M78.74,60.53c.24,1.25.71,2.46,1.38,3.55.13.21.39.31.62.2.25-.11.33-.34.29-.59-.11-.74-.21-1.48-.32-2.22l-.08-.54c-.02-.14-.06-.29-.03-.43.02-.11,0-.07,0-.04,0-.03.14-.07-.06,0-.05.02-.08-.07-.01.02.04.06.1.1.14.16.76.9,1.17,2.08,1.19,3.24,0,.64,1.01.64,1,0-.02-1.23-.4-2.45-1.11-3.46-.37-.52-.92-1.26-1.64-.83s-.48,1.33-.38,2c.11.79.23,1.58.34,2.38l.91-.39c-.63-1.02-1.06-2.13-1.28-3.31-.05-.27-.37-.42-.62-.35-.28.08-.4.35-.35.62h0Z"/>
      <path class="cls-1" d="M84.46,58.56c-.63.29-.94.93-1.18,1.55-.22.56-.41,1.18-.34,1.78.08.72.55,1.32,1.28,1.46s1.47-.18,2.11-.58c.54-.34.04-1.21-.5-.86-.22.14-.45.29-.69.38-.22.09-.46.13-.64.1-.11-.02-.2-.05-.27-.09-.08-.04-.15-.12-.18-.16-.1-.15-.12-.26-.12-.46,0-.41.15-.87.32-1.3.15-.39.35-.78.72-.95.25-.11.31-.47.18-.68-.15-.25-.44-.29-.68-.18h0Z"/>
      <path class="cls-1" d="M87.26,60.91c.98-.02,2.01-.45,2.34-1.45.14-.44.11-.97-.15-1.36s-.67-.59-1.12-.61-.87.18-1.11.54c-.29.42-.23.99-.11,1.46.21.84.75,1.55,1.44,2.05.79.58,1.78.81,2.74.64.27-.05.42-.37.35-.62-.08-.28-.35-.4-.62-.35-.1.02-.05,0-.03,0-.04,0-.07,0-.11.01-.08,0-.16,0-.24,0-.17,0-.26,0-.37-.03-.15-.03-.29-.06-.44-.11-.16-.05-.21-.07-.37-.16-.52-.27-.92-.65-1.19-1.16-.03-.06-.07-.12-.09-.19,0,0-.04-.09-.01-.03-.01-.03-.03-.07-.04-.1-.05-.15-.09-.3-.12-.46.01.07-.01-.14-.01-.16,0-.07,0-.13.01-.2,0-.04.05-.11,0-.05.02-.02.04-.04.06-.06-.07.07.01,0,.04-.02.02-.01.08-.03,0,0,.03,0,.06-.02.08-.02.08-.03.02,0,0,0,.03,0,.06,0,.09,0s.06,0,.09,0c-.1,0-.02,0,0,0,.03,0,.06.02.09.02.1.03-.03-.03.04.02.02.02.05.03.07.05-.08-.06,0,0,0,0,.04.07.03.03.01,0,.02.03.04.06.06.09.05.1.02.04.01.03.01.04.03.08.03.13.01.08,0-.06,0,.03,0,.04,0,.09,0,.13,0,.1-.06.24-.13.37-.04.07-.17.2-.27.26-.31.2-.66.26-1.02.27-.64.01-.64,1.01,0,1h0Z"/>
      <path class="cls-1" d="M97.28,56.43c-.41,1.08-.34,2.85.8,3.5s2.34-.4,2.57-1.49c.25-1.16-.34-2.25-1.3-2.89-.75-.49-2.51-1.01-2.64.37-.02.25.25.53.5.5.99-.11,2.1-.24,3.05.15,1.07.44,1.53,1.73,1.75,2.79.25,1.18-.31,2.03-1.26,2.68-.45.31-.94.59-1.43.84-.53.27-1.11.49-1.71.33s-.89.79-.27.96c1.38.38,2.81-.51,3.91-1.27,1.17-.8,1.98-1.9,1.79-3.39-.17-1.34-.8-2.99-2.03-3.69-1.14-.65-2.54-.56-3.8-.42l.5.5c-.02.16-.05.09.14.09.15,0,.29.06.43.11.31.11.6.29.84.51.46.42.71,1.03.54,1.65-.14.51-.8,1.2-1.27.61s-.4-1.52-.14-2.19c.23-.6-.74-.86-.96-.27h0Z"/>
      <path class="cls-1" d="M103.46,56.06s-.02-.03-.02-.05c-.06-.12.04.11,0,0-.04-.11-.08-.22-.1-.34,0-.03-.01-.07-.02-.1,0-.01-.01-.12,0-.04s0-.03,0-.04c0-.04,0-.07,0-.11,0-.02,0-.09,0-.11v.06s0-.05,0-.07c0-.04.02-.07.03-.11.03-.09-.05.07.01-.02.02-.03.04-.07.06-.1-.07.09.01,0,.03-.02.07-.09-.08.04.01-.02.03-.02.06-.04.09-.06.02-.02.08-.03-.02,0,.03-.01.07-.02.1-.03s.07-.02.11-.03c.06,0,.05,0-.02,0,.02,0,.05,0,.07,0,.06,0,.12,0,.19,0,.04,0,.07,0,.11,0,.12,0-.11-.02,0,0,.13.03.25.06.38.1.1.03-.1-.06-.02,0,.03.02.06.03.09.04.07.04.13.08.19.12.12.08-.06-.06.04.03.03.03.07.06.1.09.08.07.15.15.22.24-.06-.07,0,0,.02.03.02.03.04.06.07.09.05.08.1.16.14.24s.09.16.12.25c.01.03.03.06.04.08-.05-.11.02.06.03.08.01.04.03.09.04.13,0,.02.02.16.01.05,0,.05,0,.09,0,.14,0,.03-.02.08,0,0,0,.01-.05.15-.01.06-.01.02-.09.12-.02.04-.03.03-.05.06-.09.08.1-.08-.04.01-.06.02-.03.02-.08.03.02,0-.03.01-.06.02-.1.03-.06.02-.12.03-.17.04-.02,0-.05,0-.07.01-.09.02.03,0,.03,0-.04.03-.19.01-.25.01-.04,0-.07,0-.11,0-.03,0-.19,0-.05,0-.07,0-.16-.03-.22-.05-.09-.02-.17-.05-.26-.08-.12-.04.06.04,0,0-.04-.02-.08-.04-.12-.06-.08-.04-.16-.09-.23-.15-.11-.07.07.07-.02-.02-.03-.03-.06-.05-.09-.08s-.06-.06-.08-.09c-.02-.02-.12-.15-.05-.06-.06-.08-.11-.16-.15-.25-.12-.23-.46-.32-.68-.18-.24.15-.31.44-.18.68.41.79,1.24,1.24,2.1,1.32.33.03.7-.01,1.01-.13.52-.21.9-.66.87-1.25-.03-.48-.24-.94-.5-1.34s-.6-.77-1.02-1c-.69-.38-1.7-.43-2.31.13s-.5,1.58-.15,2.28c.12.23.47.32.68.18.24-.15.3-.43.18-.68Z"/>
      <path class="cls-1" d="M107.33,55.81c.39.29.97.22,1.35-.06.44-.32.61-.84.64-1.36.03-.48-.05-.99-.37-1.37s-.85-.48-1.31-.32c-.48.16-.81.53-.98,1s-.13,1.01-.04,1.5c.15.87.56,1.73,1.31,2.23.79.53,2,.51,2.66-.23.18-.2.2-.51,0-.71-.18-.18-.53-.2-.71,0-.04.05-.09.09-.14.14.06-.05-.07.04-.1.06s-.06.03-.08.04c.08-.03,0,0-.01,0-.08.02-.15.04-.23.06.1-.02-.09,0-.11,0-.07,0-.13,0-.2,0-.02,0-.1-.02-.01,0-.03,0-.06-.01-.1-.02-.07-.02-.14-.04-.21-.06-.08-.03.06.03-.02,0-.03-.01-.06-.03-.09-.04-.06-.03-.11-.06-.17-.1,0,0-.08-.06-.13-.11-.06-.06-.12-.12-.17-.18-.06-.07.03.04-.02-.03-.02-.03-.04-.06-.06-.09-.04-.06-.08-.12-.12-.19-.08-.15-.11-.22-.17-.37s-.09-.29-.12-.44c-.04-.17-.06-.3-.07-.43-.03-.3-.02-.59.11-.82.05-.09.09-.14.17-.19.03-.02.06-.03.09-.05.07-.04-.06.02.02,0,.03,0,.06-.02.09-.03.06-.01-.06.01.03,0,.07-.01.05,0,0,0,.03,0,.06.01.09.02-.07-.02,0,0,0,0-.05-.04.01.01.02.02.03.02.05.06.07.1,0,.02.04.14.05.2.01.05.01.09.02.19,0,.09,0,.18,0,.26-.01.13-.04.28-.11.4,0,0-.05.07-.02.04,0,0-.09.09-.06.06.02-.02-.17.07-.09.05-.03,0-.06.02-.09.02.09-.02-.04,0-.06,0,.07,0,0,.01,0,0h.03s-.05-.02-.08-.04c-.22-.16-.56-.04-.68.18-.15.25-.04.52.18.68h0Z"/>
      <path class="cls-1" d="M112.09,50.78c-.66.38-1.18,1.03-1.36,1.78s.06,1.51.81,1.84c.51.22,1.14.21,1.58.5.04.02.07.1.06.04s0,.01-.02.02c-.06.03-.13.13-.19.18-.07.05-.14.09-.21.13-.35.2-.73.33-1.13.4-.27.05-.42.37-.35.62.08.28.35.4.62.35.75-.14,1.75-.5,2.15-1.2.24-.42.15-.91-.19-1.24-.24-.23-.58-.37-.9-.45-.28-.08-.57-.12-.85-.21-.2-.06-.34-.11-.4-.3-.09-.28.07-.65.21-.9.17-.29.41-.52.7-.69.56-.32.05-1.19-.5-.86h0Z"/>
      <path class="cls-1" d="M118.78,51.62l-.04-.02.23.3c.03.12,0,.27-.04.35.03-.05-.09.13-.06.08,0,0,.06-.05.06-.06,0,0-.13.09-.05.04.02-.01.04-.02.05-.04.04-.03.08-.05.12-.08.27-.16.55-.31.83-.45,1.06-.54,2.14-1.03,3.22-1.53.25-.11.31-.47.18-.68-.15-.25-.44-.29-.68-.18-1.17.53-2.35,1.07-3.49,1.66-.25.13-.51.26-.74.43-.36.25-.61.73-.1,1.04.55.33,1.06-.53.5-.86h0Z"/>
      <path class="cls-1" d="M119.74,49.05c.24,2.18.48,4.36.72,6.54.03.27.21.5.5.5.25,0,.53-.23.5-.5-.24-2.18-.48-4.36-.72-6.54-.03-.27-.21-.5-.5-.5-.25,0-.53.23-.5.5h0Z"/>
      <path class="cls-1" d="M124.25,52.99c.06.07,0,0-.02-.03,0-.02-.06-.12-.03-.05s-.02-.06-.02-.08c-.01-.04-.02-.08-.03-.12-.02-.06,0,.05,0,.04,0,0,0-.06,0-.07,0-.04,0-.07,0-.11,0-.04,0-.08,0-.12,0-.02,0-.03,0-.05,0-.08,0,.03,0,.03-.03-.02.08-.36.09-.4.02-.08.05-.16.08-.24.02-.05.07-.14-.01.03.02-.04.04-.08.06-.12.05-.11.11-.21.18-.31.02-.02.04-.05.05-.07.03-.04-.03.04-.03.04,0,0,.03-.04.04-.05.05-.06.1-.11.16-.16.01-.01.03-.02.04-.03.04-.04-.04.03-.04.03,0,0,.08-.05.1-.06.01,0,.03-.02.04-.02.03-.02.02-.03,0,0s-.04.01,0,0c.03,0,.05-.02.08-.02.03,0,.12-.01.05-.01-.08,0,.08,0,.1,0,.09,0-.05-.02.04,0,.06.01.11.03.17.05-.08-.02,0,0,.04.02.05.02.09.05.13.08.02.01.04.03.05.04,0,0-.05-.05-.01,0,.04.04.09.08.13.12.02.02.1.12.05.06.03.04.06.08.08.12.06.1.11.2.16.3-.03-.07.02.07.03.09.02.05.03.09.05.14.03.11.06.22.09.33,0,.02.04.29.06.3-.01,0,0-.12,0-.03,0,.01,0,.03,0,.05,0,.1.03-.07,0-.01,0,.02-.04.11,0,.02s0,0,0,0c0,0-.04.06-.04.07,0,0,.07-.09.04-.05-.01.01-.02.03-.03.04-.04.04-.08.08-.12.12-.06.05.09-.06,0,0-.03.02-.06.04-.08.06-.06.04-.12.07-.18.1-.01,0-.08.03-.08.04,0,0,.1-.04.05-.02-.03,0-.05.02-.07.03-.15.06-.31.1-.47.13-.02,0-.03,0-.05,0-.06.01.13-.01.02,0-.04,0-.08,0-.11,0-.08,0-.16,0-.24,0-.03,0-.09-.02-.13-.01,0,0,.11.02.06,0-.02,0-.05,0-.08-.01-.07-.02-.14-.04-.22-.06-.05-.01.05.02.05.02-.01-.01-.04-.02-.05-.03-.03-.02-.07-.04-.1-.06-.01,0-.02-.02-.03-.02-.05-.03.07.07.03.03-.03-.03-.06-.06-.09-.09-.18-.2-.53-.19-.71,0-.19.21-.19.5,0,.71.55.61,1.51.61,2.23.39.67-.2,1.51-.7,1.42-1.52-.12-1.11-.74-2.41-1.98-2.54-.84-.09-1.46.58-1.77,1.28-.33.77-.48,1.7.1,2.39.17.2.54.19.71,0,.2-.21.18-.49,0-.71Z"/>
      <path class="cls-1" d="M131.73,49.03l3.9-.45-.48-.63c-.82,1.95-2.1,3.69-3.68,5.09-.38.34.02.97.49.84l5.51-1.64c.62-.18.35-1.15-.27-.96l-5.51,1.64.49.84c1.72-1.53,3.04-3.42,3.93-5.54.12-.28-.18-.67-.48-.63l-3.9.45c-.27.03-.5.21-.5.5,0,.25.23.53.5.5h0Z"/>
      <path class="cls-1" d="M132.21,50.72c1.53.02,3.07-.18,4.54-.59.62-.17.36-1.14-.27-.96-1.4.39-2.83.57-4.28.56-.64,0-.64.99,0,1h0Z"/>
      <path class="cls-1" d="M140.12,49.89c.68-.44,1.41-1.04,1.32-1.94-.04-.41-.24-.78-.6-1-.38-.22-.84-.17-1.23.03-.75.38-1.1,1.27-1.09,2.07s.37,1.61.98,2.16c.34.31.73.53,1.17.69.47.17.93.17,1.41.05.63-.15.36-1.11-.27-.96-.25.06-.44.08-.7,0-.24-.07-.44-.16-.66-.31-.41-.27-.73-.67-.86-1.16-.12-.46-.09-1.02.22-1.42.09-.12.3-.27.42-.29-.04,0,.12,0,.08,0,0,0,.03,0,.04.01.08.03-.04-.04.03.01.02.02.04.04.05.05-.03-.03,0,.03,0,.02,0,.02.02.05.02.07.04.14,0-.03,0,.05,0,.02,0,.17,0,.11,0,.03-.05.18-.03.13-.03.06-.07.13-.11.19-.18.24-.45.41-.69.57-.23.15-.32.44-.18.68.13.22.46.33.68.18h0Z"/>
      <path class="cls-1" d="M142.29,47.3c.34,1.19.83,2.34,1.43,3.42.25.44.92.23.93-.25.03-.82-.28-1.59-.34-2.4-.02-.3-.01-.57.06-.83.07-.24.18-.47.36-.61.22-.16.33-.43.18-.68-.13-.21-.47-.34-.68-.18-.66.49-.93,1.25-.93,2.05,0,.9.38,1.75.35,2.65l.93-.25c-.57-1.01-1.01-2.07-1.33-3.18-.18-.62-1.14-.35-.96.27h0Z"/>
      <path class="cls-1" d="M146.73,47.47c0-.06.01-.11.04-.2.01-.04.03-.08.04-.13.03-.09-.05.09.02-.04.04-.07.08-.14.12-.2.02-.02.03-.05.05-.07-.06.09,0,0,.02-.03.06-.07.13-.14.2-.21.02-.02.04-.03.05-.04.01,0,.02-.02.03-.03.07-.06-.09.06,0,0,.12-.08.23-.16.37-.22-.08.03.02,0,.04-.01.04-.01.08-.02.12-.03.04,0,.1,0,.13,0,.14.03.23.1.34.22.13.14.23.31.34.49.22.37.39.76.49,1.18.04.17.07.31.05.5,0-.06-.06.16-.04.12-.05.11-.04.09-.13.17-.06.05.09-.04-.04.02-.03.01-.06.03-.08.05-.12.07.08-.02-.05.02-.03,0-.05.02-.08.03-.06.02-.13.03-.19.04-.09.02.02,0,.03,0-.03,0-.06,0-.09,0-.1,0-.21,0-.31,0,.09.01-.01,0-.03,0-.04-.01-.08-.02-.12-.03s-.08-.02-.12-.04c-.02,0-.16-.06-.09-.03-.08-.03-.15-.07-.23-.12-.04-.03-.09-.05-.13-.08-.01,0-.13-.09-.07-.04-.08-.06-.15-.12-.21-.19-.03-.03-.06-.06-.09-.09,0,0-.1-.12-.05-.06-.06-.08-.12-.17-.17-.26-.02-.03-.03-.06-.05-.09-.05-.09,0,.03-.03-.07s-.06-.19-.08-.29c.01.08,0,0,0-.02,0-.07,0-.13,0-.2.01-.27-.24-.5-.5-.5-.28,0-.49.23-.5.5-.04.97.63,1.86,1.46,2.31.69.37,1.59.47,2.29.04,1.13-.7.67-2.14.18-3.09-.24-.47-.55-.98-1.01-1.26-.49-.3-1.07-.23-1.56.02-.75.39-1.28,1.14-1.35,1.98-.02.27.25.5.5.5.29,0,.48-.23.5-.5Z"/>
    </g>
    <path class="cls-1" d="M42.1,46.9c10.88-8.62,23.34-14.8,36.62-18.74,11.99-3.56,24.38-5.43,36.71-7.33,10.02-1.54,20.07-2.81,30.22-2.99,14.1-.25,28.21,1.45,41.79,5.3,14.08,3.99,27.36,10.26,40.34,16.92,6.22,3.19,12.55,6.31,18.55,9.91s11.03,7.68,14.67,13.42c7.48,11.78,7.94,26.47,5.15,39.78-1.49,7.12-3.82,14.05-6.43,20.84s-5.41,12.96-8.8,19.1c-6.4,11.62-14.7,21.97-24.95,30.42-9.87,8.14-21.22,14.48-33.16,19.04-27.19,10.4-56.91,11.39-85.58,8.36-12.77-1.35-25.87-2.84-38.22-6.49-7.51-2.22-14.61-5.48-21.31-9.52-12.44-7.5-23.84-17.32-32.26-29.21-5.77-8.14-10.06-17.31-12.09-27.11-2.29-11.04-1.6-22.55,1.79-33.29,5.5-17.39,17.5-31.96,31.18-43.67,1.89-1.62,3.83-3.19,5.78-4.74,1.01-.8-.42-2.21-1.41-1.41-12.53,9.97-23.99,21.5-31.67,35.7C3.79,90.84.53,101.52.06,112.51s1.86,22.03,6.53,32.03c7.32,15.66,19.93,28.46,34.04,38.19,4.19,2.89,8.56,5.53,13.11,7.82,10.62,5.33,22.06,8.03,33.74,9.81,29.76,4.53,60.46,6.49,89.95-.87,24.97-6.23,48.86-19.43,64.97-39.84,8.72-11.05,15-23.76,19.92-36.89s9-28.15,6.79-42.72c-.96-6.36-3.1-12.62-6.62-18.03-3.73-5.72-8.97-10.02-14.76-13.54-6.11-3.71-12.59-6.88-18.95-10.14-6.62-3.4-13.3-6.69-20.14-9.63-13.8-5.95-28.15-10.17-43.1-11.91-12.39-1.44-24.9-1.18-37.28.25-10.86,1.25-21.73,2.98-32.47,5.02-12.99,2.46-25.79,6.04-37.6,12.09-6.21,3.18-12.05,7.01-17.52,11.34-1.01.8.42,2.21,1.41,1.41Z"/>
    <path class="cls-1" d="M115.7,63.5c-13.05,1.62-25.8,6.48-36.08,14.76-5.65,4.54-10.31,10.03-14.67,15.78-4.77,6.3-9.64,12.52-12.87,19.8-3.4,7.68-4.78,16.15-2.5,24.35,2.07,7.46,6.75,14.07,12.6,19.07,6.57,5.61,14.63,9.05,22.88,11.37,8.98,2.52,18.27,4.02,27.43,5.71,19.32,3.54,39.03,6.49,58.72,4.93,17.21-1.36,34.42-6.18,48.81-15.95,6.74-4.57,13.48-10.29,15.93-18.36,1.32-4.35,1.36-9.03.88-13.51-.43-3.97-1.3-7.88-2.6-11.65-2.61-7.58-6.83-14.55-12.1-20.57-2.58-2.94-5.41-5.66-8.47-8.1-1.25-1-2.49-1.9-3.9-2.65-3.65-1.95-7.55-3.46-11.4-4.97-6.64-2.61-13.35-5.05-20.06-7.49-8.31-3.02-16.59-6.24-25.09-8.69-8-2.3-16.28-3.68-24.59-4.19-4.32-.26-8.64-.14-12.93.37-1.26.15-1.28,2.15,0,2,8.17-.97,16.4-.37,24.5.93s16.24,3.83,24.12,6.64,15.9,5.72,23.82,8.66c5.18,1.92,10.36,3.85,15.44,6.03,2.66,1.14,5.46,2.29,7.78,4.06,6.1,4.66,11.38,10.46,15.43,16.97s6.98,14.04,7.96,21.77c.55,4.37.64,8.93-.52,13.21-1.07,3.96-3.33,7.43-6.14,10.38-5.69,5.98-13.16,10.49-20.59,13.97-7.6,3.56-15.7,5.99-23.94,7.52-18.29,3.4-37.08,2.09-55.36-.68-9.55-1.45-19.04-3.26-28.52-5.09-8.57-1.66-17.25-3.5-25.2-7.2-7.11-3.31-13.48-8.15-17.99-14.63s-6.77-14.18-5.84-22.07c.98-8.39,5.2-16.06,9.98-22.87,1.93-2.75,4.02-5.38,6.05-8.06,1.9-2.5,3.84-4.97,5.93-7.31,4.54-5.09,9.74-9.59,15.63-13.05,4.8-2.82,9.98-5,15.3-6.6,3.97-1.2,8.05-2.08,12.17-2.59,1.26-.16,1.28-2.16,0-2Z"/>
    <g>
      <path class="cls-1" d="M34.16,85.54c-.82-2.23-1.64-4.46-2.46-6.69-.08-.21-.34-.38-.55-.22-5.91,4.27-11.23,9.33-15.75,15.06-1.23,1.56-2.56,3.15-3.18,5.06-.07.22.12.49.36.47l15.55-1.02-.27-.64c-3.36,3.55-6.47,7.34-9.31,11.32-.21.29.13.6.42.55,7.18-1.33,14.36-2.67,21.53-4,.15-.03.29-.21.28-.36-.16-2.01-.68-3.93-1.58-5.74-.21-.43-.86-.05-.65.38.83,1.68,1.33,3.49,1.47,5.36l.28-.36c-7.18,1.33-14.36,2.67-21.53,4l.42.55c2.8-3.93,5.87-7.66,9.19-11.17.21-.22.07-.66-.27-.64l-15.55,1.02.36.47c.71-2.17,2.38-4.01,3.81-5.75s2.92-3.42,4.49-5.03c3.16-3.26,6.61-6.23,10.29-8.89l-.55-.22c.82,2.23,1.64,4.46,2.46,6.69.17.45.89.26.72-.2h0Z"/>
      <path class="cls-1" d="M42.93,74.64c.26,2.34.77,4.65,1.55,6.88.16.45.88.26.72-.2-.75-2.16-1.27-4.4-1.52-6.68-.05-.47-.8-.48-.75,0h0Z"/>
      <path class="cls-1" d="M40.6,88.16c1.9-1.1,3.88-2.07,5.93-2.88.99-.39,1.99-.73,3-1.06.82-.27,1.61-.59,2.19-1.25.32-.36-.21-.89-.53-.53-.66.76-1.65.99-2.57,1.29s-1.92.67-2.85,1.06c-1.91.78-3.76,1.69-5.55,2.72-.42.24-.04.89.38.65h0Z"/>
      <path class="cls-1" d="M45.75,92.36c1.05,2.4,1.91,4.87,2.6,7.4l.69-.29c-.7-1.49-1.13-3.1-1.24-4.75-.05-.79-.06-1.62.07-2.4.1-.6.33-1.55.97-1.8.72-.29,1.33.67,1.65,1.16.41.63.74,1.32.99,2.03.51,1.4.77,2.88,1.03,4.34.08.47.81.27.72-.2-.25-1.39-.5-2.78-.95-4.12-.42-1.22-1.01-2.63-2.01-3.5s-2.13-.53-2.71.58c-.64,1.24-.61,2.81-.5,4.17.14,1.69.6,3.33,1.32,4.87.18.39.79.11.69-.29-.7-2.59-1.6-5.12-2.68-7.58-.19-.44-.84-.06-.65.38h0Z"/>
    </g>
    <g>
      <path class="cls-1" d="M97.16,132.88c-.92-3.1-1-6.36-.21-9.5.09-.35-.26-.55-.55-.42-6.76,2.86-13.38,6.05-19.83,9.56-.27.14-.22.49,0,.65,4.36,3.1,9.32,5.31,14.55,6.47l-.17-.63c-3.98,3.79-7.97,7.57-11.95,11.36-.24.23-.05.63.27.64,6.74.14,13.48.29,20.22.43.27,0,.4-.24.36-.47-.31-2.05-.62-4.09-.93-6.14-.07-.48-.79-.27-.72.2.31,2.05.62,4.09.93,6.14l.36-.47c-6.74-.14-13.48-.29-20.22-.43l.27.64c3.98-3.79,7.97-7.57,11.95-11.36.2-.19.11-.57-.17-.63-5.17-1.15-10.06-3.32-14.37-6.39v.65c6.45-3.51,13.07-6.7,19.83-9.56l-.55-.42c-.82,3.26-.75,6.68.21,9.9.14.46.86.26.72-.2h0Z"/>
      <path class="cls-1" d="M105.61,134.81c3.91-1.73,8.02-2.95,12.23-3.66.47-.08.27-.8-.2-.72-4.28.72-8.44,1.98-12.41,3.73-.44.19-.06.84.38.65h0Z"/>
      <path class="cls-1" d="M108.84,140.44c1.13-.69,2.95-1.72,4.11-.53.8.82.7,2.2.39,3.21-.83,2.72-3.31,4.75-5.42,6.48-.24.2-.05.68.27.64,2.73-.33,5.46-.67,8.2-1,.56-.07,1.2-.07,1.75-.23.31-.09.6-.35.53-.7-.13-.67-1.27-.42-.95.29.2.44.85.06.65-.38l-.03-.05v.38c.18-.3-.8-.19-.91-.18-.21.03-.42.05-.63.08-.42.05-.84.1-1.26.15-.81.1-1.61.2-2.42.3-1.65.2-3.29.4-4.94.61l.27.64c2.4-1.96,5.39-4.46,5.81-7.74.16-1.22-.1-2.63-1.2-3.34-1.49-.97-3.28-.06-4.61.75-.41.25-.04.9.38.65h0Z"/>
      <path class="cls-1" d="M115.8,136.42l.86,4.99.72-.2c-.84-2.38-.14-5.13,1.75-6.81h-.53c1.43,1.83,2.11,4.17,1.94,6.48-.04.48.71.48.75,0,.19-2.52-.6-5.02-2.16-7.01-.13-.17-.39-.12-.53,0-2.07,1.84-2.87,4.93-1.95,7.54.16.46.8.27.72-.2l-.86-4.99c-.08-.47-.8-.27-.72.2h0Z"/>
      <path class="cls-1" d="M109.21,121.18c-.03,2.4.54,4.76,1.64,6.89.22.43.87.05.65-.38-1.04-2.01-1.56-4.25-1.54-6.51,0-.48-.74-.48-.75,0h0Z"/>
    </g>
    <g>
      <path class="cls-1" d="M178.66,126.55l-2.82-12.74c-.06-.29-.43-.35-.63-.17-6.41,5.95-12.83,11.9-19.24,17.85-.17.16-.14.48.08.59,3.07,1.5,6.47.44,9.72.55.84.03,1.7.13,2.5.41.56.2.98.56.55,1.15-.28.39-.68.72-1.02,1.06-1.24,1.19-2.56,2.3-3.87,3.43s-2.53,2.22-3.66,3.45c-.56.61-1.1,1.25-1.59,1.92-.4.54-1.04,1.26-1,1.98.04.64.6.89,1.17.96.98.12,1.99.1,2.97.02,2.01-.15,4-.57,5.98-.91,4.6-.8,9.29-.95,13.93-.46.21.02.37-.19.38-.38.06-2.21,0-4.42-.19-6.62-.04-.48-.79-.48-.75,0,.18,2.2.25,4.41.19,6.62l.38-.38c-4.01-.43-8.06-.38-12.06.16-1.98.27-3.94.7-5.92.99-1.04.15-2.09.26-3.15.28-.48,0-.97,0-1.45-.05-.16-.01-.51,0-.63-.12-.24-.23.04-.61.17-.81,1.83-2.91,4.58-5.11,7.14-7.32.64-.55,1.27-1.11,1.9-1.68.58-.54,1.24-1.08,1.71-1.72.38-.52.51-1.19.05-1.7s-1.24-.68-1.87-.82c-3.66-.77-7.7,1.05-11.19-.65l.08.59c6.41-5.95,12.83-11.9,19.24-17.85l-.63-.17,2.82,12.74c.1.47.83.27.72-.2h0Z"/>
      <path class="cls-1" d="M192.07,109.86c-1.4-.1-1.62,1.48-1.48,2.52.21,1.57.5,3.13.84,4.67s.69,3.21,1.25,4.71c.13.34.43.73.84.54.32-.15.33-.6.08-.82-.12-.11-.31-.15-.45-.06l-.05.03c-.41.25-.04.9.38.65l.05-.03-.45-.06c.32-.18.41-.4.26-.66-.03-.11-.07-.22-.1-.33-.08-.25-.15-.51-.22-.76-.12-.44-.24-.87-.36-1.31-.25-.95-.47-1.91-.67-2.87s-.38-1.93-.53-2.9c-.1-.65-.6-2.65.61-2.57.48.03.48-.72,0-.75h0Z"/>
      <path class="cls-1" d="M184.73,129.73c6.02-2.26,12.38-3.53,18.81-3.76.48-.02.48-.77,0-.75-6.49.23-12.92,1.5-19.01,3.78-.45.17-.25.89.2.72h0Z"/>
      <path class="cls-1" d="M189.33,134.51c.28,3.27.88,6.51,1.79,9.66.11.39.79.33.74-.1-.23-2.02-.21-4.08.13-6.09.21-1.24.5-3.48,2.05-3.75,1.69-.3,2.71,1.92,3.11,3.19.57,1.82.66,3.76.25,5.63-.1.47.62.67.72.2.36-1.65.37-3.34.02-4.99-.31-1.44-.86-2.98-1.98-3.99-.96-.86-2.33-1.13-3.36-.24s-1.32,2.46-1.53,3.75c-.34,2.08-.39,4.19-.15,6.29l.74-.1c-.89-3.09-1.49-6.26-1.76-9.46-.04-.48-.79-.48-.75,0h0Z"/>
      <path class="cls-1" d="M203.17,128.76c-.13,3.02-.04,6.04.26,9.05.05.48.8.48.75,0-.3-3.01-.39-6.03-.26-9.05.02-.48-.73-.48-.75,0h0Z"/>
      <path class="cls-1" d="M203.1,143.58s.04.06.06.1c0,.02.02.03.03.05.03.06-.03-.09,0-.02.01.04.02.07.03.11,0,.02.02.13.01.06s0,0,0,.02c0,.02,0,.04,0,.06,0,.03,0,.07,0,.1,0,.07,0,0,0-.02,0,.02,0,.04,0,.06,0,.04-.02.07-.03.11s-.03.07-.04.11c0-.02.04-.08.01-.03,0,.02-.02.03-.03.05-.02.03-.03.06-.05.09-.01.02-.02.03-.03.05.06-.09.03-.04.01-.02-.02.03-.05.06-.08.08-.01.01-.03.02-.04.04.06-.07.05-.04.02-.01s-.06.04-.1.06c-.01,0-.07.03,0,0,.07-.03-.01,0-.03,0l.42.55c.11-.2.21-.4.32-.61.05-.1.1-.2.15-.3.06-.12.13-.23.16-.36.05-.19-.06-.42-.26-.46s-.41.06-.46.26c0,0-.03.08,0,.04.02-.05-.01.02-.02.03-.02.05-.05.09-.07.14-.05.1-.1.2-.15.3-.1.19-.2.38-.3.58-.07.14-.07.29.03.42.09.11.25.18.39.13.43-.15.75-.5.88-.93.13-.39.08-.87-.17-1.21-.06-.08-.12-.14-.22-.17-.09-.02-.21-.01-.29.04-.16.1-.26.34-.13.51h0Z"/>
    </g>
    <g>
      <path class="cls-1" d="M26.53,14.3c-.92-2.27-1.61-4.62-2.07-7.03-.06-.31-.43-.32-.63-.17-3.58,2.82-6.89,5.96-9.89,9.38-.73.84-1.44,1.69-2.13,2.56-.32.4-.64.8-.95,1.21-.27.36-.58.75-.55,1.23.13,1.82,3.18.75,4.14.62,1.22-.16,2.45-.21,3.68-.14.53.03,3.48.08,2.65,1.18-.29.38-.77.69-1.14,1-.45.37-.92.73-1.39,1.08-.86.64-1.73,1.25-2.59,1.89-1.65,1.21-3.28,2.47-4.65,3.99-.49.55-1.28,1.31-1.12,2.13s1.01.93,1.7.87c5.56-.46,11.02-1.96,16.63-1.14.21.03.51-.09.47-.36-.24-2.1-.24-4.23.05-6.33.06-.47-.66-.68-.72-.2-.29,2.17-.33,4.35-.07,6.53l.47-.36c-4.54-.66-9.07.07-13.58.7-1.14.16-2.33.4-3.49.43-.2,0-.57.02-.7-.19-.17-.27.17-.69.32-.89.32-.42.68-.8,1.05-1.18,1.41-1.45,3.04-2.65,4.68-3.84.84-.61,1.68-1.21,2.5-1.83.73-.56,1.58-1.12,2.16-1.83.44-.54.47-1.25-.09-1.71-.62-.52-1.57-.54-2.34-.61-2.23-.21-4.37.03-6.55.45-.32.06-.81.14-1.12-.03-.56-.31.35-1.21.58-1.51.66-.85,1.34-1.68,2.03-2.49,3.15-3.69,6.66-7.06,10.47-10.06l-.63-.17c.45,2.41,1.14,4.76,2.07,7.03.18.44.91.25.72-.2h0Z"/>
      <path class="cls-1" d="M31.02,12.59c1.23-.13,2.46-.16,3.7-.05.64.05,1.28.14,1.91.26.22.04.61.05.81.19.47.34.22.7-.07,1.03-1.31,1.49-3.44,1.89-5.11,2.81-.54.3-1.15,1-.42,1.49.38.26.97.27,1.41.36.64.12,1.28.25,1.93.37,1.08.21,2.45.27,3.13,1.27.58.85.65,1.98.39,2.95-.65,2.44-3.25,3.6-5.59,3.01-.47-.12-.67.61-.2.72,2.12.53,4.5-.13,5.79-1.97,1.13-1.61,1.36-4.33-.28-5.71-.94-.79-2.36-.86-3.52-1.09-.68-.13-1.37-.26-2.05-.39-.28-.05-.74,0-.37-.27.25-.18.56-.3.84-.42,1.02-.48,2.1-.85,3.08-1.42.8-.46,1.92-1.21,2.09-2.2.25-1.38-1.68-1.49-2.59-1.62-1.62-.23-3.24-.25-4.87-.08-.48.05-.48.8,0,.75h0Z"/>
    </g>
    <g>
      <path class="cls-1" d="M249.33,9.88c-.6-3.03-.98-6.09-1.13-9.17-.01-.26-.32-.5-.56-.32-5.69,4.13-11.19,8.51-16.5,13.12-.2.18-.11.58.17.63,2.04.35,4.09.7,6.13,1.05.98.17,1.96.33,2.94.5.57.1,1.9.21,1.86,1.03l.19-.32c-4.09,2.46-7.93,5.33-11.45,8.56-.22.2-.09.54.17.63,2.9,1.04,5.93.18,8.87-.18,3.26-.4,6.57-.23,9.77.47.22.05.5-.11.47-.36-.16-1.85-.18-3.7-.07-5.55.03-.48-.72-.48-.75,0-.11,1.85-.08,3.7.07,5.55l.47-.36c-3.12-.68-6.32-.88-9.5-.55s-6.17,1.33-9.15.26l.17.63c1.81-1.66,3.69-3.23,5.66-4.69.91-.67,1.83-1.32,2.77-1.95.5-.33,1.01-.66,1.52-.98.25-.16.51-.32.77-.48.19-.12.51-.24.66-.41.45-.55-.24-1.3-.7-1.56-.84-.47-1.9-.51-2.83-.67-2.61-.45-5.23-.89-7.84-1.34l.17.63c5.26-4.57,10.71-8.91,16.35-13.01l-.56-.32c.15,3.15.54,6.28,1.15,9.37.09.47.82.27.72-.2h0Z"/>
      <path class="cls-1" d="M255.18,9.41c2.24-.03,4.65-.25,6.8.5.63.22,1.23.54,1.49,1.19.18.44.19.94.14,1.41-.09.9-.42,1.77-.89,2.54-1.85,3.08-5.33,5.21-8.61,6.42-.31.11-.4.65,0,.72,1.73.31,3.41-.07,5.11-.37s3.38.11,5.09.43c.47.09.67-.63.2-.72-1.55-.29-3.09-.71-4.68-.55-1.86.19-3.63.83-5.52.49v.72c2.92-1.08,5.66-2.74,7.76-5.06,1.09-1.21,2-2.63,2.24-4.26.12-.77.1-1.61-.28-2.32-.41-.76-1.17-1.15-1.96-1.41-2.21-.71-4.61-.52-6.9-.49-.48,0-.48.76,0,.75h0Z"/>
      <path class="cls-1" d="M266.57,4.83c.17,2.34.24,4.69.21,7.04,0,.49.7.47.75,0,.16-1.35-.14-2.7,0-4.05s.92-2.4,2.22-2.69c.29-.06.69-.12.95.06.29.2.38.63.46.95.18.69.23,1.4.2,2.11-.06,1.54-.49,3.03-.92,4.5-.13.46.59.66.72.2.39-1.35.77-2.7.9-4.1.07-.69.07-1.39-.03-2.08-.08-.59-.2-1.24-.51-1.75-.64-1.03-2.08-.73-2.97-.21-1.02.6-1.6,1.64-1.76,2.79-.2,1.42.13,2.86-.04,4.28h.75c.03-2.35-.03-4.7-.21-7.04-.04-.48-.79-.48-.75,0h0Z"/>
    </g>
    <g>
      <path class="cls-1" d="M250.41,182.19l-.73-9.18c-.02-.25-.32-.51-.56-.32-6.42,4.82-12.29,10.34-17.48,16.46-.19.22-.09.67.27.64,2.41-.23,4.84-.31,7.26-.22,1.21.05,2.42.12,3.62.26.53.06,1.58.2.99.95-.29.36-.85.62-1.23.88-3.21,2.15-6.61,4.29-8.63,7.68-.11.18-.04.41.13.51,1.1.67,2.36.65,3.6.47,1.57-.23,3.11-.52,4.7-.6,3.18-.16,6.36.21,9.43,1.09.25.07.46-.12.47-.36.12-2.12.42-4.21.89-6.28.11-.47-.61-.67-.72-.2-.49,2.13-.8,4.3-.92,6.48l.47-.36c-2.9-.83-5.92-1.22-8.93-1.14-1.47.04-2.92.19-4.37.45s-2.95.61-4.24-.18l.13.51c1.85-3.11,4.93-5.12,7.87-7.09.8-.53,3.19-1.71,2.03-2.97-.49-.54-1.36-.56-2.03-.62-1.04-.1-2.09-.17-3.14-.22-2.46-.1-4.93-.02-7.38.21l.27.64c5.15-6.07,10.97-11.56,17.33-16.34l-.56-.32.73,9.18c.04.48.79.48.75,0h0Z"/>
      <path class="cls-1" d="M259.32,178.28c-2.48,2.39-3.16,6.12-3.61,9.4-.24,1.75-.26,3.59.49,5.23.62,1.35,1.74,2.45,3.19,2.83.47.12.67-.6.2-.72-3.5-.93-3.5-5.23-3.02-8.07s1.09-6.02,3.27-8.13c.35-.34-.18-.87-.53-.53h0Z"/>
      <path class="cls-1" d="M259.88,187.05c1.52.31,3.07.3,4.58-.04.47-.1.27-.83-.2-.72-1.37.3-2.8.31-4.18.04-.47-.1-.67.63-.2.72h0Z"/>
      <path class="cls-1" d="M268.1,182.49c-.11,2.06-.22,4.11-.33,6.17-.05.99-.16,2-.16,2.99,0,.31.06.64.38.77.28.11.54,0,.7-.24.26-.41-.39-.78-.65-.38l-.05.07.22-.17c.22-.07.15-.22.16-.42l.04-.65.06-1.12.13-2.34.25-4.67c.03-.48-.72-.48-.75,0h0Z"/>
      <path class="cls-1" d="M268.86,179.13c1.86,2.47,3.07,5.42,3.4,8.51.28,2.69.07,6.95-3.35,7.46-.48.07-.27.79.2.72,3.52-.53,4.15-4.65,3.96-7.55-.23-3.44-1.48-6.77-3.55-9.52-.29-.38-.94,0-.65.38h0Z"/>
      <path class="cls-1" d="M273.82,176.05l.43,7.23c.03.48.76.49.75,0-.03-2.47-.07-5.14,1.14-7.38.11-.21.27-.59.5-.69.28-.13.5.15.64.36.35.51.56,1.14.74,1.73.39,1.27.5,2.59.36,3.9-.05.48.7.48.75,0,.13-1.21.05-2.43-.24-3.6-.15-.58-.35-1.14-.59-1.69-.2-.46-.43-.94-.85-1.25-1.96-1.44-2.92,3.45-3.06,4.54-.17,1.35-.16,2.72-.15,4.08h.75l-.43-7.23c-.03-.48-.78-.48-.75,0h0Z"/>
    </g>
    <g>
      <path class="cls-1" d="M228.72,64.35l-.07-5.47c0-.24-.24-.43-.47-.36-6.52,1.89-12.86,4.37-18.94,7.41-.27.13-.22.5,0,.65,3.96,2.57,7.91,5.14,11.87,7.71l-.08-.59c-3.48,3.13-6.95,6.26-10.43,9.39-.26.23-.04.62.27.64,5.7.41,11.41.73,17.13.97.15,0,.34-.12.36-.28.3-1.99.6-3.99.9-5.98.07-.47-.65-.68-.72-.2-.3,1.99-.6,3.99-.9,5.98l.36-.28c-5.71-.24-11.42-.56-17.13-.97l.27.64c3.48-3.13,6.95-6.26,10.43-9.39.19-.17.12-.46-.08-.59-3.96-2.57-7.91-5.14-11.87-7.71v.65c6.02-3.01,12.3-5.46,18.76-7.33l-.47-.36.07,5.47c0,.48.76.48.75,0h0Z"/>
      <path class="cls-1" d="M241.84,56.01c-.33,2.33-.24,4.68.29,6.97.11.47.83.27.72-.2-.49-2.15-.6-4.39-.29-6.57.07-.47-.66-.68-.72-.2h0Z"/>
      <path class="cls-1" d="M233.09,70.23c2.64-.66,5.31-1.24,7.99-1.74,1.32-.24,2.64-.46,3.97-.66.69-.1,1.38-.2,2.08-.29.36-.05.73-.09,1.09-.14.16-.02.32-.04.48-.06.08,0,.16-.02.24-.03.16.02.18-.05.07-.21l.19-.32h.05c.12.09.24.18.36.27l-.02-.06c-.17-.44-.9-.25-.72.2l.02.06c.06.15.19.28.36.28.35-.01.66-.33.48-.69-.26-.51-1.1-.24-1.51-.19-1.69.21-3.37.45-5.05.72-3.45.57-6.88,1.28-10.27,2.13-.47.12-.27.84.2.72h0Z"/>
      <path class="cls-1" d="M234.15,73.86c-.42,3.21-.55,6.44-.4,9.67.02.48.77.48.75,0-.16-3.23-.03-6.47.4-9.67.06-.48-.69-.47-.75,0h0Z"/>
      <path class="cls-1" d="M236.85,76.76v4.54h.75c-.02-.83.09-1.65.34-2.45.12-.38.27-.75.45-1.1.08-.16.26-.66.5-.61.25.06.38.61.44.8.12.38.2.78.24,1.18.07.84-.04,1.68-.32,2.48-.16.46.56.65.72.2.53-1.47.52-3.22-.14-4.65-.29-.63-1.02-1.06-1.61-.51-.26.24-.42.6-.57.91-.17.35-.32.72-.43,1.09-.27.85-.39,1.75-.37,2.65.01.48.75.48.75,0v-4.54c0-.48-.75-.48-.75,0h0Z"/>
      <path class="cls-1" d="M243.74,71.59c-1.46,1.92-2.37,4.2-2.66,6.6-.13,1.11-.22,2.37.22,3.43.39.93,1.27,1.66,2.32,1.55.48-.05.48-.8,0-.75-2.42.24-1.93-3.65-1.66-5.05.38-1.97,1.22-3.8,2.42-5.39.29-.38-.36-.76-.65-.38h0Z"/>
      <path class="cls-1" d="M245.41,74.83c-.22,2.04-.29,4.1-.22,6.15.02.48.72.48.75,0,.05-.95.11-1.91.35-2.85.12-.46.27-.92.5-1.34.12-.21.56-1.09.88-1,.18.05.26.4.31.55.09.26.17.52.24.78.14.52.25,1.05.33,1.59.17,1.13.17,2.28.05,3.41-.05.48.7.48.75,0,.15-1.38.09-2.78-.17-4.15-.13-.66-.29-1.33-.52-1.96-.17-.45-.44-.95-.98-.97s-.95.49-1.24.9c-.32.46-.56.97-.73,1.5-.37,1.14-.45,2.35-.51,3.54h.75c-.07-2.05,0-4.11.22-6.15.05-.48-.7-.48-.75,0h0Z"/>
      <path class="cls-1" d="M250.13,70.98c1.46,1.81,2.39,4.07,2.51,6.4s-.71,4.7-2.94,5.65c-.44.19-.06.83.38.65,2.38-1.01,3.39-3.63,3.32-6.08-.07-2.62-1.1-5.13-2.74-7.16-.3-.38-.83.16-.53.53h0Z"/>
    </g>
  </g>
</svg>