<?xml version="1.0" encoding="UTF-8"?>
<svg id="Layer_2" data-name="Layer 2" xmlns="http://www.w3.org/2000/svg" viewBox="0 0 260.98 244.97">
  <defs>
    <style>
      .cls-1 {
        fill: #231f20;
      }

      .cls-2 {
        fill: #00aeef;
      }
    </style>
  </defs>
  <g id="Layer_1-2" data-name="Layer 1">
    <path class="cls-1" d="M15.58,38.68c.64-3.83,1.7-7.59,3.16-11.19.74-1.83,1.6-3.61,2.55-5.34.2-.36.38-.81.65-1.13.19-.23.36-.34.52-.06.04.07.05.17.07.25.05.21.09.41.13.62.8,4.07,1.44,8.18,2.13,12.27.27,1.62.54,3.24.81,4.86.1.63,1.07.36.96-.27-.66-3.97-1.32-7.95-2.01-11.91-.32-1.84-.62-3.68-.99-5.51-.19-.93-.82-2.12-1.93-1.36-.72.5-1.12,1.57-1.52,2.32-.49.92-.96,1.86-1.39,2.81-1.95,4.25-3.33,8.75-4.1,13.37-.11.63.86.9.96.27h0Z"/>
    <path class="cls-1" d="M17.25,30.6c2.75-.1,5.51-.17,8.26-.21.64,0,.64-1.01,0-1-2.76.04-5.51.1-8.26.21-.64.02-.64,1.02,0,1h0Z"/>
    <path class="cls-1" d="M30.05,36.39l-2.89,7.17c-.1.25.11.55.35.62.28.08.51-.1.62-.35l2.89-7.17c.1-.25-.11-.55-.35-.62-.28-.08-.51.1-.62.35h0Z"/>
    <path class="cls-1" d="M37.55,35.66l.62-15.07-.75.43c1.02.44,2.04.86,3.04,1.35.9.44,1.61,1.04,1.58,2.12-.06,2.04-2.09,3.1-3.66,3.93-.26.13-.29.45-.18.68.26.56.83.71,1.39.83s1.14.26,1.68.48c1.24.51,2.27,1.5,2.09,2.94-.37,3.05-4.08,4.61-6.78,4.57-.64-.01-.64.99,0,1,3.1.05,6.85-1.68,7.67-4.92.36-1.41-.1-2.82-1.24-3.72-.54-.43-1.16-.72-1.81-.95-.33-.11-.67-.21-1.01-.29s-.96-.08-1.13-.44l-.18.68c1.93-1.01,4.1-2.35,4.16-4.79.02-1.04-.45-1.95-1.29-2.54-1.12-.79-2.57-1.25-3.82-1.79-.35-.15-.74.02-.75.43l-.62,15.07c-.03.64.97.64,1,0h0Z"/>
    <path class="cls-1" d="M47.98,37.4l-4.98,6.82c-.16.22-.04.56.18.68.25.15.53.04.68-.18l4.98-6.82c.16-.22.04-.56-.18-.68-.25-.15-.53-.04-.68.18h0Z"/>
    <path class="cls-1" d="M63.34,20.97c-2.25.27-4.01,2-5.49,3.6-1.57,1.69-2.9,3.59-3.95,5.65-.93,1.84-2.32,4.45-1.06,6.44.88,1.38,2.64,2.07,4.18,2.39,2.16.45,4.37.03,6.35-.9.58-.27.08-1.13-.5-.86-1.43.67-3.02,1.04-4.61.93-1.41-.09-3.23-.62-4.24-1.67-1.5-1.57-.15-4.03.65-5.64.88-1.77,1.98-3.44,3.27-4.94.71-.83,1.48-1.61,2.31-2.34.88-.77,1.89-1.51,3.09-1.65.63-.07.64-1.08,0-1h0Z"/>
    <path class="cls-1" d="M18.05,72.26c.62-4.53,1.9-9.09,3.98-13.17.5-.97,1.07-1.91,1.86-2.67.36-.35.68-.5,1.01-.03.29.42.38.95.51,1.44.59,2.31,1.14,4.64,1.63,6.97.56,2.69,1.06,5.4,1.48,8.12.1.63,1.06.36.96-.27-.43-2.72-.92-5.43-1.48-8.12-.27-1.31-.56-2.61-.87-3.91s-.56-2.62-.98-3.88c-.24-.73-.7-1.59-1.54-1.68-.99-.11-1.75.92-2.27,1.62-1.48,1.96-2.39,4.44-3.2,6.74-.97,2.78-1.65,5.65-2.06,8.57-.09.63.88.9.96.27h0Z"/>
    <path class="cls-1" d="M19.82,66.95l9.34.12c.64,0,.64-.99,0-1l-9.34-.12c-.64,0-.64.99,0,1h0Z"/>
    <path class="cls-1" d="M34.29,69.12c-1.27,2.24-2.33,4.59-3.19,7.02-.21.61.75.87.96.27.82-2.35,1.86-4.61,3.08-6.78.32-.56-.55-1.06-.86-.5h0Z"/>
    <path class="cls-1" d="M44.96,54.27c-2.84,1.84-5.16,4.69-6.09,7.97-.42,1.48-.55,3.17.01,4.63s1.84,2.52,3.38,2.92c2.18.57,4.38-.06,6.55-.3.63-.07.64-1.07,0-1-2.1.23-4.29.89-6.38.31s-2.96-2.25-2.93-4.25c.07-3.81,2.87-7.43,5.95-9.43.54-.35.04-1.21-.5-.86h0Z"/>
    <path class="cls-1" d="M54.59,68.61c-1.24,2.61-2.35,5.28-3.32,7.99-.22.61.75.87.96.27.94-2.64,2.02-5.22,3.22-7.76.27-.58-.59-1.09-.86-.5h0Z"/>
    <path class="cls-1" d="M59.24,69.62c-.07-4.3-.25-8.61-.22-12.91,0-.31-.02-.58.29-.76.16-.09.39-.11.57-.15.55-.1,1.11-.17,1.67-.2.94-.05,1.94-.07,2.86.14.72.16,1.57.5,1.72,1.32.15.88-.46,1.88-.9,2.59-1.02,1.64-2.53,2.89-4.3,3.66-.51.22-.18.89.25.93,2.2.22,6.89-1.08,6.85,2.58-.04,3.19-3.95,3.92-6.41,4-.64.02-.64,1.02,0,1,1.79-.06,3.67-.27,5.2-1.29,1.26-.84,2.2-2.16,2.21-3.71s-.87-2.84-2.32-3.36c-1.79-.65-3.69-.04-5.53-.22l.25.93c1.86-.8,3.45-2.15,4.55-3.85.99-1.53,1.92-3.79.02-5.02-.74-.48-1.65-.62-2.51-.69-1.25-.09-2.52-.02-3.76.2-1.01.18-1.68.61-1.72,1.7-.05,1.34.04,2.7.07,4.04l.15,9.06c.01.64,1.01.64,1,0h0Z"/>
    <path class="cls-1" d="M27.58,87.02c-3.34,1.15-6.82,3.3-8.76,6.34-.92,1.44-1.36,3.29-.7,4.93.63,1.55,2.1,2.5,3.61,3.05,2.02.74,4.27.75,6.32.13.61-.19.35-1.15-.27-.96-2.06.63-4.34.56-6.31-.34-1.85-.84-3.04-2.46-2.55-4.55.45-1.93,2.02-3.44,3.51-4.65,1.61-1.31,3.46-2.31,5.42-2.98.61-.21.35-1.17-.27-.96h0Z"/>
    <path class="cls-1" d="M31.87,98.43c-.97,3.38-2.36,6.61-4.15,9.63-.33.55.54,1.06.86.5,1.83-3.09,3.26-6.41,4.25-9.87.18-.62-.79-.88-.96-.27h0Z"/>
    <path class="cls-1" d="M38.17,100.94c.29-2.49.76-4.96,1.4-7.39.32-1.23.68-2.44,1.09-3.64.2-.57.4-1.15.68-1.69.21-.41.57-1.36,1.07-.77.64.75.66,2.06.82,2.98.22,1.26.43,2.53.65,3.79.44,2.57.88,5.13,1.31,7.7.11.63,1.07.36.96-.27-.4-2.32-.79-4.64-1.19-6.97-.2-1.18-.4-2.36-.6-3.54-.17-1.01-.28-2.07-.56-3.06-.2-.72-.59-1.51-1.32-1.82-.87-.37-1.41.41-1.8,1.07-1.06,1.82-1.59,4.04-2.11,6.07-.64,2.48-1.1,4.99-1.4,7.54-.08.64.93.63,1,0h0Z"/>
    <path class="cls-1" d="M40.53,96.67c2.03-.39,4.13-.15,6.04.64.25.1.55-.11.62-.35.08-.29-.1-.51-.35-.62-2.08-.86-4.37-1.06-6.57-.64-.63.12-.36,1.08.27.96h0Z"/>
    <path class="cls-1" d="M51.62,99.13c-.92,2.17-1.89,4.31-2.92,6.43-.28.58.58,1.08.86.5,1.03-2.12,2-4.26,2.92-6.43.11-.25.07-.53-.18-.68-.21-.12-.58-.07-.68.18h0Z"/>
    <path class="cls-1" d="M56.58,98.28l-.93-10.45-.11-1.24-.07-.75c-.01-.12-.1-.47-.05-.58.17-.35,1.77-.32,2.19-.34.84-.04,1.68-.02,2.52.06.66.06,1.61.1,1.96.77.59,1.13-.38,2.91-.94,3.87-.72,1.24-1.7,2.25-2.85,3.09-.43.31-.89.69-.85,1.28s.52.88,1.05,1c1.18.25,2.39.29,3.32,1.18,1.16,1.11.71,2.8-.32,3.82-1.21,1.21-3.07,1.48-4.69,1.76-.63.11-.36,1.07.27.96,1.64-.28,3.38-.6,4.72-1.66,1.06-.84,1.84-2.19,1.71-3.57s-1.07-2.33-2.25-2.85c-.61-.28-1.26-.44-1.93-.54-.19-.03-.87,0-.84-.26.02-.2.74-.57.88-.68,1.26-.99,2.3-2.27,3-3.71.57-1.18,1.21-2.75.64-4.04-.65-1.46-2.62-1.45-3.98-1.49-.96-.03-1.92.01-2.87.14-.62.08-1.53.09-1.72.84-.12.45.03,1,.07,1.45l.15,1.74.29,3.23.62,6.97c.06.64,1.06.64,1,0h0Z"/>
    <path class="cls-1" d="M24.45,117.55c-3.6-.36-6.5,2.47-7.98,5.48-.74,1.5-1.02,3.2-.13,4.69s2.4,2.33,3.94,2.87c1.93.67,4.01.78,6.04.85.64.02.64-.98,0-1-1.91-.06-3.85-.17-5.68-.78-1.71-.57-3.77-1.83-3.88-3.85-.09-1.85,1.3-3.82,2.51-5.11,1.35-1.43,3.17-2.36,5.18-2.16.64.06.64-.94,0-1h0Z"/>
    <path class="cls-1" d="M30.49,127.95c-.76,3.12-1.79,6.16-3.09,9.09-.26.58.6,1.09.86.5,1.34-3.01,2.41-6.13,3.19-9.33.15-.63-.81-.89-.96-.27h0Z"/>
    <path class="cls-1" d="M37.4,128.49l-.16-6.17-.08-3.09-.04-1.6c0-.15-.1-.65-.02-.74,0-.01.34-.07.47-.08.99-.11,1.98-.22,2.97-.32.19-.02,1.32-.26,1.44-.11.15.19-.16.79-.26.96-.66,1.2-1.88,1.97-2.51,3.2-.13.25-.06.53.18.68,1.11.73,2.51.7,3.62,1.41,1.01.64,1.9,1.85,1.53,3.1s-1.71,2-2.81,2.57c-1.33.7-2.74,1.21-4.2,1.58-.62.16-.36,1.12.27.96,1.68-.42,3.31-1.05,4.83-1.89,1.25-.69,2.61-1.65,2.92-3.14.29-1.37-.38-2.72-1.42-3.59-.54-.46-1.15-.8-1.82-1.02-.82-.27-1.68-.37-2.42-.86l.18.68c.76-1.46,2.44-2.37,2.85-4.03.2-.81.01-1.67-.98-1.68-1.23,0-2.53.27-3.76.4-.89.1-2.05-.02-2.09,1.15-.04,1.27.07,2.56.1,3.83l.21,7.78c.02.64,1.02.64,1,0h0Z"/>
    <path class="cls-1" d="M47,130.72c-1.41,1.72-2.62,3.59-3.61,5.58-.29.57.58,1.08.86.5.95-1.91,2.11-3.72,3.46-5.38.17-.21.2-.5,0-.71-.18-.18-.54-.21-.71,0h0Z"/>
    <path class="cls-1" d="M53.21,132.01c.23-4.47,1.22-8.89,2.91-13.03.21-.52.44-1.04.68-1.55.16-.34.45-1.22.97-1.05.39.13.63.82.77,1.15.22.5.4,1.03.55,1.55.59,2,.81,4.07,1.09,6.13.31,2.28.7,4.53,1.65,6.64.26.59,1.13.08.86-.5-1.94-4.3-1.33-9.24-3-13.62-.32-.84-.72-2.04-1.69-2.33s-1.61.56-1.97,1.32c-1.06,2.23-1.9,4.57-2.53,6.96-.72,2.72-1.14,5.52-1.29,8.33-.03.64.97.64,1,0h0Z"/>
    <path class="cls-1" d="M53.38,126.62c2.09-.1,4.19-.11,6.29-.05.64.02.64-.98,0-1-2.1-.06-4.19-.05-6.29.05-.64.03-.64,1.03,0,1h0Z"/>
    <path class="cls-1" d="M17.5,162.61c.1-4.17.2-8.35.27-12.52,0-.46.02-.91.02-1.37,0-.11-.02-.25,0-.35.05-.25.02-.2.36-.26,1.43-.24,2.88-.39,4.33-.47.55-.03,1.28-.16,1.79.11.59.31.62,1.07.41,1.62-.46,1.21-1.81,2.2-2.77,3-1.11.92-2.3,1.74-3.55,2.46-.31.18-.34.7,0,.86,1.43.7,2.93.37,4.45.53,1.42.15,2.96,1.34,2.55,2.93-.33,1.29-1.82,2.32-2.95,2.85s-2.36.72-3.58.7c-.64,0-.64.99,0,1,1.47.02,2.95-.26,4.26-.93s2.83-1.87,3.23-3.36c.42-1.57-.56-3.13-1.97-3.8-1.74-.83-3.78.05-5.48-.78v.86c1.23-.71,2.4-1.51,3.5-2.41,1.04-.84,2.21-1.78,2.94-2.93.61-.96.75-2.31-.11-3.17-.95-.95-2.74-.56-3.92-.45-.73.06-1.46.15-2.18.24-.59.08-1.5.04-1.98.45-.38.33-.32.82-.32,1.27,0,1.5-.05,3.01-.08,4.51-.07,3.14-.14,6.27-.21,9.41-.02.64.98.64,1,0h0Z"/>
    <path class="cls-1" d="M30.04,159.74c-1.56,2.04-2.98,4.17-4.26,6.39-.32.56.54,1.06.86.5,1.28-2.22,2.71-4.36,4.26-6.39.17-.22.03-.56-.18-.68-.26-.15-.52-.03-.68.18h0Z"/>
    <path class="cls-1" d="M41.74,147.03c-3.05,1.76-5.56,4.44-7.06,7.63-.75,1.6-1.6,3.62-.93,5.38.56,1.46,2,2.31,3.45,2.71,2.15.59,4.52.42,6.62-.28.61-.2.35-1.17-.27-.96-2.09.69-4.5.87-6.6.12-.83-.3-1.67-.8-2.12-1.59-.57-1.02-.3-2.22.05-3.27,1.25-3.73,3.95-6.92,7.35-8.88.56-.32.05-1.19-.5-.86h0Z"/>
    <path class="cls-1" d="M47.62,160.55c-1.36,2.54-2.69,5.1-3.99,7.67-.29.57.57,1.08.86.5,1.31-2.57,2.64-5.12,3.99-7.67.3-.57-.56-1.07-.86-.5h0Z"/>
    <path class="cls-1" d="M52.43,163.66c.38-3.88,1.27-7.7,2.64-11.35.35-.92.72-1.82,1.13-2.71.08-.18.43-1.25.78-1.07.11.06.18.48.21.59.08.27.16.54.23.81.56,1.97,1.07,3.96,1.51,5.95.51,2.27.94,4.56,1.3,6.87.1.63,1.06.36.96-.27-.37-2.38-.82-4.75-1.35-7.1s-1.03-4.62-1.79-6.84c-.24-.7-.82-1.41-1.63-1.02s-1.14,1.65-1.46,2.41c-.88,2.02-1.61,4.1-2.18,6.23-.66,2.46-1.11,4.97-1.35,7.51-.06.64.94.64,1,0h0Z"/>
    <path class="cls-1" d="M54.01,157.57c2.2-.71,4.55-.86,6.82-.39.63.13.9-.84.27-.96-2.44-.5-4.98-.38-7.35.39-.61.2-.35,1.16.27.96h0Z"/>
    <path class="cls-1" d="M19.7,189.79c-.46-2.29-.52-4.6-.39-6.93s.3-4.64.5-6.95c.03-.34.04-.59.36-.76.19-.1.45-.09.66-.11.59-.05,1.19-.09,1.78-.12,1.11-.06,2.26-.15,3.37-.1,2.1.11-.25,3.83-.81,4.64-1.28,1.84-2.96,3.35-4.6,4.85-.28.25-.13.74.22.84,1.32.35,2.47-.22,3.76-.34.51-.05,1.1-.03,1.54.25.59.37.62,1.11.52,1.74-.33,2.17-2.32,3.91-4.49,4.01-.64.03-.64,1.03,0,1,2.69-.11,5.11-2.22,5.48-4.91.19-1.36-.31-2.63-1.73-2.98-1.64-.42-3.22.71-4.82.29l.22.84c1.72-1.55,3.44-3.14,4.76-5.05.66-.95,1.21-1.99,1.58-3.09.26-.8.43-1.85-.21-2.53-.79-.82-2.35-.52-3.36-.49-1.25.04-2.57.03-3.81.26-1.32.24-1.39,1.28-1.47,2.42-.1,1.4-.21,2.79-.31,4.19-.23,3.14-.34,6.23.28,9.34.13.63,1.09.36.96-.27h0Z"/>
    <path class="cls-1" d="M31.33,188.49c-1.83,2.52-3.5,5.16-5.01,7.89-.31.56.55,1.07.86.5,1.51-2.73,3.18-5.36,5.01-7.89.38-.52-.49-1.02-.86-.5h0Z"/>
    <path class="cls-1" d="M35.17,191.66c-.24-2.97.83-5.85,1.85-8.59.53-1.43,1.1-2.84,1.72-4.23.27-.61.55-1.21.83-1.82.15-.32.3-.64.46-.95.05-.09.11-.26.18-.35-.08-.18-.08-.16.01.04l.04.15c.36,1.39.5,2.87.73,4.29.26,1.66.52,3.32.77,4.98.32,2.14.81,4.17,1.69,6.16.26.59,1.12.08.86-.5-1.58-3.59-1.84-7.66-2.45-11.49-.14-.88-.29-1.77-.44-2.65-.11-.63-.14-1.65-.78-1.98-1.2-.63-1.84,1.61-2.18,2.33-.64,1.39-1.25,2.8-1.81,4.22-1.29,3.26-2.77,6.81-2.48,10.39.05.64,1.05.64,1,0h0Z"/>
    <path class="cls-1" d="M36.38,185.95c1.86-.53,3.82-.69,5.73-.41.27.04.54-.07.62-.35.06-.23-.08-.58-.35-.62-2.1-.3-4.22-.17-6.26.41-.62.18-.35,1.14.27.96h0Z"/>
    <path class="cls-1" d="M46.49,190.6l-2.38,5.01c-.12.24-.07.54.18.68.22.13.57.07.68-.18l2.38-5.01c.12-.24.07-.54-.18-.68-.22-.13-.57-.07-.68.18h0Z"/>
    <path class="cls-1" d="M57.5,176.23c-3.6.21-5.59,4.57-6.37,7.58s-.98,7.32,2.77,8.14c2.28.5,4.68.07,6.95-.29.63-.1.36-1.07-.27-.96-2.14.35-4.57.82-6.71.22-1.89-.53-2.3-2.47-2.2-4.21.11-2.05.72-4.09,1.69-5.89.85-1.59,2.16-3.47,4.13-3.58.64-.04.64-1.04,0-1h0Z"/>
    <path class="cls-1" d="M107.91,32.77c-.3-2.73-.36-5.48-.17-8.21.1-1.38.26-2.76.5-4.13.2-1.15.3-2.69,1.1-3.61.71-.83,1.9-.99,2.92-1.06s2.13-.19,3.03.27c2.32,1.19-.41,4.69-1.44,5.85-1.77,2-3.98,3.53-6.17,5.03-.3.21-.34.66,0,.86.99.58,2.12.58,3.23.52,1.05-.06,2.47-.31,3.3.52,1.02,1.02.38,2.74-.46,3.66-.95,1.04-2.3,1.59-3.7,1.54-.64-.02-.64.98,0,1,1.56.05,3.1-.54,4.22-1.63s1.79-2.69,1.31-4.18c-1.09-3.38-5.17-.98-7.4-2.29v.86c2.25-1.55,4.55-3.13,6.37-5.19,1.37-1.56,3.6-4.46,2.16-6.6-.65-.97-1.84-1.24-2.94-1.28-1.18-.04-2.5.01-3.62.42s-1.91,1.23-2.3,2.38c-.47,1.37-.64,2.89-.83,4.32-.48,3.63-.52,7.3-.11,10.94.07.63,1.07.64,1,0h0Z"/>
    <path class="cls-1" d="M117.84,34.61c-1.62,2.39-3.14,4.86-4.54,7.39-.31.56.55,1.07.86.5,1.4-2.53,2.91-5,4.54-7.39.36-.53-.5-1.04-.86-.5h0Z"/>
    <path class="cls-1" d="M130.78,16.86c-2.96,1.46-5.4,3.94-6.8,6.93-1.22,2.59-2.19,6.79,1.18,8.22,2.06.87,4.26.1,6.39.07.64-.01.64-1.01,0-1-2.02.04-4.37.91-6.27-.11s-1.6-3.35-1.07-5.05c1.12-3.56,3.74-6.54,7.07-8.19.58-.29.07-1.15-.5-.86h0Z"/>
    <path class="cls-1" d="M136.27,30.33l-4.19,8.38c-.29.57.58,1.08.86.5l4.19-8.38c.29-.57-.58-1.08-.86-.5h0Z"/>
    <path class="cls-1" d="M142.29,33.88c.21-5.18.42-10.36.62-15.55,0-.19.01-.37.02-.56,0-.05,0-.13,0-.18.12-.35.56-.14.89-.09.88.15,1.75.34,2.62.57.81.22,1.68.47,2.32,1.05,1.08.99,1.13,2.63,1.08,4-.05,1.25-.27,2.5-.66,3.69-1.06,3.18-3.42,5.6-6.43,7-.58.27-.08,1.13.5.86,2.9-1.35,5.25-3.64,6.51-6.59.58-1.36.91-2.8,1.04-4.28s.11-2.96-.52-4.27c-.77-1.6-2.44-2.16-4.05-2.56-.98-.24-1.99-.48-3-.59-.74-.08-1.23.33-1.29,1.08-.13,1.48-.12,2.98-.18,4.47-.16,3.97-.32,7.95-.48,11.92-.03.64.97.64,1,0h0Z"/>
    <path class="cls-1" d="M106.8,65.59c-.85-4.98-.98-10.07-.38-15.09.04-.31.07-.63.12-.94.05-.34.11-.52.46-.6.55-.13,1.32,0,1.89.03,1.26.05,2.53.15,3.78.31.99.13,2.25.17,3.12.72,1.17.74.05,1.91-.59,2.6-1.71,1.85-3.73,3.37-5.97,4.53-.29.15-.32.57-.1.79,1,1.02,2.42,1.01,3.73,1.28.7.15,1.42.4,1.77,1.07.41.78.23,1.77-.05,2.56-1.03,2.93-4.37,4.81-7.4,4.26-.63-.11-.9.85-.27.96,3.48.63,7.17-1.34,8.51-4.64.65-1.59.7-3.71-.95-4.7-1.4-.84-3.45-.31-4.63-1.51l-.1.79c2.34-1.21,4.47-2.82,6.25-4.76.74-.81,1.67-1.84,1.25-3.03-.34-.94-1.39-1.37-2.29-1.57-1.38-.3-2.82-.44-4.22-.55-.77-.06-1.55-.11-2.32-.13-.62-.02-1.36-.13-1.96.08-1.11.39-.99,2.1-1.1,3.04-.16,1.52-.26,3.04-.29,4.56-.07,3.42.2,6.83.77,10.19.11.63,1.07.36.96-.27h0Z"/>
    <path class="cls-1" d="M120.31,64.98c-2.63,2.66-4.88,5.69-6.66,8.99-.31.57.56,1.07.86.5,1.74-3.23,3.93-6.18,6.5-8.79.45-.46-.25-1.17-.71-.71h0Z"/>
    <path class="cls-1" d="M127.65,66.24c-.25-1.38-.03-2.8.1-4.18s.26-2.87.38-4.3.25-2.79.37-4.18c.03-.3,0-.7.09-.98.11-.33-.04-.21.26-.28.12-.03.25-.01.37-.02.57,0,1.14.05,1.7.18,2.16.5,4.07,1.93,5.02,3.95s.93,4.72-.24,6.75c-1.25,2.17-3.63,3.57-6.12,3.66-.64.02-.64,1.02,0,1,2.54-.09,4.95-1.34,6.48-3.38s1.99-5,1.17-7.51-2.78-4.37-5.22-5.2c-1.07-.36-2.59-.69-3.71-.36-.58.17-.64.7-.69,1.22-.09.9-.16,1.8-.24,2.7-.17,1.88-.34,3.77-.5,5.65s-.49,3.72-.16,5.55c.11.63,1.08.36.96-.27h0Z"/>
    <path class="cls-1" d="M139.26,66.4l-4.05,6.11c-.36.54.51,1.04.86.5l4.05-6.11c.36-.54-.51-1.04-.86-.5h0Z"/>
    <path class="cls-1" d="M152.08,51.37c-2.79,1.93-5.35,4.41-6.72,7.56-.67,1.54-1.12,3.3-.9,4.99s1.28,3.06,2.78,3.82c1.94.99,4.17.84,6.24.4.63-.13.36-1.1-.27-.96-2.06.44-4.39.58-6.18-.73s-1.85-3.53-1.32-5.52c.98-3.68,3.81-6.58,6.86-8.69.53-.36.03-1.23-.5-.86h0Z"/>
    <path class="cls-1" d="M106.28,96.62l-.88-9.66-.2-2.23c-.04-.41-.08-.83-.11-1.24-.03-.3-.16-.76.18-.91.23-.1.73.04.97.07.42.05.84.12,1.26.19.77.13,1.54.3,2.29.49,1.42.36,2.88.79,4.2,1.43s2.12,1.65,2.42,3.06c.56,2.67-.92,5.79-2.6,7.8-2.04,2.45-5.1,3.69-8.27,3.33-.64-.07-.63.93,0,1,3.12.36,6.26-.77,8.44-3.02s3.78-5.52,3.51-8.57c-.13-1.42-.71-2.82-1.83-3.73-1.24-1.01-2.97-1.5-4.48-1.95-1.62-.48-3.28-.82-4.95-1.03-.58-.07-1.25-.19-1.74.21-.57.47-.45,1.23-.39,1.88l1.17,12.88c.06.64,1.06.64,1,0h0Z"/>
    <path class="cls-1" d="M117.06,99.27c-1.15,1.92-2.42,3.77-3.8,5.53-.17.21-.21.5,0,.71.17.17.54.21.71,0,1.43-1.83,2.76-3.74,3.95-5.73.33-.55-.53-1.06-.86-.5h0Z"/>
    <path class="cls-1" d="M127.06,97.11c-.13-2.29-.21-4.59-.24-6.89-.01-1.15-.01-2.3,0-3.44,0-.57.02-1.15.03-1.72,0-.27-.07-.74.03-.98.09-.23.02-.23.33-.28,1.58-.29,5.06-.12,4.75,2.29-.13,1.03-.93,1.81-1.67,2.45s-1.45,1.23-2.02,2.02c-.17.24,0,.69.3.73,1.39.19,2.8.45,4.14.87.67.21,1.13.55,1.23,1.28.08.62-.07,1.26-.34,1.82-1.21,2.46-4.14,3.04-6.59,3.45-.63.11-.36,1.07.27.96,2.93-.49,6.35-1.4,7.45-4.53.43-1.24.33-2.84-.89-3.58-.67-.4-1.51-.56-2.26-.73-.91-.21-1.83-.38-2.75-.5l.3.73c1.08-1.51,2.93-2.29,3.63-4.11.62-1.61-.25-3.18-1.77-3.84-.87-.38-1.82-.44-2.75-.4-.7.03-1.81-.04-2.21.68-.17.31-.15.71-.16,1.05-.02.57-.03,1.15-.04,1.72-.02,1.11-.03,2.21-.02,3.32.01,2.54.1,5.08.24,7.62.04.64,1.04.64,1,0h0Z"/>
    <path class="cls-1" d="M137.51,98.31c-1.61,2.09-3.08,4.29-4.41,6.57-.33.56.54,1.06.86.5,1.33-2.28,2.81-4.47,4.41-6.57.17-.22.03-.56-.18-.68-.26-.15-.52-.03-.68.18h0Z"/>
    <path class="cls-1" d="M150.36,84.11c-3.52.85-5.74,4.08-6.46,7.47-.2.94-.3,1.89-.34,2.85s-.03,1.98.35,2.89c.66,1.58,2.37,2.4,3.91,2.9,2.1.68,4.37.71,6.5.15.62-.16.36-1.13-.27-.96-2.11.55-4.34.46-6.39-.29-.93-.34-1.97-.84-2.56-1.67s-.59-2-.55-3.01c.15-3.91,1.87-8.34,6.06-9.36.63-.15.36-1.12-.27-.96h0Z"/>
    <path class="cls-1" d="M106.12,130.46l-.88-7.91-.44-3.96c-.04-.4-.41-1.75.04-1.94.2-.09.62.04.82.08.34.06.68.12,1.02.19,2.06.44,4.87,1.07,5.68,3.3.38,1.05.35,2.22.26,3.32s-.31,2.34-.85,3.38c-1.14,2.17-3.55,3.14-5.85,3.53-.63.11-.36,1.07.27.96,2.33-.39,4.7-1.38,6.08-3.38.74-1.07,1.09-2.35,1.26-3.62s.26-2.68-.06-3.97c-.65-2.66-3.21-3.65-5.62-4.27-.71-.18-1.43-.33-2.15-.44-.51-.08-1.09-.17-1.56.12s-.54.77-.5,1.26c.06.82.18,1.65.27,2.47l1.21,10.88c.07.63,1.07.64,1,0h0Z"/>
    <path class="cls-1" d="M115.09,128.57c-1.34,2.47-2.68,4.94-4.02,7.41-.31.57.56,1.07.86.5l4.02-7.41c.31-.57-.56-1.07-.86-.5h0Z"/>
    <path class="cls-1" d="M128.04,118.45c-1.43,1.32-2.69,2.81-3.74,4.44-.98,1.53-2.07,3.37-1.99,5.25.07,1.68,1.19,3.07,2.69,3.75,1.81.83,3.87.54,5.69-.08.61-.21.35-1.17-.27-.96-1.62.56-3.48.89-5.08.11-1.45-.71-2.27-2.11-1.96-3.72s1.24-3.05,2.14-4.36,2.02-2.59,3.23-3.71c.47-.44-.23-1.14-.71-.71h0Z"/>
    <path class="cls-1" d="M136.3,130.15c-1.59,2.94-3.1,5.92-4.52,8.94-.27.58.59,1.09.86.5,1.42-3.02,2.93-6,4.52-8.94.31-.57-.56-1.07-.86-.5h0Z"/>
    <path class="cls-1" d="M144.31,130.93c-.15-4-.73-7.97-1.73-11.84l-.35.62c1.06-.28,2.13-.42,3.23-.38.75.02,2.65-.02,2.89.91.23.88-.58,1.64-1.17,2.15-.54.46-1.51,1.11-1.57,1.9-.07.92,1.14,1.05,1.8,1.22.98.25,2.03.47,2.84,1.11,1.76,1.4.53,3.54-.76,4.79-1.42,1.38-3.28,2.23-5.07,3.04-.59.27-.08,1.13.5.86,1.81-.82,3.67-1.69,5.14-3.07,1.38-1.29,2.8-3.48,1.72-5.37-.46-.8-1.25-1.36-2.08-1.71-.51-.22-1.05-.37-1.59-.51-.3-.08-.59-.15-.89-.23-.15-.04-.3-.08-.44-.13-.29-.09-.17.02-.02-.15,1.04-1.22,3.48-2.6,2.39-4.58-.56-1.01-1.97-1.1-3-1.2-1.41-.13-2.83.01-4.19.38-.26.07-.42.35-.35.62.98,3.79,1.55,7.66,1.7,11.57.02.64,1.02.64,1,0h0Z"/>
    <path class="cls-1" d="M113.35,144.55c-3.74.34-7.17,2.43-9.24,5.55-1.03,1.55-2.06,3.73-1.67,5.63s2.13,2.81,3.78,3.28c2.62.73,5.42.7,8.11.69.64,0,.64-1,0-1-2.14,0-4.3.01-6.42-.35-1.51-.26-3.52-.71-4.28-2.22-.81-1.58.26-3.78,1.1-5.15s2.05-2.63,3.42-3.56c1.55-1.04,3.34-1.71,5.2-1.88.64-.06.64-1.06,0-1h0Z"/>
    <path class="cls-1" d="M117.53,160.06c-1.68,2.09-2.98,4.44-3.85,6.98-.21.61.76.87.96.27.81-2.36,2.03-4.59,3.59-6.54.17-.21.2-.5,0-.71-.17-.18-.54-.21-.71,0h0Z"/>
    <path class="cls-1" d="M125.54,159.51l.05.05-.13-.49-.03.09.35-.35-.09.03.49.13c-.1-.1-.1-.63-.12-.76-.04-.32-.08-.64-.12-.96-.08-.65-.15-1.29-.22-1.94-.12-1.26-.22-2.51-.28-3.77-.06-1.1-.22-2.29-.06-3.38.05-.33.15-.81.49-.97.47-.23,1.32.28,1.72.5.95.54,1.76,1.3,2.54,2.07s1.51,1.58,2.08,2.51.98,2.08.84,3.21c-.15,1.23-1,2.07-1.98,2.73-1.5,1-3.22,1.65-4.93,2.15-.62.18-.35,1.15.27.96,1.91-.56,3.86-1.29,5.48-2.47,1.02-.74,1.88-1.68,2.12-2.96s-.07-2.5-.63-3.61c-.59-1.17-1.47-2.17-2.39-3.1s-1.9-1.85-3.06-2.47c-.9-.48-2.15-.97-2.96-.08-.7.77-.62,1.98-.59,2.94.05,1.79.16,3.58.33,5.36.08.89.18,1.78.3,2.67.08.63,0,1.6.49,2.06.12.12.32.19.49.13.26-.09.37-.21.47-.47.06-.16-.01-.37-.13-.49l-.05-.05c-.46-.45-1.17.25-.71.71h0Z"/>
    <path class="cls-1" d="M135.8,160.96c-1.21,2.06-2.55,4.04-4.04,5.91-.17.21-.21.5,0,.71.17.17.54.21.71,0,1.54-1.94,2.94-3.98,4.19-6.12.33-.56-.54-1.06-.86-.5h0Z"/>
    <path class="cls-1" d="M145.99,161.42c-.52-3.28-.89-6.59-1.11-9.9-.05-.68-.14-1.39-.06-2.08.1-.84.55-1.3,1.37-1.47,1.35-.29,3.16-.21,4.38.49,1.4.81.16,2.59-.59,3.41-.39.43-.81.83-1.21,1.25s-.9.88-1.09,1.42c-.4,1.13,1.15,1.53,1.92,1.83.5.19,1.03.38,1.45.73.63.53.69,1.33.44,2.07-.94,2.81-4.49,3.84-7.01,4.59-.62.18-.35,1.15.27.96,2.7-.81,5.83-1.82,7.32-4.42.68-1.2.85-2.77-.2-3.81-.45-.44-1.03-.71-1.61-.94-.26-.11-.53-.2-.79-.31-.17-.07-.34-.14-.5-.22-.1-.05-.2-.1-.29-.15-.07-.06-.05-.12.06-.18.07-.28.55-.66.74-.87.21-.22.43-.44.64-.66.53-.54,1.06-1.1,1.46-1.75.68-1.12.97-2.7-.19-3.61s-3.16-1.09-4.6-.94-2.75.75-2.96,2.39c-.12.91,0,1.84.07,2.75.08,1.07.17,2.13.27,3.19.22,2.17.5,4.33.84,6.49.1.63,1.06.36.96-.27h0Z"/>
    <path class="cls-1" d="M109.01,174.16c-3.07.36-5.48,2.66-6.69,5.41-.67,1.51-1.11,3.3-.6,4.92.46,1.48,1.66,2.51,3.06,3.06,2.01.78,4.21.43,6.28.1.63-.1.36-1.07-.27-.96-1.98.32-4.16.68-6.04-.23-1.77-.85-2.5-2.56-2.15-4.47.57-3.15,3.07-6.43,6.42-6.83.63-.07.64-1.08,0-1h0Z"/>
    <path class="cls-1" d="M117.28,185.61c-1.76,2.42-3.27,5.01-4.51,7.73-.27.58.6,1.09.86.5,1.24-2.72,2.75-5.31,4.51-7.73.38-.52-.49-1.02-.86-.5h0Z"/>
    <path class="cls-1" d="M126.51,188.92c0-3.32,0-6.65-.04-9.97,0-.92-.02-1.83-.05-2.75,0-.23-.02-.45-.03-.68,0-.11-.04-.23-.02-.34.07-.55.9-.52,1.31-.57.96-.12,1.92-.16,2.89-.13s1.98.01,2.85.35,1.03,1.1.74,1.9c-.3.84-1.03,1.48-1.75,1.97-.67.46-1.39.83-2.1,1.22-.55.31-1.3.77-.99,1.52.27.62,1.16.72,1.72.88.85.24,1.73.44,2.55.77.74.29,1.61.83,1.41,1.76s-1.27,1.63-2.01,2.15c-1.72,1.2-3.58,2.17-5.56,2.88-.6.22-.34,1.18.27.96,1.95-.7,3.81-1.62,5.52-2.79,1.29-.88,3.27-2.23,2.72-4.08-.47-1.6-2.48-1.99-3.86-2.39-.48-.14-.96-.27-1.43-.41.07.02-.37-.1-.37-.11.01.08-.04.1.09,0,.21-.16.47-.28.71-.41.83-.46,1.67-.91,2.42-1.5,1.19-.95,2.4-2.72,1.49-4.26-.41-.69-1.17-1.02-1.93-1.16-1.06-.2-2.15-.24-3.23-.23s-2.14.07-3.17.28c-.77.16-1.31.67-1.31,1.49,0,.65.06,1.3.07,1.95.07,3.9.06,7.81.06,11.72,0,.64,1,.64,1,0h0Z"/>
    <path class="cls-1" d="M138.29,187.59l-3.12,3.95c-.51.65-1.02,1.29-1.53,1.94-.43.56-.83,1.14-.82,1.88.01.64,1.01.64,1,0s.55-1.19.92-1.67l1.4-1.78,2.85-3.61c.17-.21.2-.5,0-.71-.17-.18-.54-.21-.71,0h0Z"/>
    <path class="cls-1" d="M145.54,189.11c-.52-2.8-.79-5.63-.79-8.48,0-1.3-.03-2.68.19-3.96.09-.53.27-1.11.78-1.37.56-.29,1.31-.12,1.86.09,2.38.91,3.32,3.55,3.79,5.83.43,2.08.65,4.69-.83,6.44-1.58,1.87-4.35,2.13-6.44,3.15-.58.28-.07,1.14.5.86,2.2-1.08,4.97-1.35,6.65-3.31s1.59-4.79,1.13-7.19c-.51-2.62-1.61-5.48-4.24-6.62-1.03-.45-2.42-.65-3.33.17-.97.88-.95,2.4-1.01,3.6-.19,3.7.09,7.42.77,11.06.12.63,1.08.36.96-.27h0Z"/>
    <path class="cls-1" d="M197.81,15.51c-3.57,1.99-7.14,4.34-9.45,7.79-1.1,1.65-2.1,3.73-1.68,5.76.38,1.9,2.1,3.12,3.89,3.57,2.68.69,5.46-.01,8.07-.7.62-.16.36-1.13-.27-.96-2.09.55-4.24,1.12-6.42.9-1.74-.17-3.79-1.01-4.26-2.87s.63-3.86,1.65-5.35,2.32-2.75,3.72-3.87c1.64-1.3,3.43-2.39,5.26-3.4.56-.31.06-1.18-.5-.86h0Z"/>
    <path class="cls-1" d="M202.37,34.09c-1.84,2.16-3.45,4.5-4.82,6.98-.31.56.55,1.07.86.5,1.33-2.41,2.89-4.68,4.67-6.78.41-.49-.29-1.2-.71-.71h0Z"/>
    <path class="cls-1" d="M209.77,32.17c.32-2.76.25-5.54.05-8.31-.1-1.39-.23-2.78-.34-4.17-.06-.65-.11-1.31-.16-1.96-.01-.19-.16-.78.09-.87.19-.08.57.21.72.3,3.85,2.56,6.79,7.6,5.06,12.24-.84,2.26-2.95,4.08-5.39,4.3-.64.06-.64,1.06,0,1,2.43-.22,4.58-1.7,5.79-3.81,1.38-2.41,1.38-5.45.42-8s-2.76-4.61-4.89-6.23c-.67-.51-1.91-1.31-2.61-.38-.4.54-.2,1.33-.15,1.94.07.9.15,1.8.23,2.69.32,3.74.62,7.51.19,11.25-.07.64.93.63,1,0h0Z"/>
    <path class="cls-1" d="M220.32,33.05c-1.43,2.17-3,4.25-4.71,6.22-.42.48.28,1.19.71.71,1.76-2.03,3.39-4.18,4.87-6.42.35-.54-.51-1.04-.86-.5h0Z"/>
    <path class="cls-1" d="M232.37,18.2c-1.73,5.37-3.44,10.79-3.92,16.44-.03.38.45.62.75.43,1.61-.99,3.33-1.79,5.13-2.37.87-.28,1.75-.51,2.64-.69.43-.09.86-.16,1.29-.22.4-.06.81-.03,1.09-.34.16-.17.18-.4.08-.61-.08-.18-.22-.27-.41-.31-.22-.05-.45.03-.56.23l-.03.05c-.33.55.53,1.06.86.5l.03-.05-.56.23.08.02-.3-.23.03.07.08-.61c-.06.06-.33.04-.44.05-.25.03-.51.07-.76.11-.43.07-.86.16-1.29.25-.89.2-1.77.45-2.63.75-1.7.59-3.32,1.36-4.85,2.3l.75.43c.47-5.56,2.18-10.9,3.88-16.18.2-.61-.77-.88-.96-.27h0Z"/>
    <path class="cls-1" d="M232.03,24.65c2.14.16,4.3.2,6.44.12.64-.02.64-1.02,0-1-2.15.08-4.3.04-6.44-.12-.64-.05-.64.95,0,1h0Z"/>
    <path class="cls-1" d="M233.12,18.61c2.71-.66,5.47-.99,8.25-1,.64,0,.64-1,0-1-2.87,0-5.73.36-8.52,1.03-.63.15-.36,1.12.27.96h0Z"/>
    <path class="cls-1" d="M194.23,53.76c-3.23,1.5-5.43,4.43-7.24,7.39-.93,1.52-2.01,3.14-1.46,4.99.51,1.73,1.99,2.89,3.64,3.47,2.14.75,4.56.74,6.77.33.63-.12.36-1.08-.27-.96-2.22.41-4.83.4-6.9-.61-.96-.47-1.79-1.21-2.19-2.22s-.13-2.06.4-3.02c1.85-3.34,4.18-6.86,7.75-8.51.58-.27.08-1.13-.5-.86h0Z"/>
    <path class="cls-1" d="M200.17,67.99c-1.63,2.95-3.34,5.85-5.14,8.71-.34.55.52,1.05.86.5,1.79-2.85,3.51-5.76,5.14-8.71.31-.56-.55-1.07-.86-.5h0Z"/>
    <path class="cls-1" d="M211.02,56.82c-1.5,3.85-2.46,7.89-2.85,12-.06.61-.36,1.86.55,2.02.73.13,1.62-.63,2.19-1.01.81-.54,1.62-1.07,2.54-1.41,1.01-.36,2.06-.51,3.13-.47.64.02.64-.98,0-1-1.42-.05-2.83.22-4.13.81-.63.28-1.21.65-1.78,1.03-.3.2-.59.4-.9.59-.18.11-.73.52-.93.45l.3.23c-.14-.19-.01-.67,0-.88.02-.23.04-.46.07-.7.06-.57.13-1.15.21-1.72.16-1.11.37-2.22.62-3.32.49-2.16,1.14-4.28,1.95-6.34.23-.6-.73-.86-.96-.27h0Z"/>
    <path class="cls-1" d="M210.77,62.46c1.8-.04,3.59-.34,5.31-.91.61-.2.35-1.17-.27-.96-1.63.54-3.32.84-5.04.88-.64.01-.64,1.01,0,1h0Z"/>
    <path class="cls-1" d="M211.9,57.16c2.15.03,4.3-.08,6.44-.32.27-.03.5-.21.5-.5,0-.25-.23-.53-.5-.5-2.14.24-4.29.35-6.44.32-.64,0-.64.99,0,1h0Z"/>
    <path class="cls-1" d="M222.76,67.54c-1.91,2.66-3.57,5.5-4.94,8.48-.27.58.59,1.09.86.5,1.37-2.98,3.03-5.82,4.94-8.48.38-.52-.49-1.02-.86-.5h0Z"/>
    <path class="cls-1" d="M231.34,69.55l.05-7.74.03-3.93c0-.32-.17-1.54.14-1.72.26-.15,1.22.32,1.48.42,3.89,1.53,6.91,5.75,5.25,9.98-.47,1.2-1.35,2.14-2.32,2.96s-2.06,1.76-3.25,2.19c-.6.22-.34,1.19.27.96,1.19-.43,2.21-1.28,3.2-2.06s1.96-1.68,2.6-2.8c1.2-2.09,1.21-4.72.29-6.92s-2.8-3.93-4.94-4.94c-.8-.38-2.26-1.17-3.14-.66-.45.26-.53.74-.55,1.22-.04.82-.01,1.64-.02,2.46-.02,3.52-.05,7.04-.07,10.57,0,.64,1,.64,1,0h0Z"/>
    <path class="cls-1" d="M188.67,87.63h-.07c.16.12.32.24.48.36l-.07.27-.35.15h.08c-.12-.05-.24-.1-.35-.15.03.03-.23,1.11-.26,1.3-.1.53-.2,1.06-.29,1.58-.2,1.1-.41,2.19-.61,3.29-.4,2.15-.8,4.3-1.2,6.45-.19,1.01-.45,2.03-.56,3.05-.08.74.39,1.23,1.14,1.1.8-.14,1.58-.71,2.33-1.04.96-.42,1.94-.79,2.93-1.1s2.09-.6,3.16-.82c.71-.14,1.64-.48,1.41-1.39-.16-.62-1.12-.36-.96.27,0-.03-2.36.54-2.58.6-.91.24-1.8.53-2.68.86s-1.69.67-2.5,1.05c-.2.09-1.02.66-1.23.58-.13-.05,0-.05,0-.22.01-.12.05-.24.07-.37l.16-.85c.77-4.14,1.54-8.28,2.31-12.42.11-.57.23-1.13.32-1.7.05-.3.05-.62-.16-.86-.47-.54-1.24,0-1.06.63.06.22.26.35.48.37h.07c.64.04.64-.96,0-1h0Z"/>
    <path class="cls-1" d="M188.48,95.63l5.16-.26c.64-.03.64-1.03,0-1l-5.16.26c-.64.03-.64,1.03,0,1h0Z"/>
    <path class="cls-1" d="M187.8,89.13c2.53-.62,5.13-.91,7.74-.85.64.01.64-.99,0-1-2.69-.06-5.39.24-8,.89-.62.15-.36,1.12.27.96h0Z"/>
    <path class="cls-1" d="M201.02,102.18c-2.34,2.6-4.27,5.54-5.68,8.74-.26.58.6,1.09.86.5,1.38-3.12,3.24-6.01,5.52-8.54.43-.48-.27-1.19-.71-.71h0Z"/>
    <path class="cls-1" d="M214.72,89.95c-1.76-.39-3.32.67-4.42,1.95-1.23,1.44-2.16,3.15-2.77,4.95s-.8,3.67.27,5.25c.86,1.28,2.28,2.14,3.76,2.5,2.28.56,4.65,0,6.89-.52.63-.15.36-1.11-.27-.96-2.1.5-4.38,1.06-6.53.47-1.63-.44-3.22-1.61-3.56-3.35-.39-2.04.75-4.39,1.8-6.07.92-1.49,2.53-3.71,4.57-3.26.63.14.89-.82.27-.96h0Z"/>
    <path class="cls-1" d="M223.37,101.82l-4.11,7.04c-.33.56.54,1.06.86.5l4.11-7.04c.33-.56-.54-1.06-.86-.5h0Z"/>
    <path class="cls-1" d="M230.72,101.09c-.18-3.16-.27-6.32-.26-9.48,0-.78,0-1.56.02-2.34,0-.37.01-.74.02-1.11,0-.23-.06-.89.17-1.07.39-.31,1.5.39,1.85.58.56.29,1.1.63,1.6,1,2.01,1.49,3.5,3.65,4.01,6.11s0,5.43-1.7,7.47c-.89,1.07-2.05,1.92-3.35,2.42-.66.25-1.35.43-2.05.49-.4.03-1.57.2-1.65-.38-.09-.63-1.05-.36-.96.27.19,1.36,2.16,1.19,3.12,1.05,1.47-.21,2.88-.81,4.07-1.7,2.44-1.82,3.76-4.73,3.73-7.75s-1.39-5.87-3.59-7.92c-1.08-1-2.33-1.81-3.69-2.38-.58-.24-1.28-.51-1.87-.14-.63.39-.66,1.18-.68,1.83-.12,4.35-.04,8.71.21,13.06.04.64,1.04.64,1,0h0Z"/>
    <path class="cls-1" d="M190.44,122.03c-.5.31-.75.78-.91,1.33-.22.77-.34,1.57-.5,2.35-.35,1.72-.66,3.44-.95,5.17-.56,3.42-1,6.86-1.32,10.31-.04.42.44.56.75.43,2.2-.93,4.4-1.86,6.69-2.53,1.1-.33,2.22-.59,3.36-.77.82-.13,1.91-.04,2.38-.87.32-.56-.54-1.06-.86-.5-.2.35-.96.3-1.31.34-.5.07-1,.15-1.49.25-1.09.22-2.16.52-3.22.86-2.06.67-4.06,1.52-6.05,2.36l.75.43c.3-3.2.69-6.39,1.2-9.56.25-1.53.52-3.05.81-4.57.16-.8.32-1.6.49-2.39.11-.54.16-1.45.68-1.77s.04-1.2-.5-.86h0Z"/>
    <path class="cls-1" d="M189.26,132.03c2.58-.3,5.16-.6,7.74-.9.63-.07.64-1.07,0-1-2.58.3-5.16.6-7.74.9-.63.07-.64,1.07,0,1h0Z"/>
    <path class="cls-1" d="M190.68,123.29c3.46-.75,7.05-.82,10.54-.2.63.11.9-.85.27-.96-3.68-.65-7.42-.59-11.07.2-.63.14-.36,1.1.27.96h0Z"/>
    <path class="cls-1" d="M205.05,136.19c-1.88,2.3-3.44,4.85-4.6,7.59-.11.25-.07.53.18.68.21.13.58.07.68-.18,1.13-2.65,2.62-5.15,4.44-7.38.4-.49-.3-1.21-.71-.71h0Z"/>
    <path class="cls-1" d="M215.7,136.2c-.18-2.57-.34-5.14-.47-7.71-.06-1.24-.12-2.49-.17-3.73-.02-.62-.05-1.24-.07-1.87,0-.16-.08-.52,0-.68.14-.26,0-.07.17,0,.16.06.33.21.47.3,1.88,1.19,3.65,2.54,4.84,4.46s1.62,4.12.96,6.22-2.76,3.85-5.11,3.72l.43.25-.04-.06.05.39-.04.09-.49.13h.07c.63.13.9-.83.27-.95-.39-.07-.81.15-.8.6.02.65.81.6,1.27.56,1.17-.1,2.27-.56,3.19-1.29,2.14-1.69,2.84-4.52,2.31-7.13s-2.35-4.91-4.48-6.53c-.59-.45-1.22-.86-1.85-1.27-.45-.29-1.01-.77-1.58-.54-.44.17-.62.62-.66,1.06-.08.83.04,1.7.07,2.53.15,3.82.36,7.63.63,11.44.05.64,1.05.64,1,0h0Z"/>
    <path class="cls-1" d="M225.49,137.8c-2.03,2.27-3.87,4.71-5.47,7.29-.34.55.52,1.05.86.5,1.56-2.52,3.34-4.89,5.32-7.09.43-.48-.28-1.19-.71-.71h0Z"/>
    <path class="cls-1" d="M240.53,124.99c-1.79.62-3.08,2.01-4.08,3.57-1.1,1.72-2,3.73-1.92,5.8.07,1.89.94,3.65,2.58,4.64,1.89,1.15,4.16,1.11,6.29,1.05.64-.02.64-1.02,0-1-1.85.06-3.84.14-5.52-.76-1.55-.83-2.34-2.39-2.35-4.12s.77-3.46,1.69-4.94c.87-1.39,1.99-2.72,3.58-3.27.6-.21.34-1.18-.27-.96h0Z"/>
    <path class="cls-1" d="M186.95,165.51l-.58-8.59-.28-4.17-.14-2.09c-.02-.23-.12-.64.07-.8.22-.18.68-.04.93,0,2.32.49,4.13,2.23,5.14,4.31,1.08,2.23,1.58,5.23.92,7.64s-3,4.15-5.52,4.14c-.64,0-.64,1,0,1,2.47.01,4.89-1.41,6.01-3.62,1.29-2.55.89-5.98-.08-8.58s-2.69-4.61-5.2-5.57c-.86-.33-2.54-.86-3.15.18-.31.54-.13,1.3-.09,1.89l.18,2.7.77,11.54c.04.64,1.04.64,1,0h0Z"/>
    <path class="cls-1" d="M199.14,163.97c-1.97,2.49-3.89,5.03-5.76,7.6-.38.52.49,1.02.86.5,1.81-2.51,3.68-4.98,5.6-7.4.4-.5-.31-1.21-.71-.71h0Z"/>
    <path class="cls-1" d="M208.41,153.62c-.67,5.06-1.94,10.01-3.2,14.95-.1.41.36.8.73.56,3.16-1.99,6.79-3.08,10.52-3.16.64-.01.64-1.01,0-1-3.9.08-7.72,1.21-11.03,3.29l.73.56c1.28-5.03,2.55-10.07,3.23-15.22.08-.64-.92-.63-1,0h0Z"/>
    <path class="cls-1" d="M207.96,160.3c2.29-.41,4.59-.83,6.88-1.24.63-.11.36-1.08-.27-.96-2.29.41-4.59.83-6.88,1.24-.63.11-.36,1.08.27.96h0Z"/>
    <path class="cls-1" d="M208.91,153.42l4.01-.43c.61-.07,1.23-.17,1.85-.19.26,0,.83-.04.94.27.22.6,1.18.34.96-.27-.45-1.27-1.99-1.01-3.04-.89l-4.73.5c-.63.07-.64,1.07,0,1h0Z"/>
    <path class="cls-1" d="M221,166.35c-.95,2.32-2.14,4.54-3.52,6.63-.36.54.51,1.04.86.5,1.44-2.16,2.64-4.46,3.62-6.87.1-.25-.11-.55-.35-.62-.29-.08-.51.1-.62.35h0Z"/>
    <path class="cls-1" d="M236.32,154.07c-2.03.4-3.5,2.28-4.61,3.89s-2.21,3.65-2.38,5.66c-.42,5.17,7.15,4.4,10.34,4.01.63-.08.64-1.08,0-1-1.96.24-3.98.51-5.94.17-.9-.15-1.91-.41-2.63-.99s-.87-1.54-.74-2.43c.26-1.75,1.22-3.47,2.21-4.9s2.25-3.08,4.01-3.43c.63-.13.36-1.09-.27-.96h0Z"/>
    <path class="cls-1" d="M188.87,188.14c-.4-.19-.35-.85-.39-1.22-.04-.49-.09-.98-.13-1.47-.1-1.06-.19-2.13-.29-3.19-.19-2.13-.39-4.25-.58-6.38l-.63.48c1.79.48,3.59.97,5.3,1.7s3.39,1.67,4.5,3.13c2.15,2.82.47,6.63-2.38,8.2-1.76.97-3.82,1.21-5.8,1.07-.64-.05-.64.95,0,1,3.72.26,7.9-1,9.55-4.64.71-1.57.87-3.39.16-5-.8-1.82-2.51-3.09-4.23-4-2.15-1.14-4.51-1.79-6.84-2.42-.29-.08-.66.15-.63.48.22,2.45.45,4.91.67,7.36.11,1.23.22,2.45.34,3.68.07.76.09,1.7.88,2.08.58.28,1.09-.58.5-.86h0Z"/>
    <path class="cls-1" d="M200.76,189.43c-1.64,2.61-3.28,5.23-4.91,7.84-.34.55.52,1.05.86.5,1.64-2.61,3.28-5.23,4.91-7.84.34-.55-.52-1.05-.86-.5h0Z"/>
    <path class="cls-1" d="M214.1,178.72c-1.74,1-3.27,2.32-4.49,3.92-1.15,1.5-2.13,3.33-1.8,5.28s2,2.92,3.85,3.35c2.17.51,4.43.47,6.59-.06.62-.15.36-1.12-.27-.96-1.84.45-3.77.52-5.64.15-.85-.17-1.79-.38-2.51-.89-.66-.48-1.01-1.26-1.08-2.06-.15-1.74.94-3.38,2-4.65s2.39-2.37,3.85-3.21c.56-.32.06-1.18-.5-.86h0Z"/>
    <path class="cls-1" d="M221.57,188.31c-1.46,2.95-2.92,5.9-4.38,8.85-.28.57.58,1.08.86.5,1.46-2.95,2.92-5.9,4.38-8.85.28-.57-.58-1.08-.86-.5h0Z"/>
    <path class="cls-1" d="M231.05,180.25c-1.08,2.11-2.16,4.23-3.12,6.4-.47,1.05-.91,2.11-1.3,3.19-.34.91-.84,1.95-.64,2.94.15.75.75,1.4,1.55,1.4.51,0,.97-.27,1.41-.48.51-.24,1.02-.47,1.54-.68,2.13-.86,4.37-1.44,6.65-1.73.63-.08.64-1.08,0-1-1.92.24-3.81.66-5.64,1.29-.9.31-1.78.67-2.64,1.06-.38.17-.89.55-1.32.54-.59-.02-.63-.77-.56-1.19.16-.94.6-1.89.95-2.77.39-.99.81-1.96,1.26-2.93.86-1.87,1.79-3.7,2.73-5.53.29-.57-.57-1.08-.86-.5h0Z"/>
    <path class="cls-1" d="M229.5,182.89c.16.49.57.73,1.06.8.58.08,1.18.05,1.76.05,1.27,0,2.55,0,3.82-.05.64-.02.64-1.02,0-1-1.07.04-2.14.05-3.21.05-.53,0-1.05,0-1.58-.01-.1,0-.84.05-.89-.11-.2-.61-1.16-.35-.96.27h0Z"/>
    <path class="cls-1" d="M231.86,180.74c2.8-1.63,6.15-2.18,9.32-1.52.63.13.9-.83.27-.96-3.44-.71-7.05-.14-10.1,1.62-.56.32-.05,1.19.5.86h0Z"/>
    <path class="cls-2" d="M24.74,5.5c-2.75,1.23-5.39,2.65-7.78,4.49-3.67,2.84-6.61,6.52-8.31,10.86-1.58,4.02-1.93,8.36-1.84,12.64.09,4.56-.37,9.13-.66,13.68-.73,11.56-1.46,23.11-2.18,34.67s-1.45,23.03-2.17,34.54S.28,139.21.06,150.64s.12,22.63,1.72,33.82c.92,6.43,2.78,14.19,8.81,17.76,1.82,1.08,3.89,1.72,5.94,2.15,3.81.79,7.75.91,11.63.77,4.89-.18,9.81-.67,14.67-1.22,3.97-.46,7.96-1.05,11.79-2.23,4.44-1.38,8.81-3.64,12.1-6.98,1.33-1.35,2.37-2.95,3.21-4.64,1.4-2.82,2.39-5.84,3.28-8.84,1.54-5.18,2.77-10.44,3.96-15.71,1.91-8.48,3.63-17.01,5.32-25.54.99-5.01,1.96-10.01,2.94-15.02.48-2.46,1.02-4.92,1.39-7.4.73-4.9,1.22-9.85,1.69-14.78.52-5.41.93-10.84,1.15-16.28.45-10.81.17-21.65-1.31-32.38-.73-5.33-1.77-10.61-3.16-15.81-1.32-4.92-2.91-9.81-5.11-14.41s-4.84-8.79-8.56-12.02c-3.2-2.78-7.02-4.61-11.04-5.87-2.95-.92-5.99-1.69-9-2.38-3.96-.91-8.02-1.44-12.09-1.35-5.07.11-10.03,1.19-14.67,3.24-.49.22-.61.94-.36,1.37.3.51.87.58,1.37.36,8.28-3.65,17.41-3.59,26.07-1.48,6.93,1.68,14.17,3.38,19.41,8.56,3.46,3.43,5.96,7.83,7.89,12.26s3.48,9.51,4.7,14.4c2.55,10.26,3.72,20.81,3.98,31.36s-.37,21.34-1.44,31.95c-.27,2.68-.57,5.36-.89,8.04-.16,1.32-.32,2.63-.49,3.95-.03.25-.06.49-.09.74.02-.16.03-.21,0-.04s-.05.33-.08.5c-.44,2.67-1,5.33-1.52,7.98-1.89,9.64-3.75,19.28-5.76,28.89-1.38,6.59-2.8,13.19-4.45,19.72-.99,3.91-2.04,7.83-3.44,11.61-.13.34-.25.67-.39,1.01-.06.16-.13.32-.19.47-.03.07-.06.14-.09.22-.1.24.07-.17-.03.08-.24.55-.48,1.09-.75,1.63-.44.88-.92,1.73-1.49,2.53-.12.17-.25.34-.37.51.06-.08.11-.13-.04.05-.07.08-.13.16-.2.25-.25.29-.5.58-.77.85-.74.75-1.55,1.43-2.39,2.06-5.93,4.43-13.28,5.82-20.48,6.63-4.81.54-9.67,1.02-14.51,1.19-3.71.13-7.48.03-11.12-.75-1.15-.25-2.29-.57-3.38-1-.1-.04-.21-.08-.31-.13.2.08-.07-.03-.13-.06-.2-.09-.4-.18-.6-.28-.32-.16-.64-.34-.95-.53-.25-.15-.49-.32-.73-.49-.05-.03-.09-.07-.14-.11-.12-.09.21.17.04.03-.08-.07-.17-.14-.25-.21-1.42-1.21-2.55-2.69-3.43-4.32-2.1-3.87-2.84-8.35-3.4-12.66-.72-5.56-1.15-11.16-1.36-16.76-.42-11.2,0-22.4.64-33.58.64-11.3,1.4-22.59,2.11-33.89s1.43-22.7,2.14-34.04c.36-5.65.71-11.31,1.07-16.96.29-4.54.78-9.11.68-13.66-.09-4.15.19-8.27,1.69-12.18s4.47-7.64,7.97-10.24c2.25-1.68,4.72-2.97,7.28-4.11.49-.22.61-.94.36-1.37-.3-.51-.87-.58-1.37-.36Z"/>
    <path class="cls-2" d="M140.54,1.77c-8.72-3.29-18.54,1-25.81,5.8-6.83,4.5-13.1,10.37-17.49,17.32-2.94,4.65-4.87,9.86-5.76,15.29s-.85,11.34-.51,17c.41,6.67,1.16,13.32,1.69,19.99.65,8.17.98,16.37.76,24.57-.28,10.26-1.4,20.47-3.28,30.56-.67,3.6-1.51,7.17-2.19,10.78-.73,3.89-1.25,7.81-1.53,11.76-.78,10.98.4,22.17,4.08,32.57,2.53,7.14,6.21,14.28,12.54,18.75,8,5.66,18.51,6.46,27.84,4.26,4.35-1.03,8.74-2.69,12.41-5.27s6.49-5.83,8.76-9.56c4.72-7.75,6.85-16.87,8.24-25.75,1.05-6.73,1.89-13.5,2.46-20.28.48-5.64.73-11.3.82-16.97.09-6,.01-12.01-.08-18.01-.11-7.7-.23-15.39-.28-23.09-.06-10.55.03-21.1.21-31.65.13-7.53-.58-15.05-2.25-22.39-1.21-5.33-3-10.46-5.01-15.53-1.68-4.23-3.51-8.47-6.13-12.2-2.43-3.46-5.52-6.39-9.51-7.94-.5-.2-1.1.22-1.23.7-.16.57.19,1.03.7,1.23,3.89,1.51,6.83,4.67,9.05,8.11,2.42,3.75,4.15,7.9,5.75,12.04,1.98,5.12,3.68,10.3,4.8,15.68.9,4.33,1.48,8.72,1.72,13.13.16,2.79.15,5.57.1,8.36-.1,5.67-.16,11.34-.19,17.01-.04,8.83,0,17.66.13,26.49.09,6.52.22,13.04.26,19.56.03,5.59-.02,11.18-.28,16.76-.27,5.89-.78,11.76-1.48,17.62-.94,7.9-1.98,15.87-4.2,23.53-2.35,8.12-6.24,16.44-13.36,21.43-3.6,2.52-7.85,4.12-12.12,5.11-4.48,1.04-9.21,1.36-13.78.69s-8.88-2.28-12.6-4.97c-.5-.36-.66-.49-1.18-.93s-.98-.87-1.45-1.33c-1.11-1.1-2.11-2.3-3-3.57-2.86-4.06-4.84-8.71-6.36-13.42-1.77-5.47-2.87-11.15-3.33-16.88-.69-8.52-.03-17.09,1.6-25.47.74-3.8,1.61-7.57,2.29-11.39.94-5.26,1.68-10.55,2.21-15.87.88-8.92,1.11-17.89.78-26.84-.27-7.26-.93-14.49-1.59-21.72-.55-5.99-1.11-12.01-1.01-18.03.09-5.32.72-10.37,2.54-15.43,1.95-5.42,5.34-10.43,9.34-14.69,3.28-3.49,6.95-6.61,10.94-9.26s8.18-4.81,12.76-5.98c3.85-.99,7.92-1.14,11.68.28.51.19,1.1-.21,1.23-.7.15-.56-.19-1.04-.7-1.23Z"/>
    <path class="cls-2" d="M173.25,69.06c-1.59,8.81-2.65,17.7-3.28,26.62-.74,10.44-.97,20.92-1.11,31.38-.09,6.66-.14,13.32-.19,19.98-.05,6.63-.13,13.26.08,19.88.27,8.45.8,17.58,5.03,25.12,4.74,8.45,13.7,13.63,22.93,15.77s18.51,1.7,27.27-1.26c7.29-2.46,14.15-6.45,19.89-11.58,2.68-2.39,5.05-5.12,6.89-8.22,2.25-3.77,3.71-7.97,4.78-12.21,1.58-6.28,2.38-12.76,3-19.19.93-9.67,1.35-19.4,1.66-29.11.44-13.66.64-27.33.73-40.99.08-11.18.08-22.37-.31-33.55-.25-7.18-.63-14.37-1.63-21.49-.6-4.23-1.42-8.52-3.08-12.48-1.16-2.77-2.77-5.31-4.93-7.4-5.77-5.59-13.84-8.7-21.69-9.81-10.9-1.54-22.67.31-32.09,6.19-5.95,3.71-10.02,9.34-12.79,15.71-3.83,8.82-5.8,18.4-7.66,27.79-1.25,6.27-2.38,12.56-3.51,18.85-.1.53.14,1.08.7,1.23.48.13,1.13-.16,1.23-.7,2.09-11.57,4.02-23.24,7.09-34.6,1.08-4,2.33-8.02,3.99-11.79.71-1.62,1.5-3.2,2.39-4.73.82-1.4,1.79-2.84,2.73-3.99,2.11-2.6,4.49-4.63,7.29-6.32,4.59-2.78,9.74-4.54,15.02-5.46,10.56-1.84,22.19-.31,31.33,5.5,1.73,1.1,3.39,2.35,4.84,3.81.46.46.89.94,1.3,1.44.1.12.2.25.3.38-.23-.29.12.16.19.26.2.27.39.54.57.82.4.62.77,1.26,1.11,1.91.18.34.34.69.5,1.04.08.17.15.34.23.51.08.19-.09-.23-.02-.04.02.05.04.1.06.15.04.1.08.21.12.31.71,1.78,1.24,3.62,1.68,5.48,1.31,5.57,1.79,10.86,2.19,16.62.63,9.02.79,18.08.86,27.12.1,13.35-.05,26.71-.29,40.06-.21,11.5-.49,23-1.15,34.49-.45,7.76-1.04,15.65-2.24,23.19-.8,5.07-1.87,10.16-3.76,14.95-.09.22-.18.45-.27.67-.02.05-.04.1-.07.16-.09.22.09-.21,0,.01-.05.12-.11.25-.16.37-.2.46-.41.91-.63,1.37-.41.84-.85,1.66-1.33,2.46s-.96,1.54-1.49,2.27c-.12.17-.25.34-.38.51-.06.08-.12.15-.17.23-.13.17.15-.19.02-.02-.04.05-.08.11-.12.16-.27.34-.54.67-.82.99-2.99,3.5-6.52,6.29-10.31,8.73-8.8,5.69-19.11,8.99-29.64,8.46-8.21-.41-16.69-2.64-23.36-7.79-3.18-2.46-5.78-5.42-7.63-8.95-1.68-3.21-2.65-6.81-3.27-10.44-.81-4.77-1.04-9.64-1.16-14.47-.17-6.68-.08-13.36-.03-20.04.09-11.99.15-23.98.58-35.96.32-9.16.89-18.31,2.02-27.4.52-4.16,1.16-8.31,1.9-12.44.1-.53-.14-1.08-.7-1.23-.48-.13-1.13.16-1.23.7Z"/>
    <path class="cls-1" d="M106.56,232.66c3.56-.88,6.96-2.59,9.7-5.05,1.19-1.07,2.2-2.82.87-4.21-1.1-1.14-2.95-1.33-4.43-1.05-3.46.66-6.2,3.76-7.65,6.81-.76,1.6-1.25,3.36-1.29,5.15-.04,1.87.67,3.43,2.01,4.72,2.92,2.82,6.97,4.39,11.01,4.45.64.01.64-.99,0-1-3.14-.05-6.2-1.05-8.76-2.88-1.22-.87-2.55-1.98-3.02-3.45s-.19-3.28.26-4.78c.88-2.89,2.85-5.71,5.5-7.22,1.24-.71,2.72-1.15,4.15-.81.68.16,1.57.51,1.81,1.24.29.87-.52,1.72-1.1,2.25-2.59,2.39-5.93,4.02-9.33,4.86-.62.15-.36,1.12.27.96h0Z"/>
    <path class="cls-1" d="M120.92,228.39c4.72-2.09,9.71-3.51,14.82-4.23.63-.09.36-1.05-.27-.96-5.2.74-10.26,2.2-15.06,4.33-.59.26-.08,1.12.5.86h0Z"/>
    <path class="cls-1" d="M128.9,219.56c-.66,4.61-1.29,9.23-1.86,13.85-.29,2.29-.56,4.58-.83,6.87-.07.57-.13,1.15-.2,1.72-.05.46-.15.95-.02,1.41.2.7.98,1.12,1.63.71.54-.34.04-1.21-.5-.86-.25.16-.11-1.2-.1-1.26.06-.49.11-.98.17-1.47.11-.98.23-1.96.35-2.95.23-1.96.48-3.93.73-5.89.51-3.96,1.04-7.92,1.61-11.87.09-.63-.87-.9-.96-.27h0Z"/>
    <path class="cls-1" d="M145.05,223.64c-3.96,1.87-6.6,6.17-8.14,10.12-.81,2.09-1.19,4.41-.53,6.59.59,1.96,1.95,3.57,3.91,4.24,2.69.92,5.51,0,8.03-.98.59-.23.33-1.2-.27-.96-2.05.8-4.28,1.62-6.51,1.24-2.01-.35-3.51-1.69-4.15-3.62s-.34-4.02.36-5.92,1.77-3.84,2.96-5.54c1.26-1.79,2.83-3.36,4.83-4.3.58-.27.07-1.14-.5-.86h0Z"/>
    <path class="cls-1" d="M155.21,241.92l.08-1.26-.93.25s.03.05.04.08c.06.12-.01-.05,0,.02.02.06.04.12.06.18,0,.03.01.06.02.08.02.1,0-.04,0,.02,0,.06,0,.13,0,.19,0,.04-.02.19,0,.08-.01.06-.02.13-.04.19,0,.03-.02.07-.03.1-.01.05-.02.04,0,0-.03.07-.06.13-.1.19l.79-.1c-.07-.08.06.09,0,0-.01-.02-.03-.04-.04-.07s-.03-.04-.04-.07c0-.01-.01-.03-.02-.04-.02-.03,0-.02.02.05,0-.02-.04-.12-.05-.15,0-.02-.01-.05-.02-.08-.02-.08,0-.01,0,.03,0-.05-.01-.12-.01-.17,0-.06,0-.11,0-.17,0-.09-.02.09,0,.02,0-.03,0-.05.01-.08.01-.06.03-.11.05-.17,0-.02.02-.05.03-.07.03-.09-.04.07,0,.02.03-.05.05-.1.08-.15,0-.02.09-.12.09-.13,0,.02-.07.09,0,0,.02-.02.03-.04.05-.06.02-.02.12-.1.12-.12,0,.01-.09.06-.03.02.03-.02.05-.03.08-.05.03-.02.12-.05.14-.07-.07.03-.08.03-.05.02.01,0,.03-.01.04-.02.03,0,.06-.02.09-.03l-.63-.48c.01.12.02.25.02.37,0,.05,0,.11,0,.16,0,.03,0,.07,0,.1,0,.01-.01.1,0,.04,0-.07,0,.04,0,.06,0,.03,0,.05-.02.08-.01.06-.03.12-.04.18-.03.12-.07.24-.12.35-.02.07.03-.07,0,0-.01.02-.02.05-.03.07-.03.06-.05.11-.08.17-.06.11-.13.21-.2.31-.02.02-.03.04-.05.07.04-.06.02-.02-.01.01-.04.04-.07.08-.11.12-.09.1-.19.18-.29.27l.61-.08s-.1-.07-.03-.02-.02-.02-.03-.02c-.03-.03-.06-.06-.09-.09-.07-.08.03.07,0,.01-.01-.02-.03-.05-.04-.07,0-.02-.09-.13-.08-.15,0,0,.04.11,0,.01,0-.03-.02-.05-.02-.08-.01-.04-.02-.09-.03-.13-.02-.11,0,.09,0,.02,0-.03,0-.06,0-.08,0-.06,0-.11,0-.17,0,0,0-.06,0-.07.03.02-.02.11,0,.02.01-.05.02-.1.04-.14,0,0,.02-.06.02-.06,0,0-.06.11,0,.01,0-.01.08-.16.09-.15,0,0-.07.08-.02.02.02-.02.04-.04.06-.06.02-.02.04-.04.07-.06-.02.01-.08.05,0,0,.09-.05,0,0,0,0h.04c-.08,0-.1,0-.06,0,.04,0,.1.02-.04,0,.08.02-.11-.06-.03-.01.03.02.06.05-.04-.04.01,0,.03.02.03.04-.13-.16,0,.03,0,.03,0,0-.04-.12-.02-.04,0,.02.01.04.02.06,0,.02.01.05.02.07,0,.02.01.13.01.04s0,.07,0,.09c0,.05,0,.11,0,.16,0,.02,0,.04,0,.06,0,.09,0-.03,0-.04-.03.04-.03.15-.04.19-.02.06-.04.12-.05.18.02-.09.02-.03,0,0,0,0-.07.11-.03.05.04-.06-.04.04-.04.04,0,0,.1-.06.02-.02.12-.06.07-.02.04-.01-.12.02,0-.01.02,0,0,0-.13-.02-.02,0,.09.02-.01,0-.02,0,0,0-.06-.02-.06-.02.03-.03.1.06.02,0,0,0-.07-.03-.07-.04,0,0,.09.09.02.02-.02-.02-.03-.03-.05-.05-.02-.02-.03-.03-.05-.05l.04.05s-.04-.06-.05-.07c0-.01-.02-.03-.02-.04.02.06.03.08.02.04,0-.02-.02-.06-.02-.08-.03-.09,0,.1,0,0,0-.03,0-.06,0-.09,0-.13-.03.09,0-.04.02-.07.04-.14.06-.2-.04.11.01-.02.02-.04.02-.04.04-.08.06-.12.04-.06.08-.13.12-.19.02-.02.04-.05.05-.07.07-.09-.04.04.03-.04.06-.07.11-.14.17-.2l-.61.08s-.07-.06-.01,0c.02.01.03.03.05.04.02.02.04.04.05.06.05.06-.02-.02-.02-.03,0,0,.07.1.08.12.01.02.02.05.04.07.04.07-.02-.02-.01-.03,0,0,.04.12.05.14.01.05.02.09.03.14.02.1,0-.08,0-.02,0,.03,0,.05,0,.08,0,.05,0,.1,0,.14,0,.02,0,.04,0,.06,0,.08-.03,0,0-.02-.02.02-.02.12-.03.14-.01.05-.03.09-.04.14-.02.07,0-.03.01-.03,0,0-.03.06-.03.07-.02.04-.05.08-.07.12,0,0-.04.05-.04.05-.01-.02.07-.08,0-.02-.03.03-.07.07-.1.1-.06.06.02-.02.03-.02,0,0-.08.05-.08.05l.73.56c.06-.34.11-.68.17-1.02.04-.26-.07-.55-.35-.62-.24-.05-.57.07-.62.35-.06.34-.11.68-.17,1.02-.03.2,0,.39.18.53.15.12.39.15.56.04.53-.33.81-.9.84-1.52s-.25-1.19-.74-1.57c-.16-.12-.48-.07-.61.08-.53.61-1.1,1.44-.65,2.26.17.32.5.59.86.66.45.09.9-.11,1.12-.52.16-.32.24-.71.23-1.06s-.09-.71-.34-.97c-.3-.31-.77-.35-1.13-.11-.32.21-.54.54-.65.9-.23.76.07,1.62.73,2.06.2.13.44.06.61-.08.88-.72,1.37-1.93,1.24-3.07-.04-.32-.29-.57-.63-.48-.65.17-1.13.7-1.33,1.33s-.09,1.33.34,1.85c.21.26.63.15.79-.1.4-.65.4-1.48.04-2.15-.1-.19-.36-.3-.56-.23-.22.07-.35.25-.37.48l-.08,1.26c-.02.26.24.51.5.5.29-.01.48-.22.5-.5h0Z"/>
  </g>
</svg>